<?xml version="1.0" encoding="UTF-8" standalone="no"?><svg xmlns="http://www.w3.org/2000/svg" xmlns:xlink="http://www.w3.org/1999/xlink" stroke-dasharray="none" shape-rendering="auto" font-family="'Dialog'" width="38.812600" text-rendering="auto" fill-opacity="1" contentScriptType="text/ecmascript" color-interpolation="auto" color-rendering="auto" preserveAspectRatio="xMidYMid meet" font-size="12" fill="black" stroke="black" image-rendering="auto" stroke-miterlimit="10" zoomAndPan="magnify" version="1.0" stroke-linecap="square" stroke-linejoin="miter" contentStyleType="text/css" font-style="normal" height="16" stroke-width="1" stroke-dashoffset="0" font-weight="normal" stroke-opacity="1" y="-1.000000"><!--Converted from MathML using JEuclid--><defs id="genericDefs"/><g><g text-rendering="optimizeLegibility" transform="translate(0.5,15)" color-rendering="optimizeQuality" color-interpolation="linearRGB" image-rendering="optimizeQuality"><path d="M9.1562 -1.0156 Q8.2969 0.1562 7.3594 0.1562 Q6.8438 0.1562 6.5 -0.2031 Q6.1562 -0.5625 5.9766 -1.2656 Q5.7969 -1.9688 5.7344 -2.9531 L5.4375 -7.2031 L5.375 -7.2031 Q4.7969 -6.0781 3.3281 -3.4219 Q1.9688 -0.9688 1.5 0 L-0.5 0 L-0.4062 -0.4844 L-0.0156 -0.875 Q0.4844 -1.375 1.1094 -2.4062 L5.2656 -9.2344 Q5.0781 -11.2812 4.6797 -12.0234 Q4.2812 -12.7656 3.4375 -12.7656 Q2.6406 -12.7656 1.9688 -12.0781 L1.6094 -12.5625 Q2.8594 -14.0312 4.0312 -14.0312 Q5.0469 -14.0312 5.5781 -13.2344 Q6.1094 -12.4375 6.2344 -10.5781 Q6.5156 -6.7969 6.7812 -4.6094 Q7.0469 -2.4219 7.3359 -1.7422 Q7.625 -1.0625 8.0625 -1.0625 Q8.4688 -1.0625 8.7812 -1.5 L9.1562 -1.0156 Z" stroke="none"/></g><g text-rendering="optimizeLegibility" transform="translate(10.4375,15)" color-rendering="optimizeQuality" color-interpolation="linearRGB" image-rendering="optimizeQuality"><path d="M1.2188 -7.0625 L1.2188 -8.4219 L9.8594 -8.4219 L9.8594 -7.0625 L1.2188 -7.0625 ZM1.2188 -3.0156 L1.2188 -4.3594 L9.8594 -4.3594 L9.8594 -3.0156 L1.2188 -3.0156 Z" stroke="none"/></g><g text-rendering="optimizeLegibility" transform="translate(22.2969,15)" color-rendering="optimizeQuality" color-interpolation="linearRGB" image-rendering="optimizeQuality"><path d="M0.5156 -0.4844 Q0.8906 -0.5312 1.0781 -0.6641 Q1.2656 -0.7969 1.3906 -1.0312 Q1.5156 -1.2656 1.625 -1.6016 Q1.7344 -1.9375 1.9375 -2.9062 L3.6094 -10.4375 Q3.7031 -10.875 3.7578 -11.2891 Q3.8125 -11.7031 3.8125 -12 Q3.8125 -12.4688 3.5781 -12.6484 Q3.3438 -12.8281 2.8594 -12.8594 L2.9688 -13.3281 L6.875 -13.3281 L6.7656 -12.8594 Q6.3906 -12.7812 6.2344 -12.6797 Q6.0781 -12.5781 5.9453 -12.3828 Q5.8125 -12.1875 5.6797 -11.7734 Q5.5469 -11.3594 5.3438 -10.4219 L3.25 -0.9062 L5.6562 -0.9062 Q6.3125 -0.9062 6.6875 -1.0312 Q7.0625 -1.1562 7.3984 -1.4922 Q7.7344 -1.8281 8.0547 -2.4062 Q8.375 -2.9844 8.7188 -3.8438 L9.6562 -3.8438 L8.6719 0 L0.4062 0 L0.5156 -0.4844 Z" stroke="none"/></g><g text-rendering="optimizeLegibility" transform="translate(31.9531,15)" color-rendering="optimizeQuality" color-interpolation="linearRGB" image-rendering="optimizeQuality"><path d="M5.4688 -13.1719 L5.0156 -11.2656 L3.2969 -11.2656 L3.7344 -13.1719 L5.4688 -13.1719 ZM3.0625 -2.4375 Q2.9531 -1.9375 2.9219 -1.7109 Q2.8906 -1.4844 2.8906 -1.3281 Q2.8906 -1.0312 2.9922 -0.8672 Q3.0938 -0.7031 3.2969 -0.6172 Q3.5 -0.5312 3.9688 -0.4844 L3.875 0 L0.8438 0 L2.3281 -6.5781 Q2.4531 -7.1562 2.5 -7.4922 Q2.5469 -7.8281 2.5469 -8.0469 Q2.5469 -8.3281 2.4688 -8.4844 Q2.3906 -8.6406 2.1953 -8.7188 Q2 -8.7969 1.5156 -8.8125 L1.625 -9.3438 L4 -9.4219 L4.5781 -9.4219 L3.0625 -2.4375 Z" stroke="none"/></g></g></svg>