<?xml version="1.0" encoding="UTF-8" standalone="no"?><svg xmlns="http://www.w3.org/2000/svg" xmlns:xlink="http://www.w3.org/1999/xlink" stroke-dasharray="none" shape-rendering="auto" font-family="'Dialog'" width="94.812600" text-rendering="auto" fill-opacity="1" contentScriptType="text/ecmascript" color-interpolation="auto" color-rendering="auto" preserveAspectRatio="xMidYMid meet" font-size="12" fill="black" stroke="black" image-rendering="auto" stroke-miterlimit="10" zoomAndPan="magnify" version="1.0" stroke-linecap="square" stroke-linejoin="miter" contentStyleType="text/css" font-style="normal" height="21" stroke-width="1" stroke-dashoffset="0" font-weight="normal" stroke-opacity="1" y="-7.000000"><!--Converted from MathML using JEuclid--><defs id="genericDefs"/><g><g text-rendering="optimizeLegibility" transform="translate(0,14)" color-rendering="optimizeQuality" color-interpolation="linearRGB" image-rendering="optimizeQuality"><path d="M1.5 -9.3438 L4.5781 -9.3438 L3.3281 -4.3594 Q3.1875 -3.8125 3.0859 -3.2734 Q2.9844 -2.7344 2.9844 -2.2812 Q2.9844 -1.5938 3.2266 -1.2891 Q3.4688 -0.9844 3.9688 -0.9844 Q4.3906 -0.9844 4.8828 -1.3125 Q5.375 -1.6406 5.9219 -2.3281 Q6.4688 -3.0156 6.7812 -3.6328 Q7.0938 -4.25 7.2812 -5.0938 L8.1719 -9.3438 L9.8594 -9.3438 L8.375 -2.6719 Q8.3125 -2.4062 8.2344 -1.9766 Q8.1562 -1.5469 8.1562 -1.2656 Q8.1562 -0.8594 8.3828 -0.6875 Q8.6094 -0.5156 9.2344 -0.4844 L9.125 0 L6.3438 0 L6.9688 -2.4531 L6.8438 -2.4844 Q5.8906 -1.1406 5.0078 -0.4922 Q4.125 0.1562 3.2188 0.1562 Q2.2812 0.1562 1.7891 -0.3672 Q1.2969 -0.8906 1.2969 -1.9219 Q1.2969 -2.2031 1.3516 -2.6016 Q1.4062 -3 1.5 -3.4219 L2.3281 -6.8906 Q2.4219 -7.3281 2.4531 -7.5781 Q2.4844 -7.8281 2.4844 -8.0156 Q2.4844 -8.4531 2.25 -8.625 Q2.0156 -8.7969 1.4219 -8.8438 L1.5 -9.3438 Z" stroke="none"/></g><g text-rendering="optimizeLegibility" transform="translate(11.5781,17.4375)" color-rendering="optimizeQuality" color-interpolation="linearRGB" image-rendering="optimizeQuality"><path d="M1.2656 -5.0469 Q1.2031 -5.5625 1.1406 -5.7656 Q1.0781 -5.9688 0.9375 -6.0781 Q0.7969 -6.1875 0.5 -6.2031 L0.5625 -6.5312 L2.3281 -6.5312 L2.8438 -1.0938 Q5.1562 -4.2656 5.1562 -5.625 Q5.1562 -5.9531 5.0156 -6.0703 Q4.875 -6.1875 4.5469 -6.2031 L4.625 -6.5312 L6.3906 -6.5312 L6.5625 -6.1875 Q6.2031 -5.25 5.6406 -4.2266 Q5.0781 -3.2031 4.2656 -1.9922 Q3.4531 -0.7812 2.4531 0.5156 Q1.6875 1.5312 1.1562 2.0312 Q0.7656 2.4219 0.4219 2.625 Q0.0781 2.8281 -0.2344 2.9141 Q-0.5469 3 -0.9062 3 Q-1.0938 3 -1.3281 2.9609 Q-1.5625 2.9219 -1.7188 2.8594 L-1.4219 1.5938 L-0.8906 1.5938 Q-0.8906 1.8125 -0.7891 1.9531 Q-0.6875 2.0938 -0.4844 2.0938 Q-0.2656 2.0938 -0.1094 2.0469 Q0.0469 2 0.2188 1.8984 Q0.3906 1.7969 0.6406 1.5703 Q0.8906 1.3438 1.2109 0.9766 Q1.5312 0.6094 1.9219 0.0781 L1.2656 -5.0469 Z" stroke="none"/></g><g text-rendering="optimizeLegibility" transform="translate(19.9375,17.4375)" color-rendering="optimizeQuality" color-interpolation="linearRGB" image-rendering="optimizeQuality"><path d="M3.8438 -9.2188 L3.5312 -7.8906 L2.3281 -7.8906 L2.6406 -9.2188 L3.8438 -9.2188 ZM1.7969 0.1094 Q1.5781 1.1562 1.2031 1.7891 Q0.8281 2.4219 0.2188 2.7422 Q-0.3906 3.0625 -1.2188 3.0625 Q-1.5625 3.0625 -1.7969 2.9844 L-1.6406 2.3906 Q-1.5312 2.4219 -1.3984 2.4297 Q-1.2656 2.4375 -1.125 2.4375 Q-0.7969 2.4375 -0.5625 2.3438 Q-0.3281 2.25 -0.1328 2.0156 Q0.0625 1.7812 0.2266 1.375 Q0.3906 0.9688 0.5469 0.3125 L1.6406 -4.6094 Q1.7344 -4.9844 1.7734 -5.2266 Q1.8125 -5.4688 1.8125 -5.6406 Q1.8125 -5.8281 1.75 -5.9375 Q1.6875 -6.0469 1.5547 -6.1016 Q1.4219 -6.1562 1.0781 -6.1719 L1.1562 -6.5312 L2.8281 -6.5938 L3.2188 -6.5938 L1.7969 0.1094 Z" stroke="none"/></g><g text-rendering="optimizeLegibility" transform="translate(23.7812,17.4375)" color-rendering="optimizeQuality" color-interpolation="linearRGB" image-rendering="optimizeQuality"><path d="M3.0469 0.1094 Q0.8594 0.1094 0.8594 -2.6406 Q0.8594 -5.0312 2.1406 -7.3281 Q3.4219 -9.625 5.3906 -9.625 Q7.4531 -9.625 7.4531 -6.9375 Q7.4531 -4.5469 6.2031 -2.2188 Q4.9531 0.1094 3.0469 0.1094 ZM2.5156 -5.2812 L6.0312 -5.2812 Q6.2969 -6.7344 6.2969 -7.5 Q6.2969 -9.0625 5.25 -9.0625 Q4.4531 -9.0625 3.7422 -8.0781 Q3.0312 -7.0938 2.5156 -5.2812 ZM2.3594 -4.6406 Q1.9844 -3.0938 1.9844 -2.0469 Q1.9844 -0.4688 3.1719 -0.4688 Q4.0312 -0.4688 4.7266 -1.5703 Q5.4219 -2.6719 5.8906 -4.6406 L2.3594 -4.6406 Z" stroke="none"/></g><g text-rendering="optimizeLegibility" transform="translate(32.0156,14)" color-rendering="optimizeQuality" color-interpolation="linearRGB" image-rendering="optimizeQuality"><path d="M1.2188 -7.0625 L1.2188 -8.4219 L9.8594 -8.4219 L9.8594 -7.0625 L1.2188 -7.0625 ZM1.2188 -3.0156 L1.2188 -4.3594 L9.8594 -4.3594 L9.8594 -3.0156 L1.2188 -3.0156 Z" stroke="none"/></g><g text-rendering="optimizeLegibility" transform="translate(43.875,14)" color-rendering="optimizeQuality" color-interpolation="linearRGB" image-rendering="optimizeQuality"><path d="M3.6719 -2.8438 Q3.6094 -2.5469 3.5703 -2.3438 Q3.5312 -2.1406 3.5 -1.8438 Q3.4688 -1.5469 3.4688 -1.3125 Q3.4688 -1.0156 3.5625 -0.8438 Q3.6562 -0.6719 3.8516 -0.5938 Q4.0469 -0.5156 4.5312 -0.4844 L4.4219 0 L0.4062 0 L0.5156 -0.4844 Q0.8906 -0.5312 1.0781 -0.6641 Q1.2656 -0.7969 1.3906 -1.0312 Q1.5156 -1.2656 1.625 -1.6016 Q1.7344 -1.9375 1.9375 -2.9062 L3.6094 -10.4375 Q3.8125 -11.4062 3.8125 -11.9688 Q3.8125 -12.4531 3.5938 -12.6406 Q3.375 -12.8281 2.8594 -12.8594 L2.9688 -13.3281 L11.7812 -13.3281 L11.1094 -10.3281 L10.1719 -10.3281 Q10.125 -11.0312 10.0547 -11.4219 Q9.9844 -11.8125 9.8828 -12.0078 Q9.7812 -12.2031 9.6562 -12.2969 Q9.5312 -12.3906 9.3438 -12.4297 Q9.1562 -12.4688 8.7969 -12.4688 L5.7969 -12.4688 L4.625 -7.1562 L6.4531 -7.1562 Q6.8906 -7.1562 7.1719 -7.2734 Q7.4531 -7.3906 7.6953 -7.7031 Q7.9375 -8.0156 8.2969 -8.75 L9.1875 -8.75 L8.25 -4.625 L7.3906 -4.625 Q7.3906 -5.2344 7.3594 -5.5781 Q7.3281 -5.9219 7.2422 -6.0547 Q7.1562 -6.1875 6.9844 -6.2422 Q6.8125 -6.2969 6.3594 -6.2969 L4.4375 -6.2969 L3.6719 -2.8438 Z" stroke="none"/></g><g text-rendering="optimizeLegibility" transform="translate(55.6562,14)" color-rendering="optimizeQuality" color-interpolation="linearRGB" image-rendering="optimizeQuality"><path d="M4.6562 -7.3125 L4.9688 -7.3125 Q5.375 -7.3125 5.7188 -7.4453 Q6.0625 -7.5781 6.5078 -7.9375 Q6.9531 -8.2969 7.9375 -9.2656 Q8.9219 -10.2344 9.3359 -10.7344 Q9.75 -11.2344 9.9375 -11.6016 Q10.125 -11.9688 10.125 -12.2812 Q10.125 -12.5156 9.9297 -12.6719 Q9.7344 -12.8281 9.375 -12.8594 L9.4844 -13.3281 L13.6719 -13.3281 L13.5625 -12.8594 Q13.1719 -12.7969 12.6797 -12.4453 Q12.1875 -12.0938 11.1719 -11.0938 L7.3906 -7.4062 L9.4688 -2.4062 Q9.7344 -1.7656 9.8906 -1.4688 Q10.0469 -1.1719 10.2344 -0.9688 Q10.4219 -0.7656 10.6562 -0.6484 Q10.8906 -0.5312 11.2188 -0.4844 L11.1094 0 L7.3438 0 L7.4531 -0.4844 Q7.9844 -0.5312 7.9844 -0.9531 Q7.9844 -1.0781 7.9609 -1.2109 Q7.9375 -1.3438 7.8516 -1.6094 Q7.7656 -1.875 7.625 -2.25 L6.3438 -5.3594 Q6.125 -5.9062 5.9609 -6.1328 Q5.7969 -6.3594 5.6094 -6.4453 Q5.4219 -6.5312 5.0312 -6.5312 L4.4844 -6.5312 L3.6719 -2.8438 Q3.5469 -2.25 3.5078 -1.9141 Q3.4688 -1.5781 3.4688 -1.3125 Q3.4688 -0.875 3.6875 -0.6953 Q3.9062 -0.5156 4.4219 -0.4844 L4.3125 0 L0.4062 0 L0.5156 -0.4844 Q0.8906 -0.5312 1.0781 -0.6641 Q1.2656 -0.7969 1.3906 -1.0312 Q1.5156 -1.2656 1.625 -1.6016 Q1.7344 -1.9375 1.9375 -2.9062 L3.6094 -10.4375 Q3.7031 -10.875 3.7578 -11.2891 Q3.8125 -11.7031 3.8125 -12 Q3.8125 -12.4688 3.5781 -12.6484 Q3.3438 -12.8281 2.8594 -12.8594 L2.9688 -13.3281 L6.875 -13.3281 L6.7656 -12.8594 Q6.3906 -12.7812 6.2344 -12.6797 Q6.0781 -12.5781 5.9453 -12.3828 Q5.8125 -12.1875 5.6797 -11.7734 Q5.5469 -11.3594 5.3438 -10.4219 L4.6562 -7.3125 Z" stroke="none"/></g><g text-rendering="optimizeLegibility" transform="translate(69.3281,14)" color-rendering="optimizeQuality" color-interpolation="linearRGB" image-rendering="optimizeQuality"><path d="M1.5 -9.3438 L4.5781 -9.3438 L3.3281 -4.3594 Q3.1875 -3.8125 3.0859 -3.2734 Q2.9844 -2.7344 2.9844 -2.2812 Q2.9844 -1.5938 3.2266 -1.2891 Q3.4688 -0.9844 3.9688 -0.9844 Q4.3906 -0.9844 4.8828 -1.3125 Q5.375 -1.6406 5.9219 -2.3281 Q6.4688 -3.0156 6.7812 -3.6328 Q7.0938 -4.25 7.2812 -5.0938 L8.1719 -9.3438 L9.8594 -9.3438 L8.375 -2.6719 Q8.3125 -2.4062 8.2344 -1.9766 Q8.1562 -1.5469 8.1562 -1.2656 Q8.1562 -0.8594 8.3828 -0.6875 Q8.6094 -0.5156 9.2344 -0.4844 L9.125 0 L6.3438 0 L6.9688 -2.4531 L6.8438 -2.4844 Q5.8906 -1.1406 5.0078 -0.4922 Q4.125 0.1562 3.2188 0.1562 Q2.2812 0.1562 1.7891 -0.3672 Q1.2969 -0.8906 1.2969 -1.9219 Q1.2969 -2.2031 1.3516 -2.6016 Q1.4062 -3 1.5 -3.4219 L2.3281 -6.8906 Q2.4219 -7.3281 2.4531 -7.5781 Q2.4844 -7.8281 2.4844 -8.0156 Q2.4844 -8.4531 2.25 -8.625 Q2.0156 -8.7969 1.4219 -8.8438 L1.5 -9.3438 Z" stroke="none"/></g><g text-rendering="optimizeLegibility" transform="translate(80.9062,17.2344)" color-rendering="optimizeQuality" color-interpolation="linearRGB" image-rendering="optimizeQuality"><path d="M1.2656 -5.0469 Q1.2031 -5.5625 1.1406 -5.7656 Q1.0781 -5.9688 0.9375 -6.0781 Q0.7969 -6.1875 0.5 -6.2031 L0.5625 -6.5312 L2.3281 -6.5312 L2.8438 -1.0938 Q5.1562 -4.2656 5.1562 -5.625 Q5.1562 -5.9531 5.0156 -6.0703 Q4.875 -6.1875 4.5469 -6.2031 L4.625 -6.5312 L6.3906 -6.5312 L6.5625 -6.1875 Q6.2031 -5.25 5.6406 -4.2266 Q5.0781 -3.2031 4.2656 -1.9922 Q3.4531 -0.7812 2.4531 0.5156 Q1.6875 1.5312 1.1562 2.0312 Q0.7656 2.4219 0.4219 2.625 Q0.0781 2.8281 -0.2344 2.9141 Q-0.5469 3 -0.9062 3 Q-1.0938 3 -1.3281 2.9609 Q-1.5625 2.9219 -1.7188 2.8594 L-1.4219 1.5938 L-0.8906 1.5938 Q-0.8906 1.8125 -0.7891 1.9531 Q-0.6875 2.0938 -0.4844 2.0938 Q-0.2656 2.0938 -0.1094 2.0469 Q0.0469 2 0.2188 1.8984 Q0.3906 1.7969 0.6406 1.5703 Q0.8906 1.3438 1.2109 0.9766 Q1.5312 0.6094 1.9219 0.0781 L1.2656 -5.0469 Z" stroke="none"/></g><g text-rendering="optimizeLegibility" transform="translate(89.2656,17.2344)" color-rendering="optimizeQuality" color-interpolation="linearRGB" image-rendering="optimizeQuality"><path d="M3.8438 -9.2188 L3.5312 -7.8906 L2.3281 -7.8906 L2.6406 -9.2188 L3.8438 -9.2188 ZM1.7969 0.1094 Q1.5781 1.1562 1.2031 1.7891 Q0.8281 2.4219 0.2188 2.7422 Q-0.3906 3.0625 -1.2188 3.0625 Q-1.5625 3.0625 -1.7969 2.9844 L-1.6406 2.3906 Q-1.5312 2.4219 -1.3984 2.4297 Q-1.2656 2.4375 -1.125 2.4375 Q-0.7969 2.4375 -0.5625 2.3438 Q-0.3281 2.25 -0.1328 2.0156 Q0.0625 1.7812 0.2266 1.375 Q0.3906 0.9688 0.5469 0.3125 L1.6406 -4.6094 Q1.7344 -4.9844 1.7734 -5.2266 Q1.8125 -5.4688 1.8125 -5.6406 Q1.8125 -5.8281 1.75 -5.9375 Q1.6875 -6.0469 1.5547 -6.1016 Q1.4219 -6.1562 1.0781 -6.1719 L1.1562 -6.5312 L2.8281 -6.5938 L3.2188 -6.5938 L1.7969 0.1094 Z" stroke="none"/></g></g></svg>