<?xml version="1.0" encoding="UTF-8" standalone="no"?><svg xmlns="http://www.w3.org/2000/svg" xmlns:xlink="http://www.w3.org/1999/xlink" stroke-dasharray="none" shape-rendering="auto" font-family="'Dialog'" width="83.812600" text-rendering="auto" fill-opacity="1" contentScriptType="text/ecmascript" color-interpolation="auto" color-rendering="auto" preserveAspectRatio="xMidYMid meet" font-size="12" fill="black" stroke="black" image-rendering="auto" stroke-miterlimit="10" zoomAndPan="magnify" version="1.0" stroke-linecap="square" stroke-linejoin="miter" contentStyleType="text/css" font-style="normal" height="21" stroke-width="1" stroke-dashoffset="0" font-weight="normal" stroke-opacity="1" y="-5.000000"><!--Converted from MathML using JEuclid--><defs id="genericDefs"/><g><g text-rendering="optimizeLegibility" transform="translate(0.2344,16)" color-rendering="optimizeQuality" color-interpolation="linearRGB" image-rendering="optimizeQuality"><path d="M7.2188 4.25 Q5.5625 4.25 4.5078 3.75 Q3.4531 3.25 2.8672 2.2344 Q2.2812 1.2188 2.0234 -0.4141 Q1.7656 -2.0469 1.7656 -4.8438 Q1.7656 -7.625 2.0234 -9.2656 Q2.2812 -10.9062 2.8672 -11.9453 Q3.4531 -12.9844 4.5078 -13.5 Q5.5625 -14.0156 7.2188 -14.0156 L7.2188 -13.2188 Q6.5312 -13.2188 6 -13.0938 Q5.4062 -12.9531 4.9844 -12.5625 Q4.5156 -12.1406 4.2344 -11.375 Q3.8906 -10.4688 3.7188 -8.9844 Q3.5469 -7.4062 3.5469 -4.9219 Q3.5469 -2.7188 3.6953 -1.1797 Q3.8438 0.3594 4.1875 1.3281 Q4.4531 2.1562 4.8594 2.6094 Q5.2188 3.0156 5.7188 3.2188 Q6.2969 3.4531 7.2188 3.4531 L7.2188 4.25 Z" stroke="none"/></g><g text-rendering="optimizeLegibility" transform="translate(10.0938,16)" color-rendering="optimizeQuality" color-interpolation="linearRGB" image-rendering="optimizeQuality"><path d="M6.25 -13.3281 L6.1406 -12.8594 Q5.7188 -12.7812 5.4688 -12.5625 Q5.2188 -12.3438 5.2188 -11.9219 Q5.2188 -11.2969 5.5469 -10.3594 L6.3594 -7.9844 L8.4531 -10.6406 Q8.5938 -10.8281 8.7344 -11.0234 Q8.875 -11.2188 8.9922 -11.4141 Q9.1094 -11.6094 9.1562 -11.7422 Q9.2031 -11.875 9.2344 -11.9844 Q9.2656 -12.0938 9.2656 -12.1875 Q9.2656 -12.4531 9.1094 -12.6406 Q8.9531 -12.8281 8.5625 -12.8594 L8.6719 -13.3281 L12.3125 -13.3281 L12.2031 -12.8594 Q11.9219 -12.7656 11.6562 -12.5703 Q11.3906 -12.375 11.0391 -11.9844 Q10.6875 -11.5938 9.7188 -10.4375 L6.8125 -6.9688 L8.2344 -3 Q8.5625 -2.0938 8.75 -1.6406 Q8.9688 -1.1562 9.125 -0.9219 Q9.25 -0.7656 9.3906 -0.6719 Q9.5156 -0.5781 9.8438 -0.4844 L9.75 0 L5.7969 0 L5.9062 -0.4844 Q6.3438 -0.5469 6.5859 -0.7891 Q6.8281 -1.0312 6.8281 -1.4062 Q6.8281 -1.9844 6.5938 -2.6875 L5.5781 -5.6719 L3.3438 -2.875 Q2.8594 -2.25 2.6328 -1.8594 Q2.4062 -1.4688 2.4062 -1.1875 Q2.4062 -0.9531 2.4688 -0.8125 Q2.5312 -0.6719 2.6797 -0.5938 Q2.8281 -0.5156 3.0938 -0.4844 L2.9844 0 L-0.6406 0 L-0.5469 -0.4844 Q-0.3594 -0.5469 -0.2031 -0.6328 Q-0.0469 -0.7188 0.1328 -0.8672 Q0.3125 -1.0156 0.6172 -1.3594 Q0.9219 -1.7031 1.3125 -2.1562 L5.125 -6.6875 L3.6875 -10.7031 Q3.4688 -11.2969 3.3047 -11.6953 Q3.1406 -12.0938 2.9766 -12.3281 Q2.8125 -12.5625 2.6406 -12.6797 Q2.4688 -12.7969 2.2031 -12.8594 L2.3125 -13.3281 L6.25 -13.3281 Z" stroke="none"/></g><g text-rendering="optimizeLegibility" transform="translate(21.6719,11.2109)" color-rendering="optimizeQuality" color-interpolation="linearRGB" image-rendering="optimizeQuality"><path d="M2.9688 -10.7188 L2.9688 -10.3281 L1.3125 -6.3594 L0.7344 -6.5312 L1.6875 -10.7188 L2.9688 -10.7188 Z" stroke="none"/></g><g text-rendering="optimizeLegibility" transform="translate(26.4062,16)" color-rendering="optimizeQuality" color-interpolation="linearRGB" image-rendering="optimizeQuality"><path d="M3.0156 -2.2656 Q3.1562 -1.5781 3.1562 -0.9219 Q3.1562 -0.2344 2.9219 0.3359 Q2.6875 0.9062 2.1719 1.4609 Q1.6562 2.0156 0.7656 2.7031 L0.2344 2.0938 Q0.7344 1.625 0.9609 1.25 Q1.1875 0.875 1.2812 0.3984 Q1.375 -0.0781 1.375 -0.7969 Q1.375 -1.5469 1.3125 -2.2656 L3.0156 -2.2656 Z" stroke="none"/></g><g text-rendering="optimizeLegibility" transform="translate(34.5625,16)" color-rendering="optimizeQuality" color-interpolation="linearRGB" image-rendering="optimizeQuality"><path d="M5.7344 -13.3281 L5.625 -12.8594 Q5.2188 -12.8125 5 -12.6094 Q4.7812 -12.4062 4.7812 -12 Q4.7812 -11.3906 5.0625 -10.4375 L6.0938 -6.75 L8.5 -9.9688 Q9.0312 -10.6719 9.2734 -11.0781 Q9.5156 -11.4844 9.6094 -11.7969 Q9.6875 -12.0312 9.6875 -12.25 Q9.6875 -12.5156 9.5 -12.6641 Q9.3125 -12.8125 8.9688 -12.8594 L9.0781 -13.3281 L12.7344 -13.3281 L12.625 -12.8594 Q12.3906 -12.7969 12.2188 -12.7109 Q12.0469 -12.625 11.8281 -12.4141 Q11.6094 -12.2031 11.2344 -11.75 Q10.8594 -11.2969 10.2812 -10.5312 L6.4688 -5.6094 L5.875 -2.8438 Q5.7812 -2.4531 5.75 -2.2344 Q5.7188 -2.0156 5.6953 -1.7656 Q5.6719 -1.5156 5.6719 -1.3125 Q5.6719 -1.0156 5.7656 -0.8438 Q5.8594 -0.6719 6.0547 -0.5938 Q6.25 -0.5156 6.7344 -0.4844 L6.625 0 L2.5156 0 L2.625 -0.4844 Q3.0156 -0.5312 3.1953 -0.6328 Q3.375 -0.7344 3.5156 -0.9375 Q3.6562 -1.1406 3.8047 -1.5781 Q3.9531 -2.0156 4.1406 -2.9062 L4.7188 -5.6094 L3.2969 -10.5312 Q2.9844 -11.6719 2.7969 -12.0703 Q2.6094 -12.4688 2.3984 -12.6328 Q2.1875 -12.7969 1.8438 -12.8594 L1.9531 -13.3281 L5.7344 -13.3281 Z" stroke="none"/></g><g text-rendering="optimizeLegibility" transform="translate(46.5625,11.2109)" color-rendering="optimizeQuality" color-interpolation="linearRGB" image-rendering="optimizeQuality"><path d="M2.9688 -10.7188 L2.9688 -10.3281 L1.3125 -6.3594 L0.7344 -6.5312 L1.6875 -10.7188 L2.9688 -10.7188 Z" stroke="none"/></g><g text-rendering="optimizeLegibility" transform="translate(51.2969,16)" color-rendering="optimizeQuality" color-interpolation="linearRGB" image-rendering="optimizeQuality"><path d="M3.0156 -2.2656 Q3.1562 -1.5781 3.1562 -0.9219 Q3.1562 -0.2344 2.9219 0.3359 Q2.6875 0.9062 2.1719 1.4609 Q1.6562 2.0156 0.7656 2.7031 L0.2344 2.0938 Q0.7344 1.625 0.9609 1.25 Q1.1875 0.875 1.2812 0.3984 Q1.375 -0.0781 1.375 -0.7969 Q1.375 -1.5469 1.3125 -2.2656 L3.0156 -2.2656 Z" stroke="none"/></g><g text-rendering="optimizeLegibility" transform="translate(59.5938,16)" color-rendering="optimizeQuality" color-interpolation="linearRGB" image-rendering="optimizeQuality"><path d="M2.3125 -0.9062 L5.4375 -0.9062 Q5.875 -0.9062 6.1484 -0.9609 Q6.4219 -1.0156 6.6328 -1.1328 Q6.8438 -1.25 7.0312 -1.4297 Q7.2188 -1.6094 7.4062 -1.8516 Q7.5938 -2.0938 7.8281 -2.5 Q8.0625 -2.9062 8.3281 -3.5312 L9.2656 -3.5312 L8.5156 0 L-0.1406 0 L-0.0469 -0.4844 L8.8125 -12.4375 L5.8281 -12.4375 Q5.4062 -12.4375 5.1641 -12.3906 Q4.9219 -12.3438 4.7344 -12.25 Q4.5469 -12.1562 4.4062 -12.0391 Q4.2656 -11.9219 4.0625 -11.6797 Q3.8594 -11.4375 3.6172 -11.0547 Q3.375 -10.6719 3.0625 -10.0312 L2.125 -10.0312 L2.8594 -13.3281 L11.3125 -13.3281 L11.2031 -12.8594 L2.3125 -0.9062 Z" stroke="none"/></g><g text-rendering="optimizeLegibility" transform="translate(70.1719,11.2109)" color-rendering="optimizeQuality" color-interpolation="linearRGB" image-rendering="optimizeQuality"><path d="M2.9688 -10.7188 L2.9688 -10.3281 L1.3125 -6.3594 L0.7344 -6.5312 L1.6875 -10.7188 L2.9688 -10.7188 Z" stroke="none"/></g><g text-rendering="optimizeLegibility" transform="translate(74.7188,16)" color-rendering="optimizeQuality" color-interpolation="linearRGB" image-rendering="optimizeQuality"><path d="M0.4219 -14.0156 Q2.0781 -14.0156 3.1328 -13.5156 Q4.1875 -13.0156 4.7734 -12 Q5.3594 -10.9844 5.6172 -9.3516 Q5.875 -7.7188 5.875 -4.9219 Q5.875 -2.1562 5.6172 -0.5078 Q5.3594 1.1406 4.7734 2.1797 Q4.1875 3.2188 3.1328 3.7344 Q2.0781 4.25 0.4219 4.25 L0.4219 3.4531 Q1.1094 3.4531 1.625 3.3281 Q2.2344 3.1875 2.6406 2.7969 Q3.1094 2.375 3.4062 1.6094 Q3.75 0.7031 3.9219 -0.7812 Q4.0938 -2.3594 4.0938 -4.8438 Q4.0938 -7.0469 3.9453 -8.5859 Q3.7969 -10.125 3.4531 -11.0938 Q3.1875 -11.9219 2.7812 -12.375 Q2.4062 -12.7812 1.9219 -12.9844 Q1.3438 -13.2188 0.4219 -13.2188 L0.4219 -14.0156 Z" stroke="none"/></g></g></svg>