<?xml version="1.0" encoding="UTF-8" standalone="no"?><svg xmlns="http://www.w3.org/2000/svg" xmlns:xlink="http://www.w3.org/1999/xlink" stroke-dasharray="none" shape-rendering="auto" font-family="'Dialog'" width="91.812600" text-rendering="auto" fill-opacity="1" contentScriptType="text/ecmascript" color-interpolation="auto" color-rendering="auto" preserveAspectRatio="xMidYMid meet" font-size="12" fill="black" stroke="black" image-rendering="auto" stroke-miterlimit="10" zoomAndPan="magnify" version="1.0" stroke-linecap="square" stroke-linejoin="miter" contentStyleType="text/css" font-style="normal" height="19" stroke-width="1" stroke-dashoffset="0" font-weight="normal" stroke-opacity="1" y="-5.000000"><!--Converted from MathML using JEuclid--><defs id="genericDefs"/><g><g text-rendering="optimizeLegibility" transform="translate(0,14)" color-rendering="optimizeQuality" color-interpolation="linearRGB" image-rendering="optimizeQuality"><path d="M7.0781 4.2188 Q5.5625 4.2188 4.6797 3.8281 Q3.7969 3.4375 3.4141 2.6641 Q3.0312 1.8906 3.0312 0.5781 L3.0312 -2.25 Q3.0312 -3.1094 2.8125 -3.5938 Q2.5938 -4.0781 2.1562 -4.2734 Q1.7188 -4.4688 0.9219 -4.4688 L0.9219 -5.2812 Q1.7031 -5.2812 2.1484 -5.4766 Q2.5938 -5.6719 2.8125 -6.1484 Q3.0312 -6.625 3.0312 -7.5 L3.0312 -10.3281 Q3.0312 -11.625 3.4141 -12.4062 Q3.7969 -13.1875 4.6797 -13.5781 Q5.5625 -13.9688 7.0781 -13.9688 L7.3281 -13.9688 L7.3281 -13.1719 Q6.5469 -13.1719 6.1641 -13.0938 Q5.7812 -13.0156 5.5391 -12.8438 Q5.2969 -12.6719 5.1406 -12.4141 Q4.9844 -12.1562 4.8984 -11.6875 Q4.8125 -11.2188 4.8125 -10.4375 L4.8125 -8.5469 Q4.8125 -7.5625 4.6406 -6.8984 Q4.4688 -6.2344 4.0312 -5.7578 Q3.5938 -5.2812 2.8281 -4.9688 L2.8281 -4.7812 Q3.5781 -4.4844 4.0312 -3.9844 Q4.4844 -3.4844 4.6484 -2.8203 Q4.8125 -2.1562 4.8125 -1.2031 L4.8125 0.6875 Q4.8125 1.4688 4.8984 1.9375 Q4.9844 2.4062 5.1406 2.6719 Q5.2969 2.9375 5.5391 3.1016 Q5.7812 3.2656 6.1641 3.3438 Q6.5469 3.4219 7.3281 3.4219 L7.3281 4.2188 L7.0781 4.2188 ZM19.4062 -2.4375 Q19.4062 -1.875 19.4375 -1.5938 Q19.4688 -1.3125 19.5391 -1.1406 Q19.6094 -0.9688 19.7031 -0.8594 Q19.7969 -0.75 19.9766 -0.6641 Q20.1562 -0.5781 20.5469 -0.4844 L20.5469 0 L16.4531 0 L16.4531 -0.4844 Q16.9844 -0.6094 17.2031 -0.7812 Q17.4219 -0.9531 17.5 -1.2891 Q17.5781 -1.625 17.5781 -2.4375 L17.5781 -6.5312 L12.1562 -6.5312 L12.1562 -2.4375 Q12.1562 -1.7812 12.1953 -1.4844 Q12.2344 -1.1875 12.3359 -1.0078 Q12.4375 -0.8281 12.6406 -0.7109 Q12.8438 -0.5938 13.2969 -0.4844 L13.2969 0 L9.1875 0 L9.1875 -0.4844 Q9.7812 -0.6406 9.9922 -0.8281 Q10.2031 -1.0156 10.2656 -1.3672 Q10.3281 -1.7188 10.3281 -2.4375 L10.3281 -10.8906 Q10.3281 -11.5625 10.2812 -11.8672 Q10.2344 -12.1719 10.1172 -12.3438 Q10 -12.5156 9.8125 -12.6172 Q9.625 -12.7188 9.1875 -12.8594 L9.1875 -13.3281 L13.2969 -13.3281 L13.2969 -12.8594 Q12.8594 -12.75 12.6719 -12.6406 Q12.4844 -12.5312 12.375 -12.3672 Q12.2656 -12.2031 12.2109 -11.8828 Q12.1562 -11.5625 12.1562 -10.8906 L12.1562 -7.4375 L17.5781 -7.4375 L17.5781 -10.8906 Q17.5781 -11.7344 17.5 -12.0469 Q17.4219 -12.3594 17.2266 -12.5312 Q17.0312 -12.7031 16.4531 -12.8594 L16.4531 -13.3281 L20.5469 -13.3281 L20.5469 -12.8594 Q20 -12.7188 19.7812 -12.5469 Q19.5625 -12.375 19.4844 -12.0312 Q19.4062 -11.6875 19.4062 -10.8906 L19.4062 -2.4375 ZM22.6719 -13.9688 Q24.1875 -13.9688 25.0703 -13.5781 Q25.9531 -13.1875 26.3281 -12.4062 Q26.7031 -11.625 26.7031 -10.3281 L26.7031 -7.5 Q26.7031 -6.625 26.9297 -6.1484 Q27.1562 -5.6719 27.5938 -5.4766 Q28.0312 -5.2812 28.8125 -5.2812 L28.8125 -4.4688 Q28.0312 -4.4688 27.5859 -4.2734 Q27.1406 -4.0781 26.9219 -3.5938 Q26.7031 -3.1094 26.7031 -2.25 L26.7031 0.5781 Q26.7031 1.8906 26.3281 2.6641 Q25.9531 3.4375 25.0703 3.8281 Q24.1875 4.2188 22.6719 4.2188 L22.4219 4.2188 L22.4219 3.4219 Q23.1875 3.4219 23.5781 3.3438 Q23.9688 3.2656 24.2031 3.1016 Q24.4375 2.9375 24.5938 2.6719 Q24.75 2.4062 24.8438 1.9375 Q24.9375 1.4688 24.9375 0.6875 L24.9375 -1.2031 Q24.9375 -2.1875 25.1016 -2.8438 Q25.2656 -3.5 25.7109 -3.9844 Q26.1562 -4.4688 26.9062 -4.7812 L26.9062 -4.9688 Q26.1719 -5.2656 25.7188 -5.7656 Q25.2656 -6.2656 25.1016 -6.9297 Q24.9375 -7.5938 24.9375 -8.5469 L24.9375 -10.4375 Q24.9375 -11.2188 24.8438 -11.6875 Q24.75 -12.1562 24.5938 -12.4141 Q24.4375 -12.6719 24.2031 -12.8438 Q23.9688 -13.0156 23.5781 -13.0938 Q23.1875 -13.1719 22.4219 -13.1719 L22.4219 -13.9688 L22.6719 -13.9688 ZM31.2188 -7.0625 L31.2188 -8.4219 L39.8594 -8.4219 L39.8594 -7.0625 L31.2188 -7.0625 ZM31.2188 -3.0156 L31.2188 -4.3594 L39.8594 -4.3594 L39.8594 -3.0156 L31.2188 -3.0156 ZM47.5781 4.2031 L43.2344 4.2031 L43.2344 -13.9688 L47.5781 -13.9688 L47.5781 -13.1719 L44.9531 -13.1719 L44.9531 3.4062 L47.5781 3.4062 L47.5781 4.2031 Z" stroke="none"/></g><g text-rendering="optimizeLegibility" transform="translate(47.5781,14)" color-rendering="optimizeQuality" color-interpolation="linearRGB" image-rendering="optimizeQuality"><path d="M9.4844 -9.3438 Q9.4688 -7.7812 8.5547 -5.8281 Q7.6406 -3.875 4.125 0.0781 L2.875 0.0781 Q2.8281 -1.3906 2.5469 -4.2969 Q2.2656 -7.2031 2.1406 -7.6719 Q2.0156 -8.1406 1.8203 -8.2891 Q1.625 -8.4375 1.3906 -8.4375 Q1.2812 -8.4375 0.7812 -8.1094 Q0.6719 -8.0312 0.5938 -7.9844 L0.3594 -8.5312 Q1.3594 -9.5 2.4688 -9.5 Q3.0469 -9.5 3.4453 -8.8984 Q3.8438 -8.2969 4.0625 -6.0391 Q4.2812 -3.7812 4.2812 -1.9219 L4.2812 -1.625 Q4.2812 -1.4844 4.2812 -1.3594 Q7.625 -5.125 7.625 -8 L7.625 -8.3438 Q7.625 -8.4844 7.5625 -8.8438 L7.6719 -9.3438 L9.4844 -9.3438 Z" stroke="none"/></g><g text-rendering="optimizeLegibility" transform="translate(57.0625,14)" color-rendering="optimizeQuality" color-interpolation="linearRGB" image-rendering="optimizeQuality"><path d="M4.7812 4.2031 L0.4219 4.2031 L0.4219 3.4062 L3.0625 3.4062 L3.0625 -13.1719 L0.4219 -13.1719 L0.4219 -13.9688 L4.7812 -13.9688 L4.7812 4.2031 ZM14.0781 4.2188 Q12.5625 4.2188 11.6797 3.8281 Q10.7969 3.4375 10.4141 2.6641 Q10.0312 1.8906 10.0312 0.5781 L10.0312 -2.25 Q10.0312 -3.1094 9.8125 -3.5938 Q9.5938 -4.0781 9.1562 -4.2734 Q8.7188 -4.4688 7.9219 -4.4688 L7.9219 -5.2812 Q8.7031 -5.2812 9.1484 -5.4766 Q9.5938 -5.6719 9.8125 -6.1484 Q10.0312 -6.625 10.0312 -7.5 L10.0312 -10.3281 Q10.0312 -11.625 10.4141 -12.4062 Q10.7969 -13.1875 11.6797 -13.5781 Q12.5625 -13.9688 14.0781 -13.9688 L14.3281 -13.9688 L14.3281 -13.1719 Q13.5469 -13.1719 13.1641 -13.0938 Q12.7812 -13.0156 12.5391 -12.8438 Q12.2969 -12.6719 12.1406 -12.4141 Q11.9844 -12.1562 11.8984 -11.6875 Q11.8125 -11.2188 11.8125 -10.4375 L11.8125 -8.5469 Q11.8125 -7.5625 11.6406 -6.8984 Q11.4688 -6.2344 11.0312 -5.7578 Q10.5938 -5.2812 9.8281 -4.9688 L9.8281 -4.7812 Q10.5781 -4.4844 11.0312 -3.9844 Q11.4844 -3.4844 11.6484 -2.8203 Q11.8125 -2.1562 11.8125 -1.2031 L11.8125 0.6875 Q11.8125 1.4688 11.8984 1.9375 Q11.9844 2.4062 12.1406 2.6719 Q12.2969 2.9375 12.5391 3.1016 Q12.7812 3.2656 13.1641 3.3438 Q13.5469 3.4219 14.3281 3.4219 L14.3281 4.2188 L14.0781 4.2188 ZM16.1875 0 L16.1875 -0.4844 Q16.7812 -0.6406 16.9922 -0.8281 Q17.2031 -1.0156 17.2656 -1.3672 Q17.3281 -1.7188 17.3281 -2.4375 L17.3281 -10.8906 Q17.3281 -11.5625 17.2812 -11.8672 Q17.2344 -12.1719 17.1172 -12.3438 Q17 -12.5156 16.8125 -12.6172 Q16.625 -12.7188 16.1875 -12.8594 L16.1875 -13.3281 L21.5312 -13.3281 Q23.0781 -13.3281 24.0234 -13 Q24.9688 -12.6719 25.4219 -12.0234 Q25.875 -11.375 25.875 -10.3438 Q25.875 -9.5 25.5469 -8.875 Q25.2188 -8.25 24.6953 -7.8359 Q24.1719 -7.4219 23.3438 -7.0781 L23.3438 -6.9844 Q24.6719 -6.5781 25.3516 -5.7422 Q26.0312 -4.9062 26.0312 -3.7656 Q26.0312 -2.4375 25.4453 -1.5938 Q24.8594 -0.75 23.7891 -0.375 Q22.7188 0 21.2188 0 L16.1875 0 ZM20.8594 -7.3594 Q22.3438 -7.3594 23.1328 -8.0781 Q23.9219 -8.7969 23.9219 -10.1562 Q23.9219 -10.8281 23.7031 -11.2734 Q23.4844 -11.7188 23.0938 -11.9844 Q22.7031 -12.25 22.1797 -12.3594 Q21.6562 -12.4688 21.0312 -12.4688 Q20.6719 -12.4688 20.0625 -12.4531 Q19.4531 -12.4375 19.1562 -12.4062 L19.1562 -7.3594 L20.8594 -7.3594 ZM19.1562 -0.9219 Q19.8594 -0.8594 20.75 -0.8594 Q22.0156 -0.8594 22.7266 -1.1797 Q23.4375 -1.5 23.7578 -2.1328 Q24.0781 -2.7656 24.0781 -3.7188 Q24.0781 -4.6562 23.7266 -5.2734 Q23.375 -5.8906 22.6562 -6.1953 Q21.9375 -6.5 20.6719 -6.5 L19.1562 -6.5 L19.1562 -0.9219 ZM27.6719 -13.9688 Q29.1875 -13.9688 30.0703 -13.5781 Q30.9531 -13.1875 31.3281 -12.4062 Q31.7031 -11.625 31.7031 -10.3281 L31.7031 -7.5 Q31.7031 -6.625 31.9297 -6.1484 Q32.1562 -5.6719 32.5938 -5.4766 Q33.0312 -5.2812 33.8125 -5.2812 L33.8125 -4.4688 Q33.0312 -4.4688 32.5859 -4.2734 Q32.1406 -4.0781 31.9219 -3.5938 Q31.7031 -3.1094 31.7031 -2.25 L31.7031 0.5781 Q31.7031 1.8906 31.3281 2.6641 Q30.9531 3.4375 30.0703 3.8281 Q29.1875 4.2188 27.6719 4.2188 L27.4219 4.2188 L27.4219 3.4219 Q28.1875 3.4219 28.5781 3.3438 Q28.9688 3.2656 29.2031 3.1016 Q29.4375 2.9375 29.5938 2.6719 Q29.75 2.4062 29.8438 1.9375 Q29.9375 1.4688 29.9375 0.6875 L29.9375 -1.2031 Q29.9375 -2.1875 30.1016 -2.8438 Q30.2656 -3.5 30.7109 -3.9844 Q31.1562 -4.4688 31.9062 -4.7812 L31.9062 -4.9688 Q31.1719 -5.2656 30.7188 -5.7656 Q30.2656 -6.2656 30.1016 -6.9297 Q29.9375 -7.5938 29.9375 -8.5469 L29.9375 -10.4375 Q29.9375 -11.2188 29.8438 -11.6875 Q29.75 -12.1562 29.5938 -12.4141 Q29.4375 -12.6719 29.2031 -12.8438 Q28.9688 -13.0156 28.5781 -13.0938 Q28.1875 -13.1719 27.4219 -13.1719 L27.4219 -13.9688 L27.6719 -13.9688 Z" stroke="none"/></g></g></svg>