<?xml version="1.0" encoding="UTF-8" standalone="no"?><svg xmlns="http://www.w3.org/2000/svg" xmlns:xlink="http://www.w3.org/1999/xlink" stroke-dasharray="none" shape-rendering="auto" font-family="'Dialog'" width="102.812600" text-rendering="auto" fill-opacity="1" contentScriptType="text/ecmascript" color-interpolation="auto" color-rendering="auto" preserveAspectRatio="xMidYMid meet" font-size="12" fill="black" stroke="black" image-rendering="auto" stroke-miterlimit="10" zoomAndPan="magnify" version="1.0" stroke-linecap="square" stroke-linejoin="miter" contentStyleType="text/css" font-style="normal" height="42" stroke-width="1" stroke-dashoffset="0" font-weight="normal" stroke-opacity="1" y="-14.000000"><!--Converted from MathML using JEuclid--><defs id="genericDefs"/><g><g text-rendering="optimizeLegibility" transform="translate(0,28)" color-rendering="optimizeQuality" color-interpolation="linearRGB" image-rendering="optimizeQuality"><path d="M5.7344 -13.3281 L5.625 -12.8594 Q5.2188 -12.8125 5 -12.6094 Q4.7812 -12.4062 4.7812 -12 Q4.7812 -11.3906 5.0625 -10.4375 L6.0938 -6.75 L8.5 -9.9688 Q9.0312 -10.6719 9.2734 -11.0781 Q9.5156 -11.4844 9.6094 -11.7969 Q9.6875 -12.0312 9.6875 -12.25 Q9.6875 -12.5156 9.5 -12.6641 Q9.3125 -12.8125 8.9688 -12.8594 L9.0781 -13.3281 L12.7344 -13.3281 L12.625 -12.8594 Q12.3906 -12.7969 12.2188 -12.7109 Q12.0469 -12.625 11.8281 -12.4141 Q11.6094 -12.2031 11.2344 -11.75 Q10.8594 -11.2969 10.2812 -10.5312 L6.4688 -5.6094 L5.875 -2.8438 Q5.7812 -2.4531 5.75 -2.2344 Q5.7188 -2.0156 5.6953 -1.7656 Q5.6719 -1.5156 5.6719 -1.3125 Q5.6719 -1.0156 5.7656 -0.8438 Q5.8594 -0.6719 6.0547 -0.5938 Q6.25 -0.5156 6.7344 -0.4844 L6.625 0 L2.5156 0 L2.625 -0.4844 Q3.0156 -0.5312 3.1953 -0.6328 Q3.375 -0.7344 3.5156 -0.9375 Q3.6562 -1.1406 3.8047 -1.5781 Q3.9531 -2.0156 4.1406 -2.9062 L4.7188 -5.6094 L3.2969 -10.5312 Q2.9844 -11.6719 2.7969 -12.0703 Q2.6094 -12.4688 2.3984 -12.6328 Q2.1875 -12.7969 1.8438 -12.8594 L1.9531 -13.3281 L5.7344 -13.3281 Z" stroke="none"/></g><g text-rendering="optimizeLegibility" transform="translate(3.5312,24.9375)" color-rendering="optimizeQuality" color-interpolation="linearRGB" image-rendering="optimizeQuality"><path d="M3.7344 -13.1719 L3.7344 -11.2656 L1.9375 -11.2656 L1.9375 -13.1719 L3.7344 -13.1719 Z" stroke="none"/></g><g text-rendering="optimizeLegibility" transform="translate(12.7344,32.6641)" color-rendering="optimizeQuality" color-interpolation="linearRGB" image-rendering="optimizeQuality"><path d="M0.3594 -0.3281 Q0.625 -0.375 0.75 -0.4688 Q0.875 -0.5625 0.9688 -0.7266 Q1.0625 -0.8906 1.1328 -1.125 Q1.2031 -1.3594 1.3594 -2.0312 L2.5156 -7.2969 Q2.5938 -7.6094 2.6328 -7.9062 Q2.6719 -8.2031 2.6719 -8.4062 Q2.6719 -8.7188 2.5078 -8.8438 Q2.3438 -8.9688 2 -9 L2.0781 -9.3281 L4.8125 -9.3281 L4.7344 -9 Q4.4844 -8.9375 4.3672 -8.875 Q4.25 -8.8125 4.1562 -8.6719 Q4.0625 -8.5312 3.9766 -8.2422 Q3.8906 -7.9531 3.7344 -7.2969 L2.2812 -0.625 L3.9531 -0.625 Q4.4219 -0.625 4.6797 -0.7188 Q4.9375 -0.8125 5.1797 -1.0469 Q5.4219 -1.2812 5.6406 -1.6797 Q5.8594 -2.0781 6.0938 -2.6875 L6.7656 -2.6875 L6.0781 0 L0.2812 0 L0.3594 -0.3281 Z" stroke="none"/></g><g text-rendering="optimizeLegibility" transform="translate(20.2812,28)" color-rendering="optimizeQuality" color-interpolation="linearRGB" image-rendering="optimizeQuality"><path d="M1.2188 -7.0625 L1.2188 -8.4219 L9.8594 -8.4219 L9.8594 -7.0625 L1.2188 -7.0625 ZM1.2188 -3.0156 L1.2188 -4.3594 L9.8594 -4.3594 L9.8594 -3.0156 L1.2188 -3.0156 Z" stroke="none"/></g><g text-rendering="optimizeLegibility" stroke-width="1.6667" color-interpolation="linearRGB" color-rendering="optimizeQuality" image-rendering="optimizeQuality"><line y2="20.78" fill="none" x1="33.8184" x2="98.5215" y1="20.78"/><path d="M5.7344 -13.3281 L5.625 -12.8594 Q5.2188 -12.8125 5 -12.6094 Q4.7812 -12.4062 4.7812 -12 Q4.7812 -11.3906 5.0625 -10.4375 L6.0938 -6.75 L8.5 -9.9688 Q9.0312 -10.6719 9.2734 -11.0781 Q9.5156 -11.4844 9.6094 -11.7969 Q9.6875 -12.0312 9.6875 -12.25 Q9.6875 -12.5156 9.5 -12.6641 Q9.3125 -12.8125 8.9688 -12.8594 L9.0781 -13.3281 L12.7344 -13.3281 L12.625 -12.8594 Q12.3906 -12.7969 12.2188 -12.7109 Q12.0469 -12.625 11.8281 -12.4141 Q11.6094 -12.2031 11.2344 -11.75 Q10.8594 -11.2969 10.2812 -10.5312 L6.4688 -5.6094 L5.875 -2.8438 Q5.7812 -2.4531 5.75 -2.2344 Q5.7188 -2.0156 5.6953 -1.7656 Q5.6719 -1.5156 5.6719 -1.3125 Q5.6719 -1.0156 5.7656 -0.8438 Q5.8594 -0.6719 6.0547 -0.5938 Q6.25 -0.5156 6.7344 -0.4844 L6.625 0 L2.5156 0 L2.625 -0.4844 Q3.0156 -0.5312 3.1953 -0.6328 Q3.375 -0.7344 3.5156 -0.9375 Q3.6562 -1.1406 3.8047 -1.5781 Q3.9531 -2.0156 4.1406 -2.9062 L4.7188 -5.6094 L3.2969 -10.5312 Q2.9844 -11.6719 2.7969 -12.0703 Q2.6094 -12.4688 2.3984 -12.6328 Q2.1875 -12.7969 1.8438 -12.8594 L1.9531 -13.3281 L5.7344 -13.3281 Z" stroke-width="1" transform="translate(34.0372,13.5501)" stroke="none"/></g><g text-rendering="optimizeLegibility" transform="translate(46.7715,18.2142)" color-rendering="optimizeQuality" color-interpolation="linearRGB" image-rendering="optimizeQuality"><path d="M0.3594 -0.3281 Q0.625 -0.375 0.75 -0.4688 Q0.875 -0.5625 0.9688 -0.7266 Q1.0625 -0.8906 1.1328 -1.125 Q1.2031 -1.3594 1.3594 -2.0312 L2.5156 -7.2969 Q2.5938 -7.6094 2.6328 -7.9062 Q2.6719 -8.2031 2.6719 -8.4062 Q2.6719 -8.7188 2.5078 -8.8438 Q2.3438 -8.9688 2 -9 L2.0781 -9.3281 L4.8125 -9.3281 L4.7344 -9 Q4.4844 -8.9375 4.3672 -8.875 Q4.25 -8.8125 4.1562 -8.6719 Q4.0625 -8.5312 3.9766 -8.2422 Q3.8906 -7.9531 3.7344 -7.2969 L2.2812 -0.625 L3.9531 -0.625 Q4.4219 -0.625 4.6797 -0.7188 Q4.9375 -0.8125 5.1797 -1.0469 Q5.4219 -1.2812 5.6406 -1.6797 Q5.8594 -2.0781 6.0938 -2.6875 L6.7656 -2.6875 L6.0781 0 L0.2812 0 L0.3594 -0.3281 Z" stroke="none"/></g><g text-rendering="optimizeLegibility" transform="translate(54.3028,13.5501)" color-rendering="optimizeQuality" color-interpolation="linearRGB" image-rendering="optimizeQuality"><path d="M1.2344 -5.0469 L1.2344 -6.3906 L9.8281 -6.3906 L9.8281 -5.0469 L1.2344 -5.0469 Z" stroke="none"/></g><g text-rendering="optimizeLegibility" transform="translate(66.1309,13.5501)" color-rendering="optimizeQuality" color-interpolation="linearRGB" image-rendering="optimizeQuality"><path d="M5.7344 -13.3281 L5.625 -12.8594 Q5.2188 -12.8125 5 -12.6094 Q4.7812 -12.4062 4.7812 -12 Q4.7812 -11.3906 5.0625 -10.4375 L6.0938 -6.75 L8.5 -9.9688 Q9.0312 -10.6719 9.2734 -11.0781 Q9.5156 -11.4844 9.6094 -11.7969 Q9.6875 -12.0312 9.6875 -12.25 Q9.6875 -12.5156 9.5 -12.6641 Q9.3125 -12.8125 8.9688 -12.8594 L9.0781 -13.3281 L12.7344 -13.3281 L12.625 -12.8594 Q12.3906 -12.7969 12.2188 -12.7109 Q12.0469 -12.625 11.8281 -12.4141 Q11.6094 -12.2031 11.2344 -11.75 Q10.8594 -11.2969 10.2812 -10.5312 L6.4688 -5.6094 L5.875 -2.8438 Q5.7812 -2.4531 5.75 -2.2344 Q5.7188 -2.0156 5.6953 -1.7656 Q5.6719 -1.5156 5.6719 -1.3125 Q5.6719 -1.0156 5.7656 -0.8438 Q5.8594 -0.6719 6.0547 -0.5938 Q6.25 -0.5156 6.7344 -0.4844 L6.625 0 L2.5156 0 L2.625 -0.4844 Q3.0156 -0.5312 3.1953 -0.6328 Q3.375 -0.7344 3.5156 -0.9375 Q3.6562 -1.1406 3.8047 -1.5781 Q3.9531 -2.0156 4.1406 -2.9062 L4.7188 -5.6094 L3.2969 -10.5312 Q2.9844 -11.6719 2.7969 -12.0703 Q2.6094 -12.4688 2.3984 -12.6328 Q2.1875 -12.7969 1.8438 -12.8594 L1.9531 -13.3281 L5.7344 -13.3281 Z" stroke="none"/></g><g text-rendering="optimizeLegibility" transform="translate(78.8653,18.2689)" color-rendering="optimizeQuality" color-interpolation="linearRGB" image-rendering="optimizeQuality"><path d="M0.3594 -0.3281 Q0.625 -0.375 0.75 -0.4688 Q0.875 -0.5625 0.9688 -0.7266 Q1.0625 -0.8906 1.1328 -1.125 Q1.2031 -1.3594 1.3594 -2.0312 L2.5156 -7.2969 Q2.5938 -7.6094 2.6328 -7.9062 Q2.6719 -8.2031 2.6719 -8.4062 Q2.6719 -8.7188 2.5078 -8.8438 Q2.3438 -8.9688 2 -9 L2.0781 -9.3281 L4.8125 -9.3281 L4.7344 -9 Q4.4844 -8.9375 4.3672 -8.875 Q4.25 -8.8125 4.1562 -8.6719 Q4.0625 -8.5312 3.9766 -8.2422 Q3.8906 -7.9531 3.7344 -7.2969 L2.2812 -0.625 L3.9531 -0.625 Q4.4219 -0.625 4.6797 -0.7188 Q4.9375 -0.8125 5.1797 -1.0469 Q5.4219 -1.2812 5.6406 -1.6797 Q5.8594 -2.0781 6.0938 -2.6875 L6.7656 -2.6875 L6.0781 0 L0.2812 0 L0.3594 -0.3281 Z" stroke="none"/></g><g text-rendering="optimizeLegibility" transform="translate(84.7559,18.2689)" color-rendering="optimizeQuality" color-interpolation="linearRGB" image-rendering="optimizeQuality"><path d="M0.875 -3.5312 L0.875 -4.4844 L6.8906 -4.4844 L6.8906 -3.5312 L0.875 -3.5312 Z" stroke="none"/></g><g text-rendering="optimizeLegibility" transform="translate(91.6465,18.2689)" color-rendering="optimizeQuality" color-interpolation="linearRGB" image-rendering="optimizeQuality"><path d="M4.75 -1.7812 Q4.75 -1.3906 4.7969 -1.1875 Q4.8438 -0.9844 4.9531 -0.8594 Q5.0625 -0.7344 5.2734 -0.6641 Q5.4844 -0.5938 5.8047 -0.5547 Q6.125 -0.5156 6.6562 -0.5 L6.6562 0 L1.6094 0 L1.6094 -0.5 Q2.3594 -0.5312 2.6875 -0.5938 Q3.0156 -0.6562 3.1875 -0.7656 Q3.3594 -0.875 3.4375 -1.0938 Q3.5156 -1.3125 3.5156 -1.7812 L3.5156 -7.3281 Q3.5156 -7.6094 3.4219 -7.7344 Q3.3281 -7.8594 3.1406 -7.8594 Q2.9219 -7.8594 2.5156 -7.6328 Q2.1094 -7.4062 1.5156 -7 L1.2188 -7.5312 L4.4219 -9.4375 L4.7969 -9.4375 Q4.75 -8.7812 4.75 -7.625 L4.75 -1.7812 Z" stroke="none"/></g><g text-rendering="optimizeLegibility" transform="translate(34.459,36.6192)" color-rendering="optimizeQuality" color-interpolation="linearRGB" image-rendering="optimizeQuality"><path d="M6.25 -13.3281 L6.1406 -12.8594 Q5.7188 -12.7812 5.4688 -12.5625 Q5.2188 -12.3438 5.2188 -11.9219 Q5.2188 -11.2969 5.5469 -10.3594 L6.3594 -7.9844 L8.4531 -10.6406 Q8.5938 -10.8281 8.7344 -11.0234 Q8.875 -11.2188 8.9922 -11.4141 Q9.1094 -11.6094 9.1562 -11.7422 Q9.2031 -11.875 9.2344 -11.9844 Q9.2656 -12.0938 9.2656 -12.1875 Q9.2656 -12.4531 9.1094 -12.6406 Q8.9531 -12.8281 8.5625 -12.8594 L8.6719 -13.3281 L12.3125 -13.3281 L12.2031 -12.8594 Q11.9219 -12.7656 11.6562 -12.5703 Q11.3906 -12.375 11.0391 -11.9844 Q10.6875 -11.5938 9.7188 -10.4375 L6.8125 -6.9688 L8.2344 -3 Q8.5625 -2.0938 8.75 -1.6406 Q8.9688 -1.1562 9.125 -0.9219 Q9.25 -0.7656 9.3906 -0.6719 Q9.5156 -0.5781 9.8438 -0.4844 L9.75 0 L5.7969 0 L5.9062 -0.4844 Q6.3438 -0.5469 6.5859 -0.7891 Q6.8281 -1.0312 6.8281 -1.4062 Q6.8281 -1.9844 6.5938 -2.6875 L5.5781 -5.6719 L3.3438 -2.875 Q2.8594 -2.25 2.6328 -1.8594 Q2.4062 -1.4688 2.4062 -1.1875 Q2.4062 -0.9531 2.4688 -0.8125 Q2.5312 -0.6719 2.6797 -0.5938 Q2.8281 -0.5156 3.0938 -0.4844 L2.9844 0 L-0.6406 0 L-0.5469 -0.4844 Q-0.3594 -0.5469 -0.2031 -0.6328 Q-0.0469 -0.7188 0.1328 -0.8672 Q0.3125 -1.0156 0.6172 -1.3594 Q0.9219 -1.7031 1.3125 -2.1562 L5.125 -6.6875 L3.6875 -10.7031 Q3.4688 -11.2969 3.3047 -11.6953 Q3.1406 -12.0938 2.9766 -12.3281 Q2.8125 -12.5625 2.6406 -12.6797 Q2.4688 -12.7969 2.2031 -12.8594 L2.3125 -13.3281 L6.25 -13.3281 Z" stroke="none"/></g><g text-rendering="optimizeLegibility" transform="translate(46.7715,41.2833)" color-rendering="optimizeQuality" color-interpolation="linearRGB" image-rendering="optimizeQuality"><path d="M0.3594 -0.3281 Q0.625 -0.375 0.75 -0.4688 Q0.875 -0.5625 0.9688 -0.7266 Q1.0625 -0.8906 1.1328 -1.125 Q1.2031 -1.3594 1.3594 -2.0312 L2.5156 -7.2969 Q2.5938 -7.6094 2.6328 -7.9062 Q2.6719 -8.2031 2.6719 -8.4062 Q2.6719 -8.7188 2.5078 -8.8438 Q2.3438 -8.9688 2 -9 L2.0781 -9.3281 L4.8125 -9.3281 L4.7344 -9 Q4.4844 -8.9375 4.3672 -8.875 Q4.25 -8.8125 4.1562 -8.6719 Q4.0625 -8.5312 3.9766 -8.2422 Q3.8906 -7.9531 3.7344 -7.2969 L2.2812 -0.625 L3.9531 -0.625 Q4.4219 -0.625 4.6797 -0.7188 Q4.9375 -0.8125 5.1797 -1.0469 Q5.4219 -1.2812 5.6406 -1.6797 Q5.8594 -2.0781 6.0938 -2.6875 L6.7656 -2.6875 L6.0781 0 L0.2812 0 L0.3594 -0.3281 Z" stroke="none"/></g><g text-rendering="optimizeLegibility" transform="translate(54.3028,36.6192)" color-rendering="optimizeQuality" color-interpolation="linearRGB" image-rendering="optimizeQuality"><path d="M1.2344 -5.0469 L1.2344 -6.3906 L9.8281 -6.3906 L9.8281 -5.0469 L1.2344 -5.0469 Z" stroke="none"/></g><g text-rendering="optimizeLegibility" transform="translate(66.7715,36.6192)" color-rendering="optimizeQuality" color-interpolation="linearRGB" image-rendering="optimizeQuality"><path d="M6.25 -13.3281 L6.1406 -12.8594 Q5.7188 -12.7812 5.4688 -12.5625 Q5.2188 -12.3438 5.2188 -11.9219 Q5.2188 -11.2969 5.5469 -10.3594 L6.3594 -7.9844 L8.4531 -10.6406 Q8.5938 -10.8281 8.7344 -11.0234 Q8.875 -11.2188 8.9922 -11.4141 Q9.1094 -11.6094 9.1562 -11.7422 Q9.2031 -11.875 9.2344 -11.9844 Q9.2656 -12.0938 9.2656 -12.1875 Q9.2656 -12.4531 9.1094 -12.6406 Q8.9531 -12.8281 8.5625 -12.8594 L8.6719 -13.3281 L12.3125 -13.3281 L12.2031 -12.8594 Q11.9219 -12.7656 11.6562 -12.5703 Q11.3906 -12.375 11.0391 -11.9844 Q10.6875 -11.5938 9.7188 -10.4375 L6.8125 -6.9688 L8.2344 -3 Q8.5625 -2.0938 8.75 -1.6406 Q8.9688 -1.1562 9.125 -0.9219 Q9.25 -0.7656 9.3906 -0.6719 Q9.5156 -0.5781 9.8438 -0.4844 L9.75 0 L5.7969 0 L5.9062 -0.4844 Q6.3438 -0.5469 6.5859 -0.7891 Q6.8281 -1.0312 6.8281 -1.4062 Q6.8281 -1.9844 6.5938 -2.6875 L5.5781 -5.6719 L3.3438 -2.875 Q2.8594 -2.25 2.6328 -1.8594 Q2.4062 -1.4688 2.4062 -1.1875 Q2.4062 -0.9531 2.4688 -0.8125 Q2.5312 -0.6719 2.6797 -0.5938 Q2.8281 -0.5156 3.0938 -0.4844 L2.9844 0 L-0.6406 0 L-0.5469 -0.4844 Q-0.3594 -0.5469 -0.2031 -0.6328 Q-0.0469 -0.7188 0.1328 -0.8672 Q0.3125 -1.0156 0.6172 -1.3594 Q0.9219 -1.7031 1.3125 -2.1562 L5.125 -6.6875 L3.6875 -10.7031 Q3.4688 -11.2969 3.3047 -11.6953 Q3.1406 -12.0938 2.9766 -12.3281 Q2.8125 -12.5625 2.6406 -12.6797 Q2.4688 -12.7969 2.2031 -12.8594 L2.3125 -13.3281 L6.25 -13.3281 Z" stroke="none"/></g><g text-rendering="optimizeLegibility" transform="translate(79.084,41.338)" color-rendering="optimizeQuality" color-interpolation="linearRGB" image-rendering="optimizeQuality"><path d="M0.3594 -0.3281 Q0.625 -0.375 0.75 -0.4688 Q0.875 -0.5625 0.9688 -0.7266 Q1.0625 -0.8906 1.1328 -1.125 Q1.2031 -1.3594 1.3594 -2.0312 L2.5156 -7.2969 Q2.5938 -7.6094 2.6328 -7.9062 Q2.6719 -8.2031 2.6719 -8.4062 Q2.6719 -8.7188 2.5078 -8.8438 Q2.3438 -8.9688 2 -9 L2.0781 -9.3281 L4.8125 -9.3281 L4.7344 -9 Q4.4844 -8.9375 4.3672 -8.875 Q4.25 -8.8125 4.1562 -8.6719 Q4.0625 -8.5312 3.9766 -8.2422 Q3.8906 -7.9531 3.7344 -7.2969 L2.2812 -0.625 L3.9531 -0.625 Q4.4219 -0.625 4.6797 -0.7188 Q4.9375 -0.8125 5.1797 -1.0469 Q5.4219 -1.2812 5.6406 -1.6797 Q5.8594 -2.0781 6.0938 -2.6875 L6.7656 -2.6875 L6.0781 0 L0.2812 0 L0.3594 -0.3281 Z" stroke="none"/></g><g text-rendering="optimizeLegibility" transform="translate(84.9747,41.338)" color-rendering="optimizeQuality" color-interpolation="linearRGB" image-rendering="optimizeQuality"><path d="M0.875 -3.5312 L0.875 -4.4844 L6.8906 -4.4844 L6.8906 -3.5312 L0.875 -3.5312 Z" stroke="none"/></g><g text-rendering="optimizeLegibility" transform="translate(91.8653,41.338)" color-rendering="optimizeQuality" color-interpolation="linearRGB" image-rendering="optimizeQuality"><path d="M4.75 -1.7812 Q4.75 -1.3906 4.7969 -1.1875 Q4.8438 -0.9844 4.9531 -0.8594 Q5.0625 -0.7344 5.2734 -0.6641 Q5.4844 -0.5938 5.8047 -0.5547 Q6.125 -0.5156 6.6562 -0.5 L6.6562 0 L1.6094 0 L1.6094 -0.5 Q2.3594 -0.5312 2.6875 -0.5938 Q3.0156 -0.6562 3.1875 -0.7656 Q3.3594 -0.875 3.4375 -1.0938 Q3.5156 -1.3125 3.5156 -1.7812 L3.5156 -7.3281 Q3.5156 -7.6094 3.4219 -7.7344 Q3.3281 -7.8594 3.1406 -7.8594 Q2.9219 -7.8594 2.5156 -7.6328 Q2.1094 -7.4062 1.5156 -7 L1.2188 -7.5312 L4.4219 -9.4375 L4.7969 -9.4375 Q4.75 -8.7812 4.75 -7.625 L4.75 -1.7812 Z" stroke="none"/></g></g></svg>