<?xml version="1.0" encoding="UTF-8" standalone="no"?><svg xmlns="http://www.w3.org/2000/svg" xmlns:xlink="http://www.w3.org/1999/xlink" stroke-dasharray="none" shape-rendering="auto" font-family="'Dialog'" width="392.812600" text-rendering="auto" fill-opacity="1" contentScriptType="text/ecmascript" color-interpolation="auto" color-rendering="auto" preserveAspectRatio="xMidYMid meet" font-size="12" fill="black" stroke="black" image-rendering="auto" stroke-miterlimit="10" zoomAndPan="magnify" version="1.0" stroke-linecap="square" stroke-linejoin="miter" contentStyleType="text/css" font-style="normal" height="59" stroke-width="1" stroke-dashoffset="0" font-weight="normal" stroke-opacity="1" y="-22.000000"><!--Converted from MathML using JEuclid--><defs id="genericDefs"/><g><g text-rendering="optimizeLegibility" transform="translate(-0.4062,37)" color-rendering="optimizeQuality" color-interpolation="linearRGB" image-rendering="optimizeQuality"><path d="M3.9219 4.2031 L2.4062 4.2031 L2.4062 -13.9688 L3.9219 -13.9688 L3.9219 4.2031 ZM8.1719 4.2031 L6.6562 4.2031 L6.6562 -13.9688 L8.1719 -13.9688 L8.1719 4.2031 Z" stroke="none"/></g><g text-rendering="optimizeLegibility" transform="translate(10.7656,37)" color-rendering="optimizeQuality" color-interpolation="linearRGB" image-rendering="optimizeQuality"><path d="M9.375 -8.1094 L5.9219 -8.1094 L4.7031 -2.5156 Q4.5938 -1.9844 4.5938 -1.7344 Q4.5938 -0.875 5.4375 -0.875 Q6.1562 -0.875 6.9531 -1.4375 L7.2812 -0.875 Q6 0.1562 4.7031 0.1562 Q2.9531 0.1562 2.9531 -1.4375 Q2.9531 -1.9531 3.0781 -2.4062 L4.3438 -8.1094 L3.7188 -8.1094 Q2.375 -8.1094 1.1875 -6.9062 L0.6875 -7.4219 Q2.1562 -9.3438 4.1719 -9.3438 L9.625 -9.3438 L9.375 -8.1094 Z" stroke="none"/></g><g text-rendering="optimizeLegibility" transform="translate(20.9844,37)" color-rendering="optimizeQuality" color-interpolation="linearRGB" image-rendering="optimizeQuality"><path d="M3.9219 4.2031 L2.4062 4.2031 L2.4062 -13.9688 L3.9219 -13.9688 L3.9219 4.2031 ZM8.1719 4.2031 L6.6562 4.2031 L6.6562 -13.9688 L8.1719 -13.9688 L8.1719 4.2031 Z" stroke="none"/></g><g text-rendering="optimizeLegibility" transform="translate(31.9375,37)" color-rendering="optimizeQuality" color-interpolation="linearRGB" image-rendering="optimizeQuality"><path d="M1.2188 -7.0625 L1.2188 -8.4219 L9.8594 -8.4219 L9.8594 -7.0625 L1.2188 -7.0625 ZM1.2188 -3.0156 L1.2188 -4.3594 L9.8594 -4.3594 L9.8594 -3.0156 L1.2188 -3.0156 Z" stroke="none"/></g><g text-rendering="optimizeLegibility" transform="translate(44.875,45.2133) matrix(1,0,0,3.1658,0,0)" color-rendering="optimizeQuality" color-interpolation="linearRGB" image-rendering="optimizeQuality"><path d="M7.0781 4.2188 Q5.5625 4.2188 4.6797 3.8281 Q3.7969 3.4375 3.4141 2.6641 Q3.0312 1.8906 3.0312 0.5781 L3.0312 -2.25 Q3.0312 -3.1094 2.8125 -3.5938 Q2.5938 -4.0781 2.1562 -4.2734 Q1.7188 -4.4688 0.9219 -4.4688 L0.9219 -5.2812 Q1.7031 -5.2812 2.1484 -5.4766 Q2.5938 -5.6719 2.8125 -6.1484 Q3.0312 -6.625 3.0312 -7.5 L3.0312 -10.3281 Q3.0312 -11.625 3.4141 -12.4062 Q3.7969 -13.1875 4.6797 -13.5781 Q5.5625 -13.9688 7.0781 -13.9688 L7.3281 -13.9688 L7.3281 -13.1719 Q6.5469 -13.1719 6.1641 -13.0938 Q5.7812 -13.0156 5.5391 -12.8438 Q5.2969 -12.6719 5.1406 -12.4141 Q4.9844 -12.1562 4.8984 -11.6875 Q4.8125 -11.2188 4.8125 -10.4375 L4.8125 -8.5469 Q4.8125 -7.5625 4.6406 -6.8984 Q4.4688 -6.2344 4.0312 -5.7578 Q3.5938 -5.2812 2.8281 -4.9688 L2.8281 -4.7812 Q3.5781 -4.4844 4.0312 -3.9844 Q4.4844 -3.4844 4.6484 -2.8203 Q4.8125 -2.1562 4.8125 -1.2031 L4.8125 0.6875 Q4.8125 1.4688 4.8984 1.9375 Q4.9844 2.4062 5.1406 2.6719 Q5.2969 2.9375 5.5391 3.1016 Q5.7812 3.2656 6.1641 3.3438 Q6.5469 3.4219 7.3281 3.4219 L7.3281 4.2188 L7.0781 4.2188 Z" stroke="none"/></g><g text-rendering="optimizeLegibility" transform="translate(53.7969,15.0222)" color-rendering="optimizeQuality" color-interpolation="linearRGB" image-rendering="optimizeQuality"><path d="M3.9219 4.2031 L2.4062 4.2031 L2.4062 -13.9688 L3.9219 -13.9688 L3.9219 4.2031 Z" stroke="none"/></g><g text-rendering="optimizeLegibility" transform="translate(59.7188,15.0222)" color-rendering="optimizeQuality" color-interpolation="linearRGB" image-rendering="optimizeQuality"><path d="M9.375 -8.1094 L5.9219 -8.1094 L4.7031 -2.5156 Q4.5938 -1.9844 4.5938 -1.7344 Q4.5938 -0.875 5.4375 -0.875 Q6.1562 -0.875 6.9531 -1.4375 L7.2812 -0.875 Q6 0.1562 4.7031 0.1562 Q2.9531 0.1562 2.9531 -1.4375 Q2.9531 -1.9531 3.0781 -2.4062 L4.3438 -8.1094 L3.7188 -8.1094 Q2.375 -8.1094 1.1875 -6.9062 L0.6875 -7.4219 Q2.1562 -9.3438 4.1719 -9.3438 L9.625 -9.3438 L9.375 -8.1094 Z" stroke="none"/></g><g text-rendering="optimizeLegibility" transform="translate(68.9375,15.0222)" color-rendering="optimizeQuality" color-interpolation="linearRGB" image-rendering="optimizeQuality"><path d="M3.9219 4.2031 L2.4062 4.2031 L2.4062 -13.9688 L3.9219 -13.9688 L3.9219 4.2031 Z" stroke="none"/></g><g text-rendering="optimizeLegibility" transform="translate(77.8594,15.0222)" color-rendering="optimizeQuality" color-interpolation="linearRGB" image-rendering="optimizeQuality"><path d="M8.75 -1.6562 Q8.125 -1 7.6016 -0.6328 Q7.0781 -0.2656 6.4531 -0.0547 Q5.8281 0.1562 5.0781 0.1562 Q3.0625 0.1562 2.0391 -1.0469 Q1.0156 -2.25 1.0156 -4.6094 Q1.0156 -6.0625 1.5391 -7.1797 Q2.0625 -8.2969 3.0312 -8.8984 Q4 -9.5 5.25 -9.5 Q6.2344 -9.5 6.9297 -9.1875 Q7.625 -8.875 8.0391 -8.3359 Q8.4531 -7.7969 8.6875 -6.9688 Q8.9219 -6.1406 8.9531 -4.8125 L2.7969 -4.8125 L2.7969 -4.6406 Q2.7969 -3.4844 3.0547 -2.7031 Q3.3125 -1.9219 3.9062 -1.4766 Q4.5 -1.0312 5.4375 -1.0312 Q6.2344 -1.0312 6.875 -1.3281 Q7.5156 -1.625 8.1562 -2.2969 L8.75 -1.6562 ZM7.1094 -5.625 Q7.0469 -6.6875 6.8438 -7.3516 Q6.6406 -8.0156 6.2344 -8.375 Q5.8281 -8.7344 5.1562 -8.7344 Q4.1562 -8.7344 3.5547 -7.9297 Q2.9531 -7.125 2.8438 -5.625 L7.1094 -5.625 ZM20.3125 4.2031 L16.3281 4.2031 L16.3281 3.7188 Q16.7969 3.625 17.0078 3.5078 Q17.2188 3.3906 17.3281 3.2109 Q17.4375 3.0312 17.4844 2.7188 Q17.5312 2.4062 17.5312 1.7656 L17.5312 -1.6094 Q17 -1 16.5469 -0.6484 Q16.0938 -0.2969 15.5391 -0.0703 Q14.9844 0.1562 14.3594 0.1562 Q12.75 0.1562 11.8828 -1.0469 Q11.0156 -2.25 11.0156 -4.5469 Q11.0156 -6.1562 11.5781 -7.2812 Q12.1406 -8.4062 13.1484 -8.9531 Q14.1562 -9.5 15.4688 -9.5 Q16.1562 -9.5 16.7188 -9.3594 Q17.2812 -9.2188 17.8594 -8.9062 L18.5469 -9.5 L19.2031 -9.3438 L19.2031 1.7656 Q19.2031 2.3438 19.25 2.6797 Q19.2969 3.0156 19.4062 3.2109 Q19.5156 3.4062 19.7422 3.5156 Q19.9688 3.625 20.3125 3.7188 L20.3125 4.2031 ZM17.5312 -5.8281 Q17.5312 -6.7344 17.4141 -7.2266 Q17.2969 -7.7188 17.0156 -8.0703 Q16.7344 -8.4219 16.3516 -8.5703 Q15.9688 -8.7188 15.4531 -8.7188 Q14.1875 -8.7188 13.5234 -7.7031 Q12.8594 -6.6875 12.8594 -4.8438 Q12.8594 -2.9688 13.3984 -1.9922 Q13.9375 -1.0156 15.0156 -1.0156 Q15.4375 -1.0156 15.7188 -1.0859 Q16 -1.1562 16.2812 -1.3281 Q16.5625 -1.5 16.8516 -1.7812 Q17.1406 -2.0625 17.2656 -2.2891 Q17.3906 -2.5156 17.4609 -2.8203 Q17.5312 -3.125 17.5312 -3.6094 L17.5312 -5.8281 ZM21.7188 -9.3438 L24.5 -9.3438 L24.5 -4.3594 Q24.5 -3.2188 24.5859 -2.625 Q24.6719 -2.0312 24.8516 -1.7266 Q25.0312 -1.4219 25.3516 -1.2188 Q25.6719 -1.0156 26.2344 -1.0156 Q26.6094 -1.0156 26.9531 -1.1641 Q27.2969 -1.3125 27.7109 -1.6797 Q28.125 -2.0469 28.3047 -2.4062 Q28.4844 -2.7656 28.4844 -3.25 L28.4844 -6.9062 Q28.4844 -7.4688 28.4609 -7.75 Q28.4375 -8.0312 28.3672 -8.2031 Q28.2969 -8.375 28.2031 -8.4766 Q28.1094 -8.5781 27.9375 -8.6719 Q27.7656 -8.7656 27.3906 -8.8594 L27.3906 -9.3438 L30.1719 -9.3438 L30.1719 -2.6719 Q30.1719 -1.9219 30.2031 -1.5859 Q30.2344 -1.25 30.3281 -1.0547 Q30.4219 -0.8594 30.625 -0.7344 Q30.8281 -0.6094 31.3594 -0.5156 L31.3594 0 L29.125 0.0938 L28.5312 0.0938 L28.5938 -1.5 L28.4375 -1.5469 Q27.625 -0.6719 26.8906 -0.2578 Q26.1562 0.1562 25.4219 0.1562 Q24.5312 0.1562 23.9531 -0.1953 Q23.375 -0.5469 23.0938 -1.2422 Q22.8125 -1.9375 22.8125 -3.2188 L22.8125 -6.9062 Q22.8125 -7.7188 22.75 -8.0312 Q22.6875 -8.3438 22.5 -8.5234 Q22.3125 -8.7031 21.7188 -8.8594 L21.7188 -9.3438 ZM35.7344 -13.1719 L35.7344 -11.2656 L33.9375 -11.2656 L33.9375 -13.1719 L35.7344 -13.1719 ZM32.9531 -0.4844 Q33.3281 -0.5938 33.4922 -0.6797 Q33.6562 -0.7656 33.7656 -0.9219 Q33.875 -1.0781 33.9375 -1.4062 Q34 -1.7344 34 -2.4062 L34 -6.6719 Q34 -7.2969 33.9844 -7.6797 Q33.9688 -8.0625 33.8516 -8.2891 Q33.7344 -8.5156 33.4922 -8.625 Q33.25 -8.7344 32.8125 -8.8125 L32.8125 -9.3438 L35.0938 -9.4219 L35.6875 -9.4219 L35.6875 -2.4375 Q35.6875 -1.6094 35.7656 -1.2812 Q35.8438 -0.9531 36.0625 -0.7812 Q36.2812 -0.6094 36.7812 -0.4844 L36.7812 0 L32.9531 0 L32.9531 -0.4844 ZM42.1719 -9.3438 L42.1719 -8.8594 Q41.7188 -8.75 41.5312 -8.6562 Q41.3438 -8.5625 41.2578 -8.4062 Q41.1719 -8.25 41.1719 -7.9844 Q41.1719 -7.7188 41.2344 -7.4297 Q41.2969 -7.1406 41.4219 -6.7656 L43.125 -1.8125 L45.125 -6.5469 Q45.3125 -7.0156 45.3906 -7.3203 Q45.4688 -7.625 45.4688 -7.8906 Q45.4688 -8.2969 45.25 -8.5156 Q45.0312 -8.7344 44.4531 -8.8594 L44.4531 -9.3438 L48.0938 -9.3438 L48.0938 -8.8594 Q47.7188 -8.7812 47.5156 -8.6172 Q47.3125 -8.4531 47.1016 -8.1094 Q46.8906 -7.7656 46.6094 -7.1406 L43.3281 0.0938 L42.1719 0.0938 L39.5312 -7.2031 Q39.25 -7.9531 39.0859 -8.2266 Q38.9219 -8.5 38.7344 -8.6406 Q38.5469 -8.7812 38.1875 -8.8594 L38.1875 -9.3438 L42.1719 -9.3438 ZM54.5938 -1.3906 L54.4531 -1.4375 Q53.5938 -0.5625 52.8516 -0.2031 Q52.1094 0.1562 51.2656 0.1562 Q50.5156 0.1562 49.9531 -0.1328 Q49.3906 -0.4219 49.0859 -0.9453 Q48.7812 -1.4688 48.7812 -2.1562 Q48.7812 -3.5781 50.1953 -4.3516 Q51.6094 -5.125 54.4219 -5.25 L54.4219 -5.8906 Q54.4219 -6.9062 54.2266 -7.4922 Q54.0312 -8.0781 53.6172 -8.3516 Q53.2031 -8.625 52.5 -8.625 Q51.7344 -8.625 51.2656 -8.2266 Q50.7969 -7.8281 50.5625 -7.0156 L49.2969 -7.0156 L49.2969 -8.2969 Q50.2344 -8.7812 50.8594 -9.0078 Q51.4844 -9.2344 52.1094 -9.3672 Q52.7344 -9.5 53.375 -9.5 Q54.3438 -9.5 54.9297 -9.1953 Q55.5156 -8.8906 55.8047 -8.2578 Q56.0938 -7.625 56.0938 -6.3438 L56.0938 -2.9375 Q56.0938 -2.2188 56.1016 -1.9219 Q56.1094 -1.625 56.1641 -1.3672 Q56.2188 -1.1094 56.3125 -0.9609 Q56.4062 -0.8125 56.6016 -0.7031 Q56.7969 -0.5938 57.2188 -0.4844 L57.2188 0 L54.5469 0 L54.5938 -1.3906 ZM54.4219 -4.4531 Q52.4375 -4.4375 51.4531 -3.9297 Q50.4688 -3.4219 50.4688 -2.3906 Q50.4688 -1.8438 50.6953 -1.5156 Q50.9219 -1.1875 51.2656 -1.0703 Q51.6094 -0.9531 52.0781 -0.9531 Q52.7344 -0.9531 53.2812 -1.2734 Q53.8281 -1.5938 54.125 -2.0938 Q54.4219 -2.5938 54.4219 -3.0781 L54.4219 -4.4531 ZM61.5625 -2.4375 Q61.5625 -1.6094 61.6406 -1.2812 Q61.7188 -0.9531 61.9375 -0.7812 Q62.1562 -0.6094 62.6562 -0.4844 L62.6562 0 L58.7656 0 L58.7656 -0.4844 Q59.2656 -0.6094 59.4531 -0.7422 Q59.6406 -0.875 59.7266 -1.0703 Q59.8125 -1.2656 59.8438 -1.5938 Q59.875 -1.9219 59.875 -2.4375 L59.875 -10.6094 Q59.875 -11.5469 59.8594 -11.9219 Q59.8438 -12.2969 59.7812 -12.5547 Q59.7188 -12.8125 59.6094 -12.9609 Q59.5 -13.1094 59.3047 -13.1953 Q59.1094 -13.2812 58.6094 -13.375 L58.6094 -13.875 L60.9688 -13.9688 L61.5625 -13.9688 L61.5625 -2.4375 ZM71.75 -1.6562 Q71.125 -1 70.6016 -0.6328 Q70.0781 -0.2656 69.4531 -0.0547 Q68.8281 0.1562 68.0781 0.1562 Q66.0625 0.1562 65.0391 -1.0469 Q64.0156 -2.25 64.0156 -4.6094 Q64.0156 -6.0625 64.5391 -7.1797 Q65.0625 -8.2969 66.0312 -8.8984 Q67 -9.5 68.25 -9.5 Q69.2344 -9.5 69.9297 -9.1875 Q70.625 -8.875 71.0391 -8.3359 Q71.4531 -7.7969 71.6875 -6.9688 Q71.9219 -6.1406 71.9531 -4.8125 L65.7969 -4.8125 L65.7969 -4.6406 Q65.7969 -3.4844 66.0547 -2.7031 Q66.3125 -1.9219 66.9062 -1.4766 Q67.5 -1.0312 68.4375 -1.0312 Q69.2344 -1.0312 69.875 -1.3281 Q70.5156 -1.625 71.1562 -2.2969 L71.75 -1.6562 ZM70.1094 -5.625 Q70.0469 -6.6875 69.8438 -7.3516 Q69.6406 -8.0156 69.2344 -8.375 Q68.8281 -8.7344 68.1562 -8.7344 Q67.1562 -8.7344 66.5547 -7.9297 Q65.9531 -7.125 65.8438 -5.625 L70.1094 -5.625 ZM83.4531 0 L79.6094 0 L79.6094 -0.4844 Q80 -0.5938 80.1641 -0.6797 Q80.3281 -0.7656 80.4375 -0.9219 Q80.5469 -1.0781 80.6094 -1.4062 Q80.6719 -1.7344 80.6719 -2.4062 L80.6719 -4.9688 Q80.6719 -5.6406 80.6328 -6.2031 Q80.5938 -6.7656 80.5 -7.1172 Q80.4062 -7.4688 80.2812 -7.6719 Q80.1562 -7.875 79.9688 -8.0156 Q79.7812 -8.1562 79.5469 -8.2422 Q79.3125 -8.3281 78.9375 -8.3281 Q78.5625 -8.3281 78.2188 -8.1719 Q77.875 -8.0156 77.4609 -7.6484 Q77.0469 -7.2812 76.8672 -6.9141 Q76.6875 -6.5469 76.6875 -6.0781 L76.6875 -2.4375 Q76.6875 -1.6094 76.7656 -1.2812 Q76.8438 -0.9531 77.0625 -0.7812 Q77.2812 -0.6094 77.7812 -0.4844 L77.7812 0 L73.9531 0 L73.9531 -0.4844 Q74.3281 -0.5938 74.4922 -0.6797 Q74.6562 -0.7656 74.7656 -0.9219 Q74.875 -1.0781 74.9375 -1.4062 Q75 -1.7344 75 -2.4062 L75 -6.6719 Q75 -7.2969 74.9844 -7.6797 Q74.9688 -8.0625 74.8516 -8.2891 Q74.7344 -8.5156 74.4922 -8.625 Q74.25 -8.7344 73.8125 -8.8125 L73.8125 -9.3438 L76.0938 -9.4219 L76.6875 -9.4219 L76.5781 -7.8281 L76.7188 -7.7969 Q77.4375 -8.5312 77.8828 -8.8438 Q78.3281 -9.1562 78.7812 -9.3281 Q79.2344 -9.5 79.75 -9.5 Q80.2812 -9.5 80.6953 -9.375 Q81.1094 -9.25 81.4219 -8.9922 Q81.7344 -8.7344 81.9453 -8.3594 Q82.1562 -7.9844 82.2578 -7.4609 Q82.3594 -6.9375 82.3594 -6.125 L82.3594 -2.4375 Q82.3594 -1.7656 82.3984 -1.4609 Q82.4375 -1.1562 82.5312 -0.9922 Q82.625 -0.8281 82.8125 -0.7188 Q83 -0.6094 83.4531 -0.4844 L83.4531 0 ZM84.3594 -8.8438 Q84.8438 -8.9219 85.1484 -9.1172 Q85.4531 -9.3125 85.625 -9.625 Q85.7969 -9.9375 85.8984 -10.3984 Q86 -10.8594 86.0938 -11.75 L87.4844 -11.75 L87.4844 -9.3438 L90.6406 -9.3438 L90.6406 -8.3438 L87.4844 -8.3438 L87.4844 -4 Q87.4844 -3.0625 87.5625 -2.5 Q87.6406 -1.9375 87.8594 -1.6172 Q88.0781 -1.2969 88.3516 -1.1641 Q88.625 -1.0312 89.0469 -1.0312 Q89.4375 -1.0312 89.7812 -1.1875 Q90.125 -1.3438 90.4531 -1.6562 L90.8906 -1.125 Q90.2031 -0.4531 89.5859 -0.1484 Q88.9688 0.1562 88.2969 0.1562 Q87.0312 0.1562 86.4219 -0.5938 Q85.8125 -1.3438 85.8125 -2.9375 L85.8125 -8.3438 L84.3594 -8.3438 L84.3594 -8.8438 ZM102.4844 -7.2031 L101.5469 -7.2031 Q101.3438 -7.7812 101.0469 -8.1172 Q100.75 -8.4531 100.3828 -8.5938 Q100.0156 -8.7344 99.4688 -8.7344 Q98.6875 -8.7344 98.2266 -8.3672 Q97.7656 -8 97.7656 -7.3594 Q97.7656 -6.9219 97.9531 -6.625 Q98.1406 -6.3281 98.5312 -6.0781 Q98.9219 -5.8281 99.9062 -5.4062 Q100.9062 -4.9688 101.4453 -4.6094 Q101.9844 -4.25 102.2891 -3.7734 Q102.5938 -3.2969 102.5938 -2.625 Q102.5938 -1.8594 102.3359 -1.3281 Q102.0781 -0.7969 101.5938 -0.4688 Q101.1094 -0.1406 100.4531 0.0078 Q99.7969 0.1562 99.0156 0.1562 Q98.1875 0.1562 97.4219 0.0312 Q96.6562 -0.0938 95.9219 -0.2812 L95.9219 -2.3281 L96.875 -2.3281 Q97.1406 -1.4219 97.6562 -1.0156 Q98.1719 -0.6094 99.0781 -0.6094 Q99.4375 -0.6094 99.7734 -0.6875 Q100.1094 -0.7656 100.375 -0.9375 Q100.6406 -1.1094 100.7969 -1.3984 Q100.9531 -1.6875 100.9531 -2.125 Q100.9531 -2.625 100.7578 -2.9375 Q100.5625 -3.25 100.1484 -3.5078 Q99.7344 -3.7656 98.7031 -4.2031 Q97.8125 -4.5781 97.2734 -4.9297 Q96.7344 -5.2812 96.4297 -5.7578 Q96.125 -6.2344 96.125 -6.8906 Q96.125 -7.7031 96.5625 -8.2891 Q97 -8.875 97.8203 -9.1875 Q98.6406 -9.5 99.7344 -9.5 Q100.375 -9.5 100.9766 -9.4375 Q101.5781 -9.375 102.4844 -9.1875 L102.4844 -7.2031 ZM104.3594 -8.8438 Q104.8438 -8.9219 105.1484 -9.1172 Q105.4531 -9.3125 105.625 -9.625 Q105.7969 -9.9375 105.8984 -10.3984 Q106 -10.8594 106.0938 -11.75 L107.4844 -11.75 L107.4844 -9.3438 L110.6406 -9.3438 L110.6406 -8.3438 L107.4844 -8.3438 L107.4844 -4 Q107.4844 -3.0625 107.5625 -2.5 Q107.6406 -1.9375 107.8594 -1.6172 Q108.0781 -1.2969 108.3516 -1.1641 Q108.625 -1.0312 109.0469 -1.0312 Q109.4375 -1.0312 109.7812 -1.1875 Q110.125 -1.3438 110.4531 -1.6562 L110.8906 -1.125 Q110.2031 -0.4531 109.5859 -0.1484 Q108.9688 0.1562 108.2969 0.1562 Q107.0312 0.1562 106.4219 -0.5938 Q105.8125 -1.3438 105.8125 -2.9375 L105.8125 -8.3438 L104.3594 -8.3438 L104.3594 -8.8438 ZM114.5781 -7.7188 L114.7188 -7.6875 Q115.2656 -8.3438 115.7188 -8.7188 Q116.1719 -9.0938 116.7031 -9.2969 Q117.2344 -9.5 117.9219 -9.5 Q118.4844 -9.5 118.9375 -9.4375 L118.9375 -7.2031 L117.8438 -7.2031 Q117.6094 -7.7188 117.3438 -7.9609 Q117.0781 -8.2031 116.6094 -8.2031 Q116.2656 -8.2031 115.9219 -8 Q115.5781 -7.7969 115.25 -7.4062 Q114.9219 -7.0156 114.8047 -6.6719 Q114.6875 -6.3281 114.6875 -5.8594 L114.6875 -2.4375 Q114.6875 -1.5469 114.7891 -1.2109 Q114.8906 -0.875 115.1406 -0.7188 Q115.3906 -0.5625 115.8906 -0.4844 L115.8906 0 L111.9531 0 L111.9531 -0.4844 Q112.3281 -0.5938 112.4922 -0.6797 Q112.6562 -0.7656 112.7734 -0.9219 Q112.8906 -1.0781 112.9453 -1.4062 Q113 -1.7344 113 -2.4062 L113 -6.6719 Q113 -7.2969 112.9844 -7.6797 Q112.9688 -8.0625 112.8516 -8.2891 Q112.7344 -8.5156 112.4922 -8.625 Q112.25 -8.7344 111.8125 -8.8125 L111.8125 -9.3281 L114.0938 -9.4219 L114.6875 -9.4219 L114.5781 -7.7188 ZM127.75 -1.6562 Q127.125 -1 126.6016 -0.6328 Q126.0781 -0.2656 125.4531 -0.0547 Q124.8281 0.1562 124.0781 0.1562 Q122.0625 0.1562 121.0391 -1.0469 Q120.0156 -2.25 120.0156 -4.6094 Q120.0156 -6.0625 120.5391 -7.1797 Q121.0625 -8.2969 122.0312 -8.8984 Q123 -9.5 124.25 -9.5 Q125.2344 -9.5 125.9297 -9.1875 Q126.625 -8.875 127.0391 -8.3359 Q127.4531 -7.7969 127.6875 -6.9688 Q127.9219 -6.1406 127.9531 -4.8125 L121.7969 -4.8125 L121.7969 -4.6406 Q121.7969 -3.4844 122.0547 -2.7031 Q122.3125 -1.9219 122.9062 -1.4766 Q123.5 -1.0312 124.4375 -1.0312 Q125.2344 -1.0312 125.875 -1.3281 Q126.5156 -1.625 127.1562 -2.2969 L127.75 -1.6562 ZM126.1094 -5.625 Q126.0469 -6.6875 125.8438 -7.3516 Q125.6406 -8.0156 125.2344 -8.375 Q124.8281 -8.7344 124.1562 -8.7344 Q123.1562 -8.7344 122.5547 -7.9297 Q121.9531 -7.125 121.8438 -5.625 L126.1094 -5.625 ZM136.4844 -7.2031 L135.5469 -7.2031 Q135.3438 -7.7812 135.0469 -8.1172 Q134.75 -8.4531 134.3828 -8.5938 Q134.0156 -8.7344 133.4688 -8.7344 Q132.6875 -8.7344 132.2266 -8.3672 Q131.7656 -8 131.7656 -7.3594 Q131.7656 -6.9219 131.9531 -6.625 Q132.1406 -6.3281 132.5312 -6.0781 Q132.9219 -5.8281 133.9062 -5.4062 Q134.9062 -4.9688 135.4453 -4.6094 Q135.9844 -4.25 136.2891 -3.7734 Q136.5938 -3.2969 136.5938 -2.625 Q136.5938 -1.8594 136.3359 -1.3281 Q136.0781 -0.7969 135.5938 -0.4688 Q135.1094 -0.1406 134.4531 0.0078 Q133.7969 0.1562 133.0156 0.1562 Q132.1875 0.1562 131.4219 0.0312 Q130.6562 -0.0938 129.9219 -0.2812 L129.9219 -2.3281 L130.875 -2.3281 Q131.1406 -1.4219 131.6562 -1.0156 Q132.1719 -0.6094 133.0781 -0.6094 Q133.4375 -0.6094 133.7734 -0.6875 Q134.1094 -0.7656 134.375 -0.9375 Q134.6406 -1.1094 134.7969 -1.3984 Q134.9531 -1.6875 134.9531 -2.125 Q134.9531 -2.625 134.7578 -2.9375 Q134.5625 -3.25 134.1484 -3.5078 Q133.7344 -3.7656 132.7031 -4.2031 Q131.8125 -4.5781 131.2734 -4.9297 Q130.7344 -5.2812 130.4297 -5.7578 Q130.125 -6.2344 130.125 -6.8906 Q130.125 -7.7031 130.5625 -8.2891 Q131 -8.875 131.8203 -9.1875 Q132.6406 -9.5 133.7344 -9.5 Q134.375 -9.5 134.9766 -9.4375 Q135.5781 -9.375 136.4844 -9.1875 L136.4844 -7.2031 ZM145.4844 -7.2031 L144.5469 -7.2031 Q144.3438 -7.7812 144.0469 -8.1172 Q143.75 -8.4531 143.3828 -8.5938 Q143.0156 -8.7344 142.4688 -8.7344 Q141.6875 -8.7344 141.2266 -8.3672 Q140.7656 -8 140.7656 -7.3594 Q140.7656 -6.9219 140.9531 -6.625 Q141.1406 -6.3281 141.5312 -6.0781 Q141.9219 -5.8281 142.9062 -5.4062 Q143.9062 -4.9688 144.4453 -4.6094 Q144.9844 -4.25 145.2891 -3.7734 Q145.5938 -3.2969 145.5938 -2.625 Q145.5938 -1.8594 145.3359 -1.3281 Q145.0781 -0.7969 144.5938 -0.4688 Q144.1094 -0.1406 143.4531 0.0078 Q142.7969 0.1562 142.0156 0.1562 Q141.1875 0.1562 140.4219 0.0312 Q139.6562 -0.0938 138.9219 -0.2812 L138.9219 -2.3281 L139.875 -2.3281 Q140.1406 -1.4219 140.6562 -1.0156 Q141.1719 -0.6094 142.0781 -0.6094 Q142.4375 -0.6094 142.7734 -0.6875 Q143.1094 -0.7656 143.375 -0.9375 Q143.6406 -1.1094 143.7969 -1.3984 Q143.9531 -1.6875 143.9531 -2.125 Q143.9531 -2.625 143.7578 -2.9375 Q143.5625 -3.25 143.1484 -3.5078 Q142.7344 -3.7656 141.7031 -4.2031 Q140.8125 -4.5781 140.2734 -4.9297 Q139.7344 -5.2812 139.4297 -5.7578 Q139.125 -6.2344 139.125 -6.8906 Q139.125 -7.7031 139.5625 -8.2891 Q140 -8.875 140.8203 -9.1875 Q141.6406 -9.5 142.7344 -9.5 Q143.375 -9.5 143.9766 -9.4375 Q144.5781 -9.375 145.4844 -9.1875 L145.4844 -7.2031 ZM156.9688 -8.3438 L154.6406 -8.3438 L154.6406 -2.4375 Q154.6406 -1.7812 154.7031 -1.4531 Q154.7656 -1.125 154.8828 -0.9531 Q155 -0.7812 155.2031 -0.6797 Q155.4062 -0.5781 155.8438 -0.4844 L155.8438 0 L151.8438 0 L151.8438 -0.4844 Q152.2812 -0.5938 152.4688 -0.7031 Q152.6562 -0.8125 152.7578 -0.9766 Q152.8594 -1.1406 152.9062 -1.4531 Q152.9531 -1.7656 152.9531 -2.4375 L152.9531 -8.3438 L151.7656 -8.3438 L151.7656 -8.8438 Q152.1406 -8.9062 152.2656 -8.9375 Q152.3906 -8.9688 152.5 -9.0391 Q152.6094 -9.1094 152.6953 -9.2344 Q152.7812 -9.3594 152.8438 -9.6094 Q152.9062 -9.8594 152.9375 -10.3125 Q153.0312 -11.375 153.3281 -12.0391 Q153.625 -12.7031 154.1953 -13.1719 Q154.7656 -13.6406 155.4141 -13.8359 Q156.0625 -14.0312 156.9531 -14.0312 Q157.7188 -14.0312 158.25 -13.9219 L158.25 -12.1562 L157.2969 -12.1562 Q157.1094 -12.7188 156.8594 -12.9609 Q156.6094 -13.2031 156.1562 -13.2031 Q155.8281 -13.2031 155.6094 -13.1172 Q155.3906 -13.0312 155.2109 -12.8438 Q155.0312 -12.6562 154.8984 -12.3438 Q154.7656 -12.0312 154.7031 -11.5703 Q154.6406 -11.1094 154.6406 -10.3594 L154.6406 -9.3438 L156.9688 -9.3438 L156.9688 -8.3438 ZM162.2031 0.1562 Q160.1719 0.1562 159.1016 -1.0391 Q158.0312 -2.2344 158.0312 -4.5781 Q158.0312 -6.1875 158.5938 -7.3047 Q159.1562 -8.4219 160.1328 -8.9609 Q161.1094 -9.5 162.3594 -9.5 Q164.4375 -9.5 165.5156 -8.2891 Q166.5938 -7.0781 166.5938 -4.7969 Q166.5938 -3.1719 166.0547 -2.0625 Q165.5156 -0.9531 164.5312 -0.3984 Q163.5469 0.1562 162.2031 0.1562 ZM159.875 -4.7812 Q159.875 -2.7812 160.5156 -1.6953 Q161.1562 -0.6094 162.3438 -0.6094 Q163 -0.6094 163.4609 -0.9297 Q163.9219 -1.25 164.2031 -1.7891 Q164.4844 -2.3281 164.6172 -3.0312 Q164.75 -3.7344 164.75 -4.5156 Q164.75 -5.9531 164.4297 -6.8984 Q164.1094 -7.8438 163.5625 -8.2891 Q163.0156 -8.7344 162.3125 -8.7344 Q161.125 -8.7344 160.5 -7.7109 Q159.875 -6.6875 159.875 -4.7812 ZM171.5781 -7.7188 L171.7188 -7.6875 Q172.2656 -8.3438 172.7188 -8.7188 Q173.1719 -9.0938 173.7031 -9.2969 Q174.2344 -9.5 174.9219 -9.5 Q175.4844 -9.5 175.9375 -9.4375 L175.9375 -7.2031 L174.8438 -7.2031 Q174.6094 -7.7188 174.3438 -7.9609 Q174.0781 -8.2031 173.6094 -8.2031 Q173.2656 -8.2031 172.9219 -8 Q172.5781 -7.7969 172.25 -7.4062 Q171.9219 -7.0156 171.8047 -6.6719 Q171.6875 -6.3281 171.6875 -5.8594 L171.6875 -2.4375 Q171.6875 -1.5469 171.7891 -1.2109 Q171.8906 -0.875 172.1406 -0.7188 Q172.3906 -0.5625 172.8906 -0.4844 L172.8906 0 L168.9531 0 L168.9531 -0.4844 Q169.3281 -0.5938 169.4922 -0.6797 Q169.6562 -0.7656 169.7734 -0.9219 Q169.8906 -1.0781 169.9453 -1.4062 Q170 -1.7344 170 -2.4062 L170 -6.6719 Q170 -7.2969 169.9844 -7.6797 Q169.9688 -8.0625 169.8516 -8.2891 Q169.7344 -8.5156 169.4922 -8.625 Q169.25 -8.7344 168.8125 -8.8125 L168.8125 -9.3281 L171.0938 -9.4219 L171.6875 -9.4219 L171.5781 -7.7188 ZM186.8594 -1.5625 Q187.3281 -1.5625 187.625 -1.625 Q187.9219 -1.6875 188.0938 -1.8203 Q188.2656 -1.9531 188.375 -2.1719 Q188.4844 -2.3906 188.6406 -2.8594 L189.4688 -2.8594 L189.2969 0 L181.2656 0 L181.2656 -0.4688 Q181.6875 -1.5 182.3984 -2.5703 Q183.1094 -3.6406 184.4219 -5.0938 Q185.5469 -6.3438 186.0469 -7 Q186.5938 -7.7031 186.8594 -8.2109 Q187.125 -8.7188 187.2422 -9.1719 Q187.3594 -9.625 187.3594 -10.0938 Q187.3594 -10.8281 187.125 -11.3828 Q186.8906 -11.9375 186.4062 -12.2656 Q185.9219 -12.5938 185.2031 -12.5938 Q183.375 -12.5938 182.7344 -10.5625 L181.5469 -10.5625 L181.5469 -12.4375 Q182.7344 -12.9844 183.7656 -13.2344 Q184.7969 -13.4844 185.6094 -13.4844 Q187.4375 -13.4844 188.3594 -12.6875 Q189.2812 -11.8906 189.2812 -10.375 Q189.2812 -9.8594 189.1797 -9.4297 Q189.0781 -9 188.8594 -8.5703 Q188.6406 -8.1406 188.2734 -7.6562 Q187.9062 -7.1719 187.4531 -6.6641 Q187 -6.1562 185.9062 -4.9844 Q184.0469 -3.0312 183.1719 -1.5625 L186.8594 -1.5625 ZM196.5938 -4.3906 L192.0625 -4.3906 L192.0625 -5.9062 L196.5938 -5.9062 L196.5938 -4.3906 ZM199.1719 0 L199.1719 -0.4844 Q199.625 -0.5938 199.8203 -0.7031 Q200.0156 -0.8125 200.125 -0.9766 Q200.2344 -1.1406 200.2812 -1.4531 Q200.3281 -1.7656 200.3281 -2.4375 L200.3281 -10.8906 Q200.3281 -11.5781 200.2812 -11.8828 Q200.2344 -12.1875 200.1172 -12.3516 Q200 -12.5156 199.8125 -12.6172 Q199.625 -12.7188 199.1719 -12.8594 L199.1719 -13.3281 L203.4531 -13.3281 Q205.2969 -13.3281 206.4766 -12.9219 Q207.6562 -12.5156 208.4609 -11.7266 Q209.2656 -10.9375 209.6719 -9.7578 Q210.0781 -8.5781 210.0781 -6.9531 Q210.0781 -5.2969 209.6953 -4.0469 Q209.3125 -2.7969 208.5938 -1.9375 Q207.9688 -1.2031 207.0625 -0.7188 Q206.3125 -0.3281 205.3281 -0.1641 Q204.3438 0 202.7031 0 L199.1719 0 ZM202.1562 -0.9062 Q202.5469 -0.875 203.2969 -0.875 Q204.125 -0.875 204.7656 -1.0078 Q205.4062 -1.1406 205.9375 -1.4375 Q206.4688 -1.7344 206.8906 -2.2578 Q207.3125 -2.7812 207.5703 -3.4531 Q207.8281 -4.125 207.9531 -4.9609 Q208.0781 -5.7969 208.0781 -6.7812 Q208.0781 -8.7656 207.5078 -10.0391 Q206.9375 -11.3125 205.8984 -11.8984 Q204.8594 -12.4844 203.4062 -12.4844 Q202.75 -12.4844 202.1562 -12.4375 L202.1562 -0.9062 ZM223.2188 -9.1094 L223.2188 -7.0781 L221.9844 -7.0781 Q221.8125 -7.7031 221.5703 -8.0703 Q221.3281 -8.4375 221.0078 -8.5859 Q220.6875 -8.7344 220.2031 -8.7344 Q219.5156 -8.7344 218.9922 -8.2969 Q218.4688 -7.8594 218.1641 -6.9609 Q217.8594 -6.0625 217.8594 -4.75 Q217.8594 -3.9219 217.9766 -3.2344 Q218.0938 -2.5469 218.375 -2.0625 Q218.6562 -1.5781 219.125 -1.3047 Q219.5938 -1.0312 220.2812 -1.0312 Q220.9531 -1.0312 221.5391 -1.2891 Q222.125 -1.5469 222.75 -2.2188 L223.2969 -1.5781 Q222.7969 -1.0312 222.4219 -0.7344 Q222.0469 -0.4375 221.6094 -0.2344 Q221.1719 -0.0312 220.75 0.0625 Q220.3281 0.1562 219.8281 0.1562 Q217.9844 0.1562 217.0078 -1.0703 Q216.0312 -2.2969 216.0312 -4.6094 Q216.0312 -6.0625 216.5781 -7.1797 Q217.125 -8.2969 218.1094 -8.8984 Q219.0938 -9.5 220.375 -9.5 Q221.1875 -9.5 221.8672 -9.4062 Q222.5469 -9.3125 223.2188 -9.1094 ZM229.2031 0.1562 Q227.1719 0.1562 226.1016 -1.0391 Q225.0312 -2.2344 225.0312 -4.5781 Q225.0312 -6.1875 225.5938 -7.3047 Q226.1562 -8.4219 227.1328 -8.9609 Q228.1094 -9.5 229.3594 -9.5 Q231.4375 -9.5 232.5156 -8.2891 Q233.5938 -7.0781 233.5938 -4.7969 Q233.5938 -3.1719 233.0547 -2.0625 Q232.5156 -0.9531 231.5312 -0.3984 Q230.5469 0.1562 229.2031 0.1562 ZM226.875 -4.7812 Q226.875 -2.7812 227.5156 -1.6953 Q228.1562 -0.6094 229.3438 -0.6094 Q230 -0.6094 230.4609 -0.9297 Q230.9219 -1.25 231.2031 -1.7891 Q231.4844 -2.3281 231.6172 -3.0312 Q231.75 -3.7344 231.75 -4.5156 Q231.75 -5.9531 231.4297 -6.8984 Q231.1094 -7.8438 230.5625 -8.2891 Q230.0156 -8.7344 229.3125 -8.7344 Q228.125 -8.7344 227.5 -7.7109 Q226.875 -6.6875 226.875 -4.7812 ZM245.4531 0 L241.6094 0 L241.6094 -0.4844 Q242 -0.5938 242.1641 -0.6797 Q242.3281 -0.7656 242.4375 -0.9219 Q242.5469 -1.0781 242.6094 -1.4062 Q242.6719 -1.7344 242.6719 -2.4062 L242.6719 -4.9688 Q242.6719 -5.6406 242.6328 -6.2031 Q242.5938 -6.7656 242.5 -7.1172 Q242.4062 -7.4688 242.2812 -7.6719 Q242.1562 -7.875 241.9688 -8.0156 Q241.7812 -8.1562 241.5469 -8.2422 Q241.3125 -8.3281 240.9375 -8.3281 Q240.5625 -8.3281 240.2188 -8.1719 Q239.875 -8.0156 239.4609 -7.6484 Q239.0469 -7.2812 238.8672 -6.9141 Q238.6875 -6.5469 238.6875 -6.0781 L238.6875 -2.4375 Q238.6875 -1.6094 238.7656 -1.2812 Q238.8438 -0.9531 239.0625 -0.7812 Q239.2812 -0.6094 239.7812 -0.4844 L239.7812 0 L235.9531 0 L235.9531 -0.4844 Q236.3281 -0.5938 236.4922 -0.6797 Q236.6562 -0.7656 236.7656 -0.9219 Q236.875 -1.0781 236.9375 -1.4062 Q237 -1.7344 237 -2.4062 L237 -6.6719 Q237 -7.2969 236.9844 -7.6797 Q236.9688 -8.0625 236.8516 -8.2891 Q236.7344 -8.5156 236.4922 -8.625 Q236.25 -8.7344 235.8125 -8.8125 L235.8125 -9.3438 L238.0938 -9.4219 L238.6875 -9.4219 L238.5781 -7.8281 L238.7188 -7.7969 Q239.4375 -8.5312 239.8828 -8.8438 Q240.3281 -9.1562 240.7812 -9.3281 Q241.2344 -9.5 241.75 -9.5 Q242.2812 -9.5 242.6953 -9.375 Q243.1094 -9.25 243.4219 -8.9922 Q243.7344 -8.7344 243.9453 -8.3594 Q244.1562 -7.9844 244.2578 -7.4609 Q244.3594 -6.9375 244.3594 -6.125 L244.3594 -2.4375 Q244.3594 -1.7656 244.3984 -1.4609 Q244.4375 -1.1562 244.5312 -0.9922 Q244.625 -0.8281 244.8125 -0.7188 Q245 -0.6094 245.4531 -0.4844 L245.4531 0 ZM246.3594 -8.8438 Q246.8438 -8.9219 247.1484 -9.1172 Q247.4531 -9.3125 247.625 -9.625 Q247.7969 -9.9375 247.8984 -10.3984 Q248 -10.8594 248.0938 -11.75 L249.4844 -11.75 L249.4844 -9.3438 L252.6406 -9.3438 L252.6406 -8.3438 L249.4844 -8.3438 L249.4844 -4 Q249.4844 -3.0625 249.5625 -2.5 Q249.6406 -1.9375 249.8594 -1.6172 Q250.0781 -1.2969 250.3516 -1.1641 Q250.625 -1.0312 251.0469 -1.0312 Q251.4375 -1.0312 251.7812 -1.1875 Q252.125 -1.3438 252.4531 -1.6562 L252.8906 -1.125 Q252.2031 -0.4531 251.5859 -0.1484 Q250.9688 0.1562 250.2969 0.1562 Q249.0312 0.1562 248.4219 -0.5938 Q247.8125 -1.3438 247.8125 -2.9375 L247.8125 -8.3438 L246.3594 -8.3438 L246.3594 -8.8438 ZM259.5938 -1.3906 L259.4531 -1.4375 Q258.5938 -0.5625 257.8516 -0.2031 Q257.1094 0.1562 256.2656 0.1562 Q255.5156 0.1562 254.9531 -0.1328 Q254.3906 -0.4219 254.0859 -0.9453 Q253.7812 -1.4688 253.7812 -2.1562 Q253.7812 -3.5781 255.1953 -4.3516 Q256.6094 -5.125 259.4219 -5.25 L259.4219 -5.8906 Q259.4219 -6.9062 259.2266 -7.4922 Q259.0312 -8.0781 258.6172 -8.3516 Q258.2031 -8.625 257.5 -8.625 Q256.7344 -8.625 256.2656 -8.2266 Q255.7969 -7.8281 255.5625 -7.0156 L254.2969 -7.0156 L254.2969 -8.2969 Q255.2344 -8.7812 255.8594 -9.0078 Q256.4844 -9.2344 257.1094 -9.3672 Q257.7344 -9.5 258.375 -9.5 Q259.3438 -9.5 259.9297 -9.1953 Q260.5156 -8.8906 260.8047 -8.2578 Q261.0938 -7.625 261.0938 -6.3438 L261.0938 -2.9375 Q261.0938 -2.2188 261.1016 -1.9219 Q261.1094 -1.625 261.1641 -1.3672 Q261.2188 -1.1094 261.3125 -0.9609 Q261.4062 -0.8125 261.6016 -0.7031 Q261.7969 -0.5938 262.2188 -0.4844 L262.2188 0 L259.5469 0 L259.5938 -1.3906 ZM259.4219 -4.4531 Q257.4375 -4.4375 256.4531 -3.9297 Q255.4688 -3.4219 255.4688 -2.3906 Q255.4688 -1.8438 255.6953 -1.5156 Q255.9219 -1.1875 256.2656 -1.0703 Q256.6094 -0.9531 257.0781 -0.9531 Q257.7344 -0.9531 258.2812 -1.2734 Q258.8281 -1.5938 259.125 -2.0938 Q259.4219 -2.5938 259.4219 -3.0781 L259.4219 -4.4531 ZM271.2188 -9.1094 L271.2188 -7.0781 L269.9844 -7.0781 Q269.8125 -7.7031 269.5703 -8.0703 Q269.3281 -8.4375 269.0078 -8.5859 Q268.6875 -8.7344 268.2031 -8.7344 Q267.5156 -8.7344 266.9922 -8.2969 Q266.4688 -7.8594 266.1641 -6.9609 Q265.8594 -6.0625 265.8594 -4.75 Q265.8594 -3.9219 265.9766 -3.2344 Q266.0938 -2.5469 266.375 -2.0625 Q266.6562 -1.5781 267.125 -1.3047 Q267.5938 -1.0312 268.2812 -1.0312 Q268.9531 -1.0312 269.5391 -1.2891 Q270.125 -1.5469 270.75 -2.2188 L271.2969 -1.5781 Q270.7969 -1.0312 270.4219 -0.7344 Q270.0469 -0.4375 269.6094 -0.2344 Q269.1719 -0.0312 268.75 0.0625 Q268.3281 0.1562 267.8281 0.1562 Q265.9844 0.1562 265.0078 -1.0703 Q264.0312 -2.2969 264.0312 -4.6094 Q264.0312 -6.0625 264.5781 -7.1797 Q265.125 -8.2969 266.1094 -8.8984 Q267.0938 -9.5 268.375 -9.5 Q269.1875 -9.5 269.8672 -9.4062 Q270.5469 -9.3125 271.2188 -9.1094 ZM272.3594 -8.8438 Q272.8438 -8.9219 273.1484 -9.1172 Q273.4531 -9.3125 273.625 -9.625 Q273.7969 -9.9375 273.8984 -10.3984 Q274 -10.8594 274.0938 -11.75 L275.4844 -11.75 L275.4844 -9.3438 L278.6406 -9.3438 L278.6406 -8.3438 L275.4844 -8.3438 L275.4844 -4 Q275.4844 -3.0625 275.5625 -2.5 Q275.6406 -1.9375 275.8594 -1.6172 Q276.0781 -1.2969 276.3516 -1.1641 Q276.625 -1.0312 277.0469 -1.0312 Q277.4375 -1.0312 277.7812 -1.1875 Q278.125 -1.3438 278.4531 -1.6562 L278.8906 -1.125 Q278.2031 -0.4531 277.5859 -0.1484 Q276.9688 0.1562 276.2969 0.1562 Q275.0312 0.1562 274.4219 -0.5938 Q273.8125 -1.3438 273.8125 -2.9375 L273.8125 -8.3438 L272.3594 -8.3438 L272.3594 -8.8438 Z" stroke="none"/></g><g text-rendering="optimizeLegibility" stroke-width="1.6667" color-interpolation="linearRGB" color-rendering="optimizeQuality" image-rendering="optimizeQuality"><line y2="57.7357" fill="none" x1="55.8698" x2="60.0642" y1="44.672"/><line y2="30.0586" fill="none" x1="60.0642" x2="64.2587" y1="57.7357"/><line y2="30.0586" fill="none" x1="64.2587" x2="111.4306" y1="30.0586"/><path d="M9.375 -8.1094 L5.9219 -8.1094 L4.7031 -2.5156 Q4.5938 -1.9844 4.5938 -1.7344 Q4.5938 -0.875 5.4375 -0.875 Q6.1562 -0.875 6.9531 -1.4375 L7.2812 -0.875 Q6 0.1562 4.7031 0.1562 Q2.9531 0.1562 2.9531 -1.4375 Q2.9531 -1.9531 3.0781 -2.4062 L4.3438 -8.1094 L3.7188 -8.1094 Q2.375 -8.1094 1.1875 -6.9062 L0.6875 -7.4219 Q2.1562 -9.3438 4.1719 -9.3438 L9.625 -9.3438 L9.375 -8.1094 Z" stroke-width="1" transform="translate(64.2587,51.892)" stroke="none"/></g><g text-rendering="optimizeLegibility" transform="translate(73.8837,57.7357)" color-rendering="optimizeQuality" color-interpolation="linearRGB" image-rendering="optimizeQuality"><path d="M4.75 -1.7812 Q4.75 -1.3906 4.7969 -1.1875 Q4.8438 -0.9844 4.9531 -0.8594 Q5.0625 -0.7344 5.2734 -0.6641 Q5.4844 -0.5938 5.8047 -0.5547 Q6.125 -0.5156 6.6562 -0.5 L6.6562 0 L1.6094 0 L1.6094 -0.5 Q2.3594 -0.5312 2.6875 -0.5938 Q3.0156 -0.6562 3.1875 -0.7656 Q3.3594 -0.875 3.4375 -1.0938 Q3.5156 -1.3125 3.5156 -1.7812 L3.5156 -7.3281 Q3.5156 -7.6094 3.4219 -7.7344 Q3.3281 -7.8594 3.1406 -7.8594 Q2.9219 -7.8594 2.5156 -7.6328 Q2.1094 -7.4062 1.5156 -7 L1.2188 -7.5312 L4.4219 -9.4375 L4.7969 -9.4375 Q4.75 -8.7812 4.75 -7.625 L4.75 -1.7812 Z" stroke="none"/></g><g text-rendering="optimizeLegibility" transform="translate(73.8837,46.2982)" color-rendering="optimizeQuality" color-interpolation="linearRGB" image-rendering="optimizeQuality"><path d="M4.7969 -1.0938 Q5.1406 -1.0938 5.3438 -1.1328 Q5.5469 -1.1719 5.6719 -1.2734 Q5.7969 -1.375 5.8672 -1.5234 Q5.9375 -1.6719 6.0469 -2 L6.625 -2 L6.5156 0 L0.875 0 L0.875 -0.3281 Q1.1719 -1.0469 1.6719 -1.7969 Q2.1719 -2.5469 3.0938 -3.5625 Q3.8906 -4.4375 4.2344 -4.8906 Q4.6094 -5.3906 4.7969 -5.75 Q4.9844 -6.1094 5.0703 -6.4219 Q5.1562 -6.7344 5.1562 -7.0625 Q5.1562 -7.5781 4.9922 -7.9688 Q4.8281 -8.3594 4.4922 -8.5859 Q4.1562 -8.8125 3.6406 -8.8125 Q2.3594 -8.8125 1.9219 -7.3906 L1.0938 -7.3906 L1.0938 -8.7031 Q1.9219 -9.0938 2.6406 -9.2656 Q3.3594 -9.4375 3.9375 -9.4375 Q5.2031 -9.4375 5.8516 -8.8828 Q6.5 -8.3281 6.5 -7.2656 Q6.5 -6.9062 6.4297 -6.6016 Q6.3594 -6.2969 6.2031 -6 Q6.0469 -5.7031 5.7891 -5.3594 Q5.5312 -5.0156 5.2188 -4.6641 Q4.9062 -4.3125 4.125 -3.5 Q2.8281 -2.125 2.2188 -1.0938 L4.7969 -1.0938 Z" stroke="none"/></g><g text-rendering="optimizeLegibility" transform="translate(81.3212,51.892)" color-rendering="optimizeQuality" color-interpolation="linearRGB" image-rendering="optimizeQuality"><path d="M6.25 -5.0469 L6.25 -1.3438 L4.8125 -1.3438 L4.8125 -5.0469 L1.2188 -5.0469 L1.2188 -6.3906 L4.8125 -6.3906 L4.8125 -10.0938 L6.25 -10.0938 L6.25 -6.3906 L9.8594 -6.3906 L9.8594 -5.0469 L6.25 -5.0469 Z" stroke="none"/></g><g text-rendering="optimizeLegibility" transform="translate(93.1806,51.892)" color-rendering="optimizeQuality" color-interpolation="linearRGB" image-rendering="optimizeQuality"><path d="M9.375 -8.1094 L5.9219 -8.1094 L4.7031 -2.5156 Q4.5938 -1.9844 4.5938 -1.7344 Q4.5938 -0.875 5.4375 -0.875 Q6.1562 -0.875 6.9531 -1.4375 L7.2812 -0.875 Q6 0.1562 4.7031 0.1562 Q2.9531 0.1562 2.9531 -1.4375 Q2.9531 -1.9531 3.0781 -2.4062 L4.3438 -8.1094 L3.7188 -8.1094 Q2.375 -8.1094 1.1875 -6.9062 L0.6875 -7.4219 Q2.1562 -9.3438 4.1719 -9.3438 L9.625 -9.3438 L9.375 -8.1094 Z" stroke="none"/></g><g text-rendering="optimizeLegibility" transform="translate(102.8056,57.7357)" color-rendering="optimizeQuality" color-interpolation="linearRGB" image-rendering="optimizeQuality"><path d="M4.7969 -1.0938 Q5.1406 -1.0938 5.3438 -1.1328 Q5.5469 -1.1719 5.6719 -1.2734 Q5.7969 -1.375 5.8672 -1.5234 Q5.9375 -1.6719 6.0469 -2 L6.625 -2 L6.5156 0 L0.875 0 L0.875 -0.3281 Q1.1719 -1.0469 1.6719 -1.7969 Q2.1719 -2.5469 3.0938 -3.5625 Q3.8906 -4.4375 4.2344 -4.8906 Q4.6094 -5.3906 4.7969 -5.75 Q4.9844 -6.1094 5.0703 -6.4219 Q5.1562 -6.7344 5.1562 -7.0625 Q5.1562 -7.5781 4.9922 -7.9688 Q4.8281 -8.3594 4.4922 -8.5859 Q4.1562 -8.8125 3.6406 -8.8125 Q2.3594 -8.8125 1.9219 -7.3906 L1.0938 -7.3906 L1.0938 -8.7031 Q1.9219 -9.0938 2.6406 -9.2656 Q3.3594 -9.4375 3.9375 -9.4375 Q5.2031 -9.4375 5.8516 -8.8828 Q6.5 -8.3281 6.5 -7.2656 Q6.5 -6.9062 6.4297 -6.6016 Q6.3594 -6.2969 6.2031 -6 Q6.0469 -5.7031 5.7891 -5.3594 Q5.5312 -5.0156 5.2188 -4.6641 Q4.9062 -4.3125 4.125 -3.5 Q2.8281 -2.125 2.2188 -1.0938 L4.7969 -1.0938 Z" stroke="none"/></g><g text-rendering="optimizeLegibility" transform="translate(102.8056,46.2982)" color-rendering="optimizeQuality" color-interpolation="linearRGB" image-rendering="optimizeQuality"><path d="M4.7969 -1.0938 Q5.1406 -1.0938 5.3438 -1.1328 Q5.5469 -1.1719 5.6719 -1.2734 Q5.7969 -1.375 5.8672 -1.5234 Q5.9375 -1.6719 6.0469 -2 L6.625 -2 L6.5156 0 L0.875 0 L0.875 -0.3281 Q1.1719 -1.0469 1.6719 -1.7969 Q2.1719 -2.5469 3.0938 -3.5625 Q3.8906 -4.4375 4.2344 -4.8906 Q4.6094 -5.3906 4.7969 -5.75 Q4.9844 -6.1094 5.0703 -6.4219 Q5.1562 -6.7344 5.1562 -7.0625 Q5.1562 -7.5781 4.9922 -7.9688 Q4.8281 -8.3594 4.4922 -8.5859 Q4.1562 -8.8125 3.6406 -8.8125 Q2.3594 -8.8125 1.9219 -7.3906 L1.0938 -7.3906 L1.0938 -8.7031 Q1.9219 -9.0938 2.6406 -9.2656 Q3.3594 -9.4375 3.9375 -9.4375 Q5.2031 -9.4375 5.8516 -8.8828 Q6.5 -8.3281 6.5 -7.2656 Q6.5 -6.9062 6.4297 -6.6016 Q6.3594 -6.2969 6.2031 -6 Q6.0469 -5.7031 5.7891 -5.3594 Q5.5312 -5.0156 5.2188 -4.6641 Q4.9062 -4.3125 4.125 -3.5 Q2.8281 -2.125 2.2188 -1.0938 L4.7969 -1.0938 Z" stroke="none"/></g><g text-rendering="optimizeLegibility" transform="translate(113.0972,51.892)" color-rendering="optimizeQuality" color-interpolation="linearRGB" image-rendering="optimizeQuality"><path d="M8.75 -1.6562 Q8.125 -1 7.6016 -0.6328 Q7.0781 -0.2656 6.4531 -0.0547 Q5.8281 0.1562 5.0781 0.1562 Q3.0625 0.1562 2.0391 -1.0469 Q1.0156 -2.25 1.0156 -4.6094 Q1.0156 -6.0625 1.5391 -7.1797 Q2.0625 -8.2969 3.0312 -8.8984 Q4 -9.5 5.25 -9.5 Q6.2344 -9.5 6.9297 -9.1875 Q7.625 -8.875 8.0391 -8.3359 Q8.4531 -7.7969 8.6875 -6.9688 Q8.9219 -6.1406 8.9531 -4.8125 L2.7969 -4.8125 L2.7969 -4.6406 Q2.7969 -3.4844 3.0547 -2.7031 Q3.3125 -1.9219 3.9062 -1.4766 Q4.5 -1.0312 5.4375 -1.0312 Q6.2344 -1.0312 6.875 -1.3281 Q7.5156 -1.625 8.1562 -2.2969 L8.75 -1.6562 ZM7.1094 -5.625 Q7.0469 -6.6875 6.8438 -7.3516 Q6.6406 -8.0156 6.2344 -8.375 Q5.8281 -8.7344 5.1562 -8.7344 Q4.1562 -8.7344 3.5547 -7.9297 Q2.9531 -7.125 2.8438 -5.625 L7.1094 -5.625 ZM20.3125 4.2031 L16.3281 4.2031 L16.3281 3.7188 Q16.7969 3.625 17.0078 3.5078 Q17.2188 3.3906 17.3281 3.2109 Q17.4375 3.0312 17.4844 2.7188 Q17.5312 2.4062 17.5312 1.7656 L17.5312 -1.6094 Q17 -1 16.5469 -0.6484 Q16.0938 -0.2969 15.5391 -0.0703 Q14.9844 0.1562 14.3594 0.1562 Q12.75 0.1562 11.8828 -1.0469 Q11.0156 -2.25 11.0156 -4.5469 Q11.0156 -6.1562 11.5781 -7.2812 Q12.1406 -8.4062 13.1484 -8.9531 Q14.1562 -9.5 15.4688 -9.5 Q16.1562 -9.5 16.7188 -9.3594 Q17.2812 -9.2188 17.8594 -8.9062 L18.5469 -9.5 L19.2031 -9.3438 L19.2031 1.7656 Q19.2031 2.3438 19.25 2.6797 Q19.2969 3.0156 19.4062 3.2109 Q19.5156 3.4062 19.7422 3.5156 Q19.9688 3.625 20.3125 3.7188 L20.3125 4.2031 ZM17.5312 -5.8281 Q17.5312 -6.7344 17.4141 -7.2266 Q17.2969 -7.7188 17.0156 -8.0703 Q16.7344 -8.4219 16.3516 -8.5703 Q15.9688 -8.7188 15.4531 -8.7188 Q14.1875 -8.7188 13.5234 -7.7031 Q12.8594 -6.6875 12.8594 -4.8438 Q12.8594 -2.9688 13.3984 -1.9922 Q13.9375 -1.0156 15.0156 -1.0156 Q15.4375 -1.0156 15.7188 -1.0859 Q16 -1.1562 16.2812 -1.3281 Q16.5625 -1.5 16.8516 -1.7812 Q17.1406 -2.0625 17.2656 -2.2891 Q17.3906 -2.5156 17.4609 -2.8203 Q17.5312 -3.125 17.5312 -3.6094 L17.5312 -5.8281 ZM21.7188 -9.3438 L24.5 -9.3438 L24.5 -4.3594 Q24.5 -3.2188 24.5859 -2.625 Q24.6719 -2.0312 24.8516 -1.7266 Q25.0312 -1.4219 25.3516 -1.2188 Q25.6719 -1.0156 26.2344 -1.0156 Q26.6094 -1.0156 26.9531 -1.1641 Q27.2969 -1.3125 27.7109 -1.6797 Q28.125 -2.0469 28.3047 -2.4062 Q28.4844 -2.7656 28.4844 -3.25 L28.4844 -6.9062 Q28.4844 -7.4688 28.4609 -7.75 Q28.4375 -8.0312 28.3672 -8.2031 Q28.2969 -8.375 28.2031 -8.4766 Q28.1094 -8.5781 27.9375 -8.6719 Q27.7656 -8.7656 27.3906 -8.8594 L27.3906 -9.3438 L30.1719 -9.3438 L30.1719 -2.6719 Q30.1719 -1.9219 30.2031 -1.5859 Q30.2344 -1.25 30.3281 -1.0547 Q30.4219 -0.8594 30.625 -0.7344 Q30.8281 -0.6094 31.3594 -0.5156 L31.3594 0 L29.125 0.0938 L28.5312 0.0938 L28.5938 -1.5 L28.4375 -1.5469 Q27.625 -0.6719 26.8906 -0.2578 Q26.1562 0.1562 25.4219 0.1562 Q24.5312 0.1562 23.9531 -0.1953 Q23.375 -0.5469 23.0938 -1.2422 Q22.8125 -1.9375 22.8125 -3.2188 L22.8125 -6.9062 Q22.8125 -7.7188 22.75 -8.0312 Q22.6875 -8.3438 22.5 -8.5234 Q22.3125 -8.7031 21.7188 -8.8594 L21.7188 -9.3438 ZM35.7344 -13.1719 L35.7344 -11.2656 L33.9375 -11.2656 L33.9375 -13.1719 L35.7344 -13.1719 ZM32.9531 -0.4844 Q33.3281 -0.5938 33.4922 -0.6797 Q33.6562 -0.7656 33.7656 -0.9219 Q33.875 -1.0781 33.9375 -1.4062 Q34 -1.7344 34 -2.4062 L34 -6.6719 Q34 -7.2969 33.9844 -7.6797 Q33.9688 -8.0625 33.8516 -8.2891 Q33.7344 -8.5156 33.4922 -8.625 Q33.25 -8.7344 32.8125 -8.8125 L32.8125 -9.3438 L35.0938 -9.4219 L35.6875 -9.4219 L35.6875 -2.4375 Q35.6875 -1.6094 35.7656 -1.2812 Q35.8438 -0.9531 36.0625 -0.7812 Q36.2812 -0.6094 36.7812 -0.4844 L36.7812 0 L32.9531 0 L32.9531 -0.4844 ZM42.1719 -9.3438 L42.1719 -8.8594 Q41.7188 -8.75 41.5312 -8.6562 Q41.3438 -8.5625 41.2578 -8.4062 Q41.1719 -8.25 41.1719 -7.9844 Q41.1719 -7.7188 41.2344 -7.4297 Q41.2969 -7.1406 41.4219 -6.7656 L43.125 -1.8125 L45.125 -6.5469 Q45.3125 -7.0156 45.3906 -7.3203 Q45.4688 -7.625 45.4688 -7.8906 Q45.4688 -8.2969 45.25 -8.5156 Q45.0312 -8.7344 44.4531 -8.8594 L44.4531 -9.3438 L48.0938 -9.3438 L48.0938 -8.8594 Q47.7188 -8.7812 47.5156 -8.6172 Q47.3125 -8.4531 47.1016 -8.1094 Q46.8906 -7.7656 46.6094 -7.1406 L43.3281 0.0938 L42.1719 0.0938 L39.5312 -7.2031 Q39.25 -7.9531 39.0859 -8.2266 Q38.9219 -8.5 38.7344 -8.6406 Q38.5469 -8.7812 38.1875 -8.8594 L38.1875 -9.3438 L42.1719 -9.3438 ZM54.5938 -1.3906 L54.4531 -1.4375 Q53.5938 -0.5625 52.8516 -0.2031 Q52.1094 0.1562 51.2656 0.1562 Q50.5156 0.1562 49.9531 -0.1328 Q49.3906 -0.4219 49.0859 -0.9453 Q48.7812 -1.4688 48.7812 -2.1562 Q48.7812 -3.5781 50.1953 -4.3516 Q51.6094 -5.125 54.4219 -5.25 L54.4219 -5.8906 Q54.4219 -6.9062 54.2266 -7.4922 Q54.0312 -8.0781 53.6172 -8.3516 Q53.2031 -8.625 52.5 -8.625 Q51.7344 -8.625 51.2656 -8.2266 Q50.7969 -7.8281 50.5625 -7.0156 L49.2969 -7.0156 L49.2969 -8.2969 Q50.2344 -8.7812 50.8594 -9.0078 Q51.4844 -9.2344 52.1094 -9.3672 Q52.7344 -9.5 53.375 -9.5 Q54.3438 -9.5 54.9297 -9.1953 Q55.5156 -8.8906 55.8047 -8.2578 Q56.0938 -7.625 56.0938 -6.3438 L56.0938 -2.9375 Q56.0938 -2.2188 56.1016 -1.9219 Q56.1094 -1.625 56.1641 -1.3672 Q56.2188 -1.1094 56.3125 -0.9609 Q56.4062 -0.8125 56.6016 -0.7031 Q56.7969 -0.5938 57.2188 -0.4844 L57.2188 0 L54.5469 0 L54.5938 -1.3906 ZM54.4219 -4.4531 Q52.4375 -4.4375 51.4531 -3.9297 Q50.4688 -3.4219 50.4688 -2.3906 Q50.4688 -1.8438 50.6953 -1.5156 Q50.9219 -1.1875 51.2656 -1.0703 Q51.6094 -0.9531 52.0781 -0.9531 Q52.7344 -0.9531 53.2812 -1.2734 Q53.8281 -1.5938 54.125 -2.0938 Q54.4219 -2.5938 54.4219 -3.0781 L54.4219 -4.4531 ZM61.5625 -2.4375 Q61.5625 -1.6094 61.6406 -1.2812 Q61.7188 -0.9531 61.9375 -0.7812 Q62.1562 -0.6094 62.6562 -0.4844 L62.6562 0 L58.7656 0 L58.7656 -0.4844 Q59.2656 -0.6094 59.4531 -0.7422 Q59.6406 -0.875 59.7266 -1.0703 Q59.8125 -1.2656 59.8438 -1.5938 Q59.875 -1.9219 59.875 -2.4375 L59.875 -10.6094 Q59.875 -11.5469 59.8594 -11.9219 Q59.8438 -12.2969 59.7812 -12.5547 Q59.7188 -12.8125 59.6094 -12.9609 Q59.5 -13.1094 59.3047 -13.1953 Q59.1094 -13.2812 58.6094 -13.375 L58.6094 -13.875 L60.9688 -13.9688 L61.5625 -13.9688 L61.5625 -2.4375 ZM71.75 -1.6562 Q71.125 -1 70.6016 -0.6328 Q70.0781 -0.2656 69.4531 -0.0547 Q68.8281 0.1562 68.0781 0.1562 Q66.0625 0.1562 65.0391 -1.0469 Q64.0156 -2.25 64.0156 -4.6094 Q64.0156 -6.0625 64.5391 -7.1797 Q65.0625 -8.2969 66.0312 -8.8984 Q67 -9.5 68.25 -9.5 Q69.2344 -9.5 69.9297 -9.1875 Q70.625 -8.875 71.0391 -8.3359 Q71.4531 -7.7969 71.6875 -6.9688 Q71.9219 -6.1406 71.9531 -4.8125 L65.7969 -4.8125 L65.7969 -4.6406 Q65.7969 -3.4844 66.0547 -2.7031 Q66.3125 -1.9219 66.9062 -1.4766 Q67.5 -1.0312 68.4375 -1.0312 Q69.2344 -1.0312 69.875 -1.3281 Q70.5156 -1.625 71.1562 -2.2969 L71.75 -1.6562 ZM70.1094 -5.625 Q70.0469 -6.6875 69.8438 -7.3516 Q69.6406 -8.0156 69.2344 -8.375 Q68.8281 -8.7344 68.1562 -8.7344 Q67.1562 -8.7344 66.5547 -7.9297 Q65.9531 -7.125 65.8438 -5.625 L70.1094 -5.625 ZM83.4531 0 L79.6094 0 L79.6094 -0.4844 Q80 -0.5938 80.1641 -0.6797 Q80.3281 -0.7656 80.4375 -0.9219 Q80.5469 -1.0781 80.6094 -1.4062 Q80.6719 -1.7344 80.6719 -2.4062 L80.6719 -4.9688 Q80.6719 -5.6406 80.6328 -6.2031 Q80.5938 -6.7656 80.5 -7.1172 Q80.4062 -7.4688 80.2812 -7.6719 Q80.1562 -7.875 79.9688 -8.0156 Q79.7812 -8.1562 79.5469 -8.2422 Q79.3125 -8.3281 78.9375 -8.3281 Q78.5625 -8.3281 78.2188 -8.1719 Q77.875 -8.0156 77.4609 -7.6484 Q77.0469 -7.2812 76.8672 -6.9141 Q76.6875 -6.5469 76.6875 -6.0781 L76.6875 -2.4375 Q76.6875 -1.6094 76.7656 -1.2812 Q76.8438 -0.9531 77.0625 -0.7812 Q77.2812 -0.6094 77.7812 -0.4844 L77.7812 0 L73.9531 0 L73.9531 -0.4844 Q74.3281 -0.5938 74.4922 -0.6797 Q74.6562 -0.7656 74.7656 -0.9219 Q74.875 -1.0781 74.9375 -1.4062 Q75 -1.7344 75 -2.4062 L75 -6.6719 Q75 -7.2969 74.9844 -7.6797 Q74.9688 -8.0625 74.8516 -8.2891 Q74.7344 -8.5156 74.4922 -8.625 Q74.25 -8.7344 73.8125 -8.8125 L73.8125 -9.3438 L76.0938 -9.4219 L76.6875 -9.4219 L76.5781 -7.8281 L76.7188 -7.7969 Q77.4375 -8.5312 77.8828 -8.8438 Q78.3281 -9.1562 78.7812 -9.3281 Q79.2344 -9.5 79.75 -9.5 Q80.2812 -9.5 80.6953 -9.375 Q81.1094 -9.25 81.4219 -8.9922 Q81.7344 -8.7344 81.9453 -8.3594 Q82.1562 -7.9844 82.2578 -7.4609 Q82.3594 -6.9375 82.3594 -6.125 L82.3594 -2.4375 Q82.3594 -1.7656 82.3984 -1.4609 Q82.4375 -1.1562 82.5312 -0.9922 Q82.625 -0.8281 82.8125 -0.7188 Q83 -0.6094 83.4531 -0.4844 L83.4531 0 ZM84.3594 -8.8438 Q84.8438 -8.9219 85.1484 -9.1172 Q85.4531 -9.3125 85.625 -9.625 Q85.7969 -9.9375 85.8984 -10.3984 Q86 -10.8594 86.0938 -11.75 L87.4844 -11.75 L87.4844 -9.3438 L90.6406 -9.3438 L90.6406 -8.3438 L87.4844 -8.3438 L87.4844 -4 Q87.4844 -3.0625 87.5625 -2.5 Q87.6406 -1.9375 87.8594 -1.6172 Q88.0781 -1.2969 88.3516 -1.1641 Q88.625 -1.0312 89.0469 -1.0312 Q89.4375 -1.0312 89.7812 -1.1875 Q90.125 -1.3438 90.4531 -1.6562 L90.8906 -1.125 Q90.2031 -0.4531 89.5859 -0.1484 Q88.9688 0.1562 88.2969 0.1562 Q87.0312 0.1562 86.4219 -0.5938 Q85.8125 -1.3438 85.8125 -2.9375 L85.8125 -8.3438 L84.3594 -8.3438 L84.3594 -8.8438 ZM102.4844 -7.2031 L101.5469 -7.2031 Q101.3438 -7.7812 101.0469 -8.1172 Q100.75 -8.4531 100.3828 -8.5938 Q100.0156 -8.7344 99.4688 -8.7344 Q98.6875 -8.7344 98.2266 -8.3672 Q97.7656 -8 97.7656 -7.3594 Q97.7656 -6.9219 97.9531 -6.625 Q98.1406 -6.3281 98.5312 -6.0781 Q98.9219 -5.8281 99.9062 -5.4062 Q100.9062 -4.9688 101.4453 -4.6094 Q101.9844 -4.25 102.2891 -3.7734 Q102.5938 -3.2969 102.5938 -2.625 Q102.5938 -1.8594 102.3359 -1.3281 Q102.0781 -0.7969 101.5938 -0.4688 Q101.1094 -0.1406 100.4531 0.0078 Q99.7969 0.1562 99.0156 0.1562 Q98.1875 0.1562 97.4219 0.0312 Q96.6562 -0.0938 95.9219 -0.2812 L95.9219 -2.3281 L96.875 -2.3281 Q97.1406 -1.4219 97.6562 -1.0156 Q98.1719 -0.6094 99.0781 -0.6094 Q99.4375 -0.6094 99.7734 -0.6875 Q100.1094 -0.7656 100.375 -0.9375 Q100.6406 -1.1094 100.7969 -1.3984 Q100.9531 -1.6875 100.9531 -2.125 Q100.9531 -2.625 100.7578 -2.9375 Q100.5625 -3.25 100.1484 -3.5078 Q99.7344 -3.7656 98.7031 -4.2031 Q97.8125 -4.5781 97.2734 -4.9297 Q96.7344 -5.2812 96.4297 -5.7578 Q96.125 -6.2344 96.125 -6.8906 Q96.125 -7.7031 96.5625 -8.2891 Q97 -8.875 97.8203 -9.1875 Q98.6406 -9.5 99.7344 -9.5 Q100.375 -9.5 100.9766 -9.4375 Q101.5781 -9.375 102.4844 -9.1875 L102.4844 -7.2031 ZM104.3594 -8.8438 Q104.8438 -8.9219 105.1484 -9.1172 Q105.4531 -9.3125 105.625 -9.625 Q105.7969 -9.9375 105.8984 -10.3984 Q106 -10.8594 106.0938 -11.75 L107.4844 -11.75 L107.4844 -9.3438 L110.6406 -9.3438 L110.6406 -8.3438 L107.4844 -8.3438 L107.4844 -4 Q107.4844 -3.0625 107.5625 -2.5 Q107.6406 -1.9375 107.8594 -1.6172 Q108.0781 -1.2969 108.3516 -1.1641 Q108.625 -1.0312 109.0469 -1.0312 Q109.4375 -1.0312 109.7812 -1.1875 Q110.125 -1.3438 110.4531 -1.6562 L110.8906 -1.125 Q110.2031 -0.4531 109.5859 -0.1484 Q108.9688 0.1562 108.2969 0.1562 Q107.0312 0.1562 106.4219 -0.5938 Q105.8125 -1.3438 105.8125 -2.9375 L105.8125 -8.3438 L104.3594 -8.3438 L104.3594 -8.8438 ZM114.5781 -7.7188 L114.7188 -7.6875 Q115.2656 -8.3438 115.7188 -8.7188 Q116.1719 -9.0938 116.7031 -9.2969 Q117.2344 -9.5 117.9219 -9.5 Q118.4844 -9.5 118.9375 -9.4375 L118.9375 -7.2031 L117.8438 -7.2031 Q117.6094 -7.7188 117.3438 -7.9609 Q117.0781 -8.2031 116.6094 -8.2031 Q116.2656 -8.2031 115.9219 -8 Q115.5781 -7.7969 115.25 -7.4062 Q114.9219 -7.0156 114.8047 -6.6719 Q114.6875 -6.3281 114.6875 -5.8594 L114.6875 -2.4375 Q114.6875 -1.5469 114.7891 -1.2109 Q114.8906 -0.875 115.1406 -0.7188 Q115.3906 -0.5625 115.8906 -0.4844 L115.8906 0 L111.9531 0 L111.9531 -0.4844 Q112.3281 -0.5938 112.4922 -0.6797 Q112.6562 -0.7656 112.7734 -0.9219 Q112.8906 -1.0781 112.9453 -1.4062 Q113 -1.7344 113 -2.4062 L113 -6.6719 Q113 -7.2969 112.9844 -7.6797 Q112.9688 -8.0625 112.8516 -8.2891 Q112.7344 -8.5156 112.4922 -8.625 Q112.25 -8.7344 111.8125 -8.8125 L111.8125 -9.3281 L114.0938 -9.4219 L114.6875 -9.4219 L114.5781 -7.7188 ZM127.75 -1.6562 Q127.125 -1 126.6016 -0.6328 Q126.0781 -0.2656 125.4531 -0.0547 Q124.8281 0.1562 124.0781 0.1562 Q122.0625 0.1562 121.0391 -1.0469 Q120.0156 -2.25 120.0156 -4.6094 Q120.0156 -6.0625 120.5391 -7.1797 Q121.0625 -8.2969 122.0312 -8.8984 Q123 -9.5 124.25 -9.5 Q125.2344 -9.5 125.9297 -9.1875 Q126.625 -8.875 127.0391 -8.3359 Q127.4531 -7.7969 127.6875 -6.9688 Q127.9219 -6.1406 127.9531 -4.8125 L121.7969 -4.8125 L121.7969 -4.6406 Q121.7969 -3.4844 122.0547 -2.7031 Q122.3125 -1.9219 122.9062 -1.4766 Q123.5 -1.0312 124.4375 -1.0312 Q125.2344 -1.0312 125.875 -1.3281 Q126.5156 -1.625 127.1562 -2.2969 L127.75 -1.6562 ZM126.1094 -5.625 Q126.0469 -6.6875 125.8438 -7.3516 Q125.6406 -8.0156 125.2344 -8.375 Q124.8281 -8.7344 124.1562 -8.7344 Q123.1562 -8.7344 122.5547 -7.9297 Q121.9531 -7.125 121.8438 -5.625 L126.1094 -5.625 ZM136.4844 -7.2031 L135.5469 -7.2031 Q135.3438 -7.7812 135.0469 -8.1172 Q134.75 -8.4531 134.3828 -8.5938 Q134.0156 -8.7344 133.4688 -8.7344 Q132.6875 -8.7344 132.2266 -8.3672 Q131.7656 -8 131.7656 -7.3594 Q131.7656 -6.9219 131.9531 -6.625 Q132.1406 -6.3281 132.5312 -6.0781 Q132.9219 -5.8281 133.9062 -5.4062 Q134.9062 -4.9688 135.4453 -4.6094 Q135.9844 -4.25 136.2891 -3.7734 Q136.5938 -3.2969 136.5938 -2.625 Q136.5938 -1.8594 136.3359 -1.3281 Q136.0781 -0.7969 135.5938 -0.4688 Q135.1094 -0.1406 134.4531 0.0078 Q133.7969 0.1562 133.0156 0.1562 Q132.1875 0.1562 131.4219 0.0312 Q130.6562 -0.0938 129.9219 -0.2812 L129.9219 -2.3281 L130.875 -2.3281 Q131.1406 -1.4219 131.6562 -1.0156 Q132.1719 -0.6094 133.0781 -0.6094 Q133.4375 -0.6094 133.7734 -0.6875 Q134.1094 -0.7656 134.375 -0.9375 Q134.6406 -1.1094 134.7969 -1.3984 Q134.9531 -1.6875 134.9531 -2.125 Q134.9531 -2.625 134.7578 -2.9375 Q134.5625 -3.25 134.1484 -3.5078 Q133.7344 -3.7656 132.7031 -4.2031 Q131.8125 -4.5781 131.2734 -4.9297 Q130.7344 -5.2812 130.4297 -5.7578 Q130.125 -6.2344 130.125 -6.8906 Q130.125 -7.7031 130.5625 -8.2891 Q131 -8.875 131.8203 -9.1875 Q132.6406 -9.5 133.7344 -9.5 Q134.375 -9.5 134.9766 -9.4375 Q135.5781 -9.375 136.4844 -9.1875 L136.4844 -7.2031 ZM145.4844 -7.2031 L144.5469 -7.2031 Q144.3438 -7.7812 144.0469 -8.1172 Q143.75 -8.4531 143.3828 -8.5938 Q143.0156 -8.7344 142.4688 -8.7344 Q141.6875 -8.7344 141.2266 -8.3672 Q140.7656 -8 140.7656 -7.3594 Q140.7656 -6.9219 140.9531 -6.625 Q141.1406 -6.3281 141.5312 -6.0781 Q141.9219 -5.8281 142.9062 -5.4062 Q143.9062 -4.9688 144.4453 -4.6094 Q144.9844 -4.25 145.2891 -3.7734 Q145.5938 -3.2969 145.5938 -2.625 Q145.5938 -1.8594 145.3359 -1.3281 Q145.0781 -0.7969 144.5938 -0.4688 Q144.1094 -0.1406 143.4531 0.0078 Q142.7969 0.1562 142.0156 0.1562 Q141.1875 0.1562 140.4219 0.0312 Q139.6562 -0.0938 138.9219 -0.2812 L138.9219 -2.3281 L139.875 -2.3281 Q140.1406 -1.4219 140.6562 -1.0156 Q141.1719 -0.6094 142.0781 -0.6094 Q142.4375 -0.6094 142.7734 -0.6875 Q143.1094 -0.7656 143.375 -0.9375 Q143.6406 -1.1094 143.7969 -1.3984 Q143.9531 -1.6875 143.9531 -2.125 Q143.9531 -2.625 143.7578 -2.9375 Q143.5625 -3.25 143.1484 -3.5078 Q142.7344 -3.7656 141.7031 -4.2031 Q140.8125 -4.5781 140.2734 -4.9297 Q139.7344 -5.2812 139.4297 -5.7578 Q139.125 -6.2344 139.125 -6.8906 Q139.125 -7.7031 139.5625 -8.2891 Q140 -8.875 140.8203 -9.1875 Q141.6406 -9.5 142.7344 -9.5 Q143.375 -9.5 143.9766 -9.4375 Q144.5781 -9.375 145.4844 -9.1875 L145.4844 -7.2031 ZM156.9688 -8.3438 L154.6406 -8.3438 L154.6406 -2.4375 Q154.6406 -1.7812 154.7031 -1.4531 Q154.7656 -1.125 154.8828 -0.9531 Q155 -0.7812 155.2031 -0.6797 Q155.4062 -0.5781 155.8438 -0.4844 L155.8438 0 L151.8438 0 L151.8438 -0.4844 Q152.2812 -0.5938 152.4688 -0.7031 Q152.6562 -0.8125 152.7578 -0.9766 Q152.8594 -1.1406 152.9062 -1.4531 Q152.9531 -1.7656 152.9531 -2.4375 L152.9531 -8.3438 L151.7656 -8.3438 L151.7656 -8.8438 Q152.1406 -8.9062 152.2656 -8.9375 Q152.3906 -8.9688 152.5 -9.0391 Q152.6094 -9.1094 152.6953 -9.2344 Q152.7812 -9.3594 152.8438 -9.6094 Q152.9062 -9.8594 152.9375 -10.3125 Q153.0312 -11.375 153.3281 -12.0391 Q153.625 -12.7031 154.1953 -13.1719 Q154.7656 -13.6406 155.4141 -13.8359 Q156.0625 -14.0312 156.9531 -14.0312 Q157.7188 -14.0312 158.25 -13.9219 L158.25 -12.1562 L157.2969 -12.1562 Q157.1094 -12.7188 156.8594 -12.9609 Q156.6094 -13.2031 156.1562 -13.2031 Q155.8281 -13.2031 155.6094 -13.1172 Q155.3906 -13.0312 155.2109 -12.8438 Q155.0312 -12.6562 154.8984 -12.3438 Q154.7656 -12.0312 154.7031 -11.5703 Q154.6406 -11.1094 154.6406 -10.3594 L154.6406 -9.3438 L156.9688 -9.3438 L156.9688 -8.3438 ZM162.2031 0.1562 Q160.1719 0.1562 159.1016 -1.0391 Q158.0312 -2.2344 158.0312 -4.5781 Q158.0312 -6.1875 158.5938 -7.3047 Q159.1562 -8.4219 160.1328 -8.9609 Q161.1094 -9.5 162.3594 -9.5 Q164.4375 -9.5 165.5156 -8.2891 Q166.5938 -7.0781 166.5938 -4.7969 Q166.5938 -3.1719 166.0547 -2.0625 Q165.5156 -0.9531 164.5312 -0.3984 Q163.5469 0.1562 162.2031 0.1562 ZM159.875 -4.7812 Q159.875 -2.7812 160.5156 -1.6953 Q161.1562 -0.6094 162.3438 -0.6094 Q163 -0.6094 163.4609 -0.9297 Q163.9219 -1.25 164.2031 -1.7891 Q164.4844 -2.3281 164.6172 -3.0312 Q164.75 -3.7344 164.75 -4.5156 Q164.75 -5.9531 164.4297 -6.8984 Q164.1094 -7.8438 163.5625 -8.2891 Q163.0156 -8.7344 162.3125 -8.7344 Q161.125 -8.7344 160.5 -7.7109 Q159.875 -6.6875 159.875 -4.7812 ZM171.5781 -7.7188 L171.7188 -7.6875 Q172.2656 -8.3438 172.7188 -8.7188 Q173.1719 -9.0938 173.7031 -9.2969 Q174.2344 -9.5 174.9219 -9.5 Q175.4844 -9.5 175.9375 -9.4375 L175.9375 -7.2031 L174.8438 -7.2031 Q174.6094 -7.7188 174.3438 -7.9609 Q174.0781 -8.2031 173.6094 -8.2031 Q173.2656 -8.2031 172.9219 -8 Q172.5781 -7.7969 172.25 -7.4062 Q171.9219 -7.0156 171.8047 -6.6719 Q171.6875 -6.3281 171.6875 -5.8594 L171.6875 -2.4375 Q171.6875 -1.5469 171.7891 -1.2109 Q171.8906 -0.875 172.1406 -0.7188 Q172.3906 -0.5625 172.8906 -0.4844 L172.8906 0 L168.9531 0 L168.9531 -0.4844 Q169.3281 -0.5938 169.4922 -0.6797 Q169.6562 -0.7656 169.7734 -0.9219 Q169.8906 -1.0781 169.9453 -1.4062 Q170 -1.7344 170 -2.4062 L170 -6.6719 Q170 -7.2969 169.9844 -7.6797 Q169.9688 -8.0625 169.8516 -8.2891 Q169.7344 -8.5156 169.4922 -8.625 Q169.25 -8.7344 168.8125 -8.8125 L168.8125 -9.3281 L171.0938 -9.4219 L171.6875 -9.4219 L171.5781 -7.7188 ZM181.5469 -10.5625 L181.5469 -12.4219 Q182.6875 -12.9531 183.6719 -13.2188 Q184.6562 -13.4844 185.5781 -13.4844 Q186.6875 -13.4844 187.5156 -13.1406 Q188.3438 -12.7969 188.7812 -12.1641 Q189.2188 -11.5312 189.2188 -10.6406 Q189.2188 -9.8125 188.8906 -9.1797 Q188.5625 -8.5469 187.9609 -8.0781 Q187.3594 -7.6094 186.3906 -7.1562 L186.3906 -7.0781 Q187 -6.9688 187.5469 -6.7109 Q188.0938 -6.4531 188.5234 -6.0391 Q188.9531 -5.625 189.2109 -5.0547 Q189.4688 -4.4844 189.4688 -3.75 Q189.4688 -2.625 188.9766 -1.7422 Q188.4844 -0.8594 187.4688 -0.3516 Q186.4531 0.1562 185 0.1562 Q184.1562 0.1562 183.1875 -0.0312 Q182.2188 -0.2188 181.4062 -0.5312 L181.4062 -2.6094 L182.5781 -2.6094 Q182.9219 -1.5938 183.4844 -1.1328 Q184.0469 -0.6719 185.0156 -0.6719 Q186.2812 -0.6719 186.9297 -1.3672 Q187.5781 -2.0625 187.5781 -3.4219 Q187.5781 -4.8438 186.7188 -5.5938 Q185.8594 -6.3438 184.2031 -6.3438 L183.3281 -6.3438 L183.3281 -7.2031 Q184.6406 -7.2812 185.5469 -7.7109 Q186.4531 -8.1406 186.8906 -8.8203 Q187.3281 -9.5 187.3281 -10.3281 Q187.3281 -11.4219 186.75 -12.0078 Q186.1719 -12.5938 185.0625 -12.5938 Q184.1562 -12.5938 183.5781 -12.0938 Q183 -11.5938 182.7188 -10.5625 L181.5469 -10.5625 ZM196.5938 -4.3906 L192.0625 -4.3906 L192.0625 -5.9062 L196.5938 -5.9062 L196.5938 -4.3906 ZM199.1719 0 L199.1719 -0.4844 Q199.625 -0.5938 199.8203 -0.7031 Q200.0156 -0.8125 200.125 -0.9766 Q200.2344 -1.1406 200.2812 -1.4531 Q200.3281 -1.7656 200.3281 -2.4375 L200.3281 -10.8906 Q200.3281 -11.5781 200.2812 -11.8828 Q200.2344 -12.1875 200.1172 -12.3516 Q200 -12.5156 199.8125 -12.6172 Q199.625 -12.7188 199.1719 -12.8594 L199.1719 -13.3281 L203.4531 -13.3281 Q205.2969 -13.3281 206.4766 -12.9219 Q207.6562 -12.5156 208.4609 -11.7266 Q209.2656 -10.9375 209.6719 -9.7578 Q210.0781 -8.5781 210.0781 -6.9531 Q210.0781 -5.2969 209.6953 -4.0469 Q209.3125 -2.7969 208.5938 -1.9375 Q207.9688 -1.2031 207.0625 -0.7188 Q206.3125 -0.3281 205.3281 -0.1641 Q204.3438 0 202.7031 0 L199.1719 0 ZM202.1562 -0.9062 Q202.5469 -0.875 203.2969 -0.875 Q204.125 -0.875 204.7656 -1.0078 Q205.4062 -1.1406 205.9375 -1.4375 Q206.4688 -1.7344 206.8906 -2.2578 Q207.3125 -2.7812 207.5703 -3.4531 Q207.8281 -4.125 207.9531 -4.9609 Q208.0781 -5.7969 208.0781 -6.7812 Q208.0781 -8.7656 207.5078 -10.0391 Q206.9375 -11.3125 205.8984 -11.8984 Q204.8594 -12.4844 203.4062 -12.4844 Q202.75 -12.4844 202.1562 -12.4375 L202.1562 -0.9062 ZM223.2188 -9.1094 L223.2188 -7.0781 L221.9844 -7.0781 Q221.8125 -7.7031 221.5703 -8.0703 Q221.3281 -8.4375 221.0078 -8.5859 Q220.6875 -8.7344 220.2031 -8.7344 Q219.5156 -8.7344 218.9922 -8.2969 Q218.4688 -7.8594 218.1641 -6.9609 Q217.8594 -6.0625 217.8594 -4.75 Q217.8594 -3.9219 217.9766 -3.2344 Q218.0938 -2.5469 218.375 -2.0625 Q218.6562 -1.5781 219.125 -1.3047 Q219.5938 -1.0312 220.2812 -1.0312 Q220.9531 -1.0312 221.5391 -1.2891 Q222.125 -1.5469 222.75 -2.2188 L223.2969 -1.5781 Q222.7969 -1.0312 222.4219 -0.7344 Q222.0469 -0.4375 221.6094 -0.2344 Q221.1719 -0.0312 220.75 0.0625 Q220.3281 0.1562 219.8281 0.1562 Q217.9844 0.1562 217.0078 -1.0703 Q216.0312 -2.2969 216.0312 -4.6094 Q216.0312 -6.0625 216.5781 -7.1797 Q217.125 -8.2969 218.1094 -8.8984 Q219.0938 -9.5 220.375 -9.5 Q221.1875 -9.5 221.8672 -9.4062 Q222.5469 -9.3125 223.2188 -9.1094 ZM229.2031 0.1562 Q227.1719 0.1562 226.1016 -1.0391 Q225.0312 -2.2344 225.0312 -4.5781 Q225.0312 -6.1875 225.5938 -7.3047 Q226.1562 -8.4219 227.1328 -8.9609 Q228.1094 -9.5 229.3594 -9.5 Q231.4375 -9.5 232.5156 -8.2891 Q233.5938 -7.0781 233.5938 -4.7969 Q233.5938 -3.1719 233.0547 -2.0625 Q232.5156 -0.9531 231.5312 -0.3984 Q230.5469 0.1562 229.2031 0.1562 ZM226.875 -4.7812 Q226.875 -2.7812 227.5156 -1.6953 Q228.1562 -0.6094 229.3438 -0.6094 Q230 -0.6094 230.4609 -0.9297 Q230.9219 -1.25 231.2031 -1.7891 Q231.4844 -2.3281 231.6172 -3.0312 Q231.75 -3.7344 231.75 -4.5156 Q231.75 -5.9531 231.4297 -6.8984 Q231.1094 -7.8438 230.5625 -8.2891 Q230.0156 -8.7344 229.3125 -8.7344 Q228.125 -8.7344 227.5 -7.7109 Q226.875 -6.6875 226.875 -4.7812 ZM245.4531 0 L241.6094 0 L241.6094 -0.4844 Q242 -0.5938 242.1641 -0.6797 Q242.3281 -0.7656 242.4375 -0.9219 Q242.5469 -1.0781 242.6094 -1.4062 Q242.6719 -1.7344 242.6719 -2.4062 L242.6719 -4.9688 Q242.6719 -5.6406 242.6328 -6.2031 Q242.5938 -6.7656 242.5 -7.1172 Q242.4062 -7.4688 242.2812 -7.6719 Q242.1562 -7.875 241.9688 -8.0156 Q241.7812 -8.1562 241.5469 -8.2422 Q241.3125 -8.3281 240.9375 -8.3281 Q240.5625 -8.3281 240.2188 -8.1719 Q239.875 -8.0156 239.4609 -7.6484 Q239.0469 -7.2812 238.8672 -6.9141 Q238.6875 -6.5469 238.6875 -6.0781 L238.6875 -2.4375 Q238.6875 -1.6094 238.7656 -1.2812 Q238.8438 -0.9531 239.0625 -0.7812 Q239.2812 -0.6094 239.7812 -0.4844 L239.7812 0 L235.9531 0 L235.9531 -0.4844 Q236.3281 -0.5938 236.4922 -0.6797 Q236.6562 -0.7656 236.7656 -0.9219 Q236.875 -1.0781 236.9375 -1.4062 Q237 -1.7344 237 -2.4062 L237 -6.6719 Q237 -7.2969 236.9844 -7.6797 Q236.9688 -8.0625 236.8516 -8.2891 Q236.7344 -8.5156 236.4922 -8.625 Q236.25 -8.7344 235.8125 -8.8125 L235.8125 -9.3438 L238.0938 -9.4219 L238.6875 -9.4219 L238.5781 -7.8281 L238.7188 -7.7969 Q239.4375 -8.5312 239.8828 -8.8438 Q240.3281 -9.1562 240.7812 -9.3281 Q241.2344 -9.5 241.75 -9.5 Q242.2812 -9.5 242.6953 -9.375 Q243.1094 -9.25 243.4219 -8.9922 Q243.7344 -8.7344 243.9453 -8.3594 Q244.1562 -7.9844 244.2578 -7.4609 Q244.3594 -6.9375 244.3594 -6.125 L244.3594 -2.4375 Q244.3594 -1.7656 244.3984 -1.4609 Q244.4375 -1.1562 244.5312 -0.9922 Q244.625 -0.8281 244.8125 -0.7188 Q245 -0.6094 245.4531 -0.4844 L245.4531 0 ZM246.3594 -8.8438 Q246.8438 -8.9219 247.1484 -9.1172 Q247.4531 -9.3125 247.625 -9.625 Q247.7969 -9.9375 247.8984 -10.3984 Q248 -10.8594 248.0938 -11.75 L249.4844 -11.75 L249.4844 -9.3438 L252.6406 -9.3438 L252.6406 -8.3438 L249.4844 -8.3438 L249.4844 -4 Q249.4844 -3.0625 249.5625 -2.5 Q249.6406 -1.9375 249.8594 -1.6172 Q250.0781 -1.2969 250.3516 -1.1641 Q250.625 -1.0312 251.0469 -1.0312 Q251.4375 -1.0312 251.7812 -1.1875 Q252.125 -1.3438 252.4531 -1.6562 L252.8906 -1.125 Q252.2031 -0.4531 251.5859 -0.1484 Q250.9688 0.1562 250.2969 0.1562 Q249.0312 0.1562 248.4219 -0.5938 Q247.8125 -1.3438 247.8125 -2.9375 L247.8125 -8.3438 L246.3594 -8.3438 L246.3594 -8.8438 ZM259.5938 -1.3906 L259.4531 -1.4375 Q258.5938 -0.5625 257.8516 -0.2031 Q257.1094 0.1562 256.2656 0.1562 Q255.5156 0.1562 254.9531 -0.1328 Q254.3906 -0.4219 254.0859 -0.9453 Q253.7812 -1.4688 253.7812 -2.1562 Q253.7812 -3.5781 255.1953 -4.3516 Q256.6094 -5.125 259.4219 -5.25 L259.4219 -5.8906 Q259.4219 -6.9062 259.2266 -7.4922 Q259.0312 -8.0781 258.6172 -8.3516 Q258.2031 -8.625 257.5 -8.625 Q256.7344 -8.625 256.2656 -8.2266 Q255.7969 -7.8281 255.5625 -7.0156 L254.2969 -7.0156 L254.2969 -8.2969 Q255.2344 -8.7812 255.8594 -9.0078 Q256.4844 -9.2344 257.1094 -9.3672 Q257.7344 -9.5 258.375 -9.5 Q259.3438 -9.5 259.9297 -9.1953 Q260.5156 -8.8906 260.8047 -8.2578 Q261.0938 -7.625 261.0938 -6.3438 L261.0938 -2.9375 Q261.0938 -2.2188 261.1016 -1.9219 Q261.1094 -1.625 261.1641 -1.3672 Q261.2188 -1.1094 261.3125 -0.9609 Q261.4062 -0.8125 261.6016 -0.7031 Q261.7969 -0.5938 262.2188 -0.4844 L262.2188 0 L259.5469 0 L259.5938 -1.3906 ZM259.4219 -4.4531 Q257.4375 -4.4375 256.4531 -3.9297 Q255.4688 -3.4219 255.4688 -2.3906 Q255.4688 -1.8438 255.6953 -1.5156 Q255.9219 -1.1875 256.2656 -1.0703 Q256.6094 -0.9531 257.0781 -0.9531 Q257.7344 -0.9531 258.2812 -1.2734 Q258.8281 -1.5938 259.125 -2.0938 Q259.4219 -2.5938 259.4219 -3.0781 L259.4219 -4.4531 ZM271.2188 -9.1094 L271.2188 -7.0781 L269.9844 -7.0781 Q269.8125 -7.7031 269.5703 -8.0703 Q269.3281 -8.4375 269.0078 -8.5859 Q268.6875 -8.7344 268.2031 -8.7344 Q267.5156 -8.7344 266.9922 -8.2969 Q266.4688 -7.8594 266.1641 -6.9609 Q265.8594 -6.0625 265.8594 -4.75 Q265.8594 -3.9219 265.9766 -3.2344 Q266.0938 -2.5469 266.375 -2.0625 Q266.6562 -1.5781 267.125 -1.3047 Q267.5938 -1.0312 268.2812 -1.0312 Q268.9531 -1.0312 269.5391 -1.2891 Q270.125 -1.5469 270.75 -2.2188 L271.2969 -1.5781 Q270.7969 -1.0312 270.4219 -0.7344 Q270.0469 -0.4375 269.6094 -0.2344 Q269.1719 -0.0312 268.75 0.0625 Q268.3281 0.1562 267.8281 0.1562 Q265.9844 0.1562 265.0078 -1.0703 Q264.0312 -2.2969 264.0312 -4.6094 Q264.0312 -6.0625 264.5781 -7.1797 Q265.125 -8.2969 266.1094 -8.8984 Q267.0938 -9.5 268.375 -9.5 Q269.1875 -9.5 269.8672 -9.4062 Q270.5469 -9.3125 271.2188 -9.1094 ZM272.3594 -8.8438 Q272.8438 -8.9219 273.1484 -9.1172 Q273.4531 -9.3125 273.625 -9.625 Q273.7969 -9.9375 273.8984 -10.3984 Q274 -10.8594 274.0938 -11.75 L275.4844 -11.75 L275.4844 -9.3438 L278.6406 -9.3438 L278.6406 -8.3438 L275.4844 -8.3438 L275.4844 -4 Q275.4844 -3.0625 275.5625 -2.5 Q275.6406 -1.9375 275.8594 -1.6172 Q276.0781 -1.2969 276.3516 -1.1641 Q276.625 -1.0312 277.0469 -1.0312 Q277.4375 -1.0312 277.7812 -1.1875 Q278.125 -1.3438 278.4531 -1.6562 L278.8906 -1.125 Q278.2031 -0.4531 277.5859 -0.1484 Q276.9688 0.1562 276.2969 0.1562 Q275.0312 0.1562 274.4219 -0.5938 Q273.8125 -1.3438 273.8125 -2.9375 L273.8125 -8.3438 L272.3594 -8.3438 L272.3594 -8.8438 Z" stroke="none"/></g></g></svg>