<?xml version="1.0" encoding="UTF-8" standalone="no"?><svg xmlns="http://www.w3.org/2000/svg" xmlns:xlink="http://www.w3.org/1999/xlink" stroke-dasharray="none" shape-rendering="auto" font-family="'Dialog'" width="166.812600" text-rendering="auto" fill-opacity="1" contentScriptType="text/ecmascript" color-interpolation="auto" color-rendering="auto" preserveAspectRatio="xMidYMid meet" font-size="12" fill="black" stroke="black" image-rendering="auto" stroke-miterlimit="10" zoomAndPan="magnify" version="1.0" stroke-linecap="square" stroke-linejoin="miter" contentStyleType="text/css" font-style="normal" height="21" stroke-width="1" stroke-dashoffset="0" font-weight="normal" stroke-opacity="1" y="-6.000000"><!--Converted from MathML using JEuclid--><defs id="genericDefs"/><g><g text-rendering="optimizeLegibility" transform="translate(0,15)" color-rendering="optimizeQuality" color-interpolation="linearRGB" image-rendering="optimizeQuality"><path d="M8.1406 -8.8594 L9.0469 -9.5 L9.6719 -9.3438 L8.1719 -2.7188 Q8.0312 -2.125 7.9844 -1.8125 Q7.9375 -1.5 7.9375 -1.2969 Q7.9375 -0.8906 8.1641 -0.7109 Q8.3906 -0.5312 9.0312 -0.4844 L8.9375 0 L6.1406 0 L6.7656 -2.4531 L6.625 -2.4844 Q5.6875 -1.125 4.8516 -0.4922 Q4.0156 0.1406 3.0781 0.1406 Q2 0.1406 1.4141 -0.6641 Q0.8281 -1.4688 0.8281 -2.9375 Q0.8281 -3.875 1.0391 -4.8203 Q1.25 -5.7656 1.6875 -6.6094 Q2.125 -7.4531 2.7266 -8.0938 Q3.3281 -8.7344 4.125 -9.1172 Q4.9219 -9.5 5.8594 -9.5 Q6.4688 -9.5 7.0156 -9.3594 Q7.5625 -9.2188 8.1406 -8.8594 ZM7.2812 -5.9531 Q7.375 -6.3438 7.4062 -6.6406 Q7.4375 -6.9375 7.4375 -7.2812 Q7.4375 -8.0312 7.1094 -8.3828 Q6.7812 -8.7344 6.0312 -8.7344 Q5.625 -8.7344 5.2578 -8.6016 Q4.8906 -8.4688 4.5078 -8.1641 Q4.125 -7.8594 3.7734 -7.3594 Q3.4219 -6.8594 3.1406 -6.1484 Q2.8594 -5.4375 2.7031 -4.6172 Q2.5469 -3.7969 2.5469 -3.0312 Q2.5469 -2.0156 2.8281 -1.5078 Q3.1094 -1 3.7656 -1 Q4.0625 -1 4.3906 -1.1406 Q4.7188 -1.2812 5.1172 -1.6484 Q5.5156 -2.0156 6.0312 -2.7188 Q6.4844 -3.375 6.75 -4.0156 Q7.0156 -4.6562 7.2031 -5.5312 L7.2812 -5.9531 Z" stroke="none"/></g><g text-rendering="optimizeLegibility" transform="translate(10.4531,15)" color-rendering="optimizeQuality" color-interpolation="linearRGB" image-rendering="optimizeQuality"><path d="M1.2188 -7.0625 L1.2188 -8.4219 L9.8594 -8.4219 L9.8594 -7.0625 L1.2188 -7.0625 ZM1.2188 -3.0156 L1.2188 -4.3594 L9.8594 -4.3594 L9.8594 -3.0156 L1.2188 -3.0156 Z" stroke="none"/></g><g text-rendering="optimizeLegibility" transform="translate(22.5469,15)" color-rendering="optimizeQuality" color-interpolation="linearRGB" image-rendering="optimizeQuality"><path d="M7.2188 4.25 Q5.5625 4.25 4.5078 3.75 Q3.4531 3.25 2.8672 2.2344 Q2.2812 1.2188 2.0234 -0.4141 Q1.7656 -2.0469 1.7656 -4.8438 Q1.7656 -7.625 2.0234 -9.2656 Q2.2812 -10.9062 2.8672 -11.9453 Q3.4531 -12.9844 4.5078 -13.5 Q5.5625 -14.0156 7.2188 -14.0156 L7.2188 -13.2188 Q6.5312 -13.2188 6 -13.0938 Q5.4062 -12.9531 4.9844 -12.5625 Q4.5156 -12.1406 4.2344 -11.375 Q3.8906 -10.4688 3.7188 -8.9844 Q3.5469 -7.4062 3.5469 -4.9219 Q3.5469 -2.7188 3.6953 -1.1797 Q3.8438 0.3594 4.1875 1.3281 Q4.4531 2.1562 4.8594 2.6094 Q5.2188 3.0156 5.7188 3.2188 Q6.2969 3.4531 7.2188 3.4531 L7.2188 4.25 Z" stroke="none"/></g><g text-rendering="optimizeLegibility" transform="translate(32.1719,15)" color-rendering="optimizeQuality" color-interpolation="linearRGB" image-rendering="optimizeQuality"><path d="M9.2344 -8.8594 Q7.3438 -6.8438 5.2812 -4.8594 L6.1875 -2.7188 Q6.5469 -1.8594 6.7578 -1.4609 Q6.9688 -1.0625 7.1484 -0.875 Q7.3281 -0.6875 7.5 -0.6094 Q7.6719 -0.5312 8.0625 -0.4844 L7.9531 0 L5.5156 0 L4.1562 -3.9219 Q3.9219 -3.7188 3.5391 -3.3516 Q3.1562 -2.9844 2.7969 -2.5703 Q2.4375 -2.1562 2.2891 -1.9062 Q2.1406 -1.6562 2.0938 -1.4688 Q2.0469 -1.2812 2.0469 -1.0781 Q2.0469 -0.8281 2.1875 -0.6797 Q2.3281 -0.5312 2.6719 -0.4844 L2.5625 0 L-0.2188 0 L-0.4062 -0.4844 Q1.7344 -2.7812 3.8125 -4.7031 L2.875 -6.8906 Q2.5938 -7.5469 2.4219 -7.8984 Q2.25 -8.25 2.0859 -8.4375 Q1.9219 -8.625 1.7109 -8.7266 Q1.5 -8.8281 1.1094 -8.8594 L1.2188 -9.3438 L3.6562 -9.3438 L4.9531 -5.6562 Q5.4375 -6.0938 5.8672 -6.5625 Q6.2969 -7.0312 6.4688 -7.3047 Q6.6406 -7.5781 6.7109 -7.7969 Q6.7812 -8.0156 6.7812 -8.25 Q6.7812 -8.7812 6.1562 -8.8594 L6.2656 -9.3438 L9.0469 -9.3438 L9.2344 -8.8594 Z" stroke="none"/></g><g text-rendering="optimizeLegibility" transform="translate(41.4062,19.6641)" color-rendering="optimizeQuality" color-interpolation="linearRGB" image-rendering="optimizeQuality"><path d="M3.25 -5.1094 L3.4844 -5.1094 Q3.7656 -5.1094 4 -5.2109 Q4.2344 -5.3125 4.5547 -5.5625 Q4.875 -5.8125 5.5547 -6.4922 Q6.2344 -7.1719 6.5312 -7.5234 Q6.8281 -7.875 6.9609 -8.125 Q7.0938 -8.375 7.0938 -8.5938 Q7.0938 -8.7656 6.9531 -8.8672 Q6.8125 -8.9688 6.5625 -9 L6.6406 -9.3281 L9.5781 -9.3281 L9.5 -9 Q9.2188 -8.9531 8.875 -8.7109 Q8.5312 -8.4688 7.8281 -7.7656 L5.1719 -5.1875 L6.625 -1.6875 Q6.8125 -1.2344 6.9219 -1.0312 Q7.0312 -0.8281 7.1641 -0.6875 Q7.2969 -0.5469 7.4609 -0.4609 Q7.625 -0.375 7.8594 -0.3281 L7.7812 0 L5.1406 0 L5.2188 -0.3281 Q5.5781 -0.375 5.5781 -0.6562 Q5.5781 -0.75 5.5625 -0.8438 Q5.5469 -0.9375 5.4922 -1.125 Q5.4375 -1.3125 5.3281 -1.5781 L4.4375 -3.75 Q4.2812 -4.1406 4.1641 -4.2969 Q4.0469 -4.4531 3.9219 -4.5156 Q3.7969 -4.5781 3.5156 -4.5781 L3.1406 -4.5781 L2.5781 -1.9844 Q2.4844 -1.5781 2.4531 -1.3438 Q2.4219 -1.1094 2.4219 -0.9219 Q2.4219 -0.6094 2.5781 -0.4844 Q2.7344 -0.3594 3.0938 -0.3281 L3.0156 0 L0.2812 0 L0.3594 -0.3281 Q0.625 -0.375 0.75 -0.4688 Q0.875 -0.5625 0.9688 -0.7266 Q1.0625 -0.8906 1.1328 -1.125 Q1.2031 -1.3594 1.3594 -2.0312 L2.5156 -7.2969 Q2.5938 -7.6094 2.6328 -7.9062 Q2.6719 -8.2031 2.6719 -8.4062 Q2.6719 -8.7188 2.5078 -8.8438 Q2.3438 -8.9688 2 -9 L2.0781 -9.3281 L4.8125 -9.3281 L4.7344 -9 Q4.4844 -8.9375 4.3672 -8.875 Q4.25 -8.8125 4.1562 -8.6719 Q4.0625 -8.5312 3.9766 -8.2422 Q3.8906 -7.9531 3.7344 -7.2969 L3.25 -5.1094 Z" stroke="none"/></g><g text-rendering="optimizeLegibility" transform="translate(51.75,15)" color-rendering="optimizeQuality" color-interpolation="linearRGB" image-rendering="optimizeQuality"><path d="M1.2344 -5.0469 L1.2344 -6.3906 L9.8281 -6.3906 L9.8281 -5.0469 L1.2344 -5.0469 Z" stroke="none"/></g><g text-rendering="optimizeLegibility" transform="translate(63.9844,15)" color-rendering="optimizeQuality" color-interpolation="linearRGB" image-rendering="optimizeQuality"><path d="M9.2344 -8.8594 Q7.3438 -6.8438 5.2812 -4.8594 L6.1875 -2.7188 Q6.5469 -1.8594 6.7578 -1.4609 Q6.9688 -1.0625 7.1484 -0.875 Q7.3281 -0.6875 7.5 -0.6094 Q7.6719 -0.5312 8.0625 -0.4844 L7.9531 0 L5.5156 0 L4.1562 -3.9219 Q3.9219 -3.7188 3.5391 -3.3516 Q3.1562 -2.9844 2.7969 -2.5703 Q2.4375 -2.1562 2.2891 -1.9062 Q2.1406 -1.6562 2.0938 -1.4688 Q2.0469 -1.2812 2.0469 -1.0781 Q2.0469 -0.8281 2.1875 -0.6797 Q2.3281 -0.5312 2.6719 -0.4844 L2.5625 0 L-0.2188 0 L-0.4062 -0.4844 Q1.7344 -2.7812 3.8125 -4.7031 L2.875 -6.8906 Q2.5938 -7.5469 2.4219 -7.8984 Q2.25 -8.25 2.0859 -8.4375 Q1.9219 -8.625 1.7109 -8.7266 Q1.5 -8.8281 1.1094 -8.8594 L1.2188 -9.3438 L3.6562 -9.3438 L4.9531 -5.6562 Q5.4375 -6.0938 5.8672 -6.5625 Q6.2969 -7.0312 6.4688 -7.3047 Q6.6406 -7.5781 6.7109 -7.7969 Q6.7812 -8.0156 6.7812 -8.25 Q6.7812 -8.7812 6.1562 -8.8594 L6.2656 -9.3438 L9.0469 -9.3438 L9.2344 -8.8594 Z" stroke="none"/></g><g text-rendering="optimizeLegibility" transform="translate(74.7656,18.3438)" color-rendering="optimizeQuality" color-interpolation="linearRGB" image-rendering="optimizeQuality"><path d="M2.0625 -0.2969 Q1.8281 0.7656 1.4609 1.3984 Q1.0938 2.0312 0.5156 2.3359 Q-0.0625 2.6406 -0.8906 2.6406 Q-1.0781 2.6406 -1.2578 2.625 Q-1.4375 2.6094 -1.5469 2.5781 L-1.375 1.9219 Q-1.2656 1.9531 -1.125 1.9609 Q-0.9844 1.9688 -0.8438 1.9688 Q-0.4531 1.9688 -0.1641 1.7891 Q0.125 1.6094 0.3672 1.1562 Q0.6094 0.7031 0.7812 -0.0938 L2.375 -7.2969 Q2.4531 -7.6094 2.4922 -7.9062 Q2.5312 -8.2031 2.5312 -8.4062 Q2.5312 -8.7188 2.3672 -8.8438 Q2.2031 -8.9688 1.8594 -9 L1.9375 -9.3281 L4.6719 -9.3281 L4.5938 -9 Q4.3281 -8.9375 4.2188 -8.875 Q4.1094 -8.8125 4.0156 -8.6719 Q3.9219 -8.5312 3.8281 -8.2422 Q3.7344 -7.9531 3.5938 -7.2969 L2.0625 -0.2969 Z" stroke="none"/></g><g text-rendering="optimizeLegibility" transform="translate(81.0156,15)" color-rendering="optimizeQuality" color-interpolation="linearRGB" image-rendering="optimizeQuality"><path d="M0.4219 -14.0156 Q2.0781 -14.0156 3.1328 -13.5156 Q4.1875 -13.0156 4.7734 -12 Q5.3594 -10.9844 5.6172 -9.3516 Q5.875 -7.7188 5.875 -4.9219 Q5.875 -2.1562 5.6172 -0.5078 Q5.3594 1.1406 4.7734 2.1797 Q4.1875 3.2188 3.1328 3.7344 Q2.0781 4.25 0.4219 4.25 L0.4219 3.4531 Q1.1094 3.4531 1.625 3.3281 Q2.2344 3.1875 2.6406 2.7969 Q3.1094 2.375 3.4062 1.6094 Q3.75 0.7031 3.9219 -0.7812 Q4.0938 -2.3594 4.0938 -4.8438 Q4.0938 -7.0469 3.9453 -8.5859 Q3.7969 -10.125 3.4531 -11.0938 Q3.1875 -11.9219 2.7812 -12.375 Q2.4062 -12.7812 1.9219 -12.9844 Q1.3438 -13.2188 0.4219 -13.2188 L0.4219 -14.0156 Z" stroke="none"/></g><g text-rendering="optimizeLegibility" transform="translate(89.6719,15)" color-rendering="optimizeQuality" color-interpolation="linearRGB" image-rendering="optimizeQuality"><path d="M1.2188 -7.0625 L1.2188 -8.4219 L9.8594 -8.4219 L9.8594 -7.0625 L1.2188 -7.0625 ZM1.2188 -3.0156 L1.2188 -4.3594 L9.8594 -4.3594 L9.8594 -3.0156 L1.2188 -3.0156 Z" stroke="none"/></g><g text-rendering="optimizeLegibility" transform="translate(101.7656,15)" color-rendering="optimizeQuality" color-interpolation="linearRGB" image-rendering="optimizeQuality"><path d="M7.2188 4.25 Q5.5625 4.25 4.5078 3.75 Q3.4531 3.25 2.8672 2.2344 Q2.2812 1.2188 2.0234 -0.4141 Q1.7656 -2.0469 1.7656 -4.8438 Q1.7656 -7.625 2.0234 -9.2656 Q2.2812 -10.9062 2.8672 -11.9453 Q3.4531 -12.9844 4.5078 -13.5 Q5.5625 -14.0156 7.2188 -14.0156 L7.2188 -13.2188 Q6.5312 -13.2188 6 -13.0938 Q5.4062 -12.9531 4.9844 -12.5625 Q4.5156 -12.1406 4.2344 -11.375 Q3.8906 -10.4688 3.7188 -8.9844 Q3.5469 -7.4062 3.5469 -4.9219 Q3.5469 -2.7188 3.6953 -1.1797 Q3.8438 0.3594 4.1875 1.3281 Q4.4531 2.1562 4.8594 2.6094 Q5.2188 3.0156 5.7188 3.2188 Q6.2969 3.4531 7.2188 3.4531 L7.2188 4.25 Z" stroke="none"/></g><g text-rendering="optimizeLegibility" transform="translate(111.3906,15)" color-rendering="optimizeQuality" color-interpolation="linearRGB" image-rendering="optimizeQuality"><path d="M9.2344 -8.8594 Q7.3438 -6.8438 5.2812 -4.8594 L6.1875 -2.7188 Q6.5469 -1.8594 6.7578 -1.4609 Q6.9688 -1.0625 7.1484 -0.875 Q7.3281 -0.6875 7.5 -0.6094 Q7.6719 -0.5312 8.0625 -0.4844 L7.9531 0 L5.5156 0 L4.1562 -3.9219 Q3.9219 -3.7188 3.5391 -3.3516 Q3.1562 -2.9844 2.7969 -2.5703 Q2.4375 -2.1562 2.2891 -1.9062 Q2.1406 -1.6562 2.0938 -1.4688 Q2.0469 -1.2812 2.0469 -1.0781 Q2.0469 -0.8281 2.1875 -0.6797 Q2.3281 -0.5312 2.6719 -0.4844 L2.5625 0 L-0.2188 0 L-0.4062 -0.4844 Q1.7344 -2.7812 3.8125 -4.7031 L2.875 -6.8906 Q2.5938 -7.5469 2.4219 -7.8984 Q2.25 -8.25 2.0859 -8.4375 Q1.9219 -8.625 1.7109 -8.7266 Q1.5 -8.8281 1.1094 -8.8594 L1.2188 -9.3438 L3.6562 -9.3438 L4.9531 -5.6562 Q5.4375 -6.0938 5.8672 -6.5625 Q6.2969 -7.0312 6.4688 -7.3047 Q6.6406 -7.5781 6.7109 -7.7969 Q6.7812 -8.0156 6.7812 -8.25 Q6.7812 -8.7812 6.1562 -8.8594 L6.2656 -9.3438 L9.0469 -9.3438 L9.2344 -8.8594 Z" stroke="none"/></g><g text-rendering="optimizeLegibility" transform="translate(122.1719,18.3438)" color-rendering="optimizeQuality" color-interpolation="linearRGB" image-rendering="optimizeQuality"><path d="M2.0625 -0.2969 Q1.8281 0.7656 1.4609 1.3984 Q1.0938 2.0312 0.5156 2.3359 Q-0.0625 2.6406 -0.8906 2.6406 Q-1.0781 2.6406 -1.2578 2.625 Q-1.4375 2.6094 -1.5469 2.5781 L-1.375 1.9219 Q-1.2656 1.9531 -1.125 1.9609 Q-0.9844 1.9688 -0.8438 1.9688 Q-0.4531 1.9688 -0.1641 1.7891 Q0.125 1.6094 0.3672 1.1562 Q0.6094 0.7031 0.7812 -0.0938 L2.375 -7.2969 Q2.4531 -7.6094 2.4922 -7.9062 Q2.5312 -8.2031 2.5312 -8.4062 Q2.5312 -8.7188 2.3672 -8.8438 Q2.2031 -8.9688 1.8594 -9 L1.9375 -9.3281 L4.6719 -9.3281 L4.5938 -9 Q4.3281 -8.9375 4.2188 -8.875 Q4.1094 -8.8125 4.0156 -8.6719 Q3.9219 -8.5312 3.8281 -8.2422 Q3.7344 -7.9531 3.5938 -7.2969 L2.0625 -0.2969 Z" stroke="none"/></g><g text-rendering="optimizeLegibility" transform="translate(127.6094,15)" color-rendering="optimizeQuality" color-interpolation="linearRGB" image-rendering="optimizeQuality"><path d="M1.2344 -5.0469 L1.2344 -6.3906 L9.8281 -6.3906 L9.8281 -5.0469 L1.2344 -5.0469 Z" stroke="none"/></g><g text-rendering="optimizeLegibility" transform="translate(139.8438,15)" color-rendering="optimizeQuality" color-interpolation="linearRGB" image-rendering="optimizeQuality"><path d="M9.2344 -8.8594 Q7.3438 -6.8438 5.2812 -4.8594 L6.1875 -2.7188 Q6.5469 -1.8594 6.7578 -1.4609 Q6.9688 -1.0625 7.1484 -0.875 Q7.3281 -0.6875 7.5 -0.6094 Q7.6719 -0.5312 8.0625 -0.4844 L7.9531 0 L5.5156 0 L4.1562 -3.9219 Q3.9219 -3.7188 3.5391 -3.3516 Q3.1562 -2.9844 2.7969 -2.5703 Q2.4375 -2.1562 2.2891 -1.9062 Q2.1406 -1.6562 2.0938 -1.4688 Q2.0469 -1.2812 2.0469 -1.0781 Q2.0469 -0.8281 2.1875 -0.6797 Q2.3281 -0.5312 2.6719 -0.4844 L2.5625 0 L-0.2188 0 L-0.4062 -0.4844 Q1.7344 -2.7812 3.8125 -4.7031 L2.875 -6.8906 Q2.5938 -7.5469 2.4219 -7.8984 Q2.25 -8.25 2.0859 -8.4375 Q1.9219 -8.625 1.7109 -8.7266 Q1.5 -8.8281 1.1094 -8.8594 L1.2188 -9.3438 L3.6562 -9.3438 L4.9531 -5.6562 Q5.4375 -6.0938 5.8672 -6.5625 Q6.2969 -7.0312 6.4688 -7.3047 Q6.6406 -7.5781 6.7109 -7.7969 Q6.7812 -8.0156 6.7812 -8.25 Q6.7812 -8.7812 6.1562 -8.8594 L6.2656 -9.3438 L9.0469 -9.3438 L9.2344 -8.8594 Z" stroke="none"/></g><g text-rendering="optimizeLegibility" transform="translate(149.0781,19.6641)" color-rendering="optimizeQuality" color-interpolation="linearRGB" image-rendering="optimizeQuality"><path d="M3.7969 0.1094 Q2.3281 0.1094 1.6016 -1.0547 Q0.875 -2.2188 0.875 -4.5781 Q0.875 -5.8438 1.1016 -6.7578 Q1.3281 -7.6719 1.7266 -8.2656 Q2.125 -8.8594 2.6875 -9.1484 Q3.25 -9.4375 3.9062 -9.4375 Q5.4062 -9.4375 6.1406 -8.2812 Q6.875 -7.125 6.875 -4.7969 Q6.875 -2.375 6.0938 -1.1328 Q5.3125 0.1094 3.7969 0.1094 ZM2.2188 -4.7812 Q2.2188 -2.5625 2.6328 -1.5156 Q3.0469 -0.4688 3.9062 -0.4688 Q4.7344 -0.4688 5.1328 -1.4531 Q5.5312 -2.4375 5.5312 -4.4844 Q5.5312 -6.0625 5.3281 -7.0391 Q5.125 -8.0156 4.7578 -8.4375 Q4.3906 -8.8594 3.875 -8.8594 Q3.4062 -8.8594 3.0859 -8.5781 Q2.7656 -8.2969 2.5703 -7.7734 Q2.375 -7.25 2.2969 -6.4922 Q2.2188 -5.7344 2.2188 -4.7812 Z" stroke="none"/></g><g text-rendering="optimizeLegibility" transform="translate(157.5312,15)" color-rendering="optimizeQuality" color-interpolation="linearRGB" image-rendering="optimizeQuality"><path d="M0.4219 -14.0156 Q2.0781 -14.0156 3.1328 -13.5156 Q4.1875 -13.0156 4.7734 -12 Q5.3594 -10.9844 5.6172 -9.3516 Q5.875 -7.7188 5.875 -4.9219 Q5.875 -2.1562 5.6172 -0.5078 Q5.3594 1.1406 4.7734 2.1797 Q4.1875 3.2188 3.1328 3.7344 Q2.0781 4.25 0.4219 4.25 L0.4219 3.4531 Q1.1094 3.4531 1.625 3.3281 Q2.2344 3.1875 2.6406 2.7969 Q3.1094 2.375 3.4062 1.6094 Q3.75 0.7031 3.9219 -0.7812 Q4.0938 -2.3594 4.0938 -4.8438 Q4.0938 -7.0469 3.9453 -8.5859 Q3.7969 -10.125 3.4531 -11.0938 Q3.1875 -11.9219 2.7812 -12.375 Q2.4062 -12.7812 1.9219 -12.9844 Q1.3438 -13.2188 0.4219 -13.2188 L0.4219 -14.0156 Z" stroke="none"/></g></g></svg>