<?xml version="1.0" encoding="UTF-8" standalone="no"?><svg xmlns="http://www.w3.org/2000/svg" xmlns:xlink="http://www.w3.org/1999/xlink" stroke-dasharray="none" shape-rendering="auto" font-family="'Dialog'" width="521.812600" text-rendering="auto" fill-opacity="1" contentScriptType="text/ecmascript" color-interpolation="auto" color-rendering="auto" preserveAspectRatio="xMidYMid meet" font-size="12" fill="black" stroke="black" image-rendering="auto" stroke-miterlimit="10" zoomAndPan="magnify" version="1.0" stroke-linecap="square" stroke-linejoin="miter" contentStyleType="text/css" font-style="normal" height="75" stroke-width="1" stroke-dashoffset="0" font-weight="normal" stroke-opacity="1" y="-30.000000"><!--Converted from MathML using JEuclid--><defs id="genericDefs"/><g><g text-rendering="optimizeLegibility" transform="translate(-0.2344,45)" color-rendering="optimizeQuality" color-interpolation="linearRGB" image-rendering="optimizeQuality"><path d="M6.5781 4.2031 L2.2344 4.2031 L2.2344 -13.9688 L6.5781 -13.9688 L6.5781 -13.1719 L3.9531 -13.1719 L3.9531 3.4062 L6.5781 3.4062 L6.5781 4.2031 Z" stroke="none"/></g><g text-rendering="optimizeLegibility" transform="translate(8.3438,45)" color-rendering="optimizeQuality" color-interpolation="linearRGB" image-rendering="optimizeQuality"><path d="M6.8125 -1.6875 L6.7812 -1.6875 Q5.7812 0.1562 3.7031 0.1562 Q2.4219 0.1562 1.6484 -0.6406 Q0.875 -1.4375 0.875 -2.9219 Q0.875 -4.7656 2.0312 -6.4766 Q3.1875 -8.1875 5.3281 -9.5 L5.7188 -8.8438 Q4.3438 -7.7812 3.4531 -6.1094 Q2.5625 -4.4375 2.5625 -2.8438 Q2.5625 -1.7031 3.0234 -1.1562 Q3.4844 -0.6094 4.2188 -0.6094 Q4.8906 -0.6094 5.4375 -1.2266 Q5.9844 -1.8438 6.2031 -2.9219 L6.9375 -6.6094 L8.5781 -6.6094 L7.7969 -2.8438 Q7.7188 -2.4219 7.7188 -2.0781 Q7.7188 -1.3906 8.0547 -1 Q8.3906 -0.6094 8.9844 -0.6094 Q10.1875 -0.6094 10.9922 -2.1094 Q11.7969 -3.6094 11.7969 -5.7812 Q11.7969 -7.8125 11 -8.9375 L11.5625 -9.5 Q13.5156 -7.6406 13.5156 -5.3594 Q13.5156 -3.125 12.2344 -1.4844 Q10.9531 0.1562 8.9688 0.1562 Q7.1562 0.1562 6.8125 -1.6875 Z" stroke="none"/></g><g text-rendering="optimizeLegibility" transform="translate(23.4375,45)" color-rendering="optimizeQuality" color-interpolation="linearRGB" image-rendering="optimizeQuality"><path d="M4.7812 4.2031 L0.4219 4.2031 L0.4219 3.4062 L3.0625 3.4062 L3.0625 -13.1719 L0.4219 -13.1719 L0.4219 -13.9688 L4.7812 -13.9688 L4.7812 4.2031 Z" stroke="none"/></g><g text-rendering="optimizeLegibility" transform="translate(31,45)" color-rendering="optimizeQuality" color-interpolation="linearRGB" image-rendering="optimizeQuality"><path d="M1.2188 -7.0625 L1.2188 -8.4219 L9.8594 -8.4219 L9.8594 -7.0625 L1.2188 -7.0625 ZM1.2188 -3.0156 L1.2188 -4.3594 L9.8594 -4.3594 L9.8594 -3.0156 L1.2188 -3.0156 Z" stroke="none"/></g><g text-rendering="optimizeLegibility" transform="translate(42.625,57.5883) matrix(1,0,0,4.0567,0,0)" color-rendering="optimizeQuality" color-interpolation="linearRGB" image-rendering="optimizeQuality"><path d="M6.5781 4.2031 L2.2344 4.2031 L2.2344 -13.9688 L6.5781 -13.9688 L6.5781 -13.1719 L3.9531 -13.1719 L3.9531 3.4062 L6.5781 3.4062 L6.5781 4.2031 Z" stroke="none"/></g><g text-rendering="optimizeLegibility" transform="translate(63.4922,14.405)" color-rendering="optimizeQuality" color-interpolation="linearRGB" image-rendering="optimizeQuality"><path d="M5.4375 0.1562 Q3.3281 0.1562 2.2969 -1.5078 Q1.2656 -3.1719 1.2656 -6.5469 Q1.2656 -8.3438 1.5781 -9.6484 Q1.8906 -10.9531 2.4609 -11.8125 Q3.0312 -12.6719 3.8359 -13.0781 Q4.6406 -13.4844 5.5938 -13.4844 Q7.7188 -13.4844 8.7656 -11.8359 Q9.8125 -10.1875 9.8125 -6.8438 Q9.8125 -3.3906 8.6953 -1.6172 Q7.5781 0.1562 5.4375 0.1562 ZM3.1719 -6.8438 Q3.1719 -3.6562 3.7578 -2.1641 Q4.3438 -0.6719 5.5938 -0.6719 Q6.7656 -0.6719 7.3359 -2.0781 Q7.9062 -3.4844 7.9062 -6.4219 Q7.9062 -8.6562 7.6172 -10.0547 Q7.3281 -11.4531 6.8047 -12.0547 Q6.2812 -12.6562 5.5312 -12.6562 Q4.8594 -12.6562 4.4062 -12.2578 Q3.9531 -11.8594 3.6797 -11.1094 Q3.4062 -10.3594 3.2891 -9.2734 Q3.1719 -8.1875 3.1719 -6.8438 Z" stroke="none"/></g><g text-rendering="optimizeLegibility" transform="translate(99.7816,14.405)" color-rendering="optimizeQuality" color-interpolation="linearRGB" image-rendering="optimizeQuality"><path d="M1.2344 -5.0469 L1.2344 -6.3906 L9.8281 -6.3906 L9.8281 -5.0469 L1.2344 -5.0469 Z" stroke="none"/></g><g text-rendering="optimizeLegibility" transform="translate(111.6097,14.405)" color-rendering="optimizeQuality" color-interpolation="linearRGB" image-rendering="optimizeQuality"><path d="M6.8125 -1.6875 L6.7812 -1.6875 Q5.7812 0.1562 3.7031 0.1562 Q2.4219 0.1562 1.6484 -0.6406 Q0.875 -1.4375 0.875 -2.9219 Q0.875 -4.7656 2.0312 -6.4766 Q3.1875 -8.1875 5.3281 -9.5 L5.7188 -8.8438 Q4.3438 -7.7812 3.4531 -6.1094 Q2.5625 -4.4375 2.5625 -2.8438 Q2.5625 -1.7031 3.0234 -1.1562 Q3.4844 -0.6094 4.2188 -0.6094 Q4.8906 -0.6094 5.4375 -1.2266 Q5.9844 -1.8438 6.2031 -2.9219 L6.9375 -6.6094 L8.5781 -6.6094 L7.7969 -2.8438 Q7.7188 -2.4219 7.7188 -2.0781 Q7.7188 -1.3906 8.0547 -1 Q8.3906 -0.6094 8.9844 -0.6094 Q10.1875 -0.6094 10.9922 -2.1094 Q11.7969 -3.6094 11.7969 -5.7812 Q11.7969 -7.8125 11 -8.9375 L11.5625 -9.5 Q13.5156 -7.6406 13.5156 -5.3594 Q13.5156 -3.125 12.2344 -1.4844 Q10.9531 0.1562 8.9688 0.1562 Q7.1562 0.1562 6.8125 -1.6875 Z" stroke="none"/></g><g text-rendering="optimizeLegibility" transform="translate(125.1722,17.8269)" color-rendering="optimizeQuality" color-interpolation="linearRGB" image-rendering="optimizeQuality"><path d="M5.4531 -1.9219 L5.0312 0 L0.0781 0 L-0.0469 -0.3281 L3.6875 -4.6406 Q4.4844 -5.5469 4.8594 -5.9375 L4.8125 -5.9844 L3.2188 -5.9844 Q2.8594 -5.9844 2.6953 -5.9375 Q2.5312 -5.8906 2.3672 -5.7656 Q2.2031 -5.6406 2.0156 -5.4062 Q1.8281 -5.1719 1.5938 -4.7344 L0.9844 -4.7344 L1.3906 -6.5312 L6.25 -6.5312 L6.375 -6.1875 L1.4688 -0.6094 L1.5156 -0.5469 L3.0625 -0.5469 Q3.4688 -0.5469 3.6875 -0.5938 Q3.9062 -0.6406 4.0703 -0.7656 Q4.2344 -0.8906 4.4062 -1.1406 Q4.5781 -1.3906 4.8438 -1.9219 L5.4531 -1.9219 Z" stroke="none"/></g><g text-rendering="optimizeLegibility" transform="translate(150.5007,14.405)" color-rendering="optimizeQuality" color-interpolation="linearRGB" image-rendering="optimizeQuality"><path d="M6.8125 -1.6875 L6.7812 -1.6875 Q5.7812 0.1562 3.7031 0.1562 Q2.4219 0.1562 1.6484 -0.6406 Q0.875 -1.4375 0.875 -2.9219 Q0.875 -4.7656 2.0312 -6.4766 Q3.1875 -8.1875 5.3281 -9.5 L5.7188 -8.8438 Q4.3438 -7.7812 3.4531 -6.1094 Q2.5625 -4.4375 2.5625 -2.8438 Q2.5625 -1.7031 3.0234 -1.1562 Q3.4844 -0.6094 4.2188 -0.6094 Q4.8906 -0.6094 5.4375 -1.2266 Q5.9844 -1.8438 6.2031 -2.9219 L6.9375 -6.6094 L8.5781 -6.6094 L7.7969 -2.8438 Q7.7188 -2.4219 7.7188 -2.0781 Q7.7188 -1.3906 8.0547 -1 Q8.3906 -0.6094 8.9844 -0.6094 Q10.1875 -0.6094 10.9922 -2.1094 Q11.7969 -3.6094 11.7969 -5.7812 Q11.7969 -7.8125 11 -8.9375 L11.5625 -9.5 Q13.5156 -7.6406 13.5156 -5.3594 Q13.5156 -3.125 12.2344 -1.4844 Q10.9531 0.1562 8.9688 0.1562 Q7.1562 0.1562 6.8125 -1.6875 Z" stroke="none"/></g><g text-rendering="optimizeLegibility" transform="translate(165.7351,16.3269)" color-rendering="optimizeQuality" color-interpolation="linearRGB" image-rendering="optimizeQuality"><path d="M1.2656 -5.0469 Q1.2031 -5.5625 1.1406 -5.7656 Q1.0781 -5.9688 0.9375 -6.0781 Q0.7969 -6.1875 0.5 -6.2031 L0.5625 -6.5312 L2.3281 -6.5312 L2.8438 -1.0938 Q5.1562 -4.2656 5.1562 -5.625 Q5.1562 -5.9531 5.0156 -6.0703 Q4.875 -6.1875 4.5469 -6.2031 L4.625 -6.5312 L6.3906 -6.5312 L6.5625 -6.1875 Q6.2031 -5.25 5.6406 -4.2266 Q5.0781 -3.2031 4.2656 -1.9922 Q3.4531 -0.7812 2.4531 0.5156 Q1.6875 1.5312 1.1562 2.0312 Q0.7656 2.4219 0.4219 2.625 Q0.0781 2.8281 -0.2344 2.9141 Q-0.5469 3 -0.9062 3 Q-1.0938 3 -1.3281 2.9609 Q-1.5625 2.9219 -1.7188 2.8594 L-1.4219 1.5938 L-0.8906 1.5938 Q-0.8906 1.8125 -0.7891 1.9531 Q-0.6875 2.0938 -0.4844 2.0938 Q-0.2656 2.0938 -0.1094 2.0469 Q0.0469 2 0.2188 1.8984 Q0.3906 1.7969 0.6406 1.5703 Q0.8906 1.3438 1.2109 0.9766 Q1.5312 0.6094 1.9219 0.0781 L1.2656 -5.0469 Z" stroke="none"/></g><g text-rendering="optimizeLegibility" transform="translate(58.4297,42.8112)" color-rendering="optimizeQuality" color-interpolation="linearRGB" image-rendering="optimizeQuality"><path d="M6.8125 -1.6875 L6.7812 -1.6875 Q5.7812 0.1562 3.7031 0.1562 Q2.4219 0.1562 1.6484 -0.6406 Q0.875 -1.4375 0.875 -2.9219 Q0.875 -4.7656 2.0312 -6.4766 Q3.1875 -8.1875 5.3281 -9.5 L5.7188 -8.8438 Q4.3438 -7.7812 3.4531 -6.1094 Q2.5625 -4.4375 2.5625 -2.8438 Q2.5625 -1.7031 3.0234 -1.1562 Q3.4844 -0.6094 4.2188 -0.6094 Q4.8906 -0.6094 5.4375 -1.2266 Q5.9844 -1.8438 6.2031 -2.9219 L6.9375 -6.6094 L8.5781 -6.6094 L7.7969 -2.8438 Q7.7188 -2.4219 7.7188 -2.0781 Q7.7188 -1.3906 8.0547 -1 Q8.3906 -0.6094 8.9844 -0.6094 Q10.1875 -0.6094 10.9922 -2.1094 Q11.7969 -3.6094 11.7969 -5.7812 Q11.7969 -7.8125 11 -8.9375 L11.5625 -9.5 Q13.5156 -7.6406 13.5156 -5.3594 Q13.5156 -3.125 12.2344 -1.4844 Q10.9531 0.1562 8.9688 0.1562 Q7.1562 0.1562 6.8125 -1.6875 Z" stroke="none"/></g><g text-rendering="optimizeLegibility" transform="translate(71.9922,46.2331)" color-rendering="optimizeQuality" color-interpolation="linearRGB" image-rendering="optimizeQuality"><path d="M5.4531 -1.9219 L5.0312 0 L0.0781 0 L-0.0469 -0.3281 L3.6875 -4.6406 Q4.4844 -5.5469 4.8594 -5.9375 L4.8125 -5.9844 L3.2188 -5.9844 Q2.8594 -5.9844 2.6953 -5.9375 Q2.5312 -5.8906 2.3672 -5.7656 Q2.2031 -5.6406 2.0156 -5.4062 Q1.8281 -5.1719 1.5938 -4.7344 L0.9844 -4.7344 L1.3906 -6.5312 L6.25 -6.5312 L6.375 -6.1875 L1.4688 -0.6094 L1.5156 -0.5469 L3.0625 -0.5469 Q3.4688 -0.5469 3.6875 -0.5938 Q3.9062 -0.6406 4.0703 -0.7656 Q4.2344 -0.8906 4.4062 -1.1406 Q4.5781 -1.3906 4.8438 -1.9219 L5.4531 -1.9219 Z" stroke="none"/></g><g text-rendering="optimizeLegibility" transform="translate(110.3754,42.8112)" color-rendering="optimizeQuality" color-interpolation="linearRGB" image-rendering="optimizeQuality"><path d="M5.4375 0.1562 Q3.3281 0.1562 2.2969 -1.5078 Q1.2656 -3.1719 1.2656 -6.5469 Q1.2656 -8.3438 1.5781 -9.6484 Q1.8906 -10.9531 2.4609 -11.8125 Q3.0312 -12.6719 3.8359 -13.0781 Q4.6406 -13.4844 5.5938 -13.4844 Q7.7188 -13.4844 8.7656 -11.8359 Q9.8125 -10.1875 9.8125 -6.8438 Q9.8125 -3.3906 8.6953 -1.6172 Q7.5781 0.1562 5.4375 0.1562 ZM3.1719 -6.8438 Q3.1719 -3.6562 3.7578 -2.1641 Q4.3438 -0.6719 5.5938 -0.6719 Q6.7656 -0.6719 7.3359 -2.0781 Q7.9062 -3.4844 7.9062 -6.4219 Q7.9062 -8.6562 7.6172 -10.0547 Q7.3281 -11.4531 6.8047 -12.0547 Q6.2812 -12.6562 5.5312 -12.6562 Q4.8594 -12.6562 4.4062 -12.2578 Q3.9531 -11.8594 3.6797 -11.1094 Q3.4062 -10.3594 3.2891 -9.2734 Q3.1719 -8.1875 3.1719 -6.8438 Z" stroke="none"/></g><g text-rendering="optimizeLegibility" transform="translate(145.7351,42.8112)" color-rendering="optimizeQuality" color-interpolation="linearRGB" image-rendering="optimizeQuality"><path d="M1.2344 -5.0469 L1.2344 -6.3906 L9.8281 -6.3906 L9.8281 -5.0469 L1.2344 -5.0469 Z" stroke="none"/></g><g text-rendering="optimizeLegibility" transform="translate(157.5632,42.8112)" color-rendering="optimizeQuality" color-interpolation="linearRGB" image-rendering="optimizeQuality"><path d="M6.8125 -1.6875 L6.7812 -1.6875 Q5.7812 0.1562 3.7031 0.1562 Q2.4219 0.1562 1.6484 -0.6406 Q0.875 -1.4375 0.875 -2.9219 Q0.875 -4.7656 2.0312 -6.4766 Q3.1875 -8.1875 5.3281 -9.5 L5.7188 -8.8438 Q4.3438 -7.7812 3.4531 -6.1094 Q2.5625 -4.4375 2.5625 -2.8438 Q2.5625 -1.7031 3.0234 -1.1562 Q3.4844 -0.6094 4.2188 -0.6094 Q4.8906 -0.6094 5.4375 -1.2266 Q5.9844 -1.8438 6.2031 -2.9219 L6.9375 -6.6094 L8.5781 -6.6094 L7.7969 -2.8438 Q7.7188 -2.4219 7.7188 -2.0781 Q7.7188 -1.3906 8.0547 -1 Q8.3906 -0.6094 8.9844 -0.6094 Q10.1875 -0.6094 10.9922 -2.1094 Q11.7969 -3.6094 11.7969 -5.7812 Q11.7969 -7.8125 11 -8.9375 L11.5625 -9.5 Q13.5156 -7.6406 13.5156 -5.3594 Q13.5156 -3.125 12.2344 -1.4844 Q10.9531 0.1562 8.9688 0.1562 Q7.1562 0.1562 6.8125 -1.6875 Z" stroke="none"/></g><g text-rendering="optimizeLegibility" transform="translate(171.3601,46.2331)" color-rendering="optimizeQuality" color-interpolation="linearRGB" image-rendering="optimizeQuality"><path d="M6.4688 -6.2031 Q5.1406 -4.7812 3.6875 -3.4062 L4.3281 -1.9062 Q4.5781 -1.3125 4.7266 -1.0234 Q4.875 -0.7344 5 -0.6094 Q5.125 -0.4844 5.25 -0.4297 Q5.375 -0.375 5.6406 -0.3281 L5.5625 0 L3.8594 0 L2.9062 -2.75 Q2.75 -2.6094 2.4766 -2.3516 Q2.2031 -2.0938 1.9531 -1.8047 Q1.7031 -1.5156 1.6016 -1.3359 Q1.5 -1.1562 1.4688 -1.0234 Q1.4375 -0.8906 1.4375 -0.7656 Q1.4375 -0.5781 1.5391 -0.4766 Q1.6406 -0.375 1.875 -0.3281 L1.7969 0 L-0.1562 0 L-0.2812 -0.3281 Q1.2188 -1.9375 2.6719 -3.2969 L2.0156 -4.8125 Q1.8125 -5.2812 1.6953 -5.5234 Q1.5781 -5.7656 1.4609 -5.8984 Q1.3438 -6.0312 1.1953 -6.1094 Q1.0469 -6.1875 0.7812 -6.2031 L0.8594 -6.5312 L2.5625 -6.5312 L3.4688 -3.9531 Q3.7969 -4.2656 4.1016 -4.5938 Q4.4062 -4.9219 4.5312 -5.1172 Q4.6562 -5.3125 4.7031 -5.4609 Q4.75 -5.6094 4.75 -5.7656 Q4.75 -6.1406 4.3125 -6.2031 L4.375 -6.5312 L6.3281 -6.5312 L6.4688 -6.2031 Z" stroke="none"/></g><g text-rendering="optimizeLegibility" transform="translate(51.9688,69.7175)" color-rendering="optimizeQuality" color-interpolation="linearRGB" image-rendering="optimizeQuality"><path d="M1.2344 -5.0469 L1.2344 -6.3906 L9.8281 -6.3906 L9.8281 -5.0469 L1.2344 -5.0469 Z" stroke="none"/></g><g text-rendering="optimizeLegibility" transform="translate(63.7969,69.7175)" color-rendering="optimizeQuality" color-interpolation="linearRGB" image-rendering="optimizeQuality"><path d="M6.8125 -1.6875 L6.7812 -1.6875 Q5.7812 0.1562 3.7031 0.1562 Q2.4219 0.1562 1.6484 -0.6406 Q0.875 -1.4375 0.875 -2.9219 Q0.875 -4.7656 2.0312 -6.4766 Q3.1875 -8.1875 5.3281 -9.5 L5.7188 -8.8438 Q4.3438 -7.7812 3.4531 -6.1094 Q2.5625 -4.4375 2.5625 -2.8438 Q2.5625 -1.7031 3.0234 -1.1562 Q3.4844 -0.6094 4.2188 -0.6094 Q4.8906 -0.6094 5.4375 -1.2266 Q5.9844 -1.8438 6.2031 -2.9219 L6.9375 -6.6094 L8.5781 -6.6094 L7.7969 -2.8438 Q7.7188 -2.4219 7.7188 -2.0781 Q7.7188 -1.3906 8.0547 -1 Q8.3906 -0.6094 8.9844 -0.6094 Q10.1875 -0.6094 10.9922 -2.1094 Q11.7969 -3.6094 11.7969 -5.7812 Q11.7969 -7.8125 11 -8.9375 L11.5625 -9.5 Q13.5156 -7.6406 13.5156 -5.3594 Q13.5156 -3.125 12.2344 -1.4844 Q10.9531 0.1562 8.9688 0.1562 Q7.1562 0.1562 6.8125 -1.6875 Z" stroke="none"/></g><g text-rendering="optimizeLegibility" transform="translate(79.0312,71.6394)" color-rendering="optimizeQuality" color-interpolation="linearRGB" image-rendering="optimizeQuality"><path d="M1.2656 -5.0469 Q1.2031 -5.5625 1.1406 -5.7656 Q1.0781 -5.9688 0.9375 -6.0781 Q0.7969 -6.1875 0.5 -6.2031 L0.5625 -6.5312 L2.3281 -6.5312 L2.8438 -1.0938 Q5.1562 -4.2656 5.1562 -5.625 Q5.1562 -5.9531 5.0156 -6.0703 Q4.875 -6.1875 4.5469 -6.2031 L4.625 -6.5312 L6.3906 -6.5312 L6.5625 -6.1875 Q6.2031 -5.25 5.6406 -4.2266 Q5.0781 -3.2031 4.2656 -1.9922 Q3.4531 -0.7812 2.4531 0.5156 Q1.6875 1.5312 1.1562 2.0312 Q0.7656 2.4219 0.4219 2.625 Q0.0781 2.8281 -0.2344 2.9141 Q-0.5469 3 -0.9062 3 Q-1.0938 3 -1.3281 2.9609 Q-1.5625 2.9219 -1.7188 2.8594 L-1.4219 1.5938 L-0.8906 1.5938 Q-0.8906 1.8125 -0.7891 1.9531 Q-0.6875 2.0938 -0.4844 2.0938 Q-0.2656 2.0938 -0.1094 2.0469 Q0.0469 2 0.2188 1.8984 Q0.3906 1.7969 0.6406 1.5703 Q0.8906 1.3438 1.2109 0.9766 Q1.5312 0.6094 1.9219 0.0781 L1.2656 -5.0469 Z" stroke="none"/></g><g text-rendering="optimizeLegibility" transform="translate(105.1488,69.7175)" color-rendering="optimizeQuality" color-interpolation="linearRGB" image-rendering="optimizeQuality"><path d="M6.8125 -1.6875 L6.7812 -1.6875 Q5.7812 0.1562 3.7031 0.1562 Q2.4219 0.1562 1.6484 -0.6406 Q0.875 -1.4375 0.875 -2.9219 Q0.875 -4.7656 2.0312 -6.4766 Q3.1875 -8.1875 5.3281 -9.5 L5.7188 -8.8438 Q4.3438 -7.7812 3.4531 -6.1094 Q2.5625 -4.4375 2.5625 -2.8438 Q2.5625 -1.7031 3.0234 -1.1562 Q3.4844 -0.6094 4.2188 -0.6094 Q4.8906 -0.6094 5.4375 -1.2266 Q5.9844 -1.8438 6.2031 -2.9219 L6.9375 -6.6094 L8.5781 -6.6094 L7.7969 -2.8438 Q7.7188 -2.4219 7.7188 -2.0781 Q7.7188 -1.3906 8.0547 -1 Q8.3906 -0.6094 8.9844 -0.6094 Q10.1875 -0.6094 10.9922 -2.1094 Q11.7969 -3.6094 11.7969 -5.7812 Q11.7969 -7.8125 11 -8.9375 L11.5625 -9.5 Q13.5156 -7.6406 13.5156 -5.3594 Q13.5156 -3.125 12.2344 -1.4844 Q10.9531 0.1562 8.9688 0.1562 Q7.1562 0.1562 6.8125 -1.6875 Z" stroke="none"/></g><g text-rendering="optimizeLegibility" transform="translate(118.9457,73.1394)" color-rendering="optimizeQuality" color-interpolation="linearRGB" image-rendering="optimizeQuality"><path d="M6.4688 -6.2031 Q5.1406 -4.7812 3.6875 -3.4062 L4.3281 -1.9062 Q4.5781 -1.3125 4.7266 -1.0234 Q4.875 -0.7344 5 -0.6094 Q5.125 -0.4844 5.25 -0.4297 Q5.375 -0.375 5.6406 -0.3281 L5.5625 0 L3.8594 0 L2.9062 -2.75 Q2.75 -2.6094 2.4766 -2.3516 Q2.2031 -2.0938 1.9531 -1.8047 Q1.7031 -1.5156 1.6016 -1.3359 Q1.5 -1.1562 1.4688 -1.0234 Q1.4375 -0.8906 1.4375 -0.7656 Q1.4375 -0.5781 1.5391 -0.4766 Q1.6406 -0.375 1.875 -0.3281 L1.7969 0 L-0.1562 0 L-0.2812 -0.3281 Q1.2188 -1.9375 2.6719 -3.2969 L2.0156 -4.8125 Q1.8125 -5.2812 1.6953 -5.5234 Q1.5781 -5.7656 1.4609 -5.8984 Q1.3438 -6.0312 1.1953 -6.1094 Q1.0469 -6.1875 0.7812 -6.2031 L0.8594 -6.5312 L2.5625 -6.5312 L3.4688 -3.9531 Q3.7969 -4.2656 4.1016 -4.5938 Q4.4062 -4.9219 4.5312 -5.1172 Q4.6562 -5.3125 4.7031 -5.4609 Q4.75 -5.6094 4.75 -5.7656 Q4.75 -6.1406 4.3125 -6.2031 L4.375 -6.5312 L6.3281 -6.5312 L6.4688 -6.2031 Z" stroke="none"/></g><g text-rendering="optimizeLegibility" transform="translate(156.4929,69.7175)" color-rendering="optimizeQuality" color-interpolation="linearRGB" image-rendering="optimizeQuality"><path d="M5.4375 0.1562 Q3.3281 0.1562 2.2969 -1.5078 Q1.2656 -3.1719 1.2656 -6.5469 Q1.2656 -8.3438 1.5781 -9.6484 Q1.8906 -10.9531 2.4609 -11.8125 Q3.0312 -12.6719 3.8359 -13.0781 Q4.6406 -13.4844 5.5938 -13.4844 Q7.7188 -13.4844 8.7656 -11.8359 Q9.8125 -10.1875 9.8125 -6.8438 Q9.8125 -3.3906 8.6953 -1.6172 Q7.5781 0.1562 5.4375 0.1562 ZM3.1719 -6.8438 Q3.1719 -3.6562 3.7578 -2.1641 Q4.3438 -0.6719 5.5938 -0.6719 Q6.7656 -0.6719 7.3359 -2.0781 Q7.9062 -3.4844 7.9062 -6.4219 Q7.9062 -8.6562 7.6172 -10.0547 Q7.3281 -11.4531 6.8047 -12.0547 Q6.2812 -12.6562 5.5312 -12.6562 Q4.8594 -12.6562 4.4062 -12.2578 Q3.9531 -11.8594 3.6797 -11.1094 Q3.4062 -10.3594 3.2891 -9.2734 Q3.1719 -8.1875 3.1719 -6.8438 Z" stroke="none"/></g><g text-rendering="optimizeLegibility" transform="translate(179.407,57.5883) matrix(1,0,0,4.0567,0,0)" color-rendering="optimizeQuality" color-interpolation="linearRGB" image-rendering="optimizeQuality"><path d="M4.7812 4.2031 L0.4219 4.2031 L0.4219 3.4062 L3.0625 3.4062 L3.0625 -13.1719 L0.4219 -13.1719 L0.4219 -13.9688 L4.7812 -13.9688 L4.7812 4.2031 Z" stroke="none"/></g><g text-rendering="optimizeLegibility" transform="translate(186.9695,45)" color-rendering="optimizeQuality" color-interpolation="linearRGB" image-rendering="optimizeQuality"><path d="M1.2188 -7.0625 L1.2188 -8.4219 L9.8594 -8.4219 L9.8594 -7.0625 L1.2188 -7.0625 ZM1.2188 -3.0156 L1.2188 -4.3594 L9.8594 -4.3594 L9.8594 -3.0156 L1.2188 -3.0156 Z" stroke="none"/></g><g text-rendering="optimizeLegibility" transform="translate(198.8288,45)" color-rendering="optimizeQuality" color-interpolation="linearRGB" image-rendering="optimizeQuality"><path d="M3.5781 -7.7188 L3.7188 -7.6875 Q4.2656 -8.3438 4.7188 -8.7188 Q5.1719 -9.0938 5.7031 -9.2969 Q6.2344 -9.5 6.9219 -9.5 Q7.4844 -9.5 7.9375 -9.4375 L7.9375 -7.2031 L6.8438 -7.2031 Q6.6094 -7.7188 6.3438 -7.9609 Q6.0781 -8.2031 5.6094 -8.2031 Q5.2656 -8.2031 4.9219 -8 Q4.5781 -7.7969 4.25 -7.4062 Q3.9219 -7.0156 3.8047 -6.6719 Q3.6875 -6.3281 3.6875 -5.8594 L3.6875 -2.4375 Q3.6875 -1.5469 3.7891 -1.2109 Q3.8906 -0.875 4.1406 -0.7188 Q4.3906 -0.5625 4.8906 -0.4844 L4.8906 0 L0.9531 0 L0.9531 -0.4844 Q1.3281 -0.5938 1.4922 -0.6797 Q1.6562 -0.7656 1.7734 -0.9219 Q1.8906 -1.0781 1.9453 -1.4062 Q2 -1.7344 2 -2.4062 L2 -6.6719 Q2 -7.2969 1.9844 -7.6797 Q1.9688 -8.0625 1.8516 -8.2891 Q1.7344 -8.5156 1.4922 -8.625 Q1.25 -8.7344 0.8125 -8.8125 L0.8125 -9.3281 L3.0938 -9.4219 L3.6875 -9.4219 L3.5781 -7.7188 ZM13.2031 0.1562 Q11.1719 0.1562 10.1016 -1.0391 Q9.0312 -2.2344 9.0312 -4.5781 Q9.0312 -6.1875 9.5938 -7.3047 Q10.1562 -8.4219 11.1328 -8.9609 Q12.1094 -9.5 13.3594 -9.5 Q15.4375 -9.5 16.5156 -8.2891 Q17.5938 -7.0781 17.5938 -4.7969 Q17.5938 -3.1719 17.0547 -2.0625 Q16.5156 -0.9531 15.5312 -0.3984 Q14.5469 0.1562 13.2031 0.1562 ZM10.875 -4.7812 Q10.875 -2.7812 11.5156 -1.6953 Q12.1562 -0.6094 13.3438 -0.6094 Q14 -0.6094 14.4609 -0.9297 Q14.9219 -1.25 15.2031 -1.7891 Q15.4844 -2.3281 15.6172 -3.0312 Q15.75 -3.7344 15.75 -4.5156 Q15.75 -5.9531 15.4297 -6.8984 Q15.1094 -7.8438 14.5625 -8.2891 Q14.0156 -8.7344 13.3125 -8.7344 Q12.125 -8.7344 11.5 -7.7109 Q10.875 -6.6875 10.875 -4.7812 ZM19.3594 -8.8438 Q19.8438 -8.9219 20.1484 -9.1172 Q20.4531 -9.3125 20.625 -9.625 Q20.7969 -9.9375 20.8984 -10.3984 Q21 -10.8594 21.0938 -11.75 L22.4844 -11.75 L22.4844 -9.3438 L25.6406 -9.3438 L25.6406 -8.3438 L22.4844 -8.3438 L22.4844 -4 Q22.4844 -3.0625 22.5625 -2.5 Q22.6406 -1.9375 22.8594 -1.6172 Q23.0781 -1.2969 23.3516 -1.1641 Q23.625 -1.0312 24.0469 -1.0312 Q24.4375 -1.0312 24.7812 -1.1875 Q25.125 -1.3438 25.4531 -1.6562 L25.8906 -1.125 Q25.2031 -0.4531 24.5859 -0.1484 Q23.9688 0.1562 23.2969 0.1562 Q22.0312 0.1562 21.4219 -0.5938 Q20.8125 -1.3438 20.8125 -2.9375 L20.8125 -8.3438 L19.3594 -8.3438 L19.3594 -8.8438 ZM32.5938 -1.3906 L32.4531 -1.4375 Q31.5938 -0.5625 30.8516 -0.2031 Q30.1094 0.1562 29.2656 0.1562 Q28.5156 0.1562 27.9531 -0.1328 Q27.3906 -0.4219 27.0859 -0.9453 Q26.7812 -1.4688 26.7812 -2.1562 Q26.7812 -3.5781 28.1953 -4.3516 Q29.6094 -5.125 32.4219 -5.25 L32.4219 -5.8906 Q32.4219 -6.9062 32.2266 -7.4922 Q32.0312 -8.0781 31.6172 -8.3516 Q31.2031 -8.625 30.5 -8.625 Q29.7344 -8.625 29.2656 -8.2266 Q28.7969 -7.8281 28.5625 -7.0156 L27.2969 -7.0156 L27.2969 -8.2969 Q28.2344 -8.7812 28.8594 -9.0078 Q29.4844 -9.2344 30.1094 -9.3672 Q30.7344 -9.5 31.375 -9.5 Q32.3438 -9.5 32.9297 -9.1953 Q33.5156 -8.8906 33.8047 -8.2578 Q34.0938 -7.625 34.0938 -6.3438 L34.0938 -2.9375 Q34.0938 -2.2188 34.1016 -1.9219 Q34.1094 -1.625 34.1641 -1.3672 Q34.2188 -1.1094 34.3125 -0.9609 Q34.4062 -0.8125 34.6016 -0.7031 Q34.7969 -0.5938 35.2188 -0.4844 L35.2188 0 L32.5469 0 L32.5938 -1.3906 ZM32.4219 -4.4531 Q30.4375 -4.4375 29.4531 -3.9297 Q28.4688 -3.4219 28.4688 -2.3906 Q28.4688 -1.8438 28.6953 -1.5156 Q28.9219 -1.1875 29.2656 -1.0703 Q29.6094 -0.9531 30.0781 -0.9531 Q30.7344 -0.9531 31.2812 -1.2734 Q31.8281 -1.5938 32.125 -2.0938 Q32.4219 -2.5938 32.4219 -3.0781 L32.4219 -4.4531 ZM36.3594 -8.8438 Q36.8438 -8.9219 37.1484 -9.1172 Q37.4531 -9.3125 37.625 -9.625 Q37.7969 -9.9375 37.8984 -10.3984 Q38 -10.8594 38.0938 -11.75 L39.4844 -11.75 L39.4844 -9.3438 L42.6406 -9.3438 L42.6406 -8.3438 L39.4844 -8.3438 L39.4844 -4 Q39.4844 -3.0625 39.5625 -2.5 Q39.6406 -1.9375 39.8594 -1.6172 Q40.0781 -1.2969 40.3516 -1.1641 Q40.625 -1.0312 41.0469 -1.0312 Q41.4375 -1.0312 41.7812 -1.1875 Q42.125 -1.3438 42.4531 -1.6562 L42.8906 -1.125 Q42.2031 -0.4531 41.5859 -0.1484 Q40.9688 0.1562 40.2969 0.1562 Q39.0312 0.1562 38.4219 -0.5938 Q37.8125 -1.3438 37.8125 -2.9375 L37.8125 -8.3438 L36.3594 -8.3438 L36.3594 -8.8438 ZM46.7344 -13.1719 L46.7344 -11.2656 L44.9375 -11.2656 L44.9375 -13.1719 L46.7344 -13.1719 ZM43.9531 -0.4844 Q44.3281 -0.5938 44.4922 -0.6797 Q44.6562 -0.7656 44.7656 -0.9219 Q44.875 -1.0781 44.9375 -1.4062 Q45 -1.7344 45 -2.4062 L45 -6.6719 Q45 -7.2969 44.9844 -7.6797 Q44.9688 -8.0625 44.8516 -8.2891 Q44.7344 -8.5156 44.4922 -8.625 Q44.25 -8.7344 43.8125 -8.8125 L43.8125 -9.3438 L46.0938 -9.4219 L46.6875 -9.4219 L46.6875 -2.4375 Q46.6875 -1.6094 46.7656 -1.2812 Q46.8438 -0.9531 47.0625 -0.7812 Q47.2812 -0.6094 47.7812 -0.4844 L47.7812 0 L43.9531 0 L43.9531 -0.4844 ZM54.2031 0.1562 Q52.1719 0.1562 51.1016 -1.0391 Q50.0312 -2.2344 50.0312 -4.5781 Q50.0312 -6.1875 50.5938 -7.3047 Q51.1562 -8.4219 52.1328 -8.9609 Q53.1094 -9.5 54.3594 -9.5 Q56.4375 -9.5 57.5156 -8.2891 Q58.5938 -7.0781 58.5938 -4.7969 Q58.5938 -3.1719 58.0547 -2.0625 Q57.5156 -0.9531 56.5312 -0.3984 Q55.5469 0.1562 54.2031 0.1562 ZM51.875 -4.7812 Q51.875 -2.7812 52.5156 -1.6953 Q53.1562 -0.6094 54.3438 -0.6094 Q55 -0.6094 55.4609 -0.9297 Q55.9219 -1.25 56.2031 -1.7891 Q56.4844 -2.3281 56.6172 -3.0312 Q56.75 -3.7344 56.75 -4.5156 Q56.75 -5.9531 56.4297 -6.8984 Q56.1094 -7.8438 55.5625 -8.2891 Q55.0156 -8.7344 54.3125 -8.7344 Q53.125 -8.7344 52.5 -7.7109 Q51.875 -6.6875 51.875 -4.7812 ZM70.4531 0 L66.6094 0 L66.6094 -0.4844 Q67 -0.5938 67.1641 -0.6797 Q67.3281 -0.7656 67.4375 -0.9219 Q67.5469 -1.0781 67.6094 -1.4062 Q67.6719 -1.7344 67.6719 -2.4062 L67.6719 -4.9688 Q67.6719 -5.6406 67.6328 -6.2031 Q67.5938 -6.7656 67.5 -7.1172 Q67.4062 -7.4688 67.2812 -7.6719 Q67.1562 -7.875 66.9688 -8.0156 Q66.7812 -8.1562 66.5469 -8.2422 Q66.3125 -8.3281 65.9375 -8.3281 Q65.5625 -8.3281 65.2188 -8.1719 Q64.875 -8.0156 64.4609 -7.6484 Q64.0469 -7.2812 63.8672 -6.9141 Q63.6875 -6.5469 63.6875 -6.0781 L63.6875 -2.4375 Q63.6875 -1.6094 63.7656 -1.2812 Q63.8438 -0.9531 64.0625 -0.7812 Q64.2812 -0.6094 64.7812 -0.4844 L64.7812 0 L60.9531 0 L60.9531 -0.4844 Q61.3281 -0.5938 61.4922 -0.6797 Q61.6562 -0.7656 61.7656 -0.9219 Q61.875 -1.0781 61.9375 -1.4062 Q62 -1.7344 62 -2.4062 L62 -6.6719 Q62 -7.2969 61.9844 -7.6797 Q61.9688 -8.0625 61.8516 -8.2891 Q61.7344 -8.5156 61.4922 -8.625 Q61.25 -8.7344 60.8125 -8.8125 L60.8125 -9.3438 L63.0938 -9.4219 L63.6875 -9.4219 L63.5781 -7.8281 L63.7188 -7.7969 Q64.4375 -8.5312 64.8828 -8.8438 Q65.3281 -9.1562 65.7812 -9.3281 Q66.2344 -9.5 66.75 -9.5 Q67.2812 -9.5 67.6953 -9.375 Q68.1094 -9.25 68.4219 -8.9922 Q68.7344 -8.7344 68.9453 -8.3594 Q69.1562 -7.9844 69.2578 -7.4609 Q69.3594 -6.9375 69.3594 -6.125 L69.3594 -2.4375 Q69.3594 -1.7656 69.3984 -1.4609 Q69.4375 -1.1562 69.5312 -0.9922 Q69.625 -0.8281 69.8125 -0.7188 Q70 -0.6094 70.4531 -0.4844 L70.4531 0 ZM77.5938 -1.3906 L77.4531 -1.4375 Q76.5938 -0.5625 75.8516 -0.2031 Q75.1094 0.1562 74.2656 0.1562 Q73.5156 0.1562 72.9531 -0.1328 Q72.3906 -0.4219 72.0859 -0.9453 Q71.7812 -1.4688 71.7812 -2.1562 Q71.7812 -3.5781 73.1953 -4.3516 Q74.6094 -5.125 77.4219 -5.25 L77.4219 -5.8906 Q77.4219 -6.9062 77.2266 -7.4922 Q77.0312 -8.0781 76.6172 -8.3516 Q76.2031 -8.625 75.5 -8.625 Q74.7344 -8.625 74.2656 -8.2266 Q73.7969 -7.8281 73.5625 -7.0156 L72.2969 -7.0156 L72.2969 -8.2969 Q73.2344 -8.7812 73.8594 -9.0078 Q74.4844 -9.2344 75.1094 -9.3672 Q75.7344 -9.5 76.375 -9.5 Q77.3438 -9.5 77.9297 -9.1953 Q78.5156 -8.8906 78.8047 -8.2578 Q79.0938 -7.625 79.0938 -6.3438 L79.0938 -2.9375 Q79.0938 -2.2188 79.1016 -1.9219 Q79.1094 -1.625 79.1641 -1.3672 Q79.2188 -1.1094 79.3125 -0.9609 Q79.4062 -0.8125 79.6016 -0.7031 Q79.7969 -0.5938 80.2188 -0.4844 L80.2188 0 L77.5469 0 L77.5938 -1.3906 ZM77.4219 -4.4531 Q75.4375 -4.4375 74.4531 -3.9297 Q73.4688 -3.4219 73.4688 -2.3906 Q73.4688 -1.8438 73.6953 -1.5156 Q73.9219 -1.1875 74.2656 -1.0703 Q74.6094 -0.9531 75.0781 -0.9531 Q75.7344 -0.9531 76.2812 -1.2734 Q76.8281 -1.5938 77.125 -2.0938 Q77.4219 -2.5938 77.4219 -3.0781 L77.4219 -4.4531 ZM84.5625 -2.4375 Q84.5625 -1.6094 84.6406 -1.2812 Q84.7188 -0.9531 84.9375 -0.7812 Q85.1562 -0.6094 85.6562 -0.4844 L85.6562 0 L81.7656 0 L81.7656 -0.4844 Q82.2656 -0.6094 82.4531 -0.7422 Q82.6406 -0.875 82.7266 -1.0703 Q82.8125 -1.2656 82.8438 -1.5938 Q82.875 -1.9219 82.875 -2.4375 L82.875 -10.6094 Q82.875 -11.5469 82.8594 -11.9219 Q82.8438 -12.2969 82.7812 -12.5547 Q82.7188 -12.8125 82.6094 -12.9609 Q82.5 -13.1094 82.3047 -13.1953 Q82.1094 -13.2812 81.6094 -13.375 L81.6094 -13.875 L83.9688 -13.9688 L84.5625 -13.9688 L84.5625 -2.4375 ZM93.5781 -7.8281 L93.7188 -7.7969 Q94.3125 -8.375 94.6875 -8.6719 Q95.0625 -8.9688 95.4141 -9.1562 Q95.7656 -9.3438 96.0703 -9.4219 Q96.375 -9.5 96.7031 -9.5 Q97.6719 -9.5 98.2891 -9.0469 Q98.9062 -8.5938 99.1406 -7.6719 Q99.875 -8.4062 100.3281 -8.7578 Q100.7812 -9.1094 101.2578 -9.3047 Q101.7344 -9.5 102.2812 -9.5 Q102.9375 -9.5 103.4062 -9.3047 Q103.875 -9.1094 104.2031 -8.7188 Q104.5312 -8.3281 104.6797 -7.7266 Q104.8281 -7.125 104.8281 -6.125 L104.8281 -2.4375 Q104.8281 -1.7031 104.8828 -1.4219 Q104.9375 -1.1406 105.0312 -0.9844 Q105.125 -0.8281 105.3047 -0.7109 Q105.4844 -0.5938 105.9219 -0.4844 L105.9219 0 L102.0938 0 L102.0938 -0.4844 Q102.4688 -0.5938 102.6328 -0.6797 Q102.7969 -0.7656 102.9141 -0.9219 Q103.0312 -1.0781 103.0938 -1.4062 Q103.1562 -1.7344 103.1562 -2.4062 L103.1562 -4.9688 Q103.1562 -5.7969 103.1094 -6.3359 Q103.0625 -6.875 102.9688 -7.1953 Q102.875 -7.5156 102.75 -7.7031 Q102.625 -7.8906 102.4531 -8.0312 Q102.2812 -8.1719 102.0625 -8.25 Q101.8438 -8.3281 101.4688 -8.3281 Q101.0781 -8.3281 100.7422 -8.1719 Q100.4062 -8.0156 100.0078 -7.6406 Q99.6094 -7.2656 99.4375 -6.8906 Q99.2656 -6.5156 99.2656 -6 L99.2656 -2.4375 Q99.2656 -1.7031 99.3125 -1.4219 Q99.3594 -1.1406 99.4531 -0.9844 Q99.5469 -0.8281 99.7266 -0.7109 Q99.9062 -0.5938 100.3594 -0.4844 L100.3594 0 L96.5156 0 L96.5156 -0.4844 Q96.8906 -0.5938 97.0625 -0.6797 Q97.2344 -0.7656 97.3438 -0.9219 Q97.4531 -1.0781 97.5156 -1.4062 Q97.5781 -1.7344 97.5781 -2.4062 L97.5781 -4.9688 Q97.5781 -5.8281 97.5312 -6.375 Q97.4844 -6.9219 97.3828 -7.2578 Q97.2812 -7.5938 97.1172 -7.7969 Q96.9531 -8 96.7891 -8.1094 Q96.625 -8.2188 96.3984 -8.2734 Q96.1719 -8.3281 95.8906 -8.3281 Q95.4844 -8.3281 95.1328 -8.1406 Q94.7812 -7.9531 94.4141 -7.6172 Q94.0469 -7.2812 93.8672 -6.9062 Q93.6875 -6.5312 93.6875 -6.1094 L93.6875 -2.4375 Q93.6875 -1.8906 93.7109 -1.5938 Q93.7344 -1.2969 93.8047 -1.1328 Q93.875 -0.9688 93.9688 -0.8672 Q94.0625 -0.7656 94.2422 -0.6719 Q94.4219 -0.5781 94.7812 -0.4844 L94.7812 0 L90.9531 0 L90.9531 -0.4844 Q91.3281 -0.5938 91.4922 -0.6797 Q91.6562 -0.7656 91.7734 -0.9219 Q91.8906 -1.0781 91.9453 -1.4062 Q92 -1.7344 92 -2.4062 L92 -6.6719 Q92 -7.2969 91.9844 -7.6797 Q91.9688 -8.0625 91.8516 -8.2891 Q91.7344 -8.5156 91.4922 -8.625 Q91.25 -8.7344 90.8125 -8.8125 L90.8125 -9.3438 L93.0938 -9.4219 L93.6875 -9.4219 L93.5781 -7.8281 ZM113.5938 -1.3906 L113.4531 -1.4375 Q112.5938 -0.5625 111.8516 -0.2031 Q111.1094 0.1562 110.2656 0.1562 Q109.5156 0.1562 108.9531 -0.1328 Q108.3906 -0.4219 108.0859 -0.9453 Q107.7812 -1.4688 107.7812 -2.1562 Q107.7812 -3.5781 109.1953 -4.3516 Q110.6094 -5.125 113.4219 -5.25 L113.4219 -5.8906 Q113.4219 -6.9062 113.2266 -7.4922 Q113.0312 -8.0781 112.6172 -8.3516 Q112.2031 -8.625 111.5 -8.625 Q110.7344 -8.625 110.2656 -8.2266 Q109.7969 -7.8281 109.5625 -7.0156 L108.2969 -7.0156 L108.2969 -8.2969 Q109.2344 -8.7812 109.8594 -9.0078 Q110.4844 -9.2344 111.1094 -9.3672 Q111.7344 -9.5 112.375 -9.5 Q113.3438 -9.5 113.9297 -9.1953 Q114.5156 -8.8906 114.8047 -8.2578 Q115.0938 -7.625 115.0938 -6.3438 L115.0938 -2.9375 Q115.0938 -2.2188 115.1016 -1.9219 Q115.1094 -1.625 115.1641 -1.3672 Q115.2188 -1.1094 115.3125 -0.9609 Q115.4062 -0.8125 115.6016 -0.7031 Q115.7969 -0.5938 116.2188 -0.4844 L116.2188 0 L113.5469 0 L113.5938 -1.3906 ZM113.4219 -4.4531 Q111.4375 -4.4375 110.4531 -3.9297 Q109.4688 -3.4219 109.4688 -2.3906 Q109.4688 -1.8438 109.6953 -1.5156 Q109.9219 -1.1875 110.2656 -1.0703 Q110.6094 -0.9531 111.0781 -0.9531 Q111.7344 -0.9531 112.2812 -1.2734 Q112.8281 -1.5938 113.125 -2.0938 Q113.4219 -2.5938 113.4219 -3.0781 L113.4219 -4.4531 ZM117.3594 -8.8438 Q117.8438 -8.9219 118.1484 -9.1172 Q118.4531 -9.3125 118.625 -9.625 Q118.7969 -9.9375 118.8984 -10.3984 Q119 -10.8594 119.0938 -11.75 L120.4844 -11.75 L120.4844 -9.3438 L123.6406 -9.3438 L123.6406 -8.3438 L120.4844 -8.3438 L120.4844 -4 Q120.4844 -3.0625 120.5625 -2.5 Q120.6406 -1.9375 120.8594 -1.6172 Q121.0781 -1.2969 121.3516 -1.1641 Q121.625 -1.0312 122.0469 -1.0312 Q122.4375 -1.0312 122.7812 -1.1875 Q123.125 -1.3438 123.4531 -1.6562 L123.8906 -1.125 Q123.2031 -0.4531 122.5859 -0.1484 Q121.9688 0.1562 121.2969 0.1562 Q120.0312 0.1562 119.4219 -0.5938 Q118.8125 -1.3438 118.8125 -2.9375 L118.8125 -8.3438 L117.3594 -8.3438 L117.3594 -8.8438 ZM127.5781 -7.7188 L127.7188 -7.6875 Q128.2656 -8.3438 128.7188 -8.7188 Q129.1719 -9.0938 129.7031 -9.2969 Q130.2344 -9.5 130.9219 -9.5 Q131.4844 -9.5 131.9375 -9.4375 L131.9375 -7.2031 L130.8438 -7.2031 Q130.6094 -7.7188 130.3438 -7.9609 Q130.0781 -8.2031 129.6094 -8.2031 Q129.2656 -8.2031 128.9219 -8 Q128.5781 -7.7969 128.25 -7.4062 Q127.9219 -7.0156 127.8047 -6.6719 Q127.6875 -6.3281 127.6875 -5.8594 L127.6875 -2.4375 Q127.6875 -1.5469 127.7891 -1.2109 Q127.8906 -0.875 128.1406 -0.7188 Q128.3906 -0.5625 128.8906 -0.4844 L128.8906 0 L124.9531 0 L124.9531 -0.4844 Q125.3281 -0.5938 125.4922 -0.6797 Q125.6562 -0.7656 125.7734 -0.9219 Q125.8906 -1.0781 125.9453 -1.4062 Q126 -1.7344 126 -2.4062 L126 -6.6719 Q126 -7.2969 125.9844 -7.6797 Q125.9688 -8.0625 125.8516 -8.2891 Q125.7344 -8.5156 125.4922 -8.625 Q125.25 -8.7344 124.8125 -8.8125 L124.8125 -9.3281 L127.0938 -9.4219 L127.6875 -9.4219 L127.5781 -7.7188 ZM135.7344 -13.1719 L135.7344 -11.2656 L133.9375 -11.2656 L133.9375 -13.1719 L135.7344 -13.1719 ZM132.9531 -0.4844 Q133.3281 -0.5938 133.4922 -0.6797 Q133.6562 -0.7656 133.7656 -0.9219 Q133.875 -1.0781 133.9375 -1.4062 Q134 -1.7344 134 -2.4062 L134 -6.6719 Q134 -7.2969 133.9844 -7.6797 Q133.9688 -8.0625 133.8516 -8.2891 Q133.7344 -8.5156 133.4922 -8.625 Q133.25 -8.7344 132.8125 -8.8125 L132.8125 -9.3438 L135.0938 -9.4219 L135.6875 -9.4219 L135.6875 -2.4375 Q135.6875 -1.6094 135.7656 -1.2812 Q135.8438 -0.9531 136.0625 -0.7812 Q136.2812 -0.6094 136.7812 -0.4844 L136.7812 0 L132.9531 0 L132.9531 -0.4844 ZM143.0781 -5.6406 L144.3438 -7.25 Q144.5469 -7.5156 144.6797 -7.7656 Q144.8125 -8.0156 144.8125 -8.2656 Q144.8125 -8.5 144.6406 -8.6484 Q144.4688 -8.7969 144.125 -8.8594 L144.125 -9.3438 L147.3125 -9.3438 L147.3125 -8.8594 Q146.9531 -8.75 146.5625 -8.4375 Q146.1719 -8.125 145.625 -7.4375 L143.5938 -4.9531 L145.8281 -1.9531 Q146.2969 -1.3125 146.6797 -0.9688 Q147.0625 -0.625 147.4375 -0.4844 L147.4375 0 L143.5156 0 L143.5156 -0.4844 Q144.3281 -0.5781 144.3281 -1.0781 Q144.3281 -1.2969 144.2578 -1.4766 Q144.1875 -1.6562 144 -1.9062 L142.5938 -3.875 L141.0938 -1.9219 Q140.9219 -1.7031 140.8281 -1.5234 Q140.7344 -1.3438 140.7344 -1.125 Q140.7344 -0.8594 140.9141 -0.6875 Q141.0938 -0.5156 141.4844 -0.4844 L141.4844 0 L138.2188 0 L138.2188 -0.4844 Q138.5469 -0.5938 138.8047 -0.7734 Q139.0625 -0.9531 139.3359 -1.2266 Q139.6094 -1.5 140.0469 -2.0469 L142.0781 -4.5625 L140 -7.4062 Q139.5625 -8 139.3125 -8.2656 Q139.0625 -8.5312 138.8438 -8.6641 Q138.625 -8.7969 138.4062 -8.8594 L138.4062 -9.3438 L142.2344 -9.3438 L142.2344 -8.8594 Q141.4688 -8.7344 141.4688 -8.25 Q141.4688 -8.0312 141.5703 -7.8047 Q141.6719 -7.5781 141.8906 -7.3125 L143.0781 -5.6406 ZM158.5938 -1.3906 L158.4531 -1.4375 Q157.5938 -0.5625 156.8516 -0.2031 Q156.1094 0.1562 155.2656 0.1562 Q154.5156 0.1562 153.9531 -0.1328 Q153.3906 -0.4219 153.0859 -0.9453 Q152.7812 -1.4688 152.7812 -2.1562 Q152.7812 -3.5781 154.1953 -4.3516 Q155.6094 -5.125 158.4219 -5.25 L158.4219 -5.8906 Q158.4219 -6.9062 158.2266 -7.4922 Q158.0312 -8.0781 157.6172 -8.3516 Q157.2031 -8.625 156.5 -8.625 Q155.7344 -8.625 155.2656 -8.2266 Q154.7969 -7.8281 154.5625 -7.0156 L153.2969 -7.0156 L153.2969 -8.2969 Q154.2344 -8.7812 154.8594 -9.0078 Q155.4844 -9.2344 156.1094 -9.3672 Q156.7344 -9.5 157.375 -9.5 Q158.3438 -9.5 158.9297 -9.1953 Q159.5156 -8.8906 159.8047 -8.2578 Q160.0938 -7.625 160.0938 -6.3438 L160.0938 -2.9375 Q160.0938 -2.2188 160.1016 -1.9219 Q160.1094 -1.625 160.1641 -1.3672 Q160.2188 -1.1094 160.3125 -0.9609 Q160.4062 -0.8125 160.6016 -0.7031 Q160.7969 -0.5938 161.2188 -0.4844 L161.2188 0 L158.5469 0 L158.5938 -1.3906 ZM158.4219 -4.4531 Q156.4375 -4.4375 155.4531 -3.9297 Q154.4688 -3.4219 154.4688 -2.3906 Q154.4688 -1.8438 154.6953 -1.5156 Q154.9219 -1.1875 155.2656 -1.0703 Q155.6094 -0.9531 156.0781 -0.9531 Q156.7344 -0.9531 157.2812 -1.2734 Q157.8281 -1.5938 158.125 -2.0938 Q158.4219 -2.5938 158.4219 -3.0781 L158.4219 -4.4531 ZM169.4844 -7.2031 L168.5469 -7.2031 Q168.3438 -7.7812 168.0469 -8.1172 Q167.75 -8.4531 167.3828 -8.5938 Q167.0156 -8.7344 166.4688 -8.7344 Q165.6875 -8.7344 165.2266 -8.3672 Q164.7656 -8 164.7656 -7.3594 Q164.7656 -6.9219 164.9531 -6.625 Q165.1406 -6.3281 165.5312 -6.0781 Q165.9219 -5.8281 166.9062 -5.4062 Q167.9062 -4.9688 168.4453 -4.6094 Q168.9844 -4.25 169.2891 -3.7734 Q169.5938 -3.2969 169.5938 -2.625 Q169.5938 -1.8594 169.3359 -1.3281 Q169.0781 -0.7969 168.5938 -0.4688 Q168.1094 -0.1406 167.4531 0.0078 Q166.7969 0.1562 166.0156 0.1562 Q165.1875 0.1562 164.4219 0.0312 Q163.6562 -0.0938 162.9219 -0.2812 L162.9219 -2.3281 L163.875 -2.3281 Q164.1406 -1.4219 164.6562 -1.0156 Q165.1719 -0.6094 166.0781 -0.6094 Q166.4375 -0.6094 166.7734 -0.6875 Q167.1094 -0.7656 167.375 -0.9375 Q167.6406 -1.1094 167.7969 -1.3984 Q167.9531 -1.6875 167.9531 -2.125 Q167.9531 -2.625 167.7578 -2.9375 Q167.5625 -3.25 167.1484 -3.5078 Q166.7344 -3.7656 165.7031 -4.2031 Q164.8125 -4.5781 164.2734 -4.9297 Q163.7344 -5.2812 163.4297 -5.7578 Q163.125 -6.2344 163.125 -6.8906 Q163.125 -7.7031 163.5625 -8.2891 Q164 -8.875 164.8203 -9.1875 Q165.6406 -9.5 166.7344 -9.5 Q167.375 -9.5 167.9766 -9.4375 Q168.5781 -9.375 169.4844 -9.1875 L169.4844 -7.2031 ZM178.4844 -7.2031 L177.5469 -7.2031 Q177.3438 -7.7812 177.0469 -8.1172 Q176.75 -8.4531 176.3828 -8.5938 Q176.0156 -8.7344 175.4688 -8.7344 Q174.6875 -8.7344 174.2266 -8.3672 Q173.7656 -8 173.7656 -7.3594 Q173.7656 -6.9219 173.9531 -6.625 Q174.1406 -6.3281 174.5312 -6.0781 Q174.9219 -5.8281 175.9062 -5.4062 Q176.9062 -4.9688 177.4453 -4.6094 Q177.9844 -4.25 178.2891 -3.7734 Q178.5938 -3.2969 178.5938 -2.625 Q178.5938 -1.8594 178.3359 -1.3281 Q178.0781 -0.7969 177.5938 -0.4688 Q177.1094 -0.1406 176.4531 0.0078 Q175.7969 0.1562 175.0156 0.1562 Q174.1875 0.1562 173.4219 0.0312 Q172.6562 -0.0938 171.9219 -0.2812 L171.9219 -2.3281 L172.875 -2.3281 Q173.1406 -1.4219 173.6562 -1.0156 Q174.1719 -0.6094 175.0781 -0.6094 Q175.4375 -0.6094 175.7734 -0.6875 Q176.1094 -0.7656 176.375 -0.9375 Q176.6406 -1.1094 176.7969 -1.3984 Q176.9531 -1.6875 176.9531 -2.125 Q176.9531 -2.625 176.7578 -2.9375 Q176.5625 -3.25 176.1484 -3.5078 Q175.7344 -3.7656 174.7031 -4.2031 Q173.8125 -4.5781 173.2734 -4.9297 Q172.7344 -5.2812 172.4297 -5.7578 Q172.125 -6.2344 172.125 -6.8906 Q172.125 -7.7031 172.5625 -8.2891 Q173 -8.875 173.8203 -9.1875 Q174.6406 -9.5 175.7344 -9.5 Q176.375 -9.5 176.9766 -9.4375 Q177.5781 -9.375 178.4844 -9.1875 L178.4844 -7.2031 ZM185.2031 0.1562 Q183.1719 0.1562 182.1016 -1.0391 Q181.0312 -2.2344 181.0312 -4.5781 Q181.0312 -6.1875 181.5938 -7.3047 Q182.1562 -8.4219 183.1328 -8.9609 Q184.1094 -9.5 185.3594 -9.5 Q187.4375 -9.5 188.5156 -8.2891 Q189.5938 -7.0781 189.5938 -4.7969 Q189.5938 -3.1719 189.0547 -2.0625 Q188.5156 -0.9531 187.5312 -0.3984 Q186.5469 0.1562 185.2031 0.1562 ZM182.875 -4.7812 Q182.875 -2.7812 183.5156 -1.6953 Q184.1562 -0.6094 185.3438 -0.6094 Q186 -0.6094 186.4609 -0.9297 Q186.9219 -1.25 187.2031 -1.7891 Q187.4844 -2.3281 187.6172 -3.0312 Q187.75 -3.7344 187.75 -4.5156 Q187.75 -5.9531 187.4297 -6.8984 Q187.1094 -7.8438 186.5625 -8.2891 Q186.0156 -8.7344 185.3125 -8.7344 Q184.125 -8.7344 183.5 -7.7109 Q182.875 -6.6875 182.875 -4.7812 ZM199.2188 -9.1094 L199.2188 -7.0781 L197.9844 -7.0781 Q197.8125 -7.7031 197.5703 -8.0703 Q197.3281 -8.4375 197.0078 -8.5859 Q196.6875 -8.7344 196.2031 -8.7344 Q195.5156 -8.7344 194.9922 -8.2969 Q194.4688 -7.8594 194.1641 -6.9609 Q193.8594 -6.0625 193.8594 -4.75 Q193.8594 -3.9219 193.9766 -3.2344 Q194.0938 -2.5469 194.375 -2.0625 Q194.6562 -1.5781 195.125 -1.3047 Q195.5938 -1.0312 196.2812 -1.0312 Q196.9531 -1.0312 197.5391 -1.2891 Q198.125 -1.5469 198.75 -2.2188 L199.2969 -1.5781 Q198.7969 -1.0312 198.4219 -0.7344 Q198.0469 -0.4375 197.6094 -0.2344 Q197.1719 -0.0312 196.75 0.0625 Q196.3281 0.1562 195.8281 0.1562 Q193.9844 0.1562 193.0078 -1.0703 Q192.0312 -2.2969 192.0312 -4.6094 Q192.0312 -6.0625 192.5781 -7.1797 Q193.125 -8.2969 194.1094 -8.8984 Q195.0938 -9.5 196.375 -9.5 Q197.1875 -9.5 197.8672 -9.4062 Q198.5469 -9.3125 199.2188 -9.1094 ZM203.7344 -13.1719 L203.7344 -11.2656 L201.9375 -11.2656 L201.9375 -13.1719 L203.7344 -13.1719 ZM200.9531 -0.4844 Q201.3281 -0.5938 201.4922 -0.6797 Q201.6562 -0.7656 201.7656 -0.9219 Q201.875 -1.0781 201.9375 -1.4062 Q202 -1.7344 202 -2.4062 L202 -6.6719 Q202 -7.2969 201.9844 -7.6797 Q201.9688 -8.0625 201.8516 -8.2891 Q201.7344 -8.5156 201.4922 -8.625 Q201.25 -8.7344 200.8125 -8.8125 L200.8125 -9.3438 L203.0938 -9.4219 L203.6875 -9.4219 L203.6875 -2.4375 Q203.6875 -1.6094 203.7656 -1.2812 Q203.8438 -0.9531 204.0625 -0.7812 Q204.2812 -0.6094 204.7812 -0.4844 L204.7812 0 L200.9531 0 L200.9531 -0.4844 ZM212.5938 -1.3906 L212.4531 -1.4375 Q211.5938 -0.5625 210.8516 -0.2031 Q210.1094 0.1562 209.2656 0.1562 Q208.5156 0.1562 207.9531 -0.1328 Q207.3906 -0.4219 207.0859 -0.9453 Q206.7812 -1.4688 206.7812 -2.1562 Q206.7812 -3.5781 208.1953 -4.3516 Q209.6094 -5.125 212.4219 -5.25 L212.4219 -5.8906 Q212.4219 -6.9062 212.2266 -7.4922 Q212.0312 -8.0781 211.6172 -8.3516 Q211.2031 -8.625 210.5 -8.625 Q209.7344 -8.625 209.2656 -8.2266 Q208.7969 -7.8281 208.5625 -7.0156 L207.2969 -7.0156 L207.2969 -8.2969 Q208.2344 -8.7812 208.8594 -9.0078 Q209.4844 -9.2344 210.1094 -9.3672 Q210.7344 -9.5 211.375 -9.5 Q212.3438 -9.5 212.9297 -9.1953 Q213.5156 -8.8906 213.8047 -8.2578 Q214.0938 -7.625 214.0938 -6.3438 L214.0938 -2.9375 Q214.0938 -2.2188 214.1016 -1.9219 Q214.1094 -1.625 214.1641 -1.3672 Q214.2188 -1.1094 214.3125 -0.9609 Q214.4062 -0.8125 214.6016 -0.7031 Q214.7969 -0.5938 215.2188 -0.4844 L215.2188 0 L212.5469 0 L212.5938 -1.3906 ZM212.4219 -4.4531 Q210.4375 -4.4375 209.4531 -3.9297 Q208.4688 -3.4219 208.4688 -2.3906 Q208.4688 -1.8438 208.6953 -1.5156 Q208.9219 -1.1875 209.2656 -1.0703 Q209.6094 -0.9531 210.0781 -0.9531 Q210.7344 -0.9531 211.2812 -1.2734 Q211.8281 -1.5938 212.125 -2.0938 Q212.4219 -2.5938 212.4219 -3.0781 L212.4219 -4.4531 ZM216.3594 -8.8438 Q216.8438 -8.9219 217.1484 -9.1172 Q217.4531 -9.3125 217.625 -9.625 Q217.7969 -9.9375 217.8984 -10.3984 Q218 -10.8594 218.0938 -11.75 L219.4844 -11.75 L219.4844 -9.3438 L222.6406 -9.3438 L222.6406 -8.3438 L219.4844 -8.3438 L219.4844 -4 Q219.4844 -3.0625 219.5625 -2.5 Q219.6406 -1.9375 219.8594 -1.6172 Q220.0781 -1.2969 220.3516 -1.1641 Q220.625 -1.0312 221.0469 -1.0312 Q221.4375 -1.0312 221.7812 -1.1875 Q222.125 -1.3438 222.4531 -1.6562 L222.8906 -1.125 Q222.2031 -0.4531 221.5859 -0.1484 Q220.9688 0.1562 220.2969 0.1562 Q219.0312 0.1562 218.4219 -0.5938 Q217.8125 -1.3438 217.8125 -2.9375 L217.8125 -8.3438 L216.3594 -8.3438 L216.3594 -8.8438 ZM231.75 -1.6562 Q231.125 -1 230.6016 -0.6328 Q230.0781 -0.2656 229.4531 -0.0547 Q228.8281 0.1562 228.0781 0.1562 Q226.0625 0.1562 225.0391 -1.0469 Q224.0156 -2.25 224.0156 -4.6094 Q224.0156 -6.0625 224.5391 -7.1797 Q225.0625 -8.2969 226.0312 -8.8984 Q227 -9.5 228.25 -9.5 Q229.2344 -9.5 229.9297 -9.1875 Q230.625 -8.875 231.0391 -8.3359 Q231.4531 -7.7969 231.6875 -6.9688 Q231.9219 -6.1406 231.9531 -4.8125 L225.7969 -4.8125 L225.7969 -4.6406 Q225.7969 -3.4844 226.0547 -2.7031 Q226.3125 -1.9219 226.9062 -1.4766 Q227.5 -1.0312 228.4375 -1.0312 Q229.2344 -1.0312 229.875 -1.3281 Q230.5156 -1.625 231.1562 -2.2969 L231.75 -1.6562 ZM230.1094 -5.625 Q230.0469 -6.6875 229.8438 -7.3516 Q229.6406 -8.0156 229.2344 -8.375 Q228.8281 -8.7344 228.1562 -8.7344 Q227.1562 -8.7344 226.5547 -7.9297 Q225.9531 -7.125 225.8438 -5.625 L230.1094 -5.625 ZM240.5469 -10.6094 Q240.5469 -11.5469 240.5312 -11.9219 Q240.5156 -12.2969 240.4531 -12.5547 Q240.3906 -12.8125 240.2734 -12.9609 Q240.1562 -13.1094 239.9688 -13.1953 Q239.7812 -13.2812 239.2812 -13.375 L239.2812 -13.875 L241.6406 -13.9688 L242.2188 -13.9688 L242.2188 -2.6719 Q242.2188 -1.9062 242.25 -1.5781 Q242.2812 -1.25 242.375 -1.0547 Q242.4688 -0.8594 242.6797 -0.7344 Q242.8906 -0.6094 243.4219 -0.5156 L243.4219 0 L241.1094 0.0938 L240.5312 0.0938 L240.6406 -1.5 L240.5 -1.5469 Q239.8906 -0.8906 239.4375 -0.5625 Q238.9844 -0.2344 238.4688 -0.0391 Q237.9531 0.1562 237.3594 0.1562 Q235.7656 0.1562 234.8984 -1.0625 Q234.0312 -2.2812 234.0312 -4.5781 Q234.0312 -6.1719 234.5938 -7.2891 Q235.1562 -8.4062 236.1172 -8.9531 Q237.0781 -9.5 238.2812 -9.5 Q238.9219 -9.5 239.4531 -9.3984 Q239.9844 -9.2969 240.5469 -9.0625 L240.5469 -10.6094 ZM240.5469 -5.7969 Q240.5469 -6.5469 240.4766 -7.0078 Q240.4062 -7.4688 240.2422 -7.7812 Q240.0781 -8.0938 239.8047 -8.3125 Q239.5312 -8.5312 239.2031 -8.625 Q238.875 -8.7188 238.4219 -8.7188 Q237.1719 -8.7188 236.5156 -7.7188 Q235.8594 -6.7188 235.8594 -4.8438 Q235.8594 -2.9688 236.3984 -1.9922 Q236.9375 -1.0156 238.0312 -1.0156 Q238.4531 -1.0156 238.7422 -1.0859 Q239.0312 -1.1562 239.3047 -1.3203 Q239.5781 -1.4844 239.8594 -1.7656 Q240.1406 -2.0469 240.2734 -2.2812 Q240.4062 -2.5156 240.4766 -2.8203 Q240.5469 -3.125 240.5469 -3.6094 L240.5469 -5.7969 ZM255.7969 -7.2969 L253.2344 0.0469 L251.875 0.0469 L249.5312 -7.2031 Q249.3125 -7.9062 249.1562 -8.1953 Q249 -8.4844 248.8359 -8.625 Q248.6719 -8.7656 248.2812 -8.8594 L248.2812 -9.3438 L252.1406 -9.3438 L252.1406 -8.8594 Q251.5781 -8.7344 251.375 -8.5469 Q251.1719 -8.3594 251.1719 -7.9844 Q251.1719 -7.7188 251.2344 -7.4297 Q251.2969 -7.1406 251.4062 -6.7656 L252.9375 -1.7812 L255.4531 -9.3438 L256.8281 -9.3438 L258.9531 -1.7812 L260.6719 -6.5469 Q260.8125 -6.9219 260.8984 -7.2578 Q260.9844 -7.5938 260.9844 -7.8906 Q260.9844 -8.2969 260.7656 -8.5234 Q260.5469 -8.75 260.0156 -8.8594 L260.0156 -9.3438 L263.4375 -9.3438 L263.4375 -8.8594 Q263.1562 -8.7969 263.0234 -8.7188 Q262.8906 -8.6406 262.7578 -8.5 Q262.625 -8.3594 262.4609 -8.0625 Q262.2969 -7.7656 262.0469 -7.1406 L259.2344 0.0469 L257.9062 0.0469 L255.7969 -7.2969 ZM266.7344 -13.1719 L266.7344 -11.2656 L264.9375 -11.2656 L264.9375 -13.1719 L266.7344 -13.1719 ZM263.9531 -0.4844 Q264.3281 -0.5938 264.4922 -0.6797 Q264.6562 -0.7656 264.7656 -0.9219 Q264.875 -1.0781 264.9375 -1.4062 Q265 -1.7344 265 -2.4062 L265 -6.6719 Q265 -7.2969 264.9844 -7.6797 Q264.9688 -8.0625 264.8516 -8.2891 Q264.7344 -8.5156 264.4922 -8.625 Q264.25 -8.7344 263.8125 -8.8125 L263.8125 -9.3438 L266.0938 -9.4219 L266.6875 -9.4219 L266.6875 -2.4375 Q266.6875 -1.6094 266.7656 -1.2812 Q266.8438 -0.9531 267.0625 -0.7812 Q267.2812 -0.6094 267.7812 -0.4844 L267.7812 0 L263.9531 0 L263.9531 -0.4844 ZM269.3594 -8.8438 Q269.8438 -8.9219 270.1484 -9.1172 Q270.4531 -9.3125 270.625 -9.625 Q270.7969 -9.9375 270.8984 -10.3984 Q271 -10.8594 271.0938 -11.75 L272.4844 -11.75 L272.4844 -9.3438 L275.6406 -9.3438 L275.6406 -8.3438 L272.4844 -8.3438 L272.4844 -4 Q272.4844 -3.0625 272.5625 -2.5 Q272.6406 -1.9375 272.8594 -1.6172 Q273.0781 -1.2969 273.3516 -1.1641 Q273.625 -1.0312 274.0469 -1.0312 Q274.4375 -1.0312 274.7812 -1.1875 Q275.125 -1.3438 275.4531 -1.6562 L275.8906 -1.125 Q275.2031 -0.4531 274.5859 -0.1484 Q273.9688 0.1562 273.2969 0.1562 Q272.0312 0.1562 271.4219 -0.5938 Q270.8125 -1.3438 270.8125 -2.9375 L270.8125 -8.3438 L269.3594 -8.3438 L269.3594 -8.8438 ZM279.5625 -7.7969 L279.6094 -7.7969 Q280.3594 -8.5625 280.8047 -8.875 Q281.25 -9.1875 281.6875 -9.3438 Q282.125 -9.5 282.625 -9.5 Q283.1562 -9.5 283.5781 -9.3672 Q284 -9.2344 284.3203 -8.9766 Q284.6406 -8.7188 284.8359 -8.3438 Q285.0312 -7.9688 285.1328 -7.4453 Q285.2344 -6.9219 285.2344 -6.125 L285.2344 -2.4375 Q285.2344 -1.5938 285.3047 -1.2891 Q285.375 -0.9844 285.5625 -0.8125 Q285.75 -0.6406 286.3281 -0.4844 L286.3281 0 L282.4844 0 L282.4844 -0.4844 Q282.8594 -0.5938 283.0312 -0.6797 Q283.2031 -0.7656 283.3125 -0.9219 Q283.4219 -1.0781 283.4844 -1.4062 Q283.5469 -1.7344 283.5469 -2.4062 L283.5469 -4.9688 Q283.5469 -6.2656 283.4141 -6.9531 Q283.2812 -7.6406 282.8984 -7.9844 Q282.5156 -8.3281 281.8281 -8.3281 Q281.4375 -8.3281 281.125 -8.1875 Q280.8125 -8.0469 280.3984 -7.6953 Q279.9844 -7.3438 279.7734 -6.9766 Q279.5625 -6.6094 279.5625 -6.1875 L279.5625 -2.4375 Q279.5625 -1.7812 279.6016 -1.5 Q279.6406 -1.2188 279.7344 -1.0234 Q279.8281 -0.8281 280.0312 -0.7109 Q280.2344 -0.5938 280.6562 -0.4844 L280.6562 0 L276.7812 0 L276.7812 -0.4844 Q277.2188 -0.5938 277.3984 -0.7031 Q277.5781 -0.8125 277.6797 -0.9766 Q277.7812 -1.1406 277.8359 -1.4531 Q277.8906 -1.7656 277.8906 -2.4375 L277.8906 -10.6094 Q277.8906 -11.5469 277.875 -11.9219 Q277.8594 -12.2969 277.7969 -12.5547 Q277.7344 -12.8125 277.6172 -12.9609 Q277.5 -13.1094 277.3125 -13.1953 Q277.125 -13.2812 276.625 -13.375 L276.625 -13.875 L278.9844 -13.9688 L279.5625 -13.9688 L279.5625 -7.7969 ZM298.0781 4.2188 Q296.5625 4.2188 295.6797 3.8281 Q294.7969 3.4375 294.4141 2.6641 Q294.0312 1.8906 294.0312 0.5781 L294.0312 -2.25 Q294.0312 -3.1094 293.8125 -3.5938 Q293.5938 -4.0781 293.1562 -4.2734 Q292.7188 -4.4688 291.9219 -4.4688 L291.9219 -5.2812 Q292.7031 -5.2812 293.1484 -5.4766 Q293.5938 -5.6719 293.8125 -6.1484 Q294.0312 -6.625 294.0312 -7.5 L294.0312 -10.3281 Q294.0312 -11.625 294.4141 -12.4062 Q294.7969 -13.1875 295.6797 -13.5781 Q296.5625 -13.9688 298.0781 -13.9688 L298.3281 -13.9688 L298.3281 -13.1719 Q297.5469 -13.1719 297.1641 -13.0938 Q296.7812 -13.0156 296.5391 -12.8438 Q296.2969 -12.6719 296.1406 -12.4141 Q295.9844 -12.1562 295.8984 -11.6875 Q295.8125 -11.2188 295.8125 -10.4375 L295.8125 -8.5469 Q295.8125 -7.5625 295.6406 -6.8984 Q295.4688 -6.2344 295.0312 -5.7578 Q294.5938 -5.2812 293.8281 -4.9688 L293.8281 -4.7812 Q294.5781 -4.4844 295.0312 -3.9844 Q295.4844 -3.4844 295.6484 -2.8203 Q295.8125 -2.1562 295.8125 -1.2031 L295.8125 0.6875 Q295.8125 1.4688 295.8984 1.9375 Q295.9844 2.4062 296.1406 2.6719 Q296.2969 2.9375 296.5391 3.1016 Q296.7812 3.2656 297.1641 3.3438 Q297.5469 3.4219 298.3281 3.4219 L298.3281 4.2188 L298.0781 4.2188 Z" stroke="none"/></g><g text-rendering="optimizeLegibility" transform="translate(497.157,45)" color-rendering="optimizeQuality" color-interpolation="linearRGB" image-rendering="optimizeQuality"><path d="M6.8125 -1.6875 L6.7812 -1.6875 Q5.7812 0.1562 3.7031 0.1562 Q2.4219 0.1562 1.6484 -0.6406 Q0.875 -1.4375 0.875 -2.9219 Q0.875 -4.7656 2.0312 -6.4766 Q3.1875 -8.1875 5.3281 -9.5 L5.7188 -8.8438 Q4.3438 -7.7812 3.4531 -6.1094 Q2.5625 -4.4375 2.5625 -2.8438 Q2.5625 -1.7031 3.0234 -1.1562 Q3.4844 -0.6094 4.2188 -0.6094 Q4.8906 -0.6094 5.4375 -1.2266 Q5.9844 -1.8438 6.2031 -2.9219 L6.9375 -6.6094 L8.5781 -6.6094 L7.7969 -2.8438 Q7.7188 -2.4219 7.7188 -2.0781 Q7.7188 -1.3906 8.0547 -1 Q8.3906 -0.6094 8.9844 -0.6094 Q10.1875 -0.6094 10.9922 -2.1094 Q11.7969 -3.6094 11.7969 -5.7812 Q11.7969 -7.8125 11 -8.9375 L11.5625 -9.5 Q13.5156 -7.6406 13.5156 -5.3594 Q13.5156 -3.125 12.2344 -1.4844 Q10.9531 0.1562 8.9688 0.1562 Q7.1562 0.1562 6.8125 -1.6875 Z" stroke="none"/></g><g text-rendering="optimizeLegibility" transform="translate(512.2507,45)" color-rendering="optimizeQuality" color-interpolation="linearRGB" image-rendering="optimizeQuality"><path d="M0.6719 -13.9688 Q2.1875 -13.9688 3.0703 -13.5781 Q3.9531 -13.1875 4.3281 -12.4062 Q4.7031 -11.625 4.7031 -10.3281 L4.7031 -7.5 Q4.7031 -6.625 4.9297 -6.1484 Q5.1562 -5.6719 5.5938 -5.4766 Q6.0312 -5.2812 6.8125 -5.2812 L6.8125 -4.4688 Q6.0312 -4.4688 5.5859 -4.2734 Q5.1406 -4.0781 4.9219 -3.5938 Q4.7031 -3.1094 4.7031 -2.25 L4.7031 0.5781 Q4.7031 1.8906 4.3281 2.6641 Q3.9531 3.4375 3.0703 3.8281 Q2.1875 4.2188 0.6719 4.2188 L0.4219 4.2188 L0.4219 3.4219 Q1.1875 3.4219 1.5781 3.3438 Q1.9688 3.2656 2.2031 3.1016 Q2.4375 2.9375 2.5938 2.6719 Q2.75 2.4062 2.8438 1.9375 Q2.9375 1.4688 2.9375 0.6875 L2.9375 -1.2031 Q2.9375 -2.1875 3.1016 -2.8438 Q3.2656 -3.5 3.7109 -3.9844 Q4.1562 -4.4688 4.9062 -4.7812 L4.9062 -4.9688 Q4.1719 -5.2656 3.7188 -5.7656 Q3.2656 -6.2656 3.1016 -6.9297 Q2.9375 -7.5938 2.9375 -8.5469 L2.9375 -10.4375 Q2.9375 -11.2188 2.8438 -11.6875 Q2.75 -12.1562 2.5938 -12.4141 Q2.4375 -12.6719 2.2031 -12.8438 Q1.9688 -13.0156 1.5781 -13.0938 Q1.1875 -13.1719 0.4219 -13.1719 L0.4219 -13.9688 L0.6719 -13.9688 Z" stroke="none"/></g></g></svg>