<?xml version="1.0" encoding="UTF-8" standalone="no"?><svg xmlns="http://www.w3.org/2000/svg" xmlns:xlink="http://www.w3.org/1999/xlink" stroke-dasharray="none" shape-rendering="auto" font-family="'Dialog'" width="48.812600" text-rendering="auto" fill-opacity="1" contentScriptType="text/ecmascript" color-interpolation="auto" color-rendering="auto" preserveAspectRatio="xMidYMid meet" font-size="12" fill="black" stroke="black" image-rendering="auto" stroke-miterlimit="10" zoomAndPan="magnify" version="1.0" stroke-linecap="square" stroke-linejoin="miter" contentStyleType="text/css" font-style="normal" height="41" stroke-width="1" stroke-dashoffset="0" font-weight="normal" stroke-opacity="1" y="-11.000000"><!--Converted from MathML using JEuclid--><defs id="genericDefs"/><g><g text-rendering="optimizeLegibility" transform="translate(1.0781,32.204) matrix(1,0,0,1.9331,0,0)" color-rendering="optimizeQuality" color-interpolation="linearRGB" image-rendering="optimizeQuality"><path d="M7.0781 4.2188 Q5.5625 4.2188 4.6797 3.8281 Q3.7969 3.4375 3.4141 2.6641 Q3.0312 1.8906 3.0312 0.5781 L3.0312 -2.25 Q3.0312 -3.1094 2.8125 -3.5938 Q2.5938 -4.0781 2.1562 -4.2734 Q1.7188 -4.4688 0.9219 -4.4688 L0.9219 -5.2812 Q1.7031 -5.2812 2.1484 -5.4766 Q2.5938 -5.6719 2.8125 -6.1484 Q3.0312 -6.625 3.0312 -7.5 L3.0312 -10.3281 Q3.0312 -11.625 3.4141 -12.4062 Q3.7969 -13.1875 4.6797 -13.5781 Q5.5625 -13.9688 7.0781 -13.9688 L7.3281 -13.9688 L7.3281 -13.1719 Q6.5469 -13.1719 6.1641 -13.0938 Q5.7812 -13.0156 5.5391 -12.8438 Q5.2969 -12.6719 5.1406 -12.4141 Q4.9844 -12.1562 4.8984 -11.6875 Q4.8125 -11.2188 4.8125 -10.4375 L4.8125 -8.5469 Q4.8125 -7.5625 4.6406 -6.8984 Q4.4688 -6.2344 4.0312 -5.7578 Q3.5938 -5.2812 2.8281 -4.9688 L2.8281 -4.7812 Q3.5781 -4.4844 4.0312 -3.9844 Q4.4844 -3.4844 4.6484 -2.8203 Q4.8125 -2.1562 4.8125 -1.2031 L4.8125 0.6875 Q4.8125 1.4688 4.8984 1.9375 Q4.9844 2.4062 5.1406 2.6719 Q5.2969 2.9375 5.5391 3.1016 Q5.7812 3.2656 6.1641 3.3438 Q6.5469 3.4219 7.3281 3.4219 L7.3281 4.2188 L7.0781 4.2188 Z" stroke="none"/></g><g text-rendering="optimizeLegibility" transform="translate(10.4062,30)" color-rendering="optimizeQuality" color-interpolation="linearRGB" image-rendering="optimizeQuality"><path d="M6.3125 0.125 L5.4219 4.2188 L3.875 4.2188 L4.7812 0.125 Q2.8594 -0.0156 1.8438 -1.0312 Q0.8281 -2.0469 0.8281 -3.7812 Q0.8281 -6.2344 2.5938 -7.875 Q4.3594 -9.5156 6.9219 -9.5156 L7.8281 -13.5312 L9.3438 -13.5312 L8.4531 -9.5156 Q10.2812 -9.4062 11.375 -8.2969 Q12.4688 -7.1875 12.4688 -5.5 Q12.4688 -3.1562 10.8828 -1.5156 Q9.2969 0.125 6.3125 0.125 ZM8.2812 -8.7188 L6.5 -0.6719 Q8.4531 -0.7344 9.6172 -2.125 Q10.7812 -3.5156 10.7812 -5.6875 Q10.7812 -6.9688 10.0781 -7.8125 Q9.375 -8.6562 8.2812 -8.7188 ZM6.7344 -8.7188 Q5 -8.6562 3.7422 -7.2266 Q2.4844 -5.7969 2.4844 -3.7656 Q2.4844 -2.5 3.1562 -1.6328 Q3.8281 -0.7656 4.9688 -0.6719 L6.7344 -8.7188 Z" stroke="none"/></g><g text-rendering="optimizeLegibility" transform="translate(24.6719,37.2969)" color-rendering="optimizeQuality" color-interpolation="linearRGB" image-rendering="optimizeQuality"><path d="M3.8438 -9.2188 L3.5312 -7.8906 L2.3281 -7.8906 L2.6406 -9.2188 L3.8438 -9.2188 ZM1.7969 0.1094 Q1.5781 1.1562 1.2031 1.7891 Q0.8281 2.4219 0.2188 2.7422 Q-0.3906 3.0625 -1.2188 3.0625 Q-1.5625 3.0625 -1.7969 2.9844 L-1.6406 2.3906 Q-1.5312 2.4219 -1.3984 2.4297 Q-1.2656 2.4375 -1.125 2.4375 Q-0.7969 2.4375 -0.5625 2.3438 Q-0.3281 2.25 -0.1328 2.0156 Q0.0625 1.7812 0.2266 1.375 Q0.3906 0.9688 0.5469 0.3125 L1.6406 -4.6094 Q1.7344 -4.9844 1.7734 -5.2266 Q1.8125 -5.4688 1.8125 -5.6406 Q1.8125 -5.8281 1.75 -5.9375 Q1.6875 -6.0469 1.5547 -6.1016 Q1.4219 -6.1562 1.0781 -6.1719 L1.1562 -6.5312 L2.8281 -6.5938 L3.2188 -6.5938 L1.7969 0.1094 Z" stroke="none"/></g><g text-rendering="optimizeLegibility" transform="translate(30.0938,32.204) matrix(1,0,0,1.9331,0,0)" color-rendering="optimizeQuality" color-interpolation="linearRGB" image-rendering="optimizeQuality"><path d="M0.6719 -13.9688 Q2.1875 -13.9688 3.0703 -13.5781 Q3.9531 -13.1875 4.3281 -12.4062 Q4.7031 -11.625 4.7031 -10.3281 L4.7031 -7.5 Q4.7031 -6.625 4.9297 -6.1484 Q5.1562 -5.6719 5.5938 -5.4766 Q6.0312 -5.2812 6.8125 -5.2812 L6.8125 -4.4688 Q6.0312 -4.4688 5.5859 -4.2734 Q5.1406 -4.0781 4.9219 -3.5938 Q4.7031 -3.1094 4.7031 -2.25 L4.7031 0.5781 Q4.7031 1.8906 4.3281 2.6641 Q3.9531 3.4375 3.0703 3.8281 Q2.1875 4.2188 0.6719 4.2188 L0.4219 4.2188 L0.4219 3.4219 Q1.1875 3.4219 1.5781 3.3438 Q1.9688 3.2656 2.2031 3.1016 Q2.4375 2.9375 2.5938 2.6719 Q2.75 2.4062 2.8438 1.9375 Q2.9375 1.4688 2.9375 0.6875 L2.9375 -1.2031 Q2.9375 -2.1875 3.1016 -2.8438 Q3.2656 -3.5 3.7109 -3.9844 Q4.1562 -4.4688 4.9062 -4.7812 L4.9062 -4.9688 Q4.1719 -5.2656 3.7188 -5.7656 Q3.2656 -6.2656 3.1016 -6.9297 Q2.9375 -7.5938 2.9375 -8.5469 L2.9375 -10.4375 Q2.9375 -11.2188 2.8438 -11.6875 Q2.75 -12.1562 2.5938 -12.4141 Q2.4375 -12.6719 2.2031 -12.8438 Q1.9688 -13.0156 1.5781 -13.0938 Q1.1875 -13.1719 0.4219 -13.1719 L0.4219 -13.9688 L0.6719 -13.9688 Z" stroke="none"/></g><g text-rendering="optimizeLegibility" transform="translate(38.9062,9.8647)" color-rendering="optimizeQuality" color-interpolation="linearRGB" image-rendering="optimizeQuality"><path d="M4.875 0 L1.9844 0 L2.0625 -0.3281 Q2.3281 -0.375 2.4609 -0.4453 Q2.5938 -0.5156 2.6953 -0.6562 Q2.7969 -0.7969 2.8984 -1.1016 Q3 -1.4062 3.125 -2.0312 L4.5938 -8.7344 L3.7188 -8.7344 Q3.2969 -8.7344 3.0469 -8.6094 Q2.7969 -8.4844 2.5469 -8.1484 Q2.2969 -7.8125 1.9219 -7.0312 L1.2656 -7.0312 L1.7812 -9.3281 L8.9219 -9.3281 L8.3906 -6.9219 L7.7344 -6.9219 Q7.7344 -7.5938 7.6953 -7.9219 Q7.6562 -8.25 7.5625 -8.4219 Q7.4688 -8.5938 7.3281 -8.6641 Q7.1875 -8.7344 6.8438 -8.7344 L5.8281 -8.7344 L4.3438 -1.9844 Q4.2812 -1.7188 4.2578 -1.5625 Q4.2344 -1.4062 4.2188 -1.2344 Q4.2031 -1.0625 4.2031 -0.9219 Q4.2031 -0.7188 4.2656 -0.5938 Q4.3281 -0.4688 4.4688 -0.4141 Q4.6094 -0.3594 4.9375 -0.3281 L4.875 0 Z" stroke="none"/></g></g></svg>