<?xml version="1.0" encoding="UTF-8" standalone="no"?><svg xmlns="http://www.w3.org/2000/svg" xmlns:xlink="http://www.w3.org/1999/xlink" stroke-dasharray="none" shape-rendering="auto" font-family="'Dialog'" width="34.812600" text-rendering="auto" fill-opacity="1" contentScriptType="text/ecmascript" color-interpolation="auto" color-rendering="auto" preserveAspectRatio="xMidYMid meet" font-size="12" fill="black" stroke="black" image-rendering="auto" stroke-miterlimit="10" zoomAndPan="magnify" version="1.0" stroke-linecap="square" stroke-linejoin="miter" contentStyleType="text/css" font-style="normal" height="25" stroke-width="1" stroke-dashoffset="0" font-weight="normal" stroke-opacity="1" y="-10.000000"><!--Converted from MathML using JEuclid--><defs id="genericDefs"/><g><g text-rendering="optimizeLegibility" transform="translate(2.625,15)" color-rendering="optimizeQuality" color-interpolation="linearRGB" image-rendering="optimizeQuality"><path d="M2.4844 0.1719 Q2.1562 1.7344 1.5703 2.6484 Q0.9844 3.5625 0.1562 3.9609 Q-0.6719 4.3594 -1.8594 4.3594 Q-2.2812 4.3594 -2.625 4.2656 L-2.4062 3.4062 Q-2.1719 3.4844 -1.7188 3.4844 Q-1.2031 3.4844 -0.875 3.3516 Q-0.5469 3.2188 -0.2656 2.9062 Q0.0156 2.5938 0.2656 2.0078 Q0.5156 1.4219 0.7344 0.4531 L2.7188 -8.3438 L1.5312 -8.3438 L1.6562 -8.8438 Q2.125 -8.8906 2.3203 -8.9766 Q2.5156 -9.0625 2.6406 -9.2031 Q2.7656 -9.3438 2.8594 -9.6016 Q2.9531 -9.8594 3.1406 -10.5 Q3.6562 -12.25 4.7422 -13.1406 Q5.8281 -14.0312 7.4844 -14.0312 Q8.4531 -14.0312 9.1406 -13.875 L8.7656 -12.2031 L7.9062 -12.2031 Q7.7656 -12.7656 7.5469 -13.0078 Q7.3281 -13.25 6.8906 -13.25 Q6.3438 -13.25 5.9531 -12.9453 Q5.5625 -12.6406 5.2812 -12.0312 Q5 -11.4219 4.7656 -10.4062 L4.5156 -9.3438 L6.7656 -9.3438 L6.5469 -8.3438 L4.2969 -8.3438 L2.4844 0.1719 Z" stroke="none"/></g><g text-rendering="optimizeLegibility" transform="translate(11.7656,24.1953)" color-rendering="optimizeQuality" color-interpolation="linearRGB" image-rendering="optimizeQuality"><path d="M2.4844 -1.7031 Q2.4844 -1.125 2.5391 -0.8906 Q2.5938 -0.6562 2.75 -0.5391 Q2.9062 -0.4219 3.25 -0.3281 L3.25 0 L0.5469 0 L0.5469 -0.3281 Q0.875 -0.4219 1.0156 -0.5156 Q1.1562 -0.6094 1.2109 -0.7422 Q1.2656 -0.875 1.2891 -1.1094 Q1.3125 -1.3438 1.3125 -1.7031 L1.3125 -7.4375 Q1.3125 -8.0938 1.3047 -8.3516 Q1.2969 -8.6094 1.25 -8.7891 Q1.2031 -8.9688 1.125 -9.0703 Q1.0469 -9.1719 0.9141 -9.2344 Q0.7812 -9.2969 0.4375 -9.3594 L0.4375 -9.7188 L2.0781 -9.7812 L2.4844 -9.7812 L2.4844 -1.7031 ZM7.6406 0.1094 Q6.2188 0.1094 5.4688 -0.7266 Q4.7188 -1.5625 4.7188 -3.2031 Q4.7188 -4.3281 5.1094 -5.1094 Q5.5 -5.8906 6.1875 -6.2734 Q6.875 -6.6562 7.75 -6.6562 Q9.2031 -6.6562 9.9609 -5.8047 Q10.7188 -4.9531 10.7188 -3.3594 Q10.7188 -2.2188 10.3438 -1.4375 Q9.9688 -0.6562 9.2734 -0.2734 Q8.5781 0.1094 7.6406 0.1094 ZM6.0156 -3.3438 Q6.0156 -1.9375 6.4609 -1.1875 Q6.9062 -0.4375 7.7344 -0.4375 Q8.2031 -0.4375 8.5234 -0.6562 Q8.8438 -0.875 9.0469 -1.25 Q9.25 -1.625 9.3359 -2.125 Q9.4219 -2.625 9.4219 -3.1562 Q9.4219 -4.1562 9.2031 -4.8203 Q8.9844 -5.4844 8.6016 -5.7969 Q8.2188 -6.1094 7.7188 -6.1094 Q6.8906 -6.1094 6.4531 -5.3906 Q6.0156 -4.6719 6.0156 -3.3438 ZM16.4531 -5.1094 L14.6719 0.0312 L13.7188 0.0312 L12.0781 -5.0312 Q11.9219 -5.5312 11.8125 -5.7344 Q11.7031 -5.9375 11.5859 -6.0312 Q11.4688 -6.125 11.2031 -6.2031 L11.2031 -6.5312 L13.9062 -6.5312 L13.9062 -6.2031 Q13.5 -6.125 13.3594 -5.9922 Q13.2188 -5.8594 13.2188 -5.5781 Q13.2188 -5.4062 13.2578 -5.2031 Q13.2969 -5 13.3906 -4.7344 L14.4531 -1.25 L16.2188 -6.5312 L17.1875 -6.5312 L18.6719 -1.25 L19.875 -4.5938 Q19.9688 -4.8438 20.0312 -5.0781 Q20.0938 -5.3125 20.0938 -5.5312 Q20.0938 -5.8125 19.9375 -5.9688 Q19.7812 -6.125 19.4219 -6.2031 L19.4219 -6.5312 L21.7969 -6.5312 L21.7969 -6.2031 Q21.6094 -6.1562 21.5156 -6.1016 Q21.4219 -6.0469 21.3281 -5.9531 Q21.2344 -5.8594 21.125 -5.6484 Q21.0156 -5.4375 20.8438 -5 L18.8594 0.0312 L17.9375 0.0312 L16.4531 -5.1094 Z" stroke="none"/></g></g></svg>