<?xml version="1.0" encoding="UTF-8" standalone="no"?><svg xmlns="http://www.w3.org/2000/svg" xmlns:xlink="http://www.w3.org/1999/xlink" stroke-dasharray="none" shape-rendering="auto" font-family="'Dialog'" width="249.812600" text-rendering="auto" fill-opacity="1" contentScriptType="text/ecmascript" color-interpolation="auto" color-rendering="auto" preserveAspectRatio="xMidYMid meet" font-size="12" fill="black" stroke="black" image-rendering="auto" stroke-miterlimit="10" zoomAndPan="magnify" version="1.0" stroke-linecap="square" stroke-linejoin="miter" contentStyleType="text/css" font-style="normal" height="19" stroke-width="1" stroke-dashoffset="0" font-weight="normal" stroke-opacity="1" y="-5.000000"><!--Converted from MathML using JEuclid--><defs id="genericDefs"/><g><g text-rendering="optimizeLegibility" transform="translate(0,14)" color-rendering="optimizeQuality" color-interpolation="linearRGB" image-rendering="optimizeQuality"><path d="M10.7812 -8.0156 L7.9062 -8.0156 L7.875 -7.9375 Q9.2188 -6.9844 9.2188 -5.1875 Q9.2188 -3.1719 7.8438 -1.5078 Q6.4688 0.1562 4.0625 0.1562 Q2.5781 0.1562 1.7031 -0.7891 Q0.8281 -1.7344 0.8281 -3.3281 Q0.8281 -4.9375 1.4609 -6.2031 Q2.0938 -7.4688 3.1172 -8.1953 Q4.1406 -8.9219 5.2578 -9.1328 Q6.375 -9.3438 8.3281 -9.3438 L11.0469 -9.3438 L10.7812 -8.0156 ZM6.6875 -7.9844 Q5.4375 -7.9844 4.625 -7.5 Q3.8125 -7.0156 3.1641 -5.8516 Q2.5156 -4.6875 2.5156 -2.875 Q2.5156 -1.7969 3.0156 -1.2031 Q3.5156 -0.6094 4.2656 -0.6094 Q5.6094 -0.6094 6.5469 -2.1328 Q7.4844 -3.6562 7.4844 -5.5156 Q7.4844 -6.9688 6.6875 -7.9844 Z" stroke="none"/></g><g text-rendering="optimizeLegibility" transform="translate(11.0938,17.4219)" color-rendering="optimizeQuality" color-interpolation="linearRGB" image-rendering="optimizeQuality"><path d="M5.4531 -1.9219 L5.0312 0 L0.0781 0 L-0.0469 -0.3281 L3.6875 -4.6406 Q4.4844 -5.5469 4.8594 -5.9375 L4.8125 -5.9844 L3.2188 -5.9844 Q2.8594 -5.9844 2.6953 -5.9375 Q2.5312 -5.8906 2.3672 -5.7656 Q2.2031 -5.6406 2.0156 -5.4062 Q1.8281 -5.1719 1.5938 -4.7344 L0.9844 -4.7344 L1.3906 -6.5312 L6.25 -6.5312 L6.375 -6.1875 L1.4688 -0.6094 L1.5156 -0.5469 L3.0625 -0.5469 Q3.4688 -0.5469 3.6875 -0.5938 Q3.9062 -0.6406 4.0703 -0.7656 Q4.2344 -0.8906 4.4062 -1.1406 Q4.5781 -1.3906 4.8438 -1.9219 L5.4531 -1.9219 Z" stroke="none"/></g><g text-rendering="optimizeLegibility" transform="translate(18.25,14)" color-rendering="optimizeQuality" color-interpolation="linearRGB" image-rendering="optimizeQuality"><path d="M1.2188 -7.0625 L1.2188 -8.4219 L9.8594 -8.4219 L9.8594 -7.0625 L1.2188 -7.0625 ZM1.2188 -3.0156 L1.2188 -4.3594 L9.8594 -4.3594 L9.8594 -3.0156 L1.2188 -3.0156 Z" stroke="none"/></g><g text-rendering="optimizeLegibility" transform="translate(30.1094,14)" color-rendering="optimizeQuality" color-interpolation="linearRGB" image-rendering="optimizeQuality"><path d="M7.4844 -7.2031 L6.5469 -7.2031 Q6.3438 -7.7812 6.0469 -8.1172 Q5.75 -8.4531 5.3828 -8.5938 Q5.0156 -8.7344 4.4688 -8.7344 Q3.6875 -8.7344 3.2266 -8.3672 Q2.7656 -8 2.7656 -7.3594 Q2.7656 -6.9219 2.9531 -6.625 Q3.1406 -6.3281 3.5312 -6.0781 Q3.9219 -5.8281 4.9062 -5.4062 Q5.9062 -4.9688 6.4453 -4.6094 Q6.9844 -4.25 7.2891 -3.7734 Q7.5938 -3.2969 7.5938 -2.625 Q7.5938 -1.8594 7.3359 -1.3281 Q7.0781 -0.7969 6.5938 -0.4688 Q6.1094 -0.1406 5.4531 0.0078 Q4.7969 0.1562 4.0156 0.1562 Q3.1875 0.1562 2.4219 0.0312 Q1.6562 -0.0938 0.9219 -0.2812 L0.9219 -2.3281 L1.875 -2.3281 Q2.1406 -1.4219 2.6562 -1.0156 Q3.1719 -0.6094 4.0781 -0.6094 Q4.4375 -0.6094 4.7734 -0.6875 Q5.1094 -0.7656 5.375 -0.9375 Q5.6406 -1.1094 5.7969 -1.3984 Q5.9531 -1.6875 5.9531 -2.125 Q5.9531 -2.625 5.7578 -2.9375 Q5.5625 -3.25 5.1484 -3.5078 Q4.7344 -3.7656 3.7031 -4.2031 Q2.8125 -4.5781 2.2734 -4.9297 Q1.7344 -5.2812 1.4297 -5.7578 Q1.125 -6.2344 1.125 -6.8906 Q1.125 -7.7031 1.5625 -8.2891 Q2 -8.875 2.8203 -9.1875 Q3.6406 -9.5 4.7344 -9.5 Q5.375 -9.5 5.9766 -9.4375 Q6.5781 -9.375 7.4844 -9.1875 L7.4844 -7.2031 ZM9.3594 -8.8438 Q9.8438 -8.9219 10.1484 -9.1172 Q10.4531 -9.3125 10.625 -9.625 Q10.7969 -9.9375 10.8984 -10.3984 Q11 -10.8594 11.0938 -11.75 L12.4844 -11.75 L12.4844 -9.3438 L15.6406 -9.3438 L15.6406 -8.3438 L12.4844 -8.3438 L12.4844 -4 Q12.4844 -3.0625 12.5625 -2.5 Q12.6406 -1.9375 12.8594 -1.6172 Q13.0781 -1.2969 13.3516 -1.1641 Q13.625 -1.0312 14.0469 -1.0312 Q14.4375 -1.0312 14.7812 -1.1875 Q15.125 -1.3438 15.4531 -1.6562 L15.8906 -1.125 Q15.2031 -0.4531 14.5859 -0.1484 Q13.9688 0.1562 13.2969 0.1562 Q12.0312 0.1562 11.4219 -0.5938 Q10.8125 -1.3438 10.8125 -2.9375 L10.8125 -8.3438 L9.3594 -8.3438 L9.3594 -8.8438 ZM19.5781 -7.7188 L19.7188 -7.6875 Q20.2656 -8.3438 20.7188 -8.7188 Q21.1719 -9.0938 21.7031 -9.2969 Q22.2344 -9.5 22.9219 -9.5 Q23.4844 -9.5 23.9375 -9.4375 L23.9375 -7.2031 L22.8438 -7.2031 Q22.6094 -7.7188 22.3438 -7.9609 Q22.0781 -8.2031 21.6094 -8.2031 Q21.2656 -8.2031 20.9219 -8 Q20.5781 -7.7969 20.25 -7.4062 Q19.9219 -7.0156 19.8047 -6.6719 Q19.6875 -6.3281 19.6875 -5.8594 L19.6875 -2.4375 Q19.6875 -1.5469 19.7891 -1.2109 Q19.8906 -0.875 20.1406 -0.7188 Q20.3906 -0.5625 20.8906 -0.4844 L20.8906 0 L16.9531 0 L16.9531 -0.4844 Q17.3281 -0.5938 17.4922 -0.6797 Q17.6562 -0.7656 17.7734 -0.9219 Q17.8906 -1.0781 17.9453 -1.4062 Q18 -1.7344 18 -2.4062 L18 -6.6719 Q18 -7.2969 17.9844 -7.6797 Q17.9688 -8.0625 17.8516 -8.2891 Q17.7344 -8.5156 17.4922 -8.625 Q17.25 -8.7344 16.8125 -8.8125 L16.8125 -9.3281 L19.0938 -9.4219 L19.6875 -9.4219 L19.5781 -7.7188 ZM32.75 -1.6562 Q32.125 -1 31.6016 -0.6328 Q31.0781 -0.2656 30.4531 -0.0547 Q29.8281 0.1562 29.0781 0.1562 Q27.0625 0.1562 26.0391 -1.0469 Q25.0156 -2.25 25.0156 -4.6094 Q25.0156 -6.0625 25.5391 -7.1797 Q26.0625 -8.2969 27.0312 -8.8984 Q28 -9.5 29.25 -9.5 Q30.2344 -9.5 30.9297 -9.1875 Q31.625 -8.875 32.0391 -8.3359 Q32.4531 -7.7969 32.6875 -6.9688 Q32.9219 -6.1406 32.9531 -4.8125 L26.7969 -4.8125 L26.7969 -4.6406 Q26.7969 -3.4844 27.0547 -2.7031 Q27.3125 -1.9219 27.9062 -1.4766 Q28.5 -1.0312 29.4375 -1.0312 Q30.2344 -1.0312 30.875 -1.3281 Q31.5156 -1.625 32.1562 -2.2969 L32.75 -1.6562 ZM31.1094 -5.625 Q31.0469 -6.6875 30.8438 -7.3516 Q30.6406 -8.0156 30.2344 -8.375 Q29.8281 -8.7344 29.1562 -8.7344 Q28.1562 -8.7344 27.5547 -7.9297 Q26.9531 -7.125 26.8438 -5.625 L31.1094 -5.625 ZM41.4844 -7.2031 L40.5469 -7.2031 Q40.3438 -7.7812 40.0469 -8.1172 Q39.75 -8.4531 39.3828 -8.5938 Q39.0156 -8.7344 38.4688 -8.7344 Q37.6875 -8.7344 37.2266 -8.3672 Q36.7656 -8 36.7656 -7.3594 Q36.7656 -6.9219 36.9531 -6.625 Q37.1406 -6.3281 37.5312 -6.0781 Q37.9219 -5.8281 38.9062 -5.4062 Q39.9062 -4.9688 40.4453 -4.6094 Q40.9844 -4.25 41.2891 -3.7734 Q41.5938 -3.2969 41.5938 -2.625 Q41.5938 -1.8594 41.3359 -1.3281 Q41.0781 -0.7969 40.5938 -0.4688 Q40.1094 -0.1406 39.4531 0.0078 Q38.7969 0.1562 38.0156 0.1562 Q37.1875 0.1562 36.4219 0.0312 Q35.6562 -0.0938 34.9219 -0.2812 L34.9219 -2.3281 L35.875 -2.3281 Q36.1406 -1.4219 36.6562 -1.0156 Q37.1719 -0.6094 38.0781 -0.6094 Q38.4375 -0.6094 38.7734 -0.6875 Q39.1094 -0.7656 39.375 -0.9375 Q39.6406 -1.1094 39.7969 -1.3984 Q39.9531 -1.6875 39.9531 -2.125 Q39.9531 -2.625 39.7578 -2.9375 Q39.5625 -3.25 39.1484 -3.5078 Q38.7344 -3.7656 37.7031 -4.2031 Q36.8125 -4.5781 36.2734 -4.9297 Q35.7344 -5.2812 35.4297 -5.7578 Q35.125 -6.2344 35.125 -6.8906 Q35.125 -7.7031 35.5625 -8.2891 Q36 -8.875 36.8203 -9.1875 Q37.6406 -9.5 38.7344 -9.5 Q39.375 -9.5 39.9766 -9.4375 Q40.5781 -9.375 41.4844 -9.1875 L41.4844 -7.2031 ZM50.4844 -7.2031 L49.5469 -7.2031 Q49.3438 -7.7812 49.0469 -8.1172 Q48.75 -8.4531 48.3828 -8.5938 Q48.0156 -8.7344 47.4688 -8.7344 Q46.6875 -8.7344 46.2266 -8.3672 Q45.7656 -8 45.7656 -7.3594 Q45.7656 -6.9219 45.9531 -6.625 Q46.1406 -6.3281 46.5312 -6.0781 Q46.9219 -5.8281 47.9062 -5.4062 Q48.9062 -4.9688 49.4453 -4.6094 Q49.9844 -4.25 50.2891 -3.7734 Q50.5938 -3.2969 50.5938 -2.625 Q50.5938 -1.8594 50.3359 -1.3281 Q50.0781 -0.7969 49.5938 -0.4688 Q49.1094 -0.1406 48.4531 0.0078 Q47.7969 0.1562 47.0156 0.1562 Q46.1875 0.1562 45.4219 0.0312 Q44.6562 -0.0938 43.9219 -0.2812 L43.9219 -2.3281 L44.875 -2.3281 Q45.1406 -1.4219 45.6562 -1.0156 Q46.1719 -0.6094 47.0781 -0.6094 Q47.4375 -0.6094 47.7734 -0.6875 Q48.1094 -0.7656 48.375 -0.9375 Q48.6406 -1.1094 48.7969 -1.3984 Q48.9531 -1.6875 48.9531 -2.125 Q48.9531 -2.625 48.7578 -2.9375 Q48.5625 -3.25 48.1484 -3.5078 Q47.7344 -3.7656 46.7031 -4.2031 Q45.8125 -4.5781 45.2734 -4.9297 Q44.7344 -5.2812 44.4297 -5.7578 Q44.125 -6.2344 44.125 -6.8906 Q44.125 -7.7031 44.5625 -8.2891 Q45 -8.875 45.8203 -9.1875 Q46.6406 -9.5 47.7344 -9.5 Q48.375 -9.5 48.9766 -9.4375 Q49.5781 -9.375 50.4844 -9.1875 L50.4844 -7.2031 ZM59.7344 -13.1719 L59.7344 -11.2656 L57.9375 -11.2656 L57.9375 -13.1719 L59.7344 -13.1719 ZM56.9531 -0.4844 Q57.3281 -0.5938 57.4922 -0.6797 Q57.6562 -0.7656 57.7656 -0.9219 Q57.875 -1.0781 57.9375 -1.4062 Q58 -1.7344 58 -2.4062 L58 -6.6719 Q58 -7.2969 57.9844 -7.6797 Q57.9688 -8.0625 57.8516 -8.2891 Q57.7344 -8.5156 57.4922 -8.625 Q57.25 -8.7344 56.8125 -8.8125 L56.8125 -9.3438 L59.0938 -9.4219 L59.6875 -9.4219 L59.6875 -2.4375 Q59.6875 -1.6094 59.7656 -1.2812 Q59.8438 -0.9531 60.0625 -0.7812 Q60.2812 -0.6094 60.7812 -0.4844 L60.7812 0 L56.9531 0 L56.9531 -0.4844 ZM72.4531 0 L68.6094 0 L68.6094 -0.4844 Q69 -0.5938 69.1641 -0.6797 Q69.3281 -0.7656 69.4375 -0.9219 Q69.5469 -1.0781 69.6094 -1.4062 Q69.6719 -1.7344 69.6719 -2.4062 L69.6719 -4.9688 Q69.6719 -5.6406 69.6328 -6.2031 Q69.5938 -6.7656 69.5 -7.1172 Q69.4062 -7.4688 69.2812 -7.6719 Q69.1562 -7.875 68.9688 -8.0156 Q68.7812 -8.1562 68.5469 -8.2422 Q68.3125 -8.3281 67.9375 -8.3281 Q67.5625 -8.3281 67.2188 -8.1719 Q66.875 -8.0156 66.4609 -7.6484 Q66.0469 -7.2812 65.8672 -6.9141 Q65.6875 -6.5469 65.6875 -6.0781 L65.6875 -2.4375 Q65.6875 -1.6094 65.7656 -1.2812 Q65.8438 -0.9531 66.0625 -0.7812 Q66.2812 -0.6094 66.7812 -0.4844 L66.7812 0 L62.9531 0 L62.9531 -0.4844 Q63.3281 -0.5938 63.4922 -0.6797 Q63.6562 -0.7656 63.7656 -0.9219 Q63.875 -1.0781 63.9375 -1.4062 Q64 -1.7344 64 -2.4062 L64 -6.6719 Q64 -7.2969 63.9844 -7.6797 Q63.9688 -8.0625 63.8516 -8.2891 Q63.7344 -8.5156 63.4922 -8.625 Q63.25 -8.7344 62.8125 -8.8125 L62.8125 -9.3438 L65.0938 -9.4219 L65.6875 -9.4219 L65.5781 -7.8281 L65.7188 -7.7969 Q66.4375 -8.5312 66.8828 -8.8438 Q67.3281 -9.1562 67.7812 -9.3281 Q68.2344 -9.5 68.75 -9.5 Q69.2812 -9.5 69.6953 -9.375 Q70.1094 -9.25 70.4219 -8.9922 Q70.7344 -8.7344 70.9453 -8.3594 Q71.1562 -7.9844 71.2578 -7.4609 Q71.3594 -6.9375 71.3594 -6.125 L71.3594 -2.4375 Q71.3594 -1.7656 71.3984 -1.4609 Q71.4375 -1.1562 71.5312 -0.9922 Q71.625 -0.8281 71.8125 -0.7188 Q72 -0.6094 72.4531 -0.4844 L72.4531 0 ZM80.5625 -2.4375 Q80.5625 -1.6094 80.6406 -1.2812 Q80.7188 -0.9531 80.9375 -0.7812 Q81.1562 -0.6094 81.6562 -0.4844 L81.6562 0 L77.7656 0 L77.7656 -0.4844 Q78.2656 -0.6094 78.4531 -0.7422 Q78.6406 -0.875 78.7266 -1.0703 Q78.8125 -1.2656 78.8438 -1.5938 Q78.875 -1.9219 78.875 -2.4375 L78.875 -10.6094 Q78.875 -11.5469 78.8594 -11.9219 Q78.8438 -12.2969 78.7812 -12.5547 Q78.7188 -12.8125 78.6094 -12.9609 Q78.5 -13.1094 78.3047 -13.1953 Q78.1094 -13.2812 77.6094 -13.375 L77.6094 -13.875 L79.9688 -13.9688 L80.5625 -13.9688 L80.5625 -2.4375 ZM88.5938 -1.3906 L88.4531 -1.4375 Q87.5938 -0.5625 86.8516 -0.2031 Q86.1094 0.1562 85.2656 0.1562 Q84.5156 0.1562 83.9531 -0.1328 Q83.3906 -0.4219 83.0859 -0.9453 Q82.7812 -1.4688 82.7812 -2.1562 Q82.7812 -3.5781 84.1953 -4.3516 Q85.6094 -5.125 88.4219 -5.25 L88.4219 -5.8906 Q88.4219 -6.9062 88.2266 -7.4922 Q88.0312 -8.0781 87.6172 -8.3516 Q87.2031 -8.625 86.5 -8.625 Q85.7344 -8.625 85.2656 -8.2266 Q84.7969 -7.8281 84.5625 -7.0156 L83.2969 -7.0156 L83.2969 -8.2969 Q84.2344 -8.7812 84.8594 -9.0078 Q85.4844 -9.2344 86.1094 -9.3672 Q86.7344 -9.5 87.375 -9.5 Q88.3438 -9.5 88.9297 -9.1953 Q89.5156 -8.8906 89.8047 -8.2578 Q90.0938 -7.625 90.0938 -6.3438 L90.0938 -2.9375 Q90.0938 -2.2188 90.1016 -1.9219 Q90.1094 -1.625 90.1641 -1.3672 Q90.2188 -1.1094 90.3125 -0.9609 Q90.4062 -0.8125 90.6016 -0.7031 Q90.7969 -0.5938 91.2188 -0.4844 L91.2188 0 L88.5469 0 L88.5938 -1.3906 ZM88.4219 -4.4531 Q86.4375 -4.4375 85.4531 -3.9297 Q84.4688 -3.4219 84.4688 -2.3906 Q84.4688 -1.8438 84.6953 -1.5156 Q84.9219 -1.1875 85.2656 -1.0703 Q85.6094 -0.9531 86.0781 -0.9531 Q86.7344 -0.9531 87.2812 -1.2734 Q87.8281 -1.5938 88.125 -2.0938 Q88.4219 -2.5938 88.4219 -3.0781 L88.4219 -4.4531 ZM97.0781 0.7969 Q96.5469 2.0156 96.0391 2.7656 Q95.5312 3.5156 94.9219 3.8984 Q94.3125 4.2812 93.4688 4.2812 Q92.9219 4.2812 92.25 4.1562 L92.25 2.2188 L93.125 2.2188 Q93.2344 2.625 93.4141 2.7812 Q93.5938 2.9375 93.9219 2.9375 Q94.2188 2.9375 94.4453 2.8203 Q94.6719 2.7031 94.9219 2.4297 Q95.1719 2.1562 95.5078 1.5938 Q95.8438 1.0312 96.2656 0.1562 L93.5312 -7.2031 Q93.2656 -7.9062 93.1094 -8.1953 Q92.9531 -8.4844 92.7656 -8.625 Q92.5781 -8.7656 92.2031 -8.8594 L92.2031 -9.3438 L96.1719 -9.3438 L96.1719 -8.8594 Q95.7188 -8.75 95.5312 -8.6484 Q95.3438 -8.5469 95.2578 -8.3828 Q95.1719 -8.2188 95.1719 -7.9688 Q95.1719 -7.7031 95.2344 -7.4219 Q95.2969 -7.1406 95.4219 -6.7656 L97.1719 -1.8594 L99.125 -6.5469 Q99.2812 -6.9375 99.375 -7.2656 Q99.4688 -7.5938 99.4688 -7.875 Q99.4688 -8.2969 99.2422 -8.5156 Q99.0156 -8.7344 98.4531 -8.8594 L98.4531 -9.3438 L102.0938 -9.3438 L102.0938 -8.8594 Q101.7188 -8.7812 101.5156 -8.6172 Q101.3125 -8.4531 101.1016 -8.1094 Q100.8906 -7.7656 100.6094 -7.1406 L97.0781 0.7969 ZM110.75 -1.6562 Q110.125 -1 109.6016 -0.6328 Q109.0781 -0.2656 108.4531 -0.0547 Q107.8281 0.1562 107.0781 0.1562 Q105.0625 0.1562 104.0391 -1.0469 Q103.0156 -2.25 103.0156 -4.6094 Q103.0156 -6.0625 103.5391 -7.1797 Q104.0625 -8.2969 105.0312 -8.8984 Q106 -9.5 107.25 -9.5 Q108.2344 -9.5 108.9297 -9.1875 Q109.625 -8.875 110.0391 -8.3359 Q110.4531 -7.7969 110.6875 -6.9688 Q110.9219 -6.1406 110.9531 -4.8125 L104.7969 -4.8125 L104.7969 -4.6406 Q104.7969 -3.4844 105.0547 -2.7031 Q105.3125 -1.9219 105.9062 -1.4766 Q106.5 -1.0312 107.4375 -1.0312 Q108.2344 -1.0312 108.875 -1.3281 Q109.5156 -1.625 110.1562 -2.2969 L110.75 -1.6562 ZM109.1094 -5.625 Q109.0469 -6.6875 108.8438 -7.3516 Q108.6406 -8.0156 108.2344 -8.375 Q107.8281 -8.7344 107.1562 -8.7344 Q106.1562 -8.7344 105.5547 -7.9297 Q104.9531 -7.125 104.8438 -5.625 L109.1094 -5.625 ZM115.5781 -7.7188 L115.7188 -7.6875 Q116.2656 -8.3438 116.7188 -8.7188 Q117.1719 -9.0938 117.7031 -9.2969 Q118.2344 -9.5 118.9219 -9.5 Q119.4844 -9.5 119.9375 -9.4375 L119.9375 -7.2031 L118.8438 -7.2031 Q118.6094 -7.7188 118.3438 -7.9609 Q118.0781 -8.2031 117.6094 -8.2031 Q117.2656 -8.2031 116.9219 -8 Q116.5781 -7.7969 116.25 -7.4062 Q115.9219 -7.0156 115.8047 -6.6719 Q115.6875 -6.3281 115.6875 -5.8594 L115.6875 -2.4375 Q115.6875 -1.5469 115.7891 -1.2109 Q115.8906 -0.875 116.1406 -0.7188 Q116.3906 -0.5625 116.8906 -0.4844 L116.8906 0 L112.9531 0 L112.9531 -0.4844 Q113.3281 -0.5938 113.4922 -0.6797 Q113.6562 -0.7656 113.7734 -0.9219 Q113.8906 -1.0781 113.9453 -1.4062 Q114 -1.7344 114 -2.4062 L114 -6.6719 Q114 -7.2969 113.9844 -7.6797 Q113.9688 -8.0625 113.8516 -8.2891 Q113.7344 -8.5156 113.4922 -8.625 Q113.25 -8.7344 112.8125 -8.8125 L112.8125 -9.3281 L115.0938 -9.4219 L115.6875 -9.4219 L115.5781 -7.7188 ZM132.3125 -2.8281 L132.3125 0 L124.7969 0 L124.7969 -0.4844 L130.1406 -8.5469 L127.5 -8.5469 Q127.0156 -8.5469 126.7266 -8.3672 Q126.4375 -8.1875 126.1875 -7.7812 Q125.9375 -7.375 125.7031 -6.6875 L124.8438 -6.6875 L124.8438 -9.3438 L132.25 -9.3438 L132.25 -8.8438 L126.9062 -0.7969 L129.4844 -0.7969 Q129.9844 -0.7969 130.2422 -0.875 Q130.5 -0.9531 130.6797 -1.125 Q130.8594 -1.2969 131.0391 -1.6641 Q131.2188 -2.0312 131.4688 -2.8281 L132.3125 -2.8281 ZM138.5938 -4.3906 L134.0625 -4.3906 L134.0625 -5.9062 L138.5938 -5.9062 L138.5938 -4.3906 ZM147.5469 -10.6094 Q147.5469 -11.5469 147.5312 -11.9219 Q147.5156 -12.2969 147.4531 -12.5547 Q147.3906 -12.8125 147.2734 -12.9609 Q147.1562 -13.1094 146.9688 -13.1953 Q146.7812 -13.2812 146.2812 -13.375 L146.2812 -13.875 L148.6406 -13.9688 L149.2188 -13.9688 L149.2188 -2.6719 Q149.2188 -1.9062 149.25 -1.5781 Q149.2812 -1.25 149.375 -1.0547 Q149.4688 -0.8594 149.6797 -0.7344 Q149.8906 -0.6094 150.4219 -0.5156 L150.4219 0 L148.1094 0.0938 L147.5312 0.0938 L147.6406 -1.5 L147.5 -1.5469 Q146.8906 -0.8906 146.4375 -0.5625 Q145.9844 -0.2344 145.4688 -0.0391 Q144.9531 0.1562 144.3594 0.1562 Q142.7656 0.1562 141.8984 -1.0625 Q141.0312 -2.2812 141.0312 -4.5781 Q141.0312 -6.1719 141.5938 -7.2891 Q142.1562 -8.4062 143.1172 -8.9531 Q144.0781 -9.5 145.2812 -9.5 Q145.9219 -9.5 146.4531 -9.3984 Q146.9844 -9.2969 147.5469 -9.0625 L147.5469 -10.6094 ZM147.5469 -5.7969 Q147.5469 -6.5469 147.4766 -7.0078 Q147.4062 -7.4688 147.2422 -7.7812 Q147.0781 -8.0938 146.8047 -8.3125 Q146.5312 -8.5312 146.2031 -8.625 Q145.875 -8.7188 145.4219 -8.7188 Q144.1719 -8.7188 143.5156 -7.7188 Q142.8594 -6.7188 142.8594 -4.8438 Q142.8594 -2.9688 143.3984 -1.9922 Q143.9375 -1.0156 145.0312 -1.0156 Q145.4531 -1.0156 145.7422 -1.0859 Q146.0312 -1.1562 146.3047 -1.3203 Q146.5781 -1.4844 146.8594 -1.7656 Q147.1406 -2.0469 147.2734 -2.2812 Q147.4062 -2.5156 147.4766 -2.8203 Q147.5469 -3.125 147.5469 -3.6094 L147.5469 -5.7969 ZM154.7344 -13.1719 L154.7344 -11.2656 L152.9375 -11.2656 L152.9375 -13.1719 L154.7344 -13.1719 ZM151.9531 -0.4844 Q152.3281 -0.5938 152.4922 -0.6797 Q152.6562 -0.7656 152.7656 -0.9219 Q152.875 -1.0781 152.9375 -1.4062 Q153 -1.7344 153 -2.4062 L153 -6.6719 Q153 -7.2969 152.9844 -7.6797 Q152.9688 -8.0625 152.8516 -8.2891 Q152.7344 -8.5156 152.4922 -8.625 Q152.25 -8.7344 151.8125 -8.8125 L151.8125 -9.3438 L154.0938 -9.4219 L154.6875 -9.4219 L154.6875 -2.4375 Q154.6875 -1.6094 154.7656 -1.2812 Q154.8438 -0.9531 155.0625 -0.7812 Q155.2812 -0.6094 155.7812 -0.4844 L155.7812 0 L151.9531 0 L151.9531 -0.4844 ZM160.5781 -7.7188 L160.7188 -7.6875 Q161.2656 -8.3438 161.7188 -8.7188 Q162.1719 -9.0938 162.7031 -9.2969 Q163.2344 -9.5 163.9219 -9.5 Q164.4844 -9.5 164.9375 -9.4375 L164.9375 -7.2031 L163.8438 -7.2031 Q163.6094 -7.7188 163.3438 -7.9609 Q163.0781 -8.2031 162.6094 -8.2031 Q162.2656 -8.2031 161.9219 -8 Q161.5781 -7.7969 161.25 -7.4062 Q160.9219 -7.0156 160.8047 -6.6719 Q160.6875 -6.3281 160.6875 -5.8594 L160.6875 -2.4375 Q160.6875 -1.5469 160.7891 -1.2109 Q160.8906 -0.875 161.1406 -0.7188 Q161.3906 -0.5625 161.8906 -0.4844 L161.8906 0 L157.9531 0 L157.9531 -0.4844 Q158.3281 -0.5938 158.4922 -0.6797 Q158.6562 -0.7656 158.7734 -0.9219 Q158.8906 -1.0781 158.9453 -1.4062 Q159 -1.7344 159 -2.4062 L159 -6.6719 Q159 -7.2969 158.9844 -7.6797 Q158.9688 -8.0625 158.8516 -8.2891 Q158.7344 -8.5156 158.4922 -8.625 Q158.25 -8.7344 157.8125 -8.8125 L157.8125 -9.3281 L160.0938 -9.4219 L160.6875 -9.4219 L160.5781 -7.7188 ZM173.75 -1.6562 Q173.125 -1 172.6016 -0.6328 Q172.0781 -0.2656 171.4531 -0.0547 Q170.8281 0.1562 170.0781 0.1562 Q168.0625 0.1562 167.0391 -1.0469 Q166.0156 -2.25 166.0156 -4.6094 Q166.0156 -6.0625 166.5391 -7.1797 Q167.0625 -8.2969 168.0312 -8.8984 Q169 -9.5 170.25 -9.5 Q171.2344 -9.5 171.9297 -9.1875 Q172.625 -8.875 173.0391 -8.3359 Q173.4531 -7.7969 173.6875 -6.9688 Q173.9219 -6.1406 173.9531 -4.8125 L167.7969 -4.8125 L167.7969 -4.6406 Q167.7969 -3.4844 168.0547 -2.7031 Q168.3125 -1.9219 168.9062 -1.4766 Q169.5 -1.0312 170.4375 -1.0312 Q171.2344 -1.0312 171.875 -1.3281 Q172.5156 -1.625 173.1562 -2.2969 L173.75 -1.6562 ZM172.1094 -5.625 Q172.0469 -6.6875 171.8438 -7.3516 Q171.6406 -8.0156 171.2344 -8.375 Q170.8281 -8.7344 170.1562 -8.7344 Q169.1562 -8.7344 168.5547 -7.9297 Q167.9531 -7.125 167.8438 -5.625 L172.1094 -5.625 ZM183.2188 -9.1094 L183.2188 -7.0781 L181.9844 -7.0781 Q181.8125 -7.7031 181.5703 -8.0703 Q181.3281 -8.4375 181.0078 -8.5859 Q180.6875 -8.7344 180.2031 -8.7344 Q179.5156 -8.7344 178.9922 -8.2969 Q178.4688 -7.8594 178.1641 -6.9609 Q177.8594 -6.0625 177.8594 -4.75 Q177.8594 -3.9219 177.9766 -3.2344 Q178.0938 -2.5469 178.375 -2.0625 Q178.6562 -1.5781 179.125 -1.3047 Q179.5938 -1.0312 180.2812 -1.0312 Q180.9531 -1.0312 181.5391 -1.2891 Q182.125 -1.5469 182.75 -2.2188 L183.2969 -1.5781 Q182.7969 -1.0312 182.4219 -0.7344 Q182.0469 -0.4375 181.6094 -0.2344 Q181.1719 -0.0312 180.75 0.0625 Q180.3281 0.1562 179.8281 0.1562 Q177.9844 0.1562 177.0078 -1.0703 Q176.0312 -2.2969 176.0312 -4.6094 Q176.0312 -6.0625 176.5781 -7.1797 Q177.125 -8.2969 178.1094 -8.8984 Q179.0938 -9.5 180.375 -9.5 Q181.1875 -9.5 181.8672 -9.4062 Q182.5469 -9.3125 183.2188 -9.1094 ZM184.3594 -8.8438 Q184.8438 -8.9219 185.1484 -9.1172 Q185.4531 -9.3125 185.625 -9.625 Q185.7969 -9.9375 185.8984 -10.3984 Q186 -10.8594 186.0938 -11.75 L187.4844 -11.75 L187.4844 -9.3438 L190.6406 -9.3438 L190.6406 -8.3438 L187.4844 -8.3438 L187.4844 -4 Q187.4844 -3.0625 187.5625 -2.5 Q187.6406 -1.9375 187.8594 -1.6172 Q188.0781 -1.2969 188.3516 -1.1641 Q188.625 -1.0312 189.0469 -1.0312 Q189.4375 -1.0312 189.7812 -1.1875 Q190.125 -1.3438 190.4531 -1.6562 L190.8906 -1.125 Q190.2031 -0.4531 189.5859 -0.1484 Q188.9688 0.1562 188.2969 0.1562 Q187.0312 0.1562 186.4219 -0.5938 Q185.8125 -1.3438 185.8125 -2.9375 L185.8125 -8.3438 L184.3594 -8.3438 L184.3594 -8.8438 ZM194.7344 -13.1719 L194.7344 -11.2656 L192.9375 -11.2656 L192.9375 -13.1719 L194.7344 -13.1719 ZM191.9531 -0.4844 Q192.3281 -0.5938 192.4922 -0.6797 Q192.6562 -0.7656 192.7656 -0.9219 Q192.875 -1.0781 192.9375 -1.4062 Q193 -1.7344 193 -2.4062 L193 -6.6719 Q193 -7.2969 192.9844 -7.6797 Q192.9688 -8.0625 192.8516 -8.2891 Q192.7344 -8.5156 192.4922 -8.625 Q192.25 -8.7344 191.8125 -8.8125 L191.8125 -9.3438 L194.0938 -9.4219 L194.6875 -9.4219 L194.6875 -2.4375 Q194.6875 -1.6094 194.7656 -1.2812 Q194.8438 -0.9531 195.0625 -0.7812 Q195.2812 -0.6094 195.7812 -0.4844 L195.7812 0 L191.9531 0 L191.9531 -0.4844 ZM202.2031 0.1562 Q200.1719 0.1562 199.1016 -1.0391 Q198.0312 -2.2344 198.0312 -4.5781 Q198.0312 -6.1875 198.5938 -7.3047 Q199.1562 -8.4219 200.1328 -8.9609 Q201.1094 -9.5 202.3594 -9.5 Q204.4375 -9.5 205.5156 -8.2891 Q206.5938 -7.0781 206.5938 -4.7969 Q206.5938 -3.1719 206.0547 -2.0625 Q205.5156 -0.9531 204.5312 -0.3984 Q203.5469 0.1562 202.2031 0.1562 ZM199.875 -4.7812 Q199.875 -2.7812 200.5156 -1.6953 Q201.1562 -0.6094 202.3438 -0.6094 Q203 -0.6094 203.4609 -0.9297 Q203.9219 -1.25 204.2031 -1.7891 Q204.4844 -2.3281 204.6172 -3.0312 Q204.75 -3.7344 204.75 -4.5156 Q204.75 -5.9531 204.4297 -6.8984 Q204.1094 -7.8438 203.5625 -8.2891 Q203.0156 -8.7344 202.3125 -8.7344 Q201.125 -8.7344 200.5 -7.7109 Q199.875 -6.6875 199.875 -4.7812 ZM218.4531 0 L214.6094 0 L214.6094 -0.4844 Q215 -0.5938 215.1641 -0.6797 Q215.3281 -0.7656 215.4375 -0.9219 Q215.5469 -1.0781 215.6094 -1.4062 Q215.6719 -1.7344 215.6719 -2.4062 L215.6719 -4.9688 Q215.6719 -5.6406 215.6328 -6.2031 Q215.5938 -6.7656 215.5 -7.1172 Q215.4062 -7.4688 215.2812 -7.6719 Q215.1562 -7.875 214.9688 -8.0156 Q214.7812 -8.1562 214.5469 -8.2422 Q214.3125 -8.3281 213.9375 -8.3281 Q213.5625 -8.3281 213.2188 -8.1719 Q212.875 -8.0156 212.4609 -7.6484 Q212.0469 -7.2812 211.8672 -6.9141 Q211.6875 -6.5469 211.6875 -6.0781 L211.6875 -2.4375 Q211.6875 -1.6094 211.7656 -1.2812 Q211.8438 -0.9531 212.0625 -0.7812 Q212.2812 -0.6094 212.7812 -0.4844 L212.7812 0 L208.9531 0 L208.9531 -0.4844 Q209.3281 -0.5938 209.4922 -0.6797 Q209.6562 -0.7656 209.7656 -0.9219 Q209.875 -1.0781 209.9375 -1.4062 Q210 -1.7344 210 -2.4062 L210 -6.6719 Q210 -7.2969 209.9844 -7.6797 Q209.9688 -8.0625 209.8516 -8.2891 Q209.7344 -8.5156 209.4922 -8.625 Q209.25 -8.7344 208.8125 -8.8125 L208.8125 -9.3438 L211.0938 -9.4219 L211.6875 -9.4219 L211.5781 -7.8281 L211.7188 -7.7969 Q212.4375 -8.5312 212.8828 -8.8438 Q213.3281 -9.1562 213.7812 -9.3281 Q214.2344 -9.5 214.75 -9.5 Q215.2812 -9.5 215.6953 -9.375 Q216.1094 -9.25 216.4219 -8.9922 Q216.7344 -8.7344 216.9453 -8.3594 Q217.1562 -7.9844 217.2578 -7.4609 Q217.3594 -6.9375 217.3594 -6.125 L217.3594 -2.4375 Q217.3594 -1.7656 217.3984 -1.4609 Q217.4375 -1.1562 217.5312 -0.9922 Q217.625 -0.8281 217.8125 -0.7188 Q218 -0.6094 218.4531 -0.4844 L218.4531 0 Z" stroke="none"/></g></g></svg>