<?xml version="1.0" encoding="UTF-8" standalone="no"?><svg xmlns="http://www.w3.org/2000/svg" xmlns:xlink="http://www.w3.org/1999/xlink" stroke-dasharray="none" shape-rendering="auto" font-family="'Dialog'" width="429.812600" text-rendering="auto" fill-opacity="1" contentScriptType="text/ecmascript" color-interpolation="auto" color-rendering="auto" preserveAspectRatio="xMidYMid meet" font-size="12" fill="black" stroke="black" image-rendering="auto" stroke-miterlimit="10" zoomAndPan="magnify" version="1.0" stroke-linecap="square" stroke-linejoin="miter" contentStyleType="text/css" font-style="normal" height="23" stroke-width="1" stroke-dashoffset="0" font-weight="normal" stroke-opacity="1" y="-5.000000"><!--Converted from MathML using JEuclid--><defs id="genericDefs"/><g><g text-rendering="optimizeLegibility" transform="translate(0,18)" color-rendering="optimizeQuality" color-interpolation="linearRGB" image-rendering="optimizeQuality"><path d="M7.9688 -3.125 Q8.1875 -4.0469 8.1875 -4.7031 Q8.1875 -5.1562 7.9531 -5.3359 Q7.7188 -5.5156 7.2344 -5.5469 L7.3281 -6.0312 L11.2344 -6.0312 L11.1406 -5.5469 Q10.7969 -5.4688 10.6562 -5.3984 Q10.5156 -5.3281 10.4062 -5.2109 Q10.2969 -5.0938 10.1953 -4.875 Q10.0938 -4.6562 9.9766 -4.25 Q9.8594 -3.8438 9.7031 -3.1094 L9.0312 -0.0469 L8.2656 0.1719 L7.75 -0.6094 Q7.0469 -0.2812 6.6562 -0.1406 Q6.2656 0 5.8516 0.0781 Q5.4375 0.1562 4.9688 0.1562 Q3.7656 0.1562 2.9219 -0.3516 Q2.0781 -0.8594 1.6484 -1.8047 Q1.2188 -2.75 1.2188 -4.0312 Q1.2188 -5.0781 1.4375 -6.1719 Q1.6875 -7.4062 2.0938 -8.4844 Q2.4844 -9.5156 2.9922 -10.3359 Q3.5 -11.1562 4.1406 -11.7812 Q4.7031 -12.3281 5.3672 -12.7109 Q6.0312 -13.0938 6.7578 -13.2891 Q7.4844 -13.4844 8.2969 -13.4844 Q9.2344 -13.4844 10 -13.375 Q10.7656 -13.2656 11.6875 -12.9688 L11.0938 -10.3438 L10.1562 -10.3438 Q10.0938 -11.1875 9.875 -11.6797 Q9.6562 -12.1719 9.2344 -12.3984 Q8.8125 -12.625 8.1562 -12.625 Q7.3281 -12.625 6.6406 -12.1953 Q5.9531 -11.7656 5.3125 -10.9219 Q4.6719 -10.0781 4.1484 -8.7969 Q3.625 -7.5156 3.3438 -6.1875 Q3.0625 -4.8594 3.0625 -3.7969 Q3.0625 -2.2031 3.5859 -1.4453 Q4.1094 -0.6875 5.2031 -0.6875 Q5.5938 -0.6875 6.0156 -0.7812 Q6.4375 -0.875 6.8047 -1.1016 Q7.1719 -1.3281 7.4531 -1.7109 Q7.7344 -2.0938 7.8594 -2.6719 L7.9688 -3.125 Z" stroke="none"/></g><g text-rendering="optimizeLegibility" transform="translate(11.6875,22.8906)" color-rendering="optimizeQuality" color-interpolation="linearRGB" image-rendering="optimizeQuality"><path d="M4.7969 -1.0938 Q5.1406 -1.0938 5.3438 -1.1328 Q5.5469 -1.1719 5.6719 -1.2734 Q5.7969 -1.375 5.8672 -1.5234 Q5.9375 -1.6719 6.0469 -2 L6.625 -2 L6.5156 0 L0.875 0 L0.875 -0.3281 Q1.1719 -1.0469 1.6719 -1.7969 Q2.1719 -2.5469 3.0938 -3.5625 Q3.8906 -4.4375 4.2344 -4.8906 Q4.6094 -5.3906 4.7969 -5.75 Q4.9844 -6.1094 5.0703 -6.4219 Q5.1562 -6.7344 5.1562 -7.0625 Q5.1562 -7.5781 4.9922 -7.9688 Q4.8281 -8.3594 4.4922 -8.5859 Q4.1562 -8.8125 3.6406 -8.8125 Q2.3594 -8.8125 1.9219 -7.3906 L1.0938 -7.3906 L1.0938 -8.7031 Q1.9219 -9.0938 2.6406 -9.2656 Q3.3594 -9.4375 3.9375 -9.4375 Q5.2031 -9.4375 5.8516 -8.8828 Q6.5 -8.3281 6.5 -7.2656 Q6.5 -6.9062 6.4297 -6.6016 Q6.3594 -6.2969 6.2031 -6 Q6.0469 -5.7031 5.7891 -5.3594 Q5.5312 -5.0156 5.2188 -4.6641 Q4.9062 -4.3125 4.125 -3.5 Q2.8281 -2.125 2.2188 -1.0938 L4.7969 -1.0938 ZM12.7969 -1.0938 Q13.1406 -1.0938 13.3438 -1.1328 Q13.5469 -1.1719 13.6719 -1.2734 Q13.7969 -1.375 13.8672 -1.5234 Q13.9375 -1.6719 14.0469 -2 L14.625 -2 L14.5156 0 L8.875 0 L8.875 -0.3281 Q9.1719 -1.0469 9.6719 -1.7969 Q10.1719 -2.5469 11.0938 -3.5625 Q11.8906 -4.4375 12.2344 -4.8906 Q12.6094 -5.3906 12.7969 -5.75 Q12.9844 -6.1094 13.0703 -6.4219 Q13.1562 -6.7344 13.1562 -7.0625 Q13.1562 -7.5781 12.9922 -7.9688 Q12.8281 -8.3594 12.4922 -8.5859 Q12.1562 -8.8125 11.6406 -8.8125 Q10.3594 -8.8125 9.9219 -7.3906 L9.0938 -7.3906 L9.0938 -8.7031 Q9.9219 -9.0938 10.6406 -9.2656 Q11.3594 -9.4375 11.9375 -9.4375 Q13.2031 -9.4375 13.8516 -8.8828 Q14.5 -8.3281 14.5 -7.2656 Q14.5 -6.9062 14.4297 -6.6016 Q14.3594 -6.2969 14.2031 -6 Q14.0469 -5.7031 13.7891 -5.3594 Q13.5312 -5.0156 13.2188 -4.6641 Q12.9062 -4.3125 12.125 -3.5 Q10.8281 -2.125 10.2188 -1.0938 L12.7969 -1.0938 Z" stroke="none"/></g><g text-rendering="optimizeLegibility" transform="translate(11.6875,8.5469)" color-rendering="optimizeQuality" color-interpolation="linearRGB" image-rendering="optimizeQuality"><path d="M3.375 -2.2344 L3.375 -1.7188 Q1.9531 0.1719 1.0469 0.1719 Q0.5625 0.1719 0.2891 -0.3594 Q0.0156 -0.8906 0.0156 -1.75 Q0.0156 -2.4531 0.3438 -3.4141 Q0.6719 -4.375 1.2188 -5.3594 Q1.7656 -6.3438 2.3594 -7.0781 Q2.9531 -7.8125 3.4531 -8.1094 Q3.6719 -8.2344 3.7812 -8.2344 Q3.9219 -8.2344 3.9688 -8.1094 Q4.0156 -7.9844 4.0156 -7.6719 Q4.0156 -6.7188 3.2422 -5.3359 Q2.4688 -3.9531 1.0938 -2.5156 Q1.0312 -2.1562 1.0312 -1.9688 Q1.0312 -1.5312 1.2188 -1.2578 Q1.4062 -0.9844 1.7344 -0.9844 Q1.9062 -0.9844 2.1016 -1.1172 Q2.2969 -1.25 2.5156 -1.4453 Q2.7344 -1.6406 3.375 -2.2344 ZM1.3281 -3.4531 Q1.6875 -3.8125 2.0234 -4.2578 Q2.3594 -4.7031 2.6484 -5.2031 Q2.9375 -5.7031 3.1094 -6.1094 Q3.2812 -6.5156 3.2812 -6.7188 Q3.2812 -6.875 3.1719 -6.875 Q3.125 -6.875 3.0156 -6.7969 Q2.5938 -6.4531 2.0703 -5.4609 Q1.5469 -4.4688 1.3281 -3.4531 Z" stroke="none"/></g><g text-rendering="optimizeLegibility" transform="translate(27.0938,18)" color-rendering="optimizeQuality" color-interpolation="linearRGB" image-rendering="optimizeQuality"><path d="M1.2188 -7.0625 L1.2188 -8.4219 L9.8594 -8.4219 L9.8594 -7.0625 L1.2188 -7.0625 ZM1.2188 -3.0156 L1.2188 -4.3594 L9.8594 -4.3594 L9.8594 -3.0156 L1.2188 -3.0156 Z" stroke="none"/></g><g text-rendering="optimizeLegibility" transform="translate(38.9531,18)" color-rendering="optimizeQuality" color-interpolation="linearRGB" image-rendering="optimizeQuality"><path d="M7.4844 -7.2031 L6.5469 -7.2031 Q6.3438 -7.7812 6.0469 -8.1172 Q5.75 -8.4531 5.3828 -8.5938 Q5.0156 -8.7344 4.4688 -8.7344 Q3.6875 -8.7344 3.2266 -8.3672 Q2.7656 -8 2.7656 -7.3594 Q2.7656 -6.9219 2.9531 -6.625 Q3.1406 -6.3281 3.5312 -6.0781 Q3.9219 -5.8281 4.9062 -5.4062 Q5.9062 -4.9688 6.4453 -4.6094 Q6.9844 -4.25 7.2891 -3.7734 Q7.5938 -3.2969 7.5938 -2.625 Q7.5938 -1.8594 7.3359 -1.3281 Q7.0781 -0.7969 6.5938 -0.4688 Q6.1094 -0.1406 5.4531 0.0078 Q4.7969 0.1562 4.0156 0.1562 Q3.1875 0.1562 2.4219 0.0312 Q1.6562 -0.0938 0.9219 -0.2812 L0.9219 -2.3281 L1.875 -2.3281 Q2.1406 -1.4219 2.6562 -1.0156 Q3.1719 -0.6094 4.0781 -0.6094 Q4.4375 -0.6094 4.7734 -0.6875 Q5.1094 -0.7656 5.375 -0.9375 Q5.6406 -1.1094 5.7969 -1.3984 Q5.9531 -1.6875 5.9531 -2.125 Q5.9531 -2.625 5.7578 -2.9375 Q5.5625 -3.25 5.1484 -3.5078 Q4.7344 -3.7656 3.7031 -4.2031 Q2.8125 -4.5781 2.2734 -4.9297 Q1.7344 -5.2812 1.4297 -5.7578 Q1.125 -6.2344 1.125 -6.8906 Q1.125 -7.7031 1.5625 -8.2891 Q2 -8.875 2.8203 -9.1875 Q3.6406 -9.5 4.7344 -9.5 Q5.375 -9.5 5.9766 -9.4375 Q6.5781 -9.375 7.4844 -9.1875 L7.4844 -7.2031 ZM17.75 -1.6562 Q17.125 -1 16.6016 -0.6328 Q16.0781 -0.2656 15.4531 -0.0547 Q14.8281 0.1562 14.0781 0.1562 Q12.0625 0.1562 11.0391 -1.0469 Q10.0156 -2.25 10.0156 -4.6094 Q10.0156 -6.0625 10.5391 -7.1797 Q11.0625 -8.2969 12.0312 -8.8984 Q13 -9.5 14.25 -9.5 Q15.2344 -9.5 15.9297 -9.1875 Q16.625 -8.875 17.0391 -8.3359 Q17.4531 -7.7969 17.6875 -6.9688 Q17.9219 -6.1406 17.9531 -4.8125 L11.7969 -4.8125 L11.7969 -4.6406 Q11.7969 -3.4844 12.0547 -2.7031 Q12.3125 -1.9219 12.9062 -1.4766 Q13.5 -1.0312 14.4375 -1.0312 Q15.2344 -1.0312 15.875 -1.3281 Q16.5156 -1.625 17.1562 -2.2969 L17.75 -1.6562 ZM16.1094 -5.625 Q16.0469 -6.6875 15.8438 -7.3516 Q15.6406 -8.0156 15.2344 -8.375 Q14.8281 -8.7344 14.1562 -8.7344 Q13.1562 -8.7344 12.5547 -7.9297 Q11.9531 -7.125 11.8438 -5.625 L16.1094 -5.625 ZM22.5625 -2.4375 Q22.5625 -1.6094 22.6406 -1.2812 Q22.7188 -0.9531 22.9375 -0.7812 Q23.1562 -0.6094 23.6562 -0.4844 L23.6562 0 L19.7656 0 L19.7656 -0.4844 Q20.2656 -0.6094 20.4531 -0.7422 Q20.6406 -0.875 20.7266 -1.0703 Q20.8125 -1.2656 20.8438 -1.5938 Q20.875 -1.9219 20.875 -2.4375 L20.875 -10.6094 Q20.875 -11.5469 20.8594 -11.9219 Q20.8438 -12.2969 20.7812 -12.5547 Q20.7188 -12.8125 20.6094 -12.9609 Q20.5 -13.1094 20.3047 -13.1953 Q20.1094 -13.2812 19.6094 -13.375 L19.6094 -13.875 L21.9688 -13.9688 L22.5625 -13.9688 L22.5625 -2.4375 ZM29.9688 -8.3438 L27.6406 -8.3438 L27.6406 -2.4375 Q27.6406 -1.7812 27.7031 -1.4531 Q27.7656 -1.125 27.8828 -0.9531 Q28 -0.7812 28.2031 -0.6797 Q28.4062 -0.5781 28.8438 -0.4844 L28.8438 0 L24.8438 0 L24.8438 -0.4844 Q25.2812 -0.5938 25.4688 -0.7031 Q25.6562 -0.8125 25.7578 -0.9766 Q25.8594 -1.1406 25.9062 -1.4531 Q25.9531 -1.7656 25.9531 -2.4375 L25.9531 -8.3438 L24.7656 -8.3438 L24.7656 -8.8438 Q25.1406 -8.9062 25.2656 -8.9375 Q25.3906 -8.9688 25.5 -9.0391 Q25.6094 -9.1094 25.6953 -9.2344 Q25.7812 -9.3594 25.8438 -9.6094 Q25.9062 -9.8594 25.9375 -10.3125 Q26.0312 -11.375 26.3281 -12.0391 Q26.625 -12.7031 27.1953 -13.1719 Q27.7656 -13.6406 28.4141 -13.8359 Q29.0625 -14.0312 29.9531 -14.0312 Q30.7188 -14.0312 31.25 -13.9219 L31.25 -12.1562 L30.2969 -12.1562 Q30.1094 -12.7188 29.8594 -12.9609 Q29.6094 -13.2031 29.1562 -13.2031 Q28.8281 -13.2031 28.6094 -13.1172 Q28.3906 -13.0312 28.2109 -12.8438 Q28.0312 -12.6562 27.8984 -12.3438 Q27.7656 -12.0312 27.7031 -11.5703 Q27.6406 -11.1094 27.6406 -10.3594 L27.6406 -9.3438 L29.9688 -9.3438 L29.9688 -8.3438 ZM37.5625 -2.4375 Q37.5625 -1.6094 37.6406 -1.2812 Q37.7188 -0.9531 37.9375 -0.7812 Q38.1562 -0.6094 38.6562 -0.4844 L38.6562 0 L34.7656 0 L34.7656 -0.4844 Q35.2656 -0.6094 35.4531 -0.7422 Q35.6406 -0.875 35.7266 -1.0703 Q35.8125 -1.2656 35.8438 -1.5938 Q35.875 -1.9219 35.875 -2.4375 L35.875 -10.6094 Q35.875 -11.5469 35.8594 -11.9219 Q35.8438 -12.2969 35.7812 -12.5547 Q35.7188 -12.8125 35.6094 -12.9609 Q35.5 -13.1094 35.3047 -13.1953 Q35.1094 -13.2812 34.6094 -13.375 L34.6094 -13.875 L36.9688 -13.9688 L37.5625 -13.9688 L37.5625 -2.4375 ZM39.7188 -9.3438 L42.5 -9.3438 L42.5 -4.3594 Q42.5 -3.2188 42.5859 -2.625 Q42.6719 -2.0312 42.8516 -1.7266 Q43.0312 -1.4219 43.3516 -1.2188 Q43.6719 -1.0156 44.2344 -1.0156 Q44.6094 -1.0156 44.9531 -1.1641 Q45.2969 -1.3125 45.7109 -1.6797 Q46.125 -2.0469 46.3047 -2.4062 Q46.4844 -2.7656 46.4844 -3.25 L46.4844 -6.9062 Q46.4844 -7.4688 46.4609 -7.75 Q46.4375 -8.0312 46.3672 -8.2031 Q46.2969 -8.375 46.2031 -8.4766 Q46.1094 -8.5781 45.9375 -8.6719 Q45.7656 -8.7656 45.3906 -8.8594 L45.3906 -9.3438 L48.1719 -9.3438 L48.1719 -2.6719 Q48.1719 -1.9219 48.2031 -1.5859 Q48.2344 -1.25 48.3281 -1.0547 Q48.4219 -0.8594 48.625 -0.7344 Q48.8281 -0.6094 49.3594 -0.5156 L49.3594 0 L47.125 0.0938 L46.5312 0.0938 L46.5938 -1.5 L46.4375 -1.5469 Q45.625 -0.6719 44.8906 -0.2578 Q44.1562 0.1562 43.4219 0.1562 Q42.5312 0.1562 41.9531 -0.1953 Q41.375 -0.5469 41.0938 -1.2422 Q40.8125 -1.9375 40.8125 -3.2188 L40.8125 -6.9062 Q40.8125 -7.7188 40.75 -8.0312 Q40.6875 -8.3438 40.5 -8.5234 Q40.3125 -8.7031 39.7188 -8.8594 L39.7188 -9.3438 ZM53.5781 -7.8281 L53.7188 -7.7969 Q54.3125 -8.375 54.6875 -8.6719 Q55.0625 -8.9688 55.4141 -9.1562 Q55.7656 -9.3438 56.0703 -9.4219 Q56.375 -9.5 56.7031 -9.5 Q57.6719 -9.5 58.2891 -9.0469 Q58.9062 -8.5938 59.1406 -7.6719 Q59.875 -8.4062 60.3281 -8.7578 Q60.7812 -9.1094 61.2578 -9.3047 Q61.7344 -9.5 62.2812 -9.5 Q62.9375 -9.5 63.4062 -9.3047 Q63.875 -9.1094 64.2031 -8.7188 Q64.5312 -8.3281 64.6797 -7.7266 Q64.8281 -7.125 64.8281 -6.125 L64.8281 -2.4375 Q64.8281 -1.7031 64.8828 -1.4219 Q64.9375 -1.1406 65.0312 -0.9844 Q65.125 -0.8281 65.3047 -0.7109 Q65.4844 -0.5938 65.9219 -0.4844 L65.9219 0 L62.0938 0 L62.0938 -0.4844 Q62.4688 -0.5938 62.6328 -0.6797 Q62.7969 -0.7656 62.9141 -0.9219 Q63.0312 -1.0781 63.0938 -1.4062 Q63.1562 -1.7344 63.1562 -2.4062 L63.1562 -4.9688 Q63.1562 -5.7969 63.1094 -6.3359 Q63.0625 -6.875 62.9688 -7.1953 Q62.875 -7.5156 62.75 -7.7031 Q62.625 -7.8906 62.4531 -8.0312 Q62.2812 -8.1719 62.0625 -8.25 Q61.8438 -8.3281 61.4688 -8.3281 Q61.0781 -8.3281 60.7422 -8.1719 Q60.4062 -8.0156 60.0078 -7.6406 Q59.6094 -7.2656 59.4375 -6.8906 Q59.2656 -6.5156 59.2656 -6 L59.2656 -2.4375 Q59.2656 -1.7031 59.3125 -1.4219 Q59.3594 -1.1406 59.4531 -0.9844 Q59.5469 -0.8281 59.7266 -0.7109 Q59.9062 -0.5938 60.3594 -0.4844 L60.3594 0 L56.5156 0 L56.5156 -0.4844 Q56.8906 -0.5938 57.0625 -0.6797 Q57.2344 -0.7656 57.3438 -0.9219 Q57.4531 -1.0781 57.5156 -1.4062 Q57.5781 -1.7344 57.5781 -2.4062 L57.5781 -4.9688 Q57.5781 -5.8281 57.5312 -6.375 Q57.4844 -6.9219 57.3828 -7.2578 Q57.2812 -7.5938 57.1172 -7.7969 Q56.9531 -8 56.7891 -8.1094 Q56.625 -8.2188 56.3984 -8.2734 Q56.1719 -8.3281 55.8906 -8.3281 Q55.4844 -8.3281 55.1328 -8.1406 Q54.7812 -7.9531 54.4141 -7.6172 Q54.0469 -7.2812 53.8672 -6.9062 Q53.6875 -6.5312 53.6875 -6.1094 L53.6875 -2.4375 Q53.6875 -1.8906 53.7109 -1.5938 Q53.7344 -1.2969 53.8047 -1.1328 Q53.875 -0.9688 53.9688 -0.8672 Q54.0625 -0.7656 54.2422 -0.6719 Q54.4219 -0.5781 54.7812 -0.4844 L54.7812 0 L50.9531 0 L50.9531 -0.4844 Q51.3281 -0.5938 51.4922 -0.6797 Q51.6562 -0.7656 51.7734 -0.9219 Q51.8906 -1.0781 51.9453 -1.4062 Q52 -1.7344 52 -2.4062 L52 -6.6719 Q52 -7.2969 51.9844 -7.6797 Q51.9688 -8.0625 51.8516 -8.2891 Q51.7344 -8.5156 51.4922 -8.625 Q51.25 -8.7344 50.8125 -8.8125 L50.8125 -9.3438 L53.0938 -9.4219 L53.6875 -9.4219 L53.5781 -7.8281 ZM70.5938 -0.2969 L70.5938 1.7656 Q70.5938 2.4062 70.6406 2.7188 Q70.6875 3.0312 70.7969 3.2109 Q70.9062 3.3906 71.1172 3.5078 Q71.3281 3.625 71.7969 3.7188 L71.7969 4.2031 L67.8125 4.2031 L67.8125 3.7188 Q68.1562 3.625 68.3828 3.5234 Q68.6094 3.4219 68.7266 3.2188 Q68.8438 3.0156 68.8828 2.6719 Q68.9219 2.3281 68.9219 1.7656 L68.9219 -6.6094 Q68.9219 -7.3125 68.8984 -7.6094 Q68.875 -7.9062 68.8203 -8.1016 Q68.7656 -8.2969 68.6484 -8.4297 Q68.5312 -8.5625 68.3438 -8.6484 Q68.1562 -8.7344 67.7188 -8.8125 L67.7188 -9.3438 L70.0156 -9.4219 L70.6094 -9.4219 L70.4844 -7.8281 L70.625 -7.7969 Q71.2344 -8.4062 71.5859 -8.6875 Q71.9375 -8.9688 72.3125 -9.1562 Q72.6875 -9.3438 73.0312 -9.4219 Q73.375 -9.5 73.7656 -9.5 Q75.375 -9.5 76.2422 -8.2891 Q77.1094 -7.0781 77.1094 -4.75 Q77.1094 -3.1406 76.6172 -2.0469 Q76.125 -0.9531 75.1953 -0.3984 Q74.2656 0.1562 72.9844 0.1562 Q72.25 0.1562 71.6641 0.0312 Q71.0781 -0.0938 70.5938 -0.2969 ZM70.5938 -3.5156 Q70.5938 -2.5781 70.7109 -2.0703 Q70.8281 -1.5625 71.125 -1.2422 Q71.4219 -0.9219 71.8281 -0.7656 Q72.2344 -0.6094 72.9062 -0.6094 Q74.0781 -0.6094 74.6719 -1.5938 Q75.2656 -2.5781 75.2656 -4.5 Q75.2656 -8.3281 73.0312 -8.3281 Q72.4844 -8.3281 72.0938 -8.1562 Q71.7031 -7.9844 71.3125 -7.6016 Q70.9219 -7.2188 70.7578 -6.8594 Q70.5938 -6.5 70.5938 -6.0938 L70.5938 -3.5156 ZM86.75 -1.6562 Q86.125 -1 85.6016 -0.6328 Q85.0781 -0.2656 84.4531 -0.0547 Q83.8281 0.1562 83.0781 0.1562 Q81.0625 0.1562 80.0391 -1.0469 Q79.0156 -2.25 79.0156 -4.6094 Q79.0156 -6.0625 79.5391 -7.1797 Q80.0625 -8.2969 81.0312 -8.8984 Q82 -9.5 83.25 -9.5 Q84.2344 -9.5 84.9297 -9.1875 Q85.625 -8.875 86.0391 -8.3359 Q86.4531 -7.7969 86.6875 -6.9688 Q86.9219 -6.1406 86.9531 -4.8125 L80.7969 -4.8125 L80.7969 -4.6406 Q80.7969 -3.4844 81.0547 -2.7031 Q81.3125 -1.9219 81.9062 -1.4766 Q82.5 -1.0312 83.4375 -1.0312 Q84.2344 -1.0312 84.875 -1.3281 Q85.5156 -1.625 86.1562 -2.2969 L86.75 -1.6562 ZM85.1094 -5.625 Q85.0469 -6.6875 84.8438 -7.3516 Q84.6406 -8.0156 84.2344 -8.375 Q83.8281 -8.7344 83.1562 -8.7344 Q82.1562 -8.7344 81.5547 -7.9297 Q80.9531 -7.125 80.8438 -5.625 L85.1094 -5.625 ZM95.5469 -10.6094 Q95.5469 -11.5469 95.5312 -11.9219 Q95.5156 -12.2969 95.4531 -12.5547 Q95.3906 -12.8125 95.2734 -12.9609 Q95.1562 -13.1094 94.9688 -13.1953 Q94.7812 -13.2812 94.2812 -13.375 L94.2812 -13.875 L96.6406 -13.9688 L97.2188 -13.9688 L97.2188 -2.6719 Q97.2188 -1.9062 97.25 -1.5781 Q97.2812 -1.25 97.375 -1.0547 Q97.4688 -0.8594 97.6797 -0.7344 Q97.8906 -0.6094 98.4219 -0.5156 L98.4219 0 L96.1094 0.0938 L95.5312 0.0938 L95.6406 -1.5 L95.5 -1.5469 Q94.8906 -0.8906 94.4375 -0.5625 Q93.9844 -0.2344 93.4688 -0.0391 Q92.9531 0.1562 92.3594 0.1562 Q90.7656 0.1562 89.8984 -1.0625 Q89.0312 -2.2812 89.0312 -4.5781 Q89.0312 -6.1719 89.5938 -7.2891 Q90.1562 -8.4062 91.1172 -8.9531 Q92.0781 -9.5 93.2812 -9.5 Q93.9219 -9.5 94.4531 -9.3984 Q94.9844 -9.2969 95.5469 -9.0625 L95.5469 -10.6094 ZM95.5469 -5.7969 Q95.5469 -6.5469 95.4766 -7.0078 Q95.4062 -7.4688 95.2422 -7.7812 Q95.0781 -8.0938 94.8047 -8.3125 Q94.5312 -8.5312 94.2031 -8.625 Q93.875 -8.7188 93.4219 -8.7188 Q92.1719 -8.7188 91.5156 -7.7188 Q90.8594 -6.7188 90.8594 -4.8438 Q90.8594 -2.9688 91.3984 -1.9922 Q91.9375 -1.0156 93.0312 -1.0156 Q93.4531 -1.0156 93.7422 -1.0859 Q94.0312 -1.1562 94.3047 -1.3203 Q94.5781 -1.4844 94.8594 -1.7656 Q95.1406 -2.0469 95.2734 -2.2812 Q95.4062 -2.5156 95.4766 -2.8203 Q95.5469 -3.125 95.5469 -3.6094 L95.5469 -5.7969 ZM111.2188 -9.1094 L111.2188 -7.0781 L109.9844 -7.0781 Q109.8125 -7.7031 109.5703 -8.0703 Q109.3281 -8.4375 109.0078 -8.5859 Q108.6875 -8.7344 108.2031 -8.7344 Q107.5156 -8.7344 106.9922 -8.2969 Q106.4688 -7.8594 106.1641 -6.9609 Q105.8594 -6.0625 105.8594 -4.75 Q105.8594 -3.9219 105.9766 -3.2344 Q106.0938 -2.5469 106.375 -2.0625 Q106.6562 -1.5781 107.125 -1.3047 Q107.5938 -1.0312 108.2812 -1.0312 Q108.9531 -1.0312 109.5391 -1.2891 Q110.125 -1.5469 110.75 -2.2188 L111.2969 -1.5781 Q110.7969 -1.0312 110.4219 -0.7344 Q110.0469 -0.4375 109.6094 -0.2344 Q109.1719 -0.0312 108.75 0.0625 Q108.3281 0.1562 107.8281 0.1562 Q105.9844 0.1562 105.0078 -1.0703 Q104.0312 -2.2969 104.0312 -4.6094 Q104.0312 -6.0625 104.5781 -7.1797 Q105.125 -8.2969 106.1094 -8.8984 Q107.0938 -9.5 108.375 -9.5 Q109.1875 -9.5 109.8672 -9.4062 Q110.5469 -9.3125 111.2188 -9.1094 ZM117.2031 0.1562 Q115.1719 0.1562 114.1016 -1.0391 Q113.0312 -2.2344 113.0312 -4.5781 Q113.0312 -6.1875 113.5938 -7.3047 Q114.1562 -8.4219 115.1328 -8.9609 Q116.1094 -9.5 117.3594 -9.5 Q119.4375 -9.5 120.5156 -8.2891 Q121.5938 -7.0781 121.5938 -4.7969 Q121.5938 -3.1719 121.0547 -2.0625 Q120.5156 -0.9531 119.5312 -0.3984 Q118.5469 0.1562 117.2031 0.1562 ZM114.875 -4.7812 Q114.875 -2.7812 115.5156 -1.6953 Q116.1562 -0.6094 117.3438 -0.6094 Q118 -0.6094 118.4609 -0.9297 Q118.9219 -1.25 119.2031 -1.7891 Q119.4844 -2.3281 119.6172 -3.0312 Q119.75 -3.7344 119.75 -4.5156 Q119.75 -5.9531 119.4297 -6.8984 Q119.1094 -7.8438 118.5625 -8.2891 Q118.0156 -8.7344 117.3125 -8.7344 Q116.125 -8.7344 115.5 -7.7109 Q114.875 -6.6875 114.875 -4.7812 ZM133.4531 0 L129.6094 0 L129.6094 -0.4844 Q130 -0.5938 130.1641 -0.6797 Q130.3281 -0.7656 130.4375 -0.9219 Q130.5469 -1.0781 130.6094 -1.4062 Q130.6719 -1.7344 130.6719 -2.4062 L130.6719 -4.9688 Q130.6719 -5.6406 130.6328 -6.2031 Q130.5938 -6.7656 130.5 -7.1172 Q130.4062 -7.4688 130.2812 -7.6719 Q130.1562 -7.875 129.9688 -8.0156 Q129.7812 -8.1562 129.5469 -8.2422 Q129.3125 -8.3281 128.9375 -8.3281 Q128.5625 -8.3281 128.2188 -8.1719 Q127.875 -8.0156 127.4609 -7.6484 Q127.0469 -7.2812 126.8672 -6.9141 Q126.6875 -6.5469 126.6875 -6.0781 L126.6875 -2.4375 Q126.6875 -1.6094 126.7656 -1.2812 Q126.8438 -0.9531 127.0625 -0.7812 Q127.2812 -0.6094 127.7812 -0.4844 L127.7812 0 L123.9531 0 L123.9531 -0.4844 Q124.3281 -0.5938 124.4922 -0.6797 Q124.6562 -0.7656 124.7656 -0.9219 Q124.875 -1.0781 124.9375 -1.4062 Q125 -1.7344 125 -2.4062 L125 -6.6719 Q125 -7.2969 124.9844 -7.6797 Q124.9688 -8.0625 124.8516 -8.2891 Q124.7344 -8.5156 124.4922 -8.625 Q124.25 -8.7344 123.8125 -8.8125 L123.8125 -9.3438 L126.0938 -9.4219 L126.6875 -9.4219 L126.5781 -7.8281 L126.7188 -7.7969 Q127.4375 -8.5312 127.8828 -8.8438 Q128.3281 -9.1562 128.7812 -9.3281 Q129.2344 -9.5 129.75 -9.5 Q130.2812 -9.5 130.6953 -9.375 Q131.1094 -9.25 131.4219 -8.9922 Q131.7344 -8.7344 131.9453 -8.3594 Q132.1562 -7.9844 132.2578 -7.4609 Q132.3594 -6.9375 132.3594 -6.125 L132.3594 -2.4375 Q132.3594 -1.7656 132.3984 -1.4609 Q132.4375 -1.1562 132.5312 -0.9922 Q132.625 -0.8281 132.8125 -0.7188 Q133 -0.6094 133.4531 -0.4844 L133.4531 0 ZM141.5469 -10.6094 Q141.5469 -11.5469 141.5312 -11.9219 Q141.5156 -12.2969 141.4531 -12.5547 Q141.3906 -12.8125 141.2734 -12.9609 Q141.1562 -13.1094 140.9688 -13.1953 Q140.7812 -13.2812 140.2812 -13.375 L140.2812 -13.875 L142.6406 -13.9688 L143.2188 -13.9688 L143.2188 -2.6719 Q143.2188 -1.9062 143.25 -1.5781 Q143.2812 -1.25 143.375 -1.0547 Q143.4688 -0.8594 143.6797 -0.7344 Q143.8906 -0.6094 144.4219 -0.5156 L144.4219 0 L142.1094 0.0938 L141.5312 0.0938 L141.6406 -1.5 L141.5 -1.5469 Q140.8906 -0.8906 140.4375 -0.5625 Q139.9844 -0.2344 139.4688 -0.0391 Q138.9531 0.1562 138.3594 0.1562 Q136.7656 0.1562 135.8984 -1.0625 Q135.0312 -2.2812 135.0312 -4.5781 Q135.0312 -6.1719 135.5938 -7.2891 Q136.1562 -8.4062 137.1172 -8.9531 Q138.0781 -9.5 139.2812 -9.5 Q139.9219 -9.5 140.4531 -9.3984 Q140.9844 -9.2969 141.5469 -9.0625 L141.5469 -10.6094 ZM141.5469 -5.7969 Q141.5469 -6.5469 141.4766 -7.0078 Q141.4062 -7.4688 141.2422 -7.7812 Q141.0781 -8.0938 140.8047 -8.3125 Q140.5312 -8.5312 140.2031 -8.625 Q139.875 -8.7188 139.4219 -8.7188 Q138.1719 -8.7188 137.5156 -7.7188 Q136.8594 -6.7188 136.8594 -4.8438 Q136.8594 -2.9688 137.3984 -1.9922 Q137.9375 -1.0156 139.0312 -1.0156 Q139.4531 -1.0156 139.7422 -1.0859 Q140.0312 -1.1562 140.3047 -1.3203 Q140.5781 -1.4844 140.8594 -1.7656 Q141.1406 -2.0469 141.2734 -2.2812 Q141.4062 -2.5156 141.4766 -2.8203 Q141.5469 -3.125 141.5469 -3.6094 L141.5469 -5.7969 ZM145.7188 -9.3438 L148.5 -9.3438 L148.5 -4.3594 Q148.5 -3.2188 148.5859 -2.625 Q148.6719 -2.0312 148.8516 -1.7266 Q149.0312 -1.4219 149.3516 -1.2188 Q149.6719 -1.0156 150.2344 -1.0156 Q150.6094 -1.0156 150.9531 -1.1641 Q151.2969 -1.3125 151.7109 -1.6797 Q152.125 -2.0469 152.3047 -2.4062 Q152.4844 -2.7656 152.4844 -3.25 L152.4844 -6.9062 Q152.4844 -7.4688 152.4609 -7.75 Q152.4375 -8.0312 152.3672 -8.2031 Q152.2969 -8.375 152.2031 -8.4766 Q152.1094 -8.5781 151.9375 -8.6719 Q151.7656 -8.7656 151.3906 -8.8594 L151.3906 -9.3438 L154.1719 -9.3438 L154.1719 -2.6719 Q154.1719 -1.9219 154.2031 -1.5859 Q154.2344 -1.25 154.3281 -1.0547 Q154.4219 -0.8594 154.625 -0.7344 Q154.8281 -0.6094 155.3594 -0.5156 L155.3594 0 L153.125 0.0938 L152.5312 0.0938 L152.5938 -1.5 L152.4375 -1.5469 Q151.625 -0.6719 150.8906 -0.2578 Q150.1562 0.1562 149.4219 0.1562 Q148.5312 0.1562 147.9531 -0.1953 Q147.375 -0.5469 147.0938 -1.2422 Q146.8125 -1.9375 146.8125 -3.2188 L146.8125 -6.9062 Q146.8125 -7.7188 146.75 -8.0312 Q146.6875 -8.3438 146.5 -8.5234 Q146.3125 -8.7031 145.7188 -8.8594 L145.7188 -9.3438 ZM164.2188 -9.1094 L164.2188 -7.0781 L162.9844 -7.0781 Q162.8125 -7.7031 162.5703 -8.0703 Q162.3281 -8.4375 162.0078 -8.5859 Q161.6875 -8.7344 161.2031 -8.7344 Q160.5156 -8.7344 159.9922 -8.2969 Q159.4688 -7.8594 159.1641 -6.9609 Q158.8594 -6.0625 158.8594 -4.75 Q158.8594 -3.9219 158.9766 -3.2344 Q159.0938 -2.5469 159.375 -2.0625 Q159.6562 -1.5781 160.125 -1.3047 Q160.5938 -1.0312 161.2812 -1.0312 Q161.9531 -1.0312 162.5391 -1.2891 Q163.125 -1.5469 163.75 -2.2188 L164.2969 -1.5781 Q163.7969 -1.0312 163.4219 -0.7344 Q163.0469 -0.4375 162.6094 -0.2344 Q162.1719 -0.0312 161.75 0.0625 Q161.3281 0.1562 160.8281 0.1562 Q158.9844 0.1562 158.0078 -1.0703 Q157.0312 -2.2969 157.0312 -4.6094 Q157.0312 -6.0625 157.5781 -7.1797 Q158.125 -8.2969 159.1094 -8.8984 Q160.0938 -9.5 161.375 -9.5 Q162.1875 -9.5 162.8672 -9.4062 Q163.5469 -9.3125 164.2188 -9.1094 ZM165.3594 -8.8438 Q165.8438 -8.9219 166.1484 -9.1172 Q166.4531 -9.3125 166.625 -9.625 Q166.7969 -9.9375 166.8984 -10.3984 Q167 -10.8594 167.0938 -11.75 L168.4844 -11.75 L168.4844 -9.3438 L171.6406 -9.3438 L171.6406 -8.3438 L168.4844 -8.3438 L168.4844 -4 Q168.4844 -3.0625 168.5625 -2.5 Q168.6406 -1.9375 168.8594 -1.6172 Q169.0781 -1.2969 169.3516 -1.1641 Q169.625 -1.0312 170.0469 -1.0312 Q170.4375 -1.0312 170.7812 -1.1875 Q171.125 -1.3438 171.4531 -1.6562 L171.8906 -1.125 Q171.2031 -0.4531 170.5859 -0.1484 Q169.9688 0.1562 169.2969 0.1562 Q168.0312 0.1562 167.4219 -0.5938 Q166.8125 -1.3438 166.8125 -2.9375 L166.8125 -8.3438 L165.3594 -8.3438 L165.3594 -8.8438 ZM178.5938 -1.3906 L178.4531 -1.4375 Q177.5938 -0.5625 176.8516 -0.2031 Q176.1094 0.1562 175.2656 0.1562 Q174.5156 0.1562 173.9531 -0.1328 Q173.3906 -0.4219 173.0859 -0.9453 Q172.7812 -1.4688 172.7812 -2.1562 Q172.7812 -3.5781 174.1953 -4.3516 Q175.6094 -5.125 178.4219 -5.25 L178.4219 -5.8906 Q178.4219 -6.9062 178.2266 -7.4922 Q178.0312 -8.0781 177.6172 -8.3516 Q177.2031 -8.625 176.5 -8.625 Q175.7344 -8.625 175.2656 -8.2266 Q174.7969 -7.8281 174.5625 -7.0156 L173.2969 -7.0156 L173.2969 -8.2969 Q174.2344 -8.7812 174.8594 -9.0078 Q175.4844 -9.2344 176.1094 -9.3672 Q176.7344 -9.5 177.375 -9.5 Q178.3438 -9.5 178.9297 -9.1953 Q179.5156 -8.8906 179.8047 -8.2578 Q180.0938 -7.625 180.0938 -6.3438 L180.0938 -2.9375 Q180.0938 -2.2188 180.1016 -1.9219 Q180.1094 -1.625 180.1641 -1.3672 Q180.2188 -1.1094 180.3125 -0.9609 Q180.4062 -0.8125 180.6016 -0.7031 Q180.7969 -0.5938 181.2188 -0.4844 L181.2188 0 L178.5469 0 L178.5938 -1.3906 ZM178.4219 -4.4531 Q176.4375 -4.4375 175.4531 -3.9297 Q174.4688 -3.4219 174.4688 -2.3906 Q174.4688 -1.8438 174.6953 -1.5156 Q174.9219 -1.1875 175.2656 -1.0703 Q175.6094 -0.9531 176.0781 -0.9531 Q176.7344 -0.9531 177.2812 -1.2734 Q177.8281 -1.5938 178.125 -2.0938 Q178.4219 -2.5938 178.4219 -3.0781 L178.4219 -4.4531 ZM192.4531 0 L188.6094 0 L188.6094 -0.4844 Q189 -0.5938 189.1641 -0.6797 Q189.3281 -0.7656 189.4375 -0.9219 Q189.5469 -1.0781 189.6094 -1.4062 Q189.6719 -1.7344 189.6719 -2.4062 L189.6719 -4.9688 Q189.6719 -5.6406 189.6328 -6.2031 Q189.5938 -6.7656 189.5 -7.1172 Q189.4062 -7.4688 189.2812 -7.6719 Q189.1562 -7.875 188.9688 -8.0156 Q188.7812 -8.1562 188.5469 -8.2422 Q188.3125 -8.3281 187.9375 -8.3281 Q187.5625 -8.3281 187.2188 -8.1719 Q186.875 -8.0156 186.4609 -7.6484 Q186.0469 -7.2812 185.8672 -6.9141 Q185.6875 -6.5469 185.6875 -6.0781 L185.6875 -2.4375 Q185.6875 -1.6094 185.7656 -1.2812 Q185.8438 -0.9531 186.0625 -0.7812 Q186.2812 -0.6094 186.7812 -0.4844 L186.7812 0 L182.9531 0 L182.9531 -0.4844 Q183.3281 -0.5938 183.4922 -0.6797 Q183.6562 -0.7656 183.7656 -0.9219 Q183.875 -1.0781 183.9375 -1.4062 Q184 -1.7344 184 -2.4062 L184 -6.6719 Q184 -7.2969 183.9844 -7.6797 Q183.9688 -8.0625 183.8516 -8.2891 Q183.7344 -8.5156 183.4922 -8.625 Q183.25 -8.7344 182.8125 -8.8125 L182.8125 -9.3438 L185.0938 -9.4219 L185.6875 -9.4219 L185.5781 -7.8281 L185.7188 -7.7969 Q186.4375 -8.5312 186.8828 -8.8438 Q187.3281 -9.1562 187.7812 -9.3281 Q188.2344 -9.5 188.75 -9.5 Q189.2812 -9.5 189.6953 -9.375 Q190.1094 -9.25 190.4219 -8.9922 Q190.7344 -8.7344 190.9453 -8.3594 Q191.1562 -7.9844 191.2578 -7.4609 Q191.3594 -6.9375 191.3594 -6.125 L191.3594 -2.4375 Q191.3594 -1.7656 191.3984 -1.4609 Q191.4375 -1.1562 191.5312 -0.9922 Q191.625 -0.8281 191.8125 -0.7188 Q192 -0.6094 192.4531 -0.4844 L192.4531 0 ZM201.2188 -9.1094 L201.2188 -7.0781 L199.9844 -7.0781 Q199.8125 -7.7031 199.5703 -8.0703 Q199.3281 -8.4375 199.0078 -8.5859 Q198.6875 -8.7344 198.2031 -8.7344 Q197.5156 -8.7344 196.9922 -8.2969 Q196.4688 -7.8594 196.1641 -6.9609 Q195.8594 -6.0625 195.8594 -4.75 Q195.8594 -3.9219 195.9766 -3.2344 Q196.0938 -2.5469 196.375 -2.0625 Q196.6562 -1.5781 197.125 -1.3047 Q197.5938 -1.0312 198.2812 -1.0312 Q198.9531 -1.0312 199.5391 -1.2891 Q200.125 -1.5469 200.75 -2.2188 L201.2969 -1.5781 Q200.7969 -1.0312 200.4219 -0.7344 Q200.0469 -0.4375 199.6094 -0.2344 Q199.1719 -0.0312 198.75 0.0625 Q198.3281 0.1562 197.8281 0.1562 Q195.9844 0.1562 195.0078 -1.0703 Q194.0312 -2.2969 194.0312 -4.6094 Q194.0312 -6.0625 194.5781 -7.1797 Q195.125 -8.2969 196.1094 -8.8984 Q197.0938 -9.5 198.375 -9.5 Q199.1875 -9.5 199.8672 -9.4062 Q200.5469 -9.3125 201.2188 -9.1094 ZM210.75 -1.6562 Q210.125 -1 209.6016 -0.6328 Q209.0781 -0.2656 208.4531 -0.0547 Q207.8281 0.1562 207.0781 0.1562 Q205.0625 0.1562 204.0391 -1.0469 Q203.0156 -2.25 203.0156 -4.6094 Q203.0156 -6.0625 203.5391 -7.1797 Q204.0625 -8.2969 205.0312 -8.8984 Q206 -9.5 207.25 -9.5 Q208.2344 -9.5 208.9297 -9.1875 Q209.625 -8.875 210.0391 -8.3359 Q210.4531 -7.7969 210.6875 -6.9688 Q210.9219 -6.1406 210.9531 -4.8125 L204.7969 -4.8125 L204.7969 -4.6406 Q204.7969 -3.4844 205.0547 -2.7031 Q205.3125 -1.9219 205.9062 -1.4766 Q206.5 -1.0312 207.4375 -1.0312 Q208.2344 -1.0312 208.875 -1.3281 Q209.5156 -1.625 210.1562 -2.2969 L210.75 -1.6562 ZM209.1094 -5.625 Q209.0469 -6.6875 208.8438 -7.3516 Q208.6406 -8.0156 208.2344 -8.375 Q207.8281 -8.7344 207.1562 -8.7344 Q206.1562 -8.7344 205.5547 -7.9297 Q204.9531 -7.125 204.8438 -5.625 L209.1094 -5.625 ZM221.2031 0.1562 Q219.1719 0.1562 218.1016 -1.0391 Q217.0312 -2.2344 217.0312 -4.5781 Q217.0312 -6.1875 217.5938 -7.3047 Q218.1562 -8.4219 219.1328 -8.9609 Q220.1094 -9.5 221.3594 -9.5 Q223.4375 -9.5 224.5156 -8.2891 Q225.5938 -7.0781 225.5938 -4.7969 Q225.5938 -3.1719 225.0547 -2.0625 Q224.5156 -0.9531 223.5312 -0.3984 Q222.5469 0.1562 221.2031 0.1562 ZM218.875 -4.7812 Q218.875 -2.7812 219.5156 -1.6953 Q220.1562 -0.6094 221.3438 -0.6094 Q222 -0.6094 222.4609 -0.9297 Q222.9219 -1.25 223.2031 -1.7891 Q223.4844 -2.3281 223.6172 -3.0312 Q223.75 -3.7344 223.75 -4.5156 Q223.75 -5.9531 223.4297 -6.8984 Q223.1094 -7.8438 222.5625 -8.2891 Q222.0156 -8.7344 221.3125 -8.7344 Q220.125 -8.7344 219.5 -7.7109 Q218.875 -6.6875 218.875 -4.7812 ZM232.9688 -8.3438 L230.6406 -8.3438 L230.6406 -2.4375 Q230.6406 -1.7812 230.7031 -1.4531 Q230.7656 -1.125 230.8828 -0.9531 Q231 -0.7812 231.2031 -0.6797 Q231.4062 -0.5781 231.8438 -0.4844 L231.8438 0 L227.8438 0 L227.8438 -0.4844 Q228.2812 -0.5938 228.4688 -0.7031 Q228.6562 -0.8125 228.7578 -0.9766 Q228.8594 -1.1406 228.9062 -1.4531 Q228.9531 -1.7656 228.9531 -2.4375 L228.9531 -8.3438 L227.7656 -8.3438 L227.7656 -8.8438 Q228.1406 -8.9062 228.2656 -8.9375 Q228.3906 -8.9688 228.5 -9.0391 Q228.6094 -9.1094 228.6953 -9.2344 Q228.7812 -9.3594 228.8438 -9.6094 Q228.9062 -9.8594 228.9375 -10.3125 Q229.0312 -11.375 229.3281 -12.0391 Q229.625 -12.7031 230.1953 -13.1719 Q230.7656 -13.6406 231.4141 -13.8359 Q232.0625 -14.0312 232.9531 -14.0312 Q233.7188 -14.0312 234.25 -13.9219 L234.25 -12.1562 L233.2969 -12.1562 Q233.1094 -12.7188 232.8594 -12.9609 Q232.6094 -13.2031 232.1562 -13.2031 Q231.8281 -13.2031 231.6094 -13.1172 Q231.3906 -13.0312 231.2109 -12.8438 Q231.0312 -12.6562 230.8984 -12.3438 Q230.7656 -12.0312 230.7031 -11.5703 Q230.6406 -11.1094 230.6406 -10.3594 L230.6406 -9.3438 L232.9688 -9.3438 L232.9688 -8.3438 ZM244.4844 -7.2031 L243.5469 -7.2031 Q243.3438 -7.7812 243.0469 -8.1172 Q242.75 -8.4531 242.3828 -8.5938 Q242.0156 -8.7344 241.4688 -8.7344 Q240.6875 -8.7344 240.2266 -8.3672 Q239.7656 -8 239.7656 -7.3594 Q239.7656 -6.9219 239.9531 -6.625 Q240.1406 -6.3281 240.5312 -6.0781 Q240.9219 -5.8281 241.9062 -5.4062 Q242.9062 -4.9688 243.4453 -4.6094 Q243.9844 -4.25 244.2891 -3.7734 Q244.5938 -3.2969 244.5938 -2.625 Q244.5938 -1.8594 244.3359 -1.3281 Q244.0781 -0.7969 243.5938 -0.4688 Q243.1094 -0.1406 242.4531 0.0078 Q241.7969 0.1562 241.0156 0.1562 Q240.1875 0.1562 239.4219 0.0312 Q238.6562 -0.0938 237.9219 -0.2812 L237.9219 -2.3281 L238.875 -2.3281 Q239.1406 -1.4219 239.6562 -1.0156 Q240.1719 -0.6094 241.0781 -0.6094 Q241.4375 -0.6094 241.7734 -0.6875 Q242.1094 -0.7656 242.375 -0.9375 Q242.6406 -1.1094 242.7969 -1.3984 Q242.9531 -1.6875 242.9531 -2.125 Q242.9531 -2.625 242.7578 -2.9375 Q242.5625 -3.25 242.1484 -3.5078 Q241.7344 -3.7656 240.7031 -4.2031 Q239.8125 -4.5781 239.2734 -4.9297 Q238.7344 -5.2812 238.4297 -5.7578 Q238.125 -6.2344 238.125 -6.8906 Q238.125 -7.7031 238.5625 -8.2891 Q239 -8.875 239.8203 -9.1875 Q240.6406 -9.5 241.7344 -9.5 Q242.375 -9.5 242.9766 -9.4375 Q243.5781 -9.375 244.4844 -9.1875 L244.4844 -7.2031 ZM254.75 -1.6562 Q254.125 -1 253.6016 -0.6328 Q253.0781 -0.2656 252.4531 -0.0547 Q251.8281 0.1562 251.0781 0.1562 Q249.0625 0.1562 248.0391 -1.0469 Q247.0156 -2.25 247.0156 -4.6094 Q247.0156 -6.0625 247.5391 -7.1797 Q248.0625 -8.2969 249.0312 -8.8984 Q250 -9.5 251.25 -9.5 Q252.2344 -9.5 252.9297 -9.1875 Q253.625 -8.875 254.0391 -8.3359 Q254.4531 -7.7969 254.6875 -6.9688 Q254.9219 -6.1406 254.9531 -4.8125 L248.7969 -4.8125 L248.7969 -4.6406 Q248.7969 -3.4844 249.0547 -2.7031 Q249.3125 -1.9219 249.9062 -1.4766 Q250.5 -1.0312 251.4375 -1.0312 Q252.2344 -1.0312 252.875 -1.3281 Q253.5156 -1.625 254.1562 -2.2969 L254.75 -1.6562 ZM253.1094 -5.625 Q253.0469 -6.6875 252.8438 -7.3516 Q252.6406 -8.0156 252.2344 -8.375 Q251.8281 -8.7344 251.1562 -8.7344 Q250.1562 -8.7344 249.5547 -7.9297 Q248.9531 -7.125 248.8438 -5.625 L253.1094 -5.625 ZM264.2188 -9.1094 L264.2188 -7.0781 L262.9844 -7.0781 Q262.8125 -7.7031 262.5703 -8.0703 Q262.3281 -8.4375 262.0078 -8.5859 Q261.6875 -8.7344 261.2031 -8.7344 Q260.5156 -8.7344 259.9922 -8.2969 Q259.4688 -7.8594 259.1641 -6.9609 Q258.8594 -6.0625 258.8594 -4.75 Q258.8594 -3.9219 258.9766 -3.2344 Q259.0938 -2.5469 259.375 -2.0625 Q259.6562 -1.5781 260.125 -1.3047 Q260.5938 -1.0312 261.2812 -1.0312 Q261.9531 -1.0312 262.5391 -1.2891 Q263.125 -1.5469 263.75 -2.2188 L264.2969 -1.5781 Q263.7969 -1.0312 263.4219 -0.7344 Q263.0469 -0.4375 262.6094 -0.2344 Q262.1719 -0.0312 261.75 0.0625 Q261.3281 0.1562 260.8281 0.1562 Q258.9844 0.1562 258.0078 -1.0703 Q257.0312 -2.2969 257.0312 -4.6094 Q257.0312 -6.0625 257.5781 -7.1797 Q258.125 -8.2969 259.1094 -8.8984 Q260.0938 -9.5 261.375 -9.5 Q262.1875 -9.5 262.8672 -9.4062 Q263.5469 -9.3125 264.2188 -9.1094 ZM270.2031 0.1562 Q268.1719 0.1562 267.1016 -1.0391 Q266.0312 -2.2344 266.0312 -4.5781 Q266.0312 -6.1875 266.5938 -7.3047 Q267.1562 -8.4219 268.1328 -8.9609 Q269.1094 -9.5 270.3594 -9.5 Q272.4375 -9.5 273.5156 -8.2891 Q274.5938 -7.0781 274.5938 -4.7969 Q274.5938 -3.1719 274.0547 -2.0625 Q273.5156 -0.9531 272.5312 -0.3984 Q271.5469 0.1562 270.2031 0.1562 ZM267.875 -4.7812 Q267.875 -2.7812 268.5156 -1.6953 Q269.1562 -0.6094 270.3438 -0.6094 Q271 -0.6094 271.4609 -0.9297 Q271.9219 -1.25 272.2031 -1.7891 Q272.4844 -2.3281 272.6172 -3.0312 Q272.75 -3.7344 272.75 -4.5156 Q272.75 -5.9531 272.4297 -6.8984 Q272.1094 -7.8438 271.5625 -8.2891 Q271.0156 -8.7344 270.3125 -8.7344 Q269.125 -8.7344 268.5 -7.7109 Q267.875 -6.6875 267.875 -4.7812 ZM286.4531 0 L282.6094 0 L282.6094 -0.4844 Q283 -0.5938 283.1641 -0.6797 Q283.3281 -0.7656 283.4375 -0.9219 Q283.5469 -1.0781 283.6094 -1.4062 Q283.6719 -1.7344 283.6719 -2.4062 L283.6719 -4.9688 Q283.6719 -5.6406 283.6328 -6.2031 Q283.5938 -6.7656 283.5 -7.1172 Q283.4062 -7.4688 283.2812 -7.6719 Q283.1562 -7.875 282.9688 -8.0156 Q282.7812 -8.1562 282.5469 -8.2422 Q282.3125 -8.3281 281.9375 -8.3281 Q281.5625 -8.3281 281.2188 -8.1719 Q280.875 -8.0156 280.4609 -7.6484 Q280.0469 -7.2812 279.8672 -6.9141 Q279.6875 -6.5469 279.6875 -6.0781 L279.6875 -2.4375 Q279.6875 -1.6094 279.7656 -1.2812 Q279.8438 -0.9531 280.0625 -0.7812 Q280.2812 -0.6094 280.7812 -0.4844 L280.7812 0 L276.9531 0 L276.9531 -0.4844 Q277.3281 -0.5938 277.4922 -0.6797 Q277.6562 -0.7656 277.7656 -0.9219 Q277.875 -1.0781 277.9375 -1.4062 Q278 -1.7344 278 -2.4062 L278 -6.6719 Q278 -7.2969 277.9844 -7.6797 Q277.9688 -8.0625 277.8516 -8.2891 Q277.7344 -8.5156 277.4922 -8.625 Q277.25 -8.7344 276.8125 -8.8125 L276.8125 -9.3438 L279.0938 -9.4219 L279.6875 -9.4219 L279.5781 -7.8281 L279.7188 -7.7969 Q280.4375 -8.5312 280.8828 -8.8438 Q281.3281 -9.1562 281.7812 -9.3281 Q282.2344 -9.5 282.75 -9.5 Q283.2812 -9.5 283.6953 -9.375 Q284.1094 -9.25 284.4219 -8.9922 Q284.7344 -8.7344 284.9453 -8.3594 Q285.1562 -7.9844 285.2578 -7.4609 Q285.3594 -6.9375 285.3594 -6.125 L285.3594 -2.4375 Q285.3594 -1.7656 285.3984 -1.4609 Q285.4375 -1.1562 285.5312 -0.9922 Q285.625 -0.8281 285.8125 -0.7188 Q286 -0.6094 286.4531 -0.4844 L286.4531 0 ZM294.5469 -10.6094 Q294.5469 -11.5469 294.5312 -11.9219 Q294.5156 -12.2969 294.4531 -12.5547 Q294.3906 -12.8125 294.2734 -12.9609 Q294.1562 -13.1094 293.9688 -13.1953 Q293.7812 -13.2812 293.2812 -13.375 L293.2812 -13.875 L295.6406 -13.9688 L296.2188 -13.9688 L296.2188 -2.6719 Q296.2188 -1.9062 296.25 -1.5781 Q296.2812 -1.25 296.375 -1.0547 Q296.4688 -0.8594 296.6797 -0.7344 Q296.8906 -0.6094 297.4219 -0.5156 L297.4219 0 L295.1094 0.0938 L294.5312 0.0938 L294.6406 -1.5 L294.5 -1.5469 Q293.8906 -0.8906 293.4375 -0.5625 Q292.9844 -0.2344 292.4688 -0.0391 Q291.9531 0.1562 291.3594 0.1562 Q289.7656 0.1562 288.8984 -1.0625 Q288.0312 -2.2812 288.0312 -4.5781 Q288.0312 -6.1719 288.5938 -7.2891 Q289.1562 -8.4062 290.1172 -8.9531 Q291.0781 -9.5 292.2812 -9.5 Q292.9219 -9.5 293.4531 -9.3984 Q293.9844 -9.2969 294.5469 -9.0625 L294.5469 -10.6094 ZM294.5469 -5.7969 Q294.5469 -6.5469 294.4766 -7.0078 Q294.4062 -7.4688 294.2422 -7.7812 Q294.0781 -8.0938 293.8047 -8.3125 Q293.5312 -8.5312 293.2031 -8.625 Q292.875 -8.7188 292.4219 -8.7188 Q291.1719 -8.7188 290.5156 -7.7188 Q289.8594 -6.7188 289.8594 -4.8438 Q289.8594 -2.9688 290.3984 -1.9922 Q290.9375 -1.0156 292.0312 -1.0156 Q292.4531 -1.0156 292.7422 -1.0859 Q293.0312 -1.1562 293.3047 -1.3203 Q293.5781 -1.4844 293.8594 -1.7656 Q294.1406 -2.0469 294.2734 -2.2812 Q294.4062 -2.5156 294.4766 -2.8203 Q294.5469 -3.125 294.5469 -3.6094 L294.5469 -5.7969 ZM310.2188 -9.1094 L310.2188 -7.0781 L308.9844 -7.0781 Q308.8125 -7.7031 308.5703 -8.0703 Q308.3281 -8.4375 308.0078 -8.5859 Q307.6875 -8.7344 307.2031 -8.7344 Q306.5156 -8.7344 305.9922 -8.2969 Q305.4688 -7.8594 305.1641 -6.9609 Q304.8594 -6.0625 304.8594 -4.75 Q304.8594 -3.9219 304.9766 -3.2344 Q305.0938 -2.5469 305.375 -2.0625 Q305.6562 -1.5781 306.125 -1.3047 Q306.5938 -1.0312 307.2812 -1.0312 Q307.9531 -1.0312 308.5391 -1.2891 Q309.125 -1.5469 309.75 -2.2188 L310.2969 -1.5781 Q309.7969 -1.0312 309.4219 -0.7344 Q309.0469 -0.4375 308.6094 -0.2344 Q308.1719 -0.0312 307.75 0.0625 Q307.3281 0.1562 306.8281 0.1562 Q304.9844 0.1562 304.0078 -1.0703 Q303.0312 -2.2969 303.0312 -4.6094 Q303.0312 -6.0625 303.5781 -7.1797 Q304.125 -8.2969 305.1094 -8.8984 Q306.0938 -9.5 307.375 -9.5 Q308.1875 -9.5 308.8672 -9.4062 Q309.5469 -9.3125 310.2188 -9.1094 ZM316.2031 0.1562 Q314.1719 0.1562 313.1016 -1.0391 Q312.0312 -2.2344 312.0312 -4.5781 Q312.0312 -6.1875 312.5938 -7.3047 Q313.1562 -8.4219 314.1328 -8.9609 Q315.1094 -9.5 316.3594 -9.5 Q318.4375 -9.5 319.5156 -8.2891 Q320.5938 -7.0781 320.5938 -4.7969 Q320.5938 -3.1719 320.0547 -2.0625 Q319.5156 -0.9531 318.5312 -0.3984 Q317.5469 0.1562 316.2031 0.1562 ZM313.875 -4.7812 Q313.875 -2.7812 314.5156 -1.6953 Q315.1562 -0.6094 316.3438 -0.6094 Q317 -0.6094 317.4609 -0.9297 Q317.9219 -1.25 318.2031 -1.7891 Q318.4844 -2.3281 318.6172 -3.0312 Q318.75 -3.7344 318.75 -4.5156 Q318.75 -5.9531 318.4297 -6.8984 Q318.1094 -7.8438 317.5625 -8.2891 Q317.0156 -8.7344 316.3125 -8.7344 Q315.125 -8.7344 314.5 -7.7109 Q313.875 -6.6875 313.875 -4.7812 ZM332.4531 0 L328.6094 0 L328.6094 -0.4844 Q329 -0.5938 329.1641 -0.6797 Q329.3281 -0.7656 329.4375 -0.9219 Q329.5469 -1.0781 329.6094 -1.4062 Q329.6719 -1.7344 329.6719 -2.4062 L329.6719 -4.9688 Q329.6719 -5.6406 329.6328 -6.2031 Q329.5938 -6.7656 329.5 -7.1172 Q329.4062 -7.4688 329.2812 -7.6719 Q329.1562 -7.875 328.9688 -8.0156 Q328.7812 -8.1562 328.5469 -8.2422 Q328.3125 -8.3281 327.9375 -8.3281 Q327.5625 -8.3281 327.2188 -8.1719 Q326.875 -8.0156 326.4609 -7.6484 Q326.0469 -7.2812 325.8672 -6.9141 Q325.6875 -6.5469 325.6875 -6.0781 L325.6875 -2.4375 Q325.6875 -1.6094 325.7656 -1.2812 Q325.8438 -0.9531 326.0625 -0.7812 Q326.2812 -0.6094 326.7812 -0.4844 L326.7812 0 L322.9531 0 L322.9531 -0.4844 Q323.3281 -0.5938 323.4922 -0.6797 Q323.6562 -0.7656 323.7656 -0.9219 Q323.875 -1.0781 323.9375 -1.4062 Q324 -1.7344 324 -2.4062 L324 -6.6719 Q324 -7.2969 323.9844 -7.6797 Q323.9688 -8.0625 323.8516 -8.2891 Q323.7344 -8.5156 323.4922 -8.625 Q323.25 -8.7344 322.8125 -8.8125 L322.8125 -9.3438 L325.0938 -9.4219 L325.6875 -9.4219 L325.5781 -7.8281 L325.7188 -7.7969 Q326.4375 -8.5312 326.8828 -8.8438 Q327.3281 -9.1562 327.7812 -9.3281 Q328.2344 -9.5 328.75 -9.5 Q329.2812 -9.5 329.6953 -9.375 Q330.1094 -9.25 330.4219 -8.9922 Q330.7344 -8.7344 330.9453 -8.3594 Q331.1562 -7.9844 331.2578 -7.4609 Q331.3594 -6.9375 331.3594 -6.125 L331.3594 -2.4375 Q331.3594 -1.7656 331.3984 -1.4609 Q331.4375 -1.1562 331.5312 -0.9922 Q331.625 -0.8281 331.8125 -0.7188 Q332 -0.6094 332.4531 -0.4844 L332.4531 0 ZM340.5469 -10.6094 Q340.5469 -11.5469 340.5312 -11.9219 Q340.5156 -12.2969 340.4531 -12.5547 Q340.3906 -12.8125 340.2734 -12.9609 Q340.1562 -13.1094 339.9688 -13.1953 Q339.7812 -13.2812 339.2812 -13.375 L339.2812 -13.875 L341.6406 -13.9688 L342.2188 -13.9688 L342.2188 -2.6719 Q342.2188 -1.9062 342.25 -1.5781 Q342.2812 -1.25 342.375 -1.0547 Q342.4688 -0.8594 342.6797 -0.7344 Q342.8906 -0.6094 343.4219 -0.5156 L343.4219 0 L341.1094 0.0938 L340.5312 0.0938 L340.6406 -1.5 L340.5 -1.5469 Q339.8906 -0.8906 339.4375 -0.5625 Q338.9844 -0.2344 338.4688 -0.0391 Q337.9531 0.1562 337.3594 0.1562 Q335.7656 0.1562 334.8984 -1.0625 Q334.0312 -2.2812 334.0312 -4.5781 Q334.0312 -6.1719 334.5938 -7.2891 Q335.1562 -8.4062 336.1172 -8.9531 Q337.0781 -9.5 338.2812 -9.5 Q338.9219 -9.5 339.4531 -9.3984 Q339.9844 -9.2969 340.5469 -9.0625 L340.5469 -10.6094 ZM340.5469 -5.7969 Q340.5469 -6.5469 340.4766 -7.0078 Q340.4062 -7.4688 340.2422 -7.7812 Q340.0781 -8.0938 339.8047 -8.3125 Q339.5312 -8.5312 339.2031 -8.625 Q338.875 -8.7188 338.4219 -8.7188 Q337.1719 -8.7188 336.5156 -7.7188 Q335.8594 -6.7188 335.8594 -4.8438 Q335.8594 -2.9688 336.3984 -1.9922 Q336.9375 -1.0156 338.0312 -1.0156 Q338.4531 -1.0156 338.7422 -1.0859 Q339.0312 -1.1562 339.3047 -1.3203 Q339.5781 -1.4844 339.8594 -1.7656 Q340.1406 -2.0469 340.2734 -2.2812 Q340.4062 -2.5156 340.4766 -2.8203 Q340.5469 -3.125 340.5469 -3.6094 L340.5469 -5.7969 ZM344.7188 -9.3438 L347.5 -9.3438 L347.5 -4.3594 Q347.5 -3.2188 347.5859 -2.625 Q347.6719 -2.0312 347.8516 -1.7266 Q348.0312 -1.4219 348.3516 -1.2188 Q348.6719 -1.0156 349.2344 -1.0156 Q349.6094 -1.0156 349.9531 -1.1641 Q350.2969 -1.3125 350.7109 -1.6797 Q351.125 -2.0469 351.3047 -2.4062 Q351.4844 -2.7656 351.4844 -3.25 L351.4844 -6.9062 Q351.4844 -7.4688 351.4609 -7.75 Q351.4375 -8.0312 351.3672 -8.2031 Q351.2969 -8.375 351.2031 -8.4766 Q351.1094 -8.5781 350.9375 -8.6719 Q350.7656 -8.7656 350.3906 -8.8594 L350.3906 -9.3438 L353.1719 -9.3438 L353.1719 -2.6719 Q353.1719 -1.9219 353.2031 -1.5859 Q353.2344 -1.25 353.3281 -1.0547 Q353.4219 -0.8594 353.625 -0.7344 Q353.8281 -0.6094 354.3594 -0.5156 L354.3594 0 L352.125 0.0938 L351.5312 0.0938 L351.5938 -1.5 L351.4375 -1.5469 Q350.625 -0.6719 349.8906 -0.2578 Q349.1562 0.1562 348.4219 0.1562 Q347.5312 0.1562 346.9531 -0.1953 Q346.375 -0.5469 346.0938 -1.2422 Q345.8125 -1.9375 345.8125 -3.2188 L345.8125 -6.9062 Q345.8125 -7.7188 345.75 -8.0312 Q345.6875 -8.3438 345.5 -8.5234 Q345.3125 -8.7031 344.7188 -8.8594 L344.7188 -9.3438 ZM363.2188 -9.1094 L363.2188 -7.0781 L361.9844 -7.0781 Q361.8125 -7.7031 361.5703 -8.0703 Q361.3281 -8.4375 361.0078 -8.5859 Q360.6875 -8.7344 360.2031 -8.7344 Q359.5156 -8.7344 358.9922 -8.2969 Q358.4688 -7.8594 358.1641 -6.9609 Q357.8594 -6.0625 357.8594 -4.75 Q357.8594 -3.9219 357.9766 -3.2344 Q358.0938 -2.5469 358.375 -2.0625 Q358.6562 -1.5781 359.125 -1.3047 Q359.5938 -1.0312 360.2812 -1.0312 Q360.9531 -1.0312 361.5391 -1.2891 Q362.125 -1.5469 362.75 -2.2188 L363.2969 -1.5781 Q362.7969 -1.0312 362.4219 -0.7344 Q362.0469 -0.4375 361.6094 -0.2344 Q361.1719 -0.0312 360.75 0.0625 Q360.3281 0.1562 359.8281 0.1562 Q357.9844 0.1562 357.0078 -1.0703 Q356.0312 -2.2969 356.0312 -4.6094 Q356.0312 -6.0625 356.5781 -7.1797 Q357.125 -8.2969 358.1094 -8.8984 Q359.0938 -9.5 360.375 -9.5 Q361.1875 -9.5 361.8672 -9.4062 Q362.5469 -9.3125 363.2188 -9.1094 ZM364.3594 -8.8438 Q364.8438 -8.9219 365.1484 -9.1172 Q365.4531 -9.3125 365.625 -9.625 Q365.7969 -9.9375 365.8984 -10.3984 Q366 -10.8594 366.0938 -11.75 L367.4844 -11.75 L367.4844 -9.3438 L370.6406 -9.3438 L370.6406 -8.3438 L367.4844 -8.3438 L367.4844 -4 Q367.4844 -3.0625 367.5625 -2.5 Q367.6406 -1.9375 367.8594 -1.6172 Q368.0781 -1.2969 368.3516 -1.1641 Q368.625 -1.0312 369.0469 -1.0312 Q369.4375 -1.0312 369.7812 -1.1875 Q370.125 -1.3438 370.4531 -1.6562 L370.8906 -1.125 Q370.2031 -0.4531 369.5859 -0.1484 Q368.9688 0.1562 368.2969 0.1562 Q367.0312 0.1562 366.4219 -0.5938 Q365.8125 -1.3438 365.8125 -2.9375 L365.8125 -8.3438 L364.3594 -8.3438 L364.3594 -8.8438 ZM376.2031 0.1562 Q374.1719 0.1562 373.1016 -1.0391 Q372.0312 -2.2344 372.0312 -4.5781 Q372.0312 -6.1875 372.5938 -7.3047 Q373.1562 -8.4219 374.1328 -8.9609 Q375.1094 -9.5 376.3594 -9.5 Q378.4375 -9.5 379.5156 -8.2891 Q380.5938 -7.0781 380.5938 -4.7969 Q380.5938 -3.1719 380.0547 -2.0625 Q379.5156 -0.9531 378.5312 -0.3984 Q377.5469 0.1562 376.2031 0.1562 ZM373.875 -4.7812 Q373.875 -2.7812 374.5156 -1.6953 Q375.1562 -0.6094 376.3438 -0.6094 Q377 -0.6094 377.4609 -0.9297 Q377.9219 -1.25 378.2031 -1.7891 Q378.4844 -2.3281 378.6172 -3.0312 Q378.75 -3.7344 378.75 -4.5156 Q378.75 -5.9531 378.4297 -6.8984 Q378.1094 -7.8438 377.5625 -8.2891 Q377.0156 -8.7344 376.3125 -8.7344 Q375.125 -8.7344 374.5 -7.7109 Q373.875 -6.6875 373.875 -4.7812 ZM385.5781 -7.7188 L385.7188 -7.6875 Q386.2656 -8.3438 386.7188 -8.7188 Q387.1719 -9.0938 387.7031 -9.2969 Q388.2344 -9.5 388.9219 -9.5 Q389.4844 -9.5 389.9375 -9.4375 L389.9375 -7.2031 L388.8438 -7.2031 Q388.6094 -7.7188 388.3438 -7.9609 Q388.0781 -8.2031 387.6094 -8.2031 Q387.2656 -8.2031 386.9219 -8 Q386.5781 -7.7969 386.25 -7.4062 Q385.9219 -7.0156 385.8047 -6.6719 Q385.6875 -6.3281 385.6875 -5.8594 L385.6875 -2.4375 Q385.6875 -1.5469 385.7891 -1.2109 Q385.8906 -0.875 386.1406 -0.7188 Q386.3906 -0.5625 386.8906 -0.4844 L386.8906 0 L382.9531 0 L382.9531 -0.4844 Q383.3281 -0.5938 383.4922 -0.6797 Q383.6562 -0.7656 383.7734 -0.9219 Q383.8906 -1.0781 383.9453 -1.4062 Q384 -1.7344 384 -2.4062 L384 -6.6719 Q384 -7.2969 383.9844 -7.6797 Q383.9688 -8.0625 383.8516 -8.2891 Q383.7344 -8.5156 383.4922 -8.625 Q383.25 -8.7344 382.8125 -8.8125 L382.8125 -9.3281 L385.0938 -9.4219 L385.6875 -9.4219 L385.5781 -7.7188 Z" stroke="none"/></g></g></svg>