<?xml version="1.0" encoding="UTF-8" standalone="no"?><svg xmlns="http://www.w3.org/2000/svg" xmlns:xlink="http://www.w3.org/1999/xlink" stroke-dasharray="none" shape-rendering="auto" font-family="'Dialog'" width="98.812600" text-rendering="auto" fill-opacity="1" contentScriptType="text/ecmascript" color-interpolation="auto" color-rendering="auto" preserveAspectRatio="xMidYMid meet" font-size="12" fill="black" stroke="black" image-rendering="auto" stroke-miterlimit="10" zoomAndPan="magnify" version="1.0" stroke-linecap="square" stroke-linejoin="miter" contentStyleType="text/css" font-style="normal" height="21" stroke-width="1" stroke-dashoffset="0" font-weight="normal" stroke-opacity="1" y="-7.000000"><!--Converted from MathML using JEuclid--><defs id="genericDefs"/><g><g text-rendering="optimizeLegibility" transform="translate(0,14)" color-rendering="optimizeQuality" color-interpolation="linearRGB" image-rendering="optimizeQuality"><path d="M9.375 -8.1094 L5.9219 -8.1094 L4.7031 -2.5156 Q4.5938 -1.9844 4.5938 -1.7344 Q4.5938 -0.875 5.4375 -0.875 Q6.1562 -0.875 6.9531 -1.4375 L7.2812 -0.875 Q6 0.1562 4.7031 0.1562 Q2.9531 0.1562 2.9531 -1.4375 Q2.9531 -1.9531 3.0781 -2.4062 L4.3438 -8.1094 L3.7188 -8.1094 Q2.375 -8.1094 1.1875 -6.9062 L0.6875 -7.4219 Q2.1562 -9.3438 4.1719 -9.3438 L9.625 -9.3438 L9.375 -8.1094 Z" stroke="none"/></g><g text-rendering="optimizeLegibility" transform="translate(9.625,17.2344)" color-rendering="optimizeQuality" color-interpolation="linearRGB" image-rendering="optimizeQuality"><path d="M3.8281 -9.2188 L3.5156 -7.8906 L2.2969 -7.8906 L2.625 -9.2188 L3.8281 -9.2188 ZM2.1406 -1.7031 Q2.0625 -1.3594 2.0469 -1.2031 Q2.0312 -1.0469 2.0312 -0.9375 Q2.0312 -0.7188 2.0938 -0.6094 Q2.1562 -0.5 2.3047 -0.4375 Q2.4531 -0.375 2.7812 -0.3281 L2.7188 0 L0.5938 0 L1.625 -4.6094 Q1.7188 -5 1.75 -5.2344 Q1.7812 -5.4688 1.7812 -5.6406 Q1.7812 -5.8281 1.7266 -5.9375 Q1.6719 -6.0469 1.5312 -6.1016 Q1.3906 -6.1562 1.0625 -6.1719 L1.1406 -6.5312 L2.7969 -6.5938 L3.2031 -6.5938 L2.1406 -1.7031 Z" stroke="none"/></g><g text-rendering="optimizeLegibility" transform="translate(15.25,17.2344)" color-rendering="optimizeQuality" color-interpolation="linearRGB" image-rendering="optimizeQuality"><path d="M3.8438 -9.2188 L3.5312 -7.8906 L2.3281 -7.8906 L2.6406 -9.2188 L3.8438 -9.2188 ZM1.7969 0.1094 Q1.5781 1.1562 1.2031 1.7891 Q0.8281 2.4219 0.2188 2.7422 Q-0.3906 3.0625 -1.2188 3.0625 Q-1.5625 3.0625 -1.7969 2.9844 L-1.6406 2.3906 Q-1.5312 2.4219 -1.3984 2.4297 Q-1.2656 2.4375 -1.125 2.4375 Q-0.7969 2.4375 -0.5625 2.3438 Q-0.3281 2.25 -0.1328 2.0156 Q0.0625 1.7812 0.2266 1.375 Q0.3906 0.9688 0.5469 0.3125 L1.6406 -4.6094 Q1.7344 -4.9844 1.7734 -5.2266 Q1.8125 -5.4688 1.8125 -5.6406 Q1.8125 -5.8281 1.75 -5.9375 Q1.6875 -6.0469 1.5547 -6.1016 Q1.4219 -6.1562 1.0781 -6.1719 L1.1562 -6.5312 L2.8281 -6.5938 L3.2188 -6.5938 L1.7969 0.1094 Z" stroke="none"/></g><g text-rendering="optimizeLegibility" transform="translate(19.875,14)" color-rendering="optimizeQuality" color-interpolation="linearRGB" image-rendering="optimizeQuality"><path d="M1.2188 -7.0625 L1.2188 -8.4219 L9.8594 -8.4219 L9.8594 -7.0625 L1.2188 -7.0625 ZM1.2188 -3.0156 L1.2188 -4.3594 L9.8594 -4.3594 L9.8594 -3.0156 L1.2188 -3.0156 Z" stroke="none"/></g><g text-rendering="optimizeLegibility" transform="translate(31.7344,14)" color-rendering="optimizeQuality" color-interpolation="linearRGB" image-rendering="optimizeQuality"><path d="M3.6719 -2.8438 Q3.6094 -2.5469 3.5703 -2.3438 Q3.5312 -2.1406 3.5 -1.8438 Q3.4688 -1.5469 3.4688 -1.3125 Q3.4688 -1.0156 3.5625 -0.8438 Q3.6562 -0.6719 3.8516 -0.5938 Q4.0469 -0.5156 4.5312 -0.4844 L4.4219 0 L0.4062 0 L0.5156 -0.4844 Q0.8906 -0.5312 1.0781 -0.6641 Q1.2656 -0.7969 1.3906 -1.0312 Q1.5156 -1.2656 1.625 -1.6016 Q1.7344 -1.9375 1.9375 -2.9062 L3.6094 -10.4375 Q3.8125 -11.4062 3.8125 -11.9688 Q3.8125 -12.4531 3.5938 -12.6406 Q3.375 -12.8281 2.8594 -12.8594 L2.9688 -13.3281 L11.7812 -13.3281 L11.1094 -10.3281 L10.1719 -10.3281 Q10.125 -11.0312 10.0547 -11.4219 Q9.9844 -11.8125 9.8828 -12.0078 Q9.7812 -12.2031 9.6562 -12.2969 Q9.5312 -12.3906 9.3438 -12.4297 Q9.1562 -12.4688 8.7969 -12.4688 L5.7969 -12.4688 L4.625 -7.1562 L6.4531 -7.1562 Q6.8906 -7.1562 7.1719 -7.2734 Q7.4531 -7.3906 7.6953 -7.7031 Q7.9375 -8.0156 8.2969 -8.75 L9.1875 -8.75 L8.25 -4.625 L7.3906 -4.625 Q7.3906 -5.2344 7.3594 -5.5781 Q7.3281 -5.9219 7.2422 -6.0547 Q7.1562 -6.1875 6.9844 -6.2422 Q6.8125 -6.2969 6.3594 -6.2969 L4.4375 -6.2969 L3.6719 -2.8438 Z" stroke="none"/></g><g text-rendering="optimizeLegibility" transform="translate(43.5156,18.8906)" color-rendering="optimizeQuality" color-interpolation="linearRGB" image-rendering="optimizeQuality"><path d="M3.8281 -9.2188 L3.5156 -7.8906 L2.2969 -7.8906 L2.625 -9.2188 L3.8281 -9.2188 ZM2.1406 -1.7031 Q2.0625 -1.3594 2.0469 -1.2031 Q2.0312 -1.0469 2.0312 -0.9375 Q2.0312 -0.7188 2.0938 -0.6094 Q2.1562 -0.5 2.3047 -0.4375 Q2.4531 -0.375 2.7812 -0.3281 L2.7188 0 L0.5938 0 L1.625 -4.6094 Q1.7188 -5 1.75 -5.2344 Q1.7812 -5.4688 1.7812 -5.6406 Q1.7812 -5.8281 1.7266 -5.9375 Q1.6719 -6.0469 1.5312 -6.1016 Q1.3906 -6.1562 1.0625 -6.1719 L1.1406 -6.5312 L2.7969 -6.5938 L3.2031 -6.5938 L2.1406 -1.7031 Z" stroke="none"/></g><g text-rendering="optimizeLegibility" transform="translate(47.3438,18.8906)" color-rendering="optimizeQuality" color-interpolation="linearRGB" image-rendering="optimizeQuality"><path d="M2.5156 -3.8125 L2.7344 -3.8125 Q2.9531 -3.8125 3.1953 -3.8906 Q3.4375 -3.9688 3.7188 -4.1484 Q4 -4.3281 4.4688 -4.7031 Q4.8281 -4.9844 5 -5.1875 Q5.1719 -5.3906 5.2344 -5.5391 Q5.2969 -5.6875 5.2969 -5.8281 Q5.2969 -6.1562 4.8281 -6.2031 L4.9062 -6.5312 L7.1094 -6.5312 L7.25 -6.2031 Q6.6719 -5.6875 6.0469 -5.2031 L4.3125 -3.8438 L5.3438 -1.2656 Q5.4688 -0.9062 5.6172 -0.7188 Q5.7656 -0.5312 5.9531 -0.4453 Q6.1406 -0.3594 6.4375 -0.3281 L6.3594 0 L4.5312 0 L3.5312 -2.8125 Q3.4375 -3.0781 3.3672 -3.1719 Q3.2969 -3.2656 3.2109 -3.3047 Q3.125 -3.3438 2.9219 -3.3438 L2.4219 -3.3438 L1.7031 0 L0.5312 0 L2.2812 -7.8125 Q2.3594 -8.1562 2.3906 -8.3125 Q2.4219 -8.4688 2.4375 -8.5938 Q2.4531 -8.7188 2.4531 -8.8281 Q2.4531 -9.1094 2.2734 -9.2266 Q2.0938 -9.3438 1.6406 -9.3594 L1.7344 -9.7188 L3.4531 -9.7812 L3.8594 -9.7812 L2.5156 -3.8125 Z" stroke="none"/></g><g text-rendering="optimizeLegibility" transform="translate(54.5938,14)" color-rendering="optimizeQuality" color-interpolation="linearRGB" image-rendering="optimizeQuality"><path d="M1.5469 -3.0312 Q1.5469 -1.8594 2.0938 -1.2734 Q2.6406 -0.6875 3.8125 -0.6875 Q4.7031 -0.6875 5.3516 -1.0234 Q6 -1.3594 6.3281 -1.9688 Q6.6562 -2.5781 6.6562 -3.4219 Q6.6562 -4.0156 6.4453 -4.4688 Q6.2344 -4.9219 5.8125 -5.3359 Q5.3906 -5.75 4.5938 -6.2969 Q3.875 -6.7812 3.3906 -7.25 Q2.9062 -7.7188 2.625 -8.3047 Q2.3438 -8.8906 2.3438 -9.625 Q2.3438 -10.7656 2.8984 -11.6484 Q3.4531 -12.5312 4.4688 -13.0078 Q5.4844 -13.4844 6.8125 -13.4844 Q7.7188 -13.4844 8.4844 -13.3672 Q9.25 -13.25 10.1719 -12.9531 L9.625 -10.4375 L8.6875 -10.4375 Q8.6562 -11.2656 8.4375 -11.7422 Q8.2188 -12.2188 7.8203 -12.4219 Q7.4219 -12.625 6.7656 -12.625 Q5.9531 -12.625 5.3359 -12.2969 Q4.7188 -11.9688 4.3984 -11.3984 Q4.0781 -10.8281 4.0781 -10.125 Q4.0781 -9.6094 4.25 -9.2109 Q4.4219 -8.8125 4.8125 -8.4219 Q5.2031 -8.0312 5.9375 -7.5312 Q6.8906 -6.8594 7.3984 -6.3438 Q7.9062 -5.8281 8.1406 -5.2422 Q8.375 -4.6562 8.375 -3.875 Q8.375 -2.7031 7.8047 -1.7734 Q7.2344 -0.8438 6.1953 -0.3438 Q5.1562 0.1562 3.8281 0.1562 Q2.9219 0.1562 1.8984 0.0156 Q0.875 -0.125 0.0312 -0.3594 L0.6094 -3.0312 L1.5469 -3.0312 Z" stroke="none"/></g><g text-rendering="optimizeLegibility" transform="translate(64.7656,19.0469)" color-rendering="optimizeQuality" color-interpolation="linearRGB" image-rendering="optimizeQuality"><path d="M2.5156 -3.8125 L2.7344 -3.8125 Q2.9531 -3.8125 3.1953 -3.8906 Q3.4375 -3.9688 3.7188 -4.1484 Q4 -4.3281 4.4688 -4.7031 Q4.8281 -4.9844 5 -5.1875 Q5.1719 -5.3906 5.2344 -5.5391 Q5.2969 -5.6875 5.2969 -5.8281 Q5.2969 -6.1562 4.8281 -6.2031 L4.9062 -6.5312 L7.1094 -6.5312 L7.25 -6.2031 Q6.6719 -5.6875 6.0469 -5.2031 L4.3125 -3.8438 L5.3438 -1.2656 Q5.4688 -0.9062 5.6172 -0.7188 Q5.7656 -0.5312 5.9531 -0.4453 Q6.1406 -0.3594 6.4375 -0.3281 L6.3594 0 L4.5312 0 L3.5312 -2.8125 Q3.4375 -3.0781 3.3672 -3.1719 Q3.2969 -3.2656 3.2109 -3.3047 Q3.125 -3.3438 2.9219 -3.3438 L2.4219 -3.3438 L1.7031 0 L0.5312 0 L2.2812 -7.8125 Q2.3594 -8.1562 2.3906 -8.3125 Q2.4219 -8.4688 2.4375 -8.5938 Q2.4531 -8.7188 2.4531 -8.8281 Q2.4531 -9.1094 2.2734 -9.2266 Q2.0938 -9.3438 1.6406 -9.3594 L1.7344 -9.7188 L3.4531 -9.7812 L3.8594 -9.7812 L2.5156 -3.8125 Z" stroke="none"/></g><g text-rendering="optimizeLegibility" transform="translate(72.0156,19.0469)" color-rendering="optimizeQuality" color-interpolation="linearRGB" image-rendering="optimizeQuality"><path d="M3.4531 -9.7812 L3.8594 -9.7812 L2.0781 -1.7031 Q2 -1.375 1.9844 -1.2109 Q1.9688 -1.0469 1.9688 -0.9375 Q1.9688 -0.7188 2.0312 -0.6094 Q2.0938 -0.5 2.2422 -0.4375 Q2.3906 -0.375 2.7188 -0.3281 L2.6562 0 L0.5312 0 L2.2969 -7.8438 Q2.3594 -8.1562 2.3828 -8.3047 Q2.4062 -8.4531 2.4219 -8.5859 Q2.4375 -8.7188 2.4375 -8.8281 Q2.4375 -9.0312 2.3672 -9.1406 Q2.2969 -9.25 2.1562 -9.2969 Q2.0156 -9.3438 1.6406 -9.3594 L1.7344 -9.7188 L3.4531 -9.7812 Z" stroke="none"/></g><g text-rendering="optimizeLegibility" transform="translate(75.875,14)" color-rendering="optimizeQuality" color-interpolation="linearRGB" image-rendering="optimizeQuality"><path d="M3.6719 -2.8438 Q3.6094 -2.5469 3.5703 -2.3438 Q3.5312 -2.1406 3.5 -1.8438 Q3.4688 -1.5469 3.4688 -1.3125 Q3.4688 -1.0156 3.5625 -0.8438 Q3.6562 -0.6719 3.8516 -0.5938 Q4.0469 -0.5156 4.5312 -0.4844 L4.4219 0 L0.4062 0 L0.5156 -0.4844 Q0.8906 -0.5312 1.0781 -0.6641 Q1.2656 -0.7969 1.3906 -1.0312 Q1.5156 -1.2656 1.625 -1.6016 Q1.7344 -1.9375 1.9375 -2.9062 L3.6094 -10.4375 Q3.8125 -11.4062 3.8125 -11.9688 Q3.8125 -12.4531 3.5938 -12.6406 Q3.375 -12.8281 2.8594 -12.8594 L2.9688 -13.3281 L11.7812 -13.3281 L11.1094 -10.3281 L10.1719 -10.3281 Q10.125 -11.0312 10.0547 -11.4219 Q9.9844 -11.8125 9.8828 -12.0078 Q9.7812 -12.2031 9.6562 -12.2969 Q9.5312 -12.3906 9.3438 -12.4297 Q9.1562 -12.4688 8.7969 -12.4688 L5.7969 -12.4688 L4.625 -7.1562 L6.4531 -7.1562 Q6.8906 -7.1562 7.1719 -7.2734 Q7.4531 -7.3906 7.6953 -7.7031 Q7.9375 -8.0156 8.2969 -8.75 L9.1875 -8.75 L8.25 -4.625 L7.3906 -4.625 Q7.3906 -5.2344 7.3594 -5.5781 Q7.3281 -5.9219 7.2422 -6.0547 Q7.1562 -6.1875 6.9844 -6.2422 Q6.8125 -6.2969 6.3594 -6.2969 L4.4375 -6.2969 L3.6719 -2.8438 Z" stroke="none"/></g><g text-rendering="optimizeLegibility" transform="translate(89.4531,17.3594)" color-rendering="optimizeQuality" color-interpolation="linearRGB" image-rendering="optimizeQuality"><path d="M3.8438 -9.2188 L3.5312 -7.8906 L2.3281 -7.8906 L2.6406 -9.2188 L3.8438 -9.2188 ZM1.7969 0.1094 Q1.5781 1.1562 1.2031 1.7891 Q0.8281 2.4219 0.2188 2.7422 Q-0.3906 3.0625 -1.2188 3.0625 Q-1.5625 3.0625 -1.7969 2.9844 L-1.6406 2.3906 Q-1.5312 2.4219 -1.3984 2.4297 Q-1.2656 2.4375 -1.125 2.4375 Q-0.7969 2.4375 -0.5625 2.3438 Q-0.3281 2.25 -0.1328 2.0156 Q0.0625 1.7812 0.2266 1.375 Q0.3906 0.9688 0.5469 0.3125 L1.6406 -4.6094 Q1.7344 -4.9844 1.7734 -5.2266 Q1.8125 -5.4688 1.8125 -5.6406 Q1.8125 -5.8281 1.75 -5.9375 Q1.6875 -6.0469 1.5547 -6.1016 Q1.4219 -6.1562 1.0781 -6.1719 L1.1562 -6.5312 L2.8281 -6.5938 L3.2188 -6.5938 L1.7969 0.1094 Z" stroke="none"/></g><g text-rendering="optimizeLegibility" transform="translate(93.2969,17.3594)" color-rendering="optimizeQuality" color-interpolation="linearRGB" image-rendering="optimizeQuality"><path d="M3.4531 -9.7812 L3.8594 -9.7812 L2.0781 -1.7031 Q2 -1.375 1.9844 -1.2109 Q1.9688 -1.0469 1.9688 -0.9375 Q1.9688 -0.7188 2.0312 -0.6094 Q2.0938 -0.5 2.2422 -0.4375 Q2.3906 -0.375 2.7188 -0.3281 L2.6562 0 L0.5312 0 L2.2969 -7.8438 Q2.3594 -8.1562 2.3828 -8.3047 Q2.4062 -8.4531 2.4219 -8.5859 Q2.4375 -8.7188 2.4375 -8.8281 Q2.4375 -9.0312 2.3672 -9.1406 Q2.2969 -9.25 2.1562 -9.2969 Q2.0156 -9.3438 1.6406 -9.3594 L1.7344 -9.7188 L3.4531 -9.7812 Z" stroke="none"/></g></g></svg>