<?xml version="1.0" encoding="UTF-8" standalone="no"?><svg xmlns="http://www.w3.org/2000/svg" xmlns:xlink="http://www.w3.org/1999/xlink" stroke-dasharray="none" shape-rendering="auto" font-family="'Dialog'" width="429.812600" text-rendering="auto" fill-opacity="1" contentScriptType="text/ecmascript" color-interpolation="auto" color-rendering="auto" preserveAspectRatio="xMidYMid meet" font-size="12" fill="black" stroke="black" image-rendering="auto" stroke-miterlimit="10" zoomAndPan="magnify" version="1.0" stroke-linecap="square" stroke-linejoin="miter" contentStyleType="text/css" font-style="normal" height="56" stroke-width="1" stroke-dashoffset="0" font-weight="normal" stroke-opacity="1" y="-10.000000"><!--Converted from MathML using JEuclid--><defs id="genericDefs"/><g><g text-rendering="optimizeLegibility" transform="translate(1.0781,46)" color-rendering="optimizeQuality" color-interpolation="linearRGB" image-rendering="optimizeQuality"><path d="M7.0781 4.2188 Q5.5625 4.2188 4.6797 3.8281 Q3.7969 3.4375 3.4141 2.6641 Q3.0312 1.8906 3.0312 0.5781 L3.0312 -2.25 Q3.0312 -3.1094 2.8125 -3.5938 Q2.5938 -4.0781 2.1562 -4.2734 Q1.7188 -4.4688 0.9219 -4.4688 L0.9219 -5.2812 Q1.7031 -5.2812 2.1484 -5.4766 Q2.5938 -5.6719 2.8125 -6.1484 Q3.0312 -6.625 3.0312 -7.5 L3.0312 -10.3281 Q3.0312 -11.625 3.4141 -12.4062 Q3.7969 -13.1875 4.6797 -13.5781 Q5.5625 -13.9688 7.0781 -13.9688 L7.3281 -13.9688 L7.3281 -13.1719 Q6.5469 -13.1719 6.1641 -13.0938 Q5.7812 -13.0156 5.5391 -12.8438 Q5.2969 -12.6719 5.1406 -12.4141 Q4.9844 -12.1562 4.8984 -11.6875 Q4.8125 -11.2188 4.8125 -10.4375 L4.8125 -8.5469 Q4.8125 -7.5625 4.6406 -6.8984 Q4.4688 -6.2344 4.0312 -5.7578 Q3.5938 -5.2812 2.8281 -4.9688 L2.8281 -4.7812 Q3.5781 -4.4844 4.0312 -3.9844 Q4.4844 -3.4844 4.6484 -2.8203 Q4.8125 -2.1562 4.8125 -1.2031 L4.8125 0.6875 Q4.8125 1.4688 4.8984 1.9375 Q4.9844 2.4062 5.1406 2.6719 Q5.2969 2.9375 5.5391 3.1016 Q5.7812 3.2656 6.1641 3.3438 Q6.5469 3.4219 7.3281 3.4219 L7.3281 4.2188 L7.0781 4.2188 Z" stroke="none"/></g><g text-rendering="optimizeLegibility" transform="translate(10.4062,46)" color-rendering="optimizeQuality" color-interpolation="linearRGB" image-rendering="optimizeQuality"><path d="M6.5 -2.2656 Q5.625 -1.0312 4.7891 -0.4453 Q3.9531 0.1406 3.0938 0.1406 Q2.0156 0.1406 1.4219 -0.6641 Q0.8281 -1.4688 0.8281 -2.9375 Q0.8281 -3.875 1.0469 -4.8203 Q1.2656 -5.7656 1.6953 -6.6094 Q2.125 -7.4531 2.7344 -8.0938 Q3.3438 -8.7344 4.1406 -9.1172 Q4.9375 -9.5 5.875 -9.5 Q6.4688 -9.5 7.0156 -9.3594 Q7.5625 -9.2188 8.1562 -8.8594 L9.0469 -9.5 L9.6719 -9.3438 L7.1719 1.7656 Q7.0156 2.5 7.0156 2.875 Q7.0156 3.1719 7.1094 3.3359 Q7.2031 3.5 7.4141 3.5859 Q7.625 3.6719 8.0938 3.7188 L8.0156 4.2031 L4.9688 4.2031 L6.6406 -2.2031 L6.5 -2.2656 ZM7.2969 -5.9531 Q7.3906 -6.375 7.4141 -6.6875 Q7.4375 -7 7.4375 -7.2812 Q7.4375 -8.0312 7.1172 -8.3828 Q6.7969 -8.7344 6.0469 -8.7344 Q5.6406 -8.7344 5.2656 -8.6016 Q4.8906 -8.4688 4.5078 -8.1641 Q4.125 -7.8594 3.7812 -7.3594 Q3.4375 -6.8594 3.1562 -6.1484 Q2.875 -5.4375 2.7188 -4.6172 Q2.5625 -3.7969 2.5625 -3.0312 Q2.5625 -2.0156 2.8359 -1.5078 Q3.1094 -1 3.7656 -1 Q4.0781 -1 4.4062 -1.1406 Q4.7344 -1.2812 5.1328 -1.6484 Q5.5312 -2.0156 6.0312 -2.7188 Q6.5 -3.375 6.7656 -4.0156 Q7.0312 -4.6562 7.2031 -5.5312 L7.2969 -5.9531 Z" stroke="none"/></g><g text-rendering="optimizeLegibility" transform="translate(20.0781,53.5234)" color-rendering="optimizeQuality" color-interpolation="linearRGB" image-rendering="optimizeQuality"><path d="M6.4531 0 L4.2969 0 L5.1562 -3.4688 Q5.25 -3.8125 5.3281 -4.2109 Q5.4062 -4.6094 5.4062 -4.9375 Q5.4062 -5.4219 5.2344 -5.6328 Q5.0625 -5.8438 4.7031 -5.8438 Q4.4219 -5.8438 4.0938 -5.625 Q3.7656 -5.4062 3.3984 -4.9609 Q3.0312 -4.5156 2.7812 -4.0625 Q2.5312 -3.6094 2.4062 -2.9531 L1.7812 0 L0.5938 0 L1.6406 -4.6719 Q1.6719 -4.8281 1.7266 -5.1328 Q1.7812 -5.4375 1.7812 -5.6406 Q1.7812 -5.8438 1.7266 -5.9453 Q1.6719 -6.0469 1.5312 -6.1016 Q1.3906 -6.1562 1.0469 -6.1719 L1.1406 -6.5312 L2.6875 -6.5938 L3.0781 -6.5938 L2.625 -4.8125 L2.7031 -4.7969 Q3.375 -5.7344 3.9922 -6.1875 Q4.6094 -6.6406 5.2344 -6.6406 Q5.9062 -6.6406 6.2422 -6.2734 Q6.5781 -5.9062 6.5781 -5.2031 Q6.5781 -4.9531 6.5391 -4.6641 Q6.5 -4.375 6.4375 -4.1406 L5.8594 -1.7031 Q5.75 -1.2188 5.75 -0.9375 Q5.75 -0.7188 5.8203 -0.6094 Q5.8906 -0.5 6.0312 -0.4375 Q6.1719 -0.375 6.5 -0.3281 L6.4531 0 Z" stroke="none"/></g><g text-rendering="optimizeLegibility" transform="translate(20.0781,39.7734)" color-rendering="optimizeQuality" color-interpolation="linearRGB" image-rendering="optimizeQuality"><path d="M5.7031 -6.2031 L6.3281 -6.6562 L6.7656 -6.5469 L5.7188 -1.9062 Q5.625 -1.4844 5.5938 -1.2656 Q5.5625 -1.0469 5.5625 -0.9062 Q5.5625 -0.625 5.7188 -0.5 Q5.875 -0.375 6.3125 -0.3281 L6.25 0 L4.2969 0 L4.7344 -1.7188 L4.6406 -1.75 Q3.9844 -0.7812 3.3984 -0.3359 Q2.8125 0.1094 2.1562 0.1094 Q1.4062 0.1094 0.9922 -0.4609 Q0.5781 -1.0312 0.5781 -2.0625 Q0.5781 -2.7188 0.7266 -3.375 Q0.875 -4.0312 1.1797 -4.625 Q1.4844 -5.2188 1.9062 -5.6719 Q2.3281 -6.125 2.8906 -6.3906 Q3.4531 -6.6562 4.1094 -6.6562 Q4.5312 -6.6562 4.9141 -6.5547 Q5.2969 -6.4531 5.7031 -6.2031 ZM5.0938 -4.1562 Q5.1562 -4.4375 5.1797 -4.6484 Q5.2031 -4.8594 5.2031 -5.0938 Q5.2031 -5.625 4.9766 -5.8672 Q4.75 -6.1094 4.2188 -6.1094 Q3.9375 -6.1094 3.6797 -6.0156 Q3.4219 -5.9219 3.1562 -5.7109 Q2.8906 -5.5 2.6484 -5.1484 Q2.4062 -4.7969 2.2031 -4.2969 Q2 -3.7969 1.8906 -3.2266 Q1.7812 -2.6562 1.7812 -2.125 Q1.7812 -1.4062 1.9766 -1.0547 Q2.1719 -0.7031 2.625 -0.7031 Q2.8438 -0.7031 3.0703 -0.7969 Q3.2969 -0.8906 3.5781 -1.1484 Q3.8594 -1.4062 4.2188 -1.9062 Q4.5469 -2.3594 4.7344 -2.8125 Q4.9219 -3.2656 5.0312 -3.875 L5.0938 -4.1562 Z" stroke="none"/></g><g text-rendering="optimizeLegibility" transform="translate(28.4219,46)" color-rendering="optimizeQuality" color-interpolation="linearRGB" image-rendering="optimizeQuality"><path d="M0.6719 -13.9688 Q2.1875 -13.9688 3.0703 -13.5781 Q3.9531 -13.1875 4.3281 -12.4062 Q4.7031 -11.625 4.7031 -10.3281 L4.7031 -7.5 Q4.7031 -6.625 4.9297 -6.1484 Q5.1562 -5.6719 5.5938 -5.4766 Q6.0312 -5.2812 6.8125 -5.2812 L6.8125 -4.4688 Q6.0312 -4.4688 5.5859 -4.2734 Q5.1406 -4.0781 4.9219 -3.5938 Q4.7031 -3.1094 4.7031 -2.25 L4.7031 0.5781 Q4.7031 1.8906 4.3281 2.6641 Q3.9531 3.4375 3.0703 3.8281 Q2.1875 4.2188 0.6719 4.2188 L0.4219 4.2188 L0.4219 3.4219 Q1.1875 3.4219 1.5781 3.3438 Q1.9688 3.2656 2.2031 3.1016 Q2.4375 2.9375 2.5938 2.6719 Q2.75 2.4062 2.8438 1.9375 Q2.9375 1.4688 2.9375 0.6875 L2.9375 -1.2031 Q2.9375 -2.1875 3.1016 -2.8438 Q3.2656 -3.5 3.7109 -3.9844 Q4.1562 -4.4688 4.9062 -4.7812 L4.9062 -4.9688 Q4.1719 -5.2656 3.7188 -5.7656 Q3.2656 -6.2656 3.1016 -6.9297 Q2.9375 -7.5938 2.9375 -8.5469 L2.9375 -10.4375 Q2.9375 -11.2188 2.8438 -11.6875 Q2.75 -12.1562 2.5938 -12.4141 Q2.4375 -12.6719 2.2031 -12.8438 Q1.9688 -13.0156 1.5781 -13.0938 Q1.1875 -13.1719 0.4219 -13.1719 L0.4219 -13.9688 L0.6719 -13.9688 Z" stroke="none"/></g><g text-rendering="optimizeLegibility" transform="translate(38.0156,46)" color-rendering="optimizeQuality" color-interpolation="linearRGB" image-rendering="optimizeQuality"><path d="M1.2188 -7.0625 L1.2188 -8.4219 L9.8594 -8.4219 L9.8594 -7.0625 L1.2188 -7.0625 ZM1.2188 -3.0156 L1.2188 -4.3594 L9.8594 -4.3594 L9.8594 -3.0156 L1.2188 -3.0156 Z" stroke="none"/></g><g text-rendering="optimizeLegibility" transform="translate(49.875,46)" color-rendering="optimizeQuality" color-interpolation="linearRGB" image-rendering="optimizeQuality"><path d="M6.5938 -1.3906 L6.4531 -1.4375 Q5.5938 -0.5625 4.8516 -0.2031 Q4.1094 0.1562 3.2656 0.1562 Q2.5156 0.1562 1.9531 -0.1328 Q1.3906 -0.4219 1.0859 -0.9453 Q0.7812 -1.4688 0.7812 -2.1562 Q0.7812 -3.5781 2.1953 -4.3516 Q3.6094 -5.125 6.4219 -5.25 L6.4219 -5.8906 Q6.4219 -6.9062 6.2266 -7.4922 Q6.0312 -8.0781 5.6172 -8.3516 Q5.2031 -8.625 4.5 -8.625 Q3.7344 -8.625 3.2656 -8.2266 Q2.7969 -7.8281 2.5625 -7.0156 L1.2969 -7.0156 L1.2969 -8.2969 Q2.2344 -8.7812 2.8594 -9.0078 Q3.4844 -9.2344 4.1094 -9.3672 Q4.7344 -9.5 5.375 -9.5 Q6.3438 -9.5 6.9297 -9.1953 Q7.5156 -8.8906 7.8047 -8.2578 Q8.0938 -7.625 8.0938 -6.3438 L8.0938 -2.9375 Q8.0938 -2.2188 8.1016 -1.9219 Q8.1094 -1.625 8.1641 -1.3672 Q8.2188 -1.1094 8.3125 -0.9609 Q8.4062 -0.8125 8.6016 -0.7031 Q8.7969 -0.5938 9.2188 -0.4844 L9.2188 0 L6.5469 0 L6.5938 -1.3906 ZM6.4219 -4.4531 Q4.4375 -4.4375 3.4531 -3.9297 Q2.4688 -3.4219 2.4688 -2.3906 Q2.4688 -1.8438 2.6953 -1.5156 Q2.9219 -1.1875 3.2656 -1.0703 Q3.6094 -0.9531 4.0781 -0.9531 Q4.7344 -0.9531 5.2812 -1.2734 Q5.8281 -1.5938 6.125 -2.0938 Q6.4219 -2.5938 6.4219 -3.0781 L6.4219 -4.4531 ZM14.1719 -9.3438 L14.1719 -8.8594 Q13.7188 -8.75 13.5312 -8.6562 Q13.3438 -8.5625 13.2578 -8.4062 Q13.1719 -8.25 13.1719 -7.9844 Q13.1719 -7.7188 13.2344 -7.4297 Q13.2969 -7.1406 13.4219 -6.7656 L15.125 -1.8125 L17.125 -6.5469 Q17.3125 -7.0156 17.3906 -7.3203 Q17.4688 -7.625 17.4688 -7.8906 Q17.4688 -8.2969 17.25 -8.5156 Q17.0312 -8.7344 16.4531 -8.8594 L16.4531 -9.3438 L20.0938 -9.3438 L20.0938 -8.8594 Q19.7188 -8.7812 19.5156 -8.6172 Q19.3125 -8.4531 19.1016 -8.1094 Q18.8906 -7.7656 18.6094 -7.1406 L15.3281 0.0938 L14.1719 0.0938 L11.5312 -7.2031 Q11.25 -7.9531 11.0859 -8.2266 Q10.9219 -8.5 10.7344 -8.6406 Q10.5469 -8.7812 10.1875 -8.8594 L10.1875 -9.3438 L14.1719 -9.3438 ZM28.75 -1.6562 Q28.125 -1 27.6016 -0.6328 Q27.0781 -0.2656 26.4531 -0.0547 Q25.8281 0.1562 25.0781 0.1562 Q23.0625 0.1562 22.0391 -1.0469 Q21.0156 -2.25 21.0156 -4.6094 Q21.0156 -6.0625 21.5391 -7.1797 Q22.0625 -8.2969 23.0312 -8.8984 Q24 -9.5 25.25 -9.5 Q26.2344 -9.5 26.9297 -9.1875 Q27.625 -8.875 28.0391 -8.3359 Q28.4531 -7.7969 28.6875 -6.9688 Q28.9219 -6.1406 28.9531 -4.8125 L22.7969 -4.8125 L22.7969 -4.6406 Q22.7969 -3.4844 23.0547 -2.7031 Q23.3125 -1.9219 23.9062 -1.4766 Q24.5 -1.0312 25.4375 -1.0312 Q26.2344 -1.0312 26.875 -1.3281 Q27.5156 -1.625 28.1562 -2.2969 L28.75 -1.6562 ZM27.1094 -5.625 Q27.0469 -6.6875 26.8438 -7.3516 Q26.6406 -8.0156 26.2344 -8.375 Q25.8281 -8.7344 25.1562 -8.7344 Q24.1562 -8.7344 23.5547 -7.9297 Q22.9531 -7.125 22.8438 -5.625 L27.1094 -5.625 ZM33.5781 -7.7188 L33.7188 -7.6875 Q34.2656 -8.3438 34.7188 -8.7188 Q35.1719 -9.0938 35.7031 -9.2969 Q36.2344 -9.5 36.9219 -9.5 Q37.4844 -9.5 37.9375 -9.4375 L37.9375 -7.2031 L36.8438 -7.2031 Q36.6094 -7.7188 36.3438 -7.9609 Q36.0781 -8.2031 35.6094 -8.2031 Q35.2656 -8.2031 34.9219 -8 Q34.5781 -7.7969 34.25 -7.4062 Q33.9219 -7.0156 33.8047 -6.6719 Q33.6875 -6.3281 33.6875 -5.8594 L33.6875 -2.4375 Q33.6875 -1.5469 33.7891 -1.2109 Q33.8906 -0.875 34.1406 -0.7188 Q34.3906 -0.5625 34.8906 -0.4844 L34.8906 0 L30.9531 0 L30.9531 -0.4844 Q31.3281 -0.5938 31.4922 -0.6797 Q31.6562 -0.7656 31.7734 -0.9219 Q31.8906 -1.0781 31.9453 -1.4062 Q32 -1.7344 32 -2.4062 L32 -6.6719 Q32 -7.2969 31.9844 -7.6797 Q31.9688 -8.0625 31.8516 -8.2891 Q31.7344 -8.5156 31.4922 -8.625 Q31.25 -8.7344 30.8125 -8.8125 L30.8125 -9.3281 L33.0938 -9.4219 L33.6875 -9.4219 L33.5781 -7.7188 ZM44.5938 -1.3906 L44.4531 -1.4375 Q43.5938 -0.5625 42.8516 -0.2031 Q42.1094 0.1562 41.2656 0.1562 Q40.5156 0.1562 39.9531 -0.1328 Q39.3906 -0.4219 39.0859 -0.9453 Q38.7812 -1.4688 38.7812 -2.1562 Q38.7812 -3.5781 40.1953 -4.3516 Q41.6094 -5.125 44.4219 -5.25 L44.4219 -5.8906 Q44.4219 -6.9062 44.2266 -7.4922 Q44.0312 -8.0781 43.6172 -8.3516 Q43.2031 -8.625 42.5 -8.625 Q41.7344 -8.625 41.2656 -8.2266 Q40.7969 -7.8281 40.5625 -7.0156 L39.2969 -7.0156 L39.2969 -8.2969 Q40.2344 -8.7812 40.8594 -9.0078 Q41.4844 -9.2344 42.1094 -9.3672 Q42.7344 -9.5 43.375 -9.5 Q44.3438 -9.5 44.9297 -9.1953 Q45.5156 -8.8906 45.8047 -8.2578 Q46.0938 -7.625 46.0938 -6.3438 L46.0938 -2.9375 Q46.0938 -2.2188 46.1016 -1.9219 Q46.1094 -1.625 46.1641 -1.3672 Q46.2188 -1.1094 46.3125 -0.9609 Q46.4062 -0.8125 46.6016 -0.7031 Q46.7969 -0.5938 47.2188 -0.4844 L47.2188 0 L44.5469 0 L44.5938 -1.3906 ZM44.4219 -4.4531 Q42.4375 -4.4375 41.4531 -3.9297 Q40.4688 -3.4219 40.4688 -2.3906 Q40.4688 -1.8438 40.6953 -1.5156 Q40.9219 -1.1875 41.2656 -1.0703 Q41.6094 -0.9531 42.0781 -0.9531 Q42.7344 -0.9531 43.2812 -1.2734 Q43.8281 -1.5938 44.125 -2.0938 Q44.4219 -2.5938 44.4219 -3.0781 L44.4219 -4.4531 ZM57.7031 -8.3438 L55.9062 -8.4219 L55.8125 -8.3125 Q56.1094 -8.0156 56.2891 -7.4922 Q56.4688 -6.9688 56.4688 -6.3594 Q56.4688 -4.7656 55.4844 -3.8984 Q54.5 -3.0312 52.7031 -3.0312 Q51.8906 -3.0312 51.2969 -3.25 Q50.5625 -2.6719 50.5625 -2.125 Q50.5625 -1.7656 50.7031 -1.5781 Q50.8438 -1.3906 51.1719 -1.3125 Q51.5 -1.2344 52.1562 -1.2344 L54.5 -1.2344 Q55.5469 -1.2344 56.1953 -0.9141 Q56.8438 -0.5938 57.125 -0.0547 Q57.4062 0.4844 57.4062 1.2188 Q57.4062 2.125 56.875 2.8438 Q56.3438 3.5625 55.3516 3.9609 Q54.3594 4.3594 53.0312 4.3594 Q52.0469 4.3594 51.2266 4.2422 Q50.4062 4.125 49.8281 3.8516 Q49.25 3.5781 48.9297 3.125 Q48.6094 2.6719 48.6094 1.9844 Q48.6094 1.375 49.0234 0.8672 Q49.4375 0.3594 50.1875 -0.0156 Q49.7344 -0.2031 49.4688 -0.5625 Q49.2031 -0.9219 49.2031 -1.4219 Q49.2031 -1.9688 49.5156 -2.4375 Q49.8281 -2.9062 50.625 -3.5 Q49.9219 -3.9062 49.5547 -4.6094 Q49.1875 -5.3125 49.1875 -6.2188 Q49.1875 -7.0469 49.4609 -7.6719 Q49.7344 -8.2969 50.2266 -8.7031 Q50.7188 -9.1094 51.3984 -9.3047 Q52.0781 -9.5 52.8594 -9.5 Q53.5625 -9.5 54.25 -9.3438 L57.7031 -9.3438 L57.7031 -8.3438 ZM50.9375 -6.375 Q50.9375 -5.1406 51.4297 -4.4766 Q51.9219 -3.8125 52.8594 -3.8125 Q53.3594 -3.8125 53.7109 -4.0078 Q54.0625 -4.2031 54.2812 -4.5312 Q54.5 -4.8594 54.6016 -5.2969 Q54.7031 -5.7344 54.7031 -6.2188 Q54.7031 -7.0781 54.4609 -7.6484 Q54.2188 -8.2188 53.7969 -8.4922 Q53.375 -8.7656 52.8281 -8.7656 Q51.9062 -8.7656 51.4219 -8.1484 Q50.9375 -7.5312 50.9375 -6.375 ZM51.1719 0.1562 Q50.6719 0.5312 50.4219 0.9453 Q50.1719 1.3594 50.1719 1.8906 Q50.1719 2.7656 50.875 3.1797 Q51.5781 3.5938 53.0156 3.5938 Q53.8906 3.5938 54.5234 3.3594 Q55.1562 3.125 55.4844 2.6875 Q55.8125 2.25 55.8125 1.6562 Q55.8125 1.3906 55.7422 1.1328 Q55.6719 0.875 55.4844 0.6641 Q55.2969 0.4531 54.9453 0.3359 Q54.5938 0.2188 54.0312 0.2188 L52.5781 0.2188 Q51.7812 0.2188 51.1719 0.1562 ZM66.75 -1.6562 Q66.125 -1 65.6016 -0.6328 Q65.0781 -0.2656 64.4531 -0.0547 Q63.8281 0.1562 63.0781 0.1562 Q61.0625 0.1562 60.0391 -1.0469 Q59.0156 -2.25 59.0156 -4.6094 Q59.0156 -6.0625 59.5391 -7.1797 Q60.0625 -8.2969 61.0312 -8.8984 Q62 -9.5 63.25 -9.5 Q64.2344 -9.5 64.9297 -9.1875 Q65.625 -8.875 66.0391 -8.3359 Q66.4531 -7.7969 66.6875 -6.9688 Q66.9219 -6.1406 66.9531 -4.8125 L60.7969 -4.8125 L60.7969 -4.6406 Q60.7969 -3.4844 61.0547 -2.7031 Q61.3125 -1.9219 61.9062 -1.4766 Q62.5 -1.0312 63.4375 -1.0312 Q64.2344 -1.0312 64.875 -1.3281 Q65.5156 -1.625 66.1562 -2.2969 L66.75 -1.6562 ZM65.1094 -5.625 Q65.0469 -6.6875 64.8438 -7.3516 Q64.6406 -8.0156 64.2344 -8.375 Q63.8281 -8.7344 63.1562 -8.7344 Q62.1562 -8.7344 61.5547 -7.9297 Q60.9531 -7.125 60.8438 -5.625 L65.1094 -5.625 ZM75.5469 -10.6094 Q75.5469 -11.5469 75.5312 -11.9219 Q75.5156 -12.2969 75.4531 -12.5547 Q75.3906 -12.8125 75.2734 -12.9609 Q75.1562 -13.1094 74.9688 -13.1953 Q74.7812 -13.2812 74.2812 -13.375 L74.2812 -13.875 L76.6406 -13.9688 L77.2188 -13.9688 L77.2188 -2.6719 Q77.2188 -1.9062 77.25 -1.5781 Q77.2812 -1.25 77.375 -1.0547 Q77.4688 -0.8594 77.6797 -0.7344 Q77.8906 -0.6094 78.4219 -0.5156 L78.4219 0 L76.1094 0.0938 L75.5312 0.0938 L75.6406 -1.5 L75.5 -1.5469 Q74.8906 -0.8906 74.4375 -0.5625 Q73.9844 -0.2344 73.4688 -0.0391 Q72.9531 0.1562 72.3594 0.1562 Q70.7656 0.1562 69.8984 -1.0625 Q69.0312 -2.2812 69.0312 -4.5781 Q69.0312 -6.1719 69.5938 -7.2891 Q70.1562 -8.4062 71.1172 -8.9531 Q72.0781 -9.5 73.2812 -9.5 Q73.9219 -9.5 74.4531 -9.3984 Q74.9844 -9.2969 75.5469 -9.0625 L75.5469 -10.6094 ZM75.5469 -5.7969 Q75.5469 -6.5469 75.4766 -7.0078 Q75.4062 -7.4688 75.2422 -7.7812 Q75.0781 -8.0938 74.8047 -8.3125 Q74.5312 -8.5312 74.2031 -8.625 Q73.875 -8.7188 73.4219 -8.7188 Q72.1719 -8.7188 71.5156 -7.7188 Q70.8594 -6.7188 70.8594 -4.8438 Q70.8594 -2.9688 71.3984 -1.9922 Q71.9375 -1.0156 73.0312 -1.0156 Q73.4531 -1.0156 73.7422 -1.0859 Q74.0312 -1.1562 74.3047 -1.3203 Q74.5781 -1.4844 74.8594 -1.7656 Q75.1406 -2.0469 75.2734 -2.2812 Q75.4062 -2.5156 75.4766 -2.8203 Q75.5469 -3.125 75.5469 -3.6094 L75.5469 -5.7969 ZM83.3594 -8.8438 Q83.8438 -8.9219 84.1484 -9.1172 Q84.4531 -9.3125 84.625 -9.625 Q84.7969 -9.9375 84.8984 -10.3984 Q85 -10.8594 85.0938 -11.75 L86.4844 -11.75 L86.4844 -9.3438 L89.6406 -9.3438 L89.6406 -8.3438 L86.4844 -8.3438 L86.4844 -4 Q86.4844 -3.0625 86.5625 -2.5 Q86.6406 -1.9375 86.8594 -1.6172 Q87.0781 -1.2969 87.3516 -1.1641 Q87.625 -1.0312 88.0469 -1.0312 Q88.4375 -1.0312 88.7812 -1.1875 Q89.125 -1.3438 89.4531 -1.6562 L89.8906 -1.125 Q89.2031 -0.4531 88.5859 -0.1484 Q87.9688 0.1562 87.2969 0.1562 Q86.0312 0.1562 85.4219 -0.5938 Q84.8125 -1.3438 84.8125 -2.9375 L84.8125 -8.3438 L83.3594 -8.3438 L83.3594 -8.8438 ZM93.5625 -7.7969 L93.6094 -7.7969 Q94.3594 -8.5625 94.8047 -8.875 Q95.25 -9.1875 95.6875 -9.3438 Q96.125 -9.5 96.625 -9.5 Q97.1562 -9.5 97.5781 -9.3672 Q98 -9.2344 98.3203 -8.9766 Q98.6406 -8.7188 98.8359 -8.3438 Q99.0312 -7.9688 99.1328 -7.4453 Q99.2344 -6.9219 99.2344 -6.125 L99.2344 -2.4375 Q99.2344 -1.5938 99.3047 -1.2891 Q99.375 -0.9844 99.5625 -0.8125 Q99.75 -0.6406 100.3281 -0.4844 L100.3281 0 L96.4844 0 L96.4844 -0.4844 Q96.8594 -0.5938 97.0312 -0.6797 Q97.2031 -0.7656 97.3125 -0.9219 Q97.4219 -1.0781 97.4844 -1.4062 Q97.5469 -1.7344 97.5469 -2.4062 L97.5469 -4.9688 Q97.5469 -6.2656 97.4141 -6.9531 Q97.2812 -7.6406 96.8984 -7.9844 Q96.5156 -8.3281 95.8281 -8.3281 Q95.4375 -8.3281 95.125 -8.1875 Q94.8125 -8.0469 94.3984 -7.6953 Q93.9844 -7.3438 93.7734 -6.9766 Q93.5625 -6.6094 93.5625 -6.1875 L93.5625 -2.4375 Q93.5625 -1.7812 93.6016 -1.5 Q93.6406 -1.2188 93.7344 -1.0234 Q93.8281 -0.8281 94.0312 -0.7109 Q94.2344 -0.5938 94.6562 -0.4844 L94.6562 0 L90.7812 0 L90.7812 -0.4844 Q91.2188 -0.5938 91.3984 -0.7031 Q91.5781 -0.8125 91.6797 -0.9766 Q91.7812 -1.1406 91.8359 -1.4531 Q91.8906 -1.7656 91.8906 -2.4375 L91.8906 -10.6094 Q91.8906 -11.5469 91.875 -11.9219 Q91.8594 -12.2969 91.7969 -12.5547 Q91.7344 -12.8125 91.6172 -12.9609 Q91.5 -13.1094 91.3125 -13.1953 Q91.125 -13.2812 90.625 -13.375 L90.625 -13.875 L92.9844 -13.9688 L93.5625 -13.9688 L93.5625 -7.7969 ZM109.75 -1.6562 Q109.125 -1 108.6016 -0.6328 Q108.0781 -0.2656 107.4531 -0.0547 Q106.8281 0.1562 106.0781 0.1562 Q104.0625 0.1562 103.0391 -1.0469 Q102.0156 -2.25 102.0156 -4.6094 Q102.0156 -6.0625 102.5391 -7.1797 Q103.0625 -8.2969 104.0312 -8.8984 Q105 -9.5 106.25 -9.5 Q107.2344 -9.5 107.9297 -9.1875 Q108.625 -8.875 109.0391 -8.3359 Q109.4531 -7.7969 109.6875 -6.9688 Q109.9219 -6.1406 109.9531 -4.8125 L103.7969 -4.8125 L103.7969 -4.6406 Q103.7969 -3.4844 104.0547 -2.7031 Q104.3125 -1.9219 104.9062 -1.4766 Q105.5 -1.0312 106.4375 -1.0312 Q107.2344 -1.0312 107.875 -1.3281 Q108.5156 -1.625 109.1562 -2.2969 L109.75 -1.6562 ZM108.1094 -5.625 Q108.0469 -6.6875 107.8438 -7.3516 Q107.6406 -8.0156 107.2344 -8.375 Q106.8281 -8.7344 106.1562 -8.7344 Q105.1562 -8.7344 104.5547 -7.9297 Q103.9531 -7.125 103.8438 -5.625 L108.1094 -5.625 ZM114.5781 -7.7188 L114.7188 -7.6875 Q115.2656 -8.3438 115.7188 -8.7188 Q116.1719 -9.0938 116.7031 -9.2969 Q117.2344 -9.5 117.9219 -9.5 Q118.4844 -9.5 118.9375 -9.4375 L118.9375 -7.2031 L117.8438 -7.2031 Q117.6094 -7.7188 117.3438 -7.9609 Q117.0781 -8.2031 116.6094 -8.2031 Q116.2656 -8.2031 115.9219 -8 Q115.5781 -7.7969 115.25 -7.4062 Q114.9219 -7.0156 114.8047 -6.6719 Q114.6875 -6.3281 114.6875 -5.8594 L114.6875 -2.4375 Q114.6875 -1.5469 114.7891 -1.2109 Q114.8906 -0.875 115.1406 -0.7188 Q115.3906 -0.5625 115.8906 -0.4844 L115.8906 0 L111.9531 0 L111.9531 -0.4844 Q112.3281 -0.5938 112.4922 -0.6797 Q112.6562 -0.7656 112.7734 -0.9219 Q112.8906 -1.0781 112.9453 -1.4062 Q113 -1.7344 113 -2.4062 L113 -6.6719 Q113 -7.2969 112.9844 -7.6797 Q112.9688 -8.0625 112.8516 -8.2891 Q112.7344 -8.5156 112.4922 -8.625 Q112.25 -8.7344 111.8125 -8.8125 L111.8125 -9.3281 L114.0938 -9.4219 L114.6875 -9.4219 L114.5781 -7.7188 ZM122.5781 -7.8281 L122.7188 -7.7969 Q123.3125 -8.375 123.6875 -8.6719 Q124.0625 -8.9688 124.4141 -9.1562 Q124.7656 -9.3438 125.0703 -9.4219 Q125.375 -9.5 125.7031 -9.5 Q126.6719 -9.5 127.2891 -9.0469 Q127.9062 -8.5938 128.1406 -7.6719 Q128.875 -8.4062 129.3281 -8.7578 Q129.7812 -9.1094 130.2578 -9.3047 Q130.7344 -9.5 131.2812 -9.5 Q131.9375 -9.5 132.4062 -9.3047 Q132.875 -9.1094 133.2031 -8.7188 Q133.5312 -8.3281 133.6797 -7.7266 Q133.8281 -7.125 133.8281 -6.125 L133.8281 -2.4375 Q133.8281 -1.7031 133.8828 -1.4219 Q133.9375 -1.1406 134.0312 -0.9844 Q134.125 -0.8281 134.3047 -0.7109 Q134.4844 -0.5938 134.9219 -0.4844 L134.9219 0 L131.0938 0 L131.0938 -0.4844 Q131.4688 -0.5938 131.6328 -0.6797 Q131.7969 -0.7656 131.9141 -0.9219 Q132.0312 -1.0781 132.0938 -1.4062 Q132.1562 -1.7344 132.1562 -2.4062 L132.1562 -4.9688 Q132.1562 -5.7969 132.1094 -6.3359 Q132.0625 -6.875 131.9688 -7.1953 Q131.875 -7.5156 131.75 -7.7031 Q131.625 -7.8906 131.4531 -8.0312 Q131.2812 -8.1719 131.0625 -8.25 Q130.8438 -8.3281 130.4688 -8.3281 Q130.0781 -8.3281 129.7422 -8.1719 Q129.4062 -8.0156 129.0078 -7.6406 Q128.6094 -7.2656 128.4375 -6.8906 Q128.2656 -6.5156 128.2656 -6 L128.2656 -2.4375 Q128.2656 -1.7031 128.3125 -1.4219 Q128.3594 -1.1406 128.4531 -0.9844 Q128.5469 -0.8281 128.7266 -0.7109 Q128.9062 -0.5938 129.3594 -0.4844 L129.3594 0 L125.5156 0 L125.5156 -0.4844 Q125.8906 -0.5938 126.0625 -0.6797 Q126.2344 -0.7656 126.3438 -0.9219 Q126.4531 -1.0781 126.5156 -1.4062 Q126.5781 -1.7344 126.5781 -2.4062 L126.5781 -4.9688 Q126.5781 -5.8281 126.5312 -6.375 Q126.4844 -6.9219 126.3828 -7.2578 Q126.2812 -7.5938 126.1172 -7.7969 Q125.9531 -8 125.7891 -8.1094 Q125.625 -8.2188 125.3984 -8.2734 Q125.1719 -8.3281 124.8906 -8.3281 Q124.4844 -8.3281 124.1328 -8.1406 Q123.7812 -7.9531 123.4141 -7.6172 Q123.0469 -7.2812 122.8672 -6.9062 Q122.6875 -6.5312 122.6875 -6.1094 L122.6875 -2.4375 Q122.6875 -1.8906 122.7109 -1.5938 Q122.7344 -1.2969 122.8047 -1.1328 Q122.875 -0.9688 122.9688 -0.8672 Q123.0625 -0.7656 123.2422 -0.6719 Q123.4219 -0.5781 123.7812 -0.4844 L123.7812 0 L119.9531 0 L119.9531 -0.4844 Q120.3281 -0.5938 120.4922 -0.6797 Q120.6562 -0.7656 120.7734 -0.9219 Q120.8906 -1.0781 120.9453 -1.4062 Q121 -1.7344 121 -2.4062 L121 -6.6719 Q121 -7.2969 120.9844 -7.6797 Q120.9688 -8.0625 120.8516 -8.2891 Q120.7344 -8.5156 120.4922 -8.625 Q120.25 -8.7344 119.8125 -8.8125 L119.8125 -9.3438 L122.0938 -9.4219 L122.6875 -9.4219 L122.5781 -7.8281 ZM142.5938 -1.3906 L142.4531 -1.4375 Q141.5938 -0.5625 140.8516 -0.2031 Q140.1094 0.1562 139.2656 0.1562 Q138.5156 0.1562 137.9531 -0.1328 Q137.3906 -0.4219 137.0859 -0.9453 Q136.7812 -1.4688 136.7812 -2.1562 Q136.7812 -3.5781 138.1953 -4.3516 Q139.6094 -5.125 142.4219 -5.25 L142.4219 -5.8906 Q142.4219 -6.9062 142.2266 -7.4922 Q142.0312 -8.0781 141.6172 -8.3516 Q141.2031 -8.625 140.5 -8.625 Q139.7344 -8.625 139.2656 -8.2266 Q138.7969 -7.8281 138.5625 -7.0156 L137.2969 -7.0156 L137.2969 -8.2969 Q138.2344 -8.7812 138.8594 -9.0078 Q139.4844 -9.2344 140.1094 -9.3672 Q140.7344 -9.5 141.375 -9.5 Q142.3438 -9.5 142.9297 -9.1953 Q143.5156 -8.8906 143.8047 -8.2578 Q144.0938 -7.625 144.0938 -6.3438 L144.0938 -2.9375 Q144.0938 -2.2188 144.1016 -1.9219 Q144.1094 -1.625 144.1641 -1.3672 Q144.2188 -1.1094 144.3125 -0.9609 Q144.4062 -0.8125 144.6016 -0.7031 Q144.7969 -0.5938 145.2188 -0.4844 L145.2188 0 L142.5469 0 L142.5938 -1.3906 ZM142.4219 -4.4531 Q140.4375 -4.4375 139.4531 -3.9297 Q138.4688 -3.4219 138.4688 -2.3906 Q138.4688 -1.8438 138.6953 -1.5156 Q138.9219 -1.1875 139.2656 -1.0703 Q139.6094 -0.9531 140.0781 -0.9531 Q140.7344 -0.9531 141.2812 -1.2734 Q141.8281 -1.5938 142.125 -2.0938 Q142.4219 -2.5938 142.4219 -3.0781 L142.4219 -4.4531 ZM149.5625 -2.4375 Q149.5625 -1.6094 149.6406 -1.2812 Q149.7188 -0.9531 149.9375 -0.7812 Q150.1562 -0.6094 150.6562 -0.4844 L150.6562 0 L146.7656 0 L146.7656 -0.4844 Q147.2656 -0.6094 147.4531 -0.7422 Q147.6406 -0.875 147.7266 -1.0703 Q147.8125 -1.2656 147.8438 -1.5938 Q147.875 -1.9219 147.875 -2.4375 L147.875 -10.6094 Q147.875 -11.5469 147.8594 -11.9219 Q147.8438 -12.2969 147.7812 -12.5547 Q147.7188 -12.8125 147.6094 -12.9609 Q147.5 -13.1094 147.3047 -13.1953 Q147.1094 -13.2812 146.6094 -13.375 L146.6094 -13.875 L148.9688 -13.9688 L149.5625 -13.9688 L149.5625 -2.4375 ZM160.9688 -8.3438 L158.6406 -8.3438 L158.6406 -2.4375 Q158.6406 -1.7812 158.7031 -1.4531 Q158.7656 -1.125 158.8828 -0.9531 Q159 -0.7812 159.2031 -0.6797 Q159.4062 -0.5781 159.8438 -0.4844 L159.8438 0 L155.8438 0 L155.8438 -0.4844 Q156.2812 -0.5938 156.4688 -0.7031 Q156.6562 -0.8125 156.7578 -0.9766 Q156.8594 -1.1406 156.9062 -1.4531 Q156.9531 -1.7656 156.9531 -2.4375 L156.9531 -8.3438 L155.7656 -8.3438 L155.7656 -8.8438 Q156.1406 -8.9062 156.2656 -8.9375 Q156.3906 -8.9688 156.5 -9.0391 Q156.6094 -9.1094 156.6953 -9.2344 Q156.7812 -9.3594 156.8438 -9.6094 Q156.9062 -9.8594 156.9375 -10.3125 Q157.0312 -11.375 157.3281 -12.0391 Q157.625 -12.7031 158.1953 -13.1719 Q158.7656 -13.6406 159.4141 -13.8359 Q160.0625 -14.0312 160.9531 -14.0312 Q161.7188 -14.0312 162.25 -13.9219 L162.25 -12.1562 L161.2969 -12.1562 Q161.1094 -12.7188 160.8594 -12.9609 Q160.6094 -13.2031 160.1562 -13.2031 Q159.8281 -13.2031 159.6094 -13.1172 Q159.3906 -13.0312 159.2109 -12.8438 Q159.0312 -12.6562 158.8984 -12.3438 Q158.7656 -12.0312 158.7031 -11.5703 Q158.6406 -11.1094 158.6406 -10.3594 L158.6406 -9.3438 L160.9688 -9.3438 L160.9688 -8.3438 ZM164.5625 -2.4375 Q164.5625 -1.6094 164.6406 -1.2812 Q164.7188 -0.9531 164.9375 -0.7812 Q165.1562 -0.6094 165.6562 -0.4844 L165.6562 0 L161.7656 0 L161.7656 -0.4844 Q162.2656 -0.6094 162.4531 -0.7422 Q162.6406 -0.875 162.7266 -1.0703 Q162.8125 -1.2656 162.8438 -1.5938 Q162.875 -1.9219 162.875 -2.4375 L162.875 -10.6094 Q162.875 -11.5469 162.8594 -11.9219 Q162.8438 -12.2969 162.7812 -12.5547 Q162.7188 -12.8125 162.6094 -12.9609 Q162.5 -13.1094 162.3047 -13.1953 Q162.1094 -13.2812 161.6094 -13.375 L161.6094 -13.875 L163.9688 -13.9688 L164.5625 -13.9688 L164.5625 -2.4375 ZM166.7188 -9.3438 L169.5 -9.3438 L169.5 -4.3594 Q169.5 -3.2188 169.5859 -2.625 Q169.6719 -2.0312 169.8516 -1.7266 Q170.0312 -1.4219 170.3516 -1.2188 Q170.6719 -1.0156 171.2344 -1.0156 Q171.6094 -1.0156 171.9531 -1.1641 Q172.2969 -1.3125 172.7109 -1.6797 Q173.125 -2.0469 173.3047 -2.4062 Q173.4844 -2.7656 173.4844 -3.25 L173.4844 -6.9062 Q173.4844 -7.4688 173.4609 -7.75 Q173.4375 -8.0312 173.3672 -8.2031 Q173.2969 -8.375 173.2031 -8.4766 Q173.1094 -8.5781 172.9375 -8.6719 Q172.7656 -8.7656 172.3906 -8.8594 L172.3906 -9.3438 L175.1719 -9.3438 L175.1719 -2.6719 Q175.1719 -1.9219 175.2031 -1.5859 Q175.2344 -1.25 175.3281 -1.0547 Q175.4219 -0.8594 175.625 -0.7344 Q175.8281 -0.6094 176.3594 -0.5156 L176.3594 0 L174.125 0.0938 L173.5312 0.0938 L173.5938 -1.5 L173.4375 -1.5469 Q172.625 -0.6719 171.8906 -0.2578 Q171.1562 0.1562 170.4219 0.1562 Q169.5312 0.1562 168.9531 -0.1953 Q168.375 -0.5469 168.0938 -1.2422 Q167.8125 -1.9375 167.8125 -3.2188 L167.8125 -6.9062 Q167.8125 -7.7188 167.75 -8.0312 Q167.6875 -8.3438 167.5 -8.5234 Q167.3125 -8.7031 166.7188 -8.8594 L166.7188 -9.3438 ZM182.0781 -5.6406 L183.3438 -7.25 Q183.5469 -7.5156 183.6797 -7.7656 Q183.8125 -8.0156 183.8125 -8.2656 Q183.8125 -8.5 183.6406 -8.6484 Q183.4688 -8.7969 183.125 -8.8594 L183.125 -9.3438 L186.3125 -9.3438 L186.3125 -8.8594 Q185.9531 -8.75 185.5625 -8.4375 Q185.1719 -8.125 184.625 -7.4375 L182.5938 -4.9531 L184.8281 -1.9531 Q185.2969 -1.3125 185.6797 -0.9688 Q186.0625 -0.625 186.4375 -0.4844 L186.4375 0 L182.5156 0 L182.5156 -0.4844 Q183.3281 -0.5781 183.3281 -1.0781 Q183.3281 -1.2969 183.2578 -1.4766 Q183.1875 -1.6562 183 -1.9062 L181.5938 -3.875 L180.0938 -1.9219 Q179.9219 -1.7031 179.8281 -1.5234 Q179.7344 -1.3438 179.7344 -1.125 Q179.7344 -0.8594 179.9141 -0.6875 Q180.0938 -0.5156 180.4844 -0.4844 L180.4844 0 L177.2188 0 L177.2188 -0.4844 Q177.5469 -0.5938 177.8047 -0.7734 Q178.0625 -0.9531 178.3359 -1.2266 Q178.6094 -1.5 179.0469 -2.0469 L181.0781 -4.5625 L179 -7.4062 Q178.5625 -8 178.3125 -8.2656 Q178.0625 -8.5312 177.8438 -8.6641 Q177.625 -8.7969 177.4062 -8.8594 L177.4062 -9.3438 L181.2344 -9.3438 L181.2344 -8.8594 Q180.4688 -8.7344 180.4688 -8.25 Q180.4688 -8.0312 180.5703 -7.8047 Q180.6719 -7.5781 180.8906 -7.3125 L182.0781 -5.6406 ZM195.1719 -9.3438 L195.1719 -8.8594 Q194.7188 -8.75 194.5312 -8.6562 Q194.3438 -8.5625 194.2578 -8.4062 Q194.1719 -8.25 194.1719 -7.9844 Q194.1719 -7.7188 194.2344 -7.4297 Q194.2969 -7.1406 194.4219 -6.7656 L196.125 -1.8125 L198.125 -6.5469 Q198.3125 -7.0156 198.3906 -7.3203 Q198.4688 -7.625 198.4688 -7.8906 Q198.4688 -8.2969 198.25 -8.5156 Q198.0312 -8.7344 197.4531 -8.8594 L197.4531 -9.3438 L201.0938 -9.3438 L201.0938 -8.8594 Q200.7188 -8.7812 200.5156 -8.6172 Q200.3125 -8.4531 200.1016 -8.1094 Q199.8906 -7.7656 199.6094 -7.1406 L196.3281 0.0938 L195.1719 0.0938 L192.5312 -7.2031 Q192.25 -7.9531 192.0859 -8.2266 Q191.9219 -8.5 191.7344 -8.6406 Q191.5469 -8.7812 191.1875 -8.8594 L191.1875 -9.3438 L195.1719 -9.3438 ZM209.75 -1.6562 Q209.125 -1 208.6016 -0.6328 Q208.0781 -0.2656 207.4531 -0.0547 Q206.8281 0.1562 206.0781 0.1562 Q204.0625 0.1562 203.0391 -1.0469 Q202.0156 -2.25 202.0156 -4.6094 Q202.0156 -6.0625 202.5391 -7.1797 Q203.0625 -8.2969 204.0312 -8.8984 Q205 -9.5 206.25 -9.5 Q207.2344 -9.5 207.9297 -9.1875 Q208.625 -8.875 209.0391 -8.3359 Q209.4531 -7.7969 209.6875 -6.9688 Q209.9219 -6.1406 209.9531 -4.8125 L203.7969 -4.8125 L203.7969 -4.6406 Q203.7969 -3.4844 204.0547 -2.7031 Q204.3125 -1.9219 204.9062 -1.4766 Q205.5 -1.0312 206.4375 -1.0312 Q207.2344 -1.0312 207.875 -1.3281 Q208.5156 -1.625 209.1562 -2.2969 L209.75 -1.6562 ZM208.1094 -5.625 Q208.0469 -6.6875 207.8438 -7.3516 Q207.6406 -8.0156 207.2344 -8.375 Q206.8281 -8.7344 206.1562 -8.7344 Q205.1562 -8.7344 204.5547 -7.9297 Q203.9531 -7.125 203.8438 -5.625 L208.1094 -5.625 ZM219.2188 -9.1094 L219.2188 -7.0781 L217.9844 -7.0781 Q217.8125 -7.7031 217.5703 -8.0703 Q217.3281 -8.4375 217.0078 -8.5859 Q216.6875 -8.7344 216.2031 -8.7344 Q215.5156 -8.7344 214.9922 -8.2969 Q214.4688 -7.8594 214.1641 -6.9609 Q213.8594 -6.0625 213.8594 -4.75 Q213.8594 -3.9219 213.9766 -3.2344 Q214.0938 -2.5469 214.375 -2.0625 Q214.6562 -1.5781 215.125 -1.3047 Q215.5938 -1.0312 216.2812 -1.0312 Q216.9531 -1.0312 217.5391 -1.2891 Q218.125 -1.5469 218.75 -2.2188 L219.2969 -1.5781 Q218.7969 -1.0312 218.4219 -0.7344 Q218.0469 -0.4375 217.6094 -0.2344 Q217.1719 -0.0312 216.75 0.0625 Q216.3281 0.1562 215.8281 0.1562 Q213.9844 0.1562 213.0078 -1.0703 Q212.0312 -2.2969 212.0312 -4.6094 Q212.0312 -6.0625 212.5781 -7.1797 Q213.125 -8.2969 214.1094 -8.8984 Q215.0938 -9.5 216.375 -9.5 Q217.1875 -9.5 217.8672 -9.4062 Q218.5469 -9.3125 219.2188 -9.1094 ZM220.3594 -8.8438 Q220.8438 -8.9219 221.1484 -9.1172 Q221.4531 -9.3125 221.625 -9.625 Q221.7969 -9.9375 221.8984 -10.3984 Q222 -10.8594 222.0938 -11.75 L223.4844 -11.75 L223.4844 -9.3438 L226.6406 -9.3438 L226.6406 -8.3438 L223.4844 -8.3438 L223.4844 -4 Q223.4844 -3.0625 223.5625 -2.5 Q223.6406 -1.9375 223.8594 -1.6172 Q224.0781 -1.2969 224.3516 -1.1641 Q224.625 -1.0312 225.0469 -1.0312 Q225.4375 -1.0312 225.7812 -1.1875 Q226.125 -1.3438 226.4531 -1.6562 L226.8906 -1.125 Q226.2031 -0.4531 225.5859 -0.1484 Q224.9688 0.1562 224.2969 0.1562 Q223.0312 0.1562 222.4219 -0.5938 Q221.8125 -1.3438 221.8125 -2.9375 L221.8125 -8.3438 L220.3594 -8.3438 L220.3594 -8.8438 ZM232.2031 0.1562 Q230.1719 0.1562 229.1016 -1.0391 Q228.0312 -2.2344 228.0312 -4.5781 Q228.0312 -6.1875 228.5938 -7.3047 Q229.1562 -8.4219 230.1328 -8.9609 Q231.1094 -9.5 232.3594 -9.5 Q234.4375 -9.5 235.5156 -8.2891 Q236.5938 -7.0781 236.5938 -4.7969 Q236.5938 -3.1719 236.0547 -2.0625 Q235.5156 -0.9531 234.5312 -0.3984 Q233.5469 0.1562 232.2031 0.1562 ZM229.875 -4.7812 Q229.875 -2.7812 230.5156 -1.6953 Q231.1562 -0.6094 232.3438 -0.6094 Q233 -0.6094 233.4609 -0.9297 Q233.9219 -1.25 234.2031 -1.7891 Q234.4844 -2.3281 234.6172 -3.0312 Q234.75 -3.7344 234.75 -4.5156 Q234.75 -5.9531 234.4297 -6.8984 Q234.1094 -7.8438 233.5625 -8.2891 Q233.0156 -8.7344 232.3125 -8.7344 Q231.125 -8.7344 230.5 -7.7109 Q229.875 -6.6875 229.875 -4.7812 ZM241.5781 -7.7188 L241.7188 -7.6875 Q242.2656 -8.3438 242.7188 -8.7188 Q243.1719 -9.0938 243.7031 -9.2969 Q244.2344 -9.5 244.9219 -9.5 Q245.4844 -9.5 245.9375 -9.4375 L245.9375 -7.2031 L244.8438 -7.2031 Q244.6094 -7.7188 244.3438 -7.9609 Q244.0781 -8.2031 243.6094 -8.2031 Q243.2656 -8.2031 242.9219 -8 Q242.5781 -7.7969 242.25 -7.4062 Q241.9219 -7.0156 241.8047 -6.6719 Q241.6875 -6.3281 241.6875 -5.8594 L241.6875 -2.4375 Q241.6875 -1.5469 241.7891 -1.2109 Q241.8906 -0.875 242.1406 -0.7188 Q242.3906 -0.5625 242.8906 -0.4844 L242.8906 0 L238.9531 0 L238.9531 -0.4844 Q239.3281 -0.5938 239.4922 -0.6797 Q239.6562 -0.7656 239.7734 -0.9219 Q239.8906 -1.0781 239.9453 -1.4062 Q240 -1.7344 240 -2.4062 L240 -6.6719 Q240 -7.2969 239.9844 -7.6797 Q239.9688 -8.0625 239.8516 -8.2891 Q239.7344 -8.5156 239.4922 -8.625 Q239.25 -8.7344 238.8125 -8.8125 L238.8125 -9.3281 L241.0938 -9.4219 L241.6875 -9.4219 L241.5781 -7.7188 ZM256.5938 -1.3906 L256.4531 -1.4375 Q255.5938 -0.5625 254.8516 -0.2031 Q254.1094 0.1562 253.2656 0.1562 Q252.5156 0.1562 251.9531 -0.1328 Q251.3906 -0.4219 251.0859 -0.9453 Q250.7812 -1.4688 250.7812 -2.1562 Q250.7812 -3.5781 252.1953 -4.3516 Q253.6094 -5.125 256.4219 -5.25 L256.4219 -5.8906 Q256.4219 -6.9062 256.2266 -7.4922 Q256.0312 -8.0781 255.6172 -8.3516 Q255.2031 -8.625 254.5 -8.625 Q253.7344 -8.625 253.2656 -8.2266 Q252.7969 -7.8281 252.5625 -7.0156 L251.2969 -7.0156 L251.2969 -8.2969 Q252.2344 -8.7812 252.8594 -9.0078 Q253.4844 -9.2344 254.1094 -9.3672 Q254.7344 -9.5 255.375 -9.5 Q256.3438 -9.5 256.9297 -9.1953 Q257.5156 -8.8906 257.8047 -8.2578 Q258.0938 -7.625 258.0938 -6.3438 L258.0938 -2.9375 Q258.0938 -2.2188 258.1016 -1.9219 Q258.1094 -1.625 258.1641 -1.3672 Q258.2188 -1.1094 258.3125 -0.9609 Q258.4062 -0.8125 258.6016 -0.7031 Q258.7969 -0.5938 259.2188 -0.4844 L259.2188 0 L256.5469 0 L256.5938 -1.3906 ZM256.4219 -4.4531 Q254.4375 -4.4375 253.4531 -3.9297 Q252.4688 -3.4219 252.4688 -2.3906 Q252.4688 -1.8438 252.6953 -1.5156 Q252.9219 -1.1875 253.2656 -1.0703 Q253.6094 -0.9531 254.0781 -0.9531 Q254.7344 -0.9531 255.2812 -1.2734 Q255.8281 -1.5938 256.125 -2.0938 Q256.4219 -2.5938 256.4219 -3.0781 L256.4219 -4.4531 ZM260.3594 -8.8438 Q260.8438 -8.9219 261.1484 -9.1172 Q261.4531 -9.3125 261.625 -9.625 Q261.7969 -9.9375 261.8984 -10.3984 Q262 -10.8594 262.0938 -11.75 L263.4844 -11.75 L263.4844 -9.3438 L266.6406 -9.3438 L266.6406 -8.3438 L263.4844 -8.3438 L263.4844 -4 Q263.4844 -3.0625 263.5625 -2.5 Q263.6406 -1.9375 263.8594 -1.6172 Q264.0781 -1.2969 264.3516 -1.1641 Q264.625 -1.0312 265.0469 -1.0312 Q265.4375 -1.0312 265.7812 -1.1875 Q266.125 -1.3438 266.4531 -1.6562 L266.8906 -1.125 Q266.2031 -0.4531 265.5859 -0.1484 Q264.9688 0.1562 264.2969 0.1562 Q263.0312 0.1562 262.4219 -0.5938 Q261.8125 -1.3438 261.8125 -2.9375 L261.8125 -8.3438 L260.3594 -8.3438 L260.3594 -8.8438 ZM281.4531 0 L277.6094 0 L277.6094 -0.4844 Q278 -0.5938 278.1641 -0.6797 Q278.3281 -0.7656 278.4375 -0.9219 Q278.5469 -1.0781 278.6094 -1.4062 Q278.6719 -1.7344 278.6719 -2.4062 L278.6719 -4.9688 Q278.6719 -5.6406 278.6328 -6.2031 Q278.5938 -6.7656 278.5 -7.1172 Q278.4062 -7.4688 278.2812 -7.6719 Q278.1562 -7.875 277.9688 -8.0156 Q277.7812 -8.1562 277.5469 -8.2422 Q277.3125 -8.3281 276.9375 -8.3281 Q276.5625 -8.3281 276.2188 -8.1719 Q275.875 -8.0156 275.4609 -7.6484 Q275.0469 -7.2812 274.8672 -6.9141 Q274.6875 -6.5469 274.6875 -6.0781 L274.6875 -2.4375 Q274.6875 -1.6094 274.7656 -1.2812 Q274.8438 -0.9531 275.0625 -0.7812 Q275.2812 -0.6094 275.7812 -0.4844 L275.7812 0 L271.9531 0 L271.9531 -0.4844 Q272.3281 -0.5938 272.4922 -0.6797 Q272.6562 -0.7656 272.7656 -0.9219 Q272.875 -1.0781 272.9375 -1.4062 Q273 -1.7344 273 -2.4062 L273 -6.6719 Q273 -7.2969 272.9844 -7.6797 Q272.9688 -8.0625 272.8516 -8.2891 Q272.7344 -8.5156 272.4922 -8.625 Q272.25 -8.7344 271.8125 -8.8125 L271.8125 -9.3438 L274.0938 -9.4219 L274.6875 -9.4219 L274.5781 -7.8281 L274.7188 -7.7969 Q275.4375 -8.5312 275.8828 -8.8438 Q276.3281 -9.1562 276.7812 -9.3281 Q277.2344 -9.5 277.75 -9.5 Q278.2812 -9.5 278.6953 -9.375 Q279.1094 -9.25 279.4219 -8.9922 Q279.7344 -8.7344 279.9453 -8.3594 Q280.1562 -7.9844 280.2578 -7.4609 Q280.3594 -6.9375 280.3594 -6.125 L280.3594 -2.4375 Q280.3594 -1.7656 280.3984 -1.4609 Q280.4375 -1.1562 280.5312 -0.9922 Q280.625 -0.8281 280.8125 -0.7188 Q281 -0.6094 281.4531 -0.4844 L281.4531 0 ZM287.2031 0.1562 Q285.1719 0.1562 284.1016 -1.0391 Q283.0312 -2.2344 283.0312 -4.5781 Q283.0312 -6.1875 283.5938 -7.3047 Q284.1562 -8.4219 285.1328 -8.9609 Q286.1094 -9.5 287.3594 -9.5 Q289.4375 -9.5 290.5156 -8.2891 Q291.5938 -7.0781 291.5938 -4.7969 Q291.5938 -3.1719 291.0547 -2.0625 Q290.5156 -0.9531 289.5312 -0.3984 Q288.5469 0.1562 287.2031 0.1562 ZM284.875 -4.7812 Q284.875 -2.7812 285.5156 -1.6953 Q286.1562 -0.6094 287.3438 -0.6094 Q288 -0.6094 288.4609 -0.9297 Q288.9219 -1.25 289.2031 -1.7891 Q289.4844 -2.3281 289.6172 -3.0312 Q289.75 -3.7344 289.75 -4.5156 Q289.75 -5.9531 289.4297 -6.8984 Q289.1094 -7.8438 288.5625 -8.2891 Q288.0156 -8.7344 287.3125 -8.7344 Q286.125 -8.7344 285.5 -7.7109 Q284.875 -6.6875 284.875 -4.7812 ZM300.5469 -10.6094 Q300.5469 -11.5469 300.5312 -11.9219 Q300.5156 -12.2969 300.4531 -12.5547 Q300.3906 -12.8125 300.2734 -12.9609 Q300.1562 -13.1094 299.9688 -13.1953 Q299.7812 -13.2812 299.2812 -13.375 L299.2812 -13.875 L301.6406 -13.9688 L302.2188 -13.9688 L302.2188 -2.6719 Q302.2188 -1.9062 302.25 -1.5781 Q302.2812 -1.25 302.375 -1.0547 Q302.4688 -0.8594 302.6797 -0.7344 Q302.8906 -0.6094 303.4219 -0.5156 L303.4219 0 L301.1094 0.0938 L300.5312 0.0938 L300.6406 -1.5 L300.5 -1.5469 Q299.8906 -0.8906 299.4375 -0.5625 Q298.9844 -0.2344 298.4688 -0.0391 Q297.9531 0.1562 297.3594 0.1562 Q295.7656 0.1562 294.8984 -1.0625 Q294.0312 -2.2812 294.0312 -4.5781 Q294.0312 -6.1719 294.5938 -7.2891 Q295.1562 -8.4062 296.1172 -8.9531 Q297.0781 -9.5 298.2812 -9.5 Q298.9219 -9.5 299.4531 -9.3984 Q299.9844 -9.2969 300.5469 -9.0625 L300.5469 -10.6094 ZM300.5469 -5.7969 Q300.5469 -6.5469 300.4766 -7.0078 Q300.4062 -7.4688 300.2422 -7.7812 Q300.0781 -8.0938 299.8047 -8.3125 Q299.5312 -8.5312 299.2031 -8.625 Q298.875 -8.7188 298.4219 -8.7188 Q297.1719 -8.7188 296.5156 -7.7188 Q295.8594 -6.7188 295.8594 -4.8438 Q295.8594 -2.9688 296.3984 -1.9922 Q296.9375 -1.0156 298.0312 -1.0156 Q298.4531 -1.0156 298.7422 -1.0859 Q299.0312 -1.1562 299.3047 -1.3203 Q299.5781 -1.4844 299.8594 -1.7656 Q300.1406 -2.0469 300.2734 -2.2812 Q300.4062 -2.5156 300.4766 -2.8203 Q300.5469 -3.125 300.5469 -3.6094 L300.5469 -5.7969 ZM312.75 -1.6562 Q312.125 -1 311.6016 -0.6328 Q311.0781 -0.2656 310.4531 -0.0547 Q309.8281 0.1562 309.0781 0.1562 Q307.0625 0.1562 306.0391 -1.0469 Q305.0156 -2.25 305.0156 -4.6094 Q305.0156 -6.0625 305.5391 -7.1797 Q306.0625 -8.2969 307.0312 -8.8984 Q308 -9.5 309.25 -9.5 Q310.2344 -9.5 310.9297 -9.1875 Q311.625 -8.875 312.0391 -8.3359 Q312.4531 -7.7969 312.6875 -6.9688 Q312.9219 -6.1406 312.9531 -4.8125 L306.7969 -4.8125 L306.7969 -4.6406 Q306.7969 -3.4844 307.0547 -2.7031 Q307.3125 -1.9219 307.9062 -1.4766 Q308.5 -1.0312 309.4375 -1.0312 Q310.2344 -1.0312 310.875 -1.3281 Q311.5156 -1.625 312.1562 -2.2969 L312.75 -1.6562 ZM311.1094 -5.625 Q311.0469 -6.6875 310.8438 -7.3516 Q310.6406 -8.0156 310.2344 -8.375 Q309.8281 -8.7344 309.1562 -8.7344 Q308.1562 -8.7344 307.5547 -7.9297 Q306.9531 -7.125 306.8438 -5.625 L311.1094 -5.625 ZM328.4531 0 L324.6094 0 L324.6094 -0.4844 Q325 -0.5938 325.1641 -0.6797 Q325.3281 -0.7656 325.4375 -0.9219 Q325.5469 -1.0781 325.6094 -1.4062 Q325.6719 -1.7344 325.6719 -2.4062 L325.6719 -4.9688 Q325.6719 -5.6406 325.6328 -6.2031 Q325.5938 -6.7656 325.5 -7.1172 Q325.4062 -7.4688 325.2812 -7.6719 Q325.1562 -7.875 324.9688 -8.0156 Q324.7812 -8.1562 324.5469 -8.2422 Q324.3125 -8.3281 323.9375 -8.3281 Q323.5625 -8.3281 323.2188 -8.1719 Q322.875 -8.0156 322.4609 -7.6484 Q322.0469 -7.2812 321.8672 -6.9141 Q321.6875 -6.5469 321.6875 -6.0781 L321.6875 -2.4375 Q321.6875 -1.6094 321.7656 -1.2812 Q321.8438 -0.9531 322.0625 -0.7812 Q322.2812 -0.6094 322.7812 -0.4844 L322.7812 0 L318.9531 0 L318.9531 -0.4844 Q319.3281 -0.5938 319.4922 -0.6797 Q319.6562 -0.7656 319.7656 -0.9219 Q319.875 -1.0781 319.9375 -1.4062 Q320 -1.7344 320 -2.4062 L320 -6.6719 Q320 -7.2969 319.9844 -7.6797 Q319.9688 -8.0625 319.8516 -8.2891 Q319.7344 -8.5156 319.4922 -8.625 Q319.25 -8.7344 318.8125 -8.8125 L318.8125 -9.3438 L321.0938 -9.4219 L321.6875 -9.4219 L321.5781 -7.8281 L321.7188 -7.7969 Q322.4375 -8.5312 322.8828 -8.8438 Q323.3281 -9.1562 323.7812 -9.3281 Q324.2344 -9.5 324.75 -9.5 Q325.2812 -9.5 325.6953 -9.375 Q326.1094 -9.25 326.4219 -8.9922 Q326.7344 -8.7344 326.9453 -8.3594 Q327.1562 -7.9844 327.2578 -7.4609 Q327.3594 -6.9375 327.3594 -6.125 L327.3594 -2.4375 Q327.3594 -1.7656 327.3984 -1.4609 Q327.4375 -1.1562 327.5312 -0.9922 Q327.625 -0.8281 327.8125 -0.7188 Q328 -0.6094 328.4531 -0.4844 L328.4531 0 Z" stroke="none"/></g><g text-rendering="optimizeLegibility" transform="translate(379.1094,46)" color-rendering="optimizeQuality" color-interpolation="linearRGB" image-rendering="optimizeQuality"><path d="M1.2188 -7.0625 L1.2188 -8.4219 L9.8594 -8.4219 L9.8594 -7.0625 L1.2188 -7.0625 ZM1.2188 -3.0156 L1.2188 -4.3594 L9.8594 -4.3594 L9.8594 -3.0156 L1.2188 -3.0156 Z" stroke="none"/></g><g text-rendering="optimizeLegibility" stroke-width="1.6667" color-interpolation="linearRGB" color-rendering="optimizeQuality" image-rendering="optimizeQuality"><line y2="38.78" fill="none" x1="392.6465" x2="424.8809" y1="38.78"/><path d="M2.9062 -11.0156 L6.9531 -4.875 L6.9531 -4.25 L2.4219 1.9688 L7.8906 1.9688 Q8.4062 1.9688 8.6641 1.9062 Q8.9219 1.8438 9.1094 1.7031 Q9.2969 1.5625 9.4531 1.3203 Q9.6094 1.0781 9.75 0.6484 Q9.8906 0.2188 10.0156 -0.4844 L10.9844 -0.4844 L10.7344 3.5625 L0.2188 3.5625 L0.2188 3.1094 L5.3438 -3.9375 L0.5312 -11.4062 L0.5312 -11.875 L10.7812 -11.875 L10.7812 -8.1875 L9.8906 -8.1875 Q9.6719 -8.9688 9.4922 -9.4688 Q9.3125 -9.9688 9.1172 -10.2578 Q8.9219 -10.5469 8.7188 -10.7031 Q8.5156 -10.8594 8.25 -10.9375 Q7.9844 -11.0156 7.5312 -11.0156 L2.9062 -11.0156 Z" stroke-width="1" transform="translate(392.9512,24.1814)" stroke="none"/></g><g text-rendering="optimizeLegibility" transform="translate(392.6465,36.2689)" color-rendering="optimizeQuality" color-interpolation="linearRGB" image-rendering="optimizeQuality"><path d="M2.7344 -6.5781 L2.5156 -5.6406 L1.6406 -5.6406 L1.875 -6.5781 L2.7344 -6.5781 ZM1.5312 -1.2188 Q1.4688 -0.9688 1.4609 -0.8594 Q1.4531 -0.75 1.4531 -0.6719 Q1.4531 -0.5156 1.5 -0.4375 Q1.5469 -0.3594 1.6484 -0.3125 Q1.75 -0.2656 1.9844 -0.2344 L1.9375 0 L0.4219 0 L1.1562 -3.2969 Q1.2188 -3.5781 1.25 -3.7422 Q1.2812 -3.9062 1.2812 -4.0312 Q1.2812 -4.1719 1.2344 -4.25 Q1.1875 -4.3281 1.0938 -4.3672 Q1 -4.4062 0.75 -4.4062 L0.8125 -4.6719 L2 -4.7188 L2.2969 -4.7188 L1.5312 -1.2188 Z" stroke="none"/></g><g text-rendering="optimizeLegibility" transform="translate(394.7715,36.2689)" color-rendering="optimizeQuality" color-interpolation="linearRGB" image-rendering="optimizeQuality"><path d="M0.6094 -3.5312 L0.6094 -4.2031 L4.9375 -4.2031 L4.9375 -3.5312 L0.6094 -3.5312 ZM0.6094 -1.5 L0.6094 -2.1875 L4.9375 -2.1875 L4.9375 -1.5 L0.6094 -1.5 Z" stroke="none"/></g><g text-rendering="optimizeLegibility" transform="translate(399.709,36.2689)" color-rendering="optimizeQuality" color-interpolation="linearRGB" image-rendering="optimizeQuality"><path d="M3.3906 -1.2812 Q3.3906 -0.9844 3.4219 -0.8438 Q3.4531 -0.7031 3.5391 -0.6094 Q3.625 -0.5156 3.7734 -0.4688 Q3.9219 -0.4219 4.1484 -0.3906 Q4.375 -0.3594 4.75 -0.3594 L4.75 0 L1.1406 0 L1.1406 -0.3594 Q1.6875 -0.375 1.9219 -0.4219 Q2.1562 -0.4688 2.2734 -0.5469 Q2.3906 -0.625 2.4531 -0.7812 Q2.5156 -0.9375 2.5156 -1.2812 L2.5156 -5.2344 Q2.5156 -5.4375 2.4453 -5.5234 Q2.375 -5.6094 2.2344 -5.6094 Q2.0781 -5.6094 1.7969 -5.4453 Q1.5156 -5.2812 1.0781 -5 L0.875 -5.375 L3.1562 -6.75 L3.4219 -6.75 Q3.3906 -6.2812 3.3906 -5.4375 L3.3906 -1.2812 Z" stroke="none"/></g><g text-rendering="optimizeLegibility" transform="translate(393.1856,8.6017)" color-rendering="optimizeQuality" color-interpolation="linearRGB" image-rendering="optimizeQuality"><path d="M6.9688 -6.6719 L6.9219 -6.4219 Q6.7344 -6.3906 6.6562 -6.3438 Q6.5781 -6.2969 6.5078 -6.1953 Q6.4375 -6.0938 6.375 -5.8828 Q6.3125 -5.6719 6.2031 -5.2031 L5.0625 0 L4.3906 0 L2.9688 -4.1875 Q2.7031 -4.9375 2.5156 -5.6875 L2.4531 -5.6875 Q2.4219 -5.4375 2.2891 -4.7344 Q2.1562 -4.0312 2.0156 -3.375 L1.5781 -1.4219 Q1.5312 -1.2188 1.5078 -1.0234 Q1.4844 -0.8281 1.4844 -0.6562 Q1.4844 -0.4375 1.5938 -0.3516 Q1.7031 -0.2656 1.9531 -0.2344 L1.9062 0 L0.2031 0 L0.25 -0.2344 Q0.4375 -0.2656 0.5312 -0.3359 Q0.625 -0.4062 0.6875 -0.5234 Q0.75 -0.6406 0.8047 -0.8047 Q0.8594 -0.9688 0.9688 -1.4531 L1.7969 -5.2188 Q1.8438 -5.4219 1.875 -5.6172 Q1.9062 -5.8125 1.9062 -6 Q1.9062 -6.2344 1.7891 -6.3203 Q1.6719 -6.4062 1.4219 -6.4219 L1.4688 -6.6719 L3.0312 -6.6719 L4.3281 -2.8594 Q4.5938 -2.0469 4.75 -1.4688 L4.8125 -1.4688 Q4.8438 -1.7656 4.9844 -2.4609 Q5.125 -3.1562 5.2344 -3.6719 L5.5781 -5.2188 Q5.6094 -5.375 5.6484 -5.5938 Q5.6875 -5.8125 5.6875 -6 Q5.6875 -6.2344 5.5703 -6.3203 Q5.4531 -6.4062 5.2031 -6.4219 L5.2656 -6.6719 L6.9688 -6.6719 Z" stroke="none"/></g><g text-rendering="optimizeLegibility" transform="translate(400.1543,10.4689)" color-rendering="optimizeQuality" color-interpolation="linearRGB" image-rendering="optimizeQuality"><path d="M3.1875 -0.7812 Q2.8906 -0.4688 2.625 -0.2812 Q2.3594 -0.0938 2.0938 -0.0156 Q1.8281 0.0625 1.5156 0.0625 Q1.2031 0.0625 0.9766 -0.0391 Q0.75 -0.1406 0.6094 -0.3125 Q0.4688 -0.4844 0.3984 -0.7266 Q0.3281 -0.9688 0.3281 -1.25 Q0.3281 -1.6719 0.4766 -2.1484 Q0.625 -2.625 0.9297 -3.0078 Q1.2344 -3.3906 1.6562 -3.5938 Q2.0781 -3.7969 2.5625 -3.7969 Q3.0312 -3.7969 3.2734 -3.6094 Q3.5156 -3.4219 3.5156 -3.0156 Q3.5156 -2.3438 2.8906 -2.0156 Q2.2656 -1.6875 1.0312 -1.6875 Q0.9844 -1.4531 0.9844 -1.1719 Q0.9844 -0.7656 1.1484 -0.5781 Q1.3125 -0.3906 1.6719 -0.3906 Q2.0312 -0.3906 2.3281 -0.5469 Q2.625 -0.7031 2.9375 -1.0312 L3.1875 -0.7812 ZM1.1094 -2.0156 Q1.4688 -2.0156 1.7344 -2.0547 Q2 -2.0938 2.1953 -2.1562 Q2.3906 -2.2188 2.5234 -2.3125 Q2.6562 -2.4062 2.7344 -2.5156 Q2.8125 -2.625 2.8359 -2.7422 Q2.8594 -2.8594 2.8594 -2.9844 Q2.8594 -3.2188 2.75 -3.3594 Q2.6406 -3.5 2.4219 -3.5 Q2.1562 -3.5 1.8906 -3.2969 Q1.625 -3.0938 1.4219 -2.7656 Q1.2188 -2.4375 1.1094 -2.0156 Z" stroke="none"/></g><g text-rendering="optimizeLegibility" transform="translate(400.1543,3.8283)" color-rendering="optimizeQuality" color-interpolation="linearRGB" image-rendering="optimizeQuality"><path d="M3.6875 0 L2.4531 0 L2.9531 -1.9844 Q3 -2.1719 3.0469 -2.4062 Q3.0938 -2.6406 3.0938 -2.8281 Q3.0938 -3.0938 2.9922 -3.2188 Q2.8906 -3.3438 2.6875 -3.3438 Q2.5312 -3.3438 2.3438 -3.2188 Q2.1562 -3.0938 1.9453 -2.8359 Q1.7344 -2.5781 1.5938 -2.3203 Q1.4531 -2.0625 1.375 -1.6875 L1.0156 0 L0.3438 0 L0.9375 -2.6719 Q0.9531 -2.7656 0.9844 -2.9375 Q1.0156 -3.1094 1.0156 -3.2344 Q1.0156 -3.3438 0.9844 -3.3984 Q0.9531 -3.4531 0.875 -3.4844 Q0.7969 -3.5156 0.6094 -3.5312 L0.6562 -3.7344 L1.5312 -3.7656 L1.7656 -3.7656 L1.5 -2.75 L1.5469 -2.7344 Q1.9219 -3.2812 2.2812 -3.5391 Q2.6406 -3.7969 3 -3.7969 Q3.375 -3.7969 3.5703 -3.5859 Q3.7656 -3.375 3.7656 -2.9688 Q3.7656 -2.8281 3.7422 -2.6641 Q3.7188 -2.5 3.6875 -2.375 L3.3594 -0.9844 Q3.2812 -0.7031 3.2812 -0.5312 Q3.2812 -0.4219 3.3203 -0.3516 Q3.3594 -0.2812 3.4453 -0.25 Q3.5312 -0.2188 3.7188 -0.1875 L3.6875 0 Z" stroke="none"/></g><g text-rendering="optimizeLegibility" transform="translate(403.8028,24.1814)" color-rendering="optimizeQuality" color-interpolation="linearRGB" image-rendering="optimizeQuality"><path d="M4.9531 2.9531 Q3.8906 2.9531 3.2734 2.6797 Q2.6562 2.4062 2.3906 1.8594 Q2.125 1.3125 2.125 0.4062 L2.125 -1.5781 Q2.125 -2.1875 1.9688 -2.5234 Q1.8125 -2.8594 1.5078 -2.9922 Q1.2031 -3.125 0.6562 -3.125 L0.6562 -3.6875 Q1.2031 -3.6875 1.5078 -3.8281 Q1.8125 -3.9688 1.9688 -4.3047 Q2.125 -4.6406 2.125 -5.25 L2.125 -7.2188 Q2.125 -8.1406 2.3906 -8.6875 Q2.6562 -9.2344 3.2734 -9.5078 Q3.8906 -9.7812 4.9531 -9.7812 L5.125 -9.7812 L5.125 -9.2188 Q4.5938 -9.2188 4.3203 -9.1641 Q4.0469 -9.1094 3.8828 -8.9922 Q3.7188 -8.875 3.6094 -8.6875 Q3.5 -8.5 3.4375 -8.1719 Q3.375 -7.8438 3.375 -7.3125 L3.375 -5.9844 Q3.375 -5.2969 3.25 -4.8359 Q3.125 -4.375 2.8203 -4.0312 Q2.5156 -3.6875 1.9844 -3.4688 L1.9844 -3.3438 Q2.5 -3.1406 2.8203 -2.7891 Q3.1406 -2.4375 3.2578 -1.9688 Q3.375 -1.5 3.375 -0.8438 L3.375 0.4844 Q3.375 1.0312 3.4375 1.3594 Q3.5 1.6875 3.6094 1.8672 Q3.7188 2.0469 3.8828 2.1641 Q4.0469 2.2812 4.3203 2.3438 Q4.5938 2.4062 5.125 2.4062 L5.125 2.9531 L4.9531 2.9531 Z" stroke="none"/></g><g text-rendering="optimizeLegibility" transform="translate(408.9278,24.1814)" color-rendering="optimizeQuality" color-interpolation="linearRGB" image-rendering="optimizeQuality"><path d="M4.5469 -1.5938 Q3.9375 -0.7188 3.3516 -0.3047 Q2.7656 0.1094 2.1562 0.1094 Q1.4062 0.1094 0.9922 -0.4609 Q0.5781 -1.0312 0.5781 -2.0625 Q0.5781 -2.7188 0.7266 -3.375 Q0.875 -4.0312 1.1797 -4.625 Q1.4844 -5.2188 1.9141 -5.6719 Q2.3438 -6.125 2.8984 -6.3906 Q3.4531 -6.6562 4.1094 -6.6562 Q4.5312 -6.6562 4.9141 -6.5547 Q5.2969 -6.4531 5.7031 -6.2031 L6.3438 -6.6562 L6.7812 -6.5469 L5.0312 1.2344 Q4.9062 1.75 4.9062 2.0156 Q4.9062 2.2188 4.9766 2.3359 Q5.0469 2.4531 5.1953 2.5156 Q5.3438 2.5781 5.6719 2.6094 L5.6094 2.9375 L3.4688 2.9375 L4.6562 -1.5469 L4.5469 -1.5938 ZM5.1094 -4.1562 Q5.1719 -4.4688 5.1875 -4.6797 Q5.2031 -4.8906 5.2031 -5.0938 Q5.2031 -5.625 4.9844 -5.8672 Q4.7656 -6.1094 4.2344 -6.1094 Q3.9375 -6.1094 3.6797 -6.0156 Q3.4219 -5.9219 3.1562 -5.7109 Q2.8906 -5.5 2.6484 -5.1484 Q2.4062 -4.7969 2.2109 -4.2969 Q2.0156 -3.7969 1.9062 -3.2266 Q1.7969 -2.6562 1.7969 -2.125 Q1.7969 -1.4062 1.9922 -1.0547 Q2.1875 -0.7031 2.6406 -0.7031 Q2.8438 -0.7031 3.0781 -0.7969 Q3.3125 -0.8906 3.5938 -1.1484 Q3.875 -1.4062 4.2188 -1.9062 Q4.5469 -2.3594 4.7344 -2.8125 Q4.9219 -3.2656 5.0469 -3.875 L5.1094 -4.1562 Z" stroke="none"/></g><g text-rendering="optimizeLegibility" transform="translate(415.709,29.4939)" color-rendering="optimizeQuality" color-interpolation="linearRGB" image-rendering="optimizeQuality"><path d="M4.6094 0 L3.0625 0 L3.6875 -2.4844 Q3.75 -2.7188 3.8047 -3.0078 Q3.8594 -3.2969 3.8594 -3.5312 Q3.8594 -3.875 3.7422 -4.0234 Q3.625 -4.1719 3.3594 -4.1719 Q3.1562 -4.1719 2.9219 -4.0156 Q2.6875 -3.8594 2.4297 -3.5469 Q2.1719 -3.2344 1.9922 -2.9062 Q1.8125 -2.5781 1.7188 -2.1094 L1.2656 0 L0.4219 0 L1.1719 -3.3281 Q1.1875 -3.4531 1.2344 -3.6719 Q1.2812 -3.8906 1.2812 -4.0312 Q1.2812 -4.1719 1.2344 -4.25 Q1.1875 -4.3281 1.0859 -4.3594 Q0.9844 -4.3906 0.75 -4.4062 L0.8125 -4.6719 L1.9219 -4.7188 L2.2031 -4.7188 L1.875 -3.4375 L1.9219 -3.4219 Q2.4062 -4.0938 2.8516 -4.4219 Q3.2969 -4.75 3.7344 -4.75 Q4.2188 -4.75 4.4609 -4.4844 Q4.7031 -4.2188 4.7031 -3.7188 Q4.7031 -3.5312 4.6719 -3.3281 Q4.6406 -3.125 4.5938 -2.9531 L4.1875 -1.2188 Q4.1094 -0.875 4.1094 -0.6719 Q4.1094 -0.5156 4.1562 -0.4375 Q4.2031 -0.3594 4.3047 -0.3125 Q4.4062 -0.2656 4.6406 -0.2344 L4.6094 0 Z" stroke="none"/></g><g text-rendering="optimizeLegibility" transform="translate(415.709,20.8142)" color-rendering="optimizeQuality" color-interpolation="linearRGB" image-rendering="optimizeQuality"><path d="M2.7344 -6.5781 L2.5156 -5.6406 L1.6406 -5.6406 L1.875 -6.5781 L2.7344 -6.5781 ZM1.5312 -1.2188 Q1.4688 -0.9688 1.4609 -0.8594 Q1.4531 -0.75 1.4531 -0.6719 Q1.4531 -0.5156 1.5 -0.4375 Q1.5469 -0.3594 1.6484 -0.3125 Q1.75 -0.2656 1.9844 -0.2344 L1.9375 0 L0.4219 0 L1.1562 -3.2969 Q1.2188 -3.5781 1.25 -3.7422 Q1.2812 -3.9062 1.2812 -4.0312 Q1.2812 -4.1719 1.2344 -4.25 Q1.1875 -4.3281 1.0938 -4.3672 Q1 -4.4062 0.75 -4.4062 L0.8125 -4.6719 L2 -4.7188 L2.2969 -4.7188 L1.5312 -1.2188 Z" stroke="none"/></g><g text-rendering="optimizeLegibility" transform="translate(420.1153,24.1814)" color-rendering="optimizeQuality" color-interpolation="linearRGB" image-rendering="optimizeQuality"><path d="M0.4688 -9.7812 Q1.5312 -9.7812 2.1484 -9.5078 Q2.7656 -9.2344 3.0312 -8.6875 Q3.2969 -8.1406 3.2969 -7.2188 L3.2969 -5.25 Q3.2969 -4.6406 3.4531 -4.3047 Q3.6094 -3.9688 3.9141 -3.8281 Q4.2188 -3.6875 4.7656 -3.6875 L4.7656 -3.125 Q4.2188 -3.125 3.9141 -2.9922 Q3.6094 -2.8594 3.4531 -2.5234 Q3.2969 -2.1875 3.2969 -1.5781 L3.2969 0.4062 Q3.2969 1.3125 3.0312 1.8594 Q2.7656 2.4062 2.1484 2.6797 Q1.5312 2.9531 0.4688 2.9531 L0.2969 2.9531 L0.2969 2.4062 Q0.8281 2.4062 1.1016 2.3438 Q1.375 2.2812 1.5391 2.1641 Q1.7031 2.0469 1.8125 1.8672 Q1.9219 1.6875 1.9844 1.3594 Q2.0469 1.0312 2.0469 0.4844 L2.0469 -0.8438 Q2.0469 -1.5312 2.1719 -1.9922 Q2.2969 -2.4531 2.6016 -2.7891 Q2.9062 -3.125 3.4375 -3.3438 L3.4375 -3.4688 Q2.9219 -3.6875 2.6016 -4.0312 Q2.2812 -4.375 2.1641 -4.8438 Q2.0469 -5.3125 2.0469 -5.9844 L2.0469 -7.3125 Q2.0469 -7.8438 1.9844 -8.1719 Q1.9219 -8.5 1.8125 -8.6875 Q1.7031 -8.875 1.5391 -8.9922 Q1.375 -9.1094 1.1016 -9.1641 Q0.8281 -9.2188 0.2969 -9.2188 L0.2969 -9.7812 L0.4688 -9.7812 Z" stroke="none"/></g><g text-rendering="optimizeLegibility" transform="translate(401.5293,52.9942)" color-rendering="optimizeQuality" color-interpolation="linearRGB" image-rendering="optimizeQuality"><path d="M9.7656 -9.3281 L9.6875 -9 Q9.4219 -8.9375 9.3125 -8.875 Q9.2031 -8.8125 9.1094 -8.6719 Q9.0156 -8.5312 8.9219 -8.2422 Q8.8281 -7.9531 8.6875 -7.2969 L7.0781 0 L6.1562 0 L4.1562 -5.8594 Q3.7969 -6.9219 3.5156 -7.9688 L3.4375 -7.9688 Q3.3906 -7.6094 3.2031 -6.6328 Q3.0156 -5.6562 2.8125 -4.7188 L2.2188 -1.9844 Q2.1562 -1.7031 2.1172 -1.4375 Q2.0781 -1.1719 2.0781 -0.9219 Q2.0781 -0.6094 2.2266 -0.4844 Q2.375 -0.3594 2.7344 -0.3281 L2.6719 0 L0.2812 0 L0.3438 -0.3281 Q0.6094 -0.375 0.7422 -0.4688 Q0.875 -0.5625 0.9609 -0.7266 Q1.0469 -0.8906 1.125 -1.125 Q1.2031 -1.3594 1.3438 -2.0312 L2.5156 -7.2969 Q2.5781 -7.5938 2.6172 -7.8594 Q2.6562 -8.125 2.6562 -8.4062 Q2.6562 -8.7188 2.4922 -8.8438 Q2.3281 -8.9688 1.9844 -9 L2.0625 -9.3281 L4.25 -9.3281 L6.0469 -4 Q6.4375 -2.8594 6.6562 -2.0625 L6.7344 -2.0625 Q6.7812 -2.4844 6.9766 -3.4531 Q7.1719 -4.4219 7.3281 -5.1406 L7.8125 -7.2969 Q7.8594 -7.5312 7.9141 -7.8359 Q7.9688 -8.1406 7.9688 -8.4062 Q7.9688 -8.7188 7.8047 -8.8438 Q7.6406 -8.9688 7.2969 -9 L7.375 -9.3281 L9.7656 -9.3281 Z" stroke="none"/></g><g text-rendering="optimizeLegibility" transform="translate(411.295,55.3302)" color-rendering="optimizeQuality" color-interpolation="linearRGB" image-rendering="optimizeQuality"><path d="M3.9688 -0.9688 Q3.6094 -0.5781 3.2812 -0.3516 Q2.9531 -0.125 2.6172 -0.0234 Q2.2812 0.0781 1.8906 0.0781 Q1.5 0.0781 1.2188 -0.0469 Q0.9375 -0.1719 0.7578 -0.3906 Q0.5781 -0.6094 0.4922 -0.9062 Q0.4062 -1.2031 0.4062 -1.5625 Q0.4062 -2.0781 0.5938 -2.6797 Q0.7812 -3.2812 1.1562 -3.7578 Q1.5312 -4.2344 2.0703 -4.4922 Q2.6094 -4.75 3.2031 -4.75 Q3.7969 -4.75 4.0938 -4.5078 Q4.3906 -4.2656 4.3906 -3.7656 Q4.3906 -2.9375 3.6094 -2.5234 Q2.8281 -2.1094 1.2969 -2.1094 Q1.2344 -1.8125 1.2344 -1.4688 Q1.2344 -0.9531 1.4375 -0.7266 Q1.6406 -0.5 2.0938 -0.5 Q2.5469 -0.5 2.9062 -0.6953 Q3.2656 -0.8906 3.6719 -1.2969 L3.9688 -0.9688 ZM1.375 -2.5156 Q1.8281 -2.5312 2.1641 -2.5781 Q2.5 -2.625 2.75 -2.7031 Q3 -2.7812 3.1562 -2.8906 Q3.3125 -3 3.4062 -3.1328 Q3.5 -3.2656 3.5391 -3.4141 Q3.5781 -3.5625 3.5781 -3.7344 Q3.5781 -4.0312 3.4375 -4.1953 Q3.2969 -4.3594 3.0312 -4.3594 Q2.6875 -4.3594 2.3594 -4.1172 Q2.0312 -3.875 1.7812 -3.4531 Q1.5312 -3.0312 1.375 -2.5156 Z" stroke="none"/></g><g text-rendering="optimizeLegibility" transform="translate(411.295,46.0411)" color-rendering="optimizeQuality" color-interpolation="linearRGB" image-rendering="optimizeQuality"><path d="M4.6094 0 L3.0625 0 L3.6875 -2.4844 Q3.75 -2.7188 3.8047 -3.0078 Q3.8594 -3.2969 3.8594 -3.5312 Q3.8594 -3.875 3.7422 -4.0234 Q3.625 -4.1719 3.3594 -4.1719 Q3.1562 -4.1719 2.9219 -4.0156 Q2.6875 -3.8594 2.4297 -3.5469 Q2.1719 -3.2344 1.9922 -2.9062 Q1.8125 -2.5781 1.7188 -2.1094 L1.2656 0 L0.4219 0 L1.1719 -3.3281 Q1.1875 -3.4531 1.2344 -3.6719 Q1.2812 -3.8906 1.2812 -4.0312 Q1.2812 -4.1719 1.2344 -4.25 Q1.1875 -4.3281 1.0859 -4.3594 Q0.9844 -4.3906 0.75 -4.4062 L0.8125 -4.6719 L1.9219 -4.7188 L2.2031 -4.7188 L1.875 -3.4375 L1.9219 -3.4219 Q2.4062 -4.0938 2.8516 -4.4219 Q3.2969 -4.75 3.7344 -4.75 Q4.2188 -4.75 4.4609 -4.4844 Q4.7031 -4.2188 4.7031 -3.7188 Q4.7031 -3.5312 4.6719 -3.3281 Q4.6406 -3.125 4.5938 -2.9531 L4.1875 -1.2188 Q4.1094 -0.875 4.1094 -0.6719 Q4.1094 -0.5156 4.1562 -0.4375 Q4.2031 -0.3594 4.3047 -0.3125 Q4.4062 -0.2656 4.6406 -0.2344 L4.6094 0 Z" stroke="none"/></g></g></svg>