<?xml version="1.0" encoding="UTF-8" standalone="no"?><svg xmlns="http://www.w3.org/2000/svg" xmlns:xlink="http://www.w3.org/1999/xlink" stroke-dasharray="none" shape-rendering="auto" font-family="'Dialog'" width="63.812600" text-rendering="auto" fill-opacity="1" contentScriptType="text/ecmascript" color-interpolation="auto" color-rendering="auto" preserveAspectRatio="xMidYMid meet" font-size="12" fill="black" stroke="black" image-rendering="auto" stroke-miterlimit="10" zoomAndPan="magnify" version="1.0" stroke-linecap="square" stroke-linejoin="miter" contentStyleType="text/css" font-style="normal" height="24" stroke-width="1" stroke-dashoffset="0" font-weight="normal" stroke-opacity="1" y="-5.000000"><!--Converted from MathML using JEuclid--><defs id="genericDefs"/><g><g text-rendering="optimizeLegibility" transform="translate(0,19)" color-rendering="optimizeQuality" color-interpolation="linearRGB" image-rendering="optimizeQuality"><path d="M7.9688 -3.125 Q8.1875 -4.0469 8.1875 -4.7031 Q8.1875 -5.1562 7.9531 -5.3359 Q7.7188 -5.5156 7.2344 -5.5469 L7.3281 -6.0312 L11.2344 -6.0312 L11.1406 -5.5469 Q10.7969 -5.4688 10.6562 -5.3984 Q10.5156 -5.3281 10.4062 -5.2109 Q10.2969 -5.0938 10.1953 -4.875 Q10.0938 -4.6562 9.9766 -4.25 Q9.8594 -3.8438 9.7031 -3.1094 L9.0312 -0.0469 L8.2656 0.1719 L7.75 -0.6094 Q7.0469 -0.2812 6.6562 -0.1406 Q6.2656 0 5.8516 0.0781 Q5.4375 0.1562 4.9688 0.1562 Q3.7656 0.1562 2.9219 -0.3516 Q2.0781 -0.8594 1.6484 -1.8047 Q1.2188 -2.75 1.2188 -4.0312 Q1.2188 -5.0781 1.4375 -6.1719 Q1.6875 -7.4062 2.0938 -8.4844 Q2.4844 -9.5156 2.9922 -10.3359 Q3.5 -11.1562 4.1406 -11.7812 Q4.7031 -12.3281 5.3672 -12.7109 Q6.0312 -13.0938 6.7578 -13.2891 Q7.4844 -13.4844 8.2969 -13.4844 Q9.2344 -13.4844 10 -13.375 Q10.7656 -13.2656 11.6875 -12.9688 L11.0938 -10.3438 L10.1562 -10.3438 Q10.0938 -11.1875 9.875 -11.6797 Q9.6562 -12.1719 9.2344 -12.3984 Q8.8125 -12.625 8.1562 -12.625 Q7.3281 -12.625 6.6406 -12.1953 Q5.9531 -11.7656 5.3125 -10.9219 Q4.6719 -10.0781 4.1484 -8.7969 Q3.625 -7.5156 3.3438 -6.1875 Q3.0625 -4.8594 3.0625 -3.7969 Q3.0625 -2.2031 3.5859 -1.4453 Q4.1094 -0.6875 5.2031 -0.6875 Q5.5938 -0.6875 6.0156 -0.7812 Q6.4375 -0.875 6.8047 -1.1016 Q7.1719 -1.3281 7.4531 -1.7109 Q7.7344 -2.0938 7.8594 -2.6719 L7.9688 -3.125 Z" stroke="none"/></g><g text-rendering="optimizeLegibility" transform="translate(11.9219,17.9124) matrix(1,0,0,1.2559,0,0)" color-rendering="optimizeQuality" color-interpolation="linearRGB" image-rendering="optimizeQuality"><path d="M7.2188 4.25 Q5.5625 4.25 4.5078 3.75 Q3.4531 3.25 2.8672 2.2344 Q2.2812 1.2188 2.0234 -0.4141 Q1.7656 -2.0469 1.7656 -4.8438 Q1.7656 -7.625 2.0234 -9.2656 Q2.2812 -10.9062 2.8672 -11.9453 Q3.4531 -12.9844 4.5078 -13.5 Q5.5625 -14.0156 7.2188 -14.0156 L7.2188 -13.2188 Q6.5312 -13.2188 6 -13.0938 Q5.4062 -12.9531 4.9844 -12.5625 Q4.5156 -12.1406 4.2344 -11.375 Q3.8906 -10.4688 3.7188 -8.9844 Q3.5469 -7.4062 3.5469 -4.9219 Q3.5469 -2.7188 3.6953 -1.1797 Q3.8438 0.3594 4.1875 1.3281 Q4.4531 2.1562 4.8594 2.6094 Q5.2188 3.0156 5.7188 3.2188 Q6.2969 3.4531 7.2188 3.4531 L7.2188 4.25 Z" stroke="none"/></g><g text-rendering="optimizeLegibility" transform="translate(22.2422,19)" color-rendering="optimizeQuality" color-interpolation="linearRGB" image-rendering="optimizeQuality"><path d="M3.8906 -9.4219 L4.4688 -9.4219 L3.7969 -7.0156 L3.9062 -6.9844 Q4.8281 -8.2656 5.7188 -8.8828 Q6.6094 -9.5 7.5469 -9.5 Q8.25 -9.5 8.7344 -9.3906 L8.2656 -7.2031 L7.25 -7.2031 Q7.1719 -7.7031 7.0078 -7.9688 Q6.8438 -8.2344 6.5 -8.2344 Q6.1094 -8.2344 5.6172 -7.8438 Q5.125 -7.4531 4.6016 -6.7656 Q4.0781 -6.0781 3.8203 -5.5078 Q3.5625 -4.9375 3.4219 -4.2344 L2.5469 0 L0.8438 0 L2.3281 -6.6719 Q2.5469 -7.5938 2.5469 -8.0625 Q2.5469 -8.3438 2.4531 -8.4922 Q2.3594 -8.6406 2.1641 -8.7188 Q1.9688 -8.7969 1.5 -8.8125 L1.6094 -9.3438 L3.8906 -9.4219 Z" stroke="none"/></g><g text-rendering="optimizeLegibility" transform="translate(20.3594,10.5469)" color-rendering="optimizeQuality" color-interpolation="linearRGB" image-rendering="optimizeQuality"><path d="M0.7812 -4.4531 L9.2812 -4.4531 L7.7344 -6.5781 L8.1406 -6.9531 L10.9375 -4.2188 L10.9375 -3.5469 L0.7812 -3.5469 L0.7812 -4.4531 Z" stroke="none"/></g><g text-rendering="optimizeLegibility" transform="translate(31.6719,17.9188) matrix(1,0,0,1.2572,0,0)" color-rendering="optimizeQuality" color-interpolation="linearRGB" image-rendering="optimizeQuality"><path d="M3.9219 4.2031 L2.4062 4.2031 L2.4062 -13.9688 L3.9219 -13.9688 L3.9219 4.2031 Z" stroke="none"/></g><g text-rendering="optimizeLegibility" transform="translate(38.3047,19)" color-rendering="optimizeQuality" color-interpolation="linearRGB" image-rendering="optimizeQuality"><path d="M3.8906 -9.4219 L4.4688 -9.4219 L3.7969 -7.0156 L3.9062 -6.9844 Q4.8281 -8.2656 5.7188 -8.8828 Q6.6094 -9.5 7.5469 -9.5 Q8.25 -9.5 8.7344 -9.3906 L8.2656 -7.2031 L7.25 -7.2031 Q7.1719 -7.7031 7.0078 -7.9688 Q6.8438 -8.2344 6.5 -8.2344 Q6.1094 -8.2344 5.6172 -7.8438 Q5.125 -7.4531 4.6016 -6.7656 Q4.0781 -6.0781 3.8203 -5.5078 Q3.5625 -4.9375 3.4219 -4.2344 L2.5469 0 L0.8438 0 L2.3281 -6.6719 Q2.5469 -7.5938 2.5469 -8.0625 Q2.5469 -8.3438 2.4531 -8.4922 Q2.3594 -8.6406 2.1641 -8.7188 Q1.9688 -8.7969 1.5 -8.8125 L1.6094 -9.3438 L3.8906 -9.4219 Z" stroke="none"/></g><g text-rendering="optimizeLegibility" transform="translate(36.8125,10.5469)" color-rendering="optimizeQuality" color-interpolation="linearRGB" image-rendering="optimizeQuality"><path d="M0.7812 -4.4531 L9.2812 -4.4531 L7.7344 -6.5781 L8.1406 -6.9531 L10.9375 -4.2188 L10.9375 -3.5469 L0.7812 -3.5469 L0.7812 -4.4531 Z" stroke="none"/></g><g text-rendering="optimizeLegibility" transform="translate(47.75,22.2656)" color-rendering="optimizeQuality" color-interpolation="linearRGB" image-rendering="optimizeQuality"><path d="M4.5156 -4.9375 Q4.4375 -5.5625 4.1641 -5.8359 Q3.8906 -6.1094 3.2969 -6.1094 Q2.9844 -6.1094 2.7266 -5.9922 Q2.4688 -5.875 2.3125 -5.6484 Q2.1562 -5.4219 2.1562 -5.1094 Q2.1562 -4.8594 2.2578 -4.6484 Q2.3594 -4.4375 2.6016 -4.2109 Q2.8438 -3.9844 3.2812 -3.6875 Q3.9531 -3.25 4.2188 -2.8281 Q4.4844 -2.4062 4.4844 -1.8594 Q4.4844 -1.2188 4.1797 -0.7734 Q3.875 -0.3281 3.3359 -0.1094 Q2.7969 0.1094 2.1406 0.1094 Q1.5312 0.1094 1.0078 0.0234 Q0.4844 -0.0625 0 -0.2031 L0.3125 -1.6875 L0.8438 -1.6875 Q0.8906 -1.0469 1.2031 -0.7422 Q1.5156 -0.4375 2.1094 -0.4375 Q2.7188 -0.4375 3.0625 -0.7422 Q3.4062 -1.0469 3.4062 -1.5312 Q3.4062 -1.8281 3.3047 -2.0625 Q3.2031 -2.2969 2.9844 -2.5078 Q2.7656 -2.7188 2.3594 -3 Q1.9219 -3.2812 1.6562 -3.5469 Q1.3906 -3.8125 1.2422 -4.125 Q1.0938 -4.4375 1.0938 -4.8125 Q1.0938 -5.375 1.375 -5.7891 Q1.6562 -6.2031 2.1719 -6.4219 Q2.6875 -6.6406 3.3906 -6.6406 Q4.5156 -6.6406 5.375 -6.3438 L5.0625 -4.9375 L4.5156 -4.9375 Z" stroke="none"/></g><g text-rendering="optimizeLegibility" transform="translate(54.7031,17.9124) matrix(1,0,0,1.2559,0,0)" color-rendering="optimizeQuality" color-interpolation="linearRGB" image-rendering="optimizeQuality"><path d="M0.4219 -14.0156 Q2.0781 -14.0156 3.1328 -13.5156 Q4.1875 -13.0156 4.7734 -12 Q5.3594 -10.9844 5.6172 -9.3516 Q5.875 -7.7188 5.875 -4.9219 Q5.875 -2.1562 5.6172 -0.5078 Q5.3594 1.1406 4.7734 2.1797 Q4.1875 3.2188 3.1328 3.7344 Q2.0781 4.25 0.4219 4.25 L0.4219 3.4531 Q1.1094 3.4531 1.625 3.3281 Q2.2344 3.1875 2.6406 2.7969 Q3.1094 2.375 3.4062 1.6094 Q3.75 0.7031 3.9219 -0.7812 Q4.0938 -2.3594 4.0938 -4.8438 Q4.0938 -7.0469 3.9453 -8.5859 Q3.7969 -10.125 3.4531 -11.0938 Q3.1875 -11.9219 2.7812 -12.375 Q2.4062 -12.7812 1.9219 -12.9844 Q1.3438 -13.2188 0.4219 -13.2188 L0.4219 -14.0156 Z" stroke="none"/></g></g></svg>