<?xml version="1.0" encoding="UTF-8" standalone="no"?><svg xmlns="http://www.w3.org/2000/svg" xmlns:xlink="http://www.w3.org/1999/xlink" stroke-dasharray="none" shape-rendering="auto" font-family="'Dialog'" width="15.812600" text-rendering="auto" fill-opacity="1" contentScriptType="text/ecmascript" color-interpolation="auto" color-rendering="auto" preserveAspectRatio="xMidYMid meet" font-size="12" fill="black" stroke="black" image-rendering="auto" stroke-miterlimit="10" zoomAndPan="magnify" version="1.0" stroke-linecap="square" stroke-linejoin="miter" contentStyleType="text/css" font-style="normal" height="17" stroke-width="1" stroke-dashoffset="0" font-weight="normal" stroke-opacity="1" y="-1.000000"><!--Converted from MathML using JEuclid--><defs id="genericDefs"/><g><g text-rendering="optimizeLegibility" transform="translate(0,16)" color-rendering="optimizeQuality" color-interpolation="linearRGB" image-rendering="optimizeQuality"><path d="M8.1719 -13.4844 Q9.3906 -13.4844 10.2734 -13.0156 Q11.1562 -12.5469 11.625 -11.5938 Q12.0938 -10.6406 12.0938 -9.2344 Q12.0938 -7.7188 11.5781 -5.8281 Q11.0625 -3.9375 10.0859 -2.5547 Q9.1094 -1.1719 7.8438 -0.5 Q6.5781 0.1719 5.2031 0.1719 Q3.8438 0.1719 2.9453 -0.3594 Q2.0469 -0.8906 1.6328 -1.8359 Q1.2188 -2.7812 1.2188 -4.0469 Q1.2188 -5.2969 1.5703 -6.8359 Q1.9219 -8.375 2.5469 -9.6094 Q3.1719 -10.8438 4.0234 -11.7188 Q4.875 -12.5938 5.9297 -13.0391 Q6.9844 -13.4844 8.1719 -13.4844 ZM10.25 -9.6406 Q10.25 -12.625 8.0625 -12.625 Q7.5469 -12.625 7.0781 -12.4531 Q6.5312 -12.2344 6.0312 -11.8125 Q5.4688 -11.3438 4.9844 -10.5938 Q4.4219 -9.7188 4 -8.5938 Q3.5625 -7.4219 3.2969 -6.0625 Q3.0469 -4.7656 3.0469 -3.7188 Q3.0469 -2.1875 3.6016 -1.4375 Q4.1562 -0.6875 5.25 -0.6875 Q6.125 -0.6875 6.9219 -1.2344 Q7.8906 -1.8906 8.6719 -3.3125 Q9.5156 -4.8438 9.9688 -7.0469 Q10.25 -8.3438 10.25 -9.6406 Z" stroke="none"/></g><g text-rendering="optimizeLegibility" transform="translate(11.3594,11.0547)" color-rendering="optimizeQuality" color-interpolation="linearRGB" image-rendering="optimizeQuality"><path d="M2.9688 -10.7188 L2.9688 -10.3281 L1.3125 -6.3594 L0.7344 -6.5312 L1.6875 -10.7188 L2.9688 -10.7188 Z" stroke="none"/></g></g></svg>