<?xml version="1.0" encoding="UTF-8" standalone="no"?><svg xmlns="http://www.w3.org/2000/svg" xmlns:xlink="http://www.w3.org/1999/xlink" stroke-dasharray="none" shape-rendering="auto" font-family="'Dialog'" width="17.812600" text-rendering="auto" fill-opacity="1" contentScriptType="text/ecmascript" color-interpolation="auto" color-rendering="auto" preserveAspectRatio="xMidYMid meet" font-size="12" fill="black" stroke="black" image-rendering="auto" stroke-miterlimit="10" zoomAndPan="magnify" version="1.0" stroke-linecap="square" stroke-linejoin="miter" contentStyleType="text/css" font-style="normal" height="19" stroke-width="1" stroke-dashoffset="0" font-weight="normal" stroke-opacity="1" y="-9.000000"><!--Converted from MathML using JEuclid--><defs id="genericDefs"/><g><g text-rendering="optimizeLegibility" transform="translate(0,10)" color-rendering="optimizeQuality" color-interpolation="linearRGB" image-rendering="optimizeQuality"><path d="M6.4219 0.125 L5.5 4.2188 L3.9688 4.2188 L4.8906 0.125 Q2.9375 0 1.8828 -0.9062 Q0.8281 -1.8125 0.8281 -3.4219 Q0.8281 -6.9062 5.2969 -9.5 L5.7031 -8.8125 Q2.5 -6.6094 2.5 -3.5625 Q2.5 -2.4375 3.2109 -1.625 Q3.9219 -0.8125 5.0625 -0.6875 L6 -4.9844 Q6.5312 -7.3906 7.4219 -8.4453 Q8.3125 -9.5 9.8594 -9.5 Q11.2969 -9.5 12.0859 -8.6328 Q12.875 -7.7656 12.875 -6.3125 Q12.875 -3.4375 11.0938 -1.6953 Q9.3125 0.0469 6.4219 0.125 ZM6.5781 -0.6094 Q8.6875 -0.875 9.9453 -2.4531 Q11.2031 -4.0312 11.2031 -6.4219 Q11.2031 -7.4531 10.7969 -8.0703 Q10.3906 -8.6875 9.6719 -8.6875 Q8.875 -8.6875 8.4375 -7.8594 Q8 -7.0312 7.3906 -4.2344 L6.5781 -0.6094 Z" stroke="none"/></g><g text-rendering="optimizeLegibility" transform="translate(12.875,18.8281)" color-rendering="optimizeQuality" color-interpolation="linearRGB" image-rendering="optimizeQuality"><path d="M3.8281 -9.2188 L3.5156 -7.8906 L2.2969 -7.8906 L2.625 -9.2188 L3.8281 -9.2188 ZM2.1406 -1.7031 Q2.0625 -1.3594 2.0469 -1.2031 Q2.0312 -1.0469 2.0312 -0.9375 Q2.0312 -0.7188 2.0938 -0.6094 Q2.1562 -0.5 2.3047 -0.4375 Q2.4531 -0.375 2.7812 -0.3281 L2.7188 0 L0.5938 0 L1.625 -4.6094 Q1.7188 -5 1.75 -5.2344 Q1.7812 -5.4688 1.7812 -5.6406 Q1.7812 -5.8281 1.7266 -5.9375 Q1.6719 -6.0469 1.5312 -6.1016 Q1.3906 -6.1562 1.0625 -6.1719 L1.1406 -6.5312 L2.7969 -6.5938 L3.2031 -6.5938 L2.1406 -1.7031 Z" stroke="none"/></g></g></svg>