<?xml version="1.0" encoding="UTF-8" standalone="no"?><svg xmlns="http://www.w3.org/2000/svg" xmlns:xlink="http://www.w3.org/1999/xlink" stroke-dasharray="none" shape-rendering="auto" font-family="'Dialog'" width="24.812600" text-rendering="auto" fill-opacity="1" contentScriptType="text/ecmascript" color-interpolation="auto" color-rendering="auto" preserveAspectRatio="xMidYMid meet" font-size="12" fill="black" stroke="black" image-rendering="auto" stroke-miterlimit="10" zoomAndPan="magnify" version="1.0" stroke-linecap="square" stroke-linejoin="miter" contentStyleType="text/css" font-style="normal" height="15" stroke-width="1" stroke-dashoffset="0" font-weight="normal" stroke-opacity="1" y="-1.000000"><!--Converted from MathML using JEuclid--><defs id="genericDefs"/><g><g text-rendering="optimizeLegibility" transform="translate(0,14)" color-rendering="optimizeQuality" color-interpolation="linearRGB" image-rendering="optimizeQuality"><path d="M11.7969 -7.8438 L8.4531 -7.8438 L8.4531 -7.7656 Q9.3594 -7.3906 9.9297 -6.3984 Q10.5 -5.4062 10.5 -4.3594 Q10.5 -2.2344 9.1875 -1.0391 Q7.875 0.1562 5.5156 0.1562 Q3.3125 0.1562 2.0938 -1.0781 Q0.875 -2.3125 0.875 -4.5938 Q0.875 -6.2656 1.7969 -7.5625 Q2.7188 -8.8594 3.9844 -9.2656 Q5.25 -9.6719 7.4219 -9.6719 L11.7969 -9.6719 L11.7969 -7.8438 ZM6.4375 -7.8438 Q5.2812 -7.8438 4.5703 -6.7812 Q3.8594 -5.7188 3.8594 -4.2656 Q3.8594 -2.6719 4.3672 -1.7656 Q4.875 -0.8594 5.7188 -0.8594 Q7.5156 -0.8594 7.5156 -4.1406 Q7.5156 -6.1094 6.5781 -7.8438 L6.4375 -7.8438 Z" stroke="none"/></g><g text-rendering="optimizeLegibility" transform="translate(12.375,14)" color-rendering="optimizeQuality" color-interpolation="linearRGB" image-rendering="optimizeQuality"><path d="M3.5 -13.9688 L2.7812 -9.3125 L1.75 -9.3125 L1.4219 -13.9688 L3.5 -13.9688 Z" stroke="none"/></g><g text-rendering="optimizeLegibility" transform="translate(18.4531,14)" color-rendering="optimizeQuality" color-interpolation="linearRGB" image-rendering="optimizeQuality"><path d="M3.5 -13.9688 L2.7812 -9.3125 L1.75 -9.3125 L1.4219 -13.9688 L3.5 -13.9688 Z" stroke="none"/></g></g></svg>