<?xml version="1.0" encoding="UTF-8" standalone="no"?><svg xmlns="http://www.w3.org/2000/svg" xmlns:xlink="http://www.w3.org/1999/xlink" stroke-dasharray="none" shape-rendering="auto" font-family="'Dialog'" width="132.812600" text-rendering="auto" fill-opacity="1" contentScriptType="text/ecmascript" color-interpolation="auto" color-rendering="auto" preserveAspectRatio="xMidYMid meet" font-size="12" fill="black" stroke="black" image-rendering="auto" stroke-miterlimit="10" zoomAndPan="magnify" version="1.0" stroke-linecap="square" stroke-linejoin="miter" contentStyleType="text/css" font-style="normal" height="36" stroke-width="1" stroke-dashoffset="0" font-weight="normal" stroke-opacity="1" y="-7.000000"><!--Converted from MathML using JEuclid--><defs id="genericDefs"/><g><g text-rendering="optimizeLegibility" transform="translate(0,29)" color-rendering="optimizeQuality" color-interpolation="linearRGB" image-rendering="optimizeQuality"><path d="M7.9688 -3.125 Q8.1875 -4.0469 8.1875 -4.7031 Q8.1875 -5.1562 7.9531 -5.3359 Q7.7188 -5.5156 7.2344 -5.5469 L7.3281 -6.0312 L11.2344 -6.0312 L11.1406 -5.5469 Q10.7969 -5.4688 10.6562 -5.3984 Q10.5156 -5.3281 10.4062 -5.2109 Q10.2969 -5.0938 10.1953 -4.875 Q10.0938 -4.6562 9.9766 -4.25 Q9.8594 -3.8438 9.7031 -3.1094 L9.0312 -0.0469 L8.2656 0.1719 L7.75 -0.6094 Q7.0469 -0.2812 6.6562 -0.1406 Q6.2656 0 5.8516 0.0781 Q5.4375 0.1562 4.9688 0.1562 Q3.7656 0.1562 2.9219 -0.3516 Q2.0781 -0.8594 1.6484 -1.8047 Q1.2188 -2.75 1.2188 -4.0312 Q1.2188 -5.0781 1.4375 -6.1719 Q1.6875 -7.4062 2.0938 -8.4844 Q2.4844 -9.5156 2.9922 -10.3359 Q3.5 -11.1562 4.1406 -11.7812 Q4.7031 -12.3281 5.3672 -12.7109 Q6.0312 -13.0938 6.7578 -13.2891 Q7.4844 -13.4844 8.2969 -13.4844 Q9.2344 -13.4844 10 -13.375 Q10.7656 -13.2656 11.6875 -12.9688 L11.0938 -10.3438 L10.1562 -10.3438 Q10.0938 -11.1875 9.875 -11.6797 Q9.6562 -12.1719 9.2344 -12.3984 Q8.8125 -12.625 8.1562 -12.625 Q7.3281 -12.625 6.6406 -12.1953 Q5.9531 -11.7656 5.3125 -10.9219 Q4.6719 -10.0781 4.1484 -8.7969 Q3.625 -7.5156 3.3438 -6.1875 Q3.0625 -4.8594 3.0625 -3.7969 Q3.0625 -2.2031 3.5859 -1.4453 Q4.1094 -0.6875 5.2031 -0.6875 Q5.5938 -0.6875 6.0156 -0.7812 Q6.4375 -0.875 6.8047 -1.1016 Q7.1719 -1.3281 7.4531 -1.7109 Q7.7344 -2.0938 7.8594 -2.6719 L7.9688 -3.125 Z" stroke="none"/></g><g text-rendering="optimizeLegibility" transform="translate(11.6875,33.2266)" color-rendering="optimizeQuality" color-interpolation="linearRGB" image-rendering="optimizeQuality"><path d="M4.6094 -1.2656 Q4.0469 -0.5781 3.5 -0.2344 Q2.9531 0.1094 2.3438 0.1094 Q1.625 0.1094 1.2656 -0.2578 Q0.9062 -0.625 0.9062 -1.3281 Q0.9062 -1.7656 1.0312 -2.2969 L1.875 -5.8438 L0.8594 -5.8438 L0.9375 -6.1875 Q1.3438 -6.2344 1.5781 -6.3672 Q1.8125 -6.5 1.9766 -6.7031 Q2.1406 -6.9062 2.2734 -7.2422 Q2.4062 -7.5781 2.6094 -8.2188 L3.5625 -8.2188 L3.1719 -6.5312 L5.3438 -6.5312 L5.2031 -5.8438 L3.0156 -5.8438 L2.3594 -3.1875 Q2.0938 -2.0781 2.0938 -1.5312 Q2.0938 -1.125 2.2734 -0.9062 Q2.4531 -0.6875 2.7969 -0.6875 Q3.125 -0.6875 3.4688 -0.9297 Q3.8125 -1.1719 4.2188 -1.6719 L4.6094 -1.2656 Z" stroke="none"/></g><g text-rendering="optimizeLegibility" transform="translate(17.8125,29)" color-rendering="optimizeQuality" color-interpolation="linearRGB" image-rendering="optimizeQuality"><path d="M1.2188 -7.0625 L1.2188 -8.4219 L9.8594 -8.4219 L9.8594 -7.0625 L1.2188 -7.0625 ZM1.2188 -3.0156 L1.2188 -4.3594 L9.8594 -4.3594 L9.8594 -3.0156 L1.2188 -3.0156 Z" stroke="none"/></g><g text-rendering="optimizeLegibility" transform="translate(30.5469,29)" color-rendering="optimizeQuality" color-interpolation="linearRGB" image-rendering="optimizeQuality"><path d="M8.7812 -5.8281 Q8.7812 -3.7656 8.6797 -2.0312 Q8.5781 -0.2969 8.3047 1.1641 Q8.0312 2.625 7.5938 3.6719 Q7.1562 4.7188 6.5625 5.3984 Q5.9688 6.0781 5.2031 6.4297 Q4.4375 6.7812 3.4375 6.7812 Q2.2188 6.7812 1.125 6.3125 L1.125 3.0625 L3 3.0625 Q3.2969 3.7656 3.6094 4.0938 Q3.9219 4.4219 4.4844 4.4219 Q5.2188 4.4219 5.5859 3.7891 Q5.9531 3.1562 5.9531 1.9062 Q5.9531 0.4688 5.8672 -1.1562 Q5.7812 -2.7812 5.6094 -5.4844 Q5.25 -10.5938 5.25 -14.4375 L5.25 -16.3281 Q5.25 -18.3906 5.3594 -20.125 Q5.4688 -21.8594 5.7422 -23.3203 Q6.0156 -24.7812 6.4453 -25.8281 Q6.875 -26.875 7.4766 -27.5547 Q8.0781 -28.2344 8.8438 -28.5859 Q9.6094 -28.9375 10.6094 -28.9375 Q11.8125 -28.9375 12.9062 -28.4688 L12.9062 -25.2188 L11.0312 -25.2188 Q10.7188 -25.9688 10.3984 -26.2734 Q10.0781 -26.5781 9.5781 -26.5781 Q8.7812 -26.5781 8.4375 -25.9453 Q8.0938 -25.3125 8.0938 -24.0625 Q8.0938 -22.625 8.1719 -21 Q8.25 -19.375 8.4375 -16.6719 Q8.7812 -11.5625 8.7812 -7.7188 L8.7812 -5.8281 Z" stroke="none"/></g><g text-rendering="optimizeLegibility" stroke-width="1.6667" color-interpolation="linearRGB" color-rendering="optimizeQuality" image-rendering="optimizeQuality"><line y2="34.8438" fill="none" x1="47.1198" x2="51.3142" y1="21.78"/><line y2="7.1667" fill="none" x1="51.3142" x2="55.5087" y1="34.8438"/><line y2="7.1667" fill="none" x1="55.5087" x2="103.6806" y1="7.1667"/></g><g text-rendering="optimizeLegibility" transform="translate(56.5087,29)" color-rendering="optimizeQuality" color-interpolation="linearRGB" image-rendering="optimizeQuality"><path d="M9.375 -8.1094 L5.9219 -8.1094 L4.7031 -2.5156 Q4.5938 -1.9844 4.5938 -1.7344 Q4.5938 -0.875 5.4375 -0.875 Q6.1562 -0.875 6.9531 -1.4375 L7.2812 -0.875 Q6 0.1562 4.7031 0.1562 Q2.9531 0.1562 2.9531 -1.4375 Q2.9531 -1.9531 3.0781 -2.4062 L4.3438 -8.1094 L3.7188 -8.1094 Q2.375 -8.1094 1.1875 -6.9062 L0.6875 -7.4219 Q2.1562 -9.3438 4.1719 -9.3438 L9.625 -9.3438 L9.375 -8.1094 Z" stroke="none"/></g><g text-rendering="optimizeLegibility" transform="translate(66.1337,34.8438)" color-rendering="optimizeQuality" color-interpolation="linearRGB" image-rendering="optimizeQuality"><path d="M4.75 -1.7812 Q4.75 -1.3906 4.7969 -1.1875 Q4.8438 -0.9844 4.9531 -0.8594 Q5.0625 -0.7344 5.2734 -0.6641 Q5.4844 -0.5938 5.8047 -0.5547 Q6.125 -0.5156 6.6562 -0.5 L6.6562 0 L1.6094 0 L1.6094 -0.5 Q2.3594 -0.5312 2.6875 -0.5938 Q3.0156 -0.6562 3.1875 -0.7656 Q3.3594 -0.875 3.4375 -1.0938 Q3.5156 -1.3125 3.5156 -1.7812 L3.5156 -7.3281 Q3.5156 -7.6094 3.4219 -7.7344 Q3.3281 -7.8594 3.1406 -7.8594 Q2.9219 -7.8594 2.5156 -7.6328 Q2.1094 -7.4062 1.5156 -7 L1.2188 -7.5312 L4.4219 -9.4375 L4.7969 -9.4375 Q4.75 -8.7812 4.75 -7.625 L4.75 -1.7812 Z" stroke="none"/></g><g text-rendering="optimizeLegibility" transform="translate(66.1337,23.4062)" color-rendering="optimizeQuality" color-interpolation="linearRGB" image-rendering="optimizeQuality"><path d="M4.7969 -1.0938 Q5.1406 -1.0938 5.3438 -1.1328 Q5.5469 -1.1719 5.6719 -1.2734 Q5.7969 -1.375 5.8672 -1.5234 Q5.9375 -1.6719 6.0469 -2 L6.625 -2 L6.5156 0 L0.875 0 L0.875 -0.3281 Q1.1719 -1.0469 1.6719 -1.7969 Q2.1719 -2.5469 3.0938 -3.5625 Q3.8906 -4.4375 4.2344 -4.8906 Q4.6094 -5.3906 4.7969 -5.75 Q4.9844 -6.1094 5.0703 -6.4219 Q5.1562 -6.7344 5.1562 -7.0625 Q5.1562 -7.5781 4.9922 -7.9688 Q4.8281 -8.3594 4.4922 -8.5859 Q4.1562 -8.8125 3.6406 -8.8125 Q2.3594 -8.8125 1.9219 -7.3906 L1.0938 -7.3906 L1.0938 -8.7031 Q1.9219 -9.0938 2.6406 -9.2656 Q3.3594 -9.4375 3.9375 -9.4375 Q5.2031 -9.4375 5.8516 -8.8828 Q6.5 -8.3281 6.5 -7.2656 Q6.5 -6.9062 6.4297 -6.6016 Q6.3594 -6.2969 6.2031 -6 Q6.0469 -5.7031 5.7891 -5.3594 Q5.5312 -5.0156 5.2188 -4.6641 Q4.9062 -4.3125 4.125 -3.5 Q2.8281 -2.125 2.2188 -1.0938 L4.7969 -1.0938 Z" stroke="none"/></g><g text-rendering="optimizeLegibility" transform="translate(73.5712,29)" color-rendering="optimizeQuality" color-interpolation="linearRGB" image-rendering="optimizeQuality"><path d="M6.25 -5.0469 L6.25 -1.3438 L4.8125 -1.3438 L4.8125 -5.0469 L1.2188 -5.0469 L1.2188 -6.3906 L4.8125 -6.3906 L4.8125 -10.0938 L6.25 -10.0938 L6.25 -6.3906 L9.8594 -6.3906 L9.8594 -5.0469 L6.25 -5.0469 Z" stroke="none"/></g><g text-rendering="optimizeLegibility" transform="translate(85.4306,29)" color-rendering="optimizeQuality" color-interpolation="linearRGB" image-rendering="optimizeQuality"><path d="M9.375 -8.1094 L5.9219 -8.1094 L4.7031 -2.5156 Q4.5938 -1.9844 4.5938 -1.7344 Q4.5938 -0.875 5.4375 -0.875 Q6.1562 -0.875 6.9531 -1.4375 L7.2812 -0.875 Q6 0.1562 4.7031 0.1562 Q2.9531 0.1562 2.9531 -1.4375 Q2.9531 -1.9531 3.0781 -2.4062 L4.3438 -8.1094 L3.7188 -8.1094 Q2.375 -8.1094 1.1875 -6.9062 L0.6875 -7.4219 Q2.1562 -9.3438 4.1719 -9.3438 L9.625 -9.3438 L9.375 -8.1094 Z" stroke="none"/></g><g text-rendering="optimizeLegibility" transform="translate(95.0556,34.8438)" color-rendering="optimizeQuality" color-interpolation="linearRGB" image-rendering="optimizeQuality"><path d="M4.7969 -1.0938 Q5.1406 -1.0938 5.3438 -1.1328 Q5.5469 -1.1719 5.6719 -1.2734 Q5.7969 -1.375 5.8672 -1.5234 Q5.9375 -1.6719 6.0469 -2 L6.625 -2 L6.5156 0 L0.875 0 L0.875 -0.3281 Q1.1719 -1.0469 1.6719 -1.7969 Q2.1719 -2.5469 3.0938 -3.5625 Q3.8906 -4.4375 4.2344 -4.8906 Q4.6094 -5.3906 4.7969 -5.75 Q4.9844 -6.1094 5.0703 -6.4219 Q5.1562 -6.7344 5.1562 -7.0625 Q5.1562 -7.5781 4.9922 -7.9688 Q4.8281 -8.3594 4.4922 -8.5859 Q4.1562 -8.8125 3.6406 -8.8125 Q2.3594 -8.8125 1.9219 -7.3906 L1.0938 -7.3906 L1.0938 -8.7031 Q1.9219 -9.0938 2.6406 -9.2656 Q3.3594 -9.4375 3.9375 -9.4375 Q5.2031 -9.4375 5.8516 -8.8828 Q6.5 -8.3281 6.5 -7.2656 Q6.5 -6.9062 6.4297 -6.6016 Q6.3594 -6.2969 6.2031 -6 Q6.0469 -5.7031 5.7891 -5.3594 Q5.5312 -5.0156 5.2188 -4.6641 Q4.9062 -4.3125 4.125 -3.5 Q2.8281 -2.125 2.2188 -1.0938 L4.7969 -1.0938 Z" stroke="none"/></g><g text-rendering="optimizeLegibility" transform="translate(95.0556,23.4062)" color-rendering="optimizeQuality" color-interpolation="linearRGB" image-rendering="optimizeQuality"><path d="M4.7969 -1.0938 Q5.1406 -1.0938 5.3438 -1.1328 Q5.5469 -1.1719 5.6719 -1.2734 Q5.7969 -1.375 5.8672 -1.5234 Q5.9375 -1.6719 6.0469 -2 L6.625 -2 L6.5156 0 L0.875 0 L0.875 -0.3281 Q1.1719 -1.0469 1.6719 -1.7969 Q2.1719 -2.5469 3.0938 -3.5625 Q3.8906 -4.4375 4.2344 -4.8906 Q4.6094 -5.3906 4.7969 -5.75 Q4.9844 -6.1094 5.0703 -6.4219 Q5.1562 -6.7344 5.1562 -7.0625 Q5.1562 -7.5781 4.9922 -7.9688 Q4.8281 -8.3594 4.4922 -8.5859 Q4.1562 -8.8125 3.6406 -8.8125 Q2.3594 -8.8125 1.9219 -7.3906 L1.0938 -7.3906 L1.0938 -8.7031 Q1.9219 -9.0938 2.6406 -9.2656 Q3.3594 -9.4375 3.9375 -9.4375 Q5.2031 -9.4375 5.8516 -8.8828 Q6.5 -8.3281 6.5 -7.2656 Q6.5 -6.9062 6.4297 -6.6016 Q6.3594 -6.2969 6.2031 -6 Q6.0469 -5.7031 5.7891 -5.3594 Q5.5312 -5.0156 5.2188 -4.6641 Q4.9062 -4.3125 4.125 -3.5 Q2.8281 -2.125 2.2188 -1.0938 L4.7969 -1.0938 Z" stroke="none"/></g><g text-rendering="optimizeLegibility" transform="translate(105.3472,29)" color-rendering="optimizeQuality" color-interpolation="linearRGB" image-rendering="optimizeQuality"><path d="M8.5 -11.2188 Q8.5781 -11.5312 8.6328 -11.9219 Q8.6875 -12.3125 8.6875 -12.6094 Q8.6875 -12.9062 8.5859 -13.0547 Q8.4844 -13.2031 8.2812 -13.2734 Q8.0781 -13.3438 7.5625 -13.375 L7.6719 -13.875 L10.125 -13.9688 L10.7031 -13.9688 L8.1719 -2.7188 Q8.0312 -2.0938 7.9844 -1.7969 Q7.9375 -1.5 7.9375 -1.2969 Q7.9375 -0.8906 8.1641 -0.7109 Q8.3906 -0.5312 9.0312 -0.4844 L8.9375 0 L6.1406 0 L6.7656 -2.4531 L6.625 -2.4844 Q5.6875 -1.125 4.8516 -0.4922 Q4.0156 0.1406 3.0781 0.1406 Q2 0.1406 1.4141 -0.6641 Q0.8281 -1.4688 0.8281 -2.9375 Q0.8281 -3.875 1.0391 -4.8203 Q1.25 -5.7656 1.6875 -6.6094 Q2.125 -7.4531 2.7266 -8.0938 Q3.3281 -8.7344 4.125 -9.1172 Q4.9219 -9.5 5.8594 -9.5 Q6.4531 -9.5 6.9609 -9.3828 Q7.4688 -9.2656 7.9844 -8.9531 L8.5 -11.2188 ZM7.2812 -5.9531 Q7.4375 -6.6562 7.4375 -7.2812 Q7.4375 -8.0312 7.1094 -8.3828 Q6.7812 -8.7344 6.0312 -8.7344 Q5.625 -8.7344 5.2578 -8.6016 Q4.8906 -8.4688 4.5078 -8.1641 Q4.125 -7.8594 3.7734 -7.3594 Q3.4219 -6.8594 3.1406 -6.1484 Q2.8594 -5.4375 2.7031 -4.6172 Q2.5469 -3.7969 2.5469 -3.0312 Q2.5469 -2.0156 2.8281 -1.5078 Q3.1094 -1 3.7656 -1 Q4.0625 -1 4.3906 -1.1406 Q4.7188 -1.2812 5.1172 -1.6484 Q5.5156 -2.0156 6.0312 -2.7188 Q6.4844 -3.375 6.75 -4.0156 Q7.0156 -4.6562 7.2031 -5.5312 L7.2812 -5.9531 Z" stroke="none"/></g><g text-rendering="optimizeLegibility" transform="translate(116.0504,29)" color-rendering="optimizeQuality" color-interpolation="linearRGB" image-rendering="optimizeQuality"><path d="M1.5 -9.3438 L4.5781 -9.3438 L3.3281 -4.3594 Q3.1875 -3.8125 3.0859 -3.2734 Q2.9844 -2.7344 2.9844 -2.2812 Q2.9844 -1.5938 3.2266 -1.2891 Q3.4688 -0.9844 3.9688 -0.9844 Q4.3906 -0.9844 4.8828 -1.3125 Q5.375 -1.6406 5.9219 -2.3281 Q6.4688 -3.0156 6.7812 -3.6328 Q7.0938 -4.25 7.2812 -5.0938 L8.1719 -9.3438 L9.8594 -9.3438 L8.375 -2.6719 Q8.3125 -2.4062 8.2344 -1.9766 Q8.1562 -1.5469 8.1562 -1.2656 Q8.1562 -0.8594 8.3828 -0.6875 Q8.6094 -0.5156 9.2344 -0.4844 L9.125 0 L6.3438 0 L6.9688 -2.4531 L6.8438 -2.4844 Q5.8906 -1.1406 5.0078 -0.4922 Q4.125 0.1562 3.2188 0.1562 Q2.2812 0.1562 1.7891 -0.3672 Q1.2969 -0.8906 1.2969 -1.9219 Q1.2969 -2.2031 1.3516 -2.6016 Q1.4062 -3 1.5 -3.4219 L2.3281 -6.8906 Q2.4219 -7.3281 2.4531 -7.5781 Q2.4844 -7.8281 2.4844 -8.0156 Q2.4844 -8.4531 2.25 -8.625 Q2.0156 -8.7969 1.4219 -8.8438 L1.5 -9.3438 Z" stroke="none"/></g><g text-rendering="optimizeLegibility" transform="translate(125.9097,33.2109)" color-rendering="optimizeQuality" color-interpolation="linearRGB" image-rendering="optimizeQuality"><path d="M4.6094 -1.2656 Q4.0469 -0.5781 3.5 -0.2344 Q2.9531 0.1094 2.3438 0.1094 Q1.625 0.1094 1.2656 -0.2578 Q0.9062 -0.625 0.9062 -1.3281 Q0.9062 -1.7656 1.0312 -2.2969 L1.875 -5.8438 L0.8594 -5.8438 L0.9375 -6.1875 Q1.3438 -6.2344 1.5781 -6.3672 Q1.8125 -6.5 1.9766 -6.7031 Q2.1406 -6.9062 2.2734 -7.2422 Q2.4062 -7.5781 2.6094 -8.2188 L3.5625 -8.2188 L3.1719 -6.5312 L5.3438 -6.5312 L5.2031 -5.8438 L3.0156 -5.8438 L2.3594 -3.1875 Q2.0938 -2.0781 2.0938 -1.5312 Q2.0938 -1.125 2.2734 -0.9062 Q2.4531 -0.6875 2.7969 -0.6875 Q3.125 -0.6875 3.4688 -0.9297 Q3.8125 -1.1719 4.2188 -1.6719 L4.6094 -1.2656 Z" stroke="none"/></g></g></svg>