<?xml version="1.0" encoding="UTF-8" standalone="no"?><svg xmlns="http://www.w3.org/2000/svg" xmlns:xlink="http://www.w3.org/1999/xlink" stroke-dasharray="none" shape-rendering="auto" font-family="'Dialog'" width="165.812600" text-rendering="auto" fill-opacity="1" contentScriptType="text/ecmascript" color-interpolation="auto" color-rendering="auto" preserveAspectRatio="xMidYMid meet" font-size="12" fill="black" stroke="black" image-rendering="auto" stroke-miterlimit="10" zoomAndPan="magnify" version="1.0" stroke-linecap="square" stroke-linejoin="miter" contentStyleType="text/css" font-style="normal" height="20" stroke-width="1" stroke-dashoffset="0" font-weight="normal" stroke-opacity="1" y="-5.000000"><!--Converted from MathML using JEuclid--><defs id="genericDefs"/><g><g text-rendering="optimizeLegibility" transform="translate(0,15)" color-rendering="optimizeQuality" color-interpolation="linearRGB" image-rendering="optimizeQuality"><path d="M13.25 -13.3281 L16.3125 -13.3281 L16.2188 -12.8594 Q15.8438 -12.7812 15.6797 -12.6797 Q15.5156 -12.5781 15.3828 -12.3828 Q15.25 -12.1875 15.1172 -11.7734 Q14.9844 -11.3594 14.7812 -10.4219 L13.1094 -2.8438 Q12.9844 -2.2656 12.9453 -1.9297 Q12.9062 -1.5938 12.9062 -1.3125 Q12.9062 -0.875 13.125 -0.6953 Q13.3438 -0.5156 13.875 -0.4844 L13.7656 0 L9.8594 0 L9.9688 -0.4844 Q10.3281 -0.5312 10.5156 -0.6641 Q10.7031 -0.7969 10.8281 -1.0312 Q10.9531 -1.2656 11.0625 -1.6016 Q11.1719 -1.9375 11.3906 -2.9062 L12.6875 -8.7969 Q12.9375 -9.9688 13.3281 -11.2969 L13.1875 -11.2969 Q12.9062 -10.7656 12.6328 -10.2812 Q12.3594 -9.7969 11.8125 -8.8906 L7.3594 -1.5469 L6.2969 -1.5469 L5.3594 -8.875 L5.0938 -11.5 L4.9062 -11.5 Q4.5312 -9.0469 4.1562 -7.3594 L3.2188 -3.0938 Q3.0625 -2.3594 3.0078 -1.9922 Q2.9531 -1.625 2.9531 -1.3125 Q2.9531 -0.875 3.1797 -0.6953 Q3.4062 -0.5156 3.9219 -0.4844 L3.8125 0 L0.3906 0 L0.5 -0.4844 Q0.875 -0.5312 1.0547 -0.6641 Q1.2344 -0.7969 1.3672 -1.0312 Q1.5 -1.2656 1.6016 -1.6016 Q1.7031 -1.9375 1.9219 -2.9062 L3.5781 -10.4375 Q3.6875 -10.8438 3.7422 -11.2266 Q3.7969 -11.6094 3.7969 -12 Q3.7969 -12.4688 3.5625 -12.6484 Q3.3281 -12.8281 2.8438 -12.8594 L2.9531 -13.3281 L6.4375 -13.3281 L7.5469 -3.8594 L13.25 -13.3281 Z" stroke="none"/></g><g text-rendering="optimizeLegibility" transform="translate(16.3125,18.2734)" color-rendering="optimizeQuality" color-interpolation="linearRGB" image-rendering="optimizeQuality"><path d="M5.5625 -1.3594 Q5.0625 -0.8125 4.5938 -0.4922 Q4.125 -0.1719 3.6641 -0.0312 Q3.2031 0.1094 2.6406 0.1094 Q2.0938 0.1094 1.7031 -0.0625 Q1.3125 -0.2344 1.0625 -0.5391 Q0.8125 -0.8438 0.6875 -1.2656 Q0.5625 -1.6875 0.5625 -2.1875 Q0.5625 -2.9062 0.8281 -3.75 Q1.0938 -4.5938 1.625 -5.2578 Q2.1562 -5.9219 2.8984 -6.2891 Q3.6406 -6.6562 4.4844 -6.6562 Q5.3125 -6.6562 5.7266 -6.3203 Q6.1406 -5.9844 6.1406 -5.2656 Q6.1406 -4.1094 5.0469 -3.5312 Q3.9531 -2.9531 1.8125 -2.9531 Q1.7344 -2.5312 1.7344 -2.0625 Q1.7344 -1.3438 2.0156 -1.0156 Q2.2969 -0.6875 2.9219 -0.6875 Q3.5625 -0.6875 4.0703 -0.9609 Q4.5781 -1.2344 5.1406 -1.8125 L5.5625 -1.3594 ZM1.9219 -3.5312 Q2.5625 -3.5312 3.0312 -3.6016 Q3.5 -3.6719 3.8438 -3.7812 Q4.1875 -3.8906 4.4141 -4.0469 Q4.6406 -4.2031 4.7734 -4.3906 Q4.9062 -4.5781 4.9609 -4.7891 Q5.0156 -5 5.0156 -5.2188 Q5.0156 -5.6406 4.8203 -5.875 Q4.625 -6.1094 4.2344 -6.1094 Q3.7656 -6.1094 3.3047 -5.7656 Q2.8438 -5.4219 2.4922 -4.8359 Q2.1406 -4.25 1.9219 -3.5312 Z" stroke="none"/></g><g text-rendering="optimizeLegibility" transform="translate(22.6875,15)" color-rendering="optimizeQuality" color-interpolation="linearRGB" image-rendering="optimizeQuality"><path d="M7.2188 4.25 Q5.5625 4.25 4.5078 3.75 Q3.4531 3.25 2.8672 2.2344 Q2.2812 1.2188 2.0234 -0.4141 Q1.7656 -2.0469 1.7656 -4.8438 Q1.7656 -7.625 2.0234 -9.2656 Q2.2812 -10.9062 2.8672 -11.9453 Q3.4531 -12.9844 4.5078 -13.5 Q5.5625 -14.0156 7.2188 -14.0156 L7.2188 -13.2188 Q6.5312 -13.2188 6 -13.0938 Q5.4062 -12.9531 4.9844 -12.5625 Q4.5156 -12.1406 4.2344 -11.375 Q3.8906 -10.4688 3.7188 -8.9844 Q3.5469 -7.4062 3.5469 -4.9219 Q3.5469 -2.7188 3.6953 -1.1797 Q3.8438 0.3594 4.1875 1.3281 Q4.4531 2.1562 4.8594 2.6094 Q5.2188 3.0156 5.7188 3.2188 Q6.2969 3.4531 7.2188 3.4531 L7.2188 4.25 Z" stroke="none"/></g><g text-rendering="optimizeLegibility" transform="translate(31.9062,15)" color-rendering="optimizeQuality" color-interpolation="linearRGB" image-rendering="optimizeQuality"><path d="M5.4688 -13.1719 L5.0156 -11.2656 L3.2969 -11.2656 L3.7344 -13.1719 L5.4688 -13.1719 ZM3.0625 -2.4375 Q2.9531 -1.9375 2.9219 -1.7109 Q2.8906 -1.4844 2.8906 -1.3281 Q2.8906 -1.0312 2.9922 -0.8672 Q3.0938 -0.7031 3.2969 -0.6172 Q3.5 -0.5312 3.9688 -0.4844 L3.875 0 L0.8438 0 L2.3281 -6.5781 Q2.4531 -7.1562 2.5 -7.4922 Q2.5469 -7.8281 2.5469 -8.0469 Q2.5469 -8.3281 2.4688 -8.4844 Q2.3906 -8.6406 2.1953 -8.7188 Q2 -8.7969 1.5156 -8.8125 L1.625 -9.3438 L4 -9.4219 L4.5781 -9.4219 L3.0625 -2.4375 Z" stroke="none"/></g><g text-rendering="optimizeLegibility" transform="translate(39.1406,15)" color-rendering="optimizeQuality" color-interpolation="linearRGB" image-rendering="optimizeQuality"><path d="M3.0156 -2.2656 Q3.1562 -1.5781 3.1562 -0.9219 Q3.1562 -0.2344 2.9219 0.3359 Q2.6875 0.9062 2.1719 1.4609 Q1.6562 2.0156 0.7656 2.7031 L0.2344 2.0938 Q0.7344 1.625 0.9609 1.25 Q1.1875 0.875 1.2812 0.3984 Q1.375 -0.0781 1.375 -0.7969 Q1.375 -1.5469 1.3125 -2.2656 L3.0156 -2.2656 Z" stroke="none"/></g><g text-rendering="optimizeLegibility" transform="translate(46.8594,15)" color-rendering="optimizeQuality" color-interpolation="linearRGB" image-rendering="optimizeQuality"><path d="M5.5 -13.1719 L5.0469 -11.2656 L3.3281 -11.2656 L3.7656 -13.1719 L5.5 -13.1719 ZM2.5625 0.1719 Q2.25 1.6562 1.7109 2.5547 Q1.1719 3.4531 0.3125 3.9062 Q-0.5469 4.3594 -1.7344 4.3594 Q-2.2344 4.3594 -2.5625 4.2656 L-2.3438 3.4062 Q-2.1875 3.4531 -2 3.4688 Q-1.8125 3.4844 -1.6094 3.4844 Q-1.1406 3.4844 -0.8125 3.3438 Q-0.4844 3.2031 -0.1953 2.875 Q0.0938 2.5469 0.3281 1.9609 Q0.5625 1.375 0.7656 0.4531 L2.3594 -6.5781 Q2.4844 -7.125 2.5312 -7.4688 Q2.5781 -7.8125 2.5781 -8.0469 Q2.5781 -8.3281 2.4922 -8.4844 Q2.4062 -8.6406 2.2109 -8.7188 Q2.0156 -8.7969 1.5469 -8.8125 L1.6562 -9.3438 L4.0312 -9.4219 L4.5938 -9.4219 L2.5625 0.1719 Z" stroke="none"/></g><g text-rendering="optimizeLegibility" transform="translate(53.9375,15)" color-rendering="optimizeQuality" color-interpolation="linearRGB" image-rendering="optimizeQuality"><path d="M0.4219 -14.0156 Q2.0781 -14.0156 3.1328 -13.5156 Q4.1875 -13.0156 4.7734 -12 Q5.3594 -10.9844 5.6172 -9.3516 Q5.875 -7.7188 5.875 -4.9219 Q5.875 -2.1562 5.6172 -0.5078 Q5.3594 1.1406 4.7734 2.1797 Q4.1875 3.2188 3.1328 3.7344 Q2.0781 4.25 0.4219 4.25 L0.4219 3.4531 Q1.1094 3.4531 1.625 3.3281 Q2.2344 3.1875 2.6406 2.7969 Q3.1094 2.375 3.4062 1.6094 Q3.75 0.7031 3.9219 -0.7812 Q4.0938 -2.3594 4.0938 -4.8438 Q4.0938 -7.0469 3.9453 -8.5859 Q3.7969 -10.125 3.4531 -11.0938 Q3.1875 -11.9219 2.7812 -12.375 Q2.4062 -12.7812 1.9219 -12.9844 Q1.3438 -13.2188 0.4219 -13.2188 L0.4219 -14.0156 Z" stroke="none"/></g><g text-rendering="optimizeLegibility" transform="translate(62.5938,15)" color-rendering="optimizeQuality" color-interpolation="linearRGB" image-rendering="optimizeQuality"><path d="M1.2188 -7.0625 L1.2188 -8.4219 L9.8594 -8.4219 L9.8594 -7.0625 L1.2188 -7.0625 ZM1.2188 -3.0156 L1.2188 -4.3594 L9.8594 -4.3594 L9.8594 -3.0156 L1.2188 -3.0156 Z" stroke="none"/></g><g text-rendering="optimizeLegibility" transform="translate(74.4531,15)" color-rendering="optimizeQuality" color-interpolation="linearRGB" image-rendering="optimizeQuality"><path d="M5.4375 0.1562 Q3.3281 0.1562 2.2969 -1.5078 Q1.2656 -3.1719 1.2656 -6.5469 Q1.2656 -8.3438 1.5781 -9.6484 Q1.8906 -10.9531 2.4609 -11.8125 Q3.0312 -12.6719 3.8359 -13.0781 Q4.6406 -13.4844 5.5938 -13.4844 Q7.7188 -13.4844 8.7656 -11.8359 Q9.8125 -10.1875 9.8125 -6.8438 Q9.8125 -3.3906 8.6953 -1.6172 Q7.5781 0.1562 5.4375 0.1562 ZM3.1719 -6.8438 Q3.1719 -3.6562 3.7578 -2.1641 Q4.3438 -0.6719 5.5938 -0.6719 Q6.7656 -0.6719 7.3359 -2.0781 Q7.9062 -3.4844 7.9062 -6.4219 Q7.9062 -8.6562 7.6172 -10.0547 Q7.3281 -11.4531 6.8047 -12.0547 Q6.2812 -12.6562 5.5312 -12.6562 Q4.8594 -12.6562 4.4062 -12.2578 Q3.9531 -11.8594 3.6797 -11.1094 Q3.4062 -10.3594 3.2891 -9.2734 Q3.1719 -8.1875 3.1719 -6.8438 ZM14.0312 -2.2656 L14.0312 0 L12.0625 0 L12.0625 -2.2656 L14.0312 -2.2656 ZM20.4375 0.1562 Q18.3281 0.1562 17.2969 -1.5078 Q16.2656 -3.1719 16.2656 -6.5469 Q16.2656 -8.3438 16.5781 -9.6484 Q16.8906 -10.9531 17.4609 -11.8125 Q18.0312 -12.6719 18.8359 -13.0781 Q19.6406 -13.4844 20.5938 -13.4844 Q22.7188 -13.4844 23.7656 -11.8359 Q24.8125 -10.1875 24.8125 -6.8438 Q24.8125 -3.3906 23.6953 -1.6172 Q22.5781 0.1562 20.4375 0.1562 ZM18.1719 -6.8438 Q18.1719 -3.6562 18.7578 -2.1641 Q19.3438 -0.6719 20.5938 -0.6719 Q21.7656 -0.6719 22.3359 -2.0781 Q22.9062 -3.4844 22.9062 -6.4219 Q22.9062 -8.6562 22.6172 -10.0547 Q22.3281 -11.4531 21.8047 -12.0547 Q21.2812 -12.6562 20.5312 -12.6562 Q19.8594 -12.6562 19.4062 -12.2578 Q18.9531 -11.8594 18.6797 -11.1094 Q18.4062 -10.3594 18.2891 -9.2734 Q18.1719 -8.1875 18.1719 -6.8438 Z" stroke="none"/></g><g text-rendering="optimizeLegibility" transform="translate(114.2656,15)" color-rendering="optimizeQuality" color-interpolation="linearRGB" image-rendering="optimizeQuality"><path d="M5.9688 -8.3438 L3.6406 -8.3438 L3.6406 -2.4375 Q3.6406 -1.7812 3.7031 -1.4531 Q3.7656 -1.125 3.8828 -0.9531 Q4 -0.7812 4.2031 -0.6797 Q4.4062 -0.5781 4.8438 -0.4844 L4.8438 0 L0.8438 0 L0.8438 -0.4844 Q1.2812 -0.5938 1.4688 -0.7031 Q1.6562 -0.8125 1.7578 -0.9766 Q1.8594 -1.1406 1.9062 -1.4531 Q1.9531 -1.7656 1.9531 -2.4375 L1.9531 -8.3438 L0.7656 -8.3438 L0.7656 -8.8438 Q1.1406 -8.9062 1.2656 -8.9375 Q1.3906 -8.9688 1.5 -9.0391 Q1.6094 -9.1094 1.6953 -9.2344 Q1.7812 -9.3594 1.8438 -9.6094 Q1.9062 -9.8594 1.9375 -10.3125 Q2.0312 -11.375 2.3281 -12.0391 Q2.625 -12.7031 3.1953 -13.1719 Q3.7656 -13.6406 4.4141 -13.8359 Q5.0625 -14.0312 5.9531 -14.0312 Q6.7188 -14.0312 7.25 -13.9219 L7.25 -12.1562 L6.2969 -12.1562 Q6.1094 -12.7188 5.8594 -12.9609 Q5.6094 -13.2031 5.1562 -13.2031 Q4.8281 -13.2031 4.6094 -13.1172 Q4.3906 -13.0312 4.2109 -12.8438 Q4.0312 -12.6562 3.8984 -12.3438 Q3.7656 -12.0312 3.7031 -11.5703 Q3.6406 -11.1094 3.6406 -10.3594 L3.6406 -9.3438 L5.9688 -9.3438 L5.9688 -8.3438 ZM11.2031 0.1562 Q9.1719 0.1562 8.1016 -1.0391 Q7.0312 -2.2344 7.0312 -4.5781 Q7.0312 -6.1875 7.5938 -7.3047 Q8.1562 -8.4219 9.1328 -8.9609 Q10.1094 -9.5 11.3594 -9.5 Q13.4375 -9.5 14.5156 -8.2891 Q15.5938 -7.0781 15.5938 -4.7969 Q15.5938 -3.1719 15.0547 -2.0625 Q14.5156 -0.9531 13.5312 -0.3984 Q12.5469 0.1562 11.2031 0.1562 ZM8.875 -4.7812 Q8.875 -2.7812 9.5156 -1.6953 Q10.1562 -0.6094 11.3438 -0.6094 Q12 -0.6094 12.4609 -0.9297 Q12.9219 -1.25 13.2031 -1.7891 Q13.4844 -2.3281 13.6172 -3.0312 Q13.75 -3.7344 13.75 -4.5156 Q13.75 -5.9531 13.4297 -6.8984 Q13.1094 -7.8438 12.5625 -8.2891 Q12.0156 -8.7344 11.3125 -8.7344 Q10.125 -8.7344 9.5 -7.7109 Q8.875 -6.6875 8.875 -4.7812 ZM20.5781 -7.7188 L20.7188 -7.6875 Q21.2656 -8.3438 21.7188 -8.7188 Q22.1719 -9.0938 22.7031 -9.2969 Q23.2344 -9.5 23.9219 -9.5 Q24.4844 -9.5 24.9375 -9.4375 L24.9375 -7.2031 L23.8438 -7.2031 Q23.6094 -7.7188 23.3438 -7.9609 Q23.0781 -8.2031 22.6094 -8.2031 Q22.2656 -8.2031 21.9219 -8 Q21.5781 -7.7969 21.25 -7.4062 Q20.9219 -7.0156 20.8047 -6.6719 Q20.6875 -6.3281 20.6875 -5.8594 L20.6875 -2.4375 Q20.6875 -1.5469 20.7891 -1.2109 Q20.8906 -0.875 21.1406 -0.7188 Q21.3906 -0.5625 21.8906 -0.4844 L21.8906 0 L17.9531 0 L17.9531 -0.4844 Q18.3281 -0.5938 18.4922 -0.6797 Q18.6562 -0.7656 18.7734 -0.9219 Q18.8906 -1.0781 18.9453 -1.4062 Q19 -1.7344 19 -2.4062 L19 -6.6719 Q19 -7.2969 18.9844 -7.6797 Q18.9688 -8.0625 18.8516 -8.2891 Q18.7344 -8.5156 18.4922 -8.625 Q18.25 -8.7344 17.8125 -8.8125 L17.8125 -9.3281 L20.0938 -9.4219 L20.6875 -9.4219 L20.5781 -7.7188 ZM32.7344 -13.1719 L32.7344 -11.2656 L30.9375 -11.2656 L30.9375 -13.1719 L32.7344 -13.1719 ZM29.9531 -0.4844 Q30.3281 -0.5938 30.4922 -0.6797 Q30.6562 -0.7656 30.7656 -0.9219 Q30.875 -1.0781 30.9375 -1.4062 Q31 -1.7344 31 -2.4062 L31 -6.6719 Q31 -7.2969 30.9844 -7.6797 Q30.9688 -8.0625 30.8516 -8.2891 Q30.7344 -8.5156 30.4922 -8.625 Q30.25 -8.7344 29.8125 -8.8125 L29.8125 -9.3438 L32.0938 -9.4219 L32.6875 -9.4219 L32.6875 -2.4375 Q32.6875 -1.6094 32.7656 -1.2812 Q32.8438 -0.9531 33.0625 -0.7812 Q33.2812 -0.6094 33.7812 -0.4844 L33.7812 0 L29.9531 0 L29.9531 -0.4844 Z" stroke="none"/></g><g text-rendering="optimizeLegibility" transform="translate(148.8281,15)" color-rendering="optimizeQuality" color-interpolation="linearRGB" image-rendering="optimizeQuality"><path d="M8.25 -11.1406 L7.1719 -8.4219 L9.8594 -8.4219 L9.8594 -7.0625 L6.625 -7.0625 L5.5625 -4.3594 L9.8594 -4.3594 L9.8594 -3.0156 L5.0156 -3.0156 L3.9531 -0.2969 L2.8125 -0.2969 L3.8906 -3.0156 L1.2188 -3.0156 L1.2188 -4.3594 L4.4219 -4.3594 L5.5 -7.0625 L1.2188 -7.0625 L1.2188 -8.4219 L6.0312 -8.4219 L7.125 -11.1406 L8.25 -11.1406 Z" stroke="none"/></g><g text-rendering="optimizeLegibility" transform="translate(160.6875,15)" color-rendering="optimizeQuality" color-interpolation="linearRGB" image-rendering="optimizeQuality"><path d="M3.6406 -13.1719 L3.6406 -11.2656 L1.8594 -11.2656 L1.8594 -13.1719 L3.6406 -13.1719 ZM3.5938 -0.1875 Q3.5938 1.1875 3.3125 2.0078 Q3.0312 2.8281 2.3281 3.3984 Q1.625 3.9688 0.375 4.3281 L0.0469 3.4688 Q0.6562 3.2344 0.9766 3.0234 Q1.2969 2.8125 1.5 2.5312 Q1.7031 2.25 1.8125 1.7812 Q1.9219 1.3125 1.9219 0.5938 L1.9219 -6.6719 Q1.9219 -7.4375 1.8906 -7.7656 Q1.8594 -8.0938 1.7578 -8.2891 Q1.6562 -8.4844 1.4531 -8.6016 Q1.25 -8.7188 0.7188 -8.8125 L0.7188 -9.3438 L3 -9.4219 L3.5938 -9.4219 L3.5938 -0.1875 Z" stroke="none"/></g></g></svg>