<?xml version="1.0" encoding="UTF-8" standalone="no"?><svg xmlns="http://www.w3.org/2000/svg" xmlns:xlink="http://www.w3.org/1999/xlink" stroke-dasharray="none" shape-rendering="auto" font-family="'Dialog'" width="70.812600" text-rendering="auto" fill-opacity="1" contentScriptType="text/ecmascript" color-interpolation="auto" color-rendering="auto" preserveAspectRatio="xMidYMid meet" font-size="12" fill="black" stroke="black" image-rendering="auto" stroke-miterlimit="10" zoomAndPan="magnify" version="1.0" stroke-linecap="square" stroke-linejoin="miter" contentStyleType="text/css" font-style="normal" height="33" stroke-width="1" stroke-dashoffset="0" font-weight="normal" stroke-opacity="1" y="-9.000000"><!--Converted from MathML using JEuclid--><defs id="genericDefs"/><g><g text-rendering="optimizeLegibility" transform="translate(0,24)" color-rendering="optimizeQuality" color-interpolation="linearRGB" image-rendering="optimizeQuality"><path d="M5.4375 0.1562 Q3.3281 0.1562 2.2969 -1.5078 Q1.2656 -3.1719 1.2656 -6.5469 Q1.2656 -8.3438 1.5781 -9.6484 Q1.8906 -10.9531 2.4609 -11.8125 Q3.0312 -12.6719 3.8359 -13.0781 Q4.6406 -13.4844 5.5938 -13.4844 Q7.7188 -13.4844 8.7656 -11.8359 Q9.8125 -10.1875 9.8125 -6.8438 Q9.8125 -3.3906 8.6953 -1.6172 Q7.5781 0.1562 5.4375 0.1562 ZM3.1719 -6.8438 Q3.1719 -3.6562 3.7578 -2.1641 Q4.3438 -0.6719 5.5938 -0.6719 Q6.7656 -0.6719 7.3359 -2.0781 Q7.9062 -3.4844 7.9062 -6.4219 Q7.9062 -8.6562 7.6172 -10.0547 Q7.3281 -11.4531 6.8047 -12.0547 Q6.2812 -12.6562 5.5312 -12.6562 Q4.8594 -12.6562 4.4062 -12.2578 Q3.9531 -11.8594 3.6797 -11.1094 Q3.4062 -10.3594 3.2891 -9.2734 Q3.1719 -8.1875 3.1719 -6.8438 Z" stroke="none"/></g><g text-rendering="optimizeLegibility" transform="translate(10.5938,24)" color-rendering="optimizeQuality" color-interpolation="linearRGB" image-rendering="optimizeQuality"><path d="M1.2188 -6.1562 L1.2188 -7.5312 L9.8594 -11.2344 L9.8594 -9.7812 L2.6562 -6.8438 L9.8594 -3.9219 L9.8594 -2.4531 L1.2188 -6.1562 ZM1.2188 -0.25 L1.2188 -1.6094 L9.8594 -1.6094 L9.8594 -0.25 L1.2188 -0.25 Z" stroke="none"/></g><g text-rendering="optimizeLegibility" transform="translate(22.4531,24)" color-rendering="optimizeQuality" color-interpolation="linearRGB" image-rendering="optimizeQuality"><path d="M11.6094 -9.0469 Q9.7812 -6.8281 8.5 -4.8125 Q8.3438 -3.2656 8.3438 -2.4062 Q8.3438 -1.5781 8.5156 -1.2266 Q8.6875 -0.875 9.1094 -0.875 Q9.5625 -0.875 10.2188 -1.4688 L10.5312 -0.9844 Q9.2812 0.1562 8.1406 0.1562 Q6.7656 0.1562 6.7656 -1.9062 Q6.7656 -2.25 6.7969 -2.6562 L6.7656 -2.6562 Q4.8125 0.1562 2.9062 0.1562 Q1.9375 0.1562 1.3828 -0.6875 Q0.8281 -1.5312 0.8281 -2.8281 Q0.8281 -5.3594 2.3203 -7.4297 Q3.8125 -9.5 6.0625 -9.5 Q8.1719 -9.5 8.4375 -6.8125 L8.4844 -6.8125 L9.75 -9.3125 L11.4219 -9.3125 L11.6094 -9.0469 ZM7.0938 -4.7344 Q7.2188 -6.125 7.2188 -6.7188 Q7.2188 -7.8125 6.9297 -8.2656 Q6.6406 -8.7188 5.9844 -8.7188 Q4.5469 -8.7188 3.5469 -6.9062 Q2.5469 -5.0938 2.5469 -2.75 Q2.5469 -2 2.8516 -1.5 Q3.1562 -1 3.6562 -1 Q5.5 -1 7.0938 -4.7344 Z" stroke="none"/></g><g text-rendering="optimizeLegibility" transform="translate(35.9062,27.5312)" color-rendering="optimizeQuality" color-interpolation="linearRGB" image-rendering="optimizeQuality"><path d="M1.7344 0.1094 Q1.5 1.2031 1.0938 1.8516 Q0.6875 2.5 0.1094 2.7812 Q-0.4688 3.0625 -1.2969 3.0625 Q-1.5938 3.0625 -1.8438 2.9844 L-1.6875 2.3906 Q-1.5156 2.4375 -1.2031 2.4375 Q-0.8438 2.4375 -0.6172 2.3438 Q-0.3906 2.25 -0.1953 2.0312 Q0 1.8125 0.1797 1.3984 Q0.3594 0.9844 0.5156 0.3125 L1.9062 -5.8438 L1.0781 -5.8438 L1.1562 -6.1875 Q1.4844 -6.2344 1.625 -6.2891 Q1.7656 -6.3438 1.8516 -6.4453 Q1.9375 -6.5469 2.0078 -6.7266 Q2.0781 -6.9062 2.2031 -7.3438 Q2.5625 -8.5781 3.3203 -9.1953 Q4.0781 -9.8125 5.25 -9.8125 Q5.9062 -9.8125 6.4062 -9.7031 L6.125 -8.5469 L5.5312 -8.5469 Q5.4375 -8.9375 5.2812 -9.1094 Q5.125 -9.2812 4.8281 -9.2812 Q4.4375 -9.2812 4.1641 -9.0703 Q3.8906 -8.8594 3.6953 -8.4297 Q3.5 -8 3.3438 -7.2812 L3.1719 -6.5312 L4.7344 -6.5312 L4.5781 -5.8438 L3.0156 -5.8438 L1.7344 0.1094 Z" stroke="none"/></g><g text-rendering="optimizeLegibility" transform="translate(43.0938,24)" color-rendering="optimizeQuality" color-interpolation="linearRGB" image-rendering="optimizeQuality"><path d="M1.2188 -6.1562 L1.2188 -7.5312 L9.8594 -11.2344 L9.8594 -9.7812 L2.6562 -6.8438 L9.8594 -3.9219 L9.8594 -2.4531 L1.2188 -6.1562 ZM1.2188 -0.25 L1.2188 -1.6094 L9.8594 -1.6094 L9.8594 -0.25 L1.2188 -0.25 Z" stroke="none"/></g><g text-rendering="optimizeLegibility" stroke-width="1.6667" color-interpolation="linearRGB" color-rendering="optimizeQuality" image-rendering="optimizeQuality"><line y2="16.78" fill="none" x1="56.6309" x2="66.1465" y1="16.78"/><path d="M6.7812 -2.5469 Q6.7812 -1.9844 6.8516 -1.6953 Q6.9219 -1.4062 7.0781 -1.2266 Q7.2344 -1.0469 7.5391 -0.9453 Q7.8438 -0.8438 8.3047 -0.7891 Q8.7656 -0.7344 9.5156 -0.7188 L9.5156 0 L2.2969 0 L2.2969 -0.7188 Q3.375 -0.7656 3.8438 -0.8438 Q4.3125 -0.9219 4.5547 -1.0938 Q4.7969 -1.2656 4.9062 -1.5625 Q5.0156 -1.8594 5.0156 -2.5469 L5.0156 -10.4688 Q5.0156 -10.8594 4.8828 -11.0391 Q4.75 -11.2188 4.4844 -11.2188 Q4.1719 -11.2188 3.5938 -10.8984 Q3.0156 -10.5781 2.1719 -10.0156 L1.7344 -10.7656 L6.3125 -13.4844 L6.8438 -13.4844 Q6.7812 -12.5469 6.7812 -10.8906 L6.7812 -2.5469 Z" stroke-width="1" transform="translate(56.6309,14.2689)" stroke="none"/></g><g text-rendering="optimizeLegibility" transform="translate(56.6543,32.7755)" color-rendering="optimizeQuality" color-interpolation="linearRGB" image-rendering="optimizeQuality"><path d="M1.5469 -10.5625 L1.5469 -12.4219 Q2.6875 -12.9531 3.6719 -13.2188 Q4.6562 -13.4844 5.5781 -13.4844 Q6.6875 -13.4844 7.5156 -13.1406 Q8.3438 -12.7969 8.7812 -12.1641 Q9.2188 -11.5312 9.2188 -10.6406 Q9.2188 -9.8125 8.8906 -9.1797 Q8.5625 -8.5469 7.9609 -8.0781 Q7.3594 -7.6094 6.3906 -7.1562 L6.3906 -7.0781 Q7 -6.9688 7.5469 -6.7109 Q8.0938 -6.4531 8.5234 -6.0391 Q8.9531 -5.625 9.2109 -5.0547 Q9.4688 -4.4844 9.4688 -3.75 Q9.4688 -2.625 8.9766 -1.7422 Q8.4844 -0.8594 7.4688 -0.3516 Q6.4531 0.1562 5 0.1562 Q4.1562 0.1562 3.1875 -0.0312 Q2.2188 -0.2188 1.4062 -0.5312 L1.4062 -2.6094 L2.5781 -2.6094 Q2.9219 -1.5938 3.4844 -1.1328 Q4.0469 -0.6719 5.0156 -0.6719 Q6.2812 -0.6719 6.9297 -1.3672 Q7.5781 -2.0625 7.5781 -3.4219 Q7.5781 -4.8438 6.7188 -5.5938 Q5.8594 -6.3438 4.2031 -6.3438 L3.3281 -6.3438 L3.3281 -7.2031 Q4.6406 -7.2812 5.5469 -7.7109 Q6.4531 -8.1406 6.8906 -8.8203 Q7.3281 -9.5 7.3281 -10.3281 Q7.3281 -11.4219 6.75 -12.0078 Q6.1719 -12.5938 5.0625 -12.5938 Q4.1562 -12.5938 3.5781 -12.0938 Q3 -11.5938 2.7188 -10.5625 L1.5469 -10.5625 Z" stroke="none"/></g></g></svg>