<?xml version="1.0" encoding="UTF-8" standalone="no"?><svg xmlns="http://www.w3.org/2000/svg" xmlns:xlink="http://www.w3.org/1999/xlink" stroke-dasharray="none" shape-rendering="auto" font-family="'Dialog'" width="27.812600" text-rendering="auto" fill-opacity="1" contentScriptType="text/ecmascript" color-interpolation="auto" color-rendering="auto" preserveAspectRatio="xMidYMid meet" font-size="12" fill="black" stroke="black" image-rendering="auto" stroke-miterlimit="10" zoomAndPan="magnify" version="1.0" stroke-linecap="square" stroke-linejoin="miter" contentStyleType="text/css" font-style="normal" height="30" stroke-width="1" stroke-dashoffset="0" font-weight="normal" stroke-opacity="1" y="-5.000000"><!--Converted from MathML using JEuclid--><defs id="genericDefs"/><g><g text-rendering="optimizeLegibility" stroke-width="1.6667" color-interpolation="linearRGB" color-rendering="optimizeQuality" image-rendering="optimizeQuality"><line y2="17.78" fill="none" x1="1.6778" x2="23.4122" y1="17.78"/><path d="M8.1562 -5.6875 L6.5938 -5.6875 L5.6406 -1.4688 Q5.5938 -1.2656 5.5938 -1.0938 Q5.5938 -0.6094 6 -0.6094 Q6.2969 -0.6094 6.7969 -1.125 L7.0625 -0.7656 Q6.2344 0.1094 5.4531 0.1094 Q4.4844 0.1094 4.4844 -0.9375 Q4.4844 -1.2656 4.5625 -1.625 L5.4688 -5.6875 L3.4844 -5.6875 L2.2188 0 L0.8281 0 L0.8906 -0.3281 Q1.4844 -0.8906 2.1406 -3.7031 L2.6094 -5.6875 L2.5156 -5.6875 Q1.2969 -5.6875 0.6562 -4.8281 L0.3281 -5.2031 Q1.2969 -6.5312 2.7969 -6.5312 L8.3438 -6.5312 L8.1562 -5.6875 Z" stroke-width="1" transform="translate(1.6778,12.8548)" stroke="none"/></g><g text-rendering="optimizeLegibility" transform="translate(10.0215,12.8548)" color-rendering="optimizeQuality" color-interpolation="linearRGB" image-rendering="optimizeQuality"><path d="M4.6719 -9.3281 Q5.7031 -9.3281 6.3438 -9.1719 Q6.9844 -9.0156 7.5391 -8.6094 Q8.0938 -8.2031 8.375 -7.5234 Q8.6562 -6.8438 8.6562 -5.9062 Q8.6562 -4.9844 8.4453 -4.1406 Q8.2344 -3.2969 7.8359 -2.5938 Q7.4375 -1.8906 6.8906 -1.3672 Q6.3438 -0.8438 5.8203 -0.5625 Q5.2969 -0.2812 4.6562 -0.1406 Q4.0156 0 3.1562 0 L0.2812 0 L0.3594 -0.3281 Q0.625 -0.375 0.75 -0.4688 Q0.875 -0.5625 0.9688 -0.7266 Q1.0625 -0.8906 1.1328 -1.125 Q1.2031 -1.3594 1.3594 -2.0312 L2.5156 -7.2969 Q2.5938 -7.6094 2.6328 -7.9062 Q2.6719 -8.2031 2.6719 -8.4062 Q2.6719 -8.7188 2.5078 -8.8438 Q2.3438 -8.9688 2 -9 L2.0781 -9.3281 L4.6719 -9.3281 ZM2.2656 -0.625 Q2.4688 -0.6094 3.0312 -0.6094 Q3.7188 -0.6094 4.2812 -0.7578 Q4.8438 -0.9062 5.3203 -1.2422 Q5.7969 -1.5781 6.1875 -2.1328 Q6.5781 -2.6875 6.8203 -3.2578 Q7.0625 -3.8281 7.1953 -4.4844 Q7.3281 -5.1406 7.3281 -5.8594 Q7.3281 -7.2969 6.6641 -8.0156 Q6 -8.7344 4.6875 -8.7344 Q4.3906 -8.7344 4.0469 -8.7188 L2.2656 -0.625 Z" stroke="none"/></g><g text-rendering="optimizeLegibility" transform="translate(18.6778,15.1908)" color-rendering="optimizeQuality" color-interpolation="linearRGB" image-rendering="optimizeQuality"><path d="M3.9688 -0.9688 Q3.6094 -0.5781 3.2812 -0.3516 Q2.9531 -0.125 2.6172 -0.0234 Q2.2812 0.0781 1.8906 0.0781 Q1.5 0.0781 1.2188 -0.0469 Q0.9375 -0.1719 0.7578 -0.3906 Q0.5781 -0.6094 0.4922 -0.9062 Q0.4062 -1.2031 0.4062 -1.5625 Q0.4062 -2.0781 0.5938 -2.6797 Q0.7812 -3.2812 1.1562 -3.7578 Q1.5312 -4.2344 2.0703 -4.4922 Q2.6094 -4.75 3.2031 -4.75 Q3.7969 -4.75 4.0938 -4.5078 Q4.3906 -4.2656 4.3906 -3.7656 Q4.3906 -2.9375 3.6094 -2.5234 Q2.8281 -2.1094 1.2969 -2.1094 Q1.2344 -1.8125 1.2344 -1.4688 Q1.2344 -0.9531 1.4375 -0.7266 Q1.6406 -0.5 2.0938 -0.5 Q2.5469 -0.5 2.9062 -0.6953 Q3.2656 -0.8906 3.6719 -1.2969 L3.9688 -0.9688 ZM1.375 -2.5156 Q1.8281 -2.5312 2.1641 -2.5781 Q2.5 -2.625 2.75 -2.7031 Q3 -2.7812 3.1562 -2.8906 Q3.3125 -3 3.4062 -3.1328 Q3.5 -3.2656 3.5391 -3.4141 Q3.5781 -3.5625 3.5781 -3.7344 Q3.5781 -4.0312 3.4375 -4.1953 Q3.2969 -4.3594 3.0312 -4.3594 Q2.6875 -4.3594 2.3594 -4.1172 Q2.0312 -3.875 1.7812 -3.4531 Q1.5312 -3.0312 1.375 -2.5156 Z" stroke="none"/></g><g text-rendering="optimizeLegibility" transform="translate(18.6778,6.9017)" color-rendering="optimizeQuality" color-interpolation="linearRGB" image-rendering="optimizeQuality"><path d="M3.4219 -0.7812 Q3.6719 -0.7812 3.8125 -0.8125 Q3.9531 -0.8438 4.0469 -0.9141 Q4.1406 -0.9844 4.1875 -1.0938 Q4.2344 -1.2031 4.3125 -1.4219 L4.7344 -1.4219 L4.6562 0 L0.625 0 L0.625 -0.2344 Q0.8438 -0.75 1.1953 -1.2891 Q1.5469 -1.8281 2.2031 -2.5469 Q2.7812 -3.1719 3.0156 -3.5 Q3.2969 -3.8438 3.4297 -4.1016 Q3.5625 -4.3594 3.625 -4.5859 Q3.6875 -4.8125 3.6875 -5.0469 Q3.6875 -5.4062 3.5703 -5.6875 Q3.4531 -5.9688 3.2109 -6.1328 Q2.9688 -6.2969 2.5938 -6.2969 Q1.6875 -6.2969 1.375 -5.2812 L0.7812 -5.2812 L0.7812 -6.2188 Q1.375 -6.5 1.8828 -6.625 Q2.3906 -6.75 2.8125 -6.75 Q3.7188 -6.75 4.1797 -6.3516 Q4.6406 -5.9531 4.6406 -5.1875 Q4.6406 -4.9375 4.5938 -4.7188 Q4.5469 -4.5 4.4375 -4.2891 Q4.3281 -4.0781 4.1406 -3.8281 Q3.9531 -3.5781 3.7266 -3.3281 Q3.5 -3.0781 2.9531 -2.5 Q2.0156 -1.5156 1.5938 -0.7812 L3.4219 -0.7812 Z" stroke="none"/></g><g text-rendering="optimizeLegibility" transform="translate(8.9356,29.6661)" color-rendering="optimizeQuality" color-interpolation="linearRGB" image-rendering="optimizeQuality"><path d="M3.5312 -0.3281 Q3.9531 -0.4375 4.0938 -0.5781 Q4.2344 -0.7188 4.2812 -0.9609 Q4.3281 -1.2031 4.3281 -1.7031 L4.3281 -2.8281 L0.5312 -2.8281 L0.5312 -3.3438 L4.5312 -9.375 L5.5 -9.375 L5.5 -3.5 L5.6406 -3.5 Q6.0469 -3.5 6.2188 -3.5547 Q6.3906 -3.6094 6.5 -3.7578 Q6.6094 -3.9062 6.7031 -4.2344 L7.2188 -4.2344 L7.1406 -2.8281 L5.5 -2.8281 L5.5 -1.7031 Q5.5 -1.25 5.5312 -1.0391 Q5.5625 -0.8281 5.6328 -0.7031 Q5.7031 -0.5781 5.8438 -0.5 Q5.9844 -0.4219 6.2969 -0.3281 L6.2969 0 L3.5312 0 L3.5312 -0.3281 ZM1.6562 -3.5 L4.3281 -3.5 L4.3281 -5.2031 Q4.3281 -5.8438 4.3516 -6.6406 Q4.375 -7.4375 4.3906 -7.8281 L4.3281 -7.8281 L1.6562 -3.5938 L1.6562 -3.5 Z" stroke="none"/></g></g></svg>