<?xml version="1.0" encoding="UTF-8" standalone="no"?><svg xmlns="http://www.w3.org/2000/svg" xmlns:xlink="http://www.w3.org/1999/xlink" stroke-dasharray="none" shape-rendering="auto" font-family="'Dialog'" width="45.812600" text-rendering="auto" fill-opacity="1" contentScriptType="text/ecmascript" color-interpolation="auto" color-rendering="auto" preserveAspectRatio="xMidYMid meet" font-size="12" fill="black" stroke="black" image-rendering="auto" stroke-miterlimit="10" zoomAndPan="magnify" version="1.0" stroke-linecap="square" stroke-linejoin="miter" contentStyleType="text/css" font-style="normal" height="25" stroke-width="1" stroke-dashoffset="0" font-weight="normal" stroke-opacity="1" y="-5.000000"><!--Converted from MathML using JEuclid--><defs id="genericDefs"/><g><g text-rendering="optimizeLegibility" transform="translate(-0.2344,19.2379) matrix(1,0,0,1.3226,0,0)" color-rendering="optimizeQuality" color-interpolation="linearRGB" image-rendering="optimizeQuality"><path d="M6.5781 4.2031 L2.2344 4.2031 L2.2344 -13.9688 L6.5781 -13.9688 L6.5781 -13.1719 L3.9531 -13.1719 L3.9531 3.4062 L6.5781 3.4062 L6.5781 4.2031 Z" stroke="none"/></g><g text-rendering="optimizeLegibility" transform="translate(8.3438,20)" color-rendering="optimizeQuality" color-interpolation="linearRGB" image-rendering="optimizeQuality"><path d="M7.5781 -2.3438 Q7.5 -1.9062 7.5 -1.3125 Q7.5 -0.5312 8.4375 -0.4844 L8.3438 0 L4.4688 0 L4.5781 -0.4844 Q5.125 -0.5625 5.3594 -0.8984 Q5.5938 -1.2344 5.8594 -2.3281 Q3.6406 -2.4062 2.4531 -3.3281 Q1.2656 -4.25 1.2656 -5.7812 Q1.2656 -8.2812 3.0469 -9.7109 Q4.8281 -11.1406 7.7969 -11.1406 Q7.875 -11.7812 7.875 -12 Q7.875 -12.8438 6.9219 -12.8594 L7.0156 -13.3438 L10.9062 -13.3438 L10.7969 -12.8594 Q10.2031 -12.7656 9.9766 -12.4141 Q9.75 -12.0625 9.5469 -11.1562 Q11.7656 -11.0625 12.9453 -10.1484 Q14.125 -9.2344 14.125 -7.7656 Q14.125 -5.2188 12.4219 -3.8125 Q10.7188 -2.4062 7.5781 -2.3438 ZM9.3438 -10.2969 L7.7812 -3.2188 Q9.9062 -3.2656 11.1484 -4.5391 Q12.3906 -5.8125 12.3906 -7.7031 Q12.3906 -10.1719 9.3438 -10.2969 ZM7.625 -10.25 Q5.5312 -10.25 4.2656 -8.9844 Q3 -7.7188 3 -5.7031 Q3 -4.5781 3.7734 -3.9062 Q4.5469 -3.2344 6.0625 -3.1875 L7.625 -10.25 Z" stroke="none"/></g><g text-rendering="optimizeLegibility" transform="translate(10.2891,9.7812)" color-rendering="optimizeQuality" color-interpolation="linearRGB" image-rendering="optimizeQuality"><path d="M9.5 -6.5312 L9.5 -5.0781 Q8.875 -4.5781 8.2812 -4.3516 Q7.6875 -4.125 7.0469 -4.125 Q6.2969 -4.125 5.3594 -4.5469 Q5.1719 -4.625 5.0781 -4.6719 Q4.4375 -4.9531 4.0156 -5.0469 Q3.5938 -5.1406 3.1562 -5.1406 Q2.5 -5.1406 1.9219 -4.8984 Q1.3438 -4.6562 0.7344 -4.125 L0.7344 -5.5625 Q1.375 -6.0625 1.9844 -6.2969 Q2.5938 -6.5312 3.2812 -6.5312 Q3.7188 -6.5312 4.1328 -6.4375 Q4.5469 -6.3438 5.1719 -6.0781 Q5.25 -6.0469 5.4375 -5.9531 Q6.4062 -5.5 7.1719 -5.5 Q7.75 -5.5 8.3203 -5.75 Q8.8906 -6 9.5 -6.5312 Z" stroke="none"/></g><g text-rendering="optimizeLegibility" transform="translate(23.1094,24.7969)" color-rendering="optimizeQuality" color-interpolation="linearRGB" image-rendering="optimizeQuality"><path d="M4.6406 0 L4.7031 -0.3281 Q5.0156 -0.3594 5.1875 -0.5078 Q5.3594 -0.6562 5.4375 -0.9297 Q5.5156 -1.2031 5.5156 -1.6406 Q5.5156 -1.9062 5.4844 -2.2188 L5.4375 -3.0938 L2.4375 -3.0938 L2.0625 -2.4219 Q1.7969 -1.9531 1.6719 -1.6172 Q1.5469 -1.2812 1.5469 -1.0156 Q1.5469 -0.4375 2.2344 -0.3281 L2.1562 0 L-0.6406 0 L-0.5625 -0.3281 Q-0.3438 -0.3594 -0.1562 -0.5 Q0.0312 -0.6406 0.2422 -0.9219 Q0.4531 -1.2031 0.8281 -1.8594 L5.2188 -9.4375 L6.25 -9.4375 L6.7344 -1.8125 Q6.7812 -1.2812 6.8672 -0.9766 Q6.9531 -0.6719 7.1094 -0.5234 Q7.2656 -0.375 7.5469 -0.3281 L7.4844 0 L4.6406 0 ZM2.7344 -3.6875 L5.4219 -3.6875 L5.2969 -5.8906 Q5.2812 -6.3438 5.2656 -7.0234 Q5.25 -7.7031 5.25 -8 L5.1719 -8 L2.7344 -3.6875 Z" stroke="none"/></g><g text-rendering="optimizeLegibility" transform="translate(30.6562,24.7969)" color-rendering="optimizeQuality" color-interpolation="linearRGB" image-rendering="optimizeQuality"><path d="M3.8594 -8.2969 L3.8594 -1.2812 C3.8594 -0.6094 3.9219 -0.4844 4.7812 -0.4844 C4.9219 -0.4844 5.1719 -0.4844 5.1719 -0.25 C5.1719 0 4.9531 0 4.7031 0 L0.75 0 C0.5 0 0.2812 0 0.2812 -0.25 C0.2812 -0.4844 0.5312 -0.4844 0.7188 -0.4844 C1.5469 -0.4844 1.5781 -0.6094 1.5781 -1.2812 L1.5781 -8.2969 C1.5781 -8.9531 1.5469 -9.0938 0.7344 -9.0938 C0.5156 -9.0938 0.2812 -9.0938 0.2812 -9.3438 C0.2812 -9.5938 0.5 -9.5938 0.75 -9.5938 L4.7031 -9.5938 C4.9531 -9.5938 5.1719 -9.5938 5.1719 -9.3438 C5.1719 -9.0938 4.9375 -9.0938 4.7344 -9.0938 C3.9062 -9.0938 3.8594 -8.9531 3.8594 -8.2969 ZM2.0781 -8.3281 L2.0781 -1.2656 C2.0781 -1.0469 2.0781 -0.7344 1.9531 -0.4844 L3.5 -0.4844 C3.375 -0.7344 3.375 -1.0469 3.375 -1.2656 L3.375 -8.3281 C3.375 -8.5469 3.375 -8.8438 3.5 -9.0938 L1.9531 -9.0938 C2.0781 -8.8438 2.0781 -8.5469 2.0781 -8.3281 Z" stroke="none"/></g><g text-rendering="optimizeLegibility" transform="translate(37.4062,19.2379) matrix(1,0,0,1.3226,0,0)" color-rendering="optimizeQuality" color-interpolation="linearRGB" image-rendering="optimizeQuality"><path d="M4.7812 4.2031 L0.4219 4.2031 L0.4219 3.4062 L3.0625 3.4062 L3.0625 -13.1719 L0.4219 -13.1719 L0.4219 -13.9688 L4.7812 -13.9688 L4.7812 4.2031 Z" stroke="none"/></g></g></svg>