<?xml version="1.0" encoding="UTF-8" standalone="no"?><svg xmlns="http://www.w3.org/2000/svg" xmlns:xlink="http://www.w3.org/1999/xlink" stroke-dasharray="none" shape-rendering="auto" font-family="'Dialog'" width="29.812600" text-rendering="auto" fill-opacity="1" contentScriptType="text/ecmascript" color-interpolation="auto" color-rendering="auto" preserveAspectRatio="xMidYMid meet" font-size="12" fill="black" stroke="black" image-rendering="auto" stroke-miterlimit="10" zoomAndPan="magnify" version="1.0" stroke-linecap="square" stroke-linejoin="miter" contentStyleType="text/css" font-style="normal" height="19" stroke-width="1" stroke-dashoffset="0" font-weight="normal" stroke-opacity="1" y="-5.000000"><!--Converted from MathML using JEuclid--><defs id="genericDefs"/><g><g text-rendering="optimizeLegibility" transform="translate(-0.2344,14)" color-rendering="optimizeQuality" color-interpolation="linearRGB" image-rendering="optimizeQuality"><path d="M6.5781 4.2031 L2.2344 4.2031 L2.2344 -13.9688 L6.5781 -13.9688 L6.5781 -13.1719 L3.9531 -13.1719 L3.9531 3.4062 L6.5781 3.4062 L6.5781 4.2031 Z" stroke="none"/></g><g text-rendering="optimizeLegibility" transform="translate(8.3438,14)" color-rendering="optimizeQuality" color-interpolation="linearRGB" image-rendering="optimizeQuality"><path d="M8.7344 -6.8281 Q9.6562 -6.4688 10.1406 -5.7969 Q10.625 -5.125 10.625 -4.2812 Q10.625 -3.2656 10.2578 -2.4766 Q9.8906 -1.6875 9.1016 -1.0859 Q8.3125 -0.4844 7.2891 -0.2422 Q6.2656 0 4.75 0 L0.4062 0 L0.5156 -0.4844 Q0.8906 -0.5312 1.0781 -0.6641 Q1.2656 -0.7969 1.3906 -1.0312 Q1.5156 -1.2656 1.625 -1.6016 Q1.7344 -1.9375 1.9375 -2.9062 L3.6094 -10.4375 Q3.8125 -11.4062 3.8125 -11.9688 Q3.8125 -12.4531 3.5938 -12.6406 Q3.375 -12.8281 2.8594 -12.8594 L2.9688 -13.3281 L7.7969 -13.3281 Q9.2656 -13.3281 10.1484 -13.0234 Q11.0312 -12.7188 11.4453 -12.125 Q11.8594 -11.5312 11.8594 -10.625 Q11.8594 -9.3438 11.0781 -8.3906 Q10.2969 -7.4375 8.7656 -6.9375 L8.7344 -6.8281 ZM6.0469 -7.3594 Q7.0625 -7.3594 7.6797 -7.4922 Q8.2969 -7.625 8.6875 -7.8984 Q9.0781 -8.1719 9.3906 -8.5391 Q9.7031 -8.9062 9.8828 -9.4062 Q10.0625 -9.9062 10.0625 -10.5781 Q10.0625 -11 9.9141 -11.3672 Q9.7656 -11.7344 9.4062 -11.9922 Q9.0469 -12.25 8.5859 -12.3594 Q8.125 -12.4688 7.3594 -12.4688 Q6.5 -12.4688 5.7656 -12.4375 L4.6719 -7.3594 L6.0469 -7.3594 ZM3.25 -0.9062 Q4.0156 -0.8594 4.6719 -0.8594 Q6.1562 -0.8594 6.9609 -1.2344 Q7.7656 -1.6094 8.2656 -2.4453 Q8.7656 -3.2812 8.7656 -4.4531 Q8.7656 -5.0938 8.5156 -5.5312 Q8.2656 -5.9688 7.7188 -6.2344 Q7.1719 -6.5 6.2344 -6.5 L4.4688 -6.5 L3.25 -0.9062 Z" stroke="none"/></g><g text-rendering="optimizeLegibility" transform="translate(21.7812,14)" color-rendering="optimizeQuality" color-interpolation="linearRGB" image-rendering="optimizeQuality"><path d="M4.7812 4.2031 L0.4219 4.2031 L0.4219 3.4062 L3.0625 3.4062 L3.0625 -13.1719 L0.4219 -13.1719 L0.4219 -13.9688 L4.7812 -13.9688 L4.7812 4.2031 Z" stroke="none"/></g></g></svg>