<?xml version="1.0" encoding="UTF-8" standalone="no"?><svg xmlns="http://www.w3.org/2000/svg" xmlns:xlink="http://www.w3.org/1999/xlink" stroke-dasharray="none" shape-rendering="auto" font-family="'Dialog'" width="185.812600" text-rendering="auto" fill-opacity="1" contentScriptType="text/ecmascript" color-interpolation="auto" color-rendering="auto" preserveAspectRatio="xMidYMid meet" font-size="12" fill="black" stroke="black" image-rendering="auto" stroke-miterlimit="10" zoomAndPan="magnify" version="1.0" stroke-linecap="square" stroke-linejoin="miter" contentStyleType="text/css" font-style="normal" height="83" stroke-width="1" stroke-dashoffset="0" font-weight="normal" stroke-opacity="1" y="-34.000000"><!--Converted from MathML using JEuclid--><defs id="genericDefs"/><g><g text-rendering="optimizeLegibility" transform="translate(1.0781,49)" color-rendering="optimizeQuality" color-interpolation="linearRGB" image-rendering="optimizeQuality"><path d="M7.0781 4.2188 Q5.5625 4.2188 4.6797 3.8281 Q3.7969 3.4375 3.4141 2.6641 Q3.0312 1.8906 3.0312 0.5781 L3.0312 -2.25 Q3.0312 -3.1094 2.8125 -3.5938 Q2.5938 -4.0781 2.1562 -4.2734 Q1.7188 -4.4688 0.9219 -4.4688 L0.9219 -5.2812 Q1.7031 -5.2812 2.1484 -5.4766 Q2.5938 -5.6719 2.8125 -6.1484 Q3.0312 -6.625 3.0312 -7.5 L3.0312 -10.3281 Q3.0312 -11.625 3.4141 -12.4062 Q3.7969 -13.1875 4.6797 -13.5781 Q5.5625 -13.9688 7.0781 -13.9688 L7.3281 -13.9688 L7.3281 -13.1719 Q6.5469 -13.1719 6.1641 -13.0938 Q5.7812 -13.0156 5.5391 -12.8438 Q5.2969 -12.6719 5.1406 -12.4141 Q4.9844 -12.1562 4.8984 -11.6875 Q4.8125 -11.2188 4.8125 -10.4375 L4.8125 -8.5469 Q4.8125 -7.5625 4.6406 -6.8984 Q4.4688 -6.2344 4.0312 -5.7578 Q3.5938 -5.2812 2.8281 -4.9688 L2.8281 -4.7812 Q3.5781 -4.4844 4.0312 -3.9844 Q4.4844 -3.4844 4.6484 -2.8203 Q4.8125 -2.1562 4.8125 -1.2031 L4.8125 0.6875 Q4.8125 1.4688 4.8984 1.9375 Q4.9844 2.4062 5.1406 2.6719 Q5.2969 2.9375 5.5391 3.1016 Q5.7812 3.2656 6.1641 3.3438 Q6.5469 3.4219 7.3281 3.4219 L7.3281 4.2188 L7.0781 4.2188 Z" stroke="none"/></g><g text-rendering="optimizeLegibility" transform="translate(11.3125,49)" color-rendering="optimizeQuality" color-interpolation="linearRGB" image-rendering="optimizeQuality"><path d="M6.625 0 L6.7344 -0.4844 Q7.1719 -0.5156 7.4219 -0.7344 Q7.6719 -0.9531 7.7734 -1.3281 Q7.875 -1.7031 7.875 -2.3281 Q7.875 -2.7188 7.8438 -3.1719 L7.7812 -4.4219 L3.4844 -4.4219 L2.9375 -3.4688 Q2.5625 -2.7969 2.3828 -2.3125 Q2.2031 -1.8281 2.2031 -1.4531 Q2.2031 -0.6406 3.1875 -0.4844 L3.0938 0 L-0.9062 0 L-0.7969 -0.4844 Q-0.5 -0.5156 -0.2266 -0.7188 Q0.0469 -0.9219 0.3438 -1.3281 Q0.6406 -1.7344 1.1875 -2.6719 L7.4531 -13.4844 L8.9219 -13.4844 L9.625 -2.5938 Q9.6719 -1.8281 9.8047 -1.3906 Q9.9375 -0.9531 10.1562 -0.7422 Q10.375 -0.5312 10.7969 -0.4844 L10.6875 0 L6.625 0 ZM3.9219 -5.2812 L7.7344 -5.2812 L7.5625 -8.4219 Q7.5469 -9.0625 7.5234 -10.0312 Q7.5 -11 7.5 -11.4219 L7.3906 -11.4219 L3.9219 -5.2812 Z" stroke="none"/></g><g text-rendering="optimizeLegibility" transform="translate(23.6875,49)" color-rendering="optimizeQuality" color-interpolation="linearRGB" image-rendering="optimizeQuality"><path d="M0.6719 -13.9688 Q2.1875 -13.9688 3.0703 -13.5781 Q3.9531 -13.1875 4.3281 -12.4062 Q4.7031 -11.625 4.7031 -10.3281 L4.7031 -7.5 Q4.7031 -6.625 4.9297 -6.1484 Q5.1562 -5.6719 5.5938 -5.4766 Q6.0312 -5.2812 6.8125 -5.2812 L6.8125 -4.4688 Q6.0312 -4.4688 5.5859 -4.2734 Q5.1406 -4.0781 4.9219 -3.5938 Q4.7031 -3.1094 4.7031 -2.25 L4.7031 0.5781 Q4.7031 1.8906 4.3281 2.6641 Q3.9531 3.4375 3.0703 3.8281 Q2.1875 4.2188 0.6719 4.2188 L0.4219 4.2188 L0.4219 3.4219 Q1.1875 3.4219 1.5781 3.3438 Q1.9688 3.2656 2.2031 3.1016 Q2.4375 2.9375 2.5938 2.6719 Q2.75 2.4062 2.8438 1.9375 Q2.9375 1.4688 2.9375 0.6875 L2.9375 -1.2031 Q2.9375 -2.1875 3.1016 -2.8438 Q3.2656 -3.5 3.7109 -3.9844 Q4.1562 -4.4688 4.9062 -4.7812 L4.9062 -4.9688 Q4.1719 -5.2656 3.7188 -5.7656 Q3.2656 -6.2656 3.1016 -6.9297 Q2.9375 -7.5938 2.9375 -8.5469 L2.9375 -10.4375 Q2.9375 -11.2188 2.8438 -11.6875 Q2.75 -12.1562 2.5938 -12.4141 Q2.4375 -12.6719 2.2031 -12.8438 Q1.9688 -13.0156 1.5781 -13.0938 Q1.1875 -13.1719 0.4219 -13.1719 L0.4219 -13.9688 L0.6719 -13.9688 Z" stroke="none"/></g><g text-rendering="optimizeLegibility" transform="translate(32.8594,49)" color-rendering="optimizeQuality" color-interpolation="linearRGB" image-rendering="optimizeQuality"><path d="M6.5 -5.7188 L9.4375 -2.7969 L8.4531 -1.8125 L5.5312 -4.7656 L2.625 -1.8125 L1.6406 -2.7969 L4.5781 -5.7188 L1.6406 -8.625 L2.625 -9.6094 L5.5312 -6.6719 L8.4531 -9.6094 L9.4375 -8.6406 L6.5 -5.7188 Z" stroke="none"/></g><g text-rendering="optimizeLegibility" transform="translate(45.375,49)" color-rendering="optimizeQuality" color-interpolation="linearRGB" image-rendering="optimizeQuality"><path d="M7.0781 4.2188 Q5.5625 4.2188 4.6797 3.8281 Q3.7969 3.4375 3.4141 2.6641 Q3.0312 1.8906 3.0312 0.5781 L3.0312 -2.25 Q3.0312 -3.1094 2.8125 -3.5938 Q2.5938 -4.0781 2.1562 -4.2734 Q1.7188 -4.4688 0.9219 -4.4688 L0.9219 -5.2812 Q1.7031 -5.2812 2.1484 -5.4766 Q2.5938 -5.6719 2.8125 -6.1484 Q3.0312 -6.625 3.0312 -7.5 L3.0312 -10.3281 Q3.0312 -11.625 3.4141 -12.4062 Q3.7969 -13.1875 4.6797 -13.5781 Q5.5625 -13.9688 7.0781 -13.9688 L7.3281 -13.9688 L7.3281 -13.1719 Q6.5469 -13.1719 6.1641 -13.0938 Q5.7812 -13.0156 5.5391 -12.8438 Q5.2969 -12.6719 5.1406 -12.4141 Q4.9844 -12.1562 4.8984 -11.6875 Q4.8125 -11.2188 4.8125 -10.4375 L4.8125 -8.5469 Q4.8125 -7.5625 4.6406 -6.8984 Q4.4688 -6.2344 4.0312 -5.7578 Q3.5938 -5.2812 2.8281 -4.9688 L2.8281 -4.7812 Q3.5781 -4.4844 4.0312 -3.9844 Q4.4844 -3.4844 4.6484 -2.8203 Q4.8125 -2.1562 4.8125 -1.2031 L4.8125 0.6875 Q4.8125 1.4688 4.8984 1.9375 Q4.9844 2.4062 5.1406 2.6719 Q5.2969 2.9375 5.5391 3.1016 Q5.7812 3.2656 6.1641 3.3438 Q6.5469 3.4219 7.3281 3.4219 L7.3281 4.2188 L7.0781 4.2188 Z" stroke="none"/></g><g text-rendering="optimizeLegibility" transform="translate(54.7031,49)" color-rendering="optimizeQuality" color-interpolation="linearRGB" image-rendering="optimizeQuality"><path d="M8.7344 -6.8281 Q9.6562 -6.4688 10.1406 -5.7969 Q10.625 -5.125 10.625 -4.2812 Q10.625 -3.2656 10.2578 -2.4766 Q9.8906 -1.6875 9.1016 -1.0859 Q8.3125 -0.4844 7.2891 -0.2422 Q6.2656 0 4.75 0 L0.4062 0 L0.5156 -0.4844 Q0.8906 -0.5312 1.0781 -0.6641 Q1.2656 -0.7969 1.3906 -1.0312 Q1.5156 -1.2656 1.625 -1.6016 Q1.7344 -1.9375 1.9375 -2.9062 L3.6094 -10.4375 Q3.8125 -11.4062 3.8125 -11.9688 Q3.8125 -12.4531 3.5938 -12.6406 Q3.375 -12.8281 2.8594 -12.8594 L2.9688 -13.3281 L7.7969 -13.3281 Q9.2656 -13.3281 10.1484 -13.0234 Q11.0312 -12.7188 11.4453 -12.125 Q11.8594 -11.5312 11.8594 -10.625 Q11.8594 -9.3438 11.0781 -8.3906 Q10.2969 -7.4375 8.7656 -6.9375 L8.7344 -6.8281 ZM6.0469 -7.3594 Q7.0625 -7.3594 7.6797 -7.4922 Q8.2969 -7.625 8.6875 -7.8984 Q9.0781 -8.1719 9.3906 -8.5391 Q9.7031 -8.9062 9.8828 -9.4062 Q10.0625 -9.9062 10.0625 -10.5781 Q10.0625 -11 9.9141 -11.3672 Q9.7656 -11.7344 9.4062 -11.9922 Q9.0469 -12.25 8.5859 -12.3594 Q8.125 -12.4688 7.3594 -12.4688 Q6.5 -12.4688 5.7656 -12.4375 L4.6719 -7.3594 L6.0469 -7.3594 ZM3.25 -0.9062 Q4.0156 -0.8594 4.6719 -0.8594 Q6.1562 -0.8594 6.9609 -1.2344 Q7.7656 -1.6094 8.2656 -2.4453 Q8.7656 -3.2812 8.7656 -4.4531 Q8.7656 -5.0938 8.5156 -5.5312 Q8.2656 -5.9688 7.7188 -6.2344 Q7.1719 -6.5 6.2344 -6.5 L4.4688 -6.5 L3.25 -0.9062 Z" stroke="none"/></g><g text-rendering="optimizeLegibility" transform="translate(68.1406,49)" color-rendering="optimizeQuality" color-interpolation="linearRGB" image-rendering="optimizeQuality"><path d="M0.6719 -13.9688 Q2.1875 -13.9688 3.0703 -13.5781 Q3.9531 -13.1875 4.3281 -12.4062 Q4.7031 -11.625 4.7031 -10.3281 L4.7031 -7.5 Q4.7031 -6.625 4.9297 -6.1484 Q5.1562 -5.6719 5.5938 -5.4766 Q6.0312 -5.2812 6.8125 -5.2812 L6.8125 -4.4688 Q6.0312 -4.4688 5.5859 -4.2734 Q5.1406 -4.0781 4.9219 -3.5938 Q4.7031 -3.1094 4.7031 -2.25 L4.7031 0.5781 Q4.7031 1.8906 4.3281 2.6641 Q3.9531 3.4375 3.0703 3.8281 Q2.1875 4.2188 0.6719 4.2188 L0.4219 4.2188 L0.4219 3.4219 Q1.1875 3.4219 1.5781 3.3438 Q1.9688 3.2656 2.2031 3.1016 Q2.4375 2.9375 2.5938 2.6719 Q2.75 2.4062 2.8438 1.9375 Q2.9375 1.4688 2.9375 0.6875 L2.9375 -1.2031 Q2.9375 -2.1875 3.1016 -2.8438 Q3.2656 -3.5 3.7109 -3.9844 Q4.1562 -4.4688 4.9062 -4.7812 L4.9062 -4.9688 Q4.1719 -5.2656 3.7188 -5.7656 Q3.2656 -6.2656 3.1016 -6.9297 Q2.9375 -7.5938 2.9375 -8.5469 L2.9375 -10.4375 Q2.9375 -11.2188 2.8438 -11.6875 Q2.75 -12.1562 2.5938 -12.4141 Q2.4375 -12.6719 2.2031 -12.8438 Q1.9688 -13.0156 1.5781 -13.0938 Q1.1875 -13.1719 0.4219 -13.1719 L0.4219 -13.9688 L0.6719 -13.9688 Z" stroke="none"/></g><g text-rendering="optimizeLegibility" transform="translate(77.7344,49)" color-rendering="optimizeQuality" color-interpolation="linearRGB" image-rendering="optimizeQuality"><path d="M1.2188 -7.0625 L1.2188 -8.4219 L9.8594 -8.4219 L9.8594 -7.0625 L1.2188 -7.0625 ZM1.2188 -3.0156 L1.2188 -4.3594 L9.8594 -4.3594 L9.8594 -3.0156 L1.2188 -3.0156 Z" stroke="none"/></g><g text-rendering="optimizeLegibility" transform="translate(89.1875,63.8135) matrix(1,0,0,4.5125,0,0)" color-rendering="optimizeQuality" color-interpolation="linearRGB" image-rendering="optimizeQuality"><path d="M3.9219 4.2031 L2.4062 4.2031 L2.4062 -13.9688 L3.9219 -13.9688 L3.9219 4.2031 Z" stroke="none"/></g><g text-rendering="optimizeLegibility" transform="translate(101.6797,22.0769)" color-rendering="optimizeQuality" color-interpolation="linearRGB" image-rendering="optimizeQuality"><path d="M5.4688 -13.1719 L5.0156 -11.2656 L3.2969 -11.2656 L3.7344 -13.1719 L5.4688 -13.1719 ZM3.0625 -2.4375 Q2.9531 -1.9375 2.9219 -1.7109 Q2.8906 -1.4844 2.8906 -1.3281 Q2.8906 -1.0312 2.9922 -0.8672 Q3.0938 -0.7031 3.2969 -0.6172 Q3.5 -0.5312 3.9688 -0.4844 L3.875 0 L0.8438 0 L2.3281 -6.5781 Q2.4531 -7.1562 2.5 -7.4922 Q2.5469 -7.8281 2.5469 -8.0469 Q2.5469 -8.3281 2.4688 -8.4844 Q2.3906 -8.6406 2.1953 -8.7188 Q2 -8.7969 1.5156 -8.8125 L1.625 -9.3438 L4 -9.4219 L4.5781 -9.4219 L3.0625 -2.4375 Z" stroke="none"/></g><g text-rendering="optimizeLegibility" transform="translate(100,11.0144)" color-rendering="optimizeQuality" color-interpolation="linearRGB" image-rendering="optimizeQuality"><path d="M5.6406 -4.6094 L3.875 -8.5 L2.1094 -4.6094 L1.0781 -4.6094 L3.3906 -9.4375 L4.375 -9.4375 L6.6719 -4.6094 L5.6406 -4.6094 Z" stroke="none"/></g><g text-rendering="optimizeLegibility" transform="translate(135.7425,22.0769)" color-rendering="optimizeQuality" color-interpolation="linearRGB" image-rendering="optimizeQuality"><path d="M5.5 -13.1719 L5.0469 -11.2656 L3.3281 -11.2656 L3.7656 -13.1719 L5.5 -13.1719 ZM2.5625 0.1719 Q2.25 1.6562 1.7109 2.5547 Q1.1719 3.4531 0.3125 3.9062 Q-0.5469 4.3594 -1.7344 4.3594 Q-2.2344 4.3594 -2.5625 4.2656 L-2.3438 3.4062 Q-2.1875 3.4531 -2 3.4688 Q-1.8125 3.4844 -1.6094 3.4844 Q-1.1406 3.4844 -0.8125 3.3438 Q-0.4844 3.2031 -0.1953 2.875 Q0.0938 2.5469 0.3281 1.9609 Q0.5625 1.375 0.7656 0.4531 L2.3594 -6.5781 Q2.4844 -7.125 2.5312 -7.4688 Q2.5781 -7.8125 2.5781 -8.0469 Q2.5781 -8.3281 2.4922 -8.4844 Q2.4062 -8.6406 2.2109 -8.7188 Q2.0156 -8.7969 1.5469 -8.8125 L1.6562 -9.3438 L4.0312 -9.4219 L4.5938 -9.4219 L2.5625 0.1719 Z" stroke="none"/></g><g text-rendering="optimizeLegibility" transform="translate(131.8772,11.0144) matrix(1.2084,0,0,1,0,0)" color-rendering="optimizeQuality" color-interpolation="linearRGB" image-rendering="optimizeQuality"><path d="M5.6406 -4.6094 L3.875 -8.5 L2.1094 -4.6094 L1.0781 -4.6094 L3.3906 -9.4375 L4.375 -9.4375 L6.6719 -4.6094 L5.6406 -4.6094 Z" stroke="none"/></g><g text-rendering="optimizeLegibility" transform="translate(164.6648,22.0769)" color-rendering="optimizeQuality" color-interpolation="linearRGB" image-rendering="optimizeQuality"><path d="M3.5938 -5.4375 L3.9062 -5.4375 Q4.2031 -5.4375 4.5547 -5.5547 Q4.9062 -5.6719 5.3125 -5.9219 Q5.7188 -6.1719 6.3906 -6.7031 Q6.8906 -7.125 7.1406 -7.4141 Q7.3906 -7.7031 7.4766 -7.9141 Q7.5625 -8.125 7.5625 -8.3281 Q7.5625 -8.7969 6.8906 -8.8594 L7 -9.3438 L10.1719 -9.3438 L10.3594 -8.8594 Q9.5469 -8.125 8.6406 -7.4219 L6.1562 -5.5 L7.625 -1.7969 Q7.8281 -1.2969 8.0312 -1.0312 Q8.2344 -0.7656 8.5 -0.6406 Q8.7656 -0.5156 9.1875 -0.4844 L9.0781 0 L6.4688 0 L5.0469 -4.0156 Q4.9062 -4.3906 4.8125 -4.5312 Q4.7188 -4.6719 4.5938 -4.7266 Q4.4688 -4.7812 4.1875 -4.7812 L3.4531 -4.7812 L2.4375 0 L0.75 0 L3.2656 -11.1562 Q3.375 -11.6562 3.4141 -11.875 Q3.4531 -12.0938 3.4766 -12.2812 Q3.5 -12.4688 3.5 -12.6094 Q3.5 -13.0156 3.25 -13.1797 Q3 -13.3438 2.3594 -13.375 L2.4688 -13.875 L4.9375 -13.9688 L5.5156 -13.9688 L3.5938 -5.4375 Z" stroke="none"/></g><g text-rendering="optimizeLegibility" transform="translate(162.9908,10.2175) matrix(1.5527,0,0,1,0,0)" color-rendering="optimizeQuality" color-interpolation="linearRGB" image-rendering="optimizeQuality"><path d="M5.6406 -4.6094 L3.875 -8.5 L2.1094 -4.6094 L1.0781 -4.6094 L3.3906 -9.4375 L4.375 -9.4375 L6.6719 -4.6094 L5.6406 -4.6094 Z" stroke="none"/></g><g text-rendering="optimizeLegibility" transform="translate(96.0938,49.9206)" color-rendering="optimizeQuality" color-interpolation="linearRGB" image-rendering="optimizeQuality"><path d="M6.625 0 L6.7344 -0.4844 Q7.1719 -0.5156 7.4219 -0.7344 Q7.6719 -0.9531 7.7734 -1.3281 Q7.875 -1.7031 7.875 -2.3281 Q7.875 -2.7188 7.8438 -3.1719 L7.7812 -4.4219 L3.4844 -4.4219 L2.9375 -3.4688 Q2.5625 -2.7969 2.3828 -2.3125 Q2.2031 -1.8281 2.2031 -1.4531 Q2.2031 -0.6406 3.1875 -0.4844 L3.0938 0 L-0.9062 0 L-0.7969 -0.4844 Q-0.5 -0.5156 -0.2266 -0.7188 Q0.0469 -0.9219 0.3438 -1.3281 Q0.6406 -1.7344 1.1875 -2.6719 L7.4531 -13.4844 L8.9219 -13.4844 L9.625 -2.5938 Q9.6719 -1.8281 9.8047 -1.3906 Q9.9375 -0.9531 10.1562 -0.7422 Q10.375 -0.5312 10.7969 -0.4844 L10.6875 0 L6.625 0 ZM3.9219 -5.2812 L7.7344 -5.2812 L7.5625 -8.4219 Q7.5469 -9.0625 7.5234 -10.0312 Q7.5 -11 7.5 -11.4219 L7.3906 -11.4219 L3.9219 -5.2812 Z" stroke="none"/></g><g text-rendering="optimizeLegibility" transform="translate(107.1719,53.1862)" color-rendering="optimizeQuality" color-interpolation="linearRGB" image-rendering="optimizeQuality"><path d="M6.4688 -6.2031 Q5.1406 -4.7812 3.6875 -3.4062 L4.3281 -1.9062 Q4.5781 -1.3125 4.7266 -1.0234 Q4.875 -0.7344 5 -0.6094 Q5.125 -0.4844 5.25 -0.4297 Q5.375 -0.375 5.6406 -0.3281 L5.5625 0 L3.8594 0 L2.9062 -2.75 Q2.75 -2.6094 2.4766 -2.3516 Q2.2031 -2.0938 1.9531 -1.8047 Q1.7031 -1.5156 1.6016 -1.3359 Q1.5 -1.1562 1.4688 -1.0234 Q1.4375 -0.8906 1.4375 -0.7656 Q1.4375 -0.5781 1.5391 -0.4766 Q1.6406 -0.375 1.875 -0.3281 L1.7969 0 L-0.1562 0 L-0.2812 -0.3281 Q1.2188 -1.9375 2.6719 -3.2969 L2.0156 -4.8125 Q1.8125 -5.2812 1.6953 -5.5234 Q1.5781 -5.7656 1.4609 -5.8984 Q1.3438 -6.0312 1.1953 -6.1094 Q1.0469 -6.1875 0.7812 -6.2031 L0.8594 -6.5312 L2.5625 -6.5312 L3.4688 -3.9531 Q3.7969 -4.2656 4.1016 -4.5938 Q4.4062 -4.9219 4.5312 -5.1172 Q4.6562 -5.3125 4.7031 -5.4609 Q4.75 -5.6094 4.75 -5.7656 Q4.75 -6.1406 4.3125 -6.2031 L4.375 -6.5312 L6.3281 -6.5312 L6.4688 -6.2031 Z" stroke="none"/></g><g text-rendering="optimizeLegibility" transform="translate(128.1254,49.9206)" color-rendering="optimizeQuality" color-interpolation="linearRGB" image-rendering="optimizeQuality"><path d="M6.625 0 L6.7344 -0.4844 Q7.1719 -0.5156 7.4219 -0.7344 Q7.6719 -0.9531 7.7734 -1.3281 Q7.875 -1.7031 7.875 -2.3281 Q7.875 -2.7188 7.8438 -3.1719 L7.7812 -4.4219 L3.4844 -4.4219 L2.9375 -3.4688 Q2.5625 -2.7969 2.3828 -2.3125 Q2.2031 -1.8281 2.2031 -1.4531 Q2.2031 -0.6406 3.1875 -0.4844 L3.0938 0 L-0.9062 0 L-0.7969 -0.4844 Q-0.5 -0.5156 -0.2266 -0.7188 Q0.0469 -0.9219 0.3438 -1.3281 Q0.6406 -1.7344 1.1875 -2.6719 L7.4531 -13.4844 L8.9219 -13.4844 L9.625 -2.5938 Q9.6719 -1.8281 9.8047 -1.3906 Q9.9375 -0.9531 10.1562 -0.7422 Q10.375 -0.5312 10.7969 -0.4844 L10.6875 0 L6.625 0 ZM3.9219 -5.2812 L7.7344 -5.2812 L7.5625 -8.4219 Q7.5469 -9.0625 7.5234 -10.0312 Q7.5 -11 7.5 -11.4219 L7.3906 -11.4219 L3.9219 -5.2812 Z" stroke="none"/></g><g text-rendering="optimizeLegibility" transform="translate(140.641,51.6862)" color-rendering="optimizeQuality" color-interpolation="linearRGB" image-rendering="optimizeQuality"><path d="M1.2656 -5.0469 Q1.2031 -5.5625 1.1406 -5.7656 Q1.0781 -5.9688 0.9375 -6.0781 Q0.7969 -6.1875 0.5 -6.2031 L0.5625 -6.5312 L2.3281 -6.5312 L2.8438 -1.0938 Q5.1562 -4.2656 5.1562 -5.625 Q5.1562 -5.9531 5.0156 -6.0703 Q4.875 -6.1875 4.5469 -6.2031 L4.625 -6.5312 L6.3906 -6.5312 L6.5625 -6.1875 Q6.2031 -5.25 5.6406 -4.2266 Q5.0781 -3.2031 4.2656 -1.9922 Q3.4531 -0.7812 2.4531 0.5156 Q1.6875 1.5312 1.1562 2.0312 Q0.7656 2.4219 0.4219 2.625 Q0.0781 2.8281 -0.2344 2.9141 Q-0.5469 3 -0.9062 3 Q-1.0938 3 -1.3281 2.9609 Q-1.5625 2.9219 -1.7188 2.8594 L-1.4219 1.5938 L-0.8906 1.5938 Q-0.8906 1.8125 -0.7891 1.9531 Q-0.6875 2.0938 -0.4844 2.0938 Q-0.2656 2.0938 -0.1094 2.0469 Q0.0469 2 0.2188 1.8984 Q0.3906 1.7969 0.6406 1.5703 Q0.8906 1.3438 1.2109 0.9766 Q1.5312 0.6094 1.9219 0.0781 L1.2656 -5.0469 Z" stroke="none"/></g><g text-rendering="optimizeLegibility" transform="translate(161.6882,49.9206)" color-rendering="optimizeQuality" color-interpolation="linearRGB" image-rendering="optimizeQuality"><path d="M6.625 0 L6.7344 -0.4844 Q7.1719 -0.5156 7.4219 -0.7344 Q7.6719 -0.9531 7.7734 -1.3281 Q7.875 -1.7031 7.875 -2.3281 Q7.875 -2.7188 7.8438 -3.1719 L7.7812 -4.4219 L3.4844 -4.4219 L2.9375 -3.4688 Q2.5625 -2.7969 2.3828 -2.3125 Q2.2031 -1.8281 2.2031 -1.4531 Q2.2031 -0.6406 3.1875 -0.4844 L3.0938 0 L-0.9062 0 L-0.7969 -0.4844 Q-0.5 -0.5156 -0.2266 -0.7188 Q0.0469 -0.9219 0.3438 -1.3281 Q0.6406 -1.7344 1.1875 -2.6719 L7.4531 -13.4844 L8.9219 -13.4844 L9.625 -2.5938 Q9.6719 -1.8281 9.8047 -1.3906 Q9.9375 -0.9531 10.1562 -0.7422 Q10.375 -0.5312 10.7969 -0.4844 L10.6875 0 L6.625 0 ZM3.9219 -5.2812 L7.7344 -5.2812 L7.5625 -8.4219 Q7.5469 -9.0625 7.5234 -10.0312 Q7.5 -11 7.5 -11.4219 L7.3906 -11.4219 L3.9219 -5.2812 Z" stroke="none"/></g><g text-rendering="optimizeLegibility" transform="translate(172.532,53.1862)" color-rendering="optimizeQuality" color-interpolation="linearRGB" image-rendering="optimizeQuality"><path d="M5.4531 -1.9219 L5.0312 0 L0.0781 0 L-0.0469 -0.3281 L3.6875 -4.6406 Q4.4844 -5.5469 4.8594 -5.9375 L4.8125 -5.9844 L3.2188 -5.9844 Q2.8594 -5.9844 2.6953 -5.9375 Q2.5312 -5.8906 2.3672 -5.7656 Q2.2031 -5.6406 2.0156 -5.4062 Q1.8281 -5.1719 1.5938 -4.7344 L0.9844 -4.7344 L1.3906 -6.5312 L6.25 -6.5312 L6.375 -6.1875 L1.4688 -0.6094 L1.5156 -0.5469 L3.0625 -0.5469 Q3.4688 -0.5469 3.6875 -0.5938 Q3.9062 -0.6406 4.0703 -0.7656 Q4.2344 -0.8906 4.4062 -1.1406 Q4.5781 -1.3906 4.8438 -1.9219 L5.4531 -1.9219 Z" stroke="none"/></g><g text-rendering="optimizeLegibility" transform="translate(95.1094,78.0144)" color-rendering="optimizeQuality" color-interpolation="linearRGB" image-rendering="optimizeQuality"><path d="M8.7344 -6.8281 Q9.6562 -6.4688 10.1406 -5.7969 Q10.625 -5.125 10.625 -4.2812 Q10.625 -3.2656 10.2578 -2.4766 Q9.8906 -1.6875 9.1016 -1.0859 Q8.3125 -0.4844 7.2891 -0.2422 Q6.2656 0 4.75 0 L0.4062 0 L0.5156 -0.4844 Q0.8906 -0.5312 1.0781 -0.6641 Q1.2656 -0.7969 1.3906 -1.0312 Q1.5156 -1.2656 1.625 -1.6016 Q1.7344 -1.9375 1.9375 -2.9062 L3.6094 -10.4375 Q3.8125 -11.4062 3.8125 -11.9688 Q3.8125 -12.4531 3.5938 -12.6406 Q3.375 -12.8281 2.8594 -12.8594 L2.9688 -13.3281 L7.7969 -13.3281 Q9.2656 -13.3281 10.1484 -13.0234 Q11.0312 -12.7188 11.4453 -12.125 Q11.8594 -11.5312 11.8594 -10.625 Q11.8594 -9.3438 11.0781 -8.3906 Q10.2969 -7.4375 8.7656 -6.9375 L8.7344 -6.8281 ZM6.0469 -7.3594 Q7.0625 -7.3594 7.6797 -7.4922 Q8.2969 -7.625 8.6875 -7.8984 Q9.0781 -8.1719 9.3906 -8.5391 Q9.7031 -8.9062 9.8828 -9.4062 Q10.0625 -9.9062 10.0625 -10.5781 Q10.0625 -11 9.9141 -11.3672 Q9.7656 -11.7344 9.4062 -11.9922 Q9.0469 -12.25 8.5859 -12.3594 Q8.125 -12.4688 7.3594 -12.4688 Q6.5 -12.4688 5.7656 -12.4375 L4.6719 -7.3594 L6.0469 -7.3594 ZM3.25 -0.9062 Q4.0156 -0.8594 4.6719 -0.8594 Q6.1562 -0.8594 6.9609 -1.2344 Q7.7656 -1.6094 8.2656 -2.4453 Q8.7656 -3.2812 8.7656 -4.4531 Q8.7656 -5.0938 8.5156 -5.5312 Q8.2656 -5.9688 7.7188 -6.2344 Q7.1719 -6.5 6.2344 -6.5 L4.4688 -6.5 L3.25 -0.9062 Z" stroke="none"/></g><g text-rendering="optimizeLegibility" transform="translate(107.25,81.28)" color-rendering="optimizeQuality" color-interpolation="linearRGB" image-rendering="optimizeQuality"><path d="M6.4688 -6.2031 Q5.1406 -4.7812 3.6875 -3.4062 L4.3281 -1.9062 Q4.5781 -1.3125 4.7266 -1.0234 Q4.875 -0.7344 5 -0.6094 Q5.125 -0.4844 5.25 -0.4297 Q5.375 -0.375 5.6406 -0.3281 L5.5625 0 L3.8594 0 L2.9062 -2.75 Q2.75 -2.6094 2.4766 -2.3516 Q2.2031 -2.0938 1.9531 -1.8047 Q1.7031 -1.5156 1.6016 -1.3359 Q1.5 -1.1562 1.4688 -1.0234 Q1.4375 -0.8906 1.4375 -0.7656 Q1.4375 -0.5781 1.5391 -0.4766 Q1.6406 -0.375 1.875 -0.3281 L1.7969 0 L-0.1562 0 L-0.2812 -0.3281 Q1.2188 -1.9375 2.6719 -3.2969 L2.0156 -4.8125 Q1.8125 -5.2812 1.6953 -5.5234 Q1.5781 -5.7656 1.4609 -5.8984 Q1.3438 -6.0312 1.1953 -6.1094 Q1.0469 -6.1875 0.7812 -6.2031 L0.8594 -6.5312 L2.5625 -6.5312 L3.4688 -3.9531 Q3.7969 -4.2656 4.1016 -4.5938 Q4.4062 -4.9219 4.5312 -5.1172 Q4.6562 -5.3125 4.7031 -5.4609 Q4.75 -5.6094 4.75 -5.7656 Q4.75 -6.1406 4.3125 -6.2031 L4.375 -6.5312 L6.3281 -6.5312 L6.4688 -6.2031 Z" stroke="none"/></g><g text-rendering="optimizeLegibility" transform="translate(127.141,78.0144)" color-rendering="optimizeQuality" color-interpolation="linearRGB" image-rendering="optimizeQuality"><path d="M8.7344 -6.8281 Q9.6562 -6.4688 10.1406 -5.7969 Q10.625 -5.125 10.625 -4.2812 Q10.625 -3.2656 10.2578 -2.4766 Q9.8906 -1.6875 9.1016 -1.0859 Q8.3125 -0.4844 7.2891 -0.2422 Q6.2656 0 4.75 0 L0.4062 0 L0.5156 -0.4844 Q0.8906 -0.5312 1.0781 -0.6641 Q1.2656 -0.7969 1.3906 -1.0312 Q1.5156 -1.2656 1.625 -1.6016 Q1.7344 -1.9375 1.9375 -2.9062 L3.6094 -10.4375 Q3.8125 -11.4062 3.8125 -11.9688 Q3.8125 -12.4531 3.5938 -12.6406 Q3.375 -12.8281 2.8594 -12.8594 L2.9688 -13.3281 L7.7969 -13.3281 Q9.2656 -13.3281 10.1484 -13.0234 Q11.0312 -12.7188 11.4453 -12.125 Q11.8594 -11.5312 11.8594 -10.625 Q11.8594 -9.3438 11.0781 -8.3906 Q10.2969 -7.4375 8.7656 -6.9375 L8.7344 -6.8281 ZM6.0469 -7.3594 Q7.0625 -7.3594 7.6797 -7.4922 Q8.2969 -7.625 8.6875 -7.8984 Q9.0781 -8.1719 9.3906 -8.5391 Q9.7031 -8.9062 9.8828 -9.4062 Q10.0625 -9.9062 10.0625 -10.5781 Q10.0625 -11 9.9141 -11.3672 Q9.7656 -11.7344 9.4062 -11.9922 Q9.0469 -12.25 8.5859 -12.3594 Q8.125 -12.4688 7.3594 -12.4688 Q6.5 -12.4688 5.7656 -12.4375 L4.6719 -7.3594 L6.0469 -7.3594 ZM3.25 -0.9062 Q4.0156 -0.8594 4.6719 -0.8594 Q6.1562 -0.8594 6.9609 -1.2344 Q7.7656 -1.6094 8.2656 -2.4453 Q8.7656 -3.2812 8.7656 -4.4531 Q8.7656 -5.0938 8.5156 -5.5312 Q8.2656 -5.9688 7.7188 -6.2344 Q7.1719 -6.5 6.2344 -6.5 L4.4688 -6.5 L3.25 -0.9062 Z" stroke="none"/></g><g text-rendering="optimizeLegibility" transform="translate(140.7191,79.78)" color-rendering="optimizeQuality" color-interpolation="linearRGB" image-rendering="optimizeQuality"><path d="M1.2656 -5.0469 Q1.2031 -5.5625 1.1406 -5.7656 Q1.0781 -5.9688 0.9375 -6.0781 Q0.7969 -6.1875 0.5 -6.2031 L0.5625 -6.5312 L2.3281 -6.5312 L2.8438 -1.0938 Q5.1562 -4.2656 5.1562 -5.625 Q5.1562 -5.9531 5.0156 -6.0703 Q4.875 -6.1875 4.5469 -6.2031 L4.625 -6.5312 L6.3906 -6.5312 L6.5625 -6.1875 Q6.2031 -5.25 5.6406 -4.2266 Q5.0781 -3.2031 4.2656 -1.9922 Q3.4531 -0.7812 2.4531 0.5156 Q1.6875 1.5312 1.1562 2.0312 Q0.7656 2.4219 0.4219 2.625 Q0.0781 2.8281 -0.2344 2.9141 Q-0.5469 3 -0.9062 3 Q-1.0938 3 -1.3281 2.9609 Q-1.5625 2.9219 -1.7188 2.8594 L-1.4219 1.5938 L-0.8906 1.5938 Q-0.8906 1.8125 -0.7891 1.9531 Q-0.6875 2.0938 -0.4844 2.0938 Q-0.2656 2.0938 -0.1094 2.0469 Q0.0469 2 0.2188 1.8984 Q0.3906 1.7969 0.6406 1.5703 Q0.8906 1.3438 1.2109 0.9766 Q1.5312 0.6094 1.9219 0.0781 L1.2656 -5.0469 Z" stroke="none"/></g><g text-rendering="optimizeLegibility" transform="translate(160.7038,78.0144)" color-rendering="optimizeQuality" color-interpolation="linearRGB" image-rendering="optimizeQuality"><path d="M8.7344 -6.8281 Q9.6562 -6.4688 10.1406 -5.7969 Q10.625 -5.125 10.625 -4.2812 Q10.625 -3.2656 10.2578 -2.4766 Q9.8906 -1.6875 9.1016 -1.0859 Q8.3125 -0.4844 7.2891 -0.2422 Q6.2656 0 4.75 0 L0.4062 0 L0.5156 -0.4844 Q0.8906 -0.5312 1.0781 -0.6641 Q1.2656 -0.7969 1.3906 -1.0312 Q1.5156 -1.2656 1.625 -1.6016 Q1.7344 -1.9375 1.9375 -2.9062 L3.6094 -10.4375 Q3.8125 -11.4062 3.8125 -11.9688 Q3.8125 -12.4531 3.5938 -12.6406 Q3.375 -12.8281 2.8594 -12.8594 L2.9688 -13.3281 L7.7969 -13.3281 Q9.2656 -13.3281 10.1484 -13.0234 Q11.0312 -12.7188 11.4453 -12.125 Q11.8594 -11.5312 11.8594 -10.625 Q11.8594 -9.3438 11.0781 -8.3906 Q10.2969 -7.4375 8.7656 -6.9375 L8.7344 -6.8281 ZM6.0469 -7.3594 Q7.0625 -7.3594 7.6797 -7.4922 Q8.2969 -7.625 8.6875 -7.8984 Q9.0781 -8.1719 9.3906 -8.5391 Q9.7031 -8.9062 9.8828 -9.4062 Q10.0625 -9.9062 10.0625 -10.5781 Q10.0625 -11 9.9141 -11.3672 Q9.7656 -11.7344 9.4062 -11.9922 Q9.0469 -12.25 8.5859 -12.3594 Q8.125 -12.4688 7.3594 -12.4688 Q6.5 -12.4688 5.7656 -12.4375 L4.6719 -7.3594 L6.0469 -7.3594 ZM3.25 -0.9062 Q4.0156 -0.8594 4.6719 -0.8594 Q6.1562 -0.8594 6.9609 -1.2344 Q7.7656 -1.6094 8.2656 -2.4453 Q8.7656 -3.2812 8.7656 -4.4531 Q8.7656 -5.0938 8.5156 -5.5312 Q8.2656 -5.9688 7.7188 -6.2344 Q7.1719 -6.5 6.2344 -6.5 L4.4688 -6.5 L3.25 -0.9062 Z" stroke="none"/></g><g text-rendering="optimizeLegibility" transform="translate(172.6101,81.28)" color-rendering="optimizeQuality" color-interpolation="linearRGB" image-rendering="optimizeQuality"><path d="M5.4531 -1.9219 L5.0312 0 L0.0781 0 L-0.0469 -0.3281 L3.6875 -4.6406 Q4.4844 -5.5469 4.8594 -5.9375 L4.8125 -5.9844 L3.2188 -5.9844 Q2.8594 -5.9844 2.6953 -5.9375 Q2.5312 -5.8906 2.3672 -5.7656 Q2.2031 -5.6406 2.0156 -5.4062 Q1.8281 -5.1719 1.5938 -4.7344 L0.9844 -4.7344 L1.3906 -6.5312 L6.25 -6.5312 L6.375 -6.1875 L1.4688 -0.6094 L1.5156 -0.5469 L3.0625 -0.5469 Q3.4688 -0.5469 3.6875 -0.5938 Q3.9062 -0.6406 4.0703 -0.7656 Q4.2344 -0.8906 4.4062 -1.1406 Q4.5781 -1.3906 4.8438 -1.9219 L5.4531 -1.9219 Z" stroke="none"/></g><g text-rendering="optimizeLegibility" transform="translate(178.5788,63.8135) matrix(1,0,0,4.5125,0,0)" color-rendering="optimizeQuality" color-interpolation="linearRGB" image-rendering="optimizeQuality"><path d="M3.9219 4.2031 L2.4062 4.2031 L2.4062 -13.9688 L3.9219 -13.9688 L3.9219 4.2031 Z" stroke="none"/></g></g></svg>