<?xml version="1.0" encoding="UTF-8" standalone="no"?><svg xmlns="http://www.w3.org/2000/svg" xmlns:xlink="http://www.w3.org/1999/xlink" stroke-dasharray="none" shape-rendering="auto" font-family="'Dialog'" width="70.812600" text-rendering="auto" fill-opacity="1" contentScriptType="text/ecmascript" color-interpolation="auto" color-rendering="auto" preserveAspectRatio="xMidYMid meet" font-size="12" fill="black" stroke="black" image-rendering="auto" stroke-miterlimit="10" zoomAndPan="magnify" version="1.0" stroke-linecap="square" stroke-linejoin="miter" contentStyleType="text/css" font-style="normal" height="19" stroke-width="1" stroke-dashoffset="0" font-weight="normal" stroke-opacity="1" y="-5.000000"><!--Converted from MathML using JEuclid--><defs id="genericDefs"/><g><g text-rendering="optimizeLegibility" transform="translate(0.6406,14)" color-rendering="optimizeQuality" color-interpolation="linearRGB" image-rendering="optimizeQuality"><path d="M6.25 -13.3281 L6.1406 -12.8594 Q5.7188 -12.7812 5.4688 -12.5625 Q5.2188 -12.3438 5.2188 -11.9219 Q5.2188 -11.2969 5.5469 -10.3594 L6.3594 -7.9844 L8.4531 -10.6406 Q8.5938 -10.8281 8.7344 -11.0234 Q8.875 -11.2188 8.9922 -11.4141 Q9.1094 -11.6094 9.1562 -11.7422 Q9.2031 -11.875 9.2344 -11.9844 Q9.2656 -12.0938 9.2656 -12.1875 Q9.2656 -12.4531 9.1094 -12.6406 Q8.9531 -12.8281 8.5625 -12.8594 L8.6719 -13.3281 L12.3125 -13.3281 L12.2031 -12.8594 Q11.9219 -12.7656 11.6562 -12.5703 Q11.3906 -12.375 11.0391 -11.9844 Q10.6875 -11.5938 9.7188 -10.4375 L6.8125 -6.9688 L8.2344 -3 Q8.5625 -2.0938 8.75 -1.6406 Q8.9688 -1.1562 9.125 -0.9219 Q9.25 -0.7656 9.3906 -0.6719 Q9.5156 -0.5781 9.8438 -0.4844 L9.75 0 L5.7969 0 L5.9062 -0.4844 Q6.3438 -0.5469 6.5859 -0.7891 Q6.8281 -1.0312 6.8281 -1.4062 Q6.8281 -1.9844 6.5938 -2.6875 L5.5781 -5.6719 L3.3438 -2.875 Q2.8594 -2.25 2.6328 -1.8594 Q2.4062 -1.4688 2.4062 -1.1875 Q2.4062 -0.9531 2.4688 -0.8125 Q2.5312 -0.6719 2.6797 -0.5938 Q2.8281 -0.5156 3.0938 -0.4844 L2.9844 0 L-0.6406 0 L-0.5469 -0.4844 Q-0.3594 -0.5469 -0.2031 -0.6328 Q-0.0469 -0.7188 0.1328 -0.8672 Q0.3125 -1.0156 0.6172 -1.3594 Q0.9219 -1.7031 1.3125 -2.1562 L5.125 -6.6875 L3.6875 -10.7031 Q3.4688 -11.2969 3.3047 -11.6953 Q3.1406 -12.0938 2.9766 -12.3281 Q2.8125 -12.5625 2.6406 -12.6797 Q2.4688 -12.7969 2.2031 -12.8594 L2.3125 -13.3281 L6.25 -13.3281 Z" stroke="none"/></g><g text-rendering="optimizeLegibility" transform="translate(13.5312,14)" color-rendering="optimizeQuality" color-interpolation="linearRGB" image-rendering="optimizeQuality"><path d="M11.0312 -6.4844 L11.0312 -5.125 L2.9531 -5.125 Q3.0156 -4.2188 3.2266 -3.5156 Q3.4375 -2.8125 3.875 -2.3203 Q4.3125 -1.8281 5 -1.5938 Q5.6875 -1.3594 6.8906 -1.3594 L11.0312 -1.3594 L11.0312 0 L6.8594 0 Q5.9062 0 5.2031 -0.1172 Q4.5 -0.2344 3.9297 -0.5 Q3.3594 -0.7656 2.8594 -1.2969 Q2.3594 -1.8281 2.0469 -2.4688 Q1.7344 -3.1094 1.5781 -3.9219 Q1.4219 -4.7344 1.4219 -5.6875 Q1.4219 -7.2344 1.7188 -8.2422 Q2.0156 -9.25 2.7344 -10.0391 Q3.4531 -10.8281 4.4453 -11.1641 Q5.4375 -11.5 7.0156 -11.5 L11.0312 -11.5 L11.0312 -10.1406 L7.0156 -10.1406 Q6.0469 -10.1406 5.4453 -10.0391 Q4.8438 -9.9375 4.4453 -9.6953 Q4.0469 -9.4531 3.7188 -9.0156 Q3.3906 -8.5781 3.2031 -7.9375 Q3.0156 -7.2969 2.9688 -6.4844 L11.0312 -6.4844 Z" stroke="none"/></g><g text-rendering="optimizeLegibility" transform="translate(26.3281,14)" color-rendering="optimizeQuality" color-interpolation="linearRGB" image-rendering="optimizeQuality"><path d="M6.5781 4.2031 L2.2344 4.2031 L2.2344 -13.9688 L6.5781 -13.9688 L6.5781 -13.1719 L3.9531 -13.1719 L3.9531 3.4062 L6.5781 3.4062 L6.5781 4.2031 Z" stroke="none"/></g><g text-rendering="optimizeLegibility" transform="translate(34.9062,14)" color-rendering="optimizeQuality" color-interpolation="linearRGB" image-rendering="optimizeQuality"><path d="M5.4375 0.1562 Q3.3281 0.1562 2.2969 -1.5078 Q1.2656 -3.1719 1.2656 -6.5469 Q1.2656 -8.3438 1.5781 -9.6484 Q1.8906 -10.9531 2.4609 -11.8125 Q3.0312 -12.6719 3.8359 -13.0781 Q4.6406 -13.4844 5.5938 -13.4844 Q7.7188 -13.4844 8.7656 -11.8359 Q9.8125 -10.1875 9.8125 -6.8438 Q9.8125 -3.3906 8.6953 -1.6172 Q7.5781 0.1562 5.4375 0.1562 ZM3.1719 -6.8438 Q3.1719 -3.6562 3.7578 -2.1641 Q4.3438 -0.6719 5.5938 -0.6719 Q6.7656 -0.6719 7.3359 -2.0781 Q7.9062 -3.4844 7.9062 -6.4219 Q7.9062 -8.6562 7.6172 -10.0547 Q7.3281 -11.4531 6.8047 -12.0547 Q6.2812 -12.6562 5.5312 -12.6562 Q4.8594 -12.6562 4.4062 -12.2578 Q3.9531 -11.8594 3.6797 -11.1094 Q3.4062 -10.3594 3.2891 -9.2734 Q3.1719 -8.1875 3.1719 -6.8438 Z" stroke="none"/></g><g text-rendering="optimizeLegibility" transform="translate(46.4844,14)" color-rendering="optimizeQuality" color-interpolation="linearRGB" image-rendering="optimizeQuality"><path d="M3.0156 -2.2656 Q3.1562 -1.5781 3.1562 -0.9219 Q3.1562 -0.2344 2.9219 0.3359 Q2.6875 0.9062 2.1719 1.4609 Q1.6562 2.0156 0.7656 2.7031 L0.2344 2.0938 Q0.7344 1.625 0.9609 1.25 Q1.1875 0.875 1.2812 0.3984 Q1.375 -0.0781 1.375 -0.7969 Q1.375 -1.5469 1.3125 -2.2656 L3.0156 -2.2656 Z" stroke="none"/></g><g text-rendering="optimizeLegibility" transform="translate(51.6406,14)" color-rendering="optimizeQuality" color-interpolation="linearRGB" image-rendering="optimizeQuality"><path d="M6.7812 -2.5469 Q6.7812 -1.9844 6.8516 -1.6953 Q6.9219 -1.4062 7.0781 -1.2266 Q7.2344 -1.0469 7.5391 -0.9453 Q7.8438 -0.8438 8.3047 -0.7891 Q8.7656 -0.7344 9.5156 -0.7188 L9.5156 0 L2.2969 0 L2.2969 -0.7188 Q3.375 -0.7656 3.8438 -0.8438 Q4.3125 -0.9219 4.5547 -1.0938 Q4.7969 -1.2656 4.9062 -1.5625 Q5.0156 -1.8594 5.0156 -2.5469 L5.0156 -10.4688 Q5.0156 -10.8594 4.8828 -11.0391 Q4.75 -11.2188 4.4844 -11.2188 Q4.1719 -11.2188 3.5938 -10.8984 Q3.0156 -10.5781 2.1719 -10.0156 L1.7344 -10.7656 L6.3125 -13.4844 L6.8438 -13.4844 Q6.7812 -12.5469 6.7812 -10.8906 L6.7812 -2.5469 Z" stroke="none"/></g><g text-rendering="optimizeLegibility" transform="translate(62.7344,14)" color-rendering="optimizeQuality" color-interpolation="linearRGB" image-rendering="optimizeQuality"><path d="M4.7812 4.2031 L0.4219 4.2031 L0.4219 3.4062 L3.0625 3.4062 L3.0625 -13.1719 L0.4219 -13.1719 L0.4219 -13.9688 L4.7812 -13.9688 L4.7812 4.2031 Z" stroke="none"/></g></g></svg>