<?xml version="1.0" encoding="UTF-8" standalone="no"?><svg xmlns="http://www.w3.org/2000/svg" xmlns:xlink="http://www.w3.org/1999/xlink" stroke-dasharray="none" shape-rendering="auto" font-family="'Dialog'" width="166.812600" text-rendering="auto" fill-opacity="1" contentScriptType="text/ecmascript" color-interpolation="auto" color-rendering="auto" preserveAspectRatio="xMidYMid meet" font-size="12" fill="black" stroke="black" image-rendering="auto" stroke-miterlimit="10" zoomAndPan="magnify" version="1.0" stroke-linecap="square" stroke-linejoin="miter" contentStyleType="text/css" font-style="normal" height="48" stroke-width="1" stroke-dashoffset="0" font-weight="normal" stroke-opacity="1" y="-10.000000"><!--Converted from MathML using JEuclid--><defs id="genericDefs"/><g><g text-rendering="optimizeLegibility" transform="translate(0,38)" color-rendering="optimizeQuality" color-interpolation="linearRGB" image-rendering="optimizeQuality"><path d="M9.125 -9.3438 L9.3906 -8.8438 Q9.0312 -7.9844 8.8359 -7.5625 Q8.6406 -7.1406 8.3125 -6.5078 Q7.9844 -5.875 7.5781 -5.1875 Q7.1719 -4.5 6.6562 -3.7031 Q6.1406 -2.9062 5.4844 -1.9609 Q4.8281 -1.0156 3.9375 0.1562 L2.7188 0.1562 L1.8125 -7.2188 Q1.7188 -7.9375 1.6172 -8.2422 Q1.5156 -8.5469 1.3203 -8.6875 Q1.125 -8.8281 0.7031 -8.8594 L0.8125 -9.3438 L3.3281 -9.3438 L4.0625 -1.5781 Q5.75 -3.8906 6.5547 -5.4688 Q7.3594 -7.0469 7.3594 -8.0312 Q7.3594 -8.5 7.1641 -8.6641 Q6.9688 -8.8281 6.5 -8.8594 L6.6094 -9.3438 L9.125 -9.3438 Z" stroke="none"/></g><g text-rendering="optimizeLegibility" transform="translate(-1.5175,27.6562) matrix(1.4075,0,0,1,0,0)" color-rendering="optimizeQuality" color-interpolation="linearRGB" image-rendering="optimizeQuality"><path d="M5.6406 -4.6094 L3.875 -8.5 L2.1094 -4.6094 L1.0781 -4.6094 L3.3906 -9.4375 L4.375 -9.4375 L6.6719 -4.6094 L5.6406 -4.6094 Z" stroke="none"/></g><g text-rendering="optimizeLegibility" transform="translate(9.625,36.9124) matrix(1,0,0,1.2559,0,0)" color-rendering="optimizeQuality" color-interpolation="linearRGB" image-rendering="optimizeQuality"><path d="M7.2188 4.25 Q5.5625 4.25 4.5078 3.75 Q3.4531 3.25 2.8672 2.2344 Q2.2812 1.2188 2.0234 -0.4141 Q1.7656 -2.0469 1.7656 -4.8438 Q1.7656 -7.625 2.0234 -9.2656 Q2.2812 -10.9062 2.8672 -11.9453 Q3.4531 -12.9844 4.5078 -13.5 Q5.5625 -14.0156 7.2188 -14.0156 L7.2188 -13.2188 Q6.5312 -13.2188 6 -13.0938 Q5.4062 -12.9531 4.9844 -12.5625 Q4.5156 -12.1406 4.2344 -11.375 Q3.8906 -10.4688 3.7188 -8.9844 Q3.5469 -7.4062 3.5469 -4.9219 Q3.5469 -2.7188 3.6953 -1.1797 Q3.8438 0.3594 4.1875 1.3281 Q4.4531 2.1562 4.8594 2.6094 Q5.2188 3.0156 5.7188 3.2188 Q6.2969 3.4531 7.2188 3.4531 L7.2188 4.25 Z" stroke="none"/></g><g text-rendering="optimizeLegibility" transform="translate(20.4844,38)" color-rendering="optimizeQuality" color-interpolation="linearRGB" image-rendering="optimizeQuality"><path d="M9.9062 -8.875 Q8.9688 -7.9844 7.7656 -6.4219 L4.9062 -2.7656 Q5.2188 0.4844 5.6016 1.5703 Q5.9844 2.6562 6.6562 2.6562 Q6.9844 2.6562 7.3906 2.2188 L7.7656 2.6719 Q6.8594 3.8594 5.9062 3.8594 Q5.1719 3.8594 4.6797 3.0156 Q4.1875 2.1719 3.9844 -1.625 L1.8594 1.1875 Q1.5156 1.625 0.6719 3.0938 L0.2969 3.7031 L-1.6406 3.7031 L-1.5469 3.2188 Q-0.875 2.5938 0.4219 0.9062 L3.7969 -3.5 Q3.5156 -5.875 3.1484 -7.0781 Q2.7812 -8.2812 2.0625 -8.2812 Q1.6094 -8.2812 1.3125 -8.0312 L1.0156 -8.5781 Q1.8594 -9.5 2.7812 -9.5 Q4.3906 -9.5 4.625 -6.1562 Q4.6562 -5.4844 4.7344 -4.6562 L6.5469 -7.0156 Q7.1406 -7.7969 8.0625 -9.3438 L10 -9.3438 L9.9062 -8.875 Z" stroke="none"/></g><g text-rendering="optimizeLegibility" transform="translate(32.25,38)" color-rendering="optimizeQuality" color-interpolation="linearRGB" image-rendering="optimizeQuality"><path d="M3.0156 -2.2656 Q3.1562 -1.5781 3.1562 -0.9219 Q3.1562 -0.2344 2.9219 0.3359 Q2.6875 0.9062 2.1719 1.4609 Q1.6562 2.0156 0.7656 2.7031 L0.2344 2.0938 Q0.7344 1.625 0.9609 1.25 Q1.1875 0.875 1.2812 0.3984 Q1.375 -0.0781 1.375 -0.7969 Q1.375 -1.5469 1.3125 -2.2656 L3.0156 -2.2656 Z" stroke="none"/></g><g text-rendering="optimizeLegibility" transform="translate(37.4062,38)" color-rendering="optimizeQuality" color-interpolation="linearRGB" image-rendering="optimizeQuality"><path d="M6.5938 -1.7969 Q5.7969 -0.8281 5.0156 -0.3359 Q4.2344 0.1562 3.3438 0.1562 Q2.3125 0.1562 1.8047 -0.375 Q1.2969 -0.9062 1.2969 -1.9062 Q1.2969 -2.5156 1.4688 -3.2812 L2.6875 -8.3438 L1.2344 -8.3438 L1.3438 -8.8438 Q1.9219 -8.9219 2.2578 -9.1016 Q2.5938 -9.2812 2.8203 -9.5781 Q3.0469 -9.875 3.2422 -10.3516 Q3.4375 -10.8281 3.7344 -11.75 L5.0781 -11.75 L4.5469 -9.3438 L7.6406 -9.3438 L7.4219 -8.3438 L4.3125 -8.3438 L3.375 -4.5625 Q2.9844 -2.9844 2.9844 -2.2031 Q2.9844 -1.6094 3.2422 -1.2969 Q3.5 -0.9844 4 -0.9844 Q4.4531 -0.9844 4.9453 -1.3359 Q5.4375 -1.6875 6.0312 -2.3906 L6.5938 -1.7969 Z" stroke="none"/></g><g text-rendering="optimizeLegibility" transform="translate(46.625,36.9124) matrix(1,0,0,1.2559,0,0)" color-rendering="optimizeQuality" color-interpolation="linearRGB" image-rendering="optimizeQuality"><path d="M0.4219 -14.0156 Q2.0781 -14.0156 3.1328 -13.5156 Q4.1875 -13.0156 4.7734 -12 Q5.3594 -10.9844 5.6172 -9.3516 Q5.875 -7.7188 5.875 -4.9219 Q5.875 -2.1562 5.6172 -0.5078 Q5.3594 1.1406 4.7734 2.1797 Q4.1875 3.2188 3.1328 3.7344 Q2.0781 4.25 0.4219 4.25 L0.4219 3.4531 Q1.1094 3.4531 1.625 3.3281 Q2.2344 3.1875 2.6406 2.7969 Q3.1094 2.375 3.4062 1.6094 Q3.75 0.7031 3.9219 -0.7812 Q4.0938 -2.3594 4.0938 -4.8438 Q4.0938 -7.0469 3.9453 -8.5859 Q3.7969 -10.125 3.4531 -11.0938 Q3.1875 -11.9219 2.7812 -12.375 Q2.4062 -12.7812 1.9219 -12.9844 Q1.3438 -13.2188 0.4219 -13.2188 L0.4219 -14.0156 Z" stroke="none"/></g><g text-rendering="optimizeLegibility" transform="translate(55.2812,38)" color-rendering="optimizeQuality" color-interpolation="linearRGB" image-rendering="optimizeQuality"><path d="M1.2188 -7.0625 L1.2188 -8.4219 L9.8594 -8.4219 L9.8594 -7.0625 L1.2188 -7.0625 ZM1.2188 -3.0156 L1.2188 -4.3594 L9.8594 -4.3594 L9.8594 -3.0156 L1.2188 -3.0156 Z" stroke="none"/></g><g text-rendering="optimizeLegibility" stroke-width="1.6667" color-interpolation="linearRGB" color-rendering="optimizeQuality" image-rendering="optimizeQuality"><line y2="30.78" fill="none" x1="68.8184" x2="139.3184" y1="30.78"/><path d="M8.0938 -8.5469 L8.1094 -8.7969 Q8.1406 -9.2656 8.1406 -9.5938 Q8.1406 -10.4062 8.0469 -11.0469 Q7.9531 -11.6875 7.7188 -12.1562 Q7.4844 -12.625 7.1016 -12.8672 Q6.7188 -13.1094 6.1406 -13.1094 Q5.4219 -13.1094 4.8125 -12.7734 Q4.2031 -12.4375 3.6094 -11.7344 L2.9062 -11.7344 L2.9062 -12.5469 Q3.8438 -13.2031 4.3516 -13.4844 Q4.8594 -13.7656 5.375 -13.8984 Q5.8906 -14.0312 6.5 -14.0312 Q8.125 -14.0312 8.9375 -12.9219 Q9.75 -11.8125 9.75 -9.5781 Q9.75 -8.6875 9.5938 -7.4609 Q9.4375 -6.2344 9.0625 -4.9062 Q8.6875 -3.5781 8.2031 -2.6484 Q7.7188 -1.7188 7.125 -1.1172 Q6.5312 -0.5156 5.75 -0.1797 Q4.9688 0.1562 4 0.1562 Q3.0156 0.1562 2.2891 -0.25 Q1.5625 -0.6562 1.1953 -1.4219 Q0.8281 -2.1875 0.8281 -3.2969 Q0.8281 -4.3906 1.1641 -5.4688 Q1.5 -6.5469 2.1641 -7.4375 Q2.8281 -8.3281 3.7422 -8.8359 Q4.6562 -9.3438 5.6875 -9.3438 Q6.3906 -9.3438 6.9219 -9.1797 Q7.4531 -9.0156 8.0938 -8.5469 ZM7.625 -6.6719 Q7.625 -7.6719 7.2188 -8.1172 Q6.8125 -8.5625 5.9844 -8.5625 Q5.3906 -8.5625 4.8516 -8.2578 Q4.3125 -7.9531 3.8828 -7.375 Q3.4531 -6.7969 3.1641 -6.0391 Q2.875 -5.2812 2.7109 -4.4922 Q2.5469 -3.7031 2.5469 -2.8594 Q2.5469 -1.9688 2.7422 -1.4766 Q2.9375 -0.9844 3.25 -0.7969 Q3.5625 -0.6094 4.0312 -0.6094 Q5.0781 -0.6094 5.8281 -1.4609 Q6.5781 -2.3125 7.1016 -4 Q7.625 -5.6875 7.625 -6.6719 Z" stroke-width="1" transform="translate(69.9903,24.0189)" stroke="none"/></g><g text-rendering="optimizeLegibility" transform="translate(81.7403,24.0189)" color-rendering="optimizeQuality" color-interpolation="linearRGB" image-rendering="optimizeQuality"><path d="M6.3125 0.125 L5.4219 4.2188 L3.875 4.2188 L4.7812 0.125 Q2.8594 -0.0156 1.8438 -1.0312 Q0.8281 -2.0469 0.8281 -3.7812 Q0.8281 -6.2344 2.5938 -7.875 Q4.3594 -9.5156 6.9219 -9.5156 L7.8281 -13.5312 L9.3438 -13.5312 L8.4531 -9.5156 Q10.2812 -9.4062 11.375 -8.2969 Q12.4688 -7.1875 12.4688 -5.5 Q12.4688 -3.1562 10.8828 -1.5156 Q9.2969 0.125 6.3125 0.125 ZM8.2812 -8.7188 L6.5 -0.6719 Q8.4531 -0.7344 9.6172 -2.125 Q10.7812 -3.5156 10.7812 -5.6875 Q10.7812 -6.9688 10.0781 -7.8125 Q9.375 -8.6562 8.2812 -8.7188 ZM6.7344 -8.7188 Q5 -8.6562 3.7422 -7.2266 Q2.4844 -5.7969 2.4844 -3.7656 Q2.4844 -2.5 3.1562 -1.6328 Q3.8281 -0.7656 4.9688 -0.6719 L6.7344 -8.7188 Z" stroke="none"/></g><g text-rendering="optimizeLegibility" transform="translate(79.7254,9.4876) matrix(1.8689,0,0,1,0,0)" color-rendering="optimizeQuality" color-interpolation="linearRGB" image-rendering="optimizeQuality"><path d="M5.6406 -4.6094 L3.875 -8.5 L2.1094 -4.6094 L1.0781 -4.6094 L3.3906 -9.4375 L4.375 -9.4375 L6.6719 -4.6094 L5.6406 -4.6094 Z" stroke="none"/></g><g text-rendering="optimizeLegibility" transform="translate(94.4434,22.9313) matrix(1,0,0,1.2559,0,0)" color-rendering="optimizeQuality" color-interpolation="linearRGB" image-rendering="optimizeQuality"><path d="M7.2188 4.25 Q5.5625 4.25 4.5078 3.75 Q3.4531 3.25 2.8672 2.2344 Q2.2812 1.2188 2.0234 -0.4141 Q1.7656 -2.0469 1.7656 -4.8438 Q1.7656 -7.625 2.0234 -9.2656 Q2.2812 -10.9062 2.8672 -11.9453 Q3.4531 -12.9844 4.5078 -13.5 Q5.5625 -14.0156 7.2188 -14.0156 L7.2188 -13.2188 Q6.5312 -13.2188 6 -13.0938 Q5.4062 -12.9531 4.9844 -12.5625 Q4.5156 -12.1406 4.2344 -11.375 Q3.8906 -10.4688 3.7188 -8.9844 Q3.5469 -7.4062 3.5469 -4.9219 Q3.5469 -2.7188 3.6953 -1.1797 Q3.8438 0.3594 4.1875 1.3281 Q4.4531 2.1562 4.8594 2.6094 Q5.2188 3.0156 5.7188 3.2188 Q6.2969 3.4531 7.2188 3.4531 L7.2188 4.25 Z" stroke="none"/></g><g text-rendering="optimizeLegibility" transform="translate(105.3028,24.0189)" color-rendering="optimizeQuality" color-interpolation="linearRGB" image-rendering="optimizeQuality"><path d="M9.9062 -8.875 Q8.9688 -7.9844 7.7656 -6.4219 L4.9062 -2.7656 Q5.2188 0.4844 5.6016 1.5703 Q5.9844 2.6562 6.6562 2.6562 Q6.9844 2.6562 7.3906 2.2188 L7.7656 2.6719 Q6.8594 3.8594 5.9062 3.8594 Q5.1719 3.8594 4.6797 3.0156 Q4.1875 2.1719 3.9844 -1.625 L1.8594 1.1875 Q1.5156 1.625 0.6719 3.0938 L0.2969 3.7031 L-1.6406 3.7031 L-1.5469 3.2188 Q-0.875 2.5938 0.4219 0.9062 L3.7969 -3.5 Q3.5156 -5.875 3.1484 -7.0781 Q2.7812 -8.2812 2.0625 -8.2812 Q1.6094 -8.2812 1.3125 -8.0312 L1.0156 -8.5781 Q1.8594 -9.5 2.7812 -9.5 Q4.3906 -9.5 4.625 -6.1562 Q4.6562 -5.4844 4.7344 -4.6562 L6.5469 -7.0156 Q7.1406 -7.7969 8.0625 -9.3438 L10 -9.3438 L9.9062 -8.875 Z" stroke="none"/></g><g text-rendering="optimizeLegibility" transform="translate(117.0684,24.0189)" color-rendering="optimizeQuality" color-interpolation="linearRGB" image-rendering="optimizeQuality"><path d="M3.0156 -2.2656 Q3.1562 -1.5781 3.1562 -0.9219 Q3.1562 -0.2344 2.9219 0.3359 Q2.6875 0.9062 2.1719 1.4609 Q1.6562 2.0156 0.7656 2.7031 L0.2344 2.0938 Q0.7344 1.625 0.9609 1.25 Q1.1875 0.875 1.2812 0.3984 Q1.375 -0.0781 1.375 -0.7969 Q1.375 -1.5469 1.3125 -2.2656 L3.0156 -2.2656 Z" stroke="none"/></g><g text-rendering="optimizeLegibility" transform="translate(122.2247,24.0189)" color-rendering="optimizeQuality" color-interpolation="linearRGB" image-rendering="optimizeQuality"><path d="M6.5938 -1.7969 Q5.7969 -0.8281 5.0156 -0.3359 Q4.2344 0.1562 3.3438 0.1562 Q2.3125 0.1562 1.8047 -0.375 Q1.2969 -0.9062 1.2969 -1.9062 Q1.2969 -2.5156 1.4688 -3.2812 L2.6875 -8.3438 L1.2344 -8.3438 L1.3438 -8.8438 Q1.9219 -8.9219 2.2578 -9.1016 Q2.5938 -9.2812 2.8203 -9.5781 Q3.0469 -9.875 3.2422 -10.3516 Q3.4375 -10.8281 3.7344 -11.75 L5.0781 -11.75 L4.5469 -9.3438 L7.6406 -9.3438 L7.4219 -8.3438 L4.3125 -8.3438 L3.375 -4.5625 Q2.9844 -2.9844 2.9844 -2.2031 Q2.9844 -1.6094 3.2422 -1.2969 Q3.5 -0.9844 4 -0.9844 Q4.4531 -0.9844 4.9453 -1.3359 Q5.4375 -1.6875 6.0312 -2.3906 L6.5938 -1.7969 Z" stroke="none"/></g><g text-rendering="optimizeLegibility" transform="translate(131.4434,22.9313) matrix(1,0,0,1.2559,0,0)" color-rendering="optimizeQuality" color-interpolation="linearRGB" image-rendering="optimizeQuality"><path d="M0.4219 -14.0156 Q2.0781 -14.0156 3.1328 -13.5156 Q4.1875 -13.0156 4.7734 -12 Q5.3594 -10.9844 5.6172 -9.3516 Q5.875 -7.7188 5.875 -4.9219 Q5.875 -2.1562 5.6172 -0.5078 Q5.3594 1.1406 4.7734 2.1797 Q4.1875 3.2188 3.1328 3.7344 Q2.0781 4.25 0.4219 4.25 L0.4219 3.4531 Q1.1094 3.4531 1.625 3.3281 Q2.2344 3.1875 2.6406 2.7969 Q3.1094 2.375 3.4062 1.6094 Q3.75 0.7031 3.9219 -0.7812 Q4.0938 -2.3594 4.0938 -4.8438 Q4.0938 -7.0469 3.9453 -8.5859 Q3.7969 -10.125 3.4531 -11.0938 Q3.1875 -11.9219 2.7812 -12.375 Q2.4062 -12.7812 1.9219 -12.9844 Q1.3438 -13.2188 0.4219 -13.2188 L0.4219 -14.0156 Z" stroke="none"/></g><g text-rendering="optimizeLegibility" transform="translate(94.959,47.3224)" color-rendering="optimizeQuality" color-interpolation="linearRGB" image-rendering="optimizeQuality"><path d="M8.0938 -8.5469 L8.1094 -8.7969 Q8.1406 -9.2656 8.1406 -9.5938 Q8.1406 -10.4062 8.0469 -11.0469 Q7.9531 -11.6875 7.7188 -12.1562 Q7.4844 -12.625 7.1016 -12.8672 Q6.7188 -13.1094 6.1406 -13.1094 Q5.4219 -13.1094 4.8125 -12.7734 Q4.2031 -12.4375 3.6094 -11.7344 L2.9062 -11.7344 L2.9062 -12.5469 Q3.8438 -13.2031 4.3516 -13.4844 Q4.8594 -13.7656 5.375 -13.8984 Q5.8906 -14.0312 6.5 -14.0312 Q8.125 -14.0312 8.9375 -12.9219 Q9.75 -11.8125 9.75 -9.5781 Q9.75 -8.6875 9.5938 -7.4609 Q9.4375 -6.2344 9.0625 -4.9062 Q8.6875 -3.5781 8.2031 -2.6484 Q7.7188 -1.7188 7.125 -1.1172 Q6.5312 -0.5156 5.75 -0.1797 Q4.9688 0.1562 4 0.1562 Q3.0156 0.1562 2.2891 -0.25 Q1.5625 -0.6562 1.1953 -1.4219 Q0.8281 -2.1875 0.8281 -3.2969 Q0.8281 -4.3906 1.1641 -5.4688 Q1.5 -6.5469 2.1641 -7.4375 Q2.8281 -8.3281 3.7422 -8.8359 Q4.6562 -9.3438 5.6875 -9.3438 Q6.3906 -9.3438 6.9219 -9.1797 Q7.4531 -9.0156 8.0938 -8.5469 ZM7.625 -6.6719 Q7.625 -7.6719 7.2188 -8.1172 Q6.8125 -8.5625 5.9844 -8.5625 Q5.3906 -8.5625 4.8516 -8.2578 Q4.3125 -7.9531 3.8828 -7.375 Q3.4531 -6.7969 3.1641 -6.0391 Q2.875 -5.2812 2.7109 -4.4922 Q2.5469 -3.7031 2.5469 -2.8594 Q2.5469 -1.9688 2.7422 -1.4766 Q2.9375 -0.9844 3.25 -0.7969 Q3.5625 -0.6094 4.0312 -0.6094 Q5.0781 -0.6094 5.8281 -1.4609 Q6.5781 -2.3125 7.1016 -4 Q7.625 -5.6875 7.625 -6.6719 Z" stroke="none"/></g><g text-rendering="optimizeLegibility" transform="translate(106.709,47.3224)" color-rendering="optimizeQuality" color-interpolation="linearRGB" image-rendering="optimizeQuality"><path d="M6.5938 -1.7969 Q5.7969 -0.8281 5.0156 -0.3359 Q4.2344 0.1562 3.3438 0.1562 Q2.3125 0.1562 1.8047 -0.375 Q1.2969 -0.9062 1.2969 -1.9062 Q1.2969 -2.5156 1.4688 -3.2812 L2.6875 -8.3438 L1.2344 -8.3438 L1.3438 -8.8438 Q1.9219 -8.9219 2.2578 -9.1016 Q2.5938 -9.2812 2.8203 -9.5781 Q3.0469 -9.875 3.2422 -10.3516 Q3.4375 -10.8281 3.7344 -11.75 L5.0781 -11.75 L4.5469 -9.3438 L7.6406 -9.3438 L7.4219 -8.3438 L4.3125 -8.3438 L3.375 -4.5625 Q2.9844 -2.9844 2.9844 -2.2031 Q2.9844 -1.6094 3.2422 -1.2969 Q3.5 -0.9844 4 -0.9844 Q4.4531 -0.9844 4.9453 -1.3359 Q5.4375 -1.6875 6.0312 -2.3906 L6.5938 -1.7969 Z" stroke="none"/></g><g text-rendering="optimizeLegibility" transform="translate(143.4441,38)" color-rendering="optimizeQuality" color-interpolation="linearRGB" image-rendering="optimizeQuality"><path d="M1.2188 -7.0625 L1.2188 -8.4219 L9.8594 -8.4219 L9.8594 -7.0625 L1.2188 -7.0625 ZM1.2188 -3.0156 L1.2188 -4.3594 L9.8594 -4.3594 L9.8594 -3.0156 L1.2188 -3.0156 Z" stroke="none"/></g><g text-rendering="optimizeLegibility" transform="translate(155.3035,38)" color-rendering="optimizeQuality" color-interpolation="linearRGB" image-rendering="optimizeQuality"><path d="M5.4375 0.1562 Q3.3281 0.1562 2.2969 -1.5078 Q1.2656 -3.1719 1.2656 -6.5469 Q1.2656 -8.3438 1.5781 -9.6484 Q1.8906 -10.9531 2.4609 -11.8125 Q3.0312 -12.6719 3.8359 -13.0781 Q4.6406 -13.4844 5.5938 -13.4844 Q7.7188 -13.4844 8.7656 -11.8359 Q9.8125 -10.1875 9.8125 -6.8438 Q9.8125 -3.3906 8.6953 -1.6172 Q7.5781 0.1562 5.4375 0.1562 ZM3.1719 -6.8438 Q3.1719 -3.6562 3.7578 -2.1641 Q4.3438 -0.6719 5.5938 -0.6719 Q6.7656 -0.6719 7.3359 -2.0781 Q7.9062 -3.4844 7.9062 -6.4219 Q7.9062 -8.6562 7.6172 -10.0547 Q7.3281 -11.4531 6.8047 -12.0547 Q6.2812 -12.6562 5.5312 -12.6562 Q4.8594 -12.6562 4.4062 -12.2578 Q3.9531 -11.8594 3.6797 -11.1094 Q3.4062 -10.3594 3.2891 -9.2734 Q3.1719 -8.1875 3.1719 -6.8438 Z" stroke="none"/></g></g></svg>