<?xml version="1.0" encoding="UTF-8" standalone="no"?><svg xmlns="http://www.w3.org/2000/svg" xmlns:xlink="http://www.w3.org/1999/xlink" stroke-dasharray="none" shape-rendering="auto" font-family="'Dialog'" width="317.812600" text-rendering="auto" fill-opacity="1" contentScriptType="text/ecmascript" color-interpolation="auto" color-rendering="auto" preserveAspectRatio="xMidYMid meet" font-size="12" fill="black" stroke="black" image-rendering="auto" stroke-miterlimit="10" zoomAndPan="magnify" version="1.0" stroke-linecap="square" stroke-linejoin="miter" contentStyleType="text/css" font-style="normal" height="24" stroke-width="1" stroke-dashoffset="0" font-weight="normal" stroke-opacity="1" y="-5.000000"><!--Converted from MathML using JEuclid--><defs id="genericDefs"/><g><g text-rendering="optimizeLegibility" transform="translate(1.0781,19)" color-rendering="optimizeQuality" color-interpolation="linearRGB" image-rendering="optimizeQuality"><path d="M7.0781 4.2188 Q5.5625 4.2188 4.6797 3.8281 Q3.7969 3.4375 3.4141 2.6641 Q3.0312 1.8906 3.0312 0.5781 L3.0312 -2.25 Q3.0312 -3.1094 2.8125 -3.5938 Q2.5938 -4.0781 2.1562 -4.2734 Q1.7188 -4.4688 0.9219 -4.4688 L0.9219 -5.2812 Q1.7031 -5.2812 2.1484 -5.4766 Q2.5938 -5.6719 2.8125 -6.1484 Q3.0312 -6.625 3.0312 -7.5 L3.0312 -10.3281 Q3.0312 -11.625 3.4141 -12.4062 Q3.7969 -13.1875 4.6797 -13.5781 Q5.5625 -13.9688 7.0781 -13.9688 L7.3281 -13.9688 L7.3281 -13.1719 Q6.5469 -13.1719 6.1641 -13.0938 Q5.7812 -13.0156 5.5391 -12.8438 Q5.2969 -12.6719 5.1406 -12.4141 Q4.9844 -12.1562 4.8984 -11.6875 Q4.8125 -11.2188 4.8125 -10.4375 L4.8125 -8.5469 Q4.8125 -7.5625 4.6406 -6.8984 Q4.4688 -6.2344 4.0312 -5.7578 Q3.5938 -5.2812 2.8281 -4.9688 L2.8281 -4.7812 Q3.5781 -4.4844 4.0312 -3.9844 Q4.4844 -3.4844 4.6484 -2.8203 Q4.8125 -2.1562 4.8125 -1.2031 L4.8125 0.6875 Q4.8125 1.4688 4.8984 1.9375 Q4.9844 2.4062 5.1406 2.6719 Q5.2969 2.9375 5.5391 3.1016 Q5.7812 3.2656 6.1641 3.3438 Q6.5469 3.4219 7.3281 3.4219 L7.3281 4.2188 L7.0781 4.2188 Z" stroke="none"/></g><g text-rendering="optimizeLegibility" transform="translate(10.4062,19)" color-rendering="optimizeQuality" color-interpolation="linearRGB" image-rendering="optimizeQuality"><path d="M3.6719 -2.8438 Q3.6094 -2.5469 3.5703 -2.3438 Q3.5312 -2.1406 3.5 -1.8438 Q3.4688 -1.5469 3.4688 -1.3125 Q3.4688 -1.0156 3.5625 -0.8438 Q3.6562 -0.6719 3.8516 -0.5938 Q4.0469 -0.5156 4.5312 -0.4844 L4.4219 0 L0.4062 0 L0.5156 -0.4844 Q0.8906 -0.5312 1.0781 -0.6641 Q1.2656 -0.7969 1.3906 -1.0312 Q1.5156 -1.2656 1.625 -1.6016 Q1.7344 -1.9375 1.9375 -2.9062 L3.6094 -10.4375 Q3.8125 -11.4062 3.8125 -11.9688 Q3.8125 -12.4531 3.5938 -12.6406 Q3.375 -12.8281 2.8594 -12.8594 L2.9688 -13.3281 L11.7812 -13.3281 L11.1094 -10.3281 L10.1719 -10.3281 Q10.125 -11.0312 10.0547 -11.4219 Q9.9844 -11.8125 9.8828 -12.0078 Q9.7812 -12.2031 9.6562 -12.2969 Q9.5312 -12.3906 9.3438 -12.4297 Q9.1562 -12.4688 8.7969 -12.4688 L5.7969 -12.4688 L4.625 -7.1562 L6.4531 -7.1562 Q6.8906 -7.1562 7.1719 -7.2734 Q7.4531 -7.3906 7.6953 -7.7031 Q7.9375 -8.0156 8.2969 -8.75 L9.1875 -8.75 L8.25 -4.625 L7.3906 -4.625 Q7.3906 -5.2344 7.3594 -5.5781 Q7.3281 -5.9219 7.2422 -6.0547 Q7.1562 -6.1875 6.9844 -6.2422 Q6.8125 -6.2969 6.3594 -6.2969 L4.4375 -6.2969 L3.6719 -2.8438 Z" stroke="none"/></g><g text-rendering="optimizeLegibility" transform="translate(23.7656,19)" color-rendering="optimizeQuality" color-interpolation="linearRGB" image-rendering="optimizeQuality"><path d="M0.6719 -13.9688 Q2.1875 -13.9688 3.0703 -13.5781 Q3.9531 -13.1875 4.3281 -12.4062 Q4.7031 -11.625 4.7031 -10.3281 L4.7031 -7.5 Q4.7031 -6.625 4.9297 -6.1484 Q5.1562 -5.6719 5.5938 -5.4766 Q6.0312 -5.2812 6.8125 -5.2812 L6.8125 -4.4688 Q6.0312 -4.4688 5.5859 -4.2734 Q5.1406 -4.0781 4.9219 -3.5938 Q4.7031 -3.1094 4.7031 -2.25 L4.7031 0.5781 Q4.7031 1.8906 4.3281 2.6641 Q3.9531 3.4375 3.0703 3.8281 Q2.1875 4.2188 0.6719 4.2188 L0.4219 4.2188 L0.4219 3.4219 Q1.1875 3.4219 1.5781 3.3438 Q1.9688 3.2656 2.2031 3.1016 Q2.4375 2.9375 2.5938 2.6719 Q2.75 2.4062 2.8438 1.9375 Q2.9375 1.4688 2.9375 0.6875 L2.9375 -1.2031 Q2.9375 -2.1875 3.1016 -2.8438 Q3.2656 -3.5 3.7109 -3.9844 Q4.1562 -4.4688 4.9062 -4.7812 L4.9062 -4.9688 Q4.1719 -5.2656 3.7188 -5.7656 Q3.2656 -6.2656 3.1016 -6.9297 Q2.9375 -7.5938 2.9375 -8.5469 L2.9375 -10.4375 Q2.9375 -11.2188 2.8438 -11.6875 Q2.75 -12.1562 2.5938 -12.4141 Q2.4375 -12.6719 2.2031 -12.8438 Q1.9688 -13.0156 1.5781 -13.0938 Q1.1875 -13.1719 0.4219 -13.1719 L0.4219 -13.9688 L0.6719 -13.9688 Z" stroke="none"/></g><g text-rendering="optimizeLegibility" transform="translate(32.5781,9.6953)" color-rendering="optimizeQuality" color-interpolation="linearRGB" image-rendering="optimizeQuality"><path d="M4.875 0 L1.9844 0 L2.0625 -0.3281 Q2.3281 -0.375 2.4609 -0.4453 Q2.5938 -0.5156 2.6953 -0.6562 Q2.7969 -0.7969 2.8984 -1.1016 Q3 -1.4062 3.125 -2.0312 L4.5938 -8.7344 L3.7188 -8.7344 Q3.2969 -8.7344 3.0469 -8.6094 Q2.7969 -8.4844 2.5469 -8.1484 Q2.2969 -7.8125 1.9219 -7.0312 L1.2656 -7.0312 L1.7812 -9.3281 L8.9219 -9.3281 L8.3906 -6.9219 L7.7344 -6.9219 Q7.7344 -7.5938 7.6953 -7.9219 Q7.6562 -8.25 7.5625 -8.4219 Q7.4688 -8.5938 7.3281 -8.6641 Q7.1875 -8.7344 6.8438 -8.7344 L5.8281 -8.7344 L4.3438 -1.9844 Q4.2812 -1.7188 4.2578 -1.5625 Q4.2344 -1.4062 4.2188 -1.2344 Q4.2031 -1.0625 4.2031 -0.9219 Q4.2031 -0.7188 4.2656 -0.5938 Q4.3281 -0.4688 4.4688 -0.4141 Q4.6094 -0.3594 4.9375 -0.3281 L4.875 0 Z" stroke="none"/></g><g text-rendering="optimizeLegibility" transform="translate(42.5781,19)" color-rendering="optimizeQuality" color-interpolation="linearRGB" image-rendering="optimizeQuality"><path d="M7.0781 4.2188 Q5.5625 4.2188 4.6797 3.8281 Q3.7969 3.4375 3.4141 2.6641 Q3.0312 1.8906 3.0312 0.5781 L3.0312 -2.25 Q3.0312 -3.1094 2.8125 -3.5938 Q2.5938 -4.0781 2.1562 -4.2734 Q1.7188 -4.4688 0.9219 -4.4688 L0.9219 -5.2812 Q1.7031 -5.2812 2.1484 -5.4766 Q2.5938 -5.6719 2.8125 -6.1484 Q3.0312 -6.625 3.0312 -7.5 L3.0312 -10.3281 Q3.0312 -11.625 3.4141 -12.4062 Q3.7969 -13.1875 4.6797 -13.5781 Q5.5625 -13.9688 7.0781 -13.9688 L7.3281 -13.9688 L7.3281 -13.1719 Q6.5469 -13.1719 6.1641 -13.0938 Q5.7812 -13.0156 5.5391 -12.8438 Q5.2969 -12.6719 5.1406 -12.4141 Q4.9844 -12.1562 4.8984 -11.6875 Q4.8125 -11.2188 4.8125 -10.4375 L4.8125 -8.5469 Q4.8125 -7.5625 4.6406 -6.8984 Q4.4688 -6.2344 4.0312 -5.7578 Q3.5938 -5.2812 2.8281 -4.9688 L2.8281 -4.7812 Q3.5781 -4.4844 4.0312 -3.9844 Q4.4844 -3.4844 4.6484 -2.8203 Q4.8125 -2.1562 4.8125 -1.2031 L4.8125 0.6875 Q4.8125 1.4688 4.8984 1.9375 Q4.9844 2.4062 5.1406 2.6719 Q5.2969 2.9375 5.5391 3.1016 Q5.7812 3.2656 6.1641 3.3438 Q6.5469 3.4219 7.3281 3.4219 L7.3281 4.2188 L7.0781 4.2188 Z" stroke="none"/></g><g text-rendering="optimizeLegibility" transform="translate(51.9062,19)" color-rendering="optimizeQuality" color-interpolation="linearRGB" image-rendering="optimizeQuality"><path d="M3.6719 -2.8438 Q3.6094 -2.5469 3.5703 -2.3438 Q3.5312 -2.1406 3.5 -1.8438 Q3.4688 -1.5469 3.4688 -1.3125 Q3.4688 -1.0156 3.5625 -0.8438 Q3.6562 -0.6719 3.8516 -0.5938 Q4.0469 -0.5156 4.5312 -0.4844 L4.4219 0 L0.4062 0 L0.5156 -0.4844 Q0.8906 -0.5312 1.0781 -0.6641 Q1.2656 -0.7969 1.3906 -1.0312 Q1.5156 -1.2656 1.625 -1.6016 Q1.7344 -1.9375 1.9375 -2.9062 L3.6094 -10.4375 Q3.8125 -11.4062 3.8125 -11.9688 Q3.8125 -12.4531 3.5938 -12.6406 Q3.375 -12.8281 2.8594 -12.8594 L2.9688 -13.3281 L11.7812 -13.3281 L11.1094 -10.3281 L10.1719 -10.3281 Q10.125 -11.0312 10.0547 -11.4219 Q9.9844 -11.8125 9.8828 -12.0078 Q9.7812 -12.2031 9.6562 -12.2969 Q9.5312 -12.3906 9.3438 -12.4297 Q9.1562 -12.4688 8.7969 -12.4688 L5.7969 -12.4688 L4.625 -7.1562 L6.4531 -7.1562 Q6.8906 -7.1562 7.1719 -7.2734 Q7.4531 -7.3906 7.6953 -7.7031 Q7.9375 -8.0156 8.2969 -8.75 L9.1875 -8.75 L8.25 -4.625 L7.3906 -4.625 Q7.3906 -5.2344 7.3594 -5.5781 Q7.3281 -5.9219 7.2422 -6.0547 Q7.1562 -6.1875 6.9844 -6.2422 Q6.8125 -6.2969 6.3594 -6.2969 L4.4375 -6.2969 L3.6719 -2.8438 Z" stroke="none"/></g><g text-rendering="optimizeLegibility" transform="translate(65.2656,19)" color-rendering="optimizeQuality" color-interpolation="linearRGB" image-rendering="optimizeQuality"><path d="M0.6719 -13.9688 Q2.1875 -13.9688 3.0703 -13.5781 Q3.9531 -13.1875 4.3281 -12.4062 Q4.7031 -11.625 4.7031 -10.3281 L4.7031 -7.5 Q4.7031 -6.625 4.9297 -6.1484 Q5.1562 -5.6719 5.5938 -5.4766 Q6.0312 -5.2812 6.8125 -5.2812 L6.8125 -4.4688 Q6.0312 -4.4688 5.5859 -4.2734 Q5.1406 -4.0781 4.9219 -3.5938 Q4.7031 -3.1094 4.7031 -2.25 L4.7031 0.5781 Q4.7031 1.8906 4.3281 2.6641 Q3.9531 3.4375 3.0703 3.8281 Q2.1875 4.2188 0.6719 4.2188 L0.4219 4.2188 L0.4219 3.4219 Q1.1875 3.4219 1.5781 3.3438 Q1.9688 3.2656 2.2031 3.1016 Q2.4375 2.9375 2.5938 2.6719 Q2.75 2.4062 2.8438 1.9375 Q2.9375 1.4688 2.9375 0.6875 L2.9375 -1.2031 Q2.9375 -2.1875 3.1016 -2.8438 Q3.2656 -3.5 3.7109 -3.9844 Q4.1562 -4.4688 4.9062 -4.7812 L4.9062 -4.9688 Q4.1719 -5.2656 3.7188 -5.7656 Q3.2656 -6.2656 3.1016 -6.9297 Q2.9375 -7.5938 2.9375 -8.5469 L2.9375 -10.4375 Q2.9375 -11.2188 2.8438 -11.6875 Q2.75 -12.1562 2.5938 -12.4141 Q2.4375 -12.6719 2.2031 -12.8438 Q1.9688 -13.0156 1.5781 -13.0938 Q1.1875 -13.1719 0.4219 -13.1719 L0.4219 -13.9688 L0.6719 -13.9688 Z" stroke="none"/></g><g text-rendering="optimizeLegibility" transform="translate(74.0781,19)" color-rendering="optimizeQuality" color-interpolation="linearRGB" image-rendering="optimizeQuality"><path d="M8.0938 -7.25 L7.2812 -7.25 Q7.125 -8.7188 5.4531 -8.7188 Q4.6406 -8.7188 4.0469 -8.2422 Q3.4531 -7.7656 3.4531 -7.0156 Q3.4531 -6.3125 3.9766 -5.9062 Q4.5 -5.5 5.4531 -5.5 L6.3125 -5.5 L6.125 -4.5625 L5.3438 -4.5625 Q4.1094 -4.5625 3.1953 -4 Q2.2812 -3.4375 2.2812 -2.4219 Q2.2812 -1.7188 2.8438 -1.3125 Q3.4062 -0.9062 4.2656 -0.9062 Q5.7344 -0.9062 7.2031 -1.8594 L7.6406 -1.2031 Q5.8438 0.1562 3.6094 0.1562 Q2.1406 0.1562 1.3125 -0.4766 Q0.4844 -1.1094 0.4844 -2.125 Q0.4844 -4.1562 3.375 -4.9688 L3.4062 -5.0625 Q1.7812 -5.5312 1.7812 -6.9219 Q1.7812 -8.1094 2.7422 -8.8047 Q3.7031 -9.5 5.4219 -9.5 Q7.0312 -9.5 8.4844 -8.9688 L8.0938 -7.25 Z" stroke="none"/></g><g text-rendering="optimizeLegibility" transform="translate(82.5625,14.2188)" color-rendering="optimizeQuality" color-interpolation="linearRGB" image-rendering="optimizeQuality"><path d="M4.7969 -1.0938 Q5.1406 -1.0938 5.3438 -1.1328 Q5.5469 -1.1719 5.6719 -1.2734 Q5.7969 -1.375 5.8672 -1.5234 Q5.9375 -1.6719 6.0469 -2 L6.625 -2 L6.5156 0 L0.875 0 L0.875 -0.3281 Q1.1719 -1.0469 1.6719 -1.7969 Q2.1719 -2.5469 3.0938 -3.5625 Q3.8906 -4.4375 4.2344 -4.8906 Q4.6094 -5.3906 4.7969 -5.75 Q4.9844 -6.1094 5.0703 -6.4219 Q5.1562 -6.7344 5.1562 -7.0625 Q5.1562 -7.5781 4.9922 -7.9688 Q4.8281 -8.3594 4.4922 -8.5859 Q4.1562 -8.8125 3.6406 -8.8125 Q2.3594 -8.8125 1.9219 -7.3906 L1.0938 -7.3906 L1.0938 -8.7031 Q1.9219 -9.0938 2.6406 -9.2656 Q3.3594 -9.4375 3.9375 -9.4375 Q5.2031 -9.4375 5.8516 -8.8828 Q6.5 -8.3281 6.5 -7.2656 Q6.5 -6.9062 6.4297 -6.6016 Q6.3594 -6.2969 6.2031 -6 Q6.0469 -5.7031 5.7891 -5.3594 Q5.5312 -5.0156 5.2188 -4.6641 Q4.9062 -4.3125 4.125 -3.5 Q2.8281 -2.125 2.2188 -1.0938 L4.7969 -1.0938 Z" stroke="none"/></g><g text-rendering="optimizeLegibility" transform="translate(89.9688,19)" color-rendering="optimizeQuality" color-interpolation="linearRGB" image-rendering="optimizeQuality"><path d="M1.2188 -7.0625 L1.2188 -8.4219 L9.8594 -8.4219 L9.8594 -7.0625 L1.2188 -7.0625 ZM1.2188 -3.0156 L1.2188 -4.3594 L9.8594 -4.3594 L9.8594 -3.0156 L1.2188 -3.0156 Z" stroke="none"/></g><g text-rendering="optimizeLegibility" transform="translate(101.8281,19)" color-rendering="optimizeQuality" color-interpolation="linearRGB" image-rendering="optimizeQuality"><path d="M5.2031 0.1562 Q3.1719 0.1562 2.1016 -1.0391 Q1.0312 -2.2344 1.0312 -4.5781 Q1.0312 -6.1875 1.5938 -7.3047 Q2.1562 -8.4219 3.1328 -8.9609 Q4.1094 -9.5 5.3594 -9.5 Q7.4375 -9.5 8.5156 -8.2891 Q9.5938 -7.0781 9.5938 -4.7969 Q9.5938 -3.1719 9.0547 -2.0625 Q8.5156 -0.9531 7.5312 -0.3984 Q6.5469 0.1562 5.2031 0.1562 ZM2.875 -4.7812 Q2.875 -2.7812 3.5156 -1.6953 Q4.1562 -0.6094 5.3438 -0.6094 Q6 -0.6094 6.4609 -0.9297 Q6.9219 -1.25 7.2031 -1.7891 Q7.4844 -2.3281 7.6172 -3.0312 Q7.75 -3.7344 7.75 -4.5156 Q7.75 -5.9531 7.4297 -6.8984 Q7.1094 -7.8438 6.5625 -8.2891 Q6.0156 -8.7344 5.3125 -8.7344 Q4.125 -8.7344 3.5 -7.7109 Q2.875 -6.6875 2.875 -4.7812 ZM11.7188 -9.3438 L14.5 -9.3438 L14.5 -4.3594 Q14.5 -3.2188 14.5859 -2.625 Q14.6719 -2.0312 14.8516 -1.7266 Q15.0312 -1.4219 15.3516 -1.2188 Q15.6719 -1.0156 16.2344 -1.0156 Q16.6094 -1.0156 16.9531 -1.1641 Q17.2969 -1.3125 17.7109 -1.6797 Q18.125 -2.0469 18.3047 -2.4062 Q18.4844 -2.7656 18.4844 -3.25 L18.4844 -6.9062 Q18.4844 -7.4688 18.4609 -7.75 Q18.4375 -8.0312 18.3672 -8.2031 Q18.2969 -8.375 18.2031 -8.4766 Q18.1094 -8.5781 17.9375 -8.6719 Q17.7656 -8.7656 17.3906 -8.8594 L17.3906 -9.3438 L20.1719 -9.3438 L20.1719 -2.6719 Q20.1719 -1.9219 20.2031 -1.5859 Q20.2344 -1.25 20.3281 -1.0547 Q20.4219 -0.8594 20.625 -0.7344 Q20.8281 -0.6094 21.3594 -0.5156 L21.3594 0 L19.125 0.0938 L18.5312 0.0938 L18.5938 -1.5 L18.4375 -1.5469 Q17.625 -0.6719 16.8906 -0.2578 Q16.1562 0.1562 15.4219 0.1562 Q14.5312 0.1562 13.9531 -0.1953 Q13.375 -0.5469 13.0938 -1.2422 Q12.8125 -1.9375 12.8125 -3.2188 L12.8125 -6.9062 Q12.8125 -7.7188 12.75 -8.0312 Q12.6875 -8.3438 12.5 -8.5234 Q12.3125 -8.7031 11.7188 -8.8594 L11.7188 -9.3438 ZM22.3594 -8.8438 Q22.8438 -8.9219 23.1484 -9.1172 Q23.4531 -9.3125 23.625 -9.625 Q23.7969 -9.9375 23.8984 -10.3984 Q24 -10.8594 24.0938 -11.75 L25.4844 -11.75 L25.4844 -9.3438 L28.6406 -9.3438 L28.6406 -8.3438 L25.4844 -8.3438 L25.4844 -4 Q25.4844 -3.0625 25.5625 -2.5 Q25.6406 -1.9375 25.8594 -1.6172 Q26.0781 -1.2969 26.3516 -1.1641 Q26.625 -1.0312 27.0469 -1.0312 Q27.4375 -1.0312 27.7812 -1.1875 Q28.125 -1.3438 28.4531 -1.6562 L28.8906 -1.125 Q28.2031 -0.4531 27.5859 -0.1484 Q26.9688 0.1562 26.2969 0.1562 Q25.0312 0.1562 24.4219 -0.5938 Q23.8125 -1.3438 23.8125 -2.9375 L23.8125 -8.3438 L22.3594 -8.3438 L22.3594 -8.8438 ZM32.5938 -0.2969 L32.5938 1.7656 Q32.5938 2.4062 32.6406 2.7188 Q32.6875 3.0312 32.7969 3.2109 Q32.9062 3.3906 33.1172 3.5078 Q33.3281 3.625 33.7969 3.7188 L33.7969 4.2031 L29.8125 4.2031 L29.8125 3.7188 Q30.1562 3.625 30.3828 3.5234 Q30.6094 3.4219 30.7266 3.2188 Q30.8438 3.0156 30.8828 2.6719 Q30.9219 2.3281 30.9219 1.7656 L30.9219 -6.6094 Q30.9219 -7.3125 30.8984 -7.6094 Q30.875 -7.9062 30.8203 -8.1016 Q30.7656 -8.2969 30.6484 -8.4297 Q30.5312 -8.5625 30.3438 -8.6484 Q30.1562 -8.7344 29.7188 -8.8125 L29.7188 -9.3438 L32.0156 -9.4219 L32.6094 -9.4219 L32.4844 -7.8281 L32.625 -7.7969 Q33.2344 -8.4062 33.5859 -8.6875 Q33.9375 -8.9688 34.3125 -9.1562 Q34.6875 -9.3438 35.0312 -9.4219 Q35.375 -9.5 35.7656 -9.5 Q37.375 -9.5 38.2422 -8.2891 Q39.1094 -7.0781 39.1094 -4.75 Q39.1094 -3.1406 38.6172 -2.0469 Q38.125 -0.9531 37.1953 -0.3984 Q36.2656 0.1562 34.9844 0.1562 Q34.25 0.1562 33.6641 0.0312 Q33.0781 -0.0938 32.5938 -0.2969 ZM32.5938 -3.5156 Q32.5938 -2.5781 32.7109 -2.0703 Q32.8281 -1.5625 33.125 -1.2422 Q33.4219 -0.9219 33.8281 -0.7656 Q34.2344 -0.6094 34.9062 -0.6094 Q36.0781 -0.6094 36.6719 -1.5938 Q37.2656 -2.5781 37.2656 -4.5 Q37.2656 -8.3281 35.0312 -8.3281 Q34.4844 -8.3281 34.0938 -8.1562 Q33.7031 -7.9844 33.3125 -7.6016 Q32.9219 -7.2188 32.7578 -6.8594 Q32.5938 -6.5 32.5938 -6.0938 L32.5938 -3.5156 ZM40.7188 -9.3438 L43.5 -9.3438 L43.5 -4.3594 Q43.5 -3.2188 43.5859 -2.625 Q43.6719 -2.0312 43.8516 -1.7266 Q44.0312 -1.4219 44.3516 -1.2188 Q44.6719 -1.0156 45.2344 -1.0156 Q45.6094 -1.0156 45.9531 -1.1641 Q46.2969 -1.3125 46.7109 -1.6797 Q47.125 -2.0469 47.3047 -2.4062 Q47.4844 -2.7656 47.4844 -3.25 L47.4844 -6.9062 Q47.4844 -7.4688 47.4609 -7.75 Q47.4375 -8.0312 47.3672 -8.2031 Q47.2969 -8.375 47.2031 -8.4766 Q47.1094 -8.5781 46.9375 -8.6719 Q46.7656 -8.7656 46.3906 -8.8594 L46.3906 -9.3438 L49.1719 -9.3438 L49.1719 -2.6719 Q49.1719 -1.9219 49.2031 -1.5859 Q49.2344 -1.25 49.3281 -1.0547 Q49.4219 -0.8594 49.625 -0.7344 Q49.8281 -0.6094 50.3594 -0.5156 L50.3594 0 L48.125 0.0938 L47.5312 0.0938 L47.5938 -1.5 L47.4375 -1.5469 Q46.625 -0.6719 45.8906 -0.2578 Q45.1562 0.1562 44.4219 0.1562 Q43.5312 0.1562 42.9531 -0.1953 Q42.375 -0.5469 42.0938 -1.2422 Q41.8125 -1.9375 41.8125 -3.2188 L41.8125 -6.9062 Q41.8125 -7.7188 41.75 -8.0312 Q41.6875 -8.3438 41.5 -8.5234 Q41.3125 -8.7031 40.7188 -8.8594 L40.7188 -9.3438 ZM51.3594 -8.8438 Q51.8438 -8.9219 52.1484 -9.1172 Q52.4531 -9.3125 52.625 -9.625 Q52.7969 -9.9375 52.8984 -10.3984 Q53 -10.8594 53.0938 -11.75 L54.4844 -11.75 L54.4844 -9.3438 L57.6406 -9.3438 L57.6406 -8.3438 L54.4844 -8.3438 L54.4844 -4 Q54.4844 -3.0625 54.5625 -2.5 Q54.6406 -1.9375 54.8594 -1.6172 Q55.0781 -1.2969 55.3516 -1.1641 Q55.625 -1.0312 56.0469 -1.0312 Q56.4375 -1.0312 56.7812 -1.1875 Q57.125 -1.3438 57.4531 -1.6562 L57.8906 -1.125 Q57.2031 -0.4531 56.5859 -0.1484 Q55.9688 0.1562 55.2969 0.1562 Q54.0312 0.1562 53.4219 -0.5938 Q52.8125 -1.3438 52.8125 -2.9375 L52.8125 -8.3438 L51.3594 -8.3438 L51.3594 -8.8438 ZM68.5938 -1.3906 L68.4531 -1.4375 Q67.5938 -0.5625 66.8516 -0.2031 Q66.1094 0.1562 65.2656 0.1562 Q64.5156 0.1562 63.9531 -0.1328 Q63.3906 -0.4219 63.0859 -0.9453 Q62.7812 -1.4688 62.7812 -2.1562 Q62.7812 -3.5781 64.1953 -4.3516 Q65.6094 -5.125 68.4219 -5.25 L68.4219 -5.8906 Q68.4219 -6.9062 68.2266 -7.4922 Q68.0312 -8.0781 67.6172 -8.3516 Q67.2031 -8.625 66.5 -8.625 Q65.7344 -8.625 65.2656 -8.2266 Q64.7969 -7.8281 64.5625 -7.0156 L63.2969 -7.0156 L63.2969 -8.2969 Q64.2344 -8.7812 64.8594 -9.0078 Q65.4844 -9.2344 66.1094 -9.3672 Q66.7344 -9.5 67.375 -9.5 Q68.3438 -9.5 68.9297 -9.1953 Q69.5156 -8.8906 69.8047 -8.2578 Q70.0938 -7.625 70.0938 -6.3438 L70.0938 -2.9375 Q70.0938 -2.2188 70.1016 -1.9219 Q70.1094 -1.625 70.1641 -1.3672 Q70.2188 -1.1094 70.3125 -0.9609 Q70.4062 -0.8125 70.6016 -0.7031 Q70.7969 -0.5938 71.2188 -0.4844 L71.2188 0 L68.5469 0 L68.5938 -1.3906 ZM68.4219 -4.4531 Q66.4375 -4.4375 65.4531 -3.9297 Q64.4688 -3.4219 64.4688 -2.3906 Q64.4688 -1.8438 64.6953 -1.5156 Q64.9219 -1.1875 65.2656 -1.0703 Q65.6094 -0.9531 66.0781 -0.9531 Q66.7344 -0.9531 67.2812 -1.2734 Q67.8281 -1.5938 68.125 -2.0938 Q68.4219 -2.5938 68.4219 -3.0781 L68.4219 -4.4531 ZM79.4844 -7.2031 L78.5469 -7.2031 Q78.3438 -7.7812 78.0469 -8.1172 Q77.75 -8.4531 77.3828 -8.5938 Q77.0156 -8.7344 76.4688 -8.7344 Q75.6875 -8.7344 75.2266 -8.3672 Q74.7656 -8 74.7656 -7.3594 Q74.7656 -6.9219 74.9531 -6.625 Q75.1406 -6.3281 75.5312 -6.0781 Q75.9219 -5.8281 76.9062 -5.4062 Q77.9062 -4.9688 78.4453 -4.6094 Q78.9844 -4.25 79.2891 -3.7734 Q79.5938 -3.2969 79.5938 -2.625 Q79.5938 -1.8594 79.3359 -1.3281 Q79.0781 -0.7969 78.5938 -0.4688 Q78.1094 -0.1406 77.4531 0.0078 Q76.7969 0.1562 76.0156 0.1562 Q75.1875 0.1562 74.4219 0.0312 Q73.6562 -0.0938 72.9219 -0.2812 L72.9219 -2.3281 L73.875 -2.3281 Q74.1406 -1.4219 74.6562 -1.0156 Q75.1719 -0.6094 76.0781 -0.6094 Q76.4375 -0.6094 76.7734 -0.6875 Q77.1094 -0.7656 77.375 -0.9375 Q77.6406 -1.1094 77.7969 -1.3984 Q77.9531 -1.6875 77.9531 -2.125 Q77.9531 -2.625 77.7578 -2.9375 Q77.5625 -3.25 77.1484 -3.5078 Q76.7344 -3.7656 75.7031 -4.2031 Q74.8125 -4.5781 74.2734 -4.9297 Q73.7344 -5.2812 73.4297 -5.7578 Q73.125 -6.2344 73.125 -6.8906 Q73.125 -7.7031 73.5625 -8.2891 Q74 -8.875 74.8203 -9.1875 Q75.6406 -9.5 76.7344 -9.5 Q77.375 -9.5 77.9766 -9.4375 Q78.5781 -9.375 79.4844 -9.1875 L79.4844 -7.2031 ZM85.6406 -13.3281 L96.2188 -13.3281 L96.2188 -9.9375 L95.25 -9.9375 Q95.0469 -10.7656 94.8359 -11.2578 Q94.625 -11.75 94.3906 -12 Q94.1562 -12.25 93.8828 -12.3594 Q93.6094 -12.4688 93.0781 -12.4688 L91.8438 -12.4688 L91.8438 -2.4688 Q91.8438 -1.8906 91.9062 -1.5547 Q91.9688 -1.2188 92.1016 -1.0156 Q92.2344 -0.8125 92.4531 -0.7031 Q92.6719 -0.5938 93.1562 -0.4844 L93.1562 0 L88.6875 0 L88.6875 -0.4844 Q88.9844 -0.5469 89.2109 -0.625 Q89.4375 -0.7031 89.5781 -0.8125 Q89.7188 -0.9219 89.8125 -1.1016 Q89.9062 -1.2812 89.9609 -1.5859 Q90.0156 -1.8906 90.0156 -2.4688 L90.0156 -12.4688 L88.7812 -12.4688 Q88.3281 -12.4688 88.0234 -12.3828 Q87.7188 -12.2969 87.4688 -12.0156 Q87.2188 -11.7344 87.0078 -11.2266 Q86.7969 -10.7188 86.6094 -9.9375 L85.6406 -9.9375 L85.6406 -13.3281 ZM104.7812 0 L104.7812 -0.4844 Q105.2656 -0.5781 105.5 -0.6953 Q105.7344 -0.8125 105.8516 -1.0234 Q105.9688 -1.2344 105.9688 -1.5781 Q105.9688 -1.9219 105.8906 -2.3047 Q105.8125 -2.6875 105.6719 -3.1719 L105.3125 -4.4219 L100.7656 -4.4219 L100.4219 -3.4688 Q100.1719 -2.75 100.0938 -2.375 Q100.0156 -2 100.0156 -1.7031 Q100.0156 -1.1094 100.3125 -0.8359 Q100.6094 -0.5625 101.2344 -0.4844 L101.2344 0 L97.0625 0 L97.0625 -0.4844 Q97.6094 -0.5625 98.0156 -1.1094 Q98.4219 -1.6562 98.7969 -2.6719 L102.875 -13.4844 L104.4062 -13.4844 L107.7344 -2.5938 Q107.9688 -1.8438 108.1484 -1.4375 Q108.3281 -1.0312 108.5859 -0.8125 Q108.8438 -0.5938 109.2812 -0.4844 L109.2812 0 L104.7812 0 ZM101.0312 -5.2812 L105.1094 -5.2812 L103.25 -11.5781 L101.0312 -5.2812 ZM113.1562 -5.7969 L113.1562 -2.4688 Q113.1562 -1.7656 113.2109 -1.4531 Q113.2656 -1.1406 113.375 -0.9766 Q113.4844 -0.8125 113.6719 -0.7109 Q113.8594 -0.6094 114.2969 -0.4844 L114.2969 0 L110.1875 0 L110.1875 -0.4844 Q110.7812 -0.6406 110.9922 -0.8281 Q111.2031 -1.0156 111.2656 -1.3672 Q111.3281 -1.7188 111.3281 -2.4375 L111.3281 -10.8906 Q111.3281 -11.5625 111.2812 -11.8672 Q111.2344 -12.1719 111.1172 -12.3438 Q111 -12.5156 110.8125 -12.6172 Q110.625 -12.7188 110.1875 -12.8594 L110.1875 -13.3281 L115.0156 -13.3281 Q117.2969 -13.3281 118.4297 -12.5 Q119.5625 -11.6719 119.5625 -9.9219 Q119.5625 -8.5781 118.8281 -7.6406 Q118.0938 -6.7031 116.625 -6.1875 L116.625 -6.1094 Q117.2188 -5.8594 117.6406 -5.4062 Q118.0625 -4.9531 118.5781 -4 L119.4531 -2.3906 Q119.8438 -1.6875 120.1172 -1.3203 Q120.3906 -0.9531 120.6719 -0.7578 Q120.9531 -0.5625 121.4219 -0.4844 L121.4219 0 L118.7188 0 Q118.3438 -0.5156 118.0156 -1.1094 Q117.6875 -1.7031 117.3594 -2.3281 L116.5 -3.9531 Q116.1094 -4.7031 115.8594 -5.0547 Q115.6094 -5.4062 115.3984 -5.5469 Q115.1875 -5.6875 114.9531 -5.7422 Q114.7188 -5.7969 114.2344 -5.7969 L113.1562 -5.7969 ZM113.1562 -12.4375 L113.1562 -6.625 L114.2656 -6.625 Q115.1094 -6.625 115.6406 -6.75 Q116.1719 -6.875 116.6172 -7.2188 Q117.0625 -7.5625 117.3359 -8.1719 Q117.6094 -8.7812 117.6094 -9.6719 Q117.6094 -10.5938 117.2891 -11.2109 Q116.9688 -11.8281 116.3281 -12.1484 Q115.6875 -12.4688 114.5938 -12.4688 Q113.7031 -12.4688 113.1562 -12.4375 ZM131.5312 -0.0469 L130.7656 0.1562 L130.0469 -0.6094 Q129.4219 -0.2188 128.7266 -0.0312 Q128.0312 0.1562 127.1406 0.1562 Q124.6562 0.1562 123.4062 -1.5391 Q122.1562 -3.2344 122.1562 -6.5781 Q122.1562 -8.6562 122.8438 -10.2266 Q123.5312 -11.7969 124.8125 -12.6406 Q126.0938 -13.4844 127.8125 -13.4844 Q128.7188 -13.4844 129.5625 -13.3828 Q130.4062 -13.2812 131.4375 -13.0312 L131.4375 -10.3438 L130.4688 -10.3438 Q130.2031 -11.2188 129.8438 -11.7109 Q129.4844 -12.2031 128.9766 -12.4141 Q128.4688 -12.625 127.7031 -12.625 Q126.6406 -12.625 125.8359 -11.9453 Q125.0312 -11.2656 124.5859 -9.9297 Q124.1406 -8.5938 124.1406 -6.7031 Q124.1406 -4.7969 124.5156 -3.4375 Q124.8906 -2.0781 125.6328 -1.3906 Q126.375 -0.7031 127.4688 -0.7031 Q128.625 -0.7031 129.1797 -1.2031 Q129.7344 -1.7031 129.7344 -2.75 L129.7344 -3.3438 Q129.7344 -4.2188 129.6406 -4.6094 Q129.5469 -5 129.3125 -5.2188 Q129.0781 -5.4375 128.5469 -5.5625 L128.5469 -6.0469 L132.4844 -6.0469 L132.4844 -5.5625 Q132.1406 -5.4531 131.9609 -5.2969 Q131.7812 -5.1406 131.6875 -4.9219 Q131.5938 -4.7031 131.5625 -4.375 Q131.5312 -4.0469 131.5312 -3.4375 L131.5312 -0.0469 ZM143.3125 -13.3281 L143.3125 -10.375 L142.3594 -10.375 Q142.2031 -10.8594 142.0469 -11.2188 Q141.8906 -11.5781 141.7266 -11.8281 Q141.5625 -12.0781 141.3672 -12.2188 Q141.1719 -12.3594 140.8984 -12.4141 Q140.625 -12.4688 140.2344 -12.4688 L137.1562 -12.4688 L137.1562 -7.3594 L139.2344 -7.3594 Q139.6719 -7.3594 139.9141 -7.4766 Q140.1562 -7.5938 140.3203 -7.8906 Q140.4844 -8.1875 140.625 -8.8125 L141.5469 -8.8125 L141.5469 -5.0625 L140.625 -5.0625 Q140.4844 -5.6406 140.3203 -5.9375 Q140.1562 -6.2344 139.9297 -6.3672 Q139.7031 -6.5 139.2344 -6.5 L137.1562 -6.5 L137.1562 -0.8594 L140.1875 -0.8594 Q140.6719 -0.8594 140.9688 -0.9453 Q141.2656 -1.0312 141.4766 -1.2266 Q141.6875 -1.4219 141.8594 -1.75 Q142.0312 -2.0781 142.1406 -2.4219 Q142.25 -2.7656 142.4375 -3.4219 L143.4062 -3.4219 L143.2188 0 L134.1875 0 L134.1875 -0.4844 Q134.7812 -0.6406 134.9922 -0.8281 Q135.2031 -1.0156 135.2656 -1.3672 Q135.3281 -1.7188 135.3281 -2.4375 L135.3281 -10.8906 Q135.3281 -11.5625 135.2812 -11.8672 Q135.2344 -12.1719 135.1172 -12.3438 Q135 -12.5156 134.8125 -12.6172 Q134.625 -12.7188 134.1875 -12.8594 L134.1875 -13.3281 L143.3125 -13.3281 ZM145.6406 -13.3281 L156.2188 -13.3281 L156.2188 -9.9375 L155.25 -9.9375 Q155.0469 -10.7656 154.8359 -11.2578 Q154.625 -11.75 154.3906 -12 Q154.1562 -12.25 153.8828 -12.3594 Q153.6094 -12.4688 153.0781 -12.4688 L151.8438 -12.4688 L151.8438 -2.4688 Q151.8438 -1.8906 151.9062 -1.5547 Q151.9688 -1.2188 152.1016 -1.0156 Q152.2344 -0.8125 152.4531 -0.7031 Q152.6719 -0.5938 153.1562 -0.4844 L153.1562 0 L148.6875 0 L148.6875 -0.4844 Q148.9844 -0.5469 149.2109 -0.625 Q149.4375 -0.7031 149.5781 -0.8125 Q149.7188 -0.9219 149.8125 -1.1016 Q149.9062 -1.2812 149.9609 -1.5859 Q150.0156 -1.8906 150.0156 -2.4688 L150.0156 -12.4688 L148.7812 -12.4688 Q148.3281 -12.4688 148.0234 -12.3828 Q147.7188 -12.2969 147.4688 -12.0156 Q147.2188 -11.7344 147.0078 -11.2266 Q146.7969 -10.7188 146.6094 -9.9375 L145.6406 -9.9375 L145.6406 -13.3281 ZM170.0312 -5.2812 Q170.375 -4.7031 170.6172 -4.2578 Q170.8594 -3.8125 171.1094 -3.2656 L171.2344 -3.2656 Q171.1875 -3.875 171.1484 -5.6406 Q171.1094 -7.4062 171.1094 -8.8438 L171.1094 -10.8906 Q171.1094 -11.5625 171.0703 -11.875 Q171.0312 -12.1875 170.9297 -12.3516 Q170.8281 -12.5156 170.6484 -12.6172 Q170.4688 -12.7188 170.0156 -12.8594 L170.0156 -13.3281 L173.5312 -13.3281 L173.5312 -12.8594 Q173.0938 -12.7344 172.9141 -12.6406 Q172.7344 -12.5469 172.6172 -12.3906 Q172.5 -12.2344 172.4453 -11.9219 Q172.3906 -11.6094 172.3906 -10.8906 L172.3906 0.0625 L171.1719 0.0625 L165.7344 -9.0625 Q165.2188 -9.9062 165.0078 -10.2969 Q164.7969 -10.6875 164.6094 -11.0781 L164.4375 -11.0781 Q164.5 -10.3281 164.5312 -8.3594 Q164.5625 -6.3906 164.5625 -4.4375 L164.5625 -2.4375 Q164.5625 -1.7812 164.6094 -1.4844 Q164.6562 -1.1875 164.7578 -1.0078 Q164.8594 -0.8281 165.0625 -0.7109 Q165.2656 -0.5938 165.7031 -0.4844 L165.7031 0 L162.1406 0 L162.1406 -0.4844 Q162.75 -0.6406 162.9531 -0.8281 Q163.1562 -1.0156 163.2188 -1.3672 Q163.2812 -1.7188 163.2812 -2.4375 L163.2812 -10.8906 Q163.2812 -11.5625 163.2344 -11.8672 Q163.1875 -12.1719 163.0781 -12.3438 Q162.9688 -12.5156 162.7812 -12.6172 Q162.5938 -12.7188 162.1406 -12.8594 L162.1406 -13.3281 L165.2031 -13.3281 L170.0312 -5.2812 ZM181.3906 0.1562 Q180.2188 0.1562 179.2578 -0.2266 Q178.2969 -0.6094 177.6094 -1.4297 Q176.9219 -2.25 176.5391 -3.5156 Q176.1562 -4.7812 176.1562 -6.5469 Q176.1562 -8.7344 176.8203 -10.2969 Q177.4844 -11.8594 178.7266 -12.6719 Q179.9688 -13.4844 181.5938 -13.4844 Q183.3281 -13.4844 184.5156 -12.7188 Q185.7031 -11.9531 186.3047 -10.4609 Q186.9062 -8.9688 186.9062 -6.8438 Q186.9062 -4.5469 186.2188 -2.9766 Q185.5312 -1.4062 184.2891 -0.625 Q183.0469 0.1562 181.3906 0.1562 ZM178.1719 -6.8281 Q178.1719 -3.8281 179.0469 -2.2656 Q179.9219 -0.7031 181.6094 -0.7031 Q182.6719 -0.7031 183.4141 -1.3828 Q184.1562 -2.0625 184.5234 -3.3672 Q184.8906 -4.6719 184.8906 -6.4219 Q184.8906 -8.5625 184.4609 -9.9609 Q184.0312 -11.3594 183.2734 -11.9922 Q182.5156 -12.625 181.5312 -12.625 Q180.6406 -12.625 180.0156 -12.2188 Q179.3906 -11.8125 178.9766 -11.0547 Q178.5625 -10.2969 178.3672 -9.2188 Q178.1719 -8.1406 178.1719 -6.8281 ZM192.1562 -5.7969 L192.1562 -2.4688 Q192.1562 -1.7656 192.2109 -1.4531 Q192.2656 -1.1406 192.375 -0.9766 Q192.4844 -0.8125 192.6719 -0.7109 Q192.8594 -0.6094 193.2969 -0.4844 L193.2969 0 L189.1875 0 L189.1875 -0.4844 Q189.7812 -0.6406 189.9922 -0.8281 Q190.2031 -1.0156 190.2656 -1.3672 Q190.3281 -1.7188 190.3281 -2.4375 L190.3281 -10.8906 Q190.3281 -11.5625 190.2812 -11.8672 Q190.2344 -12.1719 190.1172 -12.3438 Q190 -12.5156 189.8125 -12.6172 Q189.625 -12.7188 189.1875 -12.8594 L189.1875 -13.3281 L194.0156 -13.3281 Q196.2969 -13.3281 197.4297 -12.5 Q198.5625 -11.6719 198.5625 -9.9219 Q198.5625 -8.5781 197.8281 -7.6406 Q197.0938 -6.7031 195.625 -6.1875 L195.625 -6.1094 Q196.2188 -5.8594 196.6406 -5.4062 Q197.0625 -4.9531 197.5781 -4 L198.4531 -2.3906 Q198.8438 -1.6875 199.1172 -1.3203 Q199.3906 -0.9531 199.6719 -0.7578 Q199.9531 -0.5625 200.4219 -0.4844 L200.4219 0 L197.7188 0 Q197.3438 -0.5156 197.0156 -1.1094 Q196.6875 -1.7031 196.3594 -2.3281 L195.5 -3.9531 Q195.1094 -4.7031 194.8594 -5.0547 Q194.6094 -5.4062 194.3984 -5.5469 Q194.1875 -5.6875 193.9531 -5.7422 Q193.7188 -5.7969 193.2344 -5.7969 L192.1562 -5.7969 ZM192.1562 -12.4375 L192.1562 -6.625 L193.2656 -6.625 Q194.1094 -6.625 194.6406 -6.75 Q195.1719 -6.875 195.6172 -7.2188 Q196.0625 -7.5625 196.3359 -8.1719 Q196.6094 -8.7812 196.6094 -9.6719 Q196.6094 -10.5938 196.2891 -11.2109 Q195.9688 -11.8281 195.3281 -12.1484 Q194.6875 -12.4688 193.5938 -12.4688 Q192.7031 -12.4688 192.1562 -12.4375 ZM215.125 -12.8594 Q214.7031 -12.75 214.5078 -12.6406 Q214.3125 -12.5312 214.2031 -12.3672 Q214.0938 -12.2031 214.0391 -11.8828 Q213.9844 -11.5625 213.9844 -10.8906 L213.9844 -2.4375 Q213.9844 -1.7812 214.0312 -1.4844 Q214.0781 -1.1875 214.1797 -1.0078 Q214.2812 -0.8281 214.4766 -0.7109 Q214.6719 -0.5938 215.125 -0.4844 L215.125 0 L211.0625 0 L211.0625 -0.4844 Q211.6094 -0.6094 211.8281 -0.7891 Q212.0469 -0.9688 212.125 -1.3125 Q212.2031 -1.6562 212.2031 -2.4375 L212.2031 -6.1875 Q212.2031 -7.6562 212.2422 -9.1641 Q212.2812 -10.6719 212.3438 -11.2344 L212.1719 -11.2344 L208.3125 -1.5469 L207.1875 -1.5469 L203.5938 -11.3906 L203.4219 -11.3906 Q203.4844 -10.7969 203.5234 -9.2344 Q203.5625 -7.6719 203.5625 -6.0156 L203.5625 -2.4375 Q203.5625 -1.7812 203.6094 -1.4844 Q203.6562 -1.1875 203.7578 -1.0078 Q203.8594 -0.8281 204.0625 -0.7109 Q204.2656 -0.5938 204.7031 -0.4844 L204.7031 0 L201.1406 0 L201.1406 -0.4844 Q201.75 -0.6406 201.9531 -0.8281 Q202.1562 -1.0156 202.2188 -1.3672 Q202.2812 -1.7188 202.2812 -2.4375 L202.2812 -10.8906 Q202.2812 -11.5625 202.2344 -11.8672 Q202.1875 -12.1719 202.0781 -12.3438 Q201.9688 -12.5156 201.7812 -12.6172 Q201.5938 -12.7188 201.1406 -12.8594 L201.1406 -13.3281 L204.625 -13.3281 L208.0625 -3.8281 L211.8281 -13.3281 L215.125 -13.3281 L215.125 -12.8594 Z" stroke="none"/></g></g></svg>