<?xml version="1.0" encoding="UTF-8" standalone="no"?><svg xmlns="http://www.w3.org/2000/svg" xmlns:xlink="http://www.w3.org/1999/xlink" stroke-dasharray="none" shape-rendering="auto" font-family="'Dialog'" width="110.812600" text-rendering="auto" fill-opacity="1" contentScriptType="text/ecmascript" color-interpolation="auto" color-rendering="auto" preserveAspectRatio="xMidYMid meet" font-size="12" fill="black" stroke="black" image-rendering="auto" stroke-miterlimit="10" zoomAndPan="magnify" version="1.0" stroke-linecap="square" stroke-linejoin="miter" contentStyleType="text/css" font-style="normal" height="36" stroke-width="1" stroke-dashoffset="0" font-weight="normal" stroke-opacity="1" y="-5.000000"><!--Converted from MathML using JEuclid--><defs id="genericDefs"/><g><g text-rendering="optimizeLegibility" transform="translate(0.2344,31)" color-rendering="optimizeQuality" color-interpolation="linearRGB" image-rendering="optimizeQuality"><path d="M7.2188 4.25 Q5.5625 4.25 4.5078 3.75 Q3.4531 3.25 2.8672 2.2344 Q2.2812 1.2188 2.0234 -0.4141 Q1.7656 -2.0469 1.7656 -4.8438 Q1.7656 -7.625 2.0234 -9.2656 Q2.2812 -10.9062 2.8672 -11.9453 Q3.4531 -12.9844 4.5078 -13.5 Q5.5625 -14.0156 7.2188 -14.0156 L7.2188 -13.2188 Q6.5312 -13.2188 6 -13.0938 Q5.4062 -12.9531 4.9844 -12.5625 Q4.5156 -12.1406 4.2344 -11.375 Q3.8906 -10.4688 3.7188 -8.9844 Q3.5469 -7.4062 3.5469 -4.9219 Q3.5469 -2.7188 3.6953 -1.1797 Q3.8438 0.3594 4.1875 1.3281 Q4.4531 2.1562 4.8594 2.6094 Q5.2188 3.0156 5.7188 3.2188 Q6.2969 3.4531 7.2188 3.4531 L7.2188 4.25 Z" stroke="none"/></g><g text-rendering="optimizeLegibility" transform="translate(10.2188,31)" color-rendering="optimizeQuality" color-interpolation="linearRGB" image-rendering="optimizeQuality"><path d="M1.2344 -5.0469 L1.2344 -6.3906 L9.8281 -6.3906 L9.8281 -5.0469 L1.2344 -5.0469 Z" stroke="none"/></g><g text-rendering="optimizeLegibility" transform="translate(22.0469,31)" color-rendering="optimizeQuality" color-interpolation="linearRGB" image-rendering="optimizeQuality"><path d="M10.7812 -8.0156 L7.9062 -8.0156 L7.875 -7.9375 Q9.2188 -6.9844 9.2188 -5.1875 Q9.2188 -3.1719 7.8438 -1.5078 Q6.4688 0.1562 4.0625 0.1562 Q2.5781 0.1562 1.7031 -0.7891 Q0.8281 -1.7344 0.8281 -3.3281 Q0.8281 -4.9375 1.4609 -6.2031 Q2.0938 -7.4688 3.1172 -8.1953 Q4.1406 -8.9219 5.2578 -9.1328 Q6.375 -9.3438 8.3281 -9.3438 L11.0469 -9.3438 L10.7812 -8.0156 ZM6.6875 -7.9844 Q5.4375 -7.9844 4.625 -7.5 Q3.8125 -7.0156 3.1641 -5.8516 Q2.5156 -4.6875 2.5156 -2.875 Q2.5156 -1.7969 3.0156 -1.2031 Q3.5156 -0.6094 4.2656 -0.6094 Q5.6094 -0.6094 6.5469 -2.1328 Q7.4844 -3.6562 7.4844 -5.5156 Q7.4844 -6.9688 6.6875 -7.9844 Z" stroke="none"/></g><g text-rendering="optimizeLegibility" transform="translate(22.3594,31.7812)" color-rendering="optimizeQuality" color-interpolation="linearRGB" image-rendering="optimizeQuality"><path d="M9.9688 -11.125 L0.2344 -11.125 Q-0.0156 -11.125 -0.1172 -11.2266 Q-0.2188 -11.3281 -0.2188 -11.4844 Q-0.2188 -11.625 -0.1172 -11.7266 Q-0.0156 -11.8281 0.2344 -11.8281 L9.9688 -11.8281 Q10.2188 -11.8281 10.3203 -11.7266 Q10.4219 -11.625 10.4219 -11.4688 Q10.4219 -11.3281 10.3203 -11.2266 Q10.2188 -11.125 9.9688 -11.125 Z" stroke="none"/></g><g text-rendering="optimizeLegibility" transform="translate(33.0938,23.2188)" color-rendering="optimizeQuality" color-interpolation="linearRGB" image-rendering="optimizeQuality"><path d="M5.0312 -4.8906 Q5.0156 -5.4219 4.9453 -5.6484 Q4.875 -5.875 4.7109 -5.9922 Q4.5469 -6.1094 4.25 -6.1094 Q3.5625 -6.1094 3.0156 -5.5625 Q2.4688 -5.0156 2.1172 -4.0078 Q1.7656 -3 1.7656 -2.0625 Q1.7656 -1.7812 1.8125 -1.5234 Q1.8594 -1.2656 1.9922 -1.0859 Q2.125 -0.9062 2.3281 -0.7969 Q2.5312 -0.6875 2.8594 -0.6875 Q3.4844 -0.6875 3.9375 -0.9219 Q4.3906 -1.1562 4.8906 -1.6719 L5.3125 -1.25 Q4.6719 -0.5469 4.0156 -0.2188 Q3.3594 0.1094 2.6094 0.1094 Q1.625 0.1094 1.1094 -0.4766 Q0.5938 -1.0625 0.5938 -2.1875 Q0.5938 -2.9062 0.8672 -3.7812 Q1.1406 -4.6562 1.6641 -5.3203 Q2.1875 -5.9844 2.8984 -6.3125 Q3.6094 -6.6406 4.4062 -6.6406 Q4.9531 -6.6406 5.3594 -6.5781 Q5.7656 -6.5156 6.0781 -6.4375 L5.75 -4.8906 L5.0312 -4.8906 Z" stroke="none"/></g><g text-rendering="optimizeLegibility" transform="translate(39.1719,23.2188)" color-rendering="optimizeQuality" color-interpolation="linearRGB" image-rendering="optimizeQuality"><path d="M2.7188 -6.5938 L3.125 -6.5938 L2.6562 -4.9219 L2.7344 -4.8906 Q3.3906 -5.7812 4.0078 -6.2109 Q4.625 -6.6406 5.2812 -6.6406 Q5.7812 -6.6406 6.1094 -6.5625 L5.7812 -5.0312 L5.0781 -5.0312 Q5.0312 -5.3906 4.9141 -5.5781 Q4.7969 -5.7656 4.5469 -5.7656 Q4.2812 -5.7656 3.9297 -5.4922 Q3.5781 -5.2188 3.2188 -4.7422 Q2.8594 -4.2656 2.6797 -3.8594 Q2.5 -3.4531 2.4062 -2.9531 L1.7812 0 L0.5938 0 L1.6406 -4.6719 Q1.7812 -5.3125 1.7812 -5.6406 Q1.7812 -5.8438 1.7188 -5.9453 Q1.6562 -6.0469 1.5156 -6.1016 Q1.375 -6.1562 1.0469 -6.1719 L1.125 -6.5312 L2.7188 -6.5938 Z" stroke="none"/></g><g text-rendering="optimizeLegibility" transform="translate(47.0469,31)" color-rendering="optimizeQuality" color-interpolation="linearRGB" image-rendering="optimizeQuality"><path d="M3.0156 -2.2656 Q3.1562 -1.5781 3.1562 -0.9219 Q3.1562 -0.2344 2.9219 0.3359 Q2.6875 0.9062 2.1719 1.4609 Q1.6562 2.0156 0.7656 2.7031 L0.2344 2.0938 Q0.7344 1.625 0.9609 1.25 Q1.1875 0.875 1.2812 0.3984 Q1.375 -0.0781 1.375 -0.7969 Q1.375 -1.5469 1.3125 -2.2656 L3.0156 -2.2656 Z" stroke="none"/></g><g text-rendering="optimizeLegibility" stroke-width="1.6667" color-interpolation="linearRGB" color-rendering="optimizeQuality" image-rendering="optimizeQuality"><line y2="23.78" fill="none" x1="56.8809" x2="73.2487" y1="23.78"/><line y2="20.6772" fill="none" stroke-width="1.1833" x1="58.0642" x2="61.0423" y1="11.3572"/><line y2="0.6656" fill="none" stroke-width="1.1833" x1="61.0423" x2="64.0203" y1="20.6772"/><line y2="0.6656" fill="none" stroke-width="1.1833" x1="64.0203" x2="72.0653" y1="0.6656"/><path d="M1.0938 -7.3906 L1.0938 -8.7031 Q1.875 -9.0781 2.5703 -9.2578 Q3.2656 -9.4375 3.9062 -9.4375 Q4.6719 -9.4375 5.2578 -9.2031 Q5.8438 -8.9688 6.1484 -8.5156 Q6.4531 -8.0625 6.4531 -7.4375 Q6.4531 -6.8594 6.2188 -6.4219 Q5.9844 -5.9844 5.5625 -5.6562 Q5.1406 -5.3281 4.4844 -5.0156 L4.4844 -4.9531 Q4.8906 -4.875 5.2812 -4.6953 Q5.6719 -4.5156 5.9688 -4.2266 Q6.2656 -3.9375 6.4453 -3.5391 Q6.625 -3.1406 6.625 -2.625 Q6.625 -1.8281 6.2812 -1.2188 Q5.9375 -0.6094 5.2266 -0.25 Q4.5156 0.1094 3.5 0.1094 Q2.9062 0.1094 2.2266 -0.0234 Q1.5469 -0.1562 0.9844 -0.375 L0.9844 -1.8281 L1.8125 -1.8281 Q2.0469 -1.1094 2.4375 -0.7891 Q2.8281 -0.4688 3.5 -0.4688 Q4.3906 -0.4688 4.8516 -0.9531 Q5.3125 -1.4375 5.3125 -2.3906 Q5.3125 -3.3906 4.7109 -3.9141 Q4.1094 -4.4375 2.9375 -4.4375 L2.3281 -4.4375 L2.3281 -5.0469 Q3.25 -5.0938 3.8828 -5.3984 Q4.5156 -5.7031 4.8203 -6.1719 Q5.125 -6.6406 5.125 -7.2344 Q5.125 -7.9844 4.7266 -8.3984 Q4.3281 -8.8125 3.5469 -8.8125 Q2.9062 -8.8125 2.5 -8.4609 Q2.0938 -8.1094 1.9062 -7.3906 L1.0938 -7.3906 Z" stroke-width="1" transform="translate(64.0203,16.6772)" stroke="none"/></g><g text-rendering="optimizeLegibility" transform="translate(61.7523,35.7286)" color-rendering="optimizeQuality" color-interpolation="linearRGB" image-rendering="optimizeQuality"><path d="M1.0938 -7.3906 L1.0938 -8.7031 Q1.875 -9.0781 2.5703 -9.2578 Q3.2656 -9.4375 3.9062 -9.4375 Q4.6719 -9.4375 5.2578 -9.2031 Q5.8438 -8.9688 6.1484 -8.5156 Q6.4531 -8.0625 6.4531 -7.4375 Q6.4531 -6.8594 6.2188 -6.4219 Q5.9844 -5.9844 5.5625 -5.6562 Q5.1406 -5.3281 4.4844 -5.0156 L4.4844 -4.9531 Q4.8906 -4.875 5.2812 -4.6953 Q5.6719 -4.5156 5.9688 -4.2266 Q6.2656 -3.9375 6.4453 -3.5391 Q6.625 -3.1406 6.625 -2.625 Q6.625 -1.8281 6.2812 -1.2188 Q5.9375 -0.6094 5.2266 -0.25 Q4.5156 0.1094 3.5 0.1094 Q2.9062 0.1094 2.2266 -0.0234 Q1.5469 -0.1562 0.9844 -0.375 L0.9844 -1.8281 L1.8125 -1.8281 Q2.0469 -1.1094 2.4375 -0.7891 Q2.8281 -0.4688 3.5 -0.4688 Q4.3906 -0.4688 4.8516 -0.9531 Q5.3125 -1.4375 5.3125 -2.3906 Q5.3125 -3.3906 4.7109 -3.9141 Q4.1094 -4.4375 2.9375 -4.4375 L2.3281 -4.4375 L2.3281 -5.0469 Q3.25 -5.0938 3.8828 -5.3984 Q4.5156 -5.7031 4.8203 -6.1719 Q5.125 -6.6406 5.125 -7.2344 Q5.125 -7.9844 4.7266 -8.3984 Q4.3281 -8.8125 3.5469 -8.8125 Q2.9062 -8.8125 2.5 -8.4609 Q2.0938 -8.1094 1.9062 -7.3906 L1.0938 -7.3906 Z" stroke="none"/></g><g text-rendering="optimizeLegibility" transform="translate(76.5931,31)" color-rendering="optimizeQuality" color-interpolation="linearRGB" image-rendering="optimizeQuality"><path d="M10.7812 -8.0156 L7.9062 -8.0156 L7.875 -7.9375 Q9.2188 -6.9844 9.2188 -5.1875 Q9.2188 -3.1719 7.8438 -1.5078 Q6.4688 0.1562 4.0625 0.1562 Q2.5781 0.1562 1.7031 -0.7891 Q0.8281 -1.7344 0.8281 -3.3281 Q0.8281 -4.9375 1.4609 -6.2031 Q2.0938 -7.4688 3.1172 -8.1953 Q4.1406 -8.9219 5.2578 -9.1328 Q6.375 -9.3438 8.3281 -9.3438 L11.0469 -9.3438 L10.7812 -8.0156 ZM6.6875 -7.9844 Q5.4375 -7.9844 4.625 -7.5 Q3.8125 -7.0156 3.1641 -5.8516 Q2.5156 -4.6875 2.5156 -2.875 Q2.5156 -1.7969 3.0156 -1.2031 Q3.5156 -0.6094 4.2656 -0.6094 Q5.6094 -0.6094 6.5469 -2.1328 Q7.4844 -3.6562 7.4844 -5.5156 Q7.4844 -6.9688 6.6875 -7.9844 Z" stroke="none"/></g><g text-rendering="optimizeLegibility" transform="translate(76.9056,31.7812)" color-rendering="optimizeQuality" color-interpolation="linearRGB" image-rendering="optimizeQuality"><path d="M9.9688 -11.125 L0.2344 -11.125 Q-0.0156 -11.125 -0.1172 -11.2266 Q-0.2188 -11.3281 -0.2188 -11.4844 Q-0.2188 -11.625 -0.1172 -11.7266 Q-0.0156 -11.8281 0.2344 -11.8281 L9.9688 -11.8281 Q10.2188 -11.8281 10.3203 -11.7266 Q10.4219 -11.625 10.4219 -11.4688 Q10.4219 -11.3281 10.3203 -11.2266 Q10.2188 -11.125 9.9688 -11.125 Z" stroke="none"/></g><g text-rendering="optimizeLegibility" transform="translate(87.64,23.2188)" color-rendering="optimizeQuality" color-interpolation="linearRGB" image-rendering="optimizeQuality"><path d="M5.0312 -4.8906 Q5.0156 -5.4219 4.9453 -5.6484 Q4.875 -5.875 4.7109 -5.9922 Q4.5469 -6.1094 4.25 -6.1094 Q3.5625 -6.1094 3.0156 -5.5625 Q2.4688 -5.0156 2.1172 -4.0078 Q1.7656 -3 1.7656 -2.0625 Q1.7656 -1.7812 1.8125 -1.5234 Q1.8594 -1.2656 1.9922 -1.0859 Q2.125 -0.9062 2.3281 -0.7969 Q2.5312 -0.6875 2.8594 -0.6875 Q3.4844 -0.6875 3.9375 -0.9219 Q4.3906 -1.1562 4.8906 -1.6719 L5.3125 -1.25 Q4.6719 -0.5469 4.0156 -0.2188 Q3.3594 0.1094 2.6094 0.1094 Q1.625 0.1094 1.1094 -0.4766 Q0.5938 -1.0625 0.5938 -2.1875 Q0.5938 -2.9062 0.8672 -3.7812 Q1.1406 -4.6562 1.6641 -5.3203 Q2.1875 -5.9844 2.8984 -6.3125 Q3.6094 -6.6406 4.4062 -6.6406 Q4.9531 -6.6406 5.3594 -6.5781 Q5.7656 -6.5156 6.0781 -6.4375 L5.75 -4.8906 L5.0312 -4.8906 Z" stroke="none"/></g><g text-rendering="optimizeLegibility" transform="translate(93.7181,23.2188)" color-rendering="optimizeQuality" color-interpolation="linearRGB" image-rendering="optimizeQuality"><path d="M2.7188 -6.5938 L3.125 -6.5938 L2.6562 -4.9219 L2.7344 -4.8906 Q3.3906 -5.7812 4.0078 -6.2109 Q4.625 -6.6406 5.2812 -6.6406 Q5.7812 -6.6406 6.1094 -6.5625 L5.7812 -5.0312 L5.0781 -5.0312 Q5.0312 -5.3906 4.9141 -5.5781 Q4.7969 -5.7656 4.5469 -5.7656 Q4.2812 -5.7656 3.9297 -5.4922 Q3.5781 -5.2188 3.2188 -4.7422 Q2.8594 -4.2656 2.6797 -3.8594 Q2.5 -3.4531 2.4062 -2.9531 L1.7812 0 L0.5938 0 L1.6406 -4.6719 Q1.7812 -5.3125 1.7812 -5.6406 Q1.7812 -5.8438 1.7188 -5.9453 Q1.6562 -6.0469 1.5156 -6.1016 Q1.375 -6.1562 1.0469 -6.1719 L1.125 -6.5312 L2.7188 -6.5938 Z" stroke="none"/></g><g text-rendering="optimizeLegibility" transform="translate(101.4056,31)" color-rendering="optimizeQuality" color-interpolation="linearRGB" image-rendering="optimizeQuality"><path d="M0.4219 -14.0156 Q2.0781 -14.0156 3.1328 -13.5156 Q4.1875 -13.0156 4.7734 -12 Q5.3594 -10.9844 5.6172 -9.3516 Q5.875 -7.7188 5.875 -4.9219 Q5.875 -2.1562 5.6172 -0.5078 Q5.3594 1.1406 4.7734 2.1797 Q4.1875 3.2188 3.1328 3.7344 Q2.0781 4.25 0.4219 4.25 L0.4219 3.4531 Q1.1094 3.4531 1.625 3.3281 Q2.2344 3.1875 2.6406 2.7969 Q3.1094 2.375 3.4062 1.6094 Q3.75 0.7031 3.9219 -0.7812 Q4.0938 -2.3594 4.0938 -4.8438 Q4.0938 -7.0469 3.9453 -8.5859 Q3.7969 -10.125 3.4531 -11.0938 Q3.1875 -11.9219 2.7812 -12.375 Q2.4062 -12.7812 1.9219 -12.9844 Q1.3438 -13.2188 0.4219 -13.2188 L0.4219 -14.0156 Z" stroke="none"/></g></g></svg>