<?xml version="1.0" encoding="UTF-8" standalone="no"?><svg xmlns="http://www.w3.org/2000/svg" xmlns:xlink="http://www.w3.org/1999/xlink" stroke-dasharray="none" shape-rendering="auto" font-family="'Dialog'" width="222.812600" text-rendering="auto" fill-opacity="1" contentScriptType="text/ecmascript" color-interpolation="auto" color-rendering="auto" preserveAspectRatio="xMidYMid meet" font-size="12" fill="black" stroke="black" image-rendering="auto" stroke-miterlimit="10" zoomAndPan="magnify" version="1.0" stroke-linecap="square" stroke-linejoin="miter" contentStyleType="text/css" font-style="normal" height="27" stroke-width="1" stroke-dashoffset="0" font-weight="normal" stroke-opacity="1" y="-9.000000"><!--Converted from MathML using JEuclid--><defs id="genericDefs"/><g><g text-rendering="optimizeLegibility" transform="translate(0,18)" color-rendering="optimizeQuality" color-interpolation="linearRGB" image-rendering="optimizeQuality"><path d="M6.5 -2.2656 Q5.625 -1.0312 4.7891 -0.4453 Q3.9531 0.1406 3.0938 0.1406 Q2.0156 0.1406 1.4219 -0.6641 Q0.8281 -1.4688 0.8281 -2.9375 Q0.8281 -3.875 1.0469 -4.8203 Q1.2656 -5.7656 1.6953 -6.6094 Q2.125 -7.4531 2.7344 -8.0938 Q3.3438 -8.7344 4.1406 -9.1172 Q4.9375 -9.5 5.875 -9.5 Q6.4688 -9.5 7.0156 -9.3594 Q7.5625 -9.2188 8.1562 -8.8594 L9.0469 -9.5 L9.6719 -9.3438 L7.1719 1.7656 Q7.0156 2.5 7.0156 2.875 Q7.0156 3.1719 7.1094 3.3359 Q7.2031 3.5 7.4141 3.5859 Q7.625 3.6719 8.0938 3.7188 L8.0156 4.2031 L4.9688 4.2031 L6.6406 -2.2031 L6.5 -2.2656 ZM7.2969 -5.9531 Q7.3906 -6.375 7.4141 -6.6875 Q7.4375 -7 7.4375 -7.2812 Q7.4375 -8.0312 7.1172 -8.3828 Q6.7969 -8.7344 6.0469 -8.7344 Q5.6406 -8.7344 5.2656 -8.6016 Q4.8906 -8.4688 4.5078 -8.1641 Q4.125 -7.8594 3.7812 -7.3594 Q3.4375 -6.8594 3.1562 -6.1484 Q2.875 -5.4375 2.7188 -4.6172 Q2.5625 -3.7969 2.5625 -3.0312 Q2.5625 -2.0156 2.8359 -1.5078 Q3.1094 -1 3.7656 -1 Q4.0781 -1 4.4062 -1.1406 Q4.7344 -1.2812 5.1328 -1.6484 Q5.5312 -2.0156 6.0312 -2.7188 Q6.5 -3.375 6.7656 -4.0156 Q7.0312 -4.6562 7.2031 -5.5312 L7.2969 -5.9531 Z" stroke="none"/></g><g text-rendering="optimizeLegibility" transform="translate(9.6719,26.8672)" color-rendering="optimizeQuality" color-interpolation="linearRGB" image-rendering="optimizeQuality"><path d="M5.5312 -4.2344 Q5.8594 -3.9844 6.0625 -3.6406 Q6.2656 -3.2969 6.3906 -2.6875 L6.5469 -1.9062 Q6.5938 -1.6562 6.6484 -1.4453 Q6.7031 -1.2344 6.7812 -1.0391 Q6.8594 -0.8438 6.9531 -0.7266 Q7.0469 -0.6094 7.1562 -0.5312 Q7.2656 -0.4531 7.3984 -0.4141 Q7.5312 -0.375 7.7344 -0.3281 L7.6562 0 L5.7656 0 Q5.5469 -0.6094 5.375 -1.4531 L5.0781 -2.9062 Q5 -3.2812 4.8984 -3.5312 Q4.7969 -3.7812 4.6484 -3.9219 Q4.5 -4.0625 4.3047 -4.1094 Q4.1094 -4.1562 3.8281 -4.1562 L3.0469 -4.1562 L2.5781 -1.9844 Q2.5156 -1.7188 2.4922 -1.5625 Q2.4688 -1.4062 2.4453 -1.2344 Q2.4219 -1.0625 2.4219 -0.9219 Q2.4219 -0.7188 2.4922 -0.5938 Q2.5625 -0.4688 2.7031 -0.4141 Q2.8438 -0.3594 3.1719 -0.3281 L3.0938 0 L0.2812 0 L0.3594 -0.3281 Q0.625 -0.375 0.75 -0.4688 Q0.875 -0.5625 0.9688 -0.7266 Q1.0625 -0.8906 1.1328 -1.125 Q1.2031 -1.3594 1.3594 -2.0312 L2.5156 -7.2969 Q2.6719 -7.9844 2.6719 -8.375 Q2.6719 -8.7188 2.5156 -8.8438 Q2.3594 -8.9688 2 -9 L2.0781 -9.3281 L5.125 -9.3281 Q5.8438 -9.3281 6.3047 -9.2422 Q6.7656 -9.1562 7.0859 -8.9844 Q7.4062 -8.8125 7.625 -8.5469 Q7.8438 -8.2812 7.9531 -7.9453 Q8.0625 -7.6094 8.0625 -7.2188 Q8.0625 -6.6094 7.8594 -6.1406 Q7.6562 -5.6719 7.3125 -5.3125 Q6.9688 -4.9531 6.5078 -4.7109 Q6.0469 -4.4688 5.5312 -4.3125 L5.5312 -4.2344 ZM3.9844 -4.75 Q4.7344 -4.75 5.2266 -4.8906 Q5.7188 -5.0312 6.0469 -5.3359 Q6.375 -5.6406 6.5859 -6.1328 Q6.7969 -6.625 6.7969 -7.2031 Q6.7969 -7.5 6.7422 -7.7266 Q6.6875 -7.9531 6.6016 -8.1016 Q6.5156 -8.25 6.375 -8.3672 Q6.2344 -8.4844 6.0312 -8.5703 Q5.8281 -8.6562 5.5547 -8.6953 Q5.2812 -8.7344 4.8125 -8.7344 Q4.4531 -8.7344 4.0469 -8.7031 L3.1719 -4.75 L3.9844 -4.75 Z" stroke="none"/></g><g text-rendering="optimizeLegibility" transform="translate(9.6719,13.2188)" color-rendering="optimizeQuality" color-interpolation="linearRGB" image-rendering="optimizeQuality"><path d="M6.4531 0 L4.2969 0 L5.1562 -3.4688 Q5.25 -3.8125 5.3281 -4.2109 Q5.4062 -4.6094 5.4062 -4.9375 Q5.4062 -5.4219 5.2344 -5.6328 Q5.0625 -5.8438 4.7031 -5.8438 Q4.4219 -5.8438 4.0938 -5.625 Q3.7656 -5.4062 3.3984 -4.9609 Q3.0312 -4.5156 2.7812 -4.0625 Q2.5312 -3.6094 2.4062 -2.9531 L1.7812 0 L0.5938 0 L1.6406 -4.6719 Q1.6719 -4.8281 1.7266 -5.1328 Q1.7812 -5.4375 1.7812 -5.6406 Q1.7812 -5.8438 1.7266 -5.9453 Q1.6719 -6.0469 1.5312 -6.1016 Q1.3906 -6.1562 1.0469 -6.1719 L1.1406 -6.5312 L2.6875 -6.5938 L3.0781 -6.5938 L2.625 -4.8125 L2.7031 -4.7969 Q3.375 -5.7344 3.9922 -6.1875 Q4.6094 -6.6406 5.2344 -6.6406 Q5.9062 -6.6406 6.2422 -6.2734 Q6.5781 -5.9062 6.5781 -5.2031 Q6.5781 -4.9531 6.5391 -4.6641 Q6.5 -4.375 6.4375 -4.1406 L5.8594 -1.7031 Q5.75 -1.2188 5.75 -0.9375 Q5.75 -0.7188 5.8203 -0.6094 Q5.8906 -0.5 6.0312 -0.4375 Q6.1719 -0.375 6.5 -0.3281 L6.4531 0 Z" stroke="none"/></g><g text-rendering="optimizeLegibility" transform="translate(15.4062,13.2188)" color-rendering="optimizeQuality" color-interpolation="linearRGB" image-rendering="optimizeQuality"><path d="M4.375 -3.5312 L4.375 -0.9375 L3.375 -0.9375 L3.375 -3.5312 L0.8438 -3.5312 L0.8438 -4.4844 L3.375 -4.4844 L3.375 -7.0625 L4.375 -7.0625 L4.375 -4.4844 L6.9062 -4.4844 L6.9062 -3.5312 L4.375 -3.5312 Z" stroke="none"/></g><g text-rendering="optimizeLegibility" transform="translate(22.3125,13.2188)" color-rendering="optimizeQuality" color-interpolation="linearRGB" image-rendering="optimizeQuality"><path d="M4.75 -1.7812 Q4.75 -1.3906 4.7969 -1.1875 Q4.8438 -0.9844 4.9531 -0.8594 Q5.0625 -0.7344 5.2734 -0.6641 Q5.4844 -0.5938 5.8047 -0.5547 Q6.125 -0.5156 6.6562 -0.5 L6.6562 0 L1.6094 0 L1.6094 -0.5 Q2.3594 -0.5312 2.6875 -0.5938 Q3.0156 -0.6562 3.1875 -0.7656 Q3.3594 -0.875 3.4375 -1.0938 Q3.5156 -1.3125 3.5156 -1.7812 L3.5156 -7.3281 Q3.5156 -7.6094 3.4219 -7.7344 Q3.3281 -7.8594 3.1406 -7.8594 Q2.9219 -7.8594 2.5156 -7.6328 Q2.1094 -7.4062 1.5156 -7 L1.2188 -7.5312 L4.4219 -9.4375 L4.7969 -9.4375 Q4.75 -8.7812 4.75 -7.625 L4.75 -1.7812 Z" stroke="none"/></g><g text-rendering="optimizeLegibility" transform="translate(29.75,18)" color-rendering="optimizeQuality" color-interpolation="linearRGB" image-rendering="optimizeQuality"><path d="M1.2188 -7.0625 L1.2188 -8.4219 L9.8594 -8.4219 L9.8594 -7.0625 L1.2188 -7.0625 ZM1.2188 -3.0156 L1.2188 -4.3594 L9.8594 -4.3594 L9.8594 -3.0156 L1.2188 -3.0156 Z" stroke="none"/></g><g text-rendering="optimizeLegibility" transform="translate(41.6094,18)" color-rendering="optimizeQuality" color-interpolation="linearRGB" image-rendering="optimizeQuality"><path d="M4.3594 0.1562 Q1.2188 0.1562 1.2188 -3.7812 Q1.2188 -7.1719 3.0547 -10.4688 Q4.8906 -13.7656 7.7031 -13.7656 Q10.6406 -13.7656 10.6406 -9.9062 Q10.6406 -6.4844 8.8594 -3.1641 Q7.0781 0.1562 4.3594 0.1562 ZM3.6094 -7.5469 L8.625 -7.5469 Q9 -9.6094 9 -10.7188 Q9 -12.9375 7.5 -12.9375 Q6.3594 -12.9375 5.3438 -11.5312 Q4.3281 -10.125 3.6094 -7.5469 ZM3.3594 -6.625 Q2.8438 -4.4219 2.8438 -2.9219 Q2.8438 -0.6719 4.5469 -0.6719 Q5.75 -0.6719 6.75 -2.2422 Q7.75 -3.8125 8.4219 -6.625 L3.3594 -6.625 Z" stroke="none"/></g><g text-rendering="optimizeLegibility" transform="translate(52.25,18)" color-rendering="optimizeQuality" color-interpolation="linearRGB" image-rendering="optimizeQuality"><path d="M5.4688 -13.1719 L5.0156 -11.2656 L3.2969 -11.2656 L3.7344 -13.1719 L5.4688 -13.1719 ZM3.0625 -2.4375 Q2.9531 -1.9375 2.9219 -1.7109 Q2.8906 -1.4844 2.8906 -1.3281 Q2.8906 -1.0312 2.9922 -0.8672 Q3.0938 -0.7031 3.2969 -0.6172 Q3.5 -0.5312 3.9688 -0.4844 L3.875 0 L0.8438 0 L2.3281 -6.5781 Q2.4531 -7.1562 2.5 -7.4922 Q2.5469 -7.8281 2.5469 -8.0469 Q2.5469 -8.3281 2.4688 -8.4844 Q2.3906 -8.6406 2.1953 -8.7188 Q2 -8.7969 1.5156 -8.8125 L1.625 -9.3438 L4 -9.4219 L4.5781 -9.4219 L3.0625 -2.4375 Z" stroke="none"/></g><g text-rendering="optimizeLegibility" transform="translate(57.7188,22.6641)" color-rendering="optimizeQuality" color-interpolation="linearRGB" image-rendering="optimizeQuality"><path d="M5.5312 -4.2344 Q5.8594 -3.9844 6.0625 -3.6406 Q6.2656 -3.2969 6.3906 -2.6875 L6.5469 -1.9062 Q6.5938 -1.6562 6.6484 -1.4453 Q6.7031 -1.2344 6.7812 -1.0391 Q6.8594 -0.8438 6.9531 -0.7266 Q7.0469 -0.6094 7.1562 -0.5312 Q7.2656 -0.4531 7.3984 -0.4141 Q7.5312 -0.375 7.7344 -0.3281 L7.6562 0 L5.7656 0 Q5.5469 -0.6094 5.375 -1.4531 L5.0781 -2.9062 Q5 -3.2812 4.8984 -3.5312 Q4.7969 -3.7812 4.6484 -3.9219 Q4.5 -4.0625 4.3047 -4.1094 Q4.1094 -4.1562 3.8281 -4.1562 L3.0469 -4.1562 L2.5781 -1.9844 Q2.5156 -1.7188 2.4922 -1.5625 Q2.4688 -1.4062 2.4453 -1.2344 Q2.4219 -1.0625 2.4219 -0.9219 Q2.4219 -0.7188 2.4922 -0.5938 Q2.5625 -0.4688 2.7031 -0.4141 Q2.8438 -0.3594 3.1719 -0.3281 L3.0938 0 L0.2812 0 L0.3594 -0.3281 Q0.625 -0.375 0.75 -0.4688 Q0.875 -0.5625 0.9688 -0.7266 Q1.0625 -0.8906 1.1328 -1.125 Q1.2031 -1.3594 1.3594 -2.0312 L2.5156 -7.2969 Q2.6719 -7.9844 2.6719 -8.375 Q2.6719 -8.7188 2.5156 -8.8438 Q2.3594 -8.9688 2 -9 L2.0781 -9.3281 L5.125 -9.3281 Q5.8438 -9.3281 6.3047 -9.2422 Q6.7656 -9.1562 7.0859 -8.9844 Q7.4062 -8.8125 7.625 -8.5469 Q7.8438 -8.2812 7.9531 -7.9453 Q8.0625 -7.6094 8.0625 -7.2188 Q8.0625 -6.6094 7.8594 -6.1406 Q7.6562 -5.6719 7.3125 -5.3125 Q6.9688 -4.9531 6.5078 -4.7109 Q6.0469 -4.4688 5.5312 -4.3125 L5.5312 -4.2344 ZM3.9844 -4.75 Q4.7344 -4.75 5.2266 -4.8906 Q5.7188 -5.0312 6.0469 -5.3359 Q6.375 -5.6406 6.5859 -6.1328 Q6.7969 -6.625 6.7969 -7.2031 Q6.7969 -7.5 6.7422 -7.7266 Q6.6875 -7.9531 6.6016 -8.1016 Q6.5156 -8.25 6.375 -8.3672 Q6.2344 -8.4844 6.0312 -8.5703 Q5.8281 -8.6562 5.5547 -8.6953 Q5.2812 -8.7344 4.8125 -8.7344 Q4.4531 -8.7344 4.0469 -8.7031 L3.1719 -4.75 L3.9844 -4.75 Z" stroke="none"/></g><g text-rendering="optimizeLegibility" transform="translate(57.7188,9.5469)" color-rendering="optimizeQuality" color-interpolation="linearRGB" image-rendering="optimizeQuality"><path d="M6.4531 0 L4.2969 0 L5.1562 -3.4688 Q5.25 -3.8125 5.3281 -4.2109 Q5.4062 -4.6094 5.4062 -4.9375 Q5.4062 -5.4219 5.2344 -5.6328 Q5.0625 -5.8438 4.7031 -5.8438 Q4.4219 -5.8438 4.0938 -5.625 Q3.7656 -5.4062 3.3984 -4.9609 Q3.0312 -4.5156 2.7812 -4.0625 Q2.5312 -3.6094 2.4062 -2.9531 L1.7812 0 L0.5938 0 L1.6406 -4.6719 Q1.6719 -4.8281 1.7266 -5.1328 Q1.7812 -5.4375 1.7812 -5.6406 Q1.7812 -5.8438 1.7266 -5.9453 Q1.6719 -6.0469 1.5312 -6.1016 Q1.3906 -6.1562 1.0469 -6.1719 L1.1406 -6.5312 L2.6875 -6.5938 L3.0781 -6.5938 L2.625 -4.8125 L2.7031 -4.7969 Q3.375 -5.7344 3.9922 -6.1875 Q4.6094 -6.6406 5.2344 -6.6406 Q5.9062 -6.6406 6.2422 -6.2734 Q6.5781 -5.9062 6.5781 -5.2031 Q6.5781 -4.9531 6.5391 -4.6641 Q6.5 -4.375 6.4375 -4.1406 L5.8594 -1.7031 Q5.75 -1.2188 5.75 -0.9375 Q5.75 -0.7188 5.8203 -0.6094 Q5.8906 -0.5 6.0312 -0.4375 Q6.1719 -0.375 6.5 -0.3281 L6.4531 0 Z" stroke="none"/></g><g text-rendering="optimizeLegibility" transform="translate(63.4531,9.5469)" color-rendering="optimizeQuality" color-interpolation="linearRGB" image-rendering="optimizeQuality"><path d="M4.375 -3.5312 L4.375 -0.9375 L3.375 -0.9375 L3.375 -3.5312 L0.8438 -3.5312 L0.8438 -4.4844 L3.375 -4.4844 L3.375 -7.0625 L4.375 -7.0625 L4.375 -4.4844 L6.9062 -4.4844 L6.9062 -3.5312 L4.375 -3.5312 Z" stroke="none"/></g><g text-rendering="optimizeLegibility" transform="translate(70.3594,9.5469)" color-rendering="optimizeQuality" color-interpolation="linearRGB" image-rendering="optimizeQuality"><path d="M4.75 -1.7812 Q4.75 -1.3906 4.7969 -1.1875 Q4.8438 -0.9844 4.9531 -0.8594 Q5.0625 -0.7344 5.2734 -0.6641 Q5.4844 -0.5938 5.8047 -0.5547 Q6.125 -0.5156 6.6562 -0.5 L6.6562 0 L1.6094 0 L1.6094 -0.5 Q2.3594 -0.5312 2.6875 -0.5938 Q3.0156 -0.6562 3.1875 -0.7656 Q3.3594 -0.875 3.4375 -1.0938 Q3.5156 -1.3125 3.5156 -1.7812 L3.5156 -7.3281 Q3.5156 -7.6094 3.4219 -7.7344 Q3.3281 -7.8594 3.1406 -7.8594 Q2.9219 -7.8594 2.5156 -7.6328 Q2.1094 -7.4062 1.5156 -7 L1.2188 -7.5312 L4.4219 -9.4375 L4.7969 -9.4375 Q4.75 -8.7812 4.75 -7.625 L4.75 -1.7812 Z" stroke="none"/></g><g text-rendering="optimizeLegibility" transform="translate(77.5156,18)" color-rendering="optimizeQuality" color-interpolation="linearRGB" image-rendering="optimizeQuality"><path d="M9.75 0 L-0.5 0 L-0.375 -0.6094 L7.3594 -13.4844 L8.7344 -13.4844 L9.8906 -0.6094 L9.75 0 ZM7.6406 -7.0625 Q7.4219 -10.0625 7.4219 -11.3125 L7.3125 -11.3125 L1.5625 -1.4688 L8.0312 -1.4688 L7.6406 -7.0625 Z" stroke="none"/></g><g text-rendering="optimizeLegibility" transform="translate(87.4062,18)" color-rendering="optimizeQuality" color-interpolation="linearRGB" image-rendering="optimizeQuality"><path d="M6.5938 -1.7969 Q5.7969 -0.8281 5.0156 -0.3359 Q4.2344 0.1562 3.3438 0.1562 Q2.3125 0.1562 1.8047 -0.375 Q1.2969 -0.9062 1.2969 -1.9062 Q1.2969 -2.5156 1.4688 -3.2812 L2.6875 -8.3438 L1.2344 -8.3438 L1.3438 -8.8438 Q1.9219 -8.9219 2.2578 -9.1016 Q2.5938 -9.2812 2.8203 -9.5781 Q3.0469 -9.875 3.2422 -10.3516 Q3.4375 -10.8281 3.7344 -11.75 L5.0781 -11.75 L4.5469 -9.3438 L7.6406 -9.3438 L7.4219 -8.3438 L4.3125 -8.3438 L3.375 -4.5625 Q2.9844 -2.9844 2.9844 -2.2031 Q2.9844 -1.6094 3.2422 -1.2969 Q3.5 -0.9844 4 -0.9844 Q4.4531 -0.9844 4.9453 -1.3359 Q5.4375 -1.6875 6.0312 -2.3906 L6.5938 -1.7969 Z" stroke="none"/></g><g text-rendering="optimizeLegibility" transform="translate(95.8281,18)" color-rendering="optimizeQuality" color-interpolation="linearRGB" image-rendering="optimizeQuality"><path d="M6.25 -5.0469 L6.25 -1.3438 L4.8125 -1.3438 L4.8125 -5.0469 L1.2188 -5.0469 L1.2188 -6.3906 L4.8125 -6.3906 L4.8125 -10.0938 L6.25 -10.0938 L6.25 -6.3906 L9.8594 -6.3906 L9.8594 -5.0469 L6.25 -5.0469 Z" stroke="none"/></g><g text-rendering="optimizeLegibility" transform="translate(107.9219,18)" color-rendering="optimizeQuality" color-interpolation="linearRGB" image-rendering="optimizeQuality"><path d="M7.2188 4.25 Q5.5625 4.25 4.5078 3.75 Q3.4531 3.25 2.8672 2.2344 Q2.2812 1.2188 2.0234 -0.4141 Q1.7656 -2.0469 1.7656 -4.8438 Q1.7656 -7.625 2.0234 -9.2656 Q2.2812 -10.9062 2.8672 -11.9453 Q3.4531 -12.9844 4.5078 -13.5 Q5.5625 -14.0156 7.2188 -14.0156 L7.2188 -13.2188 Q6.5312 -13.2188 6 -13.0938 Q5.4062 -12.9531 4.9844 -12.5625 Q4.5156 -12.1406 4.2344 -11.375 Q3.8906 -10.4688 3.7188 -8.9844 Q3.5469 -7.4062 3.5469 -4.9219 Q3.5469 -2.7188 3.6953 -1.1797 Q3.8438 0.3594 4.1875 1.3281 Q4.4531 2.1562 4.8594 2.6094 Q5.2188 3.0156 5.7188 3.2188 Q6.2969 3.4531 7.2188 3.4531 L7.2188 4.25 Z" stroke="none"/></g><g text-rendering="optimizeLegibility" transform="translate(117.1406,18)" color-rendering="optimizeQuality" color-interpolation="linearRGB" image-rendering="optimizeQuality"><path d="M6.7812 -2.5469 Q6.7812 -1.9844 6.8516 -1.6953 Q6.9219 -1.4062 7.0781 -1.2266 Q7.2344 -1.0469 7.5391 -0.9453 Q7.8438 -0.8438 8.3047 -0.7891 Q8.7656 -0.7344 9.5156 -0.7188 L9.5156 0 L2.2969 0 L2.2969 -0.7188 Q3.375 -0.7656 3.8438 -0.8438 Q4.3125 -0.9219 4.5547 -1.0938 Q4.7969 -1.2656 4.9062 -1.5625 Q5.0156 -1.8594 5.0156 -2.5469 L5.0156 -10.4688 Q5.0156 -10.8594 4.8828 -11.0391 Q4.75 -11.2188 4.4844 -11.2188 Q4.1719 -11.2188 3.5938 -10.8984 Q3.0156 -10.5781 2.1719 -10.0156 L1.7344 -10.7656 L6.3125 -13.4844 L6.8438 -13.4844 Q6.7812 -12.5469 6.7812 -10.8906 L6.7812 -2.5469 Z" stroke="none"/></g><g text-rendering="optimizeLegibility" transform="translate(127.4219,18)" color-rendering="optimizeQuality" color-interpolation="linearRGB" image-rendering="optimizeQuality"><path d="M1.2344 -5.0469 L1.2344 -6.3906 L9.8281 -6.3906 L9.8281 -5.0469 L1.2344 -5.0469 Z" stroke="none"/></g><g text-rendering="optimizeLegibility" transform="translate(139.25,18)" color-rendering="optimizeQuality" color-interpolation="linearRGB" image-rendering="optimizeQuality"><path d="M4.3594 0.1562 Q1.2188 0.1562 1.2188 -3.7812 Q1.2188 -7.1719 3.0547 -10.4688 Q4.8906 -13.7656 7.7031 -13.7656 Q10.6406 -13.7656 10.6406 -9.9062 Q10.6406 -6.4844 8.8594 -3.1641 Q7.0781 0.1562 4.3594 0.1562 ZM3.6094 -7.5469 L8.625 -7.5469 Q9 -9.6094 9 -10.7188 Q9 -12.9375 7.5 -12.9375 Q6.3594 -12.9375 5.3438 -11.5312 Q4.3281 -10.125 3.6094 -7.5469 ZM3.3594 -6.625 Q2.8438 -4.4219 2.8438 -2.9219 Q2.8438 -0.6719 4.5469 -0.6719 Q5.75 -0.6719 6.75 -2.2422 Q7.75 -3.8125 8.4219 -6.625 L3.3594 -6.625 Z" stroke="none"/></g><g text-rendering="optimizeLegibility" transform="translate(151.4688,18)" color-rendering="optimizeQuality" color-interpolation="linearRGB" image-rendering="optimizeQuality"><path d="M0.4219 -14.0156 Q2.0781 -14.0156 3.1328 -13.5156 Q4.1875 -13.0156 4.7734 -12 Q5.3594 -10.9844 5.6172 -9.3516 Q5.875 -7.7188 5.875 -4.9219 Q5.875 -2.1562 5.6172 -0.5078 Q5.3594 1.1406 4.7734 2.1797 Q4.1875 3.2188 3.1328 3.7344 Q2.0781 4.25 0.4219 4.25 L0.4219 3.4531 Q1.1094 3.4531 1.625 3.3281 Q2.2344 3.1875 2.6406 2.7969 Q3.1094 2.375 3.4062 1.6094 Q3.75 0.7031 3.9219 -0.7812 Q4.0938 -2.3594 4.0938 -4.8438 Q4.0938 -7.0469 3.9453 -8.5859 Q3.7969 -10.125 3.4531 -11.0938 Q3.1875 -11.9219 2.7812 -12.375 Q2.4062 -12.7812 1.9219 -12.9844 Q1.3438 -13.2188 0.4219 -13.2188 L0.4219 -14.0156 Z" stroke="none"/></g><g text-rendering="optimizeLegibility" transform="translate(159.3438,18)" color-rendering="optimizeQuality" color-interpolation="linearRGB" image-rendering="optimizeQuality"><path d="M5.4688 -13.1719 L5.0156 -11.2656 L3.2969 -11.2656 L3.7344 -13.1719 L5.4688 -13.1719 ZM3.0625 -2.4375 Q2.9531 -1.9375 2.9219 -1.7109 Q2.8906 -1.4844 2.8906 -1.3281 Q2.8906 -1.0312 2.9922 -0.8672 Q3.0938 -0.7031 3.2969 -0.6172 Q3.5 -0.5312 3.9688 -0.4844 L3.875 0 L0.8438 0 L2.3281 -6.5781 Q2.4531 -7.1562 2.5 -7.4922 Q2.5469 -7.8281 2.5469 -8.0469 Q2.5469 -8.3281 2.4688 -8.4844 Q2.3906 -8.6406 2.1953 -8.7188 Q2 -8.7969 1.5156 -8.8125 L1.625 -9.3438 L4 -9.4219 L4.5781 -9.4219 L3.0625 -2.4375 Z" stroke="none"/></g><g text-rendering="optimizeLegibility" transform="translate(164.8125,22.6641)" color-rendering="optimizeQuality" color-interpolation="linearRGB" image-rendering="optimizeQuality"><path d="M5.5312 -4.2344 Q5.8594 -3.9844 6.0625 -3.6406 Q6.2656 -3.2969 6.3906 -2.6875 L6.5469 -1.9062 Q6.5938 -1.6562 6.6484 -1.4453 Q6.7031 -1.2344 6.7812 -1.0391 Q6.8594 -0.8438 6.9531 -0.7266 Q7.0469 -0.6094 7.1562 -0.5312 Q7.2656 -0.4531 7.3984 -0.4141 Q7.5312 -0.375 7.7344 -0.3281 L7.6562 0 L5.7656 0 Q5.5469 -0.6094 5.375 -1.4531 L5.0781 -2.9062 Q5 -3.2812 4.8984 -3.5312 Q4.7969 -3.7812 4.6484 -3.9219 Q4.5 -4.0625 4.3047 -4.1094 Q4.1094 -4.1562 3.8281 -4.1562 L3.0469 -4.1562 L2.5781 -1.9844 Q2.5156 -1.7188 2.4922 -1.5625 Q2.4688 -1.4062 2.4453 -1.2344 Q2.4219 -1.0625 2.4219 -0.9219 Q2.4219 -0.7188 2.4922 -0.5938 Q2.5625 -0.4688 2.7031 -0.4141 Q2.8438 -0.3594 3.1719 -0.3281 L3.0938 0 L0.2812 0 L0.3594 -0.3281 Q0.625 -0.375 0.75 -0.4688 Q0.875 -0.5625 0.9688 -0.7266 Q1.0625 -0.8906 1.1328 -1.125 Q1.2031 -1.3594 1.3594 -2.0312 L2.5156 -7.2969 Q2.6719 -7.9844 2.6719 -8.375 Q2.6719 -8.7188 2.5156 -8.8438 Q2.3594 -8.9688 2 -9 L2.0781 -9.3281 L5.125 -9.3281 Q5.8438 -9.3281 6.3047 -9.2422 Q6.7656 -9.1562 7.0859 -8.9844 Q7.4062 -8.8125 7.625 -8.5469 Q7.8438 -8.2812 7.9531 -7.9453 Q8.0625 -7.6094 8.0625 -7.2188 Q8.0625 -6.6094 7.8594 -6.1406 Q7.6562 -5.6719 7.3125 -5.3125 Q6.9688 -4.9531 6.5078 -4.7109 Q6.0469 -4.4688 5.5312 -4.3125 L5.5312 -4.2344 ZM3.9844 -4.75 Q4.7344 -4.75 5.2266 -4.8906 Q5.7188 -5.0312 6.0469 -5.3359 Q6.375 -5.6406 6.5859 -6.1328 Q6.7969 -6.625 6.7969 -7.2031 Q6.7969 -7.5 6.7422 -7.7266 Q6.6875 -7.9531 6.6016 -8.1016 Q6.5156 -8.25 6.375 -8.3672 Q6.2344 -8.4844 6.0312 -8.5703 Q5.8281 -8.6562 5.5547 -8.6953 Q5.2812 -8.7344 4.8125 -8.7344 Q4.4531 -8.7344 4.0469 -8.7031 L3.1719 -4.75 L3.9844 -4.75 Z" stroke="none"/></g><g text-rendering="optimizeLegibility" transform="translate(164.8125,8.1484)" color-rendering="optimizeQuality" color-interpolation="linearRGB" image-rendering="optimizeQuality"><path d="M6.4531 0 L4.2969 0 L5.1562 -3.4688 Q5.25 -3.8125 5.3281 -4.2109 Q5.4062 -4.6094 5.4062 -4.9375 Q5.4062 -5.4219 5.2344 -5.6328 Q5.0625 -5.8438 4.7031 -5.8438 Q4.4219 -5.8438 4.0938 -5.625 Q3.7656 -5.4062 3.3984 -4.9609 Q3.0312 -4.5156 2.7812 -4.0625 Q2.5312 -3.6094 2.4062 -2.9531 L1.7812 0 L0.5938 0 L1.6406 -4.6719 Q1.6719 -4.8281 1.7266 -5.1328 Q1.7812 -5.4375 1.7812 -5.6406 Q1.7812 -5.8438 1.7266 -5.9453 Q1.6719 -6.0469 1.5312 -6.1016 Q1.3906 -6.1562 1.0469 -6.1719 L1.1406 -6.5312 L2.6875 -6.5938 L3.0781 -6.5938 L2.625 -4.8125 L2.7031 -4.7969 Q3.375 -5.7344 3.9922 -6.1875 Q4.6094 -6.6406 5.2344 -6.6406 Q5.9062 -6.6406 6.2422 -6.2734 Q6.5781 -5.9062 6.5781 -5.2031 Q6.5781 -4.9531 6.5391 -4.6641 Q6.5 -4.375 6.4375 -4.1406 L5.8594 -1.7031 Q5.75 -1.2188 5.75 -0.9375 Q5.75 -0.7188 5.8203 -0.6094 Q5.8906 -0.5 6.0312 -0.4375 Q6.1719 -0.375 6.5 -0.3281 L6.4531 0 Z" stroke="none"/></g><g text-rendering="optimizeLegibility" transform="translate(173.375,18)" color-rendering="optimizeQuality" color-interpolation="linearRGB" image-rendering="optimizeQuality"><path d="M9.75 0 L-0.5 0 L-0.375 -0.6094 L7.3594 -13.4844 L8.7344 -13.4844 L9.8906 -0.6094 L9.75 0 ZM7.6406 -7.0625 Q7.4219 -10.0625 7.4219 -11.3125 L7.3125 -11.3125 L1.5625 -1.4688 L8.0312 -1.4688 L7.6406 -7.0625 Z" stroke="none"/></g><g text-rendering="optimizeLegibility" transform="translate(183.2656,18)" color-rendering="optimizeQuality" color-interpolation="linearRGB" image-rendering="optimizeQuality"><path d="M6.5938 -1.7969 Q5.7969 -0.8281 5.0156 -0.3359 Q4.2344 0.1562 3.3438 0.1562 Q2.3125 0.1562 1.8047 -0.375 Q1.2969 -0.9062 1.2969 -1.9062 Q1.2969 -2.5156 1.4688 -3.2812 L2.6875 -8.3438 L1.2344 -8.3438 L1.3438 -8.8438 Q1.9219 -8.9219 2.2578 -9.1016 Q2.5938 -9.2812 2.8203 -9.5781 Q3.0469 -9.875 3.2422 -10.3516 Q3.4375 -10.8281 3.7344 -11.75 L5.0781 -11.75 L4.5469 -9.3438 L7.6406 -9.3438 L7.4219 -8.3438 L4.3125 -8.3438 L3.375 -4.5625 Q2.9844 -2.9844 2.9844 -2.2031 Q2.9844 -1.6094 3.2422 -1.2969 Q3.5 -0.9844 4 -0.9844 Q4.4531 -0.9844 4.9453 -1.3359 Q5.4375 -1.6875 6.0312 -2.3906 L6.5938 -1.7969 Z" stroke="none"/></g><g text-rendering="optimizeLegibility" transform="translate(191.6875,18)" color-rendering="optimizeQuality" color-interpolation="linearRGB" image-rendering="optimizeQuality"><path d="M6.25 -5.0469 L6.25 -1.3438 L4.8125 -1.3438 L4.8125 -5.0469 L1.2188 -5.0469 L1.2188 -6.3906 L4.8125 -6.3906 L4.8125 -10.0938 L6.25 -10.0938 L6.25 -6.3906 L9.8594 -6.3906 L9.8594 -5.0469 L6.25 -5.0469 Z" stroke="none"/></g><g text-rendering="optimizeLegibility" transform="translate(203.5469,18)" color-rendering="optimizeQuality" color-interpolation="linearRGB" image-rendering="optimizeQuality"><path d="M6.5 -2.2656 Q5.625 -1.0312 4.7891 -0.4453 Q3.9531 0.1406 3.0938 0.1406 Q2.0156 0.1406 1.4219 -0.6641 Q0.8281 -1.4688 0.8281 -2.9375 Q0.8281 -3.875 1.0469 -4.8203 Q1.2656 -5.7656 1.6953 -6.6094 Q2.125 -7.4531 2.7344 -8.0938 Q3.3438 -8.7344 4.1406 -9.1172 Q4.9375 -9.5 5.875 -9.5 Q6.4688 -9.5 7.0156 -9.3594 Q7.5625 -9.2188 8.1562 -8.8594 L9.0469 -9.5 L9.6719 -9.3438 L7.1719 1.7656 Q7.0156 2.5 7.0156 2.875 Q7.0156 3.1719 7.1094 3.3359 Q7.2031 3.5 7.4141 3.5859 Q7.625 3.6719 8.0938 3.7188 L8.0156 4.2031 L4.9688 4.2031 L6.6406 -2.2031 L6.5 -2.2656 ZM7.2969 -5.9531 Q7.3906 -6.375 7.4141 -6.6875 Q7.4375 -7 7.4375 -7.2812 Q7.4375 -8.0312 7.1172 -8.3828 Q6.7969 -8.7344 6.0469 -8.7344 Q5.6406 -8.7344 5.2656 -8.6016 Q4.8906 -8.4688 4.5078 -8.1641 Q4.125 -7.8594 3.7812 -7.3594 Q3.4375 -6.8594 3.1562 -6.1484 Q2.875 -5.4375 2.7188 -4.6172 Q2.5625 -3.7969 2.5625 -3.0312 Q2.5625 -2.0156 2.8359 -1.5078 Q3.1094 -1 3.7656 -1 Q4.0781 -1 4.4062 -1.1406 Q4.7344 -1.2812 5.1328 -1.6484 Q5.5312 -2.0156 6.0312 -2.7188 Q6.5 -3.375 6.7656 -4.0156 Q7.0312 -4.6562 7.2031 -5.5312 L7.2969 -5.9531 Z" stroke="none"/></g><g text-rendering="optimizeLegibility" transform="translate(213.2188,26.8672)" color-rendering="optimizeQuality" color-interpolation="linearRGB" image-rendering="optimizeQuality"><path d="M5.5312 -4.2344 Q5.8594 -3.9844 6.0625 -3.6406 Q6.2656 -3.2969 6.3906 -2.6875 L6.5469 -1.9062 Q6.5938 -1.6562 6.6484 -1.4453 Q6.7031 -1.2344 6.7812 -1.0391 Q6.8594 -0.8438 6.9531 -0.7266 Q7.0469 -0.6094 7.1562 -0.5312 Q7.2656 -0.4531 7.3984 -0.4141 Q7.5312 -0.375 7.7344 -0.3281 L7.6562 0 L5.7656 0 Q5.5469 -0.6094 5.375 -1.4531 L5.0781 -2.9062 Q5 -3.2812 4.8984 -3.5312 Q4.7969 -3.7812 4.6484 -3.9219 Q4.5 -4.0625 4.3047 -4.1094 Q4.1094 -4.1562 3.8281 -4.1562 L3.0469 -4.1562 L2.5781 -1.9844 Q2.5156 -1.7188 2.4922 -1.5625 Q2.4688 -1.4062 2.4453 -1.2344 Q2.4219 -1.0625 2.4219 -0.9219 Q2.4219 -0.7188 2.4922 -0.5938 Q2.5625 -0.4688 2.7031 -0.4141 Q2.8438 -0.3594 3.1719 -0.3281 L3.0938 0 L0.2812 0 L0.3594 -0.3281 Q0.625 -0.375 0.75 -0.4688 Q0.875 -0.5625 0.9688 -0.7266 Q1.0625 -0.8906 1.1328 -1.125 Q1.2031 -1.3594 1.3594 -2.0312 L2.5156 -7.2969 Q2.6719 -7.9844 2.6719 -8.375 Q2.6719 -8.7188 2.5156 -8.8438 Q2.3594 -8.9688 2 -9 L2.0781 -9.3281 L5.125 -9.3281 Q5.8438 -9.3281 6.3047 -9.2422 Q6.7656 -9.1562 7.0859 -8.9844 Q7.4062 -8.8125 7.625 -8.5469 Q7.8438 -8.2812 7.9531 -7.9453 Q8.0625 -7.6094 8.0625 -7.2188 Q8.0625 -6.6094 7.8594 -6.1406 Q7.6562 -5.6719 7.3125 -5.3125 Q6.9688 -4.9531 6.5078 -4.7109 Q6.0469 -4.4688 5.5312 -4.3125 L5.5312 -4.2344 ZM3.9844 -4.75 Q4.7344 -4.75 5.2266 -4.8906 Q5.7188 -5.0312 6.0469 -5.3359 Q6.375 -5.6406 6.5859 -6.1328 Q6.7969 -6.625 6.7969 -7.2031 Q6.7969 -7.5 6.7422 -7.7266 Q6.6875 -7.9531 6.6016 -8.1016 Q6.5156 -8.25 6.375 -8.3672 Q6.2344 -8.4844 6.0312 -8.5703 Q5.8281 -8.6562 5.5547 -8.6953 Q5.2812 -8.7344 4.8125 -8.7344 Q4.4531 -8.7344 4.0469 -8.7031 L3.1719 -4.75 L3.9844 -4.75 Z" stroke="none"/></g><g text-rendering="optimizeLegibility" transform="translate(213.2188,11.8203)" color-rendering="optimizeQuality" color-interpolation="linearRGB" image-rendering="optimizeQuality"><path d="M6.4531 0 L4.2969 0 L5.1562 -3.4688 Q5.25 -3.8125 5.3281 -4.2109 Q5.4062 -4.6094 5.4062 -4.9375 Q5.4062 -5.4219 5.2344 -5.6328 Q5.0625 -5.8438 4.7031 -5.8438 Q4.4219 -5.8438 4.0938 -5.625 Q3.7656 -5.4062 3.3984 -4.9609 Q3.0312 -4.5156 2.7812 -4.0625 Q2.5312 -3.6094 2.4062 -2.9531 L1.7812 0 L0.5938 0 L1.6406 -4.6719 Q1.6719 -4.8281 1.7266 -5.1328 Q1.7812 -5.4375 1.7812 -5.6406 Q1.7812 -5.8438 1.7266 -5.9453 Q1.6719 -6.0469 1.5312 -6.1016 Q1.3906 -6.1562 1.0469 -6.1719 L1.1406 -6.5312 L2.6875 -6.5938 L3.0781 -6.5938 L2.625 -4.8125 L2.7031 -4.7969 Q3.375 -5.7344 3.9922 -6.1875 Q4.6094 -6.6406 5.2344 -6.6406 Q5.9062 -6.6406 6.2422 -6.2734 Q6.5781 -5.9062 6.5781 -5.2031 Q6.5781 -4.9531 6.5391 -4.6641 Q6.5 -4.375 6.4375 -4.1406 L5.8594 -1.7031 Q5.75 -1.2188 5.75 -0.9375 Q5.75 -0.7188 5.8203 -0.6094 Q5.8906 -0.5 6.0312 -0.4375 Q6.1719 -0.375 6.5 -0.3281 L6.4531 0 Z" stroke="none"/></g></g></svg>