<?xml version="1.0" encoding="UTF-8" standalone="no"?><svg xmlns="http://www.w3.org/2000/svg" xmlns:xlink="http://www.w3.org/1999/xlink" stroke-dasharray="none" shape-rendering="auto" font-family="'Dialog'" width="105.812600" text-rendering="auto" fill-opacity="1" contentScriptType="text/ecmascript" color-interpolation="auto" color-rendering="auto" preserveAspectRatio="xMidYMid meet" font-size="12" fill="black" stroke="black" image-rendering="auto" stroke-miterlimit="10" zoomAndPan="magnify" version="1.0" stroke-linecap="square" stroke-linejoin="miter" contentStyleType="text/css" font-style="normal" height="21" stroke-width="1" stroke-dashoffset="0" font-weight="normal" stroke-opacity="1" y="-7.000000"><!--Converted from MathML using JEuclid--><defs id="genericDefs"/><g><g text-rendering="optimizeLegibility" transform="translate(0,14)" color-rendering="optimizeQuality" color-interpolation="linearRGB" image-rendering="optimizeQuality"><path d="M11.7969 -7.8438 L8.4531 -7.8438 L8.4531 -7.7656 Q9.3594 -7.3906 9.9297 -6.3984 Q10.5 -5.4062 10.5 -4.3594 Q10.5 -2.2344 9.1875 -1.0391 Q7.875 0.1562 5.5156 0.1562 Q3.3125 0.1562 2.0938 -1.0781 Q0.875 -2.3125 0.875 -4.5938 Q0.875 -6.2656 1.7969 -7.5625 Q2.7188 -8.8594 3.9844 -9.2656 Q5.25 -9.6719 7.4219 -9.6719 L11.7969 -9.6719 L11.7969 -7.8438 ZM6.4375 -7.8438 Q5.2812 -7.8438 4.5703 -6.7812 Q3.8594 -5.7188 3.8594 -4.2656 Q3.8594 -2.6719 4.3672 -1.7656 Q4.875 -0.8594 5.7188 -0.8594 Q7.5156 -0.8594 7.5156 -4.1406 Q7.5156 -6.1094 6.5781 -7.8438 L6.4375 -7.8438 Z" stroke="none"/></g><g text-rendering="optimizeLegibility" transform="translate(12.375,14)" color-rendering="optimizeQuality" color-interpolation="linearRGB" image-rendering="optimizeQuality"><path d="M3.5 -13.9688 L2.7812 -9.3125 L1.75 -9.3125 L1.4219 -13.9688 L3.5 -13.9688 Z" stroke="none"/></g><g text-rendering="optimizeLegibility" transform="translate(18.4531,14)" color-rendering="optimizeQuality" color-interpolation="linearRGB" image-rendering="optimizeQuality"><path d="M3.5 -13.9688 L2.7812 -9.3125 L1.75 -9.3125 L1.4219 -13.9688 L3.5 -13.9688 Z" stroke="none"/></g><g text-rendering="optimizeLegibility" transform="translate(24.7344,14)" color-rendering="optimizeQuality" color-interpolation="linearRGB" image-rendering="optimizeQuality"><path d="M1.2188 -7.0625 L1.2188 -8.4219 L9.8594 -8.4219 L9.8594 -7.0625 L1.2188 -7.0625 ZM1.2188 -3.0156 L1.2188 -4.3594 L9.8594 -4.3594 L9.8594 -3.0156 L1.2188 -3.0156 Z" stroke="none"/></g><g text-rendering="optimizeLegibility" transform="translate(36.5938,14)" color-rendering="optimizeQuality" color-interpolation="linearRGB" image-rendering="optimizeQuality"><path d="M11.7969 -7.8438 L8.4531 -7.8438 L8.4531 -7.7656 Q9.3594 -7.3906 9.9297 -6.3984 Q10.5 -5.4062 10.5 -4.3594 Q10.5 -2.2344 9.1875 -1.0391 Q7.875 0.1562 5.5156 0.1562 Q3.3125 0.1562 2.0938 -1.0781 Q0.875 -2.3125 0.875 -4.5938 Q0.875 -6.2656 1.7969 -7.5625 Q2.7188 -8.8594 3.9844 -9.2656 Q5.25 -9.6719 7.4219 -9.6719 L11.7969 -9.6719 L11.7969 -7.8438 ZM6.4375 -7.8438 Q5.2812 -7.8438 4.5703 -6.7812 Q3.8594 -5.7188 3.8594 -4.2656 Q3.8594 -2.6719 4.3672 -1.7656 Q4.875 -0.8594 5.7188 -0.8594 Q7.5156 -0.8594 7.5156 -4.1406 Q7.5156 -6.1094 6.5781 -7.8438 L6.4375 -7.8438 Z" stroke="none"/></g><g text-rendering="optimizeLegibility" transform="translate(49.1719,14)" color-rendering="optimizeQuality" color-interpolation="linearRGB" image-rendering="optimizeQuality"><path d="M6.25 -5.0469 L6.25 -1.3438 L4.8125 -1.3438 L4.8125 -5.0469 L1.2188 -5.0469 L1.2188 -6.3906 L4.8125 -6.3906 L4.8125 -10.0938 L6.25 -10.0938 L6.25 -6.3906 L9.8594 -6.3906 L9.8594 -5.0469 L6.25 -5.0469 Z" stroke="none"/></g><g text-rendering="optimizeLegibility" transform="translate(61.0312,14)" color-rendering="optimizeQuality" color-interpolation="linearRGB" image-rendering="optimizeQuality"><path d="M11.6094 -9.0469 Q9.7812 -6.8281 8.5 -4.8125 Q8.3438 -3.2656 8.3438 -2.4062 Q8.3438 -1.5781 8.5156 -1.2266 Q8.6875 -0.875 9.1094 -0.875 Q9.5625 -0.875 10.2188 -1.4688 L10.5312 -0.9844 Q9.2812 0.1562 8.1406 0.1562 Q6.7656 0.1562 6.7656 -1.9062 Q6.7656 -2.25 6.7969 -2.6562 L6.7656 -2.6562 Q4.8125 0.1562 2.9062 0.1562 Q1.9375 0.1562 1.3828 -0.6875 Q0.8281 -1.5312 0.8281 -2.8281 Q0.8281 -5.3594 2.3203 -7.4297 Q3.8125 -9.5 6.0625 -9.5 Q8.1719 -9.5 8.4375 -6.8125 L8.4844 -6.8125 L9.75 -9.3125 L11.4219 -9.3125 L11.6094 -9.0469 ZM7.0938 -4.7344 Q7.2188 -6.125 7.2188 -6.7188 Q7.2188 -7.8125 6.9297 -8.2656 Q6.6406 -8.7188 5.9844 -8.7188 Q4.5469 -8.7188 3.5469 -6.9062 Q2.5469 -5.0938 2.5469 -2.75 Q2.5469 -2 2.8516 -1.5 Q3.1562 -1 3.6562 -1 Q5.5 -1 7.0938 -4.7344 Z" stroke="none"/></g><g text-rendering="optimizeLegibility" transform="translate(72.6562,14)" color-rendering="optimizeQuality" color-interpolation="linearRGB" image-rendering="optimizeQuality"><path d="M6.4531 -7.0625 Q6.3438 -7.9375 5.9453 -8.3359 Q5.5469 -8.7344 4.7188 -8.7344 Q4.2656 -8.7344 3.8906 -8.5625 Q3.5156 -8.3906 3.3047 -8.0625 Q3.0938 -7.7344 3.0938 -7.2969 Q3.0938 -6.9375 3.2344 -6.6406 Q3.375 -6.3438 3.7266 -6.0156 Q4.0781 -5.6875 4.7031 -5.2812 Q5.6406 -4.6406 6.0234 -4.0469 Q6.4062 -3.4531 6.4062 -2.6719 Q6.4062 -1.75 5.9688 -1.1094 Q5.5312 -0.4688 4.7656 -0.1562 Q4 0.1562 3.0469 0.1562 Q2.1875 0.1562 1.4375 0.0312 Q0.6875 -0.0938 -0.0156 -0.2969 L0.4531 -2.4062 L1.2188 -2.4062 Q1.2812 -1.5 1.7266 -1.0547 Q2.1719 -0.6094 3.0156 -0.6094 Q3.8906 -0.6094 4.375 -1.0469 Q4.8594 -1.4844 4.8594 -2.2031 Q4.8594 -2.625 4.7188 -2.9531 Q4.5781 -3.2812 4.2656 -3.5859 Q3.9531 -3.8906 3.375 -4.2812 Q2.75 -4.7031 2.375 -5.0703 Q2 -5.4375 1.7891 -5.8828 Q1.5781 -6.3281 1.5781 -6.8594 Q1.5781 -7.6719 1.9766 -8.2734 Q2.375 -8.875 3.1094 -9.1875 Q3.8438 -9.5 4.8281 -9.5 Q6.4531 -9.5 7.6719 -9.0781 L7.2344 -7.0625 L6.4531 -7.0625 Z" stroke="none"/></g><g text-rendering="optimizeLegibility" transform="translate(82.1719,17.5312)" color-rendering="optimizeQuality" color-interpolation="linearRGB" image-rendering="optimizeQuality"><path d="M1.7344 0.1094 Q1.5 1.2031 1.0938 1.8516 Q0.6875 2.5 0.1094 2.7812 Q-0.4688 3.0625 -1.2969 3.0625 Q-1.5938 3.0625 -1.8438 2.9844 L-1.6875 2.3906 Q-1.5156 2.4375 -1.2031 2.4375 Q-0.8438 2.4375 -0.6172 2.3438 Q-0.3906 2.25 -0.1953 2.0312 Q0 1.8125 0.1797 1.3984 Q0.3594 0.9844 0.5156 0.3125 L1.9062 -5.8438 L1.0781 -5.8438 L1.1562 -6.1875 Q1.4844 -6.2344 1.625 -6.2891 Q1.7656 -6.3438 1.8516 -6.4453 Q1.9375 -6.5469 2.0078 -6.7266 Q2.0781 -6.9062 2.2031 -7.3438 Q2.5625 -8.5781 3.3203 -9.1953 Q4.0781 -9.8125 5.25 -9.8125 Q5.9062 -9.8125 6.4062 -9.7031 L6.125 -8.5469 L5.5312 -8.5469 Q5.4375 -8.9375 5.2812 -9.1094 Q5.125 -9.2812 4.8281 -9.2812 Q4.4375 -9.2812 4.1641 -9.0703 Q3.8906 -8.8594 3.6953 -8.4297 Q3.5 -8 3.3438 -7.2812 L3.1719 -6.5312 L4.7344 -6.5312 L4.5781 -5.8438 L3.0156 -5.8438 L1.7344 0.1094 Z" stroke="none"/></g><g text-rendering="optimizeLegibility" transform="translate(88.6562,14)" color-rendering="optimizeQuality" color-interpolation="linearRGB" image-rendering="optimizeQuality"><path d="M2.0938 1.7344 Q2 2.2031 1.9688 2.4531 Q1.9375 2.7031 1.9375 2.875 Q1.9375 3.1719 2.0391 3.3359 Q2.1406 3.5 2.3438 3.5859 Q2.5469 3.6719 3.0156 3.7188 L2.9375 4.2031 L-0.0781 4.2031 L2.3906 -6.6562 Q2.5781 -7.4844 2.5781 -8.0625 Q2.5781 -8.3438 2.4922 -8.4922 Q2.4062 -8.6406 2.2109 -8.7188 Q2.0156 -8.7969 1.5312 -8.8125 L1.6562 -9.3438 L3.875 -9.4219 L4.4219 -9.4219 L3.7656 -6.8906 L3.8906 -6.8438 Q5.6875 -9.5 7.4844 -9.5 Q8.5469 -9.5 9.1406 -8.6875 Q9.7344 -7.875 9.7344 -6.3906 Q9.7344 -5.3438 9.4453 -4.2812 Q9.1562 -3.2188 8.6406 -2.3594 Q8.125 -1.5 7.4922 -0.9453 Q6.8594 -0.3906 6.1641 -0.1172 Q5.4688 0.1562 4.7031 0.1562 Q3.4062 0.1562 2.5469 -0.4062 L2.0938 1.7344 ZM3.2656 -3.4062 Q3.1719 -2.875 3.1406 -2.6016 Q3.1094 -2.3281 3.1094 -2.0781 Q3.1094 -1.3125 3.4375 -0.9609 Q3.7656 -0.6094 4.5781 -0.6094 Q5.0625 -0.6094 5.4844 -0.8047 Q5.9062 -1 6.2812 -1.375 Q6.6562 -1.75 6.9609 -2.2734 Q7.2656 -2.7969 7.5078 -3.5 Q7.75 -4.2031 7.8672 -4.9375 Q7.9844 -5.6719 7.9844 -6.3125 Q7.9844 -7.3438 7.6953 -7.8438 Q7.4062 -8.3438 6.7812 -8.3438 Q6.2969 -8.3438 5.8125 -8.0078 Q5.3281 -7.6719 4.75 -6.9297 Q4.1719 -6.1875 3.8516 -5.4688 Q3.5312 -4.75 3.3438 -3.8125 L3.2656 -3.4062 Z" stroke="none"/></g><g text-rendering="optimizeLegibility" transform="translate(98.3906,14)" color-rendering="optimizeQuality" color-interpolation="linearRGB" image-rendering="optimizeQuality"><path d="M5.0156 -2.4531 Q5.0156 -2.1094 5.0312 -1.8203 Q5.0469 -1.5312 5.1094 -1.3438 Q5.1719 -1.1562 5.2812 -1.0312 Q5.3906 -0.9062 5.5859 -0.8125 Q5.7812 -0.7188 6.0625 -0.6406 L6.0625 0 L0.9375 0 L0.9375 -0.6406 Q1.2969 -0.75 1.5078 -0.8594 Q1.7188 -0.9688 1.8203 -1.1719 Q1.9219 -1.375 1.9531 -1.6797 Q1.9844 -1.9844 1.9844 -2.4531 L1.9844 -10.875 Q1.9844 -11.3438 1.9609 -11.6484 Q1.9375 -11.9531 1.8359 -12.1562 Q1.7344 -12.3594 1.5234 -12.4766 Q1.3125 -12.5938 0.9375 -12.6875 L0.9375 -13.3281 L6.0625 -13.3281 L6.0625 -12.6875 Q5.6719 -12.5781 5.4766 -12.4531 Q5.2812 -12.3281 5.1875 -12.1562 Q5.0938 -11.9844 5.0547 -11.7031 Q5.0156 -11.4219 5.0156 -10.875 L5.0156 -2.4531 Z" stroke="none"/></g></g></svg>