<?xml version="1.0" encoding="UTF-8" standalone="no"?><svg xmlns="http://www.w3.org/2000/svg" xmlns:xlink="http://www.w3.org/1999/xlink" stroke-dasharray="none" shape-rendering="auto" font-family="'Dialog'" width="257.812600" text-rendering="auto" fill-opacity="1" contentScriptType="text/ecmascript" color-interpolation="auto" color-rendering="auto" preserveAspectRatio="xMidYMid meet" font-size="12" fill="black" stroke="black" image-rendering="auto" stroke-miterlimit="10" zoomAndPan="magnify" version="1.0" stroke-linecap="square" stroke-linejoin="miter" contentStyleType="text/css" font-style="normal" height="284" stroke-width="1" stroke-dashoffset="0" font-weight="normal" stroke-opacity="1" y="-135.000000"><!--Converted from MathML using JEuclid--><defs id="genericDefs"/><g><g text-rendering="optimizeLegibility" transform="translate(1.0781,175.4443) matrix(1,0,0,6.9055,0,0)" color-rendering="optimizeQuality" color-interpolation="linearRGB" image-rendering="optimizeQuality"><path d="M7.0781 4.2188 Q5.5625 4.2188 4.6797 3.8281 Q3.7969 3.4375 3.4141 2.6641 Q3.0312 1.8906 3.0312 0.5781 L3.0312 -2.25 Q3.0312 -3.1094 2.8125 -3.5938 Q2.5938 -4.0781 2.1562 -4.2734 Q1.7188 -4.4688 0.9219 -4.4688 L0.9219 -5.2812 Q1.7031 -5.2812 2.1484 -5.4766 Q2.5938 -5.6719 2.8125 -6.1484 Q3.0312 -6.625 3.0312 -7.5 L3.0312 -10.3281 Q3.0312 -11.625 3.4141 -12.4062 Q3.7969 -13.1875 4.6797 -13.5781 Q5.5625 -13.9688 7.0781 -13.9688 L7.3281 -13.9688 L7.3281 -13.1719 Q6.5469 -13.1719 6.1641 -13.0938 Q5.7812 -13.0156 5.5391 -12.8438 Q5.2969 -12.6719 5.1406 -12.4141 Q4.9844 -12.1562 4.8984 -11.6875 Q4.8125 -11.2188 4.8125 -10.4375 L4.8125 -8.5469 Q4.8125 -7.5625 4.6406 -6.8984 Q4.4688 -6.2344 4.0312 -5.7578 Q3.5938 -5.2812 2.8281 -4.9688 L2.8281 -4.7812 Q3.5781 -4.4844 4.0312 -3.9844 Q4.4844 -3.4844 4.6484 -2.8203 Q4.8125 -2.1562 4.8125 -1.2031 L4.8125 0.6875 Q4.8125 1.4688 4.8984 1.9375 Q4.9844 2.4062 5.1406 2.6719 Q5.2969 2.9375 5.5391 3.1016 Q5.7812 3.2656 6.1641 3.3438 Q6.5469 3.4219 7.3281 3.4219 L7.3281 4.2188 L7.0781 4.2188 Z" stroke="none"/></g><g text-rendering="optimizeLegibility" transform="translate(11.4531,88.4831)" color-rendering="optimizeQuality" color-interpolation="linearRGB" image-rendering="optimizeQuality"><path d="M8.1406 -8.8594 L9.0469 -9.5 L9.6719 -9.3438 L8.1719 -2.7188 Q8.0312 -2.125 7.9844 -1.8125 Q7.9375 -1.5 7.9375 -1.2969 Q7.9375 -0.8906 8.1641 -0.7109 Q8.3906 -0.5312 9.0312 -0.4844 L8.9375 0 L6.1406 0 L6.7656 -2.4531 L6.625 -2.4844 Q5.6875 -1.125 4.8516 -0.4922 Q4.0156 0.1406 3.0781 0.1406 Q2 0.1406 1.4141 -0.6641 Q0.8281 -1.4688 0.8281 -2.9375 Q0.8281 -3.875 1.0391 -4.8203 Q1.25 -5.7656 1.6875 -6.6094 Q2.125 -7.4531 2.7266 -8.0938 Q3.3281 -8.7344 4.125 -9.1172 Q4.9219 -9.5 5.8594 -9.5 Q6.4688 -9.5 7.0156 -9.3594 Q7.5625 -9.2188 8.1406 -8.8594 ZM7.2812 -5.9531 Q7.375 -6.3438 7.4062 -6.6406 Q7.4375 -6.9375 7.4375 -7.2812 Q7.4375 -8.0312 7.1094 -8.3828 Q6.7812 -8.7344 6.0312 -8.7344 Q5.625 -8.7344 5.2578 -8.6016 Q4.8906 -8.4688 4.5078 -8.1641 Q4.125 -7.8594 3.7734 -7.3594 Q3.4219 -6.8594 3.1406 -6.1484 Q2.8594 -5.4375 2.7031 -4.6172 Q2.5469 -3.7969 2.5469 -3.0312 Q2.5469 -2.0156 2.8281 -1.5078 Q3.1094 -1 3.7656 -1 Q4.0625 -1 4.3906 -1.1406 Q4.7188 -1.2812 5.1172 -1.6484 Q5.5156 -2.0156 6.0312 -2.7188 Q6.4844 -3.375 6.75 -4.0156 Q7.0156 -4.6562 7.2031 -5.5312 L7.2812 -5.9531 Z" stroke="none"/></g><g text-rendering="optimizeLegibility" transform="translate(11.4844,112.5925)" color-rendering="optimizeQuality" color-interpolation="linearRGB" image-rendering="optimizeQuality"><path d="M2.2812 -0.4844 L1.375 0.1562 L0.75 0 L3.2812 -11.1562 Q3.3438 -11.4062 3.4219 -11.8672 Q3.5 -12.3281 3.5 -12.6094 Q3.5 -13.0156 3.2578 -13.1797 Q3.0156 -13.3438 2.3594 -13.375 L2.4844 -13.875 L4.9531 -13.9688 L5.5156 -13.9688 L3.7969 -7.125 L3.9219 -7.0938 Q4.875 -8.3594 5.7031 -8.9297 Q6.5312 -9.5 7.3594 -9.5 Q8.4219 -9.5 9.0156 -8.6875 Q9.6094 -7.875 9.6094 -6.3906 Q9.6094 -5.3438 9.3203 -4.2812 Q9.0312 -3.2188 8.5234 -2.3594 Q8.0156 -1.5 7.3828 -0.9453 Q6.75 -0.3906 6.0547 -0.1172 Q5.3594 0.1562 4.5781 0.1562 Q3.2812 0.1562 2.2812 -0.4844 ZM3.1406 -3.4062 Q3.0312 -2.9531 3.0078 -2.6484 Q2.9844 -2.3438 2.9844 -2.0781 Q2.9844 -1.2969 3.3203 -0.9531 Q3.6562 -0.6094 4.4375 -0.6094 Q4.9531 -0.6094 5.375 -0.8047 Q5.7969 -1 6.1719 -1.3828 Q6.5469 -1.7656 6.8516 -2.2969 Q7.1562 -2.8281 7.3906 -3.5156 Q7.625 -4.2031 7.75 -4.9453 Q7.875 -5.6875 7.875 -6.3125 Q7.875 -7.3281 7.5859 -7.8359 Q7.2969 -8.3438 6.6562 -8.3438 Q6.1875 -8.3438 5.7344 -8.0469 Q5.2812 -7.75 4.7266 -7.0625 Q4.1719 -6.375 3.8203 -5.6562 Q3.4688 -4.9375 3.2188 -3.8125 L3.1406 -3.4062 Z" stroke="none"/></g><g text-rendering="optimizeLegibility" transform="translate(11.9453,132.2487)" color-rendering="optimizeQuality" color-interpolation="linearRGB" image-rendering="optimizeQuality"><path d="M7.1719 -7 Q7.1562 -7.7344 7.0547 -8.0703 Q6.9531 -8.4062 6.7266 -8.5703 Q6.5 -8.7344 6.0781 -8.7344 Q5.0938 -8.7344 4.3047 -7.9453 Q3.5156 -7.1562 3.0156 -5.7188 Q2.5156 -4.2812 2.5156 -2.9531 Q2.5156 -2.5469 2.5938 -2.1797 Q2.6719 -1.8125 2.8516 -1.5547 Q3.0312 -1.2969 3.3281 -1.1406 Q3.625 -0.9844 4.0781 -0.9844 Q4.9688 -0.9844 5.6172 -1.3203 Q6.2656 -1.6562 7 -2.3906 L7.5938 -1.7812 Q6.6719 -0.7656 5.7422 -0.2969 Q4.8125 0.1719 3.7344 0.1719 Q2.3125 0.1719 1.5781 -0.6719 Q0.8438 -1.5156 0.8438 -3.1094 Q0.8438 -4.1562 1.2344 -5.4062 Q1.625 -6.6562 2.3828 -7.6094 Q3.1406 -8.5625 4.1406 -9.0312 Q5.1406 -9.5 6.2969 -9.5 Q7.0781 -9.5 7.6562 -9.4062 Q8.2344 -9.3125 8.6875 -9.2031 L8.2031 -7 L7.1719 -7 Z" stroke="none"/></g><g text-rendering="optimizeLegibility" transform="translate(10.9375,156.3894)" color-rendering="optimizeQuality" color-interpolation="linearRGB" image-rendering="optimizeQuality"><path d="M8.5 -11.2188 Q8.5781 -11.5312 8.6328 -11.9219 Q8.6875 -12.3125 8.6875 -12.6094 Q8.6875 -12.9062 8.5859 -13.0547 Q8.4844 -13.2031 8.2812 -13.2734 Q8.0781 -13.3438 7.5625 -13.375 L7.6719 -13.875 L10.125 -13.9688 L10.7031 -13.9688 L8.1719 -2.7188 Q8.0312 -2.0938 7.9844 -1.7969 Q7.9375 -1.5 7.9375 -1.2969 Q7.9375 -0.8906 8.1641 -0.7109 Q8.3906 -0.5312 9.0312 -0.4844 L8.9375 0 L6.1406 0 L6.7656 -2.4531 L6.625 -2.4844 Q5.6875 -1.125 4.8516 -0.4922 Q4.0156 0.1406 3.0781 0.1406 Q2 0.1406 1.4141 -0.6641 Q0.8281 -1.4688 0.8281 -2.9375 Q0.8281 -3.875 1.0391 -4.8203 Q1.25 -5.7656 1.6875 -6.6094 Q2.125 -7.4531 2.7266 -8.0938 Q3.3281 -8.7344 4.125 -9.1172 Q4.9219 -9.5 5.8594 -9.5 Q6.4531 -9.5 6.9609 -9.3828 Q7.4688 -9.2656 7.9844 -8.9531 L8.5 -11.2188 ZM7.2812 -5.9531 Q7.4375 -6.6562 7.4375 -7.2812 Q7.4375 -8.0312 7.1094 -8.3828 Q6.7812 -8.7344 6.0312 -8.7344 Q5.625 -8.7344 5.2578 -8.6016 Q4.8906 -8.4688 4.5078 -8.1641 Q4.125 -7.8594 3.7734 -7.3594 Q3.4219 -6.8594 3.1406 -6.1484 Q2.8594 -5.4375 2.7031 -4.6172 Q2.5469 -3.7969 2.5469 -3.0312 Q2.5469 -2.0156 2.8281 -1.5078 Q3.1094 -1 3.7656 -1 Q4.0625 -1 4.3906 -1.1406 Q4.7188 -1.2812 5.1172 -1.6484 Q5.5156 -2.0156 6.0312 -2.7188 Q6.4844 -3.375 6.75 -4.0156 Q7.0156 -4.6562 7.2031 -5.5312 L7.2812 -5.9531 Z" stroke="none"/></g><g text-rendering="optimizeLegibility" transform="translate(11.9062,176.03)" color-rendering="optimizeQuality" color-interpolation="linearRGB" image-rendering="optimizeQuality"><path d="M7.9531 -1.9375 Q7.2344 -1.1562 6.5703 -0.6953 Q5.9062 -0.2344 5.2422 -0.0391 Q4.5781 0.1562 3.7656 0.1562 Q3 0.1562 2.4453 -0.0938 Q1.8906 -0.3438 1.5234 -0.7812 Q1.1562 -1.2188 0.9766 -1.8125 Q0.7969 -2.4062 0.7969 -3.1094 Q0.7969 -4.1562 1.1719 -5.3516 Q1.5469 -6.5469 2.3125 -7.5 Q3.0781 -8.4531 4.1406 -8.9766 Q5.2031 -9.5 6.4062 -9.5 Q7.5938 -9.5 8.1797 -9.0234 Q8.7656 -8.5469 8.7656 -7.5312 Q8.7656 -5.875 7.2109 -5.0391 Q5.6562 -4.2031 2.5938 -4.2031 Q2.4688 -3.625 2.4688 -2.9375 Q2.4688 -1.9219 2.8672 -1.4531 Q3.2656 -0.9844 4.1875 -0.9844 Q5.0781 -0.9844 5.8125 -1.375 Q6.5469 -1.7656 7.3438 -2.5781 L7.9531 -1.9375 ZM2.75 -5.0469 Q3.6562 -5.0469 4.3359 -5.1406 Q5.0156 -5.2344 5.5 -5.3984 Q5.9844 -5.5625 6.3047 -5.7812 Q6.625 -6 6.8203 -6.2734 Q7.0156 -6.5469 7.0859 -6.8438 Q7.1562 -7.1406 7.1562 -7.4688 Q7.1562 -8.0625 6.8828 -8.3984 Q6.6094 -8.7344 6.0625 -8.7344 Q5.375 -8.7344 4.7109 -8.2422 Q4.0469 -7.75 3.5469 -6.9141 Q3.0469 -6.0781 2.75 -5.0469 Z" stroke="none"/></g><g text-rendering="optimizeLegibility" transform="translate(13.0312,200.2175)" color-rendering="optimizeQuality" color-interpolation="linearRGB" image-rendering="optimizeQuality"><path d="M2.4844 0.1719 Q2.1562 1.7344 1.5703 2.6484 Q0.9844 3.5625 0.1562 3.9609 Q-0.6719 4.3594 -1.8594 4.3594 Q-2.2812 4.3594 -2.625 4.2656 L-2.4062 3.4062 Q-2.1719 3.4844 -1.7188 3.4844 Q-1.2031 3.4844 -0.875 3.3516 Q-0.5469 3.2188 -0.2656 2.9062 Q0.0156 2.5938 0.2656 2.0078 Q0.5156 1.4219 0.7344 0.4531 L2.7188 -8.3438 L1.5312 -8.3438 L1.6562 -8.8438 Q2.125 -8.8906 2.3203 -8.9766 Q2.5156 -9.0625 2.6406 -9.2031 Q2.7656 -9.3438 2.8594 -9.6016 Q2.9531 -9.8594 3.1406 -10.5 Q3.6562 -12.25 4.7422 -13.1406 Q5.8281 -14.0312 7.4844 -14.0312 Q8.4531 -14.0312 9.1406 -13.875 L8.7656 -12.2031 L7.9062 -12.2031 Q7.7656 -12.7656 7.5469 -13.0078 Q7.3281 -13.25 6.8906 -13.25 Q6.3438 -13.25 5.9531 -12.9453 Q5.5625 -12.6406 5.2812 -12.0312 Q5 -11.4219 4.7656 -10.4062 L4.5156 -9.3438 L6.7656 -9.3438 L6.5469 -8.3438 L4.2969 -8.3438 L2.4844 0.1719 Z" stroke="none"/></g><g text-rendering="optimizeLegibility" transform="translate(23.75,175.4443) matrix(1,0,0,6.9055,0,0)" color-rendering="optimizeQuality" color-interpolation="linearRGB" image-rendering="optimizeQuality"><path d="M0.6719 -13.9688 Q2.1875 -13.9688 3.0703 -13.5781 Q3.9531 -13.1875 4.3281 -12.4062 Q4.7031 -11.625 4.7031 -10.3281 L4.7031 -7.5 Q4.7031 -6.625 4.9297 -6.1484 Q5.1562 -5.6719 5.5938 -5.4766 Q6.0312 -5.2812 6.8125 -5.2812 L6.8125 -4.4688 Q6.0312 -4.4688 5.5859 -4.2734 Q5.1406 -4.0781 4.9219 -3.5938 Q4.7031 -3.1094 4.7031 -2.25 L4.7031 0.5781 Q4.7031 1.8906 4.3281 2.6641 Q3.9531 3.4375 3.0703 3.8281 Q2.1875 4.2188 0.6719 4.2188 L0.4219 4.2188 L0.4219 3.4219 Q1.1875 3.4219 1.5781 3.3438 Q1.9688 3.2656 2.2031 3.1016 Q2.4375 2.9375 2.5938 2.6719 Q2.75 2.4062 2.8438 1.9375 Q2.9375 1.4688 2.9375 0.6875 L2.9375 -1.2031 Q2.9375 -2.1875 3.1016 -2.8438 Q3.2656 -3.5 3.7109 -3.9844 Q4.1562 -4.4688 4.9062 -4.7812 L4.9062 -4.9688 Q4.1719 -5.2656 3.7188 -5.7656 Q3.2656 -6.2656 3.1016 -6.9297 Q2.9375 -7.5938 2.9375 -8.5469 L2.9375 -10.4375 Q2.9375 -11.2188 2.8438 -11.6875 Q2.75 -12.1562 2.5938 -12.4141 Q2.4375 -12.6719 2.2031 -12.8438 Q1.9688 -13.0156 1.5781 -13.0938 Q1.1875 -13.1719 0.4219 -13.1719 L0.4219 -13.9688 L0.6719 -13.9688 Z" stroke="none"/></g><g text-rendering="optimizeLegibility" transform="translate(33.3438,149)" color-rendering="optimizeQuality" color-interpolation="linearRGB" image-rendering="optimizeQuality"><path d="M1.2188 -7.0625 L1.2188 -8.4219 L9.8594 -8.4219 L9.8594 -7.0625 L1.2188 -7.0625 ZM1.2188 -3.0156 L1.2188 -4.3594 L9.8594 -4.3594 L9.8594 -3.0156 L1.2188 -3.0156 Z" stroke="none"/></g><g text-rendering="optimizeLegibility" transform="translate(46.2812,217.6357) matrix(1,0,0,15.5601,0,0)" color-rendering="optimizeQuality" color-interpolation="linearRGB" image-rendering="optimizeQuality"><path d="M7.0781 4.2188 Q5.5625 4.2188 4.6797 3.8281 Q3.7969 3.4375 3.4141 2.6641 Q3.0312 1.8906 3.0312 0.5781 L3.0312 -2.25 Q3.0312 -3.1094 2.8125 -3.5938 Q2.5938 -4.0781 2.1562 -4.2734 Q1.7188 -4.4688 0.9219 -4.4688 L0.9219 -5.2812 Q1.7031 -5.2812 2.1484 -5.4766 Q2.5938 -5.6719 2.8125 -6.1484 Q3.0312 -6.625 3.0312 -7.5 L3.0312 -10.3281 Q3.0312 -11.625 3.4141 -12.4062 Q3.7969 -13.1875 4.6797 -13.5781 Q5.5625 -13.9688 7.0781 -13.9688 L7.3281 -13.9688 L7.3281 -13.1719 Q6.5469 -13.1719 6.1641 -13.0938 Q5.7812 -13.0156 5.5391 -12.8438 Q5.2969 -12.6719 5.1406 -12.4141 Q4.9844 -12.1562 4.8984 -11.6875 Q4.8125 -11.2188 4.8125 -10.4375 L4.8125 -8.5469 Q4.8125 -7.5625 4.6406 -6.8984 Q4.4688 -6.2344 4.0312 -5.7578 Q3.5938 -5.2812 2.8281 -4.9688 L2.8281 -4.7812 Q3.5781 -4.4844 4.0312 -3.9844 Q4.4844 -3.4844 4.6484 -2.8203 Q4.8125 -2.1562 4.8125 -1.2031 L4.8125 0.6875 Q4.8125 1.4688 4.8984 1.9375 Q4.9844 2.4062 5.1406 2.6719 Q5.2969 2.9375 5.5391 3.1016 Q5.7812 3.2656 6.1641 3.3438 Q6.5469 3.4219 7.3281 3.4219 L7.3281 4.2188 L7.0781 4.2188 Z" stroke="none"/></g><g text-rendering="optimizeLegibility" transform="translate(61.0469,106.7857) matrix(1,0,0,7.6246,0,0)" color-rendering="optimizeQuality" color-interpolation="linearRGB" image-rendering="optimizeQuality"><path d="M7.0781 4.2188 Q5.5625 4.2188 4.6797 3.8281 Q3.7969 3.4375 3.4141 2.6641 Q3.0312 1.8906 3.0312 0.5781 L3.0312 -2.25 Q3.0312 -3.1094 2.8125 -3.5938 Q2.5938 -4.0781 2.1562 -4.2734 Q1.7188 -4.4688 0.9219 -4.4688 L0.9219 -5.2812 Q1.7031 -5.2812 2.1484 -5.4766 Q2.5938 -5.6719 2.8125 -6.1484 Q3.0312 -6.625 3.0312 -7.5 L3.0312 -10.3281 Q3.0312 -11.625 3.4141 -12.4062 Q3.7969 -13.1875 4.6797 -13.5781 Q5.5625 -13.9688 7.0781 -13.9688 L7.3281 -13.9688 L7.3281 -13.1719 Q6.5469 -13.1719 6.1641 -13.0938 Q5.7812 -13.0156 5.5391 -12.8438 Q5.2969 -12.6719 5.1406 -12.4141 Q4.9844 -12.1562 4.8984 -11.6875 Q4.8125 -11.2188 4.8125 -10.4375 L4.8125 -8.5469 Q4.8125 -7.5625 4.6406 -6.8984 Q4.4688 -6.2344 4.0312 -5.7578 Q3.5938 -5.2812 2.8281 -4.9688 L2.8281 -4.7812 Q3.5781 -4.4844 4.0312 -3.9844 Q4.4844 -3.4844 4.6484 -2.8203 Q4.8125 -2.1562 4.8125 -1.2031 L4.8125 0.6875 Q4.8125 1.4688 4.8984 1.9375 Q4.9844 2.4062 5.1406 2.6719 Q5.2969 2.9375 5.5391 3.1016 Q5.7812 3.2656 6.1641 3.3438 Q6.5469 3.4219 7.3281 3.4219 L7.3281 4.2188 L7.0781 4.2188 Z" stroke="none"/></g><g text-rendering="optimizeLegibility" transform="translate(71.4219,11.9597)" color-rendering="optimizeQuality" color-interpolation="linearRGB" image-rendering="optimizeQuality"><path d="M8.1406 -8.8594 L9.0469 -9.5 L9.6719 -9.3438 L8.1719 -2.7188 Q8.0312 -2.125 7.9844 -1.8125 Q7.9375 -1.5 7.9375 -1.2969 Q7.9375 -0.8906 8.1641 -0.7109 Q8.3906 -0.5312 9.0312 -0.4844 L8.9375 0 L6.1406 0 L6.7656 -2.4531 L6.625 -2.4844 Q5.6875 -1.125 4.8516 -0.4922 Q4.0156 0.1406 3.0781 0.1406 Q2 0.1406 1.4141 -0.6641 Q0.8281 -1.4688 0.8281 -2.9375 Q0.8281 -3.875 1.0391 -4.8203 Q1.25 -5.7656 1.6875 -6.6094 Q2.125 -7.4531 2.7266 -8.0938 Q3.3281 -8.7344 4.125 -9.1172 Q4.9219 -9.5 5.8594 -9.5 Q6.4688 -9.5 7.0156 -9.3594 Q7.5625 -9.2188 8.1406 -8.8594 ZM7.2812 -5.9531 Q7.375 -6.3438 7.4062 -6.6406 Q7.4375 -6.9375 7.4375 -7.2812 Q7.4375 -8.0312 7.1094 -8.3828 Q6.7812 -8.7344 6.0312 -8.7344 Q5.625 -8.7344 5.2578 -8.6016 Q4.8906 -8.4688 4.5078 -8.1641 Q4.125 -7.8594 3.7734 -7.3594 Q3.4219 -6.8594 3.1406 -6.1484 Q2.8594 -5.4375 2.7031 -4.6172 Q2.5469 -3.7969 2.5469 -3.0312 Q2.5469 -2.0156 2.8281 -1.5078 Q3.1094 -1 3.7656 -1 Q4.0625 -1 4.3906 -1.1406 Q4.7188 -1.2812 5.1172 -1.6484 Q5.5156 -2.0156 6.0312 -2.7188 Q6.4844 -3.375 6.75 -4.0156 Q7.0156 -4.6562 7.2031 -5.5312 L7.2812 -5.9531 Z" stroke="none"/></g><g text-rendering="optimizeLegibility" transform="translate(80.3594,10.9987)" color-rendering="optimizeQuality" color-interpolation="linearRGB" image-rendering="optimizeQuality"><path d="M2.9688 -10.7188 L2.9688 -10.3281 L1.3125 -6.3594 L0.7344 -6.5312 L1.6875 -10.7188 L2.9688 -10.7188 Z" stroke="none"/></g><g text-rendering="optimizeLegibility" transform="translate(71.4531,38.2487)" color-rendering="optimizeQuality" color-interpolation="linearRGB" image-rendering="optimizeQuality"><path d="M2.2812 -0.4844 L1.375 0.1562 L0.75 0 L3.2812 -11.1562 Q3.3438 -11.4062 3.4219 -11.8672 Q3.5 -12.3281 3.5 -12.6094 Q3.5 -13.0156 3.2578 -13.1797 Q3.0156 -13.3438 2.3594 -13.375 L2.4844 -13.875 L4.9531 -13.9688 L5.5156 -13.9688 L3.7969 -7.125 L3.9219 -7.0938 Q4.875 -8.3594 5.7031 -8.9297 Q6.5312 -9.5 7.3594 -9.5 Q8.4219 -9.5 9.0156 -8.6875 Q9.6094 -7.875 9.6094 -6.3906 Q9.6094 -5.3438 9.3203 -4.2812 Q9.0312 -3.2188 8.5234 -2.3594 Q8.0156 -1.5 7.3828 -0.9453 Q6.75 -0.3906 6.0547 -0.1172 Q5.3594 0.1562 4.5781 0.1562 Q3.2812 0.1562 2.2812 -0.4844 ZM3.1406 -3.4062 Q3.0312 -2.9531 3.0078 -2.6484 Q2.9844 -2.3438 2.9844 -2.0781 Q2.9844 -1.2969 3.3203 -0.9531 Q3.6562 -0.6094 4.4375 -0.6094 Q4.9531 -0.6094 5.375 -0.8047 Q5.7969 -1 6.1719 -1.3828 Q6.5469 -1.7656 6.8516 -2.2969 Q7.1562 -2.8281 7.3906 -3.5156 Q7.625 -4.2031 7.75 -4.9453 Q7.875 -5.6875 7.875 -6.3125 Q7.875 -7.3281 7.5859 -7.8359 Q7.2969 -8.3438 6.6562 -8.3438 Q6.1875 -8.3438 5.7344 -8.0469 Q5.2812 -7.75 4.7266 -7.0625 Q4.1719 -6.375 3.8203 -5.6562 Q3.4688 -4.9375 3.2188 -3.8125 L3.1406 -3.4062 Z" stroke="none"/></g><g text-rendering="optimizeLegibility" transform="translate(80.3281,32.8191)" color-rendering="optimizeQuality" color-interpolation="linearRGB" image-rendering="optimizeQuality"><path d="M2.9688 -10.7188 L2.9688 -10.3281 L1.3125 -6.3594 L0.7344 -6.5312 L1.6875 -10.7188 L2.9688 -10.7188 Z" stroke="none"/></g><g text-rendering="optimizeLegibility" transform="translate(71.9141,60.0847)" color-rendering="optimizeQuality" color-interpolation="linearRGB" image-rendering="optimizeQuality"><path d="M7.1719 -7 Q7.1562 -7.7344 7.0547 -8.0703 Q6.9531 -8.4062 6.7266 -8.5703 Q6.5 -8.7344 6.0781 -8.7344 Q5.0938 -8.7344 4.3047 -7.9453 Q3.5156 -7.1562 3.0156 -5.7188 Q2.5156 -4.2812 2.5156 -2.9531 Q2.5156 -2.5469 2.5938 -2.1797 Q2.6719 -1.8125 2.8516 -1.5547 Q3.0312 -1.2969 3.3281 -1.1406 Q3.625 -0.9844 4.0781 -0.9844 Q4.9688 -0.9844 5.6172 -1.3203 Q6.2656 -1.6562 7 -2.3906 L7.5938 -1.7812 Q6.6719 -0.7656 5.7422 -0.2969 Q4.8125 0.1719 3.7344 0.1719 Q2.3125 0.1719 1.5781 -0.6719 Q0.8438 -1.5156 0.8438 -3.1094 Q0.8438 -4.1562 1.2344 -5.4062 Q1.625 -6.6562 2.3828 -7.6094 Q3.1406 -8.5625 4.1406 -9.0312 Q5.1406 -9.5 6.2969 -9.5 Q7.0781 -9.5 7.6562 -9.4062 Q8.2344 -9.3125 8.6875 -9.2031 L8.2031 -7 L7.1719 -7 Z" stroke="none"/></g><g text-rendering="optimizeLegibility" transform="translate(79.8672,59.1237)" color-rendering="optimizeQuality" color-interpolation="linearRGB" image-rendering="optimizeQuality"><path d="M2.9688 -10.7188 L2.9688 -10.3281 L1.3125 -6.3594 L0.7344 -6.5312 L1.6875 -10.7188 L2.9688 -10.7188 Z" stroke="none"/></g><g text-rendering="optimizeLegibility" transform="translate(70.9062,86.405)" color-rendering="optimizeQuality" color-interpolation="linearRGB" image-rendering="optimizeQuality"><path d="M8.5 -11.2188 Q8.5781 -11.5312 8.6328 -11.9219 Q8.6875 -12.3125 8.6875 -12.6094 Q8.6875 -12.9062 8.5859 -13.0547 Q8.4844 -13.2031 8.2812 -13.2734 Q8.0781 -13.3438 7.5625 -13.375 L7.6719 -13.875 L10.125 -13.9688 L10.7031 -13.9688 L8.1719 -2.7188 Q8.0312 -2.0938 7.9844 -1.7969 Q7.9375 -1.5 7.9375 -1.2969 Q7.9375 -0.8906 8.1641 -0.7109 Q8.3906 -0.5312 9.0312 -0.4844 L8.9375 0 L6.1406 0 L6.7656 -2.4531 L6.625 -2.4844 Q5.6875 -1.125 4.8516 -0.4922 Q4.0156 0.1406 3.0781 0.1406 Q2 0.1406 1.4141 -0.6641 Q0.8281 -1.4688 0.8281 -2.9375 Q0.8281 -3.875 1.0391 -4.8203 Q1.25 -5.7656 1.6875 -6.6094 Q2.125 -7.4531 2.7266 -8.0938 Q3.3281 -8.7344 4.125 -9.1172 Q4.9219 -9.5 5.8594 -9.5 Q6.4531 -9.5 6.9609 -9.3828 Q7.4688 -9.2656 7.9844 -8.9531 L8.5 -11.2188 ZM7.2812 -5.9531 Q7.4375 -6.6562 7.4375 -7.2812 Q7.4375 -8.0312 7.1094 -8.3828 Q6.7812 -8.7344 6.0312 -8.7344 Q5.625 -8.7344 5.2578 -8.6016 Q4.8906 -8.4688 4.5078 -8.1641 Q4.125 -7.8594 3.7734 -7.3594 Q3.4219 -6.8594 3.1406 -6.1484 Q2.8594 -5.4375 2.7031 -4.6172 Q2.5469 -3.7969 2.5469 -3.0312 Q2.5469 -2.0156 2.8281 -1.5078 Q3.1094 -1 3.7656 -1 Q4.0625 -1 4.3906 -1.1406 Q4.7188 -1.2812 5.1172 -1.6484 Q5.5156 -2.0156 6.0312 -2.7188 Q6.4844 -3.375 6.75 -4.0156 Q7.0156 -4.6562 7.2031 -5.5312 L7.2812 -5.9531 Z" stroke="none"/></g><g text-rendering="optimizeLegibility" transform="translate(80.875,80.9753)" color-rendering="optimizeQuality" color-interpolation="linearRGB" image-rendering="optimizeQuality"><path d="M2.9688 -10.7188 L2.9688 -10.3281 L1.3125 -6.3594 L0.7344 -6.5312 L1.6875 -10.7188 L2.9688 -10.7188 Z" stroke="none"/></g><g text-rendering="optimizeLegibility" transform="translate(71.875,108.2253)" color-rendering="optimizeQuality" color-interpolation="linearRGB" image-rendering="optimizeQuality"><path d="M7.9531 -1.9375 Q7.2344 -1.1562 6.5703 -0.6953 Q5.9062 -0.2344 5.2422 -0.0391 Q4.5781 0.1562 3.7656 0.1562 Q3 0.1562 2.4453 -0.0938 Q1.8906 -0.3438 1.5234 -0.7812 Q1.1562 -1.2188 0.9766 -1.8125 Q0.7969 -2.4062 0.7969 -3.1094 Q0.7969 -4.1562 1.1719 -5.3516 Q1.5469 -6.5469 2.3125 -7.5 Q3.0781 -8.4531 4.1406 -8.9766 Q5.2031 -9.5 6.4062 -9.5 Q7.5938 -9.5 8.1797 -9.0234 Q8.7656 -8.5469 8.7656 -7.5312 Q8.7656 -5.875 7.2109 -5.0391 Q5.6562 -4.2031 2.5938 -4.2031 Q2.4688 -3.625 2.4688 -2.9375 Q2.4688 -1.9219 2.8672 -1.4531 Q3.2656 -0.9844 4.1875 -0.9844 Q5.0781 -0.9844 5.8125 -1.375 Q6.5469 -1.7656 7.3438 -2.5781 L7.9531 -1.9375 ZM2.75 -5.0469 Q3.6562 -5.0469 4.3359 -5.1406 Q5.0156 -5.2344 5.5 -5.3984 Q5.9844 -5.5625 6.3047 -5.7812 Q6.625 -6 6.8203 -6.2734 Q7.0156 -6.5469 7.0859 -6.8438 Q7.1562 -7.1406 7.1562 -7.4688 Q7.1562 -8.0625 6.8828 -8.3984 Q6.6094 -8.7344 6.0625 -8.7344 Q5.375 -8.7344 4.7109 -8.2422 Q4.0469 -7.75 3.5469 -6.9141 Q3.0469 -6.0781 2.75 -5.0469 Z" stroke="none"/></g><g text-rendering="optimizeLegibility" transform="translate(79.9062,107.2644)" color-rendering="optimizeQuality" color-interpolation="linearRGB" image-rendering="optimizeQuality"><path d="M2.9688 -10.7188 L2.9688 -10.3281 L1.3125 -6.3594 L0.7344 -6.5312 L1.6875 -10.7188 L2.9688 -10.7188 Z" stroke="none"/></g><g text-rendering="optimizeLegibility" transform="translate(73,134.5925)" color-rendering="optimizeQuality" color-interpolation="linearRGB" image-rendering="optimizeQuality"><path d="M2.4844 0.1719 Q2.1562 1.7344 1.5703 2.6484 Q0.9844 3.5625 0.1562 3.9609 Q-0.6719 4.3594 -1.8594 4.3594 Q-2.2812 4.3594 -2.625 4.2656 L-2.4062 3.4062 Q-2.1719 3.4844 -1.7188 3.4844 Q-1.2031 3.4844 -0.875 3.3516 Q-0.5469 3.2188 -0.2656 2.9062 Q0.0156 2.5938 0.2656 2.0078 Q0.5156 1.4219 0.7344 0.4531 L2.7188 -8.3438 L1.5312 -8.3438 L1.6562 -8.8438 Q2.125 -8.8906 2.3203 -8.9766 Q2.5156 -9.0625 2.6406 -9.2031 Q2.7656 -9.3438 2.8594 -9.6016 Q2.9531 -9.8594 3.1406 -10.5 Q3.6562 -12.25 4.7422 -13.1406 Q5.8281 -14.0312 7.4844 -14.0312 Q8.4531 -14.0312 9.1406 -13.875 L8.7656 -12.2031 L7.9062 -12.2031 Q7.7656 -12.7656 7.5469 -13.0078 Q7.3281 -13.25 6.8906 -13.25 Q6.3438 -13.25 5.9531 -12.9453 Q5.5625 -12.6406 5.2812 -12.0312 Q5 -11.4219 4.7656 -10.4062 L4.5156 -9.3438 L6.7656 -9.3438 L6.5469 -8.3438 L4.2969 -8.3438 L2.4844 0.1719 Z" stroke="none"/></g><g text-rendering="optimizeLegibility" transform="translate(81.4062,129.1003)" color-rendering="optimizeQuality" color-interpolation="linearRGB" image-rendering="optimizeQuality"><path d="M2.9688 -10.7188 L2.9688 -10.3281 L1.3125 -6.3594 L0.7344 -6.5312 L1.6875 -10.7188 L2.9688 -10.7188 Z" stroke="none"/></g><g text-rendering="optimizeLegibility" transform="translate(85.9531,106.7857) matrix(1,0,0,7.6246,0,0)" color-rendering="optimizeQuality" color-interpolation="linearRGB" image-rendering="optimizeQuality"><path d="M0.6719 -13.9688 Q2.1875 -13.9688 3.0703 -13.5781 Q3.9531 -13.1875 4.3281 -12.4062 Q4.7031 -11.625 4.7031 -10.3281 L4.7031 -7.5 Q4.7031 -6.625 4.9297 -6.1484 Q5.1562 -5.6719 5.5938 -5.4766 Q6.0312 -5.2812 6.8125 -5.2812 L6.8125 -4.4688 Q6.0312 -4.4688 5.5859 -4.2734 Q5.1406 -4.0781 4.9219 -3.5938 Q4.7031 -3.1094 4.7031 -2.25 L4.7031 0.5781 Q4.7031 1.8906 4.3281 2.6641 Q3.9531 3.4375 3.0703 3.8281 Q2.1875 4.2188 0.6719 4.2188 L0.4219 4.2188 L0.4219 3.4219 Q1.1875 3.4219 1.5781 3.3438 Q1.9688 3.2656 2.2031 3.1016 Q2.4375 2.9375 2.5938 2.6719 Q2.75 2.4062 2.8438 1.9375 Q2.9375 1.4688 2.9375 0.6875 L2.9375 -1.2031 Q2.9375 -2.1875 3.1016 -2.8438 Q3.2656 -3.5 3.7109 -3.9844 Q4.1562 -4.4688 4.9062 -4.7812 L4.9062 -4.9688 Q4.1719 -5.2656 3.7188 -5.7656 Q3.2656 -6.2656 3.1016 -6.9297 Q2.9375 -7.5938 2.9375 -8.5469 L2.9375 -10.4375 Q2.9375 -11.2188 2.8438 -11.6875 Q2.75 -12.1562 2.5938 -12.4141 Q2.4375 -12.6719 2.2031 -12.8438 Q1.9688 -13.0156 1.5781 -13.0938 Q1.1875 -13.1719 0.4219 -13.1719 L0.4219 -13.9688 L0.6719 -13.9688 Z" stroke="none"/></g><g text-rendering="optimizeLegibility" transform="translate(112.5472,76.8359)" color-rendering="optimizeQuality" color-interpolation="linearRGB" image-rendering="optimizeQuality"><path d="M3.7344 -13.1719 L3.7344 -11.2656 L1.9375 -11.2656 L1.9375 -13.1719 L3.7344 -13.1719 ZM0.9531 -0.4844 Q1.3281 -0.5938 1.4922 -0.6797 Q1.6562 -0.7656 1.7656 -0.9219 Q1.875 -1.0781 1.9375 -1.4062 Q2 -1.7344 2 -2.4062 L2 -6.6719 Q2 -7.2969 1.9844 -7.6797 Q1.9688 -8.0625 1.8516 -8.2891 Q1.7344 -8.5156 1.4922 -8.625 Q1.25 -8.7344 0.8125 -8.8125 L0.8125 -9.3438 L3.0938 -9.4219 L3.6875 -9.4219 L3.6875 -2.4375 Q3.6875 -1.6094 3.7656 -1.2812 Q3.8438 -0.9531 4.0625 -0.7812 Q4.2812 -0.6094 4.7812 -0.4844 L4.7812 0 L0.9531 0 L0.9531 -0.4844 ZM11.9688 -8.3438 L9.6406 -8.3438 L9.6406 -2.4375 Q9.6406 -1.7812 9.7031 -1.4531 Q9.7656 -1.125 9.8828 -0.9531 Q10 -0.7812 10.2031 -0.6797 Q10.4062 -0.5781 10.8438 -0.4844 L10.8438 0 L6.8438 0 L6.8438 -0.4844 Q7.2812 -0.5938 7.4688 -0.7031 Q7.6562 -0.8125 7.7578 -0.9766 Q7.8594 -1.1406 7.9062 -1.4531 Q7.9531 -1.7656 7.9531 -2.4375 L7.9531 -8.3438 L6.7656 -8.3438 L6.7656 -8.8438 Q7.1406 -8.9062 7.2656 -8.9375 Q7.3906 -8.9688 7.5 -9.0391 Q7.6094 -9.1094 7.6953 -9.2344 Q7.7812 -9.3594 7.8438 -9.6094 Q7.9062 -9.8594 7.9375 -10.3125 Q8.0312 -11.375 8.3281 -12.0391 Q8.625 -12.7031 9.1953 -13.1719 Q9.7656 -13.6406 10.4141 -13.8359 Q11.0625 -14.0312 11.9531 -14.0312 Q12.7188 -14.0312 13.25 -13.9219 L13.25 -12.1562 L12.2969 -12.1562 Q12.1094 -12.7188 11.8594 -12.9609 Q11.6094 -13.2031 11.1562 -13.2031 Q10.8281 -13.2031 10.6094 -13.1172 Q10.3906 -13.0312 10.2109 -12.8438 Q10.0312 -12.6562 9.8984 -12.3438 Q9.7656 -12.0312 9.7031 -11.5703 Q9.6406 -11.1094 9.6406 -10.3594 L9.6406 -9.3438 L11.9688 -9.3438 L11.9688 -8.3438 ZM20.1406 -7.3125 L20.4375 -7.3125 Q20.8125 -7.3125 21.1172 -7.4297 Q21.4219 -7.5469 21.8047 -7.8672 Q22.1875 -8.1875 22.9688 -9.0625 Q23.9062 -10.1094 24.25 -10.5781 Q24.6719 -11.1406 24.8125 -11.5156 Q24.9375 -11.7969 24.9375 -12.0625 Q24.9375 -12.4531 24.7109 -12.6328 Q24.4844 -12.8125 24.0938 -12.8594 L24.0938 -13.3281 L28.3594 -13.3281 L28.3594 -12.8594 Q28.0469 -12.7812 27.7422 -12.6094 Q27.4375 -12.4375 27.1172 -12.1406 Q26.7969 -11.8438 26.1875 -11.1562 L22.9062 -7.4688 L26.4531 -2.3125 Q27.0312 -1.4844 27.3516 -1.1562 Q27.6719 -0.8281 27.9609 -0.6797 Q28.25 -0.5312 28.5938 -0.4844 L28.5938 0 L24.2812 0 L24.2812 -0.4844 Q24.6406 -0.5156 24.8047 -0.6172 Q24.9688 -0.7188 24.9688 -0.9375 Q24.9688 -1.1094 24.8594 -1.3594 Q24.75 -1.6094 24.5 -1.9688 L22.2344 -5.3594 Q21.8281 -5.9531 21.6406 -6.1484 Q21.4531 -6.3438 21.2422 -6.4375 Q21.0312 -6.5312 20.6719 -6.5312 L20.1562 -6.5312 L20.1562 -2.4375 Q20.1562 -1.7812 20.1953 -1.4844 Q20.2344 -1.1875 20.3359 -1.0078 Q20.4375 -0.8281 20.6406 -0.7109 Q20.8438 -0.5938 21.2969 -0.4844 L21.2969 0 L17.1875 0 L17.1875 -0.4844 Q17.7812 -0.6406 17.9922 -0.8281 Q18.2031 -1.0156 18.2656 -1.3672 Q18.3281 -1.7188 18.3281 -2.4375 L18.3281 -10.8906 Q18.3281 -11.5625 18.2812 -11.8672 Q18.2344 -12.1719 18.1172 -12.3438 Q18 -12.5156 17.8125 -12.6172 Q17.625 -12.7188 17.1875 -12.8594 L17.1875 -13.3281 L21.2969 -13.3281 L21.2969 -12.8594 Q20.8594 -12.75 20.6719 -12.6406 Q20.4844 -12.5312 20.375 -12.3672 Q20.2656 -12.2031 20.2109 -11.8828 Q20.1562 -11.5625 20.1562 -10.8906 L20.1406 -7.3125 ZM39.3125 -13.3281 L39.3125 -10.375 L38.3594 -10.375 Q38.2031 -10.8594 38.0469 -11.2188 Q37.8906 -11.5781 37.7266 -11.8281 Q37.5625 -12.0781 37.3672 -12.2188 Q37.1719 -12.3594 36.8984 -12.4141 Q36.625 -12.4688 36.2344 -12.4688 L33.1562 -12.4688 L33.1562 -7.3594 L35.2344 -7.3594 Q35.6719 -7.3594 35.9141 -7.4766 Q36.1562 -7.5938 36.3203 -7.8906 Q36.4844 -8.1875 36.625 -8.8125 L37.5469 -8.8125 L37.5469 -5.0625 L36.625 -5.0625 Q36.4844 -5.6406 36.3203 -5.9375 Q36.1562 -6.2344 35.9297 -6.3672 Q35.7031 -6.5 35.2344 -6.5 L33.1562 -6.5 L33.1562 -0.8594 L36.1875 -0.8594 Q36.6719 -0.8594 36.9688 -0.9453 Q37.2656 -1.0312 37.4766 -1.2266 Q37.6875 -1.4219 37.8594 -1.75 Q38.0312 -2.0781 38.1406 -2.4219 Q38.25 -2.7656 38.4375 -3.4219 L39.4062 -3.4219 L39.2188 0 L30.1875 0 L30.1875 -0.4844 Q30.7812 -0.6406 30.9922 -0.8281 Q31.2031 -1.0156 31.2656 -1.3672 Q31.3281 -1.7188 31.3281 -2.4375 L31.3281 -10.8906 Q31.3281 -11.5625 31.2812 -11.8672 Q31.2344 -12.1719 31.1172 -12.3438 Q31 -12.5156 30.8125 -12.6172 Q30.625 -12.7188 30.1875 -12.8594 L30.1875 -13.3281 L39.3125 -13.3281 ZM45.7031 -5.5938 L43.0156 -10.6094 Q42.5312 -11.5156 42.2734 -11.9062 Q42.0156 -12.2969 41.7656 -12.5234 Q41.5156 -12.75 41.1719 -12.8594 L41.1719 -13.3281 L45.3438 -13.3281 L45.3438 -12.8594 Q44.4219 -12.75 44.4219 -12.0625 Q44.4219 -11.7812 44.5547 -11.4297 Q44.6875 -11.0781 45.0312 -10.4375 L46.9844 -6.7031 L48.9062 -10.1094 Q49.2969 -10.7969 49.4531 -11.2422 Q49.6094 -11.6875 49.6094 -12.0625 Q49.6094 -12.4062 49.3984 -12.6094 Q49.1875 -12.8125 48.7812 -12.8594 L48.7812 -13.3281 L52.4844 -13.3281 L52.4844 -12.8594 Q52.0781 -12.7031 51.7812 -12.4453 Q51.4844 -12.1875 51.1719 -11.75 Q50.8594 -11.3125 50.25 -10.2656 L47.5312 -5.6406 L47.5312 -2.4688 Q47.5312 -1.9219 47.5938 -1.5781 Q47.6562 -1.2344 47.7891 -1.0312 Q47.9219 -0.8281 48.1484 -0.7109 Q48.375 -0.5938 48.8594 -0.4844 L48.8594 0 L44.3906 0 L44.3906 -0.4844 Q44.8594 -0.5781 45.0859 -0.6875 Q45.3125 -0.7969 45.4453 -1.0078 Q45.5781 -1.2188 45.6406 -1.5625 Q45.7031 -1.9062 45.7031 -2.4688 L45.7031 -5.5938 ZM58.3906 0.1562 Q57.2188 0.1562 56.2578 -0.2266 Q55.2969 -0.6094 54.6094 -1.4297 Q53.9219 -2.25 53.5391 -3.5156 Q53.1562 -4.7812 53.1562 -6.5469 Q53.1562 -8.7344 53.8203 -10.2969 Q54.4844 -11.8594 55.7266 -12.6719 Q56.9688 -13.4844 58.5938 -13.4844 Q60.3281 -13.4844 61.5156 -12.7188 Q62.7031 -11.9531 63.3047 -10.4609 Q63.9062 -8.9688 63.9062 -6.8438 Q63.9062 -4.5469 63.2188 -2.9766 Q62.5312 -1.4062 61.2891 -0.625 Q60.0469 0.1562 58.3906 0.1562 ZM55.1719 -6.8281 Q55.1719 -3.8281 56.0469 -2.2656 Q56.9219 -0.7031 58.6094 -0.7031 Q59.6719 -0.7031 60.4141 -1.3828 Q61.1562 -2.0625 61.5234 -3.3672 Q61.8906 -4.6719 61.8906 -6.4219 Q61.8906 -8.5625 61.4609 -9.9609 Q61.0312 -11.3594 60.2734 -11.9922 Q59.5156 -12.625 58.5312 -12.625 Q57.6406 -12.625 57.0156 -12.2188 Q56.3906 -11.8125 55.9766 -11.0547 Q55.5625 -10.2969 55.3672 -9.2188 Q55.1719 -8.1406 55.1719 -6.8281 ZM69.1562 -2.4688 Q69.1562 -1.8906 69.2188 -1.5547 Q69.2812 -1.2188 69.4141 -1.0156 Q69.5469 -0.8125 69.7656 -0.7031 Q69.9844 -0.5938 70.4688 -0.4844 L70.4688 0 L66.1875 0 L66.1875 -0.4844 Q66.7812 -0.6406 66.9922 -0.8281 Q67.2031 -1.0156 67.2656 -1.3672 Q67.3281 -1.7188 67.3281 -2.4375 L67.3281 -10.8906 Q67.3281 -11.5625 67.2812 -11.8672 Q67.2344 -12.1719 67.1172 -12.3438 Q67 -12.5156 66.8125 -12.6172 Q66.625 -12.7188 66.1875 -12.8594 L66.1875 -13.3281 L71.0312 -13.3281 Q73.3125 -13.3281 74.4297 -12.4531 Q75.5469 -11.5781 75.5469 -9.7969 Q75.5469 -8.7812 75.1953 -7.9688 Q74.8438 -7.1562 74.2031 -6.6406 Q73.5625 -6.125 72.6797 -5.8984 Q71.7969 -5.6719 70.8281 -5.6719 Q69.75 -5.6719 69.1562 -5.7188 L69.1562 -2.4688 ZM69.1562 -6.5312 L70.2812 -6.5312 Q71.3906 -6.5312 72.1094 -6.8125 Q72.8281 -7.0938 73.2031 -7.7656 Q73.5781 -8.4375 73.5781 -9.5469 Q73.5781 -10.375 73.3594 -10.9375 Q73.1406 -11.5 72.7422 -11.8438 Q72.3438 -12.1875 71.7969 -12.3281 Q71.25 -12.4688 70.6094 -12.4688 Q69.6406 -12.4688 69.1562 -12.4375 L69.1562 -6.5312 ZM76.6406 -13.3281 L87.2188 -13.3281 L87.2188 -9.9375 L86.25 -9.9375 Q86.0469 -10.7656 85.8359 -11.2578 Q85.625 -11.75 85.3906 -12 Q85.1562 -12.25 84.8828 -12.3594 Q84.6094 -12.4688 84.0781 -12.4688 L82.8438 -12.4688 L82.8438 -2.4688 Q82.8438 -1.8906 82.9062 -1.5547 Q82.9688 -1.2188 83.1016 -1.0156 Q83.2344 -0.8125 83.4531 -0.7031 Q83.6719 -0.5938 84.1562 -0.4844 L84.1562 0 L79.6875 0 L79.6875 -0.4844 Q79.9844 -0.5469 80.2109 -0.625 Q80.4375 -0.7031 80.5781 -0.8125 Q80.7188 -0.9219 80.8125 -1.1016 Q80.9062 -1.2812 80.9609 -1.5859 Q81.0156 -1.8906 81.0156 -2.4688 L81.0156 -12.4688 L79.7812 -12.4688 Q79.3281 -12.4688 79.0234 -12.3828 Q78.7188 -12.2969 78.4688 -12.0156 Q78.2188 -11.7344 78.0078 -11.2266 Q77.7969 -10.7188 77.6094 -9.9375 L76.6406 -9.9375 L76.6406 -13.3281 ZM95.2188 4.25 Q93.5625 4.25 92.5078 3.75 Q91.4531 3.25 90.8672 2.2344 Q90.2812 1.2188 90.0234 -0.4141 Q89.7656 -2.0469 89.7656 -4.8438 Q89.7656 -7.625 90.0234 -9.2656 Q90.2812 -10.9062 90.8672 -11.9453 Q91.4531 -12.9844 92.5078 -13.5 Q93.5625 -14.0156 95.2188 -14.0156 L95.2188 -13.2188 Q94.5312 -13.2188 94 -13.0938 Q93.4062 -12.9531 92.9844 -12.5625 Q92.5156 -12.1406 92.2344 -11.375 Q91.8906 -10.4688 91.7188 -8.9844 Q91.5469 -7.4062 91.5469 -4.9219 Q91.5469 -2.7188 91.6953 -1.1797 Q91.8438 0.3594 92.1875 1.3281 Q92.4531 2.1562 92.8594 2.6094 Q93.2188 3.0156 93.7188 3.2188 Q94.2969 3.4531 95.2188 3.4531 L95.2188 4.25 ZM102.7812 -2.5469 Q102.7812 -1.9844 102.8516 -1.6953 Q102.9219 -1.4062 103.0781 -1.2266 Q103.2344 -1.0469 103.5391 -0.9453 Q103.8438 -0.8438 104.3047 -0.7891 Q104.7656 -0.7344 105.5156 -0.7188 L105.5156 0 L98.2969 0 L98.2969 -0.7188 Q99.375 -0.7656 99.8438 -0.8438 Q100.3125 -0.9219 100.5547 -1.0938 Q100.7969 -1.2656 100.9062 -1.5625 Q101.0156 -1.8594 101.0156 -2.5469 L101.0156 -10.4688 Q101.0156 -10.8594 100.8828 -11.0391 Q100.75 -11.2188 100.4844 -11.2188 Q100.1719 -11.2188 99.5938 -10.8984 Q99.0156 -10.5781 98.1719 -10.0156 L97.7344 -10.7656 L102.3125 -13.4844 L102.8438 -13.4844 Q102.7812 -12.5469 102.7812 -10.8906 L102.7812 -2.5469 ZM107.4219 -14.0156 Q109.0781 -14.0156 110.1328 -13.5156 Q111.1875 -13.0156 111.7734 -12 Q112.3594 -10.9844 112.6172 -9.3516 Q112.875 -7.7188 112.875 -4.9219 Q112.875 -2.1562 112.6172 -0.5078 Q112.3594 1.1406 111.7734 2.1797 Q111.1875 3.2188 110.1328 3.7344 Q109.0781 4.25 107.4219 4.25 L107.4219 3.4531 Q108.1094 3.4531 108.625 3.3281 Q109.2344 3.1875 109.6406 2.7969 Q110.1094 2.375 110.4062 1.6094 Q110.75 0.7031 110.9219 -0.7812 Q111.0938 -2.3594 111.0938 -4.8438 Q111.0938 -7.0469 110.9453 -8.5859 Q110.7969 -10.125 110.4531 -11.0938 Q110.1875 -11.9219 109.7812 -12.375 Q109.4062 -12.7812 108.9219 -12.9844 Q108.3438 -13.2188 107.4219 -13.2188 L107.4219 -14.0156 ZM120.2188 -7.0625 L120.2188 -8.4219 L128.8594 -8.4219 L128.8594 -7.0625 L120.2188 -7.0625 ZM120.2188 -3.0156 L120.2188 -4.3594 L128.8594 -4.3594 L128.8594 -3.0156 L120.2188 -3.0156 ZM139.4375 0.1562 Q137.3281 0.1562 136.2969 -1.5078 Q135.2656 -3.1719 135.2656 -6.5469 Q135.2656 -8.3438 135.5781 -9.6484 Q135.8906 -10.9531 136.4609 -11.8125 Q137.0312 -12.6719 137.8359 -13.0781 Q138.6406 -13.4844 139.5938 -13.4844 Q141.7188 -13.4844 142.7656 -11.8359 Q143.8125 -10.1875 143.8125 -6.8438 Q143.8125 -3.3906 142.6953 -1.6172 Q141.5781 0.1562 139.4375 0.1562 ZM137.1719 -6.8438 Q137.1719 -3.6562 137.7578 -2.1641 Q138.3438 -0.6719 139.5938 -0.6719 Q140.7656 -0.6719 141.3359 -2.0781 Q141.9062 -3.4844 141.9062 -6.4219 Q141.9062 -8.6562 141.6172 -10.0547 Q141.3281 -11.4531 140.8047 -12.0547 Q140.2812 -12.6562 139.5312 -12.6562 Q138.8594 -12.6562 138.4062 -12.2578 Q137.9531 -11.8594 137.6797 -11.1094 Q137.4062 -10.3594 137.2891 -9.2734 Q137.1719 -8.1875 137.1719 -6.8438 Z" stroke="none"/></g><g text-rendering="optimizeLegibility" transform="translate(55.9688,223.3359)" color-rendering="optimizeQuality" color-interpolation="linearRGB" image-rendering="optimizeQuality"><path d="M2.3438 -0.7031 L1.2344 4.2188 L-0.3594 4.2188 L1.6094 -4.625 Q2.6875 -9.5 6.625 -9.5 Q8.0625 -9.5 8.8828 -8.6641 Q9.7031 -7.8281 9.7031 -6.2969 Q9.7031 -4.0312 8.2344 -1.9375 Q6.7656 0.1562 4.4062 0.1562 Q3.2188 0.1562 2.3438 -0.7031 ZM3.0781 -4.0781 L2.6719 -2.25 Q2.6406 -2.1094 2.6406 -1.9688 Q2.6406 -1.4688 3.2109 -1.0391 Q3.7812 -0.6094 4.4844 -0.6094 Q5.875 -0.6094 6.9297 -2.4766 Q7.9844 -4.3438 7.9844 -6.5312 Q7.9844 -8.7188 6.3125 -8.7188 Q4.0781 -8.7188 3.0781 -4.0781 Z" stroke="none"/></g><g text-rendering="optimizeLegibility" transform="translate(66.75,252.1214) matrix(1,0,0,7.3857,0,0)" color-rendering="optimizeQuality" color-interpolation="linearRGB" image-rendering="optimizeQuality"><path d="M7.0781 4.2188 Q5.5625 4.2188 4.6797 3.8281 Q3.7969 3.4375 3.4141 2.6641 Q3.0312 1.8906 3.0312 0.5781 L3.0312 -2.25 Q3.0312 -3.1094 2.8125 -3.5938 Q2.5938 -4.0781 2.1562 -4.2734 Q1.7188 -4.4688 0.9219 -4.4688 L0.9219 -5.2812 Q1.7031 -5.2812 2.1484 -5.4766 Q2.5938 -5.6719 2.8125 -6.1484 Q3.0312 -6.625 3.0312 -7.5 L3.0312 -10.3281 Q3.0312 -11.625 3.4141 -12.4062 Q3.7969 -13.1875 4.6797 -13.5781 Q5.5625 -13.9688 7.0781 -13.9688 L7.3281 -13.9688 L7.3281 -13.1719 Q6.5469 -13.1719 6.1641 -13.0938 Q5.7812 -13.0156 5.5391 -12.8438 Q5.2969 -12.6719 5.1406 -12.4141 Q4.9844 -12.1562 4.8984 -11.6875 Q4.8125 -11.2188 4.8125 -10.4375 L4.8125 -8.5469 Q4.8125 -7.5625 4.6406 -6.8984 Q4.4688 -6.2344 4.0312 -5.7578 Q3.5938 -5.2812 2.8281 -4.9688 L2.8281 -4.7812 Q3.5781 -4.4844 4.0312 -3.9844 Q4.4844 -3.4844 4.6484 -2.8203 Q4.8125 -2.1562 4.8125 -1.2031 L4.8125 0.6875 Q4.8125 1.4688 4.8984 1.9375 Q4.9844 2.4062 5.1406 2.6719 Q5.2969 2.9375 5.5391 3.1016 Q5.7812 3.2656 6.1641 3.3438 Q6.5469 3.4219 7.3281 3.4219 L7.3281 4.2188 L7.0781 4.2188 Z" stroke="none"/></g><g text-rendering="optimizeLegibility" transform="translate(76.6797,160.6316)" color-rendering="optimizeQuality" color-interpolation="linearRGB" image-rendering="optimizeQuality"><path d="M6.5938 -1.3906 L6.4531 -1.4375 Q5.5938 -0.5625 4.8516 -0.2031 Q4.1094 0.1562 3.2656 0.1562 Q2.5156 0.1562 1.9531 -0.1328 Q1.3906 -0.4219 1.0859 -0.9453 Q0.7812 -1.4688 0.7812 -2.1562 Q0.7812 -3.5781 2.1953 -4.3516 Q3.6094 -5.125 6.4219 -5.25 L6.4219 -5.8906 Q6.4219 -6.9062 6.2266 -7.4922 Q6.0312 -8.0781 5.6172 -8.3516 Q5.2031 -8.625 4.5 -8.625 Q3.7344 -8.625 3.2656 -8.2266 Q2.7969 -7.8281 2.5625 -7.0156 L1.2969 -7.0156 L1.2969 -8.2969 Q2.2344 -8.7812 2.8594 -9.0078 Q3.4844 -9.2344 4.1094 -9.3672 Q4.7344 -9.5 5.375 -9.5 Q6.3438 -9.5 6.9297 -9.1953 Q7.5156 -8.8906 7.8047 -8.2578 Q8.0938 -7.625 8.0938 -6.3438 L8.0938 -2.9375 Q8.0938 -2.2188 8.1016 -1.9219 Q8.1094 -1.625 8.1641 -1.3672 Q8.2188 -1.1094 8.3125 -0.9609 Q8.4062 -0.8125 8.6016 -0.7031 Q8.7969 -0.5938 9.2188 -0.4844 L9.2188 0 L6.5469 0 L6.5938 -1.3906 ZM6.4219 -4.4531 Q4.4375 -4.4375 3.4531 -3.9297 Q2.4688 -3.4219 2.4688 -2.3906 Q2.4688 -1.8438 2.6953 -1.5156 Q2.9219 -1.1875 3.2656 -1.0703 Q3.6094 -0.9531 4.0781 -0.9531 Q4.7344 -0.9531 5.2812 -1.2734 Q5.8281 -1.5938 6.125 -2.0938 Q6.4219 -2.5938 6.4219 -3.0781 L6.4219 -4.4531 Z" stroke="none"/></g><g text-rendering="optimizeLegibility" transform="translate(85.1641,159.6706)" color-rendering="optimizeQuality" color-interpolation="linearRGB" image-rendering="optimizeQuality"><path d="M2.9688 -10.7188 L2.9688 -10.3281 L1.3125 -6.3594 L0.7344 -6.5312 L1.6875 -10.7188 L2.9688 -10.7188 Z" stroke="none"/></g><g text-rendering="optimizeLegibility" transform="translate(76.3203,186.9362)" color-rendering="optimizeQuality" color-interpolation="linearRGB" image-rendering="optimizeQuality"><path d="M3.4062 -7.7969 L3.4531 -7.7969 Q4.125 -8.5 4.5859 -8.8281 Q5.0469 -9.1562 5.5234 -9.3281 Q6 -9.5 6.5781 -9.5 Q7.625 -9.5 8.375 -8.9609 Q9.125 -8.4219 9.5312 -7.3594 Q9.9375 -6.2969 9.9375 -4.75 Q9.9375 -3.1719 9.4531 -2.0703 Q8.9688 -0.9688 8.0234 -0.4062 Q7.0781 0.1562 5.7969 0.1562 Q5.0625 0.1562 4.4297 0.0234 Q3.7969 -0.1094 3.0938 -0.4375 L2.4062 0.1562 L1.7344 0 L1.7344 -10.6094 Q1.7344 -11.5469 1.7188 -11.9219 Q1.7031 -12.2969 1.6406 -12.5547 Q1.5781 -12.8125 1.4609 -12.9609 Q1.3438 -13.1094 1.1562 -13.1953 Q0.9688 -13.2812 0.4688 -13.375 L0.4688 -13.875 L2.8281 -13.9688 L3.4062 -13.9688 L3.4062 -7.7969 ZM3.4062 -3.5156 Q3.4062 -2.7656 3.4766 -2.3203 Q3.5469 -1.875 3.7109 -1.5859 Q3.875 -1.2969 4.1797 -1.0469 Q4.4844 -0.7969 4.8672 -0.7031 Q5.25 -0.6094 5.7188 -0.6094 Q6.8906 -0.6094 7.4922 -1.5703 Q8.0938 -2.5312 8.0938 -4.4375 Q8.0938 -6.375 7.5469 -7.3516 Q7 -8.3281 5.875 -8.3281 Q5.3281 -8.3281 4.9375 -8.1562 Q4.5469 -7.9844 4.1562 -7.6172 Q3.7656 -7.25 3.5859 -6.8984 Q3.4062 -6.5469 3.4062 -6.1094 L3.4062 -3.5156 Z" stroke="none"/></g><g text-rendering="optimizeLegibility" transform="translate(85.5234,181.5066)" color-rendering="optimizeQuality" color-interpolation="linearRGB" image-rendering="optimizeQuality"><path d="M2.9688 -10.7188 L2.9688 -10.3281 L1.3125 -6.3594 L0.7344 -6.5312 L1.6875 -10.7188 L2.9688 -10.7188 Z" stroke="none"/></g><g text-rendering="optimizeLegibility" transform="translate(77.1406,208.7722)" color-rendering="optimizeQuality" color-interpolation="linearRGB" image-rendering="optimizeQuality"><path d="M8.2188 -9.1094 L8.2188 -7.0781 L6.9844 -7.0781 Q6.8125 -7.7031 6.5703 -8.0703 Q6.3281 -8.4375 6.0078 -8.5859 Q5.6875 -8.7344 5.2031 -8.7344 Q4.5156 -8.7344 3.9922 -8.2969 Q3.4688 -7.8594 3.1641 -6.9609 Q2.8594 -6.0625 2.8594 -4.75 Q2.8594 -3.9219 2.9766 -3.2344 Q3.0938 -2.5469 3.375 -2.0625 Q3.6562 -1.5781 4.125 -1.3047 Q4.5938 -1.0312 5.2812 -1.0312 Q5.9531 -1.0312 6.5391 -1.2891 Q7.125 -1.5469 7.75 -2.2188 L8.2969 -1.5781 Q7.7969 -1.0312 7.4219 -0.7344 Q7.0469 -0.4375 6.6094 -0.2344 Q6.1719 -0.0312 5.75 0.0625 Q5.3281 0.1562 4.8281 0.1562 Q2.9844 0.1562 2.0078 -1.0703 Q1.0312 -2.2969 1.0312 -4.6094 Q1.0312 -6.0625 1.5781 -7.1797 Q2.125 -8.2969 3.1094 -8.8984 Q4.0938 -9.5 5.375 -9.5 Q6.1875 -9.5 6.8672 -9.4062 Q7.5469 -9.3125 8.2188 -9.1094 Z" stroke="none"/></g><g text-rendering="optimizeLegibility" transform="translate(84.7031,207.8112)" color-rendering="optimizeQuality" color-interpolation="linearRGB" image-rendering="optimizeQuality"><path d="M2.9688 -10.7188 L2.9688 -10.3281 L1.3125 -6.3594 L0.7344 -6.5312 L1.6875 -10.7188 L2.9688 -10.7188 Z" stroke="none"/></g><g text-rendering="optimizeLegibility" transform="translate(76.0781,235.0769)" color-rendering="optimizeQuality" color-interpolation="linearRGB" image-rendering="optimizeQuality"><path d="M7.5469 -10.6094 Q7.5469 -11.5469 7.5312 -11.9219 Q7.5156 -12.2969 7.4531 -12.5547 Q7.3906 -12.8125 7.2734 -12.9609 Q7.1562 -13.1094 6.9688 -13.1953 Q6.7812 -13.2812 6.2812 -13.375 L6.2812 -13.875 L8.6406 -13.9688 L9.2188 -13.9688 L9.2188 -2.6719 Q9.2188 -1.9062 9.25 -1.5781 Q9.2812 -1.25 9.375 -1.0547 Q9.4688 -0.8594 9.6797 -0.7344 Q9.8906 -0.6094 10.4219 -0.5156 L10.4219 0 L8.1094 0.0938 L7.5312 0.0938 L7.6406 -1.5 L7.5 -1.5469 Q6.8906 -0.8906 6.4375 -0.5625 Q5.9844 -0.2344 5.4688 -0.0391 Q4.9531 0.1562 4.3594 0.1562 Q2.7656 0.1562 1.8984 -1.0625 Q1.0312 -2.2812 1.0312 -4.5781 Q1.0312 -6.1719 1.5938 -7.2891 Q2.1562 -8.4062 3.1172 -8.9531 Q4.0781 -9.5 5.2812 -9.5 Q5.9219 -9.5 6.4531 -9.3984 Q6.9844 -9.2969 7.5469 -9.0625 L7.5469 -10.6094 ZM7.5469 -5.7969 Q7.5469 -6.5469 7.4766 -7.0078 Q7.4062 -7.4688 7.2422 -7.7812 Q7.0781 -8.0938 6.8047 -8.3125 Q6.5312 -8.5312 6.2031 -8.625 Q5.875 -8.7188 5.4219 -8.7188 Q4.1719 -8.7188 3.5156 -7.7188 Q2.8594 -6.7188 2.8594 -4.8438 Q2.8594 -2.9688 3.3984 -1.9922 Q3.9375 -1.0156 5.0312 -1.0156 Q5.4531 -1.0156 5.7422 -1.0859 Q6.0312 -1.1562 6.3047 -1.3203 Q6.5781 -1.4844 6.8594 -1.7656 Q7.1406 -2.0469 7.2734 -2.2812 Q7.4062 -2.5156 7.4766 -2.8203 Q7.5469 -3.125 7.5469 -3.6094 L7.5469 -5.7969 Z" stroke="none"/></g><g text-rendering="optimizeLegibility" transform="translate(85.7656,229.6472)" color-rendering="optimizeQuality" color-interpolation="linearRGB" image-rendering="optimizeQuality"><path d="M2.9688 -10.7188 L2.9688 -10.3281 L1.3125 -6.3594 L0.7344 -6.5312 L1.6875 -10.7188 L2.9688 -10.7188 Z" stroke="none"/></g><g text-rendering="optimizeLegibility" transform="translate(76.8125,256.9128)" color-rendering="optimizeQuality" color-interpolation="linearRGB" image-rendering="optimizeQuality"><path d="M8.75 -1.6562 Q8.125 -1 7.6016 -0.6328 Q7.0781 -0.2656 6.4531 -0.0547 Q5.8281 0.1562 5.0781 0.1562 Q3.0625 0.1562 2.0391 -1.0469 Q1.0156 -2.25 1.0156 -4.6094 Q1.0156 -6.0625 1.5391 -7.1797 Q2.0625 -8.2969 3.0312 -8.8984 Q4 -9.5 5.25 -9.5 Q6.2344 -9.5 6.9297 -9.1875 Q7.625 -8.875 8.0391 -8.3359 Q8.4531 -7.7969 8.6875 -6.9688 Q8.9219 -6.1406 8.9531 -4.8125 L2.7969 -4.8125 L2.7969 -4.6406 Q2.7969 -3.4844 3.0547 -2.7031 Q3.3125 -1.9219 3.9062 -1.4766 Q4.5 -1.0312 5.4375 -1.0312 Q6.2344 -1.0312 6.875 -1.3281 Q7.5156 -1.625 8.1562 -2.2969 L8.75 -1.6562 ZM7.1094 -5.625 Q7.0469 -6.6875 6.8438 -7.3516 Q6.6406 -8.0156 6.2344 -8.375 Q5.8281 -8.7344 5.1562 -8.7344 Q4.1562 -8.7344 3.5547 -7.9297 Q2.9531 -7.125 2.8438 -5.625 L7.1094 -5.625 Z" stroke="none"/></g><g text-rendering="optimizeLegibility" transform="translate(85.0312,255.9519)" color-rendering="optimizeQuality" color-interpolation="linearRGB" image-rendering="optimizeQuality"><path d="M2.9688 -10.7188 L2.9688 -10.3281 L1.3125 -6.3594 L0.7344 -6.5312 L1.6875 -10.7188 L2.9688 -10.7188 Z" stroke="none"/></g><g text-rendering="optimizeLegibility" transform="translate(77.6641,283.28)" color-rendering="optimizeQuality" color-interpolation="linearRGB" image-rendering="optimizeQuality"><path d="M5.9688 -8.3438 L3.6406 -8.3438 L3.6406 -2.4375 Q3.6406 -1.7812 3.7031 -1.4531 Q3.7656 -1.125 3.8828 -0.9531 Q4 -0.7812 4.2031 -0.6797 Q4.4062 -0.5781 4.8438 -0.4844 L4.8438 0 L0.8438 0 L0.8438 -0.4844 Q1.2812 -0.5938 1.4688 -0.7031 Q1.6562 -0.8125 1.7578 -0.9766 Q1.8594 -1.1406 1.9062 -1.4531 Q1.9531 -1.7656 1.9531 -2.4375 L1.9531 -8.3438 L0.7656 -8.3438 L0.7656 -8.8438 Q1.1406 -8.9062 1.2656 -8.9375 Q1.3906 -8.9688 1.5 -9.0391 Q1.6094 -9.1094 1.6953 -9.2344 Q1.7812 -9.3594 1.8438 -9.6094 Q1.9062 -9.8594 1.9375 -10.3125 Q2.0312 -11.375 2.3281 -12.0391 Q2.625 -12.7031 3.1953 -13.1719 Q3.7656 -13.6406 4.4141 -13.8359 Q5.0625 -14.0312 5.9531 -14.0312 Q6.7188 -14.0312 7.25 -13.9219 L7.25 -12.1562 L6.2969 -12.1562 Q6.1094 -12.7188 5.8594 -12.9609 Q5.6094 -13.2031 5.1562 -13.2031 Q4.8281 -13.2031 4.6094 -13.1172 Q4.3906 -13.0312 4.2109 -12.8438 Q4.0312 -12.6562 3.8984 -12.3438 Q3.7656 -12.0312 3.7031 -11.5703 Q3.6406 -11.1094 3.6406 -10.3594 L3.6406 -9.3438 L5.9688 -9.3438 L5.9688 -8.3438 Z" stroke="none"/></g><g text-rendering="optimizeLegibility" transform="translate(84.1797,277.7878)" color-rendering="optimizeQuality" color-interpolation="linearRGB" image-rendering="optimizeQuality"><path d="M2.9688 -10.7188 L2.9688 -10.3281 L1.3125 -6.3594 L0.7344 -6.5312 L1.6875 -10.7188 L2.9688 -10.7188 Z" stroke="none"/></g><g text-rendering="optimizeLegibility" transform="translate(90.3125,252.1214) matrix(1,0,0,7.3857,0,0)" color-rendering="optimizeQuality" color-interpolation="linearRGB" image-rendering="optimizeQuality"><path d="M0.6719 -13.9688 Q2.1875 -13.9688 3.0703 -13.5781 Q3.9531 -13.1875 4.3281 -12.4062 Q4.7031 -11.625 4.7031 -10.3281 L4.7031 -7.5 Q4.7031 -6.625 4.9297 -6.1484 Q5.1562 -5.6719 5.5938 -5.4766 Q6.0312 -5.2812 6.8125 -5.2812 L6.8125 -4.4688 Q6.0312 -4.4688 5.5859 -4.2734 Q5.1406 -4.0781 4.9219 -3.5938 Q4.7031 -3.1094 4.7031 -2.25 L4.7031 0.5781 Q4.7031 1.8906 4.3281 2.6641 Q3.9531 3.4375 3.0703 3.8281 Q2.1875 4.2188 0.6719 4.2188 L0.4219 4.2188 L0.4219 3.4219 Q1.1875 3.4219 1.5781 3.3438 Q1.9688 3.2656 2.2031 3.1016 Q2.4375 2.9375 2.5938 2.6719 Q2.75 2.4062 2.8438 1.9375 Q2.9375 1.4688 2.9375 0.6875 L2.9375 -1.2031 Q2.9375 -2.1875 3.1016 -2.8438 Q3.2656 -3.5 3.7109 -3.9844 Q4.1562 -4.4688 4.9062 -4.7812 L4.9062 -4.9688 Q4.1719 -5.2656 3.7188 -5.7656 Q3.2656 -6.2656 3.1016 -6.9297 Q2.9375 -7.5938 2.9375 -8.5469 L2.9375 -10.4375 Q2.9375 -11.2188 2.8438 -11.6875 Q2.75 -12.1562 2.5938 -12.4141 Q2.4375 -12.6719 2.2031 -12.8438 Q1.9688 -13.0156 1.5781 -13.0938 Q1.1875 -13.1719 0.4219 -13.1719 L0.4219 -13.9688 L0.6719 -13.9688 Z" stroke="none"/></g><g text-rendering="optimizeLegibility" transform="translate(112.6957,223.3359)" color-rendering="optimizeQuality" color-interpolation="linearRGB" image-rendering="optimizeQuality"><path d="M3.7344 -13.1719 L3.7344 -11.2656 L1.9375 -11.2656 L1.9375 -13.1719 L3.7344 -13.1719 ZM0.9531 -0.4844 Q1.3281 -0.5938 1.4922 -0.6797 Q1.6562 -0.7656 1.7656 -0.9219 Q1.875 -1.0781 1.9375 -1.4062 Q2 -1.7344 2 -2.4062 L2 -6.6719 Q2 -7.2969 1.9844 -7.6797 Q1.9688 -8.0625 1.8516 -8.2891 Q1.7344 -8.5156 1.4922 -8.625 Q1.25 -8.7344 0.8125 -8.8125 L0.8125 -9.3438 L3.0938 -9.4219 L3.6875 -9.4219 L3.6875 -2.4375 Q3.6875 -1.6094 3.7656 -1.2812 Q3.8438 -0.9531 4.0625 -0.7812 Q4.2812 -0.6094 4.7812 -0.4844 L4.7812 0 L0.9531 0 L0.9531 -0.4844 ZM11.9688 -8.3438 L9.6406 -8.3438 L9.6406 -2.4375 Q9.6406 -1.7812 9.7031 -1.4531 Q9.7656 -1.125 9.8828 -0.9531 Q10 -0.7812 10.2031 -0.6797 Q10.4062 -0.5781 10.8438 -0.4844 L10.8438 0 L6.8438 0 L6.8438 -0.4844 Q7.2812 -0.5938 7.4688 -0.7031 Q7.6562 -0.8125 7.7578 -0.9766 Q7.8594 -1.1406 7.9062 -1.4531 Q7.9531 -1.7656 7.9531 -2.4375 L7.9531 -8.3438 L6.7656 -8.3438 L6.7656 -8.8438 Q7.1406 -8.9062 7.2656 -8.9375 Q7.3906 -8.9688 7.5 -9.0391 Q7.6094 -9.1094 7.6953 -9.2344 Q7.7812 -9.3594 7.8438 -9.6094 Q7.9062 -9.8594 7.9375 -10.3125 Q8.0312 -11.375 8.3281 -12.0391 Q8.625 -12.7031 9.1953 -13.1719 Q9.7656 -13.6406 10.4141 -13.8359 Q11.0625 -14.0312 11.9531 -14.0312 Q12.7188 -14.0312 13.25 -13.9219 L13.25 -12.1562 L12.2969 -12.1562 Q12.1094 -12.7188 11.8594 -12.9609 Q11.6094 -13.2031 11.1562 -13.2031 Q10.8281 -13.2031 10.6094 -13.1172 Q10.3906 -13.0312 10.2109 -12.8438 Q10.0312 -12.6562 9.8984 -12.3438 Q9.7656 -12.0312 9.7031 -11.5703 Q9.6406 -11.1094 9.6406 -10.3594 L9.6406 -9.3438 L11.9688 -9.3438 L11.9688 -8.3438 ZM20.1406 -7.3125 L20.4375 -7.3125 Q20.8125 -7.3125 21.1172 -7.4297 Q21.4219 -7.5469 21.8047 -7.8672 Q22.1875 -8.1875 22.9688 -9.0625 Q23.9062 -10.1094 24.25 -10.5781 Q24.6719 -11.1406 24.8125 -11.5156 Q24.9375 -11.7969 24.9375 -12.0625 Q24.9375 -12.4531 24.7109 -12.6328 Q24.4844 -12.8125 24.0938 -12.8594 L24.0938 -13.3281 L28.3594 -13.3281 L28.3594 -12.8594 Q28.0469 -12.7812 27.7422 -12.6094 Q27.4375 -12.4375 27.1172 -12.1406 Q26.7969 -11.8438 26.1875 -11.1562 L22.9062 -7.4688 L26.4531 -2.3125 Q27.0312 -1.4844 27.3516 -1.1562 Q27.6719 -0.8281 27.9609 -0.6797 Q28.25 -0.5312 28.5938 -0.4844 L28.5938 0 L24.2812 0 L24.2812 -0.4844 Q24.6406 -0.5156 24.8047 -0.6172 Q24.9688 -0.7188 24.9688 -0.9375 Q24.9688 -1.1094 24.8594 -1.3594 Q24.75 -1.6094 24.5 -1.9688 L22.2344 -5.3594 Q21.8281 -5.9531 21.6406 -6.1484 Q21.4531 -6.3438 21.2422 -6.4375 Q21.0312 -6.5312 20.6719 -6.5312 L20.1562 -6.5312 L20.1562 -2.4375 Q20.1562 -1.7812 20.1953 -1.4844 Q20.2344 -1.1875 20.3359 -1.0078 Q20.4375 -0.8281 20.6406 -0.7109 Q20.8438 -0.5938 21.2969 -0.4844 L21.2969 0 L17.1875 0 L17.1875 -0.4844 Q17.7812 -0.6406 17.9922 -0.8281 Q18.2031 -1.0156 18.2656 -1.3672 Q18.3281 -1.7188 18.3281 -2.4375 L18.3281 -10.8906 Q18.3281 -11.5625 18.2812 -11.8672 Q18.2344 -12.1719 18.1172 -12.3438 Q18 -12.5156 17.8125 -12.6172 Q17.625 -12.7188 17.1875 -12.8594 L17.1875 -13.3281 L21.2969 -13.3281 L21.2969 -12.8594 Q20.8594 -12.75 20.6719 -12.6406 Q20.4844 -12.5312 20.375 -12.3672 Q20.2656 -12.2031 20.2109 -11.8828 Q20.1562 -11.5625 20.1562 -10.8906 L20.1406 -7.3125 ZM39.3125 -13.3281 L39.3125 -10.375 L38.3594 -10.375 Q38.2031 -10.8594 38.0469 -11.2188 Q37.8906 -11.5781 37.7266 -11.8281 Q37.5625 -12.0781 37.3672 -12.2188 Q37.1719 -12.3594 36.8984 -12.4141 Q36.625 -12.4688 36.2344 -12.4688 L33.1562 -12.4688 L33.1562 -7.3594 L35.2344 -7.3594 Q35.6719 -7.3594 35.9141 -7.4766 Q36.1562 -7.5938 36.3203 -7.8906 Q36.4844 -8.1875 36.625 -8.8125 L37.5469 -8.8125 L37.5469 -5.0625 L36.625 -5.0625 Q36.4844 -5.6406 36.3203 -5.9375 Q36.1562 -6.2344 35.9297 -6.3672 Q35.7031 -6.5 35.2344 -6.5 L33.1562 -6.5 L33.1562 -0.8594 L36.1875 -0.8594 Q36.6719 -0.8594 36.9688 -0.9453 Q37.2656 -1.0312 37.4766 -1.2266 Q37.6875 -1.4219 37.8594 -1.75 Q38.0312 -2.0781 38.1406 -2.4219 Q38.25 -2.7656 38.4375 -3.4219 L39.4062 -3.4219 L39.2188 0 L30.1875 0 L30.1875 -0.4844 Q30.7812 -0.6406 30.9922 -0.8281 Q31.2031 -1.0156 31.2656 -1.3672 Q31.3281 -1.7188 31.3281 -2.4375 L31.3281 -10.8906 Q31.3281 -11.5625 31.2812 -11.8672 Q31.2344 -12.1719 31.1172 -12.3438 Q31 -12.5156 30.8125 -12.6172 Q30.625 -12.7188 30.1875 -12.8594 L30.1875 -13.3281 L39.3125 -13.3281 ZM45.7031 -5.5938 L43.0156 -10.6094 Q42.5312 -11.5156 42.2734 -11.9062 Q42.0156 -12.2969 41.7656 -12.5234 Q41.5156 -12.75 41.1719 -12.8594 L41.1719 -13.3281 L45.3438 -13.3281 L45.3438 -12.8594 Q44.4219 -12.75 44.4219 -12.0625 Q44.4219 -11.7812 44.5547 -11.4297 Q44.6875 -11.0781 45.0312 -10.4375 L46.9844 -6.7031 L48.9062 -10.1094 Q49.2969 -10.7969 49.4531 -11.2422 Q49.6094 -11.6875 49.6094 -12.0625 Q49.6094 -12.4062 49.3984 -12.6094 Q49.1875 -12.8125 48.7812 -12.8594 L48.7812 -13.3281 L52.4844 -13.3281 L52.4844 -12.8594 Q52.0781 -12.7031 51.7812 -12.4453 Q51.4844 -12.1875 51.1719 -11.75 Q50.8594 -11.3125 50.25 -10.2656 L47.5312 -5.6406 L47.5312 -2.4688 Q47.5312 -1.9219 47.5938 -1.5781 Q47.6562 -1.2344 47.7891 -1.0312 Q47.9219 -0.8281 48.1484 -0.7109 Q48.375 -0.5938 48.8594 -0.4844 L48.8594 0 L44.3906 0 L44.3906 -0.4844 Q44.8594 -0.5781 45.0859 -0.6875 Q45.3125 -0.7969 45.4453 -1.0078 Q45.5781 -1.2188 45.6406 -1.5625 Q45.7031 -1.9062 45.7031 -2.4688 L45.7031 -5.5938 ZM58.3906 0.1562 Q57.2188 0.1562 56.2578 -0.2266 Q55.2969 -0.6094 54.6094 -1.4297 Q53.9219 -2.25 53.5391 -3.5156 Q53.1562 -4.7812 53.1562 -6.5469 Q53.1562 -8.7344 53.8203 -10.2969 Q54.4844 -11.8594 55.7266 -12.6719 Q56.9688 -13.4844 58.5938 -13.4844 Q60.3281 -13.4844 61.5156 -12.7188 Q62.7031 -11.9531 63.3047 -10.4609 Q63.9062 -8.9688 63.9062 -6.8438 Q63.9062 -4.5469 63.2188 -2.9766 Q62.5312 -1.4062 61.2891 -0.625 Q60.0469 0.1562 58.3906 0.1562 ZM55.1719 -6.8281 Q55.1719 -3.8281 56.0469 -2.2656 Q56.9219 -0.7031 58.6094 -0.7031 Q59.6719 -0.7031 60.4141 -1.3828 Q61.1562 -2.0625 61.5234 -3.3672 Q61.8906 -4.6719 61.8906 -6.4219 Q61.8906 -8.5625 61.4609 -9.9609 Q61.0312 -11.3594 60.2734 -11.9922 Q59.5156 -12.625 58.5312 -12.625 Q57.6406 -12.625 57.0156 -12.2188 Q56.3906 -11.8125 55.9766 -11.0547 Q55.5625 -10.2969 55.3672 -9.2188 Q55.1719 -8.1406 55.1719 -6.8281 ZM69.1562 -2.4688 Q69.1562 -1.8906 69.2188 -1.5547 Q69.2812 -1.2188 69.4141 -1.0156 Q69.5469 -0.8125 69.7656 -0.7031 Q69.9844 -0.5938 70.4688 -0.4844 L70.4688 0 L66.1875 0 L66.1875 -0.4844 Q66.7812 -0.6406 66.9922 -0.8281 Q67.2031 -1.0156 67.2656 -1.3672 Q67.3281 -1.7188 67.3281 -2.4375 L67.3281 -10.8906 Q67.3281 -11.5625 67.2812 -11.8672 Q67.2344 -12.1719 67.1172 -12.3438 Q67 -12.5156 66.8125 -12.6172 Q66.625 -12.7188 66.1875 -12.8594 L66.1875 -13.3281 L71.0312 -13.3281 Q73.3125 -13.3281 74.4297 -12.4531 Q75.5469 -11.5781 75.5469 -9.7969 Q75.5469 -8.7812 75.1953 -7.9688 Q74.8438 -7.1562 74.2031 -6.6406 Q73.5625 -6.125 72.6797 -5.8984 Q71.7969 -5.6719 70.8281 -5.6719 Q69.75 -5.6719 69.1562 -5.7188 L69.1562 -2.4688 ZM69.1562 -6.5312 L70.2812 -6.5312 Q71.3906 -6.5312 72.1094 -6.8125 Q72.8281 -7.0938 73.2031 -7.7656 Q73.5781 -8.4375 73.5781 -9.5469 Q73.5781 -10.375 73.3594 -10.9375 Q73.1406 -11.5 72.7422 -11.8438 Q72.3438 -12.1875 71.7969 -12.3281 Q71.25 -12.4688 70.6094 -12.4688 Q69.6406 -12.4688 69.1562 -12.4375 L69.1562 -6.5312 ZM76.6406 -13.3281 L87.2188 -13.3281 L87.2188 -9.9375 L86.25 -9.9375 Q86.0469 -10.7656 85.8359 -11.2578 Q85.625 -11.75 85.3906 -12 Q85.1562 -12.25 84.8828 -12.3594 Q84.6094 -12.4688 84.0781 -12.4688 L82.8438 -12.4688 L82.8438 -2.4688 Q82.8438 -1.8906 82.9062 -1.5547 Q82.9688 -1.2188 83.1016 -1.0156 Q83.2344 -0.8125 83.4531 -0.7031 Q83.6719 -0.5938 84.1562 -0.4844 L84.1562 0 L79.6875 0 L79.6875 -0.4844 Q79.9844 -0.5469 80.2109 -0.625 Q80.4375 -0.7031 80.5781 -0.8125 Q80.7188 -0.9219 80.8125 -1.1016 Q80.9062 -1.2812 80.9609 -1.5859 Q81.0156 -1.8906 81.0156 -2.4688 L81.0156 -12.4688 L79.7812 -12.4688 Q79.3281 -12.4688 79.0234 -12.3828 Q78.7188 -12.2969 78.4688 -12.0156 Q78.2188 -11.7344 78.0078 -11.2266 Q77.7969 -10.7188 77.6094 -9.9375 L76.6406 -9.9375 L76.6406 -13.3281 ZM95.2188 4.25 Q93.5625 4.25 92.5078 3.75 Q91.4531 3.25 90.8672 2.2344 Q90.2812 1.2188 90.0234 -0.4141 Q89.7656 -2.0469 89.7656 -4.8438 Q89.7656 -7.625 90.0234 -9.2656 Q90.2812 -10.9062 90.8672 -11.9453 Q91.4531 -12.9844 92.5078 -13.5 Q93.5625 -14.0156 95.2188 -14.0156 L95.2188 -13.2188 Q94.5312 -13.2188 94 -13.0938 Q93.4062 -12.9531 92.9844 -12.5625 Q92.5156 -12.1406 92.2344 -11.375 Q91.8906 -10.4688 91.7188 -8.9844 Q91.5469 -7.4062 91.5469 -4.9219 Q91.5469 -2.7188 91.6953 -1.1797 Q91.8438 0.3594 92.1875 1.3281 Q92.4531 2.1562 92.8594 2.6094 Q93.2188 3.0156 93.7188 3.2188 Q94.2969 3.4531 95.2188 3.4531 L95.2188 4.25 ZM102.7812 -2.5469 Q102.7812 -1.9844 102.8516 -1.6953 Q102.9219 -1.4062 103.0781 -1.2266 Q103.2344 -1.0469 103.5391 -0.9453 Q103.8438 -0.8438 104.3047 -0.7891 Q104.7656 -0.7344 105.5156 -0.7188 L105.5156 0 L98.2969 0 L98.2969 -0.7188 Q99.375 -0.7656 99.8438 -0.8438 Q100.3125 -0.9219 100.5547 -1.0938 Q100.7969 -1.2656 100.9062 -1.5625 Q101.0156 -1.8594 101.0156 -2.5469 L101.0156 -10.4688 Q101.0156 -10.8594 100.8828 -11.0391 Q100.75 -11.2188 100.4844 -11.2188 Q100.1719 -11.2188 99.5938 -10.8984 Q99.0156 -10.5781 98.1719 -10.0156 L97.7344 -10.7656 L102.3125 -13.4844 L102.8438 -13.4844 Q102.7812 -12.5469 102.7812 -10.8906 L102.7812 -2.5469 ZM107.4219 -14.0156 Q109.0781 -14.0156 110.1328 -13.5156 Q111.1875 -13.0156 111.7734 -12 Q112.3594 -10.9844 112.6172 -9.3516 Q112.875 -7.7188 112.875 -4.9219 Q112.875 -2.1562 112.6172 -0.5078 Q112.3594 1.1406 111.7734 2.1797 Q111.1875 3.2188 110.1328 3.7344 Q109.0781 4.25 107.4219 4.25 L107.4219 3.4531 Q108.1094 3.4531 108.625 3.3281 Q109.2344 3.1875 109.6406 2.7969 Q110.1094 2.375 110.4062 1.6094 Q110.75 0.7031 110.9219 -0.7812 Q111.0938 -2.3594 111.0938 -4.8438 Q111.0938 -7.0469 110.9453 -8.5859 Q110.7969 -10.125 110.4531 -11.0938 Q110.1875 -11.9219 109.7812 -12.375 Q109.4062 -12.7812 108.9219 -12.9844 Q108.3438 -13.2188 107.4219 -13.2188 L107.4219 -14.0156 ZM120.2188 -7.0625 L120.2188 -8.4219 L128.8594 -8.4219 L128.8594 -7.0625 L120.2188 -7.0625 ZM120.2188 -3.0156 L120.2188 -4.3594 L128.8594 -4.3594 L128.8594 -3.0156 L120.2188 -3.0156 ZM140.7812 -2.5469 Q140.7812 -1.9844 140.8516 -1.6953 Q140.9219 -1.4062 141.0781 -1.2266 Q141.2344 -1.0469 141.5391 -0.9453 Q141.8438 -0.8438 142.3047 -0.7891 Q142.7656 -0.7344 143.5156 -0.7188 L143.5156 0 L136.2969 0 L136.2969 -0.7188 Q137.375 -0.7656 137.8438 -0.8438 Q138.3125 -0.9219 138.5547 -1.0938 Q138.7969 -1.2656 138.9062 -1.5625 Q139.0156 -1.8594 139.0156 -2.5469 L139.0156 -10.4688 Q139.0156 -10.8594 138.8828 -11.0391 Q138.75 -11.2188 138.4844 -11.2188 Q138.1719 -11.2188 137.5938 -10.8984 Q137.0156 -10.5781 136.1719 -10.0156 L135.7344 -10.7656 L140.3125 -13.4844 L140.8438 -13.4844 Q140.7812 -12.5469 140.7812 -10.8906 L140.7812 -2.5469 Z" stroke="none"/></g></g></svg>