<?xml version="1.0" encoding="UTF-8" standalone="no"?><svg xmlns="http://www.w3.org/2000/svg" xmlns:xlink="http://www.w3.org/1999/xlink" stroke-dasharray="none" shape-rendering="auto" font-family="'Dialog'" width="151.812600" text-rendering="auto" fill-opacity="1" contentScriptType="text/ecmascript" color-interpolation="auto" color-rendering="auto" preserveAspectRatio="xMidYMid meet" font-size="12" fill="black" stroke="black" image-rendering="auto" stroke-miterlimit="10" zoomAndPan="magnify" version="1.0" stroke-linecap="square" stroke-linejoin="miter" contentStyleType="text/css" font-style="normal" height="24" stroke-width="1" stroke-dashoffset="0" font-weight="normal" stroke-opacity="1" y="-5.000000"><!--Converted from MathML using JEuclid--><defs id="genericDefs"/><g><g text-rendering="optimizeLegibility" transform="translate(0.5,19)" color-rendering="optimizeQuality" color-interpolation="linearRGB" image-rendering="optimizeQuality"><path d="M9.1562 -1.0156 Q8.2969 0.1562 7.3594 0.1562 Q6.8438 0.1562 6.5 -0.2031 Q6.1562 -0.5625 5.9766 -1.2656 Q5.7969 -1.9688 5.7344 -2.9531 L5.4375 -7.2031 L5.375 -7.2031 Q4.7969 -6.0781 3.3281 -3.4219 Q1.9688 -0.9688 1.5 0 L-0.5 0 L-0.4062 -0.4844 L-0.0156 -0.875 Q0.4844 -1.375 1.1094 -2.4062 L5.2656 -9.2344 Q5.0781 -11.2812 4.6797 -12.0234 Q4.2812 -12.7656 3.4375 -12.7656 Q2.6406 -12.7656 1.9688 -12.0781 L1.6094 -12.5625 Q2.8594 -14.0312 4.0312 -14.0312 Q5.0469 -14.0312 5.5781 -13.2344 Q6.1094 -12.4375 6.2344 -10.5781 Q6.5156 -6.7969 6.7812 -4.6094 Q7.0469 -2.4219 7.3359 -1.7422 Q7.625 -1.0625 8.0625 -1.0625 Q8.4688 -1.0625 8.7812 -1.5 L9.1562 -1.0156 Z" stroke="none"/></g><g text-rendering="optimizeLegibility" transform="translate(9.7188,21.0078)" color-rendering="optimizeQuality" color-interpolation="linearRGB" image-rendering="optimizeQuality"><path d="M1.4688 1.2031 Q1.3906 1.5312 1.375 1.7109 Q1.3594 1.8906 1.3594 2.0156 Q1.3594 2.2188 1.4297 2.3359 Q1.5 2.4531 1.6406 2.5156 Q1.7812 2.5781 2.1094 2.6094 L2.0625 2.9375 L-0.0625 2.9375 L1.6719 -4.6562 Q1.8125 -5.2344 1.8125 -5.6406 Q1.8125 -5.8438 1.75 -5.9453 Q1.6875 -6.0469 1.5469 -6.1016 Q1.4062 -6.1562 1.0781 -6.1719 L1.1562 -6.5312 L2.7031 -6.5938 L3.0938 -6.5938 L2.6406 -4.8125 L2.7188 -4.7969 Q3.9844 -6.6406 5.2344 -6.6406 Q5.9844 -6.6406 6.3984 -6.0781 Q6.8125 -5.5156 6.8125 -4.4844 Q6.8125 -3.7344 6.6094 -2.9922 Q6.4062 -2.25 6.0469 -1.6484 Q5.6875 -1.0469 5.25 -0.6641 Q4.8125 -0.2812 4.3203 -0.0859 Q3.8281 0.1094 3.2812 0.1094 Q2.375 0.1094 1.7812 -0.2812 L1.4688 1.2031 ZM2.2812 -2.375 Q2.2188 -2.0156 2.2031 -1.8281 Q2.1875 -1.6406 2.1875 -1.4531 Q2.1875 -0.9219 2.4141 -0.6797 Q2.6406 -0.4375 3.2031 -0.4375 Q3.5469 -0.4375 3.8438 -0.5703 Q4.1406 -0.7031 4.3984 -0.9609 Q4.6562 -1.2188 4.875 -1.5938 Q5.0938 -1.9688 5.2578 -2.4531 Q5.4219 -2.9375 5.5078 -3.4531 Q5.5938 -3.9688 5.5938 -4.4219 Q5.5938 -5.1406 5.3906 -5.4922 Q5.1875 -5.8438 4.75 -5.8438 Q4.4062 -5.8438 4.0625 -5.6094 Q3.7188 -5.375 3.3203 -4.8516 Q2.9219 -4.3281 2.6953 -3.8281 Q2.4688 -3.3281 2.3438 -2.6719 L2.2812 -2.375 Z" stroke="none"/></g><g text-rendering="optimizeLegibility" transform="translate(9.6562,9.6328)" color-rendering="optimizeQuality" color-interpolation="linearRGB" image-rendering="optimizeQuality"><path d="M6.2344 -9.0625 L6.2344 -8.7344 Q5.1719 -8.7344 4.3594 -8.2812 Q3.5469 -7.8281 3.0078 -6.9531 Q2.4688 -6.0781 2.25 -4.875 L2.3281 -4.8438 Q2.9062 -5.25 3.4609 -5.4453 Q4.0156 -5.6406 4.6562 -5.6406 Q5.4375 -5.6406 5.9766 -5.3047 Q6.5156 -4.9688 6.7891 -4.3516 Q7.0625 -3.7344 7.0625 -2.9219 Q7.0625 -2.0312 6.7266 -1.3516 Q6.3906 -0.6719 5.6719 -0.2812 Q4.9531 0.1094 3.9062 0.1094 Q2.4062 0.1094 1.6484 -0.8203 Q0.8906 -1.75 0.8906 -3.5625 Q0.8906 -4.7812 1.2734 -5.8359 Q1.6562 -6.8906 2.3594 -7.6875 Q3.0625 -8.4844 3.9922 -8.9375 Q4.9219 -9.3906 5.9531 -9.4375 L6.2344 -9.0625 ZM4.1875 -4.9219 Q3.8594 -4.9219 3.5469 -4.8438 Q3.2344 -4.7656 2.9609 -4.625 Q2.6875 -4.4844 2.4219 -4.2656 Q2.3438 -4.1875 2.2969 -4.1094 Q2.2344 -3.9844 2.2109 -3.7891 Q2.1875 -3.5938 2.1875 -3.1406 Q2.1875 -1.8438 2.625 -1.1562 Q3.0625 -0.4688 3.9531 -0.4688 Q4.4688 -0.4688 4.8203 -0.6484 Q5.1719 -0.8281 5.3828 -1.1406 Q5.5938 -1.4531 5.6875 -1.875 Q5.7812 -2.2969 5.7812 -2.7812 Q5.7812 -3.7969 5.3672 -4.3594 Q4.9531 -4.9219 4.1875 -4.9219 Z" stroke="none"/></g><g text-rendering="optimizeLegibility" transform="translate(17.4844,19)" color-rendering="optimizeQuality" color-interpolation="linearRGB" image-rendering="optimizeQuality"><path d="M1.2344 -5.0469 L1.2344 -6.3906 L9.8281 -6.3906 L9.8281 -5.0469 L1.2344 -5.0469 Z" stroke="none"/></g><g text-rendering="optimizeLegibility" transform="translate(29.3125,19)" color-rendering="optimizeQuality" color-interpolation="linearRGB" image-rendering="optimizeQuality"><path d="M3.6719 -2.8438 Q3.5469 -2.2656 3.5078 -1.9297 Q3.4688 -1.5938 3.4688 -1.3125 Q3.4688 -0.875 3.6875 -0.6953 Q3.9062 -0.5156 4.4219 -0.4844 L4.3125 0 L0.4062 0 L0.5156 -0.4844 Q0.8906 -0.5312 1.0781 -0.6641 Q1.2656 -0.7969 1.3906 -1.0312 Q1.5156 -1.2656 1.625 -1.6016 Q1.7344 -1.9375 1.9375 -2.9062 L3.6094 -10.4375 Q3.7031 -10.875 3.7578 -11.2891 Q3.8125 -11.7031 3.8125 -12 Q3.8125 -12.4688 3.5781 -12.6484 Q3.3438 -12.8281 2.8594 -12.8594 L2.9688 -13.3281 L6.875 -13.3281 L6.7656 -12.8594 Q6.3906 -12.7812 6.2344 -12.6797 Q6.0781 -12.5781 5.9453 -12.3828 Q5.8125 -12.1875 5.6797 -11.7734 Q5.5469 -11.3594 5.3438 -10.4219 L3.6719 -2.8438 Z" stroke="none"/></g><g text-rendering="optimizeLegibility" transform="translate(36.1875,23.7188)" color-rendering="optimizeQuality" color-interpolation="linearRGB" image-rendering="optimizeQuality"><path d="M4.75 -1.7812 Q4.75 -1.3906 4.7969 -1.1875 Q4.8438 -0.9844 4.9531 -0.8594 Q5.0625 -0.7344 5.2734 -0.6641 Q5.4844 -0.5938 5.8047 -0.5547 Q6.125 -0.5156 6.6562 -0.5 L6.6562 0 L1.6094 0 L1.6094 -0.5 Q2.3594 -0.5312 2.6875 -0.5938 Q3.0156 -0.6562 3.1875 -0.7656 Q3.3594 -0.875 3.4375 -1.0938 Q3.5156 -1.3125 3.5156 -1.7812 L3.5156 -7.3281 Q3.5156 -7.6094 3.4219 -7.7344 Q3.3281 -7.8594 3.1406 -7.8594 Q2.9219 -7.8594 2.5156 -7.6328 Q2.1094 -7.4062 1.5156 -7 L1.2188 -7.5312 L4.4219 -9.4375 L4.7969 -9.4375 Q4.75 -8.7812 4.75 -7.625 L4.75 -1.7812 Z" stroke="none"/></g><g text-rendering="optimizeLegibility" transform="translate(43.3438,19)" color-rendering="optimizeQuality" color-interpolation="linearRGB" image-rendering="optimizeQuality"><path d="M9.1562 -1.0156 Q8.2969 0.1562 7.3594 0.1562 Q6.8438 0.1562 6.5 -0.2031 Q6.1562 -0.5625 5.9766 -1.2656 Q5.7969 -1.9688 5.7344 -2.9531 L5.4375 -7.2031 L5.375 -7.2031 Q4.7969 -6.0781 3.3281 -3.4219 Q1.9688 -0.9688 1.5 0 L-0.5 0 L-0.4062 -0.4844 L-0.0156 -0.875 Q0.4844 -1.375 1.1094 -2.4062 L5.2656 -9.2344 Q5.0781 -11.2812 4.6797 -12.0234 Q4.2812 -12.7656 3.4375 -12.7656 Q2.6406 -12.7656 1.9688 -12.0781 L1.6094 -12.5625 Q2.8594 -14.0312 4.0312 -14.0312 Q5.0469 -14.0312 5.5781 -13.2344 Q6.1094 -12.4375 6.2344 -10.5781 Q6.5156 -6.7969 6.7812 -4.6094 Q7.0469 -2.4219 7.3359 -1.7422 Q7.625 -1.0625 8.0625 -1.0625 Q8.4688 -1.0625 8.7812 -1.5 L9.1562 -1.0156 Z" stroke="none"/></g><g text-rendering="optimizeLegibility" transform="translate(52.5625,21.0078)" color-rendering="optimizeQuality" color-interpolation="linearRGB" image-rendering="optimizeQuality"><path d="M1.4688 1.2031 Q1.3906 1.5312 1.375 1.7109 Q1.3594 1.8906 1.3594 2.0156 Q1.3594 2.2188 1.4297 2.3359 Q1.5 2.4531 1.6406 2.5156 Q1.7812 2.5781 2.1094 2.6094 L2.0625 2.9375 L-0.0625 2.9375 L1.6719 -4.6562 Q1.8125 -5.2344 1.8125 -5.6406 Q1.8125 -5.8438 1.75 -5.9453 Q1.6875 -6.0469 1.5469 -6.1016 Q1.4062 -6.1562 1.0781 -6.1719 L1.1562 -6.5312 L2.7031 -6.5938 L3.0938 -6.5938 L2.6406 -4.8125 L2.7188 -4.7969 Q3.9844 -6.6406 5.2344 -6.6406 Q5.9844 -6.6406 6.3984 -6.0781 Q6.8125 -5.5156 6.8125 -4.4844 Q6.8125 -3.7344 6.6094 -2.9922 Q6.4062 -2.25 6.0469 -1.6484 Q5.6875 -1.0469 5.25 -0.6641 Q4.8125 -0.2812 4.3203 -0.0859 Q3.8281 0.1094 3.2812 0.1094 Q2.375 0.1094 1.7812 -0.2812 L1.4688 1.2031 ZM2.2812 -2.375 Q2.2188 -2.0156 2.2031 -1.8281 Q2.1875 -1.6406 2.1875 -1.4531 Q2.1875 -0.9219 2.4141 -0.6797 Q2.6406 -0.4375 3.2031 -0.4375 Q3.5469 -0.4375 3.8438 -0.5703 Q4.1406 -0.7031 4.3984 -0.9609 Q4.6562 -1.2188 4.875 -1.5938 Q5.0938 -1.9688 5.2578 -2.4531 Q5.4219 -2.9375 5.5078 -3.4531 Q5.5938 -3.9688 5.5938 -4.4219 Q5.5938 -5.1406 5.3906 -5.4922 Q5.1875 -5.8438 4.75 -5.8438 Q4.4062 -5.8438 4.0625 -5.6094 Q3.7188 -5.375 3.3203 -4.8516 Q2.9219 -4.3281 2.6953 -3.8281 Q2.4688 -3.3281 2.3438 -2.6719 L2.2812 -2.375 Z" stroke="none"/></g><g text-rendering="optimizeLegibility" transform="translate(52.5,9.6562)" color-rendering="optimizeQuality" color-interpolation="linearRGB" image-rendering="optimizeQuality"><path d="M3.5312 -0.3281 Q3.9531 -0.4375 4.0938 -0.5781 Q4.2344 -0.7188 4.2812 -0.9609 Q4.3281 -1.2031 4.3281 -1.7031 L4.3281 -2.8281 L0.5312 -2.8281 L0.5312 -3.3438 L4.5312 -9.375 L5.5 -9.375 L5.5 -3.5 L5.6406 -3.5 Q6.0469 -3.5 6.2188 -3.5547 Q6.3906 -3.6094 6.5 -3.7578 Q6.6094 -3.9062 6.7031 -4.2344 L7.2188 -4.2344 L7.1406 -2.8281 L5.5 -2.8281 L5.5 -1.7031 Q5.5 -1.25 5.5312 -1.0391 Q5.5625 -0.8281 5.6328 -0.7031 Q5.7031 -0.5781 5.8438 -0.5 Q5.9844 -0.4219 6.2969 -0.3281 L6.2969 0 L3.5312 0 L3.5312 -0.3281 ZM1.6562 -3.5 L4.3281 -3.5 L4.3281 -5.2031 Q4.3281 -5.8438 4.3516 -6.6406 Q4.375 -7.4375 4.3906 -7.8281 L4.3281 -7.8281 L1.6562 -3.5938 L1.6562 -3.5 Z" stroke="none"/></g><g text-rendering="optimizeLegibility" transform="translate(60.5,19)" color-rendering="optimizeQuality" color-interpolation="linearRGB" image-rendering="optimizeQuality"><path d="M6.25 -5.0469 L6.25 -1.3438 L4.8125 -1.3438 L4.8125 -5.0469 L1.2188 -5.0469 L1.2188 -6.3906 L4.8125 -6.3906 L4.8125 -10.0938 L6.25 -10.0938 L6.25 -6.3906 L9.8594 -6.3906 L9.8594 -5.0469 L6.25 -5.0469 Z" stroke="none"/></g><g text-rendering="optimizeLegibility" transform="translate(72.3594,19)" color-rendering="optimizeQuality" color-interpolation="linearRGB" image-rendering="optimizeQuality"><path d="M3.6719 -2.8438 Q3.5469 -2.2656 3.5078 -1.9297 Q3.4688 -1.5938 3.4688 -1.3125 Q3.4688 -0.875 3.6875 -0.6953 Q3.9062 -0.5156 4.4219 -0.4844 L4.3125 0 L0.4062 0 L0.5156 -0.4844 Q0.8906 -0.5312 1.0781 -0.6641 Q1.2656 -0.7969 1.3906 -1.0312 Q1.5156 -1.2656 1.625 -1.6016 Q1.7344 -1.9375 1.9375 -2.9062 L3.6094 -10.4375 Q3.7031 -10.875 3.7578 -11.2891 Q3.8125 -11.7031 3.8125 -12 Q3.8125 -12.4688 3.5781 -12.6484 Q3.3438 -12.8281 2.8594 -12.8594 L2.9688 -13.3281 L6.875 -13.3281 L6.7656 -12.8594 Q6.3906 -12.7812 6.2344 -12.6797 Q6.0781 -12.5781 5.9453 -12.3828 Q5.8125 -12.1875 5.6797 -11.7734 Q5.5469 -11.3594 5.3438 -10.4219 L3.6719 -2.8438 Z" stroke="none"/></g><g text-rendering="optimizeLegibility" transform="translate(79.2344,23.7188)" color-rendering="optimizeQuality" color-interpolation="linearRGB" image-rendering="optimizeQuality"><path d="M4.7969 -1.0938 Q5.1406 -1.0938 5.3438 -1.1328 Q5.5469 -1.1719 5.6719 -1.2734 Q5.7969 -1.375 5.8672 -1.5234 Q5.9375 -1.6719 6.0469 -2 L6.625 -2 L6.5156 0 L0.875 0 L0.875 -0.3281 Q1.1719 -1.0469 1.6719 -1.7969 Q2.1719 -2.5469 3.0938 -3.5625 Q3.8906 -4.4375 4.2344 -4.8906 Q4.6094 -5.3906 4.7969 -5.75 Q4.9844 -6.1094 5.0703 -6.4219 Q5.1562 -6.7344 5.1562 -7.0625 Q5.1562 -7.5781 4.9922 -7.9688 Q4.8281 -8.3594 4.4922 -8.5859 Q4.1562 -8.8125 3.6406 -8.8125 Q2.3594 -8.8125 1.9219 -7.3906 L1.0938 -7.3906 L1.0938 -8.7031 Q1.9219 -9.0938 2.6406 -9.2656 Q3.3594 -9.4375 3.9375 -9.4375 Q5.2031 -9.4375 5.8516 -8.8828 Q6.5 -8.3281 6.5 -7.2656 Q6.5 -6.9062 6.4297 -6.6016 Q6.3594 -6.2969 6.2031 -6 Q6.0469 -5.7031 5.7891 -5.3594 Q5.5312 -5.0156 5.2188 -4.6641 Q4.9062 -4.3125 4.125 -3.5 Q2.8281 -2.125 2.2188 -1.0938 L4.7969 -1.0938 Z" stroke="none"/></g><g text-rendering="optimizeLegibility" transform="translate(86.3594,19)" color-rendering="optimizeQuality" color-interpolation="linearRGB" image-rendering="optimizeQuality"><path d="M9.1562 -1.0156 Q8.2969 0.1562 7.3594 0.1562 Q6.8438 0.1562 6.5 -0.2031 Q6.1562 -0.5625 5.9766 -1.2656 Q5.7969 -1.9688 5.7344 -2.9531 L5.4375 -7.2031 L5.375 -7.2031 Q4.7969 -6.0781 3.3281 -3.4219 Q1.9688 -0.9688 1.5 0 L-0.5 0 L-0.4062 -0.4844 L-0.0156 -0.875 Q0.4844 -1.375 1.1094 -2.4062 L5.2656 -9.2344 Q5.0781 -11.2812 4.6797 -12.0234 Q4.2812 -12.7656 3.4375 -12.7656 Q2.6406 -12.7656 1.9688 -12.0781 L1.6094 -12.5625 Q2.8594 -14.0312 4.0312 -14.0312 Q5.0469 -14.0312 5.5781 -13.2344 Q6.1094 -12.4375 6.2344 -10.5781 Q6.5156 -6.7969 6.7812 -4.6094 Q7.0469 -2.4219 7.3359 -1.7422 Q7.625 -1.0625 8.0625 -1.0625 Q8.4688 -1.0625 8.7812 -1.5 L9.1562 -1.0156 Z" stroke="none"/></g><g text-rendering="optimizeLegibility" transform="translate(95.5781,21.0078)" color-rendering="optimizeQuality" color-interpolation="linearRGB" image-rendering="optimizeQuality"><path d="M1.4688 1.2031 Q1.3906 1.5312 1.375 1.7109 Q1.3594 1.8906 1.3594 2.0156 Q1.3594 2.2188 1.4297 2.3359 Q1.5 2.4531 1.6406 2.5156 Q1.7812 2.5781 2.1094 2.6094 L2.0625 2.9375 L-0.0625 2.9375 L1.6719 -4.6562 Q1.8125 -5.2344 1.8125 -5.6406 Q1.8125 -5.8438 1.75 -5.9453 Q1.6875 -6.0469 1.5469 -6.1016 Q1.4062 -6.1562 1.0781 -6.1719 L1.1562 -6.5312 L2.7031 -6.5938 L3.0938 -6.5938 L2.6406 -4.8125 L2.7188 -4.7969 Q3.9844 -6.6406 5.2344 -6.6406 Q5.9844 -6.6406 6.3984 -6.0781 Q6.8125 -5.5156 6.8125 -4.4844 Q6.8125 -3.7344 6.6094 -2.9922 Q6.4062 -2.25 6.0469 -1.6484 Q5.6875 -1.0469 5.25 -0.6641 Q4.8125 -0.2812 4.3203 -0.0859 Q3.8281 0.1094 3.2812 0.1094 Q2.375 0.1094 1.7812 -0.2812 L1.4688 1.2031 ZM2.2812 -2.375 Q2.2188 -2.0156 2.2031 -1.8281 Q2.1875 -1.6406 2.1875 -1.4531 Q2.1875 -0.9219 2.4141 -0.6797 Q2.6406 -0.4375 3.2031 -0.4375 Q3.5469 -0.4375 3.8438 -0.5703 Q4.1406 -0.7031 4.3984 -0.9609 Q4.6562 -1.2188 4.875 -1.5938 Q5.0938 -1.9688 5.2578 -2.4531 Q5.4219 -2.9375 5.5078 -3.4531 Q5.5938 -3.9688 5.5938 -4.4219 Q5.5938 -5.1406 5.3906 -5.4922 Q5.1875 -5.8438 4.75 -5.8438 Q4.4062 -5.8438 4.0625 -5.6094 Q3.7188 -5.375 3.3203 -4.8516 Q2.9219 -4.3281 2.6953 -3.8281 Q2.4688 -3.3281 2.3438 -2.6719 L2.2812 -2.375 Z" stroke="none"/></g><g text-rendering="optimizeLegibility" transform="translate(95.5156,9.6875)" color-rendering="optimizeQuality" color-interpolation="linearRGB" image-rendering="optimizeQuality"><path d="M4.7969 -1.0938 Q5.1406 -1.0938 5.3438 -1.1328 Q5.5469 -1.1719 5.6719 -1.2734 Q5.7969 -1.375 5.8672 -1.5234 Q5.9375 -1.6719 6.0469 -2 L6.625 -2 L6.5156 0 L0.875 0 L0.875 -0.3281 Q1.1719 -1.0469 1.6719 -1.7969 Q2.1719 -2.5469 3.0938 -3.5625 Q3.8906 -4.4375 4.2344 -4.8906 Q4.6094 -5.3906 4.7969 -5.75 Q4.9844 -6.1094 5.0703 -6.4219 Q5.1562 -6.7344 5.1562 -7.0625 Q5.1562 -7.5781 4.9922 -7.9688 Q4.8281 -8.3594 4.4922 -8.5859 Q4.1562 -8.8125 3.6406 -8.8125 Q2.3594 -8.8125 1.9219 -7.3906 L1.0938 -7.3906 L1.0938 -8.7031 Q1.9219 -9.0938 2.6406 -9.2656 Q3.3594 -9.4375 3.9375 -9.4375 Q5.2031 -9.4375 5.8516 -8.8828 Q6.5 -8.3281 6.5 -7.2656 Q6.5 -6.9062 6.4297 -6.6016 Q6.3594 -6.2969 6.2031 -6 Q6.0469 -5.7031 5.7891 -5.3594 Q5.5312 -5.0156 5.2188 -4.6641 Q4.9062 -4.3125 4.125 -3.5 Q2.8281 -2.125 2.2188 -1.0938 L4.7969 -1.0938 Z" stroke="none"/></g><g text-rendering="optimizeLegibility" transform="translate(103.1562,19)" color-rendering="optimizeQuality" color-interpolation="linearRGB" image-rendering="optimizeQuality"><path d="M1.2344 -5.0469 L1.2344 -6.3906 L9.8281 -6.3906 L9.8281 -5.0469 L1.2344 -5.0469 Z" stroke="none"/></g><g text-rendering="optimizeLegibility" transform="translate(114.9844,19)" color-rendering="optimizeQuality" color-interpolation="linearRGB" image-rendering="optimizeQuality"><path d="M3.6719 -2.8438 Q3.5469 -2.2656 3.5078 -1.9297 Q3.4688 -1.5938 3.4688 -1.3125 Q3.4688 -0.875 3.6875 -0.6953 Q3.9062 -0.5156 4.4219 -0.4844 L4.3125 0 L0.4062 0 L0.5156 -0.4844 Q0.8906 -0.5312 1.0781 -0.6641 Q1.2656 -0.7969 1.3906 -1.0312 Q1.5156 -1.2656 1.625 -1.6016 Q1.7344 -1.9375 1.9375 -2.9062 L3.6094 -10.4375 Q3.7031 -10.875 3.7578 -11.2891 Q3.8125 -11.7031 3.8125 -12 Q3.8125 -12.4688 3.5781 -12.6484 Q3.3438 -12.8281 2.8594 -12.8594 L2.9688 -13.3281 L6.875 -13.3281 L6.7656 -12.8594 Q6.3906 -12.7812 6.2344 -12.6797 Q6.0781 -12.5781 5.9453 -12.3828 Q5.8125 -12.1875 5.6797 -11.7734 Q5.5469 -11.3594 5.3438 -10.4219 L3.6719 -2.8438 Z" stroke="none"/></g><g text-rendering="optimizeLegibility" transform="translate(121.8594,23.6641)" color-rendering="optimizeQuality" color-interpolation="linearRGB" image-rendering="optimizeQuality"><path d="M1.0938 -7.3906 L1.0938 -8.7031 Q1.875 -9.0781 2.5703 -9.2578 Q3.2656 -9.4375 3.9062 -9.4375 Q4.6719 -9.4375 5.2578 -9.2031 Q5.8438 -8.9688 6.1484 -8.5156 Q6.4531 -8.0625 6.4531 -7.4375 Q6.4531 -6.8594 6.2188 -6.4219 Q5.9844 -5.9844 5.5625 -5.6562 Q5.1406 -5.3281 4.4844 -5.0156 L4.4844 -4.9531 Q4.8906 -4.875 5.2812 -4.6953 Q5.6719 -4.5156 5.9688 -4.2266 Q6.2656 -3.9375 6.4453 -3.5391 Q6.625 -3.1406 6.625 -2.625 Q6.625 -1.8281 6.2812 -1.2188 Q5.9375 -0.6094 5.2266 -0.25 Q4.5156 0.1094 3.5 0.1094 Q2.9062 0.1094 2.2266 -0.0234 Q1.5469 -0.1562 0.9844 -0.375 L0.9844 -1.8281 L1.8125 -1.8281 Q2.0469 -1.1094 2.4375 -0.7891 Q2.8281 -0.4688 3.5 -0.4688 Q4.3906 -0.4688 4.8516 -0.9531 Q5.3125 -1.4375 5.3125 -2.3906 Q5.3125 -3.3906 4.7109 -3.9141 Q4.1094 -4.4375 2.9375 -4.4375 L2.3281 -4.4375 L2.3281 -5.0469 Q3.25 -5.0938 3.8828 -5.3984 Q4.5156 -5.7031 4.8203 -6.1719 Q5.125 -6.6406 5.125 -7.2344 Q5.125 -7.9844 4.7266 -8.3984 Q4.3281 -8.8125 3.5469 -8.8125 Q2.9062 -8.8125 2.5 -8.4609 Q2.0938 -8.1094 1.9062 -7.3906 L1.0938 -7.3906 Z" stroke="none"/></g><g text-rendering="optimizeLegibility" transform="translate(129.2656,19)" color-rendering="optimizeQuality" color-interpolation="linearRGB" image-rendering="optimizeQuality"><path d="M1.2188 -7.0625 L1.2188 -8.4219 L9.8594 -8.4219 L9.8594 -7.0625 L1.2188 -7.0625 ZM1.2188 -3.0156 L1.2188 -4.3594 L9.8594 -4.3594 L9.8594 -3.0156 L1.2188 -3.0156 Z" stroke="none"/></g><g text-rendering="optimizeLegibility" transform="translate(141.125,19)" color-rendering="optimizeQuality" color-interpolation="linearRGB" image-rendering="optimizeQuality"><path d="M5.4375 0.1562 Q3.3281 0.1562 2.2969 -1.5078 Q1.2656 -3.1719 1.2656 -6.5469 Q1.2656 -8.3438 1.5781 -9.6484 Q1.8906 -10.9531 2.4609 -11.8125 Q3.0312 -12.6719 3.8359 -13.0781 Q4.6406 -13.4844 5.5938 -13.4844 Q7.7188 -13.4844 8.7656 -11.8359 Q9.8125 -10.1875 9.8125 -6.8438 Q9.8125 -3.3906 8.6953 -1.6172 Q7.5781 0.1562 5.4375 0.1562 ZM3.1719 -6.8438 Q3.1719 -3.6562 3.7578 -2.1641 Q4.3438 -0.6719 5.5938 -0.6719 Q6.7656 -0.6719 7.3359 -2.0781 Q7.9062 -3.4844 7.9062 -6.4219 Q7.9062 -8.6562 7.6172 -10.0547 Q7.3281 -11.4531 6.8047 -12.0547 Q6.2812 -12.6562 5.5312 -12.6562 Q4.8594 -12.6562 4.4062 -12.2578 Q3.9531 -11.8594 3.6797 -11.1094 Q3.4062 -10.3594 3.2891 -9.2734 Q3.1719 -8.1875 3.1719 -6.8438 Z" stroke="none"/></g></g></svg>