<?xml version="1.0" encoding="UTF-8" standalone="no"?><svg xmlns="http://www.w3.org/2000/svg" xmlns:xlink="http://www.w3.org/1999/xlink" stroke-dasharray="none" shape-rendering="auto" font-family="'Dialog'" width="316.812600" text-rendering="auto" fill-opacity="1" contentScriptType="text/ecmascript" color-interpolation="auto" color-rendering="auto" preserveAspectRatio="xMidYMid meet" font-size="12" fill="black" stroke="black" image-rendering="auto" stroke-miterlimit="10" zoomAndPan="magnify" version="1.0" stroke-linecap="square" stroke-linejoin="miter" contentStyleType="text/css" font-style="normal" height="26" stroke-width="1" stroke-dashoffset="0" font-weight="normal" stroke-opacity="1" y="-7.000000"><!--Converted from MathML using JEuclid--><defs id="genericDefs"/><g><g text-rendering="optimizeLegibility" transform="translate(0,19)" color-rendering="optimizeQuality" color-interpolation="linearRGB" image-rendering="optimizeQuality"><path d="M11.6094 -9.0469 Q9.7812 -6.8281 8.5 -4.8125 Q8.3438 -3.2656 8.3438 -2.4062 Q8.3438 -1.5781 8.5156 -1.2266 Q8.6875 -0.875 9.1094 -0.875 Q9.5625 -0.875 10.2188 -1.4688 L10.5312 -0.9844 Q9.2812 0.1562 8.1406 0.1562 Q6.7656 0.1562 6.7656 -1.9062 Q6.7656 -2.25 6.7969 -2.6562 L6.7656 -2.6562 Q4.8125 0.1562 2.9062 0.1562 Q1.9375 0.1562 1.3828 -0.6875 Q0.8281 -1.5312 0.8281 -2.8281 Q0.8281 -5.3594 2.3203 -7.4297 Q3.8125 -9.5 6.0625 -9.5 Q8.1719 -9.5 8.4375 -6.8125 L8.4844 -6.8125 L9.75 -9.3125 L11.4219 -9.3125 L11.6094 -9.0469 ZM7.0938 -4.7344 Q7.2188 -6.125 7.2188 -6.7188 Q7.2188 -7.8125 6.9297 -8.2656 Q6.6406 -8.7188 5.9844 -8.7188 Q4.5469 -8.7188 3.5469 -6.9062 Q2.5469 -5.0938 2.5469 -2.75 Q2.5469 -2 2.8516 -1.5 Q3.1562 -1 3.6562 -1 Q5.5 -1 7.0938 -4.7344 Z" stroke="none"/></g><g text-rendering="optimizeLegibility" transform="translate(12.375,20.9531)" color-rendering="optimizeQuality" color-interpolation="linearRGB" image-rendering="optimizeQuality"><path d="M0.7031 0.5938 Q0.5625 0.75 0.4766 0.8984 Q0.3906 1.0469 0.3516 1.1953 Q0.3125 1.3438 0.3125 1.5312 Q0.3125 2.0469 0.6797 2.2812 Q1.0469 2.5156 1.7969 2.5156 Q2.4688 2.5156 2.9219 2.2812 Q3.375 2.0469 3.6875 1.5469 Q4 1.0469 4.2422 0.3203 Q4.4844 -0.4062 4.7188 -1.625 L4.625 -1.6406 Q3.9688 -0.7344 3.3984 -0.3125 Q2.8281 0.1094 2.1719 0.1094 Q1.4219 0.1094 1.0156 -0.4531 Q0.6094 -1.0156 0.6094 -2.0625 Q0.6094 -2.8125 0.8047 -3.5547 Q1 -4.2969 1.3516 -4.8906 Q1.7031 -5.4844 2.1562 -5.875 Q2.6094 -6.2656 3.1094 -6.4609 Q3.6094 -6.6562 4.1406 -6.6562 Q4.5781 -6.6562 4.9609 -6.5547 Q5.3438 -6.4531 5.7344 -6.2031 L6.3594 -6.6562 L6.7969 -6.5469 L6.0781 -3.3438 Q6.0156 -3 5.9219 -2.5625 L5.75 -1.6719 Q5.4219 -0.0625 5.2344 0.5469 Q5 1.2656 4.6875 1.7344 Q4.3906 2.1562 3.9922 2.4453 Q3.5938 2.7344 3.0625 2.8984 Q2.5312 3.0625 1.8125 3.0625 Q-0.7656 3.0625 -0.7656 1.5469 Q-0.7656 1.1719 -0.5391 0.8594 Q-0.3125 0.5469 0.2031 0.1875 L0.7031 0.5938 ZM2.6562 -0.7031 Q3.0156 -0.7031 3.3594 -0.9453 Q3.7031 -1.1875 4.0938 -1.7031 Q4.4844 -2.2188 4.7031 -2.6953 Q4.9219 -3.1719 5.0781 -3.875 Q5.2344 -4.5781 5.2344 -5.0938 Q5.2344 -5.625 5.0078 -5.8672 Q4.7812 -6.1094 4.25 -6.1094 Q3.9688 -6.1094 3.7109 -6.0156 Q3.4531 -5.9219 3.1797 -5.7109 Q2.9062 -5.5 2.6641 -5.1484 Q2.4219 -4.7969 2.2266 -4.2969 Q2.0312 -3.7969 1.9219 -3.2266 Q1.8125 -2.6562 1.8125 -2.125 Q1.8125 -1.4062 2.0156 -1.0547 Q2.2188 -0.7031 2.6562 -0.7031 Z" stroke="none"/></g><g text-rendering="optimizeLegibility" transform="translate(19.4062,19)" color-rendering="optimizeQuality" color-interpolation="linearRGB" image-rendering="optimizeQuality"><path d="M7.2188 4.25 Q5.5625 4.25 4.5078 3.75 Q3.4531 3.25 2.8672 2.2344 Q2.2812 1.2188 2.0234 -0.4141 Q1.7656 -2.0469 1.7656 -4.8438 Q1.7656 -7.625 2.0234 -9.2656 Q2.2812 -10.9062 2.8672 -11.9453 Q3.4531 -12.9844 4.5078 -13.5 Q5.5625 -14.0156 7.2188 -14.0156 L7.2188 -13.2188 Q6.5312 -13.2188 6 -13.0938 Q5.4062 -12.9531 4.9844 -12.5625 Q4.5156 -12.1406 4.2344 -11.375 Q3.8906 -10.4688 3.7188 -8.9844 Q3.5469 -7.4062 3.5469 -4.9219 Q3.5469 -2.7188 3.6953 -1.1797 Q3.8438 0.3594 4.1875 1.3281 Q4.4531 2.1562 4.8594 2.6094 Q5.2188 3.0156 5.7188 3.2188 Q6.2969 3.4531 7.2188 3.4531 L7.2188 4.25 Z" stroke="none"/></g><g text-rendering="optimizeLegibility" transform="translate(28.625,19)" color-rendering="optimizeQuality" color-interpolation="linearRGB" image-rendering="optimizeQuality"><path d="M6.9531 0 L2.8438 0 L2.9531 -0.4844 Q3.3281 -0.5312 3.5156 -0.6328 Q3.7031 -0.7344 3.8438 -0.9375 Q3.9844 -1.1406 4.1328 -1.5781 Q4.2812 -2.0156 4.4688 -2.9062 L6.5625 -12.4688 L5.3281 -12.4688 Q4.7188 -12.4688 4.3594 -12.2969 Q4 -12.125 3.6328 -11.6406 Q3.2656 -11.1562 2.75 -10.0469 L1.8125 -10.0469 L2.5469 -13.3281 L12.75 -13.3281 L11.9844 -9.8906 L11.0469 -9.8906 Q11.0469 -10.8438 11 -11.3125 Q10.9531 -11.7812 10.8125 -12.0312 Q10.6719 -12.2812 10.4766 -12.375 Q10.2812 -12.4688 9.7656 -12.4688 L8.3281 -12.4688 L6.2031 -2.8438 Q6.1094 -2.4688 6.0781 -2.2422 Q6.0469 -2.0156 6.0234 -1.7656 Q6 -1.5156 6 -1.3125 Q6 -1.0156 6.0938 -0.8438 Q6.1875 -0.6719 6.3828 -0.5938 Q6.5781 -0.5156 7.0625 -0.4844 L6.9531 0 Z" stroke="none"/></g><g text-rendering="optimizeLegibility" transform="translate(42.9531,19)" color-rendering="optimizeQuality" color-interpolation="linearRGB" image-rendering="optimizeQuality"><path d="M0.4219 -14.0156 Q2.0781 -14.0156 3.1328 -13.5156 Q4.1875 -13.0156 4.7734 -12 Q5.3594 -10.9844 5.6172 -9.3516 Q5.875 -7.7188 5.875 -4.9219 Q5.875 -2.1562 5.6172 -0.5078 Q5.3594 1.1406 4.7734 2.1797 Q4.1875 3.2188 3.1328 3.7344 Q2.0781 4.25 0.4219 4.25 L0.4219 3.4531 Q1.1094 3.4531 1.625 3.3281 Q2.2344 3.1875 2.6406 2.7969 Q3.1094 2.375 3.4062 1.6094 Q3.75 0.7031 3.9219 -0.7812 Q4.0938 -2.3594 4.0938 -4.8438 Q4.0938 -7.0469 3.9453 -8.5859 Q3.7969 -10.125 3.4531 -11.0938 Q3.1875 -11.9219 2.7812 -12.375 Q2.4062 -12.7812 1.9219 -12.9844 Q1.3438 -13.2188 0.4219 -13.2188 L0.4219 -14.0156 Z" stroke="none"/></g><g text-rendering="optimizeLegibility" transform="translate(51.6094,19)" color-rendering="optimizeQuality" color-interpolation="linearRGB" image-rendering="optimizeQuality"><path d="M1.2188 -7.0625 L1.2188 -8.4219 L9.8594 -8.4219 L9.8594 -7.0625 L1.2188 -7.0625 ZM1.2188 -3.0156 L1.2188 -4.3594 L9.8594 -4.3594 L9.8594 -3.0156 L1.2188 -3.0156 Z" stroke="none"/></g><g text-rendering="optimizeLegibility" transform="translate(63.4688,19)" color-rendering="optimizeQuality" color-interpolation="linearRGB" image-rendering="optimizeQuality"><path d="M11.6094 -9.0469 Q9.7812 -6.8281 8.5 -4.8125 Q8.3438 -3.2656 8.3438 -2.4062 Q8.3438 -1.5781 8.5156 -1.2266 Q8.6875 -0.875 9.1094 -0.875 Q9.5625 -0.875 10.2188 -1.4688 L10.5312 -0.9844 Q9.2812 0.1562 8.1406 0.1562 Q6.7656 0.1562 6.7656 -1.9062 Q6.7656 -2.25 6.7969 -2.6562 L6.7656 -2.6562 Q4.8125 0.1562 2.9062 0.1562 Q1.9375 0.1562 1.3828 -0.6875 Q0.8281 -1.5312 0.8281 -2.8281 Q0.8281 -5.3594 2.3203 -7.4297 Q3.8125 -9.5 6.0625 -9.5 Q8.1719 -9.5 8.4375 -6.8125 L8.4844 -6.8125 L9.75 -9.3125 L11.4219 -9.3125 L11.6094 -9.0469 ZM7.0938 -4.7344 Q7.2188 -6.125 7.2188 -6.7188 Q7.2188 -7.8125 6.9297 -8.2656 Q6.6406 -8.7188 5.9844 -8.7188 Q4.5469 -8.7188 3.5469 -6.9062 Q2.5469 -5.0938 2.5469 -2.75 Q2.5469 -2 2.8516 -1.5 Q3.1562 -1 3.6562 -1 Q5.5 -1 7.0938 -4.7344 Z" stroke="none"/></g><g text-rendering="optimizeLegibility" transform="translate(75.8438,22.3438)" color-rendering="optimizeQuality" color-interpolation="linearRGB" image-rendering="optimizeQuality"><path d="M0.7031 0.5938 Q0.5625 0.75 0.4766 0.8984 Q0.3906 1.0469 0.3516 1.1953 Q0.3125 1.3438 0.3125 1.5312 Q0.3125 2.0469 0.6797 2.2812 Q1.0469 2.5156 1.7969 2.5156 Q2.4688 2.5156 2.9219 2.2812 Q3.375 2.0469 3.6875 1.5469 Q4 1.0469 4.2422 0.3203 Q4.4844 -0.4062 4.7188 -1.625 L4.625 -1.6406 Q3.9688 -0.7344 3.3984 -0.3125 Q2.8281 0.1094 2.1719 0.1094 Q1.4219 0.1094 1.0156 -0.4531 Q0.6094 -1.0156 0.6094 -2.0625 Q0.6094 -2.8125 0.8047 -3.5547 Q1 -4.2969 1.3516 -4.8906 Q1.7031 -5.4844 2.1562 -5.875 Q2.6094 -6.2656 3.1094 -6.4609 Q3.6094 -6.6562 4.1406 -6.6562 Q4.5781 -6.6562 4.9609 -6.5547 Q5.3438 -6.4531 5.7344 -6.2031 L6.3594 -6.6562 L6.7969 -6.5469 L6.0781 -3.3438 Q6.0156 -3 5.9219 -2.5625 L5.75 -1.6719 Q5.4219 -0.0625 5.2344 0.5469 Q5 1.2656 4.6875 1.7344 Q4.3906 2.1562 3.9922 2.4453 Q3.5938 2.7344 3.0625 2.8984 Q2.5312 3.0625 1.8125 3.0625 Q-0.7656 3.0625 -0.7656 1.5469 Q-0.7656 1.1719 -0.5391 0.8594 Q-0.3125 0.5469 0.2031 0.1875 L0.7031 0.5938 ZM2.6562 -0.7031 Q3.0156 -0.7031 3.3594 -0.9453 Q3.7031 -1.1875 4.0938 -1.7031 Q4.4844 -2.2188 4.7031 -2.6953 Q4.9219 -3.1719 5.0781 -3.875 Q5.2344 -4.5781 5.2344 -5.0938 Q5.2344 -5.625 5.0078 -5.8672 Q4.7812 -6.1094 4.25 -6.1094 Q3.9688 -6.1094 3.7109 -6.0156 Q3.4531 -5.9219 3.1797 -5.7109 Q2.9062 -5.5 2.6641 -5.1484 Q2.4219 -4.7969 2.2266 -4.2969 Q2.0312 -3.7969 1.9219 -3.2266 Q1.8125 -2.6562 1.8125 -2.125 Q1.8125 -1.4062 2.0156 -1.0547 Q2.2188 -0.7031 2.6562 -0.7031 Z" stroke="none"/></g><g text-rendering="optimizeLegibility" transform="translate(82.6406,22.3438)" color-rendering="optimizeQuality" color-interpolation="linearRGB" image-rendering="optimizeQuality"><path d="M3.7969 0.1094 Q2.3281 0.1094 1.6016 -1.0547 Q0.875 -2.2188 0.875 -4.5781 Q0.875 -5.8438 1.1016 -6.7578 Q1.3281 -7.6719 1.7266 -8.2656 Q2.125 -8.8594 2.6875 -9.1484 Q3.25 -9.4375 3.9062 -9.4375 Q5.4062 -9.4375 6.1406 -8.2812 Q6.875 -7.125 6.875 -4.7969 Q6.875 -2.375 6.0938 -1.1328 Q5.3125 0.1094 3.7969 0.1094 ZM2.2188 -4.7812 Q2.2188 -2.5625 2.6328 -1.5156 Q3.0469 -0.4688 3.9062 -0.4688 Q4.7344 -0.4688 5.1328 -1.4531 Q5.5312 -2.4375 5.5312 -4.4844 Q5.5312 -6.0625 5.3281 -7.0391 Q5.125 -8.0156 4.7578 -8.4375 Q4.3906 -8.8594 3.875 -8.8594 Q3.4062 -8.8594 3.0859 -8.5781 Q2.7656 -8.2969 2.5703 -7.7734 Q2.375 -7.25 2.2969 -6.4922 Q2.2188 -5.7344 2.2188 -4.7812 Z" stroke="none"/></g><g text-rendering="optimizeLegibility" transform="translate(90.2969,19)" color-rendering="optimizeQuality" color-interpolation="linearRGB" image-rendering="optimizeQuality"><path d="M6.25 -5.0469 L6.25 -1.3438 L4.8125 -1.3438 L4.8125 -5.0469 L1.2188 -5.0469 L1.2188 -6.3906 L4.8125 -6.3906 L4.8125 -10.0938 L6.25 -10.0938 L6.25 -6.3906 L9.8594 -6.3906 L9.8594 -5.0469 L6.25 -5.0469 Z" stroke="none"/></g><g text-rendering="optimizeLegibility" transform="translate(102.1562,19)" color-rendering="optimizeQuality" color-interpolation="linearRGB" image-rendering="optimizeQuality"><path d="M11.6094 -9.0469 Q9.7812 -6.8281 8.5 -4.8125 Q8.3438 -3.2656 8.3438 -2.4062 Q8.3438 -1.5781 8.5156 -1.2266 Q8.6875 -0.875 9.1094 -0.875 Q9.5625 -0.875 10.2188 -1.4688 L10.5312 -0.9844 Q9.2812 0.1562 8.1406 0.1562 Q6.7656 0.1562 6.7656 -1.9062 Q6.7656 -2.25 6.7969 -2.6562 L6.7656 -2.6562 Q4.8125 0.1562 2.9062 0.1562 Q1.9375 0.1562 1.3828 -0.6875 Q0.8281 -1.5312 0.8281 -2.8281 Q0.8281 -5.3594 2.3203 -7.4297 Q3.8125 -9.5 6.0625 -9.5 Q8.1719 -9.5 8.4375 -6.8125 L8.4844 -6.8125 L9.75 -9.3125 L11.4219 -9.3125 L11.6094 -9.0469 ZM7.0938 -4.7344 Q7.2188 -6.125 7.2188 -6.7188 Q7.2188 -7.8125 6.9297 -8.2656 Q6.6406 -8.7188 5.9844 -8.7188 Q4.5469 -8.7188 3.5469 -6.9062 Q2.5469 -5.0938 2.5469 -2.75 Q2.5469 -2 2.8516 -1.5 Q3.1562 -1 3.6562 -1 Q5.5 -1 7.0938 -4.7344 Z" stroke="none"/></g><g text-rendering="optimizeLegibility" transform="translate(114.5312,22.3438)" color-rendering="optimizeQuality" color-interpolation="linearRGB" image-rendering="optimizeQuality"><path d="M0.7031 0.5938 Q0.5625 0.75 0.4766 0.8984 Q0.3906 1.0469 0.3516 1.1953 Q0.3125 1.3438 0.3125 1.5312 Q0.3125 2.0469 0.6797 2.2812 Q1.0469 2.5156 1.7969 2.5156 Q2.4688 2.5156 2.9219 2.2812 Q3.375 2.0469 3.6875 1.5469 Q4 1.0469 4.2422 0.3203 Q4.4844 -0.4062 4.7188 -1.625 L4.625 -1.6406 Q3.9688 -0.7344 3.3984 -0.3125 Q2.8281 0.1094 2.1719 0.1094 Q1.4219 0.1094 1.0156 -0.4531 Q0.6094 -1.0156 0.6094 -2.0625 Q0.6094 -2.8125 0.8047 -3.5547 Q1 -4.2969 1.3516 -4.8906 Q1.7031 -5.4844 2.1562 -5.875 Q2.6094 -6.2656 3.1094 -6.4609 Q3.6094 -6.6562 4.1406 -6.6562 Q4.5781 -6.6562 4.9609 -6.5547 Q5.3438 -6.4531 5.7344 -6.2031 L6.3594 -6.6562 L6.7969 -6.5469 L6.0781 -3.3438 Q6.0156 -3 5.9219 -2.5625 L5.75 -1.6719 Q5.4219 -0.0625 5.2344 0.5469 Q5 1.2656 4.6875 1.7344 Q4.3906 2.1562 3.9922 2.4453 Q3.5938 2.7344 3.0625 2.8984 Q2.5312 3.0625 1.8125 3.0625 Q-0.7656 3.0625 -0.7656 1.5469 Q-0.7656 1.1719 -0.5391 0.8594 Q-0.3125 0.5469 0.2031 0.1875 L0.7031 0.5938 ZM2.6562 -0.7031 Q3.0156 -0.7031 3.3594 -0.9453 Q3.7031 -1.1875 4.0938 -1.7031 Q4.4844 -2.2188 4.7031 -2.6953 Q4.9219 -3.1719 5.0781 -3.875 Q5.2344 -4.5781 5.2344 -5.0938 Q5.2344 -5.625 5.0078 -5.8672 Q4.7812 -6.1094 4.25 -6.1094 Q3.9688 -6.1094 3.7109 -6.0156 Q3.4531 -5.9219 3.1797 -5.7109 Q2.9062 -5.5 2.6641 -5.1484 Q2.4219 -4.7969 2.2266 -4.2969 Q2.0312 -3.7969 1.9219 -3.2266 Q1.8125 -2.6562 1.8125 -2.125 Q1.8125 -1.4062 2.0156 -1.0547 Q2.2188 -0.7031 2.6562 -0.7031 Z" stroke="none"/></g><g text-rendering="optimizeLegibility" transform="translate(121.3281,22.3438)" color-rendering="optimizeQuality" color-interpolation="linearRGB" image-rendering="optimizeQuality"><path d="M4.75 -1.7812 Q4.75 -1.3906 4.7969 -1.1875 Q4.8438 -0.9844 4.9531 -0.8594 Q5.0625 -0.7344 5.2734 -0.6641 Q5.4844 -0.5938 5.8047 -0.5547 Q6.125 -0.5156 6.6562 -0.5 L6.6562 0 L1.6094 0 L1.6094 -0.5 Q2.3594 -0.5312 2.6875 -0.5938 Q3.0156 -0.6562 3.1875 -0.7656 Q3.3594 -0.875 3.4375 -1.0938 Q3.5156 -1.3125 3.5156 -1.7812 L3.5156 -7.3281 Q3.5156 -7.6094 3.4219 -7.7344 Q3.3281 -7.8594 3.1406 -7.8594 Q2.9219 -7.8594 2.5156 -7.6328 Q2.1094 -7.4062 1.5156 -7 L1.2188 -7.5312 L4.4219 -9.4375 L4.7969 -9.4375 Q4.75 -8.7812 4.75 -7.625 L4.75 -1.7812 Z" stroke="none"/></g><g text-rendering="optimizeLegibility" transform="translate(127.9844,19)" color-rendering="optimizeQuality" color-interpolation="linearRGB" image-rendering="optimizeQuality"><path d="M6.9531 0 L2.8438 0 L2.9531 -0.4844 Q3.3281 -0.5312 3.5156 -0.6328 Q3.7031 -0.7344 3.8438 -0.9375 Q3.9844 -1.1406 4.1328 -1.5781 Q4.2812 -2.0156 4.4688 -2.9062 L6.5625 -12.4688 L5.3281 -12.4688 Q4.7188 -12.4688 4.3594 -12.2969 Q4 -12.125 3.6328 -11.6406 Q3.2656 -11.1562 2.75 -10.0469 L1.8125 -10.0469 L2.5469 -13.3281 L12.75 -13.3281 L11.9844 -9.8906 L11.0469 -9.8906 Q11.0469 -10.8438 11 -11.3125 Q10.9531 -11.7812 10.8125 -12.0312 Q10.6719 -12.2812 10.4766 -12.375 Q10.2812 -12.4688 9.7656 -12.4688 L8.3281 -12.4688 L6.2031 -2.8438 Q6.1094 -2.4688 6.0781 -2.2422 Q6.0469 -2.0156 6.0234 -1.7656 Q6 -1.5156 6 -1.3125 Q6 -1.0156 6.0938 -0.8438 Q6.1875 -0.6719 6.3828 -0.5938 Q6.5781 -0.5156 7.0625 -0.4844 L6.9531 0 Z" stroke="none"/></g><g text-rendering="optimizeLegibility" transform="translate(141.5156,19)" color-rendering="optimizeQuality" color-interpolation="linearRGB" image-rendering="optimizeQuality"><path d="M6.25 -5.0469 L6.25 -1.3438 L4.8125 -1.3438 L4.8125 -5.0469 L1.2188 -5.0469 L1.2188 -6.3906 L4.8125 -6.3906 L4.8125 -10.0938 L6.25 -10.0938 L6.25 -6.3906 L9.8594 -6.3906 L9.8594 -5.0469 L6.25 -5.0469 Z" stroke="none"/></g><g text-rendering="optimizeLegibility" transform="translate(153.375,19)" color-rendering="optimizeQuality" color-interpolation="linearRGB" image-rendering="optimizeQuality"><path d="M11.6094 -9.0469 Q9.7812 -6.8281 8.5 -4.8125 Q8.3438 -3.2656 8.3438 -2.4062 Q8.3438 -1.5781 8.5156 -1.2266 Q8.6875 -0.875 9.1094 -0.875 Q9.5625 -0.875 10.2188 -1.4688 L10.5312 -0.9844 Q9.2812 0.1562 8.1406 0.1562 Q6.7656 0.1562 6.7656 -1.9062 Q6.7656 -2.25 6.7969 -2.6562 L6.7656 -2.6562 Q4.8125 0.1562 2.9062 0.1562 Q1.9375 0.1562 1.3828 -0.6875 Q0.8281 -1.5312 0.8281 -2.8281 Q0.8281 -5.3594 2.3203 -7.4297 Q3.8125 -9.5 6.0625 -9.5 Q8.1719 -9.5 8.4375 -6.8125 L8.4844 -6.8125 L9.75 -9.3125 L11.4219 -9.3125 L11.6094 -9.0469 ZM7.0938 -4.7344 Q7.2188 -6.125 7.2188 -6.7188 Q7.2188 -7.8125 6.9297 -8.2656 Q6.6406 -8.7188 5.9844 -8.7188 Q4.5469 -8.7188 3.5469 -6.9062 Q2.5469 -5.0938 2.5469 -2.75 Q2.5469 -2 2.8516 -1.5 Q3.1562 -1 3.6562 -1 Q5.5 -1 7.0938 -4.7344 Z" stroke="none"/></g><g text-rendering="optimizeLegibility" transform="translate(165.75,22.3438)" color-rendering="optimizeQuality" color-interpolation="linearRGB" image-rendering="optimizeQuality"><path d="M0.7031 0.5938 Q0.5625 0.75 0.4766 0.8984 Q0.3906 1.0469 0.3516 1.1953 Q0.3125 1.3438 0.3125 1.5312 Q0.3125 2.0469 0.6797 2.2812 Q1.0469 2.5156 1.7969 2.5156 Q2.4688 2.5156 2.9219 2.2812 Q3.375 2.0469 3.6875 1.5469 Q4 1.0469 4.2422 0.3203 Q4.4844 -0.4062 4.7188 -1.625 L4.625 -1.6406 Q3.9688 -0.7344 3.3984 -0.3125 Q2.8281 0.1094 2.1719 0.1094 Q1.4219 0.1094 1.0156 -0.4531 Q0.6094 -1.0156 0.6094 -2.0625 Q0.6094 -2.8125 0.8047 -3.5547 Q1 -4.2969 1.3516 -4.8906 Q1.7031 -5.4844 2.1562 -5.875 Q2.6094 -6.2656 3.1094 -6.4609 Q3.6094 -6.6562 4.1406 -6.6562 Q4.5781 -6.6562 4.9609 -6.5547 Q5.3438 -6.4531 5.7344 -6.2031 L6.3594 -6.6562 L6.7969 -6.5469 L6.0781 -3.3438 Q6.0156 -3 5.9219 -2.5625 L5.75 -1.6719 Q5.4219 -0.0625 5.2344 0.5469 Q5 1.2656 4.6875 1.7344 Q4.3906 2.1562 3.9922 2.4453 Q3.5938 2.7344 3.0625 2.8984 Q2.5312 3.0625 1.8125 3.0625 Q-0.7656 3.0625 -0.7656 1.5469 Q-0.7656 1.1719 -0.5391 0.8594 Q-0.3125 0.5469 0.2031 0.1875 L0.7031 0.5938 ZM2.6562 -0.7031 Q3.0156 -0.7031 3.3594 -0.9453 Q3.7031 -1.1875 4.0938 -1.7031 Q4.4844 -2.2188 4.7031 -2.6953 Q4.9219 -3.1719 5.0781 -3.875 Q5.2344 -4.5781 5.2344 -5.0938 Q5.2344 -5.625 5.0078 -5.8672 Q4.7812 -6.1094 4.25 -6.1094 Q3.9688 -6.1094 3.7109 -6.0156 Q3.4531 -5.9219 3.1797 -5.7109 Q2.9062 -5.5 2.6641 -5.1484 Q2.4219 -4.7969 2.2266 -4.2969 Q2.0312 -3.7969 1.9219 -3.2266 Q1.8125 -2.6562 1.8125 -2.125 Q1.8125 -1.4062 2.0156 -1.0547 Q2.2188 -0.7031 2.6562 -0.7031 Z" stroke="none"/></g><g text-rendering="optimizeLegibility" transform="translate(172.5469,22.3438)" color-rendering="optimizeQuality" color-interpolation="linearRGB" image-rendering="optimizeQuality"><path d="M4.7969 -1.0938 Q5.1406 -1.0938 5.3438 -1.1328 Q5.5469 -1.1719 5.6719 -1.2734 Q5.7969 -1.375 5.8672 -1.5234 Q5.9375 -1.6719 6.0469 -2 L6.625 -2 L6.5156 0 L0.875 0 L0.875 -0.3281 Q1.1719 -1.0469 1.6719 -1.7969 Q2.1719 -2.5469 3.0938 -3.5625 Q3.8906 -4.4375 4.2344 -4.8906 Q4.6094 -5.3906 4.7969 -5.75 Q4.9844 -6.1094 5.0703 -6.4219 Q5.1562 -6.7344 5.1562 -7.0625 Q5.1562 -7.5781 4.9922 -7.9688 Q4.8281 -8.3594 4.4922 -8.5859 Q4.1562 -8.8125 3.6406 -8.8125 Q2.3594 -8.8125 1.9219 -7.3906 L1.0938 -7.3906 L1.0938 -8.7031 Q1.9219 -9.0938 2.6406 -9.2656 Q3.3594 -9.4375 3.9375 -9.4375 Q5.2031 -9.4375 5.8516 -8.8828 Q6.5 -8.3281 6.5 -7.2656 Q6.5 -6.9062 6.4297 -6.6016 Q6.3594 -6.2969 6.2031 -6 Q6.0469 -5.7031 5.7891 -5.3594 Q5.5312 -5.0156 5.2188 -4.6641 Q4.9062 -4.3125 4.125 -3.5 Q2.8281 -2.125 2.2188 -1.0938 L4.7969 -1.0938 Z" stroke="none"/></g><g text-rendering="optimizeLegibility" transform="translate(179.1719,19)" color-rendering="optimizeQuality" color-interpolation="linearRGB" image-rendering="optimizeQuality"><path d="M6.9531 0 L2.8438 0 L2.9531 -0.4844 Q3.3281 -0.5312 3.5156 -0.6328 Q3.7031 -0.7344 3.8438 -0.9375 Q3.9844 -1.1406 4.1328 -1.5781 Q4.2812 -2.0156 4.4688 -2.9062 L6.5625 -12.4688 L5.3281 -12.4688 Q4.7188 -12.4688 4.3594 -12.2969 Q4 -12.125 3.6328 -11.6406 Q3.2656 -11.1562 2.75 -10.0469 L1.8125 -10.0469 L2.5469 -13.3281 L12.75 -13.3281 L11.9844 -9.8906 L11.0469 -9.8906 Q11.0469 -10.8438 11 -11.3125 Q10.9531 -11.7812 10.8125 -12.0312 Q10.6719 -12.2812 10.4766 -12.375 Q10.2812 -12.4688 9.7656 -12.4688 L8.3281 -12.4688 L6.2031 -2.8438 Q6.1094 -2.4688 6.0781 -2.2422 Q6.0469 -2.0156 6.0234 -1.7656 Q6 -1.5156 6 -1.3125 Q6 -1.0156 6.0938 -0.8438 Q6.1875 -0.6719 6.3828 -0.5938 Q6.5781 -0.5156 7.0625 -0.4844 L6.9531 0 Z" stroke="none"/></g><g text-rendering="optimizeLegibility" transform="translate(191.9219,10.3906)" color-rendering="optimizeQuality" color-interpolation="linearRGB" image-rendering="optimizeQuality"><path d="M4.7969 -1.0938 Q5.1406 -1.0938 5.3438 -1.1328 Q5.5469 -1.1719 5.6719 -1.2734 Q5.7969 -1.375 5.8672 -1.5234 Q5.9375 -1.6719 6.0469 -2 L6.625 -2 L6.5156 0 L0.875 0 L0.875 -0.3281 Q1.1719 -1.0469 1.6719 -1.7969 Q2.1719 -2.5469 3.0938 -3.5625 Q3.8906 -4.4375 4.2344 -4.8906 Q4.6094 -5.3906 4.7969 -5.75 Q4.9844 -6.1094 5.0703 -6.4219 Q5.1562 -6.7344 5.1562 -7.0625 Q5.1562 -7.5781 4.9922 -7.9688 Q4.8281 -8.3594 4.4922 -8.5859 Q4.1562 -8.8125 3.6406 -8.8125 Q2.3594 -8.8125 1.9219 -7.3906 L1.0938 -7.3906 L1.0938 -8.7031 Q1.9219 -9.0938 2.6406 -9.2656 Q3.3594 -9.4375 3.9375 -9.4375 Q5.2031 -9.4375 5.8516 -8.8828 Q6.5 -8.3281 6.5 -7.2656 Q6.5 -6.9062 6.4297 -6.6016 Q6.3594 -6.2969 6.2031 -6 Q6.0469 -5.7031 5.7891 -5.3594 Q5.5312 -5.0156 5.2188 -4.6641 Q4.9062 -4.3125 4.125 -3.5 Q2.8281 -2.125 2.2188 -1.0938 L4.7969 -1.0938 Z" stroke="none"/></g><g text-rendering="optimizeLegibility" transform="translate(199.3281,19)" color-rendering="optimizeQuality" color-interpolation="linearRGB" image-rendering="optimizeQuality"><path d="M6.25 -5.0469 L6.25 -1.3438 L4.8125 -1.3438 L4.8125 -5.0469 L1.2188 -5.0469 L1.2188 -6.3906 L4.8125 -6.3906 L4.8125 -10.0938 L6.25 -10.0938 L6.25 -6.3906 L9.8594 -6.3906 L9.8594 -5.0469 L6.25 -5.0469 Z" stroke="none"/></g><g text-rendering="optimizeLegibility" transform="translate(211.1875,19)" color-rendering="optimizeQuality" color-interpolation="linearRGB" image-rendering="optimizeQuality"><path d="M11.6094 -9.0469 Q9.7812 -6.8281 8.5 -4.8125 Q8.3438 -3.2656 8.3438 -2.4062 Q8.3438 -1.5781 8.5156 -1.2266 Q8.6875 -0.875 9.1094 -0.875 Q9.5625 -0.875 10.2188 -1.4688 L10.5312 -0.9844 Q9.2812 0.1562 8.1406 0.1562 Q6.7656 0.1562 6.7656 -1.9062 Q6.7656 -2.25 6.7969 -2.6562 L6.7656 -2.6562 Q4.8125 0.1562 2.9062 0.1562 Q1.9375 0.1562 1.3828 -0.6875 Q0.8281 -1.5312 0.8281 -2.8281 Q0.8281 -5.3594 2.3203 -7.4297 Q3.8125 -9.5 6.0625 -9.5 Q8.1719 -9.5 8.4375 -6.8125 L8.4844 -6.8125 L9.75 -9.3125 L11.4219 -9.3125 L11.6094 -9.0469 ZM7.0938 -4.7344 Q7.2188 -6.125 7.2188 -6.7188 Q7.2188 -7.8125 6.9297 -8.2656 Q6.6406 -8.7188 5.9844 -8.7188 Q4.5469 -8.7188 3.5469 -6.9062 Q2.5469 -5.0938 2.5469 -2.75 Q2.5469 -2 2.8516 -1.5 Q3.1562 -1 3.6562 -1 Q5.5 -1 7.0938 -4.7344 Z" stroke="none"/></g><g text-rendering="optimizeLegibility" transform="translate(223.5625,22.3438)" color-rendering="optimizeQuality" color-interpolation="linearRGB" image-rendering="optimizeQuality"><path d="M0.7031 0.5938 Q0.5625 0.75 0.4766 0.8984 Q0.3906 1.0469 0.3516 1.1953 Q0.3125 1.3438 0.3125 1.5312 Q0.3125 2.0469 0.6797 2.2812 Q1.0469 2.5156 1.7969 2.5156 Q2.4688 2.5156 2.9219 2.2812 Q3.375 2.0469 3.6875 1.5469 Q4 1.0469 4.2422 0.3203 Q4.4844 -0.4062 4.7188 -1.625 L4.625 -1.6406 Q3.9688 -0.7344 3.3984 -0.3125 Q2.8281 0.1094 2.1719 0.1094 Q1.4219 0.1094 1.0156 -0.4531 Q0.6094 -1.0156 0.6094 -2.0625 Q0.6094 -2.8125 0.8047 -3.5547 Q1 -4.2969 1.3516 -4.8906 Q1.7031 -5.4844 2.1562 -5.875 Q2.6094 -6.2656 3.1094 -6.4609 Q3.6094 -6.6562 4.1406 -6.6562 Q4.5781 -6.6562 4.9609 -6.5547 Q5.3438 -6.4531 5.7344 -6.2031 L6.3594 -6.6562 L6.7969 -6.5469 L6.0781 -3.3438 Q6.0156 -3 5.9219 -2.5625 L5.75 -1.6719 Q5.4219 -0.0625 5.2344 0.5469 Q5 1.2656 4.6875 1.7344 Q4.3906 2.1562 3.9922 2.4453 Q3.5938 2.7344 3.0625 2.8984 Q2.5312 3.0625 1.8125 3.0625 Q-0.7656 3.0625 -0.7656 1.5469 Q-0.7656 1.1719 -0.5391 0.8594 Q-0.3125 0.5469 0.2031 0.1875 L0.7031 0.5938 ZM2.6562 -0.7031 Q3.0156 -0.7031 3.3594 -0.9453 Q3.7031 -1.1875 4.0938 -1.7031 Q4.4844 -2.2188 4.7031 -2.6953 Q4.9219 -3.1719 5.0781 -3.875 Q5.2344 -4.5781 5.2344 -5.0938 Q5.2344 -5.625 5.0078 -5.8672 Q4.7812 -6.1094 4.25 -6.1094 Q3.9688 -6.1094 3.7109 -6.0156 Q3.4531 -5.9219 3.1797 -5.7109 Q2.9062 -5.5 2.6641 -5.1484 Q2.4219 -4.7969 2.2266 -4.2969 Q2.0312 -3.7969 1.9219 -3.2266 Q1.8125 -2.6562 1.8125 -2.125 Q1.8125 -1.4062 2.0156 -1.0547 Q2.2188 -0.7031 2.6562 -0.7031 Z" stroke="none"/></g><g text-rendering="optimizeLegibility" transform="translate(230.3594,22.3438)" color-rendering="optimizeQuality" color-interpolation="linearRGB" image-rendering="optimizeQuality"><path d="M1.0938 -7.3906 L1.0938 -8.7031 Q1.875 -9.0781 2.5703 -9.2578 Q3.2656 -9.4375 3.9062 -9.4375 Q4.6719 -9.4375 5.2578 -9.2031 Q5.8438 -8.9688 6.1484 -8.5156 Q6.4531 -8.0625 6.4531 -7.4375 Q6.4531 -6.8594 6.2188 -6.4219 Q5.9844 -5.9844 5.5625 -5.6562 Q5.1406 -5.3281 4.4844 -5.0156 L4.4844 -4.9531 Q4.8906 -4.875 5.2812 -4.6953 Q5.6719 -4.5156 5.9688 -4.2266 Q6.2656 -3.9375 6.4453 -3.5391 Q6.625 -3.1406 6.625 -2.625 Q6.625 -1.8281 6.2812 -1.2188 Q5.9375 -0.6094 5.2266 -0.25 Q4.5156 0.1094 3.5 0.1094 Q2.9062 0.1094 2.2266 -0.0234 Q1.5469 -0.1562 0.9844 -0.375 L0.9844 -1.8281 L1.8125 -1.8281 Q2.0469 -1.1094 2.4375 -0.7891 Q2.8281 -0.4688 3.5 -0.4688 Q4.3906 -0.4688 4.8516 -0.9531 Q5.3125 -1.4375 5.3125 -2.3906 Q5.3125 -3.3906 4.7109 -3.9141 Q4.1094 -4.4375 2.9375 -4.4375 L2.3281 -4.4375 L2.3281 -5.0469 Q3.25 -5.0938 3.8828 -5.3984 Q4.5156 -5.7031 4.8203 -6.1719 Q5.125 -6.6406 5.125 -7.2344 Q5.125 -7.9844 4.7266 -8.3984 Q4.3281 -8.8125 3.5469 -8.8125 Q2.9062 -8.8125 2.5 -8.4609 Q2.0938 -8.1094 1.9062 -7.3906 L1.0938 -7.3906 Z" stroke="none"/></g><g text-rendering="optimizeLegibility" transform="translate(236.9844,19)" color-rendering="optimizeQuality" color-interpolation="linearRGB" image-rendering="optimizeQuality"><path d="M6.9531 0 L2.8438 0 L2.9531 -0.4844 Q3.3281 -0.5312 3.5156 -0.6328 Q3.7031 -0.7344 3.8438 -0.9375 Q3.9844 -1.1406 4.1328 -1.5781 Q4.2812 -2.0156 4.4688 -2.9062 L6.5625 -12.4688 L5.3281 -12.4688 Q4.7188 -12.4688 4.3594 -12.2969 Q4 -12.125 3.6328 -11.6406 Q3.2656 -11.1562 2.75 -10.0469 L1.8125 -10.0469 L2.5469 -13.3281 L12.75 -13.3281 L11.9844 -9.8906 L11.0469 -9.8906 Q11.0469 -10.8438 11 -11.3125 Q10.9531 -11.7812 10.8125 -12.0312 Q10.6719 -12.2812 10.4766 -12.375 Q10.2812 -12.4688 9.7656 -12.4688 L8.3281 -12.4688 L6.2031 -2.8438 Q6.1094 -2.4688 6.0781 -2.2422 Q6.0469 -2.0156 6.0234 -1.7656 Q6 -1.5156 6 -1.3125 Q6 -1.0156 6.0938 -0.8438 Q6.1875 -0.6719 6.3828 -0.5938 Q6.5781 -0.5156 7.0625 -0.4844 L6.9531 0 Z" stroke="none"/></g><g text-rendering="optimizeLegibility" transform="translate(249.7344,10.3359)" color-rendering="optimizeQuality" color-interpolation="linearRGB" image-rendering="optimizeQuality"><path d="M1.0938 -7.3906 L1.0938 -8.7031 Q1.875 -9.0781 2.5703 -9.2578 Q3.2656 -9.4375 3.9062 -9.4375 Q4.6719 -9.4375 5.2578 -9.2031 Q5.8438 -8.9688 6.1484 -8.5156 Q6.4531 -8.0625 6.4531 -7.4375 Q6.4531 -6.8594 6.2188 -6.4219 Q5.9844 -5.9844 5.5625 -5.6562 Q5.1406 -5.3281 4.4844 -5.0156 L4.4844 -4.9531 Q4.8906 -4.875 5.2812 -4.6953 Q5.6719 -4.5156 5.9688 -4.2266 Q6.2656 -3.9375 6.4453 -3.5391 Q6.625 -3.1406 6.625 -2.625 Q6.625 -1.8281 6.2812 -1.2188 Q5.9375 -0.6094 5.2266 -0.25 Q4.5156 0.1094 3.5 0.1094 Q2.9062 0.1094 2.2266 -0.0234 Q1.5469 -0.1562 0.9844 -0.375 L0.9844 -1.8281 L1.8125 -1.8281 Q2.0469 -1.1094 2.4375 -0.7891 Q2.8281 -0.4688 3.5 -0.4688 Q4.3906 -0.4688 4.8516 -0.9531 Q5.3125 -1.4375 5.3125 -2.3906 Q5.3125 -3.3906 4.7109 -3.9141 Q4.1094 -4.4375 2.9375 -4.4375 L2.3281 -4.4375 L2.3281 -5.0469 Q3.25 -5.0938 3.8828 -5.3984 Q4.5156 -5.7031 4.8203 -6.1719 Q5.125 -6.6406 5.125 -7.2344 Q5.125 -7.9844 4.7266 -8.3984 Q4.3281 -8.8125 3.5469 -8.8125 Q2.9062 -8.8125 2.5 -8.4609 Q2.0938 -8.1094 1.9062 -7.3906 L1.0938 -7.3906 Z" stroke="none"/></g><g text-rendering="optimizeLegibility" transform="translate(257.1406,19)" color-rendering="optimizeQuality" color-interpolation="linearRGB" image-rendering="optimizeQuality"><path d="M6.25 -5.0469 L6.25 -1.3438 L4.8125 -1.3438 L4.8125 -5.0469 L1.2188 -5.0469 L1.2188 -6.3906 L4.8125 -6.3906 L4.8125 -10.0938 L6.25 -10.0938 L6.25 -6.3906 L9.8594 -6.3906 L9.8594 -5.0469 L6.25 -5.0469 Z" stroke="none"/></g><g text-rendering="optimizeLegibility" transform="translate(269,19)" color-rendering="optimizeQuality" color-interpolation="linearRGB" image-rendering="optimizeQuality"><path d="M11.6094 -9.0469 Q9.7812 -6.8281 8.5 -4.8125 Q8.3438 -3.2656 8.3438 -2.4062 Q8.3438 -1.5781 8.5156 -1.2266 Q8.6875 -0.875 9.1094 -0.875 Q9.5625 -0.875 10.2188 -1.4688 L10.5312 -0.9844 Q9.2812 0.1562 8.1406 0.1562 Q6.7656 0.1562 6.7656 -1.9062 Q6.7656 -2.25 6.7969 -2.6562 L6.7656 -2.6562 Q4.8125 0.1562 2.9062 0.1562 Q1.9375 0.1562 1.3828 -0.6875 Q0.8281 -1.5312 0.8281 -2.8281 Q0.8281 -5.3594 2.3203 -7.4297 Q3.8125 -9.5 6.0625 -9.5 Q8.1719 -9.5 8.4375 -6.8125 L8.4844 -6.8125 L9.75 -9.3125 L11.4219 -9.3125 L11.6094 -9.0469 ZM7.0938 -4.7344 Q7.2188 -6.125 7.2188 -6.7188 Q7.2188 -7.8125 6.9297 -8.2656 Q6.6406 -8.7188 5.9844 -8.7188 Q4.5469 -8.7188 3.5469 -6.9062 Q2.5469 -5.0938 2.5469 -2.75 Q2.5469 -2 2.8516 -1.5 Q3.1562 -1 3.6562 -1 Q5.5 -1 7.0938 -4.7344 Z" stroke="none"/></g><g text-rendering="optimizeLegibility" transform="translate(281.375,22.3125)" color-rendering="optimizeQuality" color-interpolation="linearRGB" image-rendering="optimizeQuality"><path d="M0.7031 0.5938 Q0.5625 0.75 0.4766 0.8984 Q0.3906 1.0469 0.3516 1.1953 Q0.3125 1.3438 0.3125 1.5312 Q0.3125 2.0469 0.6797 2.2812 Q1.0469 2.5156 1.7969 2.5156 Q2.4688 2.5156 2.9219 2.2812 Q3.375 2.0469 3.6875 1.5469 Q4 1.0469 4.2422 0.3203 Q4.4844 -0.4062 4.7188 -1.625 L4.625 -1.6406 Q3.9688 -0.7344 3.3984 -0.3125 Q2.8281 0.1094 2.1719 0.1094 Q1.4219 0.1094 1.0156 -0.4531 Q0.6094 -1.0156 0.6094 -2.0625 Q0.6094 -2.8125 0.8047 -3.5547 Q1 -4.2969 1.3516 -4.8906 Q1.7031 -5.4844 2.1562 -5.875 Q2.6094 -6.2656 3.1094 -6.4609 Q3.6094 -6.6562 4.1406 -6.6562 Q4.5781 -6.6562 4.9609 -6.5547 Q5.3438 -6.4531 5.7344 -6.2031 L6.3594 -6.6562 L6.7969 -6.5469 L6.0781 -3.3438 Q6.0156 -3 5.9219 -2.5625 L5.75 -1.6719 Q5.4219 -0.0625 5.2344 0.5469 Q5 1.2656 4.6875 1.7344 Q4.3906 2.1562 3.9922 2.4453 Q3.5938 2.7344 3.0625 2.8984 Q2.5312 3.0625 1.8125 3.0625 Q-0.7656 3.0625 -0.7656 1.5469 Q-0.7656 1.1719 -0.5391 0.8594 Q-0.3125 0.5469 0.2031 0.1875 L0.7031 0.5938 ZM2.6562 -0.7031 Q3.0156 -0.7031 3.3594 -0.9453 Q3.7031 -1.1875 4.0938 -1.7031 Q4.4844 -2.2188 4.7031 -2.6953 Q4.9219 -3.1719 5.0781 -3.875 Q5.2344 -4.5781 5.2344 -5.0938 Q5.2344 -5.625 5.0078 -5.8672 Q4.7812 -6.1094 4.25 -6.1094 Q3.9688 -6.1094 3.7109 -6.0156 Q3.4531 -5.9219 3.1797 -5.7109 Q2.9062 -5.5 2.6641 -5.1484 Q2.4219 -4.7969 2.2266 -4.2969 Q2.0312 -3.7969 1.9219 -3.2266 Q1.8125 -2.6562 1.8125 -2.125 Q1.8125 -1.4062 2.0156 -1.0547 Q2.2188 -0.7031 2.6562 -0.7031 Z" stroke="none"/></g><g text-rendering="optimizeLegibility" transform="translate(288.1719,22.3125)" color-rendering="optimizeQuality" color-interpolation="linearRGB" image-rendering="optimizeQuality"><path d="M3.5312 -0.3281 Q3.9531 -0.4375 4.0938 -0.5781 Q4.2344 -0.7188 4.2812 -0.9609 Q4.3281 -1.2031 4.3281 -1.7031 L4.3281 -2.8281 L0.5312 -2.8281 L0.5312 -3.3438 L4.5312 -9.375 L5.5 -9.375 L5.5 -3.5 L5.6406 -3.5 Q6.0469 -3.5 6.2188 -3.5547 Q6.3906 -3.6094 6.5 -3.7578 Q6.6094 -3.9062 6.7031 -4.2344 L7.2188 -4.2344 L7.1406 -2.8281 L5.5 -2.8281 L5.5 -1.7031 Q5.5 -1.25 5.5312 -1.0391 Q5.5625 -0.8281 5.6328 -0.7031 Q5.7031 -0.5781 5.8438 -0.5 Q5.9844 -0.4219 6.2969 -0.3281 L6.2969 0 L3.5312 0 L3.5312 -0.3281 ZM1.6562 -3.5 L4.3281 -3.5 L4.3281 -5.2031 Q4.3281 -5.8438 4.3516 -6.6406 Q4.375 -7.4375 4.3906 -7.8281 L4.3281 -7.8281 L1.6562 -3.5938 L1.6562 -3.5 Z" stroke="none"/></g><g text-rendering="optimizeLegibility" transform="translate(295.3906,19)" color-rendering="optimizeQuality" color-interpolation="linearRGB" image-rendering="optimizeQuality"><path d="M6.9531 0 L2.8438 0 L2.9531 -0.4844 Q3.3281 -0.5312 3.5156 -0.6328 Q3.7031 -0.7344 3.8438 -0.9375 Q3.9844 -1.1406 4.1328 -1.5781 Q4.2812 -2.0156 4.4688 -2.9062 L6.5625 -12.4688 L5.3281 -12.4688 Q4.7188 -12.4688 4.3594 -12.2969 Q4 -12.125 3.6328 -11.6406 Q3.2656 -11.1562 2.75 -10.0469 L1.8125 -10.0469 L2.5469 -13.3281 L12.75 -13.3281 L11.9844 -9.8906 L11.0469 -9.8906 Q11.0469 -10.8438 11 -11.3125 Q10.9531 -11.7812 10.8125 -12.0312 Q10.6719 -12.2812 10.4766 -12.375 Q10.2812 -12.4688 9.7656 -12.4688 L8.3281 -12.4688 L6.2031 -2.8438 Q6.1094 -2.4688 6.0781 -2.2422 Q6.0469 -2.0156 6.0234 -1.7656 Q6 -1.5156 6 -1.3125 Q6 -1.0156 6.0938 -0.8438 Q6.1875 -0.6719 6.3828 -0.5938 Q6.5781 -0.5156 7.0625 -0.4844 L6.9531 0 Z" stroke="none"/></g><g text-rendering="optimizeLegibility" transform="translate(308.1406,10.3594)" color-rendering="optimizeQuality" color-interpolation="linearRGB" image-rendering="optimizeQuality"><path d="M3.5312 -0.3281 Q3.9531 -0.4375 4.0938 -0.5781 Q4.2344 -0.7188 4.2812 -0.9609 Q4.3281 -1.2031 4.3281 -1.7031 L4.3281 -2.8281 L0.5312 -2.8281 L0.5312 -3.3438 L4.5312 -9.375 L5.5 -9.375 L5.5 -3.5 L5.6406 -3.5 Q6.0469 -3.5 6.2188 -3.5547 Q6.3906 -3.6094 6.5 -3.7578 Q6.6094 -3.9062 6.7031 -4.2344 L7.2188 -4.2344 L7.1406 -2.8281 L5.5 -2.8281 L5.5 -1.7031 Q5.5 -1.25 5.5312 -1.0391 Q5.5625 -0.8281 5.6328 -0.7031 Q5.7031 -0.5781 5.8438 -0.5 Q5.9844 -0.4219 6.2969 -0.3281 L6.2969 0 L3.5312 0 L3.5312 -0.3281 ZM1.6562 -3.5 L4.3281 -3.5 L4.3281 -5.2031 Q4.3281 -5.8438 4.3516 -6.6406 Q4.375 -7.4375 4.3906 -7.8281 L4.3281 -7.8281 L1.6562 -3.5938 L1.6562 -3.5 Z" stroke="none"/></g></g></svg>