<?xml version="1.0" encoding="UTF-8" standalone="no"?><svg xmlns="http://www.w3.org/2000/svg" xmlns:xlink="http://www.w3.org/1999/xlink" stroke-dasharray="none" shape-rendering="auto" font-family="'Dialog'" width="268.812600" text-rendering="auto" fill-opacity="1" contentScriptType="text/ecmascript" color-interpolation="auto" color-rendering="auto" preserveAspectRatio="xMidYMid meet" font-size="12" fill="black" stroke="black" image-rendering="auto" stroke-miterlimit="10" zoomAndPan="magnify" version="1.0" stroke-linecap="square" stroke-linejoin="miter" contentStyleType="text/css" font-style="normal" height="42" stroke-width="1" stroke-dashoffset="0" font-weight="normal" stroke-opacity="1" y="-14.000000"><!--Converted from MathML using JEuclid--><defs id="genericDefs"/><g><g text-rendering="optimizeLegibility" transform="translate(0,28)" color-rendering="optimizeQuality" color-interpolation="linearRGB" image-rendering="optimizeQuality"><path d="M9.625 -12.5469 L9.1875 -12.5 Q7.5156 -12.3594 6.0547 -11.4609 Q4.5938 -10.5625 4.5938 -9.3125 Q4.5938 -8.6562 5.1562 -8.2969 Q5.7188 -7.9375 6.5312 -7.9375 Q6.8594 -7.9375 7.1719 -8 L7.9375 -8.1406 L7.7656 -7.2031 L7.1562 -7.0781 Q5.2656 -6.7188 3.9453 -5.8516 Q2.625 -4.9844 2.625 -3.7812 Q2.625 -3.0938 3.0312 -2.6172 Q3.4375 -2.1406 4.5938 -1.625 Q5.7812 -1.1094 6.25 -0.5703 Q6.7188 -0.0312 6.7188 0.7812 Q6.7188 1.7656 5.8828 2.6562 Q5.0469 3.5469 3.6094 4 L3.25 3.4219 Q4.2969 3.0625 4.9453 2.4766 Q5.5938 1.8906 5.5938 1.2812 Q5.5938 0.7344 5.2031 0.4219 Q4.8125 0.1094 3.4062 -0.4375 Q0.8281 -1.4531 0.8281 -3.4375 Q0.8281 -4.8281 2.0234 -5.875 Q3.2188 -6.9219 5.0938 -7.3438 L5.0938 -7.4219 Q4.0625 -7.5156 3.4453 -8.0312 Q2.8281 -8.5469 2.8281 -9.3594 Q2.8281 -11.4062 6.6875 -12.4688 L6.6875 -12.5 L6.2656 -12.5 Q4.0469 -12.5 3.5312 -13.7812 L5.0156 -14.0312 Q5.3594 -13.2188 7.2344 -13.2188 Q7.9375 -13.2188 8.5312 -13.3281 Q9.125 -13.4219 9.8281 -13.5156 L9.625 -12.5469 Z" stroke="none"/></g><g text-rendering="optimizeLegibility" transform="translate(9.8281,36.6094)" color-rendering="optimizeQuality" color-interpolation="linearRGB" image-rendering="optimizeQuality"><path d="M3.8281 -9.2188 L3.5156 -7.8906 L2.2969 -7.8906 L2.625 -9.2188 L3.8281 -9.2188 ZM2.1406 -1.7031 Q2.0625 -1.3594 2.0469 -1.2031 Q2.0312 -1.0469 2.0312 -0.9375 Q2.0312 -0.7188 2.0938 -0.6094 Q2.1562 -0.5 2.3047 -0.4375 Q2.4531 -0.375 2.7812 -0.3281 L2.7188 0 L0.5938 0 L1.625 -4.6094 Q1.7188 -5 1.75 -5.2344 Q1.7812 -5.4688 1.7812 -5.6406 Q1.7812 -5.8281 1.7266 -5.9375 Q1.6719 -6.0469 1.5312 -6.1016 Q1.3906 -6.1562 1.0625 -6.1719 L1.1406 -6.5312 L2.7969 -6.5938 L3.2031 -6.5938 L2.1406 -1.7031 Z" stroke="none"/></g><g text-rendering="optimizeLegibility" transform="translate(14.4375,28)" color-rendering="optimizeQuality" color-interpolation="linearRGB" image-rendering="optimizeQuality"><path d="M1.2188 -7.0625 L1.2188 -8.4219 L9.8594 -8.4219 L9.8594 -7.0625 L1.2188 -7.0625 ZM1.2188 -3.0156 L1.2188 -4.3594 L9.8594 -4.3594 L9.8594 -3.0156 L1.2188 -3.0156 Z" stroke="none"/></g><g text-rendering="optimizeLegibility" stroke-width="1.6667" color-interpolation="linearRGB" color-rendering="optimizeQuality" image-rendering="optimizeQuality"><line y2="20.78" fill="none" x1="27.9747" x2="73.2872" y1="20.78"/><path d="M11.5625 -12.9844 L10.9844 -10.3438 L10.0469 -10.3438 Q9.9688 -11.5469 9.5234 -12.0781 Q9.0781 -12.6094 8.0938 -12.6094 Q7.2656 -12.6094 6.5469 -12.125 Q5.8281 -11.6406 5.1797 -10.7266 Q4.5312 -9.8125 4.0547 -8.5859 Q3.5781 -7.3594 3.3203 -6.0859 Q3.0625 -4.8125 3.0625 -3.7969 Q3.0625 -2.2031 3.5859 -1.4531 Q4.1094 -0.7031 5.2188 -0.7031 Q5.9531 -0.7031 6.5 -0.9219 Q7.0469 -1.1406 7.5312 -1.6641 Q8.0156 -2.1875 8.4844 -3.125 L9.4219 -3.125 L8.8125 -0.3594 Q7.8281 -0.0781 6.8984 0.0391 Q5.9688 0.1562 4.9844 0.1562 Q3.7812 0.1562 2.9297 -0.3438 Q2.0781 -0.8438 1.6484 -1.7969 Q1.2188 -2.75 1.2188 -4.0938 Q1.2188 -4.7969 1.3125 -5.4531 Q1.4375 -6.2812 1.6875 -7.25 Q2.0156 -8.4531 2.5 -9.4375 Q3.0312 -10.4844 3.7031 -11.2812 Q4.3438 -12.0156 5.0781 -12.5156 Q5.7656 -12.9844 6.5547 -13.2344 Q7.3438 -13.4844 8.2344 -13.4844 Q9.125 -13.4844 9.8828 -13.375 Q10.6406 -13.2656 11.5625 -12.9844 Z" stroke-width="1" transform="translate(41.0215,13.5033)" stroke="none"/></g><g text-rendering="optimizeLegibility" transform="translate(52.584,18.2689)" color-rendering="optimizeQuality" color-interpolation="linearRGB" image-rendering="optimizeQuality"><path d="M3.8281 -9.2188 L3.5156 -7.8906 L2.2969 -7.8906 L2.625 -9.2188 L3.8281 -9.2188 ZM2.1406 -1.7031 Q2.0625 -1.3594 2.0469 -1.2031 Q2.0312 -1.0469 2.0312 -0.9375 Q2.0312 -0.7188 2.0938 -0.6094 Q2.1562 -0.5 2.3047 -0.4375 Q2.4531 -0.375 2.7812 -0.3281 L2.7188 0 L0.5938 0 L1.625 -4.6094 Q1.7188 -5 1.75 -5.2344 Q1.7812 -5.4688 1.7812 -5.6406 Q1.7812 -5.8281 1.7266 -5.9375 Q1.6719 -6.0469 1.5312 -6.1016 Q1.3906 -6.1562 1.0625 -6.1719 L1.1406 -6.5312 L2.7969 -6.5938 L3.2031 -6.5938 L2.1406 -1.7031 Z" stroke="none"/></g><g text-rendering="optimizeLegibility" transform="translate(56.4122,18.2689)" color-rendering="optimizeQuality" color-interpolation="linearRGB" image-rendering="optimizeQuality"><path d="M3.8281 -9.2188 L3.5156 -7.8906 L2.2969 -7.8906 L2.625 -9.2188 L3.8281 -9.2188 ZM2.1406 -1.7031 Q2.0625 -1.3594 2.0469 -1.2031 Q2.0312 -1.0469 2.0312 -0.9375 Q2.0312 -0.7188 2.0938 -0.6094 Q2.1562 -0.5 2.3047 -0.4375 Q2.4531 -0.375 2.7812 -0.3281 L2.7188 0 L0.5938 0 L1.625 -4.6094 Q1.7188 -5 1.75 -5.2344 Q1.7812 -5.4688 1.7812 -5.6406 Q1.7812 -5.8281 1.7266 -5.9375 Q1.6719 -6.0469 1.5312 -6.1016 Q1.3906 -6.1562 1.0625 -6.1719 L1.1406 -6.5312 L2.7969 -6.5938 L3.2031 -6.5938 L2.1406 -1.7031 Z" stroke="none"/></g><g text-rendering="optimizeLegibility" transform="translate(27.9747,36.7755)" color-rendering="optimizeQuality" color-interpolation="linearRGB" image-rendering="optimizeQuality"><path d="M6.8594 -1.5625 Q7.3281 -1.5625 7.625 -1.625 Q7.9219 -1.6875 8.0938 -1.8203 Q8.2656 -1.9531 8.375 -2.1719 Q8.4844 -2.3906 8.6406 -2.8594 L9.4688 -2.8594 L9.2969 0 L1.2656 0 L1.2656 -0.4688 Q1.6875 -1.5 2.3984 -2.5703 Q3.1094 -3.6406 4.4219 -5.0938 Q5.5469 -6.3438 6.0469 -7 Q6.5938 -7.7031 6.8594 -8.2109 Q7.125 -8.7188 7.2422 -9.1719 Q7.3594 -9.625 7.3594 -10.0938 Q7.3594 -10.8281 7.125 -11.3828 Q6.8906 -11.9375 6.4062 -12.2656 Q5.9219 -12.5938 5.2031 -12.5938 Q3.375 -12.5938 2.7344 -10.5625 L1.5469 -10.5625 L1.5469 -12.4375 Q2.7344 -12.9844 3.7656 -13.2344 Q4.7969 -13.4844 5.6094 -13.4844 Q7.4375 -13.4844 8.3594 -12.6875 Q9.2812 -11.8906 9.2812 -10.375 Q9.2812 -9.8594 9.1797 -9.4297 Q9.0781 -9 8.8594 -8.5703 Q8.6406 -8.1406 8.2734 -7.6562 Q7.9062 -7.1719 7.4531 -6.6641 Q7 -6.1562 5.9062 -4.9844 Q4.0469 -3.0312 3.1719 -1.5625 L6.8594 -1.5625 Z" stroke="none"/></g><g text-rendering="optimizeLegibility" transform="translate(37.4434,36.7755)" color-rendering="optimizeQuality" color-interpolation="linearRGB" image-rendering="optimizeQuality"><path d="M6.8125 -1.6875 L6.7812 -1.6875 Q5.7812 0.1562 3.7031 0.1562 Q2.4219 0.1562 1.6484 -0.6406 Q0.875 -1.4375 0.875 -2.9219 Q0.875 -4.7656 2.0312 -6.4766 Q3.1875 -8.1875 5.3281 -9.5 L5.7188 -8.8438 Q4.3438 -7.7812 3.4531 -6.1094 Q2.5625 -4.4375 2.5625 -2.8438 Q2.5625 -1.7031 3.0234 -1.1562 Q3.4844 -0.6094 4.2188 -0.6094 Q4.8906 -0.6094 5.4375 -1.2266 Q5.9844 -1.8438 6.2031 -2.9219 L6.9375 -6.6094 L8.5781 -6.6094 L7.7969 -2.8438 Q7.7188 -2.4219 7.7188 -2.0781 Q7.7188 -1.3906 8.0547 -1 Q8.3906 -0.6094 8.9844 -0.6094 Q10.1875 -0.6094 10.9922 -2.1094 Q11.7969 -3.6094 11.7969 -5.7812 Q11.7969 -7.8125 11 -8.9375 L11.5625 -9.5 Q13.5156 -7.6406 13.5156 -5.3594 Q13.5156 -3.125 12.2344 -1.4844 Q10.9531 0.1562 8.9688 0.1562 Q7.1562 0.1562 6.8125 -1.6875 Z" stroke="none"/></g><g text-rendering="optimizeLegibility" transform="translate(50.959,41.5411)" color-rendering="optimizeQuality" color-interpolation="linearRGB" image-rendering="optimizeQuality"><path d="M3.8281 -9.2188 L3.5156 -7.8906 L2.2969 -7.8906 L2.625 -9.2188 L3.8281 -9.2188 ZM2.1406 -1.7031 Q2.0625 -1.3594 2.0469 -1.2031 Q2.0312 -1.0469 2.0312 -0.9375 Q2.0312 -0.7188 2.0938 -0.6094 Q2.1562 -0.5 2.3047 -0.4375 Q2.4531 -0.375 2.7812 -0.3281 L2.7188 0 L0.5938 0 L1.625 -4.6094 Q1.7188 -5 1.75 -5.2344 Q1.7812 -5.4688 1.7812 -5.6406 Q1.7812 -5.8281 1.7266 -5.9375 Q1.6719 -6.0469 1.5312 -6.1016 Q1.3906 -6.1562 1.0625 -6.1719 L1.1406 -6.5312 L2.7969 -6.5938 L3.2031 -6.5938 L2.1406 -1.7031 Z" stroke="none"/></g><g text-rendering="optimizeLegibility" transform="translate(54.7872,36.7755)" color-rendering="optimizeQuality" color-interpolation="linearRGB" image-rendering="optimizeQuality"><path d="M9.3594 -7.4219 L9.3594 -7.2812 Q9.3594 -7.2188 9.3594 -7.1406 Q10.2031 -8.3438 11.0469 -8.9219 Q11.8906 -9.5 12.7812 -9.5 Q13.7188 -9.5 14.1953 -8.9766 Q14.6719 -8.4531 14.6719 -7.4219 Q14.6719 -6.7969 14.4844 -5.9219 L13.6562 -2.4375 Q13.5 -1.7344 13.5 -1.3281 Q13.5 -1.0312 13.5938 -0.8672 Q13.6875 -0.7031 13.8984 -0.6172 Q14.1094 -0.5312 14.5781 -0.4844 L14.4844 0 L11.4219 0 L12.6406 -4.9688 Q12.7812 -5.5 12.8828 -6.0547 Q12.9844 -6.6094 12.9844 -7.0469 Q12.9844 -7.75 12.7422 -8.0469 Q12.5 -8.3438 11.9688 -8.3438 Q11.5938 -8.3438 11.1172 -8.0312 Q10.6406 -7.7188 10.125 -7.0781 Q9.6094 -6.4375 9.2812 -5.8047 Q8.9531 -5.1719 8.7656 -4.2656 L7.875 0 L6.1875 0 L7.3125 -4.9688 Q7.5156 -5.875 7.5859 -6.3047 Q7.6562 -6.7344 7.6562 -7.0469 Q7.6562 -7.75 7.4062 -8.0469 Q7.1562 -8.3438 6.625 -8.3438 Q6.2344 -8.3438 5.7656 -8.0312 Q5.2969 -7.7188 4.7656 -7.0547 Q4.2344 -6.3906 3.9219 -5.75 Q3.6094 -5.1094 3.4219 -4.2344 L2.5469 0 L0.8438 0 L2.3281 -6.6719 Q2.3906 -6.8906 2.4688 -7.3359 Q2.5469 -7.7812 2.5469 -8.0625 Q2.5469 -8.3438 2.4688 -8.4922 Q2.3906 -8.6406 2.1875 -8.7188 Q1.9844 -8.7969 1.5 -8.8125 L1.625 -9.3438 L3.8438 -9.4219 L4.3906 -9.4219 L3.75 -6.8906 L3.875 -6.8594 Q4.7656 -8.1875 5.6562 -8.8438 Q6.5469 -9.5 7.4531 -9.5 Q8.3906 -9.5 8.875 -8.9609 Q9.3594 -8.4219 9.3594 -7.4219 Z" stroke="none"/></g><g text-rendering="optimizeLegibility" transform="translate(69.459,41.3849)" color-rendering="optimizeQuality" color-interpolation="linearRGB" image-rendering="optimizeQuality"><path d="M3.8281 -9.2188 L3.5156 -7.8906 L2.2969 -7.8906 L2.625 -9.2188 L3.8281 -9.2188 ZM2.1406 -1.7031 Q2.0625 -1.3594 2.0469 -1.2031 Q2.0312 -1.0469 2.0312 -0.9375 Q2.0312 -0.7188 2.0938 -0.6094 Q2.1562 -0.5 2.3047 -0.4375 Q2.4531 -0.375 2.7812 -0.3281 L2.7188 0 L0.5938 0 L1.625 -4.6094 Q1.7188 -5 1.75 -5.2344 Q1.7812 -5.4688 1.7812 -5.6406 Q1.7812 -5.8281 1.7266 -5.9375 Q1.6719 -6.0469 1.5312 -6.1016 Q1.3906 -6.1562 1.0625 -6.1719 L1.1406 -6.5312 L2.7969 -6.5938 L3.2031 -6.5938 L2.1406 -1.7031 Z" stroke="none"/></g><g text-rendering="optimizeLegibility" transform="translate(77.4128,28)" color-rendering="optimizeQuality" color-interpolation="linearRGB" image-rendering="optimizeQuality"><path d="M1.2188 -7.0625 L1.2188 -8.4219 L9.8594 -8.4219 L9.8594 -7.0625 L1.2188 -7.0625 ZM1.2188 -3.0156 L1.2188 -4.3594 L9.8594 -4.3594 L9.8594 -3.0156 L1.2188 -3.0156 Z" stroke="none"/></g><g text-rendering="optimizeLegibility" transform="translate(89.2722,28)" color-rendering="optimizeQuality" color-interpolation="linearRGB" image-rendering="optimizeQuality"><path d="M3.5781 -7.8281 L3.7188 -7.7969 Q4.3125 -8.375 4.6875 -8.6719 Q5.0625 -8.9688 5.4141 -9.1562 Q5.7656 -9.3438 6.0703 -9.4219 Q6.375 -9.5 6.7031 -9.5 Q7.6719 -9.5 8.2891 -9.0469 Q8.9062 -8.5938 9.1406 -7.6719 Q9.875 -8.4062 10.3281 -8.7578 Q10.7812 -9.1094 11.2578 -9.3047 Q11.7344 -9.5 12.2812 -9.5 Q12.9375 -9.5 13.4062 -9.3047 Q13.875 -9.1094 14.2031 -8.7188 Q14.5312 -8.3281 14.6797 -7.7266 Q14.8281 -7.125 14.8281 -6.125 L14.8281 -2.4375 Q14.8281 -1.7031 14.8828 -1.4219 Q14.9375 -1.1406 15.0312 -0.9844 Q15.125 -0.8281 15.3047 -0.7109 Q15.4844 -0.5938 15.9219 -0.4844 L15.9219 0 L12.0938 0 L12.0938 -0.4844 Q12.4688 -0.5938 12.6328 -0.6797 Q12.7969 -0.7656 12.9141 -0.9219 Q13.0312 -1.0781 13.0938 -1.4062 Q13.1562 -1.7344 13.1562 -2.4062 L13.1562 -4.9688 Q13.1562 -5.7969 13.1094 -6.3359 Q13.0625 -6.875 12.9688 -7.1953 Q12.875 -7.5156 12.75 -7.7031 Q12.625 -7.8906 12.4531 -8.0312 Q12.2812 -8.1719 12.0625 -8.25 Q11.8438 -8.3281 11.4688 -8.3281 Q11.0781 -8.3281 10.7422 -8.1719 Q10.4062 -8.0156 10.0078 -7.6406 Q9.6094 -7.2656 9.4375 -6.8906 Q9.2656 -6.5156 9.2656 -6 L9.2656 -2.4375 Q9.2656 -1.7031 9.3125 -1.4219 Q9.3594 -1.1406 9.4531 -0.9844 Q9.5469 -0.8281 9.7266 -0.7109 Q9.9062 -0.5938 10.3594 -0.4844 L10.3594 0 L6.5156 0 L6.5156 -0.4844 Q6.8906 -0.5938 7.0625 -0.6797 Q7.2344 -0.7656 7.3438 -0.9219 Q7.4531 -1.0781 7.5156 -1.4062 Q7.5781 -1.7344 7.5781 -2.4062 L7.5781 -4.9688 Q7.5781 -5.8281 7.5312 -6.375 Q7.4844 -6.9219 7.3828 -7.2578 Q7.2812 -7.5938 7.1172 -7.7969 Q6.9531 -8 6.7891 -8.1094 Q6.625 -8.2188 6.3984 -8.2734 Q6.1719 -8.3281 5.8906 -8.3281 Q5.4844 -8.3281 5.1328 -8.1406 Q4.7812 -7.9531 4.4141 -7.6172 Q4.0469 -7.2812 3.8672 -6.9062 Q3.6875 -6.5312 3.6875 -6.1094 L3.6875 -2.4375 Q3.6875 -1.8906 3.7109 -1.5938 Q3.7344 -1.2969 3.8047 -1.1328 Q3.875 -0.9688 3.9688 -0.8672 Q4.0625 -0.7656 4.2422 -0.6719 Q4.4219 -0.5781 4.7812 -0.4844 L4.7812 0 L0.9531 0 L0.9531 -0.4844 Q1.3281 -0.5938 1.4922 -0.6797 Q1.6562 -0.7656 1.7734 -0.9219 Q1.8906 -1.0781 1.9453 -1.4062 Q2 -1.7344 2 -2.4062 L2 -6.6719 Q2 -7.2969 1.9844 -7.6797 Q1.9688 -8.0625 1.8516 -8.2891 Q1.7344 -8.5156 1.4922 -8.625 Q1.25 -8.7344 0.8125 -8.8125 L0.8125 -9.3438 L3.0938 -9.4219 L3.6875 -9.4219 L3.5781 -7.8281 ZM22.2031 0.1562 Q20.1719 0.1562 19.1016 -1.0391 Q18.0312 -2.2344 18.0312 -4.5781 Q18.0312 -6.1875 18.5938 -7.3047 Q19.1562 -8.4219 20.1328 -8.9609 Q21.1094 -9.5 22.3594 -9.5 Q24.4375 -9.5 25.5156 -8.2891 Q26.5938 -7.0781 26.5938 -4.7969 Q26.5938 -3.1719 26.0547 -2.0625 Q25.5156 -0.9531 24.5312 -0.3984 Q23.5469 0.1562 22.2031 0.1562 ZM19.875 -4.7812 Q19.875 -2.7812 20.5156 -1.6953 Q21.1562 -0.6094 22.3438 -0.6094 Q23 -0.6094 23.4609 -0.9297 Q23.9219 -1.25 24.2031 -1.7891 Q24.4844 -2.3281 24.6172 -3.0312 Q24.75 -3.7344 24.75 -4.5156 Q24.75 -5.9531 24.4297 -6.8984 Q24.1094 -7.8438 23.5625 -8.2891 Q23.0156 -8.7344 22.3125 -8.7344 Q21.125 -8.7344 20.5 -7.7109 Q19.875 -6.6875 19.875 -4.7812 ZM35.5469 -10.6094 Q35.5469 -11.5469 35.5312 -11.9219 Q35.5156 -12.2969 35.4531 -12.5547 Q35.3906 -12.8125 35.2734 -12.9609 Q35.1562 -13.1094 34.9688 -13.1953 Q34.7812 -13.2812 34.2812 -13.375 L34.2812 -13.875 L36.6406 -13.9688 L37.2188 -13.9688 L37.2188 -2.6719 Q37.2188 -1.9062 37.25 -1.5781 Q37.2812 -1.25 37.375 -1.0547 Q37.4688 -0.8594 37.6797 -0.7344 Q37.8906 -0.6094 38.4219 -0.5156 L38.4219 0 L36.1094 0.0938 L35.5312 0.0938 L35.6406 -1.5 L35.5 -1.5469 Q34.8906 -0.8906 34.4375 -0.5625 Q33.9844 -0.2344 33.4688 -0.0391 Q32.9531 0.1562 32.3594 0.1562 Q30.7656 0.1562 29.8984 -1.0625 Q29.0312 -2.2812 29.0312 -4.5781 Q29.0312 -6.1719 29.5938 -7.2891 Q30.1562 -8.4062 31.1172 -8.9531 Q32.0781 -9.5 33.2812 -9.5 Q33.9219 -9.5 34.4531 -9.3984 Q34.9844 -9.2969 35.5469 -9.0625 L35.5469 -10.6094 ZM35.5469 -5.7969 Q35.5469 -6.5469 35.4766 -7.0078 Q35.4062 -7.4688 35.2422 -7.7812 Q35.0781 -8.0938 34.8047 -8.3125 Q34.5312 -8.5312 34.2031 -8.625 Q33.875 -8.7188 33.4219 -8.7188 Q32.1719 -8.7188 31.5156 -7.7188 Q30.8594 -6.7188 30.8594 -4.8438 Q30.8594 -2.9688 31.3984 -1.9922 Q31.9375 -1.0156 33.0312 -1.0156 Q33.4531 -1.0156 33.7422 -1.0859 Q34.0312 -1.1562 34.3047 -1.3203 Q34.5781 -1.4844 34.8594 -1.7656 Q35.1406 -2.0469 35.2734 -2.2812 Q35.4062 -2.5156 35.4766 -2.8203 Q35.5469 -3.125 35.5469 -3.6094 L35.5469 -5.7969 ZM45.5938 -1.3906 L45.4531 -1.4375 Q44.5938 -0.5625 43.8516 -0.2031 Q43.1094 0.1562 42.2656 0.1562 Q41.5156 0.1562 40.9531 -0.1328 Q40.3906 -0.4219 40.0859 -0.9453 Q39.7812 -1.4688 39.7812 -2.1562 Q39.7812 -3.5781 41.1953 -4.3516 Q42.6094 -5.125 45.4219 -5.25 L45.4219 -5.8906 Q45.4219 -6.9062 45.2266 -7.4922 Q45.0312 -8.0781 44.6172 -8.3516 Q44.2031 -8.625 43.5 -8.625 Q42.7344 -8.625 42.2656 -8.2266 Q41.7969 -7.8281 41.5625 -7.0156 L40.2969 -7.0156 L40.2969 -8.2969 Q41.2344 -8.7812 41.8594 -9.0078 Q42.4844 -9.2344 43.1094 -9.3672 Q43.7344 -9.5 44.375 -9.5 Q45.3438 -9.5 45.9297 -9.1953 Q46.5156 -8.8906 46.8047 -8.2578 Q47.0938 -7.625 47.0938 -6.3438 L47.0938 -2.9375 Q47.0938 -2.2188 47.1016 -1.9219 Q47.1094 -1.625 47.1641 -1.3672 Q47.2188 -1.1094 47.3125 -0.9609 Q47.4062 -0.8125 47.6016 -0.7031 Q47.7969 -0.5938 48.2188 -0.4844 L48.2188 0 L45.5469 0 L45.5938 -1.3906 ZM45.4219 -4.4531 Q43.4375 -4.4375 42.4531 -3.9297 Q41.4688 -3.4219 41.4688 -2.3906 Q41.4688 -1.8438 41.6953 -1.5156 Q41.9219 -1.1875 42.2656 -1.0703 Q42.6094 -0.9531 43.0781 -0.9531 Q43.7344 -0.9531 44.2812 -1.2734 Q44.8281 -1.5938 45.125 -2.0938 Q45.4219 -2.5938 45.4219 -3.0781 L45.4219 -4.4531 ZM52.5625 -2.4375 Q52.5625 -1.6094 52.6406 -1.2812 Q52.7188 -0.9531 52.9375 -0.7812 Q53.1562 -0.6094 53.6562 -0.4844 L53.6562 0 L49.7656 0 L49.7656 -0.4844 Q50.2656 -0.6094 50.4531 -0.7422 Q50.6406 -0.875 50.7266 -1.0703 Q50.8125 -1.2656 50.8438 -1.5938 Q50.875 -1.9219 50.875 -2.4375 L50.875 -10.6094 Q50.875 -11.5469 50.8594 -11.9219 Q50.8438 -12.2969 50.7812 -12.5547 Q50.7188 -12.8125 50.6094 -12.9609 Q50.5 -13.1094 50.3047 -13.1953 Q50.1094 -13.2812 49.6094 -13.375 L49.6094 -13.875 L51.9688 -13.9688 L52.5625 -13.9688 L52.5625 -2.4375 ZM65.5469 -10.6094 Q65.5469 -11.5469 65.5312 -11.9219 Q65.5156 -12.2969 65.4531 -12.5547 Q65.3906 -12.8125 65.2734 -12.9609 Q65.1562 -13.1094 64.9688 -13.1953 Q64.7812 -13.2812 64.2812 -13.375 L64.2812 -13.875 L66.6406 -13.9688 L67.2188 -13.9688 L67.2188 -2.6719 Q67.2188 -1.9062 67.25 -1.5781 Q67.2812 -1.25 67.375 -1.0547 Q67.4688 -0.8594 67.6797 -0.7344 Q67.8906 -0.6094 68.4219 -0.5156 L68.4219 0 L66.1094 0.0938 L65.5312 0.0938 L65.6406 -1.5 L65.5 -1.5469 Q64.8906 -0.8906 64.4375 -0.5625 Q63.9844 -0.2344 63.4688 -0.0391 Q62.9531 0.1562 62.3594 0.1562 Q60.7656 0.1562 59.8984 -1.0625 Q59.0312 -2.2812 59.0312 -4.5781 Q59.0312 -6.1719 59.5938 -7.2891 Q60.1562 -8.4062 61.1172 -8.9531 Q62.0781 -9.5 63.2812 -9.5 Q63.9219 -9.5 64.4531 -9.3984 Q64.9844 -9.2969 65.5469 -9.0625 L65.5469 -10.6094 ZM65.5469 -5.7969 Q65.5469 -6.5469 65.4766 -7.0078 Q65.4062 -7.4688 65.2422 -7.7812 Q65.0781 -8.0938 64.8047 -8.3125 Q64.5312 -8.5312 64.2031 -8.625 Q63.875 -8.7188 63.4219 -8.7188 Q62.1719 -8.7188 61.5156 -7.7188 Q60.8594 -6.7188 60.8594 -4.8438 Q60.8594 -2.9688 61.3984 -1.9922 Q61.9375 -1.0156 63.0312 -1.0156 Q63.4531 -1.0156 63.7422 -1.0859 Q64.0312 -1.1562 64.3047 -1.3203 Q64.5781 -1.4844 64.8594 -1.7656 Q65.1406 -2.0469 65.2734 -2.2812 Q65.4062 -2.5156 65.4766 -2.8203 Q65.5469 -3.125 65.5469 -3.6094 L65.5469 -5.7969 ZM75.5938 -1.3906 L75.4531 -1.4375 Q74.5938 -0.5625 73.8516 -0.2031 Q73.1094 0.1562 72.2656 0.1562 Q71.5156 0.1562 70.9531 -0.1328 Q70.3906 -0.4219 70.0859 -0.9453 Q69.7812 -1.4688 69.7812 -2.1562 Q69.7812 -3.5781 71.1953 -4.3516 Q72.6094 -5.125 75.4219 -5.25 L75.4219 -5.8906 Q75.4219 -6.9062 75.2266 -7.4922 Q75.0312 -8.0781 74.6172 -8.3516 Q74.2031 -8.625 73.5 -8.625 Q72.7344 -8.625 72.2656 -8.2266 Q71.7969 -7.8281 71.5625 -7.0156 L70.2969 -7.0156 L70.2969 -8.2969 Q71.2344 -8.7812 71.8594 -9.0078 Q72.4844 -9.2344 73.1094 -9.3672 Q73.7344 -9.5 74.375 -9.5 Q75.3438 -9.5 75.9297 -9.1953 Q76.5156 -8.8906 76.8047 -8.2578 Q77.0938 -7.625 77.0938 -6.3438 L77.0938 -2.9375 Q77.0938 -2.2188 77.1016 -1.9219 Q77.1094 -1.625 77.1641 -1.3672 Q77.2188 -1.1094 77.3125 -0.9609 Q77.4062 -0.8125 77.6016 -0.7031 Q77.7969 -0.5938 78.2188 -0.4844 L78.2188 0 L75.5469 0 L75.5938 -1.3906 ZM75.4219 -4.4531 Q73.4375 -4.4375 72.4531 -3.9297 Q71.4688 -3.4219 71.4688 -2.3906 Q71.4688 -1.8438 71.6953 -1.5156 Q71.9219 -1.1875 72.2656 -1.0703 Q72.6094 -0.9531 73.0781 -0.9531 Q73.7344 -0.9531 74.2812 -1.2734 Q74.8281 -1.5938 75.125 -2.0938 Q75.4219 -2.5938 75.4219 -3.0781 L75.4219 -4.4531 ZM82.5781 -7.8281 L82.7188 -7.7969 Q83.3125 -8.375 83.6875 -8.6719 Q84.0625 -8.9688 84.4141 -9.1562 Q84.7656 -9.3438 85.0703 -9.4219 Q85.375 -9.5 85.7031 -9.5 Q86.6719 -9.5 87.2891 -9.0469 Q87.9062 -8.5938 88.1406 -7.6719 Q88.875 -8.4062 89.3281 -8.7578 Q89.7812 -9.1094 90.2578 -9.3047 Q90.7344 -9.5 91.2812 -9.5 Q91.9375 -9.5 92.4062 -9.3047 Q92.875 -9.1094 93.2031 -8.7188 Q93.5312 -8.3281 93.6797 -7.7266 Q93.8281 -7.125 93.8281 -6.125 L93.8281 -2.4375 Q93.8281 -1.7031 93.8828 -1.4219 Q93.9375 -1.1406 94.0312 -0.9844 Q94.125 -0.8281 94.3047 -0.7109 Q94.4844 -0.5938 94.9219 -0.4844 L94.9219 0 L91.0938 0 L91.0938 -0.4844 Q91.4688 -0.5938 91.6328 -0.6797 Q91.7969 -0.7656 91.9141 -0.9219 Q92.0312 -1.0781 92.0938 -1.4062 Q92.1562 -1.7344 92.1562 -2.4062 L92.1562 -4.9688 Q92.1562 -5.7969 92.1094 -6.3359 Q92.0625 -6.875 91.9688 -7.1953 Q91.875 -7.5156 91.75 -7.7031 Q91.625 -7.8906 91.4531 -8.0312 Q91.2812 -8.1719 91.0625 -8.25 Q90.8438 -8.3281 90.4688 -8.3281 Q90.0781 -8.3281 89.7422 -8.1719 Q89.4062 -8.0156 89.0078 -7.6406 Q88.6094 -7.2656 88.4375 -6.8906 Q88.2656 -6.5156 88.2656 -6 L88.2656 -2.4375 Q88.2656 -1.7031 88.3125 -1.4219 Q88.3594 -1.1406 88.4531 -0.9844 Q88.5469 -0.8281 88.7266 -0.7109 Q88.9062 -0.5938 89.3594 -0.4844 L89.3594 0 L85.5156 0 L85.5156 -0.4844 Q85.8906 -0.5938 86.0625 -0.6797 Q86.2344 -0.7656 86.3438 -0.9219 Q86.4531 -1.0781 86.5156 -1.4062 Q86.5781 -1.7344 86.5781 -2.4062 L86.5781 -4.9688 Q86.5781 -5.8281 86.5312 -6.375 Q86.4844 -6.9219 86.3828 -7.2578 Q86.2812 -7.5938 86.1172 -7.7969 Q85.9531 -8 85.7891 -8.1094 Q85.625 -8.2188 85.3984 -8.2734 Q85.1719 -8.3281 84.8906 -8.3281 Q84.4844 -8.3281 84.1328 -8.1406 Q83.7812 -7.9531 83.4141 -7.6172 Q83.0469 -7.2812 82.8672 -6.9062 Q82.6875 -6.5312 82.6875 -6.1094 L82.6875 -2.4375 Q82.6875 -1.8906 82.7109 -1.5938 Q82.7344 -1.2969 82.8047 -1.1328 Q82.875 -0.9688 82.9688 -0.8672 Q83.0625 -0.7656 83.2422 -0.6719 Q83.4219 -0.5781 83.7812 -0.4844 L83.7812 0 L79.9531 0 L79.9531 -0.4844 Q80.3281 -0.5938 80.4922 -0.6797 Q80.6562 -0.7656 80.7734 -0.9219 Q80.8906 -1.0781 80.9453 -1.4062 Q81 -1.7344 81 -2.4062 L81 -6.6719 Q81 -7.2969 80.9844 -7.6797 Q80.9688 -8.0625 80.8516 -8.2891 Q80.7344 -8.5156 80.4922 -8.625 Q80.25 -8.7344 79.8125 -8.8125 L79.8125 -9.3438 L82.0938 -9.4219 L82.6875 -9.4219 L82.5781 -7.8281 ZM99.5938 -0.2969 L99.5938 1.7656 Q99.5938 2.4062 99.6406 2.7188 Q99.6875 3.0312 99.7969 3.2109 Q99.9062 3.3906 100.1172 3.5078 Q100.3281 3.625 100.7969 3.7188 L100.7969 4.2031 L96.8125 4.2031 L96.8125 3.7188 Q97.1562 3.625 97.3828 3.5234 Q97.6094 3.4219 97.7266 3.2188 Q97.8438 3.0156 97.8828 2.6719 Q97.9219 2.3281 97.9219 1.7656 L97.9219 -6.6094 Q97.9219 -7.3125 97.8984 -7.6094 Q97.875 -7.9062 97.8203 -8.1016 Q97.7656 -8.2969 97.6484 -8.4297 Q97.5312 -8.5625 97.3438 -8.6484 Q97.1562 -8.7344 96.7188 -8.8125 L96.7188 -9.3438 L99.0156 -9.4219 L99.6094 -9.4219 L99.4844 -7.8281 L99.625 -7.7969 Q100.2344 -8.4062 100.5859 -8.6875 Q100.9375 -8.9688 101.3125 -9.1562 Q101.6875 -9.3438 102.0312 -9.4219 Q102.375 -9.5 102.7656 -9.5 Q104.375 -9.5 105.2422 -8.2891 Q106.1094 -7.0781 106.1094 -4.75 Q106.1094 -3.1406 105.6172 -2.0469 Q105.125 -0.9531 104.1953 -0.3984 Q103.2656 0.1562 101.9844 0.1562 Q101.25 0.1562 100.6641 0.0312 Q100.0781 -0.0938 99.5938 -0.2969 ZM99.5938 -3.5156 Q99.5938 -2.5781 99.7109 -2.0703 Q99.8281 -1.5625 100.125 -1.2422 Q100.4219 -0.9219 100.8281 -0.7656 Q101.2344 -0.6094 101.9062 -0.6094 Q103.0781 -0.6094 103.6719 -1.5938 Q104.2656 -2.5781 104.2656 -4.5 Q104.2656 -8.3281 102.0312 -8.3281 Q101.4844 -8.3281 101.0938 -8.1562 Q100.7031 -7.9844 100.3125 -7.6016 Q99.9219 -7.2188 99.7578 -6.8594 Q99.5938 -6.5 99.5938 -6.0938 L99.5938 -3.5156 ZM110.7344 -13.1719 L110.7344 -11.2656 L108.9375 -11.2656 L108.9375 -13.1719 L110.7344 -13.1719 ZM107.9531 -0.4844 Q108.3281 -0.5938 108.4922 -0.6797 Q108.6562 -0.7656 108.7656 -0.9219 Q108.875 -1.0781 108.9375 -1.4062 Q109 -1.7344 109 -2.4062 L109 -6.6719 Q109 -7.2969 108.9844 -7.6797 Q108.9688 -8.0625 108.8516 -8.2891 Q108.7344 -8.5156 108.4922 -8.625 Q108.25 -8.7344 107.8125 -8.8125 L107.8125 -9.3438 L110.0938 -9.4219 L110.6875 -9.4219 L110.6875 -2.4375 Q110.6875 -1.6094 110.7656 -1.2812 Q110.8438 -0.9531 111.0625 -0.7812 Q111.2812 -0.6094 111.7812 -0.4844 L111.7812 0 L107.9531 0 L107.9531 -0.4844 ZM123.4531 0 L119.6094 0 L119.6094 -0.4844 Q120 -0.5938 120.1641 -0.6797 Q120.3281 -0.7656 120.4375 -0.9219 Q120.5469 -1.0781 120.6094 -1.4062 Q120.6719 -1.7344 120.6719 -2.4062 L120.6719 -4.9688 Q120.6719 -5.6406 120.6328 -6.2031 Q120.5938 -6.7656 120.5 -7.1172 Q120.4062 -7.4688 120.2812 -7.6719 Q120.1562 -7.875 119.9688 -8.0156 Q119.7812 -8.1562 119.5469 -8.2422 Q119.3125 -8.3281 118.9375 -8.3281 Q118.5625 -8.3281 118.2188 -8.1719 Q117.875 -8.0156 117.4609 -7.6484 Q117.0469 -7.2812 116.8672 -6.9141 Q116.6875 -6.5469 116.6875 -6.0781 L116.6875 -2.4375 Q116.6875 -1.6094 116.7656 -1.2812 Q116.8438 -0.9531 117.0625 -0.7812 Q117.2812 -0.6094 117.7812 -0.4844 L117.7812 0 L113.9531 0 L113.9531 -0.4844 Q114.3281 -0.5938 114.4922 -0.6797 Q114.6562 -0.7656 114.7656 -0.9219 Q114.875 -1.0781 114.9375 -1.4062 Q115 -1.7344 115 -2.4062 L115 -6.6719 Q115 -7.2969 114.9844 -7.6797 Q114.9688 -8.0625 114.8516 -8.2891 Q114.7344 -8.5156 114.4922 -8.625 Q114.25 -8.7344 113.8125 -8.8125 L113.8125 -9.3438 L116.0938 -9.4219 L116.6875 -9.4219 L116.5781 -7.8281 L116.7188 -7.7969 Q117.4375 -8.5312 117.8828 -8.8438 Q118.3281 -9.1562 118.7812 -9.3281 Q119.2344 -9.5 119.75 -9.5 Q120.2812 -9.5 120.6953 -9.375 Q121.1094 -9.25 121.4219 -8.9922 Q121.7344 -8.7344 121.9453 -8.3594 Q122.1562 -7.9844 122.2578 -7.4609 Q122.3594 -6.9375 122.3594 -6.125 L122.3594 -2.4375 Q122.3594 -1.7656 122.3984 -1.4609 Q122.4375 -1.1562 122.5312 -0.9922 Q122.625 -0.8281 122.8125 -0.7188 Q123 -0.6094 123.4531 -0.4844 L123.4531 0 ZM133.7031 -8.3438 L131.9062 -8.4219 L131.8125 -8.3125 Q132.1094 -8.0156 132.2891 -7.4922 Q132.4688 -6.9688 132.4688 -6.3594 Q132.4688 -4.7656 131.4844 -3.8984 Q130.5 -3.0312 128.7031 -3.0312 Q127.8906 -3.0312 127.2969 -3.25 Q126.5625 -2.6719 126.5625 -2.125 Q126.5625 -1.7656 126.7031 -1.5781 Q126.8438 -1.3906 127.1719 -1.3125 Q127.5 -1.2344 128.1562 -1.2344 L130.5 -1.2344 Q131.5469 -1.2344 132.1953 -0.9141 Q132.8438 -0.5938 133.125 -0.0547 Q133.4062 0.4844 133.4062 1.2188 Q133.4062 2.125 132.875 2.8438 Q132.3438 3.5625 131.3516 3.9609 Q130.3594 4.3594 129.0312 4.3594 Q128.0469 4.3594 127.2266 4.2422 Q126.4062 4.125 125.8281 3.8516 Q125.25 3.5781 124.9297 3.125 Q124.6094 2.6719 124.6094 1.9844 Q124.6094 1.375 125.0234 0.8672 Q125.4375 0.3594 126.1875 -0.0156 Q125.7344 -0.2031 125.4688 -0.5625 Q125.2031 -0.9219 125.2031 -1.4219 Q125.2031 -1.9688 125.5156 -2.4375 Q125.8281 -2.9062 126.625 -3.5 Q125.9219 -3.9062 125.5547 -4.6094 Q125.1875 -5.3125 125.1875 -6.2188 Q125.1875 -7.0469 125.4609 -7.6719 Q125.7344 -8.2969 126.2266 -8.7031 Q126.7188 -9.1094 127.3984 -9.3047 Q128.0781 -9.5 128.8594 -9.5 Q129.5625 -9.5 130.25 -9.3438 L133.7031 -9.3438 L133.7031 -8.3438 ZM126.9375 -6.375 Q126.9375 -5.1406 127.4297 -4.4766 Q127.9219 -3.8125 128.8594 -3.8125 Q129.3594 -3.8125 129.7109 -4.0078 Q130.0625 -4.2031 130.2812 -4.5312 Q130.5 -4.8594 130.6016 -5.2969 Q130.7031 -5.7344 130.7031 -6.2188 Q130.7031 -7.0781 130.4609 -7.6484 Q130.2188 -8.2188 129.7969 -8.4922 Q129.375 -8.7656 128.8281 -8.7656 Q127.9062 -8.7656 127.4219 -8.1484 Q126.9375 -7.5312 126.9375 -6.375 ZM127.1719 0.1562 Q126.6719 0.5312 126.4219 0.9453 Q126.1719 1.3594 126.1719 1.8906 Q126.1719 2.7656 126.875 3.1797 Q127.5781 3.5938 129.0156 3.5938 Q129.8906 3.5938 130.5234 3.3594 Q131.1562 3.125 131.4844 2.6875 Q131.8125 2.25 131.8125 1.6562 Q131.8125 1.3906 131.7422 1.1328 Q131.6719 0.875 131.4844 0.6641 Q131.2969 0.4531 130.9453 0.3359 Q130.5938 0.2188 130.0312 0.2188 L128.5781 0.2188 Q127.7812 0.2188 127.1719 0.1562 ZM141.5781 -7.7188 L141.7188 -7.6875 Q142.2656 -8.3438 142.7188 -8.7188 Q143.1719 -9.0938 143.7031 -9.2969 Q144.2344 -9.5 144.9219 -9.5 Q145.4844 -9.5 145.9375 -9.4375 L145.9375 -7.2031 L144.8438 -7.2031 Q144.6094 -7.7188 144.3438 -7.9609 Q144.0781 -8.2031 143.6094 -8.2031 Q143.2656 -8.2031 142.9219 -8 Q142.5781 -7.7969 142.25 -7.4062 Q141.9219 -7.0156 141.8047 -6.6719 Q141.6875 -6.3281 141.6875 -5.8594 L141.6875 -2.4375 Q141.6875 -1.5469 141.7891 -1.2109 Q141.8906 -0.875 142.1406 -0.7188 Q142.3906 -0.5625 142.8906 -0.4844 L142.8906 0 L138.9531 0 L138.9531 -0.4844 Q139.3281 -0.5938 139.4922 -0.6797 Q139.6562 -0.7656 139.7734 -0.9219 Q139.8906 -1.0781 139.9453 -1.4062 Q140 -1.7344 140 -2.4062 L140 -6.6719 Q140 -7.2969 139.9844 -7.6797 Q139.9688 -8.0625 139.8516 -8.2891 Q139.7344 -8.5156 139.4922 -8.625 Q139.25 -8.7344 138.8125 -8.8125 L138.8125 -9.3281 L141.0938 -9.4219 L141.6875 -9.4219 L141.5781 -7.7188 ZM152.5938 -1.3906 L152.4531 -1.4375 Q151.5938 -0.5625 150.8516 -0.2031 Q150.1094 0.1562 149.2656 0.1562 Q148.5156 0.1562 147.9531 -0.1328 Q147.3906 -0.4219 147.0859 -0.9453 Q146.7812 -1.4688 146.7812 -2.1562 Q146.7812 -3.5781 148.1953 -4.3516 Q149.6094 -5.125 152.4219 -5.25 L152.4219 -5.8906 Q152.4219 -6.9062 152.2266 -7.4922 Q152.0312 -8.0781 151.6172 -8.3516 Q151.2031 -8.625 150.5 -8.625 Q149.7344 -8.625 149.2656 -8.2266 Q148.7969 -7.8281 148.5625 -7.0156 L147.2969 -7.0156 L147.2969 -8.2969 Q148.2344 -8.7812 148.8594 -9.0078 Q149.4844 -9.2344 150.1094 -9.3672 Q150.7344 -9.5 151.375 -9.5 Q152.3438 -9.5 152.9297 -9.1953 Q153.5156 -8.8906 153.8047 -8.2578 Q154.0938 -7.625 154.0938 -6.3438 L154.0938 -2.9375 Q154.0938 -2.2188 154.1016 -1.9219 Q154.1094 -1.625 154.1641 -1.3672 Q154.2188 -1.1094 154.3125 -0.9609 Q154.4062 -0.8125 154.6016 -0.7031 Q154.7969 -0.5938 155.2188 -0.4844 L155.2188 0 L152.5469 0 L152.5938 -1.3906 ZM152.4219 -4.4531 Q150.4375 -4.4375 149.4531 -3.9297 Q148.4688 -3.4219 148.4688 -2.3906 Q148.4688 -1.8438 148.6953 -1.5156 Q148.9219 -1.1875 149.2656 -1.0703 Q149.6094 -0.9531 150.0781 -0.9531 Q150.7344 -0.9531 151.2812 -1.2734 Q151.8281 -1.5938 152.125 -2.0938 Q152.4219 -2.5938 152.4219 -3.0781 L152.4219 -4.4531 ZM156.3594 -8.8438 Q156.8438 -8.9219 157.1484 -9.1172 Q157.4531 -9.3125 157.625 -9.625 Q157.7969 -9.9375 157.8984 -10.3984 Q158 -10.8594 158.0938 -11.75 L159.4844 -11.75 L159.4844 -9.3438 L162.6406 -9.3438 L162.6406 -8.3438 L159.4844 -8.3438 L159.4844 -4 Q159.4844 -3.0625 159.5625 -2.5 Q159.6406 -1.9375 159.8594 -1.6172 Q160.0781 -1.2969 160.3516 -1.1641 Q160.625 -1.0312 161.0469 -1.0312 Q161.4375 -1.0312 161.7812 -1.1875 Q162.125 -1.3438 162.4531 -1.6562 L162.8906 -1.125 Q162.2031 -0.4531 161.5859 -0.1484 Q160.9688 0.1562 160.2969 0.1562 Q159.0312 0.1562 158.4219 -0.5938 Q157.8125 -1.3438 157.8125 -2.9375 L157.8125 -8.3438 L156.3594 -8.3438 L156.3594 -8.8438 ZM166.7344 -13.1719 L166.7344 -11.2656 L164.9375 -11.2656 L164.9375 -13.1719 L166.7344 -13.1719 ZM163.9531 -0.4844 Q164.3281 -0.5938 164.4922 -0.6797 Q164.6562 -0.7656 164.7656 -0.9219 Q164.875 -1.0781 164.9375 -1.4062 Q165 -1.7344 165 -2.4062 L165 -6.6719 Q165 -7.2969 164.9844 -7.6797 Q164.9688 -8.0625 164.8516 -8.2891 Q164.7344 -8.5156 164.4922 -8.625 Q164.25 -8.7344 163.8125 -8.8125 L163.8125 -9.3438 L166.0938 -9.4219 L166.6875 -9.4219 L166.6875 -2.4375 Q166.6875 -1.6094 166.7656 -1.2812 Q166.8438 -0.9531 167.0625 -0.7812 Q167.2812 -0.6094 167.7812 -0.4844 L167.7812 0 L163.9531 0 L163.9531 -0.4844 ZM174.2031 0.1562 Q172.1719 0.1562 171.1016 -1.0391 Q170.0312 -2.2344 170.0312 -4.5781 Q170.0312 -6.1875 170.5938 -7.3047 Q171.1562 -8.4219 172.1328 -8.9609 Q173.1094 -9.5 174.3594 -9.5 Q176.4375 -9.5 177.5156 -8.2891 Q178.5938 -7.0781 178.5938 -4.7969 Q178.5938 -3.1719 178.0547 -2.0625 Q177.5156 -0.9531 176.5312 -0.3984 Q175.5469 0.1562 174.2031 0.1562 ZM171.875 -4.7812 Q171.875 -2.7812 172.5156 -1.6953 Q173.1562 -0.6094 174.3438 -0.6094 Q175 -0.6094 175.4609 -0.9297 Q175.9219 -1.25 176.2031 -1.7891 Q176.4844 -2.3281 176.6172 -3.0312 Q176.75 -3.7344 176.75 -4.5156 Q176.75 -5.9531 176.4297 -6.8984 Q176.1094 -7.8438 175.5625 -8.2891 Q175.0156 -8.7344 174.3125 -8.7344 Q173.125 -8.7344 172.5 -7.7109 Q171.875 -6.6875 171.875 -4.7812 Z" stroke="none"/></g></g></svg>