<?xml version="1.0" encoding="UTF-8" standalone="no"?><svg xmlns="http://www.w3.org/2000/svg" xmlns:xlink="http://www.w3.org/1999/xlink" stroke-dasharray="none" shape-rendering="auto" font-family="'Dialog'" width="28.812600" text-rendering="auto" fill-opacity="1" contentScriptType="text/ecmascript" color-interpolation="auto" color-rendering="auto" preserveAspectRatio="xMidYMid meet" font-size="12" fill="black" stroke="black" image-rendering="auto" stroke-miterlimit="10" zoomAndPan="magnify" version="1.0" stroke-linecap="square" stroke-linejoin="miter" contentStyleType="text/css" font-style="normal" height="19" stroke-width="1" stroke-dashoffset="0" font-weight="normal" stroke-opacity="1" y="-5.000000"><!--Converted from MathML using JEuclid--><defs id="genericDefs"/><g><g text-rendering="optimizeLegibility" transform="translate(0.1406,14)" color-rendering="optimizeQuality" color-interpolation="linearRGB" image-rendering="optimizeQuality"><path d="M2.3125 -0.9062 L5.4375 -0.9062 Q5.875 -0.9062 6.1484 -0.9609 Q6.4219 -1.0156 6.6328 -1.1328 Q6.8438 -1.25 7.0312 -1.4297 Q7.2188 -1.6094 7.4062 -1.8516 Q7.5938 -2.0938 7.8281 -2.5 Q8.0625 -2.9062 8.3281 -3.5312 L9.2656 -3.5312 L8.5156 0 L-0.1406 0 L-0.0469 -0.4844 L8.8125 -12.4375 L5.8281 -12.4375 Q5.4062 -12.4375 5.1641 -12.3906 Q4.9219 -12.3438 4.7344 -12.25 Q4.5469 -12.1562 4.4062 -12.0391 Q4.2656 -11.9219 4.0625 -11.6797 Q3.8594 -11.4375 3.6172 -11.0547 Q3.375 -10.6719 3.0625 -10.0312 L2.125 -10.0312 L2.8594 -13.3281 L11.3125 -13.3281 L11.2031 -12.8594 L2.3125 -0.9062 Z" stroke="none"/></g><g text-rendering="optimizeLegibility" transform="translate(11.4531,18.6641)" color-rendering="optimizeQuality" color-interpolation="linearRGB" image-rendering="optimizeQuality"><path d="M4.6719 -9.3281 Q5.7031 -9.3281 6.3438 -9.1719 Q6.9844 -9.0156 7.5391 -8.6094 Q8.0938 -8.2031 8.375 -7.5234 Q8.6562 -6.8438 8.6562 -5.9062 Q8.6562 -4.9844 8.4453 -4.1406 Q8.2344 -3.2969 7.8359 -2.5938 Q7.4375 -1.8906 6.8906 -1.3672 Q6.3438 -0.8438 5.8203 -0.5625 Q5.2969 -0.2812 4.6562 -0.1406 Q4.0156 0 3.1562 0 L0.2812 0 L0.3594 -0.3281 Q0.625 -0.375 0.75 -0.4688 Q0.875 -0.5625 0.9688 -0.7266 Q1.0625 -0.8906 1.1328 -1.125 Q1.2031 -1.3594 1.3594 -2.0312 L2.5156 -7.2969 Q2.5938 -7.6094 2.6328 -7.9062 Q2.6719 -8.2031 2.6719 -8.4062 Q2.6719 -8.7188 2.5078 -8.8438 Q2.3438 -8.9688 2 -9 L2.0781 -9.3281 L4.6719 -9.3281 ZM2.2656 -0.625 Q2.4688 -0.6094 3.0312 -0.6094 Q3.7188 -0.6094 4.2812 -0.7578 Q4.8438 -0.9062 5.3203 -1.2422 Q5.7969 -1.5781 6.1875 -2.1328 Q6.5781 -2.6875 6.8203 -3.2578 Q7.0625 -3.8281 7.1953 -4.4844 Q7.3281 -5.1406 7.3281 -5.8594 Q7.3281 -7.2969 6.6641 -8.0156 Q6 -8.7344 4.6875 -8.7344 Q4.3906 -8.7344 4.0469 -8.7188 L2.2656 -0.625 Z" stroke="none"/></g><g text-rendering="optimizeLegibility" transform="translate(20.1094,18.6641)" color-rendering="optimizeQuality" color-interpolation="linearRGB" image-rendering="optimizeQuality"><path d="M1.0938 -2.125 Q1.0938 -1.2969 1.4766 -0.8906 Q1.8594 -0.4844 2.6719 -0.4844 Q3.2969 -0.4844 3.75 -0.7188 Q4.2031 -0.9531 4.4297 -1.3828 Q4.6562 -1.8125 4.6562 -2.3906 Q4.6562 -2.8125 4.5156 -3.1328 Q4.375 -3.4531 4.0781 -3.7422 Q3.7812 -4.0312 3.2188 -4.4062 Q2.7031 -4.75 2.3672 -5.0781 Q2.0312 -5.4062 1.8359 -5.8203 Q1.6406 -6.2344 1.6406 -6.7344 Q1.6406 -7.5469 2.0312 -8.1562 Q2.4219 -8.7656 3.1328 -9.1016 Q3.8438 -9.4375 4.7656 -9.4375 Q5.4062 -9.4375 5.9375 -9.3516 Q6.4688 -9.2656 7.125 -9.0625 L6.7344 -7.3125 L6.0781 -7.3125 Q6.0625 -7.8906 5.9062 -8.2188 Q5.75 -8.5469 5.4766 -8.6953 Q5.2031 -8.8438 4.7344 -8.8438 Q4.1562 -8.8438 3.7266 -8.6094 Q3.2969 -8.375 3.0703 -7.9766 Q2.8438 -7.5781 2.8438 -7.0781 Q2.8438 -6.7344 2.9688 -6.4531 Q3.0938 -6.1719 3.3672 -5.8984 Q3.6406 -5.625 4.1562 -5.2656 Q4.8281 -4.8125 5.1797 -4.4453 Q5.5312 -4.0781 5.6953 -3.6641 Q5.8594 -3.25 5.8594 -2.7188 Q5.8594 -1.8906 5.4609 -1.2422 Q5.0625 -0.5938 4.3359 -0.2422 Q3.6094 0.1094 2.6875 0.1094 Q2.0469 0.1094 1.3281 0.0156 Q0.6094 -0.0781 0.0156 -0.25 L0.4375 -2.125 L1.0938 -2.125 Z" stroke="none"/></g></g></svg>