<?xml version="1.0" encoding="UTF-8" standalone="no"?><svg xmlns="http://www.w3.org/2000/svg" xmlns:xlink="http://www.w3.org/1999/xlink" stroke-dasharray="none" shape-rendering="auto" font-family="'Dialog'" width="158.812600" text-rendering="auto" fill-opacity="1" contentScriptType="text/ecmascript" color-interpolation="auto" color-rendering="auto" preserveAspectRatio="xMidYMid meet" font-size="12" fill="black" stroke="black" image-rendering="auto" stroke-miterlimit="10" zoomAndPan="magnify" version="1.0" stroke-linecap="square" stroke-linejoin="miter" contentStyleType="text/css" font-style="normal" height="26" stroke-width="1" stroke-dashoffset="0" font-weight="normal" stroke-opacity="1" y="-11.000000"><!--Converted from MathML using JEuclid--><defs id="genericDefs"/><g><g text-rendering="optimizeLegibility" transform="translate(0,15)" color-rendering="optimizeQuality" color-interpolation="linearRGB" image-rendering="optimizeQuality"><path d="M6.5 -2.2656 Q5.625 -1.0312 4.7891 -0.4453 Q3.9531 0.1406 3.0938 0.1406 Q2.0156 0.1406 1.4219 -0.6641 Q0.8281 -1.4688 0.8281 -2.9375 Q0.8281 -3.875 1.0469 -4.8203 Q1.2656 -5.7656 1.6953 -6.6094 Q2.125 -7.4531 2.7344 -8.0938 Q3.3438 -8.7344 4.1406 -9.1172 Q4.9375 -9.5 5.875 -9.5 Q6.4688 -9.5 7.0156 -9.3594 Q7.5625 -9.2188 8.1562 -8.8594 L9.0469 -9.5 L9.6719 -9.3438 L7.1719 1.7656 Q7.0156 2.5 7.0156 2.875 Q7.0156 3.1719 7.1094 3.3359 Q7.2031 3.5 7.4141 3.5859 Q7.625 3.6719 8.0938 3.7188 L8.0156 4.2031 L4.9688 4.2031 L6.6406 -2.2031 L6.5 -2.2656 ZM7.2969 -5.9531 Q7.3906 -6.375 7.4141 -6.6875 Q7.4375 -7 7.4375 -7.2812 Q7.4375 -8.0312 7.1172 -8.3828 Q6.7969 -8.7344 6.0469 -8.7344 Q5.6406 -8.7344 5.2656 -8.6016 Q4.8906 -8.4688 4.5078 -8.1641 Q4.125 -7.8594 3.7812 -7.3594 Q3.4375 -6.8594 3.1562 -6.1484 Q2.875 -5.4375 2.7188 -4.6172 Q2.5625 -3.7969 2.5625 -3.0312 Q2.5625 -2.0156 2.8359 -1.5078 Q3.1094 -1 3.7656 -1 Q4.0781 -1 4.4062 -1.1406 Q4.7344 -1.2812 5.1328 -1.6484 Q5.5312 -2.0156 6.0312 -2.7188 Q6.5 -3.375 6.7656 -4.0156 Q7.0312 -4.6562 7.2031 -5.5312 L7.2969 -5.9531 Z" stroke="none"/></g><g text-rendering="optimizeLegibility" transform="translate(11.4688,22.2812)" color-rendering="optimizeQuality" color-interpolation="linearRGB" image-rendering="optimizeQuality"><path d="M3.8438 -9.2188 L3.5312 -7.8906 L2.3281 -7.8906 L2.6406 -9.2188 L3.8438 -9.2188 ZM1.7969 0.1094 Q1.5781 1.1562 1.2031 1.7891 Q0.8281 2.4219 0.2188 2.7422 Q-0.3906 3.0625 -1.2188 3.0625 Q-1.5625 3.0625 -1.7969 2.9844 L-1.6406 2.3906 Q-1.5312 2.4219 -1.3984 2.4297 Q-1.2656 2.4375 -1.125 2.4375 Q-0.7969 2.4375 -0.5625 2.3438 Q-0.3281 2.25 -0.1328 2.0156 Q0.0625 1.7812 0.2266 1.375 Q0.3906 0.9688 0.5469 0.3125 L1.6406 -4.6094 Q1.7344 -4.9844 1.7734 -5.2266 Q1.8125 -5.4688 1.8125 -5.6406 Q1.8125 -5.8281 1.75 -5.9375 Q1.6875 -6.0469 1.5547 -6.1016 Q1.4219 -6.1562 1.0781 -6.1719 L1.1562 -6.5312 L2.8281 -6.5938 L3.2188 -6.5938 L1.7969 0.1094 Z" stroke="none"/></g><g text-rendering="optimizeLegibility" transform="translate(9.6719,10.3359)" color-rendering="optimizeQuality" color-interpolation="linearRGB" image-rendering="optimizeQuality"><path d="M6.5625 -5.2031 L6.5625 -5.0938 Q6.5625 -5.0469 6.5469 -5 Q7.1406 -5.8438 7.7266 -6.2422 Q8.3125 -6.6406 8.9531 -6.6406 Q9.5938 -6.6406 9.9375 -6.2734 Q10.2812 -5.9062 10.2812 -5.2031 Q10.2812 -4.7656 10.1406 -4.1406 L9.5625 -1.7031 Q9.4531 -1.2188 9.4531 -0.9375 Q9.4531 -0.7188 9.5156 -0.6094 Q9.5781 -0.5 9.7266 -0.4375 Q9.875 -0.375 10.2031 -0.3281 L10.1406 0 L7.9844 0 L8.8594 -3.4688 Q8.9531 -3.8438 9.0234 -4.2344 Q9.0938 -4.625 9.0938 -4.9375 Q9.0938 -5.4219 8.9219 -5.6328 Q8.75 -5.8438 8.375 -5.8438 Q8.1094 -5.8438 7.7812 -5.625 Q7.4531 -5.4062 7.0938 -4.9531 Q6.7344 -4.5 6.5 -4.0625 Q6.2656 -3.625 6.125 -2.9844 L5.5156 0 L4.3281 0 L5.1094 -3.4688 Q5.25 -4.1094 5.3047 -4.4141 Q5.3594 -4.7188 5.3594 -4.9375 Q5.3594 -5.4219 5.1875 -5.6328 Q5.0156 -5.8438 4.6406 -5.8438 Q4.375 -5.8438 4.0391 -5.625 Q3.7031 -5.4062 3.3359 -4.9375 Q2.9688 -4.4688 2.7422 -4.0234 Q2.5156 -3.5781 2.4062 -2.9531 L1.7812 0 L0.5938 0 L1.6406 -4.6719 Q1.6719 -4.8281 1.7266 -5.1328 Q1.7812 -5.4375 1.7812 -5.6406 Q1.7812 -5.8438 1.7266 -5.9453 Q1.6719 -6.0469 1.5312 -6.1016 Q1.3906 -6.1562 1.0469 -6.1719 L1.1406 -6.5312 L2.6875 -6.5938 L3.0781 -6.5938 L2.625 -4.8281 L2.7031 -4.7969 Q3.3438 -5.7344 3.9609 -6.1875 Q4.5781 -6.6406 5.2188 -6.6406 Q5.875 -6.6406 6.2188 -6.2734 Q6.5625 -5.9062 6.5625 -5.2031 Z" stroke="none"/></g><g text-rendering="optimizeLegibility" transform="translate(19.9531,10.3359)" color-rendering="optimizeQuality" color-interpolation="linearRGB" image-rendering="optimizeQuality"><path d="M6.4531 0 L4.2969 0 L5.1562 -3.4688 Q5.25 -3.8125 5.3281 -4.2109 Q5.4062 -4.6094 5.4062 -4.9375 Q5.4062 -5.4219 5.2344 -5.6328 Q5.0625 -5.8438 4.7031 -5.8438 Q4.4219 -5.8438 4.0938 -5.625 Q3.7656 -5.4062 3.3984 -4.9609 Q3.0312 -4.5156 2.7812 -4.0625 Q2.5312 -3.6094 2.4062 -2.9531 L1.7812 0 L0.5938 0 L1.6406 -4.6719 Q1.6719 -4.8281 1.7266 -5.1328 Q1.7812 -5.4375 1.7812 -5.6406 Q1.7812 -5.8438 1.7266 -5.9453 Q1.6719 -6.0469 1.5312 -6.1016 Q1.3906 -6.1562 1.0469 -6.1719 L1.1406 -6.5312 L2.6875 -6.5938 L3.0781 -6.5938 L2.625 -4.8125 L2.7031 -4.7969 Q3.375 -5.7344 3.9922 -6.1875 Q4.6094 -6.6406 5.2344 -6.6406 Q5.9062 -6.6406 6.2422 -6.2734 Q6.5781 -5.9062 6.5781 -5.2031 Q6.5781 -4.9531 6.5391 -4.6641 Q6.5 -4.375 6.4375 -4.1406 L5.8594 -1.7031 Q5.75 -1.2188 5.75 -0.9375 Q5.75 -0.7188 5.8203 -0.6094 Q5.8906 -0.5 6.0312 -0.4375 Q6.1719 -0.375 6.5 -0.3281 L6.4531 0 Z" stroke="none"/></g><g text-rendering="optimizeLegibility" transform="translate(26.5312,10.3359)" color-rendering="optimizeQuality" color-interpolation="linearRGB" image-rendering="optimizeQuality"><path d="M1.5938 -0.3281 L0.9688 0.1094 L0.5312 0 L2.2969 -7.8125 Q2.3438 -7.9844 2.3984 -8.3047 Q2.4531 -8.625 2.4531 -8.8281 Q2.4531 -9.1094 2.2812 -9.2266 Q2.1094 -9.3438 1.6562 -9.3594 L1.7344 -9.7188 L3.4688 -9.7812 L3.8594 -9.7812 L2.6562 -4.9844 L2.75 -4.9688 Q3.4062 -5.8594 3.9922 -6.25 Q4.5781 -6.6406 5.1562 -6.6406 Q5.9062 -6.6406 6.3203 -6.0781 Q6.7344 -5.5156 6.7344 -4.4844 Q6.7344 -3.7344 6.5312 -2.9922 Q6.3281 -2.25 5.9688 -1.6484 Q5.6094 -1.0469 5.1641 -0.6641 Q4.7188 -0.2812 4.2344 -0.0859 Q3.75 0.1094 3.2031 0.1094 Q2.2969 0.1094 1.5938 -0.3281 ZM2.1875 -2.375 Q2.125 -2.0781 2.1094 -1.8594 Q2.0938 -1.6406 2.0938 -1.4531 Q2.0938 -0.9062 2.3281 -0.6719 Q2.5625 -0.4375 3.1094 -0.4375 Q3.4688 -0.4375 3.7578 -0.5703 Q4.0469 -0.7031 4.3125 -0.9688 Q4.5781 -1.2344 4.7969 -1.6094 Q5.0156 -1.9844 5.1797 -2.4688 Q5.3438 -2.9531 5.4297 -3.4688 Q5.5156 -3.9844 5.5156 -4.4219 Q5.5156 -5.1406 5.3125 -5.4922 Q5.1094 -5.8438 4.6562 -5.8438 Q4.3281 -5.8438 4.0156 -5.6328 Q3.7031 -5.4219 3.3125 -4.9453 Q2.9219 -4.4688 2.6719 -3.9609 Q2.4219 -3.4531 2.25 -2.6719 L2.1875 -2.375 Z" stroke="none"/></g><g text-rendering="optimizeLegibility" transform="translate(34.0469,15)" color-rendering="optimizeQuality" color-interpolation="linearRGB" image-rendering="optimizeQuality"><path d="M1.2188 -7.0625 L1.2188 -8.4219 L9.8594 -8.4219 L9.8594 -7.0625 L1.2188 -7.0625 ZM1.2188 -3.0156 L1.2188 -4.3594 L9.8594 -4.3594 L9.8594 -3.0156 L1.2188 -3.0156 Z" stroke="none"/></g><g text-rendering="optimizeLegibility" transform="translate(45.9062,15)" color-rendering="optimizeQuality" color-interpolation="linearRGB" image-rendering="optimizeQuality"><path d="M9.3594 -7.4219 L9.3594 -7.2812 Q9.3594 -7.2188 9.3594 -7.1406 Q10.2031 -8.3438 11.0469 -8.9219 Q11.8906 -9.5 12.7812 -9.5 Q13.7188 -9.5 14.1953 -8.9766 Q14.6719 -8.4531 14.6719 -7.4219 Q14.6719 -6.7969 14.4844 -5.9219 L13.6562 -2.4375 Q13.5 -1.7344 13.5 -1.3281 Q13.5 -1.0312 13.5938 -0.8672 Q13.6875 -0.7031 13.8984 -0.6172 Q14.1094 -0.5312 14.5781 -0.4844 L14.4844 0 L11.4219 0 L12.6406 -4.9688 Q12.7812 -5.5 12.8828 -6.0547 Q12.9844 -6.6094 12.9844 -7.0469 Q12.9844 -7.75 12.7422 -8.0469 Q12.5 -8.3438 11.9688 -8.3438 Q11.5938 -8.3438 11.1172 -8.0312 Q10.6406 -7.7188 10.125 -7.0781 Q9.6094 -6.4375 9.2812 -5.8047 Q8.9531 -5.1719 8.7656 -4.2656 L7.875 0 L6.1875 0 L7.3125 -4.9688 Q7.5156 -5.875 7.5859 -6.3047 Q7.6562 -6.7344 7.6562 -7.0469 Q7.6562 -7.75 7.4062 -8.0469 Q7.1562 -8.3438 6.625 -8.3438 Q6.2344 -8.3438 5.7656 -8.0312 Q5.2969 -7.7188 4.7656 -7.0547 Q4.2344 -6.3906 3.9219 -5.75 Q3.6094 -5.1094 3.4219 -4.2344 L2.5469 0 L0.8438 0 L2.3281 -6.6719 Q2.3906 -6.8906 2.4688 -7.3359 Q2.5469 -7.7812 2.5469 -8.0625 Q2.5469 -8.3438 2.4688 -8.4922 Q2.3906 -8.6406 2.1875 -8.7188 Q1.9844 -8.7969 1.5 -8.8125 L1.625 -9.3438 L3.8438 -9.4219 L4.3906 -9.4219 L3.75 -6.8906 L3.875 -6.8594 Q4.7656 -8.1875 5.6562 -8.8438 Q6.5469 -9.5 7.4531 -9.5 Q8.3906 -9.5 8.875 -8.9609 Q9.3594 -8.4219 9.3594 -7.4219 Z" stroke="none"/></g><g text-rendering="optimizeLegibility" transform="translate(60.5781,15)" color-rendering="optimizeQuality" color-interpolation="linearRGB" image-rendering="optimizeQuality"><path d="M5.4688 -13.1719 L5.0156 -11.2656 L3.2969 -11.2656 L3.7344 -13.1719 L5.4688 -13.1719 ZM3.0625 -2.4375 Q2.9531 -1.9375 2.9219 -1.7109 Q2.8906 -1.4844 2.8906 -1.3281 Q2.8906 -1.0312 2.9922 -0.8672 Q3.0938 -0.7031 3.2969 -0.6172 Q3.5 -0.5312 3.9688 -0.4844 L3.875 0 L0.8438 0 L2.3281 -6.5781 Q2.4531 -7.1562 2.5 -7.4922 Q2.5469 -7.8281 2.5469 -8.0469 Q2.5469 -8.3281 2.4688 -8.4844 Q2.3906 -8.6406 2.1953 -8.7188 Q2 -8.7969 1.5156 -8.8125 L1.625 -9.3438 L4 -9.4219 L4.5781 -9.4219 L3.0625 -2.4375 Z" stroke="none"/></g><g text-rendering="optimizeLegibility" transform="translate(66.0469,15)" color-rendering="optimizeQuality" color-interpolation="linearRGB" image-rendering="optimizeQuality"><path d="M9.2031 0 L6.1406 0 L7.375 -4.9688 Q7.4844 -5.4375 7.6016 -6.0156 Q7.7188 -6.5938 7.7188 -7.0469 Q7.7188 -7.75 7.4766 -8.0469 Q7.2344 -8.3438 6.7344 -8.3438 Q6.3125 -8.3438 5.8438 -8.0312 Q5.375 -7.7188 4.8594 -7.0859 Q4.3438 -6.4531 3.9844 -5.8047 Q3.625 -5.1562 3.4219 -4.2344 L2.5469 0 L0.8438 0 L2.3281 -6.6719 Q2.3906 -6.8906 2.4688 -7.3359 Q2.5469 -7.7812 2.5469 -8.0625 Q2.5469 -8.3438 2.4688 -8.4922 Q2.3906 -8.6406 2.1875 -8.7188 Q1.9844 -8.7969 1.5 -8.8125 L1.625 -9.3438 L3.8438 -9.4219 L4.3906 -9.4219 L3.7344 -6.8906 L3.8594 -6.8438 Q4.8125 -8.1875 5.7031 -8.8438 Q6.5938 -9.5 7.4844 -9.5 Q8.4219 -9.5 8.9141 -8.9766 Q9.4062 -8.4531 9.4062 -7.4219 Q9.4062 -7.0781 9.3438 -6.6562 Q9.2812 -6.2344 9.2031 -5.9219 L8.375 -2.4375 Q8.2188 -1.7344 8.2188 -1.3281 Q8.2188 -1.0312 8.3125 -0.8672 Q8.4062 -0.7031 8.6094 -0.6172 Q8.8125 -0.5312 9.2812 -0.4844 L9.2031 0 Z" stroke="none"/></g><g text-rendering="optimizeLegibility" transform="translate(75.6875,15)" color-rendering="optimizeQuality" color-interpolation="linearRGB" image-rendering="optimizeQuality"><path d="M7.2188 4.25 Q5.5625 4.25 4.5078 3.75 Q3.4531 3.25 2.8672 2.2344 Q2.2812 1.2188 2.0234 -0.4141 Q1.7656 -2.0469 1.7656 -4.8438 Q1.7656 -7.625 2.0234 -9.2656 Q2.2812 -10.9062 2.8672 -11.9453 Q3.4531 -12.9844 4.5078 -13.5 Q5.5625 -14.0156 7.2188 -14.0156 L7.2188 -13.2188 Q6.5312 -13.2188 6 -13.0938 Q5.4062 -12.9531 4.9844 -12.5625 Q4.5156 -12.1406 4.2344 -11.375 Q3.8906 -10.4688 3.7188 -8.9844 Q3.5469 -7.4062 3.5469 -4.9219 Q3.5469 -2.7188 3.6953 -1.1797 Q3.8438 0.3594 4.1875 1.3281 Q4.4531 2.1562 4.8594 2.6094 Q5.2188 3.0156 5.7188 3.2188 Q6.2969 3.4531 7.2188 3.4531 L7.2188 4.25 Z" stroke="none"/></g><g text-rendering="optimizeLegibility" transform="translate(84.9062,15)" color-rendering="optimizeQuality" color-interpolation="linearRGB" image-rendering="optimizeQuality"><path d="M6.5 -2.2656 Q5.625 -1.0312 4.7891 -0.4453 Q3.9531 0.1406 3.0938 0.1406 Q2.0156 0.1406 1.4219 -0.6641 Q0.8281 -1.4688 0.8281 -2.9375 Q0.8281 -3.875 1.0469 -4.8203 Q1.2656 -5.7656 1.6953 -6.6094 Q2.125 -7.4531 2.7344 -8.0938 Q3.3438 -8.7344 4.1406 -9.1172 Q4.9375 -9.5 5.875 -9.5 Q6.4688 -9.5 7.0156 -9.3594 Q7.5625 -9.2188 8.1562 -8.8594 L9.0469 -9.5 L9.6719 -9.3438 L7.1719 1.7656 Q7.0156 2.5 7.0156 2.875 Q7.0156 3.1719 7.1094 3.3359 Q7.2031 3.5 7.4141 3.5859 Q7.625 3.6719 8.0938 3.7188 L8.0156 4.2031 L4.9688 4.2031 L6.6406 -2.2031 L6.5 -2.2656 ZM7.2969 -5.9531 Q7.3906 -6.375 7.4141 -6.6875 Q7.4375 -7 7.4375 -7.2812 Q7.4375 -8.0312 7.1172 -8.3828 Q6.7969 -8.7344 6.0469 -8.7344 Q5.6406 -8.7344 5.2656 -8.6016 Q4.8906 -8.4688 4.5078 -8.1641 Q4.125 -7.8594 3.7812 -7.3594 Q3.4375 -6.8594 3.1562 -6.1484 Q2.875 -5.4375 2.7188 -4.6172 Q2.5625 -3.7969 2.5625 -3.0312 Q2.5625 -2.0156 2.8359 -1.5078 Q3.1094 -1 3.7656 -1 Q4.0781 -1 4.4062 -1.1406 Q4.7344 -1.2812 5.1328 -1.6484 Q5.5312 -2.0156 6.0312 -2.7188 Q6.5 -3.375 6.7656 -4.0156 Q7.0312 -4.6562 7.2031 -5.5312 L7.2969 -5.9531 Z" stroke="none"/></g><g text-rendering="optimizeLegibility" transform="translate(96.375,22.2812)" color-rendering="optimizeQuality" color-interpolation="linearRGB" image-rendering="optimizeQuality"><path d="M3.8438 -9.2188 L3.5312 -7.8906 L2.3281 -7.8906 L2.6406 -9.2188 L3.8438 -9.2188 ZM1.7969 0.1094 Q1.5781 1.1562 1.2031 1.7891 Q0.8281 2.4219 0.2188 2.7422 Q-0.3906 3.0625 -1.2188 3.0625 Q-1.5625 3.0625 -1.7969 2.9844 L-1.6406 2.3906 Q-1.5312 2.4219 -1.3984 2.4297 Q-1.2656 2.4375 -1.125 2.4375 Q-0.7969 2.4375 -0.5625 2.3438 Q-0.3281 2.25 -0.1328 2.0156 Q0.0625 1.7812 0.2266 1.375 Q0.3906 0.9688 0.5469 0.3125 L1.6406 -4.6094 Q1.7344 -4.9844 1.7734 -5.2266 Q1.8125 -5.4688 1.8125 -5.6406 Q1.8125 -5.8281 1.75 -5.9375 Q1.6875 -6.0469 1.5547 -6.1016 Q1.4219 -6.1562 1.0781 -6.1719 L1.1562 -6.5312 L2.8281 -6.5938 L3.2188 -6.5938 L1.7969 0.1094 Z" stroke="none"/></g><g text-rendering="optimizeLegibility" transform="translate(100.0469,22.2812)" color-rendering="optimizeQuality" color-interpolation="linearRGB" image-rendering="optimizeQuality"><path d="M2.1094 -1.5938 Q2.2031 -1.1094 2.2031 -0.6406 Q2.2031 -0.1719 2.0391 0.2266 Q1.875 0.625 1.5156 1.0234 Q1.1562 1.4219 0.5312 1.8906 L0.1719 1.4688 Q0.5156 1.1406 0.6719 0.875 Q0.8281 0.6094 0.8984 0.2734 Q0.9688 -0.0625 0.9688 -0.5625 Q0.9688 -1.0781 0.9219 -1.5938 L2.1094 -1.5938 Z" stroke="none"/></g><g text-rendering="optimizeLegibility" transform="translate(102.25,22.2812)" color-rendering="optimizeQuality" color-interpolation="linearRGB" image-rendering="optimizeQuality"><path d="M6.4531 0 L4.2969 0 L5.1562 -3.4688 Q5.25 -3.8125 5.3281 -4.2109 Q5.4062 -4.6094 5.4062 -4.9375 Q5.4062 -5.4219 5.2344 -5.6328 Q5.0625 -5.8438 4.7031 -5.8438 Q4.4219 -5.8438 4.0938 -5.625 Q3.7656 -5.4062 3.3984 -4.9609 Q3.0312 -4.5156 2.7812 -4.0625 Q2.5312 -3.6094 2.4062 -2.9531 L1.7812 0 L0.5938 0 L1.6406 -4.6719 Q1.6719 -4.8281 1.7266 -5.1328 Q1.7812 -5.4375 1.7812 -5.6406 Q1.7812 -5.8438 1.7266 -5.9453 Q1.6719 -6.0469 1.5312 -6.1016 Q1.3906 -6.1562 1.0469 -6.1719 L1.1406 -6.5312 L2.6875 -6.5938 L3.0781 -6.5938 L2.625 -4.8125 L2.7031 -4.7969 Q3.375 -5.7344 3.9922 -6.1875 Q4.6094 -6.6406 5.2344 -6.6406 Q5.9062 -6.6406 6.2422 -6.2734 Q6.5781 -5.9062 6.5781 -5.2031 Q6.5781 -4.9531 6.5391 -4.6641 Q6.5 -4.375 6.4375 -4.1406 L5.8594 -1.7031 Q5.75 -1.2188 5.75 -0.9375 Q5.75 -0.7188 5.8203 -0.6094 Q5.8906 -0.5 6.0312 -0.4375 Q6.1719 -0.375 6.5 -0.3281 L6.4531 0 Z" stroke="none"/></g><g text-rendering="optimizeLegibility" transform="translate(94.5781,8.7734)" color-rendering="optimizeQuality" color-interpolation="linearRGB" image-rendering="optimizeQuality"><path d="M5.7031 -6.2031 L6.3281 -6.6562 L6.7656 -6.5469 L5.7188 -1.9062 Q5.625 -1.4844 5.5938 -1.2656 Q5.5625 -1.0469 5.5625 -0.9062 Q5.5625 -0.625 5.7188 -0.5 Q5.875 -0.375 6.3125 -0.3281 L6.25 0 L4.2969 0 L4.7344 -1.7188 L4.6406 -1.75 Q3.9844 -0.7812 3.3984 -0.3359 Q2.8125 0.1094 2.1562 0.1094 Q1.4062 0.1094 0.9922 -0.4609 Q0.5781 -1.0312 0.5781 -2.0625 Q0.5781 -2.7188 0.7266 -3.375 Q0.875 -4.0312 1.1797 -4.625 Q1.4844 -5.2188 1.9062 -5.6719 Q2.3281 -6.125 2.8906 -6.3906 Q3.4531 -6.6562 4.1094 -6.6562 Q4.5312 -6.6562 4.9141 -6.5547 Q5.2969 -6.4531 5.7031 -6.2031 ZM5.0938 -4.1562 Q5.1562 -4.4375 5.1797 -4.6484 Q5.2031 -4.8594 5.2031 -5.0938 Q5.2031 -5.625 4.9766 -5.8672 Q4.75 -6.1094 4.2188 -6.1094 Q3.9375 -6.1094 3.6797 -6.0156 Q3.4219 -5.9219 3.1562 -5.7109 Q2.8906 -5.5 2.6484 -5.1484 Q2.4062 -4.7969 2.2031 -4.2969 Q2 -3.7969 1.8906 -3.2266 Q1.7812 -2.6562 1.7812 -2.125 Q1.7812 -1.4062 1.9766 -1.0547 Q2.1719 -0.7031 2.625 -0.7031 Q2.8438 -0.7031 3.0703 -0.7969 Q3.2969 -0.8906 3.5781 -1.1484 Q3.8594 -1.4062 4.2188 -1.9062 Q4.5469 -2.3594 4.7344 -2.8125 Q4.9219 -3.2656 5.0312 -3.875 L5.0938 -4.1562 Z" stroke="none"/></g><g text-rendering="optimizeLegibility" transform="translate(109.5938,15)" color-rendering="optimizeQuality" color-interpolation="linearRGB" image-rendering="optimizeQuality"><path d="M1.2344 -5.0469 L1.2344 -6.3906 L9.8281 -6.3906 L9.8281 -5.0469 L1.2344 -5.0469 Z" stroke="none"/></g><g text-rendering="optimizeLegibility" transform="translate(121.9219,15)" color-rendering="optimizeQuality" color-interpolation="linearRGB" image-rendering="optimizeQuality"><path d="M9.75 0 L-0.5 0 L-0.375 -0.6094 L7.3594 -13.4844 L8.7344 -13.4844 L9.8906 -0.6094 L9.75 0 ZM7.6406 -7.0625 Q7.4219 -10.0625 7.4219 -11.3125 L7.3125 -11.3125 L1.5625 -1.4688 L8.0312 -1.4688 L7.6406 -7.0625 Z" stroke="none"/></g><g text-rendering="optimizeLegibility" transform="translate(131.8125,15)" color-rendering="optimizeQuality" color-interpolation="linearRGB" image-rendering="optimizeQuality"><path d="M6.5 -2.2656 Q5.625 -1.0312 4.7891 -0.4453 Q3.9531 0.1406 3.0938 0.1406 Q2.0156 0.1406 1.4219 -0.6641 Q0.8281 -1.4688 0.8281 -2.9375 Q0.8281 -3.875 1.0469 -4.8203 Q1.2656 -5.7656 1.6953 -6.6094 Q2.125 -7.4531 2.7344 -8.0938 Q3.3438 -8.7344 4.1406 -9.1172 Q4.9375 -9.5 5.875 -9.5 Q6.4688 -9.5 7.0156 -9.3594 Q7.5625 -9.2188 8.1562 -8.8594 L9.0469 -9.5 L9.6719 -9.3438 L7.1719 1.7656 Q7.0156 2.5 7.0156 2.875 Q7.0156 3.1719 7.1094 3.3359 Q7.2031 3.5 7.4141 3.5859 Q7.625 3.6719 8.0938 3.7188 L8.0156 4.2031 L4.9688 4.2031 L6.6406 -2.2031 L6.5 -2.2656 ZM7.2969 -5.9531 Q7.3906 -6.375 7.4141 -6.6875 Q7.4375 -7 7.4375 -7.2812 Q7.4375 -8.0312 7.1172 -8.3828 Q6.7969 -8.7344 6.0469 -8.7344 Q5.6406 -8.7344 5.2656 -8.6016 Q4.8906 -8.4688 4.5078 -8.1641 Q4.125 -7.8594 3.7812 -7.3594 Q3.4375 -6.8594 3.1562 -6.1484 Q2.875 -5.4375 2.7188 -4.6172 Q2.5625 -3.7969 2.5625 -3.0312 Q2.5625 -2.0156 2.8359 -1.5078 Q3.1094 -1 3.7656 -1 Q4.0781 -1 4.4062 -1.1406 Q4.7344 -1.2812 5.1328 -1.6484 Q5.5312 -2.0156 6.0312 -2.7188 Q6.5 -3.375 6.7656 -4.0156 Q7.0312 -4.6562 7.2031 -5.5312 L7.2969 -5.9531 Z" stroke="none"/></g><g text-rendering="optimizeLegibility" transform="translate(141.4844,22.5234)" color-rendering="optimizeQuality" color-interpolation="linearRGB" image-rendering="optimizeQuality"><path d="M6.4531 0 L4.2969 0 L5.1562 -3.4688 Q5.25 -3.8125 5.3281 -4.2109 Q5.4062 -4.6094 5.4062 -4.9375 Q5.4062 -5.4219 5.2344 -5.6328 Q5.0625 -5.8438 4.7031 -5.8438 Q4.4219 -5.8438 4.0938 -5.625 Q3.7656 -5.4062 3.3984 -4.9609 Q3.0312 -4.5156 2.7812 -4.0625 Q2.5312 -3.6094 2.4062 -2.9531 L1.7812 0 L0.5938 0 L1.6406 -4.6719 Q1.6719 -4.8281 1.7266 -5.1328 Q1.7812 -5.4375 1.7812 -5.6406 Q1.7812 -5.8438 1.7266 -5.9453 Q1.6719 -6.0469 1.5312 -6.1016 Q1.3906 -6.1562 1.0469 -6.1719 L1.1406 -6.5312 L2.6875 -6.5938 L3.0781 -6.5938 L2.625 -4.8125 L2.7031 -4.7969 Q3.375 -5.7344 3.9922 -6.1875 Q4.6094 -6.6406 5.2344 -6.6406 Q5.9062 -6.6406 6.2422 -6.2734 Q6.5781 -5.9062 6.5781 -5.2031 Q6.5781 -4.9531 6.5391 -4.6641 Q6.5 -4.375 6.4375 -4.1406 L5.8594 -1.7031 Q5.75 -1.2188 5.75 -0.9375 Q5.75 -0.7188 5.8203 -0.6094 Q5.8906 -0.5 6.0312 -0.4375 Q6.1719 -0.375 6.5 -0.3281 L6.4531 0 Z" stroke="none"/></g><g text-rendering="optimizeLegibility" transform="translate(149.6406,15)" color-rendering="optimizeQuality" color-interpolation="linearRGB" image-rendering="optimizeQuality"><path d="M0.4219 -14.0156 Q2.0781 -14.0156 3.1328 -13.5156 Q4.1875 -13.0156 4.7734 -12 Q5.3594 -10.9844 5.6172 -9.3516 Q5.875 -7.7188 5.875 -4.9219 Q5.875 -2.1562 5.6172 -0.5078 Q5.3594 1.1406 4.7734 2.1797 Q4.1875 3.2188 3.1328 3.7344 Q2.0781 4.25 0.4219 4.25 L0.4219 3.4531 Q1.1094 3.4531 1.625 3.3281 Q2.2344 3.1875 2.6406 2.7969 Q3.1094 2.375 3.4062 1.6094 Q3.75 0.7031 3.9219 -0.7812 Q4.0938 -2.3594 4.0938 -4.8438 Q4.0938 -7.0469 3.9453 -8.5859 Q3.7969 -10.125 3.4531 -11.0938 Q3.1875 -11.9219 2.7812 -12.375 Q2.4062 -12.7812 1.9219 -12.9844 Q1.3438 -13.2188 0.4219 -13.2188 L0.4219 -14.0156 Z" stroke="none"/></g></g></svg>