<?xml version="1.0" encoding="UTF-8" standalone="no"?><svg xmlns="http://www.w3.org/2000/svg" xmlns:xlink="http://www.w3.org/1999/xlink" stroke-dasharray="none" shape-rendering="auto" font-family="'Dialog'" width="231.812600" text-rendering="auto" fill-opacity="1" contentScriptType="text/ecmascript" color-interpolation="auto" color-rendering="auto" preserveAspectRatio="xMidYMid meet" font-size="12" fill="black" stroke="black" image-rendering="auto" stroke-miterlimit="10" zoomAndPan="magnify" version="1.0" stroke-linecap="square" stroke-linejoin="miter" contentStyleType="text/css" font-style="normal" height="48" stroke-width="1" stroke-dashoffset="0" font-weight="normal" stroke-opacity="1" y="-24.000000"><!--Converted from MathML using JEuclid--><defs id="genericDefs"/><g><g text-rendering="optimizeLegibility" transform="translate(0,24)" color-rendering="optimizeQuality" color-interpolation="linearRGB" image-rendering="optimizeQuality"><path d="M10.7812 -8.0156 L7.9062 -8.0156 L7.875 -7.9375 Q9.2188 -6.9844 9.2188 -5.1875 Q9.2188 -3.1719 7.8438 -1.5078 Q6.4688 0.1562 4.0625 0.1562 Q2.5781 0.1562 1.7031 -0.7891 Q0.8281 -1.7344 0.8281 -3.3281 Q0.8281 -4.9375 1.4609 -6.2031 Q2.0938 -7.4688 3.1172 -8.1953 Q4.1406 -8.9219 5.2578 -9.1328 Q6.375 -9.3438 8.3281 -9.3438 L11.0469 -9.3438 L10.7812 -8.0156 ZM6.6875 -7.9844 Q5.4375 -7.9844 4.625 -7.5 Q3.8125 -7.0156 3.1641 -5.8516 Q2.5156 -4.6875 2.5156 -2.875 Q2.5156 -1.7969 3.0156 -1.2031 Q3.5156 -0.6094 4.2656 -0.6094 Q5.6094 -0.6094 6.5469 -2.1328 Q7.4844 -3.6562 7.4844 -5.5156 Q7.4844 -6.9688 6.6875 -7.9844 Z" stroke="none"/></g><g text-rendering="optimizeLegibility" transform="translate(11.0469,27.2344)" color-rendering="optimizeQuality" color-interpolation="linearRGB" image-rendering="optimizeQuality"><path d="M3.8281 -9.2188 L3.5156 -7.8906 L2.2969 -7.8906 L2.625 -9.2188 L3.8281 -9.2188 ZM2.1406 -1.7031 Q2.0625 -1.3594 2.0469 -1.2031 Q2.0312 -1.0469 2.0312 -0.9375 Q2.0312 -0.7188 2.0938 -0.6094 Q2.1562 -0.5 2.3047 -0.4375 Q2.4531 -0.375 2.7812 -0.3281 L2.7188 0 L0.5938 0 L1.625 -4.6094 Q1.7188 -5 1.75 -5.2344 Q1.7812 -5.4688 1.7812 -5.6406 Q1.7812 -5.8281 1.7266 -5.9375 Q1.6719 -6.0469 1.5312 -6.1016 Q1.3906 -6.1562 1.0625 -6.1719 L1.1406 -6.5312 L2.7969 -6.5938 L3.2031 -6.5938 L2.1406 -1.7031 Z" stroke="none"/></g><g text-rendering="optimizeLegibility" transform="translate(16.6719,27.2344)" color-rendering="optimizeQuality" color-interpolation="linearRGB" image-rendering="optimizeQuality"><path d="M3.8438 -9.2188 L3.5312 -7.8906 L2.3281 -7.8906 L2.6406 -9.2188 L3.8438 -9.2188 ZM1.7969 0.1094 Q1.5781 1.1562 1.2031 1.7891 Q0.8281 2.4219 0.2188 2.7422 Q-0.3906 3.0625 -1.2188 3.0625 Q-1.5625 3.0625 -1.7969 2.9844 L-1.6406 2.3906 Q-1.5312 2.4219 -1.3984 2.4297 Q-1.2656 2.4375 -1.125 2.4375 Q-0.7969 2.4375 -0.5625 2.3438 Q-0.3281 2.25 -0.1328 2.0156 Q0.0625 1.7812 0.2266 1.375 Q0.3906 0.9688 0.5469 0.3125 L1.6406 -4.6094 Q1.7344 -4.9844 1.7734 -5.2266 Q1.8125 -5.4688 1.8125 -5.6406 Q1.8125 -5.8281 1.75 -5.9375 Q1.6875 -6.0469 1.5547 -6.1016 Q1.4219 -6.1562 1.0781 -6.1719 L1.1562 -6.5312 L2.8281 -6.5938 L3.2188 -6.5938 L1.7969 0.1094 Z" stroke="none"/></g><g text-rendering="optimizeLegibility" transform="translate(21.2969,24)" color-rendering="optimizeQuality" color-interpolation="linearRGB" image-rendering="optimizeQuality"><path d="M1.2188 -7.0625 L1.2188 -8.4219 L9.8594 -8.4219 L9.8594 -7.0625 L1.2188 -7.0625 ZM1.2188 -3.0156 L1.2188 -4.3594 L9.8594 -4.3594 L9.8594 -3.0156 L1.2188 -3.0156 Z" stroke="none"/></g><g text-rendering="optimizeLegibility" stroke-width="1.6667" color-interpolation="linearRGB" color-rendering="optimizeQuality" image-rendering="optimizeQuality"><line y2="16.78" fill="none" x1="34.834" x2="51.4122" y1="16.78"/><path d="M2.3438 -0.7031 L1.2344 4.2188 L-0.3594 4.2188 L1.6094 -4.625 Q2.6875 -9.5 6.625 -9.5 Q8.0625 -9.5 8.8828 -8.6641 Q9.7031 -7.8281 9.7031 -6.2969 Q9.7031 -4.0312 8.2344 -1.9375 Q6.7656 0.1562 4.4062 0.1562 Q3.2188 0.1562 2.3438 -0.7031 ZM3.0781 -4.0781 L2.6719 -2.25 Q2.6406 -2.1094 2.6406 -1.9688 Q2.6406 -1.4688 3.2109 -1.0391 Q3.7812 -0.6094 4.4844 -0.6094 Q5.875 -0.6094 6.9297 -2.4766 Q7.9844 -4.3438 7.9844 -6.5312 Q7.9844 -8.7188 6.3125 -8.7188 Q4.0781 -8.7188 3.0781 -4.0781 Z" stroke-width="1" transform="translate(38.4512,10.0501)" stroke="none"/></g><g text-rendering="optimizeLegibility" transform="translate(35.1934,28.7911)" color-rendering="optimizeQuality" color-interpolation="linearRGB" image-rendering="optimizeQuality"><path d="M2.3438 -0.7031 L1.2344 4.2188 L-0.3594 4.2188 L1.6094 -4.625 Q2.6875 -9.5 6.625 -9.5 Q8.0625 -9.5 8.8828 -8.6641 Q9.7031 -7.8281 9.7031 -6.2969 Q9.7031 -4.0312 8.2344 -1.9375 Q6.7656 0.1562 4.4062 0.1562 Q3.2188 0.1562 2.3438 -0.7031 ZM3.0781 -4.0781 L2.6719 -2.25 Q2.6406 -2.1094 2.6406 -1.9688 Q2.6406 -1.4688 3.2109 -1.0391 Q3.7812 -0.6094 4.4844 -0.6094 Q5.875 -0.6094 6.9297 -2.4766 Q7.9844 -4.3438 7.9844 -6.5312 Q7.9844 -8.7188 6.3125 -8.7188 Q4.0781 -8.7188 3.0781 -4.0781 Z" stroke="none"/></g><g text-rendering="optimizeLegibility" transform="translate(44.8965,36.2755)" color-rendering="optimizeQuality" color-interpolation="linearRGB" image-rendering="optimizeQuality"><path d="M2.7969 0.1094 Q1.7344 0.1094 1.1484 -0.4844 Q0.5625 -1.0781 0.5625 -2.1875 Q0.5625 -2.5938 0.6719 -3.1562 Q0.7969 -3.875 1.0469 -4.4219 Q1.3438 -5.1094 1.8281 -5.6172 Q2.3125 -6.125 2.9375 -6.3828 Q3.5625 -6.6406 4.2812 -6.6406 Q5.0625 -6.6406 5.5703 -6.3438 Q6.0781 -6.0469 6.2969 -5.5312 Q6.5156 -5.0156 6.5156 -4.3281 Q6.5156 -3.7188 6.3438 -3.0312 Q6.1094 -2.0312 5.6328 -1.3203 Q5.1562 -0.6094 4.4453 -0.25 Q3.7344 0.1094 2.7969 0.1094 ZM1.7656 -1.8906 Q1.7656 -1.1406 2.0781 -0.7812 Q2.3906 -0.4219 3.0156 -0.4219 Q3.6875 -0.4219 4.2031 -1.0234 Q4.7188 -1.625 5.0234 -2.7109 Q5.3281 -3.7969 5.3281 -4.6094 Q5.3281 -5.3594 5.0391 -5.7266 Q4.75 -6.0938 4.1406 -6.0938 Q3.4375 -6.0938 2.9062 -5.5 Q2.375 -4.9062 2.0703 -3.7969 Q1.7656 -2.6875 1.7656 -1.8906 Z" stroke="none"/></g><g text-rendering="optimizeLegibility" transform="translate(57.3816,24)" color-rendering="optimizeQuality" color-interpolation="linearRGB" image-rendering="optimizeQuality"><path d="M2.4844 0.1719 Q2.1562 1.7344 1.5703 2.6484 Q0.9844 3.5625 0.1562 3.9609 Q-0.6719 4.3594 -1.8594 4.3594 Q-2.2812 4.3594 -2.625 4.2656 L-2.4062 3.4062 Q-2.1719 3.4844 -1.7188 3.4844 Q-1.2031 3.4844 -0.875 3.3516 Q-0.5469 3.2188 -0.2656 2.9062 Q0.0156 2.5938 0.2656 2.0078 Q0.5156 1.4219 0.7344 0.4531 L2.7188 -8.3438 L1.5312 -8.3438 L1.6562 -8.8438 Q2.125 -8.8906 2.3203 -8.9766 Q2.5156 -9.0625 2.6406 -9.2031 Q2.7656 -9.3438 2.8594 -9.6016 Q2.9531 -9.8594 3.1406 -10.5 Q3.6562 -12.25 4.7422 -13.1406 Q5.8281 -14.0312 7.4844 -14.0312 Q8.4531 -14.0312 9.1406 -13.875 L8.7656 -12.2031 L7.9062 -12.2031 Q7.7656 -12.7656 7.5469 -13.0078 Q7.3281 -13.25 6.8906 -13.25 Q6.3438 -13.25 5.9531 -12.9453 Q5.5625 -12.6406 5.2812 -12.0312 Q5 -11.4219 4.7656 -10.4062 L4.5156 -9.3438 L6.7656 -9.3438 L6.5469 -8.3438 L4.2969 -8.3438 L2.4844 0.1719 Z" stroke="none"/></g><g text-rendering="optimizeLegibility" transform="translate(66.5222,33.25)" color-rendering="optimizeQuality" color-interpolation="linearRGB" image-rendering="optimizeQuality"><path d="M3.8281 -9.2188 L3.5156 -7.8906 L2.2969 -7.8906 L2.625 -9.2188 L3.8281 -9.2188 ZM2.1406 -1.7031 Q2.0625 -1.3594 2.0469 -1.2031 Q2.0312 -1.0469 2.0312 -0.9375 Q2.0312 -0.7188 2.0938 -0.6094 Q2.1562 -0.5 2.3047 -0.4375 Q2.4531 -0.375 2.7812 -0.3281 L2.7188 0 L0.5938 0 L1.625 -4.6094 Q1.7188 -5 1.75 -5.2344 Q1.7812 -5.4688 1.7812 -5.6406 Q1.7812 -5.8281 1.7266 -5.9375 Q1.6719 -6.0469 1.5312 -6.1016 Q1.3906 -6.1562 1.0625 -6.1719 L1.1406 -6.5312 L2.7969 -6.5938 L3.2031 -6.5938 L2.1406 -1.7031 Z" stroke="none"/></g><g text-rendering="optimizeLegibility" transform="translate(70.3503,33.25)" color-rendering="optimizeQuality" color-interpolation="linearRGB" image-rendering="optimizeQuality"><path d="M2.5156 -3.8125 L2.7344 -3.8125 Q2.9531 -3.8125 3.1953 -3.8906 Q3.4375 -3.9688 3.7188 -4.1484 Q4 -4.3281 4.4688 -4.7031 Q4.8281 -4.9844 5 -5.1875 Q5.1719 -5.3906 5.2344 -5.5391 Q5.2969 -5.6875 5.2969 -5.8281 Q5.2969 -6.1562 4.8281 -6.2031 L4.9062 -6.5312 L7.1094 -6.5312 L7.25 -6.2031 Q6.6719 -5.6875 6.0469 -5.2031 L4.3125 -3.8438 L5.3438 -1.2656 Q5.4688 -0.9062 5.6172 -0.7188 Q5.7656 -0.5312 5.9531 -0.4453 Q6.1406 -0.3594 6.4375 -0.3281 L6.3594 0 L4.5312 0 L3.5312 -2.8125 Q3.4375 -3.0781 3.3672 -3.1719 Q3.2969 -3.2656 3.2109 -3.3047 Q3.125 -3.3438 2.9219 -3.3438 L2.4219 -3.3438 L1.7031 0 L0.5312 0 L2.2812 -7.8125 Q2.3594 -8.1562 2.3906 -8.3125 Q2.4219 -8.4688 2.4375 -8.5938 Q2.4531 -8.7188 2.4531 -8.8281 Q2.4531 -9.1094 2.2734 -9.2266 Q2.0938 -9.3438 1.6406 -9.3594 L1.7344 -9.7188 L3.4531 -9.7812 L3.8594 -9.7812 L2.5156 -3.8125 Z" stroke="none"/></g><g text-rendering="optimizeLegibility" transform="translate(77.6003,24)" color-rendering="optimizeQuality" color-interpolation="linearRGB" image-rendering="optimizeQuality"><path d="M1.5469 -3.0312 Q1.5469 -1.8594 2.0938 -1.2734 Q2.6406 -0.6875 3.8125 -0.6875 Q4.7031 -0.6875 5.3516 -1.0234 Q6 -1.3594 6.3281 -1.9688 Q6.6562 -2.5781 6.6562 -3.4219 Q6.6562 -4.0156 6.4453 -4.4688 Q6.2344 -4.9219 5.8125 -5.3359 Q5.3906 -5.75 4.5938 -6.2969 Q3.875 -6.7812 3.3906 -7.25 Q2.9062 -7.7188 2.625 -8.3047 Q2.3438 -8.8906 2.3438 -9.625 Q2.3438 -10.7656 2.8984 -11.6484 Q3.4531 -12.5312 4.4688 -13.0078 Q5.4844 -13.4844 6.8125 -13.4844 Q7.7188 -13.4844 8.4844 -13.3672 Q9.25 -13.25 10.1719 -12.9531 L9.625 -10.4375 L8.6875 -10.4375 Q8.6562 -11.2656 8.4375 -11.7422 Q8.2188 -12.2188 7.8203 -12.4219 Q7.4219 -12.625 6.7656 -12.625 Q5.9531 -12.625 5.3359 -12.2969 Q4.7188 -11.9688 4.3984 -11.3984 Q4.0781 -10.8281 4.0781 -10.125 Q4.0781 -9.6094 4.25 -9.2109 Q4.4219 -8.8125 4.8125 -8.4219 Q5.2031 -8.0312 5.9375 -7.5312 Q6.8906 -6.8594 7.3984 -6.3438 Q7.9062 -5.8281 8.1406 -5.2422 Q8.375 -4.6562 8.375 -3.875 Q8.375 -2.7031 7.8047 -1.7734 Q7.2344 -0.8438 6.1953 -0.3438 Q5.1562 0.1562 3.8281 0.1562 Q2.9219 0.1562 1.8984 0.0156 Q0.875 -0.125 0.0312 -0.3594 L0.6094 -3.0312 L1.5469 -3.0312 Z" stroke="none"/></g><g text-rendering="optimizeLegibility" transform="translate(87.7722,29.0469)" color-rendering="optimizeQuality" color-interpolation="linearRGB" image-rendering="optimizeQuality"><path d="M2.5156 -3.8125 L2.7344 -3.8125 Q2.9531 -3.8125 3.1953 -3.8906 Q3.4375 -3.9688 3.7188 -4.1484 Q4 -4.3281 4.4688 -4.7031 Q4.8281 -4.9844 5 -5.1875 Q5.1719 -5.3906 5.2344 -5.5391 Q5.2969 -5.6875 5.2969 -5.8281 Q5.2969 -6.1562 4.8281 -6.2031 L4.9062 -6.5312 L7.1094 -6.5312 L7.25 -6.2031 Q6.6719 -5.6875 6.0469 -5.2031 L4.3125 -3.8438 L5.3438 -1.2656 Q5.4688 -0.9062 5.6172 -0.7188 Q5.7656 -0.5312 5.9531 -0.4453 Q6.1406 -0.3594 6.4375 -0.3281 L6.3594 0 L4.5312 0 L3.5312 -2.8125 Q3.4375 -3.0781 3.3672 -3.1719 Q3.2969 -3.2656 3.2109 -3.3047 Q3.125 -3.3438 2.9219 -3.3438 L2.4219 -3.3438 L1.7031 0 L0.5312 0 L2.2812 -7.8125 Q2.3594 -8.1562 2.3906 -8.3125 Q2.4219 -8.4688 2.4375 -8.5938 Q2.4531 -8.7188 2.4531 -8.8281 Q2.4531 -9.1094 2.2734 -9.2266 Q2.0938 -9.3438 1.6406 -9.3594 L1.7344 -9.7188 L3.4531 -9.7812 L3.8594 -9.7812 L2.5156 -3.8125 Z" stroke="none"/></g><g text-rendering="optimizeLegibility" transform="translate(95.0222,29.0469)" color-rendering="optimizeQuality" color-interpolation="linearRGB" image-rendering="optimizeQuality"><path d="M3.4531 -9.7812 L3.8594 -9.7812 L2.0781 -1.7031 Q2 -1.375 1.9844 -1.2109 Q1.9688 -1.0469 1.9688 -0.9375 Q1.9688 -0.7188 2.0312 -0.6094 Q2.0938 -0.5 2.2422 -0.4375 Q2.3906 -0.375 2.7188 -0.3281 L2.6562 0 L0.5312 0 L2.2969 -7.8438 Q2.3594 -8.1562 2.3828 -8.3047 Q2.4062 -8.4531 2.4219 -8.5859 Q2.4375 -8.7188 2.4375 -8.8281 Q2.4375 -9.0312 2.3672 -9.1406 Q2.2969 -9.25 2.1562 -9.2969 Q2.0156 -9.3438 1.6406 -9.3594 L1.7344 -9.7188 L3.4531 -9.7812 Z" stroke="none"/></g><g text-rendering="optimizeLegibility" transform="translate(101.5066,24)" color-rendering="optimizeQuality" color-interpolation="linearRGB" image-rendering="optimizeQuality"><path d="M2.4844 0.1719 Q2.1562 1.7344 1.5703 2.6484 Q0.9844 3.5625 0.1562 3.9609 Q-0.6719 4.3594 -1.8594 4.3594 Q-2.2812 4.3594 -2.625 4.2656 L-2.4062 3.4062 Q-2.1719 3.4844 -1.7188 3.4844 Q-1.2031 3.4844 -0.875 3.3516 Q-0.5469 3.2188 -0.2656 2.9062 Q0.0156 2.5938 0.2656 2.0078 Q0.5156 1.4219 0.7344 0.4531 L2.7188 -8.3438 L1.5312 -8.3438 L1.6562 -8.8438 Q2.125 -8.8906 2.3203 -8.9766 Q2.5156 -9.0625 2.6406 -9.2031 Q2.7656 -9.3438 2.8594 -9.6016 Q2.9531 -9.8594 3.1406 -10.5 Q3.6562 -12.25 4.7422 -13.1406 Q5.8281 -14.0312 7.4844 -14.0312 Q8.4531 -14.0312 9.1406 -13.875 L8.7656 -12.2031 L7.9062 -12.2031 Q7.7656 -12.7656 7.5469 -13.0078 Q7.3281 -13.25 6.8906 -13.25 Q6.3438 -13.25 5.9531 -12.9453 Q5.5625 -12.6406 5.2812 -12.0312 Q5 -11.4219 4.7656 -10.4062 L4.5156 -9.3438 L6.7656 -9.3438 L6.5469 -8.3438 L4.2969 -8.3438 L2.4844 0.1719 Z" stroke="none"/></g><g text-rendering="optimizeLegibility" transform="translate(112.4441,31.7188)" color-rendering="optimizeQuality" color-interpolation="linearRGB" image-rendering="optimizeQuality"><path d="M3.8438 -9.2188 L3.5312 -7.8906 L2.3281 -7.8906 L2.6406 -9.2188 L3.8438 -9.2188 ZM1.7969 0.1094 Q1.5781 1.1562 1.2031 1.7891 Q0.8281 2.4219 0.2188 2.7422 Q-0.3906 3.0625 -1.2188 3.0625 Q-1.5625 3.0625 -1.7969 2.9844 L-1.6406 2.3906 Q-1.5312 2.4219 -1.3984 2.4297 Q-1.2656 2.4375 -1.125 2.4375 Q-0.7969 2.4375 -0.5625 2.3438 Q-0.3281 2.25 -0.1328 2.0156 Q0.0625 1.7812 0.2266 1.375 Q0.3906 0.9688 0.5469 0.3125 L1.6406 -4.6094 Q1.7344 -4.9844 1.7734 -5.2266 Q1.8125 -5.4688 1.8125 -5.6406 Q1.8125 -5.8281 1.75 -5.9375 Q1.6875 -6.0469 1.5547 -6.1016 Q1.4219 -6.1562 1.0781 -6.1719 L1.1562 -6.5312 L2.8281 -6.5938 L3.2188 -6.5938 L1.7969 0.1094 Z" stroke="none"/></g><g text-rendering="optimizeLegibility" transform="translate(116.2878,31.7188)" color-rendering="optimizeQuality" color-interpolation="linearRGB" image-rendering="optimizeQuality"><path d="M3.4531 -9.7812 L3.8594 -9.7812 L2.0781 -1.7031 Q2 -1.375 1.9844 -1.2109 Q1.9688 -1.0469 1.9688 -0.9375 Q1.9688 -0.7188 2.0312 -0.6094 Q2.0938 -0.5 2.2422 -0.4375 Q2.3906 -0.375 2.7188 -0.3281 L2.6562 0 L0.5312 0 L2.2969 -7.8438 Q2.3594 -8.1562 2.3828 -8.3047 Q2.4062 -8.4531 2.4219 -8.5859 Q2.4375 -8.7188 2.4375 -8.8281 Q2.4375 -9.0312 2.3672 -9.1406 Q2.2969 -9.25 2.1562 -9.2969 Q2.0156 -9.3438 1.6406 -9.3594 L1.7344 -9.7188 L3.4531 -9.7812 Z" stroke="none"/></g><g text-rendering="optimizeLegibility" transform="translate(120.9285,24)" color-rendering="optimizeQuality" color-interpolation="linearRGB" image-rendering="optimizeQuality"><path d="M1.2188 -7.0625 L1.2188 -8.4219 L9.8594 -8.4219 L9.8594 -7.0625 L1.2188 -7.0625 ZM1.2188 -3.0156 L1.2188 -4.3594 L9.8594 -4.3594 L9.8594 -3.0156 L1.2188 -3.0156 Z" stroke="none"/></g><g text-rendering="optimizeLegibility" stroke-width="1.6667" color-interpolation="linearRGB" color-rendering="optimizeQuality" image-rendering="optimizeQuality"><line y2="16.78" fill="none" x1="134.4656" x2="161.6878" y1="16.78"/><path d="M6.7812 -2.5469 Q6.7812 -1.9844 6.8516 -1.6953 Q6.9219 -1.4062 7.0781 -1.2266 Q7.2344 -1.0469 7.5391 -0.9453 Q7.8438 -0.8438 8.3047 -0.7891 Q8.7656 -0.7344 9.5156 -0.7188 L9.5156 0 L2.2969 0 L2.2969 -0.7188 Q3.375 -0.7656 3.8438 -0.8438 Q4.3125 -0.9219 4.5547 -1.0938 Q4.7969 -1.2656 4.9062 -1.5625 Q5.0156 -1.8594 5.0156 -2.5469 L5.0156 -10.4688 Q5.0156 -10.8594 4.8828 -11.0391 Q4.75 -11.2188 4.4844 -11.2188 Q4.1719 -11.2188 3.5938 -10.8984 Q3.0156 -10.5781 2.1719 -10.0156 L1.7344 -10.7656 L6.3125 -13.4844 L6.8438 -13.4844 Q6.7812 -12.5469 6.7812 -10.8906 L6.7812 -2.5469 Z" stroke-width="1" transform="translate(143.3189,14.2689)" stroke="none"/></g><g text-rendering="optimizeLegibility" stroke-width="1.6667" color-interpolation="linearRGB" color-rendering="optimizeQuality" image-rendering="optimizeQuality"><line y2="46.9578" fill="none" x1="136.1323" x2="140.3267" y1="34.7378"/><line y2="20.1244" fill="none" x1="140.3267" x2="144.5212" y1="46.9578"/><line y2="20.1244" fill="none" x1="144.5212" x2="160.0212" y1="20.1244"/><path d="M3.6719 -2.8438 Q3.5469 -2.2656 3.5078 -1.9297 Q3.4688 -1.5938 3.4688 -1.3125 Q3.4688 -0.875 3.6875 -0.6953 Q3.9062 -0.5156 4.4219 -0.4844 L4.3125 0 L0.4062 0 L0.5156 -0.4844 Q0.8906 -0.5312 1.0781 -0.6641 Q1.2656 -0.7969 1.3906 -1.0312 Q1.5156 -1.2656 1.625 -1.6016 Q1.7344 -1.9375 1.9375 -2.9062 L3.6094 -10.4375 Q3.7031 -10.875 3.7578 -11.2891 Q3.8125 -11.7031 3.8125 -12 Q3.8125 -12.4688 3.5781 -12.6484 Q3.3438 -12.8281 2.8594 -12.8594 L2.9688 -13.3281 L6.875 -13.3281 L6.7656 -12.8594 Q6.3906 -12.7812 6.2344 -12.6797 Q6.0781 -12.5781 5.9453 -12.3828 Q5.8125 -12.1875 5.6797 -11.7734 Q5.5469 -11.3594 5.3438 -10.4219 L3.6719 -2.8438 Z" stroke-width="1" transform="translate(144.5212,41.9578)" stroke="none"/></g><g text-rendering="optimizeLegibility" transform="translate(151.3962,46.6218)" color-rendering="optimizeQuality" color-interpolation="linearRGB" image-rendering="optimizeQuality"><path d="M1.0938 -7.3906 L1.0938 -8.7031 Q1.875 -9.0781 2.5703 -9.2578 Q3.2656 -9.4375 3.9062 -9.4375 Q4.6719 -9.4375 5.2578 -9.2031 Q5.8438 -8.9688 6.1484 -8.5156 Q6.4531 -8.0625 6.4531 -7.4375 Q6.4531 -6.8594 6.2188 -6.4219 Q5.9844 -5.9844 5.5625 -5.6562 Q5.1406 -5.3281 4.4844 -5.0156 L4.4844 -4.9531 Q4.8906 -4.875 5.2812 -4.6953 Q5.6719 -4.5156 5.9688 -4.2266 Q6.2656 -3.9375 6.4453 -3.5391 Q6.625 -3.1406 6.625 -2.625 Q6.625 -1.8281 6.2812 -1.2188 Q5.9375 -0.6094 5.2266 -0.25 Q4.5156 0.1094 3.5 0.1094 Q2.9062 0.1094 2.2266 -0.0234 Q1.5469 -0.1562 0.9844 -0.375 L0.9844 -1.8281 L1.8125 -1.8281 Q2.0469 -1.1094 2.4375 -0.7891 Q2.8281 -0.4688 3.5 -0.4688 Q4.3906 -0.4688 4.8516 -0.9531 Q5.3125 -1.4375 5.3125 -2.3906 Q5.3125 -3.3906 4.7109 -3.9141 Q4.1094 -4.4375 2.9375 -4.4375 L2.3281 -4.4375 L2.3281 -5.0469 Q3.25 -5.0938 3.8828 -5.3984 Q4.5156 -5.7031 4.8203 -6.1719 Q5.125 -6.6406 5.125 -7.2344 Q5.125 -7.9844 4.7266 -8.3984 Q4.3281 -8.8125 3.5469 -8.8125 Q2.9062 -8.8125 2.5 -8.4609 Q2.0938 -8.1094 1.9062 -7.3906 L1.0938 -7.3906 Z" stroke="none"/></g><g text-rendering="optimizeLegibility" transform="translate(167.6573,24)" color-rendering="optimizeQuality" color-interpolation="linearRGB" image-rendering="optimizeQuality"><path d="M2.4844 0.1719 Q2.1562 1.7344 1.5703 2.6484 Q0.9844 3.5625 0.1562 3.9609 Q-0.6719 4.3594 -1.8594 4.3594 Q-2.2812 4.3594 -2.625 4.2656 L-2.4062 3.4062 Q-2.1719 3.4844 -1.7188 3.4844 Q-1.2031 3.4844 -0.875 3.3516 Q-0.5469 3.2188 -0.2656 2.9062 Q0.0156 2.5938 0.2656 2.0078 Q0.5156 1.4219 0.7344 0.4531 L2.7188 -8.3438 L1.5312 -8.3438 L1.6562 -8.8438 Q2.125 -8.8906 2.3203 -8.9766 Q2.5156 -9.0625 2.6406 -9.2031 Q2.7656 -9.3438 2.8594 -9.6016 Q2.9531 -9.8594 3.1406 -10.5 Q3.6562 -12.25 4.7422 -13.1406 Q5.8281 -14.0312 7.4844 -14.0312 Q8.4531 -14.0312 9.1406 -13.875 L8.7656 -12.2031 L7.9062 -12.2031 Q7.7656 -12.7656 7.5469 -13.0078 Q7.3281 -13.25 6.8906 -13.25 Q6.3438 -13.25 5.9531 -12.9453 Q5.5625 -12.6406 5.2812 -12.0312 Q5 -11.4219 4.7656 -10.4062 L4.5156 -9.3438 L6.7656 -9.3438 L6.5469 -8.3438 L4.2969 -8.3438 L2.4844 0.1719 Z" stroke="none"/></g><g text-rendering="optimizeLegibility" transform="translate(176.7979,33.25)" color-rendering="optimizeQuality" color-interpolation="linearRGB" image-rendering="optimizeQuality"><path d="M3.8281 -9.2188 L3.5156 -7.8906 L2.2969 -7.8906 L2.625 -9.2188 L3.8281 -9.2188 ZM2.1406 -1.7031 Q2.0625 -1.3594 2.0469 -1.2031 Q2.0312 -1.0469 2.0312 -0.9375 Q2.0312 -0.7188 2.0938 -0.6094 Q2.1562 -0.5 2.3047 -0.4375 Q2.4531 -0.375 2.7812 -0.3281 L2.7188 0 L0.5938 0 L1.625 -4.6094 Q1.7188 -5 1.75 -5.2344 Q1.7812 -5.4688 1.7812 -5.6406 Q1.7812 -5.8281 1.7266 -5.9375 Q1.6719 -6.0469 1.5312 -6.1016 Q1.3906 -6.1562 1.0625 -6.1719 L1.1406 -6.5312 L2.7969 -6.5938 L3.2031 -6.5938 L2.1406 -1.7031 Z" stroke="none"/></g><g text-rendering="optimizeLegibility" transform="translate(180.626,33.25)" color-rendering="optimizeQuality" color-interpolation="linearRGB" image-rendering="optimizeQuality"><path d="M2.5156 -3.8125 L2.7344 -3.8125 Q2.9531 -3.8125 3.1953 -3.8906 Q3.4375 -3.9688 3.7188 -4.1484 Q4 -4.3281 4.4688 -4.7031 Q4.8281 -4.9844 5 -5.1875 Q5.1719 -5.3906 5.2344 -5.5391 Q5.2969 -5.6875 5.2969 -5.8281 Q5.2969 -6.1562 4.8281 -6.2031 L4.9062 -6.5312 L7.1094 -6.5312 L7.25 -6.2031 Q6.6719 -5.6875 6.0469 -5.2031 L4.3125 -3.8438 L5.3438 -1.2656 Q5.4688 -0.9062 5.6172 -0.7188 Q5.7656 -0.5312 5.9531 -0.4453 Q6.1406 -0.3594 6.4375 -0.3281 L6.3594 0 L4.5312 0 L3.5312 -2.8125 Q3.4375 -3.0781 3.3672 -3.1719 Q3.2969 -3.2656 3.2109 -3.3047 Q3.125 -3.3438 2.9219 -3.3438 L2.4219 -3.3438 L1.7031 0 L0.5312 0 L2.2812 -7.8125 Q2.3594 -8.1562 2.3906 -8.3125 Q2.4219 -8.4688 2.4375 -8.5938 Q2.4531 -8.7188 2.4531 -8.8281 Q2.4531 -9.1094 2.2734 -9.2266 Q2.0938 -9.3438 1.6406 -9.3594 L1.7344 -9.7188 L3.4531 -9.7812 L3.8594 -9.7812 L2.5156 -3.8125 Z" stroke="none"/></g><g text-rendering="optimizeLegibility" transform="translate(187.876,24)" color-rendering="optimizeQuality" color-interpolation="linearRGB" image-rendering="optimizeQuality"><path d="M1.5469 -3.0312 Q1.5469 -1.8594 2.0938 -1.2734 Q2.6406 -0.6875 3.8125 -0.6875 Q4.7031 -0.6875 5.3516 -1.0234 Q6 -1.3594 6.3281 -1.9688 Q6.6562 -2.5781 6.6562 -3.4219 Q6.6562 -4.0156 6.4453 -4.4688 Q6.2344 -4.9219 5.8125 -5.3359 Q5.3906 -5.75 4.5938 -6.2969 Q3.875 -6.7812 3.3906 -7.25 Q2.9062 -7.7188 2.625 -8.3047 Q2.3438 -8.8906 2.3438 -9.625 Q2.3438 -10.7656 2.8984 -11.6484 Q3.4531 -12.5312 4.4688 -13.0078 Q5.4844 -13.4844 6.8125 -13.4844 Q7.7188 -13.4844 8.4844 -13.3672 Q9.25 -13.25 10.1719 -12.9531 L9.625 -10.4375 L8.6875 -10.4375 Q8.6562 -11.2656 8.4375 -11.7422 Q8.2188 -12.2188 7.8203 -12.4219 Q7.4219 -12.625 6.7656 -12.625 Q5.9531 -12.625 5.3359 -12.2969 Q4.7188 -11.9688 4.3984 -11.3984 Q4.0781 -10.8281 4.0781 -10.125 Q4.0781 -9.6094 4.25 -9.2109 Q4.4219 -8.8125 4.8125 -8.4219 Q5.2031 -8.0312 5.9375 -7.5312 Q6.8906 -6.8594 7.3984 -6.3438 Q7.9062 -5.8281 8.1406 -5.2422 Q8.375 -4.6562 8.375 -3.875 Q8.375 -2.7031 7.8047 -1.7734 Q7.2344 -0.8438 6.1953 -0.3438 Q5.1562 0.1562 3.8281 0.1562 Q2.9219 0.1562 1.8984 0.0156 Q0.875 -0.125 0.0312 -0.3594 L0.6094 -3.0312 L1.5469 -3.0312 Z" stroke="none"/></g><g text-rendering="optimizeLegibility" transform="translate(198.0479,29.0469)" color-rendering="optimizeQuality" color-interpolation="linearRGB" image-rendering="optimizeQuality"><path d="M2.5156 -3.8125 L2.7344 -3.8125 Q2.9531 -3.8125 3.1953 -3.8906 Q3.4375 -3.9688 3.7188 -4.1484 Q4 -4.3281 4.4688 -4.7031 Q4.8281 -4.9844 5 -5.1875 Q5.1719 -5.3906 5.2344 -5.5391 Q5.2969 -5.6875 5.2969 -5.8281 Q5.2969 -6.1562 4.8281 -6.2031 L4.9062 -6.5312 L7.1094 -6.5312 L7.25 -6.2031 Q6.6719 -5.6875 6.0469 -5.2031 L4.3125 -3.8438 L5.3438 -1.2656 Q5.4688 -0.9062 5.6172 -0.7188 Q5.7656 -0.5312 5.9531 -0.4453 Q6.1406 -0.3594 6.4375 -0.3281 L6.3594 0 L4.5312 0 L3.5312 -2.8125 Q3.4375 -3.0781 3.3672 -3.1719 Q3.2969 -3.2656 3.2109 -3.3047 Q3.125 -3.3438 2.9219 -3.3438 L2.4219 -3.3438 L1.7031 0 L0.5312 0 L2.2812 -7.8125 Q2.3594 -8.1562 2.3906 -8.3125 Q2.4219 -8.4688 2.4375 -8.5938 Q2.4531 -8.7188 2.4531 -8.8281 Q2.4531 -9.1094 2.2734 -9.2266 Q2.0938 -9.3438 1.6406 -9.3594 L1.7344 -9.7188 L3.4531 -9.7812 L3.8594 -9.7812 L2.5156 -3.8125 Z" stroke="none"/></g><g text-rendering="optimizeLegibility" transform="translate(205.2979,29.0469)" color-rendering="optimizeQuality" color-interpolation="linearRGB" image-rendering="optimizeQuality"><path d="M3.4531 -9.7812 L3.8594 -9.7812 L2.0781 -1.7031 Q2 -1.375 1.9844 -1.2109 Q1.9688 -1.0469 1.9688 -0.9375 Q1.9688 -0.7188 2.0312 -0.6094 Q2.0938 -0.5 2.2422 -0.4375 Q2.3906 -0.375 2.7188 -0.3281 L2.6562 0 L0.5312 0 L2.2969 -7.8438 Q2.3594 -8.1562 2.3828 -8.3047 Q2.4062 -8.4531 2.4219 -8.5859 Q2.4375 -8.7188 2.4375 -8.8281 Q2.4375 -9.0312 2.3672 -9.1406 Q2.2969 -9.25 2.1562 -9.2969 Q2.0156 -9.3438 1.6406 -9.3594 L1.7344 -9.7188 L3.4531 -9.7812 Z" stroke="none"/></g><g text-rendering="optimizeLegibility" transform="translate(211.7823,24)" color-rendering="optimizeQuality" color-interpolation="linearRGB" image-rendering="optimizeQuality"><path d="M2.4844 0.1719 Q2.1562 1.7344 1.5703 2.6484 Q0.9844 3.5625 0.1562 3.9609 Q-0.6719 4.3594 -1.8594 4.3594 Q-2.2812 4.3594 -2.625 4.2656 L-2.4062 3.4062 Q-2.1719 3.4844 -1.7188 3.4844 Q-1.2031 3.4844 -0.875 3.3516 Q-0.5469 3.2188 -0.2656 2.9062 Q0.0156 2.5938 0.2656 2.0078 Q0.5156 1.4219 0.7344 0.4531 L2.7188 -8.3438 L1.5312 -8.3438 L1.6562 -8.8438 Q2.125 -8.8906 2.3203 -8.9766 Q2.5156 -9.0625 2.6406 -9.2031 Q2.7656 -9.3438 2.8594 -9.6016 Q2.9531 -9.8594 3.1406 -10.5 Q3.6562 -12.25 4.7422 -13.1406 Q5.8281 -14.0312 7.4844 -14.0312 Q8.4531 -14.0312 9.1406 -13.875 L8.7656 -12.2031 L7.9062 -12.2031 Q7.7656 -12.7656 7.5469 -13.0078 Q7.3281 -13.25 6.8906 -13.25 Q6.3438 -13.25 5.9531 -12.9453 Q5.5625 -12.6406 5.2812 -12.0312 Q5 -11.4219 4.7656 -10.4062 L4.5156 -9.3438 L6.7656 -9.3438 L6.5469 -8.3438 L4.2969 -8.3438 L2.4844 0.1719 Z" stroke="none"/></g><g text-rendering="optimizeLegibility" transform="translate(222.7198,31.7188)" color-rendering="optimizeQuality" color-interpolation="linearRGB" image-rendering="optimizeQuality"><path d="M3.8438 -9.2188 L3.5312 -7.8906 L2.3281 -7.8906 L2.6406 -9.2188 L3.8438 -9.2188 ZM1.7969 0.1094 Q1.5781 1.1562 1.2031 1.7891 Q0.8281 2.4219 0.2188 2.7422 Q-0.3906 3.0625 -1.2188 3.0625 Q-1.5625 3.0625 -1.7969 2.9844 L-1.6406 2.3906 Q-1.5312 2.4219 -1.3984 2.4297 Q-1.2656 2.4375 -1.125 2.4375 Q-0.7969 2.4375 -0.5625 2.3438 Q-0.3281 2.25 -0.1328 2.0156 Q0.0625 1.7812 0.2266 1.375 Q0.3906 0.9688 0.5469 0.3125 L1.6406 -4.6094 Q1.7344 -4.9844 1.7734 -5.2266 Q1.8125 -5.4688 1.8125 -5.6406 Q1.8125 -5.8281 1.75 -5.9375 Q1.6875 -6.0469 1.5547 -6.1016 Q1.4219 -6.1562 1.0781 -6.1719 L1.1562 -6.5312 L2.8281 -6.5938 L3.2188 -6.5938 L1.7969 0.1094 Z" stroke="none"/></g><g text-rendering="optimizeLegibility" transform="translate(226.5635,31.7188)" color-rendering="optimizeQuality" color-interpolation="linearRGB" image-rendering="optimizeQuality"><path d="M3.4531 -9.7812 L3.8594 -9.7812 L2.0781 -1.7031 Q2 -1.375 1.9844 -1.2109 Q1.9688 -1.0469 1.9688 -0.9375 Q1.9688 -0.7188 2.0312 -0.6094 Q2.0938 -0.5 2.2422 -0.4375 Q2.3906 -0.375 2.7188 -0.3281 L2.6562 0 L0.5312 0 L2.2969 -7.8438 Q2.3594 -8.1562 2.3828 -8.3047 Q2.4062 -8.4531 2.4219 -8.5859 Q2.4375 -8.7188 2.4375 -8.8281 Q2.4375 -9.0312 2.3672 -9.1406 Q2.2969 -9.25 2.1562 -9.2969 Q2.0156 -9.3438 1.6406 -9.3594 L1.7344 -9.7188 L3.4531 -9.7812 Z" stroke="none"/></g></g></svg>