<?xml version="1.0" encoding="UTF-8" standalone="no"?><svg xmlns="http://www.w3.org/2000/svg" xmlns:xlink="http://www.w3.org/1999/xlink" stroke-dasharray="none" shape-rendering="auto" font-family="'Dialog'" width="19.812600" text-rendering="auto" fill-opacity="1" contentScriptType="text/ecmascript" color-interpolation="auto" color-rendering="auto" preserveAspectRatio="xMidYMid meet" font-size="12" fill="black" stroke="black" image-rendering="auto" stroke-miterlimit="10" zoomAndPan="magnify" version="1.0" stroke-linecap="square" stroke-linejoin="miter" contentStyleType="text/css" font-style="normal" height="22" stroke-width="1" stroke-dashoffset="0" font-weight="normal" stroke-opacity="1" y="-9.000000"><!--Converted from MathML using JEuclid--><defs id="genericDefs"/><g><g text-rendering="optimizeLegibility" transform="translate(0,13)" color-rendering="optimizeQuality" color-interpolation="linearRGB" image-rendering="optimizeQuality"><path d="M10.3594 -8.8906 Q6.8125 -4.625 4.1562 -0.0938 Q4.1094 0.4062 3.9688 1.0156 Q3.8125 1.625 3.7031 2.2188 Q3.5781 2.8281 3.2969 3.9219 L1.9219 3.9219 L1.6406 3.4375 L1.7188 3.1719 Q2.1562 1.6875 2.9375 0.1719 Q3.1406 -2.2969 3.1406 -4 Q3.1406 -8.4531 1.7969 -8.4531 Q1.3594 -8.4531 0.8594 -8.0312 L0.4844 -8.4531 Q1.625 -9.5 2.7031 -9.5 Q4.7031 -9.5 4.7031 -5.3594 Q4.7031 -3.9219 4.4375 -2.0625 L4.5 -2.0625 Q7.3281 -6.8281 8.4844 -9.3438 L10.1719 -9.3438 L10.3594 -8.8906 Z" stroke="none"/></g><g text-rendering="optimizeLegibility" transform="translate(2.3438,13.7656)" color-rendering="optimizeQuality" color-interpolation="linearRGB" image-rendering="optimizeQuality"><path d="M3.7344 -13.1719 L3.7344 -11.2656 L1.9375 -11.2656 L1.9375 -13.1719 L3.7344 -13.1719 Z" stroke="none"/></g><g text-rendering="optimizeLegibility" transform="translate(10.3594,21.5859)" color-rendering="optimizeQuality" color-interpolation="linearRGB" image-rendering="optimizeQuality"><path d="M6.125 -4.7812 Q6.75 -4.5312 7.0938 -4.0625 Q7.4375 -3.5938 7.4375 -3 Q7.4375 -2.2969 7.1797 -1.7344 Q6.9219 -1.1719 6.3672 -0.7578 Q5.8125 -0.3438 5.0938 -0.1719 Q4.375 0 3.3281 0 L0.2812 0 L0.3594 -0.3281 Q0.625 -0.375 0.75 -0.4688 Q0.875 -0.5625 0.9688 -0.7266 Q1.0625 -0.8906 1.1328 -1.125 Q1.2031 -1.3594 1.3594 -2.0312 L2.5156 -7.2969 Q2.6719 -7.9844 2.6719 -8.375 Q2.6719 -8.7188 2.5156 -8.8438 Q2.3594 -8.9688 2 -9 L2.0781 -9.3281 L5.4688 -9.3281 Q6.4844 -9.3281 7.1016 -9.1172 Q7.7188 -8.9062 8.0156 -8.4844 Q8.3125 -8.0625 8.3125 -7.4375 Q8.3125 -6.5469 7.7656 -5.875 Q7.2188 -5.2031 6.125 -4.8594 L6.125 -4.7812 ZM4.2344 -5.1406 Q4.9375 -5.1406 5.375 -5.2422 Q5.8125 -5.3438 6.0859 -5.5312 Q6.3594 -5.7188 6.5703 -5.9766 Q6.7812 -6.2344 6.9141 -6.5859 Q7.0469 -6.9375 7.0469 -7.4062 Q7.0469 -7.7031 6.9453 -7.9531 Q6.8438 -8.2031 6.5938 -8.3906 Q6.3438 -8.5781 6.0156 -8.6562 Q5.6875 -8.7344 5.1406 -8.7344 Q4.5469 -8.7344 4.0469 -8.7031 L3.2656 -5.1406 L4.2344 -5.1406 ZM2.2812 -0.625 Q2.8125 -0.6094 3.2812 -0.6094 Q4.3125 -0.6094 4.875 -0.8672 Q5.4375 -1.125 5.7812 -1.7109 Q6.125 -2.2969 6.125 -3.125 Q6.125 -3.5625 5.9531 -3.8672 Q5.7812 -4.1719 5.4062 -4.3594 Q5.0312 -4.5469 4.3594 -4.5469 L3.125 -4.5469 L2.2812 -0.625 Z" stroke="none"/></g></g></svg>