<?xml version="1.0" encoding="UTF-8" standalone="no"?><svg xmlns="http://www.w3.org/2000/svg" xmlns:xlink="http://www.w3.org/1999/xlink" stroke-dasharray="none" shape-rendering="auto" font-family="'Dialog'" width="20.812600" text-rendering="auto" fill-opacity="1" contentScriptType="text/ecmascript" color-interpolation="auto" color-rendering="auto" preserveAspectRatio="xMidYMid meet" font-size="12" fill="black" stroke="black" image-rendering="auto" stroke-miterlimit="10" zoomAndPan="magnify" version="1.0" stroke-linecap="square" stroke-linejoin="miter" contentStyleType="text/css" font-style="normal" height="29" stroke-width="1" stroke-dashoffset="0" font-weight="normal" stroke-opacity="1" y="-9.000000"><!--Converted from MathML using JEuclid--><defs id="genericDefs"/><g><g text-rendering="optimizeLegibility" stroke-width="1.6667" color-interpolation="linearRGB" color-rendering="optimizeQuality" image-rendering="optimizeQuality"><line y2="12.78" fill="none" x1="1.6778" x2="16.6465" y1="12.78"/><path d="M4.7969 -1.0938 Q5.1406 -1.0938 5.3438 -1.1328 Q5.5469 -1.1719 5.6719 -1.2734 Q5.7969 -1.375 5.8672 -1.5234 Q5.9375 -1.6719 6.0469 -2 L6.625 -2 L6.5156 0 L0.875 0 L0.875 -0.3281 Q1.1719 -1.0469 1.6719 -1.7969 Q2.1719 -2.5469 3.0938 -3.5625 Q3.8906 -4.4375 4.2344 -4.8906 Q4.6094 -5.3906 4.7969 -5.75 Q4.9844 -6.1094 5.0703 -6.4219 Q5.1562 -6.7344 5.1562 -7.0625 Q5.1562 -7.5781 4.9922 -7.9688 Q4.8281 -8.3594 4.4922 -8.5859 Q4.1562 -8.8125 3.6406 -8.8125 Q2.3594 -8.8125 1.9219 -7.3906 L1.0938 -7.3906 L1.0938 -8.7031 Q1.9219 -9.0938 2.6406 -9.2656 Q3.3594 -9.4375 3.9375 -9.4375 Q5.2031 -9.4375 5.8516 -8.8828 Q6.5 -8.3281 6.5 -7.2656 Q6.5 -6.9062 6.4297 -6.6016 Q6.3594 -6.2969 6.2031 -6 Q6.0469 -5.7031 5.7891 -5.3594 Q5.5312 -5.0156 5.2188 -4.6641 Q4.9062 -4.3125 4.125 -3.5 Q2.8281 -2.125 2.2188 -1.0938 L4.7969 -1.0938 Z" stroke-width="1" transform="translate(1.6778,10.1595)" stroke="none"/></g><g text-rendering="optimizeLegibility" transform="translate(8.3028,10.1595)" color-rendering="optimizeQuality" color-interpolation="linearRGB" image-rendering="optimizeQuality"><path d="M8.1562 -5.6875 L6.5938 -5.6875 L5.6406 -1.4688 Q5.5938 -1.2656 5.5938 -1.0938 Q5.5938 -0.6094 6 -0.6094 Q6.2969 -0.6094 6.7969 -1.125 L7.0625 -0.7656 Q6.2344 0.1094 5.4531 0.1094 Q4.4844 0.1094 4.4844 -0.9375 Q4.4844 -1.2656 4.5625 -1.625 L5.4688 -5.6875 L3.4844 -5.6875 L2.2188 0 L0.8281 0 L0.8906 -0.3281 Q1.4844 -0.8906 2.1406 -3.7031 L2.6094 -5.6875 L2.5156 -5.6875 Q1.2969 -5.6875 0.6562 -4.8281 L0.3281 -5.2031 Q1.2969 -6.5312 2.7969 -6.5312 L8.3438 -6.5312 L8.1562 -5.6875 Z" stroke="none"/></g><g text-rendering="optimizeLegibility" transform="translate(4.7637,25.1036)" color-rendering="optimizeQuality" color-interpolation="linearRGB" image-rendering="optimizeQuality"><path d="M6.4062 -0.7188 Q5.8125 0.1094 5.1562 0.1094 Q4.7812 0.1094 4.5469 -0.1406 Q4.3125 -0.3906 4.1875 -0.8828 Q4.0625 -1.375 4.0156 -2.0625 L3.8125 -5.0312 L3.7656 -5.0312 Q3.3594 -4.2656 2.3281 -2.3906 Q1.375 -0.6719 1.0469 0 L-0.3438 0 L-0.2812 -0.3281 L-0.0156 -0.6094 Q0.3281 -0.9531 0.7656 -1.6875 L3.6875 -6.4688 Q3.5625 -7.8906 3.2812 -8.4141 Q3 -8.9375 2.4062 -8.9375 Q1.8438 -8.9375 1.375 -8.4531 L1.125 -8.7969 Q2 -9.8125 2.8125 -9.8125 Q3.5312 -9.8125 3.9062 -9.2578 Q4.2812 -8.7031 4.375 -7.4062 Q4.5625 -4.7656 4.7422 -3.2344 Q4.9219 -1.7031 5.1328 -1.2266 Q5.3438 -0.75 5.6406 -0.75 Q5.9219 -0.75 6.1406 -1.0469 L6.4062 -0.7188 Z" stroke="none"/></g><g text-rendering="optimizeLegibility" transform="translate(11.17,28.502)" color-rendering="optimizeQuality" color-interpolation="linearRGB" image-rendering="optimizeQuality"><path d="M2.7344 -6.5781 L2.5156 -5.6406 L1.6406 -5.6406 L1.875 -6.5781 L2.7344 -6.5781 ZM1.5312 -1.2188 Q1.4688 -0.9688 1.4609 -0.8594 Q1.4531 -0.75 1.4531 -0.6719 Q1.4531 -0.5156 1.5 -0.4375 Q1.5469 -0.3594 1.6484 -0.3125 Q1.75 -0.2656 1.9844 -0.2344 L1.9375 0 L0.4219 0 L1.1562 -3.2969 Q1.2188 -3.5781 1.25 -3.7422 Q1.2812 -3.9062 1.2812 -4.0312 Q1.2812 -4.1719 1.2344 -4.25 Q1.1875 -4.3281 1.0938 -4.3672 Q1 -4.4062 0.75 -4.4062 L0.8125 -4.6719 L2 -4.7188 L2.2969 -4.7188 L1.5312 -1.2188 Z" stroke="none"/></g></g></svg>