<?xml version="1.0" encoding="UTF-8" standalone="no"?><svg xmlns="http://www.w3.org/2000/svg" xmlns:xlink="http://www.w3.org/1999/xlink" stroke-dasharray="none" shape-rendering="auto" font-family="'Dialog'" width="33.812600" text-rendering="auto" fill-opacity="1" contentScriptType="text/ecmascript" color-interpolation="auto" color-rendering="auto" preserveAspectRatio="xMidYMid meet" font-size="12" fill="black" stroke="black" image-rendering="auto" stroke-miterlimit="10" zoomAndPan="magnify" version="1.0" stroke-linecap="square" stroke-linejoin="miter" contentStyleType="text/css" font-style="normal" height="15" stroke-width="1" stroke-dashoffset="0" font-weight="normal" stroke-opacity="1" y="-1.000000"><!--Converted from MathML using JEuclid--><defs id="genericDefs"/><g><g text-rendering="optimizeLegibility" transform="translate(0,14)" color-rendering="optimizeQuality" color-interpolation="linearRGB" image-rendering="optimizeQuality"><path d="M4.3594 0.1562 Q1.2188 0.1562 1.2188 -3.7812 Q1.2188 -7.1719 3.0547 -10.4688 Q4.8906 -13.7656 7.7031 -13.7656 Q10.6406 -13.7656 10.6406 -9.9062 Q10.6406 -6.4844 8.8594 -3.1641 Q7.0781 0.1562 4.3594 0.1562 ZM3.6094 -7.5469 L8.625 -7.5469 Q9 -9.6094 9 -10.7188 Q9 -12.9375 7.5 -12.9375 Q6.3594 -12.9375 5.3438 -11.5312 Q4.3281 -10.125 3.6094 -7.5469 ZM3.3594 -6.625 Q2.8438 -4.4219 2.8438 -2.9219 Q2.8438 -0.6719 4.5469 -0.6719 Q5.75 -0.6719 6.75 -2.2422 Q7.75 -3.8125 8.4219 -6.625 L3.3594 -6.625 Z" stroke="none"/></g><g text-rendering="optimizeLegibility" transform="translate(11.4219,14)" color-rendering="optimizeQuality" color-interpolation="linearRGB" image-rendering="optimizeQuality"><path d="M1.2188 -5.0312 L1.2188 -6.3906 L9.8594 -10.125 L9.8594 -8.6562 L2.6562 -5.7188 L9.8594 -2.7812 L9.8594 -1.3125 L1.2188 -5.0312 Z" stroke="none"/></g><g text-rendering="optimizeLegibility" transform="translate(23.2812,14)" color-rendering="optimizeQuality" color-interpolation="linearRGB" image-rendering="optimizeQuality"><path d="M6.7812 -2.5469 Q6.7812 -1.9844 6.8516 -1.6953 Q6.9219 -1.4062 7.0781 -1.2266 Q7.2344 -1.0469 7.5391 -0.9453 Q7.8438 -0.8438 8.3047 -0.7891 Q8.7656 -0.7344 9.5156 -0.7188 L9.5156 0 L2.2969 0 L2.2969 -0.7188 Q3.375 -0.7656 3.8438 -0.8438 Q4.3125 -0.9219 4.5547 -1.0938 Q4.7969 -1.2656 4.9062 -1.5625 Q5.0156 -1.8594 5.0156 -2.5469 L5.0156 -10.4688 Q5.0156 -10.8594 4.8828 -11.0391 Q4.75 -11.2188 4.4844 -11.2188 Q4.1719 -11.2188 3.5938 -10.8984 Q3.0156 -10.5781 2.1719 -10.0156 L1.7344 -10.7656 L6.3125 -13.4844 L6.8438 -13.4844 Q6.7812 -12.5469 6.7812 -10.8906 L6.7812 -2.5469 Z" stroke="none"/></g></g></svg>