<?xml version="1.0" encoding="UTF-8" standalone="no"?><svg xmlns="http://www.w3.org/2000/svg" xmlns:xlink="http://www.w3.org/1999/xlink" stroke-dasharray="none" shape-rendering="auto" font-family="'Dialog'" width="387.812600" text-rendering="auto" fill-opacity="1" contentScriptType="text/ecmascript" color-interpolation="auto" color-rendering="auto" preserveAspectRatio="xMidYMid meet" font-size="12" fill="black" stroke="black" image-rendering="auto" stroke-miterlimit="10" zoomAndPan="magnify" version="1.0" stroke-linecap="square" stroke-linejoin="miter" contentStyleType="text/css" font-style="normal" height="24" stroke-width="1" stroke-dashoffset="0" font-weight="normal" stroke-opacity="1" y="-9.000000"><!--Converted from MathML using JEuclid--><defs id="genericDefs"/><g><g text-rendering="optimizeLegibility" transform="translate(0,15)" color-rendering="optimizeQuality" color-interpolation="linearRGB" image-rendering="optimizeQuality"><path d="M9.625 -12.5469 L9.1875 -12.5 Q7.5156 -12.3594 6.0547 -11.4609 Q4.5938 -10.5625 4.5938 -9.3125 Q4.5938 -8.6562 5.1562 -8.2969 Q5.7188 -7.9375 6.5312 -7.9375 Q6.8594 -7.9375 7.1719 -8 L7.9375 -8.1406 L7.7656 -7.2031 L7.1562 -7.0781 Q5.2656 -6.7188 3.9453 -5.8516 Q2.625 -4.9844 2.625 -3.7812 Q2.625 -3.0938 3.0312 -2.6172 Q3.4375 -2.1406 4.5938 -1.625 Q5.7812 -1.1094 6.25 -0.5703 Q6.7188 -0.0312 6.7188 0.7812 Q6.7188 1.7656 5.8828 2.6562 Q5.0469 3.5469 3.6094 4 L3.25 3.4219 Q4.2969 3.0625 4.9453 2.4766 Q5.5938 1.8906 5.5938 1.2812 Q5.5938 0.7344 5.2031 0.4219 Q4.8125 0.1094 3.4062 -0.4375 Q0.8281 -1.4531 0.8281 -3.4375 Q0.8281 -4.8281 2.0234 -5.875 Q3.2188 -6.9219 5.0938 -7.3438 L5.0938 -7.4219 Q4.0625 -7.5156 3.4453 -8.0312 Q2.8281 -8.5469 2.8281 -9.3594 Q2.8281 -11.4062 6.6875 -12.4688 L6.6875 -12.5 L6.2656 -12.5 Q4.0469 -12.5 3.5312 -13.7812 L5.0156 -14.0312 Q5.3594 -13.2188 7.2344 -13.2188 Q7.9375 -13.2188 8.5312 -13.3281 Q9.125 -13.4219 9.8281 -13.5156 L9.625 -12.5469 Z" stroke="none"/></g><g text-rendering="optimizeLegibility" transform="translate(9.8281,23.7188)" color-rendering="optimizeQuality" color-interpolation="linearRGB" image-rendering="optimizeQuality"><path d="M4.75 -1.7812 Q4.75 -1.3906 4.7969 -1.1875 Q4.8438 -0.9844 4.9531 -0.8594 Q5.0625 -0.7344 5.2734 -0.6641 Q5.4844 -0.5938 5.8047 -0.5547 Q6.125 -0.5156 6.6562 -0.5 L6.6562 0 L1.6094 0 L1.6094 -0.5 Q2.3594 -0.5312 2.6875 -0.5938 Q3.0156 -0.6562 3.1875 -0.7656 Q3.3594 -0.875 3.4375 -1.0938 Q3.5156 -1.3125 3.5156 -1.7812 L3.5156 -7.3281 Q3.5156 -7.6094 3.4219 -7.7344 Q3.3281 -7.8594 3.1406 -7.8594 Q2.9219 -7.8594 2.5156 -7.6328 Q2.1094 -7.4062 1.5156 -7 L1.2188 -7.5312 L4.4219 -9.4375 L4.7969 -9.4375 Q4.75 -8.7812 4.75 -7.625 L4.75 -1.7812 Z" stroke="none"/></g><g text-rendering="optimizeLegibility" transform="translate(17.2656,15)" color-rendering="optimizeQuality" color-interpolation="linearRGB" image-rendering="optimizeQuality"><path d="M1.2188 -7.0625 L1.2188 -8.4219 L9.8594 -8.4219 L9.8594 -7.0625 L1.2188 -7.0625 ZM1.2188 -3.0156 L1.2188 -4.3594 L9.8594 -4.3594 L9.8594 -3.0156 L1.2188 -3.0156 Z" stroke="none"/></g><g text-rendering="optimizeLegibility" transform="translate(29.125,15)" color-rendering="optimizeQuality" color-interpolation="linearRGB" image-rendering="optimizeQuality"><path d="M8.1719 -9.3438 L8.1719 -8.8594 Q7.7188 -8.75 7.5312 -8.6562 Q7.3438 -8.5625 7.2578 -8.4062 Q7.1719 -8.25 7.1719 -7.9844 Q7.1719 -7.7188 7.2344 -7.4297 Q7.2969 -7.1406 7.4219 -6.7656 L9.125 -1.8125 L11.125 -6.5469 Q11.3125 -7.0156 11.3906 -7.3203 Q11.4688 -7.625 11.4688 -7.8906 Q11.4688 -8.2969 11.25 -8.5156 Q11.0312 -8.7344 10.4531 -8.8594 L10.4531 -9.3438 L14.0938 -9.3438 L14.0938 -8.8594 Q13.7188 -8.7812 13.5156 -8.6172 Q13.3125 -8.4531 13.1016 -8.1094 Q12.8906 -7.7656 12.6094 -7.1406 L9.3281 0.0938 L8.1719 0.0938 L5.5312 -7.2031 Q5.25 -7.9531 5.0859 -8.2266 Q4.9219 -8.5 4.7344 -8.6406 Q4.5469 -8.7812 4.1875 -8.8594 L4.1875 -9.3438 L8.1719 -9.3438 ZM20.5938 -1.3906 L20.4531 -1.4375 Q19.5938 -0.5625 18.8516 -0.2031 Q18.1094 0.1562 17.2656 0.1562 Q16.5156 0.1562 15.9531 -0.1328 Q15.3906 -0.4219 15.0859 -0.9453 Q14.7812 -1.4688 14.7812 -2.1562 Q14.7812 -3.5781 16.1953 -4.3516 Q17.6094 -5.125 20.4219 -5.25 L20.4219 -5.8906 Q20.4219 -6.9062 20.2266 -7.4922 Q20.0312 -8.0781 19.6172 -8.3516 Q19.2031 -8.625 18.5 -8.625 Q17.7344 -8.625 17.2656 -8.2266 Q16.7969 -7.8281 16.5625 -7.0156 L15.2969 -7.0156 L15.2969 -8.2969 Q16.2344 -8.7812 16.8594 -9.0078 Q17.4844 -9.2344 18.1094 -9.3672 Q18.7344 -9.5 19.375 -9.5 Q20.3438 -9.5 20.9297 -9.1953 Q21.5156 -8.8906 21.8047 -8.2578 Q22.0938 -7.625 22.0938 -6.3438 L22.0938 -2.9375 Q22.0938 -2.2188 22.1016 -1.9219 Q22.1094 -1.625 22.1641 -1.3672 Q22.2188 -1.1094 22.3125 -0.9609 Q22.4062 -0.8125 22.6016 -0.7031 Q22.7969 -0.5938 23.2188 -0.4844 L23.2188 0 L20.5469 0 L20.5938 -1.3906 ZM20.4219 -4.4531 Q18.4375 -4.4375 17.4531 -3.9297 Q16.4688 -3.4219 16.4688 -2.3906 Q16.4688 -1.8438 16.6953 -1.5156 Q16.9219 -1.1875 17.2656 -1.0703 Q17.6094 -0.9531 18.0781 -0.9531 Q18.7344 -0.9531 19.2812 -1.2734 Q19.8281 -1.5938 20.125 -2.0938 Q20.4219 -2.5938 20.4219 -3.0781 L20.4219 -4.4531 ZM27.5625 -2.4375 Q27.5625 -1.6094 27.6406 -1.2812 Q27.7188 -0.9531 27.9375 -0.7812 Q28.1562 -0.6094 28.6562 -0.4844 L28.6562 0 L24.7656 0 L24.7656 -0.4844 Q25.2656 -0.6094 25.4531 -0.7422 Q25.6406 -0.875 25.7266 -1.0703 Q25.8125 -1.2656 25.8438 -1.5938 Q25.875 -1.9219 25.875 -2.4375 L25.875 -10.6094 Q25.875 -11.5469 25.8594 -11.9219 Q25.8438 -12.2969 25.7812 -12.5547 Q25.7188 -12.8125 25.6094 -12.9609 Q25.5 -13.1094 25.3047 -13.1953 Q25.1094 -13.2812 24.6094 -13.375 L24.6094 -13.875 L26.9688 -13.9688 L27.5625 -13.9688 L27.5625 -2.4375 ZM29.7188 -9.3438 L32.5 -9.3438 L32.5 -4.3594 Q32.5 -3.2188 32.5859 -2.625 Q32.6719 -2.0312 32.8516 -1.7266 Q33.0312 -1.4219 33.3516 -1.2188 Q33.6719 -1.0156 34.2344 -1.0156 Q34.6094 -1.0156 34.9531 -1.1641 Q35.2969 -1.3125 35.7109 -1.6797 Q36.125 -2.0469 36.3047 -2.4062 Q36.4844 -2.7656 36.4844 -3.25 L36.4844 -6.9062 Q36.4844 -7.4688 36.4609 -7.75 Q36.4375 -8.0312 36.3672 -8.2031 Q36.2969 -8.375 36.2031 -8.4766 Q36.1094 -8.5781 35.9375 -8.6719 Q35.7656 -8.7656 35.3906 -8.8594 L35.3906 -9.3438 L38.1719 -9.3438 L38.1719 -2.6719 Q38.1719 -1.9219 38.2031 -1.5859 Q38.2344 -1.25 38.3281 -1.0547 Q38.4219 -0.8594 38.625 -0.7344 Q38.8281 -0.6094 39.3594 -0.5156 L39.3594 0 L37.125 0.0938 L36.5312 0.0938 L36.5938 -1.5 L36.4375 -1.5469 Q35.625 -0.6719 34.8906 -0.2578 Q34.1562 0.1562 33.4219 0.1562 Q32.5312 0.1562 31.9531 -0.1953 Q31.375 -0.5469 31.0938 -1.2422 Q30.8125 -1.9375 30.8125 -3.2188 L30.8125 -6.9062 Q30.8125 -7.7188 30.75 -8.0312 Q30.6875 -8.3438 30.5 -8.5234 Q30.3125 -8.7031 29.7188 -8.8594 L29.7188 -9.3438 ZM48.75 -1.6562 Q48.125 -1 47.6016 -0.6328 Q47.0781 -0.2656 46.4531 -0.0547 Q45.8281 0.1562 45.0781 0.1562 Q43.0625 0.1562 42.0391 -1.0469 Q41.0156 -2.25 41.0156 -4.6094 Q41.0156 -6.0625 41.5391 -7.1797 Q42.0625 -8.2969 43.0312 -8.8984 Q44 -9.5 45.25 -9.5 Q46.2344 -9.5 46.9297 -9.1875 Q47.625 -8.875 48.0391 -8.3359 Q48.4531 -7.7969 48.6875 -6.9688 Q48.9219 -6.1406 48.9531 -4.8125 L42.7969 -4.8125 L42.7969 -4.6406 Q42.7969 -3.4844 43.0547 -2.7031 Q43.3125 -1.9219 43.9062 -1.4766 Q44.5 -1.0312 45.4375 -1.0312 Q46.2344 -1.0312 46.875 -1.3281 Q47.5156 -1.625 48.1562 -2.2969 L48.75 -1.6562 ZM47.1094 -5.625 Q47.0469 -6.6875 46.8438 -7.3516 Q46.6406 -8.0156 46.2344 -8.375 Q45.8281 -8.7344 45.1562 -8.7344 Q44.1562 -8.7344 43.5547 -7.9297 Q42.9531 -7.125 42.8438 -5.625 L47.1094 -5.625 ZM59.2031 0.1562 Q57.1719 0.1562 56.1016 -1.0391 Q55.0312 -2.2344 55.0312 -4.5781 Q55.0312 -6.1875 55.5938 -7.3047 Q56.1562 -8.4219 57.1328 -8.9609 Q58.1094 -9.5 59.3594 -9.5 Q61.4375 -9.5 62.5156 -8.2891 Q63.5938 -7.0781 63.5938 -4.7969 Q63.5938 -3.1719 63.0547 -2.0625 Q62.5156 -0.9531 61.5312 -0.3984 Q60.5469 0.1562 59.2031 0.1562 ZM56.875 -4.7812 Q56.875 -2.7812 57.5156 -1.6953 Q58.1562 -0.6094 59.3438 -0.6094 Q60 -0.6094 60.4609 -0.9297 Q60.9219 -1.25 61.2031 -1.7891 Q61.4844 -2.3281 61.6172 -3.0312 Q61.75 -3.7344 61.75 -4.5156 Q61.75 -5.9531 61.4297 -6.8984 Q61.1094 -7.8438 60.5625 -8.2891 Q60.0156 -8.7344 59.3125 -8.7344 Q58.125 -8.7344 57.5 -7.7109 Q56.875 -6.6875 56.875 -4.7812 ZM70.9688 -8.3438 L68.6406 -8.3438 L68.6406 -2.4375 Q68.6406 -1.7812 68.7031 -1.4531 Q68.7656 -1.125 68.8828 -0.9531 Q69 -0.7812 69.2031 -0.6797 Q69.4062 -0.5781 69.8438 -0.4844 L69.8438 0 L65.8438 0 L65.8438 -0.4844 Q66.2812 -0.5938 66.4688 -0.7031 Q66.6562 -0.8125 66.7578 -0.9766 Q66.8594 -1.1406 66.9062 -1.4531 Q66.9531 -1.7656 66.9531 -2.4375 L66.9531 -8.3438 L65.7656 -8.3438 L65.7656 -8.8438 Q66.1406 -8.9062 66.2656 -8.9375 Q66.3906 -8.9688 66.5 -9.0391 Q66.6094 -9.1094 66.6953 -9.2344 Q66.7812 -9.3594 66.8438 -9.6094 Q66.9062 -9.8594 66.9375 -10.3125 Q67.0312 -11.375 67.3281 -12.0391 Q67.625 -12.7031 68.1953 -13.1719 Q68.7656 -13.6406 69.4141 -13.8359 Q70.0625 -14.0312 70.9531 -14.0312 Q71.7188 -14.0312 72.25 -13.9219 L72.25 -12.1562 L71.2969 -12.1562 Q71.1094 -12.7188 70.8594 -12.9609 Q70.6094 -13.2031 70.1562 -13.2031 Q69.8281 -13.2031 69.6094 -13.1172 Q69.3906 -13.0312 69.2109 -12.8438 Q69.0312 -12.6562 68.8984 -12.3438 Q68.7656 -12.0312 68.7031 -11.5703 Q68.6406 -11.1094 68.6406 -10.3594 L68.6406 -9.3438 L70.9688 -9.3438 L70.9688 -8.3438 ZM78.5781 -7.8281 L78.7188 -7.7969 Q79.3125 -8.375 79.6875 -8.6719 Q80.0625 -8.9688 80.4141 -9.1562 Q80.7656 -9.3438 81.0703 -9.4219 Q81.375 -9.5 81.7031 -9.5 Q82.6719 -9.5 83.2891 -9.0469 Q83.9062 -8.5938 84.1406 -7.6719 Q84.875 -8.4062 85.3281 -8.7578 Q85.7812 -9.1094 86.2578 -9.3047 Q86.7344 -9.5 87.2812 -9.5 Q87.9375 -9.5 88.4062 -9.3047 Q88.875 -9.1094 89.2031 -8.7188 Q89.5312 -8.3281 89.6797 -7.7266 Q89.8281 -7.125 89.8281 -6.125 L89.8281 -2.4375 Q89.8281 -1.7031 89.8828 -1.4219 Q89.9375 -1.1406 90.0312 -0.9844 Q90.125 -0.8281 90.3047 -0.7109 Q90.4844 -0.5938 90.9219 -0.4844 L90.9219 0 L87.0938 0 L87.0938 -0.4844 Q87.4688 -0.5938 87.6328 -0.6797 Q87.7969 -0.7656 87.9141 -0.9219 Q88.0312 -1.0781 88.0938 -1.4062 Q88.1562 -1.7344 88.1562 -2.4062 L88.1562 -4.9688 Q88.1562 -5.7969 88.1094 -6.3359 Q88.0625 -6.875 87.9688 -7.1953 Q87.875 -7.5156 87.75 -7.7031 Q87.625 -7.8906 87.4531 -8.0312 Q87.2812 -8.1719 87.0625 -8.25 Q86.8438 -8.3281 86.4688 -8.3281 Q86.0781 -8.3281 85.7422 -8.1719 Q85.4062 -8.0156 85.0078 -7.6406 Q84.6094 -7.2656 84.4375 -6.8906 Q84.2656 -6.5156 84.2656 -6 L84.2656 -2.4375 Q84.2656 -1.7031 84.3125 -1.4219 Q84.3594 -1.1406 84.4531 -0.9844 Q84.5469 -0.8281 84.7266 -0.7109 Q84.9062 -0.5938 85.3594 -0.4844 L85.3594 0 L81.5156 0 L81.5156 -0.4844 Q81.8906 -0.5938 82.0625 -0.6797 Q82.2344 -0.7656 82.3438 -0.9219 Q82.4531 -1.0781 82.5156 -1.4062 Q82.5781 -1.7344 82.5781 -2.4062 L82.5781 -4.9688 Q82.5781 -5.8281 82.5312 -6.375 Q82.4844 -6.9219 82.3828 -7.2578 Q82.2812 -7.5938 82.1172 -7.7969 Q81.9531 -8 81.7891 -8.1094 Q81.625 -8.2188 81.3984 -8.2734 Q81.1719 -8.3281 80.8906 -8.3281 Q80.4844 -8.3281 80.1328 -8.1406 Q79.7812 -7.9531 79.4141 -7.6172 Q79.0469 -7.2812 78.8672 -6.9062 Q78.6875 -6.5312 78.6875 -6.1094 L78.6875 -2.4375 Q78.6875 -1.8906 78.7109 -1.5938 Q78.7344 -1.2969 78.8047 -1.1328 Q78.875 -0.9688 78.9688 -0.8672 Q79.0625 -0.7656 79.2422 -0.6719 Q79.4219 -0.5781 79.7812 -0.4844 L79.7812 0 L75.9531 0 L75.9531 -0.4844 Q76.3281 -0.5938 76.4922 -0.6797 Q76.6562 -0.7656 76.7734 -0.9219 Q76.8906 -1.0781 76.9453 -1.4062 Q77 -1.7344 77 -2.4062 L77 -6.6719 Q77 -7.2969 76.9844 -7.6797 Q76.9688 -8.0625 76.8516 -8.2891 Q76.7344 -8.5156 76.4922 -8.625 Q76.25 -8.7344 75.8125 -8.8125 L75.8125 -9.3438 L78.0938 -9.4219 L78.6875 -9.4219 L78.5781 -7.8281 ZM98.5938 -1.3906 L98.4531 -1.4375 Q97.5938 -0.5625 96.8516 -0.2031 Q96.1094 0.1562 95.2656 0.1562 Q94.5156 0.1562 93.9531 -0.1328 Q93.3906 -0.4219 93.0859 -0.9453 Q92.7812 -1.4688 92.7812 -2.1562 Q92.7812 -3.5781 94.1953 -4.3516 Q95.6094 -5.125 98.4219 -5.25 L98.4219 -5.8906 Q98.4219 -6.9062 98.2266 -7.4922 Q98.0312 -8.0781 97.6172 -8.3516 Q97.2031 -8.625 96.5 -8.625 Q95.7344 -8.625 95.2656 -8.2266 Q94.7969 -7.8281 94.5625 -7.0156 L93.2969 -7.0156 L93.2969 -8.2969 Q94.2344 -8.7812 94.8594 -9.0078 Q95.4844 -9.2344 96.1094 -9.3672 Q96.7344 -9.5 97.375 -9.5 Q98.3438 -9.5 98.9297 -9.1953 Q99.5156 -8.8906 99.8047 -8.2578 Q100.0938 -7.625 100.0938 -6.3438 L100.0938 -2.9375 Q100.0938 -2.2188 100.1016 -1.9219 Q100.1094 -1.625 100.1641 -1.3672 Q100.2188 -1.1094 100.3125 -0.9609 Q100.4062 -0.8125 100.6016 -0.7031 Q100.7969 -0.5938 101.2188 -0.4844 L101.2188 0 L98.5469 0 L98.5938 -1.3906 ZM98.4219 -4.4531 Q96.4375 -4.4375 95.4531 -3.9297 Q94.4688 -3.4219 94.4688 -2.3906 Q94.4688 -1.8438 94.6953 -1.5156 Q94.9219 -1.1875 95.2656 -1.0703 Q95.6094 -0.9531 96.0781 -0.9531 Q96.7344 -0.9531 97.2812 -1.2734 Q97.8281 -1.5938 98.125 -2.0938 Q98.4219 -2.5938 98.4219 -3.0781 L98.4219 -4.4531 ZM107.0781 -5.6406 L108.3438 -7.25 Q108.5469 -7.5156 108.6797 -7.7656 Q108.8125 -8.0156 108.8125 -8.2656 Q108.8125 -8.5 108.6406 -8.6484 Q108.4688 -8.7969 108.125 -8.8594 L108.125 -9.3438 L111.3125 -9.3438 L111.3125 -8.8594 Q110.9531 -8.75 110.5625 -8.4375 Q110.1719 -8.125 109.625 -7.4375 L107.5938 -4.9531 L109.8281 -1.9531 Q110.2969 -1.3125 110.6797 -0.9688 Q111.0625 -0.625 111.4375 -0.4844 L111.4375 0 L107.5156 0 L107.5156 -0.4844 Q108.3281 -0.5781 108.3281 -1.0781 Q108.3281 -1.2969 108.2578 -1.4766 Q108.1875 -1.6562 108 -1.9062 L106.5938 -3.875 L105.0938 -1.9219 Q104.9219 -1.7031 104.8281 -1.5234 Q104.7344 -1.3438 104.7344 -1.125 Q104.7344 -0.8594 104.9141 -0.6875 Q105.0938 -0.5156 105.4844 -0.4844 L105.4844 0 L102.2188 0 L102.2188 -0.4844 Q102.5469 -0.5938 102.8047 -0.7734 Q103.0625 -0.9531 103.3359 -1.2266 Q103.6094 -1.5 104.0469 -2.0469 L106.0781 -4.5625 L104 -7.4062 Q103.5625 -8 103.3125 -8.2656 Q103.0625 -8.5312 102.8438 -8.6641 Q102.625 -8.7969 102.4062 -8.8594 L102.4062 -9.3438 L106.2344 -9.3438 L106.2344 -8.8594 Q105.4688 -8.7344 105.4688 -8.25 Q105.4688 -8.0312 105.5703 -7.8047 Q105.6719 -7.5781 105.8906 -7.3125 L107.0781 -5.6406 ZM115.7344 -13.1719 L115.7344 -11.2656 L113.9375 -11.2656 L113.9375 -13.1719 L115.7344 -13.1719 ZM112.9531 -0.4844 Q113.3281 -0.5938 113.4922 -0.6797 Q113.6562 -0.7656 113.7656 -0.9219 Q113.875 -1.0781 113.9375 -1.4062 Q114 -1.7344 114 -2.4062 L114 -6.6719 Q114 -7.2969 113.9844 -7.6797 Q113.9688 -8.0625 113.8516 -8.2891 Q113.7344 -8.5156 113.4922 -8.625 Q113.25 -8.7344 112.8125 -8.8125 L112.8125 -9.3438 L115.0938 -9.4219 L115.6875 -9.4219 L115.6875 -2.4375 Q115.6875 -1.6094 115.7656 -1.2812 Q115.8438 -0.9531 116.0625 -0.7812 Q116.2812 -0.6094 116.7812 -0.4844 L116.7812 0 L112.9531 0 L112.9531 -0.4844 ZM121.5781 -7.8281 L121.7188 -7.7969 Q122.3125 -8.375 122.6875 -8.6719 Q123.0625 -8.9688 123.4141 -9.1562 Q123.7656 -9.3438 124.0703 -9.4219 Q124.375 -9.5 124.7031 -9.5 Q125.6719 -9.5 126.2891 -9.0469 Q126.9062 -8.5938 127.1406 -7.6719 Q127.875 -8.4062 128.3281 -8.7578 Q128.7812 -9.1094 129.2578 -9.3047 Q129.7344 -9.5 130.2812 -9.5 Q130.9375 -9.5 131.4062 -9.3047 Q131.875 -9.1094 132.2031 -8.7188 Q132.5312 -8.3281 132.6797 -7.7266 Q132.8281 -7.125 132.8281 -6.125 L132.8281 -2.4375 Q132.8281 -1.7031 132.8828 -1.4219 Q132.9375 -1.1406 133.0312 -0.9844 Q133.125 -0.8281 133.3047 -0.7109 Q133.4844 -0.5938 133.9219 -0.4844 L133.9219 0 L130.0938 0 L130.0938 -0.4844 Q130.4688 -0.5938 130.6328 -0.6797 Q130.7969 -0.7656 130.9141 -0.9219 Q131.0312 -1.0781 131.0938 -1.4062 Q131.1562 -1.7344 131.1562 -2.4062 L131.1562 -4.9688 Q131.1562 -5.7969 131.1094 -6.3359 Q131.0625 -6.875 130.9688 -7.1953 Q130.875 -7.5156 130.75 -7.7031 Q130.625 -7.8906 130.4531 -8.0312 Q130.2812 -8.1719 130.0625 -8.25 Q129.8438 -8.3281 129.4688 -8.3281 Q129.0781 -8.3281 128.7422 -8.1719 Q128.4062 -8.0156 128.0078 -7.6406 Q127.6094 -7.2656 127.4375 -6.8906 Q127.2656 -6.5156 127.2656 -6 L127.2656 -2.4375 Q127.2656 -1.7031 127.3125 -1.4219 Q127.3594 -1.1406 127.4531 -0.9844 Q127.5469 -0.8281 127.7266 -0.7109 Q127.9062 -0.5938 128.3594 -0.4844 L128.3594 0 L124.5156 0 L124.5156 -0.4844 Q124.8906 -0.5938 125.0625 -0.6797 Q125.2344 -0.7656 125.3438 -0.9219 Q125.4531 -1.0781 125.5156 -1.4062 Q125.5781 -1.7344 125.5781 -2.4062 L125.5781 -4.9688 Q125.5781 -5.8281 125.5312 -6.375 Q125.4844 -6.9219 125.3828 -7.2578 Q125.2812 -7.5938 125.1172 -7.7969 Q124.9531 -8 124.7891 -8.1094 Q124.625 -8.2188 124.3984 -8.2734 Q124.1719 -8.3281 123.8906 -8.3281 Q123.4844 -8.3281 123.1328 -8.1406 Q122.7812 -7.9531 122.4141 -7.6172 Q122.0469 -7.2812 121.8672 -6.9062 Q121.6875 -6.5312 121.6875 -6.1094 L121.6875 -2.4375 Q121.6875 -1.8906 121.7109 -1.5938 Q121.7344 -1.2969 121.8047 -1.1328 Q121.875 -0.9688 121.9688 -0.8672 Q122.0625 -0.7656 122.2422 -0.6719 Q122.4219 -0.5781 122.7812 -0.4844 L122.7812 0 L118.9531 0 L118.9531 -0.4844 Q119.3281 -0.5938 119.4922 -0.6797 Q119.6562 -0.7656 119.7734 -0.9219 Q119.8906 -1.0781 119.9453 -1.4062 Q120 -1.7344 120 -2.4062 L120 -6.6719 Q120 -7.2969 119.9844 -7.6797 Q119.9688 -8.0625 119.8516 -8.2891 Q119.7344 -8.5156 119.4922 -8.625 Q119.25 -8.7344 118.8125 -8.8125 L118.8125 -9.3438 L121.0938 -9.4219 L121.6875 -9.4219 L121.5781 -7.8281 ZM135.7188 -9.3438 L138.5 -9.3438 L138.5 -4.3594 Q138.5 -3.2188 138.5859 -2.625 Q138.6719 -2.0312 138.8516 -1.7266 Q139.0312 -1.4219 139.3516 -1.2188 Q139.6719 -1.0156 140.2344 -1.0156 Q140.6094 -1.0156 140.9531 -1.1641 Q141.2969 -1.3125 141.7109 -1.6797 Q142.125 -2.0469 142.3047 -2.4062 Q142.4844 -2.7656 142.4844 -3.25 L142.4844 -6.9062 Q142.4844 -7.4688 142.4609 -7.75 Q142.4375 -8.0312 142.3672 -8.2031 Q142.2969 -8.375 142.2031 -8.4766 Q142.1094 -8.5781 141.9375 -8.6719 Q141.7656 -8.7656 141.3906 -8.8594 L141.3906 -9.3438 L144.1719 -9.3438 L144.1719 -2.6719 Q144.1719 -1.9219 144.2031 -1.5859 Q144.2344 -1.25 144.3281 -1.0547 Q144.4219 -0.8594 144.625 -0.7344 Q144.8281 -0.6094 145.3594 -0.5156 L145.3594 0 L143.125 0.0938 L142.5312 0.0938 L142.5938 -1.5 L142.4375 -1.5469 Q141.625 -0.6719 140.8906 -0.2578 Q140.1562 0.1562 139.4219 0.1562 Q138.5312 0.1562 137.9531 -0.1953 Q137.375 -0.5469 137.0938 -1.2422 Q136.8125 -1.9375 136.8125 -3.2188 L136.8125 -6.9062 Q136.8125 -7.7188 136.75 -8.0312 Q136.6875 -8.3438 136.5 -8.5234 Q136.3125 -8.7031 135.7188 -8.8594 L135.7188 -9.3438 ZM149.5781 -7.8281 L149.7188 -7.7969 Q150.3125 -8.375 150.6875 -8.6719 Q151.0625 -8.9688 151.4141 -9.1562 Q151.7656 -9.3438 152.0703 -9.4219 Q152.375 -9.5 152.7031 -9.5 Q153.6719 -9.5 154.2891 -9.0469 Q154.9062 -8.5938 155.1406 -7.6719 Q155.875 -8.4062 156.3281 -8.7578 Q156.7812 -9.1094 157.2578 -9.3047 Q157.7344 -9.5 158.2812 -9.5 Q158.9375 -9.5 159.4062 -9.3047 Q159.875 -9.1094 160.2031 -8.7188 Q160.5312 -8.3281 160.6797 -7.7266 Q160.8281 -7.125 160.8281 -6.125 L160.8281 -2.4375 Q160.8281 -1.7031 160.8828 -1.4219 Q160.9375 -1.1406 161.0312 -0.9844 Q161.125 -0.8281 161.3047 -0.7109 Q161.4844 -0.5938 161.9219 -0.4844 L161.9219 0 L158.0938 0 L158.0938 -0.4844 Q158.4688 -0.5938 158.6328 -0.6797 Q158.7969 -0.7656 158.9141 -0.9219 Q159.0312 -1.0781 159.0938 -1.4062 Q159.1562 -1.7344 159.1562 -2.4062 L159.1562 -4.9688 Q159.1562 -5.7969 159.1094 -6.3359 Q159.0625 -6.875 158.9688 -7.1953 Q158.875 -7.5156 158.75 -7.7031 Q158.625 -7.8906 158.4531 -8.0312 Q158.2812 -8.1719 158.0625 -8.25 Q157.8438 -8.3281 157.4688 -8.3281 Q157.0781 -8.3281 156.7422 -8.1719 Q156.4062 -8.0156 156.0078 -7.6406 Q155.6094 -7.2656 155.4375 -6.8906 Q155.2656 -6.5156 155.2656 -6 L155.2656 -2.4375 Q155.2656 -1.7031 155.3125 -1.4219 Q155.3594 -1.1406 155.4531 -0.9844 Q155.5469 -0.8281 155.7266 -0.7109 Q155.9062 -0.5938 156.3594 -0.4844 L156.3594 0 L152.5156 0 L152.5156 -0.4844 Q152.8906 -0.5938 153.0625 -0.6797 Q153.2344 -0.7656 153.3438 -0.9219 Q153.4531 -1.0781 153.5156 -1.4062 Q153.5781 -1.7344 153.5781 -2.4062 L153.5781 -4.9688 Q153.5781 -5.8281 153.5312 -6.375 Q153.4844 -6.9219 153.3828 -7.2578 Q153.2812 -7.5938 153.1172 -7.7969 Q152.9531 -8 152.7891 -8.1094 Q152.625 -8.2188 152.3984 -8.2734 Q152.1719 -8.3281 151.8906 -8.3281 Q151.4844 -8.3281 151.1328 -8.1406 Q150.7812 -7.9531 150.4141 -7.6172 Q150.0469 -7.2812 149.8672 -6.9062 Q149.6875 -6.5312 149.6875 -6.1094 L149.6875 -2.4375 Q149.6875 -1.8906 149.7109 -1.5938 Q149.7344 -1.2969 149.8047 -1.1328 Q149.875 -0.9688 149.9688 -0.8672 Q150.0625 -0.7656 150.2422 -0.6719 Q150.4219 -0.5781 150.7812 -0.4844 L150.7812 0 L146.9531 0 L146.9531 -0.4844 Q147.3281 -0.5938 147.4922 -0.6797 Q147.6562 -0.7656 147.7734 -0.9219 Q147.8906 -1.0781 147.9453 -1.4062 Q148 -1.7344 148 -2.4062 L148 -6.6719 Q148 -7.2969 147.9844 -7.6797 Q147.9688 -8.0625 147.8516 -8.2891 Q147.7344 -8.5156 147.4922 -8.625 Q147.25 -8.7344 146.8125 -8.8125 L146.8125 -9.3438 L149.0938 -9.4219 L149.6875 -9.4219 L149.5781 -7.8281 ZM174.4844 -7.2031 L173.5469 -7.2031 Q173.3438 -7.7812 173.0469 -8.1172 Q172.75 -8.4531 172.3828 -8.5938 Q172.0156 -8.7344 171.4688 -8.7344 Q170.6875 -8.7344 170.2266 -8.3672 Q169.7656 -8 169.7656 -7.3594 Q169.7656 -6.9219 169.9531 -6.625 Q170.1406 -6.3281 170.5312 -6.0781 Q170.9219 -5.8281 171.9062 -5.4062 Q172.9062 -4.9688 173.4453 -4.6094 Q173.9844 -4.25 174.2891 -3.7734 Q174.5938 -3.2969 174.5938 -2.625 Q174.5938 -1.8594 174.3359 -1.3281 Q174.0781 -0.7969 173.5938 -0.4688 Q173.1094 -0.1406 172.4531 0.0078 Q171.7969 0.1562 171.0156 0.1562 Q170.1875 0.1562 169.4219 0.0312 Q168.6562 -0.0938 167.9219 -0.2812 L167.9219 -2.3281 L168.875 -2.3281 Q169.1406 -1.4219 169.6562 -1.0156 Q170.1719 -0.6094 171.0781 -0.6094 Q171.4375 -0.6094 171.7734 -0.6875 Q172.1094 -0.7656 172.375 -0.9375 Q172.6406 -1.1094 172.7969 -1.3984 Q172.9531 -1.6875 172.9531 -2.125 Q172.9531 -2.625 172.7578 -2.9375 Q172.5625 -3.25 172.1484 -3.5078 Q171.7344 -3.7656 170.7031 -4.2031 Q169.8125 -4.5781 169.2734 -4.9297 Q168.7344 -5.2812 168.4297 -5.7578 Q168.125 -6.2344 168.125 -6.8906 Q168.125 -7.7031 168.5625 -8.2891 Q169 -8.875 169.8203 -9.1875 Q170.6406 -9.5 171.7344 -9.5 Q172.375 -9.5 172.9766 -9.4375 Q173.5781 -9.375 174.4844 -9.1875 L174.4844 -7.2031 ZM176.3594 -8.8438 Q176.8438 -8.9219 177.1484 -9.1172 Q177.4531 -9.3125 177.625 -9.625 Q177.7969 -9.9375 177.8984 -10.3984 Q178 -10.8594 178.0938 -11.75 L179.4844 -11.75 L179.4844 -9.3438 L182.6406 -9.3438 L182.6406 -8.3438 L179.4844 -8.3438 L179.4844 -4 Q179.4844 -3.0625 179.5625 -2.5 Q179.6406 -1.9375 179.8594 -1.6172 Q180.0781 -1.2969 180.3516 -1.1641 Q180.625 -1.0312 181.0469 -1.0312 Q181.4375 -1.0312 181.7812 -1.1875 Q182.125 -1.3438 182.4531 -1.6562 L182.8906 -1.125 Q182.2031 -0.4531 181.5859 -0.1484 Q180.9688 0.1562 180.2969 0.1562 Q179.0312 0.1562 178.4219 -0.5938 Q177.8125 -1.3438 177.8125 -2.9375 L177.8125 -8.3438 L176.3594 -8.3438 L176.3594 -8.8438 ZM186.5781 -7.7188 L186.7188 -7.6875 Q187.2656 -8.3438 187.7188 -8.7188 Q188.1719 -9.0938 188.7031 -9.2969 Q189.2344 -9.5 189.9219 -9.5 Q190.4844 -9.5 190.9375 -9.4375 L190.9375 -7.2031 L189.8438 -7.2031 Q189.6094 -7.7188 189.3438 -7.9609 Q189.0781 -8.2031 188.6094 -8.2031 Q188.2656 -8.2031 187.9219 -8 Q187.5781 -7.7969 187.25 -7.4062 Q186.9219 -7.0156 186.8047 -6.6719 Q186.6875 -6.3281 186.6875 -5.8594 L186.6875 -2.4375 Q186.6875 -1.5469 186.7891 -1.2109 Q186.8906 -0.875 187.1406 -0.7188 Q187.3906 -0.5625 187.8906 -0.4844 L187.8906 0 L183.9531 0 L183.9531 -0.4844 Q184.3281 -0.5938 184.4922 -0.6797 Q184.6562 -0.7656 184.7734 -0.9219 Q184.8906 -1.0781 184.9453 -1.4062 Q185 -1.7344 185 -2.4062 L185 -6.6719 Q185 -7.2969 184.9844 -7.6797 Q184.9688 -8.0625 184.8516 -8.2891 Q184.7344 -8.5156 184.4922 -8.625 Q184.25 -8.7344 183.8125 -8.8125 L183.8125 -9.3281 L186.0938 -9.4219 L186.6875 -9.4219 L186.5781 -7.7188 ZM197.5938 -1.3906 L197.4531 -1.4375 Q196.5938 -0.5625 195.8516 -0.2031 Q195.1094 0.1562 194.2656 0.1562 Q193.5156 0.1562 192.9531 -0.1328 Q192.3906 -0.4219 192.0859 -0.9453 Q191.7812 -1.4688 191.7812 -2.1562 Q191.7812 -3.5781 193.1953 -4.3516 Q194.6094 -5.125 197.4219 -5.25 L197.4219 -5.8906 Q197.4219 -6.9062 197.2266 -7.4922 Q197.0312 -8.0781 196.6172 -8.3516 Q196.2031 -8.625 195.5 -8.625 Q194.7344 -8.625 194.2656 -8.2266 Q193.7969 -7.8281 193.5625 -7.0156 L192.2969 -7.0156 L192.2969 -8.2969 Q193.2344 -8.7812 193.8594 -9.0078 Q194.4844 -9.2344 195.1094 -9.3672 Q195.7344 -9.5 196.375 -9.5 Q197.3438 -9.5 197.9297 -9.1953 Q198.5156 -8.8906 198.8047 -8.2578 Q199.0938 -7.625 199.0938 -6.3438 L199.0938 -2.9375 Q199.0938 -2.2188 199.1016 -1.9219 Q199.1094 -1.625 199.1641 -1.3672 Q199.2188 -1.1094 199.3125 -0.9609 Q199.4062 -0.8125 199.6016 -0.7031 Q199.7969 -0.5938 200.2188 -0.4844 L200.2188 0 L197.5469 0 L197.5938 -1.3906 ZM197.4219 -4.4531 Q195.4375 -4.4375 194.4531 -3.9297 Q193.4688 -3.4219 193.4688 -2.3906 Q193.4688 -1.8438 193.6953 -1.5156 Q193.9219 -1.1875 194.2656 -1.0703 Q194.6094 -0.9531 195.0781 -0.9531 Q195.7344 -0.9531 196.2812 -1.2734 Q196.8281 -1.5938 197.125 -2.0938 Q197.4219 -2.5938 197.4219 -3.0781 L197.4219 -4.4531 ZM204.7344 -13.1719 L204.7344 -11.2656 L202.9375 -11.2656 L202.9375 -13.1719 L204.7344 -13.1719 ZM201.9531 -0.4844 Q202.3281 -0.5938 202.4922 -0.6797 Q202.6562 -0.7656 202.7656 -0.9219 Q202.875 -1.0781 202.9375 -1.4062 Q203 -1.7344 203 -2.4062 L203 -6.6719 Q203 -7.2969 202.9844 -7.6797 Q202.9688 -8.0625 202.8516 -8.2891 Q202.7344 -8.5156 202.4922 -8.625 Q202.25 -8.7344 201.8125 -8.8125 L201.8125 -9.3438 L204.0938 -9.4219 L204.6875 -9.4219 L204.6875 -2.4375 Q204.6875 -1.6094 204.7656 -1.2812 Q204.8438 -0.9531 205.0625 -0.7812 Q205.2812 -0.6094 205.7812 -0.4844 L205.7812 0 L201.9531 0 L201.9531 -0.4844 ZM217.4531 0 L213.6094 0 L213.6094 -0.4844 Q214 -0.5938 214.1641 -0.6797 Q214.3281 -0.7656 214.4375 -0.9219 Q214.5469 -1.0781 214.6094 -1.4062 Q214.6719 -1.7344 214.6719 -2.4062 L214.6719 -4.9688 Q214.6719 -5.6406 214.6328 -6.2031 Q214.5938 -6.7656 214.5 -7.1172 Q214.4062 -7.4688 214.2812 -7.6719 Q214.1562 -7.875 213.9688 -8.0156 Q213.7812 -8.1562 213.5469 -8.2422 Q213.3125 -8.3281 212.9375 -8.3281 Q212.5625 -8.3281 212.2188 -8.1719 Q211.875 -8.0156 211.4609 -7.6484 Q211.0469 -7.2812 210.8672 -6.9141 Q210.6875 -6.5469 210.6875 -6.0781 L210.6875 -2.4375 Q210.6875 -1.6094 210.7656 -1.2812 Q210.8438 -0.9531 211.0625 -0.7812 Q211.2812 -0.6094 211.7812 -0.4844 L211.7812 0 L207.9531 0 L207.9531 -0.4844 Q208.3281 -0.5938 208.4922 -0.6797 Q208.6562 -0.7656 208.7656 -0.9219 Q208.875 -1.0781 208.9375 -1.4062 Q209 -1.7344 209 -2.4062 L209 -6.6719 Q209 -7.2969 208.9844 -7.6797 Q208.9688 -8.0625 208.8516 -8.2891 Q208.7344 -8.5156 208.4922 -8.625 Q208.25 -8.7344 207.8125 -8.8125 L207.8125 -9.3438 L210.0938 -9.4219 L210.6875 -9.4219 L210.5781 -7.8281 L210.7188 -7.7969 Q211.4375 -8.5312 211.8828 -8.8438 Q212.3281 -9.1562 212.7812 -9.3281 Q213.2344 -9.5 213.75 -9.5 Q214.2812 -9.5 214.6953 -9.375 Q215.1094 -9.25 215.4219 -8.9922 Q215.7344 -8.7344 215.9453 -8.3594 Q216.1562 -7.9844 216.2578 -7.4609 Q216.3594 -6.9375 216.3594 -6.125 L216.3594 -2.4375 Q216.3594 -1.7656 216.3984 -1.4609 Q216.4375 -1.1562 216.5312 -0.9922 Q216.625 -0.8281 216.8125 -0.7188 Q217 -0.6094 217.4531 -0.4844 L217.4531 0 ZM227.9688 -8.3438 L225.6406 -8.3438 L225.6406 -2.4375 Q225.6406 -1.7812 225.7031 -1.4531 Q225.7656 -1.125 225.8828 -0.9531 Q226 -0.7812 226.2031 -0.6797 Q226.4062 -0.5781 226.8438 -0.4844 L226.8438 0 L222.8438 0 L222.8438 -0.4844 Q223.2812 -0.5938 223.4688 -0.7031 Q223.6562 -0.8125 223.7578 -0.9766 Q223.8594 -1.1406 223.9062 -1.4531 Q223.9531 -1.7656 223.9531 -2.4375 L223.9531 -8.3438 L222.7656 -8.3438 L222.7656 -8.8438 Q223.1406 -8.9062 223.2656 -8.9375 Q223.3906 -8.9688 223.5 -9.0391 Q223.6094 -9.1094 223.6953 -9.2344 Q223.7812 -9.3594 223.8438 -9.6094 Q223.9062 -9.8594 223.9375 -10.3125 Q224.0312 -11.375 224.3281 -12.0391 Q224.625 -12.7031 225.1953 -13.1719 Q225.7656 -13.6406 226.4141 -13.8359 Q227.0625 -14.0312 227.9531 -14.0312 Q228.7188 -14.0312 229.25 -13.9219 L229.25 -12.1562 L228.2969 -12.1562 Q228.1094 -12.7188 227.8594 -12.9609 Q227.6094 -13.2031 227.1562 -13.2031 Q226.8281 -13.2031 226.6094 -13.1172 Q226.3906 -13.0312 226.2109 -12.8438 Q226.0312 -12.6562 225.8984 -12.3438 Q225.7656 -12.0312 225.7031 -11.5703 Q225.6406 -11.1094 225.6406 -10.3594 L225.6406 -9.3438 L227.9688 -9.3438 L227.9688 -8.3438 ZM234.5938 -1.3906 L234.4531 -1.4375 Q233.5938 -0.5625 232.8516 -0.2031 Q232.1094 0.1562 231.2656 0.1562 Q230.5156 0.1562 229.9531 -0.1328 Q229.3906 -0.4219 229.0859 -0.9453 Q228.7812 -1.4688 228.7812 -2.1562 Q228.7812 -3.5781 230.1953 -4.3516 Q231.6094 -5.125 234.4219 -5.25 L234.4219 -5.8906 Q234.4219 -6.9062 234.2266 -7.4922 Q234.0312 -8.0781 233.6172 -8.3516 Q233.2031 -8.625 232.5 -8.625 Q231.7344 -8.625 231.2656 -8.2266 Q230.7969 -7.8281 230.5625 -7.0156 L229.2969 -7.0156 L229.2969 -8.2969 Q230.2344 -8.7812 230.8594 -9.0078 Q231.4844 -9.2344 232.1094 -9.3672 Q232.7344 -9.5 233.375 -9.5 Q234.3438 -9.5 234.9297 -9.1953 Q235.5156 -8.8906 235.8047 -8.2578 Q236.0938 -7.625 236.0938 -6.3438 L236.0938 -2.9375 Q236.0938 -2.2188 236.1016 -1.9219 Q236.1094 -1.625 236.1641 -1.3672 Q236.2188 -1.1094 236.3125 -0.9609 Q236.4062 -0.8125 236.6016 -0.7031 Q236.7969 -0.5938 237.2188 -0.4844 L237.2188 0 L234.5469 0 L234.5938 -1.3906 ZM234.4219 -4.4531 Q232.4375 -4.4375 231.4531 -3.9297 Q230.4688 -3.4219 230.4688 -2.3906 Q230.4688 -1.8438 230.6953 -1.5156 Q230.9219 -1.1875 231.2656 -1.0703 Q231.6094 -0.9531 232.0781 -0.9531 Q232.7344 -0.9531 233.2812 -1.2734 Q233.8281 -1.5938 234.125 -2.0938 Q234.4219 -2.5938 234.4219 -3.0781 L234.4219 -4.4531 ZM241.7344 -13.1719 L241.7344 -11.2656 L239.9375 -11.2656 L239.9375 -13.1719 L241.7344 -13.1719 ZM238.9531 -0.4844 Q239.3281 -0.5938 239.4922 -0.6797 Q239.6562 -0.7656 239.7656 -0.9219 Q239.875 -1.0781 239.9375 -1.4062 Q240 -1.7344 240 -2.4062 L240 -6.6719 Q240 -7.2969 239.9844 -7.6797 Q239.9688 -8.0625 239.8516 -8.2891 Q239.7344 -8.5156 239.4922 -8.625 Q239.25 -8.7344 238.8125 -8.8125 L238.8125 -9.3438 L241.0938 -9.4219 L241.6875 -9.4219 L241.6875 -2.4375 Q241.6875 -1.6094 241.7656 -1.2812 Q241.8438 -0.9531 242.0625 -0.7812 Q242.2812 -0.6094 242.7812 -0.4844 L242.7812 0 L238.9531 0 L238.9531 -0.4844 ZM247.5625 -2.4375 Q247.5625 -1.6094 247.6406 -1.2812 Q247.7188 -0.9531 247.9375 -0.7812 Q248.1562 -0.6094 248.6562 -0.4844 L248.6562 0 L244.7656 0 L244.7656 -0.4844 Q245.2656 -0.6094 245.4531 -0.7422 Q245.6406 -0.875 245.7266 -1.0703 Q245.8125 -1.2656 245.8438 -1.5938 Q245.875 -1.9219 245.875 -2.4375 L245.875 -10.6094 Q245.875 -11.5469 245.8594 -11.9219 Q245.8438 -12.2969 245.7812 -12.5547 Q245.7188 -12.8125 245.6094 -12.9609 Q245.5 -13.1094 245.3047 -13.1953 Q245.1094 -13.2812 244.6094 -13.375 L244.6094 -13.875 L246.9688 -13.9688 L247.5625 -13.9688 L247.5625 -2.4375 ZM249.7188 -9.3438 L252.5 -9.3438 L252.5 -4.3594 Q252.5 -3.2188 252.5859 -2.625 Q252.6719 -2.0312 252.8516 -1.7266 Q253.0312 -1.4219 253.3516 -1.2188 Q253.6719 -1.0156 254.2344 -1.0156 Q254.6094 -1.0156 254.9531 -1.1641 Q255.2969 -1.3125 255.7109 -1.6797 Q256.125 -2.0469 256.3047 -2.4062 Q256.4844 -2.7656 256.4844 -3.25 L256.4844 -6.9062 Q256.4844 -7.4688 256.4609 -7.75 Q256.4375 -8.0312 256.3672 -8.2031 Q256.2969 -8.375 256.2031 -8.4766 Q256.1094 -8.5781 255.9375 -8.6719 Q255.7656 -8.7656 255.3906 -8.8594 L255.3906 -9.3438 L258.1719 -9.3438 L258.1719 -2.6719 Q258.1719 -1.9219 258.2031 -1.5859 Q258.2344 -1.25 258.3281 -1.0547 Q258.4219 -0.8594 258.625 -0.7344 Q258.8281 -0.6094 259.3594 -0.5156 L259.3594 0 L257.125 0.0938 L256.5312 0.0938 L256.5938 -1.5 L256.4375 -1.5469 Q255.625 -0.6719 254.8906 -0.2578 Q254.1562 0.1562 253.4219 0.1562 Q252.5312 0.1562 251.9531 -0.1953 Q251.375 -0.5469 251.0938 -1.2422 Q250.8125 -1.9375 250.8125 -3.2188 L250.8125 -6.9062 Q250.8125 -7.7188 250.75 -8.0312 Q250.6875 -8.3438 250.5 -8.5234 Q250.3125 -8.7031 249.7188 -8.8594 L249.7188 -9.3438 ZM263.5781 -7.7188 L263.7188 -7.6875 Q264.2656 -8.3438 264.7188 -8.7188 Q265.1719 -9.0938 265.7031 -9.2969 Q266.2344 -9.5 266.9219 -9.5 Q267.4844 -9.5 267.9375 -9.4375 L267.9375 -7.2031 L266.8438 -7.2031 Q266.6094 -7.7188 266.3438 -7.9609 Q266.0781 -8.2031 265.6094 -8.2031 Q265.2656 -8.2031 264.9219 -8 Q264.5781 -7.7969 264.25 -7.4062 Q263.9219 -7.0156 263.8047 -6.6719 Q263.6875 -6.3281 263.6875 -5.8594 L263.6875 -2.4375 Q263.6875 -1.5469 263.7891 -1.2109 Q263.8906 -0.875 264.1406 -0.7188 Q264.3906 -0.5625 264.8906 -0.4844 L264.8906 0 L260.9531 0 L260.9531 -0.4844 Q261.3281 -0.5938 261.4922 -0.6797 Q261.6562 -0.7656 261.7734 -0.9219 Q261.8906 -1.0781 261.9453 -1.4062 Q262 -1.7344 262 -2.4062 L262 -6.6719 Q262 -7.2969 261.9844 -7.6797 Q261.9688 -8.0625 261.8516 -8.2891 Q261.7344 -8.5156 261.4922 -8.625 Q261.25 -8.7344 260.8125 -8.8125 L260.8125 -9.3281 L263.0938 -9.4219 L263.6875 -9.4219 L263.5781 -7.7188 ZM276.75 -1.6562 Q276.125 -1 275.6016 -0.6328 Q275.0781 -0.2656 274.4531 -0.0547 Q273.8281 0.1562 273.0781 0.1562 Q271.0625 0.1562 270.0391 -1.0469 Q269.0156 -2.25 269.0156 -4.6094 Q269.0156 -6.0625 269.5391 -7.1797 Q270.0625 -8.2969 271.0312 -8.8984 Q272 -9.5 273.25 -9.5 Q274.2344 -9.5 274.9297 -9.1875 Q275.625 -8.875 276.0391 -8.3359 Q276.4531 -7.7969 276.6875 -6.9688 Q276.9219 -6.1406 276.9531 -4.8125 L270.7969 -4.8125 L270.7969 -4.6406 Q270.7969 -3.4844 271.0547 -2.7031 Q271.3125 -1.9219 271.9062 -1.4766 Q272.5 -1.0312 273.4375 -1.0312 Q274.2344 -1.0312 274.875 -1.3281 Q275.5156 -1.625 276.1562 -2.2969 L276.75 -1.6562 ZM275.1094 -5.625 Q275.0469 -6.6875 274.8438 -7.3516 Q274.6406 -8.0156 274.2344 -8.375 Q273.8281 -8.7344 273.1562 -8.7344 Q272.1562 -8.7344 271.5547 -7.9297 Q270.9531 -7.125 270.8438 -5.625 L275.1094 -5.625 ZM290.2188 -9.1094 L290.2188 -7.0781 L288.9844 -7.0781 Q288.8125 -7.7031 288.5703 -8.0703 Q288.3281 -8.4375 288.0078 -8.5859 Q287.6875 -8.7344 287.2031 -8.7344 Q286.5156 -8.7344 285.9922 -8.2969 Q285.4688 -7.8594 285.1641 -6.9609 Q284.8594 -6.0625 284.8594 -4.75 Q284.8594 -3.9219 284.9766 -3.2344 Q285.0938 -2.5469 285.375 -2.0625 Q285.6562 -1.5781 286.125 -1.3047 Q286.5938 -1.0312 287.2812 -1.0312 Q287.9531 -1.0312 288.5391 -1.2891 Q289.125 -1.5469 289.75 -2.2188 L290.2969 -1.5781 Q289.7969 -1.0312 289.4219 -0.7344 Q289.0469 -0.4375 288.6094 -0.2344 Q288.1719 -0.0312 287.75 0.0625 Q287.3281 0.1562 286.8281 0.1562 Q284.9844 0.1562 284.0078 -1.0703 Q283.0312 -2.2969 283.0312 -4.6094 Q283.0312 -6.0625 283.5781 -7.1797 Q284.125 -8.2969 285.1094 -8.8984 Q286.0938 -9.5 287.375 -9.5 Q288.1875 -9.5 288.8672 -9.4062 Q289.5469 -9.3125 290.2188 -9.1094 ZM294.5781 -7.7188 L294.7188 -7.6875 Q295.2656 -8.3438 295.7188 -8.7188 Q296.1719 -9.0938 296.7031 -9.2969 Q297.2344 -9.5 297.9219 -9.5 Q298.4844 -9.5 298.9375 -9.4375 L298.9375 -7.2031 L297.8438 -7.2031 Q297.6094 -7.7188 297.3438 -7.9609 Q297.0781 -8.2031 296.6094 -8.2031 Q296.2656 -8.2031 295.9219 -8 Q295.5781 -7.7969 295.25 -7.4062 Q294.9219 -7.0156 294.8047 -6.6719 Q294.6875 -6.3281 294.6875 -5.8594 L294.6875 -2.4375 Q294.6875 -1.5469 294.7891 -1.2109 Q294.8906 -0.875 295.1406 -0.7188 Q295.3906 -0.5625 295.8906 -0.4844 L295.8906 0 L291.9531 0 L291.9531 -0.4844 Q292.3281 -0.5938 292.4922 -0.6797 Q292.6562 -0.7656 292.7734 -0.9219 Q292.8906 -1.0781 292.9453 -1.4062 Q293 -1.7344 293 -2.4062 L293 -6.6719 Q293 -7.2969 292.9844 -7.6797 Q292.9688 -8.0625 292.8516 -8.2891 Q292.7344 -8.5156 292.4922 -8.625 Q292.25 -8.7344 291.8125 -8.8125 L291.8125 -9.3281 L294.0938 -9.4219 L294.6875 -9.4219 L294.5781 -7.7188 ZM302.7344 -13.1719 L302.7344 -11.2656 L300.9375 -11.2656 L300.9375 -13.1719 L302.7344 -13.1719 ZM299.9531 -0.4844 Q300.3281 -0.5938 300.4922 -0.6797 Q300.6562 -0.7656 300.7656 -0.9219 Q300.875 -1.0781 300.9375 -1.4062 Q301 -1.7344 301 -2.4062 L301 -6.6719 Q301 -7.2969 300.9844 -7.6797 Q300.9688 -8.0625 300.8516 -8.2891 Q300.7344 -8.5156 300.4922 -8.625 Q300.25 -8.7344 299.8125 -8.8125 L299.8125 -9.3438 L302.0938 -9.4219 L302.6875 -9.4219 L302.6875 -2.4375 Q302.6875 -1.6094 302.7656 -1.2812 Q302.8438 -0.9531 303.0625 -0.7812 Q303.2812 -0.6094 303.7812 -0.4844 L303.7812 0 L299.9531 0 L299.9531 -0.4844 ZM305.3594 -8.8438 Q305.8438 -8.9219 306.1484 -9.1172 Q306.4531 -9.3125 306.625 -9.625 Q306.7969 -9.9375 306.8984 -10.3984 Q307 -10.8594 307.0938 -11.75 L308.4844 -11.75 L308.4844 -9.3438 L311.6406 -9.3438 L311.6406 -8.3438 L308.4844 -8.3438 L308.4844 -4 Q308.4844 -3.0625 308.5625 -2.5 Q308.6406 -1.9375 308.8594 -1.6172 Q309.0781 -1.2969 309.3516 -1.1641 Q309.625 -1.0312 310.0469 -1.0312 Q310.4375 -1.0312 310.7812 -1.1875 Q311.125 -1.3438 311.4531 -1.6562 L311.8906 -1.125 Q311.2031 -0.4531 310.5859 -0.1484 Q309.9688 0.1562 309.2969 0.1562 Q308.0312 0.1562 307.4219 -0.5938 Q306.8125 -1.3438 306.8125 -2.9375 L306.8125 -8.3438 L305.3594 -8.3438 L305.3594 -8.8438 ZM320.75 -1.6562 Q320.125 -1 319.6016 -0.6328 Q319.0781 -0.2656 318.4531 -0.0547 Q317.8281 0.1562 317.0781 0.1562 Q315.0625 0.1562 314.0391 -1.0469 Q313.0156 -2.25 313.0156 -4.6094 Q313.0156 -6.0625 313.5391 -7.1797 Q314.0625 -8.2969 315.0312 -8.8984 Q316 -9.5 317.25 -9.5 Q318.2344 -9.5 318.9297 -9.1875 Q319.625 -8.875 320.0391 -8.3359 Q320.4531 -7.7969 320.6875 -6.9688 Q320.9219 -6.1406 320.9531 -4.8125 L314.7969 -4.8125 L314.7969 -4.6406 Q314.7969 -3.4844 315.0547 -2.7031 Q315.3125 -1.9219 315.9062 -1.4766 Q316.5 -1.0312 317.4375 -1.0312 Q318.2344 -1.0312 318.875 -1.3281 Q319.5156 -1.625 320.1562 -2.2969 L320.75 -1.6562 ZM319.1094 -5.625 Q319.0469 -6.6875 318.8438 -7.3516 Q318.6406 -8.0156 318.2344 -8.375 Q317.8281 -8.7344 317.1562 -8.7344 Q316.1562 -8.7344 315.5547 -7.9297 Q314.9531 -7.125 314.8438 -5.625 L319.1094 -5.625 ZM325.5781 -7.7188 L325.7188 -7.6875 Q326.2656 -8.3438 326.7188 -8.7188 Q327.1719 -9.0938 327.7031 -9.2969 Q328.2344 -9.5 328.9219 -9.5 Q329.4844 -9.5 329.9375 -9.4375 L329.9375 -7.2031 L328.8438 -7.2031 Q328.6094 -7.7188 328.3438 -7.9609 Q328.0781 -8.2031 327.6094 -8.2031 Q327.2656 -8.2031 326.9219 -8 Q326.5781 -7.7969 326.25 -7.4062 Q325.9219 -7.0156 325.8047 -6.6719 Q325.6875 -6.3281 325.6875 -5.8594 L325.6875 -2.4375 Q325.6875 -1.5469 325.7891 -1.2109 Q325.8906 -0.875 326.1406 -0.7188 Q326.3906 -0.5625 326.8906 -0.4844 L326.8906 0 L322.9531 0 L322.9531 -0.4844 Q323.3281 -0.5938 323.4922 -0.6797 Q323.6562 -0.7656 323.7734 -0.9219 Q323.8906 -1.0781 323.9453 -1.4062 Q324 -1.7344 324 -2.4062 L324 -6.6719 Q324 -7.2969 323.9844 -7.6797 Q323.9688 -8.0625 323.8516 -8.2891 Q323.7344 -8.5156 323.4922 -8.625 Q323.25 -8.7344 322.8125 -8.8125 L322.8125 -9.3281 L325.0938 -9.4219 L325.6875 -9.4219 L325.5781 -7.7188 ZM333.7344 -13.1719 L333.7344 -11.2656 L331.9375 -11.2656 L331.9375 -13.1719 L333.7344 -13.1719 ZM330.9531 -0.4844 Q331.3281 -0.5938 331.4922 -0.6797 Q331.6562 -0.7656 331.7656 -0.9219 Q331.875 -1.0781 331.9375 -1.4062 Q332 -1.7344 332 -2.4062 L332 -6.6719 Q332 -7.2969 331.9844 -7.6797 Q331.9688 -8.0625 331.8516 -8.2891 Q331.7344 -8.5156 331.4922 -8.625 Q331.25 -8.7344 330.8125 -8.8125 L330.8125 -9.3438 L333.0938 -9.4219 L333.6875 -9.4219 L333.6875 -2.4375 Q333.6875 -1.6094 333.7656 -1.2812 Q333.8438 -0.9531 334.0625 -0.7812 Q334.2812 -0.6094 334.7812 -0.4844 L334.7812 0 L330.9531 0 L330.9531 -0.4844 ZM341.2031 0.1562 Q339.1719 0.1562 338.1016 -1.0391 Q337.0312 -2.2344 337.0312 -4.5781 Q337.0312 -6.1875 337.5938 -7.3047 Q338.1562 -8.4219 339.1328 -8.9609 Q340.1094 -9.5 341.3594 -9.5 Q343.4375 -9.5 344.5156 -8.2891 Q345.5938 -7.0781 345.5938 -4.7969 Q345.5938 -3.1719 345.0547 -2.0625 Q344.5156 -0.9531 343.5312 -0.3984 Q342.5469 0.1562 341.2031 0.1562 ZM338.875 -4.7812 Q338.875 -2.7812 339.5156 -1.6953 Q340.1562 -0.6094 341.3438 -0.6094 Q342 -0.6094 342.4609 -0.9297 Q342.9219 -1.25 343.2031 -1.7891 Q343.4844 -2.3281 343.6172 -3.0312 Q343.75 -3.7344 343.75 -4.5156 Q343.75 -5.9531 343.4297 -6.8984 Q343.1094 -7.8438 342.5625 -8.2891 Q342.0156 -8.7344 341.3125 -8.7344 Q340.125 -8.7344 339.5 -7.7109 Q338.875 -6.6875 338.875 -4.7812 ZM357.4531 0 L353.6094 0 L353.6094 -0.4844 Q354 -0.5938 354.1641 -0.6797 Q354.3281 -0.7656 354.4375 -0.9219 Q354.5469 -1.0781 354.6094 -1.4062 Q354.6719 -1.7344 354.6719 -2.4062 L354.6719 -4.9688 Q354.6719 -5.6406 354.6328 -6.2031 Q354.5938 -6.7656 354.5 -7.1172 Q354.4062 -7.4688 354.2812 -7.6719 Q354.1562 -7.875 353.9688 -8.0156 Q353.7812 -8.1562 353.5469 -8.2422 Q353.3125 -8.3281 352.9375 -8.3281 Q352.5625 -8.3281 352.2188 -8.1719 Q351.875 -8.0156 351.4609 -7.6484 Q351.0469 -7.2812 350.8672 -6.9141 Q350.6875 -6.5469 350.6875 -6.0781 L350.6875 -2.4375 Q350.6875 -1.6094 350.7656 -1.2812 Q350.8438 -0.9531 351.0625 -0.7812 Q351.2812 -0.6094 351.7812 -0.4844 L351.7812 0 L347.9531 0 L347.9531 -0.4844 Q348.3281 -0.5938 348.4922 -0.6797 Q348.6562 -0.7656 348.7656 -0.9219 Q348.875 -1.0781 348.9375 -1.4062 Q349 -1.7344 349 -2.4062 L349 -6.6719 Q349 -7.2969 348.9844 -7.6797 Q348.9688 -8.0625 348.8516 -8.2891 Q348.7344 -8.5156 348.4922 -8.625 Q348.25 -8.7344 347.8125 -8.8125 L347.8125 -9.3438 L350.0938 -9.4219 L350.6875 -9.4219 L350.5781 -7.8281 L350.7188 -7.7969 Q351.4375 -8.5312 351.8828 -8.8438 Q352.3281 -9.1562 352.7812 -9.3281 Q353.2344 -9.5 353.75 -9.5 Q354.2812 -9.5 354.6953 -9.375 Q355.1094 -9.25 355.4219 -8.9922 Q355.7344 -8.7344 355.9453 -8.3594 Q356.1562 -7.9844 356.2578 -7.4609 Q356.3594 -6.9375 356.3594 -6.125 L356.3594 -2.4375 Q356.3594 -1.7656 356.3984 -1.4609 Q356.4375 -1.1562 356.5312 -0.9922 Q356.625 -0.8281 356.8125 -0.7188 Q357 -0.6094 357.4531 -0.4844 L357.4531 0 Z" stroke="none"/></g></g></svg>