<?xml version="1.0" encoding="UTF-8" standalone="no"?><svg xmlns="http://www.w3.org/2000/svg" xmlns:xlink="http://www.w3.org/1999/xlink" stroke-dasharray="none" shape-rendering="auto" font-family="'Dialog'" width="308.812600" text-rendering="auto" fill-opacity="1" contentScriptType="text/ecmascript" color-interpolation="auto" color-rendering="auto" preserveAspectRatio="xMidYMid meet" font-size="12" fill="black" stroke="black" image-rendering="auto" stroke-miterlimit="10" zoomAndPan="magnify" version="1.0" stroke-linecap="square" stroke-linejoin="miter" contentStyleType="text/css" font-style="normal" height="95" stroke-width="1" stroke-dashoffset="0" font-weight="normal" stroke-opacity="1" y="-40.000000"><!--Converted from MathML using JEuclid--><defs id="genericDefs"/><g><g text-rendering="optimizeLegibility" transform="translate(0,19.5639)" color-rendering="optimizeQuality" color-interpolation="linearRGB" image-rendering="optimizeQuality"><path d="M8.1406 -8.8594 L9.0469 -9.5 L9.6719 -9.3438 L8.1719 -2.7188 Q8.0312 -2.125 7.9844 -1.8125 Q7.9375 -1.5 7.9375 -1.2969 Q7.9375 -0.8906 8.1641 -0.7109 Q8.3906 -0.5312 9.0312 -0.4844 L8.9375 0 L6.1406 0 L6.7656 -2.4531 L6.625 -2.4844 Q5.6875 -1.125 4.8516 -0.4922 Q4.0156 0.1406 3.0781 0.1406 Q2 0.1406 1.4141 -0.6641 Q0.8281 -1.4688 0.8281 -2.9375 Q0.8281 -3.875 1.0391 -4.8203 Q1.25 -5.7656 1.6875 -6.6094 Q2.125 -7.4531 2.7266 -8.0938 Q3.3281 -8.7344 4.125 -9.1172 Q4.9219 -9.5 5.8594 -9.5 Q6.4688 -9.5 7.0156 -9.3594 Q7.5625 -9.2188 8.1406 -8.8594 ZM7.2812 -5.9531 Q7.375 -6.3438 7.4062 -6.6406 Q7.4375 -6.9375 7.4375 -7.2812 Q7.4375 -8.0312 7.1094 -8.3828 Q6.7812 -8.7344 6.0312 -8.7344 Q5.625 -8.7344 5.2578 -8.6016 Q4.8906 -8.4688 4.5078 -8.1641 Q4.125 -7.8594 3.7734 -7.3594 Q3.4219 -6.8594 3.1406 -6.1484 Q2.8594 -5.4375 2.7031 -4.6172 Q2.5469 -3.7969 2.5469 -3.0312 Q2.5469 -2.0156 2.8281 -1.5078 Q3.1094 -1 3.7656 -1 Q4.0625 -1 4.3906 -1.1406 Q4.7188 -1.2812 5.1172 -1.6484 Q5.5156 -2.0156 6.0312 -2.7188 Q6.4844 -3.375 6.75 -4.0156 Q7.0156 -4.6562 7.2031 -5.5312 L7.2812 -5.9531 Z" stroke="none"/></g><g text-rendering="optimizeLegibility" transform="translate(10.4531,19.5639)" color-rendering="optimizeQuality" color-interpolation="linearRGB" image-rendering="optimizeQuality"><path d="M1.2188 -7.0625 L1.2188 -8.4219 L9.8594 -8.4219 L9.8594 -7.0625 L1.2188 -7.0625 ZM1.2188 -3.0156 L1.2188 -4.3594 L9.8594 -4.3594 L9.8594 -3.0156 L1.2188 -3.0156 Z" stroke="none"/></g><g text-rendering="optimizeLegibility" transform="translate(22.4531,19.5639)" color-rendering="optimizeQuality" color-interpolation="linearRGB" image-rendering="optimizeQuality"><path d="M7.1719 -7.4844 L7.1562 -7.4062 Q9.5 -6.8594 9.5 -4.5938 Q9.5 -2.5469 8.1797 -1.1953 Q6.8594 0.1562 5.0156 0.1562 Q3.4688 0.1562 2.5781 -0.7188 L1.4531 4.2188 L-0.1406 4.2188 L2.6562 -8.5156 Q3.2812 -11.3438 4.4844 -12.6875 Q5.6875 -14.0312 7.7031 -14.0312 Q9.0938 -14.0312 9.9297 -13.3281 Q10.7656 -12.625 10.7656 -11.3906 Q10.7656 -8.7188 7.1719 -7.4844 ZM5.4219 -6.9844 L5.5938 -7.6719 Q6.9219 -7.6719 7.9922 -8.7812 Q9.0625 -9.8906 9.0625 -11.6094 Q9.0625 -12.3438 8.6797 -12.8047 Q8.2969 -13.2656 7.5938 -13.2656 Q6.375 -13.2656 5.5703 -12.0469 Q4.7656 -10.8281 4.2344 -8.375 L2.9219 -2.25 Q2.875 -2.0781 2.875 -1.9375 Q2.875 -1.4531 3.4453 -1.0312 Q4.0156 -0.6094 4.7344 -0.6094 Q5.9844 -0.6094 6.8828 -1.7422 Q7.7812 -2.875 7.7812 -4.4844 Q7.7812 -6.9688 5.4219 -6.9844 Z" stroke="none"/></g><g text-rendering="optimizeLegibility" transform="translate(33.2188,10.2514)" color-rendering="optimizeQuality" color-interpolation="linearRGB" image-rendering="optimizeQuality"><path d="M4.7969 -1.0938 Q5.1406 -1.0938 5.3438 -1.1328 Q5.5469 -1.1719 5.6719 -1.2734 Q5.7969 -1.375 5.8672 -1.5234 Q5.9375 -1.6719 6.0469 -2 L6.625 -2 L6.5156 0 L0.875 0 L0.875 -0.3281 Q1.1719 -1.0469 1.6719 -1.7969 Q2.1719 -2.5469 3.0938 -3.5625 Q3.8906 -4.4375 4.2344 -4.8906 Q4.6094 -5.3906 4.7969 -5.75 Q4.9844 -6.1094 5.0703 -6.4219 Q5.1562 -6.7344 5.1562 -7.0625 Q5.1562 -7.5781 4.9922 -7.9688 Q4.8281 -8.3594 4.4922 -8.5859 Q4.1562 -8.8125 3.6406 -8.8125 Q2.3594 -8.8125 1.9219 -7.3906 L1.0938 -7.3906 L1.0938 -8.7031 Q1.9219 -9.0938 2.6406 -9.2656 Q3.3594 -9.4375 3.9375 -9.4375 Q5.2031 -9.4375 5.8516 -8.8828 Q6.5 -8.3281 6.5 -7.2656 Q6.5 -6.9062 6.4297 -6.6016 Q6.3594 -6.2969 6.2031 -6 Q6.0469 -5.7031 5.7891 -5.3594 Q5.5312 -5.0156 5.2188 -4.6641 Q4.9062 -4.3125 4.125 -3.5 Q2.8281 -2.125 2.2188 -1.0938 L4.7969 -1.0938 Z" stroke="none"/></g><g text-rendering="optimizeLegibility" transform="translate(40.625,19.5639)" color-rendering="optimizeQuality" color-interpolation="linearRGB" image-rendering="optimizeQuality"><path d="M6.25 -5.0469 L6.25 -1.3438 L4.8125 -1.3438 L4.8125 -5.0469 L1.2188 -5.0469 L1.2188 -6.3906 L4.8125 -6.3906 L4.8125 -10.0938 L6.25 -10.0938 L6.25 -6.3906 L9.8594 -6.3906 L9.8594 -5.0469 L6.25 -5.0469 Z" stroke="none"/></g><g text-rendering="optimizeLegibility" transform="translate(53.5625,19.5639)" color-rendering="optimizeQuality" color-interpolation="linearRGB" image-rendering="optimizeQuality"><path d="M7.0781 4.2188 Q5.5625 4.2188 4.6797 3.8281 Q3.7969 3.4375 3.4141 2.6641 Q3.0312 1.8906 3.0312 0.5781 L3.0312 -2.25 Q3.0312 -3.1094 2.8125 -3.5938 Q2.5938 -4.0781 2.1562 -4.2734 Q1.7188 -4.4688 0.9219 -4.4688 L0.9219 -5.2812 Q1.7031 -5.2812 2.1484 -5.4766 Q2.5938 -5.6719 2.8125 -6.1484 Q3.0312 -6.625 3.0312 -7.5 L3.0312 -10.3281 Q3.0312 -11.625 3.4141 -12.4062 Q3.7969 -13.1875 4.6797 -13.5781 Q5.5625 -13.9688 7.0781 -13.9688 L7.3281 -13.9688 L7.3281 -13.1719 Q6.5469 -13.1719 6.1641 -13.0938 Q5.7812 -13.0156 5.5391 -12.8438 Q5.2969 -12.6719 5.1406 -12.4141 Q4.9844 -12.1562 4.8984 -11.6875 Q4.8125 -11.2188 4.8125 -10.4375 L4.8125 -8.5469 Q4.8125 -7.5625 4.6406 -6.8984 Q4.4688 -6.2344 4.0312 -5.7578 Q3.5938 -5.2812 2.8281 -4.9688 L2.8281 -4.7812 Q3.5781 -4.4844 4.0312 -3.9844 Q4.4844 -3.4844 4.6484 -2.8203 Q4.8125 -2.1562 4.8125 -1.2031 L4.8125 0.6875 Q4.8125 1.4688 4.8984 1.9375 Q4.9844 2.4062 5.1406 2.6719 Q5.2969 2.9375 5.5391 3.1016 Q5.7812 3.2656 6.1641 3.3438 Q6.5469 3.4219 7.3281 3.4219 L7.3281 4.2188 L7.0781 4.2188 Z" stroke="none"/></g><g text-rendering="optimizeLegibility" transform="translate(63.3906,19.5639)" color-rendering="optimizeQuality" color-interpolation="linearRGB" image-rendering="optimizeQuality"><path d="M9.75 0 L-0.5 0 L-0.375 -0.6094 L7.3594 -13.4844 L8.7344 -13.4844 L9.8906 -0.6094 L9.75 0 ZM7.6406 -7.0625 Q7.4219 -10.0625 7.4219 -11.3125 L7.3125 -11.3125 L1.5625 -1.4688 L8.0312 -1.4688 L7.6406 -7.0625 Z" stroke="none"/></g><g text-rendering="optimizeLegibility" transform="translate(73.2812,19.5639)" color-rendering="optimizeQuality" color-interpolation="linearRGB" image-rendering="optimizeQuality"><path d="M1.5 -9.3438 L4.5781 -9.3438 L3.3281 -4.3594 Q3.1875 -3.8125 3.0859 -3.2734 Q2.9844 -2.7344 2.9844 -2.2812 Q2.9844 -1.5938 3.2266 -1.2891 Q3.4688 -0.9844 3.9688 -0.9844 Q4.3906 -0.9844 4.8828 -1.3125 Q5.375 -1.6406 5.9219 -2.3281 Q6.4688 -3.0156 6.7812 -3.6328 Q7.0938 -4.25 7.2812 -5.0938 L8.1719 -9.3438 L9.8594 -9.3438 L8.375 -2.6719 Q8.3125 -2.4062 8.2344 -1.9766 Q8.1562 -1.5469 8.1562 -1.2656 Q8.1562 -0.8594 8.3828 -0.6875 Q8.6094 -0.5156 9.2344 -0.4844 L9.125 0 L6.3438 0 L6.9688 -2.4531 L6.8438 -2.4844 Q5.8906 -1.1406 5.0078 -0.4922 Q4.125 0.1562 3.2188 0.1562 Q2.2812 0.1562 1.7891 -0.3672 Q1.2969 -0.8906 1.2969 -1.9219 Q1.2969 -2.2031 1.3516 -2.6016 Q1.4062 -3 1.5 -3.4219 L2.3281 -6.8906 Q2.4219 -7.3281 2.4531 -7.5781 Q2.4844 -7.8281 2.4844 -8.0156 Q2.4844 -8.4531 2.25 -8.625 Q2.0156 -8.7969 1.4219 -8.8438 L1.5 -9.3438 Z" stroke="none"/></g><g text-rendering="optimizeLegibility" transform="translate(83.1406,25.2162)" color-rendering="optimizeQuality" color-interpolation="linearRGB" image-rendering="optimizeQuality"><path d="M3.8281 -9.2188 L3.5156 -7.8906 L2.2969 -7.8906 L2.625 -9.2188 L3.8281 -9.2188 ZM2.1406 -1.7031 Q2.0625 -1.3594 2.0469 -1.2031 Q2.0312 -1.0469 2.0312 -0.9375 Q2.0312 -0.7188 2.0938 -0.6094 Q2.1562 -0.5 2.3047 -0.4375 Q2.4531 -0.375 2.7812 -0.3281 L2.7188 0 L0.5938 0 L1.625 -4.6094 Q1.7188 -5 1.75 -5.2344 Q1.7812 -5.4688 1.7812 -5.6406 Q1.7812 -5.8281 1.7266 -5.9375 Q1.6719 -6.0469 1.5312 -6.1016 Q1.3906 -6.1562 1.0625 -6.1719 L1.1406 -6.5312 L2.7969 -6.5938 L3.2031 -6.5938 L2.1406 -1.7031 Z" stroke="none"/></g><g text-rendering="optimizeLegibility" transform="translate(83.1406,13.9975)" color-rendering="optimizeQuality" color-interpolation="linearRGB" image-rendering="optimizeQuality"><path d="M2.5781 -1.9844 Q2.4844 -1.5938 2.4531 -1.3516 Q2.4219 -1.1094 2.4219 -0.9219 Q2.4219 -0.6094 2.5781 -0.4844 Q2.7344 -0.3594 3.0938 -0.3281 L3.0156 0 L0.2812 0 L0.3594 -0.3281 Q0.625 -0.375 0.75 -0.4688 Q0.875 -0.5625 0.9688 -0.7266 Q1.0625 -0.8906 1.1328 -1.125 Q1.2031 -1.3594 1.3594 -2.0312 L2.5156 -7.2969 Q2.5938 -7.6094 2.6328 -7.9062 Q2.6719 -8.2031 2.6719 -8.4062 Q2.6719 -8.7188 2.5078 -8.8438 Q2.3438 -8.9688 2 -9 L2.0781 -9.3281 L4.8125 -9.3281 L4.7344 -9 Q4.4844 -8.9375 4.3672 -8.875 Q4.25 -8.8125 4.1562 -8.6719 Q4.0625 -8.5312 3.9766 -8.2422 Q3.8906 -7.9531 3.7344 -7.2969 L2.5781 -1.9844 Z" stroke="none"/></g><g text-rendering="optimizeLegibility" transform="translate(89.5312,19.5639)" color-rendering="optimizeQuality" color-interpolation="linearRGB" image-rendering="optimizeQuality"><path d="M0.6719 -13.9688 Q2.1875 -13.9688 3.0703 -13.5781 Q3.9531 -13.1875 4.3281 -12.4062 Q4.7031 -11.625 4.7031 -10.3281 L4.7031 -7.5 Q4.7031 -6.625 4.9297 -6.1484 Q5.1562 -5.6719 5.5938 -5.4766 Q6.0312 -5.2812 6.8125 -5.2812 L6.8125 -4.4688 Q6.0312 -4.4688 5.5859 -4.2734 Q5.1406 -4.0781 4.9219 -3.5938 Q4.7031 -3.1094 4.7031 -2.25 L4.7031 0.5781 Q4.7031 1.8906 4.3281 2.6641 Q3.9531 3.4375 3.0703 3.8281 Q2.1875 4.2188 0.6719 4.2188 L0.4219 4.2188 L0.4219 3.4219 Q1.1875 3.4219 1.5781 3.3438 Q1.9688 3.2656 2.2031 3.1016 Q2.4375 2.9375 2.5938 2.6719 Q2.75 2.4062 2.8438 1.9375 Q2.9375 1.4688 2.9375 0.6875 L2.9375 -1.2031 Q2.9375 -2.1875 3.1016 -2.8438 Q3.2656 -3.5 3.7109 -3.9844 Q4.1562 -4.4688 4.9062 -4.7812 L4.9062 -4.9688 Q4.1719 -5.2656 3.7188 -5.7656 Q3.2656 -6.2656 3.1016 -6.9297 Q2.9375 -7.5938 2.9375 -8.5469 L2.9375 -10.4375 Q2.9375 -11.2188 2.8438 -11.6875 Q2.75 -12.1562 2.5938 -12.4141 Q2.4375 -12.6719 2.2031 -12.8438 Q1.9688 -13.0156 1.5781 -13.0938 Q1.1875 -13.1719 0.4219 -13.1719 L0.4219 -13.9688 L0.6719 -13.9688 Z" stroke="none"/></g><g text-rendering="optimizeLegibility" transform="translate(96.3438,9.6498)" color-rendering="optimizeQuality" color-interpolation="linearRGB" image-rendering="optimizeQuality"><path d="M4.6094 -1.2656 Q4.0469 -0.5781 3.5 -0.2344 Q2.9531 0.1094 2.3438 0.1094 Q1.625 0.1094 1.2656 -0.2578 Q0.9062 -0.625 0.9062 -1.3281 Q0.9062 -1.7656 1.0312 -2.2969 L1.875 -5.8438 L0.8594 -5.8438 L0.9375 -6.1875 Q1.3438 -6.2344 1.5781 -6.3672 Q1.8125 -6.5 1.9766 -6.7031 Q2.1406 -6.9062 2.2734 -7.2422 Q2.4062 -7.5781 2.6094 -8.2188 L3.5625 -8.2188 L3.1719 -6.5312 L5.3438 -6.5312 L5.2031 -5.8438 L3.0156 -5.8438 L2.3594 -3.1875 Q2.0938 -2.0781 2.0938 -1.5312 Q2.0938 -1.125 2.2734 -0.9062 Q2.4531 -0.6875 2.7969 -0.6875 Q3.125 -0.6875 3.4688 -0.9297 Q3.8125 -1.1719 4.2188 -1.6719 L4.6094 -1.2656 Z" stroke="none"/></g><g text-rendering="optimizeLegibility" transform="translate(102.7656,19.5639)" color-rendering="optimizeQuality" color-interpolation="linearRGB" image-rendering="optimizeQuality"><path d="M7.0781 4.2188 Q5.5625 4.2188 4.6797 3.8281 Q3.7969 3.4375 3.4141 2.6641 Q3.0312 1.8906 3.0312 0.5781 L3.0312 -2.25 Q3.0312 -3.1094 2.8125 -3.5938 Q2.5938 -4.0781 2.1562 -4.2734 Q1.7188 -4.4688 0.9219 -4.4688 L0.9219 -5.2812 Q1.7031 -5.2812 2.1484 -5.4766 Q2.5938 -5.6719 2.8125 -6.1484 Q3.0312 -6.625 3.0312 -7.5 L3.0312 -10.3281 Q3.0312 -11.625 3.4141 -12.4062 Q3.7969 -13.1875 4.6797 -13.5781 Q5.5625 -13.9688 7.0781 -13.9688 L7.3281 -13.9688 L7.3281 -13.1719 Q6.5469 -13.1719 6.1641 -13.0938 Q5.7812 -13.0156 5.5391 -12.8438 Q5.2969 -12.6719 5.1406 -12.4141 Q4.9844 -12.1562 4.8984 -11.6875 Q4.8125 -11.2188 4.8125 -10.4375 L4.8125 -8.5469 Q4.8125 -7.5625 4.6406 -6.8984 Q4.4688 -6.2344 4.0312 -5.7578 Q3.5938 -5.2812 2.8281 -4.9688 L2.8281 -4.7812 Q3.5781 -4.4844 4.0312 -3.9844 Q4.4844 -3.4844 4.6484 -2.8203 Q4.8125 -2.1562 4.8125 -1.2031 L4.8125 0.6875 Q4.8125 1.4688 4.8984 1.9375 Q4.9844 2.4062 5.1406 2.6719 Q5.2969 2.9375 5.5391 3.1016 Q5.7812 3.2656 6.1641 3.3438 Q6.5469 3.4219 7.3281 3.4219 L7.3281 4.2188 L7.0781 4.2188 Z" stroke="none"/></g><g text-rendering="optimizeLegibility" transform="translate(112.5938,19.5639)" color-rendering="optimizeQuality" color-interpolation="linearRGB" image-rendering="optimizeQuality"><path d="M9.75 0 L-0.5 0 L-0.375 -0.6094 L7.3594 -13.4844 L8.7344 -13.4844 L9.8906 -0.6094 L9.75 0 ZM7.6406 -7.0625 Q7.4219 -10.0625 7.4219 -11.3125 L7.3125 -11.3125 L1.5625 -1.4688 L8.0312 -1.4688 L7.6406 -7.0625 Z" stroke="none"/></g><g text-rendering="optimizeLegibility" transform="translate(122.4844,19.5639)" color-rendering="optimizeQuality" color-interpolation="linearRGB" image-rendering="optimizeQuality"><path d="M1.5 -9.3438 L4.5781 -9.3438 L3.3281 -4.3594 Q3.1875 -3.8125 3.0859 -3.2734 Q2.9844 -2.7344 2.9844 -2.2812 Q2.9844 -1.5938 3.2266 -1.2891 Q3.4688 -0.9844 3.9688 -0.9844 Q4.3906 -0.9844 4.8828 -1.3125 Q5.375 -1.6406 5.9219 -2.3281 Q6.4688 -3.0156 6.7812 -3.6328 Q7.0938 -4.25 7.2812 -5.0938 L8.1719 -9.3438 L9.8594 -9.3438 L8.375 -2.6719 Q8.3125 -2.4062 8.2344 -1.9766 Q8.1562 -1.5469 8.1562 -1.2656 Q8.1562 -0.8594 8.3828 -0.6875 Q8.6094 -0.5156 9.2344 -0.4844 L9.125 0 L6.3438 0 L6.9688 -2.4531 L6.8438 -2.4844 Q5.8906 -1.1406 5.0078 -0.4922 Q4.125 0.1562 3.2188 0.1562 Q2.2812 0.1562 1.7891 -0.3672 Q1.2969 -0.8906 1.2969 -1.9219 Q1.2969 -2.2031 1.3516 -2.6016 Q1.4062 -3 1.5 -3.4219 L2.3281 -6.8906 Q2.4219 -7.3281 2.4531 -7.5781 Q2.4844 -7.8281 2.4844 -8.0156 Q2.4844 -8.4531 2.25 -8.625 Q2.0156 -8.7969 1.4219 -8.8438 L1.5 -9.3438 Z" stroke="none"/></g><g text-rendering="optimizeLegibility" transform="translate(132.3438,25.2162)" color-rendering="optimizeQuality" color-interpolation="linearRGB" image-rendering="optimizeQuality"><path d="M3.8281 -9.2188 L3.5156 -7.8906 L2.2969 -7.8906 L2.625 -9.2188 L3.8281 -9.2188 ZM2.1406 -1.7031 Q2.0625 -1.3594 2.0469 -1.2031 Q2.0312 -1.0469 2.0312 -0.9375 Q2.0312 -0.7188 2.0938 -0.6094 Q2.1562 -0.5 2.3047 -0.4375 Q2.4531 -0.375 2.7812 -0.3281 L2.7188 0 L0.5938 0 L1.625 -4.6094 Q1.7188 -5 1.75 -5.2344 Q1.7812 -5.4688 1.7812 -5.6406 Q1.7812 -5.8281 1.7266 -5.9375 Q1.6719 -6.0469 1.5312 -6.1016 Q1.3906 -6.1562 1.0625 -6.1719 L1.1406 -6.5312 L2.7969 -6.5938 L3.2031 -6.5938 L2.1406 -1.7031 Z" stroke="none"/></g><g text-rendering="optimizeLegibility" transform="translate(132.3438,13.9975)" color-rendering="optimizeQuality" color-interpolation="linearRGB" image-rendering="optimizeQuality"><path d="M2.5781 -1.9844 Q2.4844 -1.5938 2.4531 -1.3516 Q2.4219 -1.1094 2.4219 -0.9219 Q2.4219 -0.6094 2.5781 -0.4844 Q2.7344 -0.3594 3.0938 -0.3281 L3.0156 0 L0.2812 0 L0.3594 -0.3281 Q0.625 -0.375 0.75 -0.4688 Q0.875 -0.5625 0.9688 -0.7266 Q1.0625 -0.8906 1.1328 -1.125 Q1.2031 -1.3594 1.3594 -2.0312 L2.5156 -7.2969 Q2.5938 -7.6094 2.6328 -7.9062 Q2.6719 -8.2031 2.6719 -8.4062 Q2.6719 -8.7188 2.5078 -8.8438 Q2.3438 -8.9688 2 -9 L2.0781 -9.3281 L4.8125 -9.3281 L4.7344 -9 Q4.4844 -8.9375 4.3672 -8.875 Q4.25 -8.8125 4.1562 -8.6719 Q4.0625 -8.5312 3.9766 -8.2422 Q3.8906 -7.9531 3.7344 -7.2969 L2.5781 -1.9844 Z" stroke="none"/></g><g text-rendering="optimizeLegibility" transform="translate(138.7344,19.5639)" color-rendering="optimizeQuality" color-interpolation="linearRGB" image-rendering="optimizeQuality"><path d="M0.6719 -13.9688 Q2.1875 -13.9688 3.0703 -13.5781 Q3.9531 -13.1875 4.3281 -12.4062 Q4.7031 -11.625 4.7031 -10.3281 L4.7031 -7.5 Q4.7031 -6.625 4.9297 -6.1484 Q5.1562 -5.6719 5.5938 -5.4766 Q6.0312 -5.2812 6.8125 -5.2812 L6.8125 -4.4688 Q6.0312 -4.4688 5.5859 -4.2734 Q5.1406 -4.0781 4.9219 -3.5938 Q4.7031 -3.1094 4.7031 -2.25 L4.7031 0.5781 Q4.7031 1.8906 4.3281 2.6641 Q3.9531 3.4375 3.0703 3.8281 Q2.1875 4.2188 0.6719 4.2188 L0.4219 4.2188 L0.4219 3.4219 Q1.1875 3.4219 1.5781 3.3438 Q1.9688 3.2656 2.2031 3.1016 Q2.4375 2.9375 2.5938 2.6719 Q2.75 2.4062 2.8438 1.9375 Q2.9375 1.4688 2.9375 0.6875 L2.9375 -1.2031 Q2.9375 -2.1875 3.1016 -2.8438 Q3.2656 -3.5 3.7109 -3.9844 Q4.1562 -4.4688 4.9062 -4.7812 L4.9062 -4.9688 Q4.1719 -5.2656 3.7188 -5.7656 Q3.2656 -6.2656 3.1016 -6.9297 Q2.9375 -7.5938 2.9375 -8.5469 L2.9375 -10.4375 Q2.9375 -11.2188 2.8438 -11.6875 Q2.75 -12.1562 2.5938 -12.4141 Q2.4375 -12.6719 2.2031 -12.8438 Q1.9688 -13.0156 1.5781 -13.0938 Q1.1875 -13.1719 0.4219 -13.1719 L0.4219 -13.9688 L0.6719 -13.9688 Z" stroke="none"/></g><g text-rendering="optimizeLegibility" transform="translate(0,55.3086)" color-rendering="optimizeQuality" color-interpolation="linearRGB" image-rendering="optimizeQuality"><path d="M2.2812 -0.4844 L1.375 0.1562 L0.75 0 L3.2812 -11.1562 Q3.3438 -11.4062 3.4219 -11.8672 Q3.5 -12.3281 3.5 -12.6094 Q3.5 -13.0156 3.2578 -13.1797 Q3.0156 -13.3438 2.3594 -13.375 L2.4844 -13.875 L4.9531 -13.9688 L5.5156 -13.9688 L3.7969 -7.125 L3.9219 -7.0938 Q4.875 -8.3594 5.7031 -8.9297 Q6.5312 -9.5 7.3594 -9.5 Q8.4219 -9.5 9.0156 -8.6875 Q9.6094 -7.875 9.6094 -6.3906 Q9.6094 -5.3438 9.3203 -4.2812 Q9.0312 -3.2188 8.5234 -2.3594 Q8.0156 -1.5 7.3828 -0.9453 Q6.75 -0.3906 6.0547 -0.1172 Q5.3594 0.1562 4.5781 0.1562 Q3.2812 0.1562 2.2812 -0.4844 ZM3.1406 -3.4062 Q3.0312 -2.9531 3.0078 -2.6484 Q2.9844 -2.3438 2.9844 -2.0781 Q2.9844 -1.2969 3.3203 -0.9531 Q3.6562 -0.6094 4.4375 -0.6094 Q4.9531 -0.6094 5.375 -0.8047 Q5.7969 -1 6.1719 -1.3828 Q6.5469 -1.7656 6.8516 -2.2969 Q7.1562 -2.8281 7.3906 -3.5156 Q7.625 -4.2031 7.75 -4.9453 Q7.875 -5.6875 7.875 -6.3125 Q7.875 -7.3281 7.5859 -7.8359 Q7.2969 -8.3438 6.6562 -8.3438 Q6.1875 -8.3438 5.7344 -8.0469 Q5.2812 -7.75 4.7266 -7.0625 Q4.1719 -6.375 3.8203 -5.6562 Q3.4688 -4.9375 3.2188 -3.8125 L3.1406 -3.4062 Z" stroke="none"/></g><g text-rendering="optimizeLegibility" transform="translate(10.3906,55.3086)" color-rendering="optimizeQuality" color-interpolation="linearRGB" image-rendering="optimizeQuality"><path d="M1.2188 -7.0625 L1.2188 -8.4219 L9.8594 -8.4219 L9.8594 -7.0625 L1.2188 -7.0625 ZM1.2188 -3.0156 L1.2188 -4.3594 L9.8594 -4.3594 L9.8594 -3.0156 L1.2188 -3.0156 Z" stroke="none"/></g><g text-rendering="optimizeLegibility" transform="translate(22.25,55.3086)" color-rendering="optimizeQuality" color-interpolation="linearRGB" image-rendering="optimizeQuality"><path d="M6.8594 -1.5625 Q7.3281 -1.5625 7.625 -1.625 Q7.9219 -1.6875 8.0938 -1.8203 Q8.2656 -1.9531 8.375 -2.1719 Q8.4844 -2.3906 8.6406 -2.8594 L9.4688 -2.8594 L9.2969 0 L1.2656 0 L1.2656 -0.4688 Q1.6875 -1.5 2.3984 -2.5703 Q3.1094 -3.6406 4.4219 -5.0938 Q5.5469 -6.3438 6.0469 -7 Q6.5938 -7.7031 6.8594 -8.2109 Q7.125 -8.7188 7.2422 -9.1719 Q7.3594 -9.625 7.3594 -10.0938 Q7.3594 -10.8281 7.125 -11.3828 Q6.8906 -11.9375 6.4062 -12.2656 Q5.9219 -12.5938 5.2031 -12.5938 Q3.375 -12.5938 2.7344 -10.5625 L1.5469 -10.5625 L1.5469 -12.4375 Q2.7344 -12.9844 3.7656 -13.2344 Q4.7969 -13.4844 5.6094 -13.4844 Q7.4375 -13.4844 8.3594 -12.6875 Q9.2812 -11.8906 9.2812 -10.375 Q9.2812 -9.8594 9.1797 -9.4297 Q9.0781 -9 8.8594 -8.5703 Q8.6406 -8.1406 8.2734 -7.6562 Q7.9062 -7.1719 7.4531 -6.6641 Q7 -6.1562 5.9062 -4.9844 Q4.0469 -3.0312 3.1719 -1.5625 L6.8594 -1.5625 Z" stroke="none"/></g><g text-rendering="optimizeLegibility" transform="translate(31.9531,54.9707) matrix(1,0,0,1.4095,0,0)" color-rendering="optimizeQuality" color-interpolation="linearRGB" image-rendering="optimizeQuality"><path d="M7.2188 4.25 Q5.5625 4.25 4.5078 3.75 Q3.4531 3.25 2.8672 2.2344 Q2.2812 1.2188 2.0234 -0.4141 Q1.7656 -2.0469 1.7656 -4.8438 Q1.7656 -7.625 2.0234 -9.2656 Q2.2812 -10.9062 2.8672 -11.9453 Q3.4531 -12.9844 4.5078 -13.5 Q5.5625 -14.0156 7.2188 -14.0156 L7.2188 -13.2188 Q6.5312 -13.2188 6 -13.0938 Q5.4062 -12.9531 4.9844 -12.5625 Q4.5156 -12.1406 4.2344 -11.375 Q3.8906 -10.4688 3.7188 -8.9844 Q3.5469 -7.4062 3.5469 -4.9219 Q3.5469 -2.7188 3.6953 -1.1797 Q3.8438 0.3594 4.1875 1.3281 Q4.4531 2.1562 4.8594 2.6094 Q5.2188 3.0156 5.7188 3.2188 Q6.2969 3.4531 7.2188 3.4531 L7.2188 4.25 Z" stroke="none"/></g><g text-rendering="optimizeLegibility" transform="translate(41.3125,55.3086)" color-rendering="optimizeQuality" color-interpolation="linearRGB" image-rendering="optimizeQuality"><path d="M7.1719 -7.4844 L7.1562 -7.4062 Q9.5 -6.8594 9.5 -4.5938 Q9.5 -2.5469 8.1797 -1.1953 Q6.8594 0.1562 5.0156 0.1562 Q3.4688 0.1562 2.5781 -0.7188 L1.4531 4.2188 L-0.1406 4.2188 L2.6562 -8.5156 Q3.2812 -11.3438 4.4844 -12.6875 Q5.6875 -14.0312 7.7031 -14.0312 Q9.0938 -14.0312 9.9297 -13.3281 Q10.7656 -12.625 10.7656 -11.3906 Q10.7656 -8.7188 7.1719 -7.4844 ZM5.4219 -6.9844 L5.5938 -7.6719 Q6.9219 -7.6719 7.9922 -8.7812 Q9.0625 -9.8906 9.0625 -11.6094 Q9.0625 -12.3438 8.6797 -12.8047 Q8.2969 -13.2656 7.5938 -13.2656 Q6.375 -13.2656 5.5703 -12.0469 Q4.7656 -10.8281 4.2344 -8.375 L2.9219 -2.25 Q2.875 -2.0781 2.875 -1.9375 Q2.875 -1.4531 3.4453 -1.0312 Q4.0156 -0.6094 4.7344 -0.6094 Q5.9844 -0.6094 6.8828 -1.7422 Q7.7812 -2.875 7.7812 -4.4844 Q7.7812 -6.9688 5.4219 -6.9844 Z" stroke="none"/></g><g text-rendering="optimizeLegibility" transform="translate(52.0781,45.9961)" color-rendering="optimizeQuality" color-interpolation="linearRGB" image-rendering="optimizeQuality"><path d="M4.7969 -1.0938 Q5.1406 -1.0938 5.3438 -1.1328 Q5.5469 -1.1719 5.6719 -1.2734 Q5.7969 -1.375 5.8672 -1.5234 Q5.9375 -1.6719 6.0469 -2 L6.625 -2 L6.5156 0 L0.875 0 L0.875 -0.3281 Q1.1719 -1.0469 1.6719 -1.7969 Q2.1719 -2.5469 3.0938 -3.5625 Q3.8906 -4.4375 4.2344 -4.8906 Q4.6094 -5.3906 4.7969 -5.75 Q4.9844 -6.1094 5.0703 -6.4219 Q5.1562 -6.7344 5.1562 -7.0625 Q5.1562 -7.5781 4.9922 -7.9688 Q4.8281 -8.3594 4.4922 -8.5859 Q4.1562 -8.8125 3.6406 -8.8125 Q2.3594 -8.8125 1.9219 -7.3906 L1.0938 -7.3906 L1.0938 -8.7031 Q1.9219 -9.0938 2.6406 -9.2656 Q3.3594 -9.4375 3.9375 -9.4375 Q5.2031 -9.4375 5.8516 -8.8828 Q6.5 -8.3281 6.5 -7.2656 Q6.5 -6.9062 6.4297 -6.6016 Q6.3594 -6.2969 6.2031 -6 Q6.0469 -5.7031 5.7891 -5.3594 Q5.5312 -5.0156 5.2188 -4.6641 Q4.9062 -4.3125 4.125 -3.5 Q2.8281 -2.125 2.2188 -1.0938 L4.7969 -1.0938 Z" stroke="none"/></g><g text-rendering="optimizeLegibility" transform="translate(59.2031,55.3086)" color-rendering="optimizeQuality" color-interpolation="linearRGB" image-rendering="optimizeQuality"><path d="M9.1562 -1.0156 Q8.2969 0.1562 7.3594 0.1562 Q6.8438 0.1562 6.5 -0.2031 Q6.1562 -0.5625 5.9766 -1.2656 Q5.7969 -1.9688 5.7344 -2.9531 L5.4375 -7.2031 L5.375 -7.2031 Q4.7969 -6.0781 3.3281 -3.4219 Q1.9688 -0.9688 1.5 0 L-0.5 0 L-0.4062 -0.4844 L-0.0156 -0.875 Q0.4844 -1.375 1.1094 -2.4062 L5.2656 -9.2344 Q5.0781 -11.2812 4.6797 -12.0234 Q4.2812 -12.7656 3.4375 -12.7656 Q2.6406 -12.7656 1.9688 -12.0781 L1.6094 -12.5625 Q2.8594 -14.0312 4.0312 -14.0312 Q5.0469 -14.0312 5.5781 -13.2344 Q6.1094 -12.4375 6.2344 -10.5781 Q6.5156 -6.7969 6.7812 -4.6094 Q7.0469 -2.4219 7.3359 -1.7422 Q7.625 -1.0625 8.0625 -1.0625 Q8.4688 -1.0625 8.7812 -1.5 L9.1562 -1.0156 Z" stroke="none"/></g><g text-rendering="optimizeLegibility" transform="translate(68.3594,60.0742)" color-rendering="optimizeQuality" color-interpolation="linearRGB" image-rendering="optimizeQuality"><path d="M3.8281 -9.2188 L3.5156 -7.8906 L2.2969 -7.8906 L2.625 -9.2188 L3.8281 -9.2188 ZM2.1406 -1.7031 Q2.0625 -1.3594 2.0469 -1.2031 Q2.0312 -1.0469 2.0312 -0.9375 Q2.0312 -0.7188 2.0938 -0.6094 Q2.1562 -0.5 2.3047 -0.4375 Q2.4531 -0.375 2.7812 -0.3281 L2.7188 0 L0.5938 0 L1.625 -4.6094 Q1.7188 -5 1.75 -5.2344 Q1.7812 -5.4688 1.7812 -5.6406 Q1.7812 -5.8281 1.7266 -5.9375 Q1.6719 -6.0469 1.5312 -6.1016 Q1.3906 -6.1562 1.0625 -6.1719 L1.1406 -6.5312 L2.7969 -6.5938 L3.2031 -6.5938 L2.1406 -1.7031 Z" stroke="none"/></g><g text-rendering="optimizeLegibility" transform="translate(72.9688,55.3086)" color-rendering="optimizeQuality" color-interpolation="linearRGB" image-rendering="optimizeQuality"><path d="M6.25 -5.0469 L6.25 -1.3438 L4.8125 -1.3438 L4.8125 -5.0469 L1.2188 -5.0469 L1.2188 -6.3906 L4.8125 -6.3906 L4.8125 -10.0938 L6.25 -10.0938 L6.25 -6.3906 L9.8594 -6.3906 L9.8594 -5.0469 L6.25 -5.0469 Z" stroke="none"/></g><g text-rendering="optimizeLegibility" transform="translate(85.9062,55.3086)" color-rendering="optimizeQuality" color-interpolation="linearRGB" image-rendering="optimizeQuality"><path d="M7.0781 4.2188 Q5.5625 4.2188 4.6797 3.8281 Q3.7969 3.4375 3.4141 2.6641 Q3.0312 1.8906 3.0312 0.5781 L3.0312 -2.25 Q3.0312 -3.1094 2.8125 -3.5938 Q2.5938 -4.0781 2.1562 -4.2734 Q1.7188 -4.4688 0.9219 -4.4688 L0.9219 -5.2812 Q1.7031 -5.2812 2.1484 -5.4766 Q2.5938 -5.6719 2.8125 -6.1484 Q3.0312 -6.625 3.0312 -7.5 L3.0312 -10.3281 Q3.0312 -11.625 3.4141 -12.4062 Q3.7969 -13.1875 4.6797 -13.5781 Q5.5625 -13.9688 7.0781 -13.9688 L7.3281 -13.9688 L7.3281 -13.1719 Q6.5469 -13.1719 6.1641 -13.0938 Q5.7812 -13.0156 5.5391 -12.8438 Q5.2969 -12.6719 5.1406 -12.4141 Q4.9844 -12.1562 4.8984 -11.6875 Q4.8125 -11.2188 4.8125 -10.4375 L4.8125 -8.5469 Q4.8125 -7.5625 4.6406 -6.8984 Q4.4688 -6.2344 4.0312 -5.7578 Q3.5938 -5.2812 2.8281 -4.9688 L2.8281 -4.7812 Q3.5781 -4.4844 4.0312 -3.9844 Q4.4844 -3.4844 4.6484 -2.8203 Q4.8125 -2.1562 4.8125 -1.2031 L4.8125 0.6875 Q4.8125 1.4688 4.8984 1.9375 Q4.9844 2.4062 5.1406 2.6719 Q5.2969 2.9375 5.5391 3.1016 Q5.7812 3.2656 6.1641 3.3438 Q6.5469 3.4219 7.3281 3.4219 L7.3281 4.2188 L7.0781 4.2188 Z" stroke="none"/></g><g text-rendering="optimizeLegibility" transform="translate(95.7344,55.3086)" color-rendering="optimizeQuality" color-interpolation="linearRGB" image-rendering="optimizeQuality"><path d="M9.75 0 L-0.5 0 L-0.375 -0.6094 L7.3594 -13.4844 L8.7344 -13.4844 L9.8906 -0.6094 L9.75 0 ZM7.6406 -7.0625 Q7.4219 -10.0625 7.4219 -11.3125 L7.3125 -11.3125 L1.5625 -1.4688 L8.0312 -1.4688 L7.6406 -7.0625 Z" stroke="none"/></g><g text-rendering="optimizeLegibility" transform="translate(105.625,55.3086)" color-rendering="optimizeQuality" color-interpolation="linearRGB" image-rendering="optimizeQuality"><path d="M1.5 -9.3438 L4.5781 -9.3438 L3.3281 -4.3594 Q3.1875 -3.8125 3.0859 -3.2734 Q2.9844 -2.7344 2.9844 -2.2812 Q2.9844 -1.5938 3.2266 -1.2891 Q3.4688 -0.9844 3.9688 -0.9844 Q4.3906 -0.9844 4.8828 -1.3125 Q5.375 -1.6406 5.9219 -2.3281 Q6.4688 -3.0156 6.7812 -3.6328 Q7.0938 -4.25 7.2812 -5.0938 L8.1719 -9.3438 L9.8594 -9.3438 L8.375 -2.6719 Q8.3125 -2.4062 8.2344 -1.9766 Q8.1562 -1.5469 8.1562 -1.2656 Q8.1562 -0.8594 8.3828 -0.6875 Q8.6094 -0.5156 9.2344 -0.4844 L9.125 0 L6.3438 0 L6.9688 -2.4531 L6.8438 -2.4844 Q5.8906 -1.1406 5.0078 -0.4922 Q4.125 0.1562 3.2188 0.1562 Q2.2812 0.1562 1.7891 -0.3672 Q1.2969 -0.8906 1.2969 -1.9219 Q1.2969 -2.2031 1.3516 -2.6016 Q1.4062 -3 1.5 -3.4219 L2.3281 -6.8906 Q2.4219 -7.3281 2.4531 -7.5781 Q2.4844 -7.8281 2.4844 -8.0156 Q2.4844 -8.4531 2.25 -8.625 Q2.0156 -8.7969 1.4219 -8.8438 L1.5 -9.3438 Z" stroke="none"/></g><g text-rendering="optimizeLegibility" transform="translate(115.4844,58.7852)" color-rendering="optimizeQuality" color-interpolation="linearRGB" image-rendering="optimizeQuality"><path d="M6.4531 0 L4.2969 0 L5.1562 -3.4688 Q5.25 -3.8125 5.3281 -4.2109 Q5.4062 -4.6094 5.4062 -4.9375 Q5.4062 -5.4219 5.2344 -5.6328 Q5.0625 -5.8438 4.7031 -5.8438 Q4.4219 -5.8438 4.0938 -5.625 Q3.7656 -5.4062 3.3984 -4.9609 Q3.0312 -4.5156 2.7812 -4.0625 Q2.5312 -3.6094 2.4062 -2.9531 L1.7812 0 L0.5938 0 L1.6406 -4.6719 Q1.6719 -4.8281 1.7266 -5.1328 Q1.7812 -5.4375 1.7812 -5.6406 Q1.7812 -5.8438 1.7266 -5.9453 Q1.6719 -6.0469 1.5312 -6.1016 Q1.3906 -6.1562 1.0469 -6.1719 L1.1406 -6.5312 L2.6875 -6.5938 L3.0781 -6.5938 L2.625 -4.8125 L2.7031 -4.7969 Q3.375 -5.7344 3.9922 -6.1875 Q4.6094 -6.6406 5.2344 -6.6406 Q5.9062 -6.6406 6.2422 -6.2734 Q6.5781 -5.9062 6.5781 -5.2031 Q6.5781 -4.9531 6.5391 -4.6641 Q6.5 -4.375 6.4375 -4.1406 L5.8594 -1.7031 Q5.75 -1.2188 5.75 -0.9375 Q5.75 -0.7188 5.8203 -0.6094 Q5.8906 -0.5 6.0312 -0.4375 Q6.1719 -0.375 6.5 -0.3281 L6.4531 0 Z" stroke="none"/></g><g text-rendering="optimizeLegibility" transform="translate(123.6406,55.3086)" color-rendering="optimizeQuality" color-interpolation="linearRGB" image-rendering="optimizeQuality"><path d="M0.6719 -13.9688 Q2.1875 -13.9688 3.0703 -13.5781 Q3.9531 -13.1875 4.3281 -12.4062 Q4.7031 -11.625 4.7031 -10.3281 L4.7031 -7.5 Q4.7031 -6.625 4.9297 -6.1484 Q5.1562 -5.6719 5.5938 -5.4766 Q6.0312 -5.2812 6.8125 -5.2812 L6.8125 -4.4688 Q6.0312 -4.4688 5.5859 -4.2734 Q5.1406 -4.0781 4.9219 -3.5938 Q4.7031 -3.1094 4.7031 -2.25 L4.7031 0.5781 Q4.7031 1.8906 4.3281 2.6641 Q3.9531 3.4375 3.0703 3.8281 Q2.1875 4.2188 0.6719 4.2188 L0.4219 4.2188 L0.4219 3.4219 Q1.1875 3.4219 1.5781 3.3438 Q1.9688 3.2656 2.2031 3.1016 Q2.4375 2.9375 2.5938 2.6719 Q2.75 2.4062 2.8438 1.9375 Q2.9375 1.4688 2.9375 0.6875 L2.9375 -1.2031 Q2.9375 -2.1875 3.1016 -2.8438 Q3.2656 -3.5 3.7109 -3.9844 Q4.1562 -4.4688 4.9062 -4.7812 L4.9062 -4.9688 Q4.1719 -5.2656 3.7188 -5.7656 Q3.2656 -6.2656 3.1016 -6.9297 Q2.9375 -7.5938 2.9375 -8.5469 L2.9375 -10.4375 Q2.9375 -11.2188 2.8438 -11.6875 Q2.75 -12.1562 2.5938 -12.4141 Q2.4375 -12.6719 2.2031 -12.8438 Q1.9688 -13.0156 1.5781 -13.0938 Q1.1875 -13.1719 0.4219 -13.1719 L0.4219 -13.9688 L0.6719 -13.9688 Z" stroke="none"/></g><g text-rendering="optimizeLegibility" transform="translate(132.4531,45.3945)" color-rendering="optimizeQuality" color-interpolation="linearRGB" image-rendering="optimizeQuality"><path d="M4.6094 -1.2656 Q4.0469 -0.5781 3.5 -0.2344 Q2.9531 0.1094 2.3438 0.1094 Q1.625 0.1094 1.2656 -0.2578 Q0.9062 -0.625 0.9062 -1.3281 Q0.9062 -1.7656 1.0312 -2.2969 L1.875 -5.8438 L0.8594 -5.8438 L0.9375 -6.1875 Q1.3438 -6.2344 1.5781 -6.3672 Q1.8125 -6.5 1.9766 -6.7031 Q2.1406 -6.9062 2.2734 -7.2422 Q2.4062 -7.5781 2.6094 -8.2188 L3.5625 -8.2188 L3.1719 -6.5312 L5.3438 -6.5312 L5.2031 -5.8438 L3.0156 -5.8438 L2.3594 -3.1875 Q2.0938 -2.0781 2.0938 -1.5312 Q2.0938 -1.125 2.2734 -0.9062 Q2.4531 -0.6875 2.7969 -0.6875 Q3.125 -0.6875 3.4688 -0.9297 Q3.8125 -1.1719 4.2188 -1.6719 L4.6094 -1.2656 Z" stroke="none"/></g><g text-rendering="optimizeLegibility" transform="translate(138.875,55.3086)" color-rendering="optimizeQuality" color-interpolation="linearRGB" image-rendering="optimizeQuality"><path d="M7.0781 4.2188 Q5.5625 4.2188 4.6797 3.8281 Q3.7969 3.4375 3.4141 2.6641 Q3.0312 1.8906 3.0312 0.5781 L3.0312 -2.25 Q3.0312 -3.1094 2.8125 -3.5938 Q2.5938 -4.0781 2.1562 -4.2734 Q1.7188 -4.4688 0.9219 -4.4688 L0.9219 -5.2812 Q1.7031 -5.2812 2.1484 -5.4766 Q2.5938 -5.6719 2.8125 -6.1484 Q3.0312 -6.625 3.0312 -7.5 L3.0312 -10.3281 Q3.0312 -11.625 3.4141 -12.4062 Q3.7969 -13.1875 4.6797 -13.5781 Q5.5625 -13.9688 7.0781 -13.9688 L7.3281 -13.9688 L7.3281 -13.1719 Q6.5469 -13.1719 6.1641 -13.0938 Q5.7812 -13.0156 5.5391 -12.8438 Q5.2969 -12.6719 5.1406 -12.4141 Q4.9844 -12.1562 4.8984 -11.6875 Q4.8125 -11.2188 4.8125 -10.4375 L4.8125 -8.5469 Q4.8125 -7.5625 4.6406 -6.8984 Q4.4688 -6.2344 4.0312 -5.7578 Q3.5938 -5.2812 2.8281 -4.9688 L2.8281 -4.7812 Q3.5781 -4.4844 4.0312 -3.9844 Q4.4844 -3.4844 4.6484 -2.8203 Q4.8125 -2.1562 4.8125 -1.2031 L4.8125 0.6875 Q4.8125 1.4688 4.8984 1.9375 Q4.9844 2.4062 5.1406 2.6719 Q5.2969 2.9375 5.5391 3.1016 Q5.7812 3.2656 6.1641 3.3438 Q6.5469 3.4219 7.3281 3.4219 L7.3281 4.2188 L7.0781 4.2188 Z" stroke="none"/></g><g text-rendering="optimizeLegibility" transform="translate(148.7031,55.3086)" color-rendering="optimizeQuality" color-interpolation="linearRGB" image-rendering="optimizeQuality"><path d="M9.75 0 L-0.5 0 L-0.375 -0.6094 L7.3594 -13.4844 L8.7344 -13.4844 L9.8906 -0.6094 L9.75 0 ZM7.6406 -7.0625 Q7.4219 -10.0625 7.4219 -11.3125 L7.3125 -11.3125 L1.5625 -1.4688 L8.0312 -1.4688 L7.6406 -7.0625 Z" stroke="none"/></g><g text-rendering="optimizeLegibility" transform="translate(158.5938,55.3086)" color-rendering="optimizeQuality" color-interpolation="linearRGB" image-rendering="optimizeQuality"><path d="M1.5 -9.3438 L4.5781 -9.3438 L3.3281 -4.3594 Q3.1875 -3.8125 3.0859 -3.2734 Q2.9844 -2.7344 2.9844 -2.2812 Q2.9844 -1.5938 3.2266 -1.2891 Q3.4688 -0.9844 3.9688 -0.9844 Q4.3906 -0.9844 4.8828 -1.3125 Q5.375 -1.6406 5.9219 -2.3281 Q6.4688 -3.0156 6.7812 -3.6328 Q7.0938 -4.25 7.2812 -5.0938 L8.1719 -9.3438 L9.8594 -9.3438 L8.375 -2.6719 Q8.3125 -2.4062 8.2344 -1.9766 Q8.1562 -1.5469 8.1562 -1.2656 Q8.1562 -0.8594 8.3828 -0.6875 Q8.6094 -0.5156 9.2344 -0.4844 L9.125 0 L6.3438 0 L6.9688 -2.4531 L6.8438 -2.4844 Q5.8906 -1.1406 5.0078 -0.4922 Q4.125 0.1562 3.2188 0.1562 Q2.2812 0.1562 1.7891 -0.3672 Q1.2969 -0.8906 1.2969 -1.9219 Q1.2969 -2.2031 1.3516 -2.6016 Q1.4062 -3 1.5 -3.4219 L2.3281 -6.8906 Q2.4219 -7.3281 2.4531 -7.5781 Q2.4844 -7.8281 2.4844 -8.0156 Q2.4844 -8.4531 2.25 -8.625 Q2.0156 -8.7969 1.4219 -8.8438 L1.5 -9.3438 Z" stroke="none"/></g><g text-rendering="optimizeLegibility" transform="translate(168.4531,60.9609)" color-rendering="optimizeQuality" color-interpolation="linearRGB" image-rendering="optimizeQuality"><path d="M3.8281 -9.2188 L3.5156 -7.8906 L2.2969 -7.8906 L2.625 -9.2188 L3.8281 -9.2188 ZM2.1406 -1.7031 Q2.0625 -1.3594 2.0469 -1.2031 Q2.0312 -1.0469 2.0312 -0.9375 Q2.0312 -0.7188 2.0938 -0.6094 Q2.1562 -0.5 2.3047 -0.4375 Q2.4531 -0.375 2.7812 -0.3281 L2.7188 0 L0.5938 0 L1.625 -4.6094 Q1.7188 -5 1.75 -5.2344 Q1.7812 -5.4688 1.7812 -5.6406 Q1.7812 -5.8281 1.7266 -5.9375 Q1.6719 -6.0469 1.5312 -6.1016 Q1.3906 -6.1562 1.0625 -6.1719 L1.1406 -6.5312 L2.7969 -6.5938 L3.2031 -6.5938 L2.1406 -1.7031 Z" stroke="none"/></g><g text-rendering="optimizeLegibility" transform="translate(168.4531,49.7422)" color-rendering="optimizeQuality" color-interpolation="linearRGB" image-rendering="optimizeQuality"><path d="M2.5781 -1.9844 Q2.4844 -1.5938 2.4531 -1.3516 Q2.4219 -1.1094 2.4219 -0.9219 Q2.4219 -0.6094 2.5781 -0.4844 Q2.7344 -0.3594 3.0938 -0.3281 L3.0156 0 L0.2812 0 L0.3594 -0.3281 Q0.625 -0.375 0.75 -0.4688 Q0.875 -0.5625 0.9688 -0.7266 Q1.0625 -0.8906 1.1328 -1.125 Q1.2031 -1.3594 1.3594 -2.0312 L2.5156 -7.2969 Q2.5938 -7.6094 2.6328 -7.9062 Q2.6719 -8.2031 2.6719 -8.4062 Q2.6719 -8.7188 2.5078 -8.8438 Q2.3438 -8.9688 2 -9 L2.0781 -9.3281 L4.8125 -9.3281 L4.7344 -9 Q4.4844 -8.9375 4.3672 -8.875 Q4.25 -8.8125 4.1562 -8.6719 Q4.0625 -8.5312 3.9766 -8.2422 Q3.8906 -7.9531 3.7344 -7.2969 L2.5781 -1.9844 Z" stroke="none"/></g><g text-rendering="optimizeLegibility" transform="translate(174.8438,55.3086)" color-rendering="optimizeQuality" color-interpolation="linearRGB" image-rendering="optimizeQuality"><path d="M0.6719 -13.9688 Q2.1875 -13.9688 3.0703 -13.5781 Q3.9531 -13.1875 4.3281 -12.4062 Q4.7031 -11.625 4.7031 -10.3281 L4.7031 -7.5 Q4.7031 -6.625 4.9297 -6.1484 Q5.1562 -5.6719 5.5938 -5.4766 Q6.0312 -5.2812 6.8125 -5.2812 L6.8125 -4.4688 Q6.0312 -4.4688 5.5859 -4.2734 Q5.1406 -4.0781 4.9219 -3.5938 Q4.7031 -3.1094 4.7031 -2.25 L4.7031 0.5781 Q4.7031 1.8906 4.3281 2.6641 Q3.9531 3.4375 3.0703 3.8281 Q2.1875 4.2188 0.6719 4.2188 L0.4219 4.2188 L0.4219 3.4219 Q1.1875 3.4219 1.5781 3.3438 Q1.9688 3.2656 2.2031 3.1016 Q2.4375 2.9375 2.5938 2.6719 Q2.75 2.4062 2.8438 1.9375 Q2.9375 1.4688 2.9375 0.6875 L2.9375 -1.2031 Q2.9375 -2.1875 3.1016 -2.8438 Q3.2656 -3.5 3.7109 -3.9844 Q4.1562 -4.4688 4.9062 -4.7812 L4.9062 -4.9688 Q4.1719 -5.2656 3.7188 -5.7656 Q3.2656 -6.2656 3.1016 -6.9297 Q2.9375 -7.5938 2.9375 -8.5469 L2.9375 -10.4375 Q2.9375 -11.2188 2.8438 -11.6875 Q2.75 -12.1562 2.5938 -12.4141 Q2.4375 -12.6719 2.2031 -12.8438 Q1.9688 -13.0156 1.5781 -13.0938 Q1.1875 -13.1719 0.4219 -13.1719 L0.4219 -13.9688 L0.6719 -13.9688 Z" stroke="none"/></g><g text-rendering="optimizeLegibility" transform="translate(184.4375,55.3086)" color-rendering="optimizeQuality" color-interpolation="linearRGB" image-rendering="optimizeQuality"><path d="M6.25 -5.0469 L6.25 -1.3438 L4.8125 -1.3438 L4.8125 -5.0469 L1.2188 -5.0469 L1.2188 -6.3906 L4.8125 -6.3906 L4.8125 -10.0938 L6.25 -10.0938 L6.25 -6.3906 L9.8594 -6.3906 L9.8594 -5.0469 L6.25 -5.0469 Z" stroke="none"/></g><g text-rendering="optimizeLegibility" transform="translate(197.375,55.3086)" color-rendering="optimizeQuality" color-interpolation="linearRGB" image-rendering="optimizeQuality"><path d="M7.0781 4.2188 Q5.5625 4.2188 4.6797 3.8281 Q3.7969 3.4375 3.4141 2.6641 Q3.0312 1.8906 3.0312 0.5781 L3.0312 -2.25 Q3.0312 -3.1094 2.8125 -3.5938 Q2.5938 -4.0781 2.1562 -4.2734 Q1.7188 -4.4688 0.9219 -4.4688 L0.9219 -5.2812 Q1.7031 -5.2812 2.1484 -5.4766 Q2.5938 -5.6719 2.8125 -6.1484 Q3.0312 -6.625 3.0312 -7.5 L3.0312 -10.3281 Q3.0312 -11.625 3.4141 -12.4062 Q3.7969 -13.1875 4.6797 -13.5781 Q5.5625 -13.9688 7.0781 -13.9688 L7.3281 -13.9688 L7.3281 -13.1719 Q6.5469 -13.1719 6.1641 -13.0938 Q5.7812 -13.0156 5.5391 -12.8438 Q5.2969 -12.6719 5.1406 -12.4141 Q4.9844 -12.1562 4.8984 -11.6875 Q4.8125 -11.2188 4.8125 -10.4375 L4.8125 -8.5469 Q4.8125 -7.5625 4.6406 -6.8984 Q4.4688 -6.2344 4.0312 -5.7578 Q3.5938 -5.2812 2.8281 -4.9688 L2.8281 -4.7812 Q3.5781 -4.4844 4.0312 -3.9844 Q4.4844 -3.4844 4.6484 -2.8203 Q4.8125 -2.1562 4.8125 -1.2031 L4.8125 0.6875 Q4.8125 1.4688 4.8984 1.9375 Q4.9844 2.4062 5.1406 2.6719 Q5.2969 2.9375 5.5391 3.1016 Q5.7812 3.2656 6.1641 3.3438 Q6.5469 3.4219 7.3281 3.4219 L7.3281 4.2188 L7.0781 4.2188 Z" stroke="none"/></g><g text-rendering="optimizeLegibility" transform="translate(207.2031,55.3086)" color-rendering="optimizeQuality" color-interpolation="linearRGB" image-rendering="optimizeQuality"><path d="M9.75 0 L-0.5 0 L-0.375 -0.6094 L7.3594 -13.4844 L8.7344 -13.4844 L9.8906 -0.6094 L9.75 0 ZM7.6406 -7.0625 Q7.4219 -10.0625 7.4219 -11.3125 L7.3125 -11.3125 L1.5625 -1.4688 L8.0312 -1.4688 L7.6406 -7.0625 Z" stroke="none"/></g><g text-rendering="optimizeLegibility" transform="translate(217.0938,55.3086)" color-rendering="optimizeQuality" color-interpolation="linearRGB" image-rendering="optimizeQuality"><path d="M1.5 -9.3438 L4.5781 -9.3438 L3.3281 -4.3594 Q3.1875 -3.8125 3.0859 -3.2734 Q2.9844 -2.7344 2.9844 -2.2812 Q2.9844 -1.5938 3.2266 -1.2891 Q3.4688 -0.9844 3.9688 -0.9844 Q4.3906 -0.9844 4.8828 -1.3125 Q5.375 -1.6406 5.9219 -2.3281 Q6.4688 -3.0156 6.7812 -3.6328 Q7.0938 -4.25 7.2812 -5.0938 L8.1719 -9.3438 L9.8594 -9.3438 L8.375 -2.6719 Q8.3125 -2.4062 8.2344 -1.9766 Q8.1562 -1.5469 8.1562 -1.2656 Q8.1562 -0.8594 8.3828 -0.6875 Q8.6094 -0.5156 9.2344 -0.4844 L9.125 0 L6.3438 0 L6.9688 -2.4531 L6.8438 -2.4844 Q5.8906 -1.1406 5.0078 -0.4922 Q4.125 0.1562 3.2188 0.1562 Q2.2812 0.1562 1.7891 -0.3672 Q1.2969 -0.8906 1.2969 -1.9219 Q1.2969 -2.2031 1.3516 -2.6016 Q1.4062 -3 1.5 -3.4219 L2.3281 -6.8906 Q2.4219 -7.3281 2.4531 -7.5781 Q2.4844 -7.8281 2.4844 -8.0156 Q2.4844 -8.4531 2.25 -8.625 Q2.0156 -8.7969 1.4219 -8.8438 L1.5 -9.3438 Z" stroke="none"/></g><g text-rendering="optimizeLegibility" transform="translate(226.9531,60.9609)" color-rendering="optimizeQuality" color-interpolation="linearRGB" image-rendering="optimizeQuality"><path d="M3.8281 -9.2188 L3.5156 -7.8906 L2.2969 -7.8906 L2.625 -9.2188 L3.8281 -9.2188 ZM2.1406 -1.7031 Q2.0625 -1.3594 2.0469 -1.2031 Q2.0312 -1.0469 2.0312 -0.9375 Q2.0312 -0.7188 2.0938 -0.6094 Q2.1562 -0.5 2.3047 -0.4375 Q2.4531 -0.375 2.7812 -0.3281 L2.7188 0 L0.5938 0 L1.625 -4.6094 Q1.7188 -5 1.75 -5.2344 Q1.7812 -5.4688 1.7812 -5.6406 Q1.7812 -5.8281 1.7266 -5.9375 Q1.6719 -6.0469 1.5312 -6.1016 Q1.3906 -6.1562 1.0625 -6.1719 L1.1406 -6.5312 L2.7969 -6.5938 L3.2031 -6.5938 L2.1406 -1.7031 Z" stroke="none"/></g><g text-rendering="optimizeLegibility" transform="translate(226.9531,49.7422)" color-rendering="optimizeQuality" color-interpolation="linearRGB" image-rendering="optimizeQuality"><path d="M2.5781 -1.9844 Q2.4844 -1.5938 2.4531 -1.3516 Q2.4219 -1.1094 2.4219 -0.9219 Q2.4219 -0.6094 2.5781 -0.4844 Q2.7344 -0.3594 3.0938 -0.3281 L3.0156 0 L0.2812 0 L0.3594 -0.3281 Q0.625 -0.375 0.75 -0.4688 Q0.875 -0.5625 0.9688 -0.7266 Q1.0625 -0.8906 1.1328 -1.125 Q1.2031 -1.3594 1.3594 -2.0312 L2.5156 -7.2969 Q2.5938 -7.6094 2.6328 -7.9062 Q2.6719 -8.2031 2.6719 -8.4062 Q2.6719 -8.7188 2.5078 -8.8438 Q2.3438 -8.9688 2 -9 L2.0781 -9.3281 L4.8125 -9.3281 L4.7344 -9 Q4.4844 -8.9375 4.3672 -8.875 Q4.25 -8.8125 4.1562 -8.6719 Q4.0625 -8.5312 3.9766 -8.2422 Q3.8906 -7.9531 3.7344 -7.2969 L2.5781 -1.9844 Z" stroke="none"/></g><g text-rendering="optimizeLegibility" transform="translate(231.7656,49.7422)" color-rendering="optimizeQuality" color-interpolation="linearRGB" image-rendering="optimizeQuality"><path d="M2.5781 -1.9844 Q2.4844 -1.5938 2.4531 -1.3516 Q2.4219 -1.1094 2.4219 -0.9219 Q2.4219 -0.6094 2.5781 -0.4844 Q2.7344 -0.3594 3.0938 -0.3281 L3.0156 0 L0.2812 0 L0.3594 -0.3281 Q0.625 -0.375 0.75 -0.4688 Q0.875 -0.5625 0.9688 -0.7266 Q1.0625 -0.8906 1.1328 -1.125 Q1.2031 -1.3594 1.3594 -2.0312 L2.5156 -7.2969 Q2.5938 -7.6094 2.6328 -7.9062 Q2.6719 -8.2031 2.6719 -8.4062 Q2.6719 -8.7188 2.5078 -8.8438 Q2.3438 -8.9688 2 -9 L2.0781 -9.3281 L4.8125 -9.3281 L4.7344 -9 Q4.4844 -8.9375 4.3672 -8.875 Q4.25 -8.8125 4.1562 -8.6719 Q4.0625 -8.5312 3.9766 -8.2422 Q3.8906 -7.9531 3.7344 -7.2969 L2.5781 -1.9844 Z" stroke="none"/></g><g text-rendering="optimizeLegibility" transform="translate(238.1562,55.3086)" color-rendering="optimizeQuality" color-interpolation="linearRGB" image-rendering="optimizeQuality"><path d="M0.6719 -13.9688 Q2.1875 -13.9688 3.0703 -13.5781 Q3.9531 -13.1875 4.3281 -12.4062 Q4.7031 -11.625 4.7031 -10.3281 L4.7031 -7.5 Q4.7031 -6.625 4.9297 -6.1484 Q5.1562 -5.6719 5.5938 -5.4766 Q6.0312 -5.2812 6.8125 -5.2812 L6.8125 -4.4688 Q6.0312 -4.4688 5.5859 -4.2734 Q5.1406 -4.0781 4.9219 -3.5938 Q4.7031 -3.1094 4.7031 -2.25 L4.7031 0.5781 Q4.7031 1.8906 4.3281 2.6641 Q3.9531 3.4375 3.0703 3.8281 Q2.1875 4.2188 0.6719 4.2188 L0.4219 4.2188 L0.4219 3.4219 Q1.1875 3.4219 1.5781 3.3438 Q1.9688 3.2656 2.2031 3.1016 Q2.4375 2.9375 2.5938 2.6719 Q2.75 2.4062 2.8438 1.9375 Q2.9375 1.4688 2.9375 0.6875 L2.9375 -1.2031 Q2.9375 -2.1875 3.1016 -2.8438 Q3.2656 -3.5 3.7109 -3.9844 Q4.1562 -4.4688 4.9062 -4.7812 L4.9062 -4.9688 Q4.1719 -5.2656 3.7188 -5.7656 Q3.2656 -6.2656 3.1016 -6.9297 Q2.9375 -7.5938 2.9375 -8.5469 L2.9375 -10.4375 Q2.9375 -11.2188 2.8438 -11.6875 Q2.75 -12.1562 2.5938 -12.4141 Q2.4375 -12.6719 2.2031 -12.8438 Q1.9688 -13.0156 1.5781 -13.0938 Q1.1875 -13.1719 0.4219 -13.1719 L0.4219 -13.9688 L0.6719 -13.9688 Z" stroke="none"/></g><g text-rendering="optimizeLegibility" transform="translate(246.9688,44.4687)" color-rendering="optimizeQuality" color-interpolation="linearRGB" image-rendering="optimizeQuality"><path d="M4.6094 -1.2656 Q4.0469 -0.5781 3.5 -0.2344 Q2.9531 0.1094 2.3438 0.1094 Q1.625 0.1094 1.2656 -0.2578 Q0.9062 -0.625 0.9062 -1.3281 Q0.9062 -1.7656 1.0312 -2.2969 L1.875 -5.8438 L0.8594 -5.8438 L0.9375 -6.1875 Q1.3438 -6.2344 1.5781 -6.3672 Q1.8125 -6.5 1.9766 -6.7031 Q2.1406 -6.9062 2.2734 -7.2422 Q2.4062 -7.5781 2.6094 -8.2188 L3.5625 -8.2188 L3.1719 -6.5312 L5.3438 -6.5312 L5.2031 -5.8438 L3.0156 -5.8438 L2.3594 -3.1875 Q2.0938 -2.0781 2.0938 -1.5312 Q2.0938 -1.125 2.2734 -0.9062 Q2.4531 -0.6875 2.7969 -0.6875 Q3.125 -0.6875 3.4688 -0.9297 Q3.8125 -1.1719 4.2188 -1.6719 L4.6094 -1.2656 Z" stroke="none"/></g><g text-rendering="optimizeLegibility" transform="translate(253.3906,55.3086)" color-rendering="optimizeQuality" color-interpolation="linearRGB" image-rendering="optimizeQuality"><path d="M7.0781 4.2188 Q5.5625 4.2188 4.6797 3.8281 Q3.7969 3.4375 3.4141 2.6641 Q3.0312 1.8906 3.0312 0.5781 L3.0312 -2.25 Q3.0312 -3.1094 2.8125 -3.5938 Q2.5938 -4.0781 2.1562 -4.2734 Q1.7188 -4.4688 0.9219 -4.4688 L0.9219 -5.2812 Q1.7031 -5.2812 2.1484 -5.4766 Q2.5938 -5.6719 2.8125 -6.1484 Q3.0312 -6.625 3.0312 -7.5 L3.0312 -10.3281 Q3.0312 -11.625 3.4141 -12.4062 Q3.7969 -13.1875 4.6797 -13.5781 Q5.5625 -13.9688 7.0781 -13.9688 L7.3281 -13.9688 L7.3281 -13.1719 Q6.5469 -13.1719 6.1641 -13.0938 Q5.7812 -13.0156 5.5391 -12.8438 Q5.2969 -12.6719 5.1406 -12.4141 Q4.9844 -12.1562 4.8984 -11.6875 Q4.8125 -11.2188 4.8125 -10.4375 L4.8125 -8.5469 Q4.8125 -7.5625 4.6406 -6.8984 Q4.4688 -6.2344 4.0312 -5.7578 Q3.5938 -5.2812 2.8281 -4.9688 L2.8281 -4.7812 Q3.5781 -4.4844 4.0312 -3.9844 Q4.4844 -3.4844 4.6484 -2.8203 Q4.8125 -2.1562 4.8125 -1.2031 L4.8125 0.6875 Q4.8125 1.4688 4.8984 1.9375 Q4.9844 2.4062 5.1406 2.6719 Q5.2969 2.9375 5.5391 3.1016 Q5.7812 3.2656 6.1641 3.3438 Q6.5469 3.4219 7.3281 3.4219 L7.3281 4.2188 L7.0781 4.2188 Z" stroke="none"/></g><g text-rendering="optimizeLegibility" transform="translate(263.2188,55.3086)" color-rendering="optimizeQuality" color-interpolation="linearRGB" image-rendering="optimizeQuality"><path d="M9.75 0 L-0.5 0 L-0.375 -0.6094 L7.3594 -13.4844 L8.7344 -13.4844 L9.8906 -0.6094 L9.75 0 ZM7.6406 -7.0625 Q7.4219 -10.0625 7.4219 -11.3125 L7.3125 -11.3125 L1.5625 -1.4688 L8.0312 -1.4688 L7.6406 -7.0625 Z" stroke="none"/></g><g text-rendering="optimizeLegibility" transform="translate(273.1094,55.3086)" color-rendering="optimizeQuality" color-interpolation="linearRGB" image-rendering="optimizeQuality"><path d="M1.5 -9.3438 L4.5781 -9.3438 L3.3281 -4.3594 Q3.1875 -3.8125 3.0859 -3.2734 Q2.9844 -2.7344 2.9844 -2.2812 Q2.9844 -1.5938 3.2266 -1.2891 Q3.4688 -0.9844 3.9688 -0.9844 Q4.3906 -0.9844 4.8828 -1.3125 Q5.375 -1.6406 5.9219 -2.3281 Q6.4688 -3.0156 6.7812 -3.6328 Q7.0938 -4.25 7.2812 -5.0938 L8.1719 -9.3438 L9.8594 -9.3438 L8.375 -2.6719 Q8.3125 -2.4062 8.2344 -1.9766 Q8.1562 -1.5469 8.1562 -1.2656 Q8.1562 -0.8594 8.3828 -0.6875 Q8.6094 -0.5156 9.2344 -0.4844 L9.125 0 L6.3438 0 L6.9688 -2.4531 L6.8438 -2.4844 Q5.8906 -1.1406 5.0078 -0.4922 Q4.125 0.1562 3.2188 0.1562 Q2.2812 0.1562 1.7891 -0.3672 Q1.2969 -0.8906 1.2969 -1.9219 Q1.2969 -2.2031 1.3516 -2.6016 Q1.4062 -3 1.5 -3.4219 L2.3281 -6.8906 Q2.4219 -7.3281 2.4531 -7.5781 Q2.4844 -7.8281 2.4844 -8.0156 Q2.4844 -8.4531 2.25 -8.625 Q2.0156 -8.7969 1.4219 -8.8438 L1.5 -9.3438 Z" stroke="none"/></g><g text-rendering="optimizeLegibility" transform="translate(282.9688,60.9609)" color-rendering="optimizeQuality" color-interpolation="linearRGB" image-rendering="optimizeQuality"><path d="M3.8281 -9.2188 L3.5156 -7.8906 L2.2969 -7.8906 L2.625 -9.2188 L3.8281 -9.2188 ZM2.1406 -1.7031 Q2.0625 -1.3594 2.0469 -1.2031 Q2.0312 -1.0469 2.0312 -0.9375 Q2.0312 -0.7188 2.0938 -0.6094 Q2.1562 -0.5 2.3047 -0.4375 Q2.4531 -0.375 2.7812 -0.3281 L2.7188 0 L0.5938 0 L1.625 -4.6094 Q1.7188 -5 1.75 -5.2344 Q1.7812 -5.4688 1.7812 -5.6406 Q1.7812 -5.8281 1.7266 -5.9375 Q1.6719 -6.0469 1.5312 -6.1016 Q1.3906 -6.1562 1.0625 -6.1719 L1.1406 -6.5312 L2.7969 -6.5938 L3.2031 -6.5938 L2.1406 -1.7031 Z" stroke="none"/></g><g text-rendering="optimizeLegibility" transform="translate(282.9688,49.7422)" color-rendering="optimizeQuality" color-interpolation="linearRGB" image-rendering="optimizeQuality"><path d="M2.5781 -1.9844 Q2.4844 -1.5938 2.4531 -1.3516 Q2.4219 -1.1094 2.4219 -0.9219 Q2.4219 -0.6094 2.5781 -0.4844 Q2.7344 -0.3594 3.0938 -0.3281 L3.0156 0 L0.2812 0 L0.3594 -0.3281 Q0.625 -0.375 0.75 -0.4688 Q0.875 -0.5625 0.9688 -0.7266 Q1.0625 -0.8906 1.1328 -1.125 Q1.2031 -1.3594 1.3594 -2.0312 L2.5156 -7.2969 Q2.5938 -7.6094 2.6328 -7.9062 Q2.6719 -8.2031 2.6719 -8.4062 Q2.6719 -8.7188 2.5078 -8.8438 Q2.3438 -8.9688 2 -9 L2.0781 -9.3281 L4.8125 -9.3281 L4.7344 -9 Q4.4844 -8.9375 4.3672 -8.875 Q4.25 -8.8125 4.1562 -8.6719 Q4.0625 -8.5312 3.9766 -8.2422 Q3.8906 -7.9531 3.7344 -7.2969 L2.5781 -1.9844 Z" stroke="none"/></g><g text-rendering="optimizeLegibility" transform="translate(289.3594,55.3086)" color-rendering="optimizeQuality" color-interpolation="linearRGB" image-rendering="optimizeQuality"><path d="M0.6719 -13.9688 Q2.1875 -13.9688 3.0703 -13.5781 Q3.9531 -13.1875 4.3281 -12.4062 Q4.7031 -11.625 4.7031 -10.3281 L4.7031 -7.5 Q4.7031 -6.625 4.9297 -6.1484 Q5.1562 -5.6719 5.5938 -5.4766 Q6.0312 -5.2812 6.8125 -5.2812 L6.8125 -4.4688 Q6.0312 -4.4688 5.5859 -4.2734 Q5.1406 -4.0781 4.9219 -3.5938 Q4.7031 -3.1094 4.7031 -2.25 L4.7031 0.5781 Q4.7031 1.8906 4.3281 2.6641 Q3.9531 3.4375 3.0703 3.8281 Q2.1875 4.2188 0.6719 4.2188 L0.4219 4.2188 L0.4219 3.4219 Q1.1875 3.4219 1.5781 3.3438 Q1.9688 3.2656 2.2031 3.1016 Q2.4375 2.9375 2.5938 2.6719 Q2.75 2.4062 2.8438 1.9375 Q2.9375 1.4688 2.9375 0.6875 L2.9375 -1.2031 Q2.9375 -2.1875 3.1016 -2.8438 Q3.2656 -3.5 3.7109 -3.9844 Q4.1562 -4.4688 4.9062 -4.7812 L4.9062 -4.9688 Q4.1719 -5.2656 3.7188 -5.7656 Q3.2656 -6.2656 3.1016 -6.9297 Q2.9375 -7.5938 2.9375 -8.5469 L2.9375 -10.4375 Q2.9375 -11.2188 2.8438 -11.6875 Q2.75 -12.1562 2.5938 -12.4141 Q2.4375 -12.6719 2.2031 -12.8438 Q1.9688 -13.0156 1.5781 -13.0938 Q1.1875 -13.1719 0.4219 -13.1719 L0.4219 -13.9688 L0.6719 -13.9688 Z" stroke="none"/></g><g text-rendering="optimizeLegibility" transform="translate(299.75,54.9707) matrix(1,0,0,1.4095,0,0)" color-rendering="optimizeQuality" color-interpolation="linearRGB" image-rendering="optimizeQuality"><path d="M0.4219 -14.0156 Q2.0781 -14.0156 3.1328 -13.5156 Q4.1875 -13.0156 4.7734 -12 Q5.3594 -10.9844 5.6172 -9.3516 Q5.875 -7.7188 5.875 -4.9219 Q5.875 -2.1562 5.6172 -0.5078 Q5.3594 1.1406 4.7734 2.1797 Q4.1875 3.2188 3.1328 3.7344 Q2.0781 4.25 0.4219 4.25 L0.4219 3.4531 Q1.1094 3.4531 1.625 3.3281 Q2.2344 3.1875 2.6406 2.7969 Q3.1094 2.375 3.4062 1.6094 Q3.75 0.7031 3.9219 -0.7812 Q4.0938 -2.3594 4.0938 -4.8438 Q4.0938 -7.0469 3.9453 -8.5859 Q3.7969 -10.125 3.4531 -11.0938 Q3.1875 -11.9219 2.7812 -12.375 Q2.4062 -12.7812 1.9219 -12.9844 Q1.3438 -13.2188 0.4219 -13.2188 L0.4219 -14.0156 Z" stroke="none"/></g><g text-rendering="optimizeLegibility" transform="translate(0,89.0938)" color-rendering="optimizeQuality" color-interpolation="linearRGB" image-rendering="optimizeQuality"><path d="M7.1719 -7 Q7.1562 -7.7344 7.0547 -8.0703 Q6.9531 -8.4062 6.7266 -8.5703 Q6.5 -8.7344 6.0781 -8.7344 Q5.0938 -8.7344 4.3047 -7.9453 Q3.5156 -7.1562 3.0156 -5.7188 Q2.5156 -4.2812 2.5156 -2.9531 Q2.5156 -2.5469 2.5938 -2.1797 Q2.6719 -1.8125 2.8516 -1.5547 Q3.0312 -1.2969 3.3281 -1.1406 Q3.625 -0.9844 4.0781 -0.9844 Q4.9688 -0.9844 5.6172 -1.3203 Q6.2656 -1.6562 7 -2.3906 L7.5938 -1.7812 Q6.6719 -0.7656 5.7422 -0.2969 Q4.8125 0.1719 3.7344 0.1719 Q2.3125 0.1719 1.5781 -0.6719 Q0.8438 -1.5156 0.8438 -3.1094 Q0.8438 -4.1562 1.2344 -5.4062 Q1.625 -6.6562 2.3828 -7.6094 Q3.1406 -8.5625 4.1406 -9.0312 Q5.1406 -9.5 6.2969 -9.5 Q7.0781 -9.5 7.6562 -9.4062 Q8.2344 -9.3125 8.6875 -9.2031 L8.2031 -7 L7.1719 -7 Z" stroke="none"/></g><g text-rendering="optimizeLegibility" transform="translate(9.4688,89.0938)" color-rendering="optimizeQuality" color-interpolation="linearRGB" image-rendering="optimizeQuality"><path d="M1.2188 -7.0625 L1.2188 -8.4219 L9.8594 -8.4219 L9.8594 -7.0625 L1.2188 -7.0625 ZM1.2188 -3.0156 L1.2188 -4.3594 L9.8594 -4.3594 L9.8594 -3.0156 L1.2188 -3.0156 Z" stroke="none"/></g><g text-rendering="optimizeLegibility" transform="translate(21.3281,89.0938)" color-rendering="optimizeQuality" color-interpolation="linearRGB" image-rendering="optimizeQuality"><path d="M6.8594 -1.5625 Q7.3281 -1.5625 7.625 -1.625 Q7.9219 -1.6875 8.0938 -1.8203 Q8.2656 -1.9531 8.375 -2.1719 Q8.4844 -2.3906 8.6406 -2.8594 L9.4688 -2.8594 L9.2969 0 L1.2656 0 L1.2656 -0.4688 Q1.6875 -1.5 2.3984 -2.5703 Q3.1094 -3.6406 4.4219 -5.0938 Q5.5469 -6.3438 6.0469 -7 Q6.5938 -7.7031 6.8594 -8.2109 Q7.125 -8.7188 7.2422 -9.1719 Q7.3594 -9.625 7.3594 -10.0938 Q7.3594 -10.8281 7.125 -11.3828 Q6.8906 -11.9375 6.4062 -12.2656 Q5.9219 -12.5938 5.2031 -12.5938 Q3.375 -12.5938 2.7344 -10.5625 L1.5469 -10.5625 L1.5469 -12.4375 Q2.7344 -12.9844 3.7656 -13.2344 Q4.7969 -13.4844 5.6094 -13.4844 Q7.4375 -13.4844 8.3594 -12.6875 Q9.2812 -11.8906 9.2812 -10.375 Q9.2812 -9.8594 9.1797 -9.4297 Q9.0781 -9 8.8594 -8.5703 Q8.6406 -8.1406 8.2734 -7.6562 Q7.9062 -7.1719 7.4531 -6.6641 Q7 -6.1562 5.9062 -4.9844 Q4.0469 -3.0312 3.1719 -1.5625 L6.8594 -1.5625 Z" stroke="none"/></g><g text-rendering="optimizeLegibility" transform="translate(31.875,89.0938)" color-rendering="optimizeQuality" color-interpolation="linearRGB" image-rendering="optimizeQuality"><path d="M7.0781 4.2188 Q5.5625 4.2188 4.6797 3.8281 Q3.7969 3.4375 3.4141 2.6641 Q3.0312 1.8906 3.0312 0.5781 L3.0312 -2.25 Q3.0312 -3.1094 2.8125 -3.5938 Q2.5938 -4.0781 2.1562 -4.2734 Q1.7188 -4.4688 0.9219 -4.4688 L0.9219 -5.2812 Q1.7031 -5.2812 2.1484 -5.4766 Q2.5938 -5.6719 2.8125 -6.1484 Q3.0312 -6.625 3.0312 -7.5 L3.0312 -10.3281 Q3.0312 -11.625 3.4141 -12.4062 Q3.7969 -13.1875 4.6797 -13.5781 Q5.5625 -13.9688 7.0781 -13.9688 L7.3281 -13.9688 L7.3281 -13.1719 Q6.5469 -13.1719 6.1641 -13.0938 Q5.7812 -13.0156 5.5391 -12.8438 Q5.2969 -12.6719 5.1406 -12.4141 Q4.9844 -12.1562 4.8984 -11.6875 Q4.8125 -11.2188 4.8125 -10.4375 L4.8125 -8.5469 Q4.8125 -7.5625 4.6406 -6.8984 Q4.4688 -6.2344 4.0312 -5.7578 Q3.5938 -5.2812 2.8281 -4.9688 L2.8281 -4.7812 Q3.5781 -4.4844 4.0312 -3.9844 Q4.4844 -3.4844 4.6484 -2.8203 Q4.8125 -2.1562 4.8125 -1.2031 L4.8125 0.6875 Q4.8125 1.4688 4.8984 1.9375 Q4.9844 2.4062 5.1406 2.6719 Q5.2969 2.9375 5.5391 3.1016 Q5.7812 3.2656 6.1641 3.3438 Q6.5469 3.4219 7.3281 3.4219 L7.3281 4.2188 L7.0781 4.2188 Z" stroke="none"/></g><g text-rendering="optimizeLegibility" transform="translate(41.7031,89.0938)" color-rendering="optimizeQuality" color-interpolation="linearRGB" image-rendering="optimizeQuality"><path d="M9.75 0 L-0.5 0 L-0.375 -0.6094 L7.3594 -13.4844 L8.7344 -13.4844 L9.8906 -0.6094 L9.75 0 ZM7.6406 -7.0625 Q7.4219 -10.0625 7.4219 -11.3125 L7.3125 -11.3125 L1.5625 -1.4688 L8.0312 -1.4688 L7.6406 -7.0625 Z" stroke="none"/></g><g text-rendering="optimizeLegibility" transform="translate(51.5938,89.0938)" color-rendering="optimizeQuality" color-interpolation="linearRGB" image-rendering="optimizeQuality"><path d="M1.5 -9.3438 L4.5781 -9.3438 L3.3281 -4.3594 Q3.1875 -3.8125 3.0859 -3.2734 Q2.9844 -2.7344 2.9844 -2.2812 Q2.9844 -1.5938 3.2266 -1.2891 Q3.4688 -0.9844 3.9688 -0.9844 Q4.3906 -0.9844 4.8828 -1.3125 Q5.375 -1.6406 5.9219 -2.3281 Q6.4688 -3.0156 6.7812 -3.6328 Q7.0938 -4.25 7.2812 -5.0938 L8.1719 -9.3438 L9.8594 -9.3438 L8.375 -2.6719 Q8.3125 -2.4062 8.2344 -1.9766 Q8.1562 -1.5469 8.1562 -1.2656 Q8.1562 -0.8594 8.3828 -0.6875 Q8.6094 -0.5156 9.2344 -0.4844 L9.125 0 L6.3438 0 L6.9688 -2.4531 L6.8438 -2.4844 Q5.8906 -1.1406 5.0078 -0.4922 Q4.125 0.1562 3.2188 0.1562 Q2.2812 0.1562 1.7891 -0.3672 Q1.2969 -0.8906 1.2969 -1.9219 Q1.2969 -2.2031 1.3516 -2.6016 Q1.4062 -3 1.5 -3.4219 L2.3281 -6.8906 Q2.4219 -7.3281 2.4531 -7.5781 Q2.4844 -7.8281 2.4844 -8.0156 Q2.4844 -8.4531 2.25 -8.625 Q2.0156 -8.7969 1.4219 -8.8438 L1.5 -9.3438 Z" stroke="none"/></g><g text-rendering="optimizeLegibility" transform="translate(61.4531,92.5703)" color-rendering="optimizeQuality" color-interpolation="linearRGB" image-rendering="optimizeQuality"><path d="M6.4531 0 L4.2969 0 L5.1562 -3.4688 Q5.25 -3.8125 5.3281 -4.2109 Q5.4062 -4.6094 5.4062 -4.9375 Q5.4062 -5.4219 5.2344 -5.6328 Q5.0625 -5.8438 4.7031 -5.8438 Q4.4219 -5.8438 4.0938 -5.625 Q3.7656 -5.4062 3.3984 -4.9609 Q3.0312 -4.5156 2.7812 -4.0625 Q2.5312 -3.6094 2.4062 -2.9531 L1.7812 0 L0.5938 0 L1.6406 -4.6719 Q1.6719 -4.8281 1.7266 -5.1328 Q1.7812 -5.4375 1.7812 -5.6406 Q1.7812 -5.8438 1.7266 -5.9453 Q1.6719 -6.0469 1.5312 -6.1016 Q1.3906 -6.1562 1.0469 -6.1719 L1.1406 -6.5312 L2.6875 -6.5938 L3.0781 -6.5938 L2.625 -4.8125 L2.7031 -4.7969 Q3.375 -5.7344 3.9922 -6.1875 Q4.6094 -6.6406 5.2344 -6.6406 Q5.9062 -6.6406 6.2422 -6.2734 Q6.5781 -5.9062 6.5781 -5.2031 Q6.5781 -4.9531 6.5391 -4.6641 Q6.5 -4.375 6.4375 -4.1406 L5.8594 -1.7031 Q5.75 -1.2188 5.75 -0.9375 Q5.75 -0.7188 5.8203 -0.6094 Q5.8906 -0.5 6.0312 -0.4375 Q6.1719 -0.375 6.5 -0.3281 L6.4531 0 Z" stroke="none"/></g><g text-rendering="optimizeLegibility" transform="translate(69.6094,89.0938)" color-rendering="optimizeQuality" color-interpolation="linearRGB" image-rendering="optimizeQuality"><path d="M0.6719 -13.9688 Q2.1875 -13.9688 3.0703 -13.5781 Q3.9531 -13.1875 4.3281 -12.4062 Q4.7031 -11.625 4.7031 -10.3281 L4.7031 -7.5 Q4.7031 -6.625 4.9297 -6.1484 Q5.1562 -5.6719 5.5938 -5.4766 Q6.0312 -5.2812 6.8125 -5.2812 L6.8125 -4.4688 Q6.0312 -4.4688 5.5859 -4.2734 Q5.1406 -4.0781 4.9219 -3.5938 Q4.7031 -3.1094 4.7031 -2.25 L4.7031 0.5781 Q4.7031 1.8906 4.3281 2.6641 Q3.9531 3.4375 3.0703 3.8281 Q2.1875 4.2188 0.6719 4.2188 L0.4219 4.2188 L0.4219 3.4219 Q1.1875 3.4219 1.5781 3.3438 Q1.9688 3.2656 2.2031 3.1016 Q2.4375 2.9375 2.5938 2.6719 Q2.75 2.4062 2.8438 1.9375 Q2.9375 1.4688 2.9375 0.6875 L2.9375 -1.2031 Q2.9375 -2.1875 3.1016 -2.8438 Q3.2656 -3.5 3.7109 -3.9844 Q4.1562 -4.4688 4.9062 -4.7812 L4.9062 -4.9688 Q4.1719 -5.2656 3.7188 -5.7656 Q3.2656 -6.2656 3.1016 -6.9297 Q2.9375 -7.5938 2.9375 -8.5469 L2.9375 -10.4375 Q2.9375 -11.2188 2.8438 -11.6875 Q2.75 -12.1562 2.5938 -12.4141 Q2.4375 -12.6719 2.2031 -12.8438 Q1.9688 -13.0156 1.5781 -13.0938 Q1.1875 -13.1719 0.4219 -13.1719 L0.4219 -13.9688 L0.6719 -13.9688 Z" stroke="none"/></g><g text-rendering="optimizeLegibility" transform="translate(76.4219,79.1797)" color-rendering="optimizeQuality" color-interpolation="linearRGB" image-rendering="optimizeQuality"><path d="M4.6094 -1.2656 Q4.0469 -0.5781 3.5 -0.2344 Q2.9531 0.1094 2.3438 0.1094 Q1.625 0.1094 1.2656 -0.2578 Q0.9062 -0.625 0.9062 -1.3281 Q0.9062 -1.7656 1.0312 -2.2969 L1.875 -5.8438 L0.8594 -5.8438 L0.9375 -6.1875 Q1.3438 -6.2344 1.5781 -6.3672 Q1.8125 -6.5 1.9766 -6.7031 Q2.1406 -6.9062 2.2734 -7.2422 Q2.4062 -7.5781 2.6094 -8.2188 L3.5625 -8.2188 L3.1719 -6.5312 L5.3438 -6.5312 L5.2031 -5.8438 L3.0156 -5.8438 L2.3594 -3.1875 Q2.0938 -2.0781 2.0938 -1.5312 Q2.0938 -1.125 2.2734 -0.9062 Q2.4531 -0.6875 2.7969 -0.6875 Q3.125 -0.6875 3.4688 -0.9297 Q3.8125 -1.1719 4.2188 -1.6719 L4.6094 -1.2656 Z" stroke="none"/></g><g text-rendering="optimizeLegibility" transform="translate(82.8438,89.0938)" color-rendering="optimizeQuality" color-interpolation="linearRGB" image-rendering="optimizeQuality"><path d="M7.0781 4.2188 Q5.5625 4.2188 4.6797 3.8281 Q3.7969 3.4375 3.4141 2.6641 Q3.0312 1.8906 3.0312 0.5781 L3.0312 -2.25 Q3.0312 -3.1094 2.8125 -3.5938 Q2.5938 -4.0781 2.1562 -4.2734 Q1.7188 -4.4688 0.9219 -4.4688 L0.9219 -5.2812 Q1.7031 -5.2812 2.1484 -5.4766 Q2.5938 -5.6719 2.8125 -6.1484 Q3.0312 -6.625 3.0312 -7.5 L3.0312 -10.3281 Q3.0312 -11.625 3.4141 -12.4062 Q3.7969 -13.1875 4.6797 -13.5781 Q5.5625 -13.9688 7.0781 -13.9688 L7.3281 -13.9688 L7.3281 -13.1719 Q6.5469 -13.1719 6.1641 -13.0938 Q5.7812 -13.0156 5.5391 -12.8438 Q5.2969 -12.6719 5.1406 -12.4141 Q4.9844 -12.1562 4.8984 -11.6875 Q4.8125 -11.2188 4.8125 -10.4375 L4.8125 -8.5469 Q4.8125 -7.5625 4.6406 -6.8984 Q4.4688 -6.2344 4.0312 -5.7578 Q3.5938 -5.2812 2.8281 -4.9688 L2.8281 -4.7812 Q3.5781 -4.4844 4.0312 -3.9844 Q4.4844 -3.4844 4.6484 -2.8203 Q4.8125 -2.1562 4.8125 -1.2031 L4.8125 0.6875 Q4.8125 1.4688 4.8984 1.9375 Q4.9844 2.4062 5.1406 2.6719 Q5.2969 2.9375 5.5391 3.1016 Q5.7812 3.2656 6.1641 3.3438 Q6.5469 3.4219 7.3281 3.4219 L7.3281 4.2188 L7.0781 4.2188 Z" stroke="none"/></g><g text-rendering="optimizeLegibility" transform="translate(92.6719,89.0938)" color-rendering="optimizeQuality" color-interpolation="linearRGB" image-rendering="optimizeQuality"><path d="M9.75 0 L-0.5 0 L-0.375 -0.6094 L7.3594 -13.4844 L8.7344 -13.4844 L9.8906 -0.6094 L9.75 0 ZM7.6406 -7.0625 Q7.4219 -10.0625 7.4219 -11.3125 L7.3125 -11.3125 L1.5625 -1.4688 L8.0312 -1.4688 L7.6406 -7.0625 Z" stroke="none"/></g><g text-rendering="optimizeLegibility" transform="translate(102.5625,89.0938)" color-rendering="optimizeQuality" color-interpolation="linearRGB" image-rendering="optimizeQuality"><path d="M1.5 -9.3438 L4.5781 -9.3438 L3.3281 -4.3594 Q3.1875 -3.8125 3.0859 -3.2734 Q2.9844 -2.7344 2.9844 -2.2812 Q2.9844 -1.5938 3.2266 -1.2891 Q3.4688 -0.9844 3.9688 -0.9844 Q4.3906 -0.9844 4.8828 -1.3125 Q5.375 -1.6406 5.9219 -2.3281 Q6.4688 -3.0156 6.7812 -3.6328 Q7.0938 -4.25 7.2812 -5.0938 L8.1719 -9.3438 L9.8594 -9.3438 L8.375 -2.6719 Q8.3125 -2.4062 8.2344 -1.9766 Q8.1562 -1.5469 8.1562 -1.2656 Q8.1562 -0.8594 8.3828 -0.6875 Q8.6094 -0.5156 9.2344 -0.4844 L9.125 0 L6.3438 0 L6.9688 -2.4531 L6.8438 -2.4844 Q5.8906 -1.1406 5.0078 -0.4922 Q4.125 0.1562 3.2188 0.1562 Q2.2812 0.1562 1.7891 -0.3672 Q1.2969 -0.8906 1.2969 -1.9219 Q1.2969 -2.2031 1.3516 -2.6016 Q1.4062 -3 1.5 -3.4219 L2.3281 -6.8906 Q2.4219 -7.3281 2.4531 -7.5781 Q2.4844 -7.8281 2.4844 -8.0156 Q2.4844 -8.4531 2.25 -8.625 Q2.0156 -8.7969 1.4219 -8.8438 L1.5 -9.3438 Z" stroke="none"/></g><g text-rendering="optimizeLegibility" transform="translate(112.4219,94.7461)" color-rendering="optimizeQuality" color-interpolation="linearRGB" image-rendering="optimizeQuality"><path d="M3.8281 -9.2188 L3.5156 -7.8906 L2.2969 -7.8906 L2.625 -9.2188 L3.8281 -9.2188 ZM2.1406 -1.7031 Q2.0625 -1.3594 2.0469 -1.2031 Q2.0312 -1.0469 2.0312 -0.9375 Q2.0312 -0.7188 2.0938 -0.6094 Q2.1562 -0.5 2.3047 -0.4375 Q2.4531 -0.375 2.7812 -0.3281 L2.7188 0 L0.5938 0 L1.625 -4.6094 Q1.7188 -5 1.75 -5.2344 Q1.7812 -5.4688 1.7812 -5.6406 Q1.7812 -5.8281 1.7266 -5.9375 Q1.6719 -6.0469 1.5312 -6.1016 Q1.3906 -6.1562 1.0625 -6.1719 L1.1406 -6.5312 L2.7969 -6.5938 L3.2031 -6.5938 L2.1406 -1.7031 Z" stroke="none"/></g><g text-rendering="optimizeLegibility" transform="translate(112.4219,83.5273)" color-rendering="optimizeQuality" color-interpolation="linearRGB" image-rendering="optimizeQuality"><path d="M2.5781 -1.9844 Q2.4844 -1.5938 2.4531 -1.3516 Q2.4219 -1.1094 2.4219 -0.9219 Q2.4219 -0.6094 2.5781 -0.4844 Q2.7344 -0.3594 3.0938 -0.3281 L3.0156 0 L0.2812 0 L0.3594 -0.3281 Q0.625 -0.375 0.75 -0.4688 Q0.875 -0.5625 0.9688 -0.7266 Q1.0625 -0.8906 1.1328 -1.125 Q1.2031 -1.3594 1.3594 -2.0312 L2.5156 -7.2969 Q2.5938 -7.6094 2.6328 -7.9062 Q2.6719 -8.2031 2.6719 -8.4062 Q2.6719 -8.7188 2.5078 -8.8438 Q2.3438 -8.9688 2 -9 L2.0781 -9.3281 L4.8125 -9.3281 L4.7344 -9 Q4.4844 -8.9375 4.3672 -8.875 Q4.25 -8.8125 4.1562 -8.6719 Q4.0625 -8.5312 3.9766 -8.2422 Q3.8906 -7.9531 3.7344 -7.2969 L2.5781 -1.9844 Z" stroke="none"/></g><g text-rendering="optimizeLegibility" transform="translate(117.2344,83.5273)" color-rendering="optimizeQuality" color-interpolation="linearRGB" image-rendering="optimizeQuality"><path d="M2.5781 -1.9844 Q2.4844 -1.5938 2.4531 -1.3516 Q2.4219 -1.1094 2.4219 -0.9219 Q2.4219 -0.6094 2.5781 -0.4844 Q2.7344 -0.3594 3.0938 -0.3281 L3.0156 0 L0.2812 0 L0.3594 -0.3281 Q0.625 -0.375 0.75 -0.4688 Q0.875 -0.5625 0.9688 -0.7266 Q1.0625 -0.8906 1.1328 -1.125 Q1.2031 -1.3594 1.3594 -2.0312 L2.5156 -7.2969 Q2.5938 -7.6094 2.6328 -7.9062 Q2.6719 -8.2031 2.6719 -8.4062 Q2.6719 -8.7188 2.5078 -8.8438 Q2.3438 -8.9688 2 -9 L2.0781 -9.3281 L4.8125 -9.3281 L4.7344 -9 Q4.4844 -8.9375 4.3672 -8.875 Q4.25 -8.8125 4.1562 -8.6719 Q4.0625 -8.5312 3.9766 -8.2422 Q3.8906 -7.9531 3.7344 -7.2969 L2.5781 -1.9844 Z" stroke="none"/></g><g text-rendering="optimizeLegibility" transform="translate(123.625,89.0938)" color-rendering="optimizeQuality" color-interpolation="linearRGB" image-rendering="optimizeQuality"><path d="M0.6719 -13.9688 Q2.1875 -13.9688 3.0703 -13.5781 Q3.9531 -13.1875 4.3281 -12.4062 Q4.7031 -11.625 4.7031 -10.3281 L4.7031 -7.5 Q4.7031 -6.625 4.9297 -6.1484 Q5.1562 -5.6719 5.5938 -5.4766 Q6.0312 -5.2812 6.8125 -5.2812 L6.8125 -4.4688 Q6.0312 -4.4688 5.5859 -4.2734 Q5.1406 -4.0781 4.9219 -3.5938 Q4.7031 -3.1094 4.7031 -2.25 L4.7031 0.5781 Q4.7031 1.8906 4.3281 2.6641 Q3.9531 3.4375 3.0703 3.8281 Q2.1875 4.2188 0.6719 4.2188 L0.4219 4.2188 L0.4219 3.4219 Q1.1875 3.4219 1.5781 3.3438 Q1.9688 3.2656 2.2031 3.1016 Q2.4375 2.9375 2.5938 2.6719 Q2.75 2.4062 2.8438 1.9375 Q2.9375 1.4688 2.9375 0.6875 L2.9375 -1.2031 Q2.9375 -2.1875 3.1016 -2.8438 Q3.2656 -3.5 3.7109 -3.9844 Q4.1562 -4.4688 4.9062 -4.7812 L4.9062 -4.9688 Q4.1719 -5.2656 3.7188 -5.7656 Q3.2656 -6.2656 3.1016 -6.9297 Q2.9375 -7.5938 2.9375 -8.5469 L2.9375 -10.4375 Q2.9375 -11.2188 2.8438 -11.6875 Q2.75 -12.1562 2.5938 -12.4141 Q2.4375 -12.6719 2.2031 -12.8438 Q1.9688 -13.0156 1.5781 -13.0938 Q1.1875 -13.1719 0.4219 -13.1719 L0.4219 -13.9688 L0.6719 -13.9688 Z" stroke="none"/></g><g text-rendering="optimizeLegibility" transform="translate(133.2188,89.0938)" color-rendering="optimizeQuality" color-interpolation="linearRGB" image-rendering="optimizeQuality"><path d="M6.25 -5.0469 L6.25 -1.3438 L4.8125 -1.3438 L4.8125 -5.0469 L1.2188 -5.0469 L1.2188 -6.3906 L4.8125 -6.3906 L4.8125 -10.0938 L6.25 -10.0938 L6.25 -6.3906 L9.8594 -6.3906 L9.8594 -5.0469 L6.25 -5.0469 Z" stroke="none"/></g><g text-rendering="optimizeLegibility" transform="translate(146.1562,89.0938)" color-rendering="optimizeQuality" color-interpolation="linearRGB" image-rendering="optimizeQuality"><path d="M7.0781 4.2188 Q5.5625 4.2188 4.6797 3.8281 Q3.7969 3.4375 3.4141 2.6641 Q3.0312 1.8906 3.0312 0.5781 L3.0312 -2.25 Q3.0312 -3.1094 2.8125 -3.5938 Q2.5938 -4.0781 2.1562 -4.2734 Q1.7188 -4.4688 0.9219 -4.4688 L0.9219 -5.2812 Q1.7031 -5.2812 2.1484 -5.4766 Q2.5938 -5.6719 2.8125 -6.1484 Q3.0312 -6.625 3.0312 -7.5 L3.0312 -10.3281 Q3.0312 -11.625 3.4141 -12.4062 Q3.7969 -13.1875 4.6797 -13.5781 Q5.5625 -13.9688 7.0781 -13.9688 L7.3281 -13.9688 L7.3281 -13.1719 Q6.5469 -13.1719 6.1641 -13.0938 Q5.7812 -13.0156 5.5391 -12.8438 Q5.2969 -12.6719 5.1406 -12.4141 Q4.9844 -12.1562 4.8984 -11.6875 Q4.8125 -11.2188 4.8125 -10.4375 L4.8125 -8.5469 Q4.8125 -7.5625 4.6406 -6.8984 Q4.4688 -6.2344 4.0312 -5.7578 Q3.5938 -5.2812 2.8281 -4.9688 L2.8281 -4.7812 Q3.5781 -4.4844 4.0312 -3.9844 Q4.4844 -3.4844 4.6484 -2.8203 Q4.8125 -2.1562 4.8125 -1.2031 L4.8125 0.6875 Q4.8125 1.4688 4.8984 1.9375 Q4.9844 2.4062 5.1406 2.6719 Q5.2969 2.9375 5.5391 3.1016 Q5.7812 3.2656 6.1641 3.3438 Q6.5469 3.4219 7.3281 3.4219 L7.3281 4.2188 L7.0781 4.2188 Z" stroke="none"/></g><g text-rendering="optimizeLegibility" transform="translate(155.9844,89.0938)" color-rendering="optimizeQuality" color-interpolation="linearRGB" image-rendering="optimizeQuality"><path d="M9.75 0 L-0.5 0 L-0.375 -0.6094 L7.3594 -13.4844 L8.7344 -13.4844 L9.8906 -0.6094 L9.75 0 ZM7.6406 -7.0625 Q7.4219 -10.0625 7.4219 -11.3125 L7.3125 -11.3125 L1.5625 -1.4688 L8.0312 -1.4688 L7.6406 -7.0625 Z" stroke="none"/></g><g text-rendering="optimizeLegibility" transform="translate(165.875,89.0938)" color-rendering="optimizeQuality" color-interpolation="linearRGB" image-rendering="optimizeQuality"><path d="M1.5 -9.3438 L4.5781 -9.3438 L3.3281 -4.3594 Q3.1875 -3.8125 3.0859 -3.2734 Q2.9844 -2.7344 2.9844 -2.2812 Q2.9844 -1.5938 3.2266 -1.2891 Q3.4688 -0.9844 3.9688 -0.9844 Q4.3906 -0.9844 4.8828 -1.3125 Q5.375 -1.6406 5.9219 -2.3281 Q6.4688 -3.0156 6.7812 -3.6328 Q7.0938 -4.25 7.2812 -5.0938 L8.1719 -9.3438 L9.8594 -9.3438 L8.375 -2.6719 Q8.3125 -2.4062 8.2344 -1.9766 Q8.1562 -1.5469 8.1562 -1.2656 Q8.1562 -0.8594 8.3828 -0.6875 Q8.6094 -0.5156 9.2344 -0.4844 L9.125 0 L6.3438 0 L6.9688 -2.4531 L6.8438 -2.4844 Q5.8906 -1.1406 5.0078 -0.4922 Q4.125 0.1562 3.2188 0.1562 Q2.2812 0.1562 1.7891 -0.3672 Q1.2969 -0.8906 1.2969 -1.9219 Q1.2969 -2.2031 1.3516 -2.6016 Q1.4062 -3 1.5 -3.4219 L2.3281 -6.8906 Q2.4219 -7.3281 2.4531 -7.5781 Q2.4844 -7.8281 2.4844 -8.0156 Q2.4844 -8.4531 2.25 -8.625 Q2.0156 -8.7969 1.4219 -8.8438 L1.5 -9.3438 Z" stroke="none"/></g><g text-rendering="optimizeLegibility" transform="translate(175.7344,94.7461)" color-rendering="optimizeQuality" color-interpolation="linearRGB" image-rendering="optimizeQuality"><path d="M3.8281 -9.2188 L3.5156 -7.8906 L2.2969 -7.8906 L2.625 -9.2188 L3.8281 -9.2188 ZM2.1406 -1.7031 Q2.0625 -1.3594 2.0469 -1.2031 Q2.0312 -1.0469 2.0312 -0.9375 Q2.0312 -0.7188 2.0938 -0.6094 Q2.1562 -0.5 2.3047 -0.4375 Q2.4531 -0.375 2.7812 -0.3281 L2.7188 0 L0.5938 0 L1.625 -4.6094 Q1.7188 -5 1.75 -5.2344 Q1.7812 -5.4688 1.7812 -5.6406 Q1.7812 -5.8281 1.7266 -5.9375 Q1.6719 -6.0469 1.5312 -6.1016 Q1.3906 -6.1562 1.0625 -6.1719 L1.1406 -6.5312 L2.7969 -6.5938 L3.2031 -6.5938 L2.1406 -1.7031 Z" stroke="none"/></g><g text-rendering="optimizeLegibility" transform="translate(175.7344,83.5273)" color-rendering="optimizeQuality" color-interpolation="linearRGB" image-rendering="optimizeQuality"><path d="M2.5781 -1.9844 Q2.4844 -1.5938 2.4531 -1.3516 Q2.4219 -1.1094 2.4219 -0.9219 Q2.4219 -0.6094 2.5781 -0.4844 Q2.7344 -0.3594 3.0938 -0.3281 L3.0156 0 L0.2812 0 L0.3594 -0.3281 Q0.625 -0.375 0.75 -0.4688 Q0.875 -0.5625 0.9688 -0.7266 Q1.0625 -0.8906 1.1328 -1.125 Q1.2031 -1.3594 1.3594 -2.0312 L2.5156 -7.2969 Q2.5938 -7.6094 2.6328 -7.9062 Q2.6719 -8.2031 2.6719 -8.4062 Q2.6719 -8.7188 2.5078 -8.8438 Q2.3438 -8.9688 2 -9 L2.0781 -9.3281 L4.8125 -9.3281 L4.7344 -9 Q4.4844 -8.9375 4.3672 -8.875 Q4.25 -8.8125 4.1562 -8.6719 Q4.0625 -8.5312 3.9766 -8.2422 Q3.8906 -7.9531 3.7344 -7.2969 L2.5781 -1.9844 Z" stroke="none"/></g><g text-rendering="optimizeLegibility" transform="translate(180.5469,83.5273)" color-rendering="optimizeQuality" color-interpolation="linearRGB" image-rendering="optimizeQuality"><path d="M2.5781 -1.9844 Q2.4844 -1.5938 2.4531 -1.3516 Q2.4219 -1.1094 2.4219 -0.9219 Q2.4219 -0.6094 2.5781 -0.4844 Q2.7344 -0.3594 3.0938 -0.3281 L3.0156 0 L0.2812 0 L0.3594 -0.3281 Q0.625 -0.375 0.75 -0.4688 Q0.875 -0.5625 0.9688 -0.7266 Q1.0625 -0.8906 1.1328 -1.125 Q1.2031 -1.3594 1.3594 -2.0312 L2.5156 -7.2969 Q2.5938 -7.6094 2.6328 -7.9062 Q2.6719 -8.2031 2.6719 -8.4062 Q2.6719 -8.7188 2.5078 -8.8438 Q2.3438 -8.9688 2 -9 L2.0781 -9.3281 L4.8125 -9.3281 L4.7344 -9 Q4.4844 -8.9375 4.3672 -8.875 Q4.25 -8.8125 4.1562 -8.6719 Q4.0625 -8.5312 3.9766 -8.2422 Q3.8906 -7.9531 3.7344 -7.2969 L2.5781 -1.9844 Z" stroke="none"/></g><g text-rendering="optimizeLegibility" transform="translate(186.9375,89.0938)" color-rendering="optimizeQuality" color-interpolation="linearRGB" image-rendering="optimizeQuality"><path d="M0.6719 -13.9688 Q2.1875 -13.9688 3.0703 -13.5781 Q3.9531 -13.1875 4.3281 -12.4062 Q4.7031 -11.625 4.7031 -10.3281 L4.7031 -7.5 Q4.7031 -6.625 4.9297 -6.1484 Q5.1562 -5.6719 5.5938 -5.4766 Q6.0312 -5.2812 6.8125 -5.2812 L6.8125 -4.4688 Q6.0312 -4.4688 5.5859 -4.2734 Q5.1406 -4.0781 4.9219 -3.5938 Q4.7031 -3.1094 4.7031 -2.25 L4.7031 0.5781 Q4.7031 1.8906 4.3281 2.6641 Q3.9531 3.4375 3.0703 3.8281 Q2.1875 4.2188 0.6719 4.2188 L0.4219 4.2188 L0.4219 3.4219 Q1.1875 3.4219 1.5781 3.3438 Q1.9688 3.2656 2.2031 3.1016 Q2.4375 2.9375 2.5938 2.6719 Q2.75 2.4062 2.8438 1.9375 Q2.9375 1.4688 2.9375 0.6875 L2.9375 -1.2031 Q2.9375 -2.1875 3.1016 -2.8438 Q3.2656 -3.5 3.7109 -3.9844 Q4.1562 -4.4688 4.9062 -4.7812 L4.9062 -4.9688 Q4.1719 -5.2656 3.7188 -5.7656 Q3.2656 -6.2656 3.1016 -6.9297 Q2.9375 -7.5938 2.9375 -8.5469 L2.9375 -10.4375 Q2.9375 -11.2188 2.8438 -11.6875 Q2.75 -12.1562 2.5938 -12.4141 Q2.4375 -12.6719 2.2031 -12.8438 Q1.9688 -13.0156 1.5781 -13.0938 Q1.1875 -13.1719 0.4219 -13.1719 L0.4219 -13.9688 L0.6719 -13.9688 Z" stroke="none"/></g><g text-rendering="optimizeLegibility" transform="translate(193.75,79.1797)" color-rendering="optimizeQuality" color-interpolation="linearRGB" image-rendering="optimizeQuality"><path d="M4.6094 -1.2656 Q4.0469 -0.5781 3.5 -0.2344 Q2.9531 0.1094 2.3438 0.1094 Q1.625 0.1094 1.2656 -0.2578 Q0.9062 -0.625 0.9062 -1.3281 Q0.9062 -1.7656 1.0312 -2.2969 L1.875 -5.8438 L0.8594 -5.8438 L0.9375 -6.1875 Q1.3438 -6.2344 1.5781 -6.3672 Q1.8125 -6.5 1.9766 -6.7031 Q2.1406 -6.9062 2.2734 -7.2422 Q2.4062 -7.5781 2.6094 -8.2188 L3.5625 -8.2188 L3.1719 -6.5312 L5.3438 -6.5312 L5.2031 -5.8438 L3.0156 -5.8438 L2.3594 -3.1875 Q2.0938 -2.0781 2.0938 -1.5312 Q2.0938 -1.125 2.2734 -0.9062 Q2.4531 -0.6875 2.7969 -0.6875 Q3.125 -0.6875 3.4688 -0.9297 Q3.8125 -1.1719 4.2188 -1.6719 L4.6094 -1.2656 Z" stroke="none"/></g><g text-rendering="optimizeLegibility" transform="translate(200.1719,89.0938)" color-rendering="optimizeQuality" color-interpolation="linearRGB" image-rendering="optimizeQuality"><path d="M7.0781 4.2188 Q5.5625 4.2188 4.6797 3.8281 Q3.7969 3.4375 3.4141 2.6641 Q3.0312 1.8906 3.0312 0.5781 L3.0312 -2.25 Q3.0312 -3.1094 2.8125 -3.5938 Q2.5938 -4.0781 2.1562 -4.2734 Q1.7188 -4.4688 0.9219 -4.4688 L0.9219 -5.2812 Q1.7031 -5.2812 2.1484 -5.4766 Q2.5938 -5.6719 2.8125 -6.1484 Q3.0312 -6.625 3.0312 -7.5 L3.0312 -10.3281 Q3.0312 -11.625 3.4141 -12.4062 Q3.7969 -13.1875 4.6797 -13.5781 Q5.5625 -13.9688 7.0781 -13.9688 L7.3281 -13.9688 L7.3281 -13.1719 Q6.5469 -13.1719 6.1641 -13.0938 Q5.7812 -13.0156 5.5391 -12.8438 Q5.2969 -12.6719 5.1406 -12.4141 Q4.9844 -12.1562 4.8984 -11.6875 Q4.8125 -11.2188 4.8125 -10.4375 L4.8125 -8.5469 Q4.8125 -7.5625 4.6406 -6.8984 Q4.4688 -6.2344 4.0312 -5.7578 Q3.5938 -5.2812 2.8281 -4.9688 L2.8281 -4.7812 Q3.5781 -4.4844 4.0312 -3.9844 Q4.4844 -3.4844 4.6484 -2.8203 Q4.8125 -2.1562 4.8125 -1.2031 L4.8125 0.6875 Q4.8125 1.4688 4.8984 1.9375 Q4.9844 2.4062 5.1406 2.6719 Q5.2969 2.9375 5.5391 3.1016 Q5.7812 3.2656 6.1641 3.3438 Q6.5469 3.4219 7.3281 3.4219 L7.3281 4.2188 L7.0781 4.2188 Z" stroke="none"/></g><g text-rendering="optimizeLegibility" transform="translate(210,89.0938)" color-rendering="optimizeQuality" color-interpolation="linearRGB" image-rendering="optimizeQuality"><path d="M9.75 0 L-0.5 0 L-0.375 -0.6094 L7.3594 -13.4844 L8.7344 -13.4844 L9.8906 -0.6094 L9.75 0 ZM7.6406 -7.0625 Q7.4219 -10.0625 7.4219 -11.3125 L7.3125 -11.3125 L1.5625 -1.4688 L8.0312 -1.4688 L7.6406 -7.0625 Z" stroke="none"/></g><g text-rendering="optimizeLegibility" transform="translate(219.8906,89.0938)" color-rendering="optimizeQuality" color-interpolation="linearRGB" image-rendering="optimizeQuality"><path d="M1.5 -9.3438 L4.5781 -9.3438 L3.3281 -4.3594 Q3.1875 -3.8125 3.0859 -3.2734 Q2.9844 -2.7344 2.9844 -2.2812 Q2.9844 -1.5938 3.2266 -1.2891 Q3.4688 -0.9844 3.9688 -0.9844 Q4.3906 -0.9844 4.8828 -1.3125 Q5.375 -1.6406 5.9219 -2.3281 Q6.4688 -3.0156 6.7812 -3.6328 Q7.0938 -4.25 7.2812 -5.0938 L8.1719 -9.3438 L9.8594 -9.3438 L8.375 -2.6719 Q8.3125 -2.4062 8.2344 -1.9766 Q8.1562 -1.5469 8.1562 -1.2656 Q8.1562 -0.8594 8.3828 -0.6875 Q8.6094 -0.5156 9.2344 -0.4844 L9.125 0 L6.3438 0 L6.9688 -2.4531 L6.8438 -2.4844 Q5.8906 -1.1406 5.0078 -0.4922 Q4.125 0.1562 3.2188 0.1562 Q2.2812 0.1562 1.7891 -0.3672 Q1.2969 -0.8906 1.2969 -1.9219 Q1.2969 -2.2031 1.3516 -2.6016 Q1.4062 -3 1.5 -3.4219 L2.3281 -6.8906 Q2.4219 -7.3281 2.4531 -7.5781 Q2.4844 -7.8281 2.4844 -8.0156 Q2.4844 -8.4531 2.25 -8.625 Q2.0156 -8.7969 1.4219 -8.8438 L1.5 -9.3438 Z" stroke="none"/></g><g text-rendering="optimizeLegibility" transform="translate(229.75,94.7461)" color-rendering="optimizeQuality" color-interpolation="linearRGB" image-rendering="optimizeQuality"><path d="M3.8281 -9.2188 L3.5156 -7.8906 L2.2969 -7.8906 L2.625 -9.2188 L3.8281 -9.2188 ZM2.1406 -1.7031 Q2.0625 -1.3594 2.0469 -1.2031 Q2.0312 -1.0469 2.0312 -0.9375 Q2.0312 -0.7188 2.0938 -0.6094 Q2.1562 -0.5 2.3047 -0.4375 Q2.4531 -0.375 2.7812 -0.3281 L2.7188 0 L0.5938 0 L1.625 -4.6094 Q1.7188 -5 1.75 -5.2344 Q1.7812 -5.4688 1.7812 -5.6406 Q1.7812 -5.8281 1.7266 -5.9375 Q1.6719 -6.0469 1.5312 -6.1016 Q1.3906 -6.1562 1.0625 -6.1719 L1.1406 -6.5312 L2.7969 -6.5938 L3.2031 -6.5938 L2.1406 -1.7031 Z" stroke="none"/></g><g text-rendering="optimizeLegibility" transform="translate(229.75,83.5273)" color-rendering="optimizeQuality" color-interpolation="linearRGB" image-rendering="optimizeQuality"><path d="M2.5781 -1.9844 Q2.4844 -1.5938 2.4531 -1.3516 Q2.4219 -1.1094 2.4219 -0.9219 Q2.4219 -0.6094 2.5781 -0.4844 Q2.7344 -0.3594 3.0938 -0.3281 L3.0156 0 L0.2812 0 L0.3594 -0.3281 Q0.625 -0.375 0.75 -0.4688 Q0.875 -0.5625 0.9688 -0.7266 Q1.0625 -0.8906 1.1328 -1.125 Q1.2031 -1.3594 1.3594 -2.0312 L2.5156 -7.2969 Q2.5938 -7.6094 2.6328 -7.9062 Q2.6719 -8.2031 2.6719 -8.4062 Q2.6719 -8.7188 2.5078 -8.8438 Q2.3438 -8.9688 2 -9 L2.0781 -9.3281 L4.8125 -9.3281 L4.7344 -9 Q4.4844 -8.9375 4.3672 -8.875 Q4.25 -8.8125 4.1562 -8.6719 Q4.0625 -8.5312 3.9766 -8.2422 Q3.8906 -7.9531 3.7344 -7.2969 L2.5781 -1.9844 Z" stroke="none"/></g><g text-rendering="optimizeLegibility" transform="translate(234.5625,83.5273)" color-rendering="optimizeQuality" color-interpolation="linearRGB" image-rendering="optimizeQuality"><path d="M2.5781 -1.9844 Q2.4844 -1.5938 2.4531 -1.3516 Q2.4219 -1.1094 2.4219 -0.9219 Q2.4219 -0.6094 2.5781 -0.4844 Q2.7344 -0.3594 3.0938 -0.3281 L3.0156 0 L0.2812 0 L0.3594 -0.3281 Q0.625 -0.375 0.75 -0.4688 Q0.875 -0.5625 0.9688 -0.7266 Q1.0625 -0.8906 1.1328 -1.125 Q1.2031 -1.3594 1.3594 -2.0312 L2.5156 -7.2969 Q2.5938 -7.6094 2.6328 -7.9062 Q2.6719 -8.2031 2.6719 -8.4062 Q2.6719 -8.7188 2.5078 -8.8438 Q2.3438 -8.9688 2 -9 L2.0781 -9.3281 L4.8125 -9.3281 L4.7344 -9 Q4.4844 -8.9375 4.3672 -8.875 Q4.25 -8.8125 4.1562 -8.6719 Q4.0625 -8.5312 3.9766 -8.2422 Q3.8906 -7.9531 3.7344 -7.2969 L2.5781 -1.9844 Z" stroke="none"/></g><g text-rendering="optimizeLegibility" transform="translate(240.9531,89.0938)" color-rendering="optimizeQuality" color-interpolation="linearRGB" image-rendering="optimizeQuality"><path d="M0.6719 -13.9688 Q2.1875 -13.9688 3.0703 -13.5781 Q3.9531 -13.1875 4.3281 -12.4062 Q4.7031 -11.625 4.7031 -10.3281 L4.7031 -7.5 Q4.7031 -6.625 4.9297 -6.1484 Q5.1562 -5.6719 5.5938 -5.4766 Q6.0312 -5.2812 6.8125 -5.2812 L6.8125 -4.4688 Q6.0312 -4.4688 5.5859 -4.2734 Q5.1406 -4.0781 4.9219 -3.5938 Q4.7031 -3.1094 4.7031 -2.25 L4.7031 0.5781 Q4.7031 1.8906 4.3281 2.6641 Q3.9531 3.4375 3.0703 3.8281 Q2.1875 4.2188 0.6719 4.2188 L0.4219 4.2188 L0.4219 3.4219 Q1.1875 3.4219 1.5781 3.3438 Q1.9688 3.2656 2.2031 3.1016 Q2.4375 2.9375 2.5938 2.6719 Q2.75 2.4062 2.8438 1.9375 Q2.9375 1.4688 2.9375 0.6875 L2.9375 -1.2031 Q2.9375 -2.1875 3.1016 -2.8438 Q3.2656 -3.5 3.7109 -3.9844 Q4.1562 -4.4688 4.9062 -4.7812 L4.9062 -4.9688 Q4.1719 -5.2656 3.7188 -5.7656 Q3.2656 -6.2656 3.1016 -6.9297 Q2.9375 -7.5938 2.9375 -8.5469 L2.9375 -10.4375 Q2.9375 -11.2188 2.8438 -11.6875 Q2.75 -12.1562 2.5938 -12.4141 Q2.4375 -12.6719 2.2031 -12.8438 Q1.9688 -13.0156 1.5781 -13.0938 Q1.1875 -13.1719 0.4219 -13.1719 L0.4219 -13.9688 L0.6719 -13.9688 Z" stroke="none"/></g></g></svg>