<?xml version="1.0" encoding="UTF-8" standalone="no"?><svg xmlns="http://www.w3.org/2000/svg" xmlns:xlink="http://www.w3.org/1999/xlink" stroke-dasharray="none" shape-rendering="auto" font-family="'Dialog'" width="603.812600" text-rendering="auto" fill-opacity="1" contentScriptType="text/ecmascript" color-interpolation="auto" color-rendering="auto" preserveAspectRatio="xMidYMid meet" font-size="12" fill="black" stroke="black" image-rendering="auto" stroke-miterlimit="10" zoomAndPan="magnify" version="1.0" stroke-linecap="square" stroke-linejoin="miter" contentStyleType="text/css" font-style="normal" height="77" stroke-width="1" stroke-dashoffset="0" font-weight="normal" stroke-opacity="1" y="-31.000000"><!--Converted from MathML using JEuclid--><defs id="genericDefs"/><g><g text-rendering="optimizeLegibility" transform="translate(1.0781,29.8034)" color-rendering="optimizeQuality" color-interpolation="linearRGB" image-rendering="optimizeQuality"><path d="M7.0781 4.2188 Q5.5625 4.2188 4.6797 3.8281 Q3.7969 3.4375 3.4141 2.6641 Q3.0312 1.8906 3.0312 0.5781 L3.0312 -2.25 Q3.0312 -3.1094 2.8125 -3.5938 Q2.5938 -4.0781 2.1562 -4.2734 Q1.7188 -4.4688 0.9219 -4.4688 L0.9219 -5.2812 Q1.7031 -5.2812 2.1484 -5.4766 Q2.5938 -5.6719 2.8125 -6.1484 Q3.0312 -6.625 3.0312 -7.5 L3.0312 -10.3281 Q3.0312 -11.625 3.4141 -12.4062 Q3.7969 -13.1875 4.6797 -13.5781 Q5.5625 -13.9688 7.0781 -13.9688 L7.3281 -13.9688 L7.3281 -13.1719 Q6.5469 -13.1719 6.1641 -13.0938 Q5.7812 -13.0156 5.5391 -12.8438 Q5.2969 -12.6719 5.1406 -12.4141 Q4.9844 -12.1562 4.8984 -11.6875 Q4.8125 -11.2188 4.8125 -10.4375 L4.8125 -8.5469 Q4.8125 -7.5625 4.6406 -6.8984 Q4.4688 -6.2344 4.0312 -5.7578 Q3.5938 -5.2812 2.8281 -4.9688 L2.8281 -4.7812 Q3.5781 -4.4844 4.0312 -3.9844 Q4.4844 -3.4844 4.6484 -2.8203 Q4.8125 -2.1562 4.8125 -1.2031 L4.8125 0.6875 Q4.8125 1.4688 4.8984 1.9375 Q4.9844 2.4062 5.1406 2.6719 Q5.2969 2.9375 5.5391 3.1016 Q5.7812 3.2656 6.1641 3.3438 Q6.5469 3.4219 7.3281 3.4219 L7.3281 4.2188 L7.0781 4.2188 Z" stroke="none"/></g><g text-rendering="optimizeLegibility" transform="translate(10.4062,29.8034)" color-rendering="optimizeQuality" color-interpolation="linearRGB" image-rendering="optimizeQuality"><path d="M3.6719 -2.8438 Q3.6094 -2.5469 3.5703 -2.3438 Q3.5312 -2.1406 3.5 -1.8438 Q3.4688 -1.5469 3.4688 -1.3125 Q3.4688 -1.0156 3.5625 -0.8438 Q3.6562 -0.6719 3.8516 -0.5938 Q4.0469 -0.5156 4.5312 -0.4844 L4.4219 0 L0.4062 0 L0.5156 -0.4844 Q0.8906 -0.5312 1.0781 -0.6641 Q1.2656 -0.7969 1.3906 -1.0312 Q1.5156 -1.2656 1.625 -1.6016 Q1.7344 -1.9375 1.9375 -2.9062 L3.6094 -10.4375 Q3.8125 -11.4062 3.8125 -11.9688 Q3.8125 -12.4531 3.5938 -12.6406 Q3.375 -12.8281 2.8594 -12.8594 L2.9688 -13.3281 L11.7812 -13.3281 L11.1094 -10.3281 L10.1719 -10.3281 Q10.125 -11.0312 10.0547 -11.4219 Q9.9844 -11.8125 9.8828 -12.0078 Q9.7812 -12.2031 9.6562 -12.2969 Q9.5312 -12.3906 9.3438 -12.4297 Q9.1562 -12.4688 8.7969 -12.4688 L5.7969 -12.4688 L4.625 -7.1562 L6.4531 -7.1562 Q6.8906 -7.1562 7.1719 -7.2734 Q7.4531 -7.3906 7.6953 -7.7031 Q7.9375 -8.0156 8.2969 -8.75 L9.1875 -8.75 L8.25 -4.625 L7.3906 -4.625 Q7.3906 -5.2344 7.3594 -5.5781 Q7.3281 -5.9219 7.2422 -6.0547 Q7.1562 -6.1875 6.9844 -6.2422 Q6.8125 -6.2969 6.3594 -6.2969 L4.4375 -6.2969 L3.6719 -2.8438 Z" stroke="none"/></g><g text-rendering="optimizeLegibility" transform="translate(22.1875,33.0769)" color-rendering="optimizeQuality" color-interpolation="linearRGB" image-rendering="optimizeQuality"><path d="M5.5625 -1.3594 Q5.0625 -0.8125 4.5938 -0.4922 Q4.125 -0.1719 3.6641 -0.0312 Q3.2031 0.1094 2.6406 0.1094 Q2.0938 0.1094 1.7031 -0.0625 Q1.3125 -0.2344 1.0625 -0.5391 Q0.8125 -0.8438 0.6875 -1.2656 Q0.5625 -1.6875 0.5625 -2.1875 Q0.5625 -2.9062 0.8281 -3.75 Q1.0938 -4.5938 1.625 -5.2578 Q2.1562 -5.9219 2.8984 -6.2891 Q3.6406 -6.6562 4.4844 -6.6562 Q5.3125 -6.6562 5.7266 -6.3203 Q6.1406 -5.9844 6.1406 -5.2656 Q6.1406 -4.1094 5.0469 -3.5312 Q3.9531 -2.9531 1.8125 -2.9531 Q1.7344 -2.5312 1.7344 -2.0625 Q1.7344 -1.3438 2.0156 -1.0156 Q2.2969 -0.6875 2.9219 -0.6875 Q3.5625 -0.6875 4.0703 -0.9609 Q4.5781 -1.2344 5.1406 -1.8125 L5.5625 -1.3594 ZM1.9219 -3.5312 Q2.5625 -3.5312 3.0312 -3.6016 Q3.5 -3.6719 3.8438 -3.7812 Q4.1875 -3.8906 4.4141 -4.0469 Q4.6406 -4.2031 4.7734 -4.3906 Q4.9062 -4.5781 4.9609 -4.7891 Q5.0156 -5 5.0156 -5.2188 Q5.0156 -5.6406 4.8203 -5.875 Q4.625 -6.1094 4.2344 -6.1094 Q3.7656 -6.1094 3.3047 -5.7656 Q2.8438 -5.4219 2.4922 -4.8359 Q2.1406 -4.25 1.9219 -3.5312 Z" stroke="none"/></g><g text-rendering="optimizeLegibility" transform="translate(22.25,18.3269)" color-rendering="optimizeQuality" color-interpolation="linearRGB" image-rendering="optimizeQuality"><path d="M1.4688 1.2031 Q1.3906 1.5312 1.375 1.7109 Q1.3594 1.8906 1.3594 2.0156 Q1.3594 2.2188 1.4297 2.3359 Q1.5 2.4531 1.6406 2.5156 Q1.7812 2.5781 2.1094 2.6094 L2.0625 2.9375 L-0.0625 2.9375 L1.6719 -4.6562 Q1.8125 -5.2344 1.8125 -5.6406 Q1.8125 -5.8438 1.75 -5.9453 Q1.6875 -6.0469 1.5469 -6.1016 Q1.4062 -6.1562 1.0781 -6.1719 L1.1562 -6.5312 L2.7031 -6.5938 L3.0938 -6.5938 L2.6406 -4.8125 L2.7188 -4.7969 Q3.9844 -6.6406 5.2344 -6.6406 Q5.9844 -6.6406 6.3984 -6.0781 Q6.8125 -5.5156 6.8125 -4.4844 Q6.8125 -3.7344 6.6094 -2.9922 Q6.4062 -2.25 6.0469 -1.6484 Q5.6875 -1.0469 5.25 -0.6641 Q4.8125 -0.2812 4.3203 -0.0859 Q3.8281 0.1094 3.2812 0.1094 Q2.375 0.1094 1.7812 -0.2812 L1.4688 1.2031 ZM2.2812 -2.375 Q2.2188 -2.0156 2.2031 -1.8281 Q2.1875 -1.6406 2.1875 -1.4531 Q2.1875 -0.9219 2.4141 -0.6797 Q2.6406 -0.4375 3.2031 -0.4375 Q3.5469 -0.4375 3.8438 -0.5703 Q4.1406 -0.7031 4.3984 -0.9609 Q4.6562 -1.2188 4.875 -1.5938 Q5.0938 -1.9688 5.2578 -2.4531 Q5.4219 -2.9375 5.5078 -3.4531 Q5.5938 -3.9688 5.5938 -4.4219 Q5.5938 -5.1406 5.3906 -5.4922 Q5.1875 -5.8438 4.75 -5.8438 Q4.4062 -5.8438 4.0625 -5.6094 Q3.7188 -5.375 3.3203 -4.8516 Q2.9219 -4.3281 2.6953 -3.8281 Q2.4688 -3.3281 2.3438 -2.6719 L2.2812 -2.375 Z" stroke="none"/></g><g text-rendering="optimizeLegibility" transform="translate(29.0625,18.3269)" color-rendering="optimizeQuality" color-interpolation="linearRGB" image-rendering="optimizeQuality"><path d="M2.7188 -6.5938 L3.125 -6.5938 L2.6562 -4.9219 L2.7344 -4.8906 Q3.3906 -5.7812 4.0078 -6.2109 Q4.625 -6.6406 5.2812 -6.6406 Q5.7812 -6.6406 6.1094 -6.5625 L5.7812 -5.0312 L5.0781 -5.0312 Q5.0312 -5.3906 4.9141 -5.5781 Q4.7969 -5.7656 4.5469 -5.7656 Q4.2812 -5.7656 3.9297 -5.4922 Q3.5781 -5.2188 3.2188 -4.7422 Q2.8594 -4.2656 2.6797 -3.8594 Q2.5 -3.4531 2.4062 -2.9531 L1.7812 0 L0.5938 0 L1.6406 -4.6719 Q1.7812 -5.3125 1.7812 -5.6406 Q1.7812 -5.8438 1.7188 -5.9453 Q1.6562 -6.0469 1.5156 -6.1016 Q1.375 -6.1562 1.0469 -6.1719 L1.125 -6.5312 L2.7188 -6.5938 Z" stroke="none"/></g><g text-rendering="optimizeLegibility" transform="translate(36.75,29.8034)" color-rendering="optimizeQuality" color-interpolation="linearRGB" image-rendering="optimizeQuality"><path d="M0.6719 -13.9688 Q2.1875 -13.9688 3.0703 -13.5781 Q3.9531 -13.1875 4.3281 -12.4062 Q4.7031 -11.625 4.7031 -10.3281 L4.7031 -7.5 Q4.7031 -6.625 4.9297 -6.1484 Q5.1562 -5.6719 5.5938 -5.4766 Q6.0312 -5.2812 6.8125 -5.2812 L6.8125 -4.4688 Q6.0312 -4.4688 5.5859 -4.2734 Q5.1406 -4.0781 4.9219 -3.5938 Q4.7031 -3.1094 4.7031 -2.25 L4.7031 0.5781 Q4.7031 1.8906 4.3281 2.6641 Q3.9531 3.4375 3.0703 3.8281 Q2.1875 4.2188 0.6719 4.2188 L0.4219 4.2188 L0.4219 3.4219 Q1.1875 3.4219 1.5781 3.3438 Q1.9688 3.2656 2.2031 3.1016 Q2.4375 2.9375 2.5938 2.6719 Q2.75 2.4062 2.8438 1.9375 Q2.9375 1.4688 2.9375 0.6875 L2.9375 -1.2031 Q2.9375 -2.1875 3.1016 -2.8438 Q3.2656 -3.5 3.7109 -3.9844 Q4.1562 -4.4688 4.9062 -4.7812 L4.9062 -4.9688 Q4.1719 -5.2656 3.7188 -5.7656 Q3.2656 -6.2656 3.1016 -6.9297 Q2.9375 -7.5938 2.9375 -8.5469 L2.9375 -10.4375 Q2.9375 -11.2188 2.8438 -11.6875 Q2.75 -12.1562 2.5938 -12.4141 Q2.4375 -12.6719 2.2031 -12.8438 Q1.9688 -13.0156 1.5781 -13.0938 Q1.1875 -13.1719 0.4219 -13.1719 L0.4219 -13.9688 L0.6719 -13.9688 Z" stroke="none"/></g><g text-rendering="optimizeLegibility" transform="translate(46.3438,29.8034)" color-rendering="optimizeQuality" color-interpolation="linearRGB" image-rendering="optimizeQuality"><path d="M1.2188 -7.0625 L1.2188 -8.4219 L9.8594 -8.4219 L9.8594 -7.0625 L1.2188 -7.0625 ZM1.2188 -3.0156 L1.2188 -4.3594 L9.8594 -4.3594 L9.8594 -3.0156 L1.2188 -3.0156 Z" stroke="none"/></g><g text-rendering="optimizeLegibility" transform="translate(59.0781,29.8034)" color-rendering="optimizeQuality" color-interpolation="linearRGB" image-rendering="optimizeQuality"><path d="M8.7812 -5.8281 Q8.7812 -3.7656 8.6797 -2.0312 Q8.5781 -0.2969 8.3047 1.1641 Q8.0312 2.625 7.5938 3.6719 Q7.1562 4.7188 6.5625 5.3984 Q5.9688 6.0781 5.2031 6.4297 Q4.4375 6.7812 3.4375 6.7812 Q2.2188 6.7812 1.125 6.3125 L1.125 3.0625 L3 3.0625 Q3.2969 3.7656 3.6094 4.0938 Q3.9219 4.4219 4.4844 4.4219 Q5.2188 4.4219 5.5859 3.7891 Q5.9531 3.1562 5.9531 1.9062 Q5.9531 0.4688 5.8672 -1.1562 Q5.7812 -2.7812 5.6094 -5.4844 Q5.25 -10.5938 5.25 -14.4375 L5.25 -16.3281 Q5.25 -18.3906 5.3594 -20.125 Q5.4688 -21.8594 5.7422 -23.3203 Q6.0156 -24.7812 6.4453 -25.8281 Q6.875 -26.875 7.4766 -27.5547 Q8.0781 -28.2344 8.8438 -28.5859 Q9.6094 -28.9375 10.6094 -28.9375 Q11.8125 -28.9375 12.9062 -28.4688 L12.9062 -25.2188 L11.0312 -25.2188 Q10.7188 -25.9688 10.3984 -26.2734 Q10.0781 -26.5781 9.5781 -26.5781 Q8.7812 -26.5781 8.4375 -25.9453 Q8.0938 -25.3125 8.0938 -24.0625 Q8.0938 -22.625 8.1719 -21 Q8.25 -19.375 8.4375 -16.6719 Q8.7812 -11.5625 8.7812 -7.7188 L8.7812 -5.8281 Z" stroke="none"/></g><g text-rendering="optimizeLegibility" transform="translate(62.6406,48.5222)" color-rendering="optimizeQuality" color-interpolation="linearRGB" image-rendering="optimizeQuality"><path d="M4.6406 0 L4.7031 -0.3281 Q5.0156 -0.3594 5.1875 -0.5078 Q5.3594 -0.6562 5.4375 -0.9297 Q5.5156 -1.2031 5.5156 -1.6406 Q5.5156 -1.9062 5.4844 -2.2188 L5.4375 -3.0938 L2.4375 -3.0938 L2.0625 -2.4219 Q1.7969 -1.9531 1.6719 -1.6172 Q1.5469 -1.2812 1.5469 -1.0156 Q1.5469 -0.4375 2.2344 -0.3281 L2.1562 0 L-0.6406 0 L-0.5625 -0.3281 Q-0.3438 -0.3594 -0.1562 -0.5 Q0.0312 -0.6406 0.2422 -0.9219 Q0.4531 -1.2031 0.8281 -1.8594 L5.2188 -9.4375 L6.25 -9.4375 L6.7344 -1.8125 Q6.7812 -1.2812 6.8672 -0.9766 Q6.9531 -0.6719 7.1094 -0.5234 Q7.2656 -0.375 7.5469 -0.3281 L7.4844 0 L4.6406 0 ZM2.7344 -3.6875 L5.4219 -3.6875 L5.2969 -5.8906 Q5.2812 -6.3438 5.2656 -7.0234 Q5.25 -7.7031 5.25 -8 L5.1719 -8 L2.7344 -3.6875 Z" stroke="none"/></g><g text-rendering="optimizeLegibility" transform="translate(74.2188,29.8034)" color-rendering="optimizeQuality" color-interpolation="linearRGB" image-rendering="optimizeQuality"><path d="M7.2188 4.25 Q5.5625 4.25 4.5078 3.75 Q3.4531 3.25 2.8672 2.2344 Q2.2812 1.2188 2.0234 -0.4141 Q1.7656 -2.0469 1.7656 -4.8438 Q1.7656 -7.625 2.0234 -9.2656 Q2.2812 -10.9062 2.8672 -11.9453 Q3.4531 -12.9844 4.5078 -13.5 Q5.5625 -14.0156 7.2188 -14.0156 L7.2188 -13.2188 Q6.5312 -13.2188 6 -13.0938 Q5.4062 -12.9531 4.9844 -12.5625 Q4.5156 -12.1406 4.2344 -11.375 Q3.8906 -10.4688 3.7188 -8.9844 Q3.5469 -7.4062 3.5469 -4.9219 Q3.5469 -2.7188 3.6953 -1.1797 Q3.8438 0.3594 4.1875 1.3281 Q4.4531 2.1562 4.8594 2.6094 Q5.2188 3.0156 5.7188 3.2188 Q6.2969 3.4531 7.2188 3.4531 L7.2188 4.25 Z" stroke="none"/></g><g text-rendering="optimizeLegibility" transform="translate(84.5156,29.8034)" color-rendering="optimizeQuality" color-interpolation="linearRGB" image-rendering="optimizeQuality"><path d="M7.0781 4.2188 Q5.5625 4.2188 4.6797 3.8281 Q3.7969 3.4375 3.4141 2.6641 Q3.0312 1.8906 3.0312 0.5781 L3.0312 -2.25 Q3.0312 -3.1094 2.8125 -3.5938 Q2.5938 -4.0781 2.1562 -4.2734 Q1.7188 -4.4688 0.9219 -4.4688 L0.9219 -5.2812 Q1.7031 -5.2812 2.1484 -5.4766 Q2.5938 -5.6719 2.8125 -6.1484 Q3.0312 -6.625 3.0312 -7.5 L3.0312 -10.3281 Q3.0312 -11.625 3.4141 -12.4062 Q3.7969 -13.1875 4.6797 -13.5781 Q5.5625 -13.9688 7.0781 -13.9688 L7.3281 -13.9688 L7.3281 -13.1719 Q6.5469 -13.1719 6.1641 -13.0938 Q5.7812 -13.0156 5.5391 -12.8438 Q5.2969 -12.6719 5.1406 -12.4141 Q4.9844 -12.1562 4.8984 -11.6875 Q4.8125 -11.2188 4.8125 -10.4375 L4.8125 -8.5469 Q4.8125 -7.5625 4.6406 -6.8984 Q4.4688 -6.2344 4.0312 -5.7578 Q3.5938 -5.2812 2.8281 -4.9688 L2.8281 -4.7812 Q3.5781 -4.4844 4.0312 -3.9844 Q4.4844 -3.4844 4.6484 -2.8203 Q4.8125 -2.1562 4.8125 -1.2031 L4.8125 0.6875 Q4.8125 1.4688 4.8984 1.9375 Q4.9844 2.4062 5.1406 2.6719 Q5.2969 2.9375 5.5391 3.1016 Q5.7812 3.2656 6.1641 3.3438 Q6.5469 3.4219 7.3281 3.4219 L7.3281 4.2188 L7.0781 4.2188 Z" stroke="none"/></g><g text-rendering="optimizeLegibility" transform="translate(93.8438,29.8034)" color-rendering="optimizeQuality" color-interpolation="linearRGB" image-rendering="optimizeQuality"><path d="M13.9531 -13.3281 L13.8438 -12.8594 Q13.4688 -12.7812 13.3047 -12.6797 Q13.1406 -12.5781 13.0078 -12.3828 Q12.875 -12.1875 12.75 -11.7734 Q12.625 -11.3594 12.4062 -10.4219 L10.125 0 L8.7969 0 L5.9375 -8.375 Q5.4219 -9.8906 5.0312 -11.375 L4.9062 -11.375 Q4.8438 -10.875 4.5781 -9.4766 Q4.3125 -8.0781 4.0312 -6.7344 L3.1719 -2.8438 Q3.0781 -2.4375 3.0156 -2.0547 Q2.9531 -1.6719 2.9531 -1.3125 Q2.9531 -0.875 3.1797 -0.6953 Q3.4062 -0.5156 3.9219 -0.4844 L3.8125 0 L0.3906 0 L0.5 -0.4844 Q0.875 -0.5312 1.0547 -0.6641 Q1.2344 -0.7969 1.3672 -1.0312 Q1.5 -1.2656 1.6016 -1.6016 Q1.7031 -1.9375 1.9219 -2.9062 L3.5781 -10.4375 Q3.6875 -10.8438 3.7422 -11.2266 Q3.7969 -11.6094 3.7969 -12 Q3.7969 -12.4688 3.5625 -12.6484 Q3.3281 -12.8281 2.8438 -12.8594 L2.9531 -13.3281 L6.0625 -13.3281 L8.6406 -5.7188 Q9.2031 -4.0781 9.5 -2.9531 L9.6094 -2.9531 Q9.6875 -3.5469 9.9688 -4.9297 Q10.25 -6.3125 10.4844 -7.3594 L11.1562 -10.4375 Q11.2344 -10.75 11.3047 -11.1875 Q11.375 -11.625 11.375 -12 Q11.375 -12.4688 11.1406 -12.6484 Q10.9062 -12.8281 10.4219 -12.8594 L10.5312 -13.3281 L13.9531 -13.3281 Z" stroke="none"/></g><g text-rendering="optimizeLegibility" transform="translate(108.0781,33.0691)" color-rendering="optimizeQuality" color-interpolation="linearRGB" image-rendering="optimizeQuality"><path d="M6.4688 -6.2031 Q5.1406 -4.7812 3.6875 -3.4062 L4.3281 -1.9062 Q4.5781 -1.3125 4.7266 -1.0234 Q4.875 -0.7344 5 -0.6094 Q5.125 -0.4844 5.25 -0.4297 Q5.375 -0.375 5.6406 -0.3281 L5.5625 0 L3.8594 0 L2.9062 -2.75 Q2.75 -2.6094 2.4766 -2.3516 Q2.2031 -2.0938 1.9531 -1.8047 Q1.7031 -1.5156 1.6016 -1.3359 Q1.5 -1.1562 1.4688 -1.0234 Q1.4375 -0.8906 1.4375 -0.7656 Q1.4375 -0.5781 1.5391 -0.4766 Q1.6406 -0.375 1.875 -0.3281 L1.7969 0 L-0.1562 0 L-0.2812 -0.3281 Q1.2188 -1.9375 2.6719 -3.2969 L2.0156 -4.8125 Q1.8125 -5.2812 1.6953 -5.5234 Q1.5781 -5.7656 1.4609 -5.8984 Q1.3438 -6.0312 1.1953 -6.1094 Q1.0469 -6.1875 0.7812 -6.2031 L0.8594 -6.5312 L2.5625 -6.5312 L3.4688 -3.9531 Q3.7969 -4.2656 4.1016 -4.5938 Q4.4062 -4.9219 4.5312 -5.1172 Q4.6562 -5.3125 4.7031 -5.4609 Q4.75 -5.6094 4.75 -5.7656 Q4.75 -6.1406 4.3125 -6.2031 L4.375 -6.5312 L6.3281 -6.5312 L6.4688 -6.2031 Z" stroke="none"/></g><g text-rendering="optimizeLegibility" transform="translate(107.7969,21.1394)" color-rendering="optimizeQuality" color-interpolation="linearRGB" image-rendering="optimizeQuality"><path d="M5.0938 -9.3281 Q5.9062 -9.3281 6.4297 -9.2031 Q6.9531 -9.0781 7.2891 -8.8125 Q7.625 -8.5469 7.7969 -8.1484 Q7.9688 -7.75 7.9688 -7.2188 Q7.9688 -6.1875 7.4844 -5.4375 Q7 -4.6875 6.1641 -4.3281 Q5.3281 -3.9688 4.1719 -3.9688 Q3.4688 -3.9688 3.0156 -4 L2.5781 -1.9844 Q2.5156 -1.7031 2.4922 -1.5547 Q2.4688 -1.4062 2.4453 -1.2344 Q2.4219 -1.0625 2.4219 -0.9219 Q2.4219 -0.7188 2.4922 -0.5938 Q2.5625 -0.4688 2.7031 -0.4141 Q2.8438 -0.3594 3.1719 -0.3281 L3.0938 0 L0.2812 0 L0.3594 -0.3281 Q0.625 -0.375 0.75 -0.4688 Q0.875 -0.5625 0.9688 -0.7266 Q1.0625 -0.8906 1.1328 -1.125 Q1.2031 -1.3594 1.3594 -2.0312 L2.5156 -7.2969 Q2.6719 -7.9844 2.6719 -8.375 Q2.6719 -8.7188 2.5156 -8.8438 Q2.3594 -8.9688 2 -9 L2.0781 -9.3281 L5.0938 -9.3281 ZM3.8281 -4.5625 Q4.6562 -4.5625 5.1719 -4.7344 Q5.6875 -4.9062 6.0078 -5.2656 Q6.3281 -5.625 6.5078 -6.1172 Q6.6875 -6.6094 6.6875 -7.2031 Q6.6875 -7.7812 6.4844 -8.1172 Q6.2812 -8.4531 5.9062 -8.5938 Q5.5312 -8.7344 4.9375 -8.7344 Q4.5156 -8.7344 4.0469 -8.7031 L3.125 -4.5625 L3.8281 -4.5625 Z" stroke="none"/></g><g text-rendering="optimizeLegibility" transform="translate(117.3438,29.8034)" color-rendering="optimizeQuality" color-interpolation="linearRGB" image-rendering="optimizeQuality"><path d="M0.6719 -13.9688 Q2.1875 -13.9688 3.0703 -13.5781 Q3.9531 -13.1875 4.3281 -12.4062 Q4.7031 -11.625 4.7031 -10.3281 L4.7031 -7.5 Q4.7031 -6.625 4.9297 -6.1484 Q5.1562 -5.6719 5.5938 -5.4766 Q6.0312 -5.2812 6.8125 -5.2812 L6.8125 -4.4688 Q6.0312 -4.4688 5.5859 -4.2734 Q5.1406 -4.0781 4.9219 -3.5938 Q4.7031 -3.1094 4.7031 -2.25 L4.7031 0.5781 Q4.7031 1.8906 4.3281 2.6641 Q3.9531 3.4375 3.0703 3.8281 Q2.1875 4.2188 0.6719 4.2188 L0.4219 4.2188 L0.4219 3.4219 Q1.1875 3.4219 1.5781 3.3438 Q1.9688 3.2656 2.2031 3.1016 Q2.4375 2.9375 2.5938 2.6719 Q2.75 2.4062 2.8438 1.9375 Q2.9375 1.4688 2.9375 0.6875 L2.9375 -1.2031 Q2.9375 -2.1875 3.1016 -2.8438 Q3.2656 -3.5 3.7109 -3.9844 Q4.1562 -4.4688 4.9062 -4.7812 L4.9062 -4.9688 Q4.1719 -5.2656 3.7188 -5.7656 Q3.2656 -6.2656 3.1016 -6.9297 Q2.9375 -7.5938 2.9375 -8.5469 L2.9375 -10.4375 Q2.9375 -11.2188 2.8438 -11.6875 Q2.75 -12.1562 2.5938 -12.4141 Q2.4375 -12.6719 2.2031 -12.8438 Q1.9688 -13.0156 1.5781 -13.0938 Q1.1875 -13.1719 0.4219 -13.1719 L0.4219 -13.9688 L0.6719 -13.9688 Z" stroke="none"/></g><g text-rendering="optimizeLegibility" transform="translate(126.1562,29.8034)" color-rendering="optimizeQuality" color-interpolation="linearRGB" image-rendering="optimizeQuality"><path d="M7.2812 -13.3281 Q8.4375 -13.3281 9.1875 -13.1484 Q9.9375 -12.9688 10.4219 -12.5938 Q10.9062 -12.2188 11.1406 -11.6406 Q11.375 -11.0625 11.375 -10.2969 Q11.375 -8.8438 10.6797 -7.7656 Q9.9844 -6.6875 8.8047 -6.1797 Q7.625 -5.6719 5.9531 -5.6719 Q4.9688 -5.6719 4.2969 -5.7188 L3.6719 -2.8438 Q3.5781 -2.4375 3.5469 -2.2266 Q3.5156 -2.0156 3.4922 -1.7656 Q3.4688 -1.5156 3.4688 -1.3125 Q3.4688 -1.0156 3.5625 -0.8438 Q3.6562 -0.6719 3.8516 -0.5938 Q4.0469 -0.5156 4.5312 -0.4844 L4.4219 0 L0.4062 0 L0.5156 -0.4844 Q0.8906 -0.5312 1.0781 -0.6641 Q1.2656 -0.7969 1.3906 -1.0312 Q1.5156 -1.2656 1.625 -1.6016 Q1.7344 -1.9375 1.9375 -2.9062 L3.6094 -10.4375 Q3.8125 -11.4062 3.8125 -11.9688 Q3.8125 -12.4531 3.5938 -12.6406 Q3.375 -12.8281 2.8594 -12.8594 L2.9688 -13.3281 L7.2812 -13.3281 ZM5.4844 -6.5312 Q6.6562 -6.5312 7.3828 -6.7734 Q8.1094 -7.0156 8.5781 -7.5234 Q9.0469 -8.0312 9.2969 -8.7344 Q9.5469 -9.4375 9.5469 -10.2812 Q9.5469 -11.1094 9.2578 -11.5938 Q8.9688 -12.0781 8.4297 -12.2734 Q7.8906 -12.4688 7.0625 -12.4688 Q6.4531 -12.4688 5.7969 -12.4375 L4.4688 -6.5312 L5.4844 -6.5312 Z" stroke="none"/></g><g text-rendering="optimizeLegibility" transform="translate(137.8125,33.0691)" color-rendering="optimizeQuality" color-interpolation="linearRGB" image-rendering="optimizeQuality"><path d="M6.4688 -6.2031 Q5.1406 -4.7812 3.6875 -3.4062 L4.3281 -1.9062 Q4.5781 -1.3125 4.7266 -1.0234 Q4.875 -0.7344 5 -0.6094 Q5.125 -0.4844 5.25 -0.4297 Q5.375 -0.375 5.6406 -0.3281 L5.5625 0 L3.8594 0 L2.9062 -2.75 Q2.75 -2.6094 2.4766 -2.3516 Q2.2031 -2.0938 1.9531 -1.8047 Q1.7031 -1.5156 1.6016 -1.3359 Q1.5 -1.1562 1.4688 -1.0234 Q1.4375 -0.8906 1.4375 -0.7656 Q1.4375 -0.5781 1.5391 -0.4766 Q1.6406 -0.375 1.875 -0.3281 L1.7969 0 L-0.1562 0 L-0.2812 -0.3281 Q1.2188 -1.9375 2.6719 -3.2969 L2.0156 -4.8125 Q1.8125 -5.2812 1.6953 -5.5234 Q1.5781 -5.7656 1.4609 -5.8984 Q1.3438 -6.0312 1.1953 -6.1094 Q1.0469 -6.1875 0.7812 -6.2031 L0.8594 -6.5312 L2.5625 -6.5312 L3.4688 -3.9531 Q3.7969 -4.2656 4.1016 -4.5938 Q4.4062 -4.9219 4.5312 -5.1172 Q4.6562 -5.3125 4.7031 -5.4609 Q4.75 -5.6094 4.75 -5.7656 Q4.75 -6.1406 4.3125 -6.2031 L4.375 -6.5312 L6.3281 -6.5312 L6.4688 -6.2031 Z" stroke="none"/></g><g text-rendering="optimizeLegibility" transform="translate(145.0625,29.8034)" color-rendering="optimizeQuality" color-interpolation="linearRGB" image-rendering="optimizeQuality"><path d="M6.25 -5.0469 L6.25 -1.3438 L4.8125 -1.3438 L4.8125 -5.0469 L1.2188 -5.0469 L1.2188 -6.3906 L4.8125 -6.3906 L4.8125 -10.0938 L6.25 -10.0938 L6.25 -6.3906 L9.8594 -6.3906 L9.8594 -5.0469 L6.25 -5.0469 Z" stroke="none"/></g><g text-rendering="optimizeLegibility" transform="translate(158,29.8034)" color-rendering="optimizeQuality" color-interpolation="linearRGB" image-rendering="optimizeQuality"><path d="M7.0781 4.2188 Q5.5625 4.2188 4.6797 3.8281 Q3.7969 3.4375 3.4141 2.6641 Q3.0312 1.8906 3.0312 0.5781 L3.0312 -2.25 Q3.0312 -3.1094 2.8125 -3.5938 Q2.5938 -4.0781 2.1562 -4.2734 Q1.7188 -4.4688 0.9219 -4.4688 L0.9219 -5.2812 Q1.7031 -5.2812 2.1484 -5.4766 Q2.5938 -5.6719 2.8125 -6.1484 Q3.0312 -6.625 3.0312 -7.5 L3.0312 -10.3281 Q3.0312 -11.625 3.4141 -12.4062 Q3.7969 -13.1875 4.6797 -13.5781 Q5.5625 -13.9688 7.0781 -13.9688 L7.3281 -13.9688 L7.3281 -13.1719 Q6.5469 -13.1719 6.1641 -13.0938 Q5.7812 -13.0156 5.5391 -12.8438 Q5.2969 -12.6719 5.1406 -12.4141 Q4.9844 -12.1562 4.8984 -11.6875 Q4.8125 -11.2188 4.8125 -10.4375 L4.8125 -8.5469 Q4.8125 -7.5625 4.6406 -6.8984 Q4.4688 -6.2344 4.0312 -5.7578 Q3.5938 -5.2812 2.8281 -4.9688 L2.8281 -4.7812 Q3.5781 -4.4844 4.0312 -3.9844 Q4.4844 -3.4844 4.6484 -2.8203 Q4.8125 -2.1562 4.8125 -1.2031 L4.8125 0.6875 Q4.8125 1.4688 4.8984 1.9375 Q4.9844 2.4062 5.1406 2.6719 Q5.2969 2.9375 5.5391 3.1016 Q5.7812 3.2656 6.1641 3.3438 Q6.5469 3.4219 7.3281 3.4219 L7.3281 4.2188 L7.0781 4.2188 Z" stroke="none"/></g><g text-rendering="optimizeLegibility" transform="translate(167.3281,29.8034)" color-rendering="optimizeQuality" color-interpolation="linearRGB" image-rendering="optimizeQuality"><path d="M13.9531 -13.3281 L13.8438 -12.8594 Q13.4688 -12.7812 13.3047 -12.6797 Q13.1406 -12.5781 13.0078 -12.3828 Q12.875 -12.1875 12.75 -11.7734 Q12.625 -11.3594 12.4062 -10.4219 L10.125 0 L8.7969 0 L5.9375 -8.375 Q5.4219 -9.8906 5.0312 -11.375 L4.9062 -11.375 Q4.8438 -10.875 4.5781 -9.4766 Q4.3125 -8.0781 4.0312 -6.7344 L3.1719 -2.8438 Q3.0781 -2.4375 3.0156 -2.0547 Q2.9531 -1.6719 2.9531 -1.3125 Q2.9531 -0.875 3.1797 -0.6953 Q3.4062 -0.5156 3.9219 -0.4844 L3.8125 0 L0.3906 0 L0.5 -0.4844 Q0.875 -0.5312 1.0547 -0.6641 Q1.2344 -0.7969 1.3672 -1.0312 Q1.5 -1.2656 1.6016 -1.6016 Q1.7031 -1.9375 1.9219 -2.9062 L3.5781 -10.4375 Q3.6875 -10.8438 3.7422 -11.2266 Q3.7969 -11.6094 3.7969 -12 Q3.7969 -12.4688 3.5625 -12.6484 Q3.3281 -12.8281 2.8438 -12.8594 L2.9531 -13.3281 L6.0625 -13.3281 L8.6406 -5.7188 Q9.2031 -4.0781 9.5 -2.9531 L9.6094 -2.9531 Q9.6875 -3.5469 9.9688 -4.9297 Q10.25 -6.3125 10.4844 -7.3594 L11.1562 -10.4375 Q11.2344 -10.75 11.3047 -11.1875 Q11.375 -11.625 11.375 -12 Q11.375 -12.4688 11.1406 -12.6484 Q10.9062 -12.8281 10.4219 -12.8594 L10.5312 -13.3281 L13.9531 -13.3281 Z" stroke="none"/></g><g text-rendering="optimizeLegibility" transform="translate(183,31.5691)" color-rendering="optimizeQuality" color-interpolation="linearRGB" image-rendering="optimizeQuality"><path d="M1.2656 -5.0469 Q1.2031 -5.5625 1.1406 -5.7656 Q1.0781 -5.9688 0.9375 -6.0781 Q0.7969 -6.1875 0.5 -6.2031 L0.5625 -6.5312 L2.3281 -6.5312 L2.8438 -1.0938 Q5.1562 -4.2656 5.1562 -5.625 Q5.1562 -5.9531 5.0156 -6.0703 Q4.875 -6.1875 4.5469 -6.2031 L4.625 -6.5312 L6.3906 -6.5312 L6.5625 -6.1875 Q6.2031 -5.25 5.6406 -4.2266 Q5.0781 -3.2031 4.2656 -1.9922 Q3.4531 -0.7812 2.4531 0.5156 Q1.6875 1.5312 1.1562 2.0312 Q0.7656 2.4219 0.4219 2.625 Q0.0781 2.8281 -0.2344 2.9141 Q-0.5469 3 -0.9062 3 Q-1.0938 3 -1.3281 2.9609 Q-1.5625 2.9219 -1.7188 2.8594 L-1.4219 1.5938 L-0.8906 1.5938 Q-0.8906 1.8125 -0.7891 1.9531 Q-0.6875 2.0938 -0.4844 2.0938 Q-0.2656 2.0938 -0.1094 2.0469 Q0.0469 2 0.2188 1.8984 Q0.3906 1.7969 0.6406 1.5703 Q0.8906 1.3438 1.2109 0.9766 Q1.5312 0.6094 1.9219 0.0781 L1.2656 -5.0469 Z" stroke="none"/></g><g text-rendering="optimizeLegibility" transform="translate(181.2812,21.1394)" color-rendering="optimizeQuality" color-interpolation="linearRGB" image-rendering="optimizeQuality"><path d="M5.0938 -9.3281 Q5.9062 -9.3281 6.4297 -9.2031 Q6.9531 -9.0781 7.2891 -8.8125 Q7.625 -8.5469 7.7969 -8.1484 Q7.9688 -7.75 7.9688 -7.2188 Q7.9688 -6.1875 7.4844 -5.4375 Q7 -4.6875 6.1641 -4.3281 Q5.3281 -3.9688 4.1719 -3.9688 Q3.4688 -3.9688 3.0156 -4 L2.5781 -1.9844 Q2.5156 -1.7031 2.4922 -1.5547 Q2.4688 -1.4062 2.4453 -1.2344 Q2.4219 -1.0625 2.4219 -0.9219 Q2.4219 -0.7188 2.4922 -0.5938 Q2.5625 -0.4688 2.7031 -0.4141 Q2.8438 -0.3594 3.1719 -0.3281 L3.0938 0 L0.2812 0 L0.3594 -0.3281 Q0.625 -0.375 0.75 -0.4688 Q0.875 -0.5625 0.9688 -0.7266 Q1.0625 -0.8906 1.1328 -1.125 Q1.2031 -1.3594 1.3594 -2.0312 L2.5156 -7.2969 Q2.6719 -7.9844 2.6719 -8.375 Q2.6719 -8.7188 2.5156 -8.8438 Q2.3594 -8.9688 2 -9 L2.0781 -9.3281 L5.0938 -9.3281 ZM3.8281 -4.5625 Q4.6562 -4.5625 5.1719 -4.7344 Q5.6875 -4.9062 6.0078 -5.2656 Q6.3281 -5.625 6.5078 -6.1172 Q6.6875 -6.6094 6.6875 -7.2031 Q6.6875 -7.7812 6.4844 -8.1172 Q6.2812 -8.4531 5.9062 -8.5938 Q5.5312 -8.7344 4.9375 -8.7344 Q4.5156 -8.7344 4.0469 -8.7031 L3.125 -4.5625 L3.8281 -4.5625 Z" stroke="none"/></g><g text-rendering="optimizeLegibility" transform="translate(191.1406,29.8034)" color-rendering="optimizeQuality" color-interpolation="linearRGB" image-rendering="optimizeQuality"><path d="M0.6719 -13.9688 Q2.1875 -13.9688 3.0703 -13.5781 Q3.9531 -13.1875 4.3281 -12.4062 Q4.7031 -11.625 4.7031 -10.3281 L4.7031 -7.5 Q4.7031 -6.625 4.9297 -6.1484 Q5.1562 -5.6719 5.5938 -5.4766 Q6.0312 -5.2812 6.8125 -5.2812 L6.8125 -4.4688 Q6.0312 -4.4688 5.5859 -4.2734 Q5.1406 -4.0781 4.9219 -3.5938 Q4.7031 -3.1094 4.7031 -2.25 L4.7031 0.5781 Q4.7031 1.8906 4.3281 2.6641 Q3.9531 3.4375 3.0703 3.8281 Q2.1875 4.2188 0.6719 4.2188 L0.4219 4.2188 L0.4219 3.4219 Q1.1875 3.4219 1.5781 3.3438 Q1.9688 3.2656 2.2031 3.1016 Q2.4375 2.9375 2.5938 2.6719 Q2.75 2.4062 2.8438 1.9375 Q2.9375 1.4688 2.9375 0.6875 L2.9375 -1.2031 Q2.9375 -2.1875 3.1016 -2.8438 Q3.2656 -3.5 3.7109 -3.9844 Q4.1562 -4.4688 4.9062 -4.7812 L4.9062 -4.9688 Q4.1719 -5.2656 3.7188 -5.7656 Q3.2656 -6.2656 3.1016 -6.9297 Q2.9375 -7.5938 2.9375 -8.5469 L2.9375 -10.4375 Q2.9375 -11.2188 2.8438 -11.6875 Q2.75 -12.1562 2.5938 -12.4141 Q2.4375 -12.6719 2.2031 -12.8438 Q1.9688 -13.0156 1.5781 -13.0938 Q1.1875 -13.1719 0.4219 -13.1719 L0.4219 -13.9688 L0.6719 -13.9688 Z" stroke="none"/></g><g text-rendering="optimizeLegibility" transform="translate(199.9531,29.8034)" color-rendering="optimizeQuality" color-interpolation="linearRGB" image-rendering="optimizeQuality"><path d="M7.2812 -13.3281 Q8.4375 -13.3281 9.1875 -13.1484 Q9.9375 -12.9688 10.4219 -12.5938 Q10.9062 -12.2188 11.1406 -11.6406 Q11.375 -11.0625 11.375 -10.2969 Q11.375 -8.8438 10.6797 -7.7656 Q9.9844 -6.6875 8.8047 -6.1797 Q7.625 -5.6719 5.9531 -5.6719 Q4.9688 -5.6719 4.2969 -5.7188 L3.6719 -2.8438 Q3.5781 -2.4375 3.5469 -2.2266 Q3.5156 -2.0156 3.4922 -1.7656 Q3.4688 -1.5156 3.4688 -1.3125 Q3.4688 -1.0156 3.5625 -0.8438 Q3.6562 -0.6719 3.8516 -0.5938 Q4.0469 -0.5156 4.5312 -0.4844 L4.4219 0 L0.4062 0 L0.5156 -0.4844 Q0.8906 -0.5312 1.0781 -0.6641 Q1.2656 -0.7969 1.3906 -1.0312 Q1.5156 -1.2656 1.625 -1.6016 Q1.7344 -1.9375 1.9375 -2.9062 L3.6094 -10.4375 Q3.8125 -11.4062 3.8125 -11.9688 Q3.8125 -12.4531 3.5938 -12.6406 Q3.375 -12.8281 2.8594 -12.8594 L2.9688 -13.3281 L7.2812 -13.3281 ZM5.4844 -6.5312 Q6.6562 -6.5312 7.3828 -6.7734 Q8.1094 -7.0156 8.5781 -7.5234 Q9.0469 -8.0312 9.2969 -8.7344 Q9.5469 -9.4375 9.5469 -10.2812 Q9.5469 -11.1094 9.2578 -11.5938 Q8.9688 -12.0781 8.4297 -12.2734 Q7.8906 -12.4688 7.0625 -12.4688 Q6.4531 -12.4688 5.7969 -12.4375 L4.4688 -6.5312 L5.4844 -6.5312 Z" stroke="none"/></g><g text-rendering="optimizeLegibility" transform="translate(213.0469,31.5691)" color-rendering="optimizeQuality" color-interpolation="linearRGB" image-rendering="optimizeQuality"><path d="M1.2656 -5.0469 Q1.2031 -5.5625 1.1406 -5.7656 Q1.0781 -5.9688 0.9375 -6.0781 Q0.7969 -6.1875 0.5 -6.2031 L0.5625 -6.5312 L2.3281 -6.5312 L2.8438 -1.0938 Q5.1562 -4.2656 5.1562 -5.625 Q5.1562 -5.9531 5.0156 -6.0703 Q4.875 -6.1875 4.5469 -6.2031 L4.625 -6.5312 L6.3906 -6.5312 L6.5625 -6.1875 Q6.2031 -5.25 5.6406 -4.2266 Q5.0781 -3.2031 4.2656 -1.9922 Q3.4531 -0.7812 2.4531 0.5156 Q1.6875 1.5312 1.1562 2.0312 Q0.7656 2.4219 0.4219 2.625 Q0.0781 2.8281 -0.2344 2.9141 Q-0.5469 3 -0.9062 3 Q-1.0938 3 -1.3281 2.9609 Q-1.5625 2.9219 -1.7188 2.8594 L-1.4219 1.5938 L-0.8906 1.5938 Q-0.8906 1.8125 -0.7891 1.9531 Q-0.6875 2.0938 -0.4844 2.0938 Q-0.2656 2.0938 -0.1094 2.0469 Q0.0469 2 0.2188 1.8984 Q0.3906 1.7969 0.6406 1.5703 Q0.8906 1.3438 1.2109 0.9766 Q1.5312 0.6094 1.9219 0.0781 L1.2656 -5.0469 Z" stroke="none"/></g><g text-rendering="optimizeLegibility" transform="translate(220.3906,29.8034)" color-rendering="optimizeQuality" color-interpolation="linearRGB" image-rendering="optimizeQuality"><path d="M6.25 -5.0469 L6.25 -1.3438 L4.8125 -1.3438 L4.8125 -5.0469 L1.2188 -5.0469 L1.2188 -6.3906 L4.8125 -6.3906 L4.8125 -10.0938 L6.25 -10.0938 L6.25 -6.3906 L9.8594 -6.3906 L9.8594 -5.0469 L6.25 -5.0469 Z" stroke="none"/></g><g text-rendering="optimizeLegibility" transform="translate(233.3281,29.8034)" color-rendering="optimizeQuality" color-interpolation="linearRGB" image-rendering="optimizeQuality"><path d="M7.0781 4.2188 Q5.5625 4.2188 4.6797 3.8281 Q3.7969 3.4375 3.4141 2.6641 Q3.0312 1.8906 3.0312 0.5781 L3.0312 -2.25 Q3.0312 -3.1094 2.8125 -3.5938 Q2.5938 -4.0781 2.1562 -4.2734 Q1.7188 -4.4688 0.9219 -4.4688 L0.9219 -5.2812 Q1.7031 -5.2812 2.1484 -5.4766 Q2.5938 -5.6719 2.8125 -6.1484 Q3.0312 -6.625 3.0312 -7.5 L3.0312 -10.3281 Q3.0312 -11.625 3.4141 -12.4062 Q3.7969 -13.1875 4.6797 -13.5781 Q5.5625 -13.9688 7.0781 -13.9688 L7.3281 -13.9688 L7.3281 -13.1719 Q6.5469 -13.1719 6.1641 -13.0938 Q5.7812 -13.0156 5.5391 -12.8438 Q5.2969 -12.6719 5.1406 -12.4141 Q4.9844 -12.1562 4.8984 -11.6875 Q4.8125 -11.2188 4.8125 -10.4375 L4.8125 -8.5469 Q4.8125 -7.5625 4.6406 -6.8984 Q4.4688 -6.2344 4.0312 -5.7578 Q3.5938 -5.2812 2.8281 -4.9688 L2.8281 -4.7812 Q3.5781 -4.4844 4.0312 -3.9844 Q4.4844 -3.4844 4.6484 -2.8203 Q4.8125 -2.1562 4.8125 -1.2031 L4.8125 0.6875 Q4.8125 1.4688 4.8984 1.9375 Q4.9844 2.4062 5.1406 2.6719 Q5.2969 2.9375 5.5391 3.1016 Q5.7812 3.2656 6.1641 3.3438 Q6.5469 3.4219 7.3281 3.4219 L7.3281 4.2188 L7.0781 4.2188 Z" stroke="none"/></g><g text-rendering="optimizeLegibility" transform="translate(242.6562,29.8034)" color-rendering="optimizeQuality" color-interpolation="linearRGB" image-rendering="optimizeQuality"><path d="M13.9531 -13.3281 L13.8438 -12.8594 Q13.4688 -12.7812 13.3047 -12.6797 Q13.1406 -12.5781 13.0078 -12.3828 Q12.875 -12.1875 12.75 -11.7734 Q12.625 -11.3594 12.4062 -10.4219 L10.125 0 L8.7969 0 L5.9375 -8.375 Q5.4219 -9.8906 5.0312 -11.375 L4.9062 -11.375 Q4.8438 -10.875 4.5781 -9.4766 Q4.3125 -8.0781 4.0312 -6.7344 L3.1719 -2.8438 Q3.0781 -2.4375 3.0156 -2.0547 Q2.9531 -1.6719 2.9531 -1.3125 Q2.9531 -0.875 3.1797 -0.6953 Q3.4062 -0.5156 3.9219 -0.4844 L3.8125 0 L0.3906 0 L0.5 -0.4844 Q0.875 -0.5312 1.0547 -0.6641 Q1.2344 -0.7969 1.3672 -1.0312 Q1.5 -1.2656 1.6016 -1.6016 Q1.7031 -1.9375 1.9219 -2.9062 L3.5781 -10.4375 Q3.6875 -10.8438 3.7422 -11.2266 Q3.7969 -11.6094 3.7969 -12 Q3.7969 -12.4688 3.5625 -12.6484 Q3.3281 -12.8281 2.8438 -12.8594 L2.9531 -13.3281 L6.0625 -13.3281 L8.6406 -5.7188 Q9.2031 -4.0781 9.5 -2.9531 L9.6094 -2.9531 Q9.6875 -3.5469 9.9688 -4.9297 Q10.25 -6.3125 10.4844 -7.3594 L11.1562 -10.4375 Q11.2344 -10.75 11.3047 -11.1875 Q11.375 -11.625 11.375 -12 Q11.375 -12.4688 11.1406 -12.6484 Q10.9062 -12.8281 10.4219 -12.8594 L10.5312 -13.3281 L13.9531 -13.3281 Z" stroke="none"/></g><g text-rendering="optimizeLegibility" transform="translate(256.6562,33.0691)" color-rendering="optimizeQuality" color-interpolation="linearRGB" image-rendering="optimizeQuality"><path d="M5.4531 -1.9219 L5.0312 0 L0.0781 0 L-0.0469 -0.3281 L3.6875 -4.6406 Q4.4844 -5.5469 4.8594 -5.9375 L4.8125 -5.9844 L3.2188 -5.9844 Q2.8594 -5.9844 2.6953 -5.9375 Q2.5312 -5.8906 2.3672 -5.7656 Q2.2031 -5.6406 2.0156 -5.4062 Q1.8281 -5.1719 1.5938 -4.7344 L0.9844 -4.7344 L1.3906 -6.5312 L6.25 -6.5312 L6.375 -6.1875 L1.4688 -0.6094 L1.5156 -0.5469 L3.0625 -0.5469 Q3.4688 -0.5469 3.6875 -0.5938 Q3.9062 -0.6406 4.0703 -0.7656 Q4.2344 -0.8906 4.4062 -1.1406 Q4.5781 -1.3906 4.8438 -1.9219 L5.4531 -1.9219 Z" stroke="none"/></g><g text-rendering="optimizeLegibility" transform="translate(256.6094,21.1394)" color-rendering="optimizeQuality" color-interpolation="linearRGB" image-rendering="optimizeQuality"><path d="M5.0938 -9.3281 Q5.9062 -9.3281 6.4297 -9.2031 Q6.9531 -9.0781 7.2891 -8.8125 Q7.625 -8.5469 7.7969 -8.1484 Q7.9688 -7.75 7.9688 -7.2188 Q7.9688 -6.1875 7.4844 -5.4375 Q7 -4.6875 6.1641 -4.3281 Q5.3281 -3.9688 4.1719 -3.9688 Q3.4688 -3.9688 3.0156 -4 L2.5781 -1.9844 Q2.5156 -1.7031 2.4922 -1.5547 Q2.4688 -1.4062 2.4453 -1.2344 Q2.4219 -1.0625 2.4219 -0.9219 Q2.4219 -0.7188 2.4922 -0.5938 Q2.5625 -0.4688 2.7031 -0.4141 Q2.8438 -0.3594 3.1719 -0.3281 L3.0938 0 L0.2812 0 L0.3594 -0.3281 Q0.625 -0.375 0.75 -0.4688 Q0.875 -0.5625 0.9688 -0.7266 Q1.0625 -0.8906 1.1328 -1.125 Q1.2031 -1.3594 1.3594 -2.0312 L2.5156 -7.2969 Q2.6719 -7.9844 2.6719 -8.375 Q2.6719 -8.7188 2.5156 -8.8438 Q2.3594 -8.9688 2 -9 L2.0781 -9.3281 L5.0938 -9.3281 ZM3.8281 -4.5625 Q4.6562 -4.5625 5.1719 -4.7344 Q5.6875 -4.9062 6.0078 -5.2656 Q6.3281 -5.625 6.5078 -6.1172 Q6.6875 -6.6094 6.6875 -7.2031 Q6.6875 -7.7812 6.4844 -8.1172 Q6.2812 -8.4531 5.9062 -8.5938 Q5.5312 -8.7344 4.9375 -8.7344 Q4.5156 -8.7344 4.0469 -8.7031 L3.125 -4.5625 L3.8281 -4.5625 Z" stroke="none"/></g><g text-rendering="optimizeLegibility" transform="translate(266.1562,29.8034)" color-rendering="optimizeQuality" color-interpolation="linearRGB" image-rendering="optimizeQuality"><path d="M0.6719 -13.9688 Q2.1875 -13.9688 3.0703 -13.5781 Q3.9531 -13.1875 4.3281 -12.4062 Q4.7031 -11.625 4.7031 -10.3281 L4.7031 -7.5 Q4.7031 -6.625 4.9297 -6.1484 Q5.1562 -5.6719 5.5938 -5.4766 Q6.0312 -5.2812 6.8125 -5.2812 L6.8125 -4.4688 Q6.0312 -4.4688 5.5859 -4.2734 Q5.1406 -4.0781 4.9219 -3.5938 Q4.7031 -3.1094 4.7031 -2.25 L4.7031 0.5781 Q4.7031 1.8906 4.3281 2.6641 Q3.9531 3.4375 3.0703 3.8281 Q2.1875 4.2188 0.6719 4.2188 L0.4219 4.2188 L0.4219 3.4219 Q1.1875 3.4219 1.5781 3.3438 Q1.9688 3.2656 2.2031 3.1016 Q2.4375 2.9375 2.5938 2.6719 Q2.75 2.4062 2.8438 1.9375 Q2.9375 1.4688 2.9375 0.6875 L2.9375 -1.2031 Q2.9375 -2.1875 3.1016 -2.8438 Q3.2656 -3.5 3.7109 -3.9844 Q4.1562 -4.4688 4.9062 -4.7812 L4.9062 -4.9688 Q4.1719 -5.2656 3.7188 -5.7656 Q3.2656 -6.2656 3.1016 -6.9297 Q2.9375 -7.5938 2.9375 -8.5469 L2.9375 -10.4375 Q2.9375 -11.2188 2.8438 -11.6875 Q2.75 -12.1562 2.5938 -12.4141 Q2.4375 -12.6719 2.2031 -12.8438 Q1.9688 -13.0156 1.5781 -13.0938 Q1.1875 -13.1719 0.4219 -13.1719 L0.4219 -13.9688 L0.6719 -13.9688 Z" stroke="none"/></g><g text-rendering="optimizeLegibility" transform="translate(274.9688,29.8034)" color-rendering="optimizeQuality" color-interpolation="linearRGB" image-rendering="optimizeQuality"><path d="M7.2812 -13.3281 Q8.4375 -13.3281 9.1875 -13.1484 Q9.9375 -12.9688 10.4219 -12.5938 Q10.9062 -12.2188 11.1406 -11.6406 Q11.375 -11.0625 11.375 -10.2969 Q11.375 -8.8438 10.6797 -7.7656 Q9.9844 -6.6875 8.8047 -6.1797 Q7.625 -5.6719 5.9531 -5.6719 Q4.9688 -5.6719 4.2969 -5.7188 L3.6719 -2.8438 Q3.5781 -2.4375 3.5469 -2.2266 Q3.5156 -2.0156 3.4922 -1.7656 Q3.4688 -1.5156 3.4688 -1.3125 Q3.4688 -1.0156 3.5625 -0.8438 Q3.6562 -0.6719 3.8516 -0.5938 Q4.0469 -0.5156 4.5312 -0.4844 L4.4219 0 L0.4062 0 L0.5156 -0.4844 Q0.8906 -0.5312 1.0781 -0.6641 Q1.2656 -0.7969 1.3906 -1.0312 Q1.5156 -1.2656 1.625 -1.6016 Q1.7344 -1.9375 1.9375 -2.9062 L3.6094 -10.4375 Q3.8125 -11.4062 3.8125 -11.9688 Q3.8125 -12.4531 3.5938 -12.6406 Q3.375 -12.8281 2.8594 -12.8594 L2.9688 -13.3281 L7.2812 -13.3281 ZM5.4844 -6.5312 Q6.6562 -6.5312 7.3828 -6.7734 Q8.1094 -7.0156 8.5781 -7.5234 Q9.0469 -8.0312 9.2969 -8.7344 Q9.5469 -9.4375 9.5469 -10.2812 Q9.5469 -11.1094 9.2578 -11.5938 Q8.9688 -12.0781 8.4297 -12.2734 Q7.8906 -12.4688 7.0625 -12.4688 Q6.4531 -12.4688 5.7969 -12.4375 L4.4688 -6.5312 L5.4844 -6.5312 Z" stroke="none"/></g><g text-rendering="optimizeLegibility" transform="translate(286.3906,33.0691)" color-rendering="optimizeQuality" color-interpolation="linearRGB" image-rendering="optimizeQuality"><path d="M5.4531 -1.9219 L5.0312 0 L0.0781 0 L-0.0469 -0.3281 L3.6875 -4.6406 Q4.4844 -5.5469 4.8594 -5.9375 L4.8125 -5.9844 L3.2188 -5.9844 Q2.8594 -5.9844 2.6953 -5.9375 Q2.5312 -5.8906 2.3672 -5.7656 Q2.2031 -5.6406 2.0156 -5.4062 Q1.8281 -5.1719 1.5938 -4.7344 L0.9844 -4.7344 L1.3906 -6.5312 L6.25 -6.5312 L6.375 -6.1875 L1.4688 -0.6094 L1.5156 -0.5469 L3.0625 -0.5469 Q3.4688 -0.5469 3.6875 -0.5938 Q3.9062 -0.6406 4.0703 -0.7656 Q4.2344 -0.8906 4.4062 -1.1406 Q4.5781 -1.3906 4.8438 -1.9219 L5.4531 -1.9219 Z" stroke="none"/></g><g text-rendering="optimizeLegibility" transform="translate(293.5469,29.8034)" color-rendering="optimizeQuality" color-interpolation="linearRGB" image-rendering="optimizeQuality"><path d="M6.25 -5.0469 L6.25 -1.3438 L4.8125 -1.3438 L4.8125 -5.0469 L1.2188 -5.0469 L1.2188 -6.3906 L4.8125 -6.3906 L4.8125 -10.0938 L6.25 -10.0938 L6.25 -6.3906 L9.8594 -6.3906 L9.8594 -5.0469 L6.25 -5.0469 Z" stroke="none"/></g><g text-rendering="optimizeLegibility" transform="translate(305.4062,29.8034)" color-rendering="optimizeQuality" color-interpolation="linearRGB" image-rendering="optimizeQuality"><path d="M7.2812 -13.3281 Q8.4375 -13.3281 9.1875 -13.1484 Q9.9375 -12.9688 10.4219 -12.5938 Q10.9062 -12.2188 11.1406 -11.6406 Q11.375 -11.0625 11.375 -10.2969 Q11.375 -8.8438 10.6797 -7.7656 Q9.9844 -6.6875 8.8047 -6.1797 Q7.625 -5.6719 5.9531 -5.6719 Q4.9688 -5.6719 4.2969 -5.7188 L3.6719 -2.8438 Q3.5781 -2.4375 3.5469 -2.2266 Q3.5156 -2.0156 3.4922 -1.7656 Q3.4688 -1.5156 3.4688 -1.3125 Q3.4688 -1.0156 3.5625 -0.8438 Q3.6562 -0.6719 3.8516 -0.5938 Q4.0469 -0.5156 4.5312 -0.4844 L4.4219 0 L0.4062 0 L0.5156 -0.4844 Q0.8906 -0.5312 1.0781 -0.6641 Q1.2656 -0.7969 1.3906 -1.0312 Q1.5156 -1.2656 1.625 -1.6016 Q1.7344 -1.9375 1.9375 -2.9062 L3.6094 -10.4375 Q3.8125 -11.4062 3.8125 -11.9688 Q3.8125 -12.4531 3.5938 -12.6406 Q3.375 -12.8281 2.8594 -12.8594 L2.9688 -13.3281 L7.2812 -13.3281 ZM5.4844 -6.5312 Q6.6562 -6.5312 7.3828 -6.7734 Q8.1094 -7.0156 8.5781 -7.5234 Q9.0469 -8.0312 9.2969 -8.7344 Q9.5469 -9.4375 9.5469 -10.2812 Q9.5469 -11.1094 9.2578 -11.5938 Q8.9688 -12.0781 8.4297 -12.2734 Q7.8906 -12.4688 7.0625 -12.4688 Q6.4531 -12.4688 5.7969 -12.4375 L4.4688 -6.5312 L5.4844 -6.5312 Z" stroke="none"/></g><g text-rendering="optimizeLegibility" transform="translate(316.7812,33.0144)" color-rendering="optimizeQuality" color-interpolation="linearRGB" image-rendering="optimizeQuality"><path d="M6.3906 -6.5312 L6.5625 -6.1875 Q6.3125 -5.5781 6.1797 -5.2891 Q6.0469 -5 5.8203 -4.5547 Q5.5938 -4.1094 5.3125 -3.625 Q5.0312 -3.1406 4.6641 -2.5859 Q4.2969 -2.0312 3.8359 -1.375 Q3.375 -0.7188 2.75 0.1094 L1.9062 0.1094 L1.2656 -5.0469 Q1.2031 -5.5469 1.1328 -5.7656 Q1.0625 -5.9844 0.9219 -6.0859 Q0.7812 -6.1875 0.5 -6.2031 L0.5625 -6.5312 L2.3281 -6.5312 L2.8438 -1.0938 Q4.0156 -2.7188 4.5859 -3.8281 Q5.1562 -4.9375 5.1562 -5.625 Q5.1562 -5.9531 5.0156 -6.0703 Q4.875 -6.1875 4.5469 -6.2031 L4.625 -6.5312 L6.3906 -6.5312 Z" stroke="none"/></g><g text-rendering="optimizeLegibility" transform="translate(323.4844,29.8034)" color-rendering="optimizeQuality" color-interpolation="linearRGB" image-rendering="optimizeQuality"><path d="M2.3125 -0.9062 L5.4375 -0.9062 Q5.875 -0.9062 6.1484 -0.9609 Q6.4219 -1.0156 6.6328 -1.1328 Q6.8438 -1.25 7.0312 -1.4297 Q7.2188 -1.6094 7.4062 -1.8516 Q7.5938 -2.0938 7.8281 -2.5 Q8.0625 -2.9062 8.3281 -3.5312 L9.2656 -3.5312 L8.5156 0 L-0.1406 0 L-0.0469 -0.4844 L8.8125 -12.4375 L5.8281 -12.4375 Q5.4062 -12.4375 5.1641 -12.3906 Q4.9219 -12.3438 4.7344 -12.25 Q4.5469 -12.1562 4.4062 -12.0391 Q4.2656 -11.9219 4.0625 -11.6797 Q3.8594 -11.4375 3.6172 -11.0547 Q3.375 -10.6719 3.0625 -10.0312 L2.125 -10.0312 L2.8594 -13.3281 L11.3125 -13.3281 L11.2031 -12.8594 L2.3125 -0.9062 Z" stroke="none"/></g><g text-rendering="optimizeLegibility" transform="translate(336.6406,33.1784)" color-rendering="optimizeQuality" color-interpolation="linearRGB" image-rendering="optimizeQuality"><path d="M1.7344 0.1094 Q1.5 1.2031 1.0938 1.8516 Q0.6875 2.5 0.1094 2.7812 Q-0.4688 3.0625 -1.2969 3.0625 Q-1.5938 3.0625 -1.8438 2.9844 L-1.6875 2.3906 Q-1.5156 2.4375 -1.2031 2.4375 Q-0.8438 2.4375 -0.6172 2.3438 Q-0.3906 2.25 -0.1953 2.0312 Q0 1.8125 0.1797 1.3984 Q0.3594 0.9844 0.5156 0.3125 L1.9062 -5.8438 L1.0781 -5.8438 L1.1562 -6.1875 Q1.4844 -6.2344 1.625 -6.2891 Q1.7656 -6.3438 1.8516 -6.4453 Q1.9375 -6.5469 2.0078 -6.7266 Q2.0781 -6.9062 2.2031 -7.3438 Q2.5625 -8.5781 3.3203 -9.1953 Q4.0781 -9.8125 5.25 -9.8125 Q5.9062 -9.8125 6.4062 -9.7031 L6.125 -8.5469 L5.5312 -8.5469 Q5.4375 -8.9375 5.2812 -9.1094 Q5.125 -9.2812 4.8281 -9.2812 Q4.4375 -9.2812 4.1641 -9.0703 Q3.8906 -8.8594 3.6953 -8.4297 Q3.5 -8 3.3438 -7.2812 L3.1719 -6.5312 L4.7344 -6.5312 L4.5781 -5.8438 L3.0156 -5.8438 L1.7344 0.1094 Z" stroke="none"/></g><g text-rendering="optimizeLegibility" transform="translate(343.2812,29.8034)" color-rendering="optimizeQuality" color-interpolation="linearRGB" image-rendering="optimizeQuality"><path d="M7.2188 4.25 Q5.5625 4.25 4.5078 3.75 Q3.4531 3.25 2.8672 2.2344 Q2.2812 1.2188 2.0234 -0.4141 Q1.7656 -2.0469 1.7656 -4.8438 Q1.7656 -7.625 2.0234 -9.2656 Q2.2812 -10.9062 2.8672 -11.9453 Q3.4531 -12.9844 4.5078 -13.5 Q5.5625 -14.0156 7.2188 -14.0156 L7.2188 -13.2188 Q6.5312 -13.2188 6 -13.0938 Q5.4062 -12.9531 4.9844 -12.5625 Q4.5156 -12.1406 4.2344 -11.375 Q3.8906 -10.4688 3.7188 -8.9844 Q3.5469 -7.4062 3.5469 -4.9219 Q3.5469 -2.7188 3.6953 -1.1797 Q3.8438 0.3594 4.1875 1.3281 Q4.4531 2.1562 4.8594 2.6094 Q5.2188 3.0156 5.7188 3.2188 Q6.2969 3.4531 7.2188 3.4531 L7.2188 4.25 Z" stroke="none"/></g><g text-rendering="optimizeLegibility" transform="translate(352.5,29.8034)" color-rendering="optimizeQuality" color-interpolation="linearRGB" image-rendering="optimizeQuality"><path d="M9.375 -8.1094 L5.9219 -8.1094 L4.7031 -2.5156 Q4.5938 -1.9844 4.5938 -1.7344 Q4.5938 -0.875 5.4375 -0.875 Q6.1562 -0.875 6.9531 -1.4375 L7.2812 -0.875 Q6 0.1562 4.7031 0.1562 Q2.9531 0.1562 2.9531 -1.4375 Q2.9531 -1.9531 3.0781 -2.4062 L4.3438 -8.1094 L3.7188 -8.1094 Q2.375 -8.1094 1.1875 -6.9062 L0.6875 -7.4219 Q2.1562 -9.3438 4.1719 -9.3438 L9.625 -9.3438 L9.375 -8.1094 Z" stroke="none"/></g><g text-rendering="optimizeLegibility" transform="translate(362.4062,33.2253)" color-rendering="optimizeQuality" color-interpolation="linearRGB" image-rendering="optimizeQuality"><path d="M6.4688 -6.2031 Q5.1406 -4.7812 3.6875 -3.4062 L4.3281 -1.9062 Q4.5781 -1.3125 4.7266 -1.0234 Q4.875 -0.7344 5 -0.6094 Q5.125 -0.4844 5.25 -0.4297 Q5.375 -0.375 5.6406 -0.3281 L5.5625 0 L3.8594 0 L2.9062 -2.75 Q2.75 -2.6094 2.4766 -2.3516 Q2.2031 -2.0938 1.9531 -1.8047 Q1.7031 -1.5156 1.6016 -1.3359 Q1.5 -1.1562 1.4688 -1.0234 Q1.4375 -0.8906 1.4375 -0.7656 Q1.4375 -0.5781 1.5391 -0.4766 Q1.6406 -0.375 1.875 -0.3281 L1.7969 0 L-0.1562 0 L-0.2812 -0.3281 Q1.2188 -1.9375 2.6719 -3.2969 L2.0156 -4.8125 Q1.8125 -5.2812 1.6953 -5.5234 Q1.5781 -5.7656 1.4609 -5.8984 Q1.3438 -6.0312 1.1953 -6.1094 Q1.0469 -6.1875 0.7812 -6.2031 L0.8594 -6.5312 L2.5625 -6.5312 L3.4688 -3.9531 Q3.7969 -4.2656 4.1016 -4.5938 Q4.4062 -4.9219 4.5312 -5.1172 Q4.6562 -5.3125 4.7031 -5.4609 Q4.75 -5.6094 4.75 -5.7656 Q4.75 -6.1406 4.3125 -6.2031 L4.375 -6.5312 L6.3281 -6.5312 L6.4688 -6.2031 Z" stroke="none"/></g><g text-rendering="optimizeLegibility" transform="translate(369.9531,29.8034)" color-rendering="optimizeQuality" color-interpolation="linearRGB" image-rendering="optimizeQuality"><path d="M7.0781 4.2188 Q5.5625 4.2188 4.6797 3.8281 Q3.7969 3.4375 3.4141 2.6641 Q3.0312 1.8906 3.0312 0.5781 L3.0312 -2.25 Q3.0312 -3.1094 2.8125 -3.5938 Q2.5938 -4.0781 2.1562 -4.2734 Q1.7188 -4.4688 0.9219 -4.4688 L0.9219 -5.2812 Q1.7031 -5.2812 2.1484 -5.4766 Q2.5938 -5.6719 2.8125 -6.1484 Q3.0312 -6.625 3.0312 -7.5 L3.0312 -10.3281 Q3.0312 -11.625 3.4141 -12.4062 Q3.7969 -13.1875 4.6797 -13.5781 Q5.5625 -13.9688 7.0781 -13.9688 L7.3281 -13.9688 L7.3281 -13.1719 Q6.5469 -13.1719 6.1641 -13.0938 Q5.7812 -13.0156 5.5391 -12.8438 Q5.2969 -12.6719 5.1406 -12.4141 Q4.9844 -12.1562 4.8984 -11.6875 Q4.8125 -11.2188 4.8125 -10.4375 L4.8125 -8.5469 Q4.8125 -7.5625 4.6406 -6.8984 Q4.4688 -6.2344 4.0312 -5.7578 Q3.5938 -5.2812 2.8281 -4.9688 L2.8281 -4.7812 Q3.5781 -4.4844 4.0312 -3.9844 Q4.4844 -3.4844 4.6484 -2.8203 Q4.8125 -2.1562 4.8125 -1.2031 L4.8125 0.6875 Q4.8125 1.4688 4.8984 1.9375 Q4.9844 2.4062 5.1406 2.6719 Q5.2969 2.9375 5.5391 3.1016 Q5.7812 3.2656 6.1641 3.3438 Q6.5469 3.4219 7.3281 3.4219 L7.3281 4.2188 L7.0781 4.2188 Z" stroke="none"/></g><g text-rendering="optimizeLegibility" transform="translate(379.2812,29.8034)" color-rendering="optimizeQuality" color-interpolation="linearRGB" image-rendering="optimizeQuality"><path d="M13.9531 -13.3281 L13.8438 -12.8594 Q13.4688 -12.7812 13.3047 -12.6797 Q13.1406 -12.5781 13.0078 -12.3828 Q12.875 -12.1875 12.75 -11.7734 Q12.625 -11.3594 12.4062 -10.4219 L10.125 0 L8.7969 0 L5.9375 -8.375 Q5.4219 -9.8906 5.0312 -11.375 L4.9062 -11.375 Q4.8438 -10.875 4.5781 -9.4766 Q4.3125 -8.0781 4.0312 -6.7344 L3.1719 -2.8438 Q3.0781 -2.4375 3.0156 -2.0547 Q2.9531 -1.6719 2.9531 -1.3125 Q2.9531 -0.875 3.1797 -0.6953 Q3.4062 -0.5156 3.9219 -0.4844 L3.8125 0 L0.3906 0 L0.5 -0.4844 Q0.875 -0.5312 1.0547 -0.6641 Q1.2344 -0.7969 1.3672 -1.0312 Q1.5 -1.2656 1.6016 -1.6016 Q1.7031 -1.9375 1.9219 -2.9062 L3.5781 -10.4375 Q3.6875 -10.8438 3.7422 -11.2266 Q3.7969 -11.6094 3.7969 -12 Q3.7969 -12.4688 3.5625 -12.6484 Q3.3281 -12.8281 2.8438 -12.8594 L2.9531 -13.3281 L6.0625 -13.3281 L8.6406 -5.7188 Q9.2031 -4.0781 9.5 -2.9531 L9.6094 -2.9531 Q9.6875 -3.5469 9.9688 -4.9297 Q10.25 -6.3125 10.4844 -7.3594 L11.1562 -10.4375 Q11.2344 -10.75 11.3047 -11.1875 Q11.375 -11.625 11.375 -12 Q11.375 -12.4688 11.1406 -12.6484 Q10.9062 -12.8281 10.4219 -12.8594 L10.5312 -13.3281 L13.9531 -13.3281 Z" stroke="none"/></g><g text-rendering="optimizeLegibility" transform="translate(393.6875,34.4675)" color-rendering="optimizeQuality" color-interpolation="linearRGB" image-rendering="optimizeQuality"><path d="M4.375 -9.3281 L4.2969 -9 Q4 -8.9531 3.8281 -8.7969 Q3.6562 -8.6406 3.6562 -8.3438 Q3.6562 -7.9062 3.8906 -7.25 L4.4531 -5.5938 L5.9062 -7.4375 Q6.0156 -7.5781 6.1172 -7.7188 Q6.2188 -7.8594 6.2969 -7.9922 Q6.375 -8.125 6.4141 -8.2188 Q6.4531 -8.3125 6.4688 -8.3906 Q6.4844 -8.4688 6.4844 -8.5312 Q6.4844 -8.7188 6.375 -8.8438 Q6.2656 -8.9688 6 -9 L6.0781 -9.3281 L8.625 -9.3281 L8.5469 -9 Q8.3438 -8.9375 8.1641 -8.7969 Q7.9844 -8.6562 7.7344 -8.3828 Q7.4844 -8.1094 6.7969 -7.3125 L4.7656 -4.875 L5.7656 -2.0938 Q5.9844 -1.4688 6.125 -1.1562 Q6.2812 -0.8125 6.3906 -0.6562 Q6.4688 -0.5312 6.5625 -0.4688 Q6.6719 -0.4062 6.8906 -0.3281 L6.8281 0 L4.0625 0 L4.125 -0.3281 Q4.4375 -0.3906 4.6094 -0.5547 Q4.7812 -0.7188 4.7812 -0.9844 Q4.7812 -1.3906 4.6094 -1.875 L3.9062 -3.9688 L2.3438 -2.0156 Q2 -1.5781 1.8438 -1.3047 Q1.6875 -1.0312 1.6875 -0.8281 Q1.6875 -0.6562 1.7266 -0.5625 Q1.7656 -0.4688 1.875 -0.4141 Q1.9844 -0.3594 2.1719 -0.3281 L2.0938 0 L-0.4531 0 L-0.3906 -0.3281 Q-0.25 -0.3906 -0.1406 -0.4453 Q-0.0312 -0.5 0.0938 -0.6094 Q0.2188 -0.7188 0.4375 -0.9531 Q0.6562 -1.1875 0.9219 -1.5156 L3.5938 -4.6875 L2.5781 -7.5 Q2.4219 -7.9062 2.3047 -8.1875 Q2.1875 -8.4688 2.0781 -8.6328 Q1.9688 -8.7969 1.8438 -8.8828 Q1.7188 -8.9688 1.5312 -9 L1.6094 -9.3281 L4.375 -9.3281 Z" stroke="none"/></g><g text-rendering="optimizeLegibility" transform="translate(403.8906,29.8034)" color-rendering="optimizeQuality" color-interpolation="linearRGB" image-rendering="optimizeQuality"><path d="M0.6719 -13.9688 Q2.1875 -13.9688 3.0703 -13.5781 Q3.9531 -13.1875 4.3281 -12.4062 Q4.7031 -11.625 4.7031 -10.3281 L4.7031 -7.5 Q4.7031 -6.625 4.9297 -6.1484 Q5.1562 -5.6719 5.5938 -5.4766 Q6.0312 -5.2812 6.8125 -5.2812 L6.8125 -4.4688 Q6.0312 -4.4688 5.5859 -4.2734 Q5.1406 -4.0781 4.9219 -3.5938 Q4.7031 -3.1094 4.7031 -2.25 L4.7031 0.5781 Q4.7031 1.8906 4.3281 2.6641 Q3.9531 3.4375 3.0703 3.8281 Q2.1875 4.2188 0.6719 4.2188 L0.4219 4.2188 L0.4219 3.4219 Q1.1875 3.4219 1.5781 3.3438 Q1.9688 3.2656 2.2031 3.1016 Q2.4375 2.9375 2.5938 2.6719 Q2.75 2.4062 2.8438 1.9375 Q2.9375 1.4688 2.9375 0.6875 L2.9375 -1.2031 Q2.9375 -2.1875 3.1016 -2.8438 Q3.2656 -3.5 3.7109 -3.9844 Q4.1562 -4.4688 4.9062 -4.7812 L4.9062 -4.9688 Q4.1719 -5.2656 3.7188 -5.7656 Q3.2656 -6.2656 3.1016 -6.9297 Q2.9375 -7.5938 2.9375 -8.5469 L2.9375 -10.4375 Q2.9375 -11.2188 2.8438 -11.6875 Q2.75 -12.1562 2.5938 -12.4141 Q2.4375 -12.6719 2.2031 -12.8438 Q1.9688 -13.0156 1.5781 -13.0938 Q1.1875 -13.1719 0.4219 -13.1719 L0.4219 -13.9688 L0.6719 -13.9688 Z" stroke="none"/></g><g text-rendering="optimizeLegibility" transform="translate(413.4844,29.8034)" color-rendering="optimizeQuality" color-interpolation="linearRGB" image-rendering="optimizeQuality"><path d="M6.25 -5.0469 L6.25 -1.3438 L4.8125 -1.3438 L4.8125 -5.0469 L1.2188 -5.0469 L1.2188 -6.3906 L4.8125 -6.3906 L4.8125 -10.0938 L6.25 -10.0938 L6.25 -6.3906 L9.8594 -6.3906 L9.8594 -5.0469 L6.25 -5.0469 Z" stroke="none"/></g><g text-rendering="optimizeLegibility" transform="translate(425.3438,29.8034)" color-rendering="optimizeQuality" color-interpolation="linearRGB" image-rendering="optimizeQuality"><path d="M9.375 -8.1094 L5.9219 -8.1094 L4.7031 -2.5156 Q4.5938 -1.9844 4.5938 -1.7344 Q4.5938 -0.875 5.4375 -0.875 Q6.1562 -0.875 6.9531 -1.4375 L7.2812 -0.875 Q6 0.1562 4.7031 0.1562 Q2.9531 0.1562 2.9531 -1.4375 Q2.9531 -1.9531 3.0781 -2.4062 L4.3438 -8.1094 L3.7188 -8.1094 Q2.375 -8.1094 1.1875 -6.9062 L0.6875 -7.4219 Q2.1562 -9.3438 4.1719 -9.3438 L9.625 -9.3438 L9.375 -8.1094 Z" stroke="none"/></g><g text-rendering="optimizeLegibility" transform="translate(436.6875,31.7253)" color-rendering="optimizeQuality" color-interpolation="linearRGB" image-rendering="optimizeQuality"><path d="M1.2656 -5.0469 Q1.2031 -5.5625 1.1406 -5.7656 Q1.0781 -5.9688 0.9375 -6.0781 Q0.7969 -6.1875 0.5 -6.2031 L0.5625 -6.5312 L2.3281 -6.5312 L2.8438 -1.0938 Q5.1562 -4.2656 5.1562 -5.625 Q5.1562 -5.9531 5.0156 -6.0703 Q4.875 -6.1875 4.5469 -6.2031 L4.625 -6.5312 L6.3906 -6.5312 L6.5625 -6.1875 Q6.2031 -5.25 5.6406 -4.2266 Q5.0781 -3.2031 4.2656 -1.9922 Q3.4531 -0.7812 2.4531 0.5156 Q1.6875 1.5312 1.1562 2.0312 Q0.7656 2.4219 0.4219 2.625 Q0.0781 2.8281 -0.2344 2.9141 Q-0.5469 3 -0.9062 3 Q-1.0938 3 -1.3281 2.9609 Q-1.5625 2.9219 -1.7188 2.8594 L-1.4219 1.5938 L-0.8906 1.5938 Q-0.8906 1.8125 -0.7891 1.9531 Q-0.6875 2.0938 -0.4844 2.0938 Q-0.2656 2.0938 -0.1094 2.0469 Q0.0469 2 0.2188 1.8984 Q0.3906 1.7969 0.6406 1.5703 Q0.8906 1.3438 1.2109 0.9766 Q1.5312 0.6094 1.9219 0.0781 L1.2656 -5.0469 Z" stroke="none"/></g><g text-rendering="optimizeLegibility" transform="translate(444.3281,29.8034)" color-rendering="optimizeQuality" color-interpolation="linearRGB" image-rendering="optimizeQuality"><path d="M7.0781 4.2188 Q5.5625 4.2188 4.6797 3.8281 Q3.7969 3.4375 3.4141 2.6641 Q3.0312 1.8906 3.0312 0.5781 L3.0312 -2.25 Q3.0312 -3.1094 2.8125 -3.5938 Q2.5938 -4.0781 2.1562 -4.2734 Q1.7188 -4.4688 0.9219 -4.4688 L0.9219 -5.2812 Q1.7031 -5.2812 2.1484 -5.4766 Q2.5938 -5.6719 2.8125 -6.1484 Q3.0312 -6.625 3.0312 -7.5 L3.0312 -10.3281 Q3.0312 -11.625 3.4141 -12.4062 Q3.7969 -13.1875 4.6797 -13.5781 Q5.5625 -13.9688 7.0781 -13.9688 L7.3281 -13.9688 L7.3281 -13.1719 Q6.5469 -13.1719 6.1641 -13.0938 Q5.7812 -13.0156 5.5391 -12.8438 Q5.2969 -12.6719 5.1406 -12.4141 Q4.9844 -12.1562 4.8984 -11.6875 Q4.8125 -11.2188 4.8125 -10.4375 L4.8125 -8.5469 Q4.8125 -7.5625 4.6406 -6.8984 Q4.4688 -6.2344 4.0312 -5.7578 Q3.5938 -5.2812 2.8281 -4.9688 L2.8281 -4.7812 Q3.5781 -4.4844 4.0312 -3.9844 Q4.4844 -3.4844 4.6484 -2.8203 Q4.8125 -2.1562 4.8125 -1.2031 L4.8125 0.6875 Q4.8125 1.4688 4.8984 1.9375 Q4.9844 2.4062 5.1406 2.6719 Q5.2969 2.9375 5.5391 3.1016 Q5.7812 3.2656 6.1641 3.3438 Q6.5469 3.4219 7.3281 3.4219 L7.3281 4.2188 L7.0781 4.2188 Z" stroke="none"/></g><g text-rendering="optimizeLegibility" transform="translate(453.6562,29.8034)" color-rendering="optimizeQuality" color-interpolation="linearRGB" image-rendering="optimizeQuality"><path d="M13.9531 -13.3281 L13.8438 -12.8594 Q13.4688 -12.7812 13.3047 -12.6797 Q13.1406 -12.5781 13.0078 -12.3828 Q12.875 -12.1875 12.75 -11.7734 Q12.625 -11.3594 12.4062 -10.4219 L10.125 0 L8.7969 0 L5.9375 -8.375 Q5.4219 -9.8906 5.0312 -11.375 L4.9062 -11.375 Q4.8438 -10.875 4.5781 -9.4766 Q4.3125 -8.0781 4.0312 -6.7344 L3.1719 -2.8438 Q3.0781 -2.4375 3.0156 -2.0547 Q2.9531 -1.6719 2.9531 -1.3125 Q2.9531 -0.875 3.1797 -0.6953 Q3.4062 -0.5156 3.9219 -0.4844 L3.8125 0 L0.3906 0 L0.5 -0.4844 Q0.875 -0.5312 1.0547 -0.6641 Q1.2344 -0.7969 1.3672 -1.0312 Q1.5 -1.2656 1.6016 -1.6016 Q1.7031 -1.9375 1.9219 -2.9062 L3.5781 -10.4375 Q3.6875 -10.8438 3.7422 -11.2266 Q3.7969 -11.6094 3.7969 -12 Q3.7969 -12.4688 3.5625 -12.6484 Q3.3281 -12.8281 2.8438 -12.8594 L2.9531 -13.3281 L6.0625 -13.3281 L8.6406 -5.7188 Q9.2031 -4.0781 9.5 -2.9531 L9.6094 -2.9531 Q9.6875 -3.5469 9.9688 -4.9297 Q10.25 -6.3125 10.4844 -7.3594 L11.1562 -10.4375 Q11.2344 -10.75 11.3047 -11.1875 Q11.375 -11.625 11.375 -12 Q11.375 -12.4688 11.1406 -12.6484 Q10.9062 -12.8281 10.4219 -12.8594 L10.5312 -13.3281 L13.9531 -13.3281 Z" stroke="none"/></g><g text-rendering="optimizeLegibility" transform="translate(467.6094,34.4675)" color-rendering="optimizeQuality" color-interpolation="linearRGB" image-rendering="optimizeQuality"><path d="M4.0156 -9.3281 L3.9375 -9 Q3.6562 -8.9688 3.5 -8.8281 Q3.3438 -8.6875 3.3438 -8.3906 Q3.3438 -7.9844 3.5469 -7.2969 L4.2656 -4.7188 L5.9531 -6.9688 Q6.3281 -7.4688 6.4922 -7.7578 Q6.6562 -8.0469 6.7344 -8.2656 Q6.7812 -8.4219 6.7812 -8.5781 Q6.7812 -8.7656 6.6484 -8.8672 Q6.5156 -8.9688 6.2812 -9 L6.3438 -9.3281 L8.9219 -9.3281 L8.8438 -9 Q8.6719 -8.9688 8.5547 -8.8984 Q8.4375 -8.8281 8.2812 -8.6875 Q8.125 -8.5469 7.8672 -8.2266 Q7.6094 -7.9062 7.1875 -7.375 L4.5312 -3.9219 L4.1094 -1.9844 Q4.0469 -1.7188 4.0234 -1.5625 Q4 -1.4062 3.9844 -1.2344 Q3.9688 -1.0625 3.9688 -0.9219 Q3.9688 -0.7188 4.0391 -0.5938 Q4.1094 -0.4688 4.2422 -0.4141 Q4.375 -0.3594 4.7031 -0.3281 L4.6406 0 L1.75 0 L1.8281 -0.3281 Q2.1094 -0.375 2.2344 -0.4453 Q2.3594 -0.5156 2.4609 -0.6562 Q2.5625 -0.7969 2.6641 -1.1094 Q2.7656 -1.4219 2.9062 -2.0312 L3.2969 -3.9219 L2.3125 -7.375 Q2.0781 -8.1719 1.9531 -8.4531 Q1.8281 -8.7344 1.6797 -8.8516 Q1.5312 -8.9688 1.2969 -9 L1.375 -9.3281 L4.0156 -9.3281 Z" stroke="none"/></g><g text-rendering="optimizeLegibility" transform="translate(478.1094,29.8034)" color-rendering="optimizeQuality" color-interpolation="linearRGB" image-rendering="optimizeQuality"><path d="M0.6719 -13.9688 Q2.1875 -13.9688 3.0703 -13.5781 Q3.9531 -13.1875 4.3281 -12.4062 Q4.7031 -11.625 4.7031 -10.3281 L4.7031 -7.5 Q4.7031 -6.625 4.9297 -6.1484 Q5.1562 -5.6719 5.5938 -5.4766 Q6.0312 -5.2812 6.8125 -5.2812 L6.8125 -4.4688 Q6.0312 -4.4688 5.5859 -4.2734 Q5.1406 -4.0781 4.9219 -3.5938 Q4.7031 -3.1094 4.7031 -2.25 L4.7031 0.5781 Q4.7031 1.8906 4.3281 2.6641 Q3.9531 3.4375 3.0703 3.8281 Q2.1875 4.2188 0.6719 4.2188 L0.4219 4.2188 L0.4219 3.4219 Q1.1875 3.4219 1.5781 3.3438 Q1.9688 3.2656 2.2031 3.1016 Q2.4375 2.9375 2.5938 2.6719 Q2.75 2.4062 2.8438 1.9375 Q2.9375 1.4688 2.9375 0.6875 L2.9375 -1.2031 Q2.9375 -2.1875 3.1016 -2.8438 Q3.2656 -3.5 3.7109 -3.9844 Q4.1562 -4.4688 4.9062 -4.7812 L4.9062 -4.9688 Q4.1719 -5.2656 3.7188 -5.7656 Q3.2656 -6.2656 3.1016 -6.9297 Q2.9375 -7.5938 2.9375 -8.5469 L2.9375 -10.4375 Q2.9375 -11.2188 2.8438 -11.6875 Q2.75 -12.1562 2.5938 -12.4141 Q2.4375 -12.6719 2.2031 -12.8438 Q1.9688 -13.0156 1.5781 -13.0938 Q1.1875 -13.1719 0.4219 -13.1719 L0.4219 -13.9688 L0.6719 -13.9688 Z" stroke="none"/></g><g text-rendering="optimizeLegibility" transform="translate(487.7031,29.8034)" color-rendering="optimizeQuality" color-interpolation="linearRGB" image-rendering="optimizeQuality"><path d="M6.25 -5.0469 L6.25 -1.3438 L4.8125 -1.3438 L4.8125 -5.0469 L1.2188 -5.0469 L1.2188 -6.3906 L4.8125 -6.3906 L4.8125 -10.0938 L6.25 -10.0938 L6.25 -6.3906 L9.8594 -6.3906 L9.8594 -5.0469 L6.25 -5.0469 Z" stroke="none"/></g><g text-rendering="optimizeLegibility" transform="translate(499.5625,29.8034)" color-rendering="optimizeQuality" color-interpolation="linearRGB" image-rendering="optimizeQuality"><path d="M9.375 -8.1094 L5.9219 -8.1094 L4.7031 -2.5156 Q4.5938 -1.9844 4.5938 -1.7344 Q4.5938 -0.875 5.4375 -0.875 Q6.1562 -0.875 6.9531 -1.4375 L7.2812 -0.875 Q6 0.1562 4.7031 0.1562 Q2.9531 0.1562 2.9531 -1.4375 Q2.9531 -1.9531 3.0781 -2.4062 L4.3438 -8.1094 L3.7188 -8.1094 Q2.375 -8.1094 1.1875 -6.9062 L0.6875 -7.4219 Q2.1562 -9.3438 4.1719 -9.3438 L9.625 -9.3438 L9.375 -8.1094 Z" stroke="none"/></g><g text-rendering="optimizeLegibility" transform="translate(509.2344,33.2253)" color-rendering="optimizeQuality" color-interpolation="linearRGB" image-rendering="optimizeQuality"><path d="M5.4531 -1.9219 L5.0312 0 L0.0781 0 L-0.0469 -0.3281 L3.6875 -4.6406 Q4.4844 -5.5469 4.8594 -5.9375 L4.8125 -5.9844 L3.2188 -5.9844 Q2.8594 -5.9844 2.6953 -5.9375 Q2.5312 -5.8906 2.3672 -5.7656 Q2.2031 -5.6406 2.0156 -5.4062 Q1.8281 -5.1719 1.5938 -4.7344 L0.9844 -4.7344 L1.3906 -6.5312 L6.25 -6.5312 L6.375 -6.1875 L1.4688 -0.6094 L1.5156 -0.5469 L3.0625 -0.5469 Q3.4688 -0.5469 3.6875 -0.5938 Q3.9062 -0.6406 4.0703 -0.7656 Q4.2344 -0.8906 4.4062 -1.1406 Q4.5781 -1.3906 4.8438 -1.9219 L5.4531 -1.9219 Z" stroke="none"/></g><g text-rendering="optimizeLegibility" transform="translate(516.6875,29.8034)" color-rendering="optimizeQuality" color-interpolation="linearRGB" image-rendering="optimizeQuality"><path d="M7.0781 4.2188 Q5.5625 4.2188 4.6797 3.8281 Q3.7969 3.4375 3.4141 2.6641 Q3.0312 1.8906 3.0312 0.5781 L3.0312 -2.25 Q3.0312 -3.1094 2.8125 -3.5938 Q2.5938 -4.0781 2.1562 -4.2734 Q1.7188 -4.4688 0.9219 -4.4688 L0.9219 -5.2812 Q1.7031 -5.2812 2.1484 -5.4766 Q2.5938 -5.6719 2.8125 -6.1484 Q3.0312 -6.625 3.0312 -7.5 L3.0312 -10.3281 Q3.0312 -11.625 3.4141 -12.4062 Q3.7969 -13.1875 4.6797 -13.5781 Q5.5625 -13.9688 7.0781 -13.9688 L7.3281 -13.9688 L7.3281 -13.1719 Q6.5469 -13.1719 6.1641 -13.0938 Q5.7812 -13.0156 5.5391 -12.8438 Q5.2969 -12.6719 5.1406 -12.4141 Q4.9844 -12.1562 4.8984 -11.6875 Q4.8125 -11.2188 4.8125 -10.4375 L4.8125 -8.5469 Q4.8125 -7.5625 4.6406 -6.8984 Q4.4688 -6.2344 4.0312 -5.7578 Q3.5938 -5.2812 2.8281 -4.9688 L2.8281 -4.7812 Q3.5781 -4.4844 4.0312 -3.9844 Q4.4844 -3.4844 4.6484 -2.8203 Q4.8125 -2.1562 4.8125 -1.2031 L4.8125 0.6875 Q4.8125 1.4688 4.8984 1.9375 Q4.9844 2.4062 5.1406 2.6719 Q5.2969 2.9375 5.5391 3.1016 Q5.7812 3.2656 6.1641 3.3438 Q6.5469 3.4219 7.3281 3.4219 L7.3281 4.2188 L7.0781 4.2188 Z" stroke="none"/></g><g text-rendering="optimizeLegibility" transform="translate(526.0156,29.8034)" color-rendering="optimizeQuality" color-interpolation="linearRGB" image-rendering="optimizeQuality"><path d="M13.9531 -13.3281 L13.8438 -12.8594 Q13.4688 -12.7812 13.3047 -12.6797 Q13.1406 -12.5781 13.0078 -12.3828 Q12.875 -12.1875 12.75 -11.7734 Q12.625 -11.3594 12.4062 -10.4219 L10.125 0 L8.7969 0 L5.9375 -8.375 Q5.4219 -9.8906 5.0312 -11.375 L4.9062 -11.375 Q4.8438 -10.875 4.5781 -9.4766 Q4.3125 -8.0781 4.0312 -6.7344 L3.1719 -2.8438 Q3.0781 -2.4375 3.0156 -2.0547 Q2.9531 -1.6719 2.9531 -1.3125 Q2.9531 -0.875 3.1797 -0.6953 Q3.4062 -0.5156 3.9219 -0.4844 L3.8125 0 L0.3906 0 L0.5 -0.4844 Q0.875 -0.5312 1.0547 -0.6641 Q1.2344 -0.7969 1.3672 -1.0312 Q1.5 -1.2656 1.6016 -1.6016 Q1.7031 -1.9375 1.9219 -2.9062 L3.5781 -10.4375 Q3.6875 -10.8438 3.7422 -11.2266 Q3.7969 -11.6094 3.7969 -12 Q3.7969 -12.4688 3.5625 -12.6484 Q3.3281 -12.8281 2.8438 -12.8594 L2.9531 -13.3281 L6.0625 -13.3281 L8.6406 -5.7188 Q9.2031 -4.0781 9.5 -2.9531 L9.6094 -2.9531 Q9.6875 -3.5469 9.9688 -4.9297 Q10.25 -6.3125 10.4844 -7.3594 L11.1562 -10.4375 Q11.2344 -10.75 11.3047 -11.1875 Q11.375 -11.625 11.375 -12 Q11.375 -12.4688 11.1406 -12.6484 Q10.9062 -12.8281 10.4219 -12.8594 L10.5312 -13.3281 L13.9531 -13.3281 Z" stroke="none"/></g><g text-rendering="optimizeLegibility" transform="translate(540.0781,34.4675)" color-rendering="optimizeQuality" color-interpolation="linearRGB" image-rendering="optimizeQuality"><path d="M1.625 -0.625 L3.8125 -0.625 Q4.1094 -0.625 4.2969 -0.6719 Q4.4844 -0.7188 4.6406 -0.7969 Q4.7969 -0.875 4.9219 -1 Q5.0469 -1.125 5.1797 -1.2969 Q5.3125 -1.4688 5.4766 -1.75 Q5.6406 -2.0312 5.8281 -2.4688 L6.4844 -2.4688 L5.9688 0 L-0.1094 0 L-0.0312 -0.3281 L6.1719 -8.7031 L4.0781 -8.7031 Q3.7812 -8.7031 3.6172 -8.6719 Q3.4531 -8.6406 3.3203 -8.5781 Q3.1875 -8.5156 3.0859 -8.4297 Q2.9844 -8.3438 2.8438 -8.1719 Q2.7031 -8 2.5312 -7.7344 Q2.3594 -7.4688 2.1406 -7.0156 L1.4844 -7.0156 L2 -9.3281 L7.9219 -9.3281 L7.8438 -9 L1.625 -0.625 Z" stroke="none"/></g><g text-rendering="optimizeLegibility" transform="translate(549.5781,29.8034)" color-rendering="optimizeQuality" color-interpolation="linearRGB" image-rendering="optimizeQuality"><path d="M0.6719 -13.9688 Q2.1875 -13.9688 3.0703 -13.5781 Q3.9531 -13.1875 4.3281 -12.4062 Q4.7031 -11.625 4.7031 -10.3281 L4.7031 -7.5 Q4.7031 -6.625 4.9297 -6.1484 Q5.1562 -5.6719 5.5938 -5.4766 Q6.0312 -5.2812 6.8125 -5.2812 L6.8125 -4.4688 Q6.0312 -4.4688 5.5859 -4.2734 Q5.1406 -4.0781 4.9219 -3.5938 Q4.7031 -3.1094 4.7031 -2.25 L4.7031 0.5781 Q4.7031 1.8906 4.3281 2.6641 Q3.9531 3.4375 3.0703 3.8281 Q2.1875 4.2188 0.6719 4.2188 L0.4219 4.2188 L0.4219 3.4219 Q1.1875 3.4219 1.5781 3.3438 Q1.9688 3.2656 2.2031 3.1016 Q2.4375 2.9375 2.5938 2.6719 Q2.75 2.4062 2.8438 1.9375 Q2.9375 1.4688 2.9375 0.6875 L2.9375 -1.2031 Q2.9375 -2.1875 3.1016 -2.8438 Q3.2656 -3.5 3.7109 -3.9844 Q4.1562 -4.4688 4.9062 -4.7812 L4.9062 -4.9688 Q4.1719 -5.2656 3.7188 -5.7656 Q3.2656 -6.2656 3.1016 -6.9297 Q2.9375 -7.5938 2.9375 -8.5469 L2.9375 -10.4375 Q2.9375 -11.2188 2.8438 -11.6875 Q2.75 -12.1562 2.5938 -12.4141 Q2.4375 -12.6719 2.2031 -12.8438 Q1.9688 -13.0156 1.5781 -13.0938 Q1.1875 -13.1719 0.4219 -13.1719 L0.4219 -13.9688 L0.6719 -13.9688 Z" stroke="none"/></g><g text-rendering="optimizeLegibility" transform="translate(559.9688,29.8034)" color-rendering="optimizeQuality" color-interpolation="linearRGB" image-rendering="optimizeQuality"><path d="M0.4219 -14.0156 Q2.0781 -14.0156 3.1328 -13.5156 Q4.1875 -13.0156 4.7734 -12 Q5.3594 -10.9844 5.6172 -9.3516 Q5.875 -7.7188 5.875 -4.9219 Q5.875 -2.1562 5.6172 -0.5078 Q5.3594 1.1406 4.7734 2.1797 Q4.1875 3.2188 3.1328 3.7344 Q2.0781 4.25 0.4219 4.25 L0.4219 3.4531 Q1.1094 3.4531 1.625 3.3281 Q2.2344 3.1875 2.6406 2.7969 Q3.1094 2.375 3.4062 1.6094 Q3.75 0.7031 3.9219 -0.7812 Q4.0938 -2.3594 4.0938 -4.8438 Q4.0938 -7.0469 3.9453 -8.5859 Q3.7969 -10.125 3.4531 -11.0938 Q3.1875 -11.9219 2.7812 -12.375 Q2.4062 -12.7812 1.9219 -12.9844 Q1.3438 -13.2188 0.4219 -13.2188 L0.4219 -14.0156 Z" stroke="none"/></g><g text-rendering="optimizeLegibility" transform="translate(569.4219,29.8034)" color-rendering="optimizeQuality" color-interpolation="linearRGB" image-rendering="optimizeQuality"><path d="M0.4219 -14.0156 Q2.0781 -14.0156 3.1328 -13.5156 Q4.1875 -13.0156 4.7734 -12 Q5.3594 -10.9844 5.6172 -9.3516 Q5.875 -7.7188 5.875 -4.9219 Q5.875 -2.1562 5.6172 -0.5078 Q5.3594 1.1406 4.7734 2.1797 Q4.1875 3.2188 3.1328 3.7344 Q2.0781 4.25 0.4219 4.25 L0.4219 3.4531 Q1.1094 3.4531 1.625 3.3281 Q2.2344 3.1875 2.6406 2.7969 Q3.1094 2.375 3.4062 1.6094 Q3.75 0.7031 3.9219 -0.7812 Q4.0938 -2.3594 4.0938 -4.8438 Q4.0938 -7.0469 3.9453 -8.5859 Q3.7969 -10.125 3.4531 -11.0938 Q3.1875 -11.9219 2.7812 -12.375 Q2.4062 -12.7812 1.9219 -12.9844 Q1.3438 -13.2188 0.4219 -13.2188 L0.4219 -14.0156 Z" stroke="none"/></g><g text-rendering="optimizeLegibility" transform="translate(580.2969,29.8034)" color-rendering="optimizeQuality" color-interpolation="linearRGB" image-rendering="optimizeQuality"><path d="M8.5 -11.2188 Q8.5781 -11.5312 8.6328 -11.9219 Q8.6875 -12.3125 8.6875 -12.6094 Q8.6875 -12.9062 8.5859 -13.0547 Q8.4844 -13.2031 8.2812 -13.2734 Q8.0781 -13.3438 7.5625 -13.375 L7.6719 -13.875 L10.125 -13.9688 L10.7031 -13.9688 L8.1719 -2.7188 Q8.0312 -2.0938 7.9844 -1.7969 Q7.9375 -1.5 7.9375 -1.2969 Q7.9375 -0.8906 8.1641 -0.7109 Q8.3906 -0.5312 9.0312 -0.4844 L8.9375 0 L6.1406 0 L6.7656 -2.4531 L6.625 -2.4844 Q5.6875 -1.125 4.8516 -0.4922 Q4.0156 0.1406 3.0781 0.1406 Q2 0.1406 1.4141 -0.6641 Q0.8281 -1.4688 0.8281 -2.9375 Q0.8281 -3.875 1.0391 -4.8203 Q1.25 -5.7656 1.6875 -6.6094 Q2.125 -7.4531 2.7266 -8.0938 Q3.3281 -8.7344 4.125 -9.1172 Q4.9219 -9.5 5.8594 -9.5 Q6.4531 -9.5 6.9609 -9.3828 Q7.4688 -9.2656 7.9844 -8.9531 L8.5 -11.2188 ZM7.2812 -5.9531 Q7.4375 -6.6562 7.4375 -7.2812 Q7.4375 -8.0312 7.1094 -8.3828 Q6.7812 -8.7344 6.0312 -8.7344 Q5.625 -8.7344 5.2578 -8.6016 Q4.8906 -8.4688 4.5078 -8.1641 Q4.125 -7.8594 3.7734 -7.3594 Q3.4219 -6.8594 3.1406 -6.1484 Q2.8594 -5.4375 2.7031 -4.6172 Q2.5469 -3.7969 2.5469 -3.0312 Q2.5469 -2.0156 2.8281 -1.5078 Q3.1094 -1 3.7656 -1 Q4.0625 -1 4.3906 -1.1406 Q4.7188 -1.2812 5.1172 -1.6484 Q5.5156 -2.0156 6.0312 -2.7188 Q6.4844 -3.375 6.75 -4.0156 Q7.0156 -4.6562 7.2031 -5.5312 L7.2812 -5.9531 Z" stroke="none"/></g><g text-rendering="optimizeLegibility" transform="translate(591.9062,29.8034)" color-rendering="optimizeQuality" color-interpolation="linearRGB" image-rendering="optimizeQuality"><path d="M6.625 0 L6.7344 -0.4844 Q7.1719 -0.5156 7.4219 -0.7344 Q7.6719 -0.9531 7.7734 -1.3281 Q7.875 -1.7031 7.875 -2.3281 Q7.875 -2.7188 7.8438 -3.1719 L7.7812 -4.4219 L3.4844 -4.4219 L2.9375 -3.4688 Q2.5625 -2.7969 2.3828 -2.3125 Q2.2031 -1.8281 2.2031 -1.4531 Q2.2031 -0.6406 3.1875 -0.4844 L3.0938 0 L-0.9062 0 L-0.7969 -0.4844 Q-0.5 -0.5156 -0.2266 -0.7188 Q0.0469 -0.9219 0.3438 -1.3281 Q0.6406 -1.7344 1.1875 -2.6719 L7.4531 -13.4844 L8.9219 -13.4844 L9.625 -2.5938 Q9.6719 -1.8281 9.8047 -1.3906 Q9.9375 -0.9531 10.1562 -0.7422 Q10.375 -0.5312 10.7969 -0.4844 L10.6875 0 L6.625 0 ZM3.9219 -5.2812 L7.7344 -5.2812 L7.5625 -8.4219 Q7.5469 -9.0625 7.5234 -10.0312 Q7.5 -11 7.5 -11.4219 L7.3906 -11.4219 L3.9219 -5.2812 Z" stroke="none"/></g><g text-rendering="optimizeLegibility" transform="translate(207.8438,72.4909)" color-rendering="optimizeQuality" color-interpolation="linearRGB" image-rendering="optimizeQuality"><path d="M1.2188 -7.0625 L1.2188 -8.4219 L9.8594 -8.4219 L9.8594 -7.0625 L1.2188 -7.0625 ZM1.2188 -3.0156 L1.2188 -4.3594 L9.8594 -4.3594 L9.8594 -3.0156 L1.2188 -3.0156 Z" stroke="none"/></g><g text-rendering="optimizeLegibility" transform="translate(219.7031,72.4909)" color-rendering="optimizeQuality" color-interpolation="linearRGB" image-rendering="optimizeQuality"><path d="M3.5938 -0.2969 L3.5938 1.7656 Q3.5938 2.4062 3.6406 2.7188 Q3.6875 3.0312 3.7969 3.2109 Q3.9062 3.3906 4.1172 3.5078 Q4.3281 3.625 4.7969 3.7188 L4.7969 4.2031 L0.8125 4.2031 L0.8125 3.7188 Q1.1562 3.625 1.3828 3.5234 Q1.6094 3.4219 1.7266 3.2188 Q1.8438 3.0156 1.8828 2.6719 Q1.9219 2.3281 1.9219 1.7656 L1.9219 -6.6094 Q1.9219 -7.3125 1.8984 -7.6094 Q1.875 -7.9062 1.8203 -8.1016 Q1.7656 -8.2969 1.6484 -8.4297 Q1.5312 -8.5625 1.3438 -8.6484 Q1.1562 -8.7344 0.7188 -8.8125 L0.7188 -9.3438 L3.0156 -9.4219 L3.6094 -9.4219 L3.4844 -7.8281 L3.625 -7.7969 Q4.2344 -8.4062 4.5859 -8.6875 Q4.9375 -8.9688 5.3125 -9.1562 Q5.6875 -9.3438 6.0312 -9.4219 Q6.375 -9.5 6.7656 -9.5 Q8.375 -9.5 9.2422 -8.2891 Q10.1094 -7.0781 10.1094 -4.75 Q10.1094 -3.1406 9.6172 -2.0469 Q9.125 -0.9531 8.1953 -0.3984 Q7.2656 0.1562 5.9844 0.1562 Q5.25 0.1562 4.6641 0.0312 Q4.0781 -0.0938 3.5938 -0.2969 ZM3.5938 -3.5156 Q3.5938 -2.5781 3.7109 -2.0703 Q3.8281 -1.5625 4.125 -1.2422 Q4.4219 -0.9219 4.8281 -0.7656 Q5.2344 -0.6094 5.9062 -0.6094 Q7.0781 -0.6094 7.6719 -1.5938 Q8.2656 -2.5781 8.2656 -4.5 Q8.2656 -8.3281 6.0312 -8.3281 Q5.4844 -8.3281 5.0938 -8.1562 Q4.7031 -7.9844 4.3125 -7.6016 Q3.9219 -7.2188 3.7578 -6.8594 Q3.5938 -6.5 3.5938 -6.0938 L3.5938 -3.5156 ZM14.5781 -7.7188 L14.7188 -7.6875 Q15.2656 -8.3438 15.7188 -8.7188 Q16.1719 -9.0938 16.7031 -9.2969 Q17.2344 -9.5 17.9219 -9.5 Q18.4844 -9.5 18.9375 -9.4375 L18.9375 -7.2031 L17.8438 -7.2031 Q17.6094 -7.7188 17.3438 -7.9609 Q17.0781 -8.2031 16.6094 -8.2031 Q16.2656 -8.2031 15.9219 -8 Q15.5781 -7.7969 15.25 -7.4062 Q14.9219 -7.0156 14.8047 -6.6719 Q14.6875 -6.3281 14.6875 -5.8594 L14.6875 -2.4375 Q14.6875 -1.5469 14.7891 -1.2109 Q14.8906 -0.875 15.1406 -0.7188 Q15.3906 -0.5625 15.8906 -0.4844 L15.8906 0 L11.9531 0 L11.9531 -0.4844 Q12.3281 -0.5938 12.4922 -0.6797 Q12.6562 -0.7656 12.7734 -0.9219 Q12.8906 -1.0781 12.9453 -1.4062 Q13 -1.7344 13 -2.4062 L13 -6.6719 Q13 -7.2969 12.9844 -7.6797 Q12.9688 -8.0625 12.8516 -8.2891 Q12.7344 -8.5156 12.4922 -8.625 Q12.25 -8.7344 11.8125 -8.8125 L11.8125 -9.3281 L14.0938 -9.4219 L14.6875 -9.4219 L14.5781 -7.7188 ZM27.75 -1.6562 Q27.125 -1 26.6016 -0.6328 Q26.0781 -0.2656 25.4531 -0.0547 Q24.8281 0.1562 24.0781 0.1562 Q22.0625 0.1562 21.0391 -1.0469 Q20.0156 -2.25 20.0156 -4.6094 Q20.0156 -6.0625 20.5391 -7.1797 Q21.0625 -8.2969 22.0312 -8.8984 Q23 -9.5 24.25 -9.5 Q25.2344 -9.5 25.9297 -9.1875 Q26.625 -8.875 27.0391 -8.3359 Q27.4531 -7.7969 27.6875 -6.9688 Q27.9219 -6.1406 27.9531 -4.8125 L21.7969 -4.8125 L21.7969 -4.6406 Q21.7969 -3.4844 22.0547 -2.7031 Q22.3125 -1.9219 22.9062 -1.4766 Q23.5 -1.0312 24.4375 -1.0312 Q25.2344 -1.0312 25.875 -1.3281 Q26.5156 -1.625 27.1562 -2.2969 L27.75 -1.6562 ZM26.1094 -5.625 Q26.0469 -6.6875 25.8438 -7.3516 Q25.6406 -8.0156 25.2344 -8.375 Q24.8281 -8.7344 24.1562 -8.7344 Q23.1562 -8.7344 22.5547 -7.9297 Q21.9531 -7.125 21.8438 -5.625 L26.1094 -5.625 ZM36.4844 -7.2031 L35.5469 -7.2031 Q35.3438 -7.7812 35.0469 -8.1172 Q34.75 -8.4531 34.3828 -8.5938 Q34.0156 -8.7344 33.4688 -8.7344 Q32.6875 -8.7344 32.2266 -8.3672 Q31.7656 -8 31.7656 -7.3594 Q31.7656 -6.9219 31.9531 -6.625 Q32.1406 -6.3281 32.5312 -6.0781 Q32.9219 -5.8281 33.9062 -5.4062 Q34.9062 -4.9688 35.4453 -4.6094 Q35.9844 -4.25 36.2891 -3.7734 Q36.5938 -3.2969 36.5938 -2.625 Q36.5938 -1.8594 36.3359 -1.3281 Q36.0781 -0.7969 35.5938 -0.4688 Q35.1094 -0.1406 34.4531 0.0078 Q33.7969 0.1562 33.0156 0.1562 Q32.1875 0.1562 31.4219 0.0312 Q30.6562 -0.0938 29.9219 -0.2812 L29.9219 -2.3281 L30.875 -2.3281 Q31.1406 -1.4219 31.6562 -1.0156 Q32.1719 -0.6094 33.0781 -0.6094 Q33.4375 -0.6094 33.7734 -0.6875 Q34.1094 -0.7656 34.375 -0.9375 Q34.6406 -1.1094 34.7969 -1.3984 Q34.9531 -1.6875 34.9531 -2.125 Q34.9531 -2.625 34.7578 -2.9375 Q34.5625 -3.25 34.1484 -3.5078 Q33.7344 -3.7656 32.7031 -4.2031 Q31.8125 -4.5781 31.2734 -4.9297 Q30.7344 -5.2812 30.4297 -5.7578 Q30.125 -6.2344 30.125 -6.8906 Q30.125 -7.7031 30.5625 -8.2891 Q31 -8.875 31.8203 -9.1875 Q32.6406 -9.5 33.7344 -9.5 Q34.375 -9.5 34.9766 -9.4375 Q35.5781 -9.375 36.4844 -9.1875 L36.4844 -7.2031 ZM45.4844 -7.2031 L44.5469 -7.2031 Q44.3438 -7.7812 44.0469 -8.1172 Q43.75 -8.4531 43.3828 -8.5938 Q43.0156 -8.7344 42.4688 -8.7344 Q41.6875 -8.7344 41.2266 -8.3672 Q40.7656 -8 40.7656 -7.3594 Q40.7656 -6.9219 40.9531 -6.625 Q41.1406 -6.3281 41.5312 -6.0781 Q41.9219 -5.8281 42.9062 -5.4062 Q43.9062 -4.9688 44.4453 -4.6094 Q44.9844 -4.25 45.2891 -3.7734 Q45.5938 -3.2969 45.5938 -2.625 Q45.5938 -1.8594 45.3359 -1.3281 Q45.0781 -0.7969 44.5938 -0.4688 Q44.1094 -0.1406 43.4531 0.0078 Q42.7969 0.1562 42.0156 0.1562 Q41.1875 0.1562 40.4219 0.0312 Q39.6562 -0.0938 38.9219 -0.2812 L38.9219 -2.3281 L39.875 -2.3281 Q40.1406 -1.4219 40.6562 -1.0156 Q41.1719 -0.6094 42.0781 -0.6094 Q42.4375 -0.6094 42.7734 -0.6875 Q43.1094 -0.7656 43.375 -0.9375 Q43.6406 -1.1094 43.7969 -1.3984 Q43.9531 -1.6875 43.9531 -2.125 Q43.9531 -2.625 43.7578 -2.9375 Q43.5625 -3.25 43.1484 -3.5078 Q42.7344 -3.7656 41.7031 -4.2031 Q40.8125 -4.5781 40.2734 -4.9297 Q39.7344 -5.2812 39.4297 -5.7578 Q39.125 -6.2344 39.125 -6.8906 Q39.125 -7.7031 39.5625 -8.2891 Q40 -8.875 40.8203 -9.1875 Q41.6406 -9.5 42.7344 -9.5 Q43.375 -9.5 43.9766 -9.4375 Q44.5781 -9.375 45.4844 -9.1875 L45.4844 -7.2031 ZM47.7188 -9.3438 L50.5 -9.3438 L50.5 -4.3594 Q50.5 -3.2188 50.5859 -2.625 Q50.6719 -2.0312 50.8516 -1.7266 Q51.0312 -1.4219 51.3516 -1.2188 Q51.6719 -1.0156 52.2344 -1.0156 Q52.6094 -1.0156 52.9531 -1.1641 Q53.2969 -1.3125 53.7109 -1.6797 Q54.125 -2.0469 54.3047 -2.4062 Q54.4844 -2.7656 54.4844 -3.25 L54.4844 -6.9062 Q54.4844 -7.4688 54.4609 -7.75 Q54.4375 -8.0312 54.3672 -8.2031 Q54.2969 -8.375 54.2031 -8.4766 Q54.1094 -8.5781 53.9375 -8.6719 Q53.7656 -8.7656 53.3906 -8.8594 L53.3906 -9.3438 L56.1719 -9.3438 L56.1719 -2.6719 Q56.1719 -1.9219 56.2031 -1.5859 Q56.2344 -1.25 56.3281 -1.0547 Q56.4219 -0.8594 56.625 -0.7344 Q56.8281 -0.6094 57.3594 -0.5156 L57.3594 0 L55.125 0.0938 L54.5312 0.0938 L54.5938 -1.5 L54.4375 -1.5469 Q53.625 -0.6719 52.8906 -0.2578 Q52.1562 0.1562 51.4219 0.1562 Q50.5312 0.1562 49.9531 -0.1953 Q49.375 -0.5469 49.0938 -1.2422 Q48.8125 -1.9375 48.8125 -3.2188 L48.8125 -6.9062 Q48.8125 -7.7188 48.75 -8.0312 Q48.6875 -8.3438 48.5 -8.5234 Q48.3125 -8.7031 47.7188 -8.8594 L47.7188 -9.3438 ZM61.5781 -7.7188 L61.7188 -7.6875 Q62.2656 -8.3438 62.7188 -8.7188 Q63.1719 -9.0938 63.7031 -9.2969 Q64.2344 -9.5 64.9219 -9.5 Q65.4844 -9.5 65.9375 -9.4375 L65.9375 -7.2031 L64.8438 -7.2031 Q64.6094 -7.7188 64.3438 -7.9609 Q64.0781 -8.2031 63.6094 -8.2031 Q63.2656 -8.2031 62.9219 -8 Q62.5781 -7.7969 62.25 -7.4062 Q61.9219 -7.0156 61.8047 -6.6719 Q61.6875 -6.3281 61.6875 -5.8594 L61.6875 -2.4375 Q61.6875 -1.5469 61.7891 -1.2109 Q61.8906 -0.875 62.1406 -0.7188 Q62.3906 -0.5625 62.8906 -0.4844 L62.8906 0 L58.9531 0 L58.9531 -0.4844 Q59.3281 -0.5938 59.4922 -0.6797 Q59.6562 -0.7656 59.7734 -0.9219 Q59.8906 -1.0781 59.9453 -1.4062 Q60 -1.7344 60 -2.4062 L60 -6.6719 Q60 -7.2969 59.9844 -7.6797 Q59.9688 -8.0625 59.8516 -8.2891 Q59.7344 -8.5156 59.4922 -8.625 Q59.25 -8.7344 58.8125 -8.8125 L58.8125 -9.3281 L61.0938 -9.4219 L61.6875 -9.4219 L61.5781 -7.7188 ZM74.75 -1.6562 Q74.125 -1 73.6016 -0.6328 Q73.0781 -0.2656 72.4531 -0.0547 Q71.8281 0.1562 71.0781 0.1562 Q69.0625 0.1562 68.0391 -1.0469 Q67.0156 -2.25 67.0156 -4.6094 Q67.0156 -6.0625 67.5391 -7.1797 Q68.0625 -8.2969 69.0312 -8.8984 Q70 -9.5 71.25 -9.5 Q72.2344 -9.5 72.9297 -9.1875 Q73.625 -8.875 74.0391 -8.3359 Q74.4531 -7.7969 74.6875 -6.9688 Q74.9219 -6.1406 74.9531 -4.8125 L68.7969 -4.8125 L68.7969 -4.6406 Q68.7969 -3.4844 69.0547 -2.7031 Q69.3125 -1.9219 69.9062 -1.4766 Q70.5 -1.0312 71.4375 -1.0312 Q72.2344 -1.0312 72.875 -1.3281 Q73.5156 -1.625 74.1562 -2.2969 L74.75 -1.6562 ZM73.1094 -5.625 Q73.0469 -6.6875 72.8438 -7.3516 Q72.6406 -8.0156 72.2344 -8.375 Q71.8281 -8.7344 71.1562 -8.7344 Q70.1562 -8.7344 69.5547 -7.9297 Q68.9531 -7.125 68.8438 -5.625 L73.1094 -5.625 ZM83.5625 -2.4375 Q83.5625 -1.6094 83.6406 -1.2812 Q83.7188 -0.9531 83.9375 -0.7812 Q84.1562 -0.6094 84.6562 -0.4844 L84.6562 0 L80.7656 0 L80.7656 -0.4844 Q81.2656 -0.6094 81.4531 -0.7422 Q81.6406 -0.875 81.7266 -1.0703 Q81.8125 -1.2656 81.8438 -1.5938 Q81.875 -1.9219 81.875 -2.4375 L81.875 -10.6094 Q81.875 -11.5469 81.8594 -11.9219 Q81.8438 -12.2969 81.7812 -12.5547 Q81.7188 -12.8125 81.6094 -12.9609 Q81.5 -13.1094 81.3047 -13.1953 Q81.1094 -13.2812 80.6094 -13.375 L80.6094 -13.875 L82.9688 -13.9688 L83.5625 -13.9688 L83.5625 -2.4375 ZM90.2031 0.1562 Q88.1719 0.1562 87.1016 -1.0391 Q86.0312 -2.2344 86.0312 -4.5781 Q86.0312 -6.1875 86.5938 -7.3047 Q87.1562 -8.4219 88.1328 -8.9609 Q89.1094 -9.5 90.3594 -9.5 Q92.4375 -9.5 93.5156 -8.2891 Q94.5938 -7.0781 94.5938 -4.7969 Q94.5938 -3.1719 94.0547 -2.0625 Q93.5156 -0.9531 92.5312 -0.3984 Q91.5469 0.1562 90.2031 0.1562 ZM87.875 -4.7812 Q87.875 -2.7812 88.5156 -1.6953 Q89.1562 -0.6094 90.3438 -0.6094 Q91 -0.6094 91.4609 -0.9297 Q91.9219 -1.25 92.2031 -1.7891 Q92.4844 -2.3281 92.6172 -3.0312 Q92.75 -3.7344 92.75 -4.5156 Q92.75 -5.9531 92.4297 -6.8984 Q92.1094 -7.8438 91.5625 -8.2891 Q91.0156 -8.7344 90.3125 -8.7344 Q89.125 -8.7344 88.5 -7.7109 Q87.875 -6.6875 87.875 -4.7812 ZM102.5938 -1.3906 L102.4531 -1.4375 Q101.5938 -0.5625 100.8516 -0.2031 Q100.1094 0.1562 99.2656 0.1562 Q98.5156 0.1562 97.9531 -0.1328 Q97.3906 -0.4219 97.0859 -0.9453 Q96.7812 -1.4688 96.7812 -2.1562 Q96.7812 -3.5781 98.1953 -4.3516 Q99.6094 -5.125 102.4219 -5.25 L102.4219 -5.8906 Q102.4219 -6.9062 102.2266 -7.4922 Q102.0312 -8.0781 101.6172 -8.3516 Q101.2031 -8.625 100.5 -8.625 Q99.7344 -8.625 99.2656 -8.2266 Q98.7969 -7.8281 98.5625 -7.0156 L97.2969 -7.0156 L97.2969 -8.2969 Q98.2344 -8.7812 98.8594 -9.0078 Q99.4844 -9.2344 100.1094 -9.3672 Q100.7344 -9.5 101.375 -9.5 Q102.3438 -9.5 102.9297 -9.1953 Q103.5156 -8.8906 103.8047 -8.2578 Q104.0938 -7.625 104.0938 -6.3438 L104.0938 -2.9375 Q104.0938 -2.2188 104.1016 -1.9219 Q104.1094 -1.625 104.1641 -1.3672 Q104.2188 -1.1094 104.3125 -0.9609 Q104.4062 -0.8125 104.6016 -0.7031 Q104.7969 -0.5938 105.2188 -0.4844 L105.2188 0 L102.5469 0 L102.5938 -1.3906 ZM102.4219 -4.4531 Q100.4375 -4.4375 99.4531 -3.9297 Q98.4688 -3.4219 98.4688 -2.3906 Q98.4688 -1.8438 98.6953 -1.5156 Q98.9219 -1.1875 99.2656 -1.0703 Q99.6094 -0.9531 100.0781 -0.9531 Q100.7344 -0.9531 101.2812 -1.2734 Q101.8281 -1.5938 102.125 -2.0938 Q102.4219 -2.5938 102.4219 -3.0781 L102.4219 -4.4531 ZM113.5469 -10.6094 Q113.5469 -11.5469 113.5312 -11.9219 Q113.5156 -12.2969 113.4531 -12.5547 Q113.3906 -12.8125 113.2734 -12.9609 Q113.1562 -13.1094 112.9688 -13.1953 Q112.7812 -13.2812 112.2812 -13.375 L112.2812 -13.875 L114.6406 -13.9688 L115.2188 -13.9688 L115.2188 -2.6719 Q115.2188 -1.9062 115.25 -1.5781 Q115.2812 -1.25 115.375 -1.0547 Q115.4688 -0.8594 115.6797 -0.7344 Q115.8906 -0.6094 116.4219 -0.5156 L116.4219 0 L114.1094 0.0938 L113.5312 0.0938 L113.6406 -1.5 L113.5 -1.5469 Q112.8906 -0.8906 112.4375 -0.5625 Q111.9844 -0.2344 111.4688 -0.0391 Q110.9531 0.1562 110.3594 0.1562 Q108.7656 0.1562 107.8984 -1.0625 Q107.0312 -2.2812 107.0312 -4.5781 Q107.0312 -6.1719 107.5938 -7.2891 Q108.1562 -8.4062 109.1172 -8.9531 Q110.0781 -9.5 111.2812 -9.5 Q111.9219 -9.5 112.4531 -9.3984 Q112.9844 -9.2969 113.5469 -9.0625 L113.5469 -10.6094 ZM113.5469 -5.7969 Q113.5469 -6.5469 113.4766 -7.0078 Q113.4062 -7.4688 113.2422 -7.7812 Q113.0781 -8.0938 112.8047 -8.3125 Q112.5312 -8.5312 112.2031 -8.625 Q111.875 -8.7188 111.4219 -8.7188 Q110.1719 -8.7188 109.5156 -7.7188 Q108.8594 -6.7188 108.8594 -4.8438 Q108.8594 -2.9688 109.3984 -1.9922 Q109.9375 -1.0156 111.0312 -1.0156 Q111.4531 -1.0156 111.7422 -1.0859 Q112.0312 -1.1562 112.3047 -1.3203 Q112.5781 -1.4844 112.8594 -1.7656 Q113.1406 -2.0469 113.2734 -2.2812 Q113.4062 -2.5156 113.4766 -2.8203 Q113.5469 -3.125 113.5469 -3.6094 L113.5469 -5.7969 ZM125.1719 -9.3438 L125.1719 -8.8594 Q124.7188 -8.75 124.5312 -8.6562 Q124.3438 -8.5625 124.2578 -8.4062 Q124.1719 -8.25 124.1719 -7.9844 Q124.1719 -7.7188 124.2344 -7.4297 Q124.2969 -7.1406 124.4219 -6.7656 L126.125 -1.8125 L128.125 -6.5469 Q128.3125 -7.0156 128.3906 -7.3203 Q128.4688 -7.625 128.4688 -7.8906 Q128.4688 -8.2969 128.25 -8.5156 Q128.0312 -8.7344 127.4531 -8.8594 L127.4531 -9.3438 L131.0938 -9.3438 L131.0938 -8.8594 Q130.7188 -8.7812 130.5156 -8.6172 Q130.3125 -8.4531 130.1016 -8.1094 Q129.8906 -7.7656 129.6094 -7.1406 L126.3281 0.0938 L125.1719 0.0938 L122.5312 -7.2031 Q122.25 -7.9531 122.0859 -8.2266 Q121.9219 -8.5 121.7344 -8.6406 Q121.5469 -8.7812 121.1875 -8.8594 L121.1875 -9.3438 L125.1719 -9.3438 ZM139.75 -1.6562 Q139.125 -1 138.6016 -0.6328 Q138.0781 -0.2656 137.4531 -0.0547 Q136.8281 0.1562 136.0781 0.1562 Q134.0625 0.1562 133.0391 -1.0469 Q132.0156 -2.25 132.0156 -4.6094 Q132.0156 -6.0625 132.5391 -7.1797 Q133.0625 -8.2969 134.0312 -8.8984 Q135 -9.5 136.25 -9.5 Q137.2344 -9.5 137.9297 -9.1875 Q138.625 -8.875 139.0391 -8.3359 Q139.4531 -7.7969 139.6875 -6.9688 Q139.9219 -6.1406 139.9531 -4.8125 L133.7969 -4.8125 L133.7969 -4.6406 Q133.7969 -3.4844 134.0547 -2.7031 Q134.3125 -1.9219 134.9062 -1.4766 Q135.5 -1.0312 136.4375 -1.0312 Q137.2344 -1.0312 137.875 -1.3281 Q138.5156 -1.625 139.1562 -2.2969 L139.75 -1.6562 ZM138.1094 -5.625 Q138.0469 -6.6875 137.8438 -7.3516 Q137.6406 -8.0156 137.2344 -8.375 Q136.8281 -8.7344 136.1562 -8.7344 Q135.1562 -8.7344 134.5547 -7.9297 Q133.9531 -7.125 133.8438 -5.625 L138.1094 -5.625 ZM149.2188 -9.1094 L149.2188 -7.0781 L147.9844 -7.0781 Q147.8125 -7.7031 147.5703 -8.0703 Q147.3281 -8.4375 147.0078 -8.5859 Q146.6875 -8.7344 146.2031 -8.7344 Q145.5156 -8.7344 144.9922 -8.2969 Q144.4688 -7.8594 144.1641 -6.9609 Q143.8594 -6.0625 143.8594 -4.75 Q143.8594 -3.9219 143.9766 -3.2344 Q144.0938 -2.5469 144.375 -2.0625 Q144.6562 -1.5781 145.125 -1.3047 Q145.5938 -1.0312 146.2812 -1.0312 Q146.9531 -1.0312 147.5391 -1.2891 Q148.125 -1.5469 148.75 -2.2188 L149.2969 -1.5781 Q148.7969 -1.0312 148.4219 -0.7344 Q148.0469 -0.4375 147.6094 -0.2344 Q147.1719 -0.0312 146.75 0.0625 Q146.3281 0.1562 145.8281 0.1562 Q143.9844 0.1562 143.0078 -1.0703 Q142.0312 -2.2969 142.0312 -4.6094 Q142.0312 -6.0625 142.5781 -7.1797 Q143.125 -8.2969 144.1094 -8.8984 Q145.0938 -9.5 146.375 -9.5 Q147.1875 -9.5 147.8672 -9.4062 Q148.5469 -9.3125 149.2188 -9.1094 ZM150.3594 -8.8438 Q150.8438 -8.9219 151.1484 -9.1172 Q151.4531 -9.3125 151.625 -9.625 Q151.7969 -9.9375 151.8984 -10.3984 Q152 -10.8594 152.0938 -11.75 L153.4844 -11.75 L153.4844 -9.3438 L156.6406 -9.3438 L156.6406 -8.3438 L153.4844 -8.3438 L153.4844 -4 Q153.4844 -3.0625 153.5625 -2.5 Q153.6406 -1.9375 153.8594 -1.6172 Q154.0781 -1.2969 154.3516 -1.1641 Q154.625 -1.0312 155.0469 -1.0312 Q155.4375 -1.0312 155.7812 -1.1875 Q156.125 -1.3438 156.4531 -1.6562 L156.8906 -1.125 Q156.2031 -0.4531 155.5859 -0.1484 Q154.9688 0.1562 154.2969 0.1562 Q153.0312 0.1562 152.4219 -0.5938 Q151.8125 -1.3438 151.8125 -2.9375 L151.8125 -8.3438 L150.3594 -8.3438 L150.3594 -8.8438 ZM162.2031 0.1562 Q160.1719 0.1562 159.1016 -1.0391 Q158.0312 -2.2344 158.0312 -4.5781 Q158.0312 -6.1875 158.5938 -7.3047 Q159.1562 -8.4219 160.1328 -8.9609 Q161.1094 -9.5 162.3594 -9.5 Q164.4375 -9.5 165.5156 -8.2891 Q166.5938 -7.0781 166.5938 -4.7969 Q166.5938 -3.1719 166.0547 -2.0625 Q165.5156 -0.9531 164.5312 -0.3984 Q163.5469 0.1562 162.2031 0.1562 ZM159.875 -4.7812 Q159.875 -2.7812 160.5156 -1.6953 Q161.1562 -0.6094 162.3438 -0.6094 Q163 -0.6094 163.4609 -0.9297 Q163.9219 -1.25 164.2031 -1.7891 Q164.4844 -2.3281 164.6172 -3.0312 Q164.75 -3.7344 164.75 -4.5156 Q164.75 -5.9531 164.4297 -6.8984 Q164.1094 -7.8438 163.5625 -8.2891 Q163.0156 -8.7344 162.3125 -8.7344 Q161.125 -8.7344 160.5 -7.7109 Q159.875 -6.6875 159.875 -4.7812 ZM171.5781 -7.7188 L171.7188 -7.6875 Q172.2656 -8.3438 172.7188 -8.7188 Q173.1719 -9.0938 173.7031 -9.2969 Q174.2344 -9.5 174.9219 -9.5 Q175.4844 -9.5 175.9375 -9.4375 L175.9375 -7.2031 L174.8438 -7.2031 Q174.6094 -7.7188 174.3438 -7.9609 Q174.0781 -8.2031 173.6094 -8.2031 Q173.2656 -8.2031 172.9219 -8 Q172.5781 -7.7969 172.25 -7.4062 Q171.9219 -7.0156 171.8047 -6.6719 Q171.6875 -6.3281 171.6875 -5.8594 L171.6875 -2.4375 Q171.6875 -1.5469 171.7891 -1.2109 Q171.8906 -0.875 172.1406 -0.7188 Q172.3906 -0.5625 172.8906 -0.4844 L172.8906 0 L168.9531 0 L168.9531 -0.4844 Q169.3281 -0.5938 169.4922 -0.6797 Q169.6562 -0.7656 169.7734 -0.9219 Q169.8906 -1.0781 169.9453 -1.4062 Q170 -1.7344 170 -2.4062 L170 -6.6719 Q170 -7.2969 169.9844 -7.6797 Q169.9688 -8.0625 169.8516 -8.2891 Q169.7344 -8.5156 169.4922 -8.625 Q169.25 -8.7344 168.8125 -8.8125 L168.8125 -9.3281 L171.0938 -9.4219 L171.6875 -9.4219 L171.5781 -7.7188 Z" stroke="none"/></g></g></svg>