<?xml version="1.0" encoding="UTF-8" standalone="no"?><svg xmlns="http://www.w3.org/2000/svg" xmlns:xlink="http://www.w3.org/1999/xlink" stroke-dasharray="none" shape-rendering="auto" font-family="'Dialog'" width="115.812600" text-rendering="auto" fill-opacity="1" contentScriptType="text/ecmascript" color-interpolation="auto" color-rendering="auto" preserveAspectRatio="xMidYMid meet" font-size="12" fill="black" stroke="black" image-rendering="auto" stroke-miterlimit="10" zoomAndPan="magnify" version="1.0" stroke-linecap="square" stroke-linejoin="miter" contentStyleType="text/css" font-style="normal" height="50" stroke-width="1" stroke-dashoffset="0" font-weight="normal" stroke-opacity="1" y="-30.000000"><!--Converted from MathML using JEuclid--><defs id="genericDefs"/><g><g text-rendering="optimizeLegibility" transform="translate(0,20)" color-rendering="optimizeQuality" color-interpolation="linearRGB" image-rendering="optimizeQuality"><path d="M8.0938 -7.25 L7.2812 -7.25 Q7.125 -8.7188 5.4531 -8.7188 Q4.6406 -8.7188 4.0469 -8.2422 Q3.4531 -7.7656 3.4531 -7.0156 Q3.4531 -6.3125 3.9766 -5.9062 Q4.5 -5.5 5.4531 -5.5 L6.3125 -5.5 L6.125 -4.5625 L5.3438 -4.5625 Q4.1094 -4.5625 3.1953 -4 Q2.2812 -3.4375 2.2812 -2.4219 Q2.2812 -1.7188 2.8438 -1.3125 Q3.4062 -0.9062 4.2656 -0.9062 Q5.7344 -0.9062 7.2031 -1.8594 L7.6406 -1.2031 Q5.8438 0.1562 3.6094 0.1562 Q2.1406 0.1562 1.3125 -0.4766 Q0.4844 -1.1094 0.4844 -2.125 Q0.4844 -4.1562 3.375 -4.9688 L3.4062 -5.0625 Q1.7812 -5.5312 1.7812 -6.9219 Q1.7812 -8.1094 2.7422 -8.8047 Q3.7031 -9.5 5.4219 -9.5 Q7.0312 -9.5 8.4844 -8.9688 L8.0938 -7.25 Z" stroke="none"/></g><g text-rendering="optimizeLegibility" transform="translate(9.4844,23.0781)" color-rendering="optimizeQuality" color-interpolation="linearRGB" image-rendering="optimizeQuality"><path d="M3.8281 -9.2188 L3.5156 -7.8906 L2.2969 -7.8906 L2.625 -9.2188 L3.8281 -9.2188 ZM2.1406 -1.7031 Q2.0625 -1.3594 2.0469 -1.2031 Q2.0312 -1.0469 2.0312 -0.9375 Q2.0312 -0.7188 2.0938 -0.6094 Q2.1562 -0.5 2.3047 -0.4375 Q2.4531 -0.375 2.7812 -0.3281 L2.7188 0 L0.5938 0 L1.625 -4.6094 Q1.7188 -5 1.75 -5.2344 Q1.7812 -5.4688 1.7812 -5.6406 Q1.7812 -5.8281 1.7266 -5.9375 Q1.6719 -6.0469 1.5312 -6.1016 Q1.3906 -6.1562 1.0625 -6.1719 L1.1406 -6.5312 L2.7969 -6.5938 L3.2031 -6.5938 L2.1406 -1.7031 Z" stroke="none"/></g><g text-rendering="optimizeLegibility" transform="translate(15.1094,23.0781)" color-rendering="optimizeQuality" color-interpolation="linearRGB" image-rendering="optimizeQuality"><path d="M3.8438 -9.2188 L3.5312 -7.8906 L2.3281 -7.8906 L2.6406 -9.2188 L3.8438 -9.2188 ZM1.7969 0.1094 Q1.5781 1.1562 1.2031 1.7891 Q0.8281 2.4219 0.2188 2.7422 Q-0.3906 3.0625 -1.2188 3.0625 Q-1.5625 3.0625 -1.7969 2.9844 L-1.6406 2.3906 Q-1.5312 2.4219 -1.3984 2.4297 Q-1.2656 2.4375 -1.125 2.4375 Q-0.7969 2.4375 -0.5625 2.3438 Q-0.3281 2.25 -0.1328 2.0156 Q0.0625 1.7812 0.2266 1.375 Q0.3906 0.9688 0.5469 0.3125 L1.6406 -4.6094 Q1.7344 -4.9844 1.7734 -5.2266 Q1.8125 -5.4688 1.8125 -5.6406 Q1.8125 -5.8281 1.75 -5.9375 Q1.6875 -6.0469 1.5547 -6.1016 Q1.4219 -6.1562 1.0781 -6.1719 L1.1562 -6.5312 L2.8281 -6.5938 L3.2188 -6.5938 L1.7969 0.1094 Z" stroke="none"/></g><g text-rendering="optimizeLegibility" transform="translate(19.7344,20)" color-rendering="optimizeQuality" color-interpolation="linearRGB" image-rendering="optimizeQuality"><path d="M1.2188 -7.0625 L1.2188 -8.4219 L9.8594 -8.4219 L9.8594 -7.0625 L1.2188 -7.0625 ZM1.2188 -3.0156 L1.2188 -4.3594 L9.8594 -4.3594 L9.8594 -3.0156 L1.2188 -3.0156 Z" stroke="none"/></g><g text-rendering="optimizeLegibility" stroke-width="1.6667" color-interpolation="linearRGB" color-rendering="optimizeQuality" image-rendering="optimizeQuality"><line y2="12.78" fill="none" x1="33.2715" x2="110.7436" y1="12.78"/><path d="M4.75 -1.7812 Q4.75 -1.3906 4.7969 -1.1875 Q4.8438 -0.9844 4.9531 -0.8594 Q5.0625 -0.7344 5.2734 -0.6641 Q5.4844 -0.5938 5.8047 -0.5547 Q6.125 -0.5156 6.6562 -0.5 L6.6562 0 L1.6094 0 L1.6094 -0.5 Q2.3594 -0.5312 2.6875 -0.5938 Q3.0156 -0.6562 3.1875 -0.7656 Q3.3594 -0.875 3.4375 -1.0938 Q3.5156 -1.3125 3.5156 -1.7812 L3.5156 -7.3281 Q3.5156 -7.6094 3.4219 -7.7344 Q3.3281 -7.8594 3.1406 -7.8594 Q2.9219 -7.8594 2.5156 -7.6328 Q2.1094 -7.4062 1.5156 -7 L1.2188 -7.5312 L4.4219 -9.4375 L4.7969 -9.4375 Q4.75 -8.7812 4.75 -7.625 L4.75 -1.7812 Z" stroke-width="1" transform="translate(68.6794,10.2689)" stroke="none"/></g><g text-rendering="optimizeLegibility" transform="translate(33.2715,39.5346)" color-rendering="optimizeQuality" color-interpolation="linearRGB" image-rendering="optimizeQuality"><path d="M4.75 -1.7812 Q4.75 -1.3906 4.7969 -1.1875 Q4.8438 -0.9844 4.9531 -0.8594 Q5.0625 -0.7344 5.2734 -0.6641 Q5.4844 -0.5938 5.8047 -0.5547 Q6.125 -0.5156 6.6562 -0.5 L6.6562 0 L1.6094 0 L1.6094 -0.5 Q2.3594 -0.5312 2.6875 -0.5938 Q3.0156 -0.6562 3.1875 -0.7656 Q3.3594 -0.875 3.4375 -1.0938 Q3.5156 -1.3125 3.5156 -1.7812 L3.5156 -7.3281 Q3.5156 -7.6094 3.4219 -7.7344 Q3.3281 -7.8594 3.1406 -7.8594 Q2.9219 -7.8594 2.5156 -7.6328 Q2.1094 -7.4062 1.5156 -7 L1.2188 -7.5312 L4.4219 -9.4375 L4.7969 -9.4375 Q4.75 -8.7812 4.75 -7.625 L4.75 -1.7812 Z" stroke="none"/></g><g text-rendering="optimizeLegibility" transform="translate(39.084,39.5346)" color-rendering="optimizeQuality" color-interpolation="linearRGB" image-rendering="optimizeQuality"><path d="M4.375 -3.5312 L4.375 -0.9375 L3.375 -0.9375 L3.375 -3.5312 L0.8438 -3.5312 L0.8438 -4.4844 L3.375 -4.4844 L3.375 -7.0625 L4.375 -7.0625 L4.375 -4.4844 L6.9062 -4.4844 L6.9062 -3.5312 L4.375 -3.5312 Z" stroke="none"/></g><g text-rendering="optimizeLegibility" transform="translate(44.7559,42.5401) matrix(1,0,0,2.433,0,0)" color-rendering="optimizeQuality" color-interpolation="linearRGB" image-rendering="optimizeQuality"><path d="M5.0469 2.9688 Q3.8906 2.9688 3.1562 2.625 Q2.4219 2.2812 2.0078 1.5625 Q1.5938 0.8438 1.4141 -0.2969 Q1.2344 -1.4375 1.2344 -3.3906 Q1.2344 -5.3281 1.4141 -6.4844 Q1.5938 -7.6406 2 -8.3594 Q2.4062 -9.0781 3.1484 -9.4453 Q3.8906 -9.8125 5.0469 -9.8125 L5.0469 -9.25 Q4.5781 -9.25 4.2031 -9.1719 Q3.7812 -9.0781 3.5 -8.7969 Q3.1719 -8.5 2.9531 -7.9531 Q2.7188 -7.3281 2.6094 -6.2969 Q2.4844 -5.1875 2.4844 -3.4531 Q2.4844 -1.9062 2.5859 -0.8281 Q2.6875 0.25 2.9219 0.9375 Q3.125 1.5 3.4062 1.8281 Q3.6562 2.1094 4 2.25 Q4.4062 2.4062 5.0469 2.4062 L5.0469 2.9688 Z" stroke="none"/></g><g text-rendering="optimizeLegibility" stroke-width="1.1833" color-interpolation="linearRGB" color-rendering="optimizeQuality" image-rendering="optimizeQuality"><line y2="34.2146" fill="none" x1="50.994" x2="99.8221" y1="34.2146"/><path d="M3.4062 -0.8438 L3.3906 -0.8438 Q2.8906 0.0781 1.8438 0.0781 Q1.2188 0.0781 0.8281 -0.3203 Q0.4375 -0.7188 0.4375 -1.4531 Q0.4375 -2.3906 1.0156 -3.2422 Q1.5938 -4.0938 2.6562 -4.75 L2.8594 -4.4219 Q2.1719 -3.8906 1.7266 -3.0547 Q1.2812 -2.2188 1.2812 -1.4219 Q1.2812 -0.8438 1.5156 -0.5781 Q1.75 -0.3125 2.1094 -0.3125 Q2.4531 -0.3125 2.7266 -0.6172 Q3 -0.9219 3.0938 -1.4531 L3.4688 -3.2969 L4.2969 -3.2969 L3.9062 -1.4219 Q3.8594 -1.2188 3.8594 -1.0469 Q3.8594 -0.6875 4.0234 -0.5 Q4.1875 -0.3125 4.5 -0.3125 Q5.0938 -0.3125 5.5 -1.0625 Q5.9062 -1.8125 5.9062 -2.8906 Q5.9062 -3.9062 5.5 -4.4688 L5.7812 -4.75 Q6.7656 -3.8125 6.7656 -2.6875 Q6.7656 -1.5625 6.1172 -0.7422 Q5.4688 0.0781 4.4844 0.0781 Q3.5781 0.0781 3.4062 -0.8438 Z" stroke-width="1" transform="translate(62.5018,28.8458)" stroke="none"/></g><g text-rendering="optimizeLegibility" transform="translate(68.8456,28.8458)" color-rendering="optimizeQuality" color-interpolation="linearRGB" image-rendering="optimizeQuality"><path d="M1.7031 -6.125 L1.7031 -5.9062 L0.75 -3.6406 L0.4219 -3.7344 L0.9688 -6.125 L1.7031 -6.125 Z" stroke="none"/></g><g text-rendering="optimizeLegibility" transform="translate(70.5487,31.5567)" color-rendering="optimizeQuality" color-interpolation="linearRGB" image-rendering="optimizeQuality"><path d="M2.1875 -5.2656 L2.0156 -4.5156 L1.3125 -4.5156 L1.5 -5.2656 L2.1875 -5.2656 ZM1.2188 -0.9844 Q1.1875 -0.7812 1.1719 -0.6875 Q1.1562 -0.5938 1.1562 -0.5312 Q1.1562 -0.4219 1.1953 -0.3516 Q1.2344 -0.2812 1.3203 -0.25 Q1.4062 -0.2188 1.5938 -0.1875 L1.5469 0 L0.3438 0 L0.9375 -2.6406 Q0.9844 -2.8594 1 -2.9922 Q1.0156 -3.125 1.0156 -3.2188 Q1.0156 -3.3281 0.9844 -3.3906 Q0.9531 -3.4531 0.875 -3.4844 Q0.7969 -3.5156 0.6094 -3.5312 L0.6562 -3.7344 L1.6094 -3.7656 L1.8281 -3.7656 L1.2188 -0.9844 Z" stroke="none"/></g><g text-rendering="optimizeLegibility" transform="translate(72.1112,28.8458)" color-rendering="optimizeQuality" color-interpolation="linearRGB" image-rendering="optimizeQuality"><path d="M0.625 -2.5156 L0.625 -3.2031 L4.9219 -3.2031 L4.9219 -2.5156 L0.625 -2.5156 Z" stroke="none"/></g><g text-rendering="optimizeLegibility" transform="translate(77.0331,28.8458)" color-rendering="optimizeQuality" color-interpolation="linearRGB" image-rendering="optimizeQuality"><path d="M3.4062 -0.8438 L3.3906 -0.8438 Q2.8906 0.0781 1.8438 0.0781 Q1.2188 0.0781 0.8281 -0.3203 Q0.4375 -0.7188 0.4375 -1.4531 Q0.4375 -2.3906 1.0156 -3.2422 Q1.5938 -4.0938 2.6562 -4.75 L2.8594 -4.4219 Q2.1719 -3.8906 1.7266 -3.0547 Q1.2812 -2.2188 1.2812 -1.4219 Q1.2812 -0.8438 1.5156 -0.5781 Q1.75 -0.3125 2.1094 -0.3125 Q2.4531 -0.3125 2.7266 -0.6172 Q3 -0.9219 3.0938 -1.4531 L3.4688 -3.2969 L4.2969 -3.2969 L3.9062 -1.4219 Q3.8594 -1.2188 3.8594 -1.0469 Q3.8594 -0.6875 4.0234 -0.5 Q4.1875 -0.3125 4.5 -0.3125 Q5.0938 -0.3125 5.5 -1.0625 Q5.9062 -1.8125 5.9062 -2.8906 Q5.9062 -3.9062 5.5 -4.4688 L5.7812 -4.75 Q6.7656 -3.8125 6.7656 -2.6875 Q6.7656 -1.5625 6.1172 -0.7422 Q5.4688 0.0781 4.4844 0.0781 Q3.5781 0.0781 3.4062 -0.8438 Z" stroke="none"/></g><g text-rendering="optimizeLegibility" transform="translate(83.3768,28.8458)" color-rendering="optimizeQuality" color-interpolation="linearRGB" image-rendering="optimizeQuality"><path d="M1.7031 -6.125 L1.7031 -5.9062 L0.75 -3.6406 L0.4219 -3.7344 L0.9688 -6.125 L1.7031 -6.125 Z" stroke="none"/></g><g text-rendering="optimizeLegibility" transform="translate(86.1112,30.6817)" color-rendering="optimizeQuality" color-interpolation="linearRGB" image-rendering="optimizeQuality"><path d="M2.2031 -5.2656 L2.0156 -4.5156 L1.3281 -4.5156 L1.5156 -5.2656 L2.2031 -5.2656 ZM1.0312 0.0625 Q0.9062 0.6562 0.6875 1.0234 Q0.4688 1.3906 0.125 1.5703 Q-0.2188 1.75 -0.7031 1.75 Q-0.8906 1.75 -1.0312 1.7031 L-0.9375 1.3594 Q-0.875 1.3906 -0.7969 1.3906 Q-0.7188 1.3906 -0.6406 1.3906 Q-0.4531 1.3906 -0.3203 1.3359 Q-0.1875 1.2812 -0.0781 1.1484 Q0.0312 1.0156 0.1328 0.7812 Q0.2344 0.5469 0.3125 0.1875 L0.9375 -2.6406 Q1 -2.8594 1.0156 -2.9922 Q1.0312 -3.125 1.0312 -3.2188 Q1.0312 -3.3281 1 -3.3906 Q0.9688 -3.4531 0.8906 -3.4844 Q0.8125 -3.5156 0.625 -3.5312 L0.6562 -3.7344 L1.6094 -3.7656 L1.8438 -3.7656 L1.0312 0.0625 Z" stroke="none"/></g><g text-rendering="optimizeLegibility" transform="translate(50.994,44.2553)" color-rendering="optimizeQuality" color-interpolation="linearRGB" image-rendering="optimizeQuality"><path d="M4.8125 -6.2656 L4.5938 -6.25 Q3.75 -6.1719 3.0234 -5.7266 Q2.2969 -5.2812 2.2969 -4.6562 Q2.2969 -4.3281 2.5781 -4.1484 Q2.8594 -3.9688 3.2656 -3.9688 Q3.4219 -3.9688 3.5938 -4 L3.9688 -4.0781 L3.875 -3.5938 L3.5781 -3.5469 Q2.625 -3.3594 1.9688 -2.9219 Q1.3125 -2.4844 1.3125 -1.8906 Q1.3125 -1.5469 1.5156 -1.3047 Q1.7188 -1.0625 2.2969 -0.8125 Q2.8906 -0.5625 3.125 -0.2891 Q3.3594 -0.0156 3.3594 0.3906 Q3.3594 0.875 2.9453 1.3203 Q2.5312 1.7656 1.7969 2 L1.625 1.7031 Q2.1562 1.5312 2.4766 1.2344 Q2.7969 0.9375 2.7969 0.6406 Q2.7969 0.3594 2.6016 0.2031 Q2.4062 0.0469 1.7031 -0.2188 Q0.4062 -0.7188 0.4062 -1.7188 Q0.4062 -2.4062 1.0078 -2.9375 Q1.6094 -3.4688 2.5469 -3.6719 L2.5469 -3.7188 Q2.0312 -3.75 1.7188 -4.0078 Q1.4062 -4.2656 1.4062 -4.6719 Q1.4062 -5.7031 3.3438 -6.2344 L3.3438 -6.25 L3.1406 -6.25 Q2.0156 -6.25 1.7656 -6.8906 L2.5156 -7.0156 Q2.6719 -6.6094 3.625 -6.6094 Q3.9688 -6.6094 4.2656 -6.6719 Q4.5625 -6.7188 4.9062 -6.7656 L4.8125 -6.2656 Z" stroke="none"/></g><g text-rendering="optimizeLegibility" transform="translate(55.4784,42.1225)" color-rendering="optimizeQuality" color-interpolation="linearRGB" image-rendering="optimizeQuality"><path d="M3.0781 -6.125 L3.0781 -5.9062 L2.1719 -3.6406 L1.8438 -3.7344 L2.375 -6.125 L3.0781 -6.125 ZM1.6562 -6.125 L1.6562 -5.9062 L0.75 -3.6406 L0.4219 -3.7344 L0.9688 -6.125 L1.6562 -6.125 Z" stroke="none"/></g><g text-rendering="optimizeLegibility" transform="translate(58.5565,48.8881)" color-rendering="optimizeQuality" color-interpolation="linearRGB" image-rendering="optimizeQuality"><path d="M2.1875 -5.2656 L2.0156 -4.5156 L1.3125 -4.5156 L1.5 -5.2656 L2.1875 -5.2656 ZM1.2188 -0.9844 Q1.1875 -0.7812 1.1719 -0.6875 Q1.1562 -0.5938 1.1562 -0.5312 Q1.1562 -0.4219 1.1953 -0.3516 Q1.2344 -0.2812 1.3203 -0.25 Q1.4062 -0.2188 1.5938 -0.1875 L1.5469 0 L0.3438 0 L0.9375 -2.6406 Q0.9844 -2.8594 1 -2.9922 Q1.0156 -3.125 1.0156 -3.2188 Q1.0156 -3.3281 0.9844 -3.3906 Q0.9531 -3.4531 0.875 -3.4844 Q0.7969 -3.5156 0.6094 -3.5312 L0.6562 -3.7344 L1.6094 -3.7656 L1.8281 -3.7656 L1.2188 -0.9844 Z" stroke="none"/></g><g text-rendering="optimizeLegibility" transform="translate(62.744,44.2553)" color-rendering="optimizeQuality" color-interpolation="linearRGB" image-rendering="optimizeQuality"><path d="M3.4062 -0.8438 L3.3906 -0.8438 Q2.8906 0.0781 1.8438 0.0781 Q1.2188 0.0781 0.8281 -0.3203 Q0.4375 -0.7188 0.4375 -1.4531 Q0.4375 -2.3906 1.0156 -3.2422 Q1.5938 -4.0938 2.6562 -4.75 L2.8594 -4.4219 Q2.1719 -3.8906 1.7266 -3.0547 Q1.2812 -2.2188 1.2812 -1.4219 Q1.2812 -0.8438 1.5156 -0.5781 Q1.75 -0.3125 2.1094 -0.3125 Q2.4531 -0.3125 2.7266 -0.6172 Q3 -0.9219 3.0938 -1.4531 L3.4688 -3.2969 L4.2969 -3.2969 L3.9062 -1.4219 Q3.8594 -1.2188 3.8594 -1.0469 Q3.8594 -0.6875 4.0234 -0.5 Q4.1875 -0.3125 4.5 -0.3125 Q5.0938 -0.3125 5.5 -1.0625 Q5.9062 -1.8125 5.9062 -2.8906 Q5.9062 -3.9062 5.5 -4.4688 L5.7812 -4.75 Q6.7656 -3.8125 6.7656 -2.6875 Q6.7656 -1.5625 6.1172 -0.7422 Q5.4688 0.0781 4.4844 0.0781 Q3.5781 0.0781 3.4062 -0.8438 Z" stroke="none"/></g><g text-rendering="optimizeLegibility" transform="translate(70.5096,46.8881)" color-rendering="optimizeQuality" color-interpolation="linearRGB" image-rendering="optimizeQuality"><path d="M2.1875 -5.2656 L2.0156 -4.5156 L1.3125 -4.5156 L1.5 -5.2656 L2.1875 -5.2656 ZM1.2188 -0.9844 Q1.1875 -0.7812 1.1719 -0.6875 Q1.1562 -0.5938 1.1562 -0.5312 Q1.1562 -0.4219 1.1953 -0.3516 Q1.2344 -0.2812 1.3203 -0.25 Q1.4062 -0.2188 1.5938 -0.1875 L1.5469 0 L0.3438 0 L0.9375 -2.6406 Q0.9844 -2.8594 1 -2.9922 Q1.0156 -3.125 1.0156 -3.2188 Q1.0156 -3.3281 0.9844 -3.3906 Q0.9531 -3.4531 0.875 -3.4844 Q0.7969 -3.5156 0.6094 -3.5312 L0.6562 -3.7344 L1.6094 -3.7656 L1.8281 -3.7656 L1.2188 -0.9844 Z" stroke="none"/></g><g text-rendering="optimizeLegibility" transform="translate(72.0878,44.2553)" color-rendering="optimizeQuality" color-interpolation="linearRGB" image-rendering="optimizeQuality"><path d="M3.125 -2.5156 L3.125 -0.6719 L2.4062 -0.6719 L2.4062 -2.5156 L0.6094 -2.5156 L0.6094 -3.2031 L2.4062 -3.2031 L2.4062 -5.0469 L3.125 -5.0469 L3.125 -3.2031 L4.9375 -3.2031 L4.9375 -2.5156 L3.125 -2.5156 Z" stroke="none"/></g><g text-rendering="optimizeLegibility" transform="translate(77.0253,44.2553)" color-rendering="optimizeQuality" color-interpolation="linearRGB" image-rendering="optimizeQuality"><path d="M4.8125 -6.2656 L4.5938 -6.25 Q3.75 -6.1719 3.0234 -5.7266 Q2.2969 -5.2812 2.2969 -4.6562 Q2.2969 -4.3281 2.5781 -4.1484 Q2.8594 -3.9688 3.2656 -3.9688 Q3.4219 -3.9688 3.5938 -4 L3.9688 -4.0781 L3.875 -3.5938 L3.5781 -3.5469 Q2.625 -3.3594 1.9688 -2.9219 Q1.3125 -2.4844 1.3125 -1.8906 Q1.3125 -1.5469 1.5156 -1.3047 Q1.7188 -1.0625 2.2969 -0.8125 Q2.8906 -0.5625 3.125 -0.2891 Q3.3594 -0.0156 3.3594 0.3906 Q3.3594 0.875 2.9453 1.3203 Q2.5312 1.7656 1.7969 2 L1.625 1.7031 Q2.1562 1.5312 2.4766 1.2344 Q2.7969 0.9375 2.7969 0.6406 Q2.7969 0.3594 2.6016 0.2031 Q2.4062 0.0469 1.7031 -0.2188 Q0.4062 -0.7188 0.4062 -1.7188 Q0.4062 -2.4062 1.0078 -2.9375 Q1.6094 -3.4688 2.5469 -3.6719 L2.5469 -3.7188 Q2.0312 -3.75 1.7188 -4.0078 Q1.4062 -4.2656 1.4062 -4.6719 Q1.4062 -5.7031 3.3438 -6.2344 L3.3438 -6.25 L3.1406 -6.25 Q2.0156 -6.25 1.7656 -6.8906 L2.5156 -7.0156 Q2.6719 -6.6094 3.625 -6.6094 Q3.9688 -6.6094 4.2656 -6.6719 Q4.5625 -6.7188 4.9062 -6.7656 L4.8125 -6.2656 Z" stroke="none"/></g><g text-rendering="optimizeLegibility" transform="translate(81.5096,42.1225)" color-rendering="optimizeQuality" color-interpolation="linearRGB" image-rendering="optimizeQuality"><path d="M3.0781 -6.125 L3.0781 -5.9062 L2.1719 -3.6406 L1.8438 -3.7344 L2.375 -6.125 L3.0781 -6.125 ZM1.6562 -6.125 L1.6562 -5.9062 L0.75 -3.6406 L0.4219 -3.7344 L0.9688 -6.125 L1.6562 -6.125 Z" stroke="none"/></g><g text-rendering="optimizeLegibility" transform="translate(85.619,48.0131)" color-rendering="optimizeQuality" color-interpolation="linearRGB" image-rendering="optimizeQuality"><path d="M2.2031 -5.2656 L2.0156 -4.5156 L1.3281 -4.5156 L1.5156 -5.2656 L2.2031 -5.2656 ZM1.0312 0.0625 Q0.9062 0.6562 0.6875 1.0234 Q0.4688 1.3906 0.125 1.5703 Q-0.2188 1.75 -0.7031 1.75 Q-0.8906 1.75 -1.0312 1.7031 L-0.9375 1.3594 Q-0.875 1.3906 -0.7969 1.3906 Q-0.7188 1.3906 -0.6406 1.3906 Q-0.4531 1.3906 -0.3203 1.3359 Q-0.1875 1.2812 -0.0781 1.1484 Q0.0312 1.0156 0.1328 0.7812 Q0.2344 0.5469 0.3125 0.1875 L0.9375 -2.6406 Q1 -2.8594 1.0156 -2.9922 Q1.0312 -3.125 1.0312 -3.2188 Q1.0312 -3.3281 1 -3.3906 Q0.9688 -3.4531 0.8906 -3.4844 Q0.8125 -3.5156 0.625 -3.5312 L0.6562 -3.7344 L1.6094 -3.7656 L1.8438 -3.7656 L1.0312 0.0625 Z" stroke="none"/></g><g text-rendering="optimizeLegibility" transform="translate(89.8221,44.2553)" color-rendering="optimizeQuality" color-interpolation="linearRGB" image-rendering="optimizeQuality"><path d="M3.4062 -0.8438 L3.3906 -0.8438 Q2.8906 0.0781 1.8438 0.0781 Q1.2188 0.0781 0.8281 -0.3203 Q0.4375 -0.7188 0.4375 -1.4531 Q0.4375 -2.3906 1.0156 -3.2422 Q1.5938 -4.0938 2.6562 -4.75 L2.8594 -4.4219 Q2.1719 -3.8906 1.7266 -3.0547 Q1.2812 -2.2188 1.2812 -1.4219 Q1.2812 -0.8438 1.5156 -0.5781 Q1.75 -0.3125 2.1094 -0.3125 Q2.4531 -0.3125 2.7266 -0.6172 Q3 -0.9219 3.0938 -1.4531 L3.4688 -3.2969 L4.2969 -3.2969 L3.9062 -1.4219 Q3.8594 -1.2188 3.8594 -1.0469 Q3.8594 -0.6875 4.0234 -0.5 Q4.1875 -0.3125 4.5 -0.3125 Q5.0938 -0.3125 5.5 -1.0625 Q5.9062 -1.8125 5.9062 -2.8906 Q5.9062 -3.9062 5.5 -4.4688 L5.7812 -4.75 Q6.7656 -3.8125 6.7656 -2.6875 Q6.7656 -1.5625 6.1172 -0.7422 Q5.4688 0.0781 4.4844 0.0781 Q3.5781 0.0781 3.4062 -0.8438 Z" stroke="none"/></g><g text-rendering="optimizeLegibility" transform="translate(97.619,46.0913)" color-rendering="optimizeQuality" color-interpolation="linearRGB" image-rendering="optimizeQuality"><path d="M2.2031 -5.2656 L2.0156 -4.5156 L1.3281 -4.5156 L1.5156 -5.2656 L2.2031 -5.2656 ZM1.0312 0.0625 Q0.9062 0.6562 0.6875 1.0234 Q0.4688 1.3906 0.125 1.5703 Q-0.2188 1.75 -0.7031 1.75 Q-0.8906 1.75 -1.0312 1.7031 L-0.9375 1.3594 Q-0.875 1.3906 -0.7969 1.3906 Q-0.7188 1.3906 -0.6406 1.3906 Q-0.4531 1.3906 -0.3203 1.3359 Q-0.1875 1.2812 -0.0781 1.1484 Q0.0312 1.0156 0.1328 0.7812 Q0.2344 0.5469 0.3125 0.1875 L0.9375 -2.6406 Q1 -2.8594 1.0156 -2.9922 Q1.0312 -3.125 1.0312 -3.2188 Q1.0312 -3.3281 1 -3.3906 Q0.9688 -3.4531 0.8906 -3.4844 Q0.8125 -3.5156 0.625 -3.5312 L0.6562 -3.7344 L1.6094 -3.7656 L1.8438 -3.7656 L1.0312 0.0625 Z" stroke="none"/></g><g text-rendering="optimizeLegibility" transform="translate(101.8998,42.5401) matrix(1,0,0,2.433,0,0)" color-rendering="optimizeQuality" color-interpolation="linearRGB" image-rendering="optimizeQuality"><path d="M0.2969 -9.8125 Q1.4531 -9.8125 2.1875 -9.4609 Q2.9219 -9.1094 3.3359 -8.3984 Q3.75 -7.6875 3.9297 -6.5469 Q4.1094 -5.4062 4.1094 -3.4531 Q4.1094 -1.5 3.9297 -0.3516 Q3.75 0.7969 3.3438 1.5234 Q2.9375 2.25 2.1953 2.6094 Q1.4531 2.9688 0.2969 2.9688 L0.2969 2.4062 Q0.7656 2.4062 1.1406 2.3281 Q1.5625 2.2344 1.8594 1.9688 Q2.1875 1.6562 2.3906 1.125 Q2.625 0.5 2.7344 -0.5469 Q2.8594 -1.6406 2.8594 -3.3906 Q2.8594 -4.9219 2.7578 -6 Q2.6562 -7.0781 2.4219 -7.7656 Q2.2344 -8.3438 1.9375 -8.6562 Q1.6875 -8.9375 1.3438 -9.0781 Q0.9375 -9.25 0.2969 -9.25 L0.2969 -9.8125 Z" stroke="none"/></g><g text-rendering="optimizeLegibility" transform="translate(106.0092,22.0411)" color-rendering="optimizeQuality" color-interpolation="linearRGB" image-rendering="optimizeQuality"><path d="M3.4219 -0.7812 Q3.6719 -0.7812 3.8125 -0.8125 Q3.9531 -0.8438 4.0469 -0.9141 Q4.1406 -0.9844 4.1875 -1.0938 Q4.2344 -1.2031 4.3125 -1.4219 L4.7344 -1.4219 L4.6562 0 L0.625 0 L0.625 -0.2344 Q0.8438 -0.75 1.1953 -1.2891 Q1.5469 -1.8281 2.2031 -2.5469 Q2.7812 -3.1719 3.0156 -3.5 Q3.2969 -3.8438 3.4297 -4.1016 Q3.5625 -4.3594 3.625 -4.5859 Q3.6875 -4.8125 3.6875 -5.0469 Q3.6875 -5.4062 3.5703 -5.6875 Q3.4531 -5.9688 3.2109 -6.1328 Q2.9688 -6.2969 2.5938 -6.2969 Q1.6875 -6.2969 1.375 -5.2812 L0.7812 -5.2812 L0.7812 -6.2188 Q1.375 -6.5 1.8828 -6.625 Q2.3906 -6.75 2.8125 -6.75 Q3.7188 -6.75 4.1797 -6.3516 Q4.6406 -5.9531 4.6406 -5.1875 Q4.6406 -4.9375 4.5938 -4.7188 Q4.5469 -4.5 4.4375 -4.2891 Q4.3281 -4.0781 4.1406 -3.8281 Q3.9531 -3.5781 3.7266 -3.3281 Q3.5 -3.0781 2.9531 -2.5 Q2.0156 -1.5156 1.5938 -0.7812 L3.4219 -0.7812 Z" stroke="none"/></g></g></svg>