<?xml version="1.0" encoding="UTF-8" standalone="no"?><svg xmlns="http://www.w3.org/2000/svg" xmlns:xlink="http://www.w3.org/1999/xlink" stroke-dasharray="none" shape-rendering="auto" font-family="'Dialog'" width="25.812600" text-rendering="auto" fill-opacity="1" contentScriptType="text/ecmascript" color-interpolation="auto" color-rendering="auto" preserveAspectRatio="xMidYMid meet" font-size="12" fill="black" stroke="black" image-rendering="auto" stroke-miterlimit="10" zoomAndPan="magnify" version="1.0" stroke-linecap="square" stroke-linejoin="miter" contentStyleType="text/css" font-style="normal" height="21" stroke-width="1" stroke-dashoffset="0" font-weight="normal" stroke-opacity="1" y="-4.000000"><!--Converted from MathML using JEuclid--><defs id="genericDefs"/><g><g text-rendering="optimizeLegibility" transform="translate(0,17)" color-rendering="optimizeQuality" color-interpolation="linearRGB" image-rendering="optimizeQuality"><path d="M4.6562 -7.3125 L4.9688 -7.3125 Q5.375 -7.3125 5.7188 -7.4453 Q6.0625 -7.5781 6.5078 -7.9375 Q6.9531 -8.2969 7.9375 -9.2656 Q8.9219 -10.2344 9.3359 -10.7344 Q9.75 -11.2344 9.9375 -11.6016 Q10.125 -11.9688 10.125 -12.2812 Q10.125 -12.5156 9.9297 -12.6719 Q9.7344 -12.8281 9.375 -12.8594 L9.4844 -13.3281 L13.6719 -13.3281 L13.5625 -12.8594 Q13.1719 -12.7969 12.6797 -12.4453 Q12.1875 -12.0938 11.1719 -11.0938 L7.3906 -7.4062 L9.4688 -2.4062 Q9.7344 -1.7656 9.8906 -1.4688 Q10.0469 -1.1719 10.2344 -0.9688 Q10.4219 -0.7656 10.6562 -0.6484 Q10.8906 -0.5312 11.2188 -0.4844 L11.1094 0 L7.3438 0 L7.4531 -0.4844 Q7.9844 -0.5312 7.9844 -0.9531 Q7.9844 -1.0781 7.9609 -1.2109 Q7.9375 -1.3438 7.8516 -1.6094 Q7.7656 -1.875 7.625 -2.25 L6.3438 -5.3594 Q6.125 -5.9062 5.9609 -6.1328 Q5.7969 -6.3594 5.6094 -6.4453 Q5.4219 -6.5312 5.0312 -6.5312 L4.4844 -6.5312 L3.6719 -2.8438 Q3.5469 -2.25 3.5078 -1.9141 Q3.4688 -1.5781 3.4688 -1.3125 Q3.4688 -0.875 3.6875 -0.6953 Q3.9062 -0.5156 4.4219 -0.4844 L4.3125 0 L0.4062 0 L0.5156 -0.4844 Q0.8906 -0.5312 1.0781 -0.6641 Q1.2656 -0.7969 1.3906 -1.0312 Q1.5156 -1.2656 1.625 -1.6016 Q1.7344 -1.9375 1.9375 -2.9062 L3.6094 -10.4375 Q3.7031 -10.875 3.7578 -11.2891 Q3.8125 -11.7031 3.8125 -12 Q3.8125 -12.4688 3.5781 -12.6484 Q3.3438 -12.8281 2.8594 -12.8594 L2.9688 -13.3281 L6.875 -13.3281 L6.7656 -12.8594 Q6.3906 -12.7812 6.2344 -12.6797 Q6.0781 -12.5781 5.9453 -12.3828 Q5.8125 -12.1875 5.6797 -11.7734 Q5.5469 -11.3594 5.3438 -10.4219 L4.6562 -7.3125 Z" stroke="none"/></g><g text-rendering="optimizeLegibility" transform="translate(13.9531,20.2656)" color-rendering="optimizeQuality" color-interpolation="linearRGB" image-rendering="optimizeQuality"><path d="M6.4688 -6.2031 Q5.1406 -4.7812 3.6875 -3.4062 L4.3281 -1.9062 Q4.5781 -1.3125 4.7266 -1.0234 Q4.875 -0.7344 5 -0.6094 Q5.125 -0.4844 5.25 -0.4297 Q5.375 -0.375 5.6406 -0.3281 L5.5625 0 L3.8594 0 L2.9062 -2.75 Q2.75 -2.6094 2.4766 -2.3516 Q2.2031 -2.0938 1.9531 -1.8047 Q1.7031 -1.5156 1.6016 -1.3359 Q1.5 -1.1562 1.4688 -1.0234 Q1.4375 -0.8906 1.4375 -0.7656 Q1.4375 -0.5781 1.5391 -0.4766 Q1.6406 -0.375 1.875 -0.3281 L1.7969 0 L-0.1562 0 L-0.2812 -0.3281 Q1.2188 -1.9375 2.6719 -3.2969 L2.0156 -4.8125 Q1.8125 -5.2812 1.6953 -5.5234 Q1.5781 -5.7656 1.4609 -5.8984 Q1.3438 -6.0312 1.1953 -6.1094 Q1.0469 -6.1875 0.7812 -6.2031 L0.8594 -6.5312 L2.5625 -6.5312 L3.4688 -3.9531 Q3.7969 -4.2656 4.1016 -4.5938 Q4.4062 -4.9219 4.5312 -5.1172 Q4.6562 -5.3125 4.7031 -5.4609 Q4.75 -5.6094 4.75 -5.7656 Q4.75 -6.1406 4.3125 -6.2031 L4.375 -6.5312 L6.3281 -6.5312 L6.4688 -6.2031 Z" stroke="none"/></g><g text-rendering="optimizeLegibility" transform="translate(13.6719,7.6719)" color-rendering="optimizeQuality" color-interpolation="linearRGB" image-rendering="optimizeQuality"><path d="M5.7969 -3.125 Q5.3594 -2.3906 4.9453 -1.9375 Q4.5312 -1.4844 4.0703 -1.2422 Q3.6094 -1 3.0781 -1 Q2.4375 -1 1.9297 -1.3984 Q1.4219 -1.7969 1.1562 -2.4766 Q0.8906 -3.1562 0.8906 -3.9844 Q0.8906 -4.8125 1.1875 -5.5234 Q1.4844 -6.2344 2 -6.6172 Q2.5156 -7 3.1562 -7 Q3.6875 -7 4.1016 -6.7969 Q4.5156 -6.5938 4.9062 -6.1484 Q5.2969 -5.7031 5.7969 -4.8594 Q6.1719 -5.5625 6.5078 -6.0547 Q6.8438 -6.5469 7.1797 -6.8359 Q7.5156 -7.125 7.8906 -7.2656 Q8.2656 -7.4062 8.7656 -7.4062 Q9.5312 -7.4062 10.1094 -6.9844 Q10.6875 -6.5625 10.9922 -5.8203 Q11.2969 -5.0781 11.2969 -4.1562 Q11.2969 -3.1406 10.9531 -2.3125 Q10.6094 -1.4844 9.9922 -1.0391 Q9.375 -0.5938 8.5625 -0.5938 Q7.6875 -0.5938 7.0391 -1.2031 Q6.3906 -1.8125 5.7969 -3.125 ZM6.2656 -4 Q6.5938 -3.3438 6.9141 -2.8828 Q7.2344 -2.4219 7.5234 -2.1641 Q7.8125 -1.9062 8.1094 -1.7891 Q8.4062 -1.6719 8.75 -1.6719 Q9.2656 -1.6719 9.6406 -1.9531 Q10.0156 -2.2344 10.2266 -2.7734 Q10.4375 -3.3125 10.4375 -4.0469 Q10.4375 -4.7031 10.2266 -5.2266 Q10.0156 -5.75 9.6328 -6.0391 Q9.25 -6.3281 8.75 -6.3281 Q8.2812 -6.3281 7.9141 -6.1172 Q7.5469 -5.9062 7.1719 -5.4141 Q6.7969 -4.9219 6.2656 -4 ZM5.3125 -4 Q4.9375 -4.6562 4.6094 -5.0625 Q4.2812 -5.4688 3.9219 -5.6953 Q3.5625 -5.9219 3.1562 -5.9219 Q2.75 -5.9219 2.4219 -5.7188 Q2.0938 -5.5156 1.9062 -5.0859 Q1.7188 -4.6562 1.7188 -4.0312 Q1.7188 -3.5 1.8359 -3.1328 Q1.9531 -2.7656 2.1484 -2.5312 Q2.3438 -2.2969 2.6016 -2.1875 Q2.8594 -2.0781 3.1562 -2.0781 Q3.7344 -2.0781 4.2656 -2.5469 Q4.7969 -3.0156 5.3125 -4 Z" stroke="none"/></g></g></svg>