<?xml version="1.0" encoding="UTF-8" standalone="no"?><svg xmlns="http://www.w3.org/2000/svg" xmlns:xlink="http://www.w3.org/1999/xlink" stroke-dasharray="none" shape-rendering="auto" font-family="'Dialog'" width="404.812600" text-rendering="auto" fill-opacity="1" contentScriptType="text/ecmascript" color-interpolation="auto" color-rendering="auto" preserveAspectRatio="xMidYMid meet" font-size="12" fill="black" stroke="black" image-rendering="auto" stroke-miterlimit="10" zoomAndPan="magnify" version="1.0" stroke-linecap="square" stroke-linejoin="miter" contentStyleType="text/css" font-style="normal" height="27" stroke-width="1" stroke-dashoffset="0" font-weight="normal" stroke-opacity="1" y="-8.000000"><!--Converted from MathML using JEuclid--><defs id="genericDefs"/><g><g text-rendering="optimizeLegibility" transform="translate(0,19)" color-rendering="optimizeQuality" color-interpolation="linearRGB" image-rendering="optimizeQuality"><path d="M8.0938 -7.25 L7.2812 -7.25 Q7.125 -8.7188 5.4531 -8.7188 Q4.6406 -8.7188 4.0469 -8.2422 Q3.4531 -7.7656 3.4531 -7.0156 Q3.4531 -6.3125 3.9766 -5.9062 Q4.5 -5.5 5.4531 -5.5 L6.3125 -5.5 L6.125 -4.5625 L5.3438 -4.5625 Q4.1094 -4.5625 3.1953 -4 Q2.2812 -3.4375 2.2812 -2.4219 Q2.2812 -1.7188 2.8438 -1.3125 Q3.4062 -0.9062 4.2656 -0.9062 Q5.7344 -0.9062 7.2031 -1.8594 L7.6406 -1.2031 Q5.8438 0.1562 3.6094 0.1562 Q2.1406 0.1562 1.3125 -0.4766 Q0.4844 -1.1094 0.4844 -2.125 Q0.4844 -4.1562 3.375 -4.9688 L3.4062 -5.0625 Q1.7812 -5.5312 1.7812 -6.9219 Q1.7812 -8.1094 2.7422 -8.8047 Q3.7031 -9.5 5.4219 -9.5 Q7.0312 -9.5 8.4844 -8.9688 L8.0938 -7.25 Z" stroke="none"/></g><g text-rendering="optimizeLegibility" transform="translate(10.2031,23.9609)" color-rendering="optimizeQuality" color-interpolation="linearRGB" image-rendering="optimizeQuality"><path d="M1.2656 -5.0469 Q1.2031 -5.5625 1.1406 -5.7656 Q1.0781 -5.9688 0.9375 -6.0781 Q0.7969 -6.1875 0.5 -6.2031 L0.5625 -6.5312 L2.3281 -6.5312 L2.8438 -1.0938 Q5.1562 -4.2656 5.1562 -5.625 Q5.1562 -5.9531 5.0156 -6.0703 Q4.875 -6.1875 4.5469 -6.2031 L4.625 -6.5312 L6.3906 -6.5312 L6.5625 -6.1875 Q6.2031 -5.25 5.6406 -4.2266 Q5.0781 -3.2031 4.2656 -1.9922 Q3.4531 -0.7812 2.4531 0.5156 Q1.6875 1.5312 1.1562 2.0312 Q0.7656 2.4219 0.4219 2.625 Q0.0781 2.8281 -0.2344 2.9141 Q-0.5469 3 -0.9062 3 Q-1.0938 3 -1.3281 2.9609 Q-1.5625 2.9219 -1.7188 2.8594 L-1.4219 1.5938 L-0.8906 1.5938 Q-0.8906 1.8125 -0.7891 1.9531 Q-0.6875 2.0938 -0.4844 2.0938 Q-0.2656 2.0938 -0.1094 2.0469 Q0.0469 2 0.2188 1.8984 Q0.3906 1.7969 0.6406 1.5703 Q0.8906 1.3438 1.2109 0.9766 Q1.5312 0.6094 1.9219 0.0781 L1.2656 -5.0469 Z" stroke="none"/></g><g text-rendering="optimizeLegibility" transform="translate(16.7656,23.9609)" color-rendering="optimizeQuality" color-interpolation="linearRGB" image-rendering="optimizeQuality"><path d="M4.6094 -1.2656 Q4.0469 -0.5781 3.5 -0.2344 Q2.9531 0.1094 2.3438 0.1094 Q1.625 0.1094 1.2656 -0.2578 Q0.9062 -0.625 0.9062 -1.3281 Q0.9062 -1.7656 1.0312 -2.2969 L1.875 -5.8438 L0.8594 -5.8438 L0.9375 -6.1875 Q1.3438 -6.2344 1.5781 -6.3672 Q1.8125 -6.5 1.9766 -6.7031 Q2.1406 -6.9062 2.2734 -7.2422 Q2.4062 -7.5781 2.6094 -8.2188 L3.5625 -8.2188 L3.1719 -6.5312 L5.3438 -6.5312 L5.2031 -5.8438 L3.0156 -5.8438 L2.3594 -3.1875 Q2.0938 -2.0781 2.0938 -1.5312 Q2.0938 -1.125 2.2734 -0.9062 Q2.4531 -0.6875 2.7969 -0.6875 Q3.125 -0.6875 3.4688 -0.9297 Q3.8125 -1.1719 4.2188 -1.6719 L4.6094 -1.2656 Z" stroke="none"/></g><g text-rendering="optimizeLegibility" transform="translate(10.3281,10.6797)" color-rendering="optimizeQuality" color-interpolation="linearRGB" image-rendering="optimizeQuality"><path d="M1.7344 0.1094 Q1.5 1.2031 1.0938 1.8516 Q0.6875 2.5 0.1094 2.7812 Q-0.4688 3.0625 -1.2969 3.0625 Q-1.5938 3.0625 -1.8438 2.9844 L-1.6875 2.3906 Q-1.5156 2.4375 -1.2031 2.4375 Q-0.8438 2.4375 -0.6172 2.3438 Q-0.3906 2.25 -0.1953 2.0312 Q0 1.8125 0.1797 1.3984 Q0.3594 0.9844 0.5156 0.3125 L1.9062 -5.8438 L1.0781 -5.8438 L1.1562 -6.1875 Q1.4844 -6.2344 1.625 -6.2891 Q1.7656 -6.3438 1.8516 -6.4453 Q1.9375 -6.5469 2.0078 -6.7266 Q2.0781 -6.9062 2.2031 -7.3438 Q2.5625 -8.5781 3.3203 -9.1953 Q4.0781 -9.8125 5.25 -9.8125 Q5.9062 -9.8125 6.4062 -9.7031 L6.125 -8.5469 L5.5312 -8.5469 Q5.4375 -8.9375 5.2812 -9.1094 Q5.125 -9.2812 4.8281 -9.2812 Q4.4375 -9.2812 4.1641 -9.0703 Q3.8906 -8.8594 3.6953 -8.4297 Q3.5 -8 3.3438 -7.2812 L3.1719 -6.5312 L4.7344 -6.5312 L4.5781 -5.8438 L3.0156 -5.8438 L1.7344 0.1094 Z" stroke="none"/></g><g text-rendering="optimizeLegibility" transform="translate(22.8906,19)" color-rendering="optimizeQuality" color-interpolation="linearRGB" image-rendering="optimizeQuality"><path d="M1.2188 -7.0625 L1.2188 -8.4219 L9.8594 -8.4219 L9.8594 -7.0625 L1.2188 -7.0625 ZM1.2188 -3.0156 L1.2188 -4.3594 L9.8594 -4.3594 L9.8594 -3.0156 L1.2188 -3.0156 Z" stroke="none"/></g><g text-rendering="optimizeLegibility" transform="translate(34.75,19)" color-rendering="optimizeQuality" color-interpolation="linearRGB" image-rendering="optimizeQuality"><path d="M5.9688 -8.3438 L3.6406 -8.3438 L3.6406 -2.4375 Q3.6406 -1.7812 3.7031 -1.4531 Q3.7656 -1.125 3.8828 -0.9531 Q4 -0.7812 4.2031 -0.6797 Q4.4062 -0.5781 4.8438 -0.4844 L4.8438 0 L0.8438 0 L0.8438 -0.4844 Q1.2812 -0.5938 1.4688 -0.7031 Q1.6562 -0.8125 1.7578 -0.9766 Q1.8594 -1.1406 1.9062 -1.4531 Q1.9531 -1.7656 1.9531 -2.4375 L1.9531 -8.3438 L0.7656 -8.3438 L0.7656 -8.8438 Q1.1406 -8.9062 1.2656 -8.9375 Q1.3906 -8.9688 1.5 -9.0391 Q1.6094 -9.1094 1.6953 -9.2344 Q1.7812 -9.3594 1.8438 -9.6094 Q1.9062 -9.8594 1.9375 -10.3125 Q2.0312 -11.375 2.3281 -12.0391 Q2.625 -12.7031 3.1953 -13.1719 Q3.7656 -13.6406 4.4141 -13.8359 Q5.0625 -14.0312 5.9531 -14.0312 Q6.7188 -14.0312 7.25 -13.9219 L7.25 -12.1562 L6.2969 -12.1562 Q6.1094 -12.7188 5.8594 -12.9609 Q5.6094 -13.2031 5.1562 -13.2031 Q4.8281 -13.2031 4.6094 -13.1172 Q4.3906 -13.0312 4.2109 -12.8438 Q4.0312 -12.6562 3.8984 -12.3438 Q3.7656 -12.0312 3.7031 -11.5703 Q3.6406 -11.1094 3.6406 -10.3594 L3.6406 -9.3438 L5.9688 -9.3438 L5.9688 -8.3438 ZM12.5938 -1.3906 L12.4531 -1.4375 Q11.5938 -0.5625 10.8516 -0.2031 Q10.1094 0.1562 9.2656 0.1562 Q8.5156 0.1562 7.9531 -0.1328 Q7.3906 -0.4219 7.0859 -0.9453 Q6.7812 -1.4688 6.7812 -2.1562 Q6.7812 -3.5781 8.1953 -4.3516 Q9.6094 -5.125 12.4219 -5.25 L12.4219 -5.8906 Q12.4219 -6.9062 12.2266 -7.4922 Q12.0312 -8.0781 11.6172 -8.3516 Q11.2031 -8.625 10.5 -8.625 Q9.7344 -8.625 9.2656 -8.2266 Q8.7969 -7.8281 8.5625 -7.0156 L7.2969 -7.0156 L7.2969 -8.2969 Q8.2344 -8.7812 8.8594 -9.0078 Q9.4844 -9.2344 10.1094 -9.3672 Q10.7344 -9.5 11.375 -9.5 Q12.3438 -9.5 12.9297 -9.1953 Q13.5156 -8.8906 13.8047 -8.2578 Q14.0938 -7.625 14.0938 -6.3438 L14.0938 -2.9375 Q14.0938 -2.2188 14.1016 -1.9219 Q14.1094 -1.625 14.1641 -1.3672 Q14.2188 -1.1094 14.3125 -0.9609 Q14.4062 -0.8125 14.6016 -0.7031 Q14.7969 -0.5938 15.2188 -0.4844 L15.2188 0 L12.5469 0 L12.5938 -1.3906 ZM12.4219 -4.4531 Q10.4375 -4.4375 9.4531 -3.9297 Q8.4688 -3.4219 8.4688 -2.3906 Q8.4688 -1.8438 8.6953 -1.5156 Q8.9219 -1.1875 9.2656 -1.0703 Q9.6094 -0.9531 10.0781 -0.9531 Q10.7344 -0.9531 11.2812 -1.2734 Q11.8281 -1.5938 12.125 -2.0938 Q12.4219 -2.5938 12.4219 -3.0781 L12.4219 -4.4531 ZM19.7344 -13.1719 L19.7344 -11.2656 L17.9375 -11.2656 L17.9375 -13.1719 L19.7344 -13.1719 ZM16.9531 -0.4844 Q17.3281 -0.5938 17.4922 -0.6797 Q17.6562 -0.7656 17.7656 -0.9219 Q17.875 -1.0781 17.9375 -1.4062 Q18 -1.7344 18 -2.4062 L18 -6.6719 Q18 -7.2969 17.9844 -7.6797 Q17.9688 -8.0625 17.8516 -8.2891 Q17.7344 -8.5156 17.4922 -8.625 Q17.25 -8.7344 16.8125 -8.8125 L16.8125 -9.3438 L19.0938 -9.4219 L19.6875 -9.4219 L19.6875 -2.4375 Q19.6875 -1.6094 19.7656 -1.2812 Q19.8438 -0.9531 20.0625 -0.7812 Q20.2812 -0.6094 20.7812 -0.4844 L20.7812 0 L16.9531 0 L16.9531 -0.4844 ZM25.5625 -2.4375 Q25.5625 -1.6094 25.6406 -1.2812 Q25.7188 -0.9531 25.9375 -0.7812 Q26.1562 -0.6094 26.6562 -0.4844 L26.6562 0 L22.7656 0 L22.7656 -0.4844 Q23.2656 -0.6094 23.4531 -0.7422 Q23.6406 -0.875 23.7266 -1.0703 Q23.8125 -1.2656 23.8438 -1.5938 Q23.875 -1.9219 23.875 -2.4375 L23.875 -10.6094 Q23.875 -11.5469 23.8594 -11.9219 Q23.8438 -12.2969 23.7812 -12.5547 Q23.7188 -12.8125 23.6094 -12.9609 Q23.5 -13.1094 23.3047 -13.1953 Q23.1094 -13.2812 22.6094 -13.375 L22.6094 -13.875 L24.9688 -13.9688 L25.5625 -13.9688 L25.5625 -2.4375 ZM27.7188 -9.3438 L30.5 -9.3438 L30.5 -4.3594 Q30.5 -3.2188 30.5859 -2.625 Q30.6719 -2.0312 30.8516 -1.7266 Q31.0312 -1.4219 31.3516 -1.2188 Q31.6719 -1.0156 32.2344 -1.0156 Q32.6094 -1.0156 32.9531 -1.1641 Q33.2969 -1.3125 33.7109 -1.6797 Q34.125 -2.0469 34.3047 -2.4062 Q34.4844 -2.7656 34.4844 -3.25 L34.4844 -6.9062 Q34.4844 -7.4688 34.4609 -7.75 Q34.4375 -8.0312 34.3672 -8.2031 Q34.2969 -8.375 34.2031 -8.4766 Q34.1094 -8.5781 33.9375 -8.6719 Q33.7656 -8.7656 33.3906 -8.8594 L33.3906 -9.3438 L36.1719 -9.3438 L36.1719 -2.6719 Q36.1719 -1.9219 36.2031 -1.5859 Q36.2344 -1.25 36.3281 -1.0547 Q36.4219 -0.8594 36.625 -0.7344 Q36.8281 -0.6094 37.3594 -0.5156 L37.3594 0 L35.125 0.0938 L34.5312 0.0938 L34.5938 -1.5 L34.4375 -1.5469 Q33.625 -0.6719 32.8906 -0.2578 Q32.1562 0.1562 31.4219 0.1562 Q30.5312 0.1562 29.9531 -0.1953 Q29.375 -0.5469 29.0938 -1.2422 Q28.8125 -1.9375 28.8125 -3.2188 L28.8125 -6.9062 Q28.8125 -7.7188 28.75 -8.0312 Q28.6875 -8.3438 28.5 -8.5234 Q28.3125 -8.7031 27.7188 -8.8594 L27.7188 -9.3438 ZM41.5781 -7.7188 L41.7188 -7.6875 Q42.2656 -8.3438 42.7188 -8.7188 Q43.1719 -9.0938 43.7031 -9.2969 Q44.2344 -9.5 44.9219 -9.5 Q45.4844 -9.5 45.9375 -9.4375 L45.9375 -7.2031 L44.8438 -7.2031 Q44.6094 -7.7188 44.3438 -7.9609 Q44.0781 -8.2031 43.6094 -8.2031 Q43.2656 -8.2031 42.9219 -8 Q42.5781 -7.7969 42.25 -7.4062 Q41.9219 -7.0156 41.8047 -6.6719 Q41.6875 -6.3281 41.6875 -5.8594 L41.6875 -2.4375 Q41.6875 -1.5469 41.7891 -1.2109 Q41.8906 -0.875 42.1406 -0.7188 Q42.3906 -0.5625 42.8906 -0.4844 L42.8906 0 L38.9531 0 L38.9531 -0.4844 Q39.3281 -0.5938 39.4922 -0.6797 Q39.6562 -0.7656 39.7734 -0.9219 Q39.8906 -1.0781 39.9453 -1.4062 Q40 -1.7344 40 -2.4062 L40 -6.6719 Q40 -7.2969 39.9844 -7.6797 Q39.9688 -8.0625 39.8516 -8.2891 Q39.7344 -8.5156 39.4922 -8.625 Q39.25 -8.7344 38.8125 -8.8125 L38.8125 -9.3281 L41.0938 -9.4219 L41.6875 -9.4219 L41.5781 -7.7188 ZM54.75 -1.6562 Q54.125 -1 53.6016 -0.6328 Q53.0781 -0.2656 52.4531 -0.0547 Q51.8281 0.1562 51.0781 0.1562 Q49.0625 0.1562 48.0391 -1.0469 Q47.0156 -2.25 47.0156 -4.6094 Q47.0156 -6.0625 47.5391 -7.1797 Q48.0625 -8.2969 49.0312 -8.8984 Q50 -9.5 51.25 -9.5 Q52.2344 -9.5 52.9297 -9.1875 Q53.625 -8.875 54.0391 -8.3359 Q54.4531 -7.7969 54.6875 -6.9688 Q54.9219 -6.1406 54.9531 -4.8125 L48.7969 -4.8125 L48.7969 -4.6406 Q48.7969 -3.4844 49.0547 -2.7031 Q49.3125 -1.9219 49.9062 -1.4766 Q50.5 -1.0312 51.4375 -1.0312 Q52.2344 -1.0312 52.875 -1.3281 Q53.5156 -1.625 54.1562 -2.2969 L54.75 -1.6562 ZM53.1094 -5.625 Q53.0469 -6.6875 52.8438 -7.3516 Q52.6406 -8.0156 52.2344 -8.375 Q51.8281 -8.7344 51.1562 -8.7344 Q50.1562 -8.7344 49.5547 -7.9297 Q48.9531 -7.125 48.8438 -5.625 L53.1094 -5.625 ZM67.4844 -7.2031 L66.5469 -7.2031 Q66.3438 -7.7812 66.0469 -8.1172 Q65.75 -8.4531 65.3828 -8.5938 Q65.0156 -8.7344 64.4688 -8.7344 Q63.6875 -8.7344 63.2266 -8.3672 Q62.7656 -8 62.7656 -7.3594 Q62.7656 -6.9219 62.9531 -6.625 Q63.1406 -6.3281 63.5312 -6.0781 Q63.9219 -5.8281 64.9062 -5.4062 Q65.9062 -4.9688 66.4453 -4.6094 Q66.9844 -4.25 67.2891 -3.7734 Q67.5938 -3.2969 67.5938 -2.625 Q67.5938 -1.8594 67.3359 -1.3281 Q67.0781 -0.7969 66.5938 -0.4688 Q66.1094 -0.1406 65.4531 0.0078 Q64.7969 0.1562 64.0156 0.1562 Q63.1875 0.1562 62.4219 0.0312 Q61.6562 -0.0938 60.9219 -0.2812 L60.9219 -2.3281 L61.875 -2.3281 Q62.1406 -1.4219 62.6562 -1.0156 Q63.1719 -0.6094 64.0781 -0.6094 Q64.4375 -0.6094 64.7734 -0.6875 Q65.1094 -0.7656 65.375 -0.9375 Q65.6406 -1.1094 65.7969 -1.3984 Q65.9531 -1.6875 65.9531 -2.125 Q65.9531 -2.625 65.7578 -2.9375 Q65.5625 -3.25 65.1484 -3.5078 Q64.7344 -3.7656 63.7031 -4.2031 Q62.8125 -4.5781 62.2734 -4.9297 Q61.7344 -5.2812 61.4297 -5.7578 Q61.125 -6.2344 61.125 -6.8906 Q61.125 -7.7031 61.5625 -8.2891 Q62 -8.875 62.8203 -9.1875 Q63.6406 -9.5 64.7344 -9.5 Q65.375 -9.5 65.9766 -9.4375 Q66.5781 -9.375 67.4844 -9.1875 L67.4844 -7.2031 ZM69.3594 -8.8438 Q69.8438 -8.9219 70.1484 -9.1172 Q70.4531 -9.3125 70.625 -9.625 Q70.7969 -9.9375 70.8984 -10.3984 Q71 -10.8594 71.0938 -11.75 L72.4844 -11.75 L72.4844 -9.3438 L75.6406 -9.3438 L75.6406 -8.3438 L72.4844 -8.3438 L72.4844 -4 Q72.4844 -3.0625 72.5625 -2.5 Q72.6406 -1.9375 72.8594 -1.6172 Q73.0781 -1.2969 73.3516 -1.1641 Q73.625 -1.0312 74.0469 -1.0312 Q74.4375 -1.0312 74.7812 -1.1875 Q75.125 -1.3438 75.4531 -1.6562 L75.8906 -1.125 Q75.2031 -0.4531 74.5859 -0.1484 Q73.9688 0.1562 73.2969 0.1562 Q72.0312 0.1562 71.4219 -0.5938 Q70.8125 -1.3438 70.8125 -2.9375 L70.8125 -8.3438 L69.3594 -8.3438 L69.3594 -8.8438 ZM79.5781 -7.7188 L79.7188 -7.6875 Q80.2656 -8.3438 80.7188 -8.7188 Q81.1719 -9.0938 81.7031 -9.2969 Q82.2344 -9.5 82.9219 -9.5 Q83.4844 -9.5 83.9375 -9.4375 L83.9375 -7.2031 L82.8438 -7.2031 Q82.6094 -7.7188 82.3438 -7.9609 Q82.0781 -8.2031 81.6094 -8.2031 Q81.2656 -8.2031 80.9219 -8 Q80.5781 -7.7969 80.25 -7.4062 Q79.9219 -7.0156 79.8047 -6.6719 Q79.6875 -6.3281 79.6875 -5.8594 L79.6875 -2.4375 Q79.6875 -1.5469 79.7891 -1.2109 Q79.8906 -0.875 80.1406 -0.7188 Q80.3906 -0.5625 80.8906 -0.4844 L80.8906 0 L76.9531 0 L76.9531 -0.4844 Q77.3281 -0.5938 77.4922 -0.6797 Q77.6562 -0.7656 77.7734 -0.9219 Q77.8906 -1.0781 77.9453 -1.4062 Q78 -1.7344 78 -2.4062 L78 -6.6719 Q78 -7.2969 77.9844 -7.6797 Q77.9688 -8.0625 77.8516 -8.2891 Q77.7344 -8.5156 77.4922 -8.625 Q77.25 -8.7344 76.8125 -8.8125 L76.8125 -9.3281 L79.0938 -9.4219 L79.6875 -9.4219 L79.5781 -7.7188 ZM90.5938 -1.3906 L90.4531 -1.4375 Q89.5938 -0.5625 88.8516 -0.2031 Q88.1094 0.1562 87.2656 0.1562 Q86.5156 0.1562 85.9531 -0.1328 Q85.3906 -0.4219 85.0859 -0.9453 Q84.7812 -1.4688 84.7812 -2.1562 Q84.7812 -3.5781 86.1953 -4.3516 Q87.6094 -5.125 90.4219 -5.25 L90.4219 -5.8906 Q90.4219 -6.9062 90.2266 -7.4922 Q90.0312 -8.0781 89.6172 -8.3516 Q89.2031 -8.625 88.5 -8.625 Q87.7344 -8.625 87.2656 -8.2266 Q86.7969 -7.8281 86.5625 -7.0156 L85.2969 -7.0156 L85.2969 -8.2969 Q86.2344 -8.7812 86.8594 -9.0078 Q87.4844 -9.2344 88.1094 -9.3672 Q88.7344 -9.5 89.375 -9.5 Q90.3438 -9.5 90.9297 -9.1953 Q91.5156 -8.8906 91.8047 -8.2578 Q92.0938 -7.625 92.0938 -6.3438 L92.0938 -2.9375 Q92.0938 -2.2188 92.1016 -1.9219 Q92.1094 -1.625 92.1641 -1.3672 Q92.2188 -1.1094 92.3125 -0.9609 Q92.4062 -0.8125 92.6016 -0.7031 Q92.7969 -0.5938 93.2188 -0.4844 L93.2188 0 L90.5469 0 L90.5938 -1.3906 ZM90.4219 -4.4531 Q88.4375 -4.4375 87.4531 -3.9297 Q86.4688 -3.4219 86.4688 -2.3906 Q86.4688 -1.8438 86.6953 -1.5156 Q86.9219 -1.1875 87.2656 -1.0703 Q87.6094 -0.9531 88.0781 -0.9531 Q88.7344 -0.9531 89.2812 -1.2734 Q89.8281 -1.5938 90.125 -2.0938 Q90.4219 -2.5938 90.4219 -3.0781 L90.4219 -4.4531 ZM97.7344 -13.1719 L97.7344 -11.2656 L95.9375 -11.2656 L95.9375 -13.1719 L97.7344 -13.1719 ZM94.9531 -0.4844 Q95.3281 -0.5938 95.4922 -0.6797 Q95.6562 -0.7656 95.7656 -0.9219 Q95.875 -1.0781 95.9375 -1.4062 Q96 -1.7344 96 -2.4062 L96 -6.6719 Q96 -7.2969 95.9844 -7.6797 Q95.9688 -8.0625 95.8516 -8.2891 Q95.7344 -8.5156 95.4922 -8.625 Q95.25 -8.7344 94.8125 -8.8125 L94.8125 -9.3438 L97.0938 -9.4219 L97.6875 -9.4219 L97.6875 -2.4375 Q97.6875 -1.6094 97.7656 -1.2812 Q97.8438 -0.9531 98.0625 -0.7812 Q98.2812 -0.6094 98.7812 -0.4844 L98.7812 0 L94.9531 0 L94.9531 -0.4844 ZM110.4531 0 L106.6094 0 L106.6094 -0.4844 Q107 -0.5938 107.1641 -0.6797 Q107.3281 -0.7656 107.4375 -0.9219 Q107.5469 -1.0781 107.6094 -1.4062 Q107.6719 -1.7344 107.6719 -2.4062 L107.6719 -4.9688 Q107.6719 -5.6406 107.6328 -6.2031 Q107.5938 -6.7656 107.5 -7.1172 Q107.4062 -7.4688 107.2812 -7.6719 Q107.1562 -7.875 106.9688 -8.0156 Q106.7812 -8.1562 106.5469 -8.2422 Q106.3125 -8.3281 105.9375 -8.3281 Q105.5625 -8.3281 105.2188 -8.1719 Q104.875 -8.0156 104.4609 -7.6484 Q104.0469 -7.2812 103.8672 -6.9141 Q103.6875 -6.5469 103.6875 -6.0781 L103.6875 -2.4375 Q103.6875 -1.6094 103.7656 -1.2812 Q103.8438 -0.9531 104.0625 -0.7812 Q104.2812 -0.6094 104.7812 -0.4844 L104.7812 0 L100.9531 0 L100.9531 -0.4844 Q101.3281 -0.5938 101.4922 -0.6797 Q101.6562 -0.7656 101.7656 -0.9219 Q101.875 -1.0781 101.9375 -1.4062 Q102 -1.7344 102 -2.4062 L102 -6.6719 Q102 -7.2969 101.9844 -7.6797 Q101.9688 -8.0625 101.8516 -8.2891 Q101.7344 -8.5156 101.4922 -8.625 Q101.25 -8.7344 100.8125 -8.8125 L100.8125 -9.3438 L103.0938 -9.4219 L103.6875 -9.4219 L103.5781 -7.8281 L103.7188 -7.7969 Q104.4375 -8.5312 104.8828 -8.8438 Q105.3281 -9.1562 105.7812 -9.3281 Q106.2344 -9.5 106.75 -9.5 Q107.2812 -9.5 107.6953 -9.375 Q108.1094 -9.25 108.4219 -8.9922 Q108.7344 -8.7344 108.9453 -8.3594 Q109.1562 -7.9844 109.2578 -7.4609 Q109.3594 -6.9375 109.3594 -6.125 L109.3594 -2.4375 Q109.3594 -1.7656 109.3984 -1.4609 Q109.4375 -1.1562 109.5312 -0.9922 Q109.625 -0.8281 109.8125 -0.7188 Q110 -0.6094 110.4531 -0.4844 L110.4531 0 ZM118.7344 -13.1719 L118.7344 -11.2656 L116.9375 -11.2656 L116.9375 -13.1719 L118.7344 -13.1719 ZM115.9531 -0.4844 Q116.3281 -0.5938 116.4922 -0.6797 Q116.6562 -0.7656 116.7656 -0.9219 Q116.875 -1.0781 116.9375 -1.4062 Q117 -1.7344 117 -2.4062 L117 -6.6719 Q117 -7.2969 116.9844 -7.6797 Q116.9688 -8.0625 116.8516 -8.2891 Q116.7344 -8.5156 116.4922 -8.625 Q116.25 -8.7344 115.8125 -8.8125 L115.8125 -9.3438 L118.0938 -9.4219 L118.6875 -9.4219 L118.6875 -2.4375 Q118.6875 -1.6094 118.7656 -1.2812 Q118.8438 -0.9531 119.0625 -0.7812 Q119.2812 -0.6094 119.7812 -0.4844 L119.7812 0 L115.9531 0 L115.9531 -0.4844 ZM131.4531 0 L127.6094 0 L127.6094 -0.4844 Q128 -0.5938 128.1641 -0.6797 Q128.3281 -0.7656 128.4375 -0.9219 Q128.5469 -1.0781 128.6094 -1.4062 Q128.6719 -1.7344 128.6719 -2.4062 L128.6719 -4.9688 Q128.6719 -5.6406 128.6328 -6.2031 Q128.5938 -6.7656 128.5 -7.1172 Q128.4062 -7.4688 128.2812 -7.6719 Q128.1562 -7.875 127.9688 -8.0156 Q127.7812 -8.1562 127.5469 -8.2422 Q127.3125 -8.3281 126.9375 -8.3281 Q126.5625 -8.3281 126.2188 -8.1719 Q125.875 -8.0156 125.4609 -7.6484 Q125.0469 -7.2812 124.8672 -6.9141 Q124.6875 -6.5469 124.6875 -6.0781 L124.6875 -2.4375 Q124.6875 -1.6094 124.7656 -1.2812 Q124.8438 -0.9531 125.0625 -0.7812 Q125.2812 -0.6094 125.7812 -0.4844 L125.7812 0 L121.9531 0 L121.9531 -0.4844 Q122.3281 -0.5938 122.4922 -0.6797 Q122.6562 -0.7656 122.7656 -0.9219 Q122.875 -1.0781 122.9375 -1.4062 Q123 -1.7344 123 -2.4062 L123 -6.6719 Q123 -7.2969 122.9844 -7.6797 Q122.9688 -8.0625 122.8516 -8.2891 Q122.7344 -8.5156 122.4922 -8.625 Q122.25 -8.7344 121.8125 -8.8125 L121.8125 -9.3438 L124.0938 -9.4219 L124.6875 -9.4219 L124.5781 -7.8281 L124.7188 -7.7969 Q125.4375 -8.5312 125.8828 -8.8438 Q126.3281 -9.1562 126.7812 -9.3281 Q127.2344 -9.5 127.75 -9.5 Q128.2812 -9.5 128.6953 -9.375 Q129.1094 -9.25 129.4219 -8.9922 Q129.7344 -8.7344 129.9453 -8.3594 Q130.1562 -7.9844 130.2578 -7.4609 Q130.3594 -6.9375 130.3594 -6.125 L130.3594 -2.4375 Q130.3594 -1.7656 130.3984 -1.4609 Q130.4375 -1.1562 130.5312 -0.9922 Q130.625 -0.8281 130.8125 -0.7188 Q131 -0.6094 131.4531 -0.4844 L131.4531 0 ZM139.5625 -2.4375 Q139.5625 -1.6094 139.6406 -1.2812 Q139.7188 -0.9531 139.9375 -0.7812 Q140.1562 -0.6094 140.6562 -0.4844 L140.6562 0 L136.7656 0 L136.7656 -0.4844 Q137.2656 -0.6094 137.4531 -0.7422 Q137.6406 -0.875 137.7266 -1.0703 Q137.8125 -1.2656 137.8438 -1.5938 Q137.875 -1.9219 137.875 -2.4375 L137.875 -10.6094 Q137.875 -11.5469 137.8594 -11.9219 Q137.8438 -12.2969 137.7812 -12.5547 Q137.7188 -12.8125 137.6094 -12.9609 Q137.5 -13.1094 137.3047 -13.1953 Q137.1094 -13.2812 136.6094 -13.375 L136.6094 -13.875 L138.9688 -13.9688 L139.5625 -13.9688 L139.5625 -2.4375 ZM147.5938 -1.3906 L147.4531 -1.4375 Q146.5938 -0.5625 145.8516 -0.2031 Q145.1094 0.1562 144.2656 0.1562 Q143.5156 0.1562 142.9531 -0.1328 Q142.3906 -0.4219 142.0859 -0.9453 Q141.7812 -1.4688 141.7812 -2.1562 Q141.7812 -3.5781 143.1953 -4.3516 Q144.6094 -5.125 147.4219 -5.25 L147.4219 -5.8906 Q147.4219 -6.9062 147.2266 -7.4922 Q147.0312 -8.0781 146.6172 -8.3516 Q146.2031 -8.625 145.5 -8.625 Q144.7344 -8.625 144.2656 -8.2266 Q143.7969 -7.8281 143.5625 -7.0156 L142.2969 -7.0156 L142.2969 -8.2969 Q143.2344 -8.7812 143.8594 -9.0078 Q144.4844 -9.2344 145.1094 -9.3672 Q145.7344 -9.5 146.375 -9.5 Q147.3438 -9.5 147.9297 -9.1953 Q148.5156 -8.8906 148.8047 -8.2578 Q149.0938 -7.625 149.0938 -6.3438 L149.0938 -2.9375 Q149.0938 -2.2188 149.1016 -1.9219 Q149.1094 -1.625 149.1641 -1.3672 Q149.2188 -1.1094 149.3125 -0.9609 Q149.4062 -0.8125 149.6016 -0.7031 Q149.7969 -0.5938 150.2188 -0.4844 L150.2188 0 L147.5469 0 L147.5938 -1.3906 ZM147.4219 -4.4531 Q145.4375 -4.4375 144.4531 -3.9297 Q143.4688 -3.4219 143.4688 -2.3906 Q143.4688 -1.8438 143.6953 -1.5156 Q143.9219 -1.1875 144.2656 -1.0703 Q144.6094 -0.9531 145.0781 -0.9531 Q145.7344 -0.9531 146.2812 -1.2734 Q146.8281 -1.5938 147.125 -2.0938 Q147.4219 -2.5938 147.4219 -3.0781 L147.4219 -4.4531 ZM156.0781 0.7969 Q155.5469 2.0156 155.0391 2.7656 Q154.5312 3.5156 153.9219 3.8984 Q153.3125 4.2812 152.4688 4.2812 Q151.9219 4.2812 151.25 4.1562 L151.25 2.2188 L152.125 2.2188 Q152.2344 2.625 152.4141 2.7812 Q152.5938 2.9375 152.9219 2.9375 Q153.2188 2.9375 153.4453 2.8203 Q153.6719 2.7031 153.9219 2.4297 Q154.1719 2.1562 154.5078 1.5938 Q154.8438 1.0312 155.2656 0.1562 L152.5312 -7.2031 Q152.2656 -7.9062 152.1094 -8.1953 Q151.9531 -8.4844 151.7656 -8.625 Q151.5781 -8.7656 151.2031 -8.8594 L151.2031 -9.3438 L155.1719 -9.3438 L155.1719 -8.8594 Q154.7188 -8.75 154.5312 -8.6484 Q154.3438 -8.5469 154.2578 -8.3828 Q154.1719 -8.2188 154.1719 -7.9688 Q154.1719 -7.7031 154.2344 -7.4219 Q154.2969 -7.1406 154.4219 -6.7656 L156.1719 -1.8594 L158.125 -6.5469 Q158.2812 -6.9375 158.375 -7.2656 Q158.4688 -7.5938 158.4688 -7.875 Q158.4688 -8.2969 158.2422 -8.5156 Q158.0156 -8.7344 157.4531 -8.8594 L157.4531 -9.3438 L161.0938 -9.3438 L161.0938 -8.8594 Q160.7188 -8.7812 160.5156 -8.6172 Q160.3125 -8.4531 160.1016 -8.1094 Q159.8906 -7.7656 159.6094 -7.1406 L156.0781 0.7969 ZM169.75 -1.6562 Q169.125 -1 168.6016 -0.6328 Q168.0781 -0.2656 167.4531 -0.0547 Q166.8281 0.1562 166.0781 0.1562 Q164.0625 0.1562 163.0391 -1.0469 Q162.0156 -2.25 162.0156 -4.6094 Q162.0156 -6.0625 162.5391 -7.1797 Q163.0625 -8.2969 164.0312 -8.8984 Q165 -9.5 166.25 -9.5 Q167.2344 -9.5 167.9297 -9.1875 Q168.625 -8.875 169.0391 -8.3359 Q169.4531 -7.7969 169.6875 -6.9688 Q169.9219 -6.1406 169.9531 -4.8125 L163.7969 -4.8125 L163.7969 -4.6406 Q163.7969 -3.4844 164.0547 -2.7031 Q164.3125 -1.9219 164.9062 -1.4766 Q165.5 -1.0312 166.4375 -1.0312 Q167.2344 -1.0312 167.875 -1.3281 Q168.5156 -1.625 169.1562 -2.2969 L169.75 -1.6562 ZM168.1094 -5.625 Q168.0469 -6.6875 167.8438 -7.3516 Q167.6406 -8.0156 167.2344 -8.375 Q166.8281 -8.7344 166.1562 -8.7344 Q165.1562 -8.7344 164.5547 -7.9297 Q163.9531 -7.125 163.8438 -5.625 L168.1094 -5.625 ZM174.5781 -7.7188 L174.7188 -7.6875 Q175.2656 -8.3438 175.7188 -8.7188 Q176.1719 -9.0938 176.7031 -9.2969 Q177.2344 -9.5 177.9219 -9.5 Q178.4844 -9.5 178.9375 -9.4375 L178.9375 -7.2031 L177.8438 -7.2031 Q177.6094 -7.7188 177.3438 -7.9609 Q177.0781 -8.2031 176.6094 -8.2031 Q176.2656 -8.2031 175.9219 -8 Q175.5781 -7.7969 175.25 -7.4062 Q174.9219 -7.0156 174.8047 -6.6719 Q174.6875 -6.3281 174.6875 -5.8594 L174.6875 -2.4375 Q174.6875 -1.5469 174.7891 -1.2109 Q174.8906 -0.875 175.1406 -0.7188 Q175.3906 -0.5625 175.8906 -0.4844 L175.8906 0 L171.9531 0 L171.9531 -0.4844 Q172.3281 -0.5938 172.4922 -0.6797 Q172.6562 -0.7656 172.7734 -0.9219 Q172.8906 -1.0781 172.9453 -1.4062 Q173 -1.7344 173 -2.4062 L173 -6.6719 Q173 -7.2969 172.9844 -7.6797 Q172.9688 -8.0625 172.8516 -8.2891 Q172.7344 -8.5156 172.4922 -8.625 Q172.25 -8.7344 171.8125 -8.8125 L171.8125 -9.3281 L174.0938 -9.4219 L174.6875 -9.4219 L174.5781 -7.7188 ZM188.0781 0.7969 Q187.5469 2.0156 187.0391 2.7656 Q186.5312 3.5156 185.9219 3.8984 Q185.3125 4.2812 184.4688 4.2812 Q183.9219 4.2812 183.25 4.1562 L183.25 2.2188 L184.125 2.2188 Q184.2344 2.625 184.4141 2.7812 Q184.5938 2.9375 184.9219 2.9375 Q185.2188 2.9375 185.4453 2.8203 Q185.6719 2.7031 185.9219 2.4297 Q186.1719 2.1562 186.5078 1.5938 Q186.8438 1.0312 187.2656 0.1562 L184.5312 -7.2031 Q184.2656 -7.9062 184.1094 -8.1953 Q183.9531 -8.4844 183.7656 -8.625 Q183.5781 -8.7656 183.2031 -8.8594 L183.2031 -9.3438 L187.1719 -9.3438 L187.1719 -8.8594 Q186.7188 -8.75 186.5312 -8.6484 Q186.3438 -8.5469 186.2578 -8.3828 Q186.1719 -8.2188 186.1719 -7.9688 Q186.1719 -7.7031 186.2344 -7.4219 Q186.2969 -7.1406 186.4219 -6.7656 L188.1719 -1.8594 L190.125 -6.5469 Q190.2812 -6.9375 190.375 -7.2656 Q190.4688 -7.5938 190.4688 -7.875 Q190.4688 -8.2969 190.2422 -8.5156 Q190.0156 -8.7344 189.4531 -8.8594 L189.4531 -9.3438 L193.0938 -9.3438 L193.0938 -8.8594 Q192.7188 -8.7812 192.5156 -8.6172 Q192.3125 -8.4531 192.1016 -8.1094 Q191.8906 -7.7656 191.6094 -7.1406 L188.0781 0.7969 ZM198.5938 -4.3906 L194.0625 -4.3906 L194.0625 -5.9062 L198.5938 -5.9062 L198.5938 -4.3906 ZM207.5469 -10.6094 Q207.5469 -11.5469 207.5312 -11.9219 Q207.5156 -12.2969 207.4531 -12.5547 Q207.3906 -12.8125 207.2734 -12.9609 Q207.1562 -13.1094 206.9688 -13.1953 Q206.7812 -13.2812 206.2812 -13.375 L206.2812 -13.875 L208.6406 -13.9688 L209.2188 -13.9688 L209.2188 -2.6719 Q209.2188 -1.9062 209.25 -1.5781 Q209.2812 -1.25 209.375 -1.0547 Q209.4688 -0.8594 209.6797 -0.7344 Q209.8906 -0.6094 210.4219 -0.5156 L210.4219 0 L208.1094 0.0938 L207.5312 0.0938 L207.6406 -1.5 L207.5 -1.5469 Q206.8906 -0.8906 206.4375 -0.5625 Q205.9844 -0.2344 205.4688 -0.0391 Q204.9531 0.1562 204.3594 0.1562 Q202.7656 0.1562 201.8984 -1.0625 Q201.0312 -2.2812 201.0312 -4.5781 Q201.0312 -6.1719 201.5938 -7.2891 Q202.1562 -8.4062 203.1172 -8.9531 Q204.0781 -9.5 205.2812 -9.5 Q205.9219 -9.5 206.4531 -9.3984 Q206.9844 -9.2969 207.5469 -9.0625 L207.5469 -10.6094 ZM207.5469 -5.7969 Q207.5469 -6.5469 207.4766 -7.0078 Q207.4062 -7.4688 207.2422 -7.7812 Q207.0781 -8.0938 206.8047 -8.3125 Q206.5312 -8.5312 206.2031 -8.625 Q205.875 -8.7188 205.4219 -8.7188 Q204.1719 -8.7188 203.5156 -7.7188 Q202.8594 -6.7188 202.8594 -4.8438 Q202.8594 -2.9688 203.3984 -1.9922 Q203.9375 -1.0156 205.0312 -1.0156 Q205.4531 -1.0156 205.7422 -1.0859 Q206.0312 -1.1562 206.3047 -1.3203 Q206.5781 -1.4844 206.8594 -1.7656 Q207.1406 -2.0469 207.2734 -2.2812 Q207.4062 -2.5156 207.4766 -2.8203 Q207.5469 -3.125 207.5469 -3.6094 L207.5469 -5.7969 ZM214.7344 -13.1719 L214.7344 -11.2656 L212.9375 -11.2656 L212.9375 -13.1719 L214.7344 -13.1719 ZM211.9531 -0.4844 Q212.3281 -0.5938 212.4922 -0.6797 Q212.6562 -0.7656 212.7656 -0.9219 Q212.875 -1.0781 212.9375 -1.4062 Q213 -1.7344 213 -2.4062 L213 -6.6719 Q213 -7.2969 212.9844 -7.6797 Q212.9688 -8.0625 212.8516 -8.2891 Q212.7344 -8.5156 212.4922 -8.625 Q212.25 -8.7344 211.8125 -8.8125 L211.8125 -9.3438 L214.0938 -9.4219 L214.6875 -9.4219 L214.6875 -2.4375 Q214.6875 -1.6094 214.7656 -1.2812 Q214.8438 -0.9531 215.0625 -0.7812 Q215.2812 -0.6094 215.7812 -0.4844 L215.7812 0 L211.9531 0 L211.9531 -0.4844 ZM220.5781 -7.7188 L220.7188 -7.6875 Q221.2656 -8.3438 221.7188 -8.7188 Q222.1719 -9.0938 222.7031 -9.2969 Q223.2344 -9.5 223.9219 -9.5 Q224.4844 -9.5 224.9375 -9.4375 L224.9375 -7.2031 L223.8438 -7.2031 Q223.6094 -7.7188 223.3438 -7.9609 Q223.0781 -8.2031 222.6094 -8.2031 Q222.2656 -8.2031 221.9219 -8 Q221.5781 -7.7969 221.25 -7.4062 Q220.9219 -7.0156 220.8047 -6.6719 Q220.6875 -6.3281 220.6875 -5.8594 L220.6875 -2.4375 Q220.6875 -1.5469 220.7891 -1.2109 Q220.8906 -0.875 221.1406 -0.7188 Q221.3906 -0.5625 221.8906 -0.4844 L221.8906 0 L217.9531 0 L217.9531 -0.4844 Q218.3281 -0.5938 218.4922 -0.6797 Q218.6562 -0.7656 218.7734 -0.9219 Q218.8906 -1.0781 218.9453 -1.4062 Q219 -1.7344 219 -2.4062 L219 -6.6719 Q219 -7.2969 218.9844 -7.6797 Q218.9688 -8.0625 218.8516 -8.2891 Q218.7344 -8.5156 218.4922 -8.625 Q218.25 -8.7344 217.8125 -8.8125 L217.8125 -9.3281 L220.0938 -9.4219 L220.6875 -9.4219 L220.5781 -7.7188 ZM233.75 -1.6562 Q233.125 -1 232.6016 -0.6328 Q232.0781 -0.2656 231.4531 -0.0547 Q230.8281 0.1562 230.0781 0.1562 Q228.0625 0.1562 227.0391 -1.0469 Q226.0156 -2.25 226.0156 -4.6094 Q226.0156 -6.0625 226.5391 -7.1797 Q227.0625 -8.2969 228.0312 -8.8984 Q229 -9.5 230.25 -9.5 Q231.2344 -9.5 231.9297 -9.1875 Q232.625 -8.875 233.0391 -8.3359 Q233.4531 -7.7969 233.6875 -6.9688 Q233.9219 -6.1406 233.9531 -4.8125 L227.7969 -4.8125 L227.7969 -4.6406 Q227.7969 -3.4844 228.0547 -2.7031 Q228.3125 -1.9219 228.9062 -1.4766 Q229.5 -1.0312 230.4375 -1.0312 Q231.2344 -1.0312 231.875 -1.3281 Q232.5156 -1.625 233.1562 -2.2969 L233.75 -1.6562 ZM232.1094 -5.625 Q232.0469 -6.6875 231.8438 -7.3516 Q231.6406 -8.0156 231.2344 -8.375 Q230.8281 -8.7344 230.1562 -8.7344 Q229.1562 -8.7344 228.5547 -7.9297 Q227.9531 -7.125 227.8438 -5.625 L232.1094 -5.625 ZM243.2188 -9.1094 L243.2188 -7.0781 L241.9844 -7.0781 Q241.8125 -7.7031 241.5703 -8.0703 Q241.3281 -8.4375 241.0078 -8.5859 Q240.6875 -8.7344 240.2031 -8.7344 Q239.5156 -8.7344 238.9922 -8.2969 Q238.4688 -7.8594 238.1641 -6.9609 Q237.8594 -6.0625 237.8594 -4.75 Q237.8594 -3.9219 237.9766 -3.2344 Q238.0938 -2.5469 238.375 -2.0625 Q238.6562 -1.5781 239.125 -1.3047 Q239.5938 -1.0312 240.2812 -1.0312 Q240.9531 -1.0312 241.5391 -1.2891 Q242.125 -1.5469 242.75 -2.2188 L243.2969 -1.5781 Q242.7969 -1.0312 242.4219 -0.7344 Q242.0469 -0.4375 241.6094 -0.2344 Q241.1719 -0.0312 240.75 0.0625 Q240.3281 0.1562 239.8281 0.1562 Q237.9844 0.1562 237.0078 -1.0703 Q236.0312 -2.2969 236.0312 -4.6094 Q236.0312 -6.0625 236.5781 -7.1797 Q237.125 -8.2969 238.1094 -8.8984 Q239.0938 -9.5 240.375 -9.5 Q241.1875 -9.5 241.8672 -9.4062 Q242.5469 -9.3125 243.2188 -9.1094 ZM244.3594 -8.8438 Q244.8438 -8.9219 245.1484 -9.1172 Q245.4531 -9.3125 245.625 -9.625 Q245.7969 -9.9375 245.8984 -10.3984 Q246 -10.8594 246.0938 -11.75 L247.4844 -11.75 L247.4844 -9.3438 L250.6406 -9.3438 L250.6406 -8.3438 L247.4844 -8.3438 L247.4844 -4 Q247.4844 -3.0625 247.5625 -2.5 Q247.6406 -1.9375 247.8594 -1.6172 Q248.0781 -1.2969 248.3516 -1.1641 Q248.625 -1.0312 249.0469 -1.0312 Q249.4375 -1.0312 249.7812 -1.1875 Q250.125 -1.3438 250.4531 -1.6562 L250.8906 -1.125 Q250.2031 -0.4531 249.5859 -0.1484 Q248.9688 0.1562 248.2969 0.1562 Q247.0312 0.1562 246.4219 -0.5938 Q245.8125 -1.3438 245.8125 -2.9375 L245.8125 -8.3438 L244.3594 -8.3438 L244.3594 -8.8438 ZM254.7344 -13.1719 L254.7344 -11.2656 L252.9375 -11.2656 L252.9375 -13.1719 L254.7344 -13.1719 ZM251.9531 -0.4844 Q252.3281 -0.5938 252.4922 -0.6797 Q252.6562 -0.7656 252.7656 -0.9219 Q252.875 -1.0781 252.9375 -1.4062 Q253 -1.7344 253 -2.4062 L253 -6.6719 Q253 -7.2969 252.9844 -7.6797 Q252.9688 -8.0625 252.8516 -8.2891 Q252.7344 -8.5156 252.4922 -8.625 Q252.25 -8.7344 251.8125 -8.8125 L251.8125 -9.3438 L254.0938 -9.4219 L254.6875 -9.4219 L254.6875 -2.4375 Q254.6875 -1.6094 254.7656 -1.2812 Q254.8438 -0.9531 255.0625 -0.7812 Q255.2812 -0.6094 255.7812 -0.4844 L255.7812 0 L251.9531 0 L251.9531 -0.4844 ZM262.2031 0.1562 Q260.1719 0.1562 259.1016 -1.0391 Q258.0312 -2.2344 258.0312 -4.5781 Q258.0312 -6.1875 258.5938 -7.3047 Q259.1562 -8.4219 260.1328 -8.9609 Q261.1094 -9.5 262.3594 -9.5 Q264.4375 -9.5 265.5156 -8.2891 Q266.5938 -7.0781 266.5938 -4.7969 Q266.5938 -3.1719 266.0547 -2.0625 Q265.5156 -0.9531 264.5312 -0.3984 Q263.5469 0.1562 262.2031 0.1562 ZM259.875 -4.7812 Q259.875 -2.7812 260.5156 -1.6953 Q261.1562 -0.6094 262.3438 -0.6094 Q263 -0.6094 263.4609 -0.9297 Q263.9219 -1.25 264.2031 -1.7891 Q264.4844 -2.3281 264.6172 -3.0312 Q264.75 -3.7344 264.75 -4.5156 Q264.75 -5.9531 264.4297 -6.8984 Q264.1094 -7.8438 263.5625 -8.2891 Q263.0156 -8.7344 262.3125 -8.7344 Q261.125 -8.7344 260.5 -7.7109 Q259.875 -6.6875 259.875 -4.7812 ZM278.4531 0 L274.6094 0 L274.6094 -0.4844 Q275 -0.5938 275.1641 -0.6797 Q275.3281 -0.7656 275.4375 -0.9219 Q275.5469 -1.0781 275.6094 -1.4062 Q275.6719 -1.7344 275.6719 -2.4062 L275.6719 -4.9688 Q275.6719 -5.6406 275.6328 -6.2031 Q275.5938 -6.7656 275.5 -7.1172 Q275.4062 -7.4688 275.2812 -7.6719 Q275.1562 -7.875 274.9688 -8.0156 Q274.7812 -8.1562 274.5469 -8.2422 Q274.3125 -8.3281 273.9375 -8.3281 Q273.5625 -8.3281 273.2188 -8.1719 Q272.875 -8.0156 272.4609 -7.6484 Q272.0469 -7.2812 271.8672 -6.9141 Q271.6875 -6.5469 271.6875 -6.0781 L271.6875 -2.4375 Q271.6875 -1.6094 271.7656 -1.2812 Q271.8438 -0.9531 272.0625 -0.7812 Q272.2812 -0.6094 272.7812 -0.4844 L272.7812 0 L268.9531 0 L268.9531 -0.4844 Q269.3281 -0.5938 269.4922 -0.6797 Q269.6562 -0.7656 269.7656 -0.9219 Q269.875 -1.0781 269.9375 -1.4062 Q270 -1.7344 270 -2.4062 L270 -6.6719 Q270 -7.2969 269.9844 -7.6797 Q269.9688 -8.0625 269.8516 -8.2891 Q269.7344 -8.5156 269.4922 -8.625 Q269.25 -8.7344 268.8125 -8.8125 L268.8125 -9.3438 L271.0938 -9.4219 L271.6875 -9.4219 L271.5781 -7.8281 L271.7188 -7.7969 Q272.4375 -8.5312 272.8828 -8.8438 Q273.3281 -9.1562 273.7812 -9.3281 Q274.2344 -9.5 274.75 -9.5 Q275.2812 -9.5 275.6953 -9.375 Q276.1094 -9.25 276.4219 -8.9922 Q276.7344 -8.7344 276.9453 -8.3594 Q277.1562 -7.9844 277.2578 -7.4609 Q277.3594 -6.9375 277.3594 -6.125 L277.3594 -2.4375 Q277.3594 -1.7656 277.3984 -1.4609 Q277.4375 -1.1562 277.5312 -0.9922 Q277.625 -0.8281 277.8125 -0.7188 Q278 -0.6094 278.4531 -0.4844 L278.4531 0 ZM286.7344 -13.1719 L286.7344 -11.2656 L284.9375 -11.2656 L284.9375 -13.1719 L286.7344 -13.1719 ZM283.9531 -0.4844 Q284.3281 -0.5938 284.4922 -0.6797 Q284.6562 -0.7656 284.7656 -0.9219 Q284.875 -1.0781 284.9375 -1.4062 Q285 -1.7344 285 -2.4062 L285 -6.6719 Q285 -7.2969 284.9844 -7.6797 Q284.9688 -8.0625 284.8516 -8.2891 Q284.7344 -8.5156 284.4922 -8.625 Q284.25 -8.7344 283.8125 -8.8125 L283.8125 -9.3438 L286.0938 -9.4219 L286.6875 -9.4219 L286.6875 -2.4375 Q286.6875 -1.6094 286.7656 -1.2812 Q286.8438 -0.9531 287.0625 -0.7812 Q287.2812 -0.6094 287.7812 -0.4844 L287.7812 0 L283.9531 0 L283.9531 -0.4844 ZM299.4531 0 L295.6094 0 L295.6094 -0.4844 Q296 -0.5938 296.1641 -0.6797 Q296.3281 -0.7656 296.4375 -0.9219 Q296.5469 -1.0781 296.6094 -1.4062 Q296.6719 -1.7344 296.6719 -2.4062 L296.6719 -4.9688 Q296.6719 -5.6406 296.6328 -6.2031 Q296.5938 -6.7656 296.5 -7.1172 Q296.4062 -7.4688 296.2812 -7.6719 Q296.1562 -7.875 295.9688 -8.0156 Q295.7812 -8.1562 295.5469 -8.2422 Q295.3125 -8.3281 294.9375 -8.3281 Q294.5625 -8.3281 294.2188 -8.1719 Q293.875 -8.0156 293.4609 -7.6484 Q293.0469 -7.2812 292.8672 -6.9141 Q292.6875 -6.5469 292.6875 -6.0781 L292.6875 -2.4375 Q292.6875 -1.6094 292.7656 -1.2812 Q292.8438 -0.9531 293.0625 -0.7812 Q293.2812 -0.6094 293.7812 -0.4844 L293.7812 0 L289.9531 0 L289.9531 -0.4844 Q290.3281 -0.5938 290.4922 -0.6797 Q290.6562 -0.7656 290.7656 -0.9219 Q290.875 -1.0781 290.9375 -1.4062 Q291 -1.7344 291 -2.4062 L291 -6.6719 Q291 -7.2969 290.9844 -7.6797 Q290.9688 -8.0625 290.8516 -8.2891 Q290.7344 -8.5156 290.4922 -8.625 Q290.25 -8.7344 289.8125 -8.8125 L289.8125 -9.3438 L292.0938 -9.4219 L292.6875 -9.4219 L292.5781 -7.8281 L292.7188 -7.7969 Q293.4375 -8.5312 293.8828 -8.8438 Q294.3281 -9.1562 294.7812 -9.3281 Q295.2344 -9.5 295.75 -9.5 Q296.2812 -9.5 296.6953 -9.375 Q297.1094 -9.25 297.4219 -8.9922 Q297.7344 -8.7344 297.9453 -8.3594 Q298.1562 -7.9844 298.2578 -7.4609 Q298.3594 -6.9375 298.3594 -6.125 L298.3594 -2.4375 Q298.3594 -1.7656 298.3984 -1.4609 Q298.4375 -1.1562 298.5312 -0.9922 Q298.625 -0.8281 298.8125 -0.7188 Q299 -0.6094 299.4531 -0.4844 L299.4531 0 ZM304.3594 -8.8438 Q304.8438 -8.9219 305.1484 -9.1172 Q305.4531 -9.3125 305.625 -9.625 Q305.7969 -9.9375 305.8984 -10.3984 Q306 -10.8594 306.0938 -11.75 L307.4844 -11.75 L307.4844 -9.3438 L310.6406 -9.3438 L310.6406 -8.3438 L307.4844 -8.3438 L307.4844 -4 Q307.4844 -3.0625 307.5625 -2.5 Q307.6406 -1.9375 307.8594 -1.6172 Q308.0781 -1.2969 308.3516 -1.1641 Q308.625 -1.0312 309.0469 -1.0312 Q309.4375 -1.0312 309.7812 -1.1875 Q310.125 -1.3438 310.4531 -1.6562 L310.8906 -1.125 Q310.2031 -0.4531 309.5859 -0.1484 Q308.9688 0.1562 308.2969 0.1562 Q307.0312 0.1562 306.4219 -0.5938 Q305.8125 -1.3438 305.8125 -2.9375 L305.8125 -8.3438 L304.3594 -8.3438 L304.3594 -8.8438 ZM319.75 -1.6562 Q319.125 -1 318.6016 -0.6328 Q318.0781 -0.2656 317.4531 -0.0547 Q316.8281 0.1562 316.0781 0.1562 Q314.0625 0.1562 313.0391 -1.0469 Q312.0156 -2.25 312.0156 -4.6094 Q312.0156 -6.0625 312.5391 -7.1797 Q313.0625 -8.2969 314.0312 -8.8984 Q315 -9.5 316.25 -9.5 Q317.2344 -9.5 317.9297 -9.1875 Q318.625 -8.875 319.0391 -8.3359 Q319.4531 -7.7969 319.6875 -6.9688 Q319.9219 -6.1406 319.9531 -4.8125 L313.7969 -4.8125 L313.7969 -4.6406 Q313.7969 -3.4844 314.0547 -2.7031 Q314.3125 -1.9219 314.9062 -1.4766 Q315.5 -1.0312 316.4375 -1.0312 Q317.2344 -1.0312 317.875 -1.3281 Q318.5156 -1.625 319.1562 -2.2969 L319.75 -1.6562 ZM318.1094 -5.625 Q318.0469 -6.6875 317.8438 -7.3516 Q317.6406 -8.0156 317.2344 -8.375 Q316.8281 -8.7344 316.1562 -8.7344 Q315.1562 -8.7344 314.5547 -7.9297 Q313.9531 -7.125 313.8438 -5.625 L318.1094 -5.625 ZM331.4531 0 L327.6094 0 L327.6094 -0.4844 Q328 -0.5938 328.1641 -0.6797 Q328.3281 -0.7656 328.4375 -0.9219 Q328.5469 -1.0781 328.6094 -1.4062 Q328.6719 -1.7344 328.6719 -2.4062 L328.6719 -4.9688 Q328.6719 -5.6406 328.6328 -6.2031 Q328.5938 -6.7656 328.5 -7.1172 Q328.4062 -7.4688 328.2812 -7.6719 Q328.1562 -7.875 327.9688 -8.0156 Q327.7812 -8.1562 327.5469 -8.2422 Q327.3125 -8.3281 326.9375 -8.3281 Q326.5625 -8.3281 326.2188 -8.1719 Q325.875 -8.0156 325.4609 -7.6484 Q325.0469 -7.2812 324.8672 -6.9141 Q324.6875 -6.5469 324.6875 -6.0781 L324.6875 -2.4375 Q324.6875 -1.6094 324.7656 -1.2812 Q324.8438 -0.9531 325.0625 -0.7812 Q325.2812 -0.6094 325.7812 -0.4844 L325.7812 0 L321.9531 0 L321.9531 -0.4844 Q322.3281 -0.5938 322.4922 -0.6797 Q322.6562 -0.7656 322.7656 -0.9219 Q322.875 -1.0781 322.9375 -1.4062 Q323 -1.7344 323 -2.4062 L323 -6.6719 Q323 -7.2969 322.9844 -7.6797 Q322.9688 -8.0625 322.8516 -8.2891 Q322.7344 -8.5156 322.4922 -8.625 Q322.25 -8.7344 321.8125 -8.8125 L321.8125 -9.3438 L324.0938 -9.4219 L324.6875 -9.4219 L324.5781 -7.8281 L324.7188 -7.7969 Q325.4375 -8.5312 325.8828 -8.8438 Q326.3281 -9.1562 326.7812 -9.3281 Q327.2344 -9.5 327.75 -9.5 Q328.2812 -9.5 328.6953 -9.375 Q329.1094 -9.25 329.4219 -8.9922 Q329.7344 -8.7344 329.9453 -8.3594 Q330.1562 -7.9844 330.2578 -7.4609 Q330.3594 -6.9375 330.3594 -6.125 L330.3594 -2.4375 Q330.3594 -1.7656 330.3984 -1.4609 Q330.4375 -1.1562 330.5312 -0.9922 Q330.625 -0.8281 330.8125 -0.7188 Q331 -0.6094 331.4531 -0.4844 L331.4531 0 ZM339.4844 -7.2031 L338.5469 -7.2031 Q338.3438 -7.7812 338.0469 -8.1172 Q337.75 -8.4531 337.3828 -8.5938 Q337.0156 -8.7344 336.4688 -8.7344 Q335.6875 -8.7344 335.2266 -8.3672 Q334.7656 -8 334.7656 -7.3594 Q334.7656 -6.9219 334.9531 -6.625 Q335.1406 -6.3281 335.5312 -6.0781 Q335.9219 -5.8281 336.9062 -5.4062 Q337.9062 -4.9688 338.4453 -4.6094 Q338.9844 -4.25 339.2891 -3.7734 Q339.5938 -3.2969 339.5938 -2.625 Q339.5938 -1.8594 339.3359 -1.3281 Q339.0781 -0.7969 338.5938 -0.4688 Q338.1094 -0.1406 337.4531 0.0078 Q336.7969 0.1562 336.0156 0.1562 Q335.1875 0.1562 334.4219 0.0312 Q333.6562 -0.0938 332.9219 -0.2812 L332.9219 -2.3281 L333.875 -2.3281 Q334.1406 -1.4219 334.6562 -1.0156 Q335.1719 -0.6094 336.0781 -0.6094 Q336.4375 -0.6094 336.7734 -0.6875 Q337.1094 -0.7656 337.375 -0.9375 Q337.6406 -1.1094 337.7969 -1.3984 Q337.9531 -1.6875 337.9531 -2.125 Q337.9531 -2.625 337.7578 -2.9375 Q337.5625 -3.25 337.1484 -3.5078 Q336.7344 -3.7656 335.7031 -4.2031 Q334.8125 -4.5781 334.2734 -4.9297 Q333.7344 -5.2812 333.4297 -5.7578 Q333.125 -6.2344 333.125 -6.8906 Q333.125 -7.7031 333.5625 -8.2891 Q334 -8.875 334.8203 -9.1875 Q335.6406 -9.5 336.7344 -9.5 Q337.375 -9.5 337.9766 -9.4375 Q338.5781 -9.375 339.4844 -9.1875 L339.4844 -7.2031 ZM344.7344 -13.1719 L344.7344 -11.2656 L342.9375 -11.2656 L342.9375 -13.1719 L344.7344 -13.1719 ZM341.9531 -0.4844 Q342.3281 -0.5938 342.4922 -0.6797 Q342.6562 -0.7656 342.7656 -0.9219 Q342.875 -1.0781 342.9375 -1.4062 Q343 -1.7344 343 -2.4062 L343 -6.6719 Q343 -7.2969 342.9844 -7.6797 Q342.9688 -8.0625 342.8516 -8.2891 Q342.7344 -8.5156 342.4922 -8.625 Q342.25 -8.7344 341.8125 -8.8125 L341.8125 -9.3438 L344.0938 -9.4219 L344.6875 -9.4219 L344.6875 -2.4375 Q344.6875 -1.6094 344.7656 -1.2812 Q344.8438 -0.9531 345.0625 -0.7812 Q345.2812 -0.6094 345.7812 -0.4844 L345.7812 0 L341.9531 0 L341.9531 -0.4844 ZM352.2031 0.1562 Q350.1719 0.1562 349.1016 -1.0391 Q348.0312 -2.2344 348.0312 -4.5781 Q348.0312 -6.1875 348.5938 -7.3047 Q349.1562 -8.4219 350.1328 -8.9609 Q351.1094 -9.5 352.3594 -9.5 Q354.4375 -9.5 355.5156 -8.2891 Q356.5938 -7.0781 356.5938 -4.7969 Q356.5938 -3.1719 356.0547 -2.0625 Q355.5156 -0.9531 354.5312 -0.3984 Q353.5469 0.1562 352.2031 0.1562 ZM349.875 -4.7812 Q349.875 -2.7812 350.5156 -1.6953 Q351.1562 -0.6094 352.3438 -0.6094 Q353 -0.6094 353.4609 -0.9297 Q353.9219 -1.25 354.2031 -1.7891 Q354.4844 -2.3281 354.6172 -3.0312 Q354.75 -3.7344 354.75 -4.5156 Q354.75 -5.9531 354.4297 -6.8984 Q354.1094 -7.8438 353.5625 -8.2891 Q353.0156 -8.7344 352.3125 -8.7344 Q351.125 -8.7344 350.5 -7.7109 Q349.875 -6.6875 349.875 -4.7812 ZM368.4531 0 L364.6094 0 L364.6094 -0.4844 Q365 -0.5938 365.1641 -0.6797 Q365.3281 -0.7656 365.4375 -0.9219 Q365.5469 -1.0781 365.6094 -1.4062 Q365.6719 -1.7344 365.6719 -2.4062 L365.6719 -4.9688 Q365.6719 -5.6406 365.6328 -6.2031 Q365.5938 -6.7656 365.5 -7.1172 Q365.4062 -7.4688 365.2812 -7.6719 Q365.1562 -7.875 364.9688 -8.0156 Q364.7812 -8.1562 364.5469 -8.2422 Q364.3125 -8.3281 363.9375 -8.3281 Q363.5625 -8.3281 363.2188 -8.1719 Q362.875 -8.0156 362.4609 -7.6484 Q362.0469 -7.2812 361.8672 -6.9141 Q361.6875 -6.5469 361.6875 -6.0781 L361.6875 -2.4375 Q361.6875 -1.6094 361.7656 -1.2812 Q361.8438 -0.9531 362.0625 -0.7812 Q362.2812 -0.6094 362.7812 -0.4844 L362.7812 0 L358.9531 0 L358.9531 -0.4844 Q359.3281 -0.5938 359.4922 -0.6797 Q359.6562 -0.7656 359.7656 -0.9219 Q359.875 -1.0781 359.9375 -1.4062 Q360 -1.7344 360 -2.4062 L360 -6.6719 Q360 -7.2969 359.9844 -7.6797 Q359.9688 -8.0625 359.8516 -8.2891 Q359.7344 -8.5156 359.4922 -8.625 Q359.25 -8.7344 358.8125 -8.8125 L358.8125 -9.3438 L361.0938 -9.4219 L361.6875 -9.4219 L361.5781 -7.8281 L361.7188 -7.7969 Q362.4375 -8.5312 362.8828 -8.8438 Q363.3281 -9.1562 363.7812 -9.3281 Q364.2344 -9.5 364.75 -9.5 Q365.2812 -9.5 365.6953 -9.375 Q366.1094 -9.25 366.4219 -8.9922 Q366.7344 -8.7344 366.9453 -8.3594 Q367.1562 -7.9844 367.2578 -7.4609 Q367.3594 -6.9375 367.3594 -6.125 L367.3594 -2.4375 Q367.3594 -1.7656 367.3984 -1.4609 Q367.4375 -1.1562 367.5312 -0.9922 Q367.625 -0.8281 367.8125 -0.7188 Q368 -0.6094 368.4531 -0.4844 L368.4531 0 Z" stroke="none"/></g></g></svg>