<?xml version="1.0" encoding="UTF-8" standalone="no"?><svg xmlns="http://www.w3.org/2000/svg" xmlns:xlink="http://www.w3.org/1999/xlink" stroke-dasharray="none" shape-rendering="auto" font-family="'Dialog'" width="406.812600" text-rendering="auto" fill-opacity="1" contentScriptType="text/ecmascript" color-interpolation="auto" color-rendering="auto" preserveAspectRatio="xMidYMid meet" font-size="12" fill="black" stroke="black" image-rendering="auto" stroke-miterlimit="10" zoomAndPan="magnify" version="1.0" stroke-linecap="square" stroke-linejoin="miter" contentStyleType="text/css" font-style="normal" height="53" stroke-width="1" stroke-dashoffset="0" font-weight="normal" stroke-opacity="1" y="-19.000000"><!--Converted from MathML using JEuclid--><defs id="genericDefs"/><g><g text-rendering="optimizeLegibility" transform="translate(0,34)" color-rendering="optimizeQuality" color-interpolation="linearRGB" image-rendering="optimizeQuality"><path d="M3.5625 -5.4375 L3.875 -5.4375 Q4.1875 -5.4375 4.3906 -5.5156 Q4.6406 -5.5938 4.9297 -5.8047 Q5.2188 -6.0156 5.7656 -6.5156 Q6.2188 -6.9375 6.4453 -7.2266 Q6.6719 -7.5156 6.7656 -7.7656 Q6.8438 -7.9688 6.8438 -8.1719 Q6.8438 -8.4688 6.6562 -8.6328 Q6.4688 -8.7969 6.0625 -8.8594 L6.0625 -9.3438 L10.2812 -9.3438 L10.2812 -8.8594 Q9.8281 -8.7656 9.3203 -8.4531 Q8.8125 -8.1406 8.2656 -7.6406 L6.0312 -5.5156 L8.8438 -1.8438 Q9.3281 -1.1875 9.7266 -0.8828 Q10.125 -0.5781 10.5938 -0.4844 L10.5938 0 L6.8438 0 L6.8438 -0.4844 Q7.0938 -0.5156 7.2109 -0.5938 Q7.3281 -0.6719 7.3281 -0.875 Q7.3281 -1.0156 7.2812 -1.1562 Q7.2344 -1.2969 7.0625 -1.5391 Q6.8906 -1.7812 6.4531 -2.3906 L5.2969 -3.9531 Q4.9688 -4.3906 4.8203 -4.5312 Q4.6719 -4.6719 4.5156 -4.7266 Q4.3594 -4.7812 4.1094 -4.7812 L3.5625 -4.7812 L3.5625 -2.4375 Q3.5625 -1.6094 3.6406 -1.2812 Q3.7188 -0.9531 3.9375 -0.7812 Q4.1562 -0.6094 4.6562 -0.4844 L4.6562 0 L0.7656 0 L0.7656 -0.4844 Q1.2656 -0.6094 1.4531 -0.7422 Q1.6406 -0.875 1.7266 -1.0703 Q1.8125 -1.2656 1.8438 -1.5938 Q1.875 -1.9219 1.875 -2.4375 L1.875 -10.6094 Q1.875 -11.5469 1.8594 -11.9219 Q1.8438 -12.2969 1.7812 -12.5547 Q1.7188 -12.8125 1.6094 -12.9609 Q1.5 -13.1094 1.3047 -13.1953 Q1.1094 -13.2812 0.6094 -13.375 L0.6094 -13.875 L2.9688 -13.9688 L3.5625 -13.9688 L3.5625 -5.4375 ZM15.2188 -7.0625 L15.2188 -8.4219 L23.8594 -8.4219 L23.8594 -7.0625 L15.2188 -7.0625 ZM15.2188 -3.0156 L15.2188 -4.3594 L23.8594 -4.3594 L23.8594 -3.0156 L15.2188 -3.0156 ZM32.5625 -7.7969 L32.6094 -7.7969 Q33.3594 -8.5625 33.8047 -8.875 Q34.25 -9.1875 34.6875 -9.3438 Q35.125 -9.5 35.625 -9.5 Q36.1562 -9.5 36.5781 -9.3672 Q37 -9.2344 37.3203 -8.9766 Q37.6406 -8.7188 37.8359 -8.3438 Q38.0312 -7.9688 38.1328 -7.4453 Q38.2344 -6.9219 38.2344 -6.125 L38.2344 -2.4375 Q38.2344 -1.5938 38.3047 -1.2891 Q38.375 -0.9844 38.5625 -0.8125 Q38.75 -0.6406 39.3281 -0.4844 L39.3281 0 L35.4844 0 L35.4844 -0.4844 Q35.8594 -0.5938 36.0312 -0.6797 Q36.2031 -0.7656 36.3125 -0.9219 Q36.4219 -1.0781 36.4844 -1.4062 Q36.5469 -1.7344 36.5469 -2.4062 L36.5469 -4.9688 Q36.5469 -6.2656 36.4141 -6.9531 Q36.2812 -7.6406 35.8984 -7.9844 Q35.5156 -8.3281 34.8281 -8.3281 Q34.4375 -8.3281 34.125 -8.1875 Q33.8125 -8.0469 33.3984 -7.6953 Q32.9844 -7.3438 32.7734 -6.9766 Q32.5625 -6.6094 32.5625 -6.1875 L32.5625 -2.4375 Q32.5625 -1.7812 32.6016 -1.5 Q32.6406 -1.2188 32.7344 -1.0234 Q32.8281 -0.8281 33.0312 -0.7109 Q33.2344 -0.5938 33.6562 -0.4844 L33.6562 0 L29.7812 0 L29.7812 -0.4844 Q30.2188 -0.5938 30.3984 -0.7031 Q30.5781 -0.8125 30.6797 -0.9766 Q30.7812 -1.1406 30.8359 -1.4531 Q30.8906 -1.7656 30.8906 -2.4375 L30.8906 -10.6094 Q30.8906 -11.5469 30.875 -11.9219 Q30.8594 -12.2969 30.7969 -12.5547 Q30.7344 -12.8125 30.6172 -12.9609 Q30.5 -13.1094 30.3125 -13.1953 Q30.125 -13.2812 29.625 -13.375 L29.625 -13.875 L31.9844 -13.9688 L32.5625 -13.9688 L32.5625 -7.7969 ZM46.5938 -1.3906 L46.4531 -1.4375 Q45.5938 -0.5625 44.8516 -0.2031 Q44.1094 0.1562 43.2656 0.1562 Q42.5156 0.1562 41.9531 -0.1328 Q41.3906 -0.4219 41.0859 -0.9453 Q40.7812 -1.4688 40.7812 -2.1562 Q40.7812 -3.5781 42.1953 -4.3516 Q43.6094 -5.125 46.4219 -5.25 L46.4219 -5.8906 Q46.4219 -6.9062 46.2266 -7.4922 Q46.0312 -8.0781 45.6172 -8.3516 Q45.2031 -8.625 44.5 -8.625 Q43.7344 -8.625 43.2656 -8.2266 Q42.7969 -7.8281 42.5625 -7.0156 L41.2969 -7.0156 L41.2969 -8.2969 Q42.2344 -8.7812 42.8594 -9.0078 Q43.4844 -9.2344 44.1094 -9.3672 Q44.7344 -9.5 45.375 -9.5 Q46.3438 -9.5 46.9297 -9.1953 Q47.5156 -8.8906 47.8047 -8.2578 Q48.0938 -7.625 48.0938 -6.3438 L48.0938 -2.9375 Q48.0938 -2.2188 48.1016 -1.9219 Q48.1094 -1.625 48.1641 -1.3672 Q48.2188 -1.1094 48.3125 -0.9609 Q48.4062 -0.8125 48.6016 -0.7031 Q48.7969 -0.5938 49.2188 -0.4844 L49.2188 0 L46.5469 0 L46.5938 -1.3906 ZM46.4219 -4.4531 Q44.4375 -4.4375 43.4531 -3.9297 Q42.4688 -3.4219 42.4688 -2.3906 Q42.4688 -1.8438 42.6953 -1.5156 Q42.9219 -1.1875 43.2656 -1.0703 Q43.6094 -0.9531 44.0781 -0.9531 Q44.7344 -0.9531 45.2812 -1.2734 Q45.8281 -1.5938 46.125 -2.0938 Q46.4219 -2.5938 46.4219 -3.0781 L46.4219 -4.4531 ZM53.5781 -7.7188 L53.7188 -7.6875 Q54.2656 -8.3438 54.7188 -8.7188 Q55.1719 -9.0938 55.7031 -9.2969 Q56.2344 -9.5 56.9219 -9.5 Q57.4844 -9.5 57.9375 -9.4375 L57.9375 -7.2031 L56.8438 -7.2031 Q56.6094 -7.7188 56.3438 -7.9609 Q56.0781 -8.2031 55.6094 -8.2031 Q55.2656 -8.2031 54.9219 -8 Q54.5781 -7.7969 54.25 -7.4062 Q53.9219 -7.0156 53.8047 -6.6719 Q53.6875 -6.3281 53.6875 -5.8594 L53.6875 -2.4375 Q53.6875 -1.5469 53.7891 -1.2109 Q53.8906 -0.875 54.1406 -0.7188 Q54.3906 -0.5625 54.8906 -0.4844 L54.8906 0 L50.9531 0 L50.9531 -0.4844 Q51.3281 -0.5938 51.4922 -0.6797 Q51.6562 -0.7656 51.7734 -0.9219 Q51.8906 -1.0781 51.9453 -1.4062 Q52 -1.7344 52 -2.4062 L52 -6.6719 Q52 -7.2969 51.9844 -7.6797 Q51.9688 -8.0625 51.8516 -8.2891 Q51.7344 -8.5156 51.4922 -8.625 Q51.25 -8.7344 50.8125 -8.8125 L50.8125 -9.3281 L53.0938 -9.4219 L53.6875 -9.4219 L53.5781 -7.7188 ZM61.5781 -7.8281 L61.7188 -7.7969 Q62.3125 -8.375 62.6875 -8.6719 Q63.0625 -8.9688 63.4141 -9.1562 Q63.7656 -9.3438 64.0703 -9.4219 Q64.375 -9.5 64.7031 -9.5 Q65.6719 -9.5 66.2891 -9.0469 Q66.9062 -8.5938 67.1406 -7.6719 Q67.875 -8.4062 68.3281 -8.7578 Q68.7812 -9.1094 69.2578 -9.3047 Q69.7344 -9.5 70.2812 -9.5 Q70.9375 -9.5 71.4062 -9.3047 Q71.875 -9.1094 72.2031 -8.7188 Q72.5312 -8.3281 72.6797 -7.7266 Q72.8281 -7.125 72.8281 -6.125 L72.8281 -2.4375 Q72.8281 -1.7031 72.8828 -1.4219 Q72.9375 -1.1406 73.0312 -0.9844 Q73.125 -0.8281 73.3047 -0.7109 Q73.4844 -0.5938 73.9219 -0.4844 L73.9219 0 L70.0938 0 L70.0938 -0.4844 Q70.4688 -0.5938 70.6328 -0.6797 Q70.7969 -0.7656 70.9141 -0.9219 Q71.0312 -1.0781 71.0938 -1.4062 Q71.1562 -1.7344 71.1562 -2.4062 L71.1562 -4.9688 Q71.1562 -5.7969 71.1094 -6.3359 Q71.0625 -6.875 70.9688 -7.1953 Q70.875 -7.5156 70.75 -7.7031 Q70.625 -7.8906 70.4531 -8.0312 Q70.2812 -8.1719 70.0625 -8.25 Q69.8438 -8.3281 69.4688 -8.3281 Q69.0781 -8.3281 68.7422 -8.1719 Q68.4062 -8.0156 68.0078 -7.6406 Q67.6094 -7.2656 67.4375 -6.8906 Q67.2656 -6.5156 67.2656 -6 L67.2656 -2.4375 Q67.2656 -1.7031 67.3125 -1.4219 Q67.3594 -1.1406 67.4531 -0.9844 Q67.5469 -0.8281 67.7266 -0.7109 Q67.9062 -0.5938 68.3594 -0.4844 L68.3594 0 L64.5156 0 L64.5156 -0.4844 Q64.8906 -0.5938 65.0625 -0.6797 Q65.2344 -0.7656 65.3438 -0.9219 Q65.4531 -1.0781 65.5156 -1.4062 Q65.5781 -1.7344 65.5781 -2.4062 L65.5781 -4.9688 Q65.5781 -5.8281 65.5312 -6.375 Q65.4844 -6.9219 65.3828 -7.2578 Q65.2812 -7.5938 65.1172 -7.7969 Q64.9531 -8 64.7891 -8.1094 Q64.625 -8.2188 64.3984 -8.2734 Q64.1719 -8.3281 63.8906 -8.3281 Q63.4844 -8.3281 63.1328 -8.1406 Q62.7812 -7.9531 62.4141 -7.6172 Q62.0469 -7.2812 61.8672 -6.9062 Q61.6875 -6.5312 61.6875 -6.1094 L61.6875 -2.4375 Q61.6875 -1.8906 61.7109 -1.5938 Q61.7344 -1.2969 61.8047 -1.1328 Q61.875 -0.9688 61.9688 -0.8672 Q62.0625 -0.7656 62.2422 -0.6719 Q62.4219 -0.5781 62.7812 -0.4844 L62.7812 0 L58.9531 0 L58.9531 -0.4844 Q59.3281 -0.5938 59.4922 -0.6797 Q59.6562 -0.7656 59.7734 -0.9219 Q59.8906 -1.0781 59.9453 -1.4062 Q60 -1.7344 60 -2.4062 L60 -6.6719 Q60 -7.2969 59.9844 -7.6797 Q59.9688 -8.0625 59.8516 -8.2891 Q59.7344 -8.5156 59.4922 -8.625 Q59.25 -8.7344 58.8125 -8.8125 L58.8125 -9.3438 L61.0938 -9.4219 L61.6875 -9.4219 L61.5781 -7.8281 ZM80.2031 0.1562 Q78.1719 0.1562 77.1016 -1.0391 Q76.0312 -2.2344 76.0312 -4.5781 Q76.0312 -6.1875 76.5938 -7.3047 Q77.1562 -8.4219 78.1328 -8.9609 Q79.1094 -9.5 80.3594 -9.5 Q82.4375 -9.5 83.5156 -8.2891 Q84.5938 -7.0781 84.5938 -4.7969 Q84.5938 -3.1719 84.0547 -2.0625 Q83.5156 -0.9531 82.5312 -0.3984 Q81.5469 0.1562 80.2031 0.1562 ZM77.875 -4.7812 Q77.875 -2.7812 78.5156 -1.6953 Q79.1562 -0.6094 80.3438 -0.6094 Q81 -0.6094 81.4609 -0.9297 Q81.9219 -1.25 82.2031 -1.7891 Q82.4844 -2.3281 82.6172 -3.0312 Q82.75 -3.7344 82.75 -4.5156 Q82.75 -5.9531 82.4297 -6.8984 Q82.1094 -7.8438 81.5625 -8.2891 Q81.0156 -8.7344 80.3125 -8.7344 Q79.125 -8.7344 78.5 -7.7109 Q77.875 -6.6875 77.875 -4.7812 ZM96.4531 0 L92.6094 0 L92.6094 -0.4844 Q93 -0.5938 93.1641 -0.6797 Q93.3281 -0.7656 93.4375 -0.9219 Q93.5469 -1.0781 93.6094 -1.4062 Q93.6719 -1.7344 93.6719 -2.4062 L93.6719 -4.9688 Q93.6719 -5.6406 93.6328 -6.2031 Q93.5938 -6.7656 93.5 -7.1172 Q93.4062 -7.4688 93.2812 -7.6719 Q93.1562 -7.875 92.9688 -8.0156 Q92.7812 -8.1562 92.5469 -8.2422 Q92.3125 -8.3281 91.9375 -8.3281 Q91.5625 -8.3281 91.2188 -8.1719 Q90.875 -8.0156 90.4609 -7.6484 Q90.0469 -7.2812 89.8672 -6.9141 Q89.6875 -6.5469 89.6875 -6.0781 L89.6875 -2.4375 Q89.6875 -1.6094 89.7656 -1.2812 Q89.8438 -0.9531 90.0625 -0.7812 Q90.2812 -0.6094 90.7812 -0.4844 L90.7812 0 L86.9531 0 L86.9531 -0.4844 Q87.3281 -0.5938 87.4922 -0.6797 Q87.6562 -0.7656 87.7656 -0.9219 Q87.875 -1.0781 87.9375 -1.4062 Q88 -1.7344 88 -2.4062 L88 -6.6719 Q88 -7.2969 87.9844 -7.6797 Q87.9688 -8.0625 87.8516 -8.2891 Q87.7344 -8.5156 87.4922 -8.625 Q87.25 -8.7344 86.8125 -8.8125 L86.8125 -9.3438 L89.0938 -9.4219 L89.6875 -9.4219 L89.5781 -7.8281 L89.7188 -7.7969 Q90.4375 -8.5312 90.8828 -8.8438 Q91.3281 -9.1562 91.7812 -9.3281 Q92.2344 -9.5 92.75 -9.5 Q93.2812 -9.5 93.6953 -9.375 Q94.1094 -9.25 94.4219 -8.9922 Q94.7344 -8.7344 94.9453 -8.3594 Q95.1562 -7.9844 95.2578 -7.4609 Q95.3594 -6.9375 95.3594 -6.125 L95.3594 -2.4375 Q95.3594 -1.7656 95.3984 -1.4609 Q95.4375 -1.1562 95.5312 -0.9922 Q95.625 -0.8281 95.8125 -0.7188 Q96 -0.6094 96.4531 -0.4844 L96.4531 0 ZM100.7344 -13.1719 L100.7344 -11.2656 L98.9375 -11.2656 L98.9375 -13.1719 L100.7344 -13.1719 ZM97.9531 -0.4844 Q98.3281 -0.5938 98.4922 -0.6797 Q98.6562 -0.7656 98.7656 -0.9219 Q98.875 -1.0781 98.9375 -1.4062 Q99 -1.7344 99 -2.4062 L99 -6.6719 Q99 -7.2969 98.9844 -7.6797 Q98.9688 -8.0625 98.8516 -8.2891 Q98.7344 -8.5156 98.4922 -8.625 Q98.25 -8.7344 97.8125 -8.8125 L97.8125 -9.3438 L100.0938 -9.4219 L100.6875 -9.4219 L100.6875 -2.4375 Q100.6875 -1.6094 100.7656 -1.2812 Q100.8438 -0.9531 101.0625 -0.7812 Q101.2812 -0.6094 101.7812 -0.4844 L101.7812 0 L97.9531 0 L97.9531 -0.4844 ZM111.2188 -9.1094 L111.2188 -7.0781 L109.9844 -7.0781 Q109.8125 -7.7031 109.5703 -8.0703 Q109.3281 -8.4375 109.0078 -8.5859 Q108.6875 -8.7344 108.2031 -8.7344 Q107.5156 -8.7344 106.9922 -8.2969 Q106.4688 -7.8594 106.1641 -6.9609 Q105.8594 -6.0625 105.8594 -4.75 Q105.8594 -3.9219 105.9766 -3.2344 Q106.0938 -2.5469 106.375 -2.0625 Q106.6562 -1.5781 107.125 -1.3047 Q107.5938 -1.0312 108.2812 -1.0312 Q108.9531 -1.0312 109.5391 -1.2891 Q110.125 -1.5469 110.75 -2.2188 L111.2969 -1.5781 Q110.7969 -1.0312 110.4219 -0.7344 Q110.0469 -0.4375 109.6094 -0.2344 Q109.1719 -0.0312 108.75 0.0625 Q108.3281 0.1562 107.8281 0.1562 Q105.9844 0.1562 105.0078 -1.0703 Q104.0312 -2.2969 104.0312 -4.6094 Q104.0312 -6.0625 104.5781 -7.1797 Q105.125 -8.2969 106.1094 -8.8984 Q107.0938 -9.5 108.375 -9.5 Q109.1875 -9.5 109.8672 -9.4062 Q110.5469 -9.3125 111.2188 -9.1094 ZM119.7344 -13.1719 L119.7344 -11.2656 L117.9375 -11.2656 L117.9375 -13.1719 L119.7344 -13.1719 ZM116.9531 -0.4844 Q117.3281 -0.5938 117.4922 -0.6797 Q117.6562 -0.7656 117.7656 -0.9219 Q117.875 -1.0781 117.9375 -1.4062 Q118 -1.7344 118 -2.4062 L118 -6.6719 Q118 -7.2969 117.9844 -7.6797 Q117.9688 -8.0625 117.8516 -8.2891 Q117.7344 -8.5156 117.4922 -8.625 Q117.25 -8.7344 116.8125 -8.8125 L116.8125 -9.3438 L119.0938 -9.4219 L119.6875 -9.4219 L119.6875 -2.4375 Q119.6875 -1.6094 119.7656 -1.2812 Q119.8438 -0.9531 120.0625 -0.7812 Q120.2812 -0.6094 120.7812 -0.4844 L120.7812 0 L116.9531 0 L116.9531 -0.4844 ZM132.4531 0 L128.6094 0 L128.6094 -0.4844 Q129 -0.5938 129.1641 -0.6797 Q129.3281 -0.7656 129.4375 -0.9219 Q129.5469 -1.0781 129.6094 -1.4062 Q129.6719 -1.7344 129.6719 -2.4062 L129.6719 -4.9688 Q129.6719 -5.6406 129.6328 -6.2031 Q129.5938 -6.7656 129.5 -7.1172 Q129.4062 -7.4688 129.2812 -7.6719 Q129.1562 -7.875 128.9688 -8.0156 Q128.7812 -8.1562 128.5469 -8.2422 Q128.3125 -8.3281 127.9375 -8.3281 Q127.5625 -8.3281 127.2188 -8.1719 Q126.875 -8.0156 126.4609 -7.6484 Q126.0469 -7.2812 125.8672 -6.9141 Q125.6875 -6.5469 125.6875 -6.0781 L125.6875 -2.4375 Q125.6875 -1.6094 125.7656 -1.2812 Q125.8438 -0.9531 126.0625 -0.7812 Q126.2812 -0.6094 126.7812 -0.4844 L126.7812 0 L122.9531 0 L122.9531 -0.4844 Q123.3281 -0.5938 123.4922 -0.6797 Q123.6562 -0.7656 123.7656 -0.9219 Q123.875 -1.0781 123.9375 -1.4062 Q124 -1.7344 124 -2.4062 L124 -6.6719 Q124 -7.2969 123.9844 -7.6797 Q123.9688 -8.0625 123.8516 -8.2891 Q123.7344 -8.5156 123.4922 -8.625 Q123.25 -8.7344 122.8125 -8.8125 L122.8125 -9.3438 L125.0938 -9.4219 L125.6875 -9.4219 L125.5781 -7.8281 L125.7188 -7.7969 Q126.4375 -8.5312 126.8828 -8.8438 Q127.3281 -9.1562 127.7812 -9.3281 Q128.2344 -9.5 128.75 -9.5 Q129.2812 -9.5 129.6953 -9.375 Q130.1094 -9.25 130.4219 -8.9922 Q130.7344 -8.7344 130.9453 -8.3594 Q131.1562 -7.9844 131.2578 -7.4609 Q131.3594 -6.9375 131.3594 -6.125 L131.3594 -2.4375 Q131.3594 -1.7656 131.3984 -1.4609 Q131.4375 -1.1562 131.5312 -0.9922 Q131.625 -0.8281 131.8125 -0.7188 Q132 -0.6094 132.4531 -0.4844 L132.4531 0 ZM140.5469 -10.6094 Q140.5469 -11.5469 140.5312 -11.9219 Q140.5156 -12.2969 140.4531 -12.5547 Q140.3906 -12.8125 140.2734 -12.9609 Q140.1562 -13.1094 139.9688 -13.1953 Q139.7812 -13.2812 139.2812 -13.375 L139.2812 -13.875 L141.6406 -13.9688 L142.2188 -13.9688 L142.2188 -2.6719 Q142.2188 -1.9062 142.25 -1.5781 Q142.2812 -1.25 142.375 -1.0547 Q142.4688 -0.8594 142.6797 -0.7344 Q142.8906 -0.6094 143.4219 -0.5156 L143.4219 0 L141.1094 0.0938 L140.5312 0.0938 L140.6406 -1.5 L140.5 -1.5469 Q139.8906 -0.8906 139.4375 -0.5625 Q138.9844 -0.2344 138.4688 -0.0391 Q137.9531 0.1562 137.3594 0.1562 Q135.7656 0.1562 134.8984 -1.0625 Q134.0312 -2.2812 134.0312 -4.5781 Q134.0312 -6.1719 134.5938 -7.2891 Q135.1562 -8.4062 136.1172 -8.9531 Q137.0781 -9.5 138.2812 -9.5 Q138.9219 -9.5 139.4531 -9.3984 Q139.9844 -9.2969 140.5469 -9.0625 L140.5469 -10.6094 ZM140.5469 -5.7969 Q140.5469 -6.5469 140.4766 -7.0078 Q140.4062 -7.4688 140.2422 -7.7812 Q140.0781 -8.0938 139.8047 -8.3125 Q139.5312 -8.5312 139.2031 -8.625 Q138.875 -8.7188 138.4219 -8.7188 Q137.1719 -8.7188 136.5156 -7.7188 Q135.8594 -6.7188 135.8594 -4.8438 Q135.8594 -2.9688 136.3984 -1.9922 Q136.9375 -1.0156 138.0312 -1.0156 Q138.4531 -1.0156 138.7422 -1.0859 Q139.0312 -1.1562 139.3047 -1.3203 Q139.5781 -1.4844 139.8594 -1.7656 Q140.1406 -2.0469 140.2734 -2.2812 Q140.4062 -2.5156 140.4766 -2.8203 Q140.5469 -3.125 140.5469 -3.6094 L140.5469 -5.7969 ZM152.75 -1.6562 Q152.125 -1 151.6016 -0.6328 Q151.0781 -0.2656 150.4531 -0.0547 Q149.8281 0.1562 149.0781 0.1562 Q147.0625 0.1562 146.0391 -1.0469 Q145.0156 -2.25 145.0156 -4.6094 Q145.0156 -6.0625 145.5391 -7.1797 Q146.0625 -8.2969 147.0312 -8.8984 Q148 -9.5 149.25 -9.5 Q150.2344 -9.5 150.9297 -9.1875 Q151.625 -8.875 152.0391 -8.3359 Q152.4531 -7.7969 152.6875 -6.9688 Q152.9219 -6.1406 152.9531 -4.8125 L146.7969 -4.8125 L146.7969 -4.6406 Q146.7969 -3.4844 147.0547 -2.7031 Q147.3125 -1.9219 147.9062 -1.4766 Q148.5 -1.0312 149.4375 -1.0312 Q150.2344 -1.0312 150.875 -1.3281 Q151.5156 -1.625 152.1562 -2.2969 L152.75 -1.6562 ZM151.1094 -5.625 Q151.0469 -6.6875 150.8438 -7.3516 Q150.6406 -8.0156 150.2344 -8.375 Q149.8281 -8.7344 149.1562 -8.7344 Q148.1562 -8.7344 147.5547 -7.9297 Q146.9531 -7.125 146.8438 -5.625 L151.1094 -5.625 ZM159.0781 -5.6406 L160.3438 -7.25 Q160.5469 -7.5156 160.6797 -7.7656 Q160.8125 -8.0156 160.8125 -8.2656 Q160.8125 -8.5 160.6406 -8.6484 Q160.4688 -8.7969 160.125 -8.8594 L160.125 -9.3438 L163.3125 -9.3438 L163.3125 -8.8594 Q162.9531 -8.75 162.5625 -8.4375 Q162.1719 -8.125 161.625 -7.4375 L159.5938 -4.9531 L161.8281 -1.9531 Q162.2969 -1.3125 162.6797 -0.9688 Q163.0625 -0.625 163.4375 -0.4844 L163.4375 0 L159.5156 0 L159.5156 -0.4844 Q160.3281 -0.5781 160.3281 -1.0781 Q160.3281 -1.2969 160.2578 -1.4766 Q160.1875 -1.6562 160 -1.9062 L158.5938 -3.875 L157.0938 -1.9219 Q156.9219 -1.7031 156.8281 -1.5234 Q156.7344 -1.3438 156.7344 -1.125 Q156.7344 -0.8594 156.9141 -0.6875 Q157.0938 -0.5156 157.4844 -0.4844 L157.4844 0 L154.2188 0 L154.2188 -0.4844 Q154.5469 -0.5938 154.8047 -0.7734 Q155.0625 -0.9531 155.3359 -1.2266 Q155.6094 -1.5 156.0469 -2.0469 L158.0781 -4.5625 L156 -7.4062 Q155.5625 -8 155.3125 -8.2656 Q155.0625 -8.5312 154.8438 -8.6641 Q154.625 -8.7969 154.4062 -8.8594 L154.4062 -9.3438 L158.2344 -9.3438 L158.2344 -8.8594 Q157.4688 -8.7344 157.4688 -8.25 Q157.4688 -8.0312 157.5703 -7.8047 Q157.6719 -7.5781 157.8906 -7.3125 L159.0781 -5.6406 Z" stroke="none"/></g><g text-rendering="optimizeLegibility" transform="translate(164.2188,34)" color-rendering="optimizeQuality" color-interpolation="linearRGB" image-rendering="optimizeQuality"><path d="M1.2188 -7.0625 L1.2188 -8.4219 L9.8594 -8.4219 L9.8594 -7.0625 L1.2188 -7.0625 ZM1.2188 -3.0156 L1.2188 -4.3594 L9.8594 -4.3594 L9.8594 -3.0156 L1.2188 -3.0156 Z" stroke="none"/></g><g text-rendering="optimizeLegibility" transform="translate(176.0781,34)" color-rendering="optimizeQuality" color-interpolation="linearRGB" image-rendering="optimizeQuality"><path d="M5.4375 0.1562 Q3.3281 0.1562 2.2969 -1.5078 Q1.2656 -3.1719 1.2656 -6.5469 Q1.2656 -8.3438 1.5781 -9.6484 Q1.8906 -10.9531 2.4609 -11.8125 Q3.0312 -12.6719 3.8359 -13.0781 Q4.6406 -13.4844 5.5938 -13.4844 Q7.7188 -13.4844 8.7656 -11.8359 Q9.8125 -10.1875 9.8125 -6.8438 Q9.8125 -3.3906 8.6953 -1.6172 Q7.5781 0.1562 5.4375 0.1562 ZM3.1719 -6.8438 Q3.1719 -3.6562 3.7578 -2.1641 Q4.3438 -0.6719 5.5938 -0.6719 Q6.7656 -0.6719 7.3359 -2.0781 Q7.9062 -3.4844 7.9062 -6.4219 Q7.9062 -8.6562 7.6172 -10.0547 Q7.3281 -11.4531 6.8047 -12.0547 Q6.2812 -12.6562 5.5312 -12.6562 Q4.8594 -12.6562 4.4062 -12.2578 Q3.9531 -11.8594 3.6797 -11.1094 Q3.4062 -10.3594 3.2891 -9.2734 Q3.1719 -8.1875 3.1719 -6.8438 ZM14.0156 -2.2656 Q14.1562 -1.5781 14.1562 -0.9219 Q14.1562 -0.2344 13.9219 0.3359 Q13.6875 0.9062 13.1719 1.4609 Q12.6562 2.0156 11.7656 2.7031 L11.2344 2.0938 Q11.7344 1.625 11.9609 1.25 Q12.1875 0.875 12.2812 0.3984 Q12.375 -0.0781 12.375 -0.7969 Q12.375 -1.5469 12.3125 -2.2656 L14.0156 -2.2656 Z" stroke="none"/></g><g text-rendering="optimizeLegibility" transform="translate(193.2344,34)" color-rendering="optimizeQuality" color-interpolation="linearRGB" image-rendering="optimizeQuality"><path d="M6.7812 -2.5469 Q6.7812 -1.9844 6.8516 -1.6953 Q6.9219 -1.4062 7.0781 -1.2266 Q7.2344 -1.0469 7.5391 -0.9453 Q7.8438 -0.8438 8.3047 -0.7891 Q8.7656 -0.7344 9.5156 -0.7188 L9.5156 0 L2.2969 0 L2.2969 -0.7188 Q3.375 -0.7656 3.8438 -0.8438 Q4.3125 -0.9219 4.5547 -1.0938 Q4.7969 -1.2656 4.9062 -1.5625 Q5.0156 -1.8594 5.0156 -2.5469 L5.0156 -10.4688 Q5.0156 -10.8594 4.8828 -11.0391 Q4.75 -11.2188 4.4844 -11.2188 Q4.1719 -11.2188 3.5938 -10.8984 Q3.0156 -10.5781 2.1719 -10.0156 L1.7344 -10.7656 L6.3125 -13.4844 L6.8438 -13.4844 Q6.7812 -12.5469 6.7812 -10.8906 L6.7812 -2.5469 ZM14.0156 -2.2656 Q14.1562 -1.5781 14.1562 -0.9219 Q14.1562 -0.2344 13.9219 0.3359 Q13.6875 0.9062 13.1719 1.4609 Q12.6562 2.0156 11.7656 2.7031 L11.2344 2.0938 Q11.7344 1.625 11.9609 1.25 Q12.1875 0.875 12.2812 0.3984 Q12.375 -0.0781 12.375 -0.7969 Q12.375 -1.5469 12.3125 -2.2656 L14.0156 -2.2656 Z" stroke="none"/></g><g text-rendering="optimizeLegibility" transform="translate(210.3906,34)" color-rendering="optimizeQuality" color-interpolation="linearRGB" image-rendering="optimizeQuality"><path d="M6.8594 -1.5625 Q7.3281 -1.5625 7.625 -1.625 Q7.9219 -1.6875 8.0938 -1.8203 Q8.2656 -1.9531 8.375 -2.1719 Q8.4844 -2.3906 8.6406 -2.8594 L9.4688 -2.8594 L9.2969 0 L1.2656 0 L1.2656 -0.4688 Q1.6875 -1.5 2.3984 -2.5703 Q3.1094 -3.6406 4.4219 -5.0938 Q5.5469 -6.3438 6.0469 -7 Q6.5938 -7.7031 6.8594 -8.2109 Q7.125 -8.7188 7.2422 -9.1719 Q7.3594 -9.625 7.3594 -10.0938 Q7.3594 -10.8281 7.125 -11.3828 Q6.8906 -11.9375 6.4062 -12.2656 Q5.9219 -12.5938 5.2031 -12.5938 Q3.375 -12.5938 2.7344 -10.5625 L1.5469 -10.5625 L1.5469 -12.4375 Q2.7344 -12.9844 3.7656 -13.2344 Q4.7969 -13.4844 5.6094 -13.4844 Q7.4375 -13.4844 8.3594 -12.6875 Q9.2812 -11.8906 9.2812 -10.375 Q9.2812 -9.8594 9.1797 -9.4297 Q9.0781 -9 8.8594 -8.5703 Q8.6406 -8.1406 8.2734 -7.6562 Q7.9062 -7.1719 7.4531 -6.6641 Q7 -6.1562 5.9062 -4.9844 Q4.0469 -3.0312 3.1719 -1.5625 L6.8594 -1.5625 Z" stroke="none"/></g><g text-rendering="optimizeLegibility" transform="translate(223.7969,34)" color-rendering="optimizeQuality" color-interpolation="linearRGB" image-rendering="optimizeQuality"><path d="M3.0312 -2.2656 L3.0312 0 L1.0625 0 L1.0625 -2.2656 L3.0312 -2.2656 Z" stroke="none"/></g><g text-rendering="optimizeLegibility" transform="translate(232.7656,34)" color-rendering="optimizeQuality" color-interpolation="linearRGB" image-rendering="optimizeQuality"><path d="M3.0312 -2.2656 L3.0312 0 L1.0625 0 L1.0625 -2.2656 L3.0312 -2.2656 Z" stroke="none"/></g><g text-rendering="optimizeLegibility" transform="translate(241.7344,34)" color-rendering="optimizeQuality" color-interpolation="linearRGB" image-rendering="optimizeQuality"><path d="M3.0312 -2.2656 L3.0312 0 L1.0625 0 L1.0625 -2.2656 L3.0312 -2.2656 Z" stroke="none"/></g><g text-rendering="optimizeLegibility" transform="translate(253.8438,40.766) matrix(1,0,0,2.8689,0,0)" color-rendering="optimizeQuality" color-interpolation="linearRGB" image-rendering="optimizeQuality"><path d="M7.0781 4.2188 Q5.5625 4.2188 4.6797 3.8281 Q3.7969 3.4375 3.4141 2.6641 Q3.0312 1.8906 3.0312 0.5781 L3.0312 -2.25 Q3.0312 -3.1094 2.8125 -3.5938 Q2.5938 -4.0781 2.1562 -4.2734 Q1.7188 -4.4688 0.9219 -4.4688 L0.9219 -5.2812 Q1.7031 -5.2812 2.1484 -5.4766 Q2.5938 -5.6719 2.8125 -6.1484 Q3.0312 -6.625 3.0312 -7.5 L3.0312 -10.3281 Q3.0312 -11.625 3.4141 -12.4062 Q3.7969 -13.1875 4.6797 -13.5781 Q5.5625 -13.9688 7.0781 -13.9688 L7.3281 -13.9688 L7.3281 -13.1719 Q6.5469 -13.1719 6.1641 -13.0938 Q5.7812 -13.0156 5.5391 -12.8438 Q5.2969 -12.6719 5.1406 -12.4141 Q4.9844 -12.1562 4.8984 -11.6875 Q4.8125 -11.2188 4.8125 -10.4375 L4.8125 -8.5469 Q4.8125 -7.5625 4.6406 -6.8984 Q4.4688 -6.2344 4.0312 -5.7578 Q3.5938 -5.2812 2.8281 -4.9688 L2.8281 -4.7812 Q3.5781 -4.4844 4.0312 -3.9844 Q4.4844 -3.4844 4.6484 -2.8203 Q4.8125 -2.1562 4.8125 -1.2031 L4.8125 0.6875 Q4.8125 1.4688 4.8984 1.9375 Q4.9844 2.4062 5.1406 2.6719 Q5.2969 2.9375 5.5391 3.1016 Q5.7812 3.2656 6.1641 3.3438 Q6.5469 3.4219 7.3281 3.4219 L7.3281 4.2188 L7.0781 4.2188 Z" stroke="none"/></g><g text-rendering="optimizeLegibility" transform="translate(263.1719,14.722)" color-rendering="optimizeQuality" color-interpolation="linearRGB" image-rendering="optimizeQuality"><path d="M9.0312 -5.2812 Q9.375 -4.7031 9.6172 -4.2578 Q9.8594 -3.8125 10.1094 -3.2656 L10.2344 -3.2656 Q10.1875 -3.875 10.1484 -5.6406 Q10.1094 -7.4062 10.1094 -8.8438 L10.1094 -10.8906 Q10.1094 -11.5625 10.0703 -11.875 Q10.0312 -12.1875 9.9297 -12.3516 Q9.8281 -12.5156 9.6484 -12.6172 Q9.4688 -12.7188 9.0156 -12.8594 L9.0156 -13.3281 L12.5312 -13.3281 L12.5312 -12.8594 Q12.0938 -12.7344 11.9141 -12.6406 Q11.7344 -12.5469 11.6172 -12.3906 Q11.5 -12.2344 11.4453 -11.9219 Q11.3906 -11.6094 11.3906 -10.8906 L11.3906 0.0625 L10.1719 0.0625 L4.7344 -9.0625 Q4.2188 -9.9062 4.0078 -10.2969 Q3.7969 -10.6875 3.6094 -11.0781 L3.4375 -11.0781 Q3.5 -10.3281 3.5312 -8.3594 Q3.5625 -6.3906 3.5625 -4.4375 L3.5625 -2.4375 Q3.5625 -1.7812 3.6094 -1.4844 Q3.6562 -1.1875 3.7578 -1.0078 Q3.8594 -0.8281 4.0625 -0.7109 Q4.2656 -0.5938 4.7031 -0.4844 L4.7031 0 L1.1406 0 L1.1406 -0.4844 Q1.75 -0.6406 1.9531 -0.8281 Q2.1562 -1.0156 2.2188 -1.3672 Q2.2812 -1.7188 2.2812 -2.4375 L2.2812 -10.8906 Q2.2812 -11.5625 2.2344 -11.8672 Q2.1875 -12.1719 2.0781 -12.3438 Q1.9688 -12.5156 1.7812 -12.6172 Q1.5938 -12.7188 1.1406 -12.8594 L1.1406 -13.3281 L4.2031 -13.3281 L9.0312 -5.2812 ZM23.1875 -13.9688 L16.1406 4.2031 L14.6094 4.2031 L21.6719 -13.9688 L23.1875 -13.9688 ZM30.8594 -1.5625 Q31.3281 -1.5625 31.625 -1.625 Q31.9219 -1.6875 32.0938 -1.8203 Q32.2656 -1.9531 32.375 -2.1719 Q32.4844 -2.3906 32.6406 -2.8594 L33.4688 -2.8594 L33.2969 0 L25.2656 0 L25.2656 -0.4688 Q25.6875 -1.5 26.3984 -2.5703 Q27.1094 -3.6406 28.4219 -5.0938 Q29.5469 -6.3438 30.0469 -7 Q30.5938 -7.7031 30.8594 -8.2109 Q31.125 -8.7188 31.2422 -9.1719 Q31.3594 -9.625 31.3594 -10.0938 Q31.3594 -10.8281 31.125 -11.3828 Q30.8906 -11.9375 30.4062 -12.2656 Q29.9219 -12.5938 29.2031 -12.5938 Q27.375 -12.5938 26.7344 -10.5625 L25.5469 -10.5625 L25.5469 -12.4375 Q26.7344 -12.9844 27.7656 -13.2344 Q28.7969 -13.4844 29.6094 -13.4844 Q31.4375 -13.4844 32.3594 -12.6875 Q33.2812 -11.8906 33.2812 -10.375 Q33.2812 -9.8594 33.1797 -9.4297 Q33.0781 -9 32.8594 -8.5703 Q32.6406 -8.1406 32.2734 -7.6562 Q31.9062 -7.1719 31.4531 -6.6641 Q31 -6.1562 29.9062 -4.9844 Q28.0469 -3.0312 27.1719 -1.5625 L30.8594 -1.5625 Z" stroke="none"/></g><g text-rendering="optimizeLegibility" transform="translate(311.6406,14.722)" color-rendering="optimizeQuality" color-interpolation="linearRGB" image-rendering="optimizeQuality"><path d="M3.7344 -13.1719 L3.7344 -11.2656 L1.9375 -11.2656 L1.9375 -13.1719 L3.7344 -13.1719 ZM0.9531 -0.4844 Q1.3281 -0.5938 1.4922 -0.6797 Q1.6562 -0.7656 1.7656 -0.9219 Q1.875 -1.0781 1.9375 -1.4062 Q2 -1.7344 2 -2.4062 L2 -6.6719 Q2 -7.2969 1.9844 -7.6797 Q1.9688 -8.0625 1.8516 -8.2891 Q1.7344 -8.5156 1.4922 -8.625 Q1.25 -8.7344 0.8125 -8.8125 L0.8125 -9.3438 L3.0938 -9.4219 L3.6875 -9.4219 L3.6875 -2.4375 Q3.6875 -1.6094 3.7656 -1.2812 Q3.8438 -0.9531 4.0625 -0.7812 Q4.2812 -0.6094 4.7812 -0.4844 L4.7812 0 L0.9531 0 L0.9531 -0.4844 ZM11.9688 -8.3438 L9.6406 -8.3438 L9.6406 -2.4375 Q9.6406 -1.7812 9.7031 -1.4531 Q9.7656 -1.125 9.8828 -0.9531 Q10 -0.7812 10.2031 -0.6797 Q10.4062 -0.5781 10.8438 -0.4844 L10.8438 0 L6.8438 0 L6.8438 -0.4844 Q7.2812 -0.5938 7.4688 -0.7031 Q7.6562 -0.8125 7.7578 -0.9766 Q7.8594 -1.1406 7.9062 -1.4531 Q7.9531 -1.7656 7.9531 -2.4375 L7.9531 -8.3438 L6.7656 -8.3438 L6.7656 -8.8438 Q7.1406 -8.9062 7.2656 -8.9375 Q7.3906 -8.9688 7.5 -9.0391 Q7.6094 -9.1094 7.6953 -9.2344 Q7.7812 -9.3594 7.8438 -9.6094 Q7.9062 -9.8594 7.9375 -10.3125 Q8.0312 -11.375 8.3281 -12.0391 Q8.625 -12.7031 9.1953 -13.1719 Q9.7656 -13.6406 10.4141 -13.8359 Q11.0625 -14.0312 11.9531 -14.0312 Q12.7188 -14.0312 13.25 -13.9219 L13.25 -12.1562 L12.2969 -12.1562 Q12.1094 -12.7188 11.8594 -12.9609 Q11.6094 -13.2031 11.1562 -13.2031 Q10.8281 -13.2031 10.6094 -13.1172 Q10.3906 -13.0312 10.2109 -12.8438 Q10.0312 -12.6562 9.8984 -12.3438 Q9.7656 -12.0312 9.7031 -11.5703 Q9.6406 -11.1094 9.6406 -10.3594 L9.6406 -9.3438 L11.9688 -9.3438 L11.9688 -8.3438 ZM25.0312 -5.2812 Q25.375 -4.7031 25.6172 -4.2578 Q25.8594 -3.8125 26.1094 -3.2656 L26.2344 -3.2656 Q26.1875 -3.875 26.1484 -5.6406 Q26.1094 -7.4062 26.1094 -8.8438 L26.1094 -10.8906 Q26.1094 -11.5625 26.0703 -11.875 Q26.0312 -12.1875 25.9297 -12.3516 Q25.8281 -12.5156 25.6484 -12.6172 Q25.4688 -12.7188 25.0156 -12.8594 L25.0156 -13.3281 L28.5312 -13.3281 L28.5312 -12.8594 Q28.0938 -12.7344 27.9141 -12.6406 Q27.7344 -12.5469 27.6172 -12.3906 Q27.5 -12.2344 27.4453 -11.9219 Q27.3906 -11.6094 27.3906 -10.8906 L27.3906 0.0625 L26.1719 0.0625 L20.7344 -9.0625 Q20.2188 -9.9062 20.0078 -10.2969 Q19.7969 -10.6875 19.6094 -11.0781 L19.4375 -11.0781 Q19.5 -10.3281 19.5312 -8.3594 Q19.5625 -6.3906 19.5625 -4.4375 L19.5625 -2.4375 Q19.5625 -1.7812 19.6094 -1.4844 Q19.6562 -1.1875 19.7578 -1.0078 Q19.8594 -0.8281 20.0625 -0.7109 Q20.2656 -0.5938 20.7031 -0.4844 L20.7031 0 L17.1406 0 L17.1406 -0.4844 Q17.75 -0.6406 17.9531 -0.8281 Q18.1562 -1.0156 18.2188 -1.3672 Q18.2812 -1.7188 18.2812 -2.4375 L18.2812 -10.8906 Q18.2812 -11.5625 18.2344 -11.8672 Q18.1875 -12.1719 18.0781 -12.3438 Q17.9688 -12.5156 17.7812 -12.6172 Q17.5938 -12.7188 17.1406 -12.8594 L17.1406 -13.3281 L20.2031 -13.3281 L25.0312 -5.2812 ZM37.7344 -13.1719 L37.7344 -11.2656 L35.9375 -11.2656 L35.9375 -13.1719 L37.7344 -13.1719 ZM34.9531 -0.4844 Q35.3281 -0.5938 35.4922 -0.6797 Q35.6562 -0.7656 35.7656 -0.9219 Q35.875 -1.0781 35.9375 -1.4062 Q36 -1.7344 36 -2.4062 L36 -6.6719 Q36 -7.2969 35.9844 -7.6797 Q35.9688 -8.0625 35.8516 -8.2891 Q35.7344 -8.5156 35.4922 -8.625 Q35.25 -8.7344 34.8125 -8.8125 L34.8125 -9.3438 L37.0938 -9.4219 L37.6875 -9.4219 L37.6875 -2.4375 Q37.6875 -1.6094 37.7656 -1.2812 Q37.8438 -0.9531 38.0625 -0.7812 Q38.2812 -0.6094 38.7812 -0.4844 L38.7812 0 L34.9531 0 L34.9531 -0.4844 ZM47.4844 -7.2031 L46.5469 -7.2031 Q46.3438 -7.7812 46.0469 -8.1172 Q45.75 -8.4531 45.3828 -8.5938 Q45.0156 -8.7344 44.4688 -8.7344 Q43.6875 -8.7344 43.2266 -8.3672 Q42.7656 -8 42.7656 -7.3594 Q42.7656 -6.9219 42.9531 -6.625 Q43.1406 -6.3281 43.5312 -6.0781 Q43.9219 -5.8281 44.9062 -5.4062 Q45.9062 -4.9688 46.4453 -4.6094 Q46.9844 -4.25 47.2891 -3.7734 Q47.5938 -3.2969 47.5938 -2.625 Q47.5938 -1.8594 47.3359 -1.3281 Q47.0781 -0.7969 46.5938 -0.4688 Q46.1094 -0.1406 45.4531 0.0078 Q44.7969 0.1562 44.0156 0.1562 Q43.1875 0.1562 42.4219 0.0312 Q41.6562 -0.0938 40.9219 -0.2812 L40.9219 -2.3281 L41.875 -2.3281 Q42.1406 -1.4219 42.6562 -1.0156 Q43.1719 -0.6094 44.0781 -0.6094 Q44.4375 -0.6094 44.7734 -0.6875 Q45.1094 -0.7656 45.375 -0.9375 Q45.6406 -1.1094 45.7969 -1.3984 Q45.9531 -1.6875 45.9531 -2.125 Q45.9531 -2.625 45.7578 -2.9375 Q45.5625 -3.25 45.1484 -3.5078 Q44.7344 -3.7656 43.7031 -4.2031 Q42.8125 -4.5781 42.2734 -4.9297 Q41.7344 -5.2812 41.4297 -5.7578 Q41.125 -6.2344 41.125 -6.8906 Q41.125 -7.7031 41.5625 -8.2891 Q42 -8.875 42.8203 -9.1875 Q43.6406 -9.5 44.7344 -9.5 Q45.375 -9.5 45.9766 -9.4375 Q46.5781 -9.375 47.4844 -9.1875 L47.4844 -7.2031 ZM61.75 -1.6562 Q61.125 -1 60.6016 -0.6328 Q60.0781 -0.2656 59.4531 -0.0547 Q58.8281 0.1562 58.0781 0.1562 Q56.0625 0.1562 55.0391 -1.0469 Q54.0156 -2.25 54.0156 -4.6094 Q54.0156 -6.0625 54.5391 -7.1797 Q55.0625 -8.2969 56.0312 -8.8984 Q57 -9.5 58.25 -9.5 Q59.2344 -9.5 59.9297 -9.1875 Q60.625 -8.875 61.0391 -8.3359 Q61.4531 -7.7969 61.6875 -6.9688 Q61.9219 -6.1406 61.9531 -4.8125 L55.7969 -4.8125 L55.7969 -4.6406 Q55.7969 -3.4844 56.0547 -2.7031 Q56.3125 -1.9219 56.9062 -1.4766 Q57.5 -1.0312 58.4375 -1.0312 Q59.2344 -1.0312 59.875 -1.3281 Q60.5156 -1.625 61.1562 -2.2969 L61.75 -1.6562 ZM60.1094 -5.625 Q60.0469 -6.6875 59.8438 -7.3516 Q59.6406 -8.0156 59.2344 -8.375 Q58.8281 -8.7344 58.1562 -8.7344 Q57.1562 -8.7344 56.5547 -7.9297 Q55.9531 -7.125 55.8438 -5.625 L60.1094 -5.625 ZM67.1719 -9.3438 L67.1719 -8.8594 Q66.7188 -8.75 66.5312 -8.6562 Q66.3438 -8.5625 66.2578 -8.4062 Q66.1719 -8.25 66.1719 -7.9844 Q66.1719 -7.7188 66.2344 -7.4297 Q66.2969 -7.1406 66.4219 -6.7656 L68.125 -1.8125 L70.125 -6.5469 Q70.3125 -7.0156 70.3906 -7.3203 Q70.4688 -7.625 70.4688 -7.8906 Q70.4688 -8.2969 70.25 -8.5156 Q70.0312 -8.7344 69.4531 -8.8594 L69.4531 -9.3438 L73.0938 -9.3438 L73.0938 -8.8594 Q72.7188 -8.7812 72.5156 -8.6172 Q72.3125 -8.4531 72.1016 -8.1094 Q71.8906 -7.7656 71.6094 -7.1406 L68.3281 0.0938 L67.1719 0.0938 L64.5312 -7.2031 Q64.25 -7.9531 64.0859 -8.2266 Q63.9219 -8.5 63.7344 -8.6406 Q63.5469 -8.7812 63.1875 -8.8594 L63.1875 -9.3438 L67.1719 -9.3438 ZM81.75 -1.6562 Q81.125 -1 80.6016 -0.6328 Q80.0781 -0.2656 79.4531 -0.0547 Q78.8281 0.1562 78.0781 0.1562 Q76.0625 0.1562 75.0391 -1.0469 Q74.0156 -2.25 74.0156 -4.6094 Q74.0156 -6.0625 74.5391 -7.1797 Q75.0625 -8.2969 76.0312 -8.8984 Q77 -9.5 78.25 -9.5 Q79.2344 -9.5 79.9297 -9.1875 Q80.625 -8.875 81.0391 -8.3359 Q81.4531 -7.7969 81.6875 -6.9688 Q81.9219 -6.1406 81.9531 -4.8125 L75.7969 -4.8125 L75.7969 -4.6406 Q75.7969 -3.4844 76.0547 -2.7031 Q76.3125 -1.9219 76.9062 -1.4766 Q77.5 -1.0312 78.4375 -1.0312 Q79.2344 -1.0312 79.875 -1.3281 Q80.5156 -1.625 81.1562 -2.2969 L81.75 -1.6562 ZM80.1094 -5.625 Q80.0469 -6.6875 79.8438 -7.3516 Q79.6406 -8.0156 79.2344 -8.375 Q78.8281 -8.7344 78.1562 -8.7344 Q77.1562 -8.7344 76.5547 -7.9297 Q75.9531 -7.125 75.8438 -5.625 L80.1094 -5.625 ZM93.4531 0 L89.6094 0 L89.6094 -0.4844 Q90 -0.5938 90.1641 -0.6797 Q90.3281 -0.7656 90.4375 -0.9219 Q90.5469 -1.0781 90.6094 -1.4062 Q90.6719 -1.7344 90.6719 -2.4062 L90.6719 -4.9688 Q90.6719 -5.6406 90.6328 -6.2031 Q90.5938 -6.7656 90.5 -7.1172 Q90.4062 -7.4688 90.2812 -7.6719 Q90.1562 -7.875 89.9688 -8.0156 Q89.7812 -8.1562 89.5469 -8.2422 Q89.3125 -8.3281 88.9375 -8.3281 Q88.5625 -8.3281 88.2188 -8.1719 Q87.875 -8.0156 87.4609 -7.6484 Q87.0469 -7.2812 86.8672 -6.9141 Q86.6875 -6.5469 86.6875 -6.0781 L86.6875 -2.4375 Q86.6875 -1.6094 86.7656 -1.2812 Q86.8438 -0.9531 87.0625 -0.7812 Q87.2812 -0.6094 87.7812 -0.4844 L87.7812 0 L83.9531 0 L83.9531 -0.4844 Q84.3281 -0.5938 84.4922 -0.6797 Q84.6562 -0.7656 84.7656 -0.9219 Q84.875 -1.0781 84.9375 -1.4062 Q85 -1.7344 85 -2.4062 L85 -6.6719 Q85 -7.2969 84.9844 -7.6797 Q84.9688 -8.0625 84.8516 -8.2891 Q84.7344 -8.5156 84.4922 -8.625 Q84.25 -8.7344 83.8125 -8.8125 L83.8125 -9.3438 L86.0938 -9.4219 L86.6875 -9.4219 L86.5781 -7.8281 L86.7188 -7.7969 Q87.4375 -8.5312 87.8828 -8.8438 Q88.3281 -9.1562 88.7812 -9.3281 Q89.2344 -9.5 89.75 -9.5 Q90.2812 -9.5 90.6953 -9.375 Q91.1094 -9.25 91.4219 -8.9922 Q91.7344 -8.7344 91.9453 -8.3594 Q92.1562 -7.9844 92.2578 -7.4609 Q92.3594 -6.9375 92.3594 -6.125 L92.3594 -2.4375 Q92.3594 -1.7656 92.3984 -1.4609 Q92.4375 -1.1562 92.5312 -0.9922 Q92.625 -0.8281 92.8125 -0.7188 Q93 -0.6094 93.4531 -0.4844 L93.4531 0 Z" stroke="none"/></g><g text-rendering="optimizeLegibility" stroke-width="1.6667" color-interpolation="linearRGB" color-rendering="optimizeQuality" image-rendering="optimizeQuality"><line y2="40.9206" fill="none" x1="264.8496" x2="286.5059" y1="40.9206"/><path d="M6.3125 -3.7031 Q6.5625 -3.2812 6.7266 -2.9766 Q6.8906 -2.6719 7.0781 -2.2969 L7.1719 -2.2969 Q7.125 -2.7031 7.1016 -3.9453 Q7.0781 -5.1875 7.0781 -6.1875 L7.0781 -7.625 Q7.0781 -8.0938 7.0469 -8.3125 Q7.0156 -8.5312 6.9453 -8.6484 Q6.875 -8.7656 6.75 -8.8359 Q6.625 -8.9062 6.3125 -9 L6.3125 -9.3281 L8.7656 -9.3281 L8.7656 -9 Q8.4688 -8.9219 8.3359 -8.8516 Q8.2031 -8.7812 8.125 -8.6719 Q8.0469 -8.5625 8.0078 -8.3438 Q7.9688 -8.125 7.9688 -7.625 L7.9688 0.0469 L7.1094 0.0469 L3.3125 -6.3438 Q2.9531 -6.9375 2.8047 -7.2109 Q2.6562 -7.4844 2.5156 -7.75 L2.4062 -7.75 Q2.4531 -7.2188 2.4766 -5.8438 Q2.5 -4.4688 2.5 -3.1094 L2.5 -1.7031 Q2.5 -1.25 2.5312 -1.0391 Q2.5625 -0.8281 2.6328 -0.7031 Q2.7031 -0.5781 2.8438 -0.5 Q2.9844 -0.4219 3.2969 -0.3281 L3.2969 0 L0.7969 0 L0.7969 -0.3281 Q1.2188 -0.4375 1.3672 -0.5781 Q1.5156 -0.7188 1.5547 -0.9609 Q1.5938 -1.2031 1.5938 -1.7031 L1.5938 -7.625 Q1.5938 -8.0938 1.5625 -8.3125 Q1.5312 -8.5312 1.4531 -8.6484 Q1.375 -8.7656 1.2422 -8.8359 Q1.1094 -8.9062 0.7969 -9 L0.7969 -9.3281 L2.9375 -9.3281 L6.3125 -3.7031 ZM13.9062 -3.0625 L10.7344 -3.0625 L10.7344 -4.125 L13.9062 -4.125 L13.9062 -3.0625 ZM19.75 -1.7812 Q19.75 -1.3906 19.7969 -1.1875 Q19.8438 -0.9844 19.9531 -0.8594 Q20.0625 -0.7344 20.2734 -0.6641 Q20.4844 -0.5938 20.8047 -0.5547 Q21.125 -0.5156 21.6562 -0.5 L21.6562 0 L16.6094 0 L16.6094 -0.5 Q17.3594 -0.5312 17.6875 -0.5938 Q18.0156 -0.6562 18.1875 -0.7656 Q18.3594 -0.875 18.4375 -1.0938 Q18.5156 -1.3125 18.5156 -1.7812 L18.5156 -7.3281 Q18.5156 -7.6094 18.4219 -7.7344 Q18.3281 -7.8594 18.1406 -7.8594 Q17.9219 -7.8594 17.5156 -7.6328 Q17.1094 -7.4062 16.5156 -7 L16.2188 -7.5312 L19.4219 -9.4375 L19.7969 -9.4375 Q19.75 -8.7812 19.75 -7.625 L19.75 -1.7812 Z" stroke-width="1" transform="translate(264.8496,38.3626)" stroke="none"/></g><g text-rendering="optimizeLegibility" transform="translate(272.3653,52.8692)" color-rendering="optimizeQuality" color-interpolation="linearRGB" image-rendering="optimizeQuality"><path d="M4.7969 -1.0938 Q5.1406 -1.0938 5.3438 -1.1328 Q5.5469 -1.1719 5.6719 -1.2734 Q5.7969 -1.375 5.8672 -1.5234 Q5.9375 -1.6719 6.0469 -2 L6.625 -2 L6.5156 0 L0.875 0 L0.875 -0.3281 Q1.1719 -1.0469 1.6719 -1.7969 Q2.1719 -2.5469 3.0938 -3.5625 Q3.8906 -4.4375 4.2344 -4.8906 Q4.6094 -5.3906 4.7969 -5.75 Q4.9844 -6.1094 5.0703 -6.4219 Q5.1562 -6.7344 5.1562 -7.0625 Q5.1562 -7.5781 4.9922 -7.9688 Q4.8281 -8.3594 4.4922 -8.5859 Q4.1562 -8.8125 3.6406 -8.8125 Q2.3594 -8.8125 1.9219 -7.3906 L1.0938 -7.3906 L1.0938 -8.7031 Q1.9219 -9.0938 2.6406 -9.2656 Q3.3594 -9.4375 3.9375 -9.4375 Q5.2031 -9.4375 5.8516 -8.8828 Q6.5 -8.3281 6.5 -7.2656 Q6.5 -6.9062 6.4297 -6.6016 Q6.3594 -6.2969 6.2031 -6 Q6.0469 -5.7031 5.7891 -5.3594 Q5.5312 -5.0156 5.2188 -4.6641 Q4.9062 -4.3125 4.125 -3.5 Q2.8281 -2.125 2.2188 -1.0938 L4.7969 -1.0938 Z" stroke="none"/></g><g text-rendering="optimizeLegibility" transform="translate(304.8503,48.1406)" color-rendering="optimizeQuality" color-interpolation="linearRGB" image-rendering="optimizeQuality"><path d="M3.7344 -13.1719 L3.7344 -11.2656 L1.9375 -11.2656 L1.9375 -13.1719 L3.7344 -13.1719 ZM0.9531 -0.4844 Q1.3281 -0.5938 1.4922 -0.6797 Q1.6562 -0.7656 1.7656 -0.9219 Q1.875 -1.0781 1.9375 -1.4062 Q2 -1.7344 2 -2.4062 L2 -6.6719 Q2 -7.2969 1.9844 -7.6797 Q1.9688 -8.0625 1.8516 -8.2891 Q1.7344 -8.5156 1.4922 -8.625 Q1.25 -8.7344 0.8125 -8.8125 L0.8125 -9.3438 L3.0938 -9.4219 L3.6875 -9.4219 L3.6875 -2.4375 Q3.6875 -1.6094 3.7656 -1.2812 Q3.8438 -0.9531 4.0625 -0.7812 Q4.2812 -0.6094 4.7812 -0.4844 L4.7812 0 L0.9531 0 L0.9531 -0.4844 ZM11.9688 -8.3438 L9.6406 -8.3438 L9.6406 -2.4375 Q9.6406 -1.7812 9.7031 -1.4531 Q9.7656 -1.125 9.8828 -0.9531 Q10 -0.7812 10.2031 -0.6797 Q10.4062 -0.5781 10.8438 -0.4844 L10.8438 0 L6.8438 0 L6.8438 -0.4844 Q7.2812 -0.5938 7.4688 -0.7031 Q7.6562 -0.8125 7.7578 -0.9766 Q7.8594 -1.1406 7.9062 -1.4531 Q7.9531 -1.7656 7.9531 -2.4375 L7.9531 -8.3438 L6.7656 -8.3438 L6.7656 -8.8438 Q7.1406 -8.9062 7.2656 -8.9375 Q7.3906 -8.9688 7.5 -9.0391 Q7.6094 -9.1094 7.6953 -9.2344 Q7.7812 -9.3594 7.8438 -9.6094 Q7.9062 -9.8594 7.9375 -10.3125 Q8.0312 -11.375 8.3281 -12.0391 Q8.625 -12.7031 9.1953 -13.1719 Q9.7656 -13.6406 10.4141 -13.8359 Q11.0625 -14.0312 11.9531 -14.0312 Q12.7188 -14.0312 13.25 -13.9219 L13.25 -12.1562 L12.2969 -12.1562 Q12.1094 -12.7188 11.8594 -12.9609 Q11.6094 -13.2031 11.1562 -13.2031 Q10.8281 -13.2031 10.6094 -13.1172 Q10.3906 -13.0312 10.2109 -12.8438 Q10.0312 -12.6562 9.8984 -12.3438 Q9.7656 -12.0312 9.7031 -11.5703 Q9.6406 -11.1094 9.6406 -10.3594 L9.6406 -9.3438 L11.9688 -9.3438 L11.9688 -8.3438 ZM25.0312 -5.2812 Q25.375 -4.7031 25.6172 -4.2578 Q25.8594 -3.8125 26.1094 -3.2656 L26.2344 -3.2656 Q26.1875 -3.875 26.1484 -5.6406 Q26.1094 -7.4062 26.1094 -8.8438 L26.1094 -10.8906 Q26.1094 -11.5625 26.0703 -11.875 Q26.0312 -12.1875 25.9297 -12.3516 Q25.8281 -12.5156 25.6484 -12.6172 Q25.4688 -12.7188 25.0156 -12.8594 L25.0156 -13.3281 L28.5312 -13.3281 L28.5312 -12.8594 Q28.0938 -12.7344 27.9141 -12.6406 Q27.7344 -12.5469 27.6172 -12.3906 Q27.5 -12.2344 27.4453 -11.9219 Q27.3906 -11.6094 27.3906 -10.8906 L27.3906 0.0625 L26.1719 0.0625 L20.7344 -9.0625 Q20.2188 -9.9062 20.0078 -10.2969 Q19.7969 -10.6875 19.6094 -11.0781 L19.4375 -11.0781 Q19.5 -10.3281 19.5312 -8.3594 Q19.5625 -6.3906 19.5625 -4.4375 L19.5625 -2.4375 Q19.5625 -1.7812 19.6094 -1.4844 Q19.6562 -1.1875 19.7578 -1.0078 Q19.8594 -0.8281 20.0625 -0.7109 Q20.2656 -0.5938 20.7031 -0.4844 L20.7031 0 L17.1406 0 L17.1406 -0.4844 Q17.75 -0.6406 17.9531 -0.8281 Q18.1562 -1.0156 18.2188 -1.3672 Q18.2812 -1.7188 18.2812 -2.4375 L18.2812 -10.8906 Q18.2812 -11.5625 18.2344 -11.8672 Q18.1875 -12.1719 18.0781 -12.3438 Q17.9688 -12.5156 17.7812 -12.6172 Q17.5938 -12.7188 17.1406 -12.8594 L17.1406 -13.3281 L20.2031 -13.3281 L25.0312 -5.2812 ZM37.7344 -13.1719 L37.7344 -11.2656 L35.9375 -11.2656 L35.9375 -13.1719 L37.7344 -13.1719 ZM34.9531 -0.4844 Q35.3281 -0.5938 35.4922 -0.6797 Q35.6562 -0.7656 35.7656 -0.9219 Q35.875 -1.0781 35.9375 -1.4062 Q36 -1.7344 36 -2.4062 L36 -6.6719 Q36 -7.2969 35.9844 -7.6797 Q35.9688 -8.0625 35.8516 -8.2891 Q35.7344 -8.5156 35.4922 -8.625 Q35.25 -8.7344 34.8125 -8.8125 L34.8125 -9.3438 L37.0938 -9.4219 L37.6875 -9.4219 L37.6875 -2.4375 Q37.6875 -1.6094 37.7656 -1.2812 Q37.8438 -0.9531 38.0625 -0.7812 Q38.2812 -0.6094 38.7812 -0.4844 L38.7812 0 L34.9531 0 L34.9531 -0.4844 ZM47.4844 -7.2031 L46.5469 -7.2031 Q46.3438 -7.7812 46.0469 -8.1172 Q45.75 -8.4531 45.3828 -8.5938 Q45.0156 -8.7344 44.4688 -8.7344 Q43.6875 -8.7344 43.2266 -8.3672 Q42.7656 -8 42.7656 -7.3594 Q42.7656 -6.9219 42.9531 -6.625 Q43.1406 -6.3281 43.5312 -6.0781 Q43.9219 -5.8281 44.9062 -5.4062 Q45.9062 -4.9688 46.4453 -4.6094 Q46.9844 -4.25 47.2891 -3.7734 Q47.5938 -3.2969 47.5938 -2.625 Q47.5938 -1.8594 47.3359 -1.3281 Q47.0781 -0.7969 46.5938 -0.4688 Q46.1094 -0.1406 45.4531 0.0078 Q44.7969 0.1562 44.0156 0.1562 Q43.1875 0.1562 42.4219 0.0312 Q41.6562 -0.0938 40.9219 -0.2812 L40.9219 -2.3281 L41.875 -2.3281 Q42.1406 -1.4219 42.6562 -1.0156 Q43.1719 -0.6094 44.0781 -0.6094 Q44.4375 -0.6094 44.7734 -0.6875 Q45.1094 -0.7656 45.375 -0.9375 Q45.6406 -1.1094 45.7969 -1.3984 Q45.9531 -1.6875 45.9531 -2.125 Q45.9531 -2.625 45.7578 -2.9375 Q45.5625 -3.25 45.1484 -3.5078 Q44.7344 -3.7656 43.7031 -4.2031 Q42.8125 -4.5781 42.2734 -4.9297 Q41.7344 -5.2812 41.4297 -5.7578 Q41.125 -6.2344 41.125 -6.8906 Q41.125 -7.7031 41.5625 -8.2891 Q42 -8.875 42.8203 -9.1875 Q43.6406 -9.5 44.7344 -9.5 Q45.375 -9.5 45.9766 -9.4375 Q46.5781 -9.375 47.4844 -9.1875 L47.4844 -7.2031 ZM58.2031 0.1562 Q56.1719 0.1562 55.1016 -1.0391 Q54.0312 -2.2344 54.0312 -4.5781 Q54.0312 -6.1875 54.5938 -7.3047 Q55.1562 -8.4219 56.1328 -8.9609 Q57.1094 -9.5 58.3594 -9.5 Q60.4375 -9.5 61.5156 -8.2891 Q62.5938 -7.0781 62.5938 -4.7969 Q62.5938 -3.1719 62.0547 -2.0625 Q61.5156 -0.9531 60.5312 -0.3984 Q59.5469 0.1562 58.2031 0.1562 ZM55.875 -4.7812 Q55.875 -2.7812 56.5156 -1.6953 Q57.1562 -0.6094 58.3438 -0.6094 Q59 -0.6094 59.4609 -0.9297 Q59.9219 -1.25 60.2031 -1.7891 Q60.4844 -2.3281 60.6172 -3.0312 Q60.75 -3.7344 60.75 -4.5156 Q60.75 -5.9531 60.4297 -6.8984 Q60.1094 -7.8438 59.5625 -8.2891 Q59.0156 -8.7344 58.3125 -8.7344 Q57.125 -8.7344 56.5 -7.7109 Q55.875 -6.6875 55.875 -4.7812 ZM71.5469 -10.6094 Q71.5469 -11.5469 71.5312 -11.9219 Q71.5156 -12.2969 71.4531 -12.5547 Q71.3906 -12.8125 71.2734 -12.9609 Q71.1562 -13.1094 70.9688 -13.1953 Q70.7812 -13.2812 70.2812 -13.375 L70.2812 -13.875 L72.6406 -13.9688 L73.2188 -13.9688 L73.2188 -2.6719 Q73.2188 -1.9062 73.25 -1.5781 Q73.2812 -1.25 73.375 -1.0547 Q73.4688 -0.8594 73.6797 -0.7344 Q73.8906 -0.6094 74.4219 -0.5156 L74.4219 0 L72.1094 0.0938 L71.5312 0.0938 L71.6406 -1.5 L71.5 -1.5469 Q70.8906 -0.8906 70.4375 -0.5625 Q69.9844 -0.2344 69.4688 -0.0391 Q68.9531 0.1562 68.3594 0.1562 Q66.7656 0.1562 65.8984 -1.0625 Q65.0312 -2.2812 65.0312 -4.5781 Q65.0312 -6.1719 65.5938 -7.2891 Q66.1562 -8.4062 67.1172 -8.9531 Q68.0781 -9.5 69.2812 -9.5 Q69.9219 -9.5 70.4531 -9.3984 Q70.9844 -9.2969 71.5469 -9.0625 L71.5469 -10.6094 ZM71.5469 -5.7969 Q71.5469 -6.5469 71.4766 -7.0078 Q71.4062 -7.4688 71.2422 -7.7812 Q71.0781 -8.0938 70.8047 -8.3125 Q70.5312 -8.5312 70.2031 -8.625 Q69.875 -8.7188 69.4219 -8.7188 Q68.1719 -8.7188 67.5156 -7.7188 Q66.8594 -6.7188 66.8594 -4.8438 Q66.8594 -2.9688 67.3984 -1.9922 Q67.9375 -1.0156 69.0312 -1.0156 Q69.4531 -1.0156 69.7422 -1.0859 Q70.0312 -1.1562 70.3047 -1.3203 Q70.5781 -1.4844 70.8594 -1.7656 Q71.1406 -2.0469 71.2734 -2.2812 Q71.4062 -2.5156 71.4766 -2.8203 Q71.5469 -3.125 71.5469 -3.6094 L71.5469 -5.7969 ZM82.5469 -10.6094 Q82.5469 -11.5469 82.5312 -11.9219 Q82.5156 -12.2969 82.4531 -12.5547 Q82.3906 -12.8125 82.2734 -12.9609 Q82.1562 -13.1094 81.9688 -13.1953 Q81.7812 -13.2812 81.2812 -13.375 L81.2812 -13.875 L83.6406 -13.9688 L84.2188 -13.9688 L84.2188 -2.6719 Q84.2188 -1.9062 84.25 -1.5781 Q84.2812 -1.25 84.375 -1.0547 Q84.4688 -0.8594 84.6797 -0.7344 Q84.8906 -0.6094 85.4219 -0.5156 L85.4219 0 L83.1094 0.0938 L82.5312 0.0938 L82.6406 -1.5 L82.5 -1.5469 Q81.8906 -0.8906 81.4375 -0.5625 Q80.9844 -0.2344 80.4688 -0.0391 Q79.9531 0.1562 79.3594 0.1562 Q77.7656 0.1562 76.8984 -1.0625 Q76.0312 -2.2812 76.0312 -4.5781 Q76.0312 -6.1719 76.5938 -7.2891 Q77.1562 -8.4062 78.1172 -8.9531 Q79.0781 -9.5 80.2812 -9.5 Q80.9219 -9.5 81.4531 -9.3984 Q81.9844 -9.2969 82.5469 -9.0625 L82.5469 -10.6094 ZM82.5469 -5.7969 Q82.5469 -6.5469 82.4766 -7.0078 Q82.4062 -7.4688 82.2422 -7.7812 Q82.0781 -8.0938 81.8047 -8.3125 Q81.5312 -8.5312 81.2031 -8.625 Q80.875 -8.7188 80.4219 -8.7188 Q79.1719 -8.7188 78.5156 -7.7188 Q77.8594 -6.7188 77.8594 -4.8438 Q77.8594 -2.9688 78.3984 -1.9922 Q78.9375 -1.0156 80.0312 -1.0156 Q80.4531 -1.0156 80.7422 -1.0859 Q81.0312 -1.1562 81.3047 -1.3203 Q81.5781 -1.4844 81.8594 -1.7656 Q82.1406 -2.0469 82.2734 -2.2812 Q82.4062 -2.5156 82.4766 -2.8203 Q82.5469 -3.125 82.5469 -3.6094 L82.5469 -5.7969 Z" stroke="none"/></g></g></svg>