<?xml version="1.0" encoding="UTF-8" standalone="no"?><svg xmlns="http://www.w3.org/2000/svg" xmlns:xlink="http://www.w3.org/1999/xlink" stroke-dasharray="none" shape-rendering="auto" font-family="'Dialog'" width="61.812600" text-rendering="auto" fill-opacity="1" contentScriptType="text/ecmascript" color-interpolation="auto" color-rendering="auto" preserveAspectRatio="xMidYMid meet" font-size="12" fill="black" stroke="black" image-rendering="auto" stroke-miterlimit="10" zoomAndPan="magnify" version="1.0" stroke-linecap="square" stroke-linejoin="miter" contentStyleType="text/css" font-style="normal" height="15" stroke-width="1" stroke-dashoffset="0" font-weight="normal" stroke-opacity="1" y="-5.000000"><!--Converted from MathML using JEuclid--><defs id="genericDefs"/><g><g text-rendering="optimizeLegibility" transform="translate(0,10)" color-rendering="optimizeQuality" color-interpolation="linearRGB" image-rendering="optimizeQuality"><path d="M9.4844 -9.3438 Q9.4688 -7.7812 8.5547 -5.8281 Q7.6406 -3.875 4.125 0.0781 L2.875 0.0781 Q2.8281 -1.3906 2.5469 -4.2969 Q2.2656 -7.2031 2.1406 -7.6719 Q2.0156 -8.1406 1.8203 -8.2891 Q1.625 -8.4375 1.3906 -8.4375 Q1.2812 -8.4375 0.7812 -8.1094 Q0.6719 -8.0312 0.5938 -7.9844 L0.3594 -8.5312 Q1.3594 -9.5 2.4688 -9.5 Q3.0469 -9.5 3.4453 -8.8984 Q3.8438 -8.2969 4.0625 -6.0391 Q4.2812 -3.7812 4.2812 -1.9219 L4.2812 -1.625 Q4.2812 -1.4844 4.2812 -1.3594 Q7.625 -5.125 7.625 -8 L7.625 -8.3438 Q7.625 -8.4844 7.5625 -8.8438 L7.6719 -9.3438 L9.4844 -9.3438 Z" stroke="none"/></g><g text-rendering="optimizeLegibility" transform="translate(9.7656,13.3438)" color-rendering="optimizeQuality" color-interpolation="linearRGB" image-rendering="optimizeQuality"><path d="M6.4688 -6.2031 Q5.1406 -4.7812 3.6875 -3.4062 L4.3281 -1.9062 Q4.5781 -1.3125 4.7266 -1.0234 Q4.875 -0.7344 5 -0.6094 Q5.125 -0.4844 5.25 -0.4297 Q5.375 -0.375 5.6406 -0.3281 L5.5625 0 L3.8594 0 L2.9062 -2.75 Q2.75 -2.6094 2.4766 -2.3516 Q2.2031 -2.0938 1.9531 -1.8047 Q1.7031 -1.5156 1.6016 -1.3359 Q1.5 -1.1562 1.4688 -1.0234 Q1.4375 -0.8906 1.4375 -0.7656 Q1.4375 -0.5781 1.5391 -0.4766 Q1.6406 -0.375 1.875 -0.3281 L1.7969 0 L-0.1562 0 L-0.2812 -0.3281 Q1.2188 -1.9375 2.6719 -3.2969 L2.0156 -4.8125 Q1.8125 -5.2812 1.6953 -5.5234 Q1.5781 -5.7656 1.4609 -5.8984 Q1.3438 -6.0312 1.1953 -6.1094 Q1.0469 -6.1875 0.7812 -6.2031 L0.8594 -6.5312 L2.5625 -6.5312 L3.4688 -3.9531 Q3.7969 -4.2656 4.1016 -4.5938 Q4.4062 -4.9219 4.5312 -5.1172 Q4.6562 -5.3125 4.7031 -5.4609 Q4.75 -5.6094 4.75 -5.7656 Q4.75 -6.1406 4.3125 -6.2031 L4.375 -6.5312 L6.3281 -6.5312 L6.4688 -6.2031 Z" stroke="none"/></g><g text-rendering="optimizeLegibility" transform="translate(16.2812,13.3438)" color-rendering="optimizeQuality" color-interpolation="linearRGB" image-rendering="optimizeQuality"><path d="M5.4531 -1.9219 L5.0312 0 L0.0781 0 L-0.0469 -0.3281 L3.6875 -4.6406 Q4.4844 -5.5469 4.8594 -5.9375 L4.8125 -5.9844 L3.2188 -5.9844 Q2.8594 -5.9844 2.6953 -5.9375 Q2.5312 -5.8906 2.3672 -5.7656 Q2.2031 -5.6406 2.0156 -5.4062 Q1.8281 -5.1719 1.5938 -4.7344 L0.9844 -4.7344 L1.3906 -6.5312 L6.25 -6.5312 L6.375 -6.1875 L1.4688 -0.6094 L1.5156 -0.5469 L3.0625 -0.5469 Q3.4688 -0.5469 3.6875 -0.5938 Q3.9062 -0.6406 4.0703 -0.7656 Q4.2344 -0.8906 4.4062 -1.1406 Q4.5781 -1.3906 4.8438 -1.9219 L5.4531 -1.9219 Z" stroke="none"/></g><g text-rendering="optimizeLegibility" transform="translate(23.4375,10)" color-rendering="optimizeQuality" color-interpolation="linearRGB" image-rendering="optimizeQuality"><path d="M1.2188 -7.0625 L1.2188 -8.4219 L9.8594 -8.4219 L9.8594 -7.0625 L1.2188 -7.0625 ZM1.2188 -3.0156 L1.2188 -4.3594 L9.8594 -4.3594 L9.8594 -3.0156 L1.2188 -3.0156 Z" stroke="none"/></g><g text-rendering="optimizeLegibility" transform="translate(35.2969,10)" color-rendering="optimizeQuality" color-interpolation="linearRGB" image-rendering="optimizeQuality"><path d="M9.4844 -9.3438 Q9.4688 -7.7812 8.5547 -5.8281 Q7.6406 -3.875 4.125 0.0781 L2.875 0.0781 Q2.8281 -1.3906 2.5469 -4.2969 Q2.2656 -7.2031 2.1406 -7.6719 Q2.0156 -8.1406 1.8203 -8.2891 Q1.625 -8.4375 1.3906 -8.4375 Q1.2812 -8.4375 0.7812 -8.1094 Q0.6719 -8.0312 0.5938 -7.9844 L0.3594 -8.5312 Q1.3594 -9.5 2.4688 -9.5 Q3.0469 -9.5 3.4453 -8.8984 Q3.8438 -8.2969 4.0625 -6.0391 Q4.2812 -3.7812 4.2812 -1.9219 L4.2812 -1.625 Q4.2812 -1.4844 4.2812 -1.3594 Q7.625 -5.125 7.625 -8 L7.625 -8.3438 Q7.625 -8.4844 7.5625 -8.8438 L7.6719 -9.3438 L9.4844 -9.3438 Z" stroke="none"/></g><g text-rendering="optimizeLegibility" transform="translate(44.7812,14.8359)" color-rendering="optimizeQuality" color-interpolation="linearRGB" image-rendering="optimizeQuality"><path d="M5.5312 -4.2344 Q5.8594 -3.9844 6.0625 -3.6406 Q6.2656 -3.2969 6.3906 -2.6875 L6.5469 -1.9062 Q6.5938 -1.6562 6.6484 -1.4453 Q6.7031 -1.2344 6.7812 -1.0391 Q6.8594 -0.8438 6.9531 -0.7266 Q7.0469 -0.6094 7.1562 -0.5312 Q7.2656 -0.4531 7.3984 -0.4141 Q7.5312 -0.375 7.7344 -0.3281 L7.6562 0 L5.7656 0 Q5.5469 -0.6094 5.375 -1.4531 L5.0781 -2.9062 Q5 -3.2812 4.8984 -3.5312 Q4.7969 -3.7812 4.6484 -3.9219 Q4.5 -4.0625 4.3047 -4.1094 Q4.1094 -4.1562 3.8281 -4.1562 L3.0469 -4.1562 L2.5781 -1.9844 Q2.5156 -1.7188 2.4922 -1.5625 Q2.4688 -1.4062 2.4453 -1.2344 Q2.4219 -1.0625 2.4219 -0.9219 Q2.4219 -0.7188 2.4922 -0.5938 Q2.5625 -0.4688 2.7031 -0.4141 Q2.8438 -0.3594 3.1719 -0.3281 L3.0938 0 L0.2812 0 L0.3594 -0.3281 Q0.625 -0.375 0.75 -0.4688 Q0.875 -0.5625 0.9688 -0.7266 Q1.0625 -0.8906 1.1328 -1.125 Q1.2031 -1.3594 1.3594 -2.0312 L2.5156 -7.2969 Q2.6719 -7.9844 2.6719 -8.375 Q2.6719 -8.7188 2.5156 -8.8438 Q2.3594 -8.9688 2 -9 L2.0781 -9.3281 L5.125 -9.3281 Q5.8438 -9.3281 6.3047 -9.2422 Q6.7656 -9.1562 7.0859 -8.9844 Q7.4062 -8.8125 7.625 -8.5469 Q7.8438 -8.2812 7.9531 -7.9453 Q8.0625 -7.6094 8.0625 -7.2188 Q8.0625 -6.6094 7.8594 -6.1406 Q7.6562 -5.6719 7.3125 -5.3125 Q6.9688 -4.9531 6.5078 -4.7109 Q6.0469 -4.4688 5.5312 -4.3125 L5.5312 -4.2344 ZM3.9844 -4.75 Q4.7344 -4.75 5.2266 -4.8906 Q5.7188 -5.0312 6.0469 -5.3359 Q6.375 -5.6406 6.5859 -6.1328 Q6.7969 -6.625 6.7969 -7.2031 Q6.7969 -7.5 6.7422 -7.7266 Q6.6875 -7.9531 6.6016 -8.1016 Q6.5156 -8.25 6.375 -8.3672 Q6.2344 -8.4844 6.0312 -8.5703 Q5.8281 -8.6562 5.5547 -8.6953 Q5.2812 -8.7344 4.8125 -8.7344 Q4.4531 -8.7344 4.0469 -8.7031 L3.1719 -4.75 L3.9844 -4.75 Z" stroke="none"/></g><g text-rendering="optimizeLegibility" transform="translate(52.8438,14.8359)" color-rendering="optimizeQuality" color-interpolation="linearRGB" image-rendering="optimizeQuality"><path d="M3.0469 0.1094 Q0.8594 0.1094 0.8594 -2.6406 Q0.8594 -5.0312 2.1406 -7.3281 Q3.4219 -9.625 5.3906 -9.625 Q7.4531 -9.625 7.4531 -6.9375 Q7.4531 -4.5469 6.2031 -2.2188 Q4.9531 0.1094 3.0469 0.1094 ZM2.5156 -5.2812 L6.0312 -5.2812 Q6.2969 -6.7344 6.2969 -7.5 Q6.2969 -9.0625 5.25 -9.0625 Q4.4531 -9.0625 3.7422 -8.0781 Q3.0312 -7.0938 2.5156 -5.2812 ZM2.3594 -4.6406 Q1.9844 -3.0938 1.9844 -2.0469 Q1.9844 -0.4688 3.1719 -0.4688 Q4.0312 -0.4688 4.7266 -1.5703 Q5.4219 -2.6719 5.8906 -4.6406 L2.3594 -4.6406 Z" stroke="none"/></g></g></svg>