<?xml version="1.0" encoding="UTF-8" standalone="no"?><svg xmlns="http://www.w3.org/2000/svg" xmlns:xlink="http://www.w3.org/1999/xlink" stroke-dasharray="none" shape-rendering="auto" font-family="'Dialog'" width="95.812600" text-rendering="auto" fill-opacity="1" contentScriptType="text/ecmascript" color-interpolation="auto" color-rendering="auto" preserveAspectRatio="xMidYMid meet" font-size="12" fill="black" stroke="black" image-rendering="auto" stroke-miterlimit="10" zoomAndPan="magnify" version="1.0" stroke-linecap="square" stroke-linejoin="miter" contentStyleType="text/css" font-style="normal" height="33" stroke-width="1" stroke-dashoffset="0" font-weight="normal" stroke-opacity="1" y="-5.000000"><!--Converted from MathML using JEuclid--><defs id="genericDefs"/><g><g text-rendering="optimizeLegibility" transform="translate(0,28)" color-rendering="optimizeQuality" color-interpolation="linearRGB" image-rendering="optimizeQuality"><path d="M5.4688 -13.1719 L5.0156 -11.2656 L3.2969 -11.2656 L3.7344 -13.1719 L5.4688 -13.1719 ZM3.0625 -2.4375 Q2.9531 -1.9375 2.9219 -1.7109 Q2.8906 -1.4844 2.8906 -1.3281 Q2.8906 -1.0312 2.9922 -0.8672 Q3.0938 -0.7031 3.2969 -0.6172 Q3.5 -0.5312 3.9688 -0.4844 L3.875 0 L0.8438 0 L2.3281 -6.5781 Q2.4531 -7.1562 2.5 -7.4922 Q2.5469 -7.8281 2.5469 -8.0469 Q2.5469 -8.3281 2.4688 -8.4844 Q2.3906 -8.6406 2.1953 -8.7188 Q2 -8.7969 1.5156 -8.8125 L1.625 -9.3438 L4 -9.4219 L4.5781 -9.4219 L3.0625 -2.4375 Z" stroke="none"/></g><g text-rendering="optimizeLegibility" transform="translate(5.4688,32.6641)" color-rendering="optimizeQuality" color-interpolation="linearRGB" image-rendering="optimizeQuality"><path d="M5.5312 -4.2344 Q5.8594 -3.9844 6.0625 -3.6406 Q6.2656 -3.2969 6.3906 -2.6875 L6.5469 -1.9062 Q6.5938 -1.6562 6.6484 -1.4453 Q6.7031 -1.2344 6.7812 -1.0391 Q6.8594 -0.8438 6.9531 -0.7266 Q7.0469 -0.6094 7.1562 -0.5312 Q7.2656 -0.4531 7.3984 -0.4141 Q7.5312 -0.375 7.7344 -0.3281 L7.6562 0 L5.7656 0 Q5.5469 -0.6094 5.375 -1.4531 L5.0781 -2.9062 Q5 -3.2812 4.8984 -3.5312 Q4.7969 -3.7812 4.6484 -3.9219 Q4.5 -4.0625 4.3047 -4.1094 Q4.1094 -4.1562 3.8281 -4.1562 L3.0469 -4.1562 L2.5781 -1.9844 Q2.5156 -1.7188 2.4922 -1.5625 Q2.4688 -1.4062 2.4453 -1.2344 Q2.4219 -1.0625 2.4219 -0.9219 Q2.4219 -0.7188 2.4922 -0.5938 Q2.5625 -0.4688 2.7031 -0.4141 Q2.8438 -0.3594 3.1719 -0.3281 L3.0938 0 L0.2812 0 L0.3594 -0.3281 Q0.625 -0.375 0.75 -0.4688 Q0.875 -0.5625 0.9688 -0.7266 Q1.0625 -0.8906 1.1328 -1.125 Q1.2031 -1.3594 1.3594 -2.0312 L2.5156 -7.2969 Q2.6719 -7.9844 2.6719 -8.375 Q2.6719 -8.7188 2.5156 -8.8438 Q2.3594 -8.9688 2 -9 L2.0781 -9.3281 L5.125 -9.3281 Q5.8438 -9.3281 6.3047 -9.2422 Q6.7656 -9.1562 7.0859 -8.9844 Q7.4062 -8.8125 7.625 -8.5469 Q7.8438 -8.2812 7.9531 -7.9453 Q8.0625 -7.6094 8.0625 -7.2188 Q8.0625 -6.6094 7.8594 -6.1406 Q7.6562 -5.6719 7.3125 -5.3125 Q6.9688 -4.9531 6.5078 -4.7109 Q6.0469 -4.4688 5.5312 -4.3125 L5.5312 -4.2344 ZM3.9844 -4.75 Q4.7344 -4.75 5.2266 -4.8906 Q5.7188 -5.0312 6.0469 -5.3359 Q6.375 -5.6406 6.5859 -6.1328 Q6.7969 -6.625 6.7969 -7.2031 Q6.7969 -7.5 6.7422 -7.7266 Q6.6875 -7.9531 6.6016 -8.1016 Q6.5156 -8.25 6.375 -8.3672 Q6.2344 -8.4844 6.0312 -8.5703 Q5.8281 -8.6562 5.5547 -8.6953 Q5.2812 -8.7344 4.8125 -8.7344 Q4.4531 -8.7344 4.0469 -8.7031 L3.1719 -4.75 L3.9844 -4.75 Z" stroke="none"/></g><g text-rendering="optimizeLegibility" transform="translate(5.4688,19.5469)" color-rendering="optimizeQuality" color-interpolation="linearRGB" image-rendering="optimizeQuality"><path d="M6.4531 0 L4.2969 0 L5.1562 -3.4688 Q5.25 -3.8125 5.3281 -4.2109 Q5.4062 -4.6094 5.4062 -4.9375 Q5.4062 -5.4219 5.2344 -5.6328 Q5.0625 -5.8438 4.7031 -5.8438 Q4.4219 -5.8438 4.0938 -5.625 Q3.7656 -5.4062 3.3984 -4.9609 Q3.0312 -4.5156 2.7812 -4.0625 Q2.5312 -3.6094 2.4062 -2.9531 L1.7812 0 L0.5938 0 L1.6406 -4.6719 Q1.6719 -4.8281 1.7266 -5.1328 Q1.7812 -5.4375 1.7812 -5.6406 Q1.7812 -5.8438 1.7266 -5.9453 Q1.6719 -6.0469 1.5312 -6.1016 Q1.3906 -6.1562 1.0469 -6.1719 L1.1406 -6.5312 L2.6875 -6.5938 L3.0781 -6.5938 L2.625 -4.8125 L2.7031 -4.7969 Q3.375 -5.7344 3.9922 -6.1875 Q4.6094 -6.6406 5.2344 -6.6406 Q5.9062 -6.6406 6.2422 -6.2734 Q6.5781 -5.9062 6.5781 -5.2031 Q6.5781 -4.9531 6.5391 -4.6641 Q6.5 -4.375 6.4375 -4.1406 L5.8594 -1.7031 Q5.75 -1.2188 5.75 -0.9375 Q5.75 -0.7188 5.8203 -0.6094 Q5.8906 -0.5 6.0312 -0.4375 Q6.1719 -0.375 6.5 -0.3281 L6.4531 0 Z" stroke="none"/></g><g text-rendering="optimizeLegibility" transform="translate(11.2031,19.5469)" color-rendering="optimizeQuality" color-interpolation="linearRGB" image-rendering="optimizeQuality"><path d="M4.375 -3.5312 L4.375 -0.9375 L3.375 -0.9375 L3.375 -3.5312 L0.8438 -3.5312 L0.8438 -4.4844 L3.375 -4.4844 L3.375 -7.0625 L4.375 -7.0625 L4.375 -4.4844 L6.9062 -4.4844 L6.9062 -3.5312 L4.375 -3.5312 Z" stroke="none"/></g><g text-rendering="optimizeLegibility" transform="translate(18.1094,19.5469)" color-rendering="optimizeQuality" color-interpolation="linearRGB" image-rendering="optimizeQuality"><path d="M4.75 -1.7812 Q4.75 -1.3906 4.7969 -1.1875 Q4.8438 -0.9844 4.9531 -0.8594 Q5.0625 -0.7344 5.2734 -0.6641 Q5.4844 -0.5938 5.8047 -0.5547 Q6.125 -0.5156 6.6562 -0.5 L6.6562 0 L1.6094 0 L1.6094 -0.5 Q2.3594 -0.5312 2.6875 -0.5938 Q3.0156 -0.6562 3.1875 -0.7656 Q3.3594 -0.875 3.4375 -1.0938 Q3.5156 -1.3125 3.5156 -1.7812 L3.5156 -7.3281 Q3.5156 -7.6094 3.4219 -7.7344 Q3.3281 -7.8594 3.1406 -7.8594 Q2.9219 -7.8594 2.5156 -7.6328 Q2.1094 -7.4062 1.5156 -7 L1.2188 -7.5312 L4.4219 -9.4375 L4.7969 -9.4375 Q4.75 -8.7812 4.75 -7.625 L4.75 -1.7812 Z" stroke="none"/></g><g text-rendering="optimizeLegibility" transform="translate(25.5469,28)" color-rendering="optimizeQuality" color-interpolation="linearRGB" image-rendering="optimizeQuality"><path d="M1.2188 -7.0625 L1.2188 -8.4219 L9.8594 -8.4219 L9.8594 -7.0625 L1.2188 -7.0625 ZM1.2188 -3.0156 L1.2188 -4.3594 L9.8594 -4.3594 L9.8594 -3.0156 L1.2188 -3.0156 Z" stroke="none"/></g><g text-rendering="optimizeLegibility" stroke-width="1.6667" color-interpolation="linearRGB" color-rendering="optimizeQuality" image-rendering="optimizeQuality"><line y2="20.78" fill="none" x1="39.084" x2="91.2559" y1="20.78"/><path d="M4.2031 -9.3281 L4.125 -9 Q3.8281 -8.9688 3.6641 -8.8203 Q3.5 -8.6719 3.4297 -8.4141 Q3.3594 -8.1562 3.3594 -7.7344 Q3.3594 -7.5938 3.3594 -7.4375 L3.5625 -2.1094 L3.5625 -1.5625 L3.6406 -1.5625 L6.5938 -6.9062 Q6.8594 -7.375 6.9844 -7.7109 Q7.1094 -8.0469 7.1094 -8.3125 Q7.1094 -8.5938 6.9531 -8.7656 Q6.7969 -8.9375 6.4375 -9 L6.5156 -9.3281 L9.2969 -9.3281 L9.2344 -9 Q9.0469 -8.9688 8.875 -8.8594 Q8.7031 -8.75 8.5 -8.4844 Q8.2969 -8.2188 7.8594 -7.4688 L3.4844 0.1094 L2.5781 0.1094 L2.1094 -7.5156 Q2.0781 -7.9531 2.0078 -8.2734 Q1.9375 -8.5938 1.7891 -8.7734 Q1.6406 -8.9531 1.2969 -9 L1.375 -9.3281 L4.2031 -9.3281 Z" stroke-width="1" transform="translate(39.084,13.7689)" stroke="none"/></g><g text-rendering="optimizeLegibility" transform="translate(48.3809,17.2142)" color-rendering="optimizeQuality" color-interpolation="linearRGB" image-rendering="optimizeQuality"><path d="M1.8438 -1.4219 Q1.7656 -1.1406 1.75 -0.9688 Q1.7344 -0.7969 1.7344 -0.6562 Q1.7344 -0.4375 1.8438 -0.3516 Q1.9531 -0.2656 2.2188 -0.2344 L2.1562 0 L0.2031 0 L0.2656 -0.2344 Q0.4375 -0.2656 0.5312 -0.3359 Q0.625 -0.4062 0.6875 -0.5234 Q0.75 -0.6406 0.8047 -0.8047 Q0.8594 -0.9688 0.9688 -1.4531 L1.7969 -5.2188 Q1.8438 -5.4375 1.875 -5.6484 Q1.9062 -5.8594 1.9062 -6 Q1.9062 -6.2344 1.7891 -6.3203 Q1.6719 -6.4062 1.4375 -6.4219 L1.4844 -6.6719 L3.4375 -6.6719 L3.3906 -6.4219 Q3.2031 -6.3906 3.1172 -6.3438 Q3.0312 -6.2969 2.9688 -6.1953 Q2.9062 -6.0938 2.8438 -5.8828 Q2.7812 -5.6719 2.6719 -5.2031 L1.8438 -1.4219 Z" stroke="none"/></g><g text-rendering="optimizeLegibility" transform="translate(48.3809,7.8158)" color-rendering="optimizeQuality" color-interpolation="linearRGB" image-rendering="optimizeQuality"><path d="M4.6094 0 L3.0625 0 L3.6875 -2.4844 Q3.75 -2.7188 3.8047 -3.0078 Q3.8594 -3.2969 3.8594 -3.5312 Q3.8594 -3.875 3.7422 -4.0234 Q3.625 -4.1719 3.3594 -4.1719 Q3.1562 -4.1719 2.9219 -4.0156 Q2.6875 -3.8594 2.4297 -3.5469 Q2.1719 -3.2344 1.9922 -2.9062 Q1.8125 -2.5781 1.7188 -2.1094 L1.2656 0 L0.4219 0 L1.1719 -3.3281 Q1.1875 -3.4531 1.2344 -3.6719 Q1.2812 -3.8906 1.2812 -4.0312 Q1.2812 -4.1719 1.2344 -4.25 Q1.1875 -4.3281 1.0859 -4.3594 Q0.9844 -4.3906 0.75 -4.4062 L0.8125 -4.6719 L1.9219 -4.7188 L2.2031 -4.7188 L1.875 -3.4375 L1.9219 -3.4219 Q2.4062 -4.0938 2.8516 -4.4219 Q3.2969 -4.75 3.7344 -4.75 Q4.2188 -4.75 4.4609 -4.4844 Q4.7031 -4.2188 4.7031 -3.7188 Q4.7031 -3.5312 4.6719 -3.3281 Q4.6406 -3.125 4.5938 -2.9531 L4.1875 -1.2188 Q4.1094 -0.875 4.1094 -0.6719 Q4.1094 -0.5156 4.1562 -0.4375 Q4.2031 -0.3594 4.3047 -0.3125 Q4.4062 -0.2656 4.6406 -0.2344 L4.6094 0 Z" stroke="none"/></g><g text-rendering="optimizeLegibility" transform="translate(52.4747,7.8158)" color-rendering="optimizeQuality" color-interpolation="linearRGB" image-rendering="optimizeQuality"><path d="M3.125 -2.5156 L3.125 -0.6719 L2.4062 -0.6719 L2.4062 -2.5156 L0.6094 -2.5156 L0.6094 -3.2031 L2.4062 -3.2031 L2.4062 -5.0469 L3.125 -5.0469 L3.125 -3.2031 L4.9375 -3.2031 L4.9375 -2.5156 L3.125 -2.5156 Z" stroke="none"/></g><g text-rendering="optimizeLegibility" transform="translate(57.4122,7.8158)" color-rendering="optimizeQuality" color-interpolation="linearRGB" image-rendering="optimizeQuality"><path d="M3.3906 -1.2812 Q3.3906 -0.9844 3.4219 -0.8438 Q3.4531 -0.7031 3.5391 -0.6094 Q3.625 -0.5156 3.7734 -0.4688 Q3.9219 -0.4219 4.1484 -0.3906 Q4.375 -0.3594 4.75 -0.3594 L4.75 0 L1.1406 0 L1.1406 -0.3594 Q1.6875 -0.375 1.9219 -0.4219 Q2.1562 -0.4688 2.2734 -0.5469 Q2.3906 -0.625 2.4531 -0.7812 Q2.5156 -0.9375 2.5156 -1.2812 L2.5156 -5.2344 Q2.5156 -5.4375 2.4453 -5.5234 Q2.375 -5.6094 2.2344 -5.6094 Q2.0781 -5.6094 1.7969 -5.4453 Q1.5156 -5.2812 1.0781 -5 L0.875 -5.375 L3.1562 -6.75 L3.4219 -6.75 Q3.3906 -6.2812 3.3906 -5.4375 L3.3906 -1.2812 Z" stroke="none"/></g><g text-rendering="optimizeLegibility" transform="translate(61.2872,13.7689)" color-rendering="optimizeQuality" color-interpolation="linearRGB" image-rendering="optimizeQuality"><path d="M0.875 -3.5312 L0.875 -4.4844 L6.8906 -4.4844 L6.8906 -3.5312 L0.875 -3.5312 Z" stroke="none"/></g><g text-rendering="optimizeLegibility" transform="translate(68.1778,13.7689)" color-rendering="optimizeQuality" color-interpolation="linearRGB" image-rendering="optimizeQuality"><path d="M4.2031 -9.3281 L4.125 -9 Q3.8281 -8.9688 3.6641 -8.8203 Q3.5 -8.6719 3.4297 -8.4141 Q3.3594 -8.1562 3.3594 -7.7344 Q3.3594 -7.5938 3.3594 -7.4375 L3.5625 -2.1094 L3.5625 -1.5625 L3.6406 -1.5625 L6.5938 -6.9062 Q6.8594 -7.375 6.9844 -7.7109 Q7.1094 -8.0469 7.1094 -8.3125 Q7.1094 -8.5938 6.9531 -8.7656 Q6.7969 -8.9375 6.4375 -9 L6.5156 -9.3281 L9.2969 -9.3281 L9.2344 -9 Q9.0469 -8.9688 8.875 -8.8594 Q8.7031 -8.75 8.5 -8.4844 Q8.2969 -8.2188 7.8594 -7.4688 L3.4844 0.1094 L2.5781 0.1094 L2.1094 -7.5156 Q2.0781 -7.9531 2.0078 -8.2734 Q1.9375 -8.5938 1.7891 -8.7734 Q1.6406 -8.9531 1.2969 -9 L1.375 -9.3281 L4.2031 -9.3281 Z" stroke="none"/></g><g text-rendering="optimizeLegibility" transform="translate(78.584,16.3783)" color-rendering="optimizeQuality" color-interpolation="linearRGB" image-rendering="optimizeQuality"><path d="M1.4688 -0.2031 Q1.2969 0.5469 1.0391 1 Q0.7812 1.4531 0.3672 1.6719 Q-0.0469 1.8906 -0.6406 1.8906 Q-0.7656 1.8906 -0.8984 1.875 Q-1.0312 1.8594 -1.1094 1.8438 L-0.9844 1.375 Q-0.9062 1.3906 -0.8047 1.3984 Q-0.7031 1.4062 -0.6094 1.4062 Q-0.3281 1.4062 -0.1172 1.2734 Q0.0938 1.1406 0.2656 0.8203 Q0.4375 0.5 0.5625 -0.0625 L1.7031 -5.2188 Q1.75 -5.4375 1.7812 -5.6484 Q1.8125 -5.8594 1.8125 -6 Q1.8125 -6.2344 1.6953 -6.3203 Q1.5781 -6.4062 1.3281 -6.4219 L1.375 -6.6719 L3.3281 -6.6719 L3.2812 -6.4219 Q3.0938 -6.3906 3.0156 -6.3438 Q2.9375 -6.2969 2.8672 -6.1953 Q2.7969 -6.0938 2.7344 -5.8828 Q2.6719 -5.6719 2.5625 -5.2031 L1.4688 -0.2031 Z" stroke="none"/></g><g text-rendering="optimizeLegibility" transform="translate(77.4747,7.7064)" color-rendering="optimizeQuality" color-interpolation="linearRGB" image-rendering="optimizeQuality"><path d="M4.6094 0 L3.0625 0 L3.6875 -2.4844 Q3.75 -2.7188 3.8047 -3.0078 Q3.8594 -3.2969 3.8594 -3.5312 Q3.8594 -3.875 3.7422 -4.0234 Q3.625 -4.1719 3.3594 -4.1719 Q3.1562 -4.1719 2.9219 -4.0156 Q2.6875 -3.8594 2.4297 -3.5469 Q2.1719 -3.2344 1.9922 -2.9062 Q1.8125 -2.5781 1.7188 -2.1094 L1.2656 0 L0.4219 0 L1.1719 -3.3281 Q1.1875 -3.4531 1.2344 -3.6719 Q1.2812 -3.8906 1.2812 -4.0312 Q1.2812 -4.1719 1.2344 -4.25 Q1.1875 -4.3281 1.0859 -4.3594 Q0.9844 -4.3906 0.75 -4.4062 L0.8125 -4.6719 L1.9219 -4.7188 L2.2031 -4.7188 L1.875 -3.4375 L1.9219 -3.4219 Q2.4062 -4.0938 2.8516 -4.4219 Q3.2969 -4.75 3.7344 -4.75 Q4.2188 -4.75 4.4609 -4.4844 Q4.7031 -4.2188 4.7031 -3.7188 Q4.7031 -3.5312 4.6719 -3.3281 Q4.6406 -3.125 4.5938 -2.9531 L4.1875 -1.2188 Q4.1094 -0.875 4.1094 -0.6719 Q4.1094 -0.5156 4.1562 -0.4375 Q4.2031 -0.3594 4.3047 -0.3125 Q4.4062 -0.2656 4.6406 -0.2344 L4.6094 0 Z" stroke="none"/></g><g text-rendering="optimizeLegibility" transform="translate(81.5684,7.7064)" color-rendering="optimizeQuality" color-interpolation="linearRGB" image-rendering="optimizeQuality"><path d="M3.125 -2.5156 L3.125 -0.6719 L2.4062 -0.6719 L2.4062 -2.5156 L0.6094 -2.5156 L0.6094 -3.2031 L2.4062 -3.2031 L2.4062 -5.0469 L3.125 -5.0469 L3.125 -3.2031 L4.9375 -3.2031 L4.9375 -2.5156 L3.125 -2.5156 Z" stroke="none"/></g><g text-rendering="optimizeLegibility" transform="translate(86.5059,7.7064)" color-rendering="optimizeQuality" color-interpolation="linearRGB" image-rendering="optimizeQuality"><path d="M3.3906 -1.2812 Q3.3906 -0.9844 3.4219 -0.8438 Q3.4531 -0.7031 3.5391 -0.6094 Q3.625 -0.5156 3.7734 -0.4688 Q3.9219 -0.4219 4.1484 -0.3906 Q4.375 -0.3594 4.75 -0.3594 L4.75 0 L1.1406 0 L1.1406 -0.3594 Q1.6875 -0.375 1.9219 -0.4219 Q2.1562 -0.4688 2.2734 -0.5469 Q2.3906 -0.625 2.4531 -0.7812 Q2.5156 -0.9375 2.5156 -1.2812 L2.5156 -5.2344 Q2.5156 -5.4375 2.4453 -5.5234 Q2.375 -5.6094 2.2344 -5.6094 Q2.0781 -5.6094 1.7969 -5.4453 Q1.5156 -5.2812 1.0781 -5 L0.875 -5.375 L3.1562 -6.75 L3.4219 -6.75 Q3.3906 -6.2812 3.3906 -5.4375 L3.3906 -1.2812 Z" stroke="none"/></g><g text-rendering="optimizeLegibility" transform="translate(61.1387,32.6192)" color-rendering="optimizeQuality" color-interpolation="linearRGB" image-rendering="optimizeQuality"><path d="M5.5312 -4.2344 Q5.8594 -3.9844 6.0625 -3.6406 Q6.2656 -3.2969 6.3906 -2.6875 L6.5469 -1.9062 Q6.5938 -1.6562 6.6484 -1.4453 Q6.7031 -1.2344 6.7812 -1.0391 Q6.8594 -0.8438 6.9531 -0.7266 Q7.0469 -0.6094 7.1562 -0.5312 Q7.2656 -0.4531 7.3984 -0.4141 Q7.5312 -0.375 7.7344 -0.3281 L7.6562 0 L5.7656 0 Q5.5469 -0.6094 5.375 -1.4531 L5.0781 -2.9062 Q5 -3.2812 4.8984 -3.5312 Q4.7969 -3.7812 4.6484 -3.9219 Q4.5 -4.0625 4.3047 -4.1094 Q4.1094 -4.1562 3.8281 -4.1562 L3.0469 -4.1562 L2.5781 -1.9844 Q2.5156 -1.7188 2.4922 -1.5625 Q2.4688 -1.4062 2.4453 -1.2344 Q2.4219 -1.0625 2.4219 -0.9219 Q2.4219 -0.7188 2.4922 -0.5938 Q2.5625 -0.4688 2.7031 -0.4141 Q2.8438 -0.3594 3.1719 -0.3281 L3.0938 0 L0.2812 0 L0.3594 -0.3281 Q0.625 -0.375 0.75 -0.4688 Q0.875 -0.5625 0.9688 -0.7266 Q1.0625 -0.8906 1.1328 -1.125 Q1.2031 -1.3594 1.3594 -2.0312 L2.5156 -7.2969 Q2.6719 -7.9844 2.6719 -8.375 Q2.6719 -8.7188 2.5156 -8.8438 Q2.3594 -8.9688 2 -9 L2.0781 -9.3281 L5.125 -9.3281 Q5.8438 -9.3281 6.3047 -9.2422 Q6.7656 -9.1562 7.0859 -8.9844 Q7.4062 -8.8125 7.625 -8.5469 Q7.8438 -8.2812 7.9531 -7.9453 Q8.0625 -7.6094 8.0625 -7.2188 Q8.0625 -6.6094 7.8594 -6.1406 Q7.6562 -5.6719 7.3125 -5.3125 Q6.9688 -4.9531 6.5078 -4.7109 Q6.0469 -4.4688 5.5312 -4.3125 L5.5312 -4.2344 ZM3.9844 -4.75 Q4.7344 -4.75 5.2266 -4.8906 Q5.7188 -5.0312 6.0469 -5.3359 Q6.375 -5.6406 6.5859 -6.1328 Q6.7969 -6.625 6.7969 -7.2031 Q6.7969 -7.5 6.7422 -7.7266 Q6.6875 -7.9531 6.6016 -8.1016 Q6.5156 -8.25 6.375 -8.3672 Q6.2344 -8.4844 6.0312 -8.5703 Q5.8281 -8.6562 5.5547 -8.6953 Q5.2812 -8.7344 4.8125 -8.7344 Q4.4531 -8.7344 4.0469 -8.7031 L3.1719 -4.75 L3.9844 -4.75 Z" stroke="none"/></g></g></svg>