<?xml version="1.0" encoding="UTF-8" standalone="no"?><svg xmlns="http://www.w3.org/2000/svg" xmlns:xlink="http://www.w3.org/1999/xlink" stroke-dasharray="none" shape-rendering="auto" font-family="'Dialog'" width="25.812600" text-rendering="auto" fill-opacity="1" contentScriptType="text/ecmascript" color-interpolation="auto" color-rendering="auto" preserveAspectRatio="xMidYMid meet" font-size="12" fill="black" stroke="black" image-rendering="auto" stroke-miterlimit="10" zoomAndPan="magnify" version="1.0" stroke-linecap="square" stroke-linejoin="miter" contentStyleType="text/css" font-style="normal" height="19" stroke-width="1" stroke-dashoffset="0" font-weight="normal" stroke-opacity="1" y="-5.000000"><!--Converted from MathML using JEuclid--><defs id="genericDefs"/><g><g text-rendering="optimizeLegibility" transform="translate(0,14)" color-rendering="optimizeQuality" color-interpolation="linearRGB" image-rendering="optimizeQuality"><path d="M11.5625 -12.9844 L10.9844 -10.3438 L10.0469 -10.3438 Q9.9688 -11.5469 9.5234 -12.0781 Q9.0781 -12.6094 8.0938 -12.6094 Q7.2656 -12.6094 6.5469 -12.125 Q5.8281 -11.6406 5.1797 -10.7266 Q4.5312 -9.8125 4.0547 -8.5859 Q3.5781 -7.3594 3.3203 -6.0859 Q3.0625 -4.8125 3.0625 -3.7969 Q3.0625 -2.2031 3.5859 -1.4531 Q4.1094 -0.7031 5.2188 -0.7031 Q5.9531 -0.7031 6.5 -0.9219 Q7.0469 -1.1406 7.5312 -1.6641 Q8.0156 -2.1875 8.4844 -3.125 L9.4219 -3.125 L8.8125 -0.3594 Q7.8281 -0.0781 6.8984 0.0391 Q5.9688 0.1562 4.9844 0.1562 Q3.7812 0.1562 2.9297 -0.3438 Q2.0781 -0.8438 1.6484 -1.7969 Q1.2188 -2.75 1.2188 -4.0938 Q1.2188 -4.7969 1.3125 -5.4531 Q1.4375 -6.2812 1.6875 -7.25 Q2.0156 -8.4531 2.5 -9.4375 Q3.0312 -10.4844 3.7031 -11.2812 Q4.3438 -12.0156 5.0781 -12.5156 Q5.7656 -12.9844 6.5547 -13.2344 Q7.3438 -13.4844 8.2344 -13.4844 Q9.125 -13.4844 9.8828 -13.375 Q10.6406 -13.2656 11.5625 -12.9844 Z" stroke="none"/></g><g text-rendering="optimizeLegibility" transform="translate(11.5625,18.8203)" color-rendering="optimizeQuality" color-interpolation="linearRGB" image-rendering="optimizeQuality"><path d="M6.3906 -6.5312 L6.5625 -6.1875 Q6.3125 -5.5781 6.1797 -5.2891 Q6.0469 -5 5.8203 -4.5547 Q5.5938 -4.1094 5.3125 -3.625 Q5.0312 -3.1406 4.6641 -2.5859 Q4.2969 -2.0312 3.8359 -1.375 Q3.375 -0.7188 2.75 0.1094 L1.9062 0.1094 L1.2656 -5.0469 Q1.2031 -5.5469 1.1328 -5.7656 Q1.0625 -5.9844 0.9219 -6.0859 Q0.7812 -6.1875 0.5 -6.2031 L0.5625 -6.5312 L2.3281 -6.5312 L2.8438 -1.0938 Q4.0156 -2.7188 4.5859 -3.8281 Q5.1562 -4.9375 5.1562 -5.625 Q5.1562 -5.9531 5.0156 -6.0703 Q4.875 -6.1875 4.5469 -6.2031 L4.625 -6.5312 L6.3906 -6.5312 Z" stroke="none"/></g><g text-rendering="optimizeLegibility" transform="translate(18.125,18.8203)" color-rendering="optimizeQuality" color-interpolation="linearRGB" image-rendering="optimizeQuality"><path d="M4.75 -1.7812 Q4.75 -1.3906 4.7969 -1.1875 Q4.8438 -0.9844 4.9531 -0.8594 Q5.0625 -0.7344 5.2734 -0.6641 Q5.4844 -0.5938 5.8047 -0.5547 Q6.125 -0.5156 6.6562 -0.5 L6.6562 0 L1.6094 0 L1.6094 -0.5 Q2.3594 -0.5312 2.6875 -0.5938 Q3.0156 -0.6562 3.1875 -0.7656 Q3.3594 -0.875 3.4375 -1.0938 Q3.5156 -1.3125 3.5156 -1.7812 L3.5156 -7.3281 Q3.5156 -7.6094 3.4219 -7.7344 Q3.3281 -7.8594 3.1406 -7.8594 Q2.9219 -7.8594 2.5156 -7.6328 Q2.1094 -7.4062 1.5156 -7 L1.2188 -7.5312 L4.4219 -9.4375 L4.7969 -9.4375 Q4.75 -8.7812 4.75 -7.625 L4.75 -1.7812 Z" stroke="none"/></g></g></svg>