<?xml version="1.0" encoding="UTF-8" standalone="no"?><svg xmlns="http://www.w3.org/2000/svg" xmlns:xlink="http://www.w3.org/1999/xlink" stroke-dasharray="none" shape-rendering="auto" font-family="'Dialog'" width="248.812600" text-rendering="auto" fill-opacity="1" contentScriptType="text/ecmascript" color-interpolation="auto" color-rendering="auto" preserveAspectRatio="xMidYMid meet" font-size="12" fill="black" stroke="black" image-rendering="auto" stroke-miterlimit="10" zoomAndPan="magnify" version="1.0" stroke-linecap="square" stroke-linejoin="miter" contentStyleType="text/css" font-style="normal" height="134" stroke-width="1" stroke-dashoffset="0" font-weight="normal" stroke-opacity="1" y="-60.000000"><!--Converted from MathML using JEuclid--><defs id="genericDefs"/><g><g text-rendering="optimizeLegibility" transform="translate(-0.2344,74)" color-rendering="optimizeQuality" color-interpolation="linearRGB" image-rendering="optimizeQuality"><path d="M6.5781 4.2031 L2.2344 4.2031 L2.2344 -13.9688 L6.5781 -13.9688 L6.5781 -13.1719 L3.9531 -13.1719 L3.9531 3.4062 L6.5781 3.4062 L6.5781 4.2031 Z" stroke="none"/></g><g text-rendering="optimizeLegibility" transform="translate(9.25,74)" color-rendering="optimizeQuality" color-interpolation="linearRGB" image-rendering="optimizeQuality"><path d="M6.625 0 L6.7344 -0.4844 Q7.1719 -0.5156 7.4219 -0.7344 Q7.6719 -0.9531 7.7734 -1.3281 Q7.875 -1.7031 7.875 -2.3281 Q7.875 -2.7188 7.8438 -3.1719 L7.7812 -4.4219 L3.4844 -4.4219 L2.9375 -3.4688 Q2.5625 -2.7969 2.3828 -2.3125 Q2.2031 -1.8281 2.2031 -1.4531 Q2.2031 -0.6406 3.1875 -0.4844 L3.0938 0 L-0.9062 0 L-0.7969 -0.4844 Q-0.5 -0.5156 -0.2266 -0.7188 Q0.0469 -0.9219 0.3438 -1.3281 Q0.6406 -1.7344 1.1875 -2.6719 L7.4531 -13.4844 L8.9219 -13.4844 L9.625 -2.5938 Q9.6719 -1.8281 9.8047 -1.3906 Q9.9375 -0.9531 10.1562 -0.7422 Q10.375 -0.5312 10.7969 -0.4844 L10.6875 0 L6.625 0 ZM3.9219 -5.2812 L7.7344 -5.2812 L7.5625 -8.4219 Q7.5469 -9.0625 7.5234 -10.0312 Q7.5 -11 7.5 -11.4219 L7.3906 -11.4219 L3.9219 -5.2812 Z" stroke="none"/></g><g text-rendering="optimizeLegibility" transform="translate(9.0781,62.1406)" color-rendering="optimizeQuality" color-interpolation="linearRGB" image-rendering="optimizeQuality"><path d="M9.5 -6.5312 L9.5 -5.0781 Q8.875 -4.5781 8.2812 -4.3516 Q7.6875 -4.125 7.0469 -4.125 Q6.2969 -4.125 5.3594 -4.5469 Q5.1719 -4.625 5.0781 -4.6719 Q4.4375 -4.9531 4.0156 -5.0469 Q3.5938 -5.1406 3.1562 -5.1406 Q2.5 -5.1406 1.9219 -4.8984 Q1.3438 -4.6562 0.7344 -4.125 L0.7344 -5.5625 Q1.375 -6.0625 1.9844 -6.2969 Q2.5938 -6.5312 3.2812 -6.5312 Q3.7188 -6.5312 4.1328 -6.4375 Q4.5469 -6.3438 5.1719 -6.0781 Q5.25 -6.0469 5.4375 -5.9531 Q6.4062 -5.5 7.1719 -5.5 Q7.75 -5.5 8.3203 -5.75 Q8.8906 -6 9.5 -6.5312 Z" stroke="none"/></g><g text-rendering="optimizeLegibility" transform="translate(20.0469,78.6641)" color-rendering="optimizeQuality" color-interpolation="linearRGB" image-rendering="optimizeQuality"><path d="M3.25 -5.1094 L3.4844 -5.1094 Q3.7656 -5.1094 4 -5.2109 Q4.2344 -5.3125 4.5547 -5.5625 Q4.875 -5.8125 5.5547 -6.4922 Q6.2344 -7.1719 6.5312 -7.5234 Q6.8281 -7.875 6.9609 -8.125 Q7.0938 -8.375 7.0938 -8.5938 Q7.0938 -8.7656 6.9531 -8.8672 Q6.8125 -8.9688 6.5625 -9 L6.6406 -9.3281 L9.5781 -9.3281 L9.5 -9 Q9.2188 -8.9531 8.875 -8.7109 Q8.5312 -8.4688 7.8281 -7.7656 L5.1719 -5.1875 L6.625 -1.6875 Q6.8125 -1.2344 6.9219 -1.0312 Q7.0312 -0.8281 7.1641 -0.6875 Q7.2969 -0.5469 7.4609 -0.4609 Q7.625 -0.375 7.8594 -0.3281 L7.7812 0 L5.1406 0 L5.2188 -0.3281 Q5.5781 -0.375 5.5781 -0.6562 Q5.5781 -0.75 5.5625 -0.8438 Q5.5469 -0.9375 5.4922 -1.125 Q5.4375 -1.3125 5.3281 -1.5781 L4.4375 -3.75 Q4.2812 -4.1406 4.1641 -4.2969 Q4.0469 -4.4531 3.9219 -4.5156 Q3.7969 -4.5781 3.5156 -4.5781 L3.1406 -4.5781 L2.5781 -1.9844 Q2.4844 -1.5781 2.4531 -1.3438 Q2.4219 -1.1094 2.4219 -0.9219 Q2.4219 -0.6094 2.5781 -0.4844 Q2.7344 -0.3594 3.0938 -0.3281 L3.0156 0 L0.2812 0 L0.3594 -0.3281 Q0.625 -0.375 0.75 -0.4688 Q0.875 -0.5625 0.9688 -0.7266 Q1.0625 -0.8906 1.1328 -1.125 Q1.2031 -1.3594 1.3594 -2.0312 L2.5156 -7.2969 Q2.5938 -7.6094 2.6328 -7.9062 Q2.6719 -8.2031 2.6719 -8.4062 Q2.6719 -8.7188 2.5078 -8.8438 Q2.3438 -8.9688 2 -9 L2.0781 -9.3281 L4.8125 -9.3281 L4.7344 -9 Q4.4844 -8.9375 4.3672 -8.875 Q4.25 -8.8125 4.1562 -8.6719 Q4.0625 -8.5312 3.9766 -8.2422 Q3.8906 -7.9531 3.7344 -7.2969 L3.25 -5.1094 Z" stroke="none"/></g><g text-rendering="optimizeLegibility" transform="translate(31.2031,74)" color-rendering="optimizeQuality" color-interpolation="linearRGB" image-rendering="optimizeQuality"><path d="M4.7812 4.2031 L0.4219 4.2031 L0.4219 3.4062 L3.0625 3.4062 L3.0625 -13.1719 L0.4219 -13.1719 L0.4219 -13.9688 L4.7812 -13.9688 L4.7812 4.2031 Z" stroke="none"/></g><g text-rendering="optimizeLegibility" transform="translate(38.7656,74)" color-rendering="optimizeQuality" color-interpolation="linearRGB" image-rendering="optimizeQuality"><path d="M1.2188 -7.0625 L1.2188 -8.4219 L9.8594 -8.4219 L9.8594 -7.0625 L1.2188 -7.0625 ZM1.2188 -3.0156 L1.2188 -4.3594 L9.8594 -4.3594 L9.8594 -3.0156 L1.2188 -3.0156 Z" stroke="none"/></g><g text-rendering="optimizeLegibility" transform="translate(50.3906,102.6013) matrix(1,0,0,7.3362,0,0)" color-rendering="optimizeQuality" color-interpolation="linearRGB" image-rendering="optimizeQuality"><path d="M6.5781 4.2031 L2.2344 4.2031 L2.2344 -13.9688 L6.5781 -13.9688 L6.5781 -13.1719 L3.9531 -13.1719 L3.9531 3.4062 L6.5781 3.4062 L6.5781 4.2031 Z" stroke="none"/></g><g text-rendering="optimizeLegibility" transform="translate(58.7344,23.2878)" color-rendering="optimizeQuality" color-interpolation="linearRGB" image-rendering="optimizeQuality"><path d="M6.5781 4.2031 L2.2344 4.2031 L2.2344 -13.9688 L6.5781 -13.9688 L6.5781 -13.1719 L3.9531 -13.1719 L3.9531 3.4062 L6.5781 3.4062 L6.5781 4.2031 Z" stroke="none"/></g><g text-rendering="optimizeLegibility" transform="translate(68.2188,23.2878)" color-rendering="optimizeQuality" color-interpolation="linearRGB" image-rendering="optimizeQuality"><path d="M6.625 0 L6.7344 -0.4844 Q7.1719 -0.5156 7.4219 -0.7344 Q7.6719 -0.9531 7.7734 -1.3281 Q7.875 -1.7031 7.875 -2.3281 Q7.875 -2.7188 7.8438 -3.1719 L7.7812 -4.4219 L3.4844 -4.4219 L2.9375 -3.4688 Q2.5625 -2.7969 2.3828 -2.3125 Q2.2031 -1.8281 2.2031 -1.4531 Q2.2031 -0.6406 3.1875 -0.4844 L3.0938 0 L-0.9062 0 L-0.7969 -0.4844 Q-0.5 -0.5156 -0.2266 -0.7188 Q0.0469 -0.9219 0.3438 -1.3281 Q0.6406 -1.7344 1.1875 -2.6719 L7.4531 -13.4844 L8.9219 -13.4844 L9.625 -2.5938 Q9.6719 -1.8281 9.8047 -1.3906 Q9.9375 -0.9531 10.1562 -0.7422 Q10.375 -0.5312 10.7969 -0.4844 L10.6875 0 L6.625 0 ZM3.9219 -5.2812 L7.7344 -5.2812 L7.5625 -8.4219 Q7.5469 -9.0625 7.5234 -10.0312 Q7.5 -11 7.5 -11.4219 L7.3906 -11.4219 L3.9219 -5.2812 Z" stroke="none"/></g><g text-rendering="optimizeLegibility" transform="translate(68.0469,11.4284)" color-rendering="optimizeQuality" color-interpolation="linearRGB" image-rendering="optimizeQuality"><path d="M9.5 -6.5312 L9.5 -5.0781 Q8.875 -4.5781 8.2812 -4.3516 Q7.6875 -4.125 7.0469 -4.125 Q6.2969 -4.125 5.3594 -4.5469 Q5.1719 -4.625 5.0781 -4.6719 Q4.4375 -4.9531 4.0156 -5.0469 Q3.5938 -5.1406 3.1562 -5.1406 Q2.5 -5.1406 1.9219 -4.8984 Q1.3438 -4.6562 0.7344 -4.125 L0.7344 -5.5625 Q1.375 -6.0625 1.9844 -6.2969 Q2.5938 -6.5312 3.2812 -6.5312 Q3.7188 -6.5312 4.1328 -6.4375 Q4.5469 -6.3438 5.1719 -6.0781 Q5.25 -6.0469 5.4375 -5.9531 Q6.4062 -5.5 7.1719 -5.5 Q7.75 -5.5 8.3203 -5.75 Q8.8906 -6 9.5 -6.5312 Z" stroke="none"/></g><g text-rendering="optimizeLegibility" transform="translate(79.0156,32.155)" color-rendering="optimizeQuality" color-interpolation="linearRGB" image-rendering="optimizeQuality"><path d="M3.25 -5.1094 L3.4844 -5.1094 Q3.7656 -5.1094 4 -5.2109 Q4.2344 -5.3125 4.5547 -5.5625 Q4.875 -5.8125 5.5547 -6.4922 Q6.2344 -7.1719 6.5312 -7.5234 Q6.8281 -7.875 6.9609 -8.125 Q7.0938 -8.375 7.0938 -8.5938 Q7.0938 -8.7656 6.9531 -8.8672 Q6.8125 -8.9688 6.5625 -9 L6.6406 -9.3281 L9.5781 -9.3281 L9.5 -9 Q9.2188 -8.9531 8.875 -8.7109 Q8.5312 -8.4688 7.8281 -7.7656 L5.1719 -5.1875 L6.625 -1.6875 Q6.8125 -1.2344 6.9219 -1.0312 Q7.0312 -0.8281 7.1641 -0.6875 Q7.2969 -0.5469 7.4609 -0.4609 Q7.625 -0.375 7.8594 -0.3281 L7.7812 0 L5.1406 0 L5.2188 -0.3281 Q5.5781 -0.375 5.5781 -0.6562 Q5.5781 -0.75 5.5625 -0.8438 Q5.5469 -0.9375 5.4922 -1.125 Q5.4375 -1.3125 5.3281 -1.5781 L4.4375 -3.75 Q4.2812 -4.1406 4.1641 -4.2969 Q4.0469 -4.4531 3.9219 -4.5156 Q3.7969 -4.5781 3.5156 -4.5781 L3.1406 -4.5781 L2.5781 -1.9844 Q2.4844 -1.5781 2.4531 -1.3438 Q2.4219 -1.1094 2.4219 -0.9219 Q2.4219 -0.6094 2.5781 -0.4844 Q2.7344 -0.3594 3.0938 -0.3281 L3.0156 0 L0.2812 0 L0.3594 -0.3281 Q0.625 -0.375 0.75 -0.4688 Q0.875 -0.5625 0.9688 -0.7266 Q1.0625 -0.8906 1.1328 -1.125 Q1.2031 -1.3594 1.3594 -2.0312 L2.5156 -7.2969 Q2.5938 -7.6094 2.6328 -7.9062 Q2.6719 -8.2031 2.6719 -8.4062 Q2.6719 -8.7188 2.5078 -8.8438 Q2.3438 -8.9688 2 -9 L2.0781 -9.3281 L4.8125 -9.3281 L4.7344 -9 Q4.4844 -8.9375 4.3672 -8.875 Q4.25 -8.8125 4.1562 -8.6719 Q4.0625 -8.5312 3.9766 -8.2422 Q3.8906 -7.9531 3.7344 -7.2969 L3.25 -5.1094 Z" stroke="none"/></g><g text-rendering="optimizeLegibility" transform="translate(79.0156,9.5612)" color-rendering="optimizeQuality" color-interpolation="linearRGB" image-rendering="optimizeQuality"><path d="M3.7969 0.1094 Q2.3281 0.1094 1.6016 -1.0547 Q0.875 -2.2188 0.875 -4.5781 Q0.875 -5.8438 1.1016 -6.7578 Q1.3281 -7.6719 1.7266 -8.2656 Q2.125 -8.8594 2.6875 -9.1484 Q3.25 -9.4375 3.9062 -9.4375 Q5.4062 -9.4375 6.1406 -8.2812 Q6.875 -7.125 6.875 -4.7969 Q6.875 -2.375 6.0938 -1.1328 Q5.3125 0.1094 3.7969 0.1094 ZM2.2188 -4.7812 Q2.2188 -2.5625 2.6328 -1.5156 Q3.0469 -0.4688 3.9062 -0.4688 Q4.7344 -0.4688 5.1328 -1.4531 Q5.5312 -2.4375 5.5312 -4.4844 Q5.5312 -6.0625 5.3281 -7.0391 Q5.125 -8.0156 4.7578 -8.4375 Q4.3906 -8.8594 3.875 -8.8594 Q3.4062 -8.8594 3.0859 -8.5781 Q2.7656 -8.2969 2.5703 -7.7734 Q2.375 -7.25 2.2969 -6.4922 Q2.2188 -5.7344 2.2188 -4.7812 Z" stroke="none"/></g><g text-rendering="optimizeLegibility" transform="translate(90.1719,23.2878)" color-rendering="optimizeQuality" color-interpolation="linearRGB" image-rendering="optimizeQuality"><path d="M4.7812 4.2031 L0.4219 4.2031 L0.4219 3.4062 L3.0625 3.4062 L3.0625 -13.1719 L0.4219 -13.1719 L0.4219 -13.9688 L4.7812 -13.9688 L4.7812 4.2031 Z" stroke="none"/></g><g text-rendering="optimizeLegibility" transform="translate(110.141,65.2644)" color-rendering="optimizeQuality" color-interpolation="linearRGB" image-rendering="optimizeQuality"><path d="M6.5781 4.2031 L2.2344 4.2031 L2.2344 -13.9688 L6.5781 -13.9688 L6.5781 -13.1719 L3.9531 -13.1719 L3.9531 3.4062 L6.5781 3.4062 L6.5781 4.2031 Z" stroke="none"/></g><g text-rendering="optimizeLegibility" transform="translate(119.6254,65.2644)" color-rendering="optimizeQuality" color-interpolation="linearRGB" image-rendering="optimizeQuality"><path d="M6.625 0 L6.7344 -0.4844 Q7.1719 -0.5156 7.4219 -0.7344 Q7.6719 -0.9531 7.7734 -1.3281 Q7.875 -1.7031 7.875 -2.3281 Q7.875 -2.7188 7.8438 -3.1719 L7.7812 -4.4219 L3.4844 -4.4219 L2.9375 -3.4688 Q2.5625 -2.7969 2.3828 -2.3125 Q2.2031 -1.8281 2.2031 -1.4531 Q2.2031 -0.6406 3.1875 -0.4844 L3.0938 0 L-0.9062 0 L-0.7969 -0.4844 Q-0.5 -0.5156 -0.2266 -0.7188 Q0.0469 -0.9219 0.3438 -1.3281 Q0.6406 -1.7344 1.1875 -2.6719 L7.4531 -13.4844 L8.9219 -13.4844 L9.625 -2.5938 Q9.6719 -1.8281 9.8047 -1.3906 Q9.9375 -0.9531 10.1562 -0.7422 Q10.375 -0.5312 10.7969 -0.4844 L10.6875 0 L6.625 0 ZM3.9219 -5.2812 L7.7344 -5.2812 L7.5625 -8.4219 Q7.5469 -9.0625 7.5234 -10.0312 Q7.5 -11 7.5 -11.4219 L7.3906 -11.4219 L3.9219 -5.2812 Z" stroke="none"/></g><g text-rendering="optimizeLegibility" transform="translate(119.4535,53.405)" color-rendering="optimizeQuality" color-interpolation="linearRGB" image-rendering="optimizeQuality"><path d="M9.5 -6.5312 L9.5 -5.0781 Q8.875 -4.5781 8.2812 -4.3516 Q7.6875 -4.125 7.0469 -4.125 Q6.2969 -4.125 5.3594 -4.5469 Q5.1719 -4.625 5.0781 -4.6719 Q4.4375 -4.9531 4.0156 -5.0469 Q3.5938 -5.1406 3.1562 -5.1406 Q2.5 -5.1406 1.9219 -4.8984 Q1.3438 -4.6562 0.7344 -4.125 L0.7344 -5.5625 Q1.375 -6.0625 1.9844 -6.2969 Q2.5938 -6.5312 3.2812 -6.5312 Q3.7188 -6.5312 4.1328 -6.4375 Q4.5469 -6.3438 5.1719 -6.0781 Q5.25 -6.0469 5.4375 -5.9531 Q6.4062 -5.5 7.1719 -5.5 Q7.75 -5.5 8.3203 -5.75 Q8.8906 -6 9.5 -6.5312 Z" stroke="none"/></g><g text-rendering="optimizeLegibility" transform="translate(130.4222,74.1316)" color-rendering="optimizeQuality" color-interpolation="linearRGB" image-rendering="optimizeQuality"><path d="M3.25 -5.1094 L3.4844 -5.1094 Q3.7656 -5.1094 4 -5.2109 Q4.2344 -5.3125 4.5547 -5.5625 Q4.875 -5.8125 5.5547 -6.4922 Q6.2344 -7.1719 6.5312 -7.5234 Q6.8281 -7.875 6.9609 -8.125 Q7.0938 -8.375 7.0938 -8.5938 Q7.0938 -8.7656 6.9531 -8.8672 Q6.8125 -8.9688 6.5625 -9 L6.6406 -9.3281 L9.5781 -9.3281 L9.5 -9 Q9.2188 -8.9531 8.875 -8.7109 Q8.5312 -8.4688 7.8281 -7.7656 L5.1719 -5.1875 L6.625 -1.6875 Q6.8125 -1.2344 6.9219 -1.0312 Q7.0312 -0.8281 7.1641 -0.6875 Q7.2969 -0.5469 7.4609 -0.4609 Q7.625 -0.375 7.8594 -0.3281 L7.7812 0 L5.1406 0 L5.2188 -0.3281 Q5.5781 -0.375 5.5781 -0.6562 Q5.5781 -0.75 5.5625 -0.8438 Q5.5469 -0.9375 5.4922 -1.125 Q5.4375 -1.3125 5.3281 -1.5781 L4.4375 -3.75 Q4.2812 -4.1406 4.1641 -4.2969 Q4.0469 -4.4531 3.9219 -4.5156 Q3.7969 -4.5781 3.5156 -4.5781 L3.1406 -4.5781 L2.5781 -1.9844 Q2.4844 -1.5781 2.4531 -1.3438 Q2.4219 -1.1094 2.4219 -0.9219 Q2.4219 -0.6094 2.5781 -0.4844 Q2.7344 -0.3594 3.0938 -0.3281 L3.0156 0 L0.2812 0 L0.3594 -0.3281 Q0.625 -0.375 0.75 -0.4688 Q0.875 -0.5625 0.9688 -0.7266 Q1.0625 -0.8906 1.1328 -1.125 Q1.2031 -1.3594 1.3594 -2.0312 L2.5156 -7.2969 Q2.5938 -7.6094 2.6328 -7.9062 Q2.6719 -8.2031 2.6719 -8.4062 Q2.6719 -8.7188 2.5078 -8.8438 Q2.3438 -8.9688 2 -9 L2.0781 -9.3281 L4.8125 -9.3281 L4.7344 -9 Q4.4844 -8.9375 4.3672 -8.875 Q4.25 -8.8125 4.1562 -8.6719 Q4.0625 -8.5312 3.9766 -8.2422 Q3.8906 -7.9531 3.7344 -7.2969 L3.25 -5.1094 Z" stroke="none"/></g><g text-rendering="optimizeLegibility" transform="translate(130.4222,51.5925)" color-rendering="optimizeQuality" color-interpolation="linearRGB" image-rendering="optimizeQuality"><path d="M4.75 -1.7812 Q4.75 -1.3906 4.7969 -1.1875 Q4.8438 -0.9844 4.9531 -0.8594 Q5.0625 -0.7344 5.2734 -0.6641 Q5.4844 -0.5938 5.8047 -0.5547 Q6.125 -0.5156 6.6562 -0.5 L6.6562 0 L1.6094 0 L1.6094 -0.5 Q2.3594 -0.5312 2.6875 -0.5938 Q3.0156 -0.6562 3.1875 -0.7656 Q3.3594 -0.875 3.4375 -1.0938 Q3.5156 -1.3125 3.5156 -1.7812 L3.5156 -7.3281 Q3.5156 -7.6094 3.4219 -7.7344 Q3.3281 -7.8594 3.1406 -7.8594 Q2.9219 -7.8594 2.5156 -7.6328 Q2.1094 -7.4062 1.5156 -7 L1.2188 -7.5312 L4.4219 -9.4375 L4.7969 -9.4375 Q4.75 -8.7812 4.75 -7.625 L4.75 -1.7812 Z" stroke="none"/></g><g text-rendering="optimizeLegibility" transform="translate(141.5785,65.2644)" color-rendering="optimizeQuality" color-interpolation="linearRGB" image-rendering="optimizeQuality"><path d="M4.7812 4.2031 L0.4219 4.2031 L0.4219 3.4062 L3.0625 3.4062 L3.0625 -13.1719 L0.4219 -13.1719 L0.4219 -13.9688 L4.7812 -13.9688 L4.7812 4.2031 Z" stroke="none"/></g><g text-rendering="optimizeLegibility" transform="translate(162.2195,95.6628)" color-rendering="optimizeQuality" color-interpolation="linearRGB" image-rendering="optimizeQuality"><path d="M2.75 -9.0156 Q2.25 -9.0156 1.9062 -9.375 Q1.5625 -9.7344 1.5625 -10.2812 Q1.5625 -10.8281 1.9062 -11.1797 Q2.25 -11.5312 2.75 -11.5312 Q3.2656 -11.5312 3.6094 -11.1797 Q3.9531 -10.8281 3.9531 -10.2812 Q3.9531 -9.7344 3.6094 -9.375 Q3.2656 -9.0156 2.75 -9.0156 ZM6.1406 -5.0469 Q5.625 -5.0469 5.2812 -5.3984 Q4.9375 -5.75 4.9375 -6.2969 Q4.9375 -6.8438 5.2812 -7.2031 Q5.625 -7.5625 6.1406 -7.5625 Q6.6406 -7.5625 6.9844 -7.2031 Q7.3281 -6.8438 7.3281 -6.2969 Q7.3281 -5.75 6.9844 -5.3984 Q6.6406 -5.0469 6.1406 -5.0469 ZM9.6094 -1.0625 Q9.1094 -1.0625 8.7656 -1.4219 Q8.4219 -1.7812 8.4219 -2.3281 Q8.4219 -2.875 8.7656 -3.2266 Q9.1094 -3.5781 9.6094 -3.5781 Q10.125 -3.5781 10.4609 -3.2266 Q10.7969 -2.875 10.7969 -2.3281 Q10.7969 -1.7812 10.4609 -1.4219 Q10.125 -1.0625 9.6094 -1.0625 Z" stroke="none"/></g><g text-rendering="optimizeLegibility" transform="translate(188.2042,128.7722)" color-rendering="optimizeQuality" color-interpolation="linearRGB" image-rendering="optimizeQuality"><path d="M6.5781 4.2031 L2.2344 4.2031 L2.2344 -13.9688 L6.5781 -13.9688 L6.5781 -13.1719 L3.9531 -13.1719 L3.9531 3.4062 L6.5781 3.4062 L6.5781 4.2031 Z" stroke="none"/></g><g text-rendering="optimizeLegibility" transform="translate(197.6886,128.7722)" color-rendering="optimizeQuality" color-interpolation="linearRGB" image-rendering="optimizeQuality"><path d="M6.625 0 L6.7344 -0.4844 Q7.1719 -0.5156 7.4219 -0.7344 Q7.6719 -0.9531 7.7734 -1.3281 Q7.875 -1.7031 7.875 -2.3281 Q7.875 -2.7188 7.8438 -3.1719 L7.7812 -4.4219 L3.4844 -4.4219 L2.9375 -3.4688 Q2.5625 -2.7969 2.3828 -2.3125 Q2.2031 -1.8281 2.2031 -1.4531 Q2.2031 -0.6406 3.1875 -0.4844 L3.0938 0 L-0.9062 0 L-0.7969 -0.4844 Q-0.5 -0.5156 -0.2266 -0.7188 Q0.0469 -0.9219 0.3438 -1.3281 Q0.6406 -1.7344 1.1875 -2.6719 L7.4531 -13.4844 L8.9219 -13.4844 L9.625 -2.5938 Q9.6719 -1.8281 9.8047 -1.3906 Q9.9375 -0.9531 10.1562 -0.7422 Q10.375 -0.5312 10.7969 -0.4844 L10.6875 0 L6.625 0 ZM3.9219 -5.2812 L7.7344 -5.2812 L7.5625 -8.4219 Q7.5469 -9.0625 7.5234 -10.0312 Q7.5 -11 7.5 -11.4219 L7.3906 -11.4219 L3.9219 -5.2812 Z" stroke="none"/></g><g text-rendering="optimizeLegibility" transform="translate(197.5167,116.9128)" color-rendering="optimizeQuality" color-interpolation="linearRGB" image-rendering="optimizeQuality"><path d="M9.5 -6.5312 L9.5 -5.0781 Q8.875 -4.5781 8.2812 -4.3516 Q7.6875 -4.125 7.0469 -4.125 Q6.2969 -4.125 5.3594 -4.5469 Q5.1719 -4.625 5.0781 -4.6719 Q4.4375 -4.9531 4.0156 -5.0469 Q3.5938 -5.1406 3.1562 -5.1406 Q2.5 -5.1406 1.9219 -4.8984 Q1.3438 -4.6562 0.7344 -4.125 L0.7344 -5.5625 Q1.375 -6.0625 1.9844 -6.2969 Q2.5938 -6.5312 3.2812 -6.5312 Q3.7188 -6.5312 4.1328 -6.4375 Q4.5469 -6.3438 5.1719 -6.0781 Q5.25 -6.0469 5.4375 -5.9531 Q6.4062 -5.5 7.1719 -5.5 Q7.75 -5.5 8.3203 -5.75 Q8.8906 -6 9.5 -6.5312 Z" stroke="none"/></g><g text-rendering="optimizeLegibility" transform="translate(208.4854,133.4362)" color-rendering="optimizeQuality" color-interpolation="linearRGB" image-rendering="optimizeQuality"><path d="M3.25 -5.1094 L3.4844 -5.1094 Q3.7656 -5.1094 4 -5.2109 Q4.2344 -5.3125 4.5547 -5.5625 Q4.875 -5.8125 5.5547 -6.4922 Q6.2344 -7.1719 6.5312 -7.5234 Q6.8281 -7.875 6.9609 -8.125 Q7.0938 -8.375 7.0938 -8.5938 Q7.0938 -8.7656 6.9531 -8.8672 Q6.8125 -8.9688 6.5625 -9 L6.6406 -9.3281 L9.5781 -9.3281 L9.5 -9 Q9.2188 -8.9531 8.875 -8.7109 Q8.5312 -8.4688 7.8281 -7.7656 L5.1719 -5.1875 L6.625 -1.6875 Q6.8125 -1.2344 6.9219 -1.0312 Q7.0312 -0.8281 7.1641 -0.6875 Q7.2969 -0.5469 7.4609 -0.4609 Q7.625 -0.375 7.8594 -0.3281 L7.7812 0 L5.1406 0 L5.2188 -0.3281 Q5.5781 -0.375 5.5781 -0.6562 Q5.5781 -0.75 5.5625 -0.8438 Q5.5469 -0.9375 5.4922 -1.125 Q5.4375 -1.3125 5.3281 -1.5781 L4.4375 -3.75 Q4.2812 -4.1406 4.1641 -4.2969 Q4.0469 -4.4531 3.9219 -4.5156 Q3.7969 -4.5781 3.5156 -4.5781 L3.1406 -4.5781 L2.5781 -1.9844 Q2.4844 -1.5781 2.4531 -1.3438 Q2.4219 -1.1094 2.4219 -0.9219 Q2.4219 -0.6094 2.5781 -0.4844 Q2.7344 -0.3594 3.0938 -0.3281 L3.0156 0 L0.2812 0 L0.3594 -0.3281 Q0.625 -0.375 0.75 -0.4688 Q0.875 -0.5625 0.9688 -0.7266 Q1.0625 -0.8906 1.1328 -1.125 Q1.2031 -1.3594 1.3594 -2.0312 L2.5156 -7.2969 Q2.5938 -7.6094 2.6328 -7.9062 Q2.6719 -8.2031 2.6719 -8.4062 Q2.6719 -8.7188 2.5078 -8.8438 Q2.3438 -8.9688 2 -9 L2.0781 -9.3281 L4.8125 -9.3281 L4.7344 -9 Q4.4844 -8.9375 4.3672 -8.875 Q4.25 -8.8125 4.1562 -8.6719 Q4.0625 -8.5312 3.9766 -8.2422 Q3.8906 -7.9531 3.7344 -7.2969 L3.25 -5.1094 Z" stroke="none"/></g><g text-rendering="optimizeLegibility" transform="translate(208.4854,115.1003)" color-rendering="optimizeQuality" color-interpolation="linearRGB" image-rendering="optimizeQuality"><path d="M9.7656 -9.3281 L9.6875 -9 Q9.4219 -8.9375 9.3125 -8.875 Q9.2031 -8.8125 9.1094 -8.6719 Q9.0156 -8.5312 8.9219 -8.2422 Q8.8281 -7.9531 8.6875 -7.2969 L7.0781 0 L6.1562 0 L4.1562 -5.8594 Q3.7969 -6.9219 3.5156 -7.9688 L3.4375 -7.9688 Q3.3906 -7.6094 3.2031 -6.6328 Q3.0156 -5.6562 2.8125 -4.7188 L2.2188 -1.9844 Q2.1562 -1.7031 2.1172 -1.4375 Q2.0781 -1.1719 2.0781 -0.9219 Q2.0781 -0.6094 2.2266 -0.4844 Q2.375 -0.3594 2.7344 -0.3281 L2.6719 0 L0.2812 0 L0.3438 -0.3281 Q0.6094 -0.375 0.7422 -0.4688 Q0.875 -0.5625 0.9609 -0.7266 Q1.0469 -0.8906 1.125 -1.125 Q1.2031 -1.3594 1.3438 -2.0312 L2.5156 -7.2969 Q2.5781 -7.5938 2.6172 -7.8594 Q2.6562 -8.125 2.6562 -8.4062 Q2.6562 -8.7188 2.4922 -8.8438 Q2.3281 -8.9688 1.9844 -9 L2.0625 -9.3281 L4.25 -9.3281 L6.0469 -4 Q6.4375 -2.8594 6.6562 -2.0625 L6.7344 -2.0625 Q6.7812 -2.4844 6.9766 -3.4531 Q7.1719 -4.4219 7.3281 -5.1406 L7.8125 -7.2969 Q7.8594 -7.5312 7.9141 -7.8359 Q7.9688 -8.1406 7.9688 -8.4062 Q7.9688 -8.7188 7.8047 -8.8438 Q7.6406 -8.9688 7.2969 -9 L7.375 -9.3281 L9.7656 -9.3281 Z" stroke="none"/></g><g text-rendering="optimizeLegibility" transform="translate(217.3761,115.1003)" color-rendering="optimizeQuality" color-interpolation="linearRGB" image-rendering="optimizeQuality"><path d="M0.875 -3.5312 L0.875 -4.4844 L6.8906 -4.4844 L6.8906 -3.5312 L0.875 -3.5312 Z" stroke="none"/></g><g text-rendering="optimizeLegibility" transform="translate(224.2667,115.1003)" color-rendering="optimizeQuality" color-interpolation="linearRGB" image-rendering="optimizeQuality"><path d="M4.75 -1.7812 Q4.75 -1.3906 4.7969 -1.1875 Q4.8438 -0.9844 4.9531 -0.8594 Q5.0625 -0.7344 5.2734 -0.6641 Q5.4844 -0.5938 5.8047 -0.5547 Q6.125 -0.5156 6.6562 -0.5 L6.6562 0 L1.6094 0 L1.6094 -0.5 Q2.3594 -0.5312 2.6875 -0.5938 Q3.0156 -0.6562 3.1875 -0.7656 Q3.3594 -0.875 3.4375 -1.0938 Q3.5156 -1.3125 3.5156 -1.7812 L3.5156 -7.3281 Q3.5156 -7.6094 3.4219 -7.7344 Q3.3281 -7.8594 3.1406 -7.8594 Q2.9219 -7.8594 2.5156 -7.6328 Q2.1094 -7.4062 1.5156 -7 L1.2188 -7.5312 L4.4219 -9.4375 L4.7969 -9.4375 Q4.75 -8.7812 4.75 -7.625 L4.75 -1.7812 Z" stroke="none"/></g><g text-rendering="optimizeLegibility" transform="translate(232.5011,128.7722)" color-rendering="optimizeQuality" color-interpolation="linearRGB" image-rendering="optimizeQuality"><path d="M4.7812 4.2031 L0.4219 4.2031 L0.4219 3.4062 L3.0625 3.4062 L3.0625 -13.1719 L0.4219 -13.1719 L0.4219 -13.9688 L4.7812 -13.9688 L4.7812 4.2031 Z" stroke="none"/></g><g text-rendering="optimizeLegibility" transform="translate(240.8604,102.6013) matrix(1,0,0,7.3362,0,0)" color-rendering="optimizeQuality" color-interpolation="linearRGB" image-rendering="optimizeQuality"><path d="M4.7812 4.2031 L0.4219 4.2031 L0.4219 3.4062 L3.0625 3.4062 L3.0625 -13.1719 L0.4219 -13.1719 L0.4219 -13.9688 L4.7812 -13.9688 L4.7812 4.2031 Z" stroke="none"/></g></g></svg>