<?xml version="1.0" encoding="UTF-8" standalone="no"?><svg xmlns="http://www.w3.org/2000/svg" xmlns:xlink="http://www.w3.org/1999/xlink" stroke-dasharray="none" shape-rendering="auto" font-family="'Dialog'" width="22.812600" text-rendering="auto" fill-opacity="1" contentScriptType="text/ecmascript" color-interpolation="auto" color-rendering="auto" preserveAspectRatio="xMidYMid meet" font-size="12" fill="black" stroke="black" image-rendering="auto" stroke-miterlimit="10" zoomAndPan="magnify" version="1.0" stroke-linecap="square" stroke-linejoin="miter" contentStyleType="text/css" font-style="normal" height="17" stroke-width="1" stroke-dashoffset="0" font-weight="normal" stroke-opacity="1" y="-7.000000"><!--Converted from MathML using JEuclid--><defs id="genericDefs"/><g><g text-rendering="optimizeLegibility" transform="translate(0,10)" color-rendering="optimizeQuality" color-interpolation="linearRGB" image-rendering="optimizeQuality"><path d="M9.375 -8.1094 L5.9219 -8.1094 L4.7031 -2.5156 Q4.5938 -1.9844 4.5938 -1.7344 Q4.5938 -0.875 5.4375 -0.875 Q6.1562 -0.875 6.9531 -1.4375 L7.2812 -0.875 Q6 0.1562 4.7031 0.1562 Q2.9531 0.1562 2.9531 -1.4375 Q2.9531 -1.9531 3.0781 -2.4062 L4.3438 -8.1094 L3.7188 -8.1094 Q2.375 -8.1094 1.1875 -6.9062 L0.6875 -7.4219 Q2.1562 -9.3438 4.1719 -9.3438 L9.625 -9.3438 L9.375 -8.1094 Z" stroke="none"/></g><g text-rendering="optimizeLegibility" transform="translate(11.4688,13.5312)" color-rendering="optimizeQuality" color-interpolation="linearRGB" image-rendering="optimizeQuality"><path d="M1.7344 0.1094 Q1.5 1.2031 1.0938 1.8516 Q0.6875 2.5 0.1094 2.7812 Q-0.4688 3.0625 -1.2969 3.0625 Q-1.5938 3.0625 -1.8438 2.9844 L-1.6875 2.3906 Q-1.5156 2.4375 -1.2031 2.4375 Q-0.8438 2.4375 -0.6172 2.3438 Q-0.3906 2.25 -0.1953 2.0312 Q0 1.8125 0.1797 1.3984 Q0.3594 0.9844 0.5156 0.3125 L1.9062 -5.8438 L1.0781 -5.8438 L1.1562 -6.1875 Q1.4844 -6.2344 1.625 -6.2891 Q1.7656 -6.3438 1.8516 -6.4453 Q1.9375 -6.5469 2.0078 -6.7266 Q2.0781 -6.9062 2.2031 -7.3438 Q2.5625 -8.5781 3.3203 -9.1953 Q4.0781 -9.8125 5.25 -9.8125 Q5.9062 -9.8125 6.4062 -9.7031 L6.125 -8.5469 L5.5312 -8.5469 Q5.4375 -8.9375 5.2812 -9.1094 Q5.125 -9.2812 4.8281 -9.2812 Q4.4375 -9.2812 4.1641 -9.0703 Q3.8906 -8.8594 3.6953 -8.4297 Q3.5 -8 3.3438 -7.2812 L3.1719 -6.5312 L4.7344 -6.5312 L4.5781 -5.8438 L3.0156 -5.8438 L1.7344 0.1094 Z" stroke="none"/></g><g text-rendering="optimizeLegibility" transform="translate(17.875,13.5312)" color-rendering="optimizeQuality" color-interpolation="linearRGB" image-rendering="optimizeQuality"><path d="M3.8281 -9.2188 L3.5156 -7.8906 L2.2969 -7.8906 L2.625 -9.2188 L3.8281 -9.2188 ZM2.1406 -1.7031 Q2.0625 -1.3594 2.0469 -1.2031 Q2.0312 -1.0469 2.0312 -0.9375 Q2.0312 -0.7188 2.0938 -0.6094 Q2.1562 -0.5 2.3047 -0.4375 Q2.4531 -0.375 2.7812 -0.3281 L2.7188 0 L0.5938 0 L1.625 -4.6094 Q1.7188 -5 1.75 -5.2344 Q1.7812 -5.4688 1.7812 -5.6406 Q1.7812 -5.8281 1.7266 -5.9375 Q1.6719 -6.0469 1.5312 -6.1016 Q1.3906 -6.1562 1.0625 -6.1719 L1.1406 -6.5312 L2.7969 -6.5938 L3.2031 -6.5938 L2.1406 -1.7031 Z" stroke="none"/></g></g></svg>