<?xml version="1.0" encoding="UTF-8" standalone="no"?><svg xmlns="http://www.w3.org/2000/svg" xmlns:xlink="http://www.w3.org/1999/xlink" stroke-dasharray="none" shape-rendering="auto" font-family="'Dialog'" width="162.812600" text-rendering="auto" fill-opacity="1" contentScriptType="text/ecmascript" color-interpolation="auto" color-rendering="auto" preserveAspectRatio="xMidYMid meet" font-size="12" fill="black" stroke="black" image-rendering="auto" stroke-miterlimit="10" zoomAndPan="magnify" version="1.0" stroke-linecap="square" stroke-linejoin="miter" contentStyleType="text/css" font-style="normal" height="26" stroke-width="1" stroke-dashoffset="0" font-weight="normal" stroke-opacity="1" y="-6.000000"><!--Converted from MathML using JEuclid--><defs id="genericDefs"/><g><g text-rendering="optimizeLegibility" transform="translate(0,20)" color-rendering="optimizeQuality" color-interpolation="linearRGB" image-rendering="optimizeQuality"><path d="M3.6719 -2.8438 Q3.6094 -2.5469 3.5703 -2.3438 Q3.5312 -2.1406 3.5 -1.8438 Q3.4688 -1.5469 3.4688 -1.3125 Q3.4688 -1.0156 3.5625 -0.8438 Q3.6562 -0.6719 3.8516 -0.5938 Q4.0469 -0.5156 4.5312 -0.4844 L4.4219 0 L0.4062 0 L0.5156 -0.4844 Q0.8906 -0.5312 1.0781 -0.6641 Q1.2656 -0.7969 1.3906 -1.0312 Q1.5156 -1.2656 1.625 -1.6016 Q1.7344 -1.9375 1.9375 -2.9062 L3.6094 -10.4375 Q3.8125 -11.4062 3.8125 -11.9688 Q3.8125 -12.4531 3.5938 -12.6406 Q3.375 -12.8281 2.8594 -12.8594 L2.9688 -13.3281 L11.7812 -13.3281 L11.1094 -10.3281 L10.1719 -10.3281 Q10.125 -11.0312 10.0547 -11.4219 Q9.9844 -11.8125 9.8828 -12.0078 Q9.7812 -12.2031 9.6562 -12.2969 Q9.5312 -12.3906 9.3438 -12.4297 Q9.1562 -12.4688 8.7969 -12.4688 L5.7969 -12.4688 L4.625 -7.1562 L6.4531 -7.1562 Q6.8906 -7.1562 7.1719 -7.2734 Q7.4531 -7.3906 7.6953 -7.7031 Q7.9375 -8.0156 8.2969 -8.75 L9.1875 -8.75 L8.25 -4.625 L7.3906 -4.625 Q7.3906 -5.2344 7.3594 -5.5781 Q7.3281 -5.9219 7.2422 -6.0547 Q7.1562 -6.1875 6.9844 -6.2422 Q6.8125 -6.2969 6.3594 -6.2969 L4.4375 -6.2969 L3.6719 -2.8438 Z" stroke="none"/></g><g text-rendering="optimizeLegibility" transform="translate(12.0156,20)" color-rendering="optimizeQuality" color-interpolation="linearRGB" image-rendering="optimizeQuality"><path d="M7.2188 4.25 Q5.5625 4.25 4.5078 3.75 Q3.4531 3.25 2.8672 2.2344 Q2.2812 1.2188 2.0234 -0.4141 Q1.7656 -2.0469 1.7656 -4.8438 Q1.7656 -7.625 2.0234 -9.2656 Q2.2812 -10.9062 2.8672 -11.9453 Q3.4531 -12.9844 4.5078 -13.5 Q5.5625 -14.0156 7.2188 -14.0156 L7.2188 -13.2188 Q6.5312 -13.2188 6 -13.0938 Q5.4062 -12.9531 4.9844 -12.5625 Q4.5156 -12.1406 4.2344 -11.375 Q3.8906 -10.4688 3.7188 -8.9844 Q3.5469 -7.4062 3.5469 -4.9219 Q3.5469 -2.7188 3.6953 -1.1797 Q3.8438 0.3594 4.1875 1.3281 Q4.4531 2.1562 4.8594 2.6094 Q5.2188 3.0156 5.7188 3.2188 Q6.2969 3.4531 7.2188 3.4531 L7.2188 4.25 Z" stroke="none"/></g><g text-rendering="optimizeLegibility" transform="translate(21.6406,20)" color-rendering="optimizeQuality" color-interpolation="linearRGB" image-rendering="optimizeQuality"><path d="M9.2344 -8.8594 Q7.3438 -6.8438 5.2812 -4.8594 L6.1875 -2.7188 Q6.5469 -1.8594 6.7578 -1.4609 Q6.9688 -1.0625 7.1484 -0.875 Q7.3281 -0.6875 7.5 -0.6094 Q7.6719 -0.5312 8.0625 -0.4844 L7.9531 0 L5.5156 0 L4.1562 -3.9219 Q3.9219 -3.7188 3.5391 -3.3516 Q3.1562 -2.9844 2.7969 -2.5703 Q2.4375 -2.1562 2.2891 -1.9062 Q2.1406 -1.6562 2.0938 -1.4688 Q2.0469 -1.2812 2.0469 -1.0781 Q2.0469 -0.8281 2.1875 -0.6797 Q2.3281 -0.5312 2.6719 -0.4844 L2.5625 0 L-0.2188 0 L-0.4062 -0.4844 Q1.7344 -2.7812 3.8125 -4.7031 L2.875 -6.8906 Q2.5938 -7.5469 2.4219 -7.8984 Q2.25 -8.25 2.0859 -8.4375 Q1.9219 -8.625 1.7109 -8.7266 Q1.5 -8.8281 1.1094 -8.8594 L1.2188 -9.3438 L3.6562 -9.3438 L4.9531 -5.6562 Q5.4375 -6.0938 5.8672 -6.5625 Q6.2969 -7.0312 6.4688 -7.3047 Q6.6406 -7.5781 6.7109 -7.7969 Q6.7812 -8.0156 6.7812 -8.25 Q6.7812 -8.7812 6.1562 -8.8594 L6.2656 -9.3438 L9.0469 -9.3438 L9.2344 -8.8594 Z" stroke="none"/></g><g text-rendering="optimizeLegibility" transform="translate(32.6406,20)" color-rendering="optimizeQuality" color-interpolation="linearRGB" image-rendering="optimizeQuality"><path d="M3.0156 -2.2656 Q3.1562 -1.5781 3.1562 -0.9219 Q3.1562 -0.2344 2.9219 0.3359 Q2.6875 0.9062 2.1719 1.4609 Q1.6562 2.0156 0.7656 2.7031 L0.2344 2.0938 Q0.7344 1.625 0.9609 1.25 Q1.1875 0.875 1.2812 0.3984 Q1.375 -0.0781 1.375 -0.7969 Q1.375 -1.5469 1.3125 -2.2656 L3.0156 -2.2656 Z" stroke="none"/></g><g text-rendering="optimizeLegibility" transform="translate(37.7969,20)" color-rendering="optimizeQuality" color-interpolation="linearRGB" image-rendering="optimizeQuality"><path d="M9.625 -12.5469 L9.1875 -12.5 Q7.5156 -12.3594 6.0547 -11.4609 Q4.5938 -10.5625 4.5938 -9.3125 Q4.5938 -8.6562 5.1562 -8.2969 Q5.7188 -7.9375 6.5312 -7.9375 Q6.8594 -7.9375 7.1719 -8 L7.9375 -8.1406 L7.7656 -7.2031 L7.1562 -7.0781 Q5.2656 -6.7188 3.9453 -5.8516 Q2.625 -4.9844 2.625 -3.7812 Q2.625 -3.0938 3.0312 -2.6172 Q3.4375 -2.1406 4.5938 -1.625 Q5.7812 -1.1094 6.25 -0.5703 Q6.7188 -0.0312 6.7188 0.7812 Q6.7188 1.7656 5.8828 2.6562 Q5.0469 3.5469 3.6094 4 L3.25 3.4219 Q4.2969 3.0625 4.9453 2.4766 Q5.5938 1.8906 5.5938 1.2812 Q5.5938 0.7344 5.2031 0.4219 Q4.8125 0.1094 3.4062 -0.4375 Q0.8281 -1.4531 0.8281 -3.4375 Q0.8281 -4.8281 2.0234 -5.875 Q3.2188 -6.9219 5.0938 -7.3438 L5.0938 -7.4219 Q4.0625 -7.5156 3.4453 -8.0312 Q2.8281 -8.5469 2.8281 -9.3594 Q2.8281 -11.4062 6.6875 -12.4688 L6.6875 -12.5 L6.2656 -12.5 Q4.0469 -12.5 3.5312 -13.7812 L5.0156 -14.0312 Q5.3594 -13.2188 7.2344 -13.2188 Q7.9375 -13.2188 8.5312 -13.3281 Q9.125 -13.4219 9.8281 -13.5156 L9.625 -12.5469 Z" stroke="none"/></g><g text-rendering="optimizeLegibility" transform="translate(49.2031,20)" color-rendering="optimizeQuality" color-interpolation="linearRGB" image-rendering="optimizeQuality"><path d="M0.4219 -14.0156 Q2.0781 -14.0156 3.1328 -13.5156 Q4.1875 -13.0156 4.7734 -12 Q5.3594 -10.9844 5.6172 -9.3516 Q5.875 -7.7188 5.875 -4.9219 Q5.875 -2.1562 5.6172 -0.5078 Q5.3594 1.1406 4.7734 2.1797 Q4.1875 3.2188 3.1328 3.7344 Q2.0781 4.25 0.4219 4.25 L0.4219 3.4531 Q1.1094 3.4531 1.625 3.3281 Q2.2344 3.1875 2.6406 2.7969 Q3.1094 2.375 3.4062 1.6094 Q3.75 0.7031 3.9219 -0.7812 Q4.0938 -2.3594 4.0938 -4.8438 Q4.0938 -7.0469 3.9453 -8.5859 Q3.7969 -10.125 3.4531 -11.0938 Q3.1875 -11.9219 2.7812 -12.375 Q2.4062 -12.7812 1.9219 -12.9844 Q1.3438 -13.2188 0.4219 -13.2188 L0.4219 -14.0156 Z" stroke="none"/></g><g text-rendering="optimizeLegibility" transform="translate(57.8594,20)" color-rendering="optimizeQuality" color-interpolation="linearRGB" image-rendering="optimizeQuality"><path d="M1.2188 -7.0625 L1.2188 -8.4219 L9.8594 -8.4219 L9.8594 -7.0625 L1.2188 -7.0625 ZM1.2188 -3.0156 L1.2188 -4.3594 L9.8594 -4.3594 L9.8594 -3.0156 L1.2188 -3.0156 Z" stroke="none"/></g><g text-rendering="optimizeLegibility" stroke-width="1.6667" color-interpolation="linearRGB" color-rendering="optimizeQuality" image-rendering="optimizeQuality"><line y2="12.78" fill="none" x1="71.3965" x2="84.2247" y1="12.78"/><path d="M5.6719 -5.9844 L5.6875 -6.1562 Q5.7031 -6.4844 5.7031 -6.7188 Q5.7031 -7.2812 5.6328 -7.7344 Q5.5625 -8.1875 5.4062 -8.5078 Q5.25 -8.8281 4.9766 -9.0078 Q4.7031 -9.1875 4.2969 -9.1875 Q3.7969 -9.1875 3.3672 -8.9453 Q2.9375 -8.7031 2.5312 -8.2188 L2.0312 -8.2188 L2.0312 -8.7812 Q2.6875 -9.25 3.0469 -9.4375 Q3.4062 -9.625 3.7656 -9.7266 Q4.125 -9.8281 4.5469 -9.8281 Q5.6875 -9.8281 6.2578 -9.0469 Q6.8281 -8.2656 6.8281 -6.7031 Q6.8281 -6.0781 6.7188 -5.2188 Q6.6094 -4.3594 6.3438 -3.4297 Q6.0781 -2.5 5.7422 -1.8516 Q5.4062 -1.2031 4.9844 -0.7812 Q4.5625 -0.3594 4.0234 -0.125 Q3.4844 0.1094 2.7969 0.1094 Q2.1094 0.1094 1.6016 -0.1719 Q1.0938 -0.4531 0.8359 -0.9922 Q0.5781 -1.5312 0.5781 -2.3125 Q0.5781 -3.0781 0.8125 -3.8359 Q1.0469 -4.5938 1.5078 -5.2109 Q1.9688 -5.8281 2.6094 -6.1797 Q3.25 -6.5312 3.9844 -6.5312 Q4.4844 -6.5312 4.8516 -6.4219 Q5.2188 -6.3125 5.6719 -5.9844 ZM5.3438 -4.6719 Q5.3438 -5.3594 5.0547 -5.6797 Q4.7656 -6 4.1875 -6 Q3.7812 -6 3.3984 -5.7812 Q3.0156 -5.5625 2.7109 -5.1641 Q2.4062 -4.7656 2.2109 -4.2266 Q2.0156 -3.6875 1.8984 -3.1406 Q1.7812 -2.5938 1.7812 -2 Q1.7812 -1.375 1.9141 -1.0312 Q2.0469 -0.6875 2.2656 -0.5625 Q2.4844 -0.4375 2.8125 -0.4375 Q3.5625 -0.4375 4.0781 -1.0234 Q4.5938 -1.6094 4.9688 -2.7969 Q5.3438 -3.9844 5.3438 -4.6719 Z" stroke-width="1" transform="translate(74.1075,10.1595)" stroke="none"/></g><g text-rendering="optimizeLegibility" transform="translate(70.8184,25.1192)" color-rendering="optimizeQuality" color-interpolation="linearRGB" image-rendering="optimizeQuality"><path d="M5.6719 -5.9844 L5.6875 -6.1562 Q5.7031 -6.4844 5.7031 -6.7188 Q5.7031 -7.2812 5.6328 -7.7344 Q5.5625 -8.1875 5.4062 -8.5078 Q5.25 -8.8281 4.9766 -9.0078 Q4.7031 -9.1875 4.2969 -9.1875 Q3.7969 -9.1875 3.3672 -8.9453 Q2.9375 -8.7031 2.5312 -8.2188 L2.0312 -8.2188 L2.0312 -8.7812 Q2.6875 -9.25 3.0469 -9.4375 Q3.4062 -9.625 3.7656 -9.7266 Q4.125 -9.8281 4.5469 -9.8281 Q5.6875 -9.8281 6.2578 -9.0469 Q6.8281 -8.2656 6.8281 -6.7031 Q6.8281 -6.0781 6.7188 -5.2188 Q6.6094 -4.3594 6.3438 -3.4297 Q6.0781 -2.5 5.7422 -1.8516 Q5.4062 -1.2031 4.9844 -0.7812 Q4.5625 -0.3594 4.0234 -0.125 Q3.4844 0.1094 2.7969 0.1094 Q2.1094 0.1094 1.6016 -0.1719 Q1.0938 -0.4531 0.8359 -0.9922 Q0.5781 -1.5312 0.5781 -2.3125 Q0.5781 -3.0781 0.8125 -3.8359 Q1.0469 -4.5938 1.5078 -5.2109 Q1.9688 -5.8281 2.6094 -6.1797 Q3.25 -6.5312 3.9844 -6.5312 Q4.4844 -6.5312 4.8516 -6.4219 Q5.2188 -6.3125 5.6719 -5.9844 ZM5.3438 -4.6719 Q5.3438 -5.3594 5.0547 -5.6797 Q4.7656 -6 4.1875 -6 Q3.7812 -6 3.3984 -5.7812 Q3.0156 -5.5625 2.7109 -5.1641 Q2.4062 -4.7656 2.2109 -4.2266 Q2.0156 -3.6875 1.8984 -3.1406 Q1.7812 -2.5938 1.7812 -2 Q1.7812 -1.375 1.9141 -1.0312 Q2.0469 -0.6875 2.2656 -0.5625 Q2.4844 -0.4375 2.8125 -0.4375 Q3.5625 -0.4375 4.0781 -1.0234 Q4.5938 -1.6094 4.9688 -2.7969 Q5.3438 -3.9844 5.3438 -4.6719 Z" stroke="none"/></g><g text-rendering="optimizeLegibility" transform="translate(77.6465,25.1192)" color-rendering="optimizeQuality" color-interpolation="linearRGB" image-rendering="optimizeQuality"><path d="M6.4531 0 L4.2969 0 L5.1562 -3.4688 Q5.25 -3.8125 5.3281 -4.2109 Q5.4062 -4.6094 5.4062 -4.9375 Q5.4062 -5.4219 5.2344 -5.6328 Q5.0625 -5.8438 4.7031 -5.8438 Q4.4219 -5.8438 4.0938 -5.625 Q3.7656 -5.4062 3.3984 -4.9609 Q3.0312 -4.5156 2.7812 -4.0625 Q2.5312 -3.6094 2.4062 -2.9531 L1.7812 0 L0.5938 0 L1.6406 -4.6719 Q1.6719 -4.8281 1.7266 -5.1328 Q1.7812 -5.4375 1.7812 -5.6406 Q1.7812 -5.8438 1.7266 -5.9453 Q1.6719 -6.0469 1.5312 -6.1016 Q1.3906 -6.1562 1.0469 -6.1719 L1.1406 -6.5312 L2.6875 -6.5938 L3.0781 -6.5938 L2.625 -4.8125 L2.7031 -4.7969 Q3.375 -5.7344 3.9922 -6.1875 Q4.6094 -6.6406 5.2344 -6.6406 Q5.9062 -6.6406 6.2422 -6.2734 Q6.5781 -5.9062 6.5781 -5.2031 Q6.5781 -4.9531 6.5391 -4.6641 Q6.5 -4.375 6.4375 -4.1406 L5.8594 -1.7031 Q5.75 -1.2188 5.75 -0.9375 Q5.75 -0.7188 5.8203 -0.6094 Q5.8906 -0.5 6.0312 -0.4375 Q6.1719 -0.375 6.5 -0.3281 L6.4531 0 Z" stroke="none"/></g><g text-rendering="optimizeLegibility" transform="translate(87.3347,20)" color-rendering="optimizeQuality" color-interpolation="linearRGB" image-rendering="optimizeQuality"><path d="M6.5781 4.2031 L2.2344 4.2031 L2.2344 -13.9688 L6.5781 -13.9688 L6.5781 -13.1719 L3.9531 -13.1719 L3.9531 3.4062 L6.5781 3.4062 L6.5781 4.2031 Z" stroke="none"/></g><g text-rendering="optimizeLegibility" transform="translate(95.9128,20)" color-rendering="optimizeQuality" color-interpolation="linearRGB" image-rendering="optimizeQuality"><path d="M7.9688 -3.125 Q8.1875 -4.0469 8.1875 -4.7031 Q8.1875 -5.1562 7.9531 -5.3359 Q7.7188 -5.5156 7.2344 -5.5469 L7.3281 -6.0312 L11.2344 -6.0312 L11.1406 -5.5469 Q10.7969 -5.4688 10.6562 -5.3984 Q10.5156 -5.3281 10.4062 -5.2109 Q10.2969 -5.0938 10.1953 -4.875 Q10.0938 -4.6562 9.9766 -4.25 Q9.8594 -3.8438 9.7031 -3.1094 L9.0312 -0.0469 L8.2656 0.1719 L7.75 -0.6094 Q7.0469 -0.2812 6.6562 -0.1406 Q6.2656 0 5.8516 0.0781 Q5.4375 0.1562 4.9688 0.1562 Q3.7656 0.1562 2.9219 -0.3516 Q2.0781 -0.8594 1.6484 -1.8047 Q1.2188 -2.75 1.2188 -4.0312 Q1.2188 -5.0781 1.4375 -6.1719 Q1.6875 -7.4062 2.0938 -8.4844 Q2.4844 -9.5156 2.9922 -10.3359 Q3.5 -11.1562 4.1406 -11.7812 Q4.7031 -12.3281 5.3672 -12.7109 Q6.0312 -13.0938 6.7578 -13.2891 Q7.4844 -13.4844 8.2969 -13.4844 Q9.2344 -13.4844 10 -13.375 Q10.7656 -13.2656 11.6875 -12.9688 L11.0938 -10.3438 L10.1562 -10.3438 Q10.0938 -11.1875 9.875 -11.6797 Q9.6562 -12.1719 9.2344 -12.3984 Q8.8125 -12.625 8.1562 -12.625 Q7.3281 -12.625 6.6406 -12.1953 Q5.9531 -11.7656 5.3125 -10.9219 Q4.6719 -10.0781 4.1484 -8.7969 Q3.625 -7.5156 3.3438 -6.1875 Q3.0625 -4.8594 3.0625 -3.7969 Q3.0625 -2.2031 3.5859 -1.4453 Q4.1094 -0.6875 5.2031 -0.6875 Q5.5938 -0.6875 6.0156 -0.7812 Q6.4375 -0.875 6.8047 -1.1016 Q7.1719 -1.3281 7.4531 -1.7109 Q7.7344 -2.0938 7.8594 -2.6719 L7.9688 -3.125 Z" stroke="none"/></g><g text-rendering="optimizeLegibility" transform="translate(107.8347,20)" color-rendering="optimizeQuality" color-interpolation="linearRGB" image-rendering="optimizeQuality"><path d="M7.2188 4.25 Q5.5625 4.25 4.5078 3.75 Q3.4531 3.25 2.8672 2.2344 Q2.2812 1.2188 2.0234 -0.4141 Q1.7656 -2.0469 1.7656 -4.8438 Q1.7656 -7.625 2.0234 -9.2656 Q2.2812 -10.9062 2.8672 -11.9453 Q3.4531 -12.9844 4.5078 -13.5 Q5.5625 -14.0156 7.2188 -14.0156 L7.2188 -13.2188 Q6.5312 -13.2188 6 -13.0938 Q5.4062 -12.9531 4.9844 -12.5625 Q4.5156 -12.1406 4.2344 -11.375 Q3.8906 -10.4688 3.7188 -8.9844 Q3.5469 -7.4062 3.5469 -4.9219 Q3.5469 -2.7188 3.6953 -1.1797 Q3.8438 0.3594 4.1875 1.3281 Q4.4531 2.1562 4.8594 2.6094 Q5.2188 3.0156 5.7188 3.2188 Q6.2969 3.4531 7.2188 3.4531 L7.2188 4.25 Z" stroke="none"/></g><g text-rendering="optimizeLegibility" transform="translate(117.4597,20)" color-rendering="optimizeQuality" color-interpolation="linearRGB" image-rendering="optimizeQuality"><path d="M9.2344 -8.8594 Q7.3438 -6.8438 5.2812 -4.8594 L6.1875 -2.7188 Q6.5469 -1.8594 6.7578 -1.4609 Q6.9688 -1.0625 7.1484 -0.875 Q7.3281 -0.6875 7.5 -0.6094 Q7.6719 -0.5312 8.0625 -0.4844 L7.9531 0 L5.5156 0 L4.1562 -3.9219 Q3.9219 -3.7188 3.5391 -3.3516 Q3.1562 -2.9844 2.7969 -2.5703 Q2.4375 -2.1562 2.2891 -1.9062 Q2.1406 -1.6562 2.0938 -1.4688 Q2.0469 -1.2812 2.0469 -1.0781 Q2.0469 -0.8281 2.1875 -0.6797 Q2.3281 -0.5312 2.6719 -0.4844 L2.5625 0 L-0.2188 0 L-0.4062 -0.4844 Q1.7344 -2.7812 3.8125 -4.7031 L2.875 -6.8906 Q2.5938 -7.5469 2.4219 -7.8984 Q2.25 -8.25 2.0859 -8.4375 Q1.9219 -8.625 1.7109 -8.7266 Q1.5 -8.8281 1.1094 -8.8594 L1.2188 -9.3438 L3.6562 -9.3438 L4.9531 -5.6562 Q5.4375 -6.0938 5.8672 -6.5625 Q6.2969 -7.0312 6.4688 -7.3047 Q6.6406 -7.5781 6.7109 -7.7969 Q6.7812 -8.0156 6.7812 -8.25 Q6.7812 -8.7812 6.1562 -8.8594 L6.2656 -9.3438 L9.0469 -9.3438 L9.2344 -8.8594 Z" stroke="none"/></g><g text-rendering="optimizeLegibility" transform="translate(128.4597,20)" color-rendering="optimizeQuality" color-interpolation="linearRGB" image-rendering="optimizeQuality"><path d="M3.0156 -2.2656 Q3.1562 -1.5781 3.1562 -0.9219 Q3.1562 -0.2344 2.9219 0.3359 Q2.6875 0.9062 2.1719 1.4609 Q1.6562 2.0156 0.7656 2.7031 L0.2344 2.0938 Q0.7344 1.625 0.9609 1.25 Q1.1875 0.875 1.2812 0.3984 Q1.375 -0.0781 1.375 -0.7969 Q1.375 -1.5469 1.3125 -2.2656 L3.0156 -2.2656 Z" stroke="none"/></g><g text-rendering="optimizeLegibility" transform="translate(133.616,20)" color-rendering="optimizeQuality" color-interpolation="linearRGB" image-rendering="optimizeQuality"><path d="M9.625 -12.5469 L9.1875 -12.5 Q7.5156 -12.3594 6.0547 -11.4609 Q4.5938 -10.5625 4.5938 -9.3125 Q4.5938 -8.6562 5.1562 -8.2969 Q5.7188 -7.9375 6.5312 -7.9375 Q6.8594 -7.9375 7.1719 -8 L7.9375 -8.1406 L7.7656 -7.2031 L7.1562 -7.0781 Q5.2656 -6.7188 3.9453 -5.8516 Q2.625 -4.9844 2.625 -3.7812 Q2.625 -3.0938 3.0312 -2.6172 Q3.4375 -2.1406 4.5938 -1.625 Q5.7812 -1.1094 6.25 -0.5703 Q6.7188 -0.0312 6.7188 0.7812 Q6.7188 1.7656 5.8828 2.6562 Q5.0469 3.5469 3.6094 4 L3.25 3.4219 Q4.2969 3.0625 4.9453 2.4766 Q5.5938 1.8906 5.5938 1.2812 Q5.5938 0.7344 5.2031 0.4219 Q4.8125 0.1094 3.4062 -0.4375 Q0.8281 -1.4531 0.8281 -3.4375 Q0.8281 -4.8281 2.0234 -5.875 Q3.2188 -6.9219 5.0938 -7.3438 L5.0938 -7.4219 Q4.0625 -7.5156 3.4453 -8.0312 Q2.8281 -8.5469 2.8281 -9.3594 Q2.8281 -11.4062 6.6875 -12.4688 L6.6875 -12.5 L6.2656 -12.5 Q4.0469 -12.5 3.5312 -13.7812 L5.0156 -14.0312 Q5.3594 -13.2188 7.2344 -13.2188 Q7.9375 -13.2188 8.5312 -13.3281 Q9.125 -13.4219 9.8281 -13.5156 L9.625 -12.5469 Z" stroke="none"/></g><g text-rendering="optimizeLegibility" transform="translate(145.0222,20)" color-rendering="optimizeQuality" color-interpolation="linearRGB" image-rendering="optimizeQuality"><path d="M0.4219 -14.0156 Q2.0781 -14.0156 3.1328 -13.5156 Q4.1875 -13.0156 4.7734 -12 Q5.3594 -10.9844 5.6172 -9.3516 Q5.875 -7.7188 5.875 -4.9219 Q5.875 -2.1562 5.6172 -0.5078 Q5.3594 1.1406 4.7734 2.1797 Q4.1875 3.2188 3.1328 3.7344 Q2.0781 4.25 0.4219 4.25 L0.4219 3.4531 Q1.1094 3.4531 1.625 3.3281 Q2.2344 3.1875 2.6406 2.7969 Q3.1094 2.375 3.4062 1.6094 Q3.75 0.7031 3.9219 -0.7812 Q4.0938 -2.3594 4.0938 -4.8438 Q4.0938 -7.0469 3.9453 -8.5859 Q3.7969 -10.125 3.4531 -11.0938 Q3.1875 -11.9219 2.7812 -12.375 Q2.4062 -12.7812 1.9219 -12.9844 Q1.3438 -13.2188 0.4219 -13.2188 L0.4219 -14.0156 Z" stroke="none"/></g><g text-rendering="optimizeLegibility" transform="translate(154.4753,20)" color-rendering="optimizeQuality" color-interpolation="linearRGB" image-rendering="optimizeQuality"><path d="M4.7812 4.2031 L0.4219 4.2031 L0.4219 3.4062 L3.0625 3.4062 L3.0625 -13.1719 L0.4219 -13.1719 L0.4219 -13.9688 L4.7812 -13.9688 L4.7812 4.2031 Z" stroke="none"/></g></g></svg>