<?xml version="1.0" encoding="UTF-8" standalone="no"?><svg xmlns="http://www.w3.org/2000/svg" xmlns:xlink="http://www.w3.org/1999/xlink" stroke-dasharray="none" shape-rendering="auto" font-family="'Dialog'" width="40.812600" text-rendering="auto" fill-opacity="1" contentScriptType="text/ecmascript" color-interpolation="auto" color-rendering="auto" preserveAspectRatio="xMidYMid meet" font-size="12" fill="black" stroke="black" image-rendering="auto" stroke-miterlimit="10" zoomAndPan="magnify" version="1.0" stroke-linecap="square" stroke-linejoin="miter" contentStyleType="text/css" font-style="normal" height="25" stroke-width="1" stroke-dashoffset="0" font-weight="normal" stroke-opacity="1" y="-5.000000"><!--Converted from MathML using JEuclid--><defs id="genericDefs"/><g><g text-rendering="optimizeLegibility" stroke-width="1.6667" color-interpolation="linearRGB" color-rendering="optimizeQuality" image-rendering="optimizeQuality"><line y2="12.78" fill="none" x1="1.6778" x2="35.959" y1="12.78"/><path d="M5.4375 0 L5.4375 -0.3281 Q5.7812 -0.4062 5.9531 -0.4844 Q6.125 -0.5625 6.2031 -0.7109 Q6.2812 -0.8594 6.2812 -1.1094 Q6.2812 -1.3438 6.2266 -1.6094 Q6.1719 -1.875 6.0781 -2.2188 L5.8125 -3.0938 L2.625 -3.0938 L2.4062 -2.4219 Q2.2188 -1.9219 2.1641 -1.6641 Q2.1094 -1.4062 2.1094 -1.1875 Q2.1094 -0.7812 2.3203 -0.5859 Q2.5312 -0.3906 2.9531 -0.3281 L2.9531 0 L0.0469 0 L0.0469 -0.3281 Q0.4219 -0.3906 0.7031 -0.7734 Q0.9844 -1.1562 1.2656 -1.875 L4.1094 -9.4375 L5.1875 -9.4375 L7.5156 -1.8125 Q7.6719 -1.2812 7.8047 -1 Q7.9375 -0.7188 8.1094 -0.5625 Q8.2812 -0.4062 8.5938 -0.3281 L8.5938 0 L5.4375 0 ZM2.8125 -3.6875 L5.6719 -3.6875 L4.375 -8.0938 L2.8125 -3.6875 ZM16.2188 -9.3281 L16.2188 -7.2656 L15.5469 -7.2656 Q15.4531 -7.6094 15.3438 -7.8594 Q15.2344 -8.1094 15.1172 -8.2812 Q15 -8.4531 14.8594 -8.5547 Q14.7188 -8.6562 14.5234 -8.6953 Q14.3281 -8.7344 14.0625 -8.7344 L11.9062 -8.7344 L11.9062 -5.1406 L13.375 -5.1406 Q13.6719 -5.1406 13.8438 -5.2266 Q14.0156 -5.3125 14.125 -5.5234 Q14.2344 -5.7344 14.3438 -6.1719 L14.9844 -6.1719 L14.9844 -3.5469 L14.3438 -3.5469 Q14.25 -3.9531 14.1328 -4.1641 Q14.0156 -4.375 13.8516 -4.4609 Q13.6875 -4.5469 13.375 -4.5469 L11.9062 -4.5469 L11.9062 -0.6094 L14.0312 -0.6094 Q14.3594 -0.6094 14.5703 -0.6641 Q14.7812 -0.7188 14.9297 -0.8594 Q15.0781 -1 15.1953 -1.2266 Q15.3125 -1.4531 15.3906 -1.6953 Q15.4688 -1.9375 15.6094 -2.4062 L16.2812 -2.4062 L16.1562 0 L9.8281 0 L9.8281 -0.3281 Q10.25 -0.4375 10.3906 -0.5781 Q10.5312 -0.7188 10.5781 -0.9609 Q10.625 -1.2031 10.625 -1.7031 L10.625 -7.625 Q10.625 -8.0938 10.5938 -8.3125 Q10.5625 -8.5312 10.4844 -8.6484 Q10.4062 -8.7656 10.2734 -8.8359 Q10.1406 -8.9062 9.8281 -9 L9.8281 -9.3281 L16.2188 -9.3281 ZM23.3125 -3.7031 Q23.5625 -3.2812 23.7266 -2.9766 Q23.8906 -2.6719 24.0781 -2.2969 L24.1719 -2.2969 Q24.125 -2.7031 24.1016 -3.9453 Q24.0781 -5.1875 24.0781 -6.1875 L24.0781 -7.625 Q24.0781 -8.0938 24.0469 -8.3125 Q24.0156 -8.5312 23.9453 -8.6484 Q23.875 -8.7656 23.75 -8.8359 Q23.625 -8.9062 23.3125 -9 L23.3125 -9.3281 L25.7656 -9.3281 L25.7656 -9 Q25.4688 -8.9219 25.3359 -8.8516 Q25.2031 -8.7812 25.125 -8.6719 Q25.0469 -8.5625 25.0078 -8.3438 Q24.9688 -8.125 24.9688 -7.625 L24.9688 0.0469 L24.1094 0.0469 L20.3125 -6.3438 Q19.9531 -6.9375 19.8047 -7.2109 Q19.6562 -7.4844 19.5156 -7.75 L19.4062 -7.75 Q19.4531 -7.2188 19.4766 -5.8438 Q19.5 -4.4688 19.5 -3.1094 L19.5 -1.7031 Q19.5 -1.25 19.5312 -1.0391 Q19.5625 -0.8281 19.6328 -0.7031 Q19.7031 -0.5781 19.8438 -0.5 Q19.9844 -0.4219 20.2969 -0.3281 L20.2969 0 L17.7969 0 L17.7969 -0.3281 Q18.2188 -0.4375 18.3672 -0.5781 Q18.5156 -0.7188 18.5547 -0.9609 Q18.5938 -1.2031 18.5938 -1.7031 L18.5938 -7.625 Q18.5938 -8.0938 18.5625 -8.3125 Q18.5312 -8.5312 18.4531 -8.6484 Q18.375 -8.7656 18.2422 -8.8359 Q18.1094 -8.9062 17.7969 -9 L17.7969 -9.3281 L19.9375 -9.3281 L23.3125 -3.7031 ZM34.2188 -9.3281 L34.2188 -7.2656 L33.5469 -7.2656 Q33.4531 -7.6094 33.3438 -7.8594 Q33.2344 -8.1094 33.1172 -8.2812 Q33 -8.4531 32.8594 -8.5547 Q32.7188 -8.6562 32.5234 -8.6953 Q32.3281 -8.7344 32.0625 -8.7344 L29.9062 -8.7344 L29.9062 -5.1406 L31.375 -5.1406 Q31.6719 -5.1406 31.8438 -5.2266 Q32.0156 -5.3125 32.125 -5.5234 Q32.2344 -5.7344 32.3438 -6.1719 L32.9844 -6.1719 L32.9844 -3.5469 L32.3438 -3.5469 Q32.25 -3.9531 32.1328 -4.1641 Q32.0156 -4.375 31.8516 -4.4609 Q31.6875 -4.5469 31.375 -4.5469 L29.9062 -4.5469 L29.9062 -0.6094 L32.0312 -0.6094 Q32.3594 -0.6094 32.5703 -0.6641 Q32.7812 -0.7188 32.9297 -0.8594 Q33.0781 -1 33.1953 -1.2266 Q33.3125 -1.4531 33.3906 -1.6953 Q33.4688 -1.9375 33.6094 -2.4062 L34.2812 -2.4062 L34.1562 0 L27.8281 0 L27.8281 -0.3281 Q28.25 -0.4375 28.3906 -0.5781 Q28.5312 -0.7188 28.5781 -0.9609 Q28.625 -1.2031 28.625 -1.7031 L28.625 -7.625 Q28.625 -8.0938 28.5938 -8.3125 Q28.5625 -8.5312 28.4844 -8.6484 Q28.4062 -8.7656 28.2734 -8.8359 Q28.1406 -8.9062 27.8281 -9 L27.8281 -9.3281 L34.2188 -9.3281 Z" stroke-width="1" transform="translate(1.6778,10.222)" stroke="none"/></g><g text-rendering="optimizeLegibility" transform="translate(2.6778,24.7286)" color-rendering="optimizeQuality" color-interpolation="linearRGB" image-rendering="optimizeQuality"><path d="M1.4531 -2.125 Q1.5938 -1.5312 1.8203 -1.1797 Q2.0469 -0.8281 2.4219 -0.6641 Q2.7969 -0.5 3.375 -0.5 Q4.1719 -0.5 4.6016 -0.9141 Q5.0312 -1.3281 5.0312 -2.125 Q5.0312 -2.6406 4.8516 -2.9922 Q4.6719 -3.3438 4.2656 -3.6484 Q3.8594 -3.9531 3.0312 -4.3594 Q2.2344 -4.7656 1.7734 -5.1406 Q1.3125 -5.5156 1.0781 -5.9609 Q0.8438 -6.4062 0.8438 -6.9375 Q0.8438 -7.7031 1.2031 -8.2656 Q1.5625 -8.8281 2.2578 -9.1328 Q2.9531 -9.4375 3.8438 -9.4375 Q4.375 -9.4375 4.8672 -9.3828 Q5.3594 -9.3281 6.1094 -9.1406 L6.1094 -7.2969 L5.4219 -7.2969 Q5.2656 -7.8906 5.0312 -8.2266 Q4.7969 -8.5625 4.4766 -8.6953 Q4.1562 -8.8281 3.6406 -8.8281 Q3.1875 -8.8281 2.8359 -8.6641 Q2.4844 -8.5 2.2812 -8.1719 Q2.0781 -7.8438 2.0781 -7.3906 Q2.0781 -6.8906 2.25 -6.5625 Q2.4219 -6.2344 2.7969 -5.9453 Q3.1719 -5.6562 3.8906 -5.2969 Q4.7656 -4.8594 5.25 -4.4844 Q5.7344 -4.1094 6 -3.625 Q6.2656 -3.1406 6.2656 -2.5 Q6.2656 -1.7812 6.0391 -1.2891 Q5.8125 -0.7969 5.4141 -0.4844 Q5.0156 -0.1719 4.4609 -0.0312 Q3.9062 0.1094 3.2344 0.1094 Q2.1719 0.1094 0.7656 -0.25 L0.7656 -2.125 L1.4531 -2.125 ZM14.2188 -9.3281 L14.2188 -7.2656 L13.5469 -7.2656 Q13.4531 -7.6094 13.3438 -7.8594 Q13.2344 -8.1094 13.1172 -8.2812 Q13 -8.4531 12.8594 -8.5547 Q12.7188 -8.6562 12.5234 -8.6953 Q12.3281 -8.7344 12.0625 -8.7344 L9.9062 -8.7344 L9.9062 -5.1406 L11.375 -5.1406 Q11.6719 -5.1406 11.8438 -5.2266 Q12.0156 -5.3125 12.125 -5.5234 Q12.2344 -5.7344 12.3438 -6.1719 L12.9844 -6.1719 L12.9844 -3.5469 L12.3438 -3.5469 Q12.25 -3.9531 12.1328 -4.1641 Q12.0156 -4.375 11.8516 -4.4609 Q11.6875 -4.5469 11.375 -4.5469 L9.9062 -4.5469 L9.9062 -0.6094 L12.0312 -0.6094 Q12.3594 -0.6094 12.5703 -0.6641 Q12.7812 -0.7188 12.9297 -0.8594 Q13.0781 -1 13.1953 -1.2266 Q13.3125 -1.4531 13.3906 -1.6953 Q13.4688 -1.9375 13.6094 -2.4062 L14.2812 -2.4062 L14.1562 0 L7.8281 0 L7.8281 -0.3281 Q8.25 -0.4375 8.3906 -0.5781 Q8.5312 -0.7188 8.5781 -0.9609 Q8.625 -1.2031 8.625 -1.7031 L8.625 -7.625 Q8.625 -8.0938 8.5938 -8.3125 Q8.5625 -8.5312 8.4844 -8.6484 Q8.4062 -8.7656 8.2734 -8.8359 Q8.1406 -8.9062 7.8281 -9 L7.8281 -9.3281 L14.2188 -9.3281 ZM21.3125 -3.7031 Q21.5625 -3.2812 21.7266 -2.9766 Q21.8906 -2.6719 22.0781 -2.2969 L22.1719 -2.2969 Q22.125 -2.7031 22.1016 -3.9453 Q22.0781 -5.1875 22.0781 -6.1875 L22.0781 -7.625 Q22.0781 -8.0938 22.0469 -8.3125 Q22.0156 -8.5312 21.9453 -8.6484 Q21.875 -8.7656 21.75 -8.8359 Q21.625 -8.9062 21.3125 -9 L21.3125 -9.3281 L23.7656 -9.3281 L23.7656 -9 Q23.4688 -8.9219 23.3359 -8.8516 Q23.2031 -8.7812 23.125 -8.6719 Q23.0469 -8.5625 23.0078 -8.3438 Q22.9688 -8.125 22.9688 -7.625 L22.9688 0.0469 L22.1094 0.0469 L18.3125 -6.3438 Q17.9531 -6.9375 17.8047 -7.2109 Q17.6562 -7.4844 17.5156 -7.75 L17.4062 -7.75 Q17.4531 -7.2188 17.4766 -5.8438 Q17.5 -4.4688 17.5 -3.1094 L17.5 -1.7031 Q17.5 -1.25 17.5312 -1.0391 Q17.5625 -0.8281 17.6328 -0.7031 Q17.7031 -0.5781 17.8438 -0.5 Q17.9844 -0.4219 18.2969 -0.3281 L18.2969 0 L15.7969 0 L15.7969 -0.3281 Q16.2188 -0.4375 16.3672 -0.5781 Q16.5156 -0.7188 16.5547 -0.9609 Q16.5938 -1.2031 16.5938 -1.7031 L16.5938 -7.625 Q16.5938 -8.0938 16.5625 -8.3125 Q16.5312 -8.5312 16.4531 -8.6484 Q16.375 -8.7656 16.2422 -8.8359 Q16.1094 -8.9062 15.7969 -9 L15.7969 -9.3281 L17.9375 -9.3281 L21.3125 -3.7031 ZM32.2188 -9.3281 L32.2188 -7.2656 L31.5469 -7.2656 Q31.4531 -7.6094 31.3438 -7.8594 Q31.2344 -8.1094 31.1172 -8.2812 Q31 -8.4531 30.8594 -8.5547 Q30.7188 -8.6562 30.5234 -8.6953 Q30.3281 -8.7344 30.0625 -8.7344 L27.9062 -8.7344 L27.9062 -5.1406 L29.375 -5.1406 Q29.6719 -5.1406 29.8438 -5.2266 Q30.0156 -5.3125 30.125 -5.5234 Q30.2344 -5.7344 30.3438 -6.1719 L30.9844 -6.1719 L30.9844 -3.5469 L30.3438 -3.5469 Q30.25 -3.9531 30.1328 -4.1641 Q30.0156 -4.375 29.8516 -4.4609 Q29.6875 -4.5469 29.375 -4.5469 L27.9062 -4.5469 L27.9062 -0.6094 L30.0312 -0.6094 Q30.3594 -0.6094 30.5703 -0.6641 Q30.7812 -0.7188 30.9297 -0.8594 Q31.0781 -1 31.1953 -1.2266 Q31.3125 -1.4531 31.3906 -1.6953 Q31.4688 -1.9375 31.6094 -2.4062 L32.2812 -2.4062 L32.1562 0 L25.8281 0 L25.8281 -0.3281 Q26.25 -0.4375 26.3906 -0.5781 Q26.5312 -0.7188 26.5781 -0.9609 Q26.625 -1.2031 26.625 -1.7031 L26.625 -7.625 Q26.625 -8.0938 26.5938 -8.3125 Q26.5625 -8.5312 26.4844 -8.6484 Q26.4062 -8.7656 26.2734 -8.8359 Q26.1406 -8.9062 25.8281 -9 L25.8281 -9.3281 L32.2188 -9.3281 Z" stroke="none"/></g></g></svg>