<?xml version="1.0" encoding="UTF-8" standalone="no"?><svg xmlns="http://www.w3.org/2000/svg" xmlns:xlink="http://www.w3.org/1999/xlink" stroke-dasharray="none" shape-rendering="auto" font-family="'Dialog'" width="41.812600" text-rendering="auto" fill-opacity="1" contentScriptType="text/ecmascript" color-interpolation="auto" color-rendering="auto" preserveAspectRatio="xMidYMid meet" font-size="12" fill="black" stroke="black" image-rendering="auto" stroke-miterlimit="10" zoomAndPan="magnify" version="1.0" stroke-linecap="square" stroke-linejoin="miter" contentStyleType="text/css" font-style="normal" height="26" stroke-width="1" stroke-dashoffset="0" font-weight="normal" stroke-opacity="1" y="-6.000000"><!--Converted from MathML using JEuclid--><defs id="genericDefs"/><g><g text-rendering="optimizeLegibility" transform="translate(1.0781,20)" color-rendering="optimizeQuality" color-interpolation="linearRGB" image-rendering="optimizeQuality"><path d="M7.0781 4.2188 Q5.5625 4.2188 4.6797 3.8281 Q3.7969 3.4375 3.4141 2.6641 Q3.0312 1.8906 3.0312 0.5781 L3.0312 -2.25 Q3.0312 -3.1094 2.8125 -3.5938 Q2.5938 -4.0781 2.1562 -4.2734 Q1.7188 -4.4688 0.9219 -4.4688 L0.9219 -5.2812 Q1.7031 -5.2812 2.1484 -5.4766 Q2.5938 -5.6719 2.8125 -6.1484 Q3.0312 -6.625 3.0312 -7.5 L3.0312 -10.3281 Q3.0312 -11.625 3.4141 -12.4062 Q3.7969 -13.1875 4.6797 -13.5781 Q5.5625 -13.9688 7.0781 -13.9688 L7.3281 -13.9688 L7.3281 -13.1719 Q6.5469 -13.1719 6.1641 -13.0938 Q5.7812 -13.0156 5.5391 -12.8438 Q5.2969 -12.6719 5.1406 -12.4141 Q4.9844 -12.1562 4.8984 -11.6875 Q4.8125 -11.2188 4.8125 -10.4375 L4.8125 -8.5469 Q4.8125 -7.5625 4.6406 -6.8984 Q4.4688 -6.2344 4.0312 -5.7578 Q3.5938 -5.2812 2.8281 -4.9688 L2.8281 -4.7812 Q3.5781 -4.4844 4.0312 -3.9844 Q4.4844 -3.4844 4.6484 -2.8203 Q4.8125 -2.1562 4.8125 -1.2031 L4.8125 0.6875 Q4.8125 1.4688 4.8984 1.9375 Q4.9844 2.4062 5.1406 2.6719 Q5.2969 2.9375 5.5391 3.1016 Q5.7812 3.2656 6.1641 3.3438 Q6.5469 3.4219 7.3281 3.4219 L7.3281 4.2188 L7.0781 4.2188 Z" stroke="none"/></g><g text-rendering="optimizeLegibility" stroke-width="1.6667" color-interpolation="linearRGB" color-rendering="optimizeQuality" image-rendering="optimizeQuality"><line y2="12.78" fill="none" x1="12.084" x2="26.584" y1="12.78"/><path d="M5.6719 -5.9844 L5.6875 -6.1562 Q5.7031 -6.4844 5.7031 -6.7188 Q5.7031 -7.2812 5.6328 -7.7344 Q5.5625 -8.1875 5.4062 -8.5078 Q5.25 -8.8281 4.9766 -9.0078 Q4.7031 -9.1875 4.2969 -9.1875 Q3.7969 -9.1875 3.3672 -8.9453 Q2.9375 -8.7031 2.5312 -8.2188 L2.0312 -8.2188 L2.0312 -8.7812 Q2.6875 -9.25 3.0469 -9.4375 Q3.4062 -9.625 3.7656 -9.7266 Q4.125 -9.8281 4.5469 -9.8281 Q5.6875 -9.8281 6.2578 -9.0469 Q6.8281 -8.2656 6.8281 -6.7031 Q6.8281 -6.0781 6.7188 -5.2188 Q6.6094 -4.3594 6.3438 -3.4297 Q6.0781 -2.5 5.7422 -1.8516 Q5.4062 -1.2031 4.9844 -0.7812 Q4.5625 -0.3594 4.0234 -0.125 Q3.4844 0.1094 2.7969 0.1094 Q2.1094 0.1094 1.6016 -0.1719 Q1.0938 -0.4531 0.8359 -0.9922 Q0.5781 -1.5312 0.5781 -2.3125 Q0.5781 -3.0781 0.8125 -3.8359 Q1.0469 -4.5938 1.5078 -5.2109 Q1.9688 -5.8281 2.6094 -6.1797 Q3.25 -6.5312 3.9844 -6.5312 Q4.4844 -6.5312 4.8516 -6.4219 Q5.2188 -6.3125 5.6719 -5.9844 ZM5.3438 -4.6719 Q5.3438 -5.3594 5.0547 -5.6797 Q4.7656 -6 4.1875 -6 Q3.7812 -6 3.3984 -5.7812 Q3.0156 -5.5625 2.7109 -5.1641 Q2.4062 -4.7656 2.2109 -4.2266 Q2.0156 -3.6875 1.8984 -3.1406 Q1.7812 -2.5938 1.7812 -2 Q1.7812 -1.375 1.9141 -1.0312 Q2.0469 -0.6875 2.2656 -0.5625 Q2.4844 -0.4375 2.8125 -0.4375 Q3.5625 -0.4375 4.0781 -1.0234 Q4.5938 -1.6094 4.9688 -2.7969 Q5.3438 -3.9844 5.3438 -4.6719 Z" stroke-width="1" transform="translate(11.5059,10.1595)" stroke="none"/></g><g text-rendering="optimizeLegibility" transform="translate(18.334,10.1595)" color-rendering="optimizeQuality" color-interpolation="linearRGB" image-rendering="optimizeQuality"><path d="M2.5781 -1.9844 Q2.5156 -1.7812 2.4922 -1.6406 Q2.4688 -1.5 2.4453 -1.2891 Q2.4219 -1.0781 2.4219 -0.9219 Q2.4219 -0.7188 2.4922 -0.5938 Q2.5625 -0.4688 2.7031 -0.4141 Q2.8438 -0.3594 3.1719 -0.3281 L3.0938 0 L0.2812 0 L0.3594 -0.3281 Q0.625 -0.375 0.75 -0.4688 Q0.875 -0.5625 0.9688 -0.7266 Q1.0625 -0.8906 1.1328 -1.125 Q1.2031 -1.3594 1.3594 -2.0312 L2.5156 -7.2969 Q2.6719 -7.9844 2.6719 -8.375 Q2.6719 -8.7188 2.5156 -8.8438 Q2.3594 -8.9688 2 -9 L2.0781 -9.3281 L8.25 -9.3281 L7.7656 -7.2344 L7.1094 -7.2344 Q7.0938 -7.7188 7.0469 -7.9922 Q7 -8.2656 6.9219 -8.4062 Q6.8438 -8.5469 6.7578 -8.6094 Q6.6719 -8.6719 6.5391 -8.7031 Q6.4062 -8.7344 6.1562 -8.7344 L4.0469 -8.7344 L3.2344 -5.0156 L4.5156 -5.0156 Q4.8125 -5.0156 5.0156 -5.0938 Q5.2188 -5.1719 5.3906 -5.3906 Q5.5625 -5.6094 5.8125 -6.125 L6.4375 -6.125 L5.7656 -3.2344 L5.1719 -3.2344 Q5.1719 -3.6719 5.1562 -3.9062 Q5.1406 -4.1406 5.0703 -4.2344 Q5 -4.3281 4.8828 -4.3672 Q4.7656 -4.4062 4.4531 -4.4062 L3.1094 -4.4062 L2.5781 -1.9844 Z" stroke="none"/></g><g text-rendering="optimizeLegibility" transform="translate(11.7637,25.1192)" color-rendering="optimizeQuality" color-interpolation="linearRGB" image-rendering="optimizeQuality"><path d="M5.6719 -5.9844 L5.6875 -6.1562 Q5.7031 -6.4844 5.7031 -6.7188 Q5.7031 -7.2812 5.6328 -7.7344 Q5.5625 -8.1875 5.4062 -8.5078 Q5.25 -8.8281 4.9766 -9.0078 Q4.7031 -9.1875 4.2969 -9.1875 Q3.7969 -9.1875 3.3672 -8.9453 Q2.9375 -8.7031 2.5312 -8.2188 L2.0312 -8.2188 L2.0312 -8.7812 Q2.6875 -9.25 3.0469 -9.4375 Q3.4062 -9.625 3.7656 -9.7266 Q4.125 -9.8281 4.5469 -9.8281 Q5.6875 -9.8281 6.2578 -9.0469 Q6.8281 -8.2656 6.8281 -6.7031 Q6.8281 -6.0781 6.7188 -5.2188 Q6.6094 -4.3594 6.3438 -3.4297 Q6.0781 -2.5 5.7422 -1.8516 Q5.4062 -1.2031 4.9844 -0.7812 Q4.5625 -0.3594 4.0234 -0.125 Q3.4844 0.1094 2.7969 0.1094 Q2.1094 0.1094 1.6016 -0.1719 Q1.0938 -0.4531 0.8359 -0.9922 Q0.5781 -1.5312 0.5781 -2.3125 Q0.5781 -3.0781 0.8125 -3.8359 Q1.0469 -4.5938 1.5078 -5.2109 Q1.9688 -5.8281 2.6094 -6.1797 Q3.25 -6.5312 3.9844 -6.5312 Q4.4844 -6.5312 4.8516 -6.4219 Q5.2188 -6.3125 5.6719 -5.9844 ZM5.3438 -4.6719 Q5.3438 -5.3594 5.0547 -5.6797 Q4.7656 -6 4.1875 -6 Q3.7812 -6 3.3984 -5.7812 Q3.0156 -5.5625 2.7109 -5.1641 Q2.4062 -4.7656 2.2109 -4.2266 Q2.0156 -3.6875 1.8984 -3.1406 Q1.7812 -2.5938 1.7812 -2 Q1.7812 -1.375 1.9141 -1.0312 Q2.0469 -0.6875 2.2656 -0.5625 Q2.4844 -0.4375 2.8125 -0.4375 Q3.5625 -0.4375 4.0781 -1.0234 Q4.5938 -1.6094 4.9688 -2.7969 Q5.3438 -3.9844 5.3438 -4.6719 Z" stroke="none"/></g><g text-rendering="optimizeLegibility" transform="translate(18.5918,25.1192)" color-rendering="optimizeQuality" color-interpolation="linearRGB" image-rendering="optimizeQuality"><path d="M7.5469 -5.6094 L5.5312 -5.6094 L5.5156 -5.5625 Q6.4531 -4.8906 6.4531 -3.625 Q6.4531 -2.2188 5.4922 -1.0547 Q4.5312 0.1094 2.8438 0.1094 Q1.8125 0.1094 1.1953 -0.5547 Q0.5781 -1.2188 0.5781 -2.3281 Q0.5781 -3.4531 1.0234 -4.3359 Q1.4688 -5.2188 2.1875 -5.7344 Q2.9062 -6.25 3.6875 -6.3906 Q4.4688 -6.5312 5.8281 -6.5312 L7.7344 -6.5312 L7.5469 -5.6094 ZM4.6719 -5.5781 Q3.8125 -5.5781 3.2422 -5.2422 Q2.6719 -4.9062 2.2188 -4.0938 Q1.7656 -3.2812 1.7656 -2.0156 Q1.7656 -1.2656 2.1172 -0.8516 Q2.4688 -0.4375 2.9844 -0.4375 Q3.9219 -0.4375 4.5781 -1.5 Q5.2344 -2.5625 5.2344 -3.8594 Q5.2344 -4.875 4.6719 -5.5781 Z" stroke="none"/></g><g text-rendering="optimizeLegibility" transform="translate(31.5066,20)" color-rendering="optimizeQuality" color-interpolation="linearRGB" image-rendering="optimizeQuality"><path d="M0.6719 -13.9688 Q2.1875 -13.9688 3.0703 -13.5781 Q3.9531 -13.1875 4.3281 -12.4062 Q4.7031 -11.625 4.7031 -10.3281 L4.7031 -7.5 Q4.7031 -6.625 4.9297 -6.1484 Q5.1562 -5.6719 5.5938 -5.4766 Q6.0312 -5.2812 6.8125 -5.2812 L6.8125 -4.4688 Q6.0312 -4.4688 5.5859 -4.2734 Q5.1406 -4.0781 4.9219 -3.5938 Q4.7031 -3.1094 4.7031 -2.25 L4.7031 0.5781 Q4.7031 1.8906 4.3281 2.6641 Q3.9531 3.4375 3.0703 3.8281 Q2.1875 4.2188 0.6719 4.2188 L0.4219 4.2188 L0.4219 3.4219 Q1.1875 3.4219 1.5781 3.3438 Q1.9688 3.2656 2.2031 3.1016 Q2.4375 2.9375 2.5938 2.6719 Q2.75 2.4062 2.8438 1.9375 Q2.9375 1.4688 2.9375 0.6875 L2.9375 -1.2031 Q2.9375 -2.1875 3.1016 -2.8438 Q3.2656 -3.5 3.7109 -3.9844 Q4.1562 -4.4688 4.9062 -4.7812 L4.9062 -4.9688 Q4.1719 -5.2656 3.7188 -5.7656 Q3.2656 -6.2656 3.1016 -6.9297 Q2.9375 -7.5938 2.9375 -8.5469 L2.9375 -10.4375 Q2.9375 -11.2188 2.8438 -11.6875 Q2.75 -12.1562 2.5938 -12.4141 Q2.4375 -12.6719 2.2031 -12.8438 Q1.9688 -13.0156 1.5781 -13.0938 Q1.1875 -13.1719 0.4219 -13.1719 L0.4219 -13.9688 L0.6719 -13.9688 Z" stroke="none"/></g></g></svg>