<?xml version="1.0" encoding="UTF-8" standalone="no"?><svg xmlns="http://www.w3.org/2000/svg" xmlns:xlink="http://www.w3.org/1999/xlink" stroke-dasharray="none" shape-rendering="auto" font-family="'Dialog'" width="658.812600" text-rendering="auto" fill-opacity="1" contentScriptType="text/ecmascript" color-interpolation="auto" color-rendering="auto" preserveAspectRatio="xMidYMid meet" font-size="12" fill="black" stroke="black" image-rendering="auto" stroke-miterlimit="10" zoomAndPan="magnify" version="1.0" stroke-linecap="square" stroke-linejoin="miter" contentStyleType="text/css" font-style="normal" height="49" stroke-width="1" stroke-dashoffset="0" font-weight="normal" stroke-opacity="1" y="-20.000000"><!--Converted from MathML using JEuclid--><defs id="genericDefs"/><g><g text-rendering="optimizeLegibility" transform="translate(1.0781,29)" color-rendering="optimizeQuality" color-interpolation="linearRGB" image-rendering="optimizeQuality"><path d="M7.0781 4.2188 Q5.5625 4.2188 4.6797 3.8281 Q3.7969 3.4375 3.4141 2.6641 Q3.0312 1.8906 3.0312 0.5781 L3.0312 -2.25 Q3.0312 -3.1094 2.8125 -3.5938 Q2.5938 -4.0781 2.1562 -4.2734 Q1.7188 -4.4688 0.9219 -4.4688 L0.9219 -5.2812 Q1.7031 -5.2812 2.1484 -5.4766 Q2.5938 -5.6719 2.8125 -6.1484 Q3.0312 -6.625 3.0312 -7.5 L3.0312 -10.3281 Q3.0312 -11.625 3.4141 -12.4062 Q3.7969 -13.1875 4.6797 -13.5781 Q5.5625 -13.9688 7.0781 -13.9688 L7.3281 -13.9688 L7.3281 -13.1719 Q6.5469 -13.1719 6.1641 -13.0938 Q5.7812 -13.0156 5.5391 -12.8438 Q5.2969 -12.6719 5.1406 -12.4141 Q4.9844 -12.1562 4.8984 -11.6875 Q4.8125 -11.2188 4.8125 -10.4375 L4.8125 -8.5469 Q4.8125 -7.5625 4.6406 -6.8984 Q4.4688 -6.2344 4.0312 -5.7578 Q3.5938 -5.2812 2.8281 -4.9688 L2.8281 -4.7812 Q3.5781 -4.4844 4.0312 -3.9844 Q4.4844 -3.4844 4.6484 -2.8203 Q4.8125 -2.1562 4.8125 -1.2031 L4.8125 0.6875 Q4.8125 1.4688 4.8984 1.9375 Q4.9844 2.4062 5.1406 2.6719 Q5.2969 2.9375 5.5391 3.1016 Q5.7812 3.2656 6.1641 3.3438 Q6.5469 3.4219 7.3281 3.4219 L7.3281 4.2188 L7.0781 4.2188 Z" stroke="none"/></g><g text-rendering="optimizeLegibility" transform="translate(10.4062,29)" color-rendering="optimizeQuality" color-interpolation="linearRGB" image-rendering="optimizeQuality"><path d="M0.5156 -0.4844 Q0.8906 -0.5312 1.0781 -0.6641 Q1.2656 -0.7969 1.3906 -1.0312 Q1.5156 -1.2656 1.625 -1.6016 Q1.7344 -1.9375 1.9375 -2.9062 L3.6094 -10.4375 Q3.7031 -10.875 3.7578 -11.2891 Q3.8125 -11.7031 3.8125 -12 Q3.8125 -12.4688 3.5781 -12.6484 Q3.3438 -12.8281 2.8594 -12.8594 L2.9688 -13.3281 L6.875 -13.3281 L6.7656 -12.8594 Q6.3906 -12.7812 6.2344 -12.6797 Q6.0781 -12.5781 5.9453 -12.3828 Q5.8125 -12.1875 5.6797 -11.7734 Q5.5469 -11.3594 5.3438 -10.4219 L3.25 -0.9062 L5.6562 -0.9062 Q6.3125 -0.9062 6.6875 -1.0312 Q7.0625 -1.1562 7.3984 -1.4922 Q7.7344 -1.8281 8.0547 -2.4062 Q8.375 -2.9844 8.7188 -3.8438 L9.6562 -3.8438 L8.6719 0 L0.4062 0 L0.5156 -0.4844 Z" stroke="none"/></g><g text-rendering="optimizeLegibility" transform="translate(20.0625,20.5078)" color-rendering="optimizeQuality" color-interpolation="linearRGB" image-rendering="optimizeQuality"><path d="M4.6094 -1.2656 Q4.0469 -0.5781 3.5 -0.2344 Q2.9531 0.1094 2.3438 0.1094 Q1.625 0.1094 1.2656 -0.2578 Q0.9062 -0.625 0.9062 -1.3281 Q0.9062 -1.7656 1.0312 -2.2969 L1.875 -5.8438 L0.8594 -5.8438 L0.9375 -6.1875 Q1.3438 -6.2344 1.5781 -6.3672 Q1.8125 -6.5 1.9766 -6.7031 Q2.1406 -6.9062 2.2734 -7.2422 Q2.4062 -7.5781 2.6094 -8.2188 L3.5625 -8.2188 L3.1719 -6.5312 L5.3438 -6.5312 L5.2031 -5.8438 L3.0156 -5.8438 L2.3594 -3.1875 Q2.0938 -2.0781 2.0938 -1.5312 Q2.0938 -1.125 2.2734 -0.9062 Q2.4531 -0.6875 2.7969 -0.6875 Q3.125 -0.6875 3.4688 -0.9297 Q3.8125 -1.1719 4.2188 -1.6719 L4.6094 -1.2656 Z" stroke="none"/></g><g text-rendering="optimizeLegibility" transform="translate(25.4062,20.5078)" color-rendering="optimizeQuality" color-interpolation="linearRGB" image-rendering="optimizeQuality"><path d="M6.375 0 L4.2344 0 L5.0938 -3.4688 Q5.1875 -3.8438 5.2578 -4.2344 Q5.3281 -4.625 5.3281 -4.9375 Q5.3281 -5.4219 5.1641 -5.6328 Q5 -5.8438 4.6094 -5.8438 Q4.3281 -5.8438 3.9922 -5.6094 Q3.6562 -5.375 3.2812 -4.9062 Q2.9062 -4.4375 2.6875 -4 Q2.4688 -3.5625 2.3281 -2.9531 L1.7031 0 L0.5312 0 L2.2812 -7.8125 Q2.3594 -8.1562 2.3906 -8.3125 Q2.4219 -8.4688 2.4375 -8.5938 Q2.4531 -8.7188 2.4531 -8.8281 Q2.4531 -9.1094 2.2734 -9.2266 Q2.0938 -9.3438 1.6406 -9.3594 L1.7344 -9.7188 L3.4531 -9.7812 L3.8594 -9.7812 L2.6875 -5.0312 L2.7656 -5.0156 Q3.4062 -5.8594 3.9844 -6.25 Q4.5625 -6.6406 5.1719 -6.6406 Q5.8281 -6.6406 6.1719 -6.2734 Q6.5156 -5.9062 6.5156 -5.2031 Q6.5156 -4.7656 6.375 -4.1406 L5.7969 -1.7031 Q5.7344 -1.4219 5.7109 -1.2422 Q5.6875 -1.0625 5.6875 -0.9375 Q5.6875 -0.7188 5.7578 -0.6016 Q5.8281 -0.4844 5.9766 -0.4297 Q6.125 -0.375 6.4375 -0.3281 L6.375 0 Z" stroke="none"/></g><g text-rendering="optimizeLegibility" transform="translate(33.5,29)" color-rendering="optimizeQuality" color-interpolation="linearRGB" image-rendering="optimizeQuality"><path d="M0.6719 -13.9688 Q2.1875 -13.9688 3.0703 -13.5781 Q3.9531 -13.1875 4.3281 -12.4062 Q4.7031 -11.625 4.7031 -10.3281 L4.7031 -7.5 Q4.7031 -6.625 4.9297 -6.1484 Q5.1562 -5.6719 5.5938 -5.4766 Q6.0312 -5.2812 6.8125 -5.2812 L6.8125 -4.4688 Q6.0312 -4.4688 5.5859 -4.2734 Q5.1406 -4.0781 4.9219 -3.5938 Q4.7031 -3.1094 4.7031 -2.25 L4.7031 0.5781 Q4.7031 1.8906 4.3281 2.6641 Q3.9531 3.4375 3.0703 3.8281 Q2.1875 4.2188 0.6719 4.2188 L0.4219 4.2188 L0.4219 3.4219 Q1.1875 3.4219 1.5781 3.3438 Q1.9688 3.2656 2.2031 3.1016 Q2.4375 2.9375 2.5938 2.6719 Q2.75 2.4062 2.8438 1.9375 Q2.9375 1.4688 2.9375 0.6875 L2.9375 -1.2031 Q2.9375 -2.1875 3.1016 -2.8438 Q3.2656 -3.5 3.7109 -3.9844 Q4.1562 -4.4688 4.9062 -4.7812 L4.9062 -4.9688 Q4.1719 -5.2656 3.7188 -5.7656 Q3.2656 -6.2656 3.1016 -6.9297 Q2.9375 -7.5938 2.9375 -8.5469 L2.9375 -10.4375 Q2.9375 -11.2188 2.8438 -11.6875 Q2.75 -12.1562 2.5938 -12.4141 Q2.4375 -12.6719 2.2031 -12.8438 Q1.9688 -13.0156 1.5781 -13.0938 Q1.1875 -13.1719 0.4219 -13.1719 L0.4219 -13.9688 L0.6719 -13.9688 Z" stroke="none"/></g><g text-rendering="optimizeLegibility" transform="translate(43.0938,29)" color-rendering="optimizeQuality" color-interpolation="linearRGB" image-rendering="optimizeQuality"><path d="M1.2188 -7.0625 L1.2188 -8.4219 L9.8594 -8.4219 L9.8594 -7.0625 L1.2188 -7.0625 ZM1.2188 -3.0156 L1.2188 -4.3594 L9.8594 -4.3594 L9.8594 -3.0156 L1.2188 -3.0156 Z" stroke="none"/></g><g text-rendering="optimizeLegibility" transform="translate(56.4062,29)" color-rendering="optimizeQuality" color-interpolation="linearRGB" image-rendering="optimizeQuality"><path d="M8.7812 -5.8281 Q8.7812 -3.7656 8.6797 -2.0312 Q8.5781 -0.2969 8.3047 1.1641 Q8.0312 2.625 7.5938 3.6719 Q7.1562 4.7188 6.5625 5.3984 Q5.9688 6.0781 5.2031 6.4297 Q4.4375 6.7812 3.4375 6.7812 Q2.2188 6.7812 1.125 6.3125 L1.125 3.0625 L3 3.0625 Q3.2969 3.7656 3.6094 4.0938 Q3.9219 4.4219 4.4844 4.4219 Q5.2188 4.4219 5.5859 3.7891 Q5.9531 3.1562 5.9531 1.9062 Q5.9531 0.4688 5.8672 -1.1562 Q5.7812 -2.7812 5.6094 -5.4844 Q5.25 -10.5938 5.25 -14.4375 L5.25 -16.3281 Q5.25 -18.3906 5.3594 -20.125 Q5.4688 -21.8594 5.7422 -23.3203 Q6.0156 -24.7812 6.4453 -25.8281 Q6.875 -26.875 7.4766 -27.5547 Q8.0781 -28.2344 8.8438 -28.5859 Q9.6094 -28.9375 10.6094 -28.9375 Q11.8125 -28.9375 12.9062 -28.4688 L12.9062 -25.2188 L11.0312 -25.2188 Q10.7188 -25.9688 10.3984 -26.2734 Q10.0781 -26.5781 9.5781 -26.5781 Q8.7812 -26.5781 8.4375 -25.9453 Q8.0938 -25.3125 8.0938 -24.0625 Q8.0938 -22.625 8.1719 -21 Q8.25 -19.375 8.4375 -16.6719 Q8.7812 -11.5625 8.7812 -7.7188 L8.7812 -5.8281 Z" stroke="none"/></g><g text-rendering="optimizeLegibility" transform="translate(54.9531,48.0625)" color-rendering="optimizeQuality" color-interpolation="linearRGB" image-rendering="optimizeQuality"><path d="M6.3906 -6.5312 L6.5625 -6.1875 Q6.3125 -5.5781 6.1797 -5.2891 Q6.0469 -5 5.8203 -4.5547 Q5.5938 -4.1094 5.3125 -3.625 Q5.0312 -3.1406 4.6641 -2.5859 Q4.2969 -2.0312 3.8359 -1.375 Q3.375 -0.7188 2.75 0.1094 L1.9062 0.1094 L1.2656 -5.0469 Q1.2031 -5.5469 1.1328 -5.7656 Q1.0625 -5.9844 0.9219 -6.0859 Q0.7812 -6.1875 0.5 -6.2031 L0.5625 -6.5312 L2.3281 -6.5312 L2.8438 -1.0938 Q4.0156 -2.7188 4.5859 -3.8281 Q5.1562 -4.9375 5.1562 -5.625 Q5.1562 -5.9531 5.0156 -6.0703 Q4.875 -6.1875 4.5469 -6.2031 L4.625 -6.5312 L6.3906 -6.5312 Z" stroke="none"/></g><g text-rendering="optimizeLegibility" transform="translate(61.5156,48.0625)" color-rendering="optimizeQuality" color-interpolation="linearRGB" image-rendering="optimizeQuality"><path d="M2.7969 0.1094 Q1.7344 0.1094 1.1484 -0.4844 Q0.5625 -1.0781 0.5625 -2.1875 Q0.5625 -2.5938 0.6719 -3.1562 Q0.7969 -3.875 1.0469 -4.4219 Q1.3438 -5.1094 1.8281 -5.6172 Q2.3125 -6.125 2.9375 -6.3828 Q3.5625 -6.6406 4.2812 -6.6406 Q5.0625 -6.6406 5.5703 -6.3438 Q6.0781 -6.0469 6.2969 -5.5312 Q6.5156 -5.0156 6.5156 -4.3281 Q6.5156 -3.7188 6.3438 -3.0312 Q6.1094 -2.0312 5.6328 -1.3203 Q5.1562 -0.6094 4.4453 -0.25 Q3.7344 0.1094 2.7969 0.1094 ZM1.7656 -1.8906 Q1.7656 -1.1406 2.0781 -0.7812 Q2.3906 -0.4219 3.0156 -0.4219 Q3.6875 -0.4219 4.2031 -1.0234 Q4.7188 -1.625 5.0234 -2.7109 Q5.3281 -3.7969 5.3281 -4.6094 Q5.3281 -5.3594 5.0391 -5.7266 Q4.75 -6.0938 4.1406 -6.0938 Q3.4375 -6.0938 2.9062 -5.5 Q2.375 -4.9062 2.0703 -3.7969 Q1.7656 -2.6875 1.7656 -1.8906 Z" stroke="none"/></g><g text-rendering="optimizeLegibility" transform="translate(68.0312,48.0625)" color-rendering="optimizeQuality" color-interpolation="linearRGB" image-rendering="optimizeQuality"><path d="M3.4531 -9.7812 L3.8594 -9.7812 L2.0781 -1.7031 Q2 -1.375 1.9844 -1.2109 Q1.9688 -1.0469 1.9688 -0.9375 Q1.9688 -0.7188 2.0312 -0.6094 Q2.0938 -0.5 2.2422 -0.4375 Q2.3906 -0.375 2.7188 -0.3281 L2.6562 0 L0.5312 0 L2.2969 -7.8438 Q2.3594 -8.1562 2.3828 -8.3047 Q2.4062 -8.4531 2.4219 -8.5859 Q2.4375 -8.7188 2.4375 -8.8281 Q2.4375 -9.0312 2.3672 -9.1406 Q2.2969 -9.25 2.1562 -9.2969 Q2.0156 -9.3438 1.6406 -9.3594 L1.7344 -9.7188 L3.4531 -9.7812 Z" stroke="none"/></g><g text-rendering="optimizeLegibility" transform="translate(72.125,29)" color-rendering="optimizeQuality" color-interpolation="linearRGB" image-rendering="optimizeQuality"><path d="M7.2188 4.25 Q5.5625 4.25 4.5078 3.75 Q3.4531 3.25 2.8672 2.2344 Q2.2812 1.2188 2.0234 -0.4141 Q1.7656 -2.0469 1.7656 -4.8438 Q1.7656 -7.625 2.0234 -9.2656 Q2.2812 -10.9062 2.8672 -11.9453 Q3.4531 -12.9844 4.5078 -13.5 Q5.5625 -14.0156 7.2188 -14.0156 L7.2188 -13.2188 Q6.5312 -13.2188 6 -13.0938 Q5.4062 -12.9531 4.9844 -12.5625 Q4.5156 -12.1406 4.2344 -11.375 Q3.8906 -10.4688 3.7188 -8.9844 Q3.5469 -7.4062 3.5469 -4.9219 Q3.5469 -2.7188 3.6953 -1.1797 Q3.8438 0.3594 4.1875 1.3281 Q4.4531 2.1562 4.8594 2.6094 Q5.2188 3.0156 5.7188 3.2188 Q6.2969 3.4531 7.2188 3.4531 L7.2188 4.25 Z" stroke="none"/></g><g text-rendering="optimizeLegibility" transform="translate(81.1719,29)" color-rendering="optimizeQuality" color-interpolation="linearRGB" image-rendering="optimizeQuality"><path d="M15.6719 -14.4531 L15.6719 -13.1406 L9.0312 0.125 L8.375 0.125 L2.1719 -13.1406 L2.1719 -14.4531 L15.6719 -14.4531 ZM14.875 -13.0625 L4.0469 -13.0625 L9.2656 -1.9219 L9.2812 -1.9219 L14.875 -13.0625 Z" stroke="none"/></g><g text-rendering="optimizeLegibility" transform="translate(99.9219,29)" color-rendering="optimizeQuality" color-interpolation="linearRGB" image-rendering="optimizeQuality"><path d="M7.0781 4.2188 Q5.5625 4.2188 4.6797 3.8281 Q3.7969 3.4375 3.4141 2.6641 Q3.0312 1.8906 3.0312 0.5781 L3.0312 -2.25 Q3.0312 -3.1094 2.8125 -3.5938 Q2.5938 -4.0781 2.1562 -4.2734 Q1.7188 -4.4688 0.9219 -4.4688 L0.9219 -5.2812 Q1.7031 -5.2812 2.1484 -5.4766 Q2.5938 -5.6719 2.8125 -6.1484 Q3.0312 -6.625 3.0312 -7.5 L3.0312 -10.3281 Q3.0312 -11.625 3.4141 -12.4062 Q3.7969 -13.1875 4.6797 -13.5781 Q5.5625 -13.9688 7.0781 -13.9688 L7.3281 -13.9688 L7.3281 -13.1719 Q6.5469 -13.1719 6.1641 -13.0938 Q5.7812 -13.0156 5.5391 -12.8438 Q5.2969 -12.6719 5.1406 -12.4141 Q4.9844 -12.1562 4.8984 -11.6875 Q4.8125 -11.2188 4.8125 -10.4375 L4.8125 -8.5469 Q4.8125 -7.5625 4.6406 -6.8984 Q4.4688 -6.2344 4.0312 -5.7578 Q3.5938 -5.2812 2.8281 -4.9688 L2.8281 -4.7812 Q3.5781 -4.4844 4.0312 -3.9844 Q4.4844 -3.4844 4.6484 -2.8203 Q4.8125 -2.1562 4.8125 -1.2031 L4.8125 0.6875 Q4.8125 1.4688 4.8984 1.9375 Q4.9844 2.4062 5.1406 2.6719 Q5.2969 2.9375 5.5391 3.1016 Q5.7812 3.2656 6.1641 3.3438 Q6.5469 3.4219 7.3281 3.4219 L7.3281 4.2188 L7.0781 4.2188 Z" stroke="none"/></g><g text-rendering="optimizeLegibility" transform="translate(109.25,29)" color-rendering="optimizeQuality" color-interpolation="linearRGB" image-rendering="optimizeQuality"><path d="M13.9531 -13.3281 L13.8438 -12.8594 Q13.4688 -12.7812 13.3047 -12.6797 Q13.1406 -12.5781 13.0078 -12.3828 Q12.875 -12.1875 12.75 -11.7734 Q12.625 -11.3594 12.4062 -10.4219 L10.125 0 L8.7969 0 L5.9375 -8.375 Q5.4219 -9.8906 5.0312 -11.375 L4.9062 -11.375 Q4.8438 -10.875 4.5781 -9.4766 Q4.3125 -8.0781 4.0312 -6.7344 L3.1719 -2.8438 Q3.0781 -2.4375 3.0156 -2.0547 Q2.9531 -1.6719 2.9531 -1.3125 Q2.9531 -0.875 3.1797 -0.6953 Q3.4062 -0.5156 3.9219 -0.4844 L3.8125 0 L0.3906 0 L0.5 -0.4844 Q0.875 -0.5312 1.0547 -0.6641 Q1.2344 -0.7969 1.3672 -1.0312 Q1.5 -1.2656 1.6016 -1.6016 Q1.7031 -1.9375 1.9219 -2.9062 L3.5781 -10.4375 Q3.6875 -10.8438 3.7422 -11.2266 Q3.7969 -11.6094 3.7969 -12 Q3.7969 -12.4688 3.5625 -12.6484 Q3.3281 -12.8281 2.8438 -12.8594 L2.9531 -13.3281 L6.0625 -13.3281 L8.6406 -5.7188 Q9.2031 -4.0781 9.5 -2.9531 L9.6094 -2.9531 Q9.6875 -3.5469 9.9688 -4.9297 Q10.25 -6.3125 10.4844 -7.3594 L11.1562 -10.4375 Q11.2344 -10.75 11.3047 -11.1875 Q11.375 -11.625 11.375 -12 Q11.375 -12.4688 11.1406 -12.6484 Q10.9062 -12.8281 10.4219 -12.8594 L10.5312 -13.3281 L13.9531 -13.3281 Z" stroke="none"/></g><g text-rendering="optimizeLegibility" transform="translate(124.7812,29)" color-rendering="optimizeQuality" color-interpolation="linearRGB" image-rendering="optimizeQuality"><path d="M0.6719 -13.9688 Q2.1875 -13.9688 3.0703 -13.5781 Q3.9531 -13.1875 4.3281 -12.4062 Q4.7031 -11.625 4.7031 -10.3281 L4.7031 -7.5 Q4.7031 -6.625 4.9297 -6.1484 Q5.1562 -5.6719 5.5938 -5.4766 Q6.0312 -5.2812 6.8125 -5.2812 L6.8125 -4.4688 Q6.0312 -4.4688 5.5859 -4.2734 Q5.1406 -4.0781 4.9219 -3.5938 Q4.7031 -3.1094 4.7031 -2.25 L4.7031 0.5781 Q4.7031 1.8906 4.3281 2.6641 Q3.9531 3.4375 3.0703 3.8281 Q2.1875 4.2188 0.6719 4.2188 L0.4219 4.2188 L0.4219 3.4219 Q1.1875 3.4219 1.5781 3.3438 Q1.9688 3.2656 2.2031 3.1016 Q2.4375 2.9375 2.5938 2.6719 Q2.75 2.4062 2.8438 1.9375 Q2.9375 1.4688 2.9375 0.6875 L2.9375 -1.2031 Q2.9375 -2.1875 3.1016 -2.8438 Q3.2656 -3.5 3.7109 -3.9844 Q4.1562 -4.4688 4.9062 -4.7812 L4.9062 -4.9688 Q4.1719 -5.2656 3.7188 -5.7656 Q3.2656 -6.2656 3.1016 -6.9297 Q2.9375 -7.5938 2.9375 -8.5469 L2.9375 -10.4375 Q2.9375 -11.2188 2.8438 -11.6875 Q2.75 -12.1562 2.5938 -12.4141 Q2.4375 -12.6719 2.2031 -12.8438 Q1.9688 -13.0156 1.5781 -13.0938 Q1.1875 -13.1719 0.4219 -13.1719 L0.4219 -13.9688 L0.6719 -13.9688 Z" stroke="none"/></g><g text-rendering="optimizeLegibility" transform="translate(133.5938,19.6953)" color-rendering="optimizeQuality" color-interpolation="linearRGB" image-rendering="optimizeQuality"><path d="M4.875 0 L1.9844 0 L2.0625 -0.3281 Q2.3281 -0.375 2.4609 -0.4453 Q2.5938 -0.5156 2.6953 -0.6562 Q2.7969 -0.7969 2.8984 -1.1016 Q3 -1.4062 3.125 -2.0312 L4.5938 -8.7344 L3.7188 -8.7344 Q3.2969 -8.7344 3.0469 -8.6094 Q2.7969 -8.4844 2.5469 -8.1484 Q2.2969 -7.8125 1.9219 -7.0312 L1.2656 -7.0312 L1.7812 -9.3281 L8.9219 -9.3281 L8.3906 -6.9219 L7.7344 -6.9219 Q7.7344 -7.5938 7.6953 -7.9219 Q7.6562 -8.25 7.5625 -8.4219 Q7.4688 -8.5938 7.3281 -8.6641 Q7.1875 -8.7344 6.8438 -8.7344 L5.8281 -8.7344 L4.3438 -1.9844 Q4.2812 -1.7188 4.2578 -1.5625 Q4.2344 -1.4062 4.2188 -1.2344 Q4.2031 -1.0625 4.2031 -0.9219 Q4.2031 -0.7188 4.2656 -0.5938 Q4.3281 -0.4688 4.4688 -0.4141 Q4.6094 -0.3594 4.9375 -0.3281 L4.875 0 Z" stroke="none"/></g><g text-rendering="optimizeLegibility" transform="translate(144.0938,29)" color-rendering="optimizeQuality" color-interpolation="linearRGB" image-rendering="optimizeQuality"><path d="M0.4219 -14.0156 Q2.0781 -14.0156 3.1328 -13.5156 Q4.1875 -13.0156 4.7734 -12 Q5.3594 -10.9844 5.6172 -9.3516 Q5.875 -7.7188 5.875 -4.9219 Q5.875 -2.1562 5.6172 -0.5078 Q5.3594 1.1406 4.7734 2.1797 Q4.1875 3.2188 3.1328 3.7344 Q2.0781 4.25 0.4219 4.25 L0.4219 3.4531 Q1.1094 3.4531 1.625 3.3281 Q2.2344 3.1875 2.6406 2.7969 Q3.1094 2.375 3.4062 1.6094 Q3.75 0.7031 3.9219 -0.7812 Q4.0938 -2.3594 4.0938 -4.8438 Q4.0938 -7.0469 3.9453 -8.5859 Q3.7969 -10.125 3.4531 -11.0938 Q3.1875 -11.9219 2.7812 -12.375 Q2.4062 -12.7812 1.9219 -12.9844 Q1.3438 -13.2188 0.4219 -13.2188 L0.4219 -14.0156 Z" stroke="none"/></g><g text-rendering="optimizeLegibility" transform="translate(151.9688,19.6484)" color-rendering="optimizeQuality" color-interpolation="linearRGB" image-rendering="optimizeQuality"><path d="M4.875 0 L1.9844 0 L2.0625 -0.3281 Q2.3281 -0.375 2.4609 -0.4453 Q2.5938 -0.5156 2.6953 -0.6562 Q2.7969 -0.7969 2.8984 -1.1016 Q3 -1.4062 3.125 -2.0312 L4.5938 -8.7344 L3.7188 -8.7344 Q3.2969 -8.7344 3.0469 -8.6094 Q2.7969 -8.4844 2.5469 -8.1484 Q2.2969 -7.8125 1.9219 -7.0312 L1.2656 -7.0312 L1.7812 -9.3281 L8.9219 -9.3281 L8.3906 -6.9219 L7.7344 -6.9219 Q7.7344 -7.5938 7.6953 -7.9219 Q7.6562 -8.25 7.5625 -8.4219 Q7.4688 -8.5938 7.3281 -8.6641 Q7.1875 -8.7344 6.8438 -8.7344 L5.8281 -8.7344 L4.3438 -1.9844 Q4.2812 -1.7188 4.2578 -1.5625 Q4.2344 -1.4062 4.2188 -1.2344 Q4.2031 -1.0625 4.2031 -0.9219 Q4.2031 -0.7188 4.2656 -0.5938 Q4.3281 -0.4688 4.4688 -0.4141 Q4.6094 -0.3594 4.9375 -0.3281 L4.875 0 Z" stroke="none"/></g><g text-rendering="optimizeLegibility" transform="translate(160.6562,29)" color-rendering="optimizeQuality" color-interpolation="linearRGB" image-rendering="optimizeQuality"><path d="M6.5781 4.2031 L2.2344 4.2031 L2.2344 -13.9688 L6.5781 -13.9688 L6.5781 -13.1719 L3.9531 -13.1719 L3.9531 3.4062 L6.5781 3.4062 L6.5781 4.2031 Z" stroke="none"/></g><g text-rendering="optimizeLegibility" transform="translate(169.2344,29)" color-rendering="optimizeQuality" color-interpolation="linearRGB" image-rendering="optimizeQuality"><path d="M7.9531 -1.9375 Q7.2344 -1.1562 6.5703 -0.6953 Q5.9062 -0.2344 5.2422 -0.0391 Q4.5781 0.1562 3.7656 0.1562 Q3 0.1562 2.4453 -0.0938 Q1.8906 -0.3438 1.5234 -0.7812 Q1.1562 -1.2188 0.9766 -1.8125 Q0.7969 -2.4062 0.7969 -3.1094 Q0.7969 -4.1562 1.1719 -5.3516 Q1.5469 -6.5469 2.3125 -7.5 Q3.0781 -8.4531 4.1406 -8.9766 Q5.2031 -9.5 6.4062 -9.5 Q7.5938 -9.5 8.1797 -9.0234 Q8.7656 -8.5469 8.7656 -7.5312 Q8.7656 -5.875 7.2109 -5.0391 Q5.6562 -4.2031 2.5938 -4.2031 Q2.4688 -3.625 2.4688 -2.9375 Q2.4688 -1.9219 2.8672 -1.4531 Q3.2656 -0.9844 4.1875 -0.9844 Q5.0781 -0.9844 5.8125 -1.375 Q6.5469 -1.7656 7.3438 -2.5781 L7.9531 -1.9375 ZM2.75 -5.0469 Q3.6562 -5.0469 4.3359 -5.1406 Q5.0156 -5.2344 5.5 -5.3984 Q5.9844 -5.5625 6.3047 -5.7812 Q6.625 -6 6.8203 -6.2734 Q7.0156 -6.5469 7.0859 -6.8438 Q7.1562 -7.1406 7.1562 -7.4688 Q7.1562 -8.0625 6.8828 -8.3984 Q6.6094 -8.7344 6.0625 -8.7344 Q5.375 -8.7344 4.7109 -8.2422 Q4.0469 -7.75 3.5469 -6.9141 Q3.0469 -6.0781 2.75 -5.0469 Z" stroke="none"/></g><g text-rendering="optimizeLegibility" transform="translate(179.5781,29)" color-rendering="optimizeQuality" color-interpolation="linearRGB" image-rendering="optimizeQuality"><path d="M4.7812 4.2031 L0.4219 4.2031 L0.4219 3.4062 L3.0625 3.4062 L3.0625 -13.1719 L0.4219 -13.1719 L0.4219 -13.9688 L4.7812 -13.9688 L4.7812 4.2031 Z" stroke="none"/></g><g text-rendering="optimizeLegibility" transform="translate(187.4375,29)" color-rendering="optimizeQuality" color-interpolation="linearRGB" image-rendering="optimizeQuality"><path d="M7.0781 4.2188 Q5.5625 4.2188 4.6797 3.8281 Q3.7969 3.4375 3.4141 2.6641 Q3.0312 1.8906 3.0312 0.5781 L3.0312 -2.25 Q3.0312 -3.1094 2.8125 -3.5938 Q2.5938 -4.0781 2.1562 -4.2734 Q1.7188 -4.4688 0.9219 -4.4688 L0.9219 -5.2812 Q1.7031 -5.2812 2.1484 -5.4766 Q2.5938 -5.6719 2.8125 -6.1484 Q3.0312 -6.625 3.0312 -7.5 L3.0312 -10.3281 Q3.0312 -11.625 3.4141 -12.4062 Q3.7969 -13.1875 4.6797 -13.5781 Q5.5625 -13.9688 7.0781 -13.9688 L7.3281 -13.9688 L7.3281 -13.1719 Q6.5469 -13.1719 6.1641 -13.0938 Q5.7812 -13.0156 5.5391 -12.8438 Q5.2969 -12.6719 5.1406 -12.4141 Q4.9844 -12.1562 4.8984 -11.6875 Q4.8125 -11.2188 4.8125 -10.4375 L4.8125 -8.5469 Q4.8125 -7.5625 4.6406 -6.8984 Q4.4688 -6.2344 4.0312 -5.7578 Q3.5938 -5.2812 2.8281 -4.9688 L2.8281 -4.7812 Q3.5781 -4.4844 4.0312 -3.9844 Q4.4844 -3.4844 4.6484 -2.8203 Q4.8125 -2.1562 4.8125 -1.2031 L4.8125 0.6875 Q4.8125 1.4688 4.8984 1.9375 Q4.9844 2.4062 5.1406 2.6719 Q5.2969 2.9375 5.5391 3.1016 Q5.7812 3.2656 6.1641 3.3438 Q6.5469 3.4219 7.3281 3.4219 L7.3281 4.2188 L7.0781 4.2188 Z" stroke="none"/></g><g text-rendering="optimizeLegibility" transform="translate(196.7656,29)" color-rendering="optimizeQuality" color-interpolation="linearRGB" image-rendering="optimizeQuality"><path d="M8.0938 -7.25 L7.2812 -7.25 Q7.125 -8.7188 5.4531 -8.7188 Q4.6406 -8.7188 4.0469 -8.2422 Q3.4531 -7.7656 3.4531 -7.0156 Q3.4531 -6.3125 3.9766 -5.9062 Q4.5 -5.5 5.4531 -5.5 L6.3125 -5.5 L6.125 -4.5625 L5.3438 -4.5625 Q4.1094 -4.5625 3.1953 -4 Q2.2812 -3.4375 2.2812 -2.4219 Q2.2812 -1.7188 2.8438 -1.3125 Q3.4062 -0.9062 4.2656 -0.9062 Q5.7344 -0.9062 7.2031 -1.8594 L7.6406 -1.2031 Q5.8438 0.1562 3.6094 0.1562 Q2.1406 0.1562 1.3125 -0.4766 Q0.4844 -1.1094 0.4844 -2.125 Q0.4844 -4.1562 3.375 -4.9688 L3.4062 -5.0625 Q1.7812 -5.5312 1.7812 -6.9219 Q1.7812 -8.1094 2.7422 -8.8047 Q3.7031 -9.5 5.4219 -9.5 Q7.0312 -9.5 8.4844 -8.9688 L8.0938 -7.25 Z" stroke="none"/></g><g text-rendering="optimizeLegibility" transform="translate(205.25,24.3359)" color-rendering="optimizeQuality" color-interpolation="linearRGB" image-rendering="optimizeQuality"><path d="M4.6094 -1.2656 Q4.0469 -0.5781 3.5 -0.2344 Q2.9531 0.1094 2.3438 0.1094 Q1.625 0.1094 1.2656 -0.2578 Q0.9062 -0.625 0.9062 -1.3281 Q0.9062 -1.7656 1.0312 -2.2969 L1.875 -5.8438 L0.8594 -5.8438 L0.9375 -6.1875 Q1.3438 -6.2344 1.5781 -6.3672 Q1.8125 -6.5 1.9766 -6.7031 Q2.1406 -6.9062 2.2734 -7.2422 Q2.4062 -7.5781 2.6094 -8.2188 L3.5625 -8.2188 L3.1719 -6.5312 L5.3438 -6.5312 L5.2031 -5.8438 L3.0156 -5.8438 L2.3594 -3.1875 Q2.0938 -2.0781 2.0938 -1.5312 Q2.0938 -1.125 2.2734 -0.9062 Q2.4531 -0.6875 2.7969 -0.6875 Q3.125 -0.6875 3.4688 -0.9297 Q3.8125 -1.1719 4.2188 -1.6719 L4.6094 -1.2656 Z" stroke="none"/></g><g text-rendering="optimizeLegibility" transform="translate(210.5938,24.3359)" color-rendering="optimizeQuality" color-interpolation="linearRGB" image-rendering="optimizeQuality"><path d="M6.375 0 L4.2344 0 L5.0938 -3.4688 Q5.1875 -3.8438 5.2578 -4.2344 Q5.3281 -4.625 5.3281 -4.9375 Q5.3281 -5.4219 5.1641 -5.6328 Q5 -5.8438 4.6094 -5.8438 Q4.3281 -5.8438 3.9922 -5.6094 Q3.6562 -5.375 3.2812 -4.9062 Q2.9062 -4.4375 2.6875 -4 Q2.4688 -3.5625 2.3281 -2.9531 L1.7031 0 L0.5312 0 L2.2812 -7.8125 Q2.3594 -8.1562 2.3906 -8.3125 Q2.4219 -8.4688 2.4375 -8.5938 Q2.4531 -8.7188 2.4531 -8.8281 Q2.4531 -9.1094 2.2734 -9.2266 Q2.0938 -9.3438 1.6406 -9.3594 L1.7344 -9.7188 L3.4531 -9.7812 L3.8594 -9.7812 L2.6875 -5.0312 L2.7656 -5.0156 Q3.4062 -5.8594 3.9844 -6.25 Q4.5625 -6.6406 5.1719 -6.6406 Q5.8281 -6.6406 6.1719 -6.2734 Q6.5156 -5.9062 6.5156 -5.2031 Q6.5156 -4.7656 6.375 -4.1406 L5.7969 -1.7031 Q5.7344 -1.4219 5.7109 -1.2422 Q5.6875 -1.0625 5.6875 -0.9375 Q5.6875 -0.7188 5.7578 -0.6016 Q5.8281 -0.4844 5.9766 -0.4297 Q6.125 -0.375 6.4375 -0.3281 L6.375 0 Z" stroke="none"/></g><g text-rendering="optimizeLegibility" transform="translate(218.6875,29)" color-rendering="optimizeQuality" color-interpolation="linearRGB" image-rendering="optimizeQuality"><path d="M0.6719 -13.9688 Q2.1875 -13.9688 3.0703 -13.5781 Q3.9531 -13.1875 4.3281 -12.4062 Q4.7031 -11.625 4.7031 -10.3281 L4.7031 -7.5 Q4.7031 -6.625 4.9297 -6.1484 Q5.1562 -5.6719 5.5938 -5.4766 Q6.0312 -5.2812 6.8125 -5.2812 L6.8125 -4.4688 Q6.0312 -4.4688 5.5859 -4.2734 Q5.1406 -4.0781 4.9219 -3.5938 Q4.7031 -3.1094 4.7031 -2.25 L4.7031 0.5781 Q4.7031 1.8906 4.3281 2.6641 Q3.9531 3.4375 3.0703 3.8281 Q2.1875 4.2188 0.6719 4.2188 L0.4219 4.2188 L0.4219 3.4219 Q1.1875 3.4219 1.5781 3.3438 Q1.9688 3.2656 2.2031 3.1016 Q2.4375 2.9375 2.5938 2.6719 Q2.75 2.4062 2.8438 1.9375 Q2.9375 1.4688 2.9375 0.6875 L2.9375 -1.2031 Q2.9375 -2.1875 3.1016 -2.8438 Q3.2656 -3.5 3.7109 -3.9844 Q4.1562 -4.4688 4.9062 -4.7812 L4.9062 -4.9688 Q4.1719 -5.2656 3.7188 -5.7656 Q3.2656 -6.2656 3.1016 -6.9297 Q2.9375 -7.5938 2.9375 -8.5469 L2.9375 -10.4375 Q2.9375 -11.2188 2.8438 -11.6875 Q2.75 -12.1562 2.5938 -12.4141 Q2.4375 -12.6719 2.2031 -12.8438 Q1.9688 -13.0156 1.5781 -13.0938 Q1.1875 -13.1719 0.4219 -13.1719 L0.4219 -13.9688 L0.6719 -13.9688 Z" stroke="none"/></g><g text-rendering="optimizeLegibility" transform="translate(227.5,29)" color-rendering="optimizeQuality" color-interpolation="linearRGB" image-rendering="optimizeQuality"><path d="M8.5 -11.2188 Q8.5781 -11.5312 8.6328 -11.9219 Q8.6875 -12.3125 8.6875 -12.6094 Q8.6875 -12.9062 8.5859 -13.0547 Q8.4844 -13.2031 8.2812 -13.2734 Q8.0781 -13.3438 7.5625 -13.375 L7.6719 -13.875 L10.125 -13.9688 L10.7031 -13.9688 L8.1719 -2.7188 Q8.0312 -2.0938 7.9844 -1.7969 Q7.9375 -1.5 7.9375 -1.2969 Q7.9375 -0.8906 8.1641 -0.7109 Q8.3906 -0.5312 9.0312 -0.4844 L8.9375 0 L6.1406 0 L6.7656 -2.4531 L6.625 -2.4844 Q5.6875 -1.125 4.8516 -0.4922 Q4.0156 0.1406 3.0781 0.1406 Q2 0.1406 1.4141 -0.6641 Q0.8281 -1.4688 0.8281 -2.9375 Q0.8281 -3.875 1.0391 -4.8203 Q1.25 -5.7656 1.6875 -6.6094 Q2.125 -7.4531 2.7266 -8.0938 Q3.3281 -8.7344 4.125 -9.1172 Q4.9219 -9.5 5.8594 -9.5 Q6.4531 -9.5 6.9609 -9.3828 Q7.4688 -9.2656 7.9844 -8.9531 L8.5 -11.2188 ZM7.2812 -5.9531 Q7.4375 -6.6562 7.4375 -7.2812 Q7.4375 -8.0312 7.1094 -8.3828 Q6.7812 -8.7344 6.0312 -8.7344 Q5.625 -8.7344 5.2578 -8.6016 Q4.8906 -8.4688 4.5078 -8.1641 Q4.125 -7.8594 3.7734 -7.3594 Q3.4219 -6.8594 3.1406 -6.1484 Q2.8594 -5.4375 2.7031 -4.6172 Q2.5469 -3.7969 2.5469 -3.0312 Q2.5469 -2.0156 2.8281 -1.5078 Q3.1094 -1 3.7656 -1 Q4.0625 -1 4.3906 -1.1406 Q4.7188 -1.2812 5.1172 -1.6484 Q5.5156 -2.0156 6.0312 -2.7188 Q6.4844 -3.375 6.75 -4.0156 Q7.0156 -4.6562 7.2031 -5.5312 L7.2812 -5.9531 Z" stroke="none"/></g><g text-rendering="optimizeLegibility" transform="translate(238.4375,29)" color-rendering="optimizeQuality" color-interpolation="linearRGB" image-rendering="optimizeQuality"><path d="M7.2188 4.25 Q5.5625 4.25 4.5078 3.75 Q3.4531 3.25 2.8672 2.2344 Q2.2812 1.2188 2.0234 -0.4141 Q1.7656 -2.0469 1.7656 -4.8438 Q1.7656 -7.625 2.0234 -9.2656 Q2.2812 -10.9062 2.8672 -11.9453 Q3.4531 -12.9844 4.5078 -13.5 Q5.5625 -14.0156 7.2188 -14.0156 L7.2188 -13.2188 Q6.5312 -13.2188 6 -13.0938 Q5.4062 -12.9531 4.9844 -12.5625 Q4.5156 -12.1406 4.2344 -11.375 Q3.8906 -10.4688 3.7188 -8.9844 Q3.5469 -7.4062 3.5469 -4.9219 Q3.5469 -2.7188 3.6953 -1.1797 Q3.8438 0.3594 4.1875 1.3281 Q4.4531 2.1562 4.8594 2.6094 Q5.2188 3.0156 5.7188 3.2188 Q6.2969 3.4531 7.2188 3.4531 L7.2188 4.25 Z" stroke="none"/></g><g text-rendering="optimizeLegibility" transform="translate(247.6562,29)" color-rendering="optimizeQuality" color-interpolation="linearRGB" image-rendering="optimizeQuality"><path d="M9.125 -9.3438 L9.3906 -8.8438 Q9.0312 -7.9844 8.8359 -7.5625 Q8.6406 -7.1406 8.3125 -6.5078 Q7.9844 -5.875 7.5781 -5.1875 Q7.1719 -4.5 6.6562 -3.7031 Q6.1406 -2.9062 5.4844 -1.9609 Q4.8281 -1.0156 3.9375 0.1562 L2.7188 0.1562 L1.8125 -7.2188 Q1.7188 -7.9375 1.6172 -8.2422 Q1.5156 -8.5469 1.3203 -8.6875 Q1.125 -8.8281 0.7031 -8.8594 L0.8125 -9.3438 L3.3281 -9.3438 L4.0625 -1.5781 Q5.75 -3.8906 6.5547 -5.4688 Q7.3594 -7.0469 7.3594 -8.0312 Q7.3594 -8.5 7.1641 -8.6641 Q6.9688 -8.8281 6.5 -8.8594 L6.6094 -9.3438 L9.125 -9.3438 Z" stroke="none"/></g><g text-rendering="optimizeLegibility" transform="translate(257.0469,29)" color-rendering="optimizeQuality" color-interpolation="linearRGB" image-rendering="optimizeQuality"><path d="M4 0.1719 Q2.4844 0.1719 1.6484 -0.6797 Q0.8125 -1.5312 0.8125 -3.125 Q0.8125 -3.7188 0.9531 -4.5 Q1.1406 -5.5312 1.4844 -6.3125 Q1.9219 -7.3125 2.6094 -8.0234 Q3.2969 -8.7344 4.1953 -9.1172 Q5.0938 -9.5 6.1094 -9.5 Q7.2344 -9.5 7.9531 -9.0703 Q8.6719 -8.6406 8.9922 -7.8984 Q9.3125 -7.1562 9.3125 -6.1875 Q9.3125 -5.3281 9.0781 -4.3438 Q8.7188 -2.8906 8.0469 -1.8828 Q7.375 -0.875 6.3594 -0.3516 Q5.3438 0.1719 4 0.1719 ZM2.5156 -2.7031 Q2.5156 -1.625 2.9609 -1.1172 Q3.4062 -0.6094 4.3125 -0.6094 Q5.2656 -0.6094 6.0078 -1.4688 Q6.75 -2.3281 7.1797 -3.875 Q7.6094 -5.4219 7.6094 -6.5938 Q7.6094 -7.6406 7.1953 -8.1797 Q6.7812 -8.7188 5.9219 -8.7188 Q4.9062 -8.7188 4.1484 -7.8672 Q3.3906 -7.0156 2.9531 -5.4297 Q2.5156 -3.8438 2.5156 -2.7031 Z" stroke="none"/></g><g text-rendering="optimizeLegibility" transform="translate(266.3594,29)" color-rendering="optimizeQuality" color-interpolation="linearRGB" image-rendering="optimizeQuality"><path d="M4.9375 -13.9688 L5.5156 -13.9688 L2.9688 -2.4375 Q2.8594 -1.9688 2.8281 -1.7344 Q2.7969 -1.5 2.7969 -1.3281 Q2.7969 -1.0312 2.8984 -0.8672 Q3 -0.7031 3.2031 -0.6172 Q3.4062 -0.5312 3.875 -0.4844 L3.7969 0 L0.75 0 L3.2656 -11.2188 Q3.375 -11.6406 3.4141 -11.8594 Q3.4531 -12.0781 3.4688 -12.2734 Q3.4844 -12.4688 3.4844 -12.6094 Q3.4844 -12.9062 3.375 -13.0547 Q3.2656 -13.2031 3.0703 -13.2734 Q2.875 -13.3438 2.3594 -13.375 L2.4688 -13.875 L4.9375 -13.9688 Z" stroke="none"/></g><g text-rendering="optimizeLegibility" transform="translate(273.4531,29)" color-rendering="optimizeQuality" color-interpolation="linearRGB" image-rendering="optimizeQuality"><path d="M0.4219 -14.0156 Q2.0781 -14.0156 3.1328 -13.5156 Q4.1875 -13.0156 4.7734 -12 Q5.3594 -10.9844 5.6172 -9.3516 Q5.875 -7.7188 5.875 -4.9219 Q5.875 -2.1562 5.6172 -0.5078 Q5.3594 1.1406 4.7734 2.1797 Q4.1875 3.2188 3.1328 3.7344 Q2.0781 4.25 0.4219 4.25 L0.4219 3.4531 Q1.1094 3.4531 1.625 3.3281 Q2.2344 3.1875 2.6406 2.7969 Q3.1094 2.375 3.4062 1.6094 Q3.75 0.7031 3.9219 -0.7812 Q4.0938 -2.3594 4.0938 -4.8438 Q4.0938 -7.0469 3.9453 -8.5859 Q3.7969 -10.125 3.4531 -11.0938 Q3.1875 -11.9219 2.7812 -12.375 Q2.4062 -12.7812 1.9219 -12.9844 Q1.3438 -13.2188 0.4219 -13.2188 L0.4219 -14.0156 Z" stroke="none"/></g><g text-rendering="optimizeLegibility" transform="translate(286.1094,29)" color-rendering="optimizeQuality" color-interpolation="linearRGB" image-rendering="optimizeQuality"><path d="M1.2188 -7.0625 L1.2188 -8.4219 L9.8594 -8.4219 L9.8594 -7.0625 L1.2188 -7.0625 ZM1.2188 -3.0156 L1.2188 -4.3594 L9.8594 -4.3594 L9.8594 -3.0156 L1.2188 -3.0156 Z" stroke="none"/></g><g text-rendering="optimizeLegibility" transform="translate(297.9688,29)" color-rendering="optimizeQuality" color-interpolation="linearRGB" image-rendering="optimizeQuality"><path d="M12.75 -1.6562 Q12.125 -1 11.6016 -0.6328 Q11.0781 -0.2656 10.4531 -0.0547 Q9.8281 0.1562 9.0781 0.1562 Q7.0625 0.1562 6.0391 -1.0469 Q5.0156 -2.25 5.0156 -4.6094 Q5.0156 -6.0625 5.5391 -7.1797 Q6.0625 -8.2969 7.0312 -8.8984 Q8 -9.5 9.25 -9.5 Q10.2344 -9.5 10.9297 -9.1875 Q11.625 -8.875 12.0391 -8.3359 Q12.4531 -7.7969 12.6875 -6.9688 Q12.9219 -6.1406 12.9531 -4.8125 L6.7969 -4.8125 L6.7969 -4.6406 Q6.7969 -3.4844 7.0547 -2.7031 Q7.3125 -1.9219 7.9062 -1.4766 Q8.5 -1.0312 9.4375 -1.0312 Q10.2344 -1.0312 10.875 -1.3281 Q11.5156 -1.625 12.1562 -2.2969 L12.75 -1.6562 ZM11.1094 -5.625 Q11.0469 -6.6875 10.8438 -7.3516 Q10.6406 -8.0156 10.2344 -8.375 Q9.8281 -8.7344 9.1562 -8.7344 Q8.1562 -8.7344 7.5547 -7.9297 Q6.9531 -7.125 6.8438 -5.625 L11.1094 -5.625 ZM17.5625 -2.4375 Q17.5625 -1.6094 17.6406 -1.2812 Q17.7188 -0.9531 17.9375 -0.7812 Q18.1562 -0.6094 18.6562 -0.4844 L18.6562 0 L14.7656 0 L14.7656 -0.4844 Q15.2656 -0.6094 15.4531 -0.7422 Q15.6406 -0.875 15.7266 -1.0703 Q15.8125 -1.2656 15.8438 -1.5938 Q15.875 -1.9219 15.875 -2.4375 L15.875 -10.6094 Q15.875 -11.5469 15.8594 -11.9219 Q15.8438 -12.2969 15.7812 -12.5547 Q15.7188 -12.8125 15.6094 -12.9609 Q15.5 -13.1094 15.3047 -13.1953 Q15.1094 -13.2812 14.6094 -13.375 L14.6094 -13.875 L16.9688 -13.9688 L17.5625 -13.9688 L17.5625 -2.4375 ZM27.75 -1.6562 Q27.125 -1 26.6016 -0.6328 Q26.0781 -0.2656 25.4531 -0.0547 Q24.8281 0.1562 24.0781 0.1562 Q22.0625 0.1562 21.0391 -1.0469 Q20.0156 -2.25 20.0156 -4.6094 Q20.0156 -6.0625 20.5391 -7.1797 Q21.0625 -8.2969 22.0312 -8.8984 Q23 -9.5 24.25 -9.5 Q25.2344 -9.5 25.9297 -9.1875 Q26.625 -8.875 27.0391 -8.3359 Q27.4531 -7.7969 27.6875 -6.9688 Q27.9219 -6.1406 27.9531 -4.8125 L21.7969 -4.8125 L21.7969 -4.6406 Q21.7969 -3.4844 22.0547 -2.7031 Q22.3125 -1.9219 22.9062 -1.4766 Q23.5 -1.0312 24.4375 -1.0312 Q25.2344 -1.0312 25.875 -1.3281 Q26.5156 -1.625 27.1562 -2.2969 L27.75 -1.6562 ZM26.1094 -5.625 Q26.0469 -6.6875 25.8438 -7.3516 Q25.6406 -8.0156 25.2344 -8.375 Q24.8281 -8.7344 24.1562 -8.7344 Q23.1562 -8.7344 22.5547 -7.9297 Q21.9531 -7.125 21.8438 -5.625 L26.1094 -5.625 ZM32.5781 -7.8281 L32.7188 -7.7969 Q33.3125 -8.375 33.6875 -8.6719 Q34.0625 -8.9688 34.4141 -9.1562 Q34.7656 -9.3438 35.0703 -9.4219 Q35.375 -9.5 35.7031 -9.5 Q36.6719 -9.5 37.2891 -9.0469 Q37.9062 -8.5938 38.1406 -7.6719 Q38.875 -8.4062 39.3281 -8.7578 Q39.7812 -9.1094 40.2578 -9.3047 Q40.7344 -9.5 41.2812 -9.5 Q41.9375 -9.5 42.4062 -9.3047 Q42.875 -9.1094 43.2031 -8.7188 Q43.5312 -8.3281 43.6797 -7.7266 Q43.8281 -7.125 43.8281 -6.125 L43.8281 -2.4375 Q43.8281 -1.7031 43.8828 -1.4219 Q43.9375 -1.1406 44.0312 -0.9844 Q44.125 -0.8281 44.3047 -0.7109 Q44.4844 -0.5938 44.9219 -0.4844 L44.9219 0 L41.0938 0 L41.0938 -0.4844 Q41.4688 -0.5938 41.6328 -0.6797 Q41.7969 -0.7656 41.9141 -0.9219 Q42.0312 -1.0781 42.0938 -1.4062 Q42.1562 -1.7344 42.1562 -2.4062 L42.1562 -4.9688 Q42.1562 -5.7969 42.1094 -6.3359 Q42.0625 -6.875 41.9688 -7.1953 Q41.875 -7.5156 41.75 -7.7031 Q41.625 -7.8906 41.4531 -8.0312 Q41.2812 -8.1719 41.0625 -8.25 Q40.8438 -8.3281 40.4688 -8.3281 Q40.0781 -8.3281 39.7422 -8.1719 Q39.4062 -8.0156 39.0078 -7.6406 Q38.6094 -7.2656 38.4375 -6.8906 Q38.2656 -6.5156 38.2656 -6 L38.2656 -2.4375 Q38.2656 -1.7031 38.3125 -1.4219 Q38.3594 -1.1406 38.4531 -0.9844 Q38.5469 -0.8281 38.7266 -0.7109 Q38.9062 -0.5938 39.3594 -0.4844 L39.3594 0 L35.5156 0 L35.5156 -0.4844 Q35.8906 -0.5938 36.0625 -0.6797 Q36.2344 -0.7656 36.3438 -0.9219 Q36.4531 -1.0781 36.5156 -1.4062 Q36.5781 -1.7344 36.5781 -2.4062 L36.5781 -4.9688 Q36.5781 -5.8281 36.5312 -6.375 Q36.4844 -6.9219 36.3828 -7.2578 Q36.2812 -7.5938 36.1172 -7.7969 Q35.9531 -8 35.7891 -8.1094 Q35.625 -8.2188 35.3984 -8.2734 Q35.1719 -8.3281 34.8906 -8.3281 Q34.4844 -8.3281 34.1328 -8.1406 Q33.7812 -7.9531 33.4141 -7.6172 Q33.0469 -7.2812 32.8672 -6.9062 Q32.6875 -6.5312 32.6875 -6.1094 L32.6875 -2.4375 Q32.6875 -1.8906 32.7109 -1.5938 Q32.7344 -1.2969 32.8047 -1.1328 Q32.875 -0.9688 32.9688 -0.8672 Q33.0625 -0.7656 33.2422 -0.6719 Q33.4219 -0.5781 33.7812 -0.4844 L33.7812 0 L29.9531 0 L29.9531 -0.4844 Q30.3281 -0.5938 30.4922 -0.6797 Q30.6562 -0.7656 30.7734 -0.9219 Q30.8906 -1.0781 30.9453 -1.4062 Q31 -1.7344 31 -2.4062 L31 -6.6719 Q31 -7.2969 30.9844 -7.6797 Q30.9688 -8.0625 30.8516 -8.2891 Q30.7344 -8.5156 30.4922 -8.625 Q30.25 -8.7344 29.8125 -8.8125 L29.8125 -9.3438 L32.0938 -9.4219 L32.6875 -9.4219 L32.5781 -7.8281 ZM54.75 -1.6562 Q54.125 -1 53.6016 -0.6328 Q53.0781 -0.2656 52.4531 -0.0547 Q51.8281 0.1562 51.0781 0.1562 Q49.0625 0.1562 48.0391 -1.0469 Q47.0156 -2.25 47.0156 -4.6094 Q47.0156 -6.0625 47.5391 -7.1797 Q48.0625 -8.2969 49.0312 -8.8984 Q50 -9.5 51.25 -9.5 Q52.2344 -9.5 52.9297 -9.1875 Q53.625 -8.875 54.0391 -8.3359 Q54.4531 -7.7969 54.6875 -6.9688 Q54.9219 -6.1406 54.9531 -4.8125 L48.7969 -4.8125 L48.7969 -4.6406 Q48.7969 -3.4844 49.0547 -2.7031 Q49.3125 -1.9219 49.9062 -1.4766 Q50.5 -1.0312 51.4375 -1.0312 Q52.2344 -1.0312 52.875 -1.3281 Q53.5156 -1.625 54.1562 -2.2969 L54.75 -1.6562 ZM53.1094 -5.625 Q53.0469 -6.6875 52.8438 -7.3516 Q52.6406 -8.0156 52.2344 -8.375 Q51.8281 -8.7344 51.1562 -8.7344 Q50.1562 -8.7344 49.5547 -7.9297 Q48.9531 -7.125 48.8438 -5.625 L53.1094 -5.625 ZM66.4531 0 L62.6094 0 L62.6094 -0.4844 Q63 -0.5938 63.1641 -0.6797 Q63.3281 -0.7656 63.4375 -0.9219 Q63.5469 -1.0781 63.6094 -1.4062 Q63.6719 -1.7344 63.6719 -2.4062 L63.6719 -4.9688 Q63.6719 -5.6406 63.6328 -6.2031 Q63.5938 -6.7656 63.5 -7.1172 Q63.4062 -7.4688 63.2812 -7.6719 Q63.1562 -7.875 62.9688 -8.0156 Q62.7812 -8.1562 62.5469 -8.2422 Q62.3125 -8.3281 61.9375 -8.3281 Q61.5625 -8.3281 61.2188 -8.1719 Q60.875 -8.0156 60.4609 -7.6484 Q60.0469 -7.2812 59.8672 -6.9141 Q59.6875 -6.5469 59.6875 -6.0781 L59.6875 -2.4375 Q59.6875 -1.6094 59.7656 -1.2812 Q59.8438 -0.9531 60.0625 -0.7812 Q60.2812 -0.6094 60.7812 -0.4844 L60.7812 0 L56.9531 0 L56.9531 -0.4844 Q57.3281 -0.5938 57.4922 -0.6797 Q57.6562 -0.7656 57.7656 -0.9219 Q57.875 -1.0781 57.9375 -1.4062 Q58 -1.7344 58 -2.4062 L58 -6.6719 Q58 -7.2969 57.9844 -7.6797 Q57.9688 -8.0625 57.8516 -8.2891 Q57.7344 -8.5156 57.4922 -8.625 Q57.25 -8.7344 56.8125 -8.8125 L56.8125 -9.3438 L59.0938 -9.4219 L59.6875 -9.4219 L59.5781 -7.8281 L59.7188 -7.7969 Q60.4375 -8.5312 60.8828 -8.8438 Q61.3281 -9.1562 61.7812 -9.3281 Q62.2344 -9.5 62.75 -9.5 Q63.2812 -9.5 63.6953 -9.375 Q64.1094 -9.25 64.4219 -8.9922 Q64.7344 -8.7344 64.9453 -8.3594 Q65.1562 -7.9844 65.2578 -7.4609 Q65.3594 -6.9375 65.3594 -6.125 L65.3594 -2.4375 Q65.3594 -1.7656 65.3984 -1.4609 Q65.4375 -1.1562 65.5312 -0.9922 Q65.625 -0.8281 65.8125 -0.7188 Q66 -0.6094 66.4531 -0.4844 L66.4531 0 ZM67.3594 -8.8438 Q67.8438 -8.9219 68.1484 -9.1172 Q68.4531 -9.3125 68.625 -9.625 Q68.7969 -9.9375 68.8984 -10.3984 Q69 -10.8594 69.0938 -11.75 L70.4844 -11.75 L70.4844 -9.3438 L73.6406 -9.3438 L73.6406 -8.3438 L70.4844 -8.3438 L70.4844 -4 Q70.4844 -3.0625 70.5625 -2.5 Q70.6406 -1.9375 70.8594 -1.6172 Q71.0781 -1.2969 71.3516 -1.1641 Q71.625 -1.0312 72.0469 -1.0312 Q72.4375 -1.0312 72.7812 -1.1875 Q73.125 -1.3438 73.4531 -1.6562 L73.8906 -1.125 Q73.2031 -0.4531 72.5859 -0.1484 Q71.9688 0.1562 71.2969 0.1562 Q70.0312 0.1562 69.4219 -0.5938 Q68.8125 -1.3438 68.8125 -2.9375 L68.8125 -8.3438 L67.3594 -8.3438 L67.3594 -8.8438 ZM78.3594 -8.8438 Q78.8438 -8.9219 79.1484 -9.1172 Q79.4531 -9.3125 79.625 -9.625 Q79.7969 -9.9375 79.8984 -10.3984 Q80 -10.8594 80.0938 -11.75 L81.4844 -11.75 L81.4844 -9.3438 L84.6406 -9.3438 L84.6406 -8.3438 L81.4844 -8.3438 L81.4844 -4 Q81.4844 -3.0625 81.5625 -2.5 Q81.6406 -1.9375 81.8594 -1.6172 Q82.0781 -1.2969 82.3516 -1.1641 Q82.625 -1.0312 83.0469 -1.0312 Q83.4375 -1.0312 83.7812 -1.1875 Q84.125 -1.3438 84.4531 -1.6562 L84.8906 -1.125 Q84.2031 -0.4531 83.5859 -0.1484 Q82.9688 0.1562 82.2969 0.1562 Q81.0312 0.1562 80.4219 -0.5938 Q79.8125 -1.3438 79.8125 -2.9375 L79.8125 -8.3438 L78.3594 -8.3438 L78.3594 -8.8438 ZM88.5625 -7.7969 L88.6094 -7.7969 Q89.3594 -8.5625 89.8047 -8.875 Q90.25 -9.1875 90.6875 -9.3438 Q91.125 -9.5 91.625 -9.5 Q92.1562 -9.5 92.5781 -9.3672 Q93 -9.2344 93.3203 -8.9766 Q93.6406 -8.7188 93.8359 -8.3438 Q94.0312 -7.9688 94.1328 -7.4453 Q94.2344 -6.9219 94.2344 -6.125 L94.2344 -2.4375 Q94.2344 -1.5938 94.3047 -1.2891 Q94.375 -0.9844 94.5625 -0.8125 Q94.75 -0.6406 95.3281 -0.4844 L95.3281 0 L91.4844 0 L91.4844 -0.4844 Q91.8594 -0.5938 92.0312 -0.6797 Q92.2031 -0.7656 92.3125 -0.9219 Q92.4219 -1.0781 92.4844 -1.4062 Q92.5469 -1.7344 92.5469 -2.4062 L92.5469 -4.9688 Q92.5469 -6.2656 92.4141 -6.9531 Q92.2812 -7.6406 91.8984 -7.9844 Q91.5156 -8.3281 90.8281 -8.3281 Q90.4375 -8.3281 90.125 -8.1875 Q89.8125 -8.0469 89.3984 -7.6953 Q88.9844 -7.3438 88.7734 -6.9766 Q88.5625 -6.6094 88.5625 -6.1875 L88.5625 -2.4375 Q88.5625 -1.7812 88.6016 -1.5 Q88.6406 -1.2188 88.7344 -1.0234 Q88.8281 -0.8281 89.0312 -0.7109 Q89.2344 -0.5938 89.6562 -0.4844 L89.6562 0 L85.7812 0 L85.7812 -0.4844 Q86.2188 -0.5938 86.3984 -0.7031 Q86.5781 -0.8125 86.6797 -0.9766 Q86.7812 -1.1406 86.8359 -1.4531 Q86.8906 -1.7656 86.8906 -2.4375 L86.8906 -10.6094 Q86.8906 -11.5469 86.875 -11.9219 Q86.8594 -12.2969 86.7969 -12.5547 Q86.7344 -12.8125 86.6172 -12.9609 Q86.5 -13.1094 86.3125 -13.1953 Q86.125 -13.2812 85.625 -13.375 L85.625 -13.875 L87.9844 -13.9688 L88.5625 -13.9688 L88.5625 -7.7969 ZM104.75 -1.6562 Q104.125 -1 103.6016 -0.6328 Q103.0781 -0.2656 102.4531 -0.0547 Q101.8281 0.1562 101.0781 0.1562 Q99.0625 0.1562 98.0391 -1.0469 Q97.0156 -2.25 97.0156 -4.6094 Q97.0156 -6.0625 97.5391 -7.1797 Q98.0625 -8.2969 99.0312 -8.8984 Q100 -9.5 101.25 -9.5 Q102.2344 -9.5 102.9297 -9.1875 Q103.625 -8.875 104.0391 -8.3359 Q104.4531 -7.7969 104.6875 -6.9688 Q104.9219 -6.1406 104.9531 -4.8125 L98.7969 -4.8125 L98.7969 -4.6406 Q98.7969 -3.4844 99.0547 -2.7031 Q99.3125 -1.9219 99.9062 -1.4766 Q100.5 -1.0312 101.4375 -1.0312 Q102.2344 -1.0312 102.875 -1.3281 Q103.5156 -1.625 104.1562 -2.2969 L104.75 -1.6562 ZM103.1094 -5.625 Q103.0469 -6.6875 102.8438 -7.3516 Q102.6406 -8.0156 102.2344 -8.375 Q101.8281 -8.7344 101.1562 -8.7344 Q100.1562 -8.7344 99.5547 -7.9297 Q98.9531 -7.125 98.8438 -5.625 L103.1094 -5.625 ZM109.5781 -7.7188 L109.7188 -7.6875 Q110.2656 -8.3438 110.7188 -8.7188 Q111.1719 -9.0938 111.7031 -9.2969 Q112.2344 -9.5 112.9219 -9.5 Q113.4844 -9.5 113.9375 -9.4375 L113.9375 -7.2031 L112.8438 -7.2031 Q112.6094 -7.7188 112.3438 -7.9609 Q112.0781 -8.2031 111.6094 -8.2031 Q111.2656 -8.2031 110.9219 -8 Q110.5781 -7.7969 110.25 -7.4062 Q109.9219 -7.0156 109.8047 -6.6719 Q109.6875 -6.3281 109.6875 -5.8594 L109.6875 -2.4375 Q109.6875 -1.5469 109.7891 -1.2109 Q109.8906 -0.875 110.1406 -0.7188 Q110.3906 -0.5625 110.8906 -0.4844 L110.8906 0 L106.9531 0 L106.9531 -0.4844 Q107.3281 -0.5938 107.4922 -0.6797 Q107.6562 -0.7656 107.7734 -0.9219 Q107.8906 -1.0781 107.9453 -1.4062 Q108 -1.7344 108 -2.4062 L108 -6.6719 Q108 -7.2969 107.9844 -7.6797 Q107.9688 -8.0625 107.8516 -8.2891 Q107.7344 -8.5156 107.4922 -8.625 Q107.25 -8.7344 106.8125 -8.8125 L106.8125 -9.3281 L109.0938 -9.4219 L109.6875 -9.4219 L109.5781 -7.7188 ZM117.5781 -7.8281 L117.7188 -7.7969 Q118.3125 -8.375 118.6875 -8.6719 Q119.0625 -8.9688 119.4141 -9.1562 Q119.7656 -9.3438 120.0703 -9.4219 Q120.375 -9.5 120.7031 -9.5 Q121.6719 -9.5 122.2891 -9.0469 Q122.9062 -8.5938 123.1406 -7.6719 Q123.875 -8.4062 124.3281 -8.7578 Q124.7812 -9.1094 125.2578 -9.3047 Q125.7344 -9.5 126.2812 -9.5 Q126.9375 -9.5 127.4062 -9.3047 Q127.875 -9.1094 128.2031 -8.7188 Q128.5312 -8.3281 128.6797 -7.7266 Q128.8281 -7.125 128.8281 -6.125 L128.8281 -2.4375 Q128.8281 -1.7031 128.8828 -1.4219 Q128.9375 -1.1406 129.0312 -0.9844 Q129.125 -0.8281 129.3047 -0.7109 Q129.4844 -0.5938 129.9219 -0.4844 L129.9219 0 L126.0938 0 L126.0938 -0.4844 Q126.4688 -0.5938 126.6328 -0.6797 Q126.7969 -0.7656 126.9141 -0.9219 Q127.0312 -1.0781 127.0938 -1.4062 Q127.1562 -1.7344 127.1562 -2.4062 L127.1562 -4.9688 Q127.1562 -5.7969 127.1094 -6.3359 Q127.0625 -6.875 126.9688 -7.1953 Q126.875 -7.5156 126.75 -7.7031 Q126.625 -7.8906 126.4531 -8.0312 Q126.2812 -8.1719 126.0625 -8.25 Q125.8438 -8.3281 125.4688 -8.3281 Q125.0781 -8.3281 124.7422 -8.1719 Q124.4062 -8.0156 124.0078 -7.6406 Q123.6094 -7.2656 123.4375 -6.8906 Q123.2656 -6.5156 123.2656 -6 L123.2656 -2.4375 Q123.2656 -1.7031 123.3125 -1.4219 Q123.3594 -1.1406 123.4531 -0.9844 Q123.5469 -0.8281 123.7266 -0.7109 Q123.9062 -0.5938 124.3594 -0.4844 L124.3594 0 L120.5156 0 L120.5156 -0.4844 Q120.8906 -0.5938 121.0625 -0.6797 Q121.2344 -0.7656 121.3438 -0.9219 Q121.4531 -1.0781 121.5156 -1.4062 Q121.5781 -1.7344 121.5781 -2.4062 L121.5781 -4.9688 Q121.5781 -5.8281 121.5312 -6.375 Q121.4844 -6.9219 121.3828 -7.2578 Q121.2812 -7.5938 121.1172 -7.7969 Q120.9531 -8 120.7891 -8.1094 Q120.625 -8.2188 120.3984 -8.2734 Q120.1719 -8.3281 119.8906 -8.3281 Q119.4844 -8.3281 119.1328 -8.1406 Q118.7812 -7.9531 118.4141 -7.6172 Q118.0469 -7.2812 117.8672 -6.9062 Q117.6875 -6.5312 117.6875 -6.1094 L117.6875 -2.4375 Q117.6875 -1.8906 117.7109 -1.5938 Q117.7344 -1.2969 117.8047 -1.1328 Q117.875 -0.9688 117.9688 -0.8672 Q118.0625 -0.7656 118.2422 -0.6719 Q118.4219 -0.5781 118.7812 -0.4844 L118.7812 0 L114.9531 0 L114.9531 -0.4844 Q115.3281 -0.5938 115.4922 -0.6797 Q115.6562 -0.7656 115.7734 -0.9219 Q115.8906 -1.0781 115.9453 -1.4062 Q116 -1.7344 116 -2.4062 L116 -6.6719 Q116 -7.2969 115.9844 -7.6797 Q115.9688 -8.0625 115.8516 -8.2891 Q115.7344 -8.5156 115.4922 -8.625 Q115.25 -8.7344 114.8125 -8.8125 L114.8125 -9.3438 L117.0938 -9.4219 L117.6875 -9.4219 L117.5781 -7.8281 ZM136.2031 0.1562 Q134.1719 0.1562 133.1016 -1.0391 Q132.0312 -2.2344 132.0312 -4.5781 Q132.0312 -6.1875 132.5938 -7.3047 Q133.1562 -8.4219 134.1328 -8.9609 Q135.1094 -9.5 136.3594 -9.5 Q138.4375 -9.5 139.5156 -8.2891 Q140.5938 -7.0781 140.5938 -4.7969 Q140.5938 -3.1719 140.0547 -2.0625 Q139.5156 -0.9531 138.5312 -0.3984 Q137.5469 0.1562 136.2031 0.1562 ZM133.875 -4.7812 Q133.875 -2.7812 134.5156 -1.6953 Q135.1562 -0.6094 136.3438 -0.6094 Q137 -0.6094 137.4609 -0.9297 Q137.9219 -1.25 138.2031 -1.7891 Q138.4844 -2.3281 138.6172 -3.0312 Q138.75 -3.7344 138.75 -4.5156 Q138.75 -5.9531 138.4297 -6.8984 Q138.1094 -7.8438 137.5625 -8.2891 Q137.0156 -8.7344 136.3125 -8.7344 Q135.125 -8.7344 134.5 -7.7109 Q133.875 -6.6875 133.875 -4.7812 ZM147.5938 -4.3906 L143.0625 -4.3906 L143.0625 -5.9062 L147.5938 -5.9062 L147.5938 -4.3906 ZM152.5938 -0.2969 L152.5938 1.7656 Q152.5938 2.4062 152.6406 2.7188 Q152.6875 3.0312 152.7969 3.2109 Q152.9062 3.3906 153.1172 3.5078 Q153.3281 3.625 153.7969 3.7188 L153.7969 4.2031 L149.8125 4.2031 L149.8125 3.7188 Q150.1562 3.625 150.3828 3.5234 Q150.6094 3.4219 150.7266 3.2188 Q150.8438 3.0156 150.8828 2.6719 Q150.9219 2.3281 150.9219 1.7656 L150.9219 -6.6094 Q150.9219 -7.3125 150.8984 -7.6094 Q150.875 -7.9062 150.8203 -8.1016 Q150.7656 -8.2969 150.6484 -8.4297 Q150.5312 -8.5625 150.3438 -8.6484 Q150.1562 -8.7344 149.7188 -8.8125 L149.7188 -9.3438 L152.0156 -9.4219 L152.6094 -9.4219 L152.4844 -7.8281 L152.625 -7.7969 Q153.2344 -8.4062 153.5859 -8.6875 Q153.9375 -8.9688 154.3125 -9.1562 Q154.6875 -9.3438 155.0312 -9.4219 Q155.375 -9.5 155.7656 -9.5 Q157.375 -9.5 158.2422 -8.2891 Q159.1094 -7.0781 159.1094 -4.75 Q159.1094 -3.1406 158.6172 -2.0469 Q158.125 -0.9531 157.1953 -0.3984 Q156.2656 0.1562 154.9844 0.1562 Q154.25 0.1562 153.6641 0.0312 Q153.0781 -0.0938 152.5938 -0.2969 ZM152.5938 -3.5156 Q152.5938 -2.5781 152.7109 -2.0703 Q152.8281 -1.5625 153.125 -1.2422 Q153.4219 -0.9219 153.8281 -0.7656 Q154.2344 -0.6094 154.9062 -0.6094 Q156.0781 -0.6094 156.6719 -1.5938 Q157.2656 -2.5781 157.2656 -4.5 Q157.2656 -8.3281 155.0312 -8.3281 Q154.4844 -8.3281 154.0938 -8.1562 Q153.7031 -7.9844 153.3125 -7.6016 Q152.9219 -7.2188 152.7578 -6.8594 Q152.5938 -6.5 152.5938 -6.0938 L152.5938 -3.5156 ZM163.7344 -13.1719 L163.7344 -11.2656 L161.9375 -11.2656 L161.9375 -13.1719 L163.7344 -13.1719 ZM160.9531 -0.4844 Q161.3281 -0.5938 161.4922 -0.6797 Q161.6562 -0.7656 161.7656 -0.9219 Q161.875 -1.0781 161.9375 -1.4062 Q162 -1.7344 162 -2.4062 L162 -6.6719 Q162 -7.2969 161.9844 -7.6797 Q161.9688 -8.0625 161.8516 -8.2891 Q161.7344 -8.5156 161.4922 -8.625 Q161.25 -8.7344 160.8125 -8.8125 L160.8125 -9.3438 L163.0938 -9.4219 L163.6875 -9.4219 L163.6875 -2.4375 Q163.6875 -1.6094 163.7656 -1.2812 Q163.8438 -0.9531 164.0625 -0.7812 Q164.2812 -0.6094 164.7812 -0.4844 L164.7812 0 L160.9531 0 L160.9531 -0.4844 ZM174.75 -1.6562 Q174.125 -1 173.6016 -0.6328 Q173.0781 -0.2656 172.4531 -0.0547 Q171.8281 0.1562 171.0781 0.1562 Q169.0625 0.1562 168.0391 -1.0469 Q167.0156 -2.25 167.0156 -4.6094 Q167.0156 -6.0625 167.5391 -7.1797 Q168.0625 -8.2969 169.0312 -8.8984 Q170 -9.5 171.25 -9.5 Q172.2344 -9.5 172.9297 -9.1875 Q173.625 -8.875 174.0391 -8.3359 Q174.4531 -7.7969 174.6875 -6.9688 Q174.9219 -6.1406 174.9531 -4.8125 L168.7969 -4.8125 L168.7969 -4.6406 Q168.7969 -3.4844 169.0547 -2.7031 Q169.3125 -1.9219 169.9062 -1.4766 Q170.5 -1.0312 171.4375 -1.0312 Q172.2344 -1.0312 172.875 -1.3281 Q173.5156 -1.625 174.1562 -2.2969 L174.75 -1.6562 ZM173.1094 -5.625 Q173.0469 -6.6875 172.8438 -7.3516 Q172.6406 -8.0156 172.2344 -8.375 Q171.8281 -8.7344 171.1562 -8.7344 Q170.1562 -8.7344 169.5547 -7.9297 Q168.9531 -7.125 168.8438 -5.625 L173.1094 -5.625 ZM184.3125 -2.8281 L184.3125 0 L176.7969 0 L176.7969 -0.4844 L182.1406 -8.5469 L179.5 -8.5469 Q179.0156 -8.5469 178.7266 -8.3672 Q178.4375 -8.1875 178.1875 -7.7812 Q177.9375 -7.375 177.7031 -6.6875 L176.8438 -6.6875 L176.8438 -9.3438 L184.25 -9.3438 L184.25 -8.8438 L178.9062 -0.7969 L181.4844 -0.7969 Q181.9844 -0.7969 182.2422 -0.875 Q182.5 -0.9531 182.6797 -1.125 Q182.8594 -1.2969 183.0391 -1.6641 Q183.2188 -2.0312 183.4688 -2.8281 L184.3125 -2.8281 ZM190.2031 0.1562 Q188.1719 0.1562 187.1016 -1.0391 Q186.0312 -2.2344 186.0312 -4.5781 Q186.0312 -6.1875 186.5938 -7.3047 Q187.1562 -8.4219 188.1328 -8.9609 Q189.1094 -9.5 190.3594 -9.5 Q192.4375 -9.5 193.5156 -8.2891 Q194.5938 -7.0781 194.5938 -4.7969 Q194.5938 -3.1719 194.0547 -2.0625 Q193.5156 -0.9531 192.5312 -0.3984 Q191.5469 0.1562 190.2031 0.1562 ZM187.875 -4.7812 Q187.875 -2.7812 188.5156 -1.6953 Q189.1562 -0.6094 190.3438 -0.6094 Q191 -0.6094 191.4609 -0.9297 Q191.9219 -1.25 192.2031 -1.7891 Q192.4844 -2.3281 192.6172 -3.0312 Q192.75 -3.7344 192.75 -4.5156 Q192.75 -5.9531 192.4297 -6.8984 Q192.1094 -7.8438 191.5625 -8.2891 Q191.0156 -8.7344 190.3125 -8.7344 Q189.125 -8.7344 188.5 -7.7109 Q187.875 -6.6875 187.875 -4.7812 ZM204.75 -1.6562 Q204.125 -1 203.6016 -0.6328 Q203.0781 -0.2656 202.4531 -0.0547 Q201.8281 0.1562 201.0781 0.1562 Q199.0625 0.1562 198.0391 -1.0469 Q197.0156 -2.25 197.0156 -4.6094 Q197.0156 -6.0625 197.5391 -7.1797 Q198.0625 -8.2969 199.0312 -8.8984 Q200 -9.5 201.25 -9.5 Q202.2344 -9.5 202.9297 -9.1875 Q203.625 -8.875 204.0391 -8.3359 Q204.4531 -7.7969 204.6875 -6.9688 Q204.9219 -6.1406 204.9531 -4.8125 L198.7969 -4.8125 L198.7969 -4.6406 Q198.7969 -3.4844 199.0547 -2.7031 Q199.3125 -1.9219 199.9062 -1.4766 Q200.5 -1.0312 201.4375 -1.0312 Q202.2344 -1.0312 202.875 -1.3281 Q203.5156 -1.625 204.1562 -2.2969 L204.75 -1.6562 ZM203.1094 -5.625 Q203.0469 -6.6875 202.8438 -7.3516 Q202.6406 -8.0156 202.2344 -8.375 Q201.8281 -8.7344 201.1562 -8.7344 Q200.1562 -8.7344 199.5547 -7.9297 Q198.9531 -7.125 198.8438 -5.625 L203.1094 -5.625 ZM209.5625 -2.4375 Q209.5625 -1.6094 209.6406 -1.2812 Q209.7188 -0.9531 209.9375 -0.7812 Q210.1562 -0.6094 210.6562 -0.4844 L210.6562 0 L206.7656 0 L206.7656 -0.4844 Q207.2656 -0.6094 207.4531 -0.7422 Q207.6406 -0.875 207.7266 -1.0703 Q207.8125 -1.2656 207.8438 -1.5938 Q207.875 -1.9219 207.875 -2.4375 L207.875 -10.6094 Q207.875 -11.5469 207.8594 -11.9219 Q207.8438 -12.2969 207.7812 -12.5547 Q207.7188 -12.8125 207.6094 -12.9609 Q207.5 -13.1094 207.3047 -13.1953 Q207.1094 -13.2812 206.6094 -13.375 L206.6094 -13.875 L208.9688 -13.9688 L209.5625 -13.9688 L209.5625 -2.4375 ZM219.75 -1.6562 Q219.125 -1 218.6016 -0.6328 Q218.0781 -0.2656 217.4531 -0.0547 Q216.8281 0.1562 216.0781 0.1562 Q214.0625 0.1562 213.0391 -1.0469 Q212.0156 -2.25 212.0156 -4.6094 Q212.0156 -6.0625 212.5391 -7.1797 Q213.0625 -8.2969 214.0312 -8.8984 Q215 -9.5 216.25 -9.5 Q217.2344 -9.5 217.9297 -9.1875 Q218.625 -8.875 219.0391 -8.3359 Q219.4531 -7.7969 219.6875 -6.9688 Q219.9219 -6.1406 219.9531 -4.8125 L213.7969 -4.8125 L213.7969 -4.6406 Q213.7969 -3.4844 214.0547 -2.7031 Q214.3125 -1.9219 214.9062 -1.4766 Q215.5 -1.0312 216.4375 -1.0312 Q217.2344 -1.0312 217.875 -1.3281 Q218.5156 -1.625 219.1562 -2.2969 L219.75 -1.6562 ZM218.1094 -5.625 Q218.0469 -6.6875 217.8438 -7.3516 Q217.6406 -8.0156 217.2344 -8.375 Q216.8281 -8.7344 216.1562 -8.7344 Q215.1562 -8.7344 214.5547 -7.9297 Q213.9531 -7.125 213.8438 -5.625 L218.1094 -5.625 ZM229.2188 -9.1094 L229.2188 -7.0781 L227.9844 -7.0781 Q227.8125 -7.7031 227.5703 -8.0703 Q227.3281 -8.4375 227.0078 -8.5859 Q226.6875 -8.7344 226.2031 -8.7344 Q225.5156 -8.7344 224.9922 -8.2969 Q224.4688 -7.8594 224.1641 -6.9609 Q223.8594 -6.0625 223.8594 -4.75 Q223.8594 -3.9219 223.9766 -3.2344 Q224.0938 -2.5469 224.375 -2.0625 Q224.6562 -1.5781 225.125 -1.3047 Q225.5938 -1.0312 226.2812 -1.0312 Q226.9531 -1.0312 227.5391 -1.2891 Q228.125 -1.5469 228.75 -2.2188 L229.2969 -1.5781 Q228.7969 -1.0312 228.4219 -0.7344 Q228.0469 -0.4375 227.6094 -0.2344 Q227.1719 -0.0312 226.75 0.0625 Q226.3281 0.1562 225.8281 0.1562 Q223.9844 0.1562 223.0078 -1.0703 Q222.0312 -2.2969 222.0312 -4.6094 Q222.0312 -6.0625 222.5781 -7.1797 Q223.125 -8.2969 224.1094 -8.8984 Q225.0938 -9.5 226.375 -9.5 Q227.1875 -9.5 227.8672 -9.4062 Q228.5469 -9.3125 229.2188 -9.1094 ZM230.3594 -8.8438 Q230.8438 -8.9219 231.1484 -9.1172 Q231.4531 -9.3125 231.625 -9.625 Q231.7969 -9.9375 231.8984 -10.3984 Q232 -10.8594 232.0938 -11.75 L233.4844 -11.75 L233.4844 -9.3438 L236.6406 -9.3438 L236.6406 -8.3438 L233.4844 -8.3438 L233.4844 -4 Q233.4844 -3.0625 233.5625 -2.5 Q233.6406 -1.9375 233.8594 -1.6172 Q234.0781 -1.2969 234.3516 -1.1641 Q234.625 -1.0312 235.0469 -1.0312 Q235.4375 -1.0312 235.7812 -1.1875 Q236.125 -1.3438 236.4531 -1.6562 L236.8906 -1.125 Q236.2031 -0.4531 235.5859 -0.1484 Q234.9688 0.1562 234.2969 0.1562 Q233.0312 0.1562 232.4219 -0.5938 Q231.8125 -1.3438 231.8125 -2.9375 L231.8125 -8.3438 L230.3594 -8.3438 L230.3594 -8.8438 ZM240.5781 -7.7188 L240.7188 -7.6875 Q241.2656 -8.3438 241.7188 -8.7188 Q242.1719 -9.0938 242.7031 -9.2969 Q243.2344 -9.5 243.9219 -9.5 Q244.4844 -9.5 244.9375 -9.4375 L244.9375 -7.2031 L243.8438 -7.2031 Q243.6094 -7.7188 243.3438 -7.9609 Q243.0781 -8.2031 242.6094 -8.2031 Q242.2656 -8.2031 241.9219 -8 Q241.5781 -7.7969 241.25 -7.4062 Q240.9219 -7.0156 240.8047 -6.6719 Q240.6875 -6.3281 240.6875 -5.8594 L240.6875 -2.4375 Q240.6875 -1.5469 240.7891 -1.2109 Q240.8906 -0.875 241.1406 -0.7188 Q241.3906 -0.5625 241.8906 -0.4844 L241.8906 0 L237.9531 0 L237.9531 -0.4844 Q238.3281 -0.5938 238.4922 -0.6797 Q238.6562 -0.7656 238.7734 -0.9219 Q238.8906 -1.0781 238.9453 -1.4062 Q239 -1.7344 239 -2.4062 L239 -6.6719 Q239 -7.2969 238.9844 -7.6797 Q238.9688 -8.0625 238.8516 -8.2891 Q238.7344 -8.5156 238.4922 -8.625 Q238.25 -8.7344 237.8125 -8.8125 L237.8125 -9.3281 L240.0938 -9.4219 L240.6875 -9.4219 L240.5781 -7.7188 ZM248.7344 -13.1719 L248.7344 -11.2656 L246.9375 -11.2656 L246.9375 -13.1719 L248.7344 -13.1719 ZM245.9531 -0.4844 Q246.3281 -0.5938 246.4922 -0.6797 Q246.6562 -0.7656 246.7656 -0.9219 Q246.875 -1.0781 246.9375 -1.4062 Q247 -1.7344 247 -2.4062 L247 -6.6719 Q247 -7.2969 246.9844 -7.6797 Q246.9688 -8.0625 246.8516 -8.2891 Q246.7344 -8.5156 246.4922 -8.625 Q246.25 -8.7344 245.8125 -8.8125 L245.8125 -9.3438 L248.0938 -9.4219 L248.6875 -9.4219 L248.6875 -2.4375 Q248.6875 -1.6094 248.7656 -1.2812 Q248.8438 -0.9531 249.0625 -0.7812 Q249.2812 -0.6094 249.7812 -0.4844 L249.7812 0 L245.9531 0 L245.9531 -0.4844 ZM259.2188 -9.1094 L259.2188 -7.0781 L257.9844 -7.0781 Q257.8125 -7.7031 257.5703 -8.0703 Q257.3281 -8.4375 257.0078 -8.5859 Q256.6875 -8.7344 256.2031 -8.7344 Q255.5156 -8.7344 254.9922 -8.2969 Q254.4688 -7.8594 254.1641 -6.9609 Q253.8594 -6.0625 253.8594 -4.75 Q253.8594 -3.9219 253.9766 -3.2344 Q254.0938 -2.5469 254.375 -2.0625 Q254.6562 -1.5781 255.125 -1.3047 Q255.5938 -1.0312 256.2812 -1.0312 Q256.9531 -1.0312 257.5391 -1.2891 Q258.125 -1.5469 258.75 -2.2188 L259.2969 -1.5781 Q258.7969 -1.0312 258.4219 -0.7344 Q258.0469 -0.4375 257.6094 -0.2344 Q257.1719 -0.0312 256.75 0.0625 Q256.3281 0.1562 255.8281 0.1562 Q253.9844 0.1562 253.0078 -1.0703 Q252.0312 -2.2969 252.0312 -4.6094 Q252.0312 -6.0625 252.5781 -7.1797 Q253.125 -8.2969 254.1094 -8.8984 Q255.0938 -9.5 256.375 -9.5 Q257.1875 -9.5 257.8672 -9.4062 Q258.5469 -9.3125 259.2188 -9.1094 ZM267.5625 -2.4375 Q267.5625 -1.6094 267.6406 -1.2812 Q267.7188 -0.9531 267.9375 -0.7812 Q268.1562 -0.6094 268.6562 -0.4844 L268.6562 0 L264.7656 0 L264.7656 -0.4844 Q265.2656 -0.6094 265.4531 -0.7422 Q265.6406 -0.875 265.7266 -1.0703 Q265.8125 -1.2656 265.8438 -1.5938 Q265.875 -1.9219 265.875 -2.4375 L265.875 -10.6094 Q265.875 -11.5469 265.8594 -11.9219 Q265.8438 -12.2969 265.7812 -12.5547 Q265.7188 -12.8125 265.6094 -12.9609 Q265.5 -13.1094 265.3047 -13.1953 Q265.1094 -13.2812 264.6094 -13.375 L264.6094 -13.875 L266.9688 -13.9688 L267.5625 -13.9688 L267.5625 -2.4375 ZM274.2031 0.1562 Q272.1719 0.1562 271.1016 -1.0391 Q270.0312 -2.2344 270.0312 -4.5781 Q270.0312 -6.1875 270.5938 -7.3047 Q271.1562 -8.4219 272.1328 -8.9609 Q273.1094 -9.5 274.3594 -9.5 Q276.4375 -9.5 277.5156 -8.2891 Q278.5938 -7.0781 278.5938 -4.7969 Q278.5938 -3.1719 278.0547 -2.0625 Q277.5156 -0.9531 276.5312 -0.3984 Q275.5469 0.1562 274.2031 0.1562 ZM271.875 -4.7812 Q271.875 -2.7812 272.5156 -1.6953 Q273.1562 -0.6094 274.3438 -0.6094 Q275 -0.6094 275.4609 -0.9297 Q275.9219 -1.25 276.2031 -1.7891 Q276.4844 -2.3281 276.6172 -3.0312 Q276.75 -3.7344 276.75 -4.5156 Q276.75 -5.9531 276.4297 -6.8984 Q276.1094 -7.8438 275.5625 -8.2891 Q275.0156 -8.7344 274.3125 -8.7344 Q273.125 -8.7344 272.5 -7.7109 Q271.875 -6.6875 271.875 -4.7812 ZM286.5938 -1.3906 L286.4531 -1.4375 Q285.5938 -0.5625 284.8516 -0.2031 Q284.1094 0.1562 283.2656 0.1562 Q282.5156 0.1562 281.9531 -0.1328 Q281.3906 -0.4219 281.0859 -0.9453 Q280.7812 -1.4688 280.7812 -2.1562 Q280.7812 -3.5781 282.1953 -4.3516 Q283.6094 -5.125 286.4219 -5.25 L286.4219 -5.8906 Q286.4219 -6.9062 286.2266 -7.4922 Q286.0312 -8.0781 285.6172 -8.3516 Q285.2031 -8.625 284.5 -8.625 Q283.7344 -8.625 283.2656 -8.2266 Q282.7969 -7.8281 282.5625 -7.0156 L281.2969 -7.0156 L281.2969 -8.2969 Q282.2344 -8.7812 282.8594 -9.0078 Q283.4844 -9.2344 284.1094 -9.3672 Q284.7344 -9.5 285.375 -9.5 Q286.3438 -9.5 286.9297 -9.1953 Q287.5156 -8.8906 287.8047 -8.2578 Q288.0938 -7.625 288.0938 -6.3438 L288.0938 -2.9375 Q288.0938 -2.2188 288.1016 -1.9219 Q288.1094 -1.625 288.1641 -1.3672 Q288.2188 -1.1094 288.3125 -0.9609 Q288.4062 -0.8125 288.6016 -0.7031 Q288.7969 -0.5938 289.2188 -0.4844 L289.2188 0 L286.5469 0 L286.5938 -1.3906 ZM286.4219 -4.4531 Q284.4375 -4.4375 283.4531 -3.9297 Q282.4688 -3.4219 282.4688 -2.3906 Q282.4688 -1.8438 282.6953 -1.5156 Q282.9219 -1.1875 283.2656 -1.0703 Q283.6094 -0.9531 284.0781 -0.9531 Q284.7344 -0.9531 285.2812 -1.2734 Q285.8281 -1.5938 286.125 -2.0938 Q286.4219 -2.5938 286.4219 -3.0781 L286.4219 -4.4531 ZM297.5469 -10.6094 Q297.5469 -11.5469 297.5312 -11.9219 Q297.5156 -12.2969 297.4531 -12.5547 Q297.3906 -12.8125 297.2734 -12.9609 Q297.1562 -13.1094 296.9688 -13.1953 Q296.7812 -13.2812 296.2812 -13.375 L296.2812 -13.875 L298.6406 -13.9688 L299.2188 -13.9688 L299.2188 -2.6719 Q299.2188 -1.9062 299.25 -1.5781 Q299.2812 -1.25 299.375 -1.0547 Q299.4688 -0.8594 299.6797 -0.7344 Q299.8906 -0.6094 300.4219 -0.5156 L300.4219 0 L298.1094 0.0938 L297.5312 0.0938 L297.6406 -1.5 L297.5 -1.5469 Q296.8906 -0.8906 296.4375 -0.5625 Q295.9844 -0.2344 295.4688 -0.0391 Q294.9531 0.1562 294.3594 0.1562 Q292.7656 0.1562 291.8984 -1.0625 Q291.0312 -2.2812 291.0312 -4.5781 Q291.0312 -6.1719 291.5938 -7.2891 Q292.1562 -8.4062 293.1172 -8.9531 Q294.0781 -9.5 295.2812 -9.5 Q295.9219 -9.5 296.4531 -9.3984 Q296.9844 -9.2969 297.5469 -9.0625 L297.5469 -10.6094 ZM297.5469 -5.7969 Q297.5469 -6.5469 297.4766 -7.0078 Q297.4062 -7.4688 297.2422 -7.7812 Q297.0781 -8.0938 296.8047 -8.3125 Q296.5312 -8.5312 296.2031 -8.625 Q295.875 -8.7188 295.4219 -8.7188 Q294.1719 -8.7188 293.5156 -7.7188 Q292.8594 -6.7188 292.8594 -4.8438 Q292.8594 -2.9688 293.3984 -1.9922 Q293.9375 -1.0156 295.0312 -1.0156 Q295.4531 -1.0156 295.7422 -1.0859 Q296.0312 -1.1562 296.3047 -1.3203 Q296.5781 -1.4844 296.8594 -1.7656 Q297.1406 -2.0469 297.2734 -2.2812 Q297.4062 -2.5156 297.4766 -2.8203 Q297.5469 -3.125 297.5469 -3.6094 L297.5469 -5.7969 ZM309.1719 -9.3438 L309.1719 -8.8594 Q308.7188 -8.75 308.5312 -8.6562 Q308.3438 -8.5625 308.2578 -8.4062 Q308.1719 -8.25 308.1719 -7.9844 Q308.1719 -7.7188 308.2344 -7.4297 Q308.2969 -7.1406 308.4219 -6.7656 L310.125 -1.8125 L312.125 -6.5469 Q312.3125 -7.0156 312.3906 -7.3203 Q312.4688 -7.625 312.4688 -7.8906 Q312.4688 -8.2969 312.25 -8.5156 Q312.0312 -8.7344 311.4531 -8.8594 L311.4531 -9.3438 L315.0938 -9.3438 L315.0938 -8.8594 Q314.7188 -8.7812 314.5156 -8.6172 Q314.3125 -8.4531 314.1016 -8.1094 Q313.8906 -7.7656 313.6094 -7.1406 L310.3281 0.0938 L309.1719 0.0938 L306.5312 -7.2031 Q306.25 -7.9531 306.0859 -8.2266 Q305.9219 -8.5 305.7344 -8.6406 Q305.5469 -8.7812 305.1875 -8.8594 L305.1875 -9.3438 L309.1719 -9.3438 ZM323.75 -1.6562 Q323.125 -1 322.6016 -0.6328 Q322.0781 -0.2656 321.4531 -0.0547 Q320.8281 0.1562 320.0781 0.1562 Q318.0625 0.1562 317.0391 -1.0469 Q316.0156 -2.25 316.0156 -4.6094 Q316.0156 -6.0625 316.5391 -7.1797 Q317.0625 -8.2969 318.0312 -8.8984 Q319 -9.5 320.25 -9.5 Q321.2344 -9.5 321.9297 -9.1875 Q322.625 -8.875 323.0391 -8.3359 Q323.4531 -7.7969 323.6875 -6.9688 Q323.9219 -6.1406 323.9531 -4.8125 L317.7969 -4.8125 L317.7969 -4.6406 Q317.7969 -3.4844 318.0547 -2.7031 Q318.3125 -1.9219 318.9062 -1.4766 Q319.5 -1.0312 320.4375 -1.0312 Q321.2344 -1.0312 321.875 -1.3281 Q322.5156 -1.625 323.1562 -2.2969 L323.75 -1.6562 ZM322.1094 -5.625 Q322.0469 -6.6875 321.8438 -7.3516 Q321.6406 -8.0156 321.2344 -8.375 Q320.8281 -8.7344 320.1562 -8.7344 Q319.1562 -8.7344 318.5547 -7.9297 Q317.9531 -7.125 317.8438 -5.625 L322.1094 -5.625 ZM333.2188 -9.1094 L333.2188 -7.0781 L331.9844 -7.0781 Q331.8125 -7.7031 331.5703 -8.0703 Q331.3281 -8.4375 331.0078 -8.5859 Q330.6875 -8.7344 330.2031 -8.7344 Q329.5156 -8.7344 328.9922 -8.2969 Q328.4688 -7.8594 328.1641 -6.9609 Q327.8594 -6.0625 327.8594 -4.75 Q327.8594 -3.9219 327.9766 -3.2344 Q328.0938 -2.5469 328.375 -2.0625 Q328.6562 -1.5781 329.125 -1.3047 Q329.5938 -1.0312 330.2812 -1.0312 Q330.9531 -1.0312 331.5391 -1.2891 Q332.125 -1.5469 332.75 -2.2188 L333.2969 -1.5781 Q332.7969 -1.0312 332.4219 -0.7344 Q332.0469 -0.4375 331.6094 -0.2344 Q331.1719 -0.0312 330.75 0.0625 Q330.3281 0.1562 329.8281 0.1562 Q327.9844 0.1562 327.0078 -1.0703 Q326.0312 -2.2969 326.0312 -4.6094 Q326.0312 -6.0625 326.5781 -7.1797 Q327.125 -8.2969 328.1094 -8.8984 Q329.0938 -9.5 330.375 -9.5 Q331.1875 -9.5 331.8672 -9.4062 Q332.5469 -9.3125 333.2188 -9.1094 ZM334.3594 -8.8438 Q334.8438 -8.9219 335.1484 -9.1172 Q335.4531 -9.3125 335.625 -9.625 Q335.7969 -9.9375 335.8984 -10.3984 Q336 -10.8594 336.0938 -11.75 L337.4844 -11.75 L337.4844 -9.3438 L340.6406 -9.3438 L340.6406 -8.3438 L337.4844 -8.3438 L337.4844 -4 Q337.4844 -3.0625 337.5625 -2.5 Q337.6406 -1.9375 337.8594 -1.6172 Q338.0781 -1.2969 338.3516 -1.1641 Q338.625 -1.0312 339.0469 -1.0312 Q339.4375 -1.0312 339.7812 -1.1875 Q340.125 -1.3438 340.4531 -1.6562 L340.8906 -1.125 Q340.2031 -0.4531 339.5859 -0.1484 Q338.9688 0.1562 338.2969 0.1562 Q337.0312 0.1562 336.4219 -0.5938 Q335.8125 -1.3438 335.8125 -2.9375 L335.8125 -8.3438 L334.3594 -8.3438 L334.3594 -8.8438 ZM346.2031 0.1562 Q344.1719 0.1562 343.1016 -1.0391 Q342.0312 -2.2344 342.0312 -4.5781 Q342.0312 -6.1875 342.5938 -7.3047 Q343.1562 -8.4219 344.1328 -8.9609 Q345.1094 -9.5 346.3594 -9.5 Q348.4375 -9.5 349.5156 -8.2891 Q350.5938 -7.0781 350.5938 -4.7969 Q350.5938 -3.1719 350.0547 -2.0625 Q349.5156 -0.9531 348.5312 -0.3984 Q347.5469 0.1562 346.2031 0.1562 ZM343.875 -4.7812 Q343.875 -2.7812 344.5156 -1.6953 Q345.1562 -0.6094 346.3438 -0.6094 Q347 -0.6094 347.4609 -0.9297 Q347.9219 -1.25 348.2031 -1.7891 Q348.4844 -2.3281 348.6172 -3.0312 Q348.75 -3.7344 348.75 -4.5156 Q348.75 -5.9531 348.4297 -6.8984 Q348.1094 -7.8438 347.5625 -8.2891 Q347.0156 -8.7344 346.3125 -8.7344 Q345.125 -8.7344 344.5 -7.7109 Q343.875 -6.6875 343.875 -4.7812 ZM355.5781 -7.7188 L355.7188 -7.6875 Q356.2656 -8.3438 356.7188 -8.7188 Q357.1719 -9.0938 357.7031 -9.2969 Q358.2344 -9.5 358.9219 -9.5 Q359.4844 -9.5 359.9375 -9.4375 L359.9375 -7.2031 L358.8438 -7.2031 Q358.6094 -7.7188 358.3438 -7.9609 Q358.0781 -8.2031 357.6094 -8.2031 Q357.2656 -8.2031 356.9219 -8 Q356.5781 -7.7969 356.25 -7.4062 Q355.9219 -7.0156 355.8047 -6.6719 Q355.6875 -6.3281 355.6875 -5.8594 L355.6875 -2.4375 Q355.6875 -1.5469 355.7891 -1.2109 Q355.8906 -0.875 356.1406 -0.7188 Q356.3906 -0.5625 356.8906 -0.4844 L356.8906 0 L352.9531 0 L352.9531 -0.4844 Q353.3281 -0.5938 353.4922 -0.6797 Q353.6562 -0.7656 353.7734 -0.9219 Q353.8906 -1.0781 353.9453 -1.4062 Q354 -1.7344 354 -2.4062 L354 -6.6719 Q354 -7.2969 353.9844 -7.6797 Q353.9688 -8.0625 353.8516 -8.2891 Q353.7344 -8.5156 353.4922 -8.625 Q353.25 -8.7344 352.8125 -8.8125 L352.8125 -9.3281 L355.0938 -9.4219 L355.6875 -9.4219 L355.5781 -7.7188 Z" stroke="none"/></g></g></svg>