<?xml version="1.0" encoding="UTF-8" standalone="no"?><svg xmlns="http://www.w3.org/2000/svg" xmlns:xlink="http://www.w3.org/1999/xlink" stroke-dasharray="none" shape-rendering="auto" font-family="'Dialog'" width="80.812600" text-rendering="auto" fill-opacity="1" contentScriptType="text/ecmascript" color-interpolation="auto" color-rendering="auto" preserveAspectRatio="xMidYMid meet" font-size="12" fill="black" stroke="black" image-rendering="auto" stroke-miterlimit="10" zoomAndPan="magnify" version="1.0" stroke-linecap="square" stroke-linejoin="miter" contentStyleType="text/css" font-style="normal" height="24" stroke-width="1" stroke-dashoffset="0" font-weight="normal" stroke-opacity="1" y="-5.000000"><!--Converted from MathML using JEuclid--><defs id="genericDefs"/><g><g text-rendering="optimizeLegibility" transform="translate(0.1406,19)" color-rendering="optimizeQuality" color-interpolation="linearRGB" image-rendering="optimizeQuality"><path d="M2.3125 -0.9062 L5.4375 -0.9062 Q5.875 -0.9062 6.1484 -0.9609 Q6.4219 -1.0156 6.6328 -1.1328 Q6.8438 -1.25 7.0312 -1.4297 Q7.2188 -1.6094 7.4062 -1.8516 Q7.5938 -2.0938 7.8281 -2.5 Q8.0625 -2.9062 8.3281 -3.5312 L9.2656 -3.5312 L8.5156 0 L-0.1406 0 L-0.0469 -0.4844 L8.8125 -12.4375 L5.8281 -12.4375 Q5.4062 -12.4375 5.1641 -12.3906 Q4.9219 -12.3438 4.7344 -12.25 Q4.5469 -12.1562 4.4062 -12.0391 Q4.2656 -11.9219 4.0625 -11.6797 Q3.8594 -11.4375 3.6172 -11.0547 Q3.375 -10.6719 3.0625 -10.0312 L2.125 -10.0312 L2.8594 -13.3281 L11.3125 -13.3281 L11.2031 -12.8594 L2.3125 -0.9062 Z" stroke="none"/></g><g text-rendering="optimizeLegibility" transform="translate(11.4531,22.2656)" color-rendering="optimizeQuality" color-interpolation="linearRGB" image-rendering="optimizeQuality"><path d="M4.5156 -4.9375 Q4.4375 -5.5625 4.1641 -5.8359 Q3.8906 -6.1094 3.2969 -6.1094 Q2.9844 -6.1094 2.7266 -5.9922 Q2.4688 -5.875 2.3125 -5.6484 Q2.1562 -5.4219 2.1562 -5.1094 Q2.1562 -4.8594 2.2578 -4.6484 Q2.3594 -4.4375 2.6016 -4.2109 Q2.8438 -3.9844 3.2812 -3.6875 Q3.9531 -3.25 4.2188 -2.8281 Q4.4844 -2.4062 4.4844 -1.8594 Q4.4844 -1.2188 4.1797 -0.7734 Q3.875 -0.3281 3.3359 -0.1094 Q2.7969 0.1094 2.1406 0.1094 Q1.5312 0.1094 1.0078 0.0234 Q0.4844 -0.0625 0 -0.2031 L0.3125 -1.6875 L0.8438 -1.6875 Q0.8906 -1.0469 1.2031 -0.7422 Q1.5156 -0.4375 2.1094 -0.4375 Q2.7188 -0.4375 3.0625 -0.7422 Q3.4062 -1.0469 3.4062 -1.5312 Q3.4062 -1.8281 3.3047 -2.0625 Q3.2031 -2.2969 2.9844 -2.5078 Q2.7656 -2.7188 2.3594 -3 Q1.9219 -3.2812 1.6562 -3.5469 Q1.3906 -3.8125 1.2422 -4.125 Q1.0938 -4.4375 1.0938 -4.8125 Q1.0938 -5.375 1.375 -5.7891 Q1.6562 -6.2031 2.1719 -6.4219 Q2.6875 -6.6406 3.3906 -6.6406 Q4.5156 -6.6406 5.375 -6.3438 L5.0625 -4.9375 L4.5156 -4.9375 Z" stroke="none"/></g><g text-rendering="optimizeLegibility" transform="translate(17.6094,19)" color-rendering="optimizeQuality" color-interpolation="linearRGB" image-rendering="optimizeQuality"><path d="M1.2188 -7.0625 L1.2188 -8.4219 L9.8594 -8.4219 L9.8594 -7.0625 L1.2188 -7.0625 ZM1.2188 -3.0156 L1.2188 -4.3594 L9.8594 -4.3594 L9.8594 -3.0156 L1.2188 -3.0156 Z" stroke="none"/></g><g text-rendering="optimizeLegibility" transform="translate(29.5469,19)" color-rendering="optimizeQuality" color-interpolation="linearRGB" image-rendering="optimizeQuality"><path d="M2.0938 1.7344 Q2 2.2031 1.9688 2.4531 Q1.9375 2.7031 1.9375 2.875 Q1.9375 3.1719 2.0391 3.3359 Q2.1406 3.5 2.3438 3.5859 Q2.5469 3.6719 3.0156 3.7188 L2.9375 4.2031 L-0.0781 4.2031 L2.3906 -6.6562 Q2.5781 -7.4844 2.5781 -8.0625 Q2.5781 -8.3438 2.4922 -8.4922 Q2.4062 -8.6406 2.2109 -8.7188 Q2.0156 -8.7969 1.5312 -8.8125 L1.6562 -9.3438 L3.875 -9.4219 L4.4219 -9.4219 L3.7656 -6.8906 L3.8906 -6.8438 Q5.6875 -9.5 7.4844 -9.5 Q8.5469 -9.5 9.1406 -8.6875 Q9.7344 -7.875 9.7344 -6.3906 Q9.7344 -5.3438 9.4453 -4.2812 Q9.1562 -3.2188 8.6406 -2.3594 Q8.125 -1.5 7.4922 -0.9453 Q6.8594 -0.3906 6.1641 -0.1172 Q5.4688 0.1562 4.7031 0.1562 Q3.4062 0.1562 2.5469 -0.4062 L2.0938 1.7344 ZM3.2656 -3.4062 Q3.1719 -2.875 3.1406 -2.6016 Q3.1094 -2.3281 3.1094 -2.0781 Q3.1094 -1.3125 3.4375 -0.9609 Q3.7656 -0.6094 4.5781 -0.6094 Q5.0625 -0.6094 5.4844 -0.8047 Q5.9062 -1 6.2812 -1.375 Q6.6562 -1.75 6.9609 -2.2734 Q7.2656 -2.7969 7.5078 -3.5 Q7.75 -4.2031 7.8672 -4.9375 Q7.9844 -5.6719 7.9844 -6.3125 Q7.9844 -7.3438 7.6953 -7.8438 Q7.4062 -8.3438 6.7812 -8.3438 Q6.2969 -8.3438 5.8125 -8.0078 Q5.3281 -7.6719 4.75 -6.9297 Q4.1719 -6.1875 3.8516 -5.4688 Q3.5312 -4.75 3.3438 -3.8125 L3.2656 -3.4062 Z" stroke="none"/></g><g text-rendering="optimizeLegibility" transform="translate(40.1875,19)" color-rendering="optimizeQuality" color-interpolation="linearRGB" image-rendering="optimizeQuality"><path d="M6.625 0 L6.7344 -0.4844 Q7.1719 -0.5156 7.4219 -0.7344 Q7.6719 -0.9531 7.7734 -1.3281 Q7.875 -1.7031 7.875 -2.3281 Q7.875 -2.7188 7.8438 -3.1719 L7.7812 -4.4219 L3.4844 -4.4219 L2.9375 -3.4688 Q2.5625 -2.7969 2.3828 -2.3125 Q2.2031 -1.8281 2.2031 -1.4531 Q2.2031 -0.6406 3.1875 -0.4844 L3.0938 0 L-0.9062 0 L-0.7969 -0.4844 Q-0.5 -0.5156 -0.2266 -0.7188 Q0.0469 -0.9219 0.3438 -1.3281 Q0.6406 -1.7344 1.1875 -2.6719 L7.4531 -13.4844 L8.9219 -13.4844 L9.625 -2.5938 Q9.6719 -1.8281 9.8047 -1.3906 Q9.9375 -0.9531 10.1562 -0.7422 Q10.375 -0.5312 10.7969 -0.4844 L10.6875 0 L6.625 0 ZM3.9219 -5.2812 L7.7344 -5.2812 L7.5625 -8.4219 Q7.5469 -9.0625 7.5234 -10.0312 Q7.5 -11 7.5 -11.4219 L7.3906 -11.4219 L3.9219 -5.2812 Z" stroke="none"/></g><g text-rendering="optimizeLegibility" transform="translate(52.375,17.9188) matrix(1,0,0,1.2572,0,0)" color-rendering="optimizeQuality" color-interpolation="linearRGB" image-rendering="optimizeQuality"><path d="M9.1875 -13.9688 L2.1406 4.2031 L0.6094 4.2031 L7.6719 -13.9688 L9.1875 -13.9688 Z" stroke="none"/></g><g text-rendering="optimizeLegibility" transform="translate(63.5625,19)" color-rendering="optimizeQuality" color-interpolation="linearRGB" image-rendering="optimizeQuality"><path d="M9.125 -9.3438 L9.3906 -8.8438 Q9.0312 -7.9844 8.8359 -7.5625 Q8.6406 -7.1406 8.3125 -6.5078 Q7.9844 -5.875 7.5781 -5.1875 Q7.1719 -4.5 6.6562 -3.7031 Q6.1406 -2.9062 5.4844 -1.9609 Q4.8281 -1.0156 3.9375 0.1562 L2.7188 0.1562 L1.8125 -7.2188 Q1.7188 -7.9375 1.6172 -8.2422 Q1.5156 -8.5469 1.3203 -8.6875 Q1.125 -8.8281 0.7031 -8.8594 L0.8125 -9.3438 L3.3281 -9.3438 L4.0625 -1.5781 Q5.75 -3.8906 6.5547 -5.4688 Q7.3594 -7.0469 7.3594 -8.0312 Q7.3594 -8.5 7.1641 -8.6641 Q6.9688 -8.8281 6.5 -8.8594 L6.6094 -9.3438 L9.125 -9.3438 Z" stroke="none"/></g><g text-rendering="optimizeLegibility" transform="translate(72.9531,22.4766)" color-rendering="optimizeQuality" color-interpolation="linearRGB" image-rendering="optimizeQuality"><path d="M6.4531 0 L4.2969 0 L5.1562 -3.4688 Q5.25 -3.8125 5.3281 -4.2109 Q5.4062 -4.6094 5.4062 -4.9375 Q5.4062 -5.4219 5.2344 -5.6328 Q5.0625 -5.8438 4.7031 -5.8438 Q4.4219 -5.8438 4.0938 -5.625 Q3.7656 -5.4062 3.3984 -4.9609 Q3.0312 -4.5156 2.7812 -4.0625 Q2.5312 -3.6094 2.4062 -2.9531 L1.7812 0 L0.5938 0 L1.6406 -4.6719 Q1.6719 -4.8281 1.7266 -5.1328 Q1.7812 -5.4375 1.7812 -5.6406 Q1.7812 -5.8438 1.7266 -5.9453 Q1.6719 -6.0469 1.5312 -6.1016 Q1.3906 -6.1562 1.0469 -6.1719 L1.1406 -6.5312 L2.6875 -6.5938 L3.0781 -6.5938 L2.625 -4.8125 L2.7031 -4.7969 Q3.375 -5.7344 3.9922 -6.1875 Q4.6094 -6.6406 5.2344 -6.6406 Q5.9062 -6.6406 6.2422 -6.2734 Q6.5781 -5.9062 6.5781 -5.2031 Q6.5781 -4.9531 6.5391 -4.6641 Q6.5 -4.375 6.4375 -4.1406 L5.8594 -1.7031 Q5.75 -1.2188 5.75 -0.9375 Q5.75 -0.7188 5.8203 -0.6094 Q5.8906 -0.5 6.0312 -0.4375 Q6.1719 -0.375 6.5 -0.3281 L6.4531 0 Z" stroke="none"/></g></g></svg>