<?xml version="1.0" encoding="UTF-8" standalone="no"?><svg xmlns="http://www.w3.org/2000/svg" xmlns:xlink="http://www.w3.org/1999/xlink" stroke-dasharray="none" shape-rendering="auto" font-family="'Dialog'" width="634.812600" text-rendering="auto" fill-opacity="1" contentScriptType="text/ecmascript" color-interpolation="auto" color-rendering="auto" preserveAspectRatio="xMidYMid meet" font-size="12" fill="black" stroke="black" image-rendering="auto" stroke-miterlimit="10" zoomAndPan="magnify" version="1.0" stroke-linecap="square" stroke-linejoin="miter" contentStyleType="text/css" font-style="normal" height="29" stroke-width="1" stroke-dashoffset="0" font-weight="normal" stroke-opacity="1" y="-5.000000"><!--Converted from MathML using JEuclid--><defs id="genericDefs"/><g><g text-rendering="optimizeLegibility" transform="translate(0,24)" color-rendering="optimizeQuality" color-interpolation="linearRGB" image-rendering="optimizeQuality"><path d="M3.6719 -2.8438 Q3.6094 -2.5469 3.5703 -2.3438 Q3.5312 -2.1406 3.5 -1.8438 Q3.4688 -1.5469 3.4688 -1.3125 Q3.4688 -1.0156 3.5625 -0.8438 Q3.6562 -0.6719 3.8516 -0.5938 Q4.0469 -0.5156 4.5312 -0.4844 L4.4219 0 L0.4062 0 L0.5156 -0.4844 Q0.8906 -0.5312 1.0781 -0.6641 Q1.2656 -0.7969 1.3906 -1.0312 Q1.5156 -1.2656 1.625 -1.6016 Q1.7344 -1.9375 1.9375 -2.9062 L3.6094 -10.4375 Q3.8125 -11.4062 3.8125 -11.9688 Q3.8125 -12.4531 3.5938 -12.6406 Q3.375 -12.8281 2.8594 -12.8594 L2.9688 -13.3281 L11.7812 -13.3281 L11.1094 -10.3281 L10.1719 -10.3281 Q10.125 -11.0312 10.0547 -11.4219 Q9.9844 -11.8125 9.8828 -12.0078 Q9.7812 -12.2031 9.6562 -12.2969 Q9.5312 -12.3906 9.3438 -12.4297 Q9.1562 -12.4688 8.7969 -12.4688 L5.7969 -12.4688 L4.625 -7.1562 L6.4531 -7.1562 Q6.8906 -7.1562 7.1719 -7.2734 Q7.4531 -7.3906 7.6953 -7.7031 Q7.9375 -8.0156 8.2969 -8.75 L9.1875 -8.75 L8.25 -4.625 L7.3906 -4.625 Q7.3906 -5.2344 7.3594 -5.5781 Q7.3281 -5.9219 7.2422 -6.0547 Q7.1562 -6.1875 6.9844 -6.2422 Q6.8125 -6.2969 6.3594 -6.2969 L4.4375 -6.2969 L3.6719 -2.8438 Z" stroke="none"/></g><g text-rendering="optimizeLegibility" transform="translate(11.7812,28.0312)" color-rendering="optimizeQuality" color-interpolation="linearRGB" image-rendering="optimizeQuality"><path d="M3.375 -2.2344 L3.375 -1.7188 Q1.9531 0.1719 1.0469 0.1719 Q0.5625 0.1719 0.2891 -0.3594 Q0.0156 -0.8906 0.0156 -1.75 Q0.0156 -2.4531 0.3438 -3.4141 Q0.6719 -4.375 1.2188 -5.3594 Q1.7656 -6.3438 2.3594 -7.0781 Q2.9531 -7.8125 3.4531 -8.1094 Q3.6719 -8.2344 3.7812 -8.2344 Q3.9219 -8.2344 3.9688 -8.1094 Q4.0156 -7.9844 4.0156 -7.6719 Q4.0156 -6.7188 3.2422 -5.3359 Q2.4688 -3.9531 1.0938 -2.5156 Q1.0312 -2.1562 1.0312 -1.9688 Q1.0312 -1.5312 1.2188 -1.2578 Q1.4062 -0.9844 1.7344 -0.9844 Q1.9062 -0.9844 2.1016 -1.1172 Q2.2969 -1.25 2.5156 -1.4453 Q2.7344 -1.6406 3.375 -2.2344 ZM1.3281 -3.4531 Q1.6875 -3.8125 2.0234 -4.2578 Q2.3594 -4.7031 2.6484 -5.2031 Q2.9375 -5.7031 3.1094 -6.1094 Q3.2812 -6.5156 3.2812 -6.7188 Q3.2812 -6.875 3.1719 -6.875 Q3.125 -6.875 3.0156 -6.7969 Q2.5938 -6.4531 2.0703 -5.4609 Q1.5469 -4.4688 1.3281 -3.4531 Z" stroke="none"/></g><g text-rendering="optimizeLegibility" transform="translate(16.5781,24)" color-rendering="optimizeQuality" color-interpolation="linearRGB" image-rendering="optimizeQuality"><path d="M1.2188 -7.0625 L1.2188 -8.4219 L9.8594 -8.4219 L9.8594 -7.0625 L1.2188 -7.0625 ZM1.2188 -3.0156 L1.2188 -4.3594 L9.8594 -4.3594 L9.8594 -3.0156 L1.2188 -3.0156 Z" stroke="none"/></g><g text-rendering="optimizeLegibility" transform="translate(28.7188,24.8296) matrix(1,0,0,1.2815,0,0)" color-rendering="optimizeQuality" color-interpolation="linearRGB" image-rendering="optimizeQuality"><path d="M1.7188 2.6406 L1.7188 -15.2031 L3.5781 -15.2031 L3.5781 1.6094 L6.2656 1.6094 L6.2656 2.6406 L1.7188 2.6406 Z" stroke="none"/></g><g text-rendering="optimizeLegibility" transform="translate(36.9844,21.9948)" color-rendering="optimizeQuality" color-interpolation="linearRGB" image-rendering="optimizeQuality"><path d="M3.6719 -2.8438 Q3.6094 -2.5469 3.5703 -2.3438 Q3.5312 -2.1406 3.5 -1.8438 Q3.4688 -1.5469 3.4688 -1.3125 Q3.4688 -1.0156 3.5625 -0.8438 Q3.6562 -0.6719 3.8516 -0.5938 Q4.0469 -0.5156 4.5312 -0.4844 L4.4219 0 L0.4062 0 L0.5156 -0.4844 Q0.8906 -0.5312 1.0781 -0.6641 Q1.2656 -0.7969 1.3906 -1.0312 Q1.5156 -1.2656 1.625 -1.6016 Q1.7344 -1.9375 1.9375 -2.9062 L3.6094 -10.4375 Q3.8125 -11.4062 3.8125 -11.9688 Q3.8125 -12.4531 3.5938 -12.6406 Q3.375 -12.8281 2.8594 -12.8594 L2.9688 -13.3281 L11.7812 -13.3281 L11.1094 -10.3281 L10.1719 -10.3281 Q10.125 -11.0312 10.0547 -11.4219 Q9.9844 -11.8125 9.8828 -12.0078 Q9.7812 -12.2031 9.6562 -12.2969 Q9.5312 -12.3906 9.3438 -12.4297 Q9.1562 -12.4688 8.7969 -12.4688 L5.7969 -12.4688 L4.625 -7.1562 L6.4531 -7.1562 Q6.8906 -7.1562 7.1719 -7.2734 Q7.4531 -7.3906 7.6953 -7.7031 Q7.9375 -8.0156 8.2969 -8.75 L9.1875 -8.75 L8.25 -4.625 L7.3906 -4.625 Q7.3906 -5.2344 7.3594 -5.5781 Q7.3281 -5.9219 7.2422 -6.0547 Q7.1562 -6.1875 6.9844 -6.2422 Q6.8125 -6.2969 6.3594 -6.2969 L4.4375 -6.2969 L3.6719 -2.8438 Z" stroke="none"/></g><g text-rendering="optimizeLegibility" transform="translate(49.0469,25.7683)" color-rendering="optimizeQuality" color-interpolation="linearRGB" image-rendering="optimizeQuality"><path d="M6.4688 -6.2031 Q5.1406 -4.7812 3.6875 -3.4062 L4.3281 -1.9062 Q4.5781 -1.3125 4.7266 -1.0234 Q4.875 -0.7344 5 -0.6094 Q5.125 -0.4844 5.25 -0.4297 Q5.375 -0.375 5.6406 -0.3281 L5.5625 0 L3.8594 0 L2.9062 -2.75 Q2.75 -2.6094 2.4766 -2.3516 Q2.2031 -2.0938 1.9531 -1.8047 Q1.7031 -1.5156 1.6016 -1.3359 Q1.5 -1.1562 1.4688 -1.0234 Q1.4375 -0.8906 1.4375 -0.7656 Q1.4375 -0.5781 1.5391 -0.4766 Q1.6406 -0.375 1.875 -0.3281 L1.7969 0 L-0.1562 0 L-0.2812 -0.3281 Q1.2188 -1.9375 2.6719 -3.2969 L2.0156 -4.8125 Q1.8125 -5.2812 1.6953 -5.5234 Q1.5781 -5.7656 1.4609 -5.8984 Q1.3438 -6.0312 1.1953 -6.1094 Q1.0469 -6.1875 0.7812 -6.2031 L0.8594 -6.5312 L2.5625 -6.5312 L3.4688 -3.9531 Q3.7969 -4.2656 4.1016 -4.5938 Q4.4062 -4.9219 4.5312 -5.1172 Q4.6562 -5.3125 4.7031 -5.4609 Q4.75 -5.6094 4.75 -5.7656 Q4.75 -6.1406 4.3125 -6.2031 L4.375 -6.5312 L6.3281 -6.5312 L6.4688 -6.2031 Z" stroke="none"/></g><g text-rendering="optimizeLegibility" transform="translate(55.3438,25.7683)" color-rendering="optimizeQuality" color-interpolation="linearRGB" image-rendering="optimizeQuality"><path d="M2.1094 -1.5938 Q2.2031 -1.1094 2.2031 -0.6406 Q2.2031 -0.1719 2.0391 0.2266 Q1.875 0.625 1.5156 1.0234 Q1.1562 1.4219 0.5312 1.8906 L0.1719 1.4688 Q0.5156 1.1406 0.6719 0.875 Q0.8281 0.6094 0.8984 0.2734 Q0.9688 -0.0625 0.9688 -0.5625 Q0.9688 -1.0781 0.9219 -1.5938 L2.1094 -1.5938 Z" stroke="none"/></g><g text-rendering="optimizeLegibility" transform="translate(57.5469,25.7683)" color-rendering="optimizeQuality" color-interpolation="linearRGB" image-rendering="optimizeQuality"><path d="M4.75 -1.7812 Q4.75 -1.3906 4.7969 -1.1875 Q4.8438 -0.9844 4.9531 -0.8594 Q5.0625 -0.7344 5.2734 -0.6641 Q5.4844 -0.5938 5.8047 -0.5547 Q6.125 -0.5156 6.6562 -0.5 L6.6562 0 L1.6094 0 L1.6094 -0.5 Q2.3594 -0.5312 2.6875 -0.5938 Q3.0156 -0.6562 3.1875 -0.7656 Q3.3594 -0.875 3.4375 -1.0938 Q3.5156 -1.3125 3.5156 -1.7812 L3.5156 -7.3281 Q3.5156 -7.6094 3.4219 -7.7344 Q3.3281 -7.8594 3.1406 -7.8594 Q2.9219 -7.8594 2.5156 -7.6328 Q2.1094 -7.4062 1.5156 -7 L1.2188 -7.5312 L4.4219 -9.4375 L4.7969 -9.4375 Q4.75 -8.7812 4.75 -7.625 L4.75 -1.7812 Z" stroke="none"/></g><g text-rendering="optimizeLegibility" transform="translate(48.7656,11.987)" color-rendering="optimizeQuality" color-interpolation="linearRGB" image-rendering="optimizeQuality"><path d="M2.7188 -6.5938 L3.125 -6.5938 L2.6562 -4.9219 L2.7344 -4.8906 Q3.3906 -5.7812 4.0078 -6.2109 Q4.625 -6.6406 5.2812 -6.6406 Q5.7812 -6.6406 6.1094 -6.5625 L5.7812 -5.0312 L5.0781 -5.0312 Q5.0312 -5.3906 4.9141 -5.5781 Q4.7969 -5.7656 4.5469 -5.7656 Q4.2812 -5.7656 3.9297 -5.4922 Q3.5781 -5.2188 3.2188 -4.7422 Q2.8594 -4.2656 2.6797 -3.8594 Q2.5 -3.4531 2.4062 -2.9531 L1.7812 0 L0.5938 0 L1.6406 -4.6719 Q1.7812 -5.3125 1.7812 -5.6406 Q1.7812 -5.8438 1.7188 -5.9453 Q1.6562 -6.0469 1.5156 -6.1016 Q1.375 -6.1562 1.0469 -6.1719 L1.125 -6.5312 L2.7188 -6.5938 Z" stroke="none"/></g><g text-rendering="optimizeLegibility" transform="translate(77.6254,21.9948)" color-rendering="optimizeQuality" color-interpolation="linearRGB" image-rendering="optimizeQuality"><path d="M3.6719 -2.8438 Q3.6094 -2.5469 3.5703 -2.3438 Q3.5312 -2.1406 3.5 -1.8438 Q3.4688 -1.5469 3.4688 -1.3125 Q3.4688 -1.0156 3.5625 -0.8438 Q3.6562 -0.6719 3.8516 -0.5938 Q4.0469 -0.5156 4.5312 -0.4844 L4.4219 0 L0.4062 0 L0.5156 -0.4844 Q0.8906 -0.5312 1.0781 -0.6641 Q1.2656 -0.7969 1.3906 -1.0312 Q1.5156 -1.2656 1.625 -1.6016 Q1.7344 -1.9375 1.9375 -2.9062 L3.6094 -10.4375 Q3.8125 -11.4062 3.8125 -11.9688 Q3.8125 -12.4531 3.5938 -12.6406 Q3.375 -12.8281 2.8594 -12.8594 L2.9688 -13.3281 L11.7812 -13.3281 L11.1094 -10.3281 L10.1719 -10.3281 Q10.125 -11.0312 10.0547 -11.4219 Q9.9844 -11.8125 9.8828 -12.0078 Q9.7812 -12.2031 9.6562 -12.2969 Q9.5312 -12.3906 9.3438 -12.4297 Q9.1562 -12.4688 8.7969 -12.4688 L5.7969 -12.4688 L4.625 -7.1562 L6.4531 -7.1562 Q6.8906 -7.1562 7.1719 -7.2734 Q7.4531 -7.3906 7.6953 -7.7031 Q7.9375 -8.0156 8.2969 -8.75 L9.1875 -8.75 L8.25 -4.625 L7.3906 -4.625 Q7.3906 -5.2344 7.3594 -5.5781 Q7.3281 -5.9219 7.2422 -6.0547 Q7.1562 -6.1875 6.9844 -6.2422 Q6.8125 -6.2969 6.3594 -6.2969 L4.4375 -6.2969 L3.6719 -2.8438 Z" stroke="none"/></g><g text-rendering="optimizeLegibility" transform="translate(91.1254,25.2136)" color-rendering="optimizeQuality" color-interpolation="linearRGB" image-rendering="optimizeQuality"><path d="M1.2656 -5.0469 Q1.2031 -5.5625 1.1406 -5.7656 Q1.0781 -5.9688 0.9375 -6.0781 Q0.7969 -6.1875 0.5 -6.2031 L0.5625 -6.5312 L2.3281 -6.5312 L2.8438 -1.0938 Q5.1562 -4.2656 5.1562 -5.625 Q5.1562 -5.9531 5.0156 -6.0703 Q4.875 -6.1875 4.5469 -6.2031 L4.625 -6.5312 L6.3906 -6.5312 L6.5625 -6.1875 Q6.2031 -5.25 5.6406 -4.2266 Q5.0781 -3.2031 4.2656 -1.9922 Q3.4531 -0.7812 2.4531 0.5156 Q1.6875 1.5312 1.1562 2.0312 Q0.7656 2.4219 0.4219 2.625 Q0.0781 2.8281 -0.2344 2.9141 Q-0.5469 3 -0.9062 3 Q-1.0938 3 -1.3281 2.9609 Q-1.5625 2.9219 -1.7188 2.8594 L-1.4219 1.5938 L-0.8906 1.5938 Q-0.8906 1.8125 -0.7891 1.9531 Q-0.6875 2.0938 -0.4844 2.0938 Q-0.2656 2.0938 -0.1094 2.0469 Q0.0469 2 0.2188 1.8984 Q0.3906 1.7969 0.6406 1.5703 Q0.8906 1.3438 1.2109 0.9766 Q1.5312 0.6094 1.9219 0.0781 L1.2656 -5.0469 Z" stroke="none"/></g><g text-rendering="optimizeLegibility" transform="translate(97.516,25.2136)" color-rendering="optimizeQuality" color-interpolation="linearRGB" image-rendering="optimizeQuality"><path d="M2.1094 -1.5938 Q2.2031 -1.1094 2.2031 -0.6406 Q2.2031 -0.1719 2.0391 0.2266 Q1.875 0.625 1.5156 1.0234 Q1.1562 1.4219 0.5312 1.8906 L0.1719 1.4688 Q0.5156 1.1406 0.6719 0.875 Q0.8281 0.6094 0.8984 0.2734 Q0.9688 -0.0625 0.9688 -0.5625 Q0.9688 -1.0781 0.9219 -1.5938 L2.1094 -1.5938 Z" stroke="none"/></g><g text-rendering="optimizeLegibility" transform="translate(99.7191,25.2136)" color-rendering="optimizeQuality" color-interpolation="linearRGB" image-rendering="optimizeQuality"><path d="M4.75 -1.7812 Q4.75 -1.3906 4.7969 -1.1875 Q4.8438 -0.9844 4.9531 -0.8594 Q5.0625 -0.7344 5.2734 -0.6641 Q5.4844 -0.5938 5.8047 -0.5547 Q6.125 -0.5156 6.6562 -0.5 L6.6562 0 L1.6094 0 L1.6094 -0.5 Q2.3594 -0.5312 2.6875 -0.5938 Q3.0156 -0.6562 3.1875 -0.7656 Q3.3594 -0.875 3.4375 -1.0938 Q3.5156 -1.3125 3.5156 -1.7812 L3.5156 -7.3281 Q3.5156 -7.6094 3.4219 -7.7344 Q3.3281 -7.8594 3.1406 -7.8594 Q2.9219 -7.8594 2.5156 -7.6328 Q2.1094 -7.4062 1.5156 -7 L1.2188 -7.5312 L4.4219 -9.4375 L4.7969 -9.4375 Q4.75 -8.7812 4.75 -7.625 L4.75 -1.7812 Z" stroke="none"/></g><g text-rendering="optimizeLegibility" transform="translate(89.4066,11.987)" color-rendering="optimizeQuality" color-interpolation="linearRGB" image-rendering="optimizeQuality"><path d="M2.7188 -6.5938 L3.125 -6.5938 L2.6562 -4.9219 L2.7344 -4.8906 Q3.3906 -5.7812 4.0078 -6.2109 Q4.625 -6.6406 5.2812 -6.6406 Q5.7812 -6.6406 6.1094 -6.5625 L5.7812 -5.0312 L5.0781 -5.0312 Q5.0312 -5.3906 4.9141 -5.5781 Q4.7969 -5.7656 4.5469 -5.7656 Q4.2812 -5.7656 3.9297 -5.4922 Q3.5781 -5.2188 3.2188 -4.7422 Q2.8594 -4.2656 2.6797 -3.8594 Q2.5 -3.4531 2.4062 -2.9531 L1.7812 0 L0.5938 0 L1.6406 -4.6719 Q1.7812 -5.3125 1.7812 -5.6406 Q1.7812 -5.8438 1.7188 -5.9453 Q1.6562 -6.0469 1.5156 -6.1016 Q1.375 -6.1562 1.0469 -6.1719 L1.125 -6.5312 L2.7188 -6.5938 Z" stroke="none"/></g><g text-rendering="optimizeLegibility" transform="translate(119.7976,21.9948)" color-rendering="optimizeQuality" color-interpolation="linearRGB" image-rendering="optimizeQuality"><path d="M3.6719 -2.8438 Q3.6094 -2.5469 3.5703 -2.3438 Q3.5312 -2.1406 3.5 -1.8438 Q3.4688 -1.5469 3.4688 -1.3125 Q3.4688 -1.0156 3.5625 -0.8438 Q3.6562 -0.6719 3.8516 -0.5938 Q4.0469 -0.5156 4.5312 -0.4844 L4.4219 0 L0.4062 0 L0.5156 -0.4844 Q0.8906 -0.5312 1.0781 -0.6641 Q1.2656 -0.7969 1.3906 -1.0312 Q1.5156 -1.2656 1.625 -1.6016 Q1.7344 -1.9375 1.9375 -2.9062 L3.6094 -10.4375 Q3.8125 -11.4062 3.8125 -11.9688 Q3.8125 -12.4531 3.5938 -12.6406 Q3.375 -12.8281 2.8594 -12.8594 L2.9688 -13.3281 L11.7812 -13.3281 L11.1094 -10.3281 L10.1719 -10.3281 Q10.125 -11.0312 10.0547 -11.4219 Q9.9844 -11.8125 9.8828 -12.0078 Q9.7812 -12.2031 9.6562 -12.2969 Q9.5312 -12.3906 9.3438 -12.4297 Q9.1562 -12.4688 8.7969 -12.4688 L5.7969 -12.4688 L4.625 -7.1562 L6.4531 -7.1562 Q6.8906 -7.1562 7.1719 -7.2734 Q7.4531 -7.3906 7.6953 -7.7031 Q7.9375 -8.0156 8.2969 -8.75 L9.1875 -8.75 L8.25 -4.625 L7.3906 -4.625 Q7.3906 -5.2344 7.3594 -5.5781 Q7.3281 -5.9219 7.2422 -6.0547 Q7.1562 -6.1875 6.9844 -6.2422 Q6.8125 -6.2969 6.3594 -6.2969 L4.4375 -6.2969 L3.6719 -2.8438 Z" stroke="none"/></g><g text-rendering="optimizeLegibility" transform="translate(131.6257,25.7683)" color-rendering="optimizeQuality" color-interpolation="linearRGB" image-rendering="optimizeQuality"><path d="M5.4531 -1.9219 L5.0312 0 L0.0781 0 L-0.0469 -0.3281 L3.6875 -4.6406 Q4.4844 -5.5469 4.8594 -5.9375 L4.8125 -5.9844 L3.2188 -5.9844 Q2.8594 -5.9844 2.6953 -5.9375 Q2.5312 -5.8906 2.3672 -5.7656 Q2.2031 -5.6406 2.0156 -5.4062 Q1.8281 -5.1719 1.5938 -4.7344 L0.9844 -4.7344 L1.3906 -6.5312 L6.25 -6.5312 L6.375 -6.1875 L1.4688 -0.6094 L1.5156 -0.5469 L3.0625 -0.5469 Q3.4688 -0.5469 3.6875 -0.5938 Q3.9062 -0.6406 4.0703 -0.7656 Q4.2344 -0.8906 4.4062 -1.1406 Q4.5781 -1.3906 4.8438 -1.9219 L5.4531 -1.9219 Z" stroke="none"/></g><g text-rendering="optimizeLegibility" transform="translate(137.8288,25.7683)" color-rendering="optimizeQuality" color-interpolation="linearRGB" image-rendering="optimizeQuality"><path d="M2.1094 -1.5938 Q2.2031 -1.1094 2.2031 -0.6406 Q2.2031 -0.1719 2.0391 0.2266 Q1.875 0.625 1.5156 1.0234 Q1.1562 1.4219 0.5312 1.8906 L0.1719 1.4688 Q0.5156 1.1406 0.6719 0.875 Q0.8281 0.6094 0.8984 0.2734 Q0.9688 -0.0625 0.9688 -0.5625 Q0.9688 -1.0781 0.9219 -1.5938 L2.1094 -1.5938 Z" stroke="none"/></g><g text-rendering="optimizeLegibility" transform="translate(140.032,25.7683)" color-rendering="optimizeQuality" color-interpolation="linearRGB" image-rendering="optimizeQuality"><path d="M4.75 -1.7812 Q4.75 -1.3906 4.7969 -1.1875 Q4.8438 -0.9844 4.9531 -0.8594 Q5.0625 -0.7344 5.2734 -0.6641 Q5.4844 -0.5938 5.8047 -0.5547 Q6.125 -0.5156 6.6562 -0.5 L6.6562 0 L1.6094 0 L1.6094 -0.5 Q2.3594 -0.5312 2.6875 -0.5938 Q3.0156 -0.6562 3.1875 -0.7656 Q3.3594 -0.875 3.4375 -1.0938 Q3.5156 -1.3125 3.5156 -1.7812 L3.5156 -7.3281 Q3.5156 -7.6094 3.4219 -7.7344 Q3.3281 -7.8594 3.1406 -7.8594 Q2.9219 -7.8594 2.5156 -7.6328 Q2.1094 -7.4062 1.5156 -7 L1.2188 -7.5312 L4.4219 -9.4375 L4.7969 -9.4375 Q4.75 -8.7812 4.75 -7.625 L4.75 -1.7812 Z" stroke="none"/></g><g text-rendering="optimizeLegibility" transform="translate(131.5788,11.987)" color-rendering="optimizeQuality" color-interpolation="linearRGB" image-rendering="optimizeQuality"><path d="M2.7188 -6.5938 L3.125 -6.5938 L2.6562 -4.9219 L2.7344 -4.8906 Q3.3906 -5.7812 4.0078 -6.2109 Q4.625 -6.6406 5.2812 -6.6406 Q5.7812 -6.6406 6.1094 -6.5625 L5.7812 -5.0312 L5.0781 -5.0312 Q5.0312 -5.3906 4.9141 -5.5781 Q4.7969 -5.7656 4.5469 -5.7656 Q4.2812 -5.7656 3.9297 -5.4922 Q3.5781 -5.2188 3.2188 -4.7422 Q2.8594 -4.2656 2.6797 -3.8594 Q2.5 -3.4531 2.4062 -2.9531 L1.7812 0 L0.5938 0 L1.6406 -4.6719 Q1.7812 -5.3125 1.7812 -5.6406 Q1.7812 -5.8438 1.7188 -5.9453 Q1.6562 -6.0469 1.5156 -6.1016 Q1.375 -6.1562 1.0469 -6.1719 L1.125 -6.5312 L2.7188 -6.5938 Z" stroke="none"/></g><g text-rendering="optimizeLegibility" transform="translate(160.1104,21.9948)" color-rendering="optimizeQuality" color-interpolation="linearRGB" image-rendering="optimizeQuality"><path d="M13.25 -13.3281 L16.3125 -13.3281 L16.2188 -12.8594 Q15.8438 -12.7812 15.6797 -12.6797 Q15.5156 -12.5781 15.3828 -12.3828 Q15.25 -12.1875 15.1172 -11.7734 Q14.9844 -11.3594 14.7812 -10.4219 L13.1094 -2.8438 Q12.9844 -2.2656 12.9453 -1.9297 Q12.9062 -1.5938 12.9062 -1.3125 Q12.9062 -0.875 13.125 -0.6953 Q13.3438 -0.5156 13.875 -0.4844 L13.7656 0 L9.8594 0 L9.9688 -0.4844 Q10.3281 -0.5312 10.5156 -0.6641 Q10.7031 -0.7969 10.8281 -1.0312 Q10.9531 -1.2656 11.0625 -1.6016 Q11.1719 -1.9375 11.3906 -2.9062 L12.6875 -8.7969 Q12.9375 -9.9688 13.3281 -11.2969 L13.1875 -11.2969 Q12.9062 -10.7656 12.6328 -10.2812 Q12.3594 -9.7969 11.8125 -8.8906 L7.3594 -1.5469 L6.2969 -1.5469 L5.3594 -8.875 L5.0938 -11.5 L4.9062 -11.5 Q4.5312 -9.0469 4.1562 -7.3594 L3.2188 -3.0938 Q3.0625 -2.3594 3.0078 -1.9922 Q2.9531 -1.625 2.9531 -1.3125 Q2.9531 -0.875 3.1797 -0.6953 Q3.4062 -0.5156 3.9219 -0.4844 L3.8125 0 L0.3906 0 L0.5 -0.4844 Q0.875 -0.5312 1.0547 -0.6641 Q1.2344 -0.7969 1.3672 -1.0312 Q1.5 -1.2656 1.6016 -1.6016 Q1.7031 -1.9375 1.9219 -2.9062 L3.5781 -10.4375 Q3.6875 -10.8438 3.7422 -11.2266 Q3.7969 -11.6094 3.7969 -12 Q3.7969 -12.4688 3.5625 -12.6484 Q3.3281 -12.8281 2.8438 -12.8594 L2.9531 -13.3281 L6.4375 -13.3281 L7.5469 -3.8594 L13.25 -13.3281 Z" stroke="none"/></g><g text-rendering="optimizeLegibility" transform="translate(176.4698,25.7683)" color-rendering="optimizeQuality" color-interpolation="linearRGB" image-rendering="optimizeQuality"><path d="M5.4531 -1.9219 L5.0312 0 L0.0781 0 L-0.0469 -0.3281 L3.6875 -4.6406 Q4.4844 -5.5469 4.8594 -5.9375 L4.8125 -5.9844 L3.2188 -5.9844 Q2.8594 -5.9844 2.6953 -5.9375 Q2.5312 -5.8906 2.3672 -5.7656 Q2.2031 -5.6406 2.0156 -5.4062 Q1.8281 -5.1719 1.5938 -4.7344 L0.9844 -4.7344 L1.3906 -6.5312 L6.25 -6.5312 L6.375 -6.1875 L1.4688 -0.6094 L1.5156 -0.5469 L3.0625 -0.5469 Q3.4688 -0.5469 3.6875 -0.5938 Q3.9062 -0.6406 4.0703 -0.7656 Q4.2344 -0.8906 4.4062 -1.1406 Q4.5781 -1.3906 4.8438 -1.9219 L5.4531 -1.9219 Z" stroke="none"/></g><g text-rendering="optimizeLegibility" transform="translate(182.6729,25.7683)" color-rendering="optimizeQuality" color-interpolation="linearRGB" image-rendering="optimizeQuality"><path d="M2.1094 -1.5938 Q2.2031 -1.1094 2.2031 -0.6406 Q2.2031 -0.1719 2.0391 0.2266 Q1.875 0.625 1.5156 1.0234 Q1.1562 1.4219 0.5312 1.8906 L0.1719 1.4688 Q0.5156 1.1406 0.6719 0.875 Q0.8281 0.6094 0.8984 0.2734 Q0.9688 -0.0625 0.9688 -0.5625 Q0.9688 -1.0781 0.9219 -1.5938 L2.1094 -1.5938 Z" stroke="none"/></g><g text-rendering="optimizeLegibility" transform="translate(184.8761,25.7683)" color-rendering="optimizeQuality" color-interpolation="linearRGB" image-rendering="optimizeQuality"><path d="M4.75 -1.7812 Q4.75 -1.3906 4.7969 -1.1875 Q4.8438 -0.9844 4.9531 -0.8594 Q5.0625 -0.7344 5.2734 -0.6641 Q5.4844 -0.5938 5.8047 -0.5547 Q6.125 -0.5156 6.6562 -0.5 L6.6562 0 L1.6094 0 L1.6094 -0.5 Q2.3594 -0.5312 2.6875 -0.5938 Q3.0156 -0.6562 3.1875 -0.7656 Q3.3594 -0.875 3.4375 -1.0938 Q3.5156 -1.3125 3.5156 -1.7812 L3.5156 -7.3281 Q3.5156 -7.6094 3.4219 -7.7344 Q3.3281 -7.8594 3.1406 -7.8594 Q2.9219 -7.8594 2.5156 -7.6328 Q2.1094 -7.4062 1.5156 -7 L1.2188 -7.5312 L4.4219 -9.4375 L4.7969 -9.4375 Q4.75 -8.7812 4.75 -7.625 L4.75 -1.7812 Z" stroke="none"/></g><g text-rendering="optimizeLegibility" transform="translate(176.4229,11.987)" color-rendering="optimizeQuality" color-interpolation="linearRGB" image-rendering="optimizeQuality"><path d="M2.7188 -6.5938 L3.125 -6.5938 L2.6562 -4.9219 L2.7344 -4.8906 Q3.3906 -5.7812 4.0078 -6.2109 Q4.625 -6.6406 5.2812 -6.6406 Q5.7812 -6.6406 6.1094 -6.5625 L5.7812 -5.0312 L5.0781 -5.0312 Q5.0312 -5.3906 4.9141 -5.5781 Q4.7969 -5.7656 4.5469 -5.7656 Q4.2812 -5.7656 3.9297 -5.4922 Q3.5781 -5.2188 3.2188 -4.7422 Q2.8594 -4.2656 2.6797 -3.8594 Q2.5 -3.4531 2.4062 -2.9531 L1.7812 0 L0.5938 0 L1.6406 -4.6719 Q1.7812 -5.3125 1.7812 -5.6406 Q1.7812 -5.8438 1.7188 -5.9453 Q1.6562 -6.0469 1.5156 -6.1016 Q1.375 -6.1562 1.0469 -6.1719 L1.125 -6.5312 L2.7188 -6.5938 Z" stroke="none"/></g><g text-rendering="optimizeLegibility" transform="translate(204.9545,21.9948)" color-rendering="optimizeQuality" color-interpolation="linearRGB" image-rendering="optimizeQuality"><path d="M3.6719 -2.8438 Q3.6094 -2.5469 3.5703 -2.3438 Q3.5312 -2.1406 3.5 -1.8438 Q3.4688 -1.5469 3.4688 -1.3125 Q3.4688 -1.0156 3.5625 -0.8438 Q3.6562 -0.6719 3.8516 -0.5938 Q4.0469 -0.5156 4.5312 -0.4844 L4.4219 0 L0.4062 0 L0.5156 -0.4844 Q0.8906 -0.5312 1.0781 -0.6641 Q1.2656 -0.7969 1.3906 -1.0312 Q1.5156 -1.2656 1.625 -1.6016 Q1.7344 -1.9375 1.9375 -2.9062 L3.6094 -10.4375 Q3.8125 -11.4062 3.8125 -11.9688 Q3.8125 -12.4531 3.5938 -12.6406 Q3.375 -12.8281 2.8594 -12.8594 L2.9688 -13.3281 L11.7812 -13.3281 L11.1094 -10.3281 L10.1719 -10.3281 Q10.125 -11.0312 10.0547 -11.4219 Q9.9844 -11.8125 9.8828 -12.0078 Q9.7812 -12.2031 9.6562 -12.2969 Q9.5312 -12.3906 9.3438 -12.4297 Q9.1562 -12.4688 8.7969 -12.4688 L5.7969 -12.4688 L4.625 -7.1562 L6.4531 -7.1562 Q6.8906 -7.1562 7.1719 -7.2734 Q7.4531 -7.3906 7.6953 -7.7031 Q7.9375 -8.0156 8.2969 -8.75 L9.1875 -8.75 L8.25 -4.625 L7.3906 -4.625 Q7.3906 -5.2344 7.3594 -5.5781 Q7.3281 -5.9219 7.2422 -6.0547 Q7.1562 -6.1875 6.9844 -6.2422 Q6.8125 -6.2969 6.3594 -6.2969 L4.4375 -6.2969 L3.6719 -2.8438 Z" stroke="none"/></g><g text-rendering="optimizeLegibility" transform="translate(217.017,25.7683)" color-rendering="optimizeQuality" color-interpolation="linearRGB" image-rendering="optimizeQuality"><path d="M6.4688 -6.2031 Q5.1406 -4.7812 3.6875 -3.4062 L4.3281 -1.9062 Q4.5781 -1.3125 4.7266 -1.0234 Q4.875 -0.7344 5 -0.6094 Q5.125 -0.4844 5.25 -0.4297 Q5.375 -0.375 5.6406 -0.3281 L5.5625 0 L3.8594 0 L2.9062 -2.75 Q2.75 -2.6094 2.4766 -2.3516 Q2.2031 -2.0938 1.9531 -1.8047 Q1.7031 -1.5156 1.6016 -1.3359 Q1.5 -1.1562 1.4688 -1.0234 Q1.4375 -0.8906 1.4375 -0.7656 Q1.4375 -0.5781 1.5391 -0.4766 Q1.6406 -0.375 1.875 -0.3281 L1.7969 0 L-0.1562 0 L-0.2812 -0.3281 Q1.2188 -1.9375 2.6719 -3.2969 L2.0156 -4.8125 Q1.8125 -5.2812 1.6953 -5.5234 Q1.5781 -5.7656 1.4609 -5.8984 Q1.3438 -6.0312 1.1953 -6.1094 Q1.0469 -6.1875 0.7812 -6.2031 L0.8594 -6.5312 L2.5625 -6.5312 L3.4688 -3.9531 Q3.7969 -4.2656 4.1016 -4.5938 Q4.4062 -4.9219 4.5312 -5.1172 Q4.6562 -5.3125 4.7031 -5.4609 Q4.75 -5.6094 4.75 -5.7656 Q4.75 -6.1406 4.3125 -6.2031 L4.375 -6.5312 L6.3281 -6.5312 L6.4688 -6.2031 Z" stroke="none"/></g><g text-rendering="optimizeLegibility" transform="translate(223.3139,25.7683)" color-rendering="optimizeQuality" color-interpolation="linearRGB" image-rendering="optimizeQuality"><path d="M2.1094 -1.5938 Q2.2031 -1.1094 2.2031 -0.6406 Q2.2031 -0.1719 2.0391 0.2266 Q1.875 0.625 1.5156 1.0234 Q1.1562 1.4219 0.5312 1.8906 L0.1719 1.4688 Q0.5156 1.1406 0.6719 0.875 Q0.8281 0.6094 0.8984 0.2734 Q0.9688 -0.0625 0.9688 -0.5625 Q0.9688 -1.0781 0.9219 -1.5938 L2.1094 -1.5938 Z" stroke="none"/></g><g text-rendering="optimizeLegibility" transform="translate(225.517,25.7683)" color-rendering="optimizeQuality" color-interpolation="linearRGB" image-rendering="optimizeQuality"><path d="M4.7969 -1.0938 Q5.1406 -1.0938 5.3438 -1.1328 Q5.5469 -1.1719 5.6719 -1.2734 Q5.7969 -1.375 5.8672 -1.5234 Q5.9375 -1.6719 6.0469 -2 L6.625 -2 L6.5156 0 L0.875 0 L0.875 -0.3281 Q1.1719 -1.0469 1.6719 -1.7969 Q2.1719 -2.5469 3.0938 -3.5625 Q3.8906 -4.4375 4.2344 -4.8906 Q4.6094 -5.3906 4.7969 -5.75 Q4.9844 -6.1094 5.0703 -6.4219 Q5.1562 -6.7344 5.1562 -7.0625 Q5.1562 -7.5781 4.9922 -7.9688 Q4.8281 -8.3594 4.4922 -8.5859 Q4.1562 -8.8125 3.6406 -8.8125 Q2.3594 -8.8125 1.9219 -7.3906 L1.0938 -7.3906 L1.0938 -8.7031 Q1.9219 -9.0938 2.6406 -9.2656 Q3.3594 -9.4375 3.9375 -9.4375 Q5.2031 -9.4375 5.8516 -8.8828 Q6.5 -8.3281 6.5 -7.2656 Q6.5 -6.9062 6.4297 -6.6016 Q6.3594 -6.2969 6.2031 -6 Q6.0469 -5.7031 5.7891 -5.3594 Q5.5312 -5.0156 5.2188 -4.6641 Q4.9062 -4.3125 4.125 -3.5 Q2.8281 -2.125 2.2188 -1.0938 L4.7969 -1.0938 Z" stroke="none"/></g><g text-rendering="optimizeLegibility" transform="translate(216.7358,11.987)" color-rendering="optimizeQuality" color-interpolation="linearRGB" image-rendering="optimizeQuality"><path d="M2.7188 -6.5938 L3.125 -6.5938 L2.6562 -4.9219 L2.7344 -4.8906 Q3.3906 -5.7812 4.0078 -6.2109 Q4.625 -6.6406 5.2812 -6.6406 Q5.7812 -6.6406 6.1094 -6.5625 L5.7812 -5.0312 L5.0781 -5.0312 Q5.0312 -5.3906 4.9141 -5.5781 Q4.7969 -5.7656 4.5469 -5.7656 Q4.2812 -5.7656 3.9297 -5.4922 Q3.5781 -5.2188 3.2188 -4.7422 Q2.8594 -4.2656 2.6797 -3.8594 Q2.5 -3.4531 2.4062 -2.9531 L1.7812 0 L0.5938 0 L1.6406 -4.6719 Q1.7812 -5.3125 1.7812 -5.6406 Q1.7812 -5.8438 1.7188 -5.9453 Q1.6562 -6.0469 1.5156 -6.1016 Q1.375 -6.1562 1.0469 -6.1719 L1.125 -6.5312 L2.7188 -6.5938 Z" stroke="none"/></g><g text-rendering="optimizeLegibility" transform="translate(245.5643,21.9948)" color-rendering="optimizeQuality" color-interpolation="linearRGB" image-rendering="optimizeQuality"><path d="M3.6719 -2.8438 Q3.6094 -2.5469 3.5703 -2.3438 Q3.5312 -2.1406 3.5 -1.8438 Q3.4688 -1.5469 3.4688 -1.3125 Q3.4688 -1.0156 3.5625 -0.8438 Q3.6562 -0.6719 3.8516 -0.5938 Q4.0469 -0.5156 4.5312 -0.4844 L4.4219 0 L0.4062 0 L0.5156 -0.4844 Q0.8906 -0.5312 1.0781 -0.6641 Q1.2656 -0.7969 1.3906 -1.0312 Q1.5156 -1.2656 1.625 -1.6016 Q1.7344 -1.9375 1.9375 -2.9062 L3.6094 -10.4375 Q3.8125 -11.4062 3.8125 -11.9688 Q3.8125 -12.4531 3.5938 -12.6406 Q3.375 -12.8281 2.8594 -12.8594 L2.9688 -13.3281 L11.7812 -13.3281 L11.1094 -10.3281 L10.1719 -10.3281 Q10.125 -11.0312 10.0547 -11.4219 Q9.9844 -11.8125 9.8828 -12.0078 Q9.7812 -12.2031 9.6562 -12.2969 Q9.5312 -12.3906 9.3438 -12.4297 Q9.1562 -12.4688 8.7969 -12.4688 L5.7969 -12.4688 L4.625 -7.1562 L6.4531 -7.1562 Q6.8906 -7.1562 7.1719 -7.2734 Q7.4531 -7.3906 7.6953 -7.7031 Q7.9375 -8.0156 8.2969 -8.75 L9.1875 -8.75 L8.25 -4.625 L7.3906 -4.625 Q7.3906 -5.2344 7.3594 -5.5781 Q7.3281 -5.9219 7.2422 -6.0547 Q7.1562 -6.1875 6.9844 -6.2422 Q6.8125 -6.2969 6.3594 -6.2969 L4.4375 -6.2969 L3.6719 -2.8438 Z" stroke="none"/></g><g text-rendering="optimizeLegibility" transform="translate(259.0643,25.2136)" color-rendering="optimizeQuality" color-interpolation="linearRGB" image-rendering="optimizeQuality"><path d="M1.2656 -5.0469 Q1.2031 -5.5625 1.1406 -5.7656 Q1.0781 -5.9688 0.9375 -6.0781 Q0.7969 -6.1875 0.5 -6.2031 L0.5625 -6.5312 L2.3281 -6.5312 L2.8438 -1.0938 Q5.1562 -4.2656 5.1562 -5.625 Q5.1562 -5.9531 5.0156 -6.0703 Q4.875 -6.1875 4.5469 -6.2031 L4.625 -6.5312 L6.3906 -6.5312 L6.5625 -6.1875 Q6.2031 -5.25 5.6406 -4.2266 Q5.0781 -3.2031 4.2656 -1.9922 Q3.4531 -0.7812 2.4531 0.5156 Q1.6875 1.5312 1.1562 2.0312 Q0.7656 2.4219 0.4219 2.625 Q0.0781 2.8281 -0.2344 2.9141 Q-0.5469 3 -0.9062 3 Q-1.0938 3 -1.3281 2.9609 Q-1.5625 2.9219 -1.7188 2.8594 L-1.4219 1.5938 L-0.8906 1.5938 Q-0.8906 1.8125 -0.7891 1.9531 Q-0.6875 2.0938 -0.4844 2.0938 Q-0.2656 2.0938 -0.1094 2.0469 Q0.0469 2 0.2188 1.8984 Q0.3906 1.7969 0.6406 1.5703 Q0.8906 1.3438 1.2109 0.9766 Q1.5312 0.6094 1.9219 0.0781 L1.2656 -5.0469 Z" stroke="none"/></g><g text-rendering="optimizeLegibility" transform="translate(265.4549,25.2136)" color-rendering="optimizeQuality" color-interpolation="linearRGB" image-rendering="optimizeQuality"><path d="M2.1094 -1.5938 Q2.2031 -1.1094 2.2031 -0.6406 Q2.2031 -0.1719 2.0391 0.2266 Q1.875 0.625 1.5156 1.0234 Q1.1562 1.4219 0.5312 1.8906 L0.1719 1.4688 Q0.5156 1.1406 0.6719 0.875 Q0.8281 0.6094 0.8984 0.2734 Q0.9688 -0.0625 0.9688 -0.5625 Q0.9688 -1.0781 0.9219 -1.5938 L2.1094 -1.5938 Z" stroke="none"/></g><g text-rendering="optimizeLegibility" transform="translate(267.658,25.2136)" color-rendering="optimizeQuality" color-interpolation="linearRGB" image-rendering="optimizeQuality"><path d="M4.7969 -1.0938 Q5.1406 -1.0938 5.3438 -1.1328 Q5.5469 -1.1719 5.6719 -1.2734 Q5.7969 -1.375 5.8672 -1.5234 Q5.9375 -1.6719 6.0469 -2 L6.625 -2 L6.5156 0 L0.875 0 L0.875 -0.3281 Q1.1719 -1.0469 1.6719 -1.7969 Q2.1719 -2.5469 3.0938 -3.5625 Q3.8906 -4.4375 4.2344 -4.8906 Q4.6094 -5.3906 4.7969 -5.75 Q4.9844 -6.1094 5.0703 -6.4219 Q5.1562 -6.7344 5.1562 -7.0625 Q5.1562 -7.5781 4.9922 -7.9688 Q4.8281 -8.3594 4.4922 -8.5859 Q4.1562 -8.8125 3.6406 -8.8125 Q2.3594 -8.8125 1.9219 -7.3906 L1.0938 -7.3906 L1.0938 -8.7031 Q1.9219 -9.0938 2.6406 -9.2656 Q3.3594 -9.4375 3.9375 -9.4375 Q5.2031 -9.4375 5.8516 -8.8828 Q6.5 -8.3281 6.5 -7.2656 Q6.5 -6.9062 6.4297 -6.6016 Q6.3594 -6.2969 6.2031 -6 Q6.0469 -5.7031 5.7891 -5.3594 Q5.5312 -5.0156 5.2188 -4.6641 Q4.9062 -4.3125 4.125 -3.5 Q2.8281 -2.125 2.2188 -1.0938 L4.7969 -1.0938 Z" stroke="none"/></g><g text-rendering="optimizeLegibility" transform="translate(257.3455,11.987)" color-rendering="optimizeQuality" color-interpolation="linearRGB" image-rendering="optimizeQuality"><path d="M2.7188 -6.5938 L3.125 -6.5938 L2.6562 -4.9219 L2.7344 -4.8906 Q3.3906 -5.7812 4.0078 -6.2109 Q4.625 -6.6406 5.2812 -6.6406 Q5.7812 -6.6406 6.1094 -6.5625 L5.7812 -5.0312 L5.0781 -5.0312 Q5.0312 -5.3906 4.9141 -5.5781 Q4.7969 -5.7656 4.5469 -5.7656 Q4.2812 -5.7656 3.9297 -5.4922 Q3.5781 -5.2188 3.2188 -4.7422 Q2.8594 -4.2656 2.6797 -3.8594 Q2.5 -3.4531 2.4062 -2.9531 L1.7812 0 L0.5938 0 L1.6406 -4.6719 Q1.7812 -5.3125 1.7812 -5.6406 Q1.7812 -5.8438 1.7188 -5.9453 Q1.6562 -6.0469 1.5156 -6.1016 Q1.375 -6.1562 1.0469 -6.1719 L1.125 -6.5312 L2.7188 -6.5938 Z" stroke="none"/></g><g text-rendering="optimizeLegibility" transform="translate(287.7052,21.9948)" color-rendering="optimizeQuality" color-interpolation="linearRGB" image-rendering="optimizeQuality"><path d="M3.6719 -2.8438 Q3.6094 -2.5469 3.5703 -2.3438 Q3.5312 -2.1406 3.5 -1.8438 Q3.4688 -1.5469 3.4688 -1.3125 Q3.4688 -1.0156 3.5625 -0.8438 Q3.6562 -0.6719 3.8516 -0.5938 Q4.0469 -0.5156 4.5312 -0.4844 L4.4219 0 L0.4062 0 L0.5156 -0.4844 Q0.8906 -0.5312 1.0781 -0.6641 Q1.2656 -0.7969 1.3906 -1.0312 Q1.5156 -1.2656 1.625 -1.6016 Q1.7344 -1.9375 1.9375 -2.9062 L3.6094 -10.4375 Q3.8125 -11.4062 3.8125 -11.9688 Q3.8125 -12.4531 3.5938 -12.6406 Q3.375 -12.8281 2.8594 -12.8594 L2.9688 -13.3281 L11.7812 -13.3281 L11.1094 -10.3281 L10.1719 -10.3281 Q10.125 -11.0312 10.0547 -11.4219 Q9.9844 -11.8125 9.8828 -12.0078 Q9.7812 -12.2031 9.6562 -12.2969 Q9.5312 -12.3906 9.3438 -12.4297 Q9.1562 -12.4688 8.7969 -12.4688 L5.7969 -12.4688 L4.625 -7.1562 L6.4531 -7.1562 Q6.8906 -7.1562 7.1719 -7.2734 Q7.4531 -7.3906 7.6953 -7.7031 Q7.9375 -8.0156 8.2969 -8.75 L9.1875 -8.75 L8.25 -4.625 L7.3906 -4.625 Q7.3906 -5.2344 7.3594 -5.5781 Q7.3281 -5.9219 7.2422 -6.0547 Q7.1562 -6.1875 6.9844 -6.2422 Q6.8125 -6.2969 6.3594 -6.2969 L4.4375 -6.2969 L3.6719 -2.8438 Z" stroke="none"/></g><g text-rendering="optimizeLegibility" transform="translate(299.5334,25.7683)" color-rendering="optimizeQuality" color-interpolation="linearRGB" image-rendering="optimizeQuality"><path d="M5.4531 -1.9219 L5.0312 0 L0.0781 0 L-0.0469 -0.3281 L3.6875 -4.6406 Q4.4844 -5.5469 4.8594 -5.9375 L4.8125 -5.9844 L3.2188 -5.9844 Q2.8594 -5.9844 2.6953 -5.9375 Q2.5312 -5.8906 2.3672 -5.7656 Q2.2031 -5.6406 2.0156 -5.4062 Q1.8281 -5.1719 1.5938 -4.7344 L0.9844 -4.7344 L1.3906 -6.5312 L6.25 -6.5312 L6.375 -6.1875 L1.4688 -0.6094 L1.5156 -0.5469 L3.0625 -0.5469 Q3.4688 -0.5469 3.6875 -0.5938 Q3.9062 -0.6406 4.0703 -0.7656 Q4.2344 -0.8906 4.4062 -1.1406 Q4.5781 -1.3906 4.8438 -1.9219 L5.4531 -1.9219 Z" stroke="none"/></g><g text-rendering="optimizeLegibility" transform="translate(305.7365,25.7683)" color-rendering="optimizeQuality" color-interpolation="linearRGB" image-rendering="optimizeQuality"><path d="M2.1094 -1.5938 Q2.2031 -1.1094 2.2031 -0.6406 Q2.2031 -0.1719 2.0391 0.2266 Q1.875 0.625 1.5156 1.0234 Q1.1562 1.4219 0.5312 1.8906 L0.1719 1.4688 Q0.5156 1.1406 0.6719 0.875 Q0.8281 0.6094 0.8984 0.2734 Q0.9688 -0.0625 0.9688 -0.5625 Q0.9688 -1.0781 0.9219 -1.5938 L2.1094 -1.5938 Z" stroke="none"/></g><g text-rendering="optimizeLegibility" transform="translate(307.9396,25.7683)" color-rendering="optimizeQuality" color-interpolation="linearRGB" image-rendering="optimizeQuality"><path d="M4.7969 -1.0938 Q5.1406 -1.0938 5.3438 -1.1328 Q5.5469 -1.1719 5.6719 -1.2734 Q5.7969 -1.375 5.8672 -1.5234 Q5.9375 -1.6719 6.0469 -2 L6.625 -2 L6.5156 0 L0.875 0 L0.875 -0.3281 Q1.1719 -1.0469 1.6719 -1.7969 Q2.1719 -2.5469 3.0938 -3.5625 Q3.8906 -4.4375 4.2344 -4.8906 Q4.6094 -5.3906 4.7969 -5.75 Q4.9844 -6.1094 5.0703 -6.4219 Q5.1562 -6.7344 5.1562 -7.0625 Q5.1562 -7.5781 4.9922 -7.9688 Q4.8281 -8.3594 4.4922 -8.5859 Q4.1562 -8.8125 3.6406 -8.8125 Q2.3594 -8.8125 1.9219 -7.3906 L1.0938 -7.3906 L1.0938 -8.7031 Q1.9219 -9.0938 2.6406 -9.2656 Q3.3594 -9.4375 3.9375 -9.4375 Q5.2031 -9.4375 5.8516 -8.8828 Q6.5 -8.3281 6.5 -7.2656 Q6.5 -6.9062 6.4297 -6.6016 Q6.3594 -6.2969 6.2031 -6 Q6.0469 -5.7031 5.7891 -5.3594 Q5.5312 -5.0156 5.2188 -4.6641 Q4.9062 -4.3125 4.125 -3.5 Q2.8281 -2.125 2.2188 -1.0938 L4.7969 -1.0938 Z" stroke="none"/></g><g text-rendering="optimizeLegibility" transform="translate(299.4865,11.987)" color-rendering="optimizeQuality" color-interpolation="linearRGB" image-rendering="optimizeQuality"><path d="M2.7188 -6.5938 L3.125 -6.5938 L2.6562 -4.9219 L2.7344 -4.8906 Q3.3906 -5.7812 4.0078 -6.2109 Q4.625 -6.6406 5.2812 -6.6406 Q5.7812 -6.6406 6.1094 -6.5625 L5.7812 -5.0312 L5.0781 -5.0312 Q5.0312 -5.3906 4.9141 -5.5781 Q4.7969 -5.7656 4.5469 -5.7656 Q4.2812 -5.7656 3.9297 -5.4922 Q3.5781 -5.2188 3.2188 -4.7422 Q2.8594 -4.2656 2.6797 -3.8594 Q2.5 -3.4531 2.4062 -2.9531 L1.7812 0 L0.5938 0 L1.6406 -4.6719 Q1.7812 -5.3125 1.7812 -5.6406 Q1.7812 -5.8438 1.7188 -5.9453 Q1.6562 -6.0469 1.5156 -6.1016 Q1.375 -6.1562 1.0469 -6.1719 L1.125 -6.5312 L2.7188 -6.5938 Z" stroke="none"/></g><g text-rendering="optimizeLegibility" transform="translate(327.9868,21.9948)" color-rendering="optimizeQuality" color-interpolation="linearRGB" image-rendering="optimizeQuality"><path d="M13.25 -13.3281 L16.3125 -13.3281 L16.2188 -12.8594 Q15.8438 -12.7812 15.6797 -12.6797 Q15.5156 -12.5781 15.3828 -12.3828 Q15.25 -12.1875 15.1172 -11.7734 Q14.9844 -11.3594 14.7812 -10.4219 L13.1094 -2.8438 Q12.9844 -2.2656 12.9453 -1.9297 Q12.9062 -1.5938 12.9062 -1.3125 Q12.9062 -0.875 13.125 -0.6953 Q13.3438 -0.5156 13.875 -0.4844 L13.7656 0 L9.8594 0 L9.9688 -0.4844 Q10.3281 -0.5312 10.5156 -0.6641 Q10.7031 -0.7969 10.8281 -1.0312 Q10.9531 -1.2656 11.0625 -1.6016 Q11.1719 -1.9375 11.3906 -2.9062 L12.6875 -8.7969 Q12.9375 -9.9688 13.3281 -11.2969 L13.1875 -11.2969 Q12.9062 -10.7656 12.6328 -10.2812 Q12.3594 -9.7969 11.8125 -8.8906 L7.3594 -1.5469 L6.2969 -1.5469 L5.3594 -8.875 L5.0938 -11.5 L4.9062 -11.5 Q4.5312 -9.0469 4.1562 -7.3594 L3.2188 -3.0938 Q3.0625 -2.3594 3.0078 -1.9922 Q2.9531 -1.625 2.9531 -1.3125 Q2.9531 -0.875 3.1797 -0.6953 Q3.4062 -0.5156 3.9219 -0.4844 L3.8125 0 L0.3906 0 L0.5 -0.4844 Q0.875 -0.5312 1.0547 -0.6641 Q1.2344 -0.7969 1.3672 -1.0312 Q1.5 -1.2656 1.6016 -1.6016 Q1.7031 -1.9375 1.9219 -2.9062 L3.5781 -10.4375 Q3.6875 -10.8438 3.7422 -11.2266 Q3.7969 -11.6094 3.7969 -12 Q3.7969 -12.4688 3.5625 -12.6484 Q3.3281 -12.8281 2.8438 -12.8594 L2.9531 -13.3281 L6.4375 -13.3281 L7.5469 -3.8594 L13.25 -13.3281 Z" stroke="none"/></g><g text-rendering="optimizeLegibility" transform="translate(344.3462,25.7683)" color-rendering="optimizeQuality" color-interpolation="linearRGB" image-rendering="optimizeQuality"><path d="M5.4531 -1.9219 L5.0312 0 L0.0781 0 L-0.0469 -0.3281 L3.6875 -4.6406 Q4.4844 -5.5469 4.8594 -5.9375 L4.8125 -5.9844 L3.2188 -5.9844 Q2.8594 -5.9844 2.6953 -5.9375 Q2.5312 -5.8906 2.3672 -5.7656 Q2.2031 -5.6406 2.0156 -5.4062 Q1.8281 -5.1719 1.5938 -4.7344 L0.9844 -4.7344 L1.3906 -6.5312 L6.25 -6.5312 L6.375 -6.1875 L1.4688 -0.6094 L1.5156 -0.5469 L3.0625 -0.5469 Q3.4688 -0.5469 3.6875 -0.5938 Q3.9062 -0.6406 4.0703 -0.7656 Q4.2344 -0.8906 4.4062 -1.1406 Q4.5781 -1.3906 4.8438 -1.9219 L5.4531 -1.9219 Z" stroke="none"/></g><g text-rendering="optimizeLegibility" transform="translate(350.5493,25.7683)" color-rendering="optimizeQuality" color-interpolation="linearRGB" image-rendering="optimizeQuality"><path d="M2.1094 -1.5938 Q2.2031 -1.1094 2.2031 -0.6406 Q2.2031 -0.1719 2.0391 0.2266 Q1.875 0.625 1.5156 1.0234 Q1.1562 1.4219 0.5312 1.8906 L0.1719 1.4688 Q0.5156 1.1406 0.6719 0.875 Q0.8281 0.6094 0.8984 0.2734 Q0.9688 -0.0625 0.9688 -0.5625 Q0.9688 -1.0781 0.9219 -1.5938 L2.1094 -1.5938 Z" stroke="none"/></g><g text-rendering="optimizeLegibility" transform="translate(352.7524,25.7683)" color-rendering="optimizeQuality" color-interpolation="linearRGB" image-rendering="optimizeQuality"><path d="M4.7969 -1.0938 Q5.1406 -1.0938 5.3438 -1.1328 Q5.5469 -1.1719 5.6719 -1.2734 Q5.7969 -1.375 5.8672 -1.5234 Q5.9375 -1.6719 6.0469 -2 L6.625 -2 L6.5156 0 L0.875 0 L0.875 -0.3281 Q1.1719 -1.0469 1.6719 -1.7969 Q2.1719 -2.5469 3.0938 -3.5625 Q3.8906 -4.4375 4.2344 -4.8906 Q4.6094 -5.3906 4.7969 -5.75 Q4.9844 -6.1094 5.0703 -6.4219 Q5.1562 -6.7344 5.1562 -7.0625 Q5.1562 -7.5781 4.9922 -7.9688 Q4.8281 -8.3594 4.4922 -8.5859 Q4.1562 -8.8125 3.6406 -8.8125 Q2.3594 -8.8125 1.9219 -7.3906 L1.0938 -7.3906 L1.0938 -8.7031 Q1.9219 -9.0938 2.6406 -9.2656 Q3.3594 -9.4375 3.9375 -9.4375 Q5.2031 -9.4375 5.8516 -8.8828 Q6.5 -8.3281 6.5 -7.2656 Q6.5 -6.9062 6.4297 -6.6016 Q6.3594 -6.2969 6.2031 -6 Q6.0469 -5.7031 5.7891 -5.3594 Q5.5312 -5.0156 5.2188 -4.6641 Q4.9062 -4.3125 4.125 -3.5 Q2.8281 -2.125 2.2188 -1.0938 L4.7969 -1.0938 Z" stroke="none"/></g><g text-rendering="optimizeLegibility" transform="translate(344.2993,11.987)" color-rendering="optimizeQuality" color-interpolation="linearRGB" image-rendering="optimizeQuality"><path d="M2.7188 -6.5938 L3.125 -6.5938 L2.6562 -4.9219 L2.7344 -4.8906 Q3.3906 -5.7812 4.0078 -6.2109 Q4.625 -6.6406 5.2812 -6.6406 Q5.7812 -6.6406 6.1094 -6.5625 L5.7812 -5.0312 L5.0781 -5.0312 Q5.0312 -5.3906 4.9141 -5.5781 Q4.7969 -5.7656 4.5469 -5.7656 Q4.2812 -5.7656 3.9297 -5.4922 Q3.5781 -5.2188 3.2188 -4.7422 Q2.8594 -4.2656 2.6797 -3.8594 Q2.5 -3.4531 2.4062 -2.9531 L1.7812 0 L0.5938 0 L1.6406 -4.6719 Q1.7812 -5.3125 1.7812 -5.6406 Q1.7812 -5.8438 1.7188 -5.9453 Q1.6562 -6.0469 1.5156 -6.1016 Q1.375 -6.1562 1.0469 -6.1719 L1.125 -6.5312 L2.7188 -6.5938 Z" stroke="none"/></g><g text-rendering="optimizeLegibility" transform="translate(359.8306,24.8296) matrix(1,0,0,1.2815,0,0)" color-rendering="optimizeQuality" color-interpolation="linearRGB" image-rendering="optimizeQuality"><path d="M6.0781 2.6406 L1.5469 2.6406 L1.5469 1.6094 L4.2188 1.6094 L4.2188 -15.2031 L6.0781 -15.2031 L6.0781 2.6406 Z" stroke="none"/></g><g text-rendering="optimizeLegibility" transform="translate(367.9087,10.0105)" color-rendering="optimizeQuality" color-interpolation="linearRGB" image-rendering="optimizeQuality"><path d="M4.875 0 L1.9844 0 L2.0625 -0.3281 Q2.3281 -0.375 2.4609 -0.4453 Q2.5938 -0.5156 2.6953 -0.6562 Q2.7969 -0.7969 2.8984 -1.1016 Q3 -1.4062 3.125 -2.0312 L4.5938 -8.7344 L3.7188 -8.7344 Q3.2969 -8.7344 3.0469 -8.6094 Q2.7969 -8.4844 2.5469 -8.1484 Q2.2969 -7.8125 1.9219 -7.0312 L1.2656 -7.0312 L1.7812 -9.3281 L8.9219 -9.3281 L8.3906 -6.9219 L7.7344 -6.9219 Q7.7344 -7.5938 7.6953 -7.9219 Q7.6562 -8.25 7.5625 -8.4219 Q7.4688 -8.5938 7.3281 -8.6641 Q7.1875 -8.7344 6.8438 -8.7344 L5.8281 -8.7344 L4.3438 -1.9844 Q4.2812 -1.7188 4.2578 -1.5625 Q4.2344 -1.4062 4.2188 -1.2344 Q4.2031 -1.0625 4.2031 -0.9219 Q4.2031 -0.7188 4.2656 -0.5938 Q4.3281 -0.4688 4.4688 -0.4141 Q4.6094 -0.3594 4.9375 -0.3281 L4.875 0 Z" stroke="none"/></g><g text-rendering="optimizeLegibility" transform="translate(380.0649,24)" color-rendering="optimizeQuality" color-interpolation="linearRGB" image-rendering="optimizeQuality"><path d="M7.2188 4.25 Q5.5625 4.25 4.5078 3.75 Q3.4531 3.25 2.8672 2.2344 Q2.2812 1.2188 2.0234 -0.4141 Q1.7656 -2.0469 1.7656 -4.8438 Q1.7656 -7.625 2.0234 -9.2656 Q2.2812 -10.9062 2.8672 -11.9453 Q3.4531 -12.9844 4.5078 -13.5 Q5.5625 -14.0156 7.2188 -14.0156 L7.2188 -13.2188 Q6.5312 -13.2188 6 -13.0938 Q5.4062 -12.9531 4.9844 -12.5625 Q4.5156 -12.1406 4.2344 -11.375 Q3.8906 -10.4688 3.7188 -8.9844 Q3.5469 -7.4062 3.5469 -4.9219 Q3.5469 -2.7188 3.6953 -1.1797 Q3.8438 0.3594 4.1875 1.3281 Q4.4531 2.1562 4.8594 2.6094 Q5.2188 3.0156 5.7188 3.2188 Q6.2969 3.4531 7.2188 3.4531 L7.2188 4.25 Z" stroke="none"/></g><g text-rendering="optimizeLegibility" transform="translate(389.2837,24)" color-rendering="optimizeQuality" color-interpolation="linearRGB" image-rendering="optimizeQuality"><path d="M5.2031 0.1562 Q3.1719 0.1562 2.1016 -1.0391 Q1.0312 -2.2344 1.0312 -4.5781 Q1.0312 -6.1875 1.5938 -7.3047 Q2.1562 -8.4219 3.1328 -8.9609 Q4.1094 -9.5 5.3594 -9.5 Q7.4375 -9.5 8.5156 -8.2891 Q9.5938 -7.0781 9.5938 -4.7969 Q9.5938 -3.1719 9.0547 -2.0625 Q8.5156 -0.9531 7.5312 -0.3984 Q6.5469 0.1562 5.2031 0.1562 ZM2.875 -4.7812 Q2.875 -2.7812 3.5156 -1.6953 Q4.1562 -0.6094 5.3438 -0.6094 Q6 -0.6094 6.4609 -0.9297 Q6.9219 -1.25 7.2031 -1.7891 Q7.4844 -2.3281 7.6172 -3.0312 Q7.75 -3.7344 7.75 -4.5156 Q7.75 -5.9531 7.4297 -6.8984 Q7.1094 -7.8438 6.5625 -8.2891 Q6.0156 -8.7344 5.3125 -8.7344 Q4.125 -8.7344 3.5 -7.7109 Q2.875 -6.6875 2.875 -4.7812 ZM11.7188 -9.3438 L14.5 -9.3438 L14.5 -4.3594 Q14.5 -3.2188 14.5859 -2.625 Q14.6719 -2.0312 14.8516 -1.7266 Q15.0312 -1.4219 15.3516 -1.2188 Q15.6719 -1.0156 16.2344 -1.0156 Q16.6094 -1.0156 16.9531 -1.1641 Q17.2969 -1.3125 17.7109 -1.6797 Q18.125 -2.0469 18.3047 -2.4062 Q18.4844 -2.7656 18.4844 -3.25 L18.4844 -6.9062 Q18.4844 -7.4688 18.4609 -7.75 Q18.4375 -8.0312 18.3672 -8.2031 Q18.2969 -8.375 18.2031 -8.4766 Q18.1094 -8.5781 17.9375 -8.6719 Q17.7656 -8.7656 17.3906 -8.8594 L17.3906 -9.3438 L20.1719 -9.3438 L20.1719 -2.6719 Q20.1719 -1.9219 20.2031 -1.5859 Q20.2344 -1.25 20.3281 -1.0547 Q20.4219 -0.8594 20.625 -0.7344 Q20.8281 -0.6094 21.3594 -0.5156 L21.3594 0 L19.125 0.0938 L18.5312 0.0938 L18.5938 -1.5 L18.4375 -1.5469 Q17.625 -0.6719 16.8906 -0.2578 Q16.1562 0.1562 15.4219 0.1562 Q14.5312 0.1562 13.9531 -0.1953 Q13.375 -0.5469 13.0938 -1.2422 Q12.8125 -1.9375 12.8125 -3.2188 L12.8125 -6.9062 Q12.8125 -7.7188 12.75 -8.0312 Q12.6875 -8.3438 12.5 -8.5234 Q12.3125 -8.7031 11.7188 -8.8594 L11.7188 -9.3438 ZM22.3594 -8.8438 Q22.8438 -8.9219 23.1484 -9.1172 Q23.4531 -9.3125 23.625 -9.625 Q23.7969 -9.9375 23.8984 -10.3984 Q24 -10.8594 24.0938 -11.75 L25.4844 -11.75 L25.4844 -9.3438 L28.6406 -9.3438 L28.6406 -8.3438 L25.4844 -8.3438 L25.4844 -4 Q25.4844 -3.0625 25.5625 -2.5 Q25.6406 -1.9375 25.8594 -1.6172 Q26.0781 -1.2969 26.3516 -1.1641 Q26.625 -1.0312 27.0469 -1.0312 Q27.4375 -1.0312 27.7812 -1.1875 Q28.125 -1.3438 28.4531 -1.6562 L28.8906 -1.125 Q28.2031 -0.4531 27.5859 -0.1484 Q26.9688 0.1562 26.2969 0.1562 Q25.0312 0.1562 24.4219 -0.5938 Q23.8125 -1.3438 23.8125 -2.9375 L23.8125 -8.3438 L22.3594 -8.3438 L22.3594 -8.8438 ZM32.5938 -0.2969 L32.5938 1.7656 Q32.5938 2.4062 32.6406 2.7188 Q32.6875 3.0312 32.7969 3.2109 Q32.9062 3.3906 33.1172 3.5078 Q33.3281 3.625 33.7969 3.7188 L33.7969 4.2031 L29.8125 4.2031 L29.8125 3.7188 Q30.1562 3.625 30.3828 3.5234 Q30.6094 3.4219 30.7266 3.2188 Q30.8438 3.0156 30.8828 2.6719 Q30.9219 2.3281 30.9219 1.7656 L30.9219 -6.6094 Q30.9219 -7.3125 30.8984 -7.6094 Q30.875 -7.9062 30.8203 -8.1016 Q30.7656 -8.2969 30.6484 -8.4297 Q30.5312 -8.5625 30.3438 -8.6484 Q30.1562 -8.7344 29.7188 -8.8125 L29.7188 -9.3438 L32.0156 -9.4219 L32.6094 -9.4219 L32.4844 -7.8281 L32.625 -7.7969 Q33.2344 -8.4062 33.5859 -8.6875 Q33.9375 -8.9688 34.3125 -9.1562 Q34.6875 -9.3438 35.0312 -9.4219 Q35.375 -9.5 35.7656 -9.5 Q37.375 -9.5 38.2422 -8.2891 Q39.1094 -7.0781 39.1094 -4.75 Q39.1094 -3.1406 38.6172 -2.0469 Q38.125 -0.9531 37.1953 -0.3984 Q36.2656 0.1562 34.9844 0.1562 Q34.25 0.1562 33.6641 0.0312 Q33.0781 -0.0938 32.5938 -0.2969 ZM32.5938 -3.5156 Q32.5938 -2.5781 32.7109 -2.0703 Q32.8281 -1.5625 33.125 -1.2422 Q33.4219 -0.9219 33.8281 -0.7656 Q34.2344 -0.6094 34.9062 -0.6094 Q36.0781 -0.6094 36.6719 -1.5938 Q37.2656 -2.5781 37.2656 -4.5 Q37.2656 -8.3281 35.0312 -8.3281 Q34.4844 -8.3281 34.0938 -8.1562 Q33.7031 -7.9844 33.3125 -7.6016 Q32.9219 -7.2188 32.7578 -6.8594 Q32.5938 -6.5 32.5938 -6.0938 L32.5938 -3.5156 ZM40.7188 -9.3438 L43.5 -9.3438 L43.5 -4.3594 Q43.5 -3.2188 43.5859 -2.625 Q43.6719 -2.0312 43.8516 -1.7266 Q44.0312 -1.4219 44.3516 -1.2188 Q44.6719 -1.0156 45.2344 -1.0156 Q45.6094 -1.0156 45.9531 -1.1641 Q46.2969 -1.3125 46.7109 -1.6797 Q47.125 -2.0469 47.3047 -2.4062 Q47.4844 -2.7656 47.4844 -3.25 L47.4844 -6.9062 Q47.4844 -7.4688 47.4609 -7.75 Q47.4375 -8.0312 47.3672 -8.2031 Q47.2969 -8.375 47.2031 -8.4766 Q47.1094 -8.5781 46.9375 -8.6719 Q46.7656 -8.7656 46.3906 -8.8594 L46.3906 -9.3438 L49.1719 -9.3438 L49.1719 -2.6719 Q49.1719 -1.9219 49.2031 -1.5859 Q49.2344 -1.25 49.3281 -1.0547 Q49.4219 -0.8594 49.625 -0.7344 Q49.8281 -0.6094 50.3594 -0.5156 L50.3594 0 L48.125 0.0938 L47.5312 0.0938 L47.5938 -1.5 L47.4375 -1.5469 Q46.625 -0.6719 45.8906 -0.2578 Q45.1562 0.1562 44.4219 0.1562 Q43.5312 0.1562 42.9531 -0.1953 Q42.375 -0.5469 42.0938 -1.2422 Q41.8125 -1.9375 41.8125 -3.2188 L41.8125 -6.9062 Q41.8125 -7.7188 41.75 -8.0312 Q41.6875 -8.3438 41.5 -8.5234 Q41.3125 -8.7031 40.7188 -8.8594 L40.7188 -9.3438 ZM51.3594 -8.8438 Q51.8438 -8.9219 52.1484 -9.1172 Q52.4531 -9.3125 52.625 -9.625 Q52.7969 -9.9375 52.8984 -10.3984 Q53 -10.8594 53.0938 -11.75 L54.4844 -11.75 L54.4844 -9.3438 L57.6406 -9.3438 L57.6406 -8.3438 L54.4844 -8.3438 L54.4844 -4 Q54.4844 -3.0625 54.5625 -2.5 Q54.6406 -1.9375 54.8594 -1.6172 Q55.0781 -1.2969 55.3516 -1.1641 Q55.625 -1.0312 56.0469 -1.0312 Q56.4375 -1.0312 56.7812 -1.1875 Q57.125 -1.3438 57.4531 -1.6562 L57.8906 -1.125 Q57.2031 -0.4531 56.5859 -0.1484 Q55.9688 0.1562 55.2969 0.1562 Q54.0312 0.1562 53.4219 -0.5938 Q52.8125 -1.3438 52.8125 -2.9375 L52.8125 -8.3438 L51.3594 -8.3438 L51.3594 -8.8438 ZM68.5938 -1.3906 L68.4531 -1.4375 Q67.5938 -0.5625 66.8516 -0.2031 Q66.1094 0.1562 65.2656 0.1562 Q64.5156 0.1562 63.9531 -0.1328 Q63.3906 -0.4219 63.0859 -0.9453 Q62.7812 -1.4688 62.7812 -2.1562 Q62.7812 -3.5781 64.1953 -4.3516 Q65.6094 -5.125 68.4219 -5.25 L68.4219 -5.8906 Q68.4219 -6.9062 68.2266 -7.4922 Q68.0312 -8.0781 67.6172 -8.3516 Q67.2031 -8.625 66.5 -8.625 Q65.7344 -8.625 65.2656 -8.2266 Q64.7969 -7.8281 64.5625 -7.0156 L63.2969 -7.0156 L63.2969 -8.2969 Q64.2344 -8.7812 64.8594 -9.0078 Q65.4844 -9.2344 66.1094 -9.3672 Q66.7344 -9.5 67.375 -9.5 Q68.3438 -9.5 68.9297 -9.1953 Q69.5156 -8.8906 69.8047 -8.2578 Q70.0938 -7.625 70.0938 -6.3438 L70.0938 -2.9375 Q70.0938 -2.2188 70.1016 -1.9219 Q70.1094 -1.625 70.1641 -1.3672 Q70.2188 -1.1094 70.3125 -0.9609 Q70.4062 -0.8125 70.6016 -0.7031 Q70.7969 -0.5938 71.2188 -0.4844 L71.2188 0 L68.5469 0 L68.5938 -1.3906 ZM68.4219 -4.4531 Q66.4375 -4.4375 65.4531 -3.9297 Q64.4688 -3.4219 64.4688 -2.3906 Q64.4688 -1.8438 64.6953 -1.5156 Q64.9219 -1.1875 65.2656 -1.0703 Q65.6094 -0.9531 66.0781 -0.9531 Q66.7344 -0.9531 67.2812 -1.2734 Q67.8281 -1.5938 68.125 -2.0938 Q68.4219 -2.5938 68.4219 -3.0781 L68.4219 -4.4531 ZM79.4844 -7.2031 L78.5469 -7.2031 Q78.3438 -7.7812 78.0469 -8.1172 Q77.75 -8.4531 77.3828 -8.5938 Q77.0156 -8.7344 76.4688 -8.7344 Q75.6875 -8.7344 75.2266 -8.3672 Q74.7656 -8 74.7656 -7.3594 Q74.7656 -6.9219 74.9531 -6.625 Q75.1406 -6.3281 75.5312 -6.0781 Q75.9219 -5.8281 76.9062 -5.4062 Q77.9062 -4.9688 78.4453 -4.6094 Q78.9844 -4.25 79.2891 -3.7734 Q79.5938 -3.2969 79.5938 -2.625 Q79.5938 -1.8594 79.3359 -1.3281 Q79.0781 -0.7969 78.5938 -0.4688 Q78.1094 -0.1406 77.4531 0.0078 Q76.7969 0.1562 76.0156 0.1562 Q75.1875 0.1562 74.4219 0.0312 Q73.6562 -0.0938 72.9219 -0.2812 L72.9219 -2.3281 L73.875 -2.3281 Q74.1406 -1.4219 74.6562 -1.0156 Q75.1719 -0.6094 76.0781 -0.6094 Q76.4375 -0.6094 76.7734 -0.6875 Q77.1094 -0.7656 77.375 -0.9375 Q77.6406 -1.1094 77.7969 -1.3984 Q77.9531 -1.6875 77.9531 -2.125 Q77.9531 -2.625 77.7578 -2.9375 Q77.5625 -3.25 77.1484 -3.5078 Q76.7344 -3.7656 75.7031 -4.2031 Q74.8125 -4.5781 74.2734 -4.9297 Q73.7344 -5.2812 73.4297 -5.7578 Q73.125 -6.2344 73.125 -6.8906 Q73.125 -7.7031 73.5625 -8.2891 Q74 -8.875 74.8203 -9.1875 Q75.6406 -9.5 76.7344 -9.5 Q77.375 -9.5 77.9766 -9.4375 Q78.5781 -9.375 79.4844 -9.1875 L79.4844 -7.2031 ZM100.125 -12.8594 Q99.7031 -12.75 99.5078 -12.6406 Q99.3125 -12.5312 99.2031 -12.3672 Q99.0938 -12.2031 99.0391 -11.8828 Q98.9844 -11.5625 98.9844 -10.8906 L98.9844 -2.4375 Q98.9844 -1.7812 99.0312 -1.4844 Q99.0781 -1.1875 99.1797 -1.0078 Q99.2812 -0.8281 99.4766 -0.7109 Q99.6719 -0.5938 100.125 -0.4844 L100.125 0 L96.0625 0 L96.0625 -0.4844 Q96.6094 -0.6094 96.8281 -0.7891 Q97.0469 -0.9688 97.125 -1.3125 Q97.2031 -1.6562 97.2031 -2.4375 L97.2031 -6.1875 Q97.2031 -7.6562 97.2422 -9.1641 Q97.2812 -10.6719 97.3438 -11.2344 L97.1719 -11.2344 L93.3125 -1.5469 L92.1875 -1.5469 L88.5938 -11.3906 L88.4219 -11.3906 Q88.4844 -10.7969 88.5234 -9.2344 Q88.5625 -7.6719 88.5625 -6.0156 L88.5625 -2.4375 Q88.5625 -1.7812 88.6094 -1.4844 Q88.6562 -1.1875 88.7578 -1.0078 Q88.8594 -0.8281 89.0625 -0.7109 Q89.2656 -0.5938 89.7031 -0.4844 L89.7031 0 L86.1406 0 L86.1406 -0.4844 Q86.75 -0.6406 86.9531 -0.8281 Q87.1562 -1.0156 87.2188 -1.3672 Q87.2812 -1.7188 87.2812 -2.4375 L87.2812 -10.8906 Q87.2812 -11.5625 87.2344 -11.8672 Q87.1875 -12.1719 87.0781 -12.3438 Q86.9688 -12.5156 86.7812 -12.6172 Q86.5938 -12.7188 86.1406 -12.8594 L86.1406 -13.3281 L89.625 -13.3281 L93.0625 -3.8281 L96.8281 -13.3281 L100.125 -13.3281 L100.125 -12.8594 ZM111.0938 -13.3281 L111.0938 -10.375 L110.125 -10.375 Q109.9219 -11.0469 109.7188 -11.4531 Q109.5156 -11.8594 109.2969 -12.0781 Q109.0781 -12.2969 108.7812 -12.3828 Q108.4844 -12.4688 108.0156 -12.4688 L105.1562 -12.4688 L105.1562 -7.1562 L107.1562 -7.1562 Q107.5938 -7.1562 107.8359 -7.2969 Q108.0781 -7.4375 108.2422 -7.7734 Q108.4062 -8.1094 108.5469 -8.7969 L109.4688 -8.7969 L109.4688 -4.6719 L108.5469 -4.6719 Q108.4062 -5.3438 108.2422 -5.6797 Q108.0781 -6.0156 107.8438 -6.1562 Q107.6094 -6.2969 107.1562 -6.2969 L105.1562 -6.2969 L105.1562 -2.4688 Q105.1562 -1.8906 105.2188 -1.5391 Q105.2812 -1.1875 105.4375 -0.9766 Q105.5938 -0.7656 105.8594 -0.6641 Q106.125 -0.5625 106.5156 -0.4844 L106.5156 0 L102.1875 0 L102.1875 -0.4844 Q102.7812 -0.6406 102.9922 -0.8281 Q103.2031 -1.0156 103.2656 -1.3672 Q103.3281 -1.7188 103.3281 -2.4375 L103.3281 -10.8906 Q103.3281 -11.5625 103.2812 -11.8672 Q103.2344 -12.1719 103.1172 -12.3438 Q103 -12.5156 102.8125 -12.6172 Q102.625 -12.7188 102.1875 -12.8594 L102.1875 -13.3281 L111.0938 -13.3281 ZM118.3906 0.1562 Q117.2188 0.1562 116.2578 -0.2266 Q115.2969 -0.6094 114.6094 -1.4297 Q113.9219 -2.25 113.5391 -3.5156 Q113.1562 -4.7812 113.1562 -6.5469 Q113.1562 -8.7344 113.8203 -10.2969 Q114.4844 -11.8594 115.7266 -12.6719 Q116.9688 -13.4844 118.5938 -13.4844 Q120.3281 -13.4844 121.5156 -12.7188 Q122.7031 -11.9531 123.3047 -10.4609 Q123.9062 -8.9688 123.9062 -6.8438 Q123.9062 -4.5469 123.2188 -2.9766 Q122.5312 -1.4062 121.2891 -0.625 Q120.0469 0.1562 118.3906 0.1562 ZM115.1719 -6.8281 Q115.1719 -3.8281 116.0469 -2.2656 Q116.9219 -0.7031 118.6094 -0.7031 Q119.6719 -0.7031 120.4141 -1.3828 Q121.1562 -2.0625 121.5234 -3.3672 Q121.8906 -4.6719 121.8906 -6.4219 Q121.8906 -8.5625 121.4609 -9.9609 Q121.0312 -11.3594 120.2734 -11.9922 Q119.5156 -12.625 118.5312 -12.625 Q117.6406 -12.625 117.0156 -12.2188 Q116.3906 -11.8125 115.9766 -11.0547 Q115.5625 -10.2969 115.3672 -9.2188 Q115.1719 -8.1406 115.1719 -6.8281 ZM129.1562 -5.7969 L129.1562 -2.4688 Q129.1562 -1.7656 129.2109 -1.4531 Q129.2656 -1.1406 129.375 -0.9766 Q129.4844 -0.8125 129.6719 -0.7109 Q129.8594 -0.6094 130.2969 -0.4844 L130.2969 0 L126.1875 0 L126.1875 -0.4844 Q126.7812 -0.6406 126.9922 -0.8281 Q127.2031 -1.0156 127.2656 -1.3672 Q127.3281 -1.7188 127.3281 -2.4375 L127.3281 -10.8906 Q127.3281 -11.5625 127.2812 -11.8672 Q127.2344 -12.1719 127.1172 -12.3438 Q127 -12.5156 126.8125 -12.6172 Q126.625 -12.7188 126.1875 -12.8594 L126.1875 -13.3281 L131.0156 -13.3281 Q133.2969 -13.3281 134.4297 -12.5 Q135.5625 -11.6719 135.5625 -9.9219 Q135.5625 -8.5781 134.8281 -7.6406 Q134.0938 -6.7031 132.625 -6.1875 L132.625 -6.1094 Q133.2188 -5.8594 133.6406 -5.4062 Q134.0625 -4.9531 134.5781 -4 L135.4531 -2.3906 Q135.8438 -1.6875 136.1172 -1.3203 Q136.3906 -0.9531 136.6719 -0.7578 Q136.9531 -0.5625 137.4219 -0.4844 L137.4219 0 L134.7188 0 Q134.3438 -0.5156 134.0156 -1.1094 Q133.6875 -1.7031 133.3594 -2.3281 L132.5 -3.9531 Q132.1094 -4.7031 131.8594 -5.0547 Q131.6094 -5.4062 131.3984 -5.5469 Q131.1875 -5.6875 130.9531 -5.7422 Q130.7188 -5.7969 130.2344 -5.7969 L129.1562 -5.7969 ZM129.1562 -12.4375 L129.1562 -6.625 L130.2656 -6.625 Q131.1094 -6.625 131.6406 -6.75 Q132.1719 -6.875 132.6172 -7.2188 Q133.0625 -7.5625 133.3359 -8.1719 Q133.6094 -8.7812 133.6094 -9.6719 Q133.6094 -10.5938 133.2891 -11.2109 Q132.9688 -11.8281 132.3281 -12.1484 Q131.6875 -12.4688 130.5938 -12.4688 Q129.7031 -12.4688 129.1562 -12.4375 ZM147.5938 -1.3906 L147.4531 -1.4375 Q146.5938 -0.5625 145.8516 -0.2031 Q145.1094 0.1562 144.2656 0.1562 Q143.5156 0.1562 142.9531 -0.1328 Q142.3906 -0.4219 142.0859 -0.9453 Q141.7812 -1.4688 141.7812 -2.1562 Q141.7812 -3.5781 143.1953 -4.3516 Q144.6094 -5.125 147.4219 -5.25 L147.4219 -5.8906 Q147.4219 -6.9062 147.2266 -7.4922 Q147.0312 -8.0781 146.6172 -8.3516 Q146.2031 -8.625 145.5 -8.625 Q144.7344 -8.625 144.2656 -8.2266 Q143.7969 -7.8281 143.5625 -7.0156 L142.2969 -7.0156 L142.2969 -8.2969 Q143.2344 -8.7812 143.8594 -9.0078 Q144.4844 -9.2344 145.1094 -9.3672 Q145.7344 -9.5 146.375 -9.5 Q147.3438 -9.5 147.9297 -9.1953 Q148.5156 -8.8906 148.8047 -8.2578 Q149.0938 -7.625 149.0938 -6.3438 L149.0938 -2.9375 Q149.0938 -2.2188 149.1016 -1.9219 Q149.1094 -1.625 149.1641 -1.3672 Q149.2188 -1.1094 149.3125 -0.9609 Q149.4062 -0.8125 149.6016 -0.7031 Q149.7969 -0.5938 150.2188 -0.4844 L150.2188 0 L147.5469 0 L147.5938 -1.3906 ZM147.4219 -4.4531 Q145.4375 -4.4375 144.4531 -3.9297 Q143.4688 -3.4219 143.4688 -2.3906 Q143.4688 -1.8438 143.6953 -1.5156 Q143.9219 -1.1875 144.2656 -1.0703 Q144.6094 -0.9531 145.0781 -0.9531 Q145.7344 -0.9531 146.2812 -1.2734 Q146.8281 -1.5938 147.125 -2.0938 Q147.4219 -2.5938 147.4219 -3.0781 L147.4219 -4.4531 ZM161.4531 0 L157.6094 0 L157.6094 -0.4844 Q158 -0.5938 158.1641 -0.6797 Q158.3281 -0.7656 158.4375 -0.9219 Q158.5469 -1.0781 158.6094 -1.4062 Q158.6719 -1.7344 158.6719 -2.4062 L158.6719 -4.9688 Q158.6719 -5.6406 158.6328 -6.2031 Q158.5938 -6.7656 158.5 -7.1172 Q158.4062 -7.4688 158.2812 -7.6719 Q158.1562 -7.875 157.9688 -8.0156 Q157.7812 -8.1562 157.5469 -8.2422 Q157.3125 -8.3281 156.9375 -8.3281 Q156.5625 -8.3281 156.2188 -8.1719 Q155.875 -8.0156 155.4609 -7.6484 Q155.0469 -7.2812 154.8672 -6.9141 Q154.6875 -6.5469 154.6875 -6.0781 L154.6875 -2.4375 Q154.6875 -1.6094 154.7656 -1.2812 Q154.8438 -0.9531 155.0625 -0.7812 Q155.2812 -0.6094 155.7812 -0.4844 L155.7812 0 L151.9531 0 L151.9531 -0.4844 Q152.3281 -0.5938 152.4922 -0.6797 Q152.6562 -0.7656 152.7656 -0.9219 Q152.875 -1.0781 152.9375 -1.4062 Q153 -1.7344 153 -2.4062 L153 -6.6719 Q153 -7.2969 152.9844 -7.6797 Q152.9688 -8.0625 152.8516 -8.2891 Q152.7344 -8.5156 152.4922 -8.625 Q152.25 -8.7344 151.8125 -8.8125 L151.8125 -9.3438 L154.0938 -9.4219 L154.6875 -9.4219 L154.5781 -7.8281 L154.7188 -7.7969 Q155.4375 -8.5312 155.8828 -8.8438 Q156.3281 -9.1562 156.7812 -9.3281 Q157.2344 -9.5 157.75 -9.5 Q158.2812 -9.5 158.6953 -9.375 Q159.1094 -9.25 159.4219 -8.9922 Q159.7344 -8.7344 159.9453 -8.3594 Q160.1562 -7.9844 160.2578 -7.4609 Q160.3594 -6.9375 160.3594 -6.125 L160.3594 -2.4375 Q160.3594 -1.7656 160.3984 -1.4609 Q160.4375 -1.1562 160.5312 -0.9922 Q160.625 -0.8281 160.8125 -0.7188 Q161 -0.6094 161.4531 -0.4844 L161.4531 0 ZM169.5469 -10.6094 Q169.5469 -11.5469 169.5312 -11.9219 Q169.5156 -12.2969 169.4531 -12.5547 Q169.3906 -12.8125 169.2734 -12.9609 Q169.1562 -13.1094 168.9688 -13.1953 Q168.7812 -13.2812 168.2812 -13.375 L168.2812 -13.875 L170.6406 -13.9688 L171.2188 -13.9688 L171.2188 -2.6719 Q171.2188 -1.9062 171.25 -1.5781 Q171.2812 -1.25 171.375 -1.0547 Q171.4688 -0.8594 171.6797 -0.7344 Q171.8906 -0.6094 172.4219 -0.5156 L172.4219 0 L170.1094 0.0938 L169.5312 0.0938 L169.6406 -1.5 L169.5 -1.5469 Q168.8906 -0.8906 168.4375 -0.5625 Q167.9844 -0.2344 167.4688 -0.0391 Q166.9531 0.1562 166.3594 0.1562 Q164.7656 0.1562 163.8984 -1.0625 Q163.0312 -2.2812 163.0312 -4.5781 Q163.0312 -6.1719 163.5938 -7.2891 Q164.1562 -8.4062 165.1172 -8.9531 Q166.0781 -9.5 167.2812 -9.5 Q167.9219 -9.5 168.4531 -9.3984 Q168.9844 -9.2969 169.5469 -9.0625 L169.5469 -10.6094 ZM169.5469 -5.7969 Q169.5469 -6.5469 169.4766 -7.0078 Q169.4062 -7.4688 169.2422 -7.7812 Q169.0781 -8.0938 168.8047 -8.3125 Q168.5312 -8.5312 168.2031 -8.625 Q167.875 -8.7188 167.4219 -8.7188 Q166.1719 -8.7188 165.5156 -7.7188 Q164.8594 -6.7188 164.8594 -4.8438 Q164.8594 -2.9688 165.3984 -1.9922 Q165.9375 -1.0156 167.0312 -1.0156 Q167.4531 -1.0156 167.7422 -1.0859 Q168.0312 -1.1562 168.3047 -1.3203 Q168.5781 -1.4844 168.8594 -1.7656 Q169.1406 -2.0469 169.2734 -2.2812 Q169.4062 -2.5156 169.4766 -2.8203 Q169.5469 -3.125 169.5469 -3.6094 L169.5469 -5.7969 ZM192.125 -12.8594 Q191.7031 -12.75 191.5078 -12.6406 Q191.3125 -12.5312 191.2031 -12.3672 Q191.0938 -12.2031 191.0391 -11.8828 Q190.9844 -11.5625 190.9844 -10.8906 L190.9844 -2.4375 Q190.9844 -1.7812 191.0312 -1.4844 Q191.0781 -1.1875 191.1797 -1.0078 Q191.2812 -0.8281 191.4766 -0.7109 Q191.6719 -0.5938 192.125 -0.4844 L192.125 0 L188.0625 0 L188.0625 -0.4844 Q188.6094 -0.6094 188.8281 -0.7891 Q189.0469 -0.9688 189.125 -1.3125 Q189.2031 -1.6562 189.2031 -2.4375 L189.2031 -6.1875 Q189.2031 -7.6562 189.2422 -9.1641 Q189.2812 -10.6719 189.3438 -11.2344 L189.1719 -11.2344 L185.3125 -1.5469 L184.1875 -1.5469 L180.5938 -11.3906 L180.4219 -11.3906 Q180.4844 -10.7969 180.5234 -9.2344 Q180.5625 -7.6719 180.5625 -6.0156 L180.5625 -2.4375 Q180.5625 -1.7812 180.6094 -1.4844 Q180.6562 -1.1875 180.7578 -1.0078 Q180.8594 -0.8281 181.0625 -0.7109 Q181.2656 -0.5938 181.7031 -0.4844 L181.7031 0 L178.1406 0 L178.1406 -0.4844 Q178.75 -0.6406 178.9531 -0.8281 Q179.1562 -1.0156 179.2188 -1.3672 Q179.2812 -1.7188 179.2812 -2.4375 L179.2812 -10.8906 Q179.2812 -11.5625 179.2344 -11.8672 Q179.1875 -12.1719 179.0781 -12.3438 Q178.9688 -12.5156 178.7812 -12.6172 Q178.5938 -12.7188 178.1406 -12.8594 L178.1406 -13.3281 L181.625 -13.3281 L185.0625 -3.8281 L188.8281 -13.3281 L192.125 -13.3281 L192.125 -12.8594 ZM208.125 -12.8594 Q207.7031 -12.75 207.5078 -12.6406 Q207.3125 -12.5312 207.2031 -12.3672 Q207.0938 -12.2031 207.0391 -11.8828 Q206.9844 -11.5625 206.9844 -10.8906 L206.9844 -2.4375 Q206.9844 -1.7812 207.0312 -1.4844 Q207.0781 -1.1875 207.1797 -1.0078 Q207.2812 -0.8281 207.4766 -0.7109 Q207.6719 -0.5938 208.125 -0.4844 L208.125 0 L204.0625 0 L204.0625 -0.4844 Q204.6094 -0.6094 204.8281 -0.7891 Q205.0469 -0.9688 205.125 -1.3125 Q205.2031 -1.6562 205.2031 -2.4375 L205.2031 -6.1875 Q205.2031 -7.6562 205.2422 -9.1641 Q205.2812 -10.6719 205.3438 -11.2344 L205.1719 -11.2344 L201.3125 -1.5469 L200.1875 -1.5469 L196.5938 -11.3906 L196.4219 -11.3906 Q196.4844 -10.7969 196.5234 -9.2344 Q196.5625 -7.6719 196.5625 -6.0156 L196.5625 -2.4375 Q196.5625 -1.7812 196.6094 -1.4844 Q196.6562 -1.1875 196.7578 -1.0078 Q196.8594 -0.8281 197.0625 -0.7109 Q197.2656 -0.5938 197.7031 -0.4844 L197.7031 0 L194.1406 0 L194.1406 -0.4844 Q194.75 -0.6406 194.9531 -0.8281 Q195.1562 -1.0156 195.2188 -1.3672 Q195.2812 -1.7188 195.2812 -2.4375 L195.2812 -10.8906 Q195.2812 -11.5625 195.2344 -11.8672 Q195.1875 -12.1719 195.0781 -12.3438 Q194.9688 -12.5156 194.7812 -12.6172 Q194.5938 -12.7188 194.1406 -12.8594 L194.1406 -13.3281 L197.625 -13.3281 L201.0625 -3.8281 L204.8281 -13.3281 L208.125 -13.3281 L208.125 -12.8594 ZM215.3906 0.1562 Q214.2188 0.1562 213.2578 -0.2266 Q212.2969 -0.6094 211.6094 -1.4297 Q210.9219 -2.25 210.5391 -3.5156 Q210.1562 -4.7812 210.1562 -6.5469 Q210.1562 -8.7344 210.8203 -10.2969 Q211.4844 -11.8594 212.7266 -12.6719 Q213.9688 -13.4844 215.5938 -13.4844 Q217.3281 -13.4844 218.5156 -12.7188 Q219.7031 -11.9531 220.3047 -10.4609 Q220.9062 -8.9688 220.9062 -6.8438 Q220.9062 -4.5469 220.2188 -2.9766 Q219.5312 -1.4062 218.2891 -0.625 Q217.0469 0.1562 215.3906 0.1562 ZM212.1719 -6.8281 Q212.1719 -3.8281 213.0469 -2.2656 Q213.9219 -0.7031 215.6094 -0.7031 Q216.6719 -0.7031 217.4141 -1.3828 Q218.1562 -2.0625 218.5234 -3.3672 Q218.8906 -4.6719 218.8906 -6.4219 Q218.8906 -8.5625 218.4609 -9.9609 Q218.0312 -11.3594 217.2734 -11.9922 Q216.5156 -12.625 215.5312 -12.625 Q214.6406 -12.625 214.0156 -12.2188 Q213.3906 -11.8125 212.9766 -11.0547 Q212.5625 -10.2969 212.3672 -9.2188 Q212.1719 -8.1406 212.1719 -6.8281 ZM237.125 -12.8594 Q236.7031 -12.75 236.5078 -12.6406 Q236.3125 -12.5312 236.2031 -12.3672 Q236.0938 -12.2031 236.0391 -11.8828 Q235.9844 -11.5625 235.9844 -10.8906 L235.9844 -2.4375 Q235.9844 -1.7812 236.0312 -1.4844 Q236.0781 -1.1875 236.1797 -1.0078 Q236.2812 -0.8281 236.4766 -0.7109 Q236.6719 -0.5938 237.125 -0.4844 L237.125 0 L233.0625 0 L233.0625 -0.4844 Q233.6094 -0.6094 233.8281 -0.7891 Q234.0469 -0.9688 234.125 -1.3125 Q234.2031 -1.6562 234.2031 -2.4375 L234.2031 -6.1875 Q234.2031 -7.6562 234.2422 -9.1641 Q234.2812 -10.6719 234.3438 -11.2344 L234.1719 -11.2344 L230.3125 -1.5469 L229.1875 -1.5469 L225.5938 -11.3906 L225.4219 -11.3906 Q225.4844 -10.7969 225.5234 -9.2344 Q225.5625 -7.6719 225.5625 -6.0156 L225.5625 -2.4375 Q225.5625 -1.7812 225.6094 -1.4844 Q225.6562 -1.1875 225.7578 -1.0078 Q225.8594 -0.8281 226.0625 -0.7109 Q226.2656 -0.5938 226.7031 -0.4844 L226.7031 0 L223.1406 0 L223.1406 -0.4844 Q223.75 -0.6406 223.9531 -0.8281 Q224.1562 -1.0156 224.2188 -1.3672 Q224.2812 -1.7188 224.2812 -2.4375 L224.2812 -10.8906 Q224.2812 -11.5625 224.2344 -11.8672 Q224.1875 -12.1719 224.0781 -12.3438 Q223.9688 -12.5156 223.7812 -12.6172 Q223.5938 -12.7188 223.1406 -12.8594 L223.1406 -13.3281 L226.625 -13.3281 L230.0625 -3.8281 L233.8281 -13.3281 L237.125 -13.3281 L237.125 -12.8594 ZM238.4219 -14.0156 Q240.0781 -14.0156 241.1328 -13.5156 Q242.1875 -13.0156 242.7734 -12 Q243.3594 -10.9844 243.6172 -9.3516 Q243.875 -7.7188 243.875 -4.9219 Q243.875 -2.1562 243.6172 -0.5078 Q243.3594 1.1406 242.7734 2.1797 Q242.1875 3.2188 241.1328 3.7344 Q240.0781 4.25 238.4219 4.25 L238.4219 3.4531 Q239.1094 3.4531 239.625 3.3281 Q240.2344 3.1875 240.6406 2.7969 Q241.1094 2.375 241.4062 1.6094 Q241.75 0.7031 241.9219 -0.7812 Q242.0938 -2.3594 242.0938 -4.8438 Q242.0938 -7.0469 241.9453 -8.5859 Q241.7969 -10.125 241.4531 -11.0938 Q241.1875 -11.9219 240.7812 -12.375 Q240.4062 -12.7812 239.9219 -12.9844 Q239.3438 -13.2188 238.4219 -13.2188 L238.4219 -14.0156 Z" stroke="none"/></g></g></svg>