<?xml version="1.0" encoding="UTF-8" standalone="no"?><svg xmlns="http://www.w3.org/2000/svg" xmlns:xlink="http://www.w3.org/1999/xlink" stroke-dasharray="none" shape-rendering="auto" font-family="'Dialog'" width="17.812600" text-rendering="auto" fill-opacity="1" contentScriptType="text/ecmascript" color-interpolation="auto" color-rendering="auto" preserveAspectRatio="xMidYMid meet" font-size="12" fill="black" stroke="black" image-rendering="auto" stroke-miterlimit="10" zoomAndPan="magnify" version="1.0" stroke-linecap="square" stroke-linejoin="miter" contentStyleType="text/css" font-style="normal" height="27" stroke-width="1" stroke-dashoffset="0" font-weight="normal" stroke-opacity="1" y="-5.000000"><!--Converted from MathML using JEuclid--><defs id="genericDefs"/><g><g text-rendering="optimizeLegibility" transform="translate(0,22)" color-rendering="optimizeQuality" color-interpolation="linearRGB" image-rendering="optimizeQuality"><path d="M8.0938 -7.25 L7.2812 -7.25 Q7.125 -8.7188 5.4531 -8.7188 Q4.6406 -8.7188 4.0469 -8.2422 Q3.4531 -7.7656 3.4531 -7.0156 Q3.4531 -6.3125 3.9766 -5.9062 Q4.5 -5.5 5.4531 -5.5 L6.3125 -5.5 L6.125 -4.5625 L5.3438 -4.5625 Q4.1094 -4.5625 3.1953 -4 Q2.2812 -3.4375 2.2812 -2.4219 Q2.2812 -1.7188 2.8438 -1.3125 Q3.4062 -0.9062 4.2656 -0.9062 Q5.7344 -0.9062 7.2031 -1.8594 L7.6406 -1.2031 Q5.8438 0.1562 3.6094 0.1562 Q2.1406 0.1562 1.3125 -0.4766 Q0.4844 -1.1094 0.4844 -2.125 Q0.4844 -4.1562 3.375 -4.9688 L3.4062 -5.0625 Q1.7812 -5.5312 1.7812 -6.9219 Q1.7812 -8.1094 2.7422 -8.8047 Q3.7031 -9.5 5.4219 -9.5 Q7.0312 -9.5 8.4844 -8.9688 L8.0938 -7.25 Z" stroke="none"/></g><g text-rendering="optimizeLegibility" transform="translate(0.3672,14.6094)" color-rendering="optimizeQuality" color-interpolation="linearRGB" image-rendering="optimizeQuality"><path d="M5.6406 -4.6094 L3.875 -8.5 L2.1094 -4.6094 L1.0781 -4.6094 L3.3906 -9.4375 L4.375 -9.4375 L6.6719 -4.6094 L5.6406 -4.6094 Z" stroke="none"/></g><g text-rendering="optimizeLegibility" transform="translate(1.4062,13.9375)" color-rendering="optimizeQuality" color-interpolation="linearRGB" image-rendering="optimizeQuality"><path d="M3.7344 -13.1719 L3.7344 -11.2656 L1.9375 -11.2656 L1.9375 -13.1719 L3.7344 -13.1719 Z" stroke="none"/></g><g text-rendering="optimizeLegibility" transform="translate(8.5312,24.6016)" color-rendering="optimizeQuality" color-interpolation="linearRGB" image-rendering="optimizeQuality"><path d="M1.0469 0.8594 Q1 1.0938 0.9844 1.2266 Q0.9688 1.3594 0.9688 1.4375 Q0.9688 1.5781 1.0156 1.6641 Q1.0625 1.75 1.1719 1.7969 Q1.2812 1.8438 1.5156 1.8594 L1.4688 2.0938 L-0.0469 2.0938 L1.2031 -3.3281 Q1.2969 -3.7344 1.2969 -4.0312 Q1.2969 -4.1719 1.25 -4.25 Q1.2031 -4.3281 1.1016 -4.3594 Q1 -4.3906 0.7656 -4.4062 L0.8281 -4.6719 L1.9375 -4.7188 L2.2188 -4.7188 L1.8906 -3.4375 L1.9375 -3.4219 Q2.8438 -4.75 3.7344 -4.75 Q4.2656 -4.75 4.5625 -4.3438 Q4.8594 -3.9375 4.8594 -3.2031 Q4.8594 -2.6719 4.7188 -2.1406 Q4.5781 -1.6094 4.3203 -1.1797 Q4.0625 -0.75 3.75 -0.4766 Q3.4375 -0.2031 3.0859 -0.0625 Q2.7344 0.0781 2.3438 0.0781 Q1.7031 0.0781 1.2656 -0.2031 L1.0469 0.8594 ZM1.625 -1.7031 Q1.5781 -1.4375 1.5703 -1.3047 Q1.5625 -1.1719 1.5625 -1.0312 Q1.5625 -0.6562 1.7266 -0.4844 Q1.8906 -0.3125 2.2812 -0.3125 Q2.5312 -0.3125 2.7422 -0.4062 Q2.9531 -0.5 3.1406 -0.6875 Q3.3281 -0.875 3.4844 -1.1406 Q3.6406 -1.4062 3.7578 -1.75 Q3.875 -2.0938 3.9375 -2.4688 Q4 -2.8438 4 -3.1562 Q4 -3.6719 3.8516 -3.9219 Q3.7031 -4.1719 3.3906 -4.1719 Q3.1406 -4.1719 2.8984 -4.0078 Q2.6562 -3.8438 2.3672 -3.4688 Q2.0781 -3.0938 1.9219 -2.7344 Q1.7656 -2.375 1.6719 -1.9062 L1.625 -1.7031 Z" stroke="none"/></g><g text-rendering="optimizeLegibility" transform="translate(13.3906,24.6016)" color-rendering="optimizeQuality" color-interpolation="linearRGB" image-rendering="optimizeQuality"><path d="M2.4688 -6.9844 L2.75 -6.9844 L1.4844 -1.2188 Q1.4375 -0.9844 1.4219 -0.8672 Q1.4062 -0.75 1.4062 -0.6719 Q1.4062 -0.5156 1.4531 -0.4375 Q1.5 -0.3594 1.6016 -0.3125 Q1.7031 -0.2656 1.9375 -0.2344 L1.9062 0 L0.375 0 L1.6406 -5.6094 Q1.6875 -5.8281 1.7031 -5.9297 Q1.7188 -6.0312 1.7344 -6.1328 Q1.75 -6.2344 1.75 -6.2969 Q1.75 -6.4531 1.6953 -6.5312 Q1.6406 -6.6094 1.5391 -6.6406 Q1.4375 -6.6719 1.1719 -6.6875 L1.2344 -6.9375 L2.4688 -6.9844 Z" stroke="none"/></g></g></svg>