<?xml version="1.0" encoding="UTF-8" standalone="no"?><svg xmlns="http://www.w3.org/2000/svg" xmlns:xlink="http://www.w3.org/1999/xlink" stroke-dasharray="none" shape-rendering="auto" font-family="'Dialog'" width="292.812600" text-rendering="auto" fill-opacity="1" contentScriptType="text/ecmascript" color-interpolation="auto" color-rendering="auto" preserveAspectRatio="xMidYMid meet" font-size="12" fill="black" stroke="black" image-rendering="auto" stroke-miterlimit="10" zoomAndPan="magnify" version="1.0" stroke-linecap="square" stroke-linejoin="miter" contentStyleType="text/css" font-style="normal" height="20" stroke-width="1" stroke-dashoffset="0" font-weight="normal" stroke-opacity="1" y="-5.000000"><!--Converted from MathML using JEuclid--><defs id="genericDefs"/><g><g text-rendering="optimizeLegibility" transform="translate(0.1484,15)" color-rendering="optimizeQuality" color-interpolation="linearRGB" image-rendering="optimizeQuality"><path d="M1.5 -9.3438 L4.5781 -9.3438 L3.3281 -4.3594 Q3.1875 -3.8125 3.0859 -3.2734 Q2.9844 -2.7344 2.9844 -2.2812 Q2.9844 -1.5938 3.2266 -1.2891 Q3.4688 -0.9844 3.9688 -0.9844 Q4.3906 -0.9844 4.8828 -1.3125 Q5.375 -1.6406 5.9219 -2.3281 Q6.4688 -3.0156 6.7812 -3.6328 Q7.0938 -4.25 7.2812 -5.0938 L8.1719 -9.3438 L9.8594 -9.3438 L8.375 -2.6719 Q8.3125 -2.4062 8.2344 -1.9766 Q8.1562 -1.5469 8.1562 -1.2656 Q8.1562 -0.8594 8.3828 -0.6875 Q8.6094 -0.5156 9.2344 -0.4844 L9.125 0 L6.3438 0 L6.9688 -2.4531 L6.8438 -2.4844 Q5.8906 -1.1406 5.0078 -0.4922 Q4.125 0.1562 3.2188 0.1562 Q2.2812 0.1562 1.7891 -0.3672 Q1.2969 -0.8906 1.2969 -1.9219 Q1.2969 -2.2031 1.3516 -2.6016 Q1.4062 -3 1.5 -3.4219 L2.3281 -6.8906 Q2.4219 -7.3281 2.4531 -7.5781 Q2.4844 -7.8281 2.4844 -8.0156 Q2.4844 -8.4531 2.25 -8.625 Q2.0156 -8.7969 1.4219 -8.8438 L1.5 -9.3438 Z" stroke="none"/></g><g text-rendering="optimizeLegibility" transform="translate(-0.7812,8.2031)" color-rendering="optimizeQuality" color-interpolation="linearRGB" image-rendering="optimizeQuality"><path d="M0.7812 -4.4531 L9.2812 -4.4531 L7.7344 -6.5781 L8.1406 -6.9531 L10.9375 -4.2188 L10.9375 -3.5469 L0.7812 -3.5469 L0.7812 -4.4531 Z" stroke="none"/></g><g text-rendering="optimizeLegibility" transform="translate(10.1562,19.8203)" color-rendering="optimizeQuality" color-interpolation="linearRGB" image-rendering="optimizeQuality"><path d="M2.5781 -1.9844 Q2.5156 -1.7812 2.4922 -1.6406 Q2.4688 -1.5 2.4453 -1.2891 Q2.4219 -1.0781 2.4219 -0.9219 Q2.4219 -0.7188 2.4922 -0.5938 Q2.5625 -0.4688 2.7031 -0.4141 Q2.8438 -0.3594 3.1719 -0.3281 L3.0938 0 L0.2812 0 L0.3594 -0.3281 Q0.625 -0.375 0.75 -0.4688 Q0.875 -0.5625 0.9688 -0.7266 Q1.0625 -0.8906 1.1328 -1.125 Q1.2031 -1.3594 1.3594 -2.0312 L2.5156 -7.2969 Q2.6719 -7.9844 2.6719 -8.375 Q2.6719 -8.7188 2.5156 -8.8438 Q2.3594 -8.9688 2 -9 L2.0781 -9.3281 L8.25 -9.3281 L7.7656 -7.2344 L7.1094 -7.2344 Q7.0938 -7.7188 7.0469 -7.9922 Q7 -8.2656 6.9219 -8.4062 Q6.8438 -8.5469 6.7578 -8.6094 Q6.6719 -8.6719 6.5391 -8.7031 Q6.4062 -8.7344 6.1562 -8.7344 L4.0469 -8.7344 L3.2344 -5.0156 L4.5156 -5.0156 Q4.8125 -5.0156 5.0156 -5.0938 Q5.2188 -5.1719 5.3906 -5.3906 Q5.5625 -5.6094 5.8125 -6.125 L6.4375 -6.125 L5.7656 -3.2344 L5.1719 -3.2344 Q5.1719 -3.6719 5.1562 -3.9062 Q5.1406 -4.1406 5.0703 -4.2344 Q5 -4.3281 4.8828 -4.3672 Q4.7656 -4.4062 4.4531 -4.4062 L3.1094 -4.4062 L2.5781 -1.9844 Z" stroke="none"/></g><g text-rendering="optimizeLegibility" transform="translate(21.4062,15)" color-rendering="optimizeQuality" color-interpolation="linearRGB" image-rendering="optimizeQuality"><path d="M1.2188 -7.0625 L1.2188 -8.4219 L9.8594 -8.4219 L9.8594 -7.0625 L1.2188 -7.0625 ZM1.2188 -3.0156 L1.2188 -4.3594 L9.8594 -4.3594 L9.8594 -3.0156 L1.2188 -3.0156 ZM22.5469 -10.6094 Q22.5469 -11.5469 22.5312 -11.9219 Q22.5156 -12.2969 22.4531 -12.5547 Q22.3906 -12.8125 22.2734 -12.9609 Q22.1562 -13.1094 21.9688 -13.1953 Q21.7812 -13.2812 21.2812 -13.375 L21.2812 -13.875 L23.6406 -13.9688 L24.2188 -13.9688 L24.2188 -2.6719 Q24.2188 -1.9062 24.25 -1.5781 Q24.2812 -1.25 24.375 -1.0547 Q24.4688 -0.8594 24.6797 -0.7344 Q24.8906 -0.6094 25.4219 -0.5156 L25.4219 0 L23.1094 0.0938 L22.5312 0.0938 L22.6406 -1.5 L22.5 -1.5469 Q21.8906 -0.8906 21.4375 -0.5625 Q20.9844 -0.2344 20.4688 -0.0391 Q19.9531 0.1562 19.3594 0.1562 Q17.7656 0.1562 16.8984 -1.0625 Q16.0312 -2.2812 16.0312 -4.5781 Q16.0312 -6.1719 16.5938 -7.2891 Q17.1562 -8.4062 18.1172 -8.9531 Q19.0781 -9.5 20.2812 -9.5 Q20.9219 -9.5 21.4531 -9.3984 Q21.9844 -9.2969 22.5469 -9.0625 L22.5469 -10.6094 ZM22.5469 -5.7969 Q22.5469 -6.5469 22.4766 -7.0078 Q22.4062 -7.4688 22.2422 -7.7812 Q22.0781 -8.0938 21.8047 -8.3125 Q21.5312 -8.5312 21.2031 -8.625 Q20.875 -8.7188 20.4219 -8.7188 Q19.1719 -8.7188 18.5156 -7.7188 Q17.8594 -6.7188 17.8594 -4.8438 Q17.8594 -2.9688 18.3984 -1.9922 Q18.9375 -1.0156 20.0312 -1.0156 Q20.4531 -1.0156 20.7422 -1.0859 Q21.0312 -1.1562 21.3047 -1.3203 Q21.5781 -1.4844 21.8594 -1.7656 Q22.1406 -2.0469 22.2734 -2.2812 Q22.4062 -2.5156 22.4766 -2.8203 Q22.5469 -3.125 22.5469 -3.6094 L22.5469 -5.7969 ZM29.7344 -13.1719 L29.7344 -11.2656 L27.9375 -11.2656 L27.9375 -13.1719 L29.7344 -13.1719 ZM26.9531 -0.4844 Q27.3281 -0.5938 27.4922 -0.6797 Q27.6562 -0.7656 27.7656 -0.9219 Q27.875 -1.0781 27.9375 -1.4062 Q28 -1.7344 28 -2.4062 L28 -6.6719 Q28 -7.2969 27.9844 -7.6797 Q27.9688 -8.0625 27.8516 -8.2891 Q27.7344 -8.5156 27.4922 -8.625 Q27.25 -8.7344 26.8125 -8.8125 L26.8125 -9.3438 L29.0938 -9.4219 L29.6875 -9.4219 L29.6875 -2.4375 Q29.6875 -1.6094 29.7656 -1.2812 Q29.8438 -0.9531 30.0625 -0.7812 Q30.2812 -0.6094 30.7812 -0.4844 L30.7812 0 L26.9531 0 L26.9531 -0.4844 ZM39.4844 -7.2031 L38.5469 -7.2031 Q38.3438 -7.7812 38.0469 -8.1172 Q37.75 -8.4531 37.3828 -8.5938 Q37.0156 -8.7344 36.4688 -8.7344 Q35.6875 -8.7344 35.2266 -8.3672 Q34.7656 -8 34.7656 -7.3594 Q34.7656 -6.9219 34.9531 -6.625 Q35.1406 -6.3281 35.5312 -6.0781 Q35.9219 -5.8281 36.9062 -5.4062 Q37.9062 -4.9688 38.4453 -4.6094 Q38.9844 -4.25 39.2891 -3.7734 Q39.5938 -3.2969 39.5938 -2.625 Q39.5938 -1.8594 39.3359 -1.3281 Q39.0781 -0.7969 38.5938 -0.4688 Q38.1094 -0.1406 37.4531 0.0078 Q36.7969 0.1562 36.0156 0.1562 Q35.1875 0.1562 34.4219 0.0312 Q33.6562 -0.0938 32.9219 -0.2812 L32.9219 -2.3281 L33.875 -2.3281 Q34.1406 -1.4219 34.6562 -1.0156 Q35.1719 -0.6094 36.0781 -0.6094 Q36.4375 -0.6094 36.7734 -0.6875 Q37.1094 -0.7656 37.375 -0.9375 Q37.6406 -1.1094 37.7969 -1.3984 Q37.9531 -1.6875 37.9531 -2.125 Q37.9531 -2.625 37.7578 -2.9375 Q37.5625 -3.25 37.1484 -3.5078 Q36.7344 -3.7656 35.7031 -4.2031 Q34.8125 -4.5781 34.2734 -4.9297 Q33.7344 -5.2812 33.4297 -5.7578 Q33.125 -6.2344 33.125 -6.8906 Q33.125 -7.7031 33.5625 -8.2891 Q34 -8.875 34.8203 -9.1875 Q35.6406 -9.5 36.7344 -9.5 Q37.375 -9.5 37.9766 -9.4375 Q38.5781 -9.375 39.4844 -9.1875 L39.4844 -7.2031 ZM44.5938 -0.2969 L44.5938 1.7656 Q44.5938 2.4062 44.6406 2.7188 Q44.6875 3.0312 44.7969 3.2109 Q44.9062 3.3906 45.1172 3.5078 Q45.3281 3.625 45.7969 3.7188 L45.7969 4.2031 L41.8125 4.2031 L41.8125 3.7188 Q42.1562 3.625 42.3828 3.5234 Q42.6094 3.4219 42.7266 3.2188 Q42.8438 3.0156 42.8828 2.6719 Q42.9219 2.3281 42.9219 1.7656 L42.9219 -6.6094 Q42.9219 -7.3125 42.8984 -7.6094 Q42.875 -7.9062 42.8203 -8.1016 Q42.7656 -8.2969 42.6484 -8.4297 Q42.5312 -8.5625 42.3438 -8.6484 Q42.1562 -8.7344 41.7188 -8.8125 L41.7188 -9.3438 L44.0156 -9.4219 L44.6094 -9.4219 L44.4844 -7.8281 L44.625 -7.7969 Q45.2344 -8.4062 45.5859 -8.6875 Q45.9375 -8.9688 46.3125 -9.1562 Q46.6875 -9.3438 47.0312 -9.4219 Q47.375 -9.5 47.7656 -9.5 Q49.375 -9.5 50.2422 -8.2891 Q51.1094 -7.0781 51.1094 -4.75 Q51.1094 -3.1406 50.6172 -2.0469 Q50.125 -0.9531 49.1953 -0.3984 Q48.2656 0.1562 46.9844 0.1562 Q46.25 0.1562 45.6641 0.0312 Q45.0781 -0.0938 44.5938 -0.2969 ZM44.5938 -3.5156 Q44.5938 -2.5781 44.7109 -2.0703 Q44.8281 -1.5625 45.125 -1.2422 Q45.4219 -0.9219 45.8281 -0.7656 Q46.2344 -0.6094 46.9062 -0.6094 Q48.0781 -0.6094 48.6719 -1.5938 Q49.2656 -2.5781 49.2656 -4.5 Q49.2656 -8.3281 47.0312 -8.3281 Q46.4844 -8.3281 46.0938 -8.1562 Q45.7031 -7.9844 45.3125 -7.6016 Q44.9219 -7.2188 44.7578 -6.8594 Q44.5938 -6.5 44.5938 -6.0938 L44.5938 -3.5156 ZM55.5625 -2.4375 Q55.5625 -1.6094 55.6406 -1.2812 Q55.7188 -0.9531 55.9375 -0.7812 Q56.1562 -0.6094 56.6562 -0.4844 L56.6562 0 L52.7656 0 L52.7656 -0.4844 Q53.2656 -0.6094 53.4531 -0.7422 Q53.6406 -0.875 53.7266 -1.0703 Q53.8125 -1.2656 53.8438 -1.5938 Q53.875 -1.9219 53.875 -2.4375 L53.875 -10.6094 Q53.875 -11.5469 53.8594 -11.9219 Q53.8438 -12.2969 53.7812 -12.5547 Q53.7188 -12.8125 53.6094 -12.9609 Q53.5 -13.1094 53.3047 -13.1953 Q53.1094 -13.2812 52.6094 -13.375 L52.6094 -13.875 L54.9688 -13.9688 L55.5625 -13.9688 L55.5625 -2.4375 ZM63.5938 -1.3906 L63.4531 -1.4375 Q62.5938 -0.5625 61.8516 -0.2031 Q61.1094 0.1562 60.2656 0.1562 Q59.5156 0.1562 58.9531 -0.1328 Q58.3906 -0.4219 58.0859 -0.9453 Q57.7812 -1.4688 57.7812 -2.1562 Q57.7812 -3.5781 59.1953 -4.3516 Q60.6094 -5.125 63.4219 -5.25 L63.4219 -5.8906 Q63.4219 -6.9062 63.2266 -7.4922 Q63.0312 -8.0781 62.6172 -8.3516 Q62.2031 -8.625 61.5 -8.625 Q60.7344 -8.625 60.2656 -8.2266 Q59.7969 -7.8281 59.5625 -7.0156 L58.2969 -7.0156 L58.2969 -8.2969 Q59.2344 -8.7812 59.8594 -9.0078 Q60.4844 -9.2344 61.1094 -9.3672 Q61.7344 -9.5 62.375 -9.5 Q63.3438 -9.5 63.9297 -9.1953 Q64.5156 -8.8906 64.8047 -8.2578 Q65.0938 -7.625 65.0938 -6.3438 L65.0938 -2.9375 Q65.0938 -2.2188 65.1016 -1.9219 Q65.1094 -1.625 65.1641 -1.3672 Q65.2188 -1.1094 65.3125 -0.9609 Q65.4062 -0.8125 65.6016 -0.7031 Q65.7969 -0.5938 66.2188 -0.4844 L66.2188 0 L63.5469 0 L63.5938 -1.3906 ZM63.4219 -4.4531 Q61.4375 -4.4375 60.4531 -3.9297 Q59.4688 -3.4219 59.4688 -2.3906 Q59.4688 -1.8438 59.6953 -1.5156 Q59.9219 -1.1875 60.2656 -1.0703 Q60.6094 -0.9531 61.0781 -0.9531 Q61.7344 -0.9531 62.2812 -1.2734 Q62.8281 -1.5938 63.125 -2.0938 Q63.4219 -2.5938 63.4219 -3.0781 L63.4219 -4.4531 ZM75.2188 -9.1094 L75.2188 -7.0781 L73.9844 -7.0781 Q73.8125 -7.7031 73.5703 -8.0703 Q73.3281 -8.4375 73.0078 -8.5859 Q72.6875 -8.7344 72.2031 -8.7344 Q71.5156 -8.7344 70.9922 -8.2969 Q70.4688 -7.8594 70.1641 -6.9609 Q69.8594 -6.0625 69.8594 -4.75 Q69.8594 -3.9219 69.9766 -3.2344 Q70.0938 -2.5469 70.375 -2.0625 Q70.6562 -1.5781 71.125 -1.3047 Q71.5938 -1.0312 72.2812 -1.0312 Q72.9531 -1.0312 73.5391 -1.2891 Q74.125 -1.5469 74.75 -2.2188 L75.2969 -1.5781 Q74.7969 -1.0312 74.4219 -0.7344 Q74.0469 -0.4375 73.6094 -0.2344 Q73.1719 -0.0312 72.75 0.0625 Q72.3281 0.1562 71.8281 0.1562 Q69.9844 0.1562 69.0078 -1.0703 Q68.0312 -2.2969 68.0312 -4.6094 Q68.0312 -6.0625 68.5781 -7.1797 Q69.125 -8.2969 70.1094 -8.8984 Q71.0938 -9.5 72.375 -9.5 Q73.1875 -9.5 73.8672 -9.4062 Q74.5469 -9.3125 75.2188 -9.1094 ZM84.75 -1.6562 Q84.125 -1 83.6016 -0.6328 Q83.0781 -0.2656 82.4531 -0.0547 Q81.8281 0.1562 81.0781 0.1562 Q79.0625 0.1562 78.0391 -1.0469 Q77.0156 -2.25 77.0156 -4.6094 Q77.0156 -6.0625 77.5391 -7.1797 Q78.0625 -8.2969 79.0312 -8.8984 Q80 -9.5 81.25 -9.5 Q82.2344 -9.5 82.9297 -9.1875 Q83.625 -8.875 84.0391 -8.3359 Q84.4531 -7.7969 84.6875 -6.9688 Q84.9219 -6.1406 84.9531 -4.8125 L78.7969 -4.8125 L78.7969 -4.6406 Q78.7969 -3.4844 79.0547 -2.7031 Q79.3125 -1.9219 79.9062 -1.4766 Q80.5 -1.0312 81.4375 -1.0312 Q82.2344 -1.0312 82.875 -1.3281 Q83.5156 -1.625 84.1562 -2.2969 L84.75 -1.6562 ZM83.1094 -5.625 Q83.0469 -6.6875 82.8438 -7.3516 Q82.6406 -8.0156 82.2344 -8.375 Q81.8281 -8.7344 81.1562 -8.7344 Q80.1562 -8.7344 79.5547 -7.9297 Q78.9531 -7.125 78.8438 -5.625 L83.1094 -5.625 ZM89.5781 -7.8281 L89.7188 -7.7969 Q90.3125 -8.375 90.6875 -8.6719 Q91.0625 -8.9688 91.4141 -9.1562 Q91.7656 -9.3438 92.0703 -9.4219 Q92.375 -9.5 92.7031 -9.5 Q93.6719 -9.5 94.2891 -9.0469 Q94.9062 -8.5938 95.1406 -7.6719 Q95.875 -8.4062 96.3281 -8.7578 Q96.7812 -9.1094 97.2578 -9.3047 Q97.7344 -9.5 98.2812 -9.5 Q98.9375 -9.5 99.4062 -9.3047 Q99.875 -9.1094 100.2031 -8.7188 Q100.5312 -8.3281 100.6797 -7.7266 Q100.8281 -7.125 100.8281 -6.125 L100.8281 -2.4375 Q100.8281 -1.7031 100.8828 -1.4219 Q100.9375 -1.1406 101.0312 -0.9844 Q101.125 -0.8281 101.3047 -0.7109 Q101.4844 -0.5938 101.9219 -0.4844 L101.9219 0 L98.0938 0 L98.0938 -0.4844 Q98.4688 -0.5938 98.6328 -0.6797 Q98.7969 -0.7656 98.9141 -0.9219 Q99.0312 -1.0781 99.0938 -1.4062 Q99.1562 -1.7344 99.1562 -2.4062 L99.1562 -4.9688 Q99.1562 -5.7969 99.1094 -6.3359 Q99.0625 -6.875 98.9688 -7.1953 Q98.875 -7.5156 98.75 -7.7031 Q98.625 -7.8906 98.4531 -8.0312 Q98.2812 -8.1719 98.0625 -8.25 Q97.8438 -8.3281 97.4688 -8.3281 Q97.0781 -8.3281 96.7422 -8.1719 Q96.4062 -8.0156 96.0078 -7.6406 Q95.6094 -7.2656 95.4375 -6.8906 Q95.2656 -6.5156 95.2656 -6 L95.2656 -2.4375 Q95.2656 -1.7031 95.3125 -1.4219 Q95.3594 -1.1406 95.4531 -0.9844 Q95.5469 -0.8281 95.7266 -0.7109 Q95.9062 -0.5938 96.3594 -0.4844 L96.3594 0 L92.5156 0 L92.5156 -0.4844 Q92.8906 -0.5938 93.0625 -0.6797 Q93.2344 -0.7656 93.3438 -0.9219 Q93.4531 -1.0781 93.5156 -1.4062 Q93.5781 -1.7344 93.5781 -2.4062 L93.5781 -4.9688 Q93.5781 -5.8281 93.5312 -6.375 Q93.4844 -6.9219 93.3828 -7.2578 Q93.2812 -7.5938 93.1172 -7.7969 Q92.9531 -8 92.7891 -8.1094 Q92.625 -8.2188 92.3984 -8.2734 Q92.1719 -8.3281 91.8906 -8.3281 Q91.4844 -8.3281 91.1328 -8.1406 Q90.7812 -7.9531 90.4141 -7.6172 Q90.0469 -7.2812 89.8672 -6.9062 Q89.6875 -6.5312 89.6875 -6.1094 L89.6875 -2.4375 Q89.6875 -1.8906 89.7109 -1.5938 Q89.7344 -1.2969 89.8047 -1.1328 Q89.875 -0.9688 89.9688 -0.8672 Q90.0625 -0.7656 90.2422 -0.6719 Q90.4219 -0.5781 90.7812 -0.4844 L90.7812 0 L86.9531 0 L86.9531 -0.4844 Q87.3281 -0.5938 87.4922 -0.6797 Q87.6562 -0.7656 87.7734 -0.9219 Q87.8906 -1.0781 87.9453 -1.4062 Q88 -1.7344 88 -2.4062 L88 -6.6719 Q88 -7.2969 87.9844 -7.6797 Q87.9688 -8.0625 87.8516 -8.2891 Q87.7344 -8.5156 87.4922 -8.625 Q87.25 -8.7344 86.8125 -8.8125 L86.8125 -9.3438 L89.0938 -9.4219 L89.6875 -9.4219 L89.5781 -7.8281 ZM111.75 -1.6562 Q111.125 -1 110.6016 -0.6328 Q110.0781 -0.2656 109.4531 -0.0547 Q108.8281 0.1562 108.0781 0.1562 Q106.0625 0.1562 105.0391 -1.0469 Q104.0156 -2.25 104.0156 -4.6094 Q104.0156 -6.0625 104.5391 -7.1797 Q105.0625 -8.2969 106.0312 -8.8984 Q107 -9.5 108.25 -9.5 Q109.2344 -9.5 109.9297 -9.1875 Q110.625 -8.875 111.0391 -8.3359 Q111.4531 -7.7969 111.6875 -6.9688 Q111.9219 -6.1406 111.9531 -4.8125 L105.7969 -4.8125 L105.7969 -4.6406 Q105.7969 -3.4844 106.0547 -2.7031 Q106.3125 -1.9219 106.9062 -1.4766 Q107.5 -1.0312 108.4375 -1.0312 Q109.2344 -1.0312 109.875 -1.3281 Q110.5156 -1.625 111.1562 -2.2969 L111.75 -1.6562 ZM110.1094 -5.625 Q110.0469 -6.6875 109.8438 -7.3516 Q109.6406 -8.0156 109.2344 -8.375 Q108.8281 -8.7344 108.1562 -8.7344 Q107.1562 -8.7344 106.5547 -7.9297 Q105.9531 -7.125 105.8438 -5.625 L110.1094 -5.625 ZM123.4531 0 L119.6094 0 L119.6094 -0.4844 Q120 -0.5938 120.1641 -0.6797 Q120.3281 -0.7656 120.4375 -0.9219 Q120.5469 -1.0781 120.6094 -1.4062 Q120.6719 -1.7344 120.6719 -2.4062 L120.6719 -4.9688 Q120.6719 -5.6406 120.6328 -6.2031 Q120.5938 -6.7656 120.5 -7.1172 Q120.4062 -7.4688 120.2812 -7.6719 Q120.1562 -7.875 119.9688 -8.0156 Q119.7812 -8.1562 119.5469 -8.2422 Q119.3125 -8.3281 118.9375 -8.3281 Q118.5625 -8.3281 118.2188 -8.1719 Q117.875 -8.0156 117.4609 -7.6484 Q117.0469 -7.2812 116.8672 -6.9141 Q116.6875 -6.5469 116.6875 -6.0781 L116.6875 -2.4375 Q116.6875 -1.6094 116.7656 -1.2812 Q116.8438 -0.9531 117.0625 -0.7812 Q117.2812 -0.6094 117.7812 -0.4844 L117.7812 0 L113.9531 0 L113.9531 -0.4844 Q114.3281 -0.5938 114.4922 -0.6797 Q114.6562 -0.7656 114.7656 -0.9219 Q114.875 -1.0781 114.9375 -1.4062 Q115 -1.7344 115 -2.4062 L115 -6.6719 Q115 -7.2969 114.9844 -7.6797 Q114.9688 -8.0625 114.8516 -8.2891 Q114.7344 -8.5156 114.4922 -8.625 Q114.25 -8.7344 113.8125 -8.8125 L113.8125 -9.3438 L116.0938 -9.4219 L116.6875 -9.4219 L116.5781 -7.8281 L116.7188 -7.7969 Q117.4375 -8.5312 117.8828 -8.8438 Q118.3281 -9.1562 118.7812 -9.3281 Q119.2344 -9.5 119.75 -9.5 Q120.2812 -9.5 120.6953 -9.375 Q121.1094 -9.25 121.4219 -8.9922 Q121.7344 -8.7344 121.9453 -8.3594 Q122.1562 -7.9844 122.2578 -7.4609 Q122.3594 -6.9375 122.3594 -6.125 L122.3594 -2.4375 Q122.3594 -1.7656 122.3984 -1.4609 Q122.4375 -1.1562 122.5312 -0.9922 Q122.625 -0.8281 122.8125 -0.7188 Q123 -0.6094 123.4531 -0.4844 L123.4531 0 ZM124.3594 -8.8438 Q124.8438 -8.9219 125.1484 -9.1172 Q125.4531 -9.3125 125.625 -9.625 Q125.7969 -9.9375 125.8984 -10.3984 Q126 -10.8594 126.0938 -11.75 L127.4844 -11.75 L127.4844 -9.3438 L130.6406 -9.3438 L130.6406 -8.3438 L127.4844 -8.3438 L127.4844 -4 Q127.4844 -3.0625 127.5625 -2.5 Q127.6406 -1.9375 127.8594 -1.6172 Q128.0781 -1.2969 128.3516 -1.1641 Q128.625 -1.0312 129.0469 -1.0312 Q129.4375 -1.0312 129.7812 -1.1875 Q130.125 -1.3438 130.4531 -1.6562 L130.8906 -1.125 Q130.2031 -0.4531 129.5859 -0.1484 Q128.9688 0.1562 128.2969 0.1562 Q127.0312 0.1562 126.4219 -0.5938 Q125.8125 -1.3438 125.8125 -2.9375 L125.8125 -8.3438 L124.3594 -8.3438 L124.3594 -8.8438 ZM138.7344 -13.1719 L138.7344 -11.2656 L136.9375 -11.2656 L136.9375 -13.1719 L138.7344 -13.1719 ZM135.9531 -0.4844 Q136.3281 -0.5938 136.4922 -0.6797 Q136.6562 -0.7656 136.7656 -0.9219 Q136.875 -1.0781 136.9375 -1.4062 Q137 -1.7344 137 -2.4062 L137 -6.6719 Q137 -7.2969 136.9844 -7.6797 Q136.9688 -8.0625 136.8516 -8.2891 Q136.7344 -8.5156 136.4922 -8.625 Q136.25 -8.7344 135.8125 -8.8125 L135.8125 -9.3438 L138.0938 -9.4219 L138.6875 -9.4219 L138.6875 -2.4375 Q138.6875 -1.6094 138.7656 -1.2812 Q138.8438 -0.9531 139.0625 -0.7812 Q139.2812 -0.6094 139.7812 -0.4844 L139.7812 0 L135.9531 0 L135.9531 -0.4844 ZM151.4531 0 L147.6094 0 L147.6094 -0.4844 Q148 -0.5938 148.1641 -0.6797 Q148.3281 -0.7656 148.4375 -0.9219 Q148.5469 -1.0781 148.6094 -1.4062 Q148.6719 -1.7344 148.6719 -2.4062 L148.6719 -4.9688 Q148.6719 -5.6406 148.6328 -6.2031 Q148.5938 -6.7656 148.5 -7.1172 Q148.4062 -7.4688 148.2812 -7.6719 Q148.1562 -7.875 147.9688 -8.0156 Q147.7812 -8.1562 147.5469 -8.2422 Q147.3125 -8.3281 146.9375 -8.3281 Q146.5625 -8.3281 146.2188 -8.1719 Q145.875 -8.0156 145.4609 -7.6484 Q145.0469 -7.2812 144.8672 -6.9141 Q144.6875 -6.5469 144.6875 -6.0781 L144.6875 -2.4375 Q144.6875 -1.6094 144.7656 -1.2812 Q144.8438 -0.9531 145.0625 -0.7812 Q145.2812 -0.6094 145.7812 -0.4844 L145.7812 0 L141.9531 0 L141.9531 -0.4844 Q142.3281 -0.5938 142.4922 -0.6797 Q142.6562 -0.7656 142.7656 -0.9219 Q142.875 -1.0781 142.9375 -1.4062 Q143 -1.7344 143 -2.4062 L143 -6.6719 Q143 -7.2969 142.9844 -7.6797 Q142.9688 -8.0625 142.8516 -8.2891 Q142.7344 -8.5156 142.4922 -8.625 Q142.25 -8.7344 141.8125 -8.8125 L141.8125 -9.3438 L144.0938 -9.4219 L144.6875 -9.4219 L144.5781 -7.8281 L144.7188 -7.7969 Q145.4375 -8.5312 145.8828 -8.8438 Q146.3281 -9.1562 146.7812 -9.3281 Q147.2344 -9.5 147.75 -9.5 Q148.2812 -9.5 148.6953 -9.375 Q149.1094 -9.25 149.4219 -8.9922 Q149.7344 -8.7344 149.9453 -8.3594 Q150.1562 -7.9844 150.2578 -7.4609 Q150.3594 -6.9375 150.3594 -6.125 L150.3594 -2.4375 Q150.3594 -1.7656 150.3984 -1.4609 Q150.4375 -1.1562 150.5312 -0.9922 Q150.625 -0.8281 150.8125 -0.7188 Q151 -0.6094 151.4531 -0.4844 L151.4531 0 ZM162.5938 -1.3906 L162.4531 -1.4375 Q161.5938 -0.5625 160.8516 -0.2031 Q160.1094 0.1562 159.2656 0.1562 Q158.5156 0.1562 157.9531 -0.1328 Q157.3906 -0.4219 157.0859 -0.9453 Q156.7812 -1.4688 156.7812 -2.1562 Q156.7812 -3.5781 158.1953 -4.3516 Q159.6094 -5.125 162.4219 -5.25 L162.4219 -5.8906 Q162.4219 -6.9062 162.2266 -7.4922 Q162.0312 -8.0781 161.6172 -8.3516 Q161.2031 -8.625 160.5 -8.625 Q159.7344 -8.625 159.2656 -8.2266 Q158.7969 -7.8281 158.5625 -7.0156 L157.2969 -7.0156 L157.2969 -8.2969 Q158.2344 -8.7812 158.8594 -9.0078 Q159.4844 -9.2344 160.1094 -9.3672 Q160.7344 -9.5 161.375 -9.5 Q162.3438 -9.5 162.9297 -9.1953 Q163.5156 -8.8906 163.8047 -8.2578 Q164.0938 -7.625 164.0938 -6.3438 L164.0938 -2.9375 Q164.0938 -2.2188 164.1016 -1.9219 Q164.1094 -1.625 164.1641 -1.3672 Q164.2188 -1.1094 164.3125 -0.9609 Q164.4062 -0.8125 164.6016 -0.7031 Q164.7969 -0.5938 165.2188 -0.4844 L165.2188 0 L162.5469 0 L162.5938 -1.3906 ZM162.4219 -4.4531 Q160.4375 -4.4375 159.4531 -3.9297 Q158.4688 -3.4219 158.4688 -2.3906 Q158.4688 -1.8438 158.6953 -1.5156 Q158.9219 -1.1875 159.2656 -1.0703 Q159.6094 -0.9531 160.0781 -0.9531 Q160.7344 -0.9531 161.2812 -1.2734 Q161.8281 -1.5938 162.125 -2.0938 Q162.4219 -2.5938 162.4219 -3.0781 L162.4219 -4.4531 ZM174.2188 -9.1094 L174.2188 -7.0781 L172.9844 -7.0781 Q172.8125 -7.7031 172.5703 -8.0703 Q172.3281 -8.4375 172.0078 -8.5859 Q171.6875 -8.7344 171.2031 -8.7344 Q170.5156 -8.7344 169.9922 -8.2969 Q169.4688 -7.8594 169.1641 -6.9609 Q168.8594 -6.0625 168.8594 -4.75 Q168.8594 -3.9219 168.9766 -3.2344 Q169.0938 -2.5469 169.375 -2.0625 Q169.6562 -1.5781 170.125 -1.3047 Q170.5938 -1.0312 171.2812 -1.0312 Q171.9531 -1.0312 172.5391 -1.2891 Q173.125 -1.5469 173.75 -2.2188 L174.2969 -1.5781 Q173.7969 -1.0312 173.4219 -0.7344 Q173.0469 -0.4375 172.6094 -0.2344 Q172.1719 -0.0312 171.75 0.0625 Q171.3281 0.1562 170.8281 0.1562 Q168.9844 0.1562 168.0078 -1.0703 Q167.0312 -2.2969 167.0312 -4.6094 Q167.0312 -6.0625 167.5781 -7.1797 Q168.125 -8.2969 169.1094 -8.8984 Q170.0938 -9.5 171.375 -9.5 Q172.1875 -9.5 172.8672 -9.4062 Q173.5469 -9.3125 174.2188 -9.1094 ZM180.2031 0.1562 Q178.1719 0.1562 177.1016 -1.0391 Q176.0312 -2.2344 176.0312 -4.5781 Q176.0312 -6.1875 176.5938 -7.3047 Q177.1562 -8.4219 178.1328 -8.9609 Q179.1094 -9.5 180.3594 -9.5 Q182.4375 -9.5 183.5156 -8.2891 Q184.5938 -7.0781 184.5938 -4.7969 Q184.5938 -3.1719 184.0547 -2.0625 Q183.5156 -0.9531 182.5312 -0.3984 Q181.5469 0.1562 180.2031 0.1562 ZM177.875 -4.7812 Q177.875 -2.7812 178.5156 -1.6953 Q179.1562 -0.6094 180.3438 -0.6094 Q181 -0.6094 181.4609 -0.9297 Q181.9219 -1.25 182.2031 -1.7891 Q182.4844 -2.3281 182.6172 -3.0312 Q182.75 -3.7344 182.75 -4.5156 Q182.75 -5.9531 182.4297 -6.8984 Q182.1094 -7.8438 181.5625 -8.2891 Q181.0156 -8.7344 180.3125 -8.7344 Q179.125 -8.7344 178.5 -7.7109 Q177.875 -6.6875 177.875 -4.7812 ZM186.7188 -9.3438 L189.5 -9.3438 L189.5 -4.3594 Q189.5 -3.2188 189.5859 -2.625 Q189.6719 -2.0312 189.8516 -1.7266 Q190.0312 -1.4219 190.3516 -1.2188 Q190.6719 -1.0156 191.2344 -1.0156 Q191.6094 -1.0156 191.9531 -1.1641 Q192.2969 -1.3125 192.7109 -1.6797 Q193.125 -2.0469 193.3047 -2.4062 Q193.4844 -2.7656 193.4844 -3.25 L193.4844 -6.9062 Q193.4844 -7.4688 193.4609 -7.75 Q193.4375 -8.0312 193.3672 -8.2031 Q193.2969 -8.375 193.2031 -8.4766 Q193.1094 -8.5781 192.9375 -8.6719 Q192.7656 -8.7656 192.3906 -8.8594 L192.3906 -9.3438 L195.1719 -9.3438 L195.1719 -2.6719 Q195.1719 -1.9219 195.2031 -1.5859 Q195.2344 -1.25 195.3281 -1.0547 Q195.4219 -0.8594 195.625 -0.7344 Q195.8281 -0.6094 196.3594 -0.5156 L196.3594 0 L194.125 0.0938 L193.5312 0.0938 L193.5938 -1.5 L193.4375 -1.5469 Q192.625 -0.6719 191.8906 -0.2578 Q191.1562 0.1562 190.4219 0.1562 Q189.5312 0.1562 188.9531 -0.1953 Q188.375 -0.5469 188.0938 -1.2422 Q187.8125 -1.9375 187.8125 -3.2188 L187.8125 -6.9062 Q187.8125 -7.7188 187.75 -8.0312 Q187.6875 -8.3438 187.5 -8.5234 Q187.3125 -8.7031 186.7188 -8.8594 L186.7188 -9.3438 ZM204.4844 -7.2031 L203.5469 -7.2031 Q203.3438 -7.7812 203.0469 -8.1172 Q202.75 -8.4531 202.3828 -8.5938 Q202.0156 -8.7344 201.4688 -8.7344 Q200.6875 -8.7344 200.2266 -8.3672 Q199.7656 -8 199.7656 -7.3594 Q199.7656 -6.9219 199.9531 -6.625 Q200.1406 -6.3281 200.5312 -6.0781 Q200.9219 -5.8281 201.9062 -5.4062 Q202.9062 -4.9688 203.4453 -4.6094 Q203.9844 -4.25 204.2891 -3.7734 Q204.5938 -3.2969 204.5938 -2.625 Q204.5938 -1.8594 204.3359 -1.3281 Q204.0781 -0.7969 203.5938 -0.4688 Q203.1094 -0.1406 202.4531 0.0078 Q201.7969 0.1562 201.0156 0.1562 Q200.1875 0.1562 199.4219 0.0312 Q198.6562 -0.0938 197.9219 -0.2812 L197.9219 -2.3281 L198.875 -2.3281 Q199.1406 -1.4219 199.6562 -1.0156 Q200.1719 -0.6094 201.0781 -0.6094 Q201.4375 -0.6094 201.7734 -0.6875 Q202.1094 -0.7656 202.375 -0.9375 Q202.6406 -1.1094 202.7969 -1.3984 Q202.9531 -1.6875 202.9531 -2.125 Q202.9531 -2.625 202.7578 -2.9375 Q202.5625 -3.25 202.1484 -3.5078 Q201.7344 -3.7656 200.7031 -4.2031 Q199.8125 -4.5781 199.2734 -4.9297 Q198.7344 -5.2812 198.4297 -5.7578 Q198.125 -6.2344 198.125 -6.8906 Q198.125 -7.7031 198.5625 -8.2891 Q199 -8.875 199.8203 -9.1875 Q200.6406 -9.5 201.7344 -9.5 Q202.375 -9.5 202.9766 -9.4375 Q203.5781 -9.375 204.4844 -9.1875 L204.4844 -7.2031 ZM206.3594 -8.8438 Q206.8438 -8.9219 207.1484 -9.1172 Q207.4531 -9.3125 207.625 -9.625 Q207.7969 -9.9375 207.8984 -10.3984 Q208 -10.8594 208.0938 -11.75 L209.4844 -11.75 L209.4844 -9.3438 L212.6406 -9.3438 L212.6406 -8.3438 L209.4844 -8.3438 L209.4844 -4 Q209.4844 -3.0625 209.5625 -2.5 Q209.6406 -1.9375 209.8594 -1.6172 Q210.0781 -1.2969 210.3516 -1.1641 Q210.625 -1.0312 211.0469 -1.0312 Q211.4375 -1.0312 211.7812 -1.1875 Q212.125 -1.3438 212.4531 -1.6562 L212.8906 -1.125 Q212.2031 -0.4531 211.5859 -0.1484 Q210.9688 0.1562 210.2969 0.1562 Q209.0312 0.1562 208.4219 -0.5938 Q207.8125 -1.3438 207.8125 -2.9375 L207.8125 -8.3438 L206.3594 -8.3438 L206.3594 -8.8438 ZM216.7344 -13.1719 L216.7344 -11.2656 L214.9375 -11.2656 L214.9375 -13.1719 L216.7344 -13.1719 ZM213.9531 -0.4844 Q214.3281 -0.5938 214.4922 -0.6797 Q214.6562 -0.7656 214.7656 -0.9219 Q214.875 -1.0781 214.9375 -1.4062 Q215 -1.7344 215 -2.4062 L215 -6.6719 Q215 -7.2969 214.9844 -7.6797 Q214.9688 -8.0625 214.8516 -8.2891 Q214.7344 -8.5156 214.4922 -8.625 Q214.25 -8.7344 213.8125 -8.8125 L213.8125 -9.3438 L216.0938 -9.4219 L216.6875 -9.4219 L216.6875 -2.4375 Q216.6875 -1.6094 216.7656 -1.2812 Q216.8438 -0.9531 217.0625 -0.7812 Q217.2812 -0.6094 217.7812 -0.4844 L217.7812 0 L213.9531 0 L213.9531 -0.4844 ZM227.2188 -9.1094 L227.2188 -7.0781 L225.9844 -7.0781 Q225.8125 -7.7031 225.5703 -8.0703 Q225.3281 -8.4375 225.0078 -8.5859 Q224.6875 -8.7344 224.2031 -8.7344 Q223.5156 -8.7344 222.9922 -8.2969 Q222.4688 -7.8594 222.1641 -6.9609 Q221.8594 -6.0625 221.8594 -4.75 Q221.8594 -3.9219 221.9766 -3.2344 Q222.0938 -2.5469 222.375 -2.0625 Q222.6562 -1.5781 223.125 -1.3047 Q223.5938 -1.0312 224.2812 -1.0312 Q224.9531 -1.0312 225.5391 -1.2891 Q226.125 -1.5469 226.75 -2.2188 L227.2969 -1.5781 Q226.7969 -1.0312 226.4219 -0.7344 Q226.0469 -0.4375 225.6094 -0.2344 Q225.1719 -0.0312 224.75 0.0625 Q224.3281 0.1562 223.8281 0.1562 Q221.9844 0.1562 221.0078 -1.0703 Q220.0312 -2.2969 220.0312 -4.6094 Q220.0312 -6.0625 220.5781 -7.1797 Q221.125 -8.2969 222.1094 -8.8984 Q223.0938 -9.5 224.375 -9.5 Q225.1875 -9.5 225.8672 -9.4062 Q226.5469 -9.3125 227.2188 -9.1094 ZM237.9688 -8.3438 L235.6406 -8.3438 L235.6406 -2.4375 Q235.6406 -1.7812 235.7031 -1.4531 Q235.7656 -1.125 235.8828 -0.9531 Q236 -0.7812 236.2031 -0.6797 Q236.4062 -0.5781 236.8438 -0.4844 L236.8438 0 L232.8438 0 L232.8438 -0.4844 Q233.2812 -0.5938 233.4688 -0.7031 Q233.6562 -0.8125 233.7578 -0.9766 Q233.8594 -1.1406 233.9062 -1.4531 Q233.9531 -1.7656 233.9531 -2.4375 L233.9531 -8.3438 L232.7656 -8.3438 L232.7656 -8.8438 Q233.1406 -8.9062 233.2656 -8.9375 Q233.3906 -8.9688 233.5 -9.0391 Q233.6094 -9.1094 233.6953 -9.2344 Q233.7812 -9.3594 233.8438 -9.6094 Q233.9062 -9.8594 233.9375 -10.3125 Q234.0312 -11.375 234.3281 -12.0391 Q234.625 -12.7031 235.1953 -13.1719 Q235.7656 -13.6406 236.4141 -13.8359 Q237.0625 -14.0312 237.9531 -14.0312 Q238.7188 -14.0312 239.25 -13.9219 L239.25 -12.1562 L238.2969 -12.1562 Q238.1094 -12.7188 237.8594 -12.9609 Q237.6094 -13.2031 237.1562 -13.2031 Q236.8281 -13.2031 236.6094 -13.1172 Q236.3906 -13.0312 236.2109 -12.8438 Q236.0312 -12.6562 235.8984 -12.3438 Q235.7656 -12.0312 235.7031 -11.5703 Q235.6406 -11.1094 235.6406 -10.3594 L235.6406 -9.3438 L237.9688 -9.3438 L237.9688 -8.3438 ZM241.5625 -2.4375 Q241.5625 -1.6094 241.6406 -1.2812 Q241.7188 -0.9531 241.9375 -0.7812 Q242.1562 -0.6094 242.6562 -0.4844 L242.6562 0 L238.7656 0 L238.7656 -0.4844 Q239.2656 -0.6094 239.4531 -0.7422 Q239.6406 -0.875 239.7266 -1.0703 Q239.8125 -1.2656 239.8438 -1.5938 Q239.875 -1.9219 239.875 -2.4375 L239.875 -10.6094 Q239.875 -11.5469 239.8594 -11.9219 Q239.8438 -12.2969 239.7812 -12.5547 Q239.7188 -12.8125 239.6094 -12.9609 Q239.5 -13.1094 239.3047 -13.1953 Q239.1094 -13.2812 238.6094 -13.375 L238.6094 -13.875 L240.9688 -13.9688 L241.5625 -13.9688 L241.5625 -2.4375 ZM243.7188 -9.3438 L246.5 -9.3438 L246.5 -4.3594 Q246.5 -3.2188 246.5859 -2.625 Q246.6719 -2.0312 246.8516 -1.7266 Q247.0312 -1.4219 247.3516 -1.2188 Q247.6719 -1.0156 248.2344 -1.0156 Q248.6094 -1.0156 248.9531 -1.1641 Q249.2969 -1.3125 249.7109 -1.6797 Q250.125 -2.0469 250.3047 -2.4062 Q250.4844 -2.7656 250.4844 -3.25 L250.4844 -6.9062 Q250.4844 -7.4688 250.4609 -7.75 Q250.4375 -8.0312 250.3672 -8.2031 Q250.2969 -8.375 250.2031 -8.4766 Q250.1094 -8.5781 249.9375 -8.6719 Q249.7656 -8.7656 249.3906 -8.8594 L249.3906 -9.3438 L252.1719 -9.3438 L252.1719 -2.6719 Q252.1719 -1.9219 252.2031 -1.5859 Q252.2344 -1.25 252.3281 -1.0547 Q252.4219 -0.8594 252.625 -0.7344 Q252.8281 -0.6094 253.3594 -0.5156 L253.3594 0 L251.125 0.0938 L250.5312 0.0938 L250.5938 -1.5 L250.4375 -1.5469 Q249.625 -0.6719 248.8906 -0.2578 Q248.1562 0.1562 247.4219 0.1562 Q246.5312 0.1562 245.9531 -0.1953 Q245.375 -0.5469 245.0938 -1.2422 Q244.8125 -1.9375 244.8125 -3.2188 L244.8125 -6.9062 Q244.8125 -7.7188 244.75 -8.0312 Q244.6875 -8.3438 244.5 -8.5234 Q244.3125 -8.7031 243.7188 -8.8594 L243.7188 -9.3438 ZM257.7344 -13.1719 L257.7344 -11.2656 L255.9375 -11.2656 L255.9375 -13.1719 L257.7344 -13.1719 ZM254.9531 -0.4844 Q255.3281 -0.5938 255.4922 -0.6797 Q255.6562 -0.7656 255.7656 -0.9219 Q255.875 -1.0781 255.9375 -1.4062 Q256 -1.7344 256 -2.4062 L256 -6.6719 Q256 -7.2969 255.9844 -7.6797 Q255.9688 -8.0625 255.8516 -8.2891 Q255.7344 -8.5156 255.4922 -8.625 Q255.25 -8.7344 254.8125 -8.8125 L254.8125 -9.3438 L257.0938 -9.4219 L257.6875 -9.4219 L257.6875 -2.4375 Q257.6875 -1.6094 257.7656 -1.2812 Q257.8438 -0.9531 258.0625 -0.7812 Q258.2812 -0.6094 258.7812 -0.4844 L258.7812 0 L254.9531 0 L254.9531 -0.4844 ZM267.5469 -10.6094 Q267.5469 -11.5469 267.5312 -11.9219 Q267.5156 -12.2969 267.4531 -12.5547 Q267.3906 -12.8125 267.2734 -12.9609 Q267.1562 -13.1094 266.9688 -13.1953 Q266.7812 -13.2812 266.2812 -13.375 L266.2812 -13.875 L268.6406 -13.9688 L269.2188 -13.9688 L269.2188 -2.6719 Q269.2188 -1.9062 269.25 -1.5781 Q269.2812 -1.25 269.375 -1.0547 Q269.4688 -0.8594 269.6797 -0.7344 Q269.8906 -0.6094 270.4219 -0.5156 L270.4219 0 L268.1094 0.0938 L267.5312 0.0938 L267.6406 -1.5 L267.5 -1.5469 Q266.8906 -0.8906 266.4375 -0.5625 Q265.9844 -0.2344 265.4688 -0.0391 Q264.9531 0.1562 264.3594 0.1562 Q262.7656 0.1562 261.8984 -1.0625 Q261.0312 -2.2812 261.0312 -4.5781 Q261.0312 -6.1719 261.5938 -7.2891 Q262.1562 -8.4062 263.1172 -8.9531 Q264.0781 -9.5 265.2812 -9.5 Q265.9219 -9.5 266.4531 -9.3984 Q266.9844 -9.2969 267.5469 -9.0625 L267.5469 -10.6094 ZM267.5469 -5.7969 Q267.5469 -6.5469 267.4766 -7.0078 Q267.4062 -7.4688 267.2422 -7.7812 Q267.0781 -8.0938 266.8047 -8.3125 Q266.5312 -8.5312 266.2031 -8.625 Q265.875 -8.7188 265.4219 -8.7188 Q264.1719 -8.7188 263.5156 -7.7188 Q262.8594 -6.7188 262.8594 -4.8438 Q262.8594 -2.9688 263.3984 -1.9922 Q263.9375 -1.0156 265.0312 -1.0156 Q265.4531 -1.0156 265.7422 -1.0859 Q266.0312 -1.1562 266.3047 -1.3203 Q266.5781 -1.4844 266.8594 -1.7656 Q267.1406 -2.0469 267.2734 -2.2812 Q267.4062 -2.5156 267.4766 -2.8203 Q267.5469 -3.125 267.5469 -3.6094 L267.5469 -5.7969 Z" stroke="none"/></g></g></svg>