<?xml version="1.0" encoding="UTF-8" standalone="no"?><svg xmlns="http://www.w3.org/2000/svg" xmlns:xlink="http://www.w3.org/1999/xlink" stroke-dasharray="none" shape-rendering="auto" font-family="'Dialog'" width="532.812600" text-rendering="auto" fill-opacity="1" contentScriptType="text/ecmascript" color-interpolation="auto" color-rendering="auto" preserveAspectRatio="xMidYMid meet" font-size="12" fill="black" stroke="black" image-rendering="auto" stroke-miterlimit="10" zoomAndPan="magnify" version="1.0" stroke-linecap="square" stroke-linejoin="miter" contentStyleType="text/css" font-style="normal" height="57" stroke-width="1" stroke-dashoffset="0" font-weight="normal" stroke-opacity="1" y="-21.000000"><!--Converted from MathML using JEuclid--><defs id="genericDefs"/><g><g text-rendering="optimizeLegibility" transform="translate(-0.2344,41.2326) matrix(1,0,0,2.5503,0,0)" color-rendering="optimizeQuality" color-interpolation="linearRGB" image-rendering="optimizeQuality"><path d="M6.5781 4.2031 L2.2344 4.2031 L2.2344 -13.9688 L6.5781 -13.9688 L6.5781 -13.1719 L3.9531 -13.1719 L3.9531 3.4062 L6.5781 3.4062 L6.5781 4.2031 Z" stroke="none"/></g><g text-rendering="optimizeLegibility" transform="translate(8.1094,18.4957) matrix(1,0,0,1.2572,0,0)" color-rendering="optimizeQuality" color-interpolation="linearRGB" image-rendering="optimizeQuality"><path d="M6.5781 4.2031 L2.2344 4.2031 L2.2344 -13.9688 L6.5781 -13.9688 L6.5781 -13.1719 L3.9531 -13.1719 L3.9531 3.4062 L6.5781 3.4062 L6.5781 4.2031 Z" stroke="none"/></g><g text-rendering="optimizeLegibility" transform="translate(16.6875,19.5769)" color-rendering="optimizeQuality" color-interpolation="linearRGB" image-rendering="optimizeQuality"><path d="M15.125 -12.8594 Q14.7031 -12.75 14.5078 -12.6406 Q14.3125 -12.5312 14.2031 -12.3672 Q14.0938 -12.2031 14.0391 -11.8828 Q13.9844 -11.5625 13.9844 -10.8906 L13.9844 -2.4375 Q13.9844 -1.7812 14.0312 -1.4844 Q14.0781 -1.1875 14.1797 -1.0078 Q14.2812 -0.8281 14.4766 -0.7109 Q14.6719 -0.5938 15.125 -0.4844 L15.125 0 L11.0625 0 L11.0625 -0.4844 Q11.6094 -0.6094 11.8281 -0.7891 Q12.0469 -0.9688 12.125 -1.3125 Q12.2031 -1.6562 12.2031 -2.4375 L12.2031 -6.1875 Q12.2031 -7.6562 12.2422 -9.1641 Q12.2812 -10.6719 12.3438 -11.2344 L12.1719 -11.2344 L8.3125 -1.5469 L7.1875 -1.5469 L3.5938 -11.3906 L3.4219 -11.3906 Q3.4844 -10.7969 3.5234 -9.2344 Q3.5625 -7.6719 3.5625 -6.0156 L3.5625 -2.4375 Q3.5625 -1.7812 3.6094 -1.4844 Q3.6562 -1.1875 3.7578 -1.0078 Q3.8594 -0.8281 4.0625 -0.7109 Q4.2656 -0.5938 4.7031 -0.4844 L4.7031 0 L1.1406 0 L1.1406 -0.4844 Q1.75 -0.6406 1.9531 -0.8281 Q2.1562 -1.0156 2.2188 -1.3672 Q2.2812 -1.7188 2.2812 -2.4375 L2.2812 -10.8906 Q2.2812 -11.5625 2.2344 -11.8672 Q2.1875 -12.1719 2.0781 -12.3438 Q1.9688 -12.5156 1.7812 -12.6172 Q1.5938 -12.7188 1.1406 -12.8594 L1.1406 -13.3281 L4.625 -13.3281 L8.0625 -3.8281 L11.8281 -13.3281 L15.125 -13.3281 L15.125 -12.8594 Z" stroke="none"/></g><g text-rendering="optimizeLegibility" transform="translate(33.3906,18.4957) matrix(1,0,0,1.2572,0,0)" color-rendering="optimizeQuality" color-interpolation="linearRGB" image-rendering="optimizeQuality"><path d="M4.7812 4.2031 L0.4219 4.2031 L0.4219 3.4062 L3.0625 3.4062 L3.0625 -13.1719 L0.4219 -13.1719 L0.4219 -13.9688 L4.7812 -13.9688 L4.7812 4.2031 Z" stroke="none"/></g><g text-rendering="optimizeLegibility" transform="translate(53.3597,18.4957) matrix(1,0,0,1.2572,0,0)" color-rendering="optimizeQuality" color-interpolation="linearRGB" image-rendering="optimizeQuality"><path d="M6.5781 4.2031 L2.2344 4.2031 L2.2344 -13.9688 L6.5781 -13.9688 L6.5781 -13.1719 L3.9531 -13.1719 L3.9531 3.4062 L6.5781 3.4062 L6.5781 4.2031 Z" stroke="none"/></g><g text-rendering="optimizeLegibility" transform="translate(61.9378,19.5769)" color-rendering="optimizeQuality" color-interpolation="linearRGB" image-rendering="optimizeQuality"><path d="M5.4375 0.1562 Q3.3281 0.1562 2.2969 -1.5078 Q1.2656 -3.1719 1.2656 -6.5469 Q1.2656 -8.3438 1.5781 -9.6484 Q1.8906 -10.9531 2.4609 -11.8125 Q3.0312 -12.6719 3.8359 -13.0781 Q4.6406 -13.4844 5.5938 -13.4844 Q7.7188 -13.4844 8.7656 -11.8359 Q9.8125 -10.1875 9.8125 -6.8438 Q9.8125 -3.3906 8.6953 -1.6172 Q7.5781 0.1562 5.4375 0.1562 ZM3.1719 -6.8438 Q3.1719 -3.6562 3.7578 -2.1641 Q4.3438 -0.6719 5.5938 -0.6719 Q6.7656 -0.6719 7.3359 -2.0781 Q7.9062 -3.4844 7.9062 -6.4219 Q7.9062 -8.6562 7.6172 -10.0547 Q7.3281 -11.4531 6.8047 -12.0547 Q6.2812 -12.6562 5.5312 -12.6562 Q4.8594 -12.6562 4.4062 -12.2578 Q3.9531 -11.8594 3.6797 -11.1094 Q3.4062 -10.3594 3.2891 -9.2734 Q3.1719 -8.1875 3.1719 -6.8438 Z" stroke="none"/></g><g text-rendering="optimizeLegibility" transform="translate(73.3285,18.4957) matrix(1,0,0,1.2572,0,0)" color-rendering="optimizeQuality" color-interpolation="linearRGB" image-rendering="optimizeQuality"><path d="M4.7812 4.2031 L0.4219 4.2031 L0.4219 3.4062 L3.0625 3.4062 L3.0625 -13.1719 L0.4219 -13.1719 L0.4219 -13.9688 L4.7812 -13.9688 L4.7812 4.2031 Z" stroke="none"/></g><g text-rendering="optimizeLegibility" transform="translate(10.7656,51.3419) matrix(1,0,0,1.2572,0,0)" color-rendering="optimizeQuality" color-interpolation="linearRGB" image-rendering="optimizeQuality"><path d="M6.5781 4.2031 L2.2344 4.2031 L2.2344 -13.9688 L6.5781 -13.9688 L6.5781 -13.1719 L3.9531 -13.1719 L3.9531 3.4062 L6.5781 3.4062 L6.5781 4.2031 Z" stroke="none"/></g><g text-rendering="optimizeLegibility" transform="translate(19.3438,52.4231)" color-rendering="optimizeQuality" color-interpolation="linearRGB" image-rendering="optimizeQuality"><path d="M5.4375 0.1562 Q3.3281 0.1562 2.2969 -1.5078 Q1.2656 -3.1719 1.2656 -6.5469 Q1.2656 -8.3438 1.5781 -9.6484 Q1.8906 -10.9531 2.4609 -11.8125 Q3.0312 -12.6719 3.8359 -13.0781 Q4.6406 -13.4844 5.5938 -13.4844 Q7.7188 -13.4844 8.7656 -11.8359 Q9.8125 -10.1875 9.8125 -6.8438 Q9.8125 -3.3906 8.6953 -1.6172 Q7.5781 0.1562 5.4375 0.1562 ZM3.1719 -6.8438 Q3.1719 -3.6562 3.7578 -2.1641 Q4.3438 -0.6719 5.5938 -0.6719 Q6.7656 -0.6719 7.3359 -2.0781 Q7.9062 -3.4844 7.9062 -6.4219 Q7.9062 -8.6562 7.6172 -10.0547 Q7.3281 -11.4531 6.8047 -12.0547 Q6.2812 -12.6562 5.5312 -12.6562 Q4.8594 -12.6562 4.4062 -12.2578 Q3.9531 -11.8594 3.6797 -11.1094 Q3.4062 -10.3594 3.2891 -9.2734 Q3.1719 -8.1875 3.1719 -6.8438 Z" stroke="none"/></g><g text-rendering="optimizeLegibility" transform="translate(30.7344,51.3419) matrix(1,0,0,1.2572,0,0)" color-rendering="optimizeQuality" color-interpolation="linearRGB" image-rendering="optimizeQuality"><path d="M4.7812 4.2031 L0.4219 4.2031 L0.4219 3.4062 L3.0625 3.4062 L3.0625 -13.1719 L0.4219 -13.1719 L0.4219 -13.9688 L4.7812 -13.9688 L4.7812 4.2031 Z" stroke="none"/></g><g text-rendering="optimizeLegibility" transform="translate(53.3597,51.3419) matrix(1,0,0,1.2572,0,0)" color-rendering="optimizeQuality" color-interpolation="linearRGB" image-rendering="optimizeQuality"><path d="M6.5781 4.2031 L2.2344 4.2031 L2.2344 -13.9688 L6.5781 -13.9688 L6.5781 -13.1719 L3.9531 -13.1719 L3.9531 3.4062 L6.5781 3.4062 L6.5781 4.2031 Z" stroke="none"/></g><g text-rendering="optimizeLegibility" transform="translate(61.9378,52.4231)" color-rendering="optimizeQuality" color-interpolation="linearRGB" image-rendering="optimizeQuality"><path d="M5.4375 0.1562 Q3.3281 0.1562 2.2969 -1.5078 Q1.2656 -3.1719 1.2656 -6.5469 Q1.2656 -8.3438 1.5781 -9.6484 Q1.8906 -10.9531 2.4609 -11.8125 Q3.0312 -12.6719 3.8359 -13.0781 Q4.6406 -13.4844 5.5938 -13.4844 Q7.7188 -13.4844 8.7656 -11.8359 Q9.8125 -10.1875 9.8125 -6.8438 Q9.8125 -3.3906 8.6953 -1.6172 Q7.5781 0.1562 5.4375 0.1562 ZM3.1719 -6.8438 Q3.1719 -3.6562 3.7578 -2.1641 Q4.3438 -0.6719 5.5938 -0.6719 Q6.7656 -0.6719 7.3359 -2.0781 Q7.9062 -3.4844 7.9062 -6.4219 Q7.9062 -8.6562 7.6172 -10.0547 Q7.3281 -11.4531 6.8047 -12.0547 Q6.2812 -12.6562 5.5312 -12.6562 Q4.8594 -12.6562 4.4062 -12.2578 Q3.9531 -11.8594 3.6797 -11.1094 Q3.4062 -10.3594 3.2891 -9.2734 Q3.1719 -8.1875 3.1719 -6.8438 Z" stroke="none"/></g><g text-rendering="optimizeLegibility" transform="translate(73.3285,51.3419) matrix(1,0,0,1.2572,0,0)" color-rendering="optimizeQuality" color-interpolation="linearRGB" image-rendering="optimizeQuality"><path d="M4.7812 4.2031 L0.4219 4.2031 L0.4219 3.4062 L3.0625 3.4062 L3.0625 -13.1719 L0.4219 -13.1719 L0.4219 -13.9688 L4.7812 -13.9688 L4.7812 4.2031 Z" stroke="none"/></g><g text-rendering="optimizeLegibility" transform="translate(81.6879,41.2326) matrix(1,0,0,2.5503,0,0)" color-rendering="optimizeQuality" color-interpolation="linearRGB" image-rendering="optimizeQuality"><path d="M4.7812 4.2031 L0.4219 4.2031 L0.4219 3.4062 L3.0625 3.4062 L3.0625 -13.1719 L0.4219 -13.1719 L0.4219 -13.9688 L4.7812 -13.9688 L4.7812 4.2031 Z" stroke="none"/></g><g text-rendering="optimizeLegibility" transform="translate(89.5472,41.8093) matrix(1,0,0,2.6727,0,0)" color-rendering="optimizeQuality" color-interpolation="linearRGB" image-rendering="optimizeQuality"><path d="M7.0781 4.2188 Q5.5625 4.2188 4.6797 3.8281 Q3.7969 3.4375 3.4141 2.6641 Q3.0312 1.8906 3.0312 0.5781 L3.0312 -2.25 Q3.0312 -3.1094 2.8125 -3.5938 Q2.5938 -4.0781 2.1562 -4.2734 Q1.7188 -4.4688 0.9219 -4.4688 L0.9219 -5.2812 Q1.7031 -5.2812 2.1484 -5.4766 Q2.5938 -5.6719 2.8125 -6.1484 Q3.0312 -6.625 3.0312 -7.5 L3.0312 -10.3281 Q3.0312 -11.625 3.4141 -12.4062 Q3.7969 -13.1875 4.6797 -13.5781 Q5.5625 -13.9688 7.0781 -13.9688 L7.3281 -13.9688 L7.3281 -13.1719 Q6.5469 -13.1719 6.1641 -13.0938 Q5.7812 -13.0156 5.5391 -12.8438 Q5.2969 -12.6719 5.1406 -12.4141 Q4.9844 -12.1562 4.8984 -11.6875 Q4.8125 -11.2188 4.8125 -10.4375 L4.8125 -8.5469 Q4.8125 -7.5625 4.6406 -6.8984 Q4.4688 -6.2344 4.0312 -5.7578 Q3.5938 -5.2812 2.8281 -4.9688 L2.8281 -4.7812 Q3.5781 -4.4844 4.0312 -3.9844 Q4.4844 -3.4844 4.6484 -2.8203 Q4.8125 -2.1562 4.8125 -1.2031 L4.8125 0.6875 Q4.8125 1.4688 4.8984 1.9375 Q4.9844 2.4062 5.1406 2.6719 Q5.2969 2.9375 5.5391 3.1016 Q5.7812 3.2656 6.1641 3.3438 Q6.5469 3.4219 7.3281 3.4219 L7.3281 4.2188 L7.0781 4.2188 Z" stroke="none"/></g><g text-rendering="optimizeLegibility" transform="translate(99.9535,18.4734) matrix(1,0,0,1.2579,0,0)" color-rendering="optimizeQuality" color-interpolation="linearRGB" image-rendering="optimizeQuality"><path d="M7.0781 4.2188 Q5.5625 4.2188 4.6797 3.8281 Q3.7969 3.4375 3.4141 2.6641 Q3.0312 1.8906 3.0312 0.5781 L3.0312 -2.25 Q3.0312 -3.1094 2.8125 -3.5938 Q2.5938 -4.0781 2.1562 -4.2734 Q1.7188 -4.4688 0.9219 -4.4688 L0.9219 -5.2812 Q1.7031 -5.2812 2.1484 -5.4766 Q2.5938 -5.6719 2.8125 -6.1484 Q3.0312 -6.625 3.0312 -7.5 L3.0312 -10.3281 Q3.0312 -11.625 3.4141 -12.4062 Q3.7969 -13.1875 4.6797 -13.5781 Q5.5625 -13.9688 7.0781 -13.9688 L7.3281 -13.9688 L7.3281 -13.1719 Q6.5469 -13.1719 6.1641 -13.0938 Q5.7812 -13.0156 5.5391 -12.8438 Q5.2969 -12.6719 5.1406 -12.4141 Q4.9844 -12.1562 4.8984 -11.6875 Q4.8125 -11.2188 4.8125 -10.4375 L4.8125 -8.5469 Q4.8125 -7.5625 4.6406 -6.8984 Q4.4688 -6.2344 4.0312 -5.7578 Q3.5938 -5.2812 2.8281 -4.9688 L2.8281 -4.7812 Q3.5781 -4.4844 4.0312 -3.9844 Q4.4844 -3.4844 4.6484 -2.8203 Q4.8125 -2.1562 4.8125 -1.2031 L4.8125 0.6875 Q4.8125 1.4688 4.8984 1.9375 Q4.9844 2.4062 5.1406 2.6719 Q5.2969 2.9375 5.5391 3.1016 Q5.7812 3.2656 6.1641 3.3438 Q6.5469 3.4219 7.3281 3.4219 L7.3281 4.2188 L7.0781 4.2188 Z" stroke="none"/></g><g text-rendering="optimizeLegibility" transform="translate(109.2816,19.5612)" color-rendering="optimizeQuality" color-interpolation="linearRGB" image-rendering="optimizeQuality"><path d="M0.7188 -9.3438 L3.5 -9.3438 L3.5 -4.3594 Q3.5 -3.2188 3.5859 -2.625 Q3.6719 -2.0312 3.8516 -1.7266 Q4.0312 -1.4219 4.3516 -1.2188 Q4.6719 -1.0156 5.2344 -1.0156 Q5.6094 -1.0156 5.9531 -1.1641 Q6.2969 -1.3125 6.7109 -1.6797 Q7.125 -2.0469 7.3047 -2.4062 Q7.4844 -2.7656 7.4844 -3.25 L7.4844 -6.9062 Q7.4844 -7.4688 7.4609 -7.75 Q7.4375 -8.0312 7.3672 -8.2031 Q7.2969 -8.375 7.2031 -8.4766 Q7.1094 -8.5781 6.9375 -8.6719 Q6.7656 -8.7656 6.3906 -8.8594 L6.3906 -9.3438 L9.1719 -9.3438 L9.1719 -2.6719 Q9.1719 -1.9219 9.2031 -1.5859 Q9.2344 -1.25 9.3281 -1.0547 Q9.4219 -0.8594 9.625 -0.7344 Q9.8281 -0.6094 10.3594 -0.5156 L10.3594 0 L8.125 0.0938 L7.5312 0.0938 L7.5938 -1.5 L7.4375 -1.5469 Q6.625 -0.6719 5.8906 -0.2578 Q5.1562 0.1562 4.4219 0.1562 Q3.5312 0.1562 2.9531 -0.1953 Q2.375 -0.5469 2.0938 -1.2422 Q1.8125 -1.9375 1.8125 -3.2188 L1.8125 -6.9062 Q1.8125 -7.7188 1.75 -8.0312 Q1.6875 -8.3438 1.5 -8.5234 Q1.3125 -8.7031 0.7188 -8.8594 L0.7188 -9.3438 Z" stroke="none"/></g><g text-rendering="optimizeLegibility" transform="translate(111.6175,20.5769)" color-rendering="optimizeQuality" color-interpolation="linearRGB" image-rendering="optimizeQuality"><path d="M5.3125 -13.0781 L5.3125 -11.3594 L3.6875 -11.3594 L3.6875 -13.0781 L5.3125 -13.0781 ZM2 -13.0781 L2 -11.3594 L0.375 -11.3594 L0.375 -13.0781 L2 -13.0781 Z" stroke="none"/></g><g text-rendering="optimizeLegibility" transform="translate(121.2191,18.4734) matrix(1,0,0,1.2579,0,0)" color-rendering="optimizeQuality" color-interpolation="linearRGB" image-rendering="optimizeQuality"><path d="M0.6719 -13.9688 Q2.1875 -13.9688 3.0703 -13.5781 Q3.9531 -13.1875 4.3281 -12.4062 Q4.7031 -11.625 4.7031 -10.3281 L4.7031 -7.5 Q4.7031 -6.625 4.9297 -6.1484 Q5.1562 -5.6719 5.5938 -5.4766 Q6.0312 -5.2812 6.8125 -5.2812 L6.8125 -4.4688 Q6.0312 -4.4688 5.5859 -4.2734 Q5.1406 -4.0781 4.9219 -3.5938 Q4.7031 -3.1094 4.7031 -2.25 L4.7031 0.5781 Q4.7031 1.8906 4.3281 2.6641 Q3.9531 3.4375 3.0703 3.8281 Q2.1875 4.2188 0.6719 4.2188 L0.4219 4.2188 L0.4219 3.4219 Q1.1875 3.4219 1.5781 3.3438 Q1.9688 3.2656 2.2031 3.1016 Q2.4375 2.9375 2.5938 2.6719 Q2.75 2.4062 2.8438 1.9375 Q2.9375 1.4688 2.9375 0.6875 L2.9375 -1.2031 Q2.9375 -2.1875 3.1016 -2.8438 Q3.2656 -3.5 3.7109 -3.9844 Q4.1562 -4.4688 4.9062 -4.7812 L4.9062 -4.9688 Q4.1719 -5.2656 3.7188 -5.7656 Q3.2656 -6.2656 3.1016 -6.9297 Q2.9375 -7.5938 2.9375 -8.5469 L2.9375 -10.4375 Q2.9375 -11.2188 2.8438 -11.6875 Q2.75 -12.1562 2.5938 -12.4141 Q2.4375 -12.6719 2.2031 -12.8438 Q1.9688 -13.0156 1.5781 -13.0938 Q1.1875 -13.1719 0.4219 -13.1719 L0.4219 -13.9688 L0.6719 -13.9688 Z" stroke="none"/></g><g text-rendering="optimizeLegibility" transform="translate(100.0472,51.3509) matrix(1,0,0,1.2579,0,0)" color-rendering="optimizeQuality" color-interpolation="linearRGB" image-rendering="optimizeQuality"><path d="M7.0781 4.2188 Q5.5625 4.2188 4.6797 3.8281 Q3.7969 3.4375 3.4141 2.6641 Q3.0312 1.8906 3.0312 0.5781 L3.0312 -2.25 Q3.0312 -3.1094 2.8125 -3.5938 Q2.5938 -4.0781 2.1562 -4.2734 Q1.7188 -4.4688 0.9219 -4.4688 L0.9219 -5.2812 Q1.7031 -5.2812 2.1484 -5.4766 Q2.5938 -5.6719 2.8125 -6.1484 Q3.0312 -6.625 3.0312 -7.5 L3.0312 -10.3281 Q3.0312 -11.625 3.4141 -12.4062 Q3.7969 -13.1875 4.6797 -13.5781 Q5.5625 -13.9688 7.0781 -13.9688 L7.3281 -13.9688 L7.3281 -13.1719 Q6.5469 -13.1719 6.1641 -13.0938 Q5.7812 -13.0156 5.5391 -12.8438 Q5.2969 -12.6719 5.1406 -12.4141 Q4.9844 -12.1562 4.8984 -11.6875 Q4.8125 -11.2188 4.8125 -10.4375 L4.8125 -8.5469 Q4.8125 -7.5625 4.6406 -6.8984 Q4.4688 -6.2344 4.0312 -5.7578 Q3.5938 -5.2812 2.8281 -4.9688 L2.8281 -4.7812 Q3.5781 -4.4844 4.0312 -3.9844 Q4.4844 -3.4844 4.6484 -2.8203 Q4.8125 -2.1562 4.8125 -1.2031 L4.8125 0.6875 Q4.8125 1.4688 4.8984 1.9375 Q4.9844 2.4062 5.1406 2.6719 Q5.2969 2.9375 5.5391 3.1016 Q5.7812 3.2656 6.1641 3.3438 Q6.5469 3.4219 7.3281 3.4219 L7.3281 4.2188 L7.0781 4.2188 Z" stroke="none"/></g><g text-rendering="optimizeLegibility" transform="translate(109.3754,52.4387)" color-rendering="optimizeQuality" color-interpolation="linearRGB" image-rendering="optimizeQuality"><path d="M10.1719 -13.0469 L10.1719 -10.3438 L9.2031 -10.3438 Q8.9688 -11.1875 8.6094 -11.6953 Q8.25 -12.2031 7.7734 -12.4141 Q7.2969 -12.625 6.625 -12.625 Q5.6094 -12.625 4.8281 -11.9609 Q4.0469 -11.2969 3.5938 -9.9531 Q3.1406 -8.6094 3.1406 -6.7031 Q3.1406 -4.7812 3.5156 -3.4297 Q3.8906 -2.0781 4.6094 -1.3906 Q5.3281 -0.7031 6.3906 -0.7031 Q7.1875 -0.7031 7.6953 -0.9297 Q8.2031 -1.1562 8.5469 -1.6562 Q8.8906 -2.1562 9.2031 -3.125 L10.1719 -3.125 L10.1719 -0.3281 Q9.2656 -0.0938 8.2969 0.0312 Q7.3281 0.1562 6.1875 0.1562 Q3.7031 0.1562 2.4297 -1.5234 Q1.1562 -3.2031 1.1562 -6.5312 Q1.1562 -8.625 1.8203 -10.1953 Q2.4844 -11.7656 3.7656 -12.625 Q5.0469 -13.4844 6.8125 -13.4844 Q7.7031 -13.4844 8.4531 -13.3906 Q9.2031 -13.2969 10.1719 -13.0469 Z" stroke="none"/></g><g text-rendering="optimizeLegibility" transform="translate(111.6175,49.3137)" color-rendering="optimizeQuality" color-interpolation="linearRGB" image-rendering="optimizeQuality"><path d="M5.3125 -13.0781 L5.3125 -11.3594 L3.6875 -11.3594 L3.6875 -13.0781 L5.3125 -13.0781 ZM2 -13.0781 L2 -11.3594 L0.375 -11.3594 L0.375 -13.0781 L2 -13.0781 Z" stroke="none"/></g><g text-rendering="optimizeLegibility" transform="translate(121.1254,51.3509) matrix(1,0,0,1.2579,0,0)" color-rendering="optimizeQuality" color-interpolation="linearRGB" image-rendering="optimizeQuality"><path d="M0.6719 -13.9688 Q2.1875 -13.9688 3.0703 -13.5781 Q3.9531 -13.1875 4.3281 -12.4062 Q4.7031 -11.625 4.7031 -10.3281 L4.7031 -7.5 Q4.7031 -6.625 4.9297 -6.1484 Q5.1562 -5.6719 5.5938 -5.4766 Q6.0312 -5.2812 6.8125 -5.2812 L6.8125 -4.4688 Q6.0312 -4.4688 5.5859 -4.2734 Q5.1406 -4.0781 4.9219 -3.5938 Q4.7031 -3.1094 4.7031 -2.25 L4.7031 0.5781 Q4.7031 1.8906 4.3281 2.6641 Q3.9531 3.4375 3.0703 3.8281 Q2.1875 4.2188 0.6719 4.2188 L0.4219 4.2188 L0.4219 3.4219 Q1.1875 3.4219 1.5781 3.3438 Q1.9688 3.2656 2.2031 3.1016 Q2.4375 2.9375 2.5938 2.6719 Q2.75 2.4062 2.8438 1.9375 Q2.9375 1.4688 2.9375 0.6875 L2.9375 -1.2031 Q2.9375 -2.1875 3.1016 -2.8438 Q3.2656 -3.5 3.7109 -3.9844 Q4.1562 -4.4688 4.9062 -4.7812 L4.9062 -4.9688 Q4.1719 -5.2656 3.7188 -5.7656 Q3.2656 -6.2656 3.1016 -6.9297 Q2.9375 -7.5938 2.9375 -8.5469 L2.9375 -10.4375 Q2.9375 -11.2188 2.8438 -11.6875 Q2.75 -12.1562 2.5938 -12.4141 Q2.4375 -12.6719 2.2031 -12.8438 Q1.9688 -13.0156 1.5781 -13.0938 Q1.1875 -13.1719 0.4219 -13.1719 L0.4219 -13.9688 L0.6719 -13.9688 Z" stroke="none"/></g><g text-rendering="optimizeLegibility" transform="translate(131.6097,41.8093) matrix(1,0,0,2.6727,0,0)" color-rendering="optimizeQuality" color-interpolation="linearRGB" image-rendering="optimizeQuality"><path d="M0.6719 -13.9688 Q2.1875 -13.9688 3.0703 -13.5781 Q3.9531 -13.1875 4.3281 -12.4062 Q4.7031 -11.625 4.7031 -10.3281 L4.7031 -7.5 Q4.7031 -6.625 4.9297 -6.1484 Q5.1562 -5.6719 5.5938 -5.4766 Q6.0312 -5.2812 6.8125 -5.2812 L6.8125 -4.4688 Q6.0312 -4.4688 5.5859 -4.2734 Q5.1406 -4.0781 4.9219 -3.5938 Q4.7031 -3.1094 4.7031 -2.25 L4.7031 0.5781 Q4.7031 1.8906 4.3281 2.6641 Q3.9531 3.4375 3.0703 3.8281 Q2.1875 4.2188 0.6719 4.2188 L0.4219 4.2188 L0.4219 3.4219 Q1.1875 3.4219 1.5781 3.3438 Q1.9688 3.2656 2.2031 3.1016 Q2.4375 2.9375 2.5938 2.6719 Q2.75 2.4062 2.8438 1.9375 Q2.9375 1.4688 2.9375 0.6875 L2.9375 -1.2031 Q2.9375 -2.1875 3.1016 -2.8438 Q3.2656 -3.5 3.7109 -3.9844 Q4.1562 -4.4688 4.9062 -4.7812 L4.9062 -4.9688 Q4.1719 -5.2656 3.7188 -5.7656 Q3.2656 -6.2656 3.1016 -6.9297 Q2.9375 -7.5938 2.9375 -8.5469 L2.9375 -10.4375 Q2.9375 -11.2188 2.8438 -11.6875 Q2.75 -12.1562 2.5938 -12.4141 Q2.4375 -12.6719 2.2031 -12.8438 Q1.9688 -13.0156 1.5781 -13.0938 Q1.1875 -13.1719 0.4219 -13.1719 L0.4219 -13.9688 L0.6719 -13.9688 Z" stroke="none"/></g><g text-rendering="optimizeLegibility" transform="translate(141.2035,36)" color-rendering="optimizeQuality" color-interpolation="linearRGB" image-rendering="optimizeQuality"><path d="M6.25 -5.0469 L6.25 -1.3438 L4.8125 -1.3438 L4.8125 -5.0469 L1.2188 -5.0469 L1.2188 -6.3906 L4.8125 -6.3906 L4.8125 -10.0938 L6.25 -10.0938 L6.25 -6.3906 L9.8594 -6.3906 L9.8594 -5.0469 L6.25 -5.0469 Z" stroke="none"/></g><g text-rendering="optimizeLegibility" transform="translate(152.8285,42.4313) matrix(1,0,0,2.7958,0,0)" color-rendering="optimizeQuality" color-interpolation="linearRGB" image-rendering="optimizeQuality"><path d="M6.5781 4.2031 L2.2344 4.2031 L2.2344 -13.9688 L6.5781 -13.9688 L6.5781 -13.1719 L3.9531 -13.1719 L3.9531 3.4062 L6.5781 3.4062 L6.5781 4.2031 Z" stroke="none"/></g><g text-rendering="optimizeLegibility" transform="translate(161.1722,18.4957) matrix(1,0,0,1.2572,0,0)" color-rendering="optimizeQuality" color-interpolation="linearRGB" image-rendering="optimizeQuality"><path d="M6.5781 4.2031 L2.2344 4.2031 L2.2344 -13.9688 L6.5781 -13.9688 L6.5781 -13.1719 L3.9531 -13.1719 L3.9531 3.4062 L6.5781 3.4062 L6.5781 4.2031 Z" stroke="none"/></g><g text-rendering="optimizeLegibility" transform="translate(169.7504,19.5769)" color-rendering="optimizeQuality" color-interpolation="linearRGB" image-rendering="optimizeQuality"><path d="M10.1719 -13.0469 L10.1719 -10.3438 L9.2031 -10.3438 Q8.9688 -11.1875 8.6094 -11.6953 Q8.25 -12.2031 7.7734 -12.4141 Q7.2969 -12.625 6.625 -12.625 Q5.6094 -12.625 4.8281 -11.9609 Q4.0469 -11.2969 3.5938 -9.9531 Q3.1406 -8.6094 3.1406 -6.7031 Q3.1406 -4.7812 3.5156 -3.4297 Q3.8906 -2.0781 4.6094 -1.3906 Q5.3281 -0.7031 6.3906 -0.7031 Q7.1875 -0.7031 7.6953 -0.9297 Q8.2031 -1.1562 8.5469 -1.6562 Q8.8906 -2.1562 9.2031 -3.125 L10.1719 -3.125 L10.1719 -0.3281 Q9.2656 -0.0938 8.2969 0.0312 Q7.3281 0.1562 6.1875 0.1562 Q3.7031 0.1562 2.4297 -1.5234 Q1.1562 -3.2031 1.1562 -6.5312 Q1.1562 -8.625 1.8203 -10.1953 Q2.4844 -11.7656 3.7656 -12.625 Q5.0469 -13.4844 6.8125 -13.4844 Q7.7031 -13.4844 8.4531 -13.3906 Q9.2031 -13.2969 10.1719 -13.0469 Z" stroke="none"/></g><g text-rendering="optimizeLegibility" transform="translate(181.5004,18.4957) matrix(1,0,0,1.2572,0,0)" color-rendering="optimizeQuality" color-interpolation="linearRGB" image-rendering="optimizeQuality"><path d="M4.7812 4.2031 L0.4219 4.2031 L0.4219 3.4062 L3.0625 3.4062 L3.0625 -13.1719 L0.4219 -13.1719 L0.4219 -13.9688 L4.7812 -13.9688 L4.7812 4.2031 Z" stroke="none"/></g><g text-rendering="optimizeLegibility" transform="translate(205.2976,18.4957) matrix(1,0,0,1.2572,0,0)" color-rendering="optimizeQuality" color-interpolation="linearRGB" image-rendering="optimizeQuality"><path d="M6.5781 4.2031 L2.2344 4.2031 L2.2344 -13.9688 L6.5781 -13.9688 L6.5781 -13.1719 L3.9531 -13.1719 L3.9531 3.4062 L6.5781 3.4062 L6.5781 4.2031 Z" stroke="none"/></g><g text-rendering="optimizeLegibility" transform="translate(213.8757,19.5769)" color-rendering="optimizeQuality" color-interpolation="linearRGB" image-rendering="optimizeQuality"><path d="M5.4375 0.1562 Q3.3281 0.1562 2.2969 -1.5078 Q1.2656 -3.1719 1.2656 -6.5469 Q1.2656 -8.3438 1.5781 -9.6484 Q1.8906 -10.9531 2.4609 -11.8125 Q3.0312 -12.6719 3.8359 -13.0781 Q4.6406 -13.4844 5.5938 -13.4844 Q7.7188 -13.4844 8.7656 -11.8359 Q9.8125 -10.1875 9.8125 -6.8438 Q9.8125 -3.3906 8.6953 -1.6172 Q7.5781 0.1562 5.4375 0.1562 ZM3.1719 -6.8438 Q3.1719 -3.6562 3.7578 -2.1641 Q4.3438 -0.6719 5.5938 -0.6719 Q6.7656 -0.6719 7.3359 -2.0781 Q7.9062 -3.4844 7.9062 -6.4219 Q7.9062 -8.6562 7.6172 -10.0547 Q7.3281 -11.4531 6.8047 -12.0547 Q6.2812 -12.6562 5.5312 -12.6562 Q4.8594 -12.6562 4.4062 -12.2578 Q3.9531 -11.8594 3.6797 -11.1094 Q3.4062 -10.3594 3.2891 -9.2734 Q3.1719 -8.1875 3.1719 -6.8438 Z" stroke="none"/></g><g text-rendering="optimizeLegibility" transform="translate(225.2663,18.4957) matrix(1,0,0,1.2572,0,0)" color-rendering="optimizeQuality" color-interpolation="linearRGB" image-rendering="optimizeQuality"><path d="M4.7812 4.2031 L0.4219 4.2031 L0.4219 3.4062 L3.0625 3.4062 L3.0625 -13.1719 L0.4219 -13.1719 L0.4219 -13.9688 L4.7812 -13.9688 L4.7812 4.2031 Z" stroke="none"/></g><g text-rendering="optimizeLegibility" transform="translate(161.3519,51.3419) matrix(1,0,0,1.2572,0,0)" color-rendering="optimizeQuality" color-interpolation="linearRGB" image-rendering="optimizeQuality"><path d="M6.5781 4.2031 L2.2344 4.2031 L2.2344 -13.9688 L6.5781 -13.9688 L6.5781 -13.1719 L3.9531 -13.1719 L3.9531 3.4062 L6.5781 3.4062 L6.5781 4.2031 Z" stroke="none"/></g><g text-rendering="optimizeLegibility" transform="translate(169.93,52.4231)" color-rendering="optimizeQuality" color-interpolation="linearRGB" image-rendering="optimizeQuality"><path d="M5.4375 0.1562 Q3.3281 0.1562 2.2969 -1.5078 Q1.2656 -3.1719 1.2656 -6.5469 Q1.2656 -8.3438 1.5781 -9.6484 Q1.8906 -10.9531 2.4609 -11.8125 Q3.0312 -12.6719 3.8359 -13.0781 Q4.6406 -13.4844 5.5938 -13.4844 Q7.7188 -13.4844 8.7656 -11.8359 Q9.8125 -10.1875 9.8125 -6.8438 Q9.8125 -3.3906 8.6953 -1.6172 Q7.5781 0.1562 5.4375 0.1562 ZM3.1719 -6.8438 Q3.1719 -3.6562 3.7578 -2.1641 Q4.3438 -0.6719 5.5938 -0.6719 Q6.7656 -0.6719 7.3359 -2.0781 Q7.9062 -3.4844 7.9062 -6.4219 Q7.9062 -8.6562 7.6172 -10.0547 Q7.3281 -11.4531 6.8047 -12.0547 Q6.2812 -12.6562 5.5312 -12.6562 Q4.8594 -12.6562 4.4062 -12.2578 Q3.9531 -11.8594 3.6797 -11.1094 Q3.4062 -10.3594 3.2891 -9.2734 Q3.1719 -8.1875 3.1719 -6.8438 Z" stroke="none"/></g><g text-rendering="optimizeLegibility" transform="translate(181.3207,51.3419) matrix(1,0,0,1.2572,0,0)" color-rendering="optimizeQuality" color-interpolation="linearRGB" image-rendering="optimizeQuality"><path d="M4.7812 4.2031 L0.4219 4.2031 L0.4219 3.4062 L3.0625 3.4062 L3.0625 -13.1719 L0.4219 -13.1719 L0.4219 -13.9688 L4.7812 -13.9688 L4.7812 4.2031 Z" stroke="none"/></g><g text-rendering="optimizeLegibility" transform="translate(201.4695,51.3419) matrix(1,0,0,1.2572,0,0)" color-rendering="optimizeQuality" color-interpolation="linearRGB" image-rendering="optimizeQuality"><path d="M6.5781 4.2031 L2.2344 4.2031 L2.2344 -13.9688 L6.5781 -13.9688 L6.5781 -13.1719 L3.9531 -13.1719 L3.9531 3.4062 L6.5781 3.4062 L6.5781 4.2031 Z" stroke="none"/></g><g text-rendering="optimizeLegibility" transform="translate(210.0476,52.4231)" color-rendering="optimizeQuality" color-interpolation="linearRGB" image-rendering="optimizeQuality"><path d="M10.1719 -13.0469 L10.1719 -10.3438 L9.2031 -10.3438 Q8.9688 -11.1875 8.6094 -11.6953 Q8.25 -12.2031 7.7734 -12.4141 Q7.2969 -12.625 6.625 -12.625 Q5.6094 -12.625 4.8281 -11.9609 Q4.0469 -11.2969 3.5938 -9.9531 Q3.1406 -8.6094 3.1406 -6.7031 Q3.1406 -4.7812 3.5156 -3.4297 Q3.8906 -2.0781 4.6094 -1.3906 Q5.3281 -0.7031 6.3906 -0.7031 Q7.1875 -0.7031 7.6953 -0.9297 Q8.2031 -1.1562 8.5469 -1.6562 Q8.8906 -2.1562 9.2031 -3.125 L10.1719 -3.125 L10.1719 -0.3281 Q9.2656 -0.0938 8.2969 0.0312 Q7.3281 0.1562 6.1875 0.1562 Q3.7031 0.1562 2.4297 -1.5234 Q1.1562 -3.2031 1.1562 -6.5312 Q1.1562 -8.625 1.8203 -10.1953 Q2.4844 -11.7656 3.7656 -12.625 Q5.0469 -13.4844 6.8125 -13.4844 Q7.7031 -13.4844 8.4531 -13.3906 Q9.2031 -13.2969 10.1719 -13.0469 Z" stroke="none"/></g><g text-rendering="optimizeLegibility" transform="translate(220.2195,43.7747)" color-rendering="optimizeQuality" color-interpolation="linearRGB" image-rendering="optimizeQuality"><path d="M5.2812 -7.4375 Q5.2812 -8.0938 5.2656 -8.3516 Q5.25 -8.6094 5.2109 -8.7891 Q5.1719 -8.9688 5.0938 -9.0703 Q5.0156 -9.1719 4.8828 -9.2344 Q4.75 -9.2969 4.3906 -9.3594 L4.3906 -9.7188 L6.0469 -9.7812 L6.4531 -9.7812 L6.4531 -1.8594 Q6.4531 -1.3281 6.4766 -1.1016 Q6.5 -0.875 6.5625 -0.7422 Q6.625 -0.6094 6.7734 -0.5234 Q6.9219 -0.4375 7.2969 -0.3594 L7.2969 0 L5.6875 0.0625 L5.2656 0.0625 L5.3594 -1.0469 L5.25 -1.0781 Q4.8125 -0.625 4.5 -0.3984 Q4.1875 -0.1719 3.8281 -0.0312 Q3.4688 0.1094 3.0625 0.1094 Q1.9375 0.1094 1.3281 -0.7422 Q0.7188 -1.5938 0.7188 -3.2031 Q0.7188 -4.3281 1.1172 -5.1094 Q1.5156 -5.8906 2.1875 -6.2734 Q2.8594 -6.6562 3.7031 -6.6562 Q4.1562 -6.6562 4.5234 -6.5859 Q4.8906 -6.5156 5.2812 -6.3438 L5.2812 -7.4375 ZM5.2812 -4.0469 Q5.2812 -4.5938 5.2344 -4.9141 Q5.1875 -5.2344 5.0703 -5.4531 Q4.9531 -5.6719 4.7656 -5.8203 Q4.5781 -5.9688 4.3438 -6.0391 Q4.1094 -6.1094 3.7969 -6.1094 Q2.9219 -6.1094 2.4609 -5.4062 Q2 -4.7031 2 -3.3906 Q2 -2.0781 2.375 -1.3984 Q2.75 -0.7188 3.5156 -0.7188 Q3.8281 -0.7188 4.0234 -0.7656 Q4.2188 -0.8125 4.4062 -0.9297 Q4.5938 -1.0469 4.7969 -1.2422 Q5 -1.4375 5.0938 -1.6016 Q5.1875 -1.7656 5.2344 -1.9766 Q5.2812 -2.1875 5.2812 -2.5156 L5.2812 -4.0469 Z" stroke="none"/></g><g text-rendering="optimizeLegibility" transform="translate(229.0945,51.3419) matrix(1,0,0,1.2572,0,0)" color-rendering="optimizeQuality" color-interpolation="linearRGB" image-rendering="optimizeQuality"><path d="M4.7812 4.2031 L0.4219 4.2031 L0.4219 3.4062 L3.0625 3.4062 L3.0625 -13.1719 L0.4219 -13.1719 L0.4219 -13.9688 L4.7812 -13.9688 L4.7812 4.2031 Z" stroke="none"/></g><g text-rendering="optimizeLegibility" transform="translate(237.4538,42.4313) matrix(1,0,0,2.7958,0,0)" color-rendering="optimizeQuality" color-interpolation="linearRGB" image-rendering="optimizeQuality"><path d="M4.7812 4.2031 L0.4219 4.2031 L0.4219 3.4062 L3.0625 3.4062 L3.0625 -13.1719 L0.4219 -13.1719 L0.4219 -13.9688 L4.7812 -13.9688 L4.7812 4.2031 Z" stroke="none"/></g><g text-rendering="optimizeLegibility" transform="translate(245.3132,41.8596) matrix(1,0,0,2.683,0,0)" color-rendering="optimizeQuality" color-interpolation="linearRGB" image-rendering="optimizeQuality"><path d="M7.0781 4.2188 Q5.5625 4.2188 4.6797 3.8281 Q3.7969 3.4375 3.4141 2.6641 Q3.0312 1.8906 3.0312 0.5781 L3.0312 -2.25 Q3.0312 -3.1094 2.8125 -3.5938 Q2.5938 -4.0781 2.1562 -4.2734 Q1.7188 -4.4688 0.9219 -4.4688 L0.9219 -5.2812 Q1.7031 -5.2812 2.1484 -5.4766 Q2.5938 -5.6719 2.8125 -6.1484 Q3.0312 -6.625 3.0312 -7.5 L3.0312 -10.3281 Q3.0312 -11.625 3.4141 -12.4062 Q3.7969 -13.1875 4.6797 -13.5781 Q5.5625 -13.9688 7.0781 -13.9688 L7.3281 -13.9688 L7.3281 -13.1719 Q6.5469 -13.1719 6.1641 -13.0938 Q5.7812 -13.0156 5.5391 -12.8438 Q5.2969 -12.6719 5.1406 -12.4141 Q4.9844 -12.1562 4.8984 -11.6875 Q4.8125 -11.2188 4.8125 -10.4375 L4.8125 -8.5469 Q4.8125 -7.5625 4.6406 -6.8984 Q4.4688 -6.2344 4.0312 -5.7578 Q3.5938 -5.2812 2.8281 -4.9688 L2.8281 -4.7812 Q3.5781 -4.4844 4.0312 -3.9844 Q4.4844 -3.4844 4.6484 -2.8203 Q4.8125 -2.1562 4.8125 -1.2031 L4.8125 0.6875 Q4.8125 1.4688 4.8984 1.9375 Q4.9844 2.4062 5.1406 2.6719 Q5.2969 2.9375 5.5391 3.1016 Q5.7812 3.2656 6.1641 3.3438 Q6.5469 3.4219 7.3281 3.4219 L7.3281 4.2188 L7.0781 4.2188 Z" stroke="none"/></g><g text-rendering="optimizeLegibility" transform="translate(255.7195,18.4734) matrix(1,0,0,1.2579,0,0)" color-rendering="optimizeQuality" color-interpolation="linearRGB" image-rendering="optimizeQuality"><path d="M7.0781 4.2188 Q5.5625 4.2188 4.6797 3.8281 Q3.7969 3.4375 3.4141 2.6641 Q3.0312 1.8906 3.0312 0.5781 L3.0312 -2.25 Q3.0312 -3.1094 2.8125 -3.5938 Q2.5938 -4.0781 2.1562 -4.2734 Q1.7188 -4.4688 0.9219 -4.4688 L0.9219 -5.2812 Q1.7031 -5.2812 2.1484 -5.4766 Q2.5938 -5.6719 2.8125 -6.1484 Q3.0312 -6.625 3.0312 -7.5 L3.0312 -10.3281 Q3.0312 -11.625 3.4141 -12.4062 Q3.7969 -13.1875 4.6797 -13.5781 Q5.5625 -13.9688 7.0781 -13.9688 L7.3281 -13.9688 L7.3281 -13.1719 Q6.5469 -13.1719 6.1641 -13.0938 Q5.7812 -13.0156 5.5391 -12.8438 Q5.2969 -12.6719 5.1406 -12.4141 Q4.9844 -12.1562 4.8984 -11.6875 Q4.8125 -11.2188 4.8125 -10.4375 L4.8125 -8.5469 Q4.8125 -7.5625 4.6406 -6.8984 Q4.4688 -6.2344 4.0312 -5.7578 Q3.5938 -5.2812 2.8281 -4.9688 L2.8281 -4.7812 Q3.5781 -4.4844 4.0312 -3.9844 Q4.4844 -3.4844 4.6484 -2.8203 Q4.8125 -2.1562 4.8125 -1.2031 L4.8125 0.6875 Q4.8125 1.4688 4.8984 1.9375 Q4.9844 2.4062 5.1406 2.6719 Q5.2969 2.9375 5.5391 3.1016 Q5.7812 3.2656 6.1641 3.3438 Q6.5469 3.4219 7.3281 3.4219 L7.3281 4.2188 L7.0781 4.2188 Z" stroke="none"/></g><g text-rendering="optimizeLegibility" transform="translate(265.0476,19.5612)" color-rendering="optimizeQuality" color-interpolation="linearRGB" image-rendering="optimizeQuality"><path d="M0.7188 -9.3438 L3.5 -9.3438 L3.5 -4.3594 Q3.5 -3.2188 3.5859 -2.625 Q3.6719 -2.0312 3.8516 -1.7266 Q4.0312 -1.4219 4.3516 -1.2188 Q4.6719 -1.0156 5.2344 -1.0156 Q5.6094 -1.0156 5.9531 -1.1641 Q6.2969 -1.3125 6.7109 -1.6797 Q7.125 -2.0469 7.3047 -2.4062 Q7.4844 -2.7656 7.4844 -3.25 L7.4844 -6.9062 Q7.4844 -7.4688 7.4609 -7.75 Q7.4375 -8.0312 7.3672 -8.2031 Q7.2969 -8.375 7.2031 -8.4766 Q7.1094 -8.5781 6.9375 -8.6719 Q6.7656 -8.7656 6.3906 -8.8594 L6.3906 -9.3438 L9.1719 -9.3438 L9.1719 -2.6719 Q9.1719 -1.9219 9.2031 -1.5859 Q9.2344 -1.25 9.3281 -1.0547 Q9.4219 -0.8594 9.625 -0.7344 Q9.8281 -0.6094 10.3594 -0.5156 L10.3594 0 L8.125 0.0938 L7.5312 0.0938 L7.5938 -1.5 L7.4375 -1.5469 Q6.625 -0.6719 5.8906 -0.2578 Q5.1562 0.1562 4.4219 0.1562 Q3.5312 0.1562 2.9531 -0.1953 Q2.375 -0.5469 2.0938 -1.2422 Q1.8125 -1.9375 1.8125 -3.2188 L1.8125 -6.9062 Q1.8125 -7.7188 1.75 -8.0312 Q1.6875 -8.3438 1.5 -8.5234 Q1.3125 -8.7031 0.7188 -8.8594 L0.7188 -9.3438 Z" stroke="none"/></g><g text-rendering="optimizeLegibility" transform="translate(267.3913,20.4831)" color-rendering="optimizeQuality" color-interpolation="linearRGB" image-rendering="optimizeQuality"><path d="M3.7344 -13.1719 L3.7344 -11.2656 L1.9375 -11.2656 L1.9375 -13.1719 L3.7344 -13.1719 Z" stroke="none"/></g><g text-rendering="optimizeLegibility" transform="translate(276.9851,18.4734) matrix(1,0,0,1.2579,0,0)" color-rendering="optimizeQuality" color-interpolation="linearRGB" image-rendering="optimizeQuality"><path d="M0.6719 -13.9688 Q2.1875 -13.9688 3.0703 -13.5781 Q3.9531 -13.1875 4.3281 -12.4062 Q4.7031 -11.625 4.7031 -10.3281 L4.7031 -7.5 Q4.7031 -6.625 4.9297 -6.1484 Q5.1562 -5.6719 5.5938 -5.4766 Q6.0312 -5.2812 6.8125 -5.2812 L6.8125 -4.4688 Q6.0312 -4.4688 5.5859 -4.2734 Q5.1406 -4.0781 4.9219 -3.5938 Q4.7031 -3.1094 4.7031 -2.25 L4.7031 0.5781 Q4.7031 1.8906 4.3281 2.6641 Q3.9531 3.4375 3.0703 3.8281 Q2.1875 4.2188 0.6719 4.2188 L0.4219 4.2188 L0.4219 3.4219 Q1.1875 3.4219 1.5781 3.3438 Q1.9688 3.2656 2.2031 3.1016 Q2.4375 2.9375 2.5938 2.6719 Q2.75 2.4062 2.8438 1.9375 Q2.9375 1.4688 2.9375 0.6875 L2.9375 -1.2031 Q2.9375 -2.1875 3.1016 -2.8438 Q3.2656 -3.5 3.7109 -3.9844 Q4.1562 -4.4688 4.9062 -4.7812 L4.9062 -4.9688 Q4.1719 -5.2656 3.7188 -5.7656 Q3.2656 -6.2656 3.1016 -6.9297 Q2.9375 -7.5938 2.9375 -8.5469 L2.9375 -10.4375 Q2.9375 -11.2188 2.8438 -11.6875 Q2.75 -12.1562 2.5938 -12.4141 Q2.4375 -12.6719 2.2031 -12.8438 Q1.9688 -13.0156 1.5781 -13.0938 Q1.1875 -13.1719 0.4219 -13.1719 L0.4219 -13.9688 L0.6719 -13.9688 Z" stroke="none"/></g><g text-rendering="optimizeLegibility" transform="translate(255.8132,51.3509) matrix(1,0,0,1.2579,0,0)" color-rendering="optimizeQuality" color-interpolation="linearRGB" image-rendering="optimizeQuality"><path d="M7.0781 4.2188 Q5.5625 4.2188 4.6797 3.8281 Q3.7969 3.4375 3.4141 2.6641 Q3.0312 1.8906 3.0312 0.5781 L3.0312 -2.25 Q3.0312 -3.1094 2.8125 -3.5938 Q2.5938 -4.0781 2.1562 -4.2734 Q1.7188 -4.4688 0.9219 -4.4688 L0.9219 -5.2812 Q1.7031 -5.2812 2.1484 -5.4766 Q2.5938 -5.6719 2.8125 -6.1484 Q3.0312 -6.625 3.0312 -7.5 L3.0312 -10.3281 Q3.0312 -11.625 3.4141 -12.4062 Q3.7969 -13.1875 4.6797 -13.5781 Q5.5625 -13.9688 7.0781 -13.9688 L7.3281 -13.9688 L7.3281 -13.1719 Q6.5469 -13.1719 6.1641 -13.0938 Q5.7812 -13.0156 5.5391 -12.8438 Q5.2969 -12.6719 5.1406 -12.4141 Q4.9844 -12.1562 4.8984 -11.6875 Q4.8125 -11.2188 4.8125 -10.4375 L4.8125 -8.5469 Q4.8125 -7.5625 4.6406 -6.8984 Q4.4688 -6.2344 4.0312 -5.7578 Q3.5938 -5.2812 2.8281 -4.9688 L2.8281 -4.7812 Q3.5781 -4.4844 4.0312 -3.9844 Q4.4844 -3.4844 4.6484 -2.8203 Q4.8125 -2.1562 4.8125 -1.2031 L4.8125 0.6875 Q4.8125 1.4688 4.8984 1.9375 Q4.9844 2.4062 5.1406 2.6719 Q5.2969 2.9375 5.5391 3.1016 Q5.7812 3.2656 6.1641 3.3438 Q6.5469 3.4219 7.3281 3.4219 L7.3281 4.2188 L7.0781 4.2188 Z" stroke="none"/></g><g text-rendering="optimizeLegibility" transform="translate(265.1413,52.4387)" color-rendering="optimizeQuality" color-interpolation="linearRGB" image-rendering="optimizeQuality"><path d="M10.1719 -13.0469 L10.1719 -10.3438 L9.2031 -10.3438 Q8.9688 -11.1875 8.6094 -11.6953 Q8.25 -12.2031 7.7734 -12.4141 Q7.2969 -12.625 6.625 -12.625 Q5.6094 -12.625 4.8281 -11.9609 Q4.0469 -11.2969 3.5938 -9.9531 Q3.1406 -8.6094 3.1406 -6.7031 Q3.1406 -4.7812 3.5156 -3.4297 Q3.8906 -2.0781 4.6094 -1.3906 Q5.3281 -0.7031 6.3906 -0.7031 Q7.1875 -0.7031 7.6953 -0.9297 Q8.2031 -1.1562 8.5469 -1.6562 Q8.8906 -2.1562 9.2031 -3.125 L10.1719 -3.125 L10.1719 -0.3281 Q9.2656 -0.0938 8.2969 0.0312 Q7.3281 0.1562 6.1875 0.1562 Q3.7031 0.1562 2.4297 -1.5234 Q1.1562 -3.2031 1.1562 -6.5312 Q1.1562 -8.625 1.8203 -10.1953 Q2.4844 -11.7656 3.7656 -12.625 Q5.0469 -13.4844 6.8125 -13.4844 Q7.7031 -13.4844 8.4531 -13.3906 Q9.2031 -13.2969 10.1719 -13.0469 Z" stroke="none"/></g><g text-rendering="optimizeLegibility" transform="translate(267.3913,49.22)" color-rendering="optimizeQuality" color-interpolation="linearRGB" image-rendering="optimizeQuality"><path d="M3.7344 -13.1719 L3.7344 -11.2656 L1.9375 -11.2656 L1.9375 -13.1719 L3.7344 -13.1719 Z" stroke="none"/></g><g text-rendering="optimizeLegibility" transform="translate(276.8913,51.3509) matrix(1,0,0,1.2579,0,0)" color-rendering="optimizeQuality" color-interpolation="linearRGB" image-rendering="optimizeQuality"><path d="M0.6719 -13.9688 Q2.1875 -13.9688 3.0703 -13.5781 Q3.9531 -13.1875 4.3281 -12.4062 Q4.7031 -11.625 4.7031 -10.3281 L4.7031 -7.5 Q4.7031 -6.625 4.9297 -6.1484 Q5.1562 -5.6719 5.5938 -5.4766 Q6.0312 -5.2812 6.8125 -5.2812 L6.8125 -4.4688 Q6.0312 -4.4688 5.5859 -4.2734 Q5.1406 -4.0781 4.9219 -3.5938 Q4.7031 -3.1094 4.7031 -2.25 L4.7031 0.5781 Q4.7031 1.8906 4.3281 2.6641 Q3.9531 3.4375 3.0703 3.8281 Q2.1875 4.2188 0.6719 4.2188 L0.4219 4.2188 L0.4219 3.4219 Q1.1875 3.4219 1.5781 3.3438 Q1.9688 3.2656 2.2031 3.1016 Q2.4375 2.9375 2.5938 2.6719 Q2.75 2.4062 2.8438 1.9375 Q2.9375 1.4688 2.9375 0.6875 L2.9375 -1.2031 Q2.9375 -2.1875 3.1016 -2.8438 Q3.2656 -3.5 3.7109 -3.9844 Q4.1562 -4.4688 4.9062 -4.7812 L4.9062 -4.9688 Q4.1719 -5.2656 3.7188 -5.7656 Q3.2656 -6.2656 3.1016 -6.9297 Q2.9375 -7.5938 2.9375 -8.5469 L2.9375 -10.4375 Q2.9375 -11.2188 2.8438 -11.6875 Q2.75 -12.1562 2.5938 -12.4141 Q2.4375 -12.6719 2.2031 -12.8438 Q1.9688 -13.0156 1.5781 -13.0938 Q1.1875 -13.1719 0.4219 -13.1719 L0.4219 -13.9688 L0.6719 -13.9688 Z" stroke="none"/></g><g text-rendering="optimizeLegibility" transform="translate(287.3757,41.8596) matrix(1,0,0,2.683,0,0)" color-rendering="optimizeQuality" color-interpolation="linearRGB" image-rendering="optimizeQuality"><path d="M0.6719 -13.9688 Q2.1875 -13.9688 3.0703 -13.5781 Q3.9531 -13.1875 4.3281 -12.4062 Q4.7031 -11.625 4.7031 -10.3281 L4.7031 -7.5 Q4.7031 -6.625 4.9297 -6.1484 Q5.1562 -5.6719 5.5938 -5.4766 Q6.0312 -5.2812 6.8125 -5.2812 L6.8125 -4.4688 Q6.0312 -4.4688 5.5859 -4.2734 Q5.1406 -4.0781 4.9219 -3.5938 Q4.7031 -3.1094 4.7031 -2.25 L4.7031 0.5781 Q4.7031 1.8906 4.3281 2.6641 Q3.9531 3.4375 3.0703 3.8281 Q2.1875 4.2188 0.6719 4.2188 L0.4219 4.2188 L0.4219 3.4219 Q1.1875 3.4219 1.5781 3.3438 Q1.9688 3.2656 2.2031 3.1016 Q2.4375 2.9375 2.5938 2.6719 Q2.75 2.4062 2.8438 1.9375 Q2.9375 1.4688 2.9375 0.6875 L2.9375 -1.2031 Q2.9375 -2.1875 3.1016 -2.8438 Q3.2656 -3.5 3.7109 -3.9844 Q4.1562 -4.4688 4.9062 -4.7812 L4.9062 -4.9688 Q4.1719 -5.2656 3.7188 -5.7656 Q3.2656 -6.2656 3.1016 -6.9297 Q2.9375 -7.5938 2.9375 -8.5469 L2.9375 -10.4375 Q2.9375 -11.2188 2.8438 -11.6875 Q2.75 -12.1562 2.5938 -12.4141 Q2.4375 -12.6719 2.2031 -12.8438 Q1.9688 -13.0156 1.5781 -13.0938 Q1.1875 -13.1719 0.4219 -13.1719 L0.4219 -13.9688 L0.6719 -13.9688 Z" stroke="none"/></g><g text-rendering="optimizeLegibility" transform="translate(296.9695,36)" color-rendering="optimizeQuality" color-interpolation="linearRGB" image-rendering="optimizeQuality"><path d="M6.25 -5.0469 L6.25 -1.3438 L4.8125 -1.3438 L4.8125 -5.0469 L1.2188 -5.0469 L1.2188 -6.3906 L4.8125 -6.3906 L4.8125 -10.0938 L6.25 -10.0938 L6.25 -6.3906 L9.8594 -6.3906 L9.8594 -5.0469 L6.25 -5.0469 Z" stroke="none"/></g><g text-rendering="optimizeLegibility" transform="translate(308.5945,43.546) matrix(1,0,0,3.0241,0,0)" color-rendering="optimizeQuality" color-interpolation="linearRGB" image-rendering="optimizeQuality"><path d="M6.5781 4.2031 L2.2344 4.2031 L2.2344 -13.9688 L6.5781 -13.9688 L6.5781 -13.1719 L3.9531 -13.1719 L3.9531 3.4062 L6.5781 3.4062 L6.5781 4.2031 Z" stroke="none"/></g><g text-rendering="optimizeLegibility" transform="translate(316.9382,18.4957) matrix(1,0,0,1.2572,0,0)" color-rendering="optimizeQuality" color-interpolation="linearRGB" image-rendering="optimizeQuality"><path d="M6.5781 4.2031 L2.2344 4.2031 L2.2344 -13.9688 L6.5781 -13.9688 L6.5781 -13.1719 L3.9531 -13.1719 L3.9531 3.4062 L6.5781 3.4062 L6.5781 4.2031 Z" stroke="none"/></g><g text-rendering="optimizeLegibility" transform="translate(325.5163,19.5769)" color-rendering="optimizeQuality" color-interpolation="linearRGB" image-rendering="optimizeQuality"><path d="M4.1406 -7.3125 L4.4375 -7.3125 Q4.8125 -7.3125 5.1172 -7.4297 Q5.4219 -7.5469 5.8047 -7.8672 Q6.1875 -8.1875 6.9688 -9.0625 Q7.9062 -10.1094 8.25 -10.5781 Q8.6719 -11.1406 8.8125 -11.5156 Q8.9375 -11.7969 8.9375 -12.0625 Q8.9375 -12.4531 8.7109 -12.6328 Q8.4844 -12.8125 8.0938 -12.8594 L8.0938 -13.3281 L12.3594 -13.3281 L12.3594 -12.8594 Q12.0469 -12.7812 11.7422 -12.6094 Q11.4375 -12.4375 11.1172 -12.1406 Q10.7969 -11.8438 10.1875 -11.1562 L6.9062 -7.4688 L10.4531 -2.3125 Q11.0312 -1.4844 11.3516 -1.1562 Q11.6719 -0.8281 11.9609 -0.6797 Q12.25 -0.5312 12.5938 -0.4844 L12.5938 0 L8.2812 0 L8.2812 -0.4844 Q8.6406 -0.5156 8.8047 -0.6172 Q8.9688 -0.7188 8.9688 -0.9375 Q8.9688 -1.1094 8.8594 -1.3594 Q8.75 -1.6094 8.5 -1.9688 L6.2344 -5.3594 Q5.8281 -5.9531 5.6406 -6.1484 Q5.4531 -6.3438 5.2422 -6.4375 Q5.0312 -6.5312 4.6719 -6.5312 L4.1562 -6.5312 L4.1562 -2.4375 Q4.1562 -1.7812 4.1953 -1.4844 Q4.2344 -1.1875 4.3359 -1.0078 Q4.4375 -0.8281 4.6406 -0.7109 Q4.8438 -0.5938 5.2969 -0.4844 L5.2969 0 L1.1875 0 L1.1875 -0.4844 Q1.7812 -0.6406 1.9922 -0.8281 Q2.2031 -1.0156 2.2656 -1.3672 Q2.3281 -1.7188 2.3281 -2.4375 L2.3281 -10.8906 Q2.3281 -11.5625 2.2812 -11.8672 Q2.2344 -12.1719 2.1172 -12.3438 Q2 -12.5156 1.8125 -12.6172 Q1.625 -12.7188 1.1875 -12.8594 L1.1875 -13.3281 L5.2969 -13.3281 L5.2969 -12.8594 Q4.8594 -12.75 4.6719 -12.6406 Q4.4844 -12.5312 4.375 -12.3672 Q4.2656 -12.2031 4.2109 -11.8828 Q4.1562 -11.5625 4.1562 -10.8906 L4.1406 -7.3125 Z" stroke="none"/></g><g text-rendering="optimizeLegibility" transform="translate(339.6882,18.4957) matrix(1,0,0,1.2572,0,0)" color-rendering="optimizeQuality" color-interpolation="linearRGB" image-rendering="optimizeQuality"><path d="M4.7812 4.2031 L0.4219 4.2031 L0.4219 3.4062 L3.0625 3.4062 L3.0625 -13.1719 L0.4219 -13.1719 L0.4219 -13.9688 L4.7812 -13.9688 L4.7812 4.2031 Z" stroke="none"/></g><g text-rendering="optimizeLegibility" transform="translate(359.6573,18.4957) matrix(1,0,0,1.2572,0,0)" color-rendering="optimizeQuality" color-interpolation="linearRGB" image-rendering="optimizeQuality"><path d="M6.5781 4.2031 L2.2344 4.2031 L2.2344 -13.9688 L6.5781 -13.9688 L6.5781 -13.1719 L3.9531 -13.1719 L3.9531 3.4062 L6.5781 3.4062 L6.5781 4.2031 Z" stroke="none"/></g><g text-rendering="optimizeLegibility" transform="translate(368.2354,19.5769)" color-rendering="optimizeQuality" color-interpolation="linearRGB" image-rendering="optimizeQuality"><path d="M4.1406 -7.3125 L4.4375 -7.3125 Q4.8125 -7.3125 5.1172 -7.4297 Q5.4219 -7.5469 5.8047 -7.8672 Q6.1875 -8.1875 6.9688 -9.0625 Q7.9062 -10.1094 8.25 -10.5781 Q8.6719 -11.1406 8.8125 -11.5156 Q8.9375 -11.7969 8.9375 -12.0625 Q8.9375 -12.4531 8.7109 -12.6328 Q8.4844 -12.8125 8.0938 -12.8594 L8.0938 -13.3281 L12.3594 -13.3281 L12.3594 -12.8594 Q12.0469 -12.7812 11.7422 -12.6094 Q11.4375 -12.4375 11.1172 -12.1406 Q10.7969 -11.8438 10.1875 -11.1562 L6.9062 -7.4688 L10.4531 -2.3125 Q11.0312 -1.4844 11.3516 -1.1562 Q11.6719 -0.8281 11.9609 -0.6797 Q12.25 -0.5312 12.5938 -0.4844 L12.5938 0 L8.2812 0 L8.2812 -0.4844 Q8.6406 -0.5156 8.8047 -0.6172 Q8.9688 -0.7188 8.9688 -0.9375 Q8.9688 -1.1094 8.8594 -1.3594 Q8.75 -1.6094 8.5 -1.9688 L6.2344 -5.3594 Q5.8281 -5.9531 5.6406 -6.1484 Q5.4531 -6.3438 5.2422 -6.4375 Q5.0312 -6.5312 4.6719 -6.5312 L4.1562 -6.5312 L4.1562 -2.4375 Q4.1562 -1.7812 4.1953 -1.4844 Q4.2344 -1.1875 4.3359 -1.0078 Q4.4375 -0.8281 4.6406 -0.7109 Q4.8438 -0.5938 5.2969 -0.4844 L5.2969 0 L1.1875 0 L1.1875 -0.4844 Q1.7812 -0.6406 1.9922 -0.8281 Q2.2031 -1.0156 2.2656 -1.3672 Q2.3281 -1.7188 2.3281 -2.4375 L2.3281 -10.8906 Q2.3281 -11.5625 2.2812 -11.8672 Q2.2344 -12.1719 2.1172 -12.3438 Q2 -12.5156 1.8125 -12.6172 Q1.625 -12.7188 1.1875 -12.8594 L1.1875 -13.3281 L5.2969 -13.3281 L5.2969 -12.8594 Q4.8594 -12.75 4.6719 -12.6406 Q4.4844 -12.5312 4.375 -12.3672 Q4.2656 -12.2031 4.2109 -11.8828 Q4.1562 -11.5625 4.1562 -10.8906 L4.1406 -7.3125 Z" stroke="none"/></g><g text-rendering="optimizeLegibility" transform="translate(380.8292,11.0847)" color-rendering="optimizeQuality" color-interpolation="linearRGB" image-rendering="optimizeQuality"><path d="M0.5 -6.5312 L2.4531 -6.5312 L2.4531 -3.0625 Q2.4531 -2.25 2.5156 -1.8359 Q2.5781 -1.4219 2.6953 -1.2109 Q2.8125 -1 3.0391 -0.8594 Q3.2656 -0.7188 3.6719 -0.7188 Q3.9219 -0.7188 4.1641 -0.8203 Q4.4062 -0.9219 4.6953 -1.1719 Q4.9844 -1.4219 5.1172 -1.6797 Q5.25 -1.9375 5.25 -2.2656 L5.25 -4.8281 Q5.25 -5.2188 5.2266 -5.4219 Q5.2031 -5.625 5.1562 -5.7422 Q5.1094 -5.8594 5.0469 -5.9375 Q4.9844 -6.0156 4.8594 -6.0703 Q4.7344 -6.125 4.4688 -6.2031 L4.4688 -6.5312 L6.4219 -6.5312 L6.4219 -1.8594 Q6.4219 -1.3438 6.4375 -1.1094 Q6.4531 -0.875 6.5234 -0.7422 Q6.5938 -0.6094 6.7422 -0.5234 Q6.8906 -0.4375 7.25 -0.3594 L7.25 0 L5.6875 0.0625 L5.2656 0.0625 L5.3125 -1.0469 L5.2031 -1.0781 Q4.6406 -0.4688 4.125 -0.1797 Q3.6094 0.1094 3.0938 0.1094 Q2.4688 0.1094 2.0625 -0.1406 Q1.6562 -0.3906 1.4609 -0.875 Q1.2656 -1.3594 1.2656 -2.25 L1.2656 -4.8281 Q1.2656 -5.4062 1.2188 -5.625 Q1.1719 -5.8438 1.0469 -5.9688 Q0.9219 -6.0938 0.5 -6.2031 L0.5 -6.5312 ZM13.2812 -7.4375 Q13.2812 -8.0938 13.2656 -8.3516 Q13.25 -8.6094 13.2109 -8.7891 Q13.1719 -8.9688 13.0938 -9.0703 Q13.0156 -9.1719 12.8828 -9.2344 Q12.75 -9.2969 12.3906 -9.3594 L12.3906 -9.7188 L14.0469 -9.7812 L14.4531 -9.7812 L14.4531 -1.8594 Q14.4531 -1.3281 14.4766 -1.1016 Q14.5 -0.875 14.5625 -0.7422 Q14.625 -0.6094 14.7734 -0.5234 Q14.9219 -0.4375 15.2969 -0.3594 L15.2969 0 L13.6875 0.0625 L13.2656 0.0625 L13.3594 -1.0469 L13.25 -1.0781 Q12.8125 -0.625 12.5 -0.3984 Q12.1875 -0.1719 11.8281 -0.0312 Q11.4688 0.1094 11.0625 0.1094 Q9.9375 0.1094 9.3281 -0.7422 Q8.7188 -1.5938 8.7188 -3.2031 Q8.7188 -4.3281 9.1172 -5.1094 Q9.5156 -5.8906 10.1875 -6.2734 Q10.8594 -6.6562 11.7031 -6.6562 Q12.1562 -6.6562 12.5234 -6.5859 Q12.8906 -6.5156 13.2812 -6.3438 L13.2812 -7.4375 ZM13.2812 -4.0469 Q13.2812 -4.5938 13.2344 -4.9141 Q13.1875 -5.2344 13.0703 -5.4531 Q12.9531 -5.6719 12.7656 -5.8203 Q12.5781 -5.9688 12.3438 -6.0391 Q12.1094 -6.1094 11.7969 -6.1094 Q10.9219 -6.1094 10.4609 -5.4062 Q10 -4.7031 10 -3.3906 Q10 -2.0781 10.375 -1.3984 Q10.75 -0.7188 11.5156 -0.7188 Q11.8281 -0.7188 12.0234 -0.7656 Q12.2188 -0.8125 12.4062 -0.9297 Q12.5938 -1.0469 12.7969 -1.2422 Q13 -1.4375 13.0938 -1.6016 Q13.1875 -1.7656 13.2344 -1.9766 Q13.2812 -2.1875 13.2812 -2.5156 L13.2812 -4.0469 Z" stroke="none"/></g><g text-rendering="optimizeLegibility" transform="translate(397.7042,18.4957) matrix(1,0,0,1.2572,0,0)" color-rendering="optimizeQuality" color-interpolation="linearRGB" image-rendering="optimizeQuality"><path d="M4.7812 4.2031 L0.4219 4.2031 L0.4219 3.4062 L3.0625 3.4062 L3.0625 -13.1719 L0.4219 -13.1719 L0.4219 -13.9688 L4.7812 -13.9688 L4.7812 4.2031 Z" stroke="none"/></g><g text-rendering="optimizeLegibility" transform="translate(318.3288,51.3419) matrix(1,0,0,1.2572,0,0)" color-rendering="optimizeQuality" color-interpolation="linearRGB" image-rendering="optimizeQuality"><path d="M6.5781 4.2031 L2.2344 4.2031 L2.2344 -13.9688 L6.5781 -13.9688 L6.5781 -13.1719 L3.9531 -13.1719 L3.9531 3.4062 L6.5781 3.4062 L6.5781 4.2031 Z" stroke="none"/></g><g text-rendering="optimizeLegibility" transform="translate(326.907,52.4231)" color-rendering="optimizeQuality" color-interpolation="linearRGB" image-rendering="optimizeQuality"><path d="M5.4375 0.1562 Q3.3281 0.1562 2.2969 -1.5078 Q1.2656 -3.1719 1.2656 -6.5469 Q1.2656 -8.3438 1.5781 -9.6484 Q1.8906 -10.9531 2.4609 -11.8125 Q3.0312 -12.6719 3.8359 -13.0781 Q4.6406 -13.4844 5.5938 -13.4844 Q7.7188 -13.4844 8.7656 -11.8359 Q9.8125 -10.1875 9.8125 -6.8438 Q9.8125 -3.3906 8.6953 -1.6172 Q7.5781 0.1562 5.4375 0.1562 ZM3.1719 -6.8438 Q3.1719 -3.6562 3.7578 -2.1641 Q4.3438 -0.6719 5.5938 -0.6719 Q6.7656 -0.6719 7.3359 -2.0781 Q7.9062 -3.4844 7.9062 -6.4219 Q7.9062 -8.6562 7.6172 -10.0547 Q7.3281 -11.4531 6.8047 -12.0547 Q6.2812 -12.6562 5.5312 -12.6562 Q4.8594 -12.6562 4.4062 -12.2578 Q3.9531 -11.8594 3.6797 -11.1094 Q3.4062 -10.3594 3.2891 -9.2734 Q3.1719 -8.1875 3.1719 -6.8438 Z" stroke="none"/></g><g text-rendering="optimizeLegibility" transform="translate(338.2976,51.3419) matrix(1,0,0,1.2572,0,0)" color-rendering="optimizeQuality" color-interpolation="linearRGB" image-rendering="optimizeQuality"><path d="M4.7812 4.2031 L0.4219 4.2031 L0.4219 3.4062 L3.0625 3.4062 L3.0625 -13.1719 L0.4219 -13.1719 L0.4219 -13.9688 L4.7812 -13.9688 L4.7812 4.2031 Z" stroke="none"/></g><g text-rendering="optimizeLegibility" transform="translate(363.6573,51.3419) matrix(1,0,0,1.2572,0,0)" color-rendering="optimizeQuality" color-interpolation="linearRGB" image-rendering="optimizeQuality"><path d="M6.5781 4.2031 L2.2344 4.2031 L2.2344 -13.9688 L6.5781 -13.9688 L6.5781 -13.1719 L3.9531 -13.1719 L3.9531 3.4062 L6.5781 3.4062 L6.5781 4.2031 Z" stroke="none"/></g><g text-rendering="optimizeLegibility" transform="translate(372.2354,52.4231)" color-rendering="optimizeQuality" color-interpolation="linearRGB" image-rendering="optimizeQuality"><path d="M4.1406 -7.3125 L4.4375 -7.3125 Q4.8125 -7.3125 5.1172 -7.4297 Q5.4219 -7.5469 5.8047 -7.8672 Q6.1875 -8.1875 6.9688 -9.0625 Q7.9062 -10.1094 8.25 -10.5781 Q8.6719 -11.1406 8.8125 -11.5156 Q8.9375 -11.7969 8.9375 -12.0625 Q8.9375 -12.4531 8.7109 -12.6328 Q8.4844 -12.8125 8.0938 -12.8594 L8.0938 -13.3281 L12.3594 -13.3281 L12.3594 -12.8594 Q12.0469 -12.7812 11.7422 -12.6094 Q11.4375 -12.4375 11.1172 -12.1406 Q10.7969 -11.8438 10.1875 -11.1562 L6.9062 -7.4688 L10.4531 -2.3125 Q11.0312 -1.4844 11.3516 -1.1562 Q11.6719 -0.8281 11.9609 -0.6797 Q12.25 -0.5312 12.5938 -0.4844 L12.5938 0 L8.2812 0 L8.2812 -0.4844 Q8.6406 -0.5156 8.8047 -0.6172 Q8.9688 -0.7188 8.9688 -0.9375 Q8.9688 -1.1094 8.8594 -1.3594 Q8.75 -1.6094 8.5 -1.9688 L6.2344 -5.3594 Q5.8281 -5.9531 5.6406 -6.1484 Q5.4531 -6.3438 5.2422 -6.4375 Q5.0312 -6.5312 4.6719 -6.5312 L4.1562 -6.5312 L4.1562 -2.4375 Q4.1562 -1.7812 4.1953 -1.4844 Q4.2344 -1.1875 4.3359 -1.0078 Q4.4375 -0.8281 4.6406 -0.7109 Q4.8438 -0.5938 5.2969 -0.4844 L5.2969 0 L1.1875 0 L1.1875 -0.4844 Q1.7812 -0.6406 1.9922 -0.8281 Q2.2031 -1.0156 2.2656 -1.3672 Q2.3281 -1.7188 2.3281 -2.4375 L2.3281 -10.8906 Q2.3281 -11.5625 2.2812 -11.8672 Q2.2344 -12.1719 2.1172 -12.3438 Q2 -12.5156 1.8125 -12.6172 Q1.625 -12.7188 1.1875 -12.8594 L1.1875 -13.3281 L5.2969 -13.3281 L5.2969 -12.8594 Q4.8594 -12.75 4.6719 -12.6406 Q4.4844 -12.5312 4.375 -12.3672 Q4.2656 -12.2031 4.2109 -11.8828 Q4.1562 -11.5625 4.1562 -10.8906 L4.1406 -7.3125 Z" stroke="none"/></g><g text-rendering="optimizeLegibility" transform="translate(384.8292,43.9309)" color-rendering="optimizeQuality" color-interpolation="linearRGB" image-rendering="optimizeQuality"><path d="M5.2812 -7.4375 Q5.2812 -8.0938 5.2656 -8.3516 Q5.25 -8.6094 5.2109 -8.7891 Q5.1719 -8.9688 5.0938 -9.0703 Q5.0156 -9.1719 4.8828 -9.2344 Q4.75 -9.2969 4.3906 -9.3594 L4.3906 -9.7188 L6.0469 -9.7812 L6.4531 -9.7812 L6.4531 -1.8594 Q6.4531 -1.3281 6.4766 -1.1016 Q6.5 -0.875 6.5625 -0.7422 Q6.625 -0.6094 6.7734 -0.5234 Q6.9219 -0.4375 7.2969 -0.3594 L7.2969 0 L5.6875 0.0625 L5.2656 0.0625 L5.3594 -1.0469 L5.25 -1.0781 Q4.8125 -0.625 4.5 -0.3984 Q4.1875 -0.1719 3.8281 -0.0312 Q3.4688 0.1094 3.0625 0.1094 Q1.9375 0.1094 1.3281 -0.7422 Q0.7188 -1.5938 0.7188 -3.2031 Q0.7188 -4.3281 1.1172 -5.1094 Q1.5156 -5.8906 2.1875 -6.2734 Q2.8594 -6.6562 3.7031 -6.6562 Q4.1562 -6.6562 4.5234 -6.5859 Q4.8906 -6.5156 5.2812 -6.3438 L5.2812 -7.4375 ZM5.2812 -4.0469 Q5.2812 -4.5938 5.2344 -4.9141 Q5.1875 -5.2344 5.0703 -5.4531 Q4.9531 -5.6719 4.7656 -5.8203 Q4.5781 -5.9688 4.3438 -6.0391 Q4.1094 -6.1094 3.7969 -6.1094 Q2.9219 -6.1094 2.4609 -5.4062 Q2 -4.7031 2 -3.3906 Q2 -2.0781 2.375 -1.3984 Q2.75 -0.7188 3.5156 -0.7188 Q3.8281 -0.7188 4.0234 -0.7656 Q4.2188 -0.8125 4.4062 -0.9297 Q4.5938 -1.0469 4.7969 -1.2422 Q5 -1.4375 5.0938 -1.6016 Q5.1875 -1.7656 5.2344 -1.9766 Q5.2812 -2.1875 5.2812 -2.5156 L5.2812 -4.0469 Z" stroke="none"/></g><g text-rendering="optimizeLegibility" transform="translate(393.7042,51.3419) matrix(1,0,0,1.2572,0,0)" color-rendering="optimizeQuality" color-interpolation="linearRGB" image-rendering="optimizeQuality"><path d="M4.7812 4.2031 L0.4219 4.2031 L0.4219 3.4062 L3.0625 3.4062 L3.0625 -13.1719 L0.4219 -13.1719 L0.4219 -13.9688 L4.7812 -13.9688 L4.7812 4.2031 Z" stroke="none"/></g><g text-rendering="optimizeLegibility" transform="translate(406.0635,43.546) matrix(1,0,0,3.0241,0,0)" color-rendering="optimizeQuality" color-interpolation="linearRGB" image-rendering="optimizeQuality"><path d="M4.7812 4.2031 L0.4219 4.2031 L0.4219 3.4062 L3.0625 3.4062 L3.0625 -13.1719 L0.4219 -13.1719 L0.4219 -13.9688 L4.7812 -13.9688 L4.7812 4.2031 Z" stroke="none"/></g><g text-rendering="optimizeLegibility" transform="translate(413.9229,41.2104) matrix(1,0,0,2.5498,0,0)" color-rendering="optimizeQuality" color-interpolation="linearRGB" image-rendering="optimizeQuality"><path d="M7.0781 4.2188 Q5.5625 4.2188 4.6797 3.8281 Q3.7969 3.4375 3.4141 2.6641 Q3.0312 1.8906 3.0312 0.5781 L3.0312 -2.25 Q3.0312 -3.1094 2.8125 -3.5938 Q2.5938 -4.0781 2.1562 -4.2734 Q1.7188 -4.4688 0.9219 -4.4688 L0.9219 -5.2812 Q1.7031 -5.2812 2.1484 -5.4766 Q2.5938 -5.6719 2.8125 -6.1484 Q3.0312 -6.625 3.0312 -7.5 L3.0312 -10.3281 Q3.0312 -11.625 3.4141 -12.4062 Q3.7969 -13.1875 4.6797 -13.5781 Q5.5625 -13.9688 7.0781 -13.9688 L7.3281 -13.9688 L7.3281 -13.1719 Q6.5469 -13.1719 6.1641 -13.0938 Q5.7812 -13.0156 5.5391 -12.8438 Q5.2969 -12.6719 5.1406 -12.4141 Q4.9844 -12.1562 4.8984 -11.6875 Q4.8125 -11.2188 4.8125 -10.4375 L4.8125 -8.5469 Q4.8125 -7.5625 4.6406 -6.8984 Q4.4688 -6.2344 4.0312 -5.7578 Q3.5938 -5.2812 2.8281 -4.9688 L2.8281 -4.7812 Q3.5781 -4.4844 4.0312 -3.9844 Q4.4844 -3.4844 4.6484 -2.8203 Q4.8125 -2.1562 4.8125 -1.2031 L4.8125 0.6875 Q4.8125 1.4688 4.8984 1.9375 Q4.9844 2.4062 5.1406 2.6719 Q5.2969 2.9375 5.5391 3.1016 Q5.7812 3.2656 6.1641 3.3438 Q6.5469 3.4219 7.3281 3.4219 L7.3281 4.2188 L7.0781 4.2188 Z" stroke="none"/></g><g text-rendering="optimizeLegibility" transform="translate(424.3292,18.4734) matrix(1,0,0,1.2579,0,0)" color-rendering="optimizeQuality" color-interpolation="linearRGB" image-rendering="optimizeQuality"><path d="M7.0781 4.2188 Q5.5625 4.2188 4.6797 3.8281 Q3.7969 3.4375 3.4141 2.6641 Q3.0312 1.8906 3.0312 0.5781 L3.0312 -2.25 Q3.0312 -3.1094 2.8125 -3.5938 Q2.5938 -4.0781 2.1562 -4.2734 Q1.7188 -4.4688 0.9219 -4.4688 L0.9219 -5.2812 Q1.7031 -5.2812 2.1484 -5.4766 Q2.5938 -5.6719 2.8125 -6.1484 Q3.0312 -6.625 3.0312 -7.5 L3.0312 -10.3281 Q3.0312 -11.625 3.4141 -12.4062 Q3.7969 -13.1875 4.6797 -13.5781 Q5.5625 -13.9688 7.0781 -13.9688 L7.3281 -13.9688 L7.3281 -13.1719 Q6.5469 -13.1719 6.1641 -13.0938 Q5.7812 -13.0156 5.5391 -12.8438 Q5.2969 -12.6719 5.1406 -12.4141 Q4.9844 -12.1562 4.8984 -11.6875 Q4.8125 -11.2188 4.8125 -10.4375 L4.8125 -8.5469 Q4.8125 -7.5625 4.6406 -6.8984 Q4.4688 -6.2344 4.0312 -5.7578 Q3.5938 -5.2812 2.8281 -4.9688 L2.8281 -4.7812 Q3.5781 -4.4844 4.0312 -3.9844 Q4.4844 -3.4844 4.6484 -2.8203 Q4.8125 -2.1562 4.8125 -1.2031 L4.8125 0.6875 Q4.8125 1.4688 4.8984 1.9375 Q4.9844 2.4062 5.1406 2.6719 Q5.2969 2.9375 5.5391 3.1016 Q5.7812 3.2656 6.1641 3.3438 Q6.5469 3.4219 7.3281 3.4219 L7.3281 4.2188 L7.0781 4.2188 Z" stroke="none"/></g><g text-rendering="optimizeLegibility" transform="translate(433.6573,19.5612)" color-rendering="optimizeQuality" color-interpolation="linearRGB" image-rendering="optimizeQuality"><path d="M0.7188 -9.3438 L3.5 -9.3438 L3.5 -4.3594 Q3.5 -3.2188 3.5859 -2.625 Q3.6719 -2.0312 3.8516 -1.7266 Q4.0312 -1.4219 4.3516 -1.2188 Q4.6719 -1.0156 5.2344 -1.0156 Q5.6094 -1.0156 5.9531 -1.1641 Q6.2969 -1.3125 6.7109 -1.6797 Q7.125 -2.0469 7.3047 -2.4062 Q7.4844 -2.7656 7.4844 -3.25 L7.4844 -6.9062 Q7.4844 -7.4688 7.4609 -7.75 Q7.4375 -8.0312 7.3672 -8.2031 Q7.2969 -8.375 7.2031 -8.4766 Q7.1094 -8.5781 6.9375 -8.6719 Q6.7656 -8.7656 6.3906 -8.8594 L6.3906 -9.3438 L9.1719 -9.3438 L9.1719 -2.6719 Q9.1719 -1.9219 9.2031 -1.5859 Q9.2344 -1.25 9.3281 -1.0547 Q9.4219 -0.8594 9.625 -0.7344 Q9.8281 -0.6094 10.3594 -0.5156 L10.3594 0 L8.125 0.0938 L7.5312 0.0938 L7.5938 -1.5 L7.4375 -1.5469 Q6.625 -0.6719 5.8906 -0.2578 Q5.1562 0.1562 4.4219 0.1562 Q3.5312 0.1562 2.9531 -0.1953 Q2.375 -0.5469 2.0938 -1.2422 Q1.8125 -1.9375 1.8125 -3.2188 L1.8125 -6.9062 Q1.8125 -7.7188 1.75 -8.0312 Q1.6875 -8.3438 1.5 -8.5234 Q1.3125 -8.7031 0.7188 -8.8594 L0.7188 -9.3438 Z" stroke="none"/></g><g text-rendering="optimizeLegibility" transform="translate(445.5948,18.4734) matrix(1,0,0,1.2579,0,0)" color-rendering="optimizeQuality" color-interpolation="linearRGB" image-rendering="optimizeQuality"><path d="M0.6719 -13.9688 Q2.1875 -13.9688 3.0703 -13.5781 Q3.9531 -13.1875 4.3281 -12.4062 Q4.7031 -11.625 4.7031 -10.3281 L4.7031 -7.5 Q4.7031 -6.625 4.9297 -6.1484 Q5.1562 -5.6719 5.5938 -5.4766 Q6.0312 -5.2812 6.8125 -5.2812 L6.8125 -4.4688 Q6.0312 -4.4688 5.5859 -4.2734 Q5.1406 -4.0781 4.9219 -3.5938 Q4.7031 -3.1094 4.7031 -2.25 L4.7031 0.5781 Q4.7031 1.8906 4.3281 2.6641 Q3.9531 3.4375 3.0703 3.8281 Q2.1875 4.2188 0.6719 4.2188 L0.4219 4.2188 L0.4219 3.4219 Q1.1875 3.4219 1.5781 3.3438 Q1.9688 3.2656 2.2031 3.1016 Q2.4375 2.9375 2.5938 2.6719 Q2.75 2.4062 2.8438 1.9375 Q2.9375 1.4688 2.9375 0.6875 L2.9375 -1.2031 Q2.9375 -2.1875 3.1016 -2.8438 Q3.2656 -3.5 3.7109 -3.9844 Q4.1562 -4.4688 4.9062 -4.7812 L4.9062 -4.9688 Q4.1719 -5.2656 3.7188 -5.7656 Q3.2656 -6.2656 3.1016 -6.9297 Q2.9375 -7.5938 2.9375 -8.5469 L2.9375 -10.4375 Q2.9375 -11.2188 2.8438 -11.6875 Q2.75 -12.1562 2.5938 -12.4141 Q2.4375 -12.6719 2.2031 -12.8438 Q1.9688 -13.0156 1.5781 -13.0938 Q1.1875 -13.1719 0.4219 -13.1719 L0.4219 -13.9688 L0.6719 -13.9688 Z" stroke="none"/></g><g text-rendering="optimizeLegibility" transform="translate(424.4229,51.3509) matrix(1,0,0,1.2579,0,0)" color-rendering="optimizeQuality" color-interpolation="linearRGB" image-rendering="optimizeQuality"><path d="M7.0781 4.2188 Q5.5625 4.2188 4.6797 3.8281 Q3.7969 3.4375 3.4141 2.6641 Q3.0312 1.8906 3.0312 0.5781 L3.0312 -2.25 Q3.0312 -3.1094 2.8125 -3.5938 Q2.5938 -4.0781 2.1562 -4.2734 Q1.7188 -4.4688 0.9219 -4.4688 L0.9219 -5.2812 Q1.7031 -5.2812 2.1484 -5.4766 Q2.5938 -5.6719 2.8125 -6.1484 Q3.0312 -6.625 3.0312 -7.5 L3.0312 -10.3281 Q3.0312 -11.625 3.4141 -12.4062 Q3.7969 -13.1875 4.6797 -13.5781 Q5.5625 -13.9688 7.0781 -13.9688 L7.3281 -13.9688 L7.3281 -13.1719 Q6.5469 -13.1719 6.1641 -13.0938 Q5.7812 -13.0156 5.5391 -12.8438 Q5.2969 -12.6719 5.1406 -12.4141 Q4.9844 -12.1562 4.8984 -11.6875 Q4.8125 -11.2188 4.8125 -10.4375 L4.8125 -8.5469 Q4.8125 -7.5625 4.6406 -6.8984 Q4.4688 -6.2344 4.0312 -5.7578 Q3.5938 -5.2812 2.8281 -4.9688 L2.8281 -4.7812 Q3.5781 -4.4844 4.0312 -3.9844 Q4.4844 -3.4844 4.6484 -2.8203 Q4.8125 -2.1562 4.8125 -1.2031 L4.8125 0.6875 Q4.8125 1.4688 4.8984 1.9375 Q4.9844 2.4062 5.1406 2.6719 Q5.2969 2.9375 5.5391 3.1016 Q5.7812 3.2656 6.1641 3.3438 Q6.5469 3.4219 7.3281 3.4219 L7.3281 4.2188 L7.0781 4.2188 Z" stroke="none"/></g><g text-rendering="optimizeLegibility" transform="translate(433.751,52.4387)" color-rendering="optimizeQuality" color-interpolation="linearRGB" image-rendering="optimizeQuality"><path d="M10.1719 -13.0469 L10.1719 -10.3438 L9.2031 -10.3438 Q8.9688 -11.1875 8.6094 -11.6953 Q8.25 -12.2031 7.7734 -12.4141 Q7.2969 -12.625 6.625 -12.625 Q5.6094 -12.625 4.8281 -11.9609 Q4.0469 -11.2969 3.5938 -9.9531 Q3.1406 -8.6094 3.1406 -6.7031 Q3.1406 -4.7812 3.5156 -3.4297 Q3.8906 -2.0781 4.6094 -1.3906 Q5.3281 -0.7031 6.3906 -0.7031 Q7.1875 -0.7031 7.6953 -0.9297 Q8.2031 -1.1562 8.5469 -1.6562 Q8.8906 -2.1562 9.2031 -3.125 L10.1719 -3.125 L10.1719 -0.3281 Q9.2656 -0.0938 8.2969 0.0312 Q7.3281 0.1562 6.1875 0.1562 Q3.7031 0.1562 2.4297 -1.5234 Q1.1562 -3.2031 1.1562 -6.5312 Q1.1562 -8.625 1.8203 -10.1953 Q2.4844 -11.7656 3.7656 -12.625 Q5.0469 -13.4844 6.8125 -13.4844 Q7.7031 -13.4844 8.4531 -13.3906 Q9.2031 -13.2969 10.1719 -13.0469 Z" stroke="none"/></g><g text-rendering="optimizeLegibility" transform="translate(445.501,51.3509) matrix(1,0,0,1.2579,0,0)" color-rendering="optimizeQuality" color-interpolation="linearRGB" image-rendering="optimizeQuality"><path d="M0.6719 -13.9688 Q2.1875 -13.9688 3.0703 -13.5781 Q3.9531 -13.1875 4.3281 -12.4062 Q4.7031 -11.625 4.7031 -10.3281 L4.7031 -7.5 Q4.7031 -6.625 4.9297 -6.1484 Q5.1562 -5.6719 5.5938 -5.4766 Q6.0312 -5.2812 6.8125 -5.2812 L6.8125 -4.4688 Q6.0312 -4.4688 5.5859 -4.2734 Q5.1406 -4.0781 4.9219 -3.5938 Q4.7031 -3.1094 4.7031 -2.25 L4.7031 0.5781 Q4.7031 1.8906 4.3281 2.6641 Q3.9531 3.4375 3.0703 3.8281 Q2.1875 4.2188 0.6719 4.2188 L0.4219 4.2188 L0.4219 3.4219 Q1.1875 3.4219 1.5781 3.3438 Q1.9688 3.2656 2.2031 3.1016 Q2.4375 2.9375 2.5938 2.6719 Q2.75 2.4062 2.8438 1.9375 Q2.9375 1.4688 2.9375 0.6875 L2.9375 -1.2031 Q2.9375 -2.1875 3.1016 -2.8438 Q3.2656 -3.5 3.7109 -3.9844 Q4.1562 -4.4688 4.9062 -4.7812 L4.9062 -4.9688 Q4.1719 -5.2656 3.7188 -5.7656 Q3.2656 -6.2656 3.1016 -6.9297 Q2.9375 -7.5938 2.9375 -8.5469 L2.9375 -10.4375 Q2.9375 -11.2188 2.8438 -11.6875 Q2.75 -12.1562 2.5938 -12.4141 Q2.4375 -12.6719 2.2031 -12.8438 Q1.9688 -13.0156 1.5781 -13.0938 Q1.1875 -13.1719 0.4219 -13.1719 L0.4219 -13.9688 L0.6719 -13.9688 Z" stroke="none"/></g><g text-rendering="optimizeLegibility" transform="translate(455.9854,41.2104) matrix(1,0,0,2.5498,0,0)" color-rendering="optimizeQuality" color-interpolation="linearRGB" image-rendering="optimizeQuality"><path d="M0.6719 -13.9688 Q2.1875 -13.9688 3.0703 -13.5781 Q3.9531 -13.1875 4.3281 -12.4062 Q4.7031 -11.625 4.7031 -10.3281 L4.7031 -7.5 Q4.7031 -6.625 4.9297 -6.1484 Q5.1562 -5.6719 5.5938 -5.4766 Q6.0312 -5.2812 6.8125 -5.2812 L6.8125 -4.4688 Q6.0312 -4.4688 5.5859 -4.2734 Q5.1406 -4.0781 4.9219 -3.5938 Q4.7031 -3.1094 4.7031 -2.25 L4.7031 0.5781 Q4.7031 1.8906 4.3281 2.6641 Q3.9531 3.4375 3.0703 3.8281 Q2.1875 4.2188 0.6719 4.2188 L0.4219 4.2188 L0.4219 3.4219 Q1.1875 3.4219 1.5781 3.3438 Q1.9688 3.2656 2.2031 3.1016 Q2.4375 2.9375 2.5938 2.6719 Q2.75 2.4062 2.8438 1.9375 Q2.9375 1.4688 2.9375 0.6875 L2.9375 -1.2031 Q2.9375 -2.1875 3.1016 -2.8438 Q3.2656 -3.5 3.7109 -3.9844 Q4.1562 -4.4688 4.9062 -4.7812 L4.9062 -4.9688 Q4.1719 -5.2656 3.7188 -5.7656 Q3.2656 -6.2656 3.1016 -6.9297 Q2.9375 -7.5938 2.9375 -8.5469 L2.9375 -10.4375 Q2.9375 -11.2188 2.8438 -11.6875 Q2.75 -12.1562 2.5938 -12.4141 Q2.4375 -12.6719 2.2031 -12.8438 Q1.9688 -13.0156 1.5781 -13.0938 Q1.1875 -13.1719 0.4219 -13.1719 L0.4219 -13.9688 L0.6719 -13.9688 Z" stroke="none"/></g><g text-rendering="optimizeLegibility" transform="translate(465.5792,36)" color-rendering="optimizeQuality" color-interpolation="linearRGB" image-rendering="optimizeQuality"><path d="M1.2188 -7.0625 L1.2188 -8.4219 L9.8594 -8.4219 L9.8594 -7.0625 L1.2188 -7.0625 ZM1.2188 -3.0156 L1.2188 -4.3594 L9.8594 -4.3594 L9.8594 -3.0156 L1.2188 -3.0156 Z" stroke="none"/></g><g text-rendering="optimizeLegibility" transform="translate(478.5167,41.2104) matrix(1,0,0,2.5498,0,0)" color-rendering="optimizeQuality" color-interpolation="linearRGB" image-rendering="optimizeQuality"><path d="M7.0781 4.2188 Q5.5625 4.2188 4.6797 3.8281 Q3.7969 3.4375 3.4141 2.6641 Q3.0312 1.8906 3.0312 0.5781 L3.0312 -2.25 Q3.0312 -3.1094 2.8125 -3.5938 Q2.5938 -4.0781 2.1562 -4.2734 Q1.7188 -4.4688 0.9219 -4.4688 L0.9219 -5.2812 Q1.7031 -5.2812 2.1484 -5.4766 Q2.5938 -5.6719 2.8125 -6.1484 Q3.0312 -6.625 3.0312 -7.5 L3.0312 -10.3281 Q3.0312 -11.625 3.4141 -12.4062 Q3.7969 -13.1875 4.6797 -13.5781 Q5.5625 -13.9688 7.0781 -13.9688 L7.3281 -13.9688 L7.3281 -13.1719 Q6.5469 -13.1719 6.1641 -13.0938 Q5.7812 -13.0156 5.5391 -12.8438 Q5.2969 -12.6719 5.1406 -12.4141 Q4.9844 -12.1562 4.8984 -11.6875 Q4.8125 -11.2188 4.8125 -10.4375 L4.8125 -8.5469 Q4.8125 -7.5625 4.6406 -6.8984 Q4.4688 -6.2344 4.0312 -5.7578 Q3.5938 -5.2812 2.8281 -4.9688 L2.8281 -4.7812 Q3.5781 -4.4844 4.0312 -3.9844 Q4.4844 -3.4844 4.6484 -2.8203 Q4.8125 -2.1562 4.8125 -1.2031 L4.8125 0.6875 Q4.8125 1.4688 4.8984 1.9375 Q4.9844 2.4062 5.1406 2.6719 Q5.2969 2.9375 5.5391 3.1016 Q5.7812 3.2656 6.1641 3.3438 Q6.5469 3.4219 7.3281 3.4219 L7.3281 4.2188 L7.0781 4.2188 Z" stroke="none"/></g><g text-rendering="optimizeLegibility" transform="translate(490.087,18.4734) matrix(1,0,0,1.2579,0,0)" color-rendering="optimizeQuality" color-interpolation="linearRGB" image-rendering="optimizeQuality"><path d="M7.0781 4.2188 Q5.5625 4.2188 4.6797 3.8281 Q3.7969 3.4375 3.4141 2.6641 Q3.0312 1.8906 3.0312 0.5781 L3.0312 -2.25 Q3.0312 -3.1094 2.8125 -3.5938 Q2.5938 -4.0781 2.1562 -4.2734 Q1.7188 -4.4688 0.9219 -4.4688 L0.9219 -5.2812 Q1.7031 -5.2812 2.1484 -5.4766 Q2.5938 -5.6719 2.8125 -6.1484 Q3.0312 -6.625 3.0312 -7.5 L3.0312 -10.3281 Q3.0312 -11.625 3.4141 -12.4062 Q3.7969 -13.1875 4.6797 -13.5781 Q5.5625 -13.9688 7.0781 -13.9688 L7.3281 -13.9688 L7.3281 -13.1719 Q6.5469 -13.1719 6.1641 -13.0938 Q5.7812 -13.0156 5.5391 -12.8438 Q5.2969 -12.6719 5.1406 -12.4141 Q4.9844 -12.1562 4.8984 -11.6875 Q4.8125 -11.2188 4.8125 -10.4375 L4.8125 -8.5469 Q4.8125 -7.5625 4.6406 -6.8984 Q4.4688 -6.2344 4.0312 -5.7578 Q3.5938 -5.2812 2.8281 -4.9688 L2.8281 -4.7812 Q3.5781 -4.4844 4.0312 -3.9844 Q4.4844 -3.4844 4.6484 -2.8203 Q4.8125 -2.1562 4.8125 -1.2031 L4.8125 0.6875 Q4.8125 1.4688 4.8984 1.9375 Q4.9844 2.4062 5.1406 2.6719 Q5.2969 2.9375 5.5391 3.1016 Q5.7812 3.2656 6.1641 3.3438 Q6.5469 3.4219 7.3281 3.4219 L7.3281 4.2188 L7.0781 4.2188 Z" stroke="none"/></g><g text-rendering="optimizeLegibility" transform="translate(499.4151,19.5612)" color-rendering="optimizeQuality" color-interpolation="linearRGB" image-rendering="optimizeQuality"><path d="M10.0938 -13.3281 L10.0938 -10.375 L9.125 -10.375 Q8.9219 -11.0469 8.7188 -11.4531 Q8.5156 -11.8594 8.2969 -12.0781 Q8.0781 -12.2969 7.7812 -12.3828 Q7.4844 -12.4688 7.0156 -12.4688 L4.1562 -12.4688 L4.1562 -7.1562 L6.1562 -7.1562 Q6.5938 -7.1562 6.8359 -7.2969 Q7.0781 -7.4375 7.2422 -7.7734 Q7.4062 -8.1094 7.5469 -8.7969 L8.4688 -8.7969 L8.4688 -4.6719 L7.5469 -4.6719 Q7.4062 -5.3438 7.2422 -5.6797 Q7.0781 -6.0156 6.8438 -6.1562 Q6.6094 -6.2969 6.1562 -6.2969 L4.1562 -6.2969 L4.1562 -2.4688 Q4.1562 -1.8906 4.2188 -1.5391 Q4.2812 -1.1875 4.4375 -0.9766 Q4.5938 -0.7656 4.8594 -0.6641 Q5.125 -0.5625 5.5156 -0.4844 L5.5156 0 L1.1875 0 L1.1875 -0.4844 Q1.7812 -0.6406 1.9922 -0.8281 Q2.2031 -1.0156 2.2656 -1.3672 Q2.3281 -1.7188 2.3281 -2.4375 L2.3281 -10.8906 Q2.3281 -11.5625 2.2812 -11.8672 Q2.2344 -12.1719 2.1172 -12.3438 Q2 -12.5156 1.8125 -12.6172 Q1.625 -12.7188 1.1875 -12.8594 L1.1875 -13.3281 L10.0938 -13.3281 Z" stroke="none"/></g><g text-rendering="optimizeLegibility" transform="translate(511.087,18.4734) matrix(1,0,0,1.2579,0,0)" color-rendering="optimizeQuality" color-interpolation="linearRGB" image-rendering="optimizeQuality"><path d="M0.6719 -13.9688 Q2.1875 -13.9688 3.0703 -13.5781 Q3.9531 -13.1875 4.3281 -12.4062 Q4.7031 -11.625 4.7031 -10.3281 L4.7031 -7.5 Q4.7031 -6.625 4.9297 -6.1484 Q5.1562 -5.6719 5.5938 -5.4766 Q6.0312 -5.2812 6.8125 -5.2812 L6.8125 -4.4688 Q6.0312 -4.4688 5.5859 -4.2734 Q5.1406 -4.0781 4.9219 -3.5938 Q4.7031 -3.1094 4.7031 -2.25 L4.7031 0.5781 Q4.7031 1.8906 4.3281 2.6641 Q3.9531 3.4375 3.0703 3.8281 Q2.1875 4.2188 0.6719 4.2188 L0.4219 4.2188 L0.4219 3.4219 Q1.1875 3.4219 1.5781 3.3438 Q1.9688 3.2656 2.2031 3.1016 Q2.4375 2.9375 2.5938 2.6719 Q2.75 2.4062 2.8438 1.9375 Q2.9375 1.4688 2.9375 0.6875 L2.9375 -1.2031 Q2.9375 -2.1875 3.1016 -2.8438 Q3.2656 -3.5 3.7109 -3.9844 Q4.1562 -4.4688 4.9062 -4.7812 L4.9062 -4.9688 Q4.1719 -5.2656 3.7188 -5.7656 Q3.2656 -6.2656 3.1016 -6.9297 Q2.9375 -7.5938 2.9375 -8.5469 L2.9375 -10.4375 Q2.9375 -11.2188 2.8438 -11.6875 Q2.75 -12.1562 2.5938 -12.4141 Q2.4375 -12.6719 2.2031 -12.8438 Q1.9688 -13.0156 1.5781 -13.0938 Q1.1875 -13.1719 0.4219 -13.1719 L0.4219 -13.9688 L0.6719 -13.9688 Z" stroke="none"/></g><g text-rendering="optimizeLegibility" transform="translate(488.9229,51.3509) matrix(1,0,0,1.2579,0,0)" color-rendering="optimizeQuality" color-interpolation="linearRGB" image-rendering="optimizeQuality"><path d="M7.0781 4.2188 Q5.5625 4.2188 4.6797 3.8281 Q3.7969 3.4375 3.4141 2.6641 Q3.0312 1.8906 3.0312 0.5781 L3.0312 -2.25 Q3.0312 -3.1094 2.8125 -3.5938 Q2.5938 -4.0781 2.1562 -4.2734 Q1.7188 -4.4688 0.9219 -4.4688 L0.9219 -5.2812 Q1.7031 -5.2812 2.1484 -5.4766 Q2.5938 -5.6719 2.8125 -6.1484 Q3.0312 -6.625 3.0312 -7.5 L3.0312 -10.3281 Q3.0312 -11.625 3.4141 -12.4062 Q3.7969 -13.1875 4.6797 -13.5781 Q5.5625 -13.9688 7.0781 -13.9688 L7.3281 -13.9688 L7.3281 -13.1719 Q6.5469 -13.1719 6.1641 -13.0938 Q5.7812 -13.0156 5.5391 -12.8438 Q5.2969 -12.6719 5.1406 -12.4141 Q4.9844 -12.1562 4.8984 -11.6875 Q4.8125 -11.2188 4.8125 -10.4375 L4.8125 -8.5469 Q4.8125 -7.5625 4.6406 -6.8984 Q4.4688 -6.2344 4.0312 -5.7578 Q3.5938 -5.2812 2.8281 -4.9688 L2.8281 -4.7812 Q3.5781 -4.4844 4.0312 -3.9844 Q4.4844 -3.4844 4.6484 -2.8203 Q4.8125 -2.1562 4.8125 -1.2031 L4.8125 0.6875 Q4.8125 1.4688 4.8984 1.9375 Q4.9844 2.4062 5.1406 2.6719 Q5.2969 2.9375 5.5391 3.1016 Q5.7812 3.2656 6.1641 3.3438 Q6.5469 3.4219 7.3281 3.4219 L7.3281 4.2188 L7.0781 4.2188 Z" stroke="none"/></g><g text-rendering="optimizeLegibility" transform="translate(498.251,52.4387)" color-rendering="optimizeQuality" color-interpolation="linearRGB" image-rendering="optimizeQuality"><path d="M4.1562 -5.7969 L4.1562 -2.4688 Q4.1562 -1.7656 4.2109 -1.4531 Q4.2656 -1.1406 4.375 -0.9766 Q4.4844 -0.8125 4.6719 -0.7109 Q4.8594 -0.6094 5.2969 -0.4844 L5.2969 0 L1.1875 0 L1.1875 -0.4844 Q1.7812 -0.6406 1.9922 -0.8281 Q2.2031 -1.0156 2.2656 -1.3672 Q2.3281 -1.7188 2.3281 -2.4375 L2.3281 -10.8906 Q2.3281 -11.5625 2.2812 -11.8672 Q2.2344 -12.1719 2.1172 -12.3438 Q2 -12.5156 1.8125 -12.6172 Q1.625 -12.7188 1.1875 -12.8594 L1.1875 -13.3281 L6.0156 -13.3281 Q8.2969 -13.3281 9.4297 -12.5 Q10.5625 -11.6719 10.5625 -9.9219 Q10.5625 -8.5781 9.8281 -7.6406 Q9.0938 -6.7031 7.625 -6.1875 L7.625 -6.1094 Q8.2188 -5.8594 8.6406 -5.4062 Q9.0625 -4.9531 9.5781 -4 L10.4531 -2.3906 Q10.8438 -1.6875 11.1172 -1.3203 Q11.3906 -0.9531 11.6719 -0.7578 Q11.9531 -0.5625 12.4219 -0.4844 L12.4219 0 L9.7188 0 Q9.3438 -0.5156 9.0156 -1.1094 Q8.6875 -1.7031 8.3594 -2.3281 L7.5 -3.9531 Q7.1094 -4.7031 6.8594 -5.0547 Q6.6094 -5.4062 6.3984 -5.5469 Q6.1875 -5.6875 5.9531 -5.7422 Q5.7188 -5.7969 5.2344 -5.7969 L4.1562 -5.7969 ZM4.1562 -12.4375 L4.1562 -6.625 L5.2656 -6.625 Q6.1094 -6.625 6.6406 -6.75 Q7.1719 -6.875 7.6172 -7.2188 Q8.0625 -7.5625 8.3359 -8.1719 Q8.6094 -8.7812 8.6094 -9.6719 Q8.6094 -10.5938 8.2891 -11.2109 Q7.9688 -11.8281 7.3281 -12.1484 Q6.6875 -12.4688 5.5938 -12.4688 Q4.7031 -12.4688 4.1562 -12.4375 Z" stroke="none"/></g><g text-rendering="optimizeLegibility" transform="translate(512.251,51.3509) matrix(1,0,0,1.2579,0,0)" color-rendering="optimizeQuality" color-interpolation="linearRGB" image-rendering="optimizeQuality"><path d="M0.6719 -13.9688 Q2.1875 -13.9688 3.0703 -13.5781 Q3.9531 -13.1875 4.3281 -12.4062 Q4.7031 -11.625 4.7031 -10.3281 L4.7031 -7.5 Q4.7031 -6.625 4.9297 -6.1484 Q5.1562 -5.6719 5.5938 -5.4766 Q6.0312 -5.2812 6.8125 -5.2812 L6.8125 -4.4688 Q6.0312 -4.4688 5.5859 -4.2734 Q5.1406 -4.0781 4.9219 -3.5938 Q4.7031 -3.1094 4.7031 -2.25 L4.7031 0.5781 Q4.7031 1.8906 4.3281 2.6641 Q3.9531 3.4375 3.0703 3.8281 Q2.1875 4.2188 0.6719 4.2188 L0.4219 4.2188 L0.4219 3.4219 Q1.1875 3.4219 1.5781 3.3438 Q1.9688 3.2656 2.2031 3.1016 Q2.4375 2.9375 2.5938 2.6719 Q2.75 2.4062 2.8438 1.9375 Q2.9375 1.4688 2.9375 0.6875 L2.9375 -1.2031 Q2.9375 -2.1875 3.1016 -2.8438 Q3.2656 -3.5 3.7109 -3.9844 Q4.1562 -4.4688 4.9062 -4.7812 L4.9062 -4.9688 Q4.1719 -5.2656 3.7188 -5.7656 Q3.2656 -6.2656 3.1016 -6.9297 Q2.9375 -7.5938 2.9375 -8.5469 L2.9375 -10.4375 Q2.9375 -11.2188 2.8438 -11.6875 Q2.75 -12.1562 2.5938 -12.4141 Q2.4375 -12.6719 2.2031 -12.8438 Q1.9688 -13.0156 1.5781 -13.0938 Q1.1875 -13.1719 0.4219 -13.1719 L0.4219 -13.9688 L0.6719 -13.9688 Z" stroke="none"/></g><g text-rendering="optimizeLegibility" transform="translate(522.6417,41.2104) matrix(1,0,0,2.5498,0,0)" color-rendering="optimizeQuality" color-interpolation="linearRGB" image-rendering="optimizeQuality"><path d="M0.6719 -13.9688 Q2.1875 -13.9688 3.0703 -13.5781 Q3.9531 -13.1875 4.3281 -12.4062 Q4.7031 -11.625 4.7031 -10.3281 L4.7031 -7.5 Q4.7031 -6.625 4.9297 -6.1484 Q5.1562 -5.6719 5.5938 -5.4766 Q6.0312 -5.2812 6.8125 -5.2812 L6.8125 -4.4688 Q6.0312 -4.4688 5.5859 -4.2734 Q5.1406 -4.0781 4.9219 -3.5938 Q4.7031 -3.1094 4.7031 -2.25 L4.7031 0.5781 Q4.7031 1.8906 4.3281 2.6641 Q3.9531 3.4375 3.0703 3.8281 Q2.1875 4.2188 0.6719 4.2188 L0.4219 4.2188 L0.4219 3.4219 Q1.1875 3.4219 1.5781 3.3438 Q1.9688 3.2656 2.2031 3.1016 Q2.4375 2.9375 2.5938 2.6719 Q2.75 2.4062 2.8438 1.9375 Q2.9375 1.4688 2.9375 0.6875 L2.9375 -1.2031 Q2.9375 -2.1875 3.1016 -2.8438 Q3.2656 -3.5 3.7109 -3.9844 Q4.1562 -4.4688 4.9062 -4.7812 L4.9062 -4.9688 Q4.1719 -5.2656 3.7188 -5.7656 Q3.2656 -6.2656 3.1016 -6.9297 Q2.9375 -7.5938 2.9375 -8.5469 L2.9375 -10.4375 Q2.9375 -11.2188 2.8438 -11.6875 Q2.75 -12.1562 2.5938 -12.4141 Q2.4375 -12.6719 2.2031 -12.8438 Q1.9688 -13.0156 1.5781 -13.0938 Q1.1875 -13.1719 0.4219 -13.1719 L0.4219 -13.9688 L0.6719 -13.9688 Z" stroke="none"/></g></g></svg>