<?xml version="1.0" encoding="UTF-8" standalone="no"?><svg xmlns="http://www.w3.org/2000/svg" xmlns:xlink="http://www.w3.org/1999/xlink" stroke-dasharray="none" shape-rendering="auto" font-family="'Dialog'" width="595.812600" text-rendering="auto" fill-opacity="1" contentScriptType="text/ecmascript" color-interpolation="auto" color-rendering="auto" preserveAspectRatio="xMidYMid meet" font-size="12" fill="black" stroke="black" image-rendering="auto" stroke-miterlimit="10" zoomAndPan="magnify" version="1.0" stroke-linecap="square" stroke-linejoin="miter" contentStyleType="text/css" font-style="normal" height="41" stroke-width="1" stroke-dashoffset="0" font-weight="normal" stroke-opacity="1" y="-12.000000"><!--Converted from MathML using JEuclid--><defs id="genericDefs"/><g><g text-rendering="optimizeLegibility" transform="translate(-0.2344,29)" color-rendering="optimizeQuality" color-interpolation="linearRGB" image-rendering="optimizeQuality"><path d="M6.5781 4.2031 L2.2344 4.2031 L2.2344 -13.9688 L6.5781 -13.9688 L6.5781 -13.1719 L3.9531 -13.1719 L3.9531 3.4062 L6.5781 3.4062 L6.5781 4.2031 Z" stroke="none"/></g><g text-rendering="optimizeLegibility" transform="translate(8.3438,29)" color-rendering="optimizeQuality" color-interpolation="linearRGB" image-rendering="optimizeQuality"><path d="M4.1406 -7.3125 L4.4375 -7.3125 Q4.8125 -7.3125 5.1172 -7.4297 Q5.4219 -7.5469 5.8047 -7.8672 Q6.1875 -8.1875 6.9688 -9.0625 Q7.9062 -10.1094 8.25 -10.5781 Q8.6719 -11.1406 8.8125 -11.5156 Q8.9375 -11.7969 8.9375 -12.0625 Q8.9375 -12.4531 8.7109 -12.6328 Q8.4844 -12.8125 8.0938 -12.8594 L8.0938 -13.3281 L12.3594 -13.3281 L12.3594 -12.8594 Q12.0469 -12.7812 11.7422 -12.6094 Q11.4375 -12.4375 11.1172 -12.1406 Q10.7969 -11.8438 10.1875 -11.1562 L6.9062 -7.4688 L10.4531 -2.3125 Q11.0312 -1.4844 11.3516 -1.1562 Q11.6719 -0.8281 11.9609 -0.6797 Q12.25 -0.5312 12.5938 -0.4844 L12.5938 0 L8.2812 0 L8.2812 -0.4844 Q8.6406 -0.5156 8.8047 -0.6172 Q8.9688 -0.7188 8.9688 -0.9375 Q8.9688 -1.1094 8.8594 -1.3594 Q8.75 -1.6094 8.5 -1.9688 L6.2344 -5.3594 Q5.8281 -5.9531 5.6406 -6.1484 Q5.4531 -6.3438 5.2422 -6.4375 Q5.0312 -6.5312 4.6719 -6.5312 L4.1562 -6.5312 L4.1562 -2.4375 Q4.1562 -1.7812 4.1953 -1.4844 Q4.2344 -1.1875 4.3359 -1.0078 Q4.4375 -0.8281 4.6406 -0.7109 Q4.8438 -0.5938 5.2969 -0.4844 L5.2969 0 L1.1875 0 L1.1875 -0.4844 Q1.7812 -0.6406 1.9922 -0.8281 Q2.2031 -1.0156 2.2656 -1.3672 Q2.3281 -1.7188 2.3281 -2.4375 L2.3281 -10.8906 Q2.3281 -11.5625 2.2812 -11.8672 Q2.2344 -12.1719 2.1172 -12.3438 Q2 -12.5156 1.8125 -12.6172 Q1.625 -12.7188 1.1875 -12.8594 L1.1875 -13.3281 L5.2969 -13.3281 L5.2969 -12.8594 Q4.8594 -12.75 4.6719 -12.6406 Q4.4844 -12.5312 4.375 -12.3672 Q4.2656 -12.2031 4.2109 -11.8828 Q4.1562 -11.5625 4.1562 -10.8906 L4.1406 -7.3125 Z" stroke="none"/></g><g text-rendering="optimizeLegibility" transform="translate(20.9375,20.3359)" color-rendering="optimizeQuality" color-interpolation="linearRGB" image-rendering="optimizeQuality"><path d="M2.9062 -0.625 L4.7031 -0.625 Q4.9844 -0.625 5.1875 -0.6641 Q5.3906 -0.7031 5.5312 -0.7734 Q5.6719 -0.8438 5.7812 -0.9688 Q5.8906 -1.0938 5.9922 -1.2969 Q6.0938 -1.5 6.1875 -1.8125 Q6.2812 -2.125 6.4219 -2.75 L7.1094 -2.75 L6.9688 0 L0.8281 0 L0.8281 -0.3281 Q1.25 -0.4375 1.3906 -0.5781 Q1.5312 -0.7188 1.5781 -0.9609 Q1.625 -1.2031 1.625 -1.7031 L1.625 -7.625 Q1.625 -8.0938 1.5938 -8.3125 Q1.5625 -8.5312 1.4844 -8.6484 Q1.4062 -8.7656 1.2734 -8.8359 Q1.1406 -8.9062 0.8281 -9 L0.8281 -9.3281 L3.7031 -9.3281 L3.7031 -9 Q3.4062 -8.9219 3.2812 -8.8516 Q3.1562 -8.7812 3.0703 -8.6719 Q2.9844 -8.5625 2.9453 -8.3359 Q2.9062 -8.1094 2.9062 -7.625 L2.9062 -0.625 Z" stroke="none"/></g><g text-rendering="optimizeLegibility" transform="translate(29.625,29)" color-rendering="optimizeQuality" color-interpolation="linearRGB" image-rendering="optimizeQuality"><path d="M4.7812 4.2031 L0.4219 4.2031 L0.4219 3.4062 L3.0625 3.4062 L3.0625 -13.1719 L0.4219 -13.1719 L0.4219 -13.9688 L4.7812 -13.9688 L4.7812 4.2031 Z" stroke="none"/></g><g text-rendering="optimizeLegibility" transform="translate(37.1875,29)" color-rendering="optimizeQuality" color-interpolation="linearRGB" image-rendering="optimizeQuality"><path d="M1.2188 -7.0625 L1.2188 -8.4219 L9.8594 -8.4219 L9.8594 -7.0625 L1.2188 -7.0625 ZM1.2188 -3.0156 L1.2188 -4.3594 L9.8594 -4.3594 L9.8594 -3.0156 L1.2188 -3.0156 Z" stroke="none"/></g><g text-rendering="optimizeLegibility" transform="translate(49.9219,29)" color-rendering="optimizeQuality" color-interpolation="linearRGB" image-rendering="optimizeQuality"><path d="M8.7812 -5.8281 Q8.7812 -3.7656 8.6797 -2.0312 Q8.5781 -0.2969 8.3047 1.1641 Q8.0312 2.625 7.5938 3.6719 Q7.1562 4.7188 6.5625 5.3984 Q5.9688 6.0781 5.2031 6.4297 Q4.4375 6.7812 3.4375 6.7812 Q2.2188 6.7812 1.125 6.3125 L1.125 3.0625 L3 3.0625 Q3.2969 3.7656 3.6094 4.0938 Q3.9219 4.4219 4.4844 4.4219 Q5.2188 4.4219 5.5859 3.7891 Q5.9531 3.1562 5.9531 1.9062 Q5.9531 0.4688 5.8672 -1.1562 Q5.7812 -2.7812 5.6094 -5.4844 Q5.25 -10.5938 5.25 -14.4375 L5.25 -16.3281 Q5.25 -18.3906 5.3594 -20.125 Q5.4688 -21.8594 5.7422 -23.3203 Q6.0156 -24.7812 6.4453 -25.8281 Q6.875 -26.875 7.4766 -27.5547 Q8.0781 -28.2344 8.8438 -28.5859 Q9.6094 -28.9375 10.6094 -28.9375 Q11.8125 -28.9375 12.9062 -28.4688 L12.9062 -25.2188 L11.0312 -25.2188 Q10.7188 -25.9688 10.3984 -26.2734 Q10.0781 -26.5781 9.5781 -26.5781 Q8.7812 -26.5781 8.4375 -25.9453 Q8.0938 -25.3125 8.0938 -24.0625 Q8.0938 -22.625 8.1719 -21 Q8.25 -19.375 8.4375 -16.6719 Q8.7812 -11.5625 8.7812 -7.7188 L8.7812 -5.8281 Z" stroke="none"/></g><g text-rendering="optimizeLegibility" transform="translate(62.8281,40.6172)" color-rendering="optimizeQuality" color-interpolation="linearRGB" image-rendering="optimizeQuality"><path d="M2.9219 -6.5312 L2.9219 -6.2031 Q2.6094 -6.125 2.4766 -6.0547 Q2.3438 -5.9844 2.2812 -5.875 Q2.2188 -5.7656 2.2188 -5.5781 Q2.2188 -5.4062 2.2578 -5.2031 Q2.2969 -5 2.4062 -4.7344 L3.5938 -1.2656 L4.9844 -4.5938 Q5.125 -4.9219 5.1797 -5.1328 Q5.2344 -5.3438 5.2344 -5.5312 Q5.2344 -5.8125 5.0781 -5.9609 Q4.9219 -6.1094 4.5156 -6.2031 L4.5156 -6.5312 L7.0625 -6.5312 L7.0625 -6.2031 Q6.7969 -6.1406 6.6562 -6.0312 Q6.5156 -5.9219 6.375 -5.6797 Q6.2344 -5.4375 6.0312 -5 L3.7188 0.0625 L2.9219 0.0625 L1.0625 -5.0312 Q0.875 -5.5625 0.7656 -5.7578 Q0.6562 -5.9531 0.5234 -6.0469 Q0.3906 -6.1406 0.125 -6.2031 L0.125 -6.5312 L2.9219 -6.5312 ZM10.6406 0.1094 Q9.2188 0.1094 8.4688 -0.7266 Q7.7188 -1.5625 7.7188 -3.2031 Q7.7188 -4.3281 8.1094 -5.1094 Q8.5 -5.8906 9.1875 -6.2734 Q9.875 -6.6562 10.75 -6.6562 Q12.2031 -6.6562 12.9609 -5.8047 Q13.7188 -4.9531 13.7188 -3.3594 Q13.7188 -2.2188 13.3438 -1.4375 Q12.9688 -0.6562 12.2734 -0.2734 Q11.5781 0.1094 10.6406 0.1094 ZM9.0156 -3.3438 Q9.0156 -1.9375 9.4609 -1.1875 Q9.9062 -0.4375 10.7344 -0.4375 Q11.2031 -0.4375 11.5234 -0.6562 Q11.8438 -0.875 12.0469 -1.25 Q12.25 -1.625 12.3359 -2.125 Q12.4219 -2.625 12.4219 -3.1562 Q12.4219 -4.1562 12.2031 -4.8203 Q11.9844 -5.4844 11.6016 -5.7969 Q11.2188 -6.1094 10.7188 -6.1094 Q9.8906 -6.1094 9.4531 -5.3906 Q9.0156 -4.6719 9.0156 -3.3438 ZM16.4844 -1.7031 Q16.4844 -1.125 16.5391 -0.8906 Q16.5938 -0.6562 16.75 -0.5391 Q16.9062 -0.4219 17.25 -0.3281 L17.25 0 L14.5469 0 L14.5469 -0.3281 Q14.875 -0.4219 15.0156 -0.5156 Q15.1562 -0.6094 15.2109 -0.7422 Q15.2656 -0.875 15.2891 -1.1094 Q15.3125 -1.3438 15.3125 -1.7031 L15.3125 -7.4375 Q15.3125 -8.0938 15.3047 -8.3516 Q15.2969 -8.6094 15.25 -8.7891 Q15.2031 -8.9688 15.125 -9.0703 Q15.0469 -9.1719 14.9141 -9.2344 Q14.7812 -9.2969 14.4375 -9.3594 L14.4375 -9.7188 L16.0781 -9.7812 L16.4844 -9.7812 L16.4844 -1.7031 Z" stroke="none"/></g><g text-rendering="optimizeLegibility" transform="translate(80.3125,30.3754) matrix(1,0,0,1.7603,0,0)" color-rendering="optimizeQuality" color-interpolation="linearRGB" image-rendering="optimizeQuality"><path d="M7.2188 4.25 Q5.5625 4.25 4.5078 3.75 Q3.4531 3.25 2.8672 2.2344 Q2.2812 1.2188 2.0234 -0.4141 Q1.7656 -2.0469 1.7656 -4.8438 Q1.7656 -7.625 2.0234 -9.2656 Q2.2812 -10.9062 2.8672 -11.9453 Q3.4531 -12.9844 4.5078 -13.5 Q5.5625 -14.0156 7.2188 -14.0156 L7.2188 -13.2188 Q6.5312 -13.2188 6 -13.0938 Q5.4062 -12.9531 4.9844 -12.5625 Q4.5156 -12.1406 4.2344 -11.375 Q3.8906 -10.4688 3.7188 -8.9844 Q3.5469 -7.4062 3.5469 -4.9219 Q3.5469 -2.7188 3.6953 -1.1797 Q3.8438 0.3594 4.1875 1.3281 Q4.4531 2.1562 4.8594 2.6094 Q5.2188 3.0156 5.7188 3.2188 Q6.2969 3.4531 7.2188 3.4531 L7.2188 4.25 Z" stroke="none"/></g><g text-rendering="optimizeLegibility" transform="translate(89.7656,27.9124) matrix(1,0,0,1.2559,0,0)" color-rendering="optimizeQuality" color-interpolation="linearRGB" image-rendering="optimizeQuality"><path d="M7.2188 4.25 Q5.5625 4.25 4.5078 3.75 Q3.4531 3.25 2.8672 2.2344 Q2.2812 1.2188 2.0234 -0.4141 Q1.7656 -2.0469 1.7656 -4.8438 Q1.7656 -7.625 2.0234 -9.2656 Q2.2812 -10.9062 2.8672 -11.9453 Q3.4531 -12.9844 4.5078 -13.5 Q5.5625 -14.0156 7.2188 -14.0156 L7.2188 -13.2188 Q6.5312 -13.2188 6 -13.0938 Q5.4062 -12.9531 4.9844 -12.5625 Q4.5156 -12.1406 4.2344 -11.375 Q3.8906 -10.4688 3.7188 -8.9844 Q3.5469 -7.4062 3.5469 -4.9219 Q3.5469 -2.7188 3.6953 -1.1797 Q3.8438 0.3594 4.1875 1.3281 Q4.4531 2.1562 4.8594 2.6094 Q5.2188 3.0156 5.7188 3.2188 Q6.2969 3.4531 7.2188 3.4531 L7.2188 4.25 Z" stroke="none"/></g><g text-rendering="optimizeLegibility" transform="translate(99.2188,27.9124) matrix(1,0,0,1.2559,0,0)" color-rendering="optimizeQuality" color-interpolation="linearRGB" image-rendering="optimizeQuality"><path d="M7.2188 4.25 Q5.5625 4.25 4.5078 3.75 Q3.4531 3.25 2.8672 2.2344 Q2.2812 1.2188 2.0234 -0.4141 Q1.7656 -2.0469 1.7656 -4.8438 Q1.7656 -7.625 2.0234 -9.2656 Q2.2812 -10.9062 2.8672 -11.9453 Q3.4531 -12.9844 4.5078 -13.5 Q5.5625 -14.0156 7.2188 -14.0156 L7.2188 -13.2188 Q6.5312 -13.2188 6 -13.0938 Q5.4062 -12.9531 4.9844 -12.5625 Q4.5156 -12.1406 4.2344 -11.375 Q3.8906 -10.4688 3.7188 -8.9844 Q3.5469 -7.4062 3.5469 -4.9219 Q3.5469 -2.7188 3.6953 -1.1797 Q3.8438 0.3594 4.1875 1.3281 Q4.4531 2.1562 4.8594 2.6094 Q5.2188 3.0156 5.7188 3.2188 Q6.2969 3.4531 7.2188 3.4531 L7.2188 4.25 Z" stroke="none"/></g><g text-rendering="optimizeLegibility" transform="translate(108.2656,29)" color-rendering="optimizeQuality" color-interpolation="linearRGB" image-rendering="optimizeQuality"><path d="M15.6719 -14.4531 L15.6719 -13.1406 L9.0312 0.125 L8.375 0.125 L2.1719 -13.1406 L2.1719 -14.4531 L15.6719 -14.4531 ZM14.875 -13.0625 L4.0469 -13.0625 L9.2656 -1.9219 L9.2812 -1.9219 L14.875 -13.0625 Z" stroke="none"/></g><g text-rendering="optimizeLegibility" transform="translate(126.2969,29)" color-rendering="optimizeQuality" color-interpolation="linearRGB" image-rendering="optimizeQuality"><path d="M6.5 -5.7188 L9.4375 -2.7969 L8.4531 -1.8125 L5.5312 -4.7656 L2.625 -1.8125 L1.6406 -2.7969 L4.5781 -5.7188 L1.6406 -8.625 L2.625 -9.6094 L5.5312 -6.6719 L8.4531 -9.6094 L9.4375 -8.6406 L6.5 -5.7188 Z" stroke="none"/></g><g text-rendering="optimizeLegibility" transform="translate(137.5,27.9188) matrix(1,0,0,1.2572,0,0)" color-rendering="optimizeQuality" color-interpolation="linearRGB" image-rendering="optimizeQuality"><path d="M6.5781 4.2031 L2.2344 4.2031 L2.2344 -13.9688 L6.5781 -13.9688 L6.5781 -13.1719 L3.9531 -13.1719 L3.9531 3.4062 L6.5781 3.4062 L6.5781 4.2031 Z" stroke="none"/></g><g text-rendering="optimizeLegibility" transform="translate(146.0781,29)" color-rendering="optimizeQuality" color-interpolation="linearRGB" image-rendering="optimizeQuality"><path d="M9.1875 -10.8438 L6.0625 0.0625 L4.4844 0.0625 L1.6406 -10.5312 Q1.4688 -11.2031 1.3203 -11.625 Q1.1719 -12.0469 1.0234 -12.2812 Q0.875 -12.5156 0.7031 -12.6406 Q0.5312 -12.7656 0.2188 -12.8594 L0.2188 -13.3281 L4.3906 -13.3281 L4.3906 -12.8594 Q3.7969 -12.7344 3.5547 -12.5 Q3.3125 -12.2656 3.3125 -11.8438 Q3.3125 -11.5 3.3984 -11.0312 Q3.4844 -10.5625 3.6406 -9.9688 L5.6094 -2.25 L8.75 -13.3281 L10.3906 -13.3281 L12.9375 -2.25 L15.25 -9.7031 Q15.6719 -11.0625 15.6719 -11.625 Q15.6719 -12.2344 15.4219 -12.4922 Q15.1719 -12.75 14.5938 -12.8594 L14.5938 -13.3281 L18.4375 -13.3281 L18.4375 -12.8594 Q18.1406 -12.75 17.9688 -12.6328 Q17.7969 -12.5156 17.6328 -12.3047 Q17.4688 -12.0938 17.2812 -11.6562 Q17.0938 -11.2188 16.8438 -10.4688 L13.2812 0.0625 L11.8906 0.0625 L9.1875 -10.8438 Z" stroke="none"/></g><g text-rendering="optimizeLegibility" transform="translate(166.0938,27.9188) matrix(1,0,0,1.2572,0,0)" color-rendering="optimizeQuality" color-interpolation="linearRGB" image-rendering="optimizeQuality"><path d="M4.7812 4.2031 L0.4219 4.2031 L0.4219 3.4062 L3.0625 3.4062 L3.0625 -13.1719 L0.4219 -13.1719 L0.4219 -13.9688 L4.7812 -13.9688 L4.7812 4.2031 Z" stroke="none"/></g><g text-rendering="optimizeLegibility" transform="translate(172.875,15.0209)" color-rendering="optimizeQuality" color-interpolation="linearRGB" image-rendering="optimizeQuality"><path d="M0.4531 -9.3281 L7.8438 -9.3281 L7.8438 -6.9531 L7.1719 -6.9531 Q7.0312 -7.5469 6.8828 -7.8828 Q6.7344 -8.2188 6.5703 -8.3984 Q6.4062 -8.5781 6.2188 -8.6562 Q6.0312 -8.7344 5.6562 -8.7344 L4.7812 -8.7344 L4.7812 -1.7344 Q4.7812 -1.3281 4.8281 -1.0859 Q4.875 -0.8438 4.9688 -0.7031 Q5.0625 -0.5625 5.2188 -0.4844 Q5.375 -0.4062 5.7031 -0.3281 L5.7031 0 L2.5781 0 L2.5781 -0.3281 Q2.7969 -0.3906 2.9531 -0.4453 Q3.1094 -0.5 3.2031 -0.5781 Q3.2969 -0.6562 3.3672 -0.7734 Q3.4375 -0.8906 3.4688 -1.1016 Q3.5 -1.3125 3.5 -1.7344 L3.5 -8.7344 L2.6406 -8.7344 Q2.3281 -8.7344 2.1172 -8.6719 Q1.9062 -8.6094 1.7266 -8.4141 Q1.5469 -8.2188 1.4062 -7.8594 Q1.2656 -7.5 1.125 -6.9531 L0.4531 -6.9531 L0.4531 -9.3281 Z" stroke="none"/></g><g text-rendering="optimizeLegibility" transform="translate(182.2969,27.9124) matrix(1,0,0,1.2559,0,0)" color-rendering="optimizeQuality" color-interpolation="linearRGB" image-rendering="optimizeQuality"><path d="M0.4219 -14.0156 Q2.0781 -14.0156 3.1328 -13.5156 Q4.1875 -13.0156 4.7734 -12 Q5.3594 -10.9844 5.6172 -9.3516 Q5.875 -7.7188 5.875 -4.9219 Q5.875 -2.1562 5.6172 -0.5078 Q5.3594 1.1406 4.7734 2.1797 Q4.1875 3.2188 3.1328 3.7344 Q2.0781 4.25 0.4219 4.25 L0.4219 3.4531 Q1.1094 3.4531 1.625 3.3281 Q2.2344 3.1875 2.6406 2.7969 Q3.1094 2.375 3.4062 1.6094 Q3.75 0.7031 3.9219 -0.7812 Q4.0938 -2.3594 4.0938 -4.8438 Q4.0938 -7.0469 3.9453 -8.5859 Q3.7969 -10.125 3.4531 -11.0938 Q3.1875 -11.9219 2.7812 -12.375 Q2.4062 -12.7812 1.9219 -12.9844 Q1.3438 -13.2188 0.4219 -13.2188 L0.4219 -14.0156 Z" stroke="none"/></g><g text-rendering="optimizeLegibility" transform="translate(191.75,27.9124) matrix(1,0,0,1.2559,0,0)" color-rendering="optimizeQuality" color-interpolation="linearRGB" image-rendering="optimizeQuality"><path d="M0.4219 -14.0156 Q2.0781 -14.0156 3.1328 -13.5156 Q4.1875 -13.0156 4.7734 -12 Q5.3594 -10.9844 5.6172 -9.3516 Q5.875 -7.7188 5.875 -4.9219 Q5.875 -2.1562 5.6172 -0.5078 Q5.3594 1.1406 4.7734 2.1797 Q4.1875 3.2188 3.1328 3.7344 Q2.0781 4.25 0.4219 4.25 L0.4219 3.4531 Q1.1094 3.4531 1.625 3.3281 Q2.2344 3.1875 2.6406 2.7969 Q3.1094 2.375 3.4062 1.6094 Q3.75 0.7031 3.9219 -0.7812 Q4.0938 -2.3594 4.0938 -4.8438 Q4.0938 -7.0469 3.9453 -8.5859 Q3.7969 -10.125 3.4531 -11.0938 Q3.1875 -11.9219 2.7812 -12.375 Q2.4062 -12.7812 1.9219 -12.9844 Q1.3438 -13.2188 0.4219 -13.2188 L0.4219 -14.0156 Z" stroke="none"/></g><g text-rendering="optimizeLegibility" transform="translate(199.625,10.3569)" color-rendering="optimizeQuality" color-interpolation="linearRGB" image-rendering="optimizeQuality"><path d="M0.4531 -9.3281 L7.8438 -9.3281 L7.8438 -6.9531 L7.1719 -6.9531 Q7.0312 -7.5469 6.8828 -7.8828 Q6.7344 -8.2188 6.5703 -8.3984 Q6.4062 -8.5781 6.2188 -8.6562 Q6.0312 -8.7344 5.6562 -8.7344 L4.7812 -8.7344 L4.7812 -1.7344 Q4.7812 -1.3281 4.8281 -1.0859 Q4.875 -0.8438 4.9688 -0.7031 Q5.0625 -0.5625 5.2188 -0.4844 Q5.375 -0.4062 5.7031 -0.3281 L5.7031 0 L2.5781 0 L2.5781 -0.3281 Q2.7969 -0.3906 2.9531 -0.4453 Q3.1094 -0.5 3.2031 -0.5781 Q3.2969 -0.6562 3.3672 -0.7734 Q3.4375 -0.8906 3.4688 -1.1016 Q3.5 -1.3125 3.5 -1.7344 L3.5 -8.7344 L2.6406 -8.7344 Q2.3281 -8.7344 2.1172 -8.6719 Q1.9062 -8.6094 1.7266 -8.4141 Q1.5469 -8.2188 1.4062 -7.8594 Q1.2656 -7.5 1.125 -6.9531 L0.4531 -6.9531 L0.4531 -9.3281 Z" stroke="none"/></g><g text-rendering="optimizeLegibility" transform="translate(207.2344,27.9188) matrix(1,0,0,1.2572,0,0)" color-rendering="optimizeQuality" color-interpolation="linearRGB" image-rendering="optimizeQuality"><path d="M6.5781 4.2031 L2.2344 4.2031 L2.2344 -13.9688 L6.5781 -13.9688 L6.5781 -13.1719 L3.9531 -13.1719 L3.9531 3.4062 L6.5781 3.4062 L6.5781 4.2031 Z" stroke="none"/></g><g text-rendering="optimizeLegibility" transform="translate(215.8125,29)" color-rendering="optimizeQuality" color-interpolation="linearRGB" image-rendering="optimizeQuality"><path d="M9.4844 -9.3438 Q9.4688 -7.7812 8.5547 -5.8281 Q7.6406 -3.875 4.125 0.0781 L2.875 0.0781 Q2.8281 -1.3906 2.5469 -4.2969 Q2.2656 -7.2031 2.1406 -7.6719 Q2.0156 -8.1406 1.8203 -8.2891 Q1.625 -8.4375 1.3906 -8.4375 Q1.2812 -8.4375 0.7812 -8.1094 Q0.6719 -8.0312 0.5938 -7.9844 L0.3594 -8.5312 Q1.3594 -9.5 2.4688 -9.5 Q3.0469 -9.5 3.4453 -8.8984 Q3.8438 -8.2969 4.0625 -6.0391 Q4.2812 -3.7812 4.2812 -1.9219 L4.2812 -1.625 Q4.2812 -1.4844 4.2812 -1.3594 Q7.625 -5.125 7.625 -8 L7.625 -8.3438 Q7.625 -8.4844 7.5625 -8.8438 L7.6719 -9.3438 L9.4844 -9.3438 Z" stroke="none"/></g><g text-rendering="optimizeLegibility" transform="translate(226.875,27.9188) matrix(1,0,0,1.2572,0,0)" color-rendering="optimizeQuality" color-interpolation="linearRGB" image-rendering="optimizeQuality"><path d="M4.7812 4.2031 L0.4219 4.2031 L0.4219 3.4062 L3.0625 3.4062 L3.0625 -13.1719 L0.4219 -13.1719 L0.4219 -13.9688 L4.7812 -13.9688 L4.7812 4.2031 Z" stroke="none"/></g><g text-rendering="optimizeLegibility" transform="translate(233.8906,27.9124) matrix(1,0,0,1.2559,0,0)" color-rendering="optimizeQuality" color-interpolation="linearRGB" image-rendering="optimizeQuality"><path d="M7.2188 4.25 Q5.5625 4.25 4.5078 3.75 Q3.4531 3.25 2.8672 2.2344 Q2.2812 1.2188 2.0234 -0.4141 Q1.7656 -2.0469 1.7656 -4.8438 Q1.7656 -7.625 2.0234 -9.2656 Q2.2812 -10.9062 2.8672 -11.9453 Q3.4531 -12.9844 4.5078 -13.5 Q5.5625 -14.0156 7.2188 -14.0156 L7.2188 -13.2188 Q6.5312 -13.2188 6 -13.0938 Q5.4062 -12.9531 4.9844 -12.5625 Q4.5156 -12.1406 4.2344 -11.375 Q3.8906 -10.4688 3.7188 -8.9844 Q3.5469 -7.4062 3.5469 -4.9219 Q3.5469 -2.7188 3.6953 -1.1797 Q3.8438 0.3594 4.1875 1.3281 Q4.4531 2.1562 4.8594 2.6094 Q5.2188 3.0156 5.7188 3.2188 Q6.2969 3.4531 7.2188 3.4531 L7.2188 4.25 Z" stroke="none"/></g><g text-rendering="optimizeLegibility" transform="translate(242.9375,29)" color-rendering="optimizeQuality" color-interpolation="linearRGB" image-rendering="optimizeQuality"><path d="M15.6719 -14.4531 L15.6719 -13.1406 L9.0312 0.125 L8.375 0.125 L2.1719 -13.1406 L2.1719 -14.4531 L15.6719 -14.4531 ZM14.875 -13.0625 L4.0469 -13.0625 L9.2656 -1.9219 L9.2812 -1.9219 L14.875 -13.0625 Z" stroke="none"/></g><g text-rendering="optimizeLegibility" transform="translate(260.9688,29)" color-rendering="optimizeQuality" color-interpolation="linearRGB" image-rendering="optimizeQuality"><path d="M6.5 -5.7188 L9.4375 -2.7969 L8.4531 -1.8125 L5.5312 -4.7656 L2.625 -1.8125 L1.6406 -2.7969 L4.5781 -5.7188 L1.6406 -8.625 L2.625 -9.6094 L5.5312 -6.6719 L8.4531 -9.6094 L9.4375 -8.6406 L6.5 -5.7188 Z" stroke="none"/></g><g text-rendering="optimizeLegibility" transform="translate(272.1719,27.9188) matrix(1,0,0,1.2572,0,0)" color-rendering="optimizeQuality" color-interpolation="linearRGB" image-rendering="optimizeQuality"><path d="M6.5781 4.2031 L2.2344 4.2031 L2.2344 -13.9688 L6.5781 -13.9688 L6.5781 -13.1719 L3.9531 -13.1719 L3.9531 3.4062 L6.5781 3.4062 L6.5781 4.2031 Z" stroke="none"/></g><g text-rendering="optimizeLegibility" transform="translate(280.75,29)" color-rendering="optimizeQuality" color-interpolation="linearRGB" image-rendering="optimizeQuality"><path d="M9.1875 -10.8438 L6.0625 0.0625 L4.4844 0.0625 L1.6406 -10.5312 Q1.4688 -11.2031 1.3203 -11.625 Q1.1719 -12.0469 1.0234 -12.2812 Q0.875 -12.5156 0.7031 -12.6406 Q0.5312 -12.7656 0.2188 -12.8594 L0.2188 -13.3281 L4.3906 -13.3281 L4.3906 -12.8594 Q3.7969 -12.7344 3.5547 -12.5 Q3.3125 -12.2656 3.3125 -11.8438 Q3.3125 -11.5 3.3984 -11.0312 Q3.4844 -10.5625 3.6406 -9.9688 L5.6094 -2.25 L8.75 -13.3281 L10.3906 -13.3281 L12.9375 -2.25 L15.25 -9.7031 Q15.6719 -11.0625 15.6719 -11.625 Q15.6719 -12.2344 15.4219 -12.4922 Q15.1719 -12.75 14.5938 -12.8594 L14.5938 -13.3281 L18.4375 -13.3281 L18.4375 -12.8594 Q18.1406 -12.75 17.9688 -12.6328 Q17.7969 -12.5156 17.6328 -12.3047 Q17.4688 -12.0938 17.2812 -11.6562 Q17.0938 -11.2188 16.8438 -10.4688 L13.2812 0.0625 L11.8906 0.0625 L9.1875 -10.8438 Z" stroke="none"/></g><g text-rendering="optimizeLegibility" transform="translate(300.7656,27.9188) matrix(1,0,0,1.2572,0,0)" color-rendering="optimizeQuality" color-interpolation="linearRGB" image-rendering="optimizeQuality"><path d="M4.7812 4.2031 L0.4219 4.2031 L0.4219 3.4062 L3.0625 3.4062 L3.0625 -13.1719 L0.4219 -13.1719 L0.4219 -13.9688 L4.7812 -13.9688 L4.7812 4.2031 Z" stroke="none"/></g><g text-rendering="optimizeLegibility" transform="translate(307.5469,15.0209)" color-rendering="optimizeQuality" color-interpolation="linearRGB" image-rendering="optimizeQuality"><path d="M0.4531 -9.3281 L7.8438 -9.3281 L7.8438 -6.9531 L7.1719 -6.9531 Q7.0312 -7.5469 6.8828 -7.8828 Q6.7344 -8.2188 6.5703 -8.3984 Q6.4062 -8.5781 6.2188 -8.6562 Q6.0312 -8.7344 5.6562 -8.7344 L4.7812 -8.7344 L4.7812 -1.7344 Q4.7812 -1.3281 4.8281 -1.0859 Q4.875 -0.8438 4.9688 -0.7031 Q5.0625 -0.5625 5.2188 -0.4844 Q5.375 -0.4062 5.7031 -0.3281 L5.7031 0 L2.5781 0 L2.5781 -0.3281 Q2.7969 -0.3906 2.9531 -0.4453 Q3.1094 -0.5 3.2031 -0.5781 Q3.2969 -0.6562 3.3672 -0.7734 Q3.4375 -0.8906 3.4688 -1.1016 Q3.5 -1.3125 3.5 -1.7344 L3.5 -8.7344 L2.6406 -8.7344 Q2.3281 -8.7344 2.1172 -8.6719 Q1.9062 -8.6094 1.7266 -8.4141 Q1.5469 -8.2188 1.4062 -7.8594 Q1.2656 -7.5 1.125 -6.9531 L0.4531 -6.9531 L0.4531 -9.3281 Z" stroke="none"/></g><g text-rendering="optimizeLegibility" transform="translate(316.9688,27.9124) matrix(1,0,0,1.2559,0,0)" color-rendering="optimizeQuality" color-interpolation="linearRGB" image-rendering="optimizeQuality"><path d="M0.4219 -14.0156 Q2.0781 -14.0156 3.1328 -13.5156 Q4.1875 -13.0156 4.7734 -12 Q5.3594 -10.9844 5.6172 -9.3516 Q5.875 -7.7188 5.875 -4.9219 Q5.875 -2.1562 5.6172 -0.5078 Q5.3594 1.1406 4.7734 2.1797 Q4.1875 3.2188 3.1328 3.7344 Q2.0781 4.25 0.4219 4.25 L0.4219 3.4531 Q1.1094 3.4531 1.625 3.3281 Q2.2344 3.1875 2.6406 2.7969 Q3.1094 2.375 3.4062 1.6094 Q3.75 0.7031 3.9219 -0.7812 Q4.0938 -2.3594 4.0938 -4.8438 Q4.0938 -7.0469 3.9453 -8.5859 Q3.7969 -10.125 3.4531 -11.0938 Q3.1875 -11.9219 2.7812 -12.375 Q2.4062 -12.7812 1.9219 -12.9844 Q1.3438 -13.2188 0.4219 -13.2188 L0.4219 -14.0156 Z" stroke="none"/></g><g text-rendering="optimizeLegibility" transform="translate(325.6094,29)" color-rendering="optimizeQuality" color-interpolation="linearRGB" image-rendering="optimizeQuality"><path d="M1.2344 -5.0469 L1.2344 -6.3906 L9.8281 -6.3906 L9.8281 -5.0469 L1.2344 -5.0469 Z" stroke="none"/></g><g text-rendering="optimizeLegibility" transform="translate(337.2031,27.9188) matrix(1,0,0,1.2572,0,0)" color-rendering="optimizeQuality" color-interpolation="linearRGB" image-rendering="optimizeQuality"><path d="M6.5781 4.2031 L2.2344 4.2031 L2.2344 -13.9688 L6.5781 -13.9688 L6.5781 -13.1719 L3.9531 -13.1719 L3.9531 3.4062 L6.5781 3.4062 L6.5781 4.2031 Z" stroke="none"/></g><g text-rendering="optimizeLegibility" transform="translate(345.7812,29)" color-rendering="optimizeQuality" color-interpolation="linearRGB" image-rendering="optimizeQuality"><path d="M9.1875 -10.8438 L6.0625 0.0625 L4.4844 0.0625 L1.6406 -10.5312 Q1.4688 -11.2031 1.3203 -11.625 Q1.1719 -12.0469 1.0234 -12.2812 Q0.875 -12.5156 0.7031 -12.6406 Q0.5312 -12.7656 0.2188 -12.8594 L0.2188 -13.3281 L4.3906 -13.3281 L4.3906 -12.8594 Q3.7969 -12.7344 3.5547 -12.5 Q3.3125 -12.2656 3.3125 -11.8438 Q3.3125 -11.5 3.3984 -11.0312 Q3.4844 -10.5625 3.6406 -9.9688 L5.6094 -2.25 L8.75 -13.3281 L10.3906 -13.3281 L12.9375 -2.25 L15.25 -9.7031 Q15.6719 -11.0625 15.6719 -11.625 Q15.6719 -12.2344 15.4219 -12.4922 Q15.1719 -12.75 14.5938 -12.8594 L14.5938 -13.3281 L18.4375 -13.3281 L18.4375 -12.8594 Q18.1406 -12.75 17.9688 -12.6328 Q17.7969 -12.5156 17.6328 -12.3047 Q17.4688 -12.0938 17.2812 -11.6562 Q17.0938 -11.2188 16.8438 -10.4688 L13.2812 0.0625 L11.8906 0.0625 L9.1875 -10.8438 Z" stroke="none"/></g><g text-rendering="optimizeLegibility" transform="translate(365.7969,27.9188) matrix(1,0,0,1.2572,0,0)" color-rendering="optimizeQuality" color-interpolation="linearRGB" image-rendering="optimizeQuality"><path d="M4.7812 4.2031 L0.4219 4.2031 L0.4219 3.4062 L3.0625 3.4062 L3.0625 -13.1719 L0.4219 -13.1719 L0.4219 -13.9688 L4.7812 -13.9688 L4.7812 4.2031 Z" stroke="none"/></g><g text-rendering="optimizeLegibility" transform="translate(372.3438,27.9188) matrix(1,0,0,1.2572,0,0)" color-rendering="optimizeQuality" color-interpolation="linearRGB" image-rendering="optimizeQuality"><path d="M6.5781 4.2031 L2.2344 4.2031 L2.2344 -13.9688 L6.5781 -13.9688 L6.5781 -13.1719 L3.9531 -13.1719 L3.9531 3.4062 L6.5781 3.4062 L6.5781 4.2031 Z" stroke="none"/></g><g text-rendering="optimizeLegibility" transform="translate(380.9219,29)" color-rendering="optimizeQuality" color-interpolation="linearRGB" image-rendering="optimizeQuality"><path d="M10.7812 -8.0156 L7.9062 -8.0156 L7.875 -7.9375 Q9.2188 -6.9844 9.2188 -5.1875 Q9.2188 -3.1719 7.8438 -1.5078 Q6.4688 0.1562 4.0625 0.1562 Q2.5781 0.1562 1.7031 -0.7891 Q0.8281 -1.7344 0.8281 -3.3281 Q0.8281 -4.9375 1.4609 -6.2031 Q2.0938 -7.4688 3.1172 -8.1953 Q4.1406 -8.9219 5.2578 -9.1328 Q6.375 -9.3438 8.3281 -9.3438 L11.0469 -9.3438 L10.7812 -8.0156 ZM6.6875 -7.9844 Q5.4375 -7.9844 4.625 -7.5 Q3.8125 -7.0156 3.1641 -5.8516 Q2.5156 -4.6875 2.5156 -2.875 Q2.5156 -1.7969 3.0156 -1.2031 Q3.5156 -0.6094 4.2656 -0.6094 Q5.6094 -0.6094 6.5469 -2.1328 Q7.4844 -3.6562 7.4844 -5.5156 Q7.4844 -6.9688 6.6875 -7.9844 Z" stroke="none"/></g><g text-rendering="optimizeLegibility" transform="translate(393.5469,27.9188) matrix(1,0,0,1.2572,0,0)" color-rendering="optimizeQuality" color-interpolation="linearRGB" image-rendering="optimizeQuality"><path d="M4.7812 4.2031 L0.4219 4.2031 L0.4219 3.4062 L3.0625 3.4062 L3.0625 -13.1719 L0.4219 -13.1719 L0.4219 -13.9688 L4.7812 -13.9688 L4.7812 4.2031 Z" stroke="none"/></g><g text-rendering="optimizeLegibility" transform="translate(400.5625,27.9124) matrix(1,0,0,1.2559,0,0)" color-rendering="optimizeQuality" color-interpolation="linearRGB" image-rendering="optimizeQuality"><path d="M7.2188 4.25 Q5.5625 4.25 4.5078 3.75 Q3.4531 3.25 2.8672 2.2344 Q2.2812 1.2188 2.0234 -0.4141 Q1.7656 -2.0469 1.7656 -4.8438 Q1.7656 -7.625 2.0234 -9.2656 Q2.2812 -10.9062 2.8672 -11.9453 Q3.4531 -12.9844 4.5078 -13.5 Q5.5625 -14.0156 7.2188 -14.0156 L7.2188 -13.2188 Q6.5312 -13.2188 6 -13.0938 Q5.4062 -12.9531 4.9844 -12.5625 Q4.5156 -12.1406 4.2344 -11.375 Q3.8906 -10.4688 3.7188 -8.9844 Q3.5469 -7.4062 3.5469 -4.9219 Q3.5469 -2.7188 3.6953 -1.1797 Q3.8438 0.3594 4.1875 1.3281 Q4.4531 2.1562 4.8594 2.6094 Q5.2188 3.0156 5.7188 3.2188 Q6.2969 3.4531 7.2188 3.4531 L7.2188 4.25 Z" stroke="none"/></g><g text-rendering="optimizeLegibility" transform="translate(410.8594,29)" color-rendering="optimizeQuality" color-interpolation="linearRGB" image-rendering="optimizeQuality"><path d="M7.0781 4.2188 Q5.5625 4.2188 4.6797 3.8281 Q3.7969 3.4375 3.4141 2.6641 Q3.0312 1.8906 3.0312 0.5781 L3.0312 -2.25 Q3.0312 -3.1094 2.8125 -3.5938 Q2.5938 -4.0781 2.1562 -4.2734 Q1.7188 -4.4688 0.9219 -4.4688 L0.9219 -5.2812 Q1.7031 -5.2812 2.1484 -5.4766 Q2.5938 -5.6719 2.8125 -6.1484 Q3.0312 -6.625 3.0312 -7.5 L3.0312 -10.3281 Q3.0312 -11.625 3.4141 -12.4062 Q3.7969 -13.1875 4.6797 -13.5781 Q5.5625 -13.9688 7.0781 -13.9688 L7.3281 -13.9688 L7.3281 -13.1719 Q6.5469 -13.1719 6.1641 -13.0938 Q5.7812 -13.0156 5.5391 -12.8438 Q5.2969 -12.6719 5.1406 -12.4141 Q4.9844 -12.1562 4.8984 -11.6875 Q4.8125 -11.2188 4.8125 -10.4375 L4.8125 -8.5469 Q4.8125 -7.5625 4.6406 -6.8984 Q4.4688 -6.2344 4.0312 -5.7578 Q3.5938 -5.2812 2.8281 -4.9688 L2.8281 -4.7812 Q3.5781 -4.4844 4.0312 -3.9844 Q4.4844 -3.4844 4.6484 -2.8203 Q4.8125 -2.1562 4.8125 -1.2031 L4.8125 0.6875 Q4.8125 1.4688 4.8984 1.9375 Q4.9844 2.4062 5.1406 2.6719 Q5.2969 2.9375 5.5391 3.1016 Q5.7812 3.2656 6.1641 3.3438 Q6.5469 3.4219 7.3281 3.4219 L7.3281 4.2188 L7.0781 4.2188 Z" stroke="none"/></g><g text-rendering="optimizeLegibility" transform="translate(420.1875,29)" color-rendering="optimizeQuality" color-interpolation="linearRGB" image-rendering="optimizeQuality"><path d="M4.1719 -9.3438 L4.1719 -8.8594 Q3.7188 -8.75 3.5312 -8.6562 Q3.3438 -8.5625 3.2578 -8.4062 Q3.1719 -8.25 3.1719 -7.9844 Q3.1719 -7.7188 3.2344 -7.4297 Q3.2969 -7.1406 3.4219 -6.7656 L5.125 -1.8125 L7.125 -6.5469 Q7.3125 -7.0156 7.3906 -7.3203 Q7.4688 -7.625 7.4688 -7.8906 Q7.4688 -8.2969 7.25 -8.5156 Q7.0312 -8.7344 6.4531 -8.8594 L6.4531 -9.3438 L10.0938 -9.3438 L10.0938 -8.8594 Q9.7188 -8.7812 9.5156 -8.6172 Q9.3125 -8.4531 9.1016 -8.1094 Q8.8906 -7.7656 8.6094 -7.1406 L5.3281 0.0938 L4.1719 0.0938 L1.5312 -7.2031 Q1.25 -7.9531 1.0859 -8.2266 Q0.9219 -8.5 0.7344 -8.6406 Q0.5469 -8.7812 0.1875 -8.8594 L0.1875 -9.3438 L4.1719 -9.3438 Z" stroke="none"/></g><g text-rendering="optimizeLegibility" transform="translate(431.8594,29)" color-rendering="optimizeQuality" color-interpolation="linearRGB" image-rendering="optimizeQuality"><path d="M0.6719 -13.9688 Q2.1875 -13.9688 3.0703 -13.5781 Q3.9531 -13.1875 4.3281 -12.4062 Q4.7031 -11.625 4.7031 -10.3281 L4.7031 -7.5 Q4.7031 -6.625 4.9297 -6.1484 Q5.1562 -5.6719 5.5938 -5.4766 Q6.0312 -5.2812 6.8125 -5.2812 L6.8125 -4.4688 Q6.0312 -4.4688 5.5859 -4.2734 Q5.1406 -4.0781 4.9219 -3.5938 Q4.7031 -3.1094 4.7031 -2.25 L4.7031 0.5781 Q4.7031 1.8906 4.3281 2.6641 Q3.9531 3.4375 3.0703 3.8281 Q2.1875 4.2188 0.6719 4.2188 L0.4219 4.2188 L0.4219 3.4219 Q1.1875 3.4219 1.5781 3.3438 Q1.9688 3.2656 2.2031 3.1016 Q2.4375 2.9375 2.5938 2.6719 Q2.75 2.4062 2.8438 1.9375 Q2.9375 1.4688 2.9375 0.6875 L2.9375 -1.2031 Q2.9375 -2.1875 3.1016 -2.8438 Q3.2656 -3.5 3.7109 -3.9844 Q4.1562 -4.4688 4.9062 -4.7812 L4.9062 -4.9688 Q4.1719 -5.2656 3.7188 -5.7656 Q3.2656 -6.2656 3.1016 -6.9297 Q2.9375 -7.5938 2.9375 -8.5469 L2.9375 -10.4375 Q2.9375 -11.2188 2.8438 -11.6875 Q2.75 -12.1562 2.5938 -12.4141 Q2.4375 -12.6719 2.2031 -12.8438 Q1.9688 -13.0156 1.5781 -13.0938 Q1.1875 -13.1719 0.4219 -13.1719 L0.4219 -13.9688 L0.6719 -13.9688 Z" stroke="none"/></g><g text-rendering="optimizeLegibility" transform="translate(441.0312,29)" color-rendering="optimizeQuality" color-interpolation="linearRGB" image-rendering="optimizeQuality"><path d="M6.5 -5.7188 L9.4375 -2.7969 L8.4531 -1.8125 L5.5312 -4.7656 L2.625 -1.8125 L1.6406 -2.7969 L4.5781 -5.7188 L1.6406 -8.625 L2.625 -9.6094 L5.5312 -6.6719 L8.4531 -9.6094 L9.4375 -8.6406 L6.5 -5.7188 Z" stroke="none"/></g><g text-rendering="optimizeLegibility" transform="translate(452.2969,29)" color-rendering="optimizeQuality" color-interpolation="linearRGB" image-rendering="optimizeQuality"><path d="M15.6719 -14.4531 L15.6719 -13.1406 L9.0312 0.125 L8.375 0.125 L2.1719 -13.1406 L2.1719 -14.4531 L15.6719 -14.4531 ZM14.875 -13.0625 L4.0469 -13.0625 L9.2656 -1.9219 L9.2812 -1.9219 L14.875 -13.0625 Z" stroke="none"/></g><g text-rendering="optimizeLegibility" transform="translate(470.3281,29)" color-rendering="optimizeQuality" color-interpolation="linearRGB" image-rendering="optimizeQuality"><path d="M6.5 -5.7188 L9.4375 -2.7969 L8.4531 -1.8125 L5.5312 -4.7656 L2.625 -1.8125 L1.6406 -2.7969 L4.5781 -5.7188 L1.6406 -8.625 L2.625 -9.6094 L5.5312 -6.6719 L8.4531 -9.6094 L9.4375 -8.6406 L6.5 -5.7188 Z" stroke="none"/></g><g text-rendering="optimizeLegibility" transform="translate(481.5312,27.9188) matrix(1,0,0,1.2572,0,0)" color-rendering="optimizeQuality" color-interpolation="linearRGB" image-rendering="optimizeQuality"><path d="M6.5781 4.2031 L2.2344 4.2031 L2.2344 -13.9688 L6.5781 -13.9688 L6.5781 -13.1719 L3.9531 -13.1719 L3.9531 3.4062 L6.5781 3.4062 L6.5781 4.2031 Z" stroke="none"/></g><g text-rendering="optimizeLegibility" transform="translate(490.1094,29)" color-rendering="optimizeQuality" color-interpolation="linearRGB" image-rendering="optimizeQuality"><path d="M9.1875 -10.8438 L6.0625 0.0625 L4.4844 0.0625 L1.6406 -10.5312 Q1.4688 -11.2031 1.3203 -11.625 Q1.1719 -12.0469 1.0234 -12.2812 Q0.875 -12.5156 0.7031 -12.6406 Q0.5312 -12.7656 0.2188 -12.8594 L0.2188 -13.3281 L4.3906 -13.3281 L4.3906 -12.8594 Q3.7969 -12.7344 3.5547 -12.5 Q3.3125 -12.2656 3.3125 -11.8438 Q3.3125 -11.5 3.3984 -11.0312 Q3.4844 -10.5625 3.6406 -9.9688 L5.6094 -2.25 L8.75 -13.3281 L10.3906 -13.3281 L12.9375 -2.25 L15.25 -9.7031 Q15.6719 -11.0625 15.6719 -11.625 Q15.6719 -12.2344 15.4219 -12.4922 Q15.1719 -12.75 14.5938 -12.8594 L14.5938 -13.3281 L18.4375 -13.3281 L18.4375 -12.8594 Q18.1406 -12.75 17.9688 -12.6328 Q17.7969 -12.5156 17.6328 -12.3047 Q17.4688 -12.0938 17.2812 -11.6562 Q17.0938 -11.2188 16.8438 -10.4688 L13.2812 0.0625 L11.8906 0.0625 L9.1875 -10.8438 Z" stroke="none"/></g><g text-rendering="optimizeLegibility" transform="translate(510.125,27.9188) matrix(1,0,0,1.2572,0,0)" color-rendering="optimizeQuality" color-interpolation="linearRGB" image-rendering="optimizeQuality"><path d="M4.7812 4.2031 L0.4219 4.2031 L0.4219 3.4062 L3.0625 3.4062 L3.0625 -13.1719 L0.4219 -13.1719 L0.4219 -13.9688 L4.7812 -13.9688 L4.7812 4.2031 Z" stroke="none"/></g><g text-rendering="optimizeLegibility" transform="translate(516.9062,15.0209)" color-rendering="optimizeQuality" color-interpolation="linearRGB" image-rendering="optimizeQuality"><path d="M0.4531 -9.3281 L7.8438 -9.3281 L7.8438 -6.9531 L7.1719 -6.9531 Q7.0312 -7.5469 6.8828 -7.8828 Q6.7344 -8.2188 6.5703 -8.3984 Q6.4062 -8.5781 6.2188 -8.6562 Q6.0312 -8.7344 5.6562 -8.7344 L4.7812 -8.7344 L4.7812 -1.7344 Q4.7812 -1.3281 4.8281 -1.0859 Q4.875 -0.8438 4.9688 -0.7031 Q5.0625 -0.5625 5.2188 -0.4844 Q5.375 -0.4062 5.7031 -0.3281 L5.7031 0 L2.5781 0 L2.5781 -0.3281 Q2.7969 -0.3906 2.9531 -0.4453 Q3.1094 -0.5 3.2031 -0.5781 Q3.2969 -0.6562 3.3672 -0.7734 Q3.4375 -0.8906 3.4688 -1.1016 Q3.5 -1.3125 3.5 -1.7344 L3.5 -8.7344 L2.6406 -8.7344 Q2.3281 -8.7344 2.1172 -8.6719 Q1.9062 -8.6094 1.7266 -8.4141 Q1.5469 -8.2188 1.4062 -7.8594 Q1.2656 -7.5 1.125 -6.9531 L0.4531 -6.9531 L0.4531 -9.3281 Z" stroke="none"/></g><g text-rendering="optimizeLegibility" transform="translate(526.3281,27.9124) matrix(1,0,0,1.2559,0,0)" color-rendering="optimizeQuality" color-interpolation="linearRGB" image-rendering="optimizeQuality"><path d="M0.4219 -14.0156 Q2.0781 -14.0156 3.1328 -13.5156 Q4.1875 -13.0156 4.7734 -12 Q5.3594 -10.9844 5.6172 -9.3516 Q5.875 -7.7188 5.875 -4.9219 Q5.875 -2.1562 5.6172 -0.5078 Q5.3594 1.1406 4.7734 2.1797 Q4.1875 3.2188 3.1328 3.7344 Q2.0781 4.25 0.4219 4.25 L0.4219 3.4531 Q1.1094 3.4531 1.625 3.3281 Q2.2344 3.1875 2.6406 2.7969 Q3.1094 2.375 3.4062 1.6094 Q3.75 0.7031 3.9219 -0.7812 Q4.0938 -2.3594 4.0938 -4.8438 Q4.0938 -7.0469 3.9453 -8.5859 Q3.7969 -10.125 3.4531 -11.0938 Q3.1875 -11.9219 2.7812 -12.375 Q2.4062 -12.7812 1.9219 -12.9844 Q1.3438 -13.2188 0.4219 -13.2188 L0.4219 -14.0156 Z" stroke="none"/></g><g text-rendering="optimizeLegibility" transform="translate(535.7812,30.3754) matrix(1,0,0,1.7603,0,0)" color-rendering="optimizeQuality" color-interpolation="linearRGB" image-rendering="optimizeQuality"><path d="M0.4219 -14.0156 Q2.0781 -14.0156 3.1328 -13.5156 Q4.1875 -13.0156 4.7734 -12 Q5.3594 -10.9844 5.6172 -9.3516 Q5.875 -7.7188 5.875 -4.9219 Q5.875 -2.1562 5.6172 -0.5078 Q5.3594 1.1406 4.7734 2.1797 Q4.1875 3.2188 3.1328 3.7344 Q2.0781 4.25 0.4219 4.25 L0.4219 3.4531 Q1.1094 3.4531 1.625 3.3281 Q2.2344 3.1875 2.6406 2.7969 Q3.1094 2.375 3.4062 1.6094 Q3.75 0.7031 3.9219 -0.7812 Q4.0938 -2.3594 4.0938 -4.8438 Q4.0938 -7.0469 3.9453 -8.5859 Q3.7969 -10.125 3.4531 -11.0938 Q3.1875 -11.9219 2.7812 -12.375 Q2.4062 -12.7812 1.9219 -12.9844 Q1.3438 -13.2188 0.4219 -13.2188 L0.4219 -14.0156 Z" stroke="none"/></g><g text-rendering="optimizeLegibility" transform="translate(543.6562,29)" color-rendering="optimizeQuality" color-interpolation="linearRGB" image-rendering="optimizeQuality"><path d="M7.5469 -10.6094 Q7.5469 -11.5469 7.5312 -11.9219 Q7.5156 -12.2969 7.4531 -12.5547 Q7.3906 -12.8125 7.2734 -12.9609 Q7.1562 -13.1094 6.9688 -13.1953 Q6.7812 -13.2812 6.2812 -13.375 L6.2812 -13.875 L8.6406 -13.9688 L9.2188 -13.9688 L9.2188 -2.6719 Q9.2188 -1.9062 9.25 -1.5781 Q9.2812 -1.25 9.375 -1.0547 Q9.4688 -0.8594 9.6797 -0.7344 Q9.8906 -0.6094 10.4219 -0.5156 L10.4219 0 L8.1094 0.0938 L7.5312 0.0938 L7.6406 -1.5 L7.5 -1.5469 Q6.8906 -0.8906 6.4375 -0.5625 Q5.9844 -0.2344 5.4688 -0.0391 Q4.9531 0.1562 4.3594 0.1562 Q2.7656 0.1562 1.8984 -1.0625 Q1.0312 -2.2812 1.0312 -4.5781 Q1.0312 -6.1719 1.5938 -7.2891 Q2.1562 -8.4062 3.1172 -8.9531 Q4.0781 -9.5 5.2812 -9.5 Q5.9219 -9.5 6.4531 -9.3984 Q6.9844 -9.2969 7.5469 -9.0625 L7.5469 -10.6094 ZM7.5469 -5.7969 Q7.5469 -6.5469 7.4766 -7.0078 Q7.4062 -7.4688 7.2422 -7.7812 Q7.0781 -8.0938 6.8047 -8.3125 Q6.5312 -8.5312 6.2031 -8.625 Q5.875 -8.7188 5.4219 -8.7188 Q4.1719 -8.7188 3.5156 -7.7188 Q2.8594 -6.7188 2.8594 -4.8438 Q2.8594 -2.9688 3.3984 -1.9922 Q3.9375 -1.0156 5.0312 -1.0156 Q5.4531 -1.0156 5.7422 -1.0859 Q6.0312 -1.1562 6.3047 -1.3203 Q6.5781 -1.4844 6.8594 -1.7656 Q7.1406 -2.0469 7.2734 -2.2812 Q7.4062 -2.5156 7.4766 -2.8203 Q7.5469 -3.125 7.5469 -3.6094 L7.5469 -5.7969 ZM18.2188 4.25 Q16.5625 4.25 15.5078 3.75 Q14.4531 3.25 13.8672 2.2344 Q13.2812 1.2188 13.0234 -0.4141 Q12.7656 -2.0469 12.7656 -4.8438 Q12.7656 -7.625 13.0234 -9.2656 Q13.2812 -10.9062 13.8672 -11.9453 Q14.4531 -12.9844 15.5078 -13.5 Q16.5625 -14.0156 18.2188 -14.0156 L18.2188 -13.2188 Q17.5312 -13.2188 17 -13.0938 Q16.4062 -12.9531 15.9844 -12.5625 Q15.5156 -12.1406 15.2344 -11.375 Q14.8906 -10.4688 14.7188 -8.9844 Q14.5469 -7.4062 14.5469 -4.9219 Q14.5469 -2.7188 14.6953 -1.1797 Q14.8438 0.3594 15.1875 1.3281 Q15.4531 2.1562 15.8594 2.6094 Q16.2188 3.0156 16.7188 3.2188 Q17.2969 3.4531 18.2188 3.4531 L18.2188 4.25 ZM23.1719 -9.3438 L23.1719 -8.8594 Q22.7188 -8.75 22.5312 -8.6562 Q22.3438 -8.5625 22.2578 -8.4062 Q22.1719 -8.25 22.1719 -7.9844 Q22.1719 -7.7188 22.2344 -7.4297 Q22.2969 -7.1406 22.4219 -6.7656 L24.125 -1.8125 L26.125 -6.5469 Q26.3125 -7.0156 26.3906 -7.3203 Q26.4688 -7.625 26.4688 -7.8906 Q26.4688 -8.2969 26.25 -8.5156 Q26.0312 -8.7344 25.4531 -8.8594 L25.4531 -9.3438 L29.0938 -9.3438 L29.0938 -8.8594 Q28.7188 -8.7812 28.5156 -8.6172 Q28.3125 -8.4531 28.1016 -8.1094 Q27.8906 -7.7656 27.6094 -7.1406 L24.3281 0.0938 L23.1719 0.0938 L20.5312 -7.2031 Q20.25 -7.9531 20.0859 -8.2266 Q19.9219 -8.5 19.7344 -8.6406 Q19.5469 -8.7812 19.1875 -8.8594 L19.1875 -9.3438 L23.1719 -9.3438 ZM34.2031 0.1562 Q32.1719 0.1562 31.1016 -1.0391 Q30.0312 -2.2344 30.0312 -4.5781 Q30.0312 -6.1875 30.5938 -7.3047 Q31.1562 -8.4219 32.1328 -8.9609 Q33.1094 -9.5 34.3594 -9.5 Q36.4375 -9.5 37.5156 -8.2891 Q38.5938 -7.0781 38.5938 -4.7969 Q38.5938 -3.1719 38.0547 -2.0625 Q37.5156 -0.9531 36.5312 -0.3984 Q35.5469 0.1562 34.2031 0.1562 ZM31.875 -4.7812 Q31.875 -2.7812 32.5156 -1.6953 Q33.1562 -0.6094 34.3438 -0.6094 Q35 -0.6094 35.4609 -0.9297 Q35.9219 -1.25 36.2031 -1.7891 Q36.4844 -2.3281 36.6172 -3.0312 Q36.75 -3.7344 36.75 -4.5156 Q36.75 -5.9531 36.4297 -6.8984 Q36.1094 -7.8438 35.5625 -8.2891 Q35.0156 -8.7344 34.3125 -8.7344 Q33.125 -8.7344 32.5 -7.7109 Q31.875 -6.6875 31.875 -4.7812 ZM43.5625 -2.4375 Q43.5625 -1.6094 43.6406 -1.2812 Q43.7188 -0.9531 43.9375 -0.7812 Q44.1562 -0.6094 44.6562 -0.4844 L44.6562 0 L40.7656 0 L40.7656 -0.4844 Q41.2656 -0.6094 41.4531 -0.7422 Q41.6406 -0.875 41.7266 -1.0703 Q41.8125 -1.2656 41.8438 -1.5938 Q41.875 -1.9219 41.875 -2.4375 L41.875 -10.6094 Q41.875 -11.5469 41.8594 -11.9219 Q41.8438 -12.2969 41.7812 -12.5547 Q41.7188 -12.8125 41.6094 -12.9609 Q41.5 -13.1094 41.3047 -13.1953 Q41.1094 -13.2812 40.6094 -13.375 L40.6094 -13.875 L42.9688 -13.9688 L43.5625 -13.9688 L43.5625 -2.4375 ZM45.4219 -14.0156 Q47.0781 -14.0156 48.1328 -13.5156 Q49.1875 -13.0156 49.7734 -12 Q50.3594 -10.9844 50.6172 -9.3516 Q50.875 -7.7188 50.875 -4.9219 Q50.875 -2.1562 50.6172 -0.5078 Q50.3594 1.1406 49.7734 2.1797 Q49.1875 3.2188 48.1328 3.7344 Q47.0781 4.25 45.4219 4.25 L45.4219 3.4531 Q46.1094 3.4531 46.625 3.3281 Q47.2344 3.1875 47.6406 2.7969 Q48.1094 2.375 48.4062 1.6094 Q48.75 0.7031 48.9219 -0.7812 Q49.0938 -2.3594 49.0938 -4.8438 Q49.0938 -7.0469 48.9453 -8.5859 Q48.7969 -10.125 48.4531 -11.0938 Q48.1875 -11.9219 47.7812 -12.375 Q47.4062 -12.7812 46.9219 -12.9844 Q46.3438 -13.2188 45.4219 -13.2188 L45.4219 -14.0156 Z" stroke="none"/></g></g></svg>