<?xml version="1.0" encoding="UTF-8" standalone="no"?><svg xmlns="http://www.w3.org/2000/svg" xmlns:xlink="http://www.w3.org/1999/xlink" stroke-dasharray="none" shape-rendering="auto" font-family="'Dialog'" width="303.812600" text-rendering="auto" fill-opacity="1" contentScriptType="text/ecmascript" color-interpolation="auto" color-rendering="auto" preserveAspectRatio="xMidYMid meet" font-size="12" fill="black" stroke="black" image-rendering="auto" stroke-miterlimit="10" zoomAndPan="magnify" version="1.0" stroke-linecap="square" stroke-linejoin="miter" contentStyleType="text/css" font-style="normal" height="50" stroke-width="1" stroke-dashoffset="0" font-weight="normal" stroke-opacity="1" y="-18.000000"><!--Converted from MathML using JEuclid--><defs id="genericDefs"/><g><g text-rendering="optimizeLegibility" transform="translate(0,32)" color-rendering="optimizeQuality" color-interpolation="linearRGB" image-rendering="optimizeQuality"><path d="M10.2656 0.125 L10.2656 -7.0156 Q10.2656 -8.7656 10.3594 -10.6406 L10.25 -10.6406 L5.0312 0.125 L3.5 0.125 L3.0312 -10.7344 Q3 -11.5469 2.8672 -11.9766 Q2.7344 -12.4062 2.5078 -12.6016 Q2.2812 -12.7969 1.875 -12.8594 L1.9844 -13.3281 L6.0625 -13.3281 L5.9531 -12.8594 Q5.5156 -12.8281 5.2656 -12.5938 Q5.0156 -12.3594 4.9141 -11.9688 Q4.8125 -11.5781 4.8125 -10.8438 L4.8125 -10.5156 Q4.8125 -10.3438 4.8281 -10.1562 L4.9062 -6.3438 Q4.9219 -5.9219 4.9219 -5.0469 L4.9219 -4.2656 L4.9062 -2.2188 L5.0156 -2.2188 L10.4062 -13.3281 L11.8906 -13.3281 L11.8906 -6.8125 Q11.8906 -5.6562 11.8594 -4.5625 L11.7969 -2.2188 L11.8906 -2.2188 L15.8438 -9.8594 Q16.0781 -10.2969 16.3281 -10.875 Q16.5781 -11.4531 16.5781 -11.875 Q16.5781 -12.2656 16.3438 -12.5156 Q16.1094 -12.7656 15.5938 -12.8594 L15.7031 -13.3281 L19.7031 -13.3281 L19.5938 -12.8594 Q19.1406 -12.7969 18.7344 -12.3594 Q18.3281 -11.9219 17.6406 -10.6719 L11.7656 0.125 L10.2656 0.125 Z" stroke="none"/></g><g text-rendering="optimizeLegibility" transform="translate(20.4844,32)" color-rendering="optimizeQuality" color-interpolation="linearRGB" image-rendering="optimizeQuality"><path d="M1.2188 -7.0625 L1.2188 -8.4219 L9.8594 -8.4219 L9.8594 -7.0625 L1.2188 -7.0625 ZM1.2188 -3.0156 L1.2188 -4.3594 L9.8594 -4.3594 L9.8594 -3.0156 L1.2188 -3.0156 Z" stroke="none"/></g><g text-rendering="optimizeLegibility" transform="translate(33.1094,32)" color-rendering="optimizeQuality" color-interpolation="linearRGB" image-rendering="optimizeQuality"><path d="M1.2344 -5.0469 L1.2344 -6.3906 L9.8281 -6.3906 L9.8281 -5.0469 L1.2344 -5.0469 Z" stroke="none"/></g><g text-rendering="optimizeLegibility" stroke-width="1.6667" color-interpolation="linearRGB" color-rendering="optimizeQuality" image-rendering="optimizeQuality"><line y2="24.78" fill="none" x1="46.6153" x2="75.9278" y1="24.78"/><path d="M10.0625 -0.7656 Q8.9688 0.1562 7.875 0.1562 Q6.8125 0.1562 6.8125 -1.1719 Q6.8125 -1.6875 6.9844 -2.4219 L6.8594 -2.4844 Q5.0938 0.1562 3.5156 0.1562 Q2.5469 0.1562 2.1719 -0.7969 L2.0938 -0.7969 Q1.8438 0.7344 1.8438 2.4062 L1.8438 2.625 Q1.8438 2.7188 1.8594 2.8281 L1.7656 3.3594 L0.7812 3.9219 L-0.0938 3.9219 L2.8438 -9.3438 L4.4844 -9.3438 L3.3594 -4.3594 Q3.0156 -2.8438 3.0156 -2.3125 Q3.0156 -1 3.9375 -1 Q4.9062 -1 5.9766 -2.3828 Q7.0469 -3.7656 7.2812 -4.9219 L8.2656 -9.3438 L9.8906 -9.3438 L8.3438 -2.3594 Q8.25 -1.9688 8.25 -1.6875 Q8.25 -0.8281 8.8594 -0.8281 Q9.2344 -0.8281 9.8125 -1.2812 L10.0625 -0.7656 Z" stroke-width="1" transform="translate(46.709,15.1673)" stroke="none"/></g><g text-rendering="optimizeLegibility" transform="translate(58.9747,15.1673)" color-rendering="optimizeQuality" color-interpolation="linearRGB" image-rendering="optimizeQuality"><path d="M2.9375 -0.4219 Q2.6094 1.1094 2.0938 2.0078 Q1.5781 2.9062 0.75 3.3438 Q-0.0781 3.7812 -1.2812 3.7812 Q-1.5469 3.7812 -1.7969 3.7578 Q-2.0469 3.7344 -2.2031 3.6875 L-1.9531 2.75 Q-1.7969 2.7969 -1.6094 2.8125 Q-1.4219 2.8281 -1.2188 2.8281 Q-0.6406 2.8281 -0.2266 2.5625 Q0.1875 2.2969 0.5234 1.6484 Q0.8594 1 1.1094 -0.1406 L3.4062 -10.4375 Q3.5 -10.8594 3.5547 -11.2812 Q3.6094 -11.7031 3.6094 -12 Q3.6094 -12.4688 3.375 -12.6484 Q3.1406 -12.8281 2.6562 -12.8594 L2.7656 -13.3281 L6.6719 -13.3281 L6.5625 -12.8594 Q6.1875 -12.7812 6.0312 -12.6797 Q5.875 -12.5781 5.7422 -12.3828 Q5.6094 -12.1875 5.4766 -11.7734 Q5.3438 -11.3594 5.1406 -10.4219 L2.9375 -0.4219 Z" stroke="none"/></g><g text-rendering="optimizeLegibility" transform="translate(65.6465,22.2689)" color-rendering="optimizeQuality" color-interpolation="linearRGB" image-rendering="optimizeQuality"><path d="M6.5625 -5.2031 L6.5625 -5.0938 Q6.5625 -5.0469 6.5469 -5 Q7.1406 -5.8438 7.7266 -6.2422 Q8.3125 -6.6406 8.9531 -6.6406 Q9.5938 -6.6406 9.9375 -6.2734 Q10.2812 -5.9062 10.2812 -5.2031 Q10.2812 -4.7656 10.1406 -4.1406 L9.5625 -1.7031 Q9.4531 -1.2188 9.4531 -0.9375 Q9.4531 -0.7188 9.5156 -0.6094 Q9.5781 -0.5 9.7266 -0.4375 Q9.875 -0.375 10.2031 -0.3281 L10.1406 0 L7.9844 0 L8.8594 -3.4688 Q8.9531 -3.8438 9.0234 -4.2344 Q9.0938 -4.625 9.0938 -4.9375 Q9.0938 -5.4219 8.9219 -5.6328 Q8.75 -5.8438 8.375 -5.8438 Q8.1094 -5.8438 7.7812 -5.625 Q7.4531 -5.4062 7.0938 -4.9531 Q6.7344 -4.5 6.5 -4.0625 Q6.2656 -3.625 6.125 -2.9844 L5.5156 0 L4.3281 0 L5.1094 -3.4688 Q5.25 -4.1094 5.3047 -4.4141 Q5.3594 -4.7188 5.3594 -4.9375 Q5.3594 -5.4219 5.1875 -5.6328 Q5.0156 -5.8438 4.6406 -5.8438 Q4.375 -5.8438 4.0391 -5.625 Q3.7031 -5.4062 3.3359 -4.9375 Q2.9688 -4.4688 2.7422 -4.0234 Q2.5156 -3.5781 2.4062 -2.9531 L1.7812 0 L0.5938 0 L1.6406 -4.6719 Q1.6719 -4.8281 1.7266 -5.1328 Q1.7812 -5.4375 1.7812 -5.6406 Q1.7812 -5.8438 1.7266 -5.9453 Q1.6719 -6.0469 1.5312 -6.1016 Q1.3906 -6.1562 1.0469 -6.1719 L1.1406 -6.5312 L2.6875 -6.5938 L3.0781 -6.5938 L2.625 -4.8281 L2.7031 -4.7969 Q3.3438 -5.7344 3.9609 -6.1875 Q4.5781 -6.6406 5.2188 -6.6406 Q5.875 -6.6406 6.2188 -6.2734 Q6.5625 -5.9062 6.5625 -5.2031 Z" stroke="none"/></g><g text-rendering="optimizeLegibility" transform="translate(56.5372,40.7755)" color-rendering="optimizeQuality" color-interpolation="linearRGB" image-rendering="optimizeQuality"><path d="M6.8594 -1.5625 Q7.3281 -1.5625 7.625 -1.625 Q7.9219 -1.6875 8.0938 -1.8203 Q8.2656 -1.9531 8.375 -2.1719 Q8.4844 -2.3906 8.6406 -2.8594 L9.4688 -2.8594 L9.2969 0 L1.2656 0 L1.2656 -0.4688 Q1.6875 -1.5 2.3984 -2.5703 Q3.1094 -3.6406 4.4219 -5.0938 Q5.5469 -6.3438 6.0469 -7 Q6.5938 -7.7031 6.8594 -8.2109 Q7.125 -8.7188 7.2422 -9.1719 Q7.3594 -9.625 7.3594 -10.0938 Q7.3594 -10.8281 7.125 -11.3828 Q6.8906 -11.9375 6.4062 -12.2656 Q5.9219 -12.5938 5.2031 -12.5938 Q3.375 -12.5938 2.7344 -10.5625 L1.5469 -10.5625 L1.5469 -12.4375 Q2.7344 -12.9844 3.7656 -13.2344 Q4.7969 -13.4844 5.6094 -13.4844 Q7.4375 -13.4844 8.3594 -12.6875 Q9.2812 -11.8906 9.2812 -10.375 Q9.2812 -9.8594 9.1797 -9.4297 Q9.0781 -9 8.8594 -8.5703 Q8.6406 -8.1406 8.2734 -7.6562 Q7.9062 -7.1719 7.4531 -6.6641 Q7 -6.1562 5.9062 -4.9844 Q4.0469 -3.0312 3.1719 -1.5625 L6.8594 -1.5625 Z" stroke="none"/></g><g text-rendering="optimizeLegibility" transform="translate(79.2722,32)" color-rendering="optimizeQuality" color-interpolation="linearRGB" image-rendering="optimizeQuality"><path d="M4.9375 -13.9688 L5.5156 -13.9688 L2.9688 -2.4375 Q2.8594 -1.9688 2.8281 -1.7344 Q2.7969 -1.5 2.7969 -1.3281 Q2.7969 -1.0312 2.8984 -0.8672 Q3 -0.7031 3.2031 -0.6172 Q3.4062 -0.5312 3.875 -0.4844 L3.7969 0 L0.75 0 L3.2656 -11.2188 Q3.375 -11.6406 3.4141 -11.8594 Q3.4531 -12.0781 3.4688 -12.2734 Q3.4844 -12.4688 3.4844 -12.6094 Q3.4844 -12.9062 3.375 -13.0547 Q3.2656 -13.2031 3.0703 -13.2734 Q2.875 -13.3438 2.3594 -13.375 L2.4688 -13.875 L4.9375 -13.9688 Z" stroke="none"/></g><g text-rendering="optimizeLegibility" transform="translate(84.7878,32)" color-rendering="optimizeQuality" color-interpolation="linearRGB" image-rendering="optimizeQuality"><path d="M9.2031 0 L6.1406 0 L7.375 -4.9688 Q7.4844 -5.4375 7.6016 -6.0156 Q7.7188 -6.5938 7.7188 -7.0469 Q7.7188 -7.75 7.4766 -8.0469 Q7.2344 -8.3438 6.7344 -8.3438 Q6.3125 -8.3438 5.8438 -8.0312 Q5.375 -7.7188 4.8594 -7.0859 Q4.3438 -6.4531 3.9844 -5.8047 Q3.625 -5.1562 3.4219 -4.2344 L2.5469 0 L0.8438 0 L2.3281 -6.6719 Q2.3906 -6.8906 2.4688 -7.3359 Q2.5469 -7.7812 2.5469 -8.0625 Q2.5469 -8.3438 2.4688 -8.4922 Q2.3906 -8.6406 2.1875 -8.7188 Q1.9844 -8.7969 1.5 -8.8125 L1.625 -9.3438 L3.8438 -9.4219 L4.3906 -9.4219 L3.7344 -6.8906 L3.8594 -6.8438 Q4.8125 -8.1875 5.7031 -8.8438 Q6.5938 -9.5 7.4844 -9.5 Q8.4219 -9.5 8.9141 -8.9766 Q9.4062 -8.4531 9.4062 -7.4219 Q9.4062 -7.0781 9.3438 -6.6562 Q9.2812 -6.2344 9.2031 -5.9219 L8.375 -2.4375 Q8.2188 -1.7344 8.2188 -1.3281 Q8.2188 -1.0312 8.3125 -0.8672 Q8.4062 -0.7031 8.6094 -0.6172 Q8.8125 -0.5312 9.2812 -0.4844 L9.2031 0 Z" stroke="none"/></g><g text-rendering="optimizeLegibility" transform="translate(94.4285,37.0452) matrix(1,0,0,2.5119,0,0)" color-rendering="optimizeQuality" color-interpolation="linearRGB" image-rendering="optimizeQuality"><path d="M7.2188 4.25 Q5.5625 4.25 4.5078 3.75 Q3.4531 3.25 2.8672 2.2344 Q2.2812 1.2188 2.0234 -0.4141 Q1.7656 -2.0469 1.7656 -4.8438 Q1.7656 -7.625 2.0234 -9.2656 Q2.2812 -10.9062 2.8672 -11.9453 Q3.4531 -12.9844 4.5078 -13.5 Q5.5625 -14.0156 7.2188 -14.0156 L7.2188 -13.2188 Q6.5312 -13.2188 6 -13.0938 Q5.4062 -12.9531 4.9844 -12.5625 Q4.5156 -12.1406 4.2344 -11.375 Q3.8906 -10.4688 3.7188 -8.9844 Q3.5469 -7.4062 3.5469 -4.9219 Q3.5469 -2.7188 3.6953 -1.1797 Q3.8438 0.3594 4.1875 1.3281 Q4.4531 2.1562 4.8594 2.6094 Q5.2188 3.0156 5.7188 3.2188 Q6.2969 3.4531 7.2188 3.4531 L7.2188 4.25 Z" stroke="none"/></g><g text-rendering="optimizeLegibility" transform="translate(103.6472,32)" color-rendering="optimizeQuality" color-interpolation="linearRGB" image-rendering="optimizeQuality"><path d="M6.7812 -2.5469 Q6.7812 -1.9844 6.8516 -1.6953 Q6.9219 -1.4062 7.0781 -1.2266 Q7.2344 -1.0469 7.5391 -0.9453 Q7.8438 -0.8438 8.3047 -0.7891 Q8.7656 -0.7344 9.5156 -0.7188 L9.5156 0 L2.2969 0 L2.2969 -0.7188 Q3.375 -0.7656 3.8438 -0.8438 Q4.3125 -0.9219 4.5547 -1.0938 Q4.7969 -1.2656 4.9062 -1.5625 Q5.0156 -1.8594 5.0156 -2.5469 L5.0156 -10.4688 Q5.0156 -10.8594 4.8828 -11.0391 Q4.75 -11.2188 4.4844 -11.2188 Q4.1719 -11.2188 3.5938 -10.8984 Q3.0156 -10.5781 2.1719 -10.0156 L1.7344 -10.7656 L6.3125 -13.4844 L6.8438 -13.4844 Q6.7812 -12.5469 6.7812 -10.8906 L6.7812 -2.5469 Z" stroke="none"/></g><g text-rendering="optimizeLegibility" transform="translate(113.9285,32)" color-rendering="optimizeQuality" color-interpolation="linearRGB" image-rendering="optimizeQuality"><path d="M1.2344 -5.0469 L1.2344 -6.3906 L9.8281 -6.3906 L9.8281 -5.0469 L1.2344 -5.0469 Z" stroke="none"/></g><g text-rendering="optimizeLegibility" stroke-width="1.6667" color-interpolation="linearRGB" color-rendering="optimizeQuality" image-rendering="optimizeQuality"><line y2="24.78" fill="none" x1="127.4344" x2="163.0281" y1="24.78"/><path d="M3.6719 -2.8438 Q3.5469 -2.2656 3.5078 -1.9297 Q3.4688 -1.5938 3.4688 -1.3125 Q3.4688 -0.875 3.6875 -0.6953 Q3.9062 -0.5156 4.4219 -0.4844 L4.3125 0 L0.4062 0 L0.5156 -0.4844 Q0.8906 -0.5312 1.0781 -0.6641 Q1.2656 -0.7969 1.3906 -1.0312 Q1.5156 -1.2656 1.625 -1.6016 Q1.7344 -1.9375 1.9375 -2.9062 L3.6094 -10.4375 Q3.7031 -10.875 3.7578 -11.2891 Q3.8125 -11.7031 3.8125 -12 Q3.8125 -12.4688 3.5781 -12.6484 Q3.3438 -12.8281 2.8594 -12.8594 L2.9688 -13.3281 L6.875 -13.3281 L6.7656 -12.8594 Q6.3906 -12.7812 6.2344 -12.6797 Q6.0781 -12.5781 5.9453 -12.3828 Q5.8125 -12.1875 5.6797 -11.7734 Q5.5469 -11.3594 5.3438 -10.4219 L3.6719 -2.8438 Z" stroke-width="1" transform="translate(127.4344,17.5501)" stroke="none"/></g><g text-rendering="optimizeLegibility" transform="translate(134.3094,22.2689)" color-rendering="optimizeQuality" color-interpolation="linearRGB" image-rendering="optimizeQuality"><path d="M4.75 -1.7812 Q4.75 -1.3906 4.7969 -1.1875 Q4.8438 -0.9844 4.9531 -0.8594 Q5.0625 -0.7344 5.2734 -0.6641 Q5.4844 -0.5938 5.8047 -0.5547 Q6.125 -0.5156 6.6562 -0.5 L6.6562 0 L1.6094 0 L1.6094 -0.5 Q2.3594 -0.5312 2.6875 -0.5938 Q3.0156 -0.6562 3.1875 -0.7656 Q3.3594 -0.875 3.4375 -1.0938 Q3.5156 -1.3125 3.5156 -1.7812 L3.5156 -7.3281 Q3.5156 -7.6094 3.4219 -7.7344 Q3.3281 -7.8594 3.1406 -7.8594 Q2.9219 -7.8594 2.5156 -7.6328 Q2.1094 -7.4062 1.5156 -7 L1.2188 -7.5312 L4.4219 -9.4375 L4.7969 -9.4375 Q4.75 -8.7812 4.75 -7.625 L4.75 -1.7812 Z" stroke="none"/></g><g text-rendering="optimizeLegibility" transform="translate(127.7126,14.347) matrix(1.2717,0,0,1,0,0)" color-rendering="optimizeQuality" color-interpolation="linearRGB" image-rendering="optimizeQuality"><path d="M9.9688 -11.125 L0.2344 -11.125 Q-0.0156 -11.125 -0.1172 -11.2266 Q-0.2188 -11.3281 -0.2188 -11.4844 Q-0.2188 -11.625 -0.1172 -11.7266 Q-0.0156 -11.8281 0.2344 -11.8281 L9.9688 -11.8281 Q10.2188 -11.8281 10.3203 -11.7266 Q10.4219 -11.625 10.4219 -11.4688 Q10.4219 -11.3281 10.3203 -11.2266 Q10.2188 -11.125 9.9688 -11.125 Z" stroke="none"/></g><g text-rendering="optimizeLegibility" transform="translate(141.7313,17.5501)" color-rendering="optimizeQuality" color-interpolation="linearRGB" image-rendering="optimizeQuality"><path d="M1.2344 -5.0469 L1.2344 -6.3906 L9.8281 -6.3906 L9.8281 -5.0469 L1.2344 -5.0469 Z" stroke="none"/></g><g text-rendering="optimizeLegibility" transform="translate(153.5594,17.5501)" color-rendering="optimizeQuality" color-interpolation="linearRGB" image-rendering="optimizeQuality"><path d="M1.5469 -10.5625 L1.5469 -12.4219 Q2.6875 -12.9531 3.6719 -13.2188 Q4.6562 -13.4844 5.5781 -13.4844 Q6.6875 -13.4844 7.5156 -13.1406 Q8.3438 -12.7969 8.7812 -12.1641 Q9.2188 -11.5312 9.2188 -10.6406 Q9.2188 -9.8125 8.8906 -9.1797 Q8.5625 -8.5469 7.9609 -8.0781 Q7.3594 -7.6094 6.3906 -7.1562 L6.3906 -7.0781 Q7 -6.9688 7.5469 -6.7109 Q8.0938 -6.4531 8.5234 -6.0391 Q8.9531 -5.625 9.2109 -5.0547 Q9.4688 -4.4844 9.4688 -3.75 Q9.4688 -2.625 8.9766 -1.7422 Q8.4844 -0.8594 7.4688 -0.3516 Q6.4531 0.1562 5 0.1562 Q4.1562 0.1562 3.1875 -0.0312 Q2.2188 -0.2188 1.4062 -0.5312 L1.4062 -2.6094 L2.5781 -2.6094 Q2.9219 -1.5938 3.4844 -1.1328 Q4.0469 -0.6719 5.0156 -0.6719 Q6.2812 -0.6719 6.9297 -1.3672 Q7.5781 -2.0625 7.5781 -3.4219 Q7.5781 -4.8438 6.7188 -5.5938 Q5.8594 -6.3438 4.2031 -6.3438 L3.3281 -6.3438 L3.3281 -7.2031 Q4.6406 -7.2812 5.5469 -7.7109 Q6.4531 -8.1406 6.8906 -8.8203 Q7.3281 -9.5 7.3281 -10.3281 Q7.3281 -11.4219 6.75 -12.0078 Q6.1719 -12.5938 5.0625 -12.5938 Q4.1562 -12.5938 3.5781 -12.0938 Q3 -11.5938 2.7188 -10.5625 L1.5469 -10.5625 Z" stroke="none"/></g><g text-rendering="optimizeLegibility" transform="translate(137.8562,40.6192)" color-rendering="optimizeQuality" color-interpolation="linearRGB" image-rendering="optimizeQuality"><path d="M2.9375 -0.4219 Q2.6094 1.1094 2.0938 2.0078 Q1.5781 2.9062 0.75 3.3438 Q-0.0781 3.7812 -1.2812 3.7812 Q-1.5469 3.7812 -1.7969 3.7578 Q-2.0469 3.7344 -2.2031 3.6875 L-1.9531 2.75 Q-1.7969 2.7969 -1.6094 2.8125 Q-1.4219 2.8281 -1.2188 2.8281 Q-0.6406 2.8281 -0.2266 2.5625 Q0.1875 2.2969 0.5234 1.6484 Q0.8594 1 1.1094 -0.1406 L3.4062 -10.4375 Q3.5 -10.8594 3.5547 -11.2812 Q3.6094 -11.7031 3.6094 -12 Q3.6094 -12.4688 3.375 -12.6484 Q3.1406 -12.8281 2.6562 -12.8594 L2.7656 -13.3281 L6.6719 -13.3281 L6.5625 -12.8594 Q6.1875 -12.7812 6.0312 -12.6797 Q5.875 -12.5781 5.7422 -12.3828 Q5.6094 -12.1875 5.4766 -11.7734 Q5.3438 -11.3594 5.1406 -10.4219 L2.9375 -0.4219 Z" stroke="none"/></g><g text-rendering="optimizeLegibility" transform="translate(144.5281,47.7208)" color-rendering="optimizeQuality" color-interpolation="linearRGB" image-rendering="optimizeQuality"><path d="M6.5625 -5.2031 L6.5625 -5.0938 Q6.5625 -5.0469 6.5469 -5 Q7.1406 -5.8438 7.7266 -6.2422 Q8.3125 -6.6406 8.9531 -6.6406 Q9.5938 -6.6406 9.9375 -6.2734 Q10.2812 -5.9062 10.2812 -5.2031 Q10.2812 -4.7656 10.1406 -4.1406 L9.5625 -1.7031 Q9.4531 -1.2188 9.4531 -0.9375 Q9.4531 -0.7188 9.5156 -0.6094 Q9.5781 -0.5 9.7266 -0.4375 Q9.875 -0.375 10.2031 -0.3281 L10.1406 0 L7.9844 0 L8.8594 -3.4688 Q8.9531 -3.8438 9.0234 -4.2344 Q9.0938 -4.625 9.0938 -4.9375 Q9.0938 -5.4219 8.9219 -5.6328 Q8.75 -5.8438 8.375 -5.8438 Q8.1094 -5.8438 7.7812 -5.625 Q7.4531 -5.4062 7.0938 -4.9531 Q6.7344 -4.5 6.5 -4.0625 Q6.2656 -3.625 6.125 -2.9844 L5.5156 0 L4.3281 0 L5.1094 -3.4688 Q5.25 -4.1094 5.3047 -4.4141 Q5.3594 -4.7188 5.3594 -4.9375 Q5.3594 -5.4219 5.1875 -5.6328 Q5.0156 -5.8438 4.6406 -5.8438 Q4.375 -5.8438 4.0391 -5.625 Q3.7031 -5.4062 3.3359 -4.9375 Q2.9688 -4.4688 2.7422 -4.0234 Q2.5156 -3.5781 2.4062 -2.9531 L1.7812 0 L0.5938 0 L1.6406 -4.6719 Q1.6719 -4.8281 1.7266 -5.1328 Q1.7812 -5.4375 1.7812 -5.6406 Q1.7812 -5.8438 1.7266 -5.9453 Q1.6719 -6.0469 1.5312 -6.1016 Q1.3906 -6.1562 1.0469 -6.1719 L1.1406 -6.5312 L2.6875 -6.5938 L3.0781 -6.5938 L2.625 -4.8281 L2.7031 -4.7969 Q3.3438 -5.7344 3.9609 -6.1875 Q4.5781 -6.6406 5.2188 -6.6406 Q5.875 -6.6406 6.2188 -6.2734 Q6.5625 -5.9062 6.5625 -5.2031 Z" stroke="none"/></g><g text-rendering="optimizeLegibility" transform="translate(167.9507,37.0452) matrix(1,0,0,2.5119,0,0)" color-rendering="optimizeQuality" color-interpolation="linearRGB" image-rendering="optimizeQuality"><path d="M0.4219 -14.0156 Q2.0781 -14.0156 3.1328 -13.5156 Q4.1875 -13.0156 4.7734 -12 Q5.3594 -10.9844 5.6172 -9.3516 Q5.875 -7.7188 5.875 -4.9219 Q5.875 -2.1562 5.6172 -0.5078 Q5.3594 1.1406 4.7734 2.1797 Q4.1875 3.2188 3.1328 3.7344 Q2.0781 4.25 0.4219 4.25 L0.4219 3.4531 Q1.1094 3.4531 1.625 3.3281 Q2.2344 3.1875 2.6406 2.7969 Q3.1094 2.375 3.4062 1.6094 Q3.75 0.7031 3.9219 -0.7812 Q4.0938 -2.3594 4.0938 -4.8438 Q4.0938 -7.0469 3.9453 -8.5859 Q3.7969 -10.125 3.4531 -11.0938 Q3.1875 -11.9219 2.7812 -12.375 Q2.4062 -12.7812 1.9219 -12.9844 Q1.3438 -13.2188 0.4219 -13.2188 L0.4219 -14.0156 Z" stroke="none"/></g><g text-rendering="optimizeLegibility" transform="translate(176.6069,32)" color-rendering="optimizeQuality" color-interpolation="linearRGB" image-rendering="optimizeQuality"><path d="M6.25 -5.0469 L6.25 -1.3438 L4.8125 -1.3438 L4.8125 -5.0469 L1.2188 -5.0469 L1.2188 -6.3906 L4.8125 -6.3906 L4.8125 -10.0938 L6.25 -10.0938 L6.25 -6.3906 L9.8594 -6.3906 L9.8594 -5.0469 L6.25 -5.0469 Z" stroke="none"/></g><g text-rendering="optimizeLegibility" stroke-width="1.6667" color-interpolation="linearRGB" color-rendering="optimizeQuality" image-rendering="optimizeQuality"><line y2="24.78" fill="none" x1="190.1441" x2="200.8472" y1="24.78"/><path d="M6.7812 -2.5469 Q6.7812 -1.9844 6.8516 -1.6953 Q6.9219 -1.4062 7.0781 -1.2266 Q7.2344 -1.0469 7.5391 -0.9453 Q7.8438 -0.8438 8.3047 -0.7891 Q8.7656 -0.7344 9.5156 -0.7188 L9.5156 0 L2.2969 0 L2.2969 -0.7188 Q3.375 -0.7656 3.8438 -0.8438 Q4.3125 -0.9219 4.5547 -1.0938 Q4.7969 -1.2656 4.9062 -1.5625 Q5.0156 -1.8594 5.0156 -2.5469 L5.0156 -10.4688 Q5.0156 -10.8594 4.8828 -11.0391 Q4.75 -11.2188 4.4844 -11.2188 Q4.1719 -11.2188 3.5938 -10.8984 Q3.0156 -10.5781 2.1719 -10.0156 L1.7344 -10.7656 L6.3125 -13.4844 L6.8438 -13.4844 Q6.7812 -12.5469 6.7812 -10.8906 L6.7812 -2.5469 Z" stroke-width="1" transform="translate(190.7378,22.2689)" stroke="none"/></g><g text-rendering="optimizeLegibility" transform="translate(190.1441,41.2599)" color-rendering="optimizeQuality" color-interpolation="linearRGB" image-rendering="optimizeQuality"><path d="M8.5 -11.2188 Q8.5781 -11.5312 8.6328 -11.9219 Q8.6875 -12.3125 8.6875 -12.6094 Q8.6875 -12.9062 8.5859 -13.0547 Q8.4844 -13.2031 8.2812 -13.2734 Q8.0781 -13.3438 7.5625 -13.375 L7.6719 -13.875 L10.125 -13.9688 L10.7031 -13.9688 L8.1719 -2.7188 Q8.0312 -2.0938 7.9844 -1.7969 Q7.9375 -1.5 7.9375 -1.2969 Q7.9375 -0.8906 8.1641 -0.7109 Q8.3906 -0.5312 9.0312 -0.4844 L8.9375 0 L6.1406 0 L6.7656 -2.4531 L6.625 -2.4844 Q5.6875 -1.125 4.8516 -0.4922 Q4.0156 0.1406 3.0781 0.1406 Q2 0.1406 1.4141 -0.6641 Q0.8281 -1.4688 0.8281 -2.9375 Q0.8281 -3.875 1.0391 -4.8203 Q1.25 -5.7656 1.6875 -6.6094 Q2.125 -7.4531 2.7266 -8.0938 Q3.3281 -8.7344 4.125 -9.1172 Q4.9219 -9.5 5.8594 -9.5 Q6.4531 -9.5 6.9609 -9.3828 Q7.4688 -9.2656 7.9844 -8.9531 L8.5 -11.2188 ZM7.2812 -5.9531 Q7.4375 -6.6562 7.4375 -7.2812 Q7.4375 -8.0312 7.1094 -8.3828 Q6.7812 -8.7344 6.0312 -8.7344 Q5.625 -8.7344 5.2578 -8.6016 Q4.8906 -8.4688 4.5078 -8.1641 Q4.125 -7.8594 3.7734 -7.3594 Q3.4219 -6.8594 3.1406 -6.1484 Q2.8594 -5.4375 2.7031 -4.6172 Q2.5469 -3.7969 2.5469 -3.0312 Q2.5469 -2.0156 2.8281 -1.5078 Q3.1094 -1 3.7656 -1 Q4.0625 -1 4.3906 -1.1406 Q4.7188 -1.2812 5.1172 -1.6484 Q5.5156 -2.0156 6.0312 -2.7188 Q6.4844 -3.375 6.75 -4.0156 Q7.0156 -4.6562 7.2031 -5.5312 L7.2812 -5.9531 Z" stroke="none"/></g><g text-rendering="optimizeLegibility" transform="translate(204.426,37.7929) matrix(1,0,0,2.665,0,0)" color-rendering="optimizeQuality" color-interpolation="linearRGB" image-rendering="optimizeQuality"><path d="M7.2188 4.25 Q5.5625 4.25 4.5078 3.75 Q3.4531 3.25 2.8672 2.2344 Q2.2812 1.2188 2.0234 -0.4141 Q1.7656 -2.0469 1.7656 -4.8438 Q1.7656 -7.625 2.0234 -9.2656 Q2.2812 -10.9062 2.8672 -11.9453 Q3.4531 -12.9844 4.5078 -13.5 Q5.5625 -14.0156 7.2188 -14.0156 L7.2188 -13.2188 Q6.5312 -13.2188 6 -13.0938 Q5.4062 -12.9531 4.9844 -12.5625 Q4.5156 -12.1406 4.2344 -11.375 Q3.8906 -10.4688 3.7188 -8.9844 Q3.5469 -7.4062 3.5469 -4.9219 Q3.5469 -2.7188 3.6953 -1.1797 Q3.8438 0.3594 4.1875 1.3281 Q4.4531 2.1562 4.8594 2.6094 Q5.2188 3.0156 5.7188 3.2188 Q6.2969 3.4531 7.2188 3.4531 L7.2188 4.25 Z" stroke="none"/></g><g text-rendering="optimizeLegibility" stroke-width="1.6667" color-interpolation="linearRGB" color-rendering="optimizeQuality" image-rendering="optimizeQuality"><line y2="24.78" fill="none" x1="215.3226" x2="252.9319" y1="24.78"/><path d="M2.9375 -0.4219 Q2.6094 1.1094 2.0938 2.0078 Q1.5781 2.9062 0.75 3.3438 Q-0.0781 3.7812 -1.2812 3.7812 Q-1.5469 3.7812 -1.7969 3.7578 Q-2.0469 3.7344 -2.2031 3.6875 L-1.9531 2.75 Q-1.7969 2.7969 -1.6094 2.8125 Q-1.4219 2.8281 -1.2188 2.8281 Q-0.6406 2.8281 -0.2266 2.5625 Q0.1875 2.2969 0.5234 1.6484 Q0.8594 1 1.1094 -0.1406 L3.4062 -10.4375 Q3.5 -10.8594 3.5547 -11.2812 Q3.6094 -11.7031 3.6094 -12 Q3.6094 -12.4688 3.375 -12.6484 Q3.1406 -12.8281 2.6562 -12.8594 L2.7656 -13.3281 L6.6719 -13.3281 L6.5625 -12.8594 Q6.1875 -12.7812 6.0312 -12.6797 Q5.875 -12.5781 5.7422 -12.3828 Q5.6094 -12.1875 5.4766 -11.7734 Q5.3438 -11.3594 5.1406 -10.4219 L2.9375 -0.4219 Z" stroke-width="1" transform="translate(217.5257,18.4876)" stroke="none"/></g><g text-rendering="optimizeLegibility" transform="translate(224.1976,9.8783)" color-rendering="optimizeQuality" color-interpolation="linearRGB" image-rendering="optimizeQuality"><path d="M4.7969 -1.0938 Q5.1406 -1.0938 5.3438 -1.1328 Q5.5469 -1.1719 5.6719 -1.2734 Q5.7969 -1.375 5.8672 -1.5234 Q5.9375 -1.6719 6.0469 -2 L6.625 -2 L6.5156 0 L0.875 0 L0.875 -0.3281 Q1.1719 -1.0469 1.6719 -1.7969 Q2.1719 -2.5469 3.0938 -3.5625 Q3.8906 -4.4375 4.2344 -4.8906 Q4.6094 -5.3906 4.7969 -5.75 Q4.9844 -6.1094 5.0703 -6.4219 Q5.1562 -6.7344 5.1562 -7.0625 Q5.1562 -7.5781 4.9922 -7.9688 Q4.8281 -8.3594 4.4922 -8.5859 Q4.1562 -8.8125 3.6406 -8.8125 Q2.3594 -8.8125 1.9219 -7.3906 L1.0938 -7.3906 L1.0938 -8.7031 Q1.9219 -9.0938 2.6406 -9.2656 Q3.3594 -9.4375 3.9375 -9.4375 Q5.2031 -9.4375 5.8516 -8.8828 Q6.5 -8.3281 6.5 -7.2656 Q6.5 -6.9062 6.4297 -6.6016 Q6.3594 -6.2969 6.2031 -6 Q6.0469 -5.7031 5.7891 -5.3594 Q5.5312 -5.0156 5.2188 -4.6641 Q4.9062 -4.3125 4.125 -3.5 Q2.8281 -2.125 2.2188 -1.0938 L4.7969 -1.0938 Z" stroke="none"/></g><g text-rendering="optimizeLegibility" transform="translate(231.5882,18.4876)" color-rendering="optimizeQuality" color-interpolation="linearRGB" image-rendering="optimizeQuality"><path d="M1.2344 -5.0469 L1.2344 -6.3906 L9.8281 -6.3906 L9.8281 -5.0469 L1.2344 -5.0469 Z" stroke="none"/></g><g text-rendering="optimizeLegibility" transform="translate(243.4163,18.4876)" color-rendering="optimizeQuality" color-interpolation="linearRGB" image-rendering="optimizeQuality"><path d="M6.7812 -2.5469 Q6.7812 -1.9844 6.8516 -1.6953 Q6.9219 -1.4062 7.0781 -1.2266 Q7.2344 -1.0469 7.5391 -0.9453 Q7.8438 -0.8438 8.3047 -0.7891 Q8.7656 -0.7344 9.5156 -0.7188 L9.5156 0 L2.2969 0 L2.2969 -0.7188 Q3.375 -0.7656 3.8438 -0.8438 Q4.3125 -0.9219 4.5547 -1.0938 Q4.7969 -1.2656 4.9062 -1.5625 Q5.0156 -1.8594 5.0156 -2.5469 L5.0156 -10.4688 Q5.0156 -10.8594 4.8828 -11.0391 Q4.75 -11.2188 4.4844 -11.2188 Q4.1719 -11.2188 3.5938 -10.8984 Q3.0156 -10.5781 2.1719 -10.0156 L1.7344 -10.7656 L6.3125 -13.4844 L6.8438 -13.4844 Q6.7812 -12.5469 6.7812 -10.8906 L6.7812 -2.5469 Z" stroke="none"/></g><g text-rendering="optimizeLegibility" transform="translate(229.3929,40.7755)" color-rendering="optimizeQuality" color-interpolation="linearRGB" image-rendering="optimizeQuality"><path d="M6.8594 -1.5625 Q7.3281 -1.5625 7.625 -1.625 Q7.9219 -1.6875 8.0938 -1.8203 Q8.2656 -1.9531 8.375 -2.1719 Q8.4844 -2.3906 8.6406 -2.8594 L9.4688 -2.8594 L9.2969 0 L1.2656 0 L1.2656 -0.4688 Q1.6875 -1.5 2.3984 -2.5703 Q3.1094 -3.6406 4.4219 -5.0938 Q5.5469 -6.3438 6.0469 -7 Q6.5938 -7.7031 6.8594 -8.2109 Q7.125 -8.7188 7.2422 -9.1719 Q7.3594 -9.625 7.3594 -10.0938 Q7.3594 -10.8281 7.125 -11.3828 Q6.8906 -11.9375 6.4062 -12.2656 Q5.9219 -12.5938 5.2031 -12.5938 Q3.375 -12.5938 2.7344 -10.5625 L1.5469 -10.5625 L1.5469 -12.4375 Q2.7344 -12.9844 3.7656 -13.2344 Q4.7969 -13.4844 5.6094 -13.4844 Q7.4375 -13.4844 8.3594 -12.6875 Q9.2812 -11.8906 9.2812 -10.375 Q9.2812 -9.8594 9.1797 -9.4297 Q9.0781 -9 8.8594 -8.5703 Q8.6406 -8.1406 8.2734 -7.6562 Q7.9062 -7.1719 7.4531 -6.6641 Q7 -6.1562 5.9062 -4.9844 Q4.0469 -3.0312 3.1719 -1.5625 L6.8594 -1.5625 Z" stroke="none"/></g><g text-rendering="optimizeLegibility" transform="translate(257.042,32)" color-rendering="optimizeQuality" color-interpolation="linearRGB" image-rendering="optimizeQuality"><path d="M1.2344 -5.0469 L1.2344 -6.3906 L9.8281 -6.3906 L9.8281 -5.0469 L1.2344 -5.0469 Z" stroke="none"/></g><g text-rendering="optimizeLegibility" transform="translate(268.8701,32)" color-rendering="optimizeQuality" color-interpolation="linearRGB" image-rendering="optimizeQuality"><path d="M4.9375 -13.9688 L5.5156 -13.9688 L2.9688 -2.4375 Q2.8594 -1.9688 2.8281 -1.7344 Q2.7969 -1.5 2.7969 -1.3281 Q2.7969 -1.0312 2.8984 -0.8672 Q3 -0.7031 3.2031 -0.6172 Q3.4062 -0.5312 3.875 -0.4844 L3.7969 0 L0.75 0 L3.2656 -11.2188 Q3.375 -11.6406 3.4141 -11.8594 Q3.4531 -12.0781 3.4688 -12.2734 Q3.4844 -12.4688 3.4844 -12.6094 Q3.4844 -12.9062 3.375 -13.0547 Q3.2656 -13.2031 3.0703 -13.2734 Q2.875 -13.3438 2.3594 -13.375 L2.4688 -13.875 L4.9375 -13.9688 Z" stroke="none"/></g><g text-rendering="optimizeLegibility" transform="translate(274.3857,32)" color-rendering="optimizeQuality" color-interpolation="linearRGB" image-rendering="optimizeQuality"><path d="M9.2031 0 L6.1406 0 L7.375 -4.9688 Q7.4844 -5.4375 7.6016 -6.0156 Q7.7188 -6.5938 7.7188 -7.0469 Q7.7188 -7.75 7.4766 -8.0469 Q7.2344 -8.3438 6.7344 -8.3438 Q6.3125 -8.3438 5.8438 -8.0312 Q5.375 -7.7188 4.8594 -7.0859 Q4.3438 -6.4531 3.9844 -5.8047 Q3.625 -5.1562 3.4219 -4.2344 L2.5469 0 L0.8438 0 L2.3281 -6.6719 Q2.3906 -6.8906 2.4688 -7.3359 Q2.5469 -7.7812 2.5469 -8.0625 Q2.5469 -8.3438 2.4688 -8.4922 Q2.3906 -8.6406 2.1875 -8.7188 Q1.9844 -8.7969 1.5 -8.8125 L1.625 -9.3438 L3.8438 -9.4219 L4.3906 -9.4219 L3.7344 -6.8906 L3.8594 -6.8438 Q4.8125 -8.1875 5.7031 -8.8438 Q6.5938 -9.5 7.4844 -9.5 Q8.4219 -9.5 8.9141 -8.9766 Q9.4062 -8.4531 9.4062 -7.4219 Q9.4062 -7.0781 9.3438 -6.6562 Q9.2812 -6.2344 9.2031 -5.9219 L8.375 -2.4375 Q8.2188 -1.7344 8.2188 -1.3281 Q8.2188 -1.0312 8.3125 -0.8672 Q8.4062 -0.7031 8.6094 -0.6172 Q8.8125 -0.5312 9.2812 -0.4844 L9.2031 0 Z" stroke="none"/></g><g text-rendering="optimizeLegibility" transform="translate(285.9951,32)" color-rendering="optimizeQuality" color-interpolation="linearRGB" image-rendering="optimizeQuality"><path d="M2.9375 -0.4219 Q2.6094 1.1094 2.0938 2.0078 Q1.5781 2.9062 0.75 3.3438 Q-0.0781 3.7812 -1.2812 3.7812 Q-1.5469 3.7812 -1.7969 3.7578 Q-2.0469 3.7344 -2.2031 3.6875 L-1.9531 2.75 Q-1.7969 2.7969 -1.6094 2.8125 Q-1.4219 2.8281 -1.2188 2.8281 Q-0.6406 2.8281 -0.2266 2.5625 Q0.1875 2.2969 0.5234 1.6484 Q0.8594 1 1.1094 -0.1406 L3.4062 -10.4375 Q3.5 -10.8594 3.5547 -11.2812 Q3.6094 -11.7031 3.6094 -12 Q3.6094 -12.4688 3.375 -12.6484 Q3.1406 -12.8281 2.6562 -12.8594 L2.7656 -13.3281 L6.6719 -13.3281 L6.5625 -12.8594 Q6.1875 -12.7812 6.0312 -12.6797 Q5.875 -12.5781 5.7422 -12.3828 Q5.6094 -12.1875 5.4766 -11.7734 Q5.3438 -11.3594 5.1406 -10.4219 L2.9375 -0.4219 Z" stroke="none"/></g><g text-rendering="optimizeLegibility" transform="translate(294.2451,37.7929) matrix(1,0,0,2.665,0,0)" color-rendering="optimizeQuality" color-interpolation="linearRGB" image-rendering="optimizeQuality"><path d="M0.4219 -14.0156 Q2.0781 -14.0156 3.1328 -13.5156 Q4.1875 -13.0156 4.7734 -12 Q5.3594 -10.9844 5.6172 -9.3516 Q5.875 -7.7188 5.875 -4.9219 Q5.875 -2.1562 5.6172 -0.5078 Q5.3594 1.1406 4.7734 2.1797 Q4.1875 3.2188 3.1328 3.7344 Q2.0781 4.25 0.4219 4.25 L0.4219 3.4531 Q1.1094 3.4531 1.625 3.3281 Q2.2344 3.1875 2.6406 2.7969 Q3.1094 2.375 3.4062 1.6094 Q3.75 0.7031 3.9219 -0.7812 Q4.0938 -2.3594 4.0938 -4.8438 Q4.0938 -7.0469 3.9453 -8.5859 Q3.7969 -10.125 3.4531 -11.0938 Q3.1875 -11.9219 2.7812 -12.375 Q2.4062 -12.7812 1.9219 -12.9844 Q1.3438 -13.2188 0.4219 -13.2188 L0.4219 -14.0156 Z" stroke="none"/></g></g></svg>