<?xml version="1.0" encoding="UTF-8" standalone="no"?><svg xmlns="http://www.w3.org/2000/svg" xmlns:xlink="http://www.w3.org/1999/xlink" stroke-dasharray="none" shape-rendering="auto" font-family="'Dialog'" width="15.812600" text-rendering="auto" fill-opacity="1" contentScriptType="text/ecmascript" color-interpolation="auto" color-rendering="auto" preserveAspectRatio="xMidYMid meet" font-size="12" fill="black" stroke="black" image-rendering="auto" stroke-miterlimit="10" zoomAndPan="magnify" version="1.0" stroke-linecap="square" stroke-linejoin="miter" contentStyleType="text/css" font-style="normal" height="22" stroke-width="1" stroke-dashoffset="0" font-weight="normal" stroke-opacity="1" y="-6.000000"><!--Converted from MathML using JEuclid--><defs id="genericDefs"/><g><g text-rendering="optimizeLegibility" transform="translate(0,16)" color-rendering="optimizeQuality" color-interpolation="linearRGB" image-rendering="optimizeQuality"><path d="M2.0938 -2.6406 Q2.3281 -1.75 2.8359 -1.3047 Q3.3438 -0.8594 4.2031 -0.8594 Q4.9375 -0.8594 5.3125 -1.1953 Q5.6875 -1.5312 5.6875 -2.1562 Q5.6875 -2.5625 5.5156 -2.8438 Q5.3438 -3.125 4.9453 -3.3828 Q4.5469 -3.6406 3.5938 -4.0625 Q3.0625 -4.2969 2.5859 -4.5781 Q2.1094 -4.8594 1.7578 -5.2188 Q1.4062 -5.5781 1.2031 -6.0156 Q1 -6.4531 1 -7 Q1 -7.875 1.5078 -8.5156 Q2.0156 -9.1562 2.9531 -9.5 Q3.8906 -9.8438 5.1094 -9.8438 Q5.8281 -9.8438 6.5078 -9.7891 Q7.1875 -9.7344 8.2656 -9.5312 L8.2656 -7.25 L6.9844 -7.25 Q6.7656 -7.875 6.4922 -8.2188 Q6.2188 -8.5625 5.8984 -8.6953 Q5.5781 -8.8281 5.125 -8.8281 Q4.4844 -8.8281 4.1016 -8.5391 Q3.7188 -8.25 3.7188 -7.7188 Q3.7188 -7.3438 3.8594 -7.0781 Q4 -6.8125 4.3516 -6.5625 Q4.7031 -6.3125 5.7031 -5.9062 Q6.625 -5.5156 7.2031 -5.1016 Q7.7812 -4.6875 8.0781 -4.1484 Q8.375 -3.6094 8.375 -2.875 Q8.375 -2.0938 8.0859 -1.5234 Q7.7969 -0.9531 7.2656 -0.5781 Q6.7344 -0.2031 6 -0.0234 Q5.2656 0.1562 4.375 0.1562 Q2.7656 0.1562 0.7969 -0.2969 L0.7969 -2.6406 L2.0938 -2.6406 Z" stroke="none"/></g><g text-rendering="optimizeLegibility" transform="translate(-1.2119,9.7188) matrix(1.1577,0,0,1,0,0)" color-rendering="optimizeQuality" color-interpolation="linearRGB" image-rendering="optimizeQuality"><path d="M5.6562 -4.5625 L4.1094 -8.1094 L2.6094 -4.5625 L1.0469 -4.5625 L3.3281 -9.4375 L4.9531 -9.4375 L7.2344 -4.5625 L5.6562 -4.5625 Z" stroke="none"/></g><g text-rendering="optimizeLegibility" transform="translate(8.375,21.0469)" color-rendering="optimizeQuality" color-interpolation="linearRGB" image-rendering="optimizeQuality"><path d="M6.375 0 L4.2344 0 L5.0938 -3.4688 Q5.1875 -3.8438 5.2578 -4.2344 Q5.3281 -4.625 5.3281 -4.9375 Q5.3281 -5.4219 5.1641 -5.6328 Q5 -5.8438 4.6094 -5.8438 Q4.3281 -5.8438 3.9922 -5.6094 Q3.6562 -5.375 3.2812 -4.9062 Q2.9062 -4.4375 2.6875 -4 Q2.4688 -3.5625 2.3281 -2.9531 L1.7031 0 L0.5312 0 L2.2812 -7.8125 Q2.3594 -8.1562 2.3906 -8.3125 Q2.4219 -8.4688 2.4375 -8.5938 Q2.4531 -8.7188 2.4531 -8.8281 Q2.4531 -9.1094 2.2734 -9.2266 Q2.0938 -9.3438 1.6406 -9.3594 L1.7344 -9.7188 L3.4531 -9.7812 L3.8594 -9.7812 L2.6875 -5.0312 L2.7656 -5.0156 Q3.4062 -5.8594 3.9844 -6.25 Q4.5625 -6.6406 5.1719 -6.6406 Q5.8281 -6.6406 6.1719 -6.2734 Q6.5156 -5.9062 6.5156 -5.2031 Q6.5156 -4.7656 6.375 -4.1406 L5.7969 -1.7031 Q5.7344 -1.4219 5.7109 -1.2422 Q5.6875 -1.0625 5.6875 -0.9375 Q5.6875 -0.7188 5.7578 -0.6016 Q5.8281 -0.4844 5.9766 -0.4297 Q6.125 -0.375 6.4375 -0.3281 L6.375 0 Z" stroke="none"/></g></g></svg>