<?xml version="1.0" encoding="UTF-8" standalone="no"?><svg xmlns="http://www.w3.org/2000/svg" xmlns:xlink="http://www.w3.org/1999/xlink" stroke-dasharray="none" shape-rendering="auto" font-family="'Dialog'" width="247.812600" text-rendering="auto" fill-opacity="1" contentScriptType="text/ecmascript" color-interpolation="auto" color-rendering="auto" preserveAspectRatio="xMidYMid meet" font-size="12" fill="black" stroke="black" image-rendering="auto" stroke-miterlimit="10" zoomAndPan="magnify" version="1.0" stroke-linecap="square" stroke-linejoin="miter" contentStyleType="text/css" font-style="normal" height="26" stroke-width="1" stroke-dashoffset="0" font-weight="normal" stroke-opacity="1" y="-11.000000"><!--Converted from MathML using JEuclid--><defs id="genericDefs"/><g><g text-rendering="optimizeLegibility" transform="translate(0,15)" color-rendering="optimizeQuality" color-interpolation="linearRGB" image-rendering="optimizeQuality"><path d="M6.5 -2.2656 Q5.625 -1.0312 4.7891 -0.4453 Q3.9531 0.1406 3.0938 0.1406 Q2.0156 0.1406 1.4219 -0.6641 Q0.8281 -1.4688 0.8281 -2.9375 Q0.8281 -3.875 1.0469 -4.8203 Q1.2656 -5.7656 1.6953 -6.6094 Q2.125 -7.4531 2.7344 -8.0938 Q3.3438 -8.7344 4.1406 -9.1172 Q4.9375 -9.5 5.875 -9.5 Q6.4688 -9.5 7.0156 -9.3594 Q7.5625 -9.2188 8.1562 -8.8594 L9.0469 -9.5 L9.6719 -9.3438 L7.1719 1.7656 Q7.0156 2.5 7.0156 2.875 Q7.0156 3.1719 7.1094 3.3359 Q7.2031 3.5 7.4141 3.5859 Q7.625 3.6719 8.0938 3.7188 L8.0156 4.2031 L4.9688 4.2031 L6.6406 -2.2031 L6.5 -2.2656 ZM7.2969 -5.9531 Q7.3906 -6.375 7.4141 -6.6875 Q7.4375 -7 7.4375 -7.2812 Q7.4375 -8.0312 7.1172 -8.3828 Q6.7969 -8.7344 6.0469 -8.7344 Q5.6406 -8.7344 5.2656 -8.6016 Q4.8906 -8.4688 4.5078 -8.1641 Q4.125 -7.8594 3.7812 -7.3594 Q3.4375 -6.8594 3.1562 -6.1484 Q2.875 -5.4375 2.7188 -4.6172 Q2.5625 -3.7969 2.5625 -3.0312 Q2.5625 -2.0156 2.8359 -1.5078 Q3.1094 -1 3.7656 -1 Q4.0781 -1 4.4062 -1.1406 Q4.7344 -1.2812 5.1328 -1.6484 Q5.5312 -2.0156 6.0312 -2.7188 Q6.5 -3.375 6.7656 -4.0156 Q7.0312 -4.6562 7.2031 -5.5312 L7.2969 -5.9531 Z" stroke="none"/></g><g text-rendering="optimizeLegibility" transform="translate(11.4688,22.2812)" color-rendering="optimizeQuality" color-interpolation="linearRGB" image-rendering="optimizeQuality"><path d="M3.8438 -9.2188 L3.5312 -7.8906 L2.3281 -7.8906 L2.6406 -9.2188 L3.8438 -9.2188 ZM1.7969 0.1094 Q1.5781 1.1562 1.2031 1.7891 Q0.8281 2.4219 0.2188 2.7422 Q-0.3906 3.0625 -1.2188 3.0625 Q-1.5625 3.0625 -1.7969 2.9844 L-1.6406 2.3906 Q-1.5312 2.4219 -1.3984 2.4297 Q-1.2656 2.4375 -1.125 2.4375 Q-0.7969 2.4375 -0.5625 2.3438 Q-0.3281 2.25 -0.1328 2.0156 Q0.0625 1.7812 0.2266 1.375 Q0.3906 0.9688 0.5469 0.3125 L1.6406 -4.6094 Q1.7344 -4.9844 1.7734 -5.2266 Q1.8125 -5.4688 1.8125 -5.6406 Q1.8125 -5.8281 1.75 -5.9375 Q1.6875 -6.0469 1.5547 -6.1016 Q1.4219 -6.1562 1.0781 -6.1719 L1.1562 -6.5312 L2.8281 -6.5938 L3.2188 -6.5938 L1.7969 0.1094 Z" stroke="none"/></g><g text-rendering="optimizeLegibility" transform="translate(9.6719,8.7656)" color-rendering="optimizeQuality" color-interpolation="linearRGB" image-rendering="optimizeQuality"><path d="M2.7969 0.1094 Q1.7344 0.1094 1.1484 -0.4844 Q0.5625 -1.0781 0.5625 -2.1875 Q0.5625 -2.5938 0.6719 -3.1562 Q0.7969 -3.875 1.0469 -4.4219 Q1.3438 -5.1094 1.8281 -5.6172 Q2.3125 -6.125 2.9375 -6.3828 Q3.5625 -6.6406 4.2812 -6.6406 Q5.0625 -6.6406 5.5703 -6.3438 Q6.0781 -6.0469 6.2969 -5.5312 Q6.5156 -5.0156 6.5156 -4.3281 Q6.5156 -3.7188 6.3438 -3.0312 Q6.1094 -2.0312 5.6328 -1.3203 Q5.1562 -0.6094 4.4453 -0.25 Q3.7344 0.1094 2.7969 0.1094 ZM1.7656 -1.8906 Q1.7656 -1.1406 2.0781 -0.7812 Q2.3906 -0.4219 3.0156 -0.4219 Q3.6875 -0.4219 4.2031 -1.0234 Q4.7188 -1.625 5.0234 -2.7109 Q5.3281 -3.7969 5.3281 -4.6094 Q5.3281 -5.3594 5.0391 -5.7266 Q4.75 -6.0938 4.1406 -6.0938 Q3.4375 -6.0938 2.9062 -5.5 Q2.375 -4.9062 2.0703 -3.7969 Q1.7656 -2.6875 1.7656 -1.8906 Z" stroke="none"/></g><g text-rendering="optimizeLegibility" transform="translate(16.9688,15)" color-rendering="optimizeQuality" color-interpolation="linearRGB" image-rendering="optimizeQuality"><path d="M1.2188 -7.0625 L1.2188 -8.4219 L9.8594 -8.4219 L9.8594 -7.0625 L1.2188 -7.0625 ZM1.2188 -3.0156 L1.2188 -4.3594 L9.8594 -4.3594 L9.8594 -3.0156 L1.2188 -3.0156 Z" stroke="none"/></g><g text-rendering="optimizeLegibility" transform="translate(28.8281,15)" color-rendering="optimizeQuality" color-interpolation="linearRGB" image-rendering="optimizeQuality"><path d="M3.5781 -7.7188 L3.7188 -7.6875 Q4.2656 -8.3438 4.7188 -8.7188 Q5.1719 -9.0938 5.7031 -9.2969 Q6.2344 -9.5 6.9219 -9.5 Q7.4844 -9.5 7.9375 -9.4375 L7.9375 -7.2031 L6.8438 -7.2031 Q6.6094 -7.7188 6.3438 -7.9609 Q6.0781 -8.2031 5.6094 -8.2031 Q5.2656 -8.2031 4.9219 -8 Q4.5781 -7.7969 4.25 -7.4062 Q3.9219 -7.0156 3.8047 -6.6719 Q3.6875 -6.3281 3.6875 -5.8594 L3.6875 -2.4375 Q3.6875 -1.5469 3.7891 -1.2109 Q3.8906 -0.875 4.1406 -0.7188 Q4.3906 -0.5625 4.8906 -0.4844 L4.8906 0 L0.9531 0 L0.9531 -0.4844 Q1.3281 -0.5938 1.4922 -0.6797 Q1.6562 -0.7656 1.7734 -0.9219 Q1.8906 -1.0781 1.9453 -1.4062 Q2 -1.7344 2 -2.4062 L2 -6.6719 Q2 -7.2969 1.9844 -7.6797 Q1.9688 -8.0625 1.8516 -8.2891 Q1.7344 -8.5156 1.4922 -8.625 Q1.25 -8.7344 0.8125 -8.8125 L0.8125 -9.3281 L3.0938 -9.4219 L3.6875 -9.4219 L3.5781 -7.7188 ZM14.5938 -1.3906 L14.4531 -1.4375 Q13.5938 -0.5625 12.8516 -0.2031 Q12.1094 0.1562 11.2656 0.1562 Q10.5156 0.1562 9.9531 -0.1328 Q9.3906 -0.4219 9.0859 -0.9453 Q8.7812 -1.4688 8.7812 -2.1562 Q8.7812 -3.5781 10.1953 -4.3516 Q11.6094 -5.125 14.4219 -5.25 L14.4219 -5.8906 Q14.4219 -6.9062 14.2266 -7.4922 Q14.0312 -8.0781 13.6172 -8.3516 Q13.2031 -8.625 12.5 -8.625 Q11.7344 -8.625 11.2656 -8.2266 Q10.7969 -7.8281 10.5625 -7.0156 L9.2969 -7.0156 L9.2969 -8.2969 Q10.2344 -8.7812 10.8594 -9.0078 Q11.4844 -9.2344 12.1094 -9.3672 Q12.7344 -9.5 13.375 -9.5 Q14.3438 -9.5 14.9297 -9.1953 Q15.5156 -8.8906 15.8047 -8.2578 Q16.0938 -7.625 16.0938 -6.3438 L16.0938 -2.9375 Q16.0938 -2.2188 16.1016 -1.9219 Q16.1094 -1.625 16.1641 -1.3672 Q16.2188 -1.1094 16.3125 -0.9609 Q16.4062 -0.8125 16.6016 -0.7031 Q16.7969 -0.5938 17.2188 -0.4844 L17.2188 0 L14.5469 0 L14.5938 -1.3906 ZM14.4219 -4.4531 Q12.4375 -4.4375 11.4531 -3.9297 Q10.4688 -3.4219 10.4688 -2.3906 Q10.4688 -1.8438 10.6953 -1.5156 Q10.9219 -1.1875 11.2656 -1.0703 Q11.6094 -0.9531 12.0781 -0.9531 Q12.7344 -0.9531 13.2812 -1.2734 Q13.8281 -1.5938 14.125 -2.0938 Q14.4219 -2.5938 14.4219 -3.0781 L14.4219 -4.4531 ZM25.5469 -10.6094 Q25.5469 -11.5469 25.5312 -11.9219 Q25.5156 -12.2969 25.4531 -12.5547 Q25.3906 -12.8125 25.2734 -12.9609 Q25.1562 -13.1094 24.9688 -13.1953 Q24.7812 -13.2812 24.2812 -13.375 L24.2812 -13.875 L26.6406 -13.9688 L27.2188 -13.9688 L27.2188 -2.6719 Q27.2188 -1.9062 27.25 -1.5781 Q27.2812 -1.25 27.375 -1.0547 Q27.4688 -0.8594 27.6797 -0.7344 Q27.8906 -0.6094 28.4219 -0.5156 L28.4219 0 L26.1094 0.0938 L25.5312 0.0938 L25.6406 -1.5 L25.5 -1.5469 Q24.8906 -0.8906 24.4375 -0.5625 Q23.9844 -0.2344 23.4688 -0.0391 Q22.9531 0.1562 22.3594 0.1562 Q20.7656 0.1562 19.8984 -1.0625 Q19.0312 -2.2812 19.0312 -4.5781 Q19.0312 -6.1719 19.5938 -7.2891 Q20.1562 -8.4062 21.1172 -8.9531 Q22.0781 -9.5 23.2812 -9.5 Q23.9219 -9.5 24.4531 -9.3984 Q24.9844 -9.2969 25.5469 -9.0625 L25.5469 -10.6094 ZM25.5469 -5.7969 Q25.5469 -6.5469 25.4766 -7.0078 Q25.4062 -7.4688 25.2422 -7.7812 Q25.0781 -8.0938 24.8047 -8.3125 Q24.5312 -8.5312 24.2031 -8.625 Q23.875 -8.7188 23.4219 -8.7188 Q22.1719 -8.7188 21.5156 -7.7188 Q20.8594 -6.7188 20.8594 -4.8438 Q20.8594 -2.9688 21.3984 -1.9922 Q21.9375 -1.0156 23.0312 -1.0156 Q23.4531 -1.0156 23.7422 -1.0859 Q24.0312 -1.1562 24.3047 -1.3203 Q24.5781 -1.4844 24.8594 -1.7656 Q25.1406 -2.0469 25.2734 -2.2812 Q25.4062 -2.5156 25.4766 -2.8203 Q25.5469 -3.125 25.5469 -3.6094 L25.5469 -5.7969 ZM32.7344 -13.1719 L32.7344 -11.2656 L30.9375 -11.2656 L30.9375 -13.1719 L32.7344 -13.1719 ZM29.9531 -0.4844 Q30.3281 -0.5938 30.4922 -0.6797 Q30.6562 -0.7656 30.7656 -0.9219 Q30.875 -1.0781 30.9375 -1.4062 Q31 -1.7344 31 -2.4062 L31 -6.6719 Q31 -7.2969 30.9844 -7.6797 Q30.9688 -8.0625 30.8516 -8.2891 Q30.7344 -8.5156 30.4922 -8.625 Q30.25 -8.7344 29.8125 -8.8125 L29.8125 -9.3438 L32.0938 -9.4219 L32.6875 -9.4219 L32.6875 -2.4375 Q32.6875 -1.6094 32.7656 -1.2812 Q32.8438 -0.9531 33.0625 -0.7812 Q33.2812 -0.6094 33.7812 -0.4844 L33.7812 0 L29.9531 0 L29.9531 -0.4844 ZM40.2031 0.1562 Q38.1719 0.1562 37.1016 -1.0391 Q36.0312 -2.2344 36.0312 -4.5781 Q36.0312 -6.1875 36.5938 -7.3047 Q37.1562 -8.4219 38.1328 -8.9609 Q39.1094 -9.5 40.3594 -9.5 Q42.4375 -9.5 43.5156 -8.2891 Q44.5938 -7.0781 44.5938 -4.7969 Q44.5938 -3.1719 44.0547 -2.0625 Q43.5156 -0.9531 42.5312 -0.3984 Q41.5469 0.1562 40.2031 0.1562 ZM37.875 -4.7812 Q37.875 -2.7812 38.5156 -1.6953 Q39.1562 -0.6094 40.3438 -0.6094 Q41 -0.6094 41.4609 -0.9297 Q41.9219 -1.25 42.2031 -1.7891 Q42.4844 -2.3281 42.6172 -3.0312 Q42.75 -3.7344 42.75 -4.5156 Q42.75 -5.9531 42.4297 -6.8984 Q42.1094 -7.8438 41.5625 -8.2891 Q41.0156 -8.7344 40.3125 -8.7344 Q39.125 -8.7344 38.5 -7.7109 Q37.875 -6.6875 37.875 -4.7812 ZM53.4844 -7.2031 L52.5469 -7.2031 Q52.3438 -7.7812 52.0469 -8.1172 Q51.75 -8.4531 51.3828 -8.5938 Q51.0156 -8.7344 50.4688 -8.7344 Q49.6875 -8.7344 49.2266 -8.3672 Q48.7656 -8 48.7656 -7.3594 Q48.7656 -6.9219 48.9531 -6.625 Q49.1406 -6.3281 49.5312 -6.0781 Q49.9219 -5.8281 50.9062 -5.4062 Q51.9062 -4.9688 52.4453 -4.6094 Q52.9844 -4.25 53.2891 -3.7734 Q53.5938 -3.2969 53.5938 -2.625 Q53.5938 -1.8594 53.3359 -1.3281 Q53.0781 -0.7969 52.5938 -0.4688 Q52.1094 -0.1406 51.4531 0.0078 Q50.7969 0.1562 50.0156 0.1562 Q49.1875 0.1562 48.4219 0.0312 Q47.6562 -0.0938 46.9219 -0.2812 L46.9219 -2.3281 L47.875 -2.3281 Q48.1406 -1.4219 48.6562 -1.0156 Q49.1719 -0.6094 50.0781 -0.6094 Q50.4375 -0.6094 50.7734 -0.6875 Q51.1094 -0.7656 51.375 -0.9375 Q51.6406 -1.1094 51.7969 -1.3984 Q51.9531 -1.6875 51.9531 -2.125 Q51.9531 -2.625 51.7578 -2.9375 Q51.5625 -3.25 51.1484 -3.5078 Q50.7344 -3.7656 49.7031 -4.2031 Q48.8125 -4.5781 48.2734 -4.9297 Q47.7344 -5.2812 47.4297 -5.7578 Q47.125 -6.2344 47.125 -6.8906 Q47.125 -7.7031 47.5625 -8.2891 Q48 -8.875 48.8203 -9.1875 Q49.6406 -9.5 50.7344 -9.5 Q51.375 -9.5 51.9766 -9.4375 Q52.5781 -9.375 53.4844 -9.1875 L53.4844 -7.2031 ZM58.7344 -13.1719 L58.7344 -11.2656 L56.9375 -11.2656 L56.9375 -13.1719 L58.7344 -13.1719 ZM55.9531 -0.4844 Q56.3281 -0.5938 56.4922 -0.6797 Q56.6562 -0.7656 56.7656 -0.9219 Q56.875 -1.0781 56.9375 -1.4062 Q57 -1.7344 57 -2.4062 L57 -6.6719 Q57 -7.2969 56.9844 -7.6797 Q56.9688 -8.0625 56.8516 -8.2891 Q56.7344 -8.5156 56.4922 -8.625 Q56.25 -8.7344 55.8125 -8.8125 L55.8125 -9.3438 L58.0938 -9.4219 L58.6875 -9.4219 L58.6875 -2.4375 Q58.6875 -1.6094 58.7656 -1.2812 Q58.8438 -0.9531 59.0625 -0.7812 Q59.2812 -0.6094 59.7812 -0.4844 L59.7812 0 L55.9531 0 L55.9531 -0.4844 ZM61.3594 -8.8438 Q61.8438 -8.9219 62.1484 -9.1172 Q62.4531 -9.3125 62.625 -9.625 Q62.7969 -9.9375 62.8984 -10.3984 Q63 -10.8594 63.0938 -11.75 L64.4844 -11.75 L64.4844 -9.3438 L67.6406 -9.3438 L67.6406 -8.3438 L64.4844 -8.3438 L64.4844 -4 Q64.4844 -3.0625 64.5625 -2.5 Q64.6406 -1.9375 64.8594 -1.6172 Q65.0781 -1.2969 65.3516 -1.1641 Q65.625 -1.0312 66.0469 -1.0312 Q66.4375 -1.0312 66.7812 -1.1875 Q67.125 -1.3438 67.4531 -1.6562 L67.8906 -1.125 Q67.2031 -0.4531 66.5859 -0.1484 Q65.9688 0.1562 65.2969 0.1562 Q64.0312 0.1562 63.4219 -0.5938 Q62.8125 -1.3438 62.8125 -2.9375 L62.8125 -8.3438 L61.3594 -8.3438 L61.3594 -8.8438 ZM73.0781 0.7969 Q72.5469 2.0156 72.0391 2.7656 Q71.5312 3.5156 70.9219 3.8984 Q70.3125 4.2812 69.4688 4.2812 Q68.9219 4.2812 68.25 4.1562 L68.25 2.2188 L69.125 2.2188 Q69.2344 2.625 69.4141 2.7812 Q69.5938 2.9375 69.9219 2.9375 Q70.2188 2.9375 70.4453 2.8203 Q70.6719 2.7031 70.9219 2.4297 Q71.1719 2.1562 71.5078 1.5938 Q71.8438 1.0312 72.2656 0.1562 L69.5312 -7.2031 Q69.2656 -7.9062 69.1094 -8.1953 Q68.9531 -8.4844 68.7656 -8.625 Q68.5781 -8.7656 68.2031 -8.8594 L68.2031 -9.3438 L72.1719 -9.3438 L72.1719 -8.8594 Q71.7188 -8.75 71.5312 -8.6484 Q71.3438 -8.5469 71.2578 -8.3828 Q71.1719 -8.2188 71.1719 -7.9688 Q71.1719 -7.7031 71.2344 -7.4219 Q71.2969 -7.1406 71.4219 -6.7656 L73.1719 -1.8594 L75.125 -6.5469 Q75.2812 -6.9375 75.375 -7.2656 Q75.4688 -7.5938 75.4688 -7.875 Q75.4688 -8.2969 75.2422 -8.5156 Q75.0156 -8.7344 74.4531 -8.8594 L74.4531 -9.3438 L78.0938 -9.3438 L78.0938 -8.8594 Q77.7188 -8.7812 77.5156 -8.6172 Q77.3125 -8.4531 77.1016 -8.1094 Q76.8906 -7.7656 76.6094 -7.1406 L73.0781 0.7969 ZM87.9688 -8.3438 L85.6406 -8.3438 L85.6406 -2.4375 Q85.6406 -1.7812 85.7031 -1.4531 Q85.7656 -1.125 85.8828 -0.9531 Q86 -0.7812 86.2031 -0.6797 Q86.4062 -0.5781 86.8438 -0.4844 L86.8438 0 L82.8438 0 L82.8438 -0.4844 Q83.2812 -0.5938 83.4688 -0.7031 Q83.6562 -0.8125 83.7578 -0.9766 Q83.8594 -1.1406 83.9062 -1.4531 Q83.9531 -1.7656 83.9531 -2.4375 L83.9531 -8.3438 L82.7656 -8.3438 L82.7656 -8.8438 Q83.1406 -8.9062 83.2656 -8.9375 Q83.3906 -8.9688 83.5 -9.0391 Q83.6094 -9.1094 83.6953 -9.2344 Q83.7812 -9.3594 83.8438 -9.6094 Q83.9062 -9.8594 83.9375 -10.3125 Q84.0312 -11.375 84.3281 -12.0391 Q84.625 -12.7031 85.1953 -13.1719 Q85.7656 -13.6406 86.4141 -13.8359 Q87.0625 -14.0312 87.9531 -14.0312 Q88.7188 -14.0312 89.25 -13.9219 L89.25 -12.1562 L88.2969 -12.1562 Q88.1094 -12.7188 87.8594 -12.9609 Q87.6094 -13.2031 87.1562 -13.2031 Q86.8281 -13.2031 86.6094 -13.1172 Q86.3906 -13.0312 86.2109 -12.8438 Q86.0312 -12.6562 85.8984 -12.3438 Q85.7656 -12.0312 85.7031 -11.5703 Q85.6406 -11.1094 85.6406 -10.3594 L85.6406 -9.3438 L87.9688 -9.3438 L87.9688 -8.3438 ZM91.5625 -2.4375 Q91.5625 -1.6094 91.6406 -1.2812 Q91.7188 -0.9531 91.9375 -0.7812 Q92.1562 -0.6094 92.6562 -0.4844 L92.6562 0 L88.7656 0 L88.7656 -0.4844 Q89.2656 -0.6094 89.4531 -0.7422 Q89.6406 -0.875 89.7266 -1.0703 Q89.8125 -1.2656 89.8438 -1.5938 Q89.875 -1.9219 89.875 -2.4375 L89.875 -10.6094 Q89.875 -11.5469 89.8594 -11.9219 Q89.8438 -12.2969 89.7812 -12.5547 Q89.7188 -12.8125 89.6094 -12.9609 Q89.5 -13.1094 89.3047 -13.1953 Q89.1094 -13.2812 88.6094 -13.375 L88.6094 -13.875 L90.9688 -13.9688 L91.5625 -13.9688 L91.5625 -2.4375 ZM93.7188 -9.3438 L96.5 -9.3438 L96.5 -4.3594 Q96.5 -3.2188 96.5859 -2.625 Q96.6719 -2.0312 96.8516 -1.7266 Q97.0312 -1.4219 97.3516 -1.2188 Q97.6719 -1.0156 98.2344 -1.0156 Q98.6094 -1.0156 98.9531 -1.1641 Q99.2969 -1.3125 99.7109 -1.6797 Q100.125 -2.0469 100.3047 -2.4062 Q100.4844 -2.7656 100.4844 -3.25 L100.4844 -6.9062 Q100.4844 -7.4688 100.4609 -7.75 Q100.4375 -8.0312 100.3672 -8.2031 Q100.2969 -8.375 100.2031 -8.4766 Q100.1094 -8.5781 99.9375 -8.6719 Q99.7656 -8.7656 99.3906 -8.8594 L99.3906 -9.3438 L102.1719 -9.3438 L102.1719 -2.6719 Q102.1719 -1.9219 102.2031 -1.5859 Q102.2344 -1.25 102.3281 -1.0547 Q102.4219 -0.8594 102.625 -0.7344 Q102.8281 -0.6094 103.3594 -0.5156 L103.3594 0 L101.125 0.0938 L100.5312 0.0938 L100.5938 -1.5 L100.4375 -1.5469 Q99.625 -0.6719 98.8906 -0.2578 Q98.1562 0.1562 97.4219 0.1562 Q96.5312 0.1562 95.9531 -0.1953 Q95.375 -0.5469 95.0938 -1.2422 Q94.8125 -1.9375 94.8125 -3.2188 L94.8125 -6.9062 Q94.8125 -7.7188 94.75 -8.0312 Q94.6875 -8.3438 94.5 -8.5234 Q94.3125 -8.7031 93.7188 -8.8594 L93.7188 -9.3438 ZM109.0781 -5.6406 L110.3438 -7.25 Q110.5469 -7.5156 110.6797 -7.7656 Q110.8125 -8.0156 110.8125 -8.2656 Q110.8125 -8.5 110.6406 -8.6484 Q110.4688 -8.7969 110.125 -8.8594 L110.125 -9.3438 L113.3125 -9.3438 L113.3125 -8.8594 Q112.9531 -8.75 112.5625 -8.4375 Q112.1719 -8.125 111.625 -7.4375 L109.5938 -4.9531 L111.8281 -1.9531 Q112.2969 -1.3125 112.6797 -0.9688 Q113.0625 -0.625 113.4375 -0.4844 L113.4375 0 L109.5156 0 L109.5156 -0.4844 Q110.3281 -0.5781 110.3281 -1.0781 Q110.3281 -1.2969 110.2578 -1.4766 Q110.1875 -1.6562 110 -1.9062 L108.5938 -3.875 L107.0938 -1.9219 Q106.9219 -1.7031 106.8281 -1.5234 Q106.7344 -1.3438 106.7344 -1.125 Q106.7344 -0.8594 106.9141 -0.6875 Q107.0938 -0.5156 107.4844 -0.4844 L107.4844 0 L104.2188 0 L104.2188 -0.4844 Q104.5469 -0.5938 104.8047 -0.7734 Q105.0625 -0.9531 105.3359 -1.2266 Q105.6094 -1.5 106.0469 -2.0469 L108.0781 -4.5625 L106 -7.4062 Q105.5625 -8 105.3125 -8.2656 Q105.0625 -8.5312 104.8438 -8.6641 Q104.625 -8.7969 104.4062 -8.8594 L104.4062 -9.3438 L108.2344 -9.3438 L108.2344 -8.8594 Q107.4688 -8.7344 107.4688 -8.25 Q107.4688 -8.0312 107.5703 -7.8047 Q107.6719 -7.5781 107.8906 -7.3125 L109.0781 -5.6406 ZM123.9688 -8.3438 L121.6406 -8.3438 L121.6406 -2.4375 Q121.6406 -1.7812 121.7031 -1.4531 Q121.7656 -1.125 121.8828 -0.9531 Q122 -0.7812 122.2031 -0.6797 Q122.4062 -0.5781 122.8438 -0.4844 L122.8438 0 L118.8438 0 L118.8438 -0.4844 Q119.2812 -0.5938 119.4688 -0.7031 Q119.6562 -0.8125 119.7578 -0.9766 Q119.8594 -1.1406 119.9062 -1.4531 Q119.9531 -1.7656 119.9531 -2.4375 L119.9531 -8.3438 L118.7656 -8.3438 L118.7656 -8.8438 Q119.1406 -8.9062 119.2656 -8.9375 Q119.3906 -8.9688 119.5 -9.0391 Q119.6094 -9.1094 119.6953 -9.2344 Q119.7812 -9.3594 119.8438 -9.6094 Q119.9062 -9.8594 119.9375 -10.3125 Q120.0312 -11.375 120.3281 -12.0391 Q120.625 -12.7031 121.1953 -13.1719 Q121.7656 -13.6406 122.4141 -13.8359 Q123.0625 -14.0312 123.9531 -14.0312 Q124.7188 -14.0312 125.25 -13.9219 L125.25 -12.1562 L124.2969 -12.1562 Q124.1094 -12.7188 123.8594 -12.9609 Q123.6094 -13.2031 123.1562 -13.2031 Q122.8281 -13.2031 122.6094 -13.1172 Q122.3906 -13.0312 122.2109 -12.8438 Q122.0312 -12.6562 121.8984 -12.3438 Q121.7656 -12.0312 121.7031 -11.5703 Q121.6406 -11.1094 121.6406 -10.3594 L121.6406 -9.3438 L123.9688 -9.3438 L123.9688 -8.3438 ZM129.2031 0.1562 Q127.1719 0.1562 126.1016 -1.0391 Q125.0312 -2.2344 125.0312 -4.5781 Q125.0312 -6.1875 125.5938 -7.3047 Q126.1562 -8.4219 127.1328 -8.9609 Q128.1094 -9.5 129.3594 -9.5 Q131.4375 -9.5 132.5156 -8.2891 Q133.5938 -7.0781 133.5938 -4.7969 Q133.5938 -3.1719 133.0547 -2.0625 Q132.5156 -0.9531 131.5312 -0.3984 Q130.5469 0.1562 129.2031 0.1562 ZM126.875 -4.7812 Q126.875 -2.7812 127.5156 -1.6953 Q128.1562 -0.6094 129.3438 -0.6094 Q130 -0.6094 130.4609 -0.9297 Q130.9219 -1.25 131.2031 -1.7891 Q131.4844 -2.3281 131.6172 -3.0312 Q131.75 -3.7344 131.75 -4.5156 Q131.75 -5.9531 131.4297 -6.8984 Q131.1094 -7.8438 130.5625 -8.2891 Q130.0156 -8.7344 129.3125 -8.7344 Q128.125 -8.7344 127.5 -7.7109 Q126.875 -6.6875 126.875 -4.7812 ZM138.5781 -7.7188 L138.7188 -7.6875 Q139.2656 -8.3438 139.7188 -8.7188 Q140.1719 -9.0938 140.7031 -9.2969 Q141.2344 -9.5 141.9219 -9.5 Q142.4844 -9.5 142.9375 -9.4375 L142.9375 -7.2031 L141.8438 -7.2031 Q141.6094 -7.7188 141.3438 -7.9609 Q141.0781 -8.2031 140.6094 -8.2031 Q140.2656 -8.2031 139.9219 -8 Q139.5781 -7.7969 139.25 -7.4062 Q138.9219 -7.0156 138.8047 -6.6719 Q138.6875 -6.3281 138.6875 -5.8594 L138.6875 -2.4375 Q138.6875 -1.5469 138.7891 -1.2109 Q138.8906 -0.875 139.1406 -0.7188 Q139.3906 -0.5625 139.8906 -0.4844 L139.8906 0 L135.9531 0 L135.9531 -0.4844 Q136.3281 -0.5938 136.4922 -0.6797 Q136.6562 -0.7656 136.7734 -0.9219 Q136.8906 -1.0781 136.9453 -1.4062 Q137 -1.7344 137 -2.4062 L137 -6.6719 Q137 -7.2969 136.9844 -7.6797 Q136.9688 -8.0625 136.8516 -8.2891 Q136.7344 -8.5156 136.4922 -8.625 Q136.25 -8.7344 135.8125 -8.8125 L135.8125 -9.3281 L138.0938 -9.4219 L138.6875 -9.4219 L138.5781 -7.7188 ZM154.4844 -7.2031 L153.5469 -7.2031 Q153.3438 -7.7812 153.0469 -8.1172 Q152.75 -8.4531 152.3828 -8.5938 Q152.0156 -8.7344 151.4688 -8.7344 Q150.6875 -8.7344 150.2266 -8.3672 Q149.7656 -8 149.7656 -7.3594 Q149.7656 -6.9219 149.9531 -6.625 Q150.1406 -6.3281 150.5312 -6.0781 Q150.9219 -5.8281 151.9062 -5.4062 Q152.9062 -4.9688 153.4453 -4.6094 Q153.9844 -4.25 154.2891 -3.7734 Q154.5938 -3.2969 154.5938 -2.625 Q154.5938 -1.8594 154.3359 -1.3281 Q154.0781 -0.7969 153.5938 -0.4688 Q153.1094 -0.1406 152.4531 0.0078 Q151.7969 0.1562 151.0156 0.1562 Q150.1875 0.1562 149.4219 0.0312 Q148.6562 -0.0938 147.9219 -0.2812 L147.9219 -2.3281 L148.875 -2.3281 Q149.1406 -1.4219 149.6562 -1.0156 Q150.1719 -0.6094 151.0781 -0.6094 Q151.4375 -0.6094 151.7734 -0.6875 Q152.1094 -0.7656 152.375 -0.9375 Q152.6406 -1.1094 152.7969 -1.3984 Q152.9531 -1.6875 152.9531 -2.125 Q152.9531 -2.625 152.7578 -2.9375 Q152.5625 -3.25 152.1484 -3.5078 Q151.7344 -3.7656 150.7031 -4.2031 Q149.8125 -4.5781 149.2734 -4.9297 Q148.7344 -5.2812 148.4297 -5.7578 Q148.125 -6.2344 148.125 -6.8906 Q148.125 -7.7031 148.5625 -8.2891 Q149 -8.875 149.8203 -9.1875 Q150.6406 -9.5 151.7344 -9.5 Q152.375 -9.5 152.9766 -9.4375 Q153.5781 -9.375 154.4844 -9.1875 L154.4844 -7.2031 ZM156.7188 -9.3438 L159.5 -9.3438 L159.5 -4.3594 Q159.5 -3.2188 159.5859 -2.625 Q159.6719 -2.0312 159.8516 -1.7266 Q160.0312 -1.4219 160.3516 -1.2188 Q160.6719 -1.0156 161.2344 -1.0156 Q161.6094 -1.0156 161.9531 -1.1641 Q162.2969 -1.3125 162.7109 -1.6797 Q163.125 -2.0469 163.3047 -2.4062 Q163.4844 -2.7656 163.4844 -3.25 L163.4844 -6.9062 Q163.4844 -7.4688 163.4609 -7.75 Q163.4375 -8.0312 163.3672 -8.2031 Q163.2969 -8.375 163.2031 -8.4766 Q163.1094 -8.5781 162.9375 -8.6719 Q162.7656 -8.7656 162.3906 -8.8594 L162.3906 -9.3438 L165.1719 -9.3438 L165.1719 -2.6719 Q165.1719 -1.9219 165.2031 -1.5859 Q165.2344 -1.25 165.3281 -1.0547 Q165.4219 -0.8594 165.625 -0.7344 Q165.8281 -0.6094 166.3594 -0.5156 L166.3594 0 L164.125 0.0938 L163.5312 0.0938 L163.5938 -1.5 L163.4375 -1.5469 Q162.625 -0.6719 161.8906 -0.2578 Q161.1562 0.1562 160.4219 0.1562 Q159.5312 0.1562 158.9531 -0.1953 Q158.375 -0.5469 158.0938 -1.2422 Q157.8125 -1.9375 157.8125 -3.2188 L157.8125 -6.9062 Q157.8125 -7.7188 157.75 -8.0312 Q157.6875 -8.3438 157.5 -8.5234 Q157.3125 -8.7031 156.7188 -8.8594 L156.7188 -9.3438 ZM170.5781 -7.7188 L170.7188 -7.6875 Q171.2656 -8.3438 171.7188 -8.7188 Q172.1719 -9.0938 172.7031 -9.2969 Q173.2344 -9.5 173.9219 -9.5 Q174.4844 -9.5 174.9375 -9.4375 L174.9375 -7.2031 L173.8438 -7.2031 Q173.6094 -7.7188 173.3438 -7.9609 Q173.0781 -8.2031 172.6094 -8.2031 Q172.2656 -8.2031 171.9219 -8 Q171.5781 -7.7969 171.25 -7.4062 Q170.9219 -7.0156 170.8047 -6.6719 Q170.6875 -6.3281 170.6875 -5.8594 L170.6875 -2.4375 Q170.6875 -1.5469 170.7891 -1.2109 Q170.8906 -0.875 171.1406 -0.7188 Q171.3906 -0.5625 171.8906 -0.4844 L171.8906 0 L167.9531 0 L167.9531 -0.4844 Q168.3281 -0.5938 168.4922 -0.6797 Q168.6562 -0.7656 168.7734 -0.9219 Q168.8906 -1.0781 168.9453 -1.4062 Q169 -1.7344 169 -2.4062 L169 -6.6719 Q169 -7.2969 168.9844 -7.6797 Q168.9688 -8.0625 168.8516 -8.2891 Q168.7344 -8.5156 168.4922 -8.625 Q168.25 -8.7344 167.8125 -8.8125 L167.8125 -9.3281 L170.0938 -9.4219 L170.6875 -9.4219 L170.5781 -7.7188 ZM180.9688 -8.3438 L178.6406 -8.3438 L178.6406 -2.4375 Q178.6406 -1.7812 178.7031 -1.4531 Q178.7656 -1.125 178.8828 -0.9531 Q179 -0.7812 179.2031 -0.6797 Q179.4062 -0.5781 179.8438 -0.4844 L179.8438 0 L175.8438 0 L175.8438 -0.4844 Q176.2812 -0.5938 176.4688 -0.7031 Q176.6562 -0.8125 176.7578 -0.9766 Q176.8594 -1.1406 176.9062 -1.4531 Q176.9531 -1.7656 176.9531 -2.4375 L176.9531 -8.3438 L175.7656 -8.3438 L175.7656 -8.8438 Q176.1406 -8.9062 176.2656 -8.9375 Q176.3906 -8.9688 176.5 -9.0391 Q176.6094 -9.1094 176.6953 -9.2344 Q176.7812 -9.3594 176.8438 -9.6094 Q176.9062 -9.8594 176.9375 -10.3125 Q177.0312 -11.375 177.3281 -12.0391 Q177.625 -12.7031 178.1953 -13.1719 Q178.7656 -13.6406 179.4141 -13.8359 Q180.0625 -14.0312 180.9531 -14.0312 Q181.7188 -14.0312 182.25 -13.9219 L182.25 -12.1562 L181.2969 -12.1562 Q181.1094 -12.7188 180.8594 -12.9609 Q180.6094 -13.2031 180.1562 -13.2031 Q179.8281 -13.2031 179.6094 -13.1172 Q179.3906 -13.0312 179.2109 -12.8438 Q179.0312 -12.6562 178.8984 -12.3438 Q178.7656 -12.0312 178.7031 -11.5703 Q178.6406 -11.1094 178.6406 -10.3594 L178.6406 -9.3438 L180.9688 -9.3438 L180.9688 -8.3438 ZM187.5938 -1.3906 L187.4531 -1.4375 Q186.5938 -0.5625 185.8516 -0.2031 Q185.1094 0.1562 184.2656 0.1562 Q183.5156 0.1562 182.9531 -0.1328 Q182.3906 -0.4219 182.0859 -0.9453 Q181.7812 -1.4688 181.7812 -2.1562 Q181.7812 -3.5781 183.1953 -4.3516 Q184.6094 -5.125 187.4219 -5.25 L187.4219 -5.8906 Q187.4219 -6.9062 187.2266 -7.4922 Q187.0312 -8.0781 186.6172 -8.3516 Q186.2031 -8.625 185.5 -8.625 Q184.7344 -8.625 184.2656 -8.2266 Q183.7969 -7.8281 183.5625 -7.0156 L182.2969 -7.0156 L182.2969 -8.2969 Q183.2344 -8.7812 183.8594 -9.0078 Q184.4844 -9.2344 185.1094 -9.3672 Q185.7344 -9.5 186.375 -9.5 Q187.3438 -9.5 187.9297 -9.1953 Q188.5156 -8.8906 188.8047 -8.2578 Q189.0938 -7.625 189.0938 -6.3438 L189.0938 -2.9375 Q189.0938 -2.2188 189.1016 -1.9219 Q189.1094 -1.625 189.1641 -1.3672 Q189.2188 -1.1094 189.3125 -0.9609 Q189.4062 -0.8125 189.6016 -0.7031 Q189.7969 -0.5938 190.2188 -0.4844 L190.2188 0 L187.5469 0 L187.5938 -1.3906 ZM187.4219 -4.4531 Q185.4375 -4.4375 184.4531 -3.9297 Q183.4688 -3.4219 183.4688 -2.3906 Q183.4688 -1.8438 183.6953 -1.5156 Q183.9219 -1.1875 184.2656 -1.0703 Q184.6094 -0.9531 185.0781 -0.9531 Q185.7344 -0.9531 186.2812 -1.2734 Q186.8281 -1.5938 187.125 -2.0938 Q187.4219 -2.5938 187.4219 -3.0781 L187.4219 -4.4531 ZM199.2188 -9.1094 L199.2188 -7.0781 L197.9844 -7.0781 Q197.8125 -7.7031 197.5703 -8.0703 Q197.3281 -8.4375 197.0078 -8.5859 Q196.6875 -8.7344 196.2031 -8.7344 Q195.5156 -8.7344 194.9922 -8.2969 Q194.4688 -7.8594 194.1641 -6.9609 Q193.8594 -6.0625 193.8594 -4.75 Q193.8594 -3.9219 193.9766 -3.2344 Q194.0938 -2.5469 194.375 -2.0625 Q194.6562 -1.5781 195.125 -1.3047 Q195.5938 -1.0312 196.2812 -1.0312 Q196.9531 -1.0312 197.5391 -1.2891 Q198.125 -1.5469 198.75 -2.2188 L199.2969 -1.5781 Q198.7969 -1.0312 198.4219 -0.7344 Q198.0469 -0.4375 197.6094 -0.2344 Q197.1719 -0.0312 196.75 0.0625 Q196.3281 0.1562 195.8281 0.1562 Q193.9844 0.1562 193.0078 -1.0703 Q192.0312 -2.2969 192.0312 -4.6094 Q192.0312 -6.0625 192.5781 -7.1797 Q193.125 -8.2969 194.1094 -8.8984 Q195.0938 -9.5 196.375 -9.5 Q197.1875 -9.5 197.8672 -9.4062 Q198.5469 -9.3125 199.2188 -9.1094 ZM208.75 -1.6562 Q208.125 -1 207.6016 -0.6328 Q207.0781 -0.2656 206.4531 -0.0547 Q205.8281 0.1562 205.0781 0.1562 Q203.0625 0.1562 202.0391 -1.0469 Q201.0156 -2.25 201.0156 -4.6094 Q201.0156 -6.0625 201.5391 -7.1797 Q202.0625 -8.2969 203.0312 -8.8984 Q204 -9.5 205.25 -9.5 Q206.2344 -9.5 206.9297 -9.1875 Q207.625 -8.875 208.0391 -8.3359 Q208.4531 -7.7969 208.6875 -6.9688 Q208.9219 -6.1406 208.9531 -4.8125 L202.7969 -4.8125 L202.7969 -4.6406 Q202.7969 -3.4844 203.0547 -2.7031 Q203.3125 -1.9219 203.9062 -1.4766 Q204.5 -1.0312 205.4375 -1.0312 Q206.2344 -1.0312 206.875 -1.3281 Q207.5156 -1.625 208.1562 -2.2969 L208.75 -1.6562 ZM207.1094 -5.625 Q207.0469 -6.6875 206.8438 -7.3516 Q206.6406 -8.0156 206.2344 -8.375 Q205.8281 -8.7344 205.1562 -8.7344 Q204.1562 -8.7344 203.5547 -7.9297 Q202.9531 -7.125 202.8438 -5.625 L207.1094 -5.625 ZM217.6406 -13.1719 L217.6406 -11.2656 L215.8594 -11.2656 L215.8594 -13.1719 L217.6406 -13.1719 ZM217.5938 -0.1875 Q217.5938 1.1875 217.3125 2.0078 Q217.0312 2.8281 216.3281 3.3984 Q215.625 3.9688 214.375 4.3281 L214.0469 3.4688 Q214.6562 3.2344 214.9766 3.0234 Q215.2969 2.8125 215.5 2.5312 Q215.7031 2.25 215.8125 1.7812 Q215.9219 1.3125 215.9219 0.5938 L215.9219 -6.6719 Q215.9219 -7.4375 215.8906 -7.7656 Q215.8594 -8.0938 215.7578 -8.2891 Q215.6562 -8.4844 215.4531 -8.6016 Q215.25 -8.7188 214.7188 -8.8125 L214.7188 -9.3438 L217 -9.4219 L217.5938 -9.4219 L217.5938 -0.1875 Z" stroke="none"/></g></g></svg>