<?xml version="1.0" encoding="UTF-8" standalone="no"?><svg xmlns="http://www.w3.org/2000/svg" xmlns:xlink="http://www.w3.org/1999/xlink" stroke-dasharray="none" shape-rendering="auto" font-family="'Dialog'" width="100.812600" text-rendering="auto" fill-opacity="1" contentScriptType="text/ecmascript" color-interpolation="auto" color-rendering="auto" preserveAspectRatio="xMidYMid meet" font-size="12" fill="black" stroke="black" image-rendering="auto" stroke-miterlimit="10" zoomAndPan="magnify" version="1.0" stroke-linecap="square" stroke-linejoin="miter" contentStyleType="text/css" font-style="normal" height="29" stroke-width="1" stroke-dashoffset="0" font-weight="normal" stroke-opacity="1" y="-5.000000"><!--Converted from MathML using JEuclid--><defs id="genericDefs"/><g><g text-rendering="optimizeLegibility" transform="translate(0,24)" color-rendering="optimizeQuality" color-interpolation="linearRGB" image-rendering="optimizeQuality"><path d="M5.0156 -2.4531 Q5.0156 -1.9375 5.0391 -1.6641 Q5.0625 -1.3906 5.1406 -1.2266 Q5.2188 -1.0625 5.3359 -0.9609 Q5.4531 -0.8594 5.6484 -0.7734 Q5.8438 -0.6875 6.1875 -0.6406 L6.1875 0 L0.9375 0 L0.9375 -0.6406 Q1.2969 -0.7344 1.5078 -0.8516 Q1.7188 -0.9688 1.8203 -1.1719 Q1.9219 -1.375 1.9531 -1.6875 Q1.9844 -2 1.9844 -2.4688 L1.9844 -10.875 Q1.9844 -11.3281 1.9609 -11.6406 Q1.9375 -11.9531 1.8359 -12.1484 Q1.7344 -12.3438 1.5234 -12.4688 Q1.3125 -12.5938 0.9375 -12.6875 L0.9375 -13.3281 L10.375 -13.3281 L10.375 -10.2188 L9.0469 -10.2188 Q8.7188 -11.1562 8.4922 -11.4844 Q8.2656 -11.8125 7.9531 -12 Q7.6406 -12.1875 6.8906 -12.1875 L5.0156 -12.1875 L5.0156 -7.2188 L6.2656 -7.2188 Q6.7188 -7.2188 6.9688 -7.3594 Q7.2188 -7.5 7.3828 -7.8359 Q7.5469 -8.1719 7.6406 -8.7656 L8.75 -8.7656 L8.75 -4.5156 L7.6406 -4.5156 Q7.5312 -5.125 7.3672 -5.4609 Q7.2031 -5.7969 6.9531 -5.9375 Q6.7031 -6.0781 6.2656 -6.0781 L5.0156 -6.0781 L5.0156 -2.4531 Z" stroke="none"/></g><g text-rendering="optimizeLegibility" transform="translate(10.375,28.6641)" color-rendering="optimizeQuality" color-interpolation="linearRGB" image-rendering="optimizeQuality"><path d="M0.8281 0 L0.8281 -0.3281 Q1.25 -0.4375 1.3906 -0.5781 Q1.5312 -0.7188 1.5781 -0.9609 Q1.625 -1.2031 1.625 -1.7031 L1.625 -7.625 Q1.625 -8.0938 1.5938 -8.3125 Q1.5625 -8.5312 1.4844 -8.6484 Q1.4062 -8.7656 1.2734 -8.8359 Q1.1406 -8.9062 0.8281 -9 L0.8281 -9.3281 L4.5625 -9.3281 Q5.6562 -9.3281 6.3125 -9.0938 Q6.9688 -8.8594 7.2891 -8.4062 Q7.6094 -7.9531 7.6094 -7.2344 Q7.6094 -6.6406 7.3828 -6.2031 Q7.1562 -5.7656 6.7891 -5.4844 Q6.4219 -5.2031 5.8438 -4.9531 L5.8438 -4.8906 Q6.7656 -4.6094 7.2422 -4.0234 Q7.7188 -3.4375 7.7188 -2.625 Q7.7188 -1.7031 7.3047 -1.1172 Q6.8906 -0.5312 6.1484 -0.2656 Q5.4062 0 4.3438 0 L0.8281 0 ZM4.1094 -5.1406 Q5.1406 -5.1406 5.6875 -5.6484 Q6.2344 -6.1562 6.2344 -7.1094 Q6.2344 -7.5781 6.0859 -7.8906 Q5.9375 -8.2031 5.6641 -8.3906 Q5.3906 -8.5781 5.0234 -8.6562 Q4.6562 -8.7344 4.2188 -8.7344 Q3.9688 -8.7344 3.5469 -8.7188 Q3.125 -8.7031 2.9062 -8.6875 L2.9062 -5.1406 L4.1094 -5.1406 ZM2.9062 -0.6562 Q3.4062 -0.6094 4.0156 -0.6094 Q4.9219 -0.6094 5.4141 -0.8281 Q5.9062 -1.0469 6.125 -1.4922 Q6.3438 -1.9375 6.3438 -2.5938 Q6.3438 -3.2656 6.1016 -3.6953 Q5.8594 -4.125 5.3594 -4.3359 Q4.8594 -4.5469 3.9688 -4.5469 L2.9062 -4.5469 L2.9062 -0.6562 Z" stroke="none"/></g><g text-rendering="optimizeLegibility" transform="translate(10.375,12.5234)" color-rendering="optimizeQuality" color-interpolation="linearRGB" image-rendering="optimizeQuality"><path d="M2.5156 -0.2031 L2.5156 1.2344 Q2.5156 1.6875 2.5469 1.9062 Q2.5781 2.125 2.6562 2.25 Q2.7344 2.375 2.8828 2.4531 Q3.0312 2.5312 3.3594 2.6094 L3.3594 2.9375 L0.5625 2.9375 L0.5625 2.6094 Q0.8125 2.5312 0.9688 2.4609 Q1.125 2.3906 1.2031 2.25 Q1.2812 2.1094 1.3125 1.875 Q1.3438 1.6406 1.3438 1.2344 L1.3438 -4.625 Q1.3438 -5.125 1.3281 -5.3281 Q1.3125 -5.5312 1.2734 -5.6719 Q1.2344 -5.8125 1.1562 -5.8984 Q1.0781 -5.9844 0.9453 -6.0469 Q0.8125 -6.1094 0.5 -6.1719 L0.5 -6.5312 L2.1094 -6.5938 L2.5156 -6.5938 L2.4375 -5.4844 L2.5312 -5.4531 Q2.9531 -5.8906 3.2031 -6.0859 Q3.4531 -6.2812 3.7188 -6.4062 Q3.9844 -6.5312 4.2266 -6.5859 Q4.4688 -6.6406 4.7344 -6.6406 Q5.8594 -6.6406 6.4688 -5.7969 Q7.0781 -4.9531 7.0781 -3.3281 Q7.0781 -2.2031 6.7344 -1.4297 Q6.3906 -0.6562 5.7422 -0.2734 Q5.0938 0.1094 4.1875 0.1094 Q3.6719 0.1094 3.2656 0.0234 Q2.8594 -0.0625 2.5156 -0.2031 ZM2.5156 -2.4688 Q2.5156 -1.8125 2.6016 -1.4531 Q2.6875 -1.0938 2.8906 -0.875 Q3.0938 -0.6562 3.3828 -0.5469 Q3.6719 -0.4375 4.125 -0.4375 Q4.9531 -0.4375 5.375 -1.125 Q5.7969 -1.8125 5.7969 -3.1406 Q5.7969 -5.8281 4.2188 -5.8281 Q3.8438 -5.8281 3.5625 -5.7031 Q3.2812 -5.5781 3.0078 -5.3125 Q2.7344 -5.0469 2.625 -4.7969 Q2.5156 -4.5469 2.5156 -4.2656 L2.5156 -2.4688 Z" stroke="none"/></g><g text-rendering="optimizeLegibility" transform="translate(18.875,24)" color-rendering="optimizeQuality" color-interpolation="linearRGB" image-rendering="optimizeQuality"><path d="M1.2188 -7.0625 L1.2188 -8.4219 L9.8594 -8.4219 L9.8594 -7.0625 L1.2188 -7.0625 ZM1.2188 -3.0156 L1.2188 -4.3594 L9.8594 -4.3594 L9.8594 -3.0156 L1.2188 -3.0156 Z" stroke="none"/></g><g text-rendering="optimizeLegibility" transform="translate(30.5,23.1665) matrix(1,0,0,1.308,0,0)" color-rendering="optimizeQuality" color-interpolation="linearRGB" image-rendering="optimizeQuality"><path d="M6.5781 4.2031 L2.2344 4.2031 L2.2344 -13.9688 L6.5781 -13.9688 L6.5781 -13.1719 L3.9531 -13.1719 L3.9531 3.4062 L6.5781 3.4062 L6.5781 4.2031 Z" stroke="none"/></g><g text-rendering="optimizeLegibility" transform="translate(39.0781,24)" color-rendering="optimizeQuality" color-interpolation="linearRGB" image-rendering="optimizeQuality"><path d="M5.0156 -2.4531 Q5.0156 -1.9375 5.0391 -1.6641 Q5.0625 -1.3906 5.1406 -1.2266 Q5.2188 -1.0625 5.3359 -0.9609 Q5.4531 -0.8594 5.6484 -0.7734 Q5.8438 -0.6875 6.1875 -0.6406 L6.1875 0 L0.9375 0 L0.9375 -0.6406 Q1.2969 -0.7344 1.5078 -0.8516 Q1.7188 -0.9688 1.8203 -1.1719 Q1.9219 -1.375 1.9531 -1.6875 Q1.9844 -2 1.9844 -2.4688 L1.9844 -10.875 Q1.9844 -11.3281 1.9609 -11.6406 Q1.9375 -11.9531 1.8359 -12.1484 Q1.7344 -12.3438 1.5234 -12.4688 Q1.3125 -12.5938 0.9375 -12.6875 L0.9375 -13.3281 L10.375 -13.3281 L10.375 -10.2188 L9.0469 -10.2188 Q8.7188 -11.1562 8.4922 -11.4844 Q8.2656 -11.8125 7.9531 -12 Q7.6406 -12.1875 6.8906 -12.1875 L5.0156 -12.1875 L5.0156 -7.2188 L6.2656 -7.2188 Q6.7188 -7.2188 6.9688 -7.3594 Q7.2188 -7.5 7.3828 -7.8359 Q7.5469 -8.1719 7.6406 -8.7656 L8.75 -8.7656 L8.75 -4.5156 L7.6406 -4.5156 Q7.5312 -5.125 7.3672 -5.4609 Q7.2031 -5.7969 6.9531 -5.9375 Q6.7031 -6.0781 6.2656 -6.0781 L5.0156 -6.0781 L5.0156 -2.4531 Z" stroke="none"/></g><g text-rendering="optimizeLegibility" transform="translate(49.4531,28.6641)" color-rendering="optimizeQuality" color-interpolation="linearRGB" image-rendering="optimizeQuality"><path d="M0.8281 0 L0.8281 -0.3281 Q1.25 -0.4375 1.3906 -0.5781 Q1.5312 -0.7188 1.5781 -0.9609 Q1.625 -1.2031 1.625 -1.7031 L1.625 -7.625 Q1.625 -8.0938 1.5938 -8.3125 Q1.5625 -8.5312 1.4844 -8.6484 Q1.4062 -8.7656 1.2734 -8.8359 Q1.1406 -8.9062 0.8281 -9 L0.8281 -9.3281 L4.5625 -9.3281 Q5.6562 -9.3281 6.3125 -9.0938 Q6.9688 -8.8594 7.2891 -8.4062 Q7.6094 -7.9531 7.6094 -7.2344 Q7.6094 -6.6406 7.3828 -6.2031 Q7.1562 -5.7656 6.7891 -5.4844 Q6.4219 -5.2031 5.8438 -4.9531 L5.8438 -4.8906 Q6.7656 -4.6094 7.2422 -4.0234 Q7.7188 -3.4375 7.7188 -2.625 Q7.7188 -1.7031 7.3047 -1.1172 Q6.8906 -0.5312 6.1484 -0.2656 Q5.4062 0 4.3438 0 L0.8281 0 ZM4.1094 -5.1406 Q5.1406 -5.1406 5.6875 -5.6484 Q6.2344 -6.1562 6.2344 -7.1094 Q6.2344 -7.5781 6.0859 -7.8906 Q5.9375 -8.2031 5.6641 -8.3906 Q5.3906 -8.5781 5.0234 -8.6562 Q4.6562 -8.7344 4.2188 -8.7344 Q3.9688 -8.7344 3.5469 -8.7188 Q3.125 -8.7031 2.9062 -8.6875 L2.9062 -5.1406 L4.1094 -5.1406 ZM2.9062 -0.6562 Q3.4062 -0.6094 4.0156 -0.6094 Q4.9219 -0.6094 5.4141 -0.8281 Q5.9062 -1.0469 6.125 -1.4922 Q6.3438 -1.9375 6.3438 -2.5938 Q6.3438 -3.2656 6.1016 -3.6953 Q5.8594 -4.125 5.3594 -4.3359 Q4.8594 -4.5469 3.9688 -4.5469 L2.9062 -4.5469 L2.9062 -0.6562 Z" stroke="none"/></g><g text-rendering="optimizeLegibility" transform="translate(49.4531,13.9453)" color-rendering="optimizeQuality" color-interpolation="linearRGB" image-rendering="optimizeQuality"><path d="M6.125 -1.1562 Q5.6875 -0.7031 5.3203 -0.4453 Q4.9531 -0.1875 4.5156 -0.0391 Q4.0781 0.1094 3.5625 0.1094 Q2.1406 0.1094 1.4297 -0.7344 Q0.7188 -1.5781 0.7188 -3.2344 Q0.7188 -4.25 1.0781 -5.0234 Q1.4375 -5.7969 2.1172 -6.2266 Q2.7969 -6.6562 3.6719 -6.6562 Q4.375 -6.6562 4.8594 -6.4375 Q5.3438 -6.2188 5.6328 -5.8359 Q5.9219 -5.4531 6.0781 -4.875 Q6.2344 -4.2969 6.2656 -3.375 L1.9531 -3.375 L1.9531 -3.25 Q1.9531 -2.4375 2.1328 -1.8906 Q2.3125 -1.3438 2.7266 -1.0312 Q3.1406 -0.7188 3.8125 -0.7188 Q4.375 -0.7188 4.8203 -0.9297 Q5.2656 -1.1406 5.7031 -1.6094 L6.125 -1.1562 ZM4.9844 -3.9375 Q4.9375 -4.6719 4.7969 -5.1406 Q4.6562 -5.6094 4.3672 -5.8594 Q4.0781 -6.1094 3.6094 -6.1094 Q2.9062 -6.1094 2.4844 -5.5469 Q2.0625 -4.9844 1.9844 -3.9375 L4.9844 -3.9375 Z" stroke="none"/></g><g text-rendering="optimizeLegibility" transform="translate(58.75,23.1665) matrix(1,0,0,1.308,0,0)" color-rendering="optimizeQuality" color-interpolation="linearRGB" image-rendering="optimizeQuality"><path d="M4.7812 4.2031 L0.4219 4.2031 L0.4219 3.4062 L3.0625 3.4062 L3.0625 -13.1719 L0.4219 -13.1719 L0.4219 -13.9688 L4.7812 -13.9688 L4.7812 4.2031 Z" stroke="none"/></g><g text-rendering="optimizeLegibility" transform="translate(64.6562,9.6147)" color-rendering="optimizeQuality" color-interpolation="linearRGB" image-rendering="optimizeQuality"><path d="M0.875 -3.5312 L0.875 -4.4844 L6.8906 -4.4844 L6.8906 -3.5312 L0.875 -3.5312 Z" stroke="none"/></g><g text-rendering="optimizeLegibility" transform="translate(71.5469,9.6147)" color-rendering="optimizeQuality" color-interpolation="linearRGB" image-rendering="optimizeQuality"><path d="M4.75 -1.7812 Q4.75 -1.3906 4.7969 -1.1875 Q4.8438 -0.9844 4.9531 -0.8594 Q5.0625 -0.7344 5.2734 -0.6641 Q5.4844 -0.5938 5.8047 -0.5547 Q6.125 -0.5156 6.6562 -0.5 L6.6562 0 L1.6094 0 L1.6094 -0.5 Q2.3594 -0.5312 2.6875 -0.5938 Q3.0156 -0.6562 3.1875 -0.7656 Q3.3594 -0.875 3.4375 -1.0938 Q3.5156 -1.3125 3.5156 -1.7812 L3.5156 -7.3281 Q3.5156 -7.6094 3.4219 -7.7344 Q3.3281 -7.8594 3.1406 -7.8594 Q2.9219 -7.8594 2.5156 -7.6328 Q2.1094 -7.4062 1.5156 -7 L1.2188 -7.5312 L4.4219 -9.4375 L4.7969 -9.4375 Q4.75 -8.7812 4.75 -7.625 L4.75 -1.7812 Z" stroke="none"/></g><g text-rendering="optimizeLegibility" transform="translate(79.4375,24)" color-rendering="optimizeQuality" color-interpolation="linearRGB" image-rendering="optimizeQuality"><path d="M7.7812 -8.9844 L7.1562 -7.9062 L4.6406 -9.6719 L4.9219 -6.6094 L3.6406 -6.6094 L3.9219 -9.6719 L1.4062 -7.9062 L0.7656 -8.9844 L3.5625 -10.2969 L0.7656 -11.5938 L1.4062 -12.6875 L3.9219 -10.9219 L3.6406 -13.9688 L4.9219 -13.9688 L4.6406 -10.9219 L7.1562 -12.6875 L7.7812 -11.5938 L5 -10.2969 L7.7812 -8.9844 Z" stroke="none"/></g><g text-rendering="optimizeLegibility" transform="translate(89.2188,24)" color-rendering="optimizeQuality" color-interpolation="linearRGB" image-rendering="optimizeQuality"><path d="M5.0156 -2.4531 Q5.0156 -1.9375 5.0391 -1.6641 Q5.0625 -1.3906 5.1406 -1.2266 Q5.2188 -1.0625 5.3359 -0.9609 Q5.4531 -0.8594 5.6484 -0.7734 Q5.8438 -0.6875 6.1875 -0.6406 L6.1875 0 L0.9375 0 L0.9375 -0.6406 Q1.2969 -0.7344 1.5078 -0.8516 Q1.7188 -0.9688 1.8203 -1.1719 Q1.9219 -1.375 1.9531 -1.6875 Q1.9844 -2 1.9844 -2.4688 L1.9844 -10.875 Q1.9844 -11.3281 1.9609 -11.6406 Q1.9375 -11.9531 1.8359 -12.1484 Q1.7344 -12.3438 1.5234 -12.4688 Q1.3125 -12.5938 0.9375 -12.6875 L0.9375 -13.3281 L10.375 -13.3281 L10.375 -10.2188 L9.0469 -10.2188 Q8.7188 -11.1562 8.4922 -11.4844 Q8.2656 -11.8125 7.9531 -12 Q7.6406 -12.1875 6.8906 -12.1875 L5.0156 -12.1875 L5.0156 -7.2188 L6.2656 -7.2188 Q6.7188 -7.2188 6.9688 -7.3594 Q7.2188 -7.5 7.3828 -7.8359 Q7.5469 -8.1719 7.6406 -8.7656 L8.75 -8.7656 L8.75 -4.5156 L7.6406 -4.5156 Q7.5312 -5.125 7.3672 -5.4609 Q7.2031 -5.7969 6.9531 -5.9375 Q6.7031 -6.0781 6.2656 -6.0781 L5.0156 -6.0781 L5.0156 -2.4531 Z" stroke="none"/></g></g></svg>