<?xml version="1.0" encoding="UTF-8" standalone="no"?><svg xmlns="http://www.w3.org/2000/svg" xmlns:xlink="http://www.w3.org/1999/xlink" stroke-dasharray="none" shape-rendering="auto" font-family="'Dialog'" width="173.812600" text-rendering="auto" fill-opacity="1" contentScriptType="text/ecmascript" color-interpolation="auto" color-rendering="auto" preserveAspectRatio="xMidYMid meet" font-size="12" fill="black" stroke="black" image-rendering="auto" stroke-miterlimit="10" zoomAndPan="magnify" version="1.0" stroke-linecap="square" stroke-linejoin="miter" contentStyleType="text/css" font-style="normal" height="28" stroke-width="1" stroke-dashoffset="0" font-weight="normal" stroke-opacity="1" y="-10.000000"><!--Converted from MathML using JEuclid--><defs id="genericDefs"/><g><g text-rendering="optimizeLegibility" transform="translate(0.0781,18)" color-rendering="optimizeQuality" color-interpolation="linearRGB" image-rendering="optimizeQuality"><path d="M2.0938 1.7344 Q2 2.2031 1.9688 2.4531 Q1.9375 2.7031 1.9375 2.875 Q1.9375 3.1719 2.0391 3.3359 Q2.1406 3.5 2.3438 3.5859 Q2.5469 3.6719 3.0156 3.7188 L2.9375 4.2031 L-0.0781 4.2031 L2.3906 -6.6562 Q2.5781 -7.4844 2.5781 -8.0625 Q2.5781 -8.3438 2.4922 -8.4922 Q2.4062 -8.6406 2.2109 -8.7188 Q2.0156 -8.7969 1.5312 -8.8125 L1.6562 -9.3438 L3.875 -9.4219 L4.4219 -9.4219 L3.7656 -6.8906 L3.8906 -6.8438 Q5.6875 -9.5 7.4844 -9.5 Q8.5469 -9.5 9.1406 -8.6875 Q9.7344 -7.875 9.7344 -6.3906 Q9.7344 -5.3438 9.4453 -4.2812 Q9.1562 -3.2188 8.6406 -2.3594 Q8.125 -1.5 7.4922 -0.9453 Q6.8594 -0.3906 6.1641 -0.1172 Q5.4688 0.1562 4.7031 0.1562 Q3.4062 0.1562 2.5469 -0.4062 L2.0938 1.7344 ZM3.2656 -3.4062 Q3.1719 -2.875 3.1406 -2.6016 Q3.1094 -2.3281 3.1094 -2.0781 Q3.1094 -1.3125 3.4375 -0.9609 Q3.7656 -0.6094 4.5781 -0.6094 Q5.0625 -0.6094 5.4844 -0.8047 Q5.9062 -1 6.2812 -1.375 Q6.6562 -1.75 6.9609 -2.2734 Q7.2656 -2.7969 7.5078 -3.5 Q7.75 -4.2031 7.8672 -4.9375 Q7.9844 -5.6719 7.9844 -6.3125 Q7.9844 -7.3438 7.6953 -7.8438 Q7.4062 -8.3438 6.7812 -8.3438 Q6.2969 -8.3438 5.8125 -8.0078 Q5.3281 -7.6719 4.75 -6.9297 Q4.1719 -6.1875 3.8516 -5.4688 Q3.5312 -4.75 3.3438 -3.8125 L3.2656 -3.4062 Z" stroke="none"/></g><g text-rendering="optimizeLegibility" transform="translate(9.8125,26.8125)" color-rendering="optimizeQuality" color-interpolation="linearRGB" image-rendering="optimizeQuality"><path d="M3.8281 -9.2188 L3.5156 -7.8906 L2.2969 -7.8906 L2.625 -9.2188 L3.8281 -9.2188 ZM2.1406 -1.7031 Q2.0625 -1.3594 2.0469 -1.2031 Q2.0312 -1.0469 2.0312 -0.9375 Q2.0312 -0.7188 2.0938 -0.6094 Q2.1562 -0.5 2.3047 -0.4375 Q2.4531 -0.375 2.7812 -0.3281 L2.7188 0 L0.5938 0 L1.625 -4.6094 Q1.7188 -5 1.75 -5.2344 Q1.7812 -5.4688 1.7812 -5.6406 Q1.7812 -5.8281 1.7266 -5.9375 Q1.6719 -6.0469 1.5312 -6.1016 Q1.3906 -6.1562 1.0625 -6.1719 L1.1406 -6.5312 L2.7969 -6.5938 L3.2031 -6.5938 L2.1406 -1.7031 Z" stroke="none"/></g><g text-rendering="optimizeLegibility" transform="translate(13.875,18)" color-rendering="optimizeQuality" color-interpolation="linearRGB" image-rendering="optimizeQuality"><path d="M7.2188 4.25 Q5.5625 4.25 4.5078 3.75 Q3.4531 3.25 2.8672 2.2344 Q2.2812 1.2188 2.0234 -0.4141 Q1.7656 -2.0469 1.7656 -4.8438 Q1.7656 -7.625 2.0234 -9.2656 Q2.2812 -10.9062 2.8672 -11.9453 Q3.4531 -12.9844 4.5078 -13.5 Q5.5625 -14.0156 7.2188 -14.0156 L7.2188 -13.2188 Q6.5312 -13.2188 6 -13.0938 Q5.4062 -12.9531 4.9844 -12.5625 Q4.5156 -12.1406 4.2344 -11.375 Q3.8906 -10.4688 3.7188 -8.9844 Q3.5469 -7.4062 3.5469 -4.9219 Q3.5469 -2.7188 3.6953 -1.1797 Q3.8438 0.3594 4.1875 1.3281 Q4.4531 2.1562 4.8594 2.6094 Q5.2188 3.0156 5.7188 3.2188 Q6.2969 3.4531 7.2188 3.4531 L7.2188 4.25 Z" stroke="none"/></g><g text-rendering="optimizeLegibility" transform="translate(23.0938,18)" color-rendering="optimizeQuality" color-interpolation="linearRGB" image-rendering="optimizeQuality"><path d="M4.4844 -8.2969 L4.6094 -8.2656 Q5.3281 -9.1094 6.0781 -9.4766 Q6.8281 -9.8438 7.7031 -9.8438 Q8.2969 -9.8438 8.9531 -9.7188 L8.9531 -7.0156 L7.1875 -7.0156 Q7.0156 -7.5938 6.75 -7.8906 Q6.4844 -8.1875 6.0312 -8.1875 Q5.8281 -8.1875 5.5625 -8.0625 Q5.2969 -7.9375 5.0781 -7.6953 Q4.8594 -7.4531 4.7656 -7.2031 Q4.6719 -6.9531 4.6484 -6.7031 Q4.625 -6.4531 4.625 -5.9375 L4.625 -2.8281 Q4.625 -1.8906 4.6875 -1.5234 Q4.75 -1.1562 4.9609 -0.9453 Q5.1719 -0.7344 5.6562 -0.6406 L5.6562 0 L0.8438 0 L0.8438 -0.6406 Q1.3125 -0.7656 1.4922 -0.9766 Q1.6719 -1.1875 1.7344 -1.5391 Q1.7969 -1.8906 1.7969 -2.8125 L1.7969 -6.8281 Q1.7969 -7.5469 1.7734 -7.8984 Q1.75 -8.25 1.6562 -8.4531 Q1.5625 -8.6562 1.375 -8.7891 Q1.1875 -8.9219 0.7188 -9.0312 L0.7188 -9.6875 L3.3906 -9.7656 L4.625 -9.7656 L4.4844 -8.2969 Z" stroke="none"/></g><g text-rendering="optimizeLegibility" transform="translate(33.625,18)" color-rendering="optimizeQuality" color-interpolation="linearRGB" image-rendering="optimizeQuality"><path d="M0.4219 -14.0156 Q2.0781 -14.0156 3.1328 -13.5156 Q4.1875 -13.0156 4.7734 -12 Q5.3594 -10.9844 5.6172 -9.3516 Q5.875 -7.7188 5.875 -4.9219 Q5.875 -2.1562 5.6172 -0.5078 Q5.3594 1.1406 4.7734 2.1797 Q4.1875 3.2188 3.1328 3.7344 Q2.0781 4.25 0.4219 4.25 L0.4219 3.4531 Q1.1094 3.4531 1.625 3.3281 Q2.2344 3.1875 2.6406 2.7969 Q3.1094 2.375 3.4062 1.6094 Q3.75 0.7031 3.9219 -0.7812 Q4.0938 -2.3594 4.0938 -4.8438 Q4.0938 -7.0469 3.9453 -8.5859 Q3.7969 -10.125 3.4531 -11.0938 Q3.1875 -11.9219 2.7812 -12.375 Q2.4062 -12.7812 1.9219 -12.9844 Q1.3438 -13.2188 0.4219 -13.2188 L0.4219 -14.0156 Z" stroke="none"/></g><g text-rendering="optimizeLegibility" transform="translate(42.2812,18)" color-rendering="optimizeQuality" color-interpolation="linearRGB" image-rendering="optimizeQuality"><path d="M1.2188 -7.0625 L1.2188 -8.4219 L9.8594 -8.4219 L9.8594 -7.0625 L1.2188 -7.0625 ZM1.2188 -3.0156 L1.2188 -4.3594 L9.8594 -4.3594 L9.8594 -3.0156 L1.2188 -3.0156 Z" stroke="none"/></g><g text-rendering="optimizeLegibility" transform="translate(54.2188,18)" color-rendering="optimizeQuality" color-interpolation="linearRGB" image-rendering="optimizeQuality"><path d="M2.0938 1.7344 Q2 2.2031 1.9688 2.4531 Q1.9375 2.7031 1.9375 2.875 Q1.9375 3.1719 2.0391 3.3359 Q2.1406 3.5 2.3438 3.5859 Q2.5469 3.6719 3.0156 3.7188 L2.9375 4.2031 L-0.0781 4.2031 L2.3906 -6.6562 Q2.5781 -7.4844 2.5781 -8.0625 Q2.5781 -8.3438 2.4922 -8.4922 Q2.4062 -8.6406 2.2109 -8.7188 Q2.0156 -8.7969 1.5312 -8.8125 L1.6562 -9.3438 L3.875 -9.4219 L4.4219 -9.4219 L3.7656 -6.8906 L3.8906 -6.8438 Q5.6875 -9.5 7.4844 -9.5 Q8.5469 -9.5 9.1406 -8.6875 Q9.7344 -7.875 9.7344 -6.3906 Q9.7344 -5.3438 9.4453 -4.2812 Q9.1562 -3.2188 8.6406 -2.3594 Q8.125 -1.5 7.4922 -0.9453 Q6.8594 -0.3906 6.1641 -0.1172 Q5.4688 0.1562 4.7031 0.1562 Q3.4062 0.1562 2.5469 -0.4062 L2.0938 1.7344 ZM3.2656 -3.4062 Q3.1719 -2.875 3.1406 -2.6016 Q3.1094 -2.3281 3.1094 -2.0781 Q3.1094 -1.3125 3.4375 -0.9609 Q3.7656 -0.6094 4.5781 -0.6094 Q5.0625 -0.6094 5.4844 -0.8047 Q5.9062 -1 6.2812 -1.375 Q6.6562 -1.75 6.9609 -2.2734 Q7.2656 -2.7969 7.5078 -3.5 Q7.75 -4.2031 7.8672 -4.9375 Q7.9844 -5.6719 7.9844 -6.3125 Q7.9844 -7.3438 7.6953 -7.8438 Q7.4062 -8.3438 6.7812 -8.3438 Q6.2969 -8.3438 5.8125 -8.0078 Q5.3281 -7.6719 4.75 -6.9297 Q4.1719 -6.1875 3.8516 -5.4688 Q3.5312 -4.75 3.3438 -3.8125 L3.2656 -3.4062 Z" stroke="none"/></g><g text-rendering="optimizeLegibility" transform="translate(63.9531,25.9766)" color-rendering="optimizeQuality" color-interpolation="linearRGB" image-rendering="optimizeQuality"><path d="M3.8281 -9.2188 L3.5156 -7.8906 L2.2969 -7.8906 L2.625 -9.2188 L3.8281 -9.2188 ZM2.1406 -1.7031 Q2.0625 -1.3594 2.0469 -1.2031 Q2.0312 -1.0469 2.0312 -0.9375 Q2.0312 -0.7188 2.0938 -0.6094 Q2.1562 -0.5 2.3047 -0.4375 Q2.4531 -0.375 2.7812 -0.3281 L2.7188 0 L0.5938 0 L1.625 -4.6094 Q1.7188 -5 1.75 -5.2344 Q1.7812 -5.4688 1.7812 -5.6406 Q1.7812 -5.8281 1.7266 -5.9375 Q1.6719 -6.0469 1.5312 -6.1016 Q1.3906 -6.1562 1.0625 -6.1719 L1.1406 -6.5312 L2.7969 -6.5938 L3.2031 -6.5938 L2.1406 -1.7031 Z" stroke="none"/></g><g text-rendering="optimizeLegibility" transform="translate(67.6094,25.9766)" color-rendering="optimizeQuality" color-interpolation="linearRGB" image-rendering="optimizeQuality"><path d="M2.1094 -1.5938 Q2.2031 -1.1094 2.2031 -0.6406 Q2.2031 -0.1719 2.0391 0.2266 Q1.875 0.625 1.5156 1.0234 Q1.1562 1.4219 0.5312 1.8906 L0.1719 1.4688 Q0.5156 1.1406 0.6719 0.875 Q0.8281 0.6094 0.8984 0.2734 Q0.9688 -0.0625 0.9688 -0.5625 Q0.9688 -1.0781 0.9219 -1.5938 L2.1094 -1.5938 Z" stroke="none"/></g><g text-rendering="optimizeLegibility" transform="translate(69.8125,25.9766)" color-rendering="optimizeQuality" color-interpolation="linearRGB" image-rendering="optimizeQuality"><path d="M3.7969 0.1094 Q2.3281 0.1094 1.6016 -1.0547 Q0.875 -2.2188 0.875 -4.5781 Q0.875 -5.8438 1.1016 -6.7578 Q1.3281 -7.6719 1.7266 -8.2656 Q2.125 -8.8594 2.6875 -9.1484 Q3.25 -9.4375 3.9062 -9.4375 Q5.4062 -9.4375 6.1406 -8.2812 Q6.875 -7.125 6.875 -4.7969 Q6.875 -2.375 6.0938 -1.1328 Q5.3125 0.1094 3.7969 0.1094 ZM2.2188 -4.7812 Q2.2188 -2.5625 2.6328 -1.5156 Q3.0469 -0.4688 3.9062 -0.4688 Q4.7344 -0.4688 5.1328 -1.4531 Q5.5312 -2.4375 5.5312 -4.4844 Q5.5312 -6.0625 5.3281 -7.0391 Q5.125 -8.0156 4.7578 -8.4375 Q4.3906 -8.8594 3.875 -8.8594 Q3.4062 -8.8594 3.0859 -8.5781 Q2.7656 -8.2969 2.5703 -7.7734 Q2.375 -7.25 2.2969 -6.4922 Q2.2188 -5.7344 2.2188 -4.7812 Z" stroke="none"/></g><g text-rendering="optimizeLegibility" transform="translate(76.9219,18)" color-rendering="optimizeQuality" color-interpolation="linearRGB" image-rendering="optimizeQuality"><path d="M7.2188 4.25 Q5.5625 4.25 4.5078 3.75 Q3.4531 3.25 2.8672 2.2344 Q2.2812 1.2188 2.0234 -0.4141 Q1.7656 -2.0469 1.7656 -4.8438 Q1.7656 -7.625 2.0234 -9.2656 Q2.2812 -10.9062 2.8672 -11.9453 Q3.4531 -12.9844 4.5078 -13.5 Q5.5625 -14.0156 7.2188 -14.0156 L7.2188 -13.2188 Q6.5312 -13.2188 6 -13.0938 Q5.4062 -12.9531 4.9844 -12.5625 Q4.5156 -12.1406 4.2344 -11.375 Q3.8906 -10.4688 3.7188 -8.9844 Q3.5469 -7.4062 3.5469 -4.9219 Q3.5469 -2.7188 3.6953 -1.1797 Q3.8438 0.3594 4.1875 1.3281 Q4.4531 2.1562 4.8594 2.6094 Q5.2188 3.0156 5.7188 3.2188 Q6.2969 3.4531 7.2188 3.4531 L7.2188 4.25 Z" stroke="none"/></g><g text-rendering="optimizeLegibility" transform="translate(86.1406,18)" color-rendering="optimizeQuality" color-interpolation="linearRGB" image-rendering="optimizeQuality"><path d="M6.8125 -1.6875 L6.7812 -1.6875 Q5.7812 0.1562 3.7031 0.1562 Q2.4219 0.1562 1.6484 -0.6406 Q0.875 -1.4375 0.875 -2.9219 Q0.875 -4.7656 2.0312 -6.4766 Q3.1875 -8.1875 5.3281 -9.5 L5.7188 -8.8438 Q4.3438 -7.7812 3.4531 -6.1094 Q2.5625 -4.4375 2.5625 -2.8438 Q2.5625 -1.7031 3.0234 -1.1562 Q3.4844 -0.6094 4.2188 -0.6094 Q4.8906 -0.6094 5.4375 -1.2266 Q5.9844 -1.8438 6.2031 -2.9219 L6.9375 -6.6094 L8.5781 -6.6094 L7.7969 -2.8438 Q7.7188 -2.4219 7.7188 -2.0781 Q7.7188 -1.3906 8.0547 -1 Q8.3906 -0.6094 8.9844 -0.6094 Q10.1875 -0.6094 10.9922 -2.1094 Q11.7969 -3.6094 11.7969 -5.7812 Q11.7969 -7.8125 11 -8.9375 L11.5625 -9.5 Q13.5156 -7.6406 13.5156 -5.3594 Q13.5156 -3.125 12.2344 -1.4844 Q10.9531 0.1562 8.9688 0.1562 Q7.1562 0.1562 6.8125 -1.6875 Z" stroke="none"/></g><g text-rendering="optimizeLegibility" transform="translate(101.2344,18)" color-rendering="optimizeQuality" color-interpolation="linearRGB" image-rendering="optimizeQuality"><path d="M0.4219 -14.0156 Q2.0781 -14.0156 3.1328 -13.5156 Q4.1875 -13.0156 4.7734 -12 Q5.3594 -10.9844 5.6172 -9.3516 Q5.875 -7.7188 5.875 -4.9219 Q5.875 -2.1562 5.6172 -0.5078 Q5.3594 1.1406 4.7734 2.1797 Q4.1875 3.2188 3.1328 3.7344 Q2.0781 4.25 0.4219 4.25 L0.4219 3.4531 Q1.1094 3.4531 1.625 3.3281 Q2.2344 3.1875 2.6406 2.7969 Q3.1094 2.375 3.4062 1.6094 Q3.75 0.7031 3.9219 -0.7812 Q4.0938 -2.3594 4.0938 -4.8438 Q4.0938 -7.0469 3.9453 -8.5859 Q3.7969 -10.125 3.4531 -11.0938 Q3.1875 -11.9219 2.7812 -12.375 Q2.4062 -12.7812 1.9219 -12.9844 Q1.3438 -13.2188 0.4219 -13.2188 L0.4219 -14.0156 Z" stroke="none"/></g><g text-rendering="optimizeLegibility" transform="translate(109.1094,18)" color-rendering="optimizeQuality" color-interpolation="linearRGB" image-rendering="optimizeQuality"><path d="M7.9531 -1.9375 Q7.2344 -1.1562 6.5703 -0.6953 Q5.9062 -0.2344 5.2422 -0.0391 Q4.5781 0.1562 3.7656 0.1562 Q3 0.1562 2.4453 -0.0938 Q1.8906 -0.3438 1.5234 -0.7812 Q1.1562 -1.2188 0.9766 -1.8125 Q0.7969 -2.4062 0.7969 -3.1094 Q0.7969 -4.1562 1.1719 -5.3516 Q1.5469 -6.5469 2.3125 -7.5 Q3.0781 -8.4531 4.1406 -8.9766 Q5.2031 -9.5 6.4062 -9.5 Q7.5938 -9.5 8.1797 -9.0234 Q8.7656 -8.5469 8.7656 -7.5312 Q8.7656 -5.875 7.2109 -5.0391 Q5.6562 -4.2031 2.5938 -4.2031 Q2.4688 -3.625 2.4688 -2.9375 Q2.4688 -1.9219 2.8672 -1.4531 Q3.2656 -0.9844 4.1875 -0.9844 Q5.0781 -0.9844 5.8125 -1.375 Q6.5469 -1.7656 7.3438 -2.5781 L7.9531 -1.9375 ZM2.75 -5.0469 Q3.6562 -5.0469 4.3359 -5.1406 Q5.0156 -5.2344 5.5 -5.3984 Q5.9844 -5.5625 6.3047 -5.7812 Q6.625 -6 6.8203 -6.2734 Q7.0156 -6.5469 7.0859 -6.8438 Q7.1562 -7.1406 7.1562 -7.4688 Q7.1562 -8.0625 6.8828 -8.3984 Q6.6094 -8.7344 6.0625 -8.7344 Q5.375 -8.7344 4.7109 -8.2422 Q4.0469 -7.75 3.5469 -6.9141 Q3.0469 -6.0781 2.75 -5.0469 Z" stroke="none"/></g><g text-rendering="optimizeLegibility" transform="translate(119.6719,10.1133)" color-rendering="optimizeQuality" color-interpolation="linearRGB" image-rendering="optimizeQuality"><path d="M3.8438 -9.2188 L3.5312 -7.8906 L2.3281 -7.8906 L2.6406 -9.2188 L3.8438 -9.2188 ZM1.7969 0.1094 Q1.5781 1.1562 1.2031 1.7891 Q0.8281 2.4219 0.2188 2.7422 Q-0.3906 3.0625 -1.2188 3.0625 Q-1.5625 3.0625 -1.7969 2.9844 L-1.6406 2.3906 Q-1.5312 2.4219 -1.3984 2.4297 Q-1.2656 2.4375 -1.125 2.4375 Q-0.7969 2.4375 -0.5625 2.3438 Q-0.3281 2.25 -0.1328 2.0156 Q0.0625 1.7812 0.2266 1.375 Q0.3906 0.9688 0.5469 0.3125 L1.6406 -4.6094 Q1.7344 -4.9844 1.7734 -5.2266 Q1.8125 -5.4688 1.8125 -5.6406 Q1.8125 -5.8281 1.75 -5.9375 Q1.6875 -6.0469 1.5547 -6.1016 Q1.4219 -6.1562 1.0781 -6.1719 L1.1562 -6.5312 L2.8281 -6.5938 L3.2188 -6.5938 L1.7969 0.1094 Z" stroke="none"/></g><g text-rendering="optimizeLegibility" transform="translate(123.5156,10.1133)" color-rendering="optimizeQuality" color-interpolation="linearRGB" image-rendering="optimizeQuality"><path d="M4.6406 0.1094 L4 2.9531 L2.9219 2.9531 L3.5625 0.1094 Q2.3125 0.1094 1.7422 -0.4609 Q1.1719 -1.0312 1.1719 -1.8906 Q1.1719 -2.4219 1.4844 -3.7656 Q1.7969 -5.0938 1.7969 -5.5156 Q1.7969 -5.9219 1.4375 -5.9219 Q1.2031 -5.9219 0.75 -5.5625 L0.5781 -5.9531 Q1.3906 -6.6562 2.0938 -6.6562 Q2.9375 -6.6562 2.9375 -5.7188 Q2.9375 -5.25 2.625 -3.75 Q2.3125 -2.2656 2.3125 -1.8125 Q2.3125 -0.5781 3.6875 -0.4531 L5.6875 -9.4688 L6.7656 -9.4688 L4.7656 -0.4375 Q6.1719 -0.4375 6.9062 -1.6875 Q7.6406 -2.9375 7.6406 -4.6094 Q7.6406 -5.6406 7.2969 -6.1719 L7.3594 -6.5312 L8.6094 -6.5312 Q8.75 -6 8.75 -5.4219 Q8.75 -2.7812 7.7188 -1.3359 Q6.6875 0.1094 4.6406 0.1094 Z" stroke="none"/></g><g text-rendering="optimizeLegibility" transform="translate(132.2656,16.3555)" color-rendering="optimizeQuality" color-interpolation="linearRGB" image-rendering="optimizeQuality"><path d="M2.7344 -6.5781 L2.5156 -5.6406 L1.6406 -5.6406 L1.875 -6.5781 L2.7344 -6.5781 ZM1.5312 -1.2188 Q1.4688 -0.9688 1.4609 -0.8594 Q1.4531 -0.75 1.4531 -0.6719 Q1.4531 -0.5156 1.5 -0.4375 Q1.5469 -0.3594 1.6484 -0.3125 Q1.75 -0.2656 1.9844 -0.2344 L1.9375 0 L0.4219 0 L1.1562 -3.2969 Q1.2188 -3.5781 1.25 -3.7422 Q1.2812 -3.9062 1.2812 -4.0312 Q1.2812 -4.1719 1.2344 -4.25 Q1.1875 -4.3281 1.0938 -4.3672 Q1 -4.4062 0.75 -4.4062 L0.8125 -4.6719 L2 -4.7188 L2.2969 -4.7188 L1.5312 -1.2188 Z" stroke="none"/></g><g text-rendering="optimizeLegibility" transform="translate(135,18)" color-rendering="optimizeQuality" color-interpolation="linearRGB" image-rendering="optimizeQuality"><path d="M7.9531 -1.9375 Q7.2344 -1.1562 6.5703 -0.6953 Q5.9062 -0.2344 5.2422 -0.0391 Q4.5781 0.1562 3.7656 0.1562 Q3 0.1562 2.4453 -0.0938 Q1.8906 -0.3438 1.5234 -0.7812 Q1.1562 -1.2188 0.9766 -1.8125 Q0.7969 -2.4062 0.7969 -3.1094 Q0.7969 -4.1562 1.1719 -5.3516 Q1.5469 -6.5469 2.3125 -7.5 Q3.0781 -8.4531 4.1406 -8.9766 Q5.2031 -9.5 6.4062 -9.5 Q7.5938 -9.5 8.1797 -9.0234 Q8.7656 -8.5469 8.7656 -7.5312 Q8.7656 -5.875 7.2109 -5.0391 Q5.6562 -4.2031 2.5938 -4.2031 Q2.4688 -3.625 2.4688 -2.9375 Q2.4688 -1.9219 2.8672 -1.4531 Q3.2656 -0.9844 4.1875 -0.9844 Q5.0781 -0.9844 5.8125 -1.375 Q6.5469 -1.7656 7.3438 -2.5781 L7.9531 -1.9375 ZM2.75 -5.0469 Q3.6562 -5.0469 4.3359 -5.1406 Q5.0156 -5.2344 5.5 -5.3984 Q5.9844 -5.5625 6.3047 -5.7812 Q6.625 -6 6.8203 -6.2734 Q7.0156 -6.5469 7.0859 -6.8438 Q7.1562 -7.1406 7.1562 -7.4688 Q7.1562 -8.0625 6.8828 -8.3984 Q6.6094 -8.7344 6.0625 -8.7344 Q5.375 -8.7344 4.7109 -8.2422 Q4.0469 -7.75 3.5469 -6.9141 Q3.0469 -6.0781 2.75 -5.0469 Z" stroke="none"/></g><g text-rendering="optimizeLegibility" transform="translate(142.8906,11.6914)" color-rendering="optimizeQuality" color-interpolation="linearRGB" image-rendering="optimizeQuality"><path d="M0.875 -3.5312 L0.875 -4.4844 L6.8906 -4.4844 L6.8906 -3.5312 L0.875 -3.5312 Z" stroke="none"/></g><g text-rendering="optimizeLegibility" transform="translate(151.5781,11.6914)" color-rendering="optimizeQuality" color-interpolation="linearRGB" image-rendering="optimizeQuality"><path d="M3.8438 -9.2188 L3.5312 -7.8906 L2.3281 -7.8906 L2.6406 -9.2188 L3.8438 -9.2188 ZM1.7969 0.1094 Q1.5781 1.1562 1.2031 1.7891 Q0.8281 2.4219 0.2188 2.7422 Q-0.3906 3.0625 -1.2188 3.0625 Q-1.5625 3.0625 -1.7969 2.9844 L-1.6406 2.3906 Q-1.5312 2.4219 -1.3984 2.4297 Q-1.2656 2.4375 -1.125 2.4375 Q-0.7969 2.4375 -0.5625 2.3438 Q-0.3281 2.25 -0.1328 2.0156 Q0.0625 1.7812 0.2266 1.375 Q0.3906 0.9688 0.5469 0.3125 L1.6406 -4.6094 Q1.7344 -4.9844 1.7734 -5.2266 Q1.8125 -5.4688 1.8125 -5.6406 Q1.8125 -5.8281 1.75 -5.9375 Q1.6875 -6.0469 1.5547 -6.1016 Q1.4219 -6.1562 1.0781 -6.1719 L1.1562 -6.5312 L2.8281 -6.5938 L3.2188 -6.5938 L1.7969 0.1094 Z" stroke="none"/></g><g text-rendering="optimizeLegibility" transform="translate(155.4219,11.6914)" color-rendering="optimizeQuality" color-interpolation="linearRGB" image-rendering="optimizeQuality"><path d="M2.5156 -3.8125 L2.7344 -3.8125 Q2.9531 -3.8125 3.1953 -3.8906 Q3.4375 -3.9688 3.7188 -4.1484 Q4 -4.3281 4.4688 -4.7031 Q4.8281 -4.9844 5 -5.1875 Q5.1719 -5.3906 5.2344 -5.5391 Q5.2969 -5.6875 5.2969 -5.8281 Q5.2969 -6.1562 4.8281 -6.2031 L4.9062 -6.5312 L7.1094 -6.5312 L7.25 -6.2031 Q6.6719 -5.6875 6.0469 -5.2031 L4.3125 -3.8438 L5.3438 -1.2656 Q5.4688 -0.9062 5.6172 -0.7188 Q5.7656 -0.5312 5.9531 -0.4453 Q6.1406 -0.3594 6.4375 -0.3281 L6.3594 0 L4.5312 0 L3.5312 -2.8125 Q3.4375 -3.0781 3.3672 -3.1719 Q3.2969 -3.2656 3.2109 -3.3047 Q3.125 -3.3438 2.9219 -3.3438 L2.4219 -3.3438 L1.7031 0 L0.5312 0 L2.2812 -7.8125 Q2.3594 -8.1562 2.3906 -8.3125 Q2.4219 -8.4688 2.4375 -8.5938 Q2.4531 -8.7188 2.4531 -8.8281 Q2.4531 -9.1094 2.2734 -9.2266 Q2.0938 -9.3438 1.6406 -9.3594 L1.7344 -9.7188 L3.4531 -9.7812 L3.8594 -9.7812 L2.5156 -3.8125 Z" stroke="none"/></g><g text-rendering="optimizeLegibility" transform="translate(162.6719,11.6914)" color-rendering="optimizeQuality" color-interpolation="linearRGB" image-rendering="optimizeQuality"><path d="M5.9531 -7.8438 Q6 -8.0781 6.0391 -8.3516 Q6.0781 -8.625 6.0781 -8.8281 Q6.0781 -9.0312 6.0078 -9.1406 Q5.9375 -9.25 5.7969 -9.2969 Q5.6562 -9.3438 5.2969 -9.3594 L5.375 -9.7188 L7.0938 -9.7812 L7.5 -9.7812 L5.7188 -1.9062 Q5.625 -1.4688 5.5938 -1.2578 Q5.5625 -1.0469 5.5625 -0.9062 Q5.5625 -0.625 5.7188 -0.5 Q5.875 -0.375 6.3125 -0.3281 L6.25 0 L4.2969 0 L4.7344 -1.7188 L4.6406 -1.75 Q3.9844 -0.7812 3.3984 -0.3359 Q2.8125 0.1094 2.1562 0.1094 Q1.4062 0.1094 0.9922 -0.4609 Q0.5781 -1.0312 0.5781 -2.0625 Q0.5781 -2.7188 0.7266 -3.375 Q0.875 -4.0312 1.1797 -4.625 Q1.4844 -5.2188 1.9062 -5.6719 Q2.3281 -6.125 2.8906 -6.3906 Q3.4531 -6.6562 4.1094 -6.6562 Q4.5156 -6.6562 4.8672 -6.5703 Q5.2188 -6.4844 5.5938 -6.2656 L5.9531 -7.8438 ZM5.0938 -4.1562 Q5.2031 -4.6562 5.2031 -5.0938 Q5.2031 -5.625 4.9766 -5.8672 Q4.75 -6.1094 4.2188 -6.1094 Q3.9375 -6.1094 3.6797 -6.0156 Q3.4219 -5.9219 3.1562 -5.7109 Q2.8906 -5.5 2.6484 -5.1484 Q2.4062 -4.7969 2.2031 -4.2969 Q2 -3.7969 1.8906 -3.2266 Q1.7812 -2.6562 1.7812 -2.125 Q1.7812 -1.4062 1.9766 -1.0547 Q2.1719 -0.7031 2.625 -0.7031 Q2.8438 -0.7031 3.0703 -0.7969 Q3.2969 -0.8906 3.5781 -1.1484 Q3.8594 -1.4062 4.2188 -1.9062 Q4.5469 -2.3594 4.7344 -2.8125 Q4.9219 -3.2656 5.0312 -3.875 L5.0938 -4.1562 Z" stroke="none"/></g><g text-rendering="optimizeLegibility" transform="translate(170.1719,15.0898)" color-rendering="optimizeQuality" color-interpolation="linearRGB" image-rendering="optimizeQuality"><path d="M2.7344 -6.5781 L2.5156 -5.6406 L1.6406 -5.6406 L1.875 -6.5781 L2.7344 -6.5781 ZM1.5312 -1.2188 Q1.4688 -0.9688 1.4609 -0.8594 Q1.4531 -0.75 1.4531 -0.6719 Q1.4531 -0.5156 1.5 -0.4375 Q1.5469 -0.3594 1.6484 -0.3125 Q1.75 -0.2656 1.9844 -0.2344 L1.9375 0 L0.4219 0 L1.1562 -3.2969 Q1.2188 -3.5781 1.25 -3.7422 Q1.2812 -3.9062 1.2812 -4.0312 Q1.2812 -4.1719 1.2344 -4.25 Q1.1875 -4.3281 1.0938 -4.3672 Q1 -4.4062 0.75 -4.4062 L0.8125 -4.6719 L2 -4.7188 L2.2969 -4.7188 L1.5312 -1.2188 Z" stroke="none"/></g></g></svg>