<?xml version="1.0" encoding="UTF-8" standalone="no"?><svg xmlns="http://www.w3.org/2000/svg" xmlns:xlink="http://www.w3.org/1999/xlink" stroke-dasharray="none" shape-rendering="auto" font-family="'Dialog'" width="389.812600" text-rendering="auto" fill-opacity="1" contentScriptType="text/ecmascript" color-interpolation="auto" color-rendering="auto" preserveAspectRatio="xMidYMid meet" font-size="12" fill="black" stroke="black" image-rendering="auto" stroke-miterlimit="10" zoomAndPan="magnify" version="1.0" stroke-linecap="square" stroke-linejoin="miter" contentStyleType="text/css" font-style="normal" height="55" stroke-width="1" stroke-dashoffset="0" font-weight="normal" stroke-opacity="1" y="-20.000000"><!--Converted from MathML using JEuclid--><defs id="genericDefs"/><g><g text-rendering="optimizeLegibility" transform="translate(-0.2344,41.2214) matrix(1,0,0,2.7528,0,0)" color-rendering="optimizeQuality" color-interpolation="linearRGB" image-rendering="optimizeQuality"><path d="M6.5781 4.2031 L2.2344 4.2031 L2.2344 -13.9688 L6.5781 -13.9688 L6.5781 -13.1719 L3.9531 -13.1719 L3.9531 3.4062 L6.5781 3.4062 L6.5781 4.2031 Z" stroke="none"/></g><g text-rendering="optimizeLegibility" transform="translate(8.1094,20.4167)" color-rendering="optimizeQuality" color-interpolation="linearRGB" image-rendering="optimizeQuality"><path d="M6.5781 4.2031 L2.2344 4.2031 L2.2344 -13.9688 L6.5781 -13.9688 L6.5781 -13.1719 L3.9531 -13.1719 L3.9531 3.4062 L6.5781 3.4062 L6.5781 4.2031 Z" stroke="none"/></g><g text-rendering="optimizeLegibility" transform="translate(16.6875,20.4167)" color-rendering="optimizeQuality" color-interpolation="linearRGB" image-rendering="optimizeQuality"><path d="M11.5625 -12.9844 L10.9844 -10.3438 L10.0469 -10.3438 Q9.9688 -11.5469 9.5234 -12.0781 Q9.0781 -12.6094 8.0938 -12.6094 Q7.2656 -12.6094 6.5469 -12.125 Q5.8281 -11.6406 5.1797 -10.7266 Q4.5312 -9.8125 4.0547 -8.5859 Q3.5781 -7.3594 3.3203 -6.0859 Q3.0625 -4.8125 3.0625 -3.7969 Q3.0625 -2.2031 3.5859 -1.4531 Q4.1094 -0.7031 5.2188 -0.7031 Q5.9531 -0.7031 6.5 -0.9219 Q7.0469 -1.1406 7.5312 -1.6641 Q8.0156 -2.1875 8.4844 -3.125 L9.4219 -3.125 L8.8125 -0.3594 Q7.8281 -0.0781 6.8984 0.0391 Q5.9688 0.1562 4.9844 0.1562 Q3.7812 0.1562 2.9297 -0.3438 Q2.0781 -0.8438 1.6484 -1.7969 Q1.2188 -2.75 1.2188 -4.0938 Q1.2188 -4.7969 1.3125 -5.4531 Q1.4375 -6.2812 1.6875 -7.25 Q2.0156 -8.4531 2.5 -9.4375 Q3.0312 -10.4844 3.7031 -11.2812 Q4.3438 -12.0156 5.0781 -12.5156 Q5.7656 -12.9844 6.5547 -13.2344 Q7.3438 -13.4844 8.2344 -13.4844 Q9.125 -13.4844 9.8828 -13.375 Q10.6406 -13.2656 11.5625 -12.9844 Z" stroke="none"/></g><g text-rendering="optimizeLegibility" transform="translate(28.25,10.987)" color-rendering="optimizeQuality" color-interpolation="linearRGB" image-rendering="optimizeQuality"><path d="M4.6094 -1.2656 Q4.0469 -0.5781 3.5 -0.2344 Q2.9531 0.1094 2.3438 0.1094 Q1.625 0.1094 1.2656 -0.2578 Q0.9062 -0.625 0.9062 -1.3281 Q0.9062 -1.7656 1.0312 -2.2969 L1.875 -5.8438 L0.8594 -5.8438 L0.9375 -6.1875 Q1.3438 -6.2344 1.5781 -6.3672 Q1.8125 -6.5 1.9766 -6.7031 Q2.1406 -6.9062 2.2734 -7.2422 Q2.4062 -7.5781 2.6094 -8.2188 L3.5625 -8.2188 L3.1719 -6.5312 L5.3438 -6.5312 L5.2031 -5.8438 L3.0156 -5.8438 L2.3594 -3.1875 Q2.0938 -2.0781 2.0938 -1.5312 Q2.0938 -1.125 2.2734 -0.9062 Q2.4531 -0.6875 2.7969 -0.6875 Q3.125 -0.6875 3.4688 -0.9297 Q3.8125 -1.1719 4.2188 -1.6719 L4.6094 -1.2656 Z" stroke="none"/></g><g text-rendering="optimizeLegibility" transform="translate(35.1719,20.4167)" color-rendering="optimizeQuality" color-interpolation="linearRGB" image-rendering="optimizeQuality"><path d="M4.7812 4.2031 L0.4219 4.2031 L0.4219 3.4062 L3.0625 3.4062 L3.0625 -13.1719 L0.4219 -13.1719 L0.4219 -13.9688 L4.7812 -13.9688 L4.7812 4.2031 Z" stroke="none"/></g><g text-rendering="optimizeLegibility" transform="translate(55.141,20.4167)" color-rendering="optimizeQuality" color-interpolation="linearRGB" image-rendering="optimizeQuality"><path d="M6.5781 4.2031 L2.2344 4.2031 L2.2344 -13.9688 L6.5781 -13.9688 L6.5781 -13.1719 L3.9531 -13.1719 L3.9531 3.4062 L6.5781 3.4062 L6.5781 4.2031 Z" stroke="none"/></g><g text-rendering="optimizeLegibility" transform="translate(63.7191,20.4167)" color-rendering="optimizeQuality" color-interpolation="linearRGB" image-rendering="optimizeQuality"><path d="M5.4375 0.1562 Q3.3281 0.1562 2.2969 -1.5078 Q1.2656 -3.1719 1.2656 -6.5469 Q1.2656 -8.3438 1.5781 -9.6484 Q1.8906 -10.9531 2.4609 -11.8125 Q3.0312 -12.6719 3.8359 -13.0781 Q4.6406 -13.4844 5.5938 -13.4844 Q7.7188 -13.4844 8.7656 -11.8359 Q9.8125 -10.1875 9.8125 -6.8438 Q9.8125 -3.3906 8.6953 -1.6172 Q7.5781 0.1562 5.4375 0.1562 ZM3.1719 -6.8438 Q3.1719 -3.6562 3.7578 -2.1641 Q4.3438 -0.6719 5.5938 -0.6719 Q6.7656 -0.6719 7.3359 -2.0781 Q7.9062 -3.4844 7.9062 -6.4219 Q7.9062 -8.6562 7.6172 -10.0547 Q7.3281 -11.4531 6.8047 -12.0547 Q6.2812 -12.6562 5.5312 -12.6562 Q4.8594 -12.6562 4.4062 -12.2578 Q3.9531 -11.8594 3.6797 -11.1094 Q3.4062 -10.3594 3.2891 -9.2734 Q3.1719 -8.1875 3.1719 -6.8438 Z" stroke="none"/></g><g text-rendering="optimizeLegibility" transform="translate(75.1097,20.4167)" color-rendering="optimizeQuality" color-interpolation="linearRGB" image-rendering="optimizeQuality"><path d="M4.7812 4.2031 L0.4219 4.2031 L0.4219 3.4062 L3.0625 3.4062 L3.0625 -13.1719 L0.4219 -13.1719 L0.4219 -13.9688 L4.7812 -13.9688 L4.7812 4.2031 Z" stroke="none"/></g><g text-rendering="optimizeLegibility" transform="translate(11.6562,48.5886)" color-rendering="optimizeQuality" color-interpolation="linearRGB" image-rendering="optimizeQuality"><path d="M6.5781 4.2031 L2.2344 4.2031 L2.2344 -13.9688 L6.5781 -13.9688 L6.5781 -13.1719 L3.9531 -13.1719 L3.9531 3.4062 L6.5781 3.4062 L6.5781 4.2031 Z" stroke="none"/></g><g text-rendering="optimizeLegibility" transform="translate(20.2344,48.5886)" color-rendering="optimizeQuality" color-interpolation="linearRGB" image-rendering="optimizeQuality"><path d="M5.4375 0.1562 Q3.3281 0.1562 2.2969 -1.5078 Q1.2656 -3.1719 1.2656 -6.5469 Q1.2656 -8.3438 1.5781 -9.6484 Q1.8906 -10.9531 2.4609 -11.8125 Q3.0312 -12.6719 3.8359 -13.0781 Q4.6406 -13.4844 5.5938 -13.4844 Q7.7188 -13.4844 8.7656 -11.8359 Q9.8125 -10.1875 9.8125 -6.8438 Q9.8125 -3.3906 8.6953 -1.6172 Q7.5781 0.1562 5.4375 0.1562 ZM3.1719 -6.8438 Q3.1719 -3.6562 3.7578 -2.1641 Q4.3438 -0.6719 5.5938 -0.6719 Q6.7656 -0.6719 7.3359 -2.0781 Q7.9062 -3.4844 7.9062 -6.4219 Q7.9062 -8.6562 7.6172 -10.0547 Q7.3281 -11.4531 6.8047 -12.0547 Q6.2812 -12.6562 5.5312 -12.6562 Q4.8594 -12.6562 4.4062 -12.2578 Q3.9531 -11.8594 3.6797 -11.1094 Q3.4062 -10.3594 3.2891 -9.2734 Q3.1719 -8.1875 3.1719 -6.8438 Z" stroke="none"/></g><g text-rendering="optimizeLegibility" transform="translate(31.625,48.5886)" color-rendering="optimizeQuality" color-interpolation="linearRGB" image-rendering="optimizeQuality"><path d="M4.7812 4.2031 L0.4219 4.2031 L0.4219 3.4062 L3.0625 3.4062 L3.0625 -13.1719 L0.4219 -13.1719 L0.4219 -13.9688 L4.7812 -13.9688 L4.7812 4.2031 Z" stroke="none"/></g><g text-rendering="optimizeLegibility" transform="translate(55.141,48.5886)" color-rendering="optimizeQuality" color-interpolation="linearRGB" image-rendering="optimizeQuality"><path d="M6.5781 4.2031 L2.2344 4.2031 L2.2344 -13.9688 L6.5781 -13.9688 L6.5781 -13.1719 L3.9531 -13.1719 L3.9531 3.4062 L6.5781 3.4062 L6.5781 4.2031 Z" stroke="none"/></g><g text-rendering="optimizeLegibility" transform="translate(63.7191,48.5886)" color-rendering="optimizeQuality" color-interpolation="linearRGB" image-rendering="optimizeQuality"><path d="M5.4375 0.1562 Q3.3281 0.1562 2.2969 -1.5078 Q1.2656 -3.1719 1.2656 -6.5469 Q1.2656 -8.3438 1.5781 -9.6484 Q1.8906 -10.9531 2.4609 -11.8125 Q3.0312 -12.6719 3.8359 -13.0781 Q4.6406 -13.4844 5.5938 -13.4844 Q7.7188 -13.4844 8.7656 -11.8359 Q9.8125 -10.1875 9.8125 -6.8438 Q9.8125 -3.3906 8.6953 -1.6172 Q7.5781 0.1562 5.4375 0.1562 ZM3.1719 -6.8438 Q3.1719 -3.6562 3.7578 -2.1641 Q4.3438 -0.6719 5.5938 -0.6719 Q6.7656 -0.6719 7.3359 -2.0781 Q7.9062 -3.4844 7.9062 -6.4219 Q7.9062 -8.6562 7.6172 -10.0547 Q7.3281 -11.4531 6.8047 -12.0547 Q6.2812 -12.6562 5.5312 -12.6562 Q4.8594 -12.6562 4.4062 -12.2578 Q3.9531 -11.8594 3.6797 -11.1094 Q3.4062 -10.3594 3.2891 -9.2734 Q3.1719 -8.1875 3.1719 -6.8438 Z" stroke="none"/></g><g text-rendering="optimizeLegibility" transform="translate(75.1097,48.5886)" color-rendering="optimizeQuality" color-interpolation="linearRGB" image-rendering="optimizeQuality"><path d="M4.7812 4.2031 L0.4219 4.2031 L0.4219 3.4062 L3.0625 3.4062 L3.0625 -13.1719 L0.4219 -13.1719 L0.4219 -13.9688 L4.7812 -13.9688 L4.7812 4.2031 Z" stroke="none"/></g><g text-rendering="optimizeLegibility" transform="translate(83.4691,41.2214) matrix(1,0,0,2.7528,0,0)" color-rendering="optimizeQuality" color-interpolation="linearRGB" image-rendering="optimizeQuality"><path d="M4.7812 4.2031 L0.4219 4.2031 L0.4219 3.4062 L3.0625 3.4062 L3.0625 -13.1719 L0.4219 -13.1719 L0.4219 -13.9688 L4.7812 -13.9688 L4.7812 4.2031 Z" stroke="none"/></g><g text-rendering="optimizeLegibility" transform="translate(91.3285,41.425) matrix(1,0,0,2.799,0,0)" color-rendering="optimizeQuality" color-interpolation="linearRGB" image-rendering="optimizeQuality"><path d="M7.0781 4.2188 Q5.5625 4.2188 4.6797 3.8281 Q3.7969 3.4375 3.4141 2.6641 Q3.0312 1.8906 3.0312 0.5781 L3.0312 -2.25 Q3.0312 -3.1094 2.8125 -3.5938 Q2.5938 -4.0781 2.1562 -4.2734 Q1.7188 -4.4688 0.9219 -4.4688 L0.9219 -5.2812 Q1.7031 -5.2812 2.1484 -5.4766 Q2.5938 -5.6719 2.8125 -6.1484 Q3.0312 -6.625 3.0312 -7.5 L3.0312 -10.3281 Q3.0312 -11.625 3.4141 -12.4062 Q3.7969 -13.1875 4.6797 -13.5781 Q5.5625 -13.9688 7.0781 -13.9688 L7.3281 -13.9688 L7.3281 -13.1719 Q6.5469 -13.1719 6.1641 -13.0938 Q5.7812 -13.0156 5.5391 -12.8438 Q5.2969 -12.6719 5.1406 -12.4141 Q4.9844 -12.1562 4.8984 -11.6875 Q4.8125 -11.2188 4.8125 -10.4375 L4.8125 -8.5469 Q4.8125 -7.5625 4.6406 -6.8984 Q4.4688 -6.2344 4.0312 -5.7578 Q3.5938 -5.2812 2.8281 -4.9688 L2.8281 -4.7812 Q3.5781 -4.4844 4.0312 -3.9844 Q4.4844 -3.4844 4.6484 -2.8203 Q4.8125 -2.1562 4.8125 -1.2031 L4.8125 0.6875 Q4.8125 1.4688 4.8984 1.9375 Q4.9844 2.4062 5.1406 2.6719 Q5.2969 2.9375 5.5391 3.1016 Q5.7812 3.2656 6.1641 3.3438 Q6.5469 3.4219 7.3281 3.4219 L7.3281 4.2188 L7.0781 4.2188 Z" stroke="none"/></g><g text-rendering="optimizeLegibility" transform="translate(101.7347,18.5612)" color-rendering="optimizeQuality" color-interpolation="linearRGB" image-rendering="optimizeQuality"><path d="M7.0781 4.2188 Q5.5625 4.2188 4.6797 3.8281 Q3.7969 3.4375 3.4141 2.6641 Q3.0312 1.8906 3.0312 0.5781 L3.0312 -2.25 Q3.0312 -3.1094 2.8125 -3.5938 Q2.5938 -4.0781 2.1562 -4.2734 Q1.7188 -4.4688 0.9219 -4.4688 L0.9219 -5.2812 Q1.7031 -5.2812 2.1484 -5.4766 Q2.5938 -5.6719 2.8125 -6.1484 Q3.0312 -6.625 3.0312 -7.5 L3.0312 -10.3281 Q3.0312 -11.625 3.4141 -12.4062 Q3.7969 -13.1875 4.6797 -13.5781 Q5.5625 -13.9688 7.0781 -13.9688 L7.3281 -13.9688 L7.3281 -13.1719 Q6.5469 -13.1719 6.1641 -13.0938 Q5.7812 -13.0156 5.5391 -12.8438 Q5.2969 -12.6719 5.1406 -12.4141 Q4.9844 -12.1562 4.8984 -11.6875 Q4.8125 -11.2188 4.8125 -10.4375 L4.8125 -8.5469 Q4.8125 -7.5625 4.6406 -6.8984 Q4.4688 -6.2344 4.0312 -5.7578 Q3.5938 -5.2812 2.8281 -4.9688 L2.8281 -4.7812 Q3.5781 -4.4844 4.0312 -3.9844 Q4.4844 -3.4844 4.6484 -2.8203 Q4.8125 -2.1562 4.8125 -1.2031 L4.8125 0.6875 Q4.8125 1.4688 4.8984 1.9375 Q4.9844 2.4062 5.1406 2.6719 Q5.2969 2.9375 5.5391 3.1016 Q5.7812 3.2656 6.1641 3.3438 Q6.5469 3.4219 7.3281 3.4219 L7.3281 4.2188 L7.0781 4.2188 Z" stroke="none"/></g><g text-rendering="optimizeLegibility" transform="translate(111.0629,18.5612)" color-rendering="optimizeQuality" color-interpolation="linearRGB" image-rendering="optimizeQuality"><path d="M6.9531 0 L2.8438 0 L2.9531 -0.4844 Q3.3281 -0.5312 3.5156 -0.6328 Q3.7031 -0.7344 3.8438 -0.9375 Q3.9844 -1.1406 4.1328 -1.5781 Q4.2812 -2.0156 4.4688 -2.9062 L6.5625 -12.4688 L5.3281 -12.4688 Q4.7188 -12.4688 4.3594 -12.2969 Q4 -12.125 3.6328 -11.6406 Q3.2656 -11.1562 2.75 -10.0469 L1.8125 -10.0469 L2.5469 -13.3281 L12.75 -13.3281 L11.9844 -9.8906 L11.0469 -9.8906 Q11.0469 -10.8438 11 -11.3125 Q10.9531 -11.7812 10.8125 -12.0312 Q10.6719 -12.2812 10.4766 -12.375 Q10.2812 -12.4688 9.7656 -12.4688 L8.3281 -12.4688 L6.2031 -2.8438 Q6.1094 -2.4688 6.0781 -2.2422 Q6.0469 -2.0156 6.0234 -1.7656 Q6 -1.5156 6 -1.3125 Q6 -1.0156 6.0938 -0.8438 Q6.1875 -0.6719 6.3828 -0.5938 Q6.5781 -0.5156 7.0625 -0.4844 L6.9531 0 Z" stroke="none"/></g><g text-rendering="optimizeLegibility" transform="translate(114.6019,15.4987)" color-rendering="optimizeQuality" color-interpolation="linearRGB" image-rendering="optimizeQuality"><path d="M3.7344 -13.1719 L3.7344 -11.2656 L1.9375 -11.2656 L1.9375 -13.1719 L3.7344 -13.1719 Z" stroke="none"/></g><g text-rendering="optimizeLegibility" transform="translate(125.391,18.5612)" color-rendering="optimizeQuality" color-interpolation="linearRGB" image-rendering="optimizeQuality"><path d="M0.6719 -13.9688 Q2.1875 -13.9688 3.0703 -13.5781 Q3.9531 -13.1875 4.3281 -12.4062 Q4.7031 -11.625 4.7031 -10.3281 L4.7031 -7.5 Q4.7031 -6.625 4.9297 -6.1484 Q5.1562 -5.6719 5.5938 -5.4766 Q6.0312 -5.2812 6.8125 -5.2812 L6.8125 -4.4688 Q6.0312 -4.4688 5.5859 -4.2734 Q5.1406 -4.0781 4.9219 -3.5938 Q4.7031 -3.1094 4.7031 -2.25 L4.7031 0.5781 Q4.7031 1.8906 4.3281 2.6641 Q3.9531 3.4375 3.0703 3.8281 Q2.1875 4.2188 0.6719 4.2188 L0.4219 4.2188 L0.4219 3.4219 Q1.1875 3.4219 1.5781 3.3438 Q1.9688 3.2656 2.2031 3.1016 Q2.4375 2.9375 2.5938 2.6719 Q2.75 2.4062 2.8438 1.9375 Q2.9375 1.4688 2.9375 0.6875 L2.9375 -1.2031 Q2.9375 -2.1875 3.1016 -2.8438 Q3.2656 -3.5 3.7109 -3.9844 Q4.1562 -4.4688 4.9062 -4.7812 L4.9062 -4.9688 Q4.1719 -5.2656 3.7188 -5.7656 Q3.2656 -6.2656 3.1016 -6.9297 Q2.9375 -7.5938 2.9375 -8.5469 L2.9375 -10.4375 Q2.9375 -11.2188 2.8438 -11.6875 Q2.75 -12.1562 2.5938 -12.4141 Q2.4375 -12.6719 2.2031 -12.8438 Q1.9688 -13.0156 1.5781 -13.0938 Q1.1875 -13.1719 0.4219 -13.1719 L0.4219 -13.9688 L0.6719 -13.9688 Z" stroke="none"/></g><g text-rendering="optimizeLegibility" transform="translate(102.4222,49.0144)" color-rendering="optimizeQuality" color-interpolation="linearRGB" image-rendering="optimizeQuality"><path d="M7.0781 4.2188 Q5.5625 4.2188 4.6797 3.8281 Q3.7969 3.4375 3.4141 2.6641 Q3.0312 1.8906 3.0312 0.5781 L3.0312 -2.25 Q3.0312 -3.1094 2.8125 -3.5938 Q2.5938 -4.0781 2.1562 -4.2734 Q1.7188 -4.4688 0.9219 -4.4688 L0.9219 -5.2812 Q1.7031 -5.2812 2.1484 -5.4766 Q2.5938 -5.6719 2.8125 -6.1484 Q3.0312 -6.625 3.0312 -7.5 L3.0312 -10.3281 Q3.0312 -11.625 3.4141 -12.4062 Q3.7969 -13.1875 4.6797 -13.5781 Q5.5625 -13.9688 7.0781 -13.9688 L7.3281 -13.9688 L7.3281 -13.1719 Q6.5469 -13.1719 6.1641 -13.0938 Q5.7812 -13.0156 5.5391 -12.8438 Q5.2969 -12.6719 5.1406 -12.4141 Q4.9844 -12.1562 4.8984 -11.6875 Q4.8125 -11.2188 4.8125 -10.4375 L4.8125 -8.5469 Q4.8125 -7.5625 4.6406 -6.8984 Q4.4688 -6.2344 4.0312 -5.7578 Q3.5938 -5.2812 2.8281 -4.9688 L2.8281 -4.7812 Q3.5781 -4.4844 4.0312 -3.9844 Q4.4844 -3.4844 4.6484 -2.8203 Q4.8125 -2.1562 4.8125 -1.2031 L4.8125 0.6875 Q4.8125 1.4688 4.8984 1.9375 Q4.9844 2.4062 5.1406 2.6719 Q5.2969 2.9375 5.5391 3.1016 Q5.7812 3.2656 6.1641 3.3438 Q6.5469 3.4219 7.3281 3.4219 L7.3281 4.2188 L7.0781 4.2188 Z" stroke="none"/></g><g text-rendering="optimizeLegibility" transform="translate(111.7504,49.0144)" color-rendering="optimizeQuality" color-interpolation="linearRGB" image-rendering="optimizeQuality"><path d="M7.2812 -13.3281 Q8.4375 -13.3281 9.1875 -13.1484 Q9.9375 -12.9688 10.4219 -12.5938 Q10.9062 -12.2188 11.1406 -11.6406 Q11.375 -11.0625 11.375 -10.2969 Q11.375 -8.8438 10.6797 -7.7656 Q9.9844 -6.6875 8.8047 -6.1797 Q7.625 -5.6719 5.9531 -5.6719 Q4.9688 -5.6719 4.2969 -5.7188 L3.6719 -2.8438 Q3.5781 -2.4375 3.5469 -2.2266 Q3.5156 -2.0156 3.4922 -1.7656 Q3.4688 -1.5156 3.4688 -1.3125 Q3.4688 -1.0156 3.5625 -0.8438 Q3.6562 -0.6719 3.8516 -0.5938 Q4.0469 -0.5156 4.5312 -0.4844 L4.4219 0 L0.4062 0 L0.5156 -0.4844 Q0.8906 -0.5312 1.0781 -0.6641 Q1.2656 -0.7969 1.3906 -1.0312 Q1.5156 -1.2656 1.625 -1.6016 Q1.7344 -1.9375 1.9375 -2.9062 L3.6094 -10.4375 Q3.8125 -11.4062 3.8125 -11.9688 Q3.8125 -12.4531 3.5938 -12.6406 Q3.375 -12.8281 2.8594 -12.8594 L2.9688 -13.3281 L7.2812 -13.3281 ZM5.4844 -6.5312 Q6.6562 -6.5312 7.3828 -6.7734 Q8.1094 -7.0156 8.5781 -7.5234 Q9.0469 -8.0312 9.2969 -8.7344 Q9.5469 -9.4375 9.5469 -10.2812 Q9.5469 -11.1094 9.2578 -11.5938 Q8.9688 -12.0781 8.4297 -12.2734 Q7.8906 -12.4688 7.0625 -12.4688 Q6.4531 -12.4688 5.7969 -12.4375 L4.4688 -6.5312 L5.4844 -6.5312 Z" stroke="none"/></g><g text-rendering="optimizeLegibility" transform="translate(114.6019,45.9519)" color-rendering="optimizeQuality" color-interpolation="linearRGB" image-rendering="optimizeQuality"><path d="M3.7344 -13.1719 L3.7344 -11.2656 L1.9375 -11.2656 L1.9375 -13.1719 L3.7344 -13.1719 Z" stroke="none"/></g><g text-rendering="optimizeLegibility" transform="translate(124.7035,49.0144)" color-rendering="optimizeQuality" color-interpolation="linearRGB" image-rendering="optimizeQuality"><path d="M0.6719 -13.9688 Q2.1875 -13.9688 3.0703 -13.5781 Q3.9531 -13.1875 4.3281 -12.4062 Q4.7031 -11.625 4.7031 -10.3281 L4.7031 -7.5 Q4.7031 -6.625 4.9297 -6.1484 Q5.1562 -5.6719 5.5938 -5.4766 Q6.0312 -5.2812 6.8125 -5.2812 L6.8125 -4.4688 Q6.0312 -4.4688 5.5859 -4.2734 Q5.1406 -4.0781 4.9219 -3.5938 Q4.7031 -3.1094 4.7031 -2.25 L4.7031 0.5781 Q4.7031 1.8906 4.3281 2.6641 Q3.9531 3.4375 3.0703 3.8281 Q2.1875 4.2188 0.6719 4.2188 L0.4219 4.2188 L0.4219 3.4219 Q1.1875 3.4219 1.5781 3.3438 Q1.9688 3.2656 2.2031 3.1016 Q2.4375 2.9375 2.5938 2.6719 Q2.75 2.4062 2.8438 1.9375 Q2.9375 1.4688 2.9375 0.6875 L2.9375 -1.2031 Q2.9375 -2.1875 3.1016 -2.8438 Q3.2656 -3.5 3.7109 -3.9844 Q4.1562 -4.4688 4.9062 -4.7812 L4.9062 -4.9688 Q4.1719 -5.2656 3.7188 -5.7656 Q3.2656 -6.2656 3.1016 -6.9297 Q2.9375 -7.5938 2.9375 -8.5469 L2.9375 -10.4375 Q2.9375 -11.2188 2.8438 -11.6875 Q2.75 -12.1562 2.5938 -12.4141 Q2.4375 -12.6719 2.2031 -12.8438 Q1.9688 -13.0156 1.5781 -13.0938 Q1.1875 -13.1719 0.4219 -13.1719 L0.4219 -13.9688 L0.6719 -13.9688 Z" stroke="none"/></g><g text-rendering="optimizeLegibility" transform="translate(135.7816,41.425) matrix(1,0,0,2.799,0,0)" color-rendering="optimizeQuality" color-interpolation="linearRGB" image-rendering="optimizeQuality"><path d="M0.6719 -13.9688 Q2.1875 -13.9688 3.0703 -13.5781 Q3.9531 -13.1875 4.3281 -12.4062 Q4.7031 -11.625 4.7031 -10.3281 L4.7031 -7.5 Q4.7031 -6.625 4.9297 -6.1484 Q5.1562 -5.6719 5.5938 -5.4766 Q6.0312 -5.2812 6.8125 -5.2812 L6.8125 -4.4688 Q6.0312 -4.4688 5.5859 -4.2734 Q5.1406 -4.0781 4.9219 -3.5938 Q4.7031 -3.1094 4.7031 -2.25 L4.7031 0.5781 Q4.7031 1.8906 4.3281 2.6641 Q3.9531 3.4375 3.0703 3.8281 Q2.1875 4.2188 0.6719 4.2188 L0.4219 4.2188 L0.4219 3.4219 Q1.1875 3.4219 1.5781 3.3438 Q1.9688 3.2656 2.2031 3.1016 Q2.4375 2.9375 2.5938 2.6719 Q2.75 2.4062 2.8438 1.9375 Q2.9375 1.4688 2.9375 0.6875 L2.9375 -1.2031 Q2.9375 -2.1875 3.1016 -2.8438 Q3.2656 -3.5 3.7109 -3.9844 Q4.1562 -4.4688 4.9062 -4.7812 L4.9062 -4.9688 Q4.1719 -5.2656 3.7188 -5.7656 Q3.2656 -6.2656 3.1016 -6.9297 Q2.9375 -7.5938 2.9375 -8.5469 L2.9375 -10.4375 Q2.9375 -11.2188 2.8438 -11.6875 Q2.75 -12.1562 2.5938 -12.4141 Q2.4375 -12.6719 2.2031 -12.8438 Q1.9688 -13.0156 1.5781 -13.0938 Q1.1875 -13.1719 0.4219 -13.1719 L0.4219 -13.9688 L0.6719 -13.9688 Z" stroke="none"/></g><g text-rendering="optimizeLegibility" transform="translate(145.3754,35)" color-rendering="optimizeQuality" color-interpolation="linearRGB" image-rendering="optimizeQuality"><path d="M6.25 -5.0469 L6.25 -1.3438 L4.8125 -1.3438 L4.8125 -5.0469 L1.2188 -5.0469 L1.2188 -6.3906 L4.8125 -6.3906 L4.8125 -10.0938 L6.25 -10.0938 L6.25 -6.3906 L9.8594 -6.3906 L9.8594 -5.0469 L6.25 -5.0469 Z" stroke="none"/></g><g text-rendering="optimizeLegibility" transform="translate(157.0004,42.2941) matrix(1,0,0,2.9725,0,0)" color-rendering="optimizeQuality" color-interpolation="linearRGB" image-rendering="optimizeQuality"><path d="M6.5781 4.2031 L2.2344 4.2031 L2.2344 -13.9688 L6.5781 -13.9688 L6.5781 -13.1719 L3.9531 -13.1719 L3.9531 3.4062 L6.5781 3.4062 L6.5781 4.2031 Z" stroke="none"/></g><g text-rendering="optimizeLegibility" transform="translate(165.3441,18.2644)" color-rendering="optimizeQuality" color-interpolation="linearRGB" image-rendering="optimizeQuality"><path d="M6.5781 4.2031 L2.2344 4.2031 L2.2344 -13.9688 L6.5781 -13.9688 L6.5781 -13.1719 L3.9531 -13.1719 L3.9531 3.4062 L6.5781 3.4062 L6.5781 4.2031 Z" stroke="none"/></g><g text-rendering="optimizeLegibility" transform="translate(173.9222,18.2644)" color-rendering="optimizeQuality" color-interpolation="linearRGB" image-rendering="optimizeQuality"><path d="M4.6562 -7.3125 L4.9688 -7.3125 Q5.375 -7.3125 5.7188 -7.4453 Q6.0625 -7.5781 6.5078 -7.9375 Q6.9531 -8.2969 7.9375 -9.2656 Q8.9219 -10.2344 9.3359 -10.7344 Q9.75 -11.2344 9.9375 -11.6016 Q10.125 -11.9688 10.125 -12.2812 Q10.125 -12.5156 9.9297 -12.6719 Q9.7344 -12.8281 9.375 -12.8594 L9.4844 -13.3281 L13.6719 -13.3281 L13.5625 -12.8594 Q13.1719 -12.7969 12.6797 -12.4453 Q12.1875 -12.0938 11.1719 -11.0938 L7.3906 -7.4062 L9.4688 -2.4062 Q9.7344 -1.7656 9.8906 -1.4688 Q10.0469 -1.1719 10.2344 -0.9688 Q10.4219 -0.7656 10.6562 -0.6484 Q10.8906 -0.5312 11.2188 -0.4844 L11.1094 0 L7.3438 0 L7.4531 -0.4844 Q7.9844 -0.5312 7.9844 -0.9531 Q7.9844 -1.0781 7.9609 -1.2109 Q7.9375 -1.3438 7.8516 -1.6094 Q7.7656 -1.875 7.625 -2.25 L6.3438 -5.3594 Q6.125 -5.9062 5.9609 -6.1328 Q5.7969 -6.3594 5.6094 -6.4453 Q5.4219 -6.5312 5.0312 -6.5312 L4.4844 -6.5312 L3.6719 -2.8438 Q3.5469 -2.25 3.5078 -1.9141 Q3.4688 -1.5781 3.4688 -1.3125 Q3.4688 -0.875 3.6875 -0.6953 Q3.9062 -0.5156 4.4219 -0.4844 L4.3125 0 L0.4062 0 L0.5156 -0.4844 Q0.8906 -0.5312 1.0781 -0.6641 Q1.2656 -0.7969 1.3906 -1.0312 Q1.5156 -1.2656 1.625 -1.6016 Q1.7344 -1.9375 1.9375 -2.9062 L3.6094 -10.4375 Q3.7031 -10.875 3.7578 -11.2891 Q3.8125 -11.7031 3.8125 -12 Q3.8125 -12.4688 3.5781 -12.6484 Q3.3438 -12.8281 2.8594 -12.8594 L2.9688 -13.3281 L6.875 -13.3281 L6.7656 -12.8594 Q6.3906 -12.7812 6.2344 -12.6797 Q6.0781 -12.5781 5.9453 -12.3828 Q5.8125 -12.1875 5.6797 -11.7734 Q5.5469 -11.3594 5.3438 -10.4219 L4.6562 -7.3125 Z" stroke="none"/></g><g text-rendering="optimizeLegibility" transform="translate(187.5941,8.9909)" color-rendering="optimizeQuality" color-interpolation="linearRGB" image-rendering="optimizeQuality"><path d="M4.6094 -1.2656 Q4.0469 -0.5781 3.5 -0.2344 Q2.9531 0.1094 2.3438 0.1094 Q1.625 0.1094 1.2656 -0.2578 Q0.9062 -0.625 0.9062 -1.3281 Q0.9062 -1.7656 1.0312 -2.2969 L1.875 -5.8438 L0.8594 -5.8438 L0.9375 -6.1875 Q1.3438 -6.2344 1.5781 -6.3672 Q1.8125 -6.5 1.9766 -6.7031 Q2.1406 -6.9062 2.2734 -7.2422 Q2.4062 -7.5781 2.6094 -8.2188 L3.5625 -8.2188 L3.1719 -6.5312 L5.3438 -6.5312 L5.2031 -5.8438 L3.0156 -5.8438 L2.3594 -3.1875 Q2.0938 -2.0781 2.0938 -1.5312 Q2.0938 -1.125 2.2734 -0.9062 Q2.4531 -0.6875 2.7969 -0.6875 Q3.125 -0.6875 3.4688 -0.9297 Q3.8125 -1.1719 4.2188 -1.6719 L4.6094 -1.2656 Z" stroke="none"/></g><g text-rendering="optimizeLegibility" transform="translate(194.516,18.2644)" color-rendering="optimizeQuality" color-interpolation="linearRGB" image-rendering="optimizeQuality"><path d="M4.7812 4.2031 L0.4219 4.2031 L0.4219 3.4062 L3.0625 3.4062 L3.0625 -13.1719 L0.4219 -13.1719 L0.4219 -13.9688 L4.7812 -13.9688 L4.7812 4.2031 Z" stroke="none"/></g><g text-rendering="optimizeLegibility" transform="translate(219.8523,18.2644)" color-rendering="optimizeQuality" color-interpolation="linearRGB" image-rendering="optimizeQuality"><path d="M6.5781 4.2031 L2.2344 4.2031 L2.2344 -13.9688 L6.5781 -13.9688 L6.5781 -13.1719 L3.9531 -13.1719 L3.9531 3.4062 L6.5781 3.4062 L6.5781 4.2031 Z" stroke="none"/></g><g text-rendering="optimizeLegibility" transform="translate(228.4304,18.2644)" color-rendering="optimizeQuality" color-interpolation="linearRGB" image-rendering="optimizeQuality"><path d="M5.4375 0.1562 Q3.3281 0.1562 2.2969 -1.5078 Q1.2656 -3.1719 1.2656 -6.5469 Q1.2656 -8.3438 1.5781 -9.6484 Q1.8906 -10.9531 2.4609 -11.8125 Q3.0312 -12.6719 3.8359 -13.0781 Q4.6406 -13.4844 5.5938 -13.4844 Q7.7188 -13.4844 8.7656 -11.8359 Q9.8125 -10.1875 9.8125 -6.8438 Q9.8125 -3.3906 8.6953 -1.6172 Q7.5781 0.1562 5.4375 0.1562 ZM3.1719 -6.8438 Q3.1719 -3.6562 3.7578 -2.1641 Q4.3438 -0.6719 5.5938 -0.6719 Q6.7656 -0.6719 7.3359 -2.0781 Q7.9062 -3.4844 7.9062 -6.4219 Q7.9062 -8.6562 7.6172 -10.0547 Q7.3281 -11.4531 6.8047 -12.0547 Q6.2812 -12.6562 5.5312 -12.6562 Q4.8594 -12.6562 4.4062 -12.2578 Q3.9531 -11.8594 3.6797 -11.1094 Q3.4062 -10.3594 3.2891 -9.2734 Q3.1719 -8.1875 3.1719 -6.8438 Z" stroke="none"/></g><g text-rendering="optimizeLegibility" transform="translate(239.821,18.2644)" color-rendering="optimizeQuality" color-interpolation="linearRGB" image-rendering="optimizeQuality"><path d="M4.7812 4.2031 L0.4219 4.2031 L0.4219 3.4062 L3.0625 3.4062 L3.0625 -13.1719 L0.4219 -13.1719 L0.4219 -13.9688 L4.7812 -13.9688 L4.7812 4.2031 Z" stroke="none"/></g><g text-rendering="optimizeLegibility" transform="translate(169.9457,50.5847)" color-rendering="optimizeQuality" color-interpolation="linearRGB" image-rendering="optimizeQuality"><path d="M6.5781 4.2031 L2.2344 4.2031 L2.2344 -13.9688 L6.5781 -13.9688 L6.5781 -13.1719 L3.9531 -13.1719 L3.9531 3.4062 L6.5781 3.4062 L6.5781 4.2031 Z" stroke="none"/></g><g text-rendering="optimizeLegibility" transform="translate(178.5238,50.5847)" color-rendering="optimizeQuality" color-interpolation="linearRGB" image-rendering="optimizeQuality"><path d="M5.4375 0.1562 Q3.3281 0.1562 2.2969 -1.5078 Q1.2656 -3.1719 1.2656 -6.5469 Q1.2656 -8.3438 1.5781 -9.6484 Q1.8906 -10.9531 2.4609 -11.8125 Q3.0312 -12.6719 3.8359 -13.0781 Q4.6406 -13.4844 5.5938 -13.4844 Q7.7188 -13.4844 8.7656 -11.8359 Q9.8125 -10.1875 9.8125 -6.8438 Q9.8125 -3.3906 8.6953 -1.6172 Q7.5781 0.1562 5.4375 0.1562 ZM3.1719 -6.8438 Q3.1719 -3.6562 3.7578 -2.1641 Q4.3438 -0.6719 5.5938 -0.6719 Q6.7656 -0.6719 7.3359 -2.0781 Q7.9062 -3.4844 7.9062 -6.4219 Q7.9062 -8.6562 7.6172 -10.0547 Q7.3281 -11.4531 6.8047 -12.0547 Q6.2812 -12.6562 5.5312 -12.6562 Q4.8594 -12.6562 4.4062 -12.2578 Q3.9531 -11.8594 3.6797 -11.1094 Q3.4062 -10.3594 3.2891 -9.2734 Q3.1719 -8.1875 3.1719 -6.8438 Z" stroke="none"/></g><g text-rendering="optimizeLegibility" transform="translate(189.9144,50.5847)" color-rendering="optimizeQuality" color-interpolation="linearRGB" image-rendering="optimizeQuality"><path d="M4.7812 4.2031 L0.4219 4.2031 L0.4219 3.4062 L3.0625 3.4062 L3.0625 -13.1719 L0.4219 -13.1719 L0.4219 -13.9688 L4.7812 -13.9688 L4.7812 4.2031 Z" stroke="none"/></g><g text-rendering="optimizeLegibility" transform="translate(214.4851,50.5847)" color-rendering="optimizeQuality" color-interpolation="linearRGB" image-rendering="optimizeQuality"><path d="M6.5781 4.2031 L2.2344 4.2031 L2.2344 -13.9688 L6.5781 -13.9688 L6.5781 -13.1719 L3.9531 -13.1719 L3.9531 3.4062 L6.5781 3.4062 L6.5781 4.2031 Z" stroke="none"/></g><g text-rendering="optimizeLegibility" transform="translate(223.0632,50.5847)" color-rendering="optimizeQuality" color-interpolation="linearRGB" image-rendering="optimizeQuality"><path d="M4.6562 -7.3125 L4.9688 -7.3125 Q5.375 -7.3125 5.7188 -7.4453 Q6.0625 -7.5781 6.5078 -7.9375 Q6.9531 -8.2969 7.9375 -9.2656 Q8.9219 -10.2344 9.3359 -10.7344 Q9.75 -11.2344 9.9375 -11.6016 Q10.125 -11.9688 10.125 -12.2812 Q10.125 -12.5156 9.9297 -12.6719 Q9.7344 -12.8281 9.375 -12.8594 L9.4844 -13.3281 L13.6719 -13.3281 L13.5625 -12.8594 Q13.1719 -12.7969 12.6797 -12.4453 Q12.1875 -12.0938 11.1719 -11.0938 L7.3906 -7.4062 L9.4688 -2.4062 Q9.7344 -1.7656 9.8906 -1.4688 Q10.0469 -1.1719 10.2344 -0.9688 Q10.4219 -0.7656 10.6562 -0.6484 Q10.8906 -0.5312 11.2188 -0.4844 L11.1094 0 L7.3438 0 L7.4531 -0.4844 Q7.9844 -0.5312 7.9844 -0.9531 Q7.9844 -1.0781 7.9609 -1.2109 Q7.9375 -1.3438 7.8516 -1.6094 Q7.7656 -1.875 7.625 -2.25 L6.3438 -5.3594 Q6.125 -5.9062 5.9609 -6.1328 Q5.7969 -6.3594 5.6094 -6.4453 Q5.4219 -6.5312 5.0312 -6.5312 L4.4844 -6.5312 L3.6719 -2.8438 Q3.5469 -2.25 3.5078 -1.9141 Q3.4688 -1.5781 3.4688 -1.3125 Q3.4688 -0.875 3.6875 -0.6953 Q3.9062 -0.5156 4.4219 -0.4844 L4.3125 0 L0.4062 0 L0.5156 -0.4844 Q0.8906 -0.5312 1.0781 -0.6641 Q1.2656 -0.7969 1.3906 -1.0312 Q1.5156 -1.2656 1.625 -1.6016 Q1.7344 -1.9375 1.9375 -2.9062 L3.6094 -10.4375 Q3.7031 -10.875 3.7578 -11.2891 Q3.8125 -11.7031 3.8125 -12 Q3.8125 -12.4688 3.5781 -12.6484 Q3.3438 -12.8281 2.8594 -12.8594 L2.9688 -13.3281 L6.875 -13.3281 L6.7656 -12.8594 Q6.3906 -12.7812 6.2344 -12.6797 Q6.0781 -12.5781 5.9453 -12.3828 Q5.8125 -12.1875 5.6797 -11.7734 Q5.5469 -11.3594 5.3438 -10.4219 L4.6562 -7.3125 Z" stroke="none"/></g><g text-rendering="optimizeLegibility" transform="translate(236.7976,39.1081)" color-rendering="optimizeQuality" color-interpolation="linearRGB" image-rendering="optimizeQuality"><path d="M1.4688 1.2031 Q1.3906 1.5312 1.375 1.7109 Q1.3594 1.8906 1.3594 2.0156 Q1.3594 2.2188 1.4297 2.3359 Q1.5 2.4531 1.6406 2.5156 Q1.7812 2.5781 2.1094 2.6094 L2.0625 2.9375 L-0.0625 2.9375 L1.6719 -4.6562 Q1.8125 -5.2344 1.8125 -5.6406 Q1.8125 -5.8438 1.75 -5.9453 Q1.6875 -6.0469 1.5469 -6.1016 Q1.4062 -6.1562 1.0781 -6.1719 L1.1562 -6.5312 L2.7031 -6.5938 L3.0938 -6.5938 L2.6406 -4.8125 L2.7188 -4.7969 Q3.9844 -6.6406 5.2344 -6.6406 Q5.9844 -6.6406 6.3984 -6.0781 Q6.8125 -5.5156 6.8125 -4.4844 Q6.8125 -3.7344 6.6094 -2.9922 Q6.4062 -2.25 6.0469 -1.6484 Q5.6875 -1.0469 5.25 -0.6641 Q4.8125 -0.2812 4.3203 -0.0859 Q3.8281 0.1094 3.2812 0.1094 Q2.375 0.1094 1.7812 -0.2812 L1.4688 1.2031 ZM2.2812 -2.375 Q2.2188 -2.0156 2.2031 -1.8281 Q2.1875 -1.6406 2.1875 -1.4531 Q2.1875 -0.9219 2.4141 -0.6797 Q2.6406 -0.4375 3.2031 -0.4375 Q3.5469 -0.4375 3.8438 -0.5703 Q4.1406 -0.7031 4.3984 -0.9609 Q4.6562 -1.2188 4.875 -1.5938 Q5.0938 -1.9688 5.2578 -2.4531 Q5.4219 -2.9375 5.5078 -3.4531 Q5.5938 -3.9688 5.5938 -4.4219 Q5.5938 -5.1406 5.3906 -5.4922 Q5.1875 -5.8438 4.75 -5.8438 Q4.4062 -5.8438 4.0625 -5.6094 Q3.7188 -5.375 3.3203 -4.8516 Q2.9219 -4.3281 2.6953 -3.8281 Q2.4688 -3.3281 2.3438 -2.6719 L2.2812 -2.375 Z" stroke="none"/></g><g text-rendering="optimizeLegibility" transform="translate(245.1882,50.5847)" color-rendering="optimizeQuality" color-interpolation="linearRGB" image-rendering="optimizeQuality"><path d="M4.7812 4.2031 L0.4219 4.2031 L0.4219 3.4062 L3.0625 3.4062 L3.0625 -13.1719 L0.4219 -13.1719 L0.4219 -13.9688 L4.7812 -13.9688 L4.7812 4.2031 Z" stroke="none"/></g><g text-rendering="optimizeLegibility" transform="translate(253.5476,42.2941) matrix(1,0,0,2.9725,0,0)" color-rendering="optimizeQuality" color-interpolation="linearRGB" image-rendering="optimizeQuality"><path d="M4.7812 4.2031 L0.4219 4.2031 L0.4219 3.4062 L3.0625 3.4062 L3.0625 -13.1719 L0.4219 -13.1719 L0.4219 -13.9688 L4.7812 -13.9688 L4.7812 4.2031 Z" stroke="none"/></g><g text-rendering="optimizeLegibility" transform="translate(261.407,40.2104) matrix(1,0,0,2.5498,0,0)" color-rendering="optimizeQuality" color-interpolation="linearRGB" image-rendering="optimizeQuality"><path d="M7.0781 4.2188 Q5.5625 4.2188 4.6797 3.8281 Q3.7969 3.4375 3.4141 2.6641 Q3.0312 1.8906 3.0312 0.5781 L3.0312 -2.25 Q3.0312 -3.1094 2.8125 -3.5938 Q2.5938 -4.0781 2.1562 -4.2734 Q1.7188 -4.4688 0.9219 -4.4688 L0.9219 -5.2812 Q1.7031 -5.2812 2.1484 -5.4766 Q2.5938 -5.6719 2.8125 -6.1484 Q3.0312 -6.625 3.0312 -7.5 L3.0312 -10.3281 Q3.0312 -11.625 3.4141 -12.4062 Q3.7969 -13.1875 4.6797 -13.5781 Q5.5625 -13.9688 7.0781 -13.9688 L7.3281 -13.9688 L7.3281 -13.1719 Q6.5469 -13.1719 6.1641 -13.0938 Q5.7812 -13.0156 5.5391 -12.8438 Q5.2969 -12.6719 5.1406 -12.4141 Q4.9844 -12.1562 4.8984 -11.6875 Q4.8125 -11.2188 4.8125 -10.4375 L4.8125 -8.5469 Q4.8125 -7.5625 4.6406 -6.8984 Q4.4688 -6.2344 4.0312 -5.7578 Q3.5938 -5.2812 2.8281 -4.9688 L2.8281 -4.7812 Q3.5781 -4.4844 4.0312 -3.9844 Q4.4844 -3.4844 4.6484 -2.8203 Q4.8125 -2.1562 4.8125 -1.2031 L4.8125 0.6875 Q4.8125 1.4688 4.8984 1.9375 Q4.9844 2.4062 5.1406 2.6719 Q5.2969 2.9375 5.5391 3.1016 Q5.7812 3.2656 6.1641 3.3438 Q6.5469 3.4219 7.3281 3.4219 L7.3281 4.2188 L7.0781 4.2188 Z" stroke="none"/></g><g text-rendering="optimizeLegibility" transform="translate(271.8132,18.5613)" color-rendering="optimizeQuality" color-interpolation="linearRGB" image-rendering="optimizeQuality"><path d="M7.0781 4.2188 Q5.5625 4.2188 4.6797 3.8281 Q3.7969 3.4375 3.4141 2.6641 Q3.0312 1.8906 3.0312 0.5781 L3.0312 -2.25 Q3.0312 -3.1094 2.8125 -3.5938 Q2.5938 -4.0781 2.1562 -4.2734 Q1.7188 -4.4688 0.9219 -4.4688 L0.9219 -5.2812 Q1.7031 -5.2812 2.1484 -5.4766 Q2.5938 -5.6719 2.8125 -6.1484 Q3.0312 -6.625 3.0312 -7.5 L3.0312 -10.3281 Q3.0312 -11.625 3.4141 -12.4062 Q3.7969 -13.1875 4.6797 -13.5781 Q5.5625 -13.9688 7.0781 -13.9688 L7.3281 -13.9688 L7.3281 -13.1719 Q6.5469 -13.1719 6.1641 -13.0938 Q5.7812 -13.0156 5.5391 -12.8438 Q5.2969 -12.6719 5.1406 -12.4141 Q4.9844 -12.1562 4.8984 -11.6875 Q4.8125 -11.2188 4.8125 -10.4375 L4.8125 -8.5469 Q4.8125 -7.5625 4.6406 -6.8984 Q4.4688 -6.2344 4.0312 -5.7578 Q3.5938 -5.2812 2.8281 -4.9688 L2.8281 -4.7812 Q3.5781 -4.4844 4.0312 -3.9844 Q4.4844 -3.4844 4.6484 -2.8203 Q4.8125 -2.1562 4.8125 -1.2031 L4.8125 0.6875 Q4.8125 1.4688 4.8984 1.9375 Q4.9844 2.4062 5.1406 2.6719 Q5.2969 2.9375 5.5391 3.1016 Q5.7812 3.2656 6.1641 3.3438 Q6.5469 3.4219 7.3281 3.4219 L7.3281 4.2188 L7.0781 4.2188 Z" stroke="none"/></g><g text-rendering="optimizeLegibility" transform="translate(281.1413,18.5613)" color-rendering="optimizeQuality" color-interpolation="linearRGB" image-rendering="optimizeQuality"><path d="M6.9531 0 L2.8438 0 L2.9531 -0.4844 Q3.3281 -0.5312 3.5156 -0.6328 Q3.7031 -0.7344 3.8438 -0.9375 Q3.9844 -1.1406 4.1328 -1.5781 Q4.2812 -2.0156 4.4688 -2.9062 L6.5625 -12.4688 L5.3281 -12.4688 Q4.7188 -12.4688 4.3594 -12.2969 Q4 -12.125 3.6328 -11.6406 Q3.2656 -11.1562 2.75 -10.0469 L1.8125 -10.0469 L2.5469 -13.3281 L12.75 -13.3281 L11.9844 -9.8906 L11.0469 -9.8906 Q11.0469 -10.8438 11 -11.3125 Q10.9531 -11.7812 10.8125 -12.0312 Q10.6719 -12.2812 10.4766 -12.375 Q10.2812 -12.4688 9.7656 -12.4688 L8.3281 -12.4688 L6.2031 -2.8438 Q6.1094 -2.4688 6.0781 -2.2422 Q6.0469 -2.0156 6.0234 -1.7656 Q6 -1.5156 6 -1.3125 Q6 -1.0156 6.0938 -0.8438 Q6.1875 -0.6719 6.3828 -0.5938 Q6.5781 -0.5156 7.0625 -0.4844 L6.9531 0 Z" stroke="none"/></g><g text-rendering="optimizeLegibility" transform="translate(295.4695,18.5613)" color-rendering="optimizeQuality" color-interpolation="linearRGB" image-rendering="optimizeQuality"><path d="M0.6719 -13.9688 Q2.1875 -13.9688 3.0703 -13.5781 Q3.9531 -13.1875 4.3281 -12.4062 Q4.7031 -11.625 4.7031 -10.3281 L4.7031 -7.5 Q4.7031 -6.625 4.9297 -6.1484 Q5.1562 -5.6719 5.5938 -5.4766 Q6.0312 -5.2812 6.8125 -5.2812 L6.8125 -4.4688 Q6.0312 -4.4688 5.5859 -4.2734 Q5.1406 -4.0781 4.9219 -3.5938 Q4.7031 -3.1094 4.7031 -2.25 L4.7031 0.5781 Q4.7031 1.8906 4.3281 2.6641 Q3.9531 3.4375 3.0703 3.8281 Q2.1875 4.2188 0.6719 4.2188 L0.4219 4.2188 L0.4219 3.4219 Q1.1875 3.4219 1.5781 3.3438 Q1.9688 3.2656 2.2031 3.1016 Q2.4375 2.9375 2.5938 2.6719 Q2.75 2.4062 2.8438 1.9375 Q2.9375 1.4688 2.9375 0.6875 L2.9375 -1.2031 Q2.9375 -2.1875 3.1016 -2.8438 Q3.2656 -3.5 3.7109 -3.9844 Q4.1562 -4.4688 4.9062 -4.7812 L4.9062 -4.9688 Q4.1719 -5.2656 3.7188 -5.7656 Q3.2656 -6.2656 3.1016 -6.9297 Q2.9375 -7.5938 2.9375 -8.5469 L2.9375 -10.4375 Q2.9375 -11.2188 2.8438 -11.6875 Q2.75 -12.1562 2.5938 -12.4141 Q2.4375 -12.6719 2.2031 -12.8438 Q1.9688 -13.0156 1.5781 -13.0938 Q1.1875 -13.1719 0.4219 -13.1719 L0.4219 -13.9688 L0.6719 -13.9688 Z" stroke="none"/></g><g text-rendering="optimizeLegibility" transform="translate(272.5007,46.7487)" color-rendering="optimizeQuality" color-interpolation="linearRGB" image-rendering="optimizeQuality"><path d="M7.0781 4.2188 Q5.5625 4.2188 4.6797 3.8281 Q3.7969 3.4375 3.4141 2.6641 Q3.0312 1.8906 3.0312 0.5781 L3.0312 -2.25 Q3.0312 -3.1094 2.8125 -3.5938 Q2.5938 -4.0781 2.1562 -4.2734 Q1.7188 -4.4688 0.9219 -4.4688 L0.9219 -5.2812 Q1.7031 -5.2812 2.1484 -5.4766 Q2.5938 -5.6719 2.8125 -6.1484 Q3.0312 -6.625 3.0312 -7.5 L3.0312 -10.3281 Q3.0312 -11.625 3.4141 -12.4062 Q3.7969 -13.1875 4.6797 -13.5781 Q5.5625 -13.9688 7.0781 -13.9688 L7.3281 -13.9688 L7.3281 -13.1719 Q6.5469 -13.1719 6.1641 -13.0938 Q5.7812 -13.0156 5.5391 -12.8438 Q5.2969 -12.6719 5.1406 -12.4141 Q4.9844 -12.1562 4.8984 -11.6875 Q4.8125 -11.2188 4.8125 -10.4375 L4.8125 -8.5469 Q4.8125 -7.5625 4.6406 -6.8984 Q4.4688 -6.2344 4.0312 -5.7578 Q3.5938 -5.2812 2.8281 -4.9688 L2.8281 -4.7812 Q3.5781 -4.4844 4.0312 -3.9844 Q4.4844 -3.4844 4.6484 -2.8203 Q4.8125 -2.1562 4.8125 -1.2031 L4.8125 0.6875 Q4.8125 1.4688 4.8984 1.9375 Q4.9844 2.4062 5.1406 2.6719 Q5.2969 2.9375 5.5391 3.1016 Q5.7812 3.2656 6.1641 3.3438 Q6.5469 3.4219 7.3281 3.4219 L7.3281 4.2188 L7.0781 4.2188 Z" stroke="none"/></g><g text-rendering="optimizeLegibility" transform="translate(281.8288,46.7487)" color-rendering="optimizeQuality" color-interpolation="linearRGB" image-rendering="optimizeQuality"><path d="M7.2812 -13.3281 Q8.4375 -13.3281 9.1875 -13.1484 Q9.9375 -12.9688 10.4219 -12.5938 Q10.9062 -12.2188 11.1406 -11.6406 Q11.375 -11.0625 11.375 -10.2969 Q11.375 -8.8438 10.6797 -7.7656 Q9.9844 -6.6875 8.8047 -6.1797 Q7.625 -5.6719 5.9531 -5.6719 Q4.9688 -5.6719 4.2969 -5.7188 L3.6719 -2.8438 Q3.5781 -2.4375 3.5469 -2.2266 Q3.5156 -2.0156 3.4922 -1.7656 Q3.4688 -1.5156 3.4688 -1.3125 Q3.4688 -1.0156 3.5625 -0.8438 Q3.6562 -0.6719 3.8516 -0.5938 Q4.0469 -0.5156 4.5312 -0.4844 L4.4219 0 L0.4062 0 L0.5156 -0.4844 Q0.8906 -0.5312 1.0781 -0.6641 Q1.2656 -0.7969 1.3906 -1.0312 Q1.5156 -1.2656 1.625 -1.6016 Q1.7344 -1.9375 1.9375 -2.9062 L3.6094 -10.4375 Q3.8125 -11.4062 3.8125 -11.9688 Q3.8125 -12.4531 3.5938 -12.6406 Q3.375 -12.8281 2.8594 -12.8594 L2.9688 -13.3281 L7.2812 -13.3281 ZM5.4844 -6.5312 Q6.6562 -6.5312 7.3828 -6.7734 Q8.1094 -7.0156 8.5781 -7.5234 Q9.0469 -8.0312 9.2969 -8.7344 Q9.5469 -9.4375 9.5469 -10.2812 Q9.5469 -11.1094 9.2578 -11.5938 Q8.9688 -12.0781 8.4297 -12.2734 Q7.8906 -12.4688 7.0625 -12.4688 Q6.4531 -12.4688 5.7969 -12.4375 L4.4688 -6.5312 L5.4844 -6.5312 Z" stroke="none"/></g><g text-rendering="optimizeLegibility" transform="translate(294.782,46.7487)" color-rendering="optimizeQuality" color-interpolation="linearRGB" image-rendering="optimizeQuality"><path d="M0.6719 -13.9688 Q2.1875 -13.9688 3.0703 -13.5781 Q3.9531 -13.1875 4.3281 -12.4062 Q4.7031 -11.625 4.7031 -10.3281 L4.7031 -7.5 Q4.7031 -6.625 4.9297 -6.1484 Q5.1562 -5.6719 5.5938 -5.4766 Q6.0312 -5.2812 6.8125 -5.2812 L6.8125 -4.4688 Q6.0312 -4.4688 5.5859 -4.2734 Q5.1406 -4.0781 4.9219 -3.5938 Q4.7031 -3.1094 4.7031 -2.25 L4.7031 0.5781 Q4.7031 1.8906 4.3281 2.6641 Q3.9531 3.4375 3.0703 3.8281 Q2.1875 4.2188 0.6719 4.2188 L0.4219 4.2188 L0.4219 3.4219 Q1.1875 3.4219 1.5781 3.3438 Q1.9688 3.2656 2.2031 3.1016 Q2.4375 2.9375 2.5938 2.6719 Q2.75 2.4062 2.8438 1.9375 Q2.9375 1.4688 2.9375 0.6875 L2.9375 -1.2031 Q2.9375 -2.1875 3.1016 -2.8438 Q3.2656 -3.5 3.7109 -3.9844 Q4.1562 -4.4688 4.9062 -4.7812 L4.9062 -4.9688 Q4.1719 -5.2656 3.7188 -5.7656 Q3.2656 -6.2656 3.1016 -6.9297 Q2.9375 -7.5938 2.9375 -8.5469 L2.9375 -10.4375 Q2.9375 -11.2188 2.8438 -11.6875 Q2.75 -12.1562 2.5938 -12.4141 Q2.4375 -12.6719 2.2031 -12.8438 Q1.9688 -13.0156 1.5781 -13.0938 Q1.1875 -13.1719 0.4219 -13.1719 L0.4219 -13.9688 L0.6719 -13.9688 Z" stroke="none"/></g><g text-rendering="optimizeLegibility" transform="translate(305.8601,40.2104) matrix(1,0,0,2.5498,0,0)" color-rendering="optimizeQuality" color-interpolation="linearRGB" image-rendering="optimizeQuality"><path d="M0.6719 -13.9688 Q2.1875 -13.9688 3.0703 -13.5781 Q3.9531 -13.1875 4.3281 -12.4062 Q4.7031 -11.625 4.7031 -10.3281 L4.7031 -7.5 Q4.7031 -6.625 4.9297 -6.1484 Q5.1562 -5.6719 5.5938 -5.4766 Q6.0312 -5.2812 6.8125 -5.2812 L6.8125 -4.4688 Q6.0312 -4.4688 5.5859 -4.2734 Q5.1406 -4.0781 4.9219 -3.5938 Q4.7031 -3.1094 4.7031 -2.25 L4.7031 0.5781 Q4.7031 1.8906 4.3281 2.6641 Q3.9531 3.4375 3.0703 3.8281 Q2.1875 4.2188 0.6719 4.2188 L0.4219 4.2188 L0.4219 3.4219 Q1.1875 3.4219 1.5781 3.3438 Q1.9688 3.2656 2.2031 3.1016 Q2.4375 2.9375 2.5938 2.6719 Q2.75 2.4062 2.8438 1.9375 Q2.9375 1.4688 2.9375 0.6875 L2.9375 -1.2031 Q2.9375 -2.1875 3.1016 -2.8438 Q3.2656 -3.5 3.7109 -3.9844 Q4.1562 -4.4688 4.9062 -4.7812 L4.9062 -4.9688 Q4.1719 -5.2656 3.7188 -5.7656 Q3.2656 -6.2656 3.1016 -6.9297 Q2.9375 -7.5938 2.9375 -8.5469 L2.9375 -10.4375 Q2.9375 -11.2188 2.8438 -11.6875 Q2.75 -12.1562 2.5938 -12.4141 Q2.4375 -12.6719 2.2031 -12.8438 Q1.9688 -13.0156 1.5781 -13.0938 Q1.1875 -13.1719 0.4219 -13.1719 L0.4219 -13.9688 L0.6719 -13.9688 Z" stroke="none"/></g><g text-rendering="optimizeLegibility" transform="translate(315.4538,35)" color-rendering="optimizeQuality" color-interpolation="linearRGB" image-rendering="optimizeQuality"><path d="M1.2188 -7.0625 L1.2188 -8.4219 L9.8594 -8.4219 L9.8594 -7.0625 L1.2188 -7.0625 ZM1.2188 -3.0156 L1.2188 -4.3594 L9.8594 -4.3594 L9.8594 -3.0156 L1.2188 -3.0156 Z" stroke="none"/></g><g text-rendering="optimizeLegibility" transform="translate(328.3913,40.2104) matrix(1,0,0,2.5498,0,0)" color-rendering="optimizeQuality" color-interpolation="linearRGB" image-rendering="optimizeQuality"><path d="M7.0781 4.2188 Q5.5625 4.2188 4.6797 3.8281 Q3.7969 3.4375 3.4141 2.6641 Q3.0312 1.8906 3.0312 0.5781 L3.0312 -2.25 Q3.0312 -3.1094 2.8125 -3.5938 Q2.5938 -4.0781 2.1562 -4.2734 Q1.7188 -4.4688 0.9219 -4.4688 L0.9219 -5.2812 Q1.7031 -5.2812 2.1484 -5.4766 Q2.5938 -5.6719 2.8125 -6.1484 Q3.0312 -6.625 3.0312 -7.5 L3.0312 -10.3281 Q3.0312 -11.625 3.4141 -12.4062 Q3.7969 -13.1875 4.6797 -13.5781 Q5.5625 -13.9688 7.0781 -13.9688 L7.3281 -13.9688 L7.3281 -13.1719 Q6.5469 -13.1719 6.1641 -13.0938 Q5.7812 -13.0156 5.5391 -12.8438 Q5.2969 -12.6719 5.1406 -12.4141 Q4.9844 -12.1562 4.8984 -11.6875 Q4.8125 -11.2188 4.8125 -10.4375 L4.8125 -8.5469 Q4.8125 -7.5625 4.6406 -6.8984 Q4.4688 -6.2344 4.0312 -5.7578 Q3.5938 -5.2812 2.8281 -4.9688 L2.8281 -4.7812 Q3.5781 -4.4844 4.0312 -3.9844 Q4.4844 -3.4844 4.6484 -2.8203 Q4.8125 -2.1562 4.8125 -1.2031 L4.8125 0.6875 Q4.8125 1.4688 4.8984 1.9375 Q4.9844 2.4062 5.1406 2.6719 Q5.2969 2.9375 5.5391 3.1016 Q5.7812 3.2656 6.1641 3.3438 Q6.5469 3.4219 7.3281 3.4219 L7.3281 4.2188 L7.0781 4.2188 Z" stroke="none"/></g><g text-rendering="optimizeLegibility" transform="translate(342.6023,18.5613)" color-rendering="optimizeQuality" color-interpolation="linearRGB" image-rendering="optimizeQuality"><path d="M7.0781 4.2188 Q5.5625 4.2188 4.6797 3.8281 Q3.7969 3.4375 3.4141 2.6641 Q3.0312 1.8906 3.0312 0.5781 L3.0312 -2.25 Q3.0312 -3.1094 2.8125 -3.5938 Q2.5938 -4.0781 2.1562 -4.2734 Q1.7188 -4.4688 0.9219 -4.4688 L0.9219 -5.2812 Q1.7031 -5.2812 2.1484 -5.4766 Q2.5938 -5.6719 2.8125 -6.1484 Q3.0312 -6.625 3.0312 -7.5 L3.0312 -10.3281 Q3.0312 -11.625 3.4141 -12.4062 Q3.7969 -13.1875 4.6797 -13.5781 Q5.5625 -13.9688 7.0781 -13.9688 L7.3281 -13.9688 L7.3281 -13.1719 Q6.5469 -13.1719 6.1641 -13.0938 Q5.7812 -13.0156 5.5391 -12.8438 Q5.2969 -12.6719 5.1406 -12.4141 Q4.9844 -12.1562 4.8984 -11.6875 Q4.8125 -11.2188 4.8125 -10.4375 L4.8125 -8.5469 Q4.8125 -7.5625 4.6406 -6.8984 Q4.4688 -6.2344 4.0312 -5.7578 Q3.5938 -5.2812 2.8281 -4.9688 L2.8281 -4.7812 Q3.5781 -4.4844 4.0312 -3.9844 Q4.4844 -3.4844 4.6484 -2.8203 Q4.8125 -2.1562 4.8125 -1.2031 L4.8125 0.6875 Q4.8125 1.4688 4.8984 1.9375 Q4.9844 2.4062 5.1406 2.6719 Q5.2969 2.9375 5.5391 3.1016 Q5.7812 3.2656 6.1641 3.3438 Q6.5469 3.4219 7.3281 3.4219 L7.3281 4.2188 L7.0781 4.2188 Z" stroke="none"/></g><g text-rendering="optimizeLegibility" transform="translate(351.9304,18.5613)" color-rendering="optimizeQuality" color-interpolation="linearRGB" image-rendering="optimizeQuality"><path d="M6.5938 -0.0156 Q6.8125 0.7031 7.0078 1.1641 Q7.2031 1.625 7.3828 1.9141 Q7.5625 2.2031 7.7422 2.3438 Q7.9219 2.4844 8.0938 2.5391 Q8.2656 2.5938 8.5 2.5938 Q8.875 2.5938 9.2578 2.375 Q9.6406 2.1562 10.1094 1.625 L10.6094 2.1719 Q9.8281 3.0312 9.1562 3.3828 Q8.4844 3.7344 7.7812 3.7344 Q6.9688 3.7344 6.4531 3.375 Q5.9375 3.0156 5.5625 2.2188 Q5.1875 1.4219 4.8281 0.1406 Q3.0625 0.0469 2.1406 -1.0234 Q1.2188 -2.0938 1.2188 -4.0469 Q1.2188 -5.2969 1.5703 -6.8359 Q1.9219 -8.375 2.5469 -9.6094 Q3.1719 -10.8438 4.0234 -11.7188 Q4.875 -12.5938 5.9297 -13.0391 Q6.9844 -13.4844 8.1719 -13.4844 Q9.3906 -13.4844 10.2734 -13.0156 Q11.1562 -12.5469 11.625 -11.5938 Q12.0938 -10.6406 12.0938 -9.2344 Q12.0938 -7.8594 11.6641 -6.1719 Q11.2344 -4.4844 10.4844 -3.1875 Q9.7344 -1.8906 8.7422 -1.1016 Q7.75 -0.3125 6.5938 -0.0156 ZM10.25 -9.6406 Q10.25 -11.0938 9.7188 -11.8594 Q9.1875 -12.625 8.0625 -12.625 Q7.5469 -12.625 7.0781 -12.4531 Q6.5312 -12.2344 6.0312 -11.8125 Q5.4688 -11.3438 4.9844 -10.5938 Q4.4219 -9.7188 4 -8.5938 Q3.5625 -7.4219 3.2969 -6.0625 Q3.0469 -4.7656 3.0469 -3.7188 Q3.0469 -2.1875 3.6016 -1.4375 Q4.1562 -0.6875 5.25 -0.6875 Q6.2031 -0.6875 7.0547 -1.3281 Q7.9062 -1.9688 8.6172 -3.2188 Q9.3281 -4.4688 9.7891 -6.2656 Q10.25 -8.0625 10.25 -9.6406 Z" stroke="none"/></g><g text-rendering="optimizeLegibility" transform="translate(365.6023,18.5613)" color-rendering="optimizeQuality" color-interpolation="linearRGB" image-rendering="optimizeQuality"><path d="M0.6719 -13.9688 Q2.1875 -13.9688 3.0703 -13.5781 Q3.9531 -13.1875 4.3281 -12.4062 Q4.7031 -11.625 4.7031 -10.3281 L4.7031 -7.5 Q4.7031 -6.625 4.9297 -6.1484 Q5.1562 -5.6719 5.5938 -5.4766 Q6.0312 -5.2812 6.8125 -5.2812 L6.8125 -4.4688 Q6.0312 -4.4688 5.5859 -4.2734 Q5.1406 -4.0781 4.9219 -3.5938 Q4.7031 -3.1094 4.7031 -2.25 L4.7031 0.5781 Q4.7031 1.8906 4.3281 2.6641 Q3.9531 3.4375 3.0703 3.8281 Q2.1875 4.2188 0.6719 4.2188 L0.4219 4.2188 L0.4219 3.4219 Q1.1875 3.4219 1.5781 3.3438 Q1.9688 3.2656 2.2031 3.1016 Q2.4375 2.9375 2.5938 2.6719 Q2.75 2.4062 2.8438 1.9375 Q2.9375 1.4688 2.9375 0.6875 L2.9375 -1.2031 Q2.9375 -2.1875 3.1016 -2.8438 Q3.2656 -3.5 3.7109 -3.9844 Q4.1562 -4.4688 4.9062 -4.7812 L4.9062 -4.9688 Q4.1719 -5.2656 3.7188 -5.7656 Q3.2656 -6.2656 3.1016 -6.9297 Q2.9375 -7.5938 2.9375 -8.5469 L2.9375 -10.4375 Q2.9375 -11.2188 2.8438 -11.6875 Q2.75 -12.1562 2.5938 -12.4141 Q2.4375 -12.6719 2.2031 -12.8438 Q1.9688 -13.0156 1.5781 -13.0938 Q1.1875 -13.1719 0.4219 -13.1719 L0.4219 -13.9688 L0.6719 -13.9688 Z" stroke="none"/></g><g text-rendering="optimizeLegibility" transform="translate(338.7976,46.7487)" color-rendering="optimizeQuality" color-interpolation="linearRGB" image-rendering="optimizeQuality"><path d="M7.0781 4.2188 Q5.5625 4.2188 4.6797 3.8281 Q3.7969 3.4375 3.4141 2.6641 Q3.0312 1.8906 3.0312 0.5781 L3.0312 -2.25 Q3.0312 -3.1094 2.8125 -3.5938 Q2.5938 -4.0781 2.1562 -4.2734 Q1.7188 -4.4688 0.9219 -4.4688 L0.9219 -5.2812 Q1.7031 -5.2812 2.1484 -5.4766 Q2.5938 -5.6719 2.8125 -6.1484 Q3.0312 -6.625 3.0312 -7.5 L3.0312 -10.3281 Q3.0312 -11.625 3.4141 -12.4062 Q3.7969 -13.1875 4.6797 -13.5781 Q5.5625 -13.9688 7.0781 -13.9688 L7.3281 -13.9688 L7.3281 -13.1719 Q6.5469 -13.1719 6.1641 -13.0938 Q5.7812 -13.0156 5.5391 -12.8438 Q5.2969 -12.6719 5.1406 -12.4141 Q4.9844 -12.1562 4.8984 -11.6875 Q4.8125 -11.2188 4.8125 -10.4375 L4.8125 -8.5469 Q4.8125 -7.5625 4.6406 -6.8984 Q4.4688 -6.2344 4.0312 -5.7578 Q3.5938 -5.2812 2.8281 -4.9688 L2.8281 -4.7812 Q3.5781 -4.4844 4.0312 -3.9844 Q4.4844 -3.4844 4.6484 -2.8203 Q4.8125 -2.1562 4.8125 -1.2031 L4.8125 0.6875 Q4.8125 1.4688 4.8984 1.9375 Q4.9844 2.4062 5.1406 2.6719 Q5.2969 2.9375 5.5391 3.1016 Q5.7812 3.2656 6.1641 3.3438 Q6.5469 3.4219 7.3281 3.4219 L7.3281 4.2188 L7.0781 4.2188 Z" stroke="none"/></g><g text-rendering="optimizeLegibility" transform="translate(348.1257,46.7487)" color-rendering="optimizeQuality" color-interpolation="linearRGB" image-rendering="optimizeQuality"><path d="M10.2656 0.125 L10.2656 -7.0156 Q10.2656 -8.7656 10.3594 -10.6406 L10.25 -10.6406 L5.0312 0.125 L3.5 0.125 L3.0312 -10.7344 Q3 -11.5469 2.8672 -11.9766 Q2.7344 -12.4062 2.5078 -12.6016 Q2.2812 -12.7969 1.875 -12.8594 L1.9844 -13.3281 L6.0625 -13.3281 L5.9531 -12.8594 Q5.5156 -12.8281 5.2656 -12.5938 Q5.0156 -12.3594 4.9141 -11.9688 Q4.8125 -11.5781 4.8125 -10.8438 L4.8125 -10.5156 Q4.8125 -10.3438 4.8281 -10.1562 L4.9062 -6.3438 Q4.9219 -5.9219 4.9219 -5.0469 L4.9219 -4.2656 L4.9062 -2.2188 L5.0156 -2.2188 L10.4062 -13.3281 L11.8906 -13.3281 L11.8906 -6.8125 Q11.8906 -5.6562 11.8594 -4.5625 L11.7969 -2.2188 L11.8906 -2.2188 L15.8438 -9.8594 Q16.0781 -10.2969 16.3281 -10.875 Q16.5781 -11.4531 16.5781 -11.875 Q16.5781 -12.2656 16.3438 -12.5156 Q16.1094 -12.7656 15.5938 -12.8594 L15.7031 -13.3281 L19.7031 -13.3281 L19.5938 -12.8594 Q19.1406 -12.7969 18.7344 -12.3594 Q18.3281 -11.9219 17.6406 -10.6719 L11.7656 0.125 L10.2656 0.125 Z" stroke="none"/></g><g text-rendering="optimizeLegibility" transform="translate(369.407,46.7487)" color-rendering="optimizeQuality" color-interpolation="linearRGB" image-rendering="optimizeQuality"><path d="M0.6719 -13.9688 Q2.1875 -13.9688 3.0703 -13.5781 Q3.9531 -13.1875 4.3281 -12.4062 Q4.7031 -11.625 4.7031 -10.3281 L4.7031 -7.5 Q4.7031 -6.625 4.9297 -6.1484 Q5.1562 -5.6719 5.5938 -5.4766 Q6.0312 -5.2812 6.8125 -5.2812 L6.8125 -4.4688 Q6.0312 -4.4688 5.5859 -4.2734 Q5.1406 -4.0781 4.9219 -3.5938 Q4.7031 -3.1094 4.7031 -2.25 L4.7031 0.5781 Q4.7031 1.8906 4.3281 2.6641 Q3.9531 3.4375 3.0703 3.8281 Q2.1875 4.2188 0.6719 4.2188 L0.4219 4.2188 L0.4219 3.4219 Q1.1875 3.4219 1.5781 3.3438 Q1.9688 3.2656 2.2031 3.1016 Q2.4375 2.9375 2.5938 2.6719 Q2.75 2.4062 2.8438 1.9375 Q2.9375 1.4688 2.9375 0.6875 L2.9375 -1.2031 Q2.9375 -2.1875 3.1016 -2.8438 Q3.2656 -3.5 3.7109 -3.9844 Q4.1562 -4.4688 4.9062 -4.7812 L4.9062 -4.9688 Q4.1719 -5.2656 3.7188 -5.7656 Q3.2656 -6.2656 3.1016 -6.9297 Q2.9375 -7.5938 2.9375 -8.5469 L2.9375 -10.4375 Q2.9375 -11.2188 2.8438 -11.6875 Q2.75 -12.1562 2.5938 -12.4141 Q2.4375 -12.6719 2.2031 -12.8438 Q1.9688 -13.0156 1.5781 -13.0938 Q1.1875 -13.1719 0.4219 -13.1719 L0.4219 -13.9688 L0.6719 -13.9688 Z" stroke="none"/></g><g text-rendering="optimizeLegibility" transform="translate(379.7976,40.2104) matrix(1,0,0,2.5498,0,0)" color-rendering="optimizeQuality" color-interpolation="linearRGB" image-rendering="optimizeQuality"><path d="M0.6719 -13.9688 Q2.1875 -13.9688 3.0703 -13.5781 Q3.9531 -13.1875 4.3281 -12.4062 Q4.7031 -11.625 4.7031 -10.3281 L4.7031 -7.5 Q4.7031 -6.625 4.9297 -6.1484 Q5.1562 -5.6719 5.5938 -5.4766 Q6.0312 -5.2812 6.8125 -5.2812 L6.8125 -4.4688 Q6.0312 -4.4688 5.5859 -4.2734 Q5.1406 -4.0781 4.9219 -3.5938 Q4.7031 -3.1094 4.7031 -2.25 L4.7031 0.5781 Q4.7031 1.8906 4.3281 2.6641 Q3.9531 3.4375 3.0703 3.8281 Q2.1875 4.2188 0.6719 4.2188 L0.4219 4.2188 L0.4219 3.4219 Q1.1875 3.4219 1.5781 3.3438 Q1.9688 3.2656 2.2031 3.1016 Q2.4375 2.9375 2.5938 2.6719 Q2.75 2.4062 2.8438 1.9375 Q2.9375 1.4688 2.9375 0.6875 L2.9375 -1.2031 Q2.9375 -2.1875 3.1016 -2.8438 Q3.2656 -3.5 3.7109 -3.9844 Q4.1562 -4.4688 4.9062 -4.7812 L4.9062 -4.9688 Q4.1719 -5.2656 3.7188 -5.7656 Q3.2656 -6.2656 3.1016 -6.9297 Q2.9375 -7.5938 2.9375 -8.5469 L2.9375 -10.4375 Q2.9375 -11.2188 2.8438 -11.6875 Q2.75 -12.1562 2.5938 -12.4141 Q2.4375 -12.6719 2.2031 -12.8438 Q1.9688 -13.0156 1.5781 -13.0938 Q1.1875 -13.1719 0.4219 -13.1719 L0.4219 -13.9688 L0.6719 -13.9688 Z" stroke="none"/></g></g></svg>