<?xml version="1.0" encoding="UTF-8" standalone="no"?><svg xmlns="http://www.w3.org/2000/svg" xmlns:xlink="http://www.w3.org/1999/xlink" stroke-dasharray="none" shape-rendering="auto" font-family="'Dialog'" width="197.812600" text-rendering="auto" fill-opacity="1" contentScriptType="text/ecmascript" color-interpolation="auto" color-rendering="auto" preserveAspectRatio="xMidYMid meet" font-size="12" fill="black" stroke="black" image-rendering="auto" stroke-miterlimit="10" zoomAndPan="magnify" version="1.0" stroke-linecap="square" stroke-linejoin="miter" contentStyleType="text/css" font-style="normal" height="104" stroke-width="1" stroke-dashoffset="0" font-weight="normal" stroke-opacity="1" y="-45.000000"><!--Converted from MathML using JEuclid--><defs id="genericDefs"/><g><g text-rendering="optimizeLegibility" transform="translate(-0.2344,79.554) matrix(1,0,0,5.6881,0,0)" color-rendering="optimizeQuality" color-interpolation="linearRGB" image-rendering="optimizeQuality"><path d="M6.5781 4.2031 L2.2344 4.2031 L2.2344 -13.9688 L6.5781 -13.9688 L6.5781 -13.1719 L3.9531 -13.1719 L3.9531 3.4062 L6.5781 3.4062 L6.5781 4.2031 Z" stroke="none"/></g><g text-rendering="optimizeLegibility" stroke-width="1.6667" color-interpolation="linearRGB" color-rendering="optimizeQuality" image-rendering="optimizeQuality"><line y2="12.5468" fill="none" x1="10.0215" x2="23.0215" y1="12.5468"/><path d="M5.6719 -5.9844 L5.6875 -6.1562 Q5.7031 -6.4844 5.7031 -6.7188 Q5.7031 -7.2812 5.6328 -7.7344 Q5.5625 -8.1875 5.4062 -8.5078 Q5.25 -8.8281 4.9766 -9.0078 Q4.7031 -9.1875 4.2969 -9.1875 Q3.7969 -9.1875 3.3672 -8.9453 Q2.9375 -8.7031 2.5312 -8.2188 L2.0312 -8.2188 L2.0312 -8.7812 Q2.6875 -9.25 3.0469 -9.4375 Q3.4062 -9.625 3.7656 -9.7266 Q4.125 -9.8281 4.5469 -9.8281 Q5.6875 -9.8281 6.2578 -9.0469 Q6.8281 -8.2656 6.8281 -6.7031 Q6.8281 -6.0781 6.7188 -5.2188 Q6.6094 -4.3594 6.3438 -3.4297 Q6.0781 -2.5 5.7422 -1.8516 Q5.4062 -1.2031 4.9844 -0.7812 Q4.5625 -0.3594 4.0234 -0.125 Q3.4844 0.1094 2.7969 0.1094 Q2.1094 0.1094 1.6016 -0.1719 Q1.0938 -0.4531 0.8359 -0.9922 Q0.5781 -1.5312 0.5781 -2.3125 Q0.5781 -3.0781 0.8125 -3.8359 Q1.0469 -4.5938 1.5078 -5.2109 Q1.9688 -5.8281 2.6094 -6.1797 Q3.25 -6.5312 3.9844 -6.5312 Q4.4844 -6.5312 4.8516 -6.4219 Q5.2188 -6.3125 5.6719 -5.9844 ZM5.3438 -4.6719 Q5.3438 -5.3594 5.0547 -5.6797 Q4.7656 -6 4.1875 -6 Q3.7812 -6 3.3984 -5.7812 Q3.0156 -5.5625 2.7109 -5.1641 Q2.4062 -4.7656 2.2109 -4.2266 Q2.0156 -3.6875 1.8984 -3.1406 Q1.7812 -2.5938 1.7812 -2 Q1.7812 -1.375 1.9141 -1.0312 Q2.0469 -0.6875 2.2656 -0.5625 Q2.4844 -0.4375 2.8125 -0.4375 Q3.5625 -0.4375 4.0781 -1.0234 Q4.5938 -1.6094 4.9688 -2.7969 Q5.3438 -3.9844 5.3438 -4.6719 Z" stroke-width="1" transform="translate(12.8184,9.9264)" stroke="none"/></g><g text-rendering="optimizeLegibility" transform="translate(9.4434,24.8861)" color-rendering="optimizeQuality" color-interpolation="linearRGB" image-rendering="optimizeQuality"><path d="M5.6719 -5.9844 L5.6875 -6.1562 Q5.7031 -6.4844 5.7031 -6.7188 Q5.7031 -7.2812 5.6328 -7.7344 Q5.5625 -8.1875 5.4062 -8.5078 Q5.25 -8.8281 4.9766 -9.0078 Q4.7031 -9.1875 4.2969 -9.1875 Q3.7969 -9.1875 3.3672 -8.9453 Q2.9375 -8.7031 2.5312 -8.2188 L2.0312 -8.2188 L2.0312 -8.7812 Q2.6875 -9.25 3.0469 -9.4375 Q3.4062 -9.625 3.7656 -9.7266 Q4.125 -9.8281 4.5469 -9.8281 Q5.6875 -9.8281 6.2578 -9.0469 Q6.8281 -8.2656 6.8281 -6.7031 Q6.8281 -6.0781 6.7188 -5.2188 Q6.6094 -4.3594 6.3438 -3.4297 Q6.0781 -2.5 5.7422 -1.8516 Q5.4062 -1.2031 4.9844 -0.7812 Q4.5625 -0.3594 4.0234 -0.125 Q3.4844 0.1094 2.7969 0.1094 Q2.1094 0.1094 1.6016 -0.1719 Q1.0938 -0.4531 0.8359 -0.9922 Q0.5781 -1.5312 0.5781 -2.3125 Q0.5781 -3.0781 0.8125 -3.8359 Q1.0469 -4.5938 1.5078 -5.2109 Q1.9688 -5.8281 2.6094 -6.1797 Q3.25 -6.5312 3.9844 -6.5312 Q4.4844 -6.5312 4.8516 -6.4219 Q5.2188 -6.3125 5.6719 -5.9844 ZM5.3438 -4.6719 Q5.3438 -5.3594 5.0547 -5.6797 Q4.7656 -6 4.1875 -6 Q3.7812 -6 3.3984 -5.7812 Q3.0156 -5.5625 2.7109 -5.1641 Q2.4062 -4.7656 2.2109 -4.2266 Q2.0156 -3.6875 1.8984 -3.1406 Q1.7812 -2.5938 1.7812 -2 Q1.7812 -1.375 1.9141 -1.0312 Q2.0469 -0.6875 2.2656 -0.5625 Q2.4844 -0.4375 2.8125 -0.4375 Q3.5625 -0.4375 4.0781 -1.0234 Q4.5938 -1.6094 4.9688 -2.7969 Q5.3438 -3.9844 5.3438 -4.6719 Z" stroke="none"/></g><g text-rendering="optimizeLegibility" transform="translate(16.5528,24.8861)" color-rendering="optimizeQuality" color-interpolation="linearRGB" image-rendering="optimizeQuality"><path d="M6.4688 -6.2031 Q5.1406 -4.7812 3.6875 -3.4062 L4.3281 -1.9062 Q4.5781 -1.3125 4.7266 -1.0234 Q4.875 -0.7344 5 -0.6094 Q5.125 -0.4844 5.25 -0.4297 Q5.375 -0.375 5.6406 -0.3281 L5.5625 0 L3.8594 0 L2.9062 -2.75 Q2.75 -2.6094 2.4766 -2.3516 Q2.2031 -2.0938 1.9531 -1.8047 Q1.7031 -1.5156 1.6016 -1.3359 Q1.5 -1.1562 1.4688 -1.0234 Q1.4375 -0.8906 1.4375 -0.7656 Q1.4375 -0.5781 1.5391 -0.4766 Q1.6406 -0.375 1.875 -0.3281 L1.7969 0 L-0.1562 0 L-0.2812 -0.3281 Q1.2188 -1.9375 2.6719 -3.2969 L2.0156 -4.8125 Q1.8125 -5.2812 1.6953 -5.5234 Q1.5781 -5.7656 1.4609 -5.8984 Q1.3438 -6.0312 1.1953 -6.1094 Q1.0469 -6.1875 0.7812 -6.2031 L0.8594 -6.5312 L2.5625 -6.5312 L3.4688 -3.9531 Q3.7969 -4.2656 4.1016 -4.5938 Q4.4062 -4.9219 4.5312 -5.1172 Q4.6562 -5.3125 4.7031 -5.4609 Q4.75 -5.6094 4.75 -5.7656 Q4.75 -6.1406 4.3125 -6.2031 L4.375 -6.5312 L6.3281 -6.5312 L6.4688 -6.2031 Z" stroke="none"/></g><g text-rendering="optimizeLegibility" transform="translate(44.6587,19.7668)" color-rendering="optimizeQuality" color-interpolation="linearRGB" image-rendering="optimizeQuality"><path d="M5.4375 0.1562 Q3.3281 0.1562 2.2969 -1.5078 Q1.2656 -3.1719 1.2656 -6.5469 Q1.2656 -8.3438 1.5781 -9.6484 Q1.8906 -10.9531 2.4609 -11.8125 Q3.0312 -12.6719 3.8359 -13.0781 Q4.6406 -13.4844 5.5938 -13.4844 Q7.7188 -13.4844 8.7656 -11.8359 Q9.8125 -10.1875 9.8125 -6.8438 Q9.8125 -3.3906 8.6953 -1.6172 Q7.5781 0.1562 5.4375 0.1562 ZM3.1719 -6.8438 Q3.1719 -3.6562 3.7578 -2.1641 Q4.3438 -0.6719 5.5938 -0.6719 Q6.7656 -0.6719 7.3359 -2.0781 Q7.9062 -3.4844 7.9062 -6.4219 Q7.9062 -8.6562 7.6172 -10.0547 Q7.3281 -11.4531 6.8047 -12.0547 Q6.2812 -12.6562 5.5312 -12.6562 Q4.8594 -12.6562 4.4062 -12.2578 Q3.9531 -11.8594 3.6797 -11.1094 Q3.4062 -10.3594 3.2891 -9.2734 Q3.1719 -8.1875 3.1719 -6.8438 Z" stroke="none"/></g><g text-rendering="optimizeLegibility" transform="translate(76.7047,19.7668)" color-rendering="optimizeQuality" color-interpolation="linearRGB" image-rendering="optimizeQuality"><path d="M5.4375 0.1562 Q3.3281 0.1562 2.2969 -1.5078 Q1.2656 -3.1719 1.2656 -6.5469 Q1.2656 -8.3438 1.5781 -9.6484 Q1.8906 -10.9531 2.4609 -11.8125 Q3.0312 -12.6719 3.8359 -13.0781 Q4.6406 -13.4844 5.5938 -13.4844 Q7.7188 -13.4844 8.7656 -11.8359 Q9.8125 -10.1875 9.8125 -6.8438 Q9.8125 -3.3906 8.6953 -1.6172 Q7.5781 0.1562 5.4375 0.1562 ZM3.1719 -6.8438 Q3.1719 -3.6562 3.7578 -2.1641 Q4.3438 -0.6719 5.5938 -0.6719 Q6.7656 -0.6719 7.3359 -2.0781 Q7.9062 -3.4844 7.9062 -6.4219 Q7.9062 -8.6562 7.6172 -10.0547 Q7.3281 -11.4531 6.8047 -12.0547 Q6.2812 -12.6562 5.5312 -12.6562 Q4.8594 -12.6562 4.4062 -12.2578 Q3.9531 -11.8594 3.6797 -11.1094 Q3.4062 -10.3594 3.2891 -9.2734 Q3.1719 -8.1875 3.1719 -6.8438 Z" stroke="none"/></g><g text-rendering="optimizeLegibility" stroke-width="1.6667" color-interpolation="linearRGB" color-rendering="optimizeQuality" image-rendering="optimizeQuality"><line y2="12.5468" fill="none" x1="105.558" x2="120.0892" y1="12.5468"/><path d="M5.6719 -5.9844 L5.6875 -6.1562 Q5.7031 -6.4844 5.7031 -6.7188 Q5.7031 -7.2812 5.6328 -7.7344 Q5.5625 -8.1875 5.4062 -8.5078 Q5.25 -8.8281 4.9766 -9.0078 Q4.7031 -9.1875 4.2969 -9.1875 Q3.7969 -9.1875 3.3672 -8.9453 Q2.9375 -8.7031 2.5312 -8.2188 L2.0312 -8.2188 L2.0312 -8.7812 Q2.6875 -9.25 3.0469 -9.4375 Q3.4062 -9.625 3.7656 -9.7266 Q4.125 -9.8281 4.5469 -9.8281 Q5.6875 -9.8281 6.2578 -9.0469 Q6.8281 -8.2656 6.8281 -6.7031 Q6.8281 -6.0781 6.7188 -5.2188 Q6.6094 -4.3594 6.3438 -3.4297 Q6.0781 -2.5 5.7422 -1.8516 Q5.4062 -1.2031 4.9844 -0.7812 Q4.5625 -0.3594 4.0234 -0.125 Q3.4844 0.1094 2.7969 0.1094 Q2.1094 0.1094 1.6016 -0.1719 Q1.0938 -0.4531 0.8359 -0.9922 Q0.5781 -1.5312 0.5781 -2.3125 Q0.5781 -3.0781 0.8125 -3.8359 Q1.0469 -4.5938 1.5078 -5.2109 Q1.9688 -5.8281 2.6094 -6.1797 Q3.25 -6.5312 3.9844 -6.5312 Q4.4844 -6.5312 4.8516 -6.4219 Q5.2188 -6.3125 5.6719 -5.9844 ZM5.3438 -4.6719 Q5.3438 -5.3594 5.0547 -5.6797 Q4.7656 -6 4.1875 -6 Q3.7812 -6 3.3984 -5.7812 Q3.0156 -5.5625 2.7109 -5.1641 Q2.4062 -4.7656 2.2109 -4.2266 Q2.0156 -3.6875 1.8984 -3.1406 Q1.7812 -2.5938 1.7812 -2 Q1.7812 -1.375 1.9141 -1.0312 Q2.0469 -0.6875 2.2656 -0.5625 Q2.4844 -0.4375 2.8125 -0.4375 Q3.5625 -0.4375 4.0781 -1.0234 Q4.5938 -1.6094 4.9688 -2.7969 Q5.3438 -3.9844 5.3438 -4.6719 Z" stroke-width="1" transform="translate(109.1205,9.9264)" stroke="none"/></g><g text-rendering="optimizeLegibility" transform="translate(104.9799,24.8861)" color-rendering="optimizeQuality" color-interpolation="linearRGB" image-rendering="optimizeQuality"><path d="M5.6719 -5.9844 L5.6875 -6.1562 Q5.7031 -6.4844 5.7031 -6.7188 Q5.7031 -7.2812 5.6328 -7.7344 Q5.5625 -8.1875 5.4062 -8.5078 Q5.25 -8.8281 4.9766 -9.0078 Q4.7031 -9.1875 4.2969 -9.1875 Q3.7969 -9.1875 3.3672 -8.9453 Q2.9375 -8.7031 2.5312 -8.2188 L2.0312 -8.2188 L2.0312 -8.7812 Q2.6875 -9.25 3.0469 -9.4375 Q3.4062 -9.625 3.7656 -9.7266 Q4.125 -9.8281 4.5469 -9.8281 Q5.6875 -9.8281 6.2578 -9.0469 Q6.8281 -8.2656 6.8281 -6.7031 Q6.8281 -6.0781 6.7188 -5.2188 Q6.6094 -4.3594 6.3438 -3.4297 Q6.0781 -2.5 5.7422 -1.8516 Q5.4062 -1.2031 4.9844 -0.7812 Q4.5625 -0.3594 4.0234 -0.125 Q3.4844 0.1094 2.7969 0.1094 Q2.1094 0.1094 1.6016 -0.1719 Q1.0938 -0.4531 0.8359 -0.9922 Q0.5781 -1.5312 0.5781 -2.3125 Q0.5781 -3.0781 0.8125 -3.8359 Q1.0469 -4.5938 1.5078 -5.2109 Q1.9688 -5.8281 2.6094 -6.1797 Q3.25 -6.5312 3.9844 -6.5312 Q4.4844 -6.5312 4.8516 -6.4219 Q5.2188 -6.3125 5.6719 -5.9844 ZM5.3438 -4.6719 Q5.3438 -5.3594 5.0547 -5.6797 Q4.7656 -6 4.1875 -6 Q3.7812 -6 3.3984 -5.7812 Q3.0156 -5.5625 2.7109 -5.1641 Q2.4062 -4.7656 2.2109 -4.2266 Q2.0156 -3.6875 1.8984 -3.1406 Q1.7812 -2.5938 1.7812 -2 Q1.7812 -1.375 1.9141 -1.0312 Q2.0469 -0.6875 2.2656 -0.5625 Q2.4844 -0.4375 2.8125 -0.4375 Q3.5625 -0.4375 4.0781 -1.0234 Q4.5938 -1.6094 4.9688 -2.7969 Q5.3438 -3.9844 5.3438 -4.6719 Z" stroke="none"/></g><g text-rendering="optimizeLegibility" transform="translate(113.5267,24.8861)" color-rendering="optimizeQuality" color-interpolation="linearRGB" image-rendering="optimizeQuality"><path d="M1.2656 -5.0469 Q1.2031 -5.5625 1.1406 -5.7656 Q1.0781 -5.9688 0.9375 -6.0781 Q0.7969 -6.1875 0.5 -6.2031 L0.5625 -6.5312 L2.3281 -6.5312 L2.8438 -1.0938 Q5.1562 -4.2656 5.1562 -5.625 Q5.1562 -5.9531 5.0156 -6.0703 Q4.875 -6.1875 4.5469 -6.2031 L4.625 -6.5312 L6.3906 -6.5312 L6.5625 -6.1875 Q6.2031 -5.25 5.6406 -4.2266 Q5.0781 -3.2031 4.2656 -1.9922 Q3.4531 -0.7812 2.4531 0.5156 Q1.6875 1.5312 1.1562 2.0312 Q0.7656 2.4219 0.4219 2.625 Q0.0781 2.8281 -0.2344 2.9141 Q-0.5469 3 -0.9062 3 Q-1.0938 3 -1.3281 2.9609 Q-1.5625 2.9219 -1.7188 2.8594 L-1.4219 1.5938 L-0.8906 1.5938 Q-0.8906 1.8125 -0.7891 1.9531 Q-0.6875 2.0938 -0.4844 2.0938 Q-0.2656 2.0938 -0.1094 2.0469 Q0.0469 2 0.2188 1.8984 Q0.3906 1.7969 0.6406 1.5703 Q0.8906 1.3438 1.2109 0.9766 Q1.5312 0.6094 1.9219 0.0781 L1.2656 -5.0469 Z" stroke="none"/></g><g text-rendering="optimizeLegibility" transform="translate(141.7264,19.7668)" color-rendering="optimizeQuality" color-interpolation="linearRGB" image-rendering="optimizeQuality"><path d="M5.4375 0.1562 Q3.3281 0.1562 2.2969 -1.5078 Q1.2656 -3.1719 1.2656 -6.5469 Q1.2656 -8.3438 1.5781 -9.6484 Q1.8906 -10.9531 2.4609 -11.8125 Q3.0312 -12.6719 3.8359 -13.0781 Q4.6406 -13.4844 5.5938 -13.4844 Q7.7188 -13.4844 8.7656 -11.8359 Q9.8125 -10.1875 9.8125 -6.8438 Q9.8125 -3.3906 8.6953 -1.6172 Q7.5781 0.1562 5.4375 0.1562 ZM3.1719 -6.8438 Q3.1719 -3.6562 3.7578 -2.1641 Q4.3438 -0.6719 5.5938 -0.6719 Q6.7656 -0.6719 7.3359 -2.0781 Q7.9062 -3.4844 7.9062 -6.4219 Q7.9062 -8.6562 7.6172 -10.0547 Q7.3281 -11.4531 6.8047 -12.0547 Q6.2812 -12.6562 5.5312 -12.6562 Q4.8594 -12.6562 4.4062 -12.2578 Q3.9531 -11.8594 3.6797 -11.1094 Q3.4062 -10.3594 3.2891 -9.2734 Q3.1719 -8.1875 3.1719 -6.8438 Z" stroke="none"/></g><g text-rendering="optimizeLegibility" stroke-width="1.6667" color-interpolation="linearRGB" color-rendering="optimizeQuality" image-rendering="optimizeQuality"><line y2="12.5468" fill="none" x1="171.6734" x2="184.3453" y1="12.5468"/><path d="M5.6719 -5.9844 L5.6875 -6.1562 Q5.7031 -6.4844 5.7031 -6.7188 Q5.7031 -7.2812 5.6328 -7.7344 Q5.5625 -8.1875 5.4062 -8.5078 Q5.25 -8.8281 4.9766 -9.0078 Q4.7031 -9.1875 4.2969 -9.1875 Q3.7969 -9.1875 3.3672 -8.9453 Q2.9375 -8.7031 2.5312 -8.2188 L2.0312 -8.2188 L2.0312 -8.7812 Q2.6875 -9.25 3.0469 -9.4375 Q3.4062 -9.625 3.7656 -9.7266 Q4.125 -9.8281 4.5469 -9.8281 Q5.6875 -9.8281 6.2578 -9.0469 Q6.8281 -8.2656 6.8281 -6.7031 Q6.8281 -6.0781 6.7188 -5.2188 Q6.6094 -4.3594 6.3438 -3.4297 Q6.0781 -2.5 5.7422 -1.8516 Q5.4062 -1.2031 4.9844 -0.7812 Q4.5625 -0.3594 4.0234 -0.125 Q3.4844 0.1094 2.7969 0.1094 Q2.1094 0.1094 1.6016 -0.1719 Q1.0938 -0.4531 0.8359 -0.9922 Q0.5781 -1.5312 0.5781 -2.3125 Q0.5781 -3.0781 0.8125 -3.8359 Q1.0469 -4.5938 1.5078 -5.2109 Q1.9688 -5.8281 2.6094 -6.1797 Q3.25 -6.5312 3.9844 -6.5312 Q4.4844 -6.5312 4.8516 -6.4219 Q5.2188 -6.3125 5.6719 -5.9844 ZM5.3438 -4.6719 Q5.3438 -5.3594 5.0547 -5.6797 Q4.7656 -6 4.1875 -6 Q3.7812 -6 3.3984 -5.7812 Q3.0156 -5.5625 2.7109 -5.1641 Q2.4062 -4.7656 2.2109 -4.2266 Q2.0156 -3.6875 1.8984 -3.1406 Q1.7812 -2.5938 1.7812 -2 Q1.7812 -1.375 1.9141 -1.0312 Q2.0469 -0.6875 2.2656 -0.5625 Q2.4844 -0.4375 2.8125 -0.4375 Q3.5625 -0.4375 4.0781 -1.0234 Q4.5938 -1.6094 4.9688 -2.7969 Q5.3438 -3.9844 5.3438 -4.6719 Z" stroke-width="1" transform="translate(174.3062,9.9264)" stroke="none"/></g><g text-rendering="optimizeLegibility" transform="translate(171.0953,24.8861)" color-rendering="optimizeQuality" color-interpolation="linearRGB" image-rendering="optimizeQuality"><path d="M5.6719 -5.9844 L5.6875 -6.1562 Q5.7031 -6.4844 5.7031 -6.7188 Q5.7031 -7.2812 5.6328 -7.7344 Q5.5625 -8.1875 5.4062 -8.5078 Q5.25 -8.8281 4.9766 -9.0078 Q4.7031 -9.1875 4.2969 -9.1875 Q3.7969 -9.1875 3.3672 -8.9453 Q2.9375 -8.7031 2.5312 -8.2188 L2.0312 -8.2188 L2.0312 -8.7812 Q2.6875 -9.25 3.0469 -9.4375 Q3.4062 -9.625 3.7656 -9.7266 Q4.125 -9.8281 4.5469 -9.8281 Q5.6875 -9.8281 6.2578 -9.0469 Q6.8281 -8.2656 6.8281 -6.7031 Q6.8281 -6.0781 6.7188 -5.2188 Q6.6094 -4.3594 6.3438 -3.4297 Q6.0781 -2.5 5.7422 -1.8516 Q5.4062 -1.2031 4.9844 -0.7812 Q4.5625 -0.3594 4.0234 -0.125 Q3.4844 0.1094 2.7969 0.1094 Q2.1094 0.1094 1.6016 -0.1719 Q1.0938 -0.4531 0.8359 -0.9922 Q0.5781 -1.5312 0.5781 -2.3125 Q0.5781 -3.0781 0.8125 -3.8359 Q1.0469 -4.5938 1.5078 -5.2109 Q1.9688 -5.8281 2.6094 -6.1797 Q3.25 -6.5312 3.9844 -6.5312 Q4.4844 -6.5312 4.8516 -6.4219 Q5.2188 -6.3125 5.6719 -5.9844 ZM5.3438 -4.6719 Q5.3438 -5.3594 5.0547 -5.6797 Q4.7656 -6 4.1875 -6 Q3.7812 -6 3.3984 -5.7812 Q3.0156 -5.5625 2.7109 -5.1641 Q2.4062 -4.7656 2.2109 -4.2266 Q2.0156 -3.6875 1.8984 -3.1406 Q1.7812 -2.5938 1.7812 -2 Q1.7812 -1.375 1.9141 -1.0312 Q2.0469 -0.6875 2.2656 -0.5625 Q2.4844 -0.4375 2.8125 -0.4375 Q3.5625 -0.4375 4.0781 -1.0234 Q4.5938 -1.6094 4.9688 -2.7969 Q5.3438 -3.9844 5.3438 -4.6719 Z" stroke="none"/></g><g text-rendering="optimizeLegibility" transform="translate(177.9703,24.8861)" color-rendering="optimizeQuality" color-interpolation="linearRGB" image-rendering="optimizeQuality"><path d="M5.4531 -1.9219 L5.0312 0 L0.0781 0 L-0.0469 -0.3281 L3.6875 -4.6406 Q4.4844 -5.5469 4.8594 -5.9375 L4.8125 -5.9844 L3.2188 -5.9844 Q2.8594 -5.9844 2.6953 -5.9375 Q2.5312 -5.8906 2.3672 -5.7656 Q2.2031 -5.6406 2.0156 -5.4062 Q1.8281 -5.1719 1.5938 -4.7344 L0.9844 -4.7344 L1.3906 -6.5312 L6.25 -6.5312 L6.375 -6.1875 L1.4688 -0.6094 L1.5156 -0.5469 L3.0625 -0.5469 Q3.4688 -0.5469 3.6875 -0.5938 Q3.9062 -0.6406 4.0703 -0.7656 Q4.2344 -0.8906 4.4062 -1.1406 Q4.5781 -1.3906 4.8438 -1.9219 L5.4531 -1.9219 Z" stroke="none"/></g><g text-rendering="optimizeLegibility" transform="translate(12.4486,57.5547)" color-rendering="optimizeQuality" color-interpolation="linearRGB" image-rendering="optimizeQuality"><path d="M5.4375 0.1562 Q3.3281 0.1562 2.2969 -1.5078 Q1.2656 -3.1719 1.2656 -6.5469 Q1.2656 -8.3438 1.5781 -9.6484 Q1.8906 -10.9531 2.4609 -11.8125 Q3.0312 -12.6719 3.8359 -13.0781 Q4.6406 -13.4844 5.5938 -13.4844 Q7.7188 -13.4844 8.7656 -11.8359 Q9.8125 -10.1875 9.8125 -6.8438 Q9.8125 -3.3906 8.6953 -1.6172 Q7.5781 0.1562 5.4375 0.1562 ZM3.1719 -6.8438 Q3.1719 -3.6562 3.7578 -2.1641 Q4.3438 -0.6719 5.5938 -0.6719 Q6.7656 -0.6719 7.3359 -2.0781 Q7.9062 -3.4844 7.9062 -6.4219 Q7.9062 -8.6562 7.6172 -10.0547 Q7.3281 -11.4531 6.8047 -12.0547 Q6.2812 -12.6562 5.5312 -12.6562 Q4.8594 -12.6562 4.4062 -12.2578 Q3.9531 -11.8594 3.6797 -11.1094 Q3.4062 -10.3594 3.2891 -9.2734 Q3.1719 -8.1875 3.1719 -6.8438 Z" stroke="none"/></g><g text-rendering="optimizeLegibility" stroke-width="1.6667" color-interpolation="linearRGB" color-rendering="optimizeQuality" image-rendering="optimizeQuality"><line y2="50.3347" fill="none" x1="41.466" x2="55.9972" y1="50.3347"/><path d="M5.6719 -5.9844 L5.6875 -6.1562 Q5.7031 -6.4844 5.7031 -6.7188 Q5.7031 -7.2812 5.6328 -7.7344 Q5.5625 -8.1875 5.4062 -8.5078 Q5.25 -8.8281 4.9766 -9.0078 Q4.7031 -9.1875 4.2969 -9.1875 Q3.7969 -9.1875 3.3672 -8.9453 Q2.9375 -8.7031 2.5312 -8.2188 L2.0312 -8.2188 L2.0312 -8.7812 Q2.6875 -9.25 3.0469 -9.4375 Q3.4062 -9.625 3.7656 -9.7266 Q4.125 -9.8281 4.5469 -9.8281 Q5.6875 -9.8281 6.2578 -9.0469 Q6.8281 -8.2656 6.8281 -6.7031 Q6.8281 -6.0781 6.7188 -5.2188 Q6.6094 -4.3594 6.3438 -3.4297 Q6.0781 -2.5 5.7422 -1.8516 Q5.4062 -1.2031 4.9844 -0.7812 Q4.5625 -0.3594 4.0234 -0.125 Q3.4844 0.1094 2.7969 0.1094 Q2.1094 0.1094 1.6016 -0.1719 Q1.0938 -0.4531 0.8359 -0.9922 Q0.5781 -1.5312 0.5781 -2.3125 Q0.5781 -3.0781 0.8125 -3.8359 Q1.0469 -4.5938 1.5078 -5.2109 Q1.9688 -5.8281 2.6094 -6.1797 Q3.25 -6.5312 3.9844 -6.5312 Q4.4844 -6.5312 4.8516 -6.4219 Q5.2188 -6.3125 5.6719 -5.9844 ZM5.3438 -4.6719 Q5.3438 -5.3594 5.0547 -5.6797 Q4.7656 -6 4.1875 -6 Q3.7812 -6 3.3984 -5.7812 Q3.0156 -5.5625 2.7109 -5.1641 Q2.4062 -4.7656 2.2109 -4.2266 Q2.0156 -3.6875 1.8984 -3.1406 Q1.7812 -2.5938 1.7812 -2 Q1.7812 -1.375 1.9141 -1.0312 Q2.0469 -0.6875 2.2656 -0.5625 Q2.4844 -0.4375 2.8125 -0.4375 Q3.5625 -0.4375 4.0781 -1.0234 Q4.5938 -1.6094 4.9688 -2.7969 Q5.3438 -3.9844 5.3438 -4.6719 Z" stroke-width="1" transform="translate(45.0285,47.7142)" stroke="none"/></g><g text-rendering="optimizeLegibility" transform="translate(40.8878,62.6739)" color-rendering="optimizeQuality" color-interpolation="linearRGB" image-rendering="optimizeQuality"><path d="M5.6719 -5.9844 L5.6875 -6.1562 Q5.7031 -6.4844 5.7031 -6.7188 Q5.7031 -7.2812 5.6328 -7.7344 Q5.5625 -8.1875 5.4062 -8.5078 Q5.25 -8.8281 4.9766 -9.0078 Q4.7031 -9.1875 4.2969 -9.1875 Q3.7969 -9.1875 3.3672 -8.9453 Q2.9375 -8.7031 2.5312 -8.2188 L2.0312 -8.2188 L2.0312 -8.7812 Q2.6875 -9.25 3.0469 -9.4375 Q3.4062 -9.625 3.7656 -9.7266 Q4.125 -9.8281 4.5469 -9.8281 Q5.6875 -9.8281 6.2578 -9.0469 Q6.8281 -8.2656 6.8281 -6.7031 Q6.8281 -6.0781 6.7188 -5.2188 Q6.6094 -4.3594 6.3438 -3.4297 Q6.0781 -2.5 5.7422 -1.8516 Q5.4062 -1.2031 4.9844 -0.7812 Q4.5625 -0.3594 4.0234 -0.125 Q3.4844 0.1094 2.7969 0.1094 Q2.1094 0.1094 1.6016 -0.1719 Q1.0938 -0.4531 0.8359 -0.9922 Q0.5781 -1.5312 0.5781 -2.3125 Q0.5781 -3.0781 0.8125 -3.8359 Q1.0469 -4.5938 1.5078 -5.2109 Q1.9688 -5.8281 2.6094 -6.1797 Q3.25 -6.5312 3.9844 -6.5312 Q4.4844 -6.5312 4.8516 -6.4219 Q5.2188 -6.3125 5.6719 -5.9844 ZM5.3438 -4.6719 Q5.3438 -5.3594 5.0547 -5.6797 Q4.7656 -6 4.1875 -6 Q3.7812 -6 3.3984 -5.7812 Q3.0156 -5.5625 2.7109 -5.1641 Q2.4062 -4.7656 2.2109 -4.2266 Q2.0156 -3.6875 1.8984 -3.1406 Q1.7812 -2.5938 1.7812 -2 Q1.7812 -1.375 1.9141 -1.0312 Q2.0469 -0.6875 2.2656 -0.5625 Q2.4844 -0.4375 2.8125 -0.4375 Q3.5625 -0.4375 4.0781 -1.0234 Q4.5938 -1.6094 4.9688 -2.7969 Q5.3438 -3.9844 5.3438 -4.6719 Z" stroke="none"/></g><g text-rendering="optimizeLegibility" transform="translate(49.4347,62.6739)" color-rendering="optimizeQuality" color-interpolation="linearRGB" image-rendering="optimizeQuality"><path d="M1.2656 -5.0469 Q1.2031 -5.5625 1.1406 -5.7656 Q1.0781 -5.9688 0.9375 -6.0781 Q0.7969 -6.1875 0.5 -6.2031 L0.5625 -6.5312 L2.3281 -6.5312 L2.8438 -1.0938 Q5.1562 -4.2656 5.1562 -5.625 Q5.1562 -5.9531 5.0156 -6.0703 Q4.875 -6.1875 4.5469 -6.2031 L4.625 -6.5312 L6.3906 -6.5312 L6.5625 -6.1875 Q6.2031 -5.25 5.6406 -4.2266 Q5.0781 -3.2031 4.2656 -1.9922 Q3.4531 -0.7812 2.4531 0.5156 Q1.6875 1.5312 1.1562 2.0312 Q0.7656 2.4219 0.4219 2.625 Q0.0781 2.8281 -0.2344 2.9141 Q-0.5469 3 -0.9062 3 Q-1.0938 3 -1.3281 2.9609 Q-1.5625 2.9219 -1.7188 2.8594 L-1.4219 1.5938 L-0.8906 1.5938 Q-0.8906 1.8125 -0.7891 1.9531 Q-0.6875 2.0938 -0.4844 2.0938 Q-0.2656 2.0938 -0.1094 2.0469 Q0.0469 2 0.2188 1.8984 Q0.3906 1.7969 0.6406 1.5703 Q0.8906 1.3438 1.2109 0.9766 Q1.5312 0.6094 1.9219 0.0781 L1.2656 -5.0469 Z" stroke="none"/></g><g text-rendering="optimizeLegibility" transform="translate(76.7047,57.5547)" color-rendering="optimizeQuality" color-interpolation="linearRGB" image-rendering="optimizeQuality"><path d="M5.4375 0.1562 Q3.3281 0.1562 2.2969 -1.5078 Q1.2656 -3.1719 1.2656 -6.5469 Q1.2656 -8.3438 1.5781 -9.6484 Q1.8906 -10.9531 2.4609 -11.8125 Q3.0312 -12.6719 3.8359 -13.0781 Q4.6406 -13.4844 5.5938 -13.4844 Q7.7188 -13.4844 8.7656 -11.8359 Q9.8125 -10.1875 9.8125 -6.8438 Q9.8125 -3.3906 8.6953 -1.6172 Q7.5781 0.1562 5.4375 0.1562 ZM3.1719 -6.8438 Q3.1719 -3.6562 3.7578 -2.1641 Q4.3438 -0.6719 5.5938 -0.6719 Q6.7656 -0.6719 7.3359 -2.0781 Q7.9062 -3.4844 7.9062 -6.4219 Q7.9062 -8.6562 7.6172 -10.0547 Q7.3281 -11.4531 6.8047 -12.0547 Q6.2812 -12.6562 5.5312 -12.6562 Q4.8594 -12.6562 4.4062 -12.2578 Q3.9531 -11.8594 3.6797 -11.1094 Q3.4062 -10.3594 3.2891 -9.2734 Q3.1719 -8.1875 3.1719 -6.8438 Z" stroke="none"/></g><g text-rendering="optimizeLegibility" stroke-width="1.6667" color-interpolation="linearRGB" color-rendering="optimizeQuality" image-rendering="optimizeQuality"><line y2="50.3347" fill="none" x1="106.3236" x2="119.3236" y1="50.3347"/><path d="M5.6719 -5.9844 L5.6875 -6.1562 Q5.7031 -6.4844 5.7031 -6.7188 Q5.7031 -7.2812 5.6328 -7.7344 Q5.5625 -8.1875 5.4062 -8.5078 Q5.25 -8.8281 4.9766 -9.0078 Q4.7031 -9.1875 4.2969 -9.1875 Q3.7969 -9.1875 3.3672 -8.9453 Q2.9375 -8.7031 2.5312 -8.2188 L2.0312 -8.2188 L2.0312 -8.7812 Q2.6875 -9.25 3.0469 -9.4375 Q3.4062 -9.625 3.7656 -9.7266 Q4.125 -9.8281 4.5469 -9.8281 Q5.6875 -9.8281 6.2578 -9.0469 Q6.8281 -8.2656 6.8281 -6.7031 Q6.8281 -6.0781 6.7188 -5.2188 Q6.6094 -4.3594 6.3438 -3.4297 Q6.0781 -2.5 5.7422 -1.8516 Q5.4062 -1.2031 4.9844 -0.7812 Q4.5625 -0.3594 4.0234 -0.125 Q3.4844 0.1094 2.7969 0.1094 Q2.1094 0.1094 1.6016 -0.1719 Q1.0938 -0.4531 0.8359 -0.9922 Q0.5781 -1.5312 0.5781 -2.3125 Q0.5781 -3.0781 0.8125 -3.8359 Q1.0469 -4.5938 1.5078 -5.2109 Q1.9688 -5.8281 2.6094 -6.1797 Q3.25 -6.5312 3.9844 -6.5312 Q4.4844 -6.5312 4.8516 -6.4219 Q5.2188 -6.3125 5.6719 -5.9844 ZM5.3438 -4.6719 Q5.3438 -5.3594 5.0547 -5.6797 Q4.7656 -6 4.1875 -6 Q3.7812 -6 3.3984 -5.7812 Q3.0156 -5.5625 2.7109 -5.1641 Q2.4062 -4.7656 2.2109 -4.2266 Q2.0156 -3.6875 1.8984 -3.1406 Q1.7812 -2.5938 1.7812 -2 Q1.7812 -1.375 1.9141 -1.0312 Q2.0469 -0.6875 2.2656 -0.5625 Q2.4844 -0.4375 2.8125 -0.4375 Q3.5625 -0.4375 4.0781 -1.0234 Q4.5938 -1.6094 4.9688 -2.7969 Q5.3438 -3.9844 5.3438 -4.6719 Z" stroke-width="1" transform="translate(109.1205,47.7142)" stroke="none"/></g><g text-rendering="optimizeLegibility" transform="translate(105.7455,62.6739)" color-rendering="optimizeQuality" color-interpolation="linearRGB" image-rendering="optimizeQuality"><path d="M5.6719 -5.9844 L5.6875 -6.1562 Q5.7031 -6.4844 5.7031 -6.7188 Q5.7031 -7.2812 5.6328 -7.7344 Q5.5625 -8.1875 5.4062 -8.5078 Q5.25 -8.8281 4.9766 -9.0078 Q4.7031 -9.1875 4.2969 -9.1875 Q3.7969 -9.1875 3.3672 -8.9453 Q2.9375 -8.7031 2.5312 -8.2188 L2.0312 -8.2188 L2.0312 -8.7812 Q2.6875 -9.25 3.0469 -9.4375 Q3.4062 -9.625 3.7656 -9.7266 Q4.125 -9.8281 4.5469 -9.8281 Q5.6875 -9.8281 6.2578 -9.0469 Q6.8281 -8.2656 6.8281 -6.7031 Q6.8281 -6.0781 6.7188 -5.2188 Q6.6094 -4.3594 6.3438 -3.4297 Q6.0781 -2.5 5.7422 -1.8516 Q5.4062 -1.2031 4.9844 -0.7812 Q4.5625 -0.3594 4.0234 -0.125 Q3.4844 0.1094 2.7969 0.1094 Q2.1094 0.1094 1.6016 -0.1719 Q1.0938 -0.4531 0.8359 -0.9922 Q0.5781 -1.5312 0.5781 -2.3125 Q0.5781 -3.0781 0.8125 -3.8359 Q1.0469 -4.5938 1.5078 -5.2109 Q1.9688 -5.8281 2.6094 -6.1797 Q3.25 -6.5312 3.9844 -6.5312 Q4.4844 -6.5312 4.8516 -6.4219 Q5.2188 -6.3125 5.6719 -5.9844 ZM5.3438 -4.6719 Q5.3438 -5.3594 5.0547 -5.6797 Q4.7656 -6 4.1875 -6 Q3.7812 -6 3.3984 -5.7812 Q3.0156 -5.5625 2.7109 -5.1641 Q2.4062 -4.7656 2.2109 -4.2266 Q2.0156 -3.6875 1.8984 -3.1406 Q1.7812 -2.5938 1.7812 -2 Q1.7812 -1.375 1.9141 -1.0312 Q2.0469 -0.6875 2.2656 -0.5625 Q2.4844 -0.4375 2.8125 -0.4375 Q3.5625 -0.4375 4.0781 -1.0234 Q4.5938 -1.6094 4.9688 -2.7969 Q5.3438 -3.9844 5.3438 -4.6719 Z" stroke="none"/></g><g text-rendering="optimizeLegibility" transform="translate(112.8549,62.6739)" color-rendering="optimizeQuality" color-interpolation="linearRGB" image-rendering="optimizeQuality"><path d="M6.4688 -6.2031 Q5.1406 -4.7812 3.6875 -3.4062 L4.3281 -1.9062 Q4.5781 -1.3125 4.7266 -1.0234 Q4.875 -0.7344 5 -0.6094 Q5.125 -0.4844 5.25 -0.4297 Q5.375 -0.375 5.6406 -0.3281 L5.5625 0 L3.8594 0 L2.9062 -2.75 Q2.75 -2.6094 2.4766 -2.3516 Q2.2031 -2.0938 1.9531 -1.8047 Q1.7031 -1.5156 1.6016 -1.3359 Q1.5 -1.1562 1.4688 -1.0234 Q1.4375 -0.8906 1.4375 -0.7656 Q1.4375 -0.5781 1.5391 -0.4766 Q1.6406 -0.375 1.875 -0.3281 L1.7969 0 L-0.1562 0 L-0.2812 -0.3281 Q1.2188 -1.9375 2.6719 -3.2969 L2.0156 -4.8125 Q1.8125 -5.2812 1.6953 -5.5234 Q1.5781 -5.7656 1.4609 -5.8984 Q1.3438 -6.0312 1.1953 -6.1094 Q1.0469 -6.1875 0.7812 -6.2031 L0.8594 -6.5312 L2.5625 -6.5312 L3.4688 -3.9531 Q3.7969 -4.2656 4.1016 -4.5938 Q4.4062 -4.9219 4.5312 -5.1172 Q4.6562 -5.3125 4.7031 -5.4609 Q4.75 -5.6094 4.75 -5.7656 Q4.75 -6.1406 4.3125 -6.2031 L4.375 -6.5312 L6.3281 -6.5312 L6.4688 -6.2031 Z" stroke="none"/></g><g text-rendering="optimizeLegibility" stroke-width="1.6667" color-interpolation="linearRGB" color-rendering="optimizeQuality" image-rendering="optimizeQuality"><line y2="50.3347" fill="none" x1="139.4634" x2="152.1352" y1="50.3347"/><path d="M5.6719 -5.9844 L5.6875 -6.1562 Q5.7031 -6.4844 5.7031 -6.7188 Q5.7031 -7.2812 5.6328 -7.7344 Q5.5625 -8.1875 5.4062 -8.5078 Q5.25 -8.8281 4.9766 -9.0078 Q4.7031 -9.1875 4.2969 -9.1875 Q3.7969 -9.1875 3.3672 -8.9453 Q2.9375 -8.7031 2.5312 -8.2188 L2.0312 -8.2188 L2.0312 -8.7812 Q2.6875 -9.25 3.0469 -9.4375 Q3.4062 -9.625 3.7656 -9.7266 Q4.125 -9.8281 4.5469 -9.8281 Q5.6875 -9.8281 6.2578 -9.0469 Q6.8281 -8.2656 6.8281 -6.7031 Q6.8281 -6.0781 6.7188 -5.2188 Q6.6094 -4.3594 6.3438 -3.4297 Q6.0781 -2.5 5.7422 -1.8516 Q5.4062 -1.2031 4.9844 -0.7812 Q4.5625 -0.3594 4.0234 -0.125 Q3.4844 0.1094 2.7969 0.1094 Q2.1094 0.1094 1.6016 -0.1719 Q1.0938 -0.4531 0.8359 -0.9922 Q0.5781 -1.5312 0.5781 -2.3125 Q0.5781 -3.0781 0.8125 -3.8359 Q1.0469 -4.5938 1.5078 -5.2109 Q1.9688 -5.8281 2.6094 -6.1797 Q3.25 -6.5312 3.9844 -6.5312 Q4.4844 -6.5312 4.8516 -6.4219 Q5.2188 -6.3125 5.6719 -5.9844 ZM5.3438 -4.6719 Q5.3438 -5.3594 5.0547 -5.6797 Q4.7656 -6 4.1875 -6 Q3.7812 -6 3.3984 -5.7812 Q3.0156 -5.5625 2.7109 -5.1641 Q2.4062 -4.7656 2.2109 -4.2266 Q2.0156 -3.6875 1.8984 -3.1406 Q1.7812 -2.5938 1.7812 -2 Q1.7812 -1.375 1.9141 -1.0312 Q2.0469 -0.6875 2.2656 -0.5625 Q2.4844 -0.4375 2.8125 -0.4375 Q3.5625 -0.4375 4.0781 -1.0234 Q4.5938 -1.6094 4.9688 -2.7969 Q5.3438 -3.9844 5.3438 -4.6719 Z" stroke-width="1" transform="translate(142.0962,47.7142)" stroke="none"/></g><g text-rendering="optimizeLegibility" transform="translate(138.8852,62.6739)" color-rendering="optimizeQuality" color-interpolation="linearRGB" image-rendering="optimizeQuality"><path d="M5.6719 -5.9844 L5.6875 -6.1562 Q5.7031 -6.4844 5.7031 -6.7188 Q5.7031 -7.2812 5.6328 -7.7344 Q5.5625 -8.1875 5.4062 -8.5078 Q5.25 -8.8281 4.9766 -9.0078 Q4.7031 -9.1875 4.2969 -9.1875 Q3.7969 -9.1875 3.3672 -8.9453 Q2.9375 -8.7031 2.5312 -8.2188 L2.0312 -8.2188 L2.0312 -8.7812 Q2.6875 -9.25 3.0469 -9.4375 Q3.4062 -9.625 3.7656 -9.7266 Q4.125 -9.8281 4.5469 -9.8281 Q5.6875 -9.8281 6.2578 -9.0469 Q6.8281 -8.2656 6.8281 -6.7031 Q6.8281 -6.0781 6.7188 -5.2188 Q6.6094 -4.3594 6.3438 -3.4297 Q6.0781 -2.5 5.7422 -1.8516 Q5.4062 -1.2031 4.9844 -0.7812 Q4.5625 -0.3594 4.0234 -0.125 Q3.4844 0.1094 2.7969 0.1094 Q2.1094 0.1094 1.6016 -0.1719 Q1.0938 -0.4531 0.8359 -0.9922 Q0.5781 -1.5312 0.5781 -2.3125 Q0.5781 -3.0781 0.8125 -3.8359 Q1.0469 -4.5938 1.5078 -5.2109 Q1.9688 -5.8281 2.6094 -6.1797 Q3.25 -6.5312 3.9844 -6.5312 Q4.4844 -6.5312 4.8516 -6.4219 Q5.2188 -6.3125 5.6719 -5.9844 ZM5.3438 -4.6719 Q5.3438 -5.3594 5.0547 -5.6797 Q4.7656 -6 4.1875 -6 Q3.7812 -6 3.3984 -5.7812 Q3.0156 -5.5625 2.7109 -5.1641 Q2.4062 -4.7656 2.2109 -4.2266 Q2.0156 -3.6875 1.8984 -3.1406 Q1.7812 -2.5938 1.7812 -2 Q1.7812 -1.375 1.9141 -1.0312 Q2.0469 -0.6875 2.2656 -0.5625 Q2.4844 -0.4375 2.8125 -0.4375 Q3.5625 -0.4375 4.0781 -1.0234 Q4.5938 -1.6094 4.9688 -2.7969 Q5.3438 -3.9844 5.3438 -4.6719 Z" stroke="none"/></g><g text-rendering="optimizeLegibility" transform="translate(145.7602,62.6739)" color-rendering="optimizeQuality" color-interpolation="linearRGB" image-rendering="optimizeQuality"><path d="M5.4531 -1.9219 L5.0312 0 L0.0781 0 L-0.0469 -0.3281 L3.6875 -4.6406 Q4.4844 -5.5469 4.8594 -5.9375 L4.8125 -5.9844 L3.2188 -5.9844 Q2.8594 -5.9844 2.6953 -5.9375 Q2.5312 -5.8906 2.3672 -5.7656 Q2.2031 -5.6406 2.0156 -5.4062 Q1.8281 -5.1719 1.5938 -4.7344 L0.9844 -4.7344 L1.3906 -6.5312 L6.25 -6.5312 L6.375 -6.1875 L1.4688 -0.6094 L1.5156 -0.5469 L3.0625 -0.5469 Q3.4688 -0.5469 3.6875 -0.5938 Q3.9062 -0.6406 4.0703 -0.7656 Q4.2344 -0.8906 4.4062 -1.1406 Q4.5781 -1.3906 4.8438 -1.9219 L5.4531 -1.9219 Z" stroke="none"/></g><g text-rendering="optimizeLegibility" transform="translate(173.9364,57.5547)" color-rendering="optimizeQuality" color-interpolation="linearRGB" image-rendering="optimizeQuality"><path d="M5.4375 0.1562 Q3.3281 0.1562 2.2969 -1.5078 Q1.2656 -3.1719 1.2656 -6.5469 Q1.2656 -8.3438 1.5781 -9.6484 Q1.8906 -10.9531 2.4609 -11.8125 Q3.0312 -12.6719 3.8359 -13.0781 Q4.6406 -13.4844 5.5938 -13.4844 Q7.7188 -13.4844 8.7656 -11.8359 Q9.8125 -10.1875 9.8125 -6.8438 Q9.8125 -3.3906 8.6953 -1.6172 Q7.5781 0.1562 5.4375 0.1562 ZM3.1719 -6.8438 Q3.1719 -3.6562 3.7578 -2.1641 Q4.3438 -0.6719 5.5938 -0.6719 Q6.7656 -0.6719 7.3359 -2.0781 Q7.9062 -3.4844 7.9062 -6.4219 Q7.9062 -8.6562 7.6172 -10.0547 Q7.3281 -11.4531 6.8047 -12.0547 Q6.2812 -12.6562 5.5312 -12.6562 Q4.8594 -12.6562 4.4062 -12.2578 Q3.9531 -11.8594 3.6797 -11.1094 Q3.4062 -10.3594 3.2891 -9.2734 Q3.1719 -8.1875 3.1719 -6.8438 Z" stroke="none"/></g><g text-rendering="optimizeLegibility" transform="translate(12.4486,95.3425)" color-rendering="optimizeQuality" color-interpolation="linearRGB" image-rendering="optimizeQuality"><path d="M5.4375 0.1562 Q3.3281 0.1562 2.2969 -1.5078 Q1.2656 -3.1719 1.2656 -6.5469 Q1.2656 -8.3438 1.5781 -9.6484 Q1.8906 -10.9531 2.4609 -11.8125 Q3.0312 -12.6719 3.8359 -13.0781 Q4.6406 -13.4844 5.5938 -13.4844 Q7.7188 -13.4844 8.7656 -11.8359 Q9.8125 -10.1875 9.8125 -6.8438 Q9.8125 -3.3906 8.6953 -1.6172 Q7.5781 0.1562 5.4375 0.1562 ZM3.1719 -6.8438 Q3.1719 -3.6562 3.7578 -2.1641 Q4.3438 -0.6719 5.5938 -0.6719 Q6.7656 -0.6719 7.3359 -2.0781 Q7.9062 -3.4844 7.9062 -6.4219 Q7.9062 -8.6562 7.6172 -10.0547 Q7.3281 -11.4531 6.8047 -12.0547 Q6.2812 -12.6562 5.5312 -12.6562 Q4.8594 -12.6562 4.4062 -12.2578 Q3.9531 -11.8594 3.6797 -11.1094 Q3.4062 -10.3594 3.2891 -9.2734 Q3.1719 -8.1875 3.1719 -6.8438 Z" stroke="none"/></g><g text-rendering="optimizeLegibility" transform="translate(44.6587,95.3425)" color-rendering="optimizeQuality" color-interpolation="linearRGB" image-rendering="optimizeQuality"><path d="M5.4375 0.1562 Q3.3281 0.1562 2.2969 -1.5078 Q1.2656 -3.1719 1.2656 -6.5469 Q1.2656 -8.3438 1.5781 -9.6484 Q1.8906 -10.9531 2.4609 -11.8125 Q3.0312 -12.6719 3.8359 -13.0781 Q4.6406 -13.4844 5.5938 -13.4844 Q7.7188 -13.4844 8.7656 -11.8359 Q9.8125 -10.1875 9.8125 -6.8438 Q9.8125 -3.3906 8.6953 -1.6172 Q7.5781 0.1562 5.4375 0.1562 ZM3.1719 -6.8438 Q3.1719 -3.6562 3.7578 -2.1641 Q4.3438 -0.6719 5.5938 -0.6719 Q6.7656 -0.6719 7.3359 -2.0781 Q7.9062 -3.4844 7.9062 -6.4219 Q7.9062 -8.6562 7.6172 -10.0547 Q7.3281 -11.4531 6.8047 -12.0547 Q6.2812 -12.6562 5.5312 -12.6562 Q4.8594 -12.6562 4.4062 -12.2578 Q3.9531 -11.8594 3.6797 -11.1094 Q3.4062 -10.3594 3.2891 -9.2734 Q3.1719 -8.1875 3.1719 -6.8438 Z" stroke="none"/></g><g text-rendering="optimizeLegibility" stroke-width="1.6667" color-interpolation="linearRGB" color-rendering="optimizeQuality" image-rendering="optimizeQuality"><line y2="88.1225" fill="none" x1="74.4417" x2="87.1135" y1="88.1225"/><path d="M5.6719 -5.9844 L5.6875 -6.1562 Q5.7031 -6.4844 5.7031 -6.7188 Q5.7031 -7.2812 5.6328 -7.7344 Q5.5625 -8.1875 5.4062 -8.5078 Q5.25 -8.8281 4.9766 -9.0078 Q4.7031 -9.1875 4.2969 -9.1875 Q3.7969 -9.1875 3.3672 -8.9453 Q2.9375 -8.7031 2.5312 -8.2188 L2.0312 -8.2188 L2.0312 -8.7812 Q2.6875 -9.25 3.0469 -9.4375 Q3.4062 -9.625 3.7656 -9.7266 Q4.125 -9.8281 4.5469 -9.8281 Q5.6875 -9.8281 6.2578 -9.0469 Q6.8281 -8.2656 6.8281 -6.7031 Q6.8281 -6.0781 6.7188 -5.2188 Q6.6094 -4.3594 6.3438 -3.4297 Q6.0781 -2.5 5.7422 -1.8516 Q5.4062 -1.2031 4.9844 -0.7812 Q4.5625 -0.3594 4.0234 -0.125 Q3.4844 0.1094 2.7969 0.1094 Q2.1094 0.1094 1.6016 -0.1719 Q1.0938 -0.4531 0.8359 -0.9922 Q0.5781 -1.5312 0.5781 -2.3125 Q0.5781 -3.0781 0.8125 -3.8359 Q1.0469 -4.5938 1.5078 -5.2109 Q1.9688 -5.8281 2.6094 -6.1797 Q3.25 -6.5312 3.9844 -6.5312 Q4.4844 -6.5312 4.8516 -6.4219 Q5.2188 -6.3125 5.6719 -5.9844 ZM5.3438 -4.6719 Q5.3438 -5.3594 5.0547 -5.6797 Q4.7656 -6 4.1875 -6 Q3.7812 -6 3.3984 -5.7812 Q3.0156 -5.5625 2.7109 -5.1641 Q2.4062 -4.7656 2.2109 -4.2266 Q2.0156 -3.6875 1.8984 -3.1406 Q1.7812 -2.5938 1.7812 -2 Q1.7812 -1.375 1.9141 -1.0312 Q2.0469 -0.6875 2.2656 -0.5625 Q2.4844 -0.4375 2.8125 -0.4375 Q3.5625 -0.4375 4.0781 -1.0234 Q4.5938 -1.6094 4.9688 -2.7969 Q5.3438 -3.9844 5.3438 -4.6719 Z" stroke-width="1" transform="translate(77.0745,85.5021)" stroke="none"/></g><g text-rendering="optimizeLegibility" transform="translate(73.8635,100.4618)" color-rendering="optimizeQuality" color-interpolation="linearRGB" image-rendering="optimizeQuality"><path d="M5.6719 -5.9844 L5.6875 -6.1562 Q5.7031 -6.4844 5.7031 -6.7188 Q5.7031 -7.2812 5.6328 -7.7344 Q5.5625 -8.1875 5.4062 -8.5078 Q5.25 -8.8281 4.9766 -9.0078 Q4.7031 -9.1875 4.2969 -9.1875 Q3.7969 -9.1875 3.3672 -8.9453 Q2.9375 -8.7031 2.5312 -8.2188 L2.0312 -8.2188 L2.0312 -8.7812 Q2.6875 -9.25 3.0469 -9.4375 Q3.4062 -9.625 3.7656 -9.7266 Q4.125 -9.8281 4.5469 -9.8281 Q5.6875 -9.8281 6.2578 -9.0469 Q6.8281 -8.2656 6.8281 -6.7031 Q6.8281 -6.0781 6.7188 -5.2188 Q6.6094 -4.3594 6.3438 -3.4297 Q6.0781 -2.5 5.7422 -1.8516 Q5.4062 -1.2031 4.9844 -0.7812 Q4.5625 -0.3594 4.0234 -0.125 Q3.4844 0.1094 2.7969 0.1094 Q2.1094 0.1094 1.6016 -0.1719 Q1.0938 -0.4531 0.8359 -0.9922 Q0.5781 -1.5312 0.5781 -2.3125 Q0.5781 -3.0781 0.8125 -3.8359 Q1.0469 -4.5938 1.5078 -5.2109 Q1.9688 -5.8281 2.6094 -6.1797 Q3.25 -6.5312 3.9844 -6.5312 Q4.4844 -6.5312 4.8516 -6.4219 Q5.2188 -6.3125 5.6719 -5.9844 ZM5.3438 -4.6719 Q5.3438 -5.3594 5.0547 -5.6797 Q4.7656 -6 4.1875 -6 Q3.7812 -6 3.3984 -5.7812 Q3.0156 -5.5625 2.7109 -5.1641 Q2.4062 -4.7656 2.2109 -4.2266 Q2.0156 -3.6875 1.8984 -3.1406 Q1.7812 -2.5938 1.7812 -2 Q1.7812 -1.375 1.9141 -1.0312 Q2.0469 -0.6875 2.2656 -0.5625 Q2.4844 -0.4375 2.8125 -0.4375 Q3.5625 -0.4375 4.0781 -1.0234 Q4.5938 -1.6094 4.9688 -2.7969 Q5.3438 -3.9844 5.3438 -4.6719 Z" stroke="none"/></g><g text-rendering="optimizeLegibility" transform="translate(80.7385,100.4618)" color-rendering="optimizeQuality" color-interpolation="linearRGB" image-rendering="optimizeQuality"><path d="M5.4531 -1.9219 L5.0312 0 L0.0781 0 L-0.0469 -0.3281 L3.6875 -4.6406 Q4.4844 -5.5469 4.8594 -5.9375 L4.8125 -5.9844 L3.2188 -5.9844 Q2.8594 -5.9844 2.6953 -5.9375 Q2.5312 -5.8906 2.3672 -5.7656 Q2.2031 -5.6406 2.0156 -5.4062 Q1.8281 -5.1719 1.5938 -4.7344 L0.9844 -4.7344 L1.3906 -6.5312 L6.25 -6.5312 L6.375 -6.1875 L1.4688 -0.6094 L1.5156 -0.5469 L3.0625 -0.5469 Q3.4688 -0.5469 3.6875 -0.5938 Q3.9062 -0.6406 4.0703 -0.7656 Q4.2344 -0.8906 4.4062 -1.1406 Q4.5781 -1.3906 4.8438 -1.9219 L5.4531 -1.9219 Z" stroke="none"/></g><g text-rendering="optimizeLegibility" transform="translate(108.7507,95.3425)" color-rendering="optimizeQuality" color-interpolation="linearRGB" image-rendering="optimizeQuality"><path d="M5.4375 0.1562 Q3.3281 0.1562 2.2969 -1.5078 Q1.2656 -3.1719 1.2656 -6.5469 Q1.2656 -8.3438 1.5781 -9.6484 Q1.8906 -10.9531 2.4609 -11.8125 Q3.0312 -12.6719 3.8359 -13.0781 Q4.6406 -13.4844 5.5938 -13.4844 Q7.7188 -13.4844 8.7656 -11.8359 Q9.8125 -10.1875 9.8125 -6.8438 Q9.8125 -3.3906 8.6953 -1.6172 Q7.5781 0.1562 5.4375 0.1562 ZM3.1719 -6.8438 Q3.1719 -3.6562 3.7578 -2.1641 Q4.3438 -0.6719 5.5938 -0.6719 Q6.7656 -0.6719 7.3359 -2.0781 Q7.9062 -3.4844 7.9062 -6.4219 Q7.9062 -8.6562 7.6172 -10.0547 Q7.3281 -11.4531 6.8047 -12.0547 Q6.2812 -12.6562 5.5312 -12.6562 Q4.8594 -12.6562 4.4062 -12.2578 Q3.9531 -11.8594 3.6797 -11.1094 Q3.4062 -10.3594 3.2891 -9.2734 Q3.1719 -8.1875 3.1719 -6.8438 Z" stroke="none"/></g><g text-rendering="optimizeLegibility" stroke-width="1.6667" color-interpolation="linearRGB" color-rendering="optimizeQuality" image-rendering="optimizeQuality"><line y2="88.1225" fill="none" x1="138.5337" x2="153.0649" y1="88.1225"/><path d="M5.6719 -5.9844 L5.6875 -6.1562 Q5.7031 -6.4844 5.7031 -6.7188 Q5.7031 -7.2812 5.6328 -7.7344 Q5.5625 -8.1875 5.4062 -8.5078 Q5.25 -8.8281 4.9766 -9.0078 Q4.7031 -9.1875 4.2969 -9.1875 Q3.7969 -9.1875 3.3672 -8.9453 Q2.9375 -8.7031 2.5312 -8.2188 L2.0312 -8.2188 L2.0312 -8.7812 Q2.6875 -9.25 3.0469 -9.4375 Q3.4062 -9.625 3.7656 -9.7266 Q4.125 -9.8281 4.5469 -9.8281 Q5.6875 -9.8281 6.2578 -9.0469 Q6.8281 -8.2656 6.8281 -6.7031 Q6.8281 -6.0781 6.7188 -5.2188 Q6.6094 -4.3594 6.3438 -3.4297 Q6.0781 -2.5 5.7422 -1.8516 Q5.4062 -1.2031 4.9844 -0.7812 Q4.5625 -0.3594 4.0234 -0.125 Q3.4844 0.1094 2.7969 0.1094 Q2.1094 0.1094 1.6016 -0.1719 Q1.0938 -0.4531 0.8359 -0.9922 Q0.5781 -1.5312 0.5781 -2.3125 Q0.5781 -3.0781 0.8125 -3.8359 Q1.0469 -4.5938 1.5078 -5.2109 Q1.9688 -5.8281 2.6094 -6.1797 Q3.25 -6.5312 3.9844 -6.5312 Q4.4844 -6.5312 4.8516 -6.4219 Q5.2188 -6.3125 5.6719 -5.9844 ZM5.3438 -4.6719 Q5.3438 -5.3594 5.0547 -5.6797 Q4.7656 -6 4.1875 -6 Q3.7812 -6 3.3984 -5.7812 Q3.0156 -5.5625 2.7109 -5.1641 Q2.4062 -4.7656 2.2109 -4.2266 Q2.0156 -3.6875 1.8984 -3.1406 Q1.7812 -2.5938 1.7812 -2 Q1.7812 -1.375 1.9141 -1.0312 Q2.0469 -0.6875 2.2656 -0.5625 Q2.4844 -0.4375 2.8125 -0.4375 Q3.5625 -0.4375 4.0781 -1.0234 Q4.5938 -1.6094 4.9688 -2.7969 Q5.3438 -3.9844 5.3438 -4.6719 Z" stroke-width="1" transform="translate(142.0962,85.5021)" stroke="none"/></g><g text-rendering="optimizeLegibility" transform="translate(137.9556,100.4618)" color-rendering="optimizeQuality" color-interpolation="linearRGB" image-rendering="optimizeQuality"><path d="M5.6719 -5.9844 L5.6875 -6.1562 Q5.7031 -6.4844 5.7031 -6.7188 Q5.7031 -7.2812 5.6328 -7.7344 Q5.5625 -8.1875 5.4062 -8.5078 Q5.25 -8.8281 4.9766 -9.0078 Q4.7031 -9.1875 4.2969 -9.1875 Q3.7969 -9.1875 3.3672 -8.9453 Q2.9375 -8.7031 2.5312 -8.2188 L2.0312 -8.2188 L2.0312 -8.7812 Q2.6875 -9.25 3.0469 -9.4375 Q3.4062 -9.625 3.7656 -9.7266 Q4.125 -9.8281 4.5469 -9.8281 Q5.6875 -9.8281 6.2578 -9.0469 Q6.8281 -8.2656 6.8281 -6.7031 Q6.8281 -6.0781 6.7188 -5.2188 Q6.6094 -4.3594 6.3438 -3.4297 Q6.0781 -2.5 5.7422 -1.8516 Q5.4062 -1.2031 4.9844 -0.7812 Q4.5625 -0.3594 4.0234 -0.125 Q3.4844 0.1094 2.7969 0.1094 Q2.1094 0.1094 1.6016 -0.1719 Q1.0938 -0.4531 0.8359 -0.9922 Q0.5781 -1.5312 0.5781 -2.3125 Q0.5781 -3.0781 0.8125 -3.8359 Q1.0469 -4.5938 1.5078 -5.2109 Q1.9688 -5.8281 2.6094 -6.1797 Q3.25 -6.5312 3.9844 -6.5312 Q4.4844 -6.5312 4.8516 -6.4219 Q5.2188 -6.3125 5.6719 -5.9844 ZM5.3438 -4.6719 Q5.3438 -5.3594 5.0547 -5.6797 Q4.7656 -6 4.1875 -6 Q3.7812 -6 3.3984 -5.7812 Q3.0156 -5.5625 2.7109 -5.1641 Q2.4062 -4.7656 2.2109 -4.2266 Q2.0156 -3.6875 1.8984 -3.1406 Q1.7812 -2.5938 1.7812 -2 Q1.7812 -1.375 1.9141 -1.0312 Q2.0469 -0.6875 2.2656 -0.5625 Q2.4844 -0.4375 2.8125 -0.4375 Q3.5625 -0.4375 4.0781 -1.0234 Q4.5938 -1.6094 4.9688 -2.7969 Q5.3438 -3.9844 5.3438 -4.6719 Z" stroke="none"/></g><g text-rendering="optimizeLegibility" transform="translate(146.5024,100.4618)" color-rendering="optimizeQuality" color-interpolation="linearRGB" image-rendering="optimizeQuality"><path d="M1.2656 -5.0469 Q1.2031 -5.5625 1.1406 -5.7656 Q1.0781 -5.9688 0.9375 -6.0781 Q0.7969 -6.1875 0.5 -6.2031 L0.5625 -6.5312 L2.3281 -6.5312 L2.8438 -1.0938 Q5.1562 -4.2656 5.1562 -5.625 Q5.1562 -5.9531 5.0156 -6.0703 Q4.875 -6.1875 4.5469 -6.2031 L4.625 -6.5312 L6.3906 -6.5312 L6.5625 -6.1875 Q6.2031 -5.25 5.6406 -4.2266 Q5.0781 -3.2031 4.2656 -1.9922 Q3.4531 -0.7812 2.4531 0.5156 Q1.6875 1.5312 1.1562 2.0312 Q0.7656 2.4219 0.4219 2.625 Q0.0781 2.8281 -0.2344 2.9141 Q-0.5469 3 -0.9062 3 Q-1.0938 3 -1.3281 2.9609 Q-1.5625 2.9219 -1.7188 2.8594 L-1.4219 1.5938 L-0.8906 1.5938 Q-0.8906 1.8125 -0.7891 1.9531 Q-0.6875 2.0938 -0.4844 2.0938 Q-0.2656 2.0938 -0.1094 2.0469 Q0.0469 2 0.2188 1.8984 Q0.3906 1.7969 0.6406 1.5703 Q0.8906 1.3438 1.2109 0.9766 Q1.5312 0.6094 1.9219 0.0781 L1.2656 -5.0469 Z" stroke="none"/></g><g text-rendering="optimizeLegibility" stroke-width="1.6667" color-interpolation="linearRGB" color-rendering="optimizeQuality" image-rendering="optimizeQuality"><line y2="88.1225" fill="none" x1="171.5094" x2="184.5094" y1="88.1225"/><path d="M5.6719 -5.9844 L5.6875 -6.1562 Q5.7031 -6.4844 5.7031 -6.7188 Q5.7031 -7.2812 5.6328 -7.7344 Q5.5625 -8.1875 5.4062 -8.5078 Q5.25 -8.8281 4.9766 -9.0078 Q4.7031 -9.1875 4.2969 -9.1875 Q3.7969 -9.1875 3.3672 -8.9453 Q2.9375 -8.7031 2.5312 -8.2188 L2.0312 -8.2188 L2.0312 -8.7812 Q2.6875 -9.25 3.0469 -9.4375 Q3.4062 -9.625 3.7656 -9.7266 Q4.125 -9.8281 4.5469 -9.8281 Q5.6875 -9.8281 6.2578 -9.0469 Q6.8281 -8.2656 6.8281 -6.7031 Q6.8281 -6.0781 6.7188 -5.2188 Q6.6094 -4.3594 6.3438 -3.4297 Q6.0781 -2.5 5.7422 -1.8516 Q5.4062 -1.2031 4.9844 -0.7812 Q4.5625 -0.3594 4.0234 -0.125 Q3.4844 0.1094 2.7969 0.1094 Q2.1094 0.1094 1.6016 -0.1719 Q1.0938 -0.4531 0.8359 -0.9922 Q0.5781 -1.5312 0.5781 -2.3125 Q0.5781 -3.0781 0.8125 -3.8359 Q1.0469 -4.5938 1.5078 -5.2109 Q1.9688 -5.8281 2.6094 -6.1797 Q3.25 -6.5312 3.9844 -6.5312 Q4.4844 -6.5312 4.8516 -6.4219 Q5.2188 -6.3125 5.6719 -5.9844 ZM5.3438 -4.6719 Q5.3438 -5.3594 5.0547 -5.6797 Q4.7656 -6 4.1875 -6 Q3.7812 -6 3.3984 -5.7812 Q3.0156 -5.5625 2.7109 -5.1641 Q2.4062 -4.7656 2.2109 -4.2266 Q2.0156 -3.6875 1.8984 -3.1406 Q1.7812 -2.5938 1.7812 -2 Q1.7812 -1.375 1.9141 -1.0312 Q2.0469 -0.6875 2.2656 -0.5625 Q2.4844 -0.4375 2.8125 -0.4375 Q3.5625 -0.4375 4.0781 -1.0234 Q4.5938 -1.6094 4.9688 -2.7969 Q5.3438 -3.9844 5.3438 -4.6719 Z" stroke-width="1" transform="translate(174.3062,85.5021)" stroke="none"/></g><g text-rendering="optimizeLegibility" transform="translate(170.9312,100.4618)" color-rendering="optimizeQuality" color-interpolation="linearRGB" image-rendering="optimizeQuality"><path d="M5.6719 -5.9844 L5.6875 -6.1562 Q5.7031 -6.4844 5.7031 -6.7188 Q5.7031 -7.2812 5.6328 -7.7344 Q5.5625 -8.1875 5.4062 -8.5078 Q5.25 -8.8281 4.9766 -9.0078 Q4.7031 -9.1875 4.2969 -9.1875 Q3.7969 -9.1875 3.3672 -8.9453 Q2.9375 -8.7031 2.5312 -8.2188 L2.0312 -8.2188 L2.0312 -8.7812 Q2.6875 -9.25 3.0469 -9.4375 Q3.4062 -9.625 3.7656 -9.7266 Q4.125 -9.8281 4.5469 -9.8281 Q5.6875 -9.8281 6.2578 -9.0469 Q6.8281 -8.2656 6.8281 -6.7031 Q6.8281 -6.0781 6.7188 -5.2188 Q6.6094 -4.3594 6.3438 -3.4297 Q6.0781 -2.5 5.7422 -1.8516 Q5.4062 -1.2031 4.9844 -0.7812 Q4.5625 -0.3594 4.0234 -0.125 Q3.4844 0.1094 2.7969 0.1094 Q2.1094 0.1094 1.6016 -0.1719 Q1.0938 -0.4531 0.8359 -0.9922 Q0.5781 -1.5312 0.5781 -2.3125 Q0.5781 -3.0781 0.8125 -3.8359 Q1.0469 -4.5938 1.5078 -5.2109 Q1.9688 -5.8281 2.6094 -6.1797 Q3.25 -6.5312 3.9844 -6.5312 Q4.4844 -6.5312 4.8516 -6.4219 Q5.2188 -6.3125 5.6719 -5.9844 ZM5.3438 -4.6719 Q5.3438 -5.3594 5.0547 -5.6797 Q4.7656 -6 4.1875 -6 Q3.7812 -6 3.3984 -5.7812 Q3.0156 -5.5625 2.7109 -5.1641 Q2.4062 -4.7656 2.2109 -4.2266 Q2.0156 -3.6875 1.8984 -3.1406 Q1.7812 -2.5938 1.7812 -2 Q1.7812 -1.375 1.9141 -1.0312 Q2.0469 -0.6875 2.2656 -0.5625 Q2.4844 -0.4375 2.8125 -0.4375 Q3.5625 -0.4375 4.0781 -1.0234 Q4.5938 -1.6094 4.9688 -2.7969 Q5.3438 -3.9844 5.3438 -4.6719 Z" stroke="none"/></g><g text-rendering="optimizeLegibility" transform="translate(178.0406,100.4618)" color-rendering="optimizeQuality" color-interpolation="linearRGB" image-rendering="optimizeQuality"><path d="M6.4688 -6.2031 Q5.1406 -4.7812 3.6875 -3.4062 L4.3281 -1.9062 Q4.5781 -1.3125 4.7266 -1.0234 Q4.875 -0.7344 5 -0.6094 Q5.125 -0.4844 5.25 -0.4297 Q5.375 -0.375 5.6406 -0.3281 L5.5625 0 L3.8594 0 L2.9062 -2.75 Q2.75 -2.6094 2.4766 -2.3516 Q2.2031 -2.0938 1.9531 -1.8047 Q1.7031 -1.5156 1.6016 -1.3359 Q1.5 -1.1562 1.4688 -1.0234 Q1.4375 -0.8906 1.4375 -0.7656 Q1.4375 -0.5781 1.5391 -0.4766 Q1.6406 -0.375 1.875 -0.3281 L1.7969 0 L-0.1562 0 L-0.2812 -0.3281 Q1.2188 -1.9375 2.6719 -3.2969 L2.0156 -4.8125 Q1.8125 -5.2812 1.6953 -5.5234 Q1.5781 -5.7656 1.4609 -5.8984 Q1.3438 -6.0312 1.1953 -6.1094 Q1.0469 -6.1875 0.7812 -6.2031 L0.8594 -6.5312 L2.5625 -6.5312 L3.4688 -3.9531 Q3.7969 -4.2656 4.1016 -4.5938 Q4.4062 -4.9219 4.5312 -5.1172 Q4.6562 -5.3125 4.7031 -5.4609 Q4.75 -5.6094 4.75 -5.7656 Q4.75 -6.1406 4.3125 -6.2031 L4.375 -6.5312 L6.3281 -6.5312 L6.4688 -6.2031 Z" stroke="none"/></g><g text-rendering="optimizeLegibility" transform="translate(189.4319,79.554) matrix(1,0,0,5.6881,0,0)" color-rendering="optimizeQuality" color-interpolation="linearRGB" image-rendering="optimizeQuality"><path d="M4.7812 4.2031 L0.4219 4.2031 L0.4219 3.4062 L3.0625 3.4062 L3.0625 -13.1719 L0.4219 -13.1719 L0.4219 -13.9688 L4.7812 -13.9688 L4.7812 4.2031 Z" stroke="none"/></g></g></svg>