<?xml version="1.0" encoding="UTF-8" standalone="no"?><svg xmlns="http://www.w3.org/2000/svg" xmlns:xlink="http://www.w3.org/1999/xlink" stroke-dasharray="none" shape-rendering="auto" font-family="'Dialog'" width="74.812600" text-rendering="auto" fill-opacity="1" contentScriptType="text/ecmascript" color-interpolation="auto" color-rendering="auto" preserveAspectRatio="xMidYMid meet" font-size="12" fill="black" stroke="black" image-rendering="auto" stroke-miterlimit="10" zoomAndPan="magnify" version="1.0" stroke-linecap="square" stroke-linejoin="miter" contentStyleType="text/css" font-style="normal" height="25" stroke-width="1" stroke-dashoffset="0" font-weight="normal" stroke-opacity="1" y="-5.000000"><!--Converted from MathML using JEuclid--><defs id="genericDefs"/><g><g text-rendering="optimizeLegibility" transform="translate(0,20)" color-rendering="optimizeQuality" color-interpolation="linearRGB" image-rendering="optimizeQuality"><path d="M4.3594 0.1562 Q1.2188 0.1562 1.2188 -3.7812 Q1.2188 -7.1719 3.0547 -10.4688 Q4.8906 -13.7656 7.7031 -13.7656 Q10.6406 -13.7656 10.6406 -9.9062 Q10.6406 -6.4844 8.8594 -3.1641 Q7.0781 0.1562 4.3594 0.1562 ZM3.6094 -7.5469 L8.625 -7.5469 Q9 -9.6094 9 -10.7188 Q9 -12.9375 7.5 -12.9375 Q6.3594 -12.9375 5.3438 -11.5312 Q4.3281 -10.125 3.6094 -7.5469 ZM3.3594 -6.625 Q2.8438 -4.4219 2.8438 -2.9219 Q2.8438 -0.6719 4.5469 -0.6719 Q5.75 -0.6719 6.75 -2.2422 Q7.75 -3.8125 8.4219 -6.625 L3.3594 -6.625 Z" stroke="none"/></g><g text-rendering="optimizeLegibility" transform="translate(10.9219,23.4219)" color-rendering="optimizeQuality" color-interpolation="linearRGB" image-rendering="optimizeQuality"><path d="M6.4688 -6.2031 Q5.1406 -4.7812 3.6875 -3.4062 L4.3281 -1.9062 Q4.5781 -1.3125 4.7266 -1.0234 Q4.875 -0.7344 5 -0.6094 Q5.125 -0.4844 5.25 -0.4297 Q5.375 -0.375 5.6406 -0.3281 L5.5625 0 L3.8594 0 L2.9062 -2.75 Q2.75 -2.6094 2.4766 -2.3516 Q2.2031 -2.0938 1.9531 -1.8047 Q1.7031 -1.5156 1.6016 -1.3359 Q1.5 -1.1562 1.4688 -1.0234 Q1.4375 -0.8906 1.4375 -0.7656 Q1.4375 -0.5781 1.5391 -0.4766 Q1.6406 -0.375 1.875 -0.3281 L1.7969 0 L-0.1562 0 L-0.2812 -0.3281 Q1.2188 -1.9375 2.6719 -3.2969 L2.0156 -4.8125 Q1.8125 -5.2812 1.6953 -5.5234 Q1.5781 -5.7656 1.4609 -5.8984 Q1.3438 -6.0312 1.1953 -6.1094 Q1.0469 -6.1875 0.7812 -6.2031 L0.8594 -6.5312 L2.5625 -6.5312 L3.4688 -3.9531 Q3.7969 -4.2656 4.1016 -4.5938 Q4.4062 -4.9219 4.5312 -5.1172 Q4.6562 -5.3125 4.7031 -5.4609 Q4.75 -5.6094 4.75 -5.7656 Q4.75 -6.1406 4.3125 -6.2031 L4.375 -6.5312 L6.3281 -6.5312 L6.4688 -6.2031 Z" stroke="none"/></g><g text-rendering="optimizeLegibility" transform="translate(9.9062,11.5938)" color-rendering="optimizeQuality" color-interpolation="linearRGB" image-rendering="optimizeQuality"><path d="M2.9688 -10.7188 L2.9688 -10.3281 L1.3125 -6.3594 L0.7344 -6.5312 L1.6875 -10.7188 L2.9688 -10.7188 Z" stroke="none"/></g><g text-rendering="optimizeLegibility" transform="translate(19.1562,20)" color-rendering="optimizeQuality" color-interpolation="linearRGB" image-rendering="optimizeQuality"><path d="M3.0156 -2.2656 Q3.1562 -1.5781 3.1562 -0.9219 Q3.1562 -0.2344 2.9219 0.3359 Q2.6875 0.9062 2.1719 1.4609 Q1.6562 2.0156 0.7656 2.7031 L0.2344 2.0938 Q0.7344 1.625 0.9609 1.25 Q1.1875 0.875 1.2812 0.3984 Q1.375 -0.0781 1.375 -0.7969 Q1.375 -1.5469 1.3125 -2.2656 L3.0156 -2.2656 Z" stroke="none"/></g><g text-rendering="optimizeLegibility" transform="translate(27.3125,20)" color-rendering="optimizeQuality" color-interpolation="linearRGB" image-rendering="optimizeQuality"><path d="M4.3594 0.1562 Q1.2188 0.1562 1.2188 -3.7812 Q1.2188 -7.1719 3.0547 -10.4688 Q4.8906 -13.7656 7.7031 -13.7656 Q10.6406 -13.7656 10.6406 -9.9062 Q10.6406 -6.4844 8.8594 -3.1641 Q7.0781 0.1562 4.3594 0.1562 ZM3.6094 -7.5469 L8.625 -7.5469 Q9 -9.6094 9 -10.7188 Q9 -12.9375 7.5 -12.9375 Q6.3594 -12.9375 5.3438 -11.5312 Q4.3281 -10.125 3.6094 -7.5469 ZM3.3594 -6.625 Q2.8438 -4.4219 2.8438 -2.9219 Q2.8438 -0.6719 4.5469 -0.6719 Q5.75 -0.6719 6.75 -2.2422 Q7.75 -3.8125 8.4219 -6.625 L3.3594 -6.625 Z" stroke="none"/></g><g text-rendering="optimizeLegibility" transform="translate(39.6719,21.9219)" color-rendering="optimizeQuality" color-interpolation="linearRGB" image-rendering="optimizeQuality"><path d="M1.2656 -5.0469 Q1.2031 -5.5625 1.1406 -5.7656 Q1.0781 -5.9688 0.9375 -6.0781 Q0.7969 -6.1875 0.5 -6.2031 L0.5625 -6.5312 L2.3281 -6.5312 L2.8438 -1.0938 Q5.1562 -4.2656 5.1562 -5.625 Q5.1562 -5.9531 5.0156 -6.0703 Q4.875 -6.1875 4.5469 -6.2031 L4.625 -6.5312 L6.3906 -6.5312 L6.5625 -6.1875 Q6.2031 -5.25 5.6406 -4.2266 Q5.0781 -3.2031 4.2656 -1.9922 Q3.4531 -0.7812 2.4531 0.5156 Q1.6875 1.5312 1.1562 2.0312 Q0.7656 2.4219 0.4219 2.625 Q0.0781 2.8281 -0.2344 2.9141 Q-0.5469 3 -0.9062 3 Q-1.0938 3 -1.3281 2.9609 Q-1.5625 2.9219 -1.7188 2.8594 L-1.4219 1.5938 L-0.8906 1.5938 Q-0.8906 1.8125 -0.7891 1.9531 Q-0.6875 2.0938 -0.4844 2.0938 Q-0.2656 2.0938 -0.1094 2.0469 Q0.0469 2 0.2188 1.8984 Q0.3906 1.7969 0.6406 1.5703 Q0.8906 1.3438 1.2109 0.9766 Q1.5312 0.6094 1.9219 0.0781 L1.2656 -5.0469 Z" stroke="none"/></g><g text-rendering="optimizeLegibility" transform="translate(37.2188,11.5938)" color-rendering="optimizeQuality" color-interpolation="linearRGB" image-rendering="optimizeQuality"><path d="M2.9688 -10.7188 L2.9688 -10.3281 L1.3125 -6.3594 L0.7344 -6.5312 L1.6875 -10.7188 L2.9688 -10.7188 Z" stroke="none"/></g><g text-rendering="optimizeLegibility" transform="translate(48,20)" color-rendering="optimizeQuality" color-interpolation="linearRGB" image-rendering="optimizeQuality"><path d="M3.0156 -2.2656 Q3.1562 -1.5781 3.1562 -0.9219 Q3.1562 -0.2344 2.9219 0.3359 Q2.6875 0.9062 2.1719 1.4609 Q1.6562 2.0156 0.7656 2.7031 L0.2344 2.0938 Q0.7344 1.625 0.9609 1.25 Q1.1875 0.875 1.2812 0.3984 Q1.375 -0.0781 1.375 -0.7969 Q1.375 -1.5469 1.3125 -2.2656 L3.0156 -2.2656 Z" stroke="none"/></g><g text-rendering="optimizeLegibility" transform="translate(56.1562,20)" color-rendering="optimizeQuality" color-interpolation="linearRGB" image-rendering="optimizeQuality"><path d="M4.3594 0.1562 Q1.2188 0.1562 1.2188 -3.7812 Q1.2188 -7.1719 3.0547 -10.4688 Q4.8906 -13.7656 7.7031 -13.7656 Q10.6406 -13.7656 10.6406 -9.9062 Q10.6406 -6.4844 8.8594 -3.1641 Q7.0781 0.1562 4.3594 0.1562 ZM3.6094 -7.5469 L8.625 -7.5469 Q9 -9.6094 9 -10.7188 Q9 -12.9375 7.5 -12.9375 Q6.3594 -12.9375 5.3438 -11.5312 Q4.3281 -10.125 3.6094 -7.5469 ZM3.3594 -6.625 Q2.8438 -4.4219 2.8438 -2.9219 Q2.8438 -0.6719 4.5469 -0.6719 Q5.75 -0.6719 6.75 -2.2422 Q7.75 -3.8125 8.4219 -6.625 L3.3594 -6.625 Z" stroke="none"/></g><g text-rendering="optimizeLegibility" transform="translate(66.8438,23.4219)" color-rendering="optimizeQuality" color-interpolation="linearRGB" image-rendering="optimizeQuality"><path d="M5.4531 -1.9219 L5.0312 0 L0.0781 0 L-0.0469 -0.3281 L3.6875 -4.6406 Q4.4844 -5.5469 4.8594 -5.9375 L4.8125 -5.9844 L3.2188 -5.9844 Q2.8594 -5.9844 2.6953 -5.9375 Q2.5312 -5.8906 2.3672 -5.7656 Q2.2031 -5.6406 2.0156 -5.4062 Q1.8281 -5.1719 1.5938 -4.7344 L0.9844 -4.7344 L1.3906 -6.5312 L6.25 -6.5312 L6.375 -6.1875 L1.4688 -0.6094 L1.5156 -0.5469 L3.0625 -0.5469 Q3.4688 -0.5469 3.6875 -0.5938 Q3.9062 -0.6406 4.0703 -0.7656 Q4.2344 -0.8906 4.4062 -1.1406 Q4.5781 -1.3906 4.8438 -1.9219 L5.4531 -1.9219 Z" stroke="none"/></g><g text-rendering="optimizeLegibility" transform="translate(66.0625,11.5938)" color-rendering="optimizeQuality" color-interpolation="linearRGB" image-rendering="optimizeQuality"><path d="M2.9688 -10.7188 L2.9688 -10.3281 L1.3125 -6.3594 L0.7344 -6.5312 L1.6875 -10.7188 L2.9688 -10.7188 Z" stroke="none"/></g></g></svg>