<?xml version="1.0" encoding="UTF-8" standalone="no"?><svg xmlns="http://www.w3.org/2000/svg" xmlns:xlink="http://www.w3.org/1999/xlink" stroke-dasharray="none" shape-rendering="auto" font-family="'Dialog'" width="98.812600" text-rendering="auto" fill-opacity="1" contentScriptType="text/ecmascript" color-interpolation="auto" color-rendering="auto" preserveAspectRatio="xMidYMid meet" font-size="12" fill="black" stroke="black" image-rendering="auto" stroke-miterlimit="10" zoomAndPan="magnify" version="1.0" stroke-linecap="square" stroke-linejoin="miter" contentStyleType="text/css" font-style="normal" height="24" stroke-width="1" stroke-dashoffset="0" font-weight="normal" stroke-opacity="1" y="-5.000000"><!--Converted from MathML using JEuclid--><defs id="genericDefs"/><g><g text-rendering="optimizeLegibility" transform="translate(-0.4062,17.9188) matrix(1,0,0,1.2572,0,0)" color-rendering="optimizeQuality" color-interpolation="linearRGB" image-rendering="optimizeQuality"><path d="M3.9219 4.2031 L2.4062 4.2031 L2.4062 -13.9688 L3.9219 -13.9688 L3.9219 4.2031 Z" stroke="none"/></g><g text-rendering="optimizeLegibility" transform="translate(6.5156,19)" color-rendering="optimizeQuality" color-interpolation="linearRGB" image-rendering="optimizeQuality"><path d="M7.7812 0 L7.7812 -0.4844 Q8.2656 -0.5781 8.5 -0.6953 Q8.7344 -0.8125 8.8516 -1.0234 Q8.9688 -1.2344 8.9688 -1.5781 Q8.9688 -1.9219 8.8906 -2.3047 Q8.8125 -2.6875 8.6719 -3.1719 L8.3125 -4.4219 L3.7656 -4.4219 L3.4219 -3.4688 Q3.1719 -2.75 3.0938 -2.375 Q3.0156 -2 3.0156 -1.7031 Q3.0156 -1.1094 3.3125 -0.8359 Q3.6094 -0.5625 4.2344 -0.4844 L4.2344 0 L0.0625 0 L0.0625 -0.4844 Q0.6094 -0.5625 1.0156 -1.1094 Q1.4219 -1.6562 1.7969 -2.6719 L5.875 -13.4844 L7.4062 -13.4844 L10.7344 -2.5938 Q10.9688 -1.8438 11.1484 -1.4375 Q11.3281 -1.0312 11.5859 -0.8125 Q11.8438 -0.5938 12.2812 -0.4844 L12.2812 0 L7.7812 0 ZM4.0312 -5.2812 L8.1094 -5.2812 L6.25 -11.5781 L4.0312 -5.2812 Z" stroke="none"/></g><g text-rendering="optimizeLegibility" transform="translate(19.3906,17.9188) matrix(1,0,0,1.2572,0,0)" color-rendering="optimizeQuality" color-interpolation="linearRGB" image-rendering="optimizeQuality"><path d="M3.9219 4.2031 L2.4062 4.2031 L2.4062 -13.9688 L3.9219 -13.9688 L3.9219 4.2031 Z" stroke="none"/></g><g text-rendering="optimizeLegibility" transform="translate(25.3125,19)" color-rendering="optimizeQuality" color-interpolation="linearRGB" image-rendering="optimizeQuality"><path d="M1.2188 -7.0625 L1.2188 -8.4219 L9.8594 -8.4219 L9.8594 -7.0625 L1.2188 -7.0625 ZM1.2188 -3.0156 L1.2188 -4.3594 L9.8594 -4.3594 L9.8594 -3.0156 L1.2188 -3.0156 ZM17.7812 -2.5469 Q17.7812 -1.9844 17.8516 -1.6953 Q17.9219 -1.4062 18.0781 -1.2266 Q18.2344 -1.0469 18.5391 -0.9453 Q18.8438 -0.8438 19.3047 -0.7891 Q19.7656 -0.7344 20.5156 -0.7188 L20.5156 0 L13.2969 0 L13.2969 -0.7188 Q14.375 -0.7656 14.8438 -0.8438 Q15.3125 -0.9219 15.5547 -1.0938 Q15.7969 -1.2656 15.9062 -1.5625 Q16.0156 -1.8594 16.0156 -2.5469 L16.0156 -10.4688 Q16.0156 -10.8594 15.8828 -11.0391 Q15.75 -11.2188 15.4844 -11.2188 Q15.1719 -11.2188 14.5938 -10.8984 Q14.0156 -10.5781 13.1719 -10.0156 L12.7344 -10.7656 L17.3125 -13.4844 L17.8438 -13.4844 Q17.7812 -12.5469 17.7812 -10.8906 L17.7812 -2.5469 ZM25.0156 -2.2656 Q25.1562 -1.5781 25.1562 -0.9219 Q25.1562 -0.2344 24.9219 0.3359 Q24.6875 0.9062 24.1719 1.4609 Q23.6562 2.0156 22.7656 2.7031 L22.2344 2.0938 Q22.7344 1.625 22.9609 1.25 Q23.1875 0.875 23.2812 0.3984 Q23.375 -0.0781 23.375 -0.7969 Q23.375 -1.5469 23.3125 -2.2656 L25.0156 -2.2656 Z" stroke="none"/></g><g text-rendering="optimizeLegibility" transform="translate(53.0625,17.9188) matrix(1,0,0,1.2572,0,0)" color-rendering="optimizeQuality" color-interpolation="linearRGB" image-rendering="optimizeQuality"><path d="M3.9219 4.2031 L2.4062 4.2031 L2.4062 -13.9688 L3.9219 -13.9688 L3.9219 4.2031 Z" stroke="none"/></g><g text-rendering="optimizeLegibility" transform="translate(59.9844,19)" color-rendering="optimizeQuality" color-interpolation="linearRGB" image-rendering="optimizeQuality"><path d="M1.1875 0 L1.1875 -0.4844 Q1.7812 -0.6406 1.9922 -0.8281 Q2.2031 -1.0156 2.2656 -1.3672 Q2.3281 -1.7188 2.3281 -2.4375 L2.3281 -10.8906 Q2.3281 -11.5625 2.2812 -11.8672 Q2.2344 -12.1719 2.1172 -12.3438 Q2 -12.5156 1.8125 -12.6172 Q1.625 -12.7188 1.1875 -12.8594 L1.1875 -13.3281 L6.5312 -13.3281 Q8.0781 -13.3281 9.0234 -13 Q9.9688 -12.6719 10.4219 -12.0234 Q10.875 -11.375 10.875 -10.3438 Q10.875 -9.5 10.5469 -8.875 Q10.2188 -8.25 9.6953 -7.8359 Q9.1719 -7.4219 8.3438 -7.0781 L8.3438 -6.9844 Q9.6719 -6.5781 10.3516 -5.7422 Q11.0312 -4.9062 11.0312 -3.7656 Q11.0312 -2.4375 10.4453 -1.5938 Q9.8594 -0.75 8.7891 -0.375 Q7.7188 0 6.2188 0 L1.1875 0 ZM5.8594 -7.3594 Q7.3438 -7.3594 8.1328 -8.0781 Q8.9219 -8.7969 8.9219 -10.1562 Q8.9219 -10.8281 8.7031 -11.2734 Q8.4844 -11.7188 8.0938 -11.9844 Q7.7031 -12.25 7.1797 -12.3594 Q6.6562 -12.4688 6.0312 -12.4688 Q5.6719 -12.4688 5.0625 -12.4531 Q4.4531 -12.4375 4.1562 -12.4062 L4.1562 -7.3594 L5.8594 -7.3594 ZM4.1562 -0.9219 Q4.8594 -0.8594 5.75 -0.8594 Q7.0156 -0.8594 7.7266 -1.1797 Q8.4375 -1.5 8.7578 -2.1328 Q9.0781 -2.7656 9.0781 -3.7188 Q9.0781 -4.6562 8.7266 -5.2734 Q8.375 -5.8906 7.6562 -6.1953 Q6.9375 -6.5 5.6719 -6.5 L4.1562 -6.5 L4.1562 -0.9219 Z" stroke="none"/></g><g text-rendering="optimizeLegibility" transform="translate(71.6094,17.9188) matrix(1,0,0,1.2572,0,0)" color-rendering="optimizeQuality" color-interpolation="linearRGB" image-rendering="optimizeQuality"><path d="M3.9219 4.2031 L2.4062 4.2031 L2.4062 -13.9688 L3.9219 -13.9688 L3.9219 4.2031 Z" stroke="none"/></g><g text-rendering="optimizeLegibility" transform="translate(77.5312,19)" color-rendering="optimizeQuality" color-interpolation="linearRGB" image-rendering="optimizeQuality"><path d="M1.2188 -7.0625 L1.2188 -8.4219 L9.8594 -8.4219 L9.8594 -7.0625 L1.2188 -7.0625 ZM1.2188 -3.0156 L1.2188 -4.3594 L9.8594 -4.3594 L9.8594 -3.0156 L1.2188 -3.0156 ZM17.7812 -2.5469 Q17.7812 -1.9844 17.8516 -1.6953 Q17.9219 -1.4062 18.0781 -1.2266 Q18.2344 -1.0469 18.5391 -0.9453 Q18.8438 -0.8438 19.3047 -0.7891 Q19.7656 -0.7344 20.5156 -0.7188 L20.5156 0 L13.2969 0 L13.2969 -0.7188 Q14.375 -0.7656 14.8438 -0.8438 Q15.3125 -0.9219 15.5547 -1.0938 Q15.7969 -1.2656 15.9062 -1.5625 Q16.0156 -1.8594 16.0156 -2.5469 L16.0156 -10.4688 Q16.0156 -10.8594 15.8828 -11.0391 Q15.75 -11.2188 15.4844 -11.2188 Q15.1719 -11.2188 14.5938 -10.8984 Q14.0156 -10.5781 13.1719 -10.0156 L12.7344 -10.7656 L17.3125 -13.4844 L17.8438 -13.4844 Q17.7812 -12.5469 17.7812 -10.8906 L17.7812 -2.5469 Z" stroke="none"/></g></g></svg>