<?xml version="1.0" encoding="UTF-8" standalone="no"?><svg xmlns="http://www.w3.org/2000/svg" xmlns:xlink="http://www.w3.org/1999/xlink" stroke-dasharray="none" shape-rendering="auto" font-family="'Dialog'" width="452.812600" text-rendering="auto" fill-opacity="1" contentScriptType="text/ecmascript" color-interpolation="auto" color-rendering="auto" preserveAspectRatio="xMidYMid meet" font-size="12" fill="black" stroke="black" image-rendering="auto" stroke-miterlimit="10" zoomAndPan="magnify" version="1.0" stroke-linecap="square" stroke-linejoin="miter" contentStyleType="text/css" font-style="normal" height="25" stroke-width="1" stroke-dashoffset="0" font-weight="normal" stroke-opacity="1" y="-5.000000"><!--Converted from MathML using JEuclid--><defs id="genericDefs"/><g><g text-rendering="optimizeLegibility" transform="translate(0,20)" color-rendering="optimizeQuality" color-interpolation="linearRGB" image-rendering="optimizeQuality"><path d="M8.0938 -7.25 L7.2812 -7.25 Q7.125 -8.7188 5.4531 -8.7188 Q4.6406 -8.7188 4.0469 -8.2422 Q3.4531 -7.7656 3.4531 -7.0156 Q3.4531 -6.3125 3.9766 -5.9062 Q4.5 -5.5 5.4531 -5.5 L6.3125 -5.5 L6.125 -4.5625 L5.3438 -4.5625 Q4.1094 -4.5625 3.1953 -4 Q2.2812 -3.4375 2.2812 -2.4219 Q2.2812 -1.7188 2.8438 -1.3125 Q3.4062 -0.9062 4.2656 -0.9062 Q5.7344 -0.9062 7.2031 -1.8594 L7.6406 -1.2031 Q5.8438 0.1562 3.6094 0.1562 Q2.1406 0.1562 1.3125 -0.4766 Q0.4844 -1.1094 0.4844 -2.125 Q0.4844 -4.1562 3.375 -4.9688 L3.4062 -5.0625 Q1.7812 -5.5312 1.7812 -6.9219 Q1.7812 -8.1094 2.7422 -8.8047 Q3.7031 -9.5 5.4219 -9.5 Q7.0312 -9.5 8.4844 -8.9688 L8.0938 -7.25 Z" stroke="none"/></g><g text-rendering="optimizeLegibility" transform="translate(9.4844,24.6094)" color-rendering="optimizeQuality" color-interpolation="linearRGB" image-rendering="optimizeQuality"><path d="M3.8281 -9.2188 L3.5156 -7.8906 L2.2969 -7.8906 L2.625 -9.2188 L3.8281 -9.2188 ZM2.1406 -1.7031 Q2.0625 -1.3594 2.0469 -1.2031 Q2.0312 -1.0469 2.0312 -0.9375 Q2.0312 -0.7188 2.0938 -0.6094 Q2.1562 -0.5 2.3047 -0.4375 Q2.4531 -0.375 2.7812 -0.3281 L2.7188 0 L0.5938 0 L1.625 -4.6094 Q1.7188 -5 1.75 -5.2344 Q1.7812 -5.4688 1.7812 -5.6406 Q1.7812 -5.8281 1.7266 -5.9375 Q1.6719 -6.0469 1.5312 -6.1016 Q1.3906 -6.1562 1.0625 -6.1719 L1.1406 -6.5312 L2.7969 -6.5938 L3.2031 -6.5938 L2.1406 -1.7031 Z" stroke="none"/></g><g text-rendering="optimizeLegibility" transform="translate(17.0938,20)" color-rendering="optimizeQuality" color-interpolation="linearRGB" image-rendering="optimizeQuality"><path d="M1.2188 -7.0625 L1.2188 -8.4219 L9.8594 -8.4219 L9.8594 -7.0625 L1.2188 -7.0625 ZM1.2188 -3.0156 L1.2188 -4.3594 L9.8594 -4.3594 L9.8594 -3.0156 L1.2188 -3.0156 Z" stroke="none"/></g><g text-rendering="optimizeLegibility" transform="translate(28.9531,20)" color-rendering="optimizeQuality" color-interpolation="linearRGB" image-rendering="optimizeQuality"><path d="M8.75 -1.6562 Q8.125 -1 7.6016 -0.6328 Q7.0781 -0.2656 6.4531 -0.0547 Q5.8281 0.1562 5.0781 0.1562 Q3.0625 0.1562 2.0391 -1.0469 Q1.0156 -2.25 1.0156 -4.6094 Q1.0156 -6.0625 1.5391 -7.1797 Q2.0625 -8.2969 3.0312 -8.8984 Q4 -9.5 5.25 -9.5 Q6.2344 -9.5 6.9297 -9.1875 Q7.625 -8.875 8.0391 -8.3359 Q8.4531 -7.7969 8.6875 -6.9688 Q8.9219 -6.1406 8.9531 -4.8125 L2.7969 -4.8125 L2.7969 -4.6406 Q2.7969 -3.4844 3.0547 -2.7031 Q3.3125 -1.9219 3.9062 -1.4766 Q4.5 -1.0312 5.4375 -1.0312 Q6.2344 -1.0312 6.875 -1.3281 Q7.5156 -1.625 8.1562 -2.2969 L8.75 -1.6562 ZM7.1094 -5.625 Q7.0469 -6.6875 6.8438 -7.3516 Q6.6406 -8.0156 6.2344 -8.375 Q5.8281 -8.7344 5.1562 -8.7344 Q4.1562 -8.7344 3.5547 -7.9297 Q2.9531 -7.125 2.8438 -5.625 L7.1094 -5.625 ZM13.5781 -7.8281 L13.7188 -7.7969 Q14.3125 -8.375 14.6875 -8.6719 Q15.0625 -8.9688 15.4141 -9.1562 Q15.7656 -9.3438 16.0703 -9.4219 Q16.375 -9.5 16.7031 -9.5 Q17.6719 -9.5 18.2891 -9.0469 Q18.9062 -8.5938 19.1406 -7.6719 Q19.875 -8.4062 20.3281 -8.7578 Q20.7812 -9.1094 21.2578 -9.3047 Q21.7344 -9.5 22.2812 -9.5 Q22.9375 -9.5 23.4062 -9.3047 Q23.875 -9.1094 24.2031 -8.7188 Q24.5312 -8.3281 24.6797 -7.7266 Q24.8281 -7.125 24.8281 -6.125 L24.8281 -2.4375 Q24.8281 -1.7031 24.8828 -1.4219 Q24.9375 -1.1406 25.0312 -0.9844 Q25.125 -0.8281 25.3047 -0.7109 Q25.4844 -0.5938 25.9219 -0.4844 L25.9219 0 L22.0938 0 L22.0938 -0.4844 Q22.4688 -0.5938 22.6328 -0.6797 Q22.7969 -0.7656 22.9141 -0.9219 Q23.0312 -1.0781 23.0938 -1.4062 Q23.1562 -1.7344 23.1562 -2.4062 L23.1562 -4.9688 Q23.1562 -5.7969 23.1094 -6.3359 Q23.0625 -6.875 22.9688 -7.1953 Q22.875 -7.5156 22.75 -7.7031 Q22.625 -7.8906 22.4531 -8.0312 Q22.2812 -8.1719 22.0625 -8.25 Q21.8438 -8.3281 21.4688 -8.3281 Q21.0781 -8.3281 20.7422 -8.1719 Q20.4062 -8.0156 20.0078 -7.6406 Q19.6094 -7.2656 19.4375 -6.8906 Q19.2656 -6.5156 19.2656 -6 L19.2656 -2.4375 Q19.2656 -1.7031 19.3125 -1.4219 Q19.3594 -1.1406 19.4531 -0.9844 Q19.5469 -0.8281 19.7266 -0.7109 Q19.9062 -0.5938 20.3594 -0.4844 L20.3594 0 L16.5156 0 L16.5156 -0.4844 Q16.8906 -0.5938 17.0625 -0.6797 Q17.2344 -0.7656 17.3438 -0.9219 Q17.4531 -1.0781 17.5156 -1.4062 Q17.5781 -1.7344 17.5781 -2.4062 L17.5781 -4.9688 Q17.5781 -5.8281 17.5312 -6.375 Q17.4844 -6.9219 17.3828 -7.2578 Q17.2812 -7.5938 17.1172 -7.7969 Q16.9531 -8 16.7891 -8.1094 Q16.625 -8.2188 16.3984 -8.2734 Q16.1719 -8.3281 15.8906 -8.3281 Q15.4844 -8.3281 15.1328 -8.1406 Q14.7812 -7.9531 14.4141 -7.6172 Q14.0469 -7.2812 13.8672 -6.9062 Q13.6875 -6.5312 13.6875 -6.1094 L13.6875 -2.4375 Q13.6875 -1.8906 13.7109 -1.5938 Q13.7344 -1.2969 13.8047 -1.1328 Q13.875 -0.9688 13.9688 -0.8672 Q14.0625 -0.7656 14.2422 -0.6719 Q14.4219 -0.5781 14.7812 -0.4844 L14.7812 0 L10.9531 0 L10.9531 -0.4844 Q11.3281 -0.5938 11.4922 -0.6797 Q11.6562 -0.7656 11.7734 -0.9219 Q11.8906 -1.0781 11.9453 -1.4062 Q12 -1.7344 12 -2.4062 L12 -6.6719 Q12 -7.2969 11.9844 -7.6797 Q11.9688 -8.0625 11.8516 -8.2891 Q11.7344 -8.5156 11.4922 -8.625 Q11.25 -8.7344 10.8125 -8.8125 L10.8125 -9.3438 L13.0938 -9.4219 L13.6875 -9.4219 L13.5781 -7.8281 ZM30.7344 -13.1719 L30.7344 -11.2656 L28.9375 -11.2656 L28.9375 -13.1719 L30.7344 -13.1719 ZM27.9531 -0.4844 Q28.3281 -0.5938 28.4922 -0.6797 Q28.6562 -0.7656 28.7656 -0.9219 Q28.875 -1.0781 28.9375 -1.4062 Q29 -1.7344 29 -2.4062 L29 -6.6719 Q29 -7.2969 28.9844 -7.6797 Q28.9688 -8.0625 28.8516 -8.2891 Q28.7344 -8.5156 28.4922 -8.625 Q28.25 -8.7344 27.8125 -8.8125 L27.8125 -9.3438 L30.0938 -9.4219 L30.6875 -9.4219 L30.6875 -2.4375 Q30.6875 -1.6094 30.7656 -1.2812 Q30.8438 -0.9531 31.0625 -0.7812 Q31.2812 -0.6094 31.7812 -0.4844 L31.7812 0 L27.9531 0 L27.9531 -0.4844 ZM40.4844 -7.2031 L39.5469 -7.2031 Q39.3438 -7.7812 39.0469 -8.1172 Q38.75 -8.4531 38.3828 -8.5938 Q38.0156 -8.7344 37.4688 -8.7344 Q36.6875 -8.7344 36.2266 -8.3672 Q35.7656 -8 35.7656 -7.3594 Q35.7656 -6.9219 35.9531 -6.625 Q36.1406 -6.3281 36.5312 -6.0781 Q36.9219 -5.8281 37.9062 -5.4062 Q38.9062 -4.9688 39.4453 -4.6094 Q39.9844 -4.25 40.2891 -3.7734 Q40.5938 -3.2969 40.5938 -2.625 Q40.5938 -1.8594 40.3359 -1.3281 Q40.0781 -0.7969 39.5938 -0.4688 Q39.1094 -0.1406 38.4531 0.0078 Q37.7969 0.1562 37.0156 0.1562 Q36.1875 0.1562 35.4219 0.0312 Q34.6562 -0.0938 33.9219 -0.2812 L33.9219 -2.3281 L34.875 -2.3281 Q35.1406 -1.4219 35.6562 -1.0156 Q36.1719 -0.6094 37.0781 -0.6094 Q37.4375 -0.6094 37.7734 -0.6875 Q38.1094 -0.7656 38.375 -0.9375 Q38.6406 -1.1094 38.7969 -1.3984 Q38.9531 -1.6875 38.9531 -2.125 Q38.9531 -2.625 38.7578 -2.9375 Q38.5625 -3.25 38.1484 -3.5078 Q37.7344 -3.7656 36.7031 -4.2031 Q35.8125 -4.5781 35.2734 -4.9297 Q34.7344 -5.2812 34.4297 -5.7578 Q34.125 -6.2344 34.125 -6.8906 Q34.125 -7.7031 34.5625 -8.2891 Q35 -8.875 35.8203 -9.1875 Q36.6406 -9.5 37.7344 -9.5 Q38.375 -9.5 38.9766 -9.4375 Q39.5781 -9.375 40.4844 -9.1875 L40.4844 -7.2031 ZM49.4844 -7.2031 L48.5469 -7.2031 Q48.3438 -7.7812 48.0469 -8.1172 Q47.75 -8.4531 47.3828 -8.5938 Q47.0156 -8.7344 46.4688 -8.7344 Q45.6875 -8.7344 45.2266 -8.3672 Q44.7656 -8 44.7656 -7.3594 Q44.7656 -6.9219 44.9531 -6.625 Q45.1406 -6.3281 45.5312 -6.0781 Q45.9219 -5.8281 46.9062 -5.4062 Q47.9062 -4.9688 48.4453 -4.6094 Q48.9844 -4.25 49.2891 -3.7734 Q49.5938 -3.2969 49.5938 -2.625 Q49.5938 -1.8594 49.3359 -1.3281 Q49.0781 -0.7969 48.5938 -0.4688 Q48.1094 -0.1406 47.4531 0.0078 Q46.7969 0.1562 46.0156 0.1562 Q45.1875 0.1562 44.4219 0.0312 Q43.6562 -0.0938 42.9219 -0.2812 L42.9219 -2.3281 L43.875 -2.3281 Q44.1406 -1.4219 44.6562 -1.0156 Q45.1719 -0.6094 46.0781 -0.6094 Q46.4375 -0.6094 46.7734 -0.6875 Q47.1094 -0.7656 47.375 -0.9375 Q47.6406 -1.1094 47.7969 -1.3984 Q47.9531 -1.6875 47.9531 -2.125 Q47.9531 -2.625 47.7578 -2.9375 Q47.5625 -3.25 47.1484 -3.5078 Q46.7344 -3.7656 45.7031 -4.2031 Q44.8125 -4.5781 44.2734 -4.9297 Q43.7344 -5.2812 43.4297 -5.7578 Q43.125 -6.2344 43.125 -6.8906 Q43.125 -7.7031 43.5625 -8.2891 Q44 -8.875 44.8203 -9.1875 Q45.6406 -9.5 46.7344 -9.5 Q47.375 -9.5 47.9766 -9.4375 Q48.5781 -9.375 49.4844 -9.1875 L49.4844 -7.2031 ZM54.7344 -13.1719 L54.7344 -11.2656 L52.9375 -11.2656 L52.9375 -13.1719 L54.7344 -13.1719 ZM51.9531 -0.4844 Q52.3281 -0.5938 52.4922 -0.6797 Q52.6562 -0.7656 52.7656 -0.9219 Q52.875 -1.0781 52.9375 -1.4062 Q53 -1.7344 53 -2.4062 L53 -6.6719 Q53 -7.2969 52.9844 -7.6797 Q52.9688 -8.0625 52.8516 -8.2891 Q52.7344 -8.5156 52.4922 -8.625 Q52.25 -8.7344 51.8125 -8.8125 L51.8125 -9.3438 L54.0938 -9.4219 L54.6875 -9.4219 L54.6875 -2.4375 Q54.6875 -1.6094 54.7656 -1.2812 Q54.8438 -0.9531 55.0625 -0.7812 Q55.2812 -0.6094 55.7812 -0.4844 L55.7812 0 L51.9531 0 L51.9531 -0.4844 ZM61.1719 -9.3438 L61.1719 -8.8594 Q60.7188 -8.75 60.5312 -8.6562 Q60.3438 -8.5625 60.2578 -8.4062 Q60.1719 -8.25 60.1719 -7.9844 Q60.1719 -7.7188 60.2344 -7.4297 Q60.2969 -7.1406 60.4219 -6.7656 L62.125 -1.8125 L64.125 -6.5469 Q64.3125 -7.0156 64.3906 -7.3203 Q64.4688 -7.625 64.4688 -7.8906 Q64.4688 -8.2969 64.25 -8.5156 Q64.0312 -8.7344 63.4531 -8.8594 L63.4531 -9.3438 L67.0938 -9.3438 L67.0938 -8.8594 Q66.7188 -8.7812 66.5156 -8.6172 Q66.3125 -8.4531 66.1016 -8.1094 Q65.8906 -7.7656 65.6094 -7.1406 L62.3281 0.0938 L61.1719 0.0938 L58.5312 -7.2031 Q58.25 -7.9531 58.0859 -8.2266 Q57.9219 -8.5 57.7344 -8.6406 Q57.5469 -8.7812 57.1875 -8.8594 L57.1875 -9.3438 L61.1719 -9.3438 ZM70.7344 -13.1719 L70.7344 -11.2656 L68.9375 -11.2656 L68.9375 -13.1719 L70.7344 -13.1719 ZM67.9531 -0.4844 Q68.3281 -0.5938 68.4922 -0.6797 Q68.6562 -0.7656 68.7656 -0.9219 Q68.875 -1.0781 68.9375 -1.4062 Q69 -1.7344 69 -2.4062 L69 -6.6719 Q69 -7.2969 68.9844 -7.6797 Q68.9688 -8.0625 68.8516 -8.2891 Q68.7344 -8.5156 68.4922 -8.625 Q68.25 -8.7344 67.8125 -8.8125 L67.8125 -9.3438 L70.0938 -9.4219 L70.6875 -9.4219 L70.6875 -2.4375 Q70.6875 -1.6094 70.7656 -1.2812 Q70.8438 -0.9531 71.0625 -0.7812 Q71.2812 -0.6094 71.7812 -0.4844 L71.7812 0 L67.9531 0 L67.9531 -0.4844 ZM73.3594 -8.8438 Q73.8438 -8.9219 74.1484 -9.1172 Q74.4531 -9.3125 74.625 -9.625 Q74.7969 -9.9375 74.8984 -10.3984 Q75 -10.8594 75.0938 -11.75 L76.4844 -11.75 L76.4844 -9.3438 L79.6406 -9.3438 L79.6406 -8.3438 L76.4844 -8.3438 L76.4844 -4 Q76.4844 -3.0625 76.5625 -2.5 Q76.6406 -1.9375 76.8594 -1.6172 Q77.0781 -1.2969 77.3516 -1.1641 Q77.625 -1.0312 78.0469 -1.0312 Q78.4375 -1.0312 78.7812 -1.1875 Q79.125 -1.3438 79.4531 -1.6562 L79.8906 -1.125 Q79.2031 -0.4531 78.5859 -0.1484 Q77.9688 0.1562 77.2969 0.1562 Q76.0312 0.1562 75.4219 -0.5938 Q74.8125 -1.3438 74.8125 -2.9375 L74.8125 -8.3438 L73.3594 -8.3438 L73.3594 -8.8438 ZM85.0781 0.7969 Q84.5469 2.0156 84.0391 2.7656 Q83.5312 3.5156 82.9219 3.8984 Q82.3125 4.2812 81.4688 4.2812 Q80.9219 4.2812 80.25 4.1562 L80.25 2.2188 L81.125 2.2188 Q81.2344 2.625 81.4141 2.7812 Q81.5938 2.9375 81.9219 2.9375 Q82.2188 2.9375 82.4453 2.8203 Q82.6719 2.7031 82.9219 2.4297 Q83.1719 2.1562 83.5078 1.5938 Q83.8438 1.0312 84.2656 0.1562 L81.5312 -7.2031 Q81.2656 -7.9062 81.1094 -8.1953 Q80.9531 -8.4844 80.7656 -8.625 Q80.5781 -8.7656 80.2031 -8.8594 L80.2031 -9.3438 L84.1719 -9.3438 L84.1719 -8.8594 Q83.7188 -8.75 83.5312 -8.6484 Q83.3438 -8.5469 83.2578 -8.3828 Q83.1719 -8.2188 83.1719 -7.9688 Q83.1719 -7.7031 83.2344 -7.4219 Q83.2969 -7.1406 83.4219 -6.7656 L85.1719 -1.8594 L87.125 -6.5469 Q87.2812 -6.9375 87.375 -7.2656 Q87.4688 -7.5938 87.4688 -7.875 Q87.4688 -8.2969 87.2422 -8.5156 Q87.0156 -8.7344 86.4531 -8.8594 L86.4531 -9.3438 L90.0938 -9.3438 L90.0938 -8.8594 Q89.7188 -8.7812 89.5156 -8.6172 Q89.3125 -8.4531 89.1016 -8.1094 Q88.8906 -7.7656 88.6094 -7.1406 L85.0781 0.7969 ZM100.5938 -1.3906 L100.4531 -1.4375 Q99.5938 -0.5625 98.8516 -0.2031 Q98.1094 0.1562 97.2656 0.1562 Q96.5156 0.1562 95.9531 -0.1328 Q95.3906 -0.4219 95.0859 -0.9453 Q94.7812 -1.4688 94.7812 -2.1562 Q94.7812 -3.5781 96.1953 -4.3516 Q97.6094 -5.125 100.4219 -5.25 L100.4219 -5.8906 Q100.4219 -6.9062 100.2266 -7.4922 Q100.0312 -8.0781 99.6172 -8.3516 Q99.2031 -8.625 98.5 -8.625 Q97.7344 -8.625 97.2656 -8.2266 Q96.7969 -7.8281 96.5625 -7.0156 L95.2969 -7.0156 L95.2969 -8.2969 Q96.2344 -8.7812 96.8594 -9.0078 Q97.4844 -9.2344 98.1094 -9.3672 Q98.7344 -9.5 99.375 -9.5 Q100.3438 -9.5 100.9297 -9.1953 Q101.5156 -8.8906 101.8047 -8.2578 Q102.0938 -7.625 102.0938 -6.3438 L102.0938 -2.9375 Q102.0938 -2.2188 102.1016 -1.9219 Q102.1094 -1.625 102.1641 -1.3672 Q102.2188 -1.1094 102.3125 -0.9609 Q102.4062 -0.8125 102.6016 -0.7031 Q102.7969 -0.5938 103.2188 -0.4844 L103.2188 0 L100.5469 0 L100.5938 -1.3906 ZM100.4219 -4.4531 Q98.4375 -4.4375 97.4531 -3.9297 Q96.4688 -3.4219 96.4688 -2.3906 Q96.4688 -1.8438 96.6953 -1.5156 Q96.9219 -1.1875 97.2656 -1.0703 Q97.6094 -0.9531 98.0781 -0.9531 Q98.7344 -0.9531 99.2812 -1.2734 Q99.8281 -1.5938 100.125 -2.0938 Q100.4219 -2.5938 100.4219 -3.0781 L100.4219 -4.4531 ZM104.3594 -8.8438 Q104.8438 -8.9219 105.1484 -9.1172 Q105.4531 -9.3125 105.625 -9.625 Q105.7969 -9.9375 105.8984 -10.3984 Q106 -10.8594 106.0938 -11.75 L107.4844 -11.75 L107.4844 -9.3438 L110.6406 -9.3438 L110.6406 -8.3438 L107.4844 -8.3438 L107.4844 -4 Q107.4844 -3.0625 107.5625 -2.5 Q107.6406 -1.9375 107.8594 -1.6172 Q108.0781 -1.2969 108.3516 -1.1641 Q108.625 -1.0312 109.0469 -1.0312 Q109.4375 -1.0312 109.7812 -1.1875 Q110.125 -1.3438 110.4531 -1.6562 L110.8906 -1.125 Q110.2031 -0.4531 109.5859 -0.1484 Q108.9688 0.1562 108.2969 0.1562 Q107.0312 0.1562 106.4219 -0.5938 Q105.8125 -1.3438 105.8125 -2.9375 L105.8125 -8.3438 L104.3594 -8.3438 L104.3594 -8.8438 ZM125.4531 0 L121.6094 0 L121.6094 -0.4844 Q122 -0.5938 122.1641 -0.6797 Q122.3281 -0.7656 122.4375 -0.9219 Q122.5469 -1.0781 122.6094 -1.4062 Q122.6719 -1.7344 122.6719 -2.4062 L122.6719 -4.9688 Q122.6719 -5.6406 122.6328 -6.2031 Q122.5938 -6.7656 122.5 -7.1172 Q122.4062 -7.4688 122.2812 -7.6719 Q122.1562 -7.875 121.9688 -8.0156 Q121.7812 -8.1562 121.5469 -8.2422 Q121.3125 -8.3281 120.9375 -8.3281 Q120.5625 -8.3281 120.2188 -8.1719 Q119.875 -8.0156 119.4609 -7.6484 Q119.0469 -7.2812 118.8672 -6.9141 Q118.6875 -6.5469 118.6875 -6.0781 L118.6875 -2.4375 Q118.6875 -1.6094 118.7656 -1.2812 Q118.8438 -0.9531 119.0625 -0.7812 Q119.2812 -0.6094 119.7812 -0.4844 L119.7812 0 L115.9531 0 L115.9531 -0.4844 Q116.3281 -0.5938 116.4922 -0.6797 Q116.6562 -0.7656 116.7656 -0.9219 Q116.875 -1.0781 116.9375 -1.4062 Q117 -1.7344 117 -2.4062 L117 -6.6719 Q117 -7.2969 116.9844 -7.6797 Q116.9688 -8.0625 116.8516 -8.2891 Q116.7344 -8.5156 116.4922 -8.625 Q116.25 -8.7344 115.8125 -8.8125 L115.8125 -9.3438 L118.0938 -9.4219 L118.6875 -9.4219 L118.5781 -7.8281 L118.7188 -7.7969 Q119.4375 -8.5312 119.8828 -8.8438 Q120.3281 -9.1562 120.7812 -9.3281 Q121.2344 -9.5 121.75 -9.5 Q122.2812 -9.5 122.6953 -9.375 Q123.1094 -9.25 123.4219 -8.9922 Q123.7344 -8.7344 123.9453 -8.3594 Q124.1562 -7.9844 124.2578 -7.4609 Q124.3594 -6.9375 124.3594 -6.125 L124.3594 -2.4375 Q124.3594 -1.7656 124.3984 -1.4609 Q124.4375 -1.1562 124.5312 -0.9922 Q124.625 -0.8281 124.8125 -0.7188 Q125 -0.6094 125.4531 -0.4844 L125.4531 0 ZM131.2031 0.1562 Q129.1719 0.1562 128.1016 -1.0391 Q127.0312 -2.2344 127.0312 -4.5781 Q127.0312 -6.1875 127.5938 -7.3047 Q128.1562 -8.4219 129.1328 -8.9609 Q130.1094 -9.5 131.3594 -9.5 Q133.4375 -9.5 134.5156 -8.2891 Q135.5938 -7.0781 135.5938 -4.7969 Q135.5938 -3.1719 135.0547 -2.0625 Q134.5156 -0.9531 133.5312 -0.3984 Q132.5469 0.1562 131.2031 0.1562 ZM128.875 -4.7812 Q128.875 -2.7812 129.5156 -1.6953 Q130.1562 -0.6094 131.3438 -0.6094 Q132 -0.6094 132.4609 -0.9297 Q132.9219 -1.25 133.2031 -1.7891 Q133.4844 -2.3281 133.6172 -3.0312 Q133.75 -3.7344 133.75 -4.5156 Q133.75 -5.9531 133.4297 -6.8984 Q133.1094 -7.8438 132.5625 -8.2891 Q132.0156 -8.7344 131.3125 -8.7344 Q130.125 -8.7344 129.5 -7.7109 Q128.875 -6.6875 128.875 -4.7812 ZM144.5469 -10.6094 Q144.5469 -11.5469 144.5312 -11.9219 Q144.5156 -12.2969 144.4531 -12.5547 Q144.3906 -12.8125 144.2734 -12.9609 Q144.1562 -13.1094 143.9688 -13.1953 Q143.7812 -13.2812 143.2812 -13.375 L143.2812 -13.875 L145.6406 -13.9688 L146.2188 -13.9688 L146.2188 -2.6719 Q146.2188 -1.9062 146.25 -1.5781 Q146.2812 -1.25 146.375 -1.0547 Q146.4688 -0.8594 146.6797 -0.7344 Q146.8906 -0.6094 147.4219 -0.5156 L147.4219 0 L145.1094 0.0938 L144.5312 0.0938 L144.6406 -1.5 L144.5 -1.5469 Q143.8906 -0.8906 143.4375 -0.5625 Q142.9844 -0.2344 142.4688 -0.0391 Q141.9531 0.1562 141.3594 0.1562 Q139.7656 0.1562 138.8984 -1.0625 Q138.0312 -2.2812 138.0312 -4.5781 Q138.0312 -6.1719 138.5938 -7.2891 Q139.1562 -8.4062 140.1172 -8.9531 Q141.0781 -9.5 142.2812 -9.5 Q142.9219 -9.5 143.4531 -9.3984 Q143.9844 -9.2969 144.5469 -9.0625 L144.5469 -10.6094 ZM144.5469 -5.7969 Q144.5469 -6.5469 144.4766 -7.0078 Q144.4062 -7.4688 144.2422 -7.7812 Q144.0781 -8.0938 143.8047 -8.3125 Q143.5312 -8.5312 143.2031 -8.625 Q142.875 -8.7188 142.4219 -8.7188 Q141.1719 -8.7188 140.5156 -7.7188 Q139.8594 -6.7188 139.8594 -4.8438 Q139.8594 -2.9688 140.3984 -1.9922 Q140.9375 -1.0156 142.0312 -1.0156 Q142.4531 -1.0156 142.7422 -1.0859 Q143.0312 -1.1562 143.3047 -1.3203 Q143.5781 -1.4844 143.8594 -1.7656 Q144.1406 -2.0469 144.2734 -2.2812 Q144.4062 -2.5156 144.4766 -2.8203 Q144.5469 -3.125 144.5469 -3.6094 L144.5469 -5.7969 ZM156.75 -1.6562 Q156.125 -1 155.6016 -0.6328 Q155.0781 -0.2656 154.4531 -0.0547 Q153.8281 0.1562 153.0781 0.1562 Q151.0625 0.1562 150.0391 -1.0469 Q149.0156 -2.25 149.0156 -4.6094 Q149.0156 -6.0625 149.5391 -7.1797 Q150.0625 -8.2969 151.0312 -8.8984 Q152 -9.5 153.25 -9.5 Q154.2344 -9.5 154.9297 -9.1875 Q155.625 -8.875 156.0391 -8.3359 Q156.4531 -7.7969 156.6875 -6.9688 Q156.9219 -6.1406 156.9531 -4.8125 L150.7969 -4.8125 L150.7969 -4.6406 Q150.7969 -3.4844 151.0547 -2.7031 Q151.3125 -1.9219 151.9062 -1.4766 Q152.5 -1.0312 153.4375 -1.0312 Q154.2344 -1.0312 154.875 -1.3281 Q155.5156 -1.625 156.1562 -2.2969 L156.75 -1.6562 ZM155.1094 -5.625 Q155.0469 -6.6875 154.8438 -7.3516 Q154.6406 -8.0156 154.2344 -8.375 Q153.8281 -8.7344 153.1562 -8.7344 Q152.1562 -8.7344 151.5547 -7.9297 Q150.9531 -7.125 150.8438 -5.625 L155.1094 -5.625 ZM165.7344 -13.1719 L165.7344 -11.2656 L163.9375 -11.2656 L163.9375 -13.1719 L165.7344 -13.1719 ZM162.9531 -0.4844 Q163.3281 -0.5938 163.4922 -0.6797 Q163.6562 -0.7656 163.7656 -0.9219 Q163.875 -1.0781 163.9375 -1.4062 Q164 -1.7344 164 -2.4062 L164 -6.6719 Q164 -7.2969 163.9844 -7.6797 Q163.9688 -8.0625 163.8516 -8.2891 Q163.7344 -8.5156 163.4922 -8.625 Q163.25 -8.7344 162.8125 -8.8125 L162.8125 -9.3438 L165.0938 -9.4219 L165.6875 -9.4219 L165.6875 -2.4375 Q165.6875 -1.6094 165.7656 -1.2812 Q165.8438 -0.9531 166.0625 -0.7812 Q166.2812 -0.6094 166.7812 -0.4844 L166.7812 0 L162.9531 0 L162.9531 -0.4844 ZM180.75 -1.6562 Q180.125 -1 179.6016 -0.6328 Q179.0781 -0.2656 178.4531 -0.0547 Q177.8281 0.1562 177.0781 0.1562 Q175.0625 0.1562 174.0391 -1.0469 Q173.0156 -2.25 173.0156 -4.6094 Q173.0156 -6.0625 173.5391 -7.1797 Q174.0625 -8.2969 175.0312 -8.8984 Q176 -9.5 177.25 -9.5 Q178.2344 -9.5 178.9297 -9.1875 Q179.625 -8.875 180.0391 -8.3359 Q180.4531 -7.7969 180.6875 -6.9688 Q180.9219 -6.1406 180.9531 -4.8125 L174.7969 -4.8125 L174.7969 -4.6406 Q174.7969 -3.4844 175.0547 -2.7031 Q175.3125 -1.9219 175.9062 -1.4766 Q176.5 -1.0312 177.4375 -1.0312 Q178.2344 -1.0312 178.875 -1.3281 Q179.5156 -1.625 180.1562 -2.2969 L180.75 -1.6562 ZM179.1094 -5.625 Q179.0469 -6.6875 178.8438 -7.3516 Q178.6406 -8.0156 178.2344 -8.375 Q177.8281 -8.7344 177.1562 -8.7344 Q176.1562 -8.7344 175.5547 -7.9297 Q174.9531 -7.125 174.8438 -5.625 L179.1094 -5.625 ZM186.1719 -9.3438 L186.1719 -8.8594 Q185.7188 -8.75 185.5312 -8.6562 Q185.3438 -8.5625 185.2578 -8.4062 Q185.1719 -8.25 185.1719 -7.9844 Q185.1719 -7.7188 185.2344 -7.4297 Q185.2969 -7.1406 185.4219 -6.7656 L187.125 -1.8125 L189.125 -6.5469 Q189.3125 -7.0156 189.3906 -7.3203 Q189.4688 -7.625 189.4688 -7.8906 Q189.4688 -8.2969 189.25 -8.5156 Q189.0312 -8.7344 188.4531 -8.8594 L188.4531 -9.3438 L192.0938 -9.3438 L192.0938 -8.8594 Q191.7188 -8.7812 191.5156 -8.6172 Q191.3125 -8.4531 191.1016 -8.1094 Q190.8906 -7.7656 190.6094 -7.1406 L187.3281 0.0938 L186.1719 0.0938 L183.5312 -7.2031 Q183.25 -7.9531 183.0859 -8.2266 Q182.9219 -8.5 182.7344 -8.6406 Q182.5469 -8.7812 182.1875 -8.8594 L182.1875 -9.3438 L186.1719 -9.3438 ZM198.5938 -1.3906 L198.4531 -1.4375 Q197.5938 -0.5625 196.8516 -0.2031 Q196.1094 0.1562 195.2656 0.1562 Q194.5156 0.1562 193.9531 -0.1328 Q193.3906 -0.4219 193.0859 -0.9453 Q192.7812 -1.4688 192.7812 -2.1562 Q192.7812 -3.5781 194.1953 -4.3516 Q195.6094 -5.125 198.4219 -5.25 L198.4219 -5.8906 Q198.4219 -6.9062 198.2266 -7.4922 Q198.0312 -8.0781 197.6172 -8.3516 Q197.2031 -8.625 196.5 -8.625 Q195.7344 -8.625 195.2656 -8.2266 Q194.7969 -7.8281 194.5625 -7.0156 L193.2969 -7.0156 L193.2969 -8.2969 Q194.2344 -8.7812 194.8594 -9.0078 Q195.4844 -9.2344 196.1094 -9.3672 Q196.7344 -9.5 197.375 -9.5 Q198.3438 -9.5 198.9297 -9.1953 Q199.5156 -8.8906 199.8047 -8.2578 Q200.0938 -7.625 200.0938 -6.3438 L200.0938 -2.9375 Q200.0938 -2.2188 200.1016 -1.9219 Q200.1094 -1.625 200.1641 -1.3672 Q200.2188 -1.1094 200.3125 -0.9609 Q200.4062 -0.8125 200.6016 -0.7031 Q200.7969 -0.5938 201.2188 -0.4844 L201.2188 0 L198.5469 0 L198.5938 -1.3906 ZM198.4219 -4.4531 Q196.4375 -4.4375 195.4531 -3.9297 Q194.4688 -3.4219 194.4688 -2.3906 Q194.4688 -1.8438 194.6953 -1.5156 Q194.9219 -1.1875 195.2656 -1.0703 Q195.6094 -0.9531 196.0781 -0.9531 Q196.7344 -0.9531 197.2812 -1.2734 Q197.8281 -1.5938 198.125 -2.0938 Q198.4219 -2.5938 198.4219 -3.0781 L198.4219 -4.4531 ZM205.5625 -2.4375 Q205.5625 -1.6094 205.6406 -1.2812 Q205.7188 -0.9531 205.9375 -0.7812 Q206.1562 -0.6094 206.6562 -0.4844 L206.6562 0 L202.7656 0 L202.7656 -0.4844 Q203.2656 -0.6094 203.4531 -0.7422 Q203.6406 -0.875 203.7266 -1.0703 Q203.8125 -1.2656 203.8438 -1.5938 Q203.875 -1.9219 203.875 -2.4375 L203.875 -10.6094 Q203.875 -11.5469 203.8594 -11.9219 Q203.8438 -12.2969 203.7812 -12.5547 Q203.7188 -12.8125 203.6094 -12.9609 Q203.5 -13.1094 203.3047 -13.1953 Q203.1094 -13.2812 202.6094 -13.375 L202.6094 -13.875 L204.9688 -13.9688 L205.5625 -13.9688 L205.5625 -2.4375 ZM207.7188 -9.3438 L210.5 -9.3438 L210.5 -4.3594 Q210.5 -3.2188 210.5859 -2.625 Q210.6719 -2.0312 210.8516 -1.7266 Q211.0312 -1.4219 211.3516 -1.2188 Q211.6719 -1.0156 212.2344 -1.0156 Q212.6094 -1.0156 212.9531 -1.1641 Q213.2969 -1.3125 213.7109 -1.6797 Q214.125 -2.0469 214.3047 -2.4062 Q214.4844 -2.7656 214.4844 -3.25 L214.4844 -6.9062 Q214.4844 -7.4688 214.4609 -7.75 Q214.4375 -8.0312 214.3672 -8.2031 Q214.2969 -8.375 214.2031 -8.4766 Q214.1094 -8.5781 213.9375 -8.6719 Q213.7656 -8.7656 213.3906 -8.8594 L213.3906 -9.3438 L216.1719 -9.3438 L216.1719 -2.6719 Q216.1719 -1.9219 216.2031 -1.5859 Q216.2344 -1.25 216.3281 -1.0547 Q216.4219 -0.8594 216.625 -0.7344 Q216.8281 -0.6094 217.3594 -0.5156 L217.3594 0 L215.125 0.0938 L214.5312 0.0938 L214.5938 -1.5 L214.4375 -1.5469 Q213.625 -0.6719 212.8906 -0.2578 Q212.1562 0.1562 211.4219 0.1562 Q210.5312 0.1562 209.9531 -0.1953 Q209.375 -0.5469 209.0938 -1.2422 Q208.8125 -1.9375 208.8125 -3.2188 L208.8125 -6.9062 Q208.8125 -7.7188 208.75 -8.0312 Q208.6875 -8.3438 208.5 -8.5234 Q208.3125 -8.7031 207.7188 -8.8594 L207.7188 -9.3438 ZM224.5938 -1.3906 L224.4531 -1.4375 Q223.5938 -0.5625 222.8516 -0.2031 Q222.1094 0.1562 221.2656 0.1562 Q220.5156 0.1562 219.9531 -0.1328 Q219.3906 -0.4219 219.0859 -0.9453 Q218.7812 -1.4688 218.7812 -2.1562 Q218.7812 -3.5781 220.1953 -4.3516 Q221.6094 -5.125 224.4219 -5.25 L224.4219 -5.8906 Q224.4219 -6.9062 224.2266 -7.4922 Q224.0312 -8.0781 223.6172 -8.3516 Q223.2031 -8.625 222.5 -8.625 Q221.7344 -8.625 221.2656 -8.2266 Q220.7969 -7.8281 220.5625 -7.0156 L219.2969 -7.0156 L219.2969 -8.2969 Q220.2344 -8.7812 220.8594 -9.0078 Q221.4844 -9.2344 222.1094 -9.3672 Q222.7344 -9.5 223.375 -9.5 Q224.3438 -9.5 224.9297 -9.1953 Q225.5156 -8.8906 225.8047 -8.2578 Q226.0938 -7.625 226.0938 -6.3438 L226.0938 -2.9375 Q226.0938 -2.2188 226.1016 -1.9219 Q226.1094 -1.625 226.1641 -1.3672 Q226.2188 -1.1094 226.3125 -0.9609 Q226.4062 -0.8125 226.6016 -0.7031 Q226.7969 -0.5938 227.2188 -0.4844 L227.2188 0 L224.5469 0 L224.5938 -1.3906 ZM224.4219 -4.4531 Q222.4375 -4.4375 221.4531 -3.9297 Q220.4688 -3.4219 220.4688 -2.3906 Q220.4688 -1.8438 220.6953 -1.5156 Q220.9219 -1.1875 221.2656 -1.0703 Q221.6094 -0.9531 222.0781 -0.9531 Q222.7344 -0.9531 223.2812 -1.2734 Q223.8281 -1.5938 224.125 -2.0938 Q224.4219 -2.5938 224.4219 -3.0781 L224.4219 -4.4531 ZM228.3594 -8.8438 Q228.8438 -8.9219 229.1484 -9.1172 Q229.4531 -9.3125 229.625 -9.625 Q229.7969 -9.9375 229.8984 -10.3984 Q230 -10.8594 230.0938 -11.75 L231.4844 -11.75 L231.4844 -9.3438 L234.6406 -9.3438 L234.6406 -8.3438 L231.4844 -8.3438 L231.4844 -4 Q231.4844 -3.0625 231.5625 -2.5 Q231.6406 -1.9375 231.8594 -1.6172 Q232.0781 -1.2969 232.3516 -1.1641 Q232.625 -1.0312 233.0469 -1.0312 Q233.4375 -1.0312 233.7812 -1.1875 Q234.125 -1.3438 234.4531 -1.6562 L234.8906 -1.125 Q234.2031 -0.4531 233.5859 -0.1484 Q232.9688 0.1562 232.2969 0.1562 Q231.0312 0.1562 230.4219 -0.5938 Q229.8125 -1.3438 229.8125 -2.9375 L229.8125 -8.3438 L228.3594 -8.3438 L228.3594 -8.8438 ZM243.75 -1.6562 Q243.125 -1 242.6016 -0.6328 Q242.0781 -0.2656 241.4531 -0.0547 Q240.8281 0.1562 240.0781 0.1562 Q238.0625 0.1562 237.0391 -1.0469 Q236.0156 -2.25 236.0156 -4.6094 Q236.0156 -6.0625 236.5391 -7.1797 Q237.0625 -8.2969 238.0312 -8.8984 Q239 -9.5 240.25 -9.5 Q241.2344 -9.5 241.9297 -9.1875 Q242.625 -8.875 243.0391 -8.3359 Q243.4531 -7.7969 243.6875 -6.9688 Q243.9219 -6.1406 243.9531 -4.8125 L237.7969 -4.8125 L237.7969 -4.6406 Q237.7969 -3.4844 238.0547 -2.7031 Q238.3125 -1.9219 238.9062 -1.4766 Q239.5 -1.0312 240.4375 -1.0312 Q241.2344 -1.0312 241.875 -1.3281 Q242.5156 -1.625 243.1562 -2.2969 L243.75 -1.6562 ZM242.1094 -5.625 Q242.0469 -6.6875 241.8438 -7.3516 Q241.6406 -8.0156 241.2344 -8.375 Q240.8281 -8.7344 240.1562 -8.7344 Q239.1562 -8.7344 238.5547 -7.9297 Q237.9531 -7.125 237.8438 -5.625 L242.1094 -5.625 ZM252.5469 -10.6094 Q252.5469 -11.5469 252.5312 -11.9219 Q252.5156 -12.2969 252.4531 -12.5547 Q252.3906 -12.8125 252.2734 -12.9609 Q252.1562 -13.1094 251.9688 -13.1953 Q251.7812 -13.2812 251.2812 -13.375 L251.2812 -13.875 L253.6406 -13.9688 L254.2188 -13.9688 L254.2188 -2.6719 Q254.2188 -1.9062 254.25 -1.5781 Q254.2812 -1.25 254.375 -1.0547 Q254.4688 -0.8594 254.6797 -0.7344 Q254.8906 -0.6094 255.4219 -0.5156 L255.4219 0 L253.1094 0.0938 L252.5312 0.0938 L252.6406 -1.5 L252.5 -1.5469 Q251.8906 -0.8906 251.4375 -0.5625 Q250.9844 -0.2344 250.4688 -0.0391 Q249.9531 0.1562 249.3594 0.1562 Q247.7656 0.1562 246.8984 -1.0625 Q246.0312 -2.2812 246.0312 -4.5781 Q246.0312 -6.1719 246.5938 -7.2891 Q247.1562 -8.4062 248.1172 -8.9531 Q249.0781 -9.5 250.2812 -9.5 Q250.9219 -9.5 251.4531 -9.3984 Q251.9844 -9.2969 252.5469 -9.0625 L252.5469 -10.6094 ZM252.5469 -5.7969 Q252.5469 -6.5469 252.4766 -7.0078 Q252.4062 -7.4688 252.2422 -7.7812 Q252.0781 -8.0938 251.8047 -8.3125 Q251.5312 -8.5312 251.2031 -8.625 Q250.875 -8.7188 250.4219 -8.7188 Q249.1719 -8.7188 248.5156 -7.7188 Q247.8594 -6.7188 247.8594 -4.8438 Q247.8594 -2.9688 248.3984 -1.9922 Q248.9375 -1.0156 250.0312 -1.0156 Q250.4531 -1.0156 250.7422 -1.0859 Q251.0312 -1.1562 251.3047 -1.3203 Q251.5781 -1.4844 251.8594 -1.7656 Q252.1406 -2.0469 252.2734 -2.2812 Q252.4062 -2.5156 252.4766 -2.8203 Q252.5469 -3.125 252.5469 -3.6094 L252.5469 -5.7969 ZM266.5938 -1.3906 L266.4531 -1.4375 Q265.5938 -0.5625 264.8516 -0.2031 Q264.1094 0.1562 263.2656 0.1562 Q262.5156 0.1562 261.9531 -0.1328 Q261.3906 -0.4219 261.0859 -0.9453 Q260.7812 -1.4688 260.7812 -2.1562 Q260.7812 -3.5781 262.1953 -4.3516 Q263.6094 -5.125 266.4219 -5.25 L266.4219 -5.8906 Q266.4219 -6.9062 266.2266 -7.4922 Q266.0312 -8.0781 265.6172 -8.3516 Q265.2031 -8.625 264.5 -8.625 Q263.7344 -8.625 263.2656 -8.2266 Q262.7969 -7.8281 262.5625 -7.0156 L261.2969 -7.0156 L261.2969 -8.2969 Q262.2344 -8.7812 262.8594 -9.0078 Q263.4844 -9.2344 264.1094 -9.3672 Q264.7344 -9.5 265.375 -9.5 Q266.3438 -9.5 266.9297 -9.1953 Q267.5156 -8.8906 267.8047 -8.2578 Q268.0938 -7.625 268.0938 -6.3438 L268.0938 -2.9375 Q268.0938 -2.2188 268.1016 -1.9219 Q268.1094 -1.625 268.1641 -1.3672 Q268.2188 -1.1094 268.3125 -0.9609 Q268.4062 -0.8125 268.6016 -0.7031 Q268.7969 -0.5938 269.2188 -0.4844 L269.2188 0 L266.5469 0 L266.5938 -1.3906 ZM266.4219 -4.4531 Q264.4375 -4.4375 263.4531 -3.9297 Q262.4688 -3.4219 262.4688 -2.3906 Q262.4688 -1.8438 262.6953 -1.5156 Q262.9219 -1.1875 263.2656 -1.0703 Q263.6094 -0.9531 264.0781 -0.9531 Q264.7344 -0.9531 265.2812 -1.2734 Q265.8281 -1.5938 266.125 -2.0938 Q266.4219 -2.5938 266.4219 -3.0781 L266.4219 -4.4531 ZM270.3594 -8.8438 Q270.8438 -8.9219 271.1484 -9.1172 Q271.4531 -9.3125 271.625 -9.625 Q271.7969 -9.9375 271.8984 -10.3984 Q272 -10.8594 272.0938 -11.75 L273.4844 -11.75 L273.4844 -9.3438 L276.6406 -9.3438 L276.6406 -8.3438 L273.4844 -8.3438 L273.4844 -4 Q273.4844 -3.0625 273.5625 -2.5 Q273.6406 -1.9375 273.8594 -1.6172 Q274.0781 -1.2969 274.3516 -1.1641 Q274.625 -1.0312 275.0469 -1.0312 Q275.4375 -1.0312 275.7812 -1.1875 Q276.125 -1.3438 276.4531 -1.6562 L276.8906 -1.125 Q276.2031 -0.4531 275.5859 -0.1484 Q274.9688 0.1562 274.2969 0.1562 Q273.0312 0.1562 272.4219 -0.5938 Q271.8125 -1.3438 271.8125 -2.9375 L271.8125 -8.3438 L270.3594 -8.3438 L270.3594 -8.8438 ZM281.3594 -8.8438 Q281.8438 -8.9219 282.1484 -9.1172 Q282.4531 -9.3125 282.625 -9.625 Q282.7969 -9.9375 282.8984 -10.3984 Q283 -10.8594 283.0938 -11.75 L284.4844 -11.75 L284.4844 -9.3438 L287.6406 -9.3438 L287.6406 -8.3438 L284.4844 -8.3438 L284.4844 -4 Q284.4844 -3.0625 284.5625 -2.5 Q284.6406 -1.9375 284.8594 -1.6172 Q285.0781 -1.2969 285.3516 -1.1641 Q285.625 -1.0312 286.0469 -1.0312 Q286.4375 -1.0312 286.7812 -1.1875 Q287.125 -1.3438 287.4531 -1.6562 L287.8906 -1.125 Q287.2031 -0.4531 286.5859 -0.1484 Q285.9688 0.1562 285.2969 0.1562 Q284.0312 0.1562 283.4219 -0.5938 Q282.8125 -1.3438 282.8125 -2.9375 L282.8125 -8.3438 L281.3594 -8.3438 L281.3594 -8.8438 ZM296.75 -1.6562 Q296.125 -1 295.6016 -0.6328 Q295.0781 -0.2656 294.4531 -0.0547 Q293.8281 0.1562 293.0781 0.1562 Q291.0625 0.1562 290.0391 -1.0469 Q289.0156 -2.25 289.0156 -4.6094 Q289.0156 -6.0625 289.5391 -7.1797 Q290.0625 -8.2969 291.0312 -8.8984 Q292 -9.5 293.25 -9.5 Q294.2344 -9.5 294.9297 -9.1875 Q295.625 -8.875 296.0391 -8.3359 Q296.4531 -7.7969 296.6875 -6.9688 Q296.9219 -6.1406 296.9531 -4.8125 L290.7969 -4.8125 L290.7969 -4.6406 Q290.7969 -3.4844 291.0547 -2.7031 Q291.3125 -1.9219 291.9062 -1.4766 Q292.5 -1.0312 293.4375 -1.0312 Q294.2344 -1.0312 294.875 -1.3281 Q295.5156 -1.625 296.1562 -2.2969 L296.75 -1.6562 ZM295.1094 -5.625 Q295.0469 -6.6875 294.8438 -7.3516 Q294.6406 -8.0156 294.2344 -8.375 Q293.8281 -8.7344 293.1562 -8.7344 Q292.1562 -8.7344 291.5547 -7.9297 Q290.9531 -7.125 290.8438 -5.625 L295.1094 -5.625 ZM301.5781 -7.8281 L301.7188 -7.7969 Q302.3125 -8.375 302.6875 -8.6719 Q303.0625 -8.9688 303.4141 -9.1562 Q303.7656 -9.3438 304.0703 -9.4219 Q304.375 -9.5 304.7031 -9.5 Q305.6719 -9.5 306.2891 -9.0469 Q306.9062 -8.5938 307.1406 -7.6719 Q307.875 -8.4062 308.3281 -8.7578 Q308.7812 -9.1094 309.2578 -9.3047 Q309.7344 -9.5 310.2812 -9.5 Q310.9375 -9.5 311.4062 -9.3047 Q311.875 -9.1094 312.2031 -8.7188 Q312.5312 -8.3281 312.6797 -7.7266 Q312.8281 -7.125 312.8281 -6.125 L312.8281 -2.4375 Q312.8281 -1.7031 312.8828 -1.4219 Q312.9375 -1.1406 313.0312 -0.9844 Q313.125 -0.8281 313.3047 -0.7109 Q313.4844 -0.5938 313.9219 -0.4844 L313.9219 0 L310.0938 0 L310.0938 -0.4844 Q310.4688 -0.5938 310.6328 -0.6797 Q310.7969 -0.7656 310.9141 -0.9219 Q311.0312 -1.0781 311.0938 -1.4062 Q311.1562 -1.7344 311.1562 -2.4062 L311.1562 -4.9688 Q311.1562 -5.7969 311.1094 -6.3359 Q311.0625 -6.875 310.9688 -7.1953 Q310.875 -7.5156 310.75 -7.7031 Q310.625 -7.8906 310.4531 -8.0312 Q310.2812 -8.1719 310.0625 -8.25 Q309.8438 -8.3281 309.4688 -8.3281 Q309.0781 -8.3281 308.7422 -8.1719 Q308.4062 -8.0156 308.0078 -7.6406 Q307.6094 -7.2656 307.4375 -6.8906 Q307.2656 -6.5156 307.2656 -6 L307.2656 -2.4375 Q307.2656 -1.7031 307.3125 -1.4219 Q307.3594 -1.1406 307.4531 -0.9844 Q307.5469 -0.8281 307.7266 -0.7109 Q307.9062 -0.5938 308.3594 -0.4844 L308.3594 0 L304.5156 0 L304.5156 -0.4844 Q304.8906 -0.5938 305.0625 -0.6797 Q305.2344 -0.7656 305.3438 -0.9219 Q305.4531 -1.0781 305.5156 -1.4062 Q305.5781 -1.7344 305.5781 -2.4062 L305.5781 -4.9688 Q305.5781 -5.8281 305.5312 -6.375 Q305.4844 -6.9219 305.3828 -7.2578 Q305.2812 -7.5938 305.1172 -7.7969 Q304.9531 -8 304.7891 -8.1094 Q304.625 -8.2188 304.3984 -8.2734 Q304.1719 -8.3281 303.8906 -8.3281 Q303.4844 -8.3281 303.1328 -8.1406 Q302.7812 -7.9531 302.4141 -7.6172 Q302.0469 -7.2812 301.8672 -6.9062 Q301.6875 -6.5312 301.6875 -6.1094 L301.6875 -2.4375 Q301.6875 -1.8906 301.7109 -1.5938 Q301.7344 -1.2969 301.8047 -1.1328 Q301.875 -0.9688 301.9688 -0.8672 Q302.0625 -0.7656 302.2422 -0.6719 Q302.4219 -0.5781 302.7812 -0.4844 L302.7812 0 L298.9531 0 L298.9531 -0.4844 Q299.3281 -0.5938 299.4922 -0.6797 Q299.6562 -0.7656 299.7734 -0.9219 Q299.8906 -1.0781 299.9453 -1.4062 Q300 -1.7344 300 -2.4062 L300 -6.6719 Q300 -7.2969 299.9844 -7.6797 Q299.9688 -8.0625 299.8516 -8.2891 Q299.7344 -8.5156 299.4922 -8.625 Q299.25 -8.7344 298.8125 -8.8125 L298.8125 -9.3438 L301.0938 -9.4219 L301.6875 -9.4219 L301.5781 -7.8281 ZM318.5938 -0.2969 L318.5938 1.7656 Q318.5938 2.4062 318.6406 2.7188 Q318.6875 3.0312 318.7969 3.2109 Q318.9062 3.3906 319.1172 3.5078 Q319.3281 3.625 319.7969 3.7188 L319.7969 4.2031 L315.8125 4.2031 L315.8125 3.7188 Q316.1562 3.625 316.3828 3.5234 Q316.6094 3.4219 316.7266 3.2188 Q316.8438 3.0156 316.8828 2.6719 Q316.9219 2.3281 316.9219 1.7656 L316.9219 -6.6094 Q316.9219 -7.3125 316.8984 -7.6094 Q316.875 -7.9062 316.8203 -8.1016 Q316.7656 -8.2969 316.6484 -8.4297 Q316.5312 -8.5625 316.3438 -8.6484 Q316.1562 -8.7344 315.7188 -8.8125 L315.7188 -9.3438 L318.0156 -9.4219 L318.6094 -9.4219 L318.4844 -7.8281 L318.625 -7.7969 Q319.2344 -8.4062 319.5859 -8.6875 Q319.9375 -8.9688 320.3125 -9.1562 Q320.6875 -9.3438 321.0312 -9.4219 Q321.375 -9.5 321.7656 -9.5 Q323.375 -9.5 324.2422 -8.2891 Q325.1094 -7.0781 325.1094 -4.75 Q325.1094 -3.1406 324.6172 -2.0469 Q324.125 -0.9531 323.1953 -0.3984 Q322.2656 0.1562 320.9844 0.1562 Q320.25 0.1562 319.6641 0.0312 Q319.0781 -0.0938 318.5938 -0.2969 ZM318.5938 -3.5156 Q318.5938 -2.5781 318.7109 -2.0703 Q318.8281 -1.5625 319.125 -1.2422 Q319.4219 -0.9219 319.8281 -0.7656 Q320.2344 -0.6094 320.9062 -0.6094 Q322.0781 -0.6094 322.6719 -1.5938 Q323.2656 -2.5781 323.2656 -4.5 Q323.2656 -8.3281 321.0312 -8.3281 Q320.4844 -8.3281 320.0938 -8.1562 Q319.7031 -7.9844 319.3125 -7.6016 Q318.9219 -7.2188 318.7578 -6.8594 Q318.5938 -6.5 318.5938 -6.0938 L318.5938 -3.5156 ZM334.75 -1.6562 Q334.125 -1 333.6016 -0.6328 Q333.0781 -0.2656 332.4531 -0.0547 Q331.8281 0.1562 331.0781 0.1562 Q329.0625 0.1562 328.0391 -1.0469 Q327.0156 -2.25 327.0156 -4.6094 Q327.0156 -6.0625 327.5391 -7.1797 Q328.0625 -8.2969 329.0312 -8.8984 Q330 -9.5 331.25 -9.5 Q332.2344 -9.5 332.9297 -9.1875 Q333.625 -8.875 334.0391 -8.3359 Q334.4531 -7.7969 334.6875 -6.9688 Q334.9219 -6.1406 334.9531 -4.8125 L328.7969 -4.8125 L328.7969 -4.6406 Q328.7969 -3.4844 329.0547 -2.7031 Q329.3125 -1.9219 329.9062 -1.4766 Q330.5 -1.0312 331.4375 -1.0312 Q332.2344 -1.0312 332.875 -1.3281 Q333.5156 -1.625 334.1562 -2.2969 L334.75 -1.6562 ZM333.1094 -5.625 Q333.0469 -6.6875 332.8438 -7.3516 Q332.6406 -8.0156 332.2344 -8.375 Q331.8281 -8.7344 331.1562 -8.7344 Q330.1562 -8.7344 329.5547 -7.9297 Q328.9531 -7.125 328.8438 -5.625 L333.1094 -5.625 ZM339.5781 -7.7188 L339.7188 -7.6875 Q340.2656 -8.3438 340.7188 -8.7188 Q341.1719 -9.0938 341.7031 -9.2969 Q342.2344 -9.5 342.9219 -9.5 Q343.4844 -9.5 343.9375 -9.4375 L343.9375 -7.2031 L342.8438 -7.2031 Q342.6094 -7.7188 342.3438 -7.9609 Q342.0781 -8.2031 341.6094 -8.2031 Q341.2656 -8.2031 340.9219 -8 Q340.5781 -7.7969 340.25 -7.4062 Q339.9219 -7.0156 339.8047 -6.6719 Q339.6875 -6.3281 339.6875 -5.8594 L339.6875 -2.4375 Q339.6875 -1.5469 339.7891 -1.2109 Q339.8906 -0.875 340.1406 -0.7188 Q340.3906 -0.5625 340.8906 -0.4844 L340.8906 0 L336.9531 0 L336.9531 -0.4844 Q337.3281 -0.5938 337.4922 -0.6797 Q337.6562 -0.7656 337.7734 -0.9219 Q337.8906 -1.0781 337.9453 -1.4062 Q338 -1.7344 338 -2.4062 L338 -6.6719 Q338 -7.2969 337.9844 -7.6797 Q337.9688 -8.0625 337.8516 -8.2891 Q337.7344 -8.5156 337.4922 -8.625 Q337.25 -8.7344 336.8125 -8.8125 L336.8125 -9.3281 L339.0938 -9.4219 L339.6875 -9.4219 L339.5781 -7.7188 ZM350.5938 -1.3906 L350.4531 -1.4375 Q349.5938 -0.5625 348.8516 -0.2031 Q348.1094 0.1562 347.2656 0.1562 Q346.5156 0.1562 345.9531 -0.1328 Q345.3906 -0.4219 345.0859 -0.9453 Q344.7812 -1.4688 344.7812 -2.1562 Q344.7812 -3.5781 346.1953 -4.3516 Q347.6094 -5.125 350.4219 -5.25 L350.4219 -5.8906 Q350.4219 -6.9062 350.2266 -7.4922 Q350.0312 -8.0781 349.6172 -8.3516 Q349.2031 -8.625 348.5 -8.625 Q347.7344 -8.625 347.2656 -8.2266 Q346.7969 -7.8281 346.5625 -7.0156 L345.2969 -7.0156 L345.2969 -8.2969 Q346.2344 -8.7812 346.8594 -9.0078 Q347.4844 -9.2344 348.1094 -9.3672 Q348.7344 -9.5 349.375 -9.5 Q350.3438 -9.5 350.9297 -9.1953 Q351.5156 -8.8906 351.8047 -8.2578 Q352.0938 -7.625 352.0938 -6.3438 L352.0938 -2.9375 Q352.0938 -2.2188 352.1016 -1.9219 Q352.1094 -1.625 352.1641 -1.3672 Q352.2188 -1.1094 352.3125 -0.9609 Q352.4062 -0.8125 352.6016 -0.7031 Q352.7969 -0.5938 353.2188 -0.4844 L353.2188 0 L350.5469 0 L350.5938 -1.3906 ZM350.4219 -4.4531 Q348.4375 -4.4375 347.4531 -3.9297 Q346.4688 -3.4219 346.4688 -2.3906 Q346.4688 -1.8438 346.6953 -1.5156 Q346.9219 -1.1875 347.2656 -1.0703 Q347.6094 -0.9531 348.0781 -0.9531 Q348.7344 -0.9531 349.2812 -1.2734 Q349.8281 -1.5938 350.125 -2.0938 Q350.4219 -2.5938 350.4219 -3.0781 L350.4219 -4.4531 ZM354.3594 -8.8438 Q354.8438 -8.9219 355.1484 -9.1172 Q355.4531 -9.3125 355.625 -9.625 Q355.7969 -9.9375 355.8984 -10.3984 Q356 -10.8594 356.0938 -11.75 L357.4844 -11.75 L357.4844 -9.3438 L360.6406 -9.3438 L360.6406 -8.3438 L357.4844 -8.3438 L357.4844 -4 Q357.4844 -3.0625 357.5625 -2.5 Q357.6406 -1.9375 357.8594 -1.6172 Q358.0781 -1.2969 358.3516 -1.1641 Q358.625 -1.0312 359.0469 -1.0312 Q359.4375 -1.0312 359.7812 -1.1875 Q360.125 -1.3438 360.4531 -1.6562 L360.8906 -1.125 Q360.2031 -0.4531 359.5859 -0.1484 Q358.9688 0.1562 358.2969 0.1562 Q357.0312 0.1562 356.4219 -0.5938 Q355.8125 -1.3438 355.8125 -2.9375 L355.8125 -8.3438 L354.3594 -8.3438 L354.3594 -8.8438 ZM361.7188 -9.3438 L364.5 -9.3438 L364.5 -4.3594 Q364.5 -3.2188 364.5859 -2.625 Q364.6719 -2.0312 364.8516 -1.7266 Q365.0312 -1.4219 365.3516 -1.2188 Q365.6719 -1.0156 366.2344 -1.0156 Q366.6094 -1.0156 366.9531 -1.1641 Q367.2969 -1.3125 367.7109 -1.6797 Q368.125 -2.0469 368.3047 -2.4062 Q368.4844 -2.7656 368.4844 -3.25 L368.4844 -6.9062 Q368.4844 -7.4688 368.4609 -7.75 Q368.4375 -8.0312 368.3672 -8.2031 Q368.2969 -8.375 368.2031 -8.4766 Q368.1094 -8.5781 367.9375 -8.6719 Q367.7656 -8.7656 367.3906 -8.8594 L367.3906 -9.3438 L370.1719 -9.3438 L370.1719 -2.6719 Q370.1719 -1.9219 370.2031 -1.5859 Q370.2344 -1.25 370.3281 -1.0547 Q370.4219 -0.8594 370.625 -0.7344 Q370.8281 -0.6094 371.3594 -0.5156 L371.3594 0 L369.125 0.0938 L368.5312 0.0938 L368.5938 -1.5 L368.4375 -1.5469 Q367.625 -0.6719 366.8906 -0.2578 Q366.1562 0.1562 365.4219 0.1562 Q364.5312 0.1562 363.9531 -0.1953 Q363.375 -0.5469 363.0938 -1.2422 Q362.8125 -1.9375 362.8125 -3.2188 L362.8125 -6.9062 Q362.8125 -7.7188 362.75 -8.0312 Q362.6875 -8.3438 362.5 -8.5234 Q362.3125 -8.7031 361.7188 -8.8594 L361.7188 -9.3438 ZM375.5781 -7.7188 L375.7188 -7.6875 Q376.2656 -8.3438 376.7188 -8.7188 Q377.1719 -9.0938 377.7031 -9.2969 Q378.2344 -9.5 378.9219 -9.5 Q379.4844 -9.5 379.9375 -9.4375 L379.9375 -7.2031 L378.8438 -7.2031 Q378.6094 -7.7188 378.3438 -7.9609 Q378.0781 -8.2031 377.6094 -8.2031 Q377.2656 -8.2031 376.9219 -8 Q376.5781 -7.7969 376.25 -7.4062 Q375.9219 -7.0156 375.8047 -6.6719 Q375.6875 -6.3281 375.6875 -5.8594 L375.6875 -2.4375 Q375.6875 -1.5469 375.7891 -1.2109 Q375.8906 -0.875 376.1406 -0.7188 Q376.3906 -0.5625 376.8906 -0.4844 L376.8906 0 L372.9531 0 L372.9531 -0.4844 Q373.3281 -0.5938 373.4922 -0.6797 Q373.6562 -0.7656 373.7734 -0.9219 Q373.8906 -1.0781 373.9453 -1.4062 Q374 -1.7344 374 -2.4062 L374 -6.6719 Q374 -7.2969 373.9844 -7.6797 Q373.9688 -8.0625 373.8516 -8.2891 Q373.7344 -8.5156 373.4922 -8.625 Q373.25 -8.7344 372.8125 -8.8125 L372.8125 -9.3281 L375.0938 -9.4219 L375.6875 -9.4219 L375.5781 -7.7188 ZM388.75 -1.6562 Q388.125 -1 387.6016 -0.6328 Q387.0781 -0.2656 386.4531 -0.0547 Q385.8281 0.1562 385.0781 0.1562 Q383.0625 0.1562 382.0391 -1.0469 Q381.0156 -2.25 381.0156 -4.6094 Q381.0156 -6.0625 381.5391 -7.1797 Q382.0625 -8.2969 383.0312 -8.8984 Q384 -9.5 385.25 -9.5 Q386.2344 -9.5 386.9297 -9.1875 Q387.625 -8.875 388.0391 -8.3359 Q388.4531 -7.7969 388.6875 -6.9688 Q388.9219 -6.1406 388.9531 -4.8125 L382.7969 -4.8125 L382.7969 -4.6406 Q382.7969 -3.4844 383.0547 -2.7031 Q383.3125 -1.9219 383.9062 -1.4766 Q384.5 -1.0312 385.4375 -1.0312 Q386.2344 -1.0312 386.875 -1.3281 Q387.5156 -1.625 388.1562 -2.2969 L388.75 -1.6562 ZM387.1094 -5.625 Q387.0469 -6.6875 386.8438 -7.3516 Q386.6406 -8.0156 386.2344 -8.375 Q385.8281 -8.7344 385.1562 -8.7344 Q384.1562 -8.7344 383.5547 -7.9297 Q382.9531 -7.125 382.8438 -5.625 L387.1094 -5.625 Z" stroke="none"/></g><g text-rendering="optimizeLegibility" transform="translate(418.6875,20)" color-rendering="optimizeQuality" color-interpolation="linearRGB" image-rendering="optimizeQuality"><path d="M1.2188 -7.0625 L1.2188 -8.4219 L9.8594 -8.4219 L9.8594 -7.0625 L1.2188 -7.0625 ZM1.2188 -3.0156 L1.2188 -4.3594 L9.8594 -4.3594 L9.8594 -3.0156 L1.2188 -3.0156 Z" stroke="none"/></g><g text-rendering="optimizeLegibility" transform="translate(430.5469,20)" color-rendering="optimizeQuality" color-interpolation="linearRGB" image-rendering="optimizeQuality"><path d="M6.9531 0 L2.8438 0 L2.9531 -0.4844 Q3.3281 -0.5312 3.5156 -0.6328 Q3.7031 -0.7344 3.8438 -0.9375 Q3.9844 -1.1406 4.1328 -1.5781 Q4.2812 -2.0156 4.4688 -2.9062 L6.5625 -12.4688 L5.3281 -12.4688 Q4.7188 -12.4688 4.3594 -12.2969 Q4 -12.125 3.6328 -11.6406 Q3.2656 -11.1562 2.75 -10.0469 L1.8125 -10.0469 L2.5469 -13.3281 L12.75 -13.3281 L11.9844 -9.8906 L11.0469 -9.8906 Q11.0469 -10.8438 11 -11.3125 Q10.9531 -11.7812 10.8125 -12.0312 Q10.6719 -12.2812 10.4766 -12.375 Q10.2812 -12.4688 9.7656 -12.4688 L8.3281 -12.4688 L6.2031 -2.8438 Q6.1094 -2.4688 6.0781 -2.2422 Q6.0469 -2.0156 6.0234 -1.7656 Q6 -1.5156 6 -1.3125 Q6 -1.0156 6.0938 -0.8438 Q6.1875 -0.6719 6.3828 -0.5938 Q6.5781 -0.5156 7.0625 -0.4844 L6.9531 0 Z" stroke="none"/></g><g text-rendering="optimizeLegibility" transform="translate(445.2969,24.6094)" color-rendering="optimizeQuality" color-interpolation="linearRGB" image-rendering="optimizeQuality"><path d="M3.8281 -9.2188 L3.5156 -7.8906 L2.2969 -7.8906 L2.625 -9.2188 L3.8281 -9.2188 ZM2.1406 -1.7031 Q2.0625 -1.3594 2.0469 -1.2031 Q2.0312 -1.0469 2.0312 -0.9375 Q2.0312 -0.7188 2.0938 -0.6094 Q2.1562 -0.5 2.3047 -0.4375 Q2.4531 -0.375 2.7812 -0.3281 L2.7188 0 L0.5938 0 L1.625 -4.6094 Q1.7188 -5 1.75 -5.2344 Q1.7812 -5.4688 1.7812 -5.6406 Q1.7812 -5.8281 1.7266 -5.9375 Q1.6719 -6.0469 1.5312 -6.1016 Q1.3906 -6.1562 1.0625 -6.1719 L1.1406 -6.5312 L2.7969 -6.5938 L3.2031 -6.5938 L2.1406 -1.7031 Z" stroke="none"/></g><g text-rendering="optimizeLegibility" transform="translate(445.1406,10.0469)" color-rendering="optimizeQuality" color-interpolation="linearRGB" image-rendering="optimizeQuality"><path d="M1.7344 0.1094 Q1.5 1.2031 1.0938 1.8516 Q0.6875 2.5 0.1094 2.7812 Q-0.4688 3.0625 -1.2969 3.0625 Q-1.5938 3.0625 -1.8438 2.9844 L-1.6875 2.3906 Q-1.5156 2.4375 -1.2031 2.4375 Q-0.8438 2.4375 -0.6172 2.3438 Q-0.3906 2.25 -0.1953 2.0312 Q0 1.8125 0.1797 1.3984 Q0.3594 0.9844 0.5156 0.3125 L1.9062 -5.8438 L1.0781 -5.8438 L1.1562 -6.1875 Q1.4844 -6.2344 1.625 -6.2891 Q1.7656 -6.3438 1.8516 -6.4453 Q1.9375 -6.5469 2.0078 -6.7266 Q2.0781 -6.9062 2.2031 -7.3438 Q2.5625 -8.5781 3.3203 -9.1953 Q4.0781 -9.8125 5.25 -9.8125 Q5.9062 -9.8125 6.4062 -9.7031 L6.125 -8.5469 L5.5312 -8.5469 Q5.4375 -8.9375 5.2812 -9.1094 Q5.125 -9.2812 4.8281 -9.2812 Q4.4375 -9.2812 4.1641 -9.0703 Q3.8906 -8.8594 3.6953 -8.4297 Q3.5 -8 3.3438 -7.2812 L3.1719 -6.5312 L4.7344 -6.5312 L4.5781 -5.8438 L3.0156 -5.8438 L1.7344 0.1094 Z" stroke="none"/></g></g></svg>