<?xml version="1.0" encoding="UTF-8" standalone="no"?><svg xmlns="http://www.w3.org/2000/svg" xmlns:xlink="http://www.w3.org/1999/xlink" stroke-dasharray="none" shape-rendering="auto" font-family="'Dialog'" width="336.812600" text-rendering="auto" fill-opacity="1" contentScriptType="text/ecmascript" color-interpolation="auto" color-rendering="auto" preserveAspectRatio="xMidYMid meet" font-size="12" fill="black" stroke="black" image-rendering="auto" stroke-miterlimit="10" zoomAndPan="magnify" version="1.0" stroke-linecap="square" stroke-linejoin="miter" contentStyleType="text/css" font-style="normal" height="20" stroke-width="1" stroke-dashoffset="0" font-weight="normal" stroke-opacity="1" y="-5.000000"><!--Converted from MathML using JEuclid--><defs id="genericDefs"/><g><g text-rendering="optimizeLegibility" transform="translate(1.0781,15)" color-rendering="optimizeQuality" color-interpolation="linearRGB" image-rendering="optimizeQuality"><path d="M7.0781 4.2188 Q5.5625 4.2188 4.6797 3.8281 Q3.7969 3.4375 3.4141 2.6641 Q3.0312 1.8906 3.0312 0.5781 L3.0312 -2.25 Q3.0312 -3.1094 2.8125 -3.5938 Q2.5938 -4.0781 2.1562 -4.2734 Q1.7188 -4.4688 0.9219 -4.4688 L0.9219 -5.2812 Q1.7031 -5.2812 2.1484 -5.4766 Q2.5938 -5.6719 2.8125 -6.1484 Q3.0312 -6.625 3.0312 -7.5 L3.0312 -10.3281 Q3.0312 -11.625 3.4141 -12.4062 Q3.7969 -13.1875 4.6797 -13.5781 Q5.5625 -13.9688 7.0781 -13.9688 L7.3281 -13.9688 L7.3281 -13.1719 Q6.5469 -13.1719 6.1641 -13.0938 Q5.7812 -13.0156 5.5391 -12.8438 Q5.2969 -12.6719 5.1406 -12.4141 Q4.9844 -12.1562 4.8984 -11.6875 Q4.8125 -11.2188 4.8125 -10.4375 L4.8125 -8.5469 Q4.8125 -7.5625 4.6406 -6.8984 Q4.4688 -6.2344 4.0312 -5.7578 Q3.5938 -5.2812 2.8281 -4.9688 L2.8281 -4.7812 Q3.5781 -4.4844 4.0312 -3.9844 Q4.4844 -3.4844 4.6484 -2.8203 Q4.8125 -2.1562 4.8125 -1.2031 L4.8125 0.6875 Q4.8125 1.4688 4.8984 1.9375 Q4.9844 2.4062 5.1406 2.6719 Q5.2969 2.9375 5.5391 3.1016 Q5.7812 3.2656 6.1641 3.3438 Q6.5469 3.4219 7.3281 3.4219 L7.3281 4.2188 L7.0781 4.2188 Z" stroke="none"/></g><g text-rendering="optimizeLegibility" transform="translate(10.2344,15)" color-rendering="optimizeQuality" color-interpolation="linearRGB" image-rendering="optimizeQuality"><path d="M15.6719 -14.4531 L15.6719 -13.1406 L9.0312 0.125 L8.375 0.125 L2.1719 -13.1406 L2.1719 -14.4531 L15.6719 -14.4531 ZM14.875 -13.0625 L4.0469 -13.0625 L9.2656 -1.9219 L9.2812 -1.9219 L14.875 -13.0625 Z" stroke="none"/></g><g text-rendering="optimizeLegibility" transform="translate(27.9062,15)" color-rendering="optimizeQuality" color-interpolation="linearRGB" image-rendering="optimizeQuality"><path d="M6.9531 0 L2.8438 0 L2.9531 -0.4844 Q3.3281 -0.5312 3.5156 -0.6328 Q3.7031 -0.7344 3.8438 -0.9375 Q3.9844 -1.1406 4.1328 -1.5781 Q4.2812 -2.0156 4.4688 -2.9062 L6.5625 -12.4688 L5.3281 -12.4688 Q4.7188 -12.4688 4.3594 -12.2969 Q4 -12.125 3.6328 -11.6406 Q3.2656 -11.1562 2.75 -10.0469 L1.8125 -10.0469 L2.5469 -13.3281 L12.75 -13.3281 L11.9844 -9.8906 L11.0469 -9.8906 Q11.0469 -10.8438 11 -11.3125 Q10.9531 -11.7812 10.8125 -12.0312 Q10.6719 -12.2812 10.4766 -12.375 Q10.2812 -12.4688 9.7656 -12.4688 L8.3281 -12.4688 L6.2031 -2.8438 Q6.1094 -2.4688 6.0781 -2.2422 Q6.0469 -2.0156 6.0234 -1.7656 Q6 -1.5156 6 -1.3125 Q6 -1.0156 6.0938 -0.8438 Q6.1875 -0.6719 6.3828 -0.5938 Q6.5781 -0.5156 7.0625 -0.4844 L6.9531 0 Z" stroke="none"/></g><g text-rendering="optimizeLegibility" transform="translate(42.2344,15)" color-rendering="optimizeQuality" color-interpolation="linearRGB" image-rendering="optimizeQuality"><path d="M0.6719 -13.9688 Q2.1875 -13.9688 3.0703 -13.5781 Q3.9531 -13.1875 4.3281 -12.4062 Q4.7031 -11.625 4.7031 -10.3281 L4.7031 -7.5 Q4.7031 -6.625 4.9297 -6.1484 Q5.1562 -5.6719 5.5938 -5.4766 Q6.0312 -5.2812 6.8125 -5.2812 L6.8125 -4.4688 Q6.0312 -4.4688 5.5859 -4.2734 Q5.1406 -4.0781 4.9219 -3.5938 Q4.7031 -3.1094 4.7031 -2.25 L4.7031 0.5781 Q4.7031 1.8906 4.3281 2.6641 Q3.9531 3.4375 3.0703 3.8281 Q2.1875 4.2188 0.6719 4.2188 L0.4219 4.2188 L0.4219 3.4219 Q1.1875 3.4219 1.5781 3.3438 Q1.9688 3.2656 2.2031 3.1016 Q2.4375 2.9375 2.5938 2.6719 Q2.75 2.4062 2.8438 1.9375 Q2.9375 1.4688 2.9375 0.6875 L2.9375 -1.2031 Q2.9375 -2.1875 3.1016 -2.8438 Q3.2656 -3.5 3.7109 -3.9844 Q4.1562 -4.4688 4.9062 -4.7812 L4.9062 -4.9688 Q4.1719 -5.2656 3.7188 -5.7656 Q3.2656 -6.2656 3.1016 -6.9297 Q2.9375 -7.5938 2.9375 -8.5469 L2.9375 -10.4375 Q2.9375 -11.2188 2.8438 -11.6875 Q2.75 -12.1562 2.5938 -12.4141 Q2.4375 -12.6719 2.2031 -12.8438 Q1.9688 -13.0156 1.5781 -13.0938 Q1.1875 -13.1719 0.4219 -13.1719 L0.4219 -13.9688 L0.6719 -13.9688 Z" stroke="none"/></g><g text-rendering="optimizeLegibility" transform="translate(51.8281,15)" color-rendering="optimizeQuality" color-interpolation="linearRGB" image-rendering="optimizeQuality"><path d="M1.2188 -7.0625 L1.2188 -8.4219 L9.8594 -8.4219 L9.8594 -7.0625 L1.2188 -7.0625 ZM1.2188 -3.0156 L1.2188 -4.3594 L9.8594 -4.3594 L9.8594 -3.0156 L1.2188 -3.0156 Z" stroke="none"/></g><g text-rendering="optimizeLegibility" transform="translate(63.6875,15)" color-rendering="optimizeQuality" color-interpolation="linearRGB" image-rendering="optimizeQuality"><path d="M0.3594 -8.8438 Q0.8438 -8.9219 1.1484 -9.1172 Q1.4531 -9.3125 1.625 -9.625 Q1.7969 -9.9375 1.8984 -10.3984 Q2 -10.8594 2.0938 -11.75 L3.4844 -11.75 L3.4844 -9.3438 L6.6406 -9.3438 L6.6406 -8.3438 L3.4844 -8.3438 L3.4844 -4 Q3.4844 -3.0625 3.5625 -2.5 Q3.6406 -1.9375 3.8594 -1.6172 Q4.0781 -1.2969 4.3516 -1.1641 Q4.625 -1.0312 5.0469 -1.0312 Q5.4375 -1.0312 5.7812 -1.1875 Q6.125 -1.3438 6.4531 -1.6562 L6.8906 -1.125 Q6.2031 -0.4531 5.5859 -0.1484 Q4.9688 0.1562 4.2969 0.1562 Q3.0312 0.1562 2.4219 -0.5938 Q1.8125 -1.3438 1.8125 -2.9375 L1.8125 -8.3438 L0.3594 -8.3438 L0.3594 -8.8438 ZM10.5625 -7.7969 L10.6094 -7.7969 Q11.3594 -8.5625 11.8047 -8.875 Q12.25 -9.1875 12.6875 -9.3438 Q13.125 -9.5 13.625 -9.5 Q14.1562 -9.5 14.5781 -9.3672 Q15 -9.2344 15.3203 -8.9766 Q15.6406 -8.7188 15.8359 -8.3438 Q16.0312 -7.9688 16.1328 -7.4453 Q16.2344 -6.9219 16.2344 -6.125 L16.2344 -2.4375 Q16.2344 -1.5938 16.3047 -1.2891 Q16.375 -0.9844 16.5625 -0.8125 Q16.75 -0.6406 17.3281 -0.4844 L17.3281 0 L13.4844 0 L13.4844 -0.4844 Q13.8594 -0.5938 14.0312 -0.6797 Q14.2031 -0.7656 14.3125 -0.9219 Q14.4219 -1.0781 14.4844 -1.4062 Q14.5469 -1.7344 14.5469 -2.4062 L14.5469 -4.9688 Q14.5469 -6.2656 14.4141 -6.9531 Q14.2812 -7.6406 13.8984 -7.9844 Q13.5156 -8.3281 12.8281 -8.3281 Q12.4375 -8.3281 12.125 -8.1875 Q11.8125 -8.0469 11.3984 -7.6953 Q10.9844 -7.3438 10.7734 -6.9766 Q10.5625 -6.6094 10.5625 -6.1875 L10.5625 -2.4375 Q10.5625 -1.7812 10.6016 -1.5 Q10.6406 -1.2188 10.7344 -1.0234 Q10.8281 -0.8281 11.0312 -0.7109 Q11.2344 -0.5938 11.6562 -0.4844 L11.6562 0 L7.7812 0 L7.7812 -0.4844 Q8.2188 -0.5938 8.3984 -0.7031 Q8.5781 -0.8125 8.6797 -0.9766 Q8.7812 -1.1406 8.8359 -1.4531 Q8.8906 -1.7656 8.8906 -2.4375 L8.8906 -10.6094 Q8.8906 -11.5469 8.875 -11.9219 Q8.8594 -12.2969 8.7969 -12.5547 Q8.7344 -12.8125 8.6172 -12.9609 Q8.5 -13.1094 8.3125 -13.1953 Q8.125 -13.2812 7.625 -13.375 L7.625 -13.875 L9.9844 -13.9688 L10.5625 -13.9688 L10.5625 -7.7969 ZM26.75 -1.6562 Q26.125 -1 25.6016 -0.6328 Q25.0781 -0.2656 24.4531 -0.0547 Q23.8281 0.1562 23.0781 0.1562 Q21.0625 0.1562 20.0391 -1.0469 Q19.0156 -2.25 19.0156 -4.6094 Q19.0156 -6.0625 19.5391 -7.1797 Q20.0625 -8.2969 21.0312 -8.8984 Q22 -9.5 23.25 -9.5 Q24.2344 -9.5 24.9297 -9.1875 Q25.625 -8.875 26.0391 -8.3359 Q26.4531 -7.7969 26.6875 -6.9688 Q26.9219 -6.1406 26.9531 -4.8125 L20.7969 -4.8125 L20.7969 -4.6406 Q20.7969 -3.4844 21.0547 -2.7031 Q21.3125 -1.9219 21.9062 -1.4766 Q22.5 -1.0312 23.4375 -1.0312 Q24.2344 -1.0312 24.875 -1.3281 Q25.5156 -1.625 26.1562 -2.2969 L26.75 -1.6562 ZM25.1094 -5.625 Q25.0469 -6.6875 24.8438 -7.3516 Q24.6406 -8.0156 24.2344 -8.375 Q23.8281 -8.7344 23.1562 -8.7344 Q22.1562 -8.7344 21.5547 -7.9297 Q20.9531 -7.125 20.8438 -5.625 L25.1094 -5.625 ZM31.5781 -7.7188 L31.7188 -7.6875 Q32.2656 -8.3438 32.7188 -8.7188 Q33.1719 -9.0938 33.7031 -9.2969 Q34.2344 -9.5 34.9219 -9.5 Q35.4844 -9.5 35.9375 -9.4375 L35.9375 -7.2031 L34.8438 -7.2031 Q34.6094 -7.7188 34.3438 -7.9609 Q34.0781 -8.2031 33.6094 -8.2031 Q33.2656 -8.2031 32.9219 -8 Q32.5781 -7.7969 32.25 -7.4062 Q31.9219 -7.0156 31.8047 -6.6719 Q31.6875 -6.3281 31.6875 -5.8594 L31.6875 -2.4375 Q31.6875 -1.5469 31.7891 -1.2109 Q31.8906 -0.875 32.1406 -0.7188 Q32.3906 -0.5625 32.8906 -0.4844 L32.8906 0 L28.9531 0 L28.9531 -0.4844 Q29.3281 -0.5938 29.4922 -0.6797 Q29.6562 -0.7656 29.7734 -0.9219 Q29.8906 -1.0781 29.9453 -1.4062 Q30 -1.7344 30 -2.4062 L30 -6.6719 Q30 -7.2969 29.9844 -7.6797 Q29.9688 -8.0625 29.8516 -8.2891 Q29.7344 -8.5156 29.4922 -8.625 Q29.25 -8.7344 28.8125 -8.8125 L28.8125 -9.3281 L31.0938 -9.4219 L31.6875 -9.4219 L31.5781 -7.7188 ZM39.5781 -7.8281 L39.7188 -7.7969 Q40.3125 -8.375 40.6875 -8.6719 Q41.0625 -8.9688 41.4141 -9.1562 Q41.7656 -9.3438 42.0703 -9.4219 Q42.375 -9.5 42.7031 -9.5 Q43.6719 -9.5 44.2891 -9.0469 Q44.9062 -8.5938 45.1406 -7.6719 Q45.875 -8.4062 46.3281 -8.7578 Q46.7812 -9.1094 47.2578 -9.3047 Q47.7344 -9.5 48.2812 -9.5 Q48.9375 -9.5 49.4062 -9.3047 Q49.875 -9.1094 50.2031 -8.7188 Q50.5312 -8.3281 50.6797 -7.7266 Q50.8281 -7.125 50.8281 -6.125 L50.8281 -2.4375 Q50.8281 -1.7031 50.8828 -1.4219 Q50.9375 -1.1406 51.0312 -0.9844 Q51.125 -0.8281 51.3047 -0.7109 Q51.4844 -0.5938 51.9219 -0.4844 L51.9219 0 L48.0938 0 L48.0938 -0.4844 Q48.4688 -0.5938 48.6328 -0.6797 Q48.7969 -0.7656 48.9141 -0.9219 Q49.0312 -1.0781 49.0938 -1.4062 Q49.1562 -1.7344 49.1562 -2.4062 L49.1562 -4.9688 Q49.1562 -5.7969 49.1094 -6.3359 Q49.0625 -6.875 48.9688 -7.1953 Q48.875 -7.5156 48.75 -7.7031 Q48.625 -7.8906 48.4531 -8.0312 Q48.2812 -8.1719 48.0625 -8.25 Q47.8438 -8.3281 47.4688 -8.3281 Q47.0781 -8.3281 46.7422 -8.1719 Q46.4062 -8.0156 46.0078 -7.6406 Q45.6094 -7.2656 45.4375 -6.8906 Q45.2656 -6.5156 45.2656 -6 L45.2656 -2.4375 Q45.2656 -1.7031 45.3125 -1.4219 Q45.3594 -1.1406 45.4531 -0.9844 Q45.5469 -0.8281 45.7266 -0.7109 Q45.9062 -0.5938 46.3594 -0.4844 L46.3594 0 L42.5156 0 L42.5156 -0.4844 Q42.8906 -0.5938 43.0625 -0.6797 Q43.2344 -0.7656 43.3438 -0.9219 Q43.4531 -1.0781 43.5156 -1.4062 Q43.5781 -1.7344 43.5781 -2.4062 L43.5781 -4.9688 Q43.5781 -5.8281 43.5312 -6.375 Q43.4844 -6.9219 43.3828 -7.2578 Q43.2812 -7.5938 43.1172 -7.7969 Q42.9531 -8 42.7891 -8.1094 Q42.625 -8.2188 42.3984 -8.2734 Q42.1719 -8.3281 41.8906 -8.3281 Q41.4844 -8.3281 41.1328 -8.1406 Q40.7812 -7.9531 40.4141 -7.6172 Q40.0469 -7.2812 39.8672 -6.9062 Q39.6875 -6.5312 39.6875 -6.1094 L39.6875 -2.4375 Q39.6875 -1.8906 39.7109 -1.5938 Q39.7344 -1.2969 39.8047 -1.1328 Q39.875 -0.9688 39.9688 -0.8672 Q40.0625 -0.7656 40.2422 -0.6719 Q40.4219 -0.5781 40.7812 -0.4844 L40.7812 0 L36.9531 0 L36.9531 -0.4844 Q37.3281 -0.5938 37.4922 -0.6797 Q37.6562 -0.7656 37.7734 -0.9219 Q37.8906 -1.0781 37.9453 -1.4062 Q38 -1.7344 38 -2.4062 L38 -6.6719 Q38 -7.2969 37.9844 -7.6797 Q37.9688 -8.0625 37.8516 -8.2891 Q37.7344 -8.5156 37.4922 -8.625 Q37.25 -8.7344 36.8125 -8.8125 L36.8125 -9.3438 L39.0938 -9.4219 L39.6875 -9.4219 L39.5781 -7.8281 ZM59.5938 -1.3906 L59.4531 -1.4375 Q58.5938 -0.5625 57.8516 -0.2031 Q57.1094 0.1562 56.2656 0.1562 Q55.5156 0.1562 54.9531 -0.1328 Q54.3906 -0.4219 54.0859 -0.9453 Q53.7812 -1.4688 53.7812 -2.1562 Q53.7812 -3.5781 55.1953 -4.3516 Q56.6094 -5.125 59.4219 -5.25 L59.4219 -5.8906 Q59.4219 -6.9062 59.2266 -7.4922 Q59.0312 -8.0781 58.6172 -8.3516 Q58.2031 -8.625 57.5 -8.625 Q56.7344 -8.625 56.2656 -8.2266 Q55.7969 -7.8281 55.5625 -7.0156 L54.2969 -7.0156 L54.2969 -8.2969 Q55.2344 -8.7812 55.8594 -9.0078 Q56.4844 -9.2344 57.1094 -9.3672 Q57.7344 -9.5 58.375 -9.5 Q59.3438 -9.5 59.9297 -9.1953 Q60.5156 -8.8906 60.8047 -8.2578 Q61.0938 -7.625 61.0938 -6.3438 L61.0938 -2.9375 Q61.0938 -2.2188 61.1016 -1.9219 Q61.1094 -1.625 61.1641 -1.3672 Q61.2188 -1.1094 61.3125 -0.9609 Q61.4062 -0.8125 61.6016 -0.7031 Q61.7969 -0.5938 62.2188 -0.4844 L62.2188 0 L59.5469 0 L59.5938 -1.3906 ZM59.4219 -4.4531 Q57.4375 -4.4375 56.4531 -3.9297 Q55.4688 -3.4219 55.4688 -2.3906 Q55.4688 -1.8438 55.6953 -1.5156 Q55.9219 -1.1875 56.2656 -1.0703 Q56.6094 -0.9531 57.0781 -0.9531 Q57.7344 -0.9531 58.2812 -1.2734 Q58.8281 -1.5938 59.125 -2.0938 Q59.4219 -2.5938 59.4219 -3.0781 L59.4219 -4.4531 ZM66.5625 -2.4375 Q66.5625 -1.6094 66.6406 -1.2812 Q66.7188 -0.9531 66.9375 -0.7812 Q67.1562 -0.6094 67.6562 -0.4844 L67.6562 0 L63.7656 0 L63.7656 -0.4844 Q64.2656 -0.6094 64.4531 -0.7422 Q64.6406 -0.875 64.7266 -1.0703 Q64.8125 -1.2656 64.8438 -1.5938 Q64.875 -1.9219 64.875 -2.4375 L64.875 -10.6094 Q64.875 -11.5469 64.8594 -11.9219 Q64.8438 -12.2969 64.7812 -12.5547 Q64.7188 -12.8125 64.6094 -12.9609 Q64.5 -13.1094 64.3047 -13.1953 Q64.1094 -13.2812 63.6094 -13.375 L63.6094 -13.875 L65.9688 -13.9688 L66.5625 -13.9688 L66.5625 -2.4375 ZM81.7031 -8.3438 L79.9062 -8.4219 L79.8125 -8.3125 Q80.1094 -8.0156 80.2891 -7.4922 Q80.4688 -6.9688 80.4688 -6.3594 Q80.4688 -4.7656 79.4844 -3.8984 Q78.5 -3.0312 76.7031 -3.0312 Q75.8906 -3.0312 75.2969 -3.25 Q74.5625 -2.6719 74.5625 -2.125 Q74.5625 -1.7656 74.7031 -1.5781 Q74.8438 -1.3906 75.1719 -1.3125 Q75.5 -1.2344 76.1562 -1.2344 L78.5 -1.2344 Q79.5469 -1.2344 80.1953 -0.9141 Q80.8438 -0.5938 81.125 -0.0547 Q81.4062 0.4844 81.4062 1.2188 Q81.4062 2.125 80.875 2.8438 Q80.3438 3.5625 79.3516 3.9609 Q78.3594 4.3594 77.0312 4.3594 Q76.0469 4.3594 75.2266 4.2422 Q74.4062 4.125 73.8281 3.8516 Q73.25 3.5781 72.9297 3.125 Q72.6094 2.6719 72.6094 1.9844 Q72.6094 1.375 73.0234 0.8672 Q73.4375 0.3594 74.1875 -0.0156 Q73.7344 -0.2031 73.4688 -0.5625 Q73.2031 -0.9219 73.2031 -1.4219 Q73.2031 -1.9688 73.5156 -2.4375 Q73.8281 -2.9062 74.625 -3.5 Q73.9219 -3.9062 73.5547 -4.6094 Q73.1875 -5.3125 73.1875 -6.2188 Q73.1875 -7.0469 73.4609 -7.6719 Q73.7344 -8.2969 74.2266 -8.7031 Q74.7188 -9.1094 75.3984 -9.3047 Q76.0781 -9.5 76.8594 -9.5 Q77.5625 -9.5 78.25 -9.3438 L81.7031 -9.3438 L81.7031 -8.3438 ZM74.9375 -6.375 Q74.9375 -5.1406 75.4297 -4.4766 Q75.9219 -3.8125 76.8594 -3.8125 Q77.3594 -3.8125 77.7109 -4.0078 Q78.0625 -4.2031 78.2812 -4.5312 Q78.5 -4.8594 78.6016 -5.2969 Q78.7031 -5.7344 78.7031 -6.2188 Q78.7031 -7.0781 78.4609 -7.6484 Q78.2188 -8.2188 77.7969 -8.4922 Q77.375 -8.7656 76.8281 -8.7656 Q75.9062 -8.7656 75.4219 -8.1484 Q74.9375 -7.5312 74.9375 -6.375 ZM75.1719 0.1562 Q74.6719 0.5312 74.4219 0.9453 Q74.1719 1.3594 74.1719 1.8906 Q74.1719 2.7656 74.875 3.1797 Q75.5781 3.5938 77.0156 3.5938 Q77.8906 3.5938 78.5234 3.3594 Q79.1562 3.125 79.4844 2.6875 Q79.8125 2.25 79.8125 1.6562 Q79.8125 1.3906 79.7422 1.1328 Q79.6719 0.875 79.4844 0.6641 Q79.2969 0.4531 78.9453 0.3359 Q78.5938 0.2188 78.0312 0.2188 L76.5781 0.2188 Q75.7812 0.2188 75.1719 0.1562 ZM85.5781 -7.7188 L85.7188 -7.6875 Q86.2656 -8.3438 86.7188 -8.7188 Q87.1719 -9.0938 87.7031 -9.2969 Q88.2344 -9.5 88.9219 -9.5 Q89.4844 -9.5 89.9375 -9.4375 L89.9375 -7.2031 L88.8438 -7.2031 Q88.6094 -7.7188 88.3438 -7.9609 Q88.0781 -8.2031 87.6094 -8.2031 Q87.2656 -8.2031 86.9219 -8 Q86.5781 -7.7969 86.25 -7.4062 Q85.9219 -7.0156 85.8047 -6.6719 Q85.6875 -6.3281 85.6875 -5.8594 L85.6875 -2.4375 Q85.6875 -1.5469 85.7891 -1.2109 Q85.8906 -0.875 86.1406 -0.7188 Q86.3906 -0.5625 86.8906 -0.4844 L86.8906 0 L82.9531 0 L82.9531 -0.4844 Q83.3281 -0.5938 83.4922 -0.6797 Q83.6562 -0.7656 83.7734 -0.9219 Q83.8906 -1.0781 83.9453 -1.4062 Q84 -1.7344 84 -2.4062 L84 -6.6719 Q84 -7.2969 83.9844 -7.6797 Q83.9688 -8.0625 83.8516 -8.2891 Q83.7344 -8.5156 83.4922 -8.625 Q83.25 -8.7344 82.8125 -8.8125 L82.8125 -9.3281 L85.0938 -9.4219 L85.6875 -9.4219 L85.5781 -7.7188 ZM96.5938 -1.3906 L96.4531 -1.4375 Q95.5938 -0.5625 94.8516 -0.2031 Q94.1094 0.1562 93.2656 0.1562 Q92.5156 0.1562 91.9531 -0.1328 Q91.3906 -0.4219 91.0859 -0.9453 Q90.7812 -1.4688 90.7812 -2.1562 Q90.7812 -3.5781 92.1953 -4.3516 Q93.6094 -5.125 96.4219 -5.25 L96.4219 -5.8906 Q96.4219 -6.9062 96.2266 -7.4922 Q96.0312 -8.0781 95.6172 -8.3516 Q95.2031 -8.625 94.5 -8.625 Q93.7344 -8.625 93.2656 -8.2266 Q92.7969 -7.8281 92.5625 -7.0156 L91.2969 -7.0156 L91.2969 -8.2969 Q92.2344 -8.7812 92.8594 -9.0078 Q93.4844 -9.2344 94.1094 -9.3672 Q94.7344 -9.5 95.375 -9.5 Q96.3438 -9.5 96.9297 -9.1953 Q97.5156 -8.8906 97.8047 -8.2578 Q98.0938 -7.625 98.0938 -6.3438 L98.0938 -2.9375 Q98.0938 -2.2188 98.1016 -1.9219 Q98.1094 -1.625 98.1641 -1.3672 Q98.2188 -1.1094 98.3125 -0.9609 Q98.4062 -0.8125 98.6016 -0.7031 Q98.7969 -0.5938 99.2188 -0.4844 L99.2188 0 L96.5469 0 L96.5938 -1.3906 ZM96.4219 -4.4531 Q94.4375 -4.4375 93.4531 -3.9297 Q92.4688 -3.4219 92.4688 -2.3906 Q92.4688 -1.8438 92.6953 -1.5156 Q92.9219 -1.1875 93.2656 -1.0703 Q93.6094 -0.9531 94.0781 -0.9531 Q94.7344 -0.9531 95.2812 -1.2734 Q95.8281 -1.5938 96.125 -2.0938 Q96.4219 -2.5938 96.4219 -3.0781 L96.4219 -4.4531 ZM107.5469 -10.6094 Q107.5469 -11.5469 107.5312 -11.9219 Q107.5156 -12.2969 107.4531 -12.5547 Q107.3906 -12.8125 107.2734 -12.9609 Q107.1562 -13.1094 106.9688 -13.1953 Q106.7812 -13.2812 106.2812 -13.375 L106.2812 -13.875 L108.6406 -13.9688 L109.2188 -13.9688 L109.2188 -2.6719 Q109.2188 -1.9062 109.25 -1.5781 Q109.2812 -1.25 109.375 -1.0547 Q109.4688 -0.8594 109.6797 -0.7344 Q109.8906 -0.6094 110.4219 -0.5156 L110.4219 0 L108.1094 0.0938 L107.5312 0.0938 L107.6406 -1.5 L107.5 -1.5469 Q106.8906 -0.8906 106.4375 -0.5625 Q105.9844 -0.2344 105.4688 -0.0391 Q104.9531 0.1562 104.3594 0.1562 Q102.7656 0.1562 101.8984 -1.0625 Q101.0312 -2.2812 101.0312 -4.5781 Q101.0312 -6.1719 101.5938 -7.2891 Q102.1562 -8.4062 103.1172 -8.9531 Q104.0781 -9.5 105.2812 -9.5 Q105.9219 -9.5 106.4531 -9.3984 Q106.9844 -9.2969 107.5469 -9.0625 L107.5469 -10.6094 ZM107.5469 -5.7969 Q107.5469 -6.5469 107.4766 -7.0078 Q107.4062 -7.4688 107.2422 -7.7812 Q107.0781 -8.0938 106.8047 -8.3125 Q106.5312 -8.5312 106.2031 -8.625 Q105.875 -8.7188 105.4219 -8.7188 Q104.1719 -8.7188 103.5156 -7.7188 Q102.8594 -6.7188 102.8594 -4.8438 Q102.8594 -2.9688 103.3984 -1.9922 Q103.9375 -1.0156 105.0312 -1.0156 Q105.4531 -1.0156 105.7422 -1.0859 Q106.0312 -1.1562 106.3047 -1.3203 Q106.5781 -1.4844 106.8594 -1.7656 Q107.1406 -2.0469 107.2734 -2.2812 Q107.4062 -2.5156 107.4766 -2.8203 Q107.5469 -3.125 107.5469 -3.6094 L107.5469 -5.7969 ZM114.7344 -13.1719 L114.7344 -11.2656 L112.9375 -11.2656 L112.9375 -13.1719 L114.7344 -13.1719 ZM111.9531 -0.4844 Q112.3281 -0.5938 112.4922 -0.6797 Q112.6562 -0.7656 112.7656 -0.9219 Q112.875 -1.0781 112.9375 -1.4062 Q113 -1.7344 113 -2.4062 L113 -6.6719 Q113 -7.2969 112.9844 -7.6797 Q112.9688 -8.0625 112.8516 -8.2891 Q112.7344 -8.5156 112.4922 -8.625 Q112.25 -8.7344 111.8125 -8.8125 L111.8125 -9.3438 L114.0938 -9.4219 L114.6875 -9.4219 L114.6875 -2.4375 Q114.6875 -1.6094 114.7656 -1.2812 Q114.8438 -0.9531 115.0625 -0.7812 Q115.2812 -0.6094 115.7812 -0.4844 L115.7812 0 L111.9531 0 L111.9531 -0.4844 ZM125.75 -1.6562 Q125.125 -1 124.6016 -0.6328 Q124.0781 -0.2656 123.4531 -0.0547 Q122.8281 0.1562 122.0781 0.1562 Q120.0625 0.1562 119.0391 -1.0469 Q118.0156 -2.25 118.0156 -4.6094 Q118.0156 -6.0625 118.5391 -7.1797 Q119.0625 -8.2969 120.0312 -8.8984 Q121 -9.5 122.25 -9.5 Q123.2344 -9.5 123.9297 -9.1875 Q124.625 -8.875 125.0391 -8.3359 Q125.4531 -7.7969 125.6875 -6.9688 Q125.9219 -6.1406 125.9531 -4.8125 L119.7969 -4.8125 L119.7969 -4.6406 Q119.7969 -3.4844 120.0547 -2.7031 Q120.3125 -1.9219 120.9062 -1.4766 Q121.5 -1.0312 122.4375 -1.0312 Q123.2344 -1.0312 123.875 -1.3281 Q124.5156 -1.625 125.1562 -2.2969 L125.75 -1.6562 ZM124.1094 -5.625 Q124.0469 -6.6875 123.8438 -7.3516 Q123.6406 -8.0156 123.2344 -8.375 Q122.8281 -8.7344 122.1562 -8.7344 Q121.1562 -8.7344 120.5547 -7.9297 Q119.9531 -7.125 119.8438 -5.625 L124.1094 -5.625 ZM137.4531 0 L133.6094 0 L133.6094 -0.4844 Q134 -0.5938 134.1641 -0.6797 Q134.3281 -0.7656 134.4375 -0.9219 Q134.5469 -1.0781 134.6094 -1.4062 Q134.6719 -1.7344 134.6719 -2.4062 L134.6719 -4.9688 Q134.6719 -5.6406 134.6328 -6.2031 Q134.5938 -6.7656 134.5 -7.1172 Q134.4062 -7.4688 134.2812 -7.6719 Q134.1562 -7.875 133.9688 -8.0156 Q133.7812 -8.1562 133.5469 -8.2422 Q133.3125 -8.3281 132.9375 -8.3281 Q132.5625 -8.3281 132.2188 -8.1719 Q131.875 -8.0156 131.4609 -7.6484 Q131.0469 -7.2812 130.8672 -6.9141 Q130.6875 -6.5469 130.6875 -6.0781 L130.6875 -2.4375 Q130.6875 -1.6094 130.7656 -1.2812 Q130.8438 -0.9531 131.0625 -0.7812 Q131.2812 -0.6094 131.7812 -0.4844 L131.7812 0 L127.9531 0 L127.9531 -0.4844 Q128.3281 -0.5938 128.4922 -0.6797 Q128.6562 -0.7656 128.7656 -0.9219 Q128.875 -1.0781 128.9375 -1.4062 Q129 -1.7344 129 -2.4062 L129 -6.6719 Q129 -7.2969 128.9844 -7.6797 Q128.9688 -8.0625 128.8516 -8.2891 Q128.7344 -8.5156 128.4922 -8.625 Q128.25 -8.7344 127.8125 -8.8125 L127.8125 -9.3438 L130.0938 -9.4219 L130.6875 -9.4219 L130.5781 -7.8281 L130.7188 -7.7969 Q131.4375 -8.5312 131.8828 -8.8438 Q132.3281 -9.1562 132.7812 -9.3281 Q133.2344 -9.5 133.75 -9.5 Q134.2812 -9.5 134.6953 -9.375 Q135.1094 -9.25 135.4219 -8.9922 Q135.7344 -8.7344 135.9453 -8.3594 Q136.1562 -7.9844 136.2578 -7.4609 Q136.3594 -6.9375 136.3594 -6.125 L136.3594 -2.4375 Q136.3594 -1.7656 136.3984 -1.4609 Q136.4375 -1.1562 136.5312 -0.9922 Q136.625 -0.8281 136.8125 -0.7188 Q137 -0.6094 137.4531 -0.4844 L137.4531 0 ZM138.3594 -8.8438 Q138.8438 -8.9219 139.1484 -9.1172 Q139.4531 -9.3125 139.625 -9.625 Q139.7969 -9.9375 139.8984 -10.3984 Q140 -10.8594 140.0938 -11.75 L141.4844 -11.75 L141.4844 -9.3438 L144.6406 -9.3438 L144.6406 -8.3438 L141.4844 -8.3438 L141.4844 -4 Q141.4844 -3.0625 141.5625 -2.5 Q141.6406 -1.9375 141.8594 -1.6172 Q142.0781 -1.2969 142.3516 -1.1641 Q142.625 -1.0312 143.0469 -1.0312 Q143.4375 -1.0312 143.7812 -1.1875 Q144.125 -1.3438 144.4531 -1.6562 L144.8906 -1.125 Q144.2031 -0.4531 143.5859 -0.1484 Q142.9688 0.1562 142.2969 0.1562 Q141.0312 0.1562 140.4219 -0.5938 Q139.8125 -1.3438 139.8125 -2.9375 L139.8125 -8.3438 L138.3594 -8.3438 L138.3594 -8.8438 ZM156.2188 4.25 Q154.5625 4.25 153.5078 3.75 Q152.4531 3.25 151.8672 2.2344 Q151.2812 1.2188 151.0234 -0.4141 Q150.7656 -2.0469 150.7656 -4.8438 Q150.7656 -7.625 151.0234 -9.2656 Q151.2812 -10.9062 151.8672 -11.9453 Q152.4531 -12.9844 153.5078 -13.5 Q154.5625 -14.0156 156.2188 -14.0156 L156.2188 -13.2188 Q155.5312 -13.2188 155 -13.0938 Q154.4062 -12.9531 153.9844 -12.5625 Q153.5156 -12.1406 153.2344 -11.375 Q152.8906 -10.4688 152.7188 -8.9844 Q152.5469 -7.4062 152.5469 -4.9219 Q152.5469 -2.7188 152.6953 -1.1797 Q152.8438 0.3594 153.1875 1.3281 Q153.4531 2.1562 153.8594 2.6094 Q154.2188 3.0156 154.7188 3.2188 Q155.2969 3.4531 156.2188 3.4531 L156.2188 4.25 ZM162.2031 0.1562 Q160.1719 0.1562 159.1016 -1.0391 Q158.0312 -2.2344 158.0312 -4.5781 Q158.0312 -6.1875 158.5938 -7.3047 Q159.1562 -8.4219 160.1328 -8.9609 Q161.1094 -9.5 162.3594 -9.5 Q164.4375 -9.5 165.5156 -8.2891 Q166.5938 -7.0781 166.5938 -4.7969 Q166.5938 -3.1719 166.0547 -2.0625 Q165.5156 -0.9531 164.5312 -0.3984 Q163.5469 0.1562 162.2031 0.1562 ZM159.875 -4.7812 Q159.875 -2.7812 160.5156 -1.6953 Q161.1562 -0.6094 162.3438 -0.6094 Q163 -0.6094 163.4609 -0.9297 Q163.9219 -1.25 164.2031 -1.7891 Q164.4844 -2.3281 164.6172 -3.0312 Q164.75 -3.7344 164.75 -4.5156 Q164.75 -5.9531 164.4297 -6.8984 Q164.1094 -7.8438 163.5625 -8.2891 Q163.0156 -8.7344 162.3125 -8.7344 Q161.125 -8.7344 160.5 -7.7109 Q159.875 -6.6875 159.875 -4.7812 ZM168.7188 -9.3438 L171.5 -9.3438 L171.5 -4.3594 Q171.5 -3.2188 171.5859 -2.625 Q171.6719 -2.0312 171.8516 -1.7266 Q172.0312 -1.4219 172.3516 -1.2188 Q172.6719 -1.0156 173.2344 -1.0156 Q173.6094 -1.0156 173.9531 -1.1641 Q174.2969 -1.3125 174.7109 -1.6797 Q175.125 -2.0469 175.3047 -2.4062 Q175.4844 -2.7656 175.4844 -3.25 L175.4844 -6.9062 Q175.4844 -7.4688 175.4609 -7.75 Q175.4375 -8.0312 175.3672 -8.2031 Q175.2969 -8.375 175.2031 -8.4766 Q175.1094 -8.5781 174.9375 -8.6719 Q174.7656 -8.7656 174.3906 -8.8594 L174.3906 -9.3438 L177.1719 -9.3438 L177.1719 -2.6719 Q177.1719 -1.9219 177.2031 -1.5859 Q177.2344 -1.25 177.3281 -1.0547 Q177.4219 -0.8594 177.625 -0.7344 Q177.8281 -0.6094 178.3594 -0.5156 L178.3594 0 L176.125 0.0938 L175.5312 0.0938 L175.5938 -1.5 L175.4375 -1.5469 Q174.625 -0.6719 173.8906 -0.2578 Q173.1562 0.1562 172.4219 0.1562 Q171.5312 0.1562 170.9531 -0.1953 Q170.375 -0.5469 170.0938 -1.2422 Q169.8125 -1.9375 169.8125 -3.2188 L169.8125 -6.9062 Q169.8125 -7.7188 169.75 -8.0312 Q169.6875 -8.3438 169.5 -8.5234 Q169.3125 -8.7031 168.7188 -8.8594 L168.7188 -9.3438 ZM179.3594 -8.8438 Q179.8438 -8.9219 180.1484 -9.1172 Q180.4531 -9.3125 180.625 -9.625 Q180.7969 -9.9375 180.8984 -10.3984 Q181 -10.8594 181.0938 -11.75 L182.4844 -11.75 L182.4844 -9.3438 L185.6406 -9.3438 L185.6406 -8.3438 L182.4844 -8.3438 L182.4844 -4 Q182.4844 -3.0625 182.5625 -2.5 Q182.6406 -1.9375 182.8594 -1.6172 Q183.0781 -1.2969 183.3516 -1.1641 Q183.625 -1.0312 184.0469 -1.0312 Q184.4375 -1.0312 184.7812 -1.1875 Q185.125 -1.3438 185.4531 -1.6562 L185.8906 -1.125 Q185.2031 -0.4531 184.5859 -0.1484 Q183.9688 0.1562 183.2969 0.1562 Q182.0312 0.1562 181.4219 -0.5938 Q180.8125 -1.3438 180.8125 -2.9375 L180.8125 -8.3438 L179.3594 -8.3438 L179.3594 -8.8438 ZM189.5938 -0.2969 L189.5938 1.7656 Q189.5938 2.4062 189.6406 2.7188 Q189.6875 3.0312 189.7969 3.2109 Q189.9062 3.3906 190.1172 3.5078 Q190.3281 3.625 190.7969 3.7188 L190.7969 4.2031 L186.8125 4.2031 L186.8125 3.7188 Q187.1562 3.625 187.3828 3.5234 Q187.6094 3.4219 187.7266 3.2188 Q187.8438 3.0156 187.8828 2.6719 Q187.9219 2.3281 187.9219 1.7656 L187.9219 -6.6094 Q187.9219 -7.3125 187.8984 -7.6094 Q187.875 -7.9062 187.8203 -8.1016 Q187.7656 -8.2969 187.6484 -8.4297 Q187.5312 -8.5625 187.3438 -8.6484 Q187.1562 -8.7344 186.7188 -8.8125 L186.7188 -9.3438 L189.0156 -9.4219 L189.6094 -9.4219 L189.4844 -7.8281 L189.625 -7.7969 Q190.2344 -8.4062 190.5859 -8.6875 Q190.9375 -8.9688 191.3125 -9.1562 Q191.6875 -9.3438 192.0312 -9.4219 Q192.375 -9.5 192.7656 -9.5 Q194.375 -9.5 195.2422 -8.2891 Q196.1094 -7.0781 196.1094 -4.75 Q196.1094 -3.1406 195.6172 -2.0469 Q195.125 -0.9531 194.1953 -0.3984 Q193.2656 0.1562 191.9844 0.1562 Q191.25 0.1562 190.6641 0.0312 Q190.0781 -0.0938 189.5938 -0.2969 ZM189.5938 -3.5156 Q189.5938 -2.5781 189.7109 -2.0703 Q189.8281 -1.5625 190.125 -1.2422 Q190.4219 -0.9219 190.8281 -0.7656 Q191.2344 -0.6094 191.9062 -0.6094 Q193.0781 -0.6094 193.6719 -1.5938 Q194.2656 -2.5781 194.2656 -4.5 Q194.2656 -8.3281 192.0312 -8.3281 Q191.4844 -8.3281 191.0938 -8.1562 Q190.7031 -7.9844 190.3125 -7.6016 Q189.9219 -7.2188 189.7578 -6.8594 Q189.5938 -6.5 189.5938 -6.0938 L189.5938 -3.5156 ZM197.7188 -9.3438 L200.5 -9.3438 L200.5 -4.3594 Q200.5 -3.2188 200.5859 -2.625 Q200.6719 -2.0312 200.8516 -1.7266 Q201.0312 -1.4219 201.3516 -1.2188 Q201.6719 -1.0156 202.2344 -1.0156 Q202.6094 -1.0156 202.9531 -1.1641 Q203.2969 -1.3125 203.7109 -1.6797 Q204.125 -2.0469 204.3047 -2.4062 Q204.4844 -2.7656 204.4844 -3.25 L204.4844 -6.9062 Q204.4844 -7.4688 204.4609 -7.75 Q204.4375 -8.0312 204.3672 -8.2031 Q204.2969 -8.375 204.2031 -8.4766 Q204.1094 -8.5781 203.9375 -8.6719 Q203.7656 -8.7656 203.3906 -8.8594 L203.3906 -9.3438 L206.1719 -9.3438 L206.1719 -2.6719 Q206.1719 -1.9219 206.2031 -1.5859 Q206.2344 -1.25 206.3281 -1.0547 Q206.4219 -0.8594 206.625 -0.7344 Q206.8281 -0.6094 207.3594 -0.5156 L207.3594 0 L205.125 0.0938 L204.5312 0.0938 L204.5938 -1.5 L204.4375 -1.5469 Q203.625 -0.6719 202.8906 -0.2578 Q202.1562 0.1562 201.4219 0.1562 Q200.5312 0.1562 199.9531 -0.1953 Q199.375 -0.5469 199.0938 -1.2422 Q198.8125 -1.9375 198.8125 -3.2188 L198.8125 -6.9062 Q198.8125 -7.7188 198.75 -8.0312 Q198.6875 -8.3438 198.5 -8.5234 Q198.3125 -8.7031 197.7188 -8.8594 L197.7188 -9.3438 ZM208.3594 -8.8438 Q208.8438 -8.9219 209.1484 -9.1172 Q209.4531 -9.3125 209.625 -9.625 Q209.7969 -9.9375 209.8984 -10.3984 Q210 -10.8594 210.0938 -11.75 L211.4844 -11.75 L211.4844 -9.3438 L214.6406 -9.3438 L214.6406 -8.3438 L211.4844 -8.3438 L211.4844 -4 Q211.4844 -3.0625 211.5625 -2.5 Q211.6406 -1.9375 211.8594 -1.6172 Q212.0781 -1.2969 212.3516 -1.1641 Q212.625 -1.0312 213.0469 -1.0312 Q213.4375 -1.0312 213.7812 -1.1875 Q214.125 -1.3438 214.4531 -1.6562 L214.8906 -1.125 Q214.2031 -0.4531 213.5859 -0.1484 Q212.9688 0.1562 212.2969 0.1562 Q211.0312 0.1562 210.4219 -0.5938 Q209.8125 -1.3438 209.8125 -2.9375 L209.8125 -8.3438 L208.3594 -8.3438 L208.3594 -8.8438 ZM225.5938 -1.3906 L225.4531 -1.4375 Q224.5938 -0.5625 223.8516 -0.2031 Q223.1094 0.1562 222.2656 0.1562 Q221.5156 0.1562 220.9531 -0.1328 Q220.3906 -0.4219 220.0859 -0.9453 Q219.7812 -1.4688 219.7812 -2.1562 Q219.7812 -3.5781 221.1953 -4.3516 Q222.6094 -5.125 225.4219 -5.25 L225.4219 -5.8906 Q225.4219 -6.9062 225.2266 -7.4922 Q225.0312 -8.0781 224.6172 -8.3516 Q224.2031 -8.625 223.5 -8.625 Q222.7344 -8.625 222.2656 -8.2266 Q221.7969 -7.8281 221.5625 -7.0156 L220.2969 -7.0156 L220.2969 -8.2969 Q221.2344 -8.7812 221.8594 -9.0078 Q222.4844 -9.2344 223.1094 -9.3672 Q223.7344 -9.5 224.375 -9.5 Q225.3438 -9.5 225.9297 -9.1953 Q226.5156 -8.8906 226.8047 -8.2578 Q227.0938 -7.625 227.0938 -6.3438 L227.0938 -2.9375 Q227.0938 -2.2188 227.1016 -1.9219 Q227.1094 -1.625 227.1641 -1.3672 Q227.2188 -1.1094 227.3125 -0.9609 Q227.4062 -0.8125 227.6016 -0.7031 Q227.7969 -0.5938 228.2188 -0.4844 L228.2188 0 L225.5469 0 L225.5938 -1.3906 ZM225.4219 -4.4531 Q223.4375 -4.4375 222.4531 -3.9297 Q221.4688 -3.4219 221.4688 -2.3906 Q221.4688 -1.8438 221.6953 -1.5156 Q221.9219 -1.1875 222.2656 -1.0703 Q222.6094 -0.9531 223.0781 -0.9531 Q223.7344 -0.9531 224.2812 -1.2734 Q224.8281 -1.5938 225.125 -2.0938 Q225.4219 -2.5938 225.4219 -3.0781 L225.4219 -4.4531 ZM236.4844 -7.2031 L235.5469 -7.2031 Q235.3438 -7.7812 235.0469 -8.1172 Q234.75 -8.4531 234.3828 -8.5938 Q234.0156 -8.7344 233.4688 -8.7344 Q232.6875 -8.7344 232.2266 -8.3672 Q231.7656 -8 231.7656 -7.3594 Q231.7656 -6.9219 231.9531 -6.625 Q232.1406 -6.3281 232.5312 -6.0781 Q232.9219 -5.8281 233.9062 -5.4062 Q234.9062 -4.9688 235.4453 -4.6094 Q235.9844 -4.25 236.2891 -3.7734 Q236.5938 -3.2969 236.5938 -2.625 Q236.5938 -1.8594 236.3359 -1.3281 Q236.0781 -0.7969 235.5938 -0.4688 Q235.1094 -0.1406 234.4531 0.0078 Q233.7969 0.1562 233.0156 0.1562 Q232.1875 0.1562 231.4219 0.0312 Q230.6562 -0.0938 229.9219 -0.2812 L229.9219 -2.3281 L230.875 -2.3281 Q231.1406 -1.4219 231.6562 -1.0156 Q232.1719 -0.6094 233.0781 -0.6094 Q233.4375 -0.6094 233.7734 -0.6875 Q234.1094 -0.7656 234.375 -0.9375 Q234.6406 -1.1094 234.7969 -1.3984 Q234.9531 -1.6875 234.9531 -2.125 Q234.9531 -2.625 234.7578 -2.9375 Q234.5625 -3.25 234.1484 -3.5078 Q233.7344 -3.7656 232.7031 -4.2031 Q231.8125 -4.5781 231.2734 -4.9297 Q230.7344 -5.2812 230.4297 -5.7578 Q230.125 -6.2344 230.125 -6.8906 Q230.125 -7.7031 230.5625 -8.2891 Q231 -8.875 231.8203 -9.1875 Q232.6406 -9.5 233.7344 -9.5 Q234.375 -9.5 234.9766 -9.4375 Q235.5781 -9.375 236.4844 -9.1875 L236.4844 -7.2031 ZM242.6406 -13.3281 L253.2188 -13.3281 L253.2188 -9.9375 L252.25 -9.9375 Q252.0469 -10.7656 251.8359 -11.2578 Q251.625 -11.75 251.3906 -12 Q251.1562 -12.25 250.8828 -12.3594 Q250.6094 -12.4688 250.0781 -12.4688 L248.8438 -12.4688 L248.8438 -2.4688 Q248.8438 -1.8906 248.9062 -1.5547 Q248.9688 -1.2188 249.1016 -1.0156 Q249.2344 -0.8125 249.4531 -0.7031 Q249.6719 -0.5938 250.1562 -0.4844 L250.1562 0 L245.6875 0 L245.6875 -0.4844 Q245.9844 -0.5469 246.2109 -0.625 Q246.4375 -0.7031 246.5781 -0.8125 Q246.7188 -0.9219 246.8125 -1.1016 Q246.9062 -1.2812 246.9609 -1.5859 Q247.0156 -1.8906 247.0156 -2.4688 L247.0156 -12.4688 L245.7812 -12.4688 Q245.3281 -12.4688 245.0234 -12.3828 Q244.7188 -12.2969 244.4688 -12.0156 Q244.2188 -11.7344 244.0078 -11.2266 Q243.7969 -10.7188 243.6094 -9.9375 L242.6406 -9.9375 L242.6406 -13.3281 ZM264.5312 -0.0469 L263.7656 0.1562 L263.0469 -0.6094 Q262.4219 -0.2188 261.7266 -0.0312 Q261.0312 0.1562 260.1406 0.1562 Q257.6562 0.1562 256.4062 -1.5391 Q255.1562 -3.2344 255.1562 -6.5781 Q255.1562 -8.6562 255.8438 -10.2266 Q256.5312 -11.7969 257.8125 -12.6406 Q259.0938 -13.4844 260.8125 -13.4844 Q261.7188 -13.4844 262.5625 -13.3828 Q263.4062 -13.2812 264.4375 -13.0312 L264.4375 -10.3438 L263.4688 -10.3438 Q263.2031 -11.2188 262.8438 -11.7109 Q262.4844 -12.2031 261.9766 -12.4141 Q261.4688 -12.625 260.7031 -12.625 Q259.6406 -12.625 258.8359 -11.9453 Q258.0312 -11.2656 257.5859 -9.9297 Q257.1406 -8.5938 257.1406 -6.7031 Q257.1406 -4.7969 257.5156 -3.4375 Q257.8906 -2.0781 258.6328 -1.3906 Q259.375 -0.7031 260.4688 -0.7031 Q261.625 -0.7031 262.1797 -1.2031 Q262.7344 -1.7031 262.7344 -2.75 L262.7344 -3.3438 Q262.7344 -4.2188 262.6406 -4.6094 Q262.5469 -5 262.3125 -5.2188 Q262.0781 -5.4375 261.5469 -5.5625 L261.5469 -6.0469 L265.4844 -6.0469 L265.4844 -5.5625 Q265.1406 -5.4531 264.9609 -5.2969 Q264.7812 -5.1406 264.6875 -4.9219 Q264.5938 -4.7031 264.5625 -4.375 Q264.5312 -4.0469 264.5312 -3.4375 L264.5312 -0.0469 ZM266.4219 -14.0156 Q268.0781 -14.0156 269.1328 -13.5156 Q270.1875 -13.0156 270.7734 -12 Q271.3594 -10.9844 271.6172 -9.3516 Q271.875 -7.7188 271.875 -4.9219 Q271.875 -2.1562 271.6172 -0.5078 Q271.3594 1.1406 270.7734 2.1797 Q270.1875 3.2188 269.1328 3.7344 Q268.0781 4.25 266.4219 4.25 L266.4219 3.4531 Q267.1094 3.4531 267.625 3.3281 Q268.2344 3.1875 268.6406 2.7969 Q269.1094 2.375 269.4062 1.6094 Q269.75 0.7031 269.9219 -0.7812 Q270.0938 -2.3594 270.0938 -4.8438 Q270.0938 -7.0469 269.9453 -8.5859 Q269.7969 -10.125 269.4531 -11.0938 Q269.1875 -11.9219 268.7812 -12.375 Q268.4062 -12.7812 267.9219 -12.9844 Q267.3438 -13.2188 266.4219 -13.2188 L266.4219 -14.0156 Z" stroke="none"/></g></g></svg>