<?xml version="1.0" encoding="UTF-8" standalone="no"?><svg xmlns="http://www.w3.org/2000/svg" xmlns:xlink="http://www.w3.org/1999/xlink" stroke-dasharray="none" shape-rendering="auto" font-family="'Dialog'" width="69.812600" text-rendering="auto" fill-opacity="1" contentScriptType="text/ecmascript" color-interpolation="auto" color-rendering="auto" preserveAspectRatio="xMidYMid meet" font-size="12" fill="black" stroke="black" image-rendering="auto" stroke-miterlimit="10" zoomAndPan="magnify" version="1.0" stroke-linecap="square" stroke-linejoin="miter" contentStyleType="text/css" font-style="normal" height="32" stroke-width="1" stroke-dashoffset="0" font-weight="normal" stroke-opacity="1" y="-5.000000"><!--Converted from MathML using JEuclid--><defs id="genericDefs"/><g><g text-rendering="optimizeLegibility" transform="translate(0.5,27)" color-rendering="optimizeQuality" color-interpolation="linearRGB" image-rendering="optimizeQuality"><path d="M9.1562 -1.0156 Q8.2969 0.1562 7.3594 0.1562 Q6.8438 0.1562 6.5 -0.2031 Q6.1562 -0.5625 5.9766 -1.2656 Q5.7969 -1.9688 5.7344 -2.9531 L5.4375 -7.2031 L5.375 -7.2031 Q4.7969 -6.0781 3.3281 -3.4219 Q1.9688 -0.9688 1.5 0 L-0.5 0 L-0.4062 -0.4844 L-0.0156 -0.875 Q0.4844 -1.375 1.1094 -2.4062 L5.2656 -9.2344 Q5.0781 -11.2812 4.6797 -12.0234 Q4.2812 -12.7656 3.4375 -12.7656 Q2.6406 -12.7656 1.9688 -12.0781 L1.6094 -12.5625 Q2.8594 -14.0312 4.0312 -14.0312 Q5.0469 -14.0312 5.5781 -13.2344 Q6.1094 -12.4375 6.2344 -10.5781 Q6.5156 -6.7969 6.7812 -4.6094 Q7.0469 -2.4219 7.3359 -1.7422 Q7.625 -1.0625 8.0625 -1.0625 Q8.4688 -1.0625 8.7812 -1.5 L9.1562 -1.0156 Z" stroke="none"/></g><g text-rendering="optimizeLegibility" transform="translate(9.6562,31.7656)" color-rendering="optimizeQuality" color-interpolation="linearRGB" image-rendering="optimizeQuality"><path d="M3.8281 -9.2188 L3.5156 -7.8906 L2.2969 -7.8906 L2.625 -9.2188 L3.8281 -9.2188 ZM2.1406 -1.7031 Q2.0625 -1.3594 2.0469 -1.2031 Q2.0312 -1.0469 2.0312 -0.9375 Q2.0312 -0.7188 2.0938 -0.6094 Q2.1562 -0.5 2.3047 -0.4375 Q2.4531 -0.375 2.7812 -0.3281 L2.7188 0 L0.5938 0 L1.625 -4.6094 Q1.7188 -5 1.75 -5.2344 Q1.7812 -5.4688 1.7812 -5.6406 Q1.7812 -5.8281 1.7266 -5.9375 Q1.6719 -6.0469 1.5312 -6.1016 Q1.3906 -6.1562 1.0625 -6.1719 L1.1406 -6.5312 L2.7969 -6.5938 L3.2031 -6.5938 L2.1406 -1.7031 Z" stroke="none"/></g><g text-rendering="optimizeLegibility" transform="translate(9.6562,17.8047)" color-rendering="optimizeQuality" color-interpolation="linearRGB" image-rendering="optimizeQuality"><path d="M5.9531 -7.8438 Q6 -8.0781 6.0391 -8.3516 Q6.0781 -8.625 6.0781 -8.8281 Q6.0781 -9.0312 6.0078 -9.1406 Q5.9375 -9.25 5.7969 -9.2969 Q5.6562 -9.3438 5.2969 -9.3594 L5.375 -9.7188 L7.0938 -9.7812 L7.5 -9.7812 L5.7188 -1.9062 Q5.625 -1.4688 5.5938 -1.2578 Q5.5625 -1.0469 5.5625 -0.9062 Q5.5625 -0.625 5.7188 -0.5 Q5.875 -0.375 6.3125 -0.3281 L6.25 0 L4.2969 0 L4.7344 -1.7188 L4.6406 -1.75 Q3.9844 -0.7812 3.3984 -0.3359 Q2.8125 0.1094 2.1562 0.1094 Q1.4062 0.1094 0.9922 -0.4609 Q0.5781 -1.0312 0.5781 -2.0625 Q0.5781 -2.7188 0.7266 -3.375 Q0.875 -4.0312 1.1797 -4.625 Q1.4844 -5.2188 1.9062 -5.6719 Q2.3281 -6.125 2.8906 -6.3906 Q3.4531 -6.6562 4.1094 -6.6562 Q4.5156 -6.6562 4.8672 -6.5703 Q5.2188 -6.4844 5.5938 -6.2656 L5.9531 -7.8438 ZM5.0938 -4.1562 Q5.2031 -4.6562 5.2031 -5.0938 Q5.2031 -5.625 4.9766 -5.8672 Q4.75 -6.1094 4.2188 -6.1094 Q3.9375 -6.1094 3.6797 -6.0156 Q3.4219 -5.9219 3.1562 -5.7109 Q2.8906 -5.5 2.6484 -5.1484 Q2.4062 -4.7969 2.2031 -4.2969 Q2 -3.7969 1.8906 -3.2266 Q1.7812 -2.6562 1.7812 -2.125 Q1.7812 -1.4062 1.9766 -1.0547 Q2.1719 -0.7031 2.625 -0.7031 Q2.8438 -0.7031 3.0703 -0.7969 Q3.2969 -0.8906 3.5781 -1.1484 Q3.8594 -1.4062 4.2188 -1.9062 Q4.5469 -2.3594 4.7344 -2.8125 Q4.9219 -3.2656 5.0312 -3.875 L5.0938 -4.1562 Z" stroke="none"/></g><g text-rendering="optimizeLegibility" transform="translate(17.9375,27)" color-rendering="optimizeQuality" color-interpolation="linearRGB" image-rendering="optimizeQuality"><path d="M1.2188 -7.0625 L1.2188 -8.4219 L9.8594 -8.4219 L9.8594 -7.0625 L1.2188 -7.0625 ZM1.2188 -3.0156 L1.2188 -4.3594 L9.8594 -4.3594 L9.8594 -3.0156 L1.2188 -3.0156 Z" stroke="none"/></g><g text-rendering="optimizeLegibility" stroke-width="1.6667" color-interpolation="linearRGB" color-rendering="optimizeQuality" image-rendering="optimizeQuality"><line y2="19.78" fill="none" x1="31.4747" x2="60.8653" y1="19.78"/><path d="M0.7031 0.5938 Q0.5625 0.75 0.4766 0.8984 Q0.3906 1.0469 0.3516 1.1953 Q0.3125 1.3438 0.3125 1.5312 Q0.3125 2.0469 0.6797 2.2812 Q1.0469 2.5156 1.7969 2.5156 Q2.4688 2.5156 2.9219 2.2812 Q3.375 2.0469 3.6875 1.5469 Q4 1.0469 4.2422 0.3203 Q4.4844 -0.4062 4.7188 -1.625 L4.625 -1.6406 Q3.9688 -0.7344 3.3984 -0.3125 Q2.8281 0.1094 2.1719 0.1094 Q1.4219 0.1094 1.0156 -0.4531 Q0.6094 -1.0156 0.6094 -2.0625 Q0.6094 -2.8125 0.8047 -3.5547 Q1 -4.2969 1.3516 -4.8906 Q1.7031 -5.4844 2.1562 -5.875 Q2.6094 -6.2656 3.1094 -6.4609 Q3.6094 -6.6562 4.1406 -6.6562 Q4.5781 -6.6562 4.9609 -6.5547 Q5.3438 -6.4531 5.7344 -6.2031 L6.3594 -6.6562 L6.7969 -6.5469 L6.0781 -3.3438 Q6.0156 -3 5.9219 -2.5625 L5.75 -1.6719 Q5.4219 -0.0625 5.2344 0.5469 Q5 1.2656 4.6875 1.7344 Q4.3906 2.1562 3.9922 2.4453 Q3.5938 2.7344 3.0625 2.8984 Q2.5312 3.0625 1.8125 3.0625 Q-0.7656 3.0625 -0.7656 1.5469 Q-0.7656 1.1719 -0.5391 0.8594 Q-0.3125 0.5469 0.2031 0.1875 L0.7031 0.5938 ZM2.6562 -0.7031 Q3.0156 -0.7031 3.3594 -0.9453 Q3.7031 -1.1875 4.0938 -1.7031 Q4.4844 -2.2188 4.7031 -2.6953 Q4.9219 -3.1719 5.0781 -3.875 Q5.2344 -4.5781 5.2344 -5.0938 Q5.2344 -5.625 5.0078 -5.8672 Q4.7812 -6.1094 4.25 -6.1094 Q3.9688 -6.1094 3.7109 -6.0156 Q3.4531 -5.9219 3.1797 -5.7109 Q2.9062 -5.5 2.6641 -5.1484 Q2.4219 -4.7969 2.2266 -4.2969 Q2.0312 -3.7969 1.9219 -3.2266 Q1.8125 -2.6562 1.8125 -2.125 Q1.8125 -1.4062 2.0156 -1.0547 Q2.2188 -0.7031 2.6562 -0.7031 Z" stroke-width="1" transform="translate(32.2403,13.8705)" stroke="none"/></g><g text-rendering="optimizeLegibility" transform="translate(37.8028,13.8705)" color-rendering="optimizeQuality" color-interpolation="linearRGB" image-rendering="optimizeQuality"><path d="M5.0469 2.9688 Q3.8906 2.9688 3.1562 2.625 Q2.4219 2.2812 2.0078 1.5625 Q1.5938 0.8438 1.4141 -0.2969 Q1.2344 -1.4375 1.2344 -3.3906 Q1.2344 -5.3281 1.4141 -6.4844 Q1.5938 -7.6406 2 -8.3594 Q2.4062 -9.0781 3.1484 -9.4453 Q3.8906 -9.8125 5.0469 -9.8125 L5.0469 -9.25 Q4.5781 -9.25 4.2031 -9.1719 Q3.7812 -9.0781 3.5 -8.7969 Q3.1719 -8.5 2.9531 -7.9531 Q2.7188 -7.3281 2.6094 -6.2969 Q2.4844 -5.1875 2.4844 -3.4531 Q2.4844 -1.9062 2.5859 -0.8281 Q2.6875 0.25 2.9219 0.9375 Q3.125 1.5 3.4062 1.8281 Q3.6562 2.1094 4 2.25 Q4.4062 2.4062 5.0469 2.4062 L5.0469 2.9688 Z" stroke="none"/></g><g text-rendering="optimizeLegibility" transform="translate(42.8497,13.8705)" color-rendering="optimizeQuality" color-interpolation="linearRGB" image-rendering="optimizeQuality"><path d="M6.5625 -5.6875 L4.1562 -5.6875 L3.2969 -1.7656 Q3.2188 -1.3906 3.2188 -1.2188 Q3.2188 -0.6094 3.7969 -0.6094 Q4.3125 -0.6094 4.875 -1 L5.0938 -0.6094 Q4.2031 0.1094 3.2969 0.1094 Q2.0625 0.1094 2.0625 -1 Q2.0625 -1.375 2.1562 -1.6875 L3.0312 -5.6875 L2.5938 -5.6875 Q1.6562 -5.6875 0.8281 -4.8281 L0.4844 -5.2031 Q1.5 -6.5312 2.9219 -6.5312 L6.7344 -6.5312 L6.5625 -5.6875 Z" stroke="none"/></g><g text-rendering="optimizeLegibility" transform="translate(49.584,17.2689)" color-rendering="optimizeQuality" color-interpolation="linearRGB" image-rendering="optimizeQuality"><path d="M2.7344 -6.5781 L2.5156 -5.6406 L1.6406 -5.6406 L1.875 -6.5781 L2.7344 -6.5781 ZM1.5312 -1.2188 Q1.4688 -0.9688 1.4609 -0.8594 Q1.4531 -0.75 1.4531 -0.6719 Q1.4531 -0.5156 1.5 -0.4375 Q1.5469 -0.3594 1.6484 -0.3125 Q1.75 -0.2656 1.9844 -0.2344 L1.9375 0 L0.4219 0 L1.1562 -3.2969 Q1.2188 -3.5781 1.25 -3.7422 Q1.2812 -3.9062 1.2812 -4.0312 Q1.2812 -4.1719 1.2344 -4.25 Q1.1875 -4.3281 1.0938 -4.3672 Q1 -4.4062 0.75 -4.4062 L0.8125 -4.6719 L2 -4.7188 L2.2969 -4.7188 L1.5312 -1.2188 Z" stroke="none"/></g><g text-rendering="optimizeLegibility" transform="translate(52.0215,13.8705)" color-rendering="optimizeQuality" color-interpolation="linearRGB" image-rendering="optimizeQuality"><path d="M0.2969 -9.8125 Q1.4531 -9.8125 2.1875 -9.4609 Q2.9219 -9.1094 3.3359 -8.3984 Q3.75 -7.6875 3.9297 -6.5469 Q4.1094 -5.4062 4.1094 -3.4531 Q4.1094 -1.5 3.9297 -0.3516 Q3.75 0.7969 3.3438 1.5234 Q2.9375 2.25 2.1953 2.6094 Q1.4531 2.9688 0.2969 2.9688 L0.2969 2.4062 Q0.7656 2.4062 1.1406 2.3281 Q1.5625 2.2344 1.8594 1.9688 Q2.1875 1.6562 2.3906 1.125 Q2.625 0.5 2.7344 -0.5469 Q2.8594 -1.6406 2.8594 -3.3906 Q2.8594 -4.9219 2.7578 -6 Q2.6562 -7.0781 2.4219 -7.7656 Q2.2344 -8.3438 1.9375 -8.6562 Q1.6875 -8.9375 1.3438 -9.0781 Q0.9375 -9.25 0.2969 -9.25 L0.2969 -9.8125 Z" stroke="none"/></g><g text-rendering="optimizeLegibility" transform="translate(56.1309,7.433)" color-rendering="optimizeQuality" color-interpolation="linearRGB" image-rendering="optimizeQuality"><path d="M3.4219 -0.7812 Q3.6719 -0.7812 3.8125 -0.8125 Q3.9531 -0.8438 4.0469 -0.9141 Q4.1406 -0.9844 4.1875 -1.0938 Q4.2344 -1.2031 4.3125 -1.4219 L4.7344 -1.4219 L4.6562 0 L0.625 0 L0.625 -0.2344 Q0.8438 -0.75 1.1953 -1.2891 Q1.5469 -1.8281 2.2031 -2.5469 Q2.7812 -3.1719 3.0156 -3.5 Q3.2969 -3.8438 3.4297 -4.1016 Q3.5625 -4.3594 3.625 -4.5859 Q3.6875 -4.8125 3.6875 -5.0469 Q3.6875 -5.4062 3.5703 -5.6875 Q3.4531 -5.9688 3.2109 -6.1328 Q2.9688 -6.2969 2.5938 -6.2969 Q1.6875 -6.2969 1.375 -5.2812 L0.7812 -5.2812 L0.7812 -6.2188 Q1.375 -6.5 1.8828 -6.625 Q2.3906 -6.75 2.8125 -6.75 Q3.7188 -6.75 4.1797 -6.3516 Q4.6406 -5.9531 4.6406 -5.1875 Q4.6406 -4.9375 4.5938 -4.7188 Q4.5469 -4.5 4.4375 -4.2891 Q4.3281 -4.0781 4.1406 -3.8281 Q3.9531 -3.5781 3.7266 -3.3281 Q3.5 -3.0781 2.9531 -2.5 Q2.0156 -1.5156 1.5938 -0.7812 L3.4219 -0.7812 Z" stroke="none"/></g><g text-rendering="optimizeLegibility" transform="translate(38.6856,31.7286)" color-rendering="optimizeQuality" color-interpolation="linearRGB" image-rendering="optimizeQuality"><path d="M4.7969 -1.0938 Q5.1406 -1.0938 5.3438 -1.1328 Q5.5469 -1.1719 5.6719 -1.2734 Q5.7969 -1.375 5.8672 -1.5234 Q5.9375 -1.6719 6.0469 -2 L6.625 -2 L6.5156 0 L0.875 0 L0.875 -0.3281 Q1.1719 -1.0469 1.6719 -1.7969 Q2.1719 -2.5469 3.0938 -3.5625 Q3.8906 -4.4375 4.2344 -4.8906 Q4.6094 -5.3906 4.7969 -5.75 Q4.9844 -6.1094 5.0703 -6.4219 Q5.1562 -6.7344 5.1562 -7.0625 Q5.1562 -7.5781 4.9922 -7.9688 Q4.8281 -8.3594 4.4922 -8.5859 Q4.1562 -8.8125 3.6406 -8.8125 Q2.3594 -8.8125 1.9219 -7.3906 L1.0938 -7.3906 L1.0938 -8.7031 Q1.9219 -9.0938 2.6406 -9.2656 Q3.3594 -9.4375 3.9375 -9.4375 Q5.2031 -9.4375 5.8516 -8.8828 Q6.5 -8.3281 6.5 -7.2656 Q6.5 -6.9062 6.4297 -6.6016 Q6.3594 -6.2969 6.2031 -6 Q6.0469 -5.7031 5.7891 -5.3594 Q5.5312 -5.0156 5.2188 -4.6641 Q4.9062 -4.3125 4.125 -3.5 Q2.8281 -2.125 2.2188 -1.0938 L4.7969 -1.0938 Z" stroke="none"/></g><g text-rendering="optimizeLegibility" transform="translate(45.3106,31.7286)" color-rendering="optimizeQuality" color-interpolation="linearRGB" image-rendering="optimizeQuality"><path d="M8.1562 -5.6875 L6.5938 -5.6875 L5.6406 -1.4688 Q5.5938 -1.2656 5.5938 -1.0938 Q5.5938 -0.6094 6 -0.6094 Q6.2969 -0.6094 6.7969 -1.125 L7.0625 -0.7656 Q6.2344 0.1094 5.4531 0.1094 Q4.4844 0.1094 4.4844 -0.9375 Q4.4844 -1.2656 4.5625 -1.625 L5.4688 -5.6875 L3.4844 -5.6875 L2.2188 0 L0.8281 0 L0.8906 -0.3281 Q1.4844 -0.8906 2.1406 -3.7031 L2.6094 -5.6875 L2.5156 -5.6875 Q1.2969 -5.6875 0.6562 -4.8281 L0.3281 -5.2031 Q1.2969 -6.5312 2.7969 -6.5312 L8.3438 -6.5312 L8.1562 -5.6875 Z" stroke="none"/></g></g></svg>