<?xml version="1.0" encoding="UTF-8" standalone="no"?><svg xmlns="http://www.w3.org/2000/svg" xmlns:xlink="http://www.w3.org/1999/xlink" stroke-dasharray="none" shape-rendering="auto" font-family="'Dialog'" width="19.812600" text-rendering="auto" fill-opacity="1" contentScriptType="text/ecmascript" color-interpolation="auto" color-rendering="auto" preserveAspectRatio="xMidYMid meet" font-size="12" fill="black" stroke="black" image-rendering="auto" stroke-miterlimit="10" zoomAndPan="magnify" version="1.0" stroke-linecap="square" stroke-linejoin="miter" contentStyleType="text/css" font-style="normal" height="18" stroke-width="1" stroke-dashoffset="0" font-weight="normal" stroke-opacity="1" y="-4.000000"><!--Converted from MathML using JEuclid--><defs id="genericDefs"/><g><g text-rendering="optimizeLegibility" transform="translate(0.9062,14)" color-rendering="optimizeQuality" color-interpolation="linearRGB" image-rendering="optimizeQuality"><path d="M6.625 0 L6.7344 -0.4844 Q7.1719 -0.5156 7.4219 -0.7344 Q7.6719 -0.9531 7.7734 -1.3281 Q7.875 -1.7031 7.875 -2.3281 Q7.875 -2.7188 7.8438 -3.1719 L7.7812 -4.4219 L3.4844 -4.4219 L2.9375 -3.4688 Q2.5625 -2.7969 2.3828 -2.3125 Q2.2031 -1.8281 2.2031 -1.4531 Q2.2031 -0.6406 3.1875 -0.4844 L3.0938 0 L-0.9062 0 L-0.7969 -0.4844 Q-0.5 -0.5156 -0.2266 -0.7188 Q0.0469 -0.9219 0.3438 -1.3281 Q0.6406 -1.7344 1.1875 -2.6719 L7.4531 -13.4844 L8.9219 -13.4844 L9.625 -2.5938 Q9.6719 -1.8281 9.8047 -1.3906 Q9.9375 -0.9531 10.1562 -0.7422 Q10.375 -0.5312 10.7969 -0.4844 L10.6875 0 L6.625 0 ZM3.9219 -5.2812 L7.7344 -5.2812 L7.5625 -8.4219 Q7.5469 -9.0625 7.5234 -10.0312 Q7.5 -11 7.5 -11.4219 L7.3906 -11.4219 L3.9219 -5.2812 Z" stroke="none"/></g><g text-rendering="optimizeLegibility" transform="translate(11.7031,17.2656)" color-rendering="optimizeQuality" color-interpolation="linearRGB" image-rendering="optimizeQuality"><path d="M2.7969 0.1094 Q1.7344 0.1094 1.1484 -0.4844 Q0.5625 -1.0781 0.5625 -2.1875 Q0.5625 -2.5938 0.6719 -3.1562 Q0.7969 -3.875 1.0469 -4.4219 Q1.3438 -5.1094 1.8281 -5.6172 Q2.3125 -6.125 2.9375 -6.3828 Q3.5625 -6.6406 4.2812 -6.6406 Q5.0625 -6.6406 5.5703 -6.3438 Q6.0781 -6.0469 6.2969 -5.5312 Q6.5156 -5.0156 6.5156 -4.3281 Q6.5156 -3.7188 6.3438 -3.0312 Q6.1094 -2.0312 5.6328 -1.3203 Q5.1562 -0.6094 4.4453 -0.25 Q3.7344 0.1094 2.7969 0.1094 ZM1.7656 -1.8906 Q1.7656 -1.1406 2.0781 -0.7812 Q2.3906 -0.4219 3.0156 -0.4219 Q3.6875 -0.4219 4.2031 -1.0234 Q4.7188 -1.625 5.0234 -2.7109 Q5.3281 -3.7969 5.3281 -4.6094 Q5.3281 -5.3594 5.0391 -5.7266 Q4.75 -6.0938 4.1406 -6.0938 Q3.4375 -6.0938 2.9062 -5.5 Q2.375 -4.9062 2.0703 -3.7969 Q1.7656 -2.6875 1.7656 -1.8906 Z" stroke="none"/></g></g></svg>