<?xml version="1.0" encoding="UTF-8" standalone="no"?><svg xmlns="http://www.w3.org/2000/svg" xmlns:xlink="http://www.w3.org/1999/xlink" stroke-dasharray="none" shape-rendering="auto" font-family="'Dialog'" width="420.812600" text-rendering="auto" fill-opacity="1" contentScriptType="text/ecmascript" color-interpolation="auto" color-rendering="auto" preserveAspectRatio="xMidYMid meet" font-size="12" fill="black" stroke="black" image-rendering="auto" stroke-miterlimit="10" zoomAndPan="magnify" version="1.0" stroke-linecap="square" stroke-linejoin="miter" contentStyleType="text/css" font-style="normal" height="33" stroke-width="1" stroke-dashoffset="0" font-weight="normal" stroke-opacity="1" y="-9.000000"><!--Converted from MathML using JEuclid--><defs id="genericDefs"/><g><g text-rendering="optimizeLegibility" transform="translate(0,24)" color-rendering="optimizeQuality" color-interpolation="linearRGB" image-rendering="optimizeQuality"><path d="M3.6719 -2.8438 Q3.5469 -2.2656 3.5078 -1.9297 Q3.4688 -1.5938 3.4688 -1.3125 Q3.4688 -0.875 3.6875 -0.6953 Q3.9062 -0.5156 4.4219 -0.4844 L4.3125 0 L0.4062 0 L0.5156 -0.4844 Q0.8906 -0.5312 1.0781 -0.6641 Q1.2656 -0.7969 1.3906 -1.0312 Q1.5156 -1.2656 1.625 -1.6016 Q1.7344 -1.9375 1.9375 -2.9062 L3.6094 -10.4375 Q3.7031 -10.875 3.7578 -11.2891 Q3.8125 -11.7031 3.8125 -12 Q3.8125 -12.4688 3.5781 -12.6484 Q3.3438 -12.8281 2.8594 -12.8594 L2.9688 -13.3281 L6.875 -13.3281 L6.7656 -12.8594 Q6.3906 -12.7812 6.2344 -12.6797 Q6.0781 -12.5781 5.9453 -12.3828 Q5.8125 -12.1875 5.6797 -11.7734 Q5.5469 -11.3594 5.3438 -10.4219 L3.6719 -2.8438 Z" stroke="none"/></g><g text-rendering="optimizeLegibility" transform="translate(6.875,28.5547)" color-rendering="optimizeQuality" color-interpolation="linearRGB" image-rendering="optimizeQuality"><path d="M3.8281 -9.2188 L3.5156 -7.8906 L2.2969 -7.8906 L2.625 -9.2188 L3.8281 -9.2188 ZM2.1406 -1.7031 Q2.0625 -1.3594 2.0469 -1.2031 Q2.0312 -1.0469 2.0312 -0.9375 Q2.0312 -0.7188 2.0938 -0.6094 Q2.1562 -0.5 2.3047 -0.4375 Q2.4531 -0.375 2.7812 -0.3281 L2.7188 0 L0.5938 0 L1.625 -4.6094 Q1.7188 -5 1.75 -5.2344 Q1.7812 -5.4688 1.7812 -5.6406 Q1.7812 -5.8281 1.7266 -5.9375 Q1.6719 -6.0469 1.5312 -6.1016 Q1.3906 -6.1562 1.0625 -6.1719 L1.1406 -6.5312 L2.7969 -6.5938 L3.2031 -6.5938 L2.1406 -1.7031 Z" stroke="none"/></g><g text-rendering="optimizeLegibility" transform="translate(10.7031,28.5547)" color-rendering="optimizeQuality" color-interpolation="linearRGB" image-rendering="optimizeQuality"><path d="M6.4531 0 L4.2969 0 L5.1562 -3.4688 Q5.25 -3.8125 5.3281 -4.2109 Q5.4062 -4.6094 5.4062 -4.9375 Q5.4062 -5.4219 5.2344 -5.6328 Q5.0625 -5.8438 4.7031 -5.8438 Q4.4219 -5.8438 4.0938 -5.625 Q3.7656 -5.4062 3.3984 -4.9609 Q3.0312 -4.5156 2.7812 -4.0625 Q2.5312 -3.6094 2.4062 -2.9531 L1.7812 0 L0.5938 0 L1.6406 -4.6719 Q1.6719 -4.8281 1.7266 -5.1328 Q1.7812 -5.4375 1.7812 -5.6406 Q1.7812 -5.8438 1.7266 -5.9453 Q1.6719 -6.0469 1.5312 -6.1016 Q1.3906 -6.1562 1.0469 -6.1719 L1.1406 -6.5312 L2.6875 -6.5938 L3.0781 -6.5938 L2.625 -4.8125 L2.7031 -4.7969 Q3.375 -5.7344 3.9922 -6.1875 Q4.6094 -6.6406 5.2344 -6.6406 Q5.9062 -6.6406 6.2422 -6.2734 Q6.5781 -5.9062 6.5781 -5.2031 Q6.5781 -4.9531 6.5391 -4.6641 Q6.5 -4.375 6.4375 -4.1406 L5.8594 -1.7031 Q5.75 -1.2188 5.75 -0.9375 Q5.75 -0.7188 5.8203 -0.6094 Q5.8906 -0.5 6.0312 -0.4375 Q6.1719 -0.375 6.5 -0.3281 L6.4531 0 Z" stroke="none"/></g><g text-rendering="optimizeLegibility" transform="translate(17.2812,28.5547)" color-rendering="optimizeQuality" color-interpolation="linearRGB" image-rendering="optimizeQuality"><path d="M5.0312 -4.8906 Q5.0156 -5.4219 4.9453 -5.6484 Q4.875 -5.875 4.7109 -5.9922 Q4.5469 -6.1094 4.25 -6.1094 Q3.5625 -6.1094 3.0156 -5.5625 Q2.4688 -5.0156 2.1172 -4.0078 Q1.7656 -3 1.7656 -2.0625 Q1.7656 -1.7812 1.8125 -1.5234 Q1.8594 -1.2656 1.9922 -1.0859 Q2.125 -0.9062 2.3281 -0.7969 Q2.5312 -0.6875 2.8594 -0.6875 Q3.4844 -0.6875 3.9375 -0.9219 Q4.3906 -1.1562 4.8906 -1.6719 L5.3125 -1.25 Q4.6719 -0.5469 4.0156 -0.2188 Q3.3594 0.1094 2.6094 0.1094 Q1.625 0.1094 1.1094 -0.4766 Q0.5938 -1.0625 0.5938 -2.1875 Q0.5938 -2.9062 0.8672 -3.7812 Q1.1406 -4.6562 1.6641 -5.3203 Q2.1875 -5.9844 2.8984 -6.3125 Q3.6094 -6.6406 4.4062 -6.6406 Q4.9531 -6.6406 5.3594 -6.5781 Q5.7656 -6.5156 6.0781 -6.4375 L5.75 -4.8906 L5.0312 -4.8906 Z" stroke="none"/></g><g text-rendering="optimizeLegibility" transform="translate(24.1406,24)" color-rendering="optimizeQuality" color-interpolation="linearRGB" image-rendering="optimizeQuality"><path d="M1.2188 -7.0625 L1.2188 -8.4219 L9.8594 -8.4219 L9.8594 -7.0625 L1.2188 -7.0625 ZM1.2188 -3.0156 L1.2188 -4.3594 L9.8594 -4.3594 L9.8594 -3.0156 L1.2188 -3.0156 Z" stroke="none"/></g><g text-rendering="optimizeLegibility" stroke-width="1.6667" color-interpolation="linearRGB" color-rendering="optimizeQuality" image-rendering="optimizeQuality"><line y2="16.78" fill="none" x1="37.6778" x2="47.1934" y1="16.78"/><path d="M6.7812 -2.5469 Q6.7812 -1.9844 6.8516 -1.6953 Q6.9219 -1.4062 7.0781 -1.2266 Q7.2344 -1.0469 7.5391 -0.9453 Q7.8438 -0.8438 8.3047 -0.7891 Q8.7656 -0.7344 9.5156 -0.7188 L9.5156 0 L2.2969 0 L2.2969 -0.7188 Q3.375 -0.7656 3.8438 -0.8438 Q4.3125 -0.9219 4.5547 -1.0938 Q4.7969 -1.2656 4.9062 -1.5625 Q5.0156 -1.8594 5.0156 -2.5469 L5.0156 -10.4688 Q5.0156 -10.8594 4.8828 -11.0391 Q4.75 -11.2188 4.4844 -11.2188 Q4.1719 -11.2188 3.5938 -10.8984 Q3.0156 -10.5781 2.1719 -10.0156 L1.7344 -10.7656 L6.3125 -13.4844 L6.8438 -13.4844 Q6.7812 -12.5469 6.7812 -10.8906 L6.7812 -2.5469 Z" stroke-width="1" transform="translate(37.6778,14.2689)" stroke="none"/></g><g text-rendering="optimizeLegibility" transform="translate(37.7012,32.7755)" color-rendering="optimizeQuality" color-interpolation="linearRGB" image-rendering="optimizeQuality"><path d="M6.8594 -1.5625 Q7.3281 -1.5625 7.625 -1.625 Q7.9219 -1.6875 8.0938 -1.8203 Q8.2656 -1.9531 8.375 -2.1719 Q8.4844 -2.3906 8.6406 -2.8594 L9.4688 -2.8594 L9.2969 0 L1.2656 0 L1.2656 -0.4688 Q1.6875 -1.5 2.3984 -2.5703 Q3.1094 -3.6406 4.4219 -5.0938 Q5.5469 -6.3438 6.0469 -7 Q6.5938 -7.7031 6.8594 -8.2109 Q7.125 -8.7188 7.2422 -9.1719 Q7.3594 -9.625 7.3594 -10.0938 Q7.3594 -10.8281 7.125 -11.3828 Q6.8906 -11.9375 6.4062 -12.2656 Q5.9219 -12.5938 5.2031 -12.5938 Q3.375 -12.5938 2.7344 -10.5625 L1.5469 -10.5625 L1.5469 -12.4375 Q2.7344 -12.9844 3.7656 -13.2344 Q4.7969 -13.4844 5.6094 -13.4844 Q7.4375 -13.4844 8.3594 -12.6875 Q9.2812 -11.8906 9.2812 -10.375 Q9.2812 -9.8594 9.1797 -9.4297 Q9.0781 -9 8.8594 -8.5703 Q8.6406 -8.1406 8.2734 -7.6562 Q7.9062 -7.1719 7.4531 -6.6641 Q7 -6.1562 5.9062 -4.9844 Q4.0469 -3.0312 3.1719 -1.5625 L6.8594 -1.5625 Z" stroke="none"/></g><g text-rendering="optimizeLegibility" transform="translate(50.616,24)" color-rendering="optimizeQuality" color-interpolation="linearRGB" image-rendering="optimizeQuality"><path d="M2.0938 1.7344 Q2 2.2031 1.9688 2.4531 Q1.9375 2.7031 1.9375 2.875 Q1.9375 3.1719 2.0391 3.3359 Q2.1406 3.5 2.3438 3.5859 Q2.5469 3.6719 3.0156 3.7188 L2.9375 4.2031 L-0.0781 4.2031 L2.3906 -6.6562 Q2.5781 -7.4844 2.5781 -8.0625 Q2.5781 -8.3438 2.4922 -8.4922 Q2.4062 -8.6406 2.2109 -8.7188 Q2.0156 -8.7969 1.5312 -8.8125 L1.6562 -9.3438 L3.875 -9.4219 L4.4219 -9.4219 L3.7656 -6.8906 L3.8906 -6.8438 Q5.6875 -9.5 7.4844 -9.5 Q8.5469 -9.5 9.1406 -8.6875 Q9.7344 -7.875 9.7344 -6.3906 Q9.7344 -5.3438 9.4453 -4.2812 Q9.1562 -3.2188 8.6406 -2.3594 Q8.125 -1.5 7.4922 -0.9453 Q6.8594 -0.3906 6.1641 -0.1172 Q5.4688 0.1562 4.7031 0.1562 Q3.4062 0.1562 2.5469 -0.4062 L2.0938 1.7344 ZM3.2656 -3.4062 Q3.1719 -2.875 3.1406 -2.6016 Q3.1094 -2.3281 3.1094 -2.0781 Q3.1094 -1.3125 3.4375 -0.9609 Q3.7656 -0.6094 4.5781 -0.6094 Q5.0625 -0.6094 5.4844 -0.8047 Q5.9062 -1 6.2812 -1.375 Q6.6562 -1.75 6.9609 -2.2734 Q7.2656 -2.7969 7.5078 -3.5 Q7.75 -4.2031 7.8672 -4.9375 Q7.9844 -5.6719 7.9844 -6.3125 Q7.9844 -7.3438 7.6953 -7.8438 Q7.4062 -8.3438 6.7812 -8.3438 Q6.2969 -8.3438 5.8125 -8.0078 Q5.3281 -7.6719 4.75 -6.9297 Q4.1719 -6.1875 3.8516 -5.4688 Q3.5312 -4.75 3.3438 -3.8125 L3.2656 -3.4062 Z" stroke="none"/></g><g text-rendering="optimizeLegibility" transform="translate(60.3503,32.7578)" color-rendering="optimizeQuality" color-interpolation="linearRGB" image-rendering="optimizeQuality"><path d="M3.8281 -9.2188 L3.5156 -7.8906 L2.2969 -7.8906 L2.625 -9.2188 L3.8281 -9.2188 ZM2.1406 -1.7031 Q2.0625 -1.3594 2.0469 -1.2031 Q2.0312 -1.0469 2.0312 -0.9375 Q2.0312 -0.7188 2.0938 -0.6094 Q2.1562 -0.5 2.3047 -0.4375 Q2.4531 -0.375 2.7812 -0.3281 L2.7188 0 L0.5938 0 L1.625 -4.6094 Q1.7188 -5 1.75 -5.2344 Q1.7812 -5.4688 1.7812 -5.6406 Q1.7812 -5.8281 1.7266 -5.9375 Q1.6719 -6.0469 1.5312 -6.1016 Q1.3906 -6.1562 1.0625 -6.1719 L1.1406 -6.5312 L2.7969 -6.5938 L3.2031 -6.5938 L2.1406 -1.7031 Z" stroke="none"/></g><g text-rendering="optimizeLegibility" transform="translate(64.1785,32.7578)" color-rendering="optimizeQuality" color-interpolation="linearRGB" image-rendering="optimizeQuality"><path d="M6.4531 0 L4.2969 0 L5.1562 -3.4688 Q5.25 -3.8125 5.3281 -4.2109 Q5.4062 -4.6094 5.4062 -4.9375 Q5.4062 -5.4219 5.2344 -5.6328 Q5.0625 -5.8438 4.7031 -5.8438 Q4.4219 -5.8438 4.0938 -5.625 Q3.7656 -5.4062 3.3984 -4.9609 Q3.0312 -4.5156 2.7812 -4.0625 Q2.5312 -3.6094 2.4062 -2.9531 L1.7812 0 L0.5938 0 L1.6406 -4.6719 Q1.6719 -4.8281 1.7266 -5.1328 Q1.7812 -5.4375 1.7812 -5.6406 Q1.7812 -5.8438 1.7266 -5.9453 Q1.6719 -6.0469 1.5312 -6.1016 Q1.3906 -6.1562 1.0469 -6.1719 L1.1406 -6.5312 L2.6875 -6.5938 L3.0781 -6.5938 L2.625 -4.8125 L2.7031 -4.7969 Q3.375 -5.7344 3.9922 -6.1875 Q4.6094 -6.6406 5.2344 -6.6406 Q5.9062 -6.6406 6.2422 -6.2734 Q6.5781 -5.9062 6.5781 -5.2031 Q6.5781 -4.9531 6.5391 -4.6641 Q6.5 -4.375 6.4375 -4.1406 L5.8594 -1.7031 Q5.75 -1.2188 5.75 -0.9375 Q5.75 -0.7188 5.8203 -0.6094 Q5.8906 -0.5 6.0312 -0.4375 Q6.1719 -0.375 6.5 -0.3281 L6.4531 0 Z" stroke="none"/></g><g text-rendering="optimizeLegibility" transform="translate(70.7566,32.7578)" color-rendering="optimizeQuality" color-interpolation="linearRGB" image-rendering="optimizeQuality"><path d="M5.0312 -4.8906 Q5.0156 -5.4219 4.9453 -5.6484 Q4.875 -5.875 4.7109 -5.9922 Q4.5469 -6.1094 4.25 -6.1094 Q3.5625 -6.1094 3.0156 -5.5625 Q2.4688 -5.0156 2.1172 -4.0078 Q1.7656 -3 1.7656 -2.0625 Q1.7656 -1.7812 1.8125 -1.5234 Q1.8594 -1.2656 1.9922 -1.0859 Q2.125 -0.9062 2.3281 -0.7969 Q2.5312 -0.6875 2.8594 -0.6875 Q3.4844 -0.6875 3.9375 -0.9219 Q4.3906 -1.1562 4.8906 -1.6719 L5.3125 -1.25 Q4.6719 -0.5469 4.0156 -0.2188 Q3.3594 0.1094 2.6094 0.1094 Q1.625 0.1094 1.1094 -0.4766 Q0.5938 -1.0625 0.5938 -2.1875 Q0.5938 -2.9062 0.8672 -3.7812 Q1.1406 -4.6562 1.6641 -5.3203 Q2.1875 -5.9844 2.8984 -6.3125 Q3.6094 -6.6406 4.4062 -6.6406 Q4.9531 -6.6406 5.3594 -6.5781 Q5.7656 -6.5156 6.0781 -6.4375 L5.75 -4.8906 L5.0312 -4.8906 Z" stroke="none"/></g><g text-rendering="optimizeLegibility" transform="translate(77.0691,24)" color-rendering="optimizeQuality" color-interpolation="linearRGB" image-rendering="optimizeQuality"><path d="M7.2188 4.25 Q5.5625 4.25 4.5078 3.75 Q3.4531 3.25 2.8672 2.2344 Q2.2812 1.2188 2.0234 -0.4141 Q1.7656 -2.0469 1.7656 -4.8438 Q1.7656 -7.625 2.0234 -9.2656 Q2.2812 -10.9062 2.8672 -11.9453 Q3.4531 -12.9844 4.5078 -13.5 Q5.5625 -14.0156 7.2188 -14.0156 L7.2188 -13.2188 Q6.5312 -13.2188 6 -13.0938 Q5.4062 -12.9531 4.9844 -12.5625 Q4.5156 -12.1406 4.2344 -11.375 Q3.8906 -10.4688 3.7188 -8.9844 Q3.5469 -7.4062 3.5469 -4.9219 Q3.5469 -2.7188 3.6953 -1.1797 Q3.8438 0.3594 4.1875 1.3281 Q4.4531 2.1562 4.8594 2.6094 Q5.2188 3.0156 5.7188 3.2188 Q6.2969 3.4531 7.2188 3.4531 L7.2188 4.25 Z" stroke="none"/></g><g text-rendering="optimizeLegibility" transform="translate(86.2878,24)" color-rendering="optimizeQuality" color-interpolation="linearRGB" image-rendering="optimizeQuality"><path d="M9.2031 0 L6.1406 0 L7.375 -4.9688 Q7.4844 -5.4375 7.6016 -6.0156 Q7.7188 -6.5938 7.7188 -7.0469 Q7.7188 -7.75 7.4766 -8.0469 Q7.2344 -8.3438 6.7344 -8.3438 Q6.3125 -8.3438 5.8438 -8.0312 Q5.375 -7.7188 4.8594 -7.0859 Q4.3438 -6.4531 3.9844 -5.8047 Q3.625 -5.1562 3.4219 -4.2344 L2.5469 0 L0.8438 0 L2.3281 -6.6719 Q2.3906 -6.8906 2.4688 -7.3359 Q2.5469 -7.7812 2.5469 -8.0625 Q2.5469 -8.3438 2.4688 -8.4922 Q2.3906 -8.6406 2.1875 -8.7188 Q1.9844 -8.7969 1.5 -8.8125 L1.625 -9.3438 L3.8438 -9.4219 L4.3906 -9.4219 L3.7344 -6.8906 L3.8594 -6.8438 Q4.8125 -8.1875 5.7031 -8.8438 Q6.5938 -9.5 7.4844 -9.5 Q8.4219 -9.5 8.9141 -8.9766 Q9.4062 -8.4531 9.4062 -7.4219 Q9.4062 -7.0781 9.3438 -6.6562 Q9.2812 -6.2344 9.2031 -5.9219 L8.375 -2.4375 Q8.2188 -1.7344 8.2188 -1.3281 Q8.2188 -1.0312 8.3125 -0.8672 Q8.4062 -0.7031 8.6094 -0.6172 Q8.8125 -0.5312 9.2812 -0.4844 L9.2031 0 Z" stroke="none"/></g><g text-rendering="optimizeLegibility" transform="translate(84.7679,18.1094) matrix(1.4098,0,0,1,0,0)" color-rendering="optimizeQuality" color-interpolation="linearRGB" image-rendering="optimizeQuality"><path d="M5.6406 -4.6094 L3.875 -8.5 L2.1094 -4.6094 L1.0781 -4.6094 L3.3906 -9.4375 L4.375 -9.4375 L6.6719 -4.6094 L5.6406 -4.6094 Z" stroke="none"/></g><g text-rendering="optimizeLegibility" transform="translate(96.0066,24)" color-rendering="optimizeQuality" color-interpolation="linearRGB" image-rendering="optimizeQuality"><path d="M2.8281 -6.9062 Q3.3281 -6.9062 3.6406 -6.5703 Q3.9531 -6.2344 3.9531 -5.7188 Q3.9531 -5.1875 3.6406 -4.8516 Q3.3281 -4.5156 2.8281 -4.5156 Q2.3281 -4.5156 2.0078 -4.8516 Q1.6875 -5.1875 1.6875 -5.7188 Q1.6875 -6.2344 2.0078 -6.5703 Q2.3281 -6.9062 2.8281 -6.9062 Z" stroke="none"/></g><g text-rendering="optimizeLegibility" transform="translate(102.3425,24)" color-rendering="optimizeQuality" color-interpolation="linearRGB" image-rendering="optimizeQuality"><path d="M9.125 -9.3438 L9.3906 -8.8438 Q9.0312 -7.9844 8.8359 -7.5625 Q8.6406 -7.1406 8.3125 -6.5078 Q7.9844 -5.875 7.5781 -5.1875 Q7.1719 -4.5 6.6562 -3.7031 Q6.1406 -2.9062 5.4844 -1.9609 Q4.8281 -1.0156 3.9375 0.1562 L2.7188 0.1562 L1.8125 -7.2188 Q1.7188 -7.9375 1.6172 -8.2422 Q1.5156 -8.5469 1.3203 -8.6875 Q1.125 -8.8281 0.7031 -8.8594 L0.8125 -9.3438 L3.3281 -9.3438 L4.0625 -1.5781 Q5.75 -3.8906 6.5547 -5.4688 Q7.3594 -7.0469 7.3594 -8.0312 Q7.3594 -8.5 7.1641 -8.6641 Q6.9688 -8.8281 6.5 -8.8594 L6.6094 -9.3438 L9.125 -9.3438 Z" stroke="none"/></g><g text-rendering="optimizeLegibility" transform="translate(101.1785,17.2031)" color-rendering="optimizeQuality" color-interpolation="linearRGB" image-rendering="optimizeQuality"><path d="M0.7812 -4.4531 L9.2812 -4.4531 L7.7344 -6.5781 L8.1406 -6.9531 L10.9375 -4.2188 L10.9375 -3.5469 L0.7812 -3.5469 L0.7812 -4.4531 Z" stroke="none"/></g><g text-rendering="optimizeLegibility" transform="translate(112.116,28.7109)" color-rendering="optimizeQuality" color-interpolation="linearRGB" image-rendering="optimizeQuality"><path d="M3.8281 -9.2188 L3.5156 -7.8906 L2.2969 -7.8906 L2.625 -9.2188 L3.8281 -9.2188 ZM2.1406 -1.7031 Q2.0625 -1.3594 2.0469 -1.2031 Q2.0312 -1.0469 2.0312 -0.9375 Q2.0312 -0.7188 2.0938 -0.6094 Q2.1562 -0.5 2.3047 -0.4375 Q2.4531 -0.375 2.7812 -0.3281 L2.7188 0 L0.5938 0 L1.625 -4.6094 Q1.7188 -5 1.75 -5.2344 Q1.7812 -5.4688 1.7812 -5.6406 Q1.7812 -5.8281 1.7266 -5.9375 Q1.6719 -6.0469 1.5312 -6.1016 Q1.3906 -6.1562 1.0625 -6.1719 L1.1406 -6.5312 L2.7969 -6.5938 L3.2031 -6.5938 L2.1406 -1.7031 Z" stroke="none"/></g><g text-rendering="optimizeLegibility" transform="translate(115.9441,28.7109)" color-rendering="optimizeQuality" color-interpolation="linearRGB" image-rendering="optimizeQuality"><path d="M6.4531 0 L4.2969 0 L5.1562 -3.4688 Q5.25 -3.8125 5.3281 -4.2109 Q5.4062 -4.6094 5.4062 -4.9375 Q5.4062 -5.4219 5.2344 -5.6328 Q5.0625 -5.8438 4.7031 -5.8438 Q4.4219 -5.8438 4.0938 -5.625 Q3.7656 -5.4062 3.3984 -4.9609 Q3.0312 -4.5156 2.7812 -4.0625 Q2.5312 -3.6094 2.4062 -2.9531 L1.7812 0 L0.5938 0 L1.6406 -4.6719 Q1.6719 -4.8281 1.7266 -5.1328 Q1.7812 -5.4375 1.7812 -5.6406 Q1.7812 -5.8438 1.7266 -5.9453 Q1.6719 -6.0469 1.5312 -6.1016 Q1.3906 -6.1562 1.0469 -6.1719 L1.1406 -6.5312 L2.6875 -6.5938 L3.0781 -6.5938 L2.625 -4.8125 L2.7031 -4.7969 Q3.375 -5.7344 3.9922 -6.1875 Q4.6094 -6.6406 5.2344 -6.6406 Q5.9062 -6.6406 6.2422 -6.2734 Q6.5781 -5.9062 6.5781 -5.2031 Q6.5781 -4.9531 6.5391 -4.6641 Q6.5 -4.375 6.4375 -4.1406 L5.8594 -1.7031 Q5.75 -1.2188 5.75 -0.9375 Q5.75 -0.7188 5.8203 -0.6094 Q5.8906 -0.5 6.0312 -0.4375 Q6.1719 -0.375 6.5 -0.3281 L6.4531 0 Z" stroke="none"/></g><g text-rendering="optimizeLegibility" transform="translate(122.5222,28.7109)" color-rendering="optimizeQuality" color-interpolation="linearRGB" image-rendering="optimizeQuality"><path d="M5.0312 -4.8906 Q5.0156 -5.4219 4.9453 -5.6484 Q4.875 -5.875 4.7109 -5.9922 Q4.5469 -6.1094 4.25 -6.1094 Q3.5625 -6.1094 3.0156 -5.5625 Q2.4688 -5.0156 2.1172 -4.0078 Q1.7656 -3 1.7656 -2.0625 Q1.7656 -1.7812 1.8125 -1.5234 Q1.8594 -1.2656 1.9922 -1.0859 Q2.125 -0.9062 2.3281 -0.7969 Q2.5312 -0.6875 2.8594 -0.6875 Q3.4844 -0.6875 3.9375 -0.9219 Q4.3906 -1.1562 4.8906 -1.6719 L5.3125 -1.25 Q4.6719 -0.5469 4.0156 -0.2188 Q3.3594 0.1094 2.6094 0.1094 Q1.625 0.1094 1.1094 -0.4766 Q0.5938 -1.0625 0.5938 -2.1875 Q0.5938 -2.9062 0.8672 -3.7812 Q1.1406 -4.6562 1.6641 -5.3203 Q2.1875 -5.9844 2.8984 -6.3125 Q3.6094 -6.6406 4.4062 -6.6406 Q4.9531 -6.6406 5.3594 -6.5781 Q5.7656 -6.5156 6.0781 -6.4375 L5.75 -4.8906 L5.0312 -4.8906 Z" stroke="none"/></g><g text-rendering="optimizeLegibility" transform="translate(129.8347,24)" color-rendering="optimizeQuality" color-interpolation="linearRGB" image-rendering="optimizeQuality"><path d="M7.7812 -8.9844 L7.1562 -7.9062 L4.6406 -9.6719 L4.9219 -6.6094 L3.6406 -6.6094 L3.9219 -9.6719 L1.4062 -7.9062 L0.7656 -8.9844 L3.5625 -10.2969 L0.7656 -11.5938 L1.4062 -12.6875 L3.9219 -10.9219 L3.6406 -13.9688 L4.9219 -13.9688 L4.6406 -10.9219 L7.1562 -12.6875 L7.7812 -11.5938 L5 -10.2969 L7.7812 -8.9844 Z" stroke="none"/></g><g text-rendering="optimizeLegibility" transform="translate(141.1941,24)" color-rendering="optimizeQuality" color-interpolation="linearRGB" image-rendering="optimizeQuality"><path d="M0.4219 -14.0156 Q2.0781 -14.0156 3.1328 -13.5156 Q4.1875 -13.0156 4.7734 -12 Q5.3594 -10.9844 5.6172 -9.3516 Q5.875 -7.7188 5.875 -4.9219 Q5.875 -2.1562 5.6172 -0.5078 Q5.3594 1.1406 4.7734 2.1797 Q4.1875 3.2188 3.1328 3.7344 Q2.0781 4.25 0.4219 4.25 L0.4219 3.4531 Q1.1094 3.4531 1.625 3.3281 Q2.2344 3.1875 2.6406 2.7969 Q3.1094 2.375 3.4062 1.6094 Q3.75 0.7031 3.9219 -0.7812 Q4.0938 -2.3594 4.0938 -4.8438 Q4.0938 -7.0469 3.9453 -8.5859 Q3.7969 -10.125 3.4531 -11.0938 Q3.1875 -11.9219 2.7812 -12.375 Q2.4062 -12.7812 1.9219 -12.9844 Q1.3438 -13.2188 0.4219 -13.2188 L0.4219 -14.0156 Z" stroke="none"/></g><g text-rendering="optimizeLegibility" transform="translate(152.8503,24)" color-rendering="optimizeQuality" color-interpolation="linearRGB" image-rendering="optimizeQuality"><path d="M1.2188 -7.0625 L1.2188 -8.4219 L9.8594 -8.4219 L9.8594 -7.0625 L1.2188 -7.0625 ZM1.2188 -3.0156 L1.2188 -4.3594 L9.8594 -4.3594 L9.8594 -3.0156 L1.2188 -3.0156 Z" stroke="none"/></g><g text-rendering="optimizeLegibility" transform="translate(164.7097,24)" color-rendering="optimizeQuality" color-interpolation="linearRGB" image-rendering="optimizeQuality"><path d="M3.7344 -13.1719 L3.7344 -11.2656 L1.9375 -11.2656 L1.9375 -13.1719 L3.7344 -13.1719 ZM0.9531 -0.4844 Q1.3281 -0.5938 1.4922 -0.6797 Q1.6562 -0.7656 1.7656 -0.9219 Q1.875 -1.0781 1.9375 -1.4062 Q2 -1.7344 2 -2.4062 L2 -6.6719 Q2 -7.2969 1.9844 -7.6797 Q1.9688 -8.0625 1.8516 -8.2891 Q1.7344 -8.5156 1.4922 -8.625 Q1.25 -8.7344 0.8125 -8.8125 L0.8125 -9.3438 L3.0938 -9.4219 L3.6875 -9.4219 L3.6875 -2.4375 Q3.6875 -1.6094 3.7656 -1.2812 Q3.8438 -0.9531 4.0625 -0.7812 Q4.2812 -0.6094 4.7812 -0.4844 L4.7812 0 L0.9531 0 L0.9531 -0.4844 ZM16.4531 0 L12.6094 0 L12.6094 -0.4844 Q13 -0.5938 13.1641 -0.6797 Q13.3281 -0.7656 13.4375 -0.9219 Q13.5469 -1.0781 13.6094 -1.4062 Q13.6719 -1.7344 13.6719 -2.4062 L13.6719 -4.9688 Q13.6719 -5.6406 13.6328 -6.2031 Q13.5938 -6.7656 13.5 -7.1172 Q13.4062 -7.4688 13.2812 -7.6719 Q13.1562 -7.875 12.9688 -8.0156 Q12.7812 -8.1562 12.5469 -8.2422 Q12.3125 -8.3281 11.9375 -8.3281 Q11.5625 -8.3281 11.2188 -8.1719 Q10.875 -8.0156 10.4609 -7.6484 Q10.0469 -7.2812 9.8672 -6.9141 Q9.6875 -6.5469 9.6875 -6.0781 L9.6875 -2.4375 Q9.6875 -1.6094 9.7656 -1.2812 Q9.8438 -0.9531 10.0625 -0.7812 Q10.2812 -0.6094 10.7812 -0.4844 L10.7812 0 L6.9531 0 L6.9531 -0.4844 Q7.3281 -0.5938 7.4922 -0.6797 Q7.6562 -0.7656 7.7656 -0.9219 Q7.875 -1.0781 7.9375 -1.4062 Q8 -1.7344 8 -2.4062 L8 -6.6719 Q8 -7.2969 7.9844 -7.6797 Q7.9688 -8.0625 7.8516 -8.2891 Q7.7344 -8.5156 7.4922 -8.625 Q7.25 -8.7344 6.8125 -8.8125 L6.8125 -9.3438 L9.0938 -9.4219 L9.6875 -9.4219 L9.5781 -7.8281 L9.7188 -7.7969 Q10.4375 -8.5312 10.8828 -8.8438 Q11.3281 -9.1562 11.7812 -9.3281 Q12.2344 -9.5 12.75 -9.5 Q13.2812 -9.5 13.6953 -9.375 Q14.1094 -9.25 14.4219 -8.9922 Q14.7344 -8.7344 14.9453 -8.3594 Q15.1562 -7.9844 15.2578 -7.4609 Q15.3594 -6.9375 15.3594 -6.125 L15.3594 -2.4375 Q15.3594 -1.7656 15.3984 -1.4609 Q15.4375 -1.1562 15.5312 -0.9922 Q15.625 -0.8281 15.8125 -0.7188 Q16 -0.6094 16.4531 -0.4844 L16.4531 0 ZM25.2188 -9.1094 L25.2188 -7.0781 L23.9844 -7.0781 Q23.8125 -7.7031 23.5703 -8.0703 Q23.3281 -8.4375 23.0078 -8.5859 Q22.6875 -8.7344 22.2031 -8.7344 Q21.5156 -8.7344 20.9922 -8.2969 Q20.4688 -7.8594 20.1641 -6.9609 Q19.8594 -6.0625 19.8594 -4.75 Q19.8594 -3.9219 19.9766 -3.2344 Q20.0938 -2.5469 20.375 -2.0625 Q20.6562 -1.5781 21.125 -1.3047 Q21.5938 -1.0312 22.2812 -1.0312 Q22.9531 -1.0312 23.5391 -1.2891 Q24.125 -1.5469 24.75 -2.2188 L25.2969 -1.5781 Q24.7969 -1.0312 24.4219 -0.7344 Q24.0469 -0.4375 23.6094 -0.2344 Q23.1719 -0.0312 22.75 0.0625 Q22.3281 0.1562 21.8281 0.1562 Q19.9844 0.1562 19.0078 -1.0703 Q18.0312 -2.2969 18.0312 -4.6094 Q18.0312 -6.0625 18.5781 -7.1797 Q19.125 -8.2969 20.1094 -8.8984 Q21.0938 -9.5 22.375 -9.5 Q23.1875 -9.5 23.8672 -9.4062 Q24.5469 -9.3125 25.2188 -9.1094 ZM29.7344 -13.1719 L29.7344 -11.2656 L27.9375 -11.2656 L27.9375 -13.1719 L29.7344 -13.1719 ZM26.9531 -0.4844 Q27.3281 -0.5938 27.4922 -0.6797 Q27.6562 -0.7656 27.7656 -0.9219 Q27.875 -1.0781 27.9375 -1.4062 Q28 -1.7344 28 -2.4062 L28 -6.6719 Q28 -7.2969 27.9844 -7.6797 Q27.9688 -8.0625 27.8516 -8.2891 Q27.7344 -8.5156 27.4922 -8.625 Q27.25 -8.7344 26.8125 -8.8125 L26.8125 -9.3438 L29.0938 -9.4219 L29.6875 -9.4219 L29.6875 -2.4375 Q29.6875 -1.6094 29.7656 -1.2812 Q29.8438 -0.9531 30.0625 -0.7812 Q30.2812 -0.6094 30.7812 -0.4844 L30.7812 0 L26.9531 0 L26.9531 -0.4844 ZM39.5469 -10.6094 Q39.5469 -11.5469 39.5312 -11.9219 Q39.5156 -12.2969 39.4531 -12.5547 Q39.3906 -12.8125 39.2734 -12.9609 Q39.1562 -13.1094 38.9688 -13.1953 Q38.7812 -13.2812 38.2812 -13.375 L38.2812 -13.875 L40.6406 -13.9688 L41.2188 -13.9688 L41.2188 -2.6719 Q41.2188 -1.9062 41.25 -1.5781 Q41.2812 -1.25 41.375 -1.0547 Q41.4688 -0.8594 41.6797 -0.7344 Q41.8906 -0.6094 42.4219 -0.5156 L42.4219 0 L40.1094 0.0938 L39.5312 0.0938 L39.6406 -1.5 L39.5 -1.5469 Q38.8906 -0.8906 38.4375 -0.5625 Q37.9844 -0.2344 37.4688 -0.0391 Q36.9531 0.1562 36.3594 0.1562 Q34.7656 0.1562 33.8984 -1.0625 Q33.0312 -2.2812 33.0312 -4.5781 Q33.0312 -6.1719 33.5938 -7.2891 Q34.1562 -8.4062 35.1172 -8.9531 Q36.0781 -9.5 37.2812 -9.5 Q37.9219 -9.5 38.4531 -9.3984 Q38.9844 -9.2969 39.5469 -9.0625 L39.5469 -10.6094 ZM39.5469 -5.7969 Q39.5469 -6.5469 39.4766 -7.0078 Q39.4062 -7.4688 39.2422 -7.7812 Q39.0781 -8.0938 38.8047 -8.3125 Q38.5312 -8.5312 38.2031 -8.625 Q37.875 -8.7188 37.4219 -8.7188 Q36.1719 -8.7188 35.5156 -7.7188 Q34.8594 -6.7188 34.8594 -4.8438 Q34.8594 -2.9688 35.3984 -1.9922 Q35.9375 -1.0156 37.0312 -1.0156 Q37.4531 -1.0156 37.7422 -1.0859 Q38.0312 -1.1562 38.3047 -1.3203 Q38.5781 -1.4844 38.8594 -1.7656 Q39.1406 -2.0469 39.2734 -2.2812 Q39.4062 -2.5156 39.4766 -2.8203 Q39.5469 -3.125 39.5469 -3.6094 L39.5469 -5.7969 ZM51.75 -1.6562 Q51.125 -1 50.6016 -0.6328 Q50.0781 -0.2656 49.4531 -0.0547 Q48.8281 0.1562 48.0781 0.1562 Q46.0625 0.1562 45.0391 -1.0469 Q44.0156 -2.25 44.0156 -4.6094 Q44.0156 -6.0625 44.5391 -7.1797 Q45.0625 -8.2969 46.0312 -8.8984 Q47 -9.5 48.25 -9.5 Q49.2344 -9.5 49.9297 -9.1875 Q50.625 -8.875 51.0391 -8.3359 Q51.4531 -7.7969 51.6875 -6.9688 Q51.9219 -6.1406 51.9531 -4.8125 L45.7969 -4.8125 L45.7969 -4.6406 Q45.7969 -3.4844 46.0547 -2.7031 Q46.3125 -1.9219 46.9062 -1.4766 Q47.5 -1.0312 48.4375 -1.0312 Q49.2344 -1.0312 49.875 -1.3281 Q50.5156 -1.625 51.1562 -2.2969 L51.75 -1.6562 ZM50.1094 -5.625 Q50.0469 -6.6875 49.8438 -7.3516 Q49.6406 -8.0156 49.2344 -8.375 Q48.8281 -8.7344 48.1562 -8.7344 Q47.1562 -8.7344 46.5547 -7.9297 Q45.9531 -7.125 45.8438 -5.625 L50.1094 -5.625 ZM63.4531 0 L59.6094 0 L59.6094 -0.4844 Q60 -0.5938 60.1641 -0.6797 Q60.3281 -0.7656 60.4375 -0.9219 Q60.5469 -1.0781 60.6094 -1.4062 Q60.6719 -1.7344 60.6719 -2.4062 L60.6719 -4.9688 Q60.6719 -5.6406 60.6328 -6.2031 Q60.5938 -6.7656 60.5 -7.1172 Q60.4062 -7.4688 60.2812 -7.6719 Q60.1562 -7.875 59.9688 -8.0156 Q59.7812 -8.1562 59.5469 -8.2422 Q59.3125 -8.3281 58.9375 -8.3281 Q58.5625 -8.3281 58.2188 -8.1719 Q57.875 -8.0156 57.4609 -7.6484 Q57.0469 -7.2812 56.8672 -6.9141 Q56.6875 -6.5469 56.6875 -6.0781 L56.6875 -2.4375 Q56.6875 -1.6094 56.7656 -1.2812 Q56.8438 -0.9531 57.0625 -0.7812 Q57.2812 -0.6094 57.7812 -0.4844 L57.7812 0 L53.9531 0 L53.9531 -0.4844 Q54.3281 -0.5938 54.4922 -0.6797 Q54.6562 -0.7656 54.7656 -0.9219 Q54.875 -1.0781 54.9375 -1.4062 Q55 -1.7344 55 -2.4062 L55 -6.6719 Q55 -7.2969 54.9844 -7.6797 Q54.9688 -8.0625 54.8516 -8.2891 Q54.7344 -8.5156 54.4922 -8.625 Q54.25 -8.7344 53.8125 -8.8125 L53.8125 -9.3438 L56.0938 -9.4219 L56.6875 -9.4219 L56.5781 -7.8281 L56.7188 -7.7969 Q57.4375 -8.5312 57.8828 -8.8438 Q58.3281 -9.1562 58.7812 -9.3281 Q59.2344 -9.5 59.75 -9.5 Q60.2812 -9.5 60.6953 -9.375 Q61.1094 -9.25 61.4219 -8.9922 Q61.7344 -8.7344 61.9453 -8.3594 Q62.1562 -7.9844 62.2578 -7.4609 Q62.3594 -6.9375 62.3594 -6.125 L62.3594 -2.4375 Q62.3594 -1.7656 62.3984 -1.4609 Q62.4375 -1.1562 62.5312 -0.9922 Q62.625 -0.8281 62.8125 -0.7188 Q63 -0.6094 63.4531 -0.4844 L63.4531 0 ZM64.3594 -8.8438 Q64.8438 -8.9219 65.1484 -9.1172 Q65.4531 -9.3125 65.625 -9.625 Q65.7969 -9.9375 65.8984 -10.3984 Q66 -10.8594 66.0938 -11.75 L67.4844 -11.75 L67.4844 -9.3438 L70.6406 -9.3438 L70.6406 -8.3438 L67.4844 -8.3438 L67.4844 -4 Q67.4844 -3.0625 67.5625 -2.5 Q67.6406 -1.9375 67.8594 -1.6172 Q68.0781 -1.2969 68.3516 -1.1641 Q68.625 -1.0312 69.0469 -1.0312 Q69.4375 -1.0312 69.7812 -1.1875 Q70.125 -1.3438 70.4531 -1.6562 L70.8906 -1.125 Q70.2031 -0.4531 69.5859 -0.1484 Q68.9688 0.1562 68.2969 0.1562 Q67.0312 0.1562 66.4219 -0.5938 Q65.8125 -1.3438 65.8125 -2.9375 L65.8125 -8.3438 L64.3594 -8.3438 L64.3594 -8.8438 ZM82.4844 -7.2031 L81.5469 -7.2031 Q81.3438 -7.7812 81.0469 -8.1172 Q80.75 -8.4531 80.3828 -8.5938 Q80.0156 -8.7344 79.4688 -8.7344 Q78.6875 -8.7344 78.2266 -8.3672 Q77.7656 -8 77.7656 -7.3594 Q77.7656 -6.9219 77.9531 -6.625 Q78.1406 -6.3281 78.5312 -6.0781 Q78.9219 -5.8281 79.9062 -5.4062 Q80.9062 -4.9688 81.4453 -4.6094 Q81.9844 -4.25 82.2891 -3.7734 Q82.5938 -3.2969 82.5938 -2.625 Q82.5938 -1.8594 82.3359 -1.3281 Q82.0781 -0.7969 81.5938 -0.4688 Q81.1094 -0.1406 80.4531 0.0078 Q79.7969 0.1562 79.0156 0.1562 Q78.1875 0.1562 77.4219 0.0312 Q76.6562 -0.0938 75.9219 -0.2812 L75.9219 -2.3281 L76.875 -2.3281 Q77.1406 -1.4219 77.6562 -1.0156 Q78.1719 -0.6094 79.0781 -0.6094 Q79.4375 -0.6094 79.7734 -0.6875 Q80.1094 -0.7656 80.375 -0.9375 Q80.6406 -1.1094 80.7969 -1.3984 Q80.9531 -1.6875 80.9531 -2.125 Q80.9531 -2.625 80.7578 -2.9375 Q80.5625 -3.25 80.1484 -3.5078 Q79.7344 -3.7656 78.7031 -4.2031 Q77.8125 -4.5781 77.2734 -4.9297 Q76.7344 -5.2812 76.4297 -5.7578 Q76.125 -6.2344 76.125 -6.8906 Q76.125 -7.7031 76.5625 -8.2891 Q77 -8.875 77.8203 -9.1875 Q78.6406 -9.5 79.7344 -9.5 Q80.375 -9.5 80.9766 -9.4375 Q81.5781 -9.375 82.4844 -9.1875 L82.4844 -7.2031 ZM89.2031 0.1562 Q87.1719 0.1562 86.1016 -1.0391 Q85.0312 -2.2344 85.0312 -4.5781 Q85.0312 -6.1875 85.5938 -7.3047 Q86.1562 -8.4219 87.1328 -8.9609 Q88.1094 -9.5 89.3594 -9.5 Q91.4375 -9.5 92.5156 -8.2891 Q93.5938 -7.0781 93.5938 -4.7969 Q93.5938 -3.1719 93.0547 -2.0625 Q92.5156 -0.9531 91.5312 -0.3984 Q90.5469 0.1562 89.2031 0.1562 ZM86.875 -4.7812 Q86.875 -2.7812 87.5156 -1.6953 Q88.1562 -0.6094 89.3438 -0.6094 Q90 -0.6094 90.4609 -0.9297 Q90.9219 -1.25 91.2031 -1.7891 Q91.4844 -2.3281 91.6172 -3.0312 Q91.75 -3.7344 91.75 -4.5156 Q91.75 -5.9531 91.4297 -6.8984 Q91.1094 -7.8438 90.5625 -8.2891 Q90.0156 -8.7344 89.3125 -8.7344 Q88.125 -8.7344 87.5 -7.7109 Q86.875 -6.6875 86.875 -4.7812 ZM95.7188 -9.3438 L98.5 -9.3438 L98.5 -4.3594 Q98.5 -3.2188 98.5859 -2.625 Q98.6719 -2.0312 98.8516 -1.7266 Q99.0312 -1.4219 99.3516 -1.2188 Q99.6719 -1.0156 100.2344 -1.0156 Q100.6094 -1.0156 100.9531 -1.1641 Q101.2969 -1.3125 101.7109 -1.6797 Q102.125 -2.0469 102.3047 -2.4062 Q102.4844 -2.7656 102.4844 -3.25 L102.4844 -6.9062 Q102.4844 -7.4688 102.4609 -7.75 Q102.4375 -8.0312 102.3672 -8.2031 Q102.2969 -8.375 102.2031 -8.4766 Q102.1094 -8.5781 101.9375 -8.6719 Q101.7656 -8.7656 101.3906 -8.8594 L101.3906 -9.3438 L104.1719 -9.3438 L104.1719 -2.6719 Q104.1719 -1.9219 104.2031 -1.5859 Q104.2344 -1.25 104.3281 -1.0547 Q104.4219 -0.8594 104.625 -0.7344 Q104.8281 -0.6094 105.3594 -0.5156 L105.3594 0 L103.125 0.0938 L102.5312 0.0938 L102.5938 -1.5 L102.4375 -1.5469 Q101.625 -0.6719 100.8906 -0.2578 Q100.1562 0.1562 99.4219 0.1562 Q98.5312 0.1562 97.9531 -0.1953 Q97.375 -0.5469 97.0938 -1.2422 Q96.8125 -1.9375 96.8125 -3.2188 L96.8125 -6.9062 Q96.8125 -7.7188 96.75 -8.0312 Q96.6875 -8.3438 96.5 -8.5234 Q96.3125 -8.7031 95.7188 -8.8594 L95.7188 -9.3438 ZM116.4531 0 L112.6094 0 L112.6094 -0.4844 Q113 -0.5938 113.1641 -0.6797 Q113.3281 -0.7656 113.4375 -0.9219 Q113.5469 -1.0781 113.6094 -1.4062 Q113.6719 -1.7344 113.6719 -2.4062 L113.6719 -4.9688 Q113.6719 -5.6406 113.6328 -6.2031 Q113.5938 -6.7656 113.5 -7.1172 Q113.4062 -7.4688 113.2812 -7.6719 Q113.1562 -7.875 112.9688 -8.0156 Q112.7812 -8.1562 112.5469 -8.2422 Q112.3125 -8.3281 111.9375 -8.3281 Q111.5625 -8.3281 111.2188 -8.1719 Q110.875 -8.0156 110.4609 -7.6484 Q110.0469 -7.2812 109.8672 -6.9141 Q109.6875 -6.5469 109.6875 -6.0781 L109.6875 -2.4375 Q109.6875 -1.6094 109.7656 -1.2812 Q109.8438 -0.9531 110.0625 -0.7812 Q110.2812 -0.6094 110.7812 -0.4844 L110.7812 0 L106.9531 0 L106.9531 -0.4844 Q107.3281 -0.5938 107.4922 -0.6797 Q107.6562 -0.7656 107.7656 -0.9219 Q107.875 -1.0781 107.9375 -1.4062 Q108 -1.7344 108 -2.4062 L108 -6.6719 Q108 -7.2969 107.9844 -7.6797 Q107.9688 -8.0625 107.8516 -8.2891 Q107.7344 -8.5156 107.4922 -8.625 Q107.25 -8.7344 106.8125 -8.8125 L106.8125 -9.3438 L109.0938 -9.4219 L109.6875 -9.4219 L109.5781 -7.8281 L109.7188 -7.7969 Q110.4375 -8.5312 110.8828 -8.8438 Q111.3281 -9.1562 111.7812 -9.3281 Q112.2344 -9.5 112.75 -9.5 Q113.2812 -9.5 113.6953 -9.375 Q114.1094 -9.25 114.4219 -8.9922 Q114.7344 -8.7344 114.9453 -8.3594 Q115.1562 -7.9844 115.2578 -7.4609 Q115.3594 -6.9375 115.3594 -6.125 L115.3594 -2.4375 Q115.3594 -1.7656 115.3984 -1.4609 Q115.4375 -1.1562 115.5312 -0.9922 Q115.625 -0.8281 115.8125 -0.7188 Q116 -0.6094 116.4531 -0.4844 L116.4531 0 ZM124.5469 -10.6094 Q124.5469 -11.5469 124.5312 -11.9219 Q124.5156 -12.2969 124.4531 -12.5547 Q124.3906 -12.8125 124.2734 -12.9609 Q124.1562 -13.1094 123.9688 -13.1953 Q123.7812 -13.2812 123.2812 -13.375 L123.2812 -13.875 L125.6406 -13.9688 L126.2188 -13.9688 L126.2188 -2.6719 Q126.2188 -1.9062 126.25 -1.5781 Q126.2812 -1.25 126.375 -1.0547 Q126.4688 -0.8594 126.6797 -0.7344 Q126.8906 -0.6094 127.4219 -0.5156 L127.4219 0 L125.1094 0.0938 L124.5312 0.0938 L124.6406 -1.5 L124.5 -1.5469 Q123.8906 -0.8906 123.4375 -0.5625 Q122.9844 -0.2344 122.4688 -0.0391 Q121.9531 0.1562 121.3594 0.1562 Q119.7656 0.1562 118.8984 -1.0625 Q118.0312 -2.2812 118.0312 -4.5781 Q118.0312 -6.1719 118.5938 -7.2891 Q119.1562 -8.4062 120.1172 -8.9531 Q121.0781 -9.5 122.2812 -9.5 Q122.9219 -9.5 123.4531 -9.3984 Q123.9844 -9.2969 124.5469 -9.0625 L124.5469 -10.6094 ZM124.5469 -5.7969 Q124.5469 -6.5469 124.4766 -7.0078 Q124.4062 -7.4688 124.2422 -7.7812 Q124.0781 -8.0938 123.8047 -8.3125 Q123.5312 -8.5312 123.2031 -8.625 Q122.875 -8.7188 122.4219 -8.7188 Q121.1719 -8.7188 120.5156 -7.7188 Q119.8594 -6.7188 119.8594 -4.8438 Q119.8594 -2.9688 120.3984 -1.9922 Q120.9375 -1.0156 122.0312 -1.0156 Q122.4531 -1.0156 122.7422 -1.0859 Q123.0312 -1.1562 123.3047 -1.3203 Q123.5781 -1.4844 123.8594 -1.7656 Q124.1406 -2.0469 124.2734 -2.2812 Q124.4062 -2.5156 124.4766 -2.8203 Q124.5469 -3.125 124.5469 -3.6094 L124.5469 -5.7969 ZM135.5938 -0.2969 L135.5938 1.7656 Q135.5938 2.4062 135.6406 2.7188 Q135.6875 3.0312 135.7969 3.2109 Q135.9062 3.3906 136.1172 3.5078 Q136.3281 3.625 136.7969 3.7188 L136.7969 4.2031 L132.8125 4.2031 L132.8125 3.7188 Q133.1562 3.625 133.3828 3.5234 Q133.6094 3.4219 133.7266 3.2188 Q133.8438 3.0156 133.8828 2.6719 Q133.9219 2.3281 133.9219 1.7656 L133.9219 -6.6094 Q133.9219 -7.3125 133.8984 -7.6094 Q133.875 -7.9062 133.8203 -8.1016 Q133.7656 -8.2969 133.6484 -8.4297 Q133.5312 -8.5625 133.3438 -8.6484 Q133.1562 -8.7344 132.7188 -8.8125 L132.7188 -9.3438 L135.0156 -9.4219 L135.6094 -9.4219 L135.4844 -7.8281 L135.625 -7.7969 Q136.2344 -8.4062 136.5859 -8.6875 Q136.9375 -8.9688 137.3125 -9.1562 Q137.6875 -9.3438 138.0312 -9.4219 Q138.375 -9.5 138.7656 -9.5 Q140.375 -9.5 141.2422 -8.2891 Q142.1094 -7.0781 142.1094 -4.75 Q142.1094 -3.1406 141.6172 -2.0469 Q141.125 -0.9531 140.1953 -0.3984 Q139.2656 0.1562 137.9844 0.1562 Q137.25 0.1562 136.6641 0.0312 Q136.0781 -0.0938 135.5938 -0.2969 ZM135.5938 -3.5156 Q135.5938 -2.5781 135.7109 -2.0703 Q135.8281 -1.5625 136.125 -1.2422 Q136.4219 -0.9219 136.8281 -0.7656 Q137.2344 -0.6094 137.9062 -0.6094 Q139.0781 -0.6094 139.6719 -1.5938 Q140.2656 -2.5781 140.2656 -4.5 Q140.2656 -8.3281 138.0312 -8.3281 Q137.4844 -8.3281 137.0938 -8.1562 Q136.7031 -7.9844 136.3125 -7.6016 Q135.9219 -7.2188 135.7578 -6.8594 Q135.5938 -6.5 135.5938 -6.0938 L135.5938 -3.5156 ZM148.2031 0.1562 Q146.1719 0.1562 145.1016 -1.0391 Q144.0312 -2.2344 144.0312 -4.5781 Q144.0312 -6.1875 144.5938 -7.3047 Q145.1562 -8.4219 146.1328 -8.9609 Q147.1094 -9.5 148.3594 -9.5 Q150.4375 -9.5 151.5156 -8.2891 Q152.5938 -7.0781 152.5938 -4.7969 Q152.5938 -3.1719 152.0547 -2.0625 Q151.5156 -0.9531 150.5312 -0.3984 Q149.5469 0.1562 148.2031 0.1562 ZM145.875 -4.7812 Q145.875 -2.7812 146.5156 -1.6953 Q147.1562 -0.6094 148.3438 -0.6094 Q149 -0.6094 149.4609 -0.9297 Q149.9219 -1.25 150.2031 -1.7891 Q150.4844 -2.3281 150.6172 -3.0312 Q150.75 -3.7344 150.75 -4.5156 Q150.75 -5.9531 150.4297 -6.8984 Q150.1094 -7.8438 149.5625 -8.2891 Q149.0156 -8.7344 148.3125 -8.7344 Q147.125 -8.7344 146.5 -7.7109 Q145.875 -6.6875 145.875 -4.7812 ZM161.7969 -7.2969 L159.2344 0.0469 L157.875 0.0469 L155.5312 -7.2031 Q155.3125 -7.9062 155.1562 -8.1953 Q155 -8.4844 154.8359 -8.625 Q154.6719 -8.7656 154.2812 -8.8594 L154.2812 -9.3438 L158.1406 -9.3438 L158.1406 -8.8594 Q157.5781 -8.7344 157.375 -8.5469 Q157.1719 -8.3594 157.1719 -7.9844 Q157.1719 -7.7188 157.2344 -7.4297 Q157.2969 -7.1406 157.4062 -6.7656 L158.9375 -1.7812 L161.4531 -9.3438 L162.8281 -9.3438 L164.9531 -1.7812 L166.6719 -6.5469 Q166.8125 -6.9219 166.8984 -7.2578 Q166.9844 -7.5938 166.9844 -7.8906 Q166.9844 -8.2969 166.7656 -8.5234 Q166.5469 -8.75 166.0156 -8.8594 L166.0156 -9.3438 L169.4375 -9.3438 L169.4375 -8.8594 Q169.1562 -8.7969 169.0234 -8.7188 Q168.8906 -8.6406 168.7578 -8.5 Q168.625 -8.3594 168.4609 -8.0625 Q168.2969 -7.7656 168.0469 -7.1406 L165.2344 0.0469 L163.9062 0.0469 L161.7969 -7.2969 ZM177.75 -1.6562 Q177.125 -1 176.6016 -0.6328 Q176.0781 -0.2656 175.4531 -0.0547 Q174.8281 0.1562 174.0781 0.1562 Q172.0625 0.1562 171.0391 -1.0469 Q170.0156 -2.25 170.0156 -4.6094 Q170.0156 -6.0625 170.5391 -7.1797 Q171.0625 -8.2969 172.0312 -8.8984 Q173 -9.5 174.25 -9.5 Q175.2344 -9.5 175.9297 -9.1875 Q176.625 -8.875 177.0391 -8.3359 Q177.4531 -7.7969 177.6875 -6.9688 Q177.9219 -6.1406 177.9531 -4.8125 L171.7969 -4.8125 L171.7969 -4.6406 Q171.7969 -3.4844 172.0547 -2.7031 Q172.3125 -1.9219 172.9062 -1.4766 Q173.5 -1.0312 174.4375 -1.0312 Q175.2344 -1.0312 175.875 -1.3281 Q176.5156 -1.625 177.1562 -2.2969 L177.75 -1.6562 ZM176.1094 -5.625 Q176.0469 -6.6875 175.8438 -7.3516 Q175.6406 -8.0156 175.2344 -8.375 Q174.8281 -8.7344 174.1562 -8.7344 Q173.1562 -8.7344 172.5547 -7.9297 Q171.9531 -7.125 171.8438 -5.625 L176.1094 -5.625 ZM182.5781 -7.7188 L182.7188 -7.6875 Q183.2656 -8.3438 183.7188 -8.7188 Q184.1719 -9.0938 184.7031 -9.2969 Q185.2344 -9.5 185.9219 -9.5 Q186.4844 -9.5 186.9375 -9.4375 L186.9375 -7.2031 L185.8438 -7.2031 Q185.6094 -7.7188 185.3438 -7.9609 Q185.0781 -8.2031 184.6094 -8.2031 Q184.2656 -8.2031 183.9219 -8 Q183.5781 -7.7969 183.25 -7.4062 Q182.9219 -7.0156 182.8047 -6.6719 Q182.6875 -6.3281 182.6875 -5.8594 L182.6875 -2.4375 Q182.6875 -1.5469 182.7891 -1.2109 Q182.8906 -0.875 183.1406 -0.7188 Q183.3906 -0.5625 183.8906 -0.4844 L183.8906 0 L179.9531 0 L179.9531 -0.4844 Q180.3281 -0.5938 180.4922 -0.6797 Q180.6562 -0.7656 180.7734 -0.9219 Q180.8906 -1.0781 180.9453 -1.4062 Q181 -1.7344 181 -2.4062 L181 -6.6719 Q181 -7.2969 180.9844 -7.6797 Q180.9688 -8.0625 180.8516 -8.2891 Q180.7344 -8.5156 180.4922 -8.625 Q180.25 -8.7344 179.8125 -8.8125 L179.8125 -9.3281 L182.0938 -9.4219 L182.6875 -9.4219 L182.5781 -7.7188 ZM198.5469 -10.6094 Q198.5469 -11.5469 198.5312 -11.9219 Q198.5156 -12.2969 198.4531 -12.5547 Q198.3906 -12.8125 198.2734 -12.9609 Q198.1562 -13.1094 197.9688 -13.1953 Q197.7812 -13.2812 197.2812 -13.375 L197.2812 -13.875 L199.6406 -13.9688 L200.2188 -13.9688 L200.2188 -2.6719 Q200.2188 -1.9062 200.25 -1.5781 Q200.2812 -1.25 200.375 -1.0547 Q200.4688 -0.8594 200.6797 -0.7344 Q200.8906 -0.6094 201.4219 -0.5156 L201.4219 0 L199.1094 0.0938 L198.5312 0.0938 L198.6406 -1.5 L198.5 -1.5469 Q197.8906 -0.8906 197.4375 -0.5625 Q196.9844 -0.2344 196.4688 -0.0391 Q195.9531 0.1562 195.3594 0.1562 Q193.7656 0.1562 192.8984 -1.0625 Q192.0312 -2.2812 192.0312 -4.5781 Q192.0312 -6.1719 192.5938 -7.2891 Q193.1562 -8.4062 194.1172 -8.9531 Q195.0781 -9.5 196.2812 -9.5 Q196.9219 -9.5 197.4531 -9.3984 Q197.9844 -9.2969 198.5469 -9.0625 L198.5469 -10.6094 ZM198.5469 -5.7969 Q198.5469 -6.5469 198.4766 -7.0078 Q198.4062 -7.4688 198.2422 -7.7812 Q198.0781 -8.0938 197.8047 -8.3125 Q197.5312 -8.5312 197.2031 -8.625 Q196.875 -8.7188 196.4219 -8.7188 Q195.1719 -8.7188 194.5156 -7.7188 Q193.8594 -6.7188 193.8594 -4.8438 Q193.8594 -2.9688 194.3984 -1.9922 Q194.9375 -1.0156 196.0312 -1.0156 Q196.4531 -1.0156 196.7422 -1.0859 Q197.0312 -1.1562 197.3047 -1.3203 Q197.5781 -1.4844 197.8594 -1.7656 Q198.1406 -2.0469 198.2734 -2.2812 Q198.4062 -2.5156 198.4766 -2.8203 Q198.5469 -3.125 198.5469 -3.6094 L198.5469 -5.7969 ZM210.75 -1.6562 Q210.125 -1 209.6016 -0.6328 Q209.0781 -0.2656 208.4531 -0.0547 Q207.8281 0.1562 207.0781 0.1562 Q205.0625 0.1562 204.0391 -1.0469 Q203.0156 -2.25 203.0156 -4.6094 Q203.0156 -6.0625 203.5391 -7.1797 Q204.0625 -8.2969 205.0312 -8.8984 Q206 -9.5 207.25 -9.5 Q208.2344 -9.5 208.9297 -9.1875 Q209.625 -8.875 210.0391 -8.3359 Q210.4531 -7.7969 210.6875 -6.9688 Q210.9219 -6.1406 210.9531 -4.8125 L204.7969 -4.8125 L204.7969 -4.6406 Q204.7969 -3.4844 205.0547 -2.7031 Q205.3125 -1.9219 205.9062 -1.4766 Q206.5 -1.0312 207.4375 -1.0312 Q208.2344 -1.0312 208.875 -1.3281 Q209.5156 -1.625 210.1562 -2.2969 L210.75 -1.6562 ZM209.1094 -5.625 Q209.0469 -6.6875 208.8438 -7.3516 Q208.6406 -8.0156 208.2344 -8.375 Q207.8281 -8.7344 207.1562 -8.7344 Q206.1562 -8.7344 205.5547 -7.9297 Q204.9531 -7.125 204.8438 -5.625 L209.1094 -5.625 ZM222.4531 0 L218.6094 0 L218.6094 -0.4844 Q219 -0.5938 219.1641 -0.6797 Q219.3281 -0.7656 219.4375 -0.9219 Q219.5469 -1.0781 219.6094 -1.4062 Q219.6719 -1.7344 219.6719 -2.4062 L219.6719 -4.9688 Q219.6719 -5.6406 219.6328 -6.2031 Q219.5938 -6.7656 219.5 -7.1172 Q219.4062 -7.4688 219.2812 -7.6719 Q219.1562 -7.875 218.9688 -8.0156 Q218.7812 -8.1562 218.5469 -8.2422 Q218.3125 -8.3281 217.9375 -8.3281 Q217.5625 -8.3281 217.2188 -8.1719 Q216.875 -8.0156 216.4609 -7.6484 Q216.0469 -7.2812 215.8672 -6.9141 Q215.6875 -6.5469 215.6875 -6.0781 L215.6875 -2.4375 Q215.6875 -1.6094 215.7656 -1.2812 Q215.8438 -0.9531 216.0625 -0.7812 Q216.2812 -0.6094 216.7812 -0.4844 L216.7812 0 L212.9531 0 L212.9531 -0.4844 Q213.3281 -0.5938 213.4922 -0.6797 Q213.6562 -0.7656 213.7656 -0.9219 Q213.875 -1.0781 213.9375 -1.4062 Q214 -1.7344 214 -2.4062 L214 -6.6719 Q214 -7.2969 213.9844 -7.6797 Q213.9688 -8.0625 213.8516 -8.2891 Q213.7344 -8.5156 213.4922 -8.625 Q213.25 -8.7344 212.8125 -8.8125 L212.8125 -9.3438 L215.0938 -9.4219 L215.6875 -9.4219 L215.5781 -7.8281 L215.7188 -7.7969 Q216.4375 -8.5312 216.8828 -8.8438 Q217.3281 -9.1562 217.7812 -9.3281 Q218.2344 -9.5 218.75 -9.5 Q219.2812 -9.5 219.6953 -9.375 Q220.1094 -9.25 220.4219 -8.9922 Q220.7344 -8.7344 220.9453 -8.3594 Q221.1562 -7.9844 221.2578 -7.4609 Q221.3594 -6.9375 221.3594 -6.125 L221.3594 -2.4375 Q221.3594 -1.7656 221.3984 -1.4609 Q221.4375 -1.1562 221.5312 -0.9922 Q221.625 -0.8281 221.8125 -0.7188 Q222 -0.6094 222.4531 -0.4844 L222.4531 0 ZM230.4844 -7.2031 L229.5469 -7.2031 Q229.3438 -7.7812 229.0469 -8.1172 Q228.75 -8.4531 228.3828 -8.5938 Q228.0156 -8.7344 227.4688 -8.7344 Q226.6875 -8.7344 226.2266 -8.3672 Q225.7656 -8 225.7656 -7.3594 Q225.7656 -6.9219 225.9531 -6.625 Q226.1406 -6.3281 226.5312 -6.0781 Q226.9219 -5.8281 227.9062 -5.4062 Q228.9062 -4.9688 229.4453 -4.6094 Q229.9844 -4.25 230.2891 -3.7734 Q230.5938 -3.2969 230.5938 -2.625 Q230.5938 -1.8594 230.3359 -1.3281 Q230.0781 -0.7969 229.5938 -0.4688 Q229.1094 -0.1406 228.4531 0.0078 Q227.7969 0.1562 227.0156 0.1562 Q226.1875 0.1562 225.4219 0.0312 Q224.6562 -0.0938 223.9219 -0.2812 L223.9219 -2.3281 L224.875 -2.3281 Q225.1406 -1.4219 225.6562 -1.0156 Q226.1719 -0.6094 227.0781 -0.6094 Q227.4375 -0.6094 227.7734 -0.6875 Q228.1094 -0.7656 228.375 -0.9375 Q228.6406 -1.1094 228.7969 -1.3984 Q228.9531 -1.6875 228.9531 -2.125 Q228.9531 -2.625 228.7578 -2.9375 Q228.5625 -3.25 228.1484 -3.5078 Q227.7344 -3.7656 226.7031 -4.2031 Q225.8125 -4.5781 225.2734 -4.9297 Q224.7344 -5.2812 224.4297 -5.7578 Q224.125 -6.2344 224.125 -6.8906 Q224.125 -7.7031 224.5625 -8.2891 Q225 -8.875 225.8203 -9.1875 Q226.6406 -9.5 227.7344 -9.5 Q228.375 -9.5 228.9766 -9.4375 Q229.5781 -9.375 230.4844 -9.1875 L230.4844 -7.2031 ZM235.7344 -13.1719 L235.7344 -11.2656 L233.9375 -11.2656 L233.9375 -13.1719 L235.7344 -13.1719 ZM232.9531 -0.4844 Q233.3281 -0.5938 233.4922 -0.6797 Q233.6562 -0.7656 233.7656 -0.9219 Q233.875 -1.0781 233.9375 -1.4062 Q234 -1.7344 234 -2.4062 L234 -6.6719 Q234 -7.2969 233.9844 -7.6797 Q233.9688 -8.0625 233.8516 -8.2891 Q233.7344 -8.5156 233.4922 -8.625 Q233.25 -8.7344 232.8125 -8.8125 L232.8125 -9.3438 L235.0938 -9.4219 L235.6875 -9.4219 L235.6875 -2.4375 Q235.6875 -1.6094 235.7656 -1.2812 Q235.8438 -0.9531 236.0625 -0.7812 Q236.2812 -0.6094 236.7812 -0.4844 L236.7812 0 L232.9531 0 L232.9531 -0.4844 ZM238.3594 -8.8438 Q238.8438 -8.9219 239.1484 -9.1172 Q239.4531 -9.3125 239.625 -9.625 Q239.7969 -9.9375 239.8984 -10.3984 Q240 -10.8594 240.0938 -11.75 L241.4844 -11.75 L241.4844 -9.3438 L244.6406 -9.3438 L244.6406 -8.3438 L241.4844 -8.3438 L241.4844 -4 Q241.4844 -3.0625 241.5625 -2.5 Q241.6406 -1.9375 241.8594 -1.6172 Q242.0781 -1.2969 242.3516 -1.1641 Q242.625 -1.0312 243.0469 -1.0312 Q243.4375 -1.0312 243.7812 -1.1875 Q244.125 -1.3438 244.4531 -1.6562 L244.8906 -1.125 Q244.2031 -0.4531 243.5859 -0.1484 Q242.9688 0.1562 242.2969 0.1562 Q241.0312 0.1562 240.4219 -0.5938 Q239.8125 -1.3438 239.8125 -2.9375 L239.8125 -8.3438 L238.3594 -8.3438 L238.3594 -8.8438 ZM250.0781 0.7969 Q249.5469 2.0156 249.0391 2.7656 Q248.5312 3.5156 247.9219 3.8984 Q247.3125 4.2812 246.4688 4.2812 Q245.9219 4.2812 245.25 4.1562 L245.25 2.2188 L246.125 2.2188 Q246.2344 2.625 246.4141 2.7812 Q246.5938 2.9375 246.9219 2.9375 Q247.2188 2.9375 247.4453 2.8203 Q247.6719 2.7031 247.9219 2.4297 Q248.1719 2.1562 248.5078 1.5938 Q248.8438 1.0312 249.2656 0.1562 L246.5312 -7.2031 Q246.2656 -7.9062 246.1094 -8.1953 Q245.9531 -8.4844 245.7656 -8.625 Q245.5781 -8.7656 245.2031 -8.8594 L245.2031 -9.3438 L249.1719 -9.3438 L249.1719 -8.8594 Q248.7188 -8.75 248.5312 -8.6484 Q248.3438 -8.5469 248.2578 -8.3828 Q248.1719 -8.2188 248.1719 -7.9688 Q248.1719 -7.7031 248.2344 -7.4219 Q248.2969 -7.1406 248.4219 -6.7656 L250.1719 -1.8594 L252.125 -6.5469 Q252.2812 -6.9375 252.375 -7.2656 Q252.4688 -7.5938 252.4688 -7.875 Q252.4688 -8.2969 252.2422 -8.5156 Q252.0156 -8.7344 251.4531 -8.8594 L251.4531 -9.3438 L255.0938 -9.3438 L255.0938 -8.8594 Q254.7188 -8.7812 254.5156 -8.6172 Q254.3125 -8.4531 254.1016 -8.1094 Q253.8906 -7.7656 253.6094 -7.1406 L250.0781 0.7969 Z" stroke="none"/></g></g></svg>