<?xml version="1.0" encoding="UTF-8" standalone="no"?><svg xmlns="http://www.w3.org/2000/svg" xmlns:xlink="http://www.w3.org/1999/xlink" stroke-dasharray="none" shape-rendering="auto" font-family="'Dialog'" width="358.812600" text-rendering="auto" fill-opacity="1" contentScriptType="text/ecmascript" color-interpolation="auto" color-rendering="auto" preserveAspectRatio="xMidYMid meet" font-size="12" fill="black" stroke="black" image-rendering="auto" stroke-miterlimit="10" zoomAndPan="magnify" version="1.0" stroke-linecap="square" stroke-linejoin="miter" contentStyleType="text/css" font-style="normal" height="25" stroke-width="1" stroke-dashoffset="0" font-weight="normal" stroke-opacity="1" y="-5.000000"><!--Converted from MathML using JEuclid--><defs id="genericDefs"/><g><g text-rendering="optimizeLegibility" transform="translate(0,20)" color-rendering="optimizeQuality" color-interpolation="linearRGB" image-rendering="optimizeQuality"><path d="M4.6562 -7.3125 L4.9688 -7.3125 Q5.375 -7.3125 5.7188 -7.4453 Q6.0625 -7.5781 6.5078 -7.9375 Q6.9531 -8.2969 7.9375 -9.2656 Q8.9219 -10.2344 9.3359 -10.7344 Q9.75 -11.2344 9.9375 -11.6016 Q10.125 -11.9688 10.125 -12.2812 Q10.125 -12.5156 9.9297 -12.6719 Q9.7344 -12.8281 9.375 -12.8594 L9.4844 -13.3281 L13.6719 -13.3281 L13.5625 -12.8594 Q13.1719 -12.7969 12.6797 -12.4453 Q12.1875 -12.0938 11.1719 -11.0938 L7.3906 -7.4062 L9.4688 -2.4062 Q9.7344 -1.7656 9.8906 -1.4688 Q10.0469 -1.1719 10.2344 -0.9688 Q10.4219 -0.7656 10.6562 -0.6484 Q10.8906 -0.5312 11.2188 -0.4844 L11.1094 0 L7.3438 0 L7.4531 -0.4844 Q7.9844 -0.5312 7.9844 -0.9531 Q7.9844 -1.0781 7.9609 -1.2109 Q7.9375 -1.3438 7.8516 -1.6094 Q7.7656 -1.875 7.625 -2.25 L6.3438 -5.3594 Q6.125 -5.9062 5.9609 -6.1328 Q5.7969 -6.3594 5.6094 -6.4453 Q5.4219 -6.5312 5.0312 -6.5312 L4.4844 -6.5312 L3.6719 -2.8438 Q3.5469 -2.25 3.5078 -1.9141 Q3.4688 -1.5781 3.4688 -1.3125 Q3.4688 -0.875 3.6875 -0.6953 Q3.9062 -0.5156 4.4219 -0.4844 L4.3125 0 L0.4062 0 L0.5156 -0.4844 Q0.8906 -0.5312 1.0781 -0.6641 Q1.2656 -0.7969 1.3906 -1.0312 Q1.5156 -1.2656 1.625 -1.6016 Q1.7344 -1.9375 1.9375 -2.9062 L3.6094 -10.4375 Q3.7031 -10.875 3.7578 -11.2891 Q3.8125 -11.7031 3.8125 -12 Q3.8125 -12.4688 3.5781 -12.6484 Q3.3438 -12.8281 2.8594 -12.8594 L2.9688 -13.3281 L6.875 -13.3281 L6.7656 -12.8594 Q6.3906 -12.7812 6.2344 -12.6797 Q6.0781 -12.5781 5.9453 -12.3828 Q5.8125 -12.1875 5.6797 -11.7734 Q5.5469 -11.3594 5.3438 -10.4219 L4.6562 -7.3125 Z" stroke="none"/></g><g text-rendering="optimizeLegibility" transform="translate(13.9531,23.2656)" color-rendering="optimizeQuality" color-interpolation="linearRGB" image-rendering="optimizeQuality"><path d="M6.4688 -6.2031 Q5.1406 -4.7812 3.6875 -3.4062 L4.3281 -1.9062 Q4.5781 -1.3125 4.7266 -1.0234 Q4.875 -0.7344 5 -0.6094 Q5.125 -0.4844 5.25 -0.4297 Q5.375 -0.375 5.6406 -0.3281 L5.5625 0 L3.8594 0 L2.9062 -2.75 Q2.75 -2.6094 2.4766 -2.3516 Q2.2031 -2.0938 1.9531 -1.8047 Q1.7031 -1.5156 1.6016 -1.3359 Q1.5 -1.1562 1.4688 -1.0234 Q1.4375 -0.8906 1.4375 -0.7656 Q1.4375 -0.5781 1.5391 -0.4766 Q1.6406 -0.375 1.875 -0.3281 L1.7969 0 L-0.1562 0 L-0.2812 -0.3281 Q1.2188 -1.9375 2.6719 -3.2969 L2.0156 -4.8125 Q1.8125 -5.2812 1.6953 -5.5234 Q1.5781 -5.7656 1.4609 -5.8984 Q1.3438 -6.0312 1.1953 -6.1094 Q1.0469 -6.1875 0.7812 -6.2031 L0.8594 -6.5312 L2.5625 -6.5312 L3.4688 -3.9531 Q3.7969 -4.2656 4.1016 -4.5938 Q4.4062 -4.9219 4.5312 -5.1172 Q4.6562 -5.3125 4.7031 -5.4609 Q4.75 -5.6094 4.75 -5.7656 Q4.75 -6.1406 4.3125 -6.2031 L4.375 -6.5312 L6.3281 -6.5312 L6.4688 -6.2031 Z" stroke="none"/></g><g text-rendering="optimizeLegibility" transform="translate(15.5156,10.0469)" color-rendering="optimizeQuality" color-interpolation="linearRGB" image-rendering="optimizeQuality"><path d="M1.7344 0.1094 Q1.5 1.2031 1.0938 1.8516 Q0.6875 2.5 0.1094 2.7812 Q-0.4688 3.0625 -1.2969 3.0625 Q-1.5938 3.0625 -1.8438 2.9844 L-1.6875 2.3906 Q-1.5156 2.4375 -1.2031 2.4375 Q-0.8438 2.4375 -0.6172 2.3438 Q-0.3906 2.25 -0.1953 2.0312 Q0 1.8125 0.1797 1.3984 Q0.3594 0.9844 0.5156 0.3125 L1.9062 -5.8438 L1.0781 -5.8438 L1.1562 -6.1875 Q1.4844 -6.2344 1.625 -6.2891 Q1.7656 -6.3438 1.8516 -6.4453 Q1.9375 -6.5469 2.0078 -6.7266 Q2.0781 -6.9062 2.2031 -7.3438 Q2.5625 -8.5781 3.3203 -9.1953 Q4.0781 -9.8125 5.25 -9.8125 Q5.9062 -9.8125 6.4062 -9.7031 L6.125 -8.5469 L5.5312 -8.5469 Q5.4375 -8.9375 5.2812 -9.1094 Q5.125 -9.2812 4.8281 -9.2812 Q4.4375 -9.2812 4.1641 -9.0703 Q3.8906 -8.8594 3.6953 -8.4297 Q3.5 -8 3.3438 -7.2812 L3.1719 -6.5312 L4.7344 -6.5312 L4.5781 -5.8438 L3.0156 -5.8438 L1.7344 0.1094 Z" stroke="none"/></g><g text-rendering="optimizeLegibility" transform="translate(22.7031,20)" color-rendering="optimizeQuality" color-interpolation="linearRGB" image-rendering="optimizeQuality"><path d="M1.2188 -7.0625 L1.2188 -8.4219 L9.8594 -8.4219 L9.8594 -7.0625 L1.2188 -7.0625 ZM1.2188 -3.0156 L1.2188 -4.3594 L9.8594 -4.3594 L9.8594 -3.0156 L1.2188 -3.0156 Z" stroke="none"/></g><g text-rendering="optimizeLegibility" transform="translate(34.5625,20)" color-rendering="optimizeQuality" color-interpolation="linearRGB" image-rendering="optimizeQuality"><path d="M8.2188 -9.1094 L8.2188 -7.0781 L6.9844 -7.0781 Q6.8125 -7.7031 6.5703 -8.0703 Q6.3281 -8.4375 6.0078 -8.5859 Q5.6875 -8.7344 5.2031 -8.7344 Q4.5156 -8.7344 3.9922 -8.2969 Q3.4688 -7.8594 3.1641 -6.9609 Q2.8594 -6.0625 2.8594 -4.75 Q2.8594 -3.9219 2.9766 -3.2344 Q3.0938 -2.5469 3.375 -2.0625 Q3.6562 -1.5781 4.125 -1.3047 Q4.5938 -1.0312 5.2812 -1.0312 Q5.9531 -1.0312 6.5391 -1.2891 Q7.125 -1.5469 7.75 -2.2188 L8.2969 -1.5781 Q7.7969 -1.0312 7.4219 -0.7344 Q7.0469 -0.4375 6.6094 -0.2344 Q6.1719 -0.0312 5.75 0.0625 Q5.3281 0.1562 4.8281 0.1562 Q2.9844 0.1562 2.0078 -1.0703 Q1.0312 -2.2969 1.0312 -4.6094 Q1.0312 -6.0625 1.5781 -7.1797 Q2.125 -8.2969 3.1094 -8.8984 Q4.0938 -9.5 5.375 -9.5 Q6.1875 -9.5 6.8672 -9.4062 Q7.5469 -9.3125 8.2188 -9.1094 ZM14.2031 0.1562 Q12.1719 0.1562 11.1016 -1.0391 Q10.0312 -2.2344 10.0312 -4.5781 Q10.0312 -6.1875 10.5938 -7.3047 Q11.1562 -8.4219 12.1328 -8.9609 Q13.1094 -9.5 14.3594 -9.5 Q16.4375 -9.5 17.5156 -8.2891 Q18.5938 -7.0781 18.5938 -4.7969 Q18.5938 -3.1719 18.0547 -2.0625 Q17.5156 -0.9531 16.5312 -0.3984 Q15.5469 0.1562 14.2031 0.1562 ZM11.875 -4.7812 Q11.875 -2.7812 12.5156 -1.6953 Q13.1562 -0.6094 14.3438 -0.6094 Q15 -0.6094 15.4609 -0.9297 Q15.9219 -1.25 16.2031 -1.7891 Q16.4844 -2.3281 16.6172 -3.0312 Q16.75 -3.7344 16.75 -4.5156 Q16.75 -5.9531 16.4297 -6.8984 Q16.1094 -7.8438 15.5625 -8.2891 Q15.0156 -8.7344 14.3125 -8.7344 Q13.125 -8.7344 12.5 -7.7109 Q11.875 -6.6875 11.875 -4.7812 ZM30.4531 0 L26.6094 0 L26.6094 -0.4844 Q27 -0.5938 27.1641 -0.6797 Q27.3281 -0.7656 27.4375 -0.9219 Q27.5469 -1.0781 27.6094 -1.4062 Q27.6719 -1.7344 27.6719 -2.4062 L27.6719 -4.9688 Q27.6719 -5.6406 27.6328 -6.2031 Q27.5938 -6.7656 27.5 -7.1172 Q27.4062 -7.4688 27.2812 -7.6719 Q27.1562 -7.875 26.9688 -8.0156 Q26.7812 -8.1562 26.5469 -8.2422 Q26.3125 -8.3281 25.9375 -8.3281 Q25.5625 -8.3281 25.2188 -8.1719 Q24.875 -8.0156 24.4609 -7.6484 Q24.0469 -7.2812 23.8672 -6.9141 Q23.6875 -6.5469 23.6875 -6.0781 L23.6875 -2.4375 Q23.6875 -1.6094 23.7656 -1.2812 Q23.8438 -0.9531 24.0625 -0.7812 Q24.2812 -0.6094 24.7812 -0.4844 L24.7812 0 L20.9531 0 L20.9531 -0.4844 Q21.3281 -0.5938 21.4922 -0.6797 Q21.6562 -0.7656 21.7656 -0.9219 Q21.875 -1.0781 21.9375 -1.4062 Q22 -1.7344 22 -2.4062 L22 -6.6719 Q22 -7.2969 21.9844 -7.6797 Q21.9688 -8.0625 21.8516 -8.2891 Q21.7344 -8.5156 21.4922 -8.625 Q21.25 -8.7344 20.8125 -8.8125 L20.8125 -9.3438 L23.0938 -9.4219 L23.6875 -9.4219 L23.5781 -7.8281 L23.7188 -7.7969 Q24.4375 -8.5312 24.8828 -8.8438 Q25.3281 -9.1562 25.7812 -9.3281 Q26.2344 -9.5 26.75 -9.5 Q27.2812 -9.5 27.6953 -9.375 Q28.1094 -9.25 28.4219 -8.9922 Q28.7344 -8.7344 28.9453 -8.3594 Q29.1562 -7.9844 29.2578 -7.4609 Q29.3594 -6.9375 29.3594 -6.125 L29.3594 -2.4375 Q29.3594 -1.7656 29.3984 -1.4609 Q29.4375 -1.1562 29.5312 -0.9922 Q29.625 -0.8281 29.8125 -0.7188 Q30 -0.6094 30.4531 -0.4844 L30.4531 0 ZM38.5469 -10.6094 Q38.5469 -11.5469 38.5312 -11.9219 Q38.5156 -12.2969 38.4531 -12.5547 Q38.3906 -12.8125 38.2734 -12.9609 Q38.1562 -13.1094 37.9688 -13.1953 Q37.7812 -13.2812 37.2812 -13.375 L37.2812 -13.875 L39.6406 -13.9688 L40.2188 -13.9688 L40.2188 -2.6719 Q40.2188 -1.9062 40.25 -1.5781 Q40.2812 -1.25 40.375 -1.0547 Q40.4688 -0.8594 40.6797 -0.7344 Q40.8906 -0.6094 41.4219 -0.5156 L41.4219 0 L39.1094 0.0938 L38.5312 0.0938 L38.6406 -1.5 L38.5 -1.5469 Q37.8906 -0.8906 37.4375 -0.5625 Q36.9844 -0.2344 36.4688 -0.0391 Q35.9531 0.1562 35.3594 0.1562 Q33.7656 0.1562 32.8984 -1.0625 Q32.0312 -2.2812 32.0312 -4.5781 Q32.0312 -6.1719 32.5938 -7.2891 Q33.1562 -8.4062 34.1172 -8.9531 Q35.0781 -9.5 36.2812 -9.5 Q36.9219 -9.5 37.4531 -9.3984 Q37.9844 -9.2969 38.5469 -9.0625 L38.5469 -10.6094 ZM38.5469 -5.7969 Q38.5469 -6.5469 38.4766 -7.0078 Q38.4062 -7.4688 38.2422 -7.7812 Q38.0781 -8.0938 37.8047 -8.3125 Q37.5312 -8.5312 37.2031 -8.625 Q36.875 -8.7188 36.4219 -8.7188 Q35.1719 -8.7188 34.5156 -7.7188 Q33.8594 -6.7188 33.8594 -4.8438 Q33.8594 -2.9688 34.3984 -1.9922 Q34.9375 -1.0156 36.0312 -1.0156 Q36.4531 -1.0156 36.7422 -1.0859 Q37.0312 -1.1562 37.3047 -1.3203 Q37.5781 -1.4844 37.8594 -1.7656 Q38.1406 -2.0469 38.2734 -2.2812 Q38.4062 -2.5156 38.4766 -2.8203 Q38.5469 -3.125 38.5469 -3.6094 L38.5469 -5.7969 ZM42.7188 -9.3438 L45.5 -9.3438 L45.5 -4.3594 Q45.5 -3.2188 45.5859 -2.625 Q45.6719 -2.0312 45.8516 -1.7266 Q46.0312 -1.4219 46.3516 -1.2188 Q46.6719 -1.0156 47.2344 -1.0156 Q47.6094 -1.0156 47.9531 -1.1641 Q48.2969 -1.3125 48.7109 -1.6797 Q49.125 -2.0469 49.3047 -2.4062 Q49.4844 -2.7656 49.4844 -3.25 L49.4844 -6.9062 Q49.4844 -7.4688 49.4609 -7.75 Q49.4375 -8.0312 49.3672 -8.2031 Q49.2969 -8.375 49.2031 -8.4766 Q49.1094 -8.5781 48.9375 -8.6719 Q48.7656 -8.7656 48.3906 -8.8594 L48.3906 -9.3438 L51.1719 -9.3438 L51.1719 -2.6719 Q51.1719 -1.9219 51.2031 -1.5859 Q51.2344 -1.25 51.3281 -1.0547 Q51.4219 -0.8594 51.625 -0.7344 Q51.8281 -0.6094 52.3594 -0.5156 L52.3594 0 L50.125 0.0938 L49.5312 0.0938 L49.5938 -1.5 L49.4375 -1.5469 Q48.625 -0.6719 47.8906 -0.2578 Q47.1562 0.1562 46.4219 0.1562 Q45.5312 0.1562 44.9531 -0.1953 Q44.375 -0.5469 44.0938 -1.2422 Q43.8125 -1.9375 43.8125 -3.2188 L43.8125 -6.9062 Q43.8125 -7.7188 43.75 -8.0312 Q43.6875 -8.3438 43.5 -8.5234 Q43.3125 -8.7031 42.7188 -8.8594 L42.7188 -9.3438 ZM61.2188 -9.1094 L61.2188 -7.0781 L59.9844 -7.0781 Q59.8125 -7.7031 59.5703 -8.0703 Q59.3281 -8.4375 59.0078 -8.5859 Q58.6875 -8.7344 58.2031 -8.7344 Q57.5156 -8.7344 56.9922 -8.2969 Q56.4688 -7.8594 56.1641 -6.9609 Q55.8594 -6.0625 55.8594 -4.75 Q55.8594 -3.9219 55.9766 -3.2344 Q56.0938 -2.5469 56.375 -2.0625 Q56.6562 -1.5781 57.125 -1.3047 Q57.5938 -1.0312 58.2812 -1.0312 Q58.9531 -1.0312 59.5391 -1.2891 Q60.125 -1.5469 60.75 -2.2188 L61.2969 -1.5781 Q60.7969 -1.0312 60.4219 -0.7344 Q60.0469 -0.4375 59.6094 -0.2344 Q59.1719 -0.0312 58.75 0.0625 Q58.3281 0.1562 57.8281 0.1562 Q55.9844 0.1562 55.0078 -1.0703 Q54.0312 -2.2969 54.0312 -4.6094 Q54.0312 -6.0625 54.5781 -7.1797 Q55.125 -8.2969 56.1094 -8.8984 Q57.0938 -9.5 58.375 -9.5 Q59.1875 -9.5 59.8672 -9.4062 Q60.5469 -9.3125 61.2188 -9.1094 ZM62.3594 -8.8438 Q62.8438 -8.9219 63.1484 -9.1172 Q63.4531 -9.3125 63.625 -9.625 Q63.7969 -9.9375 63.8984 -10.3984 Q64 -10.8594 64.0938 -11.75 L65.4844 -11.75 L65.4844 -9.3438 L68.6406 -9.3438 L68.6406 -8.3438 L65.4844 -8.3438 L65.4844 -4 Q65.4844 -3.0625 65.5625 -2.5 Q65.6406 -1.9375 65.8594 -1.6172 Q66.0781 -1.2969 66.3516 -1.1641 Q66.625 -1.0312 67.0469 -1.0312 Q67.4375 -1.0312 67.7812 -1.1875 Q68.125 -1.3438 68.4531 -1.6562 L68.8906 -1.125 Q68.2031 -0.4531 67.5859 -0.1484 Q66.9688 0.1562 66.2969 0.1562 Q65.0312 0.1562 64.4219 -0.5938 Q63.8125 -1.3438 63.8125 -2.9375 L63.8125 -8.3438 L62.3594 -8.3438 L62.3594 -8.8438 ZM72.7344 -13.1719 L72.7344 -11.2656 L70.9375 -11.2656 L70.9375 -13.1719 L72.7344 -13.1719 ZM69.9531 -0.4844 Q70.3281 -0.5938 70.4922 -0.6797 Q70.6562 -0.7656 70.7656 -0.9219 Q70.875 -1.0781 70.9375 -1.4062 Q71 -1.7344 71 -2.4062 L71 -6.6719 Q71 -7.2969 70.9844 -7.6797 Q70.9688 -8.0625 70.8516 -8.2891 Q70.7344 -8.5156 70.4922 -8.625 Q70.25 -8.7344 69.8125 -8.8125 L69.8125 -9.3438 L72.0938 -9.4219 L72.6875 -9.4219 L72.6875 -2.4375 Q72.6875 -1.6094 72.7656 -1.2812 Q72.8438 -0.9531 73.0625 -0.7812 Q73.2812 -0.6094 73.7812 -0.4844 L73.7812 0 L69.9531 0 L69.9531 -0.4844 ZM79.1719 -9.3438 L79.1719 -8.8594 Q78.7188 -8.75 78.5312 -8.6562 Q78.3438 -8.5625 78.2578 -8.4062 Q78.1719 -8.25 78.1719 -7.9844 Q78.1719 -7.7188 78.2344 -7.4297 Q78.2969 -7.1406 78.4219 -6.7656 L80.125 -1.8125 L82.125 -6.5469 Q82.3125 -7.0156 82.3906 -7.3203 Q82.4688 -7.625 82.4688 -7.8906 Q82.4688 -8.2969 82.25 -8.5156 Q82.0312 -8.7344 81.4531 -8.8594 L81.4531 -9.3438 L85.0938 -9.3438 L85.0938 -8.8594 Q84.7188 -8.7812 84.5156 -8.6172 Q84.3125 -8.4531 84.1016 -8.1094 Q83.8906 -7.7656 83.6094 -7.1406 L80.3281 0.0938 L79.1719 0.0938 L76.5312 -7.2031 Q76.25 -7.9531 76.0859 -8.2266 Q75.9219 -8.5 75.7344 -8.6406 Q75.5469 -8.7812 75.1875 -8.8594 L75.1875 -9.3438 L79.1719 -9.3438 ZM88.7344 -13.1719 L88.7344 -11.2656 L86.9375 -11.2656 L86.9375 -13.1719 L88.7344 -13.1719 ZM85.9531 -0.4844 Q86.3281 -0.5938 86.4922 -0.6797 Q86.6562 -0.7656 86.7656 -0.9219 Q86.875 -1.0781 86.9375 -1.4062 Q87 -1.7344 87 -2.4062 L87 -6.6719 Q87 -7.2969 86.9844 -7.6797 Q86.9688 -8.0625 86.8516 -8.2891 Q86.7344 -8.5156 86.4922 -8.625 Q86.25 -8.7344 85.8125 -8.8125 L85.8125 -9.3438 L88.0938 -9.4219 L88.6875 -9.4219 L88.6875 -2.4375 Q88.6875 -1.6094 88.7656 -1.2812 Q88.8438 -0.9531 89.0625 -0.7812 Q89.2812 -0.6094 89.7812 -0.4844 L89.7812 0 L85.9531 0 L85.9531 -0.4844 ZM91.3594 -8.8438 Q91.8438 -8.9219 92.1484 -9.1172 Q92.4531 -9.3125 92.625 -9.625 Q92.7969 -9.9375 92.8984 -10.3984 Q93 -10.8594 93.0938 -11.75 L94.4844 -11.75 L94.4844 -9.3438 L97.6406 -9.3438 L97.6406 -8.3438 L94.4844 -8.3438 L94.4844 -4 Q94.4844 -3.0625 94.5625 -2.5 Q94.6406 -1.9375 94.8594 -1.6172 Q95.0781 -1.2969 95.3516 -1.1641 Q95.625 -1.0312 96.0469 -1.0312 Q96.4375 -1.0312 96.7812 -1.1875 Q97.125 -1.3438 97.4531 -1.6562 L97.8906 -1.125 Q97.2031 -0.4531 96.5859 -0.1484 Q95.9688 0.1562 95.2969 0.1562 Q94.0312 0.1562 93.4219 -0.5938 Q92.8125 -1.3438 92.8125 -2.9375 L92.8125 -8.3438 L91.3594 -8.3438 L91.3594 -8.8438 ZM103.0781 0.7969 Q102.5469 2.0156 102.0391 2.7656 Q101.5312 3.5156 100.9219 3.8984 Q100.3125 4.2812 99.4688 4.2812 Q98.9219 4.2812 98.25 4.1562 L98.25 2.2188 L99.125 2.2188 Q99.2344 2.625 99.4141 2.7812 Q99.5938 2.9375 99.9219 2.9375 Q100.2188 2.9375 100.4453 2.8203 Q100.6719 2.7031 100.9219 2.4297 Q101.1719 2.1562 101.5078 1.5938 Q101.8438 1.0312 102.2656 0.1562 L99.5312 -7.2031 Q99.2656 -7.9062 99.1094 -8.1953 Q98.9531 -8.4844 98.7656 -8.625 Q98.5781 -8.7656 98.2031 -8.8594 L98.2031 -9.3438 L102.1719 -9.3438 L102.1719 -8.8594 Q101.7188 -8.75 101.5312 -8.6484 Q101.3438 -8.5469 101.2578 -8.3828 Q101.1719 -8.2188 101.1719 -7.9688 Q101.1719 -7.7031 101.2344 -7.4219 Q101.2969 -7.1406 101.4219 -6.7656 L103.1719 -1.8594 L105.125 -6.5469 Q105.2812 -6.9375 105.375 -7.2656 Q105.4688 -7.5938 105.4688 -7.875 Q105.4688 -8.2969 105.2422 -8.5156 Q105.0156 -8.7344 104.4531 -8.8594 L104.4531 -9.3438 L108.0938 -9.3438 L108.0938 -8.8594 Q107.7188 -8.7812 107.5156 -8.6172 Q107.3125 -8.4531 107.1016 -8.1094 Q106.8906 -7.7656 106.6094 -7.1406 L103.0781 0.7969 ZM117.2031 0.1562 Q115.1719 0.1562 114.1016 -1.0391 Q113.0312 -2.2344 113.0312 -4.5781 Q113.0312 -6.1875 113.5938 -7.3047 Q114.1562 -8.4219 115.1328 -8.9609 Q116.1094 -9.5 117.3594 -9.5 Q119.4375 -9.5 120.5156 -8.2891 Q121.5938 -7.0781 121.5938 -4.7969 Q121.5938 -3.1719 121.0547 -2.0625 Q120.5156 -0.9531 119.5312 -0.3984 Q118.5469 0.1562 117.2031 0.1562 ZM114.875 -4.7812 Q114.875 -2.7812 115.5156 -1.6953 Q116.1562 -0.6094 117.3438 -0.6094 Q118 -0.6094 118.4609 -0.9297 Q118.9219 -1.25 119.2031 -1.7891 Q119.4844 -2.3281 119.6172 -3.0312 Q119.75 -3.7344 119.75 -4.5156 Q119.75 -5.9531 119.4297 -6.8984 Q119.1094 -7.8438 118.5625 -8.2891 Q118.0156 -8.7344 117.3125 -8.7344 Q116.125 -8.7344 115.5 -7.7109 Q114.875 -6.6875 114.875 -4.7812 ZM128.9688 -8.3438 L126.6406 -8.3438 L126.6406 -2.4375 Q126.6406 -1.7812 126.7031 -1.4531 Q126.7656 -1.125 126.8828 -0.9531 Q127 -0.7812 127.2031 -0.6797 Q127.4062 -0.5781 127.8438 -0.4844 L127.8438 0 L123.8438 0 L123.8438 -0.4844 Q124.2812 -0.5938 124.4688 -0.7031 Q124.6562 -0.8125 124.7578 -0.9766 Q124.8594 -1.1406 124.9062 -1.4531 Q124.9531 -1.7656 124.9531 -2.4375 L124.9531 -8.3438 L123.7656 -8.3438 L123.7656 -8.8438 Q124.1406 -8.9062 124.2656 -8.9375 Q124.3906 -8.9688 124.5 -9.0391 Q124.6094 -9.1094 124.6953 -9.2344 Q124.7812 -9.3594 124.8438 -9.6094 Q124.9062 -9.8594 124.9375 -10.3125 Q125.0312 -11.375 125.3281 -12.0391 Q125.625 -12.7031 126.1953 -13.1719 Q126.7656 -13.6406 127.4141 -13.8359 Q128.0625 -14.0312 128.9531 -14.0312 Q129.7188 -14.0312 130.25 -13.9219 L130.25 -12.1562 L129.2969 -12.1562 Q129.1094 -12.7188 128.8594 -12.9609 Q128.6094 -13.2031 128.1562 -13.2031 Q127.8281 -13.2031 127.6094 -13.1172 Q127.3906 -13.0312 127.2109 -12.8438 Q127.0312 -12.6562 126.8984 -12.3438 Q126.7656 -12.0312 126.7031 -11.5703 Q126.6406 -11.1094 126.6406 -10.3594 L126.6406 -9.3438 L128.9688 -9.3438 L128.9688 -8.3438 ZM138.9688 -8.3438 L136.6406 -8.3438 L136.6406 -2.4375 Q136.6406 -1.7812 136.7031 -1.4531 Q136.7656 -1.125 136.8828 -0.9531 Q137 -0.7812 137.2031 -0.6797 Q137.4062 -0.5781 137.8438 -0.4844 L137.8438 0 L133.8438 0 L133.8438 -0.4844 Q134.2812 -0.5938 134.4688 -0.7031 Q134.6562 -0.8125 134.7578 -0.9766 Q134.8594 -1.1406 134.9062 -1.4531 Q134.9531 -1.7656 134.9531 -2.4375 L134.9531 -8.3438 L133.7656 -8.3438 L133.7656 -8.8438 Q134.1406 -8.9062 134.2656 -8.9375 Q134.3906 -8.9688 134.5 -9.0391 Q134.6094 -9.1094 134.6953 -9.2344 Q134.7812 -9.3594 134.8438 -9.6094 Q134.9062 -9.8594 134.9375 -10.3125 Q135.0312 -11.375 135.3281 -12.0391 Q135.625 -12.7031 136.1953 -13.1719 Q136.7656 -13.6406 137.4141 -13.8359 Q138.0625 -14.0312 138.9531 -14.0312 Q139.7188 -14.0312 140.25 -13.9219 L140.25 -12.1562 L139.2969 -12.1562 Q139.1094 -12.7188 138.8594 -12.9609 Q138.6094 -13.2031 138.1562 -13.2031 Q137.8281 -13.2031 137.6094 -13.1172 Q137.3906 -13.0312 137.2109 -12.8438 Q137.0312 -12.6562 136.8984 -12.3438 Q136.7656 -12.0312 136.7031 -11.5703 Q136.6406 -11.1094 136.6406 -10.3594 L136.6406 -9.3438 L138.9688 -9.3438 L138.9688 -8.3438 ZM142.5625 -2.4375 Q142.5625 -1.6094 142.6406 -1.2812 Q142.7188 -0.9531 142.9375 -0.7812 Q143.1562 -0.6094 143.6562 -0.4844 L143.6562 0 L139.7656 0 L139.7656 -0.4844 Q140.2656 -0.6094 140.4531 -0.7422 Q140.6406 -0.875 140.7266 -1.0703 Q140.8125 -1.2656 140.8438 -1.5938 Q140.875 -1.9219 140.875 -2.4375 L140.875 -10.6094 Q140.875 -11.5469 140.8594 -11.9219 Q140.8438 -12.2969 140.7812 -12.5547 Q140.7188 -12.8125 140.6094 -12.9609 Q140.5 -13.1094 140.3047 -13.1953 Q140.1094 -13.2812 139.6094 -13.375 L139.6094 -13.875 L141.9688 -13.9688 L142.5625 -13.9688 L142.5625 -2.4375 ZM144.7188 -9.3438 L147.5 -9.3438 L147.5 -4.3594 Q147.5 -3.2188 147.5859 -2.625 Q147.6719 -2.0312 147.8516 -1.7266 Q148.0312 -1.4219 148.3516 -1.2188 Q148.6719 -1.0156 149.2344 -1.0156 Q149.6094 -1.0156 149.9531 -1.1641 Q150.2969 -1.3125 150.7109 -1.6797 Q151.125 -2.0469 151.3047 -2.4062 Q151.4844 -2.7656 151.4844 -3.25 L151.4844 -6.9062 Q151.4844 -7.4688 151.4609 -7.75 Q151.4375 -8.0312 151.3672 -8.2031 Q151.2969 -8.375 151.2031 -8.4766 Q151.1094 -8.5781 150.9375 -8.6719 Q150.7656 -8.7656 150.3906 -8.8594 L150.3906 -9.3438 L153.1719 -9.3438 L153.1719 -2.6719 Q153.1719 -1.9219 153.2031 -1.5859 Q153.2344 -1.25 153.3281 -1.0547 Q153.4219 -0.8594 153.625 -0.7344 Q153.8281 -0.6094 154.3594 -0.5156 L154.3594 0 L152.125 0.0938 L151.5312 0.0938 L151.5938 -1.5 L151.4375 -1.5469 Q150.625 -0.6719 149.8906 -0.2578 Q149.1562 0.1562 148.4219 0.1562 Q147.5312 0.1562 146.9531 -0.1953 Q146.375 -0.5469 146.0938 -1.2422 Q145.8125 -1.9375 145.8125 -3.2188 L145.8125 -6.9062 Q145.8125 -7.7188 145.75 -8.0312 Q145.6875 -8.3438 145.5 -8.5234 Q145.3125 -8.7031 144.7188 -8.8594 L144.7188 -9.3438 ZM158.7344 -13.1719 L158.7344 -11.2656 L156.9375 -11.2656 L156.9375 -13.1719 L158.7344 -13.1719 ZM155.9531 -0.4844 Q156.3281 -0.5938 156.4922 -0.6797 Q156.6562 -0.7656 156.7656 -0.9219 Q156.875 -1.0781 156.9375 -1.4062 Q157 -1.7344 157 -2.4062 L157 -6.6719 Q157 -7.2969 156.9844 -7.6797 Q156.9688 -8.0625 156.8516 -8.2891 Q156.7344 -8.5156 156.4922 -8.625 Q156.25 -8.7344 155.8125 -8.8125 L155.8125 -9.3438 L158.0938 -9.4219 L158.6875 -9.4219 L158.6875 -2.4375 Q158.6875 -1.6094 158.7656 -1.2812 Q158.8438 -0.9531 159.0625 -0.7812 Q159.2812 -0.6094 159.7812 -0.4844 L159.7812 0 L155.9531 0 L155.9531 -0.4844 ZM168.5469 -10.6094 Q168.5469 -11.5469 168.5312 -11.9219 Q168.5156 -12.2969 168.4531 -12.5547 Q168.3906 -12.8125 168.2734 -12.9609 Q168.1562 -13.1094 167.9688 -13.1953 Q167.7812 -13.2812 167.2812 -13.375 L167.2812 -13.875 L169.6406 -13.9688 L170.2188 -13.9688 L170.2188 -2.6719 Q170.2188 -1.9062 170.25 -1.5781 Q170.2812 -1.25 170.375 -1.0547 Q170.4688 -0.8594 170.6797 -0.7344 Q170.8906 -0.6094 171.4219 -0.5156 L171.4219 0 L169.1094 0.0938 L168.5312 0.0938 L168.6406 -1.5 L168.5 -1.5469 Q167.8906 -0.8906 167.4375 -0.5625 Q166.9844 -0.2344 166.4688 -0.0391 Q165.9531 0.1562 165.3594 0.1562 Q163.7656 0.1562 162.8984 -1.0625 Q162.0312 -2.2812 162.0312 -4.5781 Q162.0312 -6.1719 162.5938 -7.2891 Q163.1562 -8.4062 164.1172 -8.9531 Q165.0781 -9.5 166.2812 -9.5 Q166.9219 -9.5 167.4531 -9.3984 Q167.9844 -9.2969 168.5469 -9.0625 L168.5469 -10.6094 ZM168.5469 -5.7969 Q168.5469 -6.5469 168.4766 -7.0078 Q168.4062 -7.4688 168.2422 -7.7812 Q168.0781 -8.0938 167.8047 -8.3125 Q167.5312 -8.5312 167.2031 -8.625 Q166.875 -8.7188 166.4219 -8.7188 Q165.1719 -8.7188 164.5156 -7.7188 Q163.8594 -6.7188 163.8594 -4.8438 Q163.8594 -2.9688 164.3984 -1.9922 Q164.9375 -1.0156 166.0312 -1.0156 Q166.4531 -1.0156 166.7422 -1.0859 Q167.0312 -1.1562 167.3047 -1.3203 Q167.5781 -1.4844 167.8594 -1.7656 Q168.1406 -2.0469 168.2734 -2.2812 Q168.4062 -2.5156 168.4766 -2.8203 Q168.5469 -3.125 168.5469 -3.6094 L168.5469 -5.7969 ZM183.2188 4.25 Q181.5625 4.25 180.5078 3.75 Q179.4531 3.25 178.8672 2.2344 Q178.2812 1.2188 178.0234 -0.4141 Q177.7656 -2.0469 177.7656 -4.8438 Q177.7656 -7.625 178.0234 -9.2656 Q178.2812 -10.9062 178.8672 -11.9453 Q179.4531 -12.9844 180.5078 -13.5 Q181.5625 -14.0156 183.2188 -14.0156 L183.2188 -13.2188 Q182.5312 -13.2188 182 -13.0938 Q181.4062 -12.9531 180.9844 -12.5625 Q180.5156 -12.1406 180.2344 -11.375 Q179.8906 -10.4688 179.7188 -8.9844 Q179.5469 -7.4062 179.5469 -4.9219 Q179.5469 -2.7188 179.6953 -1.1797 Q179.8438 0.3594 180.1875 1.3281 Q180.4531 2.1562 180.8594 2.6094 Q181.2188 3.0156 181.7188 3.2188 Q182.2969 3.4531 183.2188 3.4531 L183.2188 4.25 ZM189.9688 -8.3438 L187.6406 -8.3438 L187.6406 -2.4375 Q187.6406 -1.7812 187.7031 -1.4531 Q187.7656 -1.125 187.8828 -0.9531 Q188 -0.7812 188.2031 -0.6797 Q188.4062 -0.5781 188.8438 -0.4844 L188.8438 0 L184.8438 0 L184.8438 -0.4844 Q185.2812 -0.5938 185.4688 -0.7031 Q185.6562 -0.8125 185.7578 -0.9766 Q185.8594 -1.1406 185.9062 -1.4531 Q185.9531 -1.7656 185.9531 -2.4375 L185.9531 -8.3438 L184.7656 -8.3438 L184.7656 -8.8438 Q185.1406 -8.9062 185.2656 -8.9375 Q185.3906 -8.9688 185.5 -9.0391 Q185.6094 -9.1094 185.6953 -9.2344 Q185.7812 -9.3594 185.8438 -9.6094 Q185.9062 -9.8594 185.9375 -10.3125 Q186.0312 -11.375 186.3281 -12.0391 Q186.625 -12.7031 187.1953 -13.1719 Q187.7656 -13.6406 188.4141 -13.8359 Q189.0625 -14.0312 189.9531 -14.0312 Q190.7188 -14.0312 191.25 -13.9219 L191.25 -12.1562 L190.2969 -12.1562 Q190.1094 -12.7188 189.8594 -12.9609 Q189.6094 -13.2031 189.1562 -13.2031 Q188.8281 -13.2031 188.6094 -13.1172 Q188.3906 -13.0312 188.2109 -12.8438 Q188.0312 -12.6562 187.8984 -12.3438 Q187.7656 -12.0312 187.7031 -11.5703 Q187.6406 -11.1094 187.6406 -10.3594 L187.6406 -9.3438 L189.9688 -9.3438 L189.9688 -8.3438 ZM193.5781 -7.7188 L193.7188 -7.6875 Q194.2656 -8.3438 194.7188 -8.7188 Q195.1719 -9.0938 195.7031 -9.2969 Q196.2344 -9.5 196.9219 -9.5 Q197.4844 -9.5 197.9375 -9.4375 L197.9375 -7.2031 L196.8438 -7.2031 Q196.6094 -7.7188 196.3438 -7.9609 Q196.0781 -8.2031 195.6094 -8.2031 Q195.2656 -8.2031 194.9219 -8 Q194.5781 -7.7969 194.25 -7.4062 Q193.9219 -7.0156 193.8047 -6.6719 Q193.6875 -6.3281 193.6875 -5.8594 L193.6875 -2.4375 Q193.6875 -1.5469 193.7891 -1.2109 Q193.8906 -0.875 194.1406 -0.7188 Q194.3906 -0.5625 194.8906 -0.4844 L194.8906 0 L190.9531 0 L190.9531 -0.4844 Q191.3281 -0.5938 191.4922 -0.6797 Q191.6562 -0.7656 191.7734 -0.9219 Q191.8906 -1.0781 191.9453 -1.4062 Q192 -1.7344 192 -2.4062 L192 -6.6719 Q192 -7.2969 191.9844 -7.6797 Q191.9688 -8.0625 191.8516 -8.2891 Q191.7344 -8.5156 191.4922 -8.625 Q191.25 -8.7344 190.8125 -8.8125 L190.8125 -9.3281 L193.0938 -9.4219 L193.6875 -9.4219 L193.5781 -7.7188 ZM203.2031 0.1562 Q201.1719 0.1562 200.1016 -1.0391 Q199.0312 -2.2344 199.0312 -4.5781 Q199.0312 -6.1875 199.5938 -7.3047 Q200.1562 -8.4219 201.1328 -8.9609 Q202.1094 -9.5 203.3594 -9.5 Q205.4375 -9.5 206.5156 -8.2891 Q207.5938 -7.0781 207.5938 -4.7969 Q207.5938 -3.1719 207.0547 -2.0625 Q206.5156 -0.9531 205.5312 -0.3984 Q204.5469 0.1562 203.2031 0.1562 ZM200.875 -4.7812 Q200.875 -2.7812 201.5156 -1.6953 Q202.1562 -0.6094 203.3438 -0.6094 Q204 -0.6094 204.4609 -0.9297 Q204.9219 -1.25 205.2031 -1.7891 Q205.4844 -2.3281 205.6172 -3.0312 Q205.75 -3.7344 205.75 -4.5156 Q205.75 -5.9531 205.4297 -6.8984 Q205.1094 -7.8438 204.5625 -8.2891 Q204.0156 -8.7344 203.3125 -8.7344 Q202.125 -8.7344 201.5 -7.7109 Q200.875 -6.6875 200.875 -4.7812 ZM212.5781 -7.8281 L212.7188 -7.7969 Q213.3125 -8.375 213.6875 -8.6719 Q214.0625 -8.9688 214.4141 -9.1562 Q214.7656 -9.3438 215.0703 -9.4219 Q215.375 -9.5 215.7031 -9.5 Q216.6719 -9.5 217.2891 -9.0469 Q217.9062 -8.5938 218.1406 -7.6719 Q218.875 -8.4062 219.3281 -8.7578 Q219.7812 -9.1094 220.2578 -9.3047 Q220.7344 -9.5 221.2812 -9.5 Q221.9375 -9.5 222.4062 -9.3047 Q222.875 -9.1094 223.2031 -8.7188 Q223.5312 -8.3281 223.6797 -7.7266 Q223.8281 -7.125 223.8281 -6.125 L223.8281 -2.4375 Q223.8281 -1.7031 223.8828 -1.4219 Q223.9375 -1.1406 224.0312 -0.9844 Q224.125 -0.8281 224.3047 -0.7109 Q224.4844 -0.5938 224.9219 -0.4844 L224.9219 0 L221.0938 0 L221.0938 -0.4844 Q221.4688 -0.5938 221.6328 -0.6797 Q221.7969 -0.7656 221.9141 -0.9219 Q222.0312 -1.0781 222.0938 -1.4062 Q222.1562 -1.7344 222.1562 -2.4062 L222.1562 -4.9688 Q222.1562 -5.7969 222.1094 -6.3359 Q222.0625 -6.875 221.9688 -7.1953 Q221.875 -7.5156 221.75 -7.7031 Q221.625 -7.8906 221.4531 -8.0312 Q221.2812 -8.1719 221.0625 -8.25 Q220.8438 -8.3281 220.4688 -8.3281 Q220.0781 -8.3281 219.7422 -8.1719 Q219.4062 -8.0156 219.0078 -7.6406 Q218.6094 -7.2656 218.4375 -6.8906 Q218.2656 -6.5156 218.2656 -6 L218.2656 -2.4375 Q218.2656 -1.7031 218.3125 -1.4219 Q218.3594 -1.1406 218.4531 -0.9844 Q218.5469 -0.8281 218.7266 -0.7109 Q218.9062 -0.5938 219.3594 -0.4844 L219.3594 0 L215.5156 0 L215.5156 -0.4844 Q215.8906 -0.5938 216.0625 -0.6797 Q216.2344 -0.7656 216.3438 -0.9219 Q216.4531 -1.0781 216.5156 -1.4062 Q216.5781 -1.7344 216.5781 -2.4062 L216.5781 -4.9688 Q216.5781 -5.8281 216.5312 -6.375 Q216.4844 -6.9219 216.3828 -7.2578 Q216.2812 -7.5938 216.1172 -7.7969 Q215.9531 -8 215.7891 -8.1094 Q215.625 -8.2188 215.3984 -8.2734 Q215.1719 -8.3281 214.8906 -8.3281 Q214.4844 -8.3281 214.1328 -8.1406 Q213.7812 -7.9531 213.4141 -7.6172 Q213.0469 -7.2812 212.8672 -6.9062 Q212.6875 -6.5312 212.6875 -6.1094 L212.6875 -2.4375 Q212.6875 -1.8906 212.7109 -1.5938 Q212.7344 -1.2969 212.8047 -1.1328 Q212.875 -0.9688 212.9688 -0.8672 Q213.0625 -0.7656 213.2422 -0.6719 Q213.4219 -0.5781 213.7812 -0.4844 L213.7812 0 L209.9531 0 L209.9531 -0.4844 Q210.3281 -0.5938 210.4922 -0.6797 Q210.6562 -0.7656 210.7734 -0.9219 Q210.8906 -1.0781 210.9453 -1.4062 Q211 -1.7344 211 -2.4062 L211 -6.6719 Q211 -7.2969 210.9844 -7.6797 Q210.9688 -8.0625 210.8516 -8.2891 Q210.7344 -8.5156 210.4922 -8.625 Q210.25 -8.7344 209.8125 -8.8125 L209.8125 -9.3438 L212.0938 -9.4219 L212.6875 -9.4219 L212.5781 -7.8281 ZM240.0938 -13.3281 L240.0938 -10.375 L239.125 -10.375 Q238.9219 -11.0469 238.7188 -11.4531 Q238.5156 -11.8594 238.2969 -12.0781 Q238.0781 -12.2969 237.7812 -12.3828 Q237.4844 -12.4688 237.0156 -12.4688 L234.1562 -12.4688 L234.1562 -7.1562 L236.1562 -7.1562 Q236.5938 -7.1562 236.8359 -7.2969 Q237.0781 -7.4375 237.2422 -7.7734 Q237.4062 -8.1094 237.5469 -8.7969 L238.4688 -8.7969 L238.4688 -4.6719 L237.5469 -4.6719 Q237.4062 -5.3438 237.2422 -5.6797 Q237.0781 -6.0156 236.8438 -6.1562 Q236.6094 -6.2969 236.1562 -6.2969 L234.1562 -6.2969 L234.1562 -2.4688 Q234.1562 -1.8906 234.2188 -1.5391 Q234.2812 -1.1875 234.4375 -0.9766 Q234.5938 -0.7656 234.8594 -0.6641 Q235.125 -0.5625 235.5156 -0.4844 L235.5156 0 L231.1875 0 L231.1875 -0.4844 Q231.7812 -0.6406 231.9922 -0.8281 Q232.2031 -1.0156 232.2656 -1.3672 Q232.3281 -1.7188 232.3281 -2.4375 L232.3281 -10.8906 Q232.3281 -11.5625 232.2812 -11.8672 Q232.2344 -12.1719 232.1172 -12.3438 Q232 -12.5156 231.8125 -12.6172 Q231.625 -12.7188 231.1875 -12.8594 L231.1875 -13.3281 L240.0938 -13.3281 ZM245.1562 -0.9062 L247.7031 -0.9062 Q248.125 -0.9062 248.4141 -0.9531 Q248.7031 -1 248.8984 -1.1016 Q249.0938 -1.2031 249.2578 -1.3828 Q249.4219 -1.5625 249.5703 -1.8594 Q249.7188 -2.1562 249.8438 -2.5938 Q249.9688 -3.0312 250.1719 -3.9219 L251.1562 -3.9219 L250.9688 0 L242.1875 0 L242.1875 -0.4844 Q242.7812 -0.6406 242.9922 -0.8281 Q243.2031 -1.0156 243.2656 -1.3672 Q243.3281 -1.7188 243.3281 -2.4375 L243.3281 -10.8906 Q243.3281 -11.5625 243.2812 -11.8672 Q243.2344 -12.1719 243.1172 -12.3438 Q243 -12.5156 242.8125 -12.6172 Q242.625 -12.7188 242.1875 -12.8594 L242.1875 -13.3281 L246.2969 -13.3281 L246.2969 -12.8594 Q245.8594 -12.7344 245.6797 -12.6406 Q245.5 -12.5469 245.3828 -12.3906 Q245.2656 -12.2344 245.2109 -11.9141 Q245.1562 -11.5938 245.1562 -10.8906 L245.1562 -0.9062 ZM262.9844 -4.6094 Q262.9844 -3.5469 262.7969 -2.7812 Q262.6094 -2.0469 262.2344 -1.4688 Q261.8906 -0.9688 261.3828 -0.6094 Q260.875 -0.25 260.1562 -0.0469 Q259.4375 0.1562 258.4531 0.1562 Q257.2812 0.1562 256.4297 -0.1094 Q255.5781 -0.375 255.0312 -0.9766 Q254.4844 -1.5781 254.2422 -2.3906 Q254 -3.2031 254 -4.4688 L254 -10.8906 Q254 -11.6562 253.9453 -11.9219 Q253.8906 -12.1875 253.7969 -12.3438 Q253.7031 -12.5 253.5312 -12.6094 Q253.3594 -12.7188 252.875 -12.8594 L252.875 -13.3281 L256.9844 -13.3281 L256.9844 -12.8594 Q256.4375 -12.7188 256.2188 -12.5469 Q256 -12.375 255.9219 -12.0312 Q255.8438 -11.6875 255.8438 -10.8906 L255.8438 -3.9688 Q255.8438 -3.0312 256.0469 -2.3828 Q256.25 -1.7344 256.6094 -1.3828 Q256.9688 -1.0312 257.4688 -0.8672 Q257.9688 -0.7031 258.7031 -0.7031 Q259.3906 -0.7031 259.9062 -0.9453 Q260.4219 -1.1875 260.7734 -1.6719 Q261.125 -2.1562 261.25 -2.8672 Q261.375 -3.5781 261.375 -4.7812 L261.375 -10.8906 Q261.375 -11.7344 261.2891 -12.0469 Q261.2031 -12.3594 261.0156 -12.5312 Q260.8281 -12.7031 260.2344 -12.8594 L260.2344 -13.3281 L264.125 -13.3281 L264.125 -12.8594 Q263.5625 -12.7031 263.3516 -12.5312 Q263.1406 -12.3594 263.0625 -12.0234 Q262.9844 -11.6875 262.9844 -10.8906 L262.9844 -4.6094 ZM269.1562 -2.4375 Q269.1562 -1.7812 269.2031 -1.4844 Q269.25 -1.1875 269.3516 -1.0078 Q269.4531 -0.8281 269.6562 -0.7109 Q269.8594 -0.5938 270.2969 -0.4844 L270.2969 0 L266.1875 0 L266.1875 -0.4844 Q266.7812 -0.6406 266.9922 -0.8281 Q267.2031 -1.0156 267.2656 -1.3672 Q267.3281 -1.7188 267.3281 -2.4375 L267.3281 -10.8906 Q267.3281 -11.5625 267.2812 -11.8672 Q267.2344 -12.1719 267.1172 -12.3438 Q267 -12.5156 266.8125 -12.6172 Q266.625 -12.7188 266.1875 -12.8594 L266.1875 -13.3281 L270.2969 -13.3281 L270.2969 -12.8594 Q269.875 -12.75 269.6875 -12.6406 Q269.5 -12.5312 269.3828 -12.3672 Q269.2656 -12.2031 269.2109 -11.8828 Q269.1562 -11.5625 269.1562 -10.8906 L269.1562 -2.4375 ZM272.1719 0 L272.1719 -0.4844 Q272.625 -0.5938 272.8203 -0.7031 Q273.0156 -0.8125 273.125 -0.9766 Q273.2344 -1.1406 273.2812 -1.4531 Q273.3281 -1.7656 273.3281 -2.4375 L273.3281 -10.8906 Q273.3281 -11.5781 273.2812 -11.8828 Q273.2344 -12.1875 273.1172 -12.3516 Q273 -12.5156 272.8125 -12.6172 Q272.625 -12.7188 272.1719 -12.8594 L272.1719 -13.3281 L276.4531 -13.3281 Q278.2969 -13.3281 279.4766 -12.9219 Q280.6562 -12.5156 281.4609 -11.7266 Q282.2656 -10.9375 282.6719 -9.7578 Q283.0781 -8.5781 283.0781 -6.9531 Q283.0781 -5.2969 282.6953 -4.0469 Q282.3125 -2.7969 281.5938 -1.9375 Q280.9688 -1.2031 280.0625 -0.7188 Q279.3125 -0.3281 278.3281 -0.1641 Q277.3438 0 275.7031 0 L272.1719 0 ZM275.1562 -0.9062 Q275.5469 -0.875 276.2969 -0.875 Q277.125 -0.875 277.7656 -1.0078 Q278.4062 -1.1406 278.9375 -1.4375 Q279.4688 -1.7344 279.8906 -2.2578 Q280.3125 -2.7812 280.5703 -3.4531 Q280.8281 -4.125 280.9531 -4.9609 Q281.0781 -5.7969 281.0781 -6.7812 Q281.0781 -8.7656 280.5078 -10.0391 Q279.9375 -11.3125 278.8984 -11.8984 Q277.8594 -12.4844 276.4062 -12.4844 Q275.75 -12.4844 275.1562 -12.4375 L275.1562 -0.9062 ZM290.7812 -2.5469 Q290.7812 -1.9844 290.8516 -1.6953 Q290.9219 -1.4062 291.0781 -1.2266 Q291.2344 -1.0469 291.5391 -0.9453 Q291.8438 -0.8438 292.3047 -0.7891 Q292.7656 -0.7344 293.5156 -0.7188 L293.5156 0 L286.2969 0 L286.2969 -0.7188 Q287.375 -0.7656 287.8438 -0.8438 Q288.3125 -0.9219 288.5547 -1.0938 Q288.7969 -1.2656 288.9062 -1.5625 Q289.0156 -1.8594 289.0156 -2.5469 L289.0156 -10.4688 Q289.0156 -10.8594 288.8828 -11.0391 Q288.75 -11.2188 288.4844 -11.2188 Q288.1719 -11.2188 287.5938 -10.8984 Q287.0156 -10.5781 286.1719 -10.0156 L285.7344 -10.7656 L290.3125 -13.4844 L290.8438 -13.4844 Q290.7812 -12.5469 290.7812 -10.8906 L290.7812 -2.5469 ZM301.7812 -2.5469 Q301.7812 -1.9844 301.8516 -1.6953 Q301.9219 -1.4062 302.0781 -1.2266 Q302.2344 -1.0469 302.5391 -0.9453 Q302.8438 -0.8438 303.3047 -0.7891 Q303.7656 -0.7344 304.5156 -0.7188 L304.5156 0 L297.2969 0 L297.2969 -0.7188 Q298.375 -0.7656 298.8438 -0.8438 Q299.3125 -0.9219 299.5547 -1.0938 Q299.7969 -1.2656 299.9062 -1.5625 Q300.0156 -1.8594 300.0156 -2.5469 L300.0156 -10.4688 Q300.0156 -10.8594 299.8828 -11.0391 Q299.75 -11.2188 299.4844 -11.2188 Q299.1719 -11.2188 298.5938 -10.8984 Q298.0156 -10.5781 297.1719 -10.0156 L296.7344 -10.7656 L301.3125 -13.4844 L301.8438 -13.4844 Q301.7812 -12.5469 301.7812 -10.8906 L301.7812 -2.5469 ZM314.8906 -12.9531 L314.8906 -12.4688 Q313.3906 -12.4688 312.2266 -11.8281 Q311.0625 -11.1875 310.2969 -9.9375 Q309.5312 -8.6875 309.2188 -6.9688 L309.3281 -6.9219 Q310.1406 -7.5156 310.9375 -7.7891 Q311.7344 -8.0625 312.6562 -8.0625 Q313.7656 -8.0625 314.5391 -7.5781 Q315.3125 -7.0938 315.7031 -6.2188 Q316.0938 -5.3438 316.0938 -4.1719 Q316.0938 -2.9062 315.6094 -1.9297 Q315.125 -0.9531 314.1016 -0.3984 Q313.0781 0.1562 311.5938 0.1562 Q309.4531 0.1562 308.3594 -1.1719 Q307.2656 -2.5 307.2656 -5.0938 Q307.2656 -6.8281 307.8125 -8.3438 Q308.3594 -9.8594 309.3672 -10.9844 Q310.375 -12.1094 311.7031 -12.7578 Q313.0312 -13.4062 314.5 -13.4844 L314.8906 -12.9531 ZM311.9844 -7.0312 Q311.5156 -7.0312 311.0703 -6.9219 Q310.625 -6.8125 310.2344 -6.6094 Q309.8438 -6.4062 309.4688 -6.0938 Q309.3438 -5.9844 309.2969 -5.875 Q309.1875 -5.6875 309.1641 -5.4141 Q309.1406 -5.1406 309.1406 -4.5 Q309.1406 -2.625 309.7656 -1.6484 Q310.3906 -0.6719 311.6562 -0.6719 Q312.3906 -0.6719 312.8906 -0.9297 Q313.3906 -1.1875 313.6953 -1.6328 Q314 -2.0781 314.1328 -2.6719 Q314.2656 -3.2656 314.2656 -3.9688 Q314.2656 -5.4219 313.6719 -6.2266 Q313.0781 -7.0312 311.9844 -7.0312 ZM317.4219 -14.0156 Q319.0781 -14.0156 320.1328 -13.5156 Q321.1875 -13.0156 321.7734 -12 Q322.3594 -10.9844 322.6172 -9.3516 Q322.875 -7.7188 322.875 -4.9219 Q322.875 -2.1562 322.6172 -0.5078 Q322.3594 1.1406 321.7734 2.1797 Q321.1875 3.2188 320.1328 3.7344 Q319.0781 4.25 317.4219 4.25 L317.4219 3.4531 Q318.1094 3.4531 318.625 3.3281 Q319.2344 3.1875 319.6406 2.7969 Q320.1094 2.375 320.4062 1.6094 Q320.75 0.7031 320.9219 -0.7812 Q321.0938 -2.3594 321.0938 -4.8438 Q321.0938 -7.0469 320.9453 -8.5859 Q320.7969 -10.125 320.4531 -11.0938 Q320.1875 -11.9219 319.7812 -12.375 Q319.4062 -12.7812 318.9219 -12.9844 Q318.3438 -13.2188 317.4219 -13.2188 L317.4219 -14.0156 Z" stroke="none"/></g></g></svg>