<?xml version="1.0" encoding="UTF-8" standalone="no"?><svg xmlns="http://www.w3.org/2000/svg" xmlns:xlink="http://www.w3.org/1999/xlink" stroke-dasharray="none" shape-rendering="auto" font-family="'Dialog'" width="403.812600" text-rendering="auto" fill-opacity="1" contentScriptType="text/ecmascript" color-interpolation="auto" color-rendering="auto" preserveAspectRatio="xMidYMid meet" font-size="12" fill="black" stroke="black" image-rendering="auto" stroke-miterlimit="10" zoomAndPan="magnify" version="1.0" stroke-linecap="square" stroke-linejoin="miter" contentStyleType="text/css" font-style="normal" height="20" stroke-width="1" stroke-dashoffset="0" font-weight="normal" stroke-opacity="1" y="-5.000000"><!--Converted from MathML using JEuclid--><defs id="genericDefs"/><g><g text-rendering="optimizeLegibility" transform="translate(1.0781,15)" color-rendering="optimizeQuality" color-interpolation="linearRGB" image-rendering="optimizeQuality"><path d="M7.0781 4.2188 Q5.5625 4.2188 4.6797 3.8281 Q3.7969 3.4375 3.4141 2.6641 Q3.0312 1.8906 3.0312 0.5781 L3.0312 -2.25 Q3.0312 -3.1094 2.8125 -3.5938 Q2.5938 -4.0781 2.1562 -4.2734 Q1.7188 -4.4688 0.9219 -4.4688 L0.9219 -5.2812 Q1.7031 -5.2812 2.1484 -5.4766 Q2.5938 -5.6719 2.8125 -6.1484 Q3.0312 -6.625 3.0312 -7.5 L3.0312 -10.3281 Q3.0312 -11.625 3.4141 -12.4062 Q3.7969 -13.1875 4.6797 -13.5781 Q5.5625 -13.9688 7.0781 -13.9688 L7.3281 -13.9688 L7.3281 -13.1719 Q6.5469 -13.1719 6.1641 -13.0938 Q5.7812 -13.0156 5.5391 -12.8438 Q5.2969 -12.6719 5.1406 -12.4141 Q4.9844 -12.1562 4.8984 -11.6875 Q4.8125 -11.2188 4.8125 -10.4375 L4.8125 -8.5469 Q4.8125 -7.5625 4.6406 -6.8984 Q4.4688 -6.2344 4.0312 -5.7578 Q3.5938 -5.2812 2.8281 -4.9688 L2.8281 -4.7812 Q3.5781 -4.4844 4.0312 -3.9844 Q4.4844 -3.4844 4.6484 -2.8203 Q4.8125 -2.1562 4.8125 -1.2031 L4.8125 0.6875 Q4.8125 1.4688 4.8984 1.9375 Q4.9844 2.4062 5.1406 2.6719 Q5.2969 2.9375 5.5391 3.1016 Q5.7812 3.2656 6.1641 3.3438 Q6.5469 3.4219 7.3281 3.4219 L7.3281 4.2188 L7.0781 4.2188 Z" stroke="none"/></g><g text-rendering="optimizeLegibility" transform="translate(10.4062,15)" color-rendering="optimizeQuality" color-interpolation="linearRGB" image-rendering="optimizeQuality"><path d="M8.1406 -8.8594 L9.0469 -9.5 L9.6719 -9.3438 L8.1719 -2.7188 Q8.0312 -2.125 7.9844 -1.8125 Q7.9375 -1.5 7.9375 -1.2969 Q7.9375 -0.8906 8.1641 -0.7109 Q8.3906 -0.5312 9.0312 -0.4844 L8.9375 0 L6.1406 0 L6.7656 -2.4531 L6.625 -2.4844 Q5.6875 -1.125 4.8516 -0.4922 Q4.0156 0.1406 3.0781 0.1406 Q2 0.1406 1.4141 -0.6641 Q0.8281 -1.4688 0.8281 -2.9375 Q0.8281 -3.875 1.0391 -4.8203 Q1.25 -5.7656 1.6875 -6.6094 Q2.125 -7.4531 2.7266 -8.0938 Q3.3281 -8.7344 4.125 -9.1172 Q4.9219 -9.5 5.8594 -9.5 Q6.4688 -9.5 7.0156 -9.3594 Q7.5625 -9.2188 8.1406 -8.8594 ZM7.2812 -5.9531 Q7.375 -6.3438 7.4062 -6.6406 Q7.4375 -6.9375 7.4375 -7.2812 Q7.4375 -8.0312 7.1094 -8.3828 Q6.7812 -8.7344 6.0312 -8.7344 Q5.625 -8.7344 5.2578 -8.6016 Q4.8906 -8.4688 4.5078 -8.1641 Q4.125 -7.8594 3.7734 -7.3594 Q3.4219 -6.8594 3.1406 -6.1484 Q2.8594 -5.4375 2.7031 -4.6172 Q2.5469 -3.7969 2.5469 -3.0312 Q2.5469 -2.0156 2.8281 -1.5078 Q3.1094 -1 3.7656 -1 Q4.0625 -1 4.3906 -1.1406 Q4.7188 -1.2812 5.1172 -1.6484 Q5.5156 -2.0156 6.0312 -2.7188 Q6.4844 -3.375 6.75 -4.0156 Q7.0156 -4.6562 7.2031 -5.5312 L7.2812 -5.9531 Z" stroke="none"/></g><g text-rendering="optimizeLegibility" transform="translate(20.0781,18.4609)" color-rendering="optimizeQuality" color-interpolation="linearRGB" image-rendering="optimizeQuality"><path d="M2.7188 -6.5938 L3.125 -6.5938 L2.6562 -4.9219 L2.7344 -4.8906 Q3.3906 -5.7812 4.0078 -6.2109 Q4.625 -6.6406 5.2812 -6.6406 Q5.7812 -6.6406 6.1094 -6.5625 L5.7812 -5.0312 L5.0781 -5.0312 Q5.0312 -5.3906 4.9141 -5.5781 Q4.7969 -5.7656 4.5469 -5.7656 Q4.2812 -5.7656 3.9297 -5.4922 Q3.5781 -5.2188 3.2188 -4.7422 Q2.8594 -4.2656 2.6797 -3.8594 Q2.5 -3.4531 2.4062 -2.9531 L1.7812 0 L0.5938 0 L1.6406 -4.6719 Q1.7812 -5.3125 1.7812 -5.6406 Q1.7812 -5.8438 1.7188 -5.9453 Q1.6562 -6.0469 1.5156 -6.1016 Q1.375 -6.1562 1.0469 -6.1719 L1.125 -6.5312 L2.7188 -6.5938 Z" stroke="none"/></g><g text-rendering="optimizeLegibility" transform="translate(27.7656,15)" color-rendering="optimizeQuality" color-interpolation="linearRGB" image-rendering="optimizeQuality"><path d="M0.6719 -13.9688 Q2.1875 -13.9688 3.0703 -13.5781 Q3.9531 -13.1875 4.3281 -12.4062 Q4.7031 -11.625 4.7031 -10.3281 L4.7031 -7.5 Q4.7031 -6.625 4.9297 -6.1484 Q5.1562 -5.6719 5.5938 -5.4766 Q6.0312 -5.2812 6.8125 -5.2812 L6.8125 -4.4688 Q6.0312 -4.4688 5.5859 -4.2734 Q5.1406 -4.0781 4.9219 -3.5938 Q4.7031 -3.1094 4.7031 -2.25 L4.7031 0.5781 Q4.7031 1.8906 4.3281 2.6641 Q3.9531 3.4375 3.0703 3.8281 Q2.1875 4.2188 0.6719 4.2188 L0.4219 4.2188 L0.4219 3.4219 Q1.1875 3.4219 1.5781 3.3438 Q1.9688 3.2656 2.2031 3.1016 Q2.4375 2.9375 2.5938 2.6719 Q2.75 2.4062 2.8438 1.9375 Q2.9375 1.4688 2.9375 0.6875 L2.9375 -1.2031 Q2.9375 -2.1875 3.1016 -2.8438 Q3.2656 -3.5 3.7109 -3.9844 Q4.1562 -4.4688 4.9062 -4.7812 L4.9062 -4.9688 Q4.1719 -5.2656 3.7188 -5.7656 Q3.2656 -6.2656 3.1016 -6.9297 Q2.9375 -7.5938 2.9375 -8.5469 L2.9375 -10.4375 Q2.9375 -11.2188 2.8438 -11.6875 Q2.75 -12.1562 2.5938 -12.4141 Q2.4375 -12.6719 2.2031 -12.8438 Q1.9688 -13.0156 1.5781 -13.0938 Q1.1875 -13.1719 0.4219 -13.1719 L0.4219 -13.9688 L0.6719 -13.9688 Z" stroke="none"/></g><g text-rendering="optimizeLegibility" transform="translate(37.3594,15)" color-rendering="optimizeQuality" color-interpolation="linearRGB" image-rendering="optimizeQuality"><path d="M1.2188 -7.0625 L1.2188 -8.4219 L9.8594 -8.4219 L9.8594 -7.0625 L1.2188 -7.0625 ZM1.2188 -3.0156 L1.2188 -4.3594 L9.8594 -4.3594 L9.8594 -3.0156 L1.2188 -3.0156 Z" stroke="none"/></g><g text-rendering="optimizeLegibility" transform="translate(50.2969,15)" color-rendering="optimizeQuality" color-interpolation="linearRGB" image-rendering="optimizeQuality"><path d="M7.0781 4.2188 Q5.5625 4.2188 4.6797 3.8281 Q3.7969 3.4375 3.4141 2.6641 Q3.0312 1.8906 3.0312 0.5781 L3.0312 -2.25 Q3.0312 -3.1094 2.8125 -3.5938 Q2.5938 -4.0781 2.1562 -4.2734 Q1.7188 -4.4688 0.9219 -4.4688 L0.9219 -5.2812 Q1.7031 -5.2812 2.1484 -5.4766 Q2.5938 -5.6719 2.8125 -6.1484 Q3.0312 -6.625 3.0312 -7.5 L3.0312 -10.3281 Q3.0312 -11.625 3.4141 -12.4062 Q3.7969 -13.1875 4.6797 -13.5781 Q5.5625 -13.9688 7.0781 -13.9688 L7.3281 -13.9688 L7.3281 -13.1719 Q6.5469 -13.1719 6.1641 -13.0938 Q5.7812 -13.0156 5.5391 -12.8438 Q5.2969 -12.6719 5.1406 -12.4141 Q4.9844 -12.1562 4.8984 -11.6875 Q4.8125 -11.2188 4.8125 -10.4375 L4.8125 -8.5469 Q4.8125 -7.5625 4.6406 -6.8984 Q4.4688 -6.2344 4.0312 -5.7578 Q3.5938 -5.2812 2.8281 -4.9688 L2.8281 -4.7812 Q3.5781 -4.4844 4.0312 -3.9844 Q4.4844 -3.4844 4.6484 -2.8203 Q4.8125 -2.1562 4.8125 -1.2031 L4.8125 0.6875 Q4.8125 1.4688 4.8984 1.9375 Q4.9844 2.4062 5.1406 2.6719 Q5.2969 2.9375 5.5391 3.1016 Q5.7812 3.2656 6.1641 3.3438 Q6.5469 3.4219 7.3281 3.4219 L7.3281 4.2188 L7.0781 4.2188 Z" stroke="none"/></g><g text-rendering="optimizeLegibility" transform="translate(59.625,15)" color-rendering="optimizeQuality" color-interpolation="linearRGB" image-rendering="optimizeQuality"><path d="M8.1406 -8.8594 L9.0469 -9.5 L9.6719 -9.3438 L8.1719 -2.7188 Q8.0312 -2.125 7.9844 -1.8125 Q7.9375 -1.5 7.9375 -1.2969 Q7.9375 -0.8906 8.1641 -0.7109 Q8.3906 -0.5312 9.0312 -0.4844 L8.9375 0 L6.1406 0 L6.7656 -2.4531 L6.625 -2.4844 Q5.6875 -1.125 4.8516 -0.4922 Q4.0156 0.1406 3.0781 0.1406 Q2 0.1406 1.4141 -0.6641 Q0.8281 -1.4688 0.8281 -2.9375 Q0.8281 -3.875 1.0391 -4.8203 Q1.25 -5.7656 1.6875 -6.6094 Q2.125 -7.4531 2.7266 -8.0938 Q3.3281 -8.7344 4.125 -9.1172 Q4.9219 -9.5 5.8594 -9.5 Q6.4688 -9.5 7.0156 -9.3594 Q7.5625 -9.2188 8.1406 -8.8594 ZM7.2812 -5.9531 Q7.375 -6.3438 7.4062 -6.6406 Q7.4375 -6.9375 7.4375 -7.2812 Q7.4375 -8.0312 7.1094 -8.3828 Q6.7812 -8.7344 6.0312 -8.7344 Q5.625 -8.7344 5.2578 -8.6016 Q4.8906 -8.4688 4.5078 -8.1641 Q4.125 -7.8594 3.7734 -7.3594 Q3.4219 -6.8594 3.1406 -6.1484 Q2.8594 -5.4375 2.7031 -4.6172 Q2.5469 -3.7969 2.5469 -3.0312 Q2.5469 -2.0156 2.8281 -1.5078 Q3.1094 -1 3.7656 -1 Q4.0625 -1 4.3906 -1.1406 Q4.7188 -1.2812 5.1172 -1.6484 Q5.5156 -2.0156 6.0312 -2.7188 Q6.4844 -3.375 6.75 -4.0156 Q7.0156 -4.6562 7.2031 -5.5312 L7.2812 -5.9531 Z" stroke="none"/></g><g text-rendering="optimizeLegibility" transform="translate(69.2969,18.6328)" color-rendering="optimizeQuality" color-interpolation="linearRGB" image-rendering="optimizeQuality"><path d="M2.7188 -6.5938 L3.125 -6.5938 L2.6562 -4.9219 L2.7344 -4.8906 Q3.3906 -5.7812 4.0078 -6.2109 Q4.625 -6.6406 5.2812 -6.6406 Q5.7812 -6.6406 6.1094 -6.5625 L5.7812 -5.0312 L5.0781 -5.0312 Q5.0312 -5.3906 4.9141 -5.5781 Q4.7969 -5.7656 4.5469 -5.7656 Q4.2812 -5.7656 3.9297 -5.4922 Q3.5781 -5.2188 3.2188 -4.7422 Q2.8594 -4.2656 2.6797 -3.8594 Q2.5 -3.4531 2.4062 -2.9531 L1.7812 0 L0.5938 0 L1.6406 -4.6719 Q1.7812 -5.3125 1.7812 -5.6406 Q1.7812 -5.8438 1.7188 -5.9453 Q1.6562 -6.0469 1.5156 -6.1016 Q1.375 -6.1562 1.0469 -6.1719 L1.125 -6.5312 L2.7188 -6.5938 Z" stroke="none"/></g><g text-rendering="optimizeLegibility" transform="translate(69.2969,9.9922)" color-rendering="optimizeQuality" color-interpolation="linearRGB" image-rendering="optimizeQuality"><path d="M2.5781 -1.9844 Q2.4844 -1.5938 2.4531 -1.3516 Q2.4219 -1.1094 2.4219 -0.9219 Q2.4219 -0.6094 2.5781 -0.4844 Q2.7344 -0.3594 3.0938 -0.3281 L3.0156 0 L0.2812 0 L0.3594 -0.3281 Q0.625 -0.375 0.75 -0.4688 Q0.875 -0.5625 0.9688 -0.7266 Q1.0625 -0.8906 1.1328 -1.125 Q1.2031 -1.3594 1.3594 -2.0312 L2.5156 -7.2969 Q2.5938 -7.6094 2.6328 -7.9062 Q2.6719 -8.2031 2.6719 -8.4062 Q2.6719 -8.7188 2.5078 -8.8438 Q2.3438 -8.9688 2 -9 L2.0781 -9.3281 L4.8125 -9.3281 L4.7344 -9 Q4.4844 -8.9375 4.3672 -8.875 Q4.25 -8.8125 4.1562 -8.6719 Q4.0625 -8.5312 3.9766 -8.2422 Q3.8906 -7.9531 3.7344 -7.2969 L2.5781 -1.9844 Z" stroke="none"/></g><g text-rendering="optimizeLegibility" transform="translate(76.9844,15)" color-rendering="optimizeQuality" color-interpolation="linearRGB" image-rendering="optimizeQuality"><path d="M0.6719 -13.9688 Q2.1875 -13.9688 3.0703 -13.5781 Q3.9531 -13.1875 4.3281 -12.4062 Q4.7031 -11.625 4.7031 -10.3281 L4.7031 -7.5 Q4.7031 -6.625 4.9297 -6.1484 Q5.1562 -5.6719 5.5938 -5.4766 Q6.0312 -5.2812 6.8125 -5.2812 L6.8125 -4.4688 Q6.0312 -4.4688 5.5859 -4.2734 Q5.1406 -4.0781 4.9219 -3.5938 Q4.7031 -3.1094 4.7031 -2.25 L4.7031 0.5781 Q4.7031 1.8906 4.3281 2.6641 Q3.9531 3.4375 3.0703 3.8281 Q2.1875 4.2188 0.6719 4.2188 L0.4219 4.2188 L0.4219 3.4219 Q1.1875 3.4219 1.5781 3.3438 Q1.9688 3.2656 2.2031 3.1016 Q2.4375 2.9375 2.5938 2.6719 Q2.75 2.4062 2.8438 1.9375 Q2.9375 1.4688 2.9375 0.6875 L2.9375 -1.2031 Q2.9375 -2.1875 3.1016 -2.8438 Q3.2656 -3.5 3.7109 -3.9844 Q4.1562 -4.4688 4.9062 -4.7812 L4.9062 -4.9688 Q4.1719 -5.2656 3.7188 -5.7656 Q3.2656 -6.2656 3.1016 -6.9297 Q2.9375 -7.5938 2.9375 -8.5469 L2.9375 -10.4375 Q2.9375 -11.2188 2.8438 -11.6875 Q2.75 -12.1562 2.5938 -12.4141 Q2.4375 -12.6719 2.2031 -12.8438 Q1.9688 -13.0156 1.5781 -13.0938 Q1.1875 -13.1719 0.4219 -13.1719 L0.4219 -13.9688 L0.6719 -13.9688 Z" stroke="none"/></g><g text-rendering="optimizeLegibility" transform="translate(86.5781,15)" color-rendering="optimizeQuality" color-interpolation="linearRGB" image-rendering="optimizeQuality"><path d="M6.25 -5.0469 L6.25 -1.3438 L4.8125 -1.3438 L4.8125 -5.0469 L1.2188 -5.0469 L1.2188 -6.3906 L4.8125 -6.3906 L4.8125 -10.0938 L6.25 -10.0938 L6.25 -6.3906 L9.8594 -6.3906 L9.8594 -5.0469 L6.25 -5.0469 Z" stroke="none"/></g><g text-rendering="optimizeLegibility" transform="translate(99.5156,15)" color-rendering="optimizeQuality" color-interpolation="linearRGB" image-rendering="optimizeQuality"><path d="M7.0781 4.2188 Q5.5625 4.2188 4.6797 3.8281 Q3.7969 3.4375 3.4141 2.6641 Q3.0312 1.8906 3.0312 0.5781 L3.0312 -2.25 Q3.0312 -3.1094 2.8125 -3.5938 Q2.5938 -4.0781 2.1562 -4.2734 Q1.7188 -4.4688 0.9219 -4.4688 L0.9219 -5.2812 Q1.7031 -5.2812 2.1484 -5.4766 Q2.5938 -5.6719 2.8125 -6.1484 Q3.0312 -6.625 3.0312 -7.5 L3.0312 -10.3281 Q3.0312 -11.625 3.4141 -12.4062 Q3.7969 -13.1875 4.6797 -13.5781 Q5.5625 -13.9688 7.0781 -13.9688 L7.3281 -13.9688 L7.3281 -13.1719 Q6.5469 -13.1719 6.1641 -13.0938 Q5.7812 -13.0156 5.5391 -12.8438 Q5.2969 -12.6719 5.1406 -12.4141 Q4.9844 -12.1562 4.8984 -11.6875 Q4.8125 -11.2188 4.8125 -10.4375 L4.8125 -8.5469 Q4.8125 -7.5625 4.6406 -6.8984 Q4.4688 -6.2344 4.0312 -5.7578 Q3.5938 -5.2812 2.8281 -4.9688 L2.8281 -4.7812 Q3.5781 -4.4844 4.0312 -3.9844 Q4.4844 -3.4844 4.6484 -2.8203 Q4.8125 -2.1562 4.8125 -1.2031 L4.8125 0.6875 Q4.8125 1.4688 4.8984 1.9375 Q4.9844 2.4062 5.1406 2.6719 Q5.2969 2.9375 5.5391 3.1016 Q5.7812 3.2656 6.1641 3.3438 Q6.5469 3.4219 7.3281 3.4219 L7.3281 4.2188 L7.0781 4.2188 Z" stroke="none"/></g><g text-rendering="optimizeLegibility" transform="translate(108.8438,15)" color-rendering="optimizeQuality" color-interpolation="linearRGB" image-rendering="optimizeQuality"><path d="M8.1406 -8.8594 L9.0469 -9.5 L9.6719 -9.3438 L8.1719 -2.7188 Q8.0312 -2.125 7.9844 -1.8125 Q7.9375 -1.5 7.9375 -1.2969 Q7.9375 -0.8906 8.1641 -0.7109 Q8.3906 -0.5312 9.0312 -0.4844 L8.9375 0 L6.1406 0 L6.7656 -2.4531 L6.625 -2.4844 Q5.6875 -1.125 4.8516 -0.4922 Q4.0156 0.1406 3.0781 0.1406 Q2 0.1406 1.4141 -0.6641 Q0.8281 -1.4688 0.8281 -2.9375 Q0.8281 -3.875 1.0391 -4.8203 Q1.25 -5.7656 1.6875 -6.6094 Q2.125 -7.4531 2.7266 -8.0938 Q3.3281 -8.7344 4.125 -9.1172 Q4.9219 -9.5 5.8594 -9.5 Q6.4688 -9.5 7.0156 -9.3594 Q7.5625 -9.2188 8.1406 -8.8594 ZM7.2812 -5.9531 Q7.375 -6.3438 7.4062 -6.6406 Q7.4375 -6.9375 7.4375 -7.2812 Q7.4375 -8.0312 7.1094 -8.3828 Q6.7812 -8.7344 6.0312 -8.7344 Q5.625 -8.7344 5.2578 -8.6016 Q4.8906 -8.4688 4.5078 -8.1641 Q4.125 -7.8594 3.7734 -7.3594 Q3.4219 -6.8594 3.1406 -6.1484 Q2.8594 -5.4375 2.7031 -4.6172 Q2.5469 -3.7969 2.5469 -3.0312 Q2.5469 -2.0156 2.8281 -1.5078 Q3.1094 -1 3.7656 -1 Q4.0625 -1 4.3906 -1.1406 Q4.7188 -1.2812 5.1172 -1.6484 Q5.5156 -2.0156 6.0312 -2.7188 Q6.4844 -3.375 6.75 -4.0156 Q7.0156 -4.6562 7.2031 -5.5312 L7.2812 -5.9531 Z" stroke="none"/></g><g text-rendering="optimizeLegibility" transform="translate(118.5156,18.4609)" color-rendering="optimizeQuality" color-interpolation="linearRGB" image-rendering="optimizeQuality"><path d="M2.7188 -6.5938 L3.125 -6.5938 L2.6562 -4.9219 L2.7344 -4.8906 Q3.3906 -5.7812 4.0078 -6.2109 Q4.625 -6.6406 5.2812 -6.6406 Q5.7812 -6.6406 6.1094 -6.5625 L5.7812 -5.0312 L5.0781 -5.0312 Q5.0312 -5.3906 4.9141 -5.5781 Q4.7969 -5.7656 4.5469 -5.7656 Q4.2812 -5.7656 3.9297 -5.4922 Q3.5781 -5.2188 3.2188 -4.7422 Q2.8594 -4.2656 2.6797 -3.8594 Q2.5 -3.4531 2.4062 -2.9531 L1.7812 0 L0.5938 0 L1.6406 -4.6719 Q1.7812 -5.3125 1.7812 -5.6406 Q1.7812 -5.8438 1.7188 -5.9453 Q1.6562 -6.0469 1.5156 -6.1016 Q1.375 -6.1562 1.0469 -6.1719 L1.125 -6.5312 L2.7188 -6.5938 Z" stroke="none"/></g><g text-rendering="optimizeLegibility" transform="translate(118.5156,8.8203)" color-rendering="optimizeQuality" color-interpolation="linearRGB" image-rendering="optimizeQuality"><path d="M2.7188 -6.5938 L3.125 -6.5938 L2.6562 -4.9219 L2.7344 -4.8906 Q3.3906 -5.7812 4.0078 -6.2109 Q4.625 -6.6406 5.2812 -6.6406 Q5.7812 -6.6406 6.1094 -6.5625 L5.7812 -5.0312 L5.0781 -5.0312 Q5.0312 -5.3906 4.9141 -5.5781 Q4.7969 -5.7656 4.5469 -5.7656 Q4.2812 -5.7656 3.9297 -5.4922 Q3.5781 -5.2188 3.2188 -4.7422 Q2.8594 -4.2656 2.6797 -3.8594 Q2.5 -3.4531 2.4062 -2.9531 L1.7812 0 L0.5938 0 L1.6406 -4.6719 Q1.7812 -5.3125 1.7812 -5.6406 Q1.7812 -5.8438 1.7188 -5.9453 Q1.6562 -6.0469 1.5156 -6.1016 Q1.375 -6.1562 1.0469 -6.1719 L1.125 -6.5312 L2.7188 -6.5938 Z" stroke="none"/></g><g text-rendering="optimizeLegibility" transform="translate(126.2031,15)" color-rendering="optimizeQuality" color-interpolation="linearRGB" image-rendering="optimizeQuality"><path d="M0.6719 -13.9688 Q2.1875 -13.9688 3.0703 -13.5781 Q3.9531 -13.1875 4.3281 -12.4062 Q4.7031 -11.625 4.7031 -10.3281 L4.7031 -7.5 Q4.7031 -6.625 4.9297 -6.1484 Q5.1562 -5.6719 5.5938 -5.4766 Q6.0312 -5.2812 6.8125 -5.2812 L6.8125 -4.4688 Q6.0312 -4.4688 5.5859 -4.2734 Q5.1406 -4.0781 4.9219 -3.5938 Q4.7031 -3.1094 4.7031 -2.25 L4.7031 0.5781 Q4.7031 1.8906 4.3281 2.6641 Q3.9531 3.4375 3.0703 3.8281 Q2.1875 4.2188 0.6719 4.2188 L0.4219 4.2188 L0.4219 3.4219 Q1.1875 3.4219 1.5781 3.3438 Q1.9688 3.2656 2.2031 3.1016 Q2.4375 2.9375 2.5938 2.6719 Q2.75 2.4062 2.8438 1.9375 Q2.9375 1.4688 2.9375 0.6875 L2.9375 -1.2031 Q2.9375 -2.1875 3.1016 -2.8438 Q3.2656 -3.5 3.7109 -3.9844 Q4.1562 -4.4688 4.9062 -4.7812 L4.9062 -4.9688 Q4.1719 -5.2656 3.7188 -5.7656 Q3.2656 -6.2656 3.1016 -6.9297 Q2.9375 -7.5938 2.9375 -8.5469 L2.9375 -10.4375 Q2.9375 -11.2188 2.8438 -11.6875 Q2.75 -12.1562 2.5938 -12.4141 Q2.4375 -12.6719 2.2031 -12.8438 Q1.9688 -13.0156 1.5781 -13.0938 Q1.1875 -13.1719 0.4219 -13.1719 L0.4219 -13.9688 L0.6719 -13.9688 Z" stroke="none"/></g><g text-rendering="optimizeLegibility" transform="translate(135.7969,15)" color-rendering="optimizeQuality" color-interpolation="linearRGB" image-rendering="optimizeQuality"><path d="M1.2188 -7.0625 L1.2188 -8.4219 L9.8594 -8.4219 L9.8594 -7.0625 L1.2188 -7.0625 ZM1.2188 -3.0156 L1.2188 -4.3594 L9.8594 -4.3594 L9.8594 -3.0156 L1.2188 -3.0156 Z" stroke="none"/></g><g text-rendering="optimizeLegibility" transform="translate(147.6562,15)" color-rendering="optimizeQuality" color-interpolation="linearRGB" image-rendering="optimizeQuality"><path d="M3.5781 -7.7188 L3.7188 -7.6875 Q4.2656 -8.3438 4.7188 -8.7188 Q5.1719 -9.0938 5.7031 -9.2969 Q6.2344 -9.5 6.9219 -9.5 Q7.4844 -9.5 7.9375 -9.4375 L7.9375 -7.2031 L6.8438 -7.2031 Q6.6094 -7.7188 6.3438 -7.9609 Q6.0781 -8.2031 5.6094 -8.2031 Q5.2656 -8.2031 4.9219 -8 Q4.5781 -7.7969 4.25 -7.4062 Q3.9219 -7.0156 3.8047 -6.6719 Q3.6875 -6.3281 3.6875 -5.8594 L3.6875 -2.4375 Q3.6875 -1.5469 3.7891 -1.2109 Q3.8906 -0.875 4.1406 -0.7188 Q4.3906 -0.5625 4.8906 -0.4844 L4.8906 0 L0.9531 0 L0.9531 -0.4844 Q1.3281 -0.5938 1.4922 -0.6797 Q1.6562 -0.7656 1.7734 -0.9219 Q1.8906 -1.0781 1.9453 -1.4062 Q2 -1.7344 2 -2.4062 L2 -6.6719 Q2 -7.2969 1.9844 -7.6797 Q1.9688 -8.0625 1.8516 -8.2891 Q1.7344 -8.5156 1.4922 -8.625 Q1.25 -8.7344 0.8125 -8.8125 L0.8125 -9.3281 L3.0938 -9.4219 L3.6875 -9.4219 L3.5781 -7.7188 ZM13.2031 0.1562 Q11.1719 0.1562 10.1016 -1.0391 Q9.0312 -2.2344 9.0312 -4.5781 Q9.0312 -6.1875 9.5938 -7.3047 Q10.1562 -8.4219 11.1328 -8.9609 Q12.1094 -9.5 13.3594 -9.5 Q15.4375 -9.5 16.5156 -8.2891 Q17.5938 -7.0781 17.5938 -4.7969 Q17.5938 -3.1719 17.0547 -2.0625 Q16.5156 -0.9531 15.5312 -0.3984 Q14.5469 0.1562 13.2031 0.1562 ZM10.875 -4.7812 Q10.875 -2.7812 11.5156 -1.6953 Q12.1562 -0.6094 13.3438 -0.6094 Q14 -0.6094 14.4609 -0.9297 Q14.9219 -1.25 15.2031 -1.7891 Q15.4844 -2.3281 15.6172 -3.0312 Q15.75 -3.7344 15.75 -4.5156 Q15.75 -5.9531 15.4297 -6.8984 Q15.1094 -7.8438 14.5625 -8.2891 Q14.0156 -8.7344 13.3125 -8.7344 Q12.125 -8.7344 11.5 -7.7109 Q10.875 -6.6875 10.875 -4.7812 ZM19.3594 -8.8438 Q19.8438 -8.9219 20.1484 -9.1172 Q20.4531 -9.3125 20.625 -9.625 Q20.7969 -9.9375 20.8984 -10.3984 Q21 -10.8594 21.0938 -11.75 L22.4844 -11.75 L22.4844 -9.3438 L25.6406 -9.3438 L25.6406 -8.3438 L22.4844 -8.3438 L22.4844 -4 Q22.4844 -3.0625 22.5625 -2.5 Q22.6406 -1.9375 22.8594 -1.6172 Q23.0781 -1.2969 23.3516 -1.1641 Q23.625 -1.0312 24.0469 -1.0312 Q24.4375 -1.0312 24.7812 -1.1875 Q25.125 -1.3438 25.4531 -1.6562 L25.8906 -1.125 Q25.2031 -0.4531 24.5859 -0.1484 Q23.9688 0.1562 23.2969 0.1562 Q22.0312 0.1562 21.4219 -0.5938 Q20.8125 -1.3438 20.8125 -2.9375 L20.8125 -8.3438 L19.3594 -8.3438 L19.3594 -8.8438 ZM32.5938 -1.3906 L32.4531 -1.4375 Q31.5938 -0.5625 30.8516 -0.2031 Q30.1094 0.1562 29.2656 0.1562 Q28.5156 0.1562 27.9531 -0.1328 Q27.3906 -0.4219 27.0859 -0.9453 Q26.7812 -1.4688 26.7812 -2.1562 Q26.7812 -3.5781 28.1953 -4.3516 Q29.6094 -5.125 32.4219 -5.25 L32.4219 -5.8906 Q32.4219 -6.9062 32.2266 -7.4922 Q32.0312 -8.0781 31.6172 -8.3516 Q31.2031 -8.625 30.5 -8.625 Q29.7344 -8.625 29.2656 -8.2266 Q28.7969 -7.8281 28.5625 -7.0156 L27.2969 -7.0156 L27.2969 -8.2969 Q28.2344 -8.7812 28.8594 -9.0078 Q29.4844 -9.2344 30.1094 -9.3672 Q30.7344 -9.5 31.375 -9.5 Q32.3438 -9.5 32.9297 -9.1953 Q33.5156 -8.8906 33.8047 -8.2578 Q34.0938 -7.625 34.0938 -6.3438 L34.0938 -2.9375 Q34.0938 -2.2188 34.1016 -1.9219 Q34.1094 -1.625 34.1641 -1.3672 Q34.2188 -1.1094 34.3125 -0.9609 Q34.4062 -0.8125 34.6016 -0.7031 Q34.7969 -0.5938 35.2188 -0.4844 L35.2188 0 L32.5469 0 L32.5938 -1.3906 ZM32.4219 -4.4531 Q30.4375 -4.4375 29.4531 -3.9297 Q28.4688 -3.4219 28.4688 -2.3906 Q28.4688 -1.8438 28.6953 -1.5156 Q28.9219 -1.1875 29.2656 -1.0703 Q29.6094 -0.9531 30.0781 -0.9531 Q30.7344 -0.9531 31.2812 -1.2734 Q31.8281 -1.5938 32.125 -2.0938 Q32.4219 -2.5938 32.4219 -3.0781 L32.4219 -4.4531 ZM36.3594 -8.8438 Q36.8438 -8.9219 37.1484 -9.1172 Q37.4531 -9.3125 37.625 -9.625 Q37.7969 -9.9375 37.8984 -10.3984 Q38 -10.8594 38.0938 -11.75 L39.4844 -11.75 L39.4844 -9.3438 L42.6406 -9.3438 L42.6406 -8.3438 L39.4844 -8.3438 L39.4844 -4 Q39.4844 -3.0625 39.5625 -2.5 Q39.6406 -1.9375 39.8594 -1.6172 Q40.0781 -1.2969 40.3516 -1.1641 Q40.625 -1.0312 41.0469 -1.0312 Q41.4375 -1.0312 41.7812 -1.1875 Q42.125 -1.3438 42.4531 -1.6562 L42.8906 -1.125 Q42.2031 -0.4531 41.5859 -0.1484 Q40.9688 0.1562 40.2969 0.1562 Q39.0312 0.1562 38.4219 -0.5938 Q37.8125 -1.3438 37.8125 -2.9375 L37.8125 -8.3438 L36.3594 -8.3438 L36.3594 -8.8438 ZM46.7344 -13.1719 L46.7344 -11.2656 L44.9375 -11.2656 L44.9375 -13.1719 L46.7344 -13.1719 ZM43.9531 -0.4844 Q44.3281 -0.5938 44.4922 -0.6797 Q44.6562 -0.7656 44.7656 -0.9219 Q44.875 -1.0781 44.9375 -1.4062 Q45 -1.7344 45 -2.4062 L45 -6.6719 Q45 -7.2969 44.9844 -7.6797 Q44.9688 -8.0625 44.8516 -8.2891 Q44.7344 -8.5156 44.4922 -8.625 Q44.25 -8.7344 43.8125 -8.8125 L43.8125 -9.3438 L46.0938 -9.4219 L46.6875 -9.4219 L46.6875 -2.4375 Q46.6875 -1.6094 46.7656 -1.2812 Q46.8438 -0.9531 47.0625 -0.7812 Q47.2812 -0.6094 47.7812 -0.4844 L47.7812 0 L43.9531 0 L43.9531 -0.4844 ZM54.2031 0.1562 Q52.1719 0.1562 51.1016 -1.0391 Q50.0312 -2.2344 50.0312 -4.5781 Q50.0312 -6.1875 50.5938 -7.3047 Q51.1562 -8.4219 52.1328 -8.9609 Q53.1094 -9.5 54.3594 -9.5 Q56.4375 -9.5 57.5156 -8.2891 Q58.5938 -7.0781 58.5938 -4.7969 Q58.5938 -3.1719 58.0547 -2.0625 Q57.5156 -0.9531 56.5312 -0.3984 Q55.5469 0.1562 54.2031 0.1562 ZM51.875 -4.7812 Q51.875 -2.7812 52.5156 -1.6953 Q53.1562 -0.6094 54.3438 -0.6094 Q55 -0.6094 55.4609 -0.9297 Q55.9219 -1.25 56.2031 -1.7891 Q56.4844 -2.3281 56.6172 -3.0312 Q56.75 -3.7344 56.75 -4.5156 Q56.75 -5.9531 56.4297 -6.8984 Q56.1094 -7.8438 55.5625 -8.2891 Q55.0156 -8.7344 54.3125 -8.7344 Q53.125 -8.7344 52.5 -7.7109 Q51.875 -6.6875 51.875 -4.7812 ZM70.4531 0 L66.6094 0 L66.6094 -0.4844 Q67 -0.5938 67.1641 -0.6797 Q67.3281 -0.7656 67.4375 -0.9219 Q67.5469 -1.0781 67.6094 -1.4062 Q67.6719 -1.7344 67.6719 -2.4062 L67.6719 -4.9688 Q67.6719 -5.6406 67.6328 -6.2031 Q67.5938 -6.7656 67.5 -7.1172 Q67.4062 -7.4688 67.2812 -7.6719 Q67.1562 -7.875 66.9688 -8.0156 Q66.7812 -8.1562 66.5469 -8.2422 Q66.3125 -8.3281 65.9375 -8.3281 Q65.5625 -8.3281 65.2188 -8.1719 Q64.875 -8.0156 64.4609 -7.6484 Q64.0469 -7.2812 63.8672 -6.9141 Q63.6875 -6.5469 63.6875 -6.0781 L63.6875 -2.4375 Q63.6875 -1.6094 63.7656 -1.2812 Q63.8438 -0.9531 64.0625 -0.7812 Q64.2812 -0.6094 64.7812 -0.4844 L64.7812 0 L60.9531 0 L60.9531 -0.4844 Q61.3281 -0.5938 61.4922 -0.6797 Q61.6562 -0.7656 61.7656 -0.9219 Q61.875 -1.0781 61.9375 -1.4062 Q62 -1.7344 62 -2.4062 L62 -6.6719 Q62 -7.2969 61.9844 -7.6797 Q61.9688 -8.0625 61.8516 -8.2891 Q61.7344 -8.5156 61.4922 -8.625 Q61.25 -8.7344 60.8125 -8.8125 L60.8125 -9.3438 L63.0938 -9.4219 L63.6875 -9.4219 L63.5781 -7.8281 L63.7188 -7.7969 Q64.4375 -8.5312 64.8828 -8.8438 Q65.3281 -9.1562 65.7812 -9.3281 Q66.2344 -9.5 66.75 -9.5 Q67.2812 -9.5 67.6953 -9.375 Q68.1094 -9.25 68.4219 -8.9922 Q68.7344 -8.7344 68.9453 -8.3594 Q69.1562 -7.9844 69.2578 -7.4609 Q69.3594 -6.9375 69.3594 -6.125 L69.3594 -2.4375 Q69.3594 -1.7656 69.3984 -1.4609 Q69.4375 -1.1562 69.5312 -0.9922 Q69.625 -0.8281 69.8125 -0.7188 Q70 -0.6094 70.4531 -0.4844 L70.4531 0 ZM77.5938 -1.3906 L77.4531 -1.4375 Q76.5938 -0.5625 75.8516 -0.2031 Q75.1094 0.1562 74.2656 0.1562 Q73.5156 0.1562 72.9531 -0.1328 Q72.3906 -0.4219 72.0859 -0.9453 Q71.7812 -1.4688 71.7812 -2.1562 Q71.7812 -3.5781 73.1953 -4.3516 Q74.6094 -5.125 77.4219 -5.25 L77.4219 -5.8906 Q77.4219 -6.9062 77.2266 -7.4922 Q77.0312 -8.0781 76.6172 -8.3516 Q76.2031 -8.625 75.5 -8.625 Q74.7344 -8.625 74.2656 -8.2266 Q73.7969 -7.8281 73.5625 -7.0156 L72.2969 -7.0156 L72.2969 -8.2969 Q73.2344 -8.7812 73.8594 -9.0078 Q74.4844 -9.2344 75.1094 -9.3672 Q75.7344 -9.5 76.375 -9.5 Q77.3438 -9.5 77.9297 -9.1953 Q78.5156 -8.8906 78.8047 -8.2578 Q79.0938 -7.625 79.0938 -6.3438 L79.0938 -2.9375 Q79.0938 -2.2188 79.1016 -1.9219 Q79.1094 -1.625 79.1641 -1.3672 Q79.2188 -1.1094 79.3125 -0.9609 Q79.4062 -0.8125 79.6016 -0.7031 Q79.7969 -0.5938 80.2188 -0.4844 L80.2188 0 L77.5469 0 L77.5938 -1.3906 ZM77.4219 -4.4531 Q75.4375 -4.4375 74.4531 -3.9297 Q73.4688 -3.4219 73.4688 -2.3906 Q73.4688 -1.8438 73.6953 -1.5156 Q73.9219 -1.1875 74.2656 -1.0703 Q74.6094 -0.9531 75.0781 -0.9531 Q75.7344 -0.9531 76.2812 -1.2734 Q76.8281 -1.5938 77.125 -2.0938 Q77.4219 -2.5938 77.4219 -3.0781 L77.4219 -4.4531 ZM84.5625 -2.4375 Q84.5625 -1.6094 84.6406 -1.2812 Q84.7188 -0.9531 84.9375 -0.7812 Q85.1562 -0.6094 85.6562 -0.4844 L85.6562 0 L81.7656 0 L81.7656 -0.4844 Q82.2656 -0.6094 82.4531 -0.7422 Q82.6406 -0.875 82.7266 -1.0703 Q82.8125 -1.2656 82.8438 -1.5938 Q82.875 -1.9219 82.875 -2.4375 L82.875 -10.6094 Q82.875 -11.5469 82.8594 -11.9219 Q82.8438 -12.2969 82.7812 -12.5547 Q82.7188 -12.8125 82.6094 -12.9609 Q82.5 -13.1094 82.3047 -13.1953 Q82.1094 -13.2812 81.6094 -13.375 L81.6094 -13.875 L83.9688 -13.9688 L84.5625 -13.9688 L84.5625 -2.4375 ZM96.5938 -1.3906 L96.4531 -1.4375 Q95.5938 -0.5625 94.8516 -0.2031 Q94.1094 0.1562 93.2656 0.1562 Q92.5156 0.1562 91.9531 -0.1328 Q91.3906 -0.4219 91.0859 -0.9453 Q90.7812 -1.4688 90.7812 -2.1562 Q90.7812 -3.5781 92.1953 -4.3516 Q93.6094 -5.125 96.4219 -5.25 L96.4219 -5.8906 Q96.4219 -6.9062 96.2266 -7.4922 Q96.0312 -8.0781 95.6172 -8.3516 Q95.2031 -8.625 94.5 -8.625 Q93.7344 -8.625 93.2656 -8.2266 Q92.7969 -7.8281 92.5625 -7.0156 L91.2969 -7.0156 L91.2969 -8.2969 Q92.2344 -8.7812 92.8594 -9.0078 Q93.4844 -9.2344 94.1094 -9.3672 Q94.7344 -9.5 95.375 -9.5 Q96.3438 -9.5 96.9297 -9.1953 Q97.5156 -8.8906 97.8047 -8.2578 Q98.0938 -7.625 98.0938 -6.3438 L98.0938 -2.9375 Q98.0938 -2.2188 98.1016 -1.9219 Q98.1094 -1.625 98.1641 -1.3672 Q98.2188 -1.1094 98.3125 -0.9609 Q98.4062 -0.8125 98.6016 -0.7031 Q98.7969 -0.5938 99.2188 -0.4844 L99.2188 0 L96.5469 0 L96.5938 -1.3906 ZM96.4219 -4.4531 Q94.4375 -4.4375 93.4531 -3.9297 Q92.4688 -3.4219 92.4688 -2.3906 Q92.4688 -1.8438 92.6953 -1.5156 Q92.9219 -1.1875 93.2656 -1.0703 Q93.6094 -0.9531 94.0781 -0.9531 Q94.7344 -0.9531 95.2812 -1.2734 Q95.8281 -1.5938 96.125 -2.0938 Q96.4219 -2.5938 96.4219 -3.0781 L96.4219 -4.4531 ZM108.2188 -9.1094 L108.2188 -7.0781 L106.9844 -7.0781 Q106.8125 -7.7031 106.5703 -8.0703 Q106.3281 -8.4375 106.0078 -8.5859 Q105.6875 -8.7344 105.2031 -8.7344 Q104.5156 -8.7344 103.9922 -8.2969 Q103.4688 -7.8594 103.1641 -6.9609 Q102.8594 -6.0625 102.8594 -4.75 Q102.8594 -3.9219 102.9766 -3.2344 Q103.0938 -2.5469 103.375 -2.0625 Q103.6562 -1.5781 104.125 -1.3047 Q104.5938 -1.0312 105.2812 -1.0312 Q105.9531 -1.0312 106.5391 -1.2891 Q107.125 -1.5469 107.75 -2.2188 L108.2969 -1.5781 Q107.7969 -1.0312 107.4219 -0.7344 Q107.0469 -0.4375 106.6094 -0.2344 Q106.1719 -0.0312 105.75 0.0625 Q105.3281 0.1562 104.8281 0.1562 Q102.9844 0.1562 102.0078 -1.0703 Q101.0312 -2.2969 101.0312 -4.6094 Q101.0312 -6.0625 101.5781 -7.1797 Q102.125 -8.2969 103.1094 -8.8984 Q104.0938 -9.5 105.375 -9.5 Q106.1875 -9.5 106.8672 -9.4062 Q107.5469 -9.3125 108.2188 -9.1094 ZM117.2188 -9.1094 L117.2188 -7.0781 L115.9844 -7.0781 Q115.8125 -7.7031 115.5703 -8.0703 Q115.3281 -8.4375 115.0078 -8.5859 Q114.6875 -8.7344 114.2031 -8.7344 Q113.5156 -8.7344 112.9922 -8.2969 Q112.4688 -7.8594 112.1641 -6.9609 Q111.8594 -6.0625 111.8594 -4.75 Q111.8594 -3.9219 111.9766 -3.2344 Q112.0938 -2.5469 112.375 -2.0625 Q112.6562 -1.5781 113.125 -1.3047 Q113.5938 -1.0312 114.2812 -1.0312 Q114.9531 -1.0312 115.5391 -1.2891 Q116.125 -1.5469 116.75 -2.2188 L117.2969 -1.5781 Q116.7969 -1.0312 116.4219 -0.7344 Q116.0469 -0.4375 115.6094 -0.2344 Q115.1719 -0.0312 114.75 0.0625 Q114.3281 0.1562 113.8281 0.1562 Q111.9844 0.1562 111.0078 -1.0703 Q110.0312 -2.2969 110.0312 -4.6094 Q110.0312 -6.0625 110.5781 -7.1797 Q111.125 -8.2969 112.1094 -8.8984 Q113.0938 -9.5 114.375 -9.5 Q115.1875 -9.5 115.8672 -9.4062 Q116.5469 -9.3125 117.2188 -9.1094 ZM126.75 -1.6562 Q126.125 -1 125.6016 -0.6328 Q125.0781 -0.2656 124.4531 -0.0547 Q123.8281 0.1562 123.0781 0.1562 Q121.0625 0.1562 120.0391 -1.0469 Q119.0156 -2.25 119.0156 -4.6094 Q119.0156 -6.0625 119.5391 -7.1797 Q120.0625 -8.2969 121.0312 -8.8984 Q122 -9.5 123.25 -9.5 Q124.2344 -9.5 124.9297 -9.1875 Q125.625 -8.875 126.0391 -8.3359 Q126.4531 -7.7969 126.6875 -6.9688 Q126.9219 -6.1406 126.9531 -4.8125 L120.7969 -4.8125 L120.7969 -4.6406 Q120.7969 -3.4844 121.0547 -2.7031 Q121.3125 -1.9219 121.9062 -1.4766 Q122.5 -1.0312 123.4375 -1.0312 Q124.2344 -1.0312 124.875 -1.3281 Q125.5156 -1.625 126.1562 -2.2969 L126.75 -1.6562 ZM125.1094 -5.625 Q125.0469 -6.6875 124.8438 -7.3516 Q124.6406 -8.0156 124.2344 -8.375 Q123.8281 -8.7344 123.1562 -8.7344 Q122.1562 -8.7344 121.5547 -7.9297 Q120.9531 -7.125 120.8438 -5.625 L125.1094 -5.625 ZM131.5625 -2.4375 Q131.5625 -1.6094 131.6406 -1.2812 Q131.7188 -0.9531 131.9375 -0.7812 Q132.1562 -0.6094 132.6562 -0.4844 L132.6562 0 L128.7656 0 L128.7656 -0.4844 Q129.2656 -0.6094 129.4531 -0.7422 Q129.6406 -0.875 129.7266 -1.0703 Q129.8125 -1.2656 129.8438 -1.5938 Q129.875 -1.9219 129.875 -2.4375 L129.875 -10.6094 Q129.875 -11.5469 129.8594 -11.9219 Q129.8438 -12.2969 129.7812 -12.5547 Q129.7188 -12.8125 129.6094 -12.9609 Q129.5 -13.1094 129.3047 -13.1953 Q129.1094 -13.2812 128.6094 -13.375 L128.6094 -13.875 L130.9688 -13.9688 L131.5625 -13.9688 L131.5625 -2.4375 ZM141.75 -1.6562 Q141.125 -1 140.6016 -0.6328 Q140.0781 -0.2656 139.4531 -0.0547 Q138.8281 0.1562 138.0781 0.1562 Q136.0625 0.1562 135.0391 -1.0469 Q134.0156 -2.25 134.0156 -4.6094 Q134.0156 -6.0625 134.5391 -7.1797 Q135.0625 -8.2969 136.0312 -8.8984 Q137 -9.5 138.25 -9.5 Q139.2344 -9.5 139.9297 -9.1875 Q140.625 -8.875 141.0391 -8.3359 Q141.4531 -7.7969 141.6875 -6.9688 Q141.9219 -6.1406 141.9531 -4.8125 L135.7969 -4.8125 L135.7969 -4.6406 Q135.7969 -3.4844 136.0547 -2.7031 Q136.3125 -1.9219 136.9062 -1.4766 Q137.5 -1.0312 138.4375 -1.0312 Q139.2344 -1.0312 139.875 -1.3281 Q140.5156 -1.625 141.1562 -2.2969 L141.75 -1.6562 ZM140.1094 -5.625 Q140.0469 -6.6875 139.8438 -7.3516 Q139.6406 -8.0156 139.2344 -8.375 Q138.8281 -8.7344 138.1562 -8.7344 Q137.1562 -8.7344 136.5547 -7.9297 Q135.9531 -7.125 135.8438 -5.625 L140.1094 -5.625 ZM146.5781 -7.7188 L146.7188 -7.6875 Q147.2656 -8.3438 147.7188 -8.7188 Q148.1719 -9.0938 148.7031 -9.2969 Q149.2344 -9.5 149.9219 -9.5 Q150.4844 -9.5 150.9375 -9.4375 L150.9375 -7.2031 L149.8438 -7.2031 Q149.6094 -7.7188 149.3438 -7.9609 Q149.0781 -8.2031 148.6094 -8.2031 Q148.2656 -8.2031 147.9219 -8 Q147.5781 -7.7969 147.25 -7.4062 Q146.9219 -7.0156 146.8047 -6.6719 Q146.6875 -6.3281 146.6875 -5.8594 L146.6875 -2.4375 Q146.6875 -1.5469 146.7891 -1.2109 Q146.8906 -0.875 147.1406 -0.7188 Q147.3906 -0.5625 147.8906 -0.4844 L147.8906 0 L143.9531 0 L143.9531 -0.4844 Q144.3281 -0.5938 144.4922 -0.6797 Q144.6562 -0.7656 144.7734 -0.9219 Q144.8906 -1.0781 144.9453 -1.4062 Q145 -1.7344 145 -2.4062 L145 -6.6719 Q145 -7.2969 144.9844 -7.6797 Q144.9688 -8.0625 144.8516 -8.2891 Q144.7344 -8.5156 144.4922 -8.625 Q144.25 -8.7344 143.8125 -8.8125 L143.8125 -9.3281 L146.0938 -9.4219 L146.6875 -9.4219 L146.5781 -7.7188 ZM157.5938 -1.3906 L157.4531 -1.4375 Q156.5938 -0.5625 155.8516 -0.2031 Q155.1094 0.1562 154.2656 0.1562 Q153.5156 0.1562 152.9531 -0.1328 Q152.3906 -0.4219 152.0859 -0.9453 Q151.7812 -1.4688 151.7812 -2.1562 Q151.7812 -3.5781 153.1953 -4.3516 Q154.6094 -5.125 157.4219 -5.25 L157.4219 -5.8906 Q157.4219 -6.9062 157.2266 -7.4922 Q157.0312 -8.0781 156.6172 -8.3516 Q156.2031 -8.625 155.5 -8.625 Q154.7344 -8.625 154.2656 -8.2266 Q153.7969 -7.8281 153.5625 -7.0156 L152.2969 -7.0156 L152.2969 -8.2969 Q153.2344 -8.7812 153.8594 -9.0078 Q154.4844 -9.2344 155.1094 -9.3672 Q155.7344 -9.5 156.375 -9.5 Q157.3438 -9.5 157.9297 -9.1953 Q158.5156 -8.8906 158.8047 -8.2578 Q159.0938 -7.625 159.0938 -6.3438 L159.0938 -2.9375 Q159.0938 -2.2188 159.1016 -1.9219 Q159.1094 -1.625 159.1641 -1.3672 Q159.2188 -1.1094 159.3125 -0.9609 Q159.4062 -0.8125 159.6016 -0.7031 Q159.7969 -0.5938 160.2188 -0.4844 L160.2188 0 L157.5469 0 L157.5938 -1.3906 ZM157.4219 -4.4531 Q155.4375 -4.4375 154.4531 -3.9297 Q153.4688 -3.4219 153.4688 -2.3906 Q153.4688 -1.8438 153.6953 -1.5156 Q153.9219 -1.1875 154.2656 -1.0703 Q154.6094 -0.9531 155.0781 -0.9531 Q155.7344 -0.9531 156.2812 -1.2734 Q156.8281 -1.5938 157.125 -2.0938 Q157.4219 -2.5938 157.4219 -3.0781 L157.4219 -4.4531 ZM161.3594 -8.8438 Q161.8438 -8.9219 162.1484 -9.1172 Q162.4531 -9.3125 162.625 -9.625 Q162.7969 -9.9375 162.8984 -10.3984 Q163 -10.8594 163.0938 -11.75 L164.4844 -11.75 L164.4844 -9.3438 L167.6406 -9.3438 L167.6406 -8.3438 L164.4844 -8.3438 L164.4844 -4 Q164.4844 -3.0625 164.5625 -2.5 Q164.6406 -1.9375 164.8594 -1.6172 Q165.0781 -1.2969 165.3516 -1.1641 Q165.625 -1.0312 166.0469 -1.0312 Q166.4375 -1.0312 166.7812 -1.1875 Q167.125 -1.3438 167.4531 -1.6562 L167.8906 -1.125 Q167.2031 -0.4531 166.5859 -0.1484 Q165.9688 0.1562 165.2969 0.1562 Q164.0312 0.1562 163.4219 -0.5938 Q162.8125 -1.3438 162.8125 -2.9375 L162.8125 -8.3438 L161.3594 -8.3438 L161.3594 -8.8438 ZM171.7344 -13.1719 L171.7344 -11.2656 L169.9375 -11.2656 L169.9375 -13.1719 L171.7344 -13.1719 ZM168.9531 -0.4844 Q169.3281 -0.5938 169.4922 -0.6797 Q169.6562 -0.7656 169.7656 -0.9219 Q169.875 -1.0781 169.9375 -1.4062 Q170 -1.7344 170 -2.4062 L170 -6.6719 Q170 -7.2969 169.9844 -7.6797 Q169.9688 -8.0625 169.8516 -8.2891 Q169.7344 -8.5156 169.4922 -8.625 Q169.25 -8.7344 168.8125 -8.8125 L168.8125 -9.3438 L171.0938 -9.4219 L171.6875 -9.4219 L171.6875 -2.4375 Q171.6875 -1.6094 171.7656 -1.2812 Q171.8438 -0.9531 172.0625 -0.7812 Q172.2812 -0.6094 172.7812 -0.4844 L172.7812 0 L168.9531 0 L168.9531 -0.4844 ZM179.2031 0.1562 Q177.1719 0.1562 176.1016 -1.0391 Q175.0312 -2.2344 175.0312 -4.5781 Q175.0312 -6.1875 175.5938 -7.3047 Q176.1562 -8.4219 177.1328 -8.9609 Q178.1094 -9.5 179.3594 -9.5 Q181.4375 -9.5 182.5156 -8.2891 Q183.5938 -7.0781 183.5938 -4.7969 Q183.5938 -3.1719 183.0547 -2.0625 Q182.5156 -0.9531 181.5312 -0.3984 Q180.5469 0.1562 179.2031 0.1562 ZM176.875 -4.7812 Q176.875 -2.7812 177.5156 -1.6953 Q178.1562 -0.6094 179.3438 -0.6094 Q180 -0.6094 180.4609 -0.9297 Q180.9219 -1.25 181.2031 -1.7891 Q181.4844 -2.3281 181.6172 -3.0312 Q181.75 -3.7344 181.75 -4.5156 Q181.75 -5.9531 181.4297 -6.8984 Q181.1094 -7.8438 180.5625 -8.2891 Q180.0156 -8.7344 179.3125 -8.7344 Q178.125 -8.7344 177.5 -7.7109 Q176.875 -6.6875 176.875 -4.7812 ZM195.4531 0 L191.6094 0 L191.6094 -0.4844 Q192 -0.5938 192.1641 -0.6797 Q192.3281 -0.7656 192.4375 -0.9219 Q192.5469 -1.0781 192.6094 -1.4062 Q192.6719 -1.7344 192.6719 -2.4062 L192.6719 -4.9688 Q192.6719 -5.6406 192.6328 -6.2031 Q192.5938 -6.7656 192.5 -7.1172 Q192.4062 -7.4688 192.2812 -7.6719 Q192.1562 -7.875 191.9688 -8.0156 Q191.7812 -8.1562 191.5469 -8.2422 Q191.3125 -8.3281 190.9375 -8.3281 Q190.5625 -8.3281 190.2188 -8.1719 Q189.875 -8.0156 189.4609 -7.6484 Q189.0469 -7.2812 188.8672 -6.9141 Q188.6875 -6.5469 188.6875 -6.0781 L188.6875 -2.4375 Q188.6875 -1.6094 188.7656 -1.2812 Q188.8438 -0.9531 189.0625 -0.7812 Q189.2812 -0.6094 189.7812 -0.4844 L189.7812 0 L185.9531 0 L185.9531 -0.4844 Q186.3281 -0.5938 186.4922 -0.6797 Q186.6562 -0.7656 186.7656 -0.9219 Q186.875 -1.0781 186.9375 -1.4062 Q187 -1.7344 187 -2.4062 L187 -6.6719 Q187 -7.2969 186.9844 -7.6797 Q186.9688 -8.0625 186.8516 -8.2891 Q186.7344 -8.5156 186.4922 -8.625 Q186.25 -8.7344 185.8125 -8.8125 L185.8125 -9.3438 L188.0938 -9.4219 L188.6875 -9.4219 L188.5781 -7.8281 L188.7188 -7.7969 Q189.4375 -8.5312 189.8828 -8.8438 Q190.3281 -9.1562 190.7812 -9.3281 Q191.2344 -9.5 191.75 -9.5 Q192.2812 -9.5 192.6953 -9.375 Q193.1094 -9.25 193.4219 -8.9922 Q193.7344 -8.7344 193.9453 -8.3594 Q194.1562 -7.9844 194.2578 -7.4609 Q194.3594 -6.9375 194.3594 -6.125 L194.3594 -2.4375 Q194.3594 -1.7656 194.3984 -1.4609 Q194.4375 -1.1562 194.5312 -0.9922 Q194.625 -0.8281 194.8125 -0.7188 Q195 -0.6094 195.4531 -0.4844 L195.4531 0 ZM204.1719 -9.3438 L204.1719 -8.8594 Q203.7188 -8.75 203.5312 -8.6562 Q203.3438 -8.5625 203.2578 -8.4062 Q203.1719 -8.25 203.1719 -7.9844 Q203.1719 -7.7188 203.2344 -7.4297 Q203.2969 -7.1406 203.4219 -6.7656 L205.125 -1.8125 L207.125 -6.5469 Q207.3125 -7.0156 207.3906 -7.3203 Q207.4688 -7.625 207.4688 -7.8906 Q207.4688 -8.2969 207.25 -8.5156 Q207.0312 -8.7344 206.4531 -8.8594 L206.4531 -9.3438 L210.0938 -9.3438 L210.0938 -8.8594 Q209.7188 -8.7812 209.5156 -8.6172 Q209.3125 -8.4531 209.1016 -8.1094 Q208.8906 -7.7656 208.6094 -7.1406 L205.3281 0.0938 L204.1719 0.0938 L201.5312 -7.2031 Q201.25 -7.9531 201.0859 -8.2266 Q200.9219 -8.5 200.7344 -8.6406 Q200.5469 -8.7812 200.1875 -8.8594 L200.1875 -9.3438 L204.1719 -9.3438 ZM218.75 -1.6562 Q218.125 -1 217.6016 -0.6328 Q217.0781 -0.2656 216.4531 -0.0547 Q215.8281 0.1562 215.0781 0.1562 Q213.0625 0.1562 212.0391 -1.0469 Q211.0156 -2.25 211.0156 -4.6094 Q211.0156 -6.0625 211.5391 -7.1797 Q212.0625 -8.2969 213.0312 -8.8984 Q214 -9.5 215.25 -9.5 Q216.2344 -9.5 216.9297 -9.1875 Q217.625 -8.875 218.0391 -8.3359 Q218.4531 -7.7969 218.6875 -6.9688 Q218.9219 -6.1406 218.9531 -4.8125 L212.7969 -4.8125 L212.7969 -4.6406 Q212.7969 -3.4844 213.0547 -2.7031 Q213.3125 -1.9219 213.9062 -1.4766 Q214.5 -1.0312 215.4375 -1.0312 Q216.2344 -1.0312 216.875 -1.3281 Q217.5156 -1.625 218.1562 -2.2969 L218.75 -1.6562 ZM217.1094 -5.625 Q217.0469 -6.6875 216.8438 -7.3516 Q216.6406 -8.0156 216.2344 -8.375 Q215.8281 -8.7344 215.1562 -8.7344 Q214.1562 -8.7344 213.5547 -7.9297 Q212.9531 -7.125 212.8438 -5.625 L217.1094 -5.625 ZM228.2188 -9.1094 L228.2188 -7.0781 L226.9844 -7.0781 Q226.8125 -7.7031 226.5703 -8.0703 Q226.3281 -8.4375 226.0078 -8.5859 Q225.6875 -8.7344 225.2031 -8.7344 Q224.5156 -8.7344 223.9922 -8.2969 Q223.4688 -7.8594 223.1641 -6.9609 Q222.8594 -6.0625 222.8594 -4.75 Q222.8594 -3.9219 222.9766 -3.2344 Q223.0938 -2.5469 223.375 -2.0625 Q223.6562 -1.5781 224.125 -1.3047 Q224.5938 -1.0312 225.2812 -1.0312 Q225.9531 -1.0312 226.5391 -1.2891 Q227.125 -1.5469 227.75 -2.2188 L228.2969 -1.5781 Q227.7969 -1.0312 227.4219 -0.7344 Q227.0469 -0.4375 226.6094 -0.2344 Q226.1719 -0.0312 225.75 0.0625 Q225.3281 0.1562 224.8281 0.1562 Q222.9844 0.1562 222.0078 -1.0703 Q221.0312 -2.2969 221.0312 -4.6094 Q221.0312 -6.0625 221.5781 -7.1797 Q222.125 -8.2969 223.1094 -8.8984 Q224.0938 -9.5 225.375 -9.5 Q226.1875 -9.5 226.8672 -9.4062 Q227.5469 -9.3125 228.2188 -9.1094 ZM229.3594 -8.8438 Q229.8438 -8.9219 230.1484 -9.1172 Q230.4531 -9.3125 230.625 -9.625 Q230.7969 -9.9375 230.8984 -10.3984 Q231 -10.8594 231.0938 -11.75 L232.4844 -11.75 L232.4844 -9.3438 L235.6406 -9.3438 L235.6406 -8.3438 L232.4844 -8.3438 L232.4844 -4 Q232.4844 -3.0625 232.5625 -2.5 Q232.6406 -1.9375 232.8594 -1.6172 Q233.0781 -1.2969 233.3516 -1.1641 Q233.625 -1.0312 234.0469 -1.0312 Q234.4375 -1.0312 234.7812 -1.1875 Q235.125 -1.3438 235.4531 -1.6562 L235.8906 -1.125 Q235.2031 -0.4531 234.5859 -0.1484 Q233.9688 0.1562 233.2969 0.1562 Q232.0312 0.1562 231.4219 -0.5938 Q230.8125 -1.3438 230.8125 -2.9375 L230.8125 -8.3438 L229.3594 -8.3438 L229.3594 -8.8438 ZM241.2031 0.1562 Q239.1719 0.1562 238.1016 -1.0391 Q237.0312 -2.2344 237.0312 -4.5781 Q237.0312 -6.1875 237.5938 -7.3047 Q238.1562 -8.4219 239.1328 -8.9609 Q240.1094 -9.5 241.3594 -9.5 Q243.4375 -9.5 244.5156 -8.2891 Q245.5938 -7.0781 245.5938 -4.7969 Q245.5938 -3.1719 245.0547 -2.0625 Q244.5156 -0.9531 243.5312 -0.3984 Q242.5469 0.1562 241.2031 0.1562 ZM238.875 -4.7812 Q238.875 -2.7812 239.5156 -1.6953 Q240.1562 -0.6094 241.3438 -0.6094 Q242 -0.6094 242.4609 -0.9297 Q242.9219 -1.25 243.2031 -1.7891 Q243.4844 -2.3281 243.6172 -3.0312 Q243.75 -3.7344 243.75 -4.5156 Q243.75 -5.9531 243.4297 -6.8984 Q243.1094 -7.8438 242.5625 -8.2891 Q242.0156 -8.7344 241.3125 -8.7344 Q240.125 -8.7344 239.5 -7.7109 Q238.875 -6.6875 238.875 -4.7812 ZM250.5781 -7.7188 L250.7188 -7.6875 Q251.2656 -8.3438 251.7188 -8.7188 Q252.1719 -9.0938 252.7031 -9.2969 Q253.2344 -9.5 253.9219 -9.5 Q254.4844 -9.5 254.9375 -9.4375 L254.9375 -7.2031 L253.8438 -7.2031 Q253.6094 -7.7188 253.3438 -7.9609 Q253.0781 -8.2031 252.6094 -8.2031 Q252.2656 -8.2031 251.9219 -8 Q251.5781 -7.7969 251.25 -7.4062 Q250.9219 -7.0156 250.8047 -6.6719 Q250.6875 -6.3281 250.6875 -5.8594 L250.6875 -2.4375 Q250.6875 -1.5469 250.7891 -1.2109 Q250.8906 -0.875 251.1406 -0.7188 Q251.3906 -0.5625 251.8906 -0.4844 L251.8906 0 L247.9531 0 L247.9531 -0.4844 Q248.3281 -0.5938 248.4922 -0.6797 Q248.6562 -0.7656 248.7734 -0.9219 Q248.8906 -1.0781 248.9453 -1.4062 Q249 -1.7344 249 -2.4062 L249 -6.6719 Q249 -7.2969 248.9844 -7.6797 Q248.9688 -8.0625 248.8516 -8.2891 Q248.7344 -8.5156 248.4922 -8.625 Q248.25 -8.7344 247.8125 -8.8125 L247.8125 -9.3281 L250.0938 -9.4219 L250.6875 -9.4219 L250.5781 -7.7188 Z" stroke="none"/></g></g></svg>