<?xml version="1.0" encoding="UTF-8" standalone="no"?><svg xmlns="http://www.w3.org/2000/svg" xmlns:xlink="http://www.w3.org/1999/xlink" stroke-dasharray="none" shape-rendering="auto" font-family="'Dialog'" width="386.812600" text-rendering="auto" fill-opacity="1" contentScriptType="text/ecmascript" color-interpolation="auto" color-rendering="auto" preserveAspectRatio="xMidYMid meet" font-size="12" fill="black" stroke="black" image-rendering="auto" stroke-miterlimit="10" zoomAndPan="magnify" version="1.0" stroke-linecap="square" stroke-linejoin="miter" contentStyleType="text/css" font-style="normal" height="25" stroke-width="1" stroke-dashoffset="0" font-weight="normal" stroke-opacity="1" y="-5.000000"><!--Converted from MathML using JEuclid--><defs id="genericDefs"/><g><g text-rendering="optimizeLegibility" transform="translate(0,20)" color-rendering="optimizeQuality" color-interpolation="linearRGB" image-rendering="optimizeQuality"><path d="M10.7812 -8.0156 L7.9062 -8.0156 L7.875 -7.9375 Q9.2188 -6.9844 9.2188 -5.1875 Q9.2188 -3.1719 7.8438 -1.5078 Q6.4688 0.1562 4.0625 0.1562 Q2.5781 0.1562 1.7031 -0.7891 Q0.8281 -1.7344 0.8281 -3.3281 Q0.8281 -4.9375 1.4609 -6.2031 Q2.0938 -7.4688 3.1172 -8.1953 Q4.1406 -8.9219 5.2578 -9.1328 Q6.375 -9.3438 8.3281 -9.3438 L11.0469 -9.3438 L10.7812 -8.0156 ZM6.6875 -7.9844 Q5.4375 -7.9844 4.625 -7.5 Q3.8125 -7.0156 3.1641 -5.8516 Q2.5156 -4.6875 2.5156 -2.875 Q2.5156 -1.7969 3.0156 -1.2031 Q3.5156 -0.6094 4.2656 -0.6094 Q5.6094 -0.6094 6.5469 -2.1328 Q7.4844 -3.6562 7.4844 -5.5156 Q7.4844 -6.9688 6.6875 -7.9844 Z" stroke="none"/></g><g text-rendering="optimizeLegibility" transform="translate(11.0469,23.4766)" color-rendering="optimizeQuality" color-interpolation="linearRGB" image-rendering="optimizeQuality"><path d="M6.5625 -5.2031 L6.5625 -5.0938 Q6.5625 -5.0469 6.5469 -5 Q7.1406 -5.8438 7.7266 -6.2422 Q8.3125 -6.6406 8.9531 -6.6406 Q9.5938 -6.6406 9.9375 -6.2734 Q10.2812 -5.9062 10.2812 -5.2031 Q10.2812 -4.7656 10.1406 -4.1406 L9.5625 -1.7031 Q9.4531 -1.2188 9.4531 -0.9375 Q9.4531 -0.7188 9.5156 -0.6094 Q9.5781 -0.5 9.7266 -0.4375 Q9.875 -0.375 10.2031 -0.3281 L10.1406 0 L7.9844 0 L8.8594 -3.4688 Q8.9531 -3.8438 9.0234 -4.2344 Q9.0938 -4.625 9.0938 -4.9375 Q9.0938 -5.4219 8.9219 -5.6328 Q8.75 -5.8438 8.375 -5.8438 Q8.1094 -5.8438 7.7812 -5.625 Q7.4531 -5.4062 7.0938 -4.9531 Q6.7344 -4.5 6.5 -4.0625 Q6.2656 -3.625 6.125 -2.9844 L5.5156 0 L4.3281 0 L5.1094 -3.4688 Q5.25 -4.1094 5.3047 -4.4141 Q5.3594 -4.7188 5.3594 -4.9375 Q5.3594 -5.4219 5.1875 -5.6328 Q5.0156 -5.8438 4.6406 -5.8438 Q4.375 -5.8438 4.0391 -5.625 Q3.7031 -5.4062 3.3359 -4.9375 Q2.9688 -4.4688 2.7422 -4.0234 Q2.5156 -3.5781 2.4062 -2.9531 L1.7812 0 L0.5938 0 L1.6406 -4.6719 Q1.6719 -4.8281 1.7266 -5.1328 Q1.7812 -5.4375 1.7812 -5.6406 Q1.7812 -5.8438 1.7266 -5.9453 Q1.6719 -6.0469 1.5312 -6.1016 Q1.3906 -6.1562 1.0469 -6.1719 L1.1406 -6.5312 L2.6875 -6.5938 L3.0781 -6.5938 L2.625 -4.8281 L2.7031 -4.7969 Q3.3438 -5.7344 3.9609 -6.1875 Q4.5781 -6.6406 5.2188 -6.6406 Q5.875 -6.6406 6.2188 -6.2734 Q6.5625 -5.9062 6.5625 -5.2031 Z" stroke="none"/></g><g text-rendering="optimizeLegibility" transform="translate(22.1094,20)" color-rendering="optimizeQuality" color-interpolation="linearRGB" image-rendering="optimizeQuality"><path d="M1.2188 -7.0625 L1.2188 -8.4219 L9.8594 -8.4219 L9.8594 -7.0625 L1.2188 -7.0625 ZM1.2188 -3.0156 L1.2188 -4.3594 L9.8594 -4.3594 L9.8594 -3.0156 L1.2188 -3.0156 Z" stroke="none"/></g><g text-rendering="optimizeLegibility" transform="translate(33.9688,20)" color-rendering="optimizeQuality" color-interpolation="linearRGB" image-rendering="optimizeQuality"><path d="M3.5781 -7.8281 L3.7188 -7.7969 Q4.3125 -8.375 4.6875 -8.6719 Q5.0625 -8.9688 5.4141 -9.1562 Q5.7656 -9.3438 6.0703 -9.4219 Q6.375 -9.5 6.7031 -9.5 Q7.6719 -9.5 8.2891 -9.0469 Q8.9062 -8.5938 9.1406 -7.6719 Q9.875 -8.4062 10.3281 -8.7578 Q10.7812 -9.1094 11.2578 -9.3047 Q11.7344 -9.5 12.2812 -9.5 Q12.9375 -9.5 13.4062 -9.3047 Q13.875 -9.1094 14.2031 -8.7188 Q14.5312 -8.3281 14.6797 -7.7266 Q14.8281 -7.125 14.8281 -6.125 L14.8281 -2.4375 Q14.8281 -1.7031 14.8828 -1.4219 Q14.9375 -1.1406 15.0312 -0.9844 Q15.125 -0.8281 15.3047 -0.7109 Q15.4844 -0.5938 15.9219 -0.4844 L15.9219 0 L12.0938 0 L12.0938 -0.4844 Q12.4688 -0.5938 12.6328 -0.6797 Q12.7969 -0.7656 12.9141 -0.9219 Q13.0312 -1.0781 13.0938 -1.4062 Q13.1562 -1.7344 13.1562 -2.4062 L13.1562 -4.9688 Q13.1562 -5.7969 13.1094 -6.3359 Q13.0625 -6.875 12.9688 -7.1953 Q12.875 -7.5156 12.75 -7.7031 Q12.625 -7.8906 12.4531 -8.0312 Q12.2812 -8.1719 12.0625 -8.25 Q11.8438 -8.3281 11.4688 -8.3281 Q11.0781 -8.3281 10.7422 -8.1719 Q10.4062 -8.0156 10.0078 -7.6406 Q9.6094 -7.2656 9.4375 -6.8906 Q9.2656 -6.5156 9.2656 -6 L9.2656 -2.4375 Q9.2656 -1.7031 9.3125 -1.4219 Q9.3594 -1.1406 9.4531 -0.9844 Q9.5469 -0.8281 9.7266 -0.7109 Q9.9062 -0.5938 10.3594 -0.4844 L10.3594 0 L6.5156 0 L6.5156 -0.4844 Q6.8906 -0.5938 7.0625 -0.6797 Q7.2344 -0.7656 7.3438 -0.9219 Q7.4531 -1.0781 7.5156 -1.4062 Q7.5781 -1.7344 7.5781 -2.4062 L7.5781 -4.9688 Q7.5781 -5.8281 7.5312 -6.375 Q7.4844 -6.9219 7.3828 -7.2578 Q7.2812 -7.5938 7.1172 -7.7969 Q6.9531 -8 6.7891 -8.1094 Q6.625 -8.2188 6.3984 -8.2734 Q6.1719 -8.3281 5.8906 -8.3281 Q5.4844 -8.3281 5.1328 -8.1406 Q4.7812 -7.9531 4.4141 -7.6172 Q4.0469 -7.2812 3.8672 -6.9062 Q3.6875 -6.5312 3.6875 -6.1094 L3.6875 -2.4375 Q3.6875 -1.8906 3.7109 -1.5938 Q3.7344 -1.2969 3.8047 -1.1328 Q3.875 -0.9688 3.9688 -0.8672 Q4.0625 -0.7656 4.2422 -0.6719 Q4.4219 -0.5781 4.7812 -0.4844 L4.7812 0 L0.9531 0 L0.9531 -0.4844 Q1.3281 -0.5938 1.4922 -0.6797 Q1.6562 -0.7656 1.7734 -0.9219 Q1.8906 -1.0781 1.9453 -1.4062 Q2 -1.7344 2 -2.4062 L2 -6.6719 Q2 -7.2969 1.9844 -7.6797 Q1.9688 -8.0625 1.8516 -8.2891 Q1.7344 -8.5156 1.4922 -8.625 Q1.25 -8.7344 0.8125 -8.8125 L0.8125 -9.3438 L3.0938 -9.4219 L3.6875 -9.4219 L3.5781 -7.8281 ZM25.75 -1.6562 Q25.125 -1 24.6016 -0.6328 Q24.0781 -0.2656 23.4531 -0.0547 Q22.8281 0.1562 22.0781 0.1562 Q20.0625 0.1562 19.0391 -1.0469 Q18.0156 -2.25 18.0156 -4.6094 Q18.0156 -6.0625 18.5391 -7.1797 Q19.0625 -8.2969 20.0312 -8.8984 Q21 -9.5 22.25 -9.5 Q23.2344 -9.5 23.9297 -9.1875 Q24.625 -8.875 25.0391 -8.3359 Q25.4531 -7.7969 25.6875 -6.9688 Q25.9219 -6.1406 25.9531 -4.8125 L19.7969 -4.8125 L19.7969 -4.6406 Q19.7969 -3.4844 20.0547 -2.7031 Q20.3125 -1.9219 20.9062 -1.4766 Q21.5 -1.0312 22.4375 -1.0312 Q23.2344 -1.0312 23.875 -1.3281 Q24.5156 -1.625 25.1562 -2.2969 L25.75 -1.6562 ZM24.1094 -5.625 Q24.0469 -6.6875 23.8438 -7.3516 Q23.6406 -8.0156 23.2344 -8.375 Q22.8281 -8.7344 22.1562 -8.7344 Q21.1562 -8.7344 20.5547 -7.9297 Q19.9531 -7.125 19.8438 -5.625 L24.1094 -5.625 ZM33.5938 -1.3906 L33.4531 -1.4375 Q32.5938 -0.5625 31.8516 -0.2031 Q31.1094 0.1562 30.2656 0.1562 Q29.5156 0.1562 28.9531 -0.1328 Q28.3906 -0.4219 28.0859 -0.9453 Q27.7812 -1.4688 27.7812 -2.1562 Q27.7812 -3.5781 29.1953 -4.3516 Q30.6094 -5.125 33.4219 -5.25 L33.4219 -5.8906 Q33.4219 -6.9062 33.2266 -7.4922 Q33.0312 -8.0781 32.6172 -8.3516 Q32.2031 -8.625 31.5 -8.625 Q30.7344 -8.625 30.2656 -8.2266 Q29.7969 -7.8281 29.5625 -7.0156 L28.2969 -7.0156 L28.2969 -8.2969 Q29.2344 -8.7812 29.8594 -9.0078 Q30.4844 -9.2344 31.1094 -9.3672 Q31.7344 -9.5 32.375 -9.5 Q33.3438 -9.5 33.9297 -9.1953 Q34.5156 -8.8906 34.8047 -8.2578 Q35.0938 -7.625 35.0938 -6.3438 L35.0938 -2.9375 Q35.0938 -2.2188 35.1016 -1.9219 Q35.1094 -1.625 35.1641 -1.3672 Q35.2188 -1.1094 35.3125 -0.9609 Q35.4062 -0.8125 35.6016 -0.7031 Q35.7969 -0.5938 36.2188 -0.4844 L36.2188 0 L33.5469 0 L33.5938 -1.3906 ZM33.4219 -4.4531 Q31.4375 -4.4375 30.4531 -3.9297 Q29.4688 -3.4219 29.4688 -2.3906 Q29.4688 -1.8438 29.6953 -1.5156 Q29.9219 -1.1875 30.2656 -1.0703 Q30.6094 -0.9531 31.0781 -0.9531 Q31.7344 -0.9531 32.2812 -1.2734 Q32.8281 -1.5938 33.125 -2.0938 Q33.4219 -2.5938 33.4219 -3.0781 L33.4219 -4.4531 ZM47.4531 0 L43.6094 0 L43.6094 -0.4844 Q44 -0.5938 44.1641 -0.6797 Q44.3281 -0.7656 44.4375 -0.9219 Q44.5469 -1.0781 44.6094 -1.4062 Q44.6719 -1.7344 44.6719 -2.4062 L44.6719 -4.9688 Q44.6719 -5.6406 44.6328 -6.2031 Q44.5938 -6.7656 44.5 -7.1172 Q44.4062 -7.4688 44.2812 -7.6719 Q44.1562 -7.875 43.9688 -8.0156 Q43.7812 -8.1562 43.5469 -8.2422 Q43.3125 -8.3281 42.9375 -8.3281 Q42.5625 -8.3281 42.2188 -8.1719 Q41.875 -8.0156 41.4609 -7.6484 Q41.0469 -7.2812 40.8672 -6.9141 Q40.6875 -6.5469 40.6875 -6.0781 L40.6875 -2.4375 Q40.6875 -1.6094 40.7656 -1.2812 Q40.8438 -0.9531 41.0625 -0.7812 Q41.2812 -0.6094 41.7812 -0.4844 L41.7812 0 L37.9531 0 L37.9531 -0.4844 Q38.3281 -0.5938 38.4922 -0.6797 Q38.6562 -0.7656 38.7656 -0.9219 Q38.875 -1.0781 38.9375 -1.4062 Q39 -1.7344 39 -2.4062 L39 -6.6719 Q39 -7.2969 38.9844 -7.6797 Q38.9688 -8.0625 38.8516 -8.2891 Q38.7344 -8.5156 38.4922 -8.625 Q38.25 -8.7344 37.8125 -8.8125 L37.8125 -9.3438 L40.0938 -9.4219 L40.6875 -9.4219 L40.5781 -7.8281 L40.7188 -7.7969 Q41.4375 -8.5312 41.8828 -8.8438 Q42.3281 -9.1562 42.7812 -9.3281 Q43.2344 -9.5 43.75 -9.5 Q44.2812 -9.5 44.6953 -9.375 Q45.1094 -9.25 45.4219 -8.9922 Q45.7344 -8.7344 45.9453 -8.3594 Q46.1562 -7.9844 46.2578 -7.4609 Q46.3594 -6.9375 46.3594 -6.125 L46.3594 -2.4375 Q46.3594 -1.7656 46.3984 -1.4609 Q46.4375 -1.1562 46.5312 -0.9922 Q46.625 -0.8281 46.8125 -0.7188 Q47 -0.6094 47.4531 -0.4844 L47.4531 0 ZM57.2031 0.1562 Q55.1719 0.1562 54.1016 -1.0391 Q53.0312 -2.2344 53.0312 -4.5781 Q53.0312 -6.1875 53.5938 -7.3047 Q54.1562 -8.4219 55.1328 -8.9609 Q56.1094 -9.5 57.3594 -9.5 Q59.4375 -9.5 60.5156 -8.2891 Q61.5938 -7.0781 61.5938 -4.7969 Q61.5938 -3.1719 61.0547 -2.0625 Q60.5156 -0.9531 59.5312 -0.3984 Q58.5469 0.1562 57.2031 0.1562 ZM54.875 -4.7812 Q54.875 -2.7812 55.5156 -1.6953 Q56.1562 -0.6094 57.3438 -0.6094 Q58 -0.6094 58.4609 -0.9297 Q58.9219 -1.25 59.2031 -1.7891 Q59.4844 -2.3281 59.6172 -3.0312 Q59.75 -3.7344 59.75 -4.5156 Q59.75 -5.9531 59.4297 -6.8984 Q59.1094 -7.8438 58.5625 -8.2891 Q58.0156 -8.7344 57.3125 -8.7344 Q56.125 -8.7344 55.5 -7.7109 Q54.875 -6.6875 54.875 -4.7812 ZM66.5781 -7.7188 L66.7188 -7.6875 Q67.2656 -8.3438 67.7188 -8.7188 Q68.1719 -9.0938 68.7031 -9.2969 Q69.2344 -9.5 69.9219 -9.5 Q70.4844 -9.5 70.9375 -9.4375 L70.9375 -7.2031 L69.8438 -7.2031 Q69.6094 -7.7188 69.3438 -7.9609 Q69.0781 -8.2031 68.6094 -8.2031 Q68.2656 -8.2031 67.9219 -8 Q67.5781 -7.7969 67.25 -7.4062 Q66.9219 -7.0156 66.8047 -6.6719 Q66.6875 -6.3281 66.6875 -5.8594 L66.6875 -2.4375 Q66.6875 -1.5469 66.7891 -1.2109 Q66.8906 -0.875 67.1406 -0.7188 Q67.3906 -0.5625 67.8906 -0.4844 L67.8906 0 L63.9531 0 L63.9531 -0.4844 Q64.3281 -0.5938 64.4922 -0.6797 Q64.6562 -0.7656 64.7734 -0.9219 Q64.8906 -1.0781 64.9453 -1.4062 Q65 -1.7344 65 -2.4062 L65 -6.6719 Q65 -7.2969 64.9844 -7.6797 Q64.9688 -8.0625 64.8516 -8.2891 Q64.7344 -8.5156 64.4922 -8.625 Q64.25 -8.7344 63.8125 -8.8125 L63.8125 -9.3281 L66.0938 -9.4219 L66.6875 -9.4219 L66.5781 -7.7188 ZM78.5625 -7.7969 L78.6094 -7.7969 Q79.3594 -8.5625 79.8047 -8.875 Q80.25 -9.1875 80.6875 -9.3438 Q81.125 -9.5 81.625 -9.5 Q82.1562 -9.5 82.5781 -9.3672 Q83 -9.2344 83.3203 -8.9766 Q83.6406 -8.7188 83.8359 -8.3438 Q84.0312 -7.9688 84.1328 -7.4453 Q84.2344 -6.9219 84.2344 -6.125 L84.2344 -2.4375 Q84.2344 -1.5938 84.3047 -1.2891 Q84.375 -0.9844 84.5625 -0.8125 Q84.75 -0.6406 85.3281 -0.4844 L85.3281 0 L81.4844 0 L81.4844 -0.4844 Q81.8594 -0.5938 82.0312 -0.6797 Q82.2031 -0.7656 82.3125 -0.9219 Q82.4219 -1.0781 82.4844 -1.4062 Q82.5469 -1.7344 82.5469 -2.4062 L82.5469 -4.9688 Q82.5469 -6.2656 82.4141 -6.9531 Q82.2812 -7.6406 81.8984 -7.9844 Q81.5156 -8.3281 80.8281 -8.3281 Q80.4375 -8.3281 80.125 -8.1875 Q79.8125 -8.0469 79.3984 -7.6953 Q78.9844 -7.3438 78.7734 -6.9766 Q78.5625 -6.6094 78.5625 -6.1875 L78.5625 -2.4375 Q78.5625 -1.7812 78.6016 -1.5 Q78.6406 -1.2188 78.7344 -1.0234 Q78.8281 -0.8281 79.0312 -0.7109 Q79.2344 -0.5938 79.6562 -0.4844 L79.6562 0 L75.7812 0 L75.7812 -0.4844 Q76.2188 -0.5938 76.3984 -0.7031 Q76.5781 -0.8125 76.6797 -0.9766 Q76.7812 -1.1406 76.8359 -1.4531 Q76.8906 -1.7656 76.8906 -2.4375 L76.8906 -10.6094 Q76.8906 -11.5469 76.875 -11.9219 Q76.8594 -12.2969 76.7969 -12.5547 Q76.7344 -12.8125 76.6172 -12.9609 Q76.5 -13.1094 76.3125 -13.1953 Q76.125 -13.2812 75.625 -13.375 L75.625 -13.875 L77.9844 -13.9688 L78.5625 -13.9688 L78.5625 -7.7969 ZM91.0781 0.7969 Q90.5469 2.0156 90.0391 2.7656 Q89.5312 3.5156 88.9219 3.8984 Q88.3125 4.2812 87.4688 4.2812 Q86.9219 4.2812 86.25 4.1562 L86.25 2.2188 L87.125 2.2188 Q87.2344 2.625 87.4141 2.7812 Q87.5938 2.9375 87.9219 2.9375 Q88.2188 2.9375 88.4453 2.8203 Q88.6719 2.7031 88.9219 2.4297 Q89.1719 2.1562 89.5078 1.5938 Q89.8438 1.0312 90.2656 0.1562 L87.5312 -7.2031 Q87.2656 -7.9062 87.1094 -8.1953 Q86.9531 -8.4844 86.7656 -8.625 Q86.5781 -8.7656 86.2031 -8.8594 L86.2031 -9.3438 L90.1719 -9.3438 L90.1719 -8.8594 Q89.7188 -8.75 89.5312 -8.6484 Q89.3438 -8.5469 89.2578 -8.3828 Q89.1719 -8.2188 89.1719 -7.9688 Q89.1719 -7.7031 89.2344 -7.4219 Q89.2969 -7.1406 89.4219 -6.7656 L91.1719 -1.8594 L93.125 -6.5469 Q93.2812 -6.9375 93.375 -7.2656 Q93.4688 -7.5938 93.4688 -7.875 Q93.4688 -8.2969 93.2422 -8.5156 Q93.0156 -8.7344 92.4531 -8.8594 L92.4531 -9.3438 L96.0938 -9.3438 L96.0938 -8.8594 Q95.7188 -8.7812 95.5156 -8.6172 Q95.3125 -8.4531 95.1016 -8.1094 Q94.8906 -7.7656 94.6094 -7.1406 L91.0781 0.7969 ZM103.5469 -10.6094 Q103.5469 -11.5469 103.5312 -11.9219 Q103.5156 -12.2969 103.4531 -12.5547 Q103.3906 -12.8125 103.2734 -12.9609 Q103.1562 -13.1094 102.9688 -13.1953 Q102.7812 -13.2812 102.2812 -13.375 L102.2812 -13.875 L104.6406 -13.9688 L105.2188 -13.9688 L105.2188 -2.6719 Q105.2188 -1.9062 105.25 -1.5781 Q105.2812 -1.25 105.375 -1.0547 Q105.4688 -0.8594 105.6797 -0.7344 Q105.8906 -0.6094 106.4219 -0.5156 L106.4219 0 L104.1094 0.0938 L103.5312 0.0938 L103.6406 -1.5 L103.5 -1.5469 Q102.8906 -0.8906 102.4375 -0.5625 Q101.9844 -0.2344 101.4688 -0.0391 Q100.9531 0.1562 100.3594 0.1562 Q98.7656 0.1562 97.8984 -1.0625 Q97.0312 -2.2812 97.0312 -4.5781 Q97.0312 -6.1719 97.5938 -7.2891 Q98.1562 -8.4062 99.1172 -8.9531 Q100.0781 -9.5 101.2812 -9.5 Q101.9219 -9.5 102.4531 -9.3984 Q102.9844 -9.2969 103.5469 -9.0625 L103.5469 -10.6094 ZM103.5469 -5.7969 Q103.5469 -6.5469 103.4766 -7.0078 Q103.4062 -7.4688 103.2422 -7.7812 Q103.0781 -8.0938 102.8047 -8.3125 Q102.5312 -8.5312 102.2031 -8.625 Q101.875 -8.7188 101.4219 -8.7188 Q100.1719 -8.7188 99.5156 -7.7188 Q98.8594 -6.7188 98.8594 -4.8438 Q98.8594 -2.9688 99.3984 -1.9922 Q99.9375 -1.0156 101.0312 -1.0156 Q101.4531 -1.0156 101.7422 -1.0859 Q102.0312 -1.1562 102.3047 -1.3203 Q102.5781 -1.4844 102.8594 -1.7656 Q103.1406 -2.0469 103.2734 -2.2812 Q103.4062 -2.5156 103.4766 -2.8203 Q103.5469 -3.125 103.5469 -3.6094 L103.5469 -5.7969 ZM110.5781 -7.7188 L110.7188 -7.6875 Q111.2656 -8.3438 111.7188 -8.7188 Q112.1719 -9.0938 112.7031 -9.2969 Q113.2344 -9.5 113.9219 -9.5 Q114.4844 -9.5 114.9375 -9.4375 L114.9375 -7.2031 L113.8438 -7.2031 Q113.6094 -7.7188 113.3438 -7.9609 Q113.0781 -8.2031 112.6094 -8.2031 Q112.2656 -8.2031 111.9219 -8 Q111.5781 -7.7969 111.25 -7.4062 Q110.9219 -7.0156 110.8047 -6.6719 Q110.6875 -6.3281 110.6875 -5.8594 L110.6875 -2.4375 Q110.6875 -1.5469 110.7891 -1.2109 Q110.8906 -0.875 111.1406 -0.7188 Q111.3906 -0.5625 111.8906 -0.4844 L111.8906 0 L107.9531 0 L107.9531 -0.4844 Q108.3281 -0.5938 108.4922 -0.6797 Q108.6562 -0.7656 108.7734 -0.9219 Q108.8906 -1.0781 108.9453 -1.4062 Q109 -1.7344 109 -2.4062 L109 -6.6719 Q109 -7.2969 108.9844 -7.6797 Q108.9688 -8.0625 108.8516 -8.2891 Q108.7344 -8.5156 108.4922 -8.625 Q108.25 -8.7344 107.8125 -8.8125 L107.8125 -9.3281 L110.0938 -9.4219 L110.6875 -9.4219 L110.5781 -7.7188 ZM120.2031 0.1562 Q118.1719 0.1562 117.1016 -1.0391 Q116.0312 -2.2344 116.0312 -4.5781 Q116.0312 -6.1875 116.5938 -7.3047 Q117.1562 -8.4219 118.1328 -8.9609 Q119.1094 -9.5 120.3594 -9.5 Q122.4375 -9.5 123.5156 -8.2891 Q124.5938 -7.0781 124.5938 -4.7969 Q124.5938 -3.1719 124.0547 -2.0625 Q123.5156 -0.9531 122.5312 -0.3984 Q121.5469 0.1562 120.2031 0.1562 ZM117.875 -4.7812 Q117.875 -2.7812 118.5156 -1.6953 Q119.1562 -0.6094 120.3438 -0.6094 Q121 -0.6094 121.4609 -0.9297 Q121.9219 -1.25 122.2031 -1.7891 Q122.4844 -2.3281 122.6172 -3.0312 Q122.75 -3.7344 122.75 -4.5156 Q122.75 -5.9531 122.4297 -6.8984 Q122.1094 -7.8438 121.5625 -8.2891 Q121.0156 -8.7344 120.3125 -8.7344 Q119.125 -8.7344 118.5 -7.7109 Q117.875 -6.6875 117.875 -4.7812 ZM133.4844 -7.2031 L132.5469 -7.2031 Q132.3438 -7.7812 132.0469 -8.1172 Q131.75 -8.4531 131.3828 -8.5938 Q131.0156 -8.7344 130.4688 -8.7344 Q129.6875 -8.7344 129.2266 -8.3672 Q128.7656 -8 128.7656 -7.3594 Q128.7656 -6.9219 128.9531 -6.625 Q129.1406 -6.3281 129.5312 -6.0781 Q129.9219 -5.8281 130.9062 -5.4062 Q131.9062 -4.9688 132.4453 -4.6094 Q132.9844 -4.25 133.2891 -3.7734 Q133.5938 -3.2969 133.5938 -2.625 Q133.5938 -1.8594 133.3359 -1.3281 Q133.0781 -0.7969 132.5938 -0.4688 Q132.1094 -0.1406 131.4531 0.0078 Q130.7969 0.1562 130.0156 0.1562 Q129.1875 0.1562 128.4219 0.0312 Q127.6562 -0.0938 126.9219 -0.2812 L126.9219 -2.3281 L127.875 -2.3281 Q128.1406 -1.4219 128.6562 -1.0156 Q129.1719 -0.6094 130.0781 -0.6094 Q130.4375 -0.6094 130.7734 -0.6875 Q131.1094 -0.7656 131.375 -0.9375 Q131.6406 -1.1094 131.7969 -1.3984 Q131.9531 -1.6875 131.9531 -2.125 Q131.9531 -2.625 131.7578 -2.9375 Q131.5625 -3.25 131.1484 -3.5078 Q130.7344 -3.7656 129.7031 -4.2031 Q128.8125 -4.5781 128.2734 -4.9297 Q127.7344 -5.2812 127.4297 -5.7578 Q127.125 -6.2344 127.125 -6.8906 Q127.125 -7.7031 127.5625 -8.2891 Q128 -8.875 128.8203 -9.1875 Q129.6406 -9.5 130.7344 -9.5 Q131.375 -9.5 131.9766 -9.4375 Q132.5781 -9.375 133.4844 -9.1875 L133.4844 -7.2031 ZM135.3594 -8.8438 Q135.8438 -8.9219 136.1484 -9.1172 Q136.4531 -9.3125 136.625 -9.625 Q136.7969 -9.9375 136.8984 -10.3984 Q137 -10.8594 137.0938 -11.75 L138.4844 -11.75 L138.4844 -9.3438 L141.6406 -9.3438 L141.6406 -8.3438 L138.4844 -8.3438 L138.4844 -4 Q138.4844 -3.0625 138.5625 -2.5 Q138.6406 -1.9375 138.8594 -1.6172 Q139.0781 -1.2969 139.3516 -1.1641 Q139.625 -1.0312 140.0469 -1.0312 Q140.4375 -1.0312 140.7812 -1.1875 Q141.125 -1.3438 141.4531 -1.6562 L141.8906 -1.125 Q141.2031 -0.4531 140.5859 -0.1484 Q139.9688 0.1562 139.2969 0.1562 Q138.0312 0.1562 137.4219 -0.5938 Q136.8125 -1.3438 136.8125 -2.9375 L136.8125 -8.3438 L135.3594 -8.3438 L135.3594 -8.8438 ZM148.5938 -1.3906 L148.4531 -1.4375 Q147.5938 -0.5625 146.8516 -0.2031 Q146.1094 0.1562 145.2656 0.1562 Q144.5156 0.1562 143.9531 -0.1328 Q143.3906 -0.4219 143.0859 -0.9453 Q142.7812 -1.4688 142.7812 -2.1562 Q142.7812 -3.5781 144.1953 -4.3516 Q145.6094 -5.125 148.4219 -5.25 L148.4219 -5.8906 Q148.4219 -6.9062 148.2266 -7.4922 Q148.0312 -8.0781 147.6172 -8.3516 Q147.2031 -8.625 146.5 -8.625 Q145.7344 -8.625 145.2656 -8.2266 Q144.7969 -7.8281 144.5625 -7.0156 L143.2969 -7.0156 L143.2969 -8.2969 Q144.2344 -8.7812 144.8594 -9.0078 Q145.4844 -9.2344 146.1094 -9.3672 Q146.7344 -9.5 147.375 -9.5 Q148.3438 -9.5 148.9297 -9.1953 Q149.5156 -8.8906 149.8047 -8.2578 Q150.0938 -7.625 150.0938 -6.3438 L150.0938 -2.9375 Q150.0938 -2.2188 150.1016 -1.9219 Q150.1094 -1.625 150.1641 -1.3672 Q150.2188 -1.1094 150.3125 -0.9609 Q150.4062 -0.8125 150.6016 -0.7031 Q150.7969 -0.5938 151.2188 -0.4844 L151.2188 0 L148.5469 0 L148.5938 -1.3906 ZM148.4219 -4.4531 Q146.4375 -4.4375 145.4531 -3.9297 Q144.4688 -3.4219 144.4688 -2.3906 Q144.4688 -1.8438 144.6953 -1.5156 Q144.9219 -1.1875 145.2656 -1.0703 Q145.6094 -0.9531 146.0781 -0.9531 Q146.7344 -0.9531 147.2812 -1.2734 Q147.8281 -1.5938 148.125 -2.0938 Q148.4219 -2.5938 148.4219 -3.0781 L148.4219 -4.4531 ZM152.3594 -8.8438 Q152.8438 -8.9219 153.1484 -9.1172 Q153.4531 -9.3125 153.625 -9.625 Q153.7969 -9.9375 153.8984 -10.3984 Q154 -10.8594 154.0938 -11.75 L155.4844 -11.75 L155.4844 -9.3438 L158.6406 -9.3438 L158.6406 -8.3438 L155.4844 -8.3438 L155.4844 -4 Q155.4844 -3.0625 155.5625 -2.5 Q155.6406 -1.9375 155.8594 -1.6172 Q156.0781 -1.2969 156.3516 -1.1641 Q156.625 -1.0312 157.0469 -1.0312 Q157.4375 -1.0312 157.7812 -1.1875 Q158.125 -1.3438 158.4531 -1.6562 L158.8906 -1.125 Q158.2031 -0.4531 157.5859 -0.1484 Q156.9688 0.1562 156.2969 0.1562 Q155.0312 0.1562 154.4219 -0.5938 Q153.8125 -1.3438 153.8125 -2.9375 L153.8125 -8.3438 L152.3594 -8.3438 L152.3594 -8.8438 ZM162.7344 -13.1719 L162.7344 -11.2656 L160.9375 -11.2656 L160.9375 -13.1719 L162.7344 -13.1719 ZM159.9531 -0.4844 Q160.3281 -0.5938 160.4922 -0.6797 Q160.6562 -0.7656 160.7656 -0.9219 Q160.875 -1.0781 160.9375 -1.4062 Q161 -1.7344 161 -2.4062 L161 -6.6719 Q161 -7.2969 160.9844 -7.6797 Q160.9688 -8.0625 160.8516 -8.2891 Q160.7344 -8.5156 160.4922 -8.625 Q160.25 -8.7344 159.8125 -8.8125 L159.8125 -9.3438 L162.0938 -9.4219 L162.6875 -9.4219 L162.6875 -2.4375 Q162.6875 -1.6094 162.7656 -1.2812 Q162.8438 -0.9531 163.0625 -0.7812 Q163.2812 -0.6094 163.7812 -0.4844 L163.7812 0 L159.9531 0 L159.9531 -0.4844 ZM173.2188 -9.1094 L173.2188 -7.0781 L171.9844 -7.0781 Q171.8125 -7.7031 171.5703 -8.0703 Q171.3281 -8.4375 171.0078 -8.5859 Q170.6875 -8.7344 170.2031 -8.7344 Q169.5156 -8.7344 168.9922 -8.2969 Q168.4688 -7.8594 168.1641 -6.9609 Q167.8594 -6.0625 167.8594 -4.75 Q167.8594 -3.9219 167.9766 -3.2344 Q168.0938 -2.5469 168.375 -2.0625 Q168.6562 -1.5781 169.125 -1.3047 Q169.5938 -1.0312 170.2812 -1.0312 Q170.9531 -1.0312 171.5391 -1.2891 Q172.125 -1.5469 172.75 -2.2188 L173.2969 -1.5781 Q172.7969 -1.0312 172.4219 -0.7344 Q172.0469 -0.4375 171.6094 -0.2344 Q171.1719 -0.0312 170.75 0.0625 Q170.3281 0.1562 169.8281 0.1562 Q167.9844 0.1562 167.0078 -1.0703 Q166.0312 -2.2969 166.0312 -4.6094 Q166.0312 -6.0625 166.5781 -7.1797 Q167.125 -8.2969 168.1094 -8.8984 Q169.0938 -9.5 170.375 -9.5 Q171.1875 -9.5 171.8672 -9.4062 Q172.5469 -9.3125 173.2188 -9.1094 ZM185.4844 -7.2031 L184.5469 -7.2031 Q184.3438 -7.7812 184.0469 -8.1172 Q183.75 -8.4531 183.3828 -8.5938 Q183.0156 -8.7344 182.4688 -8.7344 Q181.6875 -8.7344 181.2266 -8.3672 Q180.7656 -8 180.7656 -7.3594 Q180.7656 -6.9219 180.9531 -6.625 Q181.1406 -6.3281 181.5312 -6.0781 Q181.9219 -5.8281 182.9062 -5.4062 Q183.9062 -4.9688 184.4453 -4.6094 Q184.9844 -4.25 185.2891 -3.7734 Q185.5938 -3.2969 185.5938 -2.625 Q185.5938 -1.8594 185.3359 -1.3281 Q185.0781 -0.7969 184.5938 -0.4688 Q184.1094 -0.1406 183.4531 0.0078 Q182.7969 0.1562 182.0156 0.1562 Q181.1875 0.1562 180.4219 0.0312 Q179.6562 -0.0938 178.9219 -0.2812 L178.9219 -2.3281 L179.875 -2.3281 Q180.1406 -1.4219 180.6562 -1.0156 Q181.1719 -0.6094 182.0781 -0.6094 Q182.4375 -0.6094 182.7734 -0.6875 Q183.1094 -0.7656 183.375 -0.9375 Q183.6406 -1.1094 183.7969 -1.3984 Q183.9531 -1.6875 183.9531 -2.125 Q183.9531 -2.625 183.7578 -2.9375 Q183.5625 -3.25 183.1484 -3.5078 Q182.7344 -3.7656 181.7031 -4.2031 Q180.8125 -4.5781 180.2734 -4.9297 Q179.7344 -5.2812 179.4297 -5.7578 Q179.125 -6.2344 179.125 -6.8906 Q179.125 -7.7031 179.5625 -8.2891 Q180 -8.875 180.8203 -9.1875 Q181.6406 -9.5 182.7344 -9.5 Q183.375 -9.5 183.9766 -9.4375 Q184.5781 -9.375 185.4844 -9.1875 L185.4844 -7.2031 ZM187.3594 -8.8438 Q187.8438 -8.9219 188.1484 -9.1172 Q188.4531 -9.3125 188.625 -9.625 Q188.7969 -9.9375 188.8984 -10.3984 Q189 -10.8594 189.0938 -11.75 L190.4844 -11.75 L190.4844 -9.3438 L193.6406 -9.3438 L193.6406 -8.3438 L190.4844 -8.3438 L190.4844 -4 Q190.4844 -3.0625 190.5625 -2.5 Q190.6406 -1.9375 190.8594 -1.6172 Q191.0781 -1.2969 191.3516 -1.1641 Q191.625 -1.0312 192.0469 -1.0312 Q192.4375 -1.0312 192.7812 -1.1875 Q193.125 -1.3438 193.4531 -1.6562 L193.8906 -1.125 Q193.2031 -0.4531 192.5859 -0.1484 Q191.9688 0.1562 191.2969 0.1562 Q190.0312 0.1562 189.4219 -0.5938 Q188.8125 -1.3438 188.8125 -2.9375 L188.8125 -8.3438 L187.3594 -8.3438 L187.3594 -8.8438 ZM197.5781 -7.7188 L197.7188 -7.6875 Q198.2656 -8.3438 198.7188 -8.7188 Q199.1719 -9.0938 199.7031 -9.2969 Q200.2344 -9.5 200.9219 -9.5 Q201.4844 -9.5 201.9375 -9.4375 L201.9375 -7.2031 L200.8438 -7.2031 Q200.6094 -7.7188 200.3438 -7.9609 Q200.0781 -8.2031 199.6094 -8.2031 Q199.2656 -8.2031 198.9219 -8 Q198.5781 -7.7969 198.25 -7.4062 Q197.9219 -7.0156 197.8047 -6.6719 Q197.6875 -6.3281 197.6875 -5.8594 L197.6875 -2.4375 Q197.6875 -1.5469 197.7891 -1.2109 Q197.8906 -0.875 198.1406 -0.7188 Q198.3906 -0.5625 198.8906 -0.4844 L198.8906 0 L194.9531 0 L194.9531 -0.4844 Q195.3281 -0.5938 195.4922 -0.6797 Q195.6562 -0.7656 195.7734 -0.9219 Q195.8906 -1.0781 195.9453 -1.4062 Q196 -1.7344 196 -2.4062 L196 -6.6719 Q196 -7.2969 195.9844 -7.6797 Q195.9688 -8.0625 195.8516 -8.2891 Q195.7344 -8.5156 195.4922 -8.625 Q195.25 -8.7344 194.8125 -8.8125 L194.8125 -9.3281 L197.0938 -9.4219 L197.6875 -9.4219 L197.5781 -7.7188 ZM210.75 -1.6562 Q210.125 -1 209.6016 -0.6328 Q209.0781 -0.2656 208.4531 -0.0547 Q207.8281 0.1562 207.0781 0.1562 Q205.0625 0.1562 204.0391 -1.0469 Q203.0156 -2.25 203.0156 -4.6094 Q203.0156 -6.0625 203.5391 -7.1797 Q204.0625 -8.2969 205.0312 -8.8984 Q206 -9.5 207.25 -9.5 Q208.2344 -9.5 208.9297 -9.1875 Q209.625 -8.875 210.0391 -8.3359 Q210.4531 -7.7969 210.6875 -6.9688 Q210.9219 -6.1406 210.9531 -4.8125 L204.7969 -4.8125 L204.7969 -4.6406 Q204.7969 -3.4844 205.0547 -2.7031 Q205.3125 -1.9219 205.9062 -1.4766 Q206.5 -1.0312 207.4375 -1.0312 Q208.2344 -1.0312 208.875 -1.3281 Q209.5156 -1.625 210.1562 -2.2969 L210.75 -1.6562 ZM209.1094 -5.625 Q209.0469 -6.6875 208.8438 -7.3516 Q208.6406 -8.0156 208.2344 -8.375 Q207.8281 -8.7344 207.1562 -8.7344 Q206.1562 -8.7344 205.5547 -7.9297 Q204.9531 -7.125 204.8438 -5.625 L209.1094 -5.625 ZM219.4844 -7.2031 L218.5469 -7.2031 Q218.3438 -7.7812 218.0469 -8.1172 Q217.75 -8.4531 217.3828 -8.5938 Q217.0156 -8.7344 216.4688 -8.7344 Q215.6875 -8.7344 215.2266 -8.3672 Q214.7656 -8 214.7656 -7.3594 Q214.7656 -6.9219 214.9531 -6.625 Q215.1406 -6.3281 215.5312 -6.0781 Q215.9219 -5.8281 216.9062 -5.4062 Q217.9062 -4.9688 218.4453 -4.6094 Q218.9844 -4.25 219.2891 -3.7734 Q219.5938 -3.2969 219.5938 -2.625 Q219.5938 -1.8594 219.3359 -1.3281 Q219.0781 -0.7969 218.5938 -0.4688 Q218.1094 -0.1406 217.4531 0.0078 Q216.7969 0.1562 216.0156 0.1562 Q215.1875 0.1562 214.4219 0.0312 Q213.6562 -0.0938 212.9219 -0.2812 L212.9219 -2.3281 L213.875 -2.3281 Q214.1406 -1.4219 214.6562 -1.0156 Q215.1719 -0.6094 216.0781 -0.6094 Q216.4375 -0.6094 216.7734 -0.6875 Q217.1094 -0.7656 217.375 -0.9375 Q217.6406 -1.1094 217.7969 -1.3984 Q217.9531 -1.6875 217.9531 -2.125 Q217.9531 -2.625 217.7578 -2.9375 Q217.5625 -3.25 217.1484 -3.5078 Q216.7344 -3.7656 215.7031 -4.2031 Q214.8125 -4.5781 214.2734 -4.9297 Q213.7344 -5.2812 213.4297 -5.7578 Q213.125 -6.2344 213.125 -6.8906 Q213.125 -7.7031 213.5625 -8.2891 Q214 -8.875 214.8203 -9.1875 Q215.6406 -9.5 216.7344 -9.5 Q217.375 -9.5 217.9766 -9.4375 Q218.5781 -9.375 219.4844 -9.1875 L219.4844 -7.2031 ZM228.4844 -7.2031 L227.5469 -7.2031 Q227.3438 -7.7812 227.0469 -8.1172 Q226.75 -8.4531 226.3828 -8.5938 Q226.0156 -8.7344 225.4688 -8.7344 Q224.6875 -8.7344 224.2266 -8.3672 Q223.7656 -8 223.7656 -7.3594 Q223.7656 -6.9219 223.9531 -6.625 Q224.1406 -6.3281 224.5312 -6.0781 Q224.9219 -5.8281 225.9062 -5.4062 Q226.9062 -4.9688 227.4453 -4.6094 Q227.9844 -4.25 228.2891 -3.7734 Q228.5938 -3.2969 228.5938 -2.625 Q228.5938 -1.8594 228.3359 -1.3281 Q228.0781 -0.7969 227.5938 -0.4688 Q227.1094 -0.1406 226.4531 0.0078 Q225.7969 0.1562 225.0156 0.1562 Q224.1875 0.1562 223.4219 0.0312 Q222.6562 -0.0938 221.9219 -0.2812 L221.9219 -2.3281 L222.875 -2.3281 Q223.1406 -1.4219 223.6562 -1.0156 Q224.1719 -0.6094 225.0781 -0.6094 Q225.4375 -0.6094 225.7734 -0.6875 Q226.1094 -0.7656 226.375 -0.9375 Q226.6406 -1.1094 226.7969 -1.3984 Q226.9531 -1.6875 226.9531 -2.125 Q226.9531 -2.625 226.7578 -2.9375 Q226.5625 -3.25 226.1484 -3.5078 Q225.7344 -3.7656 224.7031 -4.2031 Q223.8125 -4.5781 223.2734 -4.9297 Q222.7344 -5.2812 222.4297 -5.7578 Q222.125 -6.2344 222.125 -6.8906 Q222.125 -7.7031 222.5625 -8.2891 Q223 -8.875 223.8203 -9.1875 Q224.6406 -9.5 225.7344 -9.5 Q226.375 -9.5 226.9766 -9.4375 Q227.5781 -9.375 228.4844 -9.1875 L228.4844 -7.2031 Z" stroke="none"/></g><g text-rendering="optimizeLegibility" transform="translate(263.3438,20)" color-rendering="optimizeQuality" color-interpolation="linearRGB" image-rendering="optimizeQuality"><path d="M1.2188 -7.0625 L1.2188 -8.4219 L9.8594 -8.4219 L9.8594 -7.0625 L1.2188 -7.0625 ZM1.2188 -3.0156 L1.2188 -4.3594 L9.8594 -4.3594 L9.8594 -3.0156 L1.2188 -3.0156 Z" stroke="none"/></g><g text-rendering="optimizeLegibility" stroke-width="1.6667" color-interpolation="linearRGB" color-rendering="optimizeQuality" image-rendering="optimizeQuality"><line y2="12.78" fill="none" x1="276.8809" x2="283.5371" y1="12.78"/><path d="M4.75 -1.7812 Q4.75 -1.3906 4.7969 -1.1875 Q4.8438 -0.9844 4.9531 -0.8594 Q5.0625 -0.7344 5.2734 -0.6641 Q5.4844 -0.5938 5.8047 -0.5547 Q6.125 -0.5156 6.6562 -0.5 L6.6562 0 L1.6094 0 L1.6094 -0.5 Q2.3594 -0.5312 2.6875 -0.5938 Q3.0156 -0.6562 3.1875 -0.7656 Q3.3594 -0.875 3.4375 -1.0938 Q3.5156 -1.3125 3.5156 -1.7812 L3.5156 -7.3281 Q3.5156 -7.6094 3.4219 -7.7344 Q3.3281 -7.8594 3.1406 -7.8594 Q2.9219 -7.8594 2.5156 -7.6328 Q2.1094 -7.4062 1.5156 -7 L1.2188 -7.5312 L4.4219 -9.4375 L4.7969 -9.4375 Q4.75 -8.7812 4.75 -7.625 L4.75 -1.7812 Z" stroke-width="1" transform="translate(276.8809,10.2689)" stroke="none"/></g><g text-rendering="optimizeLegibility" transform="translate(276.8965,24.7286)" color-rendering="optimizeQuality" color-interpolation="linearRGB" image-rendering="optimizeQuality"><path d="M1.0938 -7.3906 L1.0938 -8.7031 Q1.875 -9.0781 2.5703 -9.2578 Q3.2656 -9.4375 3.9062 -9.4375 Q4.6719 -9.4375 5.2578 -9.2031 Q5.8438 -8.9688 6.1484 -8.5156 Q6.4531 -8.0625 6.4531 -7.4375 Q6.4531 -6.8594 6.2188 -6.4219 Q5.9844 -5.9844 5.5625 -5.6562 Q5.1406 -5.3281 4.4844 -5.0156 L4.4844 -4.9531 Q4.8906 -4.875 5.2812 -4.6953 Q5.6719 -4.5156 5.9688 -4.2266 Q6.2656 -3.9375 6.4453 -3.5391 Q6.625 -3.1406 6.625 -2.625 Q6.625 -1.8281 6.2812 -1.2188 Q5.9375 -0.6094 5.2266 -0.25 Q4.5156 0.1094 3.5 0.1094 Q2.9062 0.1094 2.2266 -0.0234 Q1.5469 -0.1562 0.9844 -0.375 L0.9844 -1.8281 L1.8125 -1.8281 Q2.0469 -1.1094 2.4375 -0.7891 Q2.8281 -0.4688 3.5 -0.4688 Q4.3906 -0.4688 4.8516 -0.9531 Q5.3125 -1.4375 5.3125 -2.3906 Q5.3125 -3.3906 4.7109 -3.9141 Q4.1094 -4.4375 2.9375 -4.4375 L2.3281 -4.4375 L2.3281 -5.0469 Q3.25 -5.0938 3.8828 -5.3984 Q4.5156 -5.7031 4.8203 -6.1719 Q5.125 -6.6406 5.125 -7.2344 Q5.125 -7.9844 4.7266 -8.3984 Q4.3281 -8.8125 3.5469 -8.8125 Q2.9062 -8.8125 2.5 -8.4609 Q2.0938 -8.1094 1.9062 -7.3906 L1.0938 -7.3906 Z" stroke="none"/></g><g text-rendering="optimizeLegibility" transform="translate(287.116,20)" color-rendering="optimizeQuality" color-interpolation="linearRGB" image-rendering="optimizeQuality"><path d="M7.2188 4.25 Q5.5625 4.25 4.5078 3.75 Q3.4531 3.25 2.8672 2.2344 Q2.2812 1.2188 2.0234 -0.4141 Q1.7656 -2.0469 1.7656 -4.8438 Q1.7656 -7.625 2.0234 -9.2656 Q2.2812 -10.9062 2.8672 -11.9453 Q3.4531 -12.9844 4.5078 -13.5 Q5.5625 -14.0156 7.2188 -14.0156 L7.2188 -13.2188 Q6.5312 -13.2188 6 -13.0938 Q5.4062 -12.9531 4.9844 -12.5625 Q4.5156 -12.1406 4.2344 -11.375 Q3.8906 -10.4688 3.7188 -8.9844 Q3.5469 -7.4062 3.5469 -4.9219 Q3.5469 -2.7188 3.6953 -1.1797 Q3.8438 0.3594 4.1875 1.3281 Q4.4531 2.1562 4.8594 2.6094 Q5.2188 3.0156 5.7188 3.2188 Q6.2969 3.4531 7.2188 3.4531 L7.2188 4.25 Z" stroke="none"/></g><g text-rendering="optimizeLegibility" transform="translate(296.3347,20)" color-rendering="optimizeQuality" color-interpolation="linearRGB" image-rendering="optimizeQuality"><path d="M10.7812 -8.0156 L7.9062 -8.0156 L7.875 -7.9375 Q9.2188 -6.9844 9.2188 -5.1875 Q9.2188 -3.1719 7.8438 -1.5078 Q6.4688 0.1562 4.0625 0.1562 Q2.5781 0.1562 1.7031 -0.7891 Q0.8281 -1.7344 0.8281 -3.3281 Q0.8281 -4.9375 1.4609 -6.2031 Q2.0938 -7.4688 3.1172 -8.1953 Q4.1406 -8.9219 5.2578 -9.1328 Q6.375 -9.3438 8.3281 -9.3438 L11.0469 -9.3438 L10.7812 -8.0156 ZM6.6875 -7.9844 Q5.4375 -7.9844 4.625 -7.5 Q3.8125 -7.0156 3.1641 -5.8516 Q2.5156 -4.6875 2.5156 -2.875 Q2.5156 -1.7969 3.0156 -1.2031 Q3.5156 -0.6094 4.2656 -0.6094 Q5.6094 -0.6094 6.5469 -2.1328 Q7.4844 -3.6562 7.4844 -5.5156 Q7.4844 -6.9688 6.6875 -7.9844 Z" stroke="none"/></g><g text-rendering="optimizeLegibility" transform="translate(307.6628,23.4219)" color-rendering="optimizeQuality" color-interpolation="linearRGB" image-rendering="optimizeQuality"><path d="M6.4688 -6.2031 Q5.1406 -4.7812 3.6875 -3.4062 L4.3281 -1.9062 Q4.5781 -1.3125 4.7266 -1.0234 Q4.875 -0.7344 5 -0.6094 Q5.125 -0.4844 5.25 -0.4297 Q5.375 -0.375 5.6406 -0.3281 L5.5625 0 L3.8594 0 L2.9062 -2.75 Q2.75 -2.6094 2.4766 -2.3516 Q2.2031 -2.0938 1.9531 -1.8047 Q1.7031 -1.5156 1.6016 -1.3359 Q1.5 -1.1562 1.4688 -1.0234 Q1.4375 -0.8906 1.4375 -0.7656 Q1.4375 -0.5781 1.5391 -0.4766 Q1.6406 -0.375 1.875 -0.3281 L1.7969 0 L-0.1562 0 L-0.2812 -0.3281 Q1.2188 -1.9375 2.6719 -3.2969 L2.0156 -4.8125 Q1.8125 -5.2812 1.6953 -5.5234 Q1.5781 -5.7656 1.4609 -5.8984 Q1.3438 -6.0312 1.1953 -6.1094 Q1.0469 -6.1875 0.7812 -6.2031 L0.8594 -6.5312 L2.5625 -6.5312 L3.4688 -3.9531 Q3.7969 -4.2656 4.1016 -4.5938 Q4.4062 -4.9219 4.5312 -5.1172 Q4.6562 -5.3125 4.7031 -5.4609 Q4.75 -5.6094 4.75 -5.7656 Q4.75 -6.1406 4.3125 -6.2031 L4.375 -6.5312 L6.3281 -6.5312 L6.4688 -6.2031 Z" stroke="none"/></g><g text-rendering="optimizeLegibility" transform="translate(314.9128,20)" color-rendering="optimizeQuality" color-interpolation="linearRGB" image-rendering="optimizeQuality"><path d="M6.25 -5.0469 L6.25 -1.3438 L4.8125 -1.3438 L4.8125 -5.0469 L1.2188 -5.0469 L1.2188 -6.3906 L4.8125 -6.3906 L4.8125 -10.0938 L6.25 -10.0938 L6.25 -6.3906 L9.8594 -6.3906 L9.8594 -5.0469 L6.25 -5.0469 Z" stroke="none"/></g><g text-rendering="optimizeLegibility" transform="translate(326.7722,20)" color-rendering="optimizeQuality" color-interpolation="linearRGB" image-rendering="optimizeQuality"><path d="M10.7812 -8.0156 L7.9062 -8.0156 L7.875 -7.9375 Q9.2188 -6.9844 9.2188 -5.1875 Q9.2188 -3.1719 7.8438 -1.5078 Q6.4688 0.1562 4.0625 0.1562 Q2.5781 0.1562 1.7031 -0.7891 Q0.8281 -1.7344 0.8281 -3.3281 Q0.8281 -4.9375 1.4609 -6.2031 Q2.0938 -7.4688 3.1172 -8.1953 Q4.1406 -8.9219 5.2578 -9.1328 Q6.375 -9.3438 8.3281 -9.3438 L11.0469 -9.3438 L10.7812 -8.0156 ZM6.6875 -7.9844 Q5.4375 -7.9844 4.625 -7.5 Q3.8125 -7.0156 3.1641 -5.8516 Q2.5156 -4.6875 2.5156 -2.875 Q2.5156 -1.7969 3.0156 -1.2031 Q3.5156 -0.6094 4.2656 -0.6094 Q5.6094 -0.6094 6.5469 -2.1328 Q7.4844 -3.6562 7.4844 -5.5156 Q7.4844 -6.9688 6.6875 -7.9844 Z" stroke="none"/></g><g text-rendering="optimizeLegibility" transform="translate(339.5378,21.9219)" color-rendering="optimizeQuality" color-interpolation="linearRGB" image-rendering="optimizeQuality"><path d="M1.2656 -5.0469 Q1.2031 -5.5625 1.1406 -5.7656 Q1.0781 -5.9688 0.9375 -6.0781 Q0.7969 -6.1875 0.5 -6.2031 L0.5625 -6.5312 L2.3281 -6.5312 L2.8438 -1.0938 Q5.1562 -4.2656 5.1562 -5.625 Q5.1562 -5.9531 5.0156 -6.0703 Q4.875 -6.1875 4.5469 -6.2031 L4.625 -6.5312 L6.3906 -6.5312 L6.5625 -6.1875 Q6.2031 -5.25 5.6406 -4.2266 Q5.0781 -3.2031 4.2656 -1.9922 Q3.4531 -0.7812 2.4531 0.5156 Q1.6875 1.5312 1.1562 2.0312 Q0.7656 2.4219 0.4219 2.625 Q0.0781 2.8281 -0.2344 2.9141 Q-0.5469 3 -0.9062 3 Q-1.0938 3 -1.3281 2.9609 Q-1.5625 2.9219 -1.7188 2.8594 L-1.4219 1.5938 L-0.8906 1.5938 Q-0.8906 1.8125 -0.7891 1.9531 Q-0.6875 2.0938 -0.4844 2.0938 Q-0.2656 2.0938 -0.1094 2.0469 Q0.0469 2 0.2188 1.8984 Q0.3906 1.7969 0.6406 1.5703 Q0.8906 1.3438 1.2109 0.9766 Q1.5312 0.6094 1.9219 0.0781 L1.2656 -5.0469 Z" stroke="none"/></g><g text-rendering="optimizeLegibility" transform="translate(346.8816,20)" color-rendering="optimizeQuality" color-interpolation="linearRGB" image-rendering="optimizeQuality"><path d="M6.25 -5.0469 L6.25 -1.3438 L4.8125 -1.3438 L4.8125 -5.0469 L1.2188 -5.0469 L1.2188 -6.3906 L4.8125 -6.3906 L4.8125 -10.0938 L6.25 -10.0938 L6.25 -6.3906 L9.8594 -6.3906 L9.8594 -5.0469 L6.25 -5.0469 Z" stroke="none"/></g><g text-rendering="optimizeLegibility" transform="translate(358.741,20)" color-rendering="optimizeQuality" color-interpolation="linearRGB" image-rendering="optimizeQuality"><path d="M10.7812 -8.0156 L7.9062 -8.0156 L7.875 -7.9375 Q9.2188 -6.9844 9.2188 -5.1875 Q9.2188 -3.1719 7.8438 -1.5078 Q6.4688 0.1562 4.0625 0.1562 Q2.5781 0.1562 1.7031 -0.7891 Q0.8281 -1.7344 0.8281 -3.3281 Q0.8281 -4.9375 1.4609 -6.2031 Q2.0938 -7.4688 3.1172 -8.1953 Q4.1406 -8.9219 5.2578 -9.1328 Q6.375 -9.3438 8.3281 -9.3438 L11.0469 -9.3438 L10.7812 -8.0156 ZM6.6875 -7.9844 Q5.4375 -7.9844 4.625 -7.5 Q3.8125 -7.0156 3.1641 -5.8516 Q2.5156 -4.6875 2.5156 -2.875 Q2.5156 -1.7969 3.0156 -1.2031 Q3.5156 -0.6094 4.2656 -0.6094 Q5.6094 -0.6094 6.5469 -2.1328 Q7.4844 -3.6562 7.4844 -5.5156 Q7.4844 -6.9688 6.6875 -7.9844 Z" stroke="none"/></g><g text-rendering="optimizeLegibility" transform="translate(369.8347,23.4219)" color-rendering="optimizeQuality" color-interpolation="linearRGB" image-rendering="optimizeQuality"><path d="M5.4531 -1.9219 L5.0312 0 L0.0781 0 L-0.0469 -0.3281 L3.6875 -4.6406 Q4.4844 -5.5469 4.8594 -5.9375 L4.8125 -5.9844 L3.2188 -5.9844 Q2.8594 -5.9844 2.6953 -5.9375 Q2.5312 -5.8906 2.3672 -5.7656 Q2.2031 -5.6406 2.0156 -5.4062 Q1.8281 -5.1719 1.5938 -4.7344 L0.9844 -4.7344 L1.3906 -6.5312 L6.25 -6.5312 L6.375 -6.1875 L1.4688 -0.6094 L1.5156 -0.5469 L3.0625 -0.5469 Q3.4688 -0.5469 3.6875 -0.5938 Q3.9062 -0.6406 4.0703 -0.7656 Q4.2344 -0.8906 4.4062 -1.1406 Q4.5781 -1.3906 4.8438 -1.9219 L5.4531 -1.9219 Z" stroke="none"/></g><g text-rendering="optimizeLegibility" transform="translate(377.7878,20)" color-rendering="optimizeQuality" color-interpolation="linearRGB" image-rendering="optimizeQuality"><path d="M0.4219 -14.0156 Q2.0781 -14.0156 3.1328 -13.5156 Q4.1875 -13.0156 4.7734 -12 Q5.3594 -10.9844 5.6172 -9.3516 Q5.875 -7.7188 5.875 -4.9219 Q5.875 -2.1562 5.6172 -0.5078 Q5.3594 1.1406 4.7734 2.1797 Q4.1875 3.2188 3.1328 3.7344 Q2.0781 4.25 0.4219 4.25 L0.4219 3.4531 Q1.1094 3.4531 1.625 3.3281 Q2.2344 3.1875 2.6406 2.7969 Q3.1094 2.375 3.4062 1.6094 Q3.75 0.7031 3.9219 -0.7812 Q4.0938 -2.3594 4.0938 -4.8438 Q4.0938 -7.0469 3.9453 -8.5859 Q3.7969 -10.125 3.4531 -11.0938 Q3.1875 -11.9219 2.7812 -12.375 Q2.4062 -12.7812 1.9219 -12.9844 Q1.3438 -13.2188 0.4219 -13.2188 L0.4219 -14.0156 Z" stroke="none"/></g></g></svg>