<?xml version="1.0" encoding="UTF-8" standalone="no"?><svg xmlns="http://www.w3.org/2000/svg" xmlns:xlink="http://www.w3.org/1999/xlink" stroke-dasharray="none" shape-rendering="auto" font-family="'Dialog'" width="383.812600" text-rendering="auto" fill-opacity="1" contentScriptType="text/ecmascript" color-interpolation="auto" color-rendering="auto" preserveAspectRatio="xMidYMid meet" font-size="12" fill="black" stroke="black" image-rendering="auto" stroke-miterlimit="10" zoomAndPan="magnify" version="1.0" stroke-linecap="square" stroke-linejoin="miter" contentStyleType="text/css" font-style="normal" height="22" stroke-width="1" stroke-dashoffset="0" font-weight="normal" stroke-opacity="1" y="-5.000000"><!--Converted from MathML using JEuclid--><defs id="genericDefs"/><g><g text-rendering="optimizeLegibility" transform="translate(0,17)" color-rendering="optimizeQuality" color-interpolation="linearRGB" image-rendering="optimizeQuality"><path d="M8.0938 -7.25 L7.2812 -7.25 Q7.125 -8.7188 5.4531 -8.7188 Q4.6406 -8.7188 4.0469 -8.2422 Q3.4531 -7.7656 3.4531 -7.0156 Q3.4531 -6.3125 3.9766 -5.9062 Q4.5 -5.5 5.4531 -5.5 L6.3125 -5.5 L6.125 -4.5625 L5.3438 -4.5625 Q4.1094 -4.5625 3.1953 -4 Q2.2812 -3.4375 2.2812 -2.4219 Q2.2812 -1.7188 2.8438 -1.3125 Q3.4062 -0.9062 4.2656 -0.9062 Q5.7344 -0.9062 7.2031 -1.8594 L7.6406 -1.2031 Q5.8438 0.1562 3.6094 0.1562 Q2.1406 0.1562 1.3125 -0.4766 Q0.4844 -1.1094 0.4844 -2.125 Q0.4844 -4.1562 3.375 -4.9688 L3.4062 -5.0625 Q1.7812 -5.5312 1.7812 -6.9219 Q1.7812 -8.1094 2.7422 -8.8047 Q3.7031 -9.5 5.4219 -9.5 Q7.0312 -9.5 8.4844 -8.9688 L8.0938 -7.25 Z" stroke="none"/></g><g text-rendering="optimizeLegibility" transform="translate(8.7656,21.4453)" color-rendering="optimizeQuality" color-interpolation="linearRGB" image-rendering="optimizeQuality"><path d="M6.4688 -6.2031 Q5.1406 -4.7812 3.6875 -3.4062 L4.3281 -1.9062 Q4.5781 -1.3125 4.7266 -1.0234 Q4.875 -0.7344 5 -0.6094 Q5.125 -0.4844 5.25 -0.4297 Q5.375 -0.375 5.6406 -0.3281 L5.5625 0 L3.8594 0 L2.9062 -2.75 Q2.75 -2.6094 2.4766 -2.3516 Q2.2031 -2.0938 1.9531 -1.8047 Q1.7031 -1.5156 1.6016 -1.3359 Q1.5 -1.1562 1.4688 -1.0234 Q1.4375 -0.8906 1.4375 -0.7656 Q1.4375 -0.5781 1.5391 -0.4766 Q1.6406 -0.375 1.875 -0.3281 L1.7969 0 L-0.1562 0 L-0.2812 -0.3281 Q1.2188 -1.9375 2.6719 -3.2969 L2.0156 -4.8125 Q1.8125 -5.2812 1.6953 -5.5234 Q1.5781 -5.7656 1.4609 -5.8984 Q1.3438 -6.0312 1.1953 -6.1094 Q1.0469 -6.1875 0.7812 -6.2031 L0.8594 -6.5312 L2.5625 -6.5312 L3.4688 -3.9531 Q3.7969 -4.2656 4.1016 -4.5938 Q4.4062 -4.9219 4.5312 -5.1172 Q4.6562 -5.3125 4.7031 -5.4609 Q4.75 -5.6094 4.75 -5.7656 Q4.75 -6.1406 4.3125 -6.2031 L4.375 -6.5312 L6.3281 -6.5312 L6.4688 -6.2031 Z" stroke="none"/></g><g text-rendering="optimizeLegibility" transform="translate(10.3281,9.8516)" color-rendering="optimizeQuality" color-interpolation="linearRGB" image-rendering="optimizeQuality"><path d="M1.7344 0.1094 Q1.5 1.2031 1.0938 1.8516 Q0.6875 2.5 0.1094 2.7812 Q-0.4688 3.0625 -1.2969 3.0625 Q-1.5938 3.0625 -1.8438 2.9844 L-1.6875 2.3906 Q-1.5156 2.4375 -1.2031 2.4375 Q-0.8438 2.4375 -0.6172 2.3438 Q-0.3906 2.25 -0.1953 2.0312 Q0 1.8125 0.1797 1.3984 Q0.3594 0.9844 0.5156 0.3125 L1.9062 -5.8438 L1.0781 -5.8438 L1.1562 -6.1875 Q1.4844 -6.2344 1.625 -6.2891 Q1.7656 -6.3438 1.8516 -6.4453 Q1.9375 -6.5469 2.0078 -6.7266 Q2.0781 -6.9062 2.2031 -7.3438 Q2.5625 -8.5781 3.3203 -9.1953 Q4.0781 -9.8125 5.25 -9.8125 Q5.9062 -9.8125 6.4062 -9.7031 L6.125 -8.5469 L5.5312 -8.5469 Q5.4375 -8.9375 5.2812 -9.1094 Q5.125 -9.2812 4.8281 -9.2812 Q4.4375 -9.2812 4.1641 -9.0703 Q3.8906 -8.8594 3.6953 -8.4297 Q3.5 -8 3.3438 -7.2812 L3.1719 -6.5312 L4.7344 -6.5312 L4.5781 -5.8438 L3.0156 -5.8438 L1.7344 0.1094 Z" stroke="none"/></g><g text-rendering="optimizeLegibility" transform="translate(18.4531,18.7656)" color-rendering="optimizeQuality" color-interpolation="linearRGB" image-rendering="optimizeQuality"><path d="M1.2656 -5.0469 Q1.2031 -5.5625 1.1406 -5.7656 Q1.0781 -5.9688 0.9375 -6.0781 Q0.7969 -6.1875 0.5 -6.2031 L0.5625 -6.5312 L2.3281 -6.5312 L2.8438 -1.0938 Q5.1562 -4.2656 5.1562 -5.625 Q5.1562 -5.9531 5.0156 -6.0703 Q4.875 -6.1875 4.5469 -6.2031 L4.625 -6.5312 L6.3906 -6.5312 L6.5625 -6.1875 Q6.2031 -5.25 5.6406 -4.2266 Q5.0781 -3.2031 4.2656 -1.9922 Q3.4531 -0.7812 2.4531 0.5156 Q1.6875 1.5312 1.1562 2.0312 Q0.7656 2.4219 0.4219 2.625 Q0.0781 2.8281 -0.2344 2.9141 Q-0.5469 3 -0.9062 3 Q-1.0938 3 -1.3281 2.9609 Q-1.5625 2.9219 -1.7188 2.8594 L-1.4219 1.5938 L-0.8906 1.5938 Q-0.8906 1.8125 -0.7891 1.9531 Q-0.6875 2.0938 -0.4844 2.0938 Q-0.2656 2.0938 -0.1094 2.0469 Q0.0469 2 0.2188 1.8984 Q0.3906 1.7969 0.6406 1.5703 Q0.8906 1.3438 1.2109 0.9766 Q1.5312 0.6094 1.9219 0.0781 L1.2656 -5.0469 Z" stroke="none"/></g><g text-rendering="optimizeLegibility" transform="translate(25.7969,17)" color-rendering="optimizeQuality" color-interpolation="linearRGB" image-rendering="optimizeQuality"><path d="M1.2188 -7.0625 L1.2188 -8.4219 L9.8594 -8.4219 L9.8594 -7.0625 L1.2188 -7.0625 ZM1.2188 -3.0156 L1.2188 -4.3594 L9.8594 -4.3594 L9.8594 -3.0156 L1.2188 -3.0156 Z" stroke="none"/></g><g text-rendering="optimizeLegibility" transform="translate(37.6562,17)" color-rendering="optimizeQuality" color-interpolation="linearRGB" image-rendering="optimizeQuality"><path d="M5.9688 -8.3438 L3.6406 -8.3438 L3.6406 -2.4375 Q3.6406 -1.7812 3.7031 -1.4531 Q3.7656 -1.125 3.8828 -0.9531 Q4 -0.7812 4.2031 -0.6797 Q4.4062 -0.5781 4.8438 -0.4844 L4.8438 0 L0.8438 0 L0.8438 -0.4844 Q1.2812 -0.5938 1.4688 -0.7031 Q1.6562 -0.8125 1.7578 -0.9766 Q1.8594 -1.1406 1.9062 -1.4531 Q1.9531 -1.7656 1.9531 -2.4375 L1.9531 -8.3438 L0.7656 -8.3438 L0.7656 -8.8438 Q1.1406 -8.9062 1.2656 -8.9375 Q1.3906 -8.9688 1.5 -9.0391 Q1.6094 -9.1094 1.6953 -9.2344 Q1.7812 -9.3594 1.8438 -9.6094 Q1.9062 -9.8594 1.9375 -10.3125 Q2.0312 -11.375 2.3281 -12.0391 Q2.625 -12.7031 3.1953 -13.1719 Q3.7656 -13.6406 4.4141 -13.8359 Q5.0625 -14.0312 5.9531 -14.0312 Q6.7188 -14.0312 7.25 -13.9219 L7.25 -12.1562 L6.2969 -12.1562 Q6.1094 -12.7188 5.8594 -12.9609 Q5.6094 -13.2031 5.1562 -13.2031 Q4.8281 -13.2031 4.6094 -13.1172 Q4.3906 -13.0312 4.2109 -12.8438 Q4.0312 -12.6562 3.8984 -12.3438 Q3.7656 -12.0312 3.7031 -11.5703 Q3.6406 -11.1094 3.6406 -10.3594 L3.6406 -9.3438 L5.9688 -9.3438 L5.9688 -8.3438 ZM12.5938 -1.3906 L12.4531 -1.4375 Q11.5938 -0.5625 10.8516 -0.2031 Q10.1094 0.1562 9.2656 0.1562 Q8.5156 0.1562 7.9531 -0.1328 Q7.3906 -0.4219 7.0859 -0.9453 Q6.7812 -1.4688 6.7812 -2.1562 Q6.7812 -3.5781 8.1953 -4.3516 Q9.6094 -5.125 12.4219 -5.25 L12.4219 -5.8906 Q12.4219 -6.9062 12.2266 -7.4922 Q12.0312 -8.0781 11.6172 -8.3516 Q11.2031 -8.625 10.5 -8.625 Q9.7344 -8.625 9.2656 -8.2266 Q8.7969 -7.8281 8.5625 -7.0156 L7.2969 -7.0156 L7.2969 -8.2969 Q8.2344 -8.7812 8.8594 -9.0078 Q9.4844 -9.2344 10.1094 -9.3672 Q10.7344 -9.5 11.375 -9.5 Q12.3438 -9.5 12.9297 -9.1953 Q13.5156 -8.8906 13.8047 -8.2578 Q14.0938 -7.625 14.0938 -6.3438 L14.0938 -2.9375 Q14.0938 -2.2188 14.1016 -1.9219 Q14.1094 -1.625 14.1641 -1.3672 Q14.2188 -1.1094 14.3125 -0.9609 Q14.4062 -0.8125 14.6016 -0.7031 Q14.7969 -0.5938 15.2188 -0.4844 L15.2188 0 L12.5469 0 L12.5938 -1.3906 ZM12.4219 -4.4531 Q10.4375 -4.4375 9.4531 -3.9297 Q8.4688 -3.4219 8.4688 -2.3906 Q8.4688 -1.8438 8.6953 -1.5156 Q8.9219 -1.1875 9.2656 -1.0703 Q9.6094 -0.9531 10.0781 -0.9531 Q10.7344 -0.9531 11.2812 -1.2734 Q11.8281 -1.5938 12.125 -2.0938 Q12.4219 -2.5938 12.4219 -3.0781 L12.4219 -4.4531 ZM19.7344 -13.1719 L19.7344 -11.2656 L17.9375 -11.2656 L17.9375 -13.1719 L19.7344 -13.1719 ZM16.9531 -0.4844 Q17.3281 -0.5938 17.4922 -0.6797 Q17.6562 -0.7656 17.7656 -0.9219 Q17.875 -1.0781 17.9375 -1.4062 Q18 -1.7344 18 -2.4062 L18 -6.6719 Q18 -7.2969 17.9844 -7.6797 Q17.9688 -8.0625 17.8516 -8.2891 Q17.7344 -8.5156 17.4922 -8.625 Q17.25 -8.7344 16.8125 -8.8125 L16.8125 -9.3438 L19.0938 -9.4219 L19.6875 -9.4219 L19.6875 -2.4375 Q19.6875 -1.6094 19.7656 -1.2812 Q19.8438 -0.9531 20.0625 -0.7812 Q20.2812 -0.6094 20.7812 -0.4844 L20.7812 0 L16.9531 0 L16.9531 -0.4844 ZM25.5625 -2.4375 Q25.5625 -1.6094 25.6406 -1.2812 Q25.7188 -0.9531 25.9375 -0.7812 Q26.1562 -0.6094 26.6562 -0.4844 L26.6562 0 L22.7656 0 L22.7656 -0.4844 Q23.2656 -0.6094 23.4531 -0.7422 Q23.6406 -0.875 23.7266 -1.0703 Q23.8125 -1.2656 23.8438 -1.5938 Q23.875 -1.9219 23.875 -2.4375 L23.875 -10.6094 Q23.875 -11.5469 23.8594 -11.9219 Q23.8438 -12.2969 23.7812 -12.5547 Q23.7188 -12.8125 23.6094 -12.9609 Q23.5 -13.1094 23.3047 -13.1953 Q23.1094 -13.2812 22.6094 -13.375 L22.6094 -13.875 L24.9688 -13.9688 L25.5625 -13.9688 L25.5625 -2.4375 ZM27.7188 -9.3438 L30.5 -9.3438 L30.5 -4.3594 Q30.5 -3.2188 30.5859 -2.625 Q30.6719 -2.0312 30.8516 -1.7266 Q31.0312 -1.4219 31.3516 -1.2188 Q31.6719 -1.0156 32.2344 -1.0156 Q32.6094 -1.0156 32.9531 -1.1641 Q33.2969 -1.3125 33.7109 -1.6797 Q34.125 -2.0469 34.3047 -2.4062 Q34.4844 -2.7656 34.4844 -3.25 L34.4844 -6.9062 Q34.4844 -7.4688 34.4609 -7.75 Q34.4375 -8.0312 34.3672 -8.2031 Q34.2969 -8.375 34.2031 -8.4766 Q34.1094 -8.5781 33.9375 -8.6719 Q33.7656 -8.7656 33.3906 -8.8594 L33.3906 -9.3438 L36.1719 -9.3438 L36.1719 -2.6719 Q36.1719 -1.9219 36.2031 -1.5859 Q36.2344 -1.25 36.3281 -1.0547 Q36.4219 -0.8594 36.625 -0.7344 Q36.8281 -0.6094 37.3594 -0.5156 L37.3594 0 L35.125 0.0938 L34.5312 0.0938 L34.5938 -1.5 L34.4375 -1.5469 Q33.625 -0.6719 32.8906 -0.2578 Q32.1562 0.1562 31.4219 0.1562 Q30.5312 0.1562 29.9531 -0.1953 Q29.375 -0.5469 29.0938 -1.2422 Q28.8125 -1.9375 28.8125 -3.2188 L28.8125 -6.9062 Q28.8125 -7.7188 28.75 -8.0312 Q28.6875 -8.3438 28.5 -8.5234 Q28.3125 -8.7031 27.7188 -8.8594 L27.7188 -9.3438 ZM41.5781 -7.7188 L41.7188 -7.6875 Q42.2656 -8.3438 42.7188 -8.7188 Q43.1719 -9.0938 43.7031 -9.2969 Q44.2344 -9.5 44.9219 -9.5 Q45.4844 -9.5 45.9375 -9.4375 L45.9375 -7.2031 L44.8438 -7.2031 Q44.6094 -7.7188 44.3438 -7.9609 Q44.0781 -8.2031 43.6094 -8.2031 Q43.2656 -8.2031 42.9219 -8 Q42.5781 -7.7969 42.25 -7.4062 Q41.9219 -7.0156 41.8047 -6.6719 Q41.6875 -6.3281 41.6875 -5.8594 L41.6875 -2.4375 Q41.6875 -1.5469 41.7891 -1.2109 Q41.8906 -0.875 42.1406 -0.7188 Q42.3906 -0.5625 42.8906 -0.4844 L42.8906 0 L38.9531 0 L38.9531 -0.4844 Q39.3281 -0.5938 39.4922 -0.6797 Q39.6562 -0.7656 39.7734 -0.9219 Q39.8906 -1.0781 39.9453 -1.4062 Q40 -1.7344 40 -2.4062 L40 -6.6719 Q40 -7.2969 39.9844 -7.6797 Q39.9688 -8.0625 39.8516 -8.2891 Q39.7344 -8.5156 39.4922 -8.625 Q39.25 -8.7344 38.8125 -8.8125 L38.8125 -9.3281 L41.0938 -9.4219 L41.6875 -9.4219 L41.5781 -7.7188 ZM54.75 -1.6562 Q54.125 -1 53.6016 -0.6328 Q53.0781 -0.2656 52.4531 -0.0547 Q51.8281 0.1562 51.0781 0.1562 Q49.0625 0.1562 48.0391 -1.0469 Q47.0156 -2.25 47.0156 -4.6094 Q47.0156 -6.0625 47.5391 -7.1797 Q48.0625 -8.2969 49.0312 -8.8984 Q50 -9.5 51.25 -9.5 Q52.2344 -9.5 52.9297 -9.1875 Q53.625 -8.875 54.0391 -8.3359 Q54.4531 -7.7969 54.6875 -6.9688 Q54.9219 -6.1406 54.9531 -4.8125 L48.7969 -4.8125 L48.7969 -4.6406 Q48.7969 -3.4844 49.0547 -2.7031 Q49.3125 -1.9219 49.9062 -1.4766 Q50.5 -1.0312 51.4375 -1.0312 Q52.2344 -1.0312 52.875 -1.3281 Q53.5156 -1.625 54.1562 -2.2969 L54.75 -1.6562 ZM53.1094 -5.625 Q53.0469 -6.6875 52.8438 -7.3516 Q52.6406 -8.0156 52.2344 -8.375 Q51.8281 -8.7344 51.1562 -8.7344 Q50.1562 -8.7344 49.5547 -7.9297 Q48.9531 -7.125 48.8438 -5.625 L53.1094 -5.625 ZM67.4844 -7.2031 L66.5469 -7.2031 Q66.3438 -7.7812 66.0469 -8.1172 Q65.75 -8.4531 65.3828 -8.5938 Q65.0156 -8.7344 64.4688 -8.7344 Q63.6875 -8.7344 63.2266 -8.3672 Q62.7656 -8 62.7656 -7.3594 Q62.7656 -6.9219 62.9531 -6.625 Q63.1406 -6.3281 63.5312 -6.0781 Q63.9219 -5.8281 64.9062 -5.4062 Q65.9062 -4.9688 66.4453 -4.6094 Q66.9844 -4.25 67.2891 -3.7734 Q67.5938 -3.2969 67.5938 -2.625 Q67.5938 -1.8594 67.3359 -1.3281 Q67.0781 -0.7969 66.5938 -0.4688 Q66.1094 -0.1406 65.4531 0.0078 Q64.7969 0.1562 64.0156 0.1562 Q63.1875 0.1562 62.4219 0.0312 Q61.6562 -0.0938 60.9219 -0.2812 L60.9219 -2.3281 L61.875 -2.3281 Q62.1406 -1.4219 62.6562 -1.0156 Q63.1719 -0.6094 64.0781 -0.6094 Q64.4375 -0.6094 64.7734 -0.6875 Q65.1094 -0.7656 65.375 -0.9375 Q65.6406 -1.1094 65.7969 -1.3984 Q65.9531 -1.6875 65.9531 -2.125 Q65.9531 -2.625 65.7578 -2.9375 Q65.5625 -3.25 65.1484 -3.5078 Q64.7344 -3.7656 63.7031 -4.2031 Q62.8125 -4.5781 62.2734 -4.9297 Q61.7344 -5.2812 61.4297 -5.7578 Q61.125 -6.2344 61.125 -6.8906 Q61.125 -7.7031 61.5625 -8.2891 Q62 -8.875 62.8203 -9.1875 Q63.6406 -9.5 64.7344 -9.5 Q65.375 -9.5 65.9766 -9.4375 Q66.5781 -9.375 67.4844 -9.1875 L67.4844 -7.2031 ZM72.5625 -7.7969 L72.6094 -7.7969 Q73.3594 -8.5625 73.8047 -8.875 Q74.25 -9.1875 74.6875 -9.3438 Q75.125 -9.5 75.625 -9.5 Q76.1562 -9.5 76.5781 -9.3672 Q77 -9.2344 77.3203 -8.9766 Q77.6406 -8.7188 77.8359 -8.3438 Q78.0312 -7.9688 78.1328 -7.4453 Q78.2344 -6.9219 78.2344 -6.125 L78.2344 -2.4375 Q78.2344 -1.5938 78.3047 -1.2891 Q78.375 -0.9844 78.5625 -0.8125 Q78.75 -0.6406 79.3281 -0.4844 L79.3281 0 L75.4844 0 L75.4844 -0.4844 Q75.8594 -0.5938 76.0312 -0.6797 Q76.2031 -0.7656 76.3125 -0.9219 Q76.4219 -1.0781 76.4844 -1.4062 Q76.5469 -1.7344 76.5469 -2.4062 L76.5469 -4.9688 Q76.5469 -6.2656 76.4141 -6.9531 Q76.2812 -7.6406 75.8984 -7.9844 Q75.5156 -8.3281 74.8281 -8.3281 Q74.4375 -8.3281 74.125 -8.1875 Q73.8125 -8.0469 73.3984 -7.6953 Q72.9844 -7.3438 72.7734 -6.9766 Q72.5625 -6.6094 72.5625 -6.1875 L72.5625 -2.4375 Q72.5625 -1.7812 72.6016 -1.5 Q72.6406 -1.2188 72.7344 -1.0234 Q72.8281 -0.8281 73.0312 -0.7109 Q73.2344 -0.5938 73.6562 -0.4844 L73.6562 0 L69.7812 0 L69.7812 -0.4844 Q70.2188 -0.5938 70.3984 -0.7031 Q70.5781 -0.8125 70.6797 -0.9766 Q70.7812 -1.1406 70.8359 -1.4531 Q70.8906 -1.7656 70.8906 -2.4375 L70.8906 -10.6094 Q70.8906 -11.5469 70.875 -11.9219 Q70.8594 -12.2969 70.7969 -12.5547 Q70.7344 -12.8125 70.6172 -12.9609 Q70.5 -13.1094 70.3125 -13.1953 Q70.125 -13.2812 69.625 -13.375 L69.625 -13.875 L71.9844 -13.9688 L72.5625 -13.9688 L72.5625 -7.7969 ZM88.75 -1.6562 Q88.125 -1 87.6016 -0.6328 Q87.0781 -0.2656 86.4531 -0.0547 Q85.8281 0.1562 85.0781 0.1562 Q83.0625 0.1562 82.0391 -1.0469 Q81.0156 -2.25 81.0156 -4.6094 Q81.0156 -6.0625 81.5391 -7.1797 Q82.0625 -8.2969 83.0312 -8.8984 Q84 -9.5 85.25 -9.5 Q86.2344 -9.5 86.9297 -9.1875 Q87.625 -8.875 88.0391 -8.3359 Q88.4531 -7.7969 88.6875 -6.9688 Q88.9219 -6.1406 88.9531 -4.8125 L82.7969 -4.8125 L82.7969 -4.6406 Q82.7969 -3.4844 83.0547 -2.7031 Q83.3125 -1.9219 83.9062 -1.4766 Q84.5 -1.0312 85.4375 -1.0312 Q86.2344 -1.0312 86.875 -1.3281 Q87.5156 -1.625 88.1562 -2.2969 L88.75 -1.6562 ZM87.1094 -5.625 Q87.0469 -6.6875 86.8438 -7.3516 Q86.6406 -8.0156 86.2344 -8.375 Q85.8281 -8.7344 85.1562 -8.7344 Q84.1562 -8.7344 83.5547 -7.9297 Q82.9531 -7.125 82.8438 -5.625 L87.1094 -5.625 ZM96.5938 -1.3906 L96.4531 -1.4375 Q95.5938 -0.5625 94.8516 -0.2031 Q94.1094 0.1562 93.2656 0.1562 Q92.5156 0.1562 91.9531 -0.1328 Q91.3906 -0.4219 91.0859 -0.9453 Q90.7812 -1.4688 90.7812 -2.1562 Q90.7812 -3.5781 92.1953 -4.3516 Q93.6094 -5.125 96.4219 -5.25 L96.4219 -5.8906 Q96.4219 -6.9062 96.2266 -7.4922 Q96.0312 -8.0781 95.6172 -8.3516 Q95.2031 -8.625 94.5 -8.625 Q93.7344 -8.625 93.2656 -8.2266 Q92.7969 -7.8281 92.5625 -7.0156 L91.2969 -7.0156 L91.2969 -8.2969 Q92.2344 -8.7812 92.8594 -9.0078 Q93.4844 -9.2344 94.1094 -9.3672 Q94.7344 -9.5 95.375 -9.5 Q96.3438 -9.5 96.9297 -9.1953 Q97.5156 -8.8906 97.8047 -8.2578 Q98.0938 -7.625 98.0938 -6.3438 L98.0938 -2.9375 Q98.0938 -2.2188 98.1016 -1.9219 Q98.1094 -1.625 98.1641 -1.3672 Q98.2188 -1.1094 98.3125 -0.9609 Q98.4062 -0.8125 98.6016 -0.7031 Q98.7969 -0.5938 99.2188 -0.4844 L99.2188 0 L96.5469 0 L96.5938 -1.3906 ZM96.4219 -4.4531 Q94.4375 -4.4375 93.4531 -3.9297 Q92.4688 -3.4219 92.4688 -2.3906 Q92.4688 -1.8438 92.6953 -1.5156 Q92.9219 -1.1875 93.2656 -1.0703 Q93.6094 -0.9531 94.0781 -0.9531 Q94.7344 -0.9531 95.2812 -1.2734 Q95.8281 -1.5938 96.125 -2.0938 Q96.4219 -2.5938 96.4219 -3.0781 L96.4219 -4.4531 ZM103.5781 -7.7188 L103.7188 -7.6875 Q104.2656 -8.3438 104.7188 -8.7188 Q105.1719 -9.0938 105.7031 -9.2969 Q106.2344 -9.5 106.9219 -9.5 Q107.4844 -9.5 107.9375 -9.4375 L107.9375 -7.2031 L106.8438 -7.2031 Q106.6094 -7.7188 106.3438 -7.9609 Q106.0781 -8.2031 105.6094 -8.2031 Q105.2656 -8.2031 104.9219 -8 Q104.5781 -7.7969 104.25 -7.4062 Q103.9219 -7.0156 103.8047 -6.6719 Q103.6875 -6.3281 103.6875 -5.8594 L103.6875 -2.4375 Q103.6875 -1.5469 103.7891 -1.2109 Q103.8906 -0.875 104.1406 -0.7188 Q104.3906 -0.5625 104.8906 -0.4844 L104.8906 0 L100.9531 0 L100.9531 -0.4844 Q101.3281 -0.5938 101.4922 -0.6797 Q101.6562 -0.7656 101.7734 -0.9219 Q101.8906 -1.0781 101.9453 -1.4062 Q102 -1.7344 102 -2.4062 L102 -6.6719 Q102 -7.2969 101.9844 -7.6797 Q101.9688 -8.0625 101.8516 -8.2891 Q101.7344 -8.5156 101.4922 -8.625 Q101.25 -8.7344 100.8125 -8.8125 L100.8125 -9.3281 L103.0938 -9.4219 L103.6875 -9.4219 L103.5781 -7.7188 ZM119.4844 -7.2031 L118.5469 -7.2031 Q118.3438 -7.7812 118.0469 -8.1172 Q117.75 -8.4531 117.3828 -8.5938 Q117.0156 -8.7344 116.4688 -8.7344 Q115.6875 -8.7344 115.2266 -8.3672 Q114.7656 -8 114.7656 -7.3594 Q114.7656 -6.9219 114.9531 -6.625 Q115.1406 -6.3281 115.5312 -6.0781 Q115.9219 -5.8281 116.9062 -5.4062 Q117.9062 -4.9688 118.4453 -4.6094 Q118.9844 -4.25 119.2891 -3.7734 Q119.5938 -3.2969 119.5938 -2.625 Q119.5938 -1.8594 119.3359 -1.3281 Q119.0781 -0.7969 118.5938 -0.4688 Q118.1094 -0.1406 117.4531 0.0078 Q116.7969 0.1562 116.0156 0.1562 Q115.1875 0.1562 114.4219 0.0312 Q113.6562 -0.0938 112.9219 -0.2812 L112.9219 -2.3281 L113.875 -2.3281 Q114.1406 -1.4219 114.6562 -1.0156 Q115.1719 -0.6094 116.0781 -0.6094 Q116.4375 -0.6094 116.7734 -0.6875 Q117.1094 -0.7656 117.375 -0.9375 Q117.6406 -1.1094 117.7969 -1.3984 Q117.9531 -1.6875 117.9531 -2.125 Q117.9531 -2.625 117.7578 -2.9375 Q117.5625 -3.25 117.1484 -3.5078 Q116.7344 -3.7656 115.7031 -4.2031 Q114.8125 -4.5781 114.2734 -4.9297 Q113.7344 -5.2812 113.4297 -5.7578 Q113.125 -6.2344 113.125 -6.8906 Q113.125 -7.7031 113.5625 -8.2891 Q114 -8.875 114.8203 -9.1875 Q115.6406 -9.5 116.7344 -9.5 Q117.375 -9.5 117.9766 -9.4375 Q118.5781 -9.375 119.4844 -9.1875 L119.4844 -7.2031 ZM121.3594 -8.8438 Q121.8438 -8.9219 122.1484 -9.1172 Q122.4531 -9.3125 122.625 -9.625 Q122.7969 -9.9375 122.8984 -10.3984 Q123 -10.8594 123.0938 -11.75 L124.4844 -11.75 L124.4844 -9.3438 L127.6406 -9.3438 L127.6406 -8.3438 L124.4844 -8.3438 L124.4844 -4 Q124.4844 -3.0625 124.5625 -2.5 Q124.6406 -1.9375 124.8594 -1.6172 Q125.0781 -1.2969 125.3516 -1.1641 Q125.625 -1.0312 126.0469 -1.0312 Q126.4375 -1.0312 126.7812 -1.1875 Q127.125 -1.3438 127.4531 -1.6562 L127.8906 -1.125 Q127.2031 -0.4531 126.5859 -0.1484 Q125.9688 0.1562 125.2969 0.1562 Q124.0312 0.1562 123.4219 -0.5938 Q122.8125 -1.3438 122.8125 -2.9375 L122.8125 -8.3438 L121.3594 -8.3438 L121.3594 -8.8438 ZM131.5781 -7.7188 L131.7188 -7.6875 Q132.2656 -8.3438 132.7188 -8.7188 Q133.1719 -9.0938 133.7031 -9.2969 Q134.2344 -9.5 134.9219 -9.5 Q135.4844 -9.5 135.9375 -9.4375 L135.9375 -7.2031 L134.8438 -7.2031 Q134.6094 -7.7188 134.3438 -7.9609 Q134.0781 -8.2031 133.6094 -8.2031 Q133.2656 -8.2031 132.9219 -8 Q132.5781 -7.7969 132.25 -7.4062 Q131.9219 -7.0156 131.8047 -6.6719 Q131.6875 -6.3281 131.6875 -5.8594 L131.6875 -2.4375 Q131.6875 -1.5469 131.7891 -1.2109 Q131.8906 -0.875 132.1406 -0.7188 Q132.3906 -0.5625 132.8906 -0.4844 L132.8906 0 L128.9531 0 L128.9531 -0.4844 Q129.3281 -0.5938 129.4922 -0.6797 Q129.6562 -0.7656 129.7734 -0.9219 Q129.8906 -1.0781 129.9453 -1.4062 Q130 -1.7344 130 -2.4062 L130 -6.6719 Q130 -7.2969 129.9844 -7.6797 Q129.9688 -8.0625 129.8516 -8.2891 Q129.7344 -8.5156 129.4922 -8.625 Q129.25 -8.7344 128.8125 -8.8125 L128.8125 -9.3281 L131.0938 -9.4219 L131.6875 -9.4219 L131.5781 -7.7188 ZM142.5938 -1.3906 L142.4531 -1.4375 Q141.5938 -0.5625 140.8516 -0.2031 Q140.1094 0.1562 139.2656 0.1562 Q138.5156 0.1562 137.9531 -0.1328 Q137.3906 -0.4219 137.0859 -0.9453 Q136.7812 -1.4688 136.7812 -2.1562 Q136.7812 -3.5781 138.1953 -4.3516 Q139.6094 -5.125 142.4219 -5.25 L142.4219 -5.8906 Q142.4219 -6.9062 142.2266 -7.4922 Q142.0312 -8.0781 141.6172 -8.3516 Q141.2031 -8.625 140.5 -8.625 Q139.7344 -8.625 139.2656 -8.2266 Q138.7969 -7.8281 138.5625 -7.0156 L137.2969 -7.0156 L137.2969 -8.2969 Q138.2344 -8.7812 138.8594 -9.0078 Q139.4844 -9.2344 140.1094 -9.3672 Q140.7344 -9.5 141.375 -9.5 Q142.3438 -9.5 142.9297 -9.1953 Q143.5156 -8.8906 143.8047 -8.2578 Q144.0938 -7.625 144.0938 -6.3438 L144.0938 -2.9375 Q144.0938 -2.2188 144.1016 -1.9219 Q144.1094 -1.625 144.1641 -1.3672 Q144.2188 -1.1094 144.3125 -0.9609 Q144.4062 -0.8125 144.6016 -0.7031 Q144.7969 -0.5938 145.2188 -0.4844 L145.2188 0 L142.5469 0 L142.5938 -1.3906 ZM142.4219 -4.4531 Q140.4375 -4.4375 139.4531 -3.9297 Q138.4688 -3.4219 138.4688 -2.3906 Q138.4688 -1.8438 138.6953 -1.5156 Q138.9219 -1.1875 139.2656 -1.0703 Q139.6094 -0.9531 140.0781 -0.9531 Q140.7344 -0.9531 141.2812 -1.2734 Q141.8281 -1.5938 142.125 -2.0938 Q142.4219 -2.5938 142.4219 -3.0781 L142.4219 -4.4531 ZM149.7344 -13.1719 L149.7344 -11.2656 L147.9375 -11.2656 L147.9375 -13.1719 L149.7344 -13.1719 ZM146.9531 -0.4844 Q147.3281 -0.5938 147.4922 -0.6797 Q147.6562 -0.7656 147.7656 -0.9219 Q147.875 -1.0781 147.9375 -1.4062 Q148 -1.7344 148 -2.4062 L148 -6.6719 Q148 -7.2969 147.9844 -7.6797 Q147.9688 -8.0625 147.8516 -8.2891 Q147.7344 -8.5156 147.4922 -8.625 Q147.25 -8.7344 146.8125 -8.8125 L146.8125 -9.3438 L149.0938 -9.4219 L149.6875 -9.4219 L149.6875 -2.4375 Q149.6875 -1.6094 149.7656 -1.2812 Q149.8438 -0.9531 150.0625 -0.7812 Q150.2812 -0.6094 150.7812 -0.4844 L150.7812 0 L146.9531 0 L146.9531 -0.4844 ZM162.4531 0 L158.6094 0 L158.6094 -0.4844 Q159 -0.5938 159.1641 -0.6797 Q159.3281 -0.7656 159.4375 -0.9219 Q159.5469 -1.0781 159.6094 -1.4062 Q159.6719 -1.7344 159.6719 -2.4062 L159.6719 -4.9688 Q159.6719 -5.6406 159.6328 -6.2031 Q159.5938 -6.7656 159.5 -7.1172 Q159.4062 -7.4688 159.2812 -7.6719 Q159.1562 -7.875 158.9688 -8.0156 Q158.7812 -8.1562 158.5469 -8.2422 Q158.3125 -8.3281 157.9375 -8.3281 Q157.5625 -8.3281 157.2188 -8.1719 Q156.875 -8.0156 156.4609 -7.6484 Q156.0469 -7.2812 155.8672 -6.9141 Q155.6875 -6.5469 155.6875 -6.0781 L155.6875 -2.4375 Q155.6875 -1.6094 155.7656 -1.2812 Q155.8438 -0.9531 156.0625 -0.7812 Q156.2812 -0.6094 156.7812 -0.4844 L156.7812 0 L152.9531 0 L152.9531 -0.4844 Q153.3281 -0.5938 153.4922 -0.6797 Q153.6562 -0.7656 153.7656 -0.9219 Q153.875 -1.0781 153.9375 -1.4062 Q154 -1.7344 154 -2.4062 L154 -6.6719 Q154 -7.2969 153.9844 -7.6797 Q153.9688 -8.0625 153.8516 -8.2891 Q153.7344 -8.5156 153.4922 -8.625 Q153.25 -8.7344 152.8125 -8.8125 L152.8125 -9.3438 L155.0938 -9.4219 L155.6875 -9.4219 L155.5781 -7.8281 L155.7188 -7.7969 Q156.4375 -8.5312 156.8828 -8.8438 Q157.3281 -9.1562 157.7812 -9.3281 Q158.2344 -9.5 158.75 -9.5 Q159.2812 -9.5 159.6953 -9.375 Q160.1094 -9.25 160.4219 -8.9922 Q160.7344 -8.7344 160.9453 -8.3594 Q161.1562 -7.9844 161.2578 -7.4609 Q161.3594 -6.9375 161.3594 -6.125 L161.3594 -2.4375 Q161.3594 -1.7656 161.3984 -1.4609 Q161.4375 -1.1562 161.5312 -0.9922 Q161.625 -0.8281 161.8125 -0.7188 Q162 -0.6094 162.4531 -0.4844 L162.4531 0 ZM170.7344 -13.1719 L170.7344 -11.2656 L168.9375 -11.2656 L168.9375 -13.1719 L170.7344 -13.1719 ZM167.9531 -0.4844 Q168.3281 -0.5938 168.4922 -0.6797 Q168.6562 -0.7656 168.7656 -0.9219 Q168.875 -1.0781 168.9375 -1.4062 Q169 -1.7344 169 -2.4062 L169 -6.6719 Q169 -7.2969 168.9844 -7.6797 Q168.9688 -8.0625 168.8516 -8.2891 Q168.7344 -8.5156 168.4922 -8.625 Q168.25 -8.7344 167.8125 -8.8125 L167.8125 -9.3438 L170.0938 -9.4219 L170.6875 -9.4219 L170.6875 -2.4375 Q170.6875 -1.6094 170.7656 -1.2812 Q170.8438 -0.9531 171.0625 -0.7812 Q171.2812 -0.6094 171.7812 -0.4844 L171.7812 0 L167.9531 0 L167.9531 -0.4844 ZM183.4531 0 L179.6094 0 L179.6094 -0.4844 Q180 -0.5938 180.1641 -0.6797 Q180.3281 -0.7656 180.4375 -0.9219 Q180.5469 -1.0781 180.6094 -1.4062 Q180.6719 -1.7344 180.6719 -2.4062 L180.6719 -4.9688 Q180.6719 -5.6406 180.6328 -6.2031 Q180.5938 -6.7656 180.5 -7.1172 Q180.4062 -7.4688 180.2812 -7.6719 Q180.1562 -7.875 179.9688 -8.0156 Q179.7812 -8.1562 179.5469 -8.2422 Q179.3125 -8.3281 178.9375 -8.3281 Q178.5625 -8.3281 178.2188 -8.1719 Q177.875 -8.0156 177.4609 -7.6484 Q177.0469 -7.2812 176.8672 -6.9141 Q176.6875 -6.5469 176.6875 -6.0781 L176.6875 -2.4375 Q176.6875 -1.6094 176.7656 -1.2812 Q176.8438 -0.9531 177.0625 -0.7812 Q177.2812 -0.6094 177.7812 -0.4844 L177.7812 0 L173.9531 0 L173.9531 -0.4844 Q174.3281 -0.5938 174.4922 -0.6797 Q174.6562 -0.7656 174.7656 -0.9219 Q174.875 -1.0781 174.9375 -1.4062 Q175 -1.7344 175 -2.4062 L175 -6.6719 Q175 -7.2969 174.9844 -7.6797 Q174.9688 -8.0625 174.8516 -8.2891 Q174.7344 -8.5156 174.4922 -8.625 Q174.25 -8.7344 173.8125 -8.8125 L173.8125 -9.3438 L176.0938 -9.4219 L176.6875 -9.4219 L176.5781 -7.8281 L176.7188 -7.7969 Q177.4375 -8.5312 177.8828 -8.8438 Q178.3281 -9.1562 178.7812 -9.3281 Q179.2344 -9.5 179.75 -9.5 Q180.2812 -9.5 180.6953 -9.375 Q181.1094 -9.25 181.4219 -8.9922 Q181.7344 -8.7344 181.9453 -8.3594 Q182.1562 -7.9844 182.2578 -7.4609 Q182.3594 -6.9375 182.3594 -6.125 L182.3594 -2.4375 Q182.3594 -1.7656 182.3984 -1.4609 Q182.4375 -1.1562 182.5312 -0.9922 Q182.625 -0.8281 182.8125 -0.7188 Q183 -0.6094 183.4531 -0.4844 L183.4531 0 ZM191.5625 -2.4375 Q191.5625 -1.6094 191.6406 -1.2812 Q191.7188 -0.9531 191.9375 -0.7812 Q192.1562 -0.6094 192.6562 -0.4844 L192.6562 0 L188.7656 0 L188.7656 -0.4844 Q189.2656 -0.6094 189.4531 -0.7422 Q189.6406 -0.875 189.7266 -1.0703 Q189.8125 -1.2656 189.8438 -1.5938 Q189.875 -1.9219 189.875 -2.4375 L189.875 -10.6094 Q189.875 -11.5469 189.8594 -11.9219 Q189.8438 -12.2969 189.7812 -12.5547 Q189.7188 -12.8125 189.6094 -12.9609 Q189.5 -13.1094 189.3047 -13.1953 Q189.1094 -13.2812 188.6094 -13.375 L188.6094 -13.875 L190.9688 -13.9688 L191.5625 -13.9688 L191.5625 -2.4375 ZM199.5938 -1.3906 L199.4531 -1.4375 Q198.5938 -0.5625 197.8516 -0.2031 Q197.1094 0.1562 196.2656 0.1562 Q195.5156 0.1562 194.9531 -0.1328 Q194.3906 -0.4219 194.0859 -0.9453 Q193.7812 -1.4688 193.7812 -2.1562 Q193.7812 -3.5781 195.1953 -4.3516 Q196.6094 -5.125 199.4219 -5.25 L199.4219 -5.8906 Q199.4219 -6.9062 199.2266 -7.4922 Q199.0312 -8.0781 198.6172 -8.3516 Q198.2031 -8.625 197.5 -8.625 Q196.7344 -8.625 196.2656 -8.2266 Q195.7969 -7.8281 195.5625 -7.0156 L194.2969 -7.0156 L194.2969 -8.2969 Q195.2344 -8.7812 195.8594 -9.0078 Q196.4844 -9.2344 197.1094 -9.3672 Q197.7344 -9.5 198.375 -9.5 Q199.3438 -9.5 199.9297 -9.1953 Q200.5156 -8.8906 200.8047 -8.2578 Q201.0938 -7.625 201.0938 -6.3438 L201.0938 -2.9375 Q201.0938 -2.2188 201.1016 -1.9219 Q201.1094 -1.625 201.1641 -1.3672 Q201.2188 -1.1094 201.3125 -0.9609 Q201.4062 -0.8125 201.6016 -0.7031 Q201.7969 -0.5938 202.2188 -0.4844 L202.2188 0 L199.5469 0 L199.5938 -1.3906 ZM199.4219 -4.4531 Q197.4375 -4.4375 196.4531 -3.9297 Q195.4688 -3.4219 195.4688 -2.3906 Q195.4688 -1.8438 195.6953 -1.5156 Q195.9219 -1.1875 196.2656 -1.0703 Q196.6094 -0.9531 197.0781 -0.9531 Q197.7344 -0.9531 198.2812 -1.2734 Q198.8281 -1.5938 199.125 -2.0938 Q199.4219 -2.5938 199.4219 -3.0781 L199.4219 -4.4531 ZM208.0781 0.7969 Q207.5469 2.0156 207.0391 2.7656 Q206.5312 3.5156 205.9219 3.8984 Q205.3125 4.2812 204.4688 4.2812 Q203.9219 4.2812 203.25 4.1562 L203.25 2.2188 L204.125 2.2188 Q204.2344 2.625 204.4141 2.7812 Q204.5938 2.9375 204.9219 2.9375 Q205.2188 2.9375 205.4453 2.8203 Q205.6719 2.7031 205.9219 2.4297 Q206.1719 2.1562 206.5078 1.5938 Q206.8438 1.0312 207.2656 0.1562 L204.5312 -7.2031 Q204.2656 -7.9062 204.1094 -8.1953 Q203.9531 -8.4844 203.7656 -8.625 Q203.5781 -8.7656 203.2031 -8.8594 L203.2031 -9.3438 L207.1719 -9.3438 L207.1719 -8.8594 Q206.7188 -8.75 206.5312 -8.6484 Q206.3438 -8.5469 206.2578 -8.3828 Q206.1719 -8.2188 206.1719 -7.9688 Q206.1719 -7.7031 206.2344 -7.4219 Q206.2969 -7.1406 206.4219 -6.7656 L208.1719 -1.8594 L210.125 -6.5469 Q210.2812 -6.9375 210.375 -7.2656 Q210.4688 -7.5938 210.4688 -7.875 Q210.4688 -8.2969 210.2422 -8.5156 Q210.0156 -8.7344 209.4531 -8.8594 L209.4531 -9.3438 L213.0938 -9.3438 L213.0938 -8.8594 Q212.7188 -8.7812 212.5156 -8.6172 Q212.3125 -8.4531 212.1016 -8.1094 Q211.8906 -7.7656 211.6094 -7.1406 L208.0781 0.7969 ZM221.75 -1.6562 Q221.125 -1 220.6016 -0.6328 Q220.0781 -0.2656 219.4531 -0.0547 Q218.8281 0.1562 218.0781 0.1562 Q216.0625 0.1562 215.0391 -1.0469 Q214.0156 -2.25 214.0156 -4.6094 Q214.0156 -6.0625 214.5391 -7.1797 Q215.0625 -8.2969 216.0312 -8.8984 Q217 -9.5 218.25 -9.5 Q219.2344 -9.5 219.9297 -9.1875 Q220.625 -8.875 221.0391 -8.3359 Q221.4531 -7.7969 221.6875 -6.9688 Q221.9219 -6.1406 221.9531 -4.8125 L215.7969 -4.8125 L215.7969 -4.6406 Q215.7969 -3.4844 216.0547 -2.7031 Q216.3125 -1.9219 216.9062 -1.4766 Q217.5 -1.0312 218.4375 -1.0312 Q219.2344 -1.0312 219.875 -1.3281 Q220.5156 -1.625 221.1562 -2.2969 L221.75 -1.6562 ZM220.1094 -5.625 Q220.0469 -6.6875 219.8438 -7.3516 Q219.6406 -8.0156 219.2344 -8.375 Q218.8281 -8.7344 218.1562 -8.7344 Q217.1562 -8.7344 216.5547 -7.9297 Q215.9531 -7.125 215.8438 -5.625 L220.1094 -5.625 ZM226.5781 -7.7188 L226.7188 -7.6875 Q227.2656 -8.3438 227.7188 -8.7188 Q228.1719 -9.0938 228.7031 -9.2969 Q229.2344 -9.5 229.9219 -9.5 Q230.4844 -9.5 230.9375 -9.4375 L230.9375 -7.2031 L229.8438 -7.2031 Q229.6094 -7.7188 229.3438 -7.9609 Q229.0781 -8.2031 228.6094 -8.2031 Q228.2656 -8.2031 227.9219 -8 Q227.5781 -7.7969 227.25 -7.4062 Q226.9219 -7.0156 226.8047 -6.6719 Q226.6875 -6.3281 226.6875 -5.8594 L226.6875 -2.4375 Q226.6875 -1.5469 226.7891 -1.2109 Q226.8906 -0.875 227.1406 -0.7188 Q227.3906 -0.5625 227.8906 -0.4844 L227.8906 0 L223.9531 0 L223.9531 -0.4844 Q224.3281 -0.5938 224.4922 -0.6797 Q224.6562 -0.7656 224.7734 -0.9219 Q224.8906 -1.0781 224.9453 -1.4062 Q225 -1.7344 225 -2.4062 L225 -6.6719 Q225 -7.2969 224.9844 -7.6797 Q224.9688 -8.0625 224.8516 -8.2891 Q224.7344 -8.5156 224.4922 -8.625 Q224.25 -8.7344 223.8125 -8.8125 L223.8125 -9.3281 L226.0938 -9.4219 L226.6875 -9.4219 L226.5781 -7.7188 ZM240.0781 -5.6406 L241.3438 -7.25 Q241.5469 -7.5156 241.6797 -7.7656 Q241.8125 -8.0156 241.8125 -8.2656 Q241.8125 -8.5 241.6406 -8.6484 Q241.4688 -8.7969 241.125 -8.8594 L241.125 -9.3438 L244.3125 -9.3438 L244.3125 -8.8594 Q243.9531 -8.75 243.5625 -8.4375 Q243.1719 -8.125 242.625 -7.4375 L240.5938 -4.9531 L242.8281 -1.9531 Q243.2969 -1.3125 243.6797 -0.9688 Q244.0625 -0.625 244.4375 -0.4844 L244.4375 0 L240.5156 0 L240.5156 -0.4844 Q241.3281 -0.5781 241.3281 -1.0781 Q241.3281 -1.2969 241.2578 -1.4766 Q241.1875 -1.6562 241 -1.9062 L239.5938 -3.875 L238.0938 -1.9219 Q237.9219 -1.7031 237.8281 -1.5234 Q237.7344 -1.3438 237.7344 -1.125 Q237.7344 -0.8594 237.9141 -0.6875 Q238.0938 -0.5156 238.4844 -0.4844 L238.4844 0 L235.2188 0 L235.2188 -0.4844 Q235.5469 -0.5938 235.8047 -0.7734 Q236.0625 -0.9531 236.3359 -1.2266 Q236.6094 -1.5 237.0469 -2.0469 L239.0781 -4.5625 L237 -7.4062 Q236.5625 -8 236.3125 -8.2656 Q236.0625 -8.5312 235.8438 -8.6641 Q235.625 -8.7969 235.4062 -8.8594 L235.4062 -9.3438 L239.2344 -9.3438 L239.2344 -8.8594 Q238.4688 -8.7344 238.4688 -8.25 Q238.4688 -8.0312 238.5703 -7.8047 Q238.6719 -7.5781 238.8906 -7.3125 L240.0781 -5.6406 ZM250.5938 -4.3906 L246.0625 -4.3906 L246.0625 -5.9062 L250.5938 -5.9062 L250.5938 -4.3906 ZM257.0781 0.7969 Q256.5469 2.0156 256.0391 2.7656 Q255.5312 3.5156 254.9219 3.8984 Q254.3125 4.2812 253.4688 4.2812 Q252.9219 4.2812 252.25 4.1562 L252.25 2.2188 L253.125 2.2188 Q253.2344 2.625 253.4141 2.7812 Q253.5938 2.9375 253.9219 2.9375 Q254.2188 2.9375 254.4453 2.8203 Q254.6719 2.7031 254.9219 2.4297 Q255.1719 2.1562 255.5078 1.5938 Q255.8438 1.0312 256.2656 0.1562 L253.5312 -7.2031 Q253.2656 -7.9062 253.1094 -8.1953 Q252.9531 -8.4844 252.7656 -8.625 Q252.5781 -8.7656 252.2031 -8.8594 L252.2031 -9.3438 L256.1719 -9.3438 L256.1719 -8.8594 Q255.7188 -8.75 255.5312 -8.6484 Q255.3438 -8.5469 255.2578 -8.3828 Q255.1719 -8.2188 255.1719 -7.9688 Q255.1719 -7.7031 255.2344 -7.4219 Q255.2969 -7.1406 255.4219 -6.7656 L257.1719 -1.8594 L259.125 -6.5469 Q259.2812 -6.9375 259.375 -7.2656 Q259.4688 -7.5938 259.4688 -7.875 Q259.4688 -8.2969 259.2422 -8.5156 Q259.0156 -8.7344 258.4531 -8.8594 L258.4531 -9.3438 L262.0938 -9.3438 L262.0938 -8.8594 Q261.7188 -8.7812 261.5156 -8.6172 Q261.3125 -8.4531 261.1016 -8.1094 Q260.8906 -7.7656 260.6094 -7.1406 L257.0781 0.7969 ZM273.5469 -10.6094 Q273.5469 -11.5469 273.5312 -11.9219 Q273.5156 -12.2969 273.4531 -12.5547 Q273.3906 -12.8125 273.2734 -12.9609 Q273.1562 -13.1094 272.9688 -13.1953 Q272.7812 -13.2812 272.2812 -13.375 L272.2812 -13.875 L274.6406 -13.9688 L275.2188 -13.9688 L275.2188 -2.6719 Q275.2188 -1.9062 275.25 -1.5781 Q275.2812 -1.25 275.375 -1.0547 Q275.4688 -0.8594 275.6797 -0.7344 Q275.8906 -0.6094 276.4219 -0.5156 L276.4219 0 L274.1094 0.0938 L273.5312 0.0938 L273.6406 -1.5 L273.5 -1.5469 Q272.8906 -0.8906 272.4375 -0.5625 Q271.9844 -0.2344 271.4688 -0.0391 Q270.9531 0.1562 270.3594 0.1562 Q268.7656 0.1562 267.8984 -1.0625 Q267.0312 -2.2812 267.0312 -4.5781 Q267.0312 -6.1719 267.5938 -7.2891 Q268.1562 -8.4062 269.1172 -8.9531 Q270.0781 -9.5 271.2812 -9.5 Q271.9219 -9.5 272.4531 -9.3984 Q272.9844 -9.2969 273.5469 -9.0625 L273.5469 -10.6094 ZM273.5469 -5.7969 Q273.5469 -6.5469 273.4766 -7.0078 Q273.4062 -7.4688 273.2422 -7.7812 Q273.0781 -8.0938 272.8047 -8.3125 Q272.5312 -8.5312 272.2031 -8.625 Q271.875 -8.7188 271.4219 -8.7188 Q270.1719 -8.7188 269.5156 -7.7188 Q268.8594 -6.7188 268.8594 -4.8438 Q268.8594 -2.9688 269.3984 -1.9922 Q269.9375 -1.0156 271.0312 -1.0156 Q271.4531 -1.0156 271.7422 -1.0859 Q272.0312 -1.1562 272.3047 -1.3203 Q272.5781 -1.4844 272.8594 -1.7656 Q273.1406 -2.0469 273.2734 -2.2812 Q273.4062 -2.5156 273.4766 -2.8203 Q273.5469 -3.125 273.5469 -3.6094 L273.5469 -5.7969 ZM280.7344 -13.1719 L280.7344 -11.2656 L278.9375 -11.2656 L278.9375 -13.1719 L280.7344 -13.1719 ZM277.9531 -0.4844 Q278.3281 -0.5938 278.4922 -0.6797 Q278.6562 -0.7656 278.7656 -0.9219 Q278.875 -1.0781 278.9375 -1.4062 Q279 -1.7344 279 -2.4062 L279 -6.6719 Q279 -7.2969 278.9844 -7.6797 Q278.9688 -8.0625 278.8516 -8.2891 Q278.7344 -8.5156 278.4922 -8.625 Q278.25 -8.7344 277.8125 -8.8125 L277.8125 -9.3438 L280.0938 -9.4219 L280.6875 -9.4219 L280.6875 -2.4375 Q280.6875 -1.6094 280.7656 -1.2812 Q280.8438 -0.9531 281.0625 -0.7812 Q281.2812 -0.6094 281.7812 -0.4844 L281.7812 0 L277.9531 0 L277.9531 -0.4844 ZM286.5781 -7.7188 L286.7188 -7.6875 Q287.2656 -8.3438 287.7188 -8.7188 Q288.1719 -9.0938 288.7031 -9.2969 Q289.2344 -9.5 289.9219 -9.5 Q290.4844 -9.5 290.9375 -9.4375 L290.9375 -7.2031 L289.8438 -7.2031 Q289.6094 -7.7188 289.3438 -7.9609 Q289.0781 -8.2031 288.6094 -8.2031 Q288.2656 -8.2031 287.9219 -8 Q287.5781 -7.7969 287.25 -7.4062 Q286.9219 -7.0156 286.8047 -6.6719 Q286.6875 -6.3281 286.6875 -5.8594 L286.6875 -2.4375 Q286.6875 -1.5469 286.7891 -1.2109 Q286.8906 -0.875 287.1406 -0.7188 Q287.3906 -0.5625 287.8906 -0.4844 L287.8906 0 L283.9531 0 L283.9531 -0.4844 Q284.3281 -0.5938 284.4922 -0.6797 Q284.6562 -0.7656 284.7734 -0.9219 Q284.8906 -1.0781 284.9453 -1.4062 Q285 -1.7344 285 -2.4062 L285 -6.6719 Q285 -7.2969 284.9844 -7.6797 Q284.9688 -8.0625 284.8516 -8.2891 Q284.7344 -8.5156 284.4922 -8.625 Q284.25 -8.7344 283.8125 -8.8125 L283.8125 -9.3281 L286.0938 -9.4219 L286.6875 -9.4219 L286.5781 -7.7188 ZM299.75 -1.6562 Q299.125 -1 298.6016 -0.6328 Q298.0781 -0.2656 297.4531 -0.0547 Q296.8281 0.1562 296.0781 0.1562 Q294.0625 0.1562 293.0391 -1.0469 Q292.0156 -2.25 292.0156 -4.6094 Q292.0156 -6.0625 292.5391 -7.1797 Q293.0625 -8.2969 294.0312 -8.8984 Q295 -9.5 296.25 -9.5 Q297.2344 -9.5 297.9297 -9.1875 Q298.625 -8.875 299.0391 -8.3359 Q299.4531 -7.7969 299.6875 -6.9688 Q299.9219 -6.1406 299.9531 -4.8125 L293.7969 -4.8125 L293.7969 -4.6406 Q293.7969 -3.4844 294.0547 -2.7031 Q294.3125 -1.9219 294.9062 -1.4766 Q295.5 -1.0312 296.4375 -1.0312 Q297.2344 -1.0312 297.875 -1.3281 Q298.5156 -1.625 299.1562 -2.2969 L299.75 -1.6562 ZM298.1094 -5.625 Q298.0469 -6.6875 297.8438 -7.3516 Q297.6406 -8.0156 297.2344 -8.375 Q296.8281 -8.7344 296.1562 -8.7344 Q295.1562 -8.7344 294.5547 -7.9297 Q293.9531 -7.125 293.8438 -5.625 L298.1094 -5.625 ZM309.2188 -9.1094 L309.2188 -7.0781 L307.9844 -7.0781 Q307.8125 -7.7031 307.5703 -8.0703 Q307.3281 -8.4375 307.0078 -8.5859 Q306.6875 -8.7344 306.2031 -8.7344 Q305.5156 -8.7344 304.9922 -8.2969 Q304.4688 -7.8594 304.1641 -6.9609 Q303.8594 -6.0625 303.8594 -4.75 Q303.8594 -3.9219 303.9766 -3.2344 Q304.0938 -2.5469 304.375 -2.0625 Q304.6562 -1.5781 305.125 -1.3047 Q305.5938 -1.0312 306.2812 -1.0312 Q306.9531 -1.0312 307.5391 -1.2891 Q308.125 -1.5469 308.75 -2.2188 L309.2969 -1.5781 Q308.7969 -1.0312 308.4219 -0.7344 Q308.0469 -0.4375 307.6094 -0.2344 Q307.1719 -0.0312 306.75 0.0625 Q306.3281 0.1562 305.8281 0.1562 Q303.9844 0.1562 303.0078 -1.0703 Q302.0312 -2.2969 302.0312 -4.6094 Q302.0312 -6.0625 302.5781 -7.1797 Q303.125 -8.2969 304.1094 -8.8984 Q305.0938 -9.5 306.375 -9.5 Q307.1875 -9.5 307.8672 -9.4062 Q308.5469 -9.3125 309.2188 -9.1094 ZM310.3594 -8.8438 Q310.8438 -8.9219 311.1484 -9.1172 Q311.4531 -9.3125 311.625 -9.625 Q311.7969 -9.9375 311.8984 -10.3984 Q312 -10.8594 312.0938 -11.75 L313.4844 -11.75 L313.4844 -9.3438 L316.6406 -9.3438 L316.6406 -8.3438 L313.4844 -8.3438 L313.4844 -4 Q313.4844 -3.0625 313.5625 -2.5 Q313.6406 -1.9375 313.8594 -1.6172 Q314.0781 -1.2969 314.3516 -1.1641 Q314.625 -1.0312 315.0469 -1.0312 Q315.4375 -1.0312 315.7812 -1.1875 Q316.125 -1.3438 316.4531 -1.6562 L316.8906 -1.125 Q316.2031 -0.4531 315.5859 -0.1484 Q314.9688 0.1562 314.2969 0.1562 Q313.0312 0.1562 312.4219 -0.5938 Q311.8125 -1.3438 311.8125 -2.9375 L311.8125 -8.3438 L310.3594 -8.3438 L310.3594 -8.8438 ZM320.7344 -13.1719 L320.7344 -11.2656 L318.9375 -11.2656 L318.9375 -13.1719 L320.7344 -13.1719 ZM317.9531 -0.4844 Q318.3281 -0.5938 318.4922 -0.6797 Q318.6562 -0.7656 318.7656 -0.9219 Q318.875 -1.0781 318.9375 -1.4062 Q319 -1.7344 319 -2.4062 L319 -6.6719 Q319 -7.2969 318.9844 -7.6797 Q318.9688 -8.0625 318.8516 -8.2891 Q318.7344 -8.5156 318.4922 -8.625 Q318.25 -8.7344 317.8125 -8.8125 L317.8125 -9.3438 L320.0938 -9.4219 L320.6875 -9.4219 L320.6875 -2.4375 Q320.6875 -1.6094 320.7656 -1.2812 Q320.8438 -0.9531 321.0625 -0.7812 Q321.2812 -0.6094 321.7812 -0.4844 L321.7812 0 L317.9531 0 L317.9531 -0.4844 ZM328.2031 0.1562 Q326.1719 0.1562 325.1016 -1.0391 Q324.0312 -2.2344 324.0312 -4.5781 Q324.0312 -6.1875 324.5938 -7.3047 Q325.1562 -8.4219 326.1328 -8.9609 Q327.1094 -9.5 328.3594 -9.5 Q330.4375 -9.5 331.5156 -8.2891 Q332.5938 -7.0781 332.5938 -4.7969 Q332.5938 -3.1719 332.0547 -2.0625 Q331.5156 -0.9531 330.5312 -0.3984 Q329.5469 0.1562 328.2031 0.1562 ZM325.875 -4.7812 Q325.875 -2.7812 326.5156 -1.6953 Q327.1562 -0.6094 328.3438 -0.6094 Q329 -0.6094 329.4609 -0.9297 Q329.9219 -1.25 330.2031 -1.7891 Q330.4844 -2.3281 330.6172 -3.0312 Q330.75 -3.7344 330.75 -4.5156 Q330.75 -5.9531 330.4297 -6.8984 Q330.1094 -7.8438 329.5625 -8.2891 Q329.0156 -8.7344 328.3125 -8.7344 Q327.125 -8.7344 326.5 -7.7109 Q325.875 -6.6875 325.875 -4.7812 ZM344.4531 0 L340.6094 0 L340.6094 -0.4844 Q341 -0.5938 341.1641 -0.6797 Q341.3281 -0.7656 341.4375 -0.9219 Q341.5469 -1.0781 341.6094 -1.4062 Q341.6719 -1.7344 341.6719 -2.4062 L341.6719 -4.9688 Q341.6719 -5.6406 341.6328 -6.2031 Q341.5938 -6.7656 341.5 -7.1172 Q341.4062 -7.4688 341.2812 -7.6719 Q341.1562 -7.875 340.9688 -8.0156 Q340.7812 -8.1562 340.5469 -8.2422 Q340.3125 -8.3281 339.9375 -8.3281 Q339.5625 -8.3281 339.2188 -8.1719 Q338.875 -8.0156 338.4609 -7.6484 Q338.0469 -7.2812 337.8672 -6.9141 Q337.6875 -6.5469 337.6875 -6.0781 L337.6875 -2.4375 Q337.6875 -1.6094 337.7656 -1.2812 Q337.8438 -0.9531 338.0625 -0.7812 Q338.2812 -0.6094 338.7812 -0.4844 L338.7812 0 L334.9531 0 L334.9531 -0.4844 Q335.3281 -0.5938 335.4922 -0.6797 Q335.6562 -0.7656 335.7656 -0.9219 Q335.875 -1.0781 335.9375 -1.4062 Q336 -1.7344 336 -2.4062 L336 -6.6719 Q336 -7.2969 335.9844 -7.6797 Q335.9688 -8.0625 335.8516 -8.2891 Q335.7344 -8.5156 335.4922 -8.625 Q335.25 -8.7344 334.8125 -8.8125 L334.8125 -9.3438 L337.0938 -9.4219 L337.6875 -9.4219 L337.5781 -7.8281 L337.7188 -7.7969 Q338.4375 -8.5312 338.8828 -8.8438 Q339.3281 -9.1562 339.7812 -9.3281 Q340.2344 -9.5 340.75 -9.5 Q341.2812 -9.5 341.6953 -9.375 Q342.1094 -9.25 342.4219 -8.9922 Q342.7344 -8.7344 342.9453 -8.3594 Q343.1562 -7.9844 343.2578 -7.4609 Q343.3594 -6.9375 343.3594 -6.125 L343.3594 -2.4375 Q343.3594 -1.7656 343.3984 -1.4609 Q343.4375 -1.1562 343.5312 -0.9922 Q343.625 -0.8281 343.8125 -0.7188 Q344 -0.6094 344.4531 -0.4844 L344.4531 0 Z" stroke="none"/></g></g></svg>