<?xml version="1.0" encoding="UTF-8" standalone="no"?><svg xmlns="http://www.w3.org/2000/svg" xmlns:xlink="http://www.w3.org/1999/xlink" stroke-dasharray="none" shape-rendering="auto" font-family="'Dialog'" width="60.812600" text-rendering="auto" fill-opacity="1" contentScriptType="text/ecmascript" color-interpolation="auto" color-rendering="auto" preserveAspectRatio="xMidYMid meet" font-size="12" fill="black" stroke="black" image-rendering="auto" stroke-miterlimit="10" zoomAndPan="magnify" version="1.0" stroke-linecap="square" stroke-linejoin="miter" contentStyleType="text/css" font-style="normal" height="32" stroke-width="1" stroke-dashoffset="0" font-weight="normal" stroke-opacity="1" y="-9.000000"><!--Converted from MathML using JEuclid--><defs id="genericDefs"/><g><g text-rendering="optimizeLegibility" transform="translate(0.2344,23.9476) matrix(1,0,0,1.6727,0,0)" color-rendering="optimizeQuality" color-interpolation="linearRGB" image-rendering="optimizeQuality"><path d="M7.2188 4.25 Q5.5625 4.25 4.5078 3.75 Q3.4531 3.25 2.8672 2.2344 Q2.2812 1.2188 2.0234 -0.4141 Q1.7656 -2.0469 1.7656 -4.8438 Q1.7656 -7.625 2.0234 -9.2656 Q2.2812 -10.9062 2.8672 -11.9453 Q3.4531 -12.9844 4.5078 -13.5 Q5.5625 -14.0156 7.2188 -14.0156 L7.2188 -13.2188 Q6.5312 -13.2188 6 -13.0938 Q5.4062 -12.9531 4.9844 -12.5625 Q4.5156 -12.1406 4.2344 -11.375 Q3.8906 -10.4688 3.7188 -8.9844 Q3.5469 -7.4062 3.5469 -4.9219 Q3.5469 -2.7188 3.6953 -1.1797 Q3.8438 0.3594 4.1875 1.3281 Q4.4531 2.1562 4.8594 2.6094 Q5.2188 3.0156 5.7188 3.2188 Q6.2969 3.4531 7.2188 3.4531 L7.2188 4.25 Z" stroke="none"/></g><g text-rendering="optimizeLegibility" stroke-width="1.6667" color-interpolation="linearRGB" color-rendering="optimizeQuality" image-rendering="optimizeQuality"><line y2="15.78" fill="none" x1="11.1309" x2="24.2559" y1="15.78"/><path d="M5.6719 -5.9844 L5.6875 -6.1562 Q5.7031 -6.4844 5.7031 -6.7188 Q5.7031 -7.2812 5.6328 -7.7344 Q5.5625 -8.1875 5.4062 -8.5078 Q5.25 -8.8281 4.9766 -9.0078 Q4.7031 -9.1875 4.2969 -9.1875 Q3.7969 -9.1875 3.3672 -8.9453 Q2.9375 -8.7031 2.5312 -8.2188 L2.0312 -8.2188 L2.0312 -8.7812 Q2.6875 -9.25 3.0469 -9.4375 Q3.4062 -9.625 3.7656 -9.7266 Q4.125 -9.8281 4.5469 -9.8281 Q5.6875 -9.8281 6.2578 -9.0469 Q6.8281 -8.2656 6.8281 -6.7031 Q6.8281 -6.0781 6.7188 -5.2188 Q6.6094 -4.3594 6.3438 -3.4297 Q6.0781 -2.5 5.7422 -1.8516 Q5.4062 -1.2031 4.9844 -0.7812 Q4.5625 -0.3594 4.0234 -0.125 Q3.4844 0.1094 2.7969 0.1094 Q2.1094 0.1094 1.6016 -0.1719 Q1.0938 -0.4531 0.8359 -0.9922 Q0.5781 -1.5312 0.5781 -2.3125 Q0.5781 -3.0781 0.8125 -3.8359 Q1.0469 -4.5938 1.5078 -5.2109 Q1.9688 -5.8281 2.6094 -6.1797 Q3.25 -6.5312 3.9844 -6.5312 Q4.4844 -6.5312 4.8516 -6.4219 Q5.2188 -6.3125 5.6719 -5.9844 ZM5.3438 -4.6719 Q5.3438 -5.3594 5.0547 -5.6797 Q4.7656 -6 4.1875 -6 Q3.7812 -6 3.3984 -5.7812 Q3.0156 -5.5625 2.7109 -5.1641 Q2.4062 -4.7656 2.2109 -4.2266 Q2.0156 -3.6875 1.8984 -3.1406 Q1.7812 -2.5938 1.7812 -2 Q1.7812 -1.375 1.9141 -1.0312 Q2.0469 -0.6875 2.2656 -0.5625 Q2.4844 -0.4375 2.8125 -0.4375 Q3.5625 -0.4375 4.0781 -1.0234 Q4.5938 -1.6094 4.9688 -2.7969 Q5.3438 -3.9844 5.3438 -4.6719 Z" stroke-width="1" transform="translate(10.5528,10.3314)" stroke="none"/></g><g text-rendering="optimizeLegibility" transform="translate(17.4434,10.3314)" color-rendering="optimizeQuality" color-interpolation="linearRGB" image-rendering="optimizeQuality"><path d="M1.4688 1.2031 Q1.3906 1.5312 1.375 1.7109 Q1.3594 1.8906 1.3594 2.0156 Q1.3594 2.2188 1.4297 2.3359 Q1.5 2.4531 1.6406 2.5156 Q1.7812 2.5781 2.1094 2.6094 L2.0625 2.9375 L-0.0625 2.9375 L1.6719 -4.6562 Q1.8125 -5.2344 1.8125 -5.6406 Q1.8125 -5.8438 1.75 -5.9453 Q1.6875 -6.0469 1.5469 -6.1016 Q1.4062 -6.1562 1.0781 -6.1719 L1.1562 -6.5312 L2.7031 -6.5938 L3.0938 -6.5938 L2.6406 -4.8125 L2.7188 -4.7969 Q3.9844 -6.6406 5.2344 -6.6406 Q5.9844 -6.6406 6.3984 -6.0781 Q6.8125 -5.5156 6.8125 -4.4844 Q6.8125 -3.7344 6.6094 -2.9922 Q6.4062 -2.25 6.0469 -1.6484 Q5.6875 -1.0469 5.25 -0.6641 Q4.8125 -0.2812 4.3203 -0.0859 Q3.8281 0.1094 3.2812 0.1094 Q2.375 0.1094 1.7812 -0.2812 L1.4688 1.2031 ZM2.2812 -2.375 Q2.2188 -2.0156 2.2031 -1.8281 Q2.1875 -1.6406 2.1875 -1.4531 Q2.1875 -0.9219 2.4141 -0.6797 Q2.6406 -0.4375 3.2031 -0.4375 Q3.5469 -0.4375 3.8438 -0.5703 Q4.1406 -0.7031 4.3984 -0.9609 Q4.6562 -1.2188 4.875 -1.5938 Q5.0938 -1.9688 5.2578 -2.4531 Q5.4219 -2.9375 5.5078 -3.4531 Q5.5938 -3.9688 5.5938 -4.4219 Q5.5938 -5.1406 5.3906 -5.4922 Q5.1875 -5.8438 4.75 -5.8438 Q4.4062 -5.8438 4.0625 -5.6094 Q3.7188 -5.375 3.3203 -4.8516 Q2.9219 -4.3281 2.6953 -3.8281 Q2.4688 -3.3281 2.3438 -2.6719 L2.2812 -2.375 Z" stroke="none"/></g><g text-rendering="optimizeLegibility" transform="translate(10.7012,28.1192)" color-rendering="optimizeQuality" color-interpolation="linearRGB" image-rendering="optimizeQuality"><path d="M5.6719 -5.9844 L5.6875 -6.1562 Q5.7031 -6.4844 5.7031 -6.7188 Q5.7031 -7.2812 5.6328 -7.7344 Q5.5625 -8.1875 5.4062 -8.5078 Q5.25 -8.8281 4.9766 -9.0078 Q4.7031 -9.1875 4.2969 -9.1875 Q3.7969 -9.1875 3.3672 -8.9453 Q2.9375 -8.7031 2.5312 -8.2188 L2.0312 -8.2188 L2.0312 -8.7812 Q2.6875 -9.25 3.0469 -9.4375 Q3.4062 -9.625 3.7656 -9.7266 Q4.125 -9.8281 4.5469 -9.8281 Q5.6875 -9.8281 6.2578 -9.0469 Q6.8281 -8.2656 6.8281 -6.7031 Q6.8281 -6.0781 6.7188 -5.2188 Q6.6094 -4.3594 6.3438 -3.4297 Q6.0781 -2.5 5.7422 -1.8516 Q5.4062 -1.2031 4.9844 -0.7812 Q4.5625 -0.3594 4.0234 -0.125 Q3.4844 0.1094 2.7969 0.1094 Q2.1094 0.1094 1.6016 -0.1719 Q1.0938 -0.4531 0.8359 -0.9922 Q0.5781 -1.5312 0.5781 -2.3125 Q0.5781 -3.0781 0.8125 -3.8359 Q1.0469 -4.5938 1.5078 -5.2109 Q1.9688 -5.8281 2.6094 -6.1797 Q3.25 -6.5312 3.9844 -6.5312 Q4.4844 -6.5312 4.8516 -6.4219 Q5.2188 -6.3125 5.6719 -5.9844 ZM5.3438 -4.6719 Q5.3438 -5.3594 5.0547 -5.6797 Q4.7656 -6 4.1875 -6 Q3.7812 -6 3.3984 -5.7812 Q3.0156 -5.5625 2.7109 -5.1641 Q2.4062 -4.7656 2.2109 -4.2266 Q2.0156 -3.6875 1.8984 -3.1406 Q1.7812 -2.5938 1.7812 -2 Q1.7812 -1.375 1.9141 -1.0312 Q2.0469 -0.6875 2.2656 -0.5625 Q2.4844 -0.4375 2.8125 -0.4375 Q3.5625 -0.4375 4.0781 -1.0234 Q4.5938 -1.6094 4.9688 -2.7969 Q5.3438 -3.9844 5.3438 -4.6719 Z" stroke="none"/></g><g text-rendering="optimizeLegibility" transform="translate(17.5293,28.1192)" color-rendering="optimizeQuality" color-interpolation="linearRGB" image-rendering="optimizeQuality"><path d="M6.4531 0 L4.2969 0 L5.1562 -3.4688 Q5.25 -3.8125 5.3281 -4.2109 Q5.4062 -4.6094 5.4062 -4.9375 Q5.4062 -5.4219 5.2344 -5.6328 Q5.0625 -5.8438 4.7031 -5.8438 Q4.4219 -5.8438 4.0938 -5.625 Q3.7656 -5.4062 3.3984 -4.9609 Q3.0312 -4.5156 2.7812 -4.0625 Q2.5312 -3.6094 2.4062 -2.9531 L1.7812 0 L0.5938 0 L1.6406 -4.6719 Q1.6719 -4.8281 1.7266 -5.1328 Q1.7812 -5.4375 1.7812 -5.6406 Q1.7812 -5.8438 1.7266 -5.9453 Q1.6719 -6.0469 1.5312 -6.1016 Q1.3906 -6.1562 1.0469 -6.1719 L1.1406 -6.5312 L2.6875 -6.5938 L3.0781 -6.5938 L2.625 -4.8125 L2.7031 -4.7969 Q3.375 -5.7344 3.9922 -6.1875 Q4.6094 -6.6406 5.2344 -6.6406 Q5.9062 -6.6406 6.2422 -6.2734 Q6.5781 -5.9062 6.5781 -5.2031 Q6.5781 -4.9531 6.5391 -4.6641 Q6.5 -4.375 6.4375 -4.1406 L5.8594 -1.7031 Q5.75 -1.2188 5.75 -0.9375 Q5.75 -0.7188 5.8203 -0.6094 Q5.8906 -0.5 6.0312 -0.4375 Q6.1719 -0.375 6.5 -0.3281 L6.4531 0 Z" stroke="none"/></g><g text-rendering="optimizeLegibility" transform="translate(28.3816,23)" color-rendering="optimizeQuality" color-interpolation="linearRGB" image-rendering="optimizeQuality"><path d="M1.2188 -7.0625 L1.2188 -8.4219 L9.8594 -8.4219 L9.8594 -7.0625 L1.2188 -7.0625 ZM1.2188 -3.0156 L1.2188 -4.3594 L9.8594 -4.3594 L9.8594 -3.0156 L1.2188 -3.0156 Z" stroke="none"/></g><g text-rendering="optimizeLegibility" transform="translate(40.241,23)" color-rendering="optimizeQuality" color-interpolation="linearRGB" image-rendering="optimizeQuality"><path d="M5.4375 0.1562 Q3.3281 0.1562 2.2969 -1.5078 Q1.2656 -3.1719 1.2656 -6.5469 Q1.2656 -8.3438 1.5781 -9.6484 Q1.8906 -10.9531 2.4609 -11.8125 Q3.0312 -12.6719 3.8359 -13.0781 Q4.6406 -13.4844 5.5938 -13.4844 Q7.7188 -13.4844 8.7656 -11.8359 Q9.8125 -10.1875 9.8125 -6.8438 Q9.8125 -3.3906 8.6953 -1.6172 Q7.5781 0.1562 5.4375 0.1562 ZM3.1719 -6.8438 Q3.1719 -3.6562 3.7578 -2.1641 Q4.3438 -0.6719 5.5938 -0.6719 Q6.7656 -0.6719 7.3359 -2.0781 Q7.9062 -3.4844 7.9062 -6.4219 Q7.9062 -8.6562 7.6172 -10.0547 Q7.3281 -11.4531 6.8047 -12.0547 Q6.2812 -12.6562 5.5312 -12.6562 Q4.8594 -12.6562 4.4062 -12.2578 Q3.9531 -11.8594 3.6797 -11.1094 Q3.4062 -10.3594 3.2891 -9.2734 Q3.1719 -8.1875 3.1719 -6.8438 Z" stroke="none"/></g><g text-rendering="optimizeLegibility" transform="translate(51.6316,23.9476) matrix(1,0,0,1.6727,0,0)" color-rendering="optimizeQuality" color-interpolation="linearRGB" image-rendering="optimizeQuality"><path d="M0.4219 -14.0156 Q2.0781 -14.0156 3.1328 -13.5156 Q4.1875 -13.0156 4.7734 -12 Q5.3594 -10.9844 5.6172 -9.3516 Q5.875 -7.7188 5.875 -4.9219 Q5.875 -2.1562 5.6172 -0.5078 Q5.3594 1.1406 4.7734 2.1797 Q4.1875 3.2188 3.1328 3.7344 Q2.0781 4.25 0.4219 4.25 L0.4219 3.4531 Q1.1094 3.4531 1.625 3.3281 Q2.2344 3.1875 2.6406 2.7969 Q3.1094 2.375 3.4062 1.6094 Q3.75 0.7031 3.9219 -0.7812 Q4.0938 -2.3594 4.0938 -4.8438 Q4.0938 -7.0469 3.9453 -8.5859 Q3.7969 -10.125 3.4531 -11.0938 Q3.1875 -11.9219 2.7812 -12.375 Q2.4062 -12.7812 1.9219 -12.9844 Q1.3438 -13.2188 0.4219 -13.2188 L0.4219 -14.0156 Z" stroke="none"/></g></g></svg>