<?xml version="1.0" encoding="UTF-8" standalone="no"?><svg xmlns="http://www.w3.org/2000/svg" xmlns:xlink="http://www.w3.org/1999/xlink" stroke-dasharray="none" shape-rendering="auto" font-family="'Dialog'" width="254.812600" text-rendering="auto" fill-opacity="1" contentScriptType="text/ecmascript" color-interpolation="auto" color-rendering="auto" preserveAspectRatio="xMidYMid meet" font-size="12" fill="black" stroke="black" image-rendering="auto" stroke-miterlimit="10" zoomAndPan="magnify" version="1.0" stroke-linecap="square" stroke-linejoin="miter" contentStyleType="text/css" font-style="normal" height="19" stroke-width="1" stroke-dashoffset="0" font-weight="normal" stroke-opacity="1" y="-5.000000"><!--Converted from MathML using JEuclid--><defs id="genericDefs"/><g><g text-rendering="optimizeLegibility" transform="translate(0,14)" color-rendering="optimizeQuality" color-interpolation="linearRGB" image-rendering="optimizeQuality"><path d="M10.7812 -8.0156 L7.9062 -8.0156 L7.875 -7.9375 Q9.2188 -6.9844 9.2188 -5.1875 Q9.2188 -3.1719 7.8438 -1.5078 Q6.4688 0.1562 4.0625 0.1562 Q2.5781 0.1562 1.7031 -0.7891 Q0.8281 -1.7344 0.8281 -3.3281 Q0.8281 -4.9375 1.4609 -6.2031 Q2.0938 -7.4688 3.1172 -8.1953 Q4.1406 -8.9219 5.2578 -9.1328 Q6.375 -9.3438 8.3281 -9.3438 L11.0469 -9.3438 L10.7812 -8.0156 ZM6.6875 -7.9844 Q5.4375 -7.9844 4.625 -7.5 Q3.8125 -7.0156 3.1641 -5.8516 Q2.5156 -4.6875 2.5156 -2.875 Q2.5156 -1.7969 3.0156 -1.2031 Q3.5156 -0.6094 4.2656 -0.6094 Q5.6094 -0.6094 6.5469 -2.1328 Q7.4844 -3.6562 7.4844 -5.5156 Q7.4844 -6.9688 6.6875 -7.9844 Z" stroke="none"/></g><g text-rendering="optimizeLegibility" transform="translate(11.3281,17.4219)" color-rendering="optimizeQuality" color-interpolation="linearRGB" image-rendering="optimizeQuality"><path d="M6.4688 -6.2031 Q5.1406 -4.7812 3.6875 -3.4062 L4.3281 -1.9062 Q4.5781 -1.3125 4.7266 -1.0234 Q4.875 -0.7344 5 -0.6094 Q5.125 -0.4844 5.25 -0.4297 Q5.375 -0.375 5.6406 -0.3281 L5.5625 0 L3.8594 0 L2.9062 -2.75 Q2.75 -2.6094 2.4766 -2.3516 Q2.2031 -2.0938 1.9531 -1.8047 Q1.7031 -1.5156 1.6016 -1.3359 Q1.5 -1.1562 1.4688 -1.0234 Q1.4375 -0.8906 1.4375 -0.7656 Q1.4375 -0.5781 1.5391 -0.4766 Q1.6406 -0.375 1.875 -0.3281 L1.7969 0 L-0.1562 0 L-0.2812 -0.3281 Q1.2188 -1.9375 2.6719 -3.2969 L2.0156 -4.8125 Q1.8125 -5.2812 1.6953 -5.5234 Q1.5781 -5.7656 1.4609 -5.8984 Q1.3438 -6.0312 1.1953 -6.1094 Q1.0469 -6.1875 0.7812 -6.2031 L0.8594 -6.5312 L2.5625 -6.5312 L3.4688 -3.9531 Q3.7969 -4.2656 4.1016 -4.5938 Q4.4062 -4.9219 4.5312 -5.1172 Q4.6562 -5.3125 4.7031 -5.4609 Q4.75 -5.6094 4.75 -5.7656 Q4.75 -6.1406 4.3125 -6.2031 L4.375 -6.5312 L6.3281 -6.5312 L6.4688 -6.2031 Z" stroke="none"/></g><g text-rendering="optimizeLegibility" transform="translate(18.5781,14)" color-rendering="optimizeQuality" color-interpolation="linearRGB" image-rendering="optimizeQuality"><path d="M1.2188 -7.0625 L1.2188 -8.4219 L9.8594 -8.4219 L9.8594 -7.0625 L1.2188 -7.0625 ZM1.2188 -3.0156 L1.2188 -4.3594 L9.8594 -4.3594 L9.8594 -3.0156 L1.2188 -3.0156 Z" stroke="none"/></g><g text-rendering="optimizeLegibility" transform="translate(30.4375,14)" color-rendering="optimizeQuality" color-interpolation="linearRGB" image-rendering="optimizeQuality"><path d="M11.4844 -7.2031 L10.5469 -7.2031 Q10.3438 -7.7812 10.0469 -8.1172 Q9.75 -8.4531 9.3828 -8.5938 Q9.0156 -8.7344 8.4688 -8.7344 Q7.6875 -8.7344 7.2266 -8.3672 Q6.7656 -8 6.7656 -7.3594 Q6.7656 -6.9219 6.9531 -6.625 Q7.1406 -6.3281 7.5312 -6.0781 Q7.9219 -5.8281 8.9062 -5.4062 Q9.9062 -4.9688 10.4453 -4.6094 Q10.9844 -4.25 11.2891 -3.7734 Q11.5938 -3.2969 11.5938 -2.625 Q11.5938 -1.8594 11.3359 -1.3281 Q11.0781 -0.7969 10.5938 -0.4688 Q10.1094 -0.1406 9.4531 0.0078 Q8.7969 0.1562 8.0156 0.1562 Q7.1875 0.1562 6.4219 0.0312 Q5.6562 -0.0938 4.9219 -0.2812 L4.9219 -2.3281 L5.875 -2.3281 Q6.1406 -1.4219 6.6562 -1.0156 Q7.1719 -0.6094 8.0781 -0.6094 Q8.4375 -0.6094 8.7734 -0.6875 Q9.1094 -0.7656 9.375 -0.9375 Q9.6406 -1.1094 9.7969 -1.3984 Q9.9531 -1.6875 9.9531 -2.125 Q9.9531 -2.625 9.7578 -2.9375 Q9.5625 -3.25 9.1484 -3.5078 Q8.7344 -3.7656 7.7031 -4.2031 Q6.8125 -4.5781 6.2734 -4.9297 Q5.7344 -5.2812 5.4297 -5.7578 Q5.125 -6.2344 5.125 -6.8906 Q5.125 -7.7031 5.5625 -8.2891 Q6 -8.875 6.8203 -9.1875 Q7.6406 -9.5 8.7344 -9.5 Q9.375 -9.5 9.9766 -9.4375 Q10.5781 -9.375 11.4844 -9.1875 L11.4844 -7.2031 ZM13.3594 -8.8438 Q13.8438 -8.9219 14.1484 -9.1172 Q14.4531 -9.3125 14.625 -9.625 Q14.7969 -9.9375 14.8984 -10.3984 Q15 -10.8594 15.0938 -11.75 L16.4844 -11.75 L16.4844 -9.3438 L19.6406 -9.3438 L19.6406 -8.3438 L16.4844 -8.3438 L16.4844 -4 Q16.4844 -3.0625 16.5625 -2.5 Q16.6406 -1.9375 16.8594 -1.6172 Q17.0781 -1.2969 17.3516 -1.1641 Q17.625 -1.0312 18.0469 -1.0312 Q18.4375 -1.0312 18.7812 -1.1875 Q19.125 -1.3438 19.4531 -1.6562 L19.8906 -1.125 Q19.2031 -0.4531 18.5859 -0.1484 Q17.9688 0.1562 17.2969 0.1562 Q16.0312 0.1562 15.4219 -0.5938 Q14.8125 -1.3438 14.8125 -2.9375 L14.8125 -8.3438 L13.3594 -8.3438 L13.3594 -8.8438 ZM23.5781 -7.7188 L23.7188 -7.6875 Q24.2656 -8.3438 24.7188 -8.7188 Q25.1719 -9.0938 25.7031 -9.2969 Q26.2344 -9.5 26.9219 -9.5 Q27.4844 -9.5 27.9375 -9.4375 L27.9375 -7.2031 L26.8438 -7.2031 Q26.6094 -7.7188 26.3438 -7.9609 Q26.0781 -8.2031 25.6094 -8.2031 Q25.2656 -8.2031 24.9219 -8 Q24.5781 -7.7969 24.25 -7.4062 Q23.9219 -7.0156 23.8047 -6.6719 Q23.6875 -6.3281 23.6875 -5.8594 L23.6875 -2.4375 Q23.6875 -1.5469 23.7891 -1.2109 Q23.8906 -0.875 24.1406 -0.7188 Q24.3906 -0.5625 24.8906 -0.4844 L24.8906 0 L20.9531 0 L20.9531 -0.4844 Q21.3281 -0.5938 21.4922 -0.6797 Q21.6562 -0.7656 21.7734 -0.9219 Q21.8906 -1.0781 21.9453 -1.4062 Q22 -1.7344 22 -2.4062 L22 -6.6719 Q22 -7.2969 21.9844 -7.6797 Q21.9688 -8.0625 21.8516 -8.2891 Q21.7344 -8.5156 21.4922 -8.625 Q21.25 -8.7344 20.8125 -8.8125 L20.8125 -9.3281 L23.0938 -9.4219 L23.6875 -9.4219 L23.5781 -7.7188 ZM36.75 -1.6562 Q36.125 -1 35.6016 -0.6328 Q35.0781 -0.2656 34.4531 -0.0547 Q33.8281 0.1562 33.0781 0.1562 Q31.0625 0.1562 30.0391 -1.0469 Q29.0156 -2.25 29.0156 -4.6094 Q29.0156 -6.0625 29.5391 -7.1797 Q30.0625 -8.2969 31.0312 -8.8984 Q32 -9.5 33.25 -9.5 Q34.2344 -9.5 34.9297 -9.1875 Q35.625 -8.875 36.0391 -8.3359 Q36.4531 -7.7969 36.6875 -6.9688 Q36.9219 -6.1406 36.9531 -4.8125 L30.7969 -4.8125 L30.7969 -4.6406 Q30.7969 -3.4844 31.0547 -2.7031 Q31.3125 -1.9219 31.9062 -1.4766 Q32.5 -1.0312 33.4375 -1.0312 Q34.2344 -1.0312 34.875 -1.3281 Q35.5156 -1.625 36.1562 -2.2969 L36.75 -1.6562 ZM35.1094 -5.625 Q35.0469 -6.6875 34.8438 -7.3516 Q34.6406 -8.0156 34.2344 -8.375 Q33.8281 -8.7344 33.1562 -8.7344 Q32.1562 -8.7344 31.5547 -7.9297 Q30.9531 -7.125 30.8438 -5.625 L35.1094 -5.625 ZM45.4844 -7.2031 L44.5469 -7.2031 Q44.3438 -7.7812 44.0469 -8.1172 Q43.75 -8.4531 43.3828 -8.5938 Q43.0156 -8.7344 42.4688 -8.7344 Q41.6875 -8.7344 41.2266 -8.3672 Q40.7656 -8 40.7656 -7.3594 Q40.7656 -6.9219 40.9531 -6.625 Q41.1406 -6.3281 41.5312 -6.0781 Q41.9219 -5.8281 42.9062 -5.4062 Q43.9062 -4.9688 44.4453 -4.6094 Q44.9844 -4.25 45.2891 -3.7734 Q45.5938 -3.2969 45.5938 -2.625 Q45.5938 -1.8594 45.3359 -1.3281 Q45.0781 -0.7969 44.5938 -0.4688 Q44.1094 -0.1406 43.4531 0.0078 Q42.7969 0.1562 42.0156 0.1562 Q41.1875 0.1562 40.4219 0.0312 Q39.6562 -0.0938 38.9219 -0.2812 L38.9219 -2.3281 L39.875 -2.3281 Q40.1406 -1.4219 40.6562 -1.0156 Q41.1719 -0.6094 42.0781 -0.6094 Q42.4375 -0.6094 42.7734 -0.6875 Q43.1094 -0.7656 43.375 -0.9375 Q43.6406 -1.1094 43.7969 -1.3984 Q43.9531 -1.6875 43.9531 -2.125 Q43.9531 -2.625 43.7578 -2.9375 Q43.5625 -3.25 43.1484 -3.5078 Q42.7344 -3.7656 41.7031 -4.2031 Q40.8125 -4.5781 40.2734 -4.9297 Q39.7344 -5.2812 39.4297 -5.7578 Q39.125 -6.2344 39.125 -6.8906 Q39.125 -7.7031 39.5625 -8.2891 Q40 -8.875 40.8203 -9.1875 Q41.6406 -9.5 42.7344 -9.5 Q43.375 -9.5 43.9766 -9.4375 Q44.5781 -9.375 45.4844 -9.1875 L45.4844 -7.2031 ZM54.4844 -7.2031 L53.5469 -7.2031 Q53.3438 -7.7812 53.0469 -8.1172 Q52.75 -8.4531 52.3828 -8.5938 Q52.0156 -8.7344 51.4688 -8.7344 Q50.6875 -8.7344 50.2266 -8.3672 Q49.7656 -8 49.7656 -7.3594 Q49.7656 -6.9219 49.9531 -6.625 Q50.1406 -6.3281 50.5312 -6.0781 Q50.9219 -5.8281 51.9062 -5.4062 Q52.9062 -4.9688 53.4453 -4.6094 Q53.9844 -4.25 54.2891 -3.7734 Q54.5938 -3.2969 54.5938 -2.625 Q54.5938 -1.8594 54.3359 -1.3281 Q54.0781 -0.7969 53.5938 -0.4688 Q53.1094 -0.1406 52.4531 0.0078 Q51.7969 0.1562 51.0156 0.1562 Q50.1875 0.1562 49.4219 0.0312 Q48.6562 -0.0938 47.9219 -0.2812 L47.9219 -2.3281 L48.875 -2.3281 Q49.1406 -1.4219 49.6562 -1.0156 Q50.1719 -0.6094 51.0781 -0.6094 Q51.4375 -0.6094 51.7734 -0.6875 Q52.1094 -0.7656 52.375 -0.9375 Q52.6406 -1.1094 52.7969 -1.3984 Q52.9531 -1.6875 52.9531 -2.125 Q52.9531 -2.625 52.7578 -2.9375 Q52.5625 -3.25 52.1484 -3.5078 Q51.7344 -3.7656 50.7031 -4.2031 Q49.8125 -4.5781 49.2734 -4.9297 Q48.7344 -5.2812 48.4297 -5.7578 Q48.125 -6.2344 48.125 -6.8906 Q48.125 -7.7031 48.5625 -8.2891 Q49 -8.875 49.8203 -9.1875 Q50.6406 -9.5 51.7344 -9.5 Q52.375 -9.5 52.9766 -9.4375 Q53.5781 -9.375 54.4844 -9.1875 L54.4844 -7.2031 ZM63.7344 -13.1719 L63.7344 -11.2656 L61.9375 -11.2656 L61.9375 -13.1719 L63.7344 -13.1719 ZM60.9531 -0.4844 Q61.3281 -0.5938 61.4922 -0.6797 Q61.6562 -0.7656 61.7656 -0.9219 Q61.875 -1.0781 61.9375 -1.4062 Q62 -1.7344 62 -2.4062 L62 -6.6719 Q62 -7.2969 61.9844 -7.6797 Q61.9688 -8.0625 61.8516 -8.2891 Q61.7344 -8.5156 61.4922 -8.625 Q61.25 -8.7344 60.8125 -8.8125 L60.8125 -9.3438 L63.0938 -9.4219 L63.6875 -9.4219 L63.6875 -2.4375 Q63.6875 -1.6094 63.7656 -1.2812 Q63.8438 -0.9531 64.0625 -0.7812 Q64.2812 -0.6094 64.7812 -0.4844 L64.7812 0 L60.9531 0 L60.9531 -0.4844 ZM76.4531 0 L72.6094 0 L72.6094 -0.4844 Q73 -0.5938 73.1641 -0.6797 Q73.3281 -0.7656 73.4375 -0.9219 Q73.5469 -1.0781 73.6094 -1.4062 Q73.6719 -1.7344 73.6719 -2.4062 L73.6719 -4.9688 Q73.6719 -5.6406 73.6328 -6.2031 Q73.5938 -6.7656 73.5 -7.1172 Q73.4062 -7.4688 73.2812 -7.6719 Q73.1562 -7.875 72.9688 -8.0156 Q72.7812 -8.1562 72.5469 -8.2422 Q72.3125 -8.3281 71.9375 -8.3281 Q71.5625 -8.3281 71.2188 -8.1719 Q70.875 -8.0156 70.4609 -7.6484 Q70.0469 -7.2812 69.8672 -6.9141 Q69.6875 -6.5469 69.6875 -6.0781 L69.6875 -2.4375 Q69.6875 -1.6094 69.7656 -1.2812 Q69.8438 -0.9531 70.0625 -0.7812 Q70.2812 -0.6094 70.7812 -0.4844 L70.7812 0 L66.9531 0 L66.9531 -0.4844 Q67.3281 -0.5938 67.4922 -0.6797 Q67.6562 -0.7656 67.7656 -0.9219 Q67.875 -1.0781 67.9375 -1.4062 Q68 -1.7344 68 -2.4062 L68 -6.6719 Q68 -7.2969 67.9844 -7.6797 Q67.9688 -8.0625 67.8516 -8.2891 Q67.7344 -8.5156 67.4922 -8.625 Q67.25 -8.7344 66.8125 -8.8125 L66.8125 -9.3438 L69.0938 -9.4219 L69.6875 -9.4219 L69.5781 -7.8281 L69.7188 -7.7969 Q70.4375 -8.5312 70.8828 -8.8438 Q71.3281 -9.1562 71.7812 -9.3281 Q72.2344 -9.5 72.75 -9.5 Q73.2812 -9.5 73.6953 -9.375 Q74.1094 -9.25 74.4219 -8.9922 Q74.7344 -8.7344 74.9453 -8.3594 Q75.1562 -7.9844 75.2578 -7.4609 Q75.3594 -6.9375 75.3594 -6.125 L75.3594 -2.4375 Q75.3594 -1.7656 75.3984 -1.4609 Q75.4375 -1.1562 75.5312 -0.9922 Q75.625 -0.8281 75.8125 -0.7188 Q76 -0.6094 76.4531 -0.4844 L76.4531 0 ZM84.5625 -2.4375 Q84.5625 -1.6094 84.6406 -1.2812 Q84.7188 -0.9531 84.9375 -0.7812 Q85.1562 -0.6094 85.6562 -0.4844 L85.6562 0 L81.7656 0 L81.7656 -0.4844 Q82.2656 -0.6094 82.4531 -0.7422 Q82.6406 -0.875 82.7266 -1.0703 Q82.8125 -1.2656 82.8438 -1.5938 Q82.875 -1.9219 82.875 -2.4375 L82.875 -10.6094 Q82.875 -11.5469 82.8594 -11.9219 Q82.8438 -12.2969 82.7812 -12.5547 Q82.7188 -12.8125 82.6094 -12.9609 Q82.5 -13.1094 82.3047 -13.1953 Q82.1094 -13.2812 81.6094 -13.375 L81.6094 -13.875 L83.9688 -13.9688 L84.5625 -13.9688 L84.5625 -2.4375 ZM92.5938 -1.3906 L92.4531 -1.4375 Q91.5938 -0.5625 90.8516 -0.2031 Q90.1094 0.1562 89.2656 0.1562 Q88.5156 0.1562 87.9531 -0.1328 Q87.3906 -0.4219 87.0859 -0.9453 Q86.7812 -1.4688 86.7812 -2.1562 Q86.7812 -3.5781 88.1953 -4.3516 Q89.6094 -5.125 92.4219 -5.25 L92.4219 -5.8906 Q92.4219 -6.9062 92.2266 -7.4922 Q92.0312 -8.0781 91.6172 -8.3516 Q91.2031 -8.625 90.5 -8.625 Q89.7344 -8.625 89.2656 -8.2266 Q88.7969 -7.8281 88.5625 -7.0156 L87.2969 -7.0156 L87.2969 -8.2969 Q88.2344 -8.7812 88.8594 -9.0078 Q89.4844 -9.2344 90.1094 -9.3672 Q90.7344 -9.5 91.375 -9.5 Q92.3438 -9.5 92.9297 -9.1953 Q93.5156 -8.8906 93.8047 -8.2578 Q94.0938 -7.625 94.0938 -6.3438 L94.0938 -2.9375 Q94.0938 -2.2188 94.1016 -1.9219 Q94.1094 -1.625 94.1641 -1.3672 Q94.2188 -1.1094 94.3125 -0.9609 Q94.4062 -0.8125 94.6016 -0.7031 Q94.7969 -0.5938 95.2188 -0.4844 L95.2188 0 L92.5469 0 L92.5938 -1.3906 ZM92.4219 -4.4531 Q90.4375 -4.4375 89.4531 -3.9297 Q88.4688 -3.4219 88.4688 -2.3906 Q88.4688 -1.8438 88.6953 -1.5156 Q88.9219 -1.1875 89.2656 -1.0703 Q89.6094 -0.9531 90.0781 -0.9531 Q90.7344 -0.9531 91.2812 -1.2734 Q91.8281 -1.5938 92.125 -2.0938 Q92.4219 -2.5938 92.4219 -3.0781 L92.4219 -4.4531 ZM101.0781 0.7969 Q100.5469 2.0156 100.0391 2.7656 Q99.5312 3.5156 98.9219 3.8984 Q98.3125 4.2812 97.4688 4.2812 Q96.9219 4.2812 96.25 4.1562 L96.25 2.2188 L97.125 2.2188 Q97.2344 2.625 97.4141 2.7812 Q97.5938 2.9375 97.9219 2.9375 Q98.2188 2.9375 98.4453 2.8203 Q98.6719 2.7031 98.9219 2.4297 Q99.1719 2.1562 99.5078 1.5938 Q99.8438 1.0312 100.2656 0.1562 L97.5312 -7.2031 Q97.2656 -7.9062 97.1094 -8.1953 Q96.9531 -8.4844 96.7656 -8.625 Q96.5781 -8.7656 96.2031 -8.8594 L96.2031 -9.3438 L100.1719 -9.3438 L100.1719 -8.8594 Q99.7188 -8.75 99.5312 -8.6484 Q99.3438 -8.5469 99.2578 -8.3828 Q99.1719 -8.2188 99.1719 -7.9688 Q99.1719 -7.7031 99.2344 -7.4219 Q99.2969 -7.1406 99.4219 -6.7656 L101.1719 -1.8594 L103.125 -6.5469 Q103.2812 -6.9375 103.375 -7.2656 Q103.4688 -7.5938 103.4688 -7.875 Q103.4688 -8.2969 103.2422 -8.5156 Q103.0156 -8.7344 102.4531 -8.8594 L102.4531 -9.3438 L106.0938 -9.3438 L106.0938 -8.8594 Q105.7188 -8.7812 105.5156 -8.6172 Q105.3125 -8.4531 105.1016 -8.1094 Q104.8906 -7.7656 104.6094 -7.1406 L101.0781 0.7969 ZM114.75 -1.6562 Q114.125 -1 113.6016 -0.6328 Q113.0781 -0.2656 112.4531 -0.0547 Q111.8281 0.1562 111.0781 0.1562 Q109.0625 0.1562 108.0391 -1.0469 Q107.0156 -2.25 107.0156 -4.6094 Q107.0156 -6.0625 107.5391 -7.1797 Q108.0625 -8.2969 109.0312 -8.8984 Q110 -9.5 111.25 -9.5 Q112.2344 -9.5 112.9297 -9.1875 Q113.625 -8.875 114.0391 -8.3359 Q114.4531 -7.7969 114.6875 -6.9688 Q114.9219 -6.1406 114.9531 -4.8125 L108.7969 -4.8125 L108.7969 -4.6406 Q108.7969 -3.4844 109.0547 -2.7031 Q109.3125 -1.9219 109.9062 -1.4766 Q110.5 -1.0312 111.4375 -1.0312 Q112.2344 -1.0312 112.875 -1.3281 Q113.5156 -1.625 114.1562 -2.2969 L114.75 -1.6562 ZM113.1094 -5.625 Q113.0469 -6.6875 112.8438 -7.3516 Q112.6406 -8.0156 112.2344 -8.375 Q111.8281 -8.7344 111.1562 -8.7344 Q110.1562 -8.7344 109.5547 -7.9297 Q108.9531 -7.125 108.8438 -5.625 L113.1094 -5.625 ZM119.5781 -7.7188 L119.7188 -7.6875 Q120.2656 -8.3438 120.7188 -8.7188 Q121.1719 -9.0938 121.7031 -9.2969 Q122.2344 -9.5 122.9219 -9.5 Q123.4844 -9.5 123.9375 -9.4375 L123.9375 -7.2031 L122.8438 -7.2031 Q122.6094 -7.7188 122.3438 -7.9609 Q122.0781 -8.2031 121.6094 -8.2031 Q121.2656 -8.2031 120.9219 -8 Q120.5781 -7.7969 120.25 -7.4062 Q119.9219 -7.0156 119.8047 -6.6719 Q119.6875 -6.3281 119.6875 -5.8594 L119.6875 -2.4375 Q119.6875 -1.5469 119.7891 -1.2109 Q119.8906 -0.875 120.1406 -0.7188 Q120.3906 -0.5625 120.8906 -0.4844 L120.8906 0 L116.9531 0 L116.9531 -0.4844 Q117.3281 -0.5938 117.4922 -0.6797 Q117.6562 -0.7656 117.7734 -0.9219 Q117.8906 -1.0781 117.9453 -1.4062 Q118 -1.7344 118 -2.4062 L118 -6.6719 Q118 -7.2969 117.9844 -7.6797 Q117.9688 -8.0625 117.8516 -8.2891 Q117.7344 -8.5156 117.4922 -8.625 Q117.25 -8.7344 116.8125 -8.8125 L116.8125 -9.3281 L119.0938 -9.4219 L119.6875 -9.4219 L119.5781 -7.7188 ZM133.0781 -5.6406 L134.3438 -7.25 Q134.5469 -7.5156 134.6797 -7.7656 Q134.8125 -8.0156 134.8125 -8.2656 Q134.8125 -8.5 134.6406 -8.6484 Q134.4688 -8.7969 134.125 -8.8594 L134.125 -9.3438 L137.3125 -9.3438 L137.3125 -8.8594 Q136.9531 -8.75 136.5625 -8.4375 Q136.1719 -8.125 135.625 -7.4375 L133.5938 -4.9531 L135.8281 -1.9531 Q136.2969 -1.3125 136.6797 -0.9688 Q137.0625 -0.625 137.4375 -0.4844 L137.4375 0 L133.5156 0 L133.5156 -0.4844 Q134.3281 -0.5781 134.3281 -1.0781 Q134.3281 -1.2969 134.2578 -1.4766 Q134.1875 -1.6562 134 -1.9062 L132.5938 -3.875 L131.0938 -1.9219 Q130.9219 -1.7031 130.8281 -1.5234 Q130.7344 -1.3438 130.7344 -1.125 Q130.7344 -0.8594 130.9141 -0.6875 Q131.0938 -0.5156 131.4844 -0.4844 L131.4844 0 L128.2188 0 L128.2188 -0.4844 Q128.5469 -0.5938 128.8047 -0.7734 Q129.0625 -0.9531 129.3359 -1.2266 Q129.6094 -1.5 130.0469 -2.0469 L132.0781 -4.5625 L130 -7.4062 Q129.5625 -8 129.3125 -8.2656 Q129.0625 -8.5312 128.8438 -8.6641 Q128.625 -8.7969 128.4062 -8.8594 L128.4062 -9.3438 L132.2344 -9.3438 L132.2344 -8.8594 Q131.4688 -8.7344 131.4688 -8.25 Q131.4688 -8.0312 131.5703 -7.8047 Q131.6719 -7.5781 131.8906 -7.3125 L133.0781 -5.6406 ZM143.5938 -4.3906 L139.0625 -4.3906 L139.0625 -5.9062 L143.5938 -5.9062 L143.5938 -4.3906 ZM152.5469 -10.6094 Q152.5469 -11.5469 152.5312 -11.9219 Q152.5156 -12.2969 152.4531 -12.5547 Q152.3906 -12.8125 152.2734 -12.9609 Q152.1562 -13.1094 151.9688 -13.1953 Q151.7812 -13.2812 151.2812 -13.375 L151.2812 -13.875 L153.6406 -13.9688 L154.2188 -13.9688 L154.2188 -2.6719 Q154.2188 -1.9062 154.25 -1.5781 Q154.2812 -1.25 154.375 -1.0547 Q154.4688 -0.8594 154.6797 -0.7344 Q154.8906 -0.6094 155.4219 -0.5156 L155.4219 0 L153.1094 0.0938 L152.5312 0.0938 L152.6406 -1.5 L152.5 -1.5469 Q151.8906 -0.8906 151.4375 -0.5625 Q150.9844 -0.2344 150.4688 -0.0391 Q149.9531 0.1562 149.3594 0.1562 Q147.7656 0.1562 146.8984 -1.0625 Q146.0312 -2.2812 146.0312 -4.5781 Q146.0312 -6.1719 146.5938 -7.2891 Q147.1562 -8.4062 148.1172 -8.9531 Q149.0781 -9.5 150.2812 -9.5 Q150.9219 -9.5 151.4531 -9.3984 Q151.9844 -9.2969 152.5469 -9.0625 L152.5469 -10.6094 ZM152.5469 -5.7969 Q152.5469 -6.5469 152.4766 -7.0078 Q152.4062 -7.4688 152.2422 -7.7812 Q152.0781 -8.0938 151.8047 -8.3125 Q151.5312 -8.5312 151.2031 -8.625 Q150.875 -8.7188 150.4219 -8.7188 Q149.1719 -8.7188 148.5156 -7.7188 Q147.8594 -6.7188 147.8594 -4.8438 Q147.8594 -2.9688 148.3984 -1.9922 Q148.9375 -1.0156 150.0312 -1.0156 Q150.4531 -1.0156 150.7422 -1.0859 Q151.0312 -1.1562 151.3047 -1.3203 Q151.5781 -1.4844 151.8594 -1.7656 Q152.1406 -2.0469 152.2734 -2.2812 Q152.4062 -2.5156 152.4766 -2.8203 Q152.5469 -3.125 152.5469 -3.6094 L152.5469 -5.7969 ZM159.7344 -13.1719 L159.7344 -11.2656 L157.9375 -11.2656 L157.9375 -13.1719 L159.7344 -13.1719 ZM156.9531 -0.4844 Q157.3281 -0.5938 157.4922 -0.6797 Q157.6562 -0.7656 157.7656 -0.9219 Q157.875 -1.0781 157.9375 -1.4062 Q158 -1.7344 158 -2.4062 L158 -6.6719 Q158 -7.2969 157.9844 -7.6797 Q157.9688 -8.0625 157.8516 -8.2891 Q157.7344 -8.5156 157.4922 -8.625 Q157.25 -8.7344 156.8125 -8.8125 L156.8125 -9.3438 L159.0938 -9.4219 L159.6875 -9.4219 L159.6875 -2.4375 Q159.6875 -1.6094 159.7656 -1.2812 Q159.8438 -0.9531 160.0625 -0.7812 Q160.2812 -0.6094 160.7812 -0.4844 L160.7812 0 L156.9531 0 L156.9531 -0.4844 ZM165.5781 -7.7188 L165.7188 -7.6875 Q166.2656 -8.3438 166.7188 -8.7188 Q167.1719 -9.0938 167.7031 -9.2969 Q168.2344 -9.5 168.9219 -9.5 Q169.4844 -9.5 169.9375 -9.4375 L169.9375 -7.2031 L168.8438 -7.2031 Q168.6094 -7.7188 168.3438 -7.9609 Q168.0781 -8.2031 167.6094 -8.2031 Q167.2656 -8.2031 166.9219 -8 Q166.5781 -7.7969 166.25 -7.4062 Q165.9219 -7.0156 165.8047 -6.6719 Q165.6875 -6.3281 165.6875 -5.8594 L165.6875 -2.4375 Q165.6875 -1.5469 165.7891 -1.2109 Q165.8906 -0.875 166.1406 -0.7188 Q166.3906 -0.5625 166.8906 -0.4844 L166.8906 0 L162.9531 0 L162.9531 -0.4844 Q163.3281 -0.5938 163.4922 -0.6797 Q163.6562 -0.7656 163.7734 -0.9219 Q163.8906 -1.0781 163.9453 -1.4062 Q164 -1.7344 164 -2.4062 L164 -6.6719 Q164 -7.2969 163.9844 -7.6797 Q163.9688 -8.0625 163.8516 -8.2891 Q163.7344 -8.5156 163.4922 -8.625 Q163.25 -8.7344 162.8125 -8.8125 L162.8125 -9.3281 L165.0938 -9.4219 L165.6875 -9.4219 L165.5781 -7.7188 ZM178.75 -1.6562 Q178.125 -1 177.6016 -0.6328 Q177.0781 -0.2656 176.4531 -0.0547 Q175.8281 0.1562 175.0781 0.1562 Q173.0625 0.1562 172.0391 -1.0469 Q171.0156 -2.25 171.0156 -4.6094 Q171.0156 -6.0625 171.5391 -7.1797 Q172.0625 -8.2969 173.0312 -8.8984 Q174 -9.5 175.25 -9.5 Q176.2344 -9.5 176.9297 -9.1875 Q177.625 -8.875 178.0391 -8.3359 Q178.4531 -7.7969 178.6875 -6.9688 Q178.9219 -6.1406 178.9531 -4.8125 L172.7969 -4.8125 L172.7969 -4.6406 Q172.7969 -3.4844 173.0547 -2.7031 Q173.3125 -1.9219 173.9062 -1.4766 Q174.5 -1.0312 175.4375 -1.0312 Q176.2344 -1.0312 176.875 -1.3281 Q177.5156 -1.625 178.1562 -2.2969 L178.75 -1.6562 ZM177.1094 -5.625 Q177.0469 -6.6875 176.8438 -7.3516 Q176.6406 -8.0156 176.2344 -8.375 Q175.8281 -8.7344 175.1562 -8.7344 Q174.1562 -8.7344 173.5547 -7.9297 Q172.9531 -7.125 172.8438 -5.625 L177.1094 -5.625 ZM188.2188 -9.1094 L188.2188 -7.0781 L186.9844 -7.0781 Q186.8125 -7.7031 186.5703 -8.0703 Q186.3281 -8.4375 186.0078 -8.5859 Q185.6875 -8.7344 185.2031 -8.7344 Q184.5156 -8.7344 183.9922 -8.2969 Q183.4688 -7.8594 183.1641 -6.9609 Q182.8594 -6.0625 182.8594 -4.75 Q182.8594 -3.9219 182.9766 -3.2344 Q183.0938 -2.5469 183.375 -2.0625 Q183.6562 -1.5781 184.125 -1.3047 Q184.5938 -1.0312 185.2812 -1.0312 Q185.9531 -1.0312 186.5391 -1.2891 Q187.125 -1.5469 187.75 -2.2188 L188.2969 -1.5781 Q187.7969 -1.0312 187.4219 -0.7344 Q187.0469 -0.4375 186.6094 -0.2344 Q186.1719 -0.0312 185.75 0.0625 Q185.3281 0.1562 184.8281 0.1562 Q182.9844 0.1562 182.0078 -1.0703 Q181.0312 -2.2969 181.0312 -4.6094 Q181.0312 -6.0625 181.5781 -7.1797 Q182.125 -8.2969 183.1094 -8.8984 Q184.0938 -9.5 185.375 -9.5 Q186.1875 -9.5 186.8672 -9.4062 Q187.5469 -9.3125 188.2188 -9.1094 ZM189.3594 -8.8438 Q189.8438 -8.9219 190.1484 -9.1172 Q190.4531 -9.3125 190.625 -9.625 Q190.7969 -9.9375 190.8984 -10.3984 Q191 -10.8594 191.0938 -11.75 L192.4844 -11.75 L192.4844 -9.3438 L195.6406 -9.3438 L195.6406 -8.3438 L192.4844 -8.3438 L192.4844 -4 Q192.4844 -3.0625 192.5625 -2.5 Q192.6406 -1.9375 192.8594 -1.6172 Q193.0781 -1.2969 193.3516 -1.1641 Q193.625 -1.0312 194.0469 -1.0312 Q194.4375 -1.0312 194.7812 -1.1875 Q195.125 -1.3438 195.4531 -1.6562 L195.8906 -1.125 Q195.2031 -0.4531 194.5859 -0.1484 Q193.9688 0.1562 193.2969 0.1562 Q192.0312 0.1562 191.4219 -0.5938 Q190.8125 -1.3438 190.8125 -2.9375 L190.8125 -8.3438 L189.3594 -8.3438 L189.3594 -8.8438 ZM199.7344 -13.1719 L199.7344 -11.2656 L197.9375 -11.2656 L197.9375 -13.1719 L199.7344 -13.1719 ZM196.9531 -0.4844 Q197.3281 -0.5938 197.4922 -0.6797 Q197.6562 -0.7656 197.7656 -0.9219 Q197.875 -1.0781 197.9375 -1.4062 Q198 -1.7344 198 -2.4062 L198 -6.6719 Q198 -7.2969 197.9844 -7.6797 Q197.9688 -8.0625 197.8516 -8.2891 Q197.7344 -8.5156 197.4922 -8.625 Q197.25 -8.7344 196.8125 -8.8125 L196.8125 -9.3438 L199.0938 -9.4219 L199.6875 -9.4219 L199.6875 -2.4375 Q199.6875 -1.6094 199.7656 -1.2812 Q199.8438 -0.9531 200.0625 -0.7812 Q200.2812 -0.6094 200.7812 -0.4844 L200.7812 0 L196.9531 0 L196.9531 -0.4844 ZM207.2031 0.1562 Q205.1719 0.1562 204.1016 -1.0391 Q203.0312 -2.2344 203.0312 -4.5781 Q203.0312 -6.1875 203.5938 -7.3047 Q204.1562 -8.4219 205.1328 -8.9609 Q206.1094 -9.5 207.3594 -9.5 Q209.4375 -9.5 210.5156 -8.2891 Q211.5938 -7.0781 211.5938 -4.7969 Q211.5938 -3.1719 211.0547 -2.0625 Q210.5156 -0.9531 209.5312 -0.3984 Q208.5469 0.1562 207.2031 0.1562 ZM204.875 -4.7812 Q204.875 -2.7812 205.5156 -1.6953 Q206.1562 -0.6094 207.3438 -0.6094 Q208 -0.6094 208.4609 -0.9297 Q208.9219 -1.25 209.2031 -1.7891 Q209.4844 -2.3281 209.6172 -3.0312 Q209.75 -3.7344 209.75 -4.5156 Q209.75 -5.9531 209.4297 -6.8984 Q209.1094 -7.8438 208.5625 -8.2891 Q208.0156 -8.7344 207.3125 -8.7344 Q206.125 -8.7344 205.5 -7.7109 Q204.875 -6.6875 204.875 -4.7812 ZM223.4531 0 L219.6094 0 L219.6094 -0.4844 Q220 -0.5938 220.1641 -0.6797 Q220.3281 -0.7656 220.4375 -0.9219 Q220.5469 -1.0781 220.6094 -1.4062 Q220.6719 -1.7344 220.6719 -2.4062 L220.6719 -4.9688 Q220.6719 -5.6406 220.6328 -6.2031 Q220.5938 -6.7656 220.5 -7.1172 Q220.4062 -7.4688 220.2812 -7.6719 Q220.1562 -7.875 219.9688 -8.0156 Q219.7812 -8.1562 219.5469 -8.2422 Q219.3125 -8.3281 218.9375 -8.3281 Q218.5625 -8.3281 218.2188 -8.1719 Q217.875 -8.0156 217.4609 -7.6484 Q217.0469 -7.2812 216.8672 -6.9141 Q216.6875 -6.5469 216.6875 -6.0781 L216.6875 -2.4375 Q216.6875 -1.6094 216.7656 -1.2812 Q216.8438 -0.9531 217.0625 -0.7812 Q217.2812 -0.6094 217.7812 -0.4844 L217.7812 0 L213.9531 0 L213.9531 -0.4844 Q214.3281 -0.5938 214.4922 -0.6797 Q214.6562 -0.7656 214.7656 -0.9219 Q214.875 -1.0781 214.9375 -1.4062 Q215 -1.7344 215 -2.4062 L215 -6.6719 Q215 -7.2969 214.9844 -7.6797 Q214.9688 -8.0625 214.8516 -8.2891 Q214.7344 -8.5156 214.4922 -8.625 Q214.25 -8.7344 213.8125 -8.8125 L213.8125 -9.3438 L216.0938 -9.4219 L216.6875 -9.4219 L216.5781 -7.8281 L216.7188 -7.7969 Q217.4375 -8.5312 217.8828 -8.8438 Q218.3281 -9.1562 218.7812 -9.3281 Q219.2344 -9.5 219.75 -9.5 Q220.2812 -9.5 220.6953 -9.375 Q221.1094 -9.25 221.4219 -8.9922 Q221.7344 -8.7344 221.9453 -8.3594 Q222.1562 -7.9844 222.2578 -7.4609 Q222.3594 -6.9375 222.3594 -6.125 L222.3594 -2.4375 Q222.3594 -1.7656 222.3984 -1.4609 Q222.4375 -1.1562 222.5312 -0.9922 Q222.625 -0.8281 222.8125 -0.7188 Q223 -0.6094 223.4531 -0.4844 L223.4531 0 Z" stroke="none"/></g></g></svg>