<?xml version="1.0" encoding="UTF-8" standalone="no"?><svg xmlns="http://www.w3.org/2000/svg" xmlns:xlink="http://www.w3.org/1999/xlink" stroke-dasharray="none" shape-rendering="auto" font-family="'Dialog'" width="331.812600" text-rendering="auto" fill-opacity="1" contentScriptType="text/ecmascript" color-interpolation="auto" color-rendering="auto" preserveAspectRatio="xMidYMid meet" font-size="12" fill="black" stroke="black" image-rendering="auto" stroke-miterlimit="10" zoomAndPan="magnify" version="1.0" stroke-linecap="square" stroke-linejoin="miter" contentStyleType="text/css" font-style="normal" height="44" stroke-width="1" stroke-dashoffset="0" font-weight="normal" stroke-opacity="1" y="-15.000000"><!--Converted from MathML using JEuclid--><defs id="genericDefs"/><g><g text-rendering="optimizeLegibility" transform="translate(0,29)" color-rendering="optimizeQuality" color-interpolation="linearRGB" image-rendering="optimizeQuality"><path d="M8.7344 -6.8281 Q9.6562 -6.4688 10.1406 -5.7969 Q10.625 -5.125 10.625 -4.2812 Q10.625 -3.2656 10.2578 -2.4766 Q9.8906 -1.6875 9.1016 -1.0859 Q8.3125 -0.4844 7.2891 -0.2422 Q6.2656 0 4.75 0 L0.4062 0 L0.5156 -0.4844 Q0.8906 -0.5312 1.0781 -0.6641 Q1.2656 -0.7969 1.3906 -1.0312 Q1.5156 -1.2656 1.625 -1.6016 Q1.7344 -1.9375 1.9375 -2.9062 L3.6094 -10.4375 Q3.8125 -11.4062 3.8125 -11.9688 Q3.8125 -12.4531 3.5938 -12.6406 Q3.375 -12.8281 2.8594 -12.8594 L2.9688 -13.3281 L7.7969 -13.3281 Q9.2656 -13.3281 10.1484 -13.0234 Q11.0312 -12.7188 11.4453 -12.125 Q11.8594 -11.5312 11.8594 -10.625 Q11.8594 -9.3438 11.0781 -8.3906 Q10.2969 -7.4375 8.7656 -6.9375 L8.7344 -6.8281 ZM6.0469 -7.3594 Q7.0625 -7.3594 7.6797 -7.4922 Q8.2969 -7.625 8.6875 -7.8984 Q9.0781 -8.1719 9.3906 -8.5391 Q9.7031 -8.9062 9.8828 -9.4062 Q10.0625 -9.9062 10.0625 -10.5781 Q10.0625 -11 9.9141 -11.3672 Q9.7656 -11.7344 9.4062 -11.9922 Q9.0469 -12.25 8.5859 -12.3594 Q8.125 -12.4688 7.3594 -12.4688 Q6.5 -12.4688 5.7656 -12.4375 L4.6719 -7.3594 L6.0469 -7.3594 ZM3.25 -0.9062 Q4.0156 -0.8594 4.6719 -0.8594 Q6.1562 -0.8594 6.9609 -1.2344 Q7.7656 -1.6094 8.2656 -2.4453 Q8.7656 -3.2812 8.7656 -4.4531 Q8.7656 -5.0938 8.5156 -5.5312 Q8.2656 -5.9688 7.7188 -6.2344 Q7.1719 -6.5 6.2344 -6.5 L4.4688 -6.5 L3.25 -0.9062 Z" stroke="none"/></g><g text-rendering="optimizeLegibility" transform="translate(12.6406,29)" color-rendering="optimizeQuality" color-interpolation="linearRGB" image-rendering="optimizeQuality"><path d="M1.2188 -7.0625 L1.2188 -8.4219 L9.8594 -8.4219 L9.8594 -7.0625 L1.2188 -7.0625 ZM1.2188 -3.0156 L1.2188 -4.3594 L9.8594 -4.3594 L9.8594 -3.0156 L1.2188 -3.0156 Z" stroke="none"/></g><g text-rendering="optimizeLegibility" transform="translate(24.7344,32.2951) matrix(1,0,0,2.1535,0,0)" color-rendering="optimizeQuality" color-interpolation="linearRGB" image-rendering="optimizeQuality"><path d="M7.2188 4.25 Q5.5625 4.25 4.5078 3.75 Q3.4531 3.25 2.8672 2.2344 Q2.2812 1.2188 2.0234 -0.4141 Q1.7656 -2.0469 1.7656 -4.8438 Q1.7656 -7.625 2.0234 -9.2656 Q2.2812 -10.9062 2.8672 -11.9453 Q3.4531 -12.9844 4.5078 -13.5 Q5.5625 -14.0156 7.2188 -14.0156 L7.2188 -13.2188 Q6.5312 -13.2188 6 -13.0938 Q5.4062 -12.9531 4.9844 -12.5625 Q4.5156 -12.1406 4.2344 -11.375 Q3.8906 -10.4688 3.7188 -8.9844 Q3.5469 -7.4062 3.5469 -4.9219 Q3.5469 -2.7188 3.6953 -1.1797 Q3.8438 0.3594 4.1875 1.3281 Q4.4531 2.1562 4.8594 2.6094 Q5.2188 3.0156 5.7188 3.2188 Q6.2969 3.4531 7.2188 3.4531 L7.2188 4.25 Z" stroke="none"/></g><g text-rendering="optimizeLegibility" stroke-width="1.6667" color-interpolation="linearRGB" color-rendering="optimizeQuality" image-rendering="optimizeQuality"><line y2="21.78" fill="none" x1="35.6309" x2="52.0059" y1="21.78"/><path d="M4.75 -1.7812 Q4.75 -1.3906 4.7969 -1.1875 Q4.8438 -0.9844 4.9531 -0.8594 Q5.0625 -0.7344 5.2734 -0.6641 Q5.4844 -0.5938 5.8047 -0.5547 Q6.125 -0.5156 6.6562 -0.5 L6.6562 0 L1.6094 0 L1.6094 -0.5 Q2.3594 -0.5312 2.6875 -0.5938 Q3.0156 -0.6562 3.1875 -0.7656 Q3.3594 -0.875 3.4375 -1.0938 Q3.5156 -1.3125 3.5156 -1.7812 L3.5156 -7.3281 Q3.5156 -7.6094 3.4219 -7.7344 Q3.3281 -7.8594 3.1406 -7.8594 Q2.9219 -7.8594 2.5156 -7.6328 Q2.1094 -7.4062 1.5156 -7 L1.2188 -7.5312 L4.4219 -9.4375 L4.7969 -9.4375 Q4.75 -8.7812 4.75 -7.625 L4.75 -1.7812 Z" stroke-width="1" transform="translate(40.4903,19.2689)" stroke="none"/></g><g text-rendering="optimizeLegibility" transform="translate(35.6309,36.8927)" color-rendering="optimizeQuality" color-interpolation="linearRGB" image-rendering="optimizeQuality"><path d="M7.5469 -5.6094 L5.5312 -5.6094 L5.5156 -5.5625 Q6.4531 -4.8906 6.4531 -3.625 Q6.4531 -2.2188 5.4922 -1.0547 Q4.5312 0.1094 2.8438 0.1094 Q1.8125 0.1094 1.1953 -0.5547 Q0.5781 -1.2188 0.5781 -2.3281 Q0.5781 -3.4531 1.0234 -4.3359 Q1.4688 -5.2188 2.1875 -5.7344 Q2.9062 -6.25 3.6875 -6.3906 Q4.4688 -6.5312 5.8281 -6.5312 L7.7344 -6.5312 L7.5469 -5.6094 ZM4.6719 -5.5781 Q3.8125 -5.5781 3.2422 -5.2422 Q2.6719 -4.9062 2.2188 -4.0938 Q1.7656 -3.2812 1.7656 -2.0156 Q1.7656 -1.2656 2.1172 -0.8516 Q2.4688 -0.4375 2.9844 -0.4375 Q3.9219 -0.4375 4.5781 -1.5 Q5.2344 -2.5625 5.2344 -3.8594 Q5.2344 -4.875 4.6719 -5.5781 Z" stroke="none"/></g><g text-rendering="optimizeLegibility" transform="translate(43.5684,41.3692)" color-rendering="optimizeQuality" color-interpolation="linearRGB" image-rendering="optimizeQuality"><path d="M4.625 -4.4219 Q3.6719 -3.4219 2.6406 -2.4375 L3.0938 -1.3594 Q3.2656 -0.9375 3.375 -0.7344 Q3.4844 -0.5312 3.5703 -0.4375 Q3.6562 -0.3438 3.75 -0.3047 Q3.8438 -0.2656 4.0312 -0.2344 L3.9688 0 L2.7656 0 L2.0781 -1.9688 Q1.9688 -1.8594 1.7734 -1.6797 Q1.5781 -1.5 1.3984 -1.2891 Q1.2188 -1.0781 1.1406 -0.9531 Q1.0625 -0.8281 1.0469 -0.7344 Q1.0312 -0.6406 1.0312 -0.5469 Q1.0312 -0.4219 1.1016 -0.3438 Q1.1719 -0.2656 1.3438 -0.2344 L1.2812 0 L-0.1094 0 L-0.2031 -0.2344 Q0.875 -1.3906 1.9062 -2.3594 L1.4375 -3.4375 Q1.2969 -3.7812 1.2109 -3.9531 Q1.125 -4.125 1.0469 -4.2188 Q0.9688 -4.3125 0.8594 -4.3672 Q0.75 -4.4219 0.5625 -4.4219 L0.6094 -4.6719 L1.8281 -4.6719 L2.4688 -2.8281 Q2.7188 -3.0469 2.9297 -3.2812 Q3.1406 -3.5156 3.2344 -3.6562 Q3.3281 -3.7969 3.3594 -3.8984 Q3.3906 -4 3.3906 -4.125 Q3.3906 -4.3906 3.0781 -4.4219 L3.125 -4.6719 L4.5156 -4.6719 L4.625 -4.4219 Z" stroke="none"/></g><g text-rendering="optimizeLegibility" transform="translate(48.1934,41.3692)" color-rendering="optimizeQuality" color-interpolation="linearRGB" image-rendering="optimizeQuality"><path d="M3.2969 -0.9062 Q2.8906 -0.4219 2.5 -0.1719 Q2.1094 0.0781 1.6719 0.0781 Q1.1562 0.0781 0.9062 -0.1875 Q0.6562 -0.4531 0.6562 -0.9531 Q0.6562 -1.2656 0.7344 -1.6406 L1.3438 -4.1719 L0.6094 -4.1719 L0.6719 -4.4219 Q0.9531 -4.4531 1.125 -4.5469 Q1.2969 -4.6406 1.4141 -4.7891 Q1.5312 -4.9375 1.625 -5.1797 Q1.7188 -5.4219 1.8594 -5.875 L2.5469 -5.875 L2.2656 -4.6719 L3.8125 -4.6719 L3.7188 -4.1719 L2.1562 -4.1719 L1.6875 -2.2812 Q1.5 -1.4844 1.5 -1.0938 Q1.5 -0.7969 1.625 -0.6484 Q1.75 -0.5 2 -0.5 Q2.2344 -0.5 2.4766 -0.6719 Q2.7188 -0.8438 3.0156 -1.1875 L3.2969 -0.9062 Z" stroke="none"/></g><g text-rendering="optimizeLegibility" transform="translate(44.6778,31.3067)" color-rendering="optimizeQuality" color-interpolation="linearRGB" image-rendering="optimizeQuality"><path d="M1.2344 0.0781 Q1.0781 0.8594 0.7891 1.3203 Q0.5 1.7812 0.0781 1.9844 Q-0.3438 2.1875 -0.9219 2.1875 Q-1.1406 2.1875 -1.3125 2.1406 L-1.2031 1.7031 Q-1.0781 1.75 -0.8594 1.75 Q-0.5938 1.75 -0.4375 1.6797 Q-0.2812 1.6094 -0.1406 1.4531 Q0 1.2969 0.125 1 Q0.25 0.7031 0.3594 0.2188 L1.3594 -4.1719 L0.7656 -4.1719 L0.8281 -4.4219 Q1.0625 -4.4531 1.1641 -4.4922 Q1.2656 -4.5312 1.3203 -4.6016 Q1.375 -4.6719 1.4297 -4.8047 Q1.4844 -4.9375 1.5781 -5.25 Q1.8281 -6.125 2.3672 -6.5703 Q2.9062 -7.0156 3.75 -7.0156 Q4.2188 -7.0156 4.5781 -6.9375 L4.375 -6.1094 L3.9531 -6.1094 Q3.875 -6.375 3.7656 -6.5 Q3.6562 -6.625 3.4531 -6.625 Q3.1719 -6.625 2.9766 -6.4766 Q2.7812 -6.3281 2.6406 -6.0234 Q2.5 -5.7188 2.3906 -5.2031 L2.2656 -4.6719 L3.375 -4.6719 L3.2656 -4.1719 L2.1562 -4.1719 L1.2344 0.0781 Z" stroke="none"/></g><g text-rendering="optimizeLegibility" transform="translate(56.1316,29)" color-rendering="optimizeQuality" color-interpolation="linearRGB" image-rendering="optimizeQuality"><path d="M6.25 -5.0469 L6.25 -1.3438 L4.8125 -1.3438 L4.8125 -5.0469 L1.2188 -5.0469 L1.2188 -6.3906 L4.8125 -6.3906 L4.8125 -10.0938 L6.25 -10.0938 L6.25 -6.3906 L9.8594 -6.3906 L9.8594 -5.0469 L6.25 -5.0469 Z" stroke="none"/></g><g text-rendering="optimizeLegibility" stroke-width="1.6667" color-interpolation="linearRGB" color-rendering="optimizeQuality" image-rendering="optimizeQuality"><line y2="21.78" fill="none" x1="69.6688" x2="86.575" y1="21.78"/><path d="M4.75 -1.7812 Q4.75 -1.3906 4.7969 -1.1875 Q4.8438 -0.9844 4.9531 -0.8594 Q5.0625 -0.7344 5.2734 -0.6641 Q5.4844 -0.5938 5.8047 -0.5547 Q6.125 -0.5156 6.6562 -0.5 L6.6562 0 L1.6094 0 L1.6094 -0.5 Q2.3594 -0.5312 2.6875 -0.5938 Q3.0156 -0.6562 3.1875 -0.7656 Q3.3594 -0.875 3.4375 -1.0938 Q3.5156 -1.3125 3.5156 -1.7812 L3.5156 -7.3281 Q3.5156 -7.6094 3.4219 -7.7344 Q3.3281 -7.8594 3.1406 -7.8594 Q2.9219 -7.8594 2.5156 -7.6328 Q2.1094 -7.4062 1.5156 -7 L1.2188 -7.5312 L4.4219 -9.4375 L4.7969 -9.4375 Q4.75 -8.7812 4.75 -7.625 L4.75 -1.7812 Z" stroke-width="1" transform="translate(74.7938,19.2689)" stroke="none"/></g><g text-rendering="optimizeLegibility" transform="translate(69.6688,36.6114)" color-rendering="optimizeQuality" color-interpolation="linearRGB" image-rendering="optimizeQuality"><path d="M7.5469 -5.6094 L5.5312 -5.6094 L5.5156 -5.5625 Q6.4531 -4.8906 6.4531 -3.625 Q6.4531 -2.2188 5.4922 -1.0547 Q4.5312 0.1094 2.8438 0.1094 Q1.8125 0.1094 1.1953 -0.5547 Q0.5781 -1.2188 0.5781 -2.3281 Q0.5781 -3.4531 1.0234 -4.3359 Q1.4688 -5.2188 2.1875 -5.7344 Q2.9062 -6.25 3.6875 -6.3906 Q4.4688 -6.5312 5.8281 -6.5312 L7.7344 -6.5312 L7.5469 -5.6094 ZM4.6719 -5.5781 Q3.8125 -5.5781 3.2422 -5.2422 Q2.6719 -4.9062 2.2188 -4.0938 Q1.7656 -3.2812 1.7656 -2.0156 Q1.7656 -1.2656 2.1172 -0.8516 Q2.4688 -0.4375 2.9844 -0.4375 Q3.9219 -0.4375 4.5781 -1.5 Q5.2344 -2.5625 5.2344 -3.8594 Q5.2344 -4.875 4.6719 -5.5781 Z" stroke="none"/></g><g text-rendering="optimizeLegibility" transform="translate(77.6063,40.2442)" color-rendering="optimizeQuality" color-interpolation="linearRGB" image-rendering="optimizeQuality"><path d="M4.625 -4.4219 Q3.6719 -3.4219 2.6406 -2.4375 L3.0938 -1.3594 Q3.2656 -0.9375 3.375 -0.7344 Q3.4844 -0.5312 3.5703 -0.4375 Q3.6562 -0.3438 3.75 -0.3047 Q3.8438 -0.2656 4.0312 -0.2344 L3.9688 0 L2.7656 0 L2.0781 -1.9688 Q1.9688 -1.8594 1.7734 -1.6797 Q1.5781 -1.5 1.3984 -1.2891 Q1.2188 -1.0781 1.1406 -0.9531 Q1.0625 -0.8281 1.0469 -0.7344 Q1.0312 -0.6406 1.0312 -0.5469 Q1.0312 -0.4219 1.1016 -0.3438 Q1.1719 -0.2656 1.3438 -0.2344 L1.2812 0 L-0.1094 0 L-0.2031 -0.2344 Q0.875 -1.3906 1.9062 -2.3594 L1.4375 -3.4375 Q1.2969 -3.7812 1.2109 -3.9531 Q1.125 -4.125 1.0469 -4.2188 Q0.9688 -4.3125 0.8594 -4.3672 Q0.75 -4.4219 0.5625 -4.4219 L0.6094 -4.6719 L1.8281 -4.6719 L2.4688 -2.8281 Q2.7188 -3.0469 2.9297 -3.2812 Q3.1406 -3.5156 3.2344 -3.6562 Q3.3281 -3.7969 3.3594 -3.8984 Q3.3906 -4 3.3906 -4.125 Q3.3906 -4.3906 3.0781 -4.4219 L3.125 -4.6719 L4.5156 -4.6719 L4.625 -4.4219 Z" stroke="none"/></g><g text-rendering="optimizeLegibility" transform="translate(82.2313,40.2442)" color-rendering="optimizeQuality" color-interpolation="linearRGB" image-rendering="optimizeQuality"><path d="M3.5938 -3.5 Q3.5781 -3.875 3.5312 -4.0391 Q3.4844 -4.2031 3.3672 -4.2812 Q3.25 -4.3594 3.0312 -4.3594 Q2.5469 -4.3594 2.1562 -3.9688 Q1.7656 -3.5781 1.5156 -2.8594 Q1.2656 -2.1406 1.2656 -1.4688 Q1.2656 -1.2656 1.2969 -1.0859 Q1.3281 -0.9062 1.4219 -0.7734 Q1.5156 -0.6406 1.6641 -0.5703 Q1.8125 -0.5 2.0469 -0.5 Q2.4844 -0.5 2.8125 -0.6641 Q3.1406 -0.8281 3.5 -1.1875 L3.7969 -0.8906 Q3.3281 -0.3906 2.8672 -0.1562 Q2.4062 0.0781 1.8594 0.0781 Q1.1562 0.0781 0.7891 -0.3359 Q0.4219 -0.75 0.4219 -1.5625 Q0.4219 -2.0781 0.6172 -2.7031 Q0.8125 -3.3281 1.1875 -3.8047 Q1.5625 -4.2812 2.0703 -4.5156 Q2.5781 -4.75 3.1406 -4.75 Q3.5312 -4.75 3.8203 -4.7031 Q4.1094 -4.6562 4.3438 -4.5938 L4.1094 -3.5 L3.5938 -3.5 Z" stroke="none"/></g><g text-rendering="optimizeLegibility" transform="translate(78.7156,31.3067)" color-rendering="optimizeQuality" color-interpolation="linearRGB" image-rendering="optimizeQuality"><path d="M1.2344 0.0781 Q1.0781 0.8594 0.7891 1.3203 Q0.5 1.7812 0.0781 1.9844 Q-0.3438 2.1875 -0.9219 2.1875 Q-1.1406 2.1875 -1.3125 2.1406 L-1.2031 1.7031 Q-1.0781 1.75 -0.8594 1.75 Q-0.5938 1.75 -0.4375 1.6797 Q-0.2812 1.6094 -0.1406 1.4531 Q0 1.2969 0.125 1 Q0.25 0.7031 0.3594 0.2188 L1.3594 -4.1719 L0.7656 -4.1719 L0.8281 -4.4219 Q1.0625 -4.4531 1.1641 -4.4922 Q1.2656 -4.5312 1.3203 -4.6016 Q1.375 -4.6719 1.4297 -4.8047 Q1.4844 -4.9375 1.5781 -5.25 Q1.8281 -6.125 2.3672 -6.5703 Q2.9062 -7.0156 3.75 -7.0156 Q4.2188 -7.0156 4.5781 -6.9375 L4.375 -6.1094 L3.9531 -6.1094 Q3.875 -6.375 3.7656 -6.5 Q3.6562 -6.625 3.4531 -6.625 Q3.1719 -6.625 2.9766 -6.4766 Q2.7812 -6.3281 2.6406 -6.0234 Q2.5 -5.7188 2.3906 -5.2031 L2.2656 -4.6719 L3.375 -4.6719 L3.2656 -4.1719 L2.1562 -4.1719 L1.2344 0.0781 Z" stroke="none"/></g><g text-rendering="optimizeLegibility" transform="translate(91.4976,32.2951) matrix(1,0,0,2.1535,0,0)" color-rendering="optimizeQuality" color-interpolation="linearRGB" image-rendering="optimizeQuality"><path d="M0.4219 -14.0156 Q2.0781 -14.0156 3.1328 -13.5156 Q4.1875 -13.0156 4.7734 -12 Q5.3594 -10.9844 5.6172 -9.3516 Q5.875 -7.7188 5.875 -4.9219 Q5.875 -2.1562 5.6172 -0.5078 Q5.3594 1.1406 4.7734 2.1797 Q4.1875 3.2188 3.1328 3.7344 Q2.0781 4.25 0.4219 4.25 L0.4219 3.4531 Q1.1094 3.4531 1.625 3.3281 Q2.2344 3.1875 2.6406 2.7969 Q3.1094 2.375 3.4062 1.6094 Q3.75 0.7031 3.9219 -0.7812 Q4.0938 -2.3594 4.0938 -4.8438 Q4.0938 -7.0469 3.9453 -8.5859 Q3.7969 -10.125 3.4531 -11.0938 Q3.1875 -11.9219 2.7812 -12.375 Q2.4062 -12.7812 1.9219 -12.9844 Q1.3438 -13.2188 0.4219 -13.2188 L0.4219 -14.0156 Z" stroke="none"/></g><g text-rendering="optimizeLegibility" transform="translate(99.3726,29)" color-rendering="optimizeQuality" color-interpolation="linearRGB" image-rendering="optimizeQuality"><path d="M10.7812 -8.0156 L7.9062 -8.0156 L7.875 -7.9375 Q9.2188 -6.9844 9.2188 -5.1875 Q9.2188 -3.1719 7.8438 -1.5078 Q6.4688 0.1562 4.0625 0.1562 Q2.5781 0.1562 1.7031 -0.7891 Q0.8281 -1.7344 0.8281 -3.3281 Q0.8281 -4.9375 1.4609 -6.2031 Q2.0938 -7.4688 3.1172 -8.1953 Q4.1406 -8.9219 5.2578 -9.1328 Q6.375 -9.3438 8.3281 -9.3438 L11.0469 -9.3438 L10.7812 -8.0156 ZM6.6875 -7.9844 Q5.4375 -7.9844 4.625 -7.5 Q3.8125 -7.0156 3.1641 -5.8516 Q2.5156 -4.6875 2.5156 -2.875 Q2.5156 -1.7969 3.0156 -1.2031 Q3.5156 -0.6094 4.2656 -0.6094 Q5.6094 -0.6094 6.5469 -2.1328 Q7.4844 -3.6562 7.4844 -5.5156 Q7.4844 -6.9688 6.6875 -7.9844 Z" stroke="none"/></g><g text-rendering="optimizeLegibility" transform="translate(110.7007,32.4219)" color-rendering="optimizeQuality" color-interpolation="linearRGB" image-rendering="optimizeQuality"><path d="M6.4688 -6.2031 Q5.1406 -4.7812 3.6875 -3.4062 L4.3281 -1.9062 Q4.5781 -1.3125 4.7266 -1.0234 Q4.875 -0.7344 5 -0.6094 Q5.125 -0.4844 5.25 -0.4297 Q5.375 -0.375 5.6406 -0.3281 L5.5625 0 L3.8594 0 L2.9062 -2.75 Q2.75 -2.6094 2.4766 -2.3516 Q2.2031 -2.0938 1.9531 -1.8047 Q1.7031 -1.5156 1.6016 -1.3359 Q1.5 -1.1562 1.4688 -1.0234 Q1.4375 -0.8906 1.4375 -0.7656 Q1.4375 -0.5781 1.5391 -0.4766 Q1.6406 -0.375 1.875 -0.3281 L1.7969 0 L-0.1562 0 L-0.2812 -0.3281 Q1.2188 -1.9375 2.6719 -3.2969 L2.0156 -4.8125 Q1.8125 -5.2812 1.6953 -5.5234 Q1.5781 -5.7656 1.4609 -5.8984 Q1.3438 -6.0312 1.1953 -6.1094 Q1.0469 -6.1875 0.7812 -6.2031 L0.8594 -6.5312 L2.5625 -6.5312 L3.4688 -3.9531 Q3.7969 -4.2656 4.1016 -4.5938 Q4.4062 -4.9219 4.5312 -5.1172 Q4.6562 -5.3125 4.7031 -5.4609 Q4.75 -5.6094 4.75 -5.7656 Q4.75 -6.1406 4.3125 -6.2031 L4.375 -6.5312 L6.3281 -6.5312 L6.4688 -6.2031 Z" stroke="none"/></g><g text-rendering="optimizeLegibility" transform="translate(117.9507,29)" color-rendering="optimizeQuality" color-interpolation="linearRGB" image-rendering="optimizeQuality"><path d="M6.25 -5.0469 L6.25 -1.3438 L4.8125 -1.3438 L4.8125 -5.0469 L1.2188 -5.0469 L1.2188 -6.3906 L4.8125 -6.3906 L4.8125 -10.0938 L6.25 -10.0938 L6.25 -6.3906 L9.8594 -6.3906 L9.8594 -5.0469 L6.25 -5.0469 Z" stroke="none"/></g><g text-rendering="optimizeLegibility" transform="translate(130.0444,33.3978) matrix(1,0,0,2.3793,0,0)" color-rendering="optimizeQuality" color-interpolation="linearRGB" image-rendering="optimizeQuality"><path d="M7.2188 4.25 Q5.5625 4.25 4.5078 3.75 Q3.4531 3.25 2.8672 2.2344 Q2.2812 1.2188 2.0234 -0.4141 Q1.7656 -2.0469 1.7656 -4.8438 Q1.7656 -7.625 2.0234 -9.2656 Q2.2812 -10.9062 2.8672 -11.9453 Q3.4531 -12.9844 4.5078 -13.5 Q5.5625 -14.0156 7.2188 -14.0156 L7.2188 -13.2188 Q6.5312 -13.2188 6 -13.0938 Q5.4062 -12.9531 4.9844 -12.5625 Q4.5156 -12.1406 4.2344 -11.375 Q3.8906 -10.4688 3.7188 -8.9844 Q3.5469 -7.4062 3.5469 -4.9219 Q3.5469 -2.7188 3.6953 -1.1797 Q3.8438 0.3594 4.1875 1.3281 Q4.4531 2.1562 4.8594 2.6094 Q5.2188 3.0156 5.7188 3.2188 Q6.2969 3.4531 7.2188 3.4531 L7.2188 4.25 Z" stroke="none"/></g><g text-rendering="optimizeLegibility" stroke-width="1.6667" color-interpolation="linearRGB" color-rendering="optimizeQuality" image-rendering="optimizeQuality"><line y2="21.78" fill="none" x1="140.941" x2="158.4097" y1="21.78"/><path d="M4.75 -1.7812 Q4.75 -1.3906 4.7969 -1.1875 Q4.8438 -0.9844 4.9531 -0.8594 Q5.0625 -0.7344 5.2734 -0.6641 Q5.4844 -0.5938 5.8047 -0.5547 Q6.125 -0.5156 6.6562 -0.5 L6.6562 0 L1.6094 0 L1.6094 -0.5 Q2.3594 -0.5312 2.6875 -0.5938 Q3.0156 -0.6562 3.1875 -0.7656 Q3.3594 -0.875 3.4375 -1.0938 Q3.5156 -1.3125 3.5156 -1.7812 L3.5156 -7.3281 Q3.5156 -7.6094 3.4219 -7.7344 Q3.3281 -7.8594 3.1406 -7.8594 Q2.9219 -7.8594 2.5156 -7.6328 Q2.1094 -7.4062 1.5156 -7 L1.2188 -7.5312 L4.4219 -9.4375 L4.7969 -9.4375 Q4.75 -8.7812 4.75 -7.625 L4.75 -1.7812 Z" stroke-width="1" transform="translate(146.3472,19.2689)" stroke="none"/></g><g text-rendering="optimizeLegibility" transform="translate(140.941,37.4083)" color-rendering="optimizeQuality" color-interpolation="linearRGB" image-rendering="optimizeQuality"><path d="M7.5469 -5.6094 L5.5312 -5.6094 L5.5156 -5.5625 Q6.4531 -4.8906 6.4531 -3.625 Q6.4531 -2.2188 5.4922 -1.0547 Q4.5312 0.1094 2.8438 0.1094 Q1.8125 0.1094 1.1953 -0.5547 Q0.5781 -1.2188 0.5781 -2.3281 Q0.5781 -3.4531 1.0234 -4.3359 Q1.4688 -5.2188 2.1875 -5.7344 Q2.9062 -6.25 3.6875 -6.3906 Q4.4688 -6.5312 5.8281 -6.5312 L7.7344 -6.5312 L7.5469 -5.6094 ZM4.6719 -5.5781 Q3.8125 -5.5781 3.2422 -5.2422 Q2.6719 -4.9062 2.2188 -4.0938 Q1.7656 -3.2812 1.7656 -2.0156 Q1.7656 -1.2656 2.1172 -0.8516 Q2.4688 -0.4375 2.9844 -0.4375 Q3.9219 -0.4375 4.5781 -1.5 Q5.2344 -2.5625 5.2344 -3.8594 Q5.2344 -4.875 4.6719 -5.5781 Z" stroke="none"/></g><g text-rendering="optimizeLegibility" transform="translate(149.9097,41.3692)" color-rendering="optimizeQuality" color-interpolation="linearRGB" image-rendering="optimizeQuality"><path d="M0.9062 -3.6094 Q0.8594 -3.9688 0.8125 -4.1172 Q0.7656 -4.2656 0.6719 -4.3438 Q0.5781 -4.4219 0.3594 -4.4219 L0.4062 -4.6719 L1.6562 -4.6719 L2.0312 -0.7812 Q3.6875 -3.0469 3.6875 -4.0156 Q3.6875 -4.25 3.5859 -4.3359 Q3.4844 -4.4219 3.25 -4.4219 L3.2969 -4.6719 L4.5625 -4.6719 L4.6875 -4.4219 Q4.4375 -3.75 4.0312 -3.0234 Q3.625 -2.2969 3.0469 -1.4297 Q2.4688 -0.5625 1.75 0.375 Q1.2031 1.0938 0.8281 1.4531 Q0.5469 1.7344 0.3047 1.875 Q0.0625 2.0156 -0.1641 2.0781 Q-0.3906 2.1406 -0.6562 2.1406 Q-0.7812 2.1406 -0.9453 2.1172 Q-1.1094 2.0938 -1.2344 2.0469 L-1.0156 1.1406 L-0.6406 1.1406 Q-0.6406 1.2969 -0.5625 1.3984 Q-0.4844 1.5 -0.3438 1.5 Q-0.1875 1.5 -0.0781 1.4688 Q0.0312 1.4375 0.1562 1.3594 Q0.2812 1.2812 0.4609 1.125 Q0.6406 0.9688 0.8672 0.7031 Q1.0938 0.4375 1.375 0.0469 L0.9062 -3.6094 Z" stroke="none"/></g><g text-rendering="optimizeLegibility" transform="translate(154.5972,41.3692)" color-rendering="optimizeQuality" color-interpolation="linearRGB" image-rendering="optimizeQuality"><path d="M3.2969 -0.9062 Q2.8906 -0.4219 2.5 -0.1719 Q2.1094 0.0781 1.6719 0.0781 Q1.1562 0.0781 0.9062 -0.1875 Q0.6562 -0.4531 0.6562 -0.9531 Q0.6562 -1.2656 0.7344 -1.6406 L1.3438 -4.1719 L0.6094 -4.1719 L0.6719 -4.4219 Q0.9531 -4.4531 1.125 -4.5469 Q1.2969 -4.6406 1.4141 -4.7891 Q1.5312 -4.9375 1.625 -5.1797 Q1.7188 -5.4219 1.8594 -5.875 L2.5469 -5.875 L2.2656 -4.6719 L3.8125 -4.6719 L3.7188 -4.1719 L2.1562 -4.1719 L1.6875 -2.2812 Q1.5 -1.4844 1.5 -1.0938 Q1.5 -0.7969 1.625 -0.6484 Q1.75 -0.5 2 -0.5 Q2.2344 -0.5 2.4766 -0.6719 Q2.7188 -0.8438 3.0156 -1.1875 L3.2969 -0.9062 Z" stroke="none"/></g><g text-rendering="optimizeLegibility" transform="translate(149.9879,31.3067)" color-rendering="optimizeQuality" color-interpolation="linearRGB" image-rendering="optimizeQuality"><path d="M1.2344 0.0781 Q1.0781 0.8594 0.7891 1.3203 Q0.5 1.7812 0.0781 1.9844 Q-0.3438 2.1875 -0.9219 2.1875 Q-1.1406 2.1875 -1.3125 2.1406 L-1.2031 1.7031 Q-1.0781 1.75 -0.8594 1.75 Q-0.5938 1.75 -0.4375 1.6797 Q-0.2812 1.6094 -0.1406 1.4531 Q0 1.2969 0.125 1 Q0.25 0.7031 0.3594 0.2188 L1.3594 -4.1719 L0.7656 -4.1719 L0.8281 -4.4219 Q1.0625 -4.4531 1.1641 -4.4922 Q1.2656 -4.5312 1.3203 -4.6016 Q1.375 -4.6719 1.4297 -4.8047 Q1.4844 -4.9375 1.5781 -5.25 Q1.8281 -6.125 2.3672 -6.5703 Q2.9062 -7.0156 3.75 -7.0156 Q4.2188 -7.0156 4.5781 -6.9375 L4.375 -6.1094 L3.9531 -6.1094 Q3.875 -6.375 3.7656 -6.5 Q3.6562 -6.625 3.4531 -6.625 Q3.1719 -6.625 2.9766 -6.4766 Q2.7812 -6.3281 2.6406 -6.0234 Q2.5 -5.7188 2.3906 -5.2031 L2.2656 -4.6719 L3.375 -4.6719 L3.2656 -4.1719 L2.1562 -4.1719 L1.2344 0.0781 Z" stroke="none"/></g><g text-rendering="optimizeLegibility" transform="translate(162.5354,29)" color-rendering="optimizeQuality" color-interpolation="linearRGB" image-rendering="optimizeQuality"><path d="M6.25 -5.0469 L6.25 -1.3438 L4.8125 -1.3438 L4.8125 -5.0469 L1.2188 -5.0469 L1.2188 -6.3906 L4.8125 -6.3906 L4.8125 -10.0938 L6.25 -10.0938 L6.25 -6.3906 L9.8594 -6.3906 L9.8594 -5.0469 L6.25 -5.0469 Z" stroke="none"/></g><g text-rendering="optimizeLegibility" stroke-width="1.6667" color-interpolation="linearRGB" color-rendering="optimizeQuality" image-rendering="optimizeQuality"><line y2="21.78" fill="none" x1="176.0726" x2="194.0726" y1="21.78"/><path d="M4.75 -1.7812 Q4.75 -1.3906 4.7969 -1.1875 Q4.8438 -0.9844 4.9531 -0.8594 Q5.0625 -0.7344 5.2734 -0.6641 Q5.4844 -0.5938 5.8047 -0.5547 Q6.125 -0.5156 6.6562 -0.5 L6.6562 0 L1.6094 0 L1.6094 -0.5 Q2.3594 -0.5312 2.6875 -0.5938 Q3.0156 -0.6562 3.1875 -0.7656 Q3.3594 -0.875 3.4375 -1.0938 Q3.5156 -1.3125 3.5156 -1.7812 L3.5156 -7.3281 Q3.5156 -7.6094 3.4219 -7.7344 Q3.3281 -7.8594 3.1406 -7.8594 Q2.9219 -7.8594 2.5156 -7.6328 Q2.1094 -7.4062 1.5156 -7 L1.2188 -7.5312 L4.4219 -9.4375 L4.7969 -9.4375 Q4.75 -8.7812 4.75 -7.625 L4.75 -1.7812 Z" stroke-width="1" transform="translate(181.7445,19.2689)" stroke="none"/></g><g text-rendering="optimizeLegibility" transform="translate(176.0726,37.127)" color-rendering="optimizeQuality" color-interpolation="linearRGB" image-rendering="optimizeQuality"><path d="M7.5469 -5.6094 L5.5312 -5.6094 L5.5156 -5.5625 Q6.4531 -4.8906 6.4531 -3.625 Q6.4531 -2.2188 5.4922 -1.0547 Q4.5312 0.1094 2.8438 0.1094 Q1.8125 0.1094 1.1953 -0.5547 Q0.5781 -1.2188 0.5781 -2.3281 Q0.5781 -3.4531 1.0234 -4.3359 Q1.4688 -5.2188 2.1875 -5.7344 Q2.9062 -6.25 3.6875 -6.3906 Q4.4688 -6.5312 5.8281 -6.5312 L7.7344 -6.5312 L7.5469 -5.6094 ZM4.6719 -5.5781 Q3.8125 -5.5781 3.2422 -5.2422 Q2.6719 -4.9062 2.2188 -4.0938 Q1.7656 -3.2812 1.7656 -2.0156 Q1.7656 -1.2656 2.1172 -0.8516 Q2.4688 -0.4375 2.9844 -0.4375 Q3.9219 -0.4375 4.5781 -1.5 Q5.2344 -2.5625 5.2344 -3.8594 Q5.2344 -4.875 4.6719 -5.5781 Z" stroke="none"/></g><g text-rendering="optimizeLegibility" transform="translate(185.0413,40.2442)" color-rendering="optimizeQuality" color-interpolation="linearRGB" image-rendering="optimizeQuality"><path d="M0.9062 -3.6094 Q0.8594 -3.9688 0.8125 -4.1172 Q0.7656 -4.2656 0.6719 -4.3438 Q0.5781 -4.4219 0.3594 -4.4219 L0.4062 -4.6719 L1.6562 -4.6719 L2.0312 -0.7812 Q3.6875 -3.0469 3.6875 -4.0156 Q3.6875 -4.25 3.5859 -4.3359 Q3.4844 -4.4219 3.25 -4.4219 L3.2969 -4.6719 L4.5625 -4.6719 L4.6875 -4.4219 Q4.4375 -3.75 4.0312 -3.0234 Q3.625 -2.2969 3.0469 -1.4297 Q2.4688 -0.5625 1.75 0.375 Q1.2031 1.0938 0.8281 1.4531 Q0.5469 1.7344 0.3047 1.875 Q0.0625 2.0156 -0.1641 2.0781 Q-0.3906 2.1406 -0.6562 2.1406 Q-0.7812 2.1406 -0.9453 2.1172 Q-1.1094 2.0938 -1.2344 2.0469 L-1.0156 1.1406 L-0.6406 1.1406 Q-0.6406 1.2969 -0.5625 1.3984 Q-0.4844 1.5 -0.3438 1.5 Q-0.1875 1.5 -0.0781 1.4688 Q0.0312 1.4375 0.1562 1.3594 Q0.2812 1.2812 0.4609 1.125 Q0.6406 0.9688 0.8672 0.7031 Q1.0938 0.4375 1.375 0.0469 L0.9062 -3.6094 Z" stroke="none"/></g><g text-rendering="optimizeLegibility" transform="translate(189.7288,40.2442)" color-rendering="optimizeQuality" color-interpolation="linearRGB" image-rendering="optimizeQuality"><path d="M3.5938 -3.5 Q3.5781 -3.875 3.5312 -4.0391 Q3.4844 -4.2031 3.3672 -4.2812 Q3.25 -4.3594 3.0312 -4.3594 Q2.5469 -4.3594 2.1562 -3.9688 Q1.7656 -3.5781 1.5156 -2.8594 Q1.2656 -2.1406 1.2656 -1.4688 Q1.2656 -1.2656 1.2969 -1.0859 Q1.3281 -0.9062 1.4219 -0.7734 Q1.5156 -0.6406 1.6641 -0.5703 Q1.8125 -0.5 2.0469 -0.5 Q2.4844 -0.5 2.8125 -0.6641 Q3.1406 -0.8281 3.5 -1.1875 L3.7969 -0.8906 Q3.3281 -0.3906 2.8672 -0.1562 Q2.4062 0.0781 1.8594 0.0781 Q1.1562 0.0781 0.7891 -0.3359 Q0.4219 -0.75 0.4219 -1.5625 Q0.4219 -2.0781 0.6172 -2.7031 Q0.8125 -3.3281 1.1875 -3.8047 Q1.5625 -4.2812 2.0703 -4.5156 Q2.5781 -4.75 3.1406 -4.75 Q3.5312 -4.75 3.8203 -4.7031 Q4.1094 -4.6562 4.3438 -4.5938 L4.1094 -3.5 L3.5938 -3.5 Z" stroke="none"/></g><g text-rendering="optimizeLegibility" transform="translate(185.1195,31.3067)" color-rendering="optimizeQuality" color-interpolation="linearRGB" image-rendering="optimizeQuality"><path d="M1.2344 0.0781 Q1.0781 0.8594 0.7891 1.3203 Q0.5 1.7812 0.0781 1.9844 Q-0.3438 2.1875 -0.9219 2.1875 Q-1.1406 2.1875 -1.3125 2.1406 L-1.2031 1.7031 Q-1.0781 1.75 -0.8594 1.75 Q-0.5938 1.75 -0.4375 1.6797 Q-0.2812 1.6094 -0.1406 1.4531 Q0 1.2969 0.125 1 Q0.25 0.7031 0.3594 0.2188 L1.3594 -4.1719 L0.7656 -4.1719 L0.8281 -4.4219 Q1.0625 -4.4531 1.1641 -4.4922 Q1.2656 -4.5312 1.3203 -4.6016 Q1.375 -4.6719 1.4297 -4.8047 Q1.4844 -4.9375 1.5781 -5.25 Q1.8281 -6.125 2.3672 -6.5703 Q2.9062 -7.0156 3.75 -7.0156 Q4.2188 -7.0156 4.5781 -6.9375 L4.375 -6.1094 L3.9531 -6.1094 Q3.875 -6.375 3.7656 -6.5 Q3.6562 -6.625 3.4531 -6.625 Q3.1719 -6.625 2.9766 -6.4766 Q2.7812 -6.3281 2.6406 -6.0234 Q2.5 -5.7188 2.3906 -5.2031 L2.2656 -4.6719 L3.375 -4.6719 L3.2656 -4.1719 L2.1562 -4.1719 L1.2344 0.0781 Z" stroke="none"/></g><g text-rendering="optimizeLegibility" transform="translate(198.9951,33.3978) matrix(1,0,0,2.3793,0,0)" color-rendering="optimizeQuality" color-interpolation="linearRGB" image-rendering="optimizeQuality"><path d="M0.4219 -14.0156 Q2.0781 -14.0156 3.1328 -13.5156 Q4.1875 -13.0156 4.7734 -12 Q5.3594 -10.9844 5.6172 -9.3516 Q5.875 -7.7188 5.875 -4.9219 Q5.875 -2.1562 5.6172 -0.5078 Q5.3594 1.1406 4.7734 2.1797 Q4.1875 3.2188 3.1328 3.7344 Q2.0781 4.25 0.4219 4.25 L0.4219 3.4531 Q1.1094 3.4531 1.625 3.3281 Q2.2344 3.1875 2.6406 2.7969 Q3.1094 2.375 3.4062 1.6094 Q3.75 0.7031 3.9219 -0.7812 Q4.0938 -2.3594 4.0938 -4.8438 Q4.0938 -7.0469 3.9453 -8.5859 Q3.7969 -10.125 3.4531 -11.0938 Q3.1875 -11.9219 2.7812 -12.375 Q2.4062 -12.7812 1.9219 -12.9844 Q1.3438 -13.2188 0.4219 -13.2188 L0.4219 -14.0156 Z" stroke="none"/></g><g text-rendering="optimizeLegibility" transform="translate(206.8701,29)" color-rendering="optimizeQuality" color-interpolation="linearRGB" image-rendering="optimizeQuality"><path d="M10.7812 -8.0156 L7.9062 -8.0156 L7.875 -7.9375 Q9.2188 -6.9844 9.2188 -5.1875 Q9.2188 -3.1719 7.8438 -1.5078 Q6.4688 0.1562 4.0625 0.1562 Q2.5781 0.1562 1.7031 -0.7891 Q0.8281 -1.7344 0.8281 -3.3281 Q0.8281 -4.9375 1.4609 -6.2031 Q2.0938 -7.4688 3.1172 -8.1953 Q4.1406 -8.9219 5.2578 -9.1328 Q6.375 -9.3438 8.3281 -9.3438 L11.0469 -9.3438 L10.7812 -8.0156 ZM6.6875 -7.9844 Q5.4375 -7.9844 4.625 -7.5 Q3.8125 -7.0156 3.1641 -5.8516 Q2.5156 -4.6875 2.5156 -2.875 Q2.5156 -1.7969 3.0156 -1.2031 Q3.5156 -0.6094 4.2656 -0.6094 Q5.6094 -0.6094 6.5469 -2.1328 Q7.4844 -3.6562 7.4844 -5.5156 Q7.4844 -6.9688 6.6875 -7.9844 Z" stroke="none"/></g><g text-rendering="optimizeLegibility" transform="translate(219.6358,30.9219)" color-rendering="optimizeQuality" color-interpolation="linearRGB" image-rendering="optimizeQuality"><path d="M1.2656 -5.0469 Q1.2031 -5.5625 1.1406 -5.7656 Q1.0781 -5.9688 0.9375 -6.0781 Q0.7969 -6.1875 0.5 -6.2031 L0.5625 -6.5312 L2.3281 -6.5312 L2.8438 -1.0938 Q5.1562 -4.2656 5.1562 -5.625 Q5.1562 -5.9531 5.0156 -6.0703 Q4.875 -6.1875 4.5469 -6.2031 L4.625 -6.5312 L6.3906 -6.5312 L6.5625 -6.1875 Q6.2031 -5.25 5.6406 -4.2266 Q5.0781 -3.2031 4.2656 -1.9922 Q3.4531 -0.7812 2.4531 0.5156 Q1.6875 1.5312 1.1562 2.0312 Q0.7656 2.4219 0.4219 2.625 Q0.0781 2.8281 -0.2344 2.9141 Q-0.5469 3 -0.9062 3 Q-1.0938 3 -1.3281 2.9609 Q-1.5625 2.9219 -1.7188 2.8594 L-1.4219 1.5938 L-0.8906 1.5938 Q-0.8906 1.8125 -0.7891 1.9531 Q-0.6875 2.0938 -0.4844 2.0938 Q-0.2656 2.0938 -0.1094 2.0469 Q0.0469 2 0.2188 1.8984 Q0.3906 1.7969 0.6406 1.5703 Q0.8906 1.3438 1.2109 0.9766 Q1.5312 0.6094 1.9219 0.0781 L1.2656 -5.0469 Z" stroke="none"/></g><g text-rendering="optimizeLegibility" transform="translate(226.9795,29)" color-rendering="optimizeQuality" color-interpolation="linearRGB" image-rendering="optimizeQuality"><path d="M6.25 -5.0469 L6.25 -1.3438 L4.8125 -1.3438 L4.8125 -5.0469 L1.2188 -5.0469 L1.2188 -6.3906 L4.8125 -6.3906 L4.8125 -10.0938 L6.25 -10.0938 L6.25 -6.3906 L9.8594 -6.3906 L9.8594 -5.0469 L6.25 -5.0469 Z" stroke="none"/></g><g text-rendering="optimizeLegibility" transform="translate(239.0733,32.2951) matrix(1,0,0,2.1535,0,0)" color-rendering="optimizeQuality" color-interpolation="linearRGB" image-rendering="optimizeQuality"><path d="M7.2188 4.25 Q5.5625 4.25 4.5078 3.75 Q3.4531 3.25 2.8672 2.2344 Q2.2812 1.2188 2.0234 -0.4141 Q1.7656 -2.0469 1.7656 -4.8438 Q1.7656 -7.625 2.0234 -9.2656 Q2.2812 -10.9062 2.8672 -11.9453 Q3.4531 -12.9844 4.5078 -13.5 Q5.5625 -14.0156 7.2188 -14.0156 L7.2188 -13.2188 Q6.5312 -13.2188 6 -13.0938 Q5.4062 -12.9531 4.9844 -12.5625 Q4.5156 -12.1406 4.2344 -11.375 Q3.8906 -10.4688 3.7188 -8.9844 Q3.5469 -7.4062 3.5469 -4.9219 Q3.5469 -2.7188 3.6953 -1.1797 Q3.8438 0.3594 4.1875 1.3281 Q4.4531 2.1562 4.8594 2.6094 Q5.2188 3.0156 5.7188 3.2188 Q6.2969 3.4531 7.2188 3.4531 L7.2188 4.25 Z" stroke="none"/></g><g text-rendering="optimizeLegibility" stroke-width="1.6667" color-interpolation="linearRGB" color-rendering="optimizeQuality" image-rendering="optimizeQuality"><line y2="21.78" fill="none" x1="249.9698" x2="266.1104" y1="21.78"/><path d="M4.75 -1.7812 Q4.75 -1.3906 4.7969 -1.1875 Q4.8438 -0.9844 4.9531 -0.8594 Q5.0625 -0.7344 5.2734 -0.6641 Q5.4844 -0.5938 5.8047 -0.5547 Q6.125 -0.5156 6.6562 -0.5 L6.6562 0 L1.6094 0 L1.6094 -0.5 Q2.3594 -0.5312 2.6875 -0.5938 Q3.0156 -0.6562 3.1875 -0.7656 Q3.3594 -0.875 3.4375 -1.0938 Q3.5156 -1.3125 3.5156 -1.7812 L3.5156 -7.3281 Q3.5156 -7.6094 3.4219 -7.7344 Q3.3281 -7.8594 3.1406 -7.8594 Q2.9219 -7.8594 2.5156 -7.6328 Q2.1094 -7.4062 1.5156 -7 L1.2188 -7.5312 L4.4219 -9.4375 L4.7969 -9.4375 Q4.75 -8.7812 4.75 -7.625 L4.75 -1.7812 Z" stroke-width="1" transform="translate(254.712,19.2689)" stroke="none"/></g><g text-rendering="optimizeLegibility" transform="translate(249.9698,36.8927)" color-rendering="optimizeQuality" color-interpolation="linearRGB" image-rendering="optimizeQuality"><path d="M7.5469 -5.6094 L5.5312 -5.6094 L5.5156 -5.5625 Q6.4531 -4.8906 6.4531 -3.625 Q6.4531 -2.2188 5.4922 -1.0547 Q4.5312 0.1094 2.8438 0.1094 Q1.8125 0.1094 1.1953 -0.5547 Q0.5781 -1.2188 0.5781 -2.3281 Q0.5781 -3.4531 1.0234 -4.3359 Q1.4688 -5.2188 2.1875 -5.7344 Q2.9062 -6.25 3.6875 -6.3906 Q4.4688 -6.5312 5.8281 -6.5312 L7.7344 -6.5312 L7.5469 -5.6094 ZM4.6719 -5.5781 Q3.8125 -5.5781 3.2422 -5.2422 Q2.6719 -4.9062 2.2188 -4.0938 Q1.7656 -3.2812 1.7656 -2.0156 Q1.7656 -1.2656 2.1172 -0.8516 Q2.4688 -0.4375 2.9844 -0.4375 Q3.9219 -0.4375 4.5781 -1.5 Q5.2344 -2.5625 5.2344 -3.8594 Q5.2344 -4.875 4.6719 -5.5781 Z" stroke="none"/></g><g text-rendering="optimizeLegibility" transform="translate(257.7354,41.3692)" color-rendering="optimizeQuality" color-interpolation="linearRGB" image-rendering="optimizeQuality"><path d="M3.8906 -1.375 L3.5938 0 L0.0625 0 L-0.0312 -0.2344 L2.6406 -3.3125 Q3.2031 -3.9688 3.4688 -4.2344 L3.4375 -4.2656 L2.2969 -4.2656 Q2.0469 -4.2656 1.9297 -4.2344 Q1.8125 -4.2031 1.6953 -4.1172 Q1.5781 -4.0312 1.4375 -3.8672 Q1.2969 -3.7031 1.1406 -3.3906 L0.7031 -3.3906 L0.9844 -4.6719 L4.4688 -4.6719 L4.5625 -4.4219 L1.0469 -0.4375 L1.0781 -0.3906 L2.1875 -0.3906 Q2.4688 -0.3906 2.625 -0.4219 Q2.7812 -0.4531 2.8984 -0.5469 Q3.0156 -0.6406 3.1406 -0.8125 Q3.2656 -0.9844 3.4531 -1.375 L3.8906 -1.375 Z" stroke="none"/></g><g text-rendering="optimizeLegibility" transform="translate(262.2979,41.3692)" color-rendering="optimizeQuality" color-interpolation="linearRGB" image-rendering="optimizeQuality"><path d="M3.2969 -0.9062 Q2.8906 -0.4219 2.5 -0.1719 Q2.1094 0.0781 1.6719 0.0781 Q1.1562 0.0781 0.9062 -0.1875 Q0.6562 -0.4531 0.6562 -0.9531 Q0.6562 -1.2656 0.7344 -1.6406 L1.3438 -4.1719 L0.6094 -4.1719 L0.6719 -4.4219 Q0.9531 -4.4531 1.125 -4.5469 Q1.2969 -4.6406 1.4141 -4.7891 Q1.5312 -4.9375 1.625 -5.1797 Q1.7188 -5.4219 1.8594 -5.875 L2.5469 -5.875 L2.2656 -4.6719 L3.8125 -4.6719 L3.7188 -4.1719 L2.1562 -4.1719 L1.6875 -2.2812 Q1.5 -1.4844 1.5 -1.0938 Q1.5 -0.7969 1.625 -0.6484 Q1.75 -0.5 2 -0.5 Q2.2344 -0.5 2.4766 -0.6719 Q2.7188 -0.8438 3.0156 -1.1875 L3.2969 -0.9062 Z" stroke="none"/></g><g text-rendering="optimizeLegibility" transform="translate(259.0167,31.3067)" color-rendering="optimizeQuality" color-interpolation="linearRGB" image-rendering="optimizeQuality"><path d="M1.2344 0.0781 Q1.0781 0.8594 0.7891 1.3203 Q0.5 1.7812 0.0781 1.9844 Q-0.3438 2.1875 -0.9219 2.1875 Q-1.1406 2.1875 -1.3125 2.1406 L-1.2031 1.7031 Q-1.0781 1.75 -0.8594 1.75 Q-0.5938 1.75 -0.4375 1.6797 Q-0.2812 1.6094 -0.1406 1.4531 Q0 1.2969 0.125 1 Q0.25 0.7031 0.3594 0.2188 L1.3594 -4.1719 L0.7656 -4.1719 L0.8281 -4.4219 Q1.0625 -4.4531 1.1641 -4.4922 Q1.2656 -4.5312 1.3203 -4.6016 Q1.375 -4.6719 1.4297 -4.8047 Q1.4844 -4.9375 1.5781 -5.25 Q1.8281 -6.125 2.3672 -6.5703 Q2.9062 -7.0156 3.75 -7.0156 Q4.2188 -7.0156 4.5781 -6.9375 L4.375 -6.1094 L3.9531 -6.1094 Q3.875 -6.375 3.7656 -6.5 Q3.6562 -6.625 3.4531 -6.625 Q3.1719 -6.625 2.9766 -6.4766 Q2.7812 -6.3281 2.6406 -6.0234 Q2.5 -5.7188 2.3906 -5.2031 L2.2656 -4.6719 L3.375 -4.6719 L3.2656 -4.1719 L2.1562 -4.1719 L1.2344 0.0781 Z" stroke="none"/></g><g text-rendering="optimizeLegibility" transform="translate(270.2361,29)" color-rendering="optimizeQuality" color-interpolation="linearRGB" image-rendering="optimizeQuality"><path d="M6.25 -5.0469 L6.25 -1.3438 L4.8125 -1.3438 L4.8125 -5.0469 L1.2188 -5.0469 L1.2188 -6.3906 L4.8125 -6.3906 L4.8125 -10.0938 L6.25 -10.0938 L6.25 -6.3906 L9.8594 -6.3906 L9.8594 -5.0469 L6.25 -5.0469 Z" stroke="none"/></g><g text-rendering="optimizeLegibility" stroke-width="1.6667" color-interpolation="linearRGB" color-rendering="optimizeQuality" image-rendering="optimizeQuality"><line y2="21.78" fill="none" x1="283.7733" x2="300.4451" y1="21.78"/><path d="M4.75 -1.7812 Q4.75 -1.3906 4.7969 -1.1875 Q4.8438 -0.9844 4.9531 -0.8594 Q5.0625 -0.7344 5.2734 -0.6641 Q5.4844 -0.5938 5.8047 -0.5547 Q6.125 -0.5156 6.6562 -0.5 L6.6562 0 L1.6094 0 L1.6094 -0.5 Q2.3594 -0.5312 2.6875 -0.5938 Q3.0156 -0.6562 3.1875 -0.7656 Q3.3594 -0.875 3.4375 -1.0938 Q3.5156 -1.3125 3.5156 -1.7812 L3.5156 -7.3281 Q3.5156 -7.6094 3.4219 -7.7344 Q3.3281 -7.8594 3.1406 -7.8594 Q2.9219 -7.8594 2.5156 -7.6328 Q2.1094 -7.4062 1.5156 -7 L1.2188 -7.5312 L4.4219 -9.4375 L4.7969 -9.4375 Q4.75 -8.7812 4.75 -7.625 L4.75 -1.7812 Z" stroke-width="1" transform="translate(288.7811,19.2689)" stroke="none"/></g><g text-rendering="optimizeLegibility" transform="translate(283.7733,36.6114)" color-rendering="optimizeQuality" color-interpolation="linearRGB" image-rendering="optimizeQuality"><path d="M7.5469 -5.6094 L5.5312 -5.6094 L5.5156 -5.5625 Q6.4531 -4.8906 6.4531 -3.625 Q6.4531 -2.2188 5.4922 -1.0547 Q4.5312 0.1094 2.8438 0.1094 Q1.8125 0.1094 1.1953 -0.5547 Q0.5781 -1.2188 0.5781 -2.3281 Q0.5781 -3.4531 1.0234 -4.3359 Q1.4688 -5.2188 2.1875 -5.7344 Q2.9062 -6.25 3.6875 -6.3906 Q4.4688 -6.5312 5.8281 -6.5312 L7.7344 -6.5312 L7.5469 -5.6094 ZM4.6719 -5.5781 Q3.8125 -5.5781 3.2422 -5.2422 Q2.6719 -4.9062 2.2188 -4.0938 Q1.7656 -3.2812 1.7656 -2.0156 Q1.7656 -1.2656 2.1172 -0.8516 Q2.4688 -0.4375 2.9844 -0.4375 Q3.9219 -0.4375 4.5781 -1.5 Q5.2344 -2.5625 5.2344 -3.8594 Q5.2344 -4.875 4.6719 -5.5781 Z" stroke="none"/></g><g text-rendering="optimizeLegibility" transform="translate(291.5389,40.2442)" color-rendering="optimizeQuality" color-interpolation="linearRGB" image-rendering="optimizeQuality"><path d="M3.8906 -1.375 L3.5938 0 L0.0625 0 L-0.0312 -0.2344 L2.6406 -3.3125 Q3.2031 -3.9688 3.4688 -4.2344 L3.4375 -4.2656 L2.2969 -4.2656 Q2.0469 -4.2656 1.9297 -4.2344 Q1.8125 -4.2031 1.6953 -4.1172 Q1.5781 -4.0312 1.4375 -3.8672 Q1.2969 -3.7031 1.1406 -3.3906 L0.7031 -3.3906 L0.9844 -4.6719 L4.4688 -4.6719 L4.5625 -4.4219 L1.0469 -0.4375 L1.0781 -0.3906 L2.1875 -0.3906 Q2.4688 -0.3906 2.625 -0.4219 Q2.7812 -0.4531 2.8984 -0.5469 Q3.0156 -0.6406 3.1406 -0.8125 Q3.2656 -0.9844 3.4531 -1.375 L3.8906 -1.375 Z" stroke="none"/></g><g text-rendering="optimizeLegibility" transform="translate(296.1014,40.2442)" color-rendering="optimizeQuality" color-interpolation="linearRGB" image-rendering="optimizeQuality"><path d="M3.5938 -3.5 Q3.5781 -3.875 3.5312 -4.0391 Q3.4844 -4.2031 3.3672 -4.2812 Q3.25 -4.3594 3.0312 -4.3594 Q2.5469 -4.3594 2.1562 -3.9688 Q1.7656 -3.5781 1.5156 -2.8594 Q1.2656 -2.1406 1.2656 -1.4688 Q1.2656 -1.2656 1.2969 -1.0859 Q1.3281 -0.9062 1.4219 -0.7734 Q1.5156 -0.6406 1.6641 -0.5703 Q1.8125 -0.5 2.0469 -0.5 Q2.4844 -0.5 2.8125 -0.6641 Q3.1406 -0.8281 3.5 -1.1875 L3.7969 -0.8906 Q3.3281 -0.3906 2.8672 -0.1562 Q2.4062 0.0781 1.8594 0.0781 Q1.1562 0.0781 0.7891 -0.3359 Q0.4219 -0.75 0.4219 -1.5625 Q0.4219 -2.0781 0.6172 -2.7031 Q0.8125 -3.3281 1.1875 -3.8047 Q1.5625 -4.2812 2.0703 -4.5156 Q2.5781 -4.75 3.1406 -4.75 Q3.5312 -4.75 3.8203 -4.7031 Q4.1094 -4.6562 4.3438 -4.5938 L4.1094 -3.5 L3.5938 -3.5 Z" stroke="none"/></g><g text-rendering="optimizeLegibility" transform="translate(292.8201,31.3067)" color-rendering="optimizeQuality" color-interpolation="linearRGB" image-rendering="optimizeQuality"><path d="M1.2344 0.0781 Q1.0781 0.8594 0.7891 1.3203 Q0.5 1.7812 0.0781 1.9844 Q-0.3438 2.1875 -0.9219 2.1875 Q-1.1406 2.1875 -1.3125 2.1406 L-1.2031 1.7031 Q-1.0781 1.75 -0.8594 1.75 Q-0.5938 1.75 -0.4375 1.6797 Q-0.2812 1.6094 -0.1406 1.4531 Q0 1.2969 0.125 1 Q0.25 0.7031 0.3594 0.2188 L1.3594 -4.1719 L0.7656 -4.1719 L0.8281 -4.4219 Q1.0625 -4.4531 1.1641 -4.4922 Q1.2656 -4.5312 1.3203 -4.6016 Q1.375 -4.6719 1.4297 -4.8047 Q1.4844 -4.9375 1.5781 -5.25 Q1.8281 -6.125 2.3672 -6.5703 Q2.9062 -7.0156 3.75 -7.0156 Q4.2188 -7.0156 4.5781 -6.9375 L4.375 -6.1094 L3.9531 -6.1094 Q3.875 -6.375 3.7656 -6.5 Q3.6562 -6.625 3.4531 -6.625 Q3.1719 -6.625 2.9766 -6.4766 Q2.7812 -6.3281 2.6406 -6.0234 Q2.5 -5.7188 2.3906 -5.2031 L2.2656 -4.6719 L3.375 -4.6719 L3.2656 -4.1719 L2.1562 -4.1719 L1.2344 0.0781 Z" stroke="none"/></g><g text-rendering="optimizeLegibility" transform="translate(305.3677,32.2951) matrix(1,0,0,2.1535,0,0)" color-rendering="optimizeQuality" color-interpolation="linearRGB" image-rendering="optimizeQuality"><path d="M0.4219 -14.0156 Q2.0781 -14.0156 3.1328 -13.5156 Q4.1875 -13.0156 4.7734 -12 Q5.3594 -10.9844 5.6172 -9.3516 Q5.875 -7.7188 5.875 -4.9219 Q5.875 -2.1562 5.6172 -0.5078 Q5.3594 1.1406 4.7734 2.1797 Q4.1875 3.2188 3.1328 3.7344 Q2.0781 4.25 0.4219 4.25 L0.4219 3.4531 Q1.1094 3.4531 1.625 3.3281 Q2.2344 3.1875 2.6406 2.7969 Q3.1094 2.375 3.4062 1.6094 Q3.75 0.7031 3.9219 -0.7812 Q4.0938 -2.3594 4.0938 -4.8438 Q4.0938 -7.0469 3.9453 -8.5859 Q3.7969 -10.125 3.4531 -11.0938 Q3.1875 -11.9219 2.7812 -12.375 Q2.4062 -12.7812 1.9219 -12.9844 Q1.3438 -13.2188 0.4219 -13.2188 L0.4219 -14.0156 Z" stroke="none"/></g><g text-rendering="optimizeLegibility" transform="translate(313.2427,29)" color-rendering="optimizeQuality" color-interpolation="linearRGB" image-rendering="optimizeQuality"><path d="M10.7812 -8.0156 L7.9062 -8.0156 L7.875 -7.9375 Q9.2188 -6.9844 9.2188 -5.1875 Q9.2188 -3.1719 7.8438 -1.5078 Q6.4688 0.1562 4.0625 0.1562 Q2.5781 0.1562 1.7031 -0.7891 Q0.8281 -1.7344 0.8281 -3.3281 Q0.8281 -4.9375 1.4609 -6.2031 Q2.0938 -7.4688 3.1172 -8.1953 Q4.1406 -8.9219 5.2578 -9.1328 Q6.375 -9.3438 8.3281 -9.3438 L11.0469 -9.3438 L10.7812 -8.0156 ZM6.6875 -7.9844 Q5.4375 -7.9844 4.625 -7.5 Q3.8125 -7.0156 3.1641 -5.8516 Q2.5156 -4.6875 2.5156 -2.875 Q2.5156 -1.7969 3.0156 -1.2031 Q3.5156 -0.6094 4.2656 -0.6094 Q5.6094 -0.6094 6.5469 -2.1328 Q7.4844 -3.6562 7.4844 -5.5156 Q7.4844 -6.9688 6.6875 -7.9844 Z" stroke="none"/></g><g text-rendering="optimizeLegibility" transform="translate(324.3365,32.4219)" color-rendering="optimizeQuality" color-interpolation="linearRGB" image-rendering="optimizeQuality"><path d="M5.4531 -1.9219 L5.0312 0 L0.0781 0 L-0.0469 -0.3281 L3.6875 -4.6406 Q4.4844 -5.5469 4.8594 -5.9375 L4.8125 -5.9844 L3.2188 -5.9844 Q2.8594 -5.9844 2.6953 -5.9375 Q2.5312 -5.8906 2.3672 -5.7656 Q2.2031 -5.6406 2.0156 -5.4062 Q1.8281 -5.1719 1.5938 -4.7344 L0.9844 -4.7344 L1.3906 -6.5312 L6.25 -6.5312 L6.375 -6.1875 L1.4688 -0.6094 L1.5156 -0.5469 L3.0625 -0.5469 Q3.4688 -0.5469 3.6875 -0.5938 Q3.9062 -0.6406 4.0703 -0.7656 Q4.2344 -0.8906 4.4062 -1.1406 Q4.5781 -1.3906 4.8438 -1.9219 L5.4531 -1.9219 Z" stroke="none"/></g></g></svg>