<?xml version="1.0" encoding="UTF-8" standalone="no"?><svg xmlns="http://www.w3.org/2000/svg" xmlns:xlink="http://www.w3.org/1999/xlink" stroke-dasharray="none" shape-rendering="auto" font-family="'Dialog'" width="73.812600" text-rendering="auto" fill-opacity="1" contentScriptType="text/ecmascript" color-interpolation="auto" color-rendering="auto" preserveAspectRatio="xMidYMid meet" font-size="12" fill="black" stroke="black" image-rendering="auto" stroke-miterlimit="10" zoomAndPan="magnify" version="1.0" stroke-linecap="square" stroke-linejoin="miter" contentStyleType="text/css" font-style="normal" height="19" stroke-width="1" stroke-dashoffset="0" font-weight="normal" stroke-opacity="1" y="-5.000000"><!--Converted from MathML using JEuclid--><defs id="genericDefs"/><g><g text-rendering="optimizeLegibility" transform="translate(-0.4062,14)" color-rendering="optimizeQuality" color-interpolation="linearRGB" image-rendering="optimizeQuality"><path d="M3.9219 4.2031 L2.4062 4.2031 L2.4062 -13.9688 L3.9219 -13.9688 L3.9219 4.2031 ZM8.1719 4.2031 L6.6562 4.2031 L6.6562 -13.9688 L8.1719 -13.9688 L8.1719 4.2031 Z" stroke="none"/></g><g text-rendering="optimizeLegibility" transform="translate(10.7656,14)" color-rendering="optimizeQuality" color-interpolation="linearRGB" image-rendering="optimizeQuality"><path d="M9.375 -8.1094 L5.9219 -8.1094 L4.7031 -2.5156 Q4.5938 -1.9844 4.5938 -1.7344 Q4.5938 -0.875 5.4375 -0.875 Q6.1562 -0.875 6.9531 -1.4375 L7.2812 -0.875 Q6 0.1562 4.7031 0.1562 Q2.9531 0.1562 2.9531 -1.4375 Q2.9531 -1.9531 3.0781 -2.4062 L4.3438 -8.1094 L3.7188 -8.1094 Q2.375 -8.1094 1.1875 -6.9062 L0.6875 -7.4219 Q2.1562 -9.3438 4.1719 -9.3438 L9.625 -9.3438 L9.375 -8.1094 Z" stroke="none"/></g><g text-rendering="optimizeLegibility" transform="translate(20.9844,14)" color-rendering="optimizeQuality" color-interpolation="linearRGB" image-rendering="optimizeQuality"><path d="M3.9219 4.2031 L2.4062 4.2031 L2.4062 -13.9688 L3.9219 -13.9688 L3.9219 4.2031 ZM8.1719 4.2031 L6.6562 4.2031 L6.6562 -13.9688 L8.1719 -13.9688 L8.1719 4.2031 Z" stroke="none"/></g><g text-rendering="optimizeLegibility" transform="translate(31.9375,14)" color-rendering="optimizeQuality" color-interpolation="linearRGB" image-rendering="optimizeQuality"><path d="M1.2188 -6.1562 L1.2188 -7.5312 L9.8594 -11.2344 L9.8594 -9.7812 L2.6562 -6.8438 L9.8594 -3.9219 L9.8594 -2.4531 L1.2188 -6.1562 ZM1.2188 -0.25 L1.2188 -1.6094 L9.8594 -1.6094 L9.8594 -0.25 L1.2188 -0.25 Z" stroke="none"/></g><g text-rendering="optimizeLegibility" transform="translate(43.7969,14)" color-rendering="optimizeQuality" color-interpolation="linearRGB" image-rendering="optimizeQuality"><path d="M9.375 -8.1094 L5.9219 -8.1094 L4.7031 -2.5156 Q4.5938 -1.9844 4.5938 -1.7344 Q4.5938 -0.875 5.4375 -0.875 Q6.1562 -0.875 6.9531 -1.4375 L7.2812 -0.875 Q6 0.1562 4.7031 0.1562 Q2.9531 0.1562 2.9531 -1.4375 Q2.9531 -1.9531 3.0781 -2.4062 L4.3438 -8.1094 L3.7188 -8.1094 Q2.375 -8.1094 1.1875 -6.9062 L0.6875 -7.4219 Q2.1562 -9.3438 4.1719 -9.3438 L9.625 -9.3438 L9.375 -8.1094 Z" stroke="none"/></g><g text-rendering="optimizeLegibility" transform="translate(54.4219,18.8906)" color-rendering="optimizeQuality" color-interpolation="linearRGB" image-rendering="optimizeQuality"><path d="M3.4531 -9.7812 L3.8594 -9.7812 L2.0781 -1.7031 Q2 -1.375 1.9844 -1.2109 Q1.9688 -1.0469 1.9688 -0.9375 Q1.9688 -0.7188 2.0312 -0.6094 Q2.0938 -0.5 2.2422 -0.4375 Q2.3906 -0.375 2.7188 -0.3281 L2.6562 0 L0.5312 0 L2.2969 -7.8438 Q2.3594 -8.1562 2.3828 -8.3047 Q2.4062 -8.4531 2.4219 -8.5859 Q2.4375 -8.7188 2.4375 -8.8281 Q2.4375 -9.0312 2.3672 -9.1406 Q2.2969 -9.25 2.1562 -9.2969 Q2.0156 -9.3438 1.6406 -9.3594 L1.7344 -9.7188 L3.4531 -9.7812 Z" stroke="none"/></g><g text-rendering="optimizeLegibility" transform="translate(58.2812,18.8906)" color-rendering="optimizeQuality" color-interpolation="linearRGB" image-rendering="optimizeQuality"><path d="M3.8281 -9.2188 L3.5156 -7.8906 L2.2969 -7.8906 L2.625 -9.2188 L3.8281 -9.2188 ZM2.1406 -1.7031 Q2.0625 -1.3594 2.0469 -1.2031 Q2.0312 -1.0469 2.0312 -0.9375 Q2.0312 -0.7188 2.0938 -0.6094 Q2.1562 -0.5 2.3047 -0.4375 Q2.4531 -0.375 2.7812 -0.3281 L2.7188 0 L0.5938 0 L1.625 -4.6094 Q1.7188 -5 1.75 -5.2344 Q1.7812 -5.4688 1.7812 -5.6406 Q1.7812 -5.8281 1.7266 -5.9375 Q1.6719 -6.0469 1.5312 -6.1016 Q1.3906 -6.1562 1.0625 -6.1719 L1.1406 -6.5312 L2.7969 -6.5938 L3.2031 -6.5938 L2.1406 -1.7031 Z" stroke="none"/></g><g text-rendering="optimizeLegibility" transform="translate(62.1094,18.8906)" color-rendering="optimizeQuality" color-interpolation="linearRGB" image-rendering="optimizeQuality"><path d="M6.5625 -5.2031 L6.5625 -5.0938 Q6.5625 -5.0469 6.5469 -5 Q7.1406 -5.8438 7.7266 -6.2422 Q8.3125 -6.6406 8.9531 -6.6406 Q9.5938 -6.6406 9.9375 -6.2734 Q10.2812 -5.9062 10.2812 -5.2031 Q10.2812 -4.7656 10.1406 -4.1406 L9.5625 -1.7031 Q9.4531 -1.2188 9.4531 -0.9375 Q9.4531 -0.7188 9.5156 -0.6094 Q9.5781 -0.5 9.7266 -0.4375 Q9.875 -0.375 10.2031 -0.3281 L10.1406 0 L7.9844 0 L8.8594 -3.4688 Q8.9531 -3.8438 9.0234 -4.2344 Q9.0938 -4.625 9.0938 -4.9375 Q9.0938 -5.4219 8.9219 -5.6328 Q8.75 -5.8438 8.375 -5.8438 Q8.1094 -5.8438 7.7812 -5.625 Q7.4531 -5.4062 7.0938 -4.9531 Q6.7344 -4.5 6.5 -4.0625 Q6.2656 -3.625 6.125 -2.9844 L5.5156 0 L4.3281 0 L5.1094 -3.4688 Q5.25 -4.1094 5.3047 -4.4141 Q5.3594 -4.7188 5.3594 -4.9375 Q5.3594 -5.4219 5.1875 -5.6328 Q5.0156 -5.8438 4.6406 -5.8438 Q4.375 -5.8438 4.0391 -5.625 Q3.7031 -5.4062 3.3359 -4.9375 Q2.9688 -4.4688 2.7422 -4.0234 Q2.5156 -3.5781 2.4062 -2.9531 L1.7812 0 L0.5938 0 L1.6406 -4.6719 Q1.6719 -4.8281 1.7266 -5.1328 Q1.7812 -5.4375 1.7812 -5.6406 Q1.7812 -5.8438 1.7266 -5.9453 Q1.6719 -6.0469 1.5312 -6.1016 Q1.3906 -6.1562 1.0469 -6.1719 L1.1406 -6.5312 L2.6875 -6.5938 L3.0781 -6.5938 L2.625 -4.8281 L2.7031 -4.7969 Q3.3438 -5.7344 3.9609 -6.1875 Q4.5781 -6.6406 5.2188 -6.6406 Q5.875 -6.6406 6.2188 -6.2734 Q6.5625 -5.9062 6.5625 -5.2031 Z" stroke="none"/></g></g></svg>