<?xml version="1.0" encoding="UTF-8" standalone="no"?>
<!-- Generator: Adobe Illustrator 17.1.0, SVG Export Plug-In . SVG Version: 6.00 Build 0)  -->

<svg
   xmlns:dc="http://purl.org/dc/elements/1.1/"
   xmlns:cc="http://creativecommons.org/ns#"
   xmlns:rdf="http://www.w3.org/1999/02/22-rdf-syntax-ns#"
   xmlns:svg="http://www.w3.org/2000/svg"
   xmlns="http://www.w3.org/2000/svg"
   xmlns:sodipodi="http://sodipodi.sourceforge.net/DTD/sodipodi-0.dtd"
   xmlns:inkscape="http://www.inkscape.org/namespaces/inkscape"
   version="1.1"
   id="Layer_1"
   x="0px"
   y="0px"
   width="241.5px"
   height="250.4px"
   viewBox="0 1.6 241.5 250.4"
   enable-background="new 0 1.6 241.5 250.4"
   xml:space="preserve"
   inkscape:version="0.48.5 r10040"
   sodipodi:docname="gELEM176-3.svg"><metadata
   id="metadata229"><rdf:RDF><cc:Work
       rdf:about=""><dc:format>image/svg+xml</dc:format><dc:type
         rdf:resource="http://purl.org/dc/dcmitype/StillImage" /><dc:title></dc:title></cc:Work></rdf:RDF></metadata><defs
   id="defs227" /><sodipodi:namedview
   pagecolor="#ffffff"
   bordercolor="#666666"
   borderopacity="1"
   objecttolerance="10"
   gridtolerance="10"
   guidetolerance="10"
   inkscape:pageopacity="0"
   inkscape:pageshadow="2"
   inkscape:window-width="1011"
   inkscape:window-height="818"
   id="namedview225"
   showgrid="false"
   inkscape:zoom="2.66577"
   inkscape:cx="121.15965"
   inkscape:cy="144.3311"
   inkscape:window-x="736"
   inkscape:window-y="642"
   inkscape:window-maximized="0"
   inkscape:current-layer="Layer_1" />
<g
   id="g3">
	<g
   id="g5">
		<polygon
   fill="#FFFFFF"
   points="173.9,24.6 173.8,16.2 169.7,23.6   "
   id="polygon7" />
	</g>
	<g
   id="g9">
		
			<line
   fill="none"
   stroke="#000000"
   stroke-linecap="round"
   stroke-linejoin="round"
   stroke-miterlimit="10"
   x1="163.2"
   y1="59.3"
   x2="172.2"
   y2="22.7"
   id="line11" />
		<polygon
   points="173.9,24.6 173.8,16.2 169.7,23.6   "
   id="polygon13" />
	</g>
</g>
<g
   id="g15">
	<g
   id="g17">
		<g
   id="g19">
			<g
   id="g21">
				<text
   transform="matrix(1.0005 0 0 1 91.2705 248.4111)"
   enable-background="new    "
   id="text23"><tspan
     x="0"
     y="0"
     font-family="'ArialMT'"
     font-size="11"
     id="tspan25">T</tspan><tspan
     x="5.9"
     y="0"
     font-family="'ArialMT'"
     font-size="11"
     id="tspan27">ARGE170</tspan></text>

			</g>
		</g>
	</g>
</g>
<g
   id="g29">
	<g
   id="g31">
		<g
   id="g33">
			<g
   id="g35">
				<text
   transform="matrix(1.0005 0 0 1 136.6035 130.5483)"
   font-family="'ArialMT'"
   font-size="11"
   id="text37">d</text>

			</g>
		</g>
	</g>
</g>
<g
   id="g39">
	<g
   id="g41">
		<g
   id="g43">
			<g
   id="g45">
				<g
   id="g47">
					<text
   transform="matrix(1.0005 0 0 1 198.2705 172.7461)"
   font-family="'ArialMT'"
   font-size="11"
   id="text49">r</text>

				</g>
			</g>
		</g>
	</g>
	<g
   id="g51">
		<g
   id="g53">
			<g
   id="g55">
				<g
   id="g57">
					<text
   transform="matrix(1.0005 0 0 1 201.9355 175.7461)"
   font-family="'ArialMT'"
   font-size="10"
   id="text59">t</text>

				</g>
			</g>
		</g>
	</g>
</g>
<g
   id="g61">
	<g
   id="g63">
		<polygon
   fill="#FFFFFF"
   points="98,198.6 99.1,190.2 94,197   "
   id="polygon65" />
	</g>
	<g
   id="g67">
		<polyline
   fill="none"
   stroke="#000000"
   points="89.6,245.1 76.9,245.1 96.6,196.4   "
   id="polyline69" />
		<polygon
   points="98,198.6 99.1,190.2 94,197   "
   id="polygon71" />
	</g>
</g>
<path
   fill="none"
   stroke="#00A94F"
   stroke-linecap="round"
   stroke-linejoin="round"
   stroke-miterlimit="10"
   d="M163.2,59.3"
   id="path73" />
<path
   fill="none"
   stroke="#00A94F"
   stroke-linecap="round"
   stroke-linejoin="round"
   stroke-miterlimit="10"
   d="M155.4,91.2"
   id="path75" />
<g
   id="g77">
	<g
   id="g79">
		<polygon
   fill="#FFFFFF"
   points="158.1,88.2 157.9,79.8 153.9,87.2   "
   id="polygon81" />
		<polygon
   fill="#FFFFFF"
   points="132.3,176.1 132.5,184.5 136.6,177.1   "
   id="polygon83" />
	</g>
	<g
   id="g85">
		
			<line
   fill="none"
   stroke="#000000"
   stroke-linecap="round"
   stroke-linejoin="round"
   stroke-miterlimit="10"
   x1="134.1"
   y1="178"
   x2="156.4"
   y2="86.2"
   id="line87" />
		<polygon
   points="158.1,88.2 157.9,79.8 153.9,87.2   "
   id="polygon89" />
		<polygon
   points="132.3,176.1 132.5,184.5 136.6,177.1   "
   id="polygon91" />
	</g>
</g>
<path
   fill="none"
   stroke="#000000"
   stroke-width="1.0883"
   stroke-linecap="round"
   stroke-linejoin="round"
   stroke-miterlimit="10"
   d="  M42.5,188.6C31.7,184,24,171.3,24,156.4c0-18.8,12.3-34.1,27.6-34.1c1.9,0,3.8,0.2,5.6,0.7"
   id="path93" />
<ellipse
   fill="none"
   stroke="#000000"
   stroke-width="1.0883"
   stroke-linecap="round"
   stroke-linejoin="round"
   stroke-miterlimit="10"
   cx="197.6"
   cy="186.5"
   rx="27.6"
   ry="34.1"
   id="ellipse95" />
<path
   fill="none"
   stroke="#000000"
   stroke-width="1.0883"
   stroke-linecap="round"
   stroke-linejoin="round"
   stroke-miterlimit="10"
   d="  M42.2,188.6c33.1,18.6,80.2,31.9,156.5,31.9"
   id="path97" />
<path
   fill="none"
   stroke="#000000"
   stroke-width="1.0883"
   stroke-linecap="round"
   stroke-linejoin="round"
   stroke-miterlimit="10"
   d="  M57,123.4c43,24.2,91.7,28.7,140.3,28.7"
   id="path99" />
<g
   id="g101">
	<g
   id="g103">
		<polygon
   fill="#FFFFFF"
   points="214.6,174.6 218.9,167.3 211.6,171.5   "
   id="polygon105" />
	</g>
	<g
   id="g107">
		
			<line
   fill="none"
   stroke="#000000"
   stroke-linecap="round"
   stroke-linejoin="round"
   stroke-miterlimit="10"
   x1="198.5"
   y1="187.7"
   x2="214.2"
   y2="172"
   id="line109" />
		<polygon
   points="214.6,174.6 218.9,167.3 211.6,171.5   "
   id="polygon111" />
	</g>
</g>
<polyline
   fill="none"
   stroke="#000000"
   points="154,185.4 157.3,170.4 138.5,167.4 "
   id="polyline113" />
<line
   fill="none"
   stroke="#000000"
   stroke-width="0.7194"
   stroke-linecap="round"
   stroke-linejoin="round"
   stroke-miterlimit="10"
   x1="48.5"
   y1="150.8"
   x2="44.2"
   y2="164.4"
   id="line115" />
<path
   fill="none"
   stroke="#000000"
   stroke-linejoin="round"
   stroke-miterlimit="10"
   d="M172.2,22.7"
   id="path117" />
<path
   fill="none"
   stroke="#000000"
   stroke-linejoin="round"
   stroke-miterlimit="10"
   d="M165,57.2"
   id="path119" />
<g
   id="g121">
	<g
   id="g123">
		<polygon
   fill="#FFFFFF"
   points="69.1,74.4 62.5,69.2 65.5,77   "
   id="polygon125" />
	</g>
	<g
   id="g127">
		
			<line
   fill="none"
   stroke="#000000"
   stroke-linecap="round"
   stroke-linejoin="round"
   stroke-miterlimit="10"
   x1="79.5"
   y1="92.4"
   x2="66.4"
   y2="74.5"
   id="line129" />
		<polygon
   points="69.1,74.4 62.5,69.2 65.5,77   "
   id="polygon131" />
	</g>
</g>
<path
   fill="none"
   stroke="#000000"
   stroke-linejoin="round"
   stroke-miterlimit="10"
   d="M85.9,59.5c8.1,1.3,17.7,2,27,1  c12.9-1.6,30.7-8.5,42.8-14.5c12.1-6.1,18.3-12.1,29.1-20.4"
   id="path133" />
<path
   fill="none"
   stroke="#000000"
   stroke-linejoin="round"
   stroke-miterlimit="10"
   d="M80.9,125.6c17.8-2.6,35.6-5.3,51.3-9  c15.6-3.8,28.5-8.3,42.8-13.5c14.2-5.3,26.5-11.8,40.8-18.1"
   id="path135" />
<path
   fill="none"
   stroke="#000000"
   stroke-width="0.7194"
   stroke-linecap="round"
   stroke-linejoin="round"
   stroke-miterlimit="10"
   stroke-dasharray="36,5.76,3.6,5.76"
   d="  M203.1,56.4c10.9-6.5,25.5-16.7,38-24"
   id="path137" />
<path
   fill="none"
   stroke="#000000"
   stroke-width="0.7194"
   stroke-linecap="round"
   stroke-linejoin="round"
   stroke-miterlimit="10"
   d="  M79.9,94c15.7-0.2,33.4-1.6,48-4.4c15.7-3.1,30.6-10.3,42.8-15.5c12.1-5.3,18.5-9.4,29.9-16.1c0.8-0.5,1.7-1,2.5-1.5"
   id="path139" />
<path
   fill="none"
   stroke="#000000"
   stroke-width="0.7194"
   stroke-linecap="round"
   stroke-linejoin="round"
   stroke-miterlimit="10"
   stroke-dasharray="36,5.76,3.6,5.76"
   d="  M29.6,89.5c15.3,2.2,30.6,4.4,47,4.4c1.1,0,2.2,0,3.3,0"
   id="path141" />
<polyline
   fill="none"
   stroke="#000000"
   stroke-linecap="round"
   stroke-linejoin="round"
   stroke-miterlimit="10"
   points="175.3,72.4   171.8,90.3 155.1,95 "
   id="polyline143" />
<g
   id="g145">
	<g
   id="g147">
		<g
   id="g149">
			<g
   id="g151">
				<text
   transform="matrix(1.0005,0,0,1,29.0913,44.667)"
   enable-background="new    "
   id="text153"><tspan
     x="0"
     y="0"
     font-size="11"
     id="tspan155"
     style="font-size:11px;font-family:ArialMT">CON</tspan><tspan
     x="24.4"
     y="0"
     font-size="11"
     id="tspan157"
     style="font-size:11px;font-family:ArialMT">T</tspan><tspan
     x="30.299999"
     y="0"
     font-size="11"
     id="tspan159"
     style="font-size:11px;font-family:ArialMT">A177</tspan></text>

			</g>
		</g>
	</g>
</g>
<g
   id="g161">
	<g
   id="g163">
		<g
   id="g165">
			<g
   id="g167">
				<text
   transform="matrix(1.0005 0 0 1 172.7578 11)"
   font-family="'ArialMT'"
   font-size="11"
   id="text169">n</text>

			</g>
		</g>
	</g>
</g>
<g
   id="g171">
	<g
   id="g173">
		<g
   id="g175">
			<g
   id="g177">
				<g
   id="g179">
					<text
   transform="matrix(1.0005 0 0 1 79.7588 82.667)"
   font-family="'ArialMT'"
   font-size="11"
   id="text181">r</text>

				</g>
			</g>
		</g>
	</g>
	<g
   id="g183">
		<g
   id="g185">
			<g
   id="g187">
				<g
   id="g189">
					<text
   transform="matrix(1.0005 0 0 1 83.4238 85.667)"
   font-family="'ArialMT'"
   font-size="10"
   id="text191">c</text>

				</g>
			</g>
		</g>
	</g>
</g>
<path
   fill="none"
   stroke="#000000"
   stroke-linecap="round"
   stroke-miterlimit="10"
   d="M182.2,27.9c2.2-2.5,5-4.3,8.1-5.3  c12.5-4,27,7.1,32.8,25s0.5,35.5-12,39.5"
   id="path193" />
<path
   fill="none"
   stroke="#000000"
   stroke-linecap="round"
   stroke-miterlimit="10"
   d="M55.2,91.8c0-18.8,10.5-33.9,23.6-33.9  s23.6,15.1,23.6,33.9s-10.5,33.9-23.6,33.9C65.7,125.6,55.2,110.6,55.2,91.8L55.2,91.8z"
   id="path195" />
<g
   id="g197">
	<g
   id="g199">
		<g
   id="g201">
			<polygon
   fill="#FFFFFF"
   points="126,66.3 133.2,70.7 129.2,63.3    "
   id="polygon203" />
		</g>
	</g>
	<g
   id="g205">
		<g
   id="g207">
			<polyline
   fill="none"
   stroke="#000000"
   stroke-linejoin="round"
   stroke-miterlimit="10"
   points="128.6,65.9 104.4,40.2      89.8,40.2    "
   id="polyline209" />
			<polygon
   points="126,66.3 133.2,70.7 129.2,63.3    "
   id="polygon211" />
		</g>
	</g>
</g>
<path
   stroke="#000000"
   d="M146.9,83.5c0-1.6,1.3-2.9,2.9-2.9c1.6,0,2.9,1.3,2.9,2.9s-1.3,2.9-2.9,2.9  C148.2,86.3,146.9,85.1,146.9,83.5L146.9,83.5z"
   id="path213" />
<path
   stroke="#000000"
   d="M77.5,94.3c0-1.6,1.3-2.9,2.9-2.9s2.9,1.3,2.9,2.9s-1.3,2.9-2.9,2.9C78.8,97.2,77.5,95.9,77.5,94.3  L77.5,94.3z"
   id="path215" />
<path
   stroke="#000000"
   d="M200.2,56.5L200.2,56.5c0-1.6,1.3-2.9,2.9-2.9"
   id="path217" />
<path
   stroke="#000000"
   d="M203.1,53.6c1.6,0,2.9,1.3,2.9,2.9c0,1.6-1.3,2.9-2.9,2.9c-1.6,0-2.9-1.3-2.9-2.9"
   id="path219" />
<path
   fill="none"
   stroke="#000000"
   stroke-linecap="round"
   stroke-linejoin="round"
   stroke-miterlimit="10"
   stroke-dasharray="36,5.76,3.6,5.76"
   d="  M0.5,136.4C15.9,148,55.4,163.5,99.7,177c46.8,11.1,98.8,13.7,133.3,7.9"
   id="path221" />
<line
   fill="none"
   stroke="#000000"
   x1="199.7"
   y1="190.5"
   x2="197.3"
   y2="185"
   id="line223" />
</svg>