<?xml version="1.0" encoding="utf-8"?>
<!-- Generator: Adobe Illustrator 17.1.0, SVG Export Plug-In . SVG Version: 6.00 Build 0)  -->

<svg version="1.1" id="Layer_1" xmlns="http://www.w3.org/2000/svg" xmlns:xlink="http://www.w3.org/1999/xlink" x="0px" y="0px"
	 width="166.2px" height="155px" viewBox="0 1.6 166.2 155" enable-background="new 0 1.6 166.2 155" xml:space="preserve">
<g>
	<g>
		<g>
			<g>
				
					<text transform="matrix(0.9997 -2.410000e-002 2.410000e-002 0.9997 151.0151 153.0448)" fill="#363639" font-family="'ArialMT'" font-size="11">J</text>
			</g>
		</g>
	</g>
</g>
<g>
	<g>
		<g>
			<g>
				
					<text transform="matrix(0.9997 -2.410000e-002 2.410000e-002 0.9997 0.2651 19.7949)" fill="#363639" font-family="'ArialMT'" font-size="11">I</text>
			</g>
		</g>
	</g>
</g>
<g>
	<g>
		<g>
			<g>
				
					<text transform="matrix(0.9997 -2.410000e-002 2.410000e-002 0.9997 158.8159 128.4452)" fill="#363639" font-family="'ArialMT'" font-size="11">K</text>
			</g>
		</g>
	</g>
</g>
<g>
	<g>
		<g>
			<g>
				
					<text transform="matrix(0.9997 -2.410000e-002 2.410000e-002 0.9997 18.3159 11.1443)" fill="#363639" font-family="'ArialMT'" font-size="11">L</text>
			</g>
		</g>
	</g>
</g>
<g>
	<g>
		<g>
			<g>
				
					<text transform="matrix(0.9997 -2.410000e-002 2.410000e-002 0.9997 108.7231 67.6497)" fill="#363639" font-family="'ArialMT'" font-size="11">x</text>
			</g>
		</g>
	</g>
</g>
<g>
	<g>
		<g>
			<g>
				
					<text transform="matrix(0.9997 -2.410000e-002 2.410000e-002 0.9997 118.3198 107.8738)" fill="#363639" font-family="'ArialMT'" font-size="11">y</text>
			</g>
		</g>
	</g>
</g>
<g>
	<g>
		<g>
			<polygon fill="#FFFFFF" points="9.4,125.8 6.5,114.9 3.6,125.8 			"/>
		</g>
		<g>
			<line fill="none" stroke="#000000" stroke-linecap="square" x1="6.6" y1="123.8" x2="6.6" y2="143.8"/>
			<polygon points="9.4,125.8 6.5,114.9 3.6,125.8 			"/>
		</g>
	</g>
	<g>
		<g>
			<g>
				<g>
					<text transform="matrix(1.0014 0 0 1 40.6846 148.3281)" font-family="'ArialMT'" font-size="11">X</text>
				</g>
			</g>
		</g>
	</g>
	<g>
		<g>
			<g>
				<g>
					<text transform="matrix(1.0014 0 0 1 2.853 110.4268)" font-family="'ArialMT'" font-size="11">Y</text>
				</g>
			</g>
		</g>
	</g>
	<g>
		<g>
			<polygon fill="#FFFFFF" points="25.4,146.6 36.3,143.7 25.4,140.8 			"/>
		</g>
		<g>
			<line fill="none" stroke="#000000" stroke-linecap="square" x1="27.4" y1="143.8" x2="6.6" y2="143.8"/>
			<polygon points="25.4,146.6 36.3,143.7 25.4,140.8 			"/>
		</g>
	</g>
</g>
<g>
	<g>
		<polygon fill="#FFFFFF" points="103,73.9 106.6,66.3 99.6,71.1 		"/>
	</g>
	<g>
		<line fill="none" stroke="#000000" x1="81.2" y1="96.1" x2="102.3" y2="71.4"/>
		<polygon points="103,73.9 106.6,66.3 99.6,71.1 		"/>
	</g>
</g>
<path d="M155.9,133.4c0-1.6,1.3-2.9,2.9-2.9c1.6,0,2.9,1.3,2.9,2.9c0,1.6-1.3,2.9-2.9,2.9C157.2,136.2,155.9,135,155.9,133.4
	L155.9,133.4z"/>
<path d="M5.6,15.1c0-1.6,1.3-2.9,2.9-2.9s2.9,1.3,2.9,2.9S10.1,18,8.5,18C6.9,17.9,5.6,16.7,5.6,15.1L5.6,15.1z"/>
<path d="M152.9,139c0-1.6,1.3-2.9,2.9-2.9c1.6,0,2.9,1.3,2.9,2.9c0,1.6-1.3,2.9-2.9,2.9S152.9,140.6,152.9,139L152.9,139z"/>
<path d="M10.9,11.7c0-1.6,1.3-2.9,2.9-2.9s2.9,1.3,2.9,2.9s-1.3,2.9-2.9,2.9C12.2,14.6,10.9,13.3,10.9,11.7L10.9,11.7z"/>
<path fill="none" stroke="#00AE51" stroke-dasharray="36,5.76,3.6,5.76" d="M134.2,127.7"/>
<g>
	<g>
		<polygon fill="#FFFFFF" points="108.8,115 116.9,117.3 111,111.2 		"/>
	</g>
	<g>
		<path fill="none" stroke="#000000" d="M81.4,93.2c10.1,8.5,16,12.5,29.8,20.7"/>
		<polygon points="108.8,115 116.9,117.3 111,111.2 		"/>
	</g>
</g>
<path d="M77.4,96.4c0-1.6,1.3-2.9,2.9-2.9s2.9,1.3,2.9,2.9s-1.3,2.9-2.9,2.9C78.7,99.2,77.4,98,77.4,96.4L77.4,96.4z"/>
<path d="M81.4,91.4c0-1.6,1.3-2.9,2.9-2.9s2.9,1.3,2.9,2.9s-1.3,2.9-2.9,2.9C82.7,94.2,81.4,93,81.4,91.4L81.4,91.4z"/>
<g>
	<g>
		<g>
			<g>
				
					<text transform="matrix(0.9997 -2.410000e-002 2.410000e-002 0.9997 67.5659 106.3943)" fill="#363639" font-family="'ArialMT'" font-size="11">M</text>
			</g>
		</g>
	</g>
</g>
<g>
	<g>
		<g>
			<g>
				
					<text transform="matrix(0.9997 -2.410000e-002 2.410000e-002 0.9997 79.8159 82.6443)" fill="#363639" font-family="'ArialMT'" font-size="11">O</text>
			</g>
		</g>
	</g>
</g>
<path fill="none" stroke="#000000" d="M8.8,14.8c22.4,50.9,96.6,107.5,147.7,124.7"/>
<path fill="none" stroke="#000000" d="M13.9,12.1c24.7,53.4,93.5,101.2,143.7,122.3"/>
<line fill="none" stroke="#000000" x1="8.2" y1="15.1" x2="15.2" y2="11.6"/>
<line fill="none" stroke="#000000" x1="155.8" y1="139.3" x2="157.8" y2="132.8"/>
</svg>
