<?xml version="1.0" encoding="utf-8"?>
<!-- Generator: Adobe Illustrator 17.1.0, SVG Export Plug-In . SVG Version: 6.00 Build 0)  -->

<svg version="1.1" id="Layer_1" xmlns="http://www.w3.org/2000/svg" xmlns:xlink="http://www.w3.org/1999/xlink" x="0px" y="0px"
	 width="321px" height="271px" viewBox="145 261 321 271" enable-background="new 145 261 321 271" xml:space="preserve">
<g>
	<rect x="145" y="261" fill="#FFFFFF" width="321" height="271"/>
	<path fill="none" stroke="#000000" stroke-miterlimit="10" d="M173.2,302.1h205.3 M173.4,503.2V269.7"/>
	<polygon points="173.4,269.7 173.9,269.7 176.4,278.7 170.4,278.7 172.9,269.7 	"/>
	<line fill="none" stroke="#000000" stroke-miterlimit="10" x1="173.4" y1="503.2" x2="443.6" y2="503.2"/>
	<polygon points="443.6,503.2 443.6,503.7 434.6,506.2 434.6,500.2 443.6,502.7 	"/>
	<path fill="none" stroke="#000000" stroke-width="2" stroke-miterlimit="10" d="M173.4,503.2c9.1-23.9,13.6-32.8,22.6-48.7
		c12.3-21.7,19.2-29.6,26.4-38.6c7.3-9.2,24.9-29.3,39-42.3c16.8-15.4,30.7-23.6,42.3-31.3c9.2-6.1,32.8-20.8,53.7-30.9
		c23.3-11.3,44.6-18.2,68.2-25.8"/>
	<polygon fill="#363639" points="163.5,281.5 163.5,272.9 169.3,272.9 169.3,273.9 164.6,273.9 164.6,276.6 168.6,276.6 
		168.6,277.6 164.6,277.6 164.6,281.5 	"/>
	<path fill="#363639" d="M451.3,507.6v-0.9c-0.5,0.7-1.2,1-2,1c-0.4,0-0.7-0.1-1-0.2s-0.6-0.3-0.7-0.5c-0.2-0.2-0.3-0.5-0.3-0.8
		c0-0.2-0.1-0.5-0.1-1v-3.9h1.1v3.5c0,0.6,0,0.9,0.1,1.1c0.1,0.3,0.2,0.5,0.4,0.6c0.2,0.2,0.5,0.2,0.8,0.2s0.6-0.1,0.9-0.2
		c0.3-0.2,0.5-0.4,0.6-0.7c0.1-0.3,0.2-0.7,0.2-1.2v-3.3h1.1v6.2L451.3,507.6L451.3,507.6z"/>
	<polygon fill="#363639" points="156.3,306 156.3,297.4 162.1,297.4 162.1,298.4 157.4,298.4 157.4,301.1 161.4,301.1 161.4,302.1 
		157.4,302.1 157.4,306 	"/>
	<path fill="#363639" d="M167,299.4c-0.3,0.3-0.6,0.5-0.9,0.6c-0.3,0.1-0.6,0.2-1,0.2c-0.6,0-1-0.1-1.3-0.4s-0.5-0.6-0.5-1.1
		c0-0.3,0-0.5,0.2-0.7c0.1-0.2,0.3-0.4,0.5-0.5s0.4-0.2,0.6-0.3c0.2,0,0.4-0.1,0.8-0.1c0.7-0.1,1.2-0.2,1.6-0.3c0-0.1,0-0.2,0-0.2
		c0-0.4-0.1-0.6-0.2-0.8c-0.2-0.2-0.6-0.3-1-0.3s-0.7,0.1-0.9,0.2c-0.2,0.2-0.3,0.4-0.4,0.8l-0.9-0.1c0.1-0.4,0.2-0.7,0.4-0.9
		c0.2-0.2,0.4-0.4,0.8-0.5s0.7-0.2,1.2-0.2c0.4,0,0.8,0.1,1.1,0.2s0.5,0.2,0.6,0.4c0.1,0.2,0.2,0.4,0.3,0.6c0,0.2,0.1,0.4,0.1,0.8
		v1.2c0,0.8,0,1.3,0,1.5s0.1,0.4,0.2,0.6h-0.9C167.1,299.8,167,299.6,167,299.4 M166.9,297.4c-0.3,0.1-0.8,0.2-1.4,0.3
		c-0.4,0.1-0.6,0.1-0.8,0.2s-0.3,0.2-0.3,0.3c-0.1,0.1-0.1,0.3-0.1,0.4c0,0.2,0.1,0.4,0.3,0.6s0.4,0.2,0.8,0.2
		c0.3,0,0.6-0.1,0.9-0.2c0.3-0.1,0.5-0.3,0.6-0.6c0.1-0.2,0.1-0.5,0.1-0.9v-0.3H166.9z"/>
	<polygon fill="#363639" points="156.3,444.7 156.3,436.1 162.1,436.1 162.1,437.1 157.4,437.1 157.4,439.8 161.4,439.8 
		161.4,440.8 157.4,440.8 157.4,444.7 	"/>
	<path fill="#363639" d="M163.6,441.4v-1h0.9v1H163.6 M163.6,447.6v-5.2h0.9v5.2H163.6L163.6,447.6z"/>
	<path fill="#363639" d="M163.6,439v-5.2h0.8v0.7c0.4-0.6,0.9-0.8,1.6-0.8c0.3,0,0.6,0.1,0.9,0.2c0.3,0.1,0.5,0.3,0.6,0.4
		c0.1,0.2,0.2,0.4,0.3,0.7c0,0.2,0.1,0.5,0.1,0.8v3.2H167v-3.1c0-0.4,0-0.6-0.1-0.8c-0.1-0.2-0.2-0.3-0.4-0.4s-0.4-0.2-0.6-0.2
		c-0.4,0-0.7,0.1-1,0.4c-0.3,0.2-0.4,0.7-0.4,1.4v2.8h-0.9V439z"/>
	<path fill="#363639" d="M169.1,439v-5.2h0.8v0.8c0.2-0.4,0.4-0.6,0.6-0.7c0.2-0.1,0.4-0.2,0.6-0.2c0.3,0,0.6,0.1,0.9,0.3l-0.3,0.8
		c-0.2-0.1-0.4-0.2-0.6-0.2c-0.2,0-0.4,0.1-0.5,0.2c-0.2,0.1-0.3,0.3-0.3,0.5c-0.1,0.3-0.1,0.7-0.1,1v2.7L169.1,439L169.1,439z"/>
	<path fill="none" stroke="#000000" stroke-miterlimit="10" d="M268.5,301.9L173.3,502 M200.9,446.6h-27.6 M201.3,446.6v56.3"/>
	<path fill="#363639" d="M202.4,515.3v-0.9c-0.5,0.7-1.2,1-2,1c-0.4,0-0.7-0.1-1-0.2c-0.3-0.1-0.6-0.3-0.7-0.5s-0.3-0.5-0.3-0.8
		c0-0.2-0.1-0.5-0.1-1V509h1.1v3.5c0,0.6,0,0.9,0.1,1.1c0.1,0.3,0.2,0.5,0.4,0.6c0.2,0.2,0.5,0.2,0.8,0.2s0.6-0.1,0.9-0.2
		c0.3-0.2,0.5-0.4,0.6-0.7s0.2-0.7,0.2-1.2V509h1.1v6.2h-1.1V515.3z"/>
	<path fill="#363639" d="M205.6,513.2v-1h0.9v1H205.6 M205.6,519.4v-5.2h0.9v5.2H205.6L205.6,519.4z"/>
	<path fill="none" stroke="#000000" stroke-miterlimit="10" d="M268.3,302.7v64.6 M299.1,302.2l-31.2,65.4 M299.8,302.2v42.4
		 M320,302.2L300.1,344 M320.4,302v30.2 M334.3,302.5l-13.7,29 M334.8,302.3l0.1,20.5 M345.1,302l-9.9,21.2 M345.6,301.9v15.4
		 M353.1,302.3l-7.1,15.2 M353.5,302.1v11.2 M359,302.3l-5.2,10.8 M359.4,302.1v7.9 M364.5,302.1l-4.8,8.3 M365,302v5.6
		 M368.2,302.1l-2.9,5.8 M368.7,302v4.1"/>
</g>
</svg>
