<?xml version="1.0" encoding="utf-8"?>
<!-- Generator: Adobe Illustrator 17.1.0, SVG Export Plug-In . SVG Version: 6.00 Build 0)  -->

<svg version="1.1" id="Layer_1" xmlns="http://www.w3.org/2000/svg" xmlns:xlink="http://www.w3.org/1999/xlink" x="0px" y="0px"
	 width="268px" height="219px" viewBox="171 287 268 219" enable-background="new 171 287 268 219" xml:space="preserve">
<g>
	<rect x="171" y="287" fill="#FFFFFF" width="268" height="219"/>
	<line fill="none" stroke="#000000" stroke-miterlimit="10" x1="409.2" y1="394" x2="286" y2="394"/>
	<polyline fill="#363639" stroke="#000000" stroke-miterlimit="10" points="403.6,395.4 403.6,392.5 409.2,394 403.6,395.4 	"/>
	<path fill="none" stroke="#000000" stroke-miterlimit="10" d="M195.1,445.3h34.5v50.8h-34.5V445.3L195.1,445.3z M195.1,445.3h34.5
		l173.8-125.8h-34.6L195.1,445.3L195.1,445.3z M403.4,370.4v-50.9 M403.4,319.6h-34.6 M368.8,319.6v50.9 M368.8,370.4h34.6
		 M229.6,496.2h-34.5"/>
	<line fill="none" stroke="#000000" stroke-miterlimit="10" stroke-dasharray="10,4" x1="195.1" y1="496.2" x2="368.8" y2="370.4"/>
	<line fill="none" stroke="#000000" stroke-miterlimit="10" x1="403.4" y1="370.4" x2="229.6" y2="496.2"/>
	<path fill="#363639" stroke="#000000" stroke-miterlimit="10" d="M216.3,470.8c0-3-3.2-4.8-5.8-3.3s-2.6,5.2,0,6.7
		C213,475.6,216.2,473.8,216.3,470.8"/>
	<path fill="#363639" stroke="#000000" stroke-miterlimit="10" d="M390,345c0-2.9-3.2-4.7-5.8-3.3c-2.6,1.5-2.6,5.1,0,6.6
		C386.8,349.8,390,347.9,390,345"/>
	<line fill="none" stroke="#000000" stroke-miterlimit="10" x1="421.6" y1="320.5" x2="180.7" y2="494.4"/>
	<polyline fill="#363639" stroke="#000000" stroke-miterlimit="10" points="418,325 416.3,322.6 421.6,320.5 418,325 	"/>
	<path fill="#363639" stroke="#000000" stroke-miterlimit="10" d="M325.6,314.3c0-3-3.2-4.8-5.7-3.3s-2.5,5.2,0,6.7
		C322.4,319.1,325.6,317.3,325.6,314.3"/>
	<line fill="none" stroke="#000000" stroke-miterlimit="10" x1="301" y1="342.6" x2="301" y2="435.5"/>
	<polyline fill="#363639" stroke="#000000" stroke-miterlimit="10" points="302.5,348.2 299.5,348.2 301,342.6 302.5,348.2 	"/>
	<path fill="#363639" d="M305.7,340.9l1-0.2c0,0.4,0.2,0.7,0.5,1s0.6,0.3,1.1,0.3s0.8-0.1,1.1-0.3c0.2-0.2,0.3-0.4,0.3-0.7
		c0-0.2-0.1-0.4-0.3-0.6c-0.1-0.1-0.5-0.2-1.1-0.4c-0.8-0.2-1.3-0.4-1.6-0.5c-0.3-0.1-0.5-0.3-0.7-0.6c-0.2-0.3-0.2-0.5-0.2-0.8
		s0.1-0.5,0.2-0.8c0.1-0.2,0.3-0.4,0.5-0.6c0.2-0.1,0.4-0.2,0.7-0.3c0.3-0.1,0.6-0.1,0.9-0.1c0.5,0,0.9,0.1,1.3,0.2s0.6,0.3,0.8,0.6
		c0.2,0.2,0.3,0.6,0.4,1l-1,0.1c0-0.3-0.2-0.6-0.4-0.7c-0.2-0.2-0.5-0.3-0.9-0.3c-0.5,0-0.8,0.1-1,0.2c-0.2,0.2-0.3,0.3-0.3,0.6
		c0,0.1,0,0.3,0.1,0.4s0.2,0.2,0.4,0.3c0.1,0,0.4,0.1,0.9,0.3c0.7,0.2,1.3,0.4,1.6,0.5c0.3,0.1,0.5,0.3,0.7,0.6
		c0.2,0.2,0.3,0.5,0.3,0.9s-0.1,0.7-0.3,1c-0.2,0.3-0.5,0.5-0.9,0.7s-0.8,0.3-1.3,0.3c-0.8,0-1.4-0.2-1.8-0.5
		C306.1,342.1,305.8,341.6,305.7,340.9L305.7,340.9z"/>
	<path fill="#363639" d="M419.1,398.5l0.2,0.9c-0.3,0-0.6,0.1-0.8,0.1c-0.4,0-0.7-0.1-0.9-0.2c-0.2-0.1-0.4-0.3-0.4-0.5
		c-0.1-0.2-0.1-0.6-0.1-1.2V394h-0.8v-0.8h0.8v-1.5l1-0.6v2.2h1.1v0.8H418v3.6c0,0.3,0,0.5,0.1,0.6c0,0.1,0.1,0.2,0.2,0.2
		s0.2,0.1,0.4,0.1C418.7,398.5,418.9,398.5,419.1,398.5L419.1,398.5z"/>
	<path fill="#363639" d="M426.4,323.6v-6.2h0.9v0.9c0.2-0.4,0.5-0.7,0.7-0.9c0.2-0.1,0.4-0.2,0.7-0.2c0.4,0,0.7,0.1,1.1,0.3l-0.4,1
		c-0.3-0.1-0.5-0.2-0.8-0.2c-0.2,0-0.4,0.1-0.6,0.2s-0.3,0.3-0.4,0.6c-0.1,0.4-0.2,0.8-0.2,1.2v3.3L426.4,323.6L426.4,323.6z"/>
	<polygon fill="#363639" points="201.8,467.6 201.8,459 203,459 203,467.6 	"/>
	<path fill="#363639" d="M391.1,356.6l1-0.1c0,0.7,0.2,1.1,0.4,1.4c0.2,0.2,0.5,0.4,0.9,0.4c0.3,0,0.5-0.1,0.7-0.2s0.3-0.3,0.4-0.5
		s0.1-0.6,0.1-1.1v-5.9h1.1v5.9c0,0.7-0.1,1.3-0.3,1.7c-0.2,0.4-0.4,0.7-0.8,0.9c-0.4,0.2-0.8,0.3-1.3,0.3c-0.8,0-1.3-0.2-1.7-0.6
		C391.3,358.1,391.1,357.5,391.1,356.6L391.1,356.6z"/>
	<polygon fill="#363639" points="318.7,307.2 318.7,298.6 319.9,298.6 319.9,302.9 324.1,298.6 325.7,298.6 322.1,302.1 
		325.8,307.2 324.3,307.2 321.3,302.9 319.9,304.3 319.9,307.2 	"/>
</g>
</svg>
