<?xml version="1.0" encoding="utf-8"?>
<!-- Generator: Adobe Illustrator 14.0.0, SVG Export Plug-In . SVG Version: 6.00 Build 43363)  -->

<svg version="1.1" id="Layer_1" xmlns="http://www.w3.org/2000/svg" xmlns:xlink="http://www.w3.org/1999/xlink" x="0px" y="0px"
	 width="269px" height="181px" viewBox="0 0 269 181" enable-background="new 0 0 269 181" xml:space="preserve">
<g>
	<rect fill="#FFFFFF" width="269" height="181"/>
	<path fill="none" stroke="#000000" stroke-miterlimit="10" d="M24.1,115.6H32.7 M24.1,93.1H32.7 M24.1,64.4H32.7 M43.3,107.7
		l21-20.7"/>
	<line fill="none" stroke="#000000" stroke-width="2" stroke-miterlimit="10" x1="64.3" y1="87" x2="56.6" y2="89.2"/>
	<line fill="none" stroke="#000000" stroke-miterlimit="10" x1="74.3" y1="96.3" x2="53.3" y2="117"/>
	<line fill="none" stroke="#000000" stroke-width="2" stroke-miterlimit="10" x1="53.2" y1="117.1" x2="60.9" y2="114.8"/>
	<line fill="none" stroke="#000000" stroke-miterlimit="10" x1="101.9" y1="64.4" x2="128.8" y2="52.5"/>
	<line fill="none" stroke="#000000" stroke-width="2" stroke-miterlimit="10" x1="128.9" y1="52.4" x2="120.9" y2="51.8"/>
	<line fill="none" stroke="#000000" stroke-miterlimit="10" x1="135.5" y1="64.7" x2="108.6" y2="76.6"/>
	<line fill="none" stroke="#000000" stroke-width="2" stroke-miterlimit="10" x1="108.5" y1="76.7" x2="116.5" y2="77.4"/>
	<line fill="none" stroke="#000000" stroke-miterlimit="10" x1="176.6" y1="40.5" x2="205.1" y2="33.1"/>
	<line fill="none" stroke="#000000" stroke-width="2" stroke-miterlimit="10" x1="205.2" y1="33.1" x2="197.4" y2="31.2"/>
	<line fill="none" stroke="#000000" stroke-miterlimit="10" x1="208.5" y1="44.4" x2="180" y2="51.8"/>
	<line fill="none" stroke="#000000" stroke-width="2" stroke-miterlimit="10" x1="179.9" y1="51.8" x2="187.7" y2="53.7"/>
	<path fill="none" stroke="#000000" stroke-miterlimit="10" d="M28,24v141h219 M28,165l18-47.5l21-24l51-30l93-27"/>
	<path fill="#363639" d="M16.8,64.5h-2.6c0.6,0.3,1,0.7,1.3,1.1C15.8,66,16,66.5,16,67c0,0.6-0.3,1.1-0.7,1.5
		c-0.5,0.4-1.1,0.6-1.899,0.6c-0.9,0-1.601-0.3-2.2-0.899C10.6,67.6,10.3,66.9,10.3,66.1c0-0.5,0.101-0.899,0.4-1.3
		c0.2-0.399,0.6-0.7,0.899-0.899c0.4-0.2,0.9-0.301,1.7-0.301h3.5V64.5 M13.7,64.5c-0.2,0-0.3,0-0.4,0c-0.7,0-1.2,0.2-1.6,0.5
		c-0.3,0.3-0.5,0.8-0.5,1.3c0,0.8,0.2,1.4,0.6,1.8c0.4,0.5,0.9,0.7,1.4,0.7s0.8-0.2,1.1-0.5s0.5-0.8,0.5-1.399
		C14.9,66,14.5,65.2,13.7,64.5L13.7,64.5z"/>
	<path fill="#363639" d="M17.6,69.8l0.9-0.1c0.1,0.5,0.3,0.899,0.5,1.1s0.5,0.3,0.9,0.3c0.399,0,0.8-0.1,1-0.399
		C21.2,70.4,21.3,70.1,21.3,69.6c0-0.399-0.1-0.699-0.399-1C20.6,68.3,20.3,68.2,19.9,68.2c-0.2,0-0.4,0-0.601,0.1l0.101-0.8
		c0.1,0,0.1,0,0.1,0c0.4,0,0.7-0.1,1-0.3s0.5-0.5,0.5-0.9c0-0.3-0.1-0.6-0.3-0.8s-0.5-0.3-0.8-0.3c-0.301,0-0.601,0.1-0.9,0.3
		c-0.2,0.2-0.4,0.5-0.4,1L17.7,66.4c0.1-0.601,0.3-1,0.7-1.4c0.399-0.3,0.8-0.5,1.399-0.5c0.4,0,0.8,0.1,1.101,0.3
		c0.3,0.2,0.6,0.4,0.8,0.7s0.3,0.6,0.3,0.9c0,0.3-0.1,0.6-0.3,0.899S21.3,67.8,21,67.9c0.4,0.1,0.7,0.3,1,0.6
		c0.2,0.3,0.4,0.7,0.4,1.2c0,0.6-0.2,1.1-0.7,1.6c-0.5,0.4-1,0.601-1.7,0.601c-0.6,0-1.2-0.2-1.6-0.601
		C17.9,70.8,17.7,70.4,17.6,69.8L17.6,69.8z"/>
	<path fill="#363639" d="M16.8,112.5h-2.6c0.6,0.3,1,0.7,1.3,1.1c0.3,0.4,0.5,0.9,0.5,1.4c0,0.6-0.3,1.1-0.7,1.5
		c-0.5,0.4-1.1,0.6-1.899,0.6c-0.9,0-1.601-0.3-2.2-0.899c-0.601-0.601-0.9-1.3-0.9-2.101c0-0.5,0.101-0.899,0.4-1.3
		c0.2-0.399,0.6-0.7,0.899-0.899c0.4-0.2,0.9-0.301,1.7-0.301h3.5V112.5 M13.7,112.5c-0.2,0-0.3,0-0.4,0c-0.7,0-1.2,0.2-1.6,0.5
		c-0.3,0.3-0.5,0.8-0.5,1.3c0,0.8,0.2,1.4,0.6,1.8c0.4,0.4,0.9,0.7,1.4,0.7s0.8-0.2,1.1-0.5s0.5-0.8,0.5-1.399
		C14.9,114,14.5,113.2,13.7,112.5L13.7,112.5z"/>
	<path fill="#363639" d="M20.9,119.6H20V114c-0.2,0.2-0.5,0.4-0.8,0.6c-0.3,0.2-0.601,0.4-0.9,0.5V114.2c0.5-0.2,0.9-0.5,1.3-0.8
		c0.4-0.301,0.601-0.601,0.801-1H21v7.199H20.9L20.9,119.6z"/>
	<path fill="#363639" d="M16.8,91.4h-2.6c0.6,0.3,1,0.699,1.3,1.1s0.5,0.9,0.5,1.4c0,0.6-0.3,1.1-0.7,1.5C14.8,95.8,14.2,96,13.4,96
		c-0.9,0-1.601-0.3-2.2-0.9c-0.601-0.6-0.9-1.3-0.9-2.1c0-0.5,0.101-0.9,0.4-1.3c0.2-0.4,0.6-0.7,0.899-0.9c0.4-0.2,0.9-0.3,1.7-0.3
		h3.5V91.4 M13.7,91.4c-0.2,0-0.3,0-0.4,0c-0.7,0-1.2,0.199-1.6,0.5c-0.3,0.3-0.5,0.8-0.5,1.3c0,0.8,0.2,1.399,0.6,1.8
		c0.4,0.4,0.9,0.7,1.4,0.7s0.8-0.2,1.1-0.5s0.5-0.8,0.5-1.4C14.9,92.8,14.5,92.1,13.7,91.4L13.7,91.4z"/>
	<path fill="#363639" d="M22.2,97.7v0.8h-4.7c0-0.2,0-0.4,0.1-0.6C17.7,97.6,17.9,97.3,18.2,96.9c0.3-0.301,0.7-0.7,1.1-1.101
		c0.8-0.6,1.3-1.1,1.601-1.5c0.3-0.399,0.399-0.7,0.399-1.1c0-0.3-0.1-0.601-0.399-0.9c-0.2-0.2-0.601-0.399-1-0.399
		c-0.4,0-0.801,0.1-1,0.399C18.6,92.6,18.5,92.9,18.5,93.4L17.6,93.3c0.101-0.7,0.301-1.2,0.7-1.5c0.4-0.399,1-0.5,1.601-0.5
		c0.6,0,1.199,0.2,1.6,0.601c0.4,0.399,0.6,0.899,0.6,1.399c0,0.3-0.1,0.601-0.199,0.9C21.8,94.5,21.6,94.8,21.3,95.1
		C21,95.4,20.6,95.8,19.9,96.4C19.4,96.8,19,97.1,18.9,97.3c-0.2,0.2-0.301,0.3-0.4,0.5L22.2,97.7L22.2,97.7z"/>
	<path fill="#363639" d="M253.9,165c-0.5-0.2-0.801-0.3-0.9-0.5c-0.2-0.2-0.2-0.4-0.2-0.7c0-0.399,0.101-0.7,0.5-0.899
		c0.4-0.301,1-0.5,1.601-0.5c0.399,0,0.8,0,1.1,0.1s0.5,0.2,0.7,0.4c0.1,0.199,0.2,0.3,0.2,0.399c0,0.101-0.101,0.2-0.2,0.3
		c-0.101,0.101-0.2,0.101-0.3,0.101c-0.2,0-0.4-0.101-0.5-0.4c-0.101-0.3-0.301-0.399-0.4-0.5c-0.2-0.1-0.3-0.2-0.6-0.2
		c-0.4,0-0.601,0.101-0.801,0.301c-0.199,0.199-0.3,0.5-0.3,0.8s0.101,0.6,0.3,0.8c0.2,0.2,0.4,0.3,0.7,0.3c0.101,0,0.2,0,0.3,0
		c0.2,0,0.301,0,0.5,0c0.2,0,0.301,0,0.301,0.101c0,0.1,0.1,0.1,0.1,0.1c0,0.1,0,0.1-0.1,0.1c-0.101,0.101-0.2,0.101-0.4,0.101
		c0,0-0.1,0-0.2,0c-0.2,0-0.399,0-0.5,0c-0.3,0-0.6,0.1-0.8,0.3s-0.3,0.5-0.3,0.9c0,0.399,0.1,0.699,0.3,1
		c0.2,0.199,0.5,0.3,0.8,0.3s0.5-0.101,0.7-0.3c0.1-0.101,0.2-0.301,0.3-0.601c0.101-0.2,0.101-0.3,0.2-0.399
		c0.1-0.101,0.3-0.2,0.4-0.2c0.199,0,0.3,0.1,0.399,0.2c0.101,0.1,0.2,0.3,0.2,0.399c0,0.3-0.2,0.5-0.5,0.7c-0.5,0.3-1,0.5-1.7,0.5
		s-1.3-0.2-1.7-0.5c-0.399-0.3-0.6-0.7-0.6-1.1c0-0.301,0.1-0.5,0.3-0.801C252.9,165.4,253.3,165.2,253.9,165L253.9,165z"/>
	<path fill="#363639" d="M30.9,16.5H28.3c0.601,0.3,1,0.7,1.3,1.1c0.301,0.4,0.5,0.9,0.5,1.4c0,0.6-0.3,1.1-0.699,1.5
		c-0.5,0.4-1.101,0.6-1.9,0.6c-0.9,0-1.6-0.3-2.2-0.899C24.7,19.6,24.4,18.9,24.4,18.1c0-0.5,0.1-0.899,0.399-1.3
		C25,16.4,25.4,16.1,25.7,15.9C26.1,15.7,26.6,15.6,27.4,15.6h3.5V16.5 M27.9,16.5c-0.2,0-0.301,0-0.4,0c-0.7,0-1.2,0.2-1.6,0.5
		c-0.301,0.3-0.5,0.8-0.5,1.3c0,0.8,0.199,1.4,0.6,1.8c0.4,0.5,0.9,0.7,1.4,0.7s0.8-0.2,1.1-0.5S29,19.5,29,18.9
		C29.1,18,28.7,17.2,27.9,16.5L27.9,16.5z"/>
</g>
</svg>
