<?xml version="1.0" encoding="utf-8"?>
<!-- Generator: Adobe Illustrator 17.1.0, SVG Export Plug-In . SVG Version: 6.00 Build 0)  -->

<svg version="1.1" id="Layer_1" xmlns="http://www.w3.org/2000/svg" xmlns:xlink="http://www.w3.org/1999/xlink" x="0px" y="0px"
	 width="364.7px" height="358.7px" viewBox="0 0 364.7 358.7" enable-background="new 0 0 364.7 358.7" xml:space="preserve">
<g>
	<g>
		<line fill="none" x1="0" y1="81.7" x2="338.7" y2="81.7"/>
		<polygon fill="#FFFFFF" points="337.2,83.8 345.3,81.6 337.2,79.5 		"/>
	</g>
	<g>
		<line fill="none" stroke="#000000" x1="0" y1="81.7" x2="338.7" y2="81.7"/>
		<polygon points="337.2,83.8 345.3,81.6 337.2,79.5 		"/>
	</g>
</g>
<path fill="none" stroke="#000000" d="M288.7,265.5c-35.9,38.2-76.3,69.2-131.4,69.8c-42.4,0.4-88.1-11.8-110.2-51.1
	c-17.6-31.3-19.2-70.8-9.4-105.8c5.6-19.9,14.6-38.2,25.5-54.8C74.4,106.3,79.3,94.5,93.8,81"/>
<line fill="none" stroke="#A62B55" x1="288.2" y1="60.7" x2="309.8" y2="60.7"/>
<polyline fill="none" stroke="#000000" points="309,60.7 288,60.7 94,81.7 "/>
<line fill="none" stroke="#000000" stroke-miterlimit="10" x1="310" y1="82.7" x2="288" y2="267.8"/>
<line fill="none" stroke="#000000" stroke-miterlimit="10" x1="309.9" y1="82.3" x2="288.6" y2="278.1"/>
<g>
	<g>
		<g>
			<g>
				<g enable-background="new    ">
					<path d="M120.5,60.2l1,0.3c-0.2,0.9-0.6,1.5-1.2,2c-0.6,0.4-1.3,0.7-2.1,0.7c-0.8,0-1.5-0.2-2.1-0.5c-0.5-0.3-0.9-0.8-1.2-1.5
						c-0.3-0.7-0.4-1.4-0.4-2.1c0-0.8,0.2-1.5,0.5-2.1c0.3-0.6,0.8-1.1,1.3-1.4c0.6-0.3,1.2-0.5,1.9-0.5c0.8,0,1.5,0.2,2,0.6
						c0.5,0.4,0.9,1,1.1,1.7l-1,0.2c-0.2-0.6-0.4-1-0.8-1.3s-0.8-0.4-1.3-0.4c-0.6,0-1.1,0.1-1.5,0.4c-0.4,0.3-0.7,0.7-0.9,1.2
						c-0.2,0.5-0.2,1-0.2,1.5c0,0.7,0.1,1.3,0.3,1.8c0.2,0.5,0.5,0.9,0.9,1.1s0.9,0.4,1.3,0.4c0.6,0,1.1-0.2,1.5-0.5
						C120,61.4,120.3,60.9,120.5,60.2z"/>
					<path d="M122.7,63v-5.7h0.9v0.9c0.2-0.4,0.4-0.7,0.6-0.8c0.2-0.1,0.4-0.2,0.6-0.2c0.3,0,0.7,0.1,1,0.3l-0.3,0.9
						c-0.2-0.1-0.5-0.2-0.7-0.2c-0.2,0-0.4,0.1-0.6,0.2s-0.3,0.3-0.4,0.5c-0.1,0.3-0.2,0.7-0.2,1.1v3H122.7z"/>
					<path d="M130.1,62.3c-0.4,0.3-0.7,0.5-1,0.6c-0.3,0.1-0.7,0.2-1.1,0.2c-0.6,0-1.1-0.2-1.4-0.5c-0.3-0.3-0.5-0.7-0.5-1.2
						c0-0.3,0.1-0.5,0.2-0.8c0.1-0.2,0.3-0.4,0.5-0.6c0.2-0.1,0.4-0.2,0.7-0.3c0.2,0,0.5-0.1,0.9-0.1c0.8-0.1,1.4-0.2,1.7-0.3
						c0-0.1,0-0.2,0-0.3c0-0.4-0.1-0.7-0.3-0.8c-0.2-0.2-0.6-0.3-1.1-0.3c-0.5,0-0.8,0.1-1,0.2c-0.2,0.2-0.4,0.4-0.5,0.8l-0.9-0.1
						c0.1-0.4,0.2-0.7,0.4-1s0.5-0.4,0.9-0.6c0.4-0.1,0.8-0.2,1.3-0.2c0.5,0,0.9,0.1,1.2,0.2s0.5,0.3,0.7,0.4s0.2,0.4,0.3,0.7
						c0,0.2,0,0.5,0,0.9v1.3c0,0.9,0,1.5,0.1,1.7c0,0.2,0.1,0.5,0.2,0.7h-1C130.1,62.8,130.1,62.6,130.1,62.3z M130,60.1
						c-0.4,0.1-0.9,0.3-1.6,0.4c-0.4,0.1-0.7,0.1-0.8,0.2c-0.2,0.1-0.3,0.2-0.4,0.3s-0.1,0.3-0.1,0.5c0,0.3,0.1,0.5,0.3,0.6
						c0.2,0.2,0.5,0.3,0.9,0.3c0.4,0,0.7-0.1,1-0.2s0.5-0.4,0.6-0.7c0.1-0.2,0.2-0.5,0.2-1V60.1z"/>
					<path d="M136.2,60.9l1,0.1c-0.1,0.7-0.4,1.2-0.8,1.5c-0.4,0.4-1,0.6-1.6,0.6c-0.8,0-1.4-0.3-1.9-0.8c-0.5-0.5-0.7-1.2-0.7-2.2
						c0-0.6,0.1-1.2,0.3-1.6s0.5-0.8,0.9-1c0.4-0.2,0.9-0.3,1.4-0.3c0.6,0,1.1,0.2,1.5,0.5s0.6,0.8,0.8,1.3l-0.9,0.1
						c-0.1-0.4-0.2-0.7-0.5-0.9c-0.2-0.2-0.5-0.3-0.8-0.3c-0.5,0-0.9,0.2-1.2,0.5c-0.3,0.3-0.5,0.9-0.5,1.7c0,0.8,0.1,1.3,0.4,1.7
						c0.3,0.3,0.7,0.5,1.1,0.5c0.4,0,0.7-0.1,1-0.3C135.9,61.8,136.1,61.4,136.2,60.9z"/>
					<path d="M138,63v-7.9h1v4.5l2.3-2.3h1.3l-2.2,2.1l2.4,3.6h-1.2l-1.9-2.9l-0.7,0.7V63H138z"/>
					<path d="M143.5,56.2v-1.1h1v1.1H143.5z M143.5,63v-5.7h1V63H143.5z"/>
					<path d="M145.9,63v-5.7h0.9v0.8c0.4-0.6,1-0.9,1.8-0.9c0.3,0,0.7,0.1,0.9,0.2c0.3,0.1,0.5,0.3,0.6,0.5c0.1,0.2,0.2,0.4,0.3,0.7
						c0,0.2,0.1,0.5,0.1,0.9V63h-1v-3.5c0-0.4,0-0.7-0.1-0.9s-0.2-0.4-0.4-0.5c-0.2-0.1-0.4-0.2-0.7-0.2c-0.4,0-0.8,0.1-1.1,0.4
						c-0.3,0.3-0.4,0.8-0.4,1.5V63H145.9z"/>
					<path d="M151.8,63.5l0.9,0.1c0,0.3,0.1,0.5,0.3,0.6c0.2,0.2,0.6,0.3,1,0.3c0.4,0,0.8-0.1,1-0.3s0.4-0.4,0.5-0.8
						c0.1-0.2,0.1-0.6,0.1-1.2c-0.4,0.5-0.9,0.7-1.6,0.7c-0.8,0-1.4-0.3-1.8-0.8s-0.6-1.2-0.6-2c0-0.5,0.1-1,0.3-1.5
						s0.5-0.8,0.9-1.1c0.4-0.3,0.8-0.4,1.3-0.4c0.7,0,1.2,0.3,1.7,0.8v-0.7h0.9v4.9c0,0.9-0.1,1.5-0.3,1.9c-0.2,0.4-0.5,0.7-0.9,0.9
						c-0.4,0.2-0.9,0.3-1.4,0.3c-0.7,0-1.2-0.2-1.6-0.5C152,64.5,151.8,64.1,151.8,63.5z M152.6,60c0,0.7,0.1,1.3,0.4,1.6
						s0.7,0.5,1.1,0.5c0.4,0,0.8-0.2,1.1-0.5s0.5-0.9,0.5-1.6c0-0.7-0.2-1.2-0.5-1.6c-0.3-0.4-0.7-0.5-1.1-0.5
						c-0.4,0-0.8,0.2-1.1,0.5C152.8,58.8,152.6,59.4,152.6,60z"/>
				</g>
			</g>
		</g>
	</g>
</g>
<g>
	<g>
		<g>
			<g>
				<g>
					<g enable-background="new    ">
						<path d="M75,65.7v-5h-0.9V60H75v-0.6c0-0.4,0-0.7,0.1-0.9c0.1-0.3,0.3-0.5,0.5-0.6c0.2-0.2,0.6-0.2,1-0.2c0.3,0,0.6,0,0.9,0.1
							l-0.1,0.8c-0.2,0-0.4-0.1-0.6-0.1c-0.3,0-0.5,0.1-0.6,0.2c-0.1,0.1-0.2,0.4-0.2,0.7V60H77v0.8h-1.1v5H75z"/>
					</g>
				</g>
			</g>
		</g>
	</g>
	<g>
		<g>
			<g>
				<g>
					<g enable-background="new    ">
						<path d="M81.1,66.8l0.9,0.1c-0.1,0.6-0.3,1.1-0.7,1.4c-0.4,0.3-0.9,0.5-1.4,0.5c-0.7,0-1.3-0.2-1.7-0.7
							c-0.4-0.5-0.6-1.1-0.6-2c0-0.6,0.1-1,0.3-1.5s0.5-0.7,0.8-0.9c0.4-0.2,0.8-0.3,1.2-0.3c0.6,0,1,0.1,1.4,0.4
							c0.4,0.3,0.6,0.7,0.7,1.2L81,65.1c-0.1-0.3-0.2-0.6-0.4-0.8s-0.5-0.3-0.7-0.3c-0.4,0-0.8,0.2-1.1,0.5
							c-0.3,0.3-0.4,0.8-0.4,1.5c0,0.7,0.1,1.2,0.4,1.5s0.6,0.5,1,0.5c0.3,0,0.6-0.1,0.9-0.3S81,67.2,81.1,66.8z"/>
					</g>
				</g>
			</g>
		</g>
	</g>
</g>
<g>
	<g>
		<g>
			<g>
				<g enable-background="new    ">
					<path d="M324.1,59.6l1,0.3c-0.2,0.9-0.6,1.5-1.2,2s-1.3,0.7-2.1,0.7c-0.8,0-1.5-0.2-2.1-0.5c-0.5-0.3-0.9-0.8-1.2-1.5
						c-0.3-0.7-0.4-1.4-0.4-2.1c0-0.8,0.2-1.5,0.5-2.1s0.8-1.1,1.3-1.4c0.6-0.3,1.2-0.5,1.9-0.5c0.8,0,1.5,0.2,2,0.6
						c0.5,0.4,0.9,1,1.1,1.7l-1,0.2c-0.2-0.6-0.4-1-0.8-1.3s-0.8-0.4-1.3-0.4c-0.6,0-1.1,0.1-1.5,0.4s-0.7,0.7-0.9,1.2
						c-0.2,0.5-0.2,1-0.2,1.5c0,0.7,0.1,1.3,0.3,1.8c0.2,0.5,0.5,0.9,0.9,1.1s0.9,0.4,1.3,0.4c0.6,0,1.1-0.2,1.5-0.5
						C323.7,60.7,324,60.2,324.1,59.6z"/>
					<path d="M326.3,62.3v-5.7h0.9v0.9c0.2-0.4,0.4-0.7,0.6-0.8s0.4-0.2,0.6-0.2c0.3,0,0.7,0.1,1,0.3l-0.3,0.9
						c-0.2-0.1-0.5-0.2-0.7-0.2c-0.2,0-0.4,0.1-0.6,0.2c-0.2,0.1-0.3,0.3-0.4,0.5c-0.1,0.3-0.2,0.7-0.2,1.1v3H326.3z"/>
					<path d="M333.7,61.6c-0.4,0.3-0.7,0.5-1,0.6c-0.3,0.1-0.7,0.2-1.1,0.2c-0.6,0-1.1-0.2-1.4-0.5c-0.3-0.3-0.5-0.7-0.5-1.2
						c0-0.3,0.1-0.5,0.2-0.8c0.1-0.2,0.3-0.4,0.5-0.6c0.2-0.1,0.4-0.2,0.7-0.3c0.2,0,0.5-0.1,0.9-0.1c0.8-0.1,1.4-0.2,1.7-0.3
						c0-0.1,0-0.2,0-0.3c0-0.4-0.1-0.7-0.3-0.8c-0.2-0.2-0.6-0.3-1.1-0.3c-0.5,0-0.8,0.1-1,0.2s-0.4,0.4-0.5,0.8l-0.9-0.1
						c0.1-0.4,0.2-0.7,0.4-1c0.2-0.2,0.5-0.4,0.9-0.6c0.4-0.1,0.8-0.2,1.3-0.2c0.5,0,0.9,0.1,1.2,0.2s0.5,0.3,0.7,0.4
						c0.1,0.2,0.2,0.4,0.3,0.7c0,0.2,0,0.5,0,0.9v1.3c0,0.9,0,1.5,0.1,1.7s0.1,0.5,0.2,0.7h-1C333.8,62.1,333.8,61.9,333.7,61.6z
						 M333.6,59.5c-0.4,0.1-0.9,0.3-1.6,0.4c-0.4,0.1-0.7,0.1-0.8,0.2c-0.2,0.1-0.3,0.2-0.4,0.3s-0.1,0.3-0.1,0.5
						c0,0.3,0.1,0.5,0.3,0.6c0.2,0.2,0.5,0.3,0.9,0.3c0.4,0,0.7-0.1,1-0.2s0.5-0.4,0.6-0.7c0.1-0.2,0.2-0.5,0.2-1V59.5z"/>
					<path d="M339.8,60.2l1,0.1c-0.1,0.7-0.4,1.2-0.8,1.5c-0.4,0.4-1,0.6-1.6,0.6c-0.8,0-1.4-0.3-1.9-0.8c-0.5-0.5-0.7-1.2-0.7-2.2
						c0-0.6,0.1-1.2,0.3-1.6c0.2-0.5,0.5-0.8,0.9-1c0.4-0.2,0.9-0.3,1.4-0.3c0.6,0,1.1,0.2,1.5,0.5c0.4,0.3,0.6,0.8,0.8,1.3
						l-0.9,0.1c-0.1-0.4-0.2-0.7-0.5-0.9c-0.2-0.2-0.5-0.3-0.8-0.3c-0.5,0-0.9,0.2-1.2,0.5c-0.3,0.3-0.5,0.9-0.5,1.7
						c0,0.8,0.1,1.3,0.4,1.7c0.3,0.3,0.7,0.5,1.1,0.5c0.4,0,0.7-0.1,1-0.3C339.6,61.1,339.8,60.7,339.8,60.2z"/>
					<path d="M341.6,62.3v-7.9h1v4.5l2.3-2.3h1.3l-2.2,2.1l2.4,3.6h-1.2l-1.9-2.9l-0.7,0.7v2.3H341.6z"/>
					<path d="M347.1,55.6v-1.1h1v1.1H347.1z M347.1,62.3v-5.7h1v5.7H347.1z"/>
					<path d="M349.6,62.3v-5.7h0.9v0.8c0.4-0.6,1-0.9,1.8-0.9c0.3,0,0.7,0.1,0.9,0.2c0.3,0.1,0.5,0.3,0.6,0.5
						c0.1,0.2,0.2,0.4,0.3,0.7c0,0.2,0.1,0.5,0.1,0.9v3.5h-1v-3.5c0-0.4,0-0.7-0.1-0.9s-0.2-0.4-0.4-0.5c-0.2-0.1-0.4-0.2-0.7-0.2
						c-0.4,0-0.8,0.1-1.1,0.4c-0.3,0.3-0.4,0.8-0.4,1.5v3.1H349.6z"/>
					<path d="M355.5,62.8l0.9,0.1c0,0.3,0.1,0.5,0.3,0.6c0.2,0.2,0.6,0.3,1,0.3c0.4,0,0.8-0.1,1-0.3s0.4-0.4,0.5-0.8
						c0-0.2,0.1-0.6,0.1-1.2c-0.4,0.5-0.9,0.7-1.6,0.7c-0.8,0-1.4-0.3-1.8-0.8s-0.6-1.2-0.6-2c0-0.5,0.1-1,0.3-1.5
						c0.2-0.5,0.5-0.8,0.9-1.1s0.8-0.4,1.3-0.4c0.7,0,1.2,0.3,1.7,0.8v-0.7h0.9v4.9c0,0.9-0.1,1.5-0.3,1.9c-0.2,0.4-0.5,0.7-0.9,0.9
						c-0.4,0.2-0.9,0.3-1.4,0.3c-0.7,0-1.2-0.2-1.6-0.5C355.7,63.9,355.5,63.4,355.5,62.8z M356.3,59.4c0,0.7,0.1,1.3,0.4,1.6
						s0.7,0.5,1.1,0.5c0.4,0,0.8-0.2,1.1-0.5s0.5-0.9,0.5-1.6c0-0.7-0.2-1.2-0.5-1.6s-0.7-0.5-1.1-0.5c-0.4,0-0.8,0.2-1.1,0.5
						C356.5,58.2,356.3,58.7,356.3,59.4z"/>
				</g>
			</g>
		</g>
	</g>
</g>
<g>
	<g>
		<g>
			<g>
				<g enable-background="new    ">
					<path d="M314,163.2l0.3-1c0.9,0.2,1.5,0.6,1.9,1.2c0.4,0.6,0.6,1.3,0.6,2.1c0,0.8-0.2,1.5-0.6,2.1s-0.9,0.9-1.5,1.2
						c-0.7,0.3-1.4,0.4-2.1,0.4c-0.8,0-1.5-0.2-2.1-0.5c-0.6-0.3-1.1-0.8-1.4-1.4c-0.3-0.6-0.4-1.2-0.4-1.9c0-0.8,0.2-1.4,0.6-2
						c0.4-0.5,1-0.9,1.7-1.1l0.2,1c-0.6,0.2-1,0.4-1.3,0.8c-0.3,0.3-0.4,0.8-0.4,1.3c0,0.6,0.1,1.1,0.4,1.5c0.3,0.4,0.7,0.7,1.1,0.9
						s1,0.3,1.5,0.3c0.7,0,1.3-0.1,1.8-0.3c0.5-0.2,0.9-0.5,1.1-0.9c0.3-0.4,0.4-0.8,0.4-1.3c0-0.6-0.1-1.1-0.5-1.5
						C315.1,163.6,314.6,163.4,314,163.2z"/>
					<path d="M316.8,161.1l-5.7-0.1l0-0.9l0.9,0c-0.4-0.2-0.7-0.4-0.8-0.6c-0.1-0.2-0.2-0.4-0.2-0.6c0-0.3,0.1-0.7,0.3-1l0.9,0.4
						c-0.1,0.2-0.2,0.5-0.2,0.7c0,0.2,0.1,0.4,0.2,0.6c0.1,0.2,0.3,0.3,0.5,0.4c0.3,0.1,0.7,0.2,1.1,0.2l3,0.1L316.8,161.1z"/>
					<path d="M316.3,153.7c0.3,0.4,0.5,0.7,0.6,1c0.1,0.3,0.2,0.7,0.2,1.1c0,0.6-0.2,1.1-0.5,1.4s-0.7,0.5-1.2,0.5
						c-0.3,0-0.5-0.1-0.8-0.2c-0.2-0.1-0.4-0.3-0.5-0.5c-0.1-0.2-0.2-0.4-0.3-0.7c0-0.2-0.1-0.5-0.1-0.9c-0.1-0.8-0.2-1.4-0.3-1.7
						c-0.1,0-0.2,0-0.3,0c-0.4,0-0.7,0.1-0.8,0.3c-0.2,0.2-0.3,0.6-0.4,1.1c0,0.5,0.1,0.8,0.2,1s0.4,0.4,0.8,0.5l-0.1,0.9
						c-0.4-0.1-0.7-0.2-1-0.4c-0.2-0.2-0.4-0.5-0.6-0.9c-0.1-0.4-0.2-0.8-0.2-1.3c0-0.5,0.1-0.9,0.2-1.2c0.1-0.3,0.3-0.5,0.4-0.7
						c0.2-0.1,0.4-0.2,0.7-0.3c0.2,0,0.5,0,0.9,0l1.3,0c0.9,0,1.5,0,1.7,0s0.5-0.1,0.7-0.2l0,1C316.8,153.6,316.5,153.6,316.3,153.7
						z M314.1,153.7c0.1,0.4,0.2,0.9,0.3,1.6c0,0.4,0.1,0.7,0.2,0.8c0.1,0.2,0.2,0.3,0.3,0.4c0.1,0.1,0.3,0.1,0.5,0.1
						c0.3,0,0.5-0.1,0.7-0.3c0.2-0.2,0.3-0.5,0.3-0.9c0-0.4-0.1-0.7-0.2-1c-0.2-0.3-0.4-0.5-0.7-0.7c-0.2-0.1-0.5-0.2-1-0.2
						L314.1,153.7z"/>
					<path d="M315,147.5l0.1-0.9c0.7,0.1,1.2,0.4,1.5,0.8c0.4,0.4,0.5,1,0.5,1.6c0,0.8-0.3,1.4-0.8,1.9c-0.5,0.5-1.3,0.7-2.2,0.7
						c-0.6,0-1.2-0.1-1.6-0.3c-0.5-0.2-0.8-0.5-1-1c-0.2-0.4-0.3-0.9-0.3-1.4c0-0.6,0.2-1.1,0.5-1.5c0.3-0.4,0.8-0.6,1.4-0.7
						l0.1,0.9c-0.4,0.1-0.7,0.2-0.9,0.5c-0.2,0.2-0.3,0.5-0.3,0.8c0,0.5,0.2,0.9,0.5,1.2c0.3,0.3,0.9,0.5,1.6,0.5
						c0.8,0,1.3-0.1,1.7-0.4c0.4-0.3,0.5-0.7,0.5-1.1c0-0.4-0.1-0.7-0.3-1C315.8,147.8,315.5,147.6,315,147.5z"/>
					<path d="M317.1,145.8l-7.9-0.2l0-1l4.5,0.1l-2.3-2.3l0-1.3l2.1,2.2l3.6-2.3l0,1.2l-3,1.8l0.6,0.7l2.3,0.1L317.1,145.8z"/>
					<path d="M310.5,140.1l-1.1,0l0-1l1.1,0L310.5,140.1z M317.3,140.3l-5.7-0.1l0-1l5.7,0.1L317.3,140.3z"/>
					<path d="M317.3,137.8l-5.7-0.1l0-0.9l0.8,0c-0.6-0.4-0.9-1-0.9-1.8c0-0.3,0.1-0.7,0.2-0.9c0.1-0.3,0.3-0.5,0.5-0.6
						c0.2-0.1,0.4-0.2,0.7-0.3c0.2,0,0.5,0,0.9,0l3.5,0.1l0,1l-3.5-0.1c-0.4,0-0.7,0-0.9,0.1c-0.2,0.1-0.4,0.2-0.5,0.4
						c-0.1,0.2-0.2,0.4-0.2,0.7c0,0.4,0.1,0.8,0.4,1.1c0.3,0.3,0.7,0.5,1.5,0.5l3.1,0.1L317.3,137.8z"/>
					<path d="M317.9,131.9l0.2-0.9c0.3,0,0.5-0.1,0.6-0.3c0.2-0.2,0.3-0.6,0.3-1c0-0.4-0.1-0.8-0.2-1s-0.4-0.4-0.7-0.5
						c-0.2-0.1-0.6-0.1-1.2-0.1c0.5,0.4,0.7,1,0.7,1.6c0,0.8-0.3,1.4-0.9,1.8c-0.6,0.4-1.3,0.6-2,0.6c-0.5,0-1-0.1-1.5-0.3
						c-0.5-0.2-0.8-0.5-1-0.9c-0.2-0.4-0.4-0.8-0.3-1.3c0-0.7,0.3-1.2,0.9-1.6l-0.7,0l0-0.9l4.9,0.1c0.9,0,1.5,0.1,1.9,0.3
						c0.4,0.2,0.7,0.5,0.9,0.9c0.2,0.4,0.3,0.9,0.3,1.5c0,0.7-0.2,1.2-0.5,1.6C319,131.7,318.5,131.9,317.9,131.9z M314.5,131
						c0.7,0,1.3-0.1,1.6-0.4c0.3-0.3,0.5-0.7,0.5-1.1c0-0.4-0.2-0.8-0.5-1.1c-0.3-0.3-0.9-0.5-1.6-0.5c-0.7,0-1.2,0.1-1.6,0.4
						c-0.4,0.3-0.5,0.7-0.6,1.1c0,0.4,0.2,0.8,0.5,1.1S313.8,131,314.5,131z"/>
				</g>
			</g>
		</g>
	</g>
</g>
<g>
	<g>
		<g>
			<g>
				<g>
					<g enable-background="new    ">
						<path d="M262.6,55.3v-5h-0.9v-0.8h0.9V49c0-0.4,0-0.7,0.1-0.9c0.1-0.3,0.3-0.5,0.5-0.6c0.2-0.2,0.6-0.2,1-0.2
							c0.3,0,0.6,0,0.9,0.1l-0.1,0.8c-0.2,0-0.4-0.1-0.6-0.1c-0.3,0-0.5,0.1-0.6,0.2c-0.1,0.1-0.2,0.4-0.2,0.7v0.5h1.1v0.8h-1.1v5
							H262.6z"/>
					</g>
				</g>
			</g>
		</g>
	</g>
	<g>
		<g>
			<g>
				<g>
					<g enable-background="new    ">
						<path d="M267.3,57.5l0.1,0.8c-0.2,0.1-0.5,0.1-0.7,0.1c-0.3,0-0.6-0.1-0.7-0.2s-0.3-0.2-0.4-0.4c-0.1-0.2-0.1-0.5-0.1-1v-3
							h-0.6v-0.7h0.6v-1.3l0.9-0.5v1.8h0.9v0.7h-0.9v3c0,0.3,0,0.4,0,0.5c0,0.1,0.1,0.1,0.2,0.2c0.1,0,0.2,0.1,0.3,0.1
							C267,57.6,267.1,57.6,267.3,57.5z"/>
					</g>
				</g>
			</g>
		</g>
	</g>
</g>
<g>
	<g>
		<g>
			<g>
				<g>
					<g enable-background="new    ">
						<path d="M311.3,96.3v-5h-0.9v-0.8h0.9V90c0-0.4,0-0.7,0.1-0.9c0.1-0.3,0.3-0.5,0.5-0.6c0.2-0.2,0.6-0.2,1-0.2
							c0.3,0,0.6,0,0.9,0.1l-0.1,0.8c-0.2,0-0.4-0.1-0.6-0.1c-0.3,0-0.5,0.1-0.6,0.2c-0.1,0.1-0.2,0.4-0.2,0.7v0.5h1.1v0.8h-1.1v5
							H311.3z"/>
					</g>
				</g>
			</g>
		</g>
	</g>
	<g>
		<g>
			<g>
				<g>
					<g enable-background="new    ">
						<path d="M316,98.5l0.1,0.8c-0.2,0.1-0.5,0.1-0.7,0.1c-0.3,0-0.6-0.1-0.7-0.2s-0.3-0.2-0.4-0.4c-0.1-0.2-0.1-0.5-0.1-1v-3h-0.6
							v-0.7h0.6v-1.3l0.9-0.5v1.8h0.9v0.7h-0.9v3c0,0.3,0,0.4,0,0.5c0,0.1,0.1,0.1,0.2,0.2c0.1,0,0.2,0.1,0.3,0.1
							C315.7,98.6,315.8,98.6,316,98.5z"/>
					</g>
				</g>
			</g>
		</g>
	</g>
</g>
<g>
	<g>
		<path d="M288.4,2.9c0.2,0.3,0.4,0.5,0.5,0.9c0.1,0.3,0.2,0.7,0.2,1s-0.1,0.6-0.2,0.9s-0.3,0.5-0.5,0.8c-0.2,0.2-0.4,0.4-0.7,0.5
			c-0.3,0.1-0.5,0.2-0.8,0.2s-0.6-0.1-0.8-0.2c-0.3-0.1-0.5-0.3-0.7-0.5S285,6,284.9,5.7s-0.2-0.6-0.2-0.9s0-0.6,0.1-0.9
			s0.3-0.6,0.5-0.8c0.2-0.2,0.4-0.4,0.7-0.5c0.3-0.1,0.5-0.2,0.8-0.2h2.7c0.1,0,0.2,0,0.2,0.1c0.1,0.1,0.1,0.1,0.1,0.2
			c0,0.1,0,0.2-0.1,0.2C289.6,3,289.6,3,289.5,3L288.4,2.9L288.4,2.9z M288.3,4c0-0.2-0.1-0.5-0.3-0.6c-0.1-0.2-0.3-0.3-0.5-0.4
			c-0.2-0.1-0.4-0.1-0.6-0.1s-0.4,0-0.6,0.1s-0.3,0.2-0.5,0.4c-0.1,0.2-0.2,0.4-0.3,0.6c0,0.2-0.1,0.5-0.1,0.7c0,0.3,0,0.5,0.1,0.8
			c0,0.3,0.1,0.5,0.3,0.7c0.1,0.2,0.3,0.3,0.5,0.4s0.4,0.2,0.6,0.2l0,0l0,0c0.2,0,0.4-0.1,0.6-0.2s0.3-0.3,0.5-0.4
			c0.1-0.2,0.2-0.4,0.3-0.7c0-0.3,0.1-0.5,0.1-0.8C288.3,4.5,288.3,4.3,288.3,4z"/>
	</g>
	<g>
		<g>
			<g>
				<g>
					<g enable-background="new    ">
						<path d="M291,12l-0.1-0.8c0.2,0.1,0.4,0.1,0.5,0.1c0.2,0,0.4,0,0.5-0.1s0.2-0.2,0.3-0.3c0.1-0.1,0.1-0.3,0.3-0.7
							c0,0,0-0.1,0.1-0.2l-2-5.2h0.9l1.1,3c0.1,0.4,0.3,0.8,0.4,1.2c0.1-0.4,0.2-0.8,0.4-1.2l1.1-3h0.9l-2,5.3
							c-0.2,0.6-0.4,1-0.5,1.2c-0.2,0.3-0.3,0.5-0.5,0.6c-0.2,0.1-0.4,0.2-0.7,0.2C291.4,12.1,291.3,12.1,291,12z"/>
						<path d="M296.1,12V4.8h0.8v0.7c0.2-0.3,0.4-0.5,0.6-0.6c0.2-0.1,0.5-0.2,0.9-0.2c0.4,0,0.8,0.1,1.2,0.3c0.3,0.2,0.6,0.5,0.8,1
							c0.2,0.4,0.3,0.9,0.3,1.4c0,0.5-0.1,1-0.3,1.4c-0.2,0.4-0.5,0.8-0.8,1c-0.4,0.2-0.7,0.3-1.1,0.3c-0.3,0-0.6-0.1-0.8-0.2
							c-0.2-0.1-0.4-0.3-0.6-0.5V12H296.1z M296.9,7.4c0,0.7,0.1,1.2,0.4,1.5c0.3,0.3,0.6,0.5,1,0.5c0.4,0,0.7-0.2,1-0.5
							c0.3-0.3,0.4-0.8,0.4-1.5c0-0.7-0.1-1.2-0.4-1.5c-0.3-0.3-0.6-0.5-1-0.5c-0.4,0-0.7,0.2-1,0.5C297,6.3,296.9,6.8,296.9,7.4z"
							/>
					</g>
				</g>
			</g>
		</g>
	</g>
</g>
<g>
	<g>
		<path d="M352,80.2c0.2,0.3,0.4,0.5,0.5,0.9c0.1,0.3,0.2,0.7,0.2,1s-0.1,0.6-0.2,0.9s-0.3,0.5-0.5,0.8c-0.2,0.2-0.4,0.4-0.7,0.5
			c-0.3,0.1-0.5,0.2-0.8,0.2s-0.6-0.1-0.8-0.2c-0.3-0.1-0.5-0.3-0.7-0.5s-0.4-0.5-0.5-0.8s-0.2-0.6-0.2-0.9s0-0.6,0.1-0.9
			s0.3-0.6,0.5-0.8c0.2-0.2,0.4-0.4,0.7-0.5c0.3-0.1,0.5-0.2,0.8-0.2h2.7c0.1,0,0.2,0,0.2,0.1c0.1,0.1,0.1,0.1,0.1,0.2
			s0,0.2-0.1,0.2c-0.1,0.1-0.1,0.1-0.2,0.1L352,80.2L352,80.2z M351.9,81.4c0-0.2-0.1-0.5-0.3-0.6c-0.1-0.2-0.3-0.3-0.5-0.4
			s-0.4-0.1-0.6-0.1s-0.4,0-0.6,0.1s-0.3,0.2-0.5,0.4c-0.1,0.2-0.2,0.4-0.3,0.6c0,0.2-0.1,0.5-0.1,0.7c0,0.3,0,0.5,0.1,0.8
			c0,0.3,0.1,0.5,0.3,0.7c0.1,0.2,0.3,0.3,0.5,0.4s0.4,0.2,0.6,0.2l0,0l0,0c0.2,0,0.4-0.1,0.6-0.2s0.3-0.3,0.5-0.4
			c0.1-0.2,0.2-0.4,0.3-0.7c0-0.3,0.1-0.5,0.1-0.8C352,81.9,352,81.6,351.9,81.4z"/>
	</g>
	<g>
		<g>
			<g>
				<g>
					<g enable-background="new    ">
						<path d="M354.2,87.3l1.9-2.7l-1.8-2.5h1.1l0.8,1.2c0.2,0.2,0.3,0.4,0.4,0.6c0.1-0.2,0.3-0.4,0.4-0.6l0.9-1.2h1l-1.8,2.4
							l1.9,2.7h-1.1l-1.1-1.6l-0.3-0.4l-1.4,2H354.2z"/>
						<path d="M359.8,89.3v-7.2h0.8v0.7c0.2-0.3,0.4-0.5,0.6-0.6c0.2-0.1,0.5-0.2,0.9-0.2c0.4,0,0.8,0.1,1.2,0.3
							c0.3,0.2,0.6,0.5,0.8,1c0.2,0.4,0.3,0.9,0.3,1.4c0,0.5-0.1,1-0.3,1.4c-0.2,0.4-0.5,0.8-0.8,1c-0.4,0.2-0.7,0.3-1.1,0.3
							c-0.3,0-0.6-0.1-0.8-0.2c-0.2-0.1-0.4-0.3-0.6-0.5v2.5H359.8z M360.5,84.8c0,0.7,0.1,1.2,0.4,1.5c0.3,0.3,0.6,0.5,1,0.5
							c0.4,0,0.7-0.2,1-0.5c0.3-0.3,0.4-0.8,0.4-1.5c0-0.7-0.1-1.2-0.4-1.5c-0.3-0.3-0.6-0.5-1-0.5c-0.4,0-0.7,0.2-1,0.5
							C360.7,83.6,360.5,84.1,360.5,84.8z"/>
					</g>
				</g>
			</g>
		</g>
	</g>
</g>
<g>
	<g>
		<path d="M95,194.2c0.2,0.3,0.4,0.5,0.5,0.9c0.1,0.3,0.2,0.7,0.2,1s-0.1,0.6-0.2,0.9c-0.1,0.3-0.3,0.5-0.5,0.8
			c-0.2,0.2-0.4,0.4-0.7,0.5c-0.3,0.1-0.5,0.2-0.8,0.2s-0.6-0.1-0.8-0.2c-0.3-0.1-0.5-0.3-0.7-0.5s-0.4-0.5-0.5-0.8
			s-0.2-0.6-0.2-0.9c0-0.3,0-0.6,0.1-0.9c0.1-0.3,0.3-0.6,0.5-0.8s0.4-0.4,0.7-0.5c0.3-0.1,0.5-0.2,0.8-0.2h2.7c0.1,0,0.2,0,0.2,0.1
			c0.1,0.1,0.1,0.1,0.1,0.2c0,0.1,0,0.2-0.1,0.2c-0.1,0.1-0.1,0.1-0.2,0.1H95V194.2z M94.9,195.4c0-0.2-0.1-0.5-0.3-0.6
			c-0.1-0.2-0.3-0.3-0.5-0.4s-0.4-0.1-0.6-0.1s-0.4,0-0.6,0.1s-0.3,0.2-0.5,0.4c-0.1,0.2-0.2,0.4-0.3,0.6c0,0.2-0.1,0.5-0.1,0.7
			c0,0.3,0,0.5,0.1,0.8c0,0.3,0.1,0.5,0.3,0.7c0.1,0.2,0.3,0.3,0.5,0.4c0.2,0.1,0.4,0.2,0.6,0.2l0,0l0,0c0.2,0,0.4-0.1,0.6-0.2
			c0.2-0.1,0.3-0.3,0.5-0.4c0.1-0.2,0.2-0.4,0.3-0.7c0-0.3,0.1-0.5,0.1-0.8C95,195.9,95,195.6,94.9,195.4z"/>
	</g>
	<g>
		<g>
			<g>
				<g>
					<g enable-background="new    ">
						<path d="M97.3,201.3v-0.7l3.3-3.8c-0.4,0-0.7,0-1,0h-2.1v-0.7h4.2v0.6l-2.8,3.3l-0.5,0.6c0.4,0,0.8,0,1.1,0h2.4v0.8H97.3z"/>
						<path d="M102.8,203.3v-7.2h0.8v0.7c0.2-0.3,0.4-0.5,0.6-0.6c0.2-0.1,0.5-0.2,0.9-0.2c0.4,0,0.8,0.1,1.2,0.3s0.6,0.5,0.8,1
							c0.2,0.4,0.3,0.9,0.3,1.4c0,0.5-0.1,1-0.3,1.4c-0.2,0.4-0.5,0.8-0.8,1c-0.4,0.2-0.7,0.3-1.1,0.3c-0.3,0-0.6-0.1-0.8-0.2
							s-0.4-0.3-0.6-0.5v2.5H102.8z M103.5,198.8c0,0.7,0.1,1.2,0.4,1.5s0.6,0.5,1,0.5c0.4,0,0.7-0.2,1-0.5c0.3-0.3,0.4-0.8,0.4-1.5
							c0-0.7-0.1-1.2-0.4-1.5s-0.6-0.5-1-0.5c-0.4,0-0.7,0.2-1,0.5C103.7,197.6,103.5,198.1,103.5,198.8z"/>
					</g>
				</g>
			</g>
		</g>
	</g>
	<g>
		<g>
			<g>
				<g>
					<g enable-background="new    ">
						<path d="M116.5,194.9l-5.2,2.2v-1l4.1-1.7l-4.1-1.7v-1l5.2,2.2V194.9z"/>
						<path d="M120.6,194.5c0-0.9,0.1-1.7,0.3-2.2c0.2-0.6,0.5-1,0.9-1.3c0.4-0.3,0.9-0.5,1.4-0.5c0.4,0,0.8,0.1,1.1,0.3
							s0.6,0.4,0.8,0.7s0.4,0.7,0.5,1.2s0.2,1.1,0.2,1.9c0,0.9-0.1,1.7-0.3,2.2s-0.5,1-0.9,1.3c-0.4,0.3-0.9,0.5-1.4,0.5
							c-0.8,0-1.4-0.3-1.8-0.8C120.9,197,120.6,195.9,120.6,194.5z M121.6,194.5c0,1.3,0.2,2.2,0.5,2.6c0.3,0.4,0.7,0.6,1.1,0.6
							s0.8-0.2,1.1-0.6c0.3-0.4,0.5-1.3,0.5-2.6c0-1.3-0.2-2.2-0.5-2.6c-0.3-0.4-0.7-0.6-1.1-0.6c-0.4,0-0.8,0.2-1.1,0.6
							C121.8,192.3,121.6,193.2,121.6,194.5z"/>
						<path d="M131.9,200.6c-0.5-0.7-1-1.5-1.4-2.4s-0.6-1.8-0.6-2.8c0-0.9,0.1-1.7,0.4-2.4c0.3-0.9,0.8-1.8,1.5-2.7h0.7
							c-0.4,0.7-0.7,1.3-0.9,1.6c-0.2,0.5-0.4,1-0.5,1.5c-0.2,0.7-0.2,1.3-0.2,2c0,1.7,0.5,3.4,1.6,5.2H131.9z"/>
						<path d="M139.5,195.6l1,0.3c-0.2,0.9-0.6,1.5-1.2,2c-0.6,0.4-1.3,0.7-2.1,0.7c-0.8,0-1.5-0.2-2.1-0.5
							c-0.5-0.3-0.9-0.8-1.2-1.5c-0.3-0.7-0.4-1.4-0.4-2.1c0-0.8,0.2-1.5,0.5-2.1c0.3-0.6,0.8-1.1,1.3-1.4c0.6-0.3,1.2-0.5,1.9-0.5
							c0.8,0,1.5,0.2,2,0.6c0.5,0.4,0.9,1,1.1,1.7l-1,0.2c-0.2-0.6-0.4-1-0.8-1.3s-0.8-0.4-1.3-0.4c-0.6,0-1.1,0.1-1.5,0.4
							c-0.4,0.3-0.7,0.7-0.9,1.2c-0.2,0.5-0.2,1-0.2,1.5c0,0.7,0.1,1.3,0.3,1.8c0.2,0.5,0.5,0.9,0.9,1.1s0.9,0.4,1.3,0.4
							c0.6,0,1.1-0.2,1.5-0.5C139.1,196.7,139.4,196.2,139.5,195.6z"/>
						<path d="M141.7,198.3v-5.7h0.9v0.9c0.2-0.4,0.4-0.7,0.6-0.8c0.2-0.1,0.4-0.2,0.6-0.2c0.3,0,0.7,0.1,1,0.3l-0.3,0.9
							c-0.2-0.1-0.5-0.2-0.7-0.2c-0.2,0-0.4,0.1-0.6,0.2s-0.3,0.3-0.4,0.5c-0.1,0.3-0.2,0.7-0.2,1.1v3H141.7z"/>
						<path d="M149.1,197.6c-0.4,0.3-0.7,0.5-1,0.6c-0.3,0.1-0.7,0.2-1.1,0.2c-0.6,0-1.1-0.2-1.4-0.5c-0.3-0.3-0.5-0.7-0.5-1.2
							c0-0.3,0.1-0.5,0.2-0.8c0.1-0.2,0.3-0.4,0.5-0.6c0.2-0.1,0.4-0.2,0.7-0.3c0.2,0,0.5-0.1,0.9-0.1c0.8-0.1,1.4-0.2,1.7-0.3
							c0-0.1,0-0.2,0-0.3c0-0.4-0.1-0.7-0.3-0.8c-0.2-0.2-0.6-0.3-1.1-0.3c-0.5,0-0.8,0.1-1,0.2c-0.2,0.2-0.4,0.4-0.5,0.8l-0.9-0.1
							c0.1-0.4,0.2-0.7,0.4-1s0.5-0.4,0.9-0.6c0.4-0.1,0.8-0.2,1.3-0.2c0.5,0,0.9,0.1,1.2,0.2s0.5,0.3,0.7,0.4s0.2,0.4,0.3,0.7
							c0,0.2,0,0.5,0,0.9v1.3c0,0.9,0,1.5,0.1,1.7c0,0.2,0.1,0.5,0.2,0.7h-1C149.2,198.1,149.1,197.9,149.1,197.6z M149,195.5
							c-0.4,0.1-0.9,0.3-1.6,0.4c-0.4,0.1-0.7,0.1-0.8,0.2c-0.2,0.1-0.3,0.2-0.4,0.3s-0.1,0.3-0.1,0.5c0,0.3,0.1,0.5,0.3,0.6
							c0.2,0.2,0.5,0.3,0.9,0.3c0.4,0,0.7-0.1,1-0.2s0.5-0.4,0.6-0.7c0.1-0.2,0.2-0.5,0.2-1V195.5z"/>
						<path d="M155.2,196.2l1,0.1c-0.1,0.7-0.4,1.2-0.8,1.5c-0.4,0.4-1,0.6-1.6,0.6c-0.8,0-1.4-0.3-1.9-0.8
							c-0.5-0.5-0.7-1.2-0.7-2.2c0-0.6,0.1-1.2,0.3-1.6s0.5-0.8,0.9-1c0.4-0.2,0.9-0.3,1.4-0.3c0.6,0,1.1,0.2,1.5,0.5
							s0.6,0.8,0.8,1.3l-0.9,0.1c-0.1-0.4-0.2-0.7-0.5-0.9c-0.2-0.2-0.5-0.3-0.8-0.3c-0.5,0-0.9,0.2-1.2,0.5
							c-0.3,0.3-0.5,0.9-0.5,1.7c0,0.8,0.1,1.3,0.4,1.7c0.3,0.3,0.7,0.5,1.1,0.5c0.4,0,0.7-0.1,1-0.3
							C155,197.1,155.1,196.7,155.2,196.2z"/>
						<path d="M157,198.3v-7.9h1v4.5l2.3-2.3h1.3l-2.2,2.1l2.4,3.6h-1.2l-1.9-2.9l-0.7,0.7v2.3H157z"/>
						<path d="M162.5,191.6v-1.1h1v1.1H162.5z M162.5,198.3v-5.7h1v5.7H162.5z"/>
						<path d="M164.9,198.3v-5.7h0.9v0.8c0.4-0.6,1-0.9,1.8-0.9c0.3,0,0.7,0.1,0.9,0.2c0.3,0.1,0.5,0.3,0.6,0.5
							c0.1,0.2,0.2,0.4,0.3,0.7c0,0.2,0.1,0.5,0.1,0.9v3.5h-1v-3.5c0-0.4,0-0.7-0.1-0.9s-0.2-0.4-0.4-0.5c-0.2-0.1-0.4-0.2-0.7-0.2
							c-0.4,0-0.8,0.1-1.1,0.4c-0.3,0.3-0.4,0.8-0.4,1.5v3.1H164.9z"/>
						<path d="M170.9,198.8l0.9,0.1c0,0.3,0.1,0.5,0.3,0.6c0.2,0.2,0.6,0.3,1,0.3c0.4,0,0.8-0.1,1-0.3s0.4-0.4,0.5-0.8
							c0.1-0.2,0.1-0.6,0.1-1.2c-0.4,0.5-0.9,0.7-1.6,0.7c-0.8,0-1.4-0.3-1.8-0.8s-0.6-1.2-0.6-2c0-0.5,0.1-1,0.3-1.5
							s0.5-0.8,0.9-1.1c0.4-0.3,0.8-0.4,1.3-0.4c0.7,0,1.2,0.3,1.7,0.8v-0.7h0.9v4.9c0,0.9-0.1,1.5-0.3,1.9
							c-0.2,0.4-0.5,0.7-0.9,0.9c-0.4,0.2-0.9,0.3-1.4,0.3c-0.7,0-1.2-0.2-1.6-0.5C171.1,199.9,170.8,199.4,170.9,198.8z
							 M171.7,195.4c0,0.7,0.1,1.3,0.4,1.6s0.7,0.5,1.1,0.5c0.4,0,0.8-0.2,1.1-0.5s0.5-0.9,0.5-1.6c0-0.7-0.2-1.2-0.5-1.6
							c-0.3-0.4-0.7-0.5-1.1-0.5c-0.4,0-0.8,0.2-1.1,0.5C171.8,194.2,171.7,194.7,171.7,195.4z"/>
						<path d="M179.9,195.5c0-1.1,0.3-1.8,0.9-2.3c0.5-0.4,1.1-0.6,1.8-0.6c0.8,0,1.4,0.3,1.9,0.8c0.5,0.5,0.7,1.2,0.7,2.1
							c0,0.7-0.1,1.3-0.3,1.7c-0.2,0.4-0.5,0.7-1,1c-0.4,0.2-0.9,0.3-1.4,0.3c-0.8,0-1.4-0.3-1.9-0.8
							C180.1,197.2,179.9,196.4,179.9,195.5z M180.8,195.5c0,0.7,0.2,1.3,0.5,1.6s0.7,0.5,1.2,0.5c0.5,0,0.9-0.2,1.2-0.5
							c0.3-0.4,0.5-0.9,0.5-1.7c0-0.7-0.2-1.2-0.5-1.6s-0.7-0.5-1.2-0.5c-0.5,0-0.9,0.2-1.2,0.5S180.8,194.8,180.8,195.5z"/>
						<path d="M186.3,198.3v-5.7h0.9v0.9c0.2-0.4,0.4-0.7,0.6-0.8c0.2-0.1,0.4-0.2,0.6-0.2c0.3,0,0.7,0.1,1,0.3l-0.3,0.9
							c-0.2-0.1-0.5-0.2-0.7-0.2c-0.2,0-0.4,0.1-0.6,0.2c-0.2,0.1-0.3,0.3-0.4,0.5c-0.1,0.3-0.2,0.7-0.2,1.1v3H186.3z"/>
						<path d="M198.8,195.6l1,0.3c-0.2,0.9-0.6,1.5-1.2,2s-1.3,0.7-2.1,0.7c-0.8,0-1.5-0.2-2.1-0.5c-0.5-0.3-0.9-0.8-1.2-1.5
							c-0.3-0.7-0.4-1.4-0.4-2.1c0-0.8,0.2-1.5,0.5-2.1c0.3-0.6,0.8-1.1,1.3-1.4c0.6-0.3,1.2-0.5,1.9-0.5c0.8,0,1.5,0.2,2,0.6
							c0.5,0.4,0.9,1,1.1,1.7l-1,0.2c-0.2-0.6-0.4-1-0.8-1.3c-0.3-0.3-0.8-0.4-1.3-0.4c-0.6,0-1.1,0.1-1.5,0.4
							c-0.4,0.3-0.7,0.7-0.9,1.2c-0.2,0.5-0.2,1-0.2,1.5c0,0.7,0.1,1.3,0.3,1.8c0.2,0.5,0.5,0.9,0.9,1.1c0.4,0.2,0.9,0.4,1.3,0.4
							c0.6,0,1.1-0.2,1.5-0.5C198.4,196.7,198.7,196.2,198.8,195.6z"/>
						<path d="M201,198.3v-5.7h0.9v0.9c0.2-0.4,0.4-0.7,0.6-0.8c0.2-0.1,0.4-0.2,0.6-0.2c0.3,0,0.7,0.1,1,0.3l-0.3,0.9
							c-0.2-0.1-0.5-0.2-0.7-0.2c-0.2,0-0.4,0.1-0.6,0.2c-0.2,0.1-0.3,0.3-0.4,0.5c-0.1,0.3-0.2,0.7-0.2,1.1v3H201z"/>
						<path d="M208.4,198.3v-0.8c-0.4,0.6-1,1-1.8,1c-0.3,0-0.7-0.1-0.9-0.2c-0.3-0.1-0.5-0.3-0.7-0.5s-0.2-0.4-0.3-0.7
							c0-0.2-0.1-0.5-0.1-0.9v-3.5h1v3.2c0,0.5,0,0.8,0.1,1c0.1,0.3,0.2,0.5,0.4,0.6c0.2,0.1,0.4,0.2,0.7,0.2s0.6-0.1,0.8-0.2
							c0.3-0.1,0.4-0.4,0.5-0.6c0.1-0.3,0.2-0.6,0.2-1.1v-3.1h1v5.7H208.4z"/>
						<path d="M210.4,196.6l1-0.2c0.1,0.4,0.2,0.7,0.4,0.9c0.2,0.2,0.6,0.3,1,0.3c0.4,0,0.8-0.1,1-0.3s0.3-0.4,0.3-0.6
							c0-0.2-0.1-0.4-0.3-0.5c-0.1-0.1-0.5-0.2-1-0.3c-0.7-0.2-1.2-0.3-1.5-0.5c-0.3-0.1-0.5-0.3-0.6-0.5c-0.1-0.2-0.2-0.5-0.2-0.8
							c0-0.3,0.1-0.5,0.2-0.7c0.1-0.2,0.3-0.4,0.5-0.5c0.2-0.1,0.4-0.2,0.6-0.3s0.5-0.1,0.8-0.1c0.4,0,0.8,0.1,1.2,0.2
							c0.3,0.1,0.6,0.3,0.8,0.5c0.2,0.2,0.3,0.5,0.3,0.9l-0.9,0.1c0-0.3-0.2-0.5-0.4-0.7c-0.2-0.2-0.5-0.2-0.9-0.2
							c-0.4,0-0.8,0.1-1,0.2c-0.2,0.1-0.3,0.3-0.3,0.5c0,0.1,0,0.2,0.1,0.3c0.1,0.1,0.2,0.2,0.4,0.3c0.1,0,0.4,0.1,0.9,0.2
							c0.7,0.2,1.2,0.3,1.4,0.4c0.3,0.1,0.5,0.3,0.6,0.5c0.2,0.2,0.2,0.5,0.2,0.8c0,0.3-0.1,0.6-0.3,0.9c-0.2,0.3-0.5,0.5-0.8,0.7
							c-0.4,0.2-0.8,0.2-1.2,0.2c-0.7,0-1.3-0.2-1.7-0.5C210.7,197.7,210.5,197.2,210.4,196.6z"/>
						<path d="M216.3,198.3v-7.9h1v2.8c0.5-0.5,1-0.8,1.7-0.8c0.4,0,0.8,0.1,1.1,0.3c0.3,0.2,0.5,0.4,0.7,0.7
							c0.1,0.3,0.2,0.7,0.2,1.3v3.6h-1v-3.6c0-0.5-0.1-0.8-0.3-1.1c-0.2-0.2-0.5-0.3-0.9-0.3c-0.3,0-0.6,0.1-0.8,0.2
							c-0.3,0.1-0.4,0.3-0.5,0.6c-0.1,0.3-0.2,0.6-0.2,1.1v3.1H216.3z"/>
						<path d="M222.4,191.6v-1.1h1v1.1H222.4z M222.4,198.3v-5.7h1v5.7H222.4z"/>
						<path d="M224.8,198.3v-5.7h0.9v0.8c0.4-0.6,1-0.9,1.8-0.9c0.3,0,0.7,0.1,0.9,0.2c0.3,0.1,0.5,0.3,0.6,0.5
							c0.1,0.2,0.2,0.4,0.3,0.7c0,0.2,0.1,0.5,0.1,0.9v3.5h-1v-3.5c0-0.4,0-0.7-0.1-0.9s-0.2-0.4-0.4-0.5s-0.4-0.2-0.7-0.2
							c-0.4,0-0.8,0.1-1.1,0.4c-0.3,0.3-0.4,0.8-0.4,1.5v3.1H224.8z"/>
						<path d="M230.8,198.8l0.9,0.1c0,0.3,0.1,0.5,0.3,0.6c0.2,0.2,0.6,0.3,1,0.3c0.4,0,0.8-0.1,1-0.3c0.2-0.2,0.4-0.4,0.5-0.8
							c0-0.2,0.1-0.6,0.1-1.2c-0.4,0.5-0.9,0.7-1.6,0.7c-0.8,0-1.4-0.3-1.8-0.8s-0.6-1.2-0.6-2c0-0.5,0.1-1,0.3-1.5
							c0.2-0.5,0.5-0.8,0.9-1.1c0.4-0.3,0.8-0.4,1.3-0.4c0.7,0,1.2,0.3,1.7,0.8v-0.7h0.9v4.9c0,0.9-0.1,1.5-0.3,1.9
							c-0.2,0.4-0.5,0.7-0.9,0.9c-0.4,0.2-0.9,0.3-1.4,0.3c-0.7,0-1.2-0.2-1.6-0.5C231,199.9,230.8,199.4,230.8,198.8z M231.6,195.4
							c0,0.7,0.1,1.3,0.4,1.6c0.3,0.3,0.7,0.5,1.1,0.5c0.4,0,0.8-0.2,1.1-0.5s0.5-0.9,0.5-1.6c0-0.7-0.2-1.2-0.5-1.6
							s-0.7-0.5-1.1-0.5c-0.4,0-0.8,0.2-1.1,0.5C231.7,194.2,231.6,194.7,231.6,195.4z"/>
						<path d="M237.7,200.6H237c1.1-1.7,1.6-3.4,1.6-5.2c0-0.7-0.1-1.3-0.2-2c-0.1-0.5-0.3-1.1-0.5-1.5c-0.1-0.3-0.4-0.9-0.9-1.6
							h0.7c0.7,0.9,1.2,1.8,1.5,2.7c0.3,0.8,0.4,1.6,0.4,2.4c0,1-0.2,1.9-0.6,2.8C238.7,199.2,238.2,200,237.7,200.6z"/>
					</g>
				</g>
			</g>
		</g>
	</g>
</g>
<g>
	<g>
		<path d="M95,218.6c0.2,0.3,0.4,0.5,0.5,0.9c0.1,0.3,0.2,0.7,0.2,1s-0.1,0.6-0.2,0.9c-0.1,0.3-0.3,0.5-0.5,0.8
			c-0.2,0.2-0.4,0.4-0.7,0.5c-0.3,0.1-0.5,0.2-0.8,0.2s-0.6-0.1-0.8-0.2c-0.3-0.1-0.5-0.3-0.7-0.5s-0.4-0.5-0.5-0.8
			s-0.2-0.6-0.2-0.9c0-0.3,0-0.6,0.1-0.9c0.1-0.3,0.3-0.6,0.5-0.8s0.4-0.4,0.7-0.5c0.3-0.1,0.5-0.2,0.8-0.2h2.7c0.1,0,0.2,0,0.2,0.1
			c0.1,0.1,0.1,0.1,0.1,0.2c0,0.1,0,0.2-0.1,0.2c-0.1,0.1-0.1,0.1-0.2,0.1H95V218.6z M94.9,219.7c0-0.2-0.1-0.5-0.3-0.6
			c-0.1-0.2-0.3-0.3-0.5-0.4s-0.4-0.1-0.6-0.1s-0.4,0-0.6,0.1s-0.3,0.2-0.5,0.4c-0.1,0.2-0.2,0.4-0.3,0.6c0,0.2-0.1,0.5-0.1,0.7
			c0,0.3,0,0.5,0.1,0.8c0,0.3,0.1,0.5,0.3,0.7c0.1,0.2,0.3,0.3,0.5,0.4c0.2,0.1,0.4,0.2,0.6,0.2l0,0l0,0c0.2,0,0.4-0.1,0.6-0.2
			c0.2-0.1,0.3-0.3,0.5-0.4c0.1-0.2,0.2-0.4,0.3-0.7c0-0.3,0.1-0.5,0.1-0.8C95,220.2,95,220,94.9,219.7z"/>
	</g>
	<g>
		<g>
			<g>
				<g>
					<g enable-background="new    ">
						<path d="M97.3,225.7V225l3.3-3.8c-0.4,0-0.7,0-1,0h-2.1v-0.7h4.2v0.6l-2.8,3.3l-0.5,0.6c0.4,0,0.8,0,1.1,0h2.4v0.8H97.3z"/>
						<path d="M102.8,227.7v-7.2h0.8v0.7c0.2-0.3,0.4-0.5,0.6-0.6c0.2-0.1,0.5-0.2,0.9-0.2c0.4,0,0.8,0.1,1.2,0.3s0.6,0.5,0.8,1
							c0.2,0.4,0.3,0.9,0.3,1.4c0,0.5-0.1,1-0.3,1.4c-0.2,0.4-0.5,0.8-0.8,1c-0.4,0.2-0.7,0.3-1.1,0.3c-0.3,0-0.6-0.1-0.8-0.2
							s-0.4-0.3-0.6-0.5v2.5H102.8z M103.5,223.1c0,0.7,0.1,1.2,0.4,1.5s0.6,0.5,1,0.5c0.4,0,0.7-0.2,1-0.5c0.3-0.3,0.4-0.8,0.4-1.5
							c0-0.7-0.1-1.2-0.4-1.5s-0.6-0.5-1-0.5c-0.4,0-0.7,0.2-1,0.5C103.7,221.9,103.5,222.4,103.5,223.1z"/>
					</g>
				</g>
			</g>
		</g>
	</g>
	<g>
		<g>
			<g>
				<g>
					<g enable-background="new    ">
						<path d="M116.5,218h-5.2v-0.9h5.2V218z M116.5,220.4h-5.2v-0.9h5.2V220.4z"/>
						<path d="M120.6,218.8c0-0.9,0.1-1.7,0.3-2.2c0.2-0.6,0.5-1,0.9-1.3c0.4-0.3,0.9-0.5,1.4-0.5c0.4,0,0.8,0.1,1.1,0.3
							s0.6,0.4,0.8,0.7s0.4,0.7,0.5,1.2s0.2,1.1,0.2,1.9c0,0.9-0.1,1.7-0.3,2.2s-0.5,1-0.9,1.3c-0.4,0.3-0.9,0.5-1.4,0.5
							c-0.8,0-1.4-0.3-1.8-0.8C120.9,221.3,120.6,220.3,120.6,218.8z M121.6,218.8c0,1.3,0.2,2.2,0.5,2.6c0.3,0.4,0.7,0.6,1.1,0.6
							s0.8-0.2,1.1-0.6c0.3-0.4,0.5-1.3,0.5-2.6c0-1.3-0.2-2.2-0.5-2.6c-0.3-0.4-0.7-0.6-1.1-0.6c-0.4,0-0.8,0.2-1.1,0.6
							C121.8,216.6,121.6,217.5,121.6,218.8z"/>
						<path d="M131.9,225c-0.5-0.7-1-1.5-1.4-2.4s-0.6-1.8-0.6-2.8c0-0.9,0.1-1.7,0.4-2.4c0.3-0.9,0.8-1.8,1.5-2.7h0.7
							c-0.4,0.7-0.7,1.3-0.9,1.6c-0.2,0.5-0.4,1-0.5,1.5c-0.2,0.7-0.2,1.3-0.2,2c0,1.7,0.5,3.4,1.6,5.2H131.9z"/>
						<path d="M139.5,219.9l1,0.3c-0.2,0.9-0.6,1.5-1.2,2c-0.6,0.4-1.3,0.7-2.1,0.7c-0.8,0-1.5-0.2-2.1-0.5
							c-0.5-0.3-0.9-0.8-1.2-1.5c-0.3-0.7-0.4-1.4-0.4-2.1c0-0.8,0.2-1.5,0.5-2.1c0.3-0.6,0.8-1.1,1.3-1.4c0.6-0.3,1.2-0.5,1.9-0.5
							c0.8,0,1.5,0.2,2,0.6c0.5,0.4,0.9,1,1.1,1.7l-1,0.2c-0.2-0.6-0.4-1-0.8-1.3s-0.8-0.4-1.3-0.4c-0.6,0-1.1,0.1-1.5,0.4
							c-0.4,0.3-0.7,0.7-0.9,1.2c-0.2,0.5-0.2,1-0.2,1.5c0,0.7,0.1,1.3,0.3,1.8c0.2,0.5,0.5,0.9,0.9,1.1s0.9,0.4,1.3,0.4
							c0.6,0,1.1-0.2,1.5-0.5C139.1,221.1,139.4,220.6,139.5,219.9z"/>
						<path d="M141.7,222.7V217h0.9v0.9c0.2-0.4,0.4-0.7,0.6-0.8c0.2-0.1,0.4-0.2,0.6-0.2c0.3,0,0.7,0.1,1,0.3l-0.3,0.9
							c-0.2-0.1-0.5-0.2-0.7-0.2c-0.2,0-0.4,0.1-0.6,0.2s-0.3,0.3-0.4,0.5c-0.1,0.3-0.2,0.7-0.2,1.1v3H141.7z"/>
						<path d="M149.1,222.7v-0.8c-0.4,0.6-1,1-1.8,1c-0.3,0-0.7-0.1-0.9-0.2c-0.3-0.1-0.5-0.3-0.7-0.5c-0.1-0.2-0.2-0.4-0.3-0.7
							c0-0.2-0.1-0.5-0.1-0.9V217h1v3.2c0,0.5,0,0.8,0.1,1c0.1,0.3,0.2,0.5,0.4,0.6c0.2,0.1,0.4,0.2,0.7,0.2s0.6-0.1,0.8-0.2
							s0.4-0.4,0.5-0.6c0.1-0.3,0.2-0.6,0.2-1.1V217h1v5.7H149.1z"/>
						<path d="M151.1,221l1-0.2c0.1,0.4,0.2,0.7,0.4,0.9c0.2,0.2,0.6,0.3,1,0.3c0.4,0,0.8-0.1,1-0.3s0.3-0.4,0.3-0.6
							c0-0.2-0.1-0.4-0.3-0.5c-0.1-0.1-0.5-0.2-1-0.3c-0.7-0.2-1.2-0.3-1.5-0.5c-0.3-0.1-0.5-0.3-0.6-0.5c-0.1-0.2-0.2-0.5-0.2-0.8
							c0-0.3,0.1-0.5,0.2-0.7c0.1-0.2,0.3-0.4,0.5-0.5c0.2-0.1,0.4-0.2,0.6-0.3c0.3-0.1,0.5-0.1,0.8-0.1c0.4,0,0.8,0.1,1.2,0.2
							c0.3,0.1,0.6,0.3,0.7,0.5c0.2,0.2,0.3,0.5,0.3,0.9l-0.9,0.1c0-0.3-0.2-0.5-0.4-0.7c-0.2-0.2-0.5-0.2-0.9-0.2
							c-0.4,0-0.8,0.1-1,0.2c-0.2,0.1-0.3,0.3-0.3,0.5c0,0.1,0,0.2,0.1,0.3c0.1,0.1,0.2,0.2,0.4,0.3c0.1,0,0.4,0.1,0.9,0.2
							c0.7,0.2,1.2,0.3,1.4,0.4c0.3,0.1,0.5,0.3,0.6,0.5s0.2,0.5,0.2,0.8c0,0.3-0.1,0.6-0.3,0.9c-0.2,0.3-0.5,0.5-0.8,0.7
							c-0.4,0.2-0.8,0.2-1.2,0.2c-0.7,0-1.3-0.2-1.7-0.5C151.4,222,151.2,221.6,151.1,221z"/>
						<path d="M157,222.7v-7.9h1v2.8c0.5-0.5,1-0.8,1.7-0.8c0.4,0,0.8,0.1,1.1,0.3c0.3,0.2,0.5,0.4,0.7,0.7c0.1,0.3,0.2,0.7,0.2,1.3
							v3.6h-1v-3.6c0-0.5-0.1-0.8-0.3-1.1c-0.2-0.2-0.5-0.3-0.9-0.3c-0.3,0-0.6,0.1-0.8,0.2c-0.3,0.1-0.4,0.3-0.5,0.6
							c-0.1,0.3-0.2,0.6-0.2,1.1v3.1H157z"/>
						<path d="M163.1,215.9v-1.1h1v1.1H163.1z M163.1,222.7V217h1v5.7H163.1z"/>
						<path d="M165.5,222.7V217h0.9v0.8c0.4-0.6,1-0.9,1.8-0.9c0.3,0,0.7,0.1,0.9,0.2c0.3,0.1,0.5,0.3,0.6,0.5
							c0.1,0.2,0.2,0.4,0.3,0.7c0,0.2,0.1,0.5,0.1,0.9v3.5h-1v-3.5c0-0.4,0-0.7-0.1-0.9s-0.2-0.4-0.4-0.5c-0.2-0.1-0.4-0.2-0.7-0.2
							c-0.4,0-0.8,0.1-1.1,0.4c-0.3,0.3-0.4,0.8-0.4,1.5v3.1H165.5z"/>
						<path d="M171.5,223.1l0.9,0.1c0,0.3,0.1,0.5,0.3,0.6c0.2,0.2,0.6,0.3,1,0.3c0.4,0,0.8-0.1,1-0.3s0.4-0.4,0.5-0.8
							c0.1-0.2,0.1-0.6,0.1-1.2c-0.4,0.5-0.9,0.7-1.6,0.7c-0.8,0-1.4-0.3-1.8-0.8s-0.6-1.2-0.6-2c0-0.5,0.1-1,0.3-1.5
							s0.5-0.8,0.9-1.1c0.4-0.3,0.8-0.4,1.3-0.4c0.7,0,1.2,0.3,1.7,0.8V217h0.9v4.9c0,0.9-0.1,1.5-0.3,1.9c-0.2,0.4-0.5,0.7-0.9,0.9
							c-0.4,0.2-0.9,0.3-1.4,0.3c-0.7,0-1.2-0.2-1.6-0.5C171.7,224.2,171.5,223.8,171.5,223.1z M172.3,219.7c0,0.7,0.1,1.3,0.4,1.6
							s0.7,0.5,1.1,0.5c0.4,0,0.8-0.2,1.1-0.5s0.5-0.9,0.5-1.6c0-0.7-0.2-1.2-0.5-1.6c-0.3-0.4-0.7-0.5-1.1-0.5
							c-0.4,0-0.8,0.2-1.1,0.5C172.4,218.5,172.3,219,172.3,219.7z"/>
						<path d="M178.4,225h-0.7c1.1-1.7,1.6-3.4,1.6-5.2c0-0.7-0.1-1.3-0.2-2c-0.1-0.5-0.3-1.1-0.5-1.5c-0.1-0.3-0.4-0.9-0.9-1.6h0.7
							c0.7,0.9,1.2,1.8,1.5,2.7c0.3,0.8,0.4,1.6,0.4,2.4c0,1-0.2,1.9-0.6,2.8C179.4,223.5,178.9,224.3,178.4,225z"/>
					</g>
				</g>
			</g>
		</g>
	</g>
</g>
<g>
	<g>
		<path d="M95,241.2c0.2,0.3,0.4,0.5,0.5,0.9c0.1,0.3,0.2,0.7,0.2,1s-0.1,0.6-0.2,0.9c-0.1,0.3-0.3,0.5-0.5,0.8
			c-0.2,0.2-0.4,0.4-0.7,0.5c-0.3,0.1-0.5,0.2-0.8,0.2s-0.6-0.1-0.8-0.2c-0.3-0.1-0.5-0.3-0.7-0.5s-0.4-0.5-0.5-0.8
			s-0.2-0.6-0.2-0.9c0-0.3,0-0.6,0.1-0.9c0.1-0.3,0.3-0.6,0.5-0.8s0.4-0.4,0.7-0.5c0.3-0.1,0.5-0.2,0.8-0.2h2.7c0.1,0,0.2,0,0.2,0.1
			c0.1,0.1,0.1,0.1,0.1,0.2c0,0.1,0,0.2-0.1,0.2c-0.1,0.1-0.1,0.1-0.2,0.1H95V241.2z M94.9,242.3c0-0.2-0.1-0.5-0.3-0.6
			c-0.1-0.2-0.3-0.3-0.5-0.4s-0.4-0.1-0.6-0.1s-0.4,0-0.6,0.1s-0.3,0.2-0.5,0.4c-0.1,0.2-0.2,0.4-0.3,0.6c0,0.2-0.1,0.5-0.1,0.7
			c0,0.3,0,0.5,0.1,0.8c0,0.3,0.1,0.5,0.3,0.7c0.1,0.2,0.3,0.3,0.5,0.4c0.2,0.1,0.4,0.2,0.6,0.2l0,0l0,0c0.2,0,0.4-0.1,0.6-0.2
			c0.2-0.1,0.3-0.3,0.5-0.4c0.1-0.2,0.2-0.4,0.3-0.7c0-0.3,0.1-0.5,0.1-0.8C95,242.8,95,242.6,94.9,242.3z"/>
	</g>
	<g>
		<g>
			<g>
				<g>
					<g enable-background="new    ">
						<path d="M97.3,248.3v-0.7l3.3-3.8c-0.4,0-0.7,0-1,0h-2.1v-0.7h4.2v0.6l-2.8,3.3l-0.5,0.6c0.4,0,0.8,0,1.1,0h2.4v0.8H97.3z"/>
						<path d="M102.8,250.3v-7.2h0.8v0.7c0.2-0.3,0.4-0.5,0.6-0.6c0.2-0.1,0.5-0.2,0.9-0.2c0.4,0,0.8,0.1,1.2,0.3s0.6,0.5,0.8,1
							c0.2,0.4,0.3,0.9,0.3,1.4c0,0.5-0.1,1-0.3,1.4c-0.2,0.4-0.5,0.8-0.8,1c-0.4,0.2-0.7,0.3-1.1,0.3c-0.3,0-0.6-0.1-0.8-0.2
							s-0.4-0.3-0.6-0.5v2.5H102.8z M103.5,245.7c0,0.7,0.1,1.2,0.4,1.5s0.6,0.5,1,0.5c0.4,0,0.7-0.2,1-0.5c0.3-0.3,0.4-0.8,0.4-1.5
							c0-0.7-0.1-1.2-0.4-1.5s-0.6-0.5-1-0.5c-0.4,0-0.7,0.2-1,0.5C103.7,244.6,103.5,245.1,103.5,245.7z"/>
					</g>
				</g>
			</g>
		</g>
	</g>
	<g>
		<g>
			<g>
				<g>
					<g enable-background="new    ">
						<path d="M111.3,241.9V241l5.2-2.2v1l-4.1,1.7l4.1,1.7v1L111.3,241.9z"/>
						<path d="M120.6,241.4c0-0.9,0.1-1.7,0.3-2.2c0.2-0.6,0.5-1,0.9-1.3c0.4-0.3,0.9-0.5,1.4-0.5c0.4,0,0.8,0.1,1.1,0.3
							s0.6,0.4,0.8,0.7s0.4,0.7,0.5,1.2s0.2,1.1,0.2,1.9c0,0.9-0.1,1.7-0.3,2.2s-0.5,1-0.9,1.3c-0.4,0.3-0.9,0.5-1.4,0.5
							c-0.8,0-1.4-0.3-1.8-0.8C120.9,244,120.6,242.9,120.6,241.4z M121.6,241.4c0,1.3,0.2,2.2,0.5,2.6c0.3,0.4,0.7,0.6,1.1,0.6
							s0.8-0.2,1.1-0.6c0.3-0.4,0.5-1.3,0.5-2.6c0-1.3-0.2-2.2-0.5-2.6c-0.3-0.4-0.7-0.6-1.1-0.6c-0.4,0-0.8,0.2-1.1,0.6
							C121.8,239.2,121.6,240.1,121.6,241.4z"/>
						<path d="M131.9,247.6c-0.5-0.7-1-1.5-1.4-2.4s-0.6-1.8-0.6-2.8c0-0.9,0.1-1.7,0.4-2.4c0.3-0.9,0.8-1.8,1.5-2.7h0.7
							c-0.4,0.7-0.7,1.3-0.9,1.6c-0.2,0.5-0.4,1-0.5,1.5c-0.2,0.7-0.2,1.3-0.2,2c0,1.7,0.5,3.4,1.6,5.2H131.9z"/>
						<path d="M139.5,242.5l1,0.3c-0.2,0.9-0.6,1.5-1.2,2c-0.6,0.4-1.3,0.7-2.1,0.7c-0.8,0-1.5-0.2-2.1-0.5
							c-0.5-0.3-0.9-0.8-1.2-1.5c-0.3-0.7-0.4-1.4-0.4-2.1c0-0.8,0.2-1.5,0.5-2.1c0.3-0.6,0.8-1.1,1.3-1.4c0.6-0.3,1.2-0.5,1.9-0.5
							c0.8,0,1.5,0.2,2,0.6c0.5,0.4,0.9,1,1.1,1.7l-1,0.2c-0.2-0.6-0.4-1-0.8-1.3s-0.8-0.4-1.3-0.4c-0.6,0-1.1,0.1-1.5,0.4
							c-0.4,0.3-0.7,0.7-0.9,1.2c-0.2,0.5-0.2,1-0.2,1.5c0,0.7,0.1,1.3,0.3,1.8c0.2,0.5,0.5,0.9,0.9,1.1s0.9,0.4,1.3,0.4
							c0.6,0,1.1-0.2,1.5-0.5C139.1,243.7,139.4,243.2,139.5,242.5z"/>
						<path d="M141.7,245.3v-5.7h0.9v0.9c0.2-0.4,0.4-0.7,0.6-0.8c0.2-0.1,0.4-0.2,0.6-0.2c0.3,0,0.7,0.1,1,0.3l-0.3,0.9
							c-0.2-0.1-0.5-0.2-0.7-0.2c-0.2,0-0.4,0.1-0.6,0.2s-0.3,0.3-0.4,0.5c-0.1,0.3-0.2,0.7-0.2,1.1v3H141.7z"/>
						<path d="M149.1,245.3v-0.8c-0.4,0.6-1,1-1.8,1c-0.3,0-0.7-0.1-0.9-0.2c-0.3-0.1-0.5-0.3-0.7-0.5c-0.1-0.2-0.2-0.4-0.3-0.7
							c0-0.2-0.1-0.5-0.1-0.9v-3.5h1v3.2c0,0.5,0,0.8,0.1,1c0.1,0.3,0.2,0.5,0.4,0.6c0.2,0.1,0.4,0.2,0.7,0.2s0.6-0.1,0.8-0.2
							s0.4-0.4,0.5-0.6c0.1-0.3,0.2-0.6,0.2-1.1v-3.1h1v5.7H149.1z"/>
						<path d="M151.1,243.6l1-0.2c0.1,0.4,0.2,0.7,0.4,0.9c0.2,0.2,0.6,0.3,1,0.3c0.4,0,0.8-0.1,1-0.3s0.3-0.4,0.3-0.6
							c0-0.2-0.1-0.4-0.3-0.5c-0.1-0.1-0.5-0.2-1-0.3c-0.7-0.2-1.2-0.3-1.5-0.5c-0.3-0.1-0.5-0.3-0.6-0.5c-0.1-0.2-0.2-0.5-0.2-0.8
							c0-0.3,0.1-0.5,0.2-0.7c0.1-0.2,0.3-0.4,0.5-0.5c0.2-0.1,0.4-0.2,0.6-0.3c0.3-0.1,0.5-0.1,0.8-0.1c0.4,0,0.8,0.1,1.2,0.2
							c0.3,0.1,0.6,0.3,0.7,0.5c0.2,0.2,0.3,0.5,0.3,0.9l-0.9,0.1c0-0.3-0.2-0.5-0.4-0.7c-0.2-0.2-0.5-0.2-0.9-0.2
							c-0.4,0-0.8,0.1-1,0.2c-0.2,0.1-0.3,0.3-0.3,0.5c0,0.1,0,0.2,0.1,0.3c0.1,0.1,0.2,0.2,0.4,0.3c0.1,0,0.4,0.1,0.9,0.2
							c0.7,0.2,1.2,0.3,1.4,0.4c0.3,0.1,0.5,0.3,0.6,0.5s0.2,0.5,0.2,0.8c0,0.3-0.1,0.6-0.3,0.9c-0.2,0.3-0.5,0.5-0.8,0.7
							c-0.4,0.2-0.8,0.2-1.2,0.2c-0.7,0-1.3-0.2-1.7-0.5C151.4,244.7,151.2,244.2,151.1,243.6z"/>
						<path d="M157,245.3v-7.9h1v2.8c0.5-0.5,1-0.8,1.7-0.8c0.4,0,0.8,0.1,1.1,0.3c0.3,0.2,0.5,0.4,0.7,0.7c0.1,0.3,0.2,0.7,0.2,1.3
							v3.6h-1v-3.6c0-0.5-0.1-0.8-0.3-1.1c-0.2-0.2-0.5-0.3-0.9-0.3c-0.3,0-0.6,0.1-0.8,0.2c-0.3,0.1-0.4,0.3-0.5,0.6
							c-0.1,0.3-0.2,0.6-0.2,1.1v3.1H157z"/>
						<path d="M163.1,238.5v-1.1h1v1.1H163.1z M163.1,245.3v-5.7h1v5.7H163.1z"/>
						<path d="M165.5,245.3v-5.7h0.9v0.8c0.4-0.6,1-0.9,1.8-0.9c0.3,0,0.7,0.1,0.9,0.2c0.3,0.1,0.5,0.3,0.6,0.5
							c0.1,0.2,0.2,0.4,0.3,0.7c0,0.2,0.1,0.5,0.1,0.9v3.5h-1v-3.5c0-0.4,0-0.7-0.1-0.9s-0.2-0.4-0.4-0.5c-0.2-0.1-0.4-0.2-0.7-0.2
							c-0.4,0-0.8,0.1-1.1,0.4c-0.3,0.3-0.4,0.8-0.4,1.5v3.1H165.5z"/>
						<path d="M171.5,245.8l0.9,0.1c0,0.3,0.1,0.5,0.3,0.6c0.2,0.2,0.6,0.3,1,0.3c0.4,0,0.8-0.1,1-0.3s0.4-0.4,0.5-0.8
							c0.1-0.2,0.1-0.6,0.1-1.2c-0.4,0.5-0.9,0.7-1.6,0.7c-0.8,0-1.4-0.3-1.8-0.8s-0.6-1.2-0.6-2c0-0.5,0.1-1,0.3-1.5
							s0.5-0.8,0.9-1.1c0.4-0.3,0.8-0.4,1.3-0.4c0.7,0,1.2,0.3,1.7,0.8v-0.7h0.9v4.9c0,0.9-0.1,1.5-0.3,1.9
							c-0.2,0.4-0.5,0.7-0.9,0.9c-0.4,0.2-0.9,0.3-1.4,0.3c-0.7,0-1.2-0.2-1.6-0.5C171.7,246.8,171.5,246.4,171.5,245.8z
							 M172.3,242.3c0,0.7,0.1,1.3,0.4,1.6s0.7,0.5,1.1,0.5c0.4,0,0.8-0.2,1.1-0.5s0.5-0.9,0.5-1.6c0-0.7-0.2-1.2-0.5-1.6
							c-0.3-0.4-0.7-0.5-1.1-0.5c-0.4,0-0.8,0.2-1.1,0.5C172.4,241.1,172.3,241.7,172.3,242.3z"/>
						<path d="M178.4,247.6h-0.7c1.1-1.7,1.6-3.4,1.6-5.2c0-0.7-0.1-1.3-0.2-2c-0.1-0.5-0.3-1.1-0.5-1.5c-0.1-0.3-0.4-0.9-0.9-1.6
							h0.7c0.7,0.9,1.2,1.8,1.5,2.7c0.3,0.8,0.4,1.6,0.4,2.4c0,1-0.2,1.9-0.6,2.8C179.4,246.2,178.9,246.9,178.4,247.6z"/>
					</g>
				</g>
			</g>
		</g>
	</g>
</g>
<line fill="none" stroke="#000000" x1="310" y1="60.7" x2="310" y2="81.2"/>
<path fill="none" stroke="#D82E74" stroke-miterlimit="10" d="M238.2,203.5"/>
<path fill="none" stroke="#D82E74" stroke-miterlimit="10" d="M248,297.6"/>
<path fill="none" stroke="#D82E74" stroke-miterlimit="10" d="M238.2,203.5"/>
<path fill="none" stroke="#D82E74" stroke-miterlimit="10" d="M248,297.6"/>
<path fill="none" stroke="#00BDEC" stroke-miterlimit="10" d="M52,314.2"/>
<path fill="none" stroke="#00BDEC" stroke-miterlimit="10" d="M288,278.8"/>
<path fill="none" stroke="#000000" d="M288.7,277.4c-43.6,38.2-77.3,69.7-139.8,74.5c-44.7,3.5-93-10.6-116.4-52.6
	c-18.6-33.4-20.3-75.7-9.9-113c5.5-19.7,14.5-37.5,24.6-55.1C57,114,66.3,96,80.8,82.2l0.1-0.8l207.7-20.7"/>
<g>
	<g>
		<polygon fill="#FFFFFF" points="38.7,212.4 32.4,218 40.6,216.3 		"/>
	</g>
	<g>
		<polyline fill="none" stroke="#000000" points="85.7,195.7 77,195.7 38.3,215 		"/>
		<polygon points="38.7,212.4 32.4,218 40.6,216.3 		"/>
	</g>
</g>
<g>
	<g>
		<polygon fill="#FFFFFF" points="24.7,244.3 18.4,249.9 26.6,248.2 		"/>
	</g>
	<g>
		<polyline fill="none" stroke="#000000" points="85.7,220.6 77,220.6 24.3,246.9 		"/>
		<polygon points="24.7,244.3 18.4,249.9 26.6,248.2 		"/>
	</g>
</g>
<g>
	<g>
		<polygon fill="#FFFFFF" points="18.6,271.9 12.5,277.6 20.7,275.7 		"/>
	</g>
	<g>
		<polyline fill="none" stroke="#000000" points="85.7,243.1 77,243.1 18.3,274.5 		"/>
		<polygon points="18.6,271.9 12.5,277.6 20.7,275.7 		"/>
	</g>
</g>
<g>
	<g>
		<polygon fill="#FFFFFF" points="289.8,21.2 287.6,13 285.5,21.2 		"/>
	</g>
	<g>
		<line fill="none" stroke="#000000" x1="287.7" y1="319" x2="287.7" y2="19.7"/>
		<polygon points="289.8,21.2 287.6,13 285.5,21.2 		"/>
	</g>
</g>
<path fill="none" stroke="#000000" d="M287.7,61L81.3,81.3h-0.4c-13.5,16-22.8,28-35.2,47.3c-7.8,12.1-14.8,24.8-20.5,38
	c-19.3,44.5-25,96.9-0.6,140.8c23.4,42,75.7,55.3,120.4,51.6c62.7-5.1,102.7-39.4,142.8-81.5"/>
</svg>
