<?xml version="1.0" encoding="utf-8"?>
<!-- Generator: Adobe Illustrator 17.1.0, SVG Export Plug-In . SVG Version: 6.00 Build 0)  -->

<svg version="1.1" id="Layer_1" xmlns="http://www.w3.org/2000/svg" xmlns:xlink="http://www.w3.org/1999/xlink" x="0px" y="0px"
	 width="185px" height="200px" viewBox="213 296 185 200" enable-background="new 213 296 185 200" xml:space="preserve">
<g>
	<rect x="213" y="296" fill="#FFFFFF" width="185" height="200"/>
	<path fill="none" stroke="#000000" stroke-miterlimit="10" d="M323.3,342.5l-4.6,19.2 M336.8,470.3h-68.4l-9.2-27.8h68.5
		L336.8,470.3 M259.3,342.4v100.1 M359.9,342.4l-32.2,100.1 M373.3,383.3l-13.4-40.9H259.3"/>
	<path fill="none" stroke="#000000" stroke-miterlimit="10" stroke-dasharray="10,4" d="M259.3,342.4l13.4,40.9h100.6 M272.7,383.3
		l-4.3,87 M373.3,383.3l-36.5,87"/>
	<line fill="none" stroke="#000000" stroke-miterlimit="10" x1="329.8" y1="313" x2="323.2" y2="342.2"/>
	<polygon fill="#363639" stroke="#000000" stroke-miterlimit="10" points="330.5,318.4 326.9,317.9 329.8,313 	"/>
	<path fill="#363639" stroke="#000000" stroke-miterlimit="10" d="M339.3,469.9L339.3,469.9c0,1.3-1.3,2.3-3,2.3s-3-1-3-2.3
		s1.3-2.3,3-2.3S339.3,468.6,339.3,469.9L339.3,469.9z"/>
	<path fill="#363639" stroke="#000000" stroke-miterlimit="10" d="M330.2,442.1L330.2,442.1c0,1.3-1.3,2.3-3,2.3s-3-1-3-2.3
		s1.3-2.3,3-2.3S330.2,440.8,330.2,442.1L330.2,442.1z"/>
	<path fill="#363639" stroke="#000000" stroke-miterlimit="10" d="M262.2,442.4L262.2,442.4c0,1.3-1.3,2.3-3,2.3s-3-1-3-2.3
		s1.3-2.3,3-2.3S262.2,441.1,262.2,442.4L262.2,442.4z"/>
	<path fill="#363639" stroke="#000000" stroke-miterlimit="10" d="M271.8,470.2L271.8,470.2c0,1.3-1.3,2.3-3,2.3s-3-1-3-2.3
		s1.3-2.3,3-2.3S271.8,469,271.8,470.2L271.8,470.2z"/>
	<path fill="#363639" stroke="#000000" stroke-miterlimit="10" d="M363.3,342.6L363.3,342.6c0,1.3-1.3,2.3-3,2.3s-3-1-3-2.3
		s1.3-2.3,3-2.3S363.3,341.4,363.3,342.6L363.3,342.6z"/>
	<path fill="#363639" stroke="#000000" stroke-miterlimit="10" d="M376.6,383L376.6,383c0,1.3-1.3,2.3-3,2.3s-3-1-3-2.3
		s1.3-2.3,3-2.3S376.6,381.8,376.6,383L376.6,383z"/>
	<path fill="#363639" stroke="#000000" stroke-miterlimit="10" d="M275.7,383L275.7,383c0,1.3-1.3,2.3-3,2.3s-3-1-3-2.3
		s1.3-2.3,3-2.3S275.7,381.8,275.7,383L275.7,383z"/>
	<path fill="#363639" stroke="#000000" stroke-miterlimit="10" d="M261.8,342.1L261.8,342.1c0,1.3-1.3,2.3-3,2.3s-3-1-3-2.3
		s1.3-2.3,3-2.3S261.8,340.9,261.8,342.1L261.8,342.1z"/>
	<path fill="#363639" stroke="#000000" stroke-miterlimit="10" d="M296.8,442.1L296.8,442.1c0,1.3-1.3,2.3-3,2.3s-3-1-3-2.3
		s1.3-2.3,3-2.3S296.8,440.9,296.8,442.1L296.8,442.1z"/>
	<path fill="#363639" stroke="#000000" stroke-miterlimit="10" d="M343.5,401.6L343.5,401.6c0,1.3-1.3,2.3-3,2.3s-3-1-3-2.3
		s1.3-2.3,3-2.3C342.2,399.3,343.5,400.3,343.5,401.6L343.5,401.6z"/>
	<path fill="none" stroke="#000000" stroke-miterlimit="10" stroke-dasharray="10,4" d="M305.9,358.9c2.1,1,3.1,1.4,3.9,1.3
		c1.3-0.1,2.9-2.1,4.3-2c0.5,0,1,0.4,2,1.3 M263.6,409.5c-1.1,1.1-1.4,1.6-1.3,2.3c0.1,1.3,2.6,1.6,2.6,3c0,1-0.5,1.7-2.3,3
		 M351.9,409.8c-2,0.4-2.8,0.8-3.3,1.3c-0.9,0.9-0.2,3.4-1.3,4.3c-0.4,0.4-1,0.4-2.3,0.3"/>
	<path fill="none" stroke="#000000" stroke-miterlimit="10" d="M296.1,332.7c0.1,7.4,1,10.5,3.6,12.5c1.9,1.4,5-1.4,6.9,0
		c2.4,1.8,3.2,4.7,3.3,11.5"/>
	<polygon points="309.9,356.6 309.4,356.7 306,348 312,347.4 310.4,356.6 	"/>
	<path fill="none" stroke="#000000" stroke-miterlimit="10" d="M236,407.8c6.6,5.6,9.6,6.9,12.1,5.3c1.2-0.8-1.1-3.9,0-4.6
		c3.1-2,6.9-0.3,15.1,6.9"/>
	<polygon points="263.3,415.4 263,415.8 254.2,412.5 257.7,407.6 263.5,415 	"/>
	<path fill="none" stroke="#000000" stroke-miterlimit="10" d="M378.1,431.1c-4.9-7.9-7.9-10.8-11.8-11.5c-2.5-0.4-4.6,3.8-7.2,3.3
		c-3.7-0.8-6.1-3.6-9.8-11.2"/>
	<polygon points="349.2,411.8 349.7,411.5 356.5,417.9 351.4,421 348.8,412 	"/>
	<rect x="317.4" y="348.7" fill="#FFFFFF" width="9.8" height="2.6"/>
	<path fill="#363639" d="M226.3,406.9l1.1-0.1c0.1,0.5,0.3,0.9,0.6,1.2c0.3,0.3,0.7,0.4,1.1,0.4c0.5,0,0.9-0.2,1.3-0.6
		c0.3-0.4,0.5-0.9,0.5-1.5s-0.2-1.1-0.5-1.4s-0.8-0.5-1.3-0.5c-0.3,0-0.6,0.1-0.9,0.2c-0.3,0.2-0.5,0.3-0.6,0.6l-1-0.1l0.8-4.4h4.3
		v1h-3.4l-0.5,2.3c0.5-0.4,1.1-0.5,1.6-0.5c0.7,0,1.4,0.3,1.9,0.8s0.8,1.2,0.8,2s-0.2,1.5-0.7,2c-0.6,0.7-1.3,1-2.3,1
		c-0.8,0-1.4-0.2-1.9-0.6C226.7,408.2,226.4,407.6,226.3,406.9L226.3,406.9z"/>
	<path fill="none" stroke="#000000" stroke-miterlimit="10" d="M236.3,404.2L236.3,404.2c0-3.8-3.1-6.8-6.8-6.8s-6.8,3.1-6.8,6.8
		c0,3.8,3.1,6.8,6.8,6.8S236.3,408,236.3,404.2L236.3,404.2z"/>
	<path fill="#363639" d="M299.8,407.7v-2.1h-3.7v-1l3.9-5.6h0.9v5.6h1.2v1h-1.2v2.1H299.8 M299.8,404.7v-3.9l-2.7,3.9H299.8
		L299.8,404.7z"/>
	<path fill="none" stroke="#000000" stroke-miterlimit="10" d="M306.2,402.6L306.2,402.6c0-3.8-3.1-6.8-6.8-6.8
		c-3.8,0-6.8,3.1-6.8,6.8c0,3.8,3.1,6.8,6.8,6.8C303.1,409.5,306.2,406.4,306.2,402.6L306.2,402.6z"/>
	<path fill="#363639" d="M350.2,397.7l1.1-0.1c0.1,0.6,0.3,1,0.6,1.3c0.3,0.3,0.6,0.4,1.1,0.4s0.9-0.2,1.2-0.5
		c0.3-0.3,0.5-0.8,0.5-1.3s-0.2-0.9-0.5-1.2c-0.3-0.3-0.7-0.5-1.2-0.5c-0.2,0-0.5,0-0.7,0.1l0.1-0.9c0.1,0,0.1,0,0.2,0
		c0.4,0,0.9-0.1,1.2-0.3c0.4-0.2,0.5-0.6,0.5-1.1c0-0.4-0.1-0.7-0.4-0.9c-0.3-0.3-0.6-0.4-1-0.4s-0.8,0.1-1,0.4
		c-0.3,0.3-0.4,0.6-0.5,1.2l-1.1-0.2c0.1-0.7,0.4-1.3,0.9-1.6c0.5-0.4,1-0.6,1.7-0.6c0.5,0,0.9,0.1,1.3,0.3c0.4,0.2,0.7,0.5,0.9,0.8
		c0.2,0.3,0.3,0.7,0.3,1.1s-0.1,0.7-0.3,1c-0.2,0.3-0.5,0.6-0.9,0.7c0.5,0.1,0.9,0.4,1.2,0.7c0.3,0.4,0.4,0.8,0.4,1.4
		c0,0.7-0.3,1.4-0.8,1.9c-0.6,0.5-1.2,0.8-2.1,0.8c-0.8,0-1.4-0.2-1.9-0.7C350.5,399,350.3,398.5,350.2,397.7L350.2,397.7z"/>
	<path fill="none" stroke="#000000" stroke-miterlimit="10" d="M360.2,395L360.2,395c0-3.8-3.1-6.8-6.8-6.8c-3.8,0-6.8,3.1-6.8,6.8
		c0,3.8,3.1,6.8,6.8,6.8S360.2,398.8,360.2,395L360.2,395z"/>
	<path fill="#363639" d="M299,323.9l-1,0.1c-0.1-0.4-0.2-0.7-0.4-0.9c-0.3-0.3-0.6-0.4-1.1-0.4c-0.3,0-0.6,0.1-0.9,0.3
		c-0.3,0.2-0.6,0.6-0.8,1.1c-0.2,0.5-0.3,1.1-0.3,2c0.3-0.4,0.6-0.7,0.9-0.9c0.4-0.2,0.7-0.3,1.2-0.3c0.7,0,1.3,0.3,1.8,0.8
		s0.7,1.2,0.7,2c0,0.5-0.1,1-0.3,1.5c-0.2,0.5-0.6,0.8-1,1.1c-0.4,0.2-0.9,0.4-1.4,0.4c-0.9,0-1.6-0.3-2.1-1
		c-0.6-0.6-0.8-1.7-0.8-3.2c0-1.7,0.3-2.9,0.9-3.6c0.5-0.6,1.2-1,2.2-1c0.7,0,1.2,0.2,1.7,0.6C298.7,322.7,298.9,323.2,299,323.9
		 M294.7,327.6c0,0.4,0.1,0.7,0.2,1s0.4,0.6,0.6,0.8c0.3,0.2,0.6,0.3,0.9,0.3c0.4,0,0.8-0.2,1.1-0.5c0.3-0.4,0.5-0.8,0.5-1.5
		c0-0.6-0.2-1.1-0.5-1.4s-0.7-0.5-1.2-0.5s-0.9,0.2-1.2,0.5C294.9,326.6,294.7,327.1,294.7,327.6L294.7,327.6z"/>
	<path fill="none" stroke="#000000" stroke-miterlimit="10" d="M303.4,325.4L303.4,325.4c0-3.8-3.1-6.8-6.8-6.8s-6.8,3.1-6.8,6.8
		c0,3.8,3.1,6.8,6.8,6.8S303.4,329.2,303.4,325.4L303.4,325.4z"/>
	<path fill="#363639" d="M385,440.5v1h-5.7c0-0.3,0-0.5,0.1-0.7c0.1-0.4,0.4-0.8,0.7-1.1c0.3-0.4,0.8-0.8,1.4-1.3
		c0.9-0.8,1.6-1.4,1.9-1.8s0.5-0.9,0.5-1.3s-0.2-0.8-0.5-1.1s-0.7-0.4-1.2-0.4s-0.9,0.2-1.2,0.5c-0.3,0.3-0.5,0.7-0.5,1.3l-1.1-0.1
		c0.1-0.8,0.3-1.4,0.8-1.8s1.1-0.6,2-0.6c0.8,0,1.5,0.2,2,0.7s0.7,1,0.7,1.7c0,0.3-0.1,0.7-0.2,1s-0.4,0.7-0.7,1
		c-0.3,0.4-0.9,0.9-1.6,1.5c-0.6,0.5-1,0.9-1.2,1.1s-0.3,0.4-0.4,0.6h4.2V440.5z"/>
	<path fill="none" stroke="#000000" stroke-miterlimit="10" d="M389.4,436.4L389.4,436.4c0-3.8-3.1-6.8-6.8-6.8
		c-3.8,0-6.8,3.1-6.8,6.8c0,3.8,3.1,6.8,6.8,6.8C386.3,443.2,389.4,440.1,389.4,436.4L389.4,436.4z"/>
	<path fill="#363639" d="M294.9,459.8h-1.1V453c-0.3,0.2-0.6,0.5-1,0.7s-0.8,0.4-1.1,0.5v-1c0.6-0.3,1.1-0.6,1.5-1s0.7-0.8,0.9-1.2
		h0.7v8.8H294.9z"/>
	<path fill="none" stroke="#000000" stroke-miterlimit="10" d="M300.8,454.7L300.8,454.7c0-3.8-3.1-6.8-6.8-6.8
		c-3.8,0-6.8,3.1-6.8,6.8c0,3.8,3.1,6.8,6.8,6.8C297.7,461.6,300.8,458.5,300.8,454.7L300.8,454.7z"/>
	<path fill="#363639" d="M247.9,342.9v-8.6h3.2c0.6,0,1,0,1.3,0.1c0.4,0.1,0.8,0.2,1.1,0.4c0.3,0.2,0.5,0.5,0.7,0.8
		c0.2,0.4,0.3,0.7,0.3,1.2c0,0.7-0.2,1.4-0.7,1.9s-1.3,0.8-2.5,0.8H249v3.5L247.9,342.9 M249,338.4h2.2c0.7,0,1.2-0.1,1.6-0.4
		c0.3-0.3,0.5-0.7,0.5-1.2c0-0.4-0.1-0.7-0.3-0.9c-0.2-0.3-0.4-0.4-0.7-0.5c-0.2,0-0.6-0.1-1.1-0.1H249V338.4L249,338.4z"/>
	<path fill="#363639" d="M276.2,398.1v-8.6h1.7l2,6.1c0.2,0.6,0.3,1,0.4,1.3c0.1-0.3,0.3-0.8,0.5-1.4l2.1-6h1.5v8.6h-1.1v-7.2
		l-2.5,7.2h-1l-2.5-7.3v7.3H276.2L276.2,398.1z"/>
	<polygon fill="#363639" points="249.8,447.5 249.8,438.9 250.9,438.9 250.9,446.5 255.1,446.5 255.1,447.5 	"/>
	<polygon fill="#363639" points="260.3,480.4 260.3,471.8 261.5,471.8 261.5,480.4 	"/>
	<path fill="#363639" d="M293.6,435.4l1.1-0.1c0,0.4,0.2,0.8,0.4,1.1c0.2,0.3,0.5,0.5,0.9,0.7s0.8,0.3,1.3,0.3
		c0.4,0,0.8-0.1,1.1-0.2c0.3-0.1,0.6-0.3,0.7-0.5c0.2-0.2,0.2-0.5,0.2-0.7c0-0.3-0.1-0.5-0.2-0.7c-0.2-0.2-0.4-0.4-0.8-0.5
		c-0.2-0.1-0.7-0.2-1.5-0.4s-1.3-0.4-1.7-0.5c-0.4-0.2-0.7-0.5-0.9-0.8c-0.2-0.3-0.3-0.7-0.3-1.1s0.1-0.8,0.4-1.2
		c0.2-0.4,0.6-0.7,1.1-0.9c0.5-0.2,1-0.3,1.6-0.3s1.2,0.1,1.7,0.3c0.5,0.2,0.9,0.5,1.1,0.9c0.3,0.4,0.4,0.9,0.4,1.4l-1.1,0.1
		c-0.1-0.5-0.3-0.9-0.6-1.2c-0.3-0.3-0.8-0.4-1.5-0.4s-1.2,0.1-1.5,0.4s-0.5,0.6-0.5,0.9s0.1,0.6,0.3,0.8c0.2,0.2,0.8,0.4,1.7,0.6
		c0.9,0.2,1.6,0.4,1.9,0.5c0.5,0.2,0.9,0.5,1.1,0.9s0.4,0.8,0.4,1.2s-0.1,0.9-0.4,1.3s-0.6,0.7-1.1,0.9c-0.5,0.2-1,0.3-1.7,0.3
		c-0.8,0-1.4-0.1-2-0.3s-0.9-0.6-1.2-1C293.7,436.5,293.6,436,293.6,435.4L293.6,435.4z"/>
	<polygon fill="#363639" points="333,445.6 333,437 334.2,437 334.2,441.3 338.4,437 340,437 336.4,440.5 340.1,445.6 338.6,445.6 
		335.6,441.3 334.2,442.6 334.2,445.6 	"/>
	<path fill="#363639" d="M340.4,476l1-0.1c0,0.7,0.2,1.1,0.4,1.4s0.5,0.4,0.9,0.4c0.3,0,0.5-0.1,0.7-0.2s0.3-0.3,0.4-0.5
		s0.1-0.6,0.1-1.1V470h1.1v5.9c0,0.7-0.1,1.3-0.3,1.7c-0.2,0.4-0.4,0.7-0.8,0.9c-0.4,0.2-0.8,0.3-1.3,0.3c-0.8,0-1.3-0.2-1.7-0.6
		C340.6,477.5,340.4,476.9,340.4,476L340.4,476z"/>
	<polygon fill="#363639" points="380.4,390.2 380.4,381.6 381.5,381.6 386,388.3 386,381.6 387.1,381.6 387.1,390.2 386,390.2 
		381.4,383.4 381.4,390.2 	"/>
	<path fill="#363639" d="M364.9,338.9c0-1.4,0.4-2.5,1.2-3.3c0.8-0.8,1.8-1.2,3-1.2c0.8,0,1.5,0.2,2.1,0.6s1.1,0.9,1.5,1.6
		c0.3,0.7,0.5,1.5,0.5,2.3c0,0.9-0.2,1.7-0.5,2.3c-0.4,0.7-0.9,1.2-1.5,1.6c-0.6,0.3-1.3,0.5-2.1,0.5c-0.8,0-1.5-0.2-2.2-0.6
		c-0.6-0.4-1.1-0.9-1.5-1.6C365.1,340.4,364.9,339.7,364.9,338.9 M366.1,339c0,1,0.3,1.8,0.8,2.4c0.6,0.6,1.3,0.9,2.1,0.9
		c0.9,0,1.6-0.3,2.1-0.9c0.6-0.6,0.8-1.5,0.8-2.6c0-0.7-0.1-1.3-0.4-1.8c-0.2-0.5-0.6-0.9-1-1.2s-1-0.4-1.5-0.4
		c-0.8,0-1.5,0.3-2.1,0.8C366.4,336.7,366.1,337.7,366.1,339L366.1,339z"/>
	<path fill="#363639" d="M333.3,316v-8.6h3.8c0.8,0,1.3,0.1,1.7,0.2s0.7,0.4,1,0.8s0.4,0.8,0.4,1.3c0,0.6-0.2,1.1-0.6,1.5
		s-1,0.7-1.8,0.8c0.3,0.1,0.5,0.3,0.7,0.4c0.3,0.3,0.6,0.7,0.9,1.1l1.5,2.3h-1.4l-1.1-1.8c-0.3-0.5-0.6-0.9-0.8-1.2
		s-0.4-0.5-0.6-0.6s-0.3-0.2-0.5-0.2c-0.1,0-0.3,0-0.6,0h-1.3v3.8h-1.3 M334.5,311.2h2.4c0.5,0,0.9,0,1.2-0.2
		c0.3-0.1,0.5-0.3,0.7-0.5c0.1-0.2,0.2-0.5,0.2-0.8c0-0.4-0.2-0.7-0.4-1c-0.3-0.3-0.8-0.4-1.4-0.4h-2.7L334.5,311.2L334.5,311.2z"/>
	<path fill="#363639" stroke="#000000" stroke-miterlimit="10" d="M357.1,429.6L357.1,429.6c0,1.3-1.3,2.3-3,2.3s-3-1-3-2.3
		s1.3-2.3,3-2.3S357.1,428.4,357.1,429.6L357.1,429.6z"/>
	<path fill="#363639" stroke="#000000" stroke-miterlimit="10" d="M301.9,470.4L301.9,470.4c0,1.3-1.3,2.3-3,2.3s-3-1-3-2.3
		s1.3-2.3,3-2.3C300.5,468.1,301.9,469.2,301.9,470.4L301.9,470.4z"/>
	<path fill="#363639" stroke="#000000" stroke-miterlimit="10" d="M265.6,454.8L265.6,454.8c0,1.3-1.3,2.3-3,2.3s-3-1-3-2.3
		s1.3-2.3,3-2.3S265.6,453.6,265.6,454.8L265.6,454.8z"/>
	<path fill="#363639" stroke="#000000" stroke-miterlimit="10" d="M370.2,363.4L370.2,363.4c0,1.3-1.3,2.3-3,2.3s-3-1-3-2.3
		s1.3-2.3,3-2.3S370.2,362.2,370.2,363.4L370.2,363.4z"/>
	<path fill="#363639" stroke="#000000" stroke-miterlimit="10" d="M269.3,364.7L269.3,364.7c0,1.3-1.3,2.3-3,2.3s-3-1-3-2.3
		s1.3-2.3,3-2.3C267.9,362.4,269.3,363.5,269.3,364.7L269.3,364.7z"/>
	<path fill="#363639" stroke="#000000" stroke-miterlimit="10" d="M321.2,383.6L321.2,383.6c0,1.3-1.3,2.3-3,2.3s-3-1-3-2.3
		s1.3-2.3,3-2.3S321.2,382.4,321.2,383.6L321.2,383.6z"/>
	<path fill="#363639" stroke="#000000" stroke-miterlimit="10" d="M313.3,341.9L313.3,341.9c0,1.3-1.3,2.3-3,2.3s-3-1-3-2.3
		s1.3-2.3,3-2.3S313.3,340.7,313.3,341.9L313.3,341.9z"/>
	<path fill="#363639" stroke="#000000" stroke-miterlimit="10" d="M274.2,422.4L274.2,422.4c0,1.3-1.3,2.3-3,2.3s-3-1-3-2.3
		s1.3-2.3,3-2.3S274.2,421.2,274.2,422.4L274.2,422.4z"/>
	<path fill="#363639" stroke="#000000" stroke-miterlimit="10" d="M262.3,399.5L262.3,399.5c0,1.3-1.3,2.3-3,2.3s-3-1-3-2.3
		s1.3-2.3,3-2.3C260.9,397.2,262.3,398.3,262.3,399.5L262.3,399.5z"/>
	<path fill="#363639" stroke="#000000" stroke-miterlimit="10" d="M335.5,456.1L335.5,456.1c0,1.3-1.3,2.3-3,2.3s-3-1-3-2.3
		s1.3-2.3,3-2.3C334.1,453.8,335.5,454.9,335.5,456.1L335.5,456.1z"/>
	<path fill="#363639" d="M375.6,364.2l-3.3-8.6h1.2l2.2,6.2c0.2,0.5,0.3,1,0.5,1.4c0.1-0.5,0.3-0.9,0.5-1.4l2.3-6.2h1.2l-3.4,8.6
		H375.6L375.6,364.2z"/>
	<path fill="#363639" d="M308.7,337.1l-2.3-8.6h1.2l1.3,5.6c0.1,0.6,0.3,1.2,0.4,1.8c0.2-0.9,0.3-1.4,0.4-1.6l1.6-5.8h1.4l1.2,4.3
		c0.3,1.1,0.5,2.1,0.7,3c0.1-0.5,0.3-1.2,0.4-1.9l1.3-5.5h1.2l-2.4,8.6H314l-1.8-6.5c-0.2-0.6-0.2-0.9-0.3-1c-0.1,0.4-0.2,0.7-0.3,1
		l-1.8,6.5h-1.1V337.1z"/>
	<path fill="#363639" d="M271.2,371l3.3-4.5l-2.9-4.1h1.4l1.6,2.2c0.3,0.5,0.5,0.8,0.7,1.1c0.2-0.3,0.4-0.6,0.7-1l1.7-2.3h1.2
		l-3,4.1l3.3,4.5h-1.4l-2.2-3.1c-0.1-0.2-0.3-0.4-0.4-0.6c-0.2,0.3-0.3,0.5-0.4,0.6l-2.2,3L271.2,371L271.2,371z"/>
	<path fill="#363639" d="M326.7,371.2h1.1v5c0,0.9-0.1,1.6-0.3,2.1s-0.6,0.9-1.1,1.2c-0.5,0.3-1.2,0.5-2,0.5s-1.5-0.1-2-0.4
		s-0.9-0.7-1.1-1.2s-0.3-1.2-0.3-2.2v-5h1.1v5c0,0.8,0.1,1.3,0.2,1.7c0.1,0.4,0.4,0.6,0.7,0.8c0.3,0.2,0.7,0.3,1.2,0.3
		c0.8,0,1.4-0.2,1.8-0.6s0.5-1.1,0.5-2.2v-5H326.7z"/>
	<path fill="#363639" d="M248.1,398.8v-8.6h3.2c0.6,0,1.2,0.1,1.6,0.3c0.4,0.2,0.7,0.4,0.9,0.8s0.3,0.7,0.3,1.1s-0.1,0.7-0.3,1
		s-0.5,0.6-0.9,0.8c0.5,0.2,0.9,0.4,1.2,0.8s0.4,0.8,0.4,1.3c0,0.4-0.1,0.8-0.3,1.1c-0.2,0.3-0.4,0.6-0.6,0.8
		c-0.3,0.2-0.6,0.3-0.9,0.4c-0.4,0.1-0.8,0.1-1.4,0.1h-3.2 M249.2,393.8h1.9c0.5,0,0.9,0,1.1-0.1c0.3-0.1,0.5-0.2,0.6-0.4
		c0.1-0.2,0.2-0.4,0.2-0.7c0-0.3-0.1-0.5-0.2-0.8c-0.1-0.2-0.3-0.4-0.6-0.4c-0.3-0.1-0.7-0.1-1.3-0.1h-1.7V393.8 M249.2,397.8h2.1
		c0.4,0,0.6,0,0.8,0c0.3,0,0.5-0.1,0.6-0.2c0.2-0.1,0.3-0.3,0.4-0.5c0.1-0.2,0.2-0.4,0.2-0.7c0-0.3-0.1-0.6-0.3-0.8
		c-0.2-0.2-0.4-0.4-0.7-0.5s-0.7-0.1-1.3-0.1h-2v2.8H249.2z"/>
	<path fill="#363639" d="M279.8,430v-3.6l-3.3-5h1.4l1.7,2.6c0.3,0.5,0.6,1,0.9,1.5c0.3-0.4,0.6-0.9,0.9-1.5l1.7-2.5h1.3l-3.4,5v3.6
		h-1.2V430z"/>
	<path fill="#363639" d="M329.8,398.8l3.3-8.6h1.2l3.5,8.6h-1.3l-1-2.6h-3.6l-0.9,2.6H329.8 M332.2,395.3h2.9l-0.9-2.4
		c-0.3-0.7-0.5-1.3-0.6-1.8c-0.1,0.6-0.3,1.1-0.5,1.6L332.2,395.3L332.2,395.3z"/>
	<path fill="#363639" d="M356.6,442.5v-1.1l4.4-5.5c0.3-0.4,0.6-0.7,0.9-1h-4.8v-1h6.1v1l-4.8,6l-0.5,0.6h5.5v1H356.6L356.6,442.5z"
		/>
	<path fill="#363639" d="M321.3,463.1v-8.6h3.8c0.8,0,1.3,0.1,1.7,0.2c0.4,0.2,0.7,0.4,1,0.8c0.2,0.4,0.4,0.8,0.4,1.3
		c0,0.6-0.2,1.1-0.6,1.5s-1,0.7-1.8,0.8c0.3,0.1,0.5,0.3,0.7,0.4c0.3,0.3,0.6,0.7,0.9,1.1l1.5,2.3h-1.4l-1.1-1.8
		c-0.3-0.5-0.6-0.9-0.8-1.2s-0.4-0.5-0.6-0.6s-0.3-0.2-0.5-0.2c-0.1,0-0.3,0-0.6,0h-1.3v3.8h-1.3 M322.5,458.3h2.4
		c0.5,0,0.9,0,1.2-0.2c0.3-0.1,0.5-0.3,0.7-0.5c0.1-0.2,0.2-0.5,0.2-0.8c0-0.4-0.2-0.7-0.4-1c-0.3-0.3-0.8-0.4-1.4-0.4h-2.7
		L322.5,458.3L322.5,458.3z"/>
	<path fill="#363639" d="M300.7,482.6c0.5,0.4,1,0.6,1.5,0.8l-0.3,0.8c-0.6-0.2-1.2-0.6-1.8-1c-0.6,0.3-1.3,0.5-2.1,0.5
		c-0.8,0-1.5-0.2-2.1-0.6s-1.1-0.9-1.5-1.6s-0.5-1.4-0.5-2.3c0-0.8,0.2-1.6,0.5-2.3c0.3-0.7,0.8-1.2,1.5-1.6s1.3-0.6,2.1-0.6
		s1.5,0.2,2.1,0.6s1.1,0.9,1.5,1.6s0.5,1.4,0.5,2.3c0,0.7-0.1,1.3-0.3,1.9C301.5,481.7,301.2,482.2,300.7,482.6 M298.2,481.1
		c0.6,0.2,1.2,0.5,1.6,0.8c0.7-0.6,1-1.5,1-2.7c0-0.7-0.1-1.3-0.4-1.8c-0.2-0.5-0.6-0.9-1-1.2c-0.5-0.3-1-0.4-1.5-0.4
		c-0.9,0-1.6,0.3-2.1,0.9c-0.6,0.6-0.8,1.4-0.8,2.6c0,1.1,0.3,2,0.8,2.6c0.6,0.6,1.2,0.9,2.1,0.9c0.4,0,0.8-0.1,1.2-0.2
		c-0.4-0.2-0.7-0.4-1.1-0.5L298.2,481.1L298.2,481.1z"/>
	<polygon fill="#363639" points="254.1,464.8 254.1,457.2 251.3,457.2 251.3,456.2 258.1,456.2 258.1,457.2 255.3,457.2 
		255.3,464.8 	"/>
</g>
</svg>
