<?xml version="1.0" encoding="utf-8"?>
<!-- Generator: Adobe Illustrator 14.0.0, SVG Export Plug-In . SVG Version: 6.00 Build 43363)  -->

<svg version="1.1" id="Layer_1" xmlns="http://www.w3.org/2000/svg" xmlns:xlink="http://www.w3.org/1999/xlink" x="0px" y="0px"
	 width="322.8px" height="112.3px" viewBox="0 0 322.8 112.3" enable-background="new 0 0 322.8 112.3" xml:space="preserve">
<g>
	<polyline fill="none" stroke="#00A94F" points="14.9,70.9 201,27.5 241.3,54.4 	"/>
	<polygon fill="#0091D4" stroke="#000000" stroke-linecap="round" stroke-linejoin="round" points="252.3,51.8 55.3,97.8 4.3,63.8 
		201.3,17.8 	"/>
	<line fill="none" stroke="#000000" x1="55" y1="107.5" x2="55" y2="97.5"/>
	<line fill="none" stroke="#000000" x1="252" y1="61.5" x2="252" y2="51.5"/>
	<line fill="none" stroke="#000000" x1="4" y1="73.5" x2="4" y2="63.5"/>
	<line fill="none" stroke="#000000" stroke-dasharray="4.32" x1="4" y1="73.5" x2="14.9" y2="70.9"/>
	<polyline fill="none" stroke="#000000" points="252,61.5 55,107.5 4,73.5 	"/>
	<line fill="none" stroke="#000000" stroke-dasharray="4.32" x1="241.3" y1="54.4" x2="252" y2="61.5"/>
	<g>
		<line fill="none" stroke="#000000" x1="226.5" y1="67.701" x2="224" y2="74.6"/>
		<line fill="none" stroke="#000000" x1="231.5" y1="66.5" x2="229" y2="73.4"/>
		<line fill="none" stroke="#000000" x1="236.6" y1="65.3" x2="234.1" y2="72.201"/>
		<line fill="none" stroke="#000000" x1="241.701" y1="64.1" x2="239.201" y2="71"/>
		<line fill="none" stroke="#000000" x1="246.8" y1="62.9" x2="244.3" y2="69.8"/>
		<line fill="none" stroke="#000000" x1="251.8" y1="61.701" x2="249.4" y2="68.6"/>
		<g>
			<line fill="none" stroke="#000000" x1="56.8" y1="106.9" x2="54.3" y2="113.701"/>
			<line fill="none" stroke="#000000" x1="61.9" y1="106.6" x2="59.4" y2="113.5"/>
			<line fill="none" stroke="#000000" x1="67.1" y1="104.4" x2="64.6" y2="112.3"/>
			<line fill="none" stroke="#000000" x1="72.2" y1="104.201" x2="69.7" y2="111.1"/>
			<line fill="none" stroke="#000000" x1="77.4" y1="103" x2="74.9" y2="109.9"/>
			<line fill="none" stroke="#000000" x1="82.5" y1="101.8" x2="80" y2="108.701"/>
			<line fill="none" stroke="#000000" x1="87.6" y1="100.6" x2="85.2" y2="107.4"/>
			<line fill="none" stroke="#000000" x1="92.8" y1="99.3" x2="90.3" y2="106.201"/>
			<line fill="none" stroke="#000000" x1="97.9" y1="98.1" x2="95.4" y2="105"/>
			<line fill="none" stroke="#000000" x1="103.1" y1="96.9" x2="100.6" y2="103.8"/>
			<line fill="none" stroke="#000000" x1="108.2" y1="95.701" x2="105.7" y2="102.6"/>
			<line fill="none" stroke="#000000" x1="113.4" y1="94.5" x2="110.9" y2="101.4"/>
			<line fill="none" stroke="#000000" x1="118.5" y1="93.201" x2="116" y2="100.1"/>
			<line fill="none" stroke="#000000" x1="123.7" y1="92" x2="121.2" y2="98.9"/>
			<line fill="none" stroke="#000000" x1="128.8" y1="90.8" x2="126.3" y2="97.701"/>
			<line fill="none" stroke="#000000" x1="133.9" y1="89.6" x2="131.4" y2="96.5"/>
			<line fill="none" stroke="#000000" x1="139.1" y1="88.4" x2="136.6" y2="95.3"/>
			<line fill="none" stroke="#000000" x1="144.2" y1="87.201" x2="141.7" y2="94.1"/>
			<line fill="none" stroke="#000000" x1="149.4" y1="85.9" x2="146.9" y2="92.8"/>
			<line fill="none" stroke="#000000" x1="154.5" y1="84.701" x2="152" y2="91.6"/>
			<line fill="none" stroke="#000000" x1="159.7" y1="83.5" x2="157.2" y2="90.4"/>
			<line fill="none" stroke="#000000" x1="164.8" y1="82.3" x2="162.3" y2="89.201"/>
			<line fill="none" stroke="#000000" x1="169.9" y1="81.1" x2="167.5" y2="88"/>
			<line fill="none" stroke="#000000" x1="175.1" y1="79.9" x2="172.6" y2="86.8"/>
			<line fill="none" stroke="#000000" x1="180.201" y1="78.6" x2="177.701" y2="85.5"/>
			<line fill="none" stroke="#000000" x1="185.4" y1="77.4" x2="182.9" y2="84.3"/>
			<line fill="none" stroke="#000000" x1="190.5" y1="76.201" x2="188" y2="83.1"/>
			<line fill="none" stroke="#000000" x1="195.701" y1="75" x2="193.201" y2="81.9"/>
			<line fill="none" stroke="#000000" x1="200.8" y1="73.8" x2="198.3" y2="80.701"/>
			<line fill="none" stroke="#000000" x1="206" y1="72.6" x2="203.5" y2="79.4"/>
			<line fill="none" stroke="#000000" x1="211.1" y1="71.3" x2="208.6" y2="78.201"/>
			<line fill="none" stroke="#000000" x1="216.201" y1="70.1" x2="213.701" y2="77"/>
			<line fill="none" stroke="#000000" x1="221.4" y1="68.9" x2="218.9" y2="75.8"/>
		</g>
	</g>
	<g>
		<line fill="none" stroke="#000000" x1="53.1" y1="106.9" x2="48.6" y2="112.3"/>
		<line fill="none" stroke="#000000" x1="5.8" y1="73.9" x2="0.3" y2="78.3"/>
		<line fill="none" stroke="#000000" x1="10.1" y1="76.9" x2="4.6" y2="81.3"/>
		<line fill="none" stroke="#000000" x1="14.5" y1="79.9" x2="9" y2="84.3"/>
		<line fill="none" stroke="#000000" x1="18.8" y1="83" x2="13.3" y2="87.4"/>
		<line fill="none" stroke="#000000" x1="23.1" y1="86" x2="17.6" y2="90.4"/>
		<line fill="none" stroke="#000000" x1="27.5" y1="89" x2="23" y2="93.4"/>
		<line fill="none" stroke="#000000" x1="31.8" y1="92" x2="26.3" y2="96.5"/>
		<line fill="none" stroke="#000000" x1="36.1" y1="95.1" x2="30.6" y2="99.5"/>
		<line fill="none" stroke="#000000" x1="40.5" y1="98.1" x2="35" y2="102.5"/>
		<line fill="none" stroke="#000000" x1="44.8" y1="101.1" x2="39.3" y2="105.5"/>
		<line fill="none" stroke="#000000" x1="49.1" y1="104.201" x2="43.6" y2="108.6"/>
	</g>
</g>
<g>
	<g>
		<g>
			<g>
				<g enable-background="new    ">
					<path d="M242.291,11V3.125h1.568l1.863,5.575c0.172,0.52,0.298,0.908,0.377,1.166c0.089-0.287,0.229-0.708,0.418-1.263
						l1.886-5.479h1.401V11H248.8V4.41L246.512,11h-0.94l-2.277-6.703V11H242.291z"/>
					<path d="M251.002,8.148c0-1.057,0.294-1.839,0.881-2.348c0.491-0.423,1.089-0.634,1.794-0.634c0.784,0,1.426,0.257,1.923,0.771
						s0.747,1.224,0.747,2.13c0,0.734-0.11,1.312-0.331,1.732c-0.22,0.421-0.54,0.747-0.961,0.979
						c-0.421,0.233-0.88,0.35-1.378,0.35c-0.799,0-1.443-0.256-1.937-0.768C251.249,9.848,251.002,9.111,251.002,8.148z
						 M251.996,8.148c0,0.73,0.16,1.277,0.479,1.641s0.72,0.545,1.203,0.545c0.48,0,0.879-0.183,1.197-0.548
						c0.319-0.365,0.479-0.922,0.479-1.671c0-0.705-0.16-1.239-0.48-1.603s-0.719-0.546-1.195-0.546
						c-0.483,0-0.885,0.182-1.203,0.543S251.996,7.417,251.996,8.148z"/>
					<path d="M259.064,11l-2.17-5.704h1.021l1.225,3.416c0.132,0.369,0.254,0.752,0.365,1.149c0.086-0.301,0.205-0.662,0.359-1.085
						l1.268-3.48h0.994L259.966,11H259.064z"/>
					<path d="M262.986,4.238V3.125h0.967v1.112H262.986z M262.986,11V5.295h0.967V11H262.986z"/>
					<path d="M265.423,11V5.295h0.871v0.812c0.418-0.627,1.023-0.94,1.814-0.94c0.344,0,0.66,0.062,0.948,0.186
						c0.288,0.123,0.505,0.285,0.647,0.485c0.143,0.201,0.244,0.439,0.301,0.715c0.035,0.179,0.054,0.492,0.054,0.939V11h-0.967
						V7.53c0-0.394-0.038-0.688-0.112-0.884c-0.076-0.195-0.209-0.351-0.4-0.467s-0.416-0.175-0.674-0.175
						c-0.412,0-0.768,0.131-1.066,0.392c-0.299,0.262-0.449,0.758-0.449,1.488V11H265.423z"/>
					<path d="M271.365,11.472l0.939,0.14c0.039,0.29,0.148,0.501,0.328,0.634c0.239,0.179,0.566,0.269,0.982,0.269
						c0.447,0,0.793-0.09,1.037-0.269c0.243-0.179,0.408-0.43,0.494-0.752c0.05-0.197,0.072-0.61,0.069-1.24
						C274.792,10.75,274.267,11,273.636,11c-0.784,0-1.391-0.283-1.82-0.849s-0.645-1.244-0.645-2.036
						c0-0.544,0.098-1.046,0.295-1.506s0.482-0.815,0.856-1.066s0.813-0.376,1.319-0.376c0.673,0,1.228,0.272,1.664,0.816V5.295
						h0.893v4.931c0,0.888-0.091,1.518-0.271,1.888c-0.182,0.371-0.468,0.663-0.859,0.878c-0.393,0.215-0.875,0.322-1.447,0.322
						c-0.681,0-1.23-0.152-1.649-0.459C271.552,12.549,271.35,12.088,271.365,11.472z M272.165,8.045
						c0,0.748,0.148,1.294,0.446,1.638c0.297,0.344,0.669,0.516,1.117,0.516c0.443,0,0.816-0.171,1.117-0.513
						s0.451-0.878,0.451-1.608c0-0.698-0.155-1.225-0.465-1.579c-0.311-0.354-0.684-0.532-1.12-0.532
						c-0.43,0-0.795,0.175-1.096,0.524C272.315,6.839,272.165,7.358,272.165,8.045z"/>
					<path d="M280.329,9.296l0.956-0.15c0.054,0.384,0.203,0.678,0.448,0.881c0.245,0.205,0.589,0.307,1.028,0.307
						c0.444,0,0.773-0.091,0.988-0.271s0.322-0.393,0.322-0.637c0-0.218-0.094-0.39-0.284-0.516
						c-0.132-0.086-0.462-0.194-0.988-0.327c-0.709-0.179-1.2-0.334-1.475-0.465c-0.273-0.131-0.481-0.312-0.623-0.542
						c-0.142-0.231-0.212-0.486-0.212-0.766c0-0.254,0.059-0.489,0.175-0.706s0.274-0.396,0.476-0.54
						c0.15-0.111,0.355-0.205,0.614-0.282c0.26-0.077,0.538-0.115,0.835-0.115c0.448,0,0.841,0.064,1.18,0.193
						c0.338,0.129,0.588,0.304,0.749,0.523c0.161,0.221,0.272,0.515,0.333,0.884l-0.945,0.129c-0.043-0.294-0.168-0.522-0.373-0.688
						c-0.206-0.165-0.497-0.247-0.873-0.247c-0.443,0-0.761,0.073-0.951,0.22c-0.189,0.147-0.284,0.319-0.284,0.516
						c0,0.126,0.04,0.238,0.118,0.339c0.078,0.104,0.202,0.189,0.371,0.258c0.096,0.036,0.381,0.118,0.854,0.247
						c0.684,0.183,1.161,0.332,1.432,0.448c0.27,0.116,0.482,0.286,0.637,0.508c0.153,0.222,0.23,0.498,0.23,0.827
						c0,0.322-0.094,0.626-0.282,0.91c-0.188,0.285-0.459,0.505-0.813,0.661c-0.354,0.155-0.756,0.233-1.203,0.233
						c-0.741,0-1.307-0.154-1.694-0.462C280.684,10.359,280.436,9.902,280.329,9.296z"/>
					<path d="M288.326,10.134l0.141,0.854c-0.272,0.058-0.516,0.086-0.73,0.086c-0.352,0-0.623-0.056-0.816-0.167
						c-0.193-0.11-0.33-0.257-0.408-0.438c-0.079-0.181-0.119-0.561-0.119-1.141V6.047h-0.709V5.295h0.709V3.882l0.962-0.58v1.993
						h0.972v0.752h-0.972v3.335c0,0.276,0.017,0.453,0.051,0.532s0.09,0.142,0.167,0.188c0.076,0.046,0.188,0.069,0.33,0.069
						C288.009,10.172,288.151,10.16,288.326,10.134z"/>
					<path d="M289.261,11V5.295h0.869V6.16c0.223-0.404,0.428-0.671,0.615-0.8c0.188-0.129,0.395-0.193,0.621-0.193
						c0.325,0,0.656,0.104,0.993,0.312l-0.333,0.896c-0.236-0.139-0.473-0.209-0.709-0.209c-0.211,0-0.4,0.063-0.569,0.19
						s-0.288,0.304-0.36,0.529c-0.107,0.344-0.16,0.72-0.16,1.128V11H289.261z"/>
					<path d="M296.673,11v-0.838c-0.444,0.645-1.048,0.967-1.811,0.967c-0.336,0-0.65-0.064-0.942-0.193s-0.509-0.291-0.65-0.486
						s-0.241-0.434-0.298-0.717c-0.039-0.189-0.059-0.49-0.059-0.902V5.295h0.967v3.163c0,0.506,0.02,0.846,0.059,1.021
						c0.061,0.254,0.189,0.453,0.387,0.599c0.197,0.145,0.44,0.218,0.73,0.218s0.563-0.075,0.816-0.224s0.434-0.351,0.54-0.606
						c0.105-0.256,0.158-0.628,0.158-1.115V5.295h0.967V11H296.673z"/>
					<path d="M302.775,8.91l0.95,0.124c-0.104,0.655-0.37,1.168-0.798,1.539c-0.428,0.37-0.953,0.556-1.576,0.556
						c-0.781,0-1.408-0.255-1.883-0.766c-0.475-0.51-0.711-1.241-0.711-2.193c0-0.616,0.102-1.155,0.306-1.617
						s0.515-0.809,0.932-1.039c0.417-0.231,0.871-0.347,1.362-0.347c0.619,0,1.125,0.156,1.52,0.47s0.646,0.759,0.758,1.335
						l-0.94,0.146c-0.089-0.384-0.248-0.672-0.476-0.865c-0.227-0.193-0.502-0.29-0.824-0.29c-0.486,0-0.883,0.175-1.188,0.523
						c-0.304,0.35-0.456,0.901-0.456,1.657c0,0.767,0.147,1.323,0.44,1.67c0.293,0.348,0.677,0.521,1.149,0.521
						c0.38,0,0.696-0.116,0.95-0.35C302.545,9.751,302.707,9.394,302.775,8.91z"/>
					<path d="M306.664,10.134l0.139,0.854c-0.271,0.058-0.516,0.086-0.73,0.086c-0.351,0-0.623-0.056-0.816-0.167
						c-0.193-0.11-0.329-0.257-0.408-0.438c-0.078-0.181-0.117-0.561-0.117-1.141V6.047h-0.709V5.295h0.709V3.882l0.961-0.58v1.993
						h0.973v0.752h-0.973v3.335c0,0.276,0.018,0.453,0.051,0.532c0.034,0.079,0.09,0.142,0.167,0.188
						c0.077,0.046,0.187,0.069,0.33,0.069C306.346,10.172,306.488,10.16,306.664,10.134z"/>
					<path d="M311.347,11v-0.838c-0.444,0.645-1.048,0.967-1.811,0.967c-0.336,0-0.65-0.064-0.942-0.193s-0.509-0.291-0.65-0.486
						s-0.241-0.434-0.298-0.717c-0.039-0.189-0.059-0.49-0.059-0.902V5.295h0.967v3.163c0,0.506,0.02,0.846,0.059,1.021
						c0.061,0.254,0.189,0.453,0.387,0.599c0.197,0.145,0.44,0.218,0.73,0.218s0.563-0.075,0.816-0.224s0.434-0.351,0.54-0.606
						c0.105-0.256,0.158-0.628,0.158-1.115V5.295h0.967V11H311.347z"/>
					<path d="M313.715,11V5.295h0.87V6.16c0.223-0.404,0.427-0.671,0.615-0.8c0.188-0.129,0.395-0.193,0.62-0.193
						c0.325,0,0.657,0.104,0.993,0.312l-0.332,0.896c-0.236-0.139-0.473-0.209-0.709-0.209c-0.212,0-0.401,0.063-0.57,0.19
						c-0.168,0.127-0.287,0.304-0.359,0.529c-0.107,0.344-0.161,0.72-0.161,1.128V11H313.715z"/>
					<path d="M321.294,9.163l0.998,0.124c-0.157,0.583-0.449,1.036-0.875,1.358s-0.971,0.483-1.633,0.483
						c-0.834,0-1.496-0.257-1.984-0.771c-0.489-0.514-0.733-1.234-0.733-2.162c0-0.96,0.247-1.704,0.741-2.234
						s1.135-0.795,1.923-0.795c0.763,0,1.386,0.26,1.869,0.778c0.483,0.52,0.726,1.25,0.726,2.191c0,0.058-0.002,0.144-0.006,0.258
						h-4.254c0.035,0.627,0.213,1.107,0.531,1.439c0.319,0.334,0.717,0.5,1.193,0.5c0.354,0,0.656-0.093,0.907-0.279
						S321.147,9.571,321.294,9.163z M318.12,7.599h3.185c-0.043-0.479-0.164-0.839-0.365-1.079
						c-0.308-0.372-0.707-0.559-1.197-0.559c-0.443,0-0.817,0.148-1.12,0.446C318.32,6.705,318.152,7.102,318.12,7.599z"/>
				</g>
			</g>
		</g>
	</g>
</g>
<g>
	<g>
		<g>
			<g>
				<g enable-background="new    ">
					<path d="M248.326,86.166V79.22h-2.594v-0.929h6.241v0.929h-2.604v6.945H248.326z"/>
					<path d="M252.918,86.166v-7.874h0.967v2.825c0.451-0.522,1.021-0.784,1.708-0.784c0.422,0,0.789,0.083,1.102,0.25
						c0.311,0.166,0.534,0.396,0.668,0.69c0.135,0.293,0.201,0.719,0.201,1.277v3.615h-0.967V82.55c0-0.482-0.104-0.835-0.313-1.055
						c-0.21-0.221-0.506-0.33-0.89-0.33c-0.286,0-0.556,0.074-0.808,0.223c-0.253,0.148-0.433,0.35-0.54,0.604
						c-0.107,0.255-0.161,0.605-0.161,1.053v3.121H252.918z"/>
					<path d="M259.042,79.404v-1.112h0.967v1.112H259.042z M259.042,86.166v-5.704h0.967v5.704H259.042z"/>
					<path d="M261.48,86.166v-5.704h0.87v0.812c0.419-0.627,1.024-0.94,1.815-0.94c0.344,0,0.66,0.062,0.948,0.186
						c0.288,0.123,0.504,0.285,0.647,0.485c0.143,0.201,0.243,0.439,0.301,0.715c0.035,0.179,0.053,0.492,0.053,0.939v3.508h-0.967
						v-3.47c0-0.394-0.037-0.688-0.112-0.884s-0.208-0.351-0.4-0.467c-0.191-0.116-0.416-0.175-0.674-0.175
						c-0.411,0-0.767,0.131-1.066,0.392c-0.299,0.262-0.448,0.758-0.448,1.488v3.115H261.48z"/>
					<path d="M267.222,83.802V82.83h2.97v0.973H267.222z"/>
					<path d="M271.492,86.166v-4.952h-0.854v-0.752h0.854v-0.606c0-0.384,0.034-0.668,0.102-0.854
						c0.094-0.251,0.258-0.454,0.492-0.609c0.234-0.156,0.563-0.233,0.985-0.233c0.272,0,0.573,0.031,0.902,0.096l-0.146,0.844
						c-0.2-0.036-0.39-0.054-0.568-0.054c-0.294,0-0.502,0.063-0.623,0.188c-0.122,0.125-0.184,0.359-0.184,0.703v0.526h1.112v0.752
						h-1.112v4.952H271.492z"/>
					<path d="M274.322,79.404v-1.112h0.967v1.112H274.322z M274.322,86.166v-5.704h0.967v5.704H274.322z"/>
					<path d="M276.74,86.166v-7.874h0.967v7.874H276.74z"/>
					<path d="M279.205,86.166v-5.704h0.865v0.8c0.179-0.279,0.416-0.504,0.714-0.674s0.636-0.255,1.015-0.255
						c0.423,0,0.77,0.088,1.04,0.263c0.271,0.176,0.461,0.421,0.571,0.736c0.451-0.666,1.039-0.999,1.762-0.999
						c0.566,0,1.002,0.156,1.306,0.47s0.456,0.796,0.456,1.447v3.916h-0.961v-3.594c0-0.387-0.031-0.665-0.094-0.835
						s-0.177-0.307-0.342-0.411c-0.164-0.104-0.357-0.155-0.58-0.155c-0.4,0-0.733,0.134-0.998,0.4
						c-0.266,0.267-0.398,0.693-0.398,1.28v3.314h-0.967v-3.706c0-0.43-0.078-0.752-0.236-0.967
						c-0.157-0.215-0.415-0.322-0.773-0.322c-0.271,0-0.523,0.071-0.754,0.215c-0.231,0.144-0.398,0.353-0.502,0.628
						c-0.104,0.276-0.156,0.674-0.156,1.193v2.959H279.205z"/>
				</g>
			</g>
		</g>
	</g>
</g>
<g>
	<g>
		<g>
			<g>
				<g enable-background="new    ">
					<path d="M221.376,100v-7.874h5.313v0.929h-4.271v2.439h3.695v0.929h-3.695V100H221.376z"/>
					<path d="M227.923,93.238v-1.112h0.967v1.112H227.923z M227.923,100v-5.704h0.967V100H227.923z"/>
					<path d="M229.718,100l2.084-2.965l-1.929-2.739h1.208l0.876,1.337c0.165,0.255,0.298,0.468,0.397,0.64
						c0.158-0.236,0.303-0.446,0.436-0.628l0.961-1.349h1.154l-1.971,2.686l2.121,3.019h-1.187l-1.171-1.772l-0.312-0.478
						l-1.499,2.25H229.718z"/>
					<path d="M239.767,98.163l0.999,0.124c-0.157,0.583-0.449,1.036-0.876,1.358c-0.426,0.322-0.97,0.483-1.633,0.483
						c-0.834,0-1.495-0.257-1.984-0.771c-0.488-0.514-0.732-1.234-0.732-2.162c0-0.96,0.246-1.704,0.74-2.234
						s1.136-0.795,1.924-0.795c0.762,0,1.385,0.26,1.869,0.778c0.482,0.52,0.725,1.25,0.725,2.191c0,0.058-0.002,0.144-0.006,0.258
						h-4.254c0.036,0.627,0.213,1.107,0.532,1.439c0.319,0.334,0.716,0.5,1.192,0.5c0.354,0,0.657-0.093,0.908-0.279
						C239.421,98.868,239.621,98.571,239.767,98.163z M236.593,96.599h3.185c-0.043-0.479-0.165-0.839-0.365-1.079
						c-0.308-0.372-0.707-0.559-1.198-0.559c-0.443,0-0.816,0.148-1.119,0.446C236.792,95.705,236.625,96.102,236.593,96.599z"/>
					<path d="M245.681,100v-0.72c-0.362,0.565-0.895,0.849-1.596,0.849c-0.455,0-0.873-0.125-1.254-0.376
						c-0.382-0.251-0.677-0.601-0.887-1.05c-0.209-0.449-0.314-0.966-0.314-1.55c0-0.569,0.096-1.086,0.285-1.55
						s0.475-0.818,0.854-1.066c0.38-0.246,0.805-0.37,1.273-0.37c0.344,0,0.65,0.072,0.918,0.218
						c0.27,0.145,0.487,0.334,0.656,0.566v-2.825h0.961V100H245.681z M242.625,97.153c0,0.73,0.154,1.276,0.462,1.638
						c0.308,0.362,0.671,0.543,1.091,0.543c0.422,0,0.781-0.173,1.076-0.519c0.296-0.346,0.443-0.872,0.443-1.581
						c0-0.781-0.15-1.354-0.451-1.719s-0.672-0.549-1.111-0.549c-0.43,0-0.789,0.176-1.077,0.527
						C242.769,95.844,242.625,96.397,242.625,97.153z"/>
					<path d="M250.767,98.296l0.956-0.15c0.054,0.384,0.203,0.678,0.448,0.881c0.246,0.205,0.588,0.307,1.029,0.307
						c0.443,0,0.773-0.091,0.988-0.271s0.322-0.393,0.322-0.637c0-0.218-0.096-0.39-0.285-0.516
						c-0.133-0.086-0.462-0.194-0.988-0.327c-0.709-0.179-1.2-0.334-1.475-0.465c-0.273-0.131-0.481-0.312-0.623-0.542
						c-0.141-0.231-0.212-0.486-0.212-0.766c0-0.254,0.058-0.489,0.175-0.706c0.116-0.217,0.274-0.396,0.475-0.54
						c0.15-0.111,0.355-0.205,0.615-0.282s0.538-0.115,0.836-0.115c0.447,0,0.84,0.064,1.179,0.193
						c0.338,0.129,0.588,0.304,0.749,0.523c0.161,0.221,0.271,0.515,0.333,0.884l-0.945,0.129c-0.043-0.294-0.167-0.522-0.373-0.688
						s-0.497-0.247-0.873-0.247c-0.444,0-0.761,0.073-0.95,0.22c-0.19,0.147-0.285,0.319-0.285,0.516
						c0,0.126,0.039,0.238,0.118,0.339c0.079,0.104,0.202,0.189,0.37,0.258c0.098,0.036,0.382,0.118,0.854,0.247
						c0.685,0.183,1.161,0.332,1.432,0.448s0.482,0.286,0.636,0.508c0.154,0.222,0.231,0.498,0.231,0.827
						c0,0.322-0.094,0.626-0.282,0.91c-0.188,0.285-0.459,0.505-0.813,0.661c-0.354,0.155-0.755,0.233-1.203,0.233
						c-0.741,0-1.306-0.154-1.694-0.462S250.875,98.902,250.767,98.296z"/>
					<path d="M260.392,100v-0.838c-0.443,0.645-1.047,0.967-1.811,0.967c-0.336,0-0.65-0.064-0.942-0.193s-0.509-0.291-0.649-0.486
						c-0.142-0.195-0.241-0.434-0.299-0.717c-0.039-0.189-0.059-0.49-0.059-0.902v-3.534h0.967v3.163
						c0,0.506,0.02,0.846,0.059,1.021c0.062,0.254,0.19,0.453,0.387,0.599c0.197,0.145,0.441,0.218,0.73,0.218
						c0.291,0,0.563-0.075,0.816-0.224c0.255-0.148,0.435-0.351,0.54-0.606c0.106-0.256,0.159-0.628,0.159-1.115v-3.056h0.967V100
						H260.392z"/>
					<path d="M262.761,100v-5.704h0.869v0.864c0.223-0.404,0.428-0.671,0.615-0.8c0.188-0.129,0.395-0.193,0.621-0.193
						c0.325,0,0.656,0.104,0.993,0.312l-0.333,0.896c-0.236-0.139-0.473-0.209-0.709-0.209c-0.211,0-0.4,0.063-0.569,0.19
						s-0.288,0.304-0.36,0.529c-0.107,0.344-0.16,0.72-0.16,1.128V100H262.761z"/>
					<path d="M266.666,100v-4.952h-0.854v-0.752h0.854v-0.606c0-0.384,0.034-0.668,0.102-0.854c0.094-0.251,0.258-0.454,0.492-0.609
						c0.234-0.156,0.563-0.233,0.985-0.233c0.272,0,0.573,0.031,0.902,0.096l-0.146,0.844c-0.2-0.036-0.39-0.054-0.568-0.054
						c-0.294,0-0.502,0.063-0.623,0.188c-0.122,0.125-0.184,0.359-0.184,0.703v0.526h1.112v0.752h-1.112V100H266.666z"/>
					<path d="M273.212,99.296c-0.357,0.304-0.702,0.519-1.033,0.645c-0.332,0.125-0.688,0.188-1.066,0.188
						c-0.627,0-1.108-0.153-1.445-0.459c-0.336-0.307-0.504-0.697-0.504-1.174c0-0.279,0.063-0.534,0.19-0.766
						c0.127-0.23,0.294-0.416,0.499-0.556c0.206-0.14,0.438-0.245,0.695-0.317c0.19-0.05,0.477-0.098,0.859-0.145
						c0.781-0.093,1.355-0.204,1.725-0.333c0.004-0.133,0.006-0.217,0.006-0.253c0-0.394-0.092-0.671-0.274-0.832
						c-0.247-0.219-0.614-0.328-1.101-0.328c-0.455,0-0.791,0.08-1.008,0.239s-0.377,0.441-0.48,0.847l-0.945-0.129
						c0.086-0.405,0.228-0.731,0.424-0.98c0.197-0.249,0.482-0.44,0.854-0.575c0.372-0.134,0.804-0.201,1.294-0.201
						c0.487,0,0.883,0.058,1.188,0.172s0.528,0.259,0.672,0.433c0.143,0.174,0.243,0.393,0.301,0.658
						c0.031,0.164,0.048,0.461,0.048,0.891v1.289c0,0.899,0.021,1.468,0.062,1.706s0.123,0.466,0.244,0.685h-1.01
						C273.306,99.799,273.242,99.564,273.212,99.296z M273.132,97.136c-0.352,0.144-0.877,0.266-1.579,0.365
						c-0.397,0.058-0.679,0.122-0.843,0.193c-0.165,0.072-0.293,0.177-0.382,0.314s-0.134,0.291-0.134,0.459
						c0,0.258,0.098,0.473,0.292,0.645c0.195,0.172,0.481,0.258,0.856,0.258c0.373,0,0.704-0.081,0.994-0.244
						s0.503-0.386,0.639-0.668c0.104-0.219,0.156-0.541,0.156-0.967V97.136z"/>
					<path d="M279.331,97.91l0.95,0.124c-0.104,0.655-0.369,1.168-0.797,1.539c-0.428,0.37-0.953,0.556-1.576,0.556
						c-0.781,0-1.408-0.255-1.883-0.766c-0.475-0.51-0.712-1.241-0.712-2.193c0-0.616,0.103-1.155,0.306-1.617
						c0.205-0.462,0.516-0.809,0.933-1.039c0.417-0.231,0.87-0.347,1.361-0.347c0.62,0,1.126,0.156,1.521,0.47
						c0.394,0.313,0.646,0.759,0.757,1.335l-0.94,0.146c-0.089-0.384-0.248-0.672-0.475-0.865c-0.228-0.193-0.502-0.29-0.824-0.29
						c-0.487,0-0.883,0.175-1.188,0.523c-0.305,0.35-0.457,0.901-0.457,1.657c0,0.767,0.147,1.323,0.441,1.67
						c0.293,0.348,0.676,0.521,1.148,0.521c0.38,0,0.697-0.116,0.951-0.35C279.101,98.751,279.263,98.394,279.331,97.91z"/>
					<path d="M285.013,98.163l0.999,0.124c-0.157,0.583-0.449,1.036-0.876,1.358c-0.426,0.322-0.97,0.483-1.633,0.483
						c-0.834,0-1.495-0.257-1.984-0.771c-0.488-0.514-0.732-1.234-0.732-2.162c0-0.96,0.246-1.704,0.74-2.234
						s1.136-0.795,1.924-0.795c0.762,0,1.385,0.26,1.869,0.778c0.482,0.52,0.725,1.25,0.725,2.191c0,0.058-0.002,0.144-0.006,0.258
						h-4.254c0.036,0.627,0.213,1.107,0.532,1.439c0.319,0.334,0.716,0.5,1.192,0.5c0.354,0,0.657-0.093,0.908-0.279
						C284.667,98.868,284.867,98.571,285.013,98.163z M281.839,96.599h3.185c-0.043-0.479-0.165-0.839-0.365-1.079
						c-0.308-0.372-0.707-0.559-1.198-0.559c-0.443,0-0.816,0.148-1.119,0.446C282.039,95.705,281.871,96.102,281.839,96.599z"/>
				</g>
			</g>
		</g>
	</g>
</g>
<g>
	<g>
		<polygon fill="#FFFFFF" points="208.8,24.2 204.5,31.5 211.8,27.3 		"/>
	</g>
	<g>
		<polyline fill="none" stroke="#000000" points="238.5,7.5 228.5,7.5 209.201,26.8 		"/>
		<polygon points="208.8,24.2 204.5,31.5 211.8,27.3 		"/>
	</g>
</g>
<g>
	<g>
		<polygon fill="#FFFFFF" points="202.8,86 196,81.1 199.5,88.8 		"/>
	</g>
	<g>
		<polyline fill="none" stroke="#000000" points="217.5,97 209,97 200.201,86.3 		"/>
		<polygon points="202.8,86 196,81.1 199.5,88.8 		"/>
	</g>
</g>
<g>
	<g>
		<polygon fill="#FFFFFF" points="228.3,67.9 221.8,62.6 224.8,70.5 		"/>
	</g>
	<g>
		<polyline fill="none" stroke="#000000" points="244,82.8 236.5,82.8 225.701,68 		"/>
		<polygon points="228.3,67.9 221.8,62.6 224.8,70.5 		"/>
	</g>
</g>
<line fill="none" stroke="#000000" x1="255.201" y1="60.4" x2="262.201" y2="58.9"/>
<line fill="none" stroke="#000000" x1="254.201" y1="52" x2="261.201" y2="50.5"/>
<g>
	<g>
		<polygon fill="#FFFFFF" points="255.8,42.1 257.9,50.2 260.1,42.1 		"/>
	</g>
	<g>
		<line fill="none" stroke="#000000" x1="257.9" y1="39.9" x2="257.9" y2="43.6"/>
		<polygon points="255.8,42.1 257.9,50.2 260.1,42.1 		"/>
	</g>
</g>
<g>
	<g>
		<polygon fill="#FFFFFF" points="260.1,68.4 257.9,60.3 255.701,68.4 		"/>
	</g>
	<g>
		<line fill="none" stroke="#000000" x1="257.9" y1="70.6" x2="257.9" y2="66.9"/>
		<polygon points="260.1,68.4 257.9,60.3 255.701,68.4 		"/>
	</g>
</g>
<g>
	<g>
		<g>
			<g>
				<g enable-background="new    ">
					<path d="M265.847,56.675v-0.72c-0.361,0.565-0.894,0.849-1.596,0.849c-0.454,0-0.872-0.125-1.254-0.376
						c-0.381-0.251-0.677-0.601-0.886-1.05c-0.21-0.449-0.314-0.966-0.314-1.55c0-0.569,0.095-1.086,0.284-1.55
						c0.19-0.464,0.475-0.818,0.854-1.066c0.38-0.246,0.804-0.37,1.272-0.37c0.344,0,0.65,0.072,0.919,0.218
						c0.269,0.145,0.487,0.334,0.655,0.566v-2.825h0.961v7.874H265.847z M262.791,53.829c0,0.73,0.154,1.276,0.463,1.638
						c0.308,0.362,0.671,0.543,1.09,0.543c0.422,0,0.781-0.173,1.077-0.519c0.295-0.346,0.442-0.872,0.442-1.581
						c0-0.781-0.15-1.354-0.451-1.719s-0.671-0.549-1.111-0.549c-0.43,0-0.789,0.176-1.077,0.527
						C262.935,52.52,262.791,53.073,262.791,53.829z"/>
				</g>
			</g>
		</g>
	</g>
</g>
</svg>
