<?xml version="1.0" encoding="utf-8"?>
<!-- Generator: Adobe Illustrator 14.0.0, SVG Export Plug-In . SVG Version: 6.00 Build 43363)  -->

<svg version="1.1" id="Layer_1" xmlns="http://www.w3.org/2000/svg" xmlns:xlink="http://www.w3.org/1999/xlink" x="0px" y="0px"
	 width="314px" height="207px" viewBox="0 0 314 207" enable-background="new 0 0 314 207" xml:space="preserve">
<g>
	<rect x="1" fill="#FFFFFF" width="314" height="207"/>
	<path fill="none" stroke="#000000" stroke-miterlimit="10" d="M11,179.7h273.7 M150.7,176.1v7"/>
	<path fill="#E2DDDB" stroke="#000000" stroke-miterlimit="10" d="M11,179.4c40.6-15.7,45.4-14.7,67.9-34.5
		C108.2,119.1,110.6,9,150.2,8.8c38.2-0.2,44,105.2,70.2,130.7c27.1,26.4,25.399,20.1,63.6,39.9"/>
	<path fill="#363639" d="M290.1,182.8V177.4H289.2V176.6h0.899V175.9c0-0.4,0-0.7,0.101-0.9c0.1-0.3,0.3-0.5,0.5-0.7
		c0.3-0.2,0.6-0.3,1.1-0.3c0.3,0,0.601,0,1,0.1l-0.2,0.9c-0.199,0-0.399,0-0.6,0c-0.3,0-0.6,0.1-0.7,0.2c-0.1,0.1-0.2,0.399-0.2,0.8
		v0.6h1.2v0.801h-1.2v5.399H290.1L290.1,182.8z"/>
	<path fill="#363639" d="M295.2,185.3c-0.601-0.7-1.101-1.6-1.5-2.6c-0.4-1-0.601-2-0.601-3.101c0-0.899,0.101-1.8,0.4-2.699
		c0.3-1,0.9-2,1.6-3h0.801c-0.5,0.8-0.801,1.399-0.9,1.699c-0.2,0.5-0.4,1.101-0.6,1.7c-0.2,0.7-0.301,1.5-0.301,2.2
		c0,1.9,0.601,3.7,1.801,5.6h-0.7V185.3L295.2,185.3z"/>
	<path fill="#363639" d="M296.4,182.8l2.3-3.2l-2.101-3h1.301l1,1.5c0.199,0.301,0.3,0.5,0.399,0.7c0.2-0.3,0.3-0.5,0.5-0.7l1-1.5
		h1.3l-2.1,2.9l2.3,3.3H301l-1.3-1.899l-0.3-0.5l-1.601,2.5L296.4,182.8L296.4,182.8z"/>
	<path fill="#363639" d="M303.5,185.3h-0.8c1.2-1.899,1.8-3.7,1.8-5.6c0-0.7-0.1-1.5-0.3-2.2c-0.101-0.6-0.3-1.1-0.601-1.7
		c-0.199-0.3-0.5-0.899-0.899-1.8h0.8c0.7,1,1.3,2,1.6,3c0.301,0.9,0.5,1.8,0.5,2.7c0,1.1-0.199,2.1-0.6,3.1
		C304.5,183.7,304.1,184.6,303.5,185.3L303.5,185.3z"/>
	<path fill="#363639" d="M153,189v3.5c0,0.5,0,0.8,0.1,1c0,0.1,0.101,0.2,0.2,0.3c0.101,0.101,0.101,0.101,0.2,0.101
		s0.2,0,0.3-0.101c0.101-0.1,0.101-0.3,0.2-0.6h0.2c-0.101,0.5-0.2,0.899-0.4,1.1s-0.399,0.3-0.7,0.3c-0.3,0-0.5-0.1-0.699-0.3
		c-0.2-0.2-0.301-0.5-0.301-0.899c-0.399,0.399-0.8,0.8-1.1,0.899c-0.3,0.101-0.7,0.3-0.9,0.3c-0.199,0-0.3,0-0.5-0.1
		c-0.199-0.1-0.3-0.2-0.5-0.3c0,0.6,0,1,0.2,1.5c0.101,0.3,0.101,0.5,0.101,0.6c0,0.2-0.101,0.4-0.2,0.5
		c-0.101,0.101-0.2,0.2-0.4,0.2c-0.1,0-0.3-0.1-0.3-0.2c-0.1-0.1-0.2-0.3-0.2-0.6c0-0.101,0-0.3,0.101-0.4
		c0.1-0.399,0.199-0.7,0.199-1c0-0.5,0.101-0.899,0.101-1.2V189h1v3.4c0,0.399,0,0.699,0.101,0.899c0.1,0.2,0.199,0.3,0.299,0.4
		c0.201,0.1,0.301,0.2,0.5,0.2c0.201,0,0.4-0.101,0.701-0.2c0.299-0.101,0.6-0.3,0.799-0.601v-4L153,189L153,189z"/>
</g>
</svg>
