<?xml version="1.0" encoding="utf-8"?>
<!-- Generator: Adobe Illustrator 14.0.0, SVG Export Plug-In . SVG Version: 6.00 Build 43363)  -->

<svg version="1.1" id="Layer_1" xmlns="http://www.w3.org/2000/svg" xmlns:xlink="http://www.w3.org/1999/xlink" x="0px" y="0px"
	 width="426px" height="162px" viewBox="0 0 426 162" enable-background="new 0 0 426 162" xml:space="preserve">
<g>
	<rect x="-1.1" fill="#FFFFFF" width="426" height="162"/>
	<path fill="#363639" stroke="#000000" stroke-miterlimit="10" d="M309,64.5L309,64.5c0,1.8-1.199,3.3-2.801,3.3
		c-1.5,0-2.799-1.5-2.799-3.3s1.199-3.3,2.799-3.3C307.699,61.2,309,62.7,309,64.5L309,64.5z"/>
	<path fill="#363639" stroke="#000000" stroke-miterlimit="10" d="M348.199,65L348.199,65c0,1.8-1.199,3.3-2.799,3.3
		c-1.5,0-2.801-1.5-2.801-3.3s1.201-3.3,2.801-3.3C347,61.6,348.199,63.1,348.199,65L348.199,65z"/>
	<path fill="#363639" stroke="#000000" stroke-miterlimit="10" d="M253.1,103.8L253.1,103.8c0,1.8-1.199,3.3-2.799,3.3
		c-1.5,0-2.801-1.5-2.801-3.3s1.199-3.3,2.801-3.3C251.801,100.5,253.1,102,253.1,103.8L253.1,103.8z"/>
	<path fill="none" stroke="#000000" stroke-miterlimit="10" d="M252.199,103.5L305.4,65.2h39.5 M336.301,141.3
		C330.6,114.4,327.1,100.1,323.1,102.4c-2.4,1.399-0.9,13.5-4,14.899c-4,1.7-7.4-8.3-12.6-32"/>
	<polygon points="306.6,85.2 307.1,85.1 311.801,93.2 306,94.7 306.1,85.4 	"/>
	<path fill="none" stroke="#000000" stroke-width="0.75" stroke-miterlimit="10" d="M292.301,77.6c3.398,1.7,7.1,2.5,10.898,2.5
		c4.4,0,8.801-1.199,12.602-3.5"/>
	<polygon points="292.301,77.6 292.4,77.3 299.4,77.7 298,81.9 292.199,78 	"/>
	<path fill="none" stroke="#000000" stroke-miterlimit="10" d="M391.699,89.7c-17.1-17.5-40.6-27.4-65.1-27.4
		c-36.199,0-68.9,21.4-83.4,54.601 M245.4,97.8l-20.6-28.6"/>
	<polygon points="224.801,69.2 225.199,68.9 232.5,74.8 227.6,78.3 224.4,69.5 	"/>
	<line fill="none" stroke="#000000" stroke-miterlimit="10" x1="304.301" y1="58.4" x2="290.6" y2="9.2"/>
	<polygon points="290.6,9.2 291.1,9 295.9,17 290.1,18.6 290.1,9.3 	"/>
	<line fill="none" stroke="#000000" stroke-miterlimit="10" x1="347.199" y1="59.5" x2="350.1" y2="31.5"/>
	<polygon points="350.1,31.5 350.6,31.5 352.1,40.7 346.199,40.1 349.6,31.4 	"/>
	<path fill="#363639" d="M339.199,136.8v-6.2h0.9v0.9c0.5-0.7,1.1-1,2-1c0.4,0,0.701,0.1,1,0.2c0.301,0.1,0.6,0.3,0.701,0.5
		c0.199,0.2,0.299,0.5,0.299,0.8c0,0.2,0.1,0.5,0.1,1v3.8h-1.1V133c0-0.4,0-0.7-0.1-1c-0.1-0.2-0.199-0.4-0.4-0.5
		c-0.199-0.1-0.5-0.2-0.699-0.2c-0.5,0-0.9,0.101-1.201,0.4c-0.299,0.3-0.5,0.8-0.5,1.6v3.4h-1V136.8L339.199,136.8z"/>
	<path fill="#363639" d="M349.9,134.8l1.1,0.101c-0.199,0.6-0.5,1.1-1,1.5c-0.5,0.3-1.1,0.5-1.801,0.5
		c-0.898,0-1.6-0.301-2.199-0.801c-0.5-0.6-0.801-1.3-0.801-2.399c0-1,0.301-1.9,0.801-2.4c0.5-0.6,1.199-0.899,2.1-0.899
		c0.801,0,1.5,0.3,2,0.899c0.5,0.601,0.801,1.4,0.801,2.4c0,0.1,0,0.2,0,0.3h-4.6c0,0.7,0.199,1.2,0.6,1.6
		c0.299,0.4,0.799,0.5,1.299,0.5c0.4,0,0.701-0.1,1-0.3C349.5,135.5,349.699,135.2,349.9,134.8 M346.4,133.1h3.5
		c0-0.5-0.201-0.899-0.4-1.199c-0.301-0.4-0.801-0.601-1.301-0.601s-0.898,0.2-1.199,0.5S346.5,132.5,346.4,133.1L346.4,133.1z"/>
	<path fill="#363639" d="M354.699,135.8l0.201,0.9c-0.301,0-0.6,0.1-0.801,0.1c-0.4,0-0.699-0.1-0.9-0.2
		c-0.199-0.1-0.398-0.3-0.398-0.5c-0.102-0.199-0.102-0.6-0.102-1.199V131.3H351.9v-0.8h0.799V129l1-0.6v2.199h1.102v0.801h-1.102
		v3.6c0,0.3,0,0.5,0.102,0.6c0,0.101,0.1,0.2,0.199,0.2s0.199,0.101,0.4,0.101C354.301,135.9,354.5,135.8,354.699,135.8
		L354.699,135.8z"/>
	<path fill="#363639" d="M363.4,134.8l1.1,0.101c-0.199,0.6-0.5,1.1-1,1.5c-0.5,0.3-1.1,0.5-1.801,0.5
		c-0.898,0-1.6-0.301-2.199-0.801c-0.5-0.6-0.801-1.3-0.801-2.399c0-1,0.301-1.9,0.801-2.4c0.5-0.6,1.199-0.899,2.1-0.899
		c0.801,0,1.5,0.3,2,0.899c0.5,0.601,0.801,1.4,0.801,2.4c0,0.1,0,0.2,0,0.3h-4.6c0,0.7,0.199,1.2,0.6,1.6
		c0.299,0.4,0.799,0.5,1.299,0.5c0.4,0,0.701-0.1,1-0.3C363,135.5,363.199,135.2,363.4,134.8 M359.9,133.1h3.5
		c0-0.5-0.201-0.899-0.4-1.199c-0.301-0.4-0.801-0.601-1.301-0.601s-0.898,0.2-1.199,0.5C360.1,132.1,359.9,132.5,359.9,133.1
		L359.9,133.1z"/>
	<path fill="#363639" d="M365.801,136.8v-6.2h0.898v0.9c0.201-0.4,0.5-0.7,0.701-0.9c0.199-0.1,0.4-0.199,0.699-0.199
		c0.4,0,0.701,0.1,1.1,0.3l-0.398,1c-0.301-0.101-0.5-0.2-0.801-0.2c-0.199,0-0.4,0.1-0.6,0.2c-0.201,0.1-0.301,0.3-0.4,0.6
		c-0.1,0.4-0.199,0.8-0.199,1.2v3.3H365.801L365.801,136.8z"/>
	<path fill="#363639" d="M369.9,136.8v-6.2h0.9v0.9c0.199-0.4,0.5-0.7,0.699-0.9c0.199-0.1,0.4-0.199,0.699-0.199
		c0.4,0,0.701,0.1,1.102,0.3l-0.4,1c-0.301-0.101-0.5-0.2-0.801-0.2c-0.199,0-0.4,0.1-0.6,0.2c-0.199,0.1-0.301,0.3-0.4,0.6
		c-0.1,0.4-0.199,0.8-0.199,1.2v3.3H369.9L369.9,136.8z"/>
	<path fill="#363639" d="M373.301,133.7c0-1.2,0.299-2,1-2.601c0.5-0.5,1.199-0.699,2-0.699c0.898,0,1.5,0.3,2.1,0.8
		c0.5,0.6,0.799,1.3,0.799,2.3c0,0.8-0.1,1.4-0.398,1.9c-0.301,0.5-0.602,0.8-1.102,1.1c-0.5,0.2-1,0.4-1.5,0.4
		c-0.898,0-1.6-0.301-2.1-0.801C373.6,135.5,373.301,134.7,373.301,133.7 M374.4,133.7c0,0.8,0.199,1.399,0.5,1.8
		c0.299,0.4,0.799,0.6,1.299,0.6s1-0.199,1.301-0.6s0.5-1,0.5-1.8s-0.199-1.3-0.5-1.8c-0.4-0.4-0.801-0.601-1.301-0.601
		s-1,0.2-1.299,0.601C374.6,132.3,374.4,132.9,374.4,133.7L374.4,133.7z"/>
	<path fill="#363639" d="M380.5,136.8v-6.2h0.9v0.9c0.5-0.7,1.1-1,2-1c0.4,0,0.699,0.1,1,0.2c0.299,0.1,0.6,0.3,0.699,0.5
		c0.201,0.2,0.301,0.5,0.301,0.8c0,0.2,0.1,0.5,0.1,1v3.8h-1.1V133c0-0.4,0-0.7-0.1-1c-0.102-0.2-0.201-0.4-0.4-0.5
		c-0.201-0.1-0.5-0.2-0.701-0.2c-0.5,0-0.898,0.101-1.199,0.4s-0.5,0.8-0.5,1.6v3.4h-1V136.8z"/>
	<path fill="#363639" d="M391.4,134.8l1.1,0.101c-0.199,0.6-0.5,1.1-1,1.5c-0.5,0.3-1.1,0.5-1.801,0.5
		c-0.898,0-1.6-0.301-2.199-0.801s-0.801-1.3-0.801-2.399c0-1,0.301-1.9,0.801-2.4c0.5-0.6,1.199-0.899,2.1-0.899
		c0.801,0,1.5,0.3,2,0.899c0.5,0.601,0.801,1.4,0.801,2.4c0,0.1,0,0.2,0,0.3h-4.5c0,0.7,0.199,1.2,0.6,1.6
		c0.4,0.4,0.801,0.5,1.301,0.5c0.398,0,0.699-0.1,1-0.3C391,135.5,391.301,135.2,391.4,134.8 M388,133.1h3.5
		c0-0.5-0.199-0.899-0.4-1.199c-0.299-0.4-0.799-0.601-1.299-0.601s-0.9,0.2-1.201,0.5C388.199,132.1,388,132.5,388,133.1L388,133.1
		z"/>
	<path fill="#363639" d="M393.5,133.7c0-1.2,0.301-2,1-2.601c0.5-0.5,1.199-0.699,2-0.699c0.9,0,1.5,0.3,2.1,0.8
		c0.5,0.6,0.801,1.3,0.801,2.3c0,0.8-0.1,1.4-0.4,1.9c-0.199,0.5-0.6,0.8-1.1,1.1c-0.5,0.2-1,0.4-1.5,0.4
		c-0.9,0-1.6-0.301-2.1-0.801C393.801,135.5,393.5,134.7,393.5,133.7 M394.6,133.7c0,0.8,0.201,1.399,0.5,1.8
		c0.301,0.4,0.801,0.6,1.301,0.6s1-0.199,1.299-0.6c0.301-0.4,0.5-1,0.5-1.8s-0.199-1.3-0.5-1.8c-0.398-0.4-0.799-0.601-1.299-0.601
		s-1,0.2-1.301,0.601C394.801,132.3,394.6,132.9,394.6,133.7L394.6,133.7z"/>
	<path fill="#363639" d="M404.5,136.8V135.9c-0.5,0.699-1.199,1-2,1c-0.4,0-0.699-0.101-1-0.2c-0.301-0.101-0.6-0.3-0.699-0.5
		c-0.102-0.2-0.301-0.5-0.301-0.8c0-0.2-0.1-0.5-0.1-1v-3.9h1.1v3.5c0,0.6,0,0.9,0.1,1.1c0.1,0.301,0.201,0.5,0.4,0.601
		c0.199,0.2,0.5,0.2,0.801,0.2c0.299,0,0.6-0.101,0.898-0.2c0.301-0.2,0.5-0.4,0.602-0.7c0.1-0.3,0.199-0.7,0.199-1.2v-3.3h1.1v6.2
		L404.5,136.8L404.5,136.8z"/>
	<path fill="#363639" d="M406.699,134.9l1-0.2c0,0.399,0.201,0.7,0.5,1c0.301,0.2,0.602,0.3,1.102,0.3s0.799-0.1,1.1-0.3
		c0.199-0.2,0.299-0.4,0.299-0.7c0-0.2-0.1-0.4-0.299-0.6c-0.1-0.101-0.5-0.2-1.1-0.4c-0.801-0.2-1.301-0.4-1.602-0.5
		c-0.299-0.1-0.5-0.3-0.699-0.6c-0.199-0.301-0.199-0.5-0.199-0.801c0-0.3,0.1-0.5,0.199-0.8c0.1-0.2,0.301-0.399,0.5-0.6
		c0.199-0.101,0.4-0.2,0.699-0.3c0.301-0.101,0.602-0.101,0.9-0.101c0.5,0,0.9,0.101,1.301,0.2s0.6,0.3,0.799,0.6
		c0.201,0.2,0.301,0.601,0.4,1l-1,0.101c0-0.3-0.199-0.601-0.4-0.7c-0.199-0.2-0.5-0.3-0.898-0.3c-0.5,0-0.801,0.1-1,0.2
		C408.1,131.6,408,131.7,408,132c0,0.1,0,0.3,0.1,0.4c0.1,0.1,0.201,0.199,0.4,0.3c0.1,0,0.4,0.1,0.9,0.3
		c0.699,0.2,1.299,0.4,1.6,0.5s0.5,0.3,0.699,0.6c0.201,0.2,0.301,0.5,0.301,0.9s-0.1,0.7-0.301,1c-0.199,0.3-0.5,0.5-0.898,0.7
		c-0.4,0.2-0.801,0.3-1.301,0.3c-0.801,0-1.4-0.2-1.801-0.5C407,136.1,406.801,135.6,406.699,134.9L406.699,134.9z"/>
	<path fill="#363639" d="M339.199,149.7v-6.2h0.9v0.9c0.201-0.301,0.4-0.5,0.801-0.7c0.299-0.2,0.699-0.3,1.1-0.3
		c0.5,0,0.801,0.1,1.1,0.3c0.301,0.2,0.5,0.5,0.6,0.8c0.5-0.7,1.102-1.1,1.9-1.1c0.6,0,1.1,0.199,1.4,0.5
		c0.301,0.3,0.5,0.899,0.5,1.6v4.3h-1.1V145.9c0-0.4,0-0.7-0.1-0.9c-0.102-0.2-0.201-0.3-0.4-0.5c-0.201-0.1-0.4-0.2-0.6-0.2
		c-0.4,0-0.801,0.2-1.102,0.4c-0.299,0.3-0.398,0.8-0.398,1.399v3.601h-0.9v-4c0-0.5-0.1-0.8-0.301-1.101
		c-0.199-0.199-0.5-0.3-0.799-0.3c-0.301,0-0.602,0.101-0.801,0.2s-0.4,0.4-0.5,0.7s-0.199,0.7-0.199,1.3v3.2H339.199L339.199,149.7
		z"/>
	<path fill="#363639" d="M348.6,146.6c0-1.199,0.301-2,1-2.6c0.5-0.5,1.201-0.7,2-0.7c0.9,0,1.5,0.3,2.1,0.8
		c0.5,0.601,0.801,1.301,0.801,2.301c0,0.8-0.1,1.399-0.4,1.899c-0.199,0.5-0.6,0.8-1.1,1.101c-0.5,0.199-1,0.399-1.5,0.399
		c-0.9,0-1.6-0.3-2.1-0.8S348.6,147.7,348.6,146.6 M349.699,146.6c0,0.801,0.201,1.4,0.5,1.801C350.5,148.8,351,149,351.5,149
		s1-0.2,1.301-0.6c0.299-0.4,0.5-1,0.5-1.801c0-0.8-0.201-1.3-0.5-1.8c-0.4-0.399-0.801-0.6-1.301-0.6s-1,0.2-1.301,0.6
		C349.9,145.2,349.699,145.8,349.699,146.6L349.699,146.6z"/>
	<path fill="#363639" d="M355.699,149.7v-6.2h0.9v0.9c0.201-0.301,0.4-0.5,0.801-0.7c0.299-0.2,0.699-0.3,1.1-0.3
		c0.5,0,0.801,0.1,1.1,0.3c0.301,0.2,0.5,0.5,0.6,0.8c0.5-0.7,1.102-1.1,1.9-1.1c0.6,0,1.1,0.199,1.4,0.5
		c0.301,0.3,0.5,0.899,0.5,1.6v4.3h-1.1V145.9c0-0.4,0-0.7-0.1-0.9c-0.102-0.2-0.201-0.3-0.4-0.5c-0.201-0.1-0.4-0.2-0.6-0.2
		c-0.4,0-0.801,0.2-1.102,0.4c-0.299,0.3-0.398,0.8-0.398,1.399v3.601h-1.102v-4c0-0.5-0.1-0.8-0.299-1.101
		c-0.201-0.199-0.5-0.3-0.801-0.3c-0.299,0-0.6,0.101-0.799,0.2c-0.201,0.1-0.4,0.4-0.5,0.7c-0.102,0.3-0.201,0.7-0.201,1.3v3.2
		H355.699L355.699,149.7z"/>
	<path fill="#363639" d="M370.1,147.7l1.1,0.1c-0.199,0.601-0.5,1.101-1,1.5c-0.5,0.3-1.1,0.5-1.799,0.5c-0.9,0-1.6-0.3-2.201-0.8
		c-0.5-0.6-0.799-1.3-0.799-2.4c0-1,0.299-1.899,0.799-2.399c0.5-0.601,1.201-0.9,2.102-0.9c0.799,0,1.5,0.3,2,0.9
		c0.5,0.6,0.799,1.399,0.799,2.399c0,0.101,0,0.2,0,0.301h-4.6c0,0.699,0.199,1.199,0.6,1.6c0.301,0.4,0.801,0.5,1.301,0.5
		c0.4,0,0.699-0.1,1-0.3C369.699,148.5,369.9,148.2,370.1,147.7 M366.6,146h3.5c0-0.5-0.199-0.9-0.4-1.2
		c-0.299-0.399-0.799-0.6-1.299-0.6s-0.9,0.2-1.201,0.5C366.801,145,366.6,145.5,366.6,146L366.6,146z"/>
	<path fill="#363639" d="M372.5,149.7v-6.2h0.9v0.9c0.5-0.7,1.1-1,2-1c0.4,0,0.699,0.1,1,0.199c0.299,0.101,0.6,0.301,0.699,0.5
		c0.1,0.2,0.301,0.5,0.301,0.801c0,0.199,0.1,0.5,0.1,1v3.8h-1.1v-3.8c0-0.4,0-0.7-0.1-1c-0.102-0.2-0.201-0.4-0.4-0.5
		c-0.201-0.101-0.5-0.2-0.701-0.2c-0.5,0-0.898,0.1-1.199,0.399c-0.301,0.301-0.5,0.801-0.5,1.601v3.399h-1V149.7z"/>
	<path fill="#363639" d="M381.301,148.8l0.199,0.9c-0.301,0-0.6,0.1-0.801,0.1c-0.398,0-0.699-0.1-0.898-0.2
		c-0.201-0.1-0.4-0.3-0.4-0.5c-0.1-0.199-0.1-0.6-0.1-1.199V144.3H378.5v-0.8h0.801V142l1-0.6v2.199h1.1v0.801h-1.1v3.6
		c0,0.3,0,0.5,0.1,0.6c0,0.101,0.1,0.2,0.199,0.2s0.201,0.101,0.4,0.101C381,148.8,381.1,148.8,381.301,148.8L381.301,148.8z"/>
	<path fill="#363639" stroke="#000000" stroke-miterlimit="10" d="M93.3,64.5L93.3,64.5c0,1.8-1.2,3.3-2.8,3.3s-2.8-1.5-2.8-3.3
		s1.2-3.3,2.8-3.3S93.3,62.7,93.3,64.5L93.3,64.5z"/>
	<path fill="#363639" stroke="#000000" stroke-miterlimit="10" d="M132.5,65L132.5,65c0,1.8-1.199,3.3-2.8,3.3
		c-1.5,0-2.8-1.5-2.8-3.3s1.2-3.3,2.8-3.3C131.2,61.6,132.5,63.1,132.5,65L132.5,65z"/>
	<path fill="#363639" stroke="#000000" stroke-miterlimit="10" d="M37.4,103.8L37.4,103.8c0,1.8-1.2,3.3-2.8,3.3
		c-1.6,0-2.8-1.5-2.8-3.3s1.2-3.3,2.8-3.3C36.2,100.5,37.4,102,37.4,103.8L37.4,103.8z"/>
	<path fill="none" stroke="#000000" stroke-miterlimit="10" d="M36.5,103.5l53.2-38.3h39.4 M176,90.3
		c-17.1-17.6-40.5-27.6-65.1-27.6c-36,0-68.6,21.3-83,54.399 M29.7,97.8L9.1,69.2"/>
	<polygon points="9.1,69.2 9.5,68.9 16.8,74.8 11.9,78.3 8.7,69.5 	"/>
	<line fill="none" stroke="#000000" stroke-miterlimit="10" x1="131.5" y1="59.5" x2="134.4" y2="31.4"/>
	<polygon points="134.4,31.4 134.9,31.5 136.4,40.7 130.5,40.1 133.9,31.4 	"/>
	<line fill="none" stroke="#000000" stroke-miterlimit="10" x1="86.3" y1="59.8" x2="65.7" y2="31.2"/>
	<polygon points="65.7,31.2 66.1,30.9 73.4,36.7 68.5,40.2 65.3,31.5 	"/>
	<line fill="none" stroke="#000000" stroke-miterlimit="10" x1="91.2" y1="58.3" x2="94.1" y2="30.3"/>
	<polygon points="94.1,30.3 94.6,30.4 96.1,39.6 90.2,39 93.6,30.3 	"/>
	<path fill="none" stroke="#000000" stroke-width="0.75" stroke-miterlimit="10" d="M86.8,75.3c1.1,0.4,2.3,0.5,3.5,0.5
		c4.3,0,8.2-2.3,10.3-6.1"/>
	<polygon points="100.7,69.8 100.9,70.1 97.1,75.9 94.1,72.5 100.4,69.5 	"/>
	<path fill="none" stroke="#000000" stroke-width="0.75" stroke-miterlimit="10" d="M80,77.2c2.9,2.399,6.6,3.7,10.4,3.7
		c4.9,0,9.5-2.2,12.6-6"/>
	<polygon points="80,77.2 80.2,76.8 87,78.4 84.9,82.3 79.8,77.5 	"/>
	<path fill="none" stroke="#000000" stroke-width="0.75" stroke-miterlimit="10" d="M119.2,68.7c1.7,5,6.5,8.399,11.8,8.399
		c1.2,0,2.301-0.199,3.4-0.5"/>
	<polygon points="119.2,68.7 119.5,68.5 124.5,73.4 120.6,75.7 118.8,68.9 	"/>
	<path fill="none" stroke="#000000" stroke-width="0.75" stroke-miterlimit="10" d="M32.9,119.7c0.5,0,0.9,0.1,1.4,0.1
		c8.7,0,15.7-7,15.7-15.7c0-1-0.1-1.899-0.3-2.899"/>
	<polygon points="49.7,101.2 50.1,101.2 52.3,107.9 47.8,108.1 49.4,101.3 	"/>
	<path fill="none" stroke="#000000" stroke-miterlimit="10" d="M183.5,67.5H206.3 M183.6,72.3h22.8 M210.7,70.1l-6.6-4.399
		 M210.6,69.8L204,74.2"/>
</g>
</svg>
