<?xml version="1.0" encoding="utf-8"?>
<!-- Generator: Adobe Illustrator 17.1.0, SVG Export Plug-In . SVG Version: 6.00 Build 0)  -->

<svg version="1.1" id="Layer_1" xmlns="http://www.w3.org/2000/svg" xmlns:xlink="http://www.w3.org/1999/xlink" x="0px" y="0px"
	 width="281px" height="186px" viewBox="165 303 281 186" enable-background="new 165 303 281 186" xml:space="preserve">
<g>
	<rect x="165" y="303" fill="#FFFFFF" width="281" height="186"/>
	<path fill="none" stroke="#000000" stroke-miterlimit="10" d="M426.2,316.8l-3.4-3.4 M422.8,313.4L287,449.2 M287,449.2l3.4,3.4
		 M290.5,452.6l135.9-136"/>
	<path fill="#363639" d="M431.1,320.6l1-0.1c0,0.7,0.2,1.1,0.4,1.4c0.2,0.2,0.5,0.4,0.9,0.4c0.3,0,0.5-0.1,0.7-0.2s0.3-0.3,0.4-0.5
		s0.1-0.6,0.1-1.1v-5.9h1.1v5.9c0,0.7-0.1,1.3-0.3,1.7c-0.2,0.4-0.4,0.7-0.8,0.9c-0.4,0.2-0.8,0.3-1.3,0.3c-0.8,0-1.3-0.2-1.7-0.6
		C431.2,322.1,431,321.5,431.1,320.6L431.1,320.6z"/>
	<polygon fill="#363639" points="288.6,462.3 288.6,453.7 289.7,453.7 289.7,462.3 	"/>
	<line fill="none" stroke="#000000" stroke-miterlimit="10" x1="364.3" y1="348.6" x2="343.8" y2="369.1"/>
	<polyline fill="#363639" stroke="#000000" stroke-miterlimit="10" points="361.4,353.6 359.3,351.5 364.3,348.6 361.4,353.6 	"/>
	<line fill="none" stroke="#000000" stroke-miterlimit="10" x1="338" y1="364.3" x2="349.5" y2="375.8"/>
	<path fill="#363639" d="M368.7,345.2l1-0.2c0,0.4,0.2,0.7,0.5,1c0.3,0.2,0.6,0.3,1.1,0.3s0.8-0.1,1.1-0.3c0.2-0.2,0.3-0.4,0.3-0.7
		c0-0.2-0.1-0.4-0.3-0.6c-0.1-0.1-0.5-0.2-1.1-0.4c-0.8-0.2-1.3-0.4-1.6-0.5c-0.3-0.1-0.5-0.3-0.7-0.6c-0.2-0.3-0.2-0.5-0.2-0.8
		s0.1-0.5,0.2-0.8c0.1-0.2,0.3-0.4,0.5-0.6c0.2-0.1,0.4-0.2,0.7-0.3c0.3-0.1,0.6-0.1,0.9-0.1c0.5,0,0.9,0.1,1.3,0.2s0.6,0.3,0.8,0.6
		c0.2,0.2,0.3,0.6,0.4,1l-1,0.1c0-0.3-0.2-0.6-0.4-0.7c-0.2-0.2-0.5-0.3-0.9-0.3c-0.5,0-0.8,0.1-1,0.2c-0.2,0.2-0.3,0.3-0.3,0.6
		c0,0.1,0,0.3,0.1,0.4s0.2,0.2,0.4,0.3c0.1,0,0.4,0.1,0.9,0.3c0.7,0.2,1.3,0.4,1.6,0.5c0.3,0.1,0.5,0.3,0.7,0.6
		c0.2,0.2,0.3,0.5,0.3,0.9s-0.1,0.7-0.3,1c-0.2,0.3-0.5,0.5-0.9,0.7s-0.8,0.3-1.3,0.3c-0.8,0-1.4-0.2-1.8-0.5
		C369.1,346.4,368.8,345.9,368.7,345.2L368.7,345.2z"/>
	<line fill="none" stroke="#000000" stroke-miterlimit="10" x1="204.1" y1="402.8" x2="204.1" y2="440.9"/>
	<polyline fill="#363639" stroke="#000000" stroke-miterlimit="10" points="204.1,407.5 204.1,407.5 202.6,408.4 204.1,402.8 
		205.6,408.4 204.1,407.5 	"/>
	<line fill="none" stroke="#000000" stroke-miterlimit="10" x1="232.9" y1="440.9" x2="204.1" y2="440.9"/>
	<polyline fill="#363639" stroke="#000000" stroke-miterlimit="10" points="228.2,440.9 228.2,440.9 227.3,439.4 232.9,440.9 
		227.3,442.4 228.2,440.9 	"/>
	<line fill="none" stroke="#000000" stroke-miterlimit="10" x1="184.7" y1="452.7" x2="204.1" y2="440.9"/>
	<polyline fill="#363639" stroke="#000000" stroke-miterlimit="10" points="188.8,450.3 188.8,450.3 190.3,451.2 184.7,452.7 
		188.7,448.6 188.8,450.3 	"/>
	<path fill="#363639" d="M205.3,398v-3.6l-3.3-5h1.4l1.7,2.6c0.3,0.5,0.6,1,0.9,1.5c0.3-0.4,0.6-0.9,0.9-1.5l1.7-2.5h1.3l-3.4,5v3.6
		h-1.2V398z"/>
	<path fill="#363639" d="M237.6,447.9l3.3-4.5l-2.9-4.1h1.4l1.6,2.2c0.3,0.5,0.5,0.8,0.7,1.1c0.2-0.3,0.4-0.6,0.7-1l1.7-2.3h1.2
		l-3,4.1l3.3,4.5H244l-2.2-3.1c-0.1-0.2-0.3-0.4-0.4-0.6c-0.2,0.3-0.3,0.5-0.4,0.6l-2.2,3L237.6,447.9L237.6,447.9z"/>
	<path fill="#363639" d="M175.4,463v-1.1l4.4-5.5c0.3-0.4,0.6-0.7,0.9-1h-4.8v-1h6.1v1l-4.8,6l-0.5,0.6h5.5v1H175.4L175.4,463z"/>
</g>
</svg>
