<?xml version="1.0" encoding="utf-8"?>
<!-- Generator: Adobe Illustrator 17.1.0, SVG Export Plug-In . SVG Version: 6.00 Build 0)  -->

<svg version="1.1" id="Layer_1" xmlns="http://www.w3.org/2000/svg" xmlns:xlink="http://www.w3.org/1999/xlink" x="0px" y="0px"
	 width="374px" height="227px" viewBox="119 283 374 227" enable-background="new 119 283 374 227" xml:space="preserve">
<g>
	<rect x="119" y="283" fill="#FFFFFF" width="374" height="227"/>
	<polyline fill="none" stroke="#000000" stroke-miterlimit="10" points="403.5,496 304,492.2 260.9,434.5 311.1,365.9 382.3,345.9 
		443.4,348.2 480.9,394.7 476.2,462.2 403.5,496 	"/>
	<path fill="none" stroke="#000000" stroke-miterlimit="10" stroke-dasharray="10,4" d="M306.3,362.4l64.6,58.7 M257.4,434.9
		L371,421.2"/>
	<path fill="none" stroke="#000000" stroke-miterlimit="10" d="M301.1,494.9l5.3-5.4 M404.7,499.6l-1.6-7.3 M479.1,464l-6.6-3.8
		 M383.1,349.7l-2.2-7.1"/>
	<polygon fill="#BEB4B0" stroke="#000000" stroke-miterlimit="10" points="260.9,434.5 193,442.7 246.1,307.7 310.7,366.4 	"/>
	<polyline fill="none" stroke="#000000" stroke-miterlimit="10" points="260.9,434.5 193,442.7 246.1,307.7 310.7,366.4 	"/>
	<path fill="#363639" stroke="#000000" stroke-miterlimit="10" d="M247.3,307.4L247.3,307.4c0,0.8-0.6,1.4-1.3,1.4s-1.3-0.6-1.3-1.4
		s0.6-1.4,1.3-1.4S247.3,306.6,247.3,307.4L247.3,307.4z"/>
	<path fill="#363639" stroke="#000000" stroke-miterlimit="10" d="M222.1,371.3L222.1,371.3c0,0.8-0.6,1.4-1.3,1.4s-1.3-0.6-1.3-1.4
		s0.6-1.4,1.3-1.4S222.1,370.6,222.1,371.3L222.1,371.3z"/>
	<path fill="#363639" stroke="#000000" stroke-miterlimit="10" d="M195.1,441.7L195.1,441.7c0,0.8-0.6,1.4-1.3,1.4s-1.3-0.6-1.3-1.4
		s0.6-1.4,1.3-1.4S195.1,440.9,195.1,441.7L195.1,441.7z"/>
	<path fill="#363639" stroke="#000000" stroke-miterlimit="10" d="M226,438.5L226,438.5c0,0.8-0.6,1.4-1.3,1.4s-1.3-0.6-1.3-1.4
		s0.6-1.4,1.3-1.4S226,437.7,226,438.5L226,438.5z"/>
	<path fill="#363639" stroke="#000000" stroke-miterlimit="10" d="M262.3,434.3L262.3,434.3c0,0.8-0.6,1.4-1.3,1.4
		c-0.7,0-1.3-0.6-1.3-1.4s0.6-1.4,1.3-1.4C261.7,432.9,262.3,433.5,262.3,434.3L262.3,434.3z"/>
	<path fill="#363639" stroke="#000000" stroke-miterlimit="10" d="M283.5,404.2L283.5,404.2c0,0.8-0.6,1.4-1.3,1.4
		c-0.7,0-1.3-0.6-1.3-1.4s0.6-1.4,1.3-1.4C282.9,402.8,283.5,403.4,283.5,404.2L283.5,404.2z"/>
	<path fill="#363639" stroke="#000000" stroke-miterlimit="10" d="M311.5,366.2L311.5,366.2c0,0.8-0.6,1.4-1.3,1.4
		c-0.7,0-1.3-0.6-1.3-1.4s0.6-1.4,1.3-1.4C310.9,364.8,311.5,365.4,311.5,366.2L311.5,366.2z"/>
	<path fill="#363639" stroke="#000000" stroke-miterlimit="10" d="M281.6,338.4L281.6,338.4c0,0.8-0.6,1.4-1.3,1.4
		c-0.7,0-1.3-0.6-1.3-1.4s0.6-1.4,1.3-1.4C281,337.1,281.6,337.7,281.6,338.4L281.6,338.4z"/>
	<path fill="none" stroke="#000000" stroke-miterlimit="10" d="M261.6,434.5l47.4-65.7 M445.7,345.6l-4.7,5.9 M483.9,394.7l-7.7,1.1
		 M370.9,368.7v52.5h52.4"/>
	<polygon points="370.9,368.7 371.4,368.7 373.9,377.7 367.9,377.7 370.4,368.7 	"/>
	<polygon points="423.3,421.1 423.3,421.6 414.3,424.1 414.3,418.1 423.3,420.6 	"/>
	<polygon fill="#363639" points="245.3,303 245.3,294.4 246.4,294.4 246.4,298.7 250.7,294.4 252.2,294.4 248.6,297.9 252.4,303 
		250.9,303 247.8,298.7 246.4,300 246.4,303 	"/>
	<polygon fill="#363639" points="284.9,335.4 284.9,326.8 286.1,326.8 290.6,333.6 290.6,326.8 291.7,326.8 291.7,335.4 
		290.5,335.4 286,328.6 286,335.4 	"/>
	<path fill="#363639" d="M294.9,369l1-0.1c0,0.7,0.2,1.1,0.4,1.4s0.5,0.4,0.9,0.4c0.3,0,0.5-0.1,0.7-0.2s0.3-0.3,0.4-0.5
		s0.1-0.6,0.1-1.1V363h1.1v5.9c0,0.7-0.1,1.3-0.3,1.7c-0.2,0.4-0.4,0.7-0.8,0.9c-0.4,0.2-0.8,0.3-1.3,0.3c-0.8,0-1.3-0.2-1.7-0.6
		C295.1,370.5,294.9,369.8,294.9,369L294.9,369z"/>
	<path fill="#363639" d="M267.8,402.4v-8.6h1.7l2,6.1c0.2,0.6,0.3,1,0.4,1.3c0.1-0.3,0.3-0.8,0.5-1.4l2.1-6h1.5v8.6h-1v-7.2
		l-2.5,7.2h-1l-2.5-7.3v7.3H267.8L267.8,402.4z"/>
	<polygon fill="#363639" points="255.6,427.1 255.6,418.5 256.7,418.5 256.7,427.1 	"/>
	<path fill="#363639" d="M224.7,453.2v-8.6h3.2c0.6,0,1,0,1.3,0.1c0.4,0.1,0.8,0.2,1.1,0.4c0.3,0.2,0.5,0.5,0.7,0.8
		c0.2,0.4,0.3,0.7,0.3,1.2c0,0.7-0.2,1.4-0.7,1.9s-1.3,0.8-2.5,0.8h-2.2v3.5L224.7,453.2 M225.8,448.7h2.2c0.7,0,1.2-0.1,1.6-0.4
		c0.3-0.3,0.5-0.7,0.5-1.2c0-0.4-0.1-0.7-0.3-0.9c-0.2-0.3-0.4-0.4-0.7-0.5c-0.2,0-0.6-0.1-1.1-0.1h-2.2V448.7L225.8,448.7z"/>
	<polygon fill="#363639" points="189.4,455.9 189.4,447.3 190.5,447.3 190.5,454.9 194.7,454.9 194.7,455.9 	"/>
	<path fill="#363639" d="M226.5,374.2c0-1.4,0.4-2.5,1.2-3.3s1.8-1.2,3-1.2c0.8,0,1.5,0.2,2.1,0.6s1.1,0.9,1.5,1.6
		c0.3,0.7,0.5,1.5,0.5,2.3c0,0.9-0.2,1.7-0.5,2.3c-0.4,0.7-0.9,1.2-1.5,1.6c-0.6,0.3-1.3,0.5-2.1,0.5s-1.5-0.2-2.2-0.6
		c-0.6-0.4-1.1-0.9-1.5-1.6C226.7,375.7,226.5,374.9,226.5,374.2 M227.7,374.2c0,1,0.3,1.8,0.8,2.4c0.6,0.6,1.3,0.9,2.1,0.9
		c0.9,0,1.6-0.3,2.1-0.9c0.6-0.6,0.8-1.5,0.8-2.6c0-0.7-0.1-1.3-0.4-1.8c-0.2-0.5-0.6-0.9-1-1.2c-0.5-0.3-1-0.4-1.5-0.4
		c-0.8,0-1.5,0.3-2.1,0.8C228,372,227.7,372.9,227.7,374.2L227.7,374.2z"/>
	<path fill="#363639" d="M399.4,363.2v-3.6l-3.3-5h1.4l1.7,2.6c0.3,0.5,0.6,1,0.9,1.5c0.3-0.4,0.6-0.9,0.9-1.5l1.7-2.5h1.3l-3.4,5
		v3.6h-1.2V363.2z"/>
	<path fill="#363639" d="M379,378.7c-0.6-0.7-1.1-1.6-1.5-2.6s-0.6-2-0.6-3.1c0-0.9,0.1-1.8,0.4-2.7c0.3-1,0.9-2,1.6-3h0.8
		c-0.5,0.8-0.8,1.4-0.9,1.7c-0.2,0.5-0.4,1.1-0.6,1.7c-0.2,0.7-0.3,1.5-0.3,2.2c0,1.9,0.6,3.7,1.8,5.6H379V378.7z"/>
	<path fill="#363639" d="M380.6,373.1c0-1.2,0.3-2,1-2.6c0.5-0.5,1.2-0.7,2-0.7c0.9,0,1.5,0.3,2.1,0.8c0.5,0.6,0.8,1.3,0.8,2.3
		c0,0.8-0.1,1.4-0.4,1.9s-0.6,0.8-1.1,1.1c-0.5,0.2-1,0.4-1.5,0.4c-0.9,0-1.6-0.3-2.1-0.8C380.9,375,380.6,374.1,380.6,373.1
		 M381.7,373.1c0,0.8,0.2,1.4,0.5,1.8s0.8,0.6,1.3,0.6s1-0.2,1.3-0.6s0.5-1,0.5-1.8s-0.2-1.3-0.5-1.8c-0.4-0.4-0.8-0.6-1.3-0.6
		s-1,0.2-1.3,0.6C381.9,371.7,381.7,372.3,381.7,373.1L381.7,373.1z"/>
	<path fill="#363639" d="M387.7,376.2V370h0.9v0.9c0.2-0.4,0.5-0.7,0.7-0.9c0.2-0.1,0.4-0.2,0.7-0.2c0.4,0,0.7,0.1,1.1,0.3l-0.4,1
		c-0.3-0.1-0.5-0.2-0.8-0.2c-0.2,0-0.4,0.1-0.6,0.2s-0.3,0.3-0.4,0.6c-0.1,0.4-0.2,0.8-0.2,1.2v3.3L387.7,376.2L387.7,376.2z"/>
	<path fill="#363639" d="M394.2,376.2l3.3-8.6h1.2l3.5,8.6h-1.3l-1-2.6h-3.6l-0.9,2.6H394.2 M396.6,372.7h2.9l-0.9-2.4
		c-0.3-0.7-0.5-1.3-0.6-1.8c-0.1,0.6-0.3,1.1-0.5,1.6L396.6,372.7L396.6,372.7z"/>
	<path fill="#363639" d="M402.4,376.2l2.3-3.2l-2.1-3h1.3l1,1.5c0.2,0.3,0.3,0.5,0.4,0.7c0.2-0.3,0.3-0.5,0.5-0.7l1-1.5h1.3
		l-2.1,2.9l2.3,3.3H407l-1.3-1.9l-0.3-0.5l-1.6,2.5L402.4,376.2L402.4,376.2z"/>
	<path fill="#363639" d="M409.1,368.8v-1.2h1.1v1.2H409.1 M409.1,376.2V370h1.1v6.2H409.1L409.1,376.2z"/>
	<path fill="#363639" d="M415.8,375.4c-0.4,0.3-0.8,0.6-1.1,0.7c-0.4,0.1-0.8,0.2-1.2,0.2c-0.7,0-1.2-0.2-1.6-0.5s-0.6-0.8-0.6-1.3
		c0-0.3,0.1-0.6,0.2-0.8c0.1-0.3,0.3-0.5,0.6-0.6c0.2-0.1,0.5-0.3,0.8-0.3c0.2,0,0.5-0.1,0.9-0.2c0.9-0.1,1.5-0.2,1.9-0.4
		c0-0.1,0-0.2,0-0.3c0-0.4-0.1-0.7-0.3-0.9c-0.3-0.2-0.7-0.4-1.2-0.4s-0.9,0.1-1.1,0.3c-0.2,0.2-0.4,0.5-0.5,0.9l-1-0.1
		c0.1-0.4,0.3-0.8,0.5-1.1c0.2-0.3,0.5-0.5,0.9-0.6s0.9-0.2,1.4-0.2s1,0.1,1.3,0.2s0.6,0.3,0.7,0.5c0.2,0.2,0.3,0.4,0.3,0.7
		c0,0.2,0.1,0.5,0.1,1v1.4c0,1,0,1.6,0.1,1.9c0,0.3,0.1,0.5,0.3,0.7H416C415.9,376,415.8,375.7,415.8,375.4 M415.7,373.1
		c-0.4,0.2-1,0.3-1.7,0.4c-0.4,0.1-0.7,0.1-0.9,0.2c-0.2,0.1-0.3,0.2-0.4,0.3c-0.1,0.2-0.1,0.3-0.1,0.5c0,0.3,0.1,0.5,0.3,0.7
		c0.2,0.2,0.5,0.3,0.9,0.3s0.8-0.1,1.1-0.3c0.3-0.2,0.6-0.4,0.7-0.7c0.1-0.2,0.2-0.6,0.2-1.1v-0.3H415.7z"/>
	<polygon fill="#363639" points="418.2,376.2 418.2,367.6 419.3,367.6 419.3,376.2 	"/>
	<path fill="#363639" d="M421.5,378.7h-0.8c1.2-1.9,1.8-3.7,1.8-5.6c0-0.7-0.1-1.5-0.3-2.2c-0.1-0.6-0.3-1.1-0.6-1.7
		c-0.2-0.3-0.5-0.9-0.9-1.8h0.8c0.7,1,1.3,2,1.6,3c0.3,0.9,0.5,1.8,0.5,2.7c0,1.1-0.2,2.1-0.6,3.1
		C422.6,377.1,422.1,378,421.5,378.7L421.5,378.7z"/>
	<path fill="#363639" d="M404,438.1l3.3-4.5l-2.9-4.1h1.4l1.6,2.2c0.3,0.5,0.5,0.8,0.7,1.1c0.2-0.3,0.4-0.6,0.7-1l1.7-2.3h1.2
		l-3,4.1l3.3,4.5h-1.4l-2.2-3.1c-0.1-0.2-0.3-0.4-0.4-0.6c-0.2,0.3-0.3,0.5-0.4,0.6l-2.2,3L404,438.1L404,438.1z"/>
	<path fill="#363639" d="M418.3,440.6c-0.6-0.7-1.1-1.6-1.5-2.6s-0.6-2-0.6-3.1c0-0.9,0.1-1.8,0.4-2.7c0.3-1,0.9-2,1.6-3h0.8
		c-0.5,0.8-0.8,1.4-0.9,1.7c-0.2,0.5-0.4,1.1-0.6,1.7c-0.2,0.7-0.3,1.5-0.3,2.2c0,1.9,0.6,3.7,1.8,5.6h-0.7V440.6z"/>
	<path fill="#363639" d="M419.8,435c0-1.2,0.3-2,1-2.6c0.5-0.5,1.2-0.7,2-0.7c0.9,0,1.5,0.3,2.1,0.8c0.5,0.6,0.8,1.3,0.8,2.3
		c0,0.8-0.1,1.4-0.4,1.9c-0.2,0.5-0.6,0.8-1.1,1.1c-0.5,0.2-1,0.4-1.5,0.4c-0.9,0-1.6-0.3-2.1-0.8C420,436.9,419.8,436.1,419.8,435
		 M420.8,435c0,0.8,0.2,1.4,0.5,1.8s0.8,0.6,1.3,0.6s1-0.2,1.3-0.6s0.5-1,0.5-1.8s-0.2-1.3-0.5-1.8c-0.4-0.4-0.8-0.6-1.3-0.6
		s-1,0.2-1.3,0.6S420.8,434.2,420.8,435L420.8,435z"/>
	<path fill="#363639" d="M426.9,438.1v-6.2h0.9v0.9c0.2-0.4,0.5-0.7,0.7-0.9c0.2-0.1,0.4-0.2,0.7-0.2c0.4,0,0.7,0.1,1.1,0.3l-0.4,1
		c-0.3-0.1-0.5-0.2-0.8-0.2c-0.2,0-0.4,0.1-0.6,0.2s-0.3,0.3-0.4,0.6c-0.1,0.4-0.2,0.8-0.2,1.2v3.3L426.9,438.1L426.9,438.1z"/>
	<path fill="#363639" d="M434.5,438.1v-8.6h3.8c0.8,0,1.3,0.1,1.7,0.2c0.4,0.2,0.7,0.4,1,0.8c0.2,0.4,0.4,0.8,0.4,1.3
		c0,0.6-0.2,1.1-0.6,1.5s-1,0.7-1.8,0.8c0.3,0.1,0.5,0.3,0.7,0.4c0.3,0.3,0.6,0.7,0.9,1.1l1.5,2.3h-1.4l-1.1-1.8
		c-0.3-0.5-0.6-0.9-0.8-1.2c-0.2-0.3-0.4-0.5-0.6-0.6s-0.3-0.2-0.5-0.2c-0.1,0-0.3,0-0.6,0h-1.3v3.8h-1.3 M435.6,433.3h2.4
		c0.5,0,0.9,0,1.2-0.2s0.5-0.3,0.7-0.5c0.1-0.2,0.2-0.5,0.2-0.8c0-0.4-0.2-0.7-0.4-1c-0.3-0.3-0.8-0.4-1.4-0.4h-2.7L435.6,433.3
		L435.6,433.3z"/>
	<path fill="#363639" d="M447,437.4c-0.4,0.3-0.8,0.6-1.1,0.7c-0.4,0.1-0.8,0.2-1.2,0.2c-0.7,0-1.2-0.2-1.6-0.5s-0.6-0.8-0.6-1.3
		c0-0.3,0.1-0.6,0.2-0.8c0.1-0.3,0.3-0.5,0.6-0.6c0.2-0.1,0.5-0.3,0.8-0.3c0.2,0,0.5-0.1,0.9-0.2c0.9-0.1,1.5-0.2,1.9-0.4
		c0-0.1,0-0.2,0-0.3c0-0.4-0.1-0.7-0.3-0.9c-0.3-0.2-0.7-0.4-1.2-0.4s-0.9,0.1-1.1,0.3c-0.2,0.2-0.4,0.5-0.5,0.9l-1-0.1
		c0.1-0.4,0.3-0.8,0.5-1.1c0.2-0.3,0.5-0.5,0.9-0.6s0.9-0.2,1.4-0.2s1,0.1,1.3,0.2s0.6,0.3,0.7,0.5c0.2,0.2,0.3,0.4,0.3,0.7
		c0,0.2,0.1,0.5,0.1,1v1.4c0,1,0,1.6,0.1,1.9c0,0.3,0.1,0.5,0.3,0.7h-1.1C447.1,437.9,447,437.7,447,437.4 M446.9,435
		c-0.4,0.2-1,0.3-1.7,0.4c-0.4,0.1-0.7,0.1-0.9,0.2s-0.3,0.2-0.4,0.3c-0.1,0.2-0.1,0.3-0.1,0.5c0,0.3,0.1,0.5,0.3,0.7
		c0.2,0.2,0.5,0.3,0.9,0.3s0.8-0.1,1.1-0.3c0.3-0.2,0.6-0.4,0.7-0.7c0.1-0.2,0.2-0.6,0.2-1.1V435H446.9z"/>
	<path fill="#363639" d="M453.7,438.1v-0.8c-0.4,0.6-1,0.9-1.7,0.9c-0.5,0-1-0.1-1.4-0.4s-0.7-0.6-1-1.1c-0.2-0.5-0.3-1-0.3-1.7
		c0-0.6,0.1-1.2,0.3-1.7c0.2-0.5,0.5-0.9,0.9-1.2c0.4-0.3,0.9-0.4,1.4-0.4c0.4,0,0.7,0.1,1,0.2c0.3,0.2,0.5,0.4,0.7,0.6v-3.1h1.1
		v8.6h-1 M450.4,435c0,0.8,0.2,1.4,0.5,1.8s0.7,0.6,1.2,0.6s0.8-0.2,1.2-0.6c0.3-0.4,0.5-0.9,0.5-1.7c0-0.9-0.2-1.5-0.5-1.9
		s-0.7-0.6-1.2-0.6s-0.9,0.2-1.2,0.6C450.5,433.6,450.4,434.2,450.4,435L450.4,435z"/>
	<path fill="#363639" d="M456.2,430.7v-1.2h1.1v1.2H456.2 M456.2,438.1v-6.2h1.1v6.2H456.2L456.2,438.1z"/>
	<path fill="#363639" d="M462.8,437.4c-0.4,0.3-0.8,0.6-1.1,0.7c-0.4,0.1-0.8,0.2-1.2,0.2c-0.7,0-1.2-0.2-1.6-0.5s-0.6-0.8-0.6-1.3
		c0-0.3,0.1-0.6,0.2-0.8c0.1-0.3,0.3-0.5,0.6-0.6c0.2-0.1,0.5-0.3,0.8-0.3c0.2,0,0.5-0.1,0.9-0.2c0.9-0.1,1.5-0.2,1.9-0.4
		c0-0.1,0-0.2,0-0.3c0-0.4-0.1-0.7-0.3-0.9c-0.3-0.2-0.7-0.4-1.2-0.4s-0.9,0.1-1.1,0.3c-0.2,0.2-0.4,0.5-0.5,0.9l-1-0.1
		c0.1-0.4,0.3-0.8,0.5-1.1c0.2-0.3,0.5-0.5,0.9-0.6s0.9-0.2,1.4-0.2s1,0.1,1.3,0.2s0.6,0.3,0.7,0.5c0.2,0.2,0.3,0.4,0.3,0.7
		c0,0.2,0.1,0.5,0.1,1v1.4c0,1,0,1.6,0.1,1.9c0,0.3,0.1,0.5,0.3,0.7h-1.1C462.9,437.9,462.9,437.7,462.8,437.4 M462.8,435
		c-0.4,0.2-1,0.3-1.7,0.4c-0.4,0.1-0.7,0.1-0.9,0.2s-0.3,0.2-0.4,0.3c-0.1,0.2-0.1,0.3-0.1,0.5c0,0.3,0.1,0.5,0.3,0.7
		s0.5,0.3,0.9,0.3s0.8-0.1,1.1-0.3c0.3-0.2,0.6-0.4,0.7-0.7c0.1-0.2,0.2-0.6,0.2-1.1V435H462.8z"/>
	<polygon fill="#363639" points="465.5,438.1 465.5,429.5 466.5,429.5 466.5,438.1 	"/>
	<path fill="#363639" d="M468.6,440.6h-0.8c1.2-1.9,1.8-3.7,1.8-5.6c0-0.7-0.1-1.5-0.3-2.2c-0.1-0.6-0.3-1.1-0.6-1.7
		c-0.2-0.3-0.5-0.9-0.9-1.8h0.8c0.7,1,1.3,2,1.6,3c0.3,0.9,0.5,1.8,0.5,2.7c0,1.1-0.2,2.1-0.6,3.1
		C469.6,439,469.1,439.9,468.6,440.6L468.6,440.6z"/>
	<polygon fill="#363639" points="318.1,473.2 318.1,464.6 323.9,464.6 323.9,465.6 319.2,465.6 319.2,468.2 323.3,468.2 
		323.3,469.3 319.2,469.3 319.2,473.2 	"/>
	<polygon fill="#363639" points="325.3,473.2 325.3,464.6 331.5,464.6 331.5,465.6 326.4,465.6 326.4,468.2 331.2,468.2 
		331.2,469.2 326.4,469.2 326.4,472.2 331.7,472.2 331.7,473.2 	"/>
	<path fill="#363639" d="M336.8,473.2v-8.6h3c0.7,0,1.2,0,1.5,0.1c0.5,0.1,0.9,0.3,1.3,0.6c0.5,0.4,0.8,0.9,1,1.5s0.3,1.3,0.3,2
		s-0.1,1.2-0.2,1.7c-0.2,0.5-0.3,0.9-0.6,1.2c-0.2,0.3-0.5,0.6-0.8,0.8c-0.3,0.2-0.6,0.3-1,0.4s-0.9,0.1-1.4,0.1h-3.1 M337.9,472.2
		h1.8c0.6,0,1,0,1.3-0.2c0.3-0.1,0.6-0.3,0.8-0.5c0.3-0.3,0.5-0.6,0.6-1.1s0.2-1,0.2-1.7c0-0.9-0.2-1.6-0.4-2.1
		c-0.3-0.5-0.6-0.8-1.1-1c-0.3-0.1-0.8-0.2-1.5-0.2h-1.8v6.8H337.9z"/>
	<path fill="#363639" d="M344.9,470.1c0-1.2,0.3-2,1-2.6c0.5-0.5,1.2-0.7,2-0.7c0.9,0,1.5,0.3,2.1,0.8c0.5,0.6,0.8,1.3,0.8,2.3
		c0,0.8-0.1,1.4-0.4,1.9c-0.2,0.5-0.6,0.8-1.1,1.1c-0.5,0.2-1,0.4-1.5,0.4c-0.9,0-1.6-0.3-2.1-0.8
		C345.1,471.9,344.9,471.1,344.9,470.1 M346,470.1c0,0.8,0.2,1.4,0.5,1.8s0.8,0.6,1.3,0.6s1-0.2,1.3-0.6s0.5-1,0.5-1.8
		s-0.2-1.3-0.5-1.8c-0.4-0.4-0.8-0.6-1.3-0.6s-1,0.2-1.3,0.6C346.1,468.7,346,469.3,346,470.1L346,470.1z"/>
	<path fill="#363639" d="M352,473.2V467h0.9v0.9c0.2-0.3,0.4-0.5,0.8-0.7c0.3-0.2,0.7-0.3,1.1-0.3c0.5,0,0.8,0.1,1.1,0.3
		c0.3,0.2,0.5,0.5,0.6,0.8c0.5-0.7,1.1-1.1,1.9-1.1c0.6,0,1.1,0.2,1.4,0.5s0.5,0.9,0.5,1.6v4.3h-1.1v-3.9c0-0.4,0-0.7-0.1-0.9
		c-0.1-0.2-0.2-0.3-0.4-0.5c-0.2-0.1-0.4-0.2-0.6-0.2c-0.4,0-0.8,0.2-1.1,0.4s-0.4,0.8-0.4,1.4v3.6h-1.1v-4c0-0.5-0.1-0.8-0.3-1.1
		c-0.2-0.2-0.5-0.3-0.8-0.3s-0.6,0.1-0.8,0.2c-0.3,0.2-0.4,0.4-0.5,0.7c-0.1,0.3-0.2,0.7-0.2,1.3v3.2L352,473.2L352,473.2z"/>
	<path fill="#363639" d="M365.9,472.4c-0.4,0.3-0.8,0.6-1.1,0.7c-0.4,0.1-0.8,0.2-1.2,0.2c-0.7,0-1.2-0.2-1.6-0.5s-0.6-0.8-0.6-1.3
		c0-0.3,0.1-0.6,0.2-0.8c0.1-0.3,0.3-0.5,0.6-0.6c0.2-0.1,0.5-0.3,0.8-0.3c0.2,0,0.5-0.1,0.9-0.2c0.9-0.1,1.5-0.2,1.9-0.4
		c0-0.1,0-0.2,0-0.3c0-0.4-0.1-0.7-0.3-0.9c-0.3-0.2-0.7-0.4-1.2-0.4s-0.9,0.1-1.1,0.3c-0.2,0.2-0.4,0.5-0.5,0.9l-1-0.1
		c0.1-0.4,0.3-0.8,0.5-1.1c0.2-0.3,0.5-0.5,0.9-0.6s0.9-0.2,1.4-0.2s1,0.1,1.3,0.2s0.6,0.3,0.7,0.5c0.2,0.2,0.3,0.4,0.3,0.7
		c0,0.2,0.1,0.5,0.1,1v1.4c0,1,0,1.6,0.1,1.9s0.1,0.5,0.3,0.7h-1.1C366,472.9,365.9,472.7,365.9,472.4 M365.8,470
		c-0.4,0.2-1,0.3-1.7,0.4c-0.4,0.1-0.7,0.1-0.9,0.2c-0.2,0.1-0.3,0.2-0.4,0.3c-0.1,0.2-0.1,0.3-0.1,0.5c0,0.3,0.1,0.5,0.3,0.7
		s0.5,0.3,0.9,0.3s0.8-0.1,1.1-0.3c0.3-0.2,0.6-0.4,0.7-0.7c0.1-0.2,0.2-0.6,0.2-1.1V470H365.8z"/>
	<path fill="#363639" d="M368.6,465.8v-1.2h1.1v1.2H368.6 M368.6,473.2V467h1.1v6.2H368.6L368.6,473.2z"/>
	<path fill="#363639" d="M371.2,473.2V467h0.9v0.9c0.5-0.7,1.1-1,2-1c0.4,0,0.7,0.1,1,0.2s0.6,0.3,0.7,0.5c0.2,0.2,0.3,0.5,0.3,0.8
		c0,0.2,0.1,0.5,0.1,1v3.8h-1.1v-3.8c0-0.4,0-0.7-0.1-1c-0.1-0.2-0.2-0.4-0.4-0.5c-0.2-0.1-0.5-0.2-0.7-0.2c-0.5,0-0.9,0.1-1.2,0.4
		s-0.5,0.8-0.5,1.6v3.4h-1V473.2z"/>
	<path fill="#363639" d="M366.9,431.3c0-1.4,0.4-2.5,1.2-3.3c0.8-0.8,1.8-1.2,3-1.2c0.8,0,1.5,0.2,2.1,0.6s1.1,0.9,1.5,1.6
		c0.3,0.7,0.5,1.5,0.5,2.3c0,0.9-0.2,1.7-0.5,2.3c-0.4,0.7-0.9,1.2-1.5,1.6c-0.6,0.3-1.3,0.5-2.1,0.5c-0.8,0-1.5-0.2-2.2-0.6
		c-0.6-0.4-1.1-0.9-1.5-1.6C367.1,432.8,366.9,432.1,366.9,431.3 M368.1,431.3c0,1,0.3,1.8,0.8,2.4c0.6,0.6,1.3,0.9,2.1,0.9
		c0.9,0,1.6-0.3,2.1-0.9c0.6-0.6,0.8-1.5,0.8-2.6c0-0.7-0.1-1.3-0.4-1.8c-0.2-0.5-0.6-0.9-1-1.2s-1-0.4-1.5-0.4
		c-0.8,0-1.5,0.3-2.1,0.8C368.4,429.1,368.1,430,368.1,431.3L368.1,431.3z"/>
	<polygon fill="#363639" points="130.1,319.8 130.1,311.2 131.2,311.2 131.2,319.8 	"/>
	<polygon fill="#363639" points="133.2,319.8 133.2,311.2 134.4,311.2 138.9,318 138.9,311.2 140,311.2 140,319.8 138.8,319.8 
		134.3,313 134.3,319.8 	"/>
	<polygon fill="#363639" points="141.9,319.8 141.9,311.2 147.7,311.2 147.7,312.2 143.1,312.2 143.1,314.9 147.1,314.9 
		147.1,315.9 143.1,315.9 143.1,319.8 	"/>
	<polygon fill="#363639" points="149.5,319.8 149.5,311.2 150.7,311.2 150.7,319.8 	"/>
	<polygon fill="#363639" points="152.7,319.8 152.7,311.2 153.8,311.2 158.3,318 158.3,311.2 159.4,311.2 159.4,319.8 158.3,319.8 
		153.8,313 153.8,319.8 	"/>
	<path fill="#363639" d="M164.9,319.8h-1.1v-6.7c-0.3,0.2-0.6,0.5-1,0.7s-0.8,0.4-1.1,0.5v-1c0.6-0.3,1.1-0.6,1.5-1s0.7-0.8,0.9-1.2
		h0.7v8.7H164.9z"/>
	<path fill="#363639" d="M171.6,319.8h-1.1v-6.7c-0.3,0.2-0.6,0.5-1,0.7s-0.8,0.4-1.1,0.5v-1c0.6-0.3,1.1-0.6,1.5-1s0.7-0.8,0.9-1.2
		h0.7v8.7H171.6z"/>
	<path fill="#363639" d="M174.3,315.6c0-1,0.1-1.8,0.3-2.4s0.5-1.1,0.9-1.4s0.9-0.5,1.6-0.5c0.5,0,0.9,0.1,1.2,0.3
		c0.3,0.2,0.6,0.5,0.9,0.8c0.2,0.3,0.4,0.8,0.5,1.3s0.2,1.2,0.2,2c0,1-0.1,1.8-0.3,2.4s-0.5,1.1-0.9,1.4s-0.9,0.5-1.6,0.5
		c-0.8,0-1.5-0.3-2-0.9C174.6,318.3,174.3,317.2,174.3,315.6 M175.4,315.6c0,1.4,0.2,2.4,0.5,2.8c0.3,0.5,0.7,0.7,1.2,0.7
		s0.9-0.2,1.2-0.7s0.5-1.4,0.5-2.8s-0.2-2.4-0.5-2.8c-0.3-0.5-0.7-0.7-1.2-0.7s-0.9,0.2-1.2,0.6
		C175.6,313.2,175.4,314.2,175.4,315.6L175.4,315.6z"/>
	<path fill="#363639" d="M131.8,335.3c-0.6-0.7-1.1-1.6-1.5-2.6s-0.6-2-0.6-3.1c0-0.9,0.1-1.8,0.4-2.7c0.3-1,0.9-2,1.6-3h0.8
		c-0.5,0.8-0.8,1.4-0.9,1.7c-0.2,0.5-0.4,1.1-0.6,1.7c-0.2,0.7-0.3,1.5-0.3,2.2c0,1.9,0.6,3.7,1.8,5.6h-0.7V335.3z"/>
	<polygon fill="#363639" points="133.9,332.8 133.9,324.2 135.1,324.2 135.1,328.4 139.3,324.2 140.9,324.2 137.3,327.6 141,332.8 
		139.5,332.8 136.5,328.4 135.1,329.8 135.1,332.8 	"/>
	<polygon fill="#363639" points="141.9,332.8 141.9,324.2 148.1,324.2 148.1,325.2 143,325.2 143,327.8 147.8,327.8 147.8,328.8 
		143,328.8 143,331.8 148.3,331.8 148.3,332.8 	"/>
	<path fill="#363639" d="M152.5,332.8v-3.6l-3.3-5h1.4l1.7,2.6c0.3,0.5,0.6,1,0.9,1.5c0.3-0.4,0.6-0.9,0.9-1.5l1.7-2.5h1.3l-3.4,5
		v3.6h-1.2V332.8z"/>
	<path fill="#363639" d="M157.6,328.6c0-1.4,0.4-2.5,1.2-3.3s1.8-1.2,3-1.2c0.8,0,1.5,0.2,2.1,0.6s1.1,0.9,1.5,1.6
		c0.3,0.7,0.5,1.5,0.5,2.3c0,0.9-0.2,1.7-0.5,2.3c-0.4,0.7-0.9,1.2-1.5,1.6c-0.6,0.3-1.3,0.5-2.1,0.5s-1.5-0.2-2.2-0.6
		c-0.6-0.4-1.1-0.9-1.5-1.6C157.8,330.1,157.6,329.3,157.6,328.6 M158.8,328.6c0,1,0.3,1.8,0.8,2.4c0.6,0.6,1.3,0.9,2.1,0.9
		c0.9,0,1.6-0.3,2.1-0.9c0.6-0.6,0.8-1.5,0.8-2.6c0-0.7-0.1-1.3-0.4-1.8c-0.2-0.5-0.6-0.9-1-1.2c-0.5-0.3-1-0.4-1.5-0.4
		c-0.8,0-1.5,0.3-2.1,0.8S158.8,327.3,158.8,328.6L158.8,328.6z"/>
	<path fill="#363639" d="M167.3,332.8v-8.6h3.2c0.6,0,1,0,1.3,0.1c0.4,0.1,0.8,0.2,1.1,0.4c0.3,0.2,0.5,0.5,0.7,0.8
		c0.2,0.4,0.3,0.7,0.3,1.2c0,0.7-0.2,1.4-0.7,1.9s-1.3,0.8-2.5,0.8h-2.2v3.5L167.3,332.8 M168.5,328.3h2.2c0.7,0,1.2-0.1,1.6-0.4
		c0.3-0.3,0.5-0.7,0.5-1.2c0-0.4-0.1-0.7-0.3-0.9c-0.2-0.3-0.4-0.4-0.7-0.5c-0.2,0-0.6-0.1-1.1-0.1h-2.2V328.3L168.5,328.3z"/>
	<polygon fill="#363639" points="177.4,332.8 177.4,325.2 174.6,325.2 174.6,324.2 181.4,324.2 181.4,325.2 178.6,325.2 
		178.6,332.8 	"/>
	<path fill="#363639" d="M184.6,335.3c-0.6-0.7-1.1-1.6-1.5-2.6s-0.6-2-0.6-3.1c0-0.9,0.1-1.8,0.4-2.7c0.3-1,0.9-2,1.6-3h0.8
		c-0.5,0.8-0.8,1.4-0.9,1.7c-0.2,0.5-0.4,1.1-0.6,1.7c-0.2,0.7-0.3,1.5-0.3,2.2c0,1.9,0.6,3.7,1.8,5.6h-0.7V335.3z"/>
	<path fill="#363639" d="M191.9,331.8v1h-5.7c0-0.3,0-0.5,0.1-0.7c0.1-0.4,0.4-0.8,0.7-1.1c0.3-0.4,0.8-0.8,1.4-1.3
		c0.9-0.8,1.6-1.4,1.9-1.8c0.3-0.4,0.5-0.9,0.5-1.3s-0.2-0.8-0.5-1.1c-0.3-0.3-0.7-0.4-1.2-0.4s-0.9,0.2-1.2,0.5s-0.5,0.7-0.5,1.3
		l-1.1-0.1c0.1-0.8,0.3-1.4,0.8-1.8s1.1-0.6,2-0.6s1.5,0.2,2,0.7s0.7,1,0.7,1.7c0,0.3-0.1,0.7-0.2,1c-0.1,0.3-0.4,0.7-0.7,1
		c-0.3,0.4-0.9,0.9-1.6,1.5c-0.6,0.5-1,0.9-1.2,1.1s-0.3,0.4-0.4,0.6h4.2V331.8z"/>
	<path fill="#363639" d="M193.5,335.3h-0.8c1.2-1.9,1.8-3.7,1.8-5.6c0-0.7-0.1-1.5-0.3-2.2c-0.1-0.6-0.3-1.1-0.6-1.7
		c-0.2-0.3-0.5-0.9-0.9-1.8h0.8c0.7,1,1.3,2,1.6,3c0.3,0.9,0.5,1.8,0.5,2.7c0,1.1-0.2,2.1-0.6,3.1
		C194.6,333.7,194.1,334.5,193.5,335.3L193.5,335.3z"/>
	<path fill="#363639" d="M202.7,327.7H197v-1h5.7V327.7 M202.7,330.3H197v-1h5.7V330.3L202.7,330.3z"/>
	<path fill="#363639" d="M207.8,332.8h-1.1V326c-0.3,0.2-0.6,0.5-1,0.7s-0.8,0.4-1.1,0.5v-1c0.6-0.3,1.1-0.6,1.5-1s0.7-0.8,0.9-1.2
		h0.7v8.8H207.8z"/>
	<path fill="#363639" d="M211.3,335.3h-0.8c1.2-1.9,1.8-3.7,1.8-5.6c0-0.7-0.1-1.5-0.3-2.2c-0.1-0.6-0.3-1.1-0.6-1.7
		c-0.2-0.3-0.5-0.9-0.9-1.8h0.8c0.7,1,1.3,2,1.6,3c0.3,0.9,0.5,1.8,0.5,2.7c0,1.1-0.2,2.1-0.6,3.1
		C212.3,333.7,211.9,334.5,211.3,335.3L211.3,335.3z"/>
	<path fill="none" stroke="#000000" stroke-miterlimit="10" d="M199.5,337.6c16.5,9.8,23.2,12.8,24.3,10.4c0.8-1.9-1.4-8.1-0.3-9.4
		c1.7-2,7.7,4.7,24.6,17.2"/>
	<polygon points="248,355.8 247.7,356.2 239,352.6 242.7,347.9 248.3,355.4 	"/>
</g>
</svg>
