<?xml version="1.0" encoding="utf-8"?>
<!-- Generator: Adobe Illustrator 14.0.0, SVG Export Plug-In . SVG Version: 6.00 Build 43363)  -->

<svg version="1.1" id="Layer_1" xmlns="http://www.w3.org/2000/svg" xmlns:xlink="http://www.w3.org/1999/xlink" x="0px" y="0px"
	 width="397px" height="223px" viewBox="0 0 397 223" enable-background="new 0 0 397 223" xml:space="preserve">
<g>
	<rect fill="#FFFFFF" width="397" height="223"/>
	<path fill="none" stroke="#000000" stroke-miterlimit="10" d="M168,81l-6.7,19.2 M269.3,77.7l-0.7,14.5 M84,24v144h294"/>
	<polygon points="84,24 84.5,24 87,33 81,33 83.5,24 	"/>
	<polygon points="378,168 378,168.5 369,171 369,165 378,167.5 	"/>
	<line fill="none" stroke="#000000" stroke-miterlimit="10" x1="84" y1="168" x2="21" y2="198"/>
	<polygon points="21,198 20.8,197.5 27.8,191.4 30.4,196.8 21.2,198.5 	"/>
	<line fill="none" stroke="#000000" stroke-miterlimit="10" x1="171" y1="81" x2="267" y2="78"/>
	<polygon points="267,78 267,78.5 258.1,81.3 257.9,75.3 267,77.5 	"/>
	<line fill="none" stroke="#000000" stroke-miterlimit="10" x1="165" y1="102" x2="267" y2="93"/>
	<polygon points="267,93 267,93.5 258.3,96.8 257.8,90.8 267,92.5 	"/>
	<path fill="none" stroke="#000000" stroke-miterlimit="10" d="M123,81c9,6,15,12,18,9s-3-6,0-9s9,0,18,9"/>
	<polygon points="159,90 158.7,90.4 150.1,86.7 153.8,82 159.3,89.6 	"/>
	<path fill="none" stroke="#000000" stroke-miterlimit="10" d="M208.5,100.5c-6,9-12,15-9,18s6-3,9,0s0,9-9,18"/>
	<polygon points="208.5,100.5 208.9,100.8 205.8,109.6 200.9,106.2 208.1,100.2 	"/>
	<path fill="none" stroke="#000000" stroke-miterlimit="10" d="M220.5,42c-6,9-12,15-9,18s6-3,9,0s0,9-9,18"/>
	<polygon points="211.5,78 211.1,77.7 214.8,69.1 219.5,72.8 211.9,78.3 	"/>
	<path fill="none" stroke="#000000" stroke-miterlimit="10" d="M276,84c9,6,15,12,18,9s-3-6,0-9s9,0,18,9"/>
	<polygon points="276,84 276.3,83.6 285.1,86.7 281.7,91.6 275.7,84.4 	"/>
	<path fill="#363639" d="M81.2,19.8v-1.1l4.4-5.5c0.3-0.4,0.6-0.7,0.9-1h-4.8v-1h6.1v1l-4.8,6l-0.5,0.6H88v1H81.2L81.2,19.8z"/>
	<path fill="#363639" d="M9.8,210.1l3.3-4.5l-2.9-4.1h1.4l1.6,2.2c0.3,0.5,0.5,0.8,0.7,1.1c0.2-0.3,0.4-0.6,0.7-1l1.7-2.3h1.2
		l-3,4.1l3.3,4.5h-1.4l-2.2-3.1c-0.1-0.2-0.3-0.4-0.4-0.6c-0.2,0.3-0.3,0.5-0.4,0.6l-2.2,3L9.8,210.1L9.8,210.1z"/>
	<path fill="#363639" d="M383.1,173.9V170.3l-3.3-5h1.4l1.7,2.601c0.3,0.5,0.6,1,0.899,1.5c0.3-0.4,0.601-0.9,0.9-1.5l1.7-2.5h1.3
		l-3.4,5v3.6h-1.2V173.9z"/>
	<path fill="#363639" d="M117.3,77.6v-0.8c-0.399,0.601-1,0.9-1.7,0.9c-0.5,0-1-0.101-1.399-0.4c-0.4-0.3-0.7-0.6-1-1.1
		c-0.2-0.5-0.3-1-0.3-1.7c0-0.6,0.1-1.2,0.3-1.7s0.5-0.899,0.899-1.2c0.4-0.3,0.9-0.399,1.4-0.399c0.4,0,0.7,0.1,1,0.2
		c0.3,0.199,0.5,0.399,0.7,0.6v-3h1.1v8.6H117.3 M113.9,74.5c0,0.8,0.199,1.4,0.5,1.8c0.3,0.4,0.699,0.601,1.199,0.601
		s0.801-0.2,1.2-0.601c0.3-0.399,0.5-0.899,0.5-1.7c0-0.899-0.2-1.5-0.5-1.899c-0.3-0.4-0.7-0.601-1.2-0.601S114.7,72.3,114.4,72.7
		C114.1,73.1,113.9,73.7,113.9,74.5L113.9,74.5z"/>
	<path fill="#363639" d="M119.7,74.9l1.1-0.101c0,0.4,0.2,0.8,0.4,1.101c0.2,0.3,0.5,0.5,0.899,0.699
		c0.4,0.2,0.801,0.301,1.301,0.301c0.399,0,0.8-0.101,1.1-0.2c0.3-0.101,0.6-0.3,0.7-0.5c0.2-0.2,0.2-0.5,0.2-0.7
		c0-0.3-0.101-0.5-0.2-0.7c-0.2-0.2-0.4-0.399-0.8-0.5c-0.2-0.1-0.7-0.2-1.5-0.399c-0.801-0.2-1.301-0.4-1.7-0.5
		c-0.4-0.2-0.7-0.5-0.9-0.801c-0.2-0.3-0.3-0.699-0.3-1.1s0.1-0.8,0.4-1.2c0.199-0.399,0.6-0.7,1.1-0.899c0.5-0.2,1-0.301,1.6-0.301
		c0.601,0,1.2,0.101,1.7,0.301c0.5,0.199,0.9,0.5,1.101,0.899c0.3,0.4,0.399,0.9,0.399,1.4l-1.1,0.1c-0.101-0.5-0.3-0.899-0.601-1.2
		c-0.3-0.3-0.8-0.399-1.5-0.399c-0.699,0-1.199,0.1-1.5,0.399c-0.3,0.301-0.5,0.601-0.5,0.9s0.101,0.6,0.301,0.8
		c0.199,0.2,0.8,0.4,1.699,0.601C124,73.1,124.7,73.3,125,73.4c0.5,0.199,0.9,0.5,1.1,0.899c0.2,0.4,0.4,0.8,0.4,1.2
		s-0.1,0.9-0.4,1.3c-0.3,0.4-0.6,0.7-1.1,0.9s-1,0.3-1.7,0.3c-0.8,0-1.399-0.1-2-0.3c-0.6-0.2-0.899-0.601-1.2-1
		C119.9,76,119.7,75.5,119.7,74.9L119.7,74.9z"/>
	<path fill="#363639" d="M189.6,144.6c0.301,0,0.5-0.1,0.7-0.199c0.2-0.101,0.3-0.4,0.4-0.601c0.1-0.3,0.1-0.7,0.1-1.399
		c0-0.601,0-1.101,0-1.301c0-0.3,0.101-0.6,0.2-0.8s0.2-0.3,0.3-0.5c0.101-0.1,0.3-0.2,0.601-0.3c0.1,0,0.399-0.1,0.699-0.1h0.301
		v0.899h-0.2c-0.4,0-0.7,0.101-0.8,0.2c-0.101,0.1-0.2,0.5-0.2,1c0,1,0,1.7-0.101,1.9c-0.1,0.399-0.199,0.8-0.399,1
		c-0.2,0.199-0.4,0.399-0.8,0.6c0.399,0.2,0.699,0.5,0.899,0.8c0.2,0.4,0.3,1,0.3,1.8c0,0.7,0,1.2,0,1.301
		c0,0.3,0.101,0.399,0.2,0.6c0.101,0.1,0.4,0.2,0.7,0.2h0.2v0.899h-0.3c-0.4,0-0.7,0-0.801-0.1c-0.299-0.1-0.5-0.3-0.6-0.4
		c-0.2-0.199-0.3-0.5-0.3-0.8s-0.101-0.8-0.101-1.5s0-1.2-0.1-1.5s-0.2-0.5-0.4-0.6c-0.199-0.2-0.399-0.2-0.699-0.3V144.6H189.6
		L189.6,144.6z"/>
	<path fill="#363639" d="M198.2,148.2v-0.9c-0.5,0.7-1.2,1-2,1c-0.4,0-0.7-0.1-1-0.2c-0.3-0.1-0.601-0.3-0.7-0.5
		c-0.2-0.199-0.3-0.5-0.3-0.8c0-0.2-0.101-0.5-0.101-1V142h1.101v3.5c0,0.6,0,0.9,0.1,1.1c0.101,0.301,0.2,0.5,0.4,0.601
		c0.2,0.2,0.5,0.2,0.8,0.2s0.6-0.101,0.9-0.2c0.3-0.2,0.5-0.4,0.6-0.7s0.2-0.7,0.2-1.2V142h1.1v6.2H198.2L198.2,148.2z"/>
	<path fill="#363639" d="M203.5,144.6v1c-0.3,0-0.6,0.101-0.7,0.301c-0.2,0.199-0.3,0.399-0.399,0.6c-0.101,0.3-0.101,0.7-0.101,1.4
		c0,0.699,0,1.1,0,1.3c0,0.3-0.1,0.6-0.2,0.8c-0.1,0.2-0.199,0.4-0.399,0.5c-0.101,0.1-0.3,0.2-0.5,0.3c-0.2,0-0.4,0.101-0.7,0.101
		h-0.3V150h0.2c0.399,0,0.699-0.1,0.8-0.2c0.1-0.1,0.2-0.5,0.2-1c0-1,0-1.6,0-1.8c0.1-0.4,0.199-0.8,0.399-1s0.5-0.5,0.8-0.6
		c-0.5-0.2-0.8-0.5-0.899-0.9c-0.2-0.3-0.3-0.9-0.3-1.8c0-0.8,0-1.2,0-1.4c0-0.3-0.101-0.399-0.2-0.5c-0.101-0.1-0.4-0.2-0.7-0.2
		h-0.2V139.7h0.3c0.4,0,0.7,0,0.801,0.1c0.199,0.101,0.399,0.2,0.6,0.4s0.3,0.5,0.3,0.8s0.101,0.8,0.101,1.5s0,1.2,0.1,1.5
		s0.2,0.5,0.4,0.6C202.9,144.5,203.2,144.6,203.5,144.6L203.5,144.6z"/>
	<path fill="#363639" d="M203.7,33c0.3,0,0.5-0.1,0.7-0.2c0.199-0.1,0.3-0.399,0.399-0.6c0.101-0.3,0.101-0.7,0.101-1.4
		c0-0.6,0-1.1,0-1.3c0-0.3,0.1-0.6,0.199-0.8c0.101-0.2,0.2-0.3,0.301-0.5c0.1-0.101,0.3-0.2,0.6-0.3c0.1,0,0.4-0.101,0.7-0.101h0.3
		v0.9h-0.2c-0.399,0-0.7,0.1-0.8,0.2c-0.1,0.1-0.2,0.5-0.2,1c0,1,0,1.699-0.1,1.899c-0.101,0.4-0.2,0.8-0.4,1s-0.399,0.4-0.8,0.601
		c0.4,0.199,0.7,0.5,0.9,0.8c0.199,0.399,0.3,1,0.3,1.8c0,0.7,0,1.2,0,1.3c0,0.3,0.1,0.4,0.2,0.601C206,38,206.3,38.1,206.6,38.1
		h0.2V39h-0.3c-0.4,0-0.7,0-0.8-0.1c-0.3-0.101-0.5-0.301-0.601-0.4c-0.199-0.2-0.299-0.5-0.299-0.8s-0.101-0.8-0.101-1.5
		s0-1.2-0.101-1.5c-0.1-0.3-0.199-0.5-0.399-0.601c-0.2-0.1-0.399-0.199-0.7-0.3V33H203.7z"/>
	<path fill="#363639" d="M212.1,36.6V35.7c-0.5,0.7-1.199,1-2,1c-0.399,0-0.699-0.101-1-0.2c-0.3-0.1-0.6-0.3-0.699-0.5
		c-0.101-0.2-0.301-0.5-0.301-0.8c0-0.2-0.1-0.5-0.1-1v-3.9h1.1v3.5c0,0.601,0,0.9,0.101,1.101c0.1,0.3,0.2,0.5,0.399,0.6
		c0.2,0.2,0.5,0.2,0.801,0.2c0.3,0,0.6-0.101,0.899-0.2c0.3-0.2,0.5-0.4,0.601-0.7c0.1-0.3,0.199-0.7,0.199-1.2v-3.3h1.101v6.2
		L212.1,36.6L212.1,36.6z"/>
	<polygon fill="#363639" points="220.3,35.2 220.3,32.9 218,32.9 218,31.9 220.3,31.9 220.3,29.5 221.3,29.5 221.3,31.9 223.7,31.9 
		223.7,32.9 221.3,32.9 221.3,35.2 	"/>
	<path fill="#363639" d="M232.5,36.6v-0.8c-0.4,0.601-1,0.9-1.7,0.9c-0.5,0-1-0.101-1.399-0.4c-0.4-0.3-0.7-0.6-1-1.1
		c-0.2-0.5-0.301-1-0.301-1.7c0-0.6,0.101-1.2,0.301-1.7c0.199-0.5,0.5-0.899,0.899-1.2c0.4-0.3,0.9-0.399,1.4-0.399
		c0.399,0,0.7,0.1,1,0.2c0.3,0.199,0.5,0.399,0.7,0.6v-3h1.1v8.6H232.5 M229.1,33.5c0,0.8,0.2,1.4,0.5,1.8
		c0.301,0.4,0.7,0.601,1.2,0.601s0.8-0.2,1.2-0.601c0.3-0.399,0.5-0.899,0.5-1.7c0-0.899-0.2-1.5-0.5-1.899
		c-0.3-0.4-0.7-0.601-1.2-0.601s-0.899,0.2-1.2,0.601C229.3,32.1,229.1,32.7,229.1,33.5L229.1,33.5z"/>
	<path fill="#363639" d="M239.2,36.6V35.7c-0.5,0.7-1.2,1-2,1c-0.4,0-0.7-0.101-1-0.2s-0.601-0.3-0.7-0.5s-0.3-0.5-0.3-0.8
		c0-0.2-0.101-0.5-0.101-1v-3.9h1.101v3.5c0,0.601,0,0.9,0.1,1.101c0.101,0.3,0.2,0.5,0.4,0.6c0.2,0.2,0.5,0.2,0.8,0.2
		s0.6-0.101,0.9-0.2c0.3-0.2,0.5-0.4,0.6-0.7s0.2-0.7,0.2-1.2v-3.3h1.1v6.2L239.2,36.6L239.2,36.6z"/>
	<path fill="#363639" d="M244.8,33v1c-0.3,0-0.6,0.1-0.7,0.3c-0.199,0.2-0.3,0.4-0.399,0.601C243.6,35.2,243.6,35.6,243.6,36.3
		s0,1.101,0,1.3c0,0.301-0.1,0.601-0.199,0.801c-0.101,0.199-0.2,0.399-0.4,0.5c-0.1,0.1-0.3,0.199-0.5,0.3c-0.2,0-0.4,0.1-0.7,0.1
		h-0.3V38.4h0.2c0.399,0,0.7-0.101,0.8-0.2c0.1-0.101,0.2-0.5,0.2-1c0-1,0-1.601,0-1.8c0.1-0.4,0.2-0.801,0.399-1
		c0.2-0.301,0.5-0.5,0.801-0.601c-0.5-0.2-0.801-0.5-0.9-0.899c-0.2-0.301-0.3-0.9-0.3-1.801c0-0.8,0-1.199,0-1.399
		c0-0.3-0.101-0.4-0.2-0.5c-0.1-0.101-0.4-0.2-0.7-0.2h-0.2v-0.9h0.301c0.399,0,0.699,0,0.799,0.101c0.201,0.1,0.4,0.2,0.601,0.399
		c0.2,0.2,0.3,0.5,0.3,0.801c0,0.3,0.1,0.8,0.1,1.5c0,0.699,0,1.199,0.101,1.5c0.101,0.3,0.2,0.5,0.399,0.6
		C244.2,32.9,244.4,33,244.8,33L244.8,33z"/>
	<path fill="#363639" d="M322,98.8V98c-0.4,0.6-1,0.9-1.7,0.9c-0.5,0-1-0.101-1.399-0.4c-0.4-0.3-0.7-0.6-1-1.1
		c-0.2-0.5-0.301-1-0.301-1.7c0-0.601,0.101-1.2,0.301-1.7c0.199-0.5,0.5-0.9,0.899-1.2c0.4-0.3,0.9-0.399,1.4-0.399
		c0.399,0,0.7,0.1,1,0.199c0.3,0.2,0.5,0.4,0.7,0.601V90.1h1.1V98.7h-1 M318.7,95.7c0,0.8,0.2,1.399,0.5,1.8s0.7,0.6,1.2,0.6
		s0.8-0.199,1.199-0.6c0.301-0.4,0.5-0.9,0.5-1.7c0-0.899-0.199-1.5-0.5-1.899c-0.3-0.4-0.699-0.601-1.199-0.601s-0.9,0.2-1.2,0.601
		C318.8,94.2,318.7,94.8,318.7,95.7L318.7,95.7z"/>
	<path fill="#363639" d="M324.3,96.9l1-0.2c0,0.399,0.2,0.7,0.5,1c0.3,0.2,0.601,0.3,1.101,0.3s0.8-0.1,1.1-0.3
		c0.2-0.2,0.3-0.4,0.3-0.7c0-0.2-0.1-0.4-0.3-0.6c-0.1-0.101-0.5-0.2-1.1-0.4c-0.801-0.2-1.301-0.4-1.601-0.5s-0.5-0.3-0.7-0.6
		C324.4,94.6,324.4,94.4,324.4,94.1c0-0.3,0.1-0.5,0.199-0.8c0.101-0.2,0.301-0.399,0.5-0.6c0.2-0.101,0.4-0.2,0.7-0.3
		c0.3-0.101,0.601-0.101,0.9-0.101c0.5,0,0.899,0.101,1.3,0.2s0.6,0.3,0.8,0.6c0.2,0.2,0.3,0.601,0.4,1l-1,0.101
		c0-0.3-0.2-0.601-0.4-0.7c-0.2-0.2-0.5-0.3-0.899-0.3c-0.5,0-0.801,0.1-1,0.2c-0.2,0.199-0.301,0.3-0.301,0.6
		c0,0.1,0,0.3,0.101,0.4c0.1,0.1,0.2,0.199,0.399,0.3c0.101,0,0.4,0.1,0.9,0.3c0.7,0.2,1.3,0.4,1.6,0.5c0.301,0.1,0.5,0.3,0.7,0.6
		c0.2,0.2,0.3,0.5,0.3,0.9s-0.1,0.7-0.3,1s-0.5,0.5-0.899,0.7C328,98.9,327.6,99,327.1,99c-0.8,0-1.399-0.2-1.8-0.5
		C324.6,98.1,324.4,97.6,324.3,96.9L324.3,96.9z"/>
</g>
</svg>
