<?xml version="1.0" encoding="utf-8"?>
<!-- Generator: Adobe Illustrator 14.0.0, SVG Export Plug-In . SVG Version: 6.00 Build 43363)  -->

<svg version="1.1" id="Layer_1" xmlns="http://www.w3.org/2000/svg" xmlns:xlink="http://www.w3.org/1999/xlink" x="0px" y="0px"
	 width="406.4px" height="175.9px" viewBox="0 0 406.4 175.9" enable-background="new 0 0 406.4 175.9" xml:space="preserve">
<polyline fill="none" stroke="#000000" points="106.2,149.4 183.7,52.9 406.4,52.9 "/>
<polyline fill="none" stroke="#000000" points="18.4,52.9 136.4,52.9 64.2,142.4 "/>
<line fill="none" stroke="#000000" x1="213.5" y1="57.9" x2="200.2" y2="72.9"/>
<line fill="none" stroke="#000000" x1="197" y1="57.9" x2="183.7" y2="72.9"/>
<line fill="none" stroke="#000000" x1="247.899" y1="57.9" x2="234.601" y2="72.9"/>
<line fill="none" stroke="#000000" x1="231.5" y1="57.9" x2="218.2" y2="72.9"/>
<line fill="none" stroke="#000000" x1="280.399" y1="57.9" x2="267.101" y2="72.9"/>
<line fill="none" stroke="#000000" x1="263.899" y1="57.9" x2="250.601" y2="72.9"/>
<line fill="none" stroke="#000000" x1="314.899" y1="57.9" x2="301.601" y2="72.9"/>
<line fill="none" stroke="#000000" x1="298.399" y1="57.9" x2="285.101" y2="72.9"/>
<line fill="none" stroke="#000000" x1="348.399" y1="57.9" x2="335.101" y2="72.9"/>
<line fill="none" stroke="#000000" x1="331.899" y1="57.9" x2="318.601" y2="72.9"/>
<line fill="none" stroke="#000000" x1="382.8" y1="57.9" x2="369.5" y2="72.9"/>
<line fill="none" stroke="#000000" x1="366.399" y1="57.9" x2="353.101" y2="72.9"/>
<line fill="none" stroke="#000000" x1="398.8" y1="57.9" x2="385.5" y2="72.9"/>
<line fill="none" stroke="#000000" x1="79.5" y1="57.9" x2="66.2" y2="72.9"/>
<line fill="none" stroke="#000000" x1="62" y1="57.9" x2="48.7" y2="72.9"/>
<line fill="none" stroke="#000000" x1="114" y1="57.9" x2="100.7" y2="72.9"/>
<line fill="none" stroke="#000000" x1="97.5" y1="57.9" x2="84.2" y2="72.9"/>
<line fill="none" stroke="#000000" x1="45" y1="57.9" x2="31.7" y2="72.9"/>
<line fill="none" stroke="#000000" x1="27.6" y1="57.9" x2="14.3" y2="72.9"/>
<circle stroke="#000000" cx="159.4" cy="52.9" r="2"/>
<path fill="none" stroke="#000000" d="M159.3,52.7c-0.5-7,6.3-11.3,10.9-13.6c12.5-6.301,29.1-7.601,39-8.101
	c25.199-1.3,66.4-2.1,100.8-2"/>
<g>
	<g enable-background="new    ">
		<path fill="#010101" d="M144.979,48.488v-6.302h4.695v0.744h-3.836v1.93h3.592v0.74h-3.592v2.145h3.986v0.744H144.979z"/>
	</g>
	<g enable-background="new    ">
		<path fill="#010101" d="M150.38,48.488l2.511-3.284l-2.215-3.018h1.023l1.178,1.617c0.245,0.335,0.419,0.593,0.522,0.773
			c0.145-0.229,0.316-0.468,0.514-0.718l1.307-1.672h0.935l-2.281,2.971l2.458,3.332h-1.063l-1.634-2.249
			c-0.092-0.129-0.186-0.269-0.284-0.421c-0.145,0.229-0.248,0.387-0.31,0.473l-1.63,2.197H150.38z"/>
	</g>
	<g enable-background="new    ">
		<path fill="#010101" d="M141.745,45.518v-6.793h-2.615v-0.909h6.291v0.909h-2.625v6.793H141.745z"/>
	</g>
</g>
<polygon points="309.899,31.5 319.5,28.9 309.899,26.3 "/>
<path fill="none" stroke="#000000" d="M0,41.6C60.7,44.4,94.4,28.8,132.3,15.1C180.7-2.4,212.7,2.7,250.7,2.5"/>
<polygon points="250.2,5.2 259.8,2.6 250.2,0 "/>
<g>
	<g enable-background="new    ">
		<path fill="#010101" d="M41.005,31.821v-6.302h4.38v0.744h-3.521v1.952h3.047v0.744h-3.047v2.863H41.005z"/>
		<path fill="#010101" d="M46.21,29.796l0.81-0.069c0.039,0.315,0.128,0.574,0.268,0.776c0.14,0.202,0.358,0.365,0.653,0.49
			c0.295,0.125,0.627,0.187,0.997,0.187c0.328,0,0.617-0.047,0.868-0.142c0.251-0.095,0.438-0.225,0.561-0.389
			c0.122-0.165,0.184-0.345,0.184-0.54c0-0.198-0.059-0.371-0.177-0.518s-0.313-0.271-0.584-0.372
			c-0.174-0.066-0.56-0.168-1.156-0.308c-0.596-0.139-1.014-0.27-1.253-0.394c-0.31-0.157-0.541-0.353-0.693-0.586
			c-0.152-0.234-0.229-0.495-0.229-0.785c0-0.318,0.093-0.615,0.279-0.892c0.186-0.276,0.458-0.486,0.815-0.63
			c0.357-0.143,0.754-0.215,1.191-0.215c0.481,0,0.906,0.075,1.273,0.226s0.65,0.372,0.848,0.665
			c0.198,0.292,0.304,0.623,0.319,0.993l-0.824,0.061c-0.044-0.398-0.194-0.7-0.45-0.903c-0.255-0.204-0.632-0.305-1.131-0.305
			c-0.52,0-0.898,0.092-1.136,0.277c-0.238,0.185-0.356,0.408-0.356,0.668c0,0.227,0.084,0.413,0.252,0.559
			c0.165,0.146,0.597,0.296,1.295,0.449s1.177,0.288,1.438,0.402c0.378,0.169,0.657,0.383,0.837,0.643
			c0.18,0.26,0.27,0.559,0.27,0.896c0,0.335-0.099,0.651-0.297,0.948c-0.198,0.297-0.482,0.527-0.853,0.692
			c-0.371,0.165-0.788,0.247-1.251,0.247c-0.588,0-1.08-0.083-1.477-0.25c-0.397-0.166-0.709-0.416-0.935-0.75
			C46.34,30.595,46.222,30.218,46.21,29.796z"/>
	</g>
	<g enable-background="new    ">
		<path fill="#010101" d="M37.745,28.852v-6.793H35.13V21.15h6.291v0.909h-2.625v6.793H37.745z"/>
	</g>
</g>
<line fill="none" stroke="#000000" x1="110.8" y1="110.4" x2="68.7" y2="160.4"/>
<polygon points="112.5,112.5 116.5,103.5 108.5,109.3 "/>
<line fill="none" stroke="#000000" x1="144.9" y1="107.3" x2="143.2" y2="119.4"/>
<line fill="none" stroke="#000000" x1="133.9" y1="120.9" x2="132.2" y2="133"/>
<line fill="none" stroke="#000000" x1="166.6" y1="80.6" x2="164.9" y2="92.6"/>
<line fill="none" stroke="#000000" x1="156.3" y1="93.4" x2="154.5" y2="105.4"/>
<line fill="none" stroke="#000000" x1="123.2" y1="134.1" x2="121.5" y2="146.2"/>
<line fill="none" stroke="#000000" x1="85.9" y1="107.8" x2="74.5" y2="113.7"/>
<line fill="none" stroke="#000000" x1="73.9" y1="121.4" x2="62.5" y2="127.3"/>
<line fill="none" stroke="#000000" x1="107.6" y1="81.1" x2="96.2" y2="86.9"/>
<line fill="none" stroke="#000000" x1="97.3" y1="93.9" x2="85.8" y2="99.7"/>
<g enable-background="new    ">
	<path d="M50.25,172.656c-0.384,0.191-1.151,0.384-2.135,0.384c-2.279,0-3.994-1.439-3.994-4.09c0-2.53,1.715-4.246,4.222-4.246
		c1.008,0,1.643,0.216,1.919,0.36l-0.252,0.852c-0.396-0.192-0.959-0.336-1.631-0.336c-1.895,0-3.154,1.211-3.154,3.334
		c0,1.979,1.139,3.25,3.106,3.25c0.636,0,1.283-0.132,1.703-0.336L50.25,172.656z"/>
	<path d="M56.646,169.969c0,2.146-1.487,3.082-2.89,3.082c-1.571,0-2.783-1.151-2.783-2.986c0-1.942,1.271-3.082,2.878-3.082
		C55.52,166.983,56.646,168.194,56.646,169.969z M52.041,170.029c0,1.271,0.732,2.231,1.763,2.231c1.007,0,1.763-0.948,1.763-2.255
		c0-0.983-0.492-2.231-1.739-2.231C52.581,167.774,52.041,168.926,52.041,170.029z"/>
	<path d="M63.234,169.969c0,2.146-1.487,3.082-2.89,3.082c-1.571,0-2.783-1.151-2.783-2.986c0-1.942,1.271-3.082,2.878-3.082
		C62.107,166.983,63.234,168.194,63.234,169.969z M58.629,170.029c0,1.271,0.732,2.231,1.763,2.231c1.007,0,1.763-0.948,1.763-2.255
		c0-0.983-0.492-2.231-1.739-2.231C59.169,167.774,58.629,168.926,58.629,170.029z"/>
	<path d="M64.569,164.404h1.056v8.516h-1.056V164.404z"/>
	<path d="M70.616,172.92l-0.084-0.731h-0.036c-0.324,0.456-0.947,0.863-1.775,0.863c-1.175,0-1.775-0.827-1.775-1.667
		c0-1.403,1.247-2.171,3.49-2.159v-0.119c0-0.48-0.132-1.344-1.319-1.344c-0.54,0-1.104,0.168-1.511,0.432l-0.24-0.695
		c0.48-0.312,1.175-0.516,1.907-0.516c1.775,0,2.207,1.211,2.207,2.374v2.171c0,0.504,0.024,0.996,0.096,1.392H70.616z
		 M70.459,169.958c-1.151-0.024-2.458,0.18-2.458,1.307c0,0.684,0.456,1.008,0.996,1.008c0.755,0,1.235-0.479,1.403-0.972
		c0.036-0.107,0.06-0.228,0.06-0.336V169.958z"/>
	<path d="M73.185,168.686c0-0.6-0.012-1.092-0.048-1.571h0.936l0.06,0.959h0.024c0.288-0.552,0.959-1.091,1.919-1.091
		c0.803,0,2.051,0.479,2.051,2.471v3.466h-1.056v-3.346c0-0.936-0.348-1.716-1.343-1.716c-0.695,0-1.235,0.492-1.415,1.08
		c-0.048,0.132-0.072,0.312-0.072,0.491v3.49h-1.056V168.686z"/>
	<path d="M81.068,165.448v1.667h1.511v0.804h-1.511v3.13c0,0.72,0.204,1.128,0.792,1.128c0.276,0,0.479-0.036,0.611-0.072
		l0.048,0.791c-0.204,0.084-0.528,0.145-0.936,0.145c-0.492,0-0.888-0.156-1.14-0.444c-0.3-0.312-0.408-0.827-0.408-1.511v-3.166
		h-0.899v-0.804h0.899v-1.392L81.068,165.448z"/>
</g>
</svg>
