<?xml version="1.0" encoding="utf-8"?>
<!-- Generator: Adobe Illustrator 14.0.0, SVG Export Plug-In . SVG Version: 6.00 Build 43363)  -->

<svg version="1.1" id="Layer_1" xmlns="http://www.w3.org/2000/svg" xmlns:xlink="http://www.w3.org/1999/xlink" x="0px" y="0px"
	 width="349px" height="201px" viewBox="0 0 349 201" enable-background="new 0 0 349 201" xml:space="preserve">
<g>
	<rect fill="#FFFFFF" width="349" height="201"/>
	<path fill="none" stroke="#000000" stroke-miterlimit="10" d="M269.6,77l2.9-7.6 M272.5,69.2l-8.2-2.4l-12.6-2.5l-13-1.5l-13.3-0.5
		l-13.5,0.4L198.3,64.1l-13.5,2.4l-13.3,3.4l-12.9,4.3L146.2,79.4l-11.9,6L123.1,92.1L112.7,99.6l-9.5,8.101l-9.9,9.7 M268.6,76.5
		l-13-2.2l-13-1.5l-13.3-0.5l-13.5,0.4L202.3,74.1l-13.5,2.4l-13.3,3.4l-12.9,4.3l-12.5,5.2l-11.899,6L127,102.1l-10.4,7.5
		l-9.5,8.101l-10,8.8 M93.1,117.9l-2.5,2.5 M90.2,120.8L97,126 M13,24.1v162h315"/>
	<polygon points="13,24.1 13.5,24.1 16,33.1 10,33.1 12.5,24.1 	"/>
	<polygon points="328,186.1 328,186.6 319,189.1 319,183.1 328,185.6 	"/>
	<polyline fill="none" stroke="#000000" stroke-miterlimit="10" points="82,78.1 97,69.1 97,57.1 	"/>
	<polygon points="82,78.1 81.7,77.7 88.2,70.9 91.3,76.1 82.3,78.5 	"/>
	<polyline fill="none" stroke="#000000" stroke-miterlimit="10" points="67,108.1 55,120.1 55,129.1 	"/>
	<polygon points="67,108.1 67.4,108.5 62.8,116.6 58.5,112.4 66.6,107.8 	"/>
	<line fill="none" stroke="#000000" stroke-miterlimit="10" x1="97" y1="126.1" x2="52" y2="93.1"/>
	<polygon points="52,93.1 52.3,92.7 61,96 57.5,100.9 51.7,93.5 	"/>
	<line fill="none" stroke="#000000" stroke-miterlimit="10" x1="97" y1="126.1" x2="76" y2="66.1"/>
	<polygon points="76,66.1 76.5,66 81.8,73.6 76.1,75.6 75.5,66.3 	"/>
	<line fill="none" stroke="#000000" stroke-miterlimit="10" x1="97" y1="126.1" x2="142" y2="72.1"/>
	<polygon points="142,72.1 142.4,72.4 138.5,81 133.9,77.1 141.6,71.8 	"/>
	<line fill="none" stroke="#000000" stroke-miterlimit="10" x1="97" y1="126.1" x2="165.7" y2="107.4"/>
	<polygon points="165.7,107.4 165.9,107.9 157.8,112.7 156.3,106.9 165.6,106.9 	"/>
	<line fill="none" stroke="#000000" stroke-miterlimit="10" x1="97" y1="126.1" x2="304" y2="69.1"/>
	<path fill="none" stroke="#000000" stroke-width="0.75" stroke-miterlimit="10" d="M136,114.1c-3.9-6.699-8.3-13-13.3-19"/>
	<polygon points="122.7,95.2 123,95 128.4,99.4 124.7,102 122.4,95.4 	"/>
	<path fill="#363639" d="M13.3,20.1v-3.6l-3.3-5h1.4l1.7,2.6c0.3,0.5,0.6,1,0.9,1.5c0.3-0.399,0.6-0.899,0.9-1.5l1.7-2.5h1.3l-3.4,5
		V20.2h-1.2V20.1z"/>
	<path fill="#363639" d="M331.2,188.1l3.3-4.5l-2.9-4.1h1.4l1.6,2.2c0.301,0.5,0.5,0.8,0.7,1.1c0.2-0.3,0.4-0.6,0.7-1l1.7-2.3h1.2
		l-3,4.1l3.3,4.5h-1.4l-2.2-3.1c-0.1-0.2-0.3-0.4-0.399-0.6c-0.2,0.3-0.3,0.5-0.4,0.6l-2.2,3L331.2,188.1L331.2,188.1z"/>
	<polygon fill="#363639" points="94.8,55.4 94.8,44.4 97.1,44.4 97.1,45.3 95.9,45.3 95.9,54.5 97.1,54.5 97.1,55.4 	"/>
	<path fill="#363639" d="M98.3,53v-8.6h3.8c0.801,0,1.301,0.1,1.7,0.199c0.4,0.2,0.7,0.4,1,0.801c0.2,0.399,0.4,0.8,0.4,1.3
		c0,0.6-0.2,1.1-0.601,1.5c-0.399,0.399-1,0.7-1.8,0.8c0.3,0.1,0.5,0.3,0.7,0.4c0.3,0.3,0.6,0.699,0.9,1.1l1.5,2.3h-1.4l-1.1-1.8
		c-0.301-0.5-0.601-0.9-0.801-1.2c-0.199-0.3-0.399-0.5-0.6-0.6c-0.2-0.101-0.3-0.2-0.5-0.2c-0.1,0-0.3,0-0.6,0H99.6v3.8h-1.3
		 M99.4,48.2h2.399c0.5,0,0.9,0,1.2-0.2s0.5-0.3,0.7-0.5c0.1-0.2,0.2-0.5,0.2-0.8c0-0.4-0.2-0.7-0.4-1c-0.3-0.3-0.8-0.4-1.4-0.4
		H99.4V48.2L99.4,48.2z"/>
	<polygon fill="#363639" points="115.3,55.4 112.9,55.4 112.9,54.5 114.2,54.5 114.2,45.3 112.9,45.3 112.9,44.4 115.3,44.4 	"/>
	<polygon fill="#363639" points="43.9,145.4 43.9,134.4 46.3,134.4 46.3,135.3 45,135.3 45,144.5 46.3,144.5 46.3,145.4 	"/>
	<polygon fill="#363639" points="49.3,143 49.3,135.4 46.5,135.4 46.5,134.4 53.3,134.4 53.3,135.4 50.5,135.4 50.5,143 	"/>
	<polygon fill="#363639" points="63,145.4 60.6,145.4 60.6,144.5 61.9,144.5 61.9,135.3 60.6,135.3 60.6,134.4 63,134.4 	"/>
	<polygon fill="#363639" points="134.7,110.3 134.7,99.4 137,99.4 137,100.2 135.7,100.2 135.7,109.5 137,109.5 137,110.3 	"/>
	<polygon fill="#363639" points="140.3,108 140.3,100.4 137.5,100.4 137.5,99.4 144.3,99.4 144.3,100.4 141.4,100.4 141.4,108 	"/>
	<polygon fill="#363639" points="153.7,110.3 151.3,110.3 151.3,109.5 152.6,109.5 152.6,100.2 151.3,100.2 151.3,99.4 153.7,99.4 	
		"/>
	<path fill="#363639" d="M148.2,105.1v-0.6c-0.3,0.5-0.8,0.8-1.5,0.8c-0.4,0-0.8-0.1-1.101-0.3c-0.399-0.2-0.6-0.5-0.8-1
		c-0.2-0.4-0.3-0.9-0.3-1.4s0.1-1,0.3-1.399c0.2-0.4,0.4-0.8,0.8-1c0.4-0.2,0.7-0.3,1.2-0.3c0.3,0,0.601,0.1,0.8,0.199
		c0.2,0.101,0.4,0.301,0.601,0.5V98h0.899v7.2H148.2 M145.4,102.5c0,0.7,0.1,1.2,0.399,1.5s0.601,0.5,1,0.5c0.4,0,0.7-0.1,1-0.5
		c0.3-0.3,0.4-0.8,0.4-1.4c0-0.699-0.101-1.199-0.4-1.6c-0.3-0.3-0.6-0.5-1-0.5c-0.399,0-0.7,0.2-1,0.5S145.4,101.8,145.4,102.5
		L145.4,102.5z"/>
	<path fill="#363639" d="M54.8,139.6V134.4h0.8v0.699c0.4-0.6,0.9-0.899,1.601-0.899c0.3,0,0.6,0.1,0.899,0.2
		c0.301,0.1,0.5,0.3,0.601,0.399c0.1,0.2,0.2,0.4,0.3,0.601c0,0.199,0.1,0.5,0.1,0.899v3.2H58.2v-3.2c0-0.399,0-0.6-0.101-0.8
		c-0.1-0.2-0.199-0.3-0.399-0.4c-0.2-0.1-0.4-0.199-0.601-0.199c-0.399,0-0.699,0.1-1,0.399c-0.3,0.2-0.399,0.7-0.399,1.4v2.8h-0.9
		V139.6L54.8,139.6z"/>
	<path fill="#363639" d="M106.7,55.9v-5.2h0.8v0.7c0.4-0.601,0.9-0.9,1.7-0.9c0.3,0,0.6,0.1,0.899,0.2
		c0.301,0.1,0.5,0.3,0.601,0.399c0.1,0.2,0.2,0.4,0.3,0.601c0,0.2,0.1,0.5,0.1,0.899v3.2H110v-3.1c0-0.4,0-0.601-0.1-0.8
		c-0.101-0.2-0.2-0.301-0.4-0.4s-0.4-0.2-0.6-0.2c-0.4,0-0.7,0.101-1,0.4c-0.301,0.2-0.4,0.7-0.4,1.399V55.9H106.7L106.7,55.9z"/>
</g>
</svg>
