<?xml version="1.0" encoding="utf-8"?>
<!-- Generator: Adobe Illustrator 14.0.0, SVG Export Plug-In . SVG Version: 6.00 Build 43363)  -->

<svg version="1.1" id="Layer_1" xmlns="http://www.w3.org/2000/svg" xmlns:xlink="http://www.w3.org/1999/xlink" x="0px" y="0px"
	 width="235px" height="115.2px" viewBox="0 0 235 115.2" enable-background="new 0 0 235 115.2" xml:space="preserve">
<line fill="none" stroke="#000000" stroke-linejoin="round" stroke-miterlimit="10" x1="0" y1="96" x2="235" y2="96"/>
<line fill="none" stroke="#000000" stroke-linejoin="round" stroke-miterlimit="10" x1="163" y1="4" x2="163" y2="96"/>
<g>
	<g>
		<g>
			<g>
				<g>
					<g enable-background="new    ">
						<path d="M170.066,11V7.665l-3.034-4.538h1.268l1.552,2.374c0.287,0.444,0.554,0.888,0.801,1.332
							c0.236-0.412,0.523-0.875,0.859-1.391l1.525-2.315h1.214l-3.142,4.538V11H170.066z"/>
					</g>
				</g>
			</g>
		</g>
	</g>
	<g>
		<g>
			<g>
				<g>
					<g enable-background="new    ">
						<path d="M176.915,13.214l0.127,0.776c-0.247,0.052-0.469,0.078-0.664,0.078c-0.319,0-0.566-0.051-0.742-0.151
							s-0.3-0.233-0.371-0.397c-0.071-0.165-0.107-0.511-0.107-1.038V9.499h-0.645V8.815h0.645V7.531l0.874-0.527v1.812h0.884v0.684
							h-0.884v3.032c0,0.251,0.016,0.412,0.047,0.483c0.03,0.071,0.081,0.129,0.15,0.171c0.07,0.042,0.17,0.063,0.301,0.063
							C176.627,13.249,176.756,13.237,176.915,13.214z"/>
					</g>
				</g>
			</g>
		</g>
	</g>
</g>
<g>
	<g>
		<g>
			<g>
				<g>
					<g enable-background="new    ">
						<path d="M227.025,110.5v-7.874h1.043v7.874H227.025z"/>
					</g>
				</g>
			</g>
		</g>
	</g>
	<g>
		<g>
			<g>
				<g>
					<g enable-background="new    ">
						<path d="M232.781,113.5h-0.879V107.9c-0.211,0.202-0.488,0.403-0.832,0.605s-0.652,0.354-0.926,0.454v-0.85
							c0.492-0.231,0.922-0.511,1.289-0.84c0.368-0.329,0.629-0.647,0.781-0.957h0.566V113.5z"/>
					</g>
				</g>
			</g>
		</g>
	</g>
</g>
<g>
	<g>
		<g>
			<g>
				<g enable-background="new    ">
					<path d="M141.098,31.833h-0.967v-6.16c-0.232,0.222-0.537,0.443-0.915,0.666c-0.378,0.222-0.718,0.388-1.019,0.499v-0.935
						c0.541-0.254,1.014-0.563,1.418-0.924c0.405-0.361,0.691-0.713,0.859-1.053h0.623V31.833z"/>
					<path d="M144.117,31.833v-1.102h1.101v1.102H144.117z"/>
					<path d="M146.631,27.951c0-0.932,0.096-1.681,0.287-2.248s0.477-1.006,0.854-1.313c0.378-0.308,0.854-0.462,1.426-0.462
						c0.423,0,0.793,0.085,1.112,0.255s0.582,0.416,0.79,0.736c0.207,0.32,0.37,0.711,0.488,1.171s0.178,1.08,0.178,1.861
						c0,0.924-0.096,1.669-0.285,2.236s-0.474,1.007-0.852,1.316c-0.377,0.31-0.854,0.465-1.432,0.465
						c-0.759,0-1.355-0.272-1.788-0.816C146.891,30.496,146.631,29.429,146.631,27.951z M147.624,27.951
						c0,1.292,0.151,2.152,0.454,2.58s0.676,0.643,1.119,0.643c0.444,0,0.818-0.215,1.12-0.645c0.303-0.43,0.454-1.289,0.454-2.578
						c0-1.297-0.151-2.158-0.454-2.584c-0.302-0.426-0.679-0.639-1.13-0.639c-0.444,0-0.799,0.188-1.064,0.563
						C147.791,25.771,147.624,26.658,147.624,27.951z"/>
				</g>
			</g>
		</g>
	</g>
</g>
<g>
	<g>
		<g>
			<g>
				<g enable-background="new    ">
					<path d="M159.457,106.618c0-0.932,0.096-1.681,0.287-2.248s0.477-1.006,0.854-1.313c0.378-0.308,0.854-0.462,1.426-0.462
						c0.423,0,0.793,0.085,1.112,0.255s0.582,0.416,0.79,0.736c0.207,0.32,0.37,0.711,0.488,1.171s0.178,1.08,0.178,1.861
						c0,0.924-0.096,1.669-0.285,2.236s-0.474,1.007-0.852,1.316c-0.377,0.31-0.854,0.465-1.432,0.465
						c-0.759,0-1.355-0.272-1.788-0.816C159.717,109.163,159.457,108.096,159.457,106.618z M160.45,106.618
						c0,1.292,0.151,2.152,0.454,2.58s0.676,0.643,1.119,0.643c0.444,0,0.818-0.215,1.12-0.645c0.303-0.43,0.454-1.289,0.454-2.578
						c0-1.297-0.151-2.158-0.454-2.584c-0.302-0.426-0.679-0.639-1.13-0.639c-0.444,0-0.799,0.188-1.064,0.563
						C160.617,104.438,160.45,105.325,160.45,106.618z"/>
				</g>
			</g>
		</g>
	</g>
</g>
<g>
	<polyline fill="none" stroke="#000000" points="163.8,16.6 151.8,16.6 36.8,16.6 	"/>
	<path fill="none" stroke="#000000" d="M194.5,95.2c-0.5-31-6.2-78.3-31-78.5"/>
</g>
</svg>
