<?xml version="1.0" encoding="utf-8"?>
<!-- Generator: Adobe Illustrator 14.0.0, SVG Export Plug-In . SVG Version: 6.00 Build 43363)  -->

<svg version="1.1" id="Layer_1" xmlns="http://www.w3.org/2000/svg" xmlns:xlink="http://www.w3.org/1999/xlink" x="0px" y="0px"
	 width="403px" height="148px" viewBox="0 0 403 148" enable-background="new 0 0 403 148" xml:space="preserve">
<g>
	<rect fill="#FFFFFF" width="403" height="148"/>
	<path fill="none" stroke="#000000" stroke-miterlimit="10" d="M295,36.7l-43,81h98.6l43-25.2V36.6H295V36.7z M393.6,36.8l-43,81"/>
	<polygon fill="#FFFFFF" stroke="#000000" stroke-miterlimit="10" points="247.9,53.8 247.9,109.7 346.4,109.7 389.4,28.7 
		290.8,28.7 	"/>
	<path fill="none" stroke="#000000" stroke-miterlimit="10" d="M247.9,53.8l43-25.2 M346.4,53.8l43-25.2 M290.8,28.7H389.4
		 M346.4,109.7l43-81 M247.9,53.8h98.6 M346.4,53.8v55.9 M12.7,74.9v30h36 M12.7,104.9l30-18"/>
	<path fill="#363639" d="M14.2,67.8h-1.1v-6.7c-0.3,0.2-0.6,0.5-1,0.7s-0.8,0.4-1.1,0.5v-1c0.6-0.3,1.1-0.6,1.5-1
		c0.4-0.399,0.7-0.8,0.9-1.2h0.7L14.2,67.8L14.2,67.8z"/>
	<path fill="#363639" d="M46.3,83.6l1.1-0.1c0.1,0.6,0.3,1,0.6,1.3s0.6,0.4,1.1,0.4s0.9-0.2,1.2-0.5c0.3-0.3,0.5-0.8,0.5-1.3
		s-0.2-0.9-0.5-1.2c-0.3-0.3-0.7-0.5-1.2-0.5c-0.2,0-0.5,0-0.7,0.1l0.1-0.899c0.1,0,0.1,0,0.2,0c0.4,0,0.9-0.101,1.2-0.301
		c0.3-0.199,0.5-0.6,0.5-1.1c0-0.4-0.1-0.7-0.4-0.9c-0.3-0.3-0.6-0.399-1-0.399s-0.8,0.1-1,0.399c-0.3,0.301-0.4,0.601-0.5,1.2
		l-1.1-0.2c0.1-0.699,0.4-1.3,0.9-1.6c0.5-0.4,1-0.6,1.7-0.6c0.5,0,0.9,0.1,1.3,0.3c0.4,0.2,0.7,0.5,0.9,0.8
		c0.2,0.3,0.3,0.7,0.3,1.1c0,0.4-0.1,0.7-0.3,1C51,80.9,50.7,81.2,50.3,81.3c0.5,0.101,0.9,0.4,1.2,0.7c0.3,0.4,0.4,0.8,0.4,1.4
		c0,0.699-0.3,1.399-0.8,1.899c-0.6,0.5-1.2,0.8-2.1,0.8c-0.8,0-1.4-0.199-1.9-0.699S46.3,84.3,46.3,83.6L46.3,83.6z"/>
	<path fill="#363639" d="M57.8,108.8v1h-5.7c0-0.3,0-0.5,0.1-0.7c0.1-0.399,0.4-0.8,0.7-1.1c0.3-0.4,0.8-0.8,1.4-1.3
		c0.9-0.8,1.6-1.4,1.9-1.8c0.3-0.4,0.5-0.9,0.5-1.301c0-0.399-0.2-0.8-0.5-1.1c-0.3-0.3-0.7-0.4-1.2-0.4s-0.9,0.2-1.2,0.5
		c-0.3,0.301-0.5,0.7-0.5,1.301l-1.1-0.101c0.1-0.8,0.3-1.399,0.8-1.8s1.1-0.6,2-0.6c0.8,0,1.5,0.199,2,0.699s0.7,1,0.7,1.7
		c0,0.3-0.1,0.7-0.2,1s-0.4,0.7-0.7,1c-0.3,0.4-0.9,0.9-1.6,1.5c-0.6,0.5-1,0.9-1.2,1.101c-0.2,0.199-0.3,0.399-0.4,0.6h4.2V108.8z"
		/>
	<path fill="none" stroke="#000000" stroke-miterlimit="10" d="M81.1,60.2V116.1h98.6V60.2H81.1z M81.1,60.2l43-25.2 M179.7,60.2
		l43-25.2 M179.7,116.1l43-25.199 M124.1,35H222.7 M222.4,35.4v56.5 M151.9,45.6V14.8"/>
	<polygon points="151.9,14.8 152.4,14.8 154.9,23.8 148.9,23.8 151.4,14.8 	"/>
	<line fill="none" stroke="#000000" stroke-miterlimit="10" stroke-dasharray="3,3" x1="151.3" y1="106.7" x2="151.3" y2="138.1"/>
	<polygon points="151.3,138.1 150.8,138.1 148.3,129.1 154.3,129.1 151.8,138.1 	"/>
	<line fill="none" stroke="#000000" stroke-miterlimit="10" x1="100.9" y1="98.3" x2="128.9" y2="87.1"/>
	<polygon points="128.9,87.1 129.1,87.6 121.6,93.3 119.4,87.7 128.7,86.7 	"/>
	<line fill="none" stroke="#000000" stroke-miterlimit="10" stroke-dasharray="3,3" x1="196.9" y1="43.1" x2="170.5" y2="59.2"/>
	<polygon points="170.5,59.2 170.2,58.8 176.6,52 179.7,57.1 170.7,59.6 	"/>
	<line fill="none" stroke="#000000" stroke-miterlimit="10" x1="272.9" y1="94.4" x2="300.4" y2="79.8"/>
	<polygon points="300.4,79.8 300.6,80.3 293.8,86.7 291,81.4 300.2,79.4 	"/>
	<line fill="none" stroke="#000000" stroke-miterlimit="10" x1="319.5" y1="42.3" x2="319.5" y2="8.6"/>
	<polygon points="319.5,8.6 320,8.6 322.5,17.6 316.5,17.6 319,8.6 	"/>
	<line fill="none" stroke="#000000" stroke-miterlimit="10" stroke-dasharray="3,3" x1="323.9" y1="104.5" x2="323.9" y2="136.5"/>
	<polygon points="323.9,136.5 323.4,136.5 320.9,127.5 326.9,127.5 324.4,136.5 	"/>
	<line fill="none" stroke="#000000" stroke-miterlimit="10" x1="383.4" y1="70.3" x2="371.6" y2="93.3"/>
	<polygon points="371.6,93.3 371.2,93.1 373,83.9 378.4,86.6 372,93.5 	"/>
	<line fill="none" stroke="#000000" stroke-miterlimit="10" x1="355.3" y1="78.1" x2="367.7" y2="58"/>
	<polygon points="367.7,58 368.1,58.2 365.5,67.2 360.4,64.1 367.2,57.7 	"/>
	<line fill="none" stroke="#000000" stroke-miterlimit="10" stroke-dasharray="3,3" x1="369.1" y1="45.2" x2="348" y2="58.9"/>
	<polygon points="348,58.9 347.8,58.5 354,51.5 357.2,56.5 348.3,59.3 	"/>
</g>
</svg>
