<?xml version="1.0" encoding="utf-8"?>
<!-- Generator: Adobe Illustrator 17.1.0, SVG Export Plug-In . SVG Version: 6.00 Build 0)  -->

<svg version="1.1" id="Layer_1" xmlns="http://www.w3.org/2000/svg" xmlns:xlink="http://www.w3.org/1999/xlink" x="0px" y="0px"
	 width="384px" height="214px" viewBox="113 289 384 214" enable-background="new 113 289 384 214" xml:space="preserve">
<g>
	<rect x="113" y="289" fill="#FFFFFF" width="384" height="214"/>
	<path fill="#363639" d="M384.3,380.9c0-1.4,0.4-2.5,1.2-3.3c0.8-0.8,1.8-1.2,3-1.2c0.8,0,1.5,0.2,2.1,0.6s1.1,0.9,1.5,1.6
		c0.3,0.7,0.5,1.5,0.5,2.3c0,0.9-0.2,1.7-0.5,2.3c-0.4,0.7-0.9,1.2-1.5,1.6c-0.6,0.3-1.3,0.5-2.1,0.5c-0.8,0-1.5-0.2-2.2-0.6
		c-0.6-0.4-1.1-0.9-1.5-1.6C384.4,382.4,384.3,381.7,384.3,380.9 M385.4,380.9c0,1,0.3,1.8,0.8,2.4s1.3,0.9,2.1,0.9
		c0.9,0,1.6-0.3,2.1-0.9c0.6-0.6,0.8-1.5,0.8-2.6c0-0.7-0.1-1.3-0.4-1.8c-0.2-0.5-0.6-0.9-1-1.2c-0.5-0.3-1-0.4-1.5-0.4
		c-0.8,0-1.5,0.3-2.1,0.8C385.7,378.7,385.4,379.6,385.4,380.9L385.4,380.9z"/>
	<polygon fill="#363639" points="443.1,372.6 443.1,364 444.3,364 444.3,368.3 448.5,364 450.1,364 446.5,367.5 450.2,372.6 
		448.7,372.6 445.7,368.3 444.3,369.6 444.3,372.6 	"/>
	<path fill="#363639" d="M438.7,474.8l1-0.1c0,0.7,0.2,1.1,0.4,1.4s0.5,0.4,0.9,0.4c0.3,0,0.5-0.1,0.7-0.2s0.3-0.3,0.4-0.5
		s0.1-0.6,0.1-1.1v-5.9h1.1v5.9c0,0.7-0.1,1.3-0.3,1.7c-0.2,0.4-0.4,0.7-0.8,0.9c-0.4,0.2-0.8,0.3-1.3,0.3c-0.8,0-1.3-0.2-1.7-0.6
		C438.9,476.3,438.7,475.7,438.7,474.8L438.7,474.8z"/>
	<path fill="#363639" d="M371.1,475.3v-8.6h1.7l2,6.1c0.2,0.6,0.3,1,0.4,1.3c0.1-0.3,0.3-0.8,0.5-1.4l2.1-6h1.5v8.6h-1.1v-7.2
		l-2.5,7.2h-1l-2.5-7.3v7.3H371.1L371.1,475.3z"/>
	<polygon fill="#363639" points="347.1,372.1 347.1,363.5 348.3,363.5 348.3,371.1 352.5,371.1 352.5,372.1 	"/>
	<polygon fill="#363639" points="308.5,450.8 308.5,442.2 309.6,442.2 309.6,450.8 	"/>
	<polygon fill="#363639" points="433.8,418.7 433.8,410.1 435,410.1 439.5,416.8 439.5,410.1 440.6,410.1 440.6,418.7 439.4,418.7 
		434.9,411.9 434.9,418.7 	"/>
	<path fill="none" stroke="#000000" stroke-miterlimit="10" d="M320.2,339.2c-0.9,1.1-7,7.6-8.3,10.4s-2.6,12-3.8,14.9
		c-1.1,2.8-5.7,7.8-6.5,10.6c-0.8,2.9,0,11.6-0.6,14.6s-4.8,9.1-5,12.4c-0.2,3.1,3,13.1,3.2,16.4c0.2,3.2-1.1,11-1.3,12.4"/>
	<path fill="#363639" stroke="#000000" stroke-miterlimit="10" d="M348.2,359.3c0-1.2-1.3-1.9-2.3-1.3s-1,2.1,0,2.7
		C346.9,361.3,348.2,360.5,348.2,359.3"/>
	<path fill="#363639" stroke="#000000" stroke-miterlimit="10" d="M389.5,372.5c0-1.2-1.3-1.9-2.4-1.3s-1.1,2.1,0,2.7
		C388.2,374.5,389.5,373.7,389.5,372.5"/>
	<path fill="#363639" stroke="#000000" stroke-miterlimit="10" d="M437.7,371c0-1.2-1.3-1.9-2.3-1.3s-1,2.1,0,2.7
		C436.4,372.9,437.7,372.2,437.7,371"/>
	<path fill="#363639" stroke="#000000" stroke-miterlimit="10" d="M445.2,414.3c0-1.2-1.3-1.9-2.3-1.3s-1,2.1,0,2.7
		C443.9,416.2,445.2,415.5,445.2,414.3"/>
	<path fill="#363639" stroke="#000000" stroke-miterlimit="10" d="M441.6,464.3c0-1.2-1.3-2-2.4-1.4s-1.1,2.2,0,2.8
		C440.3,466.4,441.6,465.6,441.6,464.3"/>
	<path fill="#363639" stroke="#000000" stroke-miterlimit="10" d="M378.6,463.5c0-1.2-1.3-1.9-2.3-1.3s-1,2.1,0,2.7
		C377.3,465.5,378.6,464.7,378.6,463.5"/>
	<path fill="#363639" stroke="#000000" stroke-miterlimit="10" d="M317.9,444.9c0-1.2-1.3-1.9-2.3-1.3s-1,2.1,0,2.7
		C316.6,446.8,317.9,446.1,317.9,444.9"/>
	<path fill="#363639" stroke="#000000" stroke-miterlimit="10" d="M325.1,400.5c0-1.2-1.3-2-2.3-1.4s-1,2.2,0,2.8
		C323.8,402.5,325.1,401.7,325.1,400.5"/>
	<path fill="none" stroke="#000000" stroke-miterlimit="10" d="M409.8,374.1l8.5-0.2 M418.3,373.9l8.4-0.7 M426.7,373.2l8.3-1.1
		 M348.6,360.4l6.3,3.1 M354.9,363.5l6.8,2.8 M361.7,366.3l7.3,2.3 M369,368.6l7.7,2 M376.7,370.5l8,1.5 M384.7,372.1l8.3,1.2
		 M392.9,373.3l8.4,0.6 M401.3,373.9l8.5,0.2 M439.7,463.5l2.6-13.2 M442.3,450.4l1.5-13.4 M443.8,437l0.5-13.5 M444.3,423.5
		l-0.5-13.6 M443.8,409.9l-1.5-13.4 M442.3,396.5l-2.6-13.2 M439.7,383.4l-3.5-12.8 M367.1,461.5l17.7,2.9 M384.8,464.4l18.1,1.6
		 M402.9,466.1l18.1,0.3 M421,466.4l18-0.9 M317.1,445.6l16,6.5 M333.1,452.1l16.7,5.3 M349.8,457.4l17.3,4.1 M346.7,358.3l-7.4,9.5
		 M339.3,367.8l-6.4,10.2 M332.8,377.9l-5.4,10.8 M327.4,388.7L323,400 M323,399.9l-3.4,11.6 M319.6,411.5l-2.1,11.9 M317.5,423.4
		l-1.1,12.1 M316.4,435.5v9.4"/>
	<path fill="#363639" d="M330.4,403.6V395h3.2c0.6,0,1,0,1.3,0.1c0.4,0.1,0.8,0.2,1.1,0.4c0.3,0.2,0.5,0.5,0.7,0.8
		c0.2,0.4,0.3,0.7,0.3,1.2c0,0.7-0.2,1.4-0.7,1.9s-1.3,0.8-2.5,0.8h-2.2v3.5L330.4,403.6 M331.5,399.1h2.2c0.7,0,1.2-0.1,1.6-0.4
		s0.5-0.7,0.5-1.2c0-0.4-0.1-0.7-0.3-0.9c-0.2-0.3-0.4-0.4-0.7-0.5c-0.2,0-0.6-0.1-1.1-0.1h-2.2V399.1L331.5,399.1z"/>
	<path fill="none" stroke="#000000" stroke-miterlimit="10" d="M320.4,338.9l1.4-0.4 M321.8,338.5l2.4,0.3 M324.2,338.8l1.5-0.2
		 M325.7,338.6l1.6-0.9 M327.3,337.7l1.4-0.5 M328.7,337.2l3.7,0.6 M332.4,337.8l1.5-0.1 M333.9,337.7l1.4-0.5 M335.3,337.2l3.3-2.7
		 M338.6,334.5l1.4-0.5 M340,334l1.9,0.8 M341.9,334.9l1.5-0.1 M343.4,334.8l2.4-0.9 M345.8,333.9l1.3-0.9 M347.1,333.1l1.5-0.1
		 M348.6,332.9l3.3,0.4 M351.8,333.4l7.9-2.8 M359.8,330.6l1.4-1.6 M361.1,328.9l1.7-0.6 M347.1,359.3c-0.3-8.8-10.8-16.6-26.8-20.2
		 M436.5,373c0.3-12.1-13.8-24.2-40-34.2 M362.7,328.3l23.4,6.9 M386.3,335.2l10.5,3.6 M316.4,445.7c0-5.4-6.7-10.7-18.8-14.8
		 M269,305.4c22.6,3.4,44.3,10.9,64,22.2 M270,305.9l5.2,0.4"/>
	<polyline fill="#363639" stroke="#000000" stroke-miterlimit="10" points="274.7,306.3 274.7,306.3 275.4,307.9 270,305.9 
		275.7,304.9 274.7,306.3 	"/>
	<path fill="none" stroke="#000000" stroke-miterlimit="10" d="M386.8,399.2l-1.4,29.6 M374,414.4l26.8,2.4"/>
	<path fill="#363639" d="M482.7,406.5l1-0.2c0,0.4,0.2,0.7,0.5,1c0.3,0.2,0.6,0.3,1.1,0.3s0.8-0.1,1.1-0.3c0.2-0.2,0.3-0.4,0.3-0.7
		c0-0.2-0.1-0.4-0.3-0.6c-0.1-0.1-0.5-0.2-1.1-0.4c-0.8-0.2-1.3-0.4-1.6-0.5c-0.3-0.1-0.5-0.3-0.7-0.6c-0.2-0.3-0.2-0.5-0.2-0.8
		s0.1-0.5,0.2-0.8c0.1-0.2,0.3-0.4,0.5-0.6c0.2-0.1,0.4-0.2,0.7-0.3c0.3-0.1,0.6-0.1,0.9-0.1c0.5,0,0.9,0.1,1.3,0.2s0.6,0.3,0.8,0.6
		c0.2,0.2,0.3,0.6,0.4,1l-1,0.1c0-0.3-0.2-0.6-0.4-0.7c-0.2-0.2-0.5-0.3-0.9-0.3c-0.5,0-0.8,0.1-1,0.2c-0.2,0.2-0.3,0.3-0.3,0.6
		c0,0.1,0,0.3,0.1,0.4s0.2,0.2,0.4,0.3c0.1,0,0.4,0.1,0.9,0.3c0.7,0.2,1.3,0.4,1.6,0.5c0.3,0.1,0.5,0.3,0.7,0.6
		c0.2,0.2,0.3,0.5,0.3,0.9s-0.1,0.7-0.3,1s-0.5,0.5-0.9,0.7s-0.8,0.3-1.3,0.3c-0.8,0-1.4-0.2-1.8-0.5
		C483.1,407.7,482.8,407.2,482.7,406.5L482.7,406.5z"/>
	<path fill="#363639" d="M397.8,353.7l0.2,0.9c-0.3,0-0.6,0.1-0.8,0.1c-0.4,0-0.7-0.1-0.9-0.2c-0.2-0.1-0.4-0.3-0.4-0.5
		c-0.1-0.2-0.1-0.6-0.1-1.2v-3.6H395v-0.8h0.8v-1.5l1-0.6v2.2h1.1v0.8h-1.1v3.6c0,0.3,0,0.5,0.1,0.6c0,0.1,0.1,0.2,0.2,0.2
		s0.2,0.1,0.4,0.1C397.5,353.7,397.6,353.7,397.8,353.7L397.8,353.7z"/>
	<path fill="#363639" d="M257.9,309.2v-0.9l4-4.5c-0.5,0-0.9,0-1.2,0h-2.5V303h5.1v0.7l-3.4,3.9l-0.6,0.7c0.5,0,0.9-0.1,1.3-0.1h2.9
		v0.9h-5.6V309.2z"/>
	<path fill="#363639" d="M249.2,334.3c-0.6-0.7-1.1-1.6-1.5-2.6s-0.6-2-0.6-3.1c0-0.9,0.1-1.8,0.4-2.7c0.3-1,0.9-2,1.6-3h0.8
		c-0.5,0.8-0.8,1.4-0.9,1.7c-0.2,0.5-0.4,1.1-0.6,1.7c-0.2,0.7-0.3,1.5-0.3,2.2c0,1.9,0.6,3.7,1.8,5.6h-0.7V334.3z"/>
	<path fill="#363639" d="M253.6,330.9l0.2,0.9c-0.3,0-0.6,0.1-0.8,0.1c-0.4,0-0.7-0.1-0.9-0.2s-0.4-0.3-0.4-0.5
		c-0.1-0.2-0.1-0.6-0.1-1.2v-3.6h-0.8v-0.8h0.8V324l1-0.6v2.2h1.1v0.8h-1.1v3.6c0,0.3,0,0.5,0.1,0.6c0,0.1,0.1,0.2,0.2,0.2
		c0.1,0,0.2,0.1,0.4,0.1C253.2,330.9,253.4,330.9,253.6,330.9L253.6,330.9z"/>
	<path fill="#363639" d="M258.7,331c-0.4,0.3-0.8,0.6-1.1,0.7c-0.4,0.1-0.8,0.2-1.2,0.2c-0.7,0-1.2-0.2-1.6-0.5
		c-0.4-0.3-0.6-0.8-0.6-1.3c0-0.3,0.1-0.6,0.2-0.8c0.1-0.3,0.3-0.5,0.6-0.6c0.2-0.1,0.5-0.3,0.8-0.3c0.2,0,0.5-0.1,0.9-0.2
		c0.9-0.1,1.5-0.2,1.9-0.4c0-0.1,0-0.2,0-0.3c0-0.4-0.1-0.7-0.3-0.9c-0.3-0.2-0.7-0.4-1.2-0.4s-0.9,0.1-1.1,0.3
		c-0.2,0.2-0.4,0.5-0.5,0.9l-1-0.1c0.1-0.4,0.3-0.8,0.5-1.1c0.2-0.3,0.5-0.5,0.9-0.6s0.9-0.2,1.4-0.2s1,0.1,1.3,0.2s0.6,0.3,0.7,0.5
		s0.3,0.4,0.3,0.7c0,0.2,0.1,0.5,0.1,1v1.4c0,1,0,1.6,0.1,1.9c0,0.3,0.1,0.5,0.3,0.7H259C258.8,331.6,258.7,331.3,258.7,331
		 M258.6,328.7c-0.4,0.2-1,0.3-1.7,0.4c-0.4,0.1-0.7,0.1-0.9,0.2c-0.2,0.1-0.3,0.2-0.4,0.3c-0.1,0.2-0.1,0.3-0.1,0.5
		c0,0.3,0.1,0.5,0.3,0.7s0.5,0.3,0.9,0.3c0.4,0,0.8-0.1,1.1-0.3c0.3-0.2,0.6-0.4,0.7-0.7c0.1-0.2,0.2-0.6,0.2-1.1v-0.3H258.6z"/>
	<path fill="#363639" d="M261.4,331.8v-6.2h0.9v0.9c0.5-0.7,1.1-1,2-1c0.4,0,0.7,0.1,1,0.2s0.6,0.3,0.7,0.5s0.3,0.5,0.3,0.8
		c0,0.2,0.1,0.5,0.1,1v3.8h-1.1V328c0-0.4,0-0.7-0.1-1c-0.1-0.2-0.2-0.4-0.4-0.5c-0.2-0.1-0.5-0.2-0.7-0.2c-0.5,0-0.9,0.1-1.2,0.4
		s-0.5,0.8-0.5,1.6v3.4h-1V331.8z"/>
	<path fill="#363639" d="M267.9,332.3l1,0.2c0,0.3,0.2,0.5,0.4,0.7c0.3,0.2,0.6,0.3,1.1,0.3s0.9-0.1,1.1-0.3
		c0.3-0.2,0.5-0.5,0.6-0.8c0-0.2,0.1-0.7,0.1-1.3c-0.5,0.6-1,0.8-1.7,0.8c-0.9,0-1.5-0.3-2-0.9s-0.7-1.4-0.7-2.2
		c0-0.6,0.1-1.1,0.3-1.6s0.5-0.9,0.9-1.2c0.4-0.3,0.9-0.4,1.4-0.4c0.7,0,1.3,0.3,1.8,0.9v-0.8h1v5.4c0,1-0.1,1.6-0.3,2
		c-0.2,0.4-0.5,0.7-0.9,1c-0.4,0.2-0.9,0.3-1.6,0.3s-1.3-0.2-1.8-0.5S267.9,333,267.9,332.3 M268.8,328.6c0,0.8,0.2,1.4,0.5,1.8
		s0.7,0.6,1.2,0.6s0.9-0.2,1.2-0.6c0.3-0.4,0.5-1,0.5-1.8s-0.2-1.3-0.5-1.7s-0.7-0.6-1.2-0.6s-0.9,0.2-1.2,0.6
		C268.9,327.3,268.8,327.8,268.8,328.6L268.8,328.6z"/>
	<path fill="#363639" d="M278.8,329.8l1.1,0.1c-0.2,0.6-0.5,1.1-1,1.5c-0.5,0.3-1.1,0.5-1.8,0.5c-0.9,0-1.6-0.3-2.2-0.8
		c-0.5-0.6-0.8-1.3-0.8-2.4c0-1,0.3-1.9,0.8-2.4c0.5-0.6,1.2-0.9,2.1-0.9c0.8,0,1.5,0.3,2,0.9s0.8,1.4,0.8,2.4c0,0.1,0,0.2,0,0.3
		h-4.6c0,0.7,0.2,1.2,0.6,1.6c0.3,0.4,0.8,0.5,1.3,0.5c0.4,0,0.7-0.1,1-0.3C278.4,330.6,278.6,330.3,278.8,329.8 M275.3,328.1h3.5
		c0-0.5-0.2-0.9-0.4-1.2c-0.3-0.4-0.8-0.6-1.3-0.6s-0.9,0.2-1.2,0.5C275.6,327.1,275.4,327.6,275.3,328.1L275.3,328.1z"/>
	<path fill="#363639" d="M281.3,331.8v-6.2h0.9v0.9c0.5-0.7,1.1-1,2-1c0.4,0,0.7,0.1,1,0.2s0.6,0.3,0.7,0.5c0.2,0.2,0.3,0.5,0.3,0.8
		c0,0.2,0.1,0.5,0.1,1v3.8h-1.1V328c0-0.4,0-0.7-0.1-1c-0.1-0.2-0.2-0.4-0.4-0.5c-0.2-0.1-0.5-0.2-0.7-0.2c-0.5,0-0.9,0.1-1.2,0.4
		c-0.3,0.3-0.5,0.8-0.5,1.6v3.4h-1V331.8z"/>
	<path fill="#363639" d="M290.3,330.9l0.2,0.9c-0.3,0-0.6,0.1-0.8,0.1c-0.4,0-0.7-0.1-0.9-0.2c-0.2-0.1-0.4-0.3-0.4-0.5
		c-0.1-0.2-0.1-0.6-0.1-1.2v-3.6h-0.8v-0.8h0.8V324l1-0.6v2.2h1.1v0.8h-1.1v3.6c0,0.3,0,0.5,0.1,0.6c0,0.1,0.1,0.2,0.2,0.2
		s0.2,0.1,0.4,0.1C289.9,330.9,290.1,330.9,290.3,330.9L290.3,330.9z"/>
	<path fill="#363639" d="M291.4,324.4v-1.2h1.1v1.2H291.4 M291.4,331.8v-6.2h1.1v6.2H291.4L291.4,331.8z"/>
	<path fill="#363639" d="M298,331c-0.4,0.3-0.8,0.6-1.1,0.7c-0.4,0.1-0.8,0.2-1.2,0.2c-0.7,0-1.2-0.2-1.6-0.5s-0.6-0.8-0.6-1.3
		c0-0.3,0.1-0.6,0.2-0.8c0.1-0.3,0.3-0.5,0.6-0.6c0.2-0.1,0.5-0.3,0.8-0.3c0.2,0,0.5-0.1,0.9-0.2c0.9-0.1,1.5-0.2,1.9-0.4
		c0-0.1,0-0.2,0-0.3c0-0.4-0.1-0.7-0.3-0.9c-0.3-0.2-0.7-0.4-1.2-0.4s-0.9,0.1-1.1,0.3c-0.2,0.2-0.4,0.5-0.5,0.9l-1-0.1
		c0.1-0.4,0.3-0.8,0.5-1.1c0.2-0.3,0.5-0.5,0.9-0.6s0.9-0.2,1.4-0.2s1,0.1,1.3,0.2s0.6,0.3,0.7,0.5c0.2,0.2,0.3,0.4,0.3,0.7
		c0,0.2,0.1,0.5,0.1,1v1.4c0,1,0,1.6,0.1,1.9c0,0.3,0.1,0.5,0.3,0.7h-1.1C298.1,331.6,298.1,331.3,298,331 M298,328.7
		c-0.4,0.2-1,0.3-1.7,0.4c-0.4,0.1-0.7,0.1-0.9,0.2c-0.2,0.1-0.3,0.2-0.4,0.3c-0.1,0.2-0.1,0.3-0.1,0.5c0,0.3,0.1,0.5,0.3,0.7
		c0.2,0.2,0.5,0.3,0.9,0.3s0.8-0.1,1.1-0.3c0.3-0.2,0.6-0.4,0.7-0.7c0.1-0.2,0.2-0.6,0.2-1.1v-0.3H298z"/>
	<polygon fill="#363639" points="300.7,331.8 300.7,323.2 301.7,323.2 301.7,331.8 	"/>
	<path fill="#363639" d="M304,334.3h-0.8c1.2-1.9,1.8-3.7,1.8-5.6c0-0.7-0.1-1.5-0.3-2.2c-0.1-0.6-0.3-1.1-0.6-1.7
		c-0.2-0.3-0.5-0.9-0.9-1.8h0.8c0.7,1,1.3,2,1.6,3c0.3,0.9,0.5,1.8,0.5,2.7c0,1.1-0.2,2.1-0.6,3.1
		C305.1,332.7,304.6,333.6,304,334.3L304,334.3z"/>
	<line fill="none" stroke="#000000" stroke-miterlimit="10" x1="476.4" y1="410" x2="474.6" y2="410.3"/>
	<polyline fill="#363639" stroke="#000000" stroke-miterlimit="10" points="471.8,410.8 471.8,410.8 470.7,409.5 476.4,410 
		471.2,412.4 471.8,410.8 	"/>
	<line fill="none" stroke="#000000" stroke-miterlimit="10" x1="388.9" y1="348.5" x2="388.1" y2="366.7"/>
	<polyline fill="#363639" stroke="#000000" stroke-miterlimit="10" points="388.7,353.3 388.7,353.3 387.2,354 388.9,348.5 
		390.2,354.2 388.7,353.3 	"/>
	<path fill="none" stroke="#000000" stroke-miterlimit="10" d="M477.7,409.9c-9.9,1.8-19.4,3.3-28.5,4.4"/>
	<path fill="#363639" d="M168.7,443.6l3.3-4.5l-2.9-4.1h1.4l1.6,2.2c0.3,0.5,0.5,0.8,0.7,1.1c0.2-0.3,0.4-0.6,0.7-1l1.7-2.3h1.2
		l-3,4.1l3.3,4.5h-1.4l-2.2-3.1c-0.1-0.2-0.3-0.4-0.4-0.6c-0.2,0.3-0.3,0.5-0.4,0.6l-2.2,3L168.7,443.6L168.7,443.6z"/>
	<path fill="#363639" d="M183,446.1c-0.6-0.7-1.1-1.6-1.5-2.6s-0.6-2-0.6-3.1c0-0.9,0.1-1.8,0.4-2.7c0.3-1,0.9-2,1.6-3h0.8
		c-0.5,0.8-0.8,1.4-0.9,1.7c-0.2,0.5-0.4,1.1-0.6,1.7c-0.2,0.7-0.3,1.5-0.3,2.2c0,1.9,0.6,3.7,1.8,5.6H183V446.1z"/>
	<path fill="#363639" d="M184.8,443.6v-6.2h0.9v0.9c0.2-0.4,0.5-0.7,0.7-0.9c0.2-0.1,0.4-0.2,0.7-0.2c0.4,0,0.7,0.1,1.1,0.3l-0.4,1
		c-0.3-0.1-0.5-0.2-0.8-0.2c-0.2,0-0.4,0.1-0.6,0.2c-0.2,0.1-0.3,0.3-0.4,0.6c-0.1,0.4-0.2,0.8-0.2,1.2v3.3L184.8,443.6L184.8,443.6
		z"/>
	<path fill="#363639" d="M192.9,442.9c-0.4,0.3-0.8,0.6-1.1,0.7c-0.4,0.1-0.8,0.2-1.2,0.2c-0.7,0-1.2-0.2-1.6-0.5
		c-0.4-0.3-0.6-0.8-0.6-1.3c0-0.3,0.1-0.6,0.2-0.8c0.1-0.3,0.3-0.5,0.6-0.6c0.2-0.1,0.5-0.3,0.8-0.3c0.2,0,0.5-0.1,0.9-0.2
		c0.9-0.1,1.5-0.2,1.9-0.4c0-0.1,0-0.2,0-0.3c0-0.4-0.1-0.7-0.3-0.9c-0.3-0.2-0.7-0.4-1.2-0.4s-0.9,0.1-1.1,0.3
		c-0.2,0.2-0.4,0.5-0.5,0.9l-1-0.1c0.1-0.4,0.3-0.8,0.5-1.1c0.2-0.3,0.5-0.5,0.9-0.6s0.9-0.2,1.4-0.2s1,0.1,1.3,0.2s0.6,0.3,0.7,0.5
		c0.2,0.2,0.3,0.4,0.3,0.7c0,0.2,0.1,0.5,0.1,1v1.4c0,1,0,1.6,0.1,1.9c0,0.3,0.1,0.5,0.3,0.7h-1.1C193,443.4,193,443.2,192.9,442.9
		 M192.8,440.5c-0.4,0.2-1,0.3-1.7,0.4c-0.4,0.1-0.7,0.1-0.9,0.2s-0.3,0.2-0.4,0.3c-0.1,0.2-0.1,0.3-0.1,0.5c0,0.3,0.1,0.5,0.3,0.7
		s0.5,0.3,0.9,0.3s0.8-0.1,1.1-0.3c0.3-0.2,0.6-0.4,0.7-0.7c0.1-0.2,0.2-0.6,0.2-1.1v-0.3H192.8z"/>
	<path fill="#363639" d="M199.6,443.6v-0.8c-0.4,0.6-1,0.9-1.7,0.9c-0.5,0-1-0.1-1.4-0.4s-0.7-0.6-1-1.1c-0.2-0.5-0.3-1-0.3-1.7
		c0-0.6,0.1-1.2,0.3-1.7s0.5-0.9,0.9-1.2c0.4-0.3,0.9-0.4,1.4-0.4c0.4,0,0.7,0.1,1,0.2c0.3,0.2,0.5,0.4,0.7,0.6v-3h1.1v8.6H199.6
		 M196.3,440.5c0,0.8,0.2,1.4,0.5,1.8s0.7,0.6,1.2,0.6s0.8-0.2,1.2-0.6c0.3-0.4,0.5-0.9,0.5-1.7c0-0.9-0.2-1.5-0.5-1.9
		s-0.7-0.6-1.2-0.6s-0.9,0.2-1.2,0.6C196.5,439.1,196.3,439.7,196.3,440.5L196.3,440.5z"/>
	<path fill="#363639" d="M202.3,436.3V435h1.1v1.2L202.3,436.3 M202.3,443.6v-6.2h1.1v6.2H202.3L202.3,443.6z"/>
	<path fill="#363639" d="M209,442.9c-0.4,0.3-0.8,0.6-1.1,0.7c-0.4,0.1-0.8,0.2-1.2,0.2c-0.7,0-1.2-0.2-1.6-0.5
		c-0.4-0.3-0.6-0.8-0.6-1.3c0-0.3,0.1-0.6,0.2-0.8c0.1-0.3,0.3-0.5,0.6-0.6c0.2-0.1,0.5-0.3,0.8-0.3c0.2,0,0.5-0.1,0.9-0.2
		c0.9-0.1,1.5-0.2,1.9-0.4c0-0.1,0-0.2,0-0.3c0-0.4-0.1-0.7-0.3-0.9c-0.3-0.2-0.7-0.4-1.2-0.4s-0.9,0.1-1.1,0.3
		c-0.2,0.2-0.4,0.5-0.5,0.9l-1-0.1c0.1-0.4,0.3-0.8,0.5-1.1c0.2-0.3,0.5-0.5,0.9-0.6s0.9-0.2,1.4-0.2s1,0.1,1.3,0.2s0.6,0.3,0.7,0.5
		c0.2,0.2,0.3,0.4,0.3,0.7c0,0.2,0.1,0.5,0.1,1v1.4c0,1,0,1.6,0.1,1.9c0,0.3,0.1,0.5,0.3,0.7h-1.1C209.1,443.4,209,443.2,209,442.9
		 M208.9,440.5c-0.4,0.2-1,0.3-1.7,0.4c-0.4,0.1-0.7,0.1-0.9,0.2s-0.3,0.2-0.4,0.3c-0.1,0.2-0.1,0.3-0.1,0.5c0,0.3,0.1,0.5,0.3,0.7
		s0.5,0.3,0.9,0.3s0.8-0.1,1.1-0.3c0.3-0.2,0.6-0.4,0.7-0.7c0.1-0.2,0.2-0.6,0.2-1.1v-0.3H208.9z"/>
	<polygon fill="#363639" points="211.4,443.6 211.4,435 212.5,435 212.5,443.6 	"/>
	<path fill="#363639" d="M215,446.1h-0.8c1.2-1.9,1.8-3.7,1.8-5.6c0-0.7-0.1-1.5-0.3-2.2c-0.1-0.6-0.3-1.1-0.6-1.7
		c-0.2-0.3-0.5-0.9-0.9-1.8h0.8c0.7,1,1.3,2,1.6,3c0.3,0.9,0.5,1.8,0.5,2.7c0,1.1-0.2,2.1-0.6,3.1
		C216.1,444.6,215.6,445.4,215,446.1L215,446.1z"/>
	<path fill="#363639" d="M125.9,395.6V392l-3.3-5h1.4l1.7,2.6c0.3,0.5,0.6,1,0.9,1.5c0.3-0.4,0.6-0.9,0.9-1.5l1.7-2.5h1.3l-3.4,5
		v3.6h-1.2V395.6z"/>
	<path fill="#363639" d="M136.9,398.1c-0.6-0.7-1.1-1.6-1.5-2.6s-0.6-2-0.6-3.1c0-0.9,0.1-1.8,0.4-2.7c0.3-1,0.9-2,1.6-3h0.8
		c-0.5,0.8-0.8,1.4-0.9,1.7c-0.2,0.5-0.4,1.1-0.6,1.7c-0.2,0.7-0.3,1.5-0.3,2.2c0,1.9,0.6,3.7,1.8,5.6h-0.7V398.1z"/>
	<path fill="#363639" d="M142.8,394.9c-0.4,0.3-0.8,0.6-1.1,0.7c-0.4,0.1-0.8,0.2-1.2,0.2c-0.7,0-1.2-0.2-1.6-0.5
		c-0.4-0.3-0.6-0.8-0.6-1.3c0-0.3,0.1-0.6,0.2-0.8c0.1-0.3,0.3-0.5,0.6-0.6c0.2-0.1,0.5-0.3,0.8-0.3c0.2,0,0.5-0.1,0.9-0.2
		c0.9-0.1,1.5-0.2,1.9-0.4c0-0.1,0-0.2,0-0.3c0-0.4-0.1-0.7-0.3-0.9c-0.3-0.2-0.7-0.4-1.2-0.4s-0.9,0.1-1.1,0.3
		c-0.2,0.2-0.4,0.5-0.5,0.9l-1-0.1c0.1-0.4,0.3-0.8,0.5-1.1c0.2-0.3,0.5-0.5,0.9-0.6s0.9-0.2,1.4-0.2s1,0.1,1.3,0.2s0.6,0.3,0.7,0.5
		c0.2,0.2,0.3,0.4,0.3,0.7c0,0.2,0.1,0.5,0.1,1v1.4c0,1,0,1.6,0.1,1.9c0,0.3,0.1,0.5,0.3,0.7H143
		C142.9,395.4,142.8,395.2,142.8,394.9 M142.7,392.5c-0.4,0.2-1,0.3-1.7,0.4c-0.4,0.1-0.7,0.1-0.9,0.2s-0.3,0.2-0.4,0.3
		c-0.1,0.2-0.1,0.3-0.1,0.5c0,0.3,0.1,0.5,0.3,0.7s0.5,0.3,0.9,0.3s0.8-0.1,1.1-0.3c0.3-0.2,0.6-0.4,0.7-0.7
		c0.1-0.2,0.2-0.6,0.2-1.1v-0.3H142.7z"/>
	<path fill="#363639" d="M144.7,395.6l2.3-3.2l-2.1-3h1.3l1,1.5c0.2,0.3,0.3,0.5,0.4,0.7c0.2-0.3,0.3-0.5,0.5-0.7l1-1.5h1.3
		l-2.1,2.9l2.3,3.3h-1.3l-1.3-1.9l-0.3-0.5l-1.6,2.5L144.7,395.6L144.7,395.6z"/>
	<path fill="#363639" d="M151.4,388.3V387h1.1v1.2L151.4,388.3 M151.4,395.6v-6.2h1.1v6.2H151.4L151.4,395.6z"/>
	<path fill="#363639" d="M158.1,394.9c-0.4,0.3-0.8,0.6-1.1,0.7c-0.4,0.1-0.8,0.2-1.2,0.2c-0.7,0-1.2-0.2-1.6-0.5
		c-0.4-0.3-0.6-0.8-0.6-1.3c0-0.3,0.1-0.6,0.2-0.8c0.1-0.3,0.3-0.5,0.6-0.6c0.2-0.1,0.5-0.3,0.8-0.3c0.2,0,0.5-0.1,0.9-0.2
		c0.9-0.1,1.5-0.2,1.9-0.4c0-0.1,0-0.2,0-0.3c0-0.4-0.1-0.7-0.3-0.9c-0.3-0.2-0.7-0.4-1.2-0.4s-0.9,0.1-1.1,0.3
		c-0.2,0.2-0.4,0.5-0.5,0.9l-1-0.1c0.1-0.4,0.3-0.8,0.5-1.1c0.2-0.3,0.5-0.5,0.9-0.6s0.9-0.2,1.4-0.2s1,0.1,1.3,0.2s0.6,0.3,0.7,0.5
		c0.2,0.2,0.3,0.4,0.3,0.7c0,0.2,0.1,0.5,0.1,1v1.4c0,1,0,1.6,0.1,1.9c0,0.3,0.1,0.5,0.3,0.7h-1.1
		C158.2,395.4,158.2,395.2,158.1,394.9 M158,392.5c-0.4,0.2-1,0.3-1.7,0.4c-0.4,0.1-0.7,0.1-0.9,0.2s-0.3,0.2-0.4,0.3
		c-0.1,0.2-0.1,0.3-0.1,0.5c0,0.3,0.1,0.5,0.3,0.7s0.5,0.3,0.9,0.3s0.8-0.1,1.1-0.3c0.3-0.2,0.6-0.4,0.7-0.7
		c0.1-0.2,0.2-0.6,0.2-1.1v-0.3H158z"/>
	<polygon fill="#363639" points="160.8,395.6 160.8,387 161.8,387 161.8,395.6 	"/>
	<path fill="#363639" d="M164.1,398.1h-0.8c1.2-1.9,1.8-3.7,1.8-5.6c0-0.7-0.1-1.5-0.3-2.2c-0.1-0.6-0.3-1.1-0.6-1.7
		c-0.2-0.3-0.5-0.9-0.9-1.8h0.8c0.7,1,1.3,2,1.6,3c0.3,0.9,0.5,1.8,0.5,2.7c0,1.1-0.2,2.1-0.6,3.1S164.7,397.4,164.1,398.1
		L164.1,398.1z"/>
	<path fill="none" stroke="#000000" stroke-miterlimit="10" d="M124.3,404v33.5 M158.5,437.5h-33.4"/>
	<polyline fill="#363639" stroke="#000000" stroke-miterlimit="10" points="125.8,405.5 122.8,405.5 124.3,399.9 125.8,405.5 	"/>
	<polyline fill="#363639" stroke="#000000" stroke-miterlimit="10" points="157.7,438.7 157.7,435.8 163.2,437.3 157.7,438.7 	"/>
</g>
</svg>
