<?xml version="1.0" encoding="utf-8"?>
<!-- Generator: Adobe Illustrator 17.1.0, SVG Export Plug-In . SVG Version: 6.00 Build 0)  -->

<svg version="1.1" id="Layer_1" xmlns="http://www.w3.org/2000/svg" xmlns:xlink="http://www.w3.org/1999/xlink" x="0px" y="0px"
	 width="386px" height="203px" viewBox="113 295 386 203" enable-background="new 113 295 386 203" xml:space="preserve">
<g>
	<rect x="113" y="295" fill="#FFFFFF" width="386" height="203"/>
	<line fill="none" stroke="#000000" stroke-miterlimit="10" x1="152.2" y1="397.8" x2="152.2" y2="435.9"/>
	<polyline fill="#363639" stroke="#000000" stroke-miterlimit="10" points="152.2,402.5 152.2,402.5 150.7,403.4 152.2,397.8 
		153.7,403.4 152.2,402.5 	"/>
	<line fill="none" stroke="#000000" stroke-miterlimit="10" x1="181" y1="435.9" x2="152.2" y2="435.9"/>
	<polyline fill="#363639" stroke="#000000" stroke-miterlimit="10" points="176.3,435.9 176.3,435.9 175.4,434.4 181,435.9 
		175.4,437.4 176.3,435.9 	"/>
	<line fill="none" stroke="#000000" stroke-miterlimit="10" x1="132.7" y1="447.7" x2="152.2" y2="435.9"/>
	<polyline fill="#363639" stroke="#000000" stroke-miterlimit="10" points="136.8,445.3 136.8,445.3 138.3,446.2 132.7,447.7 
		136.8,443.5 136.8,445.3 	"/>
	<path fill="#363639" d="M153.6,392.7v-3.6l-3.3-5h1.4l1.7,2.6c0.3,0.5,0.6,1,0.9,1.5c0.3-0.4,0.6-0.9,0.9-1.5l1.7-2.5h1.3l-3.4,5
		v3.6h-1.2V392.7z"/>
	<path fill="#363639" d="M185.6,442.9l3.3-4.5l-2.9-4.1h1.4l1.6,2.2c0.3,0.5,0.5,0.8,0.7,1.1c0.2-0.3,0.4-0.6,0.7-1l1.7-2.3h1.2
		l-3,4.1l3.3,4.5H192l-2.2-3.1c-0.1-0.2-0.3-0.4-0.4-0.6c-0.2,0.3-0.3,0.5-0.4,0.6l-2.2,3L185.6,442.9L185.6,442.9z"/>
	<path fill="#363639" d="M123.4,458v-1.1l4.4-5.5c0.3-0.4,0.6-0.7,0.9-1h-4.8v-1h6.1v1l-4.8,6l-0.5,0.6h5.5v1H123.4L123.4,458z"/>
	<path fill="none" stroke="#000000" stroke-miterlimit="10" d="M358.6,460.7c-26.5,1.4-58.3-5.4-83.3-17.8 M361.6,382.7
		c-25.5,0.3-55.6-7.5-79.1-20.4 M282.6,362.5c14.4-12.7,35.5-23,55.3-27.1"/>
	<path fill="#363639" stroke="#000000" stroke-miterlimit="10" d="M323.5,377.6c0-1.3-1.5-2.1-2.6-1.5c-1.2,0.7-1.2,2.3,0,2.9
		C322,379.8,323.5,379,323.5,377.6"/>
	<polygon fill="#363639" points="330.6,413.8 330.6,405.2 331.8,405.2 331.8,412.8 336,412.8 336,413.8 	"/>
	<polygon fill="#363639" points="366.2,389.1 366.2,380.5 367.4,380.5 371.9,387.3 371.9,380.5 373,380.5 373,389.1 371.8,389.1 
		367.3,382.4 367.3,389.1 	"/>
	<path fill="#363639" d="M270.2,365.8v-8.6h1.7l2,6.1c0.2,0.6,0.3,1,0.4,1.3c0.1-0.3,0.3-0.8,0.5-1.4l2.1-6h1.5v8.6h-1.1v-7.2
		l-2.5,7.2h-1l-2.5-7.3v7.3H270.2L270.2,365.8z"/>
	<path fill="#363639" stroke="#000000" stroke-miterlimit="10" d="M363.2,382.9c0-1.3-1.4-2.2-2.6-1.5c-1.1,0.7-1.1,2.4,0,3
		C361.8,385.1,363.2,384.2,363.2,382.9"/>
	<path fill="#363639" stroke="#000000" stroke-miterlimit="10" d="M393.4,364.6c0-0.9-1-1.4-1.8-1s-0.8,1.6,0,2
		S393.4,365.5,393.4,364.6"/>
	<path fill="#363639" stroke="#000000" stroke-miterlimit="10" d="M428.6,353.5c0-1.3-1.5-2.1-2.6-1.5c-1.2,0.7-1.2,2.3,0,2.9
		C427.1,355.6,428.6,354.8,428.6,353.5"/>
	<path fill="#363639" stroke="#000000" stroke-miterlimit="10" d="M434.4,394.9c0-1.3-1.4-2.1-2.5-1.5c-1.1,0.7-1.1,2.3,0,2.9
		C433,397.1,434.4,396.3,434.4,394.9"/>
	<path fill="#363639" stroke="#000000" stroke-miterlimit="10" d="M430.5,435.4c0-1.3-1.4-2.2-2.6-1.5c-1.1,0.7-1.1,2.4,0,3
		C429.1,437.6,430.5,436.8,430.5,435.4"/>
	<path fill="#363639" stroke="#000000" stroke-miterlimit="10" d="M401.2,450.8c0-1.3-1.5-2.2-2.6-1.5c-1.2,0.7-1.2,2.4,0,3
		C399.7,453,401.2,452.1,401.2,450.8"/>
	<path fill="#363639" stroke="#000000" stroke-miterlimit="10" d="M360.6,460.2c0-1.3-1.4-2.2-2.6-1.5c-1.1,0.7-1.1,2.4,0,3
		C359.2,462.4,360.6,461.6,360.6,460.2"/>
	<path fill="#363639" stroke="#000000" stroke-miterlimit="10" d="M366.6,422.4c0-1.3-1.5-2.2-2.6-1.5c-1.2,0.7-1.2,2.4,0,3
		C365.1,424.6,366.6,423.7,366.6,422.4"/>
	<path fill="#363639" stroke="#000000" stroke-miterlimit="10" d="M390.1,421.4c0-1.3-1.5-2.1-2.6-1.5c-1.2,0.7-1.2,2.3,0,2.9
		C388.6,423.5,390.1,422.7,390.1,421.4"/>
	<path fill="#363639" stroke="#000000" stroke-miterlimit="10" d="M384.1,338.5c0-1.3-1.4-2.2-2.6-1.5c-1.1,0.7-1.1,2.4,0,3
		C382.7,340.7,384.1,339.8,384.1,338.5"/>
	<path fill="#363639" stroke="#000000" stroke-miterlimit="10" d="M339.5,335.9c0-1.3-1.5-2.2-2.6-1.5c-1.2,0.7-1.2,2.4,0,3
		C338,338.1,339.5,337.2,339.5,335.9"/>
	<path fill="#363639" stroke="#000000" stroke-miterlimit="10" d="M312.4,345.1c0-1.3-1.5-2.2-2.6-1.5c-1.2,0.7-1.2,2.4,0,3
		C310.9,347.2,312.4,346.4,312.4,345.1"/>
	<path fill="#363639" stroke="#000000" stroke-miterlimit="10" d="M285,362.6c0-1.3-1.5-2.2-2.6-1.5c-1.2,0.7-1.2,2.4,0,3
		C283.5,364.8,285,364,285,362.6"/>
	<path fill="#363639" stroke="#000000" stroke-miterlimit="10" d="M285.6,402.8c0-1.3-1.5-2.2-2.6-1.5c-1.2,0.7-1.2,2.4,0,3
		C284.2,405,285.6,404.1,285.6,402.8"/>
	<path fill="#363639" stroke="#000000" stroke-miterlimit="10" d="M277.4,442.9c0-1.3-1.4-2.2-2.6-1.5c-1.1,0.7-1.1,2.4,0,3
		C276,445.1,277.4,444.3,277.4,442.9"/>
	<path fill="#363639" stroke="#000000" stroke-miterlimit="10" d="M316.6,430.8c0-1.3-1.5-2.1-2.6-1.5c-1.2,0.7-1.2,2.3,0,2.9
		C315.2,433,316.6,432.2,316.6,430.8"/>
	<path fill="#363639" stroke="#000000" stroke-miterlimit="10" d="M314.3,456c0-1.3-1.4-2.1-2.5-1.5c-1.1,0.7-1.1,2.3,0,2.9
		C312.9,458.1,314.3,457.3,314.3,456"/>
	<path fill="#363639" stroke="#000000" stroke-miterlimit="10" d="M340.4,416.8c0-1.3-1.4-2.2-2.6-1.5c-1.1,0.7-1.1,2.4,0,3
		C339,419,340.4,418.2,340.4,416.8"/>
	<path fill="#363639" stroke="#000000" stroke-miterlimit="10" d="M344.4,379.3c0-1.3-1.5-2.2-2.6-1.5c-1.2,0.7-1.2,2.4,0,3
		C342.9,381.5,344.4,380.6,344.4,379.3"/>
	<path fill="#363639" d="M331.6,334.2v-8.6h3.2c0.6,0,1,0,1.3,0.1c0.4,0.1,0.8,0.2,1.1,0.4c0.3,0.2,0.5,0.5,0.7,0.8
		c0.2,0.4,0.3,0.7,0.3,1.2c0,0.7-0.2,1.4-0.7,1.9s-1.3,0.8-2.5,0.8h-2.2v3.5L331.6,334.2 M332.8,329.7h2.2c0.7,0,1.2-0.1,1.6-0.4
		c0.3-0.3,0.5-0.7,0.5-1.2c0-0.4-0.1-0.7-0.3-0.9c-0.2-0.3-0.4-0.4-0.7-0.5c-0.2,0-0.6-0.1-1.1-0.1h-2.2V329.7L332.8,329.7z"/>
	<path fill="#363639" d="M383.5,333.4l-2.3-8.6h1.2l1.3,5.6c0.1,0.6,0.3,1.2,0.4,1.8c0.2-0.9,0.3-1.4,0.4-1.6l1.6-5.8h1.4l1.2,4.3
		c0.3,1.1,0.5,2.1,0.7,3c0.1-0.5,0.3-1.2,0.4-1.9l1.3-5.5h1.2l-2.4,8.6h-1.1l-1.8-6.5c-0.2-0.6-0.2-0.9-0.3-1
		c-0.1,0.4-0.2,0.7-0.3,1l-1.8,6.5h-1.1V333.4z"/>
	<path fill="#363639" d="M428.5,346.3c0-1.4,0.4-2.5,1.2-3.3c0.8-0.8,1.8-1.2,3-1.2c0.8,0,1.5,0.2,2.1,0.6s1.1,0.9,1.5,1.6
		c0.3,0.7,0.5,1.5,0.5,2.3c0,0.9-0.2,1.7-0.5,2.3c-0.4,0.7-0.9,1.2-1.5,1.6c-0.6,0.3-1.3,0.5-2.1,0.5c-0.8,0-1.5-0.2-2.2-0.6
		c-0.6-0.4-1.1-0.9-1.5-1.6C428.7,347.8,428.5,347.1,428.5,346.3 M429.7,346.3c0,1,0.3,1.8,0.8,2.4s1.3,0.9,2.1,0.9
		c0.9,0,1.6-0.3,2.1-0.9s0.8-1.5,0.8-2.6c0-0.7-0.1-1.3-0.4-1.8c-0.2-0.5-0.6-0.9-1-1.2s-1-0.4-1.5-0.4c-0.8,0-1.5,0.3-2.1,0.8
		C430,344.1,429.7,345,429.7,346.3L429.7,346.3z"/>
	<polygon fill="#363639" points="434.1,439.3 434.1,430.7 435.2,430.7 435.2,434.9 439.5,430.7 441,430.7 437.4,434.2 441.2,439.3 
		439.7,439.3 436.6,434.9 435.2,436.3 435.2,439.3 	"/>
	<path fill="#363639" d="M403.7,459.2v-8.6h3.8c0.8,0,1.3,0.1,1.7,0.2c0.4,0.2,0.7,0.4,1,0.8c0.2,0.4,0.4,0.8,0.4,1.3
		c0,0.6-0.2,1.1-0.6,1.5s-1,0.7-1.8,0.8c0.3,0.1,0.5,0.3,0.7,0.4c0.3,0.3,0.6,0.7,0.9,1.1l1.5,2.3h-1.4l-1.1-1.8
		c-0.3-0.5-0.6-0.9-0.8-1.2s-0.4-0.5-0.6-0.6s-0.3-0.2-0.5-0.2c-0.1,0-0.3,0-0.6,0H405v3.8h-1.3 M404.8,454.4h2.4
		c0.5,0,0.9,0,1.2-0.2c0.3-0.1,0.5-0.3,0.7-0.5c0.1-0.2,0.2-0.5,0.2-0.8c0-0.4-0.2-0.7-0.4-1c-0.3-0.3-0.8-0.4-1.4-0.4h-2.7
		L404.8,454.4L404.8,454.4z"/>
	<path fill="#363639" d="M358.9,470l1-0.1c0,0.7,0.2,1.1,0.4,1.4c0.2,0.2,0.5,0.4,0.9,0.4c0.3,0,0.5-0.1,0.7-0.2s0.3-0.3,0.4-0.5
		s0.1-0.6,0.1-1.1V464h1.1v5.9c0,0.7-0.1,1.3-0.3,1.7c-0.2,0.4-0.4,0.7-0.8,0.9c-0.4,0.2-0.8,0.3-1.3,0.3c-0.8,0-1.3-0.2-1.7-0.6
		C359.1,471.5,358.9,470.8,358.9,470L358.9,470z"/>
	<path fill="#363639" d="M275.5,405.2v-3.6l-3.3-5h1.4l1.7,2.6c0.3,0.5,0.6,1,0.9,1.5c0.3-0.4,0.6-0.9,0.9-1.5l1.7-2.5h1.3l-3.4,5
		v3.6h-1.2V405.2z"/>
	<path fill="#363639" d="M387.9,414l1.1-0.1c0,0.4,0.2,0.8,0.4,1.1c0.2,0.3,0.5,0.5,0.9,0.7s0.8,0.3,1.3,0.3c0.4,0,0.8-0.1,1.1-0.2
		c0.3-0.1,0.6-0.3,0.7-0.5c0.2-0.2,0.2-0.5,0.2-0.7c0-0.3-0.1-0.5-0.2-0.7c-0.2-0.2-0.4-0.4-0.8-0.5c-0.2-0.1-0.7-0.2-1.5-0.4
		s-1.3-0.4-1.7-0.5c-0.4-0.2-0.7-0.5-0.9-0.8c-0.2-0.3-0.3-0.7-0.3-1.1s0.1-0.8,0.4-1.2c0.2-0.4,0.6-0.7,1.1-0.9
		c0.5-0.2,1-0.3,1.6-0.3s1.2,0.1,1.7,0.3c0.5,0.2,0.9,0.5,1.1,0.9c0.3,0.4,0.4,0.9,0.4,1.4l-1.1,0.1c-0.1-0.5-0.3-0.9-0.6-1.2
		c-0.3-0.3-0.8-0.4-1.5-0.4s-1.2,0.1-1.5,0.4s-0.5,0.6-0.5,0.9s0.1,0.6,0.3,0.8c0.2,0.2,0.8,0.4,1.7,0.6c0.9,0.2,1.6,0.4,1.9,0.5
		c0.5,0.2,0.9,0.5,1.1,0.9s0.4,0.8,0.4,1.2s-0.1,0.9-0.4,1.3s-0.6,0.7-1.1,0.9c-0.5,0.2-1,0.3-1.7,0.3c-0.8,0-1.4-0.1-2-0.3
		c-0.5-0.2-0.9-0.6-1.2-1C388.1,415.1,387.9,414.5,387.9,414L387.9,414z"/>
	<path fill="#363639" d="M329.4,365.4h1.1v5c0,0.9-0.1,1.6-0.3,2.1c-0.2,0.5-0.6,0.9-1.1,1.2c-0.5,0.3-1.2,0.5-2,0.5s-1.5-0.1-2-0.4
		s-0.9-0.7-1.1-1.2s-0.3-1.2-0.3-2.2v-5h1.1v5c0,0.8,0.1,1.3,0.2,1.7c0.1,0.4,0.4,0.6,0.7,0.8c0.3,0.2,0.7,0.3,1.2,0.3
		c0.8,0,1.4-0.2,1.8-0.6s0.5-1.1,0.5-2.2v-5H329.4z"/>
	<path fill="#363639" d="M308.4,340.2l3.3-4.5l-2.9-4.1h1.4l1.6,2.2c0.3,0.5,0.5,0.8,0.7,1.1c0.2-0.3,0.4-0.6,0.7-1l1.7-2.3h1.2
		l-3,4.1l3.3,4.5H315l-2.2-3.1c-0.1-0.2-0.3-0.4-0.4-0.6c-0.2,0.3-0.3,0.5-0.4,0.6l-2.2,3L308.4,340.2L308.4,340.2z"/>
	<path fill="#363639" d="M397.5,375.4l-3.3-8.6h1.2l2.2,6.2c0.2,0.5,0.3,1,0.5,1.4c0.1-0.5,0.3-0.9,0.5-1.4l2.3-6.2h1.2l-3.4,8.6
		H397.5L397.5,375.4z"/>
	<path fill="#363639" d="M313.2,467.6c0.5,0.4,1,0.6,1.5,0.8l-0.3,0.8c-0.6-0.2-1.2-0.6-1.8-1c-0.6,0.3-1.3,0.5-2.1,0.5
		c-0.8,0-1.5-0.2-2.1-0.6s-1.1-0.9-1.5-1.6s-0.5-1.4-0.5-2.3c0-0.8,0.2-1.6,0.5-2.3c0.3-0.7,0.8-1.2,1.5-1.6
		c0.6-0.4,1.3-0.6,2.1-0.6s1.5,0.2,2.1,0.6s1.1,0.9,1.5,1.6s0.5,1.4,0.5,2.3c0,0.7-0.1,1.3-0.3,1.9
		C314,466.7,313.6,467.2,313.2,467.6 M310.7,466.2c0.6,0.2,1.2,0.5,1.6,0.8c0.7-0.6,1-1.5,1-2.7c0-0.7-0.1-1.3-0.4-1.8
		c-0.2-0.5-0.6-0.9-1-1.2c-0.5-0.3-1-0.4-1.5-0.4c-0.9,0-1.6,0.3-2.1,0.9c-0.6,0.6-0.8,1.4-0.8,2.6c0,1.1,0.3,2,0.8,2.6
		c0.6,0.6,1.2,0.9,2.1,0.9c0.4,0,0.8-0.1,1.2-0.2c-0.4-0.2-0.7-0.4-1.1-0.5L310.7,466.2L310.7,466.2z"/>
	<polygon fill="#363639" points="270.4,446.2 270.4,437.6 271.5,437.6 271.5,446.2 	"/>
	<polygon fill="#363639" points="312.7,425.4 312.7,417.8 309.9,417.8 309.9,416.8 316.7,416.8 316.7,417.8 313.8,417.8 
		313.8,425.4 	"/>
	<path fill="#363639" d="M369.4,430.2v-1.1l4.4-5.5c0.3-0.4,0.6-0.7,0.9-1h-4.8v-1h6.1v1l-4.8,6l-0.5,0.6h5.5v1H369.4L369.4,430.2z"
		/>
	<path fill="#363639" d="M347,378.6V370h3.2c0.6,0,1.2,0.1,1.6,0.3c0.4,0.2,0.7,0.4,0.9,0.8c0.2,0.4,0.3,0.7,0.3,1.1s-0.1,0.7-0.3,1
		c-0.2,0.3-0.5,0.6-0.9,0.8c0.5,0.2,0.9,0.4,1.2,0.8c0.3,0.4,0.4,0.8,0.4,1.3c0,0.4-0.1,0.8-0.3,1.1c-0.2,0.3-0.4,0.6-0.6,0.8
		c-0.3,0.2-0.6,0.3-0.9,0.4c-0.4,0.1-0.8,0.1-1.4,0.1H347 M348.1,373.6h1.9c0.5,0,0.9,0,1.1-0.1c0.3-0.1,0.5-0.2,0.6-0.4
		c0.1-0.2,0.2-0.4,0.2-0.7c0-0.3-0.1-0.5-0.2-0.8c-0.1-0.2-0.3-0.4-0.6-0.4c-0.3-0.1-0.7-0.1-1.3-0.1h-1.7V373.6 M348.1,377.6h2.1
		c0.4,0,0.6,0,0.8,0c0.3,0,0.5-0.1,0.6-0.2c0.2-0.1,0.3-0.3,0.4-0.5s0.2-0.4,0.2-0.7c0-0.3-0.1-0.6-0.3-0.8s-0.4-0.4-0.7-0.5
		c-0.3-0.1-0.7-0.1-1.3-0.1h-2v2.8H348.1z"/>
	<path fill="none" stroke="#000000" stroke-miterlimit="10" d="M426.6,352c7.6,25.1,8.5,57.2,2.4,84 M361.4,381.9
		c5.7,24,4.7,54.1-2.5,79 M282.8,362.7c4.5,24.9,1.9,55.8-6.9,80.9 M361.9,382.9c17.1-14.2,41.9-25.5,64.9-29.6"/>
	<path fill="none" stroke="#000000" stroke-miterlimit="10" stroke-dasharray="10,4" d="M337.7,336.1c6.9,24.4,7.2,55.4,0.9,81.3"/>
	<path fill="none" stroke="#000000" stroke-miterlimit="10" d="M337.3,335.5c28.3-2,62.4,4.6,89.4,17.4"/>
	<path fill="none" stroke="#000000" stroke-miterlimit="10" stroke-dasharray="10,4" d="M338.5,416.7c28.8-1.8,63.4,5.3,90.6,18.6"
		/>
	<path fill="none" stroke="#000000" stroke-miterlimit="10" d="M429,435.2c-19.1,13.3-46,22.9-70.4,25.2"/>
	<path fill="none" stroke="#000000" stroke-miterlimit="10" stroke-dasharray="10,4" d="M338.6,416.6c-16.7,13-40.5,22.9-62.5,26.2"
		/>
	<path fill="#363639" d="M439,397.8l3.3-8.6h1.2l3.5,8.6h-1.3l-1-2.6h-3.6l-0.9,2.6H439 M441.4,394.2h2.9l-0.9-2.4
		c-0.3-0.7-0.5-1.3-0.6-1.8c-0.1,0.6-0.3,1.1-0.5,1.6L441.4,394.2L441.4,394.2z"/>
	<path fill="#363639" d="M327.7,315v-6.2h0.9v0.9c0.2-0.4,0.5-0.7,0.7-0.9c0.2-0.1,0.4-0.2,0.7-0.2c0.4,0,0.7,0.1,1.1,0.3l-0.4,1
		c-0.3-0.1-0.5-0.2-0.8-0.2c-0.2,0-0.4,0.1-0.6,0.2s-0.3,0.3-0.4,0.6c-0.1,0.4-0.2,0.8-0.2,1.2v3.3L327.7,315L327.7,315z"/>
	<line fill="none" stroke="#000000" stroke-miterlimit="10" x1="478.8" y1="404.6" x2="406.6" y2="400.1"/>
	<polyline fill="#363639" stroke="#000000" stroke-miterlimit="10" points="473.2,405.8 473.4,402.8 478.8,404.6 473.2,405.8 	"/>
	<path fill="#363639" d="M484.7,410.1l1-0.2c0,0.4,0.2,0.7,0.5,1c0.3,0.2,0.6,0.3,1.1,0.3s0.8-0.1,1.1-0.3c0.2-0.2,0.3-0.4,0.3-0.7
		c0-0.2-0.1-0.4-0.3-0.6c-0.1-0.1-0.5-0.2-1.1-0.4c-0.8-0.2-1.3-0.4-1.6-0.5c-0.3-0.1-0.5-0.3-0.7-0.6c-0.2-0.3-0.2-0.5-0.2-0.8
		s0.1-0.5,0.2-0.8c0.1-0.2,0.3-0.4,0.5-0.6c0.2-0.1,0.4-0.2,0.7-0.3c0.3-0.1,0.6-0.1,0.9-0.1c0.5,0,0.9,0.1,1.3,0.2s0.6,0.3,0.8,0.6
		c0.2,0.2,0.3,0.6,0.4,1l-1,0.1c0-0.3-0.2-0.6-0.4-0.7c-0.2-0.2-0.5-0.3-0.9-0.3c-0.5,0-0.8,0.1-1,0.2c-0.2,0.2-0.3,0.3-0.3,0.6
		c0,0.1,0,0.3,0.1,0.4s0.2,0.2,0.4,0.3c0.1,0,0.4,0.1,0.9,0.3c0.7,0.2,1.3,0.4,1.6,0.5c0.3,0.1,0.5,0.3,0.7,0.6
		c0.2,0.2,0.3,0.5,0.3,0.9s-0.1,0.7-0.3,1s-0.5,0.5-0.9,0.7s-0.8,0.3-1.3,0.3c-0.8,0-1.4-0.2-1.8-0.5
		C485.1,411.2,484.8,410.7,484.7,410.1L484.7,410.1z"/>
	<line fill="none" stroke="#000000" stroke-miterlimit="10" x1="424.3" y1="321.9" x2="402.7" y2="343.3"/>
	<polyline fill="#363639" stroke="#000000" stroke-miterlimit="10" points="421.4,326.9 419.3,324.8 424.3,321.9 421.4,326.9 	"/>
	<path fill="#363639" d="M428.9,321.7l0.2,0.9c-0.3,0-0.6,0.1-0.8,0.1c-0.4,0-0.7-0.1-0.9-0.2c-0.2-0.1-0.4-0.3-0.4-0.5
		c-0.1-0.2-0.1-0.6-0.1-1.2v-3.6H426v-0.8h0.8v-1.5l1-0.6v2.2h1.1v0.8h-1.1v3.6c0,0.3,0,0.5,0.1,0.6c0,0.1,0.1,0.2,0.2,0.2
		s0.2,0.1,0.4,0.1C428.5,321.7,428.7,321.7,428.9,321.7L428.9,321.7z"/>
	<path fill="none" stroke="#000000" stroke-miterlimit="10" d="M402.7,343.3l-12.5,11.9 M336.9,314.5l2.6,5.5"/>
	<polyline fill="#363639" stroke="#000000" stroke-miterlimit="10" points="340.6,318.9 337.9,320.1 336.9,314.5 340.6,318.9 	"/>
	<path fill="none" stroke="#000000" stroke-miterlimit="10" d="M336.7,313.5c6.6,13.2,11.2,27.3,13.7,41.9"/>
</g>
</svg>
