<?xml version="1.0" encoding="utf-8"?>
<!-- Generator: Adobe Illustrator 17.1.0, SVG Export Plug-In . SVG Version: 6.00 Build 0)  -->

<svg version="1.1" id="Layer_1" xmlns="http://www.w3.org/2000/svg" xmlns:xlink="http://www.w3.org/1999/xlink" x="0px" y="0px"
	 width="286px" height="175px" viewBox="162 309 286 175" enable-background="new 162 309 286 175" xml:space="preserve">
<g>
	<rect x="162" y="309" fill="#FFFFFF" width="286" height="175"/>
	<polyline fill="#FFFFFF" points="262.5,374.6 419.1,459.1 430.6,437.5 273.6,354 262.5,374.6 	"/>
	<path fill="none" stroke="#000000" stroke-miterlimit="10" d="M262.5,374.6l156.6,84.5 M419.1,459.1l11.5-21.6 M430.6,437.5
		l-157-83.5"/>
	<path fill="#FFFFFF" stroke="#000000" stroke-miterlimit="10" d="M431.1,448.1c3.2-8.6-0.3-13.9-6.4-9.6c-6,4.3-10.1,15-7.2,19.3
		C420.4,462,427.9,456.6,431.1,448.1"/>
	<path fill="#BEB4B0" stroke="#000000" stroke-miterlimit="10" d="M348.6,403.3c3.2-8.6-0.4-13.9-6.4-9.6s-10,15-7.2,19.3
		C337.8,417.2,345.4,411.9,348.6,403.3"/>
	<line fill="none" stroke="#000000" stroke-miterlimit="10" x1="267.8" y1="363.1" x2="423.3" y2="448.5"/>
	<path fill="none" stroke="#000000" stroke-miterlimit="10" stroke-dasharray="3,3" d="M267.8,363.1l76.4-3.9 M342.7,359.2
		l82.5,90.3"/>
	<line fill="none" stroke="#000000" stroke-miterlimit="10" x1="371.4" y1="419.2" x2="340.7" y2="402.4"/>
	<path fill="#363639" d="M433.2,455.2l1-0.1c0,0.7,0.2,1.1,0.4,1.4c0.2,0.2,0.5,0.4,0.9,0.4c0.3,0,0.5-0.1,0.7-0.2s0.3-0.3,0.4-0.5
		s0.1-0.6,0.1-1.1v-5.9h1.1v5.9c0,0.7-0.1,1.3-0.3,1.7c-0.2,0.4-0.4,0.7-0.8,0.9c-0.4,0.2-0.8,0.3-1.3,0.3c-0.8,0-1.3-0.2-1.7-0.6
		C433.4,456.7,433.2,456.1,433.2,455.2L433.2,455.2z"/>
	<polygon fill="#363639" points="351.2,351.6 351.2,343 352.3,343 352.3,347.3 356.6,343 358.1,343 354.5,346.5 358.3,351.6 
		356.8,351.6 353.7,347.3 352.3,348.6 352.3,351.6 	"/>
	<path fill="none" stroke="#000000" stroke-miterlimit="10" d="M341.4,320.8V403 M361.9,390.9L342,402.7"/>
	<path fill="#363639" d="M366.6,403.8l-0.2-1c0.2,0,0.4,0.1,0.6,0c0.2,0,0.4-0.1,0.5-0.2s0.2-0.2,0.3-0.4c0.1-0.1,0.1-0.4,0.2-0.8
		c0-0.1,0-0.1,0.1-0.3l-2.9-6l1.1-0.1l1.6,3.5c0.2,0.4,0.4,0.9,0.6,1.4c0.1-0.5,0.2-1,0.3-1.5l1-3.7l1.1-0.1l-1.8,6.5
		c-0.2,0.7-0.3,1.2-0.5,1.5c-0.2,0.4-0.3,0.6-0.6,0.8c-0.2,0.2-0.5,0.3-0.8,0.3C367.1,403.9,366.9,403.9,366.6,403.8L366.6,403.8z"
		/>
	<path fill="#363639" d="M369.4,430.8l2-3.4l-2.4-2.8l1.3-0.1l1.1,1.4c0.2,0.3,0.4,0.5,0.5,0.7c0.1-0.3,0.3-0.5,0.4-0.7l0.9-1.6
		l1.3-0.1l-1.9,3.1l2.6,3.1l-1.3,0.1l-1.5-1.8l-0.4-0.5l-1.4,2.6L369.4,430.8L369.4,430.8z"/>
	<path fill="#363639" d="M329.4,328.8v-0.9l4-4.5c-0.5,0-0.9,0-1.2,0h-2.5v-0.9h5.1v0.7l-3.4,3.9l-0.6,0.7c0.5,0,0.9-0.1,1.3-0.1
		h2.9v0.9h-5.6V328.8z"/>
	<line fill="none" stroke="#000000" stroke-miterlimit="10" x1="200.8" y1="397.8" x2="200.8" y2="435.9"/>
	<polyline fill="#363639" stroke="#000000" stroke-miterlimit="10" points="200.8,402.5 200.8,402.5 199.3,403.4 200.8,397.8 
		202.3,403.4 200.8,402.5 	"/>
	<line fill="none" stroke="#000000" stroke-miterlimit="10" x1="229.5" y1="435.9" x2="200.8" y2="435.9"/>
	<polyline fill="#363639" stroke="#000000" stroke-miterlimit="10" points="224.8,435.9 224.8,435.9 224,434.4 229.5,435.9 
		224,437.4 224.8,435.9 	"/>
	<line fill="none" stroke="#000000" stroke-miterlimit="10" x1="181.3" y1="447.7" x2="200.8" y2="435.9"/>
	<polyline fill="#363639" stroke="#000000" stroke-miterlimit="10" points="185.4,445.3 185.4,445.3 186.9,446.2 181.3,447.7 
		185.4,443.6 185.4,445.3 	"/>
	<path fill="#363639" d="M202,392.9v-3.6l-3.3-5h1.4l1.7,2.6c0.3,0.5,0.6,1,0.9,1.5c0.3-0.4,0.6-0.9,0.9-1.5l1.7-2.5h1.3l-3.4,5v3.6
		H202V392.9z"/>
	<path fill="#363639" d="M234.2,442.8l3.3-4.5l-2.9-4.1h1.4l1.6,2.2c0.3,0.5,0.5,0.8,0.7,1.1c0.2-0.3,0.4-0.6,0.7-1l1.7-2.3h1.2
		l-3,4.1l3.3,4.5h-1.4l-2.2-3.1c-0.1-0.2-0.3-0.4-0.4-0.6c-0.2,0.3-0.3,0.5-0.4,0.6l-2.2,3L234.2,442.8L234.2,442.8z"/>
	<path fill="#363639" d="M172,458.2v-1.1l4.4-5.5c0.3-0.4,0.6-0.7,0.9-1h-4.8v-1h6.1v1l-4.8,6l-0.5,0.6h5.5v1H172L172,458.2z"/>
	<polyline fill="#363639" stroke="#000000" stroke-miterlimit="10" points="341.7,323.6 341.7,323.6 340.3,324.5 341.7,318.9 
		343.2,324.5 341.7,323.6 	"/>
	<polyline fill="#363639" stroke="#000000" stroke-miterlimit="10" points="368.2,417.7 368.2,417.7 368.1,416 372.5,419.7 
		366.8,418.6 368.2,417.7 	"/>
	<polygon fill="#363639" points="255.4,366.5 255.4,357.9 256.6,357.9 256.6,366.5 	"/>
	<path fill="none" stroke="#000000" stroke-miterlimit="10" d="M261.9,374.2c-2-1.1-2.8-4.3-1.9-8.4c0.8-4,3.1-8.2,5.9-10.7
		s5.6-3,7.2-1.2"/>
	<path fill="none" stroke="#000000" stroke-miterlimit="10" stroke-dasharray="3,3" d="M273.2,354.4c2.3,8.4-2.7,17.1-11.1,19.4"/>
	<path fill="#363639" stroke="#000000" stroke-miterlimit="10" d="M426.2,448.4c0-1.5-1.6-2.4-2.9-1.7c-1.3,0.8-1.3,2.6,0,3.4
		C424.6,450.9,426.2,450,426.2,448.4"/>
	<path fill="#363639" stroke="#000000" stroke-miterlimit="10" d="M269.8,364c0-1.5-1.6-2.4-2.9-1.7c-1.3,0.8-1.3,2.6,0,3.4
		C268.2,366.4,269.8,365.5,269.8,364"/>
	<path fill="#363639" stroke="#000000" stroke-miterlimit="10" d="M343.7,358.3c0-1.5-1.6-2.5-2.9-1.7s-1.3,2.7,0,3.5
		C342,360.8,343.7,359.8,343.7,358.3"/>
	<polyline fill="#363639" stroke="#000000" stroke-miterlimit="10" points="361.1,390.9 361.1,390.9 359.5,390.3 364.8,388 
		361.3,392.6 361.1,390.9 	"/>
</g>
</svg>
