<?xml version="1.0" encoding="utf-8"?>
<!-- Generator: Adobe Illustrator 14.0.0, SVG Export Plug-In . SVG Version: 6.00 Build 43363)  -->

<svg version="1.1" id="Layer_1" xmlns="http://www.w3.org/2000/svg" xmlns:xlink="http://www.w3.org/1999/xlink" x="0px" y="0px"
	 width="300px" height="212px" viewBox="0 0 300 212" enable-background="new 0 0 300 212" xml:space="preserve">
<g>
	<rect fill="#FFFFFF" width="300" height="212"/>
	<path fill="#FFFFFF" stroke="#000000" stroke-miterlimit="10" d="M125.9,87.5c-1.101-1.7-2.601-3.2-4.2-4.4
		c-6.9-5-16.4-4-22.2,2.101"/>
	<path fill="none" stroke="#000000" stroke-miterlimit="10" d="M150.7,101.5l31.6-62.1 M96.6,68.6h36"/>
	<polygon points="132.6,68.6 132.6,69.1 123.6,71.6 123.6,65.6 132.6,68.1 	"/>
	<line fill="none" stroke="#000000" stroke-miterlimit="10" x1="81.4" y1="67.8" x2="81.4" y2="170.1"/>
	<polygon points="81.4,67.8 81.9,67.8 84.4,76.8 78.4,76.8 80.9,67.8 	"/>
	<polygon points="81.4,170.1 80.9,170.1 78.4,161.1 84.4,161.1 81.9,170.1 	"/>
	<polyline fill="none" stroke="#000000" stroke-miterlimit="10" points="150.9,202.5 150.7,101.5 9.7,101.7 9.9,202.5 150.9,202.5 	
		"/>
	<line fill="none" stroke="#000000" stroke-miterlimit="10" stroke-dasharray="10,4" x1="41.4" y1="141.5" x2="182.4" y2="141.3"/>
	<polyline fill="none" stroke="#000000" stroke-miterlimit="10" points="182.4,141.3 182.3,39.4 41.3,39.6 	"/>
	<path fill="none" stroke="#000000" stroke-miterlimit="10" stroke-dasharray="10,4" d="M41.3,39.6L41.4,141.5 M10.9,201.5
		l31.6-61.2"/>
	<rect x="105.3" y="76.2" fill="#FFFFFF" width="13.3" height="15.6"/>
	<rect x="112.6" y="103.7" fill="#FFFFFF" width="13.301" height="15.6"/>
	<rect x="80" y="110.8" fill="#FFFFFF" width="13.3" height="15.601"/>
	<rect x="111" y="66.4" fill="#FFFFFF" width="8.6" height="4.899"/>
	<rect x="154.6" y="48.9" fill="#FFFFFF" width="49.4" height="16.699"/>
	<path fill="none" stroke="#000000" stroke-miterlimit="10" d="M77.5,66.3h7.9 M78.8,170.6H84"/>
	<polygon fill="#FFFFFF" stroke="#000000" stroke-miterlimit="10" points="91.9,164.2 85.9,178.2 101,178.2 106.9,164.2 	"/>
	<line fill="none" stroke="#000000" stroke-miterlimit="10" x1="96.3" y1="170.4" x2="196.4" y2="170.4"/>
	<polygon points="196.4,170.4 196.4,170.9 187.4,173.4 187.4,167.4 196.4,169.9 	"/>
	<line fill="none" stroke="#000000" stroke-miterlimit="10" x1="96.3" y1="170.4" x2="96.3" y2="25.4"/>
	<polygon points="96.3,25.4 96.8,25.4 99.3,34.4 93.3,34.4 95.8,25.4 	"/>
	<line fill="none" stroke="#000000" stroke-miterlimit="10" x1="96.3" y1="170.4" x2="120.7" y2="127.4"/>
	<polygon points="120.7,127.4 121.1,127.7 118.8,136.7 113.6,133.8 120.2,127.2 	"/>
	<line fill="none" stroke="#000000" stroke-miterlimit="10" x1="96.3" y1="170.4" x2="142.1" y2="54.7"/>
	<polygon fill="#FFFFFF" stroke="#000000" stroke-miterlimit="10" points="138.1,50.5 133.6,61.4 144.9,61.4 149.3,50.5 	"/>
	<path fill="none" stroke="#000000" stroke-miterlimit="10" d="M142.1,54.7h-35.5 M142.1,54.7l-9.5,14 M96.6,68.6l9.9-13.899"/>
	<polygon points="106.4,54.7 106.8,55 103.7,63.8 98.8,60.3 106,54.4 	"/>
	<path fill="#363639" d="M92.2,19.6v-1.1L96.6,13c0.301-0.4,0.601-0.7,0.9-1h-4.8v-1h6.1v1L94,18l-0.5,0.6H99v1H92.2L92.2,19.6z"/>
	<path fill="#363639" d="M199,173.2l3.3-4.5L199.4,164.6h1.399l1.601,2.2c0.3,0.5,0.5,0.8,0.699,1.101c0.2-0.301,0.4-0.601,0.7-1
		l1.7-2.301h1.2l-3,4.101l3.3,4.5h-1.4L203.4,170.1c-0.101-0.199-0.301-0.399-0.4-0.6c-0.2,0.3-0.3,0.5-0.4,0.6l-2.199,3L199,173.2
		L199,173.2z"/>
	<path fill="#363639" d="M126.9,130.5v-3.6l-3.301-5h1.4l1.7,2.6c0.3,0.5,0.6,1,0.899,1.5c0.301-0.4,0.601-0.9,0.9-1.5l1.7-2.5h1.3
		l-3.4,5v3.6H126.9V130.5z"/>
	<polygon fill="#363639" points="155.3,60.4 155.3,51.8 156.4,51.8 156.4,55.4 160.9,55.4 160.9,51.8 162,51.8 162,60.4 160.9,60.4 
		160.9,56.4 156.4,56.4 156.4,60.4 	"/>
	<path fill="#363639" d="M168,58.4l1.1,0.1c-0.199,0.6-0.5,1.1-1,1.5c-0.5,0.3-1.1,0.5-1.8,0.5c-0.899,0-1.6-0.3-2.2-0.8
		c-0.5-0.601-0.8-1.3-0.8-2.4c0-1,0.3-1.899,0.8-2.399c0.5-0.601,1.2-0.9,2.101-0.9c0.8,0,1.5,0.3,2,0.9
		c0.5,0.6,0.8,1.399,0.8,2.399c0,0.101,0,0.2,0,0.3h-4.6c0,0.7,0.199,1.2,0.6,1.601c0.3,0.399,0.8,0.5,1.3,0.5
		c0.4,0,0.7-0.101,1-0.3C167.6,59.2,167.8,58.9,168,58.4 M164.5,56.7h3.5c0-0.5-0.2-0.9-0.4-1.2c-0.3-0.4-0.8-0.6-1.3-0.6
		s-0.899,0.199-1.2,0.5C164.8,55.8,164.6,56.2,164.5,56.7L164.5,56.7z"/>
	<path fill="#363639" d="M170.5,60.4v-6.2h0.9V55.1c0.199-0.3,0.399-0.5,0.8-0.699c0.3-0.2,0.7-0.301,1.1-0.301
		c0.5,0,0.8,0.101,1.101,0.301c0.3,0.199,0.5,0.5,0.6,0.8c0.5-0.7,1.1-1.101,1.9-1.101c0.6,0,1.1,0.2,1.399,0.5
		c0.3,0.301,0.5,0.9,0.5,1.601v4.3h-1.1v-3.9c0-0.399,0-0.699-0.101-0.899c-0.1-0.2-0.199-0.3-0.399-0.5C177,55.1,176.8,55,176.6,55
		c-0.399,0-0.8,0.2-1.1,0.4c-0.3,0.3-0.4,0.8-0.4,1.399V60.4H174v-4c0-0.5-0.1-0.801-0.3-1.101c-0.2-0.2-0.5-0.3-0.8-0.3
		c-0.301,0-0.601,0.1-0.801,0.2c-0.199,0.1-0.399,0.399-0.5,0.7c-0.1,0.3-0.199,0.699-0.199,1.3v3.2H170.5L170.5,60.4z"/>
	<path fill="#363639" d="M180.3,53.1V51.9h1.101V53.1H180.3 M180.3,60.4v-6.2h1.101v6.2H180.3L180.3,60.4z"/>
	<polygon fill="#363639" points="182.8,57.9 182.8,56.8 186,56.8 186,57.9 	"/>
	<path fill="#363639" d="M191.1,58.2l1,0.1C192,59,191.7,59.6,191.2,60s-1,0.6-1.7,0.6c-0.9,0-1.5-0.3-2.1-0.8
		c-0.5-0.6-0.801-1.3-0.801-2.399c0-0.7,0.101-1.301,0.301-1.801c0.199-0.5,0.6-0.899,1-1.1c0.5-0.3,0.899-0.4,1.5-0.4
		c0.699,0,1.199,0.2,1.699,0.5c0.4,0.301,0.7,0.801,0.801,1.5l-1,0.2c-0.101-0.399-0.301-0.7-0.5-0.899
		c-0.301-0.2-0.601-0.301-0.9-0.301c-0.5,0-1,0.2-1.3,0.601c-0.3,0.399-0.5,1-0.5,1.8s0.2,1.5,0.5,1.8c0.3,0.4,0.7,0.601,1.3,0.601
		c0.4,0,0.8-0.101,1-0.4C190.8,59.1,191,58.7,191.1,58.2L191.1,58.2z"/>
	<path fill="#363639" d="M197.1,60.4v-0.9c-0.5,0.7-1.199,1-2,1c-0.399,0-0.699-0.1-1-0.2c-0.3-0.1-0.6-0.3-0.699-0.5
		c-0.101-0.2-0.301-0.5-0.301-0.8c0-0.2-0.1-0.5-0.1-1v-3.9h1.1v3.5c0,0.601,0,0.9,0.101,1.101c0.1,0.3,0.2,0.5,0.399,0.6
		c0.2,0.2,0.5,0.2,0.801,0.2c0.3,0,0.6-0.1,0.899-0.2c0.3-0.2,0.5-0.399,0.601-0.7C197,58.3,197.1,57.9,197.1,57.4V54.1h1.101v6.2
		L197.1,60.4L197.1,60.4z"/>
	<path fill="#363639" d="M200.7,60.4h-1V51.8h1.1V54.9c0.4-0.601,1-0.801,1.7-0.801c0.4,0,0.7,0.101,1.1,0.2
		c0.301,0.2,0.601,0.4,0.801,0.601c0.199,0.3,0.399,0.6,0.5,1c0.1,0.399,0.199,0.8,0.199,1.3c0,1.1-0.3,1.899-0.8,2.5
		c-0.5,0.6-1.2,0.899-1.899,0.899c-0.7,0-1.301-0.3-1.7-0.899V60.4 M200.7,57.3c0,0.7,0.1,1.3,0.3,1.601c0.3,0.5,0.8,0.8,1.4,0.8
		c0.5,0,0.899-0.2,1.199-0.601c0.301-0.399,0.5-1,0.5-1.8s-0.199-1.399-0.5-1.8c-0.3-0.4-0.699-0.6-1.199-0.6s-0.9,0.199-1.2,0.6
		C200.9,56,200.7,56.5,200.7,57.3L200.7,57.3z"/>
	<path fill="#363639" d="M210.7,58.4l1.1,0.1c-0.2,0.6-0.5,1.1-1,1.5c-0.5,0.3-1.1,0.5-1.8,0.5c-0.9,0-1.6-0.3-2.2-0.8
		c-0.5-0.601-0.8-1.3-0.8-2.4c0-1,0.3-1.899,0.8-2.399C207.3,54.3,208,54,208.9,54c0.8,0,1.5,0.3,2,0.9c0.5,0.6,0.8,1.399,0.8,2.399
		c0,0.101,0,0.2,0,0.3H207.1c0,0.7,0.2,1.2,0.601,1.601c0.3,0.399,0.8,0.5,1.3,0.5c0.4,0,0.7-0.101,1-0.3
		C210.3,59.2,210.6,58.9,210.7,58.4 M207.3,56.7h3.5c0-0.5-0.2-0.9-0.399-1.2c-0.301-0.4-0.801-0.6-1.301-0.6S208.2,55.1,207.9,55.4
		C207.5,55.8,207.3,56.2,207.3,56.7L207.3,56.7z"/>
	<path fill="#363639" d="M216.6,62.8v-8.6h1V55c0.2-0.3,0.5-0.6,0.801-0.7c0.3-0.2,0.6-0.2,1-0.2c0.5,0,1,0.101,1.399,0.4
		c0.4,0.3,0.7,0.7,0.9,1.2s0.3,1,0.3,1.6c0,0.601-0.1,1.2-0.3,1.7s-0.601,0.9-1,1.2c-0.4,0.3-0.9,0.399-1.4,0.399
		c-0.399,0-0.7-0.1-0.899-0.199c-0.301-0.101-0.5-0.301-0.7-0.601v3H216.6 M217.5,57.4c0,0.8,0.2,1.399,0.5,1.8
		c0.3,0.399,0.7,0.6,1.2,0.6s0.899-0.2,1.2-0.6c0.3-0.4,0.5-1,0.5-1.8c0-0.801-0.2-1.4-0.5-1.801c-0.301-0.399-0.7-0.6-1.2-0.6
		s-0.9,0.2-1.2,0.6C217.7,56,217.5,56.6,217.5,57.4L217.5,57.4z"/>
	<path fill="#363639" d="M223,53.1V51.9h1.1V53.1H223 M223,60.4v-6.2h1.1v6.2H223L223,60.4z"/>
	<path fill="#363639" d="M225,60.4l2.3-3.2l-2.1-3h1.3l1,1.5c0.2,0.3,0.3,0.5,0.4,0.7c0.199-0.301,0.3-0.5,0.5-0.7l1-1.5h1.3
		L228.6,57.1L230.9,60.4H229.6l-1.3-1.9L228,58l-1.6,2.5L225,60.4L225,60.4z"/>
	<path fill="#363639" d="M235.9,58.4l1.1,0.1c-0.2,0.6-0.5,1.1-1,1.5c-0.5,0.3-1.1,0.5-1.8,0.5c-0.9,0-1.601-0.3-2.2-0.8
		c-0.5-0.601-0.8-1.3-0.8-2.4c0-1,0.3-1.899,0.8-2.399c0.5-0.601,1.2-0.9,2.1-0.9c0.801,0,1.5,0.3,2,0.9
		c0.5,0.6,0.801,1.399,0.801,2.399c0,0.101,0,0.2,0,0.3H232.3c0,0.7,0.2,1.2,0.601,1.601c0.3,0.399,0.8,0.5,1.3,0.5
		c0.399,0,0.7-0.101,1-0.3C235.5,59.2,235.8,58.9,235.9,58.4 M232.5,56.7h3.5c0-0.5-0.2-0.9-0.4-1.2c-0.3-0.4-0.8-0.6-1.3-0.6
		s-0.899,0.199-1.2,0.5C232.7,55.8,232.5,56.2,232.5,56.7L232.5,56.7z"/>
	<polygon fill="#363639" points="238.4,60.4 238.4,51.8 239.4,51.8 239.4,60.4 	"/>
	<path fill="#363639" d="M253.7,60.4L257,51.8h1.2l3.5,8.601h-1.3l-1-2.601H255.8L254.9,60.4H253.7 M256.1,56.9h2.9l-0.9-2.4
		c-0.3-0.7-0.5-1.3-0.6-1.8c-0.1,0.6-0.3,1.1-0.5,1.6L256.1,56.9L256.1,56.9z"/>
	<path fill="#363639" d="M83,120.9h-1.1v-6.7c-0.301,0.2-0.601,0.5-1,0.7c-0.4,0.199-0.801,0.399-1.101,0.5v-1
		c0.601-0.301,1.101-0.601,1.5-1c0.4-0.4,0.7-0.801,0.9-1.2h0.7v8.7H83z"/>
	<path fill="#363639" d="M99.6,59l-0.1-1c0.2,0.1,0.4,0.1,0.6,0.1c0.2,0,0.4,0,0.601-0.1c0.1-0.1,0.3-0.2,0.3-0.3
		c0.1-0.101,0.2-0.4,0.3-0.8c0-0.101,0-0.101,0.101-0.301L99,50.4h1.1L101.4,54c0.199,0.5,0.3,0.9,0.399,1.4
		c0.101-0.5,0.3-1,0.4-1.4l1.3-3.6h1.1l-2.399,6.3c-0.3,0.7-0.5,1.1-0.601,1.399C101.4,58.4,101.2,58.7,101,58.9
		c-0.2,0.199-0.5,0.199-0.9,0.199C100.1,59.1,99.9,59.1,99.6,59L99.6,59z"/>
	<path fill="#363639" d="M112.2,72.7l2.3-3.2l-2.1-3h1.3l1,1.5c0.2,0.3,0.3,0.5,0.399,0.7c0.2-0.3,0.301-0.5,0.5-0.7l1-1.5h1.301
		l-2.101,2.9l2.3,3.3h-1.3l-1.3-1.9l-0.3-0.5l-1.601,2.5L112.2,72.7L112.2,72.7z"/>
	<path fill="none" stroke="#000000" stroke-miterlimit="10" d="M9.7,101.7L41.3,39.6 M150.9,202.5l31.6-61.2"/>
	<path fill="#363639" d="M252.3,59.7h-7L249,51.6L252.3,59.7 M250.9,59.2l-2.301-5.7l-2.6,5.7H250.9L250.9,59.2z"/>
	<path fill="#363639" d="M112.7,78.4c0.8,0.1,1.399,0.399,1.8,0.899s0.6,1.2,0.6,1.9c0,0.3-0.1,0.7-0.199,1
		c-0.101,0.3-0.2,0.6-0.4,0.8s-0.3,0.4-0.5,0.6c-0.2,0.2-0.4,0.301-0.6,0.301c-0.2,0-0.4,0.1-0.7,0.1v2.4H112.1V84
		c-0.6-0.1-1.1-0.2-1.399-0.6c-0.601-0.5-1-1.301-1-2.301c0-0.399,0-0.699,0.1-1c0.101-0.3,0.2-0.6,0.4-0.8s0.3-0.399,0.5-0.6
		c0.2-0.101,0.399-0.3,0.6-0.3s0.4-0.101,0.7-0.101v-2.8h0.6v2.9 M112.1,78.8c-0.3,0.101-0.5,0.2-0.6,0.3
		c-0.2,0.2-0.4,0.4-0.5,0.801c-0.1,0.3-0.2,0.8-0.2,1.3c0,0.6,0.101,1.1,0.2,1.5c0.2,0.399,0.4,0.7,0.6,0.899
		c0.101,0.101,0.301,0.2,0.5,0.301V78.8 M112.7,83.8c0.2,0,0.399-0.1,0.6-0.2c0.2-0.199,0.4-0.399,0.601-0.8
		C114,82.5,114.1,82,114.1,81.4c0-0.5-0.1-1-0.199-1.4c-0.101-0.4-0.301-0.7-0.5-0.9C113.3,79,113.1,78.9,112.8,78.8v5H112.7
		L112.7,83.8z"/>
</g>
</svg>
