<?xml version="1.0" encoding="utf-8"?>
<!-- Generator: Adobe Illustrator 17.1.0, SVG Export Plug-In . SVG Version: 6.00 Build 0)  -->

<svg version="1.1" id="Layer_1" xmlns="http://www.w3.org/2000/svg" xmlns:xlink="http://www.w3.org/1999/xlink" x="0px" y="0px"
	 width="409px" height="125px" viewBox="101 334 409 125" enable-background="new 101 334 409 125" xml:space="preserve">
<g>
	<rect x="101" y="334" fill="#FFFFFF" width="409" height="125"/>
	<polygon fill="none" stroke="#000000" stroke-miterlimit="10" points="110.8,430.8 223.2,430.8 167,343 	"/>
	<path fill="#363639" d="M167.6,446.4h-1.1v-6.7c-0.3,0.2-0.6,0.5-1,0.7s-0.8,0.4-1.1,0.5v-1c0.6-0.3,1.1-0.6,1.5-1s0.7-0.8,0.9-1.2
		h0.7v8.7H167.6z"/>
	<path fill="#363639" d="M298.5,444.1l1.1-0.1c0.1,0.6,0.3,1,0.6,1.3c0.3,0.3,0.6,0.4,1.1,0.4s0.9-0.2,1.2-0.5
		c0.3-0.3,0.5-0.8,0.5-1.3s-0.2-0.9-0.5-1.2c-0.3-0.3-0.7-0.5-1.2-0.5c-0.2,0-0.5,0-0.7,0.1l0.1-0.9c0.1,0,0.1,0,0.2,0
		c0.4,0,0.9-0.1,1.2-0.3c0.4-0.2,0.5-0.6,0.5-1.1c0-0.4-0.1-0.7-0.4-0.9s-0.6-0.4-1-0.4s-0.8,0.1-1,0.4c-0.3,0.3-0.4,0.6-0.5,1.2
		l-1.1-0.2c0.1-0.7,0.4-1.3,0.9-1.6c0.5-0.4,1-0.6,1.7-0.6c0.5,0,0.9,0.1,1.3,0.3c0.4,0.2,0.7,0.5,0.9,0.8c0.2,0.3,0.3,0.7,0.3,1.1
		s-0.1,0.7-0.3,1c-0.2,0.3-0.5,0.6-0.9,0.7c0.5,0.1,0.9,0.4,1.2,0.7c0.3,0.4,0.4,0.8,0.4,1.4c0,0.7-0.3,1.4-0.8,1.9
		c-0.6,0.5-1.2,0.8-2.1,0.8c-0.8,0-1.4-0.2-1.9-0.7C298.8,445.4,298.5,444.8,298.5,444.1L298.5,444.1z"/>
	<path fill="#363639" d="M305.2,442.1c0-1,0.1-1.8,0.3-2.4c0.2-0.6,0.5-1.1,0.9-1.4s0.9-0.5,1.6-0.5c0.5,0,0.9,0.1,1.2,0.3
		c0.3,0.2,0.6,0.5,0.9,0.8c0.2,0.3,0.4,0.8,0.5,1.3s0.2,1.2,0.2,2c0,1-0.1,1.8-0.3,2.4c-0.2,0.6-0.5,1.1-0.9,1.4s-0.9,0.5-1.6,0.5
		c-0.8,0-1.5-0.3-2-0.9C305.5,444.9,305.2,443.7,305.2,442.1 M306.3,442.1c0,1.4,0.2,2.4,0.5,2.8c0.3,0.5,0.7,0.7,1.2,0.7
		s0.9-0.2,1.2-0.7c0.3-0.5,0.5-1.4,0.5-2.8s-0.2-2.4-0.5-2.8c-0.3-0.5-0.7-0.7-1.2-0.7s-0.9,0.2-1.2,0.6
		C306.4,439.7,306.3,440.7,306.3,442.1L306.3,442.1z"/>
	<path fill="#363639" d="M430.8,446.4h-1.1v-6.7c-0.3,0.2-0.6,0.5-1,0.7s-0.8,0.4-1.1,0.5v-1c0.6-0.3,1.1-0.6,1.5-1s0.7-0.8,0.9-1.2
		h0.7v8.7H430.8z"/>
	<path fill="#363639" d="M433.6,442.1c0-1,0.1-1.8,0.3-2.4c0.2-0.6,0.5-1.1,0.9-1.4s0.9-0.5,1.6-0.5c0.5,0,0.9,0.1,1.2,0.3
		c0.3,0.2,0.6,0.5,0.9,0.8s0.4,0.8,0.5,1.3s0.2,1.2,0.2,2c0,1-0.1,1.8-0.3,2.4c-0.2,0.6-0.5,1.1-0.9,1.4s-0.9,0.5-1.6,0.5
		c-0.8,0-1.5-0.3-2-0.9C433.9,444.9,433.6,443.7,433.6,442.1 M434.7,442.1c0,1.4,0.2,2.4,0.5,2.8c0.3,0.5,0.7,0.7,1.2,0.7
		s0.9-0.2,1.2-0.7s0.5-1.4,0.5-2.8s-0.2-2.4-0.5-2.8c-0.3-0.5-0.7-0.7-1.2-0.7s-0.9,0.2-1.2,0.6
		C434.8,439.7,434.7,440.7,434.7,442.1L434.7,442.1z"/>
	<path fill="#363639" d="M440.1,442.1c0-1,0.1-1.8,0.3-2.4c0.2-0.6,0.5-1.1,0.9-1.4s0.9-0.5,1.6-0.5c0.5,0,0.9,0.1,1.2,0.3
		c0.3,0.2,0.6,0.5,0.9,0.8s0.4,0.8,0.5,1.3s0.2,1.2,0.2,2c0,1-0.1,1.8-0.3,2.4c-0.2,0.6-0.5,1.1-0.9,1.4s-0.9,0.5-1.6,0.5
		c-0.8,0-1.5-0.3-2-0.9C440.3,444.9,440.1,443.7,440.1,442.1 M441.1,442.1c0,1.4,0.2,2.4,0.5,2.8c0.3,0.5,0.7,0.7,1.2,0.7
		s0.9-0.2,1.2-0.7c0.3-0.5,0.5-1.4,0.5-2.8s-0.2-2.4-0.5-2.8c-0.3-0.5-0.7-0.7-1.2-0.7s-0.9,0.2-1.2,0.6
		C441.3,439.7,441.1,440.7,441.1,442.1L441.1,442.1z"/>
	<path fill="#363639" d="M446.8,442.1c0-1,0.1-1.8,0.3-2.4c0.2-0.6,0.5-1.1,0.9-1.4s0.9-0.5,1.6-0.5c0.5,0,0.9,0.1,1.2,0.3
		c0.3,0.2,0.6,0.5,0.9,0.8s0.4,0.8,0.5,1.3s0.2,1.2,0.2,2c0,1-0.1,1.8-0.3,2.4c-0.2,0.6-0.5,1.1-0.9,1.4s-0.9,0.5-1.6,0.5
		c-0.8,0-1.5-0.3-2-0.9C447.1,444.9,446.8,443.7,446.8,442.1 M447.9,442.1c0,1.4,0.2,2.4,0.5,2.8c0.3,0.5,0.7,0.7,1.2,0.7
		s0.9-0.2,1.2-0.7s0.5-1.4,0.5-2.8s-0.2-2.4-0.5-2.8c-0.3-0.5-0.7-0.7-1.2-0.7s-0.9,0.2-1.2,0.6C448,439.7,447.9,440.7,447.9,442.1
		L447.9,442.1z"/>
	<path fill="none" stroke="#000000" stroke-miterlimit="10" d="M249.9,430.8c8-11.6,17.2-21.5,21.3-24.4c9.3-6.5,20.8-18,34.4-18.5
		c11.5-0.4,25.2,9.3,32,14.4c5.5,4.1,11.6,11.3,24.6,28.5 M249.9,430.8l56.2-87.8l55.6,86.9 M389.3,430.3
		c6.8-9.5,9.8-13.5,12.1-16.2c3.4-3.9,11.9-12.7,16.1-15.9c3.6-2.7,12.5-8,16.8-9.6c2.5-0.9,8.3-2.2,11-2.1
		c3.7,0.1,11.6,2.4,14.9,3.8c3.7,1.6,11.4,6.7,14.4,9.1c3.5,2.8,10.9,10.4,13.8,13.8c2.4,2.8,5.6,7.1,12.9,17.5 M389,430.8
		l56.2-87.8l55.8,87.2"/>
</g>
</svg>
