<?xml version="1.0" encoding="utf-8"?>
<!-- Generator: Adobe Illustrator 17.1.0, SVG Export Plug-In . SVG Version: 6.00 Build 0)  -->

<svg version="1.1" id="Layer_1" xmlns="http://www.w3.org/2000/svg" xmlns:xlink="http://www.w3.org/1999/xlink" x="0px" y="0px"
	 width="238px" height="112px" viewBox="186 340 238 112" enable-background="new 186 340 238 112" xml:space="preserve">
<g>
	<rect x="186" y="340" fill="#FFFFFF" width="238" height="112"/>
	<path fill="#363639" stroke="#000000" stroke-miterlimit="10" d="M402.2,360.5c0-1.3-1.4-2.2-2.6-1.5c-1.1,0.7-1.1,2.4,0,3
		C400.7,362.7,402.2,361.9,402.2,360.5"/>
	<line fill="none" stroke="#000000" stroke-miterlimit="10" x1="325.3" y1="414" x2="400.3" y2="360.4"/>
	<polygon fill="#363639" points="319.9,420.8 319.9,412.2 321.1,412.2 321.1,420.8 	"/>
	<path fill="#363639" d="M409.1,357.9l1-0.1c0,0.7,0.2,1.1,0.4,1.4c0.2,0.2,0.5,0.4,0.9,0.4c0.3,0,0.5-0.1,0.7-0.2s0.3-0.3,0.4-0.5
		s0.1-0.6,0.1-1.1v-5.9h1.1v5.9c0,0.7-0.1,1.3-0.3,1.7c-0.2,0.4-0.4,0.7-0.8,0.9c-0.4,0.2-0.8,0.3-1.3,0.3c-0.8,0-1.3-0.2-1.7-0.6
		C409.3,359.4,409.1,358.7,409.1,357.9L409.1,357.9z"/>
	<path fill="#363639" stroke="#000000" stroke-miterlimit="10" d="M328.7,412c0-1.3-1.5-2.2-2.6-1.5c-1.2,0.7-1.2,2.4,0,3
		C327.2,414.2,328.7,413.3,328.7,412"/>
	<line fill="none" stroke="#000000" stroke-miterlimit="10" x1="225.1" y1="366.2" x2="225.1" y2="404.3"/>
	<polyline fill="#363639" stroke="#000000" stroke-miterlimit="10" points="225.1,370.9 225.1,370.9 223.6,371.8 225.1,366.2 
		226.6,371.8 225.1,370.9 	"/>
	<line fill="none" stroke="#000000" stroke-miterlimit="10" x1="253.9" y1="404.3" x2="225.1" y2="404.3"/>
	<polyline fill="#363639" stroke="#000000" stroke-miterlimit="10" points="249.2,404.3 249.2,404.3 248.3,402.8 253.9,404.3 
		248.3,405.8 249.2,404.3 	"/>
	<line fill="none" stroke="#000000" stroke-miterlimit="10" x1="205.7" y1="416.1" x2="225.1" y2="404.3"/>
	<polyline fill="#363639" stroke="#000000" stroke-miterlimit="10" points="209.8,413.8 209.8,413.8 211.3,414.6 205.7,416.1 
		209.7,412 209.8,413.8 	"/>
	<path fill="#363639" d="M226.4,361.3v-3.6l-3.3-5h1.4l1.7,2.6c0.3,0.5,0.6,1,0.9,1.5c0.3-0.4,0.6-0.9,0.9-1.5l1.7-2.5h1.3l-3.4,5
		v3.6h-1.2V361.3z"/>
	<path fill="#363639" d="M258.6,411.2l3.3-4.5l-2.9-4.1h1.4l1.6,2.2c0.3,0.5,0.5,0.8,0.7,1.1c0.2-0.3,0.4-0.6,0.7-1l1.7-2.3h1.2
		l-3,4.1l3.3,4.5h-1.4l-2.2-3.1c-0.1-0.2-0.3-0.4-0.4-0.6c-0.2,0.3-0.3,0.5-0.4,0.6l-2.2,3L258.6,411.2L258.6,411.2z"/>
	<path fill="#363639" d="M196.4,426.6v-1.1l4.4-5.5c0.3-0.4,0.6-0.7,0.9-1h-4.8v-1h6.1v1l-4.8,6l-0.5,0.6h5.5v1H196.4L196.4,426.6z"
		/>
</g>
</svg>
