<?xml version="1.0" encoding="UTF-8" standalone="no"?><svg xmlns="http://www.w3.org/2000/svg" xmlns:xlink="http://www.w3.org/1999/xlink" stroke-dasharray="none" shape-rendering="auto" font-family="'Dialog'" width="153.812600" text-rendering="auto" fill-opacity="1" contentScriptType="text/ecmascript" color-interpolation="auto" color-rendering="auto" preserveAspectRatio="xMidYMid meet" font-size="12" fill="black" stroke="black" image-rendering="auto" stroke-miterlimit="10" zoomAndPan="magnify" version="1.0" stroke-linecap="square" stroke-linejoin="miter" contentStyleType="text/css" font-style="normal" height="21" stroke-width="1" stroke-dashoffset="0" font-weight="normal" stroke-opacity="1" y="-5.000000"><!--Converted from MathML using JEuclid--><defs id="genericDefs"/><g><g text-rendering="optimizeLegibility" transform="translate(0,16)" color-rendering="optimizeQuality" color-interpolation="linearRGB" image-rendering="optimizeQuality"><path d="M7.5781 -2.3438 Q7.5 -1.9062 7.5 -1.3125 Q7.5 -0.5312 8.4375 -0.4844 L8.3438 0 L4.4688 0 L4.5781 -0.4844 Q5.125 -0.5625 5.3594 -0.8984 Q5.5938 -1.2344 5.8594 -2.3281 Q3.6406 -2.4062 2.4531 -3.3281 Q1.2656 -4.25 1.2656 -5.7812 Q1.2656 -8.2812 3.0469 -9.7109 Q4.8281 -11.1406 7.7969 -11.1406 Q7.875 -11.7812 7.875 -12 Q7.875 -12.8438 6.9219 -12.8594 L7.0156 -13.3438 L10.9062 -13.3438 L10.7969 -12.8594 Q10.2031 -12.7656 9.9766 -12.4141 Q9.75 -12.0625 9.5469 -11.1562 Q11.7656 -11.0625 12.9453 -10.1484 Q14.125 -9.2344 14.125 -7.7656 Q14.125 -5.2188 12.4219 -3.8125 Q10.7188 -2.4062 7.5781 -2.3438 ZM9.3438 -10.2969 L7.7812 -3.2188 Q9.9062 -3.2656 11.1484 -4.5391 Q12.3906 -5.8125 12.3906 -7.7031 Q12.3906 -10.1719 9.3438 -10.2969 ZM7.625 -10.25 Q5.5312 -10.25 4.2656 -8.9844 Q3 -7.7188 3 -5.7031 Q3 -4.5781 3.7734 -3.9062 Q4.5469 -3.2344 6.0625 -3.1875 L7.625 -10.25 Z" stroke="none"/></g><g text-rendering="optimizeLegibility" transform="translate(14.3594,16)" color-rendering="optimizeQuality" color-interpolation="linearRGB" image-rendering="optimizeQuality"><path d="M7.2188 4.25 Q5.5625 4.25 4.5078 3.75 Q3.4531 3.25 2.8672 2.2344 Q2.2812 1.2188 2.0234 -0.4141 Q1.7656 -2.0469 1.7656 -4.8438 Q1.7656 -7.625 2.0234 -9.2656 Q2.2812 -10.9062 2.8672 -11.9453 Q3.4531 -12.9844 4.5078 -13.5 Q5.5625 -14.0156 7.2188 -14.0156 L7.2188 -13.2188 Q6.5312 -13.2188 6 -13.0938 Q5.4062 -12.9531 4.9844 -12.5625 Q4.5156 -12.1406 4.2344 -11.375 Q3.8906 -10.4688 3.7188 -8.9844 Q3.5469 -7.4062 3.5469 -4.9219 Q3.5469 -2.7188 3.6953 -1.1797 Q3.8438 0.3594 4.1875 1.3281 Q4.4531 2.1562 4.8594 2.6094 Q5.2188 3.0156 5.7188 3.2188 Q6.2969 3.4531 7.2188 3.4531 L7.2188 4.25 Z" stroke="none"/></g><g text-rendering="optimizeLegibility" transform="translate(23.5781,16)" color-rendering="optimizeQuality" color-interpolation="linearRGB" image-rendering="optimizeQuality"><path d="M10.6406 -13.0312 L10.6406 -10.2031 L9.3125 -10.2031 Q9.0781 -11.2969 8.5703 -11.8203 Q8.0625 -12.3438 7.2344 -12.3438 Q5.6875 -12.3438 4.8984 -10.8672 Q4.1094 -9.3906 4.1094 -6.4688 Q4.1094 -3.7656 4.8359 -2.375 Q5.5625 -0.9844 6.9531 -0.9844 Q7.6719 -0.9844 8.1172 -1.2266 Q8.5625 -1.4688 8.8359 -1.9453 Q9.1094 -2.4219 9.2969 -3.2969 L10.6406 -3.2969 L10.6406 -0.3281 Q9.5625 -0.0781 8.6719 0.0391 Q7.7812 0.1562 6.8281 0.1562 Q4.7969 0.1562 3.5156 -0.5781 Q2.2344 -1.3125 1.6172 -2.7891 Q1 -4.2656 1 -6.5312 Q1 -8.6562 1.7188 -10.2188 Q2.4375 -11.7812 3.8359 -12.6328 Q5.2344 -13.4844 7.1719 -13.4844 Q8.1719 -13.4844 8.9688 -13.375 Q9.7656 -13.2656 10.6406 -13.0312 Z" stroke="none"/></g><g text-rendering="optimizeLegibility" transform="translate(35.7969,16)" color-rendering="optimizeQuality" color-interpolation="linearRGB" image-rendering="optimizeQuality"><path d="M0.4219 -14.0156 Q2.0781 -14.0156 3.1328 -13.5156 Q4.1875 -13.0156 4.7734 -12 Q5.3594 -10.9844 5.6172 -9.3516 Q5.875 -7.7188 5.875 -4.9219 Q5.875 -2.1562 5.6172 -0.5078 Q5.3594 1.1406 4.7734 2.1797 Q4.1875 3.2188 3.1328 3.7344 Q2.0781 4.25 0.4219 4.25 L0.4219 3.4531 Q1.1094 3.4531 1.625 3.3281 Q2.2344 3.1875 2.6406 2.7969 Q3.1094 2.375 3.4062 1.6094 Q3.75 0.7031 3.9219 -0.7812 Q4.0938 -2.3594 4.0938 -4.8438 Q4.0938 -7.0469 3.9453 -8.5859 Q3.7969 -10.125 3.4531 -11.0938 Q3.1875 -11.9219 2.7812 -12.375 Q2.4062 -12.7812 1.9219 -12.9844 Q1.3438 -13.2188 0.4219 -13.2188 L0.4219 -14.0156 Z" stroke="none"/></g><g text-rendering="optimizeLegibility" transform="translate(44.4531,16)" color-rendering="optimizeQuality" color-interpolation="linearRGB" image-rendering="optimizeQuality"><path d="M1.2188 -7.0625 L1.2188 -8.4219 L9.8594 -8.4219 L9.8594 -7.0625 L1.2188 -7.0625 ZM1.2188 -3.0156 L1.2188 -4.3594 L9.8594 -4.3594 L9.8594 -3.0156 L1.2188 -3.0156 Z" stroke="none"/></g><g text-rendering="optimizeLegibility" transform="translate(56.3125,16)" color-rendering="optimizeQuality" color-interpolation="linearRGB" image-rendering="optimizeQuality"><path d="M6.3125 0.125 L5.4219 4.2188 L3.875 4.2188 L4.7812 0.125 Q2.8594 -0.0156 1.8438 -1.0312 Q0.8281 -2.0469 0.8281 -3.7812 Q0.8281 -6.2344 2.5938 -7.875 Q4.3594 -9.5156 6.9219 -9.5156 L7.8281 -13.5312 L9.3438 -13.5312 L8.4531 -9.5156 Q10.2812 -9.4062 11.375 -8.2969 Q12.4688 -7.1875 12.4688 -5.5 Q12.4688 -3.1562 10.8828 -1.5156 Q9.2969 0.125 6.3125 0.125 ZM8.2812 -8.7188 L6.5 -0.6719 Q8.4531 -0.7344 9.6172 -2.125 Q10.7812 -3.5156 10.7812 -5.6875 Q10.7812 -6.9688 10.0781 -7.8125 Q9.375 -8.6562 8.2812 -8.7188 ZM6.7344 -8.7188 Q5 -8.6562 3.7422 -7.2266 Q2.4844 -5.7969 2.4844 -3.7656 Q2.4844 -2.5 3.1562 -1.6328 Q3.8281 -0.7656 4.9688 -0.6719 L6.7344 -8.7188 Z" stroke="none"/></g><g text-rendering="optimizeLegibility" transform="translate(69.0156,16)" color-rendering="optimizeQuality" color-interpolation="linearRGB" image-rendering="optimizeQuality"><path d="M7.2188 4.25 Q5.5625 4.25 4.5078 3.75 Q3.4531 3.25 2.8672 2.2344 Q2.2812 1.2188 2.0234 -0.4141 Q1.7656 -2.0469 1.7656 -4.8438 Q1.7656 -7.625 2.0234 -9.2656 Q2.2812 -10.9062 2.8672 -11.9453 Q3.4531 -12.9844 4.5078 -13.5 Q5.5625 -14.0156 7.2188 -14.0156 L7.2188 -13.2188 Q6.5312 -13.2188 6 -13.0938 Q5.4062 -12.9531 4.9844 -12.5625 Q4.5156 -12.1406 4.2344 -11.375 Q3.8906 -10.4688 3.7188 -8.9844 Q3.5469 -7.4062 3.5469 -4.9219 Q3.5469 -2.7188 3.6953 -1.1797 Q3.8438 0.3594 4.1875 1.3281 Q4.4531 2.1562 4.8594 2.6094 Q5.2188 3.0156 5.7188 3.2188 Q6.2969 3.4531 7.2188 3.4531 L7.2188 4.25 Z" stroke="none"/></g><g text-rendering="optimizeLegibility" transform="translate(78.3438,16)" color-rendering="optimizeQuality" color-interpolation="linearRGB" image-rendering="optimizeQuality"><path d="M10.6406 -13.0312 L10.6406 -10.2031 L9.3125 -10.2031 Q9.0781 -11.2969 8.5703 -11.8203 Q8.0625 -12.3438 7.2344 -12.3438 Q5.6875 -12.3438 4.8984 -10.8672 Q4.1094 -9.3906 4.1094 -6.4688 Q4.1094 -3.7656 4.8359 -2.375 Q5.5625 -0.9844 6.9531 -0.9844 Q7.6719 -0.9844 8.1172 -1.2266 Q8.5625 -1.4688 8.8359 -1.9453 Q9.1094 -2.4219 9.2969 -3.2969 L10.6406 -3.2969 L10.6406 -0.3281 Q9.5625 -0.0781 8.6719 0.0391 Q7.7812 0.1562 6.8281 0.1562 Q4.7969 0.1562 3.5156 -0.5781 Q2.2344 -1.3125 1.6172 -2.7891 Q1 -4.2656 1 -6.5312 Q1 -8.6562 1.7188 -10.2188 Q2.4375 -11.7812 3.8359 -12.6328 Q5.2344 -13.4844 7.1719 -13.4844 Q8.1719 -13.4844 8.9688 -13.375 Q9.7656 -13.2656 10.6406 -13.0312 Z" stroke="none"/></g><g text-rendering="optimizeLegibility" transform="translate(78.4576,12.6406) matrix(1.0206,0,0,1,0,0)" color-rendering="optimizeQuality" color-interpolation="linearRGB" image-rendering="optimizeQuality"><path d="M9.9688 -11.125 L0.2344 -11.125 Q-0.0156 -11.125 -0.1172 -11.2266 Q-0.2188 -11.3281 -0.2188 -11.4844 Q-0.2188 -11.625 -0.1172 -11.7266 Q-0.0156 -11.8281 0.2344 -11.8281 L9.9688 -11.8281 Q10.2188 -11.8281 10.3203 -11.7266 Q10.4219 -11.625 10.4219 -11.4688 Q10.4219 -11.3281 10.3203 -11.2266 Q10.2188 -11.125 9.9688 -11.125 Z" stroke="none"/></g><g text-rendering="optimizeLegibility" transform="translate(90.6719,16)" color-rendering="optimizeQuality" color-interpolation="linearRGB" image-rendering="optimizeQuality"><path d="M0.4219 -14.0156 Q2.0781 -14.0156 3.1328 -13.5156 Q4.1875 -13.0156 4.7734 -12 Q5.3594 -10.9844 5.6172 -9.3516 Q5.875 -7.7188 5.875 -4.9219 Q5.875 -2.1562 5.6172 -0.5078 Q5.3594 1.1406 4.7734 2.1797 Q4.1875 3.2188 3.1328 3.7344 Q2.0781 4.25 0.4219 4.25 L0.4219 3.4531 Q1.1094 3.4531 1.625 3.3281 Q2.2344 3.1875 2.6406 2.7969 Q3.1094 2.375 3.4062 1.6094 Q3.75 0.7031 3.9219 -0.7812 Q4.0938 -2.3594 4.0938 -4.8438 Q4.0938 -7.0469 3.9453 -8.5859 Q3.7969 -10.125 3.4531 -11.0938 Q3.1875 -11.9219 2.7812 -12.375 Q2.4062 -12.7812 1.9219 -12.9844 Q1.3438 -13.2188 0.4219 -13.2188 L0.4219 -14.0156 Z" stroke="none"/></g><g text-rendering="optimizeLegibility" transform="translate(99.3281,16)" color-rendering="optimizeQuality" color-interpolation="linearRGB" image-rendering="optimizeQuality"><path d="M6.25 -5.0469 L6.25 -1.3438 L4.8125 -1.3438 L4.8125 -5.0469 L1.2188 -5.0469 L1.2188 -6.3906 L4.8125 -6.3906 L4.8125 -10.0938 L6.25 -10.0938 L6.25 -6.3906 L9.8594 -6.3906 L9.8594 -5.0469 L6.25 -5.0469 Z" stroke="none"/></g><g text-rendering="optimizeLegibility" transform="translate(111.1875,16)" color-rendering="optimizeQuality" color-interpolation="linearRGB" image-rendering="optimizeQuality"><path d="M2.5469 -12.8594 L2.6406 -13.3281 L6.5781 -13.3281 L6.4688 -12.8594 Q6.0938 -12.7812 5.9297 -12.6797 Q5.7656 -12.5781 5.6406 -12.3828 Q5.5156 -12.1875 5.3828 -11.7734 Q5.25 -11.3594 5.0469 -10.4219 L3.8125 -4.9531 Q3.6875 -4.3906 3.6172 -3.8906 Q3.5469 -3.3906 3.5469 -2.8594 Q3.5469 -1.7812 4.0703 -1.2344 Q4.5938 -0.6875 5.6406 -0.6875 Q6.6406 -0.6875 7.3047 -1.1016 Q7.9688 -1.5156 8.3672 -2.2891 Q8.7656 -3.0625 9.0469 -4.2812 L10.4062 -10.4375 Q10.5 -10.875 10.5547 -11.2891 Q10.6094 -11.7031 10.6094 -12 Q10.6094 -12.4688 10.375 -12.6484 Q10.1406 -12.8281 9.6562 -12.8594 L9.7656 -13.3281 L13.4844 -13.3281 L13.375 -12.8594 Q13.0156 -12.7812 12.8438 -12.6719 Q12.6719 -12.5625 12.5391 -12.3672 Q12.4062 -12.1719 12.2812 -11.7578 Q12.1562 -11.3438 11.9375 -10.4219 L10.6719 -4.5781 Q10.2969 -2.8281 9.6016 -1.7891 Q8.9062 -0.75 7.8672 -0.2891 Q6.8281 0.1719 5.3281 0.1719 Q3.6406 0.1719 2.7422 -0.6484 Q1.8438 -1.4688 1.8438 -3.0312 Q1.8438 -3.5781 1.9531 -4.2812 Q2.0625 -4.9844 2.2656 -5.875 L3.2812 -10.4375 Q3.4062 -10.9531 3.4531 -11.3594 Q3.5 -11.7656 3.5 -12 Q3.5 -12.4375 3.2812 -12.6328 Q3.0625 -12.8281 2.5469 -12.8594 Z" stroke="none"/></g><g text-rendering="optimizeLegibility" transform="translate(124.9062,16)" color-rendering="optimizeQuality" color-interpolation="linearRGB" image-rendering="optimizeQuality"><path d="M7.2188 4.25 Q5.5625 4.25 4.5078 3.75 Q3.4531 3.25 2.8672 2.2344 Q2.2812 1.2188 2.0234 -0.4141 Q1.7656 -2.0469 1.7656 -4.8438 Q1.7656 -7.625 2.0234 -9.2656 Q2.2812 -10.9062 2.8672 -11.9453 Q3.4531 -12.9844 4.5078 -13.5 Q5.5625 -14.0156 7.2188 -14.0156 L7.2188 -13.2188 Q6.5312 -13.2188 6 -13.0938 Q5.4062 -12.9531 4.9844 -12.5625 Q4.5156 -12.1406 4.2344 -11.375 Q3.8906 -10.4688 3.7188 -8.9844 Q3.5469 -7.4062 3.5469 -4.9219 Q3.5469 -2.7188 3.6953 -1.1797 Q3.8438 0.3594 4.1875 1.3281 Q4.4531 2.1562 4.8594 2.6094 Q5.2188 3.0156 5.7188 3.2188 Q6.2969 3.4531 7.2188 3.4531 L7.2188 4.25 Z" stroke="none"/></g><g text-rendering="optimizeLegibility" transform="translate(136.3281,16)" color-rendering="optimizeQuality" color-interpolation="linearRGB" image-rendering="optimizeQuality"><path d="M2.9375 -0.4219 Q2.6094 1.1094 2.0938 2.0078 Q1.5781 2.9062 0.75 3.3438 Q-0.0781 3.7812 -1.2812 3.7812 Q-1.5469 3.7812 -1.7969 3.7578 Q-2.0469 3.7344 -2.2031 3.6875 L-1.9531 2.75 Q-1.7969 2.7969 -1.6094 2.8125 Q-1.4219 2.8281 -1.2188 2.8281 Q-0.6406 2.8281 -0.2266 2.5625 Q0.1875 2.2969 0.5234 1.6484 Q0.8594 1 1.1094 -0.1406 L3.4062 -10.4375 Q3.5 -10.8594 3.5547 -11.2812 Q3.6094 -11.7031 3.6094 -12 Q3.6094 -12.4688 3.375 -12.6484 Q3.1406 -12.8281 2.6562 -12.8594 L2.7656 -13.3281 L6.6719 -13.3281 L6.5625 -12.8594 Q6.1875 -12.7812 6.0312 -12.6797 Q5.875 -12.5781 5.7422 -12.3828 Q5.6094 -12.1875 5.4766 -11.7734 Q5.3438 -11.3594 5.1406 -10.4219 L2.9375 -0.4219 Z" stroke="none"/></g><g text-rendering="optimizeLegibility" transform="translate(144.5781,16)" color-rendering="optimizeQuality" color-interpolation="linearRGB" image-rendering="optimizeQuality"><path d="M0.4219 -14.0156 Q2.0781 -14.0156 3.1328 -13.5156 Q4.1875 -13.0156 4.7734 -12 Q5.3594 -10.9844 5.6172 -9.3516 Q5.875 -7.7188 5.875 -4.9219 Q5.875 -2.1562 5.6172 -0.5078 Q5.3594 1.1406 4.7734 2.1797 Q4.1875 3.2188 3.1328 3.7344 Q2.0781 4.25 0.4219 4.25 L0.4219 3.4531 Q1.1094 3.4531 1.625 3.3281 Q2.2344 3.1875 2.6406 2.7969 Q3.1094 2.375 3.4062 1.6094 Q3.75 0.7031 3.9219 -0.7812 Q4.0938 -2.3594 4.0938 -4.8438 Q4.0938 -7.0469 3.9453 -8.5859 Q3.7969 -10.125 3.4531 -11.0938 Q3.1875 -11.9219 2.7812 -12.375 Q2.4062 -12.7812 1.9219 -12.9844 Q1.3438 -13.2188 0.4219 -13.2188 L0.4219 -14.0156 Z" stroke="none"/></g></g></svg>