<?xml version="1.0" encoding="utf-8"?>
<!-- Generator: Adobe Illustrator 17.1.0, SVG Export Plug-In . SVG Version: 6.00 Build 0)  -->

<svg version="1.1" id="Layer_1" xmlns="http://www.w3.org/2000/svg" xmlns:xlink="http://www.w3.org/1999/xlink" x="0px" y="0px"
	 width="324px" height="131px" viewBox="143 331 324 131" enable-background="new 143 331 324 131" xml:space="preserve">
<g>
	<rect x="143" y="331" fill="#FFFFFF" width="324" height="131"/>
	<polyline fill="none" stroke="#000000" stroke-miterlimit="10" points="255.5,399.4 442.6,351.5 443.8,356 256.8,403.9 
		255.5,399.4 	"/>
	<path fill="#363639" stroke="#000000" stroke-miterlimit="10" d="M445.1,353.6L445.1,353.6c0,1.1-0.9,2-2.1,2c-1.1,0-2.1-0.9-2.1-2
		s0.9-2,2.1-2S445.1,352.5,445.1,353.6L445.1,353.6z"/>
	<line fill="none" stroke="#000000" stroke-miterlimit="10" x1="344.2" y1="355.3" x2="348.4" y2="370.5"/>
	<path fill="#363639" stroke="#000000" stroke-miterlimit="10" d="M257.9,401.7L257.9,401.7c0,1.1-0.9,2-2.1,2c-1.1,0-2.1-0.9-2.1-2
		s0.9-2,2.1-2C257,399.6,257.9,400.5,257.9,401.7L257.9,401.7z"/>
	<path fill="none" stroke="#000000" stroke-miterlimit="10" d="M258.1,407.7l4.3,15.1 M443,359.5l4.3,15.2 M158.7,354.4v90h90"/>
	<polygon points="158.7,354.4 159.2,354.4 161.7,363.4 155.7,363.4 158.2,354.4 	"/>
	<polygon points="248.7,444.4 248.7,444.9 239.7,447.4 239.7,441.4 248.7,443.9 	"/>
	<line fill="none" stroke="#000000" stroke-miterlimit="10" x1="344.7" y1="395.2" x2="261.4" y2="416.5"/>
	<polygon points="261.4,416.5 261.3,416 269.4,411.3 270.9,417.2 261.5,417 	"/>
	<line fill="none" stroke="#000000" stroke-miterlimit="10" x1="362" y1="390.5" x2="445.3" y2="369.1"/>
	<polygon points="445.3,369.1 445.5,369.6 437.4,374.3 435.9,368.5 445.2,368.7 	"/>
	<path fill="#363639" d="M155.9,350.6V347l-3.3-5h1.4l1.7,2.6c0.3,0.5,0.6,1,0.9,1.5c0.3-0.4,0.6-0.9,0.9-1.5l1.7-2.5h1.3l-3.4,5
		v3.6h-1.2V350.6z"/>
	<path fill="#363639" d="M251,449.2l3.3-4.5l-2.9-4.1h1.4l1.6,2.2c0.3,0.5,0.5,0.8,0.7,1.1c0.2-0.3,0.4-0.6,0.7-1l1.7-2.3h1.2
		l-3,4.1l3.3,4.5h-1.4l-2.2-3.1c-0.1-0.2-0.3-0.4-0.4-0.6c-0.2,0.3-0.3,0.5-0.4,0.6l-2.2,3L251,449.2L251,449.2z"/>
	<line fill="none" stroke="#000000" stroke-miterlimit="10" x1="347.4" y1="362.6" x2="370.4" y2="356.6"/>
	<polygon points="370.4,356.6 370.5,357.1 362.4,361.8 360.9,356 370.3,356.1 	"/>
	<path fill="#363639" d="M373.3,360l1-0.2c0,0.4,0.2,0.7,0.5,1c0.3,0.2,0.6,0.3,1.1,0.3s0.8-0.1,1.1-0.3c0.2-0.2,0.3-0.4,0.3-0.7
		c0-0.2-0.1-0.4-0.3-0.6c-0.1-0.1-0.5-0.2-1.1-0.4c-0.8-0.2-1.3-0.4-1.6-0.5c-0.3-0.1-0.5-0.3-0.7-0.6c-0.2-0.3-0.2-0.5-0.2-0.8
		s0.1-0.5,0.2-0.8c0.1-0.2,0.3-0.4,0.5-0.6c0.2-0.1,0.4-0.2,0.7-0.3c0.3-0.1,0.6-0.1,0.9-0.1c0.5,0,0.9,0.1,1.3,0.2s0.6,0.3,0.8,0.6
		c0.2,0.2,0.3,0.6,0.4,1l-1,0.1c0-0.3-0.2-0.6-0.4-0.7c-0.2-0.2-0.5-0.3-0.9-0.3c-0.5,0-0.8,0.1-1,0.2c-0.2,0.2-0.3,0.3-0.3,0.6
		c0,0.1,0,0.3,0.1,0.4s0.2,0.2,0.4,0.3c0.1,0,0.4,0.1,0.9,0.3c0.7,0.2,1.3,0.4,1.6,0.5c0.3,0.1,0.5,0.3,0.7,0.6
		c0.2,0.2,0.3,0.5,0.3,0.9s-0.1,0.7-0.3,1c-0.2,0.3-0.5,0.5-0.9,0.7s-0.8,0.3-1.3,0.3c-0.8,0-1.4-0.2-1.8-0.5
		C373.6,361.2,373.4,360.7,373.3,360L373.3,360z"/>
	<polygon fill="#363639" points="248.7,405.3 248.7,396.7 249.9,396.7 249.9,405.3 	"/>
	<polygon fill="#363639" points="351.4,397.4 351.4,388.8 352.6,388.8 352.6,396.4 356.8,396.4 356.8,397.4 	"/>
	<path fill="#363639" d="M448.8,354.6l1-0.1c0,0.7,0.2,1.1,0.4,1.4c0.2,0.2,0.5,0.4,0.9,0.4c0.3,0,0.5-0.1,0.7-0.2s0.3-0.3,0.4-0.5
		s0.1-0.6,0.1-1.1v-5.9h1.1v5.9c0,0.7-0.1,1.3-0.3,1.7c-0.2,0.4-0.4,0.7-0.8,0.9c-0.4,0.2-0.8,0.3-1.3,0.3c-0.8,0-1.3-0.2-1.7-0.6
		C449,356.1,448.8,355.5,448.8,354.6L448.8,354.6z"/>
</g>
</svg>
