<?xml version="1.0" encoding="utf-8"?>
<!-- Generator: Adobe Illustrator 14.0.0, SVG Export Plug-In . SVG Version: 6.00 Build 43363)  -->

<svg version="1.1" id="Layer_1" xmlns="http://www.w3.org/2000/svg" xmlns:xlink="http://www.w3.org/1999/xlink" x="0px" y="0px"
	 width="267px" height="259px" viewBox="0 0 267 259" enable-background="new 0 0 267 259" xml:space="preserve">
<g>
	<rect fill="#FFFFFF" width="267" height="259"/>
	<path fill="none" stroke="#000000" stroke-miterlimit="10" d="M68.5,9v18.4 M68.5,38.5v27.7 M68.5,78.3v95.9 M68.5,188v15.6
		 M68.5,214v35 M9.9,231.3h146.5 M240.1,123.3l-4.699,7.4l-12.101,3.5l-3.6,3.1l-2.8,5 M22.8,221.8V243.4"/>
	<path fill="#363639" stroke="#000000" stroke-miterlimit="10" d="M70.8,39.3L70.8,39.3c0,0.9-0.7,1.601-1.6,1.601
		c-0.9,0-1.601-0.7-1.601-1.601c0-0.899,0.7-1.6,1.601-1.6C70.1,37.7,70.8,38.4,70.8,39.3L70.8,39.3z"/>
	<path fill="#363639" stroke="#000000" stroke-miterlimit="10" d="M70.8,67L70.8,67c0,0.9-0.7,1.6-1.6,1.6
		C68.3,68.6,67.6,67.9,67.6,67s0.7-1.6,1.601-1.6C70.1,65.4,70.8,66.1,70.8,67L70.8,67z"/>
	<path fill="none" stroke="#000000" stroke-miterlimit="10" d="M104.6,233.1c0-18.899-13.6-35-32.3-38.199"/>
	<polygon points="104.6,233.1 104.1,233.2 100.1,224.8 106,223.8 105.1,233.1 	"/>
	<polygon points="72.4,194.9 72.5,194.4 81.9,195.1 79.8,200.8 72.2,195.4 	"/>
	<path fill="#363639" d="M104.2,197.4c0.8,0.1,1.399,0.399,1.8,0.899s0.6,1.2,0.6,1.9c0,0.3-0.1,0.7-0.199,1
		c-0.101,0.3-0.2,0.6-0.4,0.8s-0.3,0.4-0.5,0.6c-0.2,0.2-0.4,0.301-0.6,0.301c-0.2,0-0.4,0.1-0.7,0.1v2.4H103.6V203
		c-0.6-0.1-1.1-0.2-1.399-0.6c-0.601-0.5-1-1.301-1-2.301c0-0.399,0-0.699,0.1-1c0.101-0.3,0.2-0.6,0.4-0.8s0.3-0.399,0.5-0.6
		c0.2-0.101,0.399-0.3,0.6-0.3s0.4-0.101,0.7-0.101v-2.8h0.6v2.9 M103.5,197.7c-0.3,0.1-0.5,0.2-0.6,0.3c-0.2,0.2-0.4,0.4-0.5,0.8
		c-0.101,0.3-0.2,0.8-0.2,1.3c0,0.601,0.1,1.101,0.2,1.5c0.199,0.4,0.399,0.7,0.6,0.9c0.1,0.1,0.3,0.2,0.5,0.3V197.7 M104.2,202.7
		c0.2,0,0.399-0.101,0.6-0.2c0.2-0.2,0.4-0.4,0.601-0.8c0.1-0.3,0.199-0.8,0.199-1.4c0-0.5-0.1-1-0.199-1.399
		c-0.101-0.4-0.301-0.7-0.5-0.9c-0.101-0.1-0.301-0.2-0.601-0.3v5H104.2L104.2,202.7z"/>
	<polygon fill="#363639" points="52.6,38 52.6,29.4 53.8,29.4 58.3,36.2 58.3,29.4 59.4,29.4 59.4,38 58.2,38 53.7,31.3 53.7,38 	
		"/>
	<path fill="#363639" d="M65.1,40.6V41.4H60.4c0-0.2,0-0.4,0.1-0.601c0.1-0.3,0.3-0.6,0.6-1c0.301-0.3,0.7-0.7,1.2-1.1
		c0.8-0.601,1.3-1.101,1.601-1.5c0.3-0.4,0.399-0.7,0.399-1.101c0-0.399-0.1-0.6-0.399-0.899c-0.301-0.2-0.601-0.4-1-0.4
		c-0.4,0-0.801,0.101-1,0.4c-0.301,0.3-0.4,0.6-0.4,1.1l-0.9-0.1c0.101-0.7,0.301-1.2,0.7-1.5c0.4-0.3,1-0.5,1.601-0.5
		c0.6,0,1.199,0.2,1.6,0.6c0.4,0.4,0.6,0.9,0.6,1.4c0,0.3-0.1,0.6-0.199,0.8C64.8,37.2,64.6,37.6,64.3,37.9
		C64,38.2,63.6,38.6,62.9,39.2c-0.5,0.399-0.9,0.7-1,0.899c-0.2,0.2-0.301,0.301-0.4,0.5H65.1L65.1,40.6z"/>
	<polygon fill="#363639" points="52.8,70 52.8,61.4 54,61.4 58.5,68.1 58.5,61.4 59.6,61.4 59.6,70 58.4,70 53.9,63.2 53.9,70 	"/>
	<path fill="#363639" d="M63.1,73.6H62.2V68c-0.2,0.2-0.5,0.4-0.8,0.6C61.1,68.8,60.8,69,60.5,69v-0.8c0.5-0.2,0.9-0.5,1.3-0.8
		c0.4-0.301,0.601-0.601,0.8-1H63.2V73.6H63.1L63.1,73.6z"/>
	<path fill="none" stroke="#000000" stroke-miterlimit="10" d="M258.2,163.8c-42.101-41.399-61.4-58.5-76.7-68.3
		c-13.8-8.9-49.1-22.9-64.1-28.5c-9.101-3.4-22.7-7.4-54.9-15.9 M22.8,231.1l80.4-168.6"/>
	<polygon points="103.2,62.5 103.7,62.7 102.1,71.9 96.6,69.3 102.8,62.3 	"/>
	<path fill="#363639" d="M51.7,149.3v0.7c0,1-0.101,1.7-0.2,2.2h-1c0.1-0.3,0.1-0.5,0.2-0.601c0-0.3,0.1-0.6,0.1-1V146.9
		c0-0.801,0.3-1.5,0.8-2s1.101-0.801,1.9-0.801c0.9,0,1.5,0.301,2,0.9c0.3,0.5,0.5,1.1,0.5,1.7c0,0.7-0.2,1.399-0.6,1.899
		c-0.601,0.801-1.301,1.2-2.2,1.2c-0.3,0-0.601,0-0.9-0.1C52.1,149.6,51.9,149.5,51.7,149.3 M51.7,147.6c0,0.5,0,0.9,0.1,1.101
		c0.101,0.2,0.3,0.399,0.5,0.5c0.3,0.1,0.5,0.2,0.9,0.2c0.5,0,0.899-0.2,1.2-0.601c0.3-0.399,0.5-0.899,0.5-1.6
		c0-0.5-0.101-0.9-0.301-1.4c-0.199-0.399-0.5-0.7-0.8-0.899c-0.3-0.2-0.7-0.301-1-0.301c-0.5,0-0.8,0.2-1,0.5
		c-0.1,0.2-0.2,0.7-0.2,1.4v1.1H51.7L51.7,147.6z"/>
	<path fill="none" stroke="#000000" stroke-miterlimit="10" d="M68.5,67.1C108.7,79,125.9,84.9,137.3,90.4
		c14.8,7.199,43.7,19,79.5,51.8 M69.4,37.7C119.1,51.7,140.3,58.6,154.3,65.5c16.3,8,45.4,23,85.8,58.4"/>
	
		<rect x="84.935" y="55.406" transform="matrix(0.3019 -0.9533 0.9533 0.3019 6.478 125.0597)" fill="#FFFFFF" width="7.4" height="5.401"/>
	
		<rect x="173.271" y="91.831" transform="matrix(0.5943 -0.8043 0.8043 0.5943 -3.315 181.4914)" fill="#FFFFFF" width="9.899" height="4.4"/>
	
		<rect x="186.81" y="99.185" transform="matrix(0.6347 -0.7727 0.7727 0.6347 -8.548 184.2863)" fill="#FFFFFF" width="7.7" height="4"/>
	
		<rect x="234.958" y="143.187" transform="matrix(0.7236 -0.6902 0.6902 0.7236 -34.9528 205.085)" fill="#FFFFFF" width="7.3" height="6"/>
</g>
</svg>
