<?xml version="1.0" encoding="UTF-8" standalone="no"?><svg xmlns="http://www.w3.org/2000/svg" xmlns:xlink="http://www.w3.org/1999/xlink" stroke-dasharray="none" shape-rendering="auto" font-family="'Dialog'" width="89.812600" text-rendering="auto" fill-opacity="1" contentScriptType="text/ecmascript" color-interpolation="auto" color-rendering="auto" preserveAspectRatio="xMidYMid meet" font-size="12" fill="black" stroke="black" image-rendering="auto" stroke-miterlimit="10" zoomAndPan="magnify" version="1.0" stroke-linecap="square" stroke-linejoin="miter" contentStyleType="text/css" font-style="normal" height="55" stroke-width="1" stroke-dashoffset="0" font-weight="normal" stroke-opacity="1" y="-19.000000"><!--Converted from MathML using JEuclid--><defs id="genericDefs"/><g><g text-rendering="optimizeLegibility" transform="translate(0.0156,36)" color-rendering="optimizeQuality" color-interpolation="linearRGB" image-rendering="optimizeQuality"><path d="M6.4531 -7.0625 Q6.3438 -7.9375 5.9453 -8.3359 Q5.5469 -8.7344 4.7188 -8.7344 Q4.2656 -8.7344 3.8906 -8.5625 Q3.5156 -8.3906 3.3047 -8.0625 Q3.0938 -7.7344 3.0938 -7.2969 Q3.0938 -6.9375 3.2344 -6.6406 Q3.375 -6.3438 3.7266 -6.0156 Q4.0781 -5.6875 4.7031 -5.2812 Q5.6406 -4.6406 6.0234 -4.0469 Q6.4062 -3.4531 6.4062 -2.6719 Q6.4062 -1.75 5.9688 -1.1094 Q5.5312 -0.4688 4.7656 -0.1562 Q4 0.1562 3.0469 0.1562 Q2.1875 0.1562 1.4375 0.0312 Q0.6875 -0.0938 -0.0156 -0.2969 L0.4531 -2.4062 L1.2188 -2.4062 Q1.2812 -1.5 1.7266 -1.0547 Q2.1719 -0.6094 3.0156 -0.6094 Q3.8906 -0.6094 4.375 -1.0469 Q4.8594 -1.4844 4.8594 -2.2031 Q4.8594 -2.625 4.7188 -2.9531 Q4.5781 -3.2812 4.2656 -3.5859 Q3.9531 -3.8906 3.375 -4.2812 Q2.75 -4.7031 2.375 -5.0703 Q2 -5.4375 1.7891 -5.8828 Q1.5781 -6.3281 1.5781 -6.8594 Q1.5781 -7.6719 1.9766 -8.2734 Q2.375 -8.875 3.1094 -9.1875 Q3.8438 -9.5 4.8281 -9.5 Q6.4531 -9.5 7.6719 -9.0781 L7.2344 -7.0625 L6.4531 -7.0625 Z" stroke="none"/></g><g text-rendering="optimizeLegibility" transform="translate(8.4688,36)" color-rendering="optimizeQuality" color-interpolation="linearRGB" image-rendering="optimizeQuality"><path d="M1.2188 -7.0625 L1.2188 -8.4219 L9.8594 -8.4219 L9.8594 -7.0625 L1.2188 -7.0625 ZM1.2188 -3.0156 L1.2188 -4.3594 L9.8594 -4.3594 L9.8594 -3.0156 L1.2188 -3.0156 Z" stroke="none"/></g><g text-rendering="optimizeLegibility" transform="translate(20.3438,36)" color-rendering="optimizeQuality" color-interpolation="linearRGB" image-rendering="optimizeQuality"><path d="M6.4531 -7.0625 Q6.3438 -7.9375 5.9453 -8.3359 Q5.5469 -8.7344 4.7188 -8.7344 Q4.2656 -8.7344 3.8906 -8.5625 Q3.5156 -8.3906 3.3047 -8.0625 Q3.0938 -7.7344 3.0938 -7.2969 Q3.0938 -6.9375 3.2344 -6.6406 Q3.375 -6.3438 3.7266 -6.0156 Q4.0781 -5.6875 4.7031 -5.2812 Q5.6406 -4.6406 6.0234 -4.0469 Q6.4062 -3.4531 6.4062 -2.6719 Q6.4062 -1.75 5.9688 -1.1094 Q5.5312 -0.4688 4.7656 -0.1562 Q4 0.1562 3.0469 0.1562 Q2.1875 0.1562 1.4375 0.0312 Q0.6875 -0.0938 -0.0156 -0.2969 L0.4531 -2.4062 L1.2188 -2.4062 Q1.2812 -1.5 1.7266 -1.0547 Q2.1719 -0.6094 3.0156 -0.6094 Q3.8906 -0.6094 4.375 -1.0469 Q4.8594 -1.4844 4.8594 -2.2031 Q4.8594 -2.625 4.7188 -2.9531 Q4.5781 -3.2812 4.2656 -3.5859 Q3.9531 -3.8906 3.375 -4.2812 Q2.75 -4.7031 2.375 -5.0703 Q2 -5.4375 1.7891 -5.8828 Q1.5781 -6.3281 1.5781 -6.8594 Q1.5781 -7.6719 1.9766 -8.2734 Q2.375 -8.875 3.1094 -9.1875 Q3.8438 -9.5 4.8281 -9.5 Q6.4531 -9.5 7.6719 -9.0781 L7.2344 -7.0625 L6.4531 -7.0625 Z" stroke="none"/></g><g text-rendering="optimizeLegibility" transform="translate(28.0156,40.1562)" color-rendering="optimizeQuality" color-interpolation="linearRGB" image-rendering="optimizeQuality"><path d="M5.7969 -3.125 Q5.3594 -2.3906 4.9453 -1.9375 Q4.5312 -1.4844 4.0703 -1.2422 Q3.6094 -1 3.0781 -1 Q2.4375 -1 1.9297 -1.3984 Q1.4219 -1.7969 1.1562 -2.4766 Q0.8906 -3.1562 0.8906 -3.9844 Q0.8906 -4.8125 1.1875 -5.5234 Q1.4844 -6.2344 2 -6.6172 Q2.5156 -7 3.1562 -7 Q3.6875 -7 4.1016 -6.7969 Q4.5156 -6.5938 4.9062 -6.1484 Q5.2969 -5.7031 5.7969 -4.8594 Q6.1719 -5.5625 6.5078 -6.0547 Q6.8438 -6.5469 7.1797 -6.8359 Q7.5156 -7.125 7.8906 -7.2656 Q8.2656 -7.4062 8.7656 -7.4062 Q9.5312 -7.4062 10.1094 -6.9844 Q10.6875 -6.5625 10.9922 -5.8203 Q11.2969 -5.0781 11.2969 -4.1562 Q11.2969 -3.1406 10.9531 -2.3125 Q10.6094 -1.4844 9.9922 -1.0391 Q9.375 -0.5938 8.5625 -0.5938 Q7.6875 -0.5938 7.0391 -1.2031 Q6.3906 -1.8125 5.7969 -3.125 ZM6.2656 -4 Q6.5938 -3.3438 6.9141 -2.8828 Q7.2344 -2.4219 7.5234 -2.1641 Q7.8125 -1.9062 8.1094 -1.7891 Q8.4062 -1.6719 8.75 -1.6719 Q9.2656 -1.6719 9.6406 -1.9531 Q10.0156 -2.2344 10.2266 -2.7734 Q10.4375 -3.3125 10.4375 -4.0469 Q10.4375 -4.7031 10.2266 -5.2266 Q10.0156 -5.75 9.6328 -6.0391 Q9.25 -6.3281 8.75 -6.3281 Q8.2812 -6.3281 7.9141 -6.1172 Q7.5469 -5.9062 7.1719 -5.4141 Q6.7969 -4.9219 6.2656 -4 ZM5.3125 -4 Q4.9375 -4.6562 4.6094 -5.0625 Q4.2812 -5.4688 3.9219 -5.6953 Q3.5625 -5.9219 3.1562 -5.9219 Q2.75 -5.9219 2.4219 -5.7188 Q2.0938 -5.5156 1.9062 -5.0859 Q1.7188 -4.6562 1.7188 -4.0312 Q1.7188 -3.5 1.8359 -3.1328 Q1.9531 -2.7656 2.1484 -2.5312 Q2.3438 -2.2969 2.6016 -2.1875 Q2.8594 -2.0781 3.1562 -2.0781 Q3.7344 -2.0781 4.2656 -2.5469 Q4.7969 -3.0156 5.3125 -4 Z" stroke="none"/></g><g text-rendering="optimizeLegibility" transform="translate(40.0938,36)" color-rendering="optimizeQuality" color-interpolation="linearRGB" image-rendering="optimizeQuality"><path d="M6.25 -5.0469 L6.25 -1.3438 L4.8125 -1.3438 L4.8125 -5.0469 L1.2188 -5.0469 L1.2188 -6.3906 L4.8125 -6.3906 L4.8125 -10.0938 L6.25 -10.0938 L6.25 -6.3906 L9.8594 -6.3906 L9.8594 -5.0469 L6.25 -5.0469 Z" stroke="none"/></g><g text-rendering="optimizeLegibility" transform="translate(53.5312,36)" color-rendering="optimizeQuality" color-interpolation="linearRGB" image-rendering="optimizeQuality"><path d="M5.6562 -21.375 L13.5 -9.4688 L13.5 -8.25 L4.7031 3.8281 L15.3125 3.8281 Q16.3125 3.8281 16.8203 3.7031 Q17.3281 3.5781 17.6875 3.3125 Q18.0469 3.0469 18.3438 2.5703 Q18.6406 2.0938 18.9141 1.2578 Q19.1875 0.4219 19.4375 -0.9375 L21.3125 -0.9375 L20.8438 6.9219 L0.4219 6.9219 L0.4219 6.0312 L10.375 -7.6562 L1.0312 -22.1406 L1.0312 -23.0625 L20.9375 -23.0625 L20.9375 -15.8906 L19.1875 -15.8906 Q18.7812 -17.4219 18.4219 -18.3906 Q18.0625 -19.3594 17.6875 -19.9219 Q17.3125 -20.4844 16.9141 -20.7812 Q16.5156 -21.0781 16 -21.2266 Q15.4844 -21.375 14.625 -21.375 L5.6562 -21.375 Z" stroke="none"/></g><g text-rendering="optimizeLegibility" transform="translate(62.4844,54.6406)" color-rendering="optimizeQuality" color-interpolation="linearRGB" image-rendering="optimizeQuality"><path d="M3.8281 -9.2188 L3.5156 -7.8906 L2.2969 -7.8906 L2.625 -9.2188 L3.8281 -9.2188 ZM2.1406 -1.7031 Q2.0625 -1.3594 2.0469 -1.2031 Q2.0312 -1.0469 2.0312 -0.9375 Q2.0312 -0.7188 2.0938 -0.6094 Q2.1562 -0.5 2.3047 -0.4375 Q2.4531 -0.375 2.7812 -0.3281 L2.7188 0 L0.5938 0 L1.625 -4.6094 Q1.7188 -5 1.75 -5.2344 Q1.7812 -5.4688 1.7812 -5.6406 Q1.7812 -5.8281 1.7266 -5.9375 Q1.6719 -6.0469 1.5312 -6.1016 Q1.3906 -6.1562 1.0625 -6.1719 L1.1406 -6.5312 L2.7969 -6.5938 L3.2031 -6.5938 L2.1406 -1.7031 Z" stroke="none"/></g><g text-rendering="optimizeLegibility" transform="translate(58.1875,7.0234)" color-rendering="optimizeQuality" color-interpolation="linearRGB" image-rendering="optimizeQuality"><path d="M6.4531 0 L4.2969 0 L5.1562 -3.4688 Q5.25 -3.8125 5.3281 -4.2109 Q5.4062 -4.6094 5.4062 -4.9375 Q5.4062 -5.4219 5.2344 -5.6328 Q5.0625 -5.8438 4.7031 -5.8438 Q4.4219 -5.8438 4.0938 -5.625 Q3.7656 -5.4062 3.3984 -4.9609 Q3.0312 -4.5156 2.7812 -4.0625 Q2.5312 -3.6094 2.4062 -2.9531 L1.7812 0 L0.5938 0 L1.6406 -4.6719 Q1.6719 -4.8281 1.7266 -5.1328 Q1.7812 -5.4375 1.7812 -5.6406 Q1.7812 -5.8438 1.7266 -5.9453 Q1.6719 -6.0469 1.5312 -6.1016 Q1.3906 -6.1562 1.0469 -6.1719 L1.1406 -6.5312 L2.6875 -6.5938 L3.0781 -6.5938 L2.625 -4.8125 L2.7031 -4.7969 Q3.375 -5.7344 3.9922 -6.1875 Q4.6094 -6.6406 5.2344 -6.6406 Q5.9062 -6.6406 6.2422 -6.2734 Q6.5781 -5.9062 6.5781 -5.2031 Q6.5781 -4.9531 6.5391 -4.6641 Q6.5 -4.375 6.4375 -4.1406 L5.8594 -1.7031 Q5.75 -1.2188 5.75 -0.9375 Q5.75 -0.7188 5.8203 -0.6094 Q5.8906 -0.5 6.0312 -0.4375 Q6.1719 -0.375 6.5 -0.3281 L6.4531 0 Z" stroke="none"/></g><g text-rendering="optimizeLegibility" transform="translate(64.7656,10.3594)" color-rendering="optimizeQuality" color-interpolation="linearRGB" image-rendering="optimizeQuality"><path d="M3.9844 -1.5625 Q4.0938 -2.0156 4.0938 -2.3438 Q4.0938 -2.5781 3.9766 -2.6719 Q3.8594 -2.7656 3.6094 -2.7812 L3.6719 -3.0156 L5.625 -3.0156 L5.5625 -2.7812 Q5.4062 -2.7344 5.3359 -2.7031 Q5.2656 -2.6719 5.2109 -2.6094 Q5.1562 -2.5469 5.1016 -2.4375 Q5.0469 -2.3281 4.9922 -2.125 Q4.9375 -1.9219 4.8594 -1.5625 L4.5156 -0.0312 L4.125 0.0781 L3.875 -0.2969 Q3.5312 -0.1406 3.3359 -0.0703 Q3.1406 0 2.9297 0.0391 Q2.7188 0.0781 2.4844 0.0781 Q1.875 0.0781 1.4531 -0.1797 Q1.0312 -0.4375 0.8203 -0.9062 Q0.6094 -1.375 0.6094 -2.0156 Q0.6094 -2.5469 0.7188 -3.0938 Q0.8438 -3.7031 1.0469 -4.25 Q1.2344 -4.7656 1.4922 -5.1719 Q1.75 -5.5781 2.0781 -5.8906 Q2.3438 -6.1719 2.6797 -6.3594 Q3.0156 -6.5469 3.3828 -6.6484 Q3.75 -6.75 4.1562 -6.75 Q4.6094 -6.75 5 -6.6875 Q5.3906 -6.625 5.8438 -6.4844 L5.5469 -5.1719 L5.0781 -5.1719 Q5.0469 -5.5938 4.9375 -5.8438 Q4.8281 -6.0938 4.6172 -6.2031 Q4.4062 -6.3125 4.0781 -6.3125 Q3.6719 -6.3125 3.3203 -6.0938 Q2.9688 -5.875 2.6484 -5.4609 Q2.3281 -5.0469 2.0703 -4.4062 Q1.8125 -3.7656 1.6719 -3.1016 Q1.5312 -2.4375 1.5312 -1.8906 Q1.5312 -1.1094 1.7969 -0.7266 Q2.0625 -0.3438 2.5938 -0.3438 Q2.7969 -0.3438 3.0078 -0.3906 Q3.2188 -0.4375 3.3984 -0.5547 Q3.5781 -0.6719 3.7266 -0.8594 Q3.875 -1.0469 3.9375 -1.3281 L3.9844 -1.5625 Z" stroke="none"/></g><g text-rendering="optimizeLegibility" transform="translate(76.8594,36)" color-rendering="optimizeQuality" color-interpolation="linearRGB" image-rendering="optimizeQuality"><path d="M6.4531 -7.0625 Q6.3438 -7.9375 5.9453 -8.3359 Q5.5469 -8.7344 4.7188 -8.7344 Q4.2656 -8.7344 3.8906 -8.5625 Q3.5156 -8.3906 3.3047 -8.0625 Q3.0938 -7.7344 3.0938 -7.2969 Q3.0938 -6.9375 3.2344 -6.6406 Q3.375 -6.3438 3.7266 -6.0156 Q4.0781 -5.6875 4.7031 -5.2812 Q5.6406 -4.6406 6.0234 -4.0469 Q6.4062 -3.4531 6.4062 -2.6719 Q6.4062 -1.75 5.9688 -1.1094 Q5.5312 -0.4688 4.7656 -0.1562 Q4 0.1562 3.0469 0.1562 Q2.1875 0.1562 1.4375 0.0312 Q0.6875 -0.0938 -0.0156 -0.2969 L0.4531 -2.4062 L1.2188 -2.4062 Q1.2812 -1.5 1.7266 -1.0547 Q2.1719 -0.6094 3.0156 -0.6094 Q3.8906 -0.6094 4.375 -1.0469 Q4.8594 -1.4844 4.8594 -2.2031 Q4.8594 -2.625 4.7188 -2.9531 Q4.5781 -3.2812 4.2656 -3.5859 Q3.9531 -3.8906 3.375 -4.2812 Q2.75 -4.7031 2.375 -5.0703 Q2 -5.4375 1.7891 -5.8828 Q1.5781 -6.3281 1.5781 -6.8594 Q1.5781 -7.6719 1.9766 -8.2734 Q2.375 -8.875 3.1094 -9.1875 Q3.8438 -9.5 4.8281 -9.5 Q6.4531 -9.5 7.6719 -9.0781 L7.2344 -7.0625 L6.4531 -7.0625 Z" stroke="none"/></g><g text-rendering="optimizeLegibility" transform="translate(84.5312,40.7656)" color-rendering="optimizeQuality" color-interpolation="linearRGB" image-rendering="optimizeQuality"><path d="M3.8281 -9.2188 L3.5156 -7.8906 L2.2969 -7.8906 L2.625 -9.2188 L3.8281 -9.2188 ZM2.1406 -1.7031 Q2.0625 -1.3594 2.0469 -1.2031 Q2.0312 -1.0469 2.0312 -0.9375 Q2.0312 -0.7188 2.0938 -0.6094 Q2.1562 -0.5 2.3047 -0.4375 Q2.4531 -0.375 2.7812 -0.3281 L2.7188 0 L0.5938 0 L1.625 -4.6094 Q1.7188 -5 1.75 -5.2344 Q1.7812 -5.4688 1.7812 -5.6406 Q1.7812 -5.8281 1.7266 -5.9375 Q1.6719 -6.0469 1.5312 -6.1016 Q1.3906 -6.1562 1.0625 -6.1719 L1.1406 -6.5312 L2.7969 -6.5938 L3.2031 -6.5938 L2.1406 -1.7031 Z" stroke="none"/></g></g></svg>