<?xml version="1.0" encoding="UTF-8" standalone="no"?><svg xmlns="http://www.w3.org/2000/svg" xmlns:xlink="http://www.w3.org/1999/xlink" stroke-dasharray="none" shape-rendering="auto" font-family="'Dialog'" width="223.812600" text-rendering="auto" fill-opacity="1" contentScriptType="text/ecmascript" color-interpolation="auto" color-rendering="auto" preserveAspectRatio="xMidYMid meet" font-size="12" fill="black" stroke="black" image-rendering="auto" stroke-miterlimit="10" zoomAndPan="magnify" version="1.0" stroke-linecap="square" stroke-linejoin="miter" contentStyleType="text/css" font-style="normal" height="38" stroke-width="1" stroke-dashoffset="0" font-weight="normal" stroke-opacity="1" y="-10.000000"><!--Converted from MathML using JEuclid--><defs id="genericDefs"/><g><g text-rendering="optimizeLegibility" transform="translate(1.0781,26.9121) matrix(1,0,0,1.2579,0,0)" color-rendering="optimizeQuality" color-interpolation="linearRGB" image-rendering="optimizeQuality"><path d="M7.0781 4.2188 Q5.5625 4.2188 4.6797 3.8281 Q3.7969 3.4375 3.4141 2.6641 Q3.0312 1.8906 3.0312 0.5781 L3.0312 -2.25 Q3.0312 -3.1094 2.8125 -3.5938 Q2.5938 -4.0781 2.1562 -4.2734 Q1.7188 -4.4688 0.9219 -4.4688 L0.9219 -5.2812 Q1.7031 -5.2812 2.1484 -5.4766 Q2.5938 -5.6719 2.8125 -6.1484 Q3.0312 -6.625 3.0312 -7.5 L3.0312 -10.3281 Q3.0312 -11.625 3.4141 -12.4062 Q3.7969 -13.1875 4.6797 -13.5781 Q5.5625 -13.9688 7.0781 -13.9688 L7.3281 -13.9688 L7.3281 -13.1719 Q6.5469 -13.1719 6.1641 -13.0938 Q5.7812 -13.0156 5.5391 -12.8438 Q5.2969 -12.6719 5.1406 -12.4141 Q4.9844 -12.1562 4.8984 -11.6875 Q4.8125 -11.2188 4.8125 -10.4375 L4.8125 -8.5469 Q4.8125 -7.5625 4.6406 -6.8984 Q4.4688 -6.2344 4.0312 -5.7578 Q3.5938 -5.2812 2.8281 -4.9688 L2.8281 -4.7812 Q3.5781 -4.4844 4.0312 -3.9844 Q4.4844 -3.4844 4.6484 -2.8203 Q4.8125 -2.1562 4.8125 -1.2031 L4.8125 0.6875 Q4.8125 1.4688 4.8984 1.9375 Q4.9844 2.4062 5.1406 2.6719 Q5.2969 2.9375 5.5391 3.1016 Q5.7812 3.2656 6.1641 3.3438 Q6.5469 3.4219 7.3281 3.4219 L7.3281 4.2188 L7.0781 4.2188 Z" stroke="none"/></g><g text-rendering="optimizeLegibility" transform="translate(12.6094,28)" color-rendering="optimizeQuality" color-interpolation="linearRGB" image-rendering="optimizeQuality"><path d="M2.9375 -0.4219 Q2.6094 1.1094 2.0938 2.0078 Q1.5781 2.9062 0.75 3.3438 Q-0.0781 3.7812 -1.2812 3.7812 Q-1.5469 3.7812 -1.7969 3.7578 Q-2.0469 3.7344 -2.2031 3.6875 L-1.9531 2.75 Q-1.7969 2.7969 -1.6094 2.8125 Q-1.4219 2.8281 -1.2188 2.8281 Q-0.6406 2.8281 -0.2266 2.5625 Q0.1875 2.2969 0.5234 1.6484 Q0.8594 1 1.1094 -0.1406 L3.4062 -10.4375 Q3.5 -10.8594 3.5547 -11.2812 Q3.6094 -11.7031 3.6094 -12 Q3.6094 -12.4688 3.375 -12.6484 Q3.1406 -12.8281 2.6562 -12.8594 L2.7656 -13.3281 L6.6719 -13.3281 L6.5625 -12.8594 Q6.1875 -12.7812 6.0312 -12.6797 Q5.875 -12.5781 5.7422 -12.3828 Q5.6094 -12.1875 5.4766 -11.7734 Q5.3438 -11.3594 5.1406 -10.4219 L2.9375 -0.4219 Z" stroke="none"/></g><g text-rendering="optimizeLegibility" transform="translate(20.8594,26.9121) matrix(1,0,0,1.2579,0,0)" color-rendering="optimizeQuality" color-interpolation="linearRGB" image-rendering="optimizeQuality"><path d="M0.6719 -13.9688 Q2.1875 -13.9688 3.0703 -13.5781 Q3.9531 -13.1875 4.3281 -12.4062 Q4.7031 -11.625 4.7031 -10.3281 L4.7031 -7.5 Q4.7031 -6.625 4.9297 -6.1484 Q5.1562 -5.6719 5.5938 -5.4766 Q6.0312 -5.2812 6.8125 -5.2812 L6.8125 -4.4688 Q6.0312 -4.4688 5.5859 -4.2734 Q5.1406 -4.0781 4.9219 -3.5938 Q4.7031 -3.1094 4.7031 -2.25 L4.7031 0.5781 Q4.7031 1.8906 4.3281 2.6641 Q3.9531 3.4375 3.0703 3.8281 Q2.1875 4.2188 0.6719 4.2188 L0.4219 4.2188 L0.4219 3.4219 Q1.1875 3.4219 1.5781 3.3438 Q1.9688 3.2656 2.2031 3.1016 Q2.4375 2.9375 2.5938 2.6719 Q2.75 2.4062 2.8438 1.9375 Q2.9375 1.4688 2.9375 0.6875 L2.9375 -1.2031 Q2.9375 -2.1875 3.1016 -2.8438 Q3.2656 -3.5 3.7109 -3.9844 Q4.1562 -4.4688 4.9062 -4.7812 L4.9062 -4.9688 Q4.1719 -5.2656 3.7188 -5.7656 Q3.2656 -6.2656 3.1016 -6.9297 Q2.9375 -7.5938 2.9375 -8.5469 L2.9375 -10.4375 Q2.9375 -11.2188 2.8438 -11.6875 Q2.75 -12.1562 2.5938 -12.4141 Q2.4375 -12.6719 2.2031 -12.8438 Q1.9688 -13.0156 1.5781 -13.0938 Q1.1875 -13.1719 0.4219 -13.1719 L0.4219 -13.9688 L0.6719 -13.9688 Z" stroke="none"/></g><g text-rendering="optimizeLegibility" transform="translate(30.4531,28)" color-rendering="optimizeQuality" color-interpolation="linearRGB" image-rendering="optimizeQuality"><path d="M1.2188 -7.0625 L1.2188 -8.4219 L9.8594 -8.4219 L9.8594 -7.0625 L1.2188 -7.0625 ZM1.2188 -3.0156 L1.2188 -4.3594 L9.8594 -4.3594 L9.8594 -3.0156 L1.2188 -3.0156 Z" stroke="none"/></g><g text-rendering="optimizeLegibility" transform="translate(43.0781,28)" color-rendering="optimizeQuality" color-interpolation="linearRGB" image-rendering="optimizeQuality"><path d="M1.2344 -5.0469 L1.2344 -6.3906 L9.8281 -6.3906 L9.8281 -5.0469 L1.2344 -5.0469 Z" stroke="none"/></g><g text-rendering="optimizeLegibility" transform="translate(54.6719,28)" color-rendering="optimizeQuality" color-interpolation="linearRGB" image-rendering="optimizeQuality"><path d="M6.5781 4.2031 L2.2344 4.2031 L2.2344 -13.9688 L6.5781 -13.9688 L6.5781 -13.1719 L3.9531 -13.1719 L3.9531 3.4062 L6.5781 3.4062 L6.5781 4.2031 Z" stroke="none"/></g><g text-rendering="optimizeLegibility" transform="translate(63.25,28)" color-rendering="optimizeQuality" color-interpolation="linearRGB" image-rendering="optimizeQuality"><path d="M6.6719 -13.3281 Q8.1406 -13.3281 9.0625 -13.1016 Q9.9844 -12.875 10.7812 -12.2891 Q11.5781 -11.7031 11.9766 -10.7344 Q12.375 -9.7656 12.375 -8.4375 Q12.375 -7.125 12.0703 -5.9219 Q11.7656 -4.7188 11.2031 -3.7109 Q10.6406 -2.7031 9.8438 -1.9531 Q9.0469 -1.2031 8.3047 -0.8047 Q7.5625 -0.4062 6.6484 -0.2031 Q5.7344 0 4.5156 0 L0.4062 0 L0.5156 -0.4844 Q0.8906 -0.5312 1.0781 -0.6641 Q1.2656 -0.7969 1.3906 -1.0312 Q1.5156 -1.2656 1.625 -1.6016 Q1.7344 -1.9375 1.9375 -2.9062 L3.6094 -10.4375 Q3.7031 -10.875 3.7578 -11.2891 Q3.8125 -11.7031 3.8125 -12 Q3.8125 -12.4688 3.5781 -12.6484 Q3.3438 -12.8281 2.8594 -12.8594 L2.9688 -13.3281 L6.6719 -13.3281 ZM3.25 -0.9062 Q3.5312 -0.875 4.3281 -0.875 Q5.3125 -0.875 6.1172 -1.0859 Q6.9219 -1.2969 7.6016 -1.7734 Q8.2812 -2.25 8.8359 -3.0391 Q9.3906 -3.8281 9.7422 -4.6406 Q10.0938 -5.4531 10.2891 -6.3906 Q10.4844 -7.3281 10.4844 -8.375 Q10.4844 -10.4219 9.5312 -11.4531 Q8.5781 -12.4844 6.7031 -12.4844 Q6.2656 -12.4844 5.7656 -12.4531 L3.25 -0.9062 Z" stroke="none"/></g><g text-rendering="optimizeLegibility" transform="translate(77.2031,28)" color-rendering="optimizeQuality" color-interpolation="linearRGB" image-rendering="optimizeQuality"><path d="M4.7812 4.2031 L0.4219 4.2031 L0.4219 3.4062 L3.0625 3.4062 L3.0625 -13.1719 L0.4219 -13.1719 L0.4219 -13.9688 L4.7812 -13.9688 L4.7812 4.2031 Z" stroke="none"/></g><g text-rendering="optimizeLegibility" transform="translate(83.8125,28)" color-rendering="optimizeQuality" color-interpolation="linearRGB" image-rendering="optimizeQuality"><path d="M15.6719 -14.4531 L15.6719 -13.1406 L9.0312 0.125 L8.375 0.125 L2.1719 -13.1406 L2.1719 -14.4531 L15.6719 -14.4531 ZM14.875 -13.0625 L4.0469 -13.0625 L9.2656 -1.9219 L9.2812 -1.9219 L14.875 -13.0625 Z" stroke="none"/></g><g text-rendering="optimizeLegibility" transform="translate(101.4844,28)" color-rendering="optimizeQuality" color-interpolation="linearRGB" image-rendering="optimizeQuality"><path d="M11.5625 -12.9844 L10.9844 -10.3438 L10.0469 -10.3438 Q9.9688 -11.5469 9.5234 -12.0781 Q9.0781 -12.6094 8.0938 -12.6094 Q7.2656 -12.6094 6.5469 -12.125 Q5.8281 -11.6406 5.1797 -10.7266 Q4.5312 -9.8125 4.0547 -8.5859 Q3.5781 -7.3594 3.3203 -6.0859 Q3.0625 -4.8125 3.0625 -3.7969 Q3.0625 -2.2031 3.5859 -1.4531 Q4.1094 -0.7031 5.2188 -0.7031 Q5.9531 -0.7031 6.5 -0.9219 Q7.0469 -1.1406 7.5312 -1.6641 Q8.0156 -2.1875 8.4844 -3.125 L9.4219 -3.125 L8.8125 -0.3594 Q7.8281 -0.0781 6.8984 0.0391 Q5.9688 0.1562 4.9844 0.1562 Q3.7812 0.1562 2.9297 -0.3438 Q2.0781 -0.8438 1.6484 -1.7969 Q1.2188 -2.75 1.2188 -4.0938 Q1.2188 -4.7969 1.3125 -5.4531 Q1.4375 -6.2812 1.6875 -7.25 Q2.0156 -8.4531 2.5 -9.4375 Q3.0312 -10.4844 3.7031 -11.2812 Q4.3438 -12.0156 5.0781 -12.5156 Q5.7656 -12.9844 6.5547 -13.2344 Q7.3438 -13.4844 8.2344 -13.4844 Q9.125 -13.4844 9.8828 -13.375 Q10.6406 -13.2656 11.5625 -12.9844 Z" stroke="none"/></g><g text-rendering="optimizeLegibility" transform="translate(113.8281,28)" color-rendering="optimizeQuality" color-interpolation="linearRGB" image-rendering="optimizeQuality"><path d="M6.25 -5.0469 L6.25 -1.3438 L4.8125 -1.3438 L4.8125 -5.0469 L1.2188 -5.0469 L1.2188 -6.3906 L4.8125 -6.3906 L4.8125 -10.0938 L6.25 -10.0938 L6.25 -6.3906 L9.8594 -6.3906 L9.8594 -5.0469 L6.25 -5.0469 Z" stroke="none"/></g><g text-rendering="optimizeLegibility" stroke-width="1.6667" color-interpolation="linearRGB" color-rendering="optimizeQuality" image-rendering="optimizeQuality"><line y2="20.78" fill="none" x1="127.3653" x2="180.5059" y1="20.78"/><path d="M6.5781 4.2031 L2.2344 4.2031 L2.2344 -13.9688 L6.5781 -13.9688 L6.5781 -13.1719 L3.9531 -13.1719 L3.9531 3.4062 L6.5781 3.4062 L6.5781 4.2031 Z" stroke-width="1" transform="translate(127.1309,14.0658)" stroke="none"/></g><g text-rendering="optimizeLegibility" transform="translate(135.709,14.0658)" color-rendering="optimizeQuality" color-interpolation="linearRGB" image-rendering="optimizeQuality"><path d="M6.6719 -13.3281 Q8.1406 -13.3281 9.0625 -13.1016 Q9.9844 -12.875 10.7812 -12.2891 Q11.5781 -11.7031 11.9766 -10.7344 Q12.375 -9.7656 12.375 -8.4375 Q12.375 -7.125 12.0703 -5.9219 Q11.7656 -4.7188 11.2031 -3.7109 Q10.6406 -2.7031 9.8438 -1.9531 Q9.0469 -1.2031 8.3047 -0.8047 Q7.5625 -0.4062 6.6484 -0.2031 Q5.7344 0 4.5156 0 L0.4062 0 L0.5156 -0.4844 Q0.8906 -0.5312 1.0781 -0.6641 Q1.2656 -0.7969 1.3906 -1.0312 Q1.5156 -1.2656 1.625 -1.6016 Q1.7344 -1.9375 1.9375 -2.9062 L3.6094 -10.4375 Q3.7031 -10.875 3.7578 -11.2891 Q3.8125 -11.7031 3.8125 -12 Q3.8125 -12.4688 3.5781 -12.6484 Q3.3438 -12.8281 2.8594 -12.8594 L2.9688 -13.3281 L6.6719 -13.3281 ZM3.25 -0.9062 Q3.5312 -0.875 4.3281 -0.875 Q5.3125 -0.875 6.1172 -1.0859 Q6.9219 -1.2969 7.6016 -1.7734 Q8.2812 -2.25 8.8359 -3.0391 Q9.3906 -3.8281 9.7422 -4.6406 Q10.0938 -5.4531 10.2891 -6.3906 Q10.4844 -7.3281 10.4844 -8.375 Q10.4844 -10.4219 9.5312 -11.4531 Q8.5781 -12.4844 6.7031 -12.4844 Q6.2656 -12.4844 5.7656 -12.4531 L3.25 -0.9062 Z" stroke="none"/></g><g text-rendering="optimizeLegibility" transform="translate(149.6622,14.0658)" color-rendering="optimizeQuality" color-interpolation="linearRGB" image-rendering="optimizeQuality"><path d="M4.7812 4.2031 L0.4219 4.2031 L0.4219 3.4062 L3.0625 3.4062 L3.0625 -13.1719 L0.4219 -13.1719 L0.4219 -13.9688 L4.7812 -13.9688 L4.7812 4.2031 Z" stroke="none"/></g><g text-rendering="optimizeLegibility" transform="translate(156.4434,14.0658)" color-rendering="optimizeQuality" color-interpolation="linearRGB" image-rendering="optimizeQuality"><path d="M11.5625 -12.9844 L10.9844 -10.3438 L10.0469 -10.3438 Q9.9688 -11.5469 9.5234 -12.0781 Q9.0781 -12.6094 8.0938 -12.6094 Q7.2656 -12.6094 6.5469 -12.125 Q5.8281 -11.6406 5.1797 -10.7266 Q4.5312 -9.8125 4.0547 -8.5859 Q3.5781 -7.3594 3.3203 -6.0859 Q3.0625 -4.8125 3.0625 -3.7969 Q3.0625 -2.2031 3.5859 -1.4531 Q4.1094 -0.7031 5.2188 -0.7031 Q5.9531 -0.7031 6.5 -0.9219 Q7.0469 -1.1406 7.5312 -1.6641 Q8.0156 -2.1875 8.4844 -3.125 L9.4219 -3.125 L8.8125 -0.3594 Q7.8281 -0.0781 6.8984 0.0391 Q5.9688 0.1562 4.9844 0.1562 Q3.7812 0.1562 2.9297 -0.3438 Q2.0781 -0.8438 1.6484 -1.7969 Q1.2188 -2.75 1.2188 -4.0938 Q1.2188 -4.7969 1.3125 -5.4531 Q1.4375 -6.2812 1.6875 -7.25 Q2.0156 -8.4531 2.5 -9.4375 Q3.0312 -10.4844 3.7031 -11.2812 Q4.3438 -12.0156 5.0781 -12.5156 Q5.7656 -12.9844 6.5547 -13.2344 Q7.3438 -13.4844 8.2344 -13.4844 Q9.125 -13.4844 9.8828 -13.375 Q10.6406 -13.2656 11.5625 -12.9844 Z" stroke="none"/></g><g text-rendering="optimizeLegibility" transform="translate(168.0059,14.0658)" color-rendering="optimizeQuality" color-interpolation="linearRGB" image-rendering="optimizeQuality"><path d="M8.5 -1.6094 L8.4531 -1.4219 L9.4375 -1.4219 Q10.0938 -1.4219 10.4453 -1.6406 Q10.7969 -1.8594 11.1562 -2.7188 L12.0938 -2.7188 L11.2344 0 L6.8125 0 L7.0469 -1.2656 Q9.0781 -3.5 9.8594 -5.6875 Q10.6406 -7.875 10.6406 -9.5156 Q10.6406 -11.0312 10 -11.8359 Q9.3594 -12.6406 8.25 -12.6406 Q6.2188 -12.6406 4.8984 -10.4141 Q3.5781 -8.1875 3.5781 -5.4219 Q3.5781 -3.625 4.6406 -1.2656 L4.3906 0 L0.0625 0 L0.3594 -2.7031 L1.2344 -2.7031 Q1.2656 -1.8906 1.4609 -1.6562 Q1.6562 -1.4219 2.5 -1.4219 L3.4375 -1.4219 L3.4844 -1.625 Q1.7188 -3.6875 1.7188 -6 Q1.7188 -9.1406 3.7031 -11.3125 Q5.6875 -13.4844 8.3281 -13.4844 Q10.3594 -13.4844 11.4297 -12.4062 Q12.5 -11.3281 12.5 -9.3438 Q12.5 -7.7344 11.7578 -5.8359 Q11.0156 -3.9375 8.5 -1.6094 Z" stroke="none"/></g><g text-rendering="optimizeLegibility" transform="translate(142.3809,37.2599)" color-rendering="optimizeQuality" color-interpolation="linearRGB" image-rendering="optimizeQuality"><path d="M3.5938 -5.4375 L3.9062 -5.4375 Q4.2031 -5.4375 4.5547 -5.5547 Q4.9062 -5.6719 5.3125 -5.9219 Q5.7188 -6.1719 6.3906 -6.7031 Q6.8906 -7.125 7.1406 -7.4141 Q7.3906 -7.7031 7.4766 -7.9141 Q7.5625 -8.125 7.5625 -8.3281 Q7.5625 -8.7969 6.8906 -8.8594 L7 -9.3438 L10.1719 -9.3438 L10.3594 -8.8594 Q9.5469 -8.125 8.6406 -7.4219 L6.1562 -5.5 L7.625 -1.7969 Q7.8281 -1.2969 8.0312 -1.0312 Q8.2344 -0.7656 8.5 -0.6406 Q8.7656 -0.5156 9.1875 -0.4844 L9.0781 0 L6.4688 0 L5.0469 -4.0156 Q4.9062 -4.3906 4.8125 -4.5312 Q4.7188 -4.6719 4.5938 -4.7266 Q4.4688 -4.7812 4.1875 -4.7812 L3.4531 -4.7812 L2.4375 0 L0.75 0 L3.2656 -11.1562 Q3.375 -11.6562 3.4141 -11.875 Q3.4531 -12.0938 3.4766 -12.2812 Q3.5 -12.4688 3.5 -12.6094 Q3.5 -13.0156 3.25 -13.1797 Q3 -13.3438 2.3594 -13.375 L2.4688 -13.875 L4.9375 -13.9688 L5.5156 -13.9688 L3.5938 -5.4375 Z" stroke="none"/></g><g text-rendering="optimizeLegibility" transform="translate(152.7403,37.2599)" color-rendering="optimizeQuality" color-interpolation="linearRGB" image-rendering="optimizeQuality"><path d="M6.9531 0 L2.8438 0 L2.9531 -0.4844 Q3.3281 -0.5312 3.5156 -0.6328 Q3.7031 -0.7344 3.8438 -0.9375 Q3.9844 -1.1406 4.1328 -1.5781 Q4.2812 -2.0156 4.4688 -2.9062 L6.5625 -12.4688 L5.3281 -12.4688 Q4.7188 -12.4688 4.3594 -12.2969 Q4 -12.125 3.6328 -11.6406 Q3.2656 -11.1562 2.75 -10.0469 L1.8125 -10.0469 L2.5469 -13.3281 L12.75 -13.3281 L11.9844 -9.8906 L11.0469 -9.8906 Q11.0469 -10.8438 11 -11.3125 Q10.9531 -11.7812 10.8125 -12.0312 Q10.6719 -12.2812 10.4766 -12.375 Q10.2812 -12.4688 9.7656 -12.4688 L8.3281 -12.4688 L6.2031 -2.8438 Q6.1094 -2.4688 6.0781 -2.2422 Q6.0469 -2.0156 6.0234 -1.7656 Q6 -1.5156 6 -1.3125 Q6 -1.0156 6.0938 -0.8438 Q6.1875 -0.6719 6.3828 -0.5938 Q6.5781 -0.5156 7.0625 -0.4844 L6.9531 0 Z" stroke="none"/></g><g text-rendering="optimizeLegibility" transform="translate(183.6785,28)" color-rendering="optimizeQuality" color-interpolation="linearRGB" image-rendering="optimizeQuality"><path d="M15.6719 -14.4531 L15.6719 -13.1406 L9.0312 0.125 L8.375 0.125 L2.1719 -13.1406 L2.1719 -14.4531 L15.6719 -14.4531 ZM14.875 -13.0625 L4.0469 -13.0625 L9.2656 -1.9219 L9.2812 -1.9219 L14.875 -13.0625 Z" stroke="none"/></g><g text-rendering="optimizeLegibility" transform="translate(201.3503,28)" color-rendering="optimizeQuality" color-interpolation="linearRGB" image-rendering="optimizeQuality"><path d="M10.7812 -8.0156 L7.9062 -8.0156 L7.875 -7.9375 Q9.2188 -6.9844 9.2188 -5.1875 Q9.2188 -3.1719 7.8438 -1.5078 Q6.4688 0.1562 4.0625 0.1562 Q2.5781 0.1562 1.7031 -0.7891 Q0.8281 -1.7344 0.8281 -3.3281 Q0.8281 -4.9375 1.4609 -6.2031 Q2.0938 -7.4688 3.1172 -8.1953 Q4.1406 -8.9219 5.2578 -9.1328 Q6.375 -9.3438 8.3281 -9.3438 L11.0469 -9.3438 L10.7812 -8.0156 ZM6.6875 -7.9844 Q5.4375 -7.9844 4.625 -7.5 Q3.8125 -7.0156 3.1641 -5.8516 Q2.5156 -4.6875 2.5156 -2.875 Q2.5156 -1.7969 3.0156 -1.2031 Q3.5156 -0.6094 4.2656 -0.6094 Q5.6094 -0.6094 6.5469 -2.1328 Q7.4844 -3.6562 7.4844 -5.5156 Q7.4844 -6.9688 6.6875 -7.9844 Z" stroke="none"/></g><g text-rendering="optimizeLegibility" transform="translate(212.3972,32.8203)" color-rendering="optimizeQuality" color-interpolation="linearRGB" image-rendering="optimizeQuality"><path d="M7.4531 -1.9844 Q7.375 -1.5938 7.3438 -1.3516 Q7.3125 -1.1094 7.3125 -0.9219 Q7.3125 -0.6094 7.4688 -0.4844 Q7.625 -0.3594 7.9844 -0.3281 L7.9062 0 L5.1719 0 L5.25 -0.3281 Q5.5156 -0.375 5.6406 -0.4688 Q5.7656 -0.5625 5.8594 -0.7266 Q5.9531 -0.8906 6.0234 -1.125 Q6.0938 -1.3594 6.25 -2.0312 L6.8125 -4.5781 L3.1406 -4.5781 L2.5781 -1.9844 Q2.5156 -1.7344 2.4844 -1.5781 Q2.4531 -1.4219 2.4375 -1.2656 Q2.4219 -1.1094 2.4219 -0.9219 Q2.4219 -0.625 2.5625 -0.5 Q2.7031 -0.375 3.0938 -0.3281 L3.0156 0 L0.2812 0 L0.3594 -0.3281 Q0.625 -0.375 0.75 -0.4688 Q0.875 -0.5625 0.9688 -0.7266 Q1.0625 -0.8906 1.1328 -1.125 Q1.2031 -1.3594 1.3594 -2.0312 L2.5156 -7.2969 Q2.5781 -7.5781 2.625 -7.8984 Q2.6719 -8.2188 2.6719 -8.4062 Q2.6719 -8.7188 2.5078 -8.8438 Q2.3438 -8.9688 2 -9 L2.0781 -9.3281 L4.8125 -9.3281 L4.7344 -9 Q4.4844 -8.9375 4.3672 -8.875 Q4.25 -8.8125 4.1562 -8.6719 Q4.0625 -8.5312 3.9766 -8.2422 Q3.8906 -7.9531 3.7344 -7.2969 L3.2812 -5.2031 L6.9531 -5.2031 L7.4062 -7.2969 Q7.4688 -7.5781 7.5156 -7.8984 Q7.5625 -8.2188 7.5625 -8.4062 Q7.5625 -8.7188 7.3984 -8.8438 Q7.2344 -8.9688 6.8906 -9 L6.9688 -9.3281 L9.7031 -9.3281 L9.625 -9 Q9.3906 -8.9375 9.2969 -8.8906 Q9.2031 -8.8438 9.125 -8.7656 Q9.0469 -8.6875 8.9766 -8.5312 Q8.9062 -8.375 8.8203 -8.0781 Q8.7344 -7.7812 8.625 -7.2969 L7.4531 -1.9844 Z" stroke="none"/></g></g></svg>