<?xml version="1.0" encoding="UTF-8" standalone="no"?><svg xmlns="http://www.w3.org/2000/svg" xmlns:xlink="http://www.w3.org/1999/xlink" stroke-dasharray="none" shape-rendering="auto" font-family="'Dialog'" width="296.812600" text-rendering="auto" fill-opacity="1" contentScriptType="text/ecmascript" color-interpolation="auto" color-rendering="auto" preserveAspectRatio="xMidYMid meet" font-size="12" fill="black" stroke="black" image-rendering="auto" stroke-miterlimit="10" zoomAndPan="magnify" version="1.0" stroke-linecap="square" stroke-linejoin="miter" contentStyleType="text/css" font-style="normal" height="40" stroke-width="1" stroke-dashoffset="0" font-weight="normal" stroke-opacity="1" y="-12.000000"><!--Converted from MathML using JEuclid--><defs id="genericDefs"/><g><g text-rendering="optimizeLegibility" transform="translate(6.8281,26.9188) matrix(1,0,0,1.2572,0,0)" color-rendering="optimizeQuality" color-interpolation="linearRGB" image-rendering="optimizeQuality"><path d="M6.5781 4.2031 L2.2344 4.2031 L2.2344 -13.9688 L6.5781 -13.9688 L6.5781 -13.1719 L3.9531 -13.1719 L3.9531 3.4062 L6.5781 3.4062 L6.5781 4.2031 Z" stroke="none"/></g><g text-rendering="optimizeLegibility" transform="translate(15.4062,28)" color-rendering="optimizeQuality" color-interpolation="linearRGB" image-rendering="optimizeQuality"><path d="M8.7344 -2.3281 L8.7344 -2.2812 Q8.7344 -1.2812 8.9375 -0.9688 Q9.1406 -0.6562 9.875 -0.4844 L9.875 0 L5.8281 0 L5.8281 -0.4844 Q6.5781 -0.6562 6.7734 -0.9688 Q6.9688 -1.2812 6.9688 -2.2812 L6.9688 -2.3125 Q4.0781 -2.3906 2.6094 -3.4141 Q1.1406 -4.4375 1.1406 -6.5781 Q1.1406 -10.875 6.9688 -11.1406 Q6.9688 -12.1719 6.7188 -12.4453 Q6.4688 -12.7188 5.8281 -12.8594 L5.8281 -13.3281 L9.875 -13.3281 L9.875 -12.8594 Q9.2344 -12.7031 8.9844 -12.4375 Q8.7344 -12.1719 8.7344 -11.1562 L8.7344 -11.1562 Q11.3438 -11.1562 12.9609 -10.1484 Q14.5781 -9.1406 14.5781 -7 Q14.5781 -4.7969 13.1562 -3.6562 Q11.7344 -2.5156 8.7344 -2.3281 ZM8.7344 -10.3594 L8.7344 -3.1406 Q12.6094 -3.2656 12.6094 -6.7656 Q12.6094 -10.3438 8.7344 -10.3594 ZM6.9688 -3.1094 L6.9688 -10.3281 Q3.0938 -10.1719 3.0938 -6.7188 Q3.0938 -4.9062 4.0078 -4.0234 Q4.9219 -3.1406 6.9688 -3.1094 Z" stroke="none"/></g><g text-rendering="optimizeLegibility" transform="translate(29.9844,31.3203)" color-rendering="optimizeQuality" color-interpolation="linearRGB" image-rendering="optimizeQuality"><path d="M6.4531 0 L4.2969 0 L5.1562 -3.4688 Q5.25 -3.8125 5.3281 -4.2109 Q5.4062 -4.6094 5.4062 -4.9375 Q5.4062 -5.4219 5.2344 -5.6328 Q5.0625 -5.8438 4.7031 -5.8438 Q4.4219 -5.8438 4.0938 -5.625 Q3.7656 -5.4062 3.3984 -4.9609 Q3.0312 -4.5156 2.7812 -4.0625 Q2.5312 -3.6094 2.4062 -2.9531 L1.7812 0 L0.5938 0 L1.6406 -4.6719 Q1.6719 -4.8281 1.7266 -5.1328 Q1.7812 -5.4375 1.7812 -5.6406 Q1.7812 -5.8438 1.7266 -5.9453 Q1.6719 -6.0469 1.5312 -6.1016 Q1.3906 -6.1562 1.0469 -6.1719 L1.1406 -6.5312 L2.6875 -6.5938 L3.0781 -6.5938 L2.625 -4.8125 L2.7031 -4.7969 Q3.375 -5.7344 3.9922 -6.1875 Q4.6094 -6.6406 5.2344 -6.6406 Q5.9062 -6.6406 6.2422 -6.2734 Q6.5781 -5.9062 6.5781 -5.2031 Q6.5781 -4.9531 6.5391 -4.6641 Q6.5 -4.375 6.4375 -4.1406 L5.8594 -1.7031 Q5.75 -1.2188 5.75 -0.9375 Q5.75 -0.7188 5.8203 -0.6094 Q5.8906 -0.5 6.0312 -0.4375 Q6.1719 -0.375 6.5 -0.3281 L6.4531 0 Z" stroke="none"/></g><g text-rendering="optimizeLegibility" transform="translate(29.9844,17.9375)" color-rendering="optimizeQuality" color-interpolation="linearRGB" image-rendering="optimizeQuality"><path d="M4.5156 -4.9375 Q4.4375 -5.5625 4.1641 -5.8359 Q3.8906 -6.1094 3.2969 -6.1094 Q2.9844 -6.1094 2.7266 -5.9922 Q2.4688 -5.875 2.3125 -5.6484 Q2.1562 -5.4219 2.1562 -5.1094 Q2.1562 -4.8594 2.2578 -4.6484 Q2.3594 -4.4375 2.6016 -4.2109 Q2.8438 -3.9844 3.2812 -3.6875 Q3.9531 -3.25 4.2188 -2.8281 Q4.4844 -2.4062 4.4844 -1.8594 Q4.4844 -1.2188 4.1797 -0.7734 Q3.875 -0.3281 3.3359 -0.1094 Q2.7969 0.1094 2.1406 0.1094 Q1.5312 0.1094 1.0078 0.0234 Q0.4844 -0.0625 0 -0.2031 L0.3125 -1.6875 L0.8438 -1.6875 Q0.8906 -1.0469 1.2031 -0.7422 Q1.5156 -0.4375 2.1094 -0.4375 Q2.7188 -0.4375 3.0625 -0.7422 Q3.4062 -1.0469 3.4062 -1.5312 Q3.4062 -1.8281 3.3047 -2.0625 Q3.2031 -2.2969 2.9844 -2.5078 Q2.7656 -2.7188 2.3594 -3 Q1.9219 -3.2812 1.6562 -3.5469 Q1.3906 -3.8125 1.2422 -4.125 Q1.0938 -4.4375 1.0938 -4.8125 Q1.0938 -5.375 1.375 -5.7891 Q1.6562 -6.2031 2.1719 -6.4219 Q2.6875 -6.6406 3.3906 -6.6406 Q4.5156 -6.6406 5.375 -6.3438 L5.0625 -4.9375 L4.5156 -4.9375 Z" stroke="none"/></g><g text-rendering="optimizeLegibility" transform="translate(38.1406,26.9188) matrix(1,0,0,1.2572,0,0)" color-rendering="optimizeQuality" color-interpolation="linearRGB" image-rendering="optimizeQuality"><path d="M4.7812 4.2031 L0.4219 4.2031 L0.4219 3.4062 L3.0625 3.4062 L3.0625 -13.1719 L0.4219 -13.1719 L0.4219 -13.9688 L4.7812 -13.9688 L4.7812 4.2031 Z" stroke="none"/></g><g text-rendering="optimizeLegibility" transform="translate(0,14.0366)" color-rendering="optimizeQuality" color-interpolation="linearRGB" image-rendering="optimizeQuality"><path d="M6.4062 -6.9688 Q6.125 -8.0625 5.8125 -8.3984 Q5.5 -8.7344 4.9375 -8.7344 L2.9062 -8.7344 L2.9062 -1.7344 Q2.9062 -1.0781 3.0469 -0.7734 Q3.1875 -0.4688 3.8281 -0.3281 L3.8281 0 L0.8281 0 L0.8281 -0.3281 Q1.3594 -0.4844 1.5 -0.7031 Q1.6406 -0.9219 1.6406 -1.7031 L1.6406 -7.6406 Q1.6406 -8.5469 1.4609 -8.7344 Q1.2812 -8.9219 0.8281 -9.0312 L0.8281 -9.3594 L7.0625 -9.3594 L7.0625 -6.9688 L6.4062 -6.9688 Z" stroke="none"/></g><g text-rendering="optimizeLegibility" transform="translate(44.9219,9.3413)" color-rendering="optimizeQuality" color-interpolation="linearRGB" image-rendering="optimizeQuality"><path d="M4.875 0 L1.9844 0 L2.0625 -0.3281 Q2.3281 -0.375 2.4609 -0.4453 Q2.5938 -0.5156 2.6953 -0.6562 Q2.7969 -0.7969 2.8984 -1.1016 Q3 -1.4062 3.125 -2.0312 L4.5938 -8.7344 L3.7188 -8.7344 Q3.2969 -8.7344 3.0469 -8.6094 Q2.7969 -8.4844 2.5469 -8.1484 Q2.2969 -7.8125 1.9219 -7.0312 L1.2656 -7.0312 L1.7812 -9.3281 L8.9219 -9.3281 L8.3906 -6.9219 L7.7344 -6.9219 Q7.7344 -7.5938 7.6953 -7.9219 Q7.6562 -8.25 7.5625 -8.4219 Q7.4688 -8.5938 7.3281 -8.6641 Q7.1875 -8.7344 6.8438 -8.7344 L5.8281 -8.7344 L4.3438 -1.9844 Q4.2812 -1.7188 4.2578 -1.5625 Q4.2344 -1.4062 4.2188 -1.2344 Q4.2031 -1.0625 4.2031 -0.9219 Q4.2031 -0.7188 4.2656 -0.5938 Q4.3281 -0.4688 4.4688 -0.4141 Q4.6094 -0.3594 4.9375 -0.3281 L4.875 0 Z" stroke="none"/></g><g text-rendering="optimizeLegibility" transform="translate(53.8438,28)" color-rendering="optimizeQuality" color-interpolation="linearRGB" image-rendering="optimizeQuality"><path d="M10.2656 -11.5 L9.3594 -11.5 Q8.9688 -13.25 6.8438 -13.25 Q6.125 -13.25 5.6719 -12.9062 Q5.2188 -12.5625 5.2188 -12.0781 Q5.2188 -11.5625 5.5547 -11.0781 Q5.8906 -10.5938 7.2812 -9.0781 Q8.3906 -7.875 8.7891 -6.9297 Q9.1875 -5.9844 9.1875 -4.8125 Q9.1875 -2.9844 7.8672 -1.4141 Q6.5469 0.1562 4.2812 0.1562 Q2.6406 0.1562 1.7344 -0.875 Q0.8281 -1.9062 0.8281 -3.3594 Q0.8281 -5.4219 2.0469 -6.9531 Q3.2656 -8.4844 5.4219 -9.125 Q4.75 -9.8438 4.3438 -10.4922 Q3.9375 -11.1406 3.9375 -11.8438 Q3.9375 -12.7969 4.7422 -13.4141 Q5.5469 -14.0312 6.8906 -14.0312 Q9.1875 -14.0312 10.5312 -12.9219 L10.2656 -11.5 ZM5.875 -8.5 Q4.3438 -7.9844 3.4453 -6.5391 Q2.5469 -5.0938 2.5469 -3.0938 Q2.5469 -2.0156 3.0625 -1.3047 Q3.5781 -0.5938 4.4688 -0.5938 Q5.7344 -0.5938 6.5781 -1.9141 Q7.4219 -3.2344 7.4219 -4.8438 Q7.4219 -6.7188 5.875 -8.5 Z" stroke="none"/></g><g text-rendering="optimizeLegibility" transform="translate(64.375,31.4766)" color-rendering="optimizeQuality" color-interpolation="linearRGB" image-rendering="optimizeQuality"><path d="M6.4531 0 L4.2969 0 L5.1562 -3.4688 Q5.25 -3.8125 5.3281 -4.2109 Q5.4062 -4.6094 5.4062 -4.9375 Q5.4062 -5.4219 5.2344 -5.6328 Q5.0625 -5.8438 4.7031 -5.8438 Q4.4219 -5.8438 4.0938 -5.625 Q3.7656 -5.4062 3.3984 -4.9609 Q3.0312 -4.5156 2.7812 -4.0625 Q2.5312 -3.6094 2.4062 -2.9531 L1.7812 0 L0.5938 0 L1.6406 -4.6719 Q1.6719 -4.8281 1.7266 -5.1328 Q1.7812 -5.4375 1.7812 -5.6406 Q1.7812 -5.8438 1.7266 -5.9453 Q1.6719 -6.0469 1.5312 -6.1016 Q1.3906 -6.1562 1.0469 -6.1719 L1.1406 -6.5312 L2.6875 -6.5938 L3.0781 -6.5938 L2.625 -4.8125 L2.7031 -4.7969 Q3.375 -5.7344 3.9922 -6.1875 Q4.6094 -6.6406 5.2344 -6.6406 Q5.9062 -6.6406 6.2422 -6.2734 Q6.5781 -5.9062 6.5781 -5.2031 Q6.5781 -4.9531 6.5391 -4.6641 Q6.5 -4.375 6.4375 -4.1406 L5.8594 -1.7031 Q5.75 -1.2188 5.75 -0.9375 Q5.75 -0.7188 5.8203 -0.6094 Q5.8906 -0.5 6.0312 -0.4375 Q6.1719 -0.375 6.5 -0.3281 L6.4531 0 Z" stroke="none"/></g><g text-rendering="optimizeLegibility" transform="translate(64.375,18.8594)" color-rendering="optimizeQuality" color-interpolation="linearRGB" image-rendering="optimizeQuality"><path d="M2.5156 -3.8125 L2.7344 -3.8125 Q2.9531 -3.8125 3.1953 -3.8906 Q3.4375 -3.9688 3.7188 -4.1484 Q4 -4.3281 4.4688 -4.7031 Q4.8281 -4.9844 5 -5.1875 Q5.1719 -5.3906 5.2344 -5.5391 Q5.2969 -5.6875 5.2969 -5.8281 Q5.2969 -6.1562 4.8281 -6.2031 L4.9062 -6.5312 L7.1094 -6.5312 L7.25 -6.2031 Q6.6719 -5.6875 6.0469 -5.2031 L4.3125 -3.8438 L5.3438 -1.2656 Q5.4688 -0.9062 5.6172 -0.7188 Q5.7656 -0.5312 5.9531 -0.4453 Q6.1406 -0.3594 6.4375 -0.3281 L6.3594 0 L4.5312 0 L3.5312 -2.8125 Q3.4375 -3.0781 3.3672 -3.1719 Q3.2969 -3.2656 3.2109 -3.3047 Q3.125 -3.3438 2.9219 -3.3438 L2.4219 -3.3438 L1.7031 0 L0.5312 0 L2.2812 -7.8125 Q2.3594 -8.1562 2.3906 -8.3125 Q2.4219 -8.4688 2.4375 -8.5938 Q2.4531 -8.7188 2.4531 -8.8281 Q2.4531 -9.1094 2.2734 -9.2266 Q2.0938 -9.3438 1.6406 -9.3594 L1.7344 -9.7188 L3.4531 -9.7812 L3.8594 -9.7812 L2.5156 -3.8125 Z" stroke="none"/></g><g text-rendering="optimizeLegibility" transform="translate(71.3906,30.8976) matrix(1,0,0,2.0721,0,0)" color-rendering="optimizeQuality" color-interpolation="linearRGB" image-rendering="optimizeQuality"><path d="M6.5781 4.2031 L2.2344 4.2031 L2.2344 -13.9688 L6.5781 -13.9688 L6.5781 -13.1719 L3.9531 -13.1719 L3.9531 3.4062 L6.5781 3.4062 L6.5781 4.2031 Z" stroke="none"/></g><g text-rendering="optimizeLegibility" transform="translate(79.9688,28)" color-rendering="optimizeQuality" color-interpolation="linearRGB" image-rendering="optimizeQuality"><path d="M4.6562 -7.3125 L4.9688 -7.3125 Q5.375 -7.3125 5.7188 -7.4453 Q6.0625 -7.5781 6.5078 -7.9375 Q6.9531 -8.2969 7.9375 -9.2656 Q8.9219 -10.2344 9.3359 -10.7344 Q9.75 -11.2344 9.9375 -11.6016 Q10.125 -11.9688 10.125 -12.2812 Q10.125 -12.5156 9.9297 -12.6719 Q9.7344 -12.8281 9.375 -12.8594 L9.4844 -13.3281 L13.6719 -13.3281 L13.5625 -12.8594 Q13.1719 -12.7969 12.6797 -12.4453 Q12.1875 -12.0938 11.1719 -11.0938 L7.3906 -7.4062 L9.4688 -2.4062 Q9.7344 -1.7656 9.8906 -1.4688 Q10.0469 -1.1719 10.2344 -0.9688 Q10.4219 -0.7656 10.6562 -0.6484 Q10.8906 -0.5312 11.2188 -0.4844 L11.1094 0 L7.3438 0 L7.4531 -0.4844 Q7.9844 -0.5312 7.9844 -0.9531 Q7.9844 -1.0781 7.9609 -1.2109 Q7.9375 -1.3438 7.8516 -1.6094 Q7.7656 -1.875 7.625 -2.25 L6.3438 -5.3594 Q6.125 -5.9062 5.9609 -6.1328 Q5.7969 -6.3594 5.6094 -6.4453 Q5.4219 -6.5312 5.0312 -6.5312 L4.4844 -6.5312 L3.6719 -2.8438 Q3.5469 -2.25 3.5078 -1.9141 Q3.4688 -1.5781 3.4688 -1.3125 Q3.4688 -0.875 3.6875 -0.6953 Q3.9062 -0.5156 4.4219 -0.4844 L4.3125 0 L0.4062 0 L0.5156 -0.4844 Q0.8906 -0.5312 1.0781 -0.6641 Q1.2656 -0.7969 1.3906 -1.0312 Q1.5156 -1.2656 1.625 -1.6016 Q1.7344 -1.9375 1.9375 -2.9062 L3.6094 -10.4375 Q3.7031 -10.875 3.7578 -11.2891 Q3.8125 -11.7031 3.8125 -12 Q3.8125 -12.4688 3.5781 -12.6484 Q3.3438 -12.8281 2.8594 -12.8594 L2.9688 -13.3281 L6.875 -13.3281 L6.7656 -12.8594 Q6.3906 -12.7812 6.2344 -12.6797 Q6.0781 -12.5781 5.9453 -12.3828 Q5.8125 -12.1875 5.6797 -11.7734 Q5.5469 -11.3594 5.3438 -10.4219 L4.6562 -7.3125 Z" stroke="none"/></g><g text-rendering="optimizeLegibility" transform="translate(93.6406,31.2656)" color-rendering="optimizeQuality" color-interpolation="linearRGB" image-rendering="optimizeQuality"><path d="M2.7969 0.1094 Q1.7344 0.1094 1.1484 -0.4844 Q0.5625 -1.0781 0.5625 -2.1875 Q0.5625 -2.5938 0.6719 -3.1562 Q0.7969 -3.875 1.0469 -4.4219 Q1.3438 -5.1094 1.8281 -5.6172 Q2.3125 -6.125 2.9375 -6.3828 Q3.5625 -6.6406 4.2812 -6.6406 Q5.0625 -6.6406 5.5703 -6.3438 Q6.0781 -6.0469 6.2969 -5.5312 Q6.5156 -5.0156 6.5156 -4.3281 Q6.5156 -3.7188 6.3438 -3.0312 Q6.1094 -2.0312 5.6328 -1.3203 Q5.1562 -0.6094 4.4453 -0.25 Q3.7344 0.1094 2.7969 0.1094 ZM1.7656 -1.8906 Q1.7656 -1.1406 2.0781 -0.7812 Q2.3906 -0.4219 3.0156 -0.4219 Q3.6875 -0.4219 4.2031 -1.0234 Q4.7188 -1.625 5.0234 -2.7109 Q5.3281 -3.7969 5.3281 -4.6094 Q5.3281 -5.3594 5.0391 -5.7266 Q4.75 -6.0938 4.1406 -6.0938 Q3.4375 -6.0938 2.9062 -5.5 Q2.375 -4.9062 2.0703 -3.7969 Q1.7656 -2.6875 1.7656 -1.8906 Z" stroke="none"/></g><g text-rendering="optimizeLegibility" transform="translate(101.7344,30.8976) matrix(1,0,0,2.0721,0,0)" color-rendering="optimizeQuality" color-interpolation="linearRGB" image-rendering="optimizeQuality"><path d="M4.7812 4.2031 L0.4219 4.2031 L0.4219 3.4062 L3.0625 3.4062 L3.0625 -13.1719 L0.4219 -13.1719 L0.4219 -13.9688 L4.7812 -13.9688 L4.7812 4.2031 Z" stroke="none"/></g><g text-rendering="optimizeLegibility" transform="translate(115.3438,26.9188) matrix(1,0,0,1.2572,0,0)" color-rendering="optimizeQuality" color-interpolation="linearRGB" image-rendering="optimizeQuality"><path d="M6.5781 4.2031 L2.2344 4.2031 L2.2344 -13.9688 L6.5781 -13.9688 L6.5781 -13.1719 L3.9531 -13.1719 L3.9531 3.4062 L6.5781 3.4062 L6.5781 4.2031 Z" stroke="none"/></g><g text-rendering="optimizeLegibility" transform="translate(123.9219,28)" color-rendering="optimizeQuality" color-interpolation="linearRGB" image-rendering="optimizeQuality"><path d="M8.7344 -2.3281 L8.7344 -2.2812 Q8.7344 -1.2812 8.9375 -0.9688 Q9.1406 -0.6562 9.875 -0.4844 L9.875 0 L5.8281 0 L5.8281 -0.4844 Q6.5781 -0.6562 6.7734 -0.9688 Q6.9688 -1.2812 6.9688 -2.2812 L6.9688 -2.3125 Q4.0781 -2.3906 2.6094 -3.4141 Q1.1406 -4.4375 1.1406 -6.5781 Q1.1406 -10.875 6.9688 -11.1406 Q6.9688 -12.1719 6.7188 -12.4453 Q6.4688 -12.7188 5.8281 -12.8594 L5.8281 -13.3281 L9.875 -13.3281 L9.875 -12.8594 Q9.2344 -12.7031 8.9844 -12.4375 Q8.7344 -12.1719 8.7344 -11.1562 L8.7344 -11.1562 Q11.3438 -11.1562 12.9609 -10.1484 Q14.5781 -9.1406 14.5781 -7 Q14.5781 -4.7969 13.1562 -3.6562 Q11.7344 -2.5156 8.7344 -2.3281 ZM8.7344 -10.3594 L8.7344 -3.1406 Q12.6094 -3.2656 12.6094 -6.7656 Q12.6094 -10.3438 8.7344 -10.3594 ZM6.9688 -3.1094 L6.9688 -10.3281 Q3.0938 -10.1719 3.0938 -6.7188 Q3.0938 -4.9062 4.0078 -4.0234 Q4.9219 -3.1406 6.9688 -3.1094 Z" stroke="none"/></g><g text-rendering="optimizeLegibility" transform="translate(138.5,31.3203)" color-rendering="optimizeQuality" color-interpolation="linearRGB" image-rendering="optimizeQuality"><path d="M6.4531 0 L4.2969 0 L5.1562 -3.4688 Q5.25 -3.8125 5.3281 -4.2109 Q5.4062 -4.6094 5.4062 -4.9375 Q5.4062 -5.4219 5.2344 -5.6328 Q5.0625 -5.8438 4.7031 -5.8438 Q4.4219 -5.8438 4.0938 -5.625 Q3.7656 -5.4062 3.3984 -4.9609 Q3.0312 -4.5156 2.7812 -4.0625 Q2.5312 -3.6094 2.4062 -2.9531 L1.7812 0 L0.5938 0 L1.6406 -4.6719 Q1.6719 -4.8281 1.7266 -5.1328 Q1.7812 -5.4375 1.7812 -5.6406 Q1.7812 -5.8438 1.7266 -5.9453 Q1.6719 -6.0469 1.5312 -6.1016 Q1.3906 -6.1562 1.0469 -6.1719 L1.1406 -6.5312 L2.6875 -6.5938 L3.0781 -6.5938 L2.625 -4.8125 L2.7031 -4.7969 Q3.375 -5.7344 3.9922 -6.1875 Q4.6094 -6.6406 5.2344 -6.6406 Q5.9062 -6.6406 6.2422 -6.2734 Q6.5781 -5.9062 6.5781 -5.2031 Q6.5781 -4.9531 6.5391 -4.6641 Q6.5 -4.375 6.4375 -4.1406 L5.8594 -1.7031 Q5.75 -1.2188 5.75 -0.9375 Q5.75 -0.7188 5.8203 -0.6094 Q5.8906 -0.5 6.0312 -0.4375 Q6.1719 -0.375 6.5 -0.3281 L6.4531 0 Z" stroke="none"/></g><g text-rendering="optimizeLegibility" transform="translate(138.5,17.9375)" color-rendering="optimizeQuality" color-interpolation="linearRGB" image-rendering="optimizeQuality"><path d="M4.5156 -4.9375 Q4.4375 -5.5625 4.1641 -5.8359 Q3.8906 -6.1094 3.2969 -6.1094 Q2.9844 -6.1094 2.7266 -5.9922 Q2.4688 -5.875 2.3125 -5.6484 Q2.1562 -5.4219 2.1562 -5.1094 Q2.1562 -4.8594 2.2578 -4.6484 Q2.3594 -4.4375 2.6016 -4.2109 Q2.8438 -3.9844 3.2812 -3.6875 Q3.9531 -3.25 4.2188 -2.8281 Q4.4844 -2.4062 4.4844 -1.8594 Q4.4844 -1.2188 4.1797 -0.7734 Q3.875 -0.3281 3.3359 -0.1094 Q2.7969 0.1094 2.1406 0.1094 Q1.5312 0.1094 1.0078 0.0234 Q0.4844 -0.0625 0 -0.2031 L0.3125 -1.6875 L0.8438 -1.6875 Q0.8906 -1.0469 1.2031 -0.7422 Q1.5156 -0.4375 2.1094 -0.4375 Q2.7188 -0.4375 3.0625 -0.7422 Q3.4062 -1.0469 3.4062 -1.5312 Q3.4062 -1.8281 3.3047 -2.0625 Q3.2031 -2.2969 2.9844 -2.5078 Q2.7656 -2.7188 2.3594 -3 Q1.9219 -3.2812 1.6562 -3.5469 Q1.3906 -3.8125 1.2422 -4.125 Q1.0938 -4.4375 1.0938 -4.8125 Q1.0938 -5.375 1.375 -5.7891 Q1.6562 -6.2031 2.1719 -6.4219 Q2.6875 -6.6406 3.3906 -6.6406 Q4.5156 -6.6406 5.375 -6.3438 L5.0625 -4.9375 L4.5156 -4.9375 Z" stroke="none"/></g><g text-rendering="optimizeLegibility" transform="translate(146.6562,26.9188) matrix(1,0,0,1.2572,0,0)" color-rendering="optimizeQuality" color-interpolation="linearRGB" image-rendering="optimizeQuality"><path d="M4.7812 4.2031 L0.4219 4.2031 L0.4219 3.4062 L3.0625 3.4062 L3.0625 -13.1719 L0.4219 -13.1719 L0.4219 -13.9688 L4.7812 -13.9688 L4.7812 4.2031 Z" stroke="none"/></g><g text-rendering="optimizeLegibility" transform="translate(108.5156,14.0366)" color-rendering="optimizeQuality" color-interpolation="linearRGB" image-rendering="optimizeQuality"><path d="M6.4062 -6.9688 Q6.125 -8.0625 5.8125 -8.3984 Q5.5 -8.7344 4.9375 -8.7344 L2.9062 -8.7344 L2.9062 -1.7344 Q2.9062 -1.0781 3.0469 -0.7734 Q3.1875 -0.4688 3.8281 -0.3281 L3.8281 0 L0.8281 0 L0.8281 -0.3281 Q1.3594 -0.4844 1.5 -0.7031 Q1.6406 -0.9219 1.6406 -1.7031 L1.6406 -7.6406 Q1.6406 -8.5469 1.4609 -8.7344 Q1.2812 -8.9219 0.8281 -9.0312 L0.8281 -9.3594 L7.0625 -9.3594 L7.0625 -6.9688 L6.4062 -6.9688 Z" stroke="none"/></g><g text-rendering="optimizeLegibility" transform="translate(154.2188,28)" color-rendering="optimizeQuality" color-interpolation="linearRGB" image-rendering="optimizeQuality"><path d="M1.2188 -7.0625 L1.2188 -8.4219 L9.8594 -8.4219 L9.8594 -7.0625 L1.2188 -7.0625 ZM1.2188 -3.0156 L1.2188 -4.3594 L9.8594 -4.3594 L9.8594 -3.0156 L1.2188 -3.0156 Z" stroke="none"/></g><g text-rendering="optimizeLegibility" transform="translate(165.8438,28.7032) matrix(1,0,0,1.6227,0,0)" color-rendering="optimizeQuality" color-interpolation="linearRGB" image-rendering="optimizeQuality"><path d="M6.5781 4.2031 L2.2344 4.2031 L2.2344 -13.9688 L6.5781 -13.9688 L6.5781 -13.1719 L3.9531 -13.1719 L3.9531 3.4062 L6.5781 3.4062 L6.5781 4.2031 Z" stroke="none"/></g><g text-rendering="optimizeLegibility" transform="translate(174.4219,28)" color-rendering="optimizeQuality" color-interpolation="linearRGB" image-rendering="optimizeQuality"><path d="M6.5 -2.2656 Q5.625 -1.0312 4.7891 -0.4453 Q3.9531 0.1406 3.0938 0.1406 Q2.0156 0.1406 1.4219 -0.6641 Q0.8281 -1.4688 0.8281 -2.9375 Q0.8281 -3.875 1.0469 -4.8203 Q1.2656 -5.7656 1.6953 -6.6094 Q2.125 -7.4531 2.7344 -8.0938 Q3.3438 -8.7344 4.1406 -9.1172 Q4.9375 -9.5 5.875 -9.5 Q6.4688 -9.5 7.0156 -9.3594 Q7.5625 -9.2188 8.1562 -8.8594 L9.0469 -9.5 L9.6719 -9.3438 L7.1719 1.7656 Q7.0156 2.5 7.0156 2.875 Q7.0156 3.1719 7.1094 3.3359 Q7.2031 3.5 7.4141 3.5859 Q7.625 3.6719 8.0938 3.7188 L8.0156 4.2031 L4.9688 4.2031 L6.6406 -2.2031 L6.5 -2.2656 ZM7.2969 -5.9531 Q7.3906 -6.375 7.4141 -6.6875 Q7.4375 -7 7.4375 -7.2812 Q7.4375 -8.0312 7.1172 -8.3828 Q6.7969 -8.7344 6.0469 -8.7344 Q5.6406 -8.7344 5.2656 -8.6016 Q4.8906 -8.4688 4.5078 -8.1641 Q4.125 -7.8594 3.7812 -7.3594 Q3.4375 -6.8594 3.1562 -6.1484 Q2.875 -5.4375 2.7188 -4.6172 Q2.5625 -3.7969 2.5625 -3.0312 Q2.5625 -2.0156 2.8359 -1.5078 Q3.1094 -1 3.7656 -1 Q4.0781 -1 4.4062 -1.1406 Q4.7344 -1.2812 5.1328 -1.6484 Q5.5312 -2.0156 6.0312 -2.7188 Q6.5 -3.375 6.7656 -4.0156 Q7.0312 -4.6562 7.2031 -5.5312 L7.2969 -5.9531 Z" stroke="none"/></g><g text-rendering="optimizeLegibility" transform="translate(184.0938,35.5234)" color-rendering="optimizeQuality" color-interpolation="linearRGB" image-rendering="optimizeQuality"><path d="M6.4531 0 L4.2969 0 L5.1562 -3.4688 Q5.25 -3.8125 5.3281 -4.2109 Q5.4062 -4.6094 5.4062 -4.9375 Q5.4062 -5.4219 5.2344 -5.6328 Q5.0625 -5.8438 4.7031 -5.8438 Q4.4219 -5.8438 4.0938 -5.625 Q3.7656 -5.4062 3.3984 -4.9609 Q3.0312 -4.5156 2.7812 -4.0625 Q2.5312 -3.6094 2.4062 -2.9531 L1.7812 0 L0.5938 0 L1.6406 -4.6719 Q1.6719 -4.8281 1.7266 -5.1328 Q1.7812 -5.4375 1.7812 -5.6406 Q1.7812 -5.8438 1.7266 -5.9453 Q1.6719 -6.0469 1.5312 -6.1016 Q1.3906 -6.1562 1.0469 -6.1719 L1.1406 -6.5312 L2.6875 -6.5938 L3.0781 -6.5938 L2.625 -4.8125 L2.7031 -4.7969 Q3.375 -5.7344 3.9922 -6.1875 Q4.6094 -6.6406 5.2344 -6.6406 Q5.9062 -6.6406 6.2422 -6.2734 Q6.5781 -5.9062 6.5781 -5.2031 Q6.5781 -4.9531 6.5391 -4.6641 Q6.5 -4.375 6.4375 -4.1406 L5.8594 -1.7031 Q5.75 -1.2188 5.75 -0.9375 Q5.75 -0.7188 5.8203 -0.6094 Q5.8906 -0.5 6.0312 -0.4375 Q6.1719 -0.375 6.5 -0.3281 L6.4531 0 Z" stroke="none"/></g><g text-rendering="optimizeLegibility" transform="translate(192.25,28.7032) matrix(1,0,0,1.6227,0,0)" color-rendering="optimizeQuality" color-interpolation="linearRGB" image-rendering="optimizeQuality"><path d="M4.7812 4.2031 L0.4219 4.2031 L0.4219 3.4062 L3.0625 3.4062 L3.0625 -13.1719 L0.4219 -13.1719 L0.4219 -13.9688 L4.7812 -13.9688 L4.7812 4.2031 Z" stroke="none"/></g><g text-rendering="optimizeLegibility" transform="translate(199.0312,10.7006)" color-rendering="optimizeQuality" color-interpolation="linearRGB" image-rendering="optimizeQuality"><path d="M4.875 0 L1.9844 0 L2.0625 -0.3281 Q2.3281 -0.375 2.4609 -0.4453 Q2.5938 -0.5156 2.6953 -0.6562 Q2.7969 -0.7969 2.8984 -1.1016 Q3 -1.4062 3.125 -2.0312 L4.5938 -8.7344 L3.7188 -8.7344 Q3.2969 -8.7344 3.0469 -8.6094 Q2.7969 -8.4844 2.5469 -8.1484 Q2.2969 -7.8125 1.9219 -7.0312 L1.2656 -7.0312 L1.7812 -9.3281 L8.9219 -9.3281 L8.3906 -6.9219 L7.7344 -6.9219 Q7.7344 -7.5938 7.6953 -7.9219 Q7.6562 -8.25 7.5625 -8.4219 Q7.4688 -8.5938 7.3281 -8.6641 Q7.1875 -8.7344 6.8438 -8.7344 L5.8281 -8.7344 L4.3438 -1.9844 Q4.2812 -1.7188 4.2578 -1.5625 Q4.2344 -1.4062 4.2188 -1.2344 Q4.2031 -1.0625 4.2031 -0.9219 Q4.2031 -0.7188 4.2656 -0.5938 Q4.3281 -0.4688 4.4688 -0.4141 Q4.6094 -0.3594 4.9375 -0.3281 L4.875 0 Z" stroke="none"/></g><g text-rendering="optimizeLegibility" transform="translate(207.9531,28)" color-rendering="optimizeQuality" color-interpolation="linearRGB" image-rendering="optimizeQuality"><path d="M10.2656 -11.5 L9.3594 -11.5 Q8.9688 -13.25 6.8438 -13.25 Q6.125 -13.25 5.6719 -12.9062 Q5.2188 -12.5625 5.2188 -12.0781 Q5.2188 -11.5625 5.5547 -11.0781 Q5.8906 -10.5938 7.2812 -9.0781 Q8.3906 -7.875 8.7891 -6.9297 Q9.1875 -5.9844 9.1875 -4.8125 Q9.1875 -2.9844 7.8672 -1.4141 Q6.5469 0.1562 4.2812 0.1562 Q2.6406 0.1562 1.7344 -0.875 Q0.8281 -1.9062 0.8281 -3.3594 Q0.8281 -5.4219 2.0469 -6.9531 Q3.2656 -8.4844 5.4219 -9.125 Q4.75 -9.8438 4.3438 -10.4922 Q3.9375 -11.1406 3.9375 -11.8438 Q3.9375 -12.7969 4.7422 -13.4141 Q5.5469 -14.0312 6.8906 -14.0312 Q9.1875 -14.0312 10.5312 -12.9219 L10.2656 -11.5 ZM5.875 -8.5 Q4.3438 -7.9844 3.4453 -6.5391 Q2.5469 -5.0938 2.5469 -3.0938 Q2.5469 -2.0156 3.0625 -1.3047 Q3.5781 -0.5938 4.4688 -0.5938 Q5.7344 -0.5938 6.5781 -1.9141 Q7.4219 -3.2344 7.4219 -4.8438 Q7.4219 -6.7188 5.875 -8.5 Z" stroke="none"/></g><g text-rendering="optimizeLegibility" transform="translate(218.4844,31.4766)" color-rendering="optimizeQuality" color-interpolation="linearRGB" image-rendering="optimizeQuality"><path d="M6.4531 0 L4.2969 0 L5.1562 -3.4688 Q5.25 -3.8125 5.3281 -4.2109 Q5.4062 -4.6094 5.4062 -4.9375 Q5.4062 -5.4219 5.2344 -5.6328 Q5.0625 -5.8438 4.7031 -5.8438 Q4.4219 -5.8438 4.0938 -5.625 Q3.7656 -5.4062 3.3984 -4.9609 Q3.0312 -4.5156 2.7812 -4.0625 Q2.5312 -3.6094 2.4062 -2.9531 L1.7812 0 L0.5938 0 L1.6406 -4.6719 Q1.6719 -4.8281 1.7266 -5.1328 Q1.7812 -5.4375 1.7812 -5.6406 Q1.7812 -5.8438 1.7266 -5.9453 Q1.6719 -6.0469 1.5312 -6.1016 Q1.3906 -6.1562 1.0469 -6.1719 L1.1406 -6.5312 L2.6875 -6.5938 L3.0781 -6.5938 L2.625 -4.8125 L2.7031 -4.7969 Q3.375 -5.7344 3.9922 -6.1875 Q4.6094 -6.6406 5.2344 -6.6406 Q5.9062 -6.6406 6.2422 -6.2734 Q6.5781 -5.9062 6.5781 -5.2031 Q6.5781 -4.9531 6.5391 -4.6641 Q6.5 -4.375 6.4375 -4.1406 L5.8594 -1.7031 Q5.75 -1.2188 5.75 -0.9375 Q5.75 -0.7188 5.8203 -0.6094 Q5.8906 -0.5 6.0312 -0.4375 Q6.1719 -0.375 6.5 -0.3281 L6.4531 0 Z" stroke="none"/></g><g text-rendering="optimizeLegibility" transform="translate(218.4844,18.8594)" color-rendering="optimizeQuality" color-interpolation="linearRGB" image-rendering="optimizeQuality"><path d="M2.5156 -3.8125 L2.7344 -3.8125 Q2.9531 -3.8125 3.1953 -3.8906 Q3.4375 -3.9688 3.7188 -4.1484 Q4 -4.3281 4.4688 -4.7031 Q4.8281 -4.9844 5 -5.1875 Q5.1719 -5.3906 5.2344 -5.5391 Q5.2969 -5.6875 5.2969 -5.8281 Q5.2969 -6.1562 4.8281 -6.2031 L4.9062 -6.5312 L7.1094 -6.5312 L7.25 -6.2031 Q6.6719 -5.6875 6.0469 -5.2031 L4.3125 -3.8438 L5.3438 -1.2656 Q5.4688 -0.9062 5.6172 -0.7188 Q5.7656 -0.5312 5.9531 -0.4453 Q6.1406 -0.3594 6.4375 -0.3281 L6.3594 0 L4.5312 0 L3.5312 -2.8125 Q3.4375 -3.0781 3.3672 -3.1719 Q3.2969 -3.2656 3.2109 -3.3047 Q3.125 -3.3438 2.9219 -3.3438 L2.4219 -3.3438 L1.7031 0 L0.5312 0 L2.2812 -7.8125 Q2.3594 -8.1562 2.3906 -8.3125 Q2.4219 -8.4688 2.4375 -8.5938 Q2.4531 -8.7188 2.4531 -8.8281 Q2.4531 -9.1094 2.2734 -9.2266 Q2.0938 -9.3438 1.6406 -9.3594 L1.7344 -9.7188 L3.4531 -9.7812 L3.8594 -9.7812 L2.5156 -3.8125 Z" stroke="none"/></g><g text-rendering="optimizeLegibility" transform="translate(225.5,28)" color-rendering="optimizeQuality" color-interpolation="linearRGB" image-rendering="optimizeQuality"><path d="M6.5781 4.2031 L2.2344 4.2031 L2.2344 -13.9688 L6.5781 -13.9688 L6.5781 -13.1719 L3.9531 -13.1719 L3.9531 3.4062 L6.5781 3.4062 L6.5781 4.2031 Z" stroke="none"/></g><g text-rendering="optimizeLegibility" transform="translate(234.0781,28)" color-rendering="optimizeQuality" color-interpolation="linearRGB" image-rendering="optimizeQuality"><path d="M4.6562 -7.3125 L4.9688 -7.3125 Q5.375 -7.3125 5.7188 -7.4453 Q6.0625 -7.5781 6.5078 -7.9375 Q6.9531 -8.2969 7.9375 -9.2656 Q8.9219 -10.2344 9.3359 -10.7344 Q9.75 -11.2344 9.9375 -11.6016 Q10.125 -11.9688 10.125 -12.2812 Q10.125 -12.5156 9.9297 -12.6719 Q9.7344 -12.8281 9.375 -12.8594 L9.4844 -13.3281 L13.6719 -13.3281 L13.5625 -12.8594 Q13.1719 -12.7969 12.6797 -12.4453 Q12.1875 -12.0938 11.1719 -11.0938 L7.3906 -7.4062 L9.4688 -2.4062 Q9.7344 -1.7656 9.8906 -1.4688 Q10.0469 -1.1719 10.2344 -0.9688 Q10.4219 -0.7656 10.6562 -0.6484 Q10.8906 -0.5312 11.2188 -0.4844 L11.1094 0 L7.3438 0 L7.4531 -0.4844 Q7.9844 -0.5312 7.9844 -0.9531 Q7.9844 -1.0781 7.9609 -1.2109 Q7.9375 -1.3438 7.8516 -1.6094 Q7.7656 -1.875 7.625 -2.25 L6.3438 -5.3594 Q6.125 -5.9062 5.9609 -6.1328 Q5.7969 -6.3594 5.6094 -6.4453 Q5.4219 -6.5312 5.0312 -6.5312 L4.4844 -6.5312 L3.6719 -2.8438 Q3.5469 -2.25 3.5078 -1.9141 Q3.4688 -1.5781 3.4688 -1.3125 Q3.4688 -0.875 3.6875 -0.6953 Q3.9062 -0.5156 4.4219 -0.4844 L4.3125 0 L0.4062 0 L0.5156 -0.4844 Q0.8906 -0.5312 1.0781 -0.6641 Q1.2656 -0.7969 1.3906 -1.0312 Q1.5156 -1.2656 1.625 -1.6016 Q1.7344 -1.9375 1.9375 -2.9062 L3.6094 -10.4375 Q3.7031 -10.875 3.7578 -11.2891 Q3.8125 -11.7031 3.8125 -12 Q3.8125 -12.4688 3.5781 -12.6484 Q3.3438 -12.8281 2.8594 -12.8594 L2.9688 -13.3281 L6.875 -13.3281 L6.7656 -12.8594 Q6.3906 -12.7812 6.2344 -12.6797 Q6.0781 -12.5781 5.9453 -12.3828 Q5.8125 -12.1875 5.6797 -11.7734 Q5.5469 -11.3594 5.3438 -10.4219 L4.6562 -7.3125 Z" stroke="none"/></g><g text-rendering="optimizeLegibility" transform="translate(237.0391,12.1719)" color-rendering="optimizeQuality" color-interpolation="linearRGB" image-rendering="optimizeQuality"><path d="M5.6406 -4.6094 L3.875 -8.5 L2.1094 -4.6094 L1.0781 -4.6094 L3.3906 -9.4375 L4.375 -9.4375 L6.6719 -4.6094 L5.6406 -4.6094 Z" stroke="none"/></g><g text-rendering="optimizeLegibility" transform="translate(247.75,31.2656)" color-rendering="optimizeQuality" color-interpolation="linearRGB" image-rendering="optimizeQuality"><path d="M2.7969 0.1094 Q1.7344 0.1094 1.1484 -0.4844 Q0.5625 -1.0781 0.5625 -2.1875 Q0.5625 -2.5938 0.6719 -3.1562 Q0.7969 -3.875 1.0469 -4.4219 Q1.3438 -5.1094 1.8281 -5.6172 Q2.3125 -6.125 2.9375 -6.3828 Q3.5625 -6.6406 4.2812 -6.6406 Q5.0625 -6.6406 5.5703 -6.3438 Q6.0781 -6.0469 6.2969 -5.5312 Q6.5156 -5.0156 6.5156 -4.3281 Q6.5156 -3.7188 6.3438 -3.0312 Q6.1094 -2.0312 5.6328 -1.3203 Q5.1562 -0.6094 4.4453 -0.25 Q3.7344 0.1094 2.7969 0.1094 ZM1.7656 -1.8906 Q1.7656 -1.1406 2.0781 -0.7812 Q2.3906 -0.4219 3.0156 -0.4219 Q3.6875 -0.4219 4.2031 -1.0234 Q4.7188 -1.625 5.0234 -2.7109 Q5.3281 -3.7969 5.3281 -4.6094 Q5.3281 -5.3594 5.0391 -5.7266 Q4.75 -6.0938 4.1406 -6.0938 Q3.4375 -6.0938 2.9062 -5.5 Q2.375 -4.9062 2.0703 -3.7969 Q1.7656 -2.6875 1.7656 -1.8906 Z" stroke="none"/></g><g text-rendering="optimizeLegibility" transform="translate(255.8438,28)" color-rendering="optimizeQuality" color-interpolation="linearRGB" image-rendering="optimizeQuality"><path d="M4.7812 4.2031 L0.4219 4.2031 L0.4219 3.4062 L3.0625 3.4062 L3.0625 -13.1719 L0.4219 -13.1719 L0.4219 -13.9688 L4.7812 -13.9688 L4.7812 4.2031 Z" stroke="none"/></g><g text-rendering="optimizeLegibility" transform="translate(262.3906,30.8976) matrix(1,0,0,2.0721,0,0)" color-rendering="optimizeQuality" color-interpolation="linearRGB" image-rendering="optimizeQuality"><path d="M6.5781 4.2031 L2.2344 4.2031 L2.2344 -13.9688 L6.5781 -13.9688 L6.5781 -13.1719 L3.9531 -13.1719 L3.9531 3.4062 L6.5781 3.4062 L6.5781 4.2031 Z" stroke="none"/></g><g text-rendering="optimizeLegibility" transform="translate(270.9688,28)" color-rendering="optimizeQuality" color-interpolation="linearRGB" image-rendering="optimizeQuality"><path d="M6.5 -2.2656 Q5.625 -1.0312 4.7891 -0.4453 Q3.9531 0.1406 3.0938 0.1406 Q2.0156 0.1406 1.4219 -0.6641 Q0.8281 -1.4688 0.8281 -2.9375 Q0.8281 -3.875 1.0469 -4.8203 Q1.2656 -5.7656 1.6953 -6.6094 Q2.125 -7.4531 2.7344 -8.0938 Q3.3438 -8.7344 4.1406 -9.1172 Q4.9375 -9.5 5.875 -9.5 Q6.4688 -9.5 7.0156 -9.3594 Q7.5625 -9.2188 8.1562 -8.8594 L9.0469 -9.5 L9.6719 -9.3438 L7.1719 1.7656 Q7.0156 2.5 7.0156 2.875 Q7.0156 3.1719 7.1094 3.3359 Q7.2031 3.5 7.4141 3.5859 Q7.625 3.6719 8.0938 3.7188 L8.0156 4.2031 L4.9688 4.2031 L6.6406 -2.2031 L6.5 -2.2656 ZM7.2969 -5.9531 Q7.3906 -6.375 7.4141 -6.6875 Q7.4375 -7 7.4375 -7.2812 Q7.4375 -8.0312 7.1172 -8.3828 Q6.7969 -8.7344 6.0469 -8.7344 Q5.6406 -8.7344 5.2656 -8.6016 Q4.8906 -8.4688 4.5078 -8.1641 Q4.125 -7.8594 3.7812 -7.3594 Q3.4375 -6.8594 3.1562 -6.1484 Q2.875 -5.4375 2.7188 -4.6172 Q2.5625 -3.7969 2.5625 -3.0312 Q2.5625 -2.0156 2.8359 -1.5078 Q3.1094 -1 3.7656 -1 Q4.0781 -1 4.4062 -1.1406 Q4.7344 -1.2812 5.1328 -1.6484 Q5.5312 -2.0156 6.0312 -2.7188 Q6.5 -3.375 6.7656 -4.0156 Q7.0312 -4.6562 7.2031 -5.5312 L7.2969 -5.9531 Z" stroke="none"/></g><g text-rendering="optimizeLegibility" transform="translate(280.6406,35.5234)" color-rendering="optimizeQuality" color-interpolation="linearRGB" image-rendering="optimizeQuality"><path d="M6.4531 0 L4.2969 0 L5.1562 -3.4688 Q5.25 -3.8125 5.3281 -4.2109 Q5.4062 -4.6094 5.4062 -4.9375 Q5.4062 -5.4219 5.2344 -5.6328 Q5.0625 -5.8438 4.7031 -5.8438 Q4.4219 -5.8438 4.0938 -5.625 Q3.7656 -5.4062 3.3984 -4.9609 Q3.0312 -4.5156 2.7812 -4.0625 Q2.5312 -3.6094 2.4062 -2.9531 L1.7812 0 L0.5938 0 L1.6406 -4.6719 Q1.6719 -4.8281 1.7266 -5.1328 Q1.7812 -5.4375 1.7812 -5.6406 Q1.7812 -5.8438 1.7266 -5.9453 Q1.6719 -6.0469 1.5312 -6.1016 Q1.3906 -6.1562 1.0469 -6.1719 L1.1406 -6.5312 L2.6875 -6.5938 L3.0781 -6.5938 L2.625 -4.8125 L2.7031 -4.7969 Q3.375 -5.7344 3.9922 -6.1875 Q4.6094 -6.6406 5.2344 -6.6406 Q5.9062 -6.6406 6.2422 -6.2734 Q6.5781 -5.9062 6.5781 -5.2031 Q6.5781 -4.9531 6.5391 -4.6641 Q6.5 -4.375 6.4375 -4.1406 L5.8594 -1.7031 Q5.75 -1.2188 5.75 -0.9375 Q5.75 -0.7188 5.8203 -0.6094 Q5.8906 -0.5 6.0312 -0.4375 Q6.1719 -0.375 6.5 -0.3281 L6.4531 0 Z" stroke="none"/></g><g text-rendering="optimizeLegibility" transform="translate(288.7969,30.8976) matrix(1,0,0,2.0721,0,0)" color-rendering="optimizeQuality" color-interpolation="linearRGB" image-rendering="optimizeQuality"><path d="M4.7812 4.2031 L0.4219 4.2031 L0.4219 3.4062 L3.0625 3.4062 L3.0625 -13.1719 L0.4219 -13.1719 L0.4219 -13.9688 L4.7812 -13.9688 L4.7812 4.2031 Z" stroke="none"/></g></g></svg>