<?xml version="1.0" encoding="UTF-8" standalone="no"?><svg xmlns="http://www.w3.org/2000/svg" xmlns:xlink="http://www.w3.org/1999/xlink" stroke-dasharray="none" shape-rendering="auto" font-family="'Dialog'" width="140.812600" text-rendering="auto" fill-opacity="1" contentScriptType="text/ecmascript" color-interpolation="auto" color-rendering="auto" preserveAspectRatio="xMidYMid meet" font-size="12" fill="black" stroke="black" image-rendering="auto" stroke-miterlimit="10" zoomAndPan="magnify" version="1.0" stroke-linecap="square" stroke-linejoin="miter" contentStyleType="text/css" font-style="normal" height="21" stroke-width="1" stroke-dashoffset="0" font-weight="normal" stroke-opacity="1" y="-5.000000"><!--Converted from MathML using JEuclid--><defs id="genericDefs"/><g><g text-rendering="optimizeLegibility" transform="translate(0,16)" color-rendering="optimizeQuality" color-interpolation="linearRGB" image-rendering="optimizeQuality"><path d="M9.2031 0 L6.1406 0 L7.375 -4.9688 Q7.4844 -5.4375 7.6016 -6.0156 Q7.7188 -6.5938 7.7188 -7.0469 Q7.7188 -7.75 7.4766 -8.0469 Q7.2344 -8.3438 6.7344 -8.3438 Q6.3125 -8.3438 5.8438 -8.0312 Q5.375 -7.7188 4.8594 -7.0859 Q4.3438 -6.4531 3.9844 -5.8047 Q3.625 -5.1562 3.4219 -4.2344 L2.5469 0 L0.8438 0 L2.3281 -6.6719 Q2.3906 -6.8906 2.4688 -7.3359 Q2.5469 -7.7812 2.5469 -8.0625 Q2.5469 -8.3438 2.4688 -8.4922 Q2.3906 -8.6406 2.1875 -8.7188 Q1.9844 -8.7969 1.5 -8.8125 L1.625 -9.3438 L3.8438 -9.4219 L4.3906 -9.4219 L3.7344 -6.8906 L3.8594 -6.8438 Q4.8125 -8.1875 5.7031 -8.8438 Q6.5938 -9.5 7.4844 -9.5 Q8.4219 -9.5 8.9141 -8.9766 Q9.4062 -8.4531 9.4062 -7.4219 Q9.4062 -7.0781 9.3438 -6.6562 Q9.2812 -6.2344 9.2031 -5.9219 L8.375 -2.4375 Q8.2188 -1.7344 8.2188 -1.3281 Q8.2188 -1.0312 8.3125 -0.8672 Q8.4062 -0.7031 8.6094 -0.6172 Q8.8125 -0.5312 9.2812 -0.4844 L9.2031 0 Z" stroke="none"/></g><g text-rendering="optimizeLegibility" transform="translate(-1.52,10.1094) matrix(1.4098,0,0,1,0,0)" color-rendering="optimizeQuality" color-interpolation="linearRGB" image-rendering="optimizeQuality"><path d="M5.6406 -4.6094 L3.875 -8.5 L2.1094 -4.6094 L1.0781 -4.6094 L3.3906 -9.4375 L4.375 -9.4375 L6.6719 -4.6094 L5.6406 -4.6094 Z" stroke="none"/></g><g text-rendering="optimizeLegibility" transform="translate(9.7188,16)" color-rendering="optimizeQuality" color-interpolation="linearRGB" image-rendering="optimizeQuality"><path d="M2.8281 -6.9062 Q3.3281 -6.9062 3.6406 -6.5703 Q3.9531 -6.2344 3.9531 -5.7188 Q3.9531 -5.1875 3.6406 -4.8516 Q3.3281 -4.5156 2.8281 -4.5156 Q2.3281 -4.5156 2.0078 -4.8516 Q1.6875 -5.1875 1.6875 -5.7188 Q1.6875 -6.2344 2.0078 -6.5703 Q2.3281 -6.9062 2.8281 -6.9062 Z" stroke="none"/></g><g text-rendering="optimizeLegibility" transform="translate(15.5,16)" color-rendering="optimizeQuality" color-interpolation="linearRGB" image-rendering="optimizeQuality"><path d="M15.6719 -14.4531 L15.6719 -13.1406 L9.0312 0.125 L8.375 0.125 L2.1719 -13.1406 L2.1719 -14.4531 L15.6719 -14.4531 ZM14.875 -13.0625 L4.0469 -13.0625 L9.2656 -1.9219 L9.2812 -1.9219 L14.875 -13.0625 Z" stroke="none"/></g><g text-rendering="optimizeLegibility" transform="translate(33.25,16)" color-rendering="optimizeQuality" color-interpolation="linearRGB" image-rendering="optimizeQuality"><path d="M2.0938 1.7344 Q2 2.2031 1.9688 2.4531 Q1.9375 2.7031 1.9375 2.875 Q1.9375 3.1719 2.0391 3.3359 Q2.1406 3.5 2.3438 3.5859 Q2.5469 3.6719 3.0156 3.7188 L2.9375 4.2031 L-0.0781 4.2031 L2.3906 -6.6562 Q2.5781 -7.4844 2.5781 -8.0625 Q2.5781 -8.3438 2.4922 -8.4922 Q2.4062 -8.6406 2.2109 -8.7188 Q2.0156 -8.7969 1.5312 -8.8125 L1.6562 -9.3438 L3.875 -9.4219 L4.4219 -9.4219 L3.7656 -6.8906 L3.8906 -6.8438 Q5.6875 -9.5 7.4844 -9.5 Q8.5469 -9.5 9.1406 -8.6875 Q9.7344 -7.875 9.7344 -6.3906 Q9.7344 -5.3438 9.4453 -4.2812 Q9.1562 -3.2188 8.6406 -2.3594 Q8.125 -1.5 7.4922 -0.9453 Q6.8594 -0.3906 6.1641 -0.1172 Q5.4688 0.1562 4.7031 0.1562 Q3.4062 0.1562 2.5469 -0.4062 L2.0938 1.7344 ZM3.2656 -3.4062 Q3.1719 -2.875 3.1406 -2.6016 Q3.1094 -2.3281 3.1094 -2.0781 Q3.1094 -1.3125 3.4375 -0.9609 Q3.7656 -0.6094 4.5781 -0.6094 Q5.0625 -0.6094 5.4844 -0.8047 Q5.9062 -1 6.2812 -1.375 Q6.6562 -1.75 6.9609 -2.2734 Q7.2656 -2.7969 7.5078 -3.5 Q7.75 -4.2031 7.8672 -4.9375 Q7.9844 -5.6719 7.9844 -6.3125 Q7.9844 -7.3438 7.6953 -7.8438 Q7.4062 -8.3438 6.7812 -8.3438 Q6.2969 -8.3438 5.8125 -8.0078 Q5.3281 -7.6719 4.75 -6.9297 Q4.1719 -6.1875 3.8516 -5.4688 Q3.5312 -4.75 3.3438 -3.8125 L3.2656 -3.4062 Z" stroke="none"/></g><g text-rendering="optimizeLegibility" transform="translate(42.9844,9.7656)" color-rendering="optimizeQuality" color-interpolation="linearRGB" image-rendering="optimizeQuality"><path d="M4.5156 -4.9375 Q4.4375 -5.5625 4.1641 -5.8359 Q3.8906 -6.1094 3.2969 -6.1094 Q2.9844 -6.1094 2.7266 -5.9922 Q2.4688 -5.875 2.3125 -5.6484 Q2.1562 -5.4219 2.1562 -5.1094 Q2.1562 -4.8594 2.2578 -4.6484 Q2.3594 -4.4375 2.6016 -4.2109 Q2.8438 -3.9844 3.2812 -3.6875 Q3.9531 -3.25 4.2188 -2.8281 Q4.4844 -2.4062 4.4844 -1.8594 Q4.4844 -1.2188 4.1797 -0.7734 Q3.875 -0.3281 3.3359 -0.1094 Q2.7969 0.1094 2.1406 0.1094 Q1.5312 0.1094 1.0078 0.0234 Q0.4844 -0.0625 0 -0.2031 L0.3125 -1.6875 L0.8438 -1.6875 Q0.8906 -1.0469 1.2031 -0.7422 Q1.5156 -0.4375 2.1094 -0.4375 Q2.7188 -0.4375 3.0625 -0.7422 Q3.4062 -1.0469 3.4062 -1.5312 Q3.4062 -1.8281 3.3047 -2.0625 Q3.2031 -2.2969 2.9844 -2.5078 Q2.7656 -2.7188 2.3594 -3 Q1.9219 -3.2812 1.6562 -3.5469 Q1.3906 -3.8125 1.2422 -4.125 Q1.0938 -4.4375 1.0938 -4.8125 Q1.0938 -5.375 1.375 -5.7891 Q1.6562 -6.2031 2.1719 -6.4219 Q2.6875 -6.6406 3.3906 -6.6406 Q4.5156 -6.6406 5.375 -6.3438 L5.0625 -4.9375 L4.5156 -4.9375 Z" stroke="none"/></g><g text-rendering="optimizeLegibility" transform="translate(48.3594,9.7656)" color-rendering="optimizeQuality" color-interpolation="linearRGB" image-rendering="optimizeQuality"><path d="M5.0312 -4.8906 Q5.0156 -5.4219 4.9453 -5.6484 Q4.875 -5.875 4.7109 -5.9922 Q4.5469 -6.1094 4.25 -6.1094 Q3.5625 -6.1094 3.0156 -5.5625 Q2.4688 -5.0156 2.1172 -4.0078 Q1.7656 -3 1.7656 -2.0625 Q1.7656 -1.7812 1.8125 -1.5234 Q1.8594 -1.2656 1.9922 -1.0859 Q2.125 -0.9062 2.3281 -0.7969 Q2.5312 -0.6875 2.8594 -0.6875 Q3.4844 -0.6875 3.9375 -0.9219 Q4.3906 -1.1562 4.8906 -1.6719 L5.3125 -1.25 Q4.6719 -0.5469 4.0156 -0.2188 Q3.3594 0.1094 2.6094 0.1094 Q1.625 0.1094 1.1094 -0.4766 Q0.5938 -1.0625 0.5938 -2.1875 Q0.5938 -2.9062 0.8672 -3.7812 Q1.1406 -4.6562 1.6641 -5.3203 Q2.1875 -5.9844 2.8984 -6.3125 Q3.6094 -6.6406 4.4062 -6.6406 Q4.9531 -6.6406 5.3594 -6.5781 Q5.7656 -6.5156 6.0781 -6.4375 L5.75 -4.8906 L5.0312 -4.8906 Z" stroke="none"/></g><g text-rendering="optimizeLegibility" transform="translate(55.2188,16)" color-rendering="optimizeQuality" color-interpolation="linearRGB" image-rendering="optimizeQuality"><path d="M1.2188 -7.0625 L1.2188 -8.4219 L9.8594 -8.4219 L9.8594 -7.0625 L1.2188 -7.0625 ZM1.2188 -3.0156 L1.2188 -4.3594 L9.8594 -4.3594 L9.8594 -3.0156 L1.2188 -3.0156 Z" stroke="none"/></g><g text-rendering="optimizeLegibility" transform="translate(67.8438,16)" color-rendering="optimizeQuality" color-interpolation="linearRGB" image-rendering="optimizeQuality"><path d="M1.2344 -5.0469 L1.2344 -6.3906 L9.8281 -6.3906 L9.8281 -5.0469 L1.2344 -5.0469 Z" stroke="none"/></g><g text-rendering="optimizeLegibility" transform="translate(79.6719,16)" color-rendering="optimizeQuality" color-interpolation="linearRGB" image-rendering="optimizeQuality"><path d="M9.2031 0 L6.1406 0 L7.375 -4.9688 Q7.4844 -5.4375 7.6016 -6.0156 Q7.7188 -6.5938 7.7188 -7.0469 Q7.7188 -7.75 7.4766 -8.0469 Q7.2344 -8.3438 6.7344 -8.3438 Q6.3125 -8.3438 5.8438 -8.0312 Q5.375 -7.7188 4.8594 -7.0859 Q4.3438 -6.4531 3.9844 -5.8047 Q3.625 -5.1562 3.4219 -4.2344 L2.5469 0 L0.8438 0 L2.3281 -6.6719 Q2.3906 -6.8906 2.4688 -7.3359 Q2.5469 -7.7812 2.5469 -8.0625 Q2.5469 -8.3438 2.4688 -8.4922 Q2.3906 -8.6406 2.1875 -8.7188 Q1.9844 -8.7969 1.5 -8.8125 L1.625 -9.3438 L3.8438 -9.4219 L4.3906 -9.4219 L3.7344 -6.8906 L3.8594 -6.8438 Q4.8125 -8.1875 5.7031 -8.8438 Q6.5938 -9.5 7.4844 -9.5 Q8.4219 -9.5 8.9141 -8.9766 Q9.4062 -8.4531 9.4062 -7.4219 Q9.4062 -7.0781 9.3438 -6.6562 Q9.2812 -6.2344 9.2031 -5.9219 L8.375 -2.4375 Q8.2188 -1.7344 8.2188 -1.3281 Q8.2188 -1.0312 8.3125 -0.8672 Q8.4062 -0.7031 8.6094 -0.6172 Q8.8125 -0.5312 9.2812 -0.4844 L9.2031 0 Z" stroke="none"/></g><g text-rendering="optimizeLegibility" transform="translate(78.1519,10.1094) matrix(1.4098,0,0,1,0,0)" color-rendering="optimizeQuality" color-interpolation="linearRGB" image-rendering="optimizeQuality"><path d="M5.6406 -4.6094 L3.875 -8.5 L2.1094 -4.6094 L1.0781 -4.6094 L3.3906 -9.4375 L4.375 -9.4375 L6.6719 -4.6094 L5.6406 -4.6094 Z" stroke="none"/></g><g text-rendering="optimizeLegibility" transform="translate(89.3906,16)" color-rendering="optimizeQuality" color-interpolation="linearRGB" image-rendering="optimizeQuality"><path d="M2.8281 -6.9062 Q3.3281 -6.9062 3.6406 -6.5703 Q3.9531 -6.2344 3.9531 -5.7188 Q3.9531 -5.1875 3.6406 -4.8516 Q3.3281 -4.5156 2.8281 -4.5156 Q2.3281 -4.5156 2.0078 -4.8516 Q1.6875 -5.1875 1.6875 -5.7188 Q1.6875 -6.2344 2.0078 -6.5703 Q2.3281 -6.9062 2.8281 -6.9062 Z" stroke="none"/></g><g text-rendering="optimizeLegibility" transform="translate(95.1719,16)" color-rendering="optimizeQuality" color-interpolation="linearRGB" image-rendering="optimizeQuality"><path d="M15.6719 -14.4531 L15.6719 -13.1406 L9.0312 0.125 L8.375 0.125 L2.1719 -13.1406 L2.1719 -14.4531 L15.6719 -14.4531 ZM14.875 -13.0625 L4.0469 -13.0625 L9.2656 -1.9219 L9.2812 -1.9219 L14.875 -13.0625 Z" stroke="none"/></g><g text-rendering="optimizeLegibility" transform="translate(112.9219,16)" color-rendering="optimizeQuality" color-interpolation="linearRGB" image-rendering="optimizeQuality"><path d="M2.0938 1.7344 Q2 2.2031 1.9688 2.4531 Q1.9375 2.7031 1.9375 2.875 Q1.9375 3.1719 2.0391 3.3359 Q2.1406 3.5 2.3438 3.5859 Q2.5469 3.6719 3.0156 3.7188 L2.9375 4.2031 L-0.0781 4.2031 L2.3906 -6.6562 Q2.5781 -7.4844 2.5781 -8.0625 Q2.5781 -8.3438 2.4922 -8.4922 Q2.4062 -8.6406 2.2109 -8.7188 Q2.0156 -8.7969 1.5312 -8.8125 L1.6562 -9.3438 L3.875 -9.4219 L4.4219 -9.4219 L3.7656 -6.8906 L3.8906 -6.8438 Q5.6875 -9.5 7.4844 -9.5 Q8.5469 -9.5 9.1406 -8.6875 Q9.7344 -7.875 9.7344 -6.3906 Q9.7344 -5.3438 9.4453 -4.2812 Q9.1562 -3.2188 8.6406 -2.3594 Q8.125 -1.5 7.4922 -0.9453 Q6.8594 -0.3906 6.1641 -0.1172 Q5.4688 0.1562 4.7031 0.1562 Q3.4062 0.1562 2.5469 -0.4062 L2.0938 1.7344 ZM3.2656 -3.4062 Q3.1719 -2.875 3.1406 -2.6016 Q3.1094 -2.3281 3.1094 -2.0781 Q3.1094 -1.3125 3.4375 -0.9609 Q3.7656 -0.6094 4.5781 -0.6094 Q5.0625 -0.6094 5.4844 -0.8047 Q5.9062 -1 6.2812 -1.375 Q6.6562 -1.75 6.9609 -2.2734 Q7.2656 -2.7969 7.5078 -3.5 Q7.75 -4.2031 7.8672 -4.9375 Q7.9844 -5.6719 7.9844 -6.3125 Q7.9844 -7.3438 7.6953 -7.8438 Q7.4062 -8.3438 6.7812 -8.3438 Q6.2969 -8.3438 5.8125 -8.0078 Q5.3281 -7.6719 4.75 -6.9297 Q4.1719 -6.1875 3.8516 -5.4688 Q3.5312 -4.75 3.3438 -3.8125 L3.2656 -3.4062 Z" stroke="none"/></g><g text-rendering="optimizeLegibility" transform="translate(122.6562,11.0547)" color-rendering="optimizeQuality" color-interpolation="linearRGB" image-rendering="optimizeQuality"><path d="M3.8281 -9.2188 L3.5156 -7.8906 L2.2969 -7.8906 L2.625 -9.2188 L3.8281 -9.2188 ZM2.1406 -1.7031 Q2.0625 -1.3594 2.0469 -1.2031 Q2.0312 -1.0469 2.0312 -0.9375 Q2.0312 -0.7188 2.0938 -0.6094 Q2.1562 -0.5 2.3047 -0.4375 Q2.4531 -0.375 2.7812 -0.3281 L2.7188 0 L0.5938 0 L1.625 -4.6094 Q1.7188 -5 1.75 -5.2344 Q1.7812 -5.4688 1.7812 -5.6406 Q1.7812 -5.8281 1.7266 -5.9375 Q1.6719 -6.0469 1.5312 -6.1016 Q1.3906 -6.1562 1.0625 -6.1719 L1.1406 -6.5312 L2.7969 -6.5938 L3.2031 -6.5938 L2.1406 -1.7031 Z" stroke="none"/></g><g text-rendering="optimizeLegibility" transform="translate(126.4844,11.0547)" color-rendering="optimizeQuality" color-interpolation="linearRGB" image-rendering="optimizeQuality"><path d="M6.4531 0 L4.2969 0 L5.1562 -3.4688 Q5.25 -3.8125 5.3281 -4.2109 Q5.4062 -4.6094 5.4062 -4.9375 Q5.4062 -5.4219 5.2344 -5.6328 Q5.0625 -5.8438 4.7031 -5.8438 Q4.4219 -5.8438 4.0938 -5.625 Q3.7656 -5.4062 3.3984 -4.9609 Q3.0312 -4.5156 2.7812 -4.0625 Q2.5312 -3.6094 2.4062 -2.9531 L1.7812 0 L0.5938 0 L1.6406 -4.6719 Q1.6719 -4.8281 1.7266 -5.1328 Q1.7812 -5.4375 1.7812 -5.6406 Q1.7812 -5.8438 1.7266 -5.9453 Q1.6719 -6.0469 1.5312 -6.1016 Q1.3906 -6.1562 1.0469 -6.1719 L1.1406 -6.5312 L2.6875 -6.5938 L3.0781 -6.5938 L2.625 -4.8125 L2.7031 -4.7969 Q3.375 -5.7344 3.9922 -6.1875 Q4.6094 -6.6406 5.2344 -6.6406 Q5.9062 -6.6406 6.2422 -6.2734 Q6.5781 -5.9062 6.5781 -5.2031 Q6.5781 -4.9531 6.5391 -4.6641 Q6.5 -4.375 6.4375 -4.1406 L5.8594 -1.7031 Q5.75 -1.2188 5.75 -0.9375 Q5.75 -0.7188 5.8203 -0.6094 Q5.8906 -0.5 6.0312 -0.4375 Q6.1719 -0.375 6.5 -0.3281 L6.4531 0 Z" stroke="none"/></g><g text-rendering="optimizeLegibility" transform="translate(133.0625,11.0547)" color-rendering="optimizeQuality" color-interpolation="linearRGB" image-rendering="optimizeQuality"><path d="M5.0312 -4.8906 Q5.0156 -5.4219 4.9453 -5.6484 Q4.875 -5.875 4.7109 -5.9922 Q4.5469 -6.1094 4.25 -6.1094 Q3.5625 -6.1094 3.0156 -5.5625 Q2.4688 -5.0156 2.1172 -4.0078 Q1.7656 -3 1.7656 -2.0625 Q1.7656 -1.7812 1.8125 -1.5234 Q1.8594 -1.2656 1.9922 -1.0859 Q2.125 -0.9062 2.3281 -0.7969 Q2.5312 -0.6875 2.8594 -0.6875 Q3.4844 -0.6875 3.9375 -0.9219 Q4.3906 -1.1562 4.8906 -1.6719 L5.3125 -1.25 Q4.6719 -0.5469 4.0156 -0.2188 Q3.3594 0.1094 2.6094 0.1094 Q1.625 0.1094 1.1094 -0.4766 Q0.5938 -1.0625 0.5938 -2.1875 Q0.5938 -2.9062 0.8672 -3.7812 Q1.1406 -4.6562 1.6641 -5.3203 Q2.1875 -5.9844 2.8984 -6.3125 Q3.6094 -6.6406 4.4062 -6.6406 Q4.9531 -6.6406 5.3594 -6.5781 Q5.7656 -6.5156 6.0781 -6.4375 L5.75 -4.8906 L5.0312 -4.8906 Z" stroke="none"/></g></g></svg>