<?xml version="1.0" encoding="UTF-8" standalone="no"?><svg xmlns="http://www.w3.org/2000/svg" xmlns:xlink="http://www.w3.org/1999/xlink" stroke-dasharray="none" shape-rendering="auto" font-family="'Dialog'" width="409.812600" text-rendering="auto" fill-opacity="1" contentScriptType="text/ecmascript" color-interpolation="auto" color-rendering="auto" preserveAspectRatio="xMidYMid meet" font-size="12" fill="black" stroke="black" image-rendering="auto" stroke-miterlimit="10" zoomAndPan="magnify" version="1.0" stroke-linecap="square" stroke-linejoin="miter" contentStyleType="text/css" font-style="normal" height="42" stroke-width="1" stroke-dashoffset="0" font-weight="normal" stroke-opacity="1" y="-14.000000"><!--Converted from MathML using JEuclid--><defs id="genericDefs"/><g><g text-rendering="optimizeLegibility" transform="translate(0,28)" color-rendering="optimizeQuality" color-interpolation="linearRGB" image-rendering="optimizeQuality"><path d="M9.1094 0 L6.0469 0 L7.2812 -4.9688 Q7.4062 -5.5 7.5156 -6.0547 Q7.625 -6.6094 7.625 -7.0469 Q7.625 -7.75 7.3906 -8.0469 Q7.1562 -8.3438 6.5938 -8.3438 Q6.1875 -8.3438 5.7031 -8.0156 Q5.2188 -7.6875 4.6875 -7.0078 Q4.1562 -6.3281 3.8359 -5.7109 Q3.5156 -5.0938 3.3281 -4.2344 L2.4375 0 L0.75 0 L3.2656 -11.1562 Q3.375 -11.6562 3.4141 -11.875 Q3.4531 -12.0938 3.4766 -12.2812 Q3.5 -12.4688 3.5 -12.6094 Q3.5 -13.0156 3.25 -13.1797 Q3 -13.3438 2.3594 -13.375 L2.4688 -13.875 L4.9375 -13.9688 L5.5156 -13.9688 L3.8281 -7.2031 L3.9531 -7.1562 Q4.8594 -8.375 5.6953 -8.9375 Q6.5312 -9.5 7.3906 -9.5 Q8.3281 -9.5 8.8203 -8.9766 Q9.3125 -8.4531 9.3125 -7.4219 Q9.3125 -6.7969 9.1094 -5.9219 L8.2969 -2.4375 Q8.1875 -2.0156 8.1484 -1.7656 Q8.1094 -1.5156 8.1094 -1.3281 Q8.1094 -1.0312 8.2188 -0.8594 Q8.3281 -0.6875 8.5312 -0.6094 Q8.7344 -0.5312 9.2031 -0.4844 L9.1094 0 Z" stroke="none"/></g><g text-rendering="optimizeLegibility" transform="translate(10.0938,28)" color-rendering="optimizeQuality" color-interpolation="linearRGB" image-rendering="optimizeQuality"><path d="M1.2188 -7.0625 L1.2188 -8.4219 L9.8594 -8.4219 L9.8594 -7.0625 L1.2188 -7.0625 ZM1.2188 -3.0156 L1.2188 -4.3594 L9.8594 -4.3594 L9.8594 -3.0156 L1.2188 -3.0156 Z" stroke="none"/></g><g text-rendering="optimizeLegibility" transform="translate(21.9531,28)" color-rendering="optimizeQuality" color-interpolation="linearRGB" image-rendering="optimizeQuality"><path d="M6.7812 -2.5469 Q6.7812 -1.9844 6.8516 -1.6953 Q6.9219 -1.4062 7.0781 -1.2266 Q7.2344 -1.0469 7.5391 -0.9453 Q7.8438 -0.8438 8.3047 -0.7891 Q8.7656 -0.7344 9.5156 -0.7188 L9.5156 0 L2.2969 0 L2.2969 -0.7188 Q3.375 -0.7656 3.8438 -0.8438 Q4.3125 -0.9219 4.5547 -1.0938 Q4.7969 -1.2656 4.9062 -1.5625 Q5.0156 -1.8594 5.0156 -2.5469 L5.0156 -10.4688 Q5.0156 -10.8594 4.8828 -11.0391 Q4.75 -11.2188 4.4844 -11.2188 Q4.1719 -11.2188 3.5938 -10.8984 Q3.0156 -10.5781 2.1719 -10.0156 L1.7344 -10.7656 L6.3125 -13.4844 L6.8438 -13.4844 Q6.7812 -12.5469 6.7812 -10.8906 L6.7812 -2.5469 Z" stroke="none"/></g><g text-rendering="optimizeLegibility" transform="translate(32.2344,28)" color-rendering="optimizeQuality" color-interpolation="linearRGB" image-rendering="optimizeQuality"><path d="M1.2344 -5.0469 L1.2344 -6.3906 L9.8281 -6.3906 L9.8281 -5.0469 L1.2344 -5.0469 Z" stroke="none"/></g><g text-rendering="optimizeLegibility" transform="translate(44.2969,28)" color-rendering="optimizeQuality" color-interpolation="linearRGB" image-rendering="optimizeQuality"><path d="M7.2188 4.25 Q5.5625 4.25 4.5078 3.75 Q3.4531 3.25 2.8672 2.2344 Q2.2812 1.2188 2.0234 -0.4141 Q1.7656 -2.0469 1.7656 -4.8438 Q1.7656 -7.625 2.0234 -9.2656 Q2.2812 -10.9062 2.8672 -11.9453 Q3.4531 -12.9844 4.5078 -13.5 Q5.5625 -14.0156 7.2188 -14.0156 L7.2188 -13.2188 Q6.5312 -13.2188 6 -13.0938 Q5.4062 -12.9531 4.9844 -12.5625 Q4.5156 -12.1406 4.2344 -11.375 Q3.8906 -10.4688 3.7188 -8.9844 Q3.5469 -7.4062 3.5469 -4.9219 Q3.5469 -2.7188 3.6953 -1.1797 Q3.8438 0.3594 4.1875 1.3281 Q4.4531 2.1562 4.8594 2.6094 Q5.2188 3.0156 5.7188 3.2188 Q6.2969 3.4531 7.2188 3.4531 L7.2188 4.25 Z" stroke="none"/></g><g text-rendering="optimizeLegibility" transform="translate(53.5156,28)" color-rendering="optimizeQuality" color-interpolation="linearRGB" image-rendering="optimizeQuality"><path d="M9.4844 -9.3438 Q9.4688 -7.7812 8.5547 -5.8281 Q7.6406 -3.875 4.125 0.0781 L2.875 0.0781 Q2.8281 -1.3906 2.5469 -4.2969 Q2.2656 -7.2031 2.1406 -7.6719 Q2.0156 -8.1406 1.8203 -8.2891 Q1.625 -8.4375 1.3906 -8.4375 Q1.2812 -8.4375 0.7812 -8.1094 Q0.6719 -8.0312 0.5938 -7.9844 L0.3594 -8.5312 Q1.3594 -9.5 2.4688 -9.5 Q3.0469 -9.5 3.4453 -8.8984 Q3.8438 -8.2969 4.0625 -6.0391 Q4.2812 -3.7812 4.2812 -1.9219 L4.2812 -1.625 Q4.2812 -1.4844 4.2812 -1.3594 Q7.625 -5.125 7.625 -8 L7.625 -8.3438 Q7.625 -8.4844 7.5625 -8.8438 L7.6719 -9.3438 L9.4844 -9.3438 Z" stroke="none"/></g><g text-rendering="optimizeLegibility" transform="translate(63.2812,29.8438)" color-rendering="optimizeQuality" color-interpolation="linearRGB" image-rendering="optimizeQuality"><path d="M6.4688 -6.2031 Q5.1406 -4.7812 3.6875 -3.4062 L4.3281 -1.9062 Q4.5781 -1.3125 4.7266 -1.0234 Q4.875 -0.7344 5 -0.6094 Q5.125 -0.4844 5.25 -0.4297 Q5.375 -0.375 5.6406 -0.3281 L5.5625 0 L3.8594 0 L2.9062 -2.75 Q2.75 -2.6094 2.4766 -2.3516 Q2.2031 -2.0938 1.9531 -1.8047 Q1.7031 -1.5156 1.6016 -1.3359 Q1.5 -1.1562 1.4688 -1.0234 Q1.4375 -0.8906 1.4375 -0.7656 Q1.4375 -0.5781 1.5391 -0.4766 Q1.6406 -0.375 1.875 -0.3281 L1.7969 0 L-0.1562 0 L-0.2812 -0.3281 Q1.2188 -1.9375 2.6719 -3.2969 L2.0156 -4.8125 Q1.8125 -5.2812 1.6953 -5.5234 Q1.5781 -5.7656 1.4609 -5.8984 Q1.3438 -6.0312 1.1953 -6.1094 Q1.0469 -6.1875 0.7812 -6.2031 L0.8594 -6.5312 L2.5625 -6.5312 L3.4688 -3.9531 Q3.7969 -4.2656 4.1016 -4.5938 Q4.4062 -4.9219 4.5312 -5.1172 Q4.6562 -5.3125 4.7031 -5.4609 Q4.75 -5.6094 4.75 -5.7656 Q4.75 -6.1406 4.3125 -6.2031 L4.375 -6.5312 L6.3281 -6.5312 L6.4688 -6.2031 Z" stroke="none"/></g><g text-rendering="optimizeLegibility" transform="translate(71.4688,29.8438)" color-rendering="optimizeQuality" color-interpolation="linearRGB" image-rendering="optimizeQuality"><path d="M1.2656 -5.0469 Q1.2031 -5.5625 1.1406 -5.7656 Q1.0781 -5.9688 0.9375 -6.0781 Q0.7969 -6.1875 0.5 -6.2031 L0.5625 -6.5312 L2.3281 -6.5312 L2.8438 -1.0938 Q5.1562 -4.2656 5.1562 -5.625 Q5.1562 -5.9531 5.0156 -6.0703 Q4.875 -6.1875 4.5469 -6.2031 L4.625 -6.5312 L6.3906 -6.5312 L6.5625 -6.1875 Q6.2031 -5.25 5.6406 -4.2266 Q5.0781 -3.2031 4.2656 -1.9922 Q3.4531 -0.7812 2.4531 0.5156 Q1.6875 1.5312 1.1562 2.0312 Q0.7656 2.4219 0.4219 2.625 Q0.0781 2.8281 -0.2344 2.9141 Q-0.5469 3 -0.9062 3 Q-1.0938 3 -1.3281 2.9609 Q-1.5625 2.9219 -1.7188 2.8594 L-1.4219 1.5938 L-0.8906 1.5938 Q-0.8906 1.8125 -0.7891 1.9531 Q-0.6875 2.0938 -0.4844 2.0938 Q-0.2656 2.0938 -0.1094 2.0469 Q0.0469 2 0.2188 1.8984 Q0.3906 1.7969 0.6406 1.5703 Q0.8906 1.3438 1.2109 0.9766 Q1.5312 0.6094 1.9219 0.0781 L1.2656 -5.0469 Z" stroke="none"/></g><g text-rendering="optimizeLegibility" transform="translate(79.6094,28)" color-rendering="optimizeQuality" color-interpolation="linearRGB" image-rendering="optimizeQuality"><path d="M0.4219 -14.0156 Q2.0781 -14.0156 3.1328 -13.5156 Q4.1875 -13.0156 4.7734 -12 Q5.3594 -10.9844 5.6172 -9.3516 Q5.875 -7.7188 5.875 -4.9219 Q5.875 -2.1562 5.6172 -0.5078 Q5.3594 1.1406 4.7734 2.1797 Q4.1875 3.2188 3.1328 3.7344 Q2.0781 4.25 0.4219 4.25 L0.4219 3.4531 Q1.1094 3.4531 1.625 3.3281 Q2.2344 3.1875 2.6406 2.7969 Q3.1094 2.375 3.4062 1.6094 Q3.75 0.7031 3.9219 -0.7812 Q4.0938 -2.3594 4.0938 -4.8438 Q4.0938 -7.0469 3.9453 -8.5859 Q3.7969 -10.125 3.4531 -11.0938 Q3.1875 -11.9219 2.7812 -12.375 Q2.4062 -12.7812 1.9219 -12.9844 Q1.3438 -13.2188 0.4219 -13.2188 L0.4219 -14.0156 Z" stroke="none"/></g><g text-rendering="optimizeLegibility" transform="translate(87.4844,18.7031)" color-rendering="optimizeQuality" color-interpolation="linearRGB" image-rendering="optimizeQuality"><path d="M4.7969 -1.0938 Q5.1406 -1.0938 5.3438 -1.1328 Q5.5469 -1.1719 5.6719 -1.2734 Q5.7969 -1.375 5.8672 -1.5234 Q5.9375 -1.6719 6.0469 -2 L6.625 -2 L6.5156 0 L0.875 0 L0.875 -0.3281 Q1.1719 -1.0469 1.6719 -1.7969 Q2.1719 -2.5469 3.0938 -3.5625 Q3.8906 -4.4375 4.2344 -4.8906 Q4.6094 -5.3906 4.7969 -5.75 Q4.9844 -6.1094 5.0703 -6.4219 Q5.1562 -6.7344 5.1562 -7.0625 Q5.1562 -7.5781 4.9922 -7.9688 Q4.8281 -8.3594 4.4922 -8.5859 Q4.1562 -8.8125 3.6406 -8.8125 Q2.3594 -8.8125 1.9219 -7.3906 L1.0938 -7.3906 L1.0938 -8.7031 Q1.9219 -9.0938 2.6406 -9.2656 Q3.3594 -9.4375 3.9375 -9.4375 Q5.2031 -9.4375 5.8516 -8.8828 Q6.5 -8.3281 6.5 -7.2656 Q6.5 -6.9062 6.4297 -6.6016 Q6.3594 -6.2969 6.2031 -6 Q6.0469 -5.7031 5.7891 -5.3594 Q5.5312 -5.0156 5.2188 -4.6641 Q4.9062 -4.3125 4.125 -3.5 Q2.8281 -2.125 2.2188 -1.0938 L4.7969 -1.0938 Z" stroke="none"/></g><g text-rendering="optimizeLegibility" stroke-width="1.6667" color-interpolation="linearRGB" color-rendering="optimizeQuality" image-rendering="optimizeQuality"><line y2="20.78" fill="none" x1="95.7872" x2="116.0215" y1="20.78"/><path d="M11.9531 -13.3281 L11.2812 -10.3281 L10.3438 -10.3281 Q10.3125 -11.0312 10.2344 -11.4297 Q10.1562 -11.8281 10.0625 -12.0156 Q9.9688 -12.2031 9.8359 -12.2969 Q9.7031 -12.3906 9.5156 -12.4297 Q9.3281 -12.4688 8.9688 -12.4688 L5.7969 -12.4688 L4.6719 -7.3594 L6.5469 -7.3594 Q6.9688 -7.3594 7.2578 -7.4766 Q7.5469 -7.5938 7.7891 -7.8828 Q8.0312 -8.1719 8.3438 -8.7656 L9.2344 -8.7656 L8.3438 -5.0156 L7.5156 -5.0156 Q7.5156 -5.5469 7.4766 -5.8047 Q7.4375 -6.0625 7.375 -6.1797 Q7.3125 -6.2969 7.2188 -6.3672 Q7.125 -6.4375 6.9688 -6.4688 Q6.8125 -6.5 6.4531 -6.5 L4.5 -6.5 L3.25 -0.8594 L6.1406 -0.8594 Q6.5625 -0.8594 6.8594 -0.9219 Q7.1562 -0.9844 7.3984 -1.1406 Q7.6406 -1.2969 7.8672 -1.5469 Q8.0938 -1.7969 8.3359 -2.1875 Q8.5781 -2.5781 8.9844 -3.375 L9.9375 -3.375 L9.0781 0 L0.4062 0 L0.5156 -0.4844 Q0.8906 -0.5312 1.0781 -0.6641 Q1.2656 -0.7969 1.3906 -1.0312 Q1.5156 -1.2656 1.625 -1.6016 Q1.7344 -1.9375 1.9375 -2.9062 L3.6094 -10.4375 Q3.8125 -11.4062 3.8125 -12 Q3.8125 -12.4688 3.5781 -12.6484 Q3.3438 -12.8281 2.8594 -12.8594 L2.9688 -13.3281 L11.9531 -13.3281 Z" stroke-width="1" transform="translate(95.7872,13.5033)" stroke="none"/></g><g text-rendering="optimizeLegibility" transform="translate(109.459,15.2689)" color-rendering="optimizeQuality" color-interpolation="linearRGB" image-rendering="optimizeQuality"><path d="M1.2656 -5.0469 Q1.2031 -5.5625 1.1406 -5.7656 Q1.0781 -5.9688 0.9375 -6.0781 Q0.7969 -6.1875 0.5 -6.2031 L0.5625 -6.5312 L2.3281 -6.5312 L2.8438 -1.0938 Q5.1562 -4.2656 5.1562 -5.625 Q5.1562 -5.9531 5.0156 -6.0703 Q4.875 -6.1875 4.5469 -6.2031 L4.625 -6.5312 L6.3906 -6.5312 L6.5625 -6.1875 Q6.2031 -5.25 5.6406 -4.2266 Q5.0781 -3.2031 4.2656 -1.9922 Q3.4531 -0.7812 2.4531 0.5156 Q1.6875 1.5312 1.1562 2.0312 Q0.7656 2.4219 0.4219 2.625 Q0.0781 2.8281 -0.2344 2.9141 Q-0.5469 3 -0.9062 3 Q-1.0938 3 -1.3281 2.9609 Q-1.5625 2.9219 -1.7188 2.8594 L-1.4219 1.5938 L-0.8906 1.5938 Q-0.8906 1.8125 -0.7891 1.9531 Q-0.6875 2.0938 -0.4844 2.0938 Q-0.2656 2.0938 -0.1094 2.0469 Q0.0469 2 0.2188 1.8984 Q0.3906 1.7969 0.6406 1.5703 Q0.8906 1.3438 1.2109 0.9766 Q1.5312 0.6094 1.9219 0.0781 L1.2656 -5.0469 Z" stroke="none"/></g><g text-rendering="optimizeLegibility" transform="translate(96.5528,36.6192)" color-rendering="optimizeQuality" color-interpolation="linearRGB" image-rendering="optimizeQuality"><path d="M11.9531 -13.3281 L11.2812 -10.3281 L10.3438 -10.3281 Q10.3125 -11.0312 10.2344 -11.4297 Q10.1562 -11.8281 10.0625 -12.0156 Q9.9688 -12.2031 9.8359 -12.2969 Q9.7031 -12.3906 9.5156 -12.4297 Q9.3281 -12.4688 8.9688 -12.4688 L5.7969 -12.4688 L4.6719 -7.3594 L6.5469 -7.3594 Q6.9688 -7.3594 7.2578 -7.4766 Q7.5469 -7.5938 7.7891 -7.8828 Q8.0312 -8.1719 8.3438 -8.7656 L9.2344 -8.7656 L8.3438 -5.0156 L7.5156 -5.0156 Q7.5156 -5.5469 7.4766 -5.8047 Q7.4375 -6.0625 7.375 -6.1797 Q7.3125 -6.2969 7.2188 -6.3672 Q7.125 -6.4375 6.9688 -6.4688 Q6.8125 -6.5 6.4531 -6.5 L4.5 -6.5 L3.25 -0.8594 L6.1406 -0.8594 Q6.5625 -0.8594 6.8594 -0.9219 Q7.1562 -0.9844 7.3984 -1.1406 Q7.6406 -1.2969 7.8672 -1.5469 Q8.0938 -1.7969 8.3359 -2.1875 Q8.5781 -2.5781 8.9844 -3.375 L9.9375 -3.375 L9.0781 0 L0.4062 0 L0.5156 -0.4844 Q0.8906 -0.5312 1.0781 -0.6641 Q1.2656 -0.7969 1.3906 -1.0312 Q1.5156 -1.2656 1.625 -1.6016 Q1.7344 -1.9375 1.9375 -2.9062 L3.6094 -10.4375 Q3.8125 -11.4062 3.8125 -12 Q3.8125 -12.4688 3.5781 -12.6484 Q3.3438 -12.8281 2.8594 -12.8594 L2.9688 -13.3281 L11.9531 -13.3281 Z" stroke="none"/></g><g text-rendering="optimizeLegibility" transform="translate(108.7872,39.8849)" color-rendering="optimizeQuality" color-interpolation="linearRGB" image-rendering="optimizeQuality"><path d="M6.4688 -6.2031 Q5.1406 -4.7812 3.6875 -3.4062 L4.3281 -1.9062 Q4.5781 -1.3125 4.7266 -1.0234 Q4.875 -0.7344 5 -0.6094 Q5.125 -0.4844 5.25 -0.4297 Q5.375 -0.375 5.6406 -0.3281 L5.5625 0 L3.8594 0 L2.9062 -2.75 Q2.75 -2.6094 2.4766 -2.3516 Q2.2031 -2.0938 1.9531 -1.8047 Q1.7031 -1.5156 1.6016 -1.3359 Q1.5 -1.1562 1.4688 -1.0234 Q1.4375 -0.8906 1.4375 -0.7656 Q1.4375 -0.5781 1.5391 -0.4766 Q1.6406 -0.375 1.875 -0.3281 L1.7969 0 L-0.1562 0 L-0.2812 -0.3281 Q1.2188 -1.9375 2.6719 -3.2969 L2.0156 -4.8125 Q1.8125 -5.2812 1.6953 -5.5234 Q1.5781 -5.7656 1.4609 -5.8984 Q1.3438 -6.0312 1.1953 -6.1094 Q1.0469 -6.1875 0.7812 -6.2031 L0.8594 -6.5312 L2.5625 -6.5312 L3.4688 -3.9531 Q3.7969 -4.2656 4.1016 -4.5938 Q4.4062 -4.9219 4.5312 -5.1172 Q4.6562 -5.3125 4.7031 -5.4609 Q4.75 -5.6094 4.75 -5.7656 Q4.75 -6.1406 4.3125 -6.2031 L4.375 -6.5312 L6.3281 -6.5312 L6.4688 -6.2031 Z" stroke="none"/></g><g text-rendering="optimizeLegibility" transform="translate(120.1316,28)" color-rendering="optimizeQuality" color-interpolation="linearRGB" image-rendering="optimizeQuality"><path d="M1.2344 -5.0469 L1.2344 -6.3906 L9.8281 -6.3906 L9.8281 -5.0469 L1.2344 -5.0469 Z" stroke="none"/></g><g text-rendering="optimizeLegibility" transform="translate(132.1941,28)" color-rendering="optimizeQuality" color-interpolation="linearRGB" image-rendering="optimizeQuality"><path d="M7.2188 4.25 Q5.5625 4.25 4.5078 3.75 Q3.4531 3.25 2.8672 2.2344 Q2.2812 1.2188 2.0234 -0.4141 Q1.7656 -2.0469 1.7656 -4.8438 Q1.7656 -7.625 2.0234 -9.2656 Q2.2812 -10.9062 2.8672 -11.9453 Q3.4531 -12.9844 4.5078 -13.5 Q5.5625 -14.0156 7.2188 -14.0156 L7.2188 -13.2188 Q6.5312 -13.2188 6 -13.0938 Q5.4062 -12.9531 4.9844 -12.5625 Q4.5156 -12.1406 4.2344 -11.375 Q3.8906 -10.4688 3.7188 -8.9844 Q3.5469 -7.4062 3.5469 -4.9219 Q3.5469 -2.7188 3.6953 -1.1797 Q3.8438 0.3594 4.1875 1.3281 Q4.4531 2.1562 4.8594 2.6094 Q5.2188 3.0156 5.7188 3.2188 Q6.2969 3.4531 7.2188 3.4531 L7.2188 4.25 Z" stroke="none"/></g><g text-rendering="optimizeLegibility" transform="translate(141.4128,28)" color-rendering="optimizeQuality" color-interpolation="linearRGB" image-rendering="optimizeQuality"><path d="M9.4844 -9.3438 Q9.4688 -7.7812 8.5547 -5.8281 Q7.6406 -3.875 4.125 0.0781 L2.875 0.0781 Q2.8281 -1.3906 2.5469 -4.2969 Q2.2656 -7.2031 2.1406 -7.6719 Q2.0156 -8.1406 1.8203 -8.2891 Q1.625 -8.4375 1.3906 -8.4375 Q1.2812 -8.4375 0.7812 -8.1094 Q0.6719 -8.0312 0.5938 -7.9844 L0.3594 -8.5312 Q1.3594 -9.5 2.4688 -9.5 Q3.0469 -9.5 3.4453 -8.8984 Q3.8438 -8.2969 4.0625 -6.0391 Q4.2812 -3.7812 4.2812 -1.9219 L4.2812 -1.625 Q4.2812 -1.4844 4.2812 -1.3594 Q7.625 -5.125 7.625 -8 L7.625 -8.3438 Q7.625 -8.4844 7.5625 -8.8438 L7.6719 -9.3438 L9.4844 -9.3438 Z" stroke="none"/></g><g text-rendering="optimizeLegibility" transform="translate(152.616,29.8438)" color-rendering="optimizeQuality" color-interpolation="linearRGB" image-rendering="optimizeQuality"><path d="M1.2656 -5.0469 Q1.2031 -5.5625 1.1406 -5.7656 Q1.0781 -5.9688 0.9375 -6.0781 Q0.7969 -6.1875 0.5 -6.2031 L0.5625 -6.5312 L2.3281 -6.5312 L2.8438 -1.0938 Q5.1562 -4.2656 5.1562 -5.625 Q5.1562 -5.9531 5.0156 -6.0703 Q4.875 -6.1875 4.5469 -6.2031 L4.625 -6.5312 L6.3906 -6.5312 L6.5625 -6.1875 Q6.2031 -5.25 5.6406 -4.2266 Q5.0781 -3.2031 4.2656 -1.9922 Q3.4531 -0.7812 2.4531 0.5156 Q1.6875 1.5312 1.1562 2.0312 Q0.7656 2.4219 0.4219 2.625 Q0.0781 2.8281 -0.2344 2.9141 Q-0.5469 3 -0.9062 3 Q-1.0938 3 -1.3281 2.9609 Q-1.5625 2.9219 -1.7188 2.8594 L-1.4219 1.5938 L-0.8906 1.5938 Q-0.8906 1.8125 -0.7891 1.9531 Q-0.6875 2.0938 -0.4844 2.0938 Q-0.2656 2.0938 -0.1094 2.0469 Q0.0469 2 0.2188 1.8984 Q0.3906 1.7969 0.6406 1.5703 Q0.8906 1.3438 1.2109 0.9766 Q1.5312 0.6094 1.9219 0.0781 L1.2656 -5.0469 Z" stroke="none"/></g><g text-rendering="optimizeLegibility" transform="translate(159.2253,29.8438)" color-rendering="optimizeQuality" color-interpolation="linearRGB" image-rendering="optimizeQuality"><path d="M5.4531 -1.9219 L5.0312 0 L0.0781 0 L-0.0469 -0.3281 L3.6875 -4.6406 Q4.4844 -5.5469 4.8594 -5.9375 L4.8125 -5.9844 L3.2188 -5.9844 Q2.8594 -5.9844 2.6953 -5.9375 Q2.5312 -5.8906 2.3672 -5.7656 Q2.2031 -5.6406 2.0156 -5.4062 Q1.8281 -5.1719 1.5938 -4.7344 L0.9844 -4.7344 L1.3906 -6.5312 L6.25 -6.5312 L6.375 -6.1875 L1.4688 -0.6094 L1.5156 -0.5469 L3.0625 -0.5469 Q3.4688 -0.5469 3.6875 -0.5938 Q3.9062 -0.6406 4.0703 -0.7656 Q4.2344 -0.8906 4.4062 -1.1406 Q4.5781 -1.3906 4.8438 -1.9219 L5.4531 -1.9219 Z" stroke="none"/></g><g text-rendering="optimizeLegibility" transform="translate(167.1785,28)" color-rendering="optimizeQuality" color-interpolation="linearRGB" image-rendering="optimizeQuality"><path d="M0.4219 -14.0156 Q2.0781 -14.0156 3.1328 -13.5156 Q4.1875 -13.0156 4.7734 -12 Q5.3594 -10.9844 5.6172 -9.3516 Q5.875 -7.7188 5.875 -4.9219 Q5.875 -2.1562 5.6172 -0.5078 Q5.3594 1.1406 4.7734 2.1797 Q4.1875 3.2188 3.1328 3.7344 Q2.0781 4.25 0.4219 4.25 L0.4219 3.4531 Q1.1094 3.4531 1.625 3.3281 Q2.2344 3.1875 2.6406 2.7969 Q3.1094 2.375 3.4062 1.6094 Q3.75 0.7031 3.9219 -0.7812 Q4.0938 -2.3594 4.0938 -4.8438 Q4.0938 -7.0469 3.9453 -8.5859 Q3.7969 -10.125 3.4531 -11.0938 Q3.1875 -11.9219 2.7812 -12.375 Q2.4062 -12.7812 1.9219 -12.9844 Q1.3438 -13.2188 0.4219 -13.2188 L0.4219 -14.0156 Z" stroke="none"/></g><g text-rendering="optimizeLegibility" transform="translate(175.0535,18.7031)" color-rendering="optimizeQuality" color-interpolation="linearRGB" image-rendering="optimizeQuality"><path d="M4.7969 -1.0938 Q5.1406 -1.0938 5.3438 -1.1328 Q5.5469 -1.1719 5.6719 -1.2734 Q5.7969 -1.375 5.8672 -1.5234 Q5.9375 -1.6719 6.0469 -2 L6.625 -2 L6.5156 0 L0.875 0 L0.875 -0.3281 Q1.1719 -1.0469 1.6719 -1.7969 Q2.1719 -2.5469 3.0938 -3.5625 Q3.8906 -4.4375 4.2344 -4.8906 Q4.6094 -5.3906 4.7969 -5.75 Q4.9844 -6.1094 5.0703 -6.4219 Q5.1562 -6.7344 5.1562 -7.0625 Q5.1562 -7.5781 4.9922 -7.9688 Q4.8281 -8.3594 4.4922 -8.5859 Q4.1562 -8.8125 3.6406 -8.8125 Q2.3594 -8.8125 1.9219 -7.3906 L1.0938 -7.3906 L1.0938 -8.7031 Q1.9219 -9.0938 2.6406 -9.2656 Q3.3594 -9.4375 3.9375 -9.4375 Q5.2031 -9.4375 5.8516 -8.8828 Q6.5 -8.3281 6.5 -7.2656 Q6.5 -6.9062 6.4297 -6.6016 Q6.3594 -6.2969 6.2031 -6 Q6.0469 -5.7031 5.7891 -5.3594 Q5.5312 -5.0156 5.2188 -4.6641 Q4.9062 -4.3125 4.125 -3.5 Q2.8281 -2.125 2.2188 -1.0938 L4.7969 -1.0938 Z" stroke="none"/></g><g text-rendering="optimizeLegibility" stroke-width="1.6667" color-interpolation="linearRGB" color-rendering="optimizeQuality" image-rendering="optimizeQuality"><line y2="20.78" fill="none" x1="183.3562" x2="203.5906" y1="20.78"/><path d="M11.9531 -13.3281 L11.2812 -10.3281 L10.3438 -10.3281 Q10.3125 -11.0312 10.2344 -11.4297 Q10.1562 -11.8281 10.0625 -12.0156 Q9.9688 -12.2031 9.8359 -12.2969 Q9.7031 -12.3906 9.5156 -12.4297 Q9.3281 -12.4688 8.9688 -12.4688 L5.7969 -12.4688 L4.6719 -7.3594 L6.5469 -7.3594 Q6.9688 -7.3594 7.2578 -7.4766 Q7.5469 -7.5938 7.7891 -7.8828 Q8.0312 -8.1719 8.3438 -8.7656 L9.2344 -8.7656 L8.3438 -5.0156 L7.5156 -5.0156 Q7.5156 -5.5469 7.4766 -5.8047 Q7.4375 -6.0625 7.375 -6.1797 Q7.3125 -6.2969 7.2188 -6.3672 Q7.125 -6.4375 6.9688 -6.4688 Q6.8125 -6.5 6.4531 -6.5 L4.5 -6.5 L3.25 -0.8594 L6.1406 -0.8594 Q6.5625 -0.8594 6.8594 -0.9219 Q7.1562 -0.9844 7.3984 -1.1406 Q7.6406 -1.2969 7.8672 -1.5469 Q8.0938 -1.7969 8.3359 -2.1875 Q8.5781 -2.5781 8.9844 -3.375 L9.9375 -3.375 L9.0781 0 L0.4062 0 L0.5156 -0.4844 Q0.8906 -0.5312 1.0781 -0.6641 Q1.2656 -0.7969 1.3906 -1.0312 Q1.5156 -1.2656 1.625 -1.6016 Q1.7344 -1.9375 1.9375 -2.9062 L3.6094 -10.4375 Q3.8125 -11.4062 3.8125 -12 Q3.8125 -12.4688 3.5781 -12.6484 Q3.3438 -12.8281 2.8594 -12.8594 L2.9688 -13.3281 L11.9531 -13.3281 Z" stroke-width="1" transform="translate(184.2859,15.0033)" stroke="none"/></g><g text-rendering="optimizeLegibility" transform="translate(196.2859,18.2689)" color-rendering="optimizeQuality" color-interpolation="linearRGB" image-rendering="optimizeQuality"><path d="M5.4531 -1.9219 L5.0312 0 L0.0781 0 L-0.0469 -0.3281 L3.6875 -4.6406 Q4.4844 -5.5469 4.8594 -5.9375 L4.8125 -5.9844 L3.2188 -5.9844 Q2.8594 -5.9844 2.6953 -5.9375 Q2.5312 -5.8906 2.3672 -5.7656 Q2.2031 -5.6406 2.0156 -5.4062 Q1.8281 -5.1719 1.5938 -4.7344 L0.9844 -4.7344 L1.3906 -6.5312 L6.25 -6.5312 L6.375 -6.1875 L1.4688 -0.6094 L1.5156 -0.5469 L3.0625 -0.5469 Q3.4688 -0.5469 3.6875 -0.5938 Q3.9062 -0.6406 4.0703 -0.7656 Q4.2344 -0.8906 4.4062 -1.1406 Q4.5781 -1.3906 4.8438 -1.9219 L5.4531 -1.9219 Z" stroke="none"/></g><g text-rendering="optimizeLegibility" transform="translate(183.3562,36.6192)" color-rendering="optimizeQuality" color-interpolation="linearRGB" image-rendering="optimizeQuality"><path d="M11.9531 -13.3281 L11.2812 -10.3281 L10.3438 -10.3281 Q10.3125 -11.0312 10.2344 -11.4297 Q10.1562 -11.8281 10.0625 -12.0156 Q9.9688 -12.2031 9.8359 -12.2969 Q9.7031 -12.3906 9.5156 -12.4297 Q9.3281 -12.4688 8.9688 -12.4688 L5.7969 -12.4688 L4.6719 -7.3594 L6.5469 -7.3594 Q6.9688 -7.3594 7.2578 -7.4766 Q7.5469 -7.5938 7.7891 -7.8828 Q8.0312 -8.1719 8.3438 -8.7656 L9.2344 -8.7656 L8.3438 -5.0156 L7.5156 -5.0156 Q7.5156 -5.5469 7.4766 -5.8047 Q7.4375 -6.0625 7.375 -6.1797 Q7.3125 -6.2969 7.2188 -6.3672 Q7.125 -6.4375 6.9688 -6.4688 Q6.8125 -6.5 6.4531 -6.5 L4.5 -6.5 L3.25 -0.8594 L6.1406 -0.8594 Q6.5625 -0.8594 6.8594 -0.9219 Q7.1562 -0.9844 7.3984 -1.1406 Q7.6406 -1.2969 7.8672 -1.5469 Q8.0938 -1.7969 8.3359 -2.1875 Q8.5781 -2.5781 8.9844 -3.375 L9.9375 -3.375 L9.0781 0 L0.4062 0 L0.5156 -0.4844 Q0.8906 -0.5312 1.0781 -0.6641 Q1.2656 -0.7969 1.3906 -1.0312 Q1.5156 -1.2656 1.625 -1.6016 Q1.7344 -1.9375 1.9375 -2.9062 L3.6094 -10.4375 Q3.8125 -11.4062 3.8125 -12 Q3.8125 -12.4688 3.5781 -12.6484 Q3.3438 -12.8281 2.8594 -12.8594 L2.9688 -13.3281 L11.9531 -13.3281 Z" stroke="none"/></g><g text-rendering="optimizeLegibility" transform="translate(197.0281,38.3849)" color-rendering="optimizeQuality" color-interpolation="linearRGB" image-rendering="optimizeQuality"><path d="M1.2656 -5.0469 Q1.2031 -5.5625 1.1406 -5.7656 Q1.0781 -5.9688 0.9375 -6.0781 Q0.7969 -6.1875 0.5 -6.2031 L0.5625 -6.5312 L2.3281 -6.5312 L2.8438 -1.0938 Q5.1562 -4.2656 5.1562 -5.625 Q5.1562 -5.9531 5.0156 -6.0703 Q4.875 -6.1875 4.5469 -6.2031 L4.625 -6.5312 L6.3906 -6.5312 L6.5625 -6.1875 Q6.2031 -5.25 5.6406 -4.2266 Q5.0781 -3.2031 4.2656 -1.9922 Q3.4531 -0.7812 2.4531 0.5156 Q1.6875 1.5312 1.1562 2.0312 Q0.7656 2.4219 0.4219 2.625 Q0.0781 2.8281 -0.2344 2.9141 Q-0.5469 3 -0.9062 3 Q-1.0938 3 -1.3281 2.9609 Q-1.5625 2.9219 -1.7188 2.8594 L-1.4219 1.5938 L-0.8906 1.5938 Q-0.8906 1.8125 -0.7891 1.9531 Q-0.6875 2.0938 -0.4844 2.0938 Q-0.2656 2.0938 -0.1094 2.0469 Q0.0469 2 0.2188 1.8984 Q0.3906 1.7969 0.6406 1.5703 Q0.8906 1.3438 1.2109 0.9766 Q1.5312 0.6094 1.9219 0.0781 L1.2656 -5.0469 Z" stroke="none"/></g><g text-rendering="optimizeLegibility" transform="translate(207.7007,28)" color-rendering="optimizeQuality" color-interpolation="linearRGB" image-rendering="optimizeQuality"><path d="M1.2344 -5.0469 L1.2344 -6.3906 L9.8281 -6.3906 L9.8281 -5.0469 L1.2344 -5.0469 Z" stroke="none"/></g><g text-rendering="optimizeLegibility" transform="translate(219.7632,28)" color-rendering="optimizeQuality" color-interpolation="linearRGB" image-rendering="optimizeQuality"><path d="M7.2188 4.25 Q5.5625 4.25 4.5078 3.75 Q3.4531 3.25 2.8672 2.2344 Q2.2812 1.2188 2.0234 -0.4141 Q1.7656 -2.0469 1.7656 -4.8438 Q1.7656 -7.625 2.0234 -9.2656 Q2.2812 -10.9062 2.8672 -11.9453 Q3.4531 -12.9844 4.5078 -13.5 Q5.5625 -14.0156 7.2188 -14.0156 L7.2188 -13.2188 Q6.5312 -13.2188 6 -13.0938 Q5.4062 -12.9531 4.9844 -12.5625 Q4.5156 -12.1406 4.2344 -11.375 Q3.8906 -10.4688 3.7188 -8.9844 Q3.5469 -7.4062 3.5469 -4.9219 Q3.5469 -2.7188 3.6953 -1.1797 Q3.8438 0.3594 4.1875 1.3281 Q4.4531 2.1562 4.8594 2.6094 Q5.2188 3.0156 5.7188 3.2188 Q6.2969 3.4531 7.2188 3.4531 L7.2188 4.25 Z" stroke="none"/></g><g text-rendering="optimizeLegibility" transform="translate(228.9819,28)" color-rendering="optimizeQuality" color-interpolation="linearRGB" image-rendering="optimizeQuality"><path d="M9.4844 -9.3438 Q9.4688 -7.7812 8.5547 -5.8281 Q7.6406 -3.875 4.125 0.0781 L2.875 0.0781 Q2.8281 -1.3906 2.5469 -4.2969 Q2.2656 -7.2031 2.1406 -7.6719 Q2.0156 -8.1406 1.8203 -8.2891 Q1.625 -8.4375 1.3906 -8.4375 Q1.2812 -8.4375 0.7812 -8.1094 Q0.6719 -8.0312 0.5938 -7.9844 L0.3594 -8.5312 Q1.3594 -9.5 2.4688 -9.5 Q3.0469 -9.5 3.4453 -8.8984 Q3.8438 -8.2969 4.0625 -6.0391 Q4.2812 -3.7812 4.2812 -1.9219 L4.2812 -1.625 Q4.2812 -1.4844 4.2812 -1.3594 Q7.625 -5.125 7.625 -8 L7.625 -8.3438 Q7.625 -8.4844 7.5625 -8.8438 L7.6719 -9.3438 L9.4844 -9.3438 Z" stroke="none"/></g><g text-rendering="optimizeLegibility" transform="translate(238.7476,31.3438)" color-rendering="optimizeQuality" color-interpolation="linearRGB" image-rendering="optimizeQuality"><path d="M6.4688 -6.2031 Q5.1406 -4.7812 3.6875 -3.4062 L4.3281 -1.9062 Q4.5781 -1.3125 4.7266 -1.0234 Q4.875 -0.7344 5 -0.6094 Q5.125 -0.4844 5.25 -0.4297 Q5.375 -0.375 5.6406 -0.3281 L5.5625 0 L3.8594 0 L2.9062 -2.75 Q2.75 -2.6094 2.4766 -2.3516 Q2.2031 -2.0938 1.9531 -1.8047 Q1.7031 -1.5156 1.6016 -1.3359 Q1.5 -1.1562 1.4688 -1.0234 Q1.4375 -0.8906 1.4375 -0.7656 Q1.4375 -0.5781 1.5391 -0.4766 Q1.6406 -0.375 1.875 -0.3281 L1.7969 0 L-0.1562 0 L-0.2812 -0.3281 Q1.2188 -1.9375 2.6719 -3.2969 L2.0156 -4.8125 Q1.8125 -5.2812 1.6953 -5.5234 Q1.5781 -5.7656 1.4609 -5.8984 Q1.3438 -6.0312 1.1953 -6.1094 Q1.0469 -6.1875 0.7812 -6.2031 L0.8594 -6.5312 L2.5625 -6.5312 L3.4688 -3.9531 Q3.7969 -4.2656 4.1016 -4.5938 Q4.4062 -4.9219 4.5312 -5.1172 Q4.6562 -5.3125 4.7031 -5.4609 Q4.75 -5.6094 4.75 -5.7656 Q4.75 -6.1406 4.3125 -6.2031 L4.375 -6.5312 L6.3281 -6.5312 L6.4688 -6.2031 Z" stroke="none"/></g><g text-rendering="optimizeLegibility" transform="translate(245.2632,31.3438)" color-rendering="optimizeQuality" color-interpolation="linearRGB" image-rendering="optimizeQuality"><path d="M5.4531 -1.9219 L5.0312 0 L0.0781 0 L-0.0469 -0.3281 L3.6875 -4.6406 Q4.4844 -5.5469 4.8594 -5.9375 L4.8125 -5.9844 L3.2188 -5.9844 Q2.8594 -5.9844 2.6953 -5.9375 Q2.5312 -5.8906 2.3672 -5.7656 Q2.2031 -5.6406 2.0156 -5.4062 Q1.8281 -5.1719 1.5938 -4.7344 L0.9844 -4.7344 L1.3906 -6.5312 L6.25 -6.5312 L6.375 -6.1875 L1.4688 -0.6094 L1.5156 -0.5469 L3.0625 -0.5469 Q3.4688 -0.5469 3.6875 -0.5938 Q3.9062 -0.6406 4.0703 -0.7656 Q4.2344 -0.8906 4.4062 -1.1406 Q4.5781 -1.3906 4.8438 -1.9219 L5.4531 -1.9219 Z" stroke="none"/></g><g text-rendering="optimizeLegibility" transform="translate(253.2163,28)" color-rendering="optimizeQuality" color-interpolation="linearRGB" image-rendering="optimizeQuality"><path d="M0.4219 -14.0156 Q2.0781 -14.0156 3.1328 -13.5156 Q4.1875 -13.0156 4.7734 -12 Q5.3594 -10.9844 5.6172 -9.3516 Q5.875 -7.7188 5.875 -4.9219 Q5.875 -2.1562 5.6172 -0.5078 Q5.3594 1.1406 4.7734 2.1797 Q4.1875 3.2188 3.1328 3.7344 Q2.0781 4.25 0.4219 4.25 L0.4219 3.4531 Q1.1094 3.4531 1.625 3.3281 Q2.2344 3.1875 2.6406 2.7969 Q3.1094 2.375 3.4062 1.6094 Q3.75 0.7031 3.9219 -0.7812 Q4.0938 -2.3594 4.0938 -4.8438 Q4.0938 -7.0469 3.9453 -8.5859 Q3.7969 -10.125 3.4531 -11.0938 Q3.1875 -11.9219 2.7812 -12.375 Q2.4062 -12.7812 1.9219 -12.9844 Q1.3438 -13.2188 0.4219 -13.2188 L0.4219 -14.0156 Z" stroke="none"/></g><g text-rendering="optimizeLegibility" transform="translate(261.0913,18.7031)" color-rendering="optimizeQuality" color-interpolation="linearRGB" image-rendering="optimizeQuality"><path d="M4.7969 -1.0938 Q5.1406 -1.0938 5.3438 -1.1328 Q5.5469 -1.1719 5.6719 -1.2734 Q5.7969 -1.375 5.8672 -1.5234 Q5.9375 -1.6719 6.0469 -2 L6.625 -2 L6.5156 0 L0.875 0 L0.875 -0.3281 Q1.1719 -1.0469 1.6719 -1.7969 Q2.1719 -2.5469 3.0938 -3.5625 Q3.8906 -4.4375 4.2344 -4.8906 Q4.6094 -5.3906 4.7969 -5.75 Q4.9844 -6.1094 5.0703 -6.4219 Q5.1562 -6.7344 5.1562 -7.0625 Q5.1562 -7.5781 4.9922 -7.9688 Q4.8281 -8.3594 4.4922 -8.5859 Q4.1562 -8.8125 3.6406 -8.8125 Q2.3594 -8.8125 1.9219 -7.3906 L1.0938 -7.3906 L1.0938 -8.7031 Q1.9219 -9.0938 2.6406 -9.2656 Q3.3594 -9.4375 3.9375 -9.4375 Q5.2031 -9.4375 5.8516 -8.8828 Q6.5 -8.3281 6.5 -7.2656 Q6.5 -6.9062 6.4297 -6.6016 Q6.3594 -6.2969 6.2031 -6 Q6.0469 -5.7031 5.7891 -5.3594 Q5.5312 -5.0156 5.2188 -4.6641 Q4.9062 -4.3125 4.125 -3.5 Q2.8281 -2.125 2.2188 -1.0938 L4.7969 -1.0938 Z" stroke="none"/></g><g text-rendering="optimizeLegibility" stroke-width="1.6667" color-interpolation="linearRGB" color-rendering="optimizeQuality" image-rendering="optimizeQuality"><line y2="20.78" fill="none" x1="269.3941" x2="288.0972" y1="20.78"/><path d="M11.9531 -13.3281 L11.2812 -10.3281 L10.3438 -10.3281 Q10.3125 -11.0312 10.2344 -11.4297 Q10.1562 -11.8281 10.0625 -12.0156 Q9.9688 -12.2031 9.8359 -12.2969 Q9.7031 -12.3906 9.5156 -12.4297 Q9.3281 -12.4688 8.9688 -12.4688 L5.7969 -12.4688 L4.6719 -7.3594 L6.5469 -7.3594 Q6.9688 -7.3594 7.2578 -7.4766 Q7.5469 -7.5938 7.7891 -7.8828 Q8.0312 -8.1719 8.3438 -8.7656 L9.2344 -8.7656 L8.3438 -5.0156 L7.5156 -5.0156 Q7.5156 -5.5469 7.4766 -5.8047 Q7.4375 -6.0625 7.375 -6.1797 Q7.3125 -6.2969 7.2188 -6.3672 Q7.125 -6.4375 6.9688 -6.4688 Q6.8125 -6.5 6.4531 -6.5 L4.5 -6.5 L3.25 -0.8594 L6.1406 -0.8594 Q6.5625 -0.8594 6.8594 -0.9219 Q7.1562 -0.9844 7.3984 -1.1406 Q7.6406 -1.2969 7.8672 -1.5469 Q8.0938 -1.7969 8.3359 -2.1875 Q8.5781 -2.5781 8.9844 -3.375 L9.9375 -3.375 L9.0781 0 L0.4062 0 L0.5156 -0.4844 Q0.8906 -0.5312 1.0781 -0.6641 Q1.2656 -0.7969 1.3906 -1.0312 Q1.5156 -1.2656 1.625 -1.6016 Q1.7344 -1.9375 1.9375 -2.9062 L3.6094 -10.4375 Q3.8125 -11.4062 3.8125 -12 Q3.8125 -12.4688 3.5781 -12.6484 Q3.3438 -12.8281 2.8594 -12.8594 L2.9688 -13.3281 L11.9531 -13.3281 Z" stroke-width="1" transform="translate(269.5581,15.0033)" stroke="none"/></g><g text-rendering="optimizeLegibility" transform="translate(281.5581,18.2689)" color-rendering="optimizeQuality" color-interpolation="linearRGB" image-rendering="optimizeQuality"><path d="M5.4531 -1.9219 L5.0312 0 L0.0781 0 L-0.0469 -0.3281 L3.6875 -4.6406 Q4.4844 -5.5469 4.8594 -5.9375 L4.8125 -5.9844 L3.2188 -5.9844 Q2.8594 -5.9844 2.6953 -5.9375 Q2.5312 -5.8906 2.3672 -5.7656 Q2.2031 -5.6406 2.0156 -5.4062 Q1.8281 -5.1719 1.5938 -4.7344 L0.9844 -4.7344 L1.3906 -6.5312 L6.25 -6.5312 L6.375 -6.1875 L1.4688 -0.6094 L1.5156 -0.5469 L3.0625 -0.5469 Q3.4688 -0.5469 3.6875 -0.5938 Q3.9062 -0.6406 4.0703 -0.7656 Q4.2344 -0.8906 4.4062 -1.1406 Q4.5781 -1.3906 4.8438 -1.9219 L5.4531 -1.9219 Z" stroke="none"/></g><g text-rendering="optimizeLegibility" transform="translate(269.3941,36.6192)" color-rendering="optimizeQuality" color-interpolation="linearRGB" image-rendering="optimizeQuality"><path d="M11.9531 -13.3281 L11.2812 -10.3281 L10.3438 -10.3281 Q10.3125 -11.0312 10.2344 -11.4297 Q10.1562 -11.8281 10.0625 -12.0156 Q9.9688 -12.2031 9.8359 -12.2969 Q9.7031 -12.3906 9.5156 -12.4297 Q9.3281 -12.4688 8.9688 -12.4688 L5.7969 -12.4688 L4.6719 -7.3594 L6.5469 -7.3594 Q6.9688 -7.3594 7.2578 -7.4766 Q7.5469 -7.5938 7.7891 -7.8828 Q8.0312 -8.1719 8.3438 -8.7656 L9.2344 -8.7656 L8.3438 -5.0156 L7.5156 -5.0156 Q7.5156 -5.5469 7.4766 -5.8047 Q7.4375 -6.0625 7.375 -6.1797 Q7.3125 -6.2969 7.2188 -6.3672 Q7.125 -6.4375 6.9688 -6.4688 Q6.8125 -6.5 6.4531 -6.5 L4.5 -6.5 L3.25 -0.8594 L6.1406 -0.8594 Q6.5625 -0.8594 6.8594 -0.9219 Q7.1562 -0.9844 7.3984 -1.1406 Q7.6406 -1.2969 7.8672 -1.5469 Q8.0938 -1.7969 8.3359 -2.1875 Q8.5781 -2.5781 8.9844 -3.375 L9.9375 -3.375 L9.0781 0 L0.4062 0 L0.5156 -0.4844 Q0.8906 -0.5312 1.0781 -0.6641 Q1.2656 -0.7969 1.3906 -1.0312 Q1.5156 -1.2656 1.625 -1.6016 Q1.7344 -1.9375 1.9375 -2.9062 L3.6094 -10.4375 Q3.8125 -11.4062 3.8125 -12 Q3.8125 -12.4688 3.5781 -12.6484 Q3.3438 -12.8281 2.8594 -12.8594 L2.9688 -13.3281 L11.9531 -13.3281 Z" stroke="none"/></g><g text-rendering="optimizeLegibility" transform="translate(281.6284,39.8849)" color-rendering="optimizeQuality" color-interpolation="linearRGB" image-rendering="optimizeQuality"><path d="M6.4688 -6.2031 Q5.1406 -4.7812 3.6875 -3.4062 L4.3281 -1.9062 Q4.5781 -1.3125 4.7266 -1.0234 Q4.875 -0.7344 5 -0.6094 Q5.125 -0.4844 5.25 -0.4297 Q5.375 -0.375 5.6406 -0.3281 L5.5625 0 L3.8594 0 L2.9062 -2.75 Q2.75 -2.6094 2.4766 -2.3516 Q2.2031 -2.0938 1.9531 -1.8047 Q1.7031 -1.5156 1.6016 -1.3359 Q1.5 -1.1562 1.4688 -1.0234 Q1.4375 -0.8906 1.4375 -0.7656 Q1.4375 -0.5781 1.5391 -0.4766 Q1.6406 -0.375 1.875 -0.3281 L1.7969 0 L-0.1562 0 L-0.2812 -0.3281 Q1.2188 -1.9375 2.6719 -3.2969 L2.0156 -4.8125 Q1.8125 -5.2812 1.6953 -5.5234 Q1.5781 -5.7656 1.4609 -5.8984 Q1.3438 -6.0312 1.1953 -6.1094 Q1.0469 -6.1875 0.7812 -6.2031 L0.8594 -6.5312 L2.5625 -6.5312 L3.4688 -3.9531 Q3.7969 -4.2656 4.1016 -4.5938 Q4.4062 -4.9219 4.5312 -5.1172 Q4.6562 -5.3125 4.7031 -5.4609 Q4.75 -5.6094 4.75 -5.7656 Q4.75 -6.1406 4.3125 -6.2031 L4.375 -6.5312 L6.3281 -6.5312 L6.4688 -6.2031 Z" stroke="none"/></g><g text-rendering="optimizeLegibility" transform="translate(292.2073,28)" color-rendering="optimizeQuality" color-interpolation="linearRGB" image-rendering="optimizeQuality"><path d="M1.2344 -5.0469 L1.2344 -6.3906 L9.8281 -6.3906 L9.8281 -5.0469 L1.2344 -5.0469 Z" stroke="none"/></g><g text-rendering="optimizeLegibility" transform="translate(304.0354,28)" color-rendering="optimizeQuality" color-interpolation="linearRGB" image-rendering="optimizeQuality"><path d="M6.8594 -1.5625 Q7.3281 -1.5625 7.625 -1.625 Q7.9219 -1.6875 8.0938 -1.8203 Q8.2656 -1.9531 8.375 -2.1719 Q8.4844 -2.3906 8.6406 -2.8594 L9.4688 -2.8594 L9.2969 0 L1.2656 0 L1.2656 -0.4688 Q1.6875 -1.5 2.3984 -2.5703 Q3.1094 -3.6406 4.4219 -5.0938 Q5.5469 -6.3438 6.0469 -7 Q6.5938 -7.7031 6.8594 -8.2109 Q7.125 -8.7188 7.2422 -9.1719 Q7.3594 -9.625 7.3594 -10.0938 Q7.3594 -10.8281 7.125 -11.3828 Q6.8906 -11.9375 6.4062 -12.2656 Q5.9219 -12.5938 5.2031 -12.5938 Q3.375 -12.5938 2.7344 -10.5625 L1.5469 -10.5625 L1.5469 -12.4375 Q2.7344 -12.9844 3.7656 -13.2344 Q4.7969 -13.4844 5.6094 -13.4844 Q7.4375 -13.4844 8.3594 -12.6875 Q9.2812 -11.8906 9.2812 -10.375 Q9.2812 -9.8594 9.1797 -9.4297 Q9.0781 -9 8.8594 -8.5703 Q8.6406 -8.1406 8.2734 -7.6562 Q7.9062 -7.1719 7.4531 -6.6641 Q7 -6.1562 5.9062 -4.9844 Q4.0469 -3.0312 3.1719 -1.5625 L6.8594 -1.5625 Z" stroke="none"/></g><g text-rendering="optimizeLegibility" transform="translate(313.5042,28)" color-rendering="optimizeQuality" color-interpolation="linearRGB" image-rendering="optimizeQuality"><path d="M9.4844 -9.3438 Q9.4688 -7.7812 8.5547 -5.8281 Q7.6406 -3.875 4.125 0.0781 L2.875 0.0781 Q2.8281 -1.3906 2.5469 -4.2969 Q2.2656 -7.2031 2.1406 -7.6719 Q2.0156 -8.1406 1.8203 -8.2891 Q1.625 -8.4375 1.3906 -8.4375 Q1.2812 -8.4375 0.7812 -8.1094 Q0.6719 -8.0312 0.5938 -7.9844 L0.3594 -8.5312 Q1.3594 -9.5 2.4688 -9.5 Q3.0469 -9.5 3.4453 -8.8984 Q3.8438 -8.2969 4.0625 -6.0391 Q4.2812 -3.7812 4.2812 -1.9219 L4.2812 -1.625 Q4.2812 -1.4844 4.2812 -1.3594 Q7.625 -5.125 7.625 -8 L7.625 -8.3438 Q7.625 -8.4844 7.5625 -8.8438 L7.6719 -9.3438 L9.4844 -9.3438 Z" stroke="none"/></g><g text-rendering="optimizeLegibility" transform="translate(323.2698,29.8438)" color-rendering="optimizeQuality" color-interpolation="linearRGB" image-rendering="optimizeQuality"><path d="M6.4688 -6.2031 Q5.1406 -4.7812 3.6875 -3.4062 L4.3281 -1.9062 Q4.5781 -1.3125 4.7266 -1.0234 Q4.875 -0.7344 5 -0.6094 Q5.125 -0.4844 5.25 -0.4297 Q5.375 -0.375 5.6406 -0.3281 L5.5625 0 L3.8594 0 L2.9062 -2.75 Q2.75 -2.6094 2.4766 -2.3516 Q2.2031 -2.0938 1.9531 -1.8047 Q1.7031 -1.5156 1.6016 -1.3359 Q1.5 -1.1562 1.4688 -1.0234 Q1.4375 -0.8906 1.4375 -0.7656 Q1.4375 -0.5781 1.5391 -0.4766 Q1.6406 -0.375 1.875 -0.3281 L1.7969 0 L-0.1562 0 L-0.2812 -0.3281 Q1.2188 -1.9375 2.6719 -3.2969 L2.0156 -4.8125 Q1.8125 -5.2812 1.6953 -5.5234 Q1.5781 -5.7656 1.4609 -5.8984 Q1.3438 -6.0312 1.1953 -6.1094 Q1.0469 -6.1875 0.7812 -6.2031 L0.8594 -6.5312 L2.5625 -6.5312 L3.4688 -3.9531 Q3.7969 -4.2656 4.1016 -4.5938 Q4.4062 -4.9219 4.5312 -5.1172 Q4.6562 -5.3125 4.7031 -5.4609 Q4.75 -5.6094 4.75 -5.7656 Q4.75 -6.1406 4.3125 -6.2031 L4.375 -6.5312 L6.3281 -6.5312 L6.4688 -6.2031 Z" stroke="none"/></g><g text-rendering="optimizeLegibility" transform="translate(331.4573,29.8438)" color-rendering="optimizeQuality" color-interpolation="linearRGB" image-rendering="optimizeQuality"><path d="M1.2656 -5.0469 Q1.2031 -5.5625 1.1406 -5.7656 Q1.0781 -5.9688 0.9375 -6.0781 Q0.7969 -6.1875 0.5 -6.2031 L0.5625 -6.5312 L2.3281 -6.5312 L2.8438 -1.0938 Q5.1562 -4.2656 5.1562 -5.625 Q5.1562 -5.9531 5.0156 -6.0703 Q4.875 -6.1875 4.5469 -6.2031 L4.625 -6.5312 L6.3906 -6.5312 L6.5625 -6.1875 Q6.2031 -5.25 5.6406 -4.2266 Q5.0781 -3.2031 4.2656 -1.9922 Q3.4531 -0.7812 2.4531 0.5156 Q1.6875 1.5312 1.1562 2.0312 Q0.7656 2.4219 0.4219 2.625 Q0.0781 2.8281 -0.2344 2.9141 Q-0.5469 3 -0.9062 3 Q-1.0938 3 -1.3281 2.9609 Q-1.5625 2.9219 -1.7188 2.8594 L-1.4219 1.5938 L-0.8906 1.5938 Q-0.8906 1.8125 -0.7891 1.9531 Q-0.6875 2.0938 -0.4844 2.0938 Q-0.2656 2.0938 -0.1094 2.0469 Q0.0469 2 0.2188 1.8984 Q0.3906 1.7969 0.6406 1.5703 Q0.8906 1.3438 1.2109 0.9766 Q1.5312 0.6094 1.9219 0.0781 L1.2656 -5.0469 Z" stroke="none"/></g><g text-rendering="optimizeLegibility" transform="translate(338.0198,28)" color-rendering="optimizeQuality" color-interpolation="linearRGB" image-rendering="optimizeQuality"><path d="M9.4844 -9.3438 Q9.4688 -7.7812 8.5547 -5.8281 Q7.6406 -3.875 4.125 0.0781 L2.875 0.0781 Q2.8281 -1.3906 2.5469 -4.2969 Q2.2656 -7.2031 2.1406 -7.6719 Q2.0156 -8.1406 1.8203 -8.2891 Q1.625 -8.4375 1.3906 -8.4375 Q1.2812 -8.4375 0.7812 -8.1094 Q0.6719 -8.0312 0.5938 -7.9844 L0.3594 -8.5312 Q1.3594 -9.5 2.4688 -9.5 Q3.0469 -9.5 3.4453 -8.8984 Q3.8438 -8.2969 4.0625 -6.0391 Q4.2812 -3.7812 4.2812 -1.9219 L4.2812 -1.625 Q4.2812 -1.4844 4.2812 -1.3594 Q7.625 -5.125 7.625 -8 L7.625 -8.3438 Q7.625 -8.4844 7.5625 -8.8438 L7.6719 -9.3438 L9.4844 -9.3438 Z" stroke="none"/></g><g text-rendering="optimizeLegibility" transform="translate(349.2229,29.8438)" color-rendering="optimizeQuality" color-interpolation="linearRGB" image-rendering="optimizeQuality"><path d="M1.2656 -5.0469 Q1.2031 -5.5625 1.1406 -5.7656 Q1.0781 -5.9688 0.9375 -6.0781 Q0.7969 -6.1875 0.5 -6.2031 L0.5625 -6.5312 L2.3281 -6.5312 L2.8438 -1.0938 Q5.1562 -4.2656 5.1562 -5.625 Q5.1562 -5.9531 5.0156 -6.0703 Q4.875 -6.1875 4.5469 -6.2031 L4.625 -6.5312 L6.3906 -6.5312 L6.5625 -6.1875 Q6.2031 -5.25 5.6406 -4.2266 Q5.0781 -3.2031 4.2656 -1.9922 Q3.4531 -0.7812 2.4531 0.5156 Q1.6875 1.5312 1.1562 2.0312 Q0.7656 2.4219 0.4219 2.625 Q0.0781 2.8281 -0.2344 2.9141 Q-0.5469 3 -0.9062 3 Q-1.0938 3 -1.3281 2.9609 Q-1.5625 2.9219 -1.7188 2.8594 L-1.4219 1.5938 L-0.8906 1.5938 Q-0.8906 1.8125 -0.7891 1.9531 Q-0.6875 2.0938 -0.4844 2.0938 Q-0.2656 2.0938 -0.1094 2.0469 Q0.0469 2 0.2188 1.8984 Q0.3906 1.7969 0.6406 1.5703 Q0.8906 1.3438 1.2109 0.9766 Q1.5312 0.6094 1.9219 0.0781 L1.2656 -5.0469 Z" stroke="none"/></g><g text-rendering="optimizeLegibility" transform="translate(355.8323,29.8438)" color-rendering="optimizeQuality" color-interpolation="linearRGB" image-rendering="optimizeQuality"><path d="M5.4531 -1.9219 L5.0312 0 L0.0781 0 L-0.0469 -0.3281 L3.6875 -4.6406 Q4.4844 -5.5469 4.8594 -5.9375 L4.8125 -5.9844 L3.2188 -5.9844 Q2.8594 -5.9844 2.6953 -5.9375 Q2.5312 -5.8906 2.3672 -5.7656 Q2.2031 -5.6406 2.0156 -5.4062 Q1.8281 -5.1719 1.5938 -4.7344 L0.9844 -4.7344 L1.3906 -6.5312 L6.25 -6.5312 L6.375 -6.1875 L1.4688 -0.6094 L1.5156 -0.5469 L3.0625 -0.5469 Q3.4688 -0.5469 3.6875 -0.5938 Q3.9062 -0.6406 4.0703 -0.7656 Q4.2344 -0.8906 4.4062 -1.1406 Q4.5781 -1.3906 4.8438 -1.9219 L5.4531 -1.9219 Z" stroke="none"/></g><g text-rendering="optimizeLegibility" transform="translate(362.2073,28)" color-rendering="optimizeQuality" color-interpolation="linearRGB" image-rendering="optimizeQuality"><path d="M9.4844 -9.3438 Q9.4688 -7.7812 8.5547 -5.8281 Q7.6406 -3.875 4.125 0.0781 L2.875 0.0781 Q2.8281 -1.3906 2.5469 -4.2969 Q2.2656 -7.2031 2.1406 -7.6719 Q2.0156 -8.1406 1.8203 -8.2891 Q1.625 -8.4375 1.3906 -8.4375 Q1.2812 -8.4375 0.7812 -8.1094 Q0.6719 -8.0312 0.5938 -7.9844 L0.3594 -8.5312 Q1.3594 -9.5 2.4688 -9.5 Q3.0469 -9.5 3.4453 -8.8984 Q3.8438 -8.2969 4.0625 -6.0391 Q4.2812 -3.7812 4.2812 -1.9219 L4.2812 -1.625 Q4.2812 -1.4844 4.2812 -1.3594 Q7.625 -5.125 7.625 -8 L7.625 -8.3438 Q7.625 -8.4844 7.5625 -8.8438 L7.6719 -9.3438 L9.4844 -9.3438 Z" stroke="none"/></g><g text-rendering="optimizeLegibility" transform="translate(371.9729,31.3438)" color-rendering="optimizeQuality" color-interpolation="linearRGB" image-rendering="optimizeQuality"><path d="M6.4688 -6.2031 Q5.1406 -4.7812 3.6875 -3.4062 L4.3281 -1.9062 Q4.5781 -1.3125 4.7266 -1.0234 Q4.875 -0.7344 5 -0.6094 Q5.125 -0.4844 5.25 -0.4297 Q5.375 -0.375 5.6406 -0.3281 L5.5625 0 L3.8594 0 L2.9062 -2.75 Q2.75 -2.6094 2.4766 -2.3516 Q2.2031 -2.0938 1.9531 -1.8047 Q1.7031 -1.5156 1.6016 -1.3359 Q1.5 -1.1562 1.4688 -1.0234 Q1.4375 -0.8906 1.4375 -0.7656 Q1.4375 -0.5781 1.5391 -0.4766 Q1.6406 -0.375 1.875 -0.3281 L1.7969 0 L-0.1562 0 L-0.2812 -0.3281 Q1.2188 -1.9375 2.6719 -3.2969 L2.0156 -4.8125 Q1.8125 -5.2812 1.6953 -5.5234 Q1.5781 -5.7656 1.4609 -5.8984 Q1.3438 -6.0312 1.1953 -6.1094 Q1.0469 -6.1875 0.7812 -6.2031 L0.8594 -6.5312 L2.5625 -6.5312 L3.4688 -3.9531 Q3.7969 -4.2656 4.1016 -4.5938 Q4.4062 -4.9219 4.5312 -5.1172 Q4.6562 -5.3125 4.7031 -5.4609 Q4.75 -5.6094 4.75 -5.7656 Q4.75 -6.1406 4.3125 -6.2031 L4.375 -6.5312 L6.3281 -6.5312 L6.4688 -6.2031 Z" stroke="none"/></g><g text-rendering="optimizeLegibility" transform="translate(378.4885,31.3438)" color-rendering="optimizeQuality" color-interpolation="linearRGB" image-rendering="optimizeQuality"><path d="M5.4531 -1.9219 L5.0312 0 L0.0781 0 L-0.0469 -0.3281 L3.6875 -4.6406 Q4.4844 -5.5469 4.8594 -5.9375 L4.8125 -5.9844 L3.2188 -5.9844 Q2.8594 -5.9844 2.6953 -5.9375 Q2.5312 -5.8906 2.3672 -5.7656 Q2.2031 -5.6406 2.0156 -5.4062 Q1.8281 -5.1719 1.5938 -4.7344 L0.9844 -4.7344 L1.3906 -6.5312 L6.25 -6.5312 L6.375 -6.1875 L1.4688 -0.6094 L1.5156 -0.5469 L3.0625 -0.5469 Q3.4688 -0.5469 3.6875 -0.5938 Q3.9062 -0.6406 4.0703 -0.7656 Q4.2344 -0.8906 4.4062 -1.1406 Q4.5781 -1.3906 4.8438 -1.9219 L5.4531 -1.9219 Z" stroke="none"/></g><g text-rendering="optimizeLegibility" stroke-width="1.6667" color-interpolation="linearRGB" color-rendering="optimizeQuality" image-rendering="optimizeQuality"><line y2="20.78" fill="none" x1="386.5413" x2="405.2444" y1="20.78"/><path d="M11.9531 -13.3281 L11.2812 -10.3281 L10.3438 -10.3281 Q10.3125 -11.0312 10.2344 -11.4297 Q10.1562 -11.8281 10.0625 -12.0156 Q9.9688 -12.2031 9.8359 -12.2969 Q9.7031 -12.3906 9.5156 -12.4297 Q9.3281 -12.4688 8.9688 -12.4688 L5.7969 -12.4688 L4.6719 -7.3594 L6.5469 -7.3594 Q6.9688 -7.3594 7.2578 -7.4766 Q7.5469 -7.5938 7.7891 -7.8828 Q8.0312 -8.1719 8.3438 -8.7656 L9.2344 -8.7656 L8.3438 -5.0156 L7.5156 -5.0156 Q7.5156 -5.5469 7.4766 -5.8047 Q7.4375 -6.0625 7.375 -6.1797 Q7.3125 -6.2969 7.2188 -6.3672 Q7.125 -6.4375 6.9688 -6.4688 Q6.8125 -6.5 6.4531 -6.5 L4.5 -6.5 L3.25 -0.8594 L6.1406 -0.8594 Q6.5625 -0.8594 6.8594 -0.9219 Q7.1562 -0.9844 7.3984 -1.1406 Q7.6406 -1.2969 7.8672 -1.5469 Q8.0938 -1.7969 8.3359 -2.1875 Q8.5781 -2.5781 8.9844 -3.375 L9.9375 -3.375 L9.0781 0 L0.4062 0 L0.5156 -0.4844 Q0.8906 -0.5312 1.0781 -0.6641 Q1.2656 -0.7969 1.3906 -1.0312 Q1.5156 -1.2656 1.625 -1.6016 Q1.7344 -1.9375 1.9375 -2.9062 L3.6094 -10.4375 Q3.8125 -11.4062 3.8125 -12 Q3.8125 -12.4688 3.5781 -12.6484 Q3.3438 -12.8281 2.8594 -12.8594 L2.9688 -13.3281 L11.9531 -13.3281 Z" stroke-width="1" transform="translate(386.7054,15.0033)" stroke="none"/></g><g text-rendering="optimizeLegibility" transform="translate(398.7054,18.2689)" color-rendering="optimizeQuality" color-interpolation="linearRGB" image-rendering="optimizeQuality"><path d="M5.4531 -1.9219 L5.0312 0 L0.0781 0 L-0.0469 -0.3281 L3.6875 -4.6406 Q4.4844 -5.5469 4.8594 -5.9375 L4.8125 -5.9844 L3.2188 -5.9844 Q2.8594 -5.9844 2.6953 -5.9375 Q2.5312 -5.8906 2.3672 -5.7656 Q2.2031 -5.6406 2.0156 -5.4062 Q1.8281 -5.1719 1.5938 -4.7344 L0.9844 -4.7344 L1.3906 -6.5312 L6.25 -6.5312 L6.375 -6.1875 L1.4688 -0.6094 L1.5156 -0.5469 L3.0625 -0.5469 Q3.4688 -0.5469 3.6875 -0.5938 Q3.9062 -0.6406 4.0703 -0.7656 Q4.2344 -0.8906 4.4062 -1.1406 Q4.5781 -1.3906 4.8438 -1.9219 L5.4531 -1.9219 Z" stroke="none"/></g><g text-rendering="optimizeLegibility" transform="translate(386.5413,36.6192)" color-rendering="optimizeQuality" color-interpolation="linearRGB" image-rendering="optimizeQuality"><path d="M11.9531 -13.3281 L11.2812 -10.3281 L10.3438 -10.3281 Q10.3125 -11.0312 10.2344 -11.4297 Q10.1562 -11.8281 10.0625 -12.0156 Q9.9688 -12.2031 9.8359 -12.2969 Q9.7031 -12.3906 9.5156 -12.4297 Q9.3281 -12.4688 8.9688 -12.4688 L5.7969 -12.4688 L4.6719 -7.3594 L6.5469 -7.3594 Q6.9688 -7.3594 7.2578 -7.4766 Q7.5469 -7.5938 7.7891 -7.8828 Q8.0312 -8.1719 8.3438 -8.7656 L9.2344 -8.7656 L8.3438 -5.0156 L7.5156 -5.0156 Q7.5156 -5.5469 7.4766 -5.8047 Q7.4375 -6.0625 7.375 -6.1797 Q7.3125 -6.2969 7.2188 -6.3672 Q7.125 -6.4375 6.9688 -6.4688 Q6.8125 -6.5 6.4531 -6.5 L4.5 -6.5 L3.25 -0.8594 L6.1406 -0.8594 Q6.5625 -0.8594 6.8594 -0.9219 Q7.1562 -0.9844 7.3984 -1.1406 Q7.6406 -1.2969 7.8672 -1.5469 Q8.0938 -1.7969 8.3359 -2.1875 Q8.5781 -2.5781 8.9844 -3.375 L9.9375 -3.375 L9.0781 0 L0.4062 0 L0.5156 -0.4844 Q0.8906 -0.5312 1.0781 -0.6641 Q1.2656 -0.7969 1.3906 -1.0312 Q1.5156 -1.2656 1.625 -1.6016 Q1.7344 -1.9375 1.9375 -2.9062 L3.6094 -10.4375 Q3.8125 -11.4062 3.8125 -12 Q3.8125 -12.4688 3.5781 -12.6484 Q3.3438 -12.8281 2.8594 -12.8594 L2.9688 -13.3281 L11.9531 -13.3281 Z" stroke="none"/></g><g text-rendering="optimizeLegibility" transform="translate(398.7757,39.8849)" color-rendering="optimizeQuality" color-interpolation="linearRGB" image-rendering="optimizeQuality"><path d="M6.4688 -6.2031 Q5.1406 -4.7812 3.6875 -3.4062 L4.3281 -1.9062 Q4.5781 -1.3125 4.7266 -1.0234 Q4.875 -0.7344 5 -0.6094 Q5.125 -0.4844 5.25 -0.4297 Q5.375 -0.375 5.6406 -0.3281 L5.5625 0 L3.8594 0 L2.9062 -2.75 Q2.75 -2.6094 2.4766 -2.3516 Q2.2031 -2.0938 1.9531 -1.8047 Q1.7031 -1.5156 1.6016 -1.3359 Q1.5 -1.1562 1.4688 -1.0234 Q1.4375 -0.8906 1.4375 -0.7656 Q1.4375 -0.5781 1.5391 -0.4766 Q1.6406 -0.375 1.875 -0.3281 L1.7969 0 L-0.1562 0 L-0.2812 -0.3281 Q1.2188 -1.9375 2.6719 -3.2969 L2.0156 -4.8125 Q1.8125 -5.2812 1.6953 -5.5234 Q1.5781 -5.7656 1.4609 -5.8984 Q1.3438 -6.0312 1.1953 -6.1094 Q1.0469 -6.1875 0.7812 -6.2031 L0.8594 -6.5312 L2.5625 -6.5312 L3.4688 -3.9531 Q3.7969 -4.2656 4.1016 -4.5938 Q4.4062 -4.9219 4.5312 -5.1172 Q4.6562 -5.3125 4.7031 -5.4609 Q4.75 -5.6094 4.75 -5.7656 Q4.75 -6.1406 4.3125 -6.2031 L4.375 -6.5312 L6.3281 -6.5312 L6.4688 -6.2031 Z" stroke="none"/></g></g></svg>