<?xml version="1.0" encoding="UTF-8" standalone="no"?><svg xmlns="http://www.w3.org/2000/svg" xmlns:xlink="http://www.w3.org/1999/xlink" stroke-dasharray="none" shape-rendering="auto" font-family="'Dialog'" width="170.812600" text-rendering="auto" fill-opacity="1" contentScriptType="text/ecmascript" color-interpolation="auto" color-rendering="auto" preserveAspectRatio="xMidYMid meet" font-size="12" fill="black" stroke="black" image-rendering="auto" stroke-miterlimit="10" zoomAndPan="magnify" version="1.0" stroke-linecap="square" stroke-linejoin="miter" contentStyleType="text/css" font-style="normal" height="85" stroke-width="1" stroke-dashoffset="0" font-weight="normal" stroke-opacity="1" y="-35.000000"><!--Converted from MathML using JEuclid--><defs id="genericDefs"/><g><g text-rendering="optimizeLegibility" transform="translate(-0.2344,50)" color-rendering="optimizeQuality" color-interpolation="linearRGB" image-rendering="optimizeQuality"><path d="M6.5781 4.2031 L2.2344 4.2031 L2.2344 -13.9688 L6.5781 -13.9688 L6.5781 -13.1719 L3.9531 -13.1719 L3.9531 3.4062 L6.5781 3.4062 L6.5781 4.2031 Z" stroke="none"/></g><g text-rendering="optimizeLegibility" transform="translate(8.4375,50)" color-rendering="optimizeQuality" color-interpolation="linearRGB" image-rendering="optimizeQuality"><path d="M10.0625 -0.7656 Q8.9688 0.1562 7.875 0.1562 Q6.8125 0.1562 6.8125 -1.1719 Q6.8125 -1.6875 6.9844 -2.4219 L6.8594 -2.4844 Q5.0938 0.1562 3.5156 0.1562 Q2.5469 0.1562 2.1719 -0.7969 L2.0938 -0.7969 Q1.8438 0.7344 1.8438 2.4062 L1.8438 2.625 Q1.8438 2.7188 1.8594 2.8281 L1.7656 3.3594 L0.7812 3.9219 L-0.0938 3.9219 L2.8438 -9.3438 L4.4844 -9.3438 L3.3594 -4.3594 Q3.0156 -2.8438 3.0156 -2.3125 Q3.0156 -1 3.9375 -1 Q4.9062 -1 5.9766 -2.3828 Q7.0469 -3.7656 7.2812 -4.9219 L8.2656 -9.3438 L9.8906 -9.3438 L8.3438 -2.3594 Q8.25 -1.9688 8.25 -1.6875 Q8.25 -0.8281 8.8594 -0.8281 Q9.2344 -0.8281 9.8125 -1.2812 L10.0625 -0.7656 Z" stroke="none"/></g><g text-rendering="optimizeLegibility" transform="translate(20.0781,50)" color-rendering="optimizeQuality" color-interpolation="linearRGB" image-rendering="optimizeQuality"><path d="M4.7812 4.2031 L0.4219 4.2031 L0.4219 3.4062 L3.0625 3.4062 L3.0625 -13.1719 L0.4219 -13.1719 L0.4219 -13.9688 L4.7812 -13.9688 L4.7812 4.2031 Z" stroke="none"/></g><g text-rendering="optimizeLegibility" transform="translate(27.6406,50)" color-rendering="optimizeQuality" color-interpolation="linearRGB" image-rendering="optimizeQuality"><path d="M1.2188 -7.0625 L1.2188 -8.4219 L9.8594 -8.4219 L9.8594 -7.0625 L1.2188 -7.0625 ZM1.2188 -3.0156 L1.2188 -4.3594 L9.8594 -4.3594 L9.8594 -3.0156 L1.2188 -3.0156 Z" stroke="none"/></g><g text-rendering="optimizeLegibility" transform="translate(39.5938,50)" color-rendering="optimizeQuality" color-interpolation="linearRGB" image-rendering="optimizeQuality"><path d="M10.0625 -0.7656 Q8.9688 0.1562 7.875 0.1562 Q6.8125 0.1562 6.8125 -1.1719 Q6.8125 -1.6875 6.9844 -2.4219 L6.8594 -2.4844 Q5.0938 0.1562 3.5156 0.1562 Q2.5469 0.1562 2.1719 -0.7969 L2.0938 -0.7969 Q1.8438 0.7344 1.8438 2.4062 L1.8438 2.625 Q1.8438 2.7188 1.8594 2.8281 L1.7656 3.3594 L0.7812 3.9219 L-0.0938 3.9219 L2.8438 -9.3438 L4.4844 -9.3438 L3.3594 -4.3594 Q3.0156 -2.8438 3.0156 -2.3125 Q3.0156 -1 3.9375 -1 Q4.9062 -1 5.9766 -2.3828 Q7.0469 -3.7656 7.2812 -4.9219 L8.2656 -9.3438 L9.8906 -9.3438 L8.3438 -2.3594 Q8.25 -1.9688 8.25 -1.6875 Q8.25 -0.8281 8.8594 -0.8281 Q9.2344 -0.8281 9.8125 -1.2812 L10.0625 -0.7656 Z" stroke="none"/></g><g text-rendering="optimizeLegibility" transform="translate(49.6562,57.1875)" color-rendering="optimizeQuality" color-interpolation="linearRGB" image-rendering="optimizeQuality"><path d="M2.7969 0.1094 Q1.7344 0.1094 1.1484 -0.4844 Q0.5625 -1.0781 0.5625 -2.1875 Q0.5625 -2.5938 0.6719 -3.1562 Q0.7969 -3.875 1.0469 -4.4219 Q1.3438 -5.1094 1.8281 -5.6172 Q2.3125 -6.125 2.9375 -6.3828 Q3.5625 -6.6406 4.2812 -6.6406 Q5.0625 -6.6406 5.5703 -6.3438 Q6.0781 -6.0469 6.2969 -5.5312 Q6.5156 -5.0156 6.5156 -4.3281 Q6.5156 -3.7188 6.3438 -3.0312 Q6.1094 -2.0312 5.6328 -1.3203 Q5.1562 -0.6094 4.4453 -0.25 Q3.7344 0.1094 2.7969 0.1094 ZM1.7656 -1.8906 Q1.7656 -1.1406 2.0781 -0.7812 Q2.3906 -0.4219 3.0156 -0.4219 Q3.6875 -0.4219 4.2031 -1.0234 Q4.7188 -1.625 5.0234 -2.7109 Q5.3281 -3.7969 5.3281 -4.6094 Q5.3281 -5.3594 5.0391 -5.7266 Q4.75 -6.0938 4.1406 -6.0938 Q3.4375 -6.0938 2.9062 -5.5 Q2.375 -4.9062 2.0703 -3.7969 Q1.7656 -2.6875 1.7656 -1.8906 Z" stroke="none"/></g><g text-rendering="optimizeLegibility" transform="translate(55.9375,65.2649) matrix(1,0,0,4.6049,0,0)" color-rendering="optimizeQuality" color-interpolation="linearRGB" image-rendering="optimizeQuality"><path d="M6.5781 4.2031 L2.2344 4.2031 L2.2344 -13.9688 L6.5781 -13.9688 L6.5781 -13.1719 L3.9531 -13.1719 L3.9531 3.4062 L6.5781 3.4062 L6.5781 4.2031 Z" stroke="none"/></g><g text-rendering="optimizeLegibility" transform="translate(64.6094,14.4245)" color-rendering="optimizeQuality" color-interpolation="linearRGB" image-rendering="optimizeQuality"><path d="M10.0625 -0.7656 Q8.9688 0.1562 7.875 0.1562 Q6.8125 0.1562 6.8125 -1.1719 Q6.8125 -1.6875 6.9844 -2.4219 L6.8594 -2.4844 Q5.0938 0.1562 3.5156 0.1562 Q2.5469 0.1562 2.1719 -0.7969 L2.0938 -0.7969 Q1.8438 0.7344 1.8438 2.4062 L1.8438 2.625 Q1.8438 2.7188 1.8594 2.8281 L1.7656 3.3594 L0.7812 3.9219 L-0.0938 3.9219 L2.8438 -9.3438 L4.4844 -9.3438 L3.3594 -4.3594 Q3.0156 -2.8438 3.0156 -2.3125 Q3.0156 -1 3.9375 -1 Q4.9062 -1 5.9766 -2.3828 Q7.0469 -3.7656 7.2812 -4.9219 L8.2656 -9.3438 L9.8906 -9.3438 L8.3438 -2.3594 Q8.25 -1.9688 8.25 -1.6875 Q8.25 -0.8281 8.8594 -0.8281 Q9.2344 -0.8281 9.8125 -1.2812 L10.0625 -0.7656 Z" stroke="none"/></g><g text-rendering="optimizeLegibility" transform="translate(74.6719,21.6667)" color-rendering="optimizeQuality" color-interpolation="linearRGB" image-rendering="optimizeQuality"><path d="M2.7188 -6.5938 L3.125 -6.5938 L2.6562 -4.9219 L2.7344 -4.8906 Q3.3906 -5.7812 4.0078 -6.2109 Q4.625 -6.6406 5.2812 -6.6406 Q5.7812 -6.6406 6.1094 -6.5625 L5.7812 -5.0312 L5.0781 -5.0312 Q5.0312 -5.3906 4.9141 -5.5781 Q4.7969 -5.7656 4.5469 -5.7656 Q4.2812 -5.7656 3.9297 -5.4922 Q3.5781 -5.2188 3.2188 -4.7422 Q2.8594 -4.2656 2.6797 -3.8594 Q2.5 -3.4531 2.4062 -2.9531 L1.7812 0 L0.5938 0 L1.6406 -4.6719 Q1.7812 -5.3125 1.7812 -5.6406 Q1.7812 -5.8438 1.7188 -5.9453 Q1.6562 -6.0469 1.5156 -6.1016 Q1.375 -6.1562 1.0469 -6.1719 L1.125 -6.5312 L2.7188 -6.5938 Z" stroke="none"/></g><g text-rendering="optimizeLegibility" transform="translate(81.0625,21.6667)" color-rendering="optimizeQuality" color-interpolation="linearRGB" image-rendering="optimizeQuality"><path d="M6.4688 -6.2031 Q5.1406 -4.7812 3.6875 -3.4062 L4.3281 -1.9062 Q4.5781 -1.3125 4.7266 -1.0234 Q4.875 -0.7344 5 -0.6094 Q5.125 -0.4844 5.25 -0.4297 Q5.375 -0.375 5.6406 -0.3281 L5.5625 0 L3.8594 0 L2.9062 -2.75 Q2.75 -2.6094 2.4766 -2.3516 Q2.2031 -2.0938 1.9531 -1.8047 Q1.7031 -1.5156 1.6016 -1.3359 Q1.5 -1.1562 1.4688 -1.0234 Q1.4375 -0.8906 1.4375 -0.7656 Q1.4375 -0.5781 1.5391 -0.4766 Q1.6406 -0.375 1.875 -0.3281 L1.7969 0 L-0.1562 0 L-0.2812 -0.3281 Q1.2188 -1.9375 2.6719 -3.2969 L2.0156 -4.8125 Q1.8125 -5.2812 1.6953 -5.5234 Q1.5781 -5.7656 1.4609 -5.8984 Q1.3438 -6.0312 1.1953 -6.1094 Q1.0469 -6.1875 0.7812 -6.2031 L0.8594 -6.5312 L2.5625 -6.5312 L3.4688 -3.9531 Q3.7969 -4.2656 4.1016 -4.5938 Q4.4062 -4.9219 4.5312 -5.1172 Q4.6562 -5.3125 4.7031 -5.4609 Q4.75 -5.6094 4.75 -5.7656 Q4.75 -6.1406 4.3125 -6.2031 L4.375 -6.5312 L6.3281 -6.5312 L6.4688 -6.2031 Z" stroke="none"/></g><g text-rendering="optimizeLegibility" transform="translate(108.3207,14.4245)" color-rendering="optimizeQuality" color-interpolation="linearRGB" image-rendering="optimizeQuality"><path d="M5.4375 0.1562 Q3.3281 0.1562 2.2969 -1.5078 Q1.2656 -3.1719 1.2656 -6.5469 Q1.2656 -8.3438 1.5781 -9.6484 Q1.8906 -10.9531 2.4609 -11.8125 Q3.0312 -12.6719 3.8359 -13.0781 Q4.6406 -13.4844 5.5938 -13.4844 Q7.7188 -13.4844 8.7656 -11.8359 Q9.8125 -10.1875 9.8125 -6.8438 Q9.8125 -3.3906 8.6953 -1.6172 Q7.5781 0.1562 5.4375 0.1562 ZM3.1719 -6.8438 Q3.1719 -3.6562 3.7578 -2.1641 Q4.3438 -0.6719 5.5938 -0.6719 Q6.7656 -0.6719 7.3359 -2.0781 Q7.9062 -3.4844 7.9062 -6.4219 Q7.9062 -8.6562 7.6172 -10.0547 Q7.3281 -11.4531 6.8047 -12.0547 Q6.2812 -12.6562 5.5312 -12.6562 Q4.8594 -12.6562 4.4062 -12.2578 Q3.9531 -11.8594 3.6797 -11.1094 Q3.4062 -10.3594 3.2891 -9.2734 Q3.1719 -8.1875 3.1719 -6.8438 Z" stroke="none"/></g><g text-rendering="optimizeLegibility" transform="translate(145.3601,14.4245)" color-rendering="optimizeQuality" color-interpolation="linearRGB" image-rendering="optimizeQuality"><path d="M5.4375 0.1562 Q3.3281 0.1562 2.2969 -1.5078 Q1.2656 -3.1719 1.2656 -6.5469 Q1.2656 -8.3438 1.5781 -9.6484 Q1.8906 -10.9531 2.4609 -11.8125 Q3.0312 -12.6719 3.8359 -13.0781 Q4.6406 -13.4844 5.5938 -13.4844 Q7.7188 -13.4844 8.7656 -11.8359 Q9.8125 -10.1875 9.8125 -6.8438 Q9.8125 -3.3906 8.6953 -1.6172 Q7.5781 0.1562 5.4375 0.1562 ZM3.1719 -6.8438 Q3.1719 -3.6562 3.7578 -2.1641 Q4.3438 -0.6719 5.5938 -0.6719 Q6.7656 -0.6719 7.3359 -2.0781 Q7.9062 -3.4844 7.9062 -6.4219 Q7.9062 -8.6562 7.6172 -10.0547 Q7.3281 -11.4531 6.8047 -12.0547 Q6.2812 -12.6562 5.5312 -12.6562 Q4.8594 -12.6562 4.4062 -12.2578 Q3.9531 -11.8594 3.6797 -11.1094 Q3.4062 -10.3594 3.2891 -9.2734 Q3.1719 -8.1875 3.1719 -6.8438 Z" stroke="none"/></g><g text-rendering="optimizeLegibility" transform="translate(71.1172,45.1511)" color-rendering="optimizeQuality" color-interpolation="linearRGB" image-rendering="optimizeQuality"><path d="M5.4375 0.1562 Q3.3281 0.1562 2.2969 -1.5078 Q1.2656 -3.1719 1.2656 -6.5469 Q1.2656 -8.3438 1.5781 -9.6484 Q1.8906 -10.9531 2.4609 -11.8125 Q3.0312 -12.6719 3.8359 -13.0781 Q4.6406 -13.4844 5.5938 -13.4844 Q7.7188 -13.4844 8.7656 -11.8359 Q9.8125 -10.1875 9.8125 -6.8438 Q9.8125 -3.3906 8.6953 -1.6172 Q7.5781 0.1562 5.4375 0.1562 ZM3.1719 -6.8438 Q3.1719 -3.6562 3.7578 -2.1641 Q4.3438 -0.6719 5.5938 -0.6719 Q6.7656 -0.6719 7.3359 -2.0781 Q7.9062 -3.4844 7.9062 -6.4219 Q7.9062 -8.6562 7.6172 -10.0547 Q7.3281 -11.4531 6.8047 -12.0547 Q6.2812 -12.6562 5.5312 -12.6562 Q4.8594 -12.6562 4.4062 -12.2578 Q3.9531 -11.8594 3.6797 -11.1094 Q3.4062 -10.3594 3.2891 -9.2734 Q3.1719 -8.1875 3.1719 -6.8438 Z" stroke="none"/></g><g text-rendering="optimizeLegibility" transform="translate(101.0472,45.1511)" color-rendering="optimizeQuality" color-interpolation="linearRGB" image-rendering="optimizeQuality"><path d="M10.0625 -0.7656 Q8.9688 0.1562 7.875 0.1562 Q6.8125 0.1562 6.8125 -1.1719 Q6.8125 -1.6875 6.9844 -2.4219 L6.8594 -2.4844 Q5.0938 0.1562 3.5156 0.1562 Q2.5469 0.1562 2.1719 -0.7969 L2.0938 -0.7969 Q1.8438 0.7344 1.8438 2.4062 L1.8438 2.625 Q1.8438 2.7188 1.8594 2.8281 L1.7656 3.3594 L0.7812 3.9219 L-0.0938 3.9219 L2.8438 -9.3438 L4.4844 -9.3438 L3.3594 -4.3594 Q3.0156 -2.8438 3.0156 -2.3125 Q3.0156 -1 3.9375 -1 Q4.9062 -1 5.9766 -2.3828 Q7.0469 -3.7656 7.2812 -4.9219 L8.2656 -9.3438 L9.8906 -9.3438 L8.3438 -2.3594 Q8.25 -1.9688 8.25 -1.6875 Q8.25 -0.8281 8.8594 -0.8281 Q9.2344 -0.8281 9.8125 -1.2812 L10.0625 -0.7656 Z" stroke="none"/></g><g text-rendering="optimizeLegibility" transform="translate(111.1097,50.8933)" color-rendering="optimizeQuality" color-interpolation="linearRGB" image-rendering="optimizeQuality"><path d="M2.7188 -6.5938 L3.125 -6.5938 L2.6562 -4.9219 L2.7344 -4.8906 Q3.3906 -5.7812 4.0078 -6.2109 Q4.625 -6.6406 5.2812 -6.6406 Q5.7812 -6.6406 6.1094 -6.5625 L5.7812 -5.0312 L5.0781 -5.0312 Q5.0312 -5.3906 4.9141 -5.5781 Q4.7969 -5.7656 4.5469 -5.7656 Q4.2812 -5.7656 3.9297 -5.4922 Q3.5781 -5.2188 3.2188 -4.7422 Q2.8594 -4.2656 2.6797 -3.8594 Q2.5 -3.4531 2.4062 -2.9531 L1.7812 0 L0.5938 0 L1.6406 -4.6719 Q1.7812 -5.3125 1.7812 -5.6406 Q1.7812 -5.8438 1.7188 -5.9453 Q1.6562 -6.0469 1.5156 -6.1016 Q1.375 -6.1562 1.0469 -6.1719 L1.125 -6.5312 L2.7188 -6.5938 Z" stroke="none"/></g><g text-rendering="optimizeLegibility" transform="translate(118.9379,50.8933)" color-rendering="optimizeQuality" color-interpolation="linearRGB" image-rendering="optimizeQuality"><path d="M1.2656 -5.0469 Q1.2031 -5.5625 1.1406 -5.7656 Q1.0781 -5.9688 0.9375 -6.0781 Q0.7969 -6.1875 0.5 -6.2031 L0.5625 -6.5312 L2.3281 -6.5312 L2.8438 -1.0938 Q5.1562 -4.2656 5.1562 -5.625 Q5.1562 -5.9531 5.0156 -6.0703 Q4.875 -6.1875 4.5469 -6.2031 L4.625 -6.5312 L6.3906 -6.5312 L6.5625 -6.1875 Q6.2031 -5.25 5.6406 -4.2266 Q5.0781 -3.2031 4.2656 -1.9922 Q3.4531 -0.7812 2.4531 0.5156 Q1.6875 1.5312 1.1562 2.0312 Q0.7656 2.4219 0.4219 2.625 Q0.0781 2.8281 -0.2344 2.9141 Q-0.5469 3 -0.9062 3 Q-1.0938 3 -1.3281 2.9609 Q-1.5625 2.9219 -1.7188 2.8594 L-1.4219 1.5938 L-0.8906 1.5938 Q-0.8906 1.8125 -0.7891 1.9531 Q-0.6875 2.0938 -0.4844 2.0938 Q-0.2656 2.0938 -0.1094 2.0469 Q0.0469 2 0.2188 1.8984 Q0.3906 1.7969 0.6406 1.5703 Q0.8906 1.3438 1.2109 0.9766 Q1.5312 0.6094 1.9219 0.0781 L1.2656 -5.0469 Z" stroke="none"/></g><g text-rendering="optimizeLegibility" transform="translate(145.3601,45.1511)" color-rendering="optimizeQuality" color-interpolation="linearRGB" image-rendering="optimizeQuality"><path d="M5.4375 0.1562 Q3.3281 0.1562 2.2969 -1.5078 Q1.2656 -3.1719 1.2656 -6.5469 Q1.2656 -8.3438 1.5781 -9.6484 Q1.8906 -10.9531 2.4609 -11.8125 Q3.0312 -12.6719 3.8359 -13.0781 Q4.6406 -13.4844 5.5938 -13.4844 Q7.7188 -13.4844 8.7656 -11.8359 Q9.8125 -10.1875 9.8125 -6.8438 Q9.8125 -3.3906 8.6953 -1.6172 Q7.5781 0.1562 5.4375 0.1562 ZM3.1719 -6.8438 Q3.1719 -3.6562 3.7578 -2.1641 Q4.3438 -0.6719 5.5938 -0.6719 Q6.7656 -0.6719 7.3359 -2.0781 Q7.9062 -3.4844 7.9062 -6.4219 Q7.9062 -8.6562 7.6172 -10.0547 Q7.3281 -11.4531 6.8047 -12.0547 Q6.2812 -12.6562 5.5312 -12.6562 Q4.8594 -12.6562 4.4062 -12.2578 Q3.9531 -11.8594 3.6797 -11.1094 Q3.4062 -10.3594 3.2891 -9.2734 Q3.1719 -8.1875 3.1719 -6.8438 Z" stroke="none"/></g><g text-rendering="optimizeLegibility" transform="translate(71.1172,77.3777)" color-rendering="optimizeQuality" color-interpolation="linearRGB" image-rendering="optimizeQuality"><path d="M5.4375 0.1562 Q3.3281 0.1562 2.2969 -1.5078 Q1.2656 -3.1719 1.2656 -6.5469 Q1.2656 -8.3438 1.5781 -9.6484 Q1.8906 -10.9531 2.4609 -11.8125 Q3.0312 -12.6719 3.8359 -13.0781 Q4.6406 -13.4844 5.5938 -13.4844 Q7.7188 -13.4844 8.7656 -11.8359 Q9.8125 -10.1875 9.8125 -6.8438 Q9.8125 -3.3906 8.6953 -1.6172 Q7.5781 0.1562 5.4375 0.1562 ZM3.1719 -6.8438 Q3.1719 -3.6562 3.7578 -2.1641 Q4.3438 -0.6719 5.5938 -0.6719 Q6.7656 -0.6719 7.3359 -2.0781 Q7.9062 -3.4844 7.9062 -6.4219 Q7.9062 -8.6562 7.6172 -10.0547 Q7.3281 -11.4531 6.8047 -12.0547 Q6.2812 -12.6562 5.5312 -12.6562 Q4.8594 -12.6562 4.4062 -12.2578 Q3.9531 -11.8594 3.6797 -11.1094 Q3.4062 -10.3594 3.2891 -9.2734 Q3.1719 -8.1875 3.1719 -6.8438 Z" stroke="none"/></g><g text-rendering="optimizeLegibility" transform="translate(108.3207,77.3777)" color-rendering="optimizeQuality" color-interpolation="linearRGB" image-rendering="optimizeQuality"><path d="M5.4375 0.1562 Q3.3281 0.1562 2.2969 -1.5078 Q1.2656 -3.1719 1.2656 -6.5469 Q1.2656 -8.3438 1.5781 -9.6484 Q1.8906 -10.9531 2.4609 -11.8125 Q3.0312 -12.6719 3.8359 -13.0781 Q4.6406 -13.4844 5.5938 -13.4844 Q7.7188 -13.4844 8.7656 -11.8359 Q9.8125 -10.1875 9.8125 -6.8438 Q9.8125 -3.3906 8.6953 -1.6172 Q7.5781 0.1562 5.4375 0.1562 ZM3.1719 -6.8438 Q3.1719 -3.6562 3.7578 -2.1641 Q4.3438 -0.6719 5.5938 -0.6719 Q6.7656 -0.6719 7.3359 -2.0781 Q7.9062 -3.4844 7.9062 -6.4219 Q7.9062 -8.6562 7.6172 -10.0547 Q7.3281 -11.4531 6.8047 -12.0547 Q6.2812 -12.6562 5.5312 -12.6562 Q4.8594 -12.6562 4.4062 -12.2578 Q3.9531 -11.8594 3.6797 -11.1094 Q3.4062 -10.3594 3.2891 -9.2734 Q3.1719 -8.1875 3.1719 -6.8438 Z" stroke="none"/></g><g text-rendering="optimizeLegibility" transform="translate(139.0163,77.3777)" color-rendering="optimizeQuality" color-interpolation="linearRGB" image-rendering="optimizeQuality"><path d="M10.0625 -0.7656 Q8.9688 0.1562 7.875 0.1562 Q6.8125 0.1562 6.8125 -1.1719 Q6.8125 -1.6875 6.9844 -2.4219 L6.8594 -2.4844 Q5.0938 0.1562 3.5156 0.1562 Q2.5469 0.1562 2.1719 -0.7969 L2.0938 -0.7969 Q1.8438 0.7344 1.8438 2.4062 L1.8438 2.625 Q1.8438 2.7188 1.8594 2.8281 L1.7656 3.3594 L0.7812 3.9219 L-0.0938 3.9219 L2.8438 -9.3438 L4.4844 -9.3438 L3.3594 -4.3594 Q3.0156 -2.8438 3.0156 -2.3125 Q3.0156 -1 3.9375 -1 Q4.9062 -1 5.9766 -2.3828 Q7.0469 -3.7656 7.2812 -4.9219 L8.2656 -9.3438 L9.8906 -9.3438 L8.3438 -2.3594 Q8.25 -1.9688 8.25 -1.6875 Q8.25 -0.8281 8.8594 -0.8281 Q9.2344 -0.8281 9.8125 -1.2812 L10.0625 -0.7656 Z" stroke="none"/></g><g text-rendering="optimizeLegibility" transform="translate(149.0788,84.6198)" color-rendering="optimizeQuality" color-interpolation="linearRGB" image-rendering="optimizeQuality"><path d="M2.7188 -6.5938 L3.125 -6.5938 L2.6562 -4.9219 L2.7344 -4.8906 Q3.3906 -5.7812 4.0078 -6.2109 Q4.625 -6.6406 5.2812 -6.6406 Q5.7812 -6.6406 6.1094 -6.5625 L5.7812 -5.0312 L5.0781 -5.0312 Q5.0312 -5.3906 4.9141 -5.5781 Q4.7969 -5.7656 4.5469 -5.7656 Q4.2812 -5.7656 3.9297 -5.4922 Q3.5781 -5.2188 3.2188 -4.7422 Q2.8594 -4.2656 2.6797 -3.8594 Q2.5 -3.4531 2.4062 -2.9531 L1.7812 0 L0.5938 0 L1.6406 -4.6719 Q1.7812 -5.3125 1.7812 -5.6406 Q1.7812 -5.8438 1.7188 -5.9453 Q1.6562 -6.0469 1.5156 -6.1016 Q1.375 -6.1562 1.0469 -6.1719 L1.125 -6.5312 L2.7188 -6.5938 Z" stroke="none"/></g><g text-rendering="optimizeLegibility" transform="translate(155.2351,84.6198)" color-rendering="optimizeQuality" color-interpolation="linearRGB" image-rendering="optimizeQuality"><path d="M5.4531 -1.9219 L5.0312 0 L0.0781 0 L-0.0469 -0.3281 L3.6875 -4.6406 Q4.4844 -5.5469 4.8594 -5.9375 L4.8125 -5.9844 L3.2188 -5.9844 Q2.8594 -5.9844 2.6953 -5.9375 Q2.5312 -5.8906 2.3672 -5.7656 Q2.2031 -5.6406 2.0156 -5.4062 Q1.8281 -5.1719 1.5938 -4.7344 L0.9844 -4.7344 L1.3906 -6.5312 L6.25 -6.5312 L6.375 -6.1875 L1.4688 -0.6094 L1.5156 -0.5469 L3.0625 -0.5469 Q3.4688 -0.5469 3.6875 -0.5938 Q3.9062 -0.6406 4.0703 -0.7656 Q4.2344 -0.8906 4.4062 -1.1406 Q4.5781 -1.3906 4.8438 -1.9219 L5.4531 -1.9219 Z" stroke="none"/></g><g text-rendering="optimizeLegibility" transform="translate(163.1882,65.2649) matrix(1,0,0,4.6049,0,0)" color-rendering="optimizeQuality" color-interpolation="linearRGB" image-rendering="optimizeQuality"><path d="M4.7812 4.2031 L0.4219 4.2031 L0.4219 3.4062 L3.0625 3.4062 L3.0625 -13.1719 L0.4219 -13.1719 L0.4219 -13.9688 L4.7812 -13.9688 L4.7812 4.2031 Z" stroke="none"/></g></g></svg>