<?xml version="1.0" encoding="UTF-8" standalone="no"?><svg xmlns="http://www.w3.org/2000/svg" xmlns:xlink="http://www.w3.org/1999/xlink" stroke-dasharray="none" shape-rendering="auto" font-family="'Dialog'" width="69.812600" text-rendering="auto" fill-opacity="1" contentScriptType="text/ecmascript" color-interpolation="auto" color-rendering="auto" preserveAspectRatio="xMidYMid meet" font-size="12" fill="black" stroke="black" image-rendering="auto" stroke-miterlimit="10" zoomAndPan="magnify" version="1.0" stroke-linecap="square" stroke-linejoin="miter" contentStyleType="text/css" font-style="normal" height="23" stroke-width="1" stroke-dashoffset="0" font-weight="normal" stroke-opacity="1" y="-9.000000"><!--Converted from MathML using JEuclid--><defs id="genericDefs"/><g><g text-rendering="optimizeLegibility" transform="translate(0.7578,14)" color-rendering="optimizeQuality" color-interpolation="linearRGB" image-rendering="optimizeQuality"><path d="M2.3438 -0.7031 L1.2344 4.2188 L-0.3594 4.2188 L1.6094 -4.625 Q2.6875 -9.5 6.625 -9.5 Q8.0625 -9.5 8.8828 -8.6641 Q9.7031 -7.8281 9.7031 -6.2969 Q9.7031 -4.0312 8.2344 -1.9375 Q6.7656 0.1562 4.4062 0.1562 Q3.2188 0.1562 2.3438 -0.7031 ZM3.0781 -4.0781 L2.6719 -2.25 Q2.6406 -2.1094 2.6406 -1.9688 Q2.6406 -1.4688 3.2109 -1.0391 Q3.7812 -0.6094 4.4844 -0.6094 Q5.875 -0.6094 6.9297 -2.4766 Q7.9844 -4.3438 7.9844 -6.5312 Q7.9844 -8.7188 6.3125 -8.7188 Q4.0781 -8.7188 3.0781 -4.0781 Z" stroke="none"/></g><g text-rendering="optimizeLegibility" transform="translate(0.2232,14.625) matrix(1.0206,0,0,1,0,0)" color-rendering="optimizeQuality" color-interpolation="linearRGB" image-rendering="optimizeQuality"><path d="M9.9688 -11.125 L0.2344 -11.125 Q-0.0156 -11.125 -0.1172 -11.2266 Q-0.2188 -11.3281 -0.2188 -11.4844 Q-0.2188 -11.625 -0.1172 -11.7266 Q-0.0156 -11.8281 0.2344 -11.8281 L9.9688 -11.8281 Q10.2188 -11.8281 10.3203 -11.7266 Q10.4219 -11.625 10.4219 -11.4688 Q10.4219 -11.3281 10.3203 -11.2266 Q10.2188 -11.125 9.9688 -11.125 Z" stroke="none"/></g><g text-rendering="optimizeLegibility" transform="translate(0.2232,12.9219) matrix(1.0206,0,0,1,0,0)" color-rendering="optimizeQuality" color-interpolation="linearRGB" image-rendering="optimizeQuality"><path d="M9.9688 -11.125 L0.2344 -11.125 Q-0.0156 -11.125 -0.1172 -11.2266 Q-0.2188 -11.3281 -0.2188 -11.4844 Q-0.2188 -11.625 -0.1172 -11.7266 Q-0.0156 -11.8281 0.2344 -11.8281 L9.9688 -11.8281 Q10.2188 -11.8281 10.3203 -11.7266 Q10.4219 -11.625 10.4219 -11.4688 Q10.4219 -11.3281 10.3203 -11.2266 Q10.2188 -11.125 9.9688 -11.125 Z" stroke="none"/></g><g text-rendering="optimizeLegibility" transform="translate(11.6406,14)" color-rendering="optimizeQuality" color-interpolation="linearRGB" image-rendering="optimizeQuality"><path d="M1.2188 -7.0625 L1.2188 -8.4219 L9.8594 -8.4219 L9.8594 -7.0625 L1.2188 -7.0625 ZM1.2188 -3.0156 L1.2188 -4.3594 L9.8594 -4.3594 L9.8594 -3.0156 L1.2188 -3.0156 Z" stroke="none"/></g><g text-rendering="optimizeLegibility" transform="translate(23.8594,14)" color-rendering="optimizeQuality" color-interpolation="linearRGB" image-rendering="optimizeQuality"><path d="M2.3438 -0.7031 L1.2344 4.2188 L-0.3594 4.2188 L1.6094 -4.625 Q2.6875 -9.5 6.625 -9.5 Q8.0625 -9.5 8.8828 -8.6641 Q9.7031 -7.8281 9.7031 -6.2969 Q9.7031 -4.0312 8.2344 -1.9375 Q6.7656 0.1562 4.4062 0.1562 Q3.2188 0.1562 2.3438 -0.7031 ZM3.0781 -4.0781 L2.6719 -2.25 Q2.6406 -2.1094 2.6406 -1.9688 Q2.6406 -1.4688 3.2109 -1.0391 Q3.7812 -0.6094 4.4844 -0.6094 Q5.875 -0.6094 6.9297 -2.4766 Q7.9844 -4.3438 7.9844 -6.5312 Q7.9844 -8.7188 6.3125 -8.7188 Q4.0781 -8.7188 3.0781 -4.0781 Z" stroke="none"/></g><g text-rendering="optimizeLegibility" transform="translate(33.5625,22.8828)" color-rendering="optimizeQuality" color-interpolation="linearRGB" image-rendering="optimizeQuality"><path d="M3.7969 0.1094 Q2.3281 0.1094 1.6016 -1.0547 Q0.875 -2.2188 0.875 -4.5781 Q0.875 -5.8438 1.1016 -6.7578 Q1.3281 -7.6719 1.7266 -8.2656 Q2.125 -8.8594 2.6875 -9.1484 Q3.25 -9.4375 3.9062 -9.4375 Q5.4062 -9.4375 6.1406 -8.2812 Q6.875 -7.125 6.875 -4.7969 Q6.875 -2.375 6.0938 -1.1328 Q5.3125 0.1094 3.7969 0.1094 ZM2.2188 -4.7812 Q2.2188 -2.5625 2.6328 -1.5156 Q3.0469 -0.4688 3.9062 -0.4688 Q4.7344 -0.4688 5.1328 -1.4531 Q5.5312 -2.4375 5.5312 -4.4844 Q5.5312 -6.0625 5.3281 -7.0391 Q5.125 -8.0156 4.7578 -8.4375 Q4.3906 -8.8594 3.875 -8.8594 Q3.4062 -8.8594 3.0859 -8.5781 Q2.7656 -8.2969 2.5703 -7.7734 Q2.375 -7.25 2.2969 -6.4922 Q2.2188 -5.7344 2.2188 -4.7812 Z" stroke="none"/></g><g text-rendering="optimizeLegibility" transform="translate(40.2031,14)" color-rendering="optimizeQuality" color-interpolation="linearRGB" image-rendering="optimizeQuality"><path d="M6.5781 4.2031 L2.2344 4.2031 L2.2344 -13.9688 L6.5781 -13.9688 L6.5781 -13.1719 L3.9531 -13.1719 L3.9531 3.4062 L6.5781 3.4062 L6.5781 4.2031 Z" stroke="none"/></g><g text-rendering="optimizeLegibility" transform="translate(49.6875,14)" color-rendering="optimizeQuality" color-interpolation="linearRGB" image-rendering="optimizeQuality"><path d="M10.6875 0 L6.625 0 L6.75 -0.4844 Q7.2969 -0.5469 7.5859 -0.8906 Q7.875 -1.2344 7.875 -2.3125 L7.875 -2.7188 Q7.875 -2.9375 7.8594 -3.1875 L7.5625 -8.4844 Q7.5156 -9.5781 7.5156 -10.5312 L7.5156 -11.4375 L7.4062 -11.4375 L2.9531 -3.4844 Q2.2344 -2.2031 2.2344 -1.4688 Q2.2344 -0.6406 3.2188 -0.4844 L3.0938 0 L-0.9062 0 L-0.7969 -0.4844 Q-0.4062 -0.5156 0 -0.8984 Q0.4062 -1.2812 1.2188 -2.6719 L7.4531 -13.5 L8.9375 -13.5 L9.625 -2.5938 Q9.6875 -1.6094 9.9141 -1.0859 Q10.1406 -0.5625 10.7969 -0.4844 L10.6875 0 Z" stroke="none"/></g><g text-rendering="optimizeLegibility" transform="translate(62.0625,14)" color-rendering="optimizeQuality" color-interpolation="linearRGB" image-rendering="optimizeQuality"><path d="M4.7812 4.2031 L0.4219 4.2031 L0.4219 3.4062 L3.0625 3.4062 L3.0625 -13.1719 L0.4219 -13.1719 L0.4219 -13.9688 L4.7812 -13.9688 L4.7812 4.2031 Z" stroke="none"/></g></g></svg>