<?xml version="1.0" encoding="UTF-8" standalone="no"?><svg xmlns="http://www.w3.org/2000/svg" xmlns:xlink="http://www.w3.org/1999/xlink" stroke-dasharray="none" shape-rendering="auto" font-family="'Dialog'" width="95.812600" text-rendering="auto" fill-opacity="1" contentScriptType="text/ecmascript" color-interpolation="auto" color-rendering="auto" preserveAspectRatio="xMidYMid meet" font-size="12" fill="black" stroke="black" image-rendering="auto" stroke-miterlimit="10" zoomAndPan="magnify" version="1.0" stroke-linecap="square" stroke-linejoin="miter" contentStyleType="text/css" font-style="normal" height="90" stroke-width="1" stroke-dashoffset="0" font-weight="normal" stroke-opacity="1" y="-38.000000"><!--Converted from MathML using JEuclid--><defs id="genericDefs"/><g><g text-rendering="optimizeLegibility" transform="translate(0,19.2594)" color-rendering="optimizeQuality" color-interpolation="linearRGB" image-rendering="optimizeQuality"><path d="M10.2656 -11.5 L9.3594 -11.5 Q8.9688 -13.25 6.8438 -13.25 Q6.125 -13.25 5.6719 -12.9062 Q5.2188 -12.5625 5.2188 -12.0781 Q5.2188 -11.5625 5.5547 -11.0781 Q5.8906 -10.5938 7.2812 -9.0781 Q8.3906 -7.875 8.7891 -6.9297 Q9.1875 -5.9844 9.1875 -4.8125 Q9.1875 -2.9844 7.8672 -1.4141 Q6.5469 0.1562 4.2812 0.1562 Q2.6406 0.1562 1.7344 -0.875 Q0.8281 -1.9062 0.8281 -3.3594 Q0.8281 -5.4219 2.0469 -6.9531 Q3.2656 -8.4844 5.4219 -9.125 Q4.75 -9.8438 4.3438 -10.4922 Q3.9375 -11.1406 3.9375 -11.8438 Q3.9375 -12.7969 4.7422 -13.4141 Q5.5469 -14.0312 6.8906 -14.0312 Q9.1875 -14.0312 10.5312 -12.9219 L10.2656 -11.5 ZM5.875 -8.5 Q4.3438 -7.9844 3.4453 -6.5391 Q2.5469 -5.0938 2.5469 -3.0938 Q2.5469 -2.0156 3.0625 -1.3047 Q3.5781 -0.5938 4.4688 -0.5938 Q5.7344 -0.5938 6.5781 -1.9141 Q7.4219 -3.2344 7.4219 -4.8438 Q7.4219 -6.7188 5.875 -8.5 Z" stroke="none"/></g><g text-rendering="optimizeLegibility" transform="translate(11.3125,19.2594)" color-rendering="optimizeQuality" color-interpolation="linearRGB" image-rendering="optimizeQuality"><path d="M1.2188 -7.0625 L1.2188 -8.4219 L9.8594 -8.4219 L9.8594 -7.0625 L1.2188 -7.0625 ZM1.2188 -3.0156 L1.2188 -4.3594 L9.8594 -4.3594 L9.8594 -3.0156 L1.2188 -3.0156 Z" stroke="none"/></g><g text-rendering="optimizeLegibility" stroke-width="1.6667" color-interpolation="linearRGB" color-rendering="optimizeQuality" image-rendering="optimizeQuality"><line y2="12.0394" fill="none" x1="24.8497" x2="31.5059" y1="12.0394"/><path d="M4.75 -1.7812 Q4.75 -1.3906 4.7969 -1.1875 Q4.8438 -0.9844 4.9531 -0.8594 Q5.0625 -0.7344 5.2734 -0.6641 Q5.4844 -0.5938 5.8047 -0.5547 Q6.125 -0.5156 6.6562 -0.5 L6.6562 0 L1.6094 0 L1.6094 -0.5 Q2.3594 -0.5312 2.6875 -0.5938 Q3.0156 -0.6562 3.1875 -0.7656 Q3.3594 -0.875 3.4375 -1.0938 Q3.5156 -1.3125 3.5156 -1.7812 L3.5156 -7.3281 Q3.5156 -7.6094 3.4219 -7.7344 Q3.3281 -7.8594 3.1406 -7.8594 Q2.9219 -7.8594 2.5156 -7.6328 Q2.1094 -7.4062 1.5156 -7 L1.2188 -7.5312 L4.4219 -9.4375 L4.7969 -9.4375 Q4.75 -8.7812 4.75 -7.625 L4.75 -1.7812 Z" stroke-width="1" transform="translate(24.8497,9.5283)" stroke="none"/></g><g text-rendering="optimizeLegibility" transform="translate(24.8653,23.9881)" color-rendering="optimizeQuality" color-interpolation="linearRGB" image-rendering="optimizeQuality"><path d="M4.7969 -1.0938 Q5.1406 -1.0938 5.3438 -1.1328 Q5.5469 -1.1719 5.6719 -1.2734 Q5.7969 -1.375 5.8672 -1.5234 Q5.9375 -1.6719 6.0469 -2 L6.625 -2 L6.5156 0 L0.875 0 L0.875 -0.3281 Q1.1719 -1.0469 1.6719 -1.7969 Q2.1719 -2.5469 3.0938 -3.5625 Q3.8906 -4.4375 4.2344 -4.8906 Q4.6094 -5.3906 4.7969 -5.75 Q4.9844 -6.1094 5.0703 -6.4219 Q5.1562 -6.7344 5.1562 -7.0625 Q5.1562 -7.5781 4.9922 -7.9688 Q4.8281 -8.3594 4.4922 -8.5859 Q4.1562 -8.8125 3.6406 -8.8125 Q2.3594 -8.8125 1.9219 -7.3906 L1.0938 -7.3906 L1.0938 -8.7031 Q1.9219 -9.0938 2.6406 -9.2656 Q3.3594 -9.4375 3.9375 -9.4375 Q5.2031 -9.4375 5.8516 -8.8828 Q6.5 -8.3281 6.5 -7.2656 Q6.5 -6.9062 6.4297 -6.6016 Q6.3594 -6.2969 6.2031 -6 Q6.0469 -5.7031 5.7891 -5.3594 Q5.5312 -5.0156 5.2188 -4.6641 Q4.9062 -4.3125 4.125 -3.5 Q2.8281 -2.125 2.2188 -1.0938 L4.7969 -1.0938 Z" stroke="none"/></g><g text-rendering="optimizeLegibility" transform="translate(35.6316,19.2594)" color-rendering="optimizeQuality" color-interpolation="linearRGB" image-rendering="optimizeQuality"><path d="M6.25 -5.0469 L6.25 -1.3438 L4.8125 -1.3438 L4.8125 -5.0469 L1.2188 -5.0469 L1.2188 -6.3906 L4.8125 -6.3906 L4.8125 -10.0938 L6.25 -10.0938 L6.25 -6.3906 L9.8594 -6.3906 L9.8594 -5.0469 L6.25 -5.0469 Z" stroke="none"/></g><g text-rendering="optimizeLegibility" transform="translate(47.491,19.2594)" color-rendering="optimizeQuality" color-interpolation="linearRGB" image-rendering="optimizeQuality"><path d="M10.3594 -8.8906 Q6.8125 -4.625 4.1562 -0.0938 Q4.1094 0.4062 3.9688 1.0156 Q3.8125 1.625 3.7031 2.2188 Q3.5781 2.8281 3.2969 3.9219 L1.9219 3.9219 L1.6406 3.4375 L1.7188 3.1719 Q2.1562 1.6875 2.9375 0.1719 Q3.1406 -2.2969 3.1406 -4 Q3.1406 -8.4531 1.7969 -8.4531 Q1.3594 -8.4531 0.8594 -8.0312 L0.4844 -8.4531 Q1.625 -9.5 2.7031 -9.5 Q4.7031 -9.5 4.7031 -5.3594 Q4.7031 -3.9219 4.4375 -2.0625 L4.5 -2.0625 Q7.3281 -6.8281 8.4844 -9.3438 L10.1719 -9.3438 L10.3594 -8.8906 Z" stroke="none"/></g><g text-rendering="optimizeLegibility" transform="translate(0,57.3968)" color-rendering="optimizeQuality" color-interpolation="linearRGB" image-rendering="optimizeQuality"><path d="M11.6094 -9.0469 Q9.7812 -6.8281 8.5 -4.8125 Q8.3438 -3.2656 8.3438 -2.4062 Q8.3438 -1.5781 8.5156 -1.2266 Q8.6875 -0.875 9.1094 -0.875 Q9.5625 -0.875 10.2188 -1.4688 L10.5312 -0.9844 Q9.2812 0.1562 8.1406 0.1562 Q6.7656 0.1562 6.7656 -1.9062 Q6.7656 -2.25 6.7969 -2.6562 L6.7656 -2.6562 Q4.8125 0.1562 2.9062 0.1562 Q1.9375 0.1562 1.3828 -0.6875 Q0.8281 -1.5312 0.8281 -2.8281 Q0.8281 -5.3594 2.3203 -7.4297 Q3.8125 -9.5 6.0625 -9.5 Q8.1719 -9.5 8.4375 -6.8125 L8.4844 -6.8125 L9.75 -9.3125 L11.4219 -9.3125 L11.6094 -9.0469 ZM7.0938 -4.7344 Q7.2188 -6.125 7.2188 -6.7188 Q7.2188 -7.8125 6.9297 -8.2656 Q6.6406 -8.7188 5.9844 -8.7188 Q4.5469 -8.7188 3.5469 -6.9062 Q2.5469 -5.0938 2.5469 -2.75 Q2.5469 -2 2.8516 -1.5 Q3.1562 -1 3.6562 -1 Q5.5 -1 7.0938 -4.7344 Z" stroke="none"/></g><g text-rendering="optimizeLegibility" transform="translate(12.3906,57.3968)" color-rendering="optimizeQuality" color-interpolation="linearRGB" image-rendering="optimizeQuality"><path d="M1.2188 -7.0625 L1.2188 -8.4219 L9.8594 -8.4219 L9.8594 -7.0625 L1.2188 -7.0625 ZM1.2188 -3.0156 L1.2188 -4.3594 L9.8594 -4.3594 L9.8594 -3.0156 L1.2188 -3.0156 Z" stroke="none"/></g><g text-rendering="optimizeLegibility" stroke-width="1.6667" color-interpolation="linearRGB" color-rendering="optimizeQuality" image-rendering="optimizeQuality"><line y2="50.1768" fill="none" x1="25.9278" x2="33.1465" y1="50.1768"/><path d="M4.75 -1.7812 Q4.75 -1.3906 4.7969 -1.1875 Q4.8438 -0.9844 4.9531 -0.8594 Q5.0625 -0.7344 5.2734 -0.6641 Q5.4844 -0.5938 5.8047 -0.5547 Q6.125 -0.5156 6.6562 -0.5 L6.6562 0 L1.6094 0 L1.6094 -0.5 Q2.3594 -0.5312 2.6875 -0.5938 Q3.0156 -0.6562 3.1875 -0.7656 Q3.3594 -0.875 3.4375 -1.0938 Q3.5156 -1.3125 3.5156 -1.7812 L3.5156 -7.3281 Q3.5156 -7.6094 3.4219 -7.7344 Q3.3281 -7.8594 3.1406 -7.8594 Q2.9219 -7.8594 2.5156 -7.6328 Q2.1094 -7.4062 1.5156 -7 L1.2188 -7.5312 L4.4219 -9.4375 L4.7969 -9.4375 Q4.75 -8.7812 4.75 -7.625 L4.75 -1.7812 Z" stroke-width="1" transform="translate(26.209,47.6657)" stroke="none"/></g><g text-rendering="optimizeLegibility" transform="translate(25.9278,62.0629)" color-rendering="optimizeQuality" color-interpolation="linearRGB" image-rendering="optimizeQuality"><path d="M3.5312 -0.3281 Q3.9531 -0.4375 4.0938 -0.5781 Q4.2344 -0.7188 4.2812 -0.9609 Q4.3281 -1.2031 4.3281 -1.7031 L4.3281 -2.8281 L0.5312 -2.8281 L0.5312 -3.3438 L4.5312 -9.375 L5.5 -9.375 L5.5 -3.5 L5.6406 -3.5 Q6.0469 -3.5 6.2188 -3.5547 Q6.3906 -3.6094 6.5 -3.7578 Q6.6094 -3.9062 6.7031 -4.2344 L7.2188 -4.2344 L7.1406 -2.8281 L5.5 -2.8281 L5.5 -1.7031 Q5.5 -1.25 5.5312 -1.0391 Q5.5625 -0.8281 5.6328 -0.7031 Q5.7031 -0.5781 5.8438 -0.5 Q5.9844 -0.4219 6.2969 -0.3281 L6.2969 0 L3.5312 0 L3.5312 -0.3281 ZM1.6562 -3.5 L4.3281 -3.5 L4.3281 -5.2031 Q4.3281 -5.8438 4.3516 -6.6406 Q4.375 -7.4375 4.3906 -7.8281 L4.3281 -7.8281 L1.6562 -3.5938 L1.6562 -3.5 Z" stroke="none"/></g><g text-rendering="optimizeLegibility" transform="translate(36.7253,56.3092) matrix(1,0,0,1.2559,0,0)" color-rendering="optimizeQuality" color-interpolation="linearRGB" image-rendering="optimizeQuality"><path d="M7.2188 4.25 Q5.5625 4.25 4.5078 3.75 Q3.4531 3.25 2.8672 2.2344 Q2.2812 1.2188 2.0234 -0.4141 Q1.7656 -2.0469 1.7656 -4.8438 Q1.7656 -7.625 2.0234 -9.2656 Q2.2812 -10.9062 2.8672 -11.9453 Q3.4531 -12.9844 4.5078 -13.5 Q5.5625 -14.0156 7.2188 -14.0156 L7.2188 -13.2188 Q6.5312 -13.2188 6 -13.0938 Q5.4062 -12.9531 4.9844 -12.5625 Q4.5156 -12.1406 4.2344 -11.375 Q3.8906 -10.4688 3.7188 -8.9844 Q3.5469 -7.4062 3.5469 -4.9219 Q3.5469 -2.7188 3.6953 -1.1797 Q3.8438 0.3594 4.1875 1.3281 Q4.4531 2.1562 4.8594 2.6094 Q5.2188 3.0156 5.7188 3.2188 Q6.2969 3.4531 7.2188 3.4531 L7.2188 4.25 Z" stroke="none"/></g><g text-rendering="optimizeLegibility" transform="translate(45.9441,57.3968)" color-rendering="optimizeQuality" color-interpolation="linearRGB" image-rendering="optimizeQuality"><path d="M6.7812 -2.5469 Q6.7812 -1.9844 6.8516 -1.6953 Q6.9219 -1.4062 7.0781 -1.2266 Q7.2344 -1.0469 7.5391 -0.9453 Q7.8438 -0.8438 8.3047 -0.7891 Q8.7656 -0.7344 9.5156 -0.7188 L9.5156 0 L2.2969 0 L2.2969 -0.7188 Q3.375 -0.7656 3.8438 -0.8438 Q4.3125 -0.9219 4.5547 -1.0938 Q4.7969 -1.2656 4.9062 -1.5625 Q5.0156 -1.8594 5.0156 -2.5469 L5.0156 -10.4688 Q5.0156 -10.8594 4.8828 -11.0391 Q4.75 -11.2188 4.4844 -11.2188 Q4.1719 -11.2188 3.5938 -10.8984 Q3.0156 -10.5781 2.1719 -10.0156 L1.7344 -10.7656 L6.3125 -13.4844 L6.8438 -13.4844 Q6.7812 -12.5469 6.7812 -10.8906 L6.7812 -2.5469 Z" stroke="none"/></g><g text-rendering="optimizeLegibility" transform="translate(56.241,57.3968)" color-rendering="optimizeQuality" color-interpolation="linearRGB" image-rendering="optimizeQuality"><path d="M6.25 -5.0469 L6.25 -1.3438 L4.8125 -1.3438 L4.8125 -5.0469 L1.2188 -5.0469 L1.2188 -6.3906 L4.8125 -6.3906 L4.8125 -10.0938 L6.25 -10.0938 L6.25 -6.3906 L9.8594 -6.3906 L9.8594 -5.0469 L6.25 -5.0469 Z" stroke="none"/></g><g text-rendering="optimizeLegibility" transform="translate(68.1003,57.3968)" color-rendering="optimizeQuality" color-interpolation="linearRGB" image-rendering="optimizeQuality"><path d="M10.3594 -8.8906 Q6.8125 -4.625 4.1562 -0.0938 Q4.1094 0.4062 3.9688 1.0156 Q3.8125 1.625 3.7031 2.2188 Q3.5781 2.8281 3.2969 3.9219 L1.9219 3.9219 L1.6406 3.4375 L1.7188 3.1719 Q2.1562 1.6875 2.9375 0.1719 Q3.1406 -2.2969 3.1406 -4 Q3.1406 -8.4531 1.7969 -8.4531 Q1.3594 -8.4531 0.8594 -8.0312 L0.4844 -8.4531 Q1.625 -9.5 2.7031 -9.5 Q4.7031 -9.5 4.7031 -5.3594 Q4.7031 -3.9219 4.4375 -2.0625 L4.5 -2.0625 Q7.3281 -6.8281 8.4844 -9.3438 L10.1719 -9.3438 L10.3594 -8.8906 Z" stroke="none"/></g><g text-rendering="optimizeLegibility" transform="translate(80.0378,56.3092) matrix(1,0,0,1.2559,0,0)" color-rendering="optimizeQuality" color-interpolation="linearRGB" image-rendering="optimizeQuality"><path d="M0.4219 -14.0156 Q2.0781 -14.0156 3.1328 -13.5156 Q4.1875 -13.0156 4.7734 -12 Q5.3594 -10.9844 5.6172 -9.3516 Q5.875 -7.7188 5.875 -4.9219 Q5.875 -2.1562 5.6172 -0.5078 Q5.3594 1.1406 4.7734 2.1797 Q4.1875 3.2188 3.1328 3.7344 Q2.0781 4.25 0.4219 4.25 L0.4219 3.4531 Q1.1094 3.4531 1.625 3.3281 Q2.2344 3.1875 2.6406 2.7969 Q3.1094 2.375 3.4062 1.6094 Q3.75 0.7031 3.9219 -0.7812 Q4.0938 -2.3594 4.0938 -4.8438 Q4.0938 -7.0469 3.9453 -8.5859 Q3.7969 -10.125 3.4531 -11.0938 Q3.1875 -11.9219 2.7812 -12.375 Q2.4062 -12.7812 1.9219 -12.9844 Q1.3438 -13.2188 0.4219 -13.2188 L0.4219 -14.0156 Z" stroke="none"/></g><g text-rendering="optimizeLegibility" transform="translate(87.9128,43.4256)" color-rendering="optimizeQuality" color-interpolation="linearRGB" image-rendering="optimizeQuality"><path d="M4.7969 -1.0938 Q5.1406 -1.0938 5.3438 -1.1328 Q5.5469 -1.1719 5.6719 -1.2734 Q5.7969 -1.375 5.8672 -1.5234 Q5.9375 -1.6719 6.0469 -2 L6.625 -2 L6.5156 0 L0.875 0 L0.875 -0.3281 Q1.1719 -1.0469 1.6719 -1.7969 Q2.1719 -2.5469 3.0938 -3.5625 Q3.8906 -4.4375 4.2344 -4.8906 Q4.6094 -5.3906 4.7969 -5.75 Q4.9844 -6.1094 5.0703 -6.4219 Q5.1562 -6.7344 5.1562 -7.0625 Q5.1562 -7.5781 4.9922 -7.9688 Q4.8281 -8.3594 4.4922 -8.5859 Q4.1562 -8.8125 3.6406 -8.8125 Q2.3594 -8.8125 1.9219 -7.3906 L1.0938 -7.3906 L1.0938 -8.7031 Q1.9219 -9.0938 2.6406 -9.2656 Q3.3594 -9.4375 3.9375 -9.4375 Q5.2031 -9.4375 5.8516 -8.8828 Q6.5 -8.3281 6.5 -7.2656 Q6.5 -6.9062 6.4297 -6.6016 Q6.3594 -6.2969 6.2031 -6 Q6.0469 -5.7031 5.7891 -5.3594 Q5.5312 -5.0156 5.2188 -4.6641 Q4.9062 -4.3125 4.125 -3.5 Q2.8281 -2.125 2.2188 -1.0938 L4.7969 -1.0938 Z" stroke="none"/></g><g text-rendering="optimizeLegibility" transform="translate(0,85.5473)" color-rendering="optimizeQuality" color-interpolation="linearRGB" image-rendering="optimizeQuality"><path d="M10.3594 -8.8906 Q6.8125 -4.625 4.1562 -0.0938 Q4.1094 0.4062 3.9688 1.0156 Q3.8125 1.625 3.7031 2.2188 Q3.5781 2.8281 3.2969 3.9219 L1.9219 3.9219 L1.6406 3.4375 L1.7188 3.1719 Q2.1562 1.6875 2.9375 0.1719 Q3.1406 -2.2969 3.1406 -4 Q3.1406 -8.4531 1.7969 -8.4531 Q1.3594 -8.4531 0.8594 -8.0312 L0.4844 -8.4531 Q1.625 -9.5 2.7031 -9.5 Q4.7031 -9.5 4.7031 -5.3594 Q4.7031 -3.9219 4.4375 -2.0625 L4.5 -2.0625 Q7.3281 -6.8281 8.4844 -9.3438 L10.1719 -9.3438 L10.3594 -8.8906 Z" stroke="none"/></g><g text-rendering="optimizeLegibility" transform="translate(11.1406,85.5473)" color-rendering="optimizeQuality" color-interpolation="linearRGB" image-rendering="optimizeQuality"><path d="M9.8594 -6.1562 L1.2188 -2.4531 L1.2188 -3.9219 L8.4219 -6.8438 L1.2188 -9.7812 L1.2188 -11.2344 L9.8594 -7.5312 L9.8594 -6.1562 ZM9.8594 -0.25 L1.2188 -0.25 L1.2188 -1.6094 L9.8594 -1.6094 L9.8594 -0.25 Z" stroke="none"/></g><g text-rendering="optimizeLegibility" transform="translate(23,85.5473)" color-rendering="optimizeQuality" color-interpolation="linearRGB" image-rendering="optimizeQuality"><path d="M5.4375 0.1562 Q3.3281 0.1562 2.2969 -1.5078 Q1.2656 -3.1719 1.2656 -6.5469 Q1.2656 -8.3438 1.5781 -9.6484 Q1.8906 -10.9531 2.4609 -11.8125 Q3.0312 -12.6719 3.8359 -13.0781 Q4.6406 -13.4844 5.5938 -13.4844 Q7.7188 -13.4844 8.7656 -11.8359 Q9.8125 -10.1875 9.8125 -6.8438 Q9.8125 -3.3906 8.6953 -1.6172 Q7.5781 0.1562 5.4375 0.1562 ZM3.1719 -6.8438 Q3.1719 -3.6562 3.7578 -2.1641 Q4.3438 -0.6719 5.5938 -0.6719 Q6.7656 -0.6719 7.3359 -2.0781 Q7.9062 -3.4844 7.9062 -6.4219 Q7.9062 -8.6562 7.6172 -10.0547 Q7.3281 -11.4531 6.8047 -12.0547 Q6.2812 -12.6562 5.5312 -12.6562 Q4.8594 -12.6562 4.4062 -12.2578 Q3.9531 -11.8594 3.6797 -11.1094 Q3.4062 -10.3594 3.2891 -9.2734 Q3.1719 -8.1875 3.1719 -6.8438 Z" stroke="none"/></g></g></svg>