<?xml version="1.0" encoding="UTF-8" standalone="no"?><svg xmlns="http://www.w3.org/2000/svg" xmlns:xlink="http://www.w3.org/1999/xlink" stroke-dasharray="none" shape-rendering="auto" font-family="'Dialog'" width="604.812600" text-rendering="auto" fill-opacity="1" contentScriptType="text/ecmascript" color-interpolation="auto" color-rendering="auto" preserveAspectRatio="xMidYMid meet" font-size="12" fill="black" stroke="black" image-rendering="auto" stroke-miterlimit="10" zoomAndPan="magnify" version="1.0" stroke-linecap="square" stroke-linejoin="miter" contentStyleType="text/css" font-style="normal" height="72" stroke-width="1" stroke-dashoffset="0" font-weight="normal" stroke-opacity="1" y="-29.000000"><!--Converted from MathML using JEuclid--><defs id="genericDefs"/><g><g text-rendering="optimizeLegibility" transform="translate(0.2344,52.1843) matrix(1,0,0,3.3596,0,0)" color-rendering="optimizeQuality" color-interpolation="linearRGB" image-rendering="optimizeQuality"><path d="M7.2188 4.25 Q5.5625 4.25 4.5078 3.75 Q3.4531 3.25 2.8672 2.2344 Q2.2812 1.2188 2.0234 -0.4141 Q1.7656 -2.0469 1.7656 -4.8438 Q1.7656 -7.625 2.0234 -9.2656 Q2.2812 -10.9062 2.8672 -11.9453 Q3.4531 -12.9844 4.5078 -13.5 Q5.5625 -14.0156 7.2188 -14.0156 L7.2188 -13.2188 Q6.5312 -13.2188 6 -13.0938 Q5.4062 -12.9531 4.9844 -12.5625 Q4.5156 -12.1406 4.2344 -11.375 Q3.8906 -10.4688 3.7188 -8.9844 Q3.5469 -7.4062 3.5469 -4.9219 Q3.5469 -2.7188 3.6953 -1.1797 Q3.8438 0.3594 4.1875 1.3281 Q4.4531 2.1562 4.8594 2.6094 Q5.2188 3.0156 5.7188 3.2188 Q6.2969 3.4531 7.2188 3.4531 L7.2188 4.25 Z" stroke="none"/></g><g text-rendering="optimizeLegibility" transform="translate(10.2188,43)" color-rendering="optimizeQuality" color-interpolation="linearRGB" image-rendering="optimizeQuality"><path d="M1.2344 -5.0469 L1.2344 -6.3906 L9.8281 -6.3906 L9.8281 -5.0469 L1.2344 -5.0469 Z" stroke="none"/></g><g text-rendering="optimizeLegibility" transform="translate(22.0469,43)" color-rendering="optimizeQuality" color-interpolation="linearRGB" image-rendering="optimizeQuality"><path d="M6.8125 -1.6875 L6.7812 -1.6875 Q5.7812 0.1562 3.7031 0.1562 Q2.4219 0.1562 1.6484 -0.6406 Q0.875 -1.4375 0.875 -2.9219 Q0.875 -4.7656 2.0312 -6.4766 Q3.1875 -8.1875 5.3281 -9.5 L5.7188 -8.8438 Q4.3438 -7.7812 3.4531 -6.1094 Q2.5625 -4.4375 2.5625 -2.8438 Q2.5625 -1.7031 3.0234 -1.1562 Q3.4844 -0.6094 4.2188 -0.6094 Q4.8906 -0.6094 5.4375 -1.2266 Q5.9844 -1.8438 6.2031 -2.9219 L6.9375 -6.6094 L8.5781 -6.6094 L7.7969 -2.8438 Q7.7188 -2.4219 7.7188 -2.0781 Q7.7188 -1.3906 8.0547 -1 Q8.3906 -0.6094 8.9844 -0.6094 Q10.1875 -0.6094 10.9922 -2.1094 Q11.7969 -3.6094 11.7969 -5.7812 Q11.7969 -7.8125 11 -8.9375 L11.5625 -9.5 Q13.5156 -7.6406 13.5156 -5.3594 Q13.5156 -3.125 12.2344 -1.4844 Q10.9531 0.1562 8.9688 0.1562 Q7.1562 0.1562 6.8125 -1.6875 Z" stroke="none"/></g><g text-rendering="optimizeLegibility" transform="translate(35.5625,38.2188)" color-rendering="optimizeQuality" color-interpolation="linearRGB" image-rendering="optimizeQuality"><path d="M4.7969 -1.0938 Q5.1406 -1.0938 5.3438 -1.1328 Q5.5469 -1.1719 5.6719 -1.2734 Q5.7969 -1.375 5.8672 -1.5234 Q5.9375 -1.6719 6.0469 -2 L6.625 -2 L6.5156 0 L0.875 0 L0.875 -0.3281 Q1.1719 -1.0469 1.6719 -1.7969 Q2.1719 -2.5469 3.0938 -3.5625 Q3.8906 -4.4375 4.2344 -4.8906 Q4.6094 -5.3906 4.7969 -5.75 Q4.9844 -6.1094 5.0703 -6.4219 Q5.1562 -6.7344 5.1562 -7.0625 Q5.1562 -7.5781 4.9922 -7.9688 Q4.8281 -8.3594 4.4922 -8.5859 Q4.1562 -8.8125 3.6406 -8.8125 Q2.3594 -8.8125 1.9219 -7.3906 L1.0938 -7.3906 L1.0938 -8.7031 Q1.9219 -9.0938 2.6406 -9.2656 Q3.3594 -9.4375 3.9375 -9.4375 Q5.2031 -9.4375 5.8516 -8.8828 Q6.5 -8.3281 6.5 -7.2656 Q6.5 -6.9062 6.4297 -6.6016 Q6.3594 -6.2969 6.2031 -6 Q6.0469 -5.7031 5.7891 -5.3594 Q5.5312 -5.0156 5.2188 -4.6641 Q4.9062 -4.3125 4.125 -3.5 Q2.8281 -2.125 2.2188 -1.0938 L4.7969 -1.0938 Z" stroke="none"/></g><g text-rendering="optimizeLegibility" transform="translate(41.9531,52.2269) matrix(1,0,0,3.3683,0,0)" color-rendering="optimizeQuality" color-interpolation="linearRGB" image-rendering="optimizeQuality"><path d="M6.5781 4.2031 L2.2344 4.2031 L2.2344 -13.9688 L6.5781 -13.9688 L6.5781 -13.1719 L3.9531 -13.1719 L3.9531 3.4062 L6.5781 3.4062 L6.5781 4.2031 Z" stroke="none"/></g><g text-rendering="optimizeLegibility" transform="translate(50.2969,18.84) matrix(1,0,0,1.32,0,0)" color-rendering="optimizeQuality" color-interpolation="linearRGB" image-rendering="optimizeQuality"><path d="M6.5781 4.2031 L2.2344 4.2031 L2.2344 -13.9688 L6.5781 -13.9688 L6.5781 -13.1719 L3.9531 -13.1719 L3.9531 3.4062 L6.5781 3.4062 L6.5781 4.2031 Z" stroke="none"/></g><g text-rendering="optimizeLegibility" transform="translate(58.875,19.6147)" color-rendering="optimizeQuality" color-interpolation="linearRGB" image-rendering="optimizeQuality"><path d="M13.25 -13.3281 L16.3125 -13.3281 L16.2188 -12.8594 Q15.8438 -12.7812 15.6797 -12.6797 Q15.5156 -12.5781 15.3828 -12.3828 Q15.25 -12.1875 15.1172 -11.7734 Q14.9844 -11.3594 14.7812 -10.4219 L13.1094 -2.8438 Q12.9844 -2.2656 12.9453 -1.9297 Q12.9062 -1.5938 12.9062 -1.3125 Q12.9062 -0.875 13.125 -0.6953 Q13.3438 -0.5156 13.875 -0.4844 L13.7656 0 L9.8594 0 L9.9688 -0.4844 Q10.3281 -0.5312 10.5156 -0.6641 Q10.7031 -0.7969 10.8281 -1.0312 Q10.9531 -1.2656 11.0625 -1.6016 Q11.1719 -1.9375 11.3906 -2.9062 L12.6875 -8.7969 Q12.9375 -9.9688 13.3281 -11.2969 L13.1875 -11.2969 Q12.9062 -10.7656 12.6328 -10.2812 Q12.3594 -9.7969 11.8125 -8.8906 L7.3594 -1.5469 L6.2969 -1.5469 L5.3594 -8.875 L5.0938 -11.5 L4.9062 -11.5 Q4.5312 -9.0469 4.1562 -7.3594 L3.2188 -3.0938 Q3.0625 -2.3594 3.0078 -1.9922 Q2.9531 -1.625 2.9531 -1.3125 Q2.9531 -0.875 3.1797 -0.6953 Q3.4062 -0.5156 3.9219 -0.4844 L3.8125 0 L0.3906 0 L0.5 -0.4844 Q0.875 -0.5312 1.0547 -0.6641 Q1.2344 -0.7969 1.3672 -1.0312 Q1.5 -1.2656 1.6016 -1.6016 Q1.7031 -1.9375 1.9219 -2.9062 L3.5781 -10.4375 Q3.6875 -10.8438 3.7422 -11.2266 Q3.7969 -11.6094 3.7969 -12 Q3.7969 -12.4688 3.5625 -12.6484 Q3.3281 -12.8281 2.8438 -12.8594 L2.9531 -13.3281 L6.4375 -13.3281 L7.5469 -3.8594 L13.25 -13.3281 Z" stroke="none"/></g><g text-rendering="optimizeLegibility" transform="translate(75.1875,24.2787)" color-rendering="optimizeQuality" color-interpolation="linearRGB" image-rendering="optimizeQuality"><path d="M1.0938 -2.125 Q1.0938 -1.2969 1.4766 -0.8906 Q1.8594 -0.4844 2.6719 -0.4844 Q3.2969 -0.4844 3.75 -0.7188 Q4.2031 -0.9531 4.4297 -1.3828 Q4.6562 -1.8125 4.6562 -2.3906 Q4.6562 -2.8125 4.5156 -3.1328 Q4.375 -3.4531 4.0781 -3.7422 Q3.7812 -4.0312 3.2188 -4.4062 Q2.7031 -4.75 2.3672 -5.0781 Q2.0312 -5.4062 1.8359 -5.8203 Q1.6406 -6.2344 1.6406 -6.7344 Q1.6406 -7.5469 2.0312 -8.1562 Q2.4219 -8.7656 3.1328 -9.1016 Q3.8438 -9.4375 4.7656 -9.4375 Q5.4062 -9.4375 5.9375 -9.3516 Q6.4688 -9.2656 7.125 -9.0625 L6.7344 -7.3125 L6.0781 -7.3125 Q6.0625 -7.8906 5.9062 -8.2188 Q5.75 -8.5469 5.4766 -8.6953 Q5.2031 -8.8438 4.7344 -8.8438 Q4.1562 -8.8438 3.7266 -8.6094 Q3.2969 -8.375 3.0703 -7.9766 Q2.8438 -7.5781 2.8438 -7.0781 Q2.8438 -6.7344 2.9688 -6.4531 Q3.0938 -6.1719 3.3672 -5.8984 Q3.6406 -5.625 4.1562 -5.2656 Q4.8281 -4.8125 5.1797 -4.4453 Q5.5312 -4.0781 5.6953 -3.6641 Q5.8594 -3.25 5.8594 -2.7188 Q5.8594 -1.8906 5.4609 -1.2422 Q5.0625 -0.5938 4.3359 -0.2422 Q3.6094 0.1094 2.6875 0.1094 Q2.0469 0.1094 1.3281 0.0156 Q0.6094 -0.0781 0.0156 -0.25 L0.4375 -2.125 L1.0938 -2.125 Z" stroke="none"/></g><g text-rendering="optimizeLegibility" transform="translate(83.8906,18.84) matrix(1,0,0,1.32,0,0)" color-rendering="optimizeQuality" color-interpolation="linearRGB" image-rendering="optimizeQuality"><path d="M4.7812 4.2031 L0.4219 4.2031 L0.4219 3.4062 L3.0625 3.4062 L3.0625 -13.1719 L0.4219 -13.1719 L0.4219 -13.9688 L4.7812 -13.9688 L4.7812 4.2031 Z" stroke="none"/></g><g text-rendering="optimizeLegibility" transform="translate(138.0616,19.6147)" color-rendering="optimizeQuality" color-interpolation="linearRGB" image-rendering="optimizeQuality"><path d="M5.4375 0.1562 Q3.3281 0.1562 2.2969 -1.5078 Q1.2656 -3.1719 1.2656 -6.5469 Q1.2656 -8.3438 1.5781 -9.6484 Q1.8906 -10.9531 2.4609 -11.8125 Q3.0312 -12.6719 3.8359 -13.0781 Q4.6406 -13.4844 5.5938 -13.4844 Q7.7188 -13.4844 8.7656 -11.8359 Q9.8125 -10.1875 9.8125 -6.8438 Q9.8125 -3.3906 8.6953 -1.6172 Q7.5781 0.1562 5.4375 0.1562 ZM3.1719 -6.8438 Q3.1719 -3.6562 3.7578 -2.1641 Q4.3438 -0.6719 5.5938 -0.6719 Q6.7656 -0.6719 7.3359 -2.0781 Q7.9062 -3.4844 7.9062 -6.4219 Q7.9062 -8.6562 7.6172 -10.0547 Q7.3281 -11.4531 6.8047 -12.0547 Q6.2812 -12.6562 5.5312 -12.6562 Q4.8594 -12.6562 4.4062 -12.2578 Q3.9531 -11.8594 3.6797 -11.1094 Q3.4062 -10.3594 3.2891 -9.2734 Q3.1719 -8.1875 3.1719 -6.8438 Z" stroke="none"/></g><g text-rendering="optimizeLegibility" transform="translate(65.6953,61.6498)" color-rendering="optimizeQuality" color-interpolation="linearRGB" image-rendering="optimizeQuality"><path d="M5.4375 0.1562 Q3.3281 0.1562 2.2969 -1.5078 Q1.2656 -3.1719 1.2656 -6.5469 Q1.2656 -8.3438 1.5781 -9.6484 Q1.8906 -10.9531 2.4609 -11.8125 Q3.0312 -12.6719 3.8359 -13.0781 Q4.6406 -13.4844 5.5938 -13.4844 Q7.7188 -13.4844 8.7656 -11.8359 Q9.8125 -10.1875 9.8125 -6.8438 Q9.8125 -3.3906 8.6953 -1.6172 Q7.5781 0.1562 5.4375 0.1562 ZM3.1719 -6.8438 Q3.1719 -3.6562 3.7578 -2.1641 Q4.3438 -0.6719 5.5938 -0.6719 Q6.7656 -0.6719 7.3359 -2.0781 Q7.9062 -3.4844 7.9062 -6.4219 Q7.9062 -8.6562 7.6172 -10.0547 Q7.3281 -11.4531 6.8047 -12.0547 Q6.2812 -12.6562 5.5312 -12.6562 Q4.8594 -12.6562 4.4062 -12.2578 Q3.9531 -11.8594 3.6797 -11.1094 Q3.4062 -10.3594 3.2891 -9.2734 Q3.1719 -8.1875 3.1719 -6.8438 Z" stroke="none"/></g><g text-rendering="optimizeLegibility" transform="translate(104.8597,61.6498)" color-rendering="optimizeQuality" color-interpolation="linearRGB" image-rendering="optimizeQuality"><path d="M1.2344 -5.0469 L1.2344 -6.3906 L9.8281 -6.3906 L9.8281 -5.0469 L1.2344 -5.0469 Z" stroke="none"/></g><g text-rendering="optimizeLegibility" stroke-width="1.6667" color-interpolation="linearRGB" color-rendering="optimizeQuality" image-rendering="optimizeQuality"><line y2="54.4298" fill="none" x1="118.3656" x2="141.7719" y1="54.4298"/><path d="M4.6094 2.9375 L1.5625 2.9375 L1.5625 -9.7812 L4.6094 -9.7812 L4.6094 -9.2188 L2.7656 -9.2188 L2.7656 2.375 L4.6094 2.375 L4.6094 2.9375 Z" stroke-width="1" transform="translate(116.8031,47.9204) matrix(1,0,0,1.3611,0,0)" stroke="none"/></g><g text-rendering="optimizeLegibility" transform="translate(121.4125,48.5828)" color-rendering="optimizeQuality" color-interpolation="linearRGB" image-rendering="optimizeQuality"><path d="M9.2656 -9.3281 L11.4219 -9.3281 L11.3438 -9 Q11.0938 -8.9375 10.9766 -8.875 Q10.8594 -8.8125 10.7656 -8.6719 Q10.6719 -8.5312 10.5859 -8.2422 Q10.5 -7.9531 10.3438 -7.2969 L9.1875 -1.9844 Q9.0938 -1.5938 9.0625 -1.3516 Q9.0312 -1.1094 9.0312 -0.9219 Q9.0312 -0.6094 9.1875 -0.4844 Q9.3438 -0.3594 9.7031 -0.3281 L9.625 0 L6.8906 0 L6.9688 -0.3281 Q7.2344 -0.375 7.3672 -0.4688 Q7.5 -0.5625 7.5859 -0.7266 Q7.6719 -0.8906 7.75 -1.125 Q7.8281 -1.3594 7.9688 -2.0312 L8.875 -6.1562 Q9.0625 -6.9688 9.3281 -7.9062 L9.2344 -7.9062 Q9.0312 -7.5312 8.8359 -7.1953 Q8.6406 -6.8594 8.2656 -6.2188 L5.1562 -1.0938 L4.4062 -1.0938 L3.75 -6.2188 L3.5625 -8.0469 L3.4375 -8.0469 Q3.1719 -6.3438 2.9062 -5.1406 L2.25 -2.1719 Q2.1406 -1.6406 2.1094 -1.3906 Q2.0781 -1.1406 2.0781 -0.9219 Q2.0781 -0.6094 2.2266 -0.4844 Q2.375 -0.3594 2.7344 -0.3281 L2.6719 0 L0.2812 0 L0.3438 -0.3281 Q0.6094 -0.375 0.7422 -0.4688 Q0.875 -0.5625 0.9609 -0.7266 Q1.0469 -0.8906 1.125 -1.125 Q1.2031 -1.3594 1.3438 -2.0312 L2.5156 -7.2969 Q2.5781 -7.5938 2.6172 -7.8594 Q2.6562 -8.125 2.6562 -8.4062 Q2.6562 -8.7188 2.4922 -8.8438 Q2.3281 -8.9688 1.9844 -9 L2.0625 -9.3281 L4.5 -9.3281 L5.2812 -2.7031 L9.2656 -9.3281 Z" stroke="none"/></g><g text-rendering="optimizeLegibility" transform="translate(132.8344,51.9187)" color-rendering="optimizeQuality" color-interpolation="linearRGB" image-rendering="optimizeQuality"><path d="M1.8438 -1.4219 Q1.7969 -1.2812 1.7812 -1.1719 Q1.7656 -1.0625 1.75 -0.9141 Q1.7344 -0.7656 1.7344 -0.6562 Q1.7344 -0.5156 1.7812 -0.4297 Q1.8281 -0.3438 1.9297 -0.3047 Q2.0312 -0.2656 2.2656 -0.2344 L2.2188 0 L0.2031 0 L0.2656 -0.2344 Q0.4375 -0.2656 0.5312 -0.3359 Q0.625 -0.4062 0.6875 -0.5234 Q0.75 -0.6406 0.8047 -0.8047 Q0.8594 -0.9688 0.9688 -1.4531 L1.7969 -5.2188 Q1.9062 -5.7031 1.9062 -5.9844 Q1.9062 -6.2188 1.7969 -6.3125 Q1.6875 -6.4062 1.4375 -6.4219 L1.4844 -6.6719 L5.8906 -6.6719 L5.5469 -5.1719 L5.0781 -5.1719 Q5.0625 -5.5156 5.0312 -5.7109 Q5 -5.9062 4.9453 -6.0078 Q4.8906 -6.1094 4.8281 -6.1562 Q4.7656 -6.2031 4.6719 -6.2188 Q4.5781 -6.2344 4.4062 -6.2344 L2.8906 -6.2344 L2.3125 -3.5781 L3.2344 -3.5781 Q3.4375 -3.5781 3.5781 -3.6406 Q3.7188 -3.7031 3.8438 -3.8516 Q3.9688 -4 4.1562 -4.375 L4.5938 -4.375 L4.125 -2.3125 L3.6875 -2.3125 Q3.6875 -2.625 3.6797 -2.7891 Q3.6719 -2.9531 3.625 -3.0234 Q3.5781 -3.0938 3.4922 -3.125 Q3.4062 -3.1562 3.1719 -3.1562 L2.2188 -3.1562 L1.8438 -1.4219 Z" stroke="none"/></g><g text-rendering="optimizeLegibility" transform="translate(138.4281,47.9204) matrix(1,0,0,1.3611,0,0)" color-rendering="optimizeQuality" color-interpolation="linearRGB" image-rendering="optimizeQuality"><path d="M3.3438 2.9375 L0.2969 2.9375 L0.2969 2.375 L2.1406 2.375 L2.1406 -9.2188 L0.2969 -9.2188 L0.2969 -9.7812 L3.3438 -9.7812 L3.3438 2.9375 Z" stroke="none"/></g><g text-rendering="optimizeLegibility" transform="translate(124.35,64.7916)" color-rendering="optimizeQuality" color-interpolation="linearRGB" image-rendering="optimizeQuality"><path d="M1.6406 -0.5 L0.875 2.9531 L-0.25 2.9531 L1.125 -3.2344 Q1.875 -6.6562 4.6406 -6.6562 Q5.6406 -6.6562 6.2109 -6.0703 Q6.7812 -5.4844 6.7812 -4.4062 Q6.7812 -2.8125 5.7578 -1.3516 Q4.7344 0.1094 3.0781 0.1094 Q2.25 0.1094 1.6406 -0.5 ZM2.1562 -2.8594 L1.875 -1.5781 Q1.8594 -1.4844 1.8594 -1.375 Q1.8594 -1.0312 2.25 -0.7344 Q2.6406 -0.4375 3.1406 -0.4375 Q4.1094 -0.4375 4.8438 -1.7422 Q5.5781 -3.0469 5.5781 -4.5625 Q5.5781 -6.1094 4.4219 -6.1094 Q2.8594 -6.1094 2.1562 -2.8594 Z" stroke="none"/></g><g text-rendering="optimizeLegibility" transform="translate(123.9359,65.2847)" color-rendering="optimizeQuality" color-interpolation="linearRGB" image-rendering="optimizeQuality"><path d="M7.0312 -7.8594 L0.1719 -7.8594 Q0 -7.8594 -0.0781 -7.9297 Q-0.1562 -8 -0.1562 -8.1094 Q-0.1562 -8.2031 -0.0781 -8.2734 Q0 -8.3438 0.1719 -8.3438 L7.0312 -8.3438 Q7.2188 -8.3438 7.2891 -8.2734 Q7.3594 -8.2031 7.3594 -8.0938 Q7.3594 -8 7.2891 -7.9297 Q7.2188 -7.8594 7.0312 -7.8594 Z" stroke="none"/></g><g text-rendering="optimizeLegibility" transform="translate(131.4516,71.0806)" color-rendering="optimizeQuality" color-interpolation="linearRGB" image-rendering="optimizeQuality"><path d="M2.7188 0.0781 Q1.6562 0.0781 1.1406 -0.75 Q0.625 -1.5781 0.625 -3.2656 Q0.625 -4.1719 0.7891 -4.8281 Q0.9531 -5.4844 1.2344 -5.9062 Q1.5156 -6.3281 1.9141 -6.5391 Q2.3125 -6.75 2.7969 -6.75 Q3.8594 -6.75 4.3828 -5.9219 Q4.9062 -5.0938 4.9062 -3.4219 Q4.9062 -1.6875 4.3516 -0.8047 Q3.7969 0.0781 2.7188 0.0781 ZM1.5781 -3.4219 Q1.5781 -1.8281 1.875 -1.0859 Q2.1719 -0.3438 2.7969 -0.3438 Q3.3906 -0.3438 3.6719 -1.0391 Q3.9531 -1.7344 3.9531 -3.2031 Q3.9531 -4.3281 3.8047 -5.0234 Q3.6562 -5.7188 3.3984 -6.0234 Q3.1406 -6.3281 2.7656 -6.3281 Q2.4375 -6.3281 2.2109 -6.125 Q1.9844 -5.9219 1.8438 -5.5469 Q1.7031 -5.1719 1.6406 -4.6328 Q1.5781 -4.0938 1.5781 -3.4219 Z" stroke="none"/></g><g text-rendering="optimizeLegibility" transform="translate(145.882,61.6498)" color-rendering="optimizeQuality" color-interpolation="linearRGB" image-rendering="optimizeQuality"><path d="M1.2344 -5.0469 L1.2344 -6.3906 L9.8281 -6.3906 L9.8281 -5.0469 L1.2344 -5.0469 Z" stroke="none"/></g><g text-rendering="optimizeLegibility" stroke-width="1.6667" color-interpolation="linearRGB" color-rendering="optimizeQuality" image-rendering="optimizeQuality"><line y2="54.4298" fill="none" x1="159.3879" x2="178.4972" y1="54.4298"/><path d="M4.6094 2.9375 L1.5625 2.9375 L1.5625 -9.7812 L4.6094 -9.7812 L4.6094 -9.2188 L2.7656 -9.2188 L2.7656 2.375 L4.6094 2.375 L4.6094 2.9375 Z" stroke-width="1" transform="translate(157.8254,47.8699) matrix(1,0,0,1.3783,0,0)" stroke="none"/></g><g text-rendering="optimizeLegibility" transform="translate(162.4347,48.4734)" color-rendering="optimizeQuality" color-interpolation="linearRGB" image-rendering="optimizeQuality"><path d="M1.0938 -2.125 Q1.0938 -1.2969 1.4766 -0.8906 Q1.8594 -0.4844 2.6719 -0.4844 Q3.2969 -0.4844 3.75 -0.7188 Q4.2031 -0.9531 4.4297 -1.3828 Q4.6562 -1.8125 4.6562 -2.3906 Q4.6562 -2.8125 4.5156 -3.1328 Q4.375 -3.4531 4.0781 -3.7422 Q3.7812 -4.0312 3.2188 -4.4062 Q2.7031 -4.75 2.3672 -5.0781 Q2.0312 -5.4062 1.8359 -5.8203 Q1.6406 -6.2344 1.6406 -6.7344 Q1.6406 -7.5469 2.0312 -8.1562 Q2.4219 -8.7656 3.1328 -9.1016 Q3.8438 -9.4375 4.7656 -9.4375 Q5.4062 -9.4375 5.9375 -9.3516 Q6.4688 -9.2656 7.125 -9.0625 L6.7344 -7.3125 L6.0781 -7.3125 Q6.0625 -7.8906 5.9062 -8.2188 Q5.75 -8.5469 5.4766 -8.6953 Q5.2031 -8.8438 4.7344 -8.8438 Q4.1562 -8.8438 3.7266 -8.6094 Q3.2969 -8.375 3.0703 -7.9766 Q2.8438 -7.5781 2.8438 -7.0781 Q2.8438 -6.7344 2.9688 -6.4531 Q3.0938 -6.1719 3.3672 -5.8984 Q3.6406 -5.625 4.1562 -5.2656 Q4.8281 -4.8125 5.1797 -4.4453 Q5.5312 -4.0781 5.6953 -3.6641 Q5.8594 -3.25 5.8594 -2.7188 Q5.8594 -1.8906 5.4609 -1.2422 Q5.0625 -0.5938 4.3359 -0.2422 Q3.6094 0.1094 2.6875 0.1094 Q2.0469 0.1094 1.3281 0.0156 Q0.6094 -0.0781 0.0156 -0.25 L0.4375 -2.125 L1.0938 -2.125 Z" stroke="none"/></g><g text-rendering="optimizeLegibility" transform="translate(169.5597,51.9187)" color-rendering="optimizeQuality" color-interpolation="linearRGB" image-rendering="optimizeQuality"><path d="M1.8438 -1.4219 Q1.7969 -1.2812 1.7812 -1.1719 Q1.7656 -1.0625 1.75 -0.9141 Q1.7344 -0.7656 1.7344 -0.6562 Q1.7344 -0.5156 1.7812 -0.4297 Q1.8281 -0.3438 1.9297 -0.3047 Q2.0312 -0.2656 2.2656 -0.2344 L2.2188 0 L0.2031 0 L0.2656 -0.2344 Q0.4375 -0.2656 0.5312 -0.3359 Q0.625 -0.4062 0.6875 -0.5234 Q0.75 -0.6406 0.8047 -0.8047 Q0.8594 -0.9688 0.9688 -1.4531 L1.7969 -5.2188 Q1.9062 -5.7031 1.9062 -5.9844 Q1.9062 -6.2188 1.7969 -6.3125 Q1.6875 -6.4062 1.4375 -6.4219 L1.4844 -6.6719 L5.8906 -6.6719 L5.5469 -5.1719 L5.0781 -5.1719 Q5.0625 -5.5156 5.0312 -5.7109 Q5 -5.9062 4.9453 -6.0078 Q4.8906 -6.1094 4.8281 -6.1562 Q4.7656 -6.2031 4.6719 -6.2188 Q4.5781 -6.2344 4.4062 -6.2344 L2.8906 -6.2344 L2.3125 -3.5781 L3.2344 -3.5781 Q3.4375 -3.5781 3.5781 -3.6406 Q3.7188 -3.7031 3.8438 -3.8516 Q3.9688 -4 4.1562 -4.375 L4.5938 -4.375 L4.125 -2.3125 L3.6875 -2.3125 Q3.6875 -2.625 3.6797 -2.7891 Q3.6719 -2.9531 3.625 -3.0234 Q3.5781 -3.0938 3.4922 -3.125 Q3.4062 -3.1562 3.1719 -3.1562 L2.2188 -3.1562 L1.8438 -1.4219 Z" stroke="none"/></g><g text-rendering="optimizeLegibility" transform="translate(175.1535,47.8699) matrix(1,0,0,1.3783,0,0)" color-rendering="optimizeQuality" color-interpolation="linearRGB" image-rendering="optimizeQuality"><path d="M3.3438 2.9375 L0.2969 2.9375 L0.2969 2.375 L2.1406 2.375 L2.1406 -9.2188 L0.2969 -9.2188 L0.2969 -9.7812 L3.3438 -9.7812 L3.3438 2.9375 Z" stroke="none"/></g><g text-rendering="optimizeLegibility" transform="translate(163.2238,64.7916)" color-rendering="optimizeQuality" color-interpolation="linearRGB" image-rendering="optimizeQuality"><path d="M1.6406 -0.5 L0.875 2.9531 L-0.25 2.9531 L1.125 -3.2344 Q1.875 -6.6562 4.6406 -6.6562 Q5.6406 -6.6562 6.2109 -6.0703 Q6.7812 -5.4844 6.7812 -4.4062 Q6.7812 -2.8125 5.7578 -1.3516 Q4.7344 0.1094 3.0781 0.1094 Q2.25 0.1094 1.6406 -0.5 ZM2.1562 -2.8594 L1.875 -1.5781 Q1.8594 -1.4844 1.8594 -1.375 Q1.8594 -1.0312 2.25 -0.7344 Q2.6406 -0.4375 3.1406 -0.4375 Q4.1094 -0.4375 4.8438 -1.7422 Q5.5781 -3.0469 5.5781 -4.5625 Q5.5781 -6.1094 4.4219 -6.1094 Q2.8594 -6.1094 2.1562 -2.8594 Z" stroke="none"/></g><g text-rendering="optimizeLegibility" transform="translate(162.8097,65.2847)" color-rendering="optimizeQuality" color-interpolation="linearRGB" image-rendering="optimizeQuality"><path d="M7.0312 -7.8594 L0.1719 -7.8594 Q0 -7.8594 -0.0781 -7.9297 Q-0.1562 -8 -0.1562 -8.1094 Q-0.1562 -8.2031 -0.0781 -8.2734 Q0 -8.3438 0.1719 -8.3438 L7.0312 -8.3438 Q7.2188 -8.3438 7.2891 -8.2734 Q7.3594 -8.2031 7.3594 -8.0938 Q7.3594 -8 7.2891 -7.9297 Q7.2188 -7.8594 7.0312 -7.8594 Z" stroke="none"/></g><g text-rendering="optimizeLegibility" transform="translate(170.3254,71.0806)" color-rendering="optimizeQuality" color-interpolation="linearRGB" image-rendering="optimizeQuality"><path d="M2.7188 0.0781 Q1.6562 0.0781 1.1406 -0.75 Q0.625 -1.5781 0.625 -3.2656 Q0.625 -4.1719 0.7891 -4.8281 Q0.9531 -5.4844 1.2344 -5.9062 Q1.5156 -6.3281 1.9141 -6.5391 Q2.3125 -6.75 2.7969 -6.75 Q3.8594 -6.75 4.3828 -5.9219 Q4.9062 -5.0938 4.9062 -3.4219 Q4.9062 -1.6875 4.3516 -0.8047 Q3.7969 0.0781 2.7188 0.0781 ZM1.5781 -3.4219 Q1.5781 -1.8281 1.875 -1.0859 Q2.1719 -0.3438 2.7969 -0.3438 Q3.3906 -0.3438 3.6719 -1.0391 Q3.9531 -1.7344 3.9531 -3.2031 Q3.9531 -4.3281 3.8047 -5.0234 Q3.6562 -5.7188 3.3984 -6.0234 Q3.1406 -6.3281 2.7656 -6.3281 Q2.4375 -6.3281 2.2109 -6.125 Q1.9844 -5.9219 1.8438 -5.5469 Q1.7031 -5.1719 1.6406 -4.6328 Q1.5781 -4.0938 1.5781 -3.4219 Z" stroke="none"/></g><g text-rendering="optimizeLegibility" transform="translate(183.4198,52.2269) matrix(1,0,0,3.3683,0,0)" color-rendering="optimizeQuality" color-interpolation="linearRGB" image-rendering="optimizeQuality"><path d="M4.7812 4.2031 L0.4219 4.2031 L0.4219 3.4062 L3.0625 3.4062 L3.0625 -13.1719 L0.4219 -13.1719 L0.4219 -13.9688 L4.7812 -13.9688 L4.7812 4.2031 Z" stroke="none"/></g><g text-rendering="optimizeLegibility" transform="translate(190.9823,43)" color-rendering="optimizeQuality" color-interpolation="linearRGB" image-rendering="optimizeQuality"><path d="M6.25 -5.0469 L6.25 -1.3438 L4.8125 -1.3438 L4.8125 -5.0469 L1.2188 -5.0469 L1.2188 -6.3906 L4.8125 -6.3906 L4.8125 -10.0938 L6.25 -10.0938 L6.25 -6.3906 L9.8594 -6.3906 L9.8594 -5.0469 L6.25 -5.0469 Z" stroke="none"/></g><g text-rendering="optimizeLegibility" transform="translate(205.4042,43)" color-rendering="optimizeQuality" color-interpolation="linearRGB" image-rendering="optimizeQuality"><path d="M5.5 -13.1719 L5.0469 -11.2656 L3.3281 -11.2656 L3.7656 -13.1719 L5.5 -13.1719 ZM2.5625 0.1719 Q2.25 1.6562 1.7109 2.5547 Q1.1719 3.4531 0.3125 3.9062 Q-0.5469 4.3594 -1.7344 4.3594 Q-2.2344 4.3594 -2.5625 4.2656 L-2.3438 3.4062 Q-2.1875 3.4531 -2 3.4688 Q-1.8125 3.4844 -1.6094 3.4844 Q-1.1406 3.4844 -0.8125 3.3438 Q-0.4844 3.2031 -0.1953 2.875 Q0.0938 2.5469 0.3281 1.9609 Q0.5625 1.375 0.7656 0.4531 L2.3594 -6.5781 Q2.4844 -7.125 2.5312 -7.4688 Q2.5781 -7.8125 2.5781 -8.0469 Q2.5781 -8.3281 2.4922 -8.4844 Q2.4062 -8.6406 2.2109 -8.7188 Q2.0156 -8.7969 1.5469 -8.8125 L1.6562 -9.3438 L4.0312 -9.4219 L4.5938 -9.4219 L2.5625 0.1719 Z" stroke="none"/></g><g text-rendering="optimizeLegibility" transform="translate(210.9042,43)" color-rendering="optimizeQuality" color-interpolation="linearRGB" image-rendering="optimizeQuality"><path d="M6.8125 -1.6875 L6.7812 -1.6875 Q5.7812 0.1562 3.7031 0.1562 Q2.4219 0.1562 1.6484 -0.6406 Q0.875 -1.4375 0.875 -2.9219 Q0.875 -4.7656 2.0312 -6.4766 Q3.1875 -8.1875 5.3281 -9.5 L5.7188 -8.8438 Q4.3438 -7.7812 3.4531 -6.1094 Q2.5625 -4.4375 2.5625 -2.8438 Q2.5625 -1.7031 3.0234 -1.1562 Q3.4844 -0.6094 4.2188 -0.6094 Q4.8906 -0.6094 5.4375 -1.2266 Q5.9844 -1.8438 6.2031 -2.9219 L6.9375 -6.6094 L8.5781 -6.6094 L7.7969 -2.8438 Q7.7188 -2.4219 7.7188 -2.0781 Q7.7188 -1.3906 8.0547 -1 Q8.3906 -0.6094 8.9844 -0.6094 Q10.1875 -0.6094 10.9922 -2.1094 Q11.7969 -3.6094 11.7969 -5.7812 Q11.7969 -7.8125 11 -8.9375 L11.5625 -9.5 Q13.5156 -7.6406 13.5156 -5.3594 Q13.5156 -3.125 12.2344 -1.4844 Q10.9531 0.1562 8.9688 0.1562 Q7.1562 0.1562 6.8125 -1.6875 Z" stroke="none"/></g><g text-rendering="optimizeLegibility" transform="translate(224.1854,52.2689) matrix(1,0,0,3.3769,0,0)" color-rendering="optimizeQuality" color-interpolation="linearRGB" image-rendering="optimizeQuality"><path d="M6.5781 4.2031 L2.2344 4.2031 L2.2344 -13.9688 L6.5781 -13.9688 L6.5781 -13.1719 L3.9531 -13.1719 L3.9531 3.4062 L6.5781 3.4062 L6.5781 4.2031 Z" stroke="none"/></g><g text-rendering="optimizeLegibility" transform="translate(239.7089,18.9239) matrix(1,0,0,1.3372,0,0)" color-rendering="optimizeQuality" color-interpolation="linearRGB" image-rendering="optimizeQuality"><path d="M6.5781 4.2031 L2.2344 4.2031 L2.2344 -13.9688 L6.5781 -13.9688 L6.5781 -13.1719 L3.9531 -13.1719 L3.9531 3.4062 L6.5781 3.4062 L6.5781 4.2031 Z" stroke="none"/></g><g text-rendering="optimizeLegibility" transform="translate(248.287,19.6147)" color-rendering="optimizeQuality" color-interpolation="linearRGB" image-rendering="optimizeQuality"><path d="M11.5625 -12.9844 L10.9844 -10.3438 L10.0469 -10.3438 Q9.9688 -11.5469 9.5234 -12.0781 Q9.0781 -12.6094 8.0938 -12.6094 Q7.2656 -12.6094 6.5469 -12.125 Q5.8281 -11.6406 5.1797 -10.7266 Q4.5312 -9.8125 4.0547 -8.5859 Q3.5781 -7.3594 3.3203 -6.0859 Q3.0625 -4.8125 3.0625 -3.7969 Q3.0625 -2.2031 3.5859 -1.4531 Q4.1094 -0.7031 5.2188 -0.7031 Q5.9531 -0.7031 6.5 -0.9219 Q7.0469 -1.1406 7.5312 -1.6641 Q8.0156 -2.1875 8.4844 -3.125 L9.4219 -3.125 L8.8125 -0.3594 Q7.8281 -0.0781 6.8984 0.0391 Q5.9688 0.1562 4.9844 0.1562 Q3.7812 0.1562 2.9297 -0.3438 Q2.0781 -0.8438 1.6484 -1.7969 Q1.2188 -2.75 1.2188 -4.0938 Q1.2188 -4.7969 1.3125 -5.4531 Q1.4375 -6.2812 1.6875 -7.25 Q2.0156 -8.4531 2.5 -9.4375 Q3.0312 -10.4844 3.7031 -11.2812 Q4.3438 -12.0156 5.0781 -12.5156 Q5.7656 -12.9844 6.5547 -13.2344 Q7.3438 -13.4844 8.2344 -13.4844 Q9.125 -13.4844 9.8828 -13.375 Q10.6406 -13.2656 11.5625 -12.9844 Z" stroke="none"/></g><g text-rendering="optimizeLegibility" transform="translate(259.8495,24.435)" color-rendering="optimizeQuality" color-interpolation="linearRGB" image-rendering="optimizeQuality"><path d="M1.0938 -2.125 Q1.0938 -1.2969 1.4766 -0.8906 Q1.8594 -0.4844 2.6719 -0.4844 Q3.2969 -0.4844 3.75 -0.7188 Q4.2031 -0.9531 4.4297 -1.3828 Q4.6562 -1.8125 4.6562 -2.3906 Q4.6562 -2.8125 4.5156 -3.1328 Q4.375 -3.4531 4.0781 -3.7422 Q3.7812 -4.0312 3.2188 -4.4062 Q2.7031 -4.75 2.3672 -5.0781 Q2.0312 -5.4062 1.8359 -5.8203 Q1.6406 -6.2344 1.6406 -6.7344 Q1.6406 -7.5469 2.0312 -8.1562 Q2.4219 -8.7656 3.1328 -9.1016 Q3.8438 -9.4375 4.7656 -9.4375 Q5.4062 -9.4375 5.9375 -9.3516 Q6.4688 -9.2656 7.125 -9.0625 L6.7344 -7.3125 L6.0781 -7.3125 Q6.0625 -7.8906 5.9062 -8.2188 Q5.75 -8.5469 5.4766 -8.6953 Q5.2031 -8.8438 4.7344 -8.8438 Q4.1562 -8.8438 3.7266 -8.6094 Q3.2969 -8.375 3.0703 -7.9766 Q2.8438 -7.5781 2.8438 -7.0781 Q2.8438 -6.7344 2.9688 -6.4531 Q3.0938 -6.1719 3.3672 -5.8984 Q3.6406 -5.625 4.1562 -5.2656 Q4.8281 -4.8125 5.1797 -4.4453 Q5.5312 -4.0781 5.6953 -3.6641 Q5.8594 -3.25 5.8594 -2.7188 Q5.8594 -1.8906 5.4609 -1.2422 Q5.0625 -0.5938 4.3359 -0.2422 Q3.6094 0.1094 2.6875 0.1094 Q2.0469 0.1094 1.3281 0.0156 Q0.6094 -0.0781 0.0156 -0.25 L0.4375 -2.125 L1.0938 -2.125 Z" stroke="none"/></g><g text-rendering="optimizeLegibility" transform="translate(268.5526,18.9239) matrix(1,0,0,1.3372,0,0)" color-rendering="optimizeQuality" color-interpolation="linearRGB" image-rendering="optimizeQuality"><path d="M4.7812 4.2031 L0.4219 4.2031 L0.4219 3.4062 L3.0625 3.4062 L3.0625 -13.1719 L0.4219 -13.1719 L0.4219 -13.9688 L4.7812 -13.9688 L4.7812 4.2031 Z" stroke="none"/></g><g text-rendering="optimizeLegibility" transform="translate(296.7014,19.6147)" color-rendering="optimizeQuality" color-interpolation="linearRGB" image-rendering="optimizeQuality"><path d="M1.2344 -5.0469 L1.2344 -6.3906 L9.8281 -6.3906 L9.8281 -5.0469 L1.2344 -5.0469 Z" stroke="none"/></g><g text-rendering="optimizeLegibility" transform="translate(308.2951,18.5335) matrix(1,0,0,1.2572,0,0)" color-rendering="optimizeQuality" color-interpolation="linearRGB" image-rendering="optimizeQuality"><path d="M6.5781 4.2031 L2.2344 4.2031 L2.2344 -13.9688 L6.5781 -13.9688 L6.5781 -13.1719 L3.9531 -13.1719 L3.9531 3.4062 L6.5781 3.4062 L6.5781 4.2031 Z" stroke="none"/></g><g text-rendering="optimizeLegibility" transform="translate(316.8733,19.6147)" color-rendering="optimizeQuality" color-interpolation="linearRGB" image-rendering="optimizeQuality"><path d="M7.9062 -6.0469 Q8.375 -5.6875 8.6641 -5.2031 Q8.9531 -4.7188 9.125 -3.8438 L9.3438 -2.7188 Q9.4219 -2.3594 9.5 -2.0625 Q9.5781 -1.7656 9.6953 -1.4844 Q9.8125 -1.2031 9.9375 -1.0391 Q10.0625 -0.875 10.2188 -0.7656 Q10.375 -0.6562 10.5625 -0.5938 Q10.75 -0.5312 11.0469 -0.4844 L10.9531 0 L8.25 0 Q7.9375 -0.875 7.6875 -2.0781 L7.25 -4.1406 Q7.1562 -4.6719 7 -5.0391 Q6.8438 -5.4062 6.6328 -5.6094 Q6.4219 -5.8125 6.1484 -5.875 Q5.875 -5.9375 5.4688 -5.9375 L4.3594 -5.9375 L3.6719 -2.8438 Q3.5781 -2.4688 3.5469 -2.2422 Q3.5156 -2.0156 3.4922 -1.7656 Q3.4688 -1.5156 3.4688 -1.3125 Q3.4688 -1.0156 3.5625 -0.8438 Q3.6562 -0.6719 3.8516 -0.5938 Q4.0469 -0.5156 4.5312 -0.4844 L4.4219 0 L0.4062 0 L0.5156 -0.4844 Q0.8906 -0.5312 1.0781 -0.6641 Q1.2656 -0.7969 1.3906 -1.0312 Q1.5156 -1.2656 1.625 -1.6016 Q1.7344 -1.9375 1.9375 -2.9062 L3.6094 -10.4375 Q3.8125 -11.4062 3.8125 -11.9688 Q3.8125 -12.4531 3.5938 -12.6406 Q3.375 -12.8281 2.8594 -12.8594 L2.9688 -13.3281 L7.3125 -13.3281 Q8.3438 -13.3281 9 -13.2109 Q9.6562 -13.0938 10.125 -12.8438 Q10.5938 -12.5938 10.9062 -12.2109 Q11.2188 -11.8281 11.375 -11.3438 Q11.5312 -10.8594 11.5312 -10.3125 Q11.5312 -9.4375 11.2422 -8.7656 Q10.9531 -8.0938 10.4531 -7.5859 Q9.9531 -7.0781 9.2969 -6.7266 Q8.6406 -6.375 7.9062 -6.1562 L7.9062 -6.0469 ZM5.6875 -6.7812 Q6.7656 -6.7812 7.4688 -6.9922 Q8.1719 -7.2031 8.6406 -7.6328 Q9.1094 -8.0625 9.4062 -8.7656 Q9.7031 -9.4688 9.7031 -10.2812 Q9.7031 -10.7031 9.625 -11.0312 Q9.5469 -11.3594 9.4219 -11.5703 Q9.2969 -11.7812 9.1016 -11.9531 Q8.9062 -12.125 8.6172 -12.2422 Q8.3281 -12.3594 7.9375 -12.4141 Q7.5469 -12.4688 6.8906 -12.4688 Q6.375 -12.4688 5.7969 -12.4375 L4.5469 -6.7812 L5.6875 -6.7812 Z" stroke="none"/></g><g text-rendering="optimizeLegibility" transform="translate(329.9826,18.5335) matrix(1,0,0,1.2572,0,0)" color-rendering="optimizeQuality" color-interpolation="linearRGB" image-rendering="optimizeQuality"><path d="M4.7812 4.2031 L0.4219 4.2031 L0.4219 3.4062 L3.0625 3.4062 L3.0625 -13.1719 L0.4219 -13.1719 L0.4219 -13.9688 L4.7812 -13.9688 L4.7812 4.2031 Z" stroke="none"/></g><g text-rendering="optimizeLegibility" transform="translate(233.5292,61.8061)" color-rendering="optimizeQuality" color-interpolation="linearRGB" image-rendering="optimizeQuality"><path d="M1.2344 -5.0469 L1.2344 -6.3906 L9.8281 -6.3906 L9.8281 -5.0469 L1.2344 -5.0469 Z" stroke="none"/></g><g text-rendering="optimizeLegibility" transform="translate(245.1229,60.7249) matrix(1,0,0,1.2572,0,0)" color-rendering="optimizeQuality" color-interpolation="linearRGB" image-rendering="optimizeQuality"><path d="M6.5781 4.2031 L2.2344 4.2031 L2.2344 -13.9688 L6.5781 -13.9688 L6.5781 -13.1719 L3.9531 -13.1719 L3.9531 3.4062 L6.5781 3.4062 L6.5781 4.2031 Z" stroke="none"/></g><g text-rendering="optimizeLegibility" transform="translate(253.701,61.8061)" color-rendering="optimizeQuality" color-interpolation="linearRGB" image-rendering="optimizeQuality"><path d="M7.9062 -6.0469 Q8.375 -5.6875 8.6641 -5.2031 Q8.9531 -4.7188 9.125 -3.8438 L9.3438 -2.7188 Q9.4219 -2.3594 9.5 -2.0625 Q9.5781 -1.7656 9.6953 -1.4844 Q9.8125 -1.2031 9.9375 -1.0391 Q10.0625 -0.875 10.2188 -0.7656 Q10.375 -0.6562 10.5625 -0.5938 Q10.75 -0.5312 11.0469 -0.4844 L10.9531 0 L8.25 0 Q7.9375 -0.875 7.6875 -2.0781 L7.25 -4.1406 Q7.1562 -4.6719 7 -5.0391 Q6.8438 -5.4062 6.6328 -5.6094 Q6.4219 -5.8125 6.1484 -5.875 Q5.875 -5.9375 5.4688 -5.9375 L4.3594 -5.9375 L3.6719 -2.8438 Q3.5781 -2.4688 3.5469 -2.2422 Q3.5156 -2.0156 3.4922 -1.7656 Q3.4688 -1.5156 3.4688 -1.3125 Q3.4688 -1.0156 3.5625 -0.8438 Q3.6562 -0.6719 3.8516 -0.5938 Q4.0469 -0.5156 4.5312 -0.4844 L4.4219 0 L0.4062 0 L0.5156 -0.4844 Q0.8906 -0.5312 1.0781 -0.6641 Q1.2656 -0.7969 1.3906 -1.0312 Q1.5156 -1.2656 1.625 -1.6016 Q1.7344 -1.9375 1.9375 -2.9062 L3.6094 -10.4375 Q3.8125 -11.4062 3.8125 -11.9688 Q3.8125 -12.4531 3.5938 -12.6406 Q3.375 -12.8281 2.8594 -12.8594 L2.9688 -13.3281 L7.3125 -13.3281 Q8.3438 -13.3281 9 -13.2109 Q9.6562 -13.0938 10.125 -12.8438 Q10.5938 -12.5938 10.9062 -12.2109 Q11.2188 -11.8281 11.375 -11.3438 Q11.5312 -10.8594 11.5312 -10.3125 Q11.5312 -9.4375 11.2422 -8.7656 Q10.9531 -8.0938 10.4531 -7.5859 Q9.9531 -7.0781 9.2969 -6.7266 Q8.6406 -6.375 7.9062 -6.1562 L7.9062 -6.0469 ZM5.6875 -6.7812 Q6.7656 -6.7812 7.4688 -6.9922 Q8.1719 -7.2031 8.6406 -7.6328 Q9.1094 -8.0625 9.4062 -8.7656 Q9.7031 -9.4688 9.7031 -10.2812 Q9.7031 -10.7031 9.625 -11.0312 Q9.5469 -11.3594 9.4219 -11.5703 Q9.2969 -11.7812 9.1016 -11.9531 Q8.9062 -12.125 8.6172 -12.2422 Q8.3281 -12.3594 7.9375 -12.4141 Q7.5469 -12.4688 6.8906 -12.4688 Q6.375 -12.4688 5.7969 -12.4375 L4.5469 -6.7812 L5.6875 -6.7812 Z" stroke="none"/></g><g text-rendering="optimizeLegibility" transform="translate(266.8104,60.7249) matrix(1,0,0,1.2572,0,0)" color-rendering="optimizeQuality" color-interpolation="linearRGB" image-rendering="optimizeQuality"><path d="M4.7812 4.2031 L0.4219 4.2031 L0.4219 3.4062 L3.0625 3.4062 L3.0625 -13.1719 L0.4219 -13.1719 L0.4219 -13.9688 L4.7812 -13.9688 L4.7812 4.2031 Z" stroke="none"/></g><g text-rendering="optimizeLegibility" transform="translate(273.5917,47.827)" color-rendering="optimizeQuality" color-interpolation="linearRGB" image-rendering="optimizeQuality"><path d="M4.875 0 L1.9844 0 L2.0625 -0.3281 Q2.3281 -0.375 2.4609 -0.4453 Q2.5938 -0.5156 2.6953 -0.6562 Q2.7969 -0.7969 2.8984 -1.1016 Q3 -1.4062 3.125 -2.0312 L4.5938 -8.7344 L3.7188 -8.7344 Q3.2969 -8.7344 3.0469 -8.6094 Q2.7969 -8.4844 2.5469 -8.1484 Q2.2969 -7.8125 1.9219 -7.0312 L1.2656 -7.0312 L1.7812 -9.3281 L8.9219 -9.3281 L8.3906 -6.9219 L7.7344 -6.9219 Q7.7344 -7.5938 7.6953 -7.9219 Q7.6562 -8.25 7.5625 -8.4219 Q7.4688 -8.5938 7.3281 -8.6641 Q7.1875 -8.7344 6.8438 -8.7344 L5.8281 -8.7344 L4.3438 -1.9844 Q4.2812 -1.7188 4.2578 -1.5625 Q4.2344 -1.4062 4.2188 -1.2344 Q4.2031 -1.0625 4.2031 -0.9219 Q4.2031 -0.7188 4.2656 -0.5938 Q4.3281 -0.4688 4.4688 -0.4141 Q4.6094 -0.3594 4.9375 -0.3281 L4.875 0 Z" stroke="none"/></g><g text-rendering="optimizeLegibility" transform="translate(298.2684,61.8061)" color-rendering="optimizeQuality" color-interpolation="linearRGB" image-rendering="optimizeQuality"><path d="M1.2344 -5.0469 L1.2344 -6.3906 L9.8281 -6.3906 L9.8281 -5.0469 L1.2344 -5.0469 Z" stroke="none"/></g><g text-rendering="optimizeLegibility" stroke-width="1.6667" color-interpolation="linearRGB" color-rendering="optimizeQuality" image-rendering="optimizeQuality"><line y2="54.5861" fill="none" x1="311.7743" x2="331.8524" y1="54.5861"/><path d="M4.6094 2.9375 L1.5625 2.9375 L1.5625 -9.7812 L4.6094 -9.7812 L4.6094 -9.2188 L2.7656 -9.2188 L2.7656 2.375 L4.6094 2.375 L4.6094 2.9375 Z" stroke-width="1" transform="translate(310.2118,48.0261) matrix(1,0,0,1.3783,0,0)" stroke="none"/></g><g text-rendering="optimizeLegibility" transform="translate(314.8212,48.6297)" color-rendering="optimizeQuality" color-interpolation="linearRGB" image-rendering="optimizeQuality"><path d="M8.0938 -9.0938 L7.6875 -7.2344 L7.0312 -7.2344 Q6.9688 -8.0781 6.6562 -8.4531 Q6.3438 -8.8281 5.6562 -8.8281 Q5.0938 -8.8281 4.5859 -8.4922 Q4.0781 -8.1562 3.625 -7.5156 Q3.1719 -6.875 2.8359 -6.0156 Q2.5 -5.1562 2.3203 -4.2656 Q2.1406 -3.375 2.1406 -2.6562 Q2.1406 -1.5312 2.5078 -1.0156 Q2.875 -0.5 3.6562 -0.5 Q4.1719 -0.5 4.5547 -0.6484 Q4.9375 -0.7969 5.2734 -1.1641 Q5.6094 -1.5312 5.9375 -2.1875 L6.5938 -2.1875 L6.1719 -0.25 Q5.4688 -0.0625 4.8203 0.0234 Q4.1719 0.1094 3.5 0.1094 Q2.6406 0.1094 2.0469 -0.2422 Q1.4531 -0.5938 1.1562 -1.2578 Q0.8594 -1.9219 0.8594 -2.8594 Q0.8594 -3.3594 0.9219 -3.8281 Q1 -4.3906 1.1875 -5.0781 Q1.4062 -5.9062 1.75 -6.6094 Q2.125 -7.3281 2.5938 -7.8906 Q3.0312 -8.4219 3.5625 -8.7656 Q4.0312 -9.0781 4.5859 -9.2578 Q5.1406 -9.4375 5.7656 -9.4375 Q6.3906 -9.4375 6.9141 -9.3672 Q7.4375 -9.2969 8.0938 -9.0938 Z" stroke="none"/></g><g text-rendering="optimizeLegibility" transform="translate(322.9149,52.075)" color-rendering="optimizeQuality" color-interpolation="linearRGB" image-rendering="optimizeQuality"><path d="M1.8438 -1.4219 Q1.7969 -1.2812 1.7812 -1.1719 Q1.7656 -1.0625 1.75 -0.9141 Q1.7344 -0.7656 1.7344 -0.6562 Q1.7344 -0.5156 1.7812 -0.4297 Q1.8281 -0.3438 1.9297 -0.3047 Q2.0312 -0.2656 2.2656 -0.2344 L2.2188 0 L0.2031 0 L0.2656 -0.2344 Q0.4375 -0.2656 0.5312 -0.3359 Q0.625 -0.4062 0.6875 -0.5234 Q0.75 -0.6406 0.8047 -0.8047 Q0.8594 -0.9688 0.9688 -1.4531 L1.7969 -5.2188 Q1.9062 -5.7031 1.9062 -5.9844 Q1.9062 -6.2188 1.7969 -6.3125 Q1.6875 -6.4062 1.4375 -6.4219 L1.4844 -6.6719 L5.8906 -6.6719 L5.5469 -5.1719 L5.0781 -5.1719 Q5.0625 -5.5156 5.0312 -5.7109 Q5 -5.9062 4.9453 -6.0078 Q4.8906 -6.1094 4.8281 -6.1562 Q4.7656 -6.2031 4.6719 -6.2188 Q4.5781 -6.2344 4.4062 -6.2344 L2.8906 -6.2344 L2.3125 -3.5781 L3.2344 -3.5781 Q3.4375 -3.5781 3.5781 -3.6406 Q3.7188 -3.7031 3.8438 -3.8516 Q3.9688 -4 4.1562 -4.375 L4.5938 -4.375 L4.125 -2.3125 L3.6875 -2.3125 Q3.6875 -2.625 3.6797 -2.7891 Q3.6719 -2.9531 3.625 -3.0234 Q3.5781 -3.0938 3.4922 -3.125 Q3.4062 -3.1562 3.1719 -3.1562 L2.2188 -3.1562 L1.8438 -1.4219 Z" stroke="none"/></g><g text-rendering="optimizeLegibility" transform="translate(328.5087,48.0261) matrix(1,0,0,1.3783,0,0)" color-rendering="optimizeQuality" color-interpolation="linearRGB" image-rendering="optimizeQuality"><path d="M3.3438 2.9375 L0.2969 2.9375 L0.2969 2.375 L2.1406 2.375 L2.1406 -9.2188 L0.2969 -9.2188 L0.2969 -9.7812 L3.3438 -9.7812 L3.3438 2.9375 Z" stroke="none"/></g><g text-rendering="optimizeLegibility" transform="translate(316.0946,64.9478)" color-rendering="optimizeQuality" color-interpolation="linearRGB" image-rendering="optimizeQuality"><path d="M1.6406 -0.5 L0.875 2.9531 L-0.25 2.9531 L1.125 -3.2344 Q1.875 -6.6562 4.6406 -6.6562 Q5.6406 -6.6562 6.2109 -6.0703 Q6.7812 -5.4844 6.7812 -4.4062 Q6.7812 -2.8125 5.7578 -1.3516 Q4.7344 0.1094 3.0781 0.1094 Q2.25 0.1094 1.6406 -0.5 ZM2.1562 -2.8594 L1.875 -1.5781 Q1.8594 -1.4844 1.8594 -1.375 Q1.8594 -1.0312 2.25 -0.7344 Q2.6406 -0.4375 3.1406 -0.4375 Q4.1094 -0.4375 4.8438 -1.7422 Q5.5781 -3.0469 5.5781 -4.5625 Q5.5781 -6.1094 4.4219 -6.1094 Q2.8594 -6.1094 2.1562 -2.8594 Z" stroke="none"/></g><g text-rendering="optimizeLegibility" transform="translate(315.6805,65.441)" color-rendering="optimizeQuality" color-interpolation="linearRGB" image-rendering="optimizeQuality"><path d="M7.0312 -7.8594 L0.1719 -7.8594 Q0 -7.8594 -0.0781 -7.9297 Q-0.1562 -8 -0.1562 -8.1094 Q-0.1562 -8.2031 -0.0781 -8.2734 Q0 -8.3438 0.1719 -8.3438 L7.0312 -8.3438 Q7.2188 -8.3438 7.2891 -8.2734 Q7.3594 -8.2031 7.3594 -8.0938 Q7.3594 -8 7.2891 -7.9297 Q7.2188 -7.8594 7.0312 -7.8594 Z" stroke="none"/></g><g text-rendering="optimizeLegibility" transform="translate(323.1962,71.2369)" color-rendering="optimizeQuality" color-interpolation="linearRGB" image-rendering="optimizeQuality"><path d="M2.7188 0.0781 Q1.6562 0.0781 1.1406 -0.75 Q0.625 -1.5781 0.625 -3.2656 Q0.625 -4.1719 0.7891 -4.8281 Q0.9531 -5.4844 1.2344 -5.9062 Q1.5156 -6.3281 1.9141 -6.5391 Q2.3125 -6.75 2.7969 -6.75 Q3.8594 -6.75 4.3828 -5.9219 Q4.9062 -5.0938 4.9062 -3.4219 Q4.9062 -1.6875 4.3516 -0.8047 Q3.7969 0.0781 2.7188 0.0781 ZM1.5781 -3.4219 Q1.5781 -1.8281 1.875 -1.0859 Q2.1719 -0.3438 2.7969 -0.3438 Q3.3906 -0.3438 3.6719 -1.0391 Q3.9531 -1.7344 3.9531 -3.2031 Q3.9531 -4.3281 3.8047 -5.0234 Q3.6562 -5.7188 3.3984 -6.0234 Q3.1406 -6.3281 2.7656 -6.3281 Q2.4375 -6.3281 2.2109 -6.125 Q1.9844 -5.9219 1.8438 -5.5469 Q1.7031 -5.1719 1.6406 -4.6328 Q1.5781 -4.0938 1.5781 -3.4219 Z" stroke="none"/></g><g text-rendering="optimizeLegibility" transform="translate(338.342,52.2689) matrix(1,0,0,3.3769,0,0)" color-rendering="optimizeQuality" color-interpolation="linearRGB" image-rendering="optimizeQuality"><path d="M4.7812 4.2031 L0.4219 4.2031 L0.4219 3.4062 L3.0625 3.4062 L3.0625 -13.1719 L0.4219 -13.1719 L0.4219 -13.9688 L4.7812 -13.9688 L4.7812 4.2031 Z" stroke="none"/></g><g text-rendering="optimizeLegibility" transform="translate(345.9045,43)" color-rendering="optimizeQuality" color-interpolation="linearRGB" image-rendering="optimizeQuality"><path d="M6.25 -5.0469 L6.25 -1.3438 L4.8125 -1.3438 L4.8125 -5.0469 L1.2188 -5.0469 L1.2188 -6.3906 L4.8125 -6.3906 L4.8125 -10.0938 L6.25 -10.0938 L6.25 -6.3906 L9.8594 -6.3906 L9.8594 -5.0469 L6.25 -5.0469 Z" stroke="none"/></g><g text-rendering="optimizeLegibility" transform="translate(357.5295,52.1975) matrix(1,0,0,3.3623,0,0)" color-rendering="optimizeQuality" color-interpolation="linearRGB" image-rendering="optimizeQuality"><path d="M6.5781 4.2031 L2.2344 4.2031 L2.2344 -13.9688 L6.5781 -13.9688 L6.5781 -13.1719 L3.9531 -13.1719 L3.9531 3.4062 L6.5781 3.4062 L6.5781 4.2031 Z" stroke="none"/></g><g text-rendering="optimizeLegibility" transform="translate(365.8733,18.9494) matrix(1,0,0,1.32,0,0)" color-rendering="optimizeQuality" color-interpolation="linearRGB" image-rendering="optimizeQuality"><path d="M6.5781 4.2031 L2.2344 4.2031 L2.2344 -13.9688 L6.5781 -13.9688 L6.5781 -13.1719 L3.9531 -13.1719 L3.9531 3.4062 L6.5781 3.4062 L6.5781 4.2031 Z" stroke="none"/></g><g text-rendering="optimizeLegibility" transform="translate(374.4514,19.724)" color-rendering="optimizeQuality" color-interpolation="linearRGB" image-rendering="optimizeQuality"><path d="M4.6562 -7.3125 L4.9688 -7.3125 Q5.375 -7.3125 5.7188 -7.4453 Q6.0625 -7.5781 6.5078 -7.9375 Q6.9531 -8.2969 7.9375 -9.2656 Q8.9219 -10.2344 9.3359 -10.7344 Q9.75 -11.2344 9.9375 -11.6016 Q10.125 -11.9688 10.125 -12.2812 Q10.125 -12.5156 9.9297 -12.6719 Q9.7344 -12.8281 9.375 -12.8594 L9.4844 -13.3281 L13.6719 -13.3281 L13.5625 -12.8594 Q13.1719 -12.7969 12.6797 -12.4453 Q12.1875 -12.0938 11.1719 -11.0938 L7.3906 -7.4062 L9.4688 -2.4062 Q9.7344 -1.7656 9.8906 -1.4688 Q10.0469 -1.1719 10.2344 -0.9688 Q10.4219 -0.7656 10.6562 -0.6484 Q10.8906 -0.5312 11.2188 -0.4844 L11.1094 0 L7.3438 0 L7.4531 -0.4844 Q7.9844 -0.5312 7.9844 -0.9531 Q7.9844 -1.0781 7.9609 -1.2109 Q7.9375 -1.3438 7.8516 -1.6094 Q7.7656 -1.875 7.625 -2.25 L6.3438 -5.3594 Q6.125 -5.9062 5.9609 -6.1328 Q5.7969 -6.3594 5.6094 -6.4453 Q5.4219 -6.5312 5.0312 -6.5312 L4.4844 -6.5312 L3.6719 -2.8438 Q3.5469 -2.25 3.5078 -1.9141 Q3.4688 -1.5781 3.4688 -1.3125 Q3.4688 -0.875 3.6875 -0.6953 Q3.9062 -0.5156 4.4219 -0.4844 L4.3125 0 L0.4062 0 L0.5156 -0.4844 Q0.8906 -0.5312 1.0781 -0.6641 Q1.2656 -0.7969 1.3906 -1.0312 Q1.5156 -1.2656 1.625 -1.6016 Q1.7344 -1.9375 1.9375 -2.9062 L3.6094 -10.4375 Q3.7031 -10.875 3.7578 -11.2891 Q3.8125 -11.7031 3.8125 -12 Q3.8125 -12.4688 3.5781 -12.6484 Q3.3438 -12.8281 2.8594 -12.8594 L2.9688 -13.3281 L6.875 -13.3281 L6.7656 -12.8594 Q6.3906 -12.7812 6.2344 -12.6797 Q6.0781 -12.5781 5.9453 -12.3828 Q5.8125 -12.1875 5.6797 -11.7734 Q5.5469 -11.3594 5.3438 -10.4219 L4.6562 -7.3125 Z" stroke="none"/></g><g text-rendering="optimizeLegibility" transform="translate(388.1233,24.3881)" color-rendering="optimizeQuality" color-interpolation="linearRGB" image-rendering="optimizeQuality"><path d="M1.0938 -2.125 Q1.0938 -1.2969 1.4766 -0.8906 Q1.8594 -0.4844 2.6719 -0.4844 Q3.2969 -0.4844 3.75 -0.7188 Q4.2031 -0.9531 4.4297 -1.3828 Q4.6562 -1.8125 4.6562 -2.3906 Q4.6562 -2.8125 4.5156 -3.1328 Q4.375 -3.4531 4.0781 -3.7422 Q3.7812 -4.0312 3.2188 -4.4062 Q2.7031 -4.75 2.3672 -5.0781 Q2.0312 -5.4062 1.8359 -5.8203 Q1.6406 -6.2344 1.6406 -6.7344 Q1.6406 -7.5469 2.0312 -8.1562 Q2.4219 -8.7656 3.1328 -9.1016 Q3.8438 -9.4375 4.7656 -9.4375 Q5.4062 -9.4375 5.9375 -9.3516 Q6.4688 -9.2656 7.125 -9.0625 L6.7344 -7.3125 L6.0781 -7.3125 Q6.0625 -7.8906 5.9062 -8.2188 Q5.75 -8.5469 5.4766 -8.6953 Q5.2031 -8.8438 4.7344 -8.8438 Q4.1562 -8.8438 3.7266 -8.6094 Q3.2969 -8.375 3.0703 -7.9766 Q2.8438 -7.5781 2.8438 -7.0781 Q2.8438 -6.7344 2.9688 -6.4531 Q3.0938 -6.1719 3.3672 -5.8984 Q3.6406 -5.625 4.1562 -5.2656 Q4.8281 -4.8125 5.1797 -4.4453 Q5.5312 -4.0781 5.6953 -3.6641 Q5.8594 -3.25 5.8594 -2.7188 Q5.8594 -1.8906 5.4609 -1.2422 Q5.0625 -0.5938 4.3359 -0.2422 Q3.6094 0.1094 2.6875 0.1094 Q2.0469 0.1094 1.3281 0.0156 Q0.6094 -0.0781 0.0156 -0.25 L0.4375 -2.125 L1.0938 -2.125 Z" stroke="none"/></g><g text-rendering="optimizeLegibility" transform="translate(396.8264,18.9494) matrix(1,0,0,1.32,0,0)" color-rendering="optimizeQuality" color-interpolation="linearRGB" image-rendering="optimizeQuality"><path d="M4.7812 4.2031 L0.4219 4.2031 L0.4219 3.4062 L3.0625 3.4062 L3.0625 -13.1719 L0.4219 -13.1719 L0.4219 -13.9688 L4.7812 -13.9688 L4.7812 4.2031 Z" stroke="none"/></g><g text-rendering="optimizeLegibility" transform="translate(431.7129,19.724)" color-rendering="optimizeQuality" color-interpolation="linearRGB" image-rendering="optimizeQuality"><path d="M5.4375 0.1562 Q3.3281 0.1562 2.2969 -1.5078 Q1.2656 -3.1719 1.2656 -6.5469 Q1.2656 -8.3438 1.5781 -9.6484 Q1.8906 -10.9531 2.4609 -11.8125 Q3.0312 -12.6719 3.8359 -13.0781 Q4.6406 -13.4844 5.5938 -13.4844 Q7.7188 -13.4844 8.7656 -11.8359 Q9.8125 -10.1875 9.8125 -6.8438 Q9.8125 -3.3906 8.6953 -1.6172 Q7.5781 0.1562 5.4375 0.1562 ZM3.1719 -6.8438 Q3.1719 -3.6562 3.7578 -2.1641 Q4.3438 -0.6719 5.5938 -0.6719 Q6.7656 -0.6719 7.3359 -2.0781 Q7.9062 -3.4844 7.9062 -6.4219 Q7.9062 -8.6562 7.6172 -10.0547 Q7.3281 -11.4531 6.8047 -12.0547 Q6.2812 -12.6562 5.5312 -12.6562 Q4.8594 -12.6562 4.4062 -12.2578 Q3.9531 -11.8594 3.6797 -11.1094 Q3.4062 -10.3594 3.2891 -9.2734 Q3.1719 -8.1875 3.1719 -6.8438 Z" stroke="none"/></g><g text-rendering="optimizeLegibility" transform="translate(379.9514,61.5405)" color-rendering="optimizeQuality" color-interpolation="linearRGB" image-rendering="optimizeQuality"><path d="M5.4375 0.1562 Q3.3281 0.1562 2.2969 -1.5078 Q1.2656 -3.1719 1.2656 -6.5469 Q1.2656 -8.3438 1.5781 -9.6484 Q1.8906 -10.9531 2.4609 -11.8125 Q3.0312 -12.6719 3.8359 -13.0781 Q4.6406 -13.4844 5.5938 -13.4844 Q7.7188 -13.4844 8.7656 -11.8359 Q9.8125 -10.1875 9.8125 -6.8438 Q9.8125 -3.3906 8.6953 -1.6172 Q7.5781 0.1562 5.4375 0.1562 ZM3.1719 -6.8438 Q3.1719 -3.6562 3.7578 -2.1641 Q4.3438 -0.6719 5.5938 -0.6719 Q6.7656 -0.6719 7.3359 -2.0781 Q7.9062 -3.4844 7.9062 -6.4219 Q7.9062 -8.6562 7.6172 -10.0547 Q7.3281 -11.4531 6.8047 -12.0547 Q6.2812 -12.6562 5.5312 -12.6562 Q4.8594 -12.6562 4.4062 -12.2578 Q3.9531 -11.8594 3.6797 -11.1094 Q3.4062 -10.3594 3.2891 -9.2734 Q3.1719 -8.1875 3.1719 -6.8438 Z" stroke="none"/></g><g text-rendering="optimizeLegibility" transform="translate(417.7955,61.5405)" color-rendering="optimizeQuality" color-interpolation="linearRGB" image-rendering="optimizeQuality"><path d="M1.2344 -5.0469 L1.2344 -6.3906 L9.8281 -6.3906 L9.8281 -5.0469 L1.2344 -5.0469 Z" stroke="none"/></g><g text-rendering="optimizeLegibility" stroke-width="1.6667" color-interpolation="linearRGB" color-rendering="optimizeQuality" image-rendering="optimizeQuality"><line y2="54.3205" fill="none" x1="431.3014" x2="452.8639" y1="54.3205"/><path d="M4.6094 2.9375 L1.5625 2.9375 L1.5625 -9.7812 L4.6094 -9.7812 L4.6094 -9.2188 L2.7656 -9.2188 L2.7656 2.375 L4.6094 2.375 L4.6094 2.9375 Z" stroke-width="1" transform="translate(429.7389,47.811) matrix(1,0,0,1.3611,0,0)" stroke="none"/></g><g text-rendering="optimizeLegibility" transform="translate(434.3483,48.4734)" color-rendering="optimizeQuality" color-interpolation="linearRGB" image-rendering="optimizeQuality"><path d="M3.25 -5.1094 L3.4844 -5.1094 Q3.7656 -5.1094 4 -5.2109 Q4.2344 -5.3125 4.5547 -5.5625 Q4.875 -5.8125 5.5547 -6.4922 Q6.2344 -7.1719 6.5312 -7.5234 Q6.8281 -7.875 6.9609 -8.125 Q7.0938 -8.375 7.0938 -8.5938 Q7.0938 -8.7656 6.9531 -8.8672 Q6.8125 -8.9688 6.5625 -9 L6.6406 -9.3281 L9.5781 -9.3281 L9.5 -9 Q9.2188 -8.9531 8.875 -8.7109 Q8.5312 -8.4688 7.8281 -7.7656 L5.1719 -5.1875 L6.625 -1.6875 Q6.8125 -1.2344 6.9219 -1.0312 Q7.0312 -0.8281 7.1641 -0.6875 Q7.2969 -0.5469 7.4609 -0.4609 Q7.625 -0.375 7.8594 -0.3281 L7.7812 0 L5.1406 0 L5.2188 -0.3281 Q5.5781 -0.375 5.5781 -0.6562 Q5.5781 -0.75 5.5625 -0.8438 Q5.5469 -0.9375 5.4922 -1.125 Q5.4375 -1.3125 5.3281 -1.5781 L4.4375 -3.75 Q4.2812 -4.1406 4.1641 -4.2969 Q4.0469 -4.4531 3.9219 -4.5156 Q3.7969 -4.5781 3.5156 -4.5781 L3.1406 -4.5781 L2.5781 -1.9844 Q2.4844 -1.5781 2.4531 -1.3438 Q2.4219 -1.1094 2.4219 -0.9219 Q2.4219 -0.6094 2.5781 -0.4844 Q2.7344 -0.3594 3.0938 -0.3281 L3.0156 0 L0.2812 0 L0.3594 -0.3281 Q0.625 -0.375 0.75 -0.4688 Q0.875 -0.5625 0.9688 -0.7266 Q1.0625 -0.8906 1.1328 -1.125 Q1.2031 -1.3594 1.3594 -2.0312 L2.5156 -7.2969 Q2.5938 -7.6094 2.6328 -7.9062 Q2.6719 -8.2031 2.6719 -8.4062 Q2.6719 -8.7188 2.5078 -8.8438 Q2.3438 -8.9688 2 -9 L2.0781 -9.3281 L4.8125 -9.3281 L4.7344 -9 Q4.4844 -8.9375 4.3672 -8.875 Q4.25 -8.8125 4.1562 -8.6719 Q4.0625 -8.5312 3.9766 -8.2422 Q3.8906 -7.9531 3.7344 -7.2969 L3.25 -5.1094 Z" stroke="none"/></g><g text-rendering="optimizeLegibility" transform="translate(443.9264,51.8094)" color-rendering="optimizeQuality" color-interpolation="linearRGB" image-rendering="optimizeQuality"><path d="M1.8438 -1.4219 Q1.7969 -1.2812 1.7812 -1.1719 Q1.7656 -1.0625 1.75 -0.9141 Q1.7344 -0.7656 1.7344 -0.6562 Q1.7344 -0.5156 1.7812 -0.4297 Q1.8281 -0.3438 1.9297 -0.3047 Q2.0312 -0.2656 2.2656 -0.2344 L2.2188 0 L0.2031 0 L0.2656 -0.2344 Q0.4375 -0.2656 0.5312 -0.3359 Q0.625 -0.4062 0.6875 -0.5234 Q0.75 -0.6406 0.8047 -0.8047 Q0.8594 -0.9688 0.9688 -1.4531 L1.7969 -5.2188 Q1.9062 -5.7031 1.9062 -5.9844 Q1.9062 -6.2188 1.7969 -6.3125 Q1.6875 -6.4062 1.4375 -6.4219 L1.4844 -6.6719 L5.8906 -6.6719 L5.5469 -5.1719 L5.0781 -5.1719 Q5.0625 -5.5156 5.0312 -5.7109 Q5 -5.9062 4.9453 -6.0078 Q4.8906 -6.1094 4.8281 -6.1562 Q4.7656 -6.2031 4.6719 -6.2188 Q4.5781 -6.2344 4.4062 -6.2344 L2.8906 -6.2344 L2.3125 -3.5781 L3.2344 -3.5781 Q3.4375 -3.5781 3.5781 -3.6406 Q3.7188 -3.7031 3.8438 -3.8516 Q3.9688 -4 4.1562 -4.375 L4.5938 -4.375 L4.125 -2.3125 L3.6875 -2.3125 Q3.6875 -2.625 3.6797 -2.7891 Q3.6719 -2.9531 3.625 -3.0234 Q3.5781 -3.0938 3.4922 -3.125 Q3.4062 -3.1562 3.1719 -3.1562 L2.2188 -3.1562 L1.8438 -1.4219 Z" stroke="none"/></g><g text-rendering="optimizeLegibility" transform="translate(449.5201,47.811) matrix(1,0,0,1.3611,0,0)" color-rendering="optimizeQuality" color-interpolation="linearRGB" image-rendering="optimizeQuality"><path d="M3.3438 2.9375 L0.2969 2.9375 L0.2969 2.375 L2.1406 2.375 L2.1406 -9.2188 L0.2969 -9.2188 L0.2969 -9.7812 L3.3438 -9.7812 L3.3438 2.9375 Z" stroke="none"/></g><g text-rendering="optimizeLegibility" transform="translate(436.3639,64.6822)" color-rendering="optimizeQuality" color-interpolation="linearRGB" image-rendering="optimizeQuality"><path d="M1.6406 -0.5 L0.875 2.9531 L-0.25 2.9531 L1.125 -3.2344 Q1.875 -6.6562 4.6406 -6.6562 Q5.6406 -6.6562 6.2109 -6.0703 Q6.7812 -5.4844 6.7812 -4.4062 Q6.7812 -2.8125 5.7578 -1.3516 Q4.7344 0.1094 3.0781 0.1094 Q2.25 0.1094 1.6406 -0.5 ZM2.1562 -2.8594 L1.875 -1.5781 Q1.8594 -1.4844 1.8594 -1.375 Q1.8594 -1.0312 2.25 -0.7344 Q2.6406 -0.4375 3.1406 -0.4375 Q4.1094 -0.4375 4.8438 -1.7422 Q5.5781 -3.0469 5.5781 -4.5625 Q5.5781 -6.1094 4.4219 -6.1094 Q2.8594 -6.1094 2.1562 -2.8594 Z" stroke="none"/></g><g text-rendering="optimizeLegibility" transform="translate(435.9498,65.1753)" color-rendering="optimizeQuality" color-interpolation="linearRGB" image-rendering="optimizeQuality"><path d="M7.0312 -7.8594 L0.1719 -7.8594 Q0 -7.8594 -0.0781 -7.9297 Q-0.1562 -8 -0.1562 -8.1094 Q-0.1562 -8.2031 -0.0781 -8.2734 Q0 -8.3438 0.1719 -8.3438 L7.0312 -8.3438 Q7.2188 -8.3438 7.2891 -8.2734 Q7.3594 -8.2031 7.3594 -8.0938 Q7.3594 -8 7.2891 -7.9297 Q7.2188 -7.8594 7.0312 -7.8594 Z" stroke="none"/></g><g text-rendering="optimizeLegibility" transform="translate(443.4655,70.9713)" color-rendering="optimizeQuality" color-interpolation="linearRGB" image-rendering="optimizeQuality"><path d="M2.7188 0.0781 Q1.6562 0.0781 1.1406 -0.75 Q0.625 -1.5781 0.625 -3.2656 Q0.625 -4.1719 0.7891 -4.8281 Q0.9531 -5.4844 1.2344 -5.9062 Q1.5156 -6.3281 1.9141 -6.5391 Q2.3125 -6.75 2.7969 -6.75 Q3.8594 -6.75 4.3828 -5.9219 Q4.9062 -5.0938 4.9062 -3.4219 Q4.9062 -1.6875 4.3516 -0.8047 Q3.7969 0.0781 2.7188 0.0781 ZM1.5781 -3.4219 Q1.5781 -1.8281 1.875 -1.0859 Q2.1719 -0.3438 2.7969 -0.3438 Q3.3906 -0.3438 3.6719 -1.0391 Q3.9531 -1.7344 3.9531 -3.2031 Q3.9531 -4.3281 3.8047 -5.0234 Q3.6562 -5.7188 3.3984 -6.0234 Q3.1406 -6.3281 2.7656 -6.3281 Q2.4375 -6.3281 2.2109 -6.125 Q1.9844 -5.9219 1.8438 -5.5469 Q1.7031 -5.1719 1.6406 -4.6328 Q1.5781 -4.0938 1.5781 -3.4219 Z" stroke="none"/></g><g text-rendering="optimizeLegibility" transform="translate(457.7865,52.1975) matrix(1,0,0,3.3623,0,0)" color-rendering="optimizeQuality" color-interpolation="linearRGB" image-rendering="optimizeQuality"><path d="M4.7812 4.2031 L0.4219 4.2031 L0.4219 3.4062 L3.0625 3.4062 L3.0625 -13.1719 L0.4219 -13.1719 L0.4219 -13.9688 L4.7812 -13.9688 L4.7812 4.2031 Z" stroke="none"/></g><g text-rendering="optimizeLegibility" transform="translate(466.1459,52.1843) matrix(1,0,0,3.3596,0,0)" color-rendering="optimizeQuality" color-interpolation="linearRGB" image-rendering="optimizeQuality"><path d="M0.4219 -14.0156 Q2.0781 -14.0156 3.1328 -13.5156 Q4.1875 -13.0156 4.7734 -12 Q5.3594 -10.9844 5.6172 -9.3516 Q5.875 -7.7188 5.875 -4.9219 Q5.875 -2.1562 5.6172 -0.5078 Q5.3594 1.1406 4.7734 2.1797 Q4.1875 3.2188 3.1328 3.7344 Q2.0781 4.25 0.4219 4.25 L0.4219 3.4531 Q1.1094 3.4531 1.625 3.3281 Q2.2344 3.1875 2.6406 2.7969 Q3.1094 2.375 3.4062 1.6094 Q3.75 0.7031 3.9219 -0.7812 Q4.0938 -2.3594 4.0938 -4.8438 Q4.0938 -7.0469 3.9453 -8.5859 Q3.7969 -10.125 3.4531 -11.0938 Q3.1875 -11.9219 2.7812 -12.375 Q2.4062 -12.7812 1.9219 -12.9844 Q1.3438 -13.2188 0.4219 -13.2188 L0.4219 -14.0156 Z" stroke="none"/></g><g text-rendering="optimizeLegibility" transform="translate(475.099,49.113) matrix(1,0,0,2.735,0,0)" color-rendering="optimizeQuality" color-interpolation="linearRGB" image-rendering="optimizeQuality"><path d="M7.0781 4.2188 Q5.5625 4.2188 4.6797 3.8281 Q3.7969 3.4375 3.4141 2.6641 Q3.0312 1.8906 3.0312 0.5781 L3.0312 -2.25 Q3.0312 -3.1094 2.8125 -3.5938 Q2.5938 -4.0781 2.1562 -4.2734 Q1.7188 -4.4688 0.9219 -4.4688 L0.9219 -5.2812 Q1.7031 -5.2812 2.1484 -5.4766 Q2.5938 -5.6719 2.8125 -6.1484 Q3.0312 -6.625 3.0312 -7.5 L3.0312 -10.3281 Q3.0312 -11.625 3.4141 -12.4062 Q3.7969 -13.1875 4.6797 -13.5781 Q5.5625 -13.9688 7.0781 -13.9688 L7.3281 -13.9688 L7.3281 -13.1719 Q6.5469 -13.1719 6.1641 -13.0938 Q5.7812 -13.0156 5.5391 -12.8438 Q5.2969 -12.6719 5.1406 -12.4141 Q4.9844 -12.1562 4.8984 -11.6875 Q4.8125 -11.2188 4.8125 -10.4375 L4.8125 -8.5469 Q4.8125 -7.5625 4.6406 -6.8984 Q4.4688 -6.2344 4.0312 -5.7578 Q3.5938 -5.2812 2.8281 -4.9688 L2.8281 -4.7812 Q3.5781 -4.4844 4.0312 -3.9844 Q4.4844 -3.4844 4.6484 -2.8203 Q4.8125 -2.1562 4.8125 -1.2031 L4.8125 0.6875 Q4.8125 1.4688 4.8984 1.9375 Q4.9844 2.4062 5.1406 2.6719 Q5.2969 2.9375 5.5391 3.1016 Q5.7812 3.2656 6.1641 3.3438 Q6.5469 3.4219 7.3281 3.4219 L7.3281 4.2188 L7.0781 4.2188 Z" stroke="none"/></g><g text-rendering="optimizeLegibility" transform="translate(485.5052,22.1062) matrix(1,0,0,1.2579,0,0)" color-rendering="optimizeQuality" color-interpolation="linearRGB" image-rendering="optimizeQuality"><path d="M7.0781 4.2188 Q5.5625 4.2188 4.6797 3.8281 Q3.7969 3.4375 3.4141 2.6641 Q3.0312 1.8906 3.0312 0.5781 L3.0312 -2.25 Q3.0312 -3.1094 2.8125 -3.5938 Q2.5938 -4.0781 2.1562 -4.2734 Q1.7188 -4.4688 0.9219 -4.4688 L0.9219 -5.2812 Q1.7031 -5.2812 2.1484 -5.4766 Q2.5938 -5.6719 2.8125 -6.1484 Q3.0312 -6.625 3.0312 -7.5 L3.0312 -10.3281 Q3.0312 -11.625 3.4141 -12.4062 Q3.7969 -13.1875 4.6797 -13.5781 Q5.5625 -13.9688 7.0781 -13.9688 L7.3281 -13.9688 L7.3281 -13.1719 Q6.5469 -13.1719 6.1641 -13.0938 Q5.7812 -13.0156 5.5391 -12.8438 Q5.2969 -12.6719 5.1406 -12.4141 Q4.9844 -12.1562 4.8984 -11.6875 Q4.8125 -11.2188 4.8125 -10.4375 L4.8125 -8.5469 Q4.8125 -7.5625 4.6406 -6.8984 Q4.4688 -6.2344 4.0312 -5.7578 Q3.5938 -5.2812 2.8281 -4.9688 L2.8281 -4.7812 Q3.5781 -4.4844 4.0312 -3.9844 Q4.4844 -3.4844 4.6484 -2.8203 Q4.8125 -2.1562 4.8125 -1.2031 L4.8125 0.6875 Q4.8125 1.4688 4.8984 1.9375 Q4.9844 2.4062 5.1406 2.6719 Q5.2969 2.9375 5.5391 3.1016 Q5.7812 3.2656 6.1641 3.3438 Q6.5469 3.4219 7.3281 3.4219 L7.3281 4.2188 L7.0781 4.2188 Z" stroke="none"/></g><g text-rendering="optimizeLegibility" transform="translate(494.8334,23.1941)" color-rendering="optimizeQuality" color-interpolation="linearRGB" image-rendering="optimizeQuality"><path d="M1.5 -9.3438 L4.5781 -9.3438 L3.3281 -4.3594 Q3.1875 -3.8125 3.0859 -3.2734 Q2.9844 -2.7344 2.9844 -2.2812 Q2.9844 -1.5938 3.2266 -1.2891 Q3.4688 -0.9844 3.9688 -0.9844 Q4.3906 -0.9844 4.8828 -1.3125 Q5.375 -1.6406 5.9219 -2.3281 Q6.4688 -3.0156 6.7812 -3.6328 Q7.0938 -4.25 7.2812 -5.0938 L8.1719 -9.3438 L9.8594 -9.3438 L8.375 -2.6719 Q8.3125 -2.4062 8.2344 -1.9766 Q8.1562 -1.5469 8.1562 -1.2656 Q8.1562 -0.8594 8.3828 -0.6875 Q8.6094 -0.5156 9.2344 -0.4844 L9.125 0 L6.3438 0 L6.9688 -2.4531 L6.8438 -2.4844 Q5.8906 -1.1406 5.0078 -0.4922 Q4.125 0.1562 3.2188 0.1562 Q2.2812 0.1562 1.7891 -0.3672 Q1.2969 -0.8906 1.2969 -1.9219 Q1.2969 -2.2031 1.3516 -2.6016 Q1.4062 -3 1.5 -3.4219 L2.3281 -6.8906 Q2.4219 -7.3281 2.4531 -7.5781 Q2.4844 -7.8281 2.4844 -8.0156 Q2.4844 -8.4531 2.25 -8.625 Q2.0156 -8.7969 1.4219 -8.8438 L1.5 -9.3438 Z" stroke="none"/></g><g text-rendering="optimizeLegibility" transform="translate(504.6927,26.6237)" color-rendering="optimizeQuality" color-interpolation="linearRGB" image-rendering="optimizeQuality"><path d="M5.5625 -1.3594 Q5.0625 -0.8125 4.5938 -0.4922 Q4.125 -0.1719 3.6641 -0.0312 Q3.2031 0.1094 2.6406 0.1094 Q2.0938 0.1094 1.7031 -0.0625 Q1.3125 -0.2344 1.0625 -0.5391 Q0.8125 -0.8438 0.6875 -1.2656 Q0.5625 -1.6875 0.5625 -2.1875 Q0.5625 -2.9062 0.8281 -3.75 Q1.0938 -4.5938 1.625 -5.2578 Q2.1562 -5.9219 2.8984 -6.2891 Q3.6406 -6.6562 4.4844 -6.6562 Q5.3125 -6.6562 5.7266 -6.3203 Q6.1406 -5.9844 6.1406 -5.2656 Q6.1406 -4.1094 5.0469 -3.5312 Q3.9531 -2.9531 1.8125 -2.9531 Q1.7344 -2.5312 1.7344 -2.0625 Q1.7344 -1.3438 2.0156 -1.0156 Q2.2969 -0.6875 2.9219 -0.6875 Q3.5625 -0.6875 4.0703 -0.9609 Q4.5781 -1.2344 5.1406 -1.8125 L5.5625 -1.3594 ZM1.9219 -3.5312 Q2.5625 -3.5312 3.0312 -3.6016 Q3.5 -3.6719 3.8438 -3.7812 Q4.1875 -3.8906 4.4141 -4.0469 Q4.6406 -4.2031 4.7734 -4.3906 Q4.9062 -4.5781 4.9609 -4.7891 Q5.0156 -5 5.0156 -5.2188 Q5.0156 -5.6406 4.8203 -5.875 Q4.625 -6.1094 4.2344 -6.1094 Q3.7656 -6.1094 3.3047 -5.7656 Q2.8438 -5.4219 2.4922 -4.8359 Q2.1406 -4.25 1.9219 -3.5312 Z" stroke="none"/></g><g text-rendering="optimizeLegibility" transform="translate(512.4115,22.1062) matrix(1,0,0,1.2579,0,0)" color-rendering="optimizeQuality" color-interpolation="linearRGB" image-rendering="optimizeQuality"><path d="M0.6719 -13.9688 Q2.1875 -13.9688 3.0703 -13.5781 Q3.9531 -13.1875 4.3281 -12.4062 Q4.7031 -11.625 4.7031 -10.3281 L4.7031 -7.5 Q4.7031 -6.625 4.9297 -6.1484 Q5.1562 -5.6719 5.5938 -5.4766 Q6.0312 -5.2812 6.8125 -5.2812 L6.8125 -4.4688 Q6.0312 -4.4688 5.5859 -4.2734 Q5.1406 -4.0781 4.9219 -3.5938 Q4.7031 -3.1094 4.7031 -2.25 L4.7031 0.5781 Q4.7031 1.8906 4.3281 2.6641 Q3.9531 3.4375 3.0703 3.8281 Q2.1875 4.2188 0.6719 4.2188 L0.4219 4.2188 L0.4219 3.4219 Q1.1875 3.4219 1.5781 3.3438 Q1.9688 3.2656 2.2031 3.1016 Q2.4375 2.9375 2.5938 2.6719 Q2.75 2.4062 2.8438 1.9375 Q2.9375 1.4688 2.9375 0.6875 L2.9375 -1.2031 Q2.9375 -2.1875 3.1016 -2.8438 Q3.2656 -3.5 3.7109 -3.9844 Q4.1562 -4.4688 4.9062 -4.7812 L4.9062 -4.9688 Q4.1719 -5.2656 3.7188 -5.7656 Q3.2656 -6.2656 3.1016 -6.9297 Q2.9375 -7.5938 2.9375 -8.5469 L2.9375 -10.4375 Q2.9375 -11.2188 2.8438 -11.6875 Q2.75 -12.1562 2.5938 -12.4141 Q2.4375 -12.6719 2.2031 -12.8438 Q1.9688 -13.0156 1.5781 -13.0938 Q1.1875 -13.1719 0.4219 -13.1719 L0.4219 -13.9688 L0.6719 -13.9688 Z" stroke="none"/></g><g text-rendering="optimizeLegibility" transform="translate(485.599,60.156) matrix(1,0,0,1.6281,0,0)" color-rendering="optimizeQuality" color-interpolation="linearRGB" image-rendering="optimizeQuality"><path d="M7.0781 4.2188 Q5.5625 4.2188 4.6797 3.8281 Q3.7969 3.4375 3.4141 2.6641 Q3.0312 1.8906 3.0312 0.5781 L3.0312 -2.25 Q3.0312 -3.1094 2.8125 -3.5938 Q2.5938 -4.0781 2.1562 -4.2734 Q1.7188 -4.4688 0.9219 -4.4688 L0.9219 -5.2812 Q1.7031 -5.2812 2.1484 -5.4766 Q2.5938 -5.6719 2.8125 -6.1484 Q3.0312 -6.625 3.0312 -7.5 L3.0312 -10.3281 Q3.0312 -11.625 3.4141 -12.4062 Q3.7969 -13.1875 4.6797 -13.5781 Q5.5625 -13.9688 7.0781 -13.9688 L7.3281 -13.9688 L7.3281 -13.1719 Q6.5469 -13.1719 6.1641 -13.0938 Q5.7812 -13.0156 5.5391 -12.8438 Q5.2969 -12.6719 5.1406 -12.4141 Q4.9844 -12.1562 4.8984 -11.6875 Q4.8125 -11.2188 4.8125 -10.4375 L4.8125 -8.5469 Q4.8125 -7.5625 4.6406 -6.8984 Q4.4688 -6.2344 4.0312 -5.7578 Q3.5938 -5.2812 2.8281 -4.9688 L2.8281 -4.7812 Q3.5781 -4.4844 4.0312 -3.9844 Q4.4844 -3.4844 4.6484 -2.8203 Q4.8125 -2.1562 4.8125 -1.2031 L4.8125 0.6875 Q4.8125 1.4688 4.8984 1.9375 Q4.9844 2.4062 5.1406 2.6719 Q5.2969 2.9375 5.5391 3.1016 Q5.7812 3.2656 6.1641 3.3438 Q6.5469 3.4219 7.3281 3.4219 L7.3281 4.2188 L7.0781 4.2188 Z" stroke="none"/></g><g text-rendering="optimizeLegibility" transform="translate(494.9271,59.4387)" color-rendering="optimizeQuality" color-interpolation="linearRGB" image-rendering="optimizeQuality"><path d="M6.5 -2.2656 Q5.625 -1.0312 4.7891 -0.4453 Q3.9531 0.1406 3.0938 0.1406 Q2.0156 0.1406 1.4219 -0.6641 Q0.8281 -1.4688 0.8281 -2.9375 Q0.8281 -3.875 1.0469 -4.8203 Q1.2656 -5.7656 1.6953 -6.6094 Q2.125 -7.4531 2.7344 -8.0938 Q3.3438 -8.7344 4.1406 -9.1172 Q4.9375 -9.5 5.875 -9.5 Q6.4688 -9.5 7.0156 -9.3594 Q7.5625 -9.2188 8.1562 -8.8594 L9.0469 -9.5 L9.6719 -9.3438 L7.1719 1.7656 Q7.0156 2.5 7.0156 2.875 Q7.0156 3.1719 7.1094 3.3359 Q7.2031 3.5 7.4141 3.5859 Q7.625 3.6719 8.0938 3.7188 L8.0156 4.2031 L4.9688 4.2031 L6.6406 -2.2031 L6.5 -2.2656 ZM7.2969 -5.9531 Q7.3906 -6.375 7.4141 -6.6875 Q7.4375 -7 7.4375 -7.2812 Q7.4375 -8.0312 7.1172 -8.3828 Q6.7969 -8.7344 6.0469 -8.7344 Q5.6406 -8.7344 5.2656 -8.6016 Q4.8906 -8.4688 4.5078 -8.1641 Q4.125 -7.8594 3.7812 -7.3594 Q3.4375 -6.8594 3.1562 -6.1484 Q2.875 -5.4375 2.7188 -4.6172 Q2.5625 -3.7969 2.5625 -3.0312 Q2.5625 -2.0156 2.8359 -1.5078 Q3.1094 -1 3.7656 -1 Q4.0781 -1 4.4062 -1.1406 Q4.7344 -1.2812 5.1328 -1.6484 Q5.5312 -2.0156 6.0312 -2.7188 Q6.5 -3.375 6.7656 -4.0156 Q7.0312 -4.6562 7.2031 -5.5312 L7.2969 -5.9531 Z" stroke="none"/></g><g text-rendering="optimizeLegibility" transform="translate(504.599,66.9153)" color-rendering="optimizeQuality" color-interpolation="linearRGB" image-rendering="optimizeQuality"><path d="M5.5625 -1.3594 Q5.0625 -0.8125 4.5938 -0.4922 Q4.125 -0.1719 3.6641 -0.0312 Q3.2031 0.1094 2.6406 0.1094 Q2.0938 0.1094 1.7031 -0.0625 Q1.3125 -0.2344 1.0625 -0.5391 Q0.8125 -0.8438 0.6875 -1.2656 Q0.5625 -1.6875 0.5625 -2.1875 Q0.5625 -2.9062 0.8281 -3.75 Q1.0938 -4.5938 1.625 -5.2578 Q2.1562 -5.9219 2.8984 -6.2891 Q3.6406 -6.6562 4.4844 -6.6562 Q5.3125 -6.6562 5.7266 -6.3203 Q6.1406 -5.9844 6.1406 -5.2656 Q6.1406 -4.1094 5.0469 -3.5312 Q3.9531 -2.9531 1.8125 -2.9531 Q1.7344 -2.5312 1.7344 -2.0625 Q1.7344 -1.3438 2.0156 -1.0156 Q2.2969 -0.6875 2.9219 -0.6875 Q3.5625 -0.6875 4.0703 -0.9609 Q4.5781 -1.2344 5.1406 -1.8125 L5.5625 -1.3594 ZM1.9219 -3.5312 Q2.5625 -3.5312 3.0312 -3.6016 Q3.5 -3.6719 3.8438 -3.7812 Q4.1875 -3.8906 4.4141 -4.0469 Q4.6406 -4.2031 4.7734 -4.3906 Q4.9062 -4.5781 4.9609 -4.7891 Q5.0156 -5 5.0156 -5.2188 Q5.0156 -5.6406 4.8203 -5.875 Q4.625 -6.1094 4.2344 -6.1094 Q3.7656 -6.1094 3.3047 -5.7656 Q2.8438 -5.4219 2.4922 -4.8359 Q2.1406 -4.25 1.9219 -3.5312 Z" stroke="none"/></g><g text-rendering="optimizeLegibility" transform="translate(512.3177,60.156) matrix(1,0,0,1.6281,0,0)" color-rendering="optimizeQuality" color-interpolation="linearRGB" image-rendering="optimizeQuality"><path d="M0.6719 -13.9688 Q2.1875 -13.9688 3.0703 -13.5781 Q3.9531 -13.1875 4.3281 -12.4062 Q4.7031 -11.625 4.7031 -10.3281 L4.7031 -7.5 Q4.7031 -6.625 4.9297 -6.1484 Q5.1562 -5.6719 5.5938 -5.4766 Q6.0312 -5.2812 6.8125 -5.2812 L6.8125 -4.4688 Q6.0312 -4.4688 5.5859 -4.2734 Q5.1406 -4.0781 4.9219 -3.5938 Q4.7031 -3.1094 4.7031 -2.25 L4.7031 0.5781 Q4.7031 1.8906 4.3281 2.6641 Q3.9531 3.4375 3.0703 3.8281 Q2.1875 4.2188 0.6719 4.2188 L0.4219 4.2188 L0.4219 3.4219 Q1.1875 3.4219 1.5781 3.3438 Q1.9688 3.2656 2.2031 3.1016 Q2.4375 2.9375 2.5938 2.6719 Q2.75 2.4062 2.8438 1.9375 Q2.9375 1.4688 2.9375 0.6875 L2.9375 -1.2031 Q2.9375 -2.1875 3.1016 -2.8438 Q3.2656 -3.5 3.7109 -3.9844 Q4.1562 -4.4688 4.9062 -4.7812 L4.9062 -4.9688 Q4.1719 -5.2656 3.7188 -5.7656 Q3.2656 -6.2656 3.1016 -6.9297 Q2.9375 -7.5938 2.9375 -8.5469 L2.9375 -10.4375 Q2.9375 -11.2188 2.8438 -11.6875 Q2.75 -12.1562 2.5938 -12.4141 Q2.4375 -12.6719 2.2031 -12.8438 Q1.9688 -13.0156 1.5781 -13.0938 Q1.1875 -13.1719 0.4219 -13.1719 L0.4219 -13.9688 L0.6719 -13.9688 Z" stroke="none"/></g><g text-rendering="optimizeLegibility" transform="translate(522.8021,49.113) matrix(1,0,0,2.735,0,0)" color-rendering="optimizeQuality" color-interpolation="linearRGB" image-rendering="optimizeQuality"><path d="M0.6719 -13.9688 Q2.1875 -13.9688 3.0703 -13.5781 Q3.9531 -13.1875 4.3281 -12.4062 Q4.7031 -11.625 4.7031 -10.3281 L4.7031 -7.5 Q4.7031 -6.625 4.9297 -6.1484 Q5.1562 -5.6719 5.5938 -5.4766 Q6.0312 -5.2812 6.8125 -5.2812 L6.8125 -4.4688 Q6.0312 -4.4688 5.5859 -4.2734 Q5.1406 -4.0781 4.9219 -3.5938 Q4.7031 -3.1094 4.7031 -2.25 L4.7031 0.5781 Q4.7031 1.8906 4.3281 2.6641 Q3.9531 3.4375 3.0703 3.8281 Q2.1875 4.2188 0.6719 4.2188 L0.4219 4.2188 L0.4219 3.4219 Q1.1875 3.4219 1.5781 3.3438 Q1.9688 3.2656 2.2031 3.1016 Q2.4375 2.9375 2.5938 2.6719 Q2.75 2.4062 2.8438 1.9375 Q2.9375 1.4688 2.9375 0.6875 L2.9375 -1.2031 Q2.9375 -2.1875 3.1016 -2.8438 Q3.2656 -3.5 3.7109 -3.9844 Q4.1562 -4.4688 4.9062 -4.7812 L4.9062 -4.9688 Q4.1719 -5.2656 3.7188 -5.7656 Q3.2656 -6.2656 3.1016 -6.9297 Q2.9375 -7.5938 2.9375 -8.5469 L2.9375 -10.4375 Q2.9375 -11.2188 2.8438 -11.6875 Q2.75 -12.1562 2.5938 -12.4141 Q2.4375 -12.6719 2.2031 -12.8438 Q1.9688 -13.0156 1.5781 -13.0938 Q1.1875 -13.1719 0.4219 -13.1719 L0.4219 -13.9688 L0.6719 -13.9688 Z" stroke="none"/></g><g text-rendering="optimizeLegibility" transform="translate(532.3959,43)" color-rendering="optimizeQuality" color-interpolation="linearRGB" image-rendering="optimizeQuality"><path d="M1.2188 -7.0625 L1.2188 -8.4219 L9.8594 -8.4219 L9.8594 -7.0625 L1.2188 -7.0625 ZM1.2188 -3.0156 L1.2188 -4.3594 L9.8594 -4.3594 L9.8594 -3.0156 L1.2188 -3.0156 Z" stroke="none"/></g><g text-rendering="optimizeLegibility" transform="translate(545.3334,54.1717) matrix(1,0,0,3.7726,0,0)" color-rendering="optimizeQuality" color-interpolation="linearRGB" image-rendering="optimizeQuality"><path d="M7.0781 4.2188 Q5.5625 4.2188 4.6797 3.8281 Q3.7969 3.4375 3.4141 2.6641 Q3.0312 1.8906 3.0312 0.5781 L3.0312 -2.25 Q3.0312 -3.1094 2.8125 -3.5938 Q2.5938 -4.0781 2.1562 -4.2734 Q1.7188 -4.4688 0.9219 -4.4688 L0.9219 -5.2812 Q1.7031 -5.2812 2.1484 -5.4766 Q2.5938 -5.6719 2.8125 -6.1484 Q3.0312 -6.625 3.0312 -7.5 L3.0312 -10.3281 Q3.0312 -11.625 3.4141 -12.4062 Q3.7969 -13.1875 4.6797 -13.5781 Q5.5625 -13.9688 7.0781 -13.9688 L7.3281 -13.9688 L7.3281 -13.1719 Q6.5469 -13.1719 6.1641 -13.0938 Q5.7812 -13.0156 5.5391 -12.8438 Q5.2969 -12.6719 5.1406 -12.4141 Q4.9844 -12.1562 4.8984 -11.6875 Q4.8125 -11.2188 4.8125 -10.4375 L4.8125 -8.5469 Q4.8125 -7.5625 4.6406 -6.8984 Q4.4688 -6.2344 4.0312 -5.7578 Q3.5938 -5.2812 2.8281 -4.9688 L2.8281 -4.7812 Q3.5781 -4.4844 4.0312 -3.9844 Q4.4844 -3.4844 4.6484 -2.8203 Q4.8125 -2.1562 4.8125 -1.2031 L4.8125 0.6875 Q4.8125 1.4688 4.8984 1.9375 Q4.9844 2.4062 5.1406 2.6719 Q5.2969 2.9375 5.5391 3.1016 Q5.7812 3.2656 6.1641 3.3438 Q6.5469 3.4219 7.3281 3.4219 L7.3281 4.2188 L7.0781 4.2188 Z" stroke="none"/></g><g text-rendering="optimizeLegibility" transform="translate(567.2585,15.5037)" color-rendering="optimizeQuality" color-interpolation="linearRGB" image-rendering="optimizeQuality"><path d="M2.4844 0.1719 Q2.1562 1.7344 1.5703 2.6484 Q0.9844 3.5625 0.1562 3.9609 Q-0.6719 4.3594 -1.8594 4.3594 Q-2.2812 4.3594 -2.625 4.2656 L-2.4062 3.4062 Q-2.1719 3.4844 -1.7188 3.4844 Q-1.2031 3.4844 -0.875 3.3516 Q-0.5469 3.2188 -0.2656 2.9062 Q0.0156 2.5938 0.2656 2.0078 Q0.5156 1.4219 0.7344 0.4531 L2.7188 -8.3438 L1.5312 -8.3438 L1.6562 -8.8438 Q2.125 -8.8906 2.3203 -8.9766 Q2.5156 -9.0625 2.6406 -9.2031 Q2.7656 -9.3438 2.8594 -9.6016 Q2.9531 -9.8594 3.1406 -10.5 Q3.6562 -12.25 4.7422 -13.1406 Q5.8281 -14.0312 7.4844 -14.0312 Q8.4531 -14.0312 9.1406 -13.875 L8.7656 -12.2031 L7.9062 -12.2031 Q7.7656 -12.7656 7.5469 -13.0078 Q7.3281 -13.25 6.8906 -13.25 Q6.3438 -13.25 5.9531 -12.9453 Q5.5625 -12.6406 5.2812 -12.0312 Q5 -11.4219 4.7656 -10.4062 L4.5156 -9.3438 L6.7656 -9.3438 L6.5469 -8.3438 L4.2969 -8.3438 L2.4844 0.1719 Z" stroke="none"/></g><g text-rendering="optimizeLegibility" transform="translate(576.3992,24.5272)" color-rendering="optimizeQuality" color-interpolation="linearRGB" image-rendering="optimizeQuality"><path d="M1.0938 -2.125 Q1.0938 -1.2969 1.4766 -0.8906 Q1.8594 -0.4844 2.6719 -0.4844 Q3.2969 -0.4844 3.75 -0.7188 Q4.2031 -0.9531 4.4297 -1.3828 Q4.6562 -1.8125 4.6562 -2.3906 Q4.6562 -2.8125 4.5156 -3.1328 Q4.375 -3.4531 4.0781 -3.7422 Q3.7812 -4.0312 3.2188 -4.4062 Q2.7031 -4.75 2.3672 -5.0781 Q2.0312 -5.4062 1.8359 -5.8203 Q1.6406 -6.2344 1.6406 -6.7344 Q1.6406 -7.5469 2.0312 -8.1562 Q2.4219 -8.7656 3.1328 -9.1016 Q3.8438 -9.4375 4.7656 -9.4375 Q5.4062 -9.4375 5.9375 -9.3516 Q6.4688 -9.2656 7.125 -9.0625 L6.7344 -7.3125 L6.0781 -7.3125 Q6.0625 -7.8906 5.9062 -8.2188 Q5.75 -8.5469 5.4766 -8.6953 Q5.2031 -8.8438 4.7344 -8.8438 Q4.1562 -8.8438 3.7266 -8.6094 Q3.2969 -8.375 3.0703 -7.9766 Q2.8438 -7.5781 2.8438 -7.0781 Q2.8438 -6.7344 2.9688 -6.4531 Q3.0938 -6.1719 3.3672 -5.8984 Q3.6406 -5.625 4.1562 -5.2656 Q4.8281 -4.8125 5.1797 -4.4453 Q5.5312 -4.0781 5.6953 -3.6641 Q5.8594 -3.25 5.8594 -2.7188 Q5.8594 -1.8906 5.4609 -1.2422 Q5.0625 -0.5938 4.3359 -0.2422 Q3.6094 0.1094 2.6875 0.1094 Q2.0469 0.1094 1.3281 0.0156 Q0.6094 -0.0781 0.0156 -0.25 L0.4375 -2.125 L1.0938 -2.125 Z" stroke="none"/></g><g text-rendering="optimizeLegibility" stroke-width="1.6667" color-interpolation="linearRGB" color-rendering="optimizeQuality" image-rendering="optimizeQuality"><line y2="53.3586" fill="none" x1="556.3393" x2="578.3862" y1="53.3586"/><path d="M3.8438 -9.2188 L3.5312 -7.8906 L2.3281 -7.8906 L2.6406 -9.2188 L3.8438 -9.2188 ZM1.7969 0.1094 Q1.5781 1.1562 1.2031 1.7891 Q0.8281 2.4219 0.2188 2.7422 Q-0.3906 3.0625 -1.2188 3.0625 Q-1.5625 3.0625 -1.7969 2.9844 L-1.6406 2.3906 Q-1.5312 2.4219 -1.3984 2.4297 Q-1.2656 2.4375 -1.125 2.4375 Q-0.7969 2.4375 -0.5625 2.3438 Q-0.3281 2.25 -0.1328 2.0156 Q0.0625 1.7812 0.2266 1.375 Q0.3906 0.9688 0.5469 0.3125 L1.6406 -4.6094 Q1.7344 -4.9844 1.7734 -5.2266 Q1.8125 -5.4688 1.8125 -5.6406 Q1.8125 -5.8281 1.75 -5.9375 Q1.6875 -6.0469 1.5547 -6.1016 Q1.4219 -6.1562 1.0781 -6.1719 L1.1562 -6.5312 L2.8281 -6.5938 L3.2188 -6.5938 L1.7969 0.1094 Z" stroke-width="1" transform="translate(559.269,44.449)" stroke="none"/></g><g text-rendering="optimizeLegibility" transform="translate(564.9565,44.449)" color-rendering="optimizeQuality" color-interpolation="linearRGB" image-rendering="optimizeQuality"><path d="M1.7344 0.1094 Q1.5 1.2031 1.0938 1.8516 Q0.6875 2.5 0.1094 2.7812 Q-0.4688 3.0625 -1.2969 3.0625 Q-1.5938 3.0625 -1.8438 2.9844 L-1.6875 2.3906 Q-1.5156 2.4375 -1.2031 2.4375 Q-0.8438 2.4375 -0.6172 2.3438 Q-0.3906 2.25 -0.1953 2.0312 Q0 1.8125 0.1797 1.3984 Q0.3594 0.9844 0.5156 0.3125 L1.9062 -5.8438 L1.0781 -5.8438 L1.1562 -6.1875 Q1.4844 -6.2344 1.625 -6.2891 Q1.7656 -6.3438 1.8516 -6.4453 Q1.9375 -6.5469 2.0078 -6.7266 Q2.0781 -6.9062 2.2031 -7.3438 Q2.5625 -8.5781 3.3203 -9.1953 Q4.0781 -9.8125 5.25 -9.8125 Q5.9062 -9.8125 6.4062 -9.7031 L6.125 -8.5469 L5.5312 -8.5469 Q5.4375 -8.9375 5.2812 -9.1094 Q5.125 -9.2812 4.8281 -9.2812 Q4.4375 -9.2812 4.1641 -9.0703 Q3.8906 -8.8594 3.6953 -8.4297 Q3.5 -8 3.3438 -7.2812 L3.1719 -6.5312 L4.7344 -6.5312 L4.5781 -5.8438 L3.0156 -5.8438 L1.7344 0.1094 Z" stroke="none"/></g><g text-rendering="optimizeLegibility" transform="translate(571.3627,50.8475)" color-rendering="optimizeQuality" color-interpolation="linearRGB" image-rendering="optimizeQuality"><path d="M1.8438 -1.4219 Q1.7969 -1.2812 1.7812 -1.1719 Q1.7656 -1.0625 1.75 -0.9141 Q1.7344 -0.7656 1.7344 -0.6562 Q1.7344 -0.5156 1.7812 -0.4297 Q1.8281 -0.3438 1.9297 -0.3047 Q2.0312 -0.2656 2.2656 -0.2344 L2.2188 0 L0.2031 0 L0.2656 -0.2344 Q0.4375 -0.2656 0.5312 -0.3359 Q0.625 -0.4062 0.6875 -0.5234 Q0.75 -0.6406 0.8047 -0.8047 Q0.8594 -0.9688 0.9688 -1.4531 L1.7969 -5.2188 Q1.9062 -5.7031 1.9062 -5.9844 Q1.9062 -6.2188 1.7969 -6.3125 Q1.6875 -6.4062 1.4375 -6.4219 L1.4844 -6.6719 L5.8906 -6.6719 L5.5469 -5.1719 L5.0781 -5.1719 Q5.0625 -5.5156 5.0312 -5.7109 Q5 -5.9062 4.9453 -6.0078 Q4.8906 -6.1094 4.8281 -6.1562 Q4.7656 -6.2031 4.6719 -6.2188 Q4.5781 -6.2344 4.4062 -6.2344 L2.8906 -6.2344 L2.3125 -3.5781 L3.2344 -3.5781 Q3.4375 -3.5781 3.5781 -3.6406 Q3.7188 -3.7031 3.8438 -3.8516 Q3.9688 -4 4.1562 -4.375 L4.5938 -4.375 L4.125 -2.3125 L3.6875 -2.3125 Q3.6875 -2.625 3.6797 -2.7891 Q3.6719 -2.9531 3.625 -3.0234 Q3.5781 -3.0938 3.4922 -3.125 Q3.4062 -3.1562 3.1719 -3.1562 L2.2188 -3.1562 L1.8438 -1.4219 Z" stroke="none"/></g><g text-rendering="optimizeLegibility" transform="translate(556.3393,63.7203)" color-rendering="optimizeQuality" color-interpolation="linearRGB" image-rendering="optimizeQuality"><path d="M4.7656 -1.1719 L4.75 -1.1719 Q4.0469 0.1094 2.5938 0.1094 Q1.7031 0.1094 1.1562 -0.4453 Q0.6094 -1 0.6094 -2.0469 Q0.6094 -3.3438 1.4219 -4.5391 Q2.2344 -5.7344 3.7188 -6.6562 L4 -6.1875 Q3.0312 -5.4531 2.4141 -4.2812 Q1.7969 -3.1094 1.7969 -1.9844 Q1.7969 -1.1875 2.1172 -0.8125 Q2.4375 -0.4375 2.9531 -0.4375 Q3.4219 -0.4375 3.8047 -0.8594 Q4.1875 -1.2812 4.3438 -2.0469 L4.8594 -4.625 L6.0156 -4.625 L5.4688 -1.9844 Q5.4062 -1.7031 5.4062 -1.4531 Q5.4062 -0.9688 5.6406 -0.7031 Q5.875 -0.4375 6.2969 -0.4375 Q7.125 -0.4375 7.6953 -1.4844 Q8.2656 -2.5312 8.2656 -4.0469 Q8.2656 -5.4688 7.7031 -6.25 L8.0938 -6.6562 Q9.4688 -5.3438 9.4688 -3.75 Q9.4688 -2.1875 8.5625 -1.0391 Q7.6562 0.1094 6.2812 0.1094 Q5 0.1094 4.7656 -1.1719 Z" stroke="none"/></g><g text-rendering="optimizeLegibility" transform="translate(566.3784,63.7203)" color-rendering="optimizeQuality" color-interpolation="linearRGB" image-rendering="optimizeQuality"><path d="M1.6406 -0.5 L0.875 2.9531 L-0.25 2.9531 L1.125 -3.2344 Q1.875 -6.6562 4.6406 -6.6562 Q5.6406 -6.6562 6.2109 -6.0703 Q6.7812 -5.4844 6.7812 -4.4062 Q6.7812 -2.8125 5.7578 -1.3516 Q4.7344 0.1094 3.0781 0.1094 Q2.25 0.1094 1.6406 -0.5 ZM2.1562 -2.8594 L1.875 -1.5781 Q1.8594 -1.4844 1.8594 -1.375 Q1.8594 -1.0312 2.25 -0.7344 Q2.6406 -0.4375 3.1406 -0.4375 Q4.1094 -0.4375 4.8438 -1.7422 Q5.5781 -3.0469 5.5781 -4.5625 Q5.5781 -6.1094 4.4219 -6.1094 Q2.8594 -6.1094 2.1562 -2.8594 Z" stroke="none"/></g><g text-rendering="optimizeLegibility" transform="translate(565.9643,64.2134)" color-rendering="optimizeQuality" color-interpolation="linearRGB" image-rendering="optimizeQuality"><path d="M7.0312 -7.8594 L0.1719 -7.8594 Q0 -7.8594 -0.0781 -7.9297 Q-0.1562 -8 -0.1562 -8.1094 Q-0.1562 -8.2031 -0.0781 -8.2734 Q0 -8.3438 0.1719 -8.3438 L7.0312 -8.3438 Q7.2188 -8.3438 7.2891 -8.2734 Q7.3594 -8.2031 7.3594 -8.0938 Q7.3594 -8 7.2891 -7.9297 Q7.2188 -7.8594 7.0312 -7.8594 Z" stroke="none"/></g><g text-rendering="optimizeLegibility" transform="translate(573.4799,70.0094)" color-rendering="optimizeQuality" color-interpolation="linearRGB" image-rendering="optimizeQuality"><path d="M2.7188 0.0781 Q1.6562 0.0781 1.1406 -0.75 Q0.625 -1.5781 0.625 -3.2656 Q0.625 -4.1719 0.7891 -4.8281 Q0.9531 -5.4844 1.2344 -5.9062 Q1.5156 -6.3281 1.9141 -6.5391 Q2.3125 -6.75 2.7969 -6.75 Q3.8594 -6.75 4.3828 -5.9219 Q4.9062 -5.0938 4.9062 -3.4219 Q4.9062 -1.6875 4.3516 -0.8047 Q3.7969 0.0781 2.7188 0.0781 ZM1.5781 -3.4219 Q1.5781 -1.8281 1.875 -1.0859 Q2.1719 -0.3438 2.7969 -0.3438 Q3.3906 -0.3438 3.6719 -1.0391 Q3.9531 -1.7344 3.9531 -3.2031 Q3.9531 -4.3281 3.8047 -5.0234 Q3.6562 -5.7188 3.3984 -6.0234 Q3.1406 -6.3281 2.7656 -6.3281 Q2.4375 -6.3281 2.2109 -6.125 Q1.9844 -5.9219 1.8438 -5.5469 Q1.7031 -5.1719 1.6406 -4.6328 Q1.5781 -4.0938 1.5781 -3.4219 Z" stroke="none"/></g><g text-rendering="optimizeLegibility" transform="translate(584.3556,60.5786)" color-rendering="optimizeQuality" color-interpolation="linearRGB" image-rendering="optimizeQuality"><path d="M2.4844 0.1719 Q2.1562 1.7344 1.5703 2.6484 Q0.9844 3.5625 0.1562 3.9609 Q-0.6719 4.3594 -1.8594 4.3594 Q-2.2812 4.3594 -2.625 4.2656 L-2.4062 3.4062 Q-2.1719 3.4844 -1.7188 3.4844 Q-1.2031 3.4844 -0.875 3.3516 Q-0.5469 3.2188 -0.2656 2.9062 Q0.0156 2.5938 0.2656 2.0078 Q0.5156 1.4219 0.7344 0.4531 L2.7188 -8.3438 L1.5312 -8.3438 L1.6562 -8.8438 Q2.125 -8.8906 2.3203 -8.9766 Q2.5156 -9.0625 2.6406 -9.2031 Q2.7656 -9.3438 2.8594 -9.6016 Q2.9531 -9.8594 3.1406 -10.5 Q3.6562 -12.25 4.7422 -13.1406 Q5.8281 -14.0312 7.4844 -14.0312 Q8.4531 -14.0312 9.1406 -13.875 L8.7656 -12.2031 L7.9062 -12.2031 Q7.7656 -12.7656 7.5469 -13.0078 Q7.3281 -13.25 6.8906 -13.25 Q6.3438 -13.25 5.9531 -12.9453 Q5.5625 -12.6406 5.2812 -12.0312 Q5 -11.4219 4.7656 -10.4062 L4.5156 -9.3438 L6.7656 -9.3438 L6.5469 -8.3438 L4.2969 -8.3438 L2.4844 0.1719 Z" stroke="none"/></g><g text-rendering="optimizeLegibility" transform="translate(582.4962,49.6723)" color-rendering="optimizeQuality" color-interpolation="linearRGB" image-rendering="optimizeQuality"><path d="M9.5 -6.5312 L9.5 -5.0781 Q8.875 -4.5781 8.2812 -4.3516 Q7.6875 -4.125 7.0469 -4.125 Q6.2969 -4.125 5.3594 -4.5469 Q5.1719 -4.625 5.0781 -4.6719 Q4.4375 -4.9531 4.0156 -5.0469 Q3.5938 -5.1406 3.1562 -5.1406 Q2.5 -5.1406 1.9219 -4.8984 Q1.3438 -4.6562 0.7344 -4.125 L0.7344 -5.5625 Q1.375 -6.0625 1.9844 -6.2969 Q2.5938 -6.5312 3.2812 -6.5312 Q3.7188 -6.5312 4.1328 -6.4375 Q4.5469 -6.3438 5.1719 -6.0781 Q5.25 -6.0469 5.4375 -5.9531 Q6.4062 -5.5 7.1719 -5.5 Q7.75 -5.5 8.3203 -5.75 Q8.8906 -6 9.5 -6.5312 Z" stroke="none"/></g><g text-rendering="optimizeLegibility" transform="translate(595.0743,54.1717) matrix(1,0,0,3.7726,0,0)" color-rendering="optimizeQuality" color-interpolation="linearRGB" image-rendering="optimizeQuality"><path d="M0.6719 -13.9688 Q2.1875 -13.9688 3.0703 -13.5781 Q3.9531 -13.1875 4.3281 -12.4062 Q4.7031 -11.625 4.7031 -10.3281 L4.7031 -7.5 Q4.7031 -6.625 4.9297 -6.1484 Q5.1562 -5.6719 5.5938 -5.4766 Q6.0312 -5.2812 6.8125 -5.2812 L6.8125 -4.4688 Q6.0312 -4.4688 5.5859 -4.2734 Q5.1406 -4.0781 4.9219 -3.5938 Q4.7031 -3.1094 4.7031 -2.25 L4.7031 0.5781 Q4.7031 1.8906 4.3281 2.6641 Q3.9531 3.4375 3.0703 3.8281 Q2.1875 4.2188 0.6719 4.2188 L0.4219 4.2188 L0.4219 3.4219 Q1.1875 3.4219 1.5781 3.3438 Q1.9688 3.2656 2.2031 3.1016 Q2.4375 2.9375 2.5938 2.6719 Q2.75 2.4062 2.8438 1.9375 Q2.9375 1.4688 2.9375 0.6875 L2.9375 -1.2031 Q2.9375 -2.1875 3.1016 -2.8438 Q3.2656 -3.5 3.7109 -3.9844 Q4.1562 -4.4688 4.9062 -4.7812 L4.9062 -4.9688 Q4.1719 -5.2656 3.7188 -5.7656 Q3.2656 -6.2656 3.1016 -6.9297 Q2.9375 -7.5938 2.9375 -8.5469 L2.9375 -10.4375 Q2.9375 -11.2188 2.8438 -11.6875 Q2.75 -12.1562 2.5938 -12.4141 Q2.4375 -12.6719 2.2031 -12.8438 Q1.9688 -13.0156 1.5781 -13.0938 Q1.1875 -13.1719 0.4219 -13.1719 L0.4219 -13.9688 L0.6719 -13.9688 Z" stroke="none"/></g></g></svg>