<?xml version="1.0" encoding="UTF-8" standalone="no"?><svg xmlns="http://www.w3.org/2000/svg" xmlns:xlink="http://www.w3.org/1999/xlink" stroke-dasharray="none" shape-rendering="auto" font-family="'Dialog'" width="146.812600" text-rendering="auto" fill-opacity="1" contentScriptType="text/ecmascript" color-interpolation="auto" color-rendering="auto" preserveAspectRatio="xMidYMid meet" font-size="12" fill="black" stroke="black" image-rendering="auto" stroke-miterlimit="10" zoomAndPan="magnify" version="1.0" stroke-linecap="square" stroke-linejoin="miter" contentStyleType="text/css" font-style="normal" height="29" stroke-width="1" stroke-dashoffset="0" font-weight="normal" stroke-opacity="1" y="-7.000000"><!--Converted from MathML using JEuclid--><defs id="genericDefs"/><g><g text-rendering="optimizeLegibility" transform="translate(0,22)" color-rendering="optimizeQuality" color-interpolation="linearRGB" image-rendering="optimizeQuality"><path d="M9.1094 0 L6.0469 0 L7.2812 -4.9688 Q7.4062 -5.5 7.5156 -6.0547 Q7.625 -6.6094 7.625 -7.0469 Q7.625 -7.75 7.3906 -8.0469 Q7.1562 -8.3438 6.5938 -8.3438 Q6.1875 -8.3438 5.7031 -8.0156 Q5.2188 -7.6875 4.6875 -7.0078 Q4.1562 -6.3281 3.8359 -5.7109 Q3.5156 -5.0938 3.3281 -4.2344 L2.4375 0 L0.75 0 L3.2656 -11.1562 Q3.375 -11.6562 3.4141 -11.875 Q3.4531 -12.0938 3.4766 -12.2812 Q3.5 -12.4688 3.5 -12.6094 Q3.5 -13.0156 3.25 -13.1797 Q3 -13.3438 2.3594 -13.375 L2.4688 -13.875 L4.9375 -13.9688 L5.5156 -13.9688 L3.8281 -7.2031 L3.9531 -7.1562 Q4.8594 -8.375 5.6953 -8.9375 Q6.5312 -9.5 7.3906 -9.5 Q8.3281 -9.5 8.8203 -8.9766 Q9.3125 -8.4531 9.3125 -7.4219 Q9.3125 -6.7969 9.1094 -5.9219 L8.2969 -2.4375 Q8.1875 -2.0156 8.1484 -1.7656 Q8.1094 -1.5156 8.1094 -1.3281 Q8.1094 -1.0312 8.2188 -0.8594 Q8.3281 -0.6875 8.5312 -0.6094 Q8.7344 -0.5312 9.2031 -0.4844 L9.1094 0 Z" stroke="none"/></g><g text-rendering="optimizeLegibility" transform="translate(8.5781,16.5703)" color-rendering="optimizeQuality" color-interpolation="linearRGB" image-rendering="optimizeQuality"><path d="M2.9688 -10.7188 L2.9688 -10.3281 L1.3125 -6.3594 L0.7344 -6.5312 L1.6875 -10.7188 L2.9688 -10.7188 Z" stroke="none"/></g><g text-rendering="optimizeLegibility" transform="translate(13.3906,25.375)" color-rendering="optimizeQuality" color-interpolation="linearRGB" image-rendering="optimizeQuality"><path d="M1.7344 0.1094 Q1.5 1.2031 1.0938 1.8516 Q0.6875 2.5 0.1094 2.7812 Q-0.4688 3.0625 -1.2969 3.0625 Q-1.5938 3.0625 -1.8438 2.9844 L-1.6875 2.3906 Q-1.5156 2.4375 -1.2031 2.4375 Q-0.8438 2.4375 -0.6172 2.3438 Q-0.3906 2.25 -0.1953 2.0312 Q0 1.8125 0.1797 1.3984 Q0.3594 0.9844 0.5156 0.3125 L1.9062 -5.8438 L1.0781 -5.8438 L1.1562 -6.1875 Q1.4844 -6.2344 1.625 -6.2891 Q1.7656 -6.3438 1.8516 -6.4453 Q1.9375 -6.5469 2.0078 -6.7266 Q2.0781 -6.9062 2.2031 -7.3438 Q2.5625 -8.5781 3.3203 -9.1953 Q4.0781 -9.8125 5.25 -9.8125 Q5.9062 -9.8125 6.4062 -9.7031 L6.125 -8.5469 L5.5312 -8.5469 Q5.4375 -8.9375 5.2812 -9.1094 Q5.125 -9.2812 4.8281 -9.2812 Q4.4375 -9.2812 4.1641 -9.0703 Q3.8906 -8.8594 3.6953 -8.4297 Q3.5 -8 3.3438 -7.2812 L3.1719 -6.5312 L4.7344 -6.5312 L4.5781 -5.8438 L3.0156 -5.8438 L1.7344 0.1094 Z" stroke="none"/></g><g text-rendering="optimizeLegibility" transform="translate(20.5781,22)" color-rendering="optimizeQuality" color-interpolation="linearRGB" image-rendering="optimizeQuality"><path d="M1.2188 -7.0625 L1.2188 -8.4219 L9.8594 -8.4219 L9.8594 -7.0625 L1.2188 -7.0625 ZM1.2188 -3.0156 L1.2188 -4.3594 L9.8594 -4.3594 L9.8594 -3.0156 L1.2188 -3.0156 Z" stroke="none"/></g><g text-rendering="optimizeLegibility" transform="translate(32.4375,22)" color-rendering="optimizeQuality" color-interpolation="linearRGB" image-rendering="optimizeQuality"><path d="M9.1094 0 L6.0469 0 L7.2812 -4.9688 Q7.4062 -5.5 7.5156 -6.0547 Q7.625 -6.6094 7.625 -7.0469 Q7.625 -7.75 7.3906 -8.0469 Q7.1562 -8.3438 6.5938 -8.3438 Q6.1875 -8.3438 5.7031 -8.0156 Q5.2188 -7.6875 4.6875 -7.0078 Q4.1562 -6.3281 3.8359 -5.7109 Q3.5156 -5.0938 3.3281 -4.2344 L2.4375 0 L0.75 0 L3.2656 -11.1562 Q3.375 -11.6562 3.4141 -11.875 Q3.4531 -12.0938 3.4766 -12.2812 Q3.5 -12.4688 3.5 -12.6094 Q3.5 -13.0156 3.25 -13.1797 Q3 -13.3438 2.3594 -13.375 L2.4688 -13.875 L4.9375 -13.9688 L5.5156 -13.9688 L3.8281 -7.2031 L3.9531 -7.1562 Q4.8594 -8.375 5.6953 -8.9375 Q6.5312 -9.5 7.3906 -9.5 Q8.3281 -9.5 8.8203 -8.9766 Q9.3125 -8.4531 9.3125 -7.4219 Q9.3125 -6.7969 9.1094 -5.9219 L8.2969 -2.4375 Q8.1875 -2.0156 8.1484 -1.7656 Q8.1094 -1.5156 8.1094 -1.3281 Q8.1094 -1.0312 8.2188 -0.8594 Q8.3281 -0.6875 8.5312 -0.6094 Q8.7344 -0.5312 9.2031 -0.4844 L9.1094 0 Z" stroke="none"/></g><g text-rendering="optimizeLegibility" transform="translate(43.5938,25.375)" color-rendering="optimizeQuality" color-interpolation="linearRGB" image-rendering="optimizeQuality"><path d="M1.7344 0.1094 Q1.5 1.2031 1.0938 1.8516 Q0.6875 2.5 0.1094 2.7812 Q-0.4688 3.0625 -1.2969 3.0625 Q-1.5938 3.0625 -1.8438 2.9844 L-1.6875 2.3906 Q-1.5156 2.4375 -1.2031 2.4375 Q-0.8438 2.4375 -0.6172 2.3438 Q-0.3906 2.25 -0.1953 2.0312 Q0 1.8125 0.1797 1.3984 Q0.3594 0.9844 0.5156 0.3125 L1.9062 -5.8438 L1.0781 -5.8438 L1.1562 -6.1875 Q1.4844 -6.2344 1.625 -6.2891 Q1.7656 -6.3438 1.8516 -6.4453 Q1.9375 -6.5469 2.0078 -6.7266 Q2.0781 -6.9062 2.2031 -7.3438 Q2.5625 -8.5781 3.3203 -9.1953 Q4.0781 -9.8125 5.25 -9.8125 Q5.9062 -9.8125 6.4062 -9.7031 L6.125 -8.5469 L5.5312 -8.5469 Q5.4375 -8.9375 5.2812 -9.1094 Q5.125 -9.2812 4.8281 -9.2812 Q4.4375 -9.2812 4.1641 -9.0703 Q3.8906 -8.8594 3.6953 -8.4297 Q3.5 -8 3.3438 -7.2812 L3.1719 -6.5312 L4.7344 -6.5312 L4.5781 -5.8438 L3.0156 -5.8438 L1.7344 0.1094 Z" stroke="none"/></g><g text-rendering="optimizeLegibility" transform="translate(50.2344,22)" color-rendering="optimizeQuality" color-interpolation="linearRGB" image-rendering="optimizeQuality"><path d="M7.2188 4.25 Q5.5625 4.25 4.5078 3.75 Q3.4531 3.25 2.8672 2.2344 Q2.2812 1.2188 2.0234 -0.4141 Q1.7656 -2.0469 1.7656 -4.8438 Q1.7656 -7.625 2.0234 -9.2656 Q2.2812 -10.9062 2.8672 -11.9453 Q3.4531 -12.9844 4.5078 -13.5 Q5.5625 -14.0156 7.2188 -14.0156 L7.2188 -13.2188 Q6.5312 -13.2188 6 -13.0938 Q5.4062 -12.9531 4.9844 -12.5625 Q4.5156 -12.1406 4.2344 -11.375 Q3.8906 -10.4688 3.7188 -8.9844 Q3.5469 -7.4062 3.5469 -4.9219 Q3.5469 -2.7188 3.6953 -1.1797 Q3.8438 0.3594 4.1875 1.3281 Q4.4531 2.1562 4.8594 2.6094 Q5.2188 3.0156 5.7188 3.2188 Q6.2969 3.4531 7.2188 3.4531 L7.2188 4.25 Z" stroke="none"/></g><g text-rendering="optimizeLegibility" transform="translate(62.0469,20.9188) matrix(1,0,0,1.2572,0,0)" color-rendering="optimizeQuality" color-interpolation="linearRGB" image-rendering="optimizeQuality"><path d="M3.9219 4.2031 L2.4062 4.2031 L2.4062 -13.9688 L3.9219 -13.9688 L3.9219 4.2031 Z" stroke="none"/></g><g text-rendering="optimizeLegibility" transform="translate(67.9688,22)" color-rendering="optimizeQuality" color-interpolation="linearRGB" image-rendering="optimizeQuality"><path d="M6.9531 0 L2.8438 0 L2.9531 -0.4844 Q3.3281 -0.5312 3.5156 -0.6328 Q3.7031 -0.7344 3.8438 -0.9375 Q3.9844 -1.1406 4.1328 -1.5781 Q4.2812 -2.0156 4.4688 -2.9062 L6.5625 -12.4688 L5.3281 -12.4688 Q4.7188 -12.4688 4.3594 -12.2969 Q4 -12.125 3.6328 -11.6406 Q3.2656 -11.1562 2.75 -10.0469 L1.8125 -10.0469 L2.5469 -13.3281 L12.75 -13.3281 L11.9844 -9.8906 L11.0469 -9.8906 Q11.0469 -10.8438 11 -11.3125 Q10.9531 -11.7812 10.8125 -12.0312 Q10.6719 -12.2812 10.4766 -12.375 Q10.2812 -12.4688 9.7656 -12.4688 L8.3281 -12.4688 L6.2031 -2.8438 Q6.1094 -2.4688 6.0781 -2.2422 Q6.0469 -2.0156 6.0234 -1.7656 Q6 -1.5156 6 -1.3125 Q6 -1.0156 6.0938 -0.8438 Q6.1875 -0.6719 6.3828 -0.5938 Q6.5781 -0.5156 7.0625 -0.4844 L6.9531 0 Z" stroke="none"/></g><g text-rendering="optimizeLegibility" transform="translate(80.7188,26.6641)" color-rendering="optimizeQuality" color-interpolation="linearRGB" image-rendering="optimizeQuality"><path d="M1.0938 -2.125 Q1.0938 -1.2969 1.4766 -0.8906 Q1.8594 -0.4844 2.6719 -0.4844 Q3.2969 -0.4844 3.75 -0.7188 Q4.2031 -0.9531 4.4297 -1.3828 Q4.6562 -1.8125 4.6562 -2.3906 Q4.6562 -2.8125 4.5156 -3.1328 Q4.375 -3.4531 4.0781 -3.7422 Q3.7812 -4.0312 3.2188 -4.4062 Q2.7031 -4.75 2.3672 -5.0781 Q2.0312 -5.4062 1.8359 -5.8203 Q1.6406 -6.2344 1.6406 -6.7344 Q1.6406 -7.5469 2.0312 -8.1562 Q2.4219 -8.7656 3.1328 -9.1016 Q3.8438 -9.4375 4.7656 -9.4375 Q5.4062 -9.4375 5.9375 -9.3516 Q6.4688 -9.2656 7.125 -9.0625 L6.7344 -7.3125 L6.0781 -7.3125 Q6.0625 -7.8906 5.9062 -8.2188 Q5.75 -8.5469 5.4766 -8.6953 Q5.2031 -8.8438 4.7344 -8.8438 Q4.1562 -8.8438 3.7266 -8.6094 Q3.2969 -8.375 3.0703 -7.9766 Q2.8438 -7.5781 2.8438 -7.0781 Q2.8438 -6.7344 2.9688 -6.4531 Q3.0938 -6.1719 3.3672 -5.8984 Q3.6406 -5.625 4.1562 -5.2656 Q4.8281 -4.8125 5.1797 -4.4453 Q5.5312 -4.0781 5.6953 -3.6641 Q5.8594 -3.25 5.8594 -2.7188 Q5.8594 -1.8906 5.4609 -1.2422 Q5.0625 -0.5938 4.3359 -0.2422 Q3.6094 0.1094 2.6875 0.1094 Q2.0469 0.1094 1.3281 0.0156 Q0.6094 -0.0781 0.0156 -0.25 L0.4375 -2.125 L1.0938 -2.125 Z" stroke="none"/></g><g text-rendering="optimizeLegibility" transform="translate(88.6094,22)" color-rendering="optimizeQuality" color-interpolation="linearRGB" image-rendering="optimizeQuality"><path d="M1.2344 -5.0469 L1.2344 -6.3906 L9.8281 -6.3906 L9.8281 -5.0469 L1.2344 -5.0469 Z" stroke="none"/></g><g text-rendering="optimizeLegibility" transform="translate(100.4375,22)" color-rendering="optimizeQuality" color-interpolation="linearRGB" image-rendering="optimizeQuality"><path d="M6.9531 0 L2.8438 0 L2.9531 -0.4844 Q3.3281 -0.5312 3.5156 -0.6328 Q3.7031 -0.7344 3.8438 -0.9375 Q3.9844 -1.1406 4.1328 -1.5781 Q4.2812 -2.0156 4.4688 -2.9062 L6.5625 -12.4688 L5.3281 -12.4688 Q4.7188 -12.4688 4.3594 -12.2969 Q4 -12.125 3.6328 -11.6406 Q3.2656 -11.1562 2.75 -10.0469 L1.8125 -10.0469 L2.5469 -13.3281 L12.75 -13.3281 L11.9844 -9.8906 L11.0469 -9.8906 Q11.0469 -10.8438 11 -11.3125 Q10.9531 -11.7812 10.8125 -12.0312 Q10.6719 -12.2812 10.4766 -12.375 Q10.2812 -12.4688 9.7656 -12.4688 L8.3281 -12.4688 L6.2031 -2.8438 Q6.1094 -2.4688 6.0781 -2.2422 Q6.0469 -2.0156 6.0234 -1.7656 Q6 -1.5156 6 -1.3125 Q6 -1.0156 6.0938 -0.8438 Q6.1875 -0.6719 6.3828 -0.5938 Q6.5781 -0.5156 7.0625 -0.4844 L6.9531 0 Z" stroke="none"/></g><g text-rendering="optimizeLegibility" transform="translate(113.1875,26.6641)" color-rendering="optimizeQuality" color-interpolation="linearRGB" image-rendering="optimizeQuality"><path d="M6.125 -4.7812 Q6.75 -4.5312 7.0938 -4.0625 Q7.4375 -3.5938 7.4375 -3 Q7.4375 -2.2969 7.1797 -1.7344 Q6.9219 -1.1719 6.3672 -0.7578 Q5.8125 -0.3438 5.0938 -0.1719 Q4.375 0 3.3281 0 L0.2812 0 L0.3594 -0.3281 Q0.625 -0.375 0.75 -0.4688 Q0.875 -0.5625 0.9688 -0.7266 Q1.0625 -0.8906 1.1328 -1.125 Q1.2031 -1.3594 1.3594 -2.0312 L2.5156 -7.2969 Q2.6719 -7.9844 2.6719 -8.375 Q2.6719 -8.7188 2.5156 -8.8438 Q2.3594 -8.9688 2 -9 L2.0781 -9.3281 L5.4688 -9.3281 Q6.4844 -9.3281 7.1016 -9.1172 Q7.7188 -8.9062 8.0156 -8.4844 Q8.3125 -8.0625 8.3125 -7.4375 Q8.3125 -6.5469 7.7656 -5.875 Q7.2188 -5.2031 6.125 -4.8594 L6.125 -4.7812 ZM4.2344 -5.1406 Q4.9375 -5.1406 5.375 -5.2422 Q5.8125 -5.3438 6.0859 -5.5312 Q6.3594 -5.7188 6.5703 -5.9766 Q6.7812 -6.2344 6.9141 -6.5859 Q7.0469 -6.9375 7.0469 -7.4062 Q7.0469 -7.7031 6.9453 -7.9531 Q6.8438 -8.2031 6.5938 -8.3906 Q6.3438 -8.5781 6.0156 -8.6562 Q5.6875 -8.7344 5.1406 -8.7344 Q4.5469 -8.7344 4.0469 -8.7031 L3.2656 -5.1406 L4.2344 -5.1406 ZM2.2812 -0.625 Q2.8125 -0.6094 3.2812 -0.6094 Q4.3125 -0.6094 4.875 -0.8672 Q5.4375 -1.125 5.7812 -1.7109 Q6.125 -2.2969 6.125 -3.125 Q6.125 -3.5625 5.9531 -3.8672 Q5.7812 -4.1719 5.4062 -4.3594 Q5.0312 -4.5469 4.3594 -4.5469 L3.125 -4.5469 L2.2812 -0.625 Z" stroke="none"/></g><g text-rendering="optimizeLegibility" transform="translate(121.0938,20.9188) matrix(1,0,0,1.2572,0,0)" color-rendering="optimizeQuality" color-interpolation="linearRGB" image-rendering="optimizeQuality"><path d="M3.9219 4.2031 L2.4062 4.2031 L2.4062 -13.9688 L3.9219 -13.9688 L3.9219 4.2031 Z" stroke="none"/></g><g text-rendering="optimizeLegibility" transform="translate(131.5938,22)" color-rendering="optimizeQuality" color-interpolation="linearRGB" image-rendering="optimizeQuality"><path d="M0.4219 -14.0156 Q2.0781 -14.0156 3.1328 -13.5156 Q4.1875 -13.0156 4.7734 -12 Q5.3594 -10.9844 5.6172 -9.3516 Q5.875 -7.7188 5.875 -4.9219 Q5.875 -2.1562 5.6172 -0.5078 Q5.3594 1.1406 4.7734 2.1797 Q4.1875 3.2188 3.1328 3.7344 Q2.0781 4.25 0.4219 4.25 L0.4219 3.4531 Q1.1094 3.4531 1.625 3.3281 Q2.2344 3.1875 2.6406 2.7969 Q3.1094 2.375 3.4062 1.6094 Q3.75 0.7031 3.9219 -0.7812 Q4.0938 -2.3594 4.0938 -4.8438 Q4.0938 -7.0469 3.9453 -8.5859 Q3.7969 -10.125 3.4531 -11.0938 Q3.1875 -11.9219 2.7812 -12.375 Q2.4062 -12.7812 1.9219 -12.9844 Q1.3438 -13.2188 0.4219 -13.2188 L0.4219 -14.0156 Z" stroke="none"/></g><g text-rendering="optimizeLegibility" transform="translate(139.4688,6.6772)" color-rendering="optimizeQuality" color-interpolation="linearRGB" image-rendering="optimizeQuality"><path d="M6.4531 0 L4.2969 0 L5.1562 -3.4688 Q5.25 -3.8125 5.3281 -4.2109 Q5.4062 -4.6094 5.4062 -4.9375 Q5.4062 -5.4219 5.2344 -5.6328 Q5.0625 -5.8438 4.7031 -5.8438 Q4.4219 -5.8438 4.0938 -5.625 Q3.7656 -5.4062 3.3984 -4.9609 Q3.0312 -4.5156 2.7812 -4.0625 Q2.5312 -3.6094 2.4062 -2.9531 L1.7812 0 L0.5938 0 L1.6406 -4.6719 Q1.6719 -4.8281 1.7266 -5.1328 Q1.7812 -5.4375 1.7812 -5.6406 Q1.7812 -5.8438 1.7266 -5.9453 Q1.6719 -6.0469 1.5312 -6.1016 Q1.3906 -6.1562 1.0469 -6.1719 L1.1406 -6.5312 L2.6875 -6.5938 L3.0781 -6.5938 L2.625 -4.8125 L2.7031 -4.7969 Q3.375 -5.7344 3.9922 -6.1875 Q4.6094 -6.6406 5.2344 -6.6406 Q5.9062 -6.6406 6.2422 -6.2734 Q6.5781 -5.9062 6.5781 -5.2031 Q6.5781 -4.9531 6.5391 -4.6641 Q6.5 -4.375 6.4375 -4.1406 L5.8594 -1.7031 Q5.75 -1.2188 5.75 -0.9375 Q5.75 -0.7188 5.8203 -0.6094 Q5.8906 -0.5 6.0312 -0.4375 Q6.1719 -0.375 6.5 -0.3281 L6.4531 0 Z" stroke="none"/></g></g></svg>