<?xml version="1.0" encoding="UTF-8" standalone="no"?><svg xmlns="http://www.w3.org/2000/svg" xmlns:xlink="http://www.w3.org/1999/xlink" stroke-dasharray="none" shape-rendering="auto" font-family="'Dialog'" width="301.812600" text-rendering="auto" fill-opacity="1" contentScriptType="text/ecmascript" color-interpolation="auto" color-rendering="auto" preserveAspectRatio="xMidYMid meet" font-size="12" fill="black" stroke="black" image-rendering="auto" stroke-miterlimit="10" zoomAndPan="magnify" version="1.0" stroke-linecap="square" stroke-linejoin="miter" contentStyleType="text/css" font-style="normal" height="44" stroke-width="1" stroke-dashoffset="0" font-weight="normal" stroke-opacity="1" y="-14.000000"><!--Converted from MathML using JEuclid--><defs id="genericDefs"/><g><g text-rendering="optimizeLegibility" transform="translate(0,30)" color-rendering="optimizeQuality" color-interpolation="linearRGB" image-rendering="optimizeQuality"><path d="M3.6719 -2.8438 Q3.6094 -2.5469 3.5703 -2.3438 Q3.5312 -2.1406 3.5 -1.8438 Q3.4688 -1.5469 3.4688 -1.3125 Q3.4688 -1.0156 3.5625 -0.8438 Q3.6562 -0.6719 3.8516 -0.5938 Q4.0469 -0.5156 4.5312 -0.4844 L4.4219 0 L0.4062 0 L0.5156 -0.4844 Q0.8906 -0.5312 1.0781 -0.6641 Q1.2656 -0.7969 1.3906 -1.0312 Q1.5156 -1.2656 1.625 -1.6016 Q1.7344 -1.9375 1.9375 -2.9062 L3.6094 -10.4375 Q3.8125 -11.4062 3.8125 -11.9688 Q3.8125 -12.4531 3.5938 -12.6406 Q3.375 -12.8281 2.8594 -12.8594 L2.9688 -13.3281 L11.7812 -13.3281 L11.1094 -10.3281 L10.1719 -10.3281 Q10.125 -11.0312 10.0547 -11.4219 Q9.9844 -11.8125 9.8828 -12.0078 Q9.7812 -12.2031 9.6562 -12.2969 Q9.5312 -12.3906 9.3438 -12.4297 Q9.1562 -12.4688 8.7969 -12.4688 L5.7969 -12.4688 L4.625 -7.1562 L6.4531 -7.1562 Q6.8906 -7.1562 7.1719 -7.2734 Q7.4531 -7.3906 7.6953 -7.7031 Q7.9375 -8.0156 8.2969 -8.75 L9.1875 -8.75 L8.25 -4.625 L7.3906 -4.625 Q7.3906 -5.2344 7.3594 -5.5781 Q7.3281 -5.9219 7.2422 -6.0547 Q7.1562 -6.1875 6.9844 -6.2422 Q6.8125 -6.2969 6.3594 -6.2969 L4.4375 -6.2969 L3.6719 -2.8438 Z" stroke="none"/></g><g text-rendering="optimizeLegibility" transform="translate(11.7812,33.0781)" color-rendering="optimizeQuality" color-interpolation="linearRGB" image-rendering="optimizeQuality"><path d="M3.8281 -9.2188 L3.5156 -7.8906 L2.2969 -7.8906 L2.625 -9.2188 L3.8281 -9.2188 ZM2.1406 -1.7031 Q2.0625 -1.3594 2.0469 -1.2031 Q2.0312 -1.0469 2.0312 -0.9375 Q2.0312 -0.7188 2.0938 -0.6094 Q2.1562 -0.5 2.3047 -0.4375 Q2.4531 -0.375 2.7812 -0.3281 L2.7188 0 L0.5938 0 L1.625 -4.6094 Q1.7188 -5 1.75 -5.2344 Q1.7812 -5.4688 1.7812 -5.6406 Q1.7812 -5.8281 1.7266 -5.9375 Q1.6719 -6.0469 1.5312 -6.1016 Q1.3906 -6.1562 1.0625 -6.1719 L1.1406 -6.5312 L2.7969 -6.5938 L3.2031 -6.5938 L2.1406 -1.7031 Z" stroke="none"/></g><g text-rendering="optimizeLegibility" transform="translate(17.4062,33.0781)" color-rendering="optimizeQuality" color-interpolation="linearRGB" image-rendering="optimizeQuality"><path d="M3.8438 -9.2188 L3.5312 -7.8906 L2.3281 -7.8906 L2.6406 -9.2188 L3.8438 -9.2188 ZM1.7969 0.1094 Q1.5781 1.1562 1.2031 1.7891 Q0.8281 2.4219 0.2188 2.7422 Q-0.3906 3.0625 -1.2188 3.0625 Q-1.5625 3.0625 -1.7969 2.9844 L-1.6406 2.3906 Q-1.5312 2.4219 -1.3984 2.4297 Q-1.2656 2.4375 -1.125 2.4375 Q-0.7969 2.4375 -0.5625 2.3438 Q-0.3281 2.25 -0.1328 2.0156 Q0.0625 1.7812 0.2266 1.375 Q0.3906 0.9688 0.5469 0.3125 L1.6406 -4.6094 Q1.7344 -4.9844 1.7734 -5.2266 Q1.8125 -5.4688 1.8125 -5.6406 Q1.8125 -5.8281 1.75 -5.9375 Q1.6875 -6.0469 1.5547 -6.1016 Q1.4219 -6.1562 1.0781 -6.1719 L1.1562 -6.5312 L2.8281 -6.5938 L3.2188 -6.5938 L1.7969 0.1094 Z" stroke="none"/></g><g text-rendering="optimizeLegibility" transform="translate(22.0312,30)" color-rendering="optimizeQuality" color-interpolation="linearRGB" image-rendering="optimizeQuality"><path d="M1.2188 -7.0625 L1.2188 -8.4219 L9.8594 -8.4219 L9.8594 -7.0625 L1.2188 -7.0625 ZM1.2188 -3.0156 L1.2188 -4.3594 L9.8594 -4.3594 L9.8594 -3.0156 L1.2188 -3.0156 Z" stroke="none"/></g><g text-rendering="optimizeLegibility" stroke-width="1.6667" color-interpolation="linearRGB" color-rendering="optimizeQuality" image-rendering="optimizeQuality"><line y2="22.78" fill="none" x1="35.5684" x2="51.0997" y1="22.78"/><path d="M6.7812 -2.5469 Q6.7812 -1.9844 6.8516 -1.6953 Q6.9219 -1.4062 7.0781 -1.2266 Q7.2344 -1.0469 7.5391 -0.9453 Q7.8438 -0.8438 8.3047 -0.7891 Q8.7656 -0.7344 9.5156 -0.7188 L9.5156 0 L2.2969 0 L2.2969 -0.7188 Q3.375 -0.7656 3.8438 -0.8438 Q4.3125 -0.9219 4.5547 -1.0938 Q4.7969 -1.2656 4.9062 -1.5625 Q5.0156 -1.8594 5.0156 -2.5469 L5.0156 -10.4688 Q5.0156 -10.8594 4.8828 -11.0391 Q4.75 -11.2188 4.4844 -11.2188 Q4.1719 -11.2188 3.5938 -10.8984 Q3.0156 -10.5781 2.1719 -10.0156 L1.7344 -10.7656 L6.3125 -13.4844 L6.8438 -13.4844 Q6.7812 -12.5469 6.7812 -10.8906 L6.7812 -2.5469 Z" stroke-width="1" transform="translate(38.5762,20.2689)" stroke="none"/></g><g text-rendering="optimizeLegibility" transform="translate(36.4747,38.7755)" color-rendering="optimizeQuality" color-interpolation="linearRGB" image-rendering="optimizeQuality"><path d="M6.625 0 L6.7344 -0.4844 Q7.1719 -0.5156 7.4219 -0.7344 Q7.6719 -0.9531 7.7734 -1.3281 Q7.875 -1.7031 7.875 -2.3281 Q7.875 -2.7188 7.8438 -3.1719 L7.7812 -4.4219 L3.4844 -4.4219 L2.9375 -3.4688 Q2.5625 -2.7969 2.3828 -2.3125 Q2.2031 -1.8281 2.2031 -1.4531 Q2.2031 -0.6406 3.1875 -0.4844 L3.0938 0 L-0.9062 0 L-0.7969 -0.4844 Q-0.5 -0.5156 -0.2266 -0.7188 Q0.0469 -0.9219 0.3438 -1.3281 Q0.6406 -1.7344 1.1875 -2.6719 L7.4531 -13.4844 L8.9219 -13.4844 L9.625 -2.5938 Q9.6719 -1.8281 9.8047 -1.3906 Q9.9375 -0.9531 10.1562 -0.7422 Q10.375 -0.5312 10.7969 -0.4844 L10.6875 0 L6.625 0 ZM3.9219 -5.2812 L7.7344 -5.2812 L7.5625 -8.4219 Q7.5469 -9.0625 7.5234 -10.0312 Q7.5 -11 7.5 -11.4219 L7.3906 -11.4219 L3.9219 -5.2812 Z" stroke="none"/></g><g text-rendering="optimizeLegibility" transform="translate(47.2715,43.3849)" color-rendering="optimizeQuality" color-interpolation="linearRGB" image-rendering="optimizeQuality"><path d="M3.8281 -9.2188 L3.5156 -7.8906 L2.2969 -7.8906 L2.625 -9.2188 L3.8281 -9.2188 ZM2.1406 -1.7031 Q2.0625 -1.3594 2.0469 -1.2031 Q2.0312 -1.0469 2.0312 -0.9375 Q2.0312 -0.7188 2.0938 -0.6094 Q2.1562 -0.5 2.3047 -0.4375 Q2.4531 -0.375 2.7812 -0.3281 L2.7188 0 L0.5938 0 L1.625 -4.6094 Q1.7188 -5 1.75 -5.2344 Q1.7812 -5.4688 1.7812 -5.6406 Q1.7812 -5.8281 1.7266 -5.9375 Q1.6719 -6.0469 1.5312 -6.1016 Q1.3906 -6.1562 1.0625 -6.1719 L1.1406 -6.5312 L2.7969 -6.5938 L3.2031 -6.5938 L2.1406 -1.7031 Z" stroke="none"/></g><g text-rendering="optimizeLegibility" transform="translate(55.3191,30)" color-rendering="optimizeQuality" color-interpolation="linearRGB" image-rendering="optimizeQuality"><path d="M8.7812 -5.8281 Q8.7812 -3.7656 8.6797 -2.0312 Q8.5781 -0.2969 8.3047 1.1641 Q8.0312 2.625 7.5938 3.6719 Q7.1562 4.7188 6.5625 5.3984 Q5.9688 6.0781 5.2031 6.4297 Q4.4375 6.7812 3.4375 6.7812 Q2.2188 6.7812 1.125 6.3125 L1.125 3.0625 L3 3.0625 Q3.2969 3.7656 3.6094 4.0938 Q3.9219 4.4219 4.4844 4.4219 Q5.2188 4.4219 5.5859 3.7891 Q5.9531 3.1562 5.9531 1.9062 Q5.9531 0.4688 5.8672 -1.1562 Q5.7812 -2.7812 5.6094 -5.4844 Q5.25 -10.5938 5.25 -14.4375 L5.25 -16.3281 Q5.25 -18.3906 5.3594 -20.125 Q5.4688 -21.8594 5.7422 -23.3203 Q6.0156 -24.7812 6.4453 -25.8281 Q6.875 -26.875 7.4766 -27.5547 Q8.0781 -28.2344 8.8438 -28.5859 Q9.6094 -28.9375 10.6094 -28.9375 Q11.8125 -28.9375 12.9062 -28.4688 L12.9062 -25.2188 L11.0312 -25.2188 Q10.7188 -25.9688 10.3984 -26.2734 Q10.0781 -26.5781 9.5781 -26.5781 Q8.7812 -26.5781 8.4375 -25.9453 Q8.0938 -25.3125 8.0938 -24.0625 Q8.0938 -22.625 8.1719 -21 Q8.25 -19.375 8.4375 -16.6719 Q8.7812 -11.5625 8.7812 -7.7188 L8.7812 -5.8281 Z" stroke="none"/></g><g text-rendering="optimizeLegibility" transform="translate(68.866,39.8555)" color-rendering="optimizeQuality" color-interpolation="linearRGB" image-rendering="optimizeQuality"><path d="M4.6406 0 L4.7031 -0.3281 Q5.0156 -0.3594 5.1875 -0.5078 Q5.3594 -0.6562 5.4375 -0.9297 Q5.5156 -1.2031 5.5156 -1.6406 Q5.5156 -1.9062 5.4844 -2.2188 L5.4375 -3.0938 L2.4375 -3.0938 L2.0625 -2.4219 Q1.7969 -1.9531 1.6719 -1.6172 Q1.5469 -1.2812 1.5469 -1.0156 Q1.5469 -0.4375 2.2344 -0.3281 L2.1562 0 L-0.6406 0 L-0.5625 -0.3281 Q-0.3438 -0.3594 -0.1562 -0.5 Q0.0312 -0.6406 0.2422 -0.9219 Q0.4531 -1.2031 0.8281 -1.8594 L5.2188 -9.4375 L6.25 -9.4375 L6.7344 -1.8125 Q6.7812 -1.2812 6.8672 -0.9766 Q6.9531 -0.6719 7.1094 -0.5234 Q7.2656 -0.375 7.5469 -0.3281 L7.4844 0 L4.6406 0 ZM2.7344 -3.6875 L5.4219 -3.6875 L5.2969 -5.8906 Q5.2812 -6.3438 5.2656 -7.0234 Q5.25 -7.7031 5.25 -8 L5.1719 -8 L2.7344 -3.6875 Z" stroke="none"/></g><g text-rendering="optimizeLegibility" transform="translate(76.4128,43.1445)" color-rendering="optimizeQuality" color-interpolation="linearRGB" image-rendering="optimizeQuality"><path d="M2.7344 -6.5781 L2.5156 -5.6406 L1.6406 -5.6406 L1.875 -6.5781 L2.7344 -6.5781 ZM1.5312 -1.2188 Q1.4688 -0.9688 1.4609 -0.8594 Q1.4531 -0.75 1.4531 -0.6719 Q1.4531 -0.5156 1.5 -0.4375 Q1.5469 -0.3594 1.6484 -0.3125 Q1.75 -0.2656 1.9844 -0.2344 L1.9375 0 L0.4219 0 L1.1562 -3.2969 Q1.2188 -3.5781 1.25 -3.7422 Q1.2812 -3.9062 1.2812 -4.0312 Q1.2812 -4.1719 1.2344 -4.25 Q1.1875 -4.3281 1.0938 -4.3672 Q1 -4.4062 0.75 -4.4062 L0.8125 -4.6719 L2 -4.7188 L2.2969 -4.7188 L1.5312 -1.2188 Z" stroke="none"/></g><g text-rendering="optimizeLegibility" transform="translate(80.0222,30)" color-rendering="optimizeQuality" color-interpolation="linearRGB" image-rendering="optimizeQuality"><path d="M8.7812 -5.8281 Q8.7812 -3.7656 8.6797 -2.0312 Q8.5781 -0.2969 8.3047 1.1641 Q8.0312 2.625 7.5938 3.6719 Q7.1562 4.7188 6.5625 5.3984 Q5.9688 6.0781 5.2031 6.4297 Q4.4375 6.7812 3.4375 6.7812 Q2.2188 6.7812 1.125 6.3125 L1.125 3.0625 L3 3.0625 Q3.2969 3.7656 3.6094 4.0938 Q3.9219 4.4219 4.4844 4.4219 Q5.2188 4.4219 5.5859 3.7891 Q5.9531 3.1562 5.9531 1.9062 Q5.9531 0.4688 5.8672 -1.1562 Q5.7812 -2.7812 5.6094 -5.4844 Q5.25 -10.5938 5.25 -14.4375 L5.25 -16.3281 Q5.25 -18.3906 5.3594 -20.125 Q5.4688 -21.8594 5.7422 -23.3203 Q6.0156 -24.7812 6.4453 -25.8281 Q6.875 -26.875 7.4766 -27.5547 Q8.0781 -28.2344 8.8438 -28.5859 Q9.6094 -28.9375 10.6094 -28.9375 Q11.8125 -28.9375 12.9062 -28.4688 L12.9062 -25.2188 L11.0312 -25.2188 Q10.7188 -25.9688 10.3984 -26.2734 Q10.0781 -26.5781 9.5781 -26.5781 Q8.7812 -26.5781 8.4375 -25.9453 Q8.0938 -25.3125 8.0938 -24.0625 Q8.0938 -22.625 8.1719 -21 Q8.25 -19.375 8.4375 -16.6719 Q8.7812 -11.5625 8.7812 -7.7188 L8.7812 -5.8281 Z" stroke="none"/></g><g text-rendering="optimizeLegibility" transform="translate(93.5691,39.3086)" color-rendering="optimizeQuality" color-interpolation="linearRGB" image-rendering="optimizeQuality"><path d="M4.6406 0 L4.7031 -0.3281 Q5.0156 -0.3594 5.1875 -0.5078 Q5.3594 -0.6562 5.4375 -0.9297 Q5.5156 -1.2031 5.5156 -1.6406 Q5.5156 -1.9062 5.4844 -2.2188 L5.4375 -3.0938 L2.4375 -3.0938 L2.0625 -2.4219 Q1.7969 -1.9531 1.6719 -1.6172 Q1.5469 -1.2812 1.5469 -1.0156 Q1.5469 -0.4375 2.2344 -0.3281 L2.1562 0 L-0.6406 0 L-0.5625 -0.3281 Q-0.3438 -0.3594 -0.1562 -0.5 Q0.0312 -0.6406 0.2422 -0.9219 Q0.4531 -1.2031 0.8281 -1.8594 L5.2188 -9.4375 L6.25 -9.4375 L6.7344 -1.8125 Q6.7812 -1.2812 6.8672 -0.9766 Q6.9531 -0.6719 7.1094 -0.5234 Q7.2656 -0.375 7.5469 -0.3281 L7.4844 0 L4.6406 0 ZM2.7344 -3.6875 L5.4219 -3.6875 L5.2969 -5.8906 Q5.2812 -6.3438 5.2656 -7.0234 Q5.25 -7.7031 5.25 -8 L5.1719 -8 L2.7344 -3.6875 Z" stroke="none"/></g><g text-rendering="optimizeLegibility" transform="translate(102.3972,41.5039)" color-rendering="optimizeQuality" color-interpolation="linearRGB" image-rendering="optimizeQuality"><path d="M2.75 -6.5781 L2.5312 -5.6406 L1.6562 -5.6406 L1.8906 -6.5781 L2.75 -6.5781 ZM1.2812 0.0781 Q1.125 0.8281 0.8594 1.2812 Q0.5938 1.7344 0.1562 1.9609 Q-0.2812 2.1875 -0.875 2.1875 Q-1.1094 2.1875 -1.2812 2.1406 L-1.1719 1.7031 Q-1.0938 1.7344 -1 1.7422 Q-0.9062 1.75 -0.7969 1.75 Q-0.5625 1.75 -0.3984 1.6797 Q-0.2344 1.6094 -0.0938 1.4453 Q0.0469 1.2812 0.1641 0.9844 Q0.2812 0.6875 0.3906 0.2188 L1.1719 -3.2969 Q1.2344 -3.5625 1.2656 -3.7344 Q1.2969 -3.9062 1.2969 -4.0312 Q1.2969 -4.1719 1.25 -4.25 Q1.2031 -4.3281 1.1094 -4.3672 Q1.0156 -4.4062 0.7656 -4.4062 L0.8281 -4.6719 L2.0156 -4.7188 L2.2969 -4.7188 L1.2812 0.0781 Z" stroke="none"/></g><g text-rendering="optimizeLegibility" stroke-width="1.6667" color-interpolation="linearRGB" color-rendering="optimizeQuality" image-rendering="optimizeQuality"><line y2="22.78" fill="none" x1="106.825" x2="201.7625" y1="22.78"/><path d="M8.2188 -9.1094 L8.2188 -7.0781 L6.9844 -7.0781 Q6.8125 -7.7031 6.5703 -8.0703 Q6.3281 -8.4375 6.0078 -8.5859 Q5.6875 -8.7344 5.2031 -8.7344 Q4.5156 -8.7344 3.9922 -8.2969 Q3.4688 -7.8594 3.1641 -6.9609 Q2.8594 -6.0625 2.8594 -4.75 Q2.8594 -3.9219 2.9766 -3.2344 Q3.0938 -2.5469 3.375 -2.0625 Q3.6562 -1.5781 4.125 -1.3047 Q4.5938 -1.0312 5.2812 -1.0312 Q5.9531 -1.0312 6.5391 -1.2891 Q7.125 -1.5469 7.75 -2.2188 L8.2969 -1.5781 Q7.7969 -1.0312 7.4219 -0.7344 Q7.0469 -0.4375 6.6094 -0.2344 Q6.1719 -0.0312 5.75 0.0625 Q5.3281 0.1562 4.8281 0.1562 Q2.9844 0.1562 2.0078 -1.0703 Q1.0312 -2.2969 1.0312 -4.6094 Q1.0312 -6.0625 1.5781 -7.1797 Q2.125 -8.2969 3.1094 -8.8984 Q4.0938 -9.5 5.375 -9.5 Q6.1875 -9.5 6.8672 -9.4062 Q7.5469 -9.3125 8.2188 -9.1094 ZM14.2031 0.1562 Q12.1719 0.1562 11.1016 -1.0391 Q10.0312 -2.2344 10.0312 -4.5781 Q10.0312 -6.1875 10.5938 -7.3047 Q11.1562 -8.4219 12.1328 -8.9609 Q13.1094 -9.5 14.3594 -9.5 Q16.4375 -9.5 17.5156 -8.2891 Q18.5938 -7.0781 18.5938 -4.7969 Q18.5938 -3.1719 18.0547 -2.0625 Q17.5156 -0.9531 16.5312 -0.3984 Q15.5469 0.1562 14.2031 0.1562 ZM11.875 -4.7812 Q11.875 -2.7812 12.5156 -1.6953 Q13.1562 -0.6094 14.3438 -0.6094 Q15 -0.6094 15.4609 -0.9297 Q15.9219 -1.25 16.2031 -1.7891 Q16.4844 -2.3281 16.6172 -3.0312 Q16.75 -3.7344 16.75 -4.5156 Q16.75 -5.9531 16.4297 -6.8984 Q16.1094 -7.8438 15.5625 -8.2891 Q15.0156 -8.7344 14.3125 -8.7344 Q13.125 -8.7344 12.5 -7.7109 Q11.875 -6.6875 11.875 -4.7812 ZM27.4844 -7.2031 L26.5469 -7.2031 Q26.3438 -7.7812 26.0469 -8.1172 Q25.75 -8.4531 25.3828 -8.5938 Q25.0156 -8.7344 24.4688 -8.7344 Q23.6875 -8.7344 23.2266 -8.3672 Q22.7656 -8 22.7656 -7.3594 Q22.7656 -6.9219 22.9531 -6.625 Q23.1406 -6.3281 23.5312 -6.0781 Q23.9219 -5.8281 24.9062 -5.4062 Q25.9062 -4.9688 26.4453 -4.6094 Q26.9844 -4.25 27.2891 -3.7734 Q27.5938 -3.2969 27.5938 -2.625 Q27.5938 -1.8594 27.3359 -1.3281 Q27.0781 -0.7969 26.5938 -0.4688 Q26.1094 -0.1406 25.4531 0.0078 Q24.7969 0.1562 24.0156 0.1562 Q23.1875 0.1562 22.4219 0.0312 Q21.6562 -0.0938 20.9219 -0.2812 L20.9219 -2.3281 L21.875 -2.3281 Q22.1406 -1.4219 22.6562 -1.0156 Q23.1719 -0.6094 24.0781 -0.6094 Q24.4375 -0.6094 24.7734 -0.6875 Q25.1094 -0.7656 25.375 -0.9375 Q25.6406 -1.1094 25.7969 -1.3984 Q25.9531 -1.6875 25.9531 -2.125 Q25.9531 -2.625 25.7578 -2.9375 Q25.5625 -3.25 25.1484 -3.5078 Q24.7344 -3.7656 23.7031 -4.2031 Q22.8125 -4.5781 22.2734 -4.9297 Q21.7344 -5.2812 21.4297 -5.7578 Q21.125 -6.2344 21.125 -6.8906 Q21.125 -7.7031 21.5625 -8.2891 Q22 -8.875 22.8203 -9.1875 Q23.6406 -9.5 24.7344 -9.5 Q25.375 -9.5 25.9766 -9.4375 Q26.5781 -9.375 27.4844 -9.1875 L27.4844 -7.2031 Z" stroke-width="1" transform="translate(106.825,13.972)" stroke="none"/></g><g text-rendering="optimizeLegibility" transform="translate(137.4188,13.972)" color-rendering="optimizeQuality" color-interpolation="linearRGB" image-rendering="optimizeQuality"><path d="M4.3594 0.1562 Q1.2188 0.1562 1.2188 -3.7812 Q1.2188 -7.1719 3.0547 -10.4688 Q4.8906 -13.7656 7.7031 -13.7656 Q10.6406 -13.7656 10.6406 -9.9062 Q10.6406 -6.4844 8.8594 -3.1641 Q7.0781 0.1562 4.3594 0.1562 ZM3.6094 -7.5469 L8.625 -7.5469 Q9 -9.6094 9 -10.7188 Q9 -12.9375 7.5 -12.9375 Q6.3594 -12.9375 5.3438 -11.5312 Q4.3281 -10.125 3.6094 -7.5469 ZM3.3594 -6.625 Q2.8438 -4.4219 2.8438 -2.9219 Q2.8438 -0.6719 4.5469 -0.6719 Q5.75 -0.6719 6.75 -2.2422 Q7.75 -3.8125 8.4219 -6.625 L3.3594 -6.625 Z" stroke="none"/></g><g text-rendering="optimizeLegibility" transform="translate(148.0594,18.7376)" color-rendering="optimizeQuality" color-interpolation="linearRGB" image-rendering="optimizeQuality"><path d="M3.8281 -9.2188 L3.5156 -7.8906 L2.2969 -7.8906 L2.625 -9.2188 L3.8281 -9.2188 ZM2.1406 -1.7031 Q2.0625 -1.3594 2.0469 -1.2031 Q2.0312 -1.0469 2.0312 -0.9375 Q2.0312 -0.7188 2.0938 -0.6094 Q2.1562 -0.5 2.3047 -0.4375 Q2.4531 -0.375 2.7812 -0.3281 L2.7188 0 L0.5938 0 L1.625 -4.6094 Q1.7188 -5 1.75 -5.2344 Q1.7812 -5.4688 1.7812 -5.6406 Q1.7812 -5.8281 1.7266 -5.9375 Q1.6719 -6.0469 1.5312 -6.1016 Q1.3906 -6.1562 1.0625 -6.1719 L1.1406 -6.5312 L2.7969 -6.5938 L3.2031 -6.5938 L2.1406 -1.7031 Z" stroke="none"/></g><g text-rendering="optimizeLegibility" transform="translate(154.8875,13.972)" color-rendering="optimizeQuality" color-interpolation="linearRGB" image-rendering="optimizeQuality"><path d="M8.2188 -9.1094 L8.2188 -7.0781 L6.9844 -7.0781 Q6.8125 -7.7031 6.5703 -8.0703 Q6.3281 -8.4375 6.0078 -8.5859 Q5.6875 -8.7344 5.2031 -8.7344 Q4.5156 -8.7344 3.9922 -8.2969 Q3.4688 -7.8594 3.1641 -6.9609 Q2.8594 -6.0625 2.8594 -4.75 Q2.8594 -3.9219 2.9766 -3.2344 Q3.0938 -2.5469 3.375 -2.0625 Q3.6562 -1.5781 4.125 -1.3047 Q4.5938 -1.0312 5.2812 -1.0312 Q5.9531 -1.0312 6.5391 -1.2891 Q7.125 -1.5469 7.75 -2.2188 L8.2969 -1.5781 Q7.7969 -1.0312 7.4219 -0.7344 Q7.0469 -0.4375 6.6094 -0.2344 Q6.1719 -0.0312 5.75 0.0625 Q5.3281 0.1562 4.8281 0.1562 Q2.9844 0.1562 2.0078 -1.0703 Q1.0312 -2.2969 1.0312 -4.6094 Q1.0312 -6.0625 1.5781 -7.1797 Q2.125 -8.2969 3.1094 -8.8984 Q4.0938 -9.5 5.375 -9.5 Q6.1875 -9.5 6.8672 -9.4062 Q7.5469 -9.3125 8.2188 -9.1094 ZM14.2031 0.1562 Q12.1719 0.1562 11.1016 -1.0391 Q10.0312 -2.2344 10.0312 -4.5781 Q10.0312 -6.1875 10.5938 -7.3047 Q11.1562 -8.4219 12.1328 -8.9609 Q13.1094 -9.5 14.3594 -9.5 Q16.4375 -9.5 17.5156 -8.2891 Q18.5938 -7.0781 18.5938 -4.7969 Q18.5938 -3.1719 18.0547 -2.0625 Q17.5156 -0.9531 16.5312 -0.3984 Q15.5469 0.1562 14.2031 0.1562 ZM11.875 -4.7812 Q11.875 -2.7812 12.5156 -1.6953 Q13.1562 -0.6094 14.3438 -0.6094 Q15 -0.6094 15.4609 -0.9297 Q15.9219 -1.25 16.2031 -1.7891 Q16.4844 -2.3281 16.6172 -3.0312 Q16.75 -3.7344 16.75 -4.5156 Q16.75 -5.9531 16.4297 -6.8984 Q16.1094 -7.8438 15.5625 -8.2891 Q15.0156 -8.7344 14.3125 -8.7344 Q13.125 -8.7344 12.5 -7.7109 Q11.875 -6.6875 11.875 -4.7812 ZM27.4844 -7.2031 L26.5469 -7.2031 Q26.3438 -7.7812 26.0469 -8.1172 Q25.75 -8.4531 25.3828 -8.5938 Q25.0156 -8.7344 24.4688 -8.7344 Q23.6875 -8.7344 23.2266 -8.3672 Q22.7656 -8 22.7656 -7.3594 Q22.7656 -6.9219 22.9531 -6.625 Q23.1406 -6.3281 23.5312 -6.0781 Q23.9219 -5.8281 24.9062 -5.4062 Q25.9062 -4.9688 26.4453 -4.6094 Q26.9844 -4.25 27.2891 -3.7734 Q27.5938 -3.2969 27.5938 -2.625 Q27.5938 -1.8594 27.3359 -1.3281 Q27.0781 -0.7969 26.5938 -0.4688 Q26.1094 -0.1406 25.4531 0.0078 Q24.7969 0.1562 24.0156 0.1562 Q23.1875 0.1562 22.4219 0.0312 Q21.6562 -0.0938 20.9219 -0.2812 L20.9219 -2.3281 L21.875 -2.3281 Q22.1406 -1.4219 22.6562 -1.0156 Q23.1719 -0.6094 24.0781 -0.6094 Q24.4375 -0.6094 24.7734 -0.6875 Q25.1094 -0.7656 25.375 -0.9375 Q25.6406 -1.1094 25.7969 -1.3984 Q25.9531 -1.6875 25.9531 -2.125 Q25.9531 -2.625 25.7578 -2.9375 Q25.5625 -3.25 25.1484 -3.5078 Q24.7344 -3.7656 23.7031 -4.2031 Q22.8125 -4.5781 22.2734 -4.9297 Q21.7344 -5.2812 21.4297 -5.7578 Q21.125 -6.2344 21.125 -6.8906 Q21.125 -7.7031 21.5625 -8.2891 Q22 -8.875 22.8203 -9.1875 Q23.6406 -9.5 24.7344 -9.5 Q25.375 -9.5 25.9766 -9.4375 Q26.5781 -9.375 27.4844 -9.1875 L27.4844 -7.2031 Z" stroke="none"/></g><g text-rendering="optimizeLegibility" transform="translate(185.4813,13.972)" color-rendering="optimizeQuality" color-interpolation="linearRGB" image-rendering="optimizeQuality"><path d="M4.3594 0.1562 Q1.2188 0.1562 1.2188 -3.7812 Q1.2188 -7.1719 3.0547 -10.4688 Q4.8906 -13.7656 7.7031 -13.7656 Q10.6406 -13.7656 10.6406 -9.9062 Q10.6406 -6.4844 8.8594 -3.1641 Q7.0781 0.1562 4.3594 0.1562 ZM3.6094 -7.5469 L8.625 -7.5469 Q9 -9.6094 9 -10.7188 Q9 -12.9375 7.5 -12.9375 Q6.3594 -12.9375 5.3438 -11.5312 Q4.3281 -10.125 3.6094 -7.5469 ZM3.3594 -6.625 Q2.8438 -4.4219 2.8438 -2.9219 Q2.8438 -0.6719 4.5469 -0.6719 Q5.75 -0.6719 6.75 -2.2422 Q7.75 -3.8125 8.4219 -6.625 L3.3594 -6.625 Z" stroke="none"/></g><g text-rendering="optimizeLegibility" transform="translate(197.9188,17.2064)" color-rendering="optimizeQuality" color-interpolation="linearRGB" image-rendering="optimizeQuality"><path d="M3.8438 -9.2188 L3.5312 -7.8906 L2.3281 -7.8906 L2.6406 -9.2188 L3.8438 -9.2188 ZM1.7969 0.1094 Q1.5781 1.1562 1.2031 1.7891 Q0.8281 2.4219 0.2188 2.7422 Q-0.3906 3.0625 -1.2188 3.0625 Q-1.5625 3.0625 -1.7969 2.9844 L-1.6406 2.3906 Q-1.5312 2.4219 -1.3984 2.4297 Q-1.2656 2.4375 -1.125 2.4375 Q-0.7969 2.4375 -0.5625 2.3438 Q-0.3281 2.25 -0.1328 2.0156 Q0.0625 1.7812 0.2266 1.375 Q0.3906 0.9688 0.5469 0.3125 L1.6406 -4.6094 Q1.7344 -4.9844 1.7734 -5.2266 Q1.8125 -5.4688 1.8125 -5.6406 Q1.8125 -5.8281 1.75 -5.9375 Q1.6875 -6.0469 1.5547 -6.1016 Q1.4219 -6.1562 1.0781 -6.1719 L1.1562 -6.5312 L2.8281 -6.5938 L3.2188 -6.5938 L1.7969 0.1094 Z" stroke="none"/></g><g text-rendering="optimizeLegibility" transform="translate(140.6531,39.5099)" color-rendering="optimizeQuality" color-interpolation="linearRGB" image-rendering="optimizeQuality"><path d="M11.6562 -8.1094 L9.4219 -8.1094 L8.0625 -2.0938 Q7.9844 -1.7969 7.9844 -1.5781 Q7.9844 -0.875 8.5625 -0.875 Q9 -0.875 9.7188 -1.6094 L10.0781 -1.1094 Q8.9219 0.1562 7.7812 0.1562 Q6.3906 0.1562 6.3906 -1.3281 Q6.3906 -1.7969 6.5312 -2.3281 L7.8281 -8.1094 L4.9844 -8.1094 L3.1719 0 L1.1875 0 L1.2812 -0.4844 Q2.1094 -1.2656 3.0625 -5.2812 L3.7188 -8.1094 L3.6094 -8.1094 Q1.8594 -8.1094 0.9375 -6.9062 L0.4844 -7.4219 Q1.8594 -9.3438 4 -9.3438 L11.9219 -9.3438 L11.6562 -8.1094 Z" stroke="none"/></g><g text-rendering="optimizeLegibility" transform="translate(152.575,39.5099)" color-rendering="optimizeQuality" color-interpolation="linearRGB" image-rendering="optimizeQuality"><path d="M3.8906 -9.4219 L4.4688 -9.4219 L3.7969 -7.0156 L3.9062 -6.9844 Q4.8281 -8.2656 5.7188 -8.8828 Q6.6094 -9.5 7.5469 -9.5 Q8.25 -9.5 8.7344 -9.3906 L8.2656 -7.2031 L7.25 -7.2031 Q7.1719 -7.7031 7.0078 -7.9688 Q6.8438 -8.2344 6.5 -8.2344 Q6.1094 -8.2344 5.6172 -7.8438 Q5.125 -7.4531 4.6016 -6.7656 Q4.0781 -6.0781 3.8203 -5.5078 Q3.5625 -4.9375 3.4219 -4.2344 L2.5469 0 L0.8438 0 L2.3281 -6.6719 Q2.5469 -7.5938 2.5469 -8.0625 Q2.5469 -8.3438 2.4531 -8.4922 Q2.3594 -8.6406 2.1641 -8.7188 Q1.9688 -8.7969 1.5 -8.8125 L1.6094 -9.3438 L3.8906 -9.4219 Z" stroke="none"/></g><g text-rendering="optimizeLegibility" transform="translate(161.3094,34.7286)" color-rendering="optimizeQuality" color-interpolation="linearRGB" image-rendering="optimizeQuality"><path d="M4.7969 -1.0938 Q5.1406 -1.0938 5.3438 -1.1328 Q5.5469 -1.1719 5.6719 -1.2734 Q5.7969 -1.375 5.8672 -1.5234 Q5.9375 -1.6719 6.0469 -2 L6.625 -2 L6.5156 0 L0.875 0 L0.875 -0.3281 Q1.1719 -1.0469 1.6719 -1.7969 Q2.1719 -2.5469 3.0938 -3.5625 Q3.8906 -4.4375 4.2344 -4.8906 Q4.6094 -5.3906 4.7969 -5.75 Q4.9844 -6.1094 5.0703 -6.4219 Q5.1562 -6.7344 5.1562 -7.0625 Q5.1562 -7.5781 4.9922 -7.9688 Q4.8281 -8.3594 4.4922 -8.5859 Q4.1562 -8.8125 3.6406 -8.8125 Q2.3594 -8.8125 1.9219 -7.3906 L1.0938 -7.3906 L1.0938 -8.7031 Q1.9219 -9.0938 2.6406 -9.2656 Q3.3594 -9.4375 3.9375 -9.4375 Q5.2031 -9.4375 5.8516 -8.8828 Q6.5 -8.3281 6.5 -7.2656 Q6.5 -6.9062 6.4297 -6.6016 Q6.3594 -6.2969 6.2031 -6 Q6.0469 -5.7031 5.7891 -5.3594 Q5.5312 -5.0156 5.2188 -4.6641 Q4.9062 -4.3125 4.125 -3.5 Q2.8281 -2.125 2.2188 -1.0938 L4.7969 -1.0938 Z" stroke="none"/></g><g text-rendering="optimizeLegibility" transform="translate(205.1069,30)" color-rendering="optimizeQuality" color-interpolation="linearRGB" image-rendering="optimizeQuality"><path d="M8.5 -11.2188 Q8.5781 -11.5312 8.6328 -11.9219 Q8.6875 -12.3125 8.6875 -12.6094 Q8.6875 -12.9062 8.5859 -13.0547 Q8.4844 -13.2031 8.2812 -13.2734 Q8.0781 -13.3438 7.5625 -13.375 L7.6719 -13.875 L10.125 -13.9688 L10.7031 -13.9688 L8.1719 -2.7188 Q8.0312 -2.0938 7.9844 -1.7969 Q7.9375 -1.5 7.9375 -1.2969 Q7.9375 -0.8906 8.1641 -0.7109 Q8.3906 -0.5312 9.0312 -0.4844 L8.9375 0 L6.1406 0 L6.7656 -2.4531 L6.625 -2.4844 Q5.6875 -1.125 4.8516 -0.4922 Q4.0156 0.1406 3.0781 0.1406 Q2 0.1406 1.4141 -0.6641 Q0.8281 -1.4688 0.8281 -2.9375 Q0.8281 -3.875 1.0391 -4.8203 Q1.25 -5.7656 1.6875 -6.6094 Q2.125 -7.4531 2.7266 -8.0938 Q3.3281 -8.7344 4.125 -9.1172 Q4.9219 -9.5 5.8594 -9.5 Q6.4531 -9.5 6.9609 -9.3828 Q7.4688 -9.2656 7.9844 -8.9531 L8.5 -11.2188 ZM7.2812 -5.9531 Q7.4375 -6.6562 7.4375 -7.2812 Q7.4375 -8.0312 7.1094 -8.3828 Q6.7812 -8.7344 6.0312 -8.7344 Q5.625 -8.7344 5.2578 -8.6016 Q4.8906 -8.4688 4.5078 -8.1641 Q4.125 -7.8594 3.7734 -7.3594 Q3.4219 -6.8594 3.1406 -6.1484 Q2.8594 -5.4375 2.7031 -4.6172 Q2.5469 -3.7969 2.5469 -3.0312 Q2.5469 -2.0156 2.8281 -1.5078 Q3.1094 -1 3.7656 -1 Q4.0625 -1 4.3906 -1.1406 Q4.7188 -1.2812 5.1172 -1.6484 Q5.5156 -2.0156 6.0312 -2.7188 Q6.4844 -3.375 6.75 -4.0156 Q7.0156 -4.6562 7.2031 -5.5312 L7.2812 -5.9531 Z" stroke="none"/></g><g text-rendering="optimizeLegibility" transform="translate(216.0444,30)" color-rendering="optimizeQuality" color-interpolation="linearRGB" image-rendering="optimizeQuality"><path d="M7.2188 4.25 Q5.5625 4.25 4.5078 3.75 Q3.4531 3.25 2.8672 2.2344 Q2.2812 1.2188 2.0234 -0.4141 Q1.7656 -2.0469 1.7656 -4.8438 Q1.7656 -7.625 2.0234 -9.2656 Q2.2812 -10.9062 2.8672 -11.9453 Q3.4531 -12.9844 4.5078 -13.5 Q5.5625 -14.0156 7.2188 -14.0156 L7.2188 -13.2188 Q6.5312 -13.2188 6 -13.0938 Q5.4062 -12.9531 4.9844 -12.5625 Q4.5156 -12.1406 4.2344 -11.375 Q3.8906 -10.4688 3.7188 -8.9844 Q3.5469 -7.4062 3.5469 -4.9219 Q3.5469 -2.7188 3.6953 -1.1797 Q3.8438 0.3594 4.1875 1.3281 Q4.4531 2.1562 4.8594 2.6094 Q5.2188 3.0156 5.7188 3.2188 Q6.2969 3.4531 7.2188 3.4531 L7.2188 4.25 Z" stroke="none"/></g><g text-rendering="optimizeLegibility" transform="translate(226.1694,30)" color-rendering="optimizeQuality" color-interpolation="linearRGB" image-rendering="optimizeQuality"><path d="M6.625 0 L6.7344 -0.4844 Q7.1719 -0.5156 7.4219 -0.7344 Q7.6719 -0.9531 7.7734 -1.3281 Q7.875 -1.7031 7.875 -2.3281 Q7.875 -2.7188 7.8438 -3.1719 L7.7812 -4.4219 L3.4844 -4.4219 L2.9375 -3.4688 Q2.5625 -2.7969 2.3828 -2.3125 Q2.2031 -1.8281 2.2031 -1.4531 Q2.2031 -0.6406 3.1875 -0.4844 L3.0938 0 L-0.9062 0 L-0.7969 -0.4844 Q-0.5 -0.5156 -0.2266 -0.7188 Q0.0469 -0.9219 0.3438 -1.3281 Q0.6406 -1.7344 1.1875 -2.6719 L7.4531 -13.4844 L8.9219 -13.4844 L9.625 -2.5938 Q9.6719 -1.8281 9.8047 -1.3906 Q9.9375 -0.9531 10.1562 -0.7422 Q10.375 -0.5312 10.7969 -0.4844 L10.6875 0 L6.625 0 ZM3.9219 -5.2812 L7.7344 -5.2812 L7.5625 -8.4219 Q7.5469 -9.0625 7.5234 -10.0312 Q7.5 -11 7.5 -11.4219 L7.3906 -11.4219 L3.9219 -5.2812 Z" stroke="none"/></g><g text-rendering="optimizeLegibility" transform="translate(238.7632,33.0781)" color-rendering="optimizeQuality" color-interpolation="linearRGB" image-rendering="optimizeQuality"><path d="M3.8438 -9.2188 L3.5312 -7.8906 L2.3281 -7.8906 L2.6406 -9.2188 L3.8438 -9.2188 ZM1.7969 0.1094 Q1.5781 1.1562 1.2031 1.7891 Q0.8281 2.4219 0.2188 2.7422 Q-0.3906 3.0625 -1.2188 3.0625 Q-1.5625 3.0625 -1.7969 2.9844 L-1.6406 2.3906 Q-1.5312 2.4219 -1.3984 2.4297 Q-1.2656 2.4375 -1.125 2.4375 Q-0.7969 2.4375 -0.5625 2.3438 Q-0.3281 2.25 -0.1328 2.0156 Q0.0625 1.7812 0.2266 1.375 Q0.3906 0.9688 0.5469 0.3125 L1.6406 -4.6094 Q1.7344 -4.9844 1.7734 -5.2266 Q1.8125 -5.4688 1.8125 -5.6406 Q1.8125 -5.8281 1.75 -5.9375 Q1.6875 -6.0469 1.5547 -6.1016 Q1.4219 -6.1562 1.0781 -6.1719 L1.1562 -6.5312 L2.8281 -6.5938 L3.2188 -6.5938 L1.7969 0.1094 Z" stroke="none"/></g><g text-rendering="optimizeLegibility" transform="translate(244.1851,30)" color-rendering="optimizeQuality" color-interpolation="linearRGB" image-rendering="optimizeQuality"><path d="M0.4219 -14.0156 Q2.0781 -14.0156 3.1328 -13.5156 Q4.1875 -13.0156 4.7734 -12 Q5.3594 -10.9844 5.6172 -9.3516 Q5.875 -7.7188 5.875 -4.9219 Q5.875 -2.1562 5.6172 -0.5078 Q5.3594 1.1406 4.7734 2.1797 Q4.1875 3.2188 3.1328 3.7344 Q2.0781 4.25 0.4219 4.25 L0.4219 3.4531 Q1.1094 3.4531 1.625 3.3281 Q2.2344 3.1875 2.6406 2.7969 Q3.1094 2.375 3.4062 1.6094 Q3.75 0.7031 3.9219 -0.7812 Q4.0938 -2.3594 4.0938 -4.8438 Q4.0938 -7.0469 3.9453 -8.5859 Q3.7969 -10.125 3.4531 -11.0938 Q3.1875 -11.9219 2.7812 -12.375 Q2.4062 -12.7812 1.9219 -12.9844 Q1.3438 -13.2188 0.4219 -13.2188 L0.4219 -14.0156 Z" stroke="none"/></g><g text-rendering="optimizeLegibility" transform="translate(255.0601,30)" color-rendering="optimizeQuality" color-interpolation="linearRGB" image-rendering="optimizeQuality"><path d="M8.5 -11.2188 Q8.5781 -11.5312 8.6328 -11.9219 Q8.6875 -12.3125 8.6875 -12.6094 Q8.6875 -12.9062 8.5859 -13.0547 Q8.4844 -13.2031 8.2812 -13.2734 Q8.0781 -13.3438 7.5625 -13.375 L7.6719 -13.875 L10.125 -13.9688 L10.7031 -13.9688 L8.1719 -2.7188 Q8.0312 -2.0938 7.9844 -1.7969 Q7.9375 -1.5 7.9375 -1.2969 Q7.9375 -0.8906 8.1641 -0.7109 Q8.3906 -0.5312 9.0312 -0.4844 L8.9375 0 L6.1406 0 L6.7656 -2.4531 L6.625 -2.4844 Q5.6875 -1.125 4.8516 -0.4922 Q4.0156 0.1406 3.0781 0.1406 Q2 0.1406 1.4141 -0.6641 Q0.8281 -1.4688 0.8281 -2.9375 Q0.8281 -3.875 1.0391 -4.8203 Q1.25 -5.7656 1.6875 -6.6094 Q2.125 -7.4531 2.7266 -8.0938 Q3.3281 -8.7344 4.125 -9.1172 Q4.9219 -9.5 5.8594 -9.5 Q6.4531 -9.5 6.9609 -9.3828 Q7.4688 -9.2656 7.9844 -8.9531 L8.5 -11.2188 ZM7.2812 -5.9531 Q7.4375 -6.6562 7.4375 -7.2812 Q7.4375 -8.0312 7.1094 -8.3828 Q6.7812 -8.7344 6.0312 -8.7344 Q5.625 -8.7344 5.2578 -8.6016 Q4.8906 -8.4688 4.5078 -8.1641 Q4.125 -7.8594 3.7734 -7.3594 Q3.4219 -6.8594 3.1406 -6.1484 Q2.8594 -5.4375 2.7031 -4.6172 Q2.5469 -3.7969 2.5469 -3.0312 Q2.5469 -2.0156 2.8281 -1.5078 Q3.1094 -1 3.7656 -1 Q4.0625 -1 4.3906 -1.1406 Q4.7188 -1.2812 5.1172 -1.6484 Q5.5156 -2.0156 6.0312 -2.7188 Q6.4844 -3.375 6.75 -4.0156 Q7.0156 -4.6562 7.2031 -5.5312 L7.2812 -5.9531 Z" stroke="none"/></g><g text-rendering="optimizeLegibility" transform="translate(265.9976,30)" color-rendering="optimizeQuality" color-interpolation="linearRGB" image-rendering="optimizeQuality"><path d="M7.2188 4.25 Q5.5625 4.25 4.5078 3.75 Q3.4531 3.25 2.8672 2.2344 Q2.2812 1.2188 2.0234 -0.4141 Q1.7656 -2.0469 1.7656 -4.8438 Q1.7656 -7.625 2.0234 -9.2656 Q2.2812 -10.9062 2.8672 -11.9453 Q3.4531 -12.9844 4.5078 -13.5 Q5.5625 -14.0156 7.2188 -14.0156 L7.2188 -13.2188 Q6.5312 -13.2188 6 -13.0938 Q5.4062 -12.9531 4.9844 -12.5625 Q4.5156 -12.1406 4.2344 -11.375 Q3.8906 -10.4688 3.7188 -8.9844 Q3.5469 -7.4062 3.5469 -4.9219 Q3.5469 -2.7188 3.6953 -1.1797 Q3.8438 0.3594 4.1875 1.3281 Q4.4531 2.1562 4.8594 2.6094 Q5.2188 3.0156 5.7188 3.2188 Q6.2969 3.4531 7.2188 3.4531 L7.2188 4.25 Z" stroke="none"/></g><g text-rendering="optimizeLegibility" transform="translate(276.1226,30)" color-rendering="optimizeQuality" color-interpolation="linearRGB" image-rendering="optimizeQuality"><path d="M6.625 0 L6.7344 -0.4844 Q7.1719 -0.5156 7.4219 -0.7344 Q7.6719 -0.9531 7.7734 -1.3281 Q7.875 -1.7031 7.875 -2.3281 Q7.875 -2.7188 7.8438 -3.1719 L7.7812 -4.4219 L3.4844 -4.4219 L2.9375 -3.4688 Q2.5625 -2.7969 2.3828 -2.3125 Q2.2031 -1.8281 2.2031 -1.4531 Q2.2031 -0.6406 3.1875 -0.4844 L3.0938 0 L-0.9062 0 L-0.7969 -0.4844 Q-0.5 -0.5156 -0.2266 -0.7188 Q0.0469 -0.9219 0.3438 -1.3281 Q0.6406 -1.7344 1.1875 -2.6719 L7.4531 -13.4844 L8.9219 -13.4844 L9.625 -2.5938 Q9.6719 -1.8281 9.8047 -1.3906 Q9.9375 -0.9531 10.1562 -0.7422 Q10.375 -0.5312 10.7969 -0.4844 L10.6875 0 L6.625 0 ZM3.9219 -5.2812 L7.7344 -5.2812 L7.5625 -8.4219 Q7.5469 -9.0625 7.5234 -10.0312 Q7.5 -11 7.5 -11.4219 L7.3906 -11.4219 L3.9219 -5.2812 Z" stroke="none"/></g><g text-rendering="optimizeLegibility" transform="translate(286.9194,34.6094)" color-rendering="optimizeQuality" color-interpolation="linearRGB" image-rendering="optimizeQuality"><path d="M3.8281 -9.2188 L3.5156 -7.8906 L2.2969 -7.8906 L2.625 -9.2188 L3.8281 -9.2188 ZM2.1406 -1.7031 Q2.0625 -1.3594 2.0469 -1.2031 Q2.0312 -1.0469 2.0312 -0.9375 Q2.0312 -0.7188 2.0938 -0.6094 Q2.1562 -0.5 2.3047 -0.4375 Q2.4531 -0.375 2.7812 -0.3281 L2.7188 0 L0.5938 0 L1.625 -4.6094 Q1.7188 -5 1.75 -5.2344 Q1.7812 -5.4688 1.7812 -5.6406 Q1.7812 -5.8281 1.7266 -5.9375 Q1.6719 -6.0469 1.5312 -6.1016 Q1.3906 -6.1562 1.0625 -6.1719 L1.1406 -6.5312 L2.7969 -6.5938 L3.2031 -6.5938 L2.1406 -1.7031 Z" stroke="none"/></g><g text-rendering="optimizeLegibility" transform="translate(292.3257,30)" color-rendering="optimizeQuality" color-interpolation="linearRGB" image-rendering="optimizeQuality"><path d="M0.4219 -14.0156 Q2.0781 -14.0156 3.1328 -13.5156 Q4.1875 -13.0156 4.7734 -12 Q5.3594 -10.9844 5.6172 -9.3516 Q5.875 -7.7188 5.875 -4.9219 Q5.875 -2.1562 5.6172 -0.5078 Q5.3594 1.1406 4.7734 2.1797 Q4.1875 3.2188 3.1328 3.7344 Q2.0781 4.25 0.4219 4.25 L0.4219 3.4531 Q1.1094 3.4531 1.625 3.3281 Q2.2344 3.1875 2.6406 2.7969 Q3.1094 2.375 3.4062 1.6094 Q3.75 0.7031 3.9219 -0.7812 Q4.0938 -2.3594 4.0938 -4.8438 Q4.0938 -7.0469 3.9453 -8.5859 Q3.7969 -10.125 3.4531 -11.0938 Q3.1875 -11.9219 2.7812 -12.375 Q2.4062 -12.7812 1.9219 -12.9844 Q1.3438 -13.2188 0.4219 -13.2188 L0.4219 -14.0156 Z" stroke="none"/></g></g></svg>