<?xml version="1.0" encoding="UTF-8" standalone="no"?><svg xmlns="http://www.w3.org/2000/svg" xmlns:xlink="http://www.w3.org/1999/xlink" stroke-dasharray="none" shape-rendering="auto" font-family="'Dialog'" width="391.812600" text-rendering="auto" fill-opacity="1" contentScriptType="text/ecmascript" color-interpolation="auto" color-rendering="auto" preserveAspectRatio="xMidYMid meet" font-size="12" fill="black" stroke="black" image-rendering="auto" stroke-miterlimit="10" zoomAndPan="magnify" version="1.0" stroke-linecap="square" stroke-linejoin="miter" contentStyleType="text/css" font-style="normal" height="42" stroke-width="1" stroke-dashoffset="0" font-weight="normal" stroke-opacity="1" y="-14.000000"><!--Converted from MathML using JEuclid--><defs id="genericDefs"/><g><g text-rendering="optimizeLegibility" transform="translate(0.9062,28)" color-rendering="optimizeQuality" color-interpolation="linearRGB" image-rendering="optimizeQuality"><path d="M6.625 0 L6.7344 -0.4844 Q7.1719 -0.5156 7.4219 -0.7344 Q7.6719 -0.9531 7.7734 -1.3281 Q7.875 -1.7031 7.875 -2.3281 Q7.875 -2.7188 7.8438 -3.1719 L7.7812 -4.4219 L3.4844 -4.4219 L2.9375 -3.4688 Q2.5625 -2.7969 2.3828 -2.3125 Q2.2031 -1.8281 2.2031 -1.4531 Q2.2031 -0.6406 3.1875 -0.4844 L3.0938 0 L-0.9062 0 L-0.7969 -0.4844 Q-0.5 -0.5156 -0.2266 -0.7188 Q0.0469 -0.9219 0.3438 -1.3281 Q0.6406 -1.7344 1.1875 -2.6719 L7.4531 -13.4844 L8.9219 -13.4844 L9.625 -2.5938 Q9.6719 -1.8281 9.8047 -1.3906 Q9.9375 -0.9531 10.1562 -0.7422 Q10.375 -0.5312 10.7969 -0.4844 L10.6875 0 L6.625 0 ZM3.9219 -5.2812 L7.7344 -5.2812 L7.5625 -8.4219 Q7.5469 -9.0625 7.5234 -10.0312 Q7.5 -11 7.5 -11.4219 L7.3906 -11.4219 L3.9219 -5.2812 Z" stroke="none"/></g><g text-rendering="optimizeLegibility" transform="translate(3.0156,24.7812)" color-rendering="optimizeQuality" color-interpolation="linearRGB" image-rendering="optimizeQuality"><path d="M3.7344 -13.1719 L3.7344 -11.2656 L1.9375 -11.2656 L1.9375 -13.1719 L3.7344 -13.1719 Z" stroke="none"/></g><g text-rendering="optimizeLegibility" transform="translate(11.7031,31.3203)" color-rendering="optimizeQuality" color-interpolation="linearRGB" image-rendering="optimizeQuality"><path d="M6.4531 0 L4.2969 0 L5.1562 -3.4688 Q5.25 -3.8125 5.3281 -4.2109 Q5.4062 -4.6094 5.4062 -4.9375 Q5.4062 -5.4219 5.2344 -5.6328 Q5.0625 -5.8438 4.7031 -5.8438 Q4.4219 -5.8438 4.0938 -5.625 Q3.7656 -5.4062 3.3984 -4.9609 Q3.0312 -4.5156 2.7812 -4.0625 Q2.5312 -3.6094 2.4062 -2.9531 L1.7812 0 L0.5938 0 L1.6406 -4.6719 Q1.6719 -4.8281 1.7266 -5.1328 Q1.7812 -5.4375 1.7812 -5.6406 Q1.7812 -5.8438 1.7266 -5.9453 Q1.6719 -6.0469 1.5312 -6.1016 Q1.3906 -6.1562 1.0469 -6.1719 L1.1406 -6.5312 L2.6875 -6.5938 L3.0781 -6.5938 L2.625 -4.8125 L2.7031 -4.7969 Q3.375 -5.7344 3.9922 -6.1875 Q4.6094 -6.6406 5.2344 -6.6406 Q5.9062 -6.6406 6.2422 -6.2734 Q6.5781 -5.9062 6.5781 -5.2031 Q6.5781 -4.9531 6.5391 -4.6641 Q6.5 -4.375 6.4375 -4.1406 L5.8594 -1.7031 Q5.75 -1.2188 5.75 -0.9375 Q5.75 -0.7188 5.8203 -0.6094 Q5.8906 -0.5 6.0312 -0.4375 Q6.1719 -0.375 6.5 -0.3281 L6.4531 0 Z" stroke="none"/></g><g text-rendering="optimizeLegibility" transform="translate(19.0625,28)" color-rendering="optimizeQuality" color-interpolation="linearRGB" image-rendering="optimizeQuality"><path d="M1.2188 -7.0625 L1.2188 -8.4219 L9.8594 -8.4219 L9.8594 -7.0625 L1.2188 -7.0625 ZM1.2188 -3.0156 L1.2188 -4.3594 L9.8594 -4.3594 L9.8594 -3.0156 L1.2188 -3.0156 Z" stroke="none"/></g><g text-rendering="optimizeLegibility" stroke-width="1.6667" color-interpolation="linearRGB" color-rendering="optimizeQuality" image-rendering="optimizeQuality"><line y2="20.78" fill="none" x1="32.5997" x2="107.459" y1="20.78"/><path d="M6.625 0 L6.7344 -0.4844 Q7.1719 -0.5156 7.4219 -0.7344 Q7.6719 -0.9531 7.7734 -1.3281 Q7.875 -1.7031 7.875 -2.3281 Q7.875 -2.7188 7.8438 -3.1719 L7.7812 -4.4219 L3.4844 -4.4219 L2.9375 -3.4688 Q2.5625 -2.7969 2.3828 -2.3125 Q2.2031 -1.8281 2.2031 -1.4531 Q2.2031 -0.6406 3.1875 -0.4844 L3.0938 0 L-0.9062 0 L-0.7969 -0.4844 Q-0.5 -0.5156 -0.2266 -0.7188 Q0.0469 -0.9219 0.3438 -1.3281 Q0.6406 -1.7344 1.1875 -2.6719 L7.4531 -13.4844 L8.9219 -13.4844 L9.625 -2.5938 Q9.6719 -1.8281 9.8047 -1.3906 Q9.9375 -0.9531 10.1562 -0.7422 Q10.375 -0.5312 10.7969 -0.4844 L10.6875 0 L6.625 0 ZM3.9219 -5.2812 L7.7344 -5.2812 L7.5625 -8.4219 Q7.5469 -9.0625 7.5234 -10.0312 Q7.5 -11 7.5 -11.4219 L7.3906 -11.4219 L3.9219 -5.2812 Z" stroke-width="1" transform="translate(33.6622,13.5501)" stroke="none"/></g><g text-rendering="optimizeLegibility" transform="translate(44.459,18.2689)" color-rendering="optimizeQuality" color-interpolation="linearRGB" image-rendering="optimizeQuality"><path d="M6.4531 0 L4.2969 0 L5.1562 -3.4688 Q5.25 -3.8125 5.3281 -4.2109 Q5.4062 -4.6094 5.4062 -4.9375 Q5.4062 -5.4219 5.2344 -5.6328 Q5.0625 -5.8438 4.7031 -5.8438 Q4.4219 -5.8438 4.0938 -5.625 Q3.7656 -5.4062 3.3984 -4.9609 Q3.0312 -4.5156 2.7812 -4.0625 Q2.5312 -3.6094 2.4062 -2.9531 L1.7812 0 L0.5938 0 L1.6406 -4.6719 Q1.6719 -4.8281 1.7266 -5.1328 Q1.7812 -5.4375 1.7812 -5.6406 Q1.7812 -5.8438 1.7266 -5.9453 Q1.6719 -6.0469 1.5312 -6.1016 Q1.3906 -6.1562 1.0469 -6.1719 L1.1406 -6.5312 L2.6875 -6.5938 L3.0781 -6.5938 L2.625 -4.8125 L2.7031 -4.7969 Q3.375 -5.7344 3.9922 -6.1875 Q4.6094 -6.6406 5.2344 -6.6406 Q5.9062 -6.6406 6.2422 -6.2734 Q6.5781 -5.9062 6.5781 -5.2031 Q6.5781 -4.9531 6.5391 -4.6641 Q6.5 -4.375 6.4375 -4.1406 L5.8594 -1.7031 Q5.75 -1.2188 5.75 -0.9375 Q5.75 -0.7188 5.8203 -0.6094 Q5.8906 -0.5 6.0312 -0.4375 Q6.1719 -0.375 6.5 -0.3281 L6.4531 0 Z" stroke="none"/></g><g text-rendering="optimizeLegibility" transform="translate(50.1934,18.2689)" color-rendering="optimizeQuality" color-interpolation="linearRGB" image-rendering="optimizeQuality"><path d="M4.375 -3.5312 L4.375 -0.9375 L3.375 -0.9375 L3.375 -3.5312 L0.8438 -3.5312 L0.8438 -4.4844 L3.375 -4.4844 L3.375 -7.0625 L4.375 -7.0625 L4.375 -4.4844 L6.9062 -4.4844 L6.9062 -3.5312 L4.375 -3.5312 Z" stroke="none"/></g><g text-rendering="optimizeLegibility" transform="translate(57.0997,18.2689)" color-rendering="optimizeQuality" color-interpolation="linearRGB" image-rendering="optimizeQuality"><path d="M4.75 -1.7812 Q4.75 -1.3906 4.7969 -1.1875 Q4.8438 -0.9844 4.9531 -0.8594 Q5.0625 -0.7344 5.2734 -0.6641 Q5.4844 -0.5938 5.8047 -0.5547 Q6.125 -0.5156 6.6562 -0.5 L6.6562 0 L1.6094 0 L1.6094 -0.5 Q2.3594 -0.5312 2.6875 -0.5938 Q3.0156 -0.6562 3.1875 -0.7656 Q3.3594 -0.875 3.4375 -1.0938 Q3.5156 -1.3125 3.5156 -1.7812 L3.5156 -7.3281 Q3.5156 -7.6094 3.4219 -7.7344 Q3.3281 -7.8594 3.1406 -7.8594 Q2.9219 -7.8594 2.5156 -7.6328 Q2.1094 -7.4062 1.5156 -7 L1.2188 -7.5312 L4.4219 -9.4375 L4.7969 -9.4375 Q4.75 -8.7812 4.75 -7.625 L4.75 -1.7812 Z" stroke="none"/></g><g text-rendering="optimizeLegibility" transform="translate(64.5215,13.5501)" color-rendering="optimizeQuality" color-interpolation="linearRGB" image-rendering="optimizeQuality"><path d="M1.2344 -5.0469 L1.2344 -6.3906 L9.8281 -6.3906 L9.8281 -5.0469 L1.2344 -5.0469 Z" stroke="none"/></g><g text-rendering="optimizeLegibility" transform="translate(77.2559,13.5501)" color-rendering="optimizeQuality" color-interpolation="linearRGB" image-rendering="optimizeQuality"><path d="M6.625 0 L6.7344 -0.4844 Q7.1719 -0.5156 7.4219 -0.7344 Q7.6719 -0.9531 7.7734 -1.3281 Q7.875 -1.7031 7.875 -2.3281 Q7.875 -2.7188 7.8438 -3.1719 L7.7812 -4.4219 L3.4844 -4.4219 L2.9375 -3.4688 Q2.5625 -2.7969 2.3828 -2.3125 Q2.2031 -1.8281 2.2031 -1.4531 Q2.2031 -0.6406 3.1875 -0.4844 L3.0938 0 L-0.9062 0 L-0.7969 -0.4844 Q-0.5 -0.5156 -0.2266 -0.7188 Q0.0469 -0.9219 0.3438 -1.3281 Q0.6406 -1.7344 1.1875 -2.6719 L7.4531 -13.4844 L8.9219 -13.4844 L9.625 -2.5938 Q9.6719 -1.8281 9.8047 -1.3906 Q9.9375 -0.9531 10.1562 -0.7422 Q10.375 -0.5312 10.7969 -0.4844 L10.6875 0 L6.625 0 ZM3.9219 -5.2812 L7.7344 -5.2812 L7.5625 -8.4219 Q7.5469 -9.0625 7.5234 -10.0312 Q7.5 -11 7.5 -11.4219 L7.3906 -11.4219 L3.9219 -5.2812 Z" stroke="none"/></g><g text-rendering="optimizeLegibility" transform="translate(88.0528,18.2689)" color-rendering="optimizeQuality" color-interpolation="linearRGB" image-rendering="optimizeQuality"><path d="M6.4531 0 L4.2969 0 L5.1562 -3.4688 Q5.25 -3.8125 5.3281 -4.2109 Q5.4062 -4.6094 5.4062 -4.9375 Q5.4062 -5.4219 5.2344 -5.6328 Q5.0625 -5.8438 4.7031 -5.8438 Q4.4219 -5.8438 4.0938 -5.625 Q3.7656 -5.4062 3.3984 -4.9609 Q3.0312 -4.5156 2.7812 -4.0625 Q2.5312 -3.6094 2.4062 -2.9531 L1.7812 0 L0.5938 0 L1.6406 -4.6719 Q1.6719 -4.8281 1.7266 -5.1328 Q1.7812 -5.4375 1.7812 -5.6406 Q1.7812 -5.8438 1.7266 -5.9453 Q1.6719 -6.0469 1.5312 -6.1016 Q1.3906 -6.1562 1.0469 -6.1719 L1.1406 -6.5312 L2.6875 -6.5938 L3.0781 -6.5938 L2.625 -4.8125 L2.7031 -4.7969 Q3.375 -5.7344 3.9922 -6.1875 Q4.6094 -6.6406 5.2344 -6.6406 Q5.9062 -6.6406 6.2422 -6.2734 Q6.5781 -5.9062 6.5781 -5.2031 Q6.5781 -4.9531 6.5391 -4.6641 Q6.5 -4.375 6.4375 -4.1406 L5.8594 -1.7031 Q5.75 -1.2188 5.75 -0.9375 Q5.75 -0.7188 5.8203 -0.6094 Q5.8906 -0.5 6.0312 -0.4375 Q6.1719 -0.375 6.5 -0.3281 L6.4531 0 Z" stroke="none"/></g><g text-rendering="optimizeLegibility" transform="translate(93.7559,18.2689)" color-rendering="optimizeQuality" color-interpolation="linearRGB" image-rendering="optimizeQuality"><path d="M0.875 -3.5312 L0.875 -4.4844 L6.8906 -4.4844 L6.8906 -3.5312 L0.875 -3.5312 Z" stroke="none"/></g><g text-rendering="optimizeLegibility" transform="translate(100.6465,18.2689)" color-rendering="optimizeQuality" color-interpolation="linearRGB" image-rendering="optimizeQuality"><path d="M4.75 -1.7812 Q4.75 -1.3906 4.7969 -1.1875 Q4.8438 -0.9844 4.9531 -0.8594 Q5.0625 -0.7344 5.2734 -0.6641 Q5.4844 -0.5938 5.8047 -0.5547 Q6.125 -0.5156 6.6562 -0.5 L6.6562 0 L1.6094 0 L1.6094 -0.5 Q2.3594 -0.5312 2.6875 -0.5938 Q3.0156 -0.6562 3.1875 -0.7656 Q3.3594 -0.875 3.4375 -1.0938 Q3.5156 -1.3125 3.5156 -1.7812 L3.5156 -7.3281 Q3.5156 -7.6094 3.4219 -7.7344 Q3.3281 -7.8594 3.1406 -7.8594 Q2.9219 -7.8594 2.5156 -7.6328 Q2.1094 -7.4062 1.5156 -7 L1.2188 -7.5312 L4.4219 -9.4375 L4.7969 -9.4375 Q4.75 -8.7812 4.75 -7.625 L4.75 -1.7812 Z" stroke="none"/></g><g text-rendering="optimizeLegibility" transform="translate(32.5997,36.6192)" color-rendering="optimizeQuality" color-interpolation="linearRGB" image-rendering="optimizeQuality"><path d="M8.7344 -6.8281 Q9.6562 -6.4688 10.1406 -5.7969 Q10.625 -5.125 10.625 -4.2812 Q10.625 -3.2656 10.2578 -2.4766 Q9.8906 -1.6875 9.1016 -1.0859 Q8.3125 -0.4844 7.2891 -0.2422 Q6.2656 0 4.75 0 L0.4062 0 L0.5156 -0.4844 Q0.8906 -0.5312 1.0781 -0.6641 Q1.2656 -0.7969 1.3906 -1.0312 Q1.5156 -1.2656 1.625 -1.6016 Q1.7344 -1.9375 1.9375 -2.9062 L3.6094 -10.4375 Q3.8125 -11.4062 3.8125 -11.9688 Q3.8125 -12.4531 3.5938 -12.6406 Q3.375 -12.8281 2.8594 -12.8594 L2.9688 -13.3281 L7.7969 -13.3281 Q9.2656 -13.3281 10.1484 -13.0234 Q11.0312 -12.7188 11.4453 -12.125 Q11.8594 -11.5312 11.8594 -10.625 Q11.8594 -9.3438 11.0781 -8.3906 Q10.2969 -7.4375 8.7656 -6.9375 L8.7344 -6.8281 ZM6.0469 -7.3594 Q7.0625 -7.3594 7.6797 -7.4922 Q8.2969 -7.625 8.6875 -7.8984 Q9.0781 -8.1719 9.3906 -8.5391 Q9.7031 -8.9062 9.8828 -9.4062 Q10.0625 -9.9062 10.0625 -10.5781 Q10.0625 -11 9.9141 -11.3672 Q9.7656 -11.7344 9.4062 -11.9922 Q9.0469 -12.25 8.5859 -12.3594 Q8.125 -12.4688 7.3594 -12.4688 Q6.5 -12.4688 5.7656 -12.4375 L4.6719 -7.3594 L6.0469 -7.3594 ZM3.25 -0.9062 Q4.0156 -0.8594 4.6719 -0.8594 Q6.1562 -0.8594 6.9609 -1.2344 Q7.7656 -1.6094 8.2656 -2.4453 Q8.7656 -3.2812 8.7656 -4.4531 Q8.7656 -5.0938 8.5156 -5.5312 Q8.2656 -5.9688 7.7188 -6.2344 Q7.1719 -6.5 6.2344 -6.5 L4.4688 -6.5 L3.25 -0.9062 Z" stroke="none"/></g><g text-rendering="optimizeLegibility" transform="translate(44.459,41.338)" color-rendering="optimizeQuality" color-interpolation="linearRGB" image-rendering="optimizeQuality"><path d="M6.4531 0 L4.2969 0 L5.1562 -3.4688 Q5.25 -3.8125 5.3281 -4.2109 Q5.4062 -4.6094 5.4062 -4.9375 Q5.4062 -5.4219 5.2344 -5.6328 Q5.0625 -5.8438 4.7031 -5.8438 Q4.4219 -5.8438 4.0938 -5.625 Q3.7656 -5.4062 3.3984 -4.9609 Q3.0312 -4.5156 2.7812 -4.0625 Q2.5312 -3.6094 2.4062 -2.9531 L1.7812 0 L0.5938 0 L1.6406 -4.6719 Q1.6719 -4.8281 1.7266 -5.1328 Q1.7812 -5.4375 1.7812 -5.6406 Q1.7812 -5.8438 1.7266 -5.9453 Q1.6719 -6.0469 1.5312 -6.1016 Q1.3906 -6.1562 1.0469 -6.1719 L1.1406 -6.5312 L2.6875 -6.5938 L3.0781 -6.5938 L2.625 -4.8125 L2.7031 -4.7969 Q3.375 -5.7344 3.9922 -6.1875 Q4.6094 -6.6406 5.2344 -6.6406 Q5.9062 -6.6406 6.2422 -6.2734 Q6.5781 -5.9062 6.5781 -5.2031 Q6.5781 -4.9531 6.5391 -4.6641 Q6.5 -4.375 6.4375 -4.1406 L5.8594 -1.7031 Q5.75 -1.2188 5.75 -0.9375 Q5.75 -0.7188 5.8203 -0.6094 Q5.8906 -0.5 6.0312 -0.4375 Q6.1719 -0.375 6.5 -0.3281 L6.4531 0 Z" stroke="none"/></g><g text-rendering="optimizeLegibility" transform="translate(50.1934,41.338)" color-rendering="optimizeQuality" color-interpolation="linearRGB" image-rendering="optimizeQuality"><path d="M4.375 -3.5312 L4.375 -0.9375 L3.375 -0.9375 L3.375 -3.5312 L0.8438 -3.5312 L0.8438 -4.4844 L3.375 -4.4844 L3.375 -7.0625 L4.375 -7.0625 L4.375 -4.4844 L6.9062 -4.4844 L6.9062 -3.5312 L4.375 -3.5312 Z" stroke="none"/></g><g text-rendering="optimizeLegibility" transform="translate(57.0997,41.338)" color-rendering="optimizeQuality" color-interpolation="linearRGB" image-rendering="optimizeQuality"><path d="M4.75 -1.7812 Q4.75 -1.3906 4.7969 -1.1875 Q4.8438 -0.9844 4.9531 -0.8594 Q5.0625 -0.7344 5.2734 -0.6641 Q5.4844 -0.5938 5.8047 -0.5547 Q6.125 -0.5156 6.6562 -0.5 L6.6562 0 L1.6094 0 L1.6094 -0.5 Q2.3594 -0.5312 2.6875 -0.5938 Q3.0156 -0.6562 3.1875 -0.7656 Q3.3594 -0.875 3.4375 -1.0938 Q3.5156 -1.3125 3.5156 -1.7812 L3.5156 -7.3281 Q3.5156 -7.6094 3.4219 -7.7344 Q3.3281 -7.8594 3.1406 -7.8594 Q2.9219 -7.8594 2.5156 -7.6328 Q2.1094 -7.4062 1.5156 -7 L1.2188 -7.5312 L4.4219 -9.4375 L4.7969 -9.4375 Q4.75 -8.7812 4.75 -7.625 L4.75 -1.7812 Z" stroke="none"/></g><g text-rendering="optimizeLegibility" transform="translate(64.5215,36.6192)" color-rendering="optimizeQuality" color-interpolation="linearRGB" image-rendering="optimizeQuality"><path d="M1.2344 -5.0469 L1.2344 -6.3906 L9.8281 -6.3906 L9.8281 -5.0469 L1.2344 -5.0469 Z" stroke="none"/></g><g text-rendering="optimizeLegibility" transform="translate(76.3497,36.6192)" color-rendering="optimizeQuality" color-interpolation="linearRGB" image-rendering="optimizeQuality"><path d="M8.7344 -6.8281 Q9.6562 -6.4688 10.1406 -5.7969 Q10.625 -5.125 10.625 -4.2812 Q10.625 -3.2656 10.2578 -2.4766 Q9.8906 -1.6875 9.1016 -1.0859 Q8.3125 -0.4844 7.2891 -0.2422 Q6.2656 0 4.75 0 L0.4062 0 L0.5156 -0.4844 Q0.8906 -0.5312 1.0781 -0.6641 Q1.2656 -0.7969 1.3906 -1.0312 Q1.5156 -1.2656 1.625 -1.6016 Q1.7344 -1.9375 1.9375 -2.9062 L3.6094 -10.4375 Q3.8125 -11.4062 3.8125 -11.9688 Q3.8125 -12.4531 3.5938 -12.6406 Q3.375 -12.8281 2.8594 -12.8594 L2.9688 -13.3281 L7.7969 -13.3281 Q9.2656 -13.3281 10.1484 -13.0234 Q11.0312 -12.7188 11.4453 -12.125 Q11.8594 -11.5312 11.8594 -10.625 Q11.8594 -9.3438 11.0781 -8.3906 Q10.2969 -7.4375 8.7656 -6.9375 L8.7344 -6.8281 ZM6.0469 -7.3594 Q7.0625 -7.3594 7.6797 -7.4922 Q8.2969 -7.625 8.6875 -7.8984 Q9.0781 -8.1719 9.3906 -8.5391 Q9.7031 -8.9062 9.8828 -9.4062 Q10.0625 -9.9062 10.0625 -10.5781 Q10.0625 -11 9.9141 -11.3672 Q9.7656 -11.7344 9.4062 -11.9922 Q9.0469 -12.25 8.5859 -12.3594 Q8.125 -12.4688 7.3594 -12.4688 Q6.5 -12.4688 5.7656 -12.4375 L4.6719 -7.3594 L6.0469 -7.3594 ZM3.25 -0.9062 Q4.0156 -0.8594 4.6719 -0.8594 Q6.1562 -0.8594 6.9609 -1.2344 Q7.7656 -1.6094 8.2656 -2.4453 Q8.7656 -3.2812 8.7656 -4.4531 Q8.7656 -5.0938 8.5156 -5.5312 Q8.2656 -5.9688 7.7188 -6.2344 Q7.1719 -6.5 6.2344 -6.5 L4.4688 -6.5 L3.25 -0.9062 Z" stroke="none"/></g><g text-rendering="optimizeLegibility" transform="translate(88.209,41.338)" color-rendering="optimizeQuality" color-interpolation="linearRGB" image-rendering="optimizeQuality"><path d="M6.4531 0 L4.2969 0 L5.1562 -3.4688 Q5.25 -3.8125 5.3281 -4.2109 Q5.4062 -4.6094 5.4062 -4.9375 Q5.4062 -5.4219 5.2344 -5.6328 Q5.0625 -5.8438 4.7031 -5.8438 Q4.4219 -5.8438 4.0938 -5.625 Q3.7656 -5.4062 3.3984 -4.9609 Q3.0312 -4.5156 2.7812 -4.0625 Q2.5312 -3.6094 2.4062 -2.9531 L1.7812 0 L0.5938 0 L1.6406 -4.6719 Q1.6719 -4.8281 1.7266 -5.1328 Q1.7812 -5.4375 1.7812 -5.6406 Q1.7812 -5.8438 1.7266 -5.9453 Q1.6719 -6.0469 1.5312 -6.1016 Q1.3906 -6.1562 1.0469 -6.1719 L1.1406 -6.5312 L2.6875 -6.5938 L3.0781 -6.5938 L2.625 -4.8125 L2.7031 -4.7969 Q3.375 -5.7344 3.9922 -6.1875 Q4.6094 -6.6406 5.2344 -6.6406 Q5.9062 -6.6406 6.2422 -6.2734 Q6.5781 -5.9062 6.5781 -5.2031 Q6.5781 -4.9531 6.5391 -4.6641 Q6.5 -4.375 6.4375 -4.1406 L5.8594 -1.7031 Q5.75 -1.2188 5.75 -0.9375 Q5.75 -0.7188 5.8203 -0.6094 Q5.8906 -0.5 6.0312 -0.4375 Q6.1719 -0.375 6.5 -0.3281 L6.4531 0 Z" stroke="none"/></g><g text-rendering="optimizeLegibility" transform="translate(93.9122,41.338)" color-rendering="optimizeQuality" color-interpolation="linearRGB" image-rendering="optimizeQuality"><path d="M0.875 -3.5312 L0.875 -4.4844 L6.8906 -4.4844 L6.8906 -3.5312 L0.875 -3.5312 Z" stroke="none"/></g><g text-rendering="optimizeLegibility" transform="translate(100.8028,41.338)" color-rendering="optimizeQuality" color-interpolation="linearRGB" image-rendering="optimizeQuality"><path d="M4.75 -1.7812 Q4.75 -1.3906 4.7969 -1.1875 Q4.8438 -0.9844 4.9531 -0.8594 Q5.0625 -0.7344 5.2734 -0.6641 Q5.4844 -0.5938 5.8047 -0.5547 Q6.125 -0.5156 6.6562 -0.5 L6.6562 0 L1.6094 0 L1.6094 -0.5 Q2.3594 -0.5312 2.6875 -0.5938 Q3.0156 -0.6562 3.1875 -0.7656 Q3.3594 -0.875 3.4375 -1.0938 Q3.5156 -1.3125 3.5156 -1.7812 L3.5156 -7.3281 Q3.5156 -7.6094 3.4219 -7.7344 Q3.3281 -7.8594 3.1406 -7.8594 Q2.9219 -7.8594 2.5156 -7.6328 Q2.1094 -7.4062 1.5156 -7 L1.2188 -7.5312 L4.4219 -9.4375 L4.7969 -9.4375 Q4.75 -8.7812 4.75 -7.625 L4.75 -1.7812 Z" stroke="none"/></g><g text-rendering="optimizeLegibility" transform="translate(111.1628,28)" color-rendering="optimizeQuality" color-interpolation="linearRGB" image-rendering="optimizeQuality"><path d="M6.5 -5.7188 L9.4375 -2.7969 L8.4531 -1.8125 L5.5312 -4.7656 L2.625 -1.8125 L1.6406 -2.7969 L4.5781 -5.7188 L1.6406 -8.625 L2.625 -9.6094 L5.5312 -6.6719 L8.4531 -9.6094 L9.4375 -8.6406 L6.5 -5.7188 Z" stroke="none"/></g><g text-rendering="optimizeLegibility" transform="translate(122.6003,28)" color-rendering="optimizeQuality" color-interpolation="linearRGB" image-rendering="optimizeQuality"><path d="M1.5469 -3.0312 Q1.5469 -1.8594 2.0938 -1.2734 Q2.6406 -0.6875 3.8125 -0.6875 Q4.7031 -0.6875 5.3516 -1.0234 Q6 -1.3594 6.3281 -1.9688 Q6.6562 -2.5781 6.6562 -3.4219 Q6.6562 -4.0156 6.4453 -4.4688 Q6.2344 -4.9219 5.8125 -5.3359 Q5.3906 -5.75 4.5938 -6.2969 Q3.875 -6.7812 3.3906 -7.25 Q2.9062 -7.7188 2.625 -8.3047 Q2.3438 -8.8906 2.3438 -9.625 Q2.3438 -10.7656 2.8984 -11.6484 Q3.4531 -12.5312 4.4688 -13.0078 Q5.4844 -13.4844 6.8125 -13.4844 Q7.7188 -13.4844 8.4844 -13.3672 Q9.25 -13.25 10.1719 -12.9531 L9.625 -10.4375 L8.6875 -10.4375 Q8.6562 -11.2656 8.4375 -11.7422 Q8.2188 -12.2188 7.8203 -12.4219 Q7.4219 -12.625 6.7656 -12.625 Q5.9531 -12.625 5.3359 -12.2969 Q4.7188 -11.9688 4.3984 -11.3984 Q4.0781 -10.8281 4.0781 -10.125 Q4.0781 -9.6094 4.25 -9.2109 Q4.4219 -8.8125 4.8125 -8.4219 Q5.2031 -8.0312 5.9375 -7.5312 Q6.8906 -6.8594 7.3984 -6.3438 Q7.9062 -5.8281 8.1406 -5.2422 Q8.375 -4.6562 8.375 -3.875 Q8.375 -2.7031 7.8047 -1.7734 Q7.2344 -0.8438 6.1953 -0.3438 Q5.1562 0.1562 3.8281 0.1562 Q2.9219 0.1562 1.8984 0.0156 Q0.875 -0.125 0.0312 -0.3594 L0.6094 -3.0312 L1.5469 -3.0312 Z" stroke="none"/></g><g text-rendering="optimizeLegibility" transform="translate(132.7722,28)" color-rendering="optimizeQuality" color-interpolation="linearRGB" image-rendering="optimizeQuality"><path d="M7.2188 4.25 Q5.5625 4.25 4.5078 3.75 Q3.4531 3.25 2.8672 2.2344 Q2.2812 1.2188 2.0234 -0.4141 Q1.7656 -2.0469 1.7656 -4.8438 Q1.7656 -7.625 2.0234 -9.2656 Q2.2812 -10.9062 2.8672 -11.9453 Q3.4531 -12.9844 4.5078 -13.5 Q5.5625 -14.0156 7.2188 -14.0156 L7.2188 -13.2188 Q6.5312 -13.2188 6 -13.0938 Q5.4062 -12.9531 4.9844 -12.5625 Q4.5156 -12.1406 4.2344 -11.375 Q3.8906 -10.4688 3.7188 -8.9844 Q3.5469 -7.4062 3.5469 -4.9219 Q3.5469 -2.7188 3.6953 -1.1797 Q3.8438 0.3594 4.1875 1.3281 Q4.4531 2.1562 4.8594 2.6094 Q5.2188 3.0156 5.7188 3.2188 Q6.2969 3.4531 7.2188 3.4531 L7.2188 4.25 ZM13.9688 -8.3438 L11.6406 -8.3438 L11.6406 -2.4375 Q11.6406 -1.7812 11.7031 -1.4531 Q11.7656 -1.125 11.8828 -0.9531 Q12 -0.7812 12.2031 -0.6797 Q12.4062 -0.5781 12.8438 -0.4844 L12.8438 0 L8.8438 0 L8.8438 -0.4844 Q9.2812 -0.5938 9.4688 -0.7031 Q9.6562 -0.8125 9.7578 -0.9766 Q9.8594 -1.1406 9.9062 -1.4531 Q9.9531 -1.7656 9.9531 -2.4375 L9.9531 -8.3438 L8.7656 -8.3438 L8.7656 -8.8438 Q9.1406 -8.9062 9.2656 -8.9375 Q9.3906 -8.9688 9.5 -9.0391 Q9.6094 -9.1094 9.6953 -9.2344 Q9.7812 -9.3594 9.8438 -9.6094 Q9.9062 -9.8594 9.9375 -10.3125 Q10.0312 -11.375 10.3281 -12.0391 Q10.625 -12.7031 11.1953 -13.1719 Q11.7656 -13.6406 12.4141 -13.8359 Q13.0625 -14.0312 13.9531 -14.0312 Q14.7188 -14.0312 15.25 -13.9219 L15.25 -12.1562 L14.2969 -12.1562 Q14.1094 -12.7188 13.8594 -12.9609 Q13.6094 -13.2031 13.1562 -13.2031 Q12.8281 -13.2031 12.6094 -13.1172 Q12.3906 -13.0312 12.2109 -12.8438 Q12.0312 -12.6562 11.8984 -12.3438 Q11.7656 -12.0312 11.7031 -11.5703 Q11.6406 -11.1094 11.6406 -10.3594 L11.6406 -9.3438 L13.9688 -9.3438 L13.9688 -8.3438 ZM19.2031 0.1562 Q17.1719 0.1562 16.1016 -1.0391 Q15.0312 -2.2344 15.0312 -4.5781 Q15.0312 -6.1875 15.5938 -7.3047 Q16.1562 -8.4219 17.1328 -8.9609 Q18.1094 -9.5 19.3594 -9.5 Q21.4375 -9.5 22.5156 -8.2891 Q23.5938 -7.0781 23.5938 -4.7969 Q23.5938 -3.1719 23.0547 -2.0625 Q22.5156 -0.9531 21.5312 -0.3984 Q20.5469 0.1562 19.2031 0.1562 ZM16.875 -4.7812 Q16.875 -2.7812 17.5156 -1.6953 Q18.1562 -0.6094 19.3438 -0.6094 Q20 -0.6094 20.4609 -0.9297 Q20.9219 -1.25 21.2031 -1.7891 Q21.4844 -2.3281 21.6172 -3.0312 Q21.75 -3.7344 21.75 -4.5156 Q21.75 -5.9531 21.4297 -6.8984 Q21.1094 -7.8438 20.5625 -8.2891 Q20.0156 -8.7344 19.3125 -8.7344 Q18.125 -8.7344 17.5 -7.7109 Q16.875 -6.6875 16.875 -4.7812 ZM28.5781 -7.7188 L28.7188 -7.6875 Q29.2656 -8.3438 29.7188 -8.7188 Q30.1719 -9.0938 30.7031 -9.2969 Q31.2344 -9.5 31.9219 -9.5 Q32.4844 -9.5 32.9375 -9.4375 L32.9375 -7.2031 L31.8438 -7.2031 Q31.6094 -7.7188 31.3438 -7.9609 Q31.0781 -8.2031 30.6094 -8.2031 Q30.2656 -8.2031 29.9219 -8 Q29.5781 -7.7969 29.25 -7.4062 Q28.9219 -7.0156 28.8047 -6.6719 Q28.6875 -6.3281 28.6875 -5.8594 L28.6875 -2.4375 Q28.6875 -1.5469 28.7891 -1.2109 Q28.8906 -0.875 29.1406 -0.7188 Q29.3906 -0.5625 29.8906 -0.4844 L29.8906 0 L25.9531 0 L25.9531 -0.4844 Q26.3281 -0.5938 26.4922 -0.6797 Q26.6562 -0.7656 26.7734 -0.9219 Q26.8906 -1.0781 26.9453 -1.4062 Q27 -1.7344 27 -2.4062 L27 -6.6719 Q27 -7.2969 26.9844 -7.6797 Q26.9688 -8.0625 26.8516 -8.2891 Q26.7344 -8.5156 26.4922 -8.625 Q26.25 -8.7344 25.8125 -8.8125 L25.8125 -9.3281 L28.0938 -9.4219 L28.6875 -9.4219 L28.5781 -7.7188 ZM40.7344 -13.1719 L40.7344 -11.2656 L38.9375 -11.2656 L38.9375 -13.1719 L40.7344 -13.1719 ZM37.9531 -0.4844 Q38.3281 -0.5938 38.4922 -0.6797 Q38.6562 -0.7656 38.7656 -0.9219 Q38.875 -1.0781 38.9375 -1.4062 Q39 -1.7344 39 -2.4062 L39 -6.6719 Q39 -7.2969 38.9844 -7.6797 Q38.9688 -8.0625 38.8516 -8.2891 Q38.7344 -8.5156 38.4922 -8.625 Q38.25 -8.7344 37.8125 -8.8125 L37.8125 -9.3438 L40.0938 -9.4219 L40.6875 -9.4219 L40.6875 -2.4375 Q40.6875 -1.6094 40.7656 -1.2812 Q40.8438 -0.9531 41.0625 -0.7812 Q41.2812 -0.6094 41.7812 -0.4844 L41.7812 0 L37.9531 0 L37.9531 -0.4844 ZM53.4531 0 L49.6094 0 L49.6094 -0.4844 Q50 -0.5938 50.1641 -0.6797 Q50.3281 -0.7656 50.4375 -0.9219 Q50.5469 -1.0781 50.6094 -1.4062 Q50.6719 -1.7344 50.6719 -2.4062 L50.6719 -4.9688 Q50.6719 -5.6406 50.6328 -6.2031 Q50.5938 -6.7656 50.5 -7.1172 Q50.4062 -7.4688 50.2812 -7.6719 Q50.1562 -7.875 49.9688 -8.0156 Q49.7812 -8.1562 49.5469 -8.2422 Q49.3125 -8.3281 48.9375 -8.3281 Q48.5625 -8.3281 48.2188 -8.1719 Q47.875 -8.0156 47.4609 -7.6484 Q47.0469 -7.2812 46.8672 -6.9141 Q46.6875 -6.5469 46.6875 -6.0781 L46.6875 -2.4375 Q46.6875 -1.6094 46.7656 -1.2812 Q46.8438 -0.9531 47.0625 -0.7812 Q47.2812 -0.6094 47.7812 -0.4844 L47.7812 0 L43.9531 0 L43.9531 -0.4844 Q44.3281 -0.5938 44.4922 -0.6797 Q44.6562 -0.7656 44.7656 -0.9219 Q44.875 -1.0781 44.9375 -1.4062 Q45 -1.7344 45 -2.4062 L45 -6.6719 Q45 -7.2969 44.9844 -7.6797 Q44.9688 -8.0625 44.8516 -8.2891 Q44.7344 -8.5156 44.4922 -8.625 Q44.25 -8.7344 43.8125 -8.8125 L43.8125 -9.3438 L46.0938 -9.4219 L46.6875 -9.4219 L46.5781 -7.8281 L46.7188 -7.7969 Q47.4375 -8.5312 47.8828 -8.8438 Q48.3281 -9.1562 48.7812 -9.3281 Q49.2344 -9.5 49.75 -9.5 Q50.2812 -9.5 50.6953 -9.375 Q51.1094 -9.25 51.4219 -8.9922 Q51.7344 -8.7344 51.9453 -8.3594 Q52.1562 -7.9844 52.2578 -7.4609 Q52.3594 -6.9375 52.3594 -6.125 L52.3594 -2.4375 Q52.3594 -1.7656 52.3984 -1.4609 Q52.4375 -1.1562 52.5312 -0.9922 Q52.625 -0.8281 52.8125 -0.7188 Q53 -0.6094 53.4531 -0.4844 L53.4531 0 ZM54.3594 -8.8438 Q54.8438 -8.9219 55.1484 -9.1172 Q55.4531 -9.3125 55.625 -9.625 Q55.7969 -9.9375 55.8984 -10.3984 Q56 -10.8594 56.0938 -11.75 L57.4844 -11.75 L57.4844 -9.3438 L60.6406 -9.3438 L60.6406 -8.3438 L57.4844 -8.3438 L57.4844 -4 Q57.4844 -3.0625 57.5625 -2.5 Q57.6406 -1.9375 57.8594 -1.6172 Q58.0781 -1.2969 58.3516 -1.1641 Q58.625 -1.0312 59.0469 -1.0312 Q59.4375 -1.0312 59.7812 -1.1875 Q60.125 -1.3438 60.4531 -1.6562 L60.8906 -1.125 Q60.2031 -0.4531 59.5859 -0.1484 Q58.9688 0.1562 58.2969 0.1562 Q57.0312 0.1562 56.4219 -0.5938 Q55.8125 -1.3438 55.8125 -2.9375 L55.8125 -8.3438 L54.3594 -8.3438 L54.3594 -8.8438 ZM69.75 -1.6562 Q69.125 -1 68.6016 -0.6328 Q68.0781 -0.2656 67.4531 -0.0547 Q66.8281 0.1562 66.0781 0.1562 Q64.0625 0.1562 63.0391 -1.0469 Q62.0156 -2.25 62.0156 -4.6094 Q62.0156 -6.0625 62.5391 -7.1797 Q63.0625 -8.2969 64.0312 -8.8984 Q65 -9.5 66.25 -9.5 Q67.2344 -9.5 67.9297 -9.1875 Q68.625 -8.875 69.0391 -8.3359 Q69.4531 -7.7969 69.6875 -6.9688 Q69.9219 -6.1406 69.9531 -4.8125 L63.7969 -4.8125 L63.7969 -4.6406 Q63.7969 -3.4844 64.0547 -2.7031 Q64.3125 -1.9219 64.9062 -1.4766 Q65.5 -1.0312 66.4375 -1.0312 Q67.2344 -1.0312 67.875 -1.3281 Q68.5156 -1.625 69.1562 -2.2969 L69.75 -1.6562 ZM68.1094 -5.625 Q68.0469 -6.6875 67.8438 -7.3516 Q67.6406 -8.0156 67.2344 -8.375 Q66.8281 -8.7344 66.1562 -8.7344 Q65.1562 -8.7344 64.5547 -7.9297 Q63.9531 -7.125 63.8438 -5.625 L68.1094 -5.625 ZM74.5781 -7.7188 L74.7188 -7.6875 Q75.2656 -8.3438 75.7188 -8.7188 Q76.1719 -9.0938 76.7031 -9.2969 Q77.2344 -9.5 77.9219 -9.5 Q78.4844 -9.5 78.9375 -9.4375 L78.9375 -7.2031 L77.8438 -7.2031 Q77.6094 -7.7188 77.3438 -7.9609 Q77.0781 -8.2031 76.6094 -8.2031 Q76.2656 -8.2031 75.9219 -8 Q75.5781 -7.7969 75.25 -7.4062 Q74.9219 -7.0156 74.8047 -6.6719 Q74.6875 -6.3281 74.6875 -5.8594 L74.6875 -2.4375 Q74.6875 -1.5469 74.7891 -1.2109 Q74.8906 -0.875 75.1406 -0.7188 Q75.3906 -0.5625 75.8906 -0.4844 L75.8906 0 L71.9531 0 L71.9531 -0.4844 Q72.3281 -0.5938 72.4922 -0.6797 Q72.6562 -0.7656 72.7734 -0.9219 Q72.8906 -1.0781 72.9453 -1.4062 Q73 -1.7344 73 -2.4062 L73 -6.6719 Q73 -7.2969 72.9844 -7.6797 Q72.9688 -8.0625 72.8516 -8.2891 Q72.7344 -8.5156 72.4922 -8.625 Q72.25 -8.7344 71.8125 -8.8125 L71.8125 -9.3281 L74.0938 -9.4219 L74.6875 -9.4219 L74.5781 -7.7188 ZM82.5781 -7.8281 L82.7188 -7.7969 Q83.3125 -8.375 83.6875 -8.6719 Q84.0625 -8.9688 84.4141 -9.1562 Q84.7656 -9.3438 85.0703 -9.4219 Q85.375 -9.5 85.7031 -9.5 Q86.6719 -9.5 87.2891 -9.0469 Q87.9062 -8.5938 88.1406 -7.6719 Q88.875 -8.4062 89.3281 -8.7578 Q89.7812 -9.1094 90.2578 -9.3047 Q90.7344 -9.5 91.2812 -9.5 Q91.9375 -9.5 92.4062 -9.3047 Q92.875 -9.1094 93.2031 -8.7188 Q93.5312 -8.3281 93.6797 -7.7266 Q93.8281 -7.125 93.8281 -6.125 L93.8281 -2.4375 Q93.8281 -1.7031 93.8828 -1.4219 Q93.9375 -1.1406 94.0312 -0.9844 Q94.125 -0.8281 94.3047 -0.7109 Q94.4844 -0.5938 94.9219 -0.4844 L94.9219 0 L91.0938 0 L91.0938 -0.4844 Q91.4688 -0.5938 91.6328 -0.6797 Q91.7969 -0.7656 91.9141 -0.9219 Q92.0312 -1.0781 92.0938 -1.4062 Q92.1562 -1.7344 92.1562 -2.4062 L92.1562 -4.9688 Q92.1562 -5.7969 92.1094 -6.3359 Q92.0625 -6.875 91.9688 -7.1953 Q91.875 -7.5156 91.75 -7.7031 Q91.625 -7.8906 91.4531 -8.0312 Q91.2812 -8.1719 91.0625 -8.25 Q90.8438 -8.3281 90.4688 -8.3281 Q90.0781 -8.3281 89.7422 -8.1719 Q89.4062 -8.0156 89.0078 -7.6406 Q88.6094 -7.2656 88.4375 -6.8906 Q88.2656 -6.5156 88.2656 -6 L88.2656 -2.4375 Q88.2656 -1.7031 88.3125 -1.4219 Q88.3594 -1.1406 88.4531 -0.9844 Q88.5469 -0.8281 88.7266 -0.7109 Q88.9062 -0.5938 89.3594 -0.4844 L89.3594 0 L85.5156 0 L85.5156 -0.4844 Q85.8906 -0.5938 86.0625 -0.6797 Q86.2344 -0.7656 86.3438 -0.9219 Q86.4531 -1.0781 86.5156 -1.4062 Q86.5781 -1.7344 86.5781 -2.4062 L86.5781 -4.9688 Q86.5781 -5.8281 86.5312 -6.375 Q86.4844 -6.9219 86.3828 -7.2578 Q86.2812 -7.5938 86.1172 -7.7969 Q85.9531 -8 85.7891 -8.1094 Q85.625 -8.2188 85.3984 -8.2734 Q85.1719 -8.3281 84.8906 -8.3281 Q84.4844 -8.3281 84.1328 -8.1406 Q83.7812 -7.9531 83.4141 -7.6172 Q83.0469 -7.2812 82.8672 -6.9062 Q82.6875 -6.5312 82.6875 -6.1094 L82.6875 -2.4375 Q82.6875 -1.8906 82.7109 -1.5938 Q82.7344 -1.2969 82.8047 -1.1328 Q82.875 -0.9688 82.9688 -0.8672 Q83.0625 -0.7656 83.2422 -0.6719 Q83.4219 -0.5781 83.7812 -0.4844 L83.7812 0 L79.9531 0 L79.9531 -0.4844 Q80.3281 -0.5938 80.4922 -0.6797 Q80.6562 -0.7656 80.7734 -0.9219 Q80.8906 -1.0781 80.9453 -1.4062 Q81 -1.7344 81 -2.4062 L81 -6.6719 Q81 -7.2969 80.9844 -7.6797 Q80.9688 -8.0625 80.8516 -8.2891 Q80.7344 -8.5156 80.4922 -8.625 Q80.25 -8.7344 79.8125 -8.8125 L79.8125 -9.3438 L82.0938 -9.4219 L82.6875 -9.4219 L82.5781 -7.8281 ZM104.75 -1.6562 Q104.125 -1 103.6016 -0.6328 Q103.0781 -0.2656 102.4531 -0.0547 Q101.8281 0.1562 101.0781 0.1562 Q99.0625 0.1562 98.0391 -1.0469 Q97.0156 -2.25 97.0156 -4.6094 Q97.0156 -6.0625 97.5391 -7.1797 Q98.0625 -8.2969 99.0312 -8.8984 Q100 -9.5 101.25 -9.5 Q102.2344 -9.5 102.9297 -9.1875 Q103.625 -8.875 104.0391 -8.3359 Q104.4531 -7.7969 104.6875 -6.9688 Q104.9219 -6.1406 104.9531 -4.8125 L98.7969 -4.8125 L98.7969 -4.6406 Q98.7969 -3.4844 99.0547 -2.7031 Q99.3125 -1.9219 99.9062 -1.4766 Q100.5 -1.0312 101.4375 -1.0312 Q102.2344 -1.0312 102.875 -1.3281 Q103.5156 -1.625 104.1562 -2.2969 L104.75 -1.6562 ZM103.1094 -5.625 Q103.0469 -6.6875 102.8438 -7.3516 Q102.6406 -8.0156 102.2344 -8.375 Q101.8281 -8.7344 101.1562 -8.7344 Q100.1562 -8.7344 99.5547 -7.9297 Q98.9531 -7.125 98.8438 -5.625 L103.1094 -5.625 ZM113.5469 -10.6094 Q113.5469 -11.5469 113.5312 -11.9219 Q113.5156 -12.2969 113.4531 -12.5547 Q113.3906 -12.8125 113.2734 -12.9609 Q113.1562 -13.1094 112.9688 -13.1953 Q112.7812 -13.2812 112.2812 -13.375 L112.2812 -13.875 L114.6406 -13.9688 L115.2188 -13.9688 L115.2188 -2.6719 Q115.2188 -1.9062 115.25 -1.5781 Q115.2812 -1.25 115.375 -1.0547 Q115.4688 -0.8594 115.6797 -0.7344 Q115.8906 -0.6094 116.4219 -0.5156 L116.4219 0 L114.1094 0.0938 L113.5312 0.0938 L113.6406 -1.5 L113.5 -1.5469 Q112.8906 -0.8906 112.4375 -0.5625 Q111.9844 -0.2344 111.4688 -0.0391 Q110.9531 0.1562 110.3594 0.1562 Q108.7656 0.1562 107.8984 -1.0625 Q107.0312 -2.2812 107.0312 -4.5781 Q107.0312 -6.1719 107.5938 -7.2891 Q108.1562 -8.4062 109.1172 -8.9531 Q110.0781 -9.5 111.2812 -9.5 Q111.9219 -9.5 112.4531 -9.3984 Q112.9844 -9.2969 113.5469 -9.0625 L113.5469 -10.6094 ZM113.5469 -5.7969 Q113.5469 -6.5469 113.4766 -7.0078 Q113.4062 -7.4688 113.2422 -7.7812 Q113.0781 -8.0938 112.8047 -8.3125 Q112.5312 -8.5312 112.2031 -8.625 Q111.875 -8.7188 111.4219 -8.7188 Q110.1719 -8.7188 109.5156 -7.7188 Q108.8594 -6.7188 108.8594 -4.8438 Q108.8594 -2.9688 109.3984 -1.9922 Q109.9375 -1.0156 111.0312 -1.0156 Q111.4531 -1.0156 111.7422 -1.0859 Q112.0312 -1.1562 112.3047 -1.3203 Q112.5781 -1.4844 112.8594 -1.7656 Q113.1406 -2.0469 113.2734 -2.2812 Q113.4062 -2.5156 113.4766 -2.8203 Q113.5469 -3.125 113.5469 -3.6094 L113.5469 -5.7969 ZM120.7344 -13.1719 L120.7344 -11.2656 L118.9375 -11.2656 L118.9375 -13.1719 L120.7344 -13.1719 ZM117.9531 -0.4844 Q118.3281 -0.5938 118.4922 -0.6797 Q118.6562 -0.7656 118.7656 -0.9219 Q118.875 -1.0781 118.9375 -1.4062 Q119 -1.7344 119 -2.4062 L119 -6.6719 Q119 -7.2969 118.9844 -7.6797 Q118.9688 -8.0625 118.8516 -8.2891 Q118.7344 -8.5156 118.4922 -8.625 Q118.25 -8.7344 117.8125 -8.8125 L117.8125 -9.3438 L120.0938 -9.4219 L120.6875 -9.4219 L120.6875 -2.4375 Q120.6875 -1.6094 120.7656 -1.2812 Q120.8438 -0.9531 121.0625 -0.7812 Q121.2812 -0.6094 121.7812 -0.4844 L121.7812 0 L117.9531 0 L117.9531 -0.4844 ZM129.5938 -1.3906 L129.4531 -1.4375 Q128.5938 -0.5625 127.8516 -0.2031 Q127.1094 0.1562 126.2656 0.1562 Q125.5156 0.1562 124.9531 -0.1328 Q124.3906 -0.4219 124.0859 -0.9453 Q123.7812 -1.4688 123.7812 -2.1562 Q123.7812 -3.5781 125.1953 -4.3516 Q126.6094 -5.125 129.4219 -5.25 L129.4219 -5.8906 Q129.4219 -6.9062 129.2266 -7.4922 Q129.0312 -8.0781 128.6172 -8.3516 Q128.2031 -8.625 127.5 -8.625 Q126.7344 -8.625 126.2656 -8.2266 Q125.7969 -7.8281 125.5625 -7.0156 L124.2969 -7.0156 L124.2969 -8.2969 Q125.2344 -8.7812 125.8594 -9.0078 Q126.4844 -9.2344 127.1094 -9.3672 Q127.7344 -9.5 128.375 -9.5 Q129.3438 -9.5 129.9297 -9.1953 Q130.5156 -8.8906 130.8047 -8.2578 Q131.0938 -7.625 131.0938 -6.3438 L131.0938 -2.9375 Q131.0938 -2.2188 131.1016 -1.9219 Q131.1094 -1.625 131.1641 -1.3672 Q131.2188 -1.1094 131.3125 -0.9609 Q131.4062 -0.8125 131.6016 -0.7031 Q131.7969 -0.5938 132.2188 -0.4844 L132.2188 0 L129.5469 0 L129.5938 -1.3906 ZM129.4219 -4.4531 Q127.4375 -4.4375 126.4531 -3.9297 Q125.4688 -3.4219 125.4688 -2.3906 Q125.4688 -1.8438 125.6953 -1.5156 Q125.9219 -1.1875 126.2656 -1.0703 Q126.6094 -0.9531 127.0781 -0.9531 Q127.7344 -0.9531 128.2812 -1.2734 Q128.8281 -1.5938 129.125 -2.0938 Q129.4219 -2.5938 129.4219 -3.0781 L129.4219 -4.4531 ZM133.3594 -8.8438 Q133.8438 -8.9219 134.1484 -9.1172 Q134.4531 -9.3125 134.625 -9.625 Q134.7969 -9.9375 134.8984 -10.3984 Q135 -10.8594 135.0938 -11.75 L136.4844 -11.75 L136.4844 -9.3438 L139.6406 -9.3438 L139.6406 -8.3438 L136.4844 -8.3438 L136.4844 -4 Q136.4844 -3.0625 136.5625 -2.5 Q136.6406 -1.9375 136.8594 -1.6172 Q137.0781 -1.2969 137.3516 -1.1641 Q137.625 -1.0312 138.0469 -1.0312 Q138.4375 -1.0312 138.7812 -1.1875 Q139.125 -1.3438 139.4531 -1.6562 L139.8906 -1.125 Q139.2031 -0.4531 138.5859 -0.1484 Q137.9688 0.1562 137.2969 0.1562 Q136.0312 0.1562 135.4219 -0.5938 Q134.8125 -1.3438 134.8125 -2.9375 L134.8125 -8.3438 L133.3594 -8.3438 L133.3594 -8.8438 ZM148.75 -1.6562 Q148.125 -1 147.6016 -0.6328 Q147.0781 -0.2656 146.4531 -0.0547 Q145.8281 0.1562 145.0781 0.1562 Q143.0625 0.1562 142.0391 -1.0469 Q141.0156 -2.25 141.0156 -4.6094 Q141.0156 -6.0625 141.5391 -7.1797 Q142.0625 -8.2969 143.0312 -8.8984 Q144 -9.5 145.25 -9.5 Q146.2344 -9.5 146.9297 -9.1875 Q147.625 -8.875 148.0391 -8.3359 Q148.4531 -7.7969 148.6875 -6.9688 Q148.9219 -6.1406 148.9531 -4.8125 L142.7969 -4.8125 L142.7969 -4.6406 Q142.7969 -3.4844 143.0547 -2.7031 Q143.3125 -1.9219 143.9062 -1.4766 Q144.5 -1.0312 145.4375 -1.0312 Q146.2344 -1.0312 146.875 -1.3281 Q147.5156 -1.625 148.1562 -2.2969 L148.75 -1.6562 ZM147.1094 -5.625 Q147.0469 -6.6875 146.8438 -7.3516 Q146.6406 -8.0156 146.2344 -8.375 Q145.8281 -8.7344 145.1562 -8.7344 Q144.1562 -8.7344 143.5547 -7.9297 Q142.9531 -7.125 142.8438 -5.625 L147.1094 -5.625 ZM157.5938 -0.2969 L157.5938 1.7656 Q157.5938 2.4062 157.6406 2.7188 Q157.6875 3.0312 157.7969 3.2109 Q157.9062 3.3906 158.1172 3.5078 Q158.3281 3.625 158.7969 3.7188 L158.7969 4.2031 L154.8125 4.2031 L154.8125 3.7188 Q155.1562 3.625 155.3828 3.5234 Q155.6094 3.4219 155.7266 3.2188 Q155.8438 3.0156 155.8828 2.6719 Q155.9219 2.3281 155.9219 1.7656 L155.9219 -6.6094 Q155.9219 -7.3125 155.8984 -7.6094 Q155.875 -7.9062 155.8203 -8.1016 Q155.7656 -8.2969 155.6484 -8.4297 Q155.5312 -8.5625 155.3438 -8.6484 Q155.1562 -8.7344 154.7188 -8.8125 L154.7188 -9.3438 L157.0156 -9.4219 L157.6094 -9.4219 L157.4844 -7.8281 L157.625 -7.7969 Q158.2344 -8.4062 158.5859 -8.6875 Q158.9375 -8.9688 159.3125 -9.1562 Q159.6875 -9.3438 160.0312 -9.4219 Q160.375 -9.5 160.7656 -9.5 Q162.375 -9.5 163.2422 -8.2891 Q164.1094 -7.0781 164.1094 -4.75 Q164.1094 -3.1406 163.6172 -2.0469 Q163.125 -0.9531 162.1953 -0.3984 Q161.2656 0.1562 159.9844 0.1562 Q159.25 0.1562 158.6641 0.0312 Q158.0781 -0.0938 157.5938 -0.2969 ZM157.5938 -3.5156 Q157.5938 -2.5781 157.7109 -2.0703 Q157.8281 -1.5625 158.125 -1.2422 Q158.4219 -0.9219 158.8281 -0.7656 Q159.2344 -0.6094 159.9062 -0.6094 Q161.0781 -0.6094 161.6719 -1.5938 Q162.2656 -2.5781 162.2656 -4.5 Q162.2656 -8.3281 160.0312 -8.3281 Q159.4844 -8.3281 159.0938 -8.1562 Q158.7031 -7.9844 158.3125 -7.6016 Q157.9219 -7.2188 157.7578 -6.8594 Q157.5938 -6.5 157.5938 -6.0938 L157.5938 -3.5156 ZM171.5938 -1.3906 L171.4531 -1.4375 Q170.5938 -0.5625 169.8516 -0.2031 Q169.1094 0.1562 168.2656 0.1562 Q167.5156 0.1562 166.9531 -0.1328 Q166.3906 -0.4219 166.0859 -0.9453 Q165.7812 -1.4688 165.7812 -2.1562 Q165.7812 -3.5781 167.1953 -4.3516 Q168.6094 -5.125 171.4219 -5.25 L171.4219 -5.8906 Q171.4219 -6.9062 171.2266 -7.4922 Q171.0312 -8.0781 170.6172 -8.3516 Q170.2031 -8.625 169.5 -8.625 Q168.7344 -8.625 168.2656 -8.2266 Q167.7969 -7.8281 167.5625 -7.0156 L166.2969 -7.0156 L166.2969 -8.2969 Q167.2344 -8.7812 167.8594 -9.0078 Q168.4844 -9.2344 169.1094 -9.3672 Q169.7344 -9.5 170.375 -9.5 Q171.3438 -9.5 171.9297 -9.1953 Q172.5156 -8.8906 172.8047 -8.2578 Q173.0938 -7.625 173.0938 -6.3438 L173.0938 -2.9375 Q173.0938 -2.2188 173.1016 -1.9219 Q173.1094 -1.625 173.1641 -1.3672 Q173.2188 -1.1094 173.3125 -0.9609 Q173.4062 -0.8125 173.6016 -0.7031 Q173.7969 -0.5938 174.2188 -0.4844 L174.2188 0 L171.5469 0 L171.5938 -1.3906 ZM171.4219 -4.4531 Q169.4375 -4.4375 168.4531 -3.9297 Q167.4688 -3.4219 167.4688 -2.3906 Q167.4688 -1.8438 167.6953 -1.5156 Q167.9219 -1.1875 168.2656 -1.0703 Q168.6094 -0.9531 169.0781 -0.9531 Q169.7344 -0.9531 170.2812 -1.2734 Q170.8281 -1.5938 171.125 -2.0938 Q171.4219 -2.5938 171.4219 -3.0781 L171.4219 -4.4531 ZM175.3594 -8.8438 Q175.8438 -8.9219 176.1484 -9.1172 Q176.4531 -9.3125 176.625 -9.625 Q176.7969 -9.9375 176.8984 -10.3984 Q177 -10.8594 177.0938 -11.75 L178.4844 -11.75 L178.4844 -9.3438 L181.6406 -9.3438 L181.6406 -8.3438 L178.4844 -8.3438 L178.4844 -4 Q178.4844 -3.0625 178.5625 -2.5 Q178.6406 -1.9375 178.8594 -1.6172 Q179.0781 -1.2969 179.3516 -1.1641 Q179.625 -1.0312 180.0469 -1.0312 Q180.4375 -1.0312 180.7812 -1.1875 Q181.125 -1.3438 181.4531 -1.6562 L181.8906 -1.125 Q181.2031 -0.4531 180.5859 -0.1484 Q179.9688 0.1562 179.2969 0.1562 Q178.0312 0.1562 177.4219 -0.5938 Q176.8125 -1.3438 176.8125 -2.9375 L176.8125 -8.3438 L175.3594 -8.3438 L175.3594 -8.8438 ZM185.5625 -7.7969 L185.6094 -7.7969 Q186.3594 -8.5625 186.8047 -8.875 Q187.25 -9.1875 187.6875 -9.3438 Q188.125 -9.5 188.625 -9.5 Q189.1562 -9.5 189.5781 -9.3672 Q190 -9.2344 190.3203 -8.9766 Q190.6406 -8.7188 190.8359 -8.3438 Q191.0312 -7.9688 191.1328 -7.4453 Q191.2344 -6.9219 191.2344 -6.125 L191.2344 -2.4375 Q191.2344 -1.5938 191.3047 -1.2891 Q191.375 -0.9844 191.5625 -0.8125 Q191.75 -0.6406 192.3281 -0.4844 L192.3281 0 L188.4844 0 L188.4844 -0.4844 Q188.8594 -0.5938 189.0312 -0.6797 Q189.2031 -0.7656 189.3125 -0.9219 Q189.4219 -1.0781 189.4844 -1.4062 Q189.5469 -1.7344 189.5469 -2.4062 L189.5469 -4.9688 Q189.5469 -6.2656 189.4141 -6.9531 Q189.2812 -7.6406 188.8984 -7.9844 Q188.5156 -8.3281 187.8281 -8.3281 Q187.4375 -8.3281 187.125 -8.1875 Q186.8125 -8.0469 186.3984 -7.6953 Q185.9844 -7.3438 185.7734 -6.9766 Q185.5625 -6.6094 185.5625 -6.1875 L185.5625 -2.4375 Q185.5625 -1.7812 185.6016 -1.5 Q185.6406 -1.2188 185.7344 -1.0234 Q185.8281 -0.8281 186.0312 -0.7109 Q186.2344 -0.5938 186.6562 -0.4844 L186.6562 0 L182.7812 0 L182.7812 -0.4844 Q183.2188 -0.5938 183.3984 -0.7031 Q183.5781 -0.8125 183.6797 -0.9766 Q183.7812 -1.1406 183.8359 -1.4531 Q183.8906 -1.7656 183.8906 -2.4375 L183.8906 -10.6094 Q183.8906 -11.5469 183.875 -11.9219 Q183.8594 -12.2969 183.7969 -12.5547 Q183.7344 -12.8125 183.6172 -12.9609 Q183.5 -13.1094 183.3125 -13.1953 Q183.125 -13.2812 182.625 -13.375 L182.625 -13.875 L184.9844 -13.9688 L185.5625 -13.9688 L185.5625 -7.7969 ZM200.5938 -0.2969 L200.5938 1.7656 Q200.5938 2.4062 200.6406 2.7188 Q200.6875 3.0312 200.7969 3.2109 Q200.9062 3.3906 201.1172 3.5078 Q201.3281 3.625 201.7969 3.7188 L201.7969 4.2031 L197.8125 4.2031 L197.8125 3.7188 Q198.1562 3.625 198.3828 3.5234 Q198.6094 3.4219 198.7266 3.2188 Q198.8438 3.0156 198.8828 2.6719 Q198.9219 2.3281 198.9219 1.7656 L198.9219 -6.6094 Q198.9219 -7.3125 198.8984 -7.6094 Q198.875 -7.9062 198.8203 -8.1016 Q198.7656 -8.2969 198.6484 -8.4297 Q198.5312 -8.5625 198.3438 -8.6484 Q198.1562 -8.7344 197.7188 -8.8125 L197.7188 -9.3438 L200.0156 -9.4219 L200.6094 -9.4219 L200.4844 -7.8281 L200.625 -7.7969 Q201.2344 -8.4062 201.5859 -8.6875 Q201.9375 -8.9688 202.3125 -9.1562 Q202.6875 -9.3438 203.0312 -9.4219 Q203.375 -9.5 203.7656 -9.5 Q205.375 -9.5 206.2422 -8.2891 Q207.1094 -7.0781 207.1094 -4.75 Q207.1094 -3.1406 206.6172 -2.0469 Q206.125 -0.9531 205.1953 -0.3984 Q204.2656 0.1562 202.9844 0.1562 Q202.25 0.1562 201.6641 0.0312 Q201.0781 -0.0938 200.5938 -0.2969 ZM200.5938 -3.5156 Q200.5938 -2.5781 200.7109 -2.0703 Q200.8281 -1.5625 201.125 -1.2422 Q201.4219 -0.9219 201.8281 -0.7656 Q202.2344 -0.6094 202.9062 -0.6094 Q204.0781 -0.6094 204.6719 -1.5938 Q205.2656 -2.5781 205.2656 -4.5 Q205.2656 -8.3281 203.0312 -8.3281 Q202.4844 -8.3281 202.0938 -8.1562 Q201.7031 -7.9844 201.3125 -7.6016 Q200.9219 -7.2188 200.7578 -6.8594 Q200.5938 -6.5 200.5938 -6.0938 L200.5938 -3.5156 ZM213.2031 0.1562 Q211.1719 0.1562 210.1016 -1.0391 Q209.0312 -2.2344 209.0312 -4.5781 Q209.0312 -6.1875 209.5938 -7.3047 Q210.1562 -8.4219 211.1328 -8.9609 Q212.1094 -9.5 213.3594 -9.5 Q215.4375 -9.5 216.5156 -8.2891 Q217.5938 -7.0781 217.5938 -4.7969 Q217.5938 -3.1719 217.0547 -2.0625 Q216.5156 -0.9531 215.5312 -0.3984 Q214.5469 0.1562 213.2031 0.1562 ZM210.875 -4.7812 Q210.875 -2.7812 211.5156 -1.6953 Q212.1562 -0.6094 213.3438 -0.6094 Q214 -0.6094 214.4609 -0.9297 Q214.9219 -1.25 215.2031 -1.7891 Q215.4844 -2.3281 215.6172 -3.0312 Q215.75 -3.7344 215.75 -4.5156 Q215.75 -5.9531 215.4297 -6.8984 Q215.1094 -7.8438 214.5625 -8.2891 Q214.0156 -8.7344 213.3125 -8.7344 Q212.125 -8.7344 211.5 -7.7109 Q210.875 -6.6875 210.875 -4.7812 ZM222.7344 -13.1719 L222.7344 -11.2656 L220.9375 -11.2656 L220.9375 -13.1719 L222.7344 -13.1719 ZM219.9531 -0.4844 Q220.3281 -0.5938 220.4922 -0.6797 Q220.6562 -0.7656 220.7656 -0.9219 Q220.875 -1.0781 220.9375 -1.4062 Q221 -1.7344 221 -2.4062 L221 -6.6719 Q221 -7.2969 220.9844 -7.6797 Q220.9688 -8.0625 220.8516 -8.2891 Q220.7344 -8.5156 220.4922 -8.625 Q220.25 -8.7344 219.8125 -8.8125 L219.8125 -9.3438 L222.0938 -9.4219 L222.6875 -9.4219 L222.6875 -2.4375 Q222.6875 -1.6094 222.7656 -1.2812 Q222.8438 -0.9531 223.0625 -0.7812 Q223.2812 -0.6094 223.7812 -0.4844 L223.7812 0 L219.9531 0 L219.9531 -0.4844 ZM235.4531 0 L231.6094 0 L231.6094 -0.4844 Q232 -0.5938 232.1641 -0.6797 Q232.3281 -0.7656 232.4375 -0.9219 Q232.5469 -1.0781 232.6094 -1.4062 Q232.6719 -1.7344 232.6719 -2.4062 L232.6719 -4.9688 Q232.6719 -5.6406 232.6328 -6.2031 Q232.5938 -6.7656 232.5 -7.1172 Q232.4062 -7.4688 232.2812 -7.6719 Q232.1562 -7.875 231.9688 -8.0156 Q231.7812 -8.1562 231.5469 -8.2422 Q231.3125 -8.3281 230.9375 -8.3281 Q230.5625 -8.3281 230.2188 -8.1719 Q229.875 -8.0156 229.4609 -7.6484 Q229.0469 -7.2812 228.8672 -6.9141 Q228.6875 -6.5469 228.6875 -6.0781 L228.6875 -2.4375 Q228.6875 -1.6094 228.7656 -1.2812 Q228.8438 -0.9531 229.0625 -0.7812 Q229.2812 -0.6094 229.7812 -0.4844 L229.7812 0 L225.9531 0 L225.9531 -0.4844 Q226.3281 -0.5938 226.4922 -0.6797 Q226.6562 -0.7656 226.7656 -0.9219 Q226.875 -1.0781 226.9375 -1.4062 Q227 -1.7344 227 -2.4062 L227 -6.6719 Q227 -7.2969 226.9844 -7.6797 Q226.9688 -8.0625 226.8516 -8.2891 Q226.7344 -8.5156 226.4922 -8.625 Q226.25 -8.7344 225.8125 -8.8125 L225.8125 -9.3438 L228.0938 -9.4219 L228.6875 -9.4219 L228.5781 -7.8281 L228.7188 -7.7969 Q229.4375 -8.5312 229.8828 -8.8438 Q230.3281 -9.1562 230.7812 -9.3281 Q231.2344 -9.5 231.75 -9.5 Q232.2812 -9.5 232.6953 -9.375 Q233.1094 -9.25 233.4219 -8.9922 Q233.7344 -8.7344 233.9453 -8.3594 Q234.1562 -7.9844 234.2578 -7.4609 Q234.3594 -6.9375 234.3594 -6.125 L234.3594 -2.4375 Q234.3594 -1.7656 234.3984 -1.4609 Q234.4375 -1.1562 234.5312 -0.9922 Q234.625 -0.8281 234.8125 -0.7188 Q235 -0.6094 235.4531 -0.4844 L235.4531 0 ZM236.3594 -8.8438 Q236.8438 -8.9219 237.1484 -9.1172 Q237.4531 -9.3125 237.625 -9.625 Q237.7969 -9.9375 237.8984 -10.3984 Q238 -10.8594 238.0938 -11.75 L239.4844 -11.75 L239.4844 -9.3438 L242.6406 -9.3438 L242.6406 -8.3438 L239.4844 -8.3438 L239.4844 -4 Q239.4844 -3.0625 239.5625 -2.5 Q239.6406 -1.9375 239.8594 -1.6172 Q240.0781 -1.2969 240.3516 -1.1641 Q240.625 -1.0312 241.0469 -1.0312 Q241.4375 -1.0312 241.7812 -1.1875 Q242.125 -1.3438 242.4531 -1.6562 L242.8906 -1.125 Q242.2031 -0.4531 241.5859 -0.1484 Q240.9688 0.1562 240.2969 0.1562 Q239.0312 0.1562 238.4219 -0.5938 Q237.8125 -1.3438 237.8125 -2.9375 L237.8125 -8.3438 L236.3594 -8.3438 L236.3594 -8.8438 ZM250.4844 -7.2031 L249.5469 -7.2031 Q249.3438 -7.7812 249.0469 -8.1172 Q248.75 -8.4531 248.3828 -8.5938 Q248.0156 -8.7344 247.4688 -8.7344 Q246.6875 -8.7344 246.2266 -8.3672 Q245.7656 -8 245.7656 -7.3594 Q245.7656 -6.9219 245.9531 -6.625 Q246.1406 -6.3281 246.5312 -6.0781 Q246.9219 -5.8281 247.9062 -5.4062 Q248.9062 -4.9688 249.4453 -4.6094 Q249.9844 -4.25 250.2891 -3.7734 Q250.5938 -3.2969 250.5938 -2.625 Q250.5938 -1.8594 250.3359 -1.3281 Q250.0781 -0.7969 249.5938 -0.4688 Q249.1094 -0.1406 248.4531 0.0078 Q247.7969 0.1562 247.0156 0.1562 Q246.1875 0.1562 245.4219 0.0312 Q244.6562 -0.0938 243.9219 -0.2812 L243.9219 -2.3281 L244.875 -2.3281 Q245.1406 -1.4219 245.6562 -1.0156 Q246.1719 -0.6094 247.0781 -0.6094 Q247.4375 -0.6094 247.7734 -0.6875 Q248.1094 -0.7656 248.375 -0.9375 Q248.6406 -1.1094 248.7969 -1.3984 Q248.9531 -1.6875 248.9531 -2.125 Q248.9531 -2.625 248.7578 -2.9375 Q248.5625 -3.25 248.1484 -3.5078 Q247.7344 -3.7656 246.7031 -4.2031 Q245.8125 -4.5781 245.2734 -4.9297 Q244.7344 -5.2812 244.4297 -5.7578 Q244.125 -6.2344 244.125 -6.8906 Q244.125 -7.7031 244.5625 -8.2891 Q245 -8.875 245.8203 -9.1875 Q246.6406 -9.5 247.7344 -9.5 Q248.375 -9.5 248.9766 -9.4375 Q249.5781 -9.375 250.4844 -9.1875 L250.4844 -7.2031 ZM252.4219 -14.0156 Q254.0781 -14.0156 255.1328 -13.5156 Q256.1875 -13.0156 256.7734 -12 Q257.3594 -10.9844 257.6172 -9.3516 Q257.875 -7.7188 257.875 -4.9219 Q257.875 -2.1562 257.6172 -0.5078 Q257.3594 1.1406 256.7734 2.1797 Q256.1875 3.2188 255.1328 3.7344 Q254.0781 4.25 252.4219 4.25 L252.4219 3.4531 Q253.1094 3.4531 253.625 3.3281 Q254.2344 3.1875 254.6406 2.7969 Q255.1094 2.375 255.4062 1.6094 Q255.75 0.7031 255.9219 -0.7812 Q256.0938 -2.3594 256.0938 -4.8438 Q256.0938 -7.0469 255.9453 -8.5859 Q255.7969 -10.125 255.4531 -11.0938 Q255.1875 -11.9219 254.7812 -12.375 Q254.4062 -12.7812 253.9219 -12.9844 Q253.3438 -13.2188 252.4219 -13.2188 L252.4219 -14.0156 Z" stroke="none"/></g></g></svg>