<?xml version="1.0" encoding="UTF-8" standalone="no"?><svg xmlns="http://www.w3.org/2000/svg" xmlns:xlink="http://www.w3.org/1999/xlink" stroke-dasharray="none" shape-rendering="auto" font-family="'Dialog'" width="119.812600" text-rendering="auto" fill-opacity="1" contentScriptType="text/ecmascript" color-interpolation="auto" color-rendering="auto" preserveAspectRatio="xMidYMid meet" font-size="12" fill="black" stroke="black" image-rendering="auto" stroke-miterlimit="10" zoomAndPan="magnify" version="1.0" stroke-linecap="square" stroke-linejoin="miter" contentStyleType="text/css" font-style="normal" height="57" stroke-width="1" stroke-dashoffset="0" font-weight="normal" stroke-opacity="1" y="-22.000000"><!--Converted from MathML using JEuclid--><defs id="genericDefs"/><g><g text-rendering="optimizeLegibility" transform="translate(0,35)" color-rendering="optimizeQuality" color-interpolation="linearRGB" image-rendering="optimizeQuality"><path d="M6.5 -2.2656 Q5.625 -1.0312 4.7891 -0.4453 Q3.9531 0.1406 3.0938 0.1406 Q2.0156 0.1406 1.4219 -0.6641 Q0.8281 -1.4688 0.8281 -2.9375 Q0.8281 -3.875 1.0469 -4.8203 Q1.2656 -5.7656 1.6953 -6.6094 Q2.125 -7.4531 2.7344 -8.0938 Q3.3438 -8.7344 4.1406 -9.1172 Q4.9375 -9.5 5.875 -9.5 Q6.4688 -9.5 7.0156 -9.3594 Q7.5625 -9.2188 8.1562 -8.8594 L9.0469 -9.5 L9.6719 -9.3438 L7.1719 1.7656 Q7.0156 2.5 7.0156 2.875 Q7.0156 3.1719 7.1094 3.3359 Q7.2031 3.5 7.4141 3.5859 Q7.625 3.6719 8.0938 3.7188 L8.0156 4.2031 L4.9688 4.2031 L6.6406 -2.2031 L6.5 -2.2656 ZM7.2969 -5.9531 Q7.3906 -6.375 7.4141 -6.6875 Q7.4375 -7 7.4375 -7.2812 Q7.4375 -8.0312 7.1172 -8.3828 Q6.7969 -8.7344 6.0469 -8.7344 Q5.6406 -8.7344 5.2656 -8.6016 Q4.8906 -8.4688 4.5078 -8.1641 Q4.125 -7.8594 3.7812 -7.3594 Q3.4375 -6.8594 3.1562 -6.1484 Q2.875 -5.4375 2.7188 -4.6172 Q2.5625 -3.7969 2.5625 -3.0312 Q2.5625 -2.0156 2.8359 -1.5078 Q3.1094 -1 3.7656 -1 Q4.0781 -1 4.4062 -1.1406 Q4.7344 -1.2812 5.1328 -1.6484 Q5.5312 -2.0156 6.0312 -2.7188 Q6.5 -3.375 6.7656 -4.0156 Q7.0312 -4.6562 7.2031 -5.5312 L7.2969 -5.9531 Z" stroke="none"/></g><g text-rendering="optimizeLegibility" transform="translate(10.6719,39.6094)" color-rendering="optimizeQuality" color-interpolation="linearRGB" image-rendering="optimizeQuality"><path d="M3.8281 -9.2188 L3.5156 -7.8906 L2.2969 -7.8906 L2.625 -9.2188 L3.8281 -9.2188 ZM2.1406 -1.7031 Q2.0625 -1.3594 2.0469 -1.2031 Q2.0312 -1.0469 2.0312 -0.9375 Q2.0312 -0.7188 2.0938 -0.6094 Q2.1562 -0.5 2.3047 -0.4375 Q2.4531 -0.375 2.7812 -0.3281 L2.7188 0 L0.5938 0 L1.625 -4.6094 Q1.7188 -5 1.75 -5.2344 Q1.7812 -5.4688 1.7812 -5.6406 Q1.7812 -5.8281 1.7266 -5.9375 Q1.6719 -6.0469 1.5312 -6.1016 Q1.3906 -6.1562 1.0625 -6.1719 L1.1406 -6.5312 L2.7969 -6.5938 L3.2031 -6.5938 L2.1406 -1.7031 Z" stroke="none"/></g><g text-rendering="optimizeLegibility" transform="translate(15.2812,35)" color-rendering="optimizeQuality" color-interpolation="linearRGB" image-rendering="optimizeQuality"><path d="M1.2188 -7.0625 L1.2188 -8.4219 L9.8594 -8.4219 L9.8594 -7.0625 L1.2188 -7.0625 ZM1.2188 -3.0156 L1.2188 -4.3594 L9.8594 -4.3594 L9.8594 -3.0156 L1.2188 -3.0156 Z" stroke="none"/></g><g text-rendering="optimizeLegibility" transform="translate(27.1406,35)" color-rendering="optimizeQuality" color-interpolation="linearRGB" image-rendering="optimizeQuality"><path d="M10.3125 4.2031 L6.3281 4.2031 L6.3281 3.7188 Q6.7969 3.625 7.0078 3.5078 Q7.2188 3.3906 7.3281 3.2109 Q7.4375 3.0312 7.4844 2.7188 Q7.5312 2.4062 7.5312 1.7656 L7.5312 -1.6094 Q7 -1 6.5469 -0.6484 Q6.0938 -0.2969 5.5391 -0.0703 Q4.9844 0.1562 4.3594 0.1562 Q2.75 0.1562 1.8828 -1.0469 Q1.0156 -2.25 1.0156 -4.5469 Q1.0156 -6.1562 1.5781 -7.2812 Q2.1406 -8.4062 3.1484 -8.9531 Q4.1562 -9.5 5.4688 -9.5 Q6.1562 -9.5 6.7188 -9.3594 Q7.2812 -9.2188 7.8594 -8.9062 L8.5469 -9.5 L9.2031 -9.3438 L9.2031 1.7656 Q9.2031 2.3438 9.25 2.6797 Q9.2969 3.0156 9.4062 3.2109 Q9.5156 3.4062 9.7422 3.5156 Q9.9688 3.625 10.3125 3.7188 L10.3125 4.2031 ZM7.5312 -5.8281 Q7.5312 -6.7344 7.4141 -7.2266 Q7.2969 -7.7188 7.0156 -8.0703 Q6.7344 -8.4219 6.3516 -8.5703 Q5.9688 -8.7188 5.4531 -8.7188 Q4.1875 -8.7188 3.5234 -7.7031 Q2.8594 -6.6875 2.8594 -4.8438 Q2.8594 -2.9688 3.3984 -1.9922 Q3.9375 -1.0156 5.0156 -1.0156 Q5.4375 -1.0156 5.7188 -1.0859 Q6 -1.1562 6.2812 -1.3281 Q6.5625 -1.5 6.8516 -1.7812 Q7.1406 -2.0625 7.2656 -2.2891 Q7.3906 -2.5156 7.4609 -2.8203 Q7.5312 -3.125 7.5312 -3.6094 L7.5312 -5.8281 Z" stroke="none"/></g><g text-rendering="optimizeLegibility" transform="translate(37.4531,43.8125)" color-rendering="optimizeQuality" color-interpolation="linearRGB" image-rendering="optimizeQuality"><path d="M3.8281 -9.2188 L3.5156 -7.8906 L2.2969 -7.8906 L2.625 -9.2188 L3.8281 -9.2188 ZM2.1406 -1.7031 Q2.0625 -1.3594 2.0469 -1.2031 Q2.0312 -1.0469 2.0312 -0.9375 Q2.0312 -0.7188 2.0938 -0.6094 Q2.1562 -0.5 2.3047 -0.4375 Q2.4531 -0.375 2.7812 -0.3281 L2.7188 0 L0.5938 0 L1.625 -4.6094 Q1.7188 -5 1.75 -5.2344 Q1.7812 -5.4688 1.7812 -5.6406 Q1.7812 -5.8281 1.7266 -5.9375 Q1.6719 -6.0469 1.5312 -6.1016 Q1.3906 -6.1562 1.0625 -6.1719 L1.1406 -6.5312 L2.7969 -6.5938 L3.2031 -6.5938 L2.1406 -1.7031 Z" stroke="none"/></g><g text-rendering="optimizeLegibility" transform="translate(37.4531,28.7656)" color-rendering="optimizeQuality" color-interpolation="linearRGB" image-rendering="optimizeQuality"><path d="M2.7969 0.1094 Q1.7344 0.1094 1.1484 -0.4844 Q0.5625 -1.0781 0.5625 -2.1875 Q0.5625 -2.5938 0.6719 -3.1562 Q0.7969 -3.875 1.0469 -4.4219 Q1.3438 -5.1094 1.8281 -5.6172 Q2.3125 -6.125 2.9375 -6.3828 Q3.5625 -6.6406 4.2812 -6.6406 Q5.0625 -6.6406 5.5703 -6.3438 Q6.0781 -6.0469 6.2969 -5.5312 Q6.5156 -5.0156 6.5156 -4.3281 Q6.5156 -3.7188 6.3438 -3.0312 Q6.1094 -2.0312 5.6328 -1.3203 Q5.1562 -0.6094 4.4453 -0.25 Q3.7344 0.1094 2.7969 0.1094 ZM1.7656 -1.8906 Q1.7656 -1.1406 2.0781 -0.7812 Q2.3906 -0.4219 3.0156 -0.4219 Q3.6875 -0.4219 4.2031 -1.0234 Q4.7188 -1.625 5.0234 -2.7109 Q5.3281 -3.7969 5.3281 -4.6094 Q5.3281 -5.3594 5.0391 -5.7266 Q4.75 -6.0938 4.1406 -6.0938 Q3.4375 -6.0938 2.9062 -5.5 Q2.375 -4.9062 2.0703 -3.7969 Q1.7656 -2.6875 1.7656 -1.8906 Z" stroke="none"/></g><g text-rendering="optimizeLegibility" transform="translate(44.7344,35)" color-rendering="optimizeQuality" color-interpolation="linearRGB" image-rendering="optimizeQuality"><path d="M1.2344 -5.0469 L1.2344 -6.3906 L9.8281 -6.3906 L9.8281 -5.0469 L1.2344 -5.0469 Z" stroke="none"/></g><g text-rendering="optimizeLegibility" transform="translate(58.1406,35)" color-rendering="optimizeQuality" color-interpolation="linearRGB" image-rendering="optimizeQuality"><path d="M5.6562 -21.375 L13.5 -9.4688 L13.5 -8.25 L4.7031 3.8281 L15.3125 3.8281 Q16.3125 3.8281 16.8203 3.7031 Q17.3281 3.5781 17.6875 3.3125 Q18.0469 3.0469 18.3438 2.5703 Q18.6406 2.0938 18.9141 1.2578 Q19.1875 0.4219 19.4375 -0.9375 L21.3125 -0.9375 L20.8438 6.9219 L0.4219 6.9219 L0.4219 6.0312 L10.375 -7.6562 L1.0312 -22.1406 L1.0312 -23.0625 L20.9375 -23.0625 L20.9375 -15.8906 L19.1875 -15.8906 Q18.7812 -17.4219 18.4219 -18.3906 Q18.0625 -19.3594 17.6875 -19.9219 Q17.3125 -20.4844 16.9141 -20.7812 Q16.5156 -21.0781 16 -21.2266 Q15.4844 -21.375 14.625 -21.375 L5.6562 -21.375 Z" stroke="none"/></g><g text-rendering="optimizeLegibility" transform="translate(61.625,53.8594)" color-rendering="optimizeQuality" color-interpolation="linearRGB" image-rendering="optimizeQuality"><path d="M3.8438 -9.2188 L3.5312 -7.8906 L2.3281 -7.8906 L2.6406 -9.2188 L3.8438 -9.2188 ZM1.7969 0.1094 Q1.5781 1.1562 1.2031 1.7891 Q0.8281 2.4219 0.2188 2.7422 Q-0.3906 3.0625 -1.2188 3.0625 Q-1.5625 3.0625 -1.7969 2.9844 L-1.6406 2.3906 Q-1.5312 2.4219 -1.3984 2.4297 Q-1.2656 2.4375 -1.125 2.4375 Q-0.7969 2.4375 -0.5625 2.3438 Q-0.3281 2.25 -0.1328 2.0156 Q0.0625 1.7812 0.2266 1.375 Q0.3906 0.9688 0.5469 0.3125 L1.6406 -4.6094 Q1.7344 -4.9844 1.7734 -5.2266 Q1.8125 -5.4688 1.8125 -5.6406 Q1.8125 -5.8281 1.75 -5.9375 Q1.6875 -6.0469 1.5547 -6.1016 Q1.4219 -6.1562 1.0781 -6.1719 L1.1562 -6.5312 L2.8281 -6.5938 L3.2188 -6.5938 L1.7969 0.1094 Z" stroke="none"/></g><g text-rendering="optimizeLegibility" transform="translate(64.625,53.8594)" color-rendering="optimizeQuality" color-interpolation="linearRGB" image-rendering="optimizeQuality"><path d="M0.8438 -4.9375 L0.8438 -5.8906 L6.9062 -5.8906 L6.9062 -4.9375 L0.8438 -4.9375 ZM0.8438 -2.1094 L0.8438 -3.0625 L6.9062 -3.0625 L6.9062 -2.1094 L0.8438 -2.1094 Z" stroke="none"/></g><g text-rendering="optimizeLegibility" transform="translate(71.5312,53.8594)" color-rendering="optimizeQuality" color-interpolation="linearRGB" image-rendering="optimizeQuality"><path d="M4.75 -1.7812 Q4.75 -1.3906 4.7969 -1.1875 Q4.8438 -0.9844 4.9531 -0.8594 Q5.0625 -0.7344 5.2734 -0.6641 Q5.4844 -0.5938 5.8047 -0.5547 Q6.125 -0.5156 6.6562 -0.5 L6.6562 0 L1.6094 0 L1.6094 -0.5 Q2.3594 -0.5312 2.6875 -0.5938 Q3.0156 -0.6562 3.1875 -0.7656 Q3.3594 -0.875 3.4375 -1.0938 Q3.5156 -1.3125 3.5156 -1.7812 L3.5156 -7.3281 Q3.5156 -7.6094 3.4219 -7.7344 Q3.3281 -7.8594 3.1406 -7.8594 Q2.9219 -7.8594 2.5156 -7.6328 Q2.1094 -7.4062 1.5156 -7 L1.2188 -7.5312 L4.4219 -9.4375 L4.7969 -9.4375 Q4.75 -8.7812 4.75 -7.625 L4.75 -1.7812 Z" stroke="none"/></g><g text-rendering="optimizeLegibility" transform="translate(64.125,9.4375)" color-rendering="optimizeQuality" color-interpolation="linearRGB" image-rendering="optimizeQuality"><path d="M9.7656 -9.3281 L9.6875 -9 Q9.4219 -8.9375 9.3125 -8.875 Q9.2031 -8.8125 9.1094 -8.6719 Q9.0156 -8.5312 8.9219 -8.2422 Q8.8281 -7.9531 8.6875 -7.2969 L7.0781 0 L6.1562 0 L4.1562 -5.8594 Q3.7969 -6.9219 3.5156 -7.9688 L3.4375 -7.9688 Q3.3906 -7.6094 3.2031 -6.6328 Q3.0156 -5.6562 2.8125 -4.7188 L2.2188 -1.9844 Q2.1562 -1.7031 2.1172 -1.4375 Q2.0781 -1.1719 2.0781 -0.9219 Q2.0781 -0.6094 2.2266 -0.4844 Q2.375 -0.3594 2.7344 -0.3281 L2.6719 0 L0.2812 0 L0.3438 -0.3281 Q0.6094 -0.375 0.7422 -0.4688 Q0.875 -0.5625 0.9609 -0.7266 Q1.0469 -0.8906 1.125 -1.125 Q1.2031 -1.3594 1.3438 -2.0312 L2.5156 -7.2969 Q2.5781 -7.5938 2.6172 -7.8594 Q2.6562 -8.125 2.6562 -8.4062 Q2.6562 -8.7188 2.4922 -8.8438 Q2.3281 -8.9688 1.9844 -9 L2.0625 -9.3281 L4.25 -9.3281 L6.0469 -4 Q6.4375 -2.8594 6.6562 -2.0625 L6.7344 -2.0625 Q6.7812 -2.4844 6.9766 -3.4531 Q7.1719 -4.4219 7.3281 -5.1406 L7.8125 -7.2969 Q7.8594 -7.5312 7.9141 -7.8359 Q7.9688 -8.1406 7.9688 -8.4062 Q7.9688 -8.7188 7.8047 -8.8438 Q7.6406 -8.9688 7.2969 -9 L7.375 -9.3281 L9.7656 -9.3281 Z" stroke="none"/></g><g text-rendering="optimizeLegibility" transform="translate(81.4531,35)" color-rendering="optimizeQuality" color-interpolation="linearRGB" image-rendering="optimizeQuality"><path d="M3.6719 -2.8438 Q3.6094 -2.5469 3.5703 -2.3438 Q3.5312 -2.1406 3.5 -1.8438 Q3.4688 -1.5469 3.4688 -1.3125 Q3.4688 -1.0156 3.5625 -0.8438 Q3.6562 -0.6719 3.8516 -0.5938 Q4.0469 -0.5156 4.5312 -0.4844 L4.4219 0 L0.4062 0 L0.5156 -0.4844 Q0.8906 -0.5312 1.0781 -0.6641 Q1.2656 -0.7969 1.3906 -1.0312 Q1.5156 -1.2656 1.625 -1.6016 Q1.7344 -1.9375 1.9375 -2.9062 L3.6094 -10.4375 Q3.8125 -11.4062 3.8125 -11.9688 Q3.8125 -12.4531 3.5938 -12.6406 Q3.375 -12.8281 2.8594 -12.8594 L2.9688 -13.3281 L11.7812 -13.3281 L11.1094 -10.3281 L10.1719 -10.3281 Q10.125 -11.0312 10.0547 -11.4219 Q9.9844 -11.8125 9.8828 -12.0078 Q9.7812 -12.2031 9.6562 -12.2969 Q9.5312 -12.3906 9.3438 -12.4297 Q9.1562 -12.4688 8.7969 -12.4688 L5.7969 -12.4688 L4.625 -7.1562 L6.4531 -7.1562 Q6.8906 -7.1562 7.1719 -7.2734 Q7.4531 -7.3906 7.6953 -7.7031 Q7.9375 -8.0156 8.2969 -8.75 L9.1875 -8.75 L8.25 -4.625 L7.3906 -4.625 Q7.3906 -5.2344 7.3594 -5.5781 Q7.3281 -5.9219 7.2422 -6.0547 Q7.1562 -6.1875 6.9844 -6.2422 Q6.8125 -6.2969 6.3594 -6.2969 L4.4375 -6.2969 L3.6719 -2.8438 Z" stroke="none"/></g><g text-rendering="optimizeLegibility" transform="translate(93.2344,38.0781)" color-rendering="optimizeQuality" color-interpolation="linearRGB" image-rendering="optimizeQuality"><path d="M3.8281 -9.2188 L3.5156 -7.8906 L2.2969 -7.8906 L2.625 -9.2188 L3.8281 -9.2188 ZM2.1406 -1.7031 Q2.0625 -1.3594 2.0469 -1.2031 Q2.0312 -1.0469 2.0312 -0.9375 Q2.0312 -0.7188 2.0938 -0.6094 Q2.1562 -0.5 2.3047 -0.4375 Q2.4531 -0.375 2.7812 -0.3281 L2.7188 0 L0.5938 0 L1.625 -4.6094 Q1.7188 -5 1.75 -5.2344 Q1.7812 -5.4688 1.7812 -5.6406 Q1.7812 -5.8281 1.7266 -5.9375 Q1.6719 -6.0469 1.5312 -6.1016 Q1.3906 -6.1562 1.0625 -6.1719 L1.1406 -6.5312 L2.7969 -6.5938 L3.2031 -6.5938 L2.1406 -1.7031 Z" stroke="none"/></g><g text-rendering="optimizeLegibility" transform="translate(98.8594,38.0781)" color-rendering="optimizeQuality" color-interpolation="linearRGB" image-rendering="optimizeQuality"><path d="M3.8438 -9.2188 L3.5312 -7.8906 L2.3281 -7.8906 L2.6406 -9.2188 L3.8438 -9.2188 ZM1.7969 0.1094 Q1.5781 1.1562 1.2031 1.7891 Q0.8281 2.4219 0.2188 2.7422 Q-0.3906 3.0625 -1.2188 3.0625 Q-1.5625 3.0625 -1.7969 2.9844 L-1.6406 2.3906 Q-1.5312 2.4219 -1.3984 2.4297 Q-1.2656 2.4375 -1.125 2.4375 Q-0.7969 2.4375 -0.5625 2.3438 Q-0.3281 2.25 -0.1328 2.0156 Q0.0625 1.7812 0.2266 1.375 Q0.3906 0.9688 0.5469 0.3125 L1.6406 -4.6094 Q1.7344 -4.9844 1.7734 -5.2266 Q1.8125 -5.4688 1.8125 -5.6406 Q1.8125 -5.8281 1.75 -5.9375 Q1.6875 -6.0469 1.5547 -6.1016 Q1.4219 -6.1562 1.0781 -6.1719 L1.1562 -6.5312 L2.8281 -6.5938 L3.2188 -6.5938 L1.7969 0.1094 Z" stroke="none"/></g><g text-rendering="optimizeLegibility" transform="translate(102.7031,35)" color-rendering="optimizeQuality" color-interpolation="linearRGB" image-rendering="optimizeQuality"><path d="M6.5 -2.2656 Q5.625 -1.0312 4.7891 -0.4453 Q3.9531 0.1406 3.0938 0.1406 Q2.0156 0.1406 1.4219 -0.6641 Q0.8281 -1.4688 0.8281 -2.9375 Q0.8281 -3.875 1.0469 -4.8203 Q1.2656 -5.7656 1.6953 -6.6094 Q2.125 -7.4531 2.7344 -8.0938 Q3.3438 -8.7344 4.1406 -9.1172 Q4.9375 -9.5 5.875 -9.5 Q6.4688 -9.5 7.0156 -9.3594 Q7.5625 -9.2188 8.1562 -8.8594 L9.0469 -9.5 L9.6719 -9.3438 L7.1719 1.7656 Q7.0156 2.5 7.0156 2.875 Q7.0156 3.1719 7.1094 3.3359 Q7.2031 3.5 7.4141 3.5859 Q7.625 3.6719 8.0938 3.7188 L8.0156 4.2031 L4.9688 4.2031 L6.6406 -2.2031 L6.5 -2.2656 ZM7.2969 -5.9531 Q7.3906 -6.375 7.4141 -6.6875 Q7.4375 -7 7.4375 -7.2812 Q7.4375 -8.0312 7.1172 -8.3828 Q6.7969 -8.7344 6.0469 -8.7344 Q5.6406 -8.7344 5.2656 -8.6016 Q4.8906 -8.4688 4.5078 -8.1641 Q4.125 -7.8594 3.7812 -7.3594 Q3.4375 -6.8594 3.1562 -6.1484 Q2.875 -5.4375 2.7188 -4.6172 Q2.5625 -3.7969 2.5625 -3.0312 Q2.5625 -2.0156 2.8359 -1.5078 Q3.1094 -1 3.7656 -1 Q4.0781 -1 4.4062 -1.1406 Q4.7344 -1.2812 5.1328 -1.6484 Q5.5312 -2.0156 6.0312 -2.7188 Q6.5 -3.375 6.7656 -4.0156 Q7.0312 -4.6562 7.2031 -5.5312 L7.2969 -5.9531 Z" stroke="none"/></g><g text-rendering="optimizeLegibility" transform="translate(114.1719,42.2812)" color-rendering="optimizeQuality" color-interpolation="linearRGB" image-rendering="optimizeQuality"><path d="M3.8438 -9.2188 L3.5312 -7.8906 L2.3281 -7.8906 L2.6406 -9.2188 L3.8438 -9.2188 ZM1.7969 0.1094 Q1.5781 1.1562 1.2031 1.7891 Q0.8281 2.4219 0.2188 2.7422 Q-0.3906 3.0625 -1.2188 3.0625 Q-1.5625 3.0625 -1.7969 2.9844 L-1.6406 2.3906 Q-1.5312 2.4219 -1.3984 2.4297 Q-1.2656 2.4375 -1.125 2.4375 Q-0.7969 2.4375 -0.5625 2.3438 Q-0.3281 2.25 -0.1328 2.0156 Q0.0625 1.7812 0.2266 1.375 Q0.3906 0.9688 0.5469 0.3125 L1.6406 -4.6094 Q1.7344 -4.9844 1.7734 -5.2266 Q1.8125 -5.4688 1.8125 -5.6406 Q1.8125 -5.8281 1.75 -5.9375 Q1.6875 -6.0469 1.5547 -6.1016 Q1.4219 -6.1562 1.0781 -6.1719 L1.1562 -6.5312 L2.8281 -6.5938 L3.2188 -6.5938 L1.7969 0.1094 Z" stroke="none"/></g><g text-rendering="optimizeLegibility" transform="translate(112.375,28.7656)" color-rendering="optimizeQuality" color-interpolation="linearRGB" image-rendering="optimizeQuality"><path d="M2.7969 0.1094 Q1.7344 0.1094 1.1484 -0.4844 Q0.5625 -1.0781 0.5625 -2.1875 Q0.5625 -2.5938 0.6719 -3.1562 Q0.7969 -3.875 1.0469 -4.4219 Q1.3438 -5.1094 1.8281 -5.6172 Q2.3125 -6.125 2.9375 -6.3828 Q3.5625 -6.6406 4.2812 -6.6406 Q5.0625 -6.6406 5.5703 -6.3438 Q6.0781 -6.0469 6.2969 -5.5312 Q6.5156 -5.0156 6.5156 -4.3281 Q6.5156 -3.7188 6.3438 -3.0312 Q6.1094 -2.0312 5.6328 -1.3203 Q5.1562 -0.6094 4.4453 -0.25 Q3.7344 0.1094 2.7969 0.1094 ZM1.7656 -1.8906 Q1.7656 -1.1406 2.0781 -0.7812 Q2.3906 -0.4219 3.0156 -0.4219 Q3.6875 -0.4219 4.2031 -1.0234 Q4.7188 -1.625 5.0234 -2.7109 Q5.3281 -3.7969 5.3281 -4.6094 Q5.3281 -5.3594 5.0391 -5.7266 Q4.75 -6.0938 4.1406 -6.0938 Q3.4375 -6.0938 2.9062 -5.5 Q2.375 -4.9062 2.0703 -3.7969 Q1.7656 -2.6875 1.7656 -1.8906 Z" stroke="none"/></g></g></svg>