<?xml version="1.0" encoding="UTF-8" standalone="no"?><svg xmlns="http://www.w3.org/2000/svg" xmlns:xlink="http://www.w3.org/1999/xlink" stroke-dasharray="none" shape-rendering="auto" font-family="'Dialog'" width="224.812600" text-rendering="auto" fill-opacity="1" contentScriptType="text/ecmascript" color-interpolation="auto" color-rendering="auto" preserveAspectRatio="xMidYMid meet" font-size="12" fill="black" stroke="black" image-rendering="auto" stroke-miterlimit="10" zoomAndPan="magnify" version="1.0" stroke-linecap="square" stroke-linejoin="miter" contentStyleType="text/css" font-style="normal" height="33" stroke-width="1" stroke-dashoffset="0" font-weight="normal" stroke-opacity="1" y="-9.000000"><!--Converted from MathML using JEuclid--><defs id="genericDefs"/><g><g text-rendering="optimizeLegibility" transform="translate(0,24)" color-rendering="optimizeQuality" color-interpolation="linearRGB" image-rendering="optimizeQuality"><path d="M4.3594 0.1562 Q1.2188 0.1562 1.2188 -3.7812 Q1.2188 -7.1719 3.0547 -10.4688 Q4.8906 -13.7656 7.7031 -13.7656 Q10.6406 -13.7656 10.6406 -9.9062 Q10.6406 -6.4844 8.8594 -3.1641 Q7.0781 0.1562 4.3594 0.1562 ZM3.6094 -7.5469 L8.625 -7.5469 Q9 -9.6094 9 -10.7188 Q9 -12.9375 7.5 -12.9375 Q6.3594 -12.9375 5.3438 -11.5312 Q4.3281 -10.125 3.6094 -7.5469 ZM3.3594 -6.625 Q2.8438 -4.4219 2.8438 -2.9219 Q2.8438 -0.6719 4.5469 -0.6719 Q5.75 -0.6719 6.75 -2.2422 Q7.75 -3.8125 8.4219 -6.625 L3.3594 -6.625 Z" stroke="none"/></g><g text-rendering="optimizeLegibility" transform="translate(12.3594,25.9219)" color-rendering="optimizeQuality" color-interpolation="linearRGB" image-rendering="optimizeQuality"><path d="M1.2656 -5.0469 Q1.2031 -5.5625 1.1406 -5.7656 Q1.0781 -5.9688 0.9375 -6.0781 Q0.7969 -6.1875 0.5 -6.2031 L0.5625 -6.5312 L2.3281 -6.5312 L2.8438 -1.0938 Q5.1562 -4.2656 5.1562 -5.625 Q5.1562 -5.9531 5.0156 -6.0703 Q4.875 -6.1875 4.5469 -6.2031 L4.625 -6.5312 L6.3906 -6.5312 L6.5625 -6.1875 Q6.2031 -5.25 5.6406 -4.2266 Q5.0781 -3.2031 4.2656 -1.9922 Q3.4531 -0.7812 2.4531 0.5156 Q1.6875 1.5312 1.1562 2.0312 Q0.7656 2.4219 0.4219 2.625 Q0.0781 2.8281 -0.2344 2.9141 Q-0.5469 3 -0.9062 3 Q-1.0938 3 -1.3281 2.9609 Q-1.5625 2.9219 -1.7188 2.8594 L-1.4219 1.5938 L-0.8906 1.5938 Q-0.8906 1.8125 -0.7891 1.9531 Q-0.6875 2.0938 -0.4844 2.0938 Q-0.2656 2.0938 -0.1094 2.0469 Q0.0469 2 0.2188 1.8984 Q0.3906 1.7969 0.6406 1.5703 Q0.8906 1.3438 1.2109 0.9766 Q1.5312 0.6094 1.9219 0.0781 L1.2656 -5.0469 Z" stroke="none"/></g><g text-rendering="optimizeLegibility" transform="translate(19.7031,24)" color-rendering="optimizeQuality" color-interpolation="linearRGB" image-rendering="optimizeQuality"><path d="M1.2188 -7.0625 L1.2188 -8.4219 L9.8594 -8.4219 L9.8594 -7.0625 L1.2188 -7.0625 ZM1.2188 -3.0156 L1.2188 -4.3594 L9.8594 -4.3594 L9.8594 -3.0156 L1.2188 -3.0156 Z" stroke="none"/></g><g text-rendering="optimizeLegibility" stroke-width="1.6667" color-interpolation="linearRGB" color-rendering="optimizeQuality" image-rendering="optimizeQuality"><line y2="16.78" fill="none" x1="33.2403" x2="42.7559" y1="16.78"/><path d="M6.7812 -2.5469 Q6.7812 -1.9844 6.8516 -1.6953 Q6.9219 -1.4062 7.0781 -1.2266 Q7.2344 -1.0469 7.5391 -0.9453 Q7.8438 -0.8438 8.3047 -0.7891 Q8.7656 -0.7344 9.5156 -0.7188 L9.5156 0 L2.2969 0 L2.2969 -0.7188 Q3.375 -0.7656 3.8438 -0.8438 Q4.3125 -0.9219 4.5547 -1.0938 Q4.7969 -1.2656 4.9062 -1.5625 Q5.0156 -1.8594 5.0156 -2.5469 L5.0156 -10.4688 Q5.0156 -10.8594 4.8828 -11.0391 Q4.75 -11.2188 4.4844 -11.2188 Q4.1719 -11.2188 3.5938 -10.8984 Q3.0156 -10.5781 2.1719 -10.0156 L1.7344 -10.7656 L6.3125 -13.4844 L6.8438 -13.4844 Q6.7812 -12.5469 6.7812 -10.8906 L6.7812 -2.5469 Z" stroke-width="1" transform="translate(33.2403,14.2689)" stroke="none"/></g><g text-rendering="optimizeLegibility" transform="translate(33.2637,32.7755)" color-rendering="optimizeQuality" color-interpolation="linearRGB" image-rendering="optimizeQuality"><path d="M6.8594 -1.5625 Q7.3281 -1.5625 7.625 -1.625 Q7.9219 -1.6875 8.0938 -1.8203 Q8.2656 -1.9531 8.375 -2.1719 Q8.4844 -2.3906 8.6406 -2.8594 L9.4688 -2.8594 L9.2969 0 L1.2656 0 L1.2656 -0.4688 Q1.6875 -1.5 2.3984 -2.5703 Q3.1094 -3.6406 4.4219 -5.0938 Q5.5469 -6.3438 6.0469 -7 Q6.5938 -7.7031 6.8594 -8.2109 Q7.125 -8.7188 7.2422 -9.1719 Q7.3594 -9.625 7.3594 -10.0938 Q7.3594 -10.8281 7.125 -11.3828 Q6.8906 -11.9375 6.4062 -12.2656 Q5.9219 -12.5938 5.2031 -12.5938 Q3.375 -12.5938 2.7344 -10.5625 L1.5469 -10.5625 L1.5469 -12.4375 Q2.7344 -12.9844 3.7656 -13.2344 Q4.7969 -13.4844 5.6094 -13.4844 Q7.4375 -13.4844 8.3594 -12.6875 Q9.2812 -11.8906 9.2812 -10.375 Q9.2812 -9.8594 9.1797 -9.4297 Q9.0781 -9 8.8594 -8.5703 Q8.6406 -8.1406 8.2734 -7.6562 Q7.9062 -7.1719 7.4531 -6.6641 Q7 -6.1562 5.9062 -4.9844 Q4.0469 -3.0312 3.1719 -1.5625 L6.8594 -1.5625 Z" stroke="none"/></g><g text-rendering="optimizeLegibility" transform="translate(46.3347,24)" color-rendering="optimizeQuality" color-interpolation="linearRGB" image-rendering="optimizeQuality"><path d="M7.2188 4.25 Q5.5625 4.25 4.5078 3.75 Q3.4531 3.25 2.8672 2.2344 Q2.2812 1.2188 2.0234 -0.4141 Q1.7656 -2.0469 1.7656 -4.8438 Q1.7656 -7.625 2.0234 -9.2656 Q2.2812 -10.9062 2.8672 -11.9453 Q3.4531 -12.9844 4.5078 -13.5 Q5.5625 -14.0156 7.2188 -14.0156 L7.2188 -13.2188 Q6.5312 -13.2188 6 -13.0938 Q5.4062 -12.9531 4.9844 -12.5625 Q4.5156 -12.1406 4.2344 -11.375 Q3.8906 -10.4688 3.7188 -8.9844 Q3.5469 -7.4062 3.5469 -4.9219 Q3.5469 -2.7188 3.6953 -1.1797 Q3.8438 0.3594 4.1875 1.3281 Q4.4531 2.1562 4.8594 2.6094 Q5.2188 3.0156 5.7188 3.2188 Q6.2969 3.4531 7.2188 3.4531 L7.2188 4.25 Z" stroke="none"/></g><g text-rendering="optimizeLegibility" transform="translate(55.5535,24)" color-rendering="optimizeQuality" color-interpolation="linearRGB" image-rendering="optimizeQuality"><path d="M4.3594 0.1562 Q1.2188 0.1562 1.2188 -3.7812 Q1.2188 -7.1719 3.0547 -10.4688 Q4.8906 -13.7656 7.7031 -13.7656 Q10.6406 -13.7656 10.6406 -9.9062 Q10.6406 -6.4844 8.8594 -3.1641 Q7.0781 0.1562 4.3594 0.1562 ZM3.6094 -7.5469 L8.625 -7.5469 Q9 -9.6094 9 -10.7188 Q9 -12.9375 7.5 -12.9375 Q6.3594 -12.9375 5.3438 -11.5312 Q4.3281 -10.125 3.6094 -7.5469 ZM3.3594 -6.625 Q2.8438 -4.4219 2.8438 -2.9219 Q2.8438 -0.6719 4.5469 -0.6719 Q5.75 -0.6719 6.75 -2.2422 Q7.75 -3.8125 8.4219 -6.625 L3.3594 -6.625 Z" stroke="none"/></g><g text-rendering="optimizeLegibility" transform="translate(67.9128,27.3203)" color-rendering="optimizeQuality" color-interpolation="linearRGB" image-rendering="optimizeQuality"><path d="M1.2656 -5.0469 Q1.2031 -5.5625 1.1406 -5.7656 Q1.0781 -5.9688 0.9375 -6.0781 Q0.7969 -6.1875 0.5 -6.2031 L0.5625 -6.5312 L2.3281 -6.5312 L2.8438 -1.0938 Q5.1562 -4.2656 5.1562 -5.625 Q5.1562 -5.9531 5.0156 -6.0703 Q4.875 -6.1875 4.5469 -6.2031 L4.625 -6.5312 L6.3906 -6.5312 L6.5625 -6.1875 Q6.2031 -5.25 5.6406 -4.2266 Q5.0781 -3.2031 4.2656 -1.9922 Q3.4531 -0.7812 2.4531 0.5156 Q1.6875 1.5312 1.1562 2.0312 Q0.7656 2.4219 0.4219 2.625 Q0.0781 2.8281 -0.2344 2.9141 Q-0.5469 3 -0.9062 3 Q-1.0938 3 -1.3281 2.9609 Q-1.5625 2.9219 -1.7188 2.8594 L-1.4219 1.5938 L-0.8906 1.5938 Q-0.8906 1.8125 -0.7891 1.9531 Q-0.6875 2.0938 -0.4844 2.0938 Q-0.2656 2.0938 -0.1094 2.0469 Q0.0469 2 0.2188 1.8984 Q0.3906 1.7969 0.6406 1.5703 Q0.8906 1.3438 1.2109 0.9766 Q1.5312 0.6094 1.9219 0.0781 L1.2656 -5.0469 Z" stroke="none"/></g><g text-rendering="optimizeLegibility" transform="translate(74.4753,27.3203)" color-rendering="optimizeQuality" color-interpolation="linearRGB" image-rendering="optimizeQuality"><path d="M2.5781 -1.9844 Q2.4844 -1.5938 2.4531 -1.3516 Q2.4219 -1.1094 2.4219 -0.9219 Q2.4219 -0.6094 2.5781 -0.4844 Q2.7344 -0.3594 3.0938 -0.3281 L3.0156 0 L0.2812 0 L0.3594 -0.3281 Q0.625 -0.375 0.75 -0.4688 Q0.875 -0.5625 0.9688 -0.7266 Q1.0625 -0.8906 1.1328 -1.125 Q1.2031 -1.3594 1.3594 -2.0312 L2.5156 -7.2969 Q2.5938 -7.6094 2.6328 -7.9062 Q2.6719 -8.2031 2.6719 -8.4062 Q2.6719 -8.7188 2.5078 -8.8438 Q2.3438 -8.9688 2 -9 L2.0781 -9.3281 L4.8125 -9.3281 L4.7344 -9 Q4.4844 -8.9375 4.3672 -8.875 Q4.25 -8.8125 4.1562 -8.6719 Q4.0625 -8.5312 3.9766 -8.2422 Q3.8906 -7.9531 3.7344 -7.2969 L2.5781 -1.9844 Z" stroke="none"/></g><g text-rendering="optimizeLegibility" transform="translate(79.5222,24)" color-rendering="optimizeQuality" color-interpolation="linearRGB" image-rendering="optimizeQuality"><path d="M7.2188 4.25 Q5.5625 4.25 4.5078 3.75 Q3.4531 3.25 2.8672 2.2344 Q2.2812 1.2188 2.0234 -0.4141 Q1.7656 -2.0469 1.7656 -4.8438 Q1.7656 -7.625 2.0234 -9.2656 Q2.2812 -10.9062 2.8672 -11.9453 Q3.4531 -12.9844 4.5078 -13.5 Q5.5625 -14.0156 7.2188 -14.0156 L7.2188 -13.2188 Q6.5312 -13.2188 6 -13.0938 Q5.4062 -12.9531 4.9844 -12.5625 Q4.5156 -12.1406 4.2344 -11.375 Q3.8906 -10.4688 3.7188 -8.9844 Q3.5469 -7.4062 3.5469 -4.9219 Q3.5469 -2.7188 3.6953 -1.1797 Q3.8438 0.3594 4.1875 1.3281 Q4.4531 2.1562 4.8594 2.6094 Q5.2188 3.0156 5.7188 3.2188 Q6.2969 3.4531 7.2188 3.4531 L7.2188 4.25 Z" stroke="none"/></g><g text-rendering="optimizeLegibility" transform="translate(88.741,24)" color-rendering="optimizeQuality" color-interpolation="linearRGB" image-rendering="optimizeQuality"><path d="M6.7812 -2.5469 Q6.7812 -1.9844 6.8516 -1.6953 Q6.9219 -1.4062 7.0781 -1.2266 Q7.2344 -1.0469 7.5391 -0.9453 Q7.8438 -0.8438 8.3047 -0.7891 Q8.7656 -0.7344 9.5156 -0.7188 L9.5156 0 L2.2969 0 L2.2969 -0.7188 Q3.375 -0.7656 3.8438 -0.8438 Q4.3125 -0.9219 4.5547 -1.0938 Q4.7969 -1.2656 4.9062 -1.5625 Q5.0156 -1.8594 5.0156 -2.5469 L5.0156 -10.4688 Q5.0156 -10.8594 4.8828 -11.0391 Q4.75 -11.2188 4.4844 -11.2188 Q4.1719 -11.2188 3.5938 -10.8984 Q3.0156 -10.5781 2.1719 -10.0156 L1.7344 -10.7656 L6.3125 -13.4844 L6.8438 -13.4844 Q6.7812 -12.5469 6.7812 -10.8906 L6.7812 -2.5469 Z" stroke="none"/></g><g text-rendering="optimizeLegibility" transform="translate(99.0222,24)" color-rendering="optimizeQuality" color-interpolation="linearRGB" image-rendering="optimizeQuality"><path d="M1.2344 -5.0469 L1.2344 -6.3906 L9.8281 -6.3906 L9.8281 -5.0469 L1.2344 -5.0469 Z" stroke="none"/></g><g text-rendering="optimizeLegibility" transform="translate(110.866,24)" color-rendering="optimizeQuality" color-interpolation="linearRGB" image-rendering="optimizeQuality"><path d="M6.4531 -7.0625 Q6.3438 -7.9375 5.9453 -8.3359 Q5.5469 -8.7344 4.7188 -8.7344 Q4.2656 -8.7344 3.8906 -8.5625 Q3.5156 -8.3906 3.3047 -8.0625 Q3.0938 -7.7344 3.0938 -7.2969 Q3.0938 -6.9375 3.2344 -6.6406 Q3.375 -6.3438 3.7266 -6.0156 Q4.0781 -5.6875 4.7031 -5.2812 Q5.6406 -4.6406 6.0234 -4.0469 Q6.4062 -3.4531 6.4062 -2.6719 Q6.4062 -1.75 5.9688 -1.1094 Q5.5312 -0.4688 4.7656 -0.1562 Q4 0.1562 3.0469 0.1562 Q2.1875 0.1562 1.4375 0.0312 Q0.6875 -0.0938 -0.0156 -0.2969 L0.4531 -2.4062 L1.2188 -2.4062 Q1.2812 -1.5 1.7266 -1.0547 Q2.1719 -0.6094 3.0156 -0.6094 Q3.8906 -0.6094 4.375 -1.0469 Q4.8594 -1.4844 4.8594 -2.2031 Q4.8594 -2.625 4.7188 -2.9531 Q4.5781 -3.2812 4.2656 -3.5859 Q3.9531 -3.8906 3.375 -4.2812 Q2.75 -4.7031 2.375 -5.0703 Q2 -5.4375 1.7891 -5.8828 Q1.5781 -6.3281 1.5781 -6.8594 Q1.5781 -7.6719 1.9766 -8.2734 Q2.375 -8.875 3.1094 -9.1875 Q3.8438 -9.5 4.8281 -9.5 Q6.4531 -9.5 7.6719 -9.0781 L7.2344 -7.0625 L6.4531 -7.0625 Z" stroke="none"/></g><g text-rendering="optimizeLegibility" transform="translate(120.116,24)" color-rendering="optimizeQuality" color-interpolation="linearRGB" image-rendering="optimizeQuality"><path d="M0.4219 -14.0156 Q2.0781 -14.0156 3.1328 -13.5156 Q4.1875 -13.0156 4.7734 -12 Q5.3594 -10.9844 5.6172 -9.3516 Q5.875 -7.7188 5.875 -4.9219 Q5.875 -2.1562 5.6172 -0.5078 Q5.3594 1.1406 4.7734 2.1797 Q4.1875 3.2188 3.1328 3.7344 Q2.0781 4.25 0.4219 4.25 L0.4219 3.4531 Q1.1094 3.4531 1.625 3.3281 Q2.2344 3.1875 2.6406 2.7969 Q3.1094 2.375 3.4062 1.6094 Q3.75 0.7031 3.9219 -0.7812 Q4.0938 -2.3594 4.0938 -4.8438 Q4.0938 -7.0469 3.9453 -8.5859 Q3.7969 -10.125 3.4531 -11.0938 Q3.1875 -11.9219 2.7812 -12.375 Q2.4062 -12.7812 1.9219 -12.9844 Q1.3438 -13.2188 0.4219 -13.2188 L0.4219 -14.0156 Z" stroke="none"/></g><g text-rendering="optimizeLegibility" transform="translate(128.7722,24)" color-rendering="optimizeQuality" color-interpolation="linearRGB" image-rendering="optimizeQuality"><path d="M6.25 -5.0469 L6.25 -1.3438 L4.8125 -1.3438 L4.8125 -5.0469 L1.2188 -5.0469 L1.2188 -6.3906 L4.8125 -6.3906 L4.8125 -10.0938 L6.25 -10.0938 L6.25 -6.3906 L9.8594 -6.3906 L9.8594 -5.0469 L6.25 -5.0469 Z" stroke="none"/></g><g text-rendering="optimizeLegibility" transform="translate(140.6316,24)" color-rendering="optimizeQuality" color-interpolation="linearRGB" image-rendering="optimizeQuality"><path d="M4.3594 0.1562 Q1.2188 0.1562 1.2188 -3.7812 Q1.2188 -7.1719 3.0547 -10.4688 Q4.8906 -13.7656 7.7031 -13.7656 Q10.6406 -13.7656 10.6406 -9.9062 Q10.6406 -6.4844 8.8594 -3.1641 Q7.0781 0.1562 4.3594 0.1562 ZM3.6094 -7.5469 L8.625 -7.5469 Q9 -9.6094 9 -10.7188 Q9 -12.9375 7.5 -12.9375 Q6.3594 -12.9375 5.3438 -11.5312 Q4.3281 -10.125 3.6094 -7.5469 ZM3.3594 -6.625 Q2.8438 -4.4219 2.8438 -2.9219 Q2.8438 -0.6719 4.5469 -0.6719 Q5.75 -0.6719 6.75 -2.2422 Q7.75 -3.8125 8.4219 -6.625 L3.3594 -6.625 Z" stroke="none"/></g><g text-rendering="optimizeLegibility" transform="translate(152.991,27.3203)" color-rendering="optimizeQuality" color-interpolation="linearRGB" image-rendering="optimizeQuality"><path d="M1.2656 -5.0469 Q1.2031 -5.5625 1.1406 -5.7656 Q1.0781 -5.9688 0.9375 -6.0781 Q0.7969 -6.1875 0.5 -6.2031 L0.5625 -6.5312 L2.3281 -6.5312 L2.8438 -1.0938 Q5.1562 -4.2656 5.1562 -5.625 Q5.1562 -5.9531 5.0156 -6.0703 Q4.875 -6.1875 4.5469 -6.2031 L4.625 -6.5312 L6.3906 -6.5312 L6.5625 -6.1875 Q6.2031 -5.25 5.6406 -4.2266 Q5.0781 -3.2031 4.2656 -1.9922 Q3.4531 -0.7812 2.4531 0.5156 Q1.6875 1.5312 1.1562 2.0312 Q0.7656 2.4219 0.4219 2.625 Q0.0781 2.8281 -0.2344 2.9141 Q-0.5469 3 -0.9062 3 Q-1.0938 3 -1.3281 2.9609 Q-1.5625 2.9219 -1.7188 2.8594 L-1.4219 1.5938 L-0.8906 1.5938 Q-0.8906 1.8125 -0.7891 1.9531 Q-0.6875 2.0938 -0.4844 2.0938 Q-0.2656 2.0938 -0.1094 2.0469 Q0.0469 2 0.2188 1.8984 Q0.3906 1.7969 0.6406 1.5703 Q0.8906 1.3438 1.2109 0.9766 Q1.5312 0.6094 1.9219 0.0781 L1.2656 -5.0469 Z" stroke="none"/></g><g text-rendering="optimizeLegibility" transform="translate(161.1003,27.3203)" color-rendering="optimizeQuality" color-interpolation="linearRGB" image-rendering="optimizeQuality"><path d="M2.0625 -0.2969 Q1.8281 0.7656 1.4609 1.3984 Q1.0938 2.0312 0.5156 2.3359 Q-0.0625 2.6406 -0.8906 2.6406 Q-1.0781 2.6406 -1.2578 2.625 Q-1.4375 2.6094 -1.5469 2.5781 L-1.375 1.9219 Q-1.2656 1.9531 -1.125 1.9609 Q-0.9844 1.9688 -0.8438 1.9688 Q-0.4531 1.9688 -0.1641 1.7891 Q0.125 1.6094 0.3672 1.1562 Q0.6094 0.7031 0.7812 -0.0938 L2.375 -7.2969 Q2.4531 -7.6094 2.4922 -7.9062 Q2.5312 -8.2031 2.5312 -8.4062 Q2.5312 -8.7188 2.3672 -8.8438 Q2.2031 -8.9688 1.8594 -9 L1.9375 -9.3281 L4.6719 -9.3281 L4.5938 -9 Q4.3281 -8.9375 4.2188 -8.875 Q4.1094 -8.8125 4.0156 -8.6719 Q3.9219 -8.5312 3.8281 -8.2422 Q3.7344 -7.9531 3.5938 -7.2969 L2.0625 -0.2969 Z" stroke="none"/></g><g text-rendering="optimizeLegibility" transform="translate(166.0066,24)" color-rendering="optimizeQuality" color-interpolation="linearRGB" image-rendering="optimizeQuality"><path d="M7.2188 4.25 Q5.5625 4.25 4.5078 3.75 Q3.4531 3.25 2.8672 2.2344 Q2.2812 1.2188 2.0234 -0.4141 Q1.7656 -2.0469 1.7656 -4.8438 Q1.7656 -7.625 2.0234 -9.2656 Q2.2812 -10.9062 2.8672 -11.9453 Q3.4531 -12.9844 4.5078 -13.5 Q5.5625 -14.0156 7.2188 -14.0156 L7.2188 -13.2188 Q6.5312 -13.2188 6 -13.0938 Q5.4062 -12.9531 4.9844 -12.5625 Q4.5156 -12.1406 4.2344 -11.375 Q3.8906 -10.4688 3.7188 -8.9844 Q3.5469 -7.4062 3.5469 -4.9219 Q3.5469 -2.7188 3.6953 -1.1797 Q3.8438 0.3594 4.1875 1.3281 Q4.4531 2.1562 4.8594 2.6094 Q5.2188 3.0156 5.7188 3.2188 Q6.2969 3.4531 7.2188 3.4531 L7.2188 4.25 Z" stroke="none"/></g><g text-rendering="optimizeLegibility" transform="translate(175.2253,24)" color-rendering="optimizeQuality" color-interpolation="linearRGB" image-rendering="optimizeQuality"><path d="M6.7812 -2.5469 Q6.7812 -1.9844 6.8516 -1.6953 Q6.9219 -1.4062 7.0781 -1.2266 Q7.2344 -1.0469 7.5391 -0.9453 Q7.8438 -0.8438 8.3047 -0.7891 Q8.7656 -0.7344 9.5156 -0.7188 L9.5156 0 L2.2969 0 L2.2969 -0.7188 Q3.375 -0.7656 3.8438 -0.8438 Q4.3125 -0.9219 4.5547 -1.0938 Q4.7969 -1.2656 4.9062 -1.5625 Q5.0156 -1.8594 5.0156 -2.5469 L5.0156 -10.4688 Q5.0156 -10.8594 4.8828 -11.0391 Q4.75 -11.2188 4.4844 -11.2188 Q4.1719 -11.2188 3.5938 -10.8984 Q3.0156 -10.5781 2.1719 -10.0156 L1.7344 -10.7656 L6.3125 -13.4844 L6.8438 -13.4844 Q6.7812 -12.5469 6.7812 -10.8906 L6.7812 -2.5469 Z" stroke="none"/></g><g text-rendering="optimizeLegibility" transform="translate(185.5222,24)" color-rendering="optimizeQuality" color-interpolation="linearRGB" image-rendering="optimizeQuality"><path d="M6.25 -5.0469 L6.25 -1.3438 L4.8125 -1.3438 L4.8125 -5.0469 L1.2188 -5.0469 L1.2188 -6.3906 L4.8125 -6.3906 L4.8125 -10.0938 L6.25 -10.0938 L6.25 -6.3906 L9.8594 -6.3906 L9.8594 -5.0469 L6.25 -5.0469 Z" stroke="none"/></g><g text-rendering="optimizeLegibility" transform="translate(197.3972,24)" color-rendering="optimizeQuality" color-interpolation="linearRGB" image-rendering="optimizeQuality"><path d="M6.4531 -7.0625 Q6.3438 -7.9375 5.9453 -8.3359 Q5.5469 -8.7344 4.7188 -8.7344 Q4.2656 -8.7344 3.8906 -8.5625 Q3.5156 -8.3906 3.3047 -8.0625 Q3.0938 -7.7344 3.0938 -7.2969 Q3.0938 -6.9375 3.2344 -6.6406 Q3.375 -6.3438 3.7266 -6.0156 Q4.0781 -5.6875 4.7031 -5.2812 Q5.6406 -4.6406 6.0234 -4.0469 Q6.4062 -3.4531 6.4062 -2.6719 Q6.4062 -1.75 5.9688 -1.1094 Q5.5312 -0.4688 4.7656 -0.1562 Q4 0.1562 3.0469 0.1562 Q2.1875 0.1562 1.4375 0.0312 Q0.6875 -0.0938 -0.0156 -0.2969 L0.4531 -2.4062 L1.2188 -2.4062 Q1.2812 -1.5 1.7266 -1.0547 Q2.1719 -0.6094 3.0156 -0.6094 Q3.8906 -0.6094 4.375 -1.0469 Q4.8594 -1.4844 4.8594 -2.2031 Q4.8594 -2.625 4.7188 -2.9531 Q4.5781 -3.2812 4.2656 -3.5859 Q3.9531 -3.8906 3.375 -4.2812 Q2.75 -4.7031 2.375 -5.0703 Q2 -5.4375 1.7891 -5.8828 Q1.5781 -6.3281 1.5781 -6.8594 Q1.5781 -7.6719 1.9766 -8.2734 Q2.375 -8.875 3.1094 -9.1875 Q3.8438 -9.5 4.8281 -9.5 Q6.4531 -9.5 7.6719 -9.0781 L7.2344 -7.0625 L6.4531 -7.0625 Z" stroke="none"/></g><g text-rendering="optimizeLegibility" transform="translate(206.6472,24)" color-rendering="optimizeQuality" color-interpolation="linearRGB" image-rendering="optimizeQuality"><path d="M0.4219 -14.0156 Q2.0781 -14.0156 3.1328 -13.5156 Q4.1875 -13.0156 4.7734 -12 Q5.3594 -10.9844 5.6172 -9.3516 Q5.875 -7.7188 5.875 -4.9219 Q5.875 -2.1562 5.6172 -0.5078 Q5.3594 1.1406 4.7734 2.1797 Q4.1875 3.2188 3.1328 3.7344 Q2.0781 4.25 0.4219 4.25 L0.4219 3.4531 Q1.1094 3.4531 1.625 3.3281 Q2.2344 3.1875 2.6406 2.7969 Q3.1094 2.375 3.4062 1.6094 Q3.75 0.7031 3.9219 -0.7812 Q4.0938 -2.3594 4.0938 -4.8438 Q4.0938 -7.0469 3.9453 -8.5859 Q3.7969 -10.125 3.4531 -11.0938 Q3.1875 -11.9219 2.7812 -12.375 Q2.4062 -12.7812 1.9219 -12.9844 Q1.3438 -13.2188 0.4219 -13.2188 L0.4219 -14.0156 Z" stroke="none"/></g><g text-rendering="optimizeLegibility" transform="translate(216.1003,24)" color-rendering="optimizeQuality" color-interpolation="linearRGB" image-rendering="optimizeQuality"><path d="M0.4219 -14.0156 Q2.0781 -14.0156 3.1328 -13.5156 Q4.1875 -13.0156 4.7734 -12 Q5.3594 -10.9844 5.6172 -9.3516 Q5.875 -7.7188 5.875 -4.9219 Q5.875 -2.1562 5.6172 -0.5078 Q5.3594 1.1406 4.7734 2.1797 Q4.1875 3.2188 3.1328 3.7344 Q2.0781 4.25 0.4219 4.25 L0.4219 3.4531 Q1.1094 3.4531 1.625 3.3281 Q2.2344 3.1875 2.6406 2.7969 Q3.1094 2.375 3.4062 1.6094 Q3.75 0.7031 3.9219 -0.7812 Q4.0938 -2.3594 4.0938 -4.8438 Q4.0938 -7.0469 3.9453 -8.5859 Q3.7969 -10.125 3.4531 -11.0938 Q3.1875 -11.9219 2.7812 -12.375 Q2.4062 -12.7812 1.9219 -12.9844 Q1.3438 -13.2188 0.4219 -13.2188 L0.4219 -14.0156 Z" stroke="none"/></g></g></svg>