<?xml version="1.0" encoding="UTF-8" standalone="no"?><svg xmlns="http://www.w3.org/2000/svg" xmlns:xlink="http://www.w3.org/1999/xlink" stroke-dasharray="none" shape-rendering="auto" font-family="'Dialog'" width="118.812600" text-rendering="auto" fill-opacity="1" contentScriptType="text/ecmascript" color-interpolation="auto" color-rendering="auto" preserveAspectRatio="xMidYMid meet" font-size="12" fill="black" stroke="black" image-rendering="auto" stroke-miterlimit="10" zoomAndPan="magnify" version="1.0" stroke-linecap="square" stroke-linejoin="miter" contentStyleType="text/css" font-style="normal" height="24" stroke-width="1" stroke-dashoffset="0" font-weight="normal" stroke-opacity="1" y="-5.000000"><!--Converted from MathML using JEuclid--><defs id="genericDefs"/><g><g text-rendering="optimizeLegibility" transform="translate(0,19)" color-rendering="optimizeQuality" color-interpolation="linearRGB" image-rendering="optimizeQuality"><path d="M3.0312 -2.2656 L3.0312 0 L1.0625 0 L1.0625 -2.2656 L3.0312 -2.2656 ZM5.4688 -0.5312 L5.4688 -2.6094 L6.6406 -2.6094 Q6.9375 -1.6094 7.5312 -1.1406 Q8.125 -0.6719 9.0625 -0.6719 Q10.3594 -0.6719 11.0234 -1.4531 Q11.6875 -2.2344 11.6875 -3.7969 Q11.6875 -4.8281 11.3359 -5.5078 Q10.9844 -6.1875 10.3906 -6.4844 Q9.7969 -6.7812 9 -6.7812 Q8.3438 -6.7812 7.8594 -6.7031 Q7.375 -6.625 6.8281 -6.4531 L6.0469 -6.9062 L6.0469 -13.3281 L11.4375 -13.3281 Q11.7656 -13.3281 11.9141 -13.3828 Q12.0625 -13.4375 12.1484 -13.5469 Q12.2344 -13.6562 12.3438 -13.9688 L13.1094 -13.9688 L12.9688 -11.7031 L7.3438 -11.7031 L7.3438 -7.4219 Q7.8594 -7.6406 8.4531 -7.75 Q9.0469 -7.8594 9.6406 -7.8594 Q10.8125 -7.8594 11.7109 -7.3828 Q12.6094 -6.9062 13.0938 -6.0312 Q13.5781 -5.1562 13.5781 -4 Q13.5781 -2.7031 13.0312 -1.7656 Q12.4844 -0.8281 11.4531 -0.3359 Q10.4219 0.1562 9 0.1562 Q7.3125 0.1562 5.4688 -0.5312 Z" stroke="none"/></g><g text-rendering="optimizeLegibility" transform="translate(14.3594,19)" color-rendering="optimizeQuality" color-interpolation="linearRGB" image-rendering="optimizeQuality"><path d="M1.2188 -5.0312 L1.2188 -6.3906 L9.8594 -10.125 L9.8594 -8.6562 L2.6562 -5.7188 L9.8594 -2.7812 L9.8594 -1.3125 L1.2188 -5.0312 Z" stroke="none"/></g><g text-rendering="optimizeLegibility" transform="translate(26.2188,19)" color-rendering="optimizeQuality" color-interpolation="linearRGB" image-rendering="optimizeQuality"><path d="M3.8906 -9.4219 L4.4688 -9.4219 L3.7969 -7.0156 L3.9062 -6.9844 Q4.8281 -8.2656 5.7188 -8.8828 Q6.6094 -9.5 7.5469 -9.5 Q8.25 -9.5 8.7344 -9.3906 L8.2656 -7.2031 L7.25 -7.2031 Q7.1719 -7.7031 7.0078 -7.9688 Q6.8438 -8.2344 6.5 -8.2344 Q6.1094 -8.2344 5.6172 -7.8438 Q5.125 -7.4531 4.6016 -6.7656 Q4.0781 -6.0781 3.8203 -5.5078 Q3.5625 -4.9375 3.4219 -4.2344 L2.5469 0 L0.8438 0 L2.3281 -6.6719 Q2.5469 -7.5938 2.5469 -8.0625 Q2.5469 -8.3438 2.4531 -8.4922 Q2.3594 -8.6406 2.1641 -8.7188 Q1.9688 -8.7969 1.5 -8.8125 L1.6094 -9.3438 L3.8906 -9.4219 Z" stroke="none"/></g><g text-rendering="optimizeLegibility" transform="translate(34.9531,23.7188)" color-rendering="optimizeQuality" color-interpolation="linearRGB" image-rendering="optimizeQuality"><path d="M4.75 -1.7812 Q4.75 -1.3906 4.7969 -1.1875 Q4.8438 -0.9844 4.9531 -0.8594 Q5.0625 -0.7344 5.2734 -0.6641 Q5.4844 -0.5938 5.8047 -0.5547 Q6.125 -0.5156 6.6562 -0.5 L6.6562 0 L1.6094 0 L1.6094 -0.5 Q2.3594 -0.5312 2.6875 -0.5938 Q3.0156 -0.6562 3.1875 -0.7656 Q3.3594 -0.875 3.4375 -1.0938 Q3.5156 -1.3125 3.5156 -1.7812 L3.5156 -7.3281 Q3.5156 -7.6094 3.4219 -7.7344 Q3.3281 -7.8594 3.1406 -7.8594 Q2.9219 -7.8594 2.5156 -7.6328 Q2.1094 -7.4062 1.5156 -7 L1.2188 -7.5312 L4.4219 -9.4375 L4.7969 -9.4375 Q4.75 -8.7812 4.75 -7.625 L4.75 -1.7812 Z" stroke="none"/></g><g text-rendering="optimizeLegibility" transform="translate(43,17.9188) matrix(1,0,0,1.2572,0,0)" color-rendering="optimizeQuality" color-interpolation="linearRGB" image-rendering="optimizeQuality"><path d="M9.1875 -13.9688 L2.1406 4.2031 L0.6094 4.2031 L7.6719 -13.9688 L9.1875 -13.9688 Z" stroke="none"/></g><g text-rendering="optimizeLegibility" transform="translate(54.1875,19)" color-rendering="optimizeQuality" color-interpolation="linearRGB" image-rendering="optimizeQuality"><path d="M3.8906 -9.4219 L4.4688 -9.4219 L3.7969 -7.0156 L3.9062 -6.9844 Q4.8281 -8.2656 5.7188 -8.8828 Q6.6094 -9.5 7.5469 -9.5 Q8.25 -9.5 8.7344 -9.3906 L8.2656 -7.2031 L7.25 -7.2031 Q7.1719 -7.7031 7.0078 -7.9688 Q6.8438 -8.2344 6.5 -8.2344 Q6.1094 -8.2344 5.6172 -7.8438 Q5.125 -7.4531 4.6016 -6.7656 Q4.0781 -6.0781 3.8203 -5.5078 Q3.5625 -4.9375 3.4219 -4.2344 L2.5469 0 L0.8438 0 L2.3281 -6.6719 Q2.5469 -7.5938 2.5469 -8.0625 Q2.5469 -8.3438 2.4531 -8.4922 Q2.3594 -8.6406 2.1641 -8.7188 Q1.9688 -8.7969 1.5 -8.8125 L1.6094 -9.3438 L3.8906 -9.4219 Z" stroke="none"/></g><g text-rendering="optimizeLegibility" transform="translate(62.9219,23.7188)" color-rendering="optimizeQuality" color-interpolation="linearRGB" image-rendering="optimizeQuality"><path d="M4.7969 -1.0938 Q5.1406 -1.0938 5.3438 -1.1328 Q5.5469 -1.1719 5.6719 -1.2734 Q5.7969 -1.375 5.8672 -1.5234 Q5.9375 -1.6719 6.0469 -2 L6.625 -2 L6.5156 0 L0.875 0 L0.875 -0.3281 Q1.1719 -1.0469 1.6719 -1.7969 Q2.1719 -2.5469 3.0938 -3.5625 Q3.8906 -4.4375 4.2344 -4.8906 Q4.6094 -5.3906 4.7969 -5.75 Q4.9844 -6.1094 5.0703 -6.4219 Q5.1562 -6.7344 5.1562 -7.0625 Q5.1562 -7.5781 4.9922 -7.9688 Q4.8281 -8.3594 4.4922 -8.5859 Q4.1562 -8.8125 3.6406 -8.8125 Q2.3594 -8.8125 1.9219 -7.3906 L1.0938 -7.3906 L1.0938 -8.7031 Q1.9219 -9.0938 2.6406 -9.2656 Q3.3594 -9.4375 3.9375 -9.4375 Q5.2031 -9.4375 5.8516 -8.8828 Q6.5 -8.3281 6.5 -7.2656 Q6.5 -6.9062 6.4297 -6.6016 Q6.3594 -6.2969 6.2031 -6 Q6.0469 -5.7031 5.7891 -5.3594 Q5.5312 -5.0156 5.2188 -4.6641 Q4.9062 -4.3125 4.125 -3.5 Q2.8281 -2.125 2.2188 -1.0938 L4.7969 -1.0938 Z" stroke="none"/></g><g text-rendering="optimizeLegibility" transform="translate(70.3281,19)" color-rendering="optimizeQuality" color-interpolation="linearRGB" image-rendering="optimizeQuality"><path d="M1.2188 -5.0312 L1.2188 -6.3906 L9.8594 -10.125 L9.8594 -8.6562 L2.6562 -5.7188 L9.8594 -2.7812 L9.8594 -1.3125 L1.2188 -5.0312 Z" stroke="none"/></g><g text-rendering="optimizeLegibility" transform="translate(82.1875,19)" color-rendering="optimizeQuality" color-interpolation="linearRGB" image-rendering="optimizeQuality"><path d="M6.7812 -2.5469 Q6.7812 -1.9844 6.8516 -1.6953 Q6.9219 -1.4062 7.0781 -1.2266 Q7.2344 -1.0469 7.5391 -0.9453 Q7.8438 -0.8438 8.3047 -0.7891 Q8.7656 -0.7344 9.5156 -0.7188 L9.5156 0 L2.2969 0 L2.2969 -0.7188 Q3.375 -0.7656 3.8438 -0.8438 Q4.3125 -0.9219 4.5547 -1.0938 Q4.7969 -1.2656 4.9062 -1.5625 Q5.0156 -1.8594 5.0156 -2.5469 L5.0156 -10.4688 Q5.0156 -10.8594 4.8828 -11.0391 Q4.75 -11.2188 4.4844 -11.2188 Q4.1719 -11.2188 3.5938 -10.8984 Q3.0156 -10.5781 2.1719 -10.0156 L1.7344 -10.7656 L6.3125 -13.4844 L6.8438 -13.4844 Q6.7812 -12.5469 6.7812 -10.8906 L6.7812 -2.5469 ZM14.0312 -2.2656 L14.0312 0 L12.0625 0 L12.0625 -2.2656 L14.0312 -2.2656 ZM21.8594 -1.5625 Q22.3281 -1.5625 22.625 -1.625 Q22.9219 -1.6875 23.0938 -1.8203 Q23.2656 -1.9531 23.375 -2.1719 Q23.4844 -2.3906 23.6406 -2.8594 L24.4688 -2.8594 L24.2969 0 L16.2656 0 L16.2656 -0.4688 Q16.6875 -1.5 17.3984 -2.5703 Q18.1094 -3.6406 19.4219 -5.0938 Q20.5469 -6.3438 21.0469 -7 Q21.5938 -7.7031 21.8594 -8.2109 Q22.125 -8.7188 22.2422 -9.1719 Q22.3594 -9.625 22.3594 -10.0938 Q22.3594 -10.8281 22.125 -11.3828 Q21.8906 -11.9375 21.4062 -12.2656 Q20.9219 -12.5938 20.2031 -12.5938 Q18.375 -12.5938 17.7344 -10.5625 L16.5469 -10.5625 L16.5469 -12.4375 Q17.7344 -12.9844 18.7656 -13.2344 Q19.7969 -13.4844 20.6094 -13.4844 Q22.4375 -13.4844 23.3594 -12.6875 Q24.2812 -11.8906 24.2812 -10.375 Q24.2812 -9.8594 24.1797 -9.4297 Q24.0781 -9 23.8594 -8.5703 Q23.6406 -8.1406 23.2734 -7.6562 Q22.9062 -7.1719 22.4531 -6.6641 Q22 -6.1562 20.9062 -4.9844 Q19.0469 -3.0312 18.1719 -1.5625 L21.8594 -1.5625 ZM27.4688 -0.5312 L27.4688 -2.6094 L28.6406 -2.6094 Q28.9375 -1.6094 29.5312 -1.1406 Q30.125 -0.6719 31.0625 -0.6719 Q32.3594 -0.6719 33.0234 -1.4531 Q33.6875 -2.2344 33.6875 -3.7969 Q33.6875 -4.8281 33.3359 -5.5078 Q32.9844 -6.1875 32.3906 -6.4844 Q31.7969 -6.7812 31 -6.7812 Q30.3438 -6.7812 29.8594 -6.7031 Q29.375 -6.625 28.8281 -6.4531 L28.0469 -6.9062 L28.0469 -13.3281 L33.4375 -13.3281 Q33.7656 -13.3281 33.9141 -13.3828 Q34.0625 -13.4375 34.1484 -13.5469 Q34.2344 -13.6562 34.3438 -13.9688 L35.1094 -13.9688 L34.9688 -11.7031 L29.3438 -11.7031 L29.3438 -7.4219 Q29.8594 -7.6406 30.4531 -7.75 Q31.0469 -7.8594 31.6406 -7.8594 Q32.8125 -7.8594 33.7109 -7.3828 Q34.6094 -6.9062 35.0938 -6.0312 Q35.5781 -5.1562 35.5781 -4 Q35.5781 -2.7031 35.0312 -1.7656 Q34.4844 -0.8281 33.4531 -0.3359 Q32.4219 0.1562 31 0.1562 Q29.3125 0.1562 27.4688 -0.5312 Z" stroke="none"/></g></g></svg>