<?xml version="1.0" encoding="UTF-8" standalone="no"?><svg xmlns="http://www.w3.org/2000/svg" xmlns:xlink="http://www.w3.org/1999/xlink" stroke-dasharray="none" shape-rendering="auto" font-family="'Dialog'" width="163.812600" text-rendering="auto" fill-opacity="1" contentScriptType="text/ecmascript" color-interpolation="auto" color-rendering="auto" preserveAspectRatio="xMidYMid meet" font-size="12" fill="black" stroke="black" image-rendering="auto" stroke-miterlimit="10" zoomAndPan="magnify" version="1.0" stroke-linecap="square" stroke-linejoin="miter" contentStyleType="text/css" font-style="normal" height="42" stroke-width="1" stroke-dashoffset="0" font-weight="normal" stroke-opacity="1" y="-14.000000"><!--Converted from MathML using JEuclid--><defs id="genericDefs"/><g><g text-rendering="optimizeLegibility" transform="translate(0,28)" color-rendering="optimizeQuality" color-interpolation="linearRGB" image-rendering="optimizeQuality"><path d="M9.625 -12.5469 L9.1875 -12.5 Q7.5156 -12.3594 6.0547 -11.4609 Q4.5938 -10.5625 4.5938 -9.3125 Q4.5938 -8.6562 5.1562 -8.2969 Q5.7188 -7.9375 6.5312 -7.9375 Q6.8594 -7.9375 7.1719 -8 L7.9375 -8.1406 L7.7656 -7.2031 L7.1562 -7.0781 Q5.2656 -6.7188 3.9453 -5.8516 Q2.625 -4.9844 2.625 -3.7812 Q2.625 -3.0938 3.0312 -2.6172 Q3.4375 -2.1406 4.5938 -1.625 Q5.7812 -1.1094 6.25 -0.5703 Q6.7188 -0.0312 6.7188 0.7812 Q6.7188 1.7656 5.8828 2.6562 Q5.0469 3.5469 3.6094 4 L3.25 3.4219 Q4.2969 3.0625 4.9453 2.4766 Q5.5938 1.8906 5.5938 1.2812 Q5.5938 0.7344 5.2031 0.4219 Q4.8125 0.1094 3.4062 -0.4375 Q0.8281 -1.4531 0.8281 -3.4375 Q0.8281 -4.8281 2.0234 -5.875 Q3.2188 -6.9219 5.0938 -7.3438 L5.0938 -7.4219 Q4.0625 -7.5156 3.4453 -8.0312 Q2.8281 -8.5469 2.8281 -9.3594 Q2.8281 -11.4062 6.6875 -12.4688 L6.6875 -12.5 L6.2656 -12.5 Q4.0469 -12.5 3.5312 -13.7812 L5.0156 -14.0312 Q5.3594 -13.2188 7.2344 -13.2188 Q7.9375 -13.2188 8.5312 -13.3281 Q9.125 -13.4219 9.8281 -13.5156 L9.625 -12.5469 Z" stroke="none"/></g><g text-rendering="optimizeLegibility" transform="translate(9.8281,36.6094)" color-rendering="optimizeQuality" color-interpolation="linearRGB" image-rendering="optimizeQuality"><path d="M3.8281 -9.2188 L3.5156 -7.8906 L2.2969 -7.8906 L2.625 -9.2188 L3.8281 -9.2188 ZM2.1406 -1.7031 Q2.0625 -1.3594 2.0469 -1.2031 Q2.0312 -1.0469 2.0312 -0.9375 Q2.0312 -0.7188 2.0938 -0.6094 Q2.1562 -0.5 2.3047 -0.4375 Q2.4531 -0.375 2.7812 -0.3281 L2.7188 0 L0.5938 0 L1.625 -4.6094 Q1.7188 -5 1.75 -5.2344 Q1.7812 -5.4688 1.7812 -5.6406 Q1.7812 -5.8281 1.7266 -5.9375 Q1.6719 -6.0469 1.5312 -6.1016 Q1.3906 -6.1562 1.0625 -6.1719 L1.1406 -6.5312 L2.7969 -6.5938 L3.2031 -6.5938 L2.1406 -1.7031 Z" stroke="none"/></g><g text-rendering="optimizeLegibility" transform="translate(9.8281,18.8047)" color-rendering="optimizeQuality" color-interpolation="linearRGB" image-rendering="optimizeQuality"><path d="M5.9531 -7.8438 Q6 -8.0781 6.0391 -8.3516 Q6.0781 -8.625 6.0781 -8.8281 Q6.0781 -9.0312 6.0078 -9.1406 Q5.9375 -9.25 5.7969 -9.2969 Q5.6562 -9.3438 5.2969 -9.3594 L5.375 -9.7188 L7.0938 -9.7812 L7.5 -9.7812 L5.7188 -1.9062 Q5.625 -1.4688 5.5938 -1.2578 Q5.5625 -1.0469 5.5625 -0.9062 Q5.5625 -0.625 5.7188 -0.5 Q5.875 -0.375 6.3125 -0.3281 L6.25 0 L4.2969 0 L4.7344 -1.7188 L4.6406 -1.75 Q3.9844 -0.7812 3.3984 -0.3359 Q2.8125 0.1094 2.1562 0.1094 Q1.4062 0.1094 0.9922 -0.4609 Q0.5781 -1.0312 0.5781 -2.0625 Q0.5781 -2.7188 0.7266 -3.375 Q0.875 -4.0312 1.1797 -4.625 Q1.4844 -5.2188 1.9062 -5.6719 Q2.3281 -6.125 2.8906 -6.3906 Q3.4531 -6.6562 4.1094 -6.6562 Q4.5156 -6.6562 4.8672 -6.5703 Q5.2188 -6.4844 5.5938 -6.2656 L5.9531 -7.8438 ZM5.0938 -4.1562 Q5.2031 -4.6562 5.2031 -5.0938 Q5.2031 -5.625 4.9766 -5.8672 Q4.75 -6.1094 4.2188 -6.1094 Q3.9375 -6.1094 3.6797 -6.0156 Q3.4219 -5.9219 3.1562 -5.7109 Q2.8906 -5.5 2.6484 -5.1484 Q2.4062 -4.7969 2.2031 -4.2969 Q2 -3.7969 1.8906 -3.2266 Q1.7812 -2.6562 1.7812 -2.125 Q1.7812 -1.4062 1.9766 -1.0547 Q2.1719 -0.7031 2.625 -0.7031 Q2.8438 -0.7031 3.0703 -0.7969 Q3.2969 -0.8906 3.5781 -1.1484 Q3.8594 -1.4062 4.2188 -1.9062 Q4.5469 -2.3594 4.7344 -2.8125 Q4.9219 -3.2656 5.0312 -3.875 L5.0938 -4.1562 Z" stroke="none"/></g><g text-rendering="optimizeLegibility" transform="translate(18.1094,28)" color-rendering="optimizeQuality" color-interpolation="linearRGB" image-rendering="optimizeQuality"><path d="M1.2188 -7.0625 L1.2188 -8.4219 L9.8594 -8.4219 L9.8594 -7.0625 L1.2188 -7.0625 ZM1.2188 -3.0156 L1.2188 -4.3594 L9.8594 -4.3594 L9.8594 -3.0156 L1.2188 -3.0156 Z" stroke="none"/></g><g text-rendering="optimizeLegibility" transform="translate(29.9688,28)" color-rendering="optimizeQuality" color-interpolation="linearRGB" image-rendering="optimizeQuality"><path d="M9.625 -12.5469 L9.1875 -12.5 Q7.5156 -12.3594 6.0547 -11.4609 Q4.5938 -10.5625 4.5938 -9.3125 Q4.5938 -8.6562 5.1562 -8.2969 Q5.7188 -7.9375 6.5312 -7.9375 Q6.8594 -7.9375 7.1719 -8 L7.9375 -8.1406 L7.7656 -7.2031 L7.1562 -7.0781 Q5.2656 -6.7188 3.9453 -5.8516 Q2.625 -4.9844 2.625 -3.7812 Q2.625 -3.0938 3.0312 -2.6172 Q3.4375 -2.1406 4.5938 -1.625 Q5.7812 -1.1094 6.25 -0.5703 Q6.7188 -0.0312 6.7188 0.7812 Q6.7188 1.7656 5.8828 2.6562 Q5.0469 3.5469 3.6094 4 L3.25 3.4219 Q4.2969 3.0625 4.9453 2.4766 Q5.5938 1.8906 5.5938 1.2812 Q5.5938 0.7344 5.2031 0.4219 Q4.8125 0.1094 3.4062 -0.4375 Q0.8281 -1.4531 0.8281 -3.4375 Q0.8281 -4.8281 2.0234 -5.875 Q3.2188 -6.9219 5.0938 -7.3438 L5.0938 -7.4219 Q4.0625 -7.5156 3.4453 -8.0312 Q2.8281 -8.5469 2.8281 -9.3594 Q2.8281 -11.4062 6.6875 -12.4688 L6.6875 -12.5 L6.2656 -12.5 Q4.0469 -12.5 3.5312 -13.7812 L5.0156 -14.0312 Q5.3594 -13.2188 7.2344 -13.2188 Q7.9375 -13.2188 8.5312 -13.3281 Q9.125 -13.4219 9.8281 -13.5156 L9.625 -12.5469 Z" stroke="none"/></g><g text-rendering="optimizeLegibility" transform="translate(40.5781,28)" color-rendering="optimizeQuality" color-interpolation="linearRGB" image-rendering="optimizeQuality"><path d="M6.25 -5.0469 L6.25 -1.3438 L4.8125 -1.3438 L4.8125 -5.0469 L1.2188 -5.0469 L1.2188 -6.3906 L4.8125 -6.3906 L4.8125 -10.0938 L6.25 -10.0938 L6.25 -6.3906 L9.8594 -6.3906 L9.8594 -5.0469 L6.25 -5.0469 Z" stroke="none"/></g><g text-rendering="optimizeLegibility" transform="translate(52.4375,28)" color-rendering="optimizeQuality" color-interpolation="linearRGB" image-rendering="optimizeQuality"><path d="M9.625 -12.5469 L9.1875 -12.5 Q7.5156 -12.3594 6.0547 -11.4609 Q4.5938 -10.5625 4.5938 -9.3125 Q4.5938 -8.6562 5.1562 -8.2969 Q5.7188 -7.9375 6.5312 -7.9375 Q6.8594 -7.9375 7.1719 -8 L7.9375 -8.1406 L7.7656 -7.2031 L7.1562 -7.0781 Q5.2656 -6.7188 3.9453 -5.8516 Q2.625 -4.9844 2.625 -3.7812 Q2.625 -3.0938 3.0312 -2.6172 Q3.4375 -2.1406 4.5938 -1.625 Q5.7812 -1.1094 6.25 -0.5703 Q6.7188 -0.0312 6.7188 0.7812 Q6.7188 1.7656 5.8828 2.6562 Q5.0469 3.5469 3.6094 4 L3.25 3.4219 Q4.2969 3.0625 4.9453 2.4766 Q5.5938 1.8906 5.5938 1.2812 Q5.5938 0.7344 5.2031 0.4219 Q4.8125 0.1094 3.4062 -0.4375 Q0.8281 -1.4531 0.8281 -3.4375 Q0.8281 -4.8281 2.0234 -5.875 Q3.2188 -6.9219 5.0938 -7.3438 L5.0938 -7.4219 Q4.0625 -7.5156 3.4453 -8.0312 Q2.8281 -8.5469 2.8281 -9.3594 Q2.8281 -11.4062 6.6875 -12.4688 L6.6875 -12.5 L6.2656 -12.5 Q4.0469 -12.5 3.5312 -13.7812 L5.0156 -14.0312 Q5.3594 -13.2188 7.2344 -13.2188 Q7.9375 -13.2188 8.5312 -13.3281 Q9.125 -13.4219 9.8281 -13.5156 L9.625 -12.5469 Z" stroke="none"/></g><g text-rendering="optimizeLegibility" transform="translate(62.2656,36.6094)" color-rendering="optimizeQuality" color-interpolation="linearRGB" image-rendering="optimizeQuality"><path d="M3.8281 -9.2188 L3.5156 -7.8906 L2.2969 -7.8906 L2.625 -9.2188 L3.8281 -9.2188 ZM2.1406 -1.7031 Q2.0625 -1.3594 2.0469 -1.2031 Q2.0312 -1.0469 2.0312 -0.9375 Q2.0312 -0.7188 2.0938 -0.6094 Q2.1562 -0.5 2.3047 -0.4375 Q2.4531 -0.375 2.7812 -0.3281 L2.7188 0 L0.5938 0 L1.625 -4.6094 Q1.7188 -5 1.75 -5.2344 Q1.7812 -5.4688 1.7812 -5.6406 Q1.7812 -5.8281 1.7266 -5.9375 Q1.6719 -6.0469 1.5312 -6.1016 Q1.3906 -6.1562 1.0625 -6.1719 L1.1406 -6.5312 L2.7969 -6.5938 L3.2031 -6.5938 L2.1406 -1.7031 Z" stroke="none"/></g><g text-rendering="optimizeLegibility" transform="translate(62.2656,17.2891)" color-rendering="optimizeQuality" color-interpolation="linearRGB" image-rendering="optimizeQuality"><path d="M6.5625 -5.2031 L6.5625 -5.0938 Q6.5625 -5.0469 6.5469 -5 Q7.1406 -5.8438 7.7266 -6.2422 Q8.3125 -6.6406 8.9531 -6.6406 Q9.5938 -6.6406 9.9375 -6.2734 Q10.2812 -5.9062 10.2812 -5.2031 Q10.2812 -4.7656 10.1406 -4.1406 L9.5625 -1.7031 Q9.4531 -1.2188 9.4531 -0.9375 Q9.4531 -0.7188 9.5156 -0.6094 Q9.5781 -0.5 9.7266 -0.4375 Q9.875 -0.375 10.2031 -0.3281 L10.1406 0 L7.9844 0 L8.8594 -3.4688 Q8.9531 -3.8438 9.0234 -4.2344 Q9.0938 -4.625 9.0938 -4.9375 Q9.0938 -5.4219 8.9219 -5.6328 Q8.75 -5.8438 8.375 -5.8438 Q8.1094 -5.8438 7.7812 -5.625 Q7.4531 -5.4062 7.0938 -4.9531 Q6.7344 -4.5 6.5 -4.0625 Q6.2656 -3.625 6.125 -2.9844 L5.5156 0 L4.3281 0 L5.1094 -3.4688 Q5.25 -4.1094 5.3047 -4.4141 Q5.3594 -4.7188 5.3594 -4.9375 Q5.3594 -5.4219 5.1875 -5.6328 Q5.0156 -5.8438 4.6406 -5.8438 Q4.375 -5.8438 4.0391 -5.625 Q3.7031 -5.4062 3.3359 -4.9375 Q2.9688 -4.4688 2.7422 -4.0234 Q2.5156 -3.5781 2.4062 -2.9531 L1.7812 0 L0.5938 0 L1.6406 -4.6719 Q1.6719 -4.8281 1.7266 -5.1328 Q1.7812 -5.4375 1.7812 -5.6406 Q1.7812 -5.8438 1.7266 -5.9453 Q1.6719 -6.0469 1.5312 -6.1016 Q1.3906 -6.1562 1.0469 -6.1719 L1.1406 -6.5312 L2.6875 -6.5938 L3.0781 -6.5938 L2.625 -4.8281 L2.7031 -4.7969 Q3.3438 -5.7344 3.9609 -6.1875 Q4.5781 -6.6406 5.2188 -6.6406 Q5.875 -6.6406 6.2188 -6.2734 Q6.5625 -5.9062 6.5625 -5.2031 Z" stroke="none"/></g><g text-rendering="optimizeLegibility" transform="translate(73.3281,28)" color-rendering="optimizeQuality" color-interpolation="linearRGB" image-rendering="optimizeQuality"><path d="M6.25 -5.0469 L6.25 -1.3438 L4.8125 -1.3438 L4.8125 -5.0469 L1.2188 -5.0469 L1.2188 -6.3906 L4.8125 -6.3906 L4.8125 -10.0938 L6.25 -10.0938 L6.25 -6.3906 L9.8594 -6.3906 L9.8594 -5.0469 L6.25 -5.0469 Z" stroke="none"/></g><g text-rendering="optimizeLegibility" stroke-width="1.6667" color-interpolation="linearRGB" color-rendering="optimizeQuality" image-rendering="optimizeQuality"><line y2="20.78" fill="none" x1="86.8653" x2="113.6778" y1="20.78"/><path d="M11.6094 -9.0469 Q9.7812 -6.8281 8.5 -4.8125 Q8.3438 -3.2656 8.3438 -2.4062 Q8.3438 -1.5781 8.5156 -1.2266 Q8.6875 -0.875 9.1094 -0.875 Q9.5625 -0.875 10.2188 -1.4688 L10.5312 -0.9844 Q9.2812 0.1562 8.1406 0.1562 Q6.7656 0.1562 6.7656 -1.9062 Q6.7656 -2.25 6.7969 -2.6562 L6.7656 -2.6562 Q4.8125 0.1562 2.9062 0.1562 Q1.9375 0.1562 1.3828 -0.6875 Q0.8281 -1.5312 0.8281 -2.8281 Q0.8281 -5.3594 2.3203 -7.4297 Q3.8125 -9.5 6.0625 -9.5 Q8.1719 -9.5 8.4375 -6.8125 L8.4844 -6.8125 L9.75 -9.3125 L11.4219 -9.3125 L11.6094 -9.0469 ZM7.0938 -4.7344 Q7.2188 -6.125 7.2188 -6.7188 Q7.2188 -7.8125 6.9297 -8.2656 Q6.6406 -8.7188 5.9844 -8.7188 Q4.5469 -8.7188 3.5469 -6.9062 Q2.5469 -5.0938 2.5469 -2.75 Q2.5469 -2 2.8516 -1.5 Q3.1562 -1 3.6562 -1 Q5.5 -1 7.0938 -4.7344 Z" stroke-width="1" transform="translate(94.4668,18.1126)" stroke="none"/></g><g text-rendering="optimizeLegibility" transform="translate(86.8653,36.7755)" color-rendering="optimizeQuality" color-interpolation="linearRGB" image-rendering="optimizeQuality"><path d="M6.8594 -1.5625 Q7.3281 -1.5625 7.625 -1.625 Q7.9219 -1.6875 8.0938 -1.8203 Q8.2656 -1.9531 8.375 -2.1719 Q8.4844 -2.3906 8.6406 -2.8594 L9.4688 -2.8594 L9.2969 0 L1.2656 0 L1.2656 -0.4688 Q1.6875 -1.5 2.3984 -2.5703 Q3.1094 -3.6406 4.4219 -5.0938 Q5.5469 -6.3438 6.0469 -7 Q6.5938 -7.7031 6.8594 -8.2109 Q7.125 -8.7188 7.2422 -9.1719 Q7.3594 -9.625 7.3594 -10.0938 Q7.3594 -10.8281 7.125 -11.3828 Q6.8906 -11.9375 6.4062 -12.2656 Q5.9219 -12.5938 5.2031 -12.5938 Q3.375 -12.5938 2.7344 -10.5625 L1.5469 -10.5625 L1.5469 -12.4375 Q2.7344 -12.9844 3.7656 -13.2344 Q4.7969 -13.4844 5.6094 -13.4844 Q7.4375 -13.4844 8.3594 -12.6875 Q9.2812 -11.8906 9.2812 -10.375 Q9.2812 -9.8594 9.1797 -9.4297 Q9.0781 -9 8.8594 -8.5703 Q8.6406 -8.1406 8.2734 -7.6562 Q7.9062 -7.1719 7.4531 -6.6641 Q7 -6.1562 5.9062 -4.9844 Q4.0469 -3.0312 3.1719 -1.5625 L6.8594 -1.5625 Z" stroke="none"/></g><g text-rendering="optimizeLegibility" transform="translate(96.334,36.7755)" color-rendering="optimizeQuality" color-interpolation="linearRGB" image-rendering="optimizeQuality"><path d="M6.8125 -1.6875 L6.7812 -1.6875 Q5.7812 0.1562 3.7031 0.1562 Q2.4219 0.1562 1.6484 -0.6406 Q0.875 -1.4375 0.875 -2.9219 Q0.875 -4.7656 2.0312 -6.4766 Q3.1875 -8.1875 5.3281 -9.5 L5.7188 -8.8438 Q4.3438 -7.7812 3.4531 -6.1094 Q2.5625 -4.4375 2.5625 -2.8438 Q2.5625 -1.7031 3.0234 -1.1562 Q3.4844 -0.6094 4.2188 -0.6094 Q4.8906 -0.6094 5.4375 -1.2266 Q5.9844 -1.8438 6.2031 -2.9219 L6.9375 -6.6094 L8.5781 -6.6094 L7.7969 -2.8438 Q7.7188 -2.4219 7.7188 -2.0781 Q7.7188 -1.3906 8.0547 -1 Q8.3906 -0.6094 8.9844 -0.6094 Q10.1875 -0.6094 10.9922 -2.1094 Q11.7969 -3.6094 11.7969 -5.7812 Q11.7969 -7.8125 11 -8.9375 L11.5625 -9.5 Q13.5156 -7.6406 13.5156 -5.3594 Q13.5156 -3.125 12.2344 -1.4844 Q10.9531 0.1562 8.9688 0.1562 Q7.1562 0.1562 6.8125 -1.6875 Z" stroke="none"/></g><g text-rendering="optimizeLegibility" transform="translate(109.8497,41.5411)" color-rendering="optimizeQuality" color-interpolation="linearRGB" image-rendering="optimizeQuality"><path d="M3.8281 -9.2188 L3.5156 -7.8906 L2.2969 -7.8906 L2.625 -9.2188 L3.8281 -9.2188 ZM2.1406 -1.7031 Q2.0625 -1.3594 2.0469 -1.2031 Q2.0312 -1.0469 2.0312 -0.9375 Q2.0312 -0.7188 2.0938 -0.6094 Q2.1562 -0.5 2.3047 -0.4375 Q2.4531 -0.375 2.7812 -0.3281 L2.7188 0 L0.5938 0 L1.625 -4.6094 Q1.7188 -5 1.75 -5.2344 Q1.7812 -5.4688 1.7812 -5.6406 Q1.7812 -5.8281 1.7266 -5.9375 Q1.6719 -6.0469 1.5312 -6.1016 Q1.3906 -6.1562 1.0625 -6.1719 L1.1406 -6.5312 L2.7969 -6.5938 L3.2031 -6.5938 L2.1406 -1.7031 Z" stroke="none"/></g><g text-rendering="optimizeLegibility" transform="translate(117.8035,28)" color-rendering="optimizeQuality" color-interpolation="linearRGB" image-rendering="optimizeQuality"><path d="M6.25 -5.0469 L6.25 -1.3438 L4.8125 -1.3438 L4.8125 -5.0469 L1.2188 -5.0469 L1.2188 -6.3906 L4.8125 -6.3906 L4.8125 -10.0938 L6.25 -10.0938 L6.25 -6.3906 L9.8594 -6.3906 L9.8594 -5.0469 L6.25 -5.0469 Z" stroke="none"/></g><g text-rendering="optimizeLegibility" stroke-width="1.6667" color-interpolation="linearRGB" color-rendering="optimizeQuality" image-rendering="optimizeQuality"><line y2="20.78" fill="none" x1="131.3406" x2="142.2469" y1="20.78"/><path d="M7.1719 -7.4844 L7.1562 -7.4062 Q9.5 -6.8594 9.5 -4.5938 Q9.5 -2.5469 8.1797 -1.1953 Q6.8594 0.1562 5.0156 0.1562 Q3.4688 0.1562 2.5781 -0.7188 L1.4531 4.2188 L-0.1406 4.2188 L2.6562 -8.5156 Q3.2812 -11.3438 4.4844 -12.6875 Q5.6875 -14.0312 7.7031 -14.0312 Q9.0938 -14.0312 9.9297 -13.3281 Q10.7656 -12.625 10.7656 -11.3906 Q10.7656 -8.7188 7.1719 -7.4844 ZM5.4219 -6.9844 L5.5938 -7.6719 Q6.9219 -7.6719 7.9922 -8.7812 Q9.0625 -9.8906 9.0625 -11.6094 Q9.0625 -12.3438 8.6797 -12.8047 Q8.2969 -13.2656 7.5938 -13.2656 Q6.375 -13.2656 5.5703 -12.0469 Q4.7656 -10.8281 4.2344 -8.375 L2.9219 -2.25 Q2.875 -2.0781 2.875 -1.9375 Q2.875 -1.4531 3.4453 -1.0312 Q4.0156 -0.6094 4.7344 -0.6094 Q5.9844 -0.6094 6.8828 -1.7422 Q7.7812 -2.875 7.7812 -4.4844 Q7.7812 -6.9688 5.4219 -6.9844 Z" stroke-width="1" transform="translate(131.4812,14.0501)" stroke="none"/></g><g text-rendering="optimizeLegibility" transform="translate(132.0594,36.7755)" color-rendering="optimizeQuality" color-interpolation="linearRGB" image-rendering="optimizeQuality"><path d="M6.8594 -1.5625 Q7.3281 -1.5625 7.625 -1.625 Q7.9219 -1.6875 8.0938 -1.8203 Q8.2656 -1.9531 8.375 -2.1719 Q8.4844 -2.3906 8.6406 -2.8594 L9.4688 -2.8594 L9.2969 0 L1.2656 0 L1.2656 -0.4688 Q1.6875 -1.5 2.3984 -2.5703 Q3.1094 -3.6406 4.4219 -5.0938 Q5.5469 -6.3438 6.0469 -7 Q6.5938 -7.7031 6.8594 -8.2109 Q7.125 -8.7188 7.2422 -9.1719 Q7.3594 -9.625 7.3594 -10.0938 Q7.3594 -10.8281 7.125 -11.3828 Q6.8906 -11.9375 6.4062 -12.2656 Q5.9219 -12.5938 5.2031 -12.5938 Q3.375 -12.5938 2.7344 -10.5625 L1.5469 -10.5625 L1.5469 -12.4375 Q2.7344 -12.9844 3.7656 -13.2344 Q4.7969 -13.4844 5.6094 -13.4844 Q7.4375 -13.4844 8.3594 -12.6875 Q9.2812 -11.8906 9.2812 -10.375 Q9.2812 -9.8594 9.1797 -9.4297 Q9.0781 -9 8.8594 -8.5703 Q8.6406 -8.1406 8.2734 -7.6562 Q7.9062 -7.1719 7.4531 -6.6641 Q7 -6.1562 5.9062 -4.9844 Q4.0469 -3.0312 3.1719 -1.5625 L6.8594 -1.5625 Z" stroke="none"/></g><g text-rendering="optimizeLegibility" transform="translate(145.5913,28)" color-rendering="optimizeQuality" color-interpolation="linearRGB" image-rendering="optimizeQuality"><path d="M6.8125 -1.6875 L6.7812 -1.6875 Q5.7812 0.1562 3.7031 0.1562 Q2.4219 0.1562 1.6484 -0.6406 Q0.875 -1.4375 0.875 -2.9219 Q0.875 -4.7656 2.0312 -6.4766 Q3.1875 -8.1875 5.3281 -9.5 L5.7188 -8.8438 Q4.3438 -7.7812 3.4531 -6.1094 Q2.5625 -4.4375 2.5625 -2.8438 Q2.5625 -1.7031 3.0234 -1.1562 Q3.4844 -0.6094 4.2188 -0.6094 Q4.8906 -0.6094 5.4375 -1.2266 Q5.9844 -1.8438 6.2031 -2.9219 L6.9375 -6.6094 L8.5781 -6.6094 L7.7969 -2.8438 Q7.7188 -2.4219 7.7188 -2.0781 Q7.7188 -1.3906 8.0547 -1 Q8.3906 -0.6094 8.9844 -0.6094 Q10.1875 -0.6094 10.9922 -2.1094 Q11.7969 -3.6094 11.7969 -5.7812 Q11.7969 -7.8125 11 -8.9375 L11.5625 -9.5 Q13.5156 -7.6406 13.5156 -5.3594 Q13.5156 -3.125 12.2344 -1.4844 Q10.9531 0.1562 8.9688 0.1562 Q7.1562 0.1562 6.8125 -1.6875 Z" stroke="none"/></g><g text-rendering="optimizeLegibility" transform="translate(159.1069,32.7656)" color-rendering="optimizeQuality" color-interpolation="linearRGB" image-rendering="optimizeQuality"><path d="M3.8281 -9.2188 L3.5156 -7.8906 L2.2969 -7.8906 L2.625 -9.2188 L3.8281 -9.2188 ZM2.1406 -1.7031 Q2.0625 -1.3594 2.0469 -1.2031 Q2.0312 -1.0469 2.0312 -0.9375 Q2.0312 -0.7188 2.0938 -0.6094 Q2.1562 -0.5 2.3047 -0.4375 Q2.4531 -0.375 2.7812 -0.3281 L2.7188 0 L0.5938 0 L1.625 -4.6094 Q1.7188 -5 1.75 -5.2344 Q1.7812 -5.4688 1.7812 -5.6406 Q1.7812 -5.8281 1.7266 -5.9375 Q1.6719 -6.0469 1.5312 -6.1016 Q1.3906 -6.1562 1.0625 -6.1719 L1.1406 -6.5312 L2.7969 -6.5938 L3.2031 -6.5938 L2.1406 -1.7031 Z" stroke="none"/></g></g></svg>