<?xml version="1.0" encoding="UTF-8" standalone="no"?><svg xmlns="http://www.w3.org/2000/svg" xmlns:xlink="http://www.w3.org/1999/xlink" stroke-dasharray="none" shape-rendering="auto" font-family="'Dialog'" width="377.812600" text-rendering="auto" fill-opacity="1" contentScriptType="text/ecmascript" color-interpolation="auto" color-rendering="auto" preserveAspectRatio="xMidYMid meet" font-size="12" fill="black" stroke="black" image-rendering="auto" stroke-miterlimit="10" zoomAndPan="magnify" version="1.0" stroke-linecap="square" stroke-linejoin="miter" contentStyleType="text/css" font-style="normal" height="20" stroke-width="1" stroke-dashoffset="0" font-weight="normal" stroke-opacity="1" y="-5.000000"><!--Converted from MathML using JEuclid--><defs id="genericDefs"/><g><g text-rendering="optimizeLegibility" transform="translate(0.5,15)" color-rendering="optimizeQuality" color-interpolation="linearRGB" image-rendering="optimizeQuality"><path d="M9.1562 -1.0156 Q8.2969 0.1562 7.3594 0.1562 Q6.8438 0.1562 6.5 -0.2031 Q6.1562 -0.5625 5.9766 -1.2656 Q5.7969 -1.9688 5.7344 -2.9531 L5.4375 -7.2031 L5.375 -7.2031 Q4.7969 -6.0781 3.3281 -3.4219 Q1.9688 -0.9688 1.5 0 L-0.5 0 L-0.4062 -0.4844 L-0.0156 -0.875 Q0.4844 -1.375 1.1094 -2.4062 L5.2656 -9.2344 Q5.0781 -11.2812 4.6797 -12.0234 Q4.2812 -12.7656 3.4375 -12.7656 Q2.6406 -12.7656 1.9688 -12.0781 L1.6094 -12.5625 Q2.8594 -14.0312 4.0312 -14.0312 Q5.0469 -14.0312 5.5781 -13.2344 Q6.1094 -12.4375 6.2344 -10.5781 Q6.5156 -6.7969 6.7812 -4.6094 Q7.0469 -2.4219 7.3359 -1.7422 Q7.625 -1.0625 8.0625 -1.0625 Q8.4688 -1.0625 8.7812 -1.5 L9.1562 -1.0156 Z" stroke="none"/></g><g text-rendering="optimizeLegibility" transform="translate(9.6562,19.875)" color-rendering="optimizeQuality" color-interpolation="linearRGB" image-rendering="optimizeQuality"><path d="M4.7969 -1.0938 Q5.1406 -1.0938 5.3438 -1.1328 Q5.5469 -1.1719 5.6719 -1.2734 Q5.7969 -1.375 5.8672 -1.5234 Q5.9375 -1.6719 6.0469 -2 L6.625 -2 L6.5156 0 L0.875 0 L0.875 -0.3281 Q1.1719 -1.0469 1.6719 -1.7969 Q2.1719 -2.5469 3.0938 -3.5625 Q3.8906 -4.4375 4.2344 -4.8906 Q4.6094 -5.3906 4.7969 -5.75 Q4.9844 -6.1094 5.0703 -6.4219 Q5.1562 -6.7344 5.1562 -7.0625 Q5.1562 -7.5781 4.9922 -7.9688 Q4.8281 -8.3594 4.4922 -8.5859 Q4.1562 -8.8125 3.6406 -8.8125 Q2.3594 -8.8125 1.9219 -7.3906 L1.0938 -7.3906 L1.0938 -8.7031 Q1.9219 -9.0938 2.6406 -9.2656 Q3.3594 -9.4375 3.9375 -9.4375 Q5.2031 -9.4375 5.8516 -8.8828 Q6.5 -8.3281 6.5 -7.2656 Q6.5 -6.9062 6.4297 -6.6016 Q6.3594 -6.2969 6.2031 -6 Q6.0469 -5.7031 5.7891 -5.3594 Q5.5312 -5.0156 5.2188 -4.6641 Q4.9062 -4.3125 4.125 -3.5 Q2.8281 -2.125 2.2188 -1.0938 L4.7969 -1.0938 Z" stroke="none"/></g><g text-rendering="optimizeLegibility" transform="translate(17.0625,15)" color-rendering="optimizeQuality" color-interpolation="linearRGB" image-rendering="optimizeQuality"><path d="M1.2188 -7.0625 L1.2188 -8.4219 L9.8594 -8.4219 L9.8594 -7.0625 L1.2188 -7.0625 ZM1.2188 -3.0156 L1.2188 -4.3594 L9.8594 -4.3594 L9.8594 -3.0156 L1.2188 -3.0156 Z" stroke="none"/></g><g text-rendering="optimizeLegibility" transform="translate(29.4219,15)" color-rendering="optimizeQuality" color-interpolation="linearRGB" image-rendering="optimizeQuality"><path d="M9.1562 -1.0156 Q8.2969 0.1562 7.3594 0.1562 Q6.8438 0.1562 6.5 -0.2031 Q6.1562 -0.5625 5.9766 -1.2656 Q5.7969 -1.9688 5.7344 -2.9531 L5.4375 -7.2031 L5.375 -7.2031 Q4.7969 -6.0781 3.3281 -3.4219 Q1.9688 -0.9688 1.5 0 L-0.5 0 L-0.4062 -0.4844 L-0.0156 -0.875 Q0.4844 -1.375 1.1094 -2.4062 L5.2656 -9.2344 Q5.0781 -11.2812 4.6797 -12.0234 Q4.2812 -12.7656 3.4375 -12.7656 Q2.6406 -12.7656 1.9688 -12.0781 L1.6094 -12.5625 Q2.8594 -14.0312 4.0312 -14.0312 Q5.0469 -14.0312 5.5781 -13.2344 Q6.1094 -12.4375 6.2344 -10.5781 Q6.5156 -6.7969 6.7812 -4.6094 Q7.0469 -2.4219 7.3359 -1.7422 Q7.625 -1.0625 8.0625 -1.0625 Q8.4688 -1.0625 8.7812 -1.5 L9.1562 -1.0156 Z" stroke="none"/></g><g text-rendering="optimizeLegibility" transform="translate(38.5781,19.8203)" color-rendering="optimizeQuality" color-interpolation="linearRGB" image-rendering="optimizeQuality"><path d="M1.0938 -7.3906 L1.0938 -8.7031 Q1.875 -9.0781 2.5703 -9.2578 Q3.2656 -9.4375 3.9062 -9.4375 Q4.6719 -9.4375 5.2578 -9.2031 Q5.8438 -8.9688 6.1484 -8.5156 Q6.4531 -8.0625 6.4531 -7.4375 Q6.4531 -6.8594 6.2188 -6.4219 Q5.9844 -5.9844 5.5625 -5.6562 Q5.1406 -5.3281 4.4844 -5.0156 L4.4844 -4.9531 Q4.8906 -4.875 5.2812 -4.6953 Q5.6719 -4.5156 5.9688 -4.2266 Q6.2656 -3.9375 6.4453 -3.5391 Q6.625 -3.1406 6.625 -2.625 Q6.625 -1.8281 6.2812 -1.2188 Q5.9375 -0.6094 5.2266 -0.25 Q4.5156 0.1094 3.5 0.1094 Q2.9062 0.1094 2.2266 -0.0234 Q1.5469 -0.1562 0.9844 -0.375 L0.9844 -1.8281 L1.8125 -1.8281 Q2.0469 -1.1094 2.4375 -0.7891 Q2.8281 -0.4688 3.5 -0.4688 Q4.3906 -0.4688 4.8516 -0.9531 Q5.3125 -1.4375 5.3125 -2.3906 Q5.3125 -3.3906 4.7109 -3.9141 Q4.1094 -4.4375 2.9375 -4.4375 L2.3281 -4.4375 L2.3281 -5.0469 Q3.25 -5.0938 3.8828 -5.3984 Q4.5156 -5.7031 4.8203 -6.1719 Q5.125 -6.6406 5.125 -7.2344 Q5.125 -7.9844 4.7266 -8.3984 Q4.3281 -8.8125 3.5469 -8.8125 Q2.9062 -8.8125 2.5 -8.4609 Q2.0938 -8.1094 1.9062 -7.3906 L1.0938 -7.3906 Z" stroke="none"/></g><g text-rendering="optimizeLegibility" transform="translate(45.9844,15)" color-rendering="optimizeQuality" color-interpolation="linearRGB" image-rendering="optimizeQuality"><path d="M1.2188 -7.0625 L1.2188 -8.4219 L9.8594 -8.4219 L9.8594 -7.0625 L1.2188 -7.0625 ZM1.2188 -3.0156 L1.2188 -4.3594 L9.8594 -4.3594 L9.8594 -3.0156 L1.2188 -3.0156 Z" stroke="none"/></g><g text-rendering="optimizeLegibility" transform="translate(57.8594,15)" color-rendering="optimizeQuality" color-interpolation="linearRGB" image-rendering="optimizeQuality"><path d="M6.4531 -7.0625 Q6.3438 -7.9375 5.9453 -8.3359 Q5.5469 -8.7344 4.7188 -8.7344 Q4.2656 -8.7344 3.8906 -8.5625 Q3.5156 -8.3906 3.3047 -8.0625 Q3.0938 -7.7344 3.0938 -7.2969 Q3.0938 -6.9375 3.2344 -6.6406 Q3.375 -6.3438 3.7266 -6.0156 Q4.0781 -5.6875 4.7031 -5.2812 Q5.6406 -4.6406 6.0234 -4.0469 Q6.4062 -3.4531 6.4062 -2.6719 Q6.4062 -1.75 5.9688 -1.1094 Q5.5312 -0.4688 4.7656 -0.1562 Q4 0.1562 3.0469 0.1562 Q2.1875 0.1562 1.4375 0.0312 Q0.6875 -0.0938 -0.0156 -0.2969 L0.4531 -2.4062 L1.2188 -2.4062 Q1.2812 -1.5 1.7266 -1.0547 Q2.1719 -0.6094 3.0156 -0.6094 Q3.8906 -0.6094 4.375 -1.0469 Q4.8594 -1.4844 4.8594 -2.2031 Q4.8594 -2.625 4.7188 -2.9531 Q4.5781 -3.2812 4.2656 -3.5859 Q3.9531 -3.8906 3.375 -4.2812 Q2.75 -4.7031 2.375 -5.0703 Q2 -5.4375 1.7891 -5.8828 Q1.5781 -6.3281 1.5781 -6.8594 Q1.5781 -7.6719 1.9766 -8.2734 Q2.375 -8.875 3.1094 -9.1875 Q3.8438 -9.5 4.8281 -9.5 Q6.4531 -9.5 7.6719 -9.0781 L7.2344 -7.0625 L6.4531 -7.0625 Z" stroke="none"/></g><g text-rendering="optimizeLegibility" transform="translate(65.5312,15)" color-rendering="optimizeQuality" color-interpolation="linearRGB" image-rendering="optimizeQuality"><path d="M0.3594 -8.8438 Q0.8438 -8.9219 1.1484 -9.1172 Q1.4531 -9.3125 1.625 -9.625 Q1.7969 -9.9375 1.8984 -10.3984 Q2 -10.8594 2.0938 -11.75 L3.4844 -11.75 L3.4844 -9.3438 L6.6406 -9.3438 L6.6406 -8.3438 L3.4844 -8.3438 L3.4844 -4 Q3.4844 -3.0625 3.5625 -2.5 Q3.6406 -1.9375 3.8594 -1.6172 Q4.0781 -1.2969 4.3516 -1.1641 Q4.625 -1.0312 5.0469 -1.0312 Q5.4375 -1.0312 5.7812 -1.1875 Q6.125 -1.3438 6.4531 -1.6562 L6.8906 -1.125 Q6.2031 -0.4531 5.5859 -0.1484 Q4.9688 0.1562 4.2969 0.1562 Q3.0312 0.1562 2.4219 -0.5938 Q1.8125 -1.3438 1.8125 -2.9375 L1.8125 -8.3438 L0.3594 -8.3438 L0.3594 -8.8438 ZM10.5781 -7.7188 L10.7188 -7.6875 Q11.2656 -8.3438 11.7188 -8.7188 Q12.1719 -9.0938 12.7031 -9.2969 Q13.2344 -9.5 13.9219 -9.5 Q14.4844 -9.5 14.9375 -9.4375 L14.9375 -7.2031 L13.8438 -7.2031 Q13.6094 -7.7188 13.3438 -7.9609 Q13.0781 -8.2031 12.6094 -8.2031 Q12.2656 -8.2031 11.9219 -8 Q11.5781 -7.7969 11.25 -7.4062 Q10.9219 -7.0156 10.8047 -6.6719 Q10.6875 -6.3281 10.6875 -5.8594 L10.6875 -2.4375 Q10.6875 -1.5469 10.7891 -1.2109 Q10.8906 -0.875 11.1406 -0.7188 Q11.3906 -0.5625 11.8906 -0.4844 L11.8906 0 L7.9531 0 L7.9531 -0.4844 Q8.3281 -0.5938 8.4922 -0.6797 Q8.6562 -0.7656 8.7734 -0.9219 Q8.8906 -1.0781 8.9453 -1.4062 Q9 -1.7344 9 -2.4062 L9 -6.6719 Q9 -7.2969 8.9844 -7.6797 Q8.9688 -8.0625 8.8516 -8.2891 Q8.7344 -8.5156 8.4922 -8.625 Q8.25 -8.7344 7.8125 -8.8125 L7.8125 -9.3281 L10.0938 -9.4219 L10.6875 -9.4219 L10.5781 -7.7188 ZM23.75 -1.6562 Q23.125 -1 22.6016 -0.6328 Q22.0781 -0.2656 21.4531 -0.0547 Q20.8281 0.1562 20.0781 0.1562 Q18.0625 0.1562 17.0391 -1.0469 Q16.0156 -2.25 16.0156 -4.6094 Q16.0156 -6.0625 16.5391 -7.1797 Q17.0625 -8.2969 18.0312 -8.8984 Q19 -9.5 20.25 -9.5 Q21.2344 -9.5 21.9297 -9.1875 Q22.625 -8.875 23.0391 -8.3359 Q23.4531 -7.7969 23.6875 -6.9688 Q23.9219 -6.1406 23.9531 -4.8125 L17.7969 -4.8125 L17.7969 -4.6406 Q17.7969 -3.4844 18.0547 -2.7031 Q18.3125 -1.9219 18.9062 -1.4766 Q19.5 -1.0312 20.4375 -1.0312 Q21.2344 -1.0312 21.875 -1.3281 Q22.5156 -1.625 23.1562 -2.2969 L23.75 -1.6562 ZM22.1094 -5.625 Q22.0469 -6.6875 21.8438 -7.3516 Q21.6406 -8.0156 21.2344 -8.375 Q20.8281 -8.7344 20.1562 -8.7344 Q19.1562 -8.7344 18.5547 -7.9297 Q17.9531 -7.125 17.8438 -5.625 L22.1094 -5.625 ZM25.3594 -8.8438 Q25.8438 -8.9219 26.1484 -9.1172 Q26.4531 -9.3125 26.625 -9.625 Q26.7969 -9.9375 26.8984 -10.3984 Q27 -10.8594 27.0938 -11.75 L28.4844 -11.75 L28.4844 -9.3438 L31.6406 -9.3438 L31.6406 -8.3438 L28.4844 -8.3438 L28.4844 -4 Q28.4844 -3.0625 28.5625 -2.5 Q28.6406 -1.9375 28.8594 -1.6172 Q29.0781 -1.2969 29.3516 -1.1641 Q29.625 -1.0312 30.0469 -1.0312 Q30.4375 -1.0312 30.7812 -1.1875 Q31.125 -1.3438 31.4531 -1.6562 L31.8906 -1.125 Q31.2031 -0.4531 30.5859 -0.1484 Q29.9688 0.1562 29.2969 0.1562 Q28.0312 0.1562 27.4219 -0.5938 Q26.8125 -1.3438 26.8125 -2.9375 L26.8125 -8.3438 L25.3594 -8.3438 L25.3594 -8.8438 ZM40.2188 -9.1094 L40.2188 -7.0781 L38.9844 -7.0781 Q38.8125 -7.7031 38.5703 -8.0703 Q38.3281 -8.4375 38.0078 -8.5859 Q37.6875 -8.7344 37.2031 -8.7344 Q36.5156 -8.7344 35.9922 -8.2969 Q35.4688 -7.8594 35.1641 -6.9609 Q34.8594 -6.0625 34.8594 -4.75 Q34.8594 -3.9219 34.9766 -3.2344 Q35.0938 -2.5469 35.375 -2.0625 Q35.6562 -1.5781 36.125 -1.3047 Q36.5938 -1.0312 37.2812 -1.0312 Q37.9531 -1.0312 38.5391 -1.2891 Q39.125 -1.5469 39.75 -2.2188 L40.2969 -1.5781 Q39.7969 -1.0312 39.4219 -0.7344 Q39.0469 -0.4375 38.6094 -0.2344 Q38.1719 -0.0312 37.75 0.0625 Q37.3281 0.1562 36.8281 0.1562 Q34.9844 0.1562 34.0078 -1.0703 Q33.0312 -2.2969 33.0312 -4.6094 Q33.0312 -6.0625 33.5781 -7.1797 Q34.125 -8.2969 35.1094 -8.8984 Q36.0938 -9.5 37.375 -9.5 Q38.1875 -9.5 38.8672 -9.4062 Q39.5469 -9.3125 40.2188 -9.1094 ZM44.5625 -7.7969 L44.6094 -7.7969 Q45.3594 -8.5625 45.8047 -8.875 Q46.25 -9.1875 46.6875 -9.3438 Q47.125 -9.5 47.625 -9.5 Q48.1562 -9.5 48.5781 -9.3672 Q49 -9.2344 49.3203 -8.9766 Q49.6406 -8.7188 49.8359 -8.3438 Q50.0312 -7.9688 50.1328 -7.4453 Q50.2344 -6.9219 50.2344 -6.125 L50.2344 -2.4375 Q50.2344 -1.5938 50.3047 -1.2891 Q50.375 -0.9844 50.5625 -0.8125 Q50.75 -0.6406 51.3281 -0.4844 L51.3281 0 L47.4844 0 L47.4844 -0.4844 Q47.8594 -0.5938 48.0312 -0.6797 Q48.2031 -0.7656 48.3125 -0.9219 Q48.4219 -1.0781 48.4844 -1.4062 Q48.5469 -1.7344 48.5469 -2.4062 L48.5469 -4.9688 Q48.5469 -6.2656 48.4141 -6.9531 Q48.2812 -7.6406 47.8984 -7.9844 Q47.5156 -8.3281 46.8281 -8.3281 Q46.4375 -8.3281 46.125 -8.1875 Q45.8125 -8.0469 45.3984 -7.6953 Q44.9844 -7.3438 44.7734 -6.9766 Q44.5625 -6.6094 44.5625 -6.1875 L44.5625 -2.4375 Q44.5625 -1.7812 44.6016 -1.5 Q44.6406 -1.2188 44.7344 -1.0234 Q44.8281 -0.8281 45.0312 -0.7109 Q45.2344 -0.5938 45.6562 -0.4844 L45.6562 0 L41.7812 0 L41.7812 -0.4844 Q42.2188 -0.5938 42.3984 -0.7031 Q42.5781 -0.8125 42.6797 -0.9766 Q42.7812 -1.1406 42.8359 -1.4531 Q42.8906 -1.7656 42.8906 -2.4375 L42.8906 -10.6094 Q42.8906 -11.5469 42.875 -11.9219 Q42.8594 -12.2969 42.7969 -12.5547 Q42.7344 -12.8125 42.6172 -12.9609 Q42.5 -13.1094 42.3125 -13.1953 Q42.125 -13.2812 41.625 -13.375 L41.625 -13.875 L43.9844 -13.9688 L44.5625 -13.9688 L44.5625 -7.7969 ZM59.7344 -13.1719 L59.7344 -11.2656 L57.9375 -11.2656 L57.9375 -13.1719 L59.7344 -13.1719 ZM56.9531 -0.4844 Q57.3281 -0.5938 57.4922 -0.6797 Q57.6562 -0.7656 57.7656 -0.9219 Q57.875 -1.0781 57.9375 -1.4062 Q58 -1.7344 58 -2.4062 L58 -6.6719 Q58 -7.2969 57.9844 -7.6797 Q57.9688 -8.0625 57.8516 -8.2891 Q57.7344 -8.5156 57.4922 -8.625 Q57.25 -8.7344 56.8125 -8.8125 L56.8125 -9.3438 L59.0938 -9.4219 L59.6875 -9.4219 L59.6875 -2.4375 Q59.6875 -1.6094 59.7656 -1.2812 Q59.8438 -0.9531 60.0625 -0.7812 Q60.2812 -0.6094 60.7812 -0.4844 L60.7812 0 L56.9531 0 L56.9531 -0.4844 ZM72.4531 0 L68.6094 0 L68.6094 -0.4844 Q69 -0.5938 69.1641 -0.6797 Q69.3281 -0.7656 69.4375 -0.9219 Q69.5469 -1.0781 69.6094 -1.4062 Q69.6719 -1.7344 69.6719 -2.4062 L69.6719 -4.9688 Q69.6719 -5.6406 69.6328 -6.2031 Q69.5938 -6.7656 69.5 -7.1172 Q69.4062 -7.4688 69.2812 -7.6719 Q69.1562 -7.875 68.9688 -8.0156 Q68.7812 -8.1562 68.5469 -8.2422 Q68.3125 -8.3281 67.9375 -8.3281 Q67.5625 -8.3281 67.2188 -8.1719 Q66.875 -8.0156 66.4609 -7.6484 Q66.0469 -7.2812 65.8672 -6.9141 Q65.6875 -6.5469 65.6875 -6.0781 L65.6875 -2.4375 Q65.6875 -1.6094 65.7656 -1.2812 Q65.8438 -0.9531 66.0625 -0.7812 Q66.2812 -0.6094 66.7812 -0.4844 L66.7812 0 L62.9531 0 L62.9531 -0.4844 Q63.3281 -0.5938 63.4922 -0.6797 Q63.6562 -0.7656 63.7656 -0.9219 Q63.875 -1.0781 63.9375 -1.4062 Q64 -1.7344 64 -2.4062 L64 -6.6719 Q64 -7.2969 63.9844 -7.6797 Q63.9688 -8.0625 63.8516 -8.2891 Q63.7344 -8.5156 63.4922 -8.625 Q63.25 -8.7344 62.8125 -8.8125 L62.8125 -9.3438 L65.0938 -9.4219 L65.6875 -9.4219 L65.5781 -7.8281 L65.7188 -7.7969 Q66.4375 -8.5312 66.8828 -8.8438 Q67.3281 -9.1562 67.7812 -9.3281 Q68.2344 -9.5 68.75 -9.5 Q69.2812 -9.5 69.6953 -9.375 Q70.1094 -9.25 70.4219 -8.9922 Q70.7344 -8.7344 70.9453 -8.3594 Q71.1562 -7.9844 71.2578 -7.4609 Q71.3594 -6.9375 71.3594 -6.125 L71.3594 -2.4375 Q71.3594 -1.7656 71.3984 -1.4609 Q71.4375 -1.1562 71.5312 -0.9922 Q71.625 -0.8281 71.8125 -0.7188 Q72 -0.6094 72.4531 -0.4844 L72.4531 0 ZM84.5469 -10.6094 Q84.5469 -11.5469 84.5312 -11.9219 Q84.5156 -12.2969 84.4531 -12.5547 Q84.3906 -12.8125 84.2734 -12.9609 Q84.1562 -13.1094 83.9688 -13.1953 Q83.7812 -13.2812 83.2812 -13.375 L83.2812 -13.875 L85.6406 -13.9688 L86.2188 -13.9688 L86.2188 -2.6719 Q86.2188 -1.9062 86.25 -1.5781 Q86.2812 -1.25 86.375 -1.0547 Q86.4688 -0.8594 86.6797 -0.7344 Q86.8906 -0.6094 87.4219 -0.5156 L87.4219 0 L85.1094 0.0938 L84.5312 0.0938 L84.6406 -1.5 L84.5 -1.5469 Q83.8906 -0.8906 83.4375 -0.5625 Q82.9844 -0.2344 82.4688 -0.0391 Q81.9531 0.1562 81.3594 0.1562 Q79.7656 0.1562 78.8984 -1.0625 Q78.0312 -2.2812 78.0312 -4.5781 Q78.0312 -6.1719 78.5938 -7.2891 Q79.1562 -8.4062 80.1172 -8.9531 Q81.0781 -9.5 82.2812 -9.5 Q82.9219 -9.5 83.4531 -9.3984 Q83.9844 -9.2969 84.5469 -9.0625 L84.5469 -10.6094 ZM84.5469 -5.7969 Q84.5469 -6.5469 84.4766 -7.0078 Q84.4062 -7.4688 84.2422 -7.7812 Q84.0781 -8.0938 83.8047 -8.3125 Q83.5312 -8.5312 83.2031 -8.625 Q82.875 -8.7188 82.4219 -8.7188 Q81.1719 -8.7188 80.5156 -7.7188 Q79.8594 -6.7188 79.8594 -4.8438 Q79.8594 -2.9688 80.3984 -1.9922 Q80.9375 -1.0156 82.0312 -1.0156 Q82.4531 -1.0156 82.7422 -1.0859 Q83.0312 -1.1562 83.3047 -1.3203 Q83.5781 -1.4844 83.8594 -1.7656 Q84.1406 -2.0469 84.2734 -2.2812 Q84.4062 -2.5156 84.4766 -2.8203 Q84.5469 -3.125 84.5469 -3.6094 L84.5469 -5.7969 ZM91.7344 -13.1719 L91.7344 -11.2656 L89.9375 -11.2656 L89.9375 -13.1719 L91.7344 -13.1719 ZM88.9531 -0.4844 Q89.3281 -0.5938 89.4922 -0.6797 Q89.6562 -0.7656 89.7656 -0.9219 Q89.875 -1.0781 89.9375 -1.4062 Q90 -1.7344 90 -2.4062 L90 -6.6719 Q90 -7.2969 89.9844 -7.6797 Q89.9688 -8.0625 89.8516 -8.2891 Q89.7344 -8.5156 89.4922 -8.625 Q89.25 -8.7344 88.8125 -8.8125 L88.8125 -9.3438 L91.0938 -9.4219 L91.6875 -9.4219 L91.6875 -2.4375 Q91.6875 -1.6094 91.7656 -1.2812 Q91.8438 -0.9531 92.0625 -0.7812 Q92.2812 -0.6094 92.7812 -0.4844 L92.7812 0 L88.9531 0 L88.9531 -0.4844 ZM97.5781 -7.7188 L97.7188 -7.6875 Q98.2656 -8.3438 98.7188 -8.7188 Q99.1719 -9.0938 99.7031 -9.2969 Q100.2344 -9.5 100.9219 -9.5 Q101.4844 -9.5 101.9375 -9.4375 L101.9375 -7.2031 L100.8438 -7.2031 Q100.6094 -7.7188 100.3438 -7.9609 Q100.0781 -8.2031 99.6094 -8.2031 Q99.2656 -8.2031 98.9219 -8 Q98.5781 -7.7969 98.25 -7.4062 Q97.9219 -7.0156 97.8047 -6.6719 Q97.6875 -6.3281 97.6875 -5.8594 L97.6875 -2.4375 Q97.6875 -1.5469 97.7891 -1.2109 Q97.8906 -0.875 98.1406 -0.7188 Q98.3906 -0.5625 98.8906 -0.4844 L98.8906 0 L94.9531 0 L94.9531 -0.4844 Q95.3281 -0.5938 95.4922 -0.6797 Q95.6562 -0.7656 95.7734 -0.9219 Q95.8906 -1.0781 95.9453 -1.4062 Q96 -1.7344 96 -2.4062 L96 -6.6719 Q96 -7.2969 95.9844 -7.6797 Q95.9688 -8.0625 95.8516 -8.2891 Q95.7344 -8.5156 95.4922 -8.625 Q95.25 -8.7344 94.8125 -8.8125 L94.8125 -9.3281 L97.0938 -9.4219 L97.6875 -9.4219 L97.5781 -7.7188 ZM110.75 -1.6562 Q110.125 -1 109.6016 -0.6328 Q109.0781 -0.2656 108.4531 -0.0547 Q107.8281 0.1562 107.0781 0.1562 Q105.0625 0.1562 104.0391 -1.0469 Q103.0156 -2.25 103.0156 -4.6094 Q103.0156 -6.0625 103.5391 -7.1797 Q104.0625 -8.2969 105.0312 -8.8984 Q106 -9.5 107.25 -9.5 Q108.2344 -9.5 108.9297 -9.1875 Q109.625 -8.875 110.0391 -8.3359 Q110.4531 -7.7969 110.6875 -6.9688 Q110.9219 -6.1406 110.9531 -4.8125 L104.7969 -4.8125 L104.7969 -4.6406 Q104.7969 -3.4844 105.0547 -2.7031 Q105.3125 -1.9219 105.9062 -1.4766 Q106.5 -1.0312 107.4375 -1.0312 Q108.2344 -1.0312 108.875 -1.3281 Q109.5156 -1.625 110.1562 -2.2969 L110.75 -1.6562 ZM109.1094 -5.625 Q109.0469 -6.6875 108.8438 -7.3516 Q108.6406 -8.0156 108.2344 -8.375 Q107.8281 -8.7344 107.1562 -8.7344 Q106.1562 -8.7344 105.5547 -7.9297 Q104.9531 -7.125 104.8438 -5.625 L109.1094 -5.625 ZM120.2188 -9.1094 L120.2188 -7.0781 L118.9844 -7.0781 Q118.8125 -7.7031 118.5703 -8.0703 Q118.3281 -8.4375 118.0078 -8.5859 Q117.6875 -8.7344 117.2031 -8.7344 Q116.5156 -8.7344 115.9922 -8.2969 Q115.4688 -7.8594 115.1641 -6.9609 Q114.8594 -6.0625 114.8594 -4.75 Q114.8594 -3.9219 114.9766 -3.2344 Q115.0938 -2.5469 115.375 -2.0625 Q115.6562 -1.5781 116.125 -1.3047 Q116.5938 -1.0312 117.2812 -1.0312 Q117.9531 -1.0312 118.5391 -1.2891 Q119.125 -1.5469 119.75 -2.2188 L120.2969 -1.5781 Q119.7969 -1.0312 119.4219 -0.7344 Q119.0469 -0.4375 118.6094 -0.2344 Q118.1719 -0.0312 117.75 0.0625 Q117.3281 0.1562 116.8281 0.1562 Q114.9844 0.1562 114.0078 -1.0703 Q113.0312 -2.2969 113.0312 -4.6094 Q113.0312 -6.0625 113.5781 -7.1797 Q114.125 -8.2969 115.1094 -8.8984 Q116.0938 -9.5 117.375 -9.5 Q118.1875 -9.5 118.8672 -9.4062 Q119.5469 -9.3125 120.2188 -9.1094 ZM121.3594 -8.8438 Q121.8438 -8.9219 122.1484 -9.1172 Q122.4531 -9.3125 122.625 -9.625 Q122.7969 -9.9375 122.8984 -10.3984 Q123 -10.8594 123.0938 -11.75 L124.4844 -11.75 L124.4844 -9.3438 L127.6406 -9.3438 L127.6406 -8.3438 L124.4844 -8.3438 L124.4844 -4 Q124.4844 -3.0625 124.5625 -2.5 Q124.6406 -1.9375 124.8594 -1.6172 Q125.0781 -1.2969 125.3516 -1.1641 Q125.625 -1.0312 126.0469 -1.0312 Q126.4375 -1.0312 126.7812 -1.1875 Q127.125 -1.3438 127.4531 -1.6562 L127.8906 -1.125 Q127.2031 -0.4531 126.5859 -0.1484 Q125.9688 0.1562 125.2969 0.1562 Q124.0312 0.1562 123.4219 -0.5938 Q122.8125 -1.3438 122.8125 -2.9375 L122.8125 -8.3438 L121.3594 -8.3438 L121.3594 -8.8438 ZM131.7344 -13.1719 L131.7344 -11.2656 L129.9375 -11.2656 L129.9375 -13.1719 L131.7344 -13.1719 ZM128.9531 -0.4844 Q129.3281 -0.5938 129.4922 -0.6797 Q129.6562 -0.7656 129.7656 -0.9219 Q129.875 -1.0781 129.9375 -1.4062 Q130 -1.7344 130 -2.4062 L130 -6.6719 Q130 -7.2969 129.9844 -7.6797 Q129.9688 -8.0625 129.8516 -8.2891 Q129.7344 -8.5156 129.4922 -8.625 Q129.25 -8.7344 128.8125 -8.8125 L128.8125 -9.3438 L131.0938 -9.4219 L131.6875 -9.4219 L131.6875 -2.4375 Q131.6875 -1.6094 131.7656 -1.2812 Q131.8438 -0.9531 132.0625 -0.7812 Q132.2812 -0.6094 132.7812 -0.4844 L132.7812 0 L128.9531 0 L128.9531 -0.4844 ZM139.2031 0.1562 Q137.1719 0.1562 136.1016 -1.0391 Q135.0312 -2.2344 135.0312 -4.5781 Q135.0312 -6.1875 135.5938 -7.3047 Q136.1562 -8.4219 137.1328 -8.9609 Q138.1094 -9.5 139.3594 -9.5 Q141.4375 -9.5 142.5156 -8.2891 Q143.5938 -7.0781 143.5938 -4.7969 Q143.5938 -3.1719 143.0547 -2.0625 Q142.5156 -0.9531 141.5312 -0.3984 Q140.5469 0.1562 139.2031 0.1562 ZM136.875 -4.7812 Q136.875 -2.7812 137.5156 -1.6953 Q138.1562 -0.6094 139.3438 -0.6094 Q140 -0.6094 140.4609 -0.9297 Q140.9219 -1.25 141.2031 -1.7891 Q141.4844 -2.3281 141.6172 -3.0312 Q141.75 -3.7344 141.75 -4.5156 Q141.75 -5.9531 141.4297 -6.8984 Q141.1094 -7.8438 140.5625 -8.2891 Q140.0156 -8.7344 139.3125 -8.7344 Q138.125 -8.7344 137.5 -7.7109 Q136.875 -6.6875 136.875 -4.7812 ZM155.4531 0 L151.6094 0 L151.6094 -0.4844 Q152 -0.5938 152.1641 -0.6797 Q152.3281 -0.7656 152.4375 -0.9219 Q152.5469 -1.0781 152.6094 -1.4062 Q152.6719 -1.7344 152.6719 -2.4062 L152.6719 -4.9688 Q152.6719 -5.6406 152.6328 -6.2031 Q152.5938 -6.7656 152.5 -7.1172 Q152.4062 -7.4688 152.2812 -7.6719 Q152.1562 -7.875 151.9688 -8.0156 Q151.7812 -8.1562 151.5469 -8.2422 Q151.3125 -8.3281 150.9375 -8.3281 Q150.5625 -8.3281 150.2188 -8.1719 Q149.875 -8.0156 149.4609 -7.6484 Q149.0469 -7.2812 148.8672 -6.9141 Q148.6875 -6.5469 148.6875 -6.0781 L148.6875 -2.4375 Q148.6875 -1.6094 148.7656 -1.2812 Q148.8438 -0.9531 149.0625 -0.7812 Q149.2812 -0.6094 149.7812 -0.4844 L149.7812 0 L145.9531 0 L145.9531 -0.4844 Q146.3281 -0.5938 146.4922 -0.6797 Q146.6562 -0.7656 146.7656 -0.9219 Q146.875 -1.0781 146.9375 -1.4062 Q147 -1.7344 147 -2.4062 L147 -6.6719 Q147 -7.2969 146.9844 -7.6797 Q146.9688 -8.0625 146.8516 -8.2891 Q146.7344 -8.5156 146.4922 -8.625 Q146.25 -8.7344 145.8125 -8.8125 L145.8125 -9.3438 L148.0938 -9.4219 L148.6875 -9.4219 L148.5781 -7.8281 L148.7188 -7.7969 Q149.4375 -8.5312 149.8828 -8.8438 Q150.3281 -9.1562 150.7812 -9.3281 Q151.2344 -9.5 151.75 -9.5 Q152.2812 -9.5 152.6953 -9.375 Q153.1094 -9.25 153.4219 -8.9922 Q153.7344 -8.7344 153.9453 -8.3594 Q154.1562 -7.9844 154.2578 -7.4609 Q154.3594 -6.9375 154.3594 -6.125 L154.3594 -2.4375 Q154.3594 -1.7656 154.3984 -1.4609 Q154.4375 -1.1562 154.5312 -0.9922 Q154.625 -0.8281 154.8125 -0.7188 Q155 -0.6094 155.4531 -0.4844 L155.4531 0 ZM163.4844 -7.2031 L162.5469 -7.2031 Q162.3438 -7.7812 162.0469 -8.1172 Q161.75 -8.4531 161.3828 -8.5938 Q161.0156 -8.7344 160.4688 -8.7344 Q159.6875 -8.7344 159.2266 -8.3672 Q158.7656 -8 158.7656 -7.3594 Q158.7656 -6.9219 158.9531 -6.625 Q159.1406 -6.3281 159.5312 -6.0781 Q159.9219 -5.8281 160.9062 -5.4062 Q161.9062 -4.9688 162.4453 -4.6094 Q162.9844 -4.25 163.2891 -3.7734 Q163.5938 -3.2969 163.5938 -2.625 Q163.5938 -1.8594 163.3359 -1.3281 Q163.0781 -0.7969 162.5938 -0.4688 Q162.1094 -0.1406 161.4531 0.0078 Q160.7969 0.1562 160.0156 0.1562 Q159.1875 0.1562 158.4219 0.0312 Q157.6562 -0.0938 156.9219 -0.2812 L156.9219 -2.3281 L157.875 -2.3281 Q158.1406 -1.4219 158.6562 -1.0156 Q159.1719 -0.6094 160.0781 -0.6094 Q160.4375 -0.6094 160.7734 -0.6875 Q161.1094 -0.7656 161.375 -0.9375 Q161.6406 -1.1094 161.7969 -1.3984 Q161.9531 -1.6875 161.9531 -2.125 Q161.9531 -2.625 161.7578 -2.9375 Q161.5625 -3.25 161.1484 -3.5078 Q160.7344 -3.7656 159.7031 -4.2031 Q158.8125 -4.5781 158.2734 -4.9297 Q157.7344 -5.2812 157.4297 -5.7578 Q157.125 -6.2344 157.125 -6.8906 Q157.125 -7.7031 157.5625 -8.2891 Q158 -8.875 158.8203 -9.1875 Q159.6406 -9.5 160.7344 -9.5 Q161.375 -9.5 161.9766 -9.4375 Q162.5781 -9.375 163.4844 -9.1875 L163.4844 -7.2031 ZM179.4531 0 L175.6094 0 L175.6094 -0.4844 Q176 -0.5938 176.1641 -0.6797 Q176.3281 -0.7656 176.4375 -0.9219 Q176.5469 -1.0781 176.6094 -1.4062 Q176.6719 -1.7344 176.6719 -2.4062 L176.6719 -4.9688 Q176.6719 -5.6406 176.6328 -6.2031 Q176.5938 -6.7656 176.5 -7.1172 Q176.4062 -7.4688 176.2812 -7.6719 Q176.1562 -7.875 175.9688 -8.0156 Q175.7812 -8.1562 175.5469 -8.2422 Q175.3125 -8.3281 174.9375 -8.3281 Q174.5625 -8.3281 174.2188 -8.1719 Q173.875 -8.0156 173.4609 -7.6484 Q173.0469 -7.2812 172.8672 -6.9141 Q172.6875 -6.5469 172.6875 -6.0781 L172.6875 -2.4375 Q172.6875 -1.6094 172.7656 -1.2812 Q172.8438 -0.9531 173.0625 -0.7812 Q173.2812 -0.6094 173.7812 -0.4844 L173.7812 0 L169.9531 0 L169.9531 -0.4844 Q170.3281 -0.5938 170.4922 -0.6797 Q170.6562 -0.7656 170.7656 -0.9219 Q170.875 -1.0781 170.9375 -1.4062 Q171 -1.7344 171 -2.4062 L171 -6.6719 Q171 -7.2969 170.9844 -7.6797 Q170.9688 -8.0625 170.8516 -8.2891 Q170.7344 -8.5156 170.4922 -8.625 Q170.25 -8.7344 169.8125 -8.8125 L169.8125 -9.3438 L172.0938 -9.4219 L172.6875 -9.4219 L172.5781 -7.8281 L172.7188 -7.7969 Q173.4375 -8.5312 173.8828 -8.8438 Q174.3281 -9.1562 174.7812 -9.3281 Q175.2344 -9.5 175.75 -9.5 Q176.2812 -9.5 176.6953 -9.375 Q177.1094 -9.25 177.4219 -8.9922 Q177.7344 -8.7344 177.9453 -8.3594 Q178.1562 -7.9844 178.2578 -7.4609 Q178.3594 -6.9375 178.3594 -6.125 L178.3594 -2.4375 Q178.3594 -1.7656 178.3984 -1.4609 Q178.4375 -1.1562 178.5312 -0.9922 Q178.625 -0.8281 178.8125 -0.7188 Q179 -0.6094 179.4531 -0.4844 L179.4531 0 ZM185.2031 0.1562 Q183.1719 0.1562 182.1016 -1.0391 Q181.0312 -2.2344 181.0312 -4.5781 Q181.0312 -6.1875 181.5938 -7.3047 Q182.1562 -8.4219 183.1328 -8.9609 Q184.1094 -9.5 185.3594 -9.5 Q187.4375 -9.5 188.5156 -8.2891 Q189.5938 -7.0781 189.5938 -4.7969 Q189.5938 -3.1719 189.0547 -2.0625 Q188.5156 -0.9531 187.5312 -0.3984 Q186.5469 0.1562 185.2031 0.1562 ZM182.875 -4.7812 Q182.875 -2.7812 183.5156 -1.6953 Q184.1562 -0.6094 185.3438 -0.6094 Q186 -0.6094 186.4609 -0.9297 Q186.9219 -1.25 187.2031 -1.7891 Q187.4844 -2.3281 187.6172 -3.0312 Q187.75 -3.7344 187.75 -4.5156 Q187.75 -5.9531 187.4297 -6.8984 Q187.1094 -7.8438 186.5625 -8.2891 Q186.0156 -8.7344 185.3125 -8.7344 Q184.125 -8.7344 183.5 -7.7109 Q182.875 -6.6875 182.875 -4.7812 ZM191.3594 -8.8438 Q191.8438 -8.9219 192.1484 -9.1172 Q192.4531 -9.3125 192.625 -9.625 Q192.7969 -9.9375 192.8984 -10.3984 Q193 -10.8594 193.0938 -11.75 L194.4844 -11.75 L194.4844 -9.3438 L197.6406 -9.3438 L197.6406 -8.3438 L194.4844 -8.3438 L194.4844 -4 Q194.4844 -3.0625 194.5625 -2.5 Q194.6406 -1.9375 194.8594 -1.6172 Q195.0781 -1.2969 195.3516 -1.1641 Q195.625 -1.0312 196.0469 -1.0312 Q196.4375 -1.0312 196.7812 -1.1875 Q197.125 -1.3438 197.4531 -1.6562 L197.8906 -1.125 Q197.2031 -0.4531 196.5859 -0.1484 Q195.9688 0.1562 195.2969 0.1562 Q194.0312 0.1562 193.4219 -0.5938 Q192.8125 -1.3438 192.8125 -2.9375 L192.8125 -8.3438 L191.3594 -8.3438 L191.3594 -8.8438 ZM205.4062 -7.7969 L205.4531 -7.7969 Q206.125 -8.5 206.5859 -8.8281 Q207.0469 -9.1562 207.5234 -9.3281 Q208 -9.5 208.5781 -9.5 Q209.625 -9.5 210.375 -8.9609 Q211.125 -8.4219 211.5312 -7.3594 Q211.9375 -6.2969 211.9375 -4.75 Q211.9375 -3.1719 211.4531 -2.0703 Q210.9688 -0.9688 210.0234 -0.4062 Q209.0781 0.1562 207.7969 0.1562 Q207.0625 0.1562 206.4297 0.0234 Q205.7969 -0.1094 205.0938 -0.4375 L204.4062 0.1562 L203.7344 0 L203.7344 -10.6094 Q203.7344 -11.5469 203.7188 -11.9219 Q203.7031 -12.2969 203.6406 -12.5547 Q203.5781 -12.8125 203.4609 -12.9609 Q203.3438 -13.1094 203.1562 -13.1953 Q202.9688 -13.2812 202.4688 -13.375 L202.4688 -13.875 L204.8281 -13.9688 L205.4062 -13.9688 L205.4062 -7.7969 ZM205.4062 -3.5156 Q205.4062 -2.7656 205.4766 -2.3203 Q205.5469 -1.875 205.7109 -1.5859 Q205.875 -1.2969 206.1797 -1.0469 Q206.4844 -0.7969 206.8672 -0.7031 Q207.25 -0.6094 207.7188 -0.6094 Q208.8906 -0.6094 209.4922 -1.5703 Q210.0938 -2.5312 210.0938 -4.4375 Q210.0938 -6.375 209.5469 -7.3516 Q209 -8.3281 207.875 -8.3281 Q207.3281 -8.3281 206.9375 -8.1562 Q206.5469 -7.9844 206.1562 -7.6172 Q205.7656 -7.25 205.5859 -6.8984 Q205.4062 -6.5469 205.4062 -6.1094 L205.4062 -3.5156 ZM221.75 -1.6562 Q221.125 -1 220.6016 -0.6328 Q220.0781 -0.2656 219.4531 -0.0547 Q218.8281 0.1562 218.0781 0.1562 Q216.0625 0.1562 215.0391 -1.0469 Q214.0156 -2.25 214.0156 -4.6094 Q214.0156 -6.0625 214.5391 -7.1797 Q215.0625 -8.2969 216.0312 -8.8984 Q217 -9.5 218.25 -9.5 Q219.2344 -9.5 219.9297 -9.1875 Q220.625 -8.875 221.0391 -8.3359 Q221.4531 -7.7969 221.6875 -6.9688 Q221.9219 -6.1406 221.9531 -4.8125 L215.7969 -4.8125 L215.7969 -4.6406 Q215.7969 -3.4844 216.0547 -2.7031 Q216.3125 -1.9219 216.9062 -1.4766 Q217.5 -1.0312 218.4375 -1.0312 Q219.2344 -1.0312 219.875 -1.3281 Q220.5156 -1.625 221.1562 -2.2969 L221.75 -1.6562 ZM220.1094 -5.625 Q220.0469 -6.6875 219.8438 -7.3516 Q219.6406 -8.0156 219.2344 -8.375 Q218.8281 -8.7344 218.1562 -8.7344 Q217.1562 -8.7344 216.5547 -7.9297 Q215.9531 -7.125 215.8438 -5.625 L220.1094 -5.625 ZM226.7344 -13.1719 L226.7344 -11.2656 L224.9375 -11.2656 L224.9375 -13.1719 L226.7344 -13.1719 ZM223.9531 -0.4844 Q224.3281 -0.5938 224.4922 -0.6797 Q224.6562 -0.7656 224.7656 -0.9219 Q224.875 -1.0781 224.9375 -1.4062 Q225 -1.7344 225 -2.4062 L225 -6.6719 Q225 -7.2969 224.9844 -7.6797 Q224.9688 -8.0625 224.8516 -8.2891 Q224.7344 -8.5156 224.4922 -8.625 Q224.25 -8.7344 223.8125 -8.8125 L223.8125 -9.3438 L226.0938 -9.4219 L226.6875 -9.4219 L226.6875 -2.4375 Q226.6875 -1.6094 226.7656 -1.2812 Q226.8438 -0.9531 227.0625 -0.7812 Q227.2812 -0.6094 227.7812 -0.4844 L227.7812 0 L223.9531 0 L223.9531 -0.4844 ZM239.4531 0 L235.6094 0 L235.6094 -0.4844 Q236 -0.5938 236.1641 -0.6797 Q236.3281 -0.7656 236.4375 -0.9219 Q236.5469 -1.0781 236.6094 -1.4062 Q236.6719 -1.7344 236.6719 -2.4062 L236.6719 -4.9688 Q236.6719 -5.6406 236.6328 -6.2031 Q236.5938 -6.7656 236.5 -7.1172 Q236.4062 -7.4688 236.2812 -7.6719 Q236.1562 -7.875 235.9688 -8.0156 Q235.7812 -8.1562 235.5469 -8.2422 Q235.3125 -8.3281 234.9375 -8.3281 Q234.5625 -8.3281 234.2188 -8.1719 Q233.875 -8.0156 233.4609 -7.6484 Q233.0469 -7.2812 232.8672 -6.9141 Q232.6875 -6.5469 232.6875 -6.0781 L232.6875 -2.4375 Q232.6875 -1.6094 232.7656 -1.2812 Q232.8438 -0.9531 233.0625 -0.7812 Q233.2812 -0.6094 233.7812 -0.4844 L233.7812 0 L229.9531 0 L229.9531 -0.4844 Q230.3281 -0.5938 230.4922 -0.6797 Q230.6562 -0.7656 230.7656 -0.9219 Q230.875 -1.0781 230.9375 -1.4062 Q231 -1.7344 231 -2.4062 L231 -6.6719 Q231 -7.2969 230.9844 -7.6797 Q230.9688 -8.0625 230.8516 -8.2891 Q230.7344 -8.5156 230.4922 -8.625 Q230.25 -8.7344 229.8125 -8.8125 L229.8125 -9.3438 L232.0938 -9.4219 L232.6875 -9.4219 L232.5781 -7.8281 L232.7188 -7.7969 Q233.4375 -8.5312 233.8828 -8.8438 Q234.3281 -9.1562 234.7812 -9.3281 Q235.2344 -9.5 235.75 -9.5 Q236.2812 -9.5 236.6953 -9.375 Q237.1094 -9.25 237.4219 -8.9922 Q237.7344 -8.7344 237.9453 -8.3594 Q238.1562 -7.9844 238.2578 -7.4609 Q238.3594 -6.9375 238.3594 -6.125 L238.3594 -2.4375 Q238.3594 -1.7656 238.3984 -1.4609 Q238.4375 -1.1562 238.5312 -0.9922 Q238.625 -0.8281 238.8125 -0.7188 Q239 -0.6094 239.4531 -0.4844 L239.4531 0 ZM249.7031 -8.3438 L247.9062 -8.4219 L247.8125 -8.3125 Q248.1094 -8.0156 248.2891 -7.4922 Q248.4688 -6.9688 248.4688 -6.3594 Q248.4688 -4.7656 247.4844 -3.8984 Q246.5 -3.0312 244.7031 -3.0312 Q243.8906 -3.0312 243.2969 -3.25 Q242.5625 -2.6719 242.5625 -2.125 Q242.5625 -1.7656 242.7031 -1.5781 Q242.8438 -1.3906 243.1719 -1.3125 Q243.5 -1.2344 244.1562 -1.2344 L246.5 -1.2344 Q247.5469 -1.2344 248.1953 -0.9141 Q248.8438 -0.5938 249.125 -0.0547 Q249.4062 0.4844 249.4062 1.2188 Q249.4062 2.125 248.875 2.8438 Q248.3438 3.5625 247.3516 3.9609 Q246.3594 4.3594 245.0312 4.3594 Q244.0469 4.3594 243.2266 4.2422 Q242.4062 4.125 241.8281 3.8516 Q241.25 3.5781 240.9297 3.125 Q240.6094 2.6719 240.6094 1.9844 Q240.6094 1.375 241.0234 0.8672 Q241.4375 0.3594 242.1875 -0.0156 Q241.7344 -0.2031 241.4688 -0.5625 Q241.2031 -0.9219 241.2031 -1.4219 Q241.2031 -1.9688 241.5156 -2.4375 Q241.8281 -2.9062 242.625 -3.5 Q241.9219 -3.9062 241.5547 -4.6094 Q241.1875 -5.3125 241.1875 -6.2188 Q241.1875 -7.0469 241.4609 -7.6719 Q241.7344 -8.2969 242.2266 -8.7031 Q242.7188 -9.1094 243.3984 -9.3047 Q244.0781 -9.5 244.8594 -9.5 Q245.5625 -9.5 246.25 -9.3438 L249.7031 -9.3438 L249.7031 -8.3438 ZM242.9375 -6.375 Q242.9375 -5.1406 243.4297 -4.4766 Q243.9219 -3.8125 244.8594 -3.8125 Q245.3594 -3.8125 245.7109 -4.0078 Q246.0625 -4.2031 246.2812 -4.5312 Q246.5 -4.8594 246.6016 -5.2969 Q246.7031 -5.7344 246.7031 -6.2188 Q246.7031 -7.0781 246.4609 -7.6484 Q246.2188 -8.2188 245.7969 -8.4922 Q245.375 -8.7656 244.8281 -8.7656 Q243.9062 -8.7656 243.4219 -8.1484 Q242.9375 -7.5312 242.9375 -6.375 ZM243.1719 0.1562 Q242.6719 0.5312 242.4219 0.9453 Q242.1719 1.3594 242.1719 1.8906 Q242.1719 2.7656 242.875 3.1797 Q243.5781 3.5938 245.0156 3.5938 Q245.8906 3.5938 246.5234 3.3594 Q247.1562 3.125 247.4844 2.6875 Q247.8125 2.25 247.8125 1.6562 Q247.8125 1.3906 247.7422 1.1328 Q247.6719 0.875 247.4844 0.6641 Q247.2969 0.4531 246.9453 0.3359 Q246.5938 0.2188 246.0312 0.2188 L244.5781 0.2188 Q243.7812 0.2188 243.1719 0.1562 ZM257.5625 -2.4375 Q257.5625 -1.6094 257.6406 -1.2812 Q257.7188 -0.9531 257.9375 -0.7812 Q258.1562 -0.6094 258.6562 -0.4844 L258.6562 0 L254.7656 0 L254.7656 -0.4844 Q255.2656 -0.6094 255.4531 -0.7422 Q255.6406 -0.875 255.7266 -1.0703 Q255.8125 -1.2656 255.8438 -1.5938 Q255.875 -1.9219 255.875 -2.4375 L255.875 -10.6094 Q255.875 -11.5469 255.8594 -11.9219 Q255.8438 -12.2969 255.7812 -12.5547 Q255.7188 -12.8125 255.6094 -12.9609 Q255.5 -13.1094 255.3047 -13.1953 Q255.1094 -13.2812 254.6094 -13.375 L254.6094 -13.875 L256.9688 -13.9688 L257.5625 -13.9688 L257.5625 -2.4375 ZM264.2031 0.1562 Q262.1719 0.1562 261.1016 -1.0391 Q260.0312 -2.2344 260.0312 -4.5781 Q260.0312 -6.1875 260.5938 -7.3047 Q261.1562 -8.4219 262.1328 -8.9609 Q263.1094 -9.5 264.3594 -9.5 Q266.4375 -9.5 267.5156 -8.2891 Q268.5938 -7.0781 268.5938 -4.7969 Q268.5938 -3.1719 268.0547 -2.0625 Q267.5156 -0.9531 266.5312 -0.3984 Q265.5469 0.1562 264.2031 0.1562 ZM261.875 -4.7812 Q261.875 -2.7812 262.5156 -1.6953 Q263.1562 -0.6094 264.3438 -0.6094 Q265 -0.6094 265.4609 -0.9297 Q265.9219 -1.25 266.2031 -1.7891 Q266.4844 -2.3281 266.6172 -3.0312 Q266.75 -3.7344 266.75 -4.5156 Q266.75 -5.9531 266.4297 -6.8984 Q266.1094 -7.8438 265.5625 -8.2891 Q265.0156 -8.7344 264.3125 -8.7344 Q263.125 -8.7344 262.5 -7.7109 Q261.875 -6.6875 261.875 -4.7812 ZM276.5938 -1.3906 L276.4531 -1.4375 Q275.5938 -0.5625 274.8516 -0.2031 Q274.1094 0.1562 273.2656 0.1562 Q272.5156 0.1562 271.9531 -0.1328 Q271.3906 -0.4219 271.0859 -0.9453 Q270.7812 -1.4688 270.7812 -2.1562 Q270.7812 -3.5781 272.1953 -4.3516 Q273.6094 -5.125 276.4219 -5.25 L276.4219 -5.8906 Q276.4219 -6.9062 276.2266 -7.4922 Q276.0312 -8.0781 275.6172 -8.3516 Q275.2031 -8.625 274.5 -8.625 Q273.7344 -8.625 273.2656 -8.2266 Q272.7969 -7.8281 272.5625 -7.0156 L271.2969 -7.0156 L271.2969 -8.2969 Q272.2344 -8.7812 272.8594 -9.0078 Q273.4844 -9.2344 274.1094 -9.3672 Q274.7344 -9.5 275.375 -9.5 Q276.3438 -9.5 276.9297 -9.1953 Q277.5156 -8.8906 277.8047 -8.2578 Q278.0938 -7.625 278.0938 -6.3438 L278.0938 -2.9375 Q278.0938 -2.2188 278.1016 -1.9219 Q278.1094 -1.625 278.1641 -1.3672 Q278.2188 -1.1094 278.3125 -0.9609 Q278.4062 -0.8125 278.6016 -0.7031 Q278.7969 -0.5938 279.2188 -0.4844 L279.2188 0 L276.5469 0 L276.5938 -1.3906 ZM276.4219 -4.4531 Q274.4375 -4.4375 273.4531 -3.9297 Q272.4688 -3.4219 272.4688 -2.3906 Q272.4688 -1.8438 272.6953 -1.5156 Q272.9219 -1.1875 273.2656 -1.0703 Q273.6094 -0.9531 274.0781 -0.9531 Q274.7344 -0.9531 275.2812 -1.2734 Q275.8281 -1.5938 276.125 -2.0938 Q276.4219 -2.5938 276.4219 -3.0781 L276.4219 -4.4531 ZM287.5469 -10.6094 Q287.5469 -11.5469 287.5312 -11.9219 Q287.5156 -12.2969 287.4531 -12.5547 Q287.3906 -12.8125 287.2734 -12.9609 Q287.1562 -13.1094 286.9688 -13.1953 Q286.7812 -13.2812 286.2812 -13.375 L286.2812 -13.875 L288.6406 -13.9688 L289.2188 -13.9688 L289.2188 -2.6719 Q289.2188 -1.9062 289.25 -1.5781 Q289.2812 -1.25 289.375 -1.0547 Q289.4688 -0.8594 289.6797 -0.7344 Q289.8906 -0.6094 290.4219 -0.5156 L290.4219 0 L288.1094 0.0938 L287.5312 0.0938 L287.6406 -1.5 L287.5 -1.5469 Q286.8906 -0.8906 286.4375 -0.5625 Q285.9844 -0.2344 285.4688 -0.0391 Q284.9531 0.1562 284.3594 0.1562 Q282.7656 0.1562 281.8984 -1.0625 Q281.0312 -2.2812 281.0312 -4.5781 Q281.0312 -6.1719 281.5938 -7.2891 Q282.1562 -8.4062 283.1172 -8.9531 Q284.0781 -9.5 285.2812 -9.5 Q285.9219 -9.5 286.4531 -9.3984 Q286.9844 -9.2969 287.5469 -9.0625 L287.5469 -10.6094 ZM287.5469 -5.7969 Q287.5469 -6.5469 287.4766 -7.0078 Q287.4062 -7.4688 287.2422 -7.7812 Q287.0781 -8.0938 286.8047 -8.3125 Q286.5312 -8.5312 286.2031 -8.625 Q285.875 -8.7188 285.4219 -8.7188 Q284.1719 -8.7188 283.5156 -7.7188 Q282.8594 -6.7188 282.8594 -4.8438 Q282.8594 -2.9688 283.3984 -1.9922 Q283.9375 -1.0156 285.0312 -1.0156 Q285.4531 -1.0156 285.7422 -1.0859 Q286.0312 -1.1562 286.3047 -1.3203 Q286.5781 -1.4844 286.8594 -1.7656 Q287.1406 -2.0469 287.2734 -2.2812 Q287.4062 -2.5156 287.4766 -2.8203 Q287.5469 -3.125 287.5469 -3.6094 L287.5469 -5.7969 ZM299.75 -1.6562 Q299.125 -1 298.6016 -0.6328 Q298.0781 -0.2656 297.4531 -0.0547 Q296.8281 0.1562 296.0781 0.1562 Q294.0625 0.1562 293.0391 -1.0469 Q292.0156 -2.25 292.0156 -4.6094 Q292.0156 -6.0625 292.5391 -7.1797 Q293.0625 -8.2969 294.0312 -8.8984 Q295 -9.5 296.25 -9.5 Q297.2344 -9.5 297.9297 -9.1875 Q298.625 -8.875 299.0391 -8.3359 Q299.4531 -7.7969 299.6875 -6.9688 Q299.9219 -6.1406 299.9531 -4.8125 L293.7969 -4.8125 L293.7969 -4.6406 Q293.7969 -3.4844 294.0547 -2.7031 Q294.3125 -1.9219 294.9062 -1.4766 Q295.5 -1.0312 296.4375 -1.0312 Q297.2344 -1.0312 297.875 -1.3281 Q298.5156 -1.625 299.1562 -2.2969 L299.75 -1.6562 ZM298.1094 -5.625 Q298.0469 -6.6875 297.8438 -7.3516 Q297.6406 -8.0156 297.2344 -8.375 Q296.8281 -8.7344 296.1562 -8.7344 Q295.1562 -8.7344 294.5547 -7.9297 Q293.9531 -7.125 293.8438 -5.625 L298.1094 -5.625 ZM308.5469 -10.6094 Q308.5469 -11.5469 308.5312 -11.9219 Q308.5156 -12.2969 308.4531 -12.5547 Q308.3906 -12.8125 308.2734 -12.9609 Q308.1562 -13.1094 307.9688 -13.1953 Q307.7812 -13.2812 307.2812 -13.375 L307.2812 -13.875 L309.6406 -13.9688 L310.2188 -13.9688 L310.2188 -2.6719 Q310.2188 -1.9062 310.25 -1.5781 Q310.2812 -1.25 310.375 -1.0547 Q310.4688 -0.8594 310.6797 -0.7344 Q310.8906 -0.6094 311.4219 -0.5156 L311.4219 0 L309.1094 0.0938 L308.5312 0.0938 L308.6406 -1.5 L308.5 -1.5469 Q307.8906 -0.8906 307.4375 -0.5625 Q306.9844 -0.2344 306.4688 -0.0391 Q305.9531 0.1562 305.3594 0.1562 Q303.7656 0.1562 302.8984 -1.0625 Q302.0312 -2.2812 302.0312 -4.5781 Q302.0312 -6.1719 302.5938 -7.2891 Q303.1562 -8.4062 304.1172 -8.9531 Q305.0781 -9.5 306.2812 -9.5 Q306.9219 -9.5 307.4531 -9.3984 Q307.9844 -9.2969 308.5469 -9.0625 L308.5469 -10.6094 ZM308.5469 -5.7969 Q308.5469 -6.5469 308.4766 -7.0078 Q308.4062 -7.4688 308.2422 -7.7812 Q308.0781 -8.0938 307.8047 -8.3125 Q307.5312 -8.5312 307.2031 -8.625 Q306.875 -8.7188 306.4219 -8.7188 Q305.1719 -8.7188 304.5156 -7.7188 Q303.8594 -6.7188 303.8594 -4.8438 Q303.8594 -2.9688 304.3984 -1.9922 Q304.9375 -1.0156 306.0312 -1.0156 Q306.4531 -1.0156 306.7422 -1.0859 Q307.0312 -1.1562 307.3047 -1.3203 Q307.5781 -1.4844 307.8594 -1.7656 Q308.1406 -2.0469 308.2734 -2.2812 Q308.4062 -2.5156 308.4766 -2.8203 Q308.5469 -3.125 308.5469 -3.6094 L308.5469 -5.7969 Z" stroke="none"/></g></g></svg>