<?xml version="1.0" encoding="UTF-8" standalone="no"?><svg xmlns="http://www.w3.org/2000/svg" xmlns:xlink="http://www.w3.org/1999/xlink" stroke-dasharray="none" shape-rendering="auto" font-family="'Dialog'" width="437.812600" text-rendering="auto" fill-opacity="1" contentScriptType="text/ecmascript" color-interpolation="auto" color-rendering="auto" preserveAspectRatio="xMidYMid meet" font-size="12" fill="black" stroke="black" image-rendering="auto" stroke-miterlimit="10" zoomAndPan="magnify" version="1.0" stroke-linecap="square" stroke-linejoin="miter" contentStyleType="text/css" font-style="normal" height="125" stroke-width="1" stroke-dashoffset="0" font-weight="normal" stroke-opacity="1" y="-55.000000"><!--Converted from MathML using JEuclid--><defs id="genericDefs"/><g><g text-rendering="optimizeLegibility" transform="translate(0,36.25)" color-rendering="optimizeQuality" color-interpolation="linearRGB" image-rendering="optimizeQuality"><path d="M1.5469 -3.0312 Q1.5469 -1.8594 2.0938 -1.2734 Q2.6406 -0.6875 3.8125 -0.6875 Q4.7031 -0.6875 5.3516 -1.0234 Q6 -1.3594 6.3281 -1.9688 Q6.6562 -2.5781 6.6562 -3.4219 Q6.6562 -4.0156 6.4453 -4.4688 Q6.2344 -4.9219 5.8125 -5.3359 Q5.3906 -5.75 4.5938 -6.2969 Q3.875 -6.7812 3.3906 -7.25 Q2.9062 -7.7188 2.625 -8.3047 Q2.3438 -8.8906 2.3438 -9.625 Q2.3438 -10.7656 2.8984 -11.6484 Q3.4531 -12.5312 4.4688 -13.0078 Q5.4844 -13.4844 6.8125 -13.4844 Q7.7188 -13.4844 8.4844 -13.3672 Q9.25 -13.25 10.1719 -12.9531 L9.625 -10.4375 L8.6875 -10.4375 Q8.6562 -11.2656 8.4375 -11.7422 Q8.2188 -12.2188 7.8203 -12.4219 Q7.4219 -12.625 6.7656 -12.625 Q5.9531 -12.625 5.3359 -12.2969 Q4.7188 -11.9688 4.3984 -11.3984 Q4.0781 -10.8281 4.0781 -10.125 Q4.0781 -9.6094 4.25 -9.2109 Q4.4219 -8.8125 4.8125 -8.4219 Q5.2031 -8.0312 5.9375 -7.5312 Q6.8906 -6.8594 7.3984 -6.3438 Q7.9062 -5.8281 8.1406 -5.2422 Q8.375 -4.6562 8.375 -3.875 Q8.375 -2.7031 7.8047 -1.7734 Q7.2344 -0.8438 6.1953 -0.3438 Q5.1562 0.1562 3.8281 0.1562 Q2.9219 0.1562 1.8984 0.0156 Q0.875 -0.125 0.0312 -0.3594 L0.6094 -3.0312 L1.5469 -3.0312 Z" stroke="none"/></g><g text-rendering="optimizeLegibility" transform="translate(10.1719,39.5977)" color-rendering="optimizeQuality" color-interpolation="linearRGB" image-rendering="optimizeQuality"><path d="M5.9531 -7.8438 Q6 -8.0781 6.0391 -8.3516 Q6.0781 -8.625 6.0781 -8.8281 Q6.0781 -9.0312 6.0078 -9.1406 Q5.9375 -9.25 5.7969 -9.2969 Q5.6562 -9.3438 5.2969 -9.3594 L5.375 -9.7188 L7.0938 -9.7812 L7.5 -9.7812 L5.7188 -1.9062 Q5.625 -1.4688 5.5938 -1.2578 Q5.5625 -1.0469 5.5625 -0.9062 Q5.5625 -0.625 5.7188 -0.5 Q5.875 -0.375 6.3125 -0.3281 L6.25 0 L4.2969 0 L4.7344 -1.7188 L4.6406 -1.75 Q3.9844 -0.7812 3.3984 -0.3359 Q2.8125 0.1094 2.1562 0.1094 Q1.4062 0.1094 0.9922 -0.4609 Q0.5781 -1.0312 0.5781 -2.0625 Q0.5781 -2.7188 0.7266 -3.375 Q0.875 -4.0312 1.1797 -4.625 Q1.4844 -5.2188 1.9062 -5.6719 Q2.3281 -6.125 2.8906 -6.3906 Q3.4531 -6.6562 4.1094 -6.6562 Q4.5156 -6.6562 4.8672 -6.5703 Q5.2188 -6.4844 5.5938 -6.2656 L5.9531 -7.8438 ZM5.0938 -4.1562 Q5.2031 -4.6562 5.2031 -5.0938 Q5.2031 -5.625 4.9766 -5.8672 Q4.75 -6.1094 4.2188 -6.1094 Q3.9375 -6.1094 3.6797 -6.0156 Q3.4219 -5.9219 3.1562 -5.7109 Q2.8906 -5.5 2.6484 -5.1484 Q2.4062 -4.7969 2.2031 -4.2969 Q2 -3.7969 1.8906 -3.2266 Q1.7812 -2.6562 1.7812 -2.125 Q1.7812 -1.4062 1.9766 -1.0547 Q2.1719 -0.7031 2.625 -0.7031 Q2.8438 -0.7031 3.0703 -0.7969 Q3.2969 -0.8906 3.5781 -1.1484 Q3.8594 -1.4062 4.2188 -1.9062 Q4.5469 -2.3594 4.7344 -2.8125 Q4.9219 -3.2656 5.0312 -3.875 L5.0938 -4.1562 Z" stroke="none"/></g><g text-rendering="optimizeLegibility" transform="translate(17.6719,42.9961)" color-rendering="optimizeQuality" color-interpolation="linearRGB" image-rendering="optimizeQuality"><path d="M2.7344 -6.5781 L2.5156 -5.6406 L1.6406 -5.6406 L1.875 -6.5781 L2.7344 -6.5781 ZM1.5312 -1.2188 Q1.4688 -0.9688 1.4609 -0.8594 Q1.4531 -0.75 1.4531 -0.6719 Q1.4531 -0.5156 1.5 -0.4375 Q1.5469 -0.3594 1.6484 -0.3125 Q1.75 -0.2656 1.9844 -0.2344 L1.9375 0 L0.4219 0 L1.1562 -3.2969 Q1.2188 -3.5781 1.25 -3.7422 Q1.2812 -3.9062 1.2812 -4.0312 Q1.2812 -4.1719 1.2344 -4.25 Q1.1875 -4.3281 1.0938 -4.3672 Q1 -4.4062 0.75 -4.4062 L0.8125 -4.6719 L2 -4.7188 L2.2969 -4.7188 L1.5312 -1.2188 Z" stroke="none"/></g><g text-rendering="optimizeLegibility" transform="translate(20.6406,36.25)" color-rendering="optimizeQuality" color-interpolation="linearRGB" image-rendering="optimizeQuality"><path d="M7.2188 4.25 Q5.5625 4.25 4.5078 3.75 Q3.4531 3.25 2.8672 2.2344 Q2.2812 1.2188 2.0234 -0.4141 Q1.7656 -2.0469 1.7656 -4.8438 Q1.7656 -7.625 2.0234 -9.2656 Q2.2812 -10.9062 2.8672 -11.9453 Q3.4531 -12.9844 4.5078 -13.5 Q5.5625 -14.0156 7.2188 -14.0156 L7.2188 -13.2188 Q6.5312 -13.2188 6 -13.0938 Q5.4062 -12.9531 4.9844 -12.5625 Q4.5156 -12.1406 4.2344 -11.375 Q3.8906 -10.4688 3.7188 -8.9844 Q3.5469 -7.4062 3.5469 -4.9219 Q3.5469 -2.7188 3.6953 -1.1797 Q3.8438 0.3594 4.1875 1.3281 Q4.4531 2.1562 4.8594 2.6094 Q5.2188 3.0156 5.7188 3.2188 Q6.2969 3.4531 7.2188 3.4531 L7.2188 4.25 Z" stroke="none"/></g><g text-rendering="optimizeLegibility" transform="translate(29.8594,36.25)" color-rendering="optimizeQuality" color-interpolation="linearRGB" image-rendering="optimizeQuality"><path d="M6.8125 -1.6875 L6.7812 -1.6875 Q5.7812 0.1562 3.7031 0.1562 Q2.4219 0.1562 1.6484 -0.6406 Q0.875 -1.4375 0.875 -2.9219 Q0.875 -4.7656 2.0312 -6.4766 Q3.1875 -8.1875 5.3281 -9.5 L5.7188 -8.8438 Q4.3438 -7.7812 3.4531 -6.1094 Q2.5625 -4.4375 2.5625 -2.8438 Q2.5625 -1.7031 3.0234 -1.1562 Q3.4844 -0.6094 4.2188 -0.6094 Q4.8906 -0.6094 5.4375 -1.2266 Q5.9844 -1.8438 6.2031 -2.9219 L6.9375 -6.6094 L8.5781 -6.6094 L7.7969 -2.8438 Q7.7188 -2.4219 7.7188 -2.0781 Q7.7188 -1.3906 8.0547 -1 Q8.3906 -0.6094 8.9844 -0.6094 Q10.1875 -0.6094 10.9922 -2.1094 Q11.7969 -3.6094 11.7969 -5.7812 Q11.7969 -7.8125 11 -8.9375 L11.5625 -9.5 Q13.5156 -7.6406 13.5156 -5.3594 Q13.5156 -3.125 12.2344 -1.4844 Q10.9531 0.1562 8.9688 0.1562 Q7.1562 0.1562 6.8125 -1.6875 Z" stroke="none"/></g><g text-rendering="optimizeLegibility" transform="translate(44.9531,36.25)" color-rendering="optimizeQuality" color-interpolation="linearRGB" image-rendering="optimizeQuality"><path d="M0.4219 -14.0156 Q2.0781 -14.0156 3.1328 -13.5156 Q4.1875 -13.0156 4.7734 -12 Q5.3594 -10.9844 5.6172 -9.3516 Q5.875 -7.7188 5.875 -4.9219 Q5.875 -2.1562 5.6172 -0.5078 Q5.3594 1.1406 4.7734 2.1797 Q4.1875 3.2188 3.1328 3.7344 Q2.0781 4.25 0.4219 4.25 L0.4219 3.4531 Q1.1094 3.4531 1.625 3.3281 Q2.2344 3.1875 2.6406 2.7969 Q3.1094 2.375 3.4062 1.6094 Q3.75 0.7031 3.9219 -0.7812 Q4.0938 -2.3594 4.0938 -4.8438 Q4.0938 -7.0469 3.9453 -8.5859 Q3.7969 -10.125 3.4531 -11.0938 Q3.1875 -11.9219 2.7812 -12.375 Q2.4062 -12.7812 1.9219 -12.9844 Q1.3438 -13.2188 0.4219 -13.2188 L0.4219 -14.0156 Z" stroke="none"/></g><g text-rendering="optimizeLegibility" transform="translate(53.6094,36.25)" color-rendering="optimizeQuality" color-interpolation="linearRGB" image-rendering="optimizeQuality"><path d="M1.2188 -7.0625 L1.2188 -8.4219 L9.8594 -8.4219 L9.8594 -7.0625 L1.2188 -7.0625 ZM1.2188 -3.0156 L1.2188 -4.3594 L9.8594 -4.3594 L9.8594 -3.0156 L1.2188 -3.0156 Z" stroke="none"/></g><g text-rendering="optimizeLegibility" transform="translate(67.0469,36.25)" color-rendering="optimizeQuality" color-interpolation="linearRGB" image-rendering="optimizeQuality"><path d="M5.6562 -21.375 L13.5 -9.4688 L13.5 -8.25 L4.7031 3.8281 L15.3125 3.8281 Q16.3125 3.8281 16.8203 3.7031 Q17.3281 3.5781 17.6875 3.3125 Q18.0469 3.0469 18.3438 2.5703 Q18.6406 2.0938 18.9141 1.2578 Q19.1875 0.4219 19.4375 -0.9375 L21.3125 -0.9375 L20.8438 6.9219 L0.4219 6.9219 L0.4219 6.0312 L10.375 -7.6562 L1.0312 -22.1406 L1.0312 -23.0625 L20.9375 -23.0625 L20.9375 -15.8906 L19.1875 -15.8906 Q18.7812 -17.4219 18.4219 -18.3906 Q18.0625 -19.3594 17.6875 -19.9219 Q17.3125 -20.4844 16.9141 -20.7812 Q16.5156 -21.0781 16 -21.2266 Q15.4844 -21.375 14.625 -21.375 L5.6562 -21.375 Z" stroke="none"/></g><g text-rendering="optimizeLegibility" transform="translate(70.5312,55.1094)" color-rendering="optimizeQuality" color-interpolation="linearRGB" image-rendering="optimizeQuality"><path d="M3.8438 -9.2188 L3.5312 -7.8906 L2.3281 -7.8906 L2.6406 -9.2188 L3.8438 -9.2188 ZM1.7969 0.1094 Q1.5781 1.1562 1.2031 1.7891 Q0.8281 2.4219 0.2188 2.7422 Q-0.3906 3.0625 -1.2188 3.0625 Q-1.5625 3.0625 -1.7969 2.9844 L-1.6406 2.3906 Q-1.5312 2.4219 -1.3984 2.4297 Q-1.2656 2.4375 -1.125 2.4375 Q-0.7969 2.4375 -0.5625 2.3438 Q-0.3281 2.25 -0.1328 2.0156 Q0.0625 1.7812 0.2266 1.375 Q0.3906 0.9688 0.5469 0.3125 L1.6406 -4.6094 Q1.7344 -4.9844 1.7734 -5.2266 Q1.8125 -5.4688 1.8125 -5.6406 Q1.8125 -5.8281 1.75 -5.9375 Q1.6875 -6.0469 1.5547 -6.1016 Q1.4219 -6.1562 1.0781 -6.1719 L1.1562 -6.5312 L2.8281 -6.5938 L3.2188 -6.5938 L1.7969 0.1094 Z" stroke="none"/></g><g text-rendering="optimizeLegibility" transform="translate(73.5312,55.1094)" color-rendering="optimizeQuality" color-interpolation="linearRGB" image-rendering="optimizeQuality"><path d="M0.8438 -4.9375 L0.8438 -5.8906 L6.9062 -5.8906 L6.9062 -4.9375 L0.8438 -4.9375 ZM0.8438 -2.1094 L0.8438 -3.0625 L6.9062 -3.0625 L6.9062 -2.1094 L0.8438 -2.1094 Z" stroke="none"/></g><g text-rendering="optimizeLegibility" transform="translate(80.4375,55.1094)" color-rendering="optimizeQuality" color-interpolation="linearRGB" image-rendering="optimizeQuality"><path d="M4.75 -1.7812 Q4.75 -1.3906 4.7969 -1.1875 Q4.8438 -0.9844 4.9531 -0.8594 Q5.0625 -0.7344 5.2734 -0.6641 Q5.4844 -0.5938 5.8047 -0.5547 Q6.125 -0.5156 6.6562 -0.5 L6.6562 0 L1.6094 0 L1.6094 -0.5 Q2.3594 -0.5312 2.6875 -0.5938 Q3.0156 -0.6562 3.1875 -0.7656 Q3.3594 -0.875 3.4375 -1.0938 Q3.5156 -1.3125 3.5156 -1.7812 L3.5156 -7.3281 Q3.5156 -7.6094 3.4219 -7.7344 Q3.3281 -7.8594 3.1406 -7.8594 Q2.9219 -7.8594 2.5156 -7.6328 Q2.1094 -7.4062 1.5156 -7 L1.2188 -7.5312 L4.4219 -9.4375 L4.7969 -9.4375 Q4.75 -8.7812 4.75 -7.625 L4.75 -1.7812 Z" stroke="none"/></g><g text-rendering="optimizeLegibility" transform="translate(74.625,10.6875)" color-rendering="optimizeQuality" color-interpolation="linearRGB" image-rendering="optimizeQuality"><path d="M6.4531 0 L4.2969 0 L5.1562 -3.4688 Q5.25 -3.8125 5.3281 -4.2109 Q5.4062 -4.6094 5.4062 -4.9375 Q5.4062 -5.4219 5.2344 -5.6328 Q5.0625 -5.8438 4.7031 -5.8438 Q4.4219 -5.8438 4.0938 -5.625 Q3.7656 -5.4062 3.3984 -4.9609 Q3.0312 -4.5156 2.7812 -4.0625 Q2.5312 -3.6094 2.4062 -2.9531 L1.7812 0 L0.5938 0 L1.6406 -4.6719 Q1.6719 -4.8281 1.7266 -5.1328 Q1.7812 -5.4375 1.7812 -5.6406 Q1.7812 -5.8438 1.7266 -5.9453 Q1.6719 -6.0469 1.5312 -6.1016 Q1.3906 -6.1562 1.0469 -6.1719 L1.1406 -6.5312 L2.6875 -6.5938 L3.0781 -6.5938 L2.625 -4.8125 L2.7031 -4.7969 Q3.375 -5.7344 3.9922 -6.1875 Q4.6094 -6.6406 5.2344 -6.6406 Q5.9062 -6.6406 6.2422 -6.2734 Q6.5781 -5.9062 6.5781 -5.2031 Q6.5781 -4.9531 6.5391 -4.6641 Q6.5 -4.375 6.4375 -4.1406 L5.8594 -1.7031 Q5.75 -1.2188 5.75 -0.9375 Q5.75 -0.7188 5.8203 -0.6094 Q5.8906 -0.5 6.0312 -0.4375 Q6.1719 -0.375 6.5 -0.3281 L6.4531 0 Z" stroke="none"/></g><g text-rendering="optimizeLegibility" transform="translate(94.9375,36.25)" color-rendering="optimizeQuality" color-interpolation="linearRGB" image-rendering="optimizeQuality"><path d="M5.6562 -21.375 L13.5 -9.4688 L13.5 -8.25 L4.7031 3.8281 L15.3125 3.8281 Q16.3125 3.8281 16.8203 3.7031 Q17.3281 3.5781 17.6875 3.3125 Q18.0469 3.0469 18.3438 2.5703 Q18.6406 2.0938 18.9141 1.2578 Q19.1875 0.4219 19.4375 -0.9375 L21.3125 -0.9375 L20.8438 6.9219 L0.4219 6.9219 L0.4219 6.0312 L10.375 -7.6562 L1.0312 -22.1406 L1.0312 -23.0625 L20.9375 -23.0625 L20.9375 -15.8906 L19.1875 -15.8906 Q18.7812 -17.4219 18.4219 -18.3906 Q18.0625 -19.3594 17.6875 -19.9219 Q17.3125 -20.4844 16.9141 -20.7812 Q16.5156 -21.0781 16 -21.2266 Q15.4844 -21.375 14.625 -21.375 L5.6562 -21.375 Z" stroke="none"/></g><g text-rendering="optimizeLegibility" transform="translate(95.8203,55.4531)" color-rendering="optimizeQuality" color-interpolation="linearRGB" image-rendering="optimizeQuality"><path d="M2.5156 -3.8125 L2.7344 -3.8125 Q2.9531 -3.8125 3.1953 -3.8906 Q3.4375 -3.9688 3.7188 -4.1484 Q4 -4.3281 4.4688 -4.7031 Q4.8281 -4.9844 5 -5.1875 Q5.1719 -5.3906 5.2344 -5.5391 Q5.2969 -5.6875 5.2969 -5.8281 Q5.2969 -6.1562 4.8281 -6.2031 L4.9062 -6.5312 L7.1094 -6.5312 L7.25 -6.2031 Q6.6719 -5.6875 6.0469 -5.2031 L4.3125 -3.8438 L5.3438 -1.2656 Q5.4688 -0.9062 5.6172 -0.7188 Q5.7656 -0.5312 5.9531 -0.4453 Q6.1406 -0.3594 6.4375 -0.3281 L6.3594 0 L4.5312 0 L3.5312 -2.8125 Q3.4375 -3.0781 3.3672 -3.1719 Q3.2969 -3.2656 3.2109 -3.3047 Q3.125 -3.3438 2.9219 -3.3438 L2.4219 -3.3438 L1.7031 0 L0.5312 0 L2.2812 -7.8125 Q2.3594 -8.1562 2.3906 -8.3125 Q2.4219 -8.4688 2.4375 -8.5938 Q2.4531 -8.7188 2.4531 -8.8281 Q2.4531 -9.1094 2.2734 -9.2266 Q2.0938 -9.3438 1.6406 -9.3594 L1.7344 -9.7188 L3.4531 -9.7812 L3.8594 -9.7812 L2.5156 -3.8125 Z" stroke="none"/></g><g text-rendering="optimizeLegibility" transform="translate(102.2266,55.4531)" color-rendering="optimizeQuality" color-interpolation="linearRGB" image-rendering="optimizeQuality"><path d="M0.8438 -4.9375 L0.8438 -5.8906 L6.9062 -5.8906 L6.9062 -4.9375 L0.8438 -4.9375 ZM0.8438 -2.1094 L0.8438 -3.0625 L6.9062 -3.0625 L6.9062 -2.1094 L0.8438 -2.1094 Z" stroke="none"/></g><g text-rendering="optimizeLegibility" transform="translate(109.1328,55.4531)" color-rendering="optimizeQuality" color-interpolation="linearRGB" image-rendering="optimizeQuality"><path d="M4.75 -1.7812 Q4.75 -1.3906 4.7969 -1.1875 Q4.8438 -0.9844 4.9531 -0.8594 Q5.0625 -0.7344 5.2734 -0.6641 Q5.4844 -0.5938 5.8047 -0.5547 Q6.125 -0.5156 6.6562 -0.5 L6.6562 0 L1.6094 0 L1.6094 -0.5 Q2.3594 -0.5312 2.6875 -0.5938 Q3.0156 -0.6562 3.1875 -0.7656 Q3.3594 -0.875 3.4375 -1.0938 Q3.5156 -1.3125 3.5156 -1.7812 L3.5156 -7.3281 Q3.5156 -7.6094 3.4219 -7.7344 Q3.3281 -7.8594 3.1406 -7.8594 Q2.9219 -7.8594 2.5156 -7.6328 Q2.1094 -7.4062 1.5156 -7 L1.2188 -7.5312 L4.4219 -9.4375 L4.7969 -9.4375 Q4.75 -8.7812 4.75 -7.625 L4.75 -1.7812 Z" stroke="none"/></g><g text-rendering="optimizeLegibility" transform="translate(102.5156,10.6875)" color-rendering="optimizeQuality" color-interpolation="linearRGB" image-rendering="optimizeQuality"><path d="M6.4531 0 L4.2969 0 L5.1562 -3.4688 Q5.25 -3.8125 5.3281 -4.2109 Q5.4062 -4.6094 5.4062 -4.9375 Q5.4062 -5.4219 5.2344 -5.6328 Q5.0625 -5.8438 4.7031 -5.8438 Q4.4219 -5.8438 4.0938 -5.625 Q3.7656 -5.4062 3.3984 -4.9609 Q3.0312 -4.5156 2.7812 -4.0625 Q2.5312 -3.6094 2.4062 -2.9531 L1.7812 0 L0.5938 0 L1.6406 -4.6719 Q1.6719 -4.8281 1.7266 -5.1328 Q1.7812 -5.4375 1.7812 -5.6406 Q1.7812 -5.8438 1.7266 -5.9453 Q1.6719 -6.0469 1.5312 -6.1016 Q1.3906 -6.1562 1.0469 -6.1719 L1.1406 -6.5312 L2.6875 -6.5938 L3.0781 -6.5938 L2.625 -4.8125 L2.7031 -4.7969 Q3.375 -5.7344 3.9922 -6.1875 Q4.6094 -6.6406 5.2344 -6.6406 Q5.9062 -6.6406 6.2422 -6.2734 Q6.5781 -5.9062 6.5781 -5.2031 Q6.5781 -4.9531 6.5391 -4.6641 Q6.5 -4.375 6.4375 -4.1406 L5.8594 -1.7031 Q5.75 -1.2188 5.75 -0.9375 Q5.75 -0.7188 5.8203 -0.6094 Q5.8906 -0.5 6.0312 -0.4375 Q6.1719 -0.375 6.5 -0.3281 L6.4531 0 Z" stroke="none"/></g><g text-rendering="optimizeLegibility" transform="translate(118.25,36.25)" color-rendering="optimizeQuality" color-interpolation="linearRGB" image-rendering="optimizeQuality"><path d="M6.3125 0.125 L5.4219 4.2188 L3.875 4.2188 L4.7812 0.125 Q2.8594 -0.0156 1.8438 -1.0312 Q0.8281 -2.0469 0.8281 -3.7812 Q0.8281 -6.2344 2.5938 -7.875 Q4.3594 -9.5156 6.9219 -9.5156 L7.8281 -13.5312 L9.3438 -13.5312 L8.4531 -9.5156 Q10.2812 -9.4062 11.375 -8.2969 Q12.4688 -7.1875 12.4688 -5.5 Q12.4688 -3.1562 10.8828 -1.5156 Q9.2969 0.125 6.3125 0.125 ZM8.2812 -8.7188 L6.5 -0.6719 Q8.4531 -0.7344 9.6172 -2.125 Q10.7812 -3.5156 10.7812 -5.6875 Q10.7812 -6.9688 10.0781 -7.8125 Q9.375 -8.6562 8.2812 -8.7188 ZM6.7344 -8.7188 Q5 -8.6562 3.7422 -7.2266 Q2.4844 -5.7969 2.4844 -3.7656 Q2.4844 -2.5 3.1562 -1.6328 Q3.8281 -0.7656 4.9688 -0.6719 L6.7344 -8.7188 Z" stroke="none"/></g><g text-rendering="optimizeLegibility" transform="translate(130.7188,43.5469)" color-rendering="optimizeQuality" color-interpolation="linearRGB" image-rendering="optimizeQuality"><path d="M3.8281 -9.2188 L3.5156 -7.8906 L2.2969 -7.8906 L2.625 -9.2188 L3.8281 -9.2188 ZM2.1406 -1.7031 Q2.0625 -1.3594 2.0469 -1.2031 Q2.0312 -1.0469 2.0312 -0.9375 Q2.0312 -0.7188 2.0938 -0.6094 Q2.1562 -0.5 2.3047 -0.4375 Q2.4531 -0.375 2.7812 -0.3281 L2.7188 0 L0.5938 0 L1.625 -4.6094 Q1.7188 -5 1.75 -5.2344 Q1.7812 -5.4688 1.7812 -5.6406 Q1.7812 -5.8281 1.7266 -5.9375 Q1.6719 -6.0469 1.5312 -6.1016 Q1.3906 -6.1562 1.0625 -6.1719 L1.1406 -6.5312 L2.7969 -6.5938 L3.2031 -6.5938 L2.1406 -1.7031 Z" stroke="none"/></g><g text-rendering="optimizeLegibility" transform="translate(136.3438,43.5469)" color-rendering="optimizeQuality" color-interpolation="linearRGB" image-rendering="optimizeQuality"><path d="M3.8438 -9.2188 L3.5312 -7.8906 L2.3281 -7.8906 L2.6406 -9.2188 L3.8438 -9.2188 ZM1.7969 0.1094 Q1.5781 1.1562 1.2031 1.7891 Q0.8281 2.4219 0.2188 2.7422 Q-0.3906 3.0625 -1.2188 3.0625 Q-1.5625 3.0625 -1.7969 2.9844 L-1.6406 2.3906 Q-1.5312 2.4219 -1.3984 2.4297 Q-1.2656 2.4375 -1.125 2.4375 Q-0.7969 2.4375 -0.5625 2.3438 Q-0.3281 2.25 -0.1328 2.0156 Q0.0625 1.7812 0.2266 1.375 Q0.3906 0.9688 0.5469 0.3125 L1.6406 -4.6094 Q1.7344 -4.9844 1.7734 -5.2266 Q1.8125 -5.4688 1.8125 -5.6406 Q1.8125 -5.8281 1.75 -5.9375 Q1.6875 -6.0469 1.5547 -6.1016 Q1.4219 -6.1562 1.0781 -6.1719 L1.1562 -6.5312 L2.8281 -6.5938 L3.2188 -6.5938 L1.7969 0.1094 Z" stroke="none"/></g><g text-rendering="optimizeLegibility" transform="translate(140.1875,36.25)" color-rendering="optimizeQuality" color-interpolation="linearRGB" image-rendering="optimizeQuality"><path d="M6.3125 0.125 L5.4219 4.2188 L3.875 4.2188 L4.7812 0.125 Q2.8594 -0.0156 1.8438 -1.0312 Q0.8281 -2.0469 0.8281 -3.7812 Q0.8281 -6.2344 2.5938 -7.875 Q4.3594 -9.5156 6.9219 -9.5156 L7.8281 -13.5312 L9.3438 -13.5312 L8.4531 -9.5156 Q10.2812 -9.4062 11.375 -8.2969 Q12.4688 -7.1875 12.4688 -5.5 Q12.4688 -3.1562 10.8828 -1.5156 Q9.2969 0.125 6.3125 0.125 ZM8.2812 -8.7188 L6.5 -0.6719 Q8.4531 -0.7344 9.6172 -2.125 Q10.7812 -3.5156 10.7812 -5.6875 Q10.7812 -6.9688 10.0781 -7.8125 Q9.375 -8.6562 8.2812 -8.7188 ZM6.7344 -8.7188 Q5 -8.6562 3.7422 -7.2266 Q2.4844 -5.7969 2.4844 -3.7656 Q2.4844 -2.5 3.1562 -1.6328 Q3.8281 -0.7656 4.9688 -0.6719 L6.7344 -8.7188 Z" stroke="none"/></g><g text-rendering="optimizeLegibility" transform="translate(152.6562,45.3594)" color-rendering="optimizeQuality" color-interpolation="linearRGB" image-rendering="optimizeQuality"><path d="M3.8281 -9.2188 L3.5156 -7.8906 L2.2969 -7.8906 L2.625 -9.2188 L3.8281 -9.2188 ZM2.1406 -1.7031 Q2.0625 -1.3594 2.0469 -1.2031 Q2.0312 -1.0469 2.0312 -0.9375 Q2.0312 -0.7188 2.0938 -0.6094 Q2.1562 -0.5 2.3047 -0.4375 Q2.4531 -0.375 2.7812 -0.3281 L2.7188 0 L0.5938 0 L1.625 -4.6094 Q1.7188 -5 1.75 -5.2344 Q1.7812 -5.4688 1.7812 -5.6406 Q1.7812 -5.8281 1.7266 -5.9375 Q1.6719 -6.0469 1.5312 -6.1016 Q1.3906 -6.1562 1.0625 -6.1719 L1.1406 -6.5312 L2.7969 -6.5938 L3.2031 -6.5938 L2.1406 -1.7031 Z" stroke="none"/></g><g text-rendering="optimizeLegibility" transform="translate(156.4844,45.3594)" color-rendering="optimizeQuality" color-interpolation="linearRGB" image-rendering="optimizeQuality"><path d="M2.5156 -3.8125 L2.7344 -3.8125 Q2.9531 -3.8125 3.1953 -3.8906 Q3.4375 -3.9688 3.7188 -4.1484 Q4 -4.3281 4.4688 -4.7031 Q4.8281 -4.9844 5 -5.1875 Q5.1719 -5.3906 5.2344 -5.5391 Q5.2969 -5.6875 5.2969 -5.8281 Q5.2969 -6.1562 4.8281 -6.2031 L4.9062 -6.5312 L7.1094 -6.5312 L7.25 -6.2031 Q6.6719 -5.6875 6.0469 -5.2031 L4.3125 -3.8438 L5.3438 -1.2656 Q5.4688 -0.9062 5.6172 -0.7188 Q5.7656 -0.5312 5.9531 -0.4453 Q6.1406 -0.3594 6.4375 -0.3281 L6.3594 0 L4.5312 0 L3.5312 -2.8125 Q3.4375 -3.0781 3.3672 -3.1719 Q3.2969 -3.2656 3.2109 -3.3047 Q3.125 -3.3438 2.9219 -3.3438 L2.4219 -3.3438 L1.7031 0 L0.5312 0 L2.2812 -7.8125 Q2.3594 -8.1562 2.3906 -8.3125 Q2.4219 -8.4688 2.4375 -8.5938 Q2.4531 -8.7188 2.4531 -8.8281 Q2.4531 -9.1094 2.2734 -9.2266 Q2.0938 -9.3438 1.6406 -9.3594 L1.7344 -9.7188 L3.4531 -9.7812 L3.8594 -9.7812 L2.5156 -3.8125 Z" stroke="none"/></g><g text-rendering="optimizeLegibility" transform="translate(163.9688,44.1915) matrix(1,0,0,3.1051,0,0)" color-rendering="optimizeQuality" color-interpolation="linearRGB" image-rendering="optimizeQuality"><path d="M7.2188 4.25 Q5.5625 4.25 4.5078 3.75 Q3.4531 3.25 2.8672 2.2344 Q2.2812 1.2188 2.0234 -0.4141 Q1.7656 -2.0469 1.7656 -4.8438 Q1.7656 -7.625 2.0234 -9.2656 Q2.2812 -10.9062 2.8672 -11.9453 Q3.4531 -12.9844 4.5078 -13.5 Q5.5625 -14.0156 7.2188 -14.0156 L7.2188 -13.2188 Q6.5312 -13.2188 6 -13.0938 Q5.4062 -12.9531 4.9844 -12.5625 Q4.5156 -12.1406 4.2344 -11.375 Q3.8906 -10.4688 3.7188 -8.9844 Q3.5469 -7.4062 3.5469 -4.9219 Q3.5469 -2.7188 3.6953 -1.1797 Q3.8438 0.3594 4.1875 1.3281 Q4.4531 2.1562 4.8594 2.6094 Q5.2188 3.0156 5.7188 3.2188 Q6.2969 3.4531 7.2188 3.4531 L7.2188 4.25 Z" stroke="none"/></g><g text-rendering="optimizeLegibility" transform="translate(174.7656,36.25)" color-rendering="optimizeQuality" color-interpolation="linearRGB" image-rendering="optimizeQuality"><path d="M5.6562 -21.375 L13.5 -9.4688 L13.5 -8.25 L4.7031 3.8281 L15.3125 3.8281 Q16.3125 3.8281 16.8203 3.7031 Q17.3281 3.5781 17.6875 3.3125 Q18.0469 3.0469 18.3438 2.5703 Q18.6406 2.0938 18.9141 1.2578 Q19.1875 0.4219 19.4375 -0.9375 L21.3125 -0.9375 L20.8438 6.9219 L0.4219 6.9219 L0.4219 6.0312 L10.375 -7.6562 L1.0312 -22.1406 L1.0312 -23.0625 L20.9375 -23.0625 L20.9375 -15.8906 L19.1875 -15.8906 Q18.7812 -17.4219 18.4219 -18.3906 Q18.0625 -19.3594 17.6875 -19.9219 Q17.3125 -20.4844 16.9141 -20.7812 Q16.5156 -21.0781 16 -21.2266 Q15.4844 -21.375 14.625 -21.375 L5.6562 -21.375 Z" stroke="none"/></g><g text-rendering="optimizeLegibility" transform="translate(177.2656,55.1094)" color-rendering="optimizeQuality" color-interpolation="linearRGB" image-rendering="optimizeQuality"><path d="M3.375 -2.2344 L3.375 -1.7188 Q1.9531 0.1719 1.0469 0.1719 Q0.5625 0.1719 0.2891 -0.3594 Q0.0156 -0.8906 0.0156 -1.75 Q0.0156 -2.4531 0.3438 -3.4141 Q0.6719 -4.375 1.2188 -5.3594 Q1.7656 -6.3438 2.3594 -7.0781 Q2.9531 -7.8125 3.4531 -8.1094 Q3.6719 -8.2344 3.7812 -8.2344 Q3.9219 -8.2344 3.9688 -8.1094 Q4.0156 -7.9844 4.0156 -7.6719 Q4.0156 -6.7188 3.2422 -5.3359 Q2.4688 -3.9531 1.0938 -2.5156 Q1.0312 -2.1562 1.0312 -1.9688 Q1.0312 -1.5312 1.2188 -1.2578 Q1.4062 -0.9844 1.7344 -0.9844 Q1.9062 -0.9844 2.1016 -1.1172 Q2.2969 -1.25 2.5156 -1.4453 Q2.7344 -1.6406 3.375 -2.2344 ZM1.3281 -3.4531 Q1.6875 -3.8125 2.0234 -4.2578 Q2.3594 -4.7031 2.6484 -5.2031 Q2.9375 -5.7031 3.1094 -6.1094 Q3.2812 -6.5156 3.2812 -6.7188 Q3.2812 -6.875 3.1719 -6.875 Q3.125 -6.875 3.0156 -6.7969 Q2.5938 -6.4531 2.0703 -5.4609 Q1.5469 -4.4688 1.3281 -3.4531 Z" stroke="none"/></g><g text-rendering="optimizeLegibility" transform="translate(180.4375,55.1094)" color-rendering="optimizeQuality" color-interpolation="linearRGB" image-rendering="optimizeQuality"><path d="M0.8438 -4.9375 L0.8438 -5.8906 L6.9062 -5.8906 L6.9062 -4.9375 L0.8438 -4.9375 ZM0.8438 -2.1094 L0.8438 -3.0625 L6.9062 -3.0625 L6.9062 -2.1094 L0.8438 -2.1094 Z" stroke="none"/></g><g text-rendering="optimizeLegibility" transform="translate(187.3438,55.1094)" color-rendering="optimizeQuality" color-interpolation="linearRGB" image-rendering="optimizeQuality"><path d="M4.75 -1.7812 Q4.75 -1.3906 4.7969 -1.1875 Q4.8438 -0.9844 4.9531 -0.8594 Q5.0625 -0.7344 5.2734 -0.6641 Q5.4844 -0.5938 5.8047 -0.5547 Q6.125 -0.5156 6.6562 -0.5 L6.6562 0 L1.6094 0 L1.6094 -0.5 Q2.3594 -0.5312 2.6875 -0.5938 Q3.0156 -0.6562 3.1875 -0.7656 Q3.3594 -0.875 3.4375 -1.0938 Q3.5156 -1.3125 3.5156 -1.7812 L3.5156 -7.3281 Q3.5156 -7.6094 3.4219 -7.7344 Q3.3281 -7.8594 3.1406 -7.8594 Q2.9219 -7.8594 2.5156 -7.6328 Q2.1094 -7.4062 1.5156 -7 L1.2188 -7.5312 L4.4219 -9.4375 L4.7969 -9.4375 Q4.75 -8.7812 4.75 -7.625 L4.75 -1.7812 Z" stroke="none"/></g><g text-rendering="optimizeLegibility" transform="translate(180.2031,7.3125)" color-rendering="optimizeQuality" color-interpolation="linearRGB" image-rendering="optimizeQuality"><path d="M2.7188 -6.5938 L3.125 -6.5938 L2.6562 -4.9219 L2.7344 -4.8906 Q3.3906 -5.7812 4.0078 -6.2109 Q4.625 -6.6406 5.2812 -6.6406 Q5.7812 -6.6406 6.1094 -6.5625 L5.7812 -5.0312 L5.0781 -5.0312 Q5.0312 -5.3906 4.9141 -5.5781 Q4.7969 -5.7656 4.5469 -5.7656 Q4.2812 -5.7656 3.9297 -5.4922 Q3.5781 -5.2188 3.2188 -4.7422 Q2.8594 -4.2656 2.6797 -3.8594 Q2.5 -3.4531 2.4062 -2.9531 L1.7812 0 L0.5938 0 L1.6406 -4.6719 Q1.7812 -5.3125 1.7812 -5.6406 Q1.7812 -5.8438 1.7188 -5.9453 Q1.6562 -6.0469 1.5156 -6.1016 Q1.375 -6.1562 1.0469 -6.1719 L1.125 -6.5312 L2.7188 -6.5938 Z" stroke="none"/></g><g text-rendering="optimizeLegibility" transform="translate(186.3125,10.6875)" color-rendering="optimizeQuality" color-interpolation="linearRGB" image-rendering="optimizeQuality"><path d="M3.3906 -1.2812 Q3.3906 -0.9844 3.4219 -0.8438 Q3.4531 -0.7031 3.5391 -0.6094 Q3.625 -0.5156 3.7734 -0.4688 Q3.9219 -0.4219 4.1484 -0.3906 Q4.375 -0.3594 4.75 -0.3594 L4.75 0 L1.1406 0 L1.1406 -0.3594 Q1.6875 -0.375 1.9219 -0.4219 Q2.1562 -0.4688 2.2734 -0.5469 Q2.3906 -0.625 2.4531 -0.7812 Q2.5156 -0.9375 2.5156 -1.2812 L2.5156 -5.2344 Q2.5156 -5.4375 2.4453 -5.5234 Q2.375 -5.6094 2.2344 -5.6094 Q2.0781 -5.6094 1.7969 -5.4453 Q1.5156 -5.2812 1.0781 -5 L0.875 -5.375 L3.1562 -6.75 L3.4219 -6.75 Q3.3906 -6.2812 3.3906 -5.4375 L3.3906 -1.2812 Z" stroke="none"/></g><g text-rendering="optimizeLegibility" transform="translate(202.6562,36.25)" color-rendering="optimizeQuality" color-interpolation="linearRGB" image-rendering="optimizeQuality"><path d="M5.6562 -21.375 L13.5 -9.4688 L13.5 -8.25 L4.7031 3.8281 L15.3125 3.8281 Q16.3125 3.8281 16.8203 3.7031 Q17.3281 3.5781 17.6875 3.3125 Q18.0469 3.0469 18.3438 2.5703 Q18.6406 2.0938 18.9141 1.2578 Q19.1875 0.4219 19.4375 -0.9375 L21.3125 -0.9375 L20.8438 6.9219 L0.4219 6.9219 L0.4219 6.0312 L10.375 -7.6562 L1.0312 -22.1406 L1.0312 -23.0625 L20.9375 -23.0625 L20.9375 -15.8906 L19.1875 -15.8906 Q18.7812 -17.4219 18.4219 -18.3906 Q18.0625 -19.3594 17.6875 -19.9219 Q17.3125 -20.4844 16.9141 -20.7812 Q16.5156 -21.0781 16 -21.2266 Q15.4844 -21.375 14.625 -21.375 L5.6562 -21.375 Z" stroke="none"/></g><g text-rendering="optimizeLegibility" transform="translate(202.0234,55.1094)" color-rendering="optimizeQuality" color-interpolation="linearRGB" image-rendering="optimizeQuality"><path d="M6.5625 -5.2031 L6.5625 -5.0938 Q6.5625 -5.0469 6.5469 -5 Q7.1406 -5.8438 7.7266 -6.2422 Q8.3125 -6.6406 8.9531 -6.6406 Q9.5938 -6.6406 9.9375 -6.2734 Q10.2812 -5.9062 10.2812 -5.2031 Q10.2812 -4.7656 10.1406 -4.1406 L9.5625 -1.7031 Q9.4531 -1.2188 9.4531 -0.9375 Q9.4531 -0.7188 9.5156 -0.6094 Q9.5781 -0.5 9.7266 -0.4375 Q9.875 -0.375 10.2031 -0.3281 L10.1406 0 L7.9844 0 L8.8594 -3.4688 Q8.9531 -3.8438 9.0234 -4.2344 Q9.0938 -4.625 9.0938 -4.9375 Q9.0938 -5.4219 8.9219 -5.6328 Q8.75 -5.8438 8.375 -5.8438 Q8.1094 -5.8438 7.7812 -5.625 Q7.4531 -5.4062 7.0938 -4.9531 Q6.7344 -4.5 6.5 -4.0625 Q6.2656 -3.625 6.125 -2.9844 L5.5156 0 L4.3281 0 L5.1094 -3.4688 Q5.25 -4.1094 5.3047 -4.4141 Q5.3594 -4.7188 5.3594 -4.9375 Q5.3594 -5.4219 5.1875 -5.6328 Q5.0156 -5.8438 4.6406 -5.8438 Q4.375 -5.8438 4.0391 -5.625 Q3.7031 -5.4062 3.3359 -4.9375 Q2.9688 -4.4688 2.7422 -4.0234 Q2.5156 -3.5781 2.4062 -2.9531 L1.7812 0 L0.5938 0 L1.6406 -4.6719 Q1.6719 -4.8281 1.7266 -5.1328 Q1.7812 -5.4375 1.7812 -5.6406 Q1.7812 -5.8438 1.7266 -5.9453 Q1.6719 -6.0469 1.5312 -6.1016 Q1.3906 -6.1562 1.0469 -6.1719 L1.1406 -6.5312 L2.6875 -6.5938 L3.0781 -6.5938 L2.625 -4.8281 L2.7031 -4.7969 Q3.3438 -5.7344 3.9609 -6.1875 Q4.5781 -6.6406 5.2188 -6.6406 Q5.875 -6.6406 6.2188 -6.2734 Q6.5625 -5.9062 6.5625 -5.2031 Z" stroke="none"/></g><g text-rendering="optimizeLegibility" transform="translate(211.4609,55.1094)" color-rendering="optimizeQuality" color-interpolation="linearRGB" image-rendering="optimizeQuality"><path d="M0.8438 -4.9375 L0.8438 -5.8906 L6.9062 -5.8906 L6.9062 -4.9375 L0.8438 -4.9375 ZM0.8438 -2.1094 L0.8438 -3.0625 L6.9062 -3.0625 L6.9062 -2.1094 L0.8438 -2.1094 Z" stroke="none"/></g><g text-rendering="optimizeLegibility" transform="translate(218.3672,55.1094)" color-rendering="optimizeQuality" color-interpolation="linearRGB" image-rendering="optimizeQuality"><path d="M4.75 -1.7812 Q4.75 -1.3906 4.7969 -1.1875 Q4.8438 -0.9844 4.9531 -0.8594 Q5.0625 -0.7344 5.2734 -0.6641 Q5.4844 -0.5938 5.8047 -0.5547 Q6.125 -0.5156 6.6562 -0.5 L6.6562 0 L1.6094 0 L1.6094 -0.5 Q2.3594 -0.5312 2.6875 -0.5938 Q3.0156 -0.6562 3.1875 -0.7656 Q3.3594 -0.875 3.4375 -1.0938 Q3.5156 -1.3125 3.5156 -1.7812 L3.5156 -7.3281 Q3.5156 -7.6094 3.4219 -7.7344 Q3.3281 -7.8594 3.1406 -7.8594 Q2.9219 -7.8594 2.5156 -7.6328 Q2.1094 -7.4062 1.5156 -7 L1.2188 -7.5312 L4.4219 -9.4375 L4.7969 -9.4375 Q4.75 -8.7812 4.75 -7.625 L4.75 -1.7812 Z" stroke="none"/></g><g text-rendering="optimizeLegibility" transform="translate(208.0938,7.3125)" color-rendering="optimizeQuality" color-interpolation="linearRGB" image-rendering="optimizeQuality"><path d="M2.7188 -6.5938 L3.125 -6.5938 L2.6562 -4.9219 L2.7344 -4.8906 Q3.3906 -5.7812 4.0078 -6.2109 Q4.625 -6.6406 5.2812 -6.6406 Q5.7812 -6.6406 6.1094 -6.5625 L5.7812 -5.0312 L5.0781 -5.0312 Q5.0312 -5.3906 4.9141 -5.5781 Q4.7969 -5.7656 4.5469 -5.7656 Q4.2812 -5.7656 3.9297 -5.4922 Q3.5781 -5.2188 3.2188 -4.7422 Q2.8594 -4.2656 2.6797 -3.8594 Q2.5 -3.4531 2.4062 -2.9531 L1.7812 0 L0.5938 0 L1.6406 -4.6719 Q1.7812 -5.3125 1.7812 -5.6406 Q1.7812 -5.8438 1.7188 -5.9453 Q1.6562 -6.0469 1.5156 -6.1016 Q1.375 -6.1562 1.0469 -6.1719 L1.125 -6.5312 L2.7188 -6.5938 Z" stroke="none"/></g><g text-rendering="optimizeLegibility" transform="translate(214.2031,10.6875)" color-rendering="optimizeQuality" color-interpolation="linearRGB" image-rendering="optimizeQuality"><path d="M3.3906 -1.2812 Q3.3906 -0.9844 3.4219 -0.8438 Q3.4531 -0.7031 3.5391 -0.6094 Q3.625 -0.5156 3.7734 -0.4688 Q3.9219 -0.4219 4.1484 -0.3906 Q4.375 -0.3594 4.75 -0.3594 L4.75 0 L1.1406 0 L1.1406 -0.3594 Q1.6875 -0.375 1.9219 -0.4219 Q2.1562 -0.4688 2.2734 -0.5469 Q2.3906 -0.625 2.4531 -0.7812 Q2.5156 -0.9375 2.5156 -1.2812 L2.5156 -5.2344 Q2.5156 -5.4375 2.4453 -5.5234 Q2.375 -5.6094 2.2344 -5.6094 Q2.0781 -5.6094 1.7969 -5.4453 Q1.5156 -5.2812 1.0781 -5 L0.875 -5.375 L3.1562 -6.75 L3.4219 -6.75 Q3.3906 -6.2812 3.3906 -5.4375 L3.3906 -1.2812 Z" stroke="none"/></g><g text-rendering="optimizeLegibility" transform="translate(225.9688,36.25)" color-rendering="optimizeQuality" color-interpolation="linearRGB" image-rendering="optimizeQuality"><path d="M10.3594 -8.8906 Q6.8125 -4.625 4.1562 -0.0938 Q4.1094 0.4062 3.9688 1.0156 Q3.8125 1.625 3.7031 2.2188 Q3.5781 2.8281 3.2969 3.9219 L1.9219 3.9219 L1.6406 3.4375 L1.7188 3.1719 Q2.1562 1.6875 2.9375 0.1719 Q3.1406 -2.2969 3.1406 -4 Q3.1406 -8.4531 1.7969 -8.4531 Q1.3594 -8.4531 0.8594 -8.0312 L0.4844 -8.4531 Q1.625 -9.5 2.7031 -9.5 Q4.7031 -9.5 4.7031 -5.3594 Q4.7031 -3.9219 4.4375 -2.0625 L4.5 -2.0625 Q7.3281 -6.8281 8.4844 -9.3438 L10.1719 -9.3438 L10.3594 -8.8906 Z" stroke="none"/></g><g text-rendering="optimizeLegibility" transform="translate(236.3281,43.25)" color-rendering="optimizeQuality" color-interpolation="linearRGB" image-rendering="optimizeQuality"><path d="M3.375 -2.2344 L3.375 -1.7188 Q1.9531 0.1719 1.0469 0.1719 Q0.5625 0.1719 0.2891 -0.3594 Q0.0156 -0.8906 0.0156 -1.75 Q0.0156 -2.4531 0.3438 -3.4141 Q0.6719 -4.375 1.2188 -5.3594 Q1.7656 -6.3438 2.3594 -7.0781 Q2.9531 -7.8125 3.4531 -8.1094 Q3.6719 -8.2344 3.7812 -8.2344 Q3.9219 -8.2344 3.9688 -8.1094 Q4.0156 -7.9844 4.0156 -7.6719 Q4.0156 -6.7188 3.2422 -5.3359 Q2.4688 -3.9531 1.0938 -2.5156 Q1.0312 -2.1562 1.0312 -1.9688 Q1.0312 -1.5312 1.2188 -1.2578 Q1.4062 -0.9844 1.7344 -0.9844 Q1.9062 -0.9844 2.1016 -1.1172 Q2.2969 -1.25 2.5156 -1.4453 Q2.7344 -1.6406 3.375 -2.2344 ZM1.3281 -3.4531 Q1.6875 -3.8125 2.0234 -4.2578 Q2.3594 -4.7031 2.6484 -5.2031 Q2.9375 -5.7031 3.1094 -6.1094 Q3.2812 -6.5156 3.2812 -6.7188 Q3.2812 -6.875 3.1719 -6.875 Q3.125 -6.875 3.0156 -6.7969 Q2.5938 -6.4531 2.0703 -5.4609 Q1.5469 -4.4688 1.3281 -3.4531 Z" stroke="none"/></g><g text-rendering="optimizeLegibility" transform="translate(242.1406,43.25)" color-rendering="optimizeQuality" color-interpolation="linearRGB" image-rendering="optimizeQuality"><path d="M3.8438 -9.2188 L3.5312 -7.8906 L2.3281 -7.8906 L2.6406 -9.2188 L3.8438 -9.2188 ZM1.7969 0.1094 Q1.5781 1.1562 1.2031 1.7891 Q0.8281 2.4219 0.2188 2.7422 Q-0.3906 3.0625 -1.2188 3.0625 Q-1.5625 3.0625 -1.7969 2.9844 L-1.6406 2.3906 Q-1.5312 2.4219 -1.3984 2.4297 Q-1.2656 2.4375 -1.125 2.4375 Q-0.7969 2.4375 -0.5625 2.3438 Q-0.3281 2.25 -0.1328 2.0156 Q0.0625 1.7812 0.2266 1.375 Q0.3906 0.9688 0.5469 0.3125 L1.6406 -4.6094 Q1.7344 -4.9844 1.7734 -5.2266 Q1.8125 -5.4688 1.8125 -5.6406 Q1.8125 -5.8281 1.75 -5.9375 Q1.6875 -6.0469 1.5547 -6.1016 Q1.4219 -6.1562 1.0781 -6.1719 L1.1562 -6.5312 L2.8281 -6.5938 L3.2188 -6.5938 L1.7969 0.1094 Z" stroke="none"/></g><g text-rendering="optimizeLegibility" transform="translate(245.9844,36.25)" color-rendering="optimizeQuality" color-interpolation="linearRGB" image-rendering="optimizeQuality"><path d="M10.3594 -8.8906 Q6.8125 -4.625 4.1562 -0.0938 Q4.1094 0.4062 3.9688 1.0156 Q3.8125 1.625 3.7031 2.2188 Q3.5781 2.8281 3.2969 3.9219 L1.9219 3.9219 L1.6406 3.4375 L1.7188 3.1719 Q2.1562 1.6875 2.9375 0.1719 Q3.1406 -2.2969 3.1406 -4 Q3.1406 -8.4531 1.7969 -8.4531 Q1.3594 -8.4531 0.8594 -8.0312 L0.4844 -8.4531 Q1.625 -9.5 2.7031 -9.5 Q4.7031 -9.5 4.7031 -5.3594 Q4.7031 -3.9219 4.4375 -2.0625 L4.5 -2.0625 Q7.3281 -6.8281 8.4844 -9.3438 L10.1719 -9.3438 L10.3594 -8.8906 Z" stroke="none"/></g><g text-rendering="optimizeLegibility" transform="translate(256.3438,45.0625)" color-rendering="optimizeQuality" color-interpolation="linearRGB" image-rendering="optimizeQuality"><path d="M6.5625 -5.2031 L6.5625 -5.0938 Q6.5625 -5.0469 6.5469 -5 Q7.1406 -5.8438 7.7266 -6.2422 Q8.3125 -6.6406 8.9531 -6.6406 Q9.5938 -6.6406 9.9375 -6.2734 Q10.2812 -5.9062 10.2812 -5.2031 Q10.2812 -4.7656 10.1406 -4.1406 L9.5625 -1.7031 Q9.4531 -1.2188 9.4531 -0.9375 Q9.4531 -0.7188 9.5156 -0.6094 Q9.5781 -0.5 9.7266 -0.4375 Q9.875 -0.375 10.2031 -0.3281 L10.1406 0 L7.9844 0 L8.8594 -3.4688 Q8.9531 -3.8438 9.0234 -4.2344 Q9.0938 -4.625 9.0938 -4.9375 Q9.0938 -5.4219 8.9219 -5.6328 Q8.75 -5.8438 8.375 -5.8438 Q8.1094 -5.8438 7.7812 -5.625 Q7.4531 -5.4062 7.0938 -4.9531 Q6.7344 -4.5 6.5 -4.0625 Q6.2656 -3.625 6.125 -2.9844 L5.5156 0 L4.3281 0 L5.1094 -3.4688 Q5.25 -4.1094 5.3047 -4.4141 Q5.3594 -4.7188 5.3594 -4.9375 Q5.3594 -5.4219 5.1875 -5.6328 Q5.0156 -5.8438 4.6406 -5.8438 Q4.375 -5.8438 4.0391 -5.625 Q3.7031 -5.4062 3.3359 -4.9375 Q2.9688 -4.4688 2.7422 -4.0234 Q2.5156 -3.5781 2.4062 -2.9531 L1.7812 0 L0.5938 0 L1.6406 -4.6719 Q1.6719 -4.8281 1.7266 -5.1328 Q1.7812 -5.4375 1.7812 -5.6406 Q1.7812 -5.8438 1.7266 -5.9453 Q1.6719 -6.0469 1.5312 -6.1016 Q1.3906 -6.1562 1.0469 -6.1719 L1.1406 -6.5312 L2.6875 -6.5938 L3.0781 -6.5938 L2.625 -4.8281 L2.7031 -4.7969 Q3.3438 -5.7344 3.9609 -6.1875 Q4.5781 -6.6406 5.2188 -6.6406 Q5.875 -6.6406 6.2188 -6.2734 Q6.5625 -5.9062 6.5625 -5.2031 Z" stroke="none"/></g><g text-rendering="optimizeLegibility" transform="translate(266.625,45.0625)" color-rendering="optimizeQuality" color-interpolation="linearRGB" image-rendering="optimizeQuality"><path d="M2.5156 -3.8125 L2.7344 -3.8125 Q2.9531 -3.8125 3.1953 -3.8906 Q3.4375 -3.9688 3.7188 -4.1484 Q4 -4.3281 4.4688 -4.7031 Q4.8281 -4.9844 5 -5.1875 Q5.1719 -5.3906 5.2344 -5.5391 Q5.2969 -5.6875 5.2969 -5.8281 Q5.2969 -6.1562 4.8281 -6.2031 L4.9062 -6.5312 L7.1094 -6.5312 L7.25 -6.2031 Q6.6719 -5.6875 6.0469 -5.2031 L4.3125 -3.8438 L5.3438 -1.2656 Q5.4688 -0.9062 5.6172 -0.7188 Q5.7656 -0.5312 5.9531 -0.4453 Q6.1406 -0.3594 6.4375 -0.3281 L6.3594 0 L4.5312 0 L3.5312 -2.8125 Q3.4375 -3.0781 3.3672 -3.1719 Q3.2969 -3.2656 3.2109 -3.3047 Q3.125 -3.3438 2.9219 -3.3438 L2.4219 -3.3438 L1.7031 0 L0.5312 0 L2.2812 -7.8125 Q2.3594 -8.1562 2.3906 -8.3125 Q2.4219 -8.4688 2.4375 -8.5938 Q2.4531 -8.7188 2.4531 -8.8281 Q2.4531 -9.1094 2.2734 -9.2266 Q2.0938 -9.3438 1.6406 -9.3594 L1.7344 -9.7188 L3.4531 -9.7812 L3.8594 -9.7812 L2.5156 -3.8125 Z" stroke="none"/></g><g text-rendering="optimizeLegibility" transform="translate(273.875,36.25)" color-rendering="optimizeQuality" color-interpolation="linearRGB" image-rendering="optimizeQuality"><path d="M10.6562 -2.8438 Q10.5312 -2.2656 10.4922 -1.9297 Q10.4531 -1.5938 10.4531 -1.3125 Q10.4531 -0.875 10.6719 -0.6953 Q10.8906 -0.5156 11.4062 -0.4844 L11.2969 0 L7.3906 0 L7.5 -0.4844 Q7.875 -0.5312 8.0625 -0.6641 Q8.25 -0.7969 8.375 -1.0312 Q8.5 -1.2656 8.6094 -1.6016 Q8.7188 -1.9375 8.9219 -2.9062 L9.7344 -6.5312 L4.4844 -6.5312 L3.6719 -2.8438 Q3.5938 -2.4844 3.5469 -2.25 Q3.5 -2.0156 3.4844 -1.7969 Q3.4688 -1.5781 3.4688 -1.3125 Q3.4688 -0.9062 3.6641 -0.7188 Q3.8594 -0.5312 4.4219 -0.4844 L4.3125 0 L0.4062 0 L0.5156 -0.4844 Q0.8906 -0.5312 1.0781 -0.6641 Q1.2656 -0.7969 1.3906 -1.0312 Q1.5156 -1.2656 1.625 -1.6016 Q1.7344 -1.9375 1.9375 -2.9062 L3.6094 -10.4375 Q3.6875 -10.8281 3.75 -11.2812 Q3.8125 -11.7344 3.8125 -12 Q3.8125 -12.4688 3.5781 -12.6484 Q3.3438 -12.8281 2.8594 -12.8594 L2.9688 -13.3281 L6.875 -13.3281 L6.7656 -12.8594 Q6.3906 -12.7812 6.2344 -12.6797 Q6.0781 -12.5781 5.9453 -12.3828 Q5.8125 -12.1875 5.6797 -11.7734 Q5.5469 -11.3594 5.3438 -10.4219 L4.6719 -7.4375 L9.9219 -7.4375 L10.5938 -10.4375 Q10.6719 -10.8281 10.7344 -11.2812 Q10.7969 -11.7344 10.7969 -12 Q10.7969 -12.4688 10.5625 -12.6484 Q10.3281 -12.8281 9.8438 -12.8594 L9.9531 -13.3281 L13.8594 -13.3281 L13.75 -12.8594 Q13.4219 -12.7812 13.2812 -12.7109 Q13.1406 -12.6406 13.0312 -12.5234 Q12.9219 -12.4062 12.8203 -12.1875 Q12.7188 -11.9688 12.6016 -11.5391 Q12.4844 -11.1094 12.3281 -10.4219 L10.6562 -2.8438 Z" stroke="none"/></g><g text-rendering="optimizeLegibility" transform="translate(289.5312,39.3281)" color-rendering="optimizeQuality" color-interpolation="linearRGB" image-rendering="optimizeQuality"><path d="M3.8438 -9.2188 L3.5312 -7.8906 L2.3281 -7.8906 L2.6406 -9.2188 L3.8438 -9.2188 ZM1.7969 0.1094 Q1.5781 1.1562 1.2031 1.7891 Q0.8281 2.4219 0.2188 2.7422 Q-0.3906 3.0625 -1.2188 3.0625 Q-1.5625 3.0625 -1.7969 2.9844 L-1.6406 2.3906 Q-1.5312 2.4219 -1.3984 2.4297 Q-1.2656 2.4375 -1.125 2.4375 Q-0.7969 2.4375 -0.5625 2.3438 Q-0.3281 2.25 -0.1328 2.0156 Q0.0625 1.7812 0.2266 1.375 Q0.3906 0.9688 0.5469 0.3125 L1.6406 -4.6094 Q1.7344 -4.9844 1.7734 -5.2266 Q1.8125 -5.4688 1.8125 -5.6406 Q1.8125 -5.8281 1.75 -5.9375 Q1.6875 -6.0469 1.5547 -6.1016 Q1.4219 -6.1562 1.0781 -6.1719 L1.1562 -6.5312 L2.8281 -6.5938 L3.2188 -6.5938 L1.7969 0.1094 Z" stroke="none"/></g><g text-rendering="optimizeLegibility" transform="translate(286.8125,26.9219)" color-rendering="optimizeQuality" color-interpolation="linearRGB" image-rendering="optimizeQuality"><path d="M5.8438 -3.0938 L5.3906 -2.3281 L3.6406 -3.5625 L3.8281 -1.4219 L2.9375 -1.4219 L3.1406 -3.5625 L1.375 -2.3281 L0.9219 -3.0938 L2.875 -4 L0.9219 -4.9219 L1.375 -5.6875 L3.1406 -4.4375 L2.9375 -6.5781 L3.8281 -6.5781 L3.6406 -4.4375 L5.3906 -5.6875 L5.8438 -4.9219 L3.8906 -4 L5.8438 -3.0938 Z" stroke="none"/></g><g text-rendering="optimizeLegibility" transform="translate(293.6094,36.25)" color-rendering="optimizeQuality" color-interpolation="linearRGB" image-rendering="optimizeQuality"><path d="M7.2188 4.25 Q5.5625 4.25 4.5078 3.75 Q3.4531 3.25 2.8672 2.2344 Q2.2812 1.2188 2.0234 -0.4141 Q1.7656 -2.0469 1.7656 -4.8438 Q1.7656 -7.625 2.0234 -9.2656 Q2.2812 -10.9062 2.8672 -11.9453 Q3.4531 -12.9844 4.5078 -13.5 Q5.5625 -14.0156 7.2188 -14.0156 L7.2188 -13.2188 Q6.5312 -13.2188 6 -13.0938 Q5.4062 -12.9531 4.9844 -12.5625 Q4.5156 -12.1406 4.2344 -11.375 Q3.8906 -10.4688 3.7188 -8.9844 Q3.5469 -7.4062 3.5469 -4.9219 Q3.5469 -2.7188 3.6953 -1.1797 Q3.8438 0.3594 4.1875 1.3281 Q4.4531 2.1562 4.8594 2.6094 Q5.2188 3.0156 5.7188 3.2188 Q6.2969 3.4531 7.2188 3.4531 L7.2188 4.25 Z" stroke="none"/></g><g text-rendering="optimizeLegibility" transform="translate(302.8281,36.25)" color-rendering="optimizeQuality" color-interpolation="linearRGB" image-rendering="optimizeQuality"><path d="M6.8125 -1.6875 L6.7812 -1.6875 Q5.7812 0.1562 3.7031 0.1562 Q2.4219 0.1562 1.6484 -0.6406 Q0.875 -1.4375 0.875 -2.9219 Q0.875 -4.7656 2.0312 -6.4766 Q3.1875 -8.1875 5.3281 -9.5 L5.7188 -8.8438 Q4.3438 -7.7812 3.4531 -6.1094 Q2.5625 -4.4375 2.5625 -2.8438 Q2.5625 -1.7031 3.0234 -1.1562 Q3.4844 -0.6094 4.2188 -0.6094 Q4.8906 -0.6094 5.4375 -1.2266 Q5.9844 -1.8438 6.2031 -2.9219 L6.9375 -6.6094 L8.5781 -6.6094 L7.7969 -2.8438 Q7.7188 -2.4219 7.7188 -2.0781 Q7.7188 -1.3906 8.0547 -1 Q8.3906 -0.6094 8.9844 -0.6094 Q10.1875 -0.6094 10.9922 -2.1094 Q11.7969 -3.6094 11.7969 -5.7812 Q11.7969 -7.8125 11 -8.9375 L11.5625 -9.5 Q13.5156 -7.6406 13.5156 -5.3594 Q13.5156 -3.125 12.2344 -1.4844 Q10.9531 0.1562 8.9688 0.1562 Q7.1562 0.1562 6.8125 -1.6875 Z" stroke="none"/></g><g text-rendering="optimizeLegibility" transform="translate(317.9219,36.25)" color-rendering="optimizeQuality" color-interpolation="linearRGB" image-rendering="optimizeQuality"><path d="M0.4219 -14.0156 Q2.0781 -14.0156 3.1328 -13.5156 Q4.1875 -13.0156 4.7734 -12 Q5.3594 -10.9844 5.6172 -9.3516 Q5.875 -7.7188 5.875 -4.9219 Q5.875 -2.1562 5.6172 -0.5078 Q5.3594 1.1406 4.7734 2.1797 Q4.1875 3.2188 3.1328 3.7344 Q2.0781 4.25 0.4219 4.25 L0.4219 3.4531 Q1.1094 3.4531 1.625 3.3281 Q2.2344 3.1875 2.6406 2.7969 Q3.1094 2.375 3.4062 1.6094 Q3.75 0.7031 3.9219 -0.7812 Q4.0938 -2.3594 4.0938 -4.8438 Q4.0938 -7.0469 3.9453 -8.5859 Q3.7969 -10.125 3.4531 -11.0938 Q3.1875 -11.9219 2.7812 -12.375 Q2.4062 -12.7812 1.9219 -12.9844 Q1.3438 -13.2188 0.4219 -13.2188 L0.4219 -14.0156 Z" stroke="none"/></g><g text-rendering="optimizeLegibility" transform="translate(325.7969,36.25)" color-rendering="optimizeQuality" color-interpolation="linearRGB" image-rendering="optimizeQuality"><path d="M10.6562 -2.8438 Q10.5312 -2.2656 10.4922 -1.9297 Q10.4531 -1.5938 10.4531 -1.3125 Q10.4531 -0.875 10.6719 -0.6953 Q10.8906 -0.5156 11.4062 -0.4844 L11.2969 0 L7.3906 0 L7.5 -0.4844 Q7.875 -0.5312 8.0625 -0.6641 Q8.25 -0.7969 8.375 -1.0312 Q8.5 -1.2656 8.6094 -1.6016 Q8.7188 -1.9375 8.9219 -2.9062 L9.7344 -6.5312 L4.4844 -6.5312 L3.6719 -2.8438 Q3.5938 -2.4844 3.5469 -2.25 Q3.5 -2.0156 3.4844 -1.7969 Q3.4688 -1.5781 3.4688 -1.3125 Q3.4688 -0.9062 3.6641 -0.7188 Q3.8594 -0.5312 4.4219 -0.4844 L4.3125 0 L0.4062 0 L0.5156 -0.4844 Q0.8906 -0.5312 1.0781 -0.6641 Q1.2656 -0.7969 1.3906 -1.0312 Q1.5156 -1.2656 1.625 -1.6016 Q1.7344 -1.9375 1.9375 -2.9062 L3.6094 -10.4375 Q3.6875 -10.8281 3.75 -11.2812 Q3.8125 -11.7344 3.8125 -12 Q3.8125 -12.4688 3.5781 -12.6484 Q3.3438 -12.8281 2.8594 -12.8594 L2.9688 -13.3281 L6.875 -13.3281 L6.7656 -12.8594 Q6.3906 -12.7812 6.2344 -12.6797 Q6.0781 -12.5781 5.9453 -12.3828 Q5.8125 -12.1875 5.6797 -11.7734 Q5.5469 -11.3594 5.3438 -10.4219 L4.6719 -7.4375 L9.9219 -7.4375 L10.5938 -10.4375 Q10.6719 -10.8281 10.7344 -11.2812 Q10.7969 -11.7344 10.7969 -12 Q10.7969 -12.4688 10.5625 -12.6484 Q10.3281 -12.8281 9.8438 -12.8594 L9.9531 -13.3281 L13.8594 -13.3281 L13.75 -12.8594 Q13.4219 -12.7812 13.2812 -12.7109 Q13.1406 -12.6406 13.0312 -12.5234 Q12.9219 -12.4062 12.8203 -12.1875 Q12.7188 -11.9688 12.6016 -11.5391 Q12.4844 -11.1094 12.3281 -10.4219 L10.6562 -2.8438 Z" stroke="none"/></g><g text-rendering="optimizeLegibility" transform="translate(339.6562,41.1406)" color-rendering="optimizeQuality" color-interpolation="linearRGB" image-rendering="optimizeQuality"><path d="M2.5156 -3.8125 L2.7344 -3.8125 Q2.9531 -3.8125 3.1953 -3.8906 Q3.4375 -3.9688 3.7188 -4.1484 Q4 -4.3281 4.4688 -4.7031 Q4.8281 -4.9844 5 -5.1875 Q5.1719 -5.3906 5.2344 -5.5391 Q5.2969 -5.6875 5.2969 -5.8281 Q5.2969 -6.1562 4.8281 -6.2031 L4.9062 -6.5312 L7.1094 -6.5312 L7.25 -6.2031 Q6.6719 -5.6875 6.0469 -5.2031 L4.3125 -3.8438 L5.3438 -1.2656 Q5.4688 -0.9062 5.6172 -0.7188 Q5.7656 -0.5312 5.9531 -0.4453 Q6.1406 -0.3594 6.4375 -0.3281 L6.3594 0 L4.5312 0 L3.5312 -2.8125 Q3.4375 -3.0781 3.3672 -3.1719 Q3.2969 -3.2656 3.2109 -3.3047 Q3.125 -3.3438 2.9219 -3.3438 L2.4219 -3.3438 L1.7031 0 L0.5312 0 L2.2812 -7.8125 Q2.3594 -8.1562 2.3906 -8.3125 Q2.4219 -8.4688 2.4375 -8.5938 Q2.4531 -8.7188 2.4531 -8.8281 Q2.4531 -9.1094 2.2734 -9.2266 Q2.0938 -9.3438 1.6406 -9.3594 L1.7344 -9.7188 L3.4531 -9.7812 L3.8594 -9.7812 L2.5156 -3.8125 Z" stroke="none"/></g><g text-rendering="optimizeLegibility" transform="translate(347.1406,36.25)" color-rendering="optimizeQuality" color-interpolation="linearRGB" image-rendering="optimizeQuality"><path d="M7.2188 4.25 Q5.5625 4.25 4.5078 3.75 Q3.4531 3.25 2.8672 2.2344 Q2.2812 1.2188 2.0234 -0.4141 Q1.7656 -2.0469 1.7656 -4.8438 Q1.7656 -7.625 2.0234 -9.2656 Q2.2812 -10.9062 2.8672 -11.9453 Q3.4531 -12.9844 4.5078 -13.5 Q5.5625 -14.0156 7.2188 -14.0156 L7.2188 -13.2188 Q6.5312 -13.2188 6 -13.0938 Q5.4062 -12.9531 4.9844 -12.5625 Q4.5156 -12.1406 4.2344 -11.375 Q3.8906 -10.4688 3.7188 -8.9844 Q3.5469 -7.4062 3.5469 -4.9219 Q3.5469 -2.7188 3.6953 -1.1797 Q3.8438 0.3594 4.1875 1.3281 Q4.4531 2.1562 4.8594 2.6094 Q5.2188 3.0156 5.7188 3.2188 Q6.2969 3.4531 7.2188 3.4531 L7.2188 4.25 Z" stroke="none"/></g><g text-rendering="optimizeLegibility" transform="translate(356.3594,36.25)" color-rendering="optimizeQuality" color-interpolation="linearRGB" image-rendering="optimizeQuality"><path d="M6.8125 -1.6875 L6.7812 -1.6875 Q5.7812 0.1562 3.7031 0.1562 Q2.4219 0.1562 1.6484 -0.6406 Q0.875 -1.4375 0.875 -2.9219 Q0.875 -4.7656 2.0312 -6.4766 Q3.1875 -8.1875 5.3281 -9.5 L5.7188 -8.8438 Q4.3438 -7.7812 3.4531 -6.1094 Q2.5625 -4.4375 2.5625 -2.8438 Q2.5625 -1.7031 3.0234 -1.1562 Q3.4844 -0.6094 4.2188 -0.6094 Q4.8906 -0.6094 5.4375 -1.2266 Q5.9844 -1.8438 6.2031 -2.9219 L6.9375 -6.6094 L8.5781 -6.6094 L7.7969 -2.8438 Q7.7188 -2.4219 7.7188 -2.0781 Q7.7188 -1.3906 8.0547 -1 Q8.3906 -0.6094 8.9844 -0.6094 Q10.1875 -0.6094 10.9922 -2.1094 Q11.7969 -3.6094 11.7969 -5.7812 Q11.7969 -7.8125 11 -8.9375 L11.5625 -9.5 Q13.5156 -7.6406 13.5156 -5.3594 Q13.5156 -3.125 12.2344 -1.4844 Q10.9531 0.1562 8.9688 0.1562 Q7.1562 0.1562 6.8125 -1.6875 Z" stroke="none"/></g><g text-rendering="optimizeLegibility" transform="translate(371.4531,36.25)" color-rendering="optimizeQuality" color-interpolation="linearRGB" image-rendering="optimizeQuality"><path d="M0.4219 -14.0156 Q2.0781 -14.0156 3.1328 -13.5156 Q4.1875 -13.0156 4.7734 -12 Q5.3594 -10.9844 5.6172 -9.3516 Q5.875 -7.7188 5.875 -4.9219 Q5.875 -2.1562 5.6172 -0.5078 Q5.3594 1.1406 4.7734 2.1797 Q4.1875 3.2188 3.1328 3.7344 Q2.0781 4.25 0.4219 4.25 L0.4219 3.4531 Q1.1094 3.4531 1.625 3.3281 Q2.2344 3.1875 2.6406 2.7969 Q3.1094 2.375 3.4062 1.6094 Q3.75 0.7031 3.9219 -0.7812 Q4.0938 -2.3594 4.0938 -4.8438 Q4.0938 -7.0469 3.9453 -8.5859 Q3.7969 -10.125 3.4531 -11.0938 Q3.1875 -11.9219 2.7812 -12.375 Q2.4062 -12.7812 1.9219 -12.9844 Q1.3438 -13.2188 0.4219 -13.2188 L0.4219 -14.0156 Z" stroke="none"/></g><g text-rendering="optimizeLegibility" transform="translate(379.6719,36.25)" color-rendering="optimizeQuality" color-interpolation="linearRGB" image-rendering="optimizeQuality"><path d="M1.5469 -3.0312 Q1.5469 -1.8594 2.0938 -1.2734 Q2.6406 -0.6875 3.8125 -0.6875 Q4.7031 -0.6875 5.3516 -1.0234 Q6 -1.3594 6.3281 -1.9688 Q6.6562 -2.5781 6.6562 -3.4219 Q6.6562 -4.0156 6.4453 -4.4688 Q6.2344 -4.9219 5.8125 -5.3359 Q5.3906 -5.75 4.5938 -6.2969 Q3.875 -6.7812 3.3906 -7.25 Q2.9062 -7.7188 2.625 -8.3047 Q2.3438 -8.8906 2.3438 -9.625 Q2.3438 -10.7656 2.8984 -11.6484 Q3.4531 -12.5312 4.4688 -13.0078 Q5.4844 -13.4844 6.8125 -13.4844 Q7.7188 -13.4844 8.4844 -13.3672 Q9.25 -13.25 10.1719 -12.9531 L9.625 -10.4375 L8.6875 -10.4375 Q8.6562 -11.2656 8.4375 -11.7422 Q8.2188 -12.2188 7.8203 -12.4219 Q7.4219 -12.625 6.7656 -12.625 Q5.9531 -12.625 5.3359 -12.2969 Q4.7188 -11.9688 4.3984 -11.3984 Q4.0781 -10.8281 4.0781 -10.125 Q4.0781 -9.6094 4.25 -9.2109 Q4.4219 -8.8125 4.8125 -8.4219 Q5.2031 -8.0312 5.9375 -7.5312 Q6.8906 -6.8594 7.3984 -6.3438 Q7.9062 -5.8281 8.1406 -5.2422 Q8.375 -4.6562 8.375 -3.875 Q8.375 -2.7031 7.8047 -1.7734 Q7.2344 -0.8438 6.1953 -0.3438 Q5.1562 0.1562 3.8281 0.1562 Q2.9219 0.1562 1.8984 0.0156 Q0.875 -0.125 0.0312 -0.3594 L0.6094 -3.0312 L1.5469 -3.0312 Z" stroke="none"/></g><g text-rendering="optimizeLegibility" transform="translate(379.5469,32.8906)" color-rendering="optimizeQuality" color-interpolation="linearRGB" image-rendering="optimizeQuality"><path d="M9.9688 -11.125 L0.2344 -11.125 Q-0.0156 -11.125 -0.1172 -11.2266 Q-0.2188 -11.3281 -0.2188 -11.4844 Q-0.2188 -11.625 -0.1172 -11.7266 Q-0.0156 -11.8281 0.2344 -11.8281 L9.9688 -11.8281 Q10.2188 -11.8281 10.3203 -11.7266 Q10.4219 -11.625 10.4219 -11.4688 Q10.4219 -11.3281 10.3203 -11.2266 Q10.2188 -11.125 9.9688 -11.125 Z" stroke="none"/></g><g text-rendering="optimizeLegibility" transform="translate(390.1875,40.4375)" color-rendering="optimizeQuality" color-interpolation="linearRGB" image-rendering="optimizeQuality"><path d="M3.375 -2.2344 L3.375 -1.7188 Q1.9531 0.1719 1.0469 0.1719 Q0.5625 0.1719 0.2891 -0.3594 Q0.0156 -0.8906 0.0156 -1.75 Q0.0156 -2.4531 0.3438 -3.4141 Q0.6719 -4.375 1.2188 -5.3594 Q1.7656 -6.3438 2.3594 -7.0781 Q2.9531 -7.8125 3.4531 -8.1094 Q3.6719 -8.2344 3.7812 -8.2344 Q3.9219 -8.2344 3.9688 -8.1094 Q4.0156 -7.9844 4.0156 -7.6719 Q4.0156 -6.7188 3.2422 -5.3359 Q2.4688 -3.9531 1.0938 -2.5156 Q1.0312 -2.1562 1.0312 -1.9688 Q1.0312 -1.5312 1.2188 -1.2578 Q1.4062 -0.9844 1.7344 -0.9844 Q1.9062 -0.9844 2.1016 -1.1172 Q2.2969 -1.25 2.5156 -1.4453 Q2.7344 -1.6406 3.375 -2.2344 ZM1.3281 -3.4531 Q1.6875 -3.8125 2.0234 -4.2578 Q2.3594 -4.7031 2.6484 -5.2031 Q2.9375 -5.7031 3.1094 -6.1094 Q3.2812 -6.5156 3.2812 -6.7188 Q3.2812 -6.875 3.1719 -6.875 Q3.125 -6.875 3.0156 -6.7969 Q2.5938 -6.4531 2.0703 -5.4609 Q1.5469 -4.4688 1.3281 -3.4531 Z" stroke="none"/></g><g text-rendering="optimizeLegibility" transform="translate(394.2031,40.4375)" color-rendering="optimizeQuality" color-interpolation="linearRGB" image-rendering="optimizeQuality"><path d="M6.5625 -5.2031 L6.5625 -5.0938 Q6.5625 -5.0469 6.5469 -5 Q7.1406 -5.8438 7.7266 -6.2422 Q8.3125 -6.6406 8.9531 -6.6406 Q9.5938 -6.6406 9.9375 -6.2734 Q10.2812 -5.9062 10.2812 -5.2031 Q10.2812 -4.7656 10.1406 -4.1406 L9.5625 -1.7031 Q9.4531 -1.2188 9.4531 -0.9375 Q9.4531 -0.7188 9.5156 -0.6094 Q9.5781 -0.5 9.7266 -0.4375 Q9.875 -0.375 10.2031 -0.3281 L10.1406 0 L7.9844 0 L8.8594 -3.4688 Q8.9531 -3.8438 9.0234 -4.2344 Q9.0938 -4.625 9.0938 -4.9375 Q9.0938 -5.4219 8.9219 -5.6328 Q8.75 -5.8438 8.375 -5.8438 Q8.1094 -5.8438 7.7812 -5.625 Q7.4531 -5.4062 7.0938 -4.9531 Q6.7344 -4.5 6.5 -4.0625 Q6.2656 -3.625 6.125 -2.9844 L5.5156 0 L4.3281 0 L5.1094 -3.4688 Q5.25 -4.1094 5.3047 -4.4141 Q5.3594 -4.7188 5.3594 -4.9375 Q5.3594 -5.4219 5.1875 -5.6328 Q5.0156 -5.8438 4.6406 -5.8438 Q4.375 -5.8438 4.0391 -5.625 Q3.7031 -5.4062 3.3359 -4.9375 Q2.9688 -4.4688 2.7422 -4.0234 Q2.5156 -3.5781 2.4062 -2.9531 L1.7812 0 L0.5938 0 L1.6406 -4.6719 Q1.6719 -4.8281 1.7266 -5.1328 Q1.7812 -5.4375 1.7812 -5.6406 Q1.7812 -5.8438 1.7266 -5.9453 Q1.6719 -6.0469 1.5312 -6.1016 Q1.3906 -6.1562 1.0469 -6.1719 L1.1406 -6.5312 L2.6875 -6.5938 L3.0781 -6.5938 L2.625 -4.8281 L2.7031 -4.7969 Q3.3438 -5.7344 3.9609 -6.1875 Q4.5781 -6.6406 5.2188 -6.6406 Q5.875 -6.6406 6.2188 -6.2734 Q6.5625 -5.9062 6.5625 -5.2031 Z" stroke="none"/></g><g text-rendering="optimizeLegibility" transform="translate(404.7188,36.25)" color-rendering="optimizeQuality" color-interpolation="linearRGB" image-rendering="optimizeQuality"><path d="M7.2188 4.25 Q5.5625 4.25 4.5078 3.75 Q3.4531 3.25 2.8672 2.2344 Q2.2812 1.2188 2.0234 -0.4141 Q1.7656 -2.0469 1.7656 -4.8438 Q1.7656 -7.625 2.0234 -9.2656 Q2.2812 -10.9062 2.8672 -11.9453 Q3.4531 -12.9844 4.5078 -13.5 Q5.5625 -14.0156 7.2188 -14.0156 L7.2188 -13.2188 Q6.5312 -13.2188 6 -13.0938 Q5.4062 -12.9531 4.9844 -12.5625 Q4.5156 -12.1406 4.2344 -11.375 Q3.8906 -10.4688 3.7188 -8.9844 Q3.5469 -7.4062 3.5469 -4.9219 Q3.5469 -2.7188 3.6953 -1.1797 Q3.8438 0.3594 4.1875 1.3281 Q4.4531 2.1562 4.8594 2.6094 Q5.2188 3.0156 5.7188 3.2188 Q6.2969 3.4531 7.2188 3.4531 L7.2188 4.25 Z" stroke="none"/></g><g text-rendering="optimizeLegibility" transform="translate(413.9375,36.25)" color-rendering="optimizeQuality" color-interpolation="linearRGB" image-rendering="optimizeQuality"><path d="M6.8125 -1.6875 L6.7812 -1.6875 Q5.7812 0.1562 3.7031 0.1562 Q2.4219 0.1562 1.6484 -0.6406 Q0.875 -1.4375 0.875 -2.9219 Q0.875 -4.7656 2.0312 -6.4766 Q3.1875 -8.1875 5.3281 -9.5 L5.7188 -8.8438 Q4.3438 -7.7812 3.4531 -6.1094 Q2.5625 -4.4375 2.5625 -2.8438 Q2.5625 -1.7031 3.0234 -1.1562 Q3.4844 -0.6094 4.2188 -0.6094 Q4.8906 -0.6094 5.4375 -1.2266 Q5.9844 -1.8438 6.2031 -2.9219 L6.9375 -6.6094 L8.5781 -6.6094 L7.7969 -2.8438 Q7.7188 -2.4219 7.7188 -2.0781 Q7.7188 -1.3906 8.0547 -1 Q8.3906 -0.6094 8.9844 -0.6094 Q10.1875 -0.6094 10.9922 -2.1094 Q11.7969 -3.6094 11.7969 -5.7812 Q11.7969 -7.8125 11 -8.9375 L11.5625 -9.5 Q13.5156 -7.6406 13.5156 -5.3594 Q13.5156 -3.125 12.2344 -1.4844 Q10.9531 0.1562 8.9688 0.1562 Q7.1562 0.1562 6.8125 -1.6875 Z" stroke="none"/></g><g text-rendering="optimizeLegibility" transform="translate(429.0312,36.25)" color-rendering="optimizeQuality" color-interpolation="linearRGB" image-rendering="optimizeQuality"><path d="M0.4219 -14.0156 Q2.0781 -14.0156 3.1328 -13.5156 Q4.1875 -13.0156 4.7734 -12 Q5.3594 -10.9844 5.6172 -9.3516 Q5.875 -7.7188 5.875 -4.9219 Q5.875 -2.1562 5.6172 -0.5078 Q5.3594 1.1406 4.7734 2.1797 Q4.1875 3.2188 3.1328 3.7344 Q2.0781 4.25 0.4219 4.25 L0.4219 3.4531 Q1.1094 3.4531 1.625 3.3281 Q2.2344 3.1875 2.6406 2.7969 Q3.1094 2.375 3.4062 1.6094 Q3.75 0.7031 3.9219 -0.7812 Q4.0938 -2.3594 4.0938 -4.8438 Q4.0938 -7.0469 3.9453 -8.5859 Q3.7969 -10.125 3.4531 -11.0938 Q3.1875 -11.9219 2.7812 -12.375 Q2.4062 -12.7812 1.9219 -12.9844 Q1.3438 -13.2188 0.4219 -13.2188 L0.4219 -14.0156 Z" stroke="none"/></g><g text-rendering="optimizeLegibility" transform="translate(3.7812,103.75)" color-rendering="optimizeQuality" color-interpolation="linearRGB" image-rendering="optimizeQuality"><path d="M6.25 -5.0469 L6.25 -1.3438 L4.8125 -1.3438 L4.8125 -5.0469 L1.2188 -5.0469 L1.2188 -6.3906 L4.8125 -6.3906 L4.8125 -10.0938 L6.25 -10.0938 L6.25 -6.3906 L9.8594 -6.3906 L9.8594 -5.0469 L6.25 -5.0469 Z" stroke="none"/></g><g text-rendering="optimizeLegibility" transform="translate(17.2188,103.75)" color-rendering="optimizeQuality" color-interpolation="linearRGB" image-rendering="optimizeQuality"><path d="M5.6562 -21.375 L13.5 -9.4688 L13.5 -8.25 L4.7031 3.8281 L15.3125 3.8281 Q16.3125 3.8281 16.8203 3.7031 Q17.3281 3.5781 17.6875 3.3125 Q18.0469 3.0469 18.3438 2.5703 Q18.6406 2.0938 18.9141 1.2578 Q19.1875 0.4219 19.4375 -0.9375 L21.3125 -0.9375 L20.8438 6.9219 L0.4219 6.9219 L0.4219 6.0312 L10.375 -7.6562 L1.0312 -22.1406 L1.0312 -23.0625 L20.9375 -23.0625 L20.9375 -15.8906 L19.1875 -15.8906 Q18.7812 -17.4219 18.4219 -18.3906 Q18.0625 -19.3594 17.6875 -19.9219 Q17.3125 -20.4844 16.9141 -20.7812 Q16.5156 -21.0781 16 -21.2266 Q15.4844 -21.375 14.625 -21.375 L5.6562 -21.375 Z" stroke="none"/></g><g text-rendering="optimizeLegibility" transform="translate(19.7188,122.6094)" color-rendering="optimizeQuality" color-interpolation="linearRGB" image-rendering="optimizeQuality"><path d="M3.375 -2.2344 L3.375 -1.7188 Q1.9531 0.1719 1.0469 0.1719 Q0.5625 0.1719 0.2891 -0.3594 Q0.0156 -0.8906 0.0156 -1.75 Q0.0156 -2.4531 0.3438 -3.4141 Q0.6719 -4.375 1.2188 -5.3594 Q1.7656 -6.3438 2.3594 -7.0781 Q2.9531 -7.8125 3.4531 -8.1094 Q3.6719 -8.2344 3.7812 -8.2344 Q3.9219 -8.2344 3.9688 -8.1094 Q4.0156 -7.9844 4.0156 -7.6719 Q4.0156 -6.7188 3.2422 -5.3359 Q2.4688 -3.9531 1.0938 -2.5156 Q1.0312 -2.1562 1.0312 -1.9688 Q1.0312 -1.5312 1.2188 -1.2578 Q1.4062 -0.9844 1.7344 -0.9844 Q1.9062 -0.9844 2.1016 -1.1172 Q2.2969 -1.25 2.5156 -1.4453 Q2.7344 -1.6406 3.375 -2.2344 ZM1.3281 -3.4531 Q1.6875 -3.8125 2.0234 -4.2578 Q2.3594 -4.7031 2.6484 -5.2031 Q2.9375 -5.7031 3.1094 -6.1094 Q3.2812 -6.5156 3.2812 -6.7188 Q3.2812 -6.875 3.1719 -6.875 Q3.125 -6.875 3.0156 -6.7969 Q2.5938 -6.4531 2.0703 -5.4609 Q1.5469 -4.4688 1.3281 -3.4531 Z" stroke="none"/></g><g text-rendering="optimizeLegibility" transform="translate(22.8906,122.6094)" color-rendering="optimizeQuality" color-interpolation="linearRGB" image-rendering="optimizeQuality"><path d="M0.8438 -4.9375 L0.8438 -5.8906 L6.9062 -5.8906 L6.9062 -4.9375 L0.8438 -4.9375 ZM0.8438 -2.1094 L0.8438 -3.0625 L6.9062 -3.0625 L6.9062 -2.1094 L0.8438 -2.1094 Z" stroke="none"/></g><g text-rendering="optimizeLegibility" transform="translate(29.7969,122.6094)" color-rendering="optimizeQuality" color-interpolation="linearRGB" image-rendering="optimizeQuality"><path d="M4.75 -1.7812 Q4.75 -1.3906 4.7969 -1.1875 Q4.8438 -0.9844 4.9531 -0.8594 Q5.0625 -0.7344 5.2734 -0.6641 Q5.4844 -0.5938 5.8047 -0.5547 Q6.125 -0.5156 6.6562 -0.5 L6.6562 0 L1.6094 0 L1.6094 -0.5 Q2.3594 -0.5312 2.6875 -0.5938 Q3.0156 -0.6562 3.1875 -0.7656 Q3.3594 -0.875 3.4375 -1.0938 Q3.5156 -1.3125 3.5156 -1.7812 L3.5156 -7.3281 Q3.5156 -7.6094 3.4219 -7.7344 Q3.3281 -7.8594 3.1406 -7.8594 Q2.9219 -7.8594 2.5156 -7.6328 Q2.1094 -7.4062 1.5156 -7 L1.2188 -7.5312 L4.4219 -9.4375 L4.7969 -9.4375 Q4.75 -8.7812 4.75 -7.625 L4.75 -1.7812 Z" stroke="none"/></g><g text-rendering="optimizeLegibility" transform="translate(22.6641,74.8125)" color-rendering="optimizeQuality" color-interpolation="linearRGB" image-rendering="optimizeQuality"><path d="M2.7188 -6.5938 L3.125 -6.5938 L2.6562 -4.9219 L2.7344 -4.8906 Q3.3906 -5.7812 4.0078 -6.2109 Q4.625 -6.6406 5.2812 -6.6406 Q5.7812 -6.6406 6.1094 -6.5625 L5.7812 -5.0312 L5.0781 -5.0312 Q5.0312 -5.3906 4.9141 -5.5781 Q4.7969 -5.7656 4.5469 -5.7656 Q4.2812 -5.7656 3.9297 -5.4922 Q3.5781 -5.2188 3.2188 -4.7422 Q2.8594 -4.2656 2.6797 -3.8594 Q2.5 -3.4531 2.4062 -2.9531 L1.7812 0 L0.5938 0 L1.6406 -4.6719 Q1.7812 -5.3125 1.7812 -5.6406 Q1.7812 -5.8438 1.7188 -5.9453 Q1.6562 -6.0469 1.5156 -6.1016 Q1.375 -6.1562 1.0469 -6.1719 L1.125 -6.5312 L2.7188 -6.5938 Z" stroke="none"/></g><g text-rendering="optimizeLegibility" transform="translate(28.7734,78.1875)" color-rendering="optimizeQuality" color-interpolation="linearRGB" image-rendering="optimizeQuality"><path d="M3.4219 -0.7812 Q3.6719 -0.7812 3.8125 -0.8125 Q3.9531 -0.8438 4.0469 -0.9141 Q4.1406 -0.9844 4.1875 -1.0938 Q4.2344 -1.2031 4.3125 -1.4219 L4.7344 -1.4219 L4.6562 0 L0.625 0 L0.625 -0.2344 Q0.8438 -0.75 1.1953 -1.2891 Q1.5469 -1.8281 2.2031 -2.5469 Q2.7812 -3.1719 3.0156 -3.5 Q3.2969 -3.8438 3.4297 -4.1016 Q3.5625 -4.3594 3.625 -4.5859 Q3.6875 -4.8125 3.6875 -5.0469 Q3.6875 -5.4062 3.5703 -5.6875 Q3.4531 -5.9688 3.2109 -6.1328 Q2.9688 -6.2969 2.5938 -6.2969 Q1.6875 -6.2969 1.375 -5.2812 L0.7812 -5.2812 L0.7812 -6.2188 Q1.375 -6.5 1.8828 -6.625 Q2.3906 -6.75 2.8125 -6.75 Q3.7188 -6.75 4.1797 -6.3516 Q4.6406 -5.9531 4.6406 -5.1875 Q4.6406 -4.9375 4.5938 -4.7188 Q4.5469 -4.5 4.4375 -4.2891 Q4.3281 -4.0781 4.1406 -3.8281 Q3.9531 -3.5781 3.7266 -3.3281 Q3.5 -3.0781 2.9531 -2.5 Q2.0156 -1.5156 1.5938 -0.7812 L3.4219 -0.7812 Z" stroke="none"/></g><g text-rendering="optimizeLegibility" transform="translate(45.1094,103.75)" color-rendering="optimizeQuality" color-interpolation="linearRGB" image-rendering="optimizeQuality"><path d="M5.6562 -21.375 L13.5 -9.4688 L13.5 -8.25 L4.7031 3.8281 L15.3125 3.8281 Q16.3125 3.8281 16.8203 3.7031 Q17.3281 3.5781 17.6875 3.3125 Q18.0469 3.0469 18.3438 2.5703 Q18.6406 2.0938 18.9141 1.2578 Q19.1875 0.4219 19.4375 -0.9375 L21.3125 -0.9375 L20.8438 6.9219 L0.4219 6.9219 L0.4219 6.0312 L10.375 -7.6562 L1.0312 -22.1406 L1.0312 -23.0625 L20.9375 -23.0625 L20.9375 -15.8906 L19.1875 -15.8906 Q18.7812 -17.4219 18.4219 -18.3906 Q18.0625 -19.3594 17.6875 -19.9219 Q17.3125 -20.4844 16.9141 -20.7812 Q16.5156 -21.0781 16 -21.2266 Q15.4844 -21.375 14.625 -21.375 L5.6562 -21.375 Z" stroke="none"/></g><g text-rendering="optimizeLegibility" transform="translate(44.4766,122.6094)" color-rendering="optimizeQuality" color-interpolation="linearRGB" image-rendering="optimizeQuality"><path d="M6.5625 -5.2031 L6.5625 -5.0938 Q6.5625 -5.0469 6.5469 -5 Q7.1406 -5.8438 7.7266 -6.2422 Q8.3125 -6.6406 8.9531 -6.6406 Q9.5938 -6.6406 9.9375 -6.2734 Q10.2812 -5.9062 10.2812 -5.2031 Q10.2812 -4.7656 10.1406 -4.1406 L9.5625 -1.7031 Q9.4531 -1.2188 9.4531 -0.9375 Q9.4531 -0.7188 9.5156 -0.6094 Q9.5781 -0.5 9.7266 -0.4375 Q9.875 -0.375 10.2031 -0.3281 L10.1406 0 L7.9844 0 L8.8594 -3.4688 Q8.9531 -3.8438 9.0234 -4.2344 Q9.0938 -4.625 9.0938 -4.9375 Q9.0938 -5.4219 8.9219 -5.6328 Q8.75 -5.8438 8.375 -5.8438 Q8.1094 -5.8438 7.7812 -5.625 Q7.4531 -5.4062 7.0938 -4.9531 Q6.7344 -4.5 6.5 -4.0625 Q6.2656 -3.625 6.125 -2.9844 L5.5156 0 L4.3281 0 L5.1094 -3.4688 Q5.25 -4.1094 5.3047 -4.4141 Q5.3594 -4.7188 5.3594 -4.9375 Q5.3594 -5.4219 5.1875 -5.6328 Q5.0156 -5.8438 4.6406 -5.8438 Q4.375 -5.8438 4.0391 -5.625 Q3.7031 -5.4062 3.3359 -4.9375 Q2.9688 -4.4688 2.7422 -4.0234 Q2.5156 -3.5781 2.4062 -2.9531 L1.7812 0 L0.5938 0 L1.6406 -4.6719 Q1.6719 -4.8281 1.7266 -5.1328 Q1.7812 -5.4375 1.7812 -5.6406 Q1.7812 -5.8438 1.7266 -5.9453 Q1.6719 -6.0469 1.5312 -6.1016 Q1.3906 -6.1562 1.0469 -6.1719 L1.1406 -6.5312 L2.6875 -6.5938 L3.0781 -6.5938 L2.625 -4.8281 L2.7031 -4.7969 Q3.3438 -5.7344 3.9609 -6.1875 Q4.5781 -6.6406 5.2188 -6.6406 Q5.875 -6.6406 6.2188 -6.2734 Q6.5625 -5.9062 6.5625 -5.2031 Z" stroke="none"/></g><g text-rendering="optimizeLegibility" transform="translate(53.9141,122.6094)" color-rendering="optimizeQuality" color-interpolation="linearRGB" image-rendering="optimizeQuality"><path d="M0.8438 -4.9375 L0.8438 -5.8906 L6.9062 -5.8906 L6.9062 -4.9375 L0.8438 -4.9375 ZM0.8438 -2.1094 L0.8438 -3.0625 L6.9062 -3.0625 L6.9062 -2.1094 L0.8438 -2.1094 Z" stroke="none"/></g><g text-rendering="optimizeLegibility" transform="translate(60.8203,122.6094)" color-rendering="optimizeQuality" color-interpolation="linearRGB" image-rendering="optimizeQuality"><path d="M4.75 -1.7812 Q4.75 -1.3906 4.7969 -1.1875 Q4.8438 -0.9844 4.9531 -0.8594 Q5.0625 -0.7344 5.2734 -0.6641 Q5.4844 -0.5938 5.8047 -0.5547 Q6.125 -0.5156 6.6562 -0.5 L6.6562 0 L1.6094 0 L1.6094 -0.5 Q2.3594 -0.5312 2.6875 -0.5938 Q3.0156 -0.6562 3.1875 -0.7656 Q3.3594 -0.875 3.4375 -1.0938 Q3.5156 -1.3125 3.5156 -1.7812 L3.5156 -7.3281 Q3.5156 -7.6094 3.4219 -7.7344 Q3.3281 -7.8594 3.1406 -7.8594 Q2.9219 -7.8594 2.5156 -7.6328 Q2.1094 -7.4062 1.5156 -7 L1.2188 -7.5312 L4.4219 -9.4375 L4.7969 -9.4375 Q4.75 -8.7812 4.75 -7.625 L4.75 -1.7812 Z" stroke="none"/></g><g text-rendering="optimizeLegibility" transform="translate(50.5547,74.8125)" color-rendering="optimizeQuality" color-interpolation="linearRGB" image-rendering="optimizeQuality"><path d="M2.7188 -6.5938 L3.125 -6.5938 L2.6562 -4.9219 L2.7344 -4.8906 Q3.3906 -5.7812 4.0078 -6.2109 Q4.625 -6.6406 5.2812 -6.6406 Q5.7812 -6.6406 6.1094 -6.5625 L5.7812 -5.0312 L5.0781 -5.0312 Q5.0312 -5.3906 4.9141 -5.5781 Q4.7969 -5.7656 4.5469 -5.7656 Q4.2812 -5.7656 3.9297 -5.4922 Q3.5781 -5.2188 3.2188 -4.7422 Q2.8594 -4.2656 2.6797 -3.8594 Q2.5 -3.4531 2.4062 -2.9531 L1.7812 0 L0.5938 0 L1.6406 -4.6719 Q1.7812 -5.3125 1.7812 -5.6406 Q1.7812 -5.8438 1.7188 -5.9453 Q1.6562 -6.0469 1.5156 -6.1016 Q1.375 -6.1562 1.0469 -6.1719 L1.125 -6.5312 L2.7188 -6.5938 Z" stroke="none"/></g><g text-rendering="optimizeLegibility" transform="translate(56.6641,78.1875)" color-rendering="optimizeQuality" color-interpolation="linearRGB" image-rendering="optimizeQuality"><path d="M3.4219 -0.7812 Q3.6719 -0.7812 3.8125 -0.8125 Q3.9531 -0.8438 4.0469 -0.9141 Q4.1406 -0.9844 4.1875 -1.0938 Q4.2344 -1.2031 4.3125 -1.4219 L4.7344 -1.4219 L4.6562 0 L0.625 0 L0.625 -0.2344 Q0.8438 -0.75 1.1953 -1.2891 Q1.5469 -1.8281 2.2031 -2.5469 Q2.7812 -3.1719 3.0156 -3.5 Q3.2969 -3.8438 3.4297 -4.1016 Q3.5625 -4.3594 3.625 -4.5859 Q3.6875 -4.8125 3.6875 -5.0469 Q3.6875 -5.4062 3.5703 -5.6875 Q3.4531 -5.9688 3.2109 -6.1328 Q2.9688 -6.2969 2.5938 -6.2969 Q1.6875 -6.2969 1.375 -5.2812 L0.7812 -5.2812 L0.7812 -6.2188 Q1.375 -6.5 1.8828 -6.625 Q2.3906 -6.75 2.8125 -6.75 Q3.7188 -6.75 4.1797 -6.3516 Q4.6406 -5.9531 4.6406 -5.1875 Q4.6406 -4.9375 4.5938 -4.7188 Q4.5469 -4.5 4.4375 -4.2891 Q4.3281 -4.0781 4.1406 -3.8281 Q3.9531 -3.5781 3.7266 -3.3281 Q3.5 -3.0781 2.9531 -2.5 Q2.0156 -1.5156 1.5938 -0.7812 L3.4219 -0.7812 Z" stroke="none"/></g><g text-rendering="optimizeLegibility" transform="translate(68.4219,103.75)" color-rendering="optimizeQuality" color-interpolation="linearRGB" image-rendering="optimizeQuality"><path d="M10.9531 -9.9062 L10.0156 -9.9062 Q10.0156 -11.6875 9.7891 -12.0859 Q9.5625 -12.4844 8.7344 -12.4844 L5.7969 -12.4844 L3.6875 -2.8438 Q3.4531 -1.8125 3.4531 -1.3125 Q3.4531 -0.9062 3.6562 -0.7188 Q3.8594 -0.5312 4.5469 -0.4844 L4.4219 0 L0.4219 0 L0.5156 -0.4844 Q1.1094 -0.5625 1.3594 -0.9844 Q1.6094 -1.4062 1.9375 -2.9219 L3.6094 -10.4219 Q3.8125 -11.3906 3.8125 -11.9844 Q3.8125 -12.8438 2.8594 -12.8594 L2.9531 -13.3438 L11.7188 -13.3438 L10.9531 -9.9062 Z" stroke="none"/></g><g text-rendering="optimizeLegibility" transform="translate(80.1406,106.8281)" color-rendering="optimizeQuality" color-interpolation="linearRGB" image-rendering="optimizeQuality"><path d="M3.375 -2.2344 L3.375 -1.7188 Q1.9531 0.1719 1.0469 0.1719 Q0.5625 0.1719 0.2891 -0.3594 Q0.0156 -0.8906 0.0156 -1.75 Q0.0156 -2.4531 0.3438 -3.4141 Q0.6719 -4.375 1.2188 -5.3594 Q1.7656 -6.3438 2.3594 -7.0781 Q2.9531 -7.8125 3.4531 -8.1094 Q3.6719 -8.2344 3.7812 -8.2344 Q3.9219 -8.2344 3.9688 -8.1094 Q4.0156 -7.9844 4.0156 -7.6719 Q4.0156 -6.7188 3.2422 -5.3359 Q2.4688 -3.9531 1.0938 -2.5156 Q1.0312 -2.1562 1.0312 -1.9688 Q1.0312 -1.5312 1.2188 -1.2578 Q1.4062 -0.9844 1.7344 -0.9844 Q1.9062 -0.9844 2.1016 -1.1172 Q2.2969 -1.25 2.5156 -1.4453 Q2.7344 -1.6406 3.375 -2.2344 ZM1.3281 -3.4531 Q1.6875 -3.8125 2.0234 -4.2578 Q2.3594 -4.7031 2.6484 -5.2031 Q2.9375 -5.7031 3.1094 -6.1094 Q3.2812 -6.5156 3.2812 -6.7188 Q3.2812 -6.875 3.1719 -6.875 Q3.125 -6.875 3.0156 -6.7969 Q2.5938 -6.4531 2.0703 -5.4609 Q1.5469 -4.4688 1.3281 -3.4531 Z" stroke="none"/></g><g text-rendering="optimizeLegibility" transform="translate(85.9531,106.8281)" color-rendering="optimizeQuality" color-interpolation="linearRGB" image-rendering="optimizeQuality"><path d="M3.8438 -9.2188 L3.5312 -7.8906 L2.3281 -7.8906 L2.6406 -9.2188 L3.8438 -9.2188 ZM1.7969 0.1094 Q1.5781 1.1562 1.2031 1.7891 Q0.8281 2.4219 0.2188 2.7422 Q-0.3906 3.0625 -1.2188 3.0625 Q-1.5625 3.0625 -1.7969 2.9844 L-1.6406 2.3906 Q-1.5312 2.4219 -1.3984 2.4297 Q-1.2656 2.4375 -1.125 2.4375 Q-0.7969 2.4375 -0.5625 2.3438 Q-0.3281 2.25 -0.1328 2.0156 Q0.0625 1.7812 0.2266 1.375 Q0.3906 0.9688 0.5469 0.3125 L1.6406 -4.6094 Q1.7344 -4.9844 1.7734 -5.2266 Q1.8125 -5.4688 1.8125 -5.6406 Q1.8125 -5.8281 1.75 -5.9375 Q1.6875 -6.0469 1.5547 -6.1016 Q1.4219 -6.1562 1.0781 -6.1719 L1.1562 -6.5312 L2.8281 -6.5938 L3.2188 -6.5938 L1.7969 0.1094 Z" stroke="none"/></g><g text-rendering="optimizeLegibility" transform="translate(89.7969,103.75)" color-rendering="optimizeQuality" color-interpolation="linearRGB" image-rendering="optimizeQuality"><path d="M10.9531 -9.9062 L10.0156 -9.9062 Q10.0156 -11.6875 9.7891 -12.0859 Q9.5625 -12.4844 8.7344 -12.4844 L5.7969 -12.4844 L3.6875 -2.8438 Q3.4531 -1.8125 3.4531 -1.3125 Q3.4531 -0.9062 3.6562 -0.7188 Q3.8594 -0.5312 4.5469 -0.4844 L4.4219 0 L0.4219 0 L0.5156 -0.4844 Q1.1094 -0.5625 1.3594 -0.9844 Q1.6094 -1.4062 1.9375 -2.9219 L3.6094 -10.4219 Q3.8125 -11.3906 3.8125 -11.9844 Q3.8125 -12.8438 2.8594 -12.8594 L2.9531 -13.3438 L11.7188 -13.3438 L10.9531 -9.9062 Z" stroke="none"/></g><g text-rendering="optimizeLegibility" transform="translate(101.5156,108.6406)" color-rendering="optimizeQuality" color-interpolation="linearRGB" image-rendering="optimizeQuality"><path d="M6.5625 -5.2031 L6.5625 -5.0938 Q6.5625 -5.0469 6.5469 -5 Q7.1406 -5.8438 7.7266 -6.2422 Q8.3125 -6.6406 8.9531 -6.6406 Q9.5938 -6.6406 9.9375 -6.2734 Q10.2812 -5.9062 10.2812 -5.2031 Q10.2812 -4.7656 10.1406 -4.1406 L9.5625 -1.7031 Q9.4531 -1.2188 9.4531 -0.9375 Q9.4531 -0.7188 9.5156 -0.6094 Q9.5781 -0.5 9.7266 -0.4375 Q9.875 -0.375 10.2031 -0.3281 L10.1406 0 L7.9844 0 L8.8594 -3.4688 Q8.9531 -3.8438 9.0234 -4.2344 Q9.0938 -4.625 9.0938 -4.9375 Q9.0938 -5.4219 8.9219 -5.6328 Q8.75 -5.8438 8.375 -5.8438 Q8.1094 -5.8438 7.7812 -5.625 Q7.4531 -5.4062 7.0938 -4.9531 Q6.7344 -4.5 6.5 -4.0625 Q6.2656 -3.625 6.125 -2.9844 L5.5156 0 L4.3281 0 L5.1094 -3.4688 Q5.25 -4.1094 5.3047 -4.4141 Q5.3594 -4.7188 5.3594 -4.9375 Q5.3594 -5.4219 5.1875 -5.6328 Q5.0156 -5.8438 4.6406 -5.8438 Q4.375 -5.8438 4.0391 -5.625 Q3.7031 -5.4062 3.3359 -4.9375 Q2.9688 -4.4688 2.7422 -4.0234 Q2.5156 -3.5781 2.4062 -2.9531 L1.7812 0 L0.5938 0 L1.6406 -4.6719 Q1.6719 -4.8281 1.7266 -5.1328 Q1.7812 -5.4375 1.7812 -5.6406 Q1.7812 -5.8438 1.7266 -5.9453 Q1.6719 -6.0469 1.5312 -6.1016 Q1.3906 -6.1562 1.0469 -6.1719 L1.1406 -6.5312 L2.6875 -6.5938 L3.0781 -6.5938 L2.625 -4.8281 L2.7031 -4.7969 Q3.3438 -5.7344 3.9609 -6.1875 Q4.5781 -6.6406 5.2188 -6.6406 Q5.875 -6.6406 6.2188 -6.2734 Q6.5625 -5.9062 6.5625 -5.2031 Z" stroke="none"/></g><g text-rendering="optimizeLegibility" transform="translate(111.7969,108.6406)" color-rendering="optimizeQuality" color-interpolation="linearRGB" image-rendering="optimizeQuality"><path d="M2.5156 -3.8125 L2.7344 -3.8125 Q2.9531 -3.8125 3.1953 -3.8906 Q3.4375 -3.9688 3.7188 -4.1484 Q4 -4.3281 4.4688 -4.7031 Q4.8281 -4.9844 5 -5.1875 Q5.1719 -5.3906 5.2344 -5.5391 Q5.2969 -5.6875 5.2969 -5.8281 Q5.2969 -6.1562 4.8281 -6.2031 L4.9062 -6.5312 L7.1094 -6.5312 L7.25 -6.2031 Q6.6719 -5.6875 6.0469 -5.2031 L4.3125 -3.8438 L5.3438 -1.2656 Q5.4688 -0.9062 5.6172 -0.7188 Q5.7656 -0.5312 5.9531 -0.4453 Q6.1406 -0.3594 6.4375 -0.3281 L6.3594 0 L4.5312 0 L3.5312 -2.8125 Q3.4375 -3.0781 3.3672 -3.1719 Q3.2969 -3.2656 3.2109 -3.3047 Q3.125 -3.3438 2.9219 -3.3438 L2.4219 -3.3438 L1.7031 0 L0.5312 0 L2.2812 -7.8125 Q2.3594 -8.1562 2.3906 -8.3125 Q2.4219 -8.4688 2.4375 -8.5938 Q2.4531 -8.7188 2.4531 -8.8281 Q2.4531 -9.1094 2.2734 -9.2266 Q2.0938 -9.3438 1.6406 -9.3594 L1.7344 -9.7188 L3.4531 -9.7812 L3.8594 -9.7812 L2.5156 -3.8125 Z" stroke="none"/></g><g text-rendering="optimizeLegibility" transform="translate(119.0469,103.75)" color-rendering="optimizeQuality" color-interpolation="linearRGB" image-rendering="optimizeQuality"><path d="M10.6562 -2.8438 Q10.5312 -2.2656 10.4922 -1.9297 Q10.4531 -1.5938 10.4531 -1.3125 Q10.4531 -0.875 10.6719 -0.6953 Q10.8906 -0.5156 11.4062 -0.4844 L11.2969 0 L7.3906 0 L7.5 -0.4844 Q7.875 -0.5312 8.0625 -0.6641 Q8.25 -0.7969 8.375 -1.0312 Q8.5 -1.2656 8.6094 -1.6016 Q8.7188 -1.9375 8.9219 -2.9062 L9.7344 -6.5312 L4.4844 -6.5312 L3.6719 -2.8438 Q3.5938 -2.4844 3.5469 -2.25 Q3.5 -2.0156 3.4844 -1.7969 Q3.4688 -1.5781 3.4688 -1.3125 Q3.4688 -0.9062 3.6641 -0.7188 Q3.8594 -0.5312 4.4219 -0.4844 L4.3125 0 L0.4062 0 L0.5156 -0.4844 Q0.8906 -0.5312 1.0781 -0.6641 Q1.2656 -0.7969 1.3906 -1.0312 Q1.5156 -1.2656 1.625 -1.6016 Q1.7344 -1.9375 1.9375 -2.9062 L3.6094 -10.4375 Q3.6875 -10.8281 3.75 -11.2812 Q3.8125 -11.7344 3.8125 -12 Q3.8125 -12.4688 3.5781 -12.6484 Q3.3438 -12.8281 2.8594 -12.8594 L2.9688 -13.3281 L6.875 -13.3281 L6.7656 -12.8594 Q6.3906 -12.7812 6.2344 -12.6797 Q6.0781 -12.5781 5.9453 -12.3828 Q5.8125 -12.1875 5.6797 -11.7734 Q5.5469 -11.3594 5.3438 -10.4219 L4.6719 -7.4375 L9.9219 -7.4375 L10.5938 -10.4375 Q10.6719 -10.8281 10.7344 -11.2812 Q10.7969 -11.7344 10.7969 -12 Q10.7969 -12.4688 10.5625 -12.6484 Q10.3281 -12.8281 9.8438 -12.8594 L9.9531 -13.3281 L13.8594 -13.3281 L13.75 -12.8594 Q13.4219 -12.7812 13.2812 -12.7109 Q13.1406 -12.6406 13.0312 -12.5234 Q12.9219 -12.4062 12.8203 -12.1875 Q12.7188 -11.9688 12.6016 -11.5391 Q12.4844 -11.1094 12.3281 -10.4219 L10.6562 -2.8438 Z" stroke="none"/></g><g text-rendering="optimizeLegibility" transform="translate(134.7031,106.8281)" color-rendering="optimizeQuality" color-interpolation="linearRGB" image-rendering="optimizeQuality"><path d="M3.8438 -9.2188 L3.5312 -7.8906 L2.3281 -7.8906 L2.6406 -9.2188 L3.8438 -9.2188 ZM1.7969 0.1094 Q1.5781 1.1562 1.2031 1.7891 Q0.8281 2.4219 0.2188 2.7422 Q-0.3906 3.0625 -1.2188 3.0625 Q-1.5625 3.0625 -1.7969 2.9844 L-1.6406 2.3906 Q-1.5312 2.4219 -1.3984 2.4297 Q-1.2656 2.4375 -1.125 2.4375 Q-0.7969 2.4375 -0.5625 2.3438 Q-0.3281 2.25 -0.1328 2.0156 Q0.0625 1.7812 0.2266 1.375 Q0.3906 0.9688 0.5469 0.3125 L1.6406 -4.6094 Q1.7344 -4.9844 1.7734 -5.2266 Q1.8125 -5.4688 1.8125 -5.6406 Q1.8125 -5.8281 1.75 -5.9375 Q1.6875 -6.0469 1.5547 -6.1016 Q1.4219 -6.1562 1.0781 -6.1719 L1.1562 -6.5312 L2.8281 -6.5938 L3.2188 -6.5938 L1.7969 0.1094 Z" stroke="none"/></g><g text-rendering="optimizeLegibility" transform="translate(131.9844,94.4219)" color-rendering="optimizeQuality" color-interpolation="linearRGB" image-rendering="optimizeQuality"><path d="M5.8438 -3.0938 L5.3906 -2.3281 L3.6406 -3.5625 L3.8281 -1.4219 L2.9375 -1.4219 L3.1406 -3.5625 L1.375 -2.3281 L0.9219 -3.0938 L2.875 -4 L0.9219 -4.9219 L1.375 -5.6875 L3.1406 -4.4375 L2.9375 -6.5781 L3.8281 -6.5781 L3.6406 -4.4375 L5.3906 -5.6875 L5.8438 -4.9219 L3.8906 -4 L5.8438 -3.0938 Z" stroke="none"/></g><g text-rendering="optimizeLegibility" transform="translate(138.7812,103.75)" color-rendering="optimizeQuality" color-interpolation="linearRGB" image-rendering="optimizeQuality"><path d="M7.2188 4.25 Q5.5625 4.25 4.5078 3.75 Q3.4531 3.25 2.8672 2.2344 Q2.2812 1.2188 2.0234 -0.4141 Q1.7656 -2.0469 1.7656 -4.8438 Q1.7656 -7.625 2.0234 -9.2656 Q2.2812 -10.9062 2.8672 -11.9453 Q3.4531 -12.9844 4.5078 -13.5 Q5.5625 -14.0156 7.2188 -14.0156 L7.2188 -13.2188 Q6.5312 -13.2188 6 -13.0938 Q5.4062 -12.9531 4.9844 -12.5625 Q4.5156 -12.1406 4.2344 -11.375 Q3.8906 -10.4688 3.7188 -8.9844 Q3.5469 -7.4062 3.5469 -4.9219 Q3.5469 -2.7188 3.6953 -1.1797 Q3.8438 0.3594 4.1875 1.3281 Q4.4531 2.1562 4.8594 2.6094 Q5.2188 3.0156 5.7188 3.2188 Q6.2969 3.4531 7.2188 3.4531 L7.2188 4.25 Z" stroke="none"/></g><g text-rendering="optimizeLegibility" transform="translate(148,103.75)" color-rendering="optimizeQuality" color-interpolation="linearRGB" image-rendering="optimizeQuality"><path d="M6.8125 -1.6875 L6.7812 -1.6875 Q5.7812 0.1562 3.7031 0.1562 Q2.4219 0.1562 1.6484 -0.6406 Q0.875 -1.4375 0.875 -2.9219 Q0.875 -4.7656 2.0312 -6.4766 Q3.1875 -8.1875 5.3281 -9.5 L5.7188 -8.8438 Q4.3438 -7.7812 3.4531 -6.1094 Q2.5625 -4.4375 2.5625 -2.8438 Q2.5625 -1.7031 3.0234 -1.1562 Q3.4844 -0.6094 4.2188 -0.6094 Q4.8906 -0.6094 5.4375 -1.2266 Q5.9844 -1.8438 6.2031 -2.9219 L6.9375 -6.6094 L8.5781 -6.6094 L7.7969 -2.8438 Q7.7188 -2.4219 7.7188 -2.0781 Q7.7188 -1.3906 8.0547 -1 Q8.3906 -0.6094 8.9844 -0.6094 Q10.1875 -0.6094 10.9922 -2.1094 Q11.7969 -3.6094 11.7969 -5.7812 Q11.7969 -7.8125 11 -8.9375 L11.5625 -9.5 Q13.5156 -7.6406 13.5156 -5.3594 Q13.5156 -3.125 12.2344 -1.4844 Q10.9531 0.1562 8.9688 0.1562 Q7.1562 0.1562 6.8125 -1.6875 Z" stroke="none"/></g><g text-rendering="optimizeLegibility" transform="translate(163.0938,103.75)" color-rendering="optimizeQuality" color-interpolation="linearRGB" image-rendering="optimizeQuality"><path d="M0.4219 -14.0156 Q2.0781 -14.0156 3.1328 -13.5156 Q4.1875 -13.0156 4.7734 -12 Q5.3594 -10.9844 5.6172 -9.3516 Q5.875 -7.7188 5.875 -4.9219 Q5.875 -2.1562 5.6172 -0.5078 Q5.3594 1.1406 4.7734 2.1797 Q4.1875 3.2188 3.1328 3.7344 Q2.0781 4.25 0.4219 4.25 L0.4219 3.4531 Q1.1094 3.4531 1.625 3.3281 Q2.2344 3.1875 2.6406 2.7969 Q3.1094 2.375 3.4062 1.6094 Q3.75 0.7031 3.9219 -0.7812 Q4.0938 -2.3594 4.0938 -4.8438 Q4.0938 -7.0469 3.9453 -8.5859 Q3.7969 -10.125 3.4531 -11.0938 Q3.1875 -11.9219 2.7812 -12.375 Q2.4062 -12.7812 1.9219 -12.9844 Q1.3438 -13.2188 0.4219 -13.2188 L0.4219 -14.0156 Z" stroke="none"/></g><g text-rendering="optimizeLegibility" transform="translate(170.9688,103.75)" color-rendering="optimizeQuality" color-interpolation="linearRGB" image-rendering="optimizeQuality"><path d="M10.6562 -2.8438 Q10.5312 -2.2656 10.4922 -1.9297 Q10.4531 -1.5938 10.4531 -1.3125 Q10.4531 -0.875 10.6719 -0.6953 Q10.8906 -0.5156 11.4062 -0.4844 L11.2969 0 L7.3906 0 L7.5 -0.4844 Q7.875 -0.5312 8.0625 -0.6641 Q8.25 -0.7969 8.375 -1.0312 Q8.5 -1.2656 8.6094 -1.6016 Q8.7188 -1.9375 8.9219 -2.9062 L9.7344 -6.5312 L4.4844 -6.5312 L3.6719 -2.8438 Q3.5938 -2.4844 3.5469 -2.25 Q3.5 -2.0156 3.4844 -1.7969 Q3.4688 -1.5781 3.4688 -1.3125 Q3.4688 -0.9062 3.6641 -0.7188 Q3.8594 -0.5312 4.4219 -0.4844 L4.3125 0 L0.4062 0 L0.5156 -0.4844 Q0.8906 -0.5312 1.0781 -0.6641 Q1.2656 -0.7969 1.3906 -1.0312 Q1.5156 -1.2656 1.625 -1.6016 Q1.7344 -1.9375 1.9375 -2.9062 L3.6094 -10.4375 Q3.6875 -10.8281 3.75 -11.2812 Q3.8125 -11.7344 3.8125 -12 Q3.8125 -12.4688 3.5781 -12.6484 Q3.3438 -12.8281 2.8594 -12.8594 L2.9688 -13.3281 L6.875 -13.3281 L6.7656 -12.8594 Q6.3906 -12.7812 6.2344 -12.6797 Q6.0781 -12.5781 5.9453 -12.3828 Q5.8125 -12.1875 5.6797 -11.7734 Q5.5469 -11.3594 5.3438 -10.4219 L4.6719 -7.4375 L9.9219 -7.4375 L10.5938 -10.4375 Q10.6719 -10.8281 10.7344 -11.2812 Q10.7969 -11.7344 10.7969 -12 Q10.7969 -12.4688 10.5625 -12.6484 Q10.3281 -12.8281 9.8438 -12.8594 L9.9531 -13.3281 L13.8594 -13.3281 L13.75 -12.8594 Q13.4219 -12.7812 13.2812 -12.7109 Q13.1406 -12.6406 13.0312 -12.5234 Q12.9219 -12.4062 12.8203 -12.1875 Q12.7188 -11.9688 12.6016 -11.5391 Q12.4844 -11.1094 12.3281 -10.4219 L10.6562 -2.8438 Z" stroke="none"/></g><g text-rendering="optimizeLegibility" transform="translate(184.8281,108.6406)" color-rendering="optimizeQuality" color-interpolation="linearRGB" image-rendering="optimizeQuality"><path d="M2.5156 -3.8125 L2.7344 -3.8125 Q2.9531 -3.8125 3.1953 -3.8906 Q3.4375 -3.9688 3.7188 -4.1484 Q4 -4.3281 4.4688 -4.7031 Q4.8281 -4.9844 5 -5.1875 Q5.1719 -5.3906 5.2344 -5.5391 Q5.2969 -5.6875 5.2969 -5.8281 Q5.2969 -6.1562 4.8281 -6.2031 L4.9062 -6.5312 L7.1094 -6.5312 L7.25 -6.2031 Q6.6719 -5.6875 6.0469 -5.2031 L4.3125 -3.8438 L5.3438 -1.2656 Q5.4688 -0.9062 5.6172 -0.7188 Q5.7656 -0.5312 5.9531 -0.4453 Q6.1406 -0.3594 6.4375 -0.3281 L6.3594 0 L4.5312 0 L3.5312 -2.8125 Q3.4375 -3.0781 3.3672 -3.1719 Q3.2969 -3.2656 3.2109 -3.3047 Q3.125 -3.3438 2.9219 -3.3438 L2.4219 -3.3438 L1.7031 0 L0.5312 0 L2.2812 -7.8125 Q2.3594 -8.1562 2.3906 -8.3125 Q2.4219 -8.4688 2.4375 -8.5938 Q2.4531 -8.7188 2.4531 -8.8281 Q2.4531 -9.1094 2.2734 -9.2266 Q2.0938 -9.3438 1.6406 -9.3594 L1.7344 -9.7188 L3.4531 -9.7812 L3.8594 -9.7812 L2.5156 -3.8125 Z" stroke="none"/></g><g text-rendering="optimizeLegibility" transform="translate(192.3125,103.75)" color-rendering="optimizeQuality" color-interpolation="linearRGB" image-rendering="optimizeQuality"><path d="M7.2188 4.25 Q5.5625 4.25 4.5078 3.75 Q3.4531 3.25 2.8672 2.2344 Q2.2812 1.2188 2.0234 -0.4141 Q1.7656 -2.0469 1.7656 -4.8438 Q1.7656 -7.625 2.0234 -9.2656 Q2.2812 -10.9062 2.8672 -11.9453 Q3.4531 -12.9844 4.5078 -13.5 Q5.5625 -14.0156 7.2188 -14.0156 L7.2188 -13.2188 Q6.5312 -13.2188 6 -13.0938 Q5.4062 -12.9531 4.9844 -12.5625 Q4.5156 -12.1406 4.2344 -11.375 Q3.8906 -10.4688 3.7188 -8.9844 Q3.5469 -7.4062 3.5469 -4.9219 Q3.5469 -2.7188 3.6953 -1.1797 Q3.8438 0.3594 4.1875 1.3281 Q4.4531 2.1562 4.8594 2.6094 Q5.2188 3.0156 5.7188 3.2188 Q6.2969 3.4531 7.2188 3.4531 L7.2188 4.25 Z" stroke="none"/></g><g text-rendering="optimizeLegibility" transform="translate(201.5312,103.75)" color-rendering="optimizeQuality" color-interpolation="linearRGB" image-rendering="optimizeQuality"><path d="M6.8125 -1.6875 L6.7812 -1.6875 Q5.7812 0.1562 3.7031 0.1562 Q2.4219 0.1562 1.6484 -0.6406 Q0.875 -1.4375 0.875 -2.9219 Q0.875 -4.7656 2.0312 -6.4766 Q3.1875 -8.1875 5.3281 -9.5 L5.7188 -8.8438 Q4.3438 -7.7812 3.4531 -6.1094 Q2.5625 -4.4375 2.5625 -2.8438 Q2.5625 -1.7031 3.0234 -1.1562 Q3.4844 -0.6094 4.2188 -0.6094 Q4.8906 -0.6094 5.4375 -1.2266 Q5.9844 -1.8438 6.2031 -2.9219 L6.9375 -6.6094 L8.5781 -6.6094 L7.7969 -2.8438 Q7.7188 -2.4219 7.7188 -2.0781 Q7.7188 -1.3906 8.0547 -1 Q8.3906 -0.6094 8.9844 -0.6094 Q10.1875 -0.6094 10.9922 -2.1094 Q11.7969 -3.6094 11.7969 -5.7812 Q11.7969 -7.8125 11 -8.9375 L11.5625 -9.5 Q13.5156 -7.6406 13.5156 -5.3594 Q13.5156 -3.125 12.2344 -1.4844 Q10.9531 0.1562 8.9688 0.1562 Q7.1562 0.1562 6.8125 -1.6875 Z" stroke="none"/></g><g text-rendering="optimizeLegibility" transform="translate(216.625,103.75)" color-rendering="optimizeQuality" color-interpolation="linearRGB" image-rendering="optimizeQuality"><path d="M0.4219 -14.0156 Q2.0781 -14.0156 3.1328 -13.5156 Q4.1875 -13.0156 4.7734 -12 Q5.3594 -10.9844 5.6172 -9.3516 Q5.875 -7.7188 5.875 -4.9219 Q5.875 -2.1562 5.6172 -0.5078 Q5.3594 1.1406 4.7734 2.1797 Q4.1875 3.2188 3.1328 3.7344 Q2.0781 4.25 0.4219 4.25 L0.4219 3.4531 Q1.1094 3.4531 1.625 3.3281 Q2.2344 3.1875 2.6406 2.7969 Q3.1094 2.375 3.4062 1.6094 Q3.75 0.7031 3.9219 -0.7812 Q4.0938 -2.3594 4.0938 -4.8438 Q4.0938 -7.0469 3.9453 -8.5859 Q3.7969 -10.125 3.4531 -11.0938 Q3.1875 -11.9219 2.7812 -12.375 Q2.4062 -12.7812 1.9219 -12.9844 Q1.3438 -13.2188 0.4219 -13.2188 L0.4219 -14.0156 Z" stroke="none"/></g><g text-rendering="optimizeLegibility" transform="translate(224.5,103.75)" color-rendering="optimizeQuality" color-interpolation="linearRGB" image-rendering="optimizeQuality"><path d="M1.5469 -3.0312 Q1.5469 -1.8594 2.0938 -1.2734 Q2.6406 -0.6875 3.8125 -0.6875 Q4.7031 -0.6875 5.3516 -1.0234 Q6 -1.3594 6.3281 -1.9688 Q6.6562 -2.5781 6.6562 -3.4219 Q6.6562 -4.0156 6.4453 -4.4688 Q6.2344 -4.9219 5.8125 -5.3359 Q5.3906 -5.75 4.5938 -6.2969 Q3.875 -6.7812 3.3906 -7.25 Q2.9062 -7.7188 2.625 -8.3047 Q2.3438 -8.8906 2.3438 -9.625 Q2.3438 -10.7656 2.8984 -11.6484 Q3.4531 -12.5312 4.4688 -13.0078 Q5.4844 -13.4844 6.8125 -13.4844 Q7.7188 -13.4844 8.4844 -13.3672 Q9.25 -13.25 10.1719 -12.9531 L9.625 -10.4375 L8.6875 -10.4375 Q8.6562 -11.2656 8.4375 -11.7422 Q8.2188 -12.2188 7.8203 -12.4219 Q7.4219 -12.625 6.7656 -12.625 Q5.9531 -12.625 5.3359 -12.2969 Q4.7188 -11.9688 4.3984 -11.3984 Q4.0781 -10.8281 4.0781 -10.125 Q4.0781 -9.6094 4.25 -9.2109 Q4.4219 -8.8125 4.8125 -8.4219 Q5.2031 -8.0312 5.9375 -7.5312 Q6.8906 -6.8594 7.3984 -6.3438 Q7.9062 -5.8281 8.1406 -5.2422 Q8.375 -4.6562 8.375 -3.875 Q8.375 -2.7031 7.8047 -1.7734 Q7.2344 -0.8438 6.1953 -0.3438 Q5.1562 0.1562 3.8281 0.1562 Q2.9219 0.1562 1.8984 0.0156 Q0.875 -0.125 0.0312 -0.3594 L0.6094 -3.0312 L1.5469 -3.0312 Z" stroke="none"/></g><g text-rendering="optimizeLegibility" transform="translate(225.7109,92.375)" color-rendering="optimizeQuality" color-interpolation="linearRGB" image-rendering="optimizeQuality"><path d="M5.6406 -4.6094 L3.875 -8.5 L2.1094 -4.6094 L1.0781 -4.6094 L3.3906 -9.4375 L4.375 -9.4375 L6.6719 -4.6094 L5.6406 -4.6094 Z" stroke="none"/></g><g text-rendering="optimizeLegibility" transform="translate(234.6719,107.9375)" color-rendering="optimizeQuality" color-interpolation="linearRGB" image-rendering="optimizeQuality"><path d="M3.375 -2.2344 L3.375 -1.7188 Q1.9531 0.1719 1.0469 0.1719 Q0.5625 0.1719 0.2891 -0.3594 Q0.0156 -0.8906 0.0156 -1.75 Q0.0156 -2.4531 0.3438 -3.4141 Q0.6719 -4.375 1.2188 -5.3594 Q1.7656 -6.3438 2.3594 -7.0781 Q2.9531 -7.8125 3.4531 -8.1094 Q3.6719 -8.2344 3.7812 -8.2344 Q3.9219 -8.2344 3.9688 -8.1094 Q4.0156 -7.9844 4.0156 -7.6719 Q4.0156 -6.7188 3.2422 -5.3359 Q2.4688 -3.9531 1.0938 -2.5156 Q1.0312 -2.1562 1.0312 -1.9688 Q1.0312 -1.5312 1.2188 -1.2578 Q1.4062 -0.9844 1.7344 -0.9844 Q1.9062 -0.9844 2.1016 -1.1172 Q2.2969 -1.25 2.5156 -1.4453 Q2.7344 -1.6406 3.375 -2.2344 ZM1.3281 -3.4531 Q1.6875 -3.8125 2.0234 -4.2578 Q2.3594 -4.7031 2.6484 -5.2031 Q2.9375 -5.7031 3.1094 -6.1094 Q3.2812 -6.5156 3.2812 -6.7188 Q3.2812 -6.875 3.1719 -6.875 Q3.125 -6.875 3.0156 -6.7969 Q2.5938 -6.4531 2.0703 -5.4609 Q1.5469 -4.4688 1.3281 -3.4531 Z" stroke="none"/></g><g text-rendering="optimizeLegibility" transform="translate(238.6875,107.9375)" color-rendering="optimizeQuality" color-interpolation="linearRGB" image-rendering="optimizeQuality"><path d="M6.5625 -5.2031 L6.5625 -5.0938 Q6.5625 -5.0469 6.5469 -5 Q7.1406 -5.8438 7.7266 -6.2422 Q8.3125 -6.6406 8.9531 -6.6406 Q9.5938 -6.6406 9.9375 -6.2734 Q10.2812 -5.9062 10.2812 -5.2031 Q10.2812 -4.7656 10.1406 -4.1406 L9.5625 -1.7031 Q9.4531 -1.2188 9.4531 -0.9375 Q9.4531 -0.7188 9.5156 -0.6094 Q9.5781 -0.5 9.7266 -0.4375 Q9.875 -0.375 10.2031 -0.3281 L10.1406 0 L7.9844 0 L8.8594 -3.4688 Q8.9531 -3.8438 9.0234 -4.2344 Q9.0938 -4.625 9.0938 -4.9375 Q9.0938 -5.4219 8.9219 -5.6328 Q8.75 -5.8438 8.375 -5.8438 Q8.1094 -5.8438 7.7812 -5.625 Q7.4531 -5.4062 7.0938 -4.9531 Q6.7344 -4.5 6.5 -4.0625 Q6.2656 -3.625 6.125 -2.9844 L5.5156 0 L4.3281 0 L5.1094 -3.4688 Q5.25 -4.1094 5.3047 -4.4141 Q5.3594 -4.7188 5.3594 -4.9375 Q5.3594 -5.4219 5.1875 -5.6328 Q5.0156 -5.8438 4.6406 -5.8438 Q4.375 -5.8438 4.0391 -5.625 Q3.7031 -5.4062 3.3359 -4.9375 Q2.9688 -4.4688 2.7422 -4.0234 Q2.5156 -3.5781 2.4062 -2.9531 L1.7812 0 L0.5938 0 L1.6406 -4.6719 Q1.6719 -4.8281 1.7266 -5.1328 Q1.7812 -5.4375 1.7812 -5.6406 Q1.7812 -5.8438 1.7266 -5.9453 Q1.6719 -6.0469 1.5312 -6.1016 Q1.3906 -6.1562 1.0469 -6.1719 L1.1406 -6.5312 L2.6875 -6.5938 L3.0781 -6.5938 L2.625 -4.8281 L2.7031 -4.7969 Q3.3438 -5.7344 3.9609 -6.1875 Q4.5781 -6.6406 5.2188 -6.6406 Q5.875 -6.6406 6.2188 -6.2734 Q6.5625 -5.9062 6.5625 -5.2031 Z" stroke="none"/></g><g text-rendering="optimizeLegibility" transform="translate(249.2031,103.75)" color-rendering="optimizeQuality" color-interpolation="linearRGB" image-rendering="optimizeQuality"><path d="M7.2188 4.25 Q5.5625 4.25 4.5078 3.75 Q3.4531 3.25 2.8672 2.2344 Q2.2812 1.2188 2.0234 -0.4141 Q1.7656 -2.0469 1.7656 -4.8438 Q1.7656 -7.625 2.0234 -9.2656 Q2.2812 -10.9062 2.8672 -11.9453 Q3.4531 -12.9844 4.5078 -13.5 Q5.5625 -14.0156 7.2188 -14.0156 L7.2188 -13.2188 Q6.5312 -13.2188 6 -13.0938 Q5.4062 -12.9531 4.9844 -12.5625 Q4.5156 -12.1406 4.2344 -11.375 Q3.8906 -10.4688 3.7188 -8.9844 Q3.5469 -7.4062 3.5469 -4.9219 Q3.5469 -2.7188 3.6953 -1.1797 Q3.8438 0.3594 4.1875 1.3281 Q4.4531 2.1562 4.8594 2.6094 Q5.2188 3.0156 5.7188 3.2188 Q6.2969 3.4531 7.2188 3.4531 L7.2188 4.25 Z" stroke="none"/></g><g text-rendering="optimizeLegibility" transform="translate(258.4219,103.75)" color-rendering="optimizeQuality" color-interpolation="linearRGB" image-rendering="optimizeQuality"><path d="M6.8125 -1.6875 L6.7812 -1.6875 Q5.7812 0.1562 3.7031 0.1562 Q2.4219 0.1562 1.6484 -0.6406 Q0.875 -1.4375 0.875 -2.9219 Q0.875 -4.7656 2.0312 -6.4766 Q3.1875 -8.1875 5.3281 -9.5 L5.7188 -8.8438 Q4.3438 -7.7812 3.4531 -6.1094 Q2.5625 -4.4375 2.5625 -2.8438 Q2.5625 -1.7031 3.0234 -1.1562 Q3.4844 -0.6094 4.2188 -0.6094 Q4.8906 -0.6094 5.4375 -1.2266 Q5.9844 -1.8438 6.2031 -2.9219 L6.9375 -6.6094 L8.5781 -6.6094 L7.7969 -2.8438 Q7.7188 -2.4219 7.7188 -2.0781 Q7.7188 -1.3906 8.0547 -1 Q8.3906 -0.6094 8.9844 -0.6094 Q10.1875 -0.6094 10.9922 -2.1094 Q11.7969 -3.6094 11.7969 -5.7812 Q11.7969 -7.8125 11 -8.9375 L11.5625 -9.5 Q13.5156 -7.6406 13.5156 -5.3594 Q13.5156 -3.125 12.2344 -1.4844 Q10.9531 0.1562 8.9688 0.1562 Q7.1562 0.1562 6.8125 -1.6875 Z" stroke="none"/></g><g text-rendering="optimizeLegibility" transform="translate(273.5156,103.75)" color-rendering="optimizeQuality" color-interpolation="linearRGB" image-rendering="optimizeQuality"><path d="M0.4219 -14.0156 Q2.0781 -14.0156 3.1328 -13.5156 Q4.1875 -13.0156 4.7734 -12 Q5.3594 -10.9844 5.6172 -9.3516 Q5.875 -7.7188 5.875 -4.9219 Q5.875 -2.1562 5.6172 -0.5078 Q5.3594 1.1406 4.7734 2.1797 Q4.1875 3.2188 3.1328 3.7344 Q2.0781 4.25 0.4219 4.25 L0.4219 3.4531 Q1.1094 3.4531 1.625 3.3281 Q2.2344 3.1875 2.6406 2.7969 Q3.1094 2.375 3.4062 1.6094 Q3.75 0.7031 3.9219 -0.7812 Q4.0938 -2.3594 4.0938 -4.8438 Q4.0938 -7.0469 3.9453 -8.5859 Q3.7969 -10.125 3.4531 -11.0938 Q3.1875 -11.9219 2.7812 -12.375 Q2.4062 -12.7812 1.9219 -12.9844 Q1.3438 -13.2188 0.4219 -13.2188 L0.4219 -14.0156 Z" stroke="none"/></g><g text-rendering="optimizeLegibility" transform="translate(282.9688,111.6915) matrix(1,0,0,3.1051,0,0)" color-rendering="optimizeQuality" color-interpolation="linearRGB" image-rendering="optimizeQuality"><path d="M0.4219 -14.0156 Q2.0781 -14.0156 3.1328 -13.5156 Q4.1875 -13.0156 4.7734 -12 Q5.3594 -10.9844 5.6172 -9.3516 Q5.875 -7.7188 5.875 -4.9219 Q5.875 -2.1562 5.6172 -0.5078 Q5.3594 1.1406 4.7734 2.1797 Q4.1875 3.2188 3.1328 3.7344 Q2.0781 4.25 0.4219 4.25 L0.4219 3.4531 Q1.1094 3.4531 1.625 3.3281 Q2.2344 3.1875 2.6406 2.7969 Q3.1094 2.375 3.4062 1.6094 Q3.75 0.7031 3.9219 -0.7812 Q4.0938 -2.3594 4.0938 -4.8438 Q4.0938 -7.0469 3.9453 -8.5859 Q3.7969 -10.125 3.4531 -11.0938 Q3.1875 -11.9219 2.7812 -12.375 Q2.4062 -12.7812 1.9219 -12.9844 Q1.3438 -13.2188 0.4219 -13.2188 L0.4219 -14.0156 Z" stroke="none"/></g></g></svg>