<?xml version="1.0" encoding="UTF-8" standalone="no"?><svg xmlns="http://www.w3.org/2000/svg" xmlns:xlink="http://www.w3.org/1999/xlink" stroke-dasharray="none" shape-rendering="auto" font-family="'Dialog'" width="244.812600" text-rendering="auto" fill-opacity="1" contentScriptType="text/ecmascript" color-interpolation="auto" color-rendering="auto" preserveAspectRatio="xMidYMid meet" font-size="12" fill="black" stroke="black" image-rendering="auto" stroke-miterlimit="10" zoomAndPan="magnify" version="1.0" stroke-linecap="square" stroke-linejoin="miter" contentStyleType="text/css" font-style="normal" height="25" stroke-width="1" stroke-dashoffset="0" font-weight="normal" stroke-opacity="1" y="-10.000000"><!--Converted from MathML using JEuclid--><defs id="genericDefs"/><g><g text-rendering="optimizeLegibility" transform="translate(1.0781,15)" color-rendering="optimizeQuality" color-interpolation="linearRGB" image-rendering="optimizeQuality"><path d="M7.0781 4.2188 Q5.5625 4.2188 4.6797 3.8281 Q3.7969 3.4375 3.4141 2.6641 Q3.0312 1.8906 3.0312 0.5781 L3.0312 -2.25 Q3.0312 -3.1094 2.8125 -3.5938 Q2.5938 -4.0781 2.1562 -4.2734 Q1.7188 -4.4688 0.9219 -4.4688 L0.9219 -5.2812 Q1.7031 -5.2812 2.1484 -5.4766 Q2.5938 -5.6719 2.8125 -6.1484 Q3.0312 -6.625 3.0312 -7.5 L3.0312 -10.3281 Q3.0312 -11.625 3.4141 -12.4062 Q3.7969 -13.1875 4.6797 -13.5781 Q5.5625 -13.9688 7.0781 -13.9688 L7.3281 -13.9688 L7.3281 -13.1719 Q6.5469 -13.1719 6.1641 -13.0938 Q5.7812 -13.0156 5.5391 -12.8438 Q5.2969 -12.6719 5.1406 -12.4141 Q4.9844 -12.1562 4.8984 -11.6875 Q4.8125 -11.2188 4.8125 -10.4375 L4.8125 -8.5469 Q4.8125 -7.5625 4.6406 -6.8984 Q4.4688 -6.2344 4.0312 -5.7578 Q3.5938 -5.2812 2.8281 -4.9688 L2.8281 -4.7812 Q3.5781 -4.4844 4.0312 -3.9844 Q4.4844 -3.4844 4.6484 -2.8203 Q4.8125 -2.1562 4.8125 -1.2031 L4.8125 0.6875 Q4.8125 1.4688 4.8984 1.9375 Q4.9844 2.4062 5.1406 2.6719 Q5.2969 2.9375 5.5391 3.1016 Q5.7812 3.2656 6.1641 3.3438 Q6.5469 3.4219 7.3281 3.4219 L7.3281 4.2188 L7.0781 4.2188 Z" stroke="none"/></g><g text-rendering="optimizeLegibility" transform="translate(10.4062,15)" color-rendering="optimizeQuality" color-interpolation="linearRGB" image-rendering="optimizeQuality"><path d="M9.2031 0 L6.1406 0 L7.375 -4.9688 Q7.4844 -5.4375 7.6016 -6.0156 Q7.7188 -6.5938 7.7188 -7.0469 Q7.7188 -7.75 7.4766 -8.0469 Q7.2344 -8.3438 6.7344 -8.3438 Q6.3125 -8.3438 5.8438 -8.0312 Q5.375 -7.7188 4.8594 -7.0859 Q4.3438 -6.4531 3.9844 -5.8047 Q3.625 -5.1562 3.4219 -4.2344 L2.5469 0 L0.8438 0 L2.3281 -6.6719 Q2.3906 -6.8906 2.4688 -7.3359 Q2.5469 -7.7812 2.5469 -8.0625 Q2.5469 -8.3438 2.4688 -8.4922 Q2.3906 -8.6406 2.1875 -8.7188 Q1.9844 -8.7969 1.5 -8.8125 L1.625 -9.3438 L3.8438 -9.4219 L4.3906 -9.4219 L3.7344 -6.8906 L3.8594 -6.8438 Q4.8125 -8.1875 5.7031 -8.8438 Q6.5938 -9.5 7.4844 -9.5 Q8.4219 -9.5 8.9141 -8.9766 Q9.4062 -8.4531 9.4062 -7.4219 Q9.4062 -7.0781 9.3438 -6.6562 Q9.2812 -6.2344 9.2031 -5.9219 L8.375 -2.4375 Q8.2188 -1.7344 8.2188 -1.3281 Q8.2188 -1.0312 8.3125 -0.8672 Q8.4062 -0.7031 8.6094 -0.6172 Q8.8125 -0.5312 9.2812 -0.4844 L9.2031 0 Z" stroke="none"/></g><g text-rendering="optimizeLegibility" transform="translate(21.3906,15)" color-rendering="optimizeQuality" color-interpolation="linearRGB" image-rendering="optimizeQuality"><path d="M0.6719 -13.9688 Q2.1875 -13.9688 3.0703 -13.5781 Q3.9531 -13.1875 4.3281 -12.4062 Q4.7031 -11.625 4.7031 -10.3281 L4.7031 -7.5 Q4.7031 -6.625 4.9297 -6.1484 Q5.1562 -5.6719 5.5938 -5.4766 Q6.0312 -5.2812 6.8125 -5.2812 L6.8125 -4.4688 Q6.0312 -4.4688 5.5859 -4.2734 Q5.1406 -4.0781 4.9219 -3.5938 Q4.7031 -3.1094 4.7031 -2.25 L4.7031 0.5781 Q4.7031 1.8906 4.3281 2.6641 Q3.9531 3.4375 3.0703 3.8281 Q2.1875 4.2188 0.6719 4.2188 L0.4219 4.2188 L0.4219 3.4219 Q1.1875 3.4219 1.5781 3.3438 Q1.9688 3.2656 2.2031 3.1016 Q2.4375 2.9375 2.5938 2.6719 Q2.75 2.4062 2.8438 1.9375 Q2.9375 1.4688 2.9375 0.6875 L2.9375 -1.2031 Q2.9375 -2.1875 3.1016 -2.8438 Q3.2656 -3.5 3.7109 -3.9844 Q4.1562 -4.4688 4.9062 -4.7812 L4.9062 -4.9688 Q4.1719 -5.2656 3.7188 -5.7656 Q3.2656 -6.2656 3.1016 -6.9297 Q2.9375 -7.5938 2.9375 -8.5469 L2.9375 -10.4375 Q2.9375 -11.2188 2.8438 -11.6875 Q2.75 -12.1562 2.5938 -12.4141 Q2.4375 -12.6719 2.2031 -12.8438 Q1.9688 -13.0156 1.5781 -13.0938 Q1.1875 -13.1719 0.4219 -13.1719 L0.4219 -13.9688 L0.6719 -13.9688 Z" stroke="none"/></g><g text-rendering="optimizeLegibility" transform="translate(30.5156,15)" color-rendering="optimizeQuality" color-interpolation="linearRGB" image-rendering="optimizeQuality"><path d="M2.8281 -6.9062 Q3.3281 -6.9062 3.6406 -6.5703 Q3.9531 -6.2344 3.9531 -5.7188 Q3.9531 -5.1875 3.6406 -4.8516 Q3.3281 -4.5156 2.8281 -4.5156 Q2.3281 -4.5156 2.0078 -4.8516 Q1.6875 -5.1875 1.6875 -5.7188 Q1.6875 -6.2344 2.0078 -6.5703 Q2.3281 -6.9062 2.8281 -6.9062 Z" stroke="none"/></g><g text-rendering="optimizeLegibility" transform="translate(36.2344,15)" color-rendering="optimizeQuality" color-interpolation="linearRGB" image-rendering="optimizeQuality"><path d="M6.5781 4.2031 L2.2344 4.2031 L2.2344 -13.9688 L6.5781 -13.9688 L6.5781 -13.1719 L3.9531 -13.1719 L3.9531 3.4062 L6.5781 3.4062 L6.5781 4.2031 Z" stroke="none"/></g><g text-rendering="optimizeLegibility" transform="translate(44.9062,15)" color-rendering="optimizeQuality" color-interpolation="linearRGB" image-rendering="optimizeQuality"><path d="M10.0625 -0.7656 Q8.9688 0.1562 7.875 0.1562 Q6.8125 0.1562 6.8125 -1.1719 Q6.8125 -1.6875 6.9844 -2.4219 L6.8594 -2.4844 Q5.0938 0.1562 3.5156 0.1562 Q2.5469 0.1562 2.1719 -0.7969 L2.0938 -0.7969 Q1.8438 0.7344 1.8438 2.4062 L1.8438 2.625 Q1.8438 2.7188 1.8594 2.8281 L1.7656 3.3594 L0.7812 3.9219 L-0.0938 3.9219 L2.8438 -9.3438 L4.4844 -9.3438 L3.3594 -4.3594 Q3.0156 -2.8438 3.0156 -2.3125 Q3.0156 -1 3.9375 -1 Q4.9062 -1 5.9766 -2.3828 Q7.0469 -3.7656 7.2812 -4.9219 L8.2656 -9.3438 L9.8906 -9.3438 L8.3438 -2.3594 Q8.25 -1.9688 8.25 -1.6875 Q8.25 -0.8281 8.8594 -0.8281 Q9.2344 -0.8281 9.8125 -1.2812 L10.0625 -0.7656 Z" stroke="none"/></g><g text-rendering="optimizeLegibility" transform="translate(56.5469,15)" color-rendering="optimizeQuality" color-interpolation="linearRGB" image-rendering="optimizeQuality"><path d="M4.7812 4.2031 L0.4219 4.2031 L0.4219 3.4062 L3.0625 3.4062 L3.0625 -13.1719 L0.4219 -13.1719 L0.4219 -13.9688 L4.7812 -13.9688 L4.7812 4.2031 Z" stroke="none"/></g><g text-rendering="optimizeLegibility" transform="translate(63.5625,15)" color-rendering="optimizeQuality" color-interpolation="linearRGB" image-rendering="optimizeQuality"><path d="M7.2188 4.25 Q5.5625 4.25 4.5078 3.75 Q3.4531 3.25 2.8672 2.2344 Q2.2812 1.2188 2.0234 -0.4141 Q1.7656 -2.0469 1.7656 -4.8438 Q1.7656 -7.625 2.0234 -9.2656 Q2.2812 -10.9062 2.8672 -11.9453 Q3.4531 -12.9844 4.5078 -13.5 Q5.5625 -14.0156 7.2188 -14.0156 L7.2188 -13.2188 Q6.5312 -13.2188 6 -13.0938 Q5.4062 -12.9531 4.9844 -12.5625 Q4.5156 -12.1406 4.2344 -11.375 Q3.8906 -10.4688 3.7188 -8.9844 Q3.5469 -7.4062 3.5469 -4.9219 Q3.5469 -2.7188 3.6953 -1.1797 Q3.8438 0.3594 4.1875 1.3281 Q4.4531 2.1562 4.8594 2.6094 Q5.2188 3.0156 5.7188 3.2188 Q6.2969 3.4531 7.2188 3.4531 L7.2188 4.25 Z" stroke="none"/></g><g text-rendering="optimizeLegibility" transform="translate(73.8594,15)" color-rendering="optimizeQuality" color-interpolation="linearRGB" image-rendering="optimizeQuality"><path d="M7.0781 4.2188 Q5.5625 4.2188 4.6797 3.8281 Q3.7969 3.4375 3.4141 2.6641 Q3.0312 1.8906 3.0312 0.5781 L3.0312 -2.25 Q3.0312 -3.1094 2.8125 -3.5938 Q2.5938 -4.0781 2.1562 -4.2734 Q1.7188 -4.4688 0.9219 -4.4688 L0.9219 -5.2812 Q1.7031 -5.2812 2.1484 -5.4766 Q2.5938 -5.6719 2.8125 -6.1484 Q3.0312 -6.625 3.0312 -7.5 L3.0312 -10.3281 Q3.0312 -11.625 3.4141 -12.4062 Q3.7969 -13.1875 4.6797 -13.5781 Q5.5625 -13.9688 7.0781 -13.9688 L7.3281 -13.9688 L7.3281 -13.1719 Q6.5469 -13.1719 6.1641 -13.0938 Q5.7812 -13.0156 5.5391 -12.8438 Q5.2969 -12.6719 5.1406 -12.4141 Q4.9844 -12.1562 4.8984 -11.6875 Q4.8125 -11.2188 4.8125 -10.4375 L4.8125 -8.5469 Q4.8125 -7.5625 4.6406 -6.8984 Q4.4688 -6.2344 4.0312 -5.7578 Q3.5938 -5.2812 2.8281 -4.9688 L2.8281 -4.7812 Q3.5781 -4.4844 4.0312 -3.9844 Q4.4844 -3.4844 4.6484 -2.8203 Q4.8125 -2.1562 4.8125 -1.2031 L4.8125 0.6875 Q4.8125 1.4688 4.8984 1.9375 Q4.9844 2.4062 5.1406 2.6719 Q5.2969 2.9375 5.5391 3.1016 Q5.7812 3.2656 6.1641 3.3438 Q6.5469 3.4219 7.3281 3.4219 L7.3281 4.2188 L7.0781 4.2188 Z" stroke="none"/></g><g text-rendering="optimizeLegibility" transform="translate(83.1875,15)" color-rendering="optimizeQuality" color-interpolation="linearRGB" image-rendering="optimizeQuality"><path d="M10.6562 -2.8438 Q10.5312 -2.2656 10.4922 -1.9297 Q10.4531 -1.5938 10.4531 -1.3125 Q10.4531 -0.875 10.6719 -0.6953 Q10.8906 -0.5156 11.4062 -0.4844 L11.2969 0 L7.3906 0 L7.5 -0.4844 Q7.875 -0.5312 8.0625 -0.6641 Q8.25 -0.7969 8.375 -1.0312 Q8.5 -1.2656 8.6094 -1.6016 Q8.7188 -1.9375 8.9219 -2.9062 L9.7344 -6.5312 L4.4844 -6.5312 L3.6719 -2.8438 Q3.5938 -2.4844 3.5469 -2.25 Q3.5 -2.0156 3.4844 -1.7969 Q3.4688 -1.5781 3.4688 -1.3125 Q3.4688 -0.9062 3.6641 -0.7188 Q3.8594 -0.5312 4.4219 -0.4844 L4.3125 0 L0.4062 0 L0.5156 -0.4844 Q0.8906 -0.5312 1.0781 -0.6641 Q1.2656 -0.7969 1.3906 -1.0312 Q1.5156 -1.2656 1.625 -1.6016 Q1.7344 -1.9375 1.9375 -2.9062 L3.6094 -10.4375 Q3.6875 -10.8281 3.75 -11.2812 Q3.8125 -11.7344 3.8125 -12 Q3.8125 -12.4688 3.5781 -12.6484 Q3.3438 -12.8281 2.8594 -12.8594 L2.9688 -13.3281 L6.875 -13.3281 L6.7656 -12.8594 Q6.3906 -12.7812 6.2344 -12.6797 Q6.0781 -12.5781 5.9453 -12.3828 Q5.8125 -12.1875 5.6797 -11.7734 Q5.5469 -11.3594 5.3438 -10.4219 L4.6719 -7.4375 L9.9219 -7.4375 L10.5938 -10.4375 Q10.6719 -10.8281 10.7344 -11.2812 Q10.7969 -11.7344 10.7969 -12 Q10.7969 -12.4688 10.5625 -12.6484 Q10.3281 -12.8281 9.8438 -12.8594 L9.9531 -13.3281 L13.8594 -13.3281 L13.75 -12.8594 Q13.4219 -12.7812 13.2812 -12.7109 Q13.1406 -12.6406 13.0312 -12.5234 Q12.9219 -12.4062 12.8203 -12.1875 Q12.7188 -11.9688 12.6016 -11.5391 Q12.4844 -11.1094 12.3281 -10.4219 L10.6562 -2.8438 Z" stroke="none"/></g><g text-rendering="optimizeLegibility" transform="translate(97.8125,16.7969)" color-rendering="optimizeQuality" color-interpolation="linearRGB" image-rendering="optimizeQuality"><path d="M0.7031 0.5938 Q0.5625 0.75 0.4766 0.8984 Q0.3906 1.0469 0.3516 1.1953 Q0.3125 1.3438 0.3125 1.5312 Q0.3125 2.0469 0.6797 2.2812 Q1.0469 2.5156 1.7969 2.5156 Q2.4688 2.5156 2.9219 2.2812 Q3.375 2.0469 3.6875 1.5469 Q4 1.0469 4.2422 0.3203 Q4.4844 -0.4062 4.7188 -1.625 L4.625 -1.6406 Q3.9688 -0.7344 3.3984 -0.3125 Q2.8281 0.1094 2.1719 0.1094 Q1.4219 0.1094 1.0156 -0.4531 Q0.6094 -1.0156 0.6094 -2.0625 Q0.6094 -2.8125 0.8047 -3.5547 Q1 -4.2969 1.3516 -4.8906 Q1.7031 -5.4844 2.1562 -5.875 Q2.6094 -6.2656 3.1094 -6.4609 Q3.6094 -6.6562 4.1406 -6.6562 Q4.5781 -6.6562 4.9609 -6.5547 Q5.3438 -6.4531 5.7344 -6.2031 L6.3594 -6.6562 L6.7969 -6.5469 L6.0781 -3.3438 Q6.0156 -3 5.9219 -2.5625 L5.75 -1.6719 Q5.4219 -0.0625 5.2344 0.5469 Q5 1.2656 4.6875 1.7344 Q4.3906 2.1562 3.9922 2.4453 Q3.5938 2.7344 3.0625 2.8984 Q2.5312 3.0625 1.8125 3.0625 Q-0.7656 3.0625 -0.7656 1.5469 Q-0.7656 1.1719 -0.5391 0.8594 Q-0.3125 0.5469 0.2031 0.1875 L0.7031 0.5938 ZM2.6562 -0.7031 Q3.0156 -0.7031 3.3594 -0.9453 Q3.7031 -1.1875 4.0938 -1.7031 Q4.4844 -2.2188 4.7031 -2.6953 Q4.9219 -3.1719 5.0781 -3.875 Q5.2344 -4.5781 5.2344 -5.0938 Q5.2344 -5.625 5.0078 -5.8672 Q4.7812 -6.1094 4.25 -6.1094 Q3.9688 -6.1094 3.7109 -6.0156 Q3.4531 -5.9219 3.1797 -5.7109 Q2.9062 -5.5 2.6641 -5.1484 Q2.4219 -4.7969 2.2266 -4.2969 Q2.0312 -3.7969 1.9219 -3.2266 Q1.8125 -2.6562 1.8125 -2.125 Q1.8125 -1.4062 2.0156 -1.0547 Q2.2188 -0.7031 2.6562 -0.7031 Z" stroke="none"/></g><g text-rendering="optimizeLegibility" transform="translate(106.1875,15)" color-rendering="optimizeQuality" color-interpolation="linearRGB" image-rendering="optimizeQuality"><path d="M0.6719 -13.9688 Q2.1875 -13.9688 3.0703 -13.5781 Q3.9531 -13.1875 4.3281 -12.4062 Q4.7031 -11.625 4.7031 -10.3281 L4.7031 -7.5 Q4.7031 -6.625 4.9297 -6.1484 Q5.1562 -5.6719 5.5938 -5.4766 Q6.0312 -5.2812 6.8125 -5.2812 L6.8125 -4.4688 Q6.0312 -4.4688 5.5859 -4.2734 Q5.1406 -4.0781 4.9219 -3.5938 Q4.7031 -3.1094 4.7031 -2.25 L4.7031 0.5781 Q4.7031 1.8906 4.3281 2.6641 Q3.9531 3.4375 3.0703 3.8281 Q2.1875 4.2188 0.6719 4.2188 L0.4219 4.2188 L0.4219 3.4219 Q1.1875 3.4219 1.5781 3.3438 Q1.9688 3.2656 2.2031 3.1016 Q2.4375 2.9375 2.5938 2.6719 Q2.75 2.4062 2.8438 1.9375 Q2.9375 1.4688 2.9375 0.6875 L2.9375 -1.2031 Q2.9375 -2.1875 3.1016 -2.8438 Q3.2656 -3.5 3.7109 -3.9844 Q4.1562 -4.4688 4.9062 -4.7812 L4.9062 -4.9688 Q4.1719 -5.2656 3.7188 -5.7656 Q3.2656 -6.2656 3.1016 -6.9297 Q2.9375 -7.5938 2.9375 -8.5469 L2.9375 -10.4375 Q2.9375 -11.2188 2.8438 -11.6875 Q2.75 -12.1562 2.5938 -12.4141 Q2.4375 -12.6719 2.2031 -12.8438 Q1.9688 -13.0156 1.5781 -13.0938 Q1.1875 -13.1719 0.4219 -13.1719 L0.4219 -13.9688 L0.6719 -13.9688 Z" stroke="none"/></g><g text-rendering="optimizeLegibility" transform="translate(115.7656,15)" color-rendering="optimizeQuality" color-interpolation="linearRGB" image-rendering="optimizeQuality"><path d="M1.2344 -5.0469 L1.2344 -6.3906 L9.8281 -6.3906 L9.8281 -5.0469 L1.2344 -5.0469 Z" stroke="none"/></g><g text-rendering="optimizeLegibility" transform="translate(127.4219,15)" color-rendering="optimizeQuality" color-interpolation="linearRGB" image-rendering="optimizeQuality"><path d="M15.6719 -14.4531 L15.6719 -13.1406 L9.0312 0.125 L8.375 0.125 L2.1719 -13.1406 L2.1719 -14.4531 L15.6719 -14.4531 ZM14.875 -13.0625 L4.0469 -13.0625 L9.2656 -1.9219 L9.2812 -1.9219 L14.875 -13.0625 Z" stroke="none"/></g><g text-rendering="optimizeLegibility" transform="translate(145.0938,15)" color-rendering="optimizeQuality" color-interpolation="linearRGB" image-rendering="optimizeQuality"><path d="M6.3125 0.125 L5.4219 4.2188 L3.875 4.2188 L4.7812 0.125 Q2.8594 -0.0156 1.8438 -1.0312 Q0.8281 -2.0469 0.8281 -3.7812 Q0.8281 -6.2344 2.5938 -7.875 Q4.3594 -9.5156 6.9219 -9.5156 L7.8281 -13.5312 L9.3438 -13.5312 L8.4531 -9.5156 Q10.2812 -9.4062 11.375 -8.2969 Q12.4688 -7.1875 12.4688 -5.5 Q12.4688 -3.1562 10.8828 -1.5156 Q9.2969 0.125 6.3125 0.125 ZM8.2812 -8.7188 L6.5 -0.6719 Q8.4531 -0.7344 9.6172 -2.125 Q10.7812 -3.5156 10.7812 -5.6875 Q10.7812 -6.9688 10.0781 -7.8125 Q9.375 -8.6562 8.2812 -8.7188 ZM6.7344 -8.7188 Q5 -8.6562 3.7422 -7.2266 Q2.4844 -5.7969 2.4844 -3.7656 Q2.4844 -2.5 3.1562 -1.6328 Q3.8281 -0.7656 4.9688 -0.6719 L6.7344 -8.7188 Z" stroke="none"/></g><g text-rendering="optimizeLegibility" transform="translate(158.3281,21.0156)" color-rendering="optimizeQuality" color-interpolation="linearRGB" image-rendering="optimizeQuality"><path d="M0.7031 0.5938 Q0.5625 0.75 0.4766 0.8984 Q0.3906 1.0469 0.3516 1.1953 Q0.3125 1.3438 0.3125 1.5312 Q0.3125 2.0469 0.6797 2.2812 Q1.0469 2.5156 1.7969 2.5156 Q2.4688 2.5156 2.9219 2.2812 Q3.375 2.0469 3.6875 1.5469 Q4 1.0469 4.2422 0.3203 Q4.4844 -0.4062 4.7188 -1.625 L4.625 -1.6406 Q3.9688 -0.7344 3.3984 -0.3125 Q2.8281 0.1094 2.1719 0.1094 Q1.4219 0.1094 1.0156 -0.4531 Q0.6094 -1.0156 0.6094 -2.0625 Q0.6094 -2.8125 0.8047 -3.5547 Q1 -4.2969 1.3516 -4.8906 Q1.7031 -5.4844 2.1562 -5.875 Q2.6094 -6.2656 3.1094 -6.4609 Q3.6094 -6.6562 4.1406 -6.6562 Q4.5781 -6.6562 4.9609 -6.5547 Q5.3438 -6.4531 5.7344 -6.2031 L6.3594 -6.6562 L6.7969 -6.5469 L6.0781 -3.3438 Q6.0156 -3 5.9219 -2.5625 L5.75 -1.6719 Q5.4219 -0.0625 5.2344 0.5469 Q5 1.2656 4.6875 1.7344 Q4.3906 2.1562 3.9922 2.4453 Q3.5938 2.7344 3.0625 2.8984 Q2.5312 3.0625 1.8125 3.0625 Q-0.7656 3.0625 -0.7656 1.5469 Q-0.7656 1.1719 -0.5391 0.8594 Q-0.3125 0.5469 0.2031 0.1875 L0.7031 0.5938 ZM2.6562 -0.7031 Q3.0156 -0.7031 3.3594 -0.9453 Q3.7031 -1.1875 4.0938 -1.7031 Q4.4844 -2.2188 4.7031 -2.6953 Q4.9219 -3.1719 5.0781 -3.875 Q5.2344 -4.5781 5.2344 -5.0938 Q5.2344 -5.625 5.0078 -5.8672 Q4.7812 -6.1094 4.25 -6.1094 Q3.9688 -6.1094 3.7109 -6.0156 Q3.4531 -5.9219 3.1797 -5.7109 Q2.9062 -5.5 2.6641 -5.1484 Q2.4219 -4.7969 2.2266 -4.2969 Q2.0312 -3.7969 1.9219 -3.2266 Q1.8125 -2.6562 1.8125 -2.125 Q1.8125 -1.4062 2.0156 -1.0547 Q2.2188 -0.7031 2.6562 -0.7031 Z" stroke="none"/></g><g text-rendering="optimizeLegibility" transform="translate(166.7031,15)" color-rendering="optimizeQuality" color-interpolation="linearRGB" image-rendering="optimizeQuality"><path d="M0.4219 -14.0156 Q2.0781 -14.0156 3.1328 -13.5156 Q4.1875 -13.0156 4.7734 -12 Q5.3594 -10.9844 5.6172 -9.3516 Q5.875 -7.7188 5.875 -4.9219 Q5.875 -2.1562 5.6172 -0.5078 Q5.3594 1.1406 4.7734 2.1797 Q4.1875 3.2188 3.1328 3.7344 Q2.0781 4.25 0.4219 4.25 L0.4219 3.4531 Q1.1094 3.4531 1.625 3.3281 Q2.2344 3.1875 2.6406 2.7969 Q3.1094 2.375 3.4062 1.6094 Q3.75 0.7031 3.9219 -0.7812 Q4.0938 -2.3594 4.0938 -4.8438 Q4.0938 -7.0469 3.9453 -8.5859 Q3.7969 -10.125 3.4531 -11.0938 Q3.1875 -11.9219 2.7812 -12.375 Q2.4062 -12.7812 1.9219 -12.9844 Q1.3438 -13.2188 0.4219 -13.2188 L0.4219 -14.0156 Z" stroke="none"/></g><g text-rendering="optimizeLegibility" transform="translate(175.3594,15)" color-rendering="optimizeQuality" color-interpolation="linearRGB" image-rendering="optimizeQuality"><path d="M1.2188 -7.0625 L1.2188 -8.4219 L9.8594 -8.4219 L9.8594 -7.0625 L1.2188 -7.0625 ZM1.2188 -3.0156 L1.2188 -4.3594 L9.8594 -4.3594 L9.8594 -3.0156 L1.2188 -3.0156 Z" stroke="none"/></g><g text-rendering="optimizeLegibility" transform="translate(187.2188,15)" color-rendering="optimizeQuality" color-interpolation="linearRGB" image-rendering="optimizeQuality"><path d="M5.4375 0.1562 Q3.3281 0.1562 2.2969 -1.5078 Q1.2656 -3.1719 1.2656 -6.5469 Q1.2656 -8.3438 1.5781 -9.6484 Q1.8906 -10.9531 2.4609 -11.8125 Q3.0312 -12.6719 3.8359 -13.0781 Q4.6406 -13.4844 5.5938 -13.4844 Q7.7188 -13.4844 8.7656 -11.8359 Q9.8125 -10.1875 9.8125 -6.8438 Q9.8125 -3.3906 8.6953 -1.6172 Q7.5781 0.1562 5.4375 0.1562 ZM3.1719 -6.8438 Q3.1719 -3.6562 3.7578 -2.1641 Q4.3438 -0.6719 5.5938 -0.6719 Q6.7656 -0.6719 7.3359 -2.0781 Q7.9062 -3.4844 7.9062 -6.4219 Q7.9062 -8.6562 7.6172 -10.0547 Q7.3281 -11.4531 6.8047 -12.0547 Q6.2812 -12.6562 5.5312 -12.6562 Q4.8594 -12.6562 4.4062 -12.2578 Q3.9531 -11.8594 3.6797 -11.1094 Q3.4062 -10.3594 3.2891 -9.2734 Q3.1719 -8.1875 3.1719 -6.8438 Z" stroke="none"/></g><g text-rendering="optimizeLegibility" transform="translate(197.0312,15)" color-rendering="optimizeQuality" color-interpolation="linearRGB" image-rendering="optimizeQuality"><path d="M9.2031 0.1562 Q7.1719 0.1562 6.1016 -1.0391 Q5.0312 -2.2344 5.0312 -4.5781 Q5.0312 -6.1875 5.5938 -7.3047 Q6.1562 -8.4219 7.1328 -8.9609 Q8.1094 -9.5 9.3594 -9.5 Q11.4375 -9.5 12.5156 -8.2891 Q13.5938 -7.0781 13.5938 -4.7969 Q13.5938 -3.1719 13.0547 -2.0625 Q12.5156 -0.9531 11.5312 -0.3984 Q10.5469 0.1562 9.2031 0.1562 ZM6.875 -4.7812 Q6.875 -2.7812 7.5156 -1.6953 Q8.1562 -0.6094 9.3438 -0.6094 Q10 -0.6094 10.4609 -0.9297 Q10.9219 -1.25 11.2031 -1.7891 Q11.4844 -2.3281 11.6172 -3.0312 Q11.75 -3.7344 11.75 -4.5156 Q11.75 -5.9531 11.4297 -6.8984 Q11.1094 -7.8438 10.5625 -8.2891 Q10.0156 -8.7344 9.3125 -8.7344 Q8.125 -8.7344 7.5 -7.7109 Q6.875 -6.6875 6.875 -4.7812 ZM25.4531 0 L21.6094 0 L21.6094 -0.4844 Q22 -0.5938 22.1641 -0.6797 Q22.3281 -0.7656 22.4375 -0.9219 Q22.5469 -1.0781 22.6094 -1.4062 Q22.6719 -1.7344 22.6719 -2.4062 L22.6719 -4.9688 Q22.6719 -5.6406 22.6328 -6.2031 Q22.5938 -6.7656 22.5 -7.1172 Q22.4062 -7.4688 22.2812 -7.6719 Q22.1562 -7.875 21.9688 -8.0156 Q21.7812 -8.1562 21.5469 -8.2422 Q21.3125 -8.3281 20.9375 -8.3281 Q20.5625 -8.3281 20.2188 -8.1719 Q19.875 -8.0156 19.4609 -7.6484 Q19.0469 -7.2812 18.8672 -6.9141 Q18.6875 -6.5469 18.6875 -6.0781 L18.6875 -2.4375 Q18.6875 -1.6094 18.7656 -1.2812 Q18.8438 -0.9531 19.0625 -0.7812 Q19.2812 -0.6094 19.7812 -0.4844 L19.7812 0 L15.9531 0 L15.9531 -0.4844 Q16.3281 -0.5938 16.4922 -0.6797 Q16.6562 -0.7656 16.7656 -0.9219 Q16.875 -1.0781 16.9375 -1.4062 Q17 -1.7344 17 -2.4062 L17 -6.6719 Q17 -7.2969 16.9844 -7.6797 Q16.9688 -8.0625 16.8516 -8.2891 Q16.7344 -8.5156 16.4922 -8.625 Q16.25 -8.7344 15.8125 -8.8125 L15.8125 -9.3438 L18.0938 -9.4219 L18.6875 -9.4219 L18.5781 -7.8281 L18.7188 -7.7969 Q19.4375 -8.5312 19.8828 -8.8438 Q20.3281 -9.1562 20.7812 -9.3281 Q21.2344 -9.5 21.75 -9.5 Q22.2812 -9.5 22.6953 -9.375 Q23.1094 -9.25 23.4219 -8.9922 Q23.7344 -8.7344 23.9453 -8.3594 Q24.1562 -7.9844 24.2578 -7.4609 Q24.3594 -6.9375 24.3594 -6.125 L24.3594 -2.4375 Q24.3594 -1.7656 24.3984 -1.4609 Q24.4375 -1.1562 24.5312 -0.9922 Q24.625 -0.8281 24.8125 -0.7188 Q25 -0.6094 25.4531 -0.4844 L25.4531 0 Z" stroke="none"/></g><g text-rendering="optimizeLegibility" transform="translate(226.4844,15)" color-rendering="optimizeQuality" color-interpolation="linearRGB" image-rendering="optimizeQuality"><path d="M1.5469 -3.0312 Q1.5469 -1.8594 2.0938 -1.2734 Q2.6406 -0.6875 3.8125 -0.6875 Q4.7031 -0.6875 5.3516 -1.0234 Q6 -1.3594 6.3281 -1.9688 Q6.6562 -2.5781 6.6562 -3.4219 Q6.6562 -4.0156 6.4453 -4.4688 Q6.2344 -4.9219 5.8125 -5.3359 Q5.3906 -5.75 4.5938 -6.2969 Q3.875 -6.7812 3.3906 -7.25 Q2.9062 -7.7188 2.625 -8.3047 Q2.3438 -8.8906 2.3438 -9.625 Q2.3438 -10.7656 2.8984 -11.6484 Q3.4531 -12.5312 4.4688 -13.0078 Q5.4844 -13.4844 6.8125 -13.4844 Q7.7188 -13.4844 8.4844 -13.3672 Q9.25 -13.25 10.1719 -12.9531 L9.625 -10.4375 L8.6875 -10.4375 Q8.6562 -11.2656 8.4375 -11.7422 Q8.2188 -12.2188 7.8203 -12.4219 Q7.4219 -12.625 6.7656 -12.625 Q5.9531 -12.625 5.3359 -12.2969 Q4.7188 -11.9688 4.3984 -11.3984 Q4.0781 -10.8281 4.0781 -10.125 Q4.0781 -9.6094 4.25 -9.2109 Q4.4219 -8.8125 4.8125 -8.4219 Q5.2031 -8.0312 5.9375 -7.5312 Q6.8906 -6.8594 7.3984 -6.3438 Q7.9062 -5.8281 8.1406 -5.2422 Q8.375 -4.6562 8.375 -3.875 Q8.375 -2.7031 7.8047 -1.7734 Q7.2344 -0.8438 6.1953 -0.3438 Q5.1562 0.1562 3.8281 0.1562 Q2.9219 0.1562 1.8984 0.0156 Q0.875 -0.125 0.0312 -0.3594 L0.6094 -3.0312 L1.5469 -3.0312 Z" stroke="none"/></g><g text-rendering="optimizeLegibility" transform="translate(236.6562,19.875)" color-rendering="optimizeQuality" color-interpolation="linearRGB" image-rendering="optimizeQuality"><path d="M4.75 -1.7812 Q4.75 -1.3906 4.7969 -1.1875 Q4.8438 -0.9844 4.9531 -0.8594 Q5.0625 -0.7344 5.2734 -0.6641 Q5.4844 -0.5938 5.8047 -0.5547 Q6.125 -0.5156 6.6562 -0.5 L6.6562 0 L1.6094 0 L1.6094 -0.5 Q2.3594 -0.5312 2.6875 -0.5938 Q3.0156 -0.6562 3.1875 -0.7656 Q3.3594 -0.875 3.4375 -1.0938 Q3.5156 -1.3125 3.5156 -1.7812 L3.5156 -7.3281 Q3.5156 -7.6094 3.4219 -7.7344 Q3.3281 -7.8594 3.1406 -7.8594 Q2.9219 -7.8594 2.5156 -7.6328 Q2.1094 -7.4062 1.5156 -7 L1.2188 -7.5312 L4.4219 -9.4375 L4.7969 -9.4375 Q4.75 -8.7812 4.75 -7.625 L4.75 -1.7812 Z" stroke="none"/></g></g></svg>