<?xml version="1.0" encoding="UTF-8" standalone="no"?><svg xmlns="http://www.w3.org/2000/svg" xmlns:xlink="http://www.w3.org/1999/xlink" stroke-dasharray="none" shape-rendering="auto" font-family="'Dialog'" width="224.812600" text-rendering="auto" fill-opacity="1" contentScriptType="text/ecmascript" color-interpolation="auto" color-rendering="auto" preserveAspectRatio="xMidYMid meet" font-size="12" fill="black" stroke="black" image-rendering="auto" stroke-miterlimit="10" zoomAndPan="magnify" version="1.0" stroke-linecap="square" stroke-linejoin="miter" contentStyleType="text/css" font-style="normal" height="57" stroke-width="1" stroke-dashoffset="0" font-weight="normal" stroke-opacity="1" y="-19.000000"><!--Converted from MathML using JEuclid--><defs id="genericDefs"/><g><g text-rendering="optimizeLegibility" transform="translate(0.3828,38)" color-rendering="optimizeQuality" color-interpolation="linearRGB" image-rendering="optimizeQuality"><path d="M9.125 -9.3438 L9.3906 -8.8438 Q9.0312 -7.9844 8.8359 -7.5625 Q8.6406 -7.1406 8.3125 -6.5078 Q7.9844 -5.875 7.5781 -5.1875 Q7.1719 -4.5 6.6562 -3.7031 Q6.1406 -2.9062 5.4844 -1.9609 Q4.8281 -1.0156 3.9375 0.1562 L2.7188 0.1562 L1.8125 -7.2188 Q1.7188 -7.9375 1.6172 -8.2422 Q1.5156 -8.5469 1.3203 -8.6875 Q1.125 -8.8281 0.7031 -8.8594 L0.8125 -9.3438 L3.3281 -9.3438 L4.0625 -1.5781 Q5.75 -3.8906 6.5547 -5.4688 Q7.3594 -7.0469 7.3594 -8.0312 Q7.3594 -8.5 7.1641 -8.6641 Q6.9688 -8.8281 6.5 -8.8594 L6.6094 -9.3438 L9.125 -9.3438 Z" stroke="none"/></g><g text-rendering="optimizeLegibility" transform="translate(-0.7812,28.8281)" color-rendering="optimizeQuality" color-interpolation="linearRGB" image-rendering="optimizeQuality"><path d="M0.7812 -4.4531 L9.4219 -4.4531 L7.8594 -6.4531 L8.2656 -6.8281 L10.9375 -4.2188 L10.9375 -3.7812 L8.2656 -1.1719 L7.8594 -1.5469 L9.4219 -3.5469 L0.7812 -3.5469 L0.7812 -4.4531 Z" stroke="none"/></g><g text-rendering="optimizeLegibility" transform="translate(10.1562,42.8203)" color-rendering="optimizeQuality" color-interpolation="linearRGB" image-rendering="optimizeQuality"><path d="M5.5312 -4.2344 Q5.8594 -3.9844 6.0625 -3.6406 Q6.2656 -3.2969 6.3906 -2.6875 L6.5469 -1.9062 Q6.5938 -1.6562 6.6484 -1.4453 Q6.7031 -1.2344 6.7812 -1.0391 Q6.8594 -0.8438 6.9531 -0.7266 Q7.0469 -0.6094 7.1562 -0.5312 Q7.2656 -0.4531 7.3984 -0.4141 Q7.5312 -0.375 7.7344 -0.3281 L7.6562 0 L5.7656 0 Q5.5469 -0.6094 5.375 -1.4531 L5.0781 -2.9062 Q5 -3.2812 4.8984 -3.5312 Q4.7969 -3.7812 4.6484 -3.9219 Q4.5 -4.0625 4.3047 -4.1094 Q4.1094 -4.1562 3.8281 -4.1562 L3.0469 -4.1562 L2.5781 -1.9844 Q2.5156 -1.7188 2.4922 -1.5625 Q2.4688 -1.4062 2.4453 -1.2344 Q2.4219 -1.0625 2.4219 -0.9219 Q2.4219 -0.7188 2.4922 -0.5938 Q2.5625 -0.4688 2.7031 -0.4141 Q2.8438 -0.3594 3.1719 -0.3281 L3.0938 0 L0.2812 0 L0.3594 -0.3281 Q0.625 -0.375 0.75 -0.4688 Q0.875 -0.5625 0.9688 -0.7266 Q1.0625 -0.8906 1.1328 -1.125 Q1.2031 -1.3594 1.3594 -2.0312 L2.5156 -7.2969 Q2.6719 -7.9844 2.6719 -8.375 Q2.6719 -8.7188 2.5156 -8.8438 Q2.3594 -8.9688 2 -9 L2.0781 -9.3281 L5.125 -9.3281 Q5.8438 -9.3281 6.3047 -9.2422 Q6.7656 -9.1562 7.0859 -8.9844 Q7.4062 -8.8125 7.625 -8.5469 Q7.8438 -8.2812 7.9531 -7.9453 Q8.0625 -7.6094 8.0625 -7.2188 Q8.0625 -6.6094 7.8594 -6.1406 Q7.6562 -5.6719 7.3125 -5.3125 Q6.9688 -4.9531 6.5078 -4.7109 Q6.0469 -4.4688 5.5312 -4.3125 L5.5312 -4.2344 ZM3.9844 -4.75 Q4.7344 -4.75 5.2266 -4.8906 Q5.7188 -5.0312 6.0469 -5.3359 Q6.375 -5.6406 6.5859 -6.1328 Q6.7969 -6.625 6.7969 -7.2031 Q6.7969 -7.5 6.7422 -7.7266 Q6.6875 -7.9531 6.6016 -8.1016 Q6.5156 -8.25 6.375 -8.3672 Q6.2344 -8.4844 6.0312 -8.5703 Q5.8281 -8.6562 5.5547 -8.6953 Q5.2812 -8.7344 4.8125 -8.7344 Q4.4531 -8.7344 4.0469 -8.7031 L3.1719 -4.75 L3.9844 -4.75 Z" stroke="none"/></g><g text-rendering="optimizeLegibility" transform="translate(19,38)" color-rendering="optimizeQuality" color-interpolation="linearRGB" image-rendering="optimizeQuality"><path d="M1.2188 -7.0625 L1.2188 -8.4219 L9.8594 -8.4219 L9.8594 -7.0625 L1.2188 -7.0625 ZM1.2188 -3.0156 L1.2188 -4.3594 L9.8594 -4.3594 L9.8594 -3.0156 L1.2188 -3.0156 Z" stroke="none"/></g><g text-rendering="optimizeLegibility" transform="translate(32.4375,38)" color-rendering="optimizeQuality" color-interpolation="linearRGB" image-rendering="optimizeQuality"><path d="M5.6562 -21.375 L13.5 -9.4688 L13.5 -8.25 L4.7031 3.8281 L15.3125 3.8281 Q16.3125 3.8281 16.8203 3.7031 Q17.3281 3.5781 17.6875 3.3125 Q18.0469 3.0469 18.3438 2.5703 Q18.6406 2.0938 18.9141 1.2578 Q19.1875 0.4219 19.4375 -0.9375 L21.3125 -0.9375 L20.8438 6.9219 L0.4219 6.9219 L0.4219 6.0312 L10.375 -7.6562 L1.0312 -22.1406 L1.0312 -23.0625 L20.9375 -23.0625 L20.9375 -15.8906 L19.1875 -15.8906 Q18.7812 -17.4219 18.4219 -18.3906 Q18.0625 -19.3594 17.6875 -19.9219 Q17.3125 -20.4844 16.9141 -20.7812 Q16.5156 -21.0781 16 -21.2266 Q15.4844 -21.375 14.625 -21.375 L5.6562 -21.375 Z" stroke="none"/></g><g text-rendering="optimizeLegibility" transform="translate(35.0312,56.8594)" color-rendering="optimizeQuality" color-interpolation="linearRGB" image-rendering="optimizeQuality"><path d="M3.8281 -9.2188 L3.5156 -7.8906 L2.2969 -7.8906 L2.625 -9.2188 L3.8281 -9.2188 ZM2.1406 -1.7031 Q2.0625 -1.3594 2.0469 -1.2031 Q2.0312 -1.0469 2.0312 -0.9375 Q2.0312 -0.7188 2.0938 -0.6094 Q2.1562 -0.5 2.3047 -0.4375 Q2.4531 -0.375 2.7812 -0.3281 L2.7188 0 L0.5938 0 L1.625 -4.6094 Q1.7188 -5 1.75 -5.2344 Q1.7812 -5.4688 1.7812 -5.6406 Q1.7812 -5.8281 1.7266 -5.9375 Q1.6719 -6.0469 1.5312 -6.1016 Q1.3906 -6.1562 1.0625 -6.1719 L1.1406 -6.5312 L2.7969 -6.5938 L3.2031 -6.5938 L2.1406 -1.7031 Z" stroke="none"/></g><g text-rendering="optimizeLegibility" transform="translate(38.0156,56.8594)" color-rendering="optimizeQuality" color-interpolation="linearRGB" image-rendering="optimizeQuality"><path d="M0.8438 -4.9375 L0.8438 -5.8906 L6.9062 -5.8906 L6.9062 -4.9375 L0.8438 -4.9375 ZM0.8438 -2.1094 L0.8438 -3.0625 L6.9062 -3.0625 L6.9062 -2.1094 L0.8438 -2.1094 Z" stroke="none"/></g><g text-rendering="optimizeLegibility" transform="translate(44.9219,56.8594)" color-rendering="optimizeQuality" color-interpolation="linearRGB" image-rendering="optimizeQuality"><path d="M4.75 -1.7812 Q4.75 -1.3906 4.7969 -1.1875 Q4.8438 -0.9844 4.9531 -0.8594 Q5.0625 -0.7344 5.2734 -0.6641 Q5.4844 -0.5938 5.8047 -0.5547 Q6.125 -0.5156 6.6562 -0.5 L6.6562 0 L1.6094 0 L1.6094 -0.5 Q2.3594 -0.5312 2.6875 -0.5938 Q3.0156 -0.6562 3.1875 -0.7656 Q3.3594 -0.875 3.4375 -1.0938 Q3.5156 -1.3125 3.5156 -1.7812 L3.5156 -7.3281 Q3.5156 -7.6094 3.4219 -7.7344 Q3.3281 -7.8594 3.1406 -7.8594 Q2.9219 -7.8594 2.5156 -7.6328 Q2.1094 -7.4062 1.5156 -7 L1.2188 -7.5312 L4.4219 -9.4375 L4.7969 -9.4375 Q4.75 -8.7812 4.75 -7.625 L4.75 -1.7812 Z" stroke="none"/></g><g text-rendering="optimizeLegibility" transform="translate(34.75,10.0625)" color-rendering="optimizeQuality" color-interpolation="linearRGB" image-rendering="optimizeQuality"><path d="M9.7656 -9.3281 L9.6875 -9 Q9.4219 -8.9375 9.3125 -8.875 Q9.2031 -8.8125 9.1094 -8.6719 Q9.0156 -8.5312 8.9219 -8.2422 Q8.8281 -7.9531 8.6875 -7.2969 L7.0781 0 L6.1562 0 L4.1562 -5.8594 Q3.7969 -6.9219 3.5156 -7.9688 L3.4375 -7.9688 Q3.3906 -7.6094 3.2031 -6.6328 Q3.0156 -5.6562 2.8125 -4.7188 L2.2188 -1.9844 Q2.1562 -1.7031 2.1172 -1.4375 Q2.0781 -1.1719 2.0781 -0.9219 Q2.0781 -0.6094 2.2266 -0.4844 Q2.375 -0.3594 2.7344 -0.3281 L2.6719 0 L0.2812 0 L0.3438 -0.3281 Q0.6094 -0.375 0.7422 -0.4688 Q0.875 -0.5625 0.9609 -0.7266 Q1.0469 -0.8906 1.125 -1.125 Q1.2031 -1.3594 1.3438 -2.0312 L2.5156 -7.2969 Q2.5781 -7.5938 2.6172 -7.8594 Q2.6562 -8.125 2.6562 -8.4062 Q2.6562 -8.7188 2.4922 -8.8438 Q2.3281 -8.9688 1.9844 -9 L2.0625 -9.3281 L4.25 -9.3281 L6.0469 -4 Q6.4375 -2.8594 6.6562 -2.0625 L6.7344 -2.0625 Q6.7812 -2.4844 6.9766 -3.4531 Q7.1719 -4.4219 7.3281 -5.1406 L7.8125 -7.2969 Q7.8594 -7.5312 7.9141 -7.8359 Q7.9688 -8.1406 7.9688 -8.4062 Q7.9688 -8.7188 7.8047 -8.8438 Q7.6406 -8.9688 7.2969 -9 L7.375 -9.3281 L9.7656 -9.3281 Z" stroke="none"/></g><g text-rendering="optimizeLegibility" transform="translate(44.5156,12.3594)" color-rendering="optimizeQuality" color-interpolation="linearRGB" image-rendering="optimizeQuality"><path d="M4.7812 -0.8125 Q5.5469 -1.8906 5.9453 -2.7031 Q6.3438 -3.5156 6.3438 -4.0156 Q6.3438 -4.25 6.2422 -4.3359 Q6.1406 -4.4219 5.9062 -4.4219 L5.9531 -4.6719 L7.2188 -4.6719 L7.3438 -4.4219 Q7.1719 -3.9844 7.0703 -3.75 Q6.9688 -3.5156 6.8047 -3.1875 Q6.6406 -2.8594 6.4531 -2.5312 Q6.2656 -2.2031 6.0156 -1.8125 Q5.7656 -1.4219 5.4531 -0.9609 Q5.1406 -0.5 4.7188 0.0781 L4.1406 0.0781 L3.9375 -1.9688 Q3.9062 -2.2031 3.8828 -2.5859 Q3.8594 -2.9688 3.8438 -3.1875 L3.7969 -3.1875 Q3.5312 -2.5469 3.0781 -1.75 Q2.625 -0.9531 1.9531 0.0781 L1.2969 0.0781 L0.9219 -3.5938 Q0.9062 -3.875 0.8594 -4.0547 Q0.8125 -4.2344 0.7109 -4.3203 Q0.6094 -4.4062 0.375 -4.4219 L0.4219 -4.6719 L1.7031 -4.6719 L2 -0.8125 Q2.6875 -1.9375 2.9922 -2.5234 Q3.2969 -3.1094 3.4453 -3.5391 Q3.5938 -3.9688 3.6719 -4.4219 L3.7188 -4.6719 L4.4219 -4.6719 L4.7812 -0.8125 Z" stroke="none"/></g><g text-rendering="optimizeLegibility" stroke-width="1.6667" color-interpolation="linearRGB" color-rendering="optimizeQuality" image-rendering="optimizeQuality"><line y2="30.78" fill="none" x1="57.4278" x2="148.7403" y1="30.78"/><path d="M7.1719 -7 Q7.1562 -7.7344 7.0547 -8.0703 Q6.9531 -8.4062 6.7266 -8.5703 Q6.5 -8.7344 6.0781 -8.7344 Q5.0938 -8.7344 4.3047 -7.9453 Q3.5156 -7.1562 3.0156 -5.7188 Q2.5156 -4.2812 2.5156 -2.9531 Q2.5156 -2.5469 2.5938 -2.1797 Q2.6719 -1.8125 2.8516 -1.5547 Q3.0312 -1.2969 3.3281 -1.1406 Q3.625 -0.9844 4.0781 -0.9844 Q4.9688 -0.9844 5.6172 -1.3203 Q6.2656 -1.6562 7 -2.3906 L7.5938 -1.7812 Q6.6719 -0.7656 5.7422 -0.2969 Q4.8125 0.1719 3.7344 0.1719 Q2.3125 0.1719 1.5781 -0.6719 Q0.8438 -1.5156 0.8438 -3.1094 Q0.8438 -4.1562 1.2344 -5.4062 Q1.625 -6.6562 2.3828 -7.6094 Q3.1406 -8.5625 4.1406 -9.0312 Q5.1406 -9.5 6.2969 -9.5 Q7.0781 -9.5 7.6562 -9.4062 Q8.2344 -9.3125 8.6875 -9.2031 L8.2031 -7 L7.1719 -7 Z" stroke-width="1" transform="translate(57.4278,23.6595)" stroke="none"/></g><g text-rendering="optimizeLegibility" transform="translate(66.1153,23.6595)" color-rendering="optimizeQuality" color-interpolation="linearRGB" image-rendering="optimizeQuality"><path d="M4 0.1719 Q2.4844 0.1719 1.6484 -0.6797 Q0.8125 -1.5312 0.8125 -3.125 Q0.8125 -3.7188 0.9531 -4.5 Q1.1406 -5.5312 1.4844 -6.3125 Q1.9219 -7.3125 2.6094 -8.0234 Q3.2969 -8.7344 4.1953 -9.1172 Q5.0938 -9.5 6.1094 -9.5 Q7.2344 -9.5 7.9531 -9.0703 Q8.6719 -8.6406 8.9922 -7.8984 Q9.3125 -7.1562 9.3125 -6.1875 Q9.3125 -5.3281 9.0781 -4.3438 Q8.7188 -2.8906 8.0469 -1.8828 Q7.375 -0.875 6.3594 -0.3516 Q5.3438 0.1719 4 0.1719 ZM2.5156 -2.7031 Q2.5156 -1.625 2.9609 -1.1172 Q3.4062 -0.6094 4.3125 -0.6094 Q5.2656 -0.6094 6.0078 -1.4688 Q6.75 -2.3281 7.1797 -3.875 Q7.6094 -5.4219 7.6094 -6.5938 Q7.6094 -7.6406 7.1953 -8.1797 Q6.7812 -8.7188 5.9219 -8.7188 Q4.9062 -8.7188 4.1484 -7.8672 Q3.3906 -7.0156 2.9531 -5.4297 Q2.5156 -3.8438 2.5156 -2.7031 Z" stroke="none"/></g><g text-rendering="optimizeLegibility" transform="translate(75.4434,23.6595)" color-rendering="optimizeQuality" color-interpolation="linearRGB" image-rendering="optimizeQuality"><path d="M6.4531 -7.0625 Q6.3438 -7.9375 5.9453 -8.3359 Q5.5469 -8.7344 4.7188 -8.7344 Q4.2656 -8.7344 3.8906 -8.5625 Q3.5156 -8.3906 3.3047 -8.0625 Q3.0938 -7.7344 3.0938 -7.2969 Q3.0938 -6.9375 3.2344 -6.6406 Q3.375 -6.3438 3.7266 -6.0156 Q4.0781 -5.6875 4.7031 -5.2812 Q5.6406 -4.6406 6.0234 -4.0469 Q6.4062 -3.4531 6.4062 -2.6719 Q6.4062 -1.75 5.9688 -1.1094 Q5.5312 -0.4688 4.7656 -0.1562 Q4 0.1562 3.0469 0.1562 Q2.1875 0.1562 1.4375 0.0312 Q0.6875 -0.0938 -0.0156 -0.2969 L0.4531 -2.4062 L1.2188 -2.4062 Q1.2812 -1.5 1.7266 -1.0547 Q2.1719 -0.6094 3.0156 -0.6094 Q3.8906 -0.6094 4.375 -1.0469 Q4.8594 -1.4844 4.8594 -2.2031 Q4.8594 -2.625 4.7188 -2.9531 Q4.5781 -3.2812 4.2656 -3.5859 Q3.9531 -3.8906 3.375 -4.2812 Q2.75 -4.7031 2.375 -5.0703 Q2 -5.4375 1.7891 -5.8828 Q1.5781 -6.3281 1.5781 -6.8594 Q1.5781 -7.6719 1.9766 -8.2734 Q2.375 -8.875 3.1094 -9.1875 Q3.8438 -9.5 4.8281 -9.5 Q6.4531 -9.5 7.6719 -9.0781 L7.2344 -7.0625 L6.4531 -7.0625 Z" stroke="none"/></g><g text-rendering="optimizeLegibility" transform="translate(83.1153,23.6595)" color-rendering="optimizeQuality" color-interpolation="linearRGB" image-rendering="optimizeQuality"><path d="M9.1094 0 L6.0469 0 L7.2812 -4.9688 Q7.4062 -5.5 7.5156 -6.0547 Q7.625 -6.6094 7.625 -7.0469 Q7.625 -7.75 7.3906 -8.0469 Q7.1562 -8.3438 6.5938 -8.3438 Q6.1875 -8.3438 5.7031 -8.0156 Q5.2188 -7.6875 4.6875 -7.0078 Q4.1562 -6.3281 3.8359 -5.7109 Q3.5156 -5.0938 3.3281 -4.2344 L2.4375 0 L0.75 0 L3.2656 -11.1562 Q3.375 -11.6562 3.4141 -11.875 Q3.4531 -12.0938 3.4766 -12.2812 Q3.5 -12.4688 3.5 -12.6094 Q3.5 -13.0156 3.25 -13.1797 Q3 -13.3438 2.3594 -13.375 L2.4688 -13.875 L4.9375 -13.9688 L5.5156 -13.9688 L3.8281 -7.2031 L3.9531 -7.1562 Q4.8594 -8.375 5.6953 -8.9375 Q6.5312 -9.5 7.3906 -9.5 Q8.3281 -9.5 8.8203 -8.9766 Q9.3125 -8.4531 9.3125 -7.4219 Q9.3125 -6.7969 9.1094 -5.9219 L8.2969 -2.4375 Q8.1875 -2.0156 8.1484 -1.7656 Q8.1094 -1.5156 8.1094 -1.3281 Q8.1094 -1.0312 8.2188 -0.8594 Q8.3281 -0.6875 8.5312 -0.6094 Q8.7344 -0.5312 9.2031 -0.4844 L9.1094 0 Z" stroke="none"/></g><g text-rendering="optimizeLegibility" transform="translate(92.6622,23.6595)" color-rendering="optimizeQuality" color-interpolation="linearRGB" image-rendering="optimizeQuality"><path d="M7.2188 4.25 Q5.5625 4.25 4.5078 3.75 Q3.4531 3.25 2.8672 2.2344 Q2.2812 1.2188 2.0234 -0.4141 Q1.7656 -2.0469 1.7656 -4.8438 Q1.7656 -7.625 2.0234 -9.2656 Q2.2812 -10.9062 2.8672 -11.9453 Q3.4531 -12.9844 4.5078 -13.5 Q5.5625 -14.0156 7.2188 -14.0156 L7.2188 -13.2188 Q6.5312 -13.2188 6 -13.0938 Q5.4062 -12.9531 4.9844 -12.5625 Q4.5156 -12.1406 4.2344 -11.375 Q3.8906 -10.4688 3.7188 -8.9844 Q3.5469 -7.4062 3.5469 -4.9219 Q3.5469 -2.7188 3.6953 -1.1797 Q3.8438 0.3594 4.1875 1.3281 Q4.4531 2.1562 4.8594 2.6094 Q5.2188 3.0156 5.7188 3.2188 Q6.2969 3.4531 7.2188 3.4531 L7.2188 4.25 Z" stroke="none"/></g><g text-rendering="optimizeLegibility" transform="translate(101.8809,23.6595)" color-rendering="optimizeQuality" color-interpolation="linearRGB" image-rendering="optimizeQuality"><path d="M3.5938 -5.4375 L3.9062 -5.4375 Q4.2031 -5.4375 4.5547 -5.5547 Q4.9062 -5.6719 5.3125 -5.9219 Q5.7188 -6.1719 6.3906 -6.7031 Q6.8906 -7.125 7.1406 -7.4141 Q7.3906 -7.7031 7.4766 -7.9141 Q7.5625 -8.125 7.5625 -8.3281 Q7.5625 -8.7969 6.8906 -8.8594 L7 -9.3438 L10.1719 -9.3438 L10.3594 -8.8594 Q9.5469 -8.125 8.6406 -7.4219 L6.1562 -5.5 L7.625 -1.7969 Q7.8281 -1.2969 8.0312 -1.0312 Q8.2344 -0.7656 8.5 -0.6406 Q8.7656 -0.5156 9.1875 -0.4844 L9.0781 0 L6.4688 0 L5.0469 -4.0156 Q4.9062 -4.3906 4.8125 -4.5312 Q4.7188 -4.6719 4.5938 -4.7266 Q4.4688 -4.7812 4.1875 -4.7812 L3.4531 -4.7812 L2.4375 0 L0.75 0 L3.2656 -11.1562 Q3.375 -11.6562 3.4141 -11.875 Q3.4531 -12.0938 3.4766 -12.2812 Q3.5 -12.4688 3.5 -12.6094 Q3.5 -13.0156 3.25 -13.1797 Q3 -13.3438 2.3594 -13.375 L2.4688 -13.875 L4.9375 -13.9688 L5.5156 -13.9688 L3.5938 -5.4375 Z" stroke="none"/></g><g text-rendering="optimizeLegibility" transform="translate(112.2403,28.2689)" color-rendering="optimizeQuality" color-interpolation="linearRGB" image-rendering="optimizeQuality"><path d="M3.8281 -9.2188 L3.5156 -7.8906 L2.2969 -7.8906 L2.625 -9.2188 L3.8281 -9.2188 ZM2.1406 -1.7031 Q2.0625 -1.3594 2.0469 -1.2031 Q2.0312 -1.0469 2.0312 -0.9375 Q2.0312 -0.7188 2.0938 -0.6094 Q2.1562 -0.5 2.3047 -0.4375 Q2.4531 -0.375 2.7812 -0.3281 L2.7188 0 L0.5938 0 L1.625 -4.6094 Q1.7188 -5 1.75 -5.2344 Q1.7812 -5.4688 1.7812 -5.6406 Q1.7812 -5.8281 1.7266 -5.9375 Q1.6719 -6.0469 1.5312 -6.1016 Q1.3906 -6.1562 1.0625 -6.1719 L1.1406 -6.5312 L2.7969 -6.5938 L3.2031 -6.5938 L2.1406 -1.7031 Z" stroke="none"/></g><g text-rendering="optimizeLegibility" transform="translate(116.209,23.6595)" color-rendering="optimizeQuality" color-interpolation="linearRGB" image-rendering="optimizeQuality"><path d="M2.3125 -0.9062 L5.4375 -0.9062 Q5.875 -0.9062 6.1484 -0.9609 Q6.4219 -1.0156 6.6328 -1.1328 Q6.8438 -1.25 7.0312 -1.4297 Q7.2188 -1.6094 7.4062 -1.8516 Q7.5938 -2.0938 7.8281 -2.5 Q8.0625 -2.9062 8.3281 -3.5312 L9.2656 -3.5312 L8.5156 0 L-0.1406 0 L-0.0469 -0.4844 L8.8125 -12.4375 L5.8281 -12.4375 Q5.4062 -12.4375 5.1641 -12.3906 Q4.9219 -12.3438 4.7344 -12.25 Q4.5469 -12.1562 4.4062 -12.0391 Q4.2656 -11.9219 4.0625 -11.6797 Q3.8594 -11.4375 3.6172 -11.0547 Q3.375 -10.6719 3.0625 -10.0312 L2.125 -10.0312 L2.8594 -13.3281 L11.3125 -13.3281 L11.2031 -12.8594 L2.3125 -0.9062 Z" stroke="none"/></g><g text-rendering="optimizeLegibility" transform="translate(116.3039,20.4564) matrix(1.0764,0,0,1,0,0)" color-rendering="optimizeQuality" color-interpolation="linearRGB" image-rendering="optimizeQuality"><path d="M9.9688 -11.125 L0.2344 -11.125 Q-0.0156 -11.125 -0.1172 -11.2266 Q-0.2188 -11.3281 -0.2188 -11.4844 Q-0.2188 -11.625 -0.1172 -11.7266 Q-0.0156 -11.8281 0.2344 -11.8281 L9.9688 -11.8281 Q10.2188 -11.8281 10.3203 -11.7266 Q10.4219 -11.625 10.4219 -11.4688 Q10.4219 -11.3281 10.3203 -11.2266 Q10.2188 -11.125 9.9688 -11.125 Z" stroke="none"/></g><g text-rendering="optimizeLegibility" transform="translate(130.1465,23.6595)" color-rendering="optimizeQuality" color-interpolation="linearRGB" image-rendering="optimizeQuality"><path d="M2.4844 0.1719 Q2.1562 1.7344 1.5703 2.6484 Q0.9844 3.5625 0.1562 3.9609 Q-0.6719 4.3594 -1.8594 4.3594 Q-2.2812 4.3594 -2.625 4.2656 L-2.4062 3.4062 Q-2.1719 3.4844 -1.7188 3.4844 Q-1.2031 3.4844 -0.875 3.3516 Q-0.5469 3.2188 -0.2656 2.9062 Q0.0156 2.5938 0.2656 2.0078 Q0.5156 1.4219 0.7344 0.4531 L2.7188 -8.3438 L1.5312 -8.3438 L1.6562 -8.8438 Q2.125 -8.8906 2.3203 -8.9766 Q2.5156 -9.0625 2.6406 -9.2031 Q2.7656 -9.3438 2.8594 -9.6016 Q2.9531 -9.8594 3.1406 -10.5 Q3.6562 -12.25 4.7422 -13.1406 Q5.8281 -14.0312 7.4844 -14.0312 Q8.4531 -14.0312 9.1406 -13.875 L8.7656 -12.2031 L7.9062 -12.2031 Q7.7656 -12.7656 7.5469 -13.0078 Q7.3281 -13.25 6.8906 -13.25 Q6.3438 -13.25 5.9531 -12.9453 Q5.5625 -12.6406 5.2812 -12.0312 Q5 -11.4219 4.7656 -10.4062 L4.5156 -9.3438 L6.7656 -9.3438 L6.5469 -8.3438 L4.2969 -8.3438 L2.4844 0.1719 Z" stroke="none"/></g><g text-rendering="optimizeLegibility" transform="translate(140.8653,23.6595)" color-rendering="optimizeQuality" color-interpolation="linearRGB" image-rendering="optimizeQuality"><path d="M0.4219 -14.0156 Q2.0781 -14.0156 3.1328 -13.5156 Q4.1875 -13.0156 4.7734 -12 Q5.3594 -10.9844 5.6172 -9.3516 Q5.875 -7.7188 5.875 -4.9219 Q5.875 -2.1562 5.6172 -0.5078 Q5.3594 1.1406 4.7734 2.1797 Q4.1875 3.2188 3.1328 3.7344 Q2.0781 4.25 0.4219 4.25 L0.4219 3.4531 Q1.1094 3.4531 1.625 3.3281 Q2.2344 3.1875 2.6406 2.7969 Q3.1094 2.375 3.4062 1.6094 Q3.75 0.7031 3.9219 -0.7812 Q4.0938 -2.3594 4.0938 -4.8438 Q4.0938 -7.0469 3.9453 -8.5859 Q3.7969 -10.125 3.4531 -11.0938 Q3.1875 -11.9219 2.7812 -12.375 Q2.4062 -12.7812 1.9219 -12.9844 Q1.3438 -13.2188 0.4219 -13.2188 L0.4219 -14.0156 Z" stroke="none"/></g><g text-rendering="optimizeLegibility" transform="translate(65.2637,47.3067)" color-rendering="optimizeQuality" color-interpolation="linearRGB" image-rendering="optimizeQuality"><path d="M6.4531 -7.0625 Q6.3438 -7.9375 5.9453 -8.3359 Q5.5469 -8.7344 4.7188 -8.7344 Q4.2656 -8.7344 3.8906 -8.5625 Q3.5156 -8.3906 3.3047 -8.0625 Q3.0938 -7.7344 3.0938 -7.2969 Q3.0938 -6.9375 3.2344 -6.6406 Q3.375 -6.3438 3.7266 -6.0156 Q4.0781 -5.6875 4.7031 -5.2812 Q5.6406 -4.6406 6.0234 -4.0469 Q6.4062 -3.4531 6.4062 -2.6719 Q6.4062 -1.75 5.9688 -1.1094 Q5.5312 -0.4688 4.7656 -0.1562 Q4 0.1562 3.0469 0.1562 Q2.1875 0.1562 1.4375 0.0312 Q0.6875 -0.0938 -0.0156 -0.2969 L0.4531 -2.4062 L1.2188 -2.4062 Q1.2812 -1.5 1.7266 -1.0547 Q2.1719 -0.6094 3.0156 -0.6094 Q3.8906 -0.6094 4.375 -1.0469 Q4.8594 -1.4844 4.8594 -2.2031 Q4.8594 -2.625 4.7188 -2.9531 Q4.5781 -3.2812 4.2656 -3.5859 Q3.9531 -3.8906 3.375 -4.2812 Q2.75 -4.7031 2.375 -5.0703 Q2 -5.4375 1.7891 -5.8828 Q1.5781 -6.3281 1.5781 -6.8594 Q1.5781 -7.6719 1.9766 -8.2734 Q2.375 -8.875 3.1094 -9.1875 Q3.8438 -9.5 4.8281 -9.5 Q6.4531 -9.5 7.6719 -9.0781 L7.2344 -7.0625 L6.4531 -7.0625 Z" stroke="none"/></g><g text-rendering="optimizeLegibility" transform="translate(72.9356,47.3067)" color-rendering="optimizeQuality" color-interpolation="linearRGB" image-rendering="optimizeQuality"><path d="M5.4688 -13.1719 L5.0156 -11.2656 L3.2969 -11.2656 L3.7344 -13.1719 L5.4688 -13.1719 ZM3.0625 -2.4375 Q2.9531 -1.9375 2.9219 -1.7109 Q2.8906 -1.4844 2.8906 -1.3281 Q2.8906 -1.0312 2.9922 -0.8672 Q3.0938 -0.7031 3.2969 -0.6172 Q3.5 -0.5312 3.9688 -0.4844 L3.875 0 L0.8438 0 L2.3281 -6.5781 Q2.4531 -7.1562 2.5 -7.4922 Q2.5469 -7.8281 2.5469 -8.0469 Q2.5469 -8.3281 2.4688 -8.4844 Q2.3906 -8.6406 2.1953 -8.7188 Q2 -8.7969 1.5156 -8.8125 L1.625 -9.3438 L4 -9.4219 L4.5781 -9.4219 L3.0625 -2.4375 Z" stroke="none"/></g><g text-rendering="optimizeLegibility" transform="translate(78.4043,47.3067)" color-rendering="optimizeQuality" color-interpolation="linearRGB" image-rendering="optimizeQuality"><path d="M9.2031 0 L6.1406 0 L7.375 -4.9688 Q7.4844 -5.4375 7.6016 -6.0156 Q7.7188 -6.5938 7.7188 -7.0469 Q7.7188 -7.75 7.4766 -8.0469 Q7.2344 -8.3438 6.7344 -8.3438 Q6.3125 -8.3438 5.8438 -8.0312 Q5.375 -7.7188 4.8594 -7.0859 Q4.3438 -6.4531 3.9844 -5.8047 Q3.625 -5.1562 3.4219 -4.2344 L2.5469 0 L0.8438 0 L2.3281 -6.6719 Q2.3906 -6.8906 2.4688 -7.3359 Q2.5469 -7.7812 2.5469 -8.0625 Q2.5469 -8.3438 2.4688 -8.4922 Q2.3906 -8.6406 2.1875 -8.7188 Q1.9844 -8.7969 1.5 -8.8125 L1.625 -9.3438 L3.8438 -9.4219 L4.3906 -9.4219 L3.7344 -6.8906 L3.8594 -6.8438 Q4.8125 -8.1875 5.7031 -8.8438 Q6.5938 -9.5 7.4844 -9.5 Q8.4219 -9.5 8.9141 -8.9766 Q9.4062 -8.4531 9.4062 -7.4219 Q9.4062 -7.0781 9.3438 -6.6562 Q9.2812 -6.2344 9.2031 -5.9219 L8.375 -2.4375 Q8.2188 -1.7344 8.2188 -1.3281 Q8.2188 -1.0312 8.3125 -0.8672 Q8.4062 -0.7031 8.6094 -0.6172 Q8.8125 -0.5312 9.2812 -0.4844 L9.2031 0 Z" stroke="none"/></g><g text-rendering="optimizeLegibility" transform="translate(87.8106,47.3067)" color-rendering="optimizeQuality" color-interpolation="linearRGB" image-rendering="optimizeQuality"><path d="M9.1094 0 L6.0469 0 L7.2812 -4.9688 Q7.4062 -5.5 7.5156 -6.0547 Q7.625 -6.6094 7.625 -7.0469 Q7.625 -7.75 7.3906 -8.0469 Q7.1562 -8.3438 6.5938 -8.3438 Q6.1875 -8.3438 5.7031 -8.0156 Q5.2188 -7.6875 4.6875 -7.0078 Q4.1562 -6.3281 3.8359 -5.7109 Q3.5156 -5.0938 3.3281 -4.2344 L2.4375 0 L0.75 0 L3.2656 -11.1562 Q3.375 -11.6562 3.4141 -11.875 Q3.4531 -12.0938 3.4766 -12.2812 Q3.5 -12.4688 3.5 -12.6094 Q3.5 -13.0156 3.25 -13.1797 Q3 -13.3438 2.3594 -13.375 L2.4688 -13.875 L4.9375 -13.9688 L5.5156 -13.9688 L3.8281 -7.2031 L3.9531 -7.1562 Q4.8594 -8.375 5.6953 -8.9375 Q6.5312 -9.5 7.3906 -9.5 Q8.3281 -9.5 8.8203 -8.9766 Q9.3125 -8.4531 9.3125 -7.4219 Q9.3125 -6.7969 9.1094 -5.9219 L8.2969 -2.4375 Q8.1875 -2.0156 8.1484 -1.7656 Q8.1094 -1.5156 8.1094 -1.3281 Q8.1094 -1.0312 8.2188 -0.8594 Q8.3281 -0.6875 8.5312 -0.6094 Q8.7344 -0.5312 9.2031 -0.4844 L9.1094 0 Z" stroke="none"/></g><g text-rendering="optimizeLegibility" transform="translate(97.3575,47.3067)" color-rendering="optimizeQuality" color-interpolation="linearRGB" image-rendering="optimizeQuality"><path d="M7.2188 4.25 Q5.5625 4.25 4.5078 3.75 Q3.4531 3.25 2.8672 2.2344 Q2.2812 1.2188 2.0234 -0.4141 Q1.7656 -2.0469 1.7656 -4.8438 Q1.7656 -7.625 2.0234 -9.2656 Q2.2812 -10.9062 2.8672 -11.9453 Q3.4531 -12.9844 4.5078 -13.5 Q5.5625 -14.0156 7.2188 -14.0156 L7.2188 -13.2188 Q6.5312 -13.2188 6 -13.0938 Q5.4062 -12.9531 4.9844 -12.5625 Q4.5156 -12.1406 4.2344 -11.375 Q3.8906 -10.4688 3.7188 -8.9844 Q3.5469 -7.4062 3.5469 -4.9219 Q3.5469 -2.7188 3.6953 -1.1797 Q3.8438 0.3594 4.1875 1.3281 Q4.4531 2.1562 4.8594 2.6094 Q5.2188 3.0156 5.7188 3.2188 Q6.2969 3.4531 7.2188 3.4531 L7.2188 4.25 Z" stroke="none"/></g><g text-rendering="optimizeLegibility" transform="translate(106.5762,47.3067)" color-rendering="optimizeQuality" color-interpolation="linearRGB" image-rendering="optimizeQuality"><path d="M3.5938 -5.4375 L3.9062 -5.4375 Q4.2031 -5.4375 4.5547 -5.5547 Q4.9062 -5.6719 5.3125 -5.9219 Q5.7188 -6.1719 6.3906 -6.7031 Q6.8906 -7.125 7.1406 -7.4141 Q7.3906 -7.7031 7.4766 -7.9141 Q7.5625 -8.125 7.5625 -8.3281 Q7.5625 -8.7969 6.8906 -8.8594 L7 -9.3438 L10.1719 -9.3438 L10.3594 -8.8594 Q9.5469 -8.125 8.6406 -7.4219 L6.1562 -5.5 L7.625 -1.7969 Q7.8281 -1.2969 8.0312 -1.0312 Q8.2344 -0.7656 8.5 -0.6406 Q8.7656 -0.5156 9.1875 -0.4844 L9.0781 0 L6.4688 0 L5.0469 -4.0156 Q4.9062 -4.3906 4.8125 -4.5312 Q4.7188 -4.6719 4.5938 -4.7266 Q4.4688 -4.7812 4.1875 -4.7812 L3.4531 -4.7812 L2.4375 0 L0.75 0 L3.2656 -11.1562 Q3.375 -11.6562 3.4141 -11.875 Q3.4531 -12.0938 3.4766 -12.2812 Q3.5 -12.4688 3.5 -12.6094 Q3.5 -13.0156 3.25 -13.1797 Q3 -13.3438 2.3594 -13.375 L2.4688 -13.875 L4.9375 -13.9688 L5.5156 -13.9688 L3.5938 -5.4375 Z" stroke="none"/></g><g text-rendering="optimizeLegibility" transform="translate(116.9356,51.9161)" color-rendering="optimizeQuality" color-interpolation="linearRGB" image-rendering="optimizeQuality"><path d="M3.8281 -9.2188 L3.5156 -7.8906 L2.2969 -7.8906 L2.625 -9.2188 L3.8281 -9.2188 ZM2.1406 -1.7031 Q2.0625 -1.3594 2.0469 -1.2031 Q2.0312 -1.0469 2.0312 -0.9375 Q2.0312 -0.7188 2.0938 -0.6094 Q2.1562 -0.5 2.3047 -0.4375 Q2.4531 -0.375 2.7812 -0.3281 L2.7188 0 L0.5938 0 L1.625 -4.6094 Q1.7188 -5 1.75 -5.2344 Q1.7812 -5.4688 1.7812 -5.6406 Q1.7812 -5.8281 1.7266 -5.9375 Q1.6719 -6.0469 1.5312 -6.1016 Q1.3906 -6.1562 1.0625 -6.1719 L1.1406 -6.5312 L2.7969 -6.5938 L3.2031 -6.5938 L2.1406 -1.7031 Z" stroke="none"/></g><g text-rendering="optimizeLegibility" transform="translate(120.7637,47.3067)" color-rendering="optimizeQuality" color-interpolation="linearRGB" image-rendering="optimizeQuality"><path d="M8.5 -11.2188 Q8.5781 -11.5312 8.6328 -11.9219 Q8.6875 -12.3125 8.6875 -12.6094 Q8.6875 -12.9062 8.5859 -13.0547 Q8.4844 -13.2031 8.2812 -13.2734 Q8.0781 -13.3438 7.5625 -13.375 L7.6719 -13.875 L10.125 -13.9688 L10.7031 -13.9688 L8.1719 -2.7188 Q8.0312 -2.0938 7.9844 -1.7969 Q7.9375 -1.5 7.9375 -1.2969 Q7.9375 -0.8906 8.1641 -0.7109 Q8.3906 -0.5312 9.0312 -0.4844 L8.9375 0 L6.1406 0 L6.7656 -2.4531 L6.625 -2.4844 Q5.6875 -1.125 4.8516 -0.4922 Q4.0156 0.1406 3.0781 0.1406 Q2 0.1406 1.4141 -0.6641 Q0.8281 -1.4688 0.8281 -2.9375 Q0.8281 -3.875 1.0391 -4.8203 Q1.25 -5.7656 1.6875 -6.6094 Q2.125 -7.4531 2.7266 -8.0938 Q3.3281 -8.7344 4.125 -9.1172 Q4.9219 -9.5 5.8594 -9.5 Q6.4531 -9.5 6.9609 -9.3828 Q7.4688 -9.2656 7.9844 -8.9531 L8.5 -11.2188 ZM7.2812 -5.9531 Q7.4375 -6.6562 7.4375 -7.2812 Q7.4375 -8.0312 7.1094 -8.3828 Q6.7812 -8.7344 6.0312 -8.7344 Q5.625 -8.7344 5.2578 -8.6016 Q4.8906 -8.4688 4.5078 -8.1641 Q4.125 -7.8594 3.7734 -7.3594 Q3.4219 -6.8594 3.1406 -6.1484 Q2.8594 -5.4375 2.7031 -4.6172 Q2.5469 -3.7969 2.5469 -3.0312 Q2.5469 -2.0156 2.8281 -1.5078 Q3.1094 -1 3.7656 -1 Q4.0625 -1 4.3906 -1.1406 Q4.7188 -1.2812 5.1172 -1.6484 Q5.5156 -2.0156 6.0312 -2.7188 Q6.4844 -3.375 6.75 -4.0156 Q7.0156 -4.6562 7.2031 -5.5312 L7.2812 -5.9531 Z" stroke="none"/></g><g text-rendering="optimizeLegibility" transform="translate(133.045,47.3067)" color-rendering="optimizeQuality" color-interpolation="linearRGB" image-rendering="optimizeQuality"><path d="M0.4219 -14.0156 Q2.0781 -14.0156 3.1328 -13.5156 Q4.1875 -13.0156 4.7734 -12 Q5.3594 -10.9844 5.6172 -9.3516 Q5.875 -7.7188 5.875 -4.9219 Q5.875 -2.1562 5.6172 -0.5078 Q5.3594 1.1406 4.7734 2.1797 Q4.1875 3.2188 3.1328 3.7344 Q2.0781 4.25 0.4219 4.25 L0.4219 3.4531 Q1.1094 3.4531 1.625 3.3281 Q2.2344 3.1875 2.6406 2.7969 Q3.1094 2.375 3.4062 1.6094 Q3.75 0.7031 3.9219 -0.7812 Q4.0938 -2.3594 4.0938 -4.8438 Q4.0938 -7.0469 3.9453 -8.5859 Q3.7969 -10.125 3.4531 -11.0938 Q3.1875 -11.9219 2.7812 -12.375 Q2.4062 -12.7812 1.9219 -12.9844 Q1.3438 -13.2188 0.4219 -13.2188 L0.4219 -14.0156 Z" stroke="none"/></g><g text-rendering="optimizeLegibility" stroke-width="1.6667" color-interpolation="linearRGB" color-rendering="optimizeQuality" image-rendering="optimizeQuality"><line y2="30.78" fill="none" x1="153.7625" x2="175.1531" y1="30.78"/><path d="M6.8594 -1.5625 Q7.3281 -1.5625 7.625 -1.625 Q7.9219 -1.6875 8.0938 -1.8203 Q8.2656 -1.9531 8.375 -2.1719 Q8.4844 -2.3906 8.6406 -2.8594 L9.4688 -2.8594 L9.2969 0 L1.2656 0 L1.2656 -0.4688 Q1.6875 -1.5 2.3984 -2.5703 Q3.1094 -3.6406 4.4219 -5.0938 Q5.5469 -6.3438 6.0469 -7 Q6.5938 -7.7031 6.8594 -8.2109 Q7.125 -8.7188 7.2422 -9.1719 Q7.3594 -9.625 7.3594 -10.0938 Q7.3594 -10.8281 7.125 -11.3828 Q6.8906 -11.9375 6.4062 -12.2656 Q5.9219 -12.5938 5.2031 -12.5938 Q3.375 -12.5938 2.7344 -10.5625 L1.5469 -10.5625 L1.5469 -12.4375 Q2.7344 -12.9844 3.7656 -13.2344 Q4.7969 -13.4844 5.6094 -13.4844 Q7.4375 -13.4844 8.3594 -12.6875 Q9.2812 -11.8906 9.2812 -10.375 Q9.2812 -9.8594 9.1797 -9.4297 Q9.0781 -9 8.8594 -8.5703 Q8.6406 -8.1406 8.2734 -7.6562 Q7.9062 -7.1719 7.4531 -6.6641 Q7 -6.1562 5.9062 -4.9844 Q4.0469 -3.0312 3.1719 -1.5625 L6.8594 -1.5625 Z" stroke-width="1" transform="translate(153.7625,28.1126)" stroke="none"/></g><g text-rendering="optimizeLegibility" transform="translate(163.2312,28.1126)" color-rendering="optimizeQuality" color-interpolation="linearRGB" image-rendering="optimizeQuality"><path d="M11.6562 -8.1094 L9.4219 -8.1094 L8.0625 -2.0938 Q7.9844 -1.7969 7.9844 -1.5781 Q7.9844 -0.875 8.5625 -0.875 Q9 -0.875 9.7188 -1.6094 L10.0781 -1.1094 Q8.9219 0.1562 7.7812 0.1562 Q6.3906 0.1562 6.3906 -1.3281 Q6.3906 -1.7969 6.5312 -2.3281 L7.8281 -8.1094 L4.9844 -8.1094 L3.1719 0 L1.1875 0 L1.2812 -0.4844 Q2.1094 -1.2656 3.0625 -5.2812 L3.7188 -8.1094 L3.6094 -8.1094 Q1.8594 -8.1094 0.9375 -6.9062 L0.4844 -7.4219 Q1.8594 -9.3438 4 -9.3438 L11.9219 -9.3438 L11.6562 -8.1094 Z" stroke="none"/></g><g text-rendering="optimizeLegibility" transform="translate(157.7312,42.6349)" color-rendering="optimizeQuality" color-interpolation="linearRGB" image-rendering="optimizeQuality"><path d="M9.375 -8.1094 L5.9219 -8.1094 L4.7031 -2.5156 Q4.5938 -1.9844 4.5938 -1.7344 Q4.5938 -0.875 5.4375 -0.875 Q6.1562 -0.875 6.9531 -1.4375 L7.2812 -0.875 Q6 0.1562 4.7031 0.1562 Q2.9531 0.1562 2.9531 -1.4375 Q2.9531 -1.9531 3.0781 -2.4062 L4.3438 -8.1094 L3.7188 -8.1094 Q2.375 -8.1094 1.1875 -6.9062 L0.6875 -7.4219 Q2.1562 -9.3438 4.1719 -9.3438 L9.625 -9.3438 L9.375 -8.1094 Z" stroke="none"/></g><g text-rendering="optimizeLegibility" transform="translate(167.3562,47.4005)" color-rendering="optimizeQuality" color-interpolation="linearRGB" image-rendering="optimizeQuality"><path d="M3.8281 -9.2188 L3.5156 -7.8906 L2.2969 -7.8906 L2.625 -9.2188 L3.8281 -9.2188 ZM2.1406 -1.7031 Q2.0625 -1.3594 2.0469 -1.2031 Q2.0312 -1.0469 2.0312 -0.9375 Q2.0312 -0.7188 2.0938 -0.6094 Q2.1562 -0.5 2.3047 -0.4375 Q2.4531 -0.375 2.7812 -0.3281 L2.7188 0 L0.5938 0 L1.625 -4.6094 Q1.7188 -5 1.75 -5.2344 Q1.7812 -5.4688 1.7812 -5.6406 Q1.7812 -5.8281 1.7266 -5.9375 Q1.6719 -6.0469 1.5312 -6.1016 Q1.3906 -6.1562 1.0625 -6.1719 L1.1406 -6.5312 L2.7969 -6.5938 L3.2031 -6.5938 L2.1406 -1.7031 Z" stroke="none"/></g><g text-rendering="optimizeLegibility" transform="translate(178.4976,38)" color-rendering="optimizeQuality" color-interpolation="linearRGB" image-rendering="optimizeQuality"><path d="M7.0781 4.2188 L5.4844 4.2188 L7.625 -5.4844 Q7.8438 -6.5 7.8438 -7.125 Q7.8438 -8.3438 6.8125 -8.3438 Q6 -8.3438 4.9531 -7.0938 Q3.9062 -5.8438 3.6562 -4.7344 L2.5781 0 L0.9844 0 L2.5469 -7.125 Q2.6562 -7.6562 2.6562 -8 Q2.6562 -8.5625 2.2344 -8.5625 Q1.7969 -8.5625 1.2812 -7.9219 L0.9844 -8.4062 Q1.7031 -9.1562 2.0938 -9.3281 Q2.4844 -9.5 3 -9.5 Q4.1094 -9.5 4.1094 -8.25 Q4.1094 -7.7344 3.8594 -6.9062 L3.9844 -6.8438 Q5.875 -9.5 7.6406 -9.5 Q9.5156 -9.5 9.5156 -7.4375 Q9.5156 -6.7656 9.2969 -5.8281 L7.0781 4.2188 Z" stroke="none"/></g><g text-rendering="optimizeLegibility" transform="translate(188.0132,46.8281)" color-rendering="optimizeQuality" color-interpolation="linearRGB" image-rendering="optimizeQuality"><path d="M3.8281 -9.2188 L3.5156 -7.8906 L2.2969 -7.8906 L2.625 -9.2188 L3.8281 -9.2188 ZM2.1406 -1.7031 Q2.0625 -1.3594 2.0469 -1.2031 Q2.0312 -1.0469 2.0312 -0.9375 Q2.0312 -0.7188 2.0938 -0.6094 Q2.1562 -0.5 2.3047 -0.4375 Q2.4531 -0.375 2.7812 -0.3281 L2.7188 0 L0.5938 0 L1.625 -4.6094 Q1.7188 -5 1.75 -5.2344 Q1.7812 -5.4688 1.7812 -5.6406 Q1.7812 -5.8281 1.7266 -5.9375 Q1.6719 -6.0469 1.5312 -6.1016 Q1.3906 -6.1562 1.0625 -6.1719 L1.1406 -6.5312 L2.7969 -6.5938 L3.2031 -6.5938 L2.1406 -1.7031 Z" stroke="none"/></g><g text-rendering="optimizeLegibility" transform="translate(192.6226,38)" color-rendering="optimizeQuality" color-interpolation="linearRGB" image-rendering="optimizeQuality"><path d="M6.25 -5.0469 L6.25 -1.3438 L4.8125 -1.3438 L4.8125 -5.0469 L1.2188 -5.0469 L1.2188 -6.3906 L4.8125 -6.3906 L4.8125 -10.0938 L6.25 -10.0938 L6.25 -6.3906 L9.8594 -6.3906 L9.8594 -5.0469 L6.25 -5.0469 Z" stroke="none"/></g><g text-rendering="optimizeLegibility" transform="translate(204.8647,38)" color-rendering="optimizeQuality" color-interpolation="linearRGB" image-rendering="optimizeQuality"><path d="M9.125 -9.3438 L9.3906 -8.8438 Q9.0312 -7.9844 8.8359 -7.5625 Q8.6406 -7.1406 8.3125 -6.5078 Q7.9844 -5.875 7.5781 -5.1875 Q7.1719 -4.5 6.6562 -3.7031 Q6.1406 -2.9062 5.4844 -1.9609 Q4.8281 -1.0156 3.9375 0.1562 L2.7188 0.1562 L1.8125 -7.2188 Q1.7188 -7.9375 1.6172 -8.2422 Q1.5156 -8.5469 1.3203 -8.6875 Q1.125 -8.8281 0.7031 -8.8594 L0.8125 -9.3438 L3.3281 -9.3438 L4.0625 -1.5781 Q5.75 -3.8906 6.5547 -5.4688 Q7.3594 -7.0469 7.3594 -8.0312 Q7.3594 -8.5 7.1641 -8.6641 Q6.9688 -8.8281 6.5 -8.8594 L6.6094 -9.3438 L9.125 -9.3438 Z" stroke="none"/></g><g text-rendering="optimizeLegibility" transform="translate(203.7007,28.8281)" color-rendering="optimizeQuality" color-interpolation="linearRGB" image-rendering="optimizeQuality"><path d="M0.7812 -4.4531 L9.4219 -4.4531 L7.8594 -6.4531 L8.2656 -6.8281 L10.9375 -4.2188 L10.9375 -3.7812 L8.2656 -1.1719 L7.8594 -1.5469 L9.4219 -3.5469 L0.7812 -3.5469 L0.7812 -4.4531 Z" stroke="none"/></g><g text-rendering="optimizeLegibility" transform="translate(214.6382,42.8203)" color-rendering="optimizeQuality" color-interpolation="linearRGB" image-rendering="optimizeQuality"><path d="M4.6719 -9.3281 Q5.7031 -9.3281 6.3438 -9.1719 Q6.9844 -9.0156 7.5391 -8.6094 Q8.0938 -8.2031 8.375 -7.5234 Q8.6562 -6.8438 8.6562 -5.9062 Q8.6562 -4.9844 8.4453 -4.1406 Q8.2344 -3.2969 7.8359 -2.5938 Q7.4375 -1.8906 6.8906 -1.3672 Q6.3438 -0.8438 5.8203 -0.5625 Q5.2969 -0.2812 4.6562 -0.1406 Q4.0156 0 3.1562 0 L0.2812 0 L0.3594 -0.3281 Q0.625 -0.375 0.75 -0.4688 Q0.875 -0.5625 0.9688 -0.7266 Q1.0625 -0.8906 1.1328 -1.125 Q1.2031 -1.3594 1.3594 -2.0312 L2.5156 -7.2969 Q2.5938 -7.6094 2.6328 -7.9062 Q2.6719 -8.2031 2.6719 -8.4062 Q2.6719 -8.7188 2.5078 -8.8438 Q2.3438 -8.9688 2 -9 L2.0781 -9.3281 L4.6719 -9.3281 ZM2.2656 -0.625 Q2.4688 -0.6094 3.0312 -0.6094 Q3.7188 -0.6094 4.2812 -0.7578 Q4.8438 -0.9062 5.3203 -1.2422 Q5.7969 -1.5781 6.1875 -2.1328 Q6.5781 -2.6875 6.8203 -3.2578 Q7.0625 -3.8281 7.1953 -4.4844 Q7.3281 -5.1406 7.3281 -5.8594 Q7.3281 -7.2969 6.6641 -8.0156 Q6 -8.7344 4.6875 -8.7344 Q4.3906 -8.7344 4.0469 -8.7188 L2.2656 -0.625 Z" stroke="none"/></g></g></svg>