<?xml version="1.0" encoding="UTF-8" standalone="no"?><svg xmlns="http://www.w3.org/2000/svg" xmlns:xlink="http://www.w3.org/1999/xlink" stroke-dasharray="none" shape-rendering="auto" font-family="'Dialog'" width="120.812600" text-rendering="auto" fill-opacity="1" contentScriptType="text/ecmascript" color-interpolation="auto" color-rendering="auto" preserveAspectRatio="xMidYMid meet" font-size="12" fill="black" stroke="black" image-rendering="auto" stroke-miterlimit="10" zoomAndPan="magnify" version="1.0" stroke-linecap="square" stroke-linejoin="miter" contentStyleType="text/css" font-style="normal" height="23" stroke-width="1" stroke-dashoffset="0" font-weight="normal" stroke-opacity="1" y="-8.000000"><!--Converted from MathML using JEuclid--><defs id="genericDefs"/><g><g text-rendering="optimizeLegibility" transform="translate(0,15)" color-rendering="optimizeQuality" color-interpolation="linearRGB" image-rendering="optimizeQuality"><path d="M6.5 -2.2656 Q5.625 -1.0312 4.7891 -0.4453 Q3.9531 0.1406 3.0938 0.1406 Q2.0156 0.1406 1.4219 -0.6641 Q0.8281 -1.4688 0.8281 -2.9375 Q0.8281 -3.875 1.0469 -4.8203 Q1.2656 -5.7656 1.6953 -6.6094 Q2.125 -7.4531 2.7344 -8.0938 Q3.3438 -8.7344 4.1406 -9.1172 Q4.9375 -9.5 5.875 -9.5 Q6.4688 -9.5 7.0156 -9.3594 Q7.5625 -9.2188 8.1562 -8.8594 L9.0469 -9.5 L9.6719 -9.3438 L7.1719 1.7656 Q7.0156 2.5 7.0156 2.875 Q7.0156 3.1719 7.1094 3.3359 Q7.2031 3.5 7.4141 3.5859 Q7.625 3.6719 8.0938 3.7188 L8.0156 4.2031 L4.9688 4.2031 L6.6406 -2.2031 L6.5 -2.2656 ZM7.2969 -5.9531 Q7.3906 -6.375 7.4141 -6.6875 Q7.4375 -7 7.4375 -7.2812 Q7.4375 -8.0312 7.1172 -8.3828 Q6.7969 -8.7344 6.0469 -8.7344 Q5.6406 -8.7344 5.2656 -8.6016 Q4.8906 -8.4688 4.5078 -8.1641 Q4.125 -7.8594 3.7812 -7.3594 Q3.4375 -6.8594 3.1562 -6.1484 Q2.875 -5.4375 2.7188 -4.6172 Q2.5625 -3.7969 2.5625 -3.0312 Q2.5625 -2.0156 2.8359 -1.5078 Q3.1094 -1 3.7656 -1 Q4.0781 -1 4.4062 -1.1406 Q4.7344 -1.2812 5.1328 -1.6484 Q5.5312 -2.0156 6.0312 -2.7188 Q6.5 -3.375 6.7656 -4.0156 Q7.0312 -4.6562 7.2031 -5.5312 L7.2969 -5.9531 Z" stroke="none"/></g><g text-rendering="optimizeLegibility" transform="translate(9.6719,22.4688)" color-rendering="optimizeQuality" color-interpolation="linearRGB" image-rendering="optimizeQuality"><path d="M5.0312 -4.8906 Q5.0156 -5.4219 4.9453 -5.6484 Q4.875 -5.875 4.7109 -5.9922 Q4.5469 -6.1094 4.25 -6.1094 Q3.5625 -6.1094 3.0156 -5.5625 Q2.4688 -5.0156 2.1172 -4.0078 Q1.7656 -3 1.7656 -2.0625 Q1.7656 -1.7812 1.8125 -1.5234 Q1.8594 -1.2656 1.9922 -1.0859 Q2.125 -0.9062 2.3281 -0.7969 Q2.5312 -0.6875 2.8594 -0.6875 Q3.4844 -0.6875 3.9375 -0.9219 Q4.3906 -1.1562 4.8906 -1.6719 L5.3125 -1.25 Q4.6719 -0.5469 4.0156 -0.2188 Q3.3594 0.1094 2.6094 0.1094 Q1.625 0.1094 1.1094 -0.4766 Q0.5938 -1.0625 0.5938 -2.1875 Q0.5938 -2.9062 0.8672 -3.7812 Q1.1406 -4.6562 1.6641 -5.3203 Q2.1875 -5.9844 2.8984 -6.3125 Q3.6094 -6.6406 4.4062 -6.6406 Q4.9531 -6.6406 5.3594 -6.5781 Q5.7656 -6.5156 6.0781 -6.4375 L5.75 -4.8906 L5.0312 -4.8906 Z" stroke="none"/></g><g text-rendering="optimizeLegibility" transform="translate(16.5312,15)" color-rendering="optimizeQuality" color-interpolation="linearRGB" image-rendering="optimizeQuality"><path d="M1.2188 -7.0625 L1.2188 -8.4219 L9.8594 -8.4219 L9.8594 -7.0625 L1.2188 -7.0625 ZM1.2188 -3.0156 L1.2188 -4.3594 L9.8594 -4.3594 L9.8594 -3.0156 L1.2188 -3.0156 Z" stroke="none"/></g><g text-rendering="optimizeLegibility" transform="translate(28.3906,15)" color-rendering="optimizeQuality" color-interpolation="linearRGB" image-rendering="optimizeQuality"><path d="M4.6562 -7.3125 L4.9688 -7.3125 Q5.375 -7.3125 5.7188 -7.4453 Q6.0625 -7.5781 6.5078 -7.9375 Q6.9531 -8.2969 7.9375 -9.2656 Q8.9219 -10.2344 9.3359 -10.7344 Q9.75 -11.2344 9.9375 -11.6016 Q10.125 -11.9688 10.125 -12.2812 Q10.125 -12.5156 9.9297 -12.6719 Q9.7344 -12.8281 9.375 -12.8594 L9.4844 -13.3281 L13.6719 -13.3281 L13.5625 -12.8594 Q13.1719 -12.7969 12.6797 -12.4453 Q12.1875 -12.0938 11.1719 -11.0938 L7.3906 -7.4062 L9.4688 -2.4062 Q9.7344 -1.7656 9.8906 -1.4688 Q10.0469 -1.1719 10.2344 -0.9688 Q10.4219 -0.7656 10.6562 -0.6484 Q10.8906 -0.5312 11.2188 -0.4844 L11.1094 0 L7.3438 0 L7.4531 -0.4844 Q7.9844 -0.5312 7.9844 -0.9531 Q7.9844 -1.0781 7.9609 -1.2109 Q7.9375 -1.3438 7.8516 -1.6094 Q7.7656 -1.875 7.625 -2.25 L6.3438 -5.3594 Q6.125 -5.9062 5.9609 -6.1328 Q5.7969 -6.3594 5.6094 -6.4453 Q5.4219 -6.5312 5.0312 -6.5312 L4.4844 -6.5312 L3.6719 -2.8438 Q3.5469 -2.25 3.5078 -1.9141 Q3.4688 -1.5781 3.4688 -1.3125 Q3.4688 -0.875 3.6875 -0.6953 Q3.9062 -0.5156 4.4219 -0.4844 L4.3125 0 L0.4062 0 L0.5156 -0.4844 Q0.8906 -0.5312 1.0781 -0.6641 Q1.2656 -0.7969 1.3906 -1.0312 Q1.5156 -1.2656 1.625 -1.6016 Q1.7344 -1.9375 1.9375 -2.9062 L3.6094 -10.4375 Q3.7031 -10.875 3.7578 -11.2891 Q3.8125 -11.7031 3.8125 -12 Q3.8125 -12.4688 3.5781 -12.6484 Q3.3438 -12.8281 2.8594 -12.8594 L2.9688 -13.3281 L6.875 -13.3281 L6.7656 -12.8594 Q6.3906 -12.7812 6.2344 -12.6797 Q6.0781 -12.5781 5.9453 -12.3828 Q5.8125 -12.1875 5.6797 -11.7734 Q5.5469 -11.3594 5.3438 -10.4219 L4.6562 -7.3125 Z" stroke="none"/></g><g text-rendering="optimizeLegibility" transform="translate(42.0625,18.2656)" color-rendering="optimizeQuality" color-interpolation="linearRGB" image-rendering="optimizeQuality"><path d="M5.0312 -4.8906 Q5.0156 -5.4219 4.9453 -5.6484 Q4.875 -5.875 4.7109 -5.9922 Q4.5469 -6.1094 4.25 -6.1094 Q3.5625 -6.1094 3.0156 -5.5625 Q2.4688 -5.0156 2.1172 -4.0078 Q1.7656 -3 1.7656 -2.0625 Q1.7656 -1.7812 1.8125 -1.5234 Q1.8594 -1.2656 1.9922 -1.0859 Q2.125 -0.9062 2.3281 -0.7969 Q2.5312 -0.6875 2.8594 -0.6875 Q3.4844 -0.6875 3.9375 -0.9219 Q4.3906 -1.1562 4.8906 -1.6719 L5.3125 -1.25 Q4.6719 -0.5469 4.0156 -0.2188 Q3.3594 0.1094 2.6094 0.1094 Q1.625 0.1094 1.1094 -0.4766 Q0.5938 -1.0625 0.5938 -2.1875 Q0.5938 -2.9062 0.8672 -3.7812 Q1.1406 -4.6562 1.6641 -5.3203 Q2.1875 -5.9844 2.8984 -6.3125 Q3.6094 -6.6406 4.4062 -6.6406 Q4.9531 -6.6406 5.3594 -6.5781 Q5.7656 -6.5156 6.0781 -6.4375 L5.75 -4.8906 L5.0312 -4.8906 Z" stroke="none"/></g><g text-rendering="optimizeLegibility" transform="translate(48.375,15)" color-rendering="optimizeQuality" color-interpolation="linearRGB" image-rendering="optimizeQuality"><path d="M7.2188 4.25 Q5.5625 4.25 4.5078 3.75 Q3.4531 3.25 2.8672 2.2344 Q2.2812 1.2188 2.0234 -0.4141 Q1.7656 -2.0469 1.7656 -4.8438 Q1.7656 -7.625 2.0234 -9.2656 Q2.2812 -10.9062 2.8672 -11.9453 Q3.4531 -12.9844 4.5078 -13.5 Q5.5625 -14.0156 7.2188 -14.0156 L7.2188 -13.2188 Q6.5312 -13.2188 6 -13.0938 Q5.4062 -12.9531 4.9844 -12.5625 Q4.5156 -12.1406 4.2344 -11.375 Q3.8906 -10.4688 3.7188 -8.9844 Q3.5469 -7.4062 3.5469 -4.9219 Q3.5469 -2.7188 3.6953 -1.1797 Q3.8438 0.3594 4.1875 1.3281 Q4.4531 2.1562 4.8594 2.6094 Q5.2188 3.0156 5.7188 3.2188 Q6.2969 3.4531 7.2188 3.4531 L7.2188 4.25 Z" stroke="none"/></g><g text-rendering="optimizeLegibility" transform="translate(57.5938,15)" color-rendering="optimizeQuality" color-interpolation="linearRGB" image-rendering="optimizeQuality"><path d="M11.5625 -12.9844 L10.9844 -10.3438 L10.0469 -10.3438 Q9.9688 -11.5469 9.5234 -12.0781 Q9.0781 -12.6094 8.0938 -12.6094 Q7.2656 -12.6094 6.5469 -12.125 Q5.8281 -11.6406 5.1797 -10.7266 Q4.5312 -9.8125 4.0547 -8.5859 Q3.5781 -7.3594 3.3203 -6.0859 Q3.0625 -4.8125 3.0625 -3.7969 Q3.0625 -2.2031 3.5859 -1.4531 Q4.1094 -0.7031 5.2188 -0.7031 Q5.9531 -0.7031 6.5 -0.9219 Q7.0469 -1.1406 7.5312 -1.6641 Q8.0156 -2.1875 8.4844 -3.125 L9.4219 -3.125 L8.8125 -0.3594 Q7.8281 -0.0781 6.8984 0.0391 Q5.9688 0.1562 4.9844 0.1562 Q3.7812 0.1562 2.9297 -0.3438 Q2.0781 -0.8438 1.6484 -1.7969 Q1.2188 -2.75 1.2188 -4.0938 Q1.2188 -4.7969 1.3125 -5.4531 Q1.4375 -6.2812 1.6875 -7.25 Q2.0156 -8.4531 2.5 -9.4375 Q3.0312 -10.4844 3.7031 -11.2812 Q4.3438 -12.0156 5.0781 -12.5156 Q5.7656 -12.9844 6.5547 -13.2344 Q7.3438 -13.4844 8.2344 -13.4844 Q9.125 -13.4844 9.8828 -13.375 Q10.6406 -13.2656 11.5625 -12.9844 Z" stroke="none"/></g><g text-rendering="optimizeLegibility" transform="translate(69.1562,19.2109)" color-rendering="optimizeQuality" color-interpolation="linearRGB" image-rendering="optimizeQuality"><path d="M4.6094 -1.2656 Q4.0469 -0.5781 3.5 -0.2344 Q2.9531 0.1094 2.3438 0.1094 Q1.625 0.1094 1.2656 -0.2578 Q0.9062 -0.625 0.9062 -1.3281 Q0.9062 -1.7656 1.0312 -2.2969 L1.875 -5.8438 L0.8594 -5.8438 L0.9375 -6.1875 Q1.3438 -6.2344 1.5781 -6.3672 Q1.8125 -6.5 1.9766 -6.7031 Q2.1406 -6.9062 2.2734 -7.2422 Q2.4062 -7.5781 2.6094 -8.2188 L3.5625 -8.2188 L3.1719 -6.5312 L5.3438 -6.5312 L5.2031 -5.8438 L3.0156 -5.8438 L2.3594 -3.1875 Q2.0938 -2.0781 2.0938 -1.5312 Q2.0938 -1.125 2.2734 -0.9062 Q2.4531 -0.6875 2.7969 -0.6875 Q3.125 -0.6875 3.4688 -0.9297 Q3.8125 -1.1719 4.2188 -1.6719 L4.6094 -1.2656 Z" stroke="none"/></g><g text-rendering="optimizeLegibility" transform="translate(75.2656,15)" color-rendering="optimizeQuality" color-interpolation="linearRGB" image-rendering="optimizeQuality"><path d="M1.2344 -5.0469 L1.2344 -6.3906 L9.8281 -6.3906 L9.8281 -5.0469 L1.2344 -5.0469 Z" stroke="none"/></g><g text-rendering="optimizeLegibility" transform="translate(87.0938,15)" color-rendering="optimizeQuality" color-interpolation="linearRGB" image-rendering="optimizeQuality"><path d="M11.5625 -12.9844 L10.9844 -10.3438 L10.0469 -10.3438 Q9.9688 -11.5469 9.5234 -12.0781 Q9.0781 -12.6094 8.0938 -12.6094 Q7.2656 -12.6094 6.5469 -12.125 Q5.8281 -11.6406 5.1797 -10.7266 Q4.5312 -9.8125 4.0547 -8.5859 Q3.5781 -7.3594 3.3203 -6.0859 Q3.0625 -4.8125 3.0625 -3.7969 Q3.0625 -2.2031 3.5859 -1.4531 Q4.1094 -0.7031 5.2188 -0.7031 Q5.9531 -0.7031 6.5 -0.9219 Q7.0469 -1.1406 7.5312 -1.6641 Q8.0156 -2.1875 8.4844 -3.125 L9.4219 -3.125 L8.8125 -0.3594 Q7.8281 -0.0781 6.8984 0.0391 Q5.9688 0.1562 4.9844 0.1562 Q3.7812 0.1562 2.9297 -0.3438 Q2.0781 -0.8438 1.6484 -1.7969 Q1.2188 -2.75 1.2188 -4.0938 Q1.2188 -4.7969 1.3125 -5.4531 Q1.4375 -6.2812 1.6875 -7.25 Q2.0156 -8.4531 2.5 -9.4375 Q3.0312 -10.4844 3.7031 -11.2812 Q4.3438 -12.0156 5.0781 -12.5156 Q5.7656 -12.9844 6.5547 -13.2344 Q7.3438 -13.4844 8.2344 -13.4844 Q9.125 -13.4844 9.8828 -13.375 Q10.6406 -13.2656 11.5625 -12.9844 Z" stroke="none"/></g><g text-rendering="optimizeLegibility" transform="translate(98.6562,19.1562)" color-rendering="optimizeQuality" color-interpolation="linearRGB" image-rendering="optimizeQuality"><path d="M5.7969 -3.125 Q5.3594 -2.3906 4.9453 -1.9375 Q4.5312 -1.4844 4.0703 -1.2422 Q3.6094 -1 3.0781 -1 Q2.4375 -1 1.9297 -1.3984 Q1.4219 -1.7969 1.1562 -2.4766 Q0.8906 -3.1562 0.8906 -3.9844 Q0.8906 -4.8125 1.1875 -5.5234 Q1.4844 -6.2344 2 -6.6172 Q2.5156 -7 3.1562 -7 Q3.6875 -7 4.1016 -6.7969 Q4.5156 -6.5938 4.9062 -6.1484 Q5.2969 -5.7031 5.7969 -4.8594 Q6.1719 -5.5625 6.5078 -6.0547 Q6.8438 -6.5469 7.1797 -6.8359 Q7.5156 -7.125 7.8906 -7.2656 Q8.2656 -7.4062 8.7656 -7.4062 Q9.5312 -7.4062 10.1094 -6.9844 Q10.6875 -6.5625 10.9922 -5.8203 Q11.2969 -5.0781 11.2969 -4.1562 Q11.2969 -3.1406 10.9531 -2.3125 Q10.6094 -1.4844 9.9922 -1.0391 Q9.375 -0.5938 8.5625 -0.5938 Q7.6875 -0.5938 7.0391 -1.2031 Q6.3906 -1.8125 5.7969 -3.125 ZM6.2656 -4 Q6.5938 -3.3438 6.9141 -2.8828 Q7.2344 -2.4219 7.5234 -2.1641 Q7.8125 -1.9062 8.1094 -1.7891 Q8.4062 -1.6719 8.75 -1.6719 Q9.2656 -1.6719 9.6406 -1.9531 Q10.0156 -2.2344 10.2266 -2.7734 Q10.4375 -3.3125 10.4375 -4.0469 Q10.4375 -4.7031 10.2266 -5.2266 Q10.0156 -5.75 9.6328 -6.0391 Q9.25 -6.3281 8.75 -6.3281 Q8.2812 -6.3281 7.9141 -6.1172 Q7.5469 -5.9062 7.1719 -5.4141 Q6.7969 -4.9219 6.2656 -4 ZM5.3125 -4 Q4.9375 -4.6562 4.6094 -5.0625 Q4.2812 -5.4688 3.9219 -5.6953 Q3.5625 -5.9219 3.1562 -5.9219 Q2.75 -5.9219 2.4219 -5.7188 Q2.0938 -5.5156 1.9062 -5.0859 Q1.7188 -4.6562 1.7188 -4.0312 Q1.7188 -3.5 1.8359 -3.1328 Q1.9531 -2.7656 2.1484 -2.5312 Q2.3438 -2.2969 2.6016 -2.1875 Q2.8594 -2.0781 3.1562 -2.0781 Q3.7344 -2.0781 4.2656 -2.5469 Q4.7969 -3.0156 5.3125 -4 Z" stroke="none"/></g><g text-rendering="optimizeLegibility" transform="translate(111.5312,15)" color-rendering="optimizeQuality" color-interpolation="linearRGB" image-rendering="optimizeQuality"><path d="M0.4219 -14.0156 Q2.0781 -14.0156 3.1328 -13.5156 Q4.1875 -13.0156 4.7734 -12 Q5.3594 -10.9844 5.6172 -9.3516 Q5.875 -7.7188 5.875 -4.9219 Q5.875 -2.1562 5.6172 -0.5078 Q5.3594 1.1406 4.7734 2.1797 Q4.1875 3.2188 3.1328 3.7344 Q2.0781 4.25 0.4219 4.25 L0.4219 3.4531 Q1.1094 3.4531 1.625 3.3281 Q2.2344 3.1875 2.6406 2.7969 Q3.1094 2.375 3.4062 1.6094 Q3.75 0.7031 3.9219 -0.7812 Q4.0938 -2.3594 4.0938 -4.8438 Q4.0938 -7.0469 3.9453 -8.5859 Q3.7969 -10.125 3.4531 -11.0938 Q3.1875 -11.9219 2.7812 -12.375 Q2.4062 -12.7812 1.9219 -12.9844 Q1.3438 -13.2188 0.4219 -13.2188 L0.4219 -14.0156 Z" stroke="none"/></g></g></svg>