<?xml version="1.0" encoding="UTF-8" standalone="no"?><svg xmlns="http://www.w3.org/2000/svg" xmlns:xlink="http://www.w3.org/1999/xlink" stroke-dasharray="none" shape-rendering="auto" font-family="'Dialog'" width="66.812600" text-rendering="auto" fill-opacity="1" contentScriptType="text/ecmascript" color-interpolation="auto" color-rendering="auto" preserveAspectRatio="xMidYMid meet" font-size="12" fill="black" stroke="black" image-rendering="auto" stroke-miterlimit="10" zoomAndPan="magnify" version="1.0" stroke-linecap="square" stroke-linejoin="miter" contentStyleType="text/css" font-style="normal" height="25" stroke-width="1" stroke-dashoffset="0" font-weight="normal" stroke-opacity="1" y="-7.000000"><!--Converted from MathML using JEuclid--><defs id="genericDefs"/><g><g text-rendering="optimizeLegibility" transform="translate(0,18)" color-rendering="optimizeQuality" color-interpolation="linearRGB" image-rendering="optimizeQuality"><path d="M7.9531 -1.9375 Q7.2344 -1.1562 6.5703 -0.6953 Q5.9062 -0.2344 5.2422 -0.0391 Q4.5781 0.1562 3.7656 0.1562 Q3 0.1562 2.4453 -0.0938 Q1.8906 -0.3438 1.5234 -0.7812 Q1.1562 -1.2188 0.9766 -1.8125 Q0.7969 -2.4062 0.7969 -3.1094 Q0.7969 -4.1562 1.1719 -5.3516 Q1.5469 -6.5469 2.3125 -7.5 Q3.0781 -8.4531 4.1406 -8.9766 Q5.2031 -9.5 6.4062 -9.5 Q7.5938 -9.5 8.1797 -9.0234 Q8.7656 -8.5469 8.7656 -7.5312 Q8.7656 -5.875 7.2109 -5.0391 Q5.6562 -4.2031 2.5938 -4.2031 Q2.4688 -3.625 2.4688 -2.9375 Q2.4688 -1.9219 2.8672 -1.4531 Q3.2656 -0.9844 4.1875 -0.9844 Q5.0781 -0.9844 5.8125 -1.375 Q6.5469 -1.7656 7.3438 -2.5781 L7.9531 -1.9375 ZM2.75 -5.0469 Q3.6562 -5.0469 4.3359 -5.1406 Q5.0156 -5.2344 5.5 -5.3984 Q5.9844 -5.5625 6.3047 -5.7812 Q6.625 -6 6.8203 -6.2734 Q7.0156 -6.5469 7.0859 -6.8438 Q7.1562 -7.1406 7.1562 -7.4688 Q7.1562 -8.0625 6.8828 -8.3984 Q6.6094 -8.7344 6.0625 -8.7344 Q5.375 -8.7344 4.7109 -8.2422 Q4.0469 -7.75 3.5469 -6.9141 Q3.0469 -6.0781 2.75 -5.0469 Z" stroke="none"/></g><g text-rendering="optimizeLegibility" transform="translate(8.7656,23.7383)" color-rendering="optimizeQuality" color-interpolation="linearRGB" image-rendering="optimizeQuality"><path d="M4.75 -1.7812 Q4.75 -1.3906 4.7969 -1.1875 Q4.8438 -0.9844 4.9531 -0.8594 Q5.0625 -0.7344 5.2734 -0.6641 Q5.4844 -0.5938 5.8047 -0.5547 Q6.125 -0.5156 6.6562 -0.5 L6.6562 0 L1.6094 0 L1.6094 -0.5 Q2.3594 -0.5312 2.6875 -0.5938 Q3.0156 -0.6562 3.1875 -0.7656 Q3.3594 -0.875 3.4375 -1.0938 Q3.5156 -1.3125 3.5156 -1.7812 L3.5156 -7.3281 Q3.5156 -7.6094 3.4219 -7.7344 Q3.3281 -7.8594 3.1406 -7.8594 Q2.9219 -7.8594 2.5156 -7.6328 Q2.1094 -7.4062 1.5156 -7 L1.2188 -7.5312 L4.4219 -9.4375 L4.7969 -9.4375 Q4.75 -8.7812 4.75 -7.625 L4.75 -1.7812 Z" stroke="none"/></g><g text-rendering="optimizeLegibility" transform="translate(9.7656,12.3008)" color-rendering="optimizeQuality" color-interpolation="linearRGB" image-rendering="optimizeQuality"><path d="M2.5781 -1.9844 Q2.4844 -1.5938 2.4531 -1.3516 Q2.4219 -1.1094 2.4219 -0.9219 Q2.4219 -0.6094 2.5781 -0.4844 Q2.7344 -0.3594 3.0938 -0.3281 L3.0156 0 L0.2812 0 L0.3594 -0.3281 Q0.625 -0.375 0.75 -0.4688 Q0.875 -0.5625 0.9688 -0.7266 Q1.0625 -0.8906 1.1328 -1.125 Q1.2031 -1.3594 1.3594 -2.0312 L2.5156 -7.2969 Q2.5938 -7.6094 2.6328 -7.9062 Q2.6719 -8.2031 2.6719 -8.4062 Q2.6719 -8.7188 2.5078 -8.8438 Q2.3438 -8.9688 2 -9 L2.0781 -9.3281 L4.8125 -9.3281 L4.7344 -9 Q4.4844 -8.9375 4.3672 -8.875 Q4.25 -8.8125 4.1562 -8.6719 Q4.0625 -8.5312 3.9766 -8.2422 Q3.8906 -7.9531 3.7344 -7.2969 L2.5781 -1.9844 Z" stroke="none"/></g><g text-rendering="optimizeLegibility" transform="translate(18.7344,18)" color-rendering="optimizeQuality" color-interpolation="linearRGB" image-rendering="optimizeQuality"><path d="M2.8281 -6.9062 Q3.3281 -6.9062 3.6406 -6.5703 Q3.9531 -6.2344 3.9531 -5.7188 Q3.9531 -5.1875 3.6406 -4.8516 Q3.3281 -4.5156 2.8281 -4.5156 Q2.3281 -4.5156 2.0078 -4.8516 Q1.6875 -5.1875 1.6875 -5.7188 Q1.6875 -6.2344 2.0078 -6.5703 Q2.3281 -6.9062 2.8281 -6.9062 Z" stroke="none"/></g><g text-rendering="optimizeLegibility" transform="translate(27.6875,18)" color-rendering="optimizeQuality" color-interpolation="linearRGB" image-rendering="optimizeQuality"><path d="M7.9531 -1.9375 Q7.2344 -1.1562 6.5703 -0.6953 Q5.9062 -0.2344 5.2422 -0.0391 Q4.5781 0.1562 3.7656 0.1562 Q3 0.1562 2.4453 -0.0938 Q1.8906 -0.3438 1.5234 -0.7812 Q1.1562 -1.2188 0.9766 -1.8125 Q0.7969 -2.4062 0.7969 -3.1094 Q0.7969 -4.1562 1.1719 -5.3516 Q1.5469 -6.5469 2.3125 -7.5 Q3.0781 -8.4531 4.1406 -8.9766 Q5.2031 -9.5 6.4062 -9.5 Q7.5938 -9.5 8.1797 -9.0234 Q8.7656 -8.5469 8.7656 -7.5312 Q8.7656 -5.875 7.2109 -5.0391 Q5.6562 -4.2031 2.5938 -4.2031 Q2.4688 -3.625 2.4688 -2.9375 Q2.4688 -1.9219 2.8672 -1.4531 Q3.2656 -0.9844 4.1875 -0.9844 Q5.0781 -0.9844 5.8125 -1.375 Q6.5469 -1.7656 7.3438 -2.5781 L7.9531 -1.9375 ZM2.75 -5.0469 Q3.6562 -5.0469 4.3359 -5.1406 Q5.0156 -5.2344 5.5 -5.3984 Q5.9844 -5.5625 6.3047 -5.7812 Q6.625 -6 6.8203 -6.2734 Q7.0156 -6.5469 7.0859 -6.8438 Q7.1562 -7.1406 7.1562 -7.4688 Q7.1562 -8.0625 6.8828 -8.3984 Q6.6094 -8.7344 6.0625 -8.7344 Q5.375 -8.7344 4.7109 -8.2422 Q4.0469 -7.75 3.5469 -6.9141 Q3.0469 -6.0781 2.75 -5.0469 Z" stroke="none"/></g><g text-rendering="optimizeLegibility" transform="translate(36.4531,24.3984)" color-rendering="optimizeQuality" color-interpolation="linearRGB" image-rendering="optimizeQuality"><path d="M4.7969 -1.0938 Q5.1406 -1.0938 5.3438 -1.1328 Q5.5469 -1.1719 5.6719 -1.2734 Q5.7969 -1.375 5.8672 -1.5234 Q5.9375 -1.6719 6.0469 -2 L6.625 -2 L6.5156 0 L0.875 0 L0.875 -0.3281 Q1.1719 -1.0469 1.6719 -1.7969 Q2.1719 -2.5469 3.0938 -3.5625 Q3.8906 -4.4375 4.2344 -4.8906 Q4.6094 -5.3906 4.7969 -5.75 Q4.9844 -6.1094 5.0703 -6.4219 Q5.1562 -6.7344 5.1562 -7.0625 Q5.1562 -7.5781 4.9922 -7.9688 Q4.8281 -8.3594 4.4922 -8.5859 Q4.1562 -8.8125 3.6406 -8.8125 Q2.3594 -8.8125 1.9219 -7.3906 L1.0938 -7.3906 L1.0938 -8.7031 Q1.9219 -9.0938 2.6406 -9.2656 Q3.3594 -9.4375 3.9375 -9.4375 Q5.2031 -9.4375 5.8516 -8.8828 Q6.5 -8.3281 6.5 -7.2656 Q6.5 -6.9062 6.4297 -6.6016 Q6.3594 -6.2969 6.2031 -6 Q6.0469 -5.7031 5.7891 -5.3594 Q5.5312 -5.0156 5.2188 -4.6641 Q4.9062 -4.3125 4.125 -3.5 Q2.8281 -2.125 2.2188 -1.0938 L4.7969 -1.0938 Z" stroke="none"/></g><g text-rendering="optimizeLegibility" transform="translate(38,10.3203)" color-rendering="optimizeQuality" color-interpolation="linearRGB" image-rendering="optimizeQuality"><path d="M2.0625 -0.2969 Q1.8281 0.7656 1.4609 1.3984 Q1.0938 2.0312 0.5156 2.3359 Q-0.0625 2.6406 -0.8906 2.6406 Q-1.0781 2.6406 -1.2578 2.625 Q-1.4375 2.6094 -1.5469 2.5781 L-1.375 1.9219 Q-1.2656 1.9531 -1.125 1.9609 Q-0.9844 1.9688 -0.8438 1.9688 Q-0.4531 1.9688 -0.1641 1.7891 Q0.125 1.6094 0.3672 1.1562 Q0.6094 0.7031 0.7812 -0.0938 L2.375 -7.2969 Q2.4531 -7.6094 2.4922 -7.9062 Q2.5312 -8.2031 2.5312 -8.4062 Q2.5312 -8.7188 2.3672 -8.8438 Q2.2031 -8.9688 1.8594 -9 L1.9375 -9.3281 L4.6719 -9.3281 L4.5938 -9 Q4.3281 -8.9375 4.2188 -8.875 Q4.1094 -8.8125 4.0156 -8.6719 Q3.9219 -8.5312 3.8281 -8.2422 Q3.7344 -7.9531 3.5938 -7.2969 L2.0625 -0.2969 Z" stroke="none"/></g><g text-rendering="optimizeLegibility" transform="translate(43.8594,18)" color-rendering="optimizeQuality" color-interpolation="linearRGB" image-rendering="optimizeQuality"><path d="M1.2188 -7.0625 L1.2188 -8.4219 L9.8594 -8.4219 L9.8594 -7.0625 L1.2188 -7.0625 ZM1.2188 -3.0156 L1.2188 -4.3594 L9.8594 -4.3594 L9.8594 -3.0156 L1.2188 -3.0156 Z" stroke="none"/></g><g text-rendering="optimizeLegibility" transform="translate(55.7188,18)" color-rendering="optimizeQuality" color-interpolation="linearRGB" image-rendering="optimizeQuality"><path d="M5.4375 0.1562 Q3.3281 0.1562 2.2969 -1.5078 Q1.2656 -3.1719 1.2656 -6.5469 Q1.2656 -8.3438 1.5781 -9.6484 Q1.8906 -10.9531 2.4609 -11.8125 Q3.0312 -12.6719 3.8359 -13.0781 Q4.6406 -13.4844 5.5938 -13.4844 Q7.7188 -13.4844 8.7656 -11.8359 Q9.8125 -10.1875 9.8125 -6.8438 Q9.8125 -3.3906 8.6953 -1.6172 Q7.5781 0.1562 5.4375 0.1562 ZM3.1719 -6.8438 Q3.1719 -3.6562 3.7578 -2.1641 Q4.3438 -0.6719 5.5938 -0.6719 Q6.7656 -0.6719 7.3359 -2.0781 Q7.9062 -3.4844 7.9062 -6.4219 Q7.9062 -8.6562 7.6172 -10.0547 Q7.3281 -11.4531 6.8047 -12.0547 Q6.2812 -12.6562 5.5312 -12.6562 Q4.8594 -12.6562 4.4062 -12.2578 Q3.9531 -11.8594 3.6797 -11.1094 Q3.4062 -10.3594 3.2891 -9.2734 Q3.1719 -8.1875 3.1719 -6.8438 Z" stroke="none"/></g></g></svg>