<?xml version="1.0" encoding="UTF-8" standalone="no"?><svg xmlns="http://www.w3.org/2000/svg" xmlns:xlink="http://www.w3.org/1999/xlink" stroke-dasharray="none" shape-rendering="auto" font-family="'Dialog'" width="116.812600" text-rendering="auto" fill-opacity="1" contentScriptType="text/ecmascript" color-interpolation="auto" color-rendering="auto" preserveAspectRatio="xMidYMid meet" font-size="12" fill="black" stroke="black" image-rendering="auto" stroke-miterlimit="10" zoomAndPan="magnify" version="1.0" stroke-linecap="square" stroke-linejoin="miter" contentStyleType="text/css" font-style="normal" height="27" stroke-width="1" stroke-dashoffset="0" font-weight="normal" stroke-opacity="1" y="-7.000000"><!--Converted from MathML using JEuclid--><defs id="genericDefs"/><g><g text-rendering="optimizeLegibility" transform="translate(0,20)" color-rendering="optimizeQuality" color-interpolation="linearRGB" image-rendering="optimizeQuality"><path d="M8.75 -1.6562 Q8.125 -1 7.6016 -0.6328 Q7.0781 -0.2656 6.4531 -0.0547 Q5.8281 0.1562 5.0781 0.1562 Q3.0625 0.1562 2.0391 -1.0469 Q1.0156 -2.25 1.0156 -4.6094 Q1.0156 -6.0625 1.5391 -7.1797 Q2.0625 -8.2969 3.0312 -8.8984 Q4 -9.5 5.25 -9.5 Q6.2344 -9.5 6.9297 -9.1875 Q7.625 -8.875 8.0391 -8.3359 Q8.4531 -7.7969 8.6875 -6.9688 Q8.9219 -6.1406 8.9531 -4.8125 L2.7969 -4.8125 L2.7969 -4.6406 Q2.7969 -3.4844 3.0547 -2.7031 Q3.3125 -1.9219 3.9062 -1.4766 Q4.5 -1.0312 5.4375 -1.0312 Q6.2344 -1.0312 6.875 -1.3281 Q7.5156 -1.625 8.1562 -2.2969 L8.75 -1.6562 ZM7.1094 -5.625 Q7.0469 -6.6875 6.8438 -7.3516 Q6.6406 -8.0156 6.2344 -8.375 Q5.8281 -8.7344 5.1562 -8.7344 Q4.1562 -8.7344 3.5547 -7.9297 Q2.9531 -7.125 2.8438 -5.625 L7.1094 -5.625 Z" stroke="none"/></g><g text-rendering="optimizeLegibility" transform="translate(8.9531,25.7383)" color-rendering="optimizeQuality" color-interpolation="linearRGB" image-rendering="optimizeQuality"><path d="M4.75 -1.7812 Q4.75 -1.3906 4.7969 -1.1875 Q4.8438 -0.9844 4.9531 -0.8594 Q5.0625 -0.7344 5.2734 -0.6641 Q5.4844 -0.5938 5.8047 -0.5547 Q6.125 -0.5156 6.6562 -0.5 L6.6562 0 L1.6094 0 L1.6094 -0.5 Q2.3594 -0.5312 2.6875 -0.5938 Q3.0156 -0.6562 3.1875 -0.7656 Q3.3594 -0.875 3.4375 -1.0938 Q3.5156 -1.3125 3.5156 -1.7812 L3.5156 -7.3281 Q3.5156 -7.6094 3.4219 -7.7344 Q3.3281 -7.8594 3.1406 -7.8594 Q2.9219 -7.8594 2.5156 -7.6328 Q2.1094 -7.4062 1.5156 -7 L1.2188 -7.5312 L4.4219 -9.4375 L4.7969 -9.4375 Q4.75 -8.7812 4.75 -7.625 L4.75 -1.7812 Z" stroke="none"/></g><g text-rendering="optimizeLegibility" transform="translate(8.9531,14.3008)" color-rendering="optimizeQuality" color-interpolation="linearRGB" image-rendering="optimizeQuality"><path d="M2.5781 -1.9844 Q2.4844 -1.5938 2.4531 -1.3516 Q2.4219 -1.1094 2.4219 -0.9219 Q2.4219 -0.6094 2.5781 -0.4844 Q2.7344 -0.3594 3.0938 -0.3281 L3.0156 0 L0.2812 0 L0.3594 -0.3281 Q0.625 -0.375 0.75 -0.4688 Q0.875 -0.5625 0.9688 -0.7266 Q1.0625 -0.8906 1.1328 -1.125 Q1.2031 -1.3594 1.3594 -2.0312 L2.5156 -7.2969 Q2.5938 -7.6094 2.6328 -7.9062 Q2.6719 -8.2031 2.6719 -8.4062 Q2.6719 -8.7188 2.5078 -8.8438 Q2.3438 -8.9688 2 -9 L2.0781 -9.3281 L4.8125 -9.3281 L4.7344 -9 Q4.4844 -8.9375 4.3672 -8.875 Q4.25 -8.8125 4.1562 -8.6719 Q4.0625 -8.5312 3.9766 -8.2422 Q3.8906 -7.9531 3.7344 -7.2969 L2.5781 -1.9844 Z" stroke="none"/></g><g text-rendering="optimizeLegibility" transform="translate(15.9219,20)" color-rendering="optimizeQuality" color-interpolation="linearRGB" image-rendering="optimizeQuality"><path d="M2.8281 -6.9062 Q3.3281 -6.9062 3.6406 -6.5703 Q3.9531 -6.2344 3.9531 -5.7188 Q3.9531 -5.1875 3.6406 -4.8516 Q3.3281 -4.5156 2.8281 -4.5156 Q2.3281 -4.5156 2.0078 -4.8516 Q1.6875 -5.1875 1.6875 -5.7188 Q1.6875 -6.2344 2.0078 -6.5703 Q2.3281 -6.9062 2.8281 -6.9062 Z" stroke="none"/></g><g text-rendering="optimizeLegibility" transform="translate(21.875,20)" color-rendering="optimizeQuality" color-interpolation="linearRGB" image-rendering="optimizeQuality"><path d="M8.75 -1.6562 Q8.125 -1 7.6016 -0.6328 Q7.0781 -0.2656 6.4531 -0.0547 Q5.8281 0.1562 5.0781 0.1562 Q3.0625 0.1562 2.0391 -1.0469 Q1.0156 -2.25 1.0156 -4.6094 Q1.0156 -6.0625 1.5391 -7.1797 Q2.0625 -8.2969 3.0312 -8.8984 Q4 -9.5 5.25 -9.5 Q6.2344 -9.5 6.9297 -9.1875 Q7.625 -8.875 8.0391 -8.3359 Q8.4531 -7.7969 8.6875 -6.9688 Q8.9219 -6.1406 8.9531 -4.8125 L2.7969 -4.8125 L2.7969 -4.6406 Q2.7969 -3.4844 3.0547 -2.7031 Q3.3125 -1.9219 3.9062 -1.4766 Q4.5 -1.0312 5.4375 -1.0312 Q6.2344 -1.0312 6.875 -1.3281 Q7.5156 -1.625 8.1562 -2.2969 L8.75 -1.6562 ZM7.1094 -5.625 Q7.0469 -6.6875 6.8438 -7.3516 Q6.6406 -8.0156 6.2344 -8.375 Q5.8281 -8.7344 5.1562 -8.7344 Q4.1562 -8.7344 3.5547 -7.9297 Q2.9531 -7.125 2.8438 -5.625 L7.1094 -5.625 Z" stroke="none"/></g><g text-rendering="optimizeLegibility" transform="translate(30.8281,26.3711)" color-rendering="optimizeQuality" color-interpolation="linearRGB" image-rendering="optimizeQuality"><path d="M1.0938 -7.3906 L1.0938 -8.7031 Q1.875 -9.0781 2.5703 -9.2578 Q3.2656 -9.4375 3.9062 -9.4375 Q4.6719 -9.4375 5.2578 -9.2031 Q5.8438 -8.9688 6.1484 -8.5156 Q6.4531 -8.0625 6.4531 -7.4375 Q6.4531 -6.8594 6.2188 -6.4219 Q5.9844 -5.9844 5.5625 -5.6562 Q5.1406 -5.3281 4.4844 -5.0156 L4.4844 -4.9531 Q4.8906 -4.875 5.2812 -4.6953 Q5.6719 -4.5156 5.9688 -4.2266 Q6.2656 -3.9375 6.4453 -3.5391 Q6.625 -3.1406 6.625 -2.625 Q6.625 -1.8281 6.2812 -1.2188 Q5.9375 -0.6094 5.2266 -0.25 Q4.5156 0.1094 3.5 0.1094 Q2.9062 0.1094 2.2266 -0.0234 Q1.5469 -0.1562 0.9844 -0.375 L0.9844 -1.8281 L1.8125 -1.8281 Q2.0469 -1.1094 2.4375 -0.7891 Q2.8281 -0.4688 3.5 -0.4688 Q4.3906 -0.4688 4.8516 -0.9531 Q5.3125 -1.4375 5.3125 -2.3906 Q5.3125 -3.3906 4.7109 -3.9141 Q4.1094 -4.4375 2.9375 -4.4375 L2.3281 -4.4375 L2.3281 -5.0469 Q3.25 -5.0938 3.8828 -5.3984 Q4.5156 -5.7031 4.8203 -6.1719 Q5.125 -6.6406 5.125 -7.2344 Q5.125 -7.9844 4.7266 -8.3984 Q4.3281 -8.8125 3.5469 -8.8125 Q2.9062 -8.8125 2.5 -8.4609 Q2.0938 -8.1094 1.9062 -7.3906 L1.0938 -7.3906 Z" stroke="none"/></g><g text-rendering="optimizeLegibility" transform="translate(32.375,12.293)" color-rendering="optimizeQuality" color-interpolation="linearRGB" image-rendering="optimizeQuality"><path d="M2.0625 -0.2969 Q1.8281 0.7656 1.4609 1.3984 Q1.0938 2.0312 0.5156 2.3359 Q-0.0625 2.6406 -0.8906 2.6406 Q-1.0781 2.6406 -1.2578 2.625 Q-1.4375 2.6094 -1.5469 2.5781 L-1.375 1.9219 Q-1.2656 1.9531 -1.125 1.9609 Q-0.9844 1.9688 -0.8438 1.9688 Q-0.4531 1.9688 -0.1641 1.7891 Q0.125 1.6094 0.3672 1.1562 Q0.6094 0.7031 0.7812 -0.0938 L2.375 -7.2969 Q2.4531 -7.6094 2.4922 -7.9062 Q2.5312 -8.2031 2.5312 -8.4062 Q2.5312 -8.7188 2.3672 -8.8438 Q2.2031 -8.9688 1.8594 -9 L1.9375 -9.3281 L4.6719 -9.3281 L4.5938 -9 Q4.3281 -8.9375 4.2188 -8.875 Q4.1094 -8.8125 4.0156 -8.6719 Q3.9219 -8.5312 3.8281 -8.2422 Q3.7344 -7.9531 3.5938 -7.2969 L2.0625 -0.2969 Z" stroke="none"/></g><g text-rendering="optimizeLegibility" transform="translate(38.2188,20)" color-rendering="optimizeQuality" color-interpolation="linearRGB" image-rendering="optimizeQuality"><path d="M1.2344 -5.0469 L1.2344 -6.3906 L9.8281 -6.3906 L9.8281 -5.0469 L1.2344 -5.0469 Z" stroke="none"/></g><g text-rendering="optimizeLegibility" transform="translate(50.0469,20)" color-rendering="optimizeQuality" color-interpolation="linearRGB" image-rendering="optimizeQuality"><path d="M11.9531 -13.3281 L11.2812 -10.3281 L10.3438 -10.3281 Q10.3125 -11.0312 10.2344 -11.4297 Q10.1562 -11.8281 10.0625 -12.0156 Q9.9688 -12.2031 9.8359 -12.2969 Q9.7031 -12.3906 9.5156 -12.4297 Q9.3281 -12.4688 8.9688 -12.4688 L5.7969 -12.4688 L4.6719 -7.3594 L6.5469 -7.3594 Q6.9688 -7.3594 7.2578 -7.4766 Q7.5469 -7.5938 7.7891 -7.8828 Q8.0312 -8.1719 8.3438 -8.7656 L9.2344 -8.7656 L8.3438 -5.0156 L7.5156 -5.0156 Q7.5156 -5.5469 7.4766 -5.8047 Q7.4375 -6.0625 7.375 -6.1797 Q7.3125 -6.2969 7.2188 -6.3672 Q7.125 -6.4375 6.9688 -6.4688 Q6.8125 -6.5 6.4531 -6.5 L4.5 -6.5 L3.25 -0.8594 L6.1406 -0.8594 Q6.5625 -0.8594 6.8594 -0.9219 Q7.1562 -0.9844 7.3984 -1.1406 Q7.6406 -1.2969 7.8672 -1.5469 Q8.0938 -1.7969 8.3359 -2.1875 Q8.5781 -2.5781 8.9844 -3.375 L9.9375 -3.375 L9.0781 0 L0.4062 0 L0.5156 -0.4844 Q0.8906 -0.5312 1.0781 -0.6641 Q1.2656 -0.7969 1.3906 -1.0312 Q1.5156 -1.2656 1.625 -1.6016 Q1.7344 -1.9375 1.9375 -2.9062 L3.6094 -10.4375 Q3.8125 -11.4062 3.8125 -12 Q3.8125 -12.4688 3.5781 -12.6484 Q3.3438 -12.8281 2.8594 -12.8594 L2.9688 -13.3281 L11.9531 -13.3281 Z" stroke="none"/></g><g text-rendering="optimizeLegibility" transform="translate(62,24.7188)" color-rendering="optimizeQuality" color-interpolation="linearRGB" image-rendering="optimizeQuality"><path d="M4.75 -1.7812 Q4.75 -1.3906 4.7969 -1.1875 Q4.8438 -0.9844 4.9531 -0.8594 Q5.0625 -0.7344 5.2734 -0.6641 Q5.4844 -0.5938 5.8047 -0.5547 Q6.125 -0.5156 6.6562 -0.5 L6.6562 0 L1.6094 0 L1.6094 -0.5 Q2.3594 -0.5312 2.6875 -0.5938 Q3.0156 -0.6562 3.1875 -0.7656 Q3.3594 -0.875 3.4375 -1.0938 Q3.5156 -1.3125 3.5156 -1.7812 L3.5156 -7.3281 Q3.5156 -7.6094 3.4219 -7.7344 Q3.3281 -7.8594 3.1406 -7.8594 Q2.9219 -7.8594 2.5156 -7.6328 Q2.1094 -7.4062 1.5156 -7 L1.2188 -7.5312 L4.4219 -9.4375 L4.7969 -9.4375 Q4.75 -8.7812 4.75 -7.625 L4.75 -1.7812 Z" stroke="none"/></g><g text-rendering="optimizeLegibility" transform="translate(62,11.3359)" color-rendering="optimizeQuality" color-interpolation="linearRGB" image-rendering="optimizeQuality"><path d="M2.5781 -1.9844 Q2.4844 -1.5938 2.4531 -1.3516 Q2.4219 -1.1094 2.4219 -0.9219 Q2.4219 -0.6094 2.5781 -0.4844 Q2.7344 -0.3594 3.0938 -0.3281 L3.0156 0 L0.2812 0 L0.3594 -0.3281 Q0.625 -0.375 0.75 -0.4688 Q0.875 -0.5625 0.9688 -0.7266 Q1.0625 -0.8906 1.1328 -1.125 Q1.2031 -1.3594 1.3594 -2.0312 L2.5156 -7.2969 Q2.5938 -7.6094 2.6328 -7.9062 Q2.6719 -8.2031 2.6719 -8.4062 Q2.6719 -8.7188 2.5078 -8.8438 Q2.3438 -8.9688 2 -9 L2.0781 -9.3281 L4.8125 -9.3281 L4.7344 -9 Q4.4844 -8.9375 4.3672 -8.875 Q4.25 -8.8125 4.1562 -8.6719 Q4.0625 -8.5312 3.9766 -8.2422 Q3.8906 -7.9531 3.7344 -7.2969 L2.5781 -1.9844 Z" stroke="none"/></g><g text-rendering="optimizeLegibility" transform="translate(68.9688,20)" color-rendering="optimizeQuality" color-interpolation="linearRGB" image-rendering="optimizeQuality"><path d="M2.8281 -6.9062 Q3.3281 -6.9062 3.6406 -6.5703 Q3.9531 -6.2344 3.9531 -5.7188 Q3.9531 -5.1875 3.6406 -4.8516 Q3.3281 -4.5156 2.8281 -4.5156 Q2.3281 -4.5156 2.0078 -4.8516 Q1.6875 -5.1875 1.6875 -5.7188 Q1.6875 -6.2344 2.0078 -6.5703 Q2.3281 -6.9062 2.8281 -6.9062 Z" stroke="none"/></g><g text-rendering="optimizeLegibility" transform="translate(74.9219,20)" color-rendering="optimizeQuality" color-interpolation="linearRGB" image-rendering="optimizeQuality"><path d="M11.9531 -13.3281 L11.2812 -10.3281 L10.3438 -10.3281 Q10.3125 -11.0312 10.2344 -11.4297 Q10.1562 -11.8281 10.0625 -12.0156 Q9.9688 -12.2031 9.8359 -12.2969 Q9.7031 -12.3906 9.5156 -12.4297 Q9.3281 -12.4688 8.9688 -12.4688 L5.7969 -12.4688 L4.6719 -7.3594 L6.5469 -7.3594 Q6.9688 -7.3594 7.2578 -7.4766 Q7.5469 -7.5938 7.7891 -7.8828 Q8.0312 -8.1719 8.3438 -8.7656 L9.2344 -8.7656 L8.3438 -5.0156 L7.5156 -5.0156 Q7.5156 -5.5469 7.4766 -5.8047 Q7.4375 -6.0625 7.375 -6.1797 Q7.3125 -6.2969 7.2188 -6.3672 Q7.125 -6.4375 6.9688 -6.4688 Q6.8125 -6.5 6.4531 -6.5 L4.5 -6.5 L3.25 -0.8594 L6.1406 -0.8594 Q6.5625 -0.8594 6.8594 -0.9219 Q7.1562 -0.9844 7.3984 -1.1406 Q7.6406 -1.2969 7.8672 -1.5469 Q8.0938 -1.7969 8.3359 -2.1875 Q8.5781 -2.5781 8.9844 -3.375 L9.9375 -3.375 L9.0781 0 L0.4062 0 L0.5156 -0.4844 Q0.8906 -0.5312 1.0781 -0.6641 Q1.2656 -0.7969 1.3906 -1.0312 Q1.5156 -1.2656 1.625 -1.6016 Q1.7344 -1.9375 1.9375 -2.9062 L3.6094 -10.4375 Q3.8125 -11.4062 3.8125 -12 Q3.8125 -12.4688 3.5781 -12.6484 Q3.3438 -12.8281 2.8594 -12.8594 L2.9688 -13.3281 L11.9531 -13.3281 Z" stroke="none"/></g><g text-rendering="optimizeLegibility" transform="translate(86.875,24.6641)" color-rendering="optimizeQuality" color-interpolation="linearRGB" image-rendering="optimizeQuality"><path d="M1.0938 -7.3906 L1.0938 -8.7031 Q1.875 -9.0781 2.5703 -9.2578 Q3.2656 -9.4375 3.9062 -9.4375 Q4.6719 -9.4375 5.2578 -9.2031 Q5.8438 -8.9688 6.1484 -8.5156 Q6.4531 -8.0625 6.4531 -7.4375 Q6.4531 -6.8594 6.2188 -6.4219 Q5.9844 -5.9844 5.5625 -5.6562 Q5.1406 -5.3281 4.4844 -5.0156 L4.4844 -4.9531 Q4.8906 -4.875 5.2812 -4.6953 Q5.6719 -4.5156 5.9688 -4.2266 Q6.2656 -3.9375 6.4453 -3.5391 Q6.625 -3.1406 6.625 -2.625 Q6.625 -1.8281 6.2812 -1.2188 Q5.9375 -0.6094 5.2266 -0.25 Q4.5156 0.1094 3.5 0.1094 Q2.9062 0.1094 2.2266 -0.0234 Q1.5469 -0.1562 0.9844 -0.375 L0.9844 -1.8281 L1.8125 -1.8281 Q2.0469 -1.1094 2.4375 -0.7891 Q2.8281 -0.4688 3.5 -0.4688 Q4.3906 -0.4688 4.8516 -0.9531 Q5.3125 -1.4375 5.3125 -2.3906 Q5.3125 -3.3906 4.7109 -3.9141 Q4.1094 -4.4375 2.9375 -4.4375 L2.3281 -4.4375 L2.3281 -5.0469 Q3.25 -5.0938 3.8828 -5.3984 Q4.5156 -5.7031 4.8203 -6.1719 Q5.125 -6.6406 5.125 -7.2344 Q5.125 -7.9844 4.7266 -8.3984 Q4.3281 -8.8125 3.5469 -8.8125 Q2.9062 -8.8125 2.5 -8.4609 Q2.0938 -8.1094 1.9062 -7.3906 L1.0938 -7.3906 Z" stroke="none"/></g><g text-rendering="optimizeLegibility" transform="translate(88.4219,10.0156)" color-rendering="optimizeQuality" color-interpolation="linearRGB" image-rendering="optimizeQuality"><path d="M2.0625 -0.2969 Q1.8281 0.7656 1.4609 1.3984 Q1.0938 2.0312 0.5156 2.3359 Q-0.0625 2.6406 -0.8906 2.6406 Q-1.0781 2.6406 -1.2578 2.625 Q-1.4375 2.6094 -1.5469 2.5781 L-1.375 1.9219 Q-1.2656 1.9531 -1.125 1.9609 Q-0.9844 1.9688 -0.8438 1.9688 Q-0.4531 1.9688 -0.1641 1.7891 Q0.125 1.6094 0.3672 1.1562 Q0.6094 0.7031 0.7812 -0.0938 L2.375 -7.2969 Q2.4531 -7.6094 2.4922 -7.9062 Q2.5312 -8.2031 2.5312 -8.4062 Q2.5312 -8.7188 2.3672 -8.8438 Q2.2031 -8.9688 1.8594 -9 L1.9375 -9.3281 L4.6719 -9.3281 L4.5938 -9 Q4.3281 -8.9375 4.2188 -8.875 Q4.1094 -8.8125 4.0156 -8.6719 Q3.9219 -8.5312 3.8281 -8.2422 Q3.7344 -7.9531 3.5938 -7.2969 L2.0625 -0.2969 Z" stroke="none"/></g><g text-rendering="optimizeLegibility" transform="translate(94.2812,20)" color-rendering="optimizeQuality" color-interpolation="linearRGB" image-rendering="optimizeQuality"><path d="M1.2188 -7.0625 L1.2188 -8.4219 L9.8594 -8.4219 L9.8594 -7.0625 L1.2188 -7.0625 ZM1.2188 -3.0156 L1.2188 -4.3594 L9.8594 -4.3594 L9.8594 -3.0156 L1.2188 -3.0156 Z" stroke="none"/></g><g text-rendering="optimizeLegibility" transform="translate(106.1406,20)" color-rendering="optimizeQuality" color-interpolation="linearRGB" image-rendering="optimizeQuality"><path d="M5.4375 0.1562 Q3.3281 0.1562 2.2969 -1.5078 Q1.2656 -3.1719 1.2656 -6.5469 Q1.2656 -8.3438 1.5781 -9.6484 Q1.8906 -10.9531 2.4609 -11.8125 Q3.0312 -12.6719 3.8359 -13.0781 Q4.6406 -13.4844 5.5938 -13.4844 Q7.7188 -13.4844 8.7656 -11.8359 Q9.8125 -10.1875 9.8125 -6.8438 Q9.8125 -3.3906 8.6953 -1.6172 Q7.5781 0.1562 5.4375 0.1562 ZM3.1719 -6.8438 Q3.1719 -3.6562 3.7578 -2.1641 Q4.3438 -0.6719 5.5938 -0.6719 Q6.7656 -0.6719 7.3359 -2.0781 Q7.9062 -3.4844 7.9062 -6.4219 Q7.9062 -8.6562 7.6172 -10.0547 Q7.3281 -11.4531 6.8047 -12.0547 Q6.2812 -12.6562 5.5312 -12.6562 Q4.8594 -12.6562 4.4062 -12.2578 Q3.9531 -11.8594 3.6797 -11.1094 Q3.4062 -10.3594 3.2891 -9.2734 Q3.1719 -8.1875 3.1719 -6.8438 Z" stroke="none"/></g></g></svg>