<?xml version="1.0" encoding="UTF-8" standalone="no"?><svg xmlns="http://www.w3.org/2000/svg" xmlns:xlink="http://www.w3.org/1999/xlink" stroke-dasharray="none" shape-rendering="auto" font-family="'Dialog'" width="338.812600" text-rendering="auto" fill-opacity="1" contentScriptType="text/ecmascript" color-interpolation="auto" color-rendering="auto" preserveAspectRatio="xMidYMid meet" font-size="12" fill="black" stroke="black" image-rendering="auto" stroke-miterlimit="10" zoomAndPan="magnify" version="1.0" stroke-linecap="square" stroke-linejoin="miter" contentStyleType="text/css" font-style="normal" height="48" stroke-width="1" stroke-dashoffset="0" font-weight="normal" stroke-opacity="1" y="-17.000000"><!--Converted from MathML using JEuclid--><defs id="genericDefs"/><g><g text-rendering="optimizeLegibility" transform="translate(0,31)" color-rendering="optimizeQuality" color-interpolation="linearRGB" image-rendering="optimizeQuality"><path d="M5.9688 -8.3438 L3.6406 -8.3438 L3.6406 -2.4375 Q3.6406 -1.7812 3.7031 -1.4531 Q3.7656 -1.125 3.8828 -0.9531 Q4 -0.7812 4.2031 -0.6797 Q4.4062 -0.5781 4.8438 -0.4844 L4.8438 0 L0.8438 0 L0.8438 -0.4844 Q1.2812 -0.5938 1.4688 -0.7031 Q1.6562 -0.8125 1.7578 -0.9766 Q1.8594 -1.1406 1.9062 -1.4531 Q1.9531 -1.7656 1.9531 -2.4375 L1.9531 -8.3438 L0.7656 -8.3438 L0.7656 -8.8438 Q1.1406 -8.9062 1.2656 -8.9375 Q1.3906 -8.9688 1.5 -9.0391 Q1.6094 -9.1094 1.6953 -9.2344 Q1.7812 -9.3594 1.8438 -9.6094 Q1.9062 -9.8594 1.9375 -10.3125 Q2.0312 -11.375 2.3281 -12.0391 Q2.625 -12.7031 3.1953 -13.1719 Q3.7656 -13.6406 4.4141 -13.8359 Q5.0625 -14.0312 5.9531 -14.0312 Q6.7188 -14.0312 7.25 -13.9219 L7.25 -12.1562 L6.2969 -12.1562 Q6.1094 -12.7188 5.8594 -12.9609 Q5.6094 -13.2031 5.1562 -13.2031 Q4.8281 -13.2031 4.6094 -13.1172 Q4.3906 -13.0312 4.2109 -12.8438 Q4.0312 -12.6562 3.8984 -12.3438 Q3.7656 -12.0312 3.7031 -11.5703 Q3.6406 -11.1094 3.6406 -10.3594 L3.6406 -9.3438 L5.9688 -9.3438 L5.9688 -8.3438 ZM9.5625 -2.4375 Q9.5625 -1.6094 9.6406 -1.2812 Q9.7188 -0.9531 9.9375 -0.7812 Q10.1562 -0.6094 10.6562 -0.4844 L10.6562 0 L6.7656 0 L6.7656 -0.4844 Q7.2656 -0.6094 7.4531 -0.7422 Q7.6406 -0.875 7.7266 -1.0703 Q7.8125 -1.2656 7.8438 -1.5938 Q7.875 -1.9219 7.875 -2.4375 L7.875 -10.6094 Q7.875 -11.5469 7.8594 -11.9219 Q7.8438 -12.2969 7.7812 -12.5547 Q7.7188 -12.8125 7.6094 -12.9609 Q7.5 -13.1094 7.3047 -13.1953 Q7.1094 -13.2812 6.6094 -13.375 L6.6094 -13.875 L8.9688 -13.9688 L9.5625 -13.9688 L9.5625 -2.4375 ZM11.7188 -9.3438 L14.5 -9.3438 L14.5 -4.3594 Q14.5 -3.2188 14.5859 -2.625 Q14.6719 -2.0312 14.8516 -1.7266 Q15.0312 -1.4219 15.3516 -1.2188 Q15.6719 -1.0156 16.2344 -1.0156 Q16.6094 -1.0156 16.9531 -1.1641 Q17.2969 -1.3125 17.7109 -1.6797 Q18.125 -2.0469 18.3047 -2.4062 Q18.4844 -2.7656 18.4844 -3.25 L18.4844 -6.9062 Q18.4844 -7.4688 18.4609 -7.75 Q18.4375 -8.0312 18.3672 -8.2031 Q18.2969 -8.375 18.2031 -8.4766 Q18.1094 -8.5781 17.9375 -8.6719 Q17.7656 -8.7656 17.3906 -8.8594 L17.3906 -9.3438 L20.1719 -9.3438 L20.1719 -2.6719 Q20.1719 -1.9219 20.2031 -1.5859 Q20.2344 -1.25 20.3281 -1.0547 Q20.4219 -0.8594 20.625 -0.7344 Q20.8281 -0.6094 21.3594 -0.5156 L21.3594 0 L19.125 0.0938 L18.5312 0.0938 L18.5938 -1.5 L18.4375 -1.5469 Q17.625 -0.6719 16.8906 -0.2578 Q16.1562 0.1562 15.4219 0.1562 Q14.5312 0.1562 13.9531 -0.1953 Q13.375 -0.5469 13.0938 -1.2422 Q12.8125 -1.9375 12.8125 -3.2188 L12.8125 -6.9062 Q12.8125 -7.7188 12.75 -8.0312 Q12.6875 -8.3438 12.5 -8.5234 Q12.3125 -8.7031 11.7188 -8.8594 L11.7188 -9.3438 ZM25.7344 -13.1719 L25.7344 -11.2656 L23.9375 -11.2656 L23.9375 -13.1719 L25.7344 -13.1719 ZM22.9531 -0.4844 Q23.3281 -0.5938 23.4922 -0.6797 Q23.6562 -0.7656 23.7656 -0.9219 Q23.875 -1.0781 23.9375 -1.4062 Q24 -1.7344 24 -2.4062 L24 -6.6719 Q24 -7.2969 23.9844 -7.6797 Q23.9688 -8.0625 23.8516 -8.2891 Q23.7344 -8.5156 23.4922 -8.625 Q23.25 -8.7344 22.8125 -8.8125 L22.8125 -9.3438 L25.0938 -9.4219 L25.6875 -9.4219 L25.6875 -2.4375 Q25.6875 -1.6094 25.7656 -1.2812 Q25.8438 -0.9531 26.0625 -0.7812 Q26.2812 -0.6094 26.7812 -0.4844 L26.7812 0 L22.9531 0 L22.9531 -0.4844 ZM35.5469 -10.6094 Q35.5469 -11.5469 35.5312 -11.9219 Q35.5156 -12.2969 35.4531 -12.5547 Q35.3906 -12.8125 35.2734 -12.9609 Q35.1562 -13.1094 34.9688 -13.1953 Q34.7812 -13.2812 34.2812 -13.375 L34.2812 -13.875 L36.6406 -13.9688 L37.2188 -13.9688 L37.2188 -2.6719 Q37.2188 -1.9062 37.25 -1.5781 Q37.2812 -1.25 37.375 -1.0547 Q37.4688 -0.8594 37.6797 -0.7344 Q37.8906 -0.6094 38.4219 -0.5156 L38.4219 0 L36.1094 0.0938 L35.5312 0.0938 L35.6406 -1.5 L35.5 -1.5469 Q34.8906 -0.8906 34.4375 -0.5625 Q33.9844 -0.2344 33.4688 -0.0391 Q32.9531 0.1562 32.3594 0.1562 Q30.7656 0.1562 29.8984 -1.0625 Q29.0312 -2.2812 29.0312 -4.5781 Q29.0312 -6.1719 29.5938 -7.2891 Q30.1562 -8.4062 31.1172 -8.9531 Q32.0781 -9.5 33.2812 -9.5 Q33.9219 -9.5 34.4531 -9.3984 Q34.9844 -9.2969 35.5469 -9.0625 L35.5469 -10.6094 ZM35.5469 -5.7969 Q35.5469 -6.5469 35.4766 -7.0078 Q35.4062 -7.4688 35.2422 -7.7812 Q35.0781 -8.0938 34.8047 -8.3125 Q34.5312 -8.5312 34.2031 -8.625 Q33.875 -8.7188 33.4219 -8.7188 Q32.1719 -8.7188 31.5156 -7.7188 Q30.8594 -6.7188 30.8594 -4.8438 Q30.8594 -2.9688 31.3984 -1.9922 Q31.9375 -1.0156 33.0312 -1.0156 Q33.4531 -1.0156 33.7422 -1.0859 Q34.0312 -1.1562 34.3047 -1.3203 Q34.5781 -1.4844 34.8594 -1.7656 Q35.1406 -2.0469 35.2734 -2.2812 Q35.4062 -2.5156 35.4766 -2.8203 Q35.5469 -3.125 35.5469 -3.6094 L35.5469 -5.7969 ZM39 2.3594 L39 1.2188 L46.4062 1.2188 L46.4062 2.3594 L39 2.3594 ZM49.5781 -7.8281 L49.7188 -7.7969 Q50.3125 -8.375 50.6875 -8.6719 Q51.0625 -8.9688 51.4141 -9.1562 Q51.7656 -9.3438 52.0703 -9.4219 Q52.375 -9.5 52.7031 -9.5 Q53.6719 -9.5 54.2891 -9.0469 Q54.9062 -8.5938 55.1406 -7.6719 Q55.875 -8.4062 56.3281 -8.7578 Q56.7812 -9.1094 57.2578 -9.3047 Q57.7344 -9.5 58.2812 -9.5 Q58.9375 -9.5 59.4062 -9.3047 Q59.875 -9.1094 60.2031 -8.7188 Q60.5312 -8.3281 60.6797 -7.7266 Q60.8281 -7.125 60.8281 -6.125 L60.8281 -2.4375 Q60.8281 -1.7031 60.8828 -1.4219 Q60.9375 -1.1406 61.0312 -0.9844 Q61.125 -0.8281 61.3047 -0.7109 Q61.4844 -0.5938 61.9219 -0.4844 L61.9219 0 L58.0938 0 L58.0938 -0.4844 Q58.4688 -0.5938 58.6328 -0.6797 Q58.7969 -0.7656 58.9141 -0.9219 Q59.0312 -1.0781 59.0938 -1.4062 Q59.1562 -1.7344 59.1562 -2.4062 L59.1562 -4.9688 Q59.1562 -5.7969 59.1094 -6.3359 Q59.0625 -6.875 58.9688 -7.1953 Q58.875 -7.5156 58.75 -7.7031 Q58.625 -7.8906 58.4531 -8.0312 Q58.2812 -8.1719 58.0625 -8.25 Q57.8438 -8.3281 57.4688 -8.3281 Q57.0781 -8.3281 56.7422 -8.1719 Q56.4062 -8.0156 56.0078 -7.6406 Q55.6094 -7.2656 55.4375 -6.8906 Q55.2656 -6.5156 55.2656 -6 L55.2656 -2.4375 Q55.2656 -1.7031 55.3125 -1.4219 Q55.3594 -1.1406 55.4531 -0.9844 Q55.5469 -0.8281 55.7266 -0.7109 Q55.9062 -0.5938 56.3594 -0.4844 L56.3594 0 L52.5156 0 L52.5156 -0.4844 Q52.8906 -0.5938 53.0625 -0.6797 Q53.2344 -0.7656 53.3438 -0.9219 Q53.4531 -1.0781 53.5156 -1.4062 Q53.5781 -1.7344 53.5781 -2.4062 L53.5781 -4.9688 Q53.5781 -5.8281 53.5312 -6.375 Q53.4844 -6.9219 53.3828 -7.2578 Q53.2812 -7.5938 53.1172 -7.7969 Q52.9531 -8 52.7891 -8.1094 Q52.625 -8.2188 52.3984 -8.2734 Q52.1719 -8.3281 51.8906 -8.3281 Q51.4844 -8.3281 51.1328 -8.1406 Q50.7812 -7.9531 50.4141 -7.6172 Q50.0469 -7.2812 49.8672 -6.9062 Q49.6875 -6.5312 49.6875 -6.1094 L49.6875 -2.4375 Q49.6875 -1.8906 49.7109 -1.5938 Q49.7344 -1.2969 49.8047 -1.1328 Q49.875 -0.9688 49.9688 -0.8672 Q50.0625 -0.7656 50.2422 -0.6719 Q50.4219 -0.5781 50.7812 -0.4844 L50.7812 0 L46.9531 0 L46.9531 -0.4844 Q47.3281 -0.5938 47.4922 -0.6797 Q47.6562 -0.7656 47.7734 -0.9219 Q47.8906 -1.0781 47.9453 -1.4062 Q48 -1.7344 48 -2.4062 L48 -6.6719 Q48 -7.2969 47.9844 -7.6797 Q47.9688 -8.0625 47.8516 -8.2891 Q47.7344 -8.5156 47.4922 -8.625 Q47.25 -8.7344 46.8125 -8.8125 L46.8125 -9.3438 L49.0938 -9.4219 L49.6875 -9.4219 L49.5781 -7.8281 ZM66.7344 -13.1719 L66.7344 -11.2656 L64.9375 -11.2656 L64.9375 -13.1719 L66.7344 -13.1719 ZM63.9531 -0.4844 Q64.3281 -0.5938 64.4922 -0.6797 Q64.6562 -0.7656 64.7656 -0.9219 Q64.875 -1.0781 64.9375 -1.4062 Q65 -1.7344 65 -2.4062 L65 -6.6719 Q65 -7.2969 64.9844 -7.6797 Q64.9688 -8.0625 64.8516 -8.2891 Q64.7344 -8.5156 64.4922 -8.625 Q64.25 -8.7344 63.8125 -8.8125 L63.8125 -9.3438 L66.0938 -9.4219 L66.6875 -9.4219 L66.6875 -2.4375 Q66.6875 -1.6094 66.7656 -1.2812 Q66.8438 -0.9531 67.0625 -0.7812 Q67.2812 -0.6094 67.7812 -0.4844 L67.7812 0 L63.9531 0 L63.9531 -0.4844 ZM79.4531 0 L75.6094 0 L75.6094 -0.4844 Q76 -0.5938 76.1641 -0.6797 Q76.3281 -0.7656 76.4375 -0.9219 Q76.5469 -1.0781 76.6094 -1.4062 Q76.6719 -1.7344 76.6719 -2.4062 L76.6719 -4.9688 Q76.6719 -5.6406 76.6328 -6.2031 Q76.5938 -6.7656 76.5 -7.1172 Q76.4062 -7.4688 76.2812 -7.6719 Q76.1562 -7.875 75.9688 -8.0156 Q75.7812 -8.1562 75.5469 -8.2422 Q75.3125 -8.3281 74.9375 -8.3281 Q74.5625 -8.3281 74.2188 -8.1719 Q73.875 -8.0156 73.4609 -7.6484 Q73.0469 -7.2812 72.8672 -6.9141 Q72.6875 -6.5469 72.6875 -6.0781 L72.6875 -2.4375 Q72.6875 -1.6094 72.7656 -1.2812 Q72.8438 -0.9531 73.0625 -0.7812 Q73.2812 -0.6094 73.7812 -0.4844 L73.7812 0 L69.9531 0 L69.9531 -0.4844 Q70.3281 -0.5938 70.4922 -0.6797 Q70.6562 -0.7656 70.7656 -0.9219 Q70.875 -1.0781 70.9375 -1.4062 Q71 -1.7344 71 -2.4062 L71 -6.6719 Q71 -7.2969 70.9844 -7.6797 Q70.9688 -8.0625 70.8516 -8.2891 Q70.7344 -8.5156 70.4922 -8.625 Q70.25 -8.7344 69.8125 -8.8125 L69.8125 -9.3438 L72.0938 -9.4219 L72.6875 -9.4219 L72.5781 -7.8281 L72.7188 -7.7969 Q73.4375 -8.5312 73.8828 -8.8438 Q74.3281 -9.1562 74.7812 -9.3281 Q75.2344 -9.5 75.75 -9.5 Q76.2812 -9.5 76.6953 -9.375 Q77.1094 -9.25 77.4219 -8.9922 Q77.7344 -8.7344 77.9453 -8.3594 Q78.1562 -7.9844 78.2578 -7.4609 Q78.3594 -6.9375 78.3594 -6.125 L78.3594 -2.4375 Q78.3594 -1.7656 78.3984 -1.4609 Q78.4375 -1.1562 78.5312 -0.9922 Q78.625 -0.8281 78.8125 -0.7188 Q79 -0.6094 79.4531 -0.4844 L79.4531 0 ZM89.7031 -8.3438 L87.9062 -8.4219 L87.8125 -8.3125 Q88.1094 -8.0156 88.2891 -7.4922 Q88.4688 -6.9688 88.4688 -6.3594 Q88.4688 -4.7656 87.4844 -3.8984 Q86.5 -3.0312 84.7031 -3.0312 Q83.8906 -3.0312 83.2969 -3.25 Q82.5625 -2.6719 82.5625 -2.125 Q82.5625 -1.7656 82.7031 -1.5781 Q82.8438 -1.3906 83.1719 -1.3125 Q83.5 -1.2344 84.1562 -1.2344 L86.5 -1.2344 Q87.5469 -1.2344 88.1953 -0.9141 Q88.8438 -0.5938 89.125 -0.0547 Q89.4062 0.4844 89.4062 1.2188 Q89.4062 2.125 88.875 2.8438 Q88.3438 3.5625 87.3516 3.9609 Q86.3594 4.3594 85.0312 4.3594 Q84.0469 4.3594 83.2266 4.2422 Q82.4062 4.125 81.8281 3.8516 Q81.25 3.5781 80.9297 3.125 Q80.6094 2.6719 80.6094 1.9844 Q80.6094 1.375 81.0234 0.8672 Q81.4375 0.3594 82.1875 -0.0156 Q81.7344 -0.2031 81.4688 -0.5625 Q81.2031 -0.9219 81.2031 -1.4219 Q81.2031 -1.9688 81.5156 -2.4375 Q81.8281 -2.9062 82.625 -3.5 Q81.9219 -3.9062 81.5547 -4.6094 Q81.1875 -5.3125 81.1875 -6.2188 Q81.1875 -7.0469 81.4609 -7.6719 Q81.7344 -8.2969 82.2266 -8.7031 Q82.7188 -9.1094 83.3984 -9.3047 Q84.0781 -9.5 84.8594 -9.5 Q85.5625 -9.5 86.25 -9.3438 L89.7031 -9.3438 L89.7031 -8.3438 ZM82.9375 -6.375 Q82.9375 -5.1406 83.4297 -4.4766 Q83.9219 -3.8125 84.8594 -3.8125 Q85.3594 -3.8125 85.7109 -4.0078 Q86.0625 -4.2031 86.2812 -4.5312 Q86.5 -4.8594 86.6016 -5.2969 Q86.7031 -5.7344 86.7031 -6.2188 Q86.7031 -7.0781 86.4609 -7.6484 Q86.2188 -8.2188 85.7969 -8.4922 Q85.375 -8.7656 84.8281 -8.7656 Q83.9062 -8.7656 83.4219 -8.1484 Q82.9375 -7.5312 82.9375 -6.375 ZM83.1719 0.1562 Q82.6719 0.5312 82.4219 0.9453 Q82.1719 1.3594 82.1719 1.8906 Q82.1719 2.7656 82.875 3.1797 Q83.5781 3.5938 85.0156 3.5938 Q85.8906 3.5938 86.5234 3.3594 Q87.1562 3.125 87.4844 2.6875 Q87.8125 2.25 87.8125 1.6562 Q87.8125 1.3906 87.7422 1.1328 Q87.6719 0.875 87.4844 0.6641 Q87.2969 0.4531 86.9453 0.3359 Q86.5938 0.2188 86.0312 0.2188 L84.5781 0.2188 Q83.7812 0.2188 83.1719 0.1562 ZM96.5938 -1.3906 L96.4531 -1.4375 Q95.5938 -0.5625 94.8516 -0.2031 Q94.1094 0.1562 93.2656 0.1562 Q92.5156 0.1562 91.9531 -0.1328 Q91.3906 -0.4219 91.0859 -0.9453 Q90.7812 -1.4688 90.7812 -2.1562 Q90.7812 -3.5781 92.1953 -4.3516 Q93.6094 -5.125 96.4219 -5.25 L96.4219 -5.8906 Q96.4219 -6.9062 96.2266 -7.4922 Q96.0312 -8.0781 95.6172 -8.3516 Q95.2031 -8.625 94.5 -8.625 Q93.7344 -8.625 93.2656 -8.2266 Q92.7969 -7.8281 92.5625 -7.0156 L91.2969 -7.0156 L91.2969 -8.2969 Q92.2344 -8.7812 92.8594 -9.0078 Q93.4844 -9.2344 94.1094 -9.3672 Q94.7344 -9.5 95.375 -9.5 Q96.3438 -9.5 96.9297 -9.1953 Q97.5156 -8.8906 97.8047 -8.2578 Q98.0938 -7.625 98.0938 -6.3438 L98.0938 -2.9375 Q98.0938 -2.2188 98.1016 -1.9219 Q98.1094 -1.625 98.1641 -1.3672 Q98.2188 -1.1094 98.3125 -0.9609 Q98.4062 -0.8125 98.6016 -0.7031 Q98.7969 -0.5938 99.2188 -0.4844 L99.2188 0 L96.5469 0 L96.5938 -1.3906 ZM96.4219 -4.4531 Q94.4375 -4.4375 93.4531 -3.9297 Q92.4688 -3.4219 92.4688 -2.3906 Q92.4688 -1.8438 92.6953 -1.5156 Q92.9219 -1.1875 93.2656 -1.0703 Q93.6094 -0.9531 94.0781 -0.9531 Q94.7344 -0.9531 95.2812 -1.2734 Q95.8281 -1.5938 96.125 -2.0938 Q96.4219 -2.5938 96.4219 -3.0781 L96.4219 -4.4531 ZM103.5938 -0.2969 L103.5938 1.7656 Q103.5938 2.4062 103.6406 2.7188 Q103.6875 3.0312 103.7969 3.2109 Q103.9062 3.3906 104.1172 3.5078 Q104.3281 3.625 104.7969 3.7188 L104.7969 4.2031 L100.8125 4.2031 L100.8125 3.7188 Q101.1562 3.625 101.3828 3.5234 Q101.6094 3.4219 101.7266 3.2188 Q101.8438 3.0156 101.8828 2.6719 Q101.9219 2.3281 101.9219 1.7656 L101.9219 -6.6094 Q101.9219 -7.3125 101.8984 -7.6094 Q101.875 -7.9062 101.8203 -8.1016 Q101.7656 -8.2969 101.6484 -8.4297 Q101.5312 -8.5625 101.3438 -8.6484 Q101.1562 -8.7344 100.7188 -8.8125 L100.7188 -9.3438 L103.0156 -9.4219 L103.6094 -9.4219 L103.4844 -7.8281 L103.625 -7.7969 Q104.2344 -8.4062 104.5859 -8.6875 Q104.9375 -8.9688 105.3125 -9.1562 Q105.6875 -9.3438 106.0312 -9.4219 Q106.375 -9.5 106.7656 -9.5 Q108.375 -9.5 109.2422 -8.2891 Q110.1094 -7.0781 110.1094 -4.75 Q110.1094 -3.1406 109.6172 -2.0469 Q109.125 -0.9531 108.1953 -0.3984 Q107.2656 0.1562 105.9844 0.1562 Q105.25 0.1562 104.6641 0.0312 Q104.0781 -0.0938 103.5938 -0.2969 ZM103.5938 -3.5156 Q103.5938 -2.5781 103.7109 -2.0703 Q103.8281 -1.5625 104.125 -1.2422 Q104.4219 -0.9219 104.8281 -0.7656 Q105.2344 -0.6094 105.9062 -0.6094 Q107.0781 -0.6094 107.6719 -1.5938 Q108.2656 -2.5781 108.2656 -4.5 Q108.2656 -8.3281 106.0312 -8.3281 Q105.4844 -8.3281 105.0938 -8.1562 Q104.7031 -7.9844 104.3125 -7.6016 Q103.9219 -7.2188 103.7578 -6.8594 Q103.5938 -6.5 103.5938 -6.0938 L103.5938 -3.5156 Z" stroke="none"/></g><g text-rendering="optimizeLegibility" transform="translate(113.1094,31)" color-rendering="optimizeQuality" color-interpolation="linearRGB" image-rendering="optimizeQuality"><path d="M1.2188 -7.0625 L1.2188 -8.4219 L9.8594 -8.4219 L9.8594 -7.0625 L1.2188 -7.0625 ZM1.2188 -3.0156 L1.2188 -4.3594 L9.8594 -4.3594 L9.8594 -3.0156 L1.2188 -3.0156 Z" stroke="none"/></g><g text-rendering="optimizeLegibility" transform="translate(127.0469,35.1508) matrix(1,0,0,2.3325,0,0)" color-rendering="optimizeQuality" color-interpolation="linearRGB" image-rendering="optimizeQuality"><path d="M7.0781 4.2188 Q5.5625 4.2188 4.6797 3.8281 Q3.7969 3.4375 3.4141 2.6641 Q3.0312 1.8906 3.0312 0.5781 L3.0312 -2.25 Q3.0312 -3.1094 2.8125 -3.5938 Q2.5938 -4.0781 2.1562 -4.2734 Q1.7188 -4.4688 0.9219 -4.4688 L0.9219 -5.2812 Q1.7031 -5.2812 2.1484 -5.4766 Q2.5938 -5.6719 2.8125 -6.1484 Q3.0312 -6.625 3.0312 -7.5 L3.0312 -10.3281 Q3.0312 -11.625 3.4141 -12.4062 Q3.7969 -13.1875 4.6797 -13.5781 Q5.5625 -13.9688 7.0781 -13.9688 L7.3281 -13.9688 L7.3281 -13.1719 Q6.5469 -13.1719 6.1641 -13.0938 Q5.7812 -13.0156 5.5391 -12.8438 Q5.2969 -12.6719 5.1406 -12.4141 Q4.9844 -12.1562 4.8984 -11.6875 Q4.8125 -11.2188 4.8125 -10.4375 L4.8125 -8.5469 Q4.8125 -7.5625 4.6406 -6.8984 Q4.4688 -6.2344 4.0312 -5.7578 Q3.5938 -5.2812 2.8281 -4.9688 L2.8281 -4.7812 Q3.5781 -4.4844 4.0312 -3.9844 Q4.4844 -3.4844 4.6484 -2.8203 Q4.8125 -2.1562 4.8125 -1.2031 L4.8125 0.6875 Q4.8125 1.4688 4.8984 1.9375 Q4.9844 2.4062 5.1406 2.6719 Q5.2969 2.9375 5.5391 3.1016 Q5.7812 3.2656 6.1641 3.3438 Q6.5469 3.4219 7.3281 3.4219 L7.3281 4.2188 L7.0781 4.2188 Z" stroke="none"/></g><g text-rendering="optimizeLegibility" transform="translate(136.375,14.2944)" color-rendering="optimizeQuality" color-interpolation="linearRGB" image-rendering="optimizeQuality"><path d="M10.5312 -0.0469 L9.7656 0.1562 L9.0469 -0.6094 Q8.4219 -0.2188 7.7266 -0.0312 Q7.0312 0.1562 6.1406 0.1562 Q3.6562 0.1562 2.4062 -1.5391 Q1.1562 -3.2344 1.1562 -6.5781 Q1.1562 -8.6562 1.8438 -10.2266 Q2.5312 -11.7969 3.8125 -12.6406 Q5.0938 -13.4844 6.8125 -13.4844 Q7.7188 -13.4844 8.5625 -13.3828 Q9.4062 -13.2812 10.4375 -13.0312 L10.4375 -10.3438 L9.4688 -10.3438 Q9.2031 -11.2188 8.8438 -11.7109 Q8.4844 -12.2031 7.9766 -12.4141 Q7.4688 -12.625 6.7031 -12.625 Q5.6406 -12.625 4.8359 -11.9453 Q4.0312 -11.2656 3.5859 -9.9297 Q3.1406 -8.5938 3.1406 -6.7031 Q3.1406 -4.7969 3.5156 -3.4375 Q3.8906 -2.0781 4.6328 -1.3906 Q5.375 -0.7031 6.4688 -0.7031 Q7.625 -0.7031 8.1797 -1.2031 Q8.7344 -1.7031 8.7344 -2.75 L8.7344 -3.3438 Q8.7344 -4.2188 8.6406 -4.6094 Q8.5469 -5 8.3125 -5.2188 Q8.0781 -5.4375 7.5469 -5.5625 L7.5469 -6.0469 L11.4844 -6.0469 L11.4844 -5.5625 Q11.1406 -5.4531 10.9609 -5.2969 Q10.7812 -5.1406 10.6875 -4.9219 Q10.5938 -4.7031 10.5625 -4.375 Q10.5312 -4.0469 10.5312 -3.4375 L10.5312 -0.0469 ZM19.7812 0 L19.7812 -0.4844 Q20.2656 -0.5781 20.5 -0.6953 Q20.7344 -0.8125 20.8516 -1.0234 Q20.9688 -1.2344 20.9688 -1.5781 Q20.9688 -1.9219 20.8906 -2.3047 Q20.8125 -2.6875 20.6719 -3.1719 L20.3125 -4.4219 L15.7656 -4.4219 L15.4219 -3.4688 Q15.1719 -2.75 15.0938 -2.375 Q15.0156 -2 15.0156 -1.7031 Q15.0156 -1.1094 15.3125 -0.8359 Q15.6094 -0.5625 16.2344 -0.4844 L16.2344 0 L12.0625 0 L12.0625 -0.4844 Q12.6094 -0.5625 13.0156 -1.1094 Q13.4219 -1.6562 13.7969 -2.6719 L17.875 -13.4844 L19.4062 -13.4844 L22.7344 -2.5938 Q22.9688 -1.8438 23.1484 -1.4375 Q23.3281 -1.0312 23.5859 -0.8125 Q23.8438 -0.5938 24.2812 -0.4844 L24.2812 0 L19.7812 0 ZM16.0312 -5.2812 L20.1094 -5.2812 L18.25 -11.5781 L16.0312 -5.2812 ZM28.1562 -2.4688 Q28.1562 -1.8906 28.2188 -1.5547 Q28.2812 -1.2188 28.4141 -1.0156 Q28.5469 -0.8125 28.7656 -0.7031 Q28.9844 -0.5938 29.4688 -0.4844 L29.4688 0 L25.1875 0 L25.1875 -0.4844 Q25.7812 -0.6406 25.9922 -0.8281 Q26.2031 -1.0156 26.2656 -1.3672 Q26.3281 -1.7188 26.3281 -2.4375 L26.3281 -10.8906 Q26.3281 -11.5625 26.2812 -11.8672 Q26.2344 -12.1719 26.1172 -12.3438 Q26 -12.5156 25.8125 -12.6172 Q25.625 -12.7188 25.1875 -12.8594 L25.1875 -13.3281 L30.0312 -13.3281 Q32.3125 -13.3281 33.4297 -12.4531 Q34.5469 -11.5781 34.5469 -9.7969 Q34.5469 -8.7812 34.1953 -7.9688 Q33.8438 -7.1562 33.2031 -6.6406 Q32.5625 -6.125 31.6797 -5.8984 Q30.7969 -5.6719 29.8281 -5.6719 Q28.75 -5.6719 28.1562 -5.7188 L28.1562 -2.4688 ZM28.1562 -6.5312 L29.2812 -6.5312 Q30.3906 -6.5312 31.1094 -6.8125 Q31.8281 -7.0938 32.2031 -7.7656 Q32.5781 -8.4375 32.5781 -9.5469 Q32.5781 -10.375 32.3594 -10.9375 Q32.1406 -11.5 31.7422 -11.8438 Q31.3438 -12.1875 30.7969 -12.3281 Q30.25 -12.4688 29.6094 -12.4688 Q28.6406 -12.4688 28.1562 -12.4375 L28.1562 -6.5312 ZM42.7812 -8.9844 L42.1562 -7.9062 L39.6406 -9.6719 L39.9219 -6.6094 L38.6406 -6.6094 L38.9219 -9.6719 L36.4062 -7.9062 L35.7656 -8.9844 L38.5625 -10.2969 L35.7656 -11.5938 L36.4062 -12.6875 L38.9219 -10.9219 L38.6406 -13.9688 L39.9219 -13.9688 L39.6406 -10.9219 L42.1562 -12.6875 L42.7812 -11.5938 L40 -10.2969 L42.7812 -8.9844 ZM54.0938 -13.3281 L54.0938 -10.375 L53.125 -10.375 Q52.9219 -11.0469 52.7188 -11.4531 Q52.5156 -11.8594 52.2969 -12.0781 Q52.0781 -12.2969 51.7812 -12.3828 Q51.4844 -12.4688 51.0156 -12.4688 L48.1562 -12.4688 L48.1562 -7.1562 L50.1562 -7.1562 Q50.5938 -7.1562 50.8359 -7.2969 Q51.0781 -7.4375 51.2422 -7.7734 Q51.4062 -8.1094 51.5469 -8.7969 L52.4688 -8.7969 L52.4688 -4.6719 L51.5469 -4.6719 Q51.4062 -5.3438 51.2422 -5.6797 Q51.0781 -6.0156 50.8438 -6.1562 Q50.6094 -6.2969 50.1562 -6.2969 L48.1562 -6.2969 L48.1562 -2.4688 Q48.1562 -1.8906 48.2188 -1.5391 Q48.2812 -1.1875 48.4375 -0.9766 Q48.5938 -0.7656 48.8594 -0.6641 Q49.125 -0.5625 49.5156 -0.4844 L49.5156 0 L45.1875 0 L45.1875 -0.4844 Q45.7812 -0.6406 45.9922 -0.8281 Q46.2031 -1.0156 46.2656 -1.3672 Q46.3281 -1.7188 46.3281 -2.4375 L46.3281 -10.8906 Q46.3281 -11.5625 46.2812 -11.8672 Q46.2344 -12.1719 46.1172 -12.3438 Q46 -12.5156 45.8125 -12.6172 Q45.625 -12.7188 45.1875 -12.8594 L45.1875 -13.3281 L54.0938 -13.3281 ZM70.125 -12.8594 Q69.7031 -12.75 69.5078 -12.6406 Q69.3125 -12.5312 69.2031 -12.3672 Q69.0938 -12.2031 69.0391 -11.8828 Q68.9844 -11.5625 68.9844 -10.8906 L68.9844 -2.4375 Q68.9844 -1.7812 69.0312 -1.4844 Q69.0781 -1.1875 69.1797 -1.0078 Q69.2812 -0.8281 69.4766 -0.7109 Q69.6719 -0.5938 70.125 -0.4844 L70.125 0 L66.0625 0 L66.0625 -0.4844 Q66.6094 -0.6094 66.8281 -0.7891 Q67.0469 -0.9688 67.125 -1.3125 Q67.2031 -1.6562 67.2031 -2.4375 L67.2031 -6.1875 Q67.2031 -7.6562 67.2422 -9.1641 Q67.2812 -10.6719 67.3438 -11.2344 L67.1719 -11.2344 L63.3125 -1.5469 L62.1875 -1.5469 L58.5938 -11.3906 L58.4219 -11.3906 Q58.4844 -10.7969 58.5234 -9.2344 Q58.5625 -7.6719 58.5625 -6.0156 L58.5625 -2.4375 Q58.5625 -1.7812 58.6094 -1.4844 Q58.6562 -1.1875 58.7578 -1.0078 Q58.8594 -0.8281 59.0625 -0.7109 Q59.2656 -0.5938 59.7031 -0.4844 L59.7031 0 L56.1406 0 L56.1406 -0.4844 Q56.75 -0.6406 56.9531 -0.8281 Q57.1562 -1.0156 57.2188 -1.3672 Q57.2812 -1.7188 57.2812 -2.4375 L57.2812 -10.8906 Q57.2812 -11.5625 57.2344 -11.8672 Q57.1875 -12.1719 57.0781 -12.3438 Q56.9688 -12.5156 56.7812 -12.6172 Q56.5938 -12.7188 56.1406 -12.8594 L56.1406 -13.3281 L59.625 -13.3281 L63.0625 -3.8281 L66.8281 -13.3281 L70.125 -13.3281 L70.125 -12.8594 ZM81.5312 -0.0469 L80.7656 0.1562 L80.0469 -0.6094 Q79.4219 -0.2188 78.7266 -0.0312 Q78.0312 0.1562 77.1406 0.1562 Q74.6562 0.1562 73.4062 -1.5391 Q72.1562 -3.2344 72.1562 -6.5781 Q72.1562 -8.6562 72.8438 -10.2266 Q73.5312 -11.7969 74.8125 -12.6406 Q76.0938 -13.4844 77.8125 -13.4844 Q78.7188 -13.4844 79.5625 -13.3828 Q80.4062 -13.2812 81.4375 -13.0312 L81.4375 -10.3438 L80.4688 -10.3438 Q80.2031 -11.2188 79.8438 -11.7109 Q79.4844 -12.2031 78.9766 -12.4141 Q78.4688 -12.625 77.7031 -12.625 Q76.6406 -12.625 75.8359 -11.9453 Q75.0312 -11.2656 74.5859 -9.9297 Q74.1406 -8.5938 74.1406 -6.7031 Q74.1406 -4.7969 74.5156 -3.4375 Q74.8906 -2.0781 75.6328 -1.3906 Q76.375 -0.7031 77.4688 -0.7031 Q78.625 -0.7031 79.1797 -1.2031 Q79.7344 -1.7031 79.7344 -2.75 L79.7344 -3.3438 Q79.7344 -4.2188 79.6406 -4.6094 Q79.5469 -5 79.3125 -5.2188 Q79.0781 -5.4375 78.5469 -5.5625 L78.5469 -6.0469 L82.4844 -6.0469 L82.4844 -5.5625 Q82.1406 -5.4531 81.9609 -5.2969 Q81.7812 -5.1406 81.6875 -4.9219 Q81.5938 -4.7031 81.5625 -4.375 Q81.5312 -4.0469 81.5312 -3.4375 L81.5312 -0.0469 ZM93.0938 -13.3281 L93.0938 -10.375 L92.125 -10.375 Q91.9219 -11.0469 91.7188 -11.4531 Q91.5156 -11.8594 91.2969 -12.0781 Q91.0781 -12.2969 90.7812 -12.3828 Q90.4844 -12.4688 90.0156 -12.4688 L87.1562 -12.4688 L87.1562 -7.1562 L89.1562 -7.1562 Q89.5938 -7.1562 89.8359 -7.2969 Q90.0781 -7.4375 90.2422 -7.7734 Q90.4062 -8.1094 90.5469 -8.7969 L91.4688 -8.7969 L91.4688 -4.6719 L90.5469 -4.6719 Q90.4062 -5.3438 90.2422 -5.6797 Q90.0781 -6.0156 89.8438 -6.1562 Q89.6094 -6.2969 89.1562 -6.2969 L87.1562 -6.2969 L87.1562 -2.4688 Q87.1562 -1.8906 87.2188 -1.5391 Q87.2812 -1.1875 87.4375 -0.9766 Q87.5938 -0.7656 87.8594 -0.6641 Q88.125 -0.5625 88.5156 -0.4844 L88.5156 0 L84.1875 0 L84.1875 -0.4844 Q84.7812 -0.6406 84.9922 -0.8281 Q85.2031 -1.0156 85.2656 -1.3672 Q85.3281 -1.7188 85.3281 -2.4375 L85.3281 -10.8906 Q85.3281 -11.5625 85.2812 -11.8672 Q85.2344 -12.1719 85.1172 -12.3438 Q85 -12.5156 84.8125 -12.6172 Q84.625 -12.7188 84.1875 -12.8594 L84.1875 -13.3281 L93.0938 -13.3281 Z" stroke="none"/></g><g text-rendering="optimizeLegibility" transform="translate(249.4688,14.2944)" color-rendering="optimizeQuality" color-interpolation="linearRGB" image-rendering="optimizeQuality"><path d="M3.7344 -13.1719 L3.7344 -11.2656 L1.9375 -11.2656 L1.9375 -13.1719 L3.7344 -13.1719 ZM0.9531 -0.4844 Q1.3281 -0.5938 1.4922 -0.6797 Q1.6562 -0.7656 1.7656 -0.9219 Q1.875 -1.0781 1.9375 -1.4062 Q2 -1.7344 2 -2.4062 L2 -6.6719 Q2 -7.2969 1.9844 -7.6797 Q1.9688 -8.0625 1.8516 -8.2891 Q1.7344 -8.5156 1.4922 -8.625 Q1.25 -8.7344 0.8125 -8.8125 L0.8125 -9.3438 L3.0938 -9.4219 L3.6875 -9.4219 L3.6875 -2.4375 Q3.6875 -1.6094 3.7656 -1.2812 Q3.8438 -0.9531 4.0625 -0.7812 Q4.2812 -0.6094 4.7812 -0.4844 L4.7812 0 L0.9531 0 L0.9531 -0.4844 ZM11.9688 -8.3438 L9.6406 -8.3438 L9.6406 -2.4375 Q9.6406 -1.7812 9.7031 -1.4531 Q9.7656 -1.125 9.8828 -0.9531 Q10 -0.7812 10.2031 -0.6797 Q10.4062 -0.5781 10.8438 -0.4844 L10.8438 0 L6.8438 0 L6.8438 -0.4844 Q7.2812 -0.5938 7.4688 -0.7031 Q7.6562 -0.8125 7.7578 -0.9766 Q7.8594 -1.1406 7.9062 -1.4531 Q7.9531 -1.7656 7.9531 -2.4375 L7.9531 -8.3438 L6.7656 -8.3438 L6.7656 -8.8438 Q7.1406 -8.9062 7.2656 -8.9375 Q7.3906 -8.9688 7.5 -9.0391 Q7.6094 -9.1094 7.6953 -9.2344 Q7.7812 -9.3594 7.8438 -9.6094 Q7.9062 -9.8594 7.9375 -10.3125 Q8.0312 -11.375 8.3281 -12.0391 Q8.625 -12.7031 9.1953 -13.1719 Q9.7656 -13.6406 10.4141 -13.8359 Q11.0625 -14.0312 11.9531 -14.0312 Q12.7188 -14.0312 13.25 -13.9219 L13.25 -12.1562 L12.2969 -12.1562 Q12.1094 -12.7188 11.8594 -12.9609 Q11.6094 -13.2031 11.1562 -13.2031 Q10.8281 -13.2031 10.6094 -13.1172 Q10.3906 -13.0312 10.2109 -12.8438 Q10.0312 -12.6562 9.8984 -12.3438 Q9.7656 -12.0312 9.7031 -11.5703 Q9.6406 -11.1094 9.6406 -10.3594 L9.6406 -9.3438 L11.9688 -9.3438 L11.9688 -8.3438 ZM26.0938 -13.3281 L26.0938 -10.375 L25.125 -10.375 Q24.9219 -11.0469 24.7188 -11.4531 Q24.5156 -11.8594 24.2969 -12.0781 Q24.0781 -12.2969 23.7812 -12.3828 Q23.4844 -12.4688 23.0156 -12.4688 L20.1562 -12.4688 L20.1562 -7.1562 L22.1562 -7.1562 Q22.5938 -7.1562 22.8359 -7.2969 Q23.0781 -7.4375 23.2422 -7.7734 Q23.4062 -8.1094 23.5469 -8.7969 L24.4688 -8.7969 L24.4688 -4.6719 L23.5469 -4.6719 Q23.4062 -5.3438 23.2422 -5.6797 Q23.0781 -6.0156 22.8438 -6.1562 Q22.6094 -6.2969 22.1562 -6.2969 L20.1562 -6.2969 L20.1562 -2.4688 Q20.1562 -1.8906 20.2188 -1.5391 Q20.2812 -1.1875 20.4375 -0.9766 Q20.5938 -0.7656 20.8594 -0.6641 Q21.125 -0.5625 21.5156 -0.4844 L21.5156 0 L17.1875 0 L17.1875 -0.4844 Q17.7812 -0.6406 17.9922 -0.8281 Q18.2031 -1.0156 18.2656 -1.3672 Q18.3281 -1.7188 18.3281 -2.4375 L18.3281 -10.8906 Q18.3281 -11.5625 18.2812 -11.8672 Q18.2344 -12.1719 18.1172 -12.3438 Q18 -12.5156 17.8125 -12.6172 Q17.625 -12.7188 17.1875 -12.8594 L17.1875 -13.3281 L26.0938 -13.3281 ZM42.125 -12.8594 Q41.7031 -12.75 41.5078 -12.6406 Q41.3125 -12.5312 41.2031 -12.3672 Q41.0938 -12.2031 41.0391 -11.8828 Q40.9844 -11.5625 40.9844 -10.8906 L40.9844 -2.4375 Q40.9844 -1.7812 41.0312 -1.4844 Q41.0781 -1.1875 41.1797 -1.0078 Q41.2812 -0.8281 41.4766 -0.7109 Q41.6719 -0.5938 42.125 -0.4844 L42.125 0 L38.0625 0 L38.0625 -0.4844 Q38.6094 -0.6094 38.8281 -0.7891 Q39.0469 -0.9688 39.125 -1.3125 Q39.2031 -1.6562 39.2031 -2.4375 L39.2031 -6.1875 Q39.2031 -7.6562 39.2422 -9.1641 Q39.2812 -10.6719 39.3438 -11.2344 L39.1719 -11.2344 L35.3125 -1.5469 L34.1875 -1.5469 L30.5938 -11.3906 L30.4219 -11.3906 Q30.4844 -10.7969 30.5234 -9.2344 Q30.5625 -7.6719 30.5625 -6.0156 L30.5625 -2.4375 Q30.5625 -1.7812 30.6094 -1.4844 Q30.6562 -1.1875 30.7578 -1.0078 Q30.8594 -0.8281 31.0625 -0.7109 Q31.2656 -0.5938 31.7031 -0.4844 L31.7031 0 L28.1406 0 L28.1406 -0.4844 Q28.75 -0.6406 28.9531 -0.8281 Q29.1562 -1.0156 29.2188 -1.3672 Q29.2812 -1.7188 29.2812 -2.4375 L29.2812 -10.8906 Q29.2812 -11.5625 29.2344 -11.8672 Q29.1875 -12.1719 29.0781 -12.3438 Q28.9688 -12.5156 28.7812 -12.6172 Q28.5938 -12.7188 28.1406 -12.8594 L28.1406 -13.3281 L31.625 -13.3281 L35.0625 -3.8281 L38.8281 -13.3281 L42.125 -13.3281 L42.125 -12.8594 ZM53.5312 -0.0469 L52.7656 0.1562 L52.0469 -0.6094 Q51.4219 -0.2188 50.7266 -0.0312 Q50.0312 0.1562 49.1406 0.1562 Q46.6562 0.1562 45.4062 -1.5391 Q44.1562 -3.2344 44.1562 -6.5781 Q44.1562 -8.6562 44.8438 -10.2266 Q45.5312 -11.7969 46.8125 -12.6406 Q48.0938 -13.4844 49.8125 -13.4844 Q50.7188 -13.4844 51.5625 -13.3828 Q52.4062 -13.2812 53.4375 -13.0312 L53.4375 -10.3438 L52.4688 -10.3438 Q52.2031 -11.2188 51.8438 -11.7109 Q51.4844 -12.2031 50.9766 -12.4141 Q50.4688 -12.625 49.7031 -12.625 Q48.6406 -12.625 47.8359 -11.9453 Q47.0312 -11.2656 46.5859 -9.9297 Q46.1406 -8.5938 46.1406 -6.7031 Q46.1406 -4.7969 46.5156 -3.4375 Q46.8906 -2.0781 47.6328 -1.3906 Q48.375 -0.7031 49.4688 -0.7031 Q50.625 -0.7031 51.1797 -1.2031 Q51.7344 -1.7031 51.7344 -2.75 L51.7344 -3.3438 Q51.7344 -4.2188 51.6406 -4.6094 Q51.5469 -5 51.3125 -5.2188 Q51.0781 -5.4375 50.5469 -5.5625 L50.5469 -6.0469 L54.4844 -6.0469 L54.4844 -5.5625 Q54.1406 -5.4531 53.9609 -5.2969 Q53.7812 -5.1406 53.6875 -4.9219 Q53.5938 -4.7031 53.5625 -4.375 Q53.5312 -4.0469 53.5312 -3.4375 L53.5312 -0.0469 ZM65.0938 -13.3281 L65.0938 -10.375 L64.125 -10.375 Q63.9219 -11.0469 63.7188 -11.4531 Q63.5156 -11.8594 63.2969 -12.0781 Q63.0781 -12.2969 62.7812 -12.3828 Q62.4844 -12.4688 62.0156 -12.4688 L59.1562 -12.4688 L59.1562 -7.1562 L61.1562 -7.1562 Q61.5938 -7.1562 61.8359 -7.2969 Q62.0781 -7.4375 62.2422 -7.7734 Q62.4062 -8.1094 62.5469 -8.7969 L63.4688 -8.7969 L63.4688 -4.6719 L62.5469 -4.6719 Q62.4062 -5.3438 62.2422 -5.6797 Q62.0781 -6.0156 61.8438 -6.1562 Q61.6094 -6.2969 61.1562 -6.2969 L59.1562 -6.2969 L59.1562 -2.4688 Q59.1562 -1.8906 59.2188 -1.5391 Q59.2812 -1.1875 59.4375 -0.9766 Q59.5938 -0.7656 59.8594 -0.6641 Q60.125 -0.5625 60.5156 -0.4844 L60.5156 0 L56.1875 0 L56.1875 -0.4844 Q56.7812 -0.6406 56.9922 -0.8281 Q57.2031 -1.0156 57.2656 -1.3672 Q57.3281 -1.7188 57.3281 -2.4375 L57.3281 -10.8906 Q57.3281 -11.5625 57.2812 -11.8672 Q57.2344 -12.1719 57.1172 -12.3438 Q57 -12.5156 56.8125 -12.6172 Q56.625 -12.7188 56.1875 -12.8594 L56.1875 -13.3281 L65.0938 -13.3281 Z" stroke="none"/></g><g text-rendering="optimizeLegibility" transform="translate(315.3438,14.2944)" color-rendering="optimizeQuality" color-interpolation="linearRGB" image-rendering="optimizeQuality"><path d="M1.2188 -1.3125 L1.2188 -2.7812 L8.4219 -5.7188 L1.2188 -8.6562 L1.2188 -10.125 L9.8594 -6.3906 L9.8594 -5.0312 L1.2188 -1.3125 Z" stroke="none"/></g><g text-rendering="optimizeLegibility" transform="translate(327.2031,14.2944)" color-rendering="optimizeQuality" color-interpolation="linearRGB" image-rendering="optimizeQuality"><path d="M5.4375 0.1562 Q3.3281 0.1562 2.2969 -1.5078 Q1.2656 -3.1719 1.2656 -6.5469 Q1.2656 -8.3438 1.5781 -9.6484 Q1.8906 -10.9531 2.4609 -11.8125 Q3.0312 -12.6719 3.8359 -13.0781 Q4.6406 -13.4844 5.5938 -13.4844 Q7.7188 -13.4844 8.7656 -11.8359 Q9.8125 -10.1875 9.8125 -6.8438 Q9.8125 -3.3906 8.6953 -1.6172 Q7.5781 0.1562 5.4375 0.1562 ZM3.1719 -6.8438 Q3.1719 -3.6562 3.7578 -2.1641 Q4.3438 -0.6719 5.5938 -0.6719 Q6.7656 -0.6719 7.3359 -2.0781 Q7.9062 -3.4844 7.9062 -6.4219 Q7.9062 -8.6562 7.6172 -10.0547 Q7.3281 -11.4531 6.8047 -12.0547 Q6.2812 -12.6562 5.5312 -12.6562 Q4.8594 -12.6562 4.4062 -12.2578 Q3.9531 -11.8594 3.6797 -11.1094 Q3.4062 -10.3594 3.2891 -9.2734 Q3.1719 -8.1875 3.1719 -6.8438 Z" stroke="none"/></g><g text-rendering="optimizeLegibility" transform="translate(135.9688,42.0126) matrix(1,0,0,1.2572,0,0)" color-rendering="optimizeQuality" color-interpolation="linearRGB" image-rendering="optimizeQuality"><path d="M3.9219 4.2031 L2.4062 4.2031 L2.4062 -13.9688 L3.9219 -13.9688 L3.9219 4.2031 Z" stroke="none"/></g><g text-rendering="optimizeLegibility" transform="translate(141.8906,43.0938)" color-rendering="optimizeQuality" color-interpolation="linearRGB" image-rendering="optimizeQuality"><path d="M10.0938 -13.3281 L10.0938 -10.375 L9.125 -10.375 Q8.9219 -11.0469 8.7188 -11.4531 Q8.5156 -11.8594 8.2969 -12.0781 Q8.0781 -12.2969 7.7812 -12.3828 Q7.4844 -12.4688 7.0156 -12.4688 L4.1562 -12.4688 L4.1562 -7.1562 L6.1562 -7.1562 Q6.5938 -7.1562 6.8359 -7.2969 Q7.0781 -7.4375 7.2422 -7.7734 Q7.4062 -8.1094 7.5469 -8.7969 L8.4688 -8.7969 L8.4688 -4.6719 L7.5469 -4.6719 Q7.4062 -5.3438 7.2422 -5.6797 Q7.0781 -6.0156 6.8438 -6.1562 Q6.6094 -6.2969 6.1562 -6.2969 L4.1562 -6.2969 L4.1562 -2.4688 Q4.1562 -1.8906 4.2188 -1.5391 Q4.2812 -1.1875 4.4375 -0.9766 Q4.5938 -0.7656 4.8594 -0.6641 Q5.125 -0.5625 5.5156 -0.4844 L5.5156 0 L1.1875 0 L1.1875 -0.4844 Q1.7812 -0.6406 1.9922 -0.8281 Q2.2031 -1.0156 2.2656 -1.3672 Q2.3281 -1.7188 2.3281 -2.4375 L2.3281 -10.8906 Q2.3281 -11.5625 2.2812 -11.8672 Q2.2344 -12.1719 2.1172 -12.3438 Q2 -12.5156 1.8125 -12.6172 Q1.625 -12.7188 1.1875 -12.8594 L1.1875 -13.3281 L10.0938 -13.3281 ZM26.125 -12.8594 Q25.7031 -12.75 25.5078 -12.6406 Q25.3125 -12.5312 25.2031 -12.3672 Q25.0938 -12.2031 25.0391 -11.8828 Q24.9844 -11.5625 24.9844 -10.8906 L24.9844 -2.4375 Q24.9844 -1.7812 25.0312 -1.4844 Q25.0781 -1.1875 25.1797 -1.0078 Q25.2812 -0.8281 25.4766 -0.7109 Q25.6719 -0.5938 26.125 -0.4844 L26.125 0 L22.0625 0 L22.0625 -0.4844 Q22.6094 -0.6094 22.8281 -0.7891 Q23.0469 -0.9688 23.125 -1.3125 Q23.2031 -1.6562 23.2031 -2.4375 L23.2031 -6.1875 Q23.2031 -7.6562 23.2422 -9.1641 Q23.2812 -10.6719 23.3438 -11.2344 L23.1719 -11.2344 L19.3125 -1.5469 L18.1875 -1.5469 L14.5938 -11.3906 L14.4219 -11.3906 Q14.4844 -10.7969 14.5234 -9.2344 Q14.5625 -7.6719 14.5625 -6.0156 L14.5625 -2.4375 Q14.5625 -1.7812 14.6094 -1.4844 Q14.6562 -1.1875 14.7578 -1.0078 Q14.8594 -0.8281 15.0625 -0.7109 Q15.2656 -0.5938 15.7031 -0.4844 L15.7031 0 L12.1406 0 L12.1406 -0.4844 Q12.75 -0.6406 12.9531 -0.8281 Q13.1562 -1.0156 13.2188 -1.3672 Q13.2812 -1.7188 13.2812 -2.4375 L13.2812 -10.8906 Q13.2812 -11.5625 13.2344 -11.8672 Q13.1875 -12.1719 13.0781 -12.3438 Q12.9688 -12.5156 12.7812 -12.6172 Q12.5938 -12.7188 12.1406 -12.8594 L12.1406 -13.3281 L15.625 -13.3281 L19.0625 -3.8281 L22.8281 -13.3281 L26.125 -13.3281 L26.125 -12.8594 ZM37.5312 -0.0469 L36.7656 0.1562 L36.0469 -0.6094 Q35.4219 -0.2188 34.7266 -0.0312 Q34.0312 0.1562 33.1406 0.1562 Q30.6562 0.1562 29.4062 -1.5391 Q28.1562 -3.2344 28.1562 -6.5781 Q28.1562 -8.6562 28.8438 -10.2266 Q29.5312 -11.7969 30.8125 -12.6406 Q32.0938 -13.4844 33.8125 -13.4844 Q34.7188 -13.4844 35.5625 -13.3828 Q36.4062 -13.2812 37.4375 -13.0312 L37.4375 -10.3438 L36.4688 -10.3438 Q36.2031 -11.2188 35.8438 -11.7109 Q35.4844 -12.2031 34.9766 -12.4141 Q34.4688 -12.625 33.7031 -12.625 Q32.6406 -12.625 31.8359 -11.9453 Q31.0312 -11.2656 30.5859 -9.9297 Q30.1406 -8.5938 30.1406 -6.7031 Q30.1406 -4.7969 30.5156 -3.4375 Q30.8906 -2.0781 31.6328 -1.3906 Q32.375 -0.7031 33.4688 -0.7031 Q34.625 -0.7031 35.1797 -1.2031 Q35.7344 -1.7031 35.7344 -2.75 L35.7344 -3.3438 Q35.7344 -4.2188 35.6406 -4.6094 Q35.5469 -5 35.3125 -5.2188 Q35.0781 -5.4375 34.5469 -5.5625 L34.5469 -6.0469 L38.4844 -6.0469 L38.4844 -5.5625 Q38.1406 -5.4531 37.9609 -5.2969 Q37.7812 -5.1406 37.6875 -4.9219 Q37.5938 -4.7031 37.5625 -4.375 Q37.5312 -4.0469 37.5312 -3.4375 L37.5312 -0.0469 ZM49.0938 -13.3281 L49.0938 -10.375 L48.125 -10.375 Q47.9219 -11.0469 47.7188 -11.4531 Q47.5156 -11.8594 47.2969 -12.0781 Q47.0781 -12.2969 46.7812 -12.3828 Q46.4844 -12.4688 46.0156 -12.4688 L43.1562 -12.4688 L43.1562 -7.1562 L45.1562 -7.1562 Q45.5938 -7.1562 45.8359 -7.2969 Q46.0781 -7.4375 46.2422 -7.7734 Q46.4062 -8.1094 46.5469 -8.7969 L47.4688 -8.7969 L47.4688 -4.6719 L46.5469 -4.6719 Q46.4062 -5.3438 46.2422 -5.6797 Q46.0781 -6.0156 45.8438 -6.1562 Q45.6094 -6.2969 45.1562 -6.2969 L43.1562 -6.2969 L43.1562 -2.4688 Q43.1562 -1.8906 43.2188 -1.5391 Q43.2812 -1.1875 43.4375 -0.9766 Q43.5938 -0.7656 43.8594 -0.6641 Q44.125 -0.5625 44.5156 -0.4844 L44.5156 0 L40.1875 0 L40.1875 -0.4844 Q40.7812 -0.6406 40.9922 -0.8281 Q41.2031 -1.0156 41.2656 -1.3672 Q41.3281 -1.7188 41.3281 -2.4375 L41.3281 -10.8906 Q41.3281 -11.5625 41.2812 -11.8672 Q41.2344 -12.1719 41.1172 -12.3438 Q41 -12.5156 40.8125 -12.6172 Q40.625 -12.7188 40.1875 -12.8594 L40.1875 -13.3281 L49.0938 -13.3281 Z" stroke="none"/></g><g text-rendering="optimizeLegibility" transform="translate(190.5781,42.0126) matrix(1,0,0,1.2572,0,0)" color-rendering="optimizeQuality" color-interpolation="linearRGB" image-rendering="optimizeQuality"><path d="M3.9219 4.2031 L2.4062 4.2031 L2.4062 -13.9688 L3.9219 -13.9688 L3.9219 4.2031 Z" stroke="none"/></g><g text-rendering="optimizeLegibility" transform="translate(250.5,43.0938)" color-rendering="optimizeQuality" color-interpolation="linearRGB" image-rendering="optimizeQuality"><path d="M3.7344 -13.1719 L3.7344 -11.2656 L1.9375 -11.2656 L1.9375 -13.1719 L3.7344 -13.1719 ZM0.9531 -0.4844 Q1.3281 -0.5938 1.4922 -0.6797 Q1.6562 -0.7656 1.7656 -0.9219 Q1.875 -1.0781 1.9375 -1.4062 Q2 -1.7344 2 -2.4062 L2 -6.6719 Q2 -7.2969 1.9844 -7.6797 Q1.9688 -8.0625 1.8516 -8.2891 Q1.7344 -8.5156 1.4922 -8.625 Q1.25 -8.7344 0.8125 -8.8125 L0.8125 -9.3438 L3.0938 -9.4219 L3.6875 -9.4219 L3.6875 -2.4375 Q3.6875 -1.6094 3.7656 -1.2812 Q3.8438 -0.9531 4.0625 -0.7812 Q4.2812 -0.6094 4.7812 -0.4844 L4.7812 0 L0.9531 0 L0.9531 -0.4844 ZM11.9688 -8.3438 L9.6406 -8.3438 L9.6406 -2.4375 Q9.6406 -1.7812 9.7031 -1.4531 Q9.7656 -1.125 9.8828 -0.9531 Q10 -0.7812 10.2031 -0.6797 Q10.4062 -0.5781 10.8438 -0.4844 L10.8438 0 L6.8438 0 L6.8438 -0.4844 Q7.2812 -0.5938 7.4688 -0.7031 Q7.6562 -0.8125 7.7578 -0.9766 Q7.8594 -1.1406 7.9062 -1.4531 Q7.9531 -1.7656 7.9531 -2.4375 L7.9531 -8.3438 L6.7656 -8.3438 L6.7656 -8.8438 Q7.1406 -8.9062 7.2656 -8.9375 Q7.3906 -8.9688 7.5 -9.0391 Q7.6094 -9.1094 7.6953 -9.2344 Q7.7812 -9.3594 7.8438 -9.6094 Q7.9062 -9.8594 7.9375 -10.3125 Q8.0312 -11.375 8.3281 -12.0391 Q8.625 -12.7031 9.1953 -13.1719 Q9.7656 -13.6406 10.4141 -13.8359 Q11.0625 -14.0312 11.9531 -14.0312 Q12.7188 -14.0312 13.25 -13.9219 L13.25 -12.1562 L12.2969 -12.1562 Q12.1094 -12.7188 11.8594 -12.9609 Q11.6094 -13.2031 11.1562 -13.2031 Q10.8281 -13.2031 10.6094 -13.1172 Q10.3906 -13.0312 10.2109 -12.8438 Q10.0312 -12.6562 9.8984 -12.3438 Q9.7656 -12.0312 9.7031 -11.5703 Q9.6406 -11.1094 9.6406 -10.3594 L9.6406 -9.3438 L11.9688 -9.3438 L11.9688 -8.3438 ZM26.0938 -13.3281 L26.0938 -10.375 L25.125 -10.375 Q24.9219 -11.0469 24.7188 -11.4531 Q24.5156 -11.8594 24.2969 -12.0781 Q24.0781 -12.2969 23.7812 -12.3828 Q23.4844 -12.4688 23.0156 -12.4688 L20.1562 -12.4688 L20.1562 -7.1562 L22.1562 -7.1562 Q22.5938 -7.1562 22.8359 -7.2969 Q23.0781 -7.4375 23.2422 -7.7734 Q23.4062 -8.1094 23.5469 -8.7969 L24.4688 -8.7969 L24.4688 -4.6719 L23.5469 -4.6719 Q23.4062 -5.3438 23.2422 -5.6797 Q23.0781 -6.0156 22.8438 -6.1562 Q22.6094 -6.2969 22.1562 -6.2969 L20.1562 -6.2969 L20.1562 -2.4688 Q20.1562 -1.8906 20.2188 -1.5391 Q20.2812 -1.1875 20.4375 -0.9766 Q20.5938 -0.7656 20.8594 -0.6641 Q21.125 -0.5625 21.5156 -0.4844 L21.5156 0 L17.1875 0 L17.1875 -0.4844 Q17.7812 -0.6406 17.9922 -0.8281 Q18.2031 -1.0156 18.2656 -1.3672 Q18.3281 -1.7188 18.3281 -2.4375 L18.3281 -10.8906 Q18.3281 -11.5625 18.2812 -11.8672 Q18.2344 -12.1719 18.1172 -12.3438 Q18 -12.5156 17.8125 -12.6172 Q17.625 -12.7188 17.1875 -12.8594 L17.1875 -13.3281 L26.0938 -13.3281 ZM42.125 -12.8594 Q41.7031 -12.75 41.5078 -12.6406 Q41.3125 -12.5312 41.2031 -12.3672 Q41.0938 -12.2031 41.0391 -11.8828 Q40.9844 -11.5625 40.9844 -10.8906 L40.9844 -2.4375 Q40.9844 -1.7812 41.0312 -1.4844 Q41.0781 -1.1875 41.1797 -1.0078 Q41.2812 -0.8281 41.4766 -0.7109 Q41.6719 -0.5938 42.125 -0.4844 L42.125 0 L38.0625 0 L38.0625 -0.4844 Q38.6094 -0.6094 38.8281 -0.7891 Q39.0469 -0.9688 39.125 -1.3125 Q39.2031 -1.6562 39.2031 -2.4375 L39.2031 -6.1875 Q39.2031 -7.6562 39.2422 -9.1641 Q39.2812 -10.6719 39.3438 -11.2344 L39.1719 -11.2344 L35.3125 -1.5469 L34.1875 -1.5469 L30.5938 -11.3906 L30.4219 -11.3906 Q30.4844 -10.7969 30.5234 -9.2344 Q30.5625 -7.6719 30.5625 -6.0156 L30.5625 -2.4375 Q30.5625 -1.7812 30.6094 -1.4844 Q30.6562 -1.1875 30.7578 -1.0078 Q30.8594 -0.8281 31.0625 -0.7109 Q31.2656 -0.5938 31.7031 -0.4844 L31.7031 0 L28.1406 0 L28.1406 -0.4844 Q28.75 -0.6406 28.9531 -0.8281 Q29.1562 -1.0156 29.2188 -1.3672 Q29.2812 -1.7188 29.2812 -2.4375 L29.2812 -10.8906 Q29.2812 -11.5625 29.2344 -11.8672 Q29.1875 -12.1719 29.0781 -12.3438 Q28.9688 -12.5156 28.7812 -12.6172 Q28.5938 -12.7188 28.1406 -12.8594 L28.1406 -13.3281 L31.625 -13.3281 L35.0625 -3.8281 L38.8281 -13.3281 L42.125 -13.3281 L42.125 -12.8594 ZM53.5312 -0.0469 L52.7656 0.1562 L52.0469 -0.6094 Q51.4219 -0.2188 50.7266 -0.0312 Q50.0312 0.1562 49.1406 0.1562 Q46.6562 0.1562 45.4062 -1.5391 Q44.1562 -3.2344 44.1562 -6.5781 Q44.1562 -8.6562 44.8438 -10.2266 Q45.5312 -11.7969 46.8125 -12.6406 Q48.0938 -13.4844 49.8125 -13.4844 Q50.7188 -13.4844 51.5625 -13.3828 Q52.4062 -13.2812 53.4375 -13.0312 L53.4375 -10.3438 L52.4688 -10.3438 Q52.2031 -11.2188 51.8438 -11.7109 Q51.4844 -12.2031 50.9766 -12.4141 Q50.4688 -12.625 49.7031 -12.625 Q48.6406 -12.625 47.8359 -11.9453 Q47.0312 -11.2656 46.5859 -9.9297 Q46.1406 -8.5938 46.1406 -6.7031 Q46.1406 -4.7969 46.5156 -3.4375 Q46.8906 -2.0781 47.6328 -1.3906 Q48.375 -0.7031 49.4688 -0.7031 Q50.625 -0.7031 51.1797 -1.2031 Q51.7344 -1.7031 51.7344 -2.75 L51.7344 -3.3438 Q51.7344 -4.2188 51.6406 -4.6094 Q51.5469 -5 51.3125 -5.2188 Q51.0781 -5.4375 50.5469 -5.5625 L50.5469 -6.0469 L54.4844 -6.0469 L54.4844 -5.5625 Q54.1406 -5.4531 53.9609 -5.2969 Q53.7812 -5.1406 53.6875 -4.9219 Q53.5938 -4.7031 53.5625 -4.375 Q53.5312 -4.0469 53.5312 -3.4375 L53.5312 -0.0469 ZM65.0938 -13.3281 L65.0938 -10.375 L64.125 -10.375 Q63.9219 -11.0469 63.7188 -11.4531 Q63.5156 -11.8594 63.2969 -12.0781 Q63.0781 -12.2969 62.7812 -12.3828 Q62.4844 -12.4688 62.0156 -12.4688 L59.1562 -12.4688 L59.1562 -7.1562 L61.1562 -7.1562 Q61.5938 -7.1562 61.8359 -7.2969 Q62.0781 -7.4375 62.2422 -7.7734 Q62.4062 -8.1094 62.5469 -8.7969 L63.4688 -8.7969 L63.4688 -4.6719 L62.5469 -4.6719 Q62.4062 -5.3438 62.2422 -5.6797 Q62.0781 -6.0156 61.8438 -6.1562 Q61.6094 -6.2969 61.1562 -6.2969 L59.1562 -6.2969 L59.1562 -2.4688 Q59.1562 -1.8906 59.2188 -1.5391 Q59.2812 -1.1875 59.4375 -0.9766 Q59.5938 -0.7656 59.8594 -0.6641 Q60.125 -0.5625 60.5156 -0.4844 L60.5156 0 L56.1875 0 L56.1875 -0.4844 Q56.7812 -0.6406 56.9922 -0.8281 Q57.2031 -1.0156 57.2656 -1.3672 Q57.3281 -1.7188 57.3281 -2.4375 L57.3281 -10.8906 Q57.3281 -11.5625 57.2812 -11.8672 Q57.2344 -12.1719 57.1172 -12.3438 Q57 -12.5156 56.8125 -12.6172 Q56.625 -12.7188 56.1875 -12.8594 L56.1875 -13.3281 L65.0938 -13.3281 Z" stroke="none"/></g><g text-rendering="optimizeLegibility" transform="translate(316.375,43.0938)" color-rendering="optimizeQuality" color-interpolation="linearRGB" image-rendering="optimizeQuality"><path d="M1.2188 -5.0312 L1.2188 -6.3906 L9.8594 -10.125 L9.8594 -8.6562 L2.6562 -5.7188 L9.8594 -2.7812 L9.8594 -1.3125 L1.2188 -5.0312 Z" stroke="none"/></g><g text-rendering="optimizeLegibility" transform="translate(328.2344,43.0938)" color-rendering="optimizeQuality" color-interpolation="linearRGB" image-rendering="optimizeQuality"><path d="M5.4375 0.1562 Q3.3281 0.1562 2.2969 -1.5078 Q1.2656 -3.1719 1.2656 -6.5469 Q1.2656 -8.3438 1.5781 -9.6484 Q1.8906 -10.9531 2.4609 -11.8125 Q3.0312 -12.6719 3.8359 -13.0781 Q4.6406 -13.4844 5.5938 -13.4844 Q7.7188 -13.4844 8.7656 -11.8359 Q9.8125 -10.1875 9.8125 -6.8438 Q9.8125 -3.3906 8.6953 -1.6172 Q7.5781 0.1562 5.4375 0.1562 ZM3.1719 -6.8438 Q3.1719 -3.6562 3.7578 -2.1641 Q4.3438 -0.6719 5.5938 -0.6719 Q6.7656 -0.6719 7.3359 -2.0781 Q7.9062 -3.4844 7.9062 -6.4219 Q7.9062 -8.6562 7.6172 -10.0547 Q7.3281 -11.4531 6.8047 -12.0547 Q6.2812 -12.6562 5.5312 -12.6562 Q4.8594 -12.6562 4.4062 -12.2578 Q3.9531 -11.8594 3.6797 -11.1094 Q3.4062 -10.3594 3.2891 -9.2734 Q3.1719 -8.1875 3.1719 -6.8438 Z" stroke="none"/></g></g></svg>