<?xml version="1.0" encoding="UTF-8" standalone="no"?><svg xmlns="http://www.w3.org/2000/svg" xmlns:xlink="http://www.w3.org/1999/xlink" stroke-dasharray="none" shape-rendering="auto" font-family="'Dialog'" width="61.812600" text-rendering="auto" fill-opacity="1" contentScriptType="text/ecmascript" color-interpolation="auto" color-rendering="auto" preserveAspectRatio="xMidYMid meet" font-size="12" fill="black" stroke="black" image-rendering="auto" stroke-miterlimit="10" zoomAndPan="magnify" version="1.0" stroke-linecap="square" stroke-linejoin="miter" contentStyleType="text/css" font-style="normal" height="18" stroke-width="1" stroke-dashoffset="0" font-weight="normal" stroke-opacity="1" y="-6.000000"><!--Converted from MathML using JEuclid--><defs id="genericDefs"/><g><g text-rendering="optimizeLegibility" transform="translate(0,12)" color-rendering="optimizeQuality" color-interpolation="linearRGB" image-rendering="optimizeQuality"><path d="M1.5 -9.3438 L4.5781 -9.3438 L3.3281 -4.3594 Q3.1875 -3.8125 3.0859 -3.2734 Q2.9844 -2.7344 2.9844 -2.2812 Q2.9844 -1.5938 3.2266 -1.2891 Q3.4688 -0.9844 3.9688 -0.9844 Q4.3906 -0.9844 4.8828 -1.3125 Q5.375 -1.6406 5.9219 -2.3281 Q6.4688 -3.0156 6.7812 -3.6328 Q7.0938 -4.25 7.2812 -5.0938 L8.1719 -9.3438 L9.8594 -9.3438 L8.375 -2.6719 Q8.3125 -2.4062 8.2344 -1.9766 Q8.1562 -1.5469 8.1562 -1.2656 Q8.1562 -0.8594 8.3828 -0.6875 Q8.6094 -0.5156 9.2344 -0.4844 L9.125 0 L6.3438 0 L6.9688 -2.4531 L6.8438 -2.4844 Q5.8906 -1.1406 5.0078 -0.4922 Q4.125 0.1562 3.2188 0.1562 Q2.2812 0.1562 1.7891 -0.3672 Q1.2969 -0.8906 1.2969 -1.9219 Q1.2969 -2.2031 1.3516 -2.6016 Q1.4062 -3 1.5 -3.4219 L2.3281 -6.8906 Q2.4219 -7.3281 2.4531 -7.5781 Q2.4844 -7.8281 2.4844 -8.0156 Q2.4844 -8.4531 2.25 -8.625 Q2.0156 -8.7969 1.4219 -8.8438 L1.5 -9.3438 Z" stroke="none"/></g><g text-rendering="optimizeLegibility" transform="translate(9.8594,16.875)" color-rendering="optimizeQuality" color-interpolation="linearRGB" image-rendering="optimizeQuality"><path d="M4.75 -1.7812 Q4.75 -1.3906 4.7969 -1.1875 Q4.8438 -0.9844 4.9531 -0.8594 Q5.0625 -0.7344 5.2734 -0.6641 Q5.4844 -0.5938 5.8047 -0.5547 Q6.125 -0.5156 6.6562 -0.5 L6.6562 0 L1.6094 0 L1.6094 -0.5 Q2.3594 -0.5312 2.6875 -0.5938 Q3.0156 -0.6562 3.1875 -0.7656 Q3.3594 -0.875 3.4375 -1.0938 Q3.5156 -1.3125 3.5156 -1.7812 L3.5156 -7.3281 Q3.5156 -7.6094 3.4219 -7.7344 Q3.3281 -7.8594 3.1406 -7.8594 Q2.9219 -7.8594 2.5156 -7.6328 Q2.1094 -7.4062 1.5156 -7 L1.2188 -7.5312 L4.4219 -9.4375 L4.7969 -9.4375 Q4.75 -8.7812 4.75 -7.625 L4.75 -1.7812 Z" stroke="none"/></g><g text-rendering="optimizeLegibility" transform="translate(17.2969,12)" color-rendering="optimizeQuality" color-interpolation="linearRGB" image-rendering="optimizeQuality"><path d="M1.2188 -7.0625 L1.2188 -8.4219 L9.8594 -8.4219 L9.8594 -7.0625 L1.2188 -7.0625 ZM1.2188 -3.0156 L1.2188 -4.3594 L9.8594 -4.3594 L9.8594 -3.0156 L1.2188 -3.0156 Z" stroke="none"/></g><g text-rendering="optimizeLegibility" transform="translate(29.1562,12)" color-rendering="optimizeQuality" color-interpolation="linearRGB" image-rendering="optimizeQuality"><path d="M4.8281 -3.1875 L4.8281 -2.4688 Q2.7812 0.25 1.5 0.25 Q0.8125 0.25 0.4141 -0.5078 Q0.0156 -1.2656 0.0156 -2.5 Q0.0156 -3.5 0.4844 -4.8672 Q0.9531 -6.2344 1.7422 -7.6484 Q2.5312 -9.0625 3.375 -10.1094 Q4.2188 -11.1562 4.9375 -11.5781 Q5.2344 -11.7656 5.4062 -11.7656 Q5.6094 -11.7656 5.6797 -11.5781 Q5.75 -11.3906 5.75 -10.9531 Q5.75 -9.5938 4.6406 -7.6172 Q3.5312 -5.6406 1.5625 -3.5781 Q1.4688 -3.0781 1.4688 -2.7969 Q1.4688 -2.1719 1.7344 -1.7812 Q2 -1.3906 2.4844 -1.3906 Q2.7188 -1.3906 3.0078 -1.5859 Q3.2969 -1.7812 3.6094 -2.0625 Q3.9219 -2.3438 4.8281 -3.1875 ZM1.9062 -4.9375 Q2.4062 -5.4375 2.8828 -6.0703 Q3.3594 -6.7031 3.7812 -7.4297 Q4.2031 -8.1562 4.4375 -8.7344 Q4.6719 -9.3125 4.6719 -9.5938 Q4.6719 -9.8281 4.5156 -9.8281 Q4.4688 -9.8281 4.2969 -9.7188 Q3.7031 -9.2344 2.9609 -7.8125 Q2.2188 -6.3906 1.9062 -4.9375 Z" stroke="none"/></g><g text-rendering="optimizeLegibility" transform="translate(35.6719,12)" color-rendering="optimizeQuality" color-interpolation="linearRGB" image-rendering="optimizeQuality"><path d="M1.2344 -5.0469 L1.2344 -6.3906 L9.8281 -6.3906 L9.8281 -5.0469 L1.2344 -5.0469 Z" stroke="none"/></g><g text-rendering="optimizeLegibility" transform="translate(47.5,12)" color-rendering="optimizeQuality" color-interpolation="linearRGB" image-rendering="optimizeQuality"><path d="M4.8281 -3.1875 L4.8281 -2.4688 Q2.7812 0.25 1.5 0.25 Q0.8125 0.25 0.4141 -0.5078 Q0.0156 -1.2656 0.0156 -2.5 Q0.0156 -3.5 0.4844 -4.8672 Q0.9531 -6.2344 1.7422 -7.6484 Q2.5312 -9.0625 3.375 -10.1094 Q4.2188 -11.1562 4.9375 -11.5781 Q5.2344 -11.7656 5.4062 -11.7656 Q5.6094 -11.7656 5.6797 -11.5781 Q5.75 -11.3906 5.75 -10.9531 Q5.75 -9.5938 4.6406 -7.6172 Q3.5312 -5.6406 1.5625 -3.5781 Q1.4688 -3.0781 1.4688 -2.7969 Q1.4688 -2.1719 1.7344 -1.7812 Q2 -1.3906 2.4844 -1.3906 Q2.7188 -1.3906 3.0078 -1.5859 Q3.2969 -1.7812 3.6094 -2.0625 Q3.9219 -2.3438 4.8281 -3.1875 ZM1.9062 -4.9375 Q2.4062 -5.4375 2.8828 -6.0703 Q3.3594 -6.7031 3.7812 -7.4297 Q4.2031 -8.1562 4.4375 -8.7344 Q4.6719 -9.3125 4.6719 -9.5938 Q4.6719 -9.8281 4.5156 -9.8281 Q4.4688 -9.8281 4.2969 -9.7188 Q3.7031 -9.2344 2.9609 -7.8125 Q2.2188 -6.3906 1.9062 -4.9375 Z" stroke="none"/></g><g text-rendering="optimizeLegibility" transform="translate(53.25,16.9141)" color-rendering="optimizeQuality" color-interpolation="linearRGB" image-rendering="optimizeQuality"><path d="M3.7969 0.1094 Q2.3281 0.1094 1.6016 -1.0547 Q0.875 -2.2188 0.875 -4.5781 Q0.875 -5.8438 1.1016 -6.7578 Q1.3281 -7.6719 1.7266 -8.2656 Q2.125 -8.8594 2.6875 -9.1484 Q3.25 -9.4375 3.9062 -9.4375 Q5.4062 -9.4375 6.1406 -8.2812 Q6.875 -7.125 6.875 -4.7969 Q6.875 -2.375 6.0938 -1.1328 Q5.3125 0.1094 3.7969 0.1094 ZM2.2188 -4.7812 Q2.2188 -2.5625 2.6328 -1.5156 Q3.0469 -0.4688 3.9062 -0.4688 Q4.7344 -0.4688 5.1328 -1.4531 Q5.5312 -2.4375 5.5312 -4.4844 Q5.5312 -6.0625 5.3281 -7.0391 Q5.125 -8.0156 4.7578 -8.4375 Q4.3906 -8.8594 3.875 -8.8594 Q3.4062 -8.8594 3.0859 -8.5781 Q2.7656 -8.2969 2.5703 -7.7734 Q2.375 -7.25 2.2969 -6.4922 Q2.2188 -5.7344 2.2188 -4.7812 Z" stroke="none"/></g></g></svg>