<?xml version="1.0" encoding="utf-8"?>
<!-- Generator: Adobe Illustrator 17.1.0, SVG Export Plug-In . SVG Version: 6.00 Build 0)  -->

<svg version="1.1" id="Layer_1" xmlns="http://www.w3.org/2000/svg" xmlns:xlink="http://www.w3.org/1999/xlink" x="0px" y="0px"
	 width="357.7px" height="286px" viewBox="0 0 357.7 286" enable-background="new 0 0 357.7 286" xml:space="preserve">
<g>
	<g>
		<g>
			<g>
				<g enable-background="new    ">
					<path d="M12,11.8l1,0.3c-0.2,0.9-0.6,1.5-1.2,2c-0.6,0.4-1.3,0.7-2.1,0.7c-0.8,0-1.5-0.2-2.1-0.5c-0.5-0.3-0.9-0.8-1.2-1.5
						C6.2,12,6,11.3,6,10.5C6,9.7,6.2,9,6.5,8.4C6.8,7.8,7.3,7.3,7.9,7c0.6-0.3,1.2-0.5,1.9-0.5c0.8,0,1.5,0.2,2,0.6
						c0.5,0.4,0.9,1,1.1,1.7l-1,0.2c-0.2-0.6-0.4-1-0.8-1.3s-0.8-0.4-1.3-0.4c-0.6,0-1.1,0.1-1.5,0.4C7.8,8.1,7.5,8.5,7.4,9
						c-0.2,0.5-0.2,1-0.2,1.5c0,0.7,0.1,1.3,0.3,1.8c0.2,0.5,0.5,0.9,0.9,1.1s0.9,0.4,1.3,0.4c0.6,0,1.1-0.2,1.5-0.5
						C11.5,12.9,11.8,12.4,12,11.8z"/>
				</g>
			</g>
		</g>
	</g>
	<g>
		<g>
			<g>
				<g enable-background="new    ">
					<path d="M17.2,17.5h-0.9v-5.6c-0.2,0.2-0.5,0.4-0.8,0.6s-0.7,0.4-0.9,0.5v-0.8c0.5-0.2,0.9-0.5,1.3-0.8s0.6-0.6,0.8-1h0.6V17.5
						z"/>
				</g>
			</g>
		</g>
	</g>
</g>
<g>
	<g>
		<g>
			<g>
				<g enable-background="new    ">
					<path d="M42,11.8l1,0.3c-0.2,0.9-0.6,1.5-1.2,2c-0.6,0.4-1.3,0.7-2.1,0.7c-0.8,0-1.5-0.2-2.1-0.5c-0.5-0.3-0.9-0.8-1.2-1.5
						C36.2,12,36,11.3,36,10.5c0-0.8,0.2-1.5,0.5-2.1c0.3-0.6,0.8-1.1,1.3-1.4c0.6-0.3,1.2-0.5,1.9-0.5c0.8,0,1.5,0.2,2,0.6
						c0.5,0.4,0.9,1,1.1,1.7l-1,0.2c-0.2-0.6-0.4-1-0.8-1.3s-0.8-0.4-1.3-0.4c-0.6,0-1.1,0.1-1.5,0.4c-0.4,0.3-0.7,0.7-0.9,1.2
						c-0.2,0.5-0.2,1-0.2,1.5c0,0.7,0.1,1.3,0.3,1.8c0.2,0.5,0.5,0.9,0.9,1.1s0.9,0.4,1.3,0.4c0.6,0,1.1-0.2,1.5-0.5
						C41.5,12.9,41.8,12.4,42,11.8z"/>
				</g>
			</g>
		</g>
	</g>
	<g>
		<g>
			<g>
				<g enable-background="new    ">
					<path d="M48.5,16.7v0.8h-4.7c0-0.2,0-0.4,0.1-0.6c0.1-0.3,0.3-0.6,0.6-1s0.6-0.7,1.1-1.1c0.8-0.6,1.3-1.1,1.6-1.5
						c0.3-0.4,0.4-0.7,0.4-1.1c0-0.3-0.1-0.6-0.4-0.9c-0.2-0.2-0.6-0.4-1-0.4c-0.4,0-0.8,0.1-1,0.4s-0.4,0.6-0.4,1.1l-0.9-0.1
						c0.1-0.7,0.3-1.2,0.7-1.5c0.4-0.4,0.9-0.5,1.6-0.5c0.7,0,1.2,0.2,1.6,0.6s0.6,0.9,0.6,1.4c0,0.3-0.1,0.6-0.2,0.8
						S48,13.7,47.7,14s-0.7,0.7-1.4,1.3c-0.5,0.4-0.9,0.7-1,0.9c-0.1,0.2-0.3,0.3-0.4,0.5H48.5z"/>
				</g>
			</g>
		</g>
	</g>
</g>
<g>
	<g>
		<g>
			<g>
				<g enable-background="new    ">
					<path d="M72,11.8l1,0.3c-0.2,0.9-0.6,1.5-1.2,2c-0.6,0.4-1.3,0.7-2.1,0.7c-0.8,0-1.5-0.2-2.1-0.5c-0.5-0.3-0.9-0.8-1.2-1.5
						C66.2,12,66,11.3,66,10.5c0-0.8,0.2-1.5,0.5-2.1c0.3-0.6,0.8-1.1,1.3-1.4c0.6-0.3,1.2-0.5,1.9-0.5c0.8,0,1.5,0.2,2,0.6
						c0.5,0.4,0.9,1,1.1,1.7l-1,0.2c-0.2-0.6-0.4-1-0.8-1.3s-0.8-0.4-1.3-0.4c-0.6,0-1.1,0.1-1.5,0.4c-0.4,0.3-0.7,0.7-0.9,1.2
						c-0.2,0.5-0.2,1-0.2,1.5c0,0.7,0.1,1.3,0.3,1.8c0.2,0.5,0.5,0.9,0.9,1.1s0.9,0.4,1.3,0.4c0.6,0,1.1-0.2,1.5-0.5
						C71.5,12.9,71.8,12.4,72,11.8z"/>
				</g>
			</g>
		</g>
	</g>
	<g>
		<g>
			<g>
				<g enable-background="new    ">
					<path d="M73.9,15.6l0.9-0.1c0.1,0.5,0.3,0.9,0.5,1.1c0.2,0.2,0.5,0.3,0.9,0.3c0.4,0,0.8-0.1,1-0.4s0.4-0.6,0.4-1.1
						c0-0.4-0.1-0.7-0.4-1c-0.3-0.3-0.6-0.4-1-0.4c-0.2,0-0.4,0-0.6,0.1l0.1-0.8c0.1,0,0.1,0,0.1,0c0.4,0,0.7-0.1,1-0.3
						s0.4-0.5,0.4-0.9c0-0.3-0.1-0.6-0.3-0.8s-0.5-0.3-0.8-0.3c-0.3,0-0.6,0.1-0.9,0.3s-0.4,0.5-0.4,1L74,12.2
						c0.1-0.6,0.4-1,0.7-1.4c0.4-0.3,0.9-0.5,1.4-0.5c0.4,0,0.8,0.1,1.1,0.3c0.3,0.2,0.6,0.4,0.8,0.7s0.3,0.6,0.3,0.9
						c0,0.3-0.1,0.6-0.2,0.8s-0.4,0.5-0.7,0.6c0.4,0.1,0.8,0.3,1,0.6c0.2,0.3,0.4,0.7,0.4,1.2c0,0.6-0.2,1.2-0.7,1.6
						c-0.5,0.4-1,0.7-1.7,0.7c-0.6,0-1.1-0.2-1.6-0.6S73.9,16.2,73.9,15.6z"/>
				</g>
			</g>
		</g>
	</g>
</g>
<g>
	<g>
		<g>
			<g enable-background="new    ">
				<path d="M104.3,14.5V13h1.5v1.5H104.3z"/>
			</g>
		</g>
	</g>
</g>
<g>
	<g>
		<g>
			<g enable-background="new    ">
				<path d="M134.3,14.5V13h1.5v1.5H134.3z"/>
			</g>
		</g>
	</g>
</g>
<g>
	<g>
		<g>
			<g enable-background="new    ">
				<path d="M164.3,14.5V13h1.5v1.5H164.3z"/>
			</g>
		</g>
	</g>
</g>
<g>
	<g>
		<g>
			<g enable-background="new    ">
				<path d="M194.3,14.5V13h1.5v1.5H194.3z"/>
			</g>
		</g>
	</g>
</g>
<g>
	<g>
		<g>
			<g enable-background="new    ">
				<path d="M224.3,14.5V13h1.5v1.5H224.3z"/>
			</g>
		</g>
	</g>
</g>
<g>
	<g>
		<g>
			<g enable-background="new    ">
				<path d="M254.3,14.5V13h1.5v1.5H254.3z"/>
			</g>
		</g>
	</g>
</g>
<g>
	<g>
		<g>
			<g enable-background="new    ">
				<path d="M284.3,14.5V13h1.5v1.5H284.3z"/>
			</g>
		</g>
	</g>
</g>
<g>
	<g>
		<g>
			<g enable-background="new    ">
				<path d="M314.3,14.5V13h1.5v1.5H314.3z"/>
			</g>
		</g>
	</g>
</g>
<g>
	<g>
		<g>
			<g>
				<g enable-background="new    ">
					<path d="M342,11.8l1,0.3c-0.2,0.9-0.6,1.5-1.2,2c-0.6,0.4-1.3,0.7-2.1,0.7c-0.8,0-1.5-0.2-2.1-0.5c-0.5-0.3-0.9-0.8-1.2-1.5
						c-0.3-0.7-0.4-1.4-0.4-2.1c0-0.8,0.2-1.5,0.5-2.1s0.8-1.1,1.3-1.4c0.6-0.3,1.2-0.5,1.9-0.5c0.8,0,1.5,0.2,2,0.6
						c0.5,0.4,0.9,1,1.1,1.7l-1,0.2c-0.2-0.6-0.4-1-0.8-1.3c-0.3-0.3-0.8-0.4-1.3-0.4c-0.6,0-1.1,0.1-1.5,0.4s-0.7,0.7-0.9,1.2
						c-0.2,0.5-0.2,1-0.2,1.5c0,0.7,0.1,1.3,0.3,1.8c0.2,0.5,0.5,0.9,0.9,1.1c0.4,0.2,0.9,0.4,1.3,0.4c0.6,0,1.1-0.2,1.5-0.5
						C341.5,12.9,341.8,12.4,342,11.8z"/>
				</g>
			</g>
		</g>
	</g>
	<g>
		<g>
			<g>
				<g enable-background="new    ">
					<path d="M347.2,17.5h-0.9v-5.6c-0.2,0.2-0.5,0.4-0.8,0.6c-0.3,0.2-0.7,0.4-0.9,0.5v-0.8c0.5-0.2,0.9-0.5,1.3-0.8
						c0.4-0.3,0.6-0.6,0.8-1h0.6V17.5z"/>
					<path d="M354,16.7v0.8h-4.7c0-0.2,0-0.4,0.1-0.6c0.1-0.3,0.3-0.6,0.6-1c0.3-0.3,0.6-0.7,1.1-1.1c0.8-0.6,1.3-1.1,1.6-1.5
						c0.3-0.4,0.4-0.7,0.4-1.1c0-0.3-0.1-0.6-0.4-0.9c-0.2-0.2-0.6-0.4-1-0.4c-0.4,0-0.8,0.1-1,0.4s-0.4,0.6-0.4,1.1l-0.9-0.1
						c0.1-0.7,0.3-1.2,0.7-1.5c0.4-0.4,0.9-0.5,1.6-0.5c0.7,0,1.2,0.2,1.6,0.6s0.6,0.9,0.6,1.4c0,0.3-0.1,0.6-0.2,0.8
						s-0.3,0.6-0.6,0.9c-0.3,0.3-0.7,0.7-1.4,1.3c-0.5,0.4-0.9,0.7-1,0.9c-0.1,0.2-0.3,0.3-0.4,0.5H354z"/>
				</g>
			</g>
		</g>
	</g>
</g>
<g>
	<g>
		<g>
			<g>
				<g enable-background="new    ">
					<path d="M42,35.5l1,0.3c-0.2,0.9-0.6,1.5-1.2,2c-0.6,0.4-1.3,0.7-2.1,0.7c-0.8,0-1.5-0.2-2.1-0.5c-0.5-0.3-0.9-0.8-1.2-1.5
						c-0.3-0.7-0.4-1.4-0.4-2.1c0-0.8,0.2-1.5,0.5-2.1c0.3-0.6,0.8-1.1,1.3-1.4c0.6-0.3,1.2-0.5,1.9-0.5c0.8,0,1.5,0.2,2,0.6
						c0.5,0.4,0.9,1,1.1,1.7l-1,0.2c-0.2-0.6-0.4-1-0.8-1.3s-0.8-0.4-1.3-0.4c-0.6,0-1.1,0.1-1.5,0.4c-0.4,0.3-0.7,0.7-0.9,1.2
						c-0.2,0.5-0.2,1-0.2,1.5c0,0.7,0.1,1.3,0.3,1.8c0.2,0.5,0.5,0.9,0.9,1.1s0.9,0.4,1.3,0.4c0.6,0,1.1-0.2,1.5-0.5
						C41.5,36.7,41.8,36.2,42,35.5z"/>
				</g>
			</g>
		</g>
	</g>
	<g>
		<g>
			<g>
				<g enable-background="new    ">
					<path d="M47.2,41.3h-0.9v-5.6c-0.2,0.2-0.5,0.4-0.8,0.6s-0.7,0.4-0.9,0.5v-0.8c0.5-0.2,0.9-0.5,1.3-0.8s0.6-0.6,0.8-1h0.6V41.3
						z"/>
					<path d="M49.4,39.4l0.9-0.1c0.1,0.5,0.3,0.9,0.5,1.1c0.2,0.2,0.5,0.3,0.9,0.3c0.4,0,0.8-0.1,1-0.4s0.4-0.6,0.4-1.1
						c0-0.4-0.1-0.7-0.4-1c-0.3-0.3-0.6-0.4-1-0.4c-0.2,0-0.4,0-0.6,0.1l0.1-0.8c0.1,0,0.1,0,0.1,0c0.4,0,0.7-0.1,1-0.3
						s0.4-0.5,0.4-0.9c0-0.3-0.1-0.6-0.3-0.8s-0.5-0.3-0.8-0.3c-0.3,0-0.6,0.1-0.9,0.3s-0.4,0.5-0.4,1L49.5,36
						c0.1-0.6,0.4-1,0.7-1.4c0.4-0.3,0.9-0.5,1.4-0.5c0.4,0,0.8,0.1,1.1,0.3c0.3,0.2,0.6,0.4,0.8,0.7s0.3,0.6,0.3,0.9
						c0,0.3-0.1,0.6-0.2,0.8s-0.4,0.5-0.7,0.6c0.4,0.1,0.8,0.3,1,0.6c0.2,0.3,0.4,0.7,0.4,1.2c0,0.6-0.2,1.2-0.7,1.6
						c-0.5,0.4-1,0.7-1.7,0.7c-0.6,0-1.1-0.2-1.6-0.6S49.5,40,49.4,39.4z"/>
				</g>
			</g>
		</g>
	</g>
</g>
<g>
	<g>
		<g>
			<g>
				<g enable-background="new    ">
					<path d="M72,35.5l1,0.3c-0.2,0.9-0.6,1.5-1.2,2c-0.6,0.4-1.3,0.7-2.1,0.7c-0.8,0-1.5-0.2-2.1-0.5c-0.5-0.3-0.9-0.8-1.2-1.5
						c-0.3-0.7-0.4-1.4-0.4-2.1c0-0.8,0.2-1.5,0.5-2.1c0.3-0.6,0.8-1.1,1.3-1.4c0.6-0.3,1.2-0.5,1.9-0.5c0.8,0,1.5,0.2,2,0.6
						c0.5,0.4,0.9,1,1.1,1.7l-1,0.2c-0.2-0.6-0.4-1-0.8-1.3s-0.8-0.4-1.3-0.4c-0.6,0-1.1,0.1-1.5,0.4c-0.4,0.3-0.7,0.7-0.9,1.2
						c-0.2,0.5-0.2,1-0.2,1.5c0,0.7,0.1,1.3,0.3,1.8c0.2,0.5,0.5,0.9,0.9,1.1s0.9,0.4,1.3,0.4c0.6,0,1.1-0.2,1.5-0.5
						C71.5,36.7,71.8,36.2,72,35.5z"/>
				</g>
			</g>
		</g>
	</g>
	<g>
		<g>
			<g>
				<g enable-background="new    ">
					<path d="M77.2,41.3h-0.9v-5.6c-0.2,0.2-0.5,0.4-0.8,0.6s-0.7,0.4-0.9,0.5v-0.8c0.5-0.2,0.9-0.5,1.3-0.8s0.6-0.6,0.8-1h0.6V41.3
						z"/>
					<path d="M82.2,41.3v-1.7h-3.1v-0.8l3.3-4.6h0.7v4.6h1v0.8h-1v1.7H82.2z M82.2,38.8v-3.2L80,38.8H82.2z"/>
				</g>
			</g>
		</g>
	</g>
</g>
<g>
	<g>
		<g>
			<g enable-background="new    ">
				<path d="M104.3,38.3v-1.5h1.5v1.5H104.3z"/>
			</g>
		</g>
	</g>
</g>
<g>
	<g>
		<g>
			<g enable-background="new    ">
				<path d="M134.3,38.3v-1.5h1.5v1.5H134.3z"/>
			</g>
		</g>
	</g>
</g>
<g>
	<g>
		<g>
			<g enable-background="new    ">
				<path d="M164.3,38.3v-1.5h1.5v1.5H164.3z"/>
			</g>
		</g>
	</g>
</g>
<g>
	<g>
		<g>
			<g enable-background="new    ">
				<path d="M194.3,38.3v-1.5h1.5v1.5H194.3z"/>
			</g>
		</g>
	</g>
</g>
<g>
	<g>
		<g>
			<g enable-background="new    ">
				<path d="M224.3,38.3v-1.5h1.5v1.5H224.3z"/>
			</g>
		</g>
	</g>
</g>
<g>
	<g>
		<g>
			<g enable-background="new    ">
				<path d="M254.3,38.3v-1.5h1.5v1.5H254.3z"/>
			</g>
		</g>
	</g>
</g>
<g>
	<g>
		<g>
			<g enable-background="new    ">
				<path d="M284.3,38.3v-1.5h1.5v1.5H284.3z"/>
			</g>
		</g>
	</g>
</g>
<g>
	<g>
		<g>
			<g enable-background="new    ">
				<path d="M314.3,38.3v-1.5h1.5v1.5H314.3z"/>
			</g>
		</g>
	</g>
</g>
<g>
	<g>
		<g>
			<g>
				<g enable-background="new    ">
					<path d="M342,35.5l1,0.3c-0.2,0.9-0.6,1.5-1.2,2c-0.6,0.4-1.3,0.7-2.1,0.7c-0.8,0-1.5-0.2-2.1-0.5c-0.5-0.3-0.9-0.8-1.2-1.5
						c-0.3-0.7-0.4-1.4-0.4-2.1c0-0.8,0.2-1.5,0.5-2.1s0.8-1.1,1.3-1.4c0.6-0.3,1.2-0.5,1.9-0.5c0.8,0,1.5,0.2,2,0.6
						c0.5,0.4,0.9,1,1.1,1.7l-1,0.2c-0.2-0.6-0.4-1-0.8-1.3c-0.3-0.3-0.8-0.4-1.3-0.4c-0.6,0-1.1,0.1-1.5,0.4s-0.7,0.7-0.9,1.2
						c-0.2,0.5-0.2,1-0.2,1.5c0,0.7,0.1,1.3,0.3,1.8c0.2,0.5,0.5,0.9,0.9,1.1c0.4,0.2,0.9,0.4,1.3,0.4c0.6,0,1.1-0.2,1.5-0.5
						C341.5,36.7,341.8,36.2,342,35.5z"/>
				</g>
			</g>
		</g>
	</g>
	<g>
		<g>
			<g>
				<g enable-background="new    ">
					<path d="M348.5,40.5v0.8h-4.7c0-0.2,0-0.4,0.1-0.6c0.1-0.3,0.3-0.6,0.6-1c0.3-0.3,0.6-0.7,1.1-1.1c0.8-0.6,1.3-1.1,1.6-1.5
						c0.3-0.4,0.4-0.7,0.4-1.1c0-0.3-0.1-0.6-0.4-0.9c-0.2-0.2-0.6-0.4-1-0.4c-0.4,0-0.8,0.1-1,0.4s-0.4,0.6-0.4,1.1l-0.9-0.1
						c0.1-0.7,0.3-1.2,0.7-1.5c0.4-0.4,0.9-0.5,1.6-0.5c0.7,0,1.2,0.2,1.6,0.6s0.6,0.9,0.6,1.4c0,0.3-0.1,0.6-0.2,0.8
						s-0.3,0.6-0.6,0.9c-0.3,0.3-0.7,0.7-1.4,1.3c-0.5,0.4-0.9,0.7-1,0.9c-0.1,0.2-0.3,0.3-0.4,0.5H348.5z"/>
					<path d="M349.4,39.4l0.9-0.1c0.1,0.5,0.3,0.9,0.5,1.1c0.2,0.2,0.5,0.3,0.9,0.3c0.4,0,0.8-0.1,1-0.4c0.3-0.3,0.4-0.6,0.4-1.1
						c0-0.4-0.1-0.7-0.4-1c-0.3-0.3-0.6-0.4-1-0.4c-0.2,0-0.4,0-0.6,0.1l0.1-0.8c0.1,0,0.1,0,0.1,0c0.4,0,0.7-0.1,1-0.3
						c0.3-0.2,0.4-0.5,0.4-0.9c0-0.3-0.1-0.6-0.3-0.8c-0.2-0.2-0.5-0.3-0.8-0.3c-0.3,0-0.6,0.1-0.9,0.3c-0.2,0.2-0.4,0.5-0.4,1
						l-0.9-0.2c0.1-0.6,0.4-1,0.7-1.4c0.4-0.3,0.9-0.5,1.4-0.5c0.4,0,0.8,0.1,1.1,0.3c0.3,0.2,0.6,0.4,0.8,0.7
						c0.2,0.3,0.3,0.6,0.3,0.9c0,0.3-0.1,0.6-0.2,0.8s-0.4,0.5-0.7,0.6c0.4,0.1,0.8,0.3,1,0.6c0.2,0.3,0.4,0.7,0.4,1.2
						c0,0.6-0.2,1.2-0.7,1.6c-0.5,0.4-1,0.7-1.7,0.7c-0.6,0-1.1-0.2-1.6-0.6S349.5,40,349.4,39.4z"/>
				</g>
			</g>
		</g>
	</g>
</g>
<g>
	<g>
		<g>
			<g>
				<g enable-background="new    ">
					<path d="M72,59.3l1,0.3c-0.2,0.9-0.6,1.5-1.2,2c-0.6,0.4-1.3,0.7-2.1,0.7c-0.8,0-1.5-0.2-2.1-0.5c-0.5-0.3-0.9-0.8-1.2-1.5
						c-0.3-0.7-0.4-1.4-0.4-2.1c0-0.8,0.2-1.5,0.5-2.1c0.3-0.6,0.8-1.1,1.3-1.4c0.6-0.3,1.2-0.5,1.9-0.5c0.8,0,1.5,0.2,2,0.6
						c0.5,0.4,0.9,1,1.1,1.7l-1,0.2c-0.2-0.6-0.4-1-0.8-1.3S70.3,55,69.7,55c-0.6,0-1.1,0.1-1.5,0.4c-0.4,0.3-0.7,0.7-0.9,1.2
						c-0.2,0.5-0.2,1-0.2,1.5c0,0.7,0.1,1.3,0.3,1.8c0.2,0.5,0.5,0.9,0.9,1.1s0.9,0.4,1.3,0.4c0.6,0,1.1-0.2,1.5-0.5
						C71.5,60.5,71.8,60,72,59.3z"/>
				</g>
			</g>
		</g>
	</g>
	<g>
		<g>
			<g>
				<g enable-background="new    ">
					<path d="M78.5,64.2v0.8h-4.7c0-0.2,0-0.4,0.1-0.6c0.1-0.3,0.3-0.6,0.6-1s0.6-0.7,1.1-1.1c0.8-0.6,1.3-1.1,1.6-1.5
						c0.3-0.4,0.4-0.7,0.4-1.1c0-0.3-0.1-0.6-0.4-0.9c-0.2-0.2-0.6-0.4-1-0.4c-0.4,0-0.8,0.1-1,0.4s-0.4,0.6-0.4,1.1L73.9,60
						c0.1-0.7,0.3-1.2,0.7-1.5c0.4-0.4,0.9-0.5,1.6-0.5c0.7,0,1.2,0.2,1.6,0.6s0.6,0.9,0.6,1.4c0,0.3-0.1,0.6-0.2,0.8
						s-0.3,0.6-0.6,0.9s-0.7,0.7-1.4,1.3c-0.5,0.4-0.9,0.7-1,0.9c-0.1,0.2-0.3,0.3-0.4,0.5H78.5z"/>
					<path d="M82.2,65.1v-1.7h-3.1v-0.8l3.3-4.6h0.7v4.6h1v0.8h-1v1.7H82.2z M82.2,62.6v-3.2L80,62.6H82.2z"/>
				</g>
			</g>
		</g>
	</g>
</g>
<g>
	<g>
		<g>
			<g enable-background="new    ">
				<path d="M104.3,62.1v-1.5h1.5v1.5H104.3z"/>
			</g>
		</g>
	</g>
</g>
<g>
	<g>
		<g>
			<g enable-background="new    ">
				<path d="M134.3,62.1v-1.5h1.5v1.5H134.3z"/>
			</g>
		</g>
	</g>
</g>
<g>
	<g>
		<g>
			<g enable-background="new    ">
				<path d="M164.3,62.1v-1.5h1.5v1.5H164.3z"/>
			</g>
		</g>
	</g>
</g>
<g>
	<g>
		<g>
			<g enable-background="new    ">
				<path d="M194.3,62.1v-1.5h1.5v1.5H194.3z"/>
			</g>
		</g>
	</g>
</g>
<g>
	<g>
		<g>
			<g enable-background="new    ">
				<path d="M224.3,62.1v-1.5h1.5v1.5H224.3z"/>
			</g>
		</g>
	</g>
</g>
<g>
	<g>
		<g>
			<g enable-background="new    ">
				<path d="M254.3,62.1v-1.5h1.5v1.5H254.3z"/>
			</g>
		</g>
	</g>
</g>
<g>
	<g>
		<g>
			<g enable-background="new    ">
				<path d="M284.3,62.1v-1.5h1.5v1.5H284.3z"/>
			</g>
		</g>
	</g>
</g>
<g>
	<g>
		<g>
			<g enable-background="new    ">
				<path d="M314.3,62.1v-1.5h1.5v1.5H314.3z"/>
			</g>
		</g>
	</g>
</g>
<g>
	<g>
		<g>
			<g enable-background="new    ">
				<path d="M344.3,62.1v-1.5h1.5v1.5H344.3z"/>
			</g>
		</g>
	</g>
</g>
<g>
	<g>
		<g>
			<g>
				<g enable-background="new    ">
					<path d="M102,83.1l1,0.3c-0.2,0.9-0.6,1.5-1.2,2c-0.6,0.4-1.3,0.7-2.1,0.7c-0.8,0-1.5-0.2-2.1-0.5c-0.5-0.3-0.9-0.8-1.2-1.5
						c-0.3-0.7-0.4-1.4-0.4-2.1c0-0.8,0.2-1.5,0.5-2.1c0.3-0.6,0.8-1.1,1.3-1.4c0.6-0.3,1.2-0.5,1.9-0.5c0.8,0,1.5,0.2,2,0.6
						c0.5,0.4,0.9,1,1.1,1.7l-1,0.2c-0.2-0.6-0.4-1-0.8-1.3s-0.8-0.4-1.3-0.4c-0.6,0-1.1,0.1-1.5,0.4c-0.4,0.3-0.7,0.7-0.9,1.2
						c-0.2,0.5-0.2,1-0.2,1.5c0,0.7,0.1,1.3,0.3,1.8c0.2,0.5,0.5,0.9,0.9,1.1s0.9,0.4,1.3,0.4c0.6,0,1.1-0.2,1.5-0.5
						C101.5,84.3,101.8,83.8,102,83.1z"/>
				</g>
			</g>
		</g>
	</g>
	<g>
		<g>
			<g>
				<g enable-background="new    ">
					<path d="M103.9,87l0.9-0.1c0.1,0.5,0.3,0.9,0.5,1.1c0.2,0.2,0.5,0.3,0.9,0.3c0.4,0,0.8-0.1,1-0.4s0.4-0.6,0.4-1.1
						c0-0.4-0.1-0.7-0.4-1c-0.3-0.3-0.6-0.4-1-0.4c-0.2,0-0.4,0-0.6,0.1l0.1-0.8c0.1,0,0.1,0,0.1,0c0.4,0,0.7-0.1,1-0.3
						s0.4-0.5,0.4-0.9c0-0.3-0.1-0.6-0.3-0.8s-0.5-0.3-0.8-0.3c-0.3,0-0.6,0.1-0.9,0.3s-0.4,0.5-0.4,1l-0.9-0.2
						c0.1-0.6,0.4-1,0.7-1.4c0.4-0.3,0.9-0.5,1.4-0.5c0.4,0,0.8,0.1,1.1,0.3c0.3,0.2,0.6,0.4,0.8,0.7s0.3,0.6,0.3,0.9
						c0,0.3-0.1,0.6-0.2,0.8s-0.4,0.5-0.7,0.6c0.4,0.1,0.8,0.3,1,0.6c0.2,0.3,0.4,0.7,0.4,1.2c0,0.6-0.2,1.2-0.7,1.6
						c-0.5,0.4-1,0.7-1.7,0.7c-0.6,0-1.1-0.2-1.6-0.6S103.9,87.6,103.9,87z"/>
					<path d="M112.2,88.9v-1.7h-3.1v-0.8l3.3-4.6h0.7v4.6h1v0.8h-1v1.7H112.2z M112.2,86.4v-3.2l-2.2,3.2H112.2z"/>
				</g>
			</g>
		</g>
	</g>
</g>
<g>
	<g>
		<g>
			<g enable-background="new    ">
				<path d="M134.3,85.9v-1.5h1.5v1.5H134.3z"/>
			</g>
		</g>
	</g>
</g>
<g>
	<g>
		<g>
			<g enable-background="new    ">
				<path d="M164.3,85.9v-1.5h1.5v1.5H164.3z"/>
			</g>
		</g>
	</g>
</g>
<g>
	<g>
		<g>
			<g enable-background="new    ">
				<path d="M194.3,85.9v-1.5h1.5v1.5H194.3z"/>
			</g>
		</g>
	</g>
</g>
<g>
	<g>
		<g>
			<g enable-background="new    ">
				<path d="M224.3,85.9v-1.5h1.5v1.5H224.3z"/>
			</g>
		</g>
	</g>
</g>
<g>
	<g>
		<g>
			<g enable-background="new    ">
				<path d="M254.3,85.9v-1.5h1.5v1.5H254.3z"/>
			</g>
		</g>
	</g>
</g>
<g>
	<g>
		<g>
			<g enable-background="new    ">
				<path d="M284.3,85.9v-1.5h1.5v1.5H284.3z"/>
			</g>
		</g>
	</g>
</g>
<g>
	<g>
		<g>
			<g enable-background="new    ">
				<path d="M314.3,85.9v-1.5h1.5v1.5H314.3z"/>
			</g>
		</g>
	</g>
</g>
<g>
	<g>
		<g>
			<g enable-background="new    ">
				<path d="M344.3,85.9v-1.5h1.5v1.5H344.3z"/>
			</g>
		</g>
	</g>
</g>
<g>
	<g>
		<g>
			<g>
				<g enable-background="new    ">
					<path d="M132,106.9l1,0.3c-0.2,0.9-0.6,1.5-1.2,2c-0.6,0.4-1.3,0.7-2.1,0.7c-0.8,0-1.5-0.2-2.1-0.5c-0.5-0.3-0.9-0.8-1.2-1.5
						c-0.3-0.7-0.4-1.4-0.4-2.1c0-0.8,0.2-1.5,0.5-2.1c0.3-0.6,0.8-1.1,1.3-1.4c0.6-0.3,1.2-0.5,1.9-0.5c0.8,0,1.5,0.2,2,0.6
						c0.5,0.4,0.9,1,1.1,1.7l-1,0.2c-0.2-0.6-0.4-1-0.8-1.3s-0.8-0.4-1.3-0.4c-0.6,0-1.1,0.1-1.5,0.4c-0.4,0.3-0.7,0.7-0.9,1.2
						c-0.2,0.5-0.2,1-0.2,1.5c0,0.7,0.1,1.3,0.3,1.8c0.2,0.5,0.5,0.9,0.9,1.1s0.9,0.4,1.3,0.4c0.6,0,1.1-0.2,1.5-0.5
						C131.5,108.1,131.8,107.6,132,106.9z"/>
				</g>
			</g>
		</g>
	</g>
	<g>
		<g>
			<g>
				<g enable-background="new    ">
					<path d="M136.7,112.7V111h-3.1v-0.8l3.3-4.6h0.7v4.6h1v0.8h-1v1.7H136.7z M136.7,110.1v-3.2l-2.2,3.2H136.7z"/>
					<path d="M139.4,110.8l0.9-0.1c0.1,0.5,0.3,0.9,0.5,1.1c0.2,0.2,0.5,0.3,0.9,0.3c0.4,0,0.8-0.1,1-0.4s0.4-0.6,0.4-1.1
						c0-0.4-0.1-0.7-0.4-1c-0.3-0.3-0.6-0.4-1-0.4c-0.2,0-0.4,0-0.6,0.1l0.1-0.8c0.1,0,0.1,0,0.1,0c0.4,0,0.7-0.1,1-0.3
						s0.4-0.5,0.4-0.9c0-0.3-0.1-0.6-0.3-0.8s-0.5-0.3-0.8-0.3c-0.3,0-0.6,0.1-0.9,0.3s-0.4,0.5-0.4,1l-0.9-0.2
						c0.1-0.6,0.4-1,0.7-1.4c0.4-0.3,0.9-0.5,1.4-0.5c0.4,0,0.8,0.1,1.1,0.3c0.3,0.2,0.6,0.4,0.8,0.7s0.3,0.6,0.3,0.9
						c0,0.3-0.1,0.6-0.2,0.8s-0.4,0.5-0.7,0.6c0.4,0.1,0.8,0.3,1,0.6c0.2,0.3,0.4,0.7,0.4,1.2c0,0.6-0.2,1.2-0.7,1.6
						c-0.5,0.4-1,0.7-1.7,0.7c-0.6,0-1.1-0.2-1.6-0.6S139.5,111.4,139.4,110.8z"/>
				</g>
			</g>
		</g>
	</g>
</g>
<g>
	<g>
		<g>
			<g enable-background="new    ">
				<path d="M164.3,109.7v-1.5h1.5v1.5H164.3z"/>
			</g>
		</g>
	</g>
</g>
<g>
	<g>
		<g>
			<g enable-background="new    ">
				<path d="M194.3,109.7v-1.5h1.5v1.5H194.3z"/>
			</g>
		</g>
	</g>
</g>
<g>
	<g>
		<g>
			<g enable-background="new    ">
				<path d="M224.3,109.7v-1.5h1.5v1.5H224.3z"/>
			</g>
		</g>
	</g>
</g>
<g>
	<g>
		<g>
			<g enable-background="new    ">
				<path d="M254.3,109.7v-1.5h1.5v1.5H254.3z"/>
			</g>
		</g>
	</g>
</g>
<g>
	<g>
		<g>
			<g enable-background="new    ">
				<path d="M284.3,109.7v-1.5h1.5v1.5H284.3z"/>
			</g>
		</g>
	</g>
</g>
<g>
	<g>
		<g>
			<g enable-background="new    ">
				<path d="M314.3,109.7v-1.5h1.5v1.5H314.3z"/>
			</g>
		</g>
	</g>
</g>
<g>
	<g>
		<g>
			<g enable-background="new    ">
				<path d="M344.3,109.7v-1.5h1.5v1.5H344.3z"/>
			</g>
		</g>
	</g>
</g>
<g>
	<g>
		<g>
			<g>
				<g enable-background="new    ">
					<path d="M162,130.7l1,0.3c-0.2,0.9-0.6,1.5-1.2,2c-0.6,0.4-1.3,0.7-2.1,0.7c-0.8,0-1.5-0.2-2.1-0.5c-0.5-0.3-0.9-0.8-1.2-1.5
						c-0.3-0.7-0.4-1.4-0.4-2.1c0-0.8,0.2-1.5,0.5-2.1c0.3-0.6,0.8-1.1,1.3-1.4c0.6-0.3,1.2-0.5,1.9-0.5c0.8,0,1.5,0.2,2,0.6
						c0.5,0.4,0.9,1,1.1,1.7l-1,0.2c-0.2-0.6-0.4-1-0.8-1.3s-0.8-0.4-1.3-0.4c-0.6,0-1.1,0.1-1.5,0.4c-0.4,0.3-0.7,0.7-0.9,1.2
						c-0.2,0.5-0.2,1-0.2,1.5c0,0.7,0.1,1.3,0.3,1.8c0.2,0.5,0.5,0.9,0.9,1.1s0.9,0.4,1.3,0.4c0.6,0,1.1-0.2,1.5-0.5
						C161.5,131.9,161.8,131.4,162,130.7z"/>
				</g>
			</g>
		</g>
	</g>
	<g>
		<g>
			<g>
				<g enable-background="new    ">
					<path d="M163.9,134.6l0.9-0.1c0.1,0.4,0.2,0.8,0.5,1c0.2,0.2,0.5,0.3,0.9,0.3c0.4,0,0.8-0.2,1.1-0.5s0.4-0.7,0.4-1.3
						c0-0.5-0.1-0.9-0.4-1.2s-0.7-0.4-1.1-0.4c-0.3,0-0.5,0.1-0.8,0.2c-0.2,0.1-0.4,0.3-0.5,0.5l-0.8-0.1l0.7-3.7h3.6v0.8h-2.9
						l-0.4,1.9c0.4-0.3,0.9-0.4,1.4-0.4c0.6,0,1.2,0.2,1.6,0.6s0.6,1,0.6,1.7c0,0.6-0.2,1.2-0.6,1.7c-0.5,0.6-1.1,0.9-1.9,0.9
						c-0.7,0-1.2-0.2-1.6-0.5S163.9,135.2,163.9,134.6z"/>
					<path d="M172.7,136.5h-0.9v-5.6c-0.2,0.2-0.5,0.4-0.8,0.6s-0.7,0.4-0.9,0.5v-0.8c0.5-0.2,0.9-0.5,1.3-0.8s0.6-0.6,0.8-1h0.6
						V136.5z"/>
				</g>
			</g>
		</g>
	</g>
</g>
<g>
	<g>
		<g>
			<g enable-background="new    ">
				<path d="M194.3,133.5v-1.5h1.5v1.5H194.3z"/>
			</g>
		</g>
	</g>
</g>
<g>
	<g>
		<g>
			<g enable-background="new    ">
				<path d="M224.3,133.5v-1.5h1.5v1.5H224.3z"/>
			</g>
		</g>
	</g>
</g>
<g>
	<g>
		<g>
			<g enable-background="new    ">
				<path d="M254.3,133.5v-1.5h1.5v1.5H254.3z"/>
			</g>
		</g>
	</g>
</g>
<g>
	<g>
		<g>
			<g enable-background="new    ">
				<path d="M284.3,133.5v-1.5h1.5v1.5H284.3z"/>
			</g>
		</g>
	</g>
</g>
<g>
	<g>
		<g>
			<g enable-background="new    ">
				<path d="M314.3,133.5v-1.5h1.5v1.5H314.3z"/>
			</g>
		</g>
	</g>
</g>
<g>
	<g>
		<g>
			<g enable-background="new    ">
				<path d="M344.3,133.5v-1.5h1.5v1.5H344.3z"/>
			</g>
		</g>
	</g>
</g>
<g>
	<g>
		<g>
			<g>
				<g enable-background="new    ">
					<path d="M192,154.5l1,0.3c-0.2,0.9-0.6,1.5-1.2,2c-0.6,0.4-1.3,0.7-2.1,0.7c-0.8,0-1.5-0.2-2.1-0.5c-0.5-0.3-0.9-0.8-1.2-1.5
						c-0.3-0.7-0.4-1.4-0.4-2.1c0-0.8,0.2-1.5,0.5-2.1c0.3-0.6,0.8-1.1,1.3-1.4c0.6-0.3,1.2-0.5,1.9-0.5c0.8,0,1.5,0.2,2,0.6
						c0.5,0.4,0.9,1,1.1,1.7l-1,0.2c-0.2-0.6-0.4-1-0.8-1.3s-0.8-0.4-1.3-0.4c-0.6,0-1.1,0.1-1.5,0.4c-0.4,0.3-0.7,0.7-0.9,1.2
						c-0.2,0.5-0.2,1-0.2,1.5c0,0.7,0.1,1.3,0.3,1.8c0.2,0.5,0.5,0.9,0.9,1.1s0.9,0.4,1.3,0.4c0.6,0,1.1-0.2,1.5-0.5
						C191.5,155.6,191.8,155.1,192,154.5z"/>
				</g>
			</g>
		</g>
	</g>
	<g>
		<g>
			<g>
				<g enable-background="new    ">
					<path d="M193.9,158.4l0.9-0.1c0.1,0.4,0.2,0.8,0.5,1c0.2,0.2,0.5,0.3,0.9,0.3c0.4,0,0.8-0.2,1.1-0.5s0.4-0.7,0.4-1.3
						c0-0.5-0.1-0.9-0.4-1.2c-0.3-0.3-0.7-0.4-1.1-0.4c-0.3,0-0.5,0.1-0.8,0.2c-0.2,0.1-0.4,0.3-0.5,0.5l-0.8-0.1l0.7-3.7h3.6v0.8
						h-2.9l-0.4,1.9c0.4-0.3,0.9-0.4,1.4-0.4c0.6,0,1.2,0.2,1.6,0.6s0.6,1,0.6,1.7c0,0.6-0.2,1.2-0.6,1.7c-0.5,0.6-1.1,0.9-1.9,0.9
						c-0.7,0-1.2-0.2-1.6-0.5C194.2,159.4,193.9,159,193.9,158.4z"/>
					<path d="M200.8,156.4c-0.4-0.1-0.6-0.3-0.8-0.6s-0.3-0.5-0.3-0.9c0-0.5,0.2-1,0.6-1.3c0.4-0.4,0.9-0.5,1.5-0.5
						c0.6,0,1.1,0.2,1.5,0.5c0.4,0.4,0.6,0.8,0.6,1.3c0,0.3-0.1,0.6-0.3,0.9c-0.2,0.2-0.4,0.4-0.8,0.6c0.4,0.1,0.8,0.4,1,0.7
						s0.3,0.7,0.3,1.1c0,0.6-0.2,1.1-0.6,1.5c-0.4,0.4-1,0.6-1.7,0.6c-0.7,0-1.3-0.2-1.7-0.6c-0.4-0.4-0.6-0.9-0.6-1.6
						c0-0.5,0.1-0.9,0.4-1.2C200,156.7,200.3,156.5,200.8,156.4z M200.3,158.2c0,0.3,0.1,0.5,0.2,0.7c0.1,0.2,0.3,0.4,0.5,0.5
						c0.2,0.1,0.5,0.2,0.8,0.2c0.4,0,0.8-0.1,1-0.4s0.4-0.6,0.4-1c0-0.4-0.1-0.8-0.4-1c-0.3-0.3-0.6-0.4-1.1-0.4
						c-0.4,0-0.8,0.1-1,0.4C200.4,157.4,200.3,157.8,200.3,158.2z M200.6,154.9c0,0.3,0.1,0.6,0.3,0.8c0.2,0.2,0.5,0.3,0.8,0.3
						c0.3,0,0.6-0.1,0.8-0.3c0.2-0.2,0.3-0.5,0.3-0.8c0-0.3-0.1-0.6-0.3-0.8c-0.2-0.2-0.5-0.3-0.8-0.3c-0.3,0-0.6,0.1-0.8,0.3
						C200.7,154.3,200.6,154.6,200.6,154.9z"/>
				</g>
			</g>
		</g>
	</g>
</g>
<g>
	<g>
		<g>
			<g enable-background="new    ">
				<path d="M224.3,157.2v-1.5h1.5v1.5H224.3z"/>
			</g>
		</g>
	</g>
</g>
<g>
	<g>
		<g>
			<g enable-background="new    ">
				<path d="M254.3,157.2v-1.5h1.5v1.5H254.3z"/>
			</g>
		</g>
	</g>
</g>
<g>
	<g>
		<g>
			<g enable-background="new    ">
				<path d="M284.3,157.2v-1.5h1.5v1.5H284.3z"/>
			</g>
		</g>
	</g>
</g>
<g>
	<g>
		<g>
			<g enable-background="new    ">
				<path d="M314.3,157.2v-1.5h1.5v1.5H314.3z"/>
			</g>
		</g>
	</g>
</g>
<g>
	<g>
		<g>
			<g enable-background="new    ">
				<path d="M344.3,157.2v-1.5h1.5v1.5H344.3z"/>
			</g>
		</g>
	</g>
</g>
<g>
	<g>
		<g>
			<g>
				<g enable-background="new    ">
					<path d="M222,178.3l1,0.3c-0.2,0.9-0.6,1.5-1.2,2c-0.6,0.4-1.3,0.7-2.1,0.7c-0.8,0-1.5-0.2-2.1-0.5c-0.5-0.3-0.9-0.8-1.2-1.5
						c-0.3-0.7-0.4-1.4-0.4-2.1c0-0.8,0.2-1.5,0.5-2.1c0.3-0.6,0.8-1.1,1.3-1.4c0.6-0.3,1.2-0.5,1.9-0.5c0.8,0,1.5,0.2,2,0.6
						c0.5,0.4,0.9,1,1.1,1.7l-1,0.2c-0.2-0.6-0.4-1-0.8-1.3s-0.8-0.4-1.3-0.4c-0.6,0-1.1,0.1-1.5,0.4c-0.4,0.3-0.7,0.7-0.9,1.2
						c-0.2,0.5-0.2,1-0.2,1.5c0,0.7,0.1,1.3,0.3,1.8c0.2,0.5,0.5,0.9,0.9,1.1s0.9,0.4,1.3,0.4c0.6,0,1.1-0.2,1.5-0.5
						C221.5,179.4,221.8,178.9,222,178.3z"/>
				</g>
			</g>
		</g>
	</g>
	<g>
		<g>
			<g>
				<g enable-background="new    ">
					<path d="M228.4,178.6l-0.9,0.1c-0.1-0.3-0.2-0.6-0.3-0.8c-0.2-0.3-0.5-0.4-0.9-0.4c-0.3,0-0.5,0.1-0.7,0.2
						c-0.3,0.2-0.5,0.5-0.7,0.9c-0.2,0.4-0.2,0.9-0.2,1.7c0.2-0.3,0.5-0.6,0.8-0.7c0.3-0.2,0.6-0.2,1-0.2c0.6,0,1.1,0.2,1.5,0.6
						c0.4,0.4,0.6,1,0.6,1.7c0,0.4-0.1,0.9-0.3,1.3c-0.2,0.4-0.5,0.7-0.8,0.9c-0.3,0.2-0.7,0.3-1.2,0.3c-0.7,0-1.3-0.3-1.8-0.8
						c-0.5-0.5-0.7-1.4-0.7-2.7c0-1.4,0.3-2.4,0.8-3c0.4-0.5,1-0.8,1.8-0.8c0.6,0,1,0.2,1.4,0.5
						C228.1,177.6,228.3,178.1,228.4,178.6z M224.8,181.7c0,0.3,0.1,0.6,0.2,0.9c0.1,0.3,0.3,0.5,0.5,0.6c0.2,0.1,0.5,0.2,0.7,0.2
						c0.4,0,0.7-0.1,1-0.4c0.3-0.3,0.4-0.7,0.4-1.2c0-0.5-0.1-0.9-0.4-1.2c-0.3-0.3-0.6-0.4-1-0.4c-0.4,0-0.7,0.1-1,0.4
						C225,180.9,224.8,181.2,224.8,181.7z"/>
					<path d="M232.2,184v-1.7h-3.1v-0.8l3.3-4.6h0.7v4.6h1v0.8h-1v1.7H232.2z M232.2,181.5v-3.2l-2.2,3.2H232.2z"/>
				</g>
			</g>
		</g>
	</g>
</g>
<g>
	<g>
		<g>
			<g enable-background="new    ">
				<path d="M254.3,181v-1.5h1.5v1.5H254.3z"/>
			</g>
		</g>
	</g>
</g>
<g>
	<g>
		<g>
			<g enable-background="new    ">
				<path d="M284.3,181v-1.5h1.5v1.5H284.3z"/>
			</g>
		</g>
	</g>
</g>
<g>
	<g>
		<g>
			<g enable-background="new    ">
				<path d="M314.3,181v-1.5h1.5v1.5H314.3z"/>
			</g>
		</g>
	</g>
</g>
<g>
	<g>
		<g>
			<g enable-background="new    ">
				<path d="M344.3,181v-1.5h1.5v1.5H344.3z"/>
			</g>
		</g>
	</g>
</g>
<g>
	<g>
		<g>
			<g>
				<g enable-background="new    ">
					<path d="M252,202l1,0.3c-0.2,0.9-0.6,1.5-1.2,2c-0.6,0.4-1.3,0.7-2.1,0.7c-0.8,0-1.5-0.2-2.1-0.5c-0.5-0.3-0.9-0.8-1.2-1.5
						c-0.3-0.7-0.4-1.4-0.4-2.1c0-0.8,0.2-1.5,0.5-2.1c0.3-0.6,0.8-1.1,1.3-1.4c0.6-0.3,1.2-0.5,1.9-0.5c0.8,0,1.5,0.2,2,0.6
						c0.5,0.4,0.9,1,1.1,1.7l-1,0.2c-0.2-0.6-0.4-1-0.8-1.3s-0.8-0.4-1.3-0.4c-0.6,0-1.1,0.1-1.5,0.4c-0.4,0.3-0.7,0.7-0.9,1.2
						c-0.2,0.5-0.2,1-0.2,1.5c0,0.7,0.1,1.3,0.3,1.8c0.2,0.5,0.5,0.9,0.9,1.1s0.9,0.4,1.3,0.4c0.6,0,1.1-0.2,1.5-0.5
						C251.5,203.2,251.8,202.7,252,202z"/>
				</g>
			</g>
		</g>
	</g>
	<g>
		<g>
			<g>
				<g enable-background="new    ">
					<path d="M258.4,202.4l-0.9,0.1c-0.1-0.3-0.2-0.6-0.3-0.8c-0.2-0.3-0.5-0.4-0.9-0.4c-0.3,0-0.5,0.1-0.7,0.2
						c-0.3,0.2-0.5,0.5-0.7,0.9c-0.2,0.4-0.2,0.9-0.2,1.7c0.2-0.3,0.5-0.6,0.8-0.7c0.3-0.2,0.6-0.2,1-0.2c0.6,0,1.1,0.2,1.5,0.6
						c0.4,0.4,0.6,1,0.6,1.7c0,0.4-0.1,0.9-0.3,1.3c-0.2,0.4-0.5,0.7-0.8,0.9c-0.3,0.2-0.7,0.3-1.2,0.3c-0.7,0-1.3-0.3-1.8-0.8
						c-0.5-0.5-0.7-1.4-0.7-2.7c0-1.4,0.3-2.4,0.8-3c0.4-0.5,1-0.8,1.8-0.8c0.6,0,1,0.2,1.4,0.5
						C258.1,201.4,258.3,201.8,258.4,202.4z M254.8,205.5c0,0.3,0.1,0.6,0.2,0.9c0.1,0.3,0.3,0.5,0.5,0.6c0.2,0.1,0.5,0.2,0.7,0.2
						c0.4,0,0.7-0.1,1-0.4c0.3-0.3,0.4-0.7,0.4-1.2c0-0.5-0.1-0.9-0.4-1.2c-0.3-0.3-0.6-0.4-1-0.4c-0.4,0-0.7,0.1-1,0.4
						C255,204.7,254.8,205,254.8,205.5z"/>
					<path d="M259.6,206.2l0.8-0.1c0.1,0.4,0.2,0.7,0.4,0.9c0.2,0.2,0.5,0.3,0.8,0.3c0.3,0,0.5-0.1,0.7-0.2c0.2-0.1,0.4-0.3,0.5-0.5
						c0.1-0.2,0.2-0.5,0.3-0.8s0.1-0.7,0.1-1.1c0,0,0-0.1,0-0.2c-0.2,0.3-0.4,0.5-0.7,0.7c-0.3,0.2-0.6,0.3-1,0.3
						c-0.6,0-1.1-0.2-1.5-0.6s-0.6-1-0.6-1.7c0-0.7,0.2-1.3,0.6-1.8c0.4-0.4,1-0.7,1.6-0.7c0.5,0,0.9,0.1,1.3,0.4s0.7,0.6,0.9,1.1
						c0.2,0.5,0.3,1.1,0.3,2c0,0.9-0.1,1.6-0.3,2.2c-0.2,0.5-0.5,1-0.9,1.2c-0.4,0.3-0.9,0.4-1.4,0.4c-0.6,0-1-0.2-1.4-0.5
						C259.8,207.2,259.6,206.7,259.6,206.2z M263.2,203c0-0.5-0.1-0.9-0.4-1.2s-0.6-0.4-1-0.4c-0.4,0-0.7,0.2-1,0.5
						c-0.3,0.3-0.4,0.7-0.4,1.2c0,0.5,0.1,0.8,0.4,1.1c0.3,0.3,0.6,0.4,1,0.4c0.4,0,0.7-0.1,1-0.4C263,203.9,263.2,203.5,263.2,203z
						"/>
				</g>
			</g>
		</g>
	</g>
</g>
<g>
	<g>
		<g>
			<g enable-background="new    ">
				<path d="M284.3,204.8v-1.5h1.5v1.5H284.3z"/>
			</g>
		</g>
	</g>
</g>
<g>
	<g>
		<g>
			<g enable-background="new    ">
				<path d="M314.3,204.8v-1.5h1.5v1.5H314.3z"/>
			</g>
		</g>
	</g>
</g>
<g>
	<g>
		<g>
			<g enable-background="new    ">
				<path d="M344.3,204.8v-1.5h1.5v1.5H344.3z"/>
			</g>
		</g>
	</g>
</g>
<g>
	<g>
		<g>
			<g>
				<g enable-background="new    ">
					<path d="M282,225.8l1,0.3c-0.2,0.9-0.6,1.5-1.2,2c-0.6,0.4-1.3,0.7-2.1,0.7c-0.8,0-1.5-0.2-2.1-0.5c-0.5-0.3-0.9-0.8-1.2-1.5
						c-0.3-0.7-0.4-1.4-0.4-2.1c0-0.8,0.2-1.5,0.5-2.1c0.3-0.6,0.8-1.1,1.3-1.4c0.6-0.3,1.2-0.5,1.9-0.5c0.8,0,1.5,0.2,2,0.6
						c0.5,0.4,0.9,1,1.1,1.7l-1,0.2c-0.2-0.6-0.4-1-0.8-1.3s-0.8-0.4-1.3-0.4c-0.6,0-1.1,0.1-1.5,0.4c-0.4,0.3-0.7,0.7-0.9,1.2
						c-0.2,0.5-0.2,1-0.2,1.5c0,0.7,0.1,1.3,0.3,1.8c0.2,0.5,0.5,0.9,0.9,1.1s0.9,0.4,1.3,0.4c0.6,0,1.1-0.2,1.5-0.5
						C281.5,227,281.8,226.5,282,225.8z"/>
				</g>
			</g>
		</g>
	</g>
	<g>
		<g>
			<g>
				<g enable-background="new    ">
					<path d="M283.9,225.4v-0.8h4.6v0.7c-0.5,0.5-0.9,1.1-1.4,1.9c-0.4,0.8-0.8,1.6-1,2.5c-0.2,0.6-0.3,1.3-0.3,2h-0.9
						c0-0.6,0.1-1.2,0.3-2c0.2-0.8,0.5-1.6,0.9-2.3c0.4-0.7,0.8-1.4,1.3-1.9H283.9z"/>
					<path d="M289.4,229.7l0.9-0.1c0.1,0.5,0.3,0.9,0.5,1.1c0.2,0.2,0.5,0.3,0.9,0.3c0.4,0,0.8-0.1,1-0.4c0.3-0.3,0.4-0.6,0.4-1.1
						c0-0.4-0.1-0.7-0.4-1c-0.3-0.3-0.6-0.4-1-0.4c-0.2,0-0.4,0-0.6,0.1l0.1-0.8c0.1,0,0.1,0,0.1,0c0.4,0,0.7-0.1,1-0.3
						c0.3-0.2,0.4-0.5,0.4-0.9c0-0.3-0.1-0.6-0.3-0.8c-0.2-0.2-0.5-0.3-0.8-0.3c-0.3,0-0.6,0.1-0.9,0.3c-0.2,0.2-0.4,0.5-0.4,1
						l-0.9-0.2c0.1-0.6,0.4-1,0.7-1.4c0.4-0.3,0.9-0.5,1.4-0.5c0.4,0,0.8,0.1,1.1,0.3c0.3,0.2,0.6,0.4,0.8,0.7
						c0.2,0.3,0.3,0.6,0.3,0.9c0,0.3-0.1,0.6-0.2,0.8s-0.4,0.5-0.7,0.6c0.4,0.1,0.8,0.3,1,0.6c0.2,0.3,0.4,0.7,0.4,1.2
						c0,0.6-0.2,1.2-0.7,1.6c-0.5,0.4-1,0.7-1.7,0.7c-0.6,0-1.1-0.2-1.6-0.6S289.5,230.3,289.4,229.7z"/>
				</g>
			</g>
		</g>
	</g>
</g>
<g>
	<g>
		<g>
			<g enable-background="new    ">
				<path d="M314.3,228.6v-1.5h1.5v1.5H314.3z"/>
			</g>
		</g>
	</g>
</g>
<g>
	<g>
		<g>
			<g enable-background="new    ">
				<path d="M344.3,228.6v-1.5h1.5v1.5H344.3z"/>
			</g>
		</g>
	</g>
</g>
<g>
	<g>
		<g>
			<g>
				<g enable-background="new    ">
					<path d="M312,249.6l1,0.3c-0.2,0.9-0.6,1.5-1.2,2c-0.6,0.4-1.3,0.7-2.1,0.7c-0.8,0-1.5-0.2-2.1-0.5c-0.5-0.3-0.9-0.8-1.2-1.5
						c-0.3-0.7-0.4-1.4-0.4-2.1c0-0.8,0.2-1.5,0.5-2.1s0.8-1.1,1.3-1.4c0.6-0.3,1.2-0.5,1.9-0.5c0.8,0,1.5,0.2,2,0.6
						c0.5,0.4,0.9,1,1.1,1.7l-1,0.2c-0.2-0.6-0.4-1-0.8-1.3c-0.3-0.3-0.8-0.4-1.3-0.4c-0.6,0-1.1,0.1-1.5,0.4s-0.7,0.7-0.9,1.2
						c-0.2,0.5-0.2,1-0.2,1.5c0,0.7,0.1,1.3,0.3,1.8c0.2,0.5,0.5,0.9,0.9,1.1c0.4,0.2,0.9,0.4,1.3,0.4c0.6,0,1.1-0.2,1.5-0.5
						C311.5,250.8,311.8,250.3,312,249.6z"/>
				</g>
			</g>
		</g>
	</g>
	<g>
		<g>
			<g>
				<g enable-background="new    ">
					<path d="M313.9,249.2v-0.8h4.6v0.7c-0.5,0.5-0.9,1.1-1.4,1.9c-0.4,0.8-0.8,1.6-1,2.5c-0.2,0.6-0.3,1.3-0.3,2h-0.9
						c0-0.6,0.1-1.2,0.3-2c0.2-0.8,0.5-1.6,0.9-2.3c0.4-0.7,0.8-1.4,1.3-1.9H313.9z"/>
					<path d="M324,250l-0.9,0.1c-0.1-0.3-0.2-0.6-0.3-0.8c-0.2-0.3-0.5-0.4-0.9-0.4c-0.3,0-0.5,0.1-0.7,0.2
						c-0.3,0.2-0.5,0.5-0.7,0.9c-0.2,0.4-0.2,0.9-0.2,1.7c0.2-0.3,0.5-0.6,0.8-0.7c0.3-0.2,0.6-0.2,1-0.2c0.6,0,1.1,0.2,1.5,0.6
						c0.4,0.4,0.6,1,0.6,1.7c0,0.4-0.1,0.9-0.3,1.3c-0.2,0.4-0.5,0.7-0.8,0.9c-0.3,0.2-0.7,0.3-1.2,0.3c-0.7,0-1.3-0.3-1.8-0.8
						c-0.5-0.5-0.7-1.4-0.7-2.7c0-1.4,0.3-2.4,0.8-3c0.4-0.5,1-0.8,1.8-0.8c0.6,0,1,0.2,1.4,0.5C323.7,249,323.9,249.4,324,250z
						 M320.4,253.1c0,0.3,0.1,0.6,0.2,0.9c0.1,0.3,0.3,0.5,0.5,0.6c0.2,0.1,0.5,0.2,0.7,0.2c0.4,0,0.7-0.1,1-0.4
						c0.3-0.3,0.4-0.7,0.4-1.2c0-0.5-0.1-0.9-0.4-1.2c-0.3-0.3-0.6-0.4-1-0.4c-0.4,0-0.7,0.1-1,0.4
						C320.5,252.2,320.4,252.6,320.4,253.1z"/>
				</g>
			</g>
		</g>
	</g>
</g>
<g>
	<g>
		<g>
			<g enable-background="new    ">
				<path d="M344.3,252.4v-1.5h1.5v1.5H344.3z"/>
			</g>
		</g>
	</g>
</g>
<g>
	<g>
		<g>
			<g>
				<g enable-background="new    ">
					<path d="M342,273.4l1,0.3c-0.2,0.9-0.6,1.5-1.2,2c-0.6,0.4-1.3,0.7-2.1,0.7c-0.8,0-1.5-0.2-2.1-0.5c-0.5-0.3-0.9-0.8-1.2-1.5
						c-0.3-0.7-0.4-1.4-0.4-2.1c0-0.8,0.2-1.5,0.5-2.1s0.8-1.1,1.3-1.4c0.6-0.3,1.2-0.5,1.9-0.5c0.8,0,1.5,0.2,2,0.6
						c0.5,0.4,0.9,1,1.1,1.7l-1,0.2c-0.2-0.6-0.4-1-0.8-1.3c-0.3-0.3-0.8-0.4-1.3-0.4c-0.6,0-1.1,0.1-1.5,0.4s-0.7,0.7-0.9,1.2
						c-0.2,0.5-0.2,1-0.2,1.5c0,0.7,0.1,1.3,0.3,1.8c0.2,0.5,0.5,0.9,0.9,1.1c0.4,0.2,0.9,0.4,1.3,0.4c0.6,0,1.1-0.2,1.5-0.5
						C341.5,274.6,341.8,274.1,342,273.4z"/>
				</g>
			</g>
		</g>
	</g>
	<g>
		<g>
			<g>
				<g enable-background="new    ">
					<path d="M343.9,272.9v-0.8h4.6v0.7c-0.5,0.5-0.9,1.1-1.4,1.9c-0.4,0.8-0.8,1.6-1,2.5c-0.2,0.6-0.3,1.3-0.3,2h-0.9
						c0-0.6,0.1-1.2,0.3-2c0.2-0.8,0.5-1.6,0.9-2.3c0.4-0.7,0.8-1.4,1.3-1.9H343.9z"/>
					<path d="M350.8,275.3c-0.4-0.1-0.6-0.3-0.8-0.6s-0.3-0.5-0.3-0.9c0-0.5,0.2-1,0.6-1.3c0.4-0.4,0.9-0.5,1.5-0.5
						c0.6,0,1.1,0.2,1.5,0.5c0.4,0.4,0.6,0.8,0.6,1.3c0,0.3-0.1,0.6-0.3,0.9c-0.2,0.2-0.4,0.4-0.8,0.6c0.4,0.1,0.8,0.4,1,0.7
						s0.3,0.7,0.3,1.1c0,0.6-0.2,1.1-0.6,1.5c-0.4,0.4-1,0.6-1.7,0.6c-0.7,0-1.3-0.2-1.7-0.6c-0.4-0.4-0.6-0.9-0.6-1.6
						c0-0.5,0.1-0.9,0.4-1.2C350,275.6,350.3,275.4,350.8,275.3z M350.3,277.1c0,0.3,0.1,0.5,0.2,0.7c0.1,0.2,0.3,0.4,0.5,0.5
						c0.2,0.1,0.5,0.2,0.8,0.2c0.4,0,0.8-0.1,1-0.4s0.4-0.6,0.4-1c0-0.4-0.1-0.8-0.4-1c-0.3-0.3-0.6-0.4-1.1-0.4
						c-0.4,0-0.8,0.1-1,0.4C350.4,276.3,350.3,276.7,350.3,277.1z M350.6,273.8c0,0.3,0.1,0.6,0.3,0.8c0.2,0.2,0.5,0.3,0.8,0.3
						c0.3,0,0.6-0.1,0.8-0.3c0.2-0.2,0.3-0.5,0.3-0.8c0-0.3-0.1-0.6-0.3-0.8c-0.2-0.2-0.5-0.3-0.8-0.3c-0.3,0-0.6,0.1-0.8,0.3
						C350.7,273.2,350.6,273.5,350.6,273.8z"/>
				</g>
			</g>
		</g>
	</g>
</g>
<line fill="none" stroke="#000000" x1="178.5" y1="3.2" x2="178.5" y2="282.2"/>
<line fill="none" stroke="#000000" x1="4" y1="142.2" x2="354" y2="142.2"/>
<polyline fill="none" stroke="#000000" points="9.2,0.5 0.5,0.5 0.5,285.5 8.5,285.5 "/>
<polyline fill="none" stroke="#000000" points="348.5,0.5 357.2,0.5 357.2,285.5 349.2,285.5 "/>
<g>
	<g>
		<g>
			<g enable-background="new    ">
				<path d="M57.7,215.3l1-0.1c0,0.4,0.2,0.7,0.3,1c0.2,0.3,0.4,0.5,0.8,0.6c0.4,0.2,0.8,0.2,1.2,0.2c0.4,0,0.7-0.1,1.1-0.2
					s0.5-0.3,0.7-0.5c0.1-0.2,0.2-0.4,0.2-0.7c0-0.2-0.1-0.5-0.2-0.6s-0.4-0.3-0.7-0.5c-0.2-0.1-0.7-0.2-1.4-0.4s-1.2-0.3-1.5-0.5
					c-0.4-0.2-0.7-0.4-0.8-0.7c-0.2-0.3-0.3-0.6-0.3-1c0-0.4,0.1-0.8,0.3-1.1s0.6-0.6,1-0.8c0.4-0.2,0.9-0.3,1.4-0.3
					c0.6,0,1.1,0.1,1.5,0.3c0.4,0.2,0.8,0.5,1,0.8s0.4,0.8,0.4,1.2l-1,0.1c-0.1-0.5-0.2-0.9-0.5-1.1c-0.3-0.3-0.8-0.4-1.4-0.4
					c-0.6,0-1.1,0.1-1.4,0.3c-0.3,0.2-0.4,0.5-0.4,0.8c0,0.3,0.1,0.5,0.3,0.7c0.2,0.2,0.7,0.4,1.6,0.6c0.8,0.2,1.4,0.4,1.7,0.5
					c0.5,0.2,0.8,0.5,1,0.8s0.3,0.7,0.3,1.1c0,0.4-0.1,0.8-0.4,1.2c-0.2,0.4-0.6,0.7-1,0.9c-0.4,0.2-1,0.3-1.5,0.3
					c-0.7,0-1.3-0.1-1.8-0.3c-0.5-0.2-0.9-0.5-1.1-0.9C57.8,216.3,57.7,215.8,57.7,215.3z"/>
				<path d="M65.2,220l-0.1-0.9c0.2,0.1,0.4,0.1,0.6,0.1c0.2,0,0.4,0,0.5-0.1s0.2-0.2,0.3-0.3c0.1-0.1,0.2-0.3,0.3-0.7
					c0-0.1,0-0.1,0.1-0.2l-2.2-5.7h1l1.2,3.3c0.2,0.4,0.3,0.9,0.4,1.3c0.1-0.4,0.2-0.9,0.4-1.3l1.2-3.3h1l-2.2,5.8
					c-0.2,0.6-0.4,1.1-0.5,1.3c-0.2,0.3-0.4,0.6-0.6,0.7s-0.5,0.2-0.8,0.2C65.6,220.1,65.4,220.1,65.2,220z"/>
				<path d="M70.7,217.8v-5.7h0.9v0.8c0.2-0.3,0.4-0.5,0.7-0.7s0.6-0.3,1-0.3c0.4,0,0.8,0.1,1,0.3c0.3,0.2,0.5,0.4,0.6,0.7
					c0.5-0.7,1-1,1.8-1c0.6,0,1,0.2,1.3,0.5s0.5,0.8,0.5,1.4v3.9h-1v-3.6c0-0.4,0-0.7-0.1-0.8c-0.1-0.2-0.2-0.3-0.3-0.4
					c-0.2-0.1-0.4-0.2-0.6-0.2c-0.4,0-0.7,0.1-1,0.4s-0.4,0.7-0.4,1.3v3.3h-1v-3.7c0-0.4-0.1-0.8-0.2-1s-0.4-0.3-0.8-0.3
					c-0.3,0-0.5,0.1-0.8,0.2c-0.2,0.1-0.4,0.4-0.5,0.6c-0.1,0.3-0.2,0.7-0.2,1.2v3H70.7z"/>
				<path d="M79.9,217.8v-5.7h0.9v0.8c0.2-0.3,0.4-0.5,0.7-0.7s0.6-0.3,1-0.3c0.4,0,0.8,0.1,1,0.3c0.3,0.2,0.5,0.4,0.6,0.7
					c0.5-0.7,1-1,1.8-1c0.6,0,1,0.2,1.3,0.5s0.5,0.8,0.5,1.4v3.9h-1v-3.6c0-0.4,0-0.7-0.1-0.8c-0.1-0.2-0.2-0.3-0.3-0.4
					c-0.2-0.1-0.4-0.2-0.6-0.2c-0.4,0-0.7,0.1-1,0.4s-0.4,0.7-0.4,1.3v3.3h-1v-3.7c0-0.4-0.1-0.8-0.2-1s-0.4-0.3-0.8-0.3
					c-0.3,0-0.5,0.1-0.8,0.2c-0.2,0.1-0.4,0.4-0.5,0.6c-0.1,0.3-0.2,0.7-0.2,1.2v3H79.9z"/>
				<path d="M93,216l1,0.1c-0.2,0.6-0.4,1-0.9,1.4s-1,0.5-1.6,0.5c-0.8,0-1.5-0.3-2-0.8c-0.5-0.5-0.7-1.2-0.7-2.2
					c0-1,0.2-1.7,0.7-2.2s1.1-0.8,1.9-0.8c0.8,0,1.4,0.3,1.9,0.8c0.5,0.5,0.7,1.3,0.7,2.2c0,0.1,0,0.1,0,0.3h-4.3
					c0,0.6,0.2,1.1,0.5,1.4c0.3,0.3,0.7,0.5,1.2,0.5c0.4,0,0.7-0.1,0.9-0.3S92.8,216.4,93,216z M89.8,214.4H93
					c0-0.5-0.2-0.8-0.4-1.1c-0.3-0.4-0.7-0.6-1.2-0.6c-0.4,0-0.8,0.1-1.1,0.4C90,213.5,89.8,213.9,89.8,214.4z"/>
				<path d="M97.3,217l0.1,0.9c-0.3,0.1-0.5,0.1-0.7,0.1c-0.4,0-0.6-0.1-0.8-0.2c-0.2-0.1-0.3-0.3-0.4-0.4s-0.1-0.6-0.1-1.1v-3.3
					h-0.7v-0.8h0.7v-1.4l1-0.6v2h1v0.8h-1v3.3c0,0.3,0,0.5,0.1,0.5c0,0.1,0.1,0.1,0.2,0.2c0.1,0,0.2,0.1,0.3,0.1
					C97,217,97.1,217,97.3,217z"/>
				<path d="M98.2,217.8v-5.7h0.9v0.9c0.2-0.4,0.4-0.7,0.6-0.8c0.2-0.1,0.4-0.2,0.6-0.2c0.3,0,0.7,0.1,1,0.3l-0.3,0.9
					c-0.2-0.1-0.5-0.2-0.7-0.2c-0.2,0-0.4,0.1-0.6,0.2s-0.3,0.3-0.4,0.5c-0.1,0.3-0.2,0.7-0.2,1.1v3H98.2z"/>
				<path d="M101.9,211.1V210h1v1.1H101.9z M101.9,217.8v-5.7h1v5.7H101.9z"/>
				<path d="M108.1,215.7l1,0.1c-0.1,0.7-0.4,1.2-0.8,1.5c-0.4,0.4-1,0.6-1.6,0.6c-0.8,0-1.4-0.3-1.9-0.8c-0.5-0.5-0.7-1.2-0.7-2.2
					c0-0.6,0.1-1.2,0.3-1.6s0.5-0.8,0.9-1c0.4-0.2,0.9-0.3,1.4-0.3c0.6,0,1.1,0.2,1.5,0.5s0.6,0.8,0.8,1.3L108,214
					c-0.1-0.4-0.2-0.7-0.5-0.9c-0.2-0.2-0.5-0.3-0.8-0.3c-0.5,0-0.9,0.2-1.2,0.5c-0.3,0.3-0.5,0.9-0.5,1.7c0,0.8,0.1,1.3,0.4,1.7
					c0.3,0.3,0.7,0.5,1.1,0.5c0.4,0,0.7-0.1,1-0.3C107.8,216.6,108,216.2,108.1,215.7z"/>
			</g>
		</g>
	</g>
</g>
</svg>
