<?xml version="1.0" encoding="utf-8"?>
<!-- Generator: Adobe Illustrator 17.1.0, SVG Export Plug-In . SVG Version: 6.00 Build 0)  -->

<svg version="1.1" id="Layer_1" xmlns="http://www.w3.org/2000/svg" xmlns:xlink="http://www.w3.org/1999/xlink" x="0px" y="0px"
	 width="386.4px" height="143.5px" viewBox="0 1.6 386.4 143.5" enable-background="new 0 1.6 386.4 143.5" xml:space="preserve">
<g>
	<g>
		<g>
			<g>
				<g>
					<text transform="matrix(1.0005 0 0 1 27.7393 90.5117)" font-family="'ArialMT'" font-size="11">Z</text>
				</g>
			</g>
		</g>
	</g>
	<g>
		<g>
			<polygon fill="#FFFFFF" points="33.4,103.9 30.5,93.1 27.6,103.9 			"/>
		</g>
		<g>
			<line fill="none" stroke="#000000" stroke-linecap="square" x1="30.6" y1="101.9" x2="30.6" y2="121.9"/>
			<polygon points="33.4,103.9 30.5,93.1 27.6,103.9 			"/>
		</g>
	</g>
	<g>
		<g>
			<g>
				<g>
					<text transform="matrix(1.0014 0 0 1 0 141.4619)" font-family="'ArialMT'" font-size="11">X</text>
				</g>
			</g>
		</g>
	</g>
	<g>
		<g>
			<g>
				<g>
					<text transform="matrix(1.0014 0 0 1 60.8345 125.8945)" font-family="'ArialMT'" font-size="11">Y</text>
				</g>
			</g>
		</g>
	</g>
	<g>
		<g>
			<polygon fill="#FFFFFF" points="49.4,124.8 60.3,121.9 49.4,118.9 			"/>
		</g>
		<g>
			<line fill="none" stroke="#000000" stroke-linecap="square" x1="51.4" y1="121.9" x2="30.6" y2="121.9"/>
			<polygon points="49.4,124.8 60.3,121.9 49.4,118.9 			"/>
		</g>
	</g>
	<g>
		<g>
			<polygon fill="#FFFFFF" points="15.5,128.5 8.3,137 18.8,133.3 			"/>
		</g>
		<g>
			<line fill="none" stroke="#000000" stroke-linecap="square" x1="15.5" y1="132" x2="30.4" y2="121.8"/>
			<polygon points="15.5,128.5 8.3,137 18.8,133.3 			"/>
		</g>
	</g>
</g>
<rect x="257" y="22" transform="matrix(-0.9436 0.3311 -0.3311 -0.9436 551.0324 -45.6905)" fill="none" stroke="#000000" stroke-dasharray="2.16" width="44.8" height="4.2"/>
<path stroke="#000000" stroke-width="0.8" d="M301.5,18.6c-0.9,1.1-2.4,1.3-3.5,0.4s-1.3-2.4-0.4-3.5s2.4-1.3,3.5-0.4
	C302.2,15.9,302.4,17.5,301.5,18.6z"/>
<g>
	<g>
		<polygon fill="#FFFFFF" points="295.9,42.3 305.1,35.9 293.9,36.9 		"/>
	</g>
	<g>
		<line fill="none" stroke="#000000" stroke-linecap="square" x1="296.8" y1="39" x2="266.1" y2="50"/>
		<polygon points="295.9,42.3 305.1,35.9 293.9,36.9 		"/>
	</g>
</g>
<line fill="none" stroke="#000000" stroke-linecap="square" x1="262.7" y1="42.4" x2="269" y2="59.6"/>
<line fill="none" stroke="#000000" stroke-linecap="square" x1="303.4" y1="28.2" x2="309.8" y2="45.4"/>
<g>
	<g>
		<g>
			<g>
				<text transform="matrix(0.999 0 0 1 327.7891 11)" font-family="'ArialMT'" font-size="11.0004">S(AXL)</text>
			</g>
		</g>
	</g>
</g>
<g>
	<g>
		<polygon fill="#FFFFFF" points="315.5,14.6 324.7,8.2 313.5,9.1 		"/>
	</g>
	<g>
		<line fill="none" stroke="#000000" stroke-linecap="square" x1="316.4" y1="11.2" x2="304.4" y2="15.5"/>
		<polygon points="315.5,14.6 324.7,8.2 313.5,9.1 		"/>
	</g>
</g>
<g>
	<g>
		<g>
			<g>
				<g>
					<text transform="matrix(0.999 0 0 1 327.7891 69.0005)" font-family="'ArialMT'" font-size="11.0004">EPEL(AXL)</text>
				</g>
			</g>
		</g>
	</g>
	<g>
		<g>
			<g>
				<g>
					<text transform="matrix(0.999 0 0 1 327.7891 82.0005)" font-family="'ArialMT'" font-size="11.0004">EPPL(AXL)</text>
				</g>
			</g>
		</g>
	</g>
	<g>
		<g>
			<g>
				<g>
					<text transform="matrix(0.999 0 0 1 327.7891 95.0005)" font-family="'ArialMT'" font-size="11.0004">EPTH(AXL)</text>
				</g>
			</g>
		</g>
	</g>
	<g>
		<g>
			<g>
				<g>
					<text transform="matrix(0.999 0 0 1 327.7891 108.0005)" font-family="'ArialMT'" font-size="11.0004">EPCR(AXL)</text>
				</g>
			</g>
		</g>
	</g>
	<g>
		<g>
			<g>
				<g>
					<text transform="matrix(0.999 0 0 1 327.7891 121.0005)" enable-background="new    "><tspan x="0" y="0" font-family="'ArialMT'" font-size="11.0004">EP</tspan><tspan x="14.7" y="0" font-family="'ArialMT'" font-size="11.0004">T</tspan><tspan x="21.2" y="0" font-family="'ArialMT'" font-size="11.0004">O(AXL)</tspan></text>
				</g>
			</g>
		</g>
	</g>
</g>
<g>
	<g>
		<g>
			<g>
				<text transform="matrix(1.0014 0 0 1 255.4556 45.666)" font-family="'ArialMT'" font-size="11">J</text>
			</g>
		</g>
	</g>
</g>
<g>
	<g>
		<g>
			<g>
				<text transform="matrix(1.0014 0 0 1 73.7891 97.833)" font-family="'ArialMT'" font-size="11">I</text>
			</g>
		</g>
	</g>
</g>
<g>
	<polyline fill="#00BDF2" stroke="#000000" stroke-width="1.0009" stroke-linecap="square" points="84.5,98.8 257.8,35.3 
		255.7,30.2 82.4,93.3 84.5,98.8 	"/>
	<path stroke="#000000" d="M258.4,34.8c-1,1.3-2.9,1.5-4.3,0.5c-1.3-1-1.5-2.9-0.5-4.3c1-1.3,2.9-1.5,4.3-0.5
		C259.2,31.6,259.5,33.5,258.4,34.8z"/>
	<path stroke="#000000" d="M85.5,97.9c-1,1.3-2.9,1.5-4.3,0.5c-1.3-1-1.5-2.9-0.5-4.3c1-1.3,2.9-1.5,4.3-0.5
		C86.3,94.6,86.5,96.5,85.5,97.9z"/>
</g>
</svg>
