<?xml version="1.0" encoding="utf-8"?>
<!-- Generator: Adobe Illustrator 17.1.0, SVG Export Plug-In . SVG Version: 6.00 Build 0)  -->

<svg version="1.1" id="Layer_1" xmlns="http://www.w3.org/2000/svg" xmlns:xlink="http://www.w3.org/1999/xlink" x="0px" y="0px"
	 width="476.4px" height="224.2px" viewBox="0 1.6 476.4 224.2" enable-background="new 0 1.6 476.4 224.2" xml:space="preserve">
<line fill="none" stroke="#000000" stroke-linecap="square" x1="251.9" y1="61.6" x2="250.9" y2="70.5"/>
<line fill="none" stroke="#000000" stroke-linecap="square" x1="340.9" y1="183.4" x2="348.4" y2="188.2"/>
<line fill="none" stroke="#000000" stroke-linecap="square" x1="177.2" y1="214.3" x2="170.8" y2="220.6"/>
<polyline fill="none" stroke="#000000" stroke-dasharray="4.32" points="178.4,85.1 117.4,28 62.7,165.9 131.9,157.2 "/>
<polyline fill="none" stroke="#BFBFBF" stroke-dasharray="4.32" points="131.9,157.2 240.6,143.6 178.4,85.1 "/>
<polyline fill="none" stroke="#BFBFBF" stroke-dasharray="4.32" points="312.7,69.2 242.5,143.1 349.1,117.1 "/>
<polygon points="241.8,142.8 241.6,142.8 241.4,143.1 241.4,143.6 241.6,143.8 241.8,143.8 243.3,143.6 243.5,143.6 243.8,143.3 
	243.8,142.8 243.5,142.6 243.3,142.6 "/>
<polyline points="295.6,87.3 296.6,86.4 296.9,86.4 296.9,85.9 296.6,85.9 296.6,85.7 296.1,85.7 296.1,85.9 295.2,86.9 295.2,86.9 
	294.9,86.9 294.9,87.3 295.2,87.3 295.2,87.6 "/>
<path d="M312.5,68.4l0.7,0.7L312.5,68.4z"/>
<path d="M349.9,116.4l0.3,0.7L349.9,116.4z"/>
<polygon points="349.2,117.4 349,116.6 349.9,116.4 350.2,117.1 "/>
<path d="M127.8,158.4v-0.7V158.4z"/>
<g>
	<g>
		<g>
			<g>
				<text transform="matrix(0.9998 0 0 1 414.7842 106.4492)" font-family="'ArialMT'" font-size="11.0005">K</text>
			</g>
		</g>
	</g>
</g>
<g>
	<g>
		<g>
			<g>
				<text transform="matrix(0.9998 0 0 1 359.3008 10.9995)" font-family="'ArialMT'" font-size="11.0005">L</text>
			</g>
		</g>
	</g>
</g>
<g>
	<g>
		<g>
			<g>
				<g>
					<text transform="matrix(0.9998 0 0 1 282.6782 157.3789)" font-family="'ArialMT'" font-size="11.0005">X </text>
				</g>
			</g>
		</g>
	</g>
	<g>
		<g>
			<g>
				<g>
					<text transform="matrix(0.9998 0 0 1 292.8936 157.3789)" font-family="'ArialMT'" font-size="11.0005">(o</text>
				</g>
			</g>
		</g>
	</g>
	<g>
		<g>
			<g>
				<g>
					<text transform="matrix(0.9998 0 0 1 302.5737 157.3789)" font-family="'ArialMT'" font-size="11.0005">r </text>
				</g>
			</g>
		</g>
	</g>
	<g>
		<g>
			<g>
				<g>
					<text transform="matrix(0.9998 0 0 1 309.3799 157.3789)" font-family="'ArialMT'" font-size="11.0005">R</text>
				</g>
			</g>
		</g>
	</g>
	<g>
		<g>
			<g>
				<g>
					<text transform="matrix(0.9998 0 0 1 317.2344 157.3789)" font-family="'ArialMT'" font-size="11.0005">a</text>
				</g>
			</g>
		</g>
	</g>
	<g>
		<g>
			<g>
				<g>
					<text transform="matrix(0.9998 0 0 1 323.252 157.3789)" font-family="'ArialMT'" font-size="11.0005">d</text>
				</g>
			</g>
		</g>
	</g>
	<g>
		<g>
			<g>
				<g>
					<text transform="matrix(0.9998 0 0 1 329.2705 157.3789)" font-family="'ArialMT'" font-size="11.0005">i</text>
				</g>
			</g>
		</g>
	</g>
	<g>
		<g>
			<g>
				<g>
					<text transform="matrix(0.9998 0 0 1 331.8896 157.3789)" font-family="'ArialMT'" font-size="11.0005">a</text>
				</g>
			</g>
		</g>
	</g>
	<g>
		<g>
			<g>
				<g>
					<text transform="matrix(0.9998 0 0 1 337.9072 157.3789)" font-family="'ArialMT'" font-size="11.0005">l</text>
				</g>
			</g>
		</g>
	</g>
	<g>
		<g>
			<g>
				<g>
					<text transform="matrix(0.9998 0 0 1 340.2627 157.3789)" font-family="'ArialMT'" font-size="11.0005">)</text>
				</g>
			</g>
		</g>
	</g>
</g>
<g>
	<g>
		<g>
			<g>
				<g>
					<text transform="matrix(0.9998 0 0 1 194.3066 87.7505)" enable-background="new    "><tspan x="0" y="0" font-family="'ArialMT'" font-size="11.0005">     </tspan><tspan x="15.3" y="0" font-family="'ArialMT'" font-size="11.0005"> Y</tspan></text>
				</g>
			</g>
		</g>
	</g>
	<g>
		<g>
			<g>
				<g>
					<text transform="matrix(0.9998 0 0 1 194.3066 100.7505)" enable-background="new    "><tspan x="0" y="0" font-family="'ArialMT'" font-size="11.0005">(or</tspan><tspan x="13.4" y="0" font-family="'ArialMT'" font-size="11.0005"> </tspan><tspan x="15.9" y="0" font-family="'ArialMT'" font-size="11.0005">Axial)</tspan></text>
				</g>
			</g>
		</g>
	</g>
</g>
<g>
	<g>
		<g>
			<g>
				<text transform="matrix(0.9998 0 0 1 236.0806 159.9765)" font-family="'ArialMT'" font-size="11.0005">O</text>
			</g>
		</g>
	</g>
</g>
<g>
	<g>
		<g>
			<g>
				<g>
					<text transform="matrix(0.9998 0 0 1 211.9961 32.146)" font-family="'ArialMT'" font-size="11.0005">I</text>
				</g>
			</g>
		</g>
	</g>
	<g>
		<g>
			<g>
				<g>
					<text transform="matrix(0.9998 0 0 1 215.1396 32.146)" font-family="'ArialMT'" font-size="11.0005">S</text>
				</g>
			</g>
		</g>
	</g>
	<g>
		<g>
			<g>
				<g>
					<text transform="matrix(0.9998 0 0 1 222.2114 32.146)" font-family="'ArialMT'" font-size="11.0005">E </text>
				</g>
			</g>
		</g>
	</g>
	<g>
		<g>
			<g>
				<g>
					<text transform="matrix(0.9998 0 0 1 232.6909 32.146)" font-family="'ArialMT'" font-size="11.0005">D</text>
				</g>
			</g>
		</g>
	</g>
	<g>
		<g>
			<g>
				<g>
					<text transform="matrix(0.9998 0 0 1 240.5454 32.146)" font-family="'ArialMT'" font-size="11.0005">o</text>
				</g>
			</g>
		</g>
	</g>
	<g>
		<g>
			<g>
				<g>
					<text transform="matrix(0.9998 0 0 1 246.5635 32.146)" font-family="'ArialMT'" font-size="11.0005">ma</text>
				</g>
			</g>
		</g>
	</g>
	<g>
		<g>
			<g>
				<g>
					<text transform="matrix(0.9998 0 0 1 261.7427 32.146)" font-family="'ArialMT'" font-size="11.0005">i</text>
				</g>
			</g>
		</g>
	</g>
	<g>
		<g>
			<g>
				<g>
					<text transform="matrix(0.9998 0 0 1 264.0981 32.146)" font-family="'ArialMT'" font-size="11.0005">n</text>
				</g>
			</g>
		</g>
	</g>
</g>
<g>
	<g>
		<g>
			<g>
				<g>
					<text transform="matrix(0.9998 0 0 1 207.7383 209.9892)" font-family="'ArialMT'" font-size="11.0005">F</text>
				</g>
			</g>
		</g>
	</g>
	<g>
		<g>
			<g>
				<g>
					<text transform="matrix(0.9998 0 0 1 214.2803 209.9892)" font-family="'ArialMT'" font-size="11.0005">E </text>
				</g>
			</g>
		</g>
	</g>
	<g>
		<g>
			<g>
				<g>
					<text transform="matrix(0.9998 0 0 1 224.7598 209.9892)" font-family="'ArialMT'" font-size="11.0005">D</text>
				</g>
			</g>
		</g>
	</g>
	<g>
		<g>
			<g>
				<g>
					<text transform="matrix(0.9998 0 0 1 232.6143 209.9892)" font-family="'ArialMT'" font-size="11.0005">o</text>
				</g>
			</g>
		</g>
	</g>
	<g>
		<g>
			<g>
				<g>
					<text transform="matrix(0.9998 0 0 1 238.6323 209.9892)" font-family="'ArialMT'" font-size="11.0005">ma</text>
				</g>
			</g>
		</g>
	</g>
	<g>
		<g>
			<g>
				<g>
					<text transform="matrix(0.9998 0 0 1 253.8115 209.9892)" font-family="'ArialMT'" font-size="11.0005">i</text>
				</g>
			</g>
		</g>
	</g>
	<g>
		<g>
			<g>
				<g>
					<text transform="matrix(0.9998 0 0 1 256.167 209.9892)" font-family="'ArialMT'" font-size="11.0005">n</text>
				</g>
			</g>
		</g>
	</g>
</g>
<g>
	<g>
		<g>
			<g>
				<g>
					<text transform="matrix(0.9998 0 0 1 0 37.1479)" font-family="'ArialMT'" font-size="11.0005">I</text>
				</g>
			</g>
		</g>
	</g>
	<g>
		<g>
			<g>
				<g>
					<text transform="matrix(0.9998 0 0 1 3.1436 37.1479)" font-family="'ArialMT'" font-size="11.0005">N</text>
				</g>
			</g>
		</g>
	</g>
	<g>
		<g>
			<g>
				<g>
					<text transform="matrix(0.9998 0 0 1 10.9985 37.1479)" font-family="'ArialMT'" font-size="11.0005">F</text>
				</g>
			</g>
		</g>
	</g>
	<g>
		<g>
			<g>
				<g>
					<text transform="matrix(0.9998 0 0 1 17.5405 37.1479)" font-family="'ArialMT'" font-size="11.0005">I</text>
				</g>
			</g>
		</g>
	</g>
	<g>
		<g>
			<g>
				<g>
					<text transform="matrix(0.9998 0 0 1 20.6841 37.1479)" font-family="'ArialMT'" font-size="11.0005">N</text>
				</g>
			</g>
		</g>
	</g>
	<g>
		<g>
			<g>
				<g>
					<text transform="matrix(0.9998 0 0 1 28.5386 37.1479)" font-family="'ArialMT'" font-size="11.0005">1</text>
				</g>
			</g>
		</g>
	</g>
	<g>
		<g>
			<g>
				<g>
					<text transform="matrix(0.9998 0 0 1 34.5566 37.1479)" font-family="'ArialMT'" font-size="11.0005">1</text>
				</g>
			</g>
		</g>
	</g>
	<g>
		<g>
			<g>
				<g>
					<text transform="matrix(0.9998 0 0 1 40.5742 37.1479)" font-family="'ArialMT'" font-size="11.0005">0</text>
				</g>
			</g>
		</g>
	</g>
	<g>
		<g>
			<g>
				<g>
					<text transform="matrix(0.9998 0 0 1 0 50.148)" font-family="'ArialMT'" font-size="11.0005">(KEYOPT(2) = 1)</text>
				</g>
			</g>
		</g>
	</g>
</g>
<g>
	<g>
		<g>
			<g>
				<text transform="matrix(0.9998 0 0 1 168.5864 89.3931)" font-family="'ArialMT'" font-size="11.0005">I</text>
			</g>
		</g>
	</g>
</g>
<g>
	<g>
		<g>
			<g>
				<text transform="matrix(0.9998 0 0 1 148.7778 51.4873)" font-family="'ArialMT'" font-size="11.0005">P</text>
			</g>
		</g>
	</g>
</g>
<g>
	<g>
		<g>
			<g>
				<text transform="matrix(0.9998 0 0 1 119.8271 20.9272)" font-family="'ArialMT'" font-size="11.0005">L</text>
			</g>
		</g>
	</g>
</g>
<g>
	<g>
		<g>
			<g>
				<text transform="matrix(0.9998 0 0 1 137.7632 125.2715)" font-family="'ArialMT'" font-size="11.0005">M</text>
			</g>
		</g>
	</g>
</g>
<g>
	<g>
		<g>
			<g>
				<text transform="matrix(0.9998 0 0 1 60.019 180.4404)" font-family="'ArialMT'" font-size="11.0005">K</text>
			</g>
		</g>
	</g>
</g>
<g>
	<g>
		<g>
			<g>
				<text transform="matrix(0.9998 0 0 1 97.0088 175.1553)" font-family="'ArialMT'" font-size="11.0005">N</text>
			</g>
		</g>
	</g>
</g>
<g>
	<g>
		<g>
			<g>
				<text transform="matrix(0.9998 0 0 1 125.832 152.5742)" font-family="'ArialMT'" font-size="11.0005">J</text>
			</g>
		</g>
	</g>
</g>
<g>
	<g>
		<g>
			<g>
				<text transform="matrix(0.9998 0 0 1 97.9697 99.9639)" font-family="'ArialMT'" font-size="11.0005">O</text>
			</g>
		</g>
	</g>
</g>
<g>
	<g>
		<g>
			<g>
				<text transform="matrix(0.9998 0 0 1 341.0449 129.9922)" font-family="'ArialMT'" font-size="11.0005">J</text>
			</g>
		</g>
	</g>
</g>
<g>
	<g>
		<g>
			<g>
				<text transform="matrix(0.9998 0 0 1 310.1289 64.102)" font-family="'ArialMT'" font-size="11.0005">I</text>
			</g>
		</g>
	</g>
</g>
<polyline fill="none" stroke="#000000" stroke-linecap="square" points="345.1,186.9 272.6,221.3 173.7,216.9 131.3,157.1 
	178.3,85.3 252.4,66.5 313.1,69.2 350.1,117.2 345.1,186.9 272.6,221.3 "/>
<g>
	<g>
		<polygon fill="#FFFFFF" points="243.5,104 240.6,93.1 237.6,104 		"/>
	</g>
	<g>
		<line fill="none" stroke="#000000" stroke-linecap="square" x1="240.5" y1="143.6" x2="240.6" y2="102"/>
		<polygon points="243.5,104 240.6,93.1 237.6,104 		"/>
	</g>
</g>
<g>
	<g>
		<polygon fill="#FFFFFF" points="278.5,146.4 289.4,143.5 278.5,140.6 		"/>
	</g>
	<g>
		<line fill="none" stroke="#000000" x1="280.5" y1="143.5" x2="240.6" y2="143.6"/>
		<polygon points="278.5,146.4 289.4,143.5 278.5,140.6 		"/>
	</g>
</g>
<path fill="#D76A2B" stroke="#00BDF2" d="M457.2,80.3"/>
<line fill="none" stroke="#000000" stroke-linecap="square" x1="271.7" y1="216.4" x2="273.7" y2="225.2"/>
<g>
	<g>
		<polygon fill="#FFFFFF" points="113.7,70.2 122,77.7 118.6,67 		"/>
	</g>
	<g>
		<polyline fill="none" stroke="#000000" points="91.8,45.6 101.2,45.6 117.2,70.3 		"/>
		<polygon points="113.7,70.2 122,77.7 118.6,67 		"/>
	</g>
</g>
<g>
	<g>
		<g>
			<g>
				<g>
					<text transform="matrix(0.9998 0 0 1 392.334 155.9072)" font-family="'ArialMT'" font-size="11.0005">I</text>
				</g>
			</g>
		</g>
	</g>
	<g>
		<g>
			<g>
				<g>
					<text transform="matrix(0.9998 0 0 1 395.4775 155.9072)" font-family="'ArialMT'" font-size="11.0005">N</text>
				</g>
			</g>
		</g>
	</g>
	<g>
		<g>
			<g>
				<g>
					<text transform="matrix(0.9998 0 0 1 403.332 155.9072)" font-family="'ArialMT'" font-size="11.0005">F</text>
				</g>
			</g>
		</g>
	</g>
	<g>
		<g>
			<g>
				<g>
					<text transform="matrix(0.9998 0 0 1 409.874 155.9072)" font-family="'ArialMT'" font-size="11.0005">I</text>
				</g>
			</g>
		</g>
	</g>
	<g>
		<g>
			<g>
				<g>
					<text transform="matrix(0.9998 0 0 1 413.0176 155.9072)" font-family="'ArialMT'" font-size="11.0005">N</text>
				</g>
			</g>
		</g>
	</g>
	<g>
		<g>
			<g>
				<g>
					<text transform="matrix(0.9998 0 0 1 420.8721 155.9072)" font-family="'ArialMT'" font-size="11.0005">1</text>
				</g>
			</g>
		</g>
	</g>
	<g>
		<g>
			<g>
				<g>
					<text transform="matrix(0.9998 0 0 1 426.8896 155.9072)" font-family="'ArialMT'" font-size="11.0005">1</text>
				</g>
			</g>
		</g>
	</g>
	<g>
		<g>
			<g>
				<g>
					<text transform="matrix(0.9998 0 0 1 432.9082 155.9072)" font-family="'ArialMT'" font-size="11.0005">0</text>
				</g>
			</g>
		</g>
	</g>
	<g>
		<g>
			<g>
				<g>
					<text transform="matrix(0.9998 0 0 1 392.334 168.9073)" font-family="'ArialMT'" font-size="11.0005">(KEYOPT(2) = 0)</text>
				</g>
			</g>
		</g>
	</g>
</g>
<g>
	<g>
		<g>
			<g>
				<g>
					<text transform="matrix(0.9996 0 0 1 396.9971 51.9468)" font-family="'ArialMT'" font-size="10.9995">3</text>
				</g>
			</g>
		</g>
	</g>
	<path fill="none" stroke="#000000" d="M394,48.2c0-3.4,2.7-6.1,6.1-6.1s6.1,2.7,6.1,6.1c0,3.4-2.7,6.1-6.1,6.1S394,51.6,394,48.2
		L394,48.2z"/>
</g>
<path d="M146.4,58.1c0-1.6,1.3-2.9,2.9-2.9c1.6,0,2.9,1.3,2.9,2.9c0,1.6-1.3,2.9-2.9,2.9C147.6,61,146.4,59.7,146.4,58.1L146.4,58.1
	z"/>
<path d="M151.4,122.1c0-1.6,1.3-2.9,2.9-2.9c1.6,0,2.9,1.3,2.9,2.9s-1.3,2.9-2.9,2.9C152.6,125,151.4,123.7,151.4,122.1L151.4,122.1
	z"/>
<path d="M88.2,94.5c0-1.6,1.3-2.9,2.9-2.9s2.9,1.3,2.9,2.9s-1.3,2.9-2.9,2.9C89.4,97.4,88.2,96.1,88.2,94.5L88.2,94.5z"/>
<path d="M114.8,27.8c0-1.6,1.3-2.9,2.9-2.9s2.9,1.3,2.9,2.9s-1.3,2.9-2.9,2.9C116.1,30.6,114.8,29.4,114.8,27.8L114.8,27.8z"/>
<path d="M95.1,161.6c0-1.6,1.3-2.9,2.9-2.9s2.9,1.3,2.9,2.9c0,1.6-1.3,2.9-2.9,2.9S95.1,163.2,95.1,161.6L95.1,161.6z"/>
<path d="M59.8,165.7c0-1.6,1.3-2.9,2.9-2.9s2.9,1.3,2.9,2.9c0,1.6-1.3,2.9-2.9,2.9C61.1,168.6,59.8,167.3,59.8,165.7L59.8,165.7z"/>
<g>
	<g>
		<g>
			<g>
				<g>
					<text transform="matrix(0.9996 0 0 1 312.3301 103.6133)" font-family="'ArialMT'" font-size="10.9995">1</text>
				</g>
			</g>
		</g>
	</g>
	<path fill="none" stroke="#000000" d="M309.3,99.9c0-3.4,2.7-6.1,6.1-6.1s6.1,2.7,6.1,6.1s-2.7,6.1-6.1,6.1S309.3,103.3,309.3,99.9
		L309.3,99.9z"/>
</g>
<g>
	<g>
		<g>
			<g>
				<g>
					<text transform="matrix(0.9996 0 0 1 333.6641 31.2798)" font-family="'ArialMT'" font-size="10.9995">4</text>
				</g>
			</g>
		</g>
	</g>
	<path fill="none" stroke="#000000" d="M330.6,27.6c0-3.4,2.7-6.1,6.1-6.1s6.1,2.7,6.1,6.1s-2.7,6.1-6.1,6.1
		C333.3,33.6,330.6,30.9,330.6,27.6L330.6,27.6z"/>
</g>
<g>
	<g>
		<g>
			<g>
				<g>
					<text transform="matrix(0.9996 0 0 1 376.6641 126.3408)" font-family="'ArialMT'" font-size="10.9995">2</text>
				</g>
			</g>
		</g>
	</g>
	<path fill="none" stroke="#000000" d="M373.6,122.6c0-3.4,2.7-6.1,6.1-6.1s6.1,2.7,6.1,6.1s-2.7,6.1-6.1,6.1
		C376.3,128.7,373.6,126,373.6,122.6L373.6,122.6z"/>
</g>
<polyline fill="none" stroke="#000000" stroke-dasharray="4.32" points="349,117.4 411.9,101.8 362.7,15.7 312.7,69.2 "/>
<path fill="none" stroke="#000000" d="M362.5,16"/>
<g>
	<g>
		<polygon fill="#FFFFFF" points="322.4,62.9 332.1,68.6 326.5,58.8 		"/>
	</g>
	<g>
		<polyline fill="none" stroke="#000000" points="274.5,28.3 292.5,28.3 325.8,62.3 		"/>
		<polygon points="322.4,62.9 332.1,68.6 326.5,58.8 		"/>
	</g>
</g>
<g>
	<g>
		<polygon fill="#FFFFFF" points="325.3,10 332.8,1.7 322.1,5.2 		"/>
	</g>
	<g>
		<line fill="none" stroke="#000000" x1="325.4" y1="6.6" x2="292.5" y2="28.2"/>
		<polygon points="325.3,10 332.8,1.7 322.1,5.2 		"/>
	</g>
</g>
<g>
	<g>
		<polygon fill="#FFFFFF" points="362.6,106.5 355.9,97.4 357.1,108.6 		"/>
	</g>
	<g>
		<polyline fill="none" stroke="#000000" points="388.6,152.2 377.2,152.2 359.2,105.6 		"/>
		<polygon points="362.6,106.5 355.9,97.4 357.1,108.6 		"/>
	</g>
</g>
<path d="M176.6,86.3c-0.5-1.4,0.2-3,1.7-3.5c1.4-0.5,3,0.2,3.5,1.6s-0.2,3-1.7,3.5C178.7,88.5,177.1,87.8,176.6,86.3L176.6,86.3z"/>
<path d="M129.4,157.1c0-1.6,1.3-2.9,2.9-2.9c1.6,0,2.9,1.3,2.9,2.9c0,1.6-1.3,2.9-2.9,2.9C130.6,160,129.4,158.7,129.4,157.1
	L129.4,157.1z"/>
<path d="M359.8,16.5c0-1.6,1.3-2.9,2.9-2.9s2.9,1.3,2.9,2.9s-1.3,2.9-2.9,2.9C361.1,19.4,359.8,18.2,359.8,16.5L359.8,16.5z"/>
<path d="M408.2,101.8c0-1.6,1.3-2.9,2.9-2.9s2.9,1.3,2.9,2.9s-1.3,2.9-2.9,2.9C409.5,104.6,408.2,103.4,408.2,101.8L408.2,101.8z"/>
<path d="M310.7,69.4c0-1.6,1.3-2.9,2.9-2.9s2.9,1.3,2.9,2.9s-1.3,2.9-2.9,2.9S310.7,71,310.7,69.4L310.7,69.4z"/>
<path d="M346.2,117.4c0-1.6,1.3-2.9,2.9-2.9s2.9,1.3,2.9,2.9s-1.3,2.9-2.9,2.9S346.2,119,346.2,117.4L346.2,117.4z"/>
<g>
	<g>
		<polygon fill="#FFFFFF" points="150.3,70.7 146.3,81.2 155,74.1 		"/>
	</g>
	<g>
		<polyline fill="none" stroke="#000000" stroke-miterlimit="10" points="207.5,28.6 184.2,28.6 151.5,74 		"/>
		<polygon points="150.3,70.7 146.3,81.2 155,74.1 		"/>
	</g>
</g>
</svg>
