<?xml version="1.0" encoding="utf-8"?>
<!-- Generator: Adobe Illustrator 17.1.0, SVG Export Plug-In . SVG Version: 6.00 Build 0)  -->

<svg version="1.1" id="Layer_1" xmlns="http://www.w3.org/2000/svg" xmlns:xlink="http://www.w3.org/1999/xlink" x="0px" y="0px"
	 width="293.5px" height="213.4px" viewBox="0 1.6 293.5 213.4" enable-background="new 0 1.6 293.5 213.4" xml:space="preserve">
<g>
	<g>
		<polygon fill="#FFFFFF" points="46.1,79.5 35.3,76.7 43.3,84.5 		"/>
	</g>
	<g>
		<line fill="none" stroke="#000000" x1="128" y1="128.5" x2="43" y2="81"/>
		<polygon points="46.1,79.5 35.3,76.7 43.3,84.5 		"/>
	</g>
</g>
<g>
	<polygon fill="#00BDF2" stroke="#000000" points="46.6,7 258,123.5 248.5,139.7 37.8,22.4 	"/>
	<path fill="#00BDF2" stroke="#000000" stroke-width="1.039" d="M257.4,138.3c-3.9,3.2-8.8,3-11-0.6s-0.8-9.1,3.2-12.4
		c3.9-3.2,8.8-3,11,0.6C262.7,129.5,261.3,135,257.4,138.3z"/>
	<path stroke="#000000" stroke-linecap="square" stroke-miterlimit="10" d="M252.7,129.7c1.3-0.9,2.9-0.5,3.5,0.9
		c0.6,1.4,0,3.2-1.4,4.1c-1.3,0.9-2.9,0.5-3.5-0.9C250.7,132.3,251.4,130.5,252.7,129.7L252.7,129.7z"/>
	<path fill="#00BDF2" stroke="#000000" stroke-width="1.1047" d="M41.5,24.5c-0.9-0.5-4.6-2.4-5.2-3.3c-2.4-3.9-0.7-9.4,3-13.1
		c4.1-4.1,10.5,0.8,12.9,2.1"/>
</g>
<line fill="none" stroke="#000000" x1="34.3" y1="27.3" x2="34.3" y2="80.8"/>
<line fill="none" stroke="#000000" x1="254" y1="145.5" x2="254" y2="199"/>
<path d="M167,15.9c0-1.5,1.2-2.8,2.8-2.8s2.8,1.2,2.8,2.8c0,1.5-1.2,2.8-2.8,2.8S167,17.5,167,15.9L167,15.9z"/>
<path d="M41.1,14.8c0-1.5,1.2-2.8,2.8-2.8c1.5,0,2.8,1.2,2.8,2.8c0,1.5-1.2,2.8-2.8,2.8C42.4,17.6,41.1,16.3,41.1,14.8L41.1,14.8z"
	/>
<g>
	<g>
		<polygon fill="#FFFFFF" points="241.6,191.2 252.6,193.6 244.3,186 		"/>
	</g>
	<g>
		<line fill="none" stroke="#000000" x1="146.7" y1="138" x2="244.7" y2="189.5"/>
		<polygon points="241.6,191.2 252.6,193.6 244.3,186 		"/>
	</g>
</g>
<path fill="none" stroke="#000000" d="M293.5,215"/>
<path fill="none" stroke="#000000" d="M0,57.5"/>
<g>
	<g>
		<g>
			<g>
				<text transform="matrix(1.0009 0 0 1 136.5 136.5)" font-family="'ArialMT'" font-size="11">L</text>
			</g>
		</g>
	</g>
</g>
<g>
	<g>
		<g>
			<g>
				<text transform="matrix(1.0009 0 0 1 177.5 17.5)" font-family="'ArialMT'" font-size="11">K</text>
			</g>
		</g>
	</g>
</g>
<g>
	<g>
		<g>
			<g>
				<text transform="matrix(1.0009 0 0 1 260 145.5)" font-family="'ArialMT'" font-size="11">J</text>
			</g>
		</g>
	</g>
</g>
<g>
	<g>
		<g>
			<g>
				<text transform="matrix(1.0009 0 0 1 30.5 11)" font-family="'ArialMT'" font-size="11">I</text>
			</g>
		</g>
	</g>
</g>
<line fill="none" stroke="#000000" stroke-dasharray="4.32" x1="43.9" y1="15" x2="169.3" y2="15.8"/>
<line fill="none" stroke="#000000" stroke-dasharray="4.32" x1="253.7" y1="132.7" x2="169.7" y2="15.7"/>
</svg>
