<?xml version="1.0" encoding="utf-8"?>
<!-- Generator: Adobe Illustrator 17.1.0, SVG Export Plug-In . SVG Version: 6.00 Build 0)  -->

<svg version="1.1" id="Layer_1" xmlns="http://www.w3.org/2000/svg" xmlns:xlink="http://www.w3.org/1999/xlink" x="0px" y="0px"
	 width="439.3px" height="162.8px" viewBox="0 0 439.3 162.8" enable-background="new 0 0 439.3 162.8" xml:space="preserve">
<g>
	<g>
		<g>
			<g>
				<g>
					<text transform="matrix(1.0017 0 0 1 280.0229 37.3237)" font-family="'ArialMT'" font-size="11">KEYOPT(3) = 2 required for </text>
				</g>
			</g>
		</g>
	</g>
	<g>
		<g>
			<g>
				<g>
					<text transform="matrix(1.0017 0 0 1 280.0229 50.3237)" font-family="'ArialMT'" font-size="11">in-plane bending if only one </text>
				</g>
			</g>
		</g>
	</g>
	<g>
		<g>
			<g>
				<g>
					<text transform="matrix(1.0017 0 0 1 280.0229 63.3237)" font-family="'ArialMT'" font-size="11">element through thickness </text>
				</g>
			</g>
		</g>
	</g>
	<g>
		<g>
			<g>
				<g>
					<text transform="matrix(1.0017 0 0 1 280.0229 76.3237)" font-family="'ArialMT'" font-size="11">is used.</text>
				</g>
			</g>
		</g>
	</g>
</g>
<g>
	<g>
		<g>
			<g>
				<g>
					<text transform="matrix(1.0017 0 0 1 277.356 120.2256)" font-family="'ArialMT'" font-size="11">KEYOPT(3) = 0 may be used for </text>
				</g>
			</g>
		</g>
	</g>
	<g>
		<g>
			<g>
				<g>
					<text transform="matrix(1.0017 0 0 1 277.356 133.2256)" font-family="'ArialMT'" font-size="11">in-plane bending if at least four </text>
				</g>
			</g>
		</g>
	</g>
	<g>
		<g>
			<g>
				<g>
					<text transform="matrix(1.0017 0 0 1 277.356 146.2256)" font-family="'ArialMT'" font-size="11">elements through thickness </text>
				</g>
			</g>
		</g>
	</g>
	<g>
		<g>
			<g>
				<g>
					<text transform="matrix(1.0017 0 0 1 277.356 159.2256)" font-family="'ArialMT'" font-size="11">are used.</text>
				</g>
			</g>
		</g>
	</g>
</g>
<polygon fill="none" stroke="#000000" points="263,70 262.9,32.6 10.6,32.9 10.6,70 "/>
<line fill="none" stroke="#000000" x1="200" y1="69.3" x2="200" y2="32.8"/>
<line fill="none" stroke="#000000" x1="137.1" y1="70.3" x2="136.8" y2="32.8"/>
<line fill="none" stroke="#000000" x1="73.8" y1="70.3" x2="73.8" y2="33.8"/>
<line fill="none" stroke="#000000" x1="0.4" y1="28.7" x2="10.3" y2="38.6"/>
<line fill="none" stroke="#000000" x1="0.4" y1="59.7" x2="10.3" y2="69.6"/>
<line fill="none" stroke="#000000" x1="0.4" y1="44.1" x2="10.3" y2="53.9"/>
<g>
	<g>
		<polygon fill="#FFFFFF" points="259.4,21.4 262.3,32.2 265.2,21.4 		"/>
	</g>
	<g>
		<line fill="none" stroke="#000000" x1="262.3" y1="0" x2="262.3" y2="23.3"/>
		<polygon points="259.4,21.4 262.3,32.2 265.2,21.4 		"/>
	</g>
</g>
<polygon fill="none" stroke="#000000" points="263,153.6 262.8,116.5 10.6,116.5 10.6,153.6 "/>
<line fill="none" stroke="#000000" x1="200" y1="152.9" x2="200" y2="116.4"/>
<line fill="none" stroke="#000000" x1="137.1" y1="153.9" x2="137" y2="117.4"/>
<line fill="none" stroke="#000000" x1="73.9" y1="153.9" x2="73.9" y2="117.4"/>
<line fill="none" stroke="#000000" x1="0.4" y1="112.3" x2="10.3" y2="122.2"/>
<line fill="none" stroke="#000000" x1="0.4" y1="143.3" x2="10.3" y2="153.2"/>
<line fill="none" stroke="#000000" x1="0.4" y1="123.6" x2="10.3" y2="133.5"/>
<line fill="none" stroke="#000000" x1="0.5" y1="134.2" x2="10.4" y2="144.1"/>
<line fill="none" stroke="#000000" x1="11" y1="124.3" x2="262" y2="124.3"/>
<line fill="none" stroke="#000000" x1="11" y1="133.8" x2="262" y2="133.8"/>
<line fill="none" stroke="#000000" x1="11" y1="143.3" x2="262" y2="143.3"/>
<g>
	<g>
		<polygon fill="#FFFFFF" points="259.4,105.4 262.3,116.2 265.2,105.4 		"/>
	</g>
	<g>
		<line fill="none" stroke="#000000" x1="262.3" y1="84" x2="262.3" y2="107.3"/>
		<polygon points="259.4,105.4 262.3,116.2 265.2,105.4 		"/>
	</g>
</g>
</svg>
