<?xml version="1.0" encoding="utf-8"?>
<!-- Generator: Adobe Illustrator 17.1.0, SVG Export Plug-In . SVG Version: 6.00 Build 0)  -->

<svg version="1.1" id="Layer_1" xmlns="http://www.w3.org/2000/svg" xmlns:xlink="http://www.w3.org/1999/xlink" x="0px" y="0px"
	 width="315.3px" height="208.1px" viewBox="0 1.6 315.3 208.1" enable-background="new 0 1.6 315.3 208.1" xml:space="preserve">
<polyline fill="none" stroke="#000000" points="221.9,83.2 292.2,27 177.9,15.9 "/>
<polyline fill="none" stroke="#000000" stroke-dasharray="5.76" points="98.6,171.9 164.6,130.5 177.5,13.6 "/>
<polyline fill="none" stroke="#000000" points="102.4,69.5 102.2,69.8 102.2,70 98.4,172.2 "/>
<line fill="none" stroke="#00AA4F" x1="292.7" y1="23.9" x2="292.7" y2="23.9"/>
<polyline fill="none" stroke="#000000" points="103.2,70 102.9,70.5 177.5,15.8 177.3,15.8 "/>
<line fill="none" stroke="#00AA4F" x1="221.2" y1="83.7" x2="220.7" y2="83.2"/>
<polyline fill="none" stroke="#000000" points="99.3,171.8 99.3,171.8 99,171.8 98.4,171.1 98.4,172.2 99,172.7 99.3,172.7 
	221.2,189.8 221.4,189.8 221.6,189.5 221.6,83 221.4,83 221.4,82.7 221.2,82.7 103.8,70.7 103.6,70.7 103.4,71 103.4,71.5 
	103.6,71.7 103.8,71.7 "/>
<g>
	<g>
		<g>
			<g>
				<text transform="matrix(0.9996 0 0 1 91.1123 176.8623)" font-family="'ArialMT'" font-size="10.9995">I</text>
			</g>
		</g>
	</g>
</g>
<g>
	<g>
		<g>
			<g>
				<text transform="matrix(0.9996 0 0 1 176.3296 11.0005)" font-family="'ArialMT'" font-size="10.9995">P</text>
			</g>
		</g>
	</g>
</g>
<g>
	<g>
		<g>
			<g>
				<text transform="matrix(0.9996 0 0 1 297.2837 29.6001)" font-family="'ArialMT'" font-size="10.9995">O</text>
			</g>
		</g>
	</g>
</g>
<g>
	<g>
		<g>
			<g>
				<text transform="matrix(0.9996 0 0 1 308 142.8824)" font-family="'ArialMT'" font-size="10.9995">K</text>
			</g>
		</g>
	</g>
</g>
<g>
	<g>
		<g>
			<g>
				<text transform="matrix(0.9996 0 0 1 217.8638 202.3389)" font-family="'ArialMT'" font-size="10.9995">J</text>
			</g>
		</g>
	</g>
</g>
<g>
	<g>
		<g>
			<g>
				<text transform="matrix(0.9996 0 0 1 217.9556 75.2817)" font-family="'ArialMT'" font-size="10.9995">N</text>
			</g>
		</g>
	</g>
</g>
<g>
	<g>
		<g>
			<g>
				<text transform="matrix(0.9996 0 0 1 88.8926 76.1079)" font-family="'ArialMT'" font-size="10.9995">M</text>
			</g>
		</g>
	</g>
</g>
<g>
	<g>
		<g>
			<g>
				<text transform="matrix(0.9996 0 0 1 151.6577 131.0493)" font-family="'ArialMT'" font-size="10.9995">L</text>
			</g>
		</g>
	</g>
</g>
<g>
	<g>
		<g>
			<g>
				<g>
					<text transform="matrix(0.9996 0 0 1 57.2485 188.9248)" font-family="'ArialMT'" font-size="10.9995">Y</text>
				</g>
			</g>
		</g>
	</g>
	<g>
		<g>
			<g>
				<g>
					<text transform="matrix(0.9996 0 0 1 23.8145 152.9731)" font-family="'ArialMT'" font-size="10.9995">Z</text>
				</g>
			</g>
		</g>
	</g>
	<g>
		<g>
			<g>
				<g>
					<text transform="matrix(0.9996 0 0 1 0 206.1104)" font-family="'ArialMT'" font-size="10.9995">X</text>
				</g>
			</g>
		</g>
	</g>
	<g>
		<g>
			<polygon fill="#FFFFFF" points="44.8,187.7 55.6,184.8 44.8,181.8 			"/>
			<polygon fill="#FFFFFF" points="30.1,166 27.2,155.2 24.3,166 			"/>
		</g>
		<g>
			<polyline fill="none" stroke="#000000" points="27.2,164 27.3,184.8 46.7,184.8 			"/>
			<polygon points="44.8,187.7 55.6,184.8 44.8,181.8 			"/>
			<polygon points="30.1,166 27.2,155.2 24.3,166 			"/>
		</g>
	</g>
	<g>
		<g>
			<polygon fill="#FFFFFF" points="15.5,191.8 9.5,201.3 19.4,196.1 			"/>
		</g>
		<g>
			<line fill="none" stroke="#000000" x1="27.3" y1="184.8" x2="16" y2="195.3"/>
			<polygon points="15.5,191.8 9.5,201.3 19.4,196.1 			"/>
		</g>
	</g>
</g>
<line fill="none" stroke="#000000" stroke-dasharray="5.76" x1="164.6" y1="131.9" x2="302.1" y2="137.9"/>
<polyline fill="none" stroke="#000000" points="292.9,26.7 304.2,138.5 304.4,138.3 304.4,138 "/>
<line fill="none" stroke="#000000" x1="304.2" y1="138.5" x2="221.6" y2="189.5"/>
<g>
	<g>
		<g>
			<g>
				<text transform="matrix(0.9996 0 0 1 231.2485 124.5913)" enable-background="new    "><tspan x="0" y="0" font-family="'ArialMT'" font-size="10.9995">S</tspan><tspan x="7.3" y="0" font-family="'ArialMT'" font-size="10.9995" letter-spacing="-1">Y</tspan><tspan x="13.3" y="0" font-family="'ArialMT'" font-size="10.9995">, B</tspan><tspan x="26.7" y="0" font-family="'ArialMT'" font-size="10.9995" letter-spacing="-1">Y</tspan><tspan x="32.6" y="0" font-family="'ArialMT'" font-size="10.9995">, etc.</tspan></text>
			</g>
		</g>
	</g>
</g>
<g>
	<g>
		<g>
			<g>
				<text transform="matrix(0.9996 0 0 1 202.481 48.3071)" font-family="'ArialMT'" font-size="10.9995">SZ, BZ, etc.</text>
			</g>
		</g>
	</g>
</g>
<g>
	<g>
		<g>
			<g>
				<text transform="matrix(0.9996 0 0 1 160.9995 156.4444)" font-family="'ArialMT'" font-size="10.9995">SX, BX, etc.</text>
			</g>
		</g>
	</g>
</g>
<g>
	<g>
		<polygon fill="#FFFFFF" points="231.8,111.3 242.6,108.4 231.8,105.5 		"/>
		<polygon fill="#FFFFFF" points="199.1,46.7 196.2,35.8 193.3,46.7 		"/>
	</g>
	<g>
		<polyline fill="none" stroke="#000000" points="196.2,44.7 196.3,108.4 233.7,108.5 		"/>
		<polygon points="231.8,111.3 242.6,108.4 231.8,105.5 		"/>
		<polygon points="199.1,46.7 196.2,35.8 193.3,46.7 		"/>
	</g>
</g>
<g>
	<g>
		<polygon fill="#FFFFFF" points="163.4,135.5 157.5,145 167.4,139.7 		"/>
	</g>
	<g>
		<line fill="none" stroke="#000000" x1="196.3" y1="108.4" x2="163.9" y2="138.9"/>
		<polygon points="163.4,135.5 157.5,145 167.4,139.7 		"/>
	</g>
</g>
<g>
	<g>
		<g>
			<g>
				<text transform="matrix(1 0 0 1 149.897 149.5391)" font-family="'ArialMT'" font-size="11">X</text>
			</g>
		</g>
	</g>
</g>
<g>
	<g>
		<g>
			<g>
				<text transform="matrix(1 0 0 1 243.897 111.4175)" font-family="'ArialMT'" font-size="11">Y</text>
			</g>
		</g>
	</g>
</g>
<g>
	<g>
		<g>
			<g>
				<text transform="matrix(1 0 0 1 192.897 32.8726)" font-family="'ArialMT'" font-size="11">Z</text>
			</g>
		</g>
	</g>
</g>
<path d="M100.2,70.7c0-1.6,1.3-2.9,2.9-2.9s2.9,1.3,2.9,2.9s-1.3,2.9-2.9,2.9S100.2,72.3,100.2,70.7L100.2,70.7z"/>
<path d="M95.2,172.1c0-1.6,1.3-2.9,2.9-2.9s2.9,1.3,2.9,2.9c0,1.6-1.3,2.9-2.9,2.9C96.4,175,95.2,173.7,95.2,172.1L95.2,172.1z"/>
<path d="M175.2,16.1c0-1.6,1.3-2.9,2.9-2.9c1.6,0,2.9,1.3,2.9,2.9s-1.3,2.9-2.9,2.9C176.4,19,175.2,17.7,175.2,16.1L175.2,16.1z"/>
<path d="M289.8,26.8c0-1.6,1.3-2.9,2.9-2.9s2.9,1.3,2.9,2.9s-1.3,2.9-2.9,2.9C291.1,29.7,289.8,28.4,289.8,26.8L289.8,26.8z"/>
<path d="M160.7,131.4c0-1.6,1.3-2.9,2.9-2.9c1.6,0,2.9,1.3,2.9,2.9c0,1.6-1.3,2.9-2.9,2.9C162,134.3,160.7,133,160.7,131.4
	L160.7,131.4z"/>
<path d="M218.8,82.8c0-1.6,1.3-2.9,2.9-2.9c1.6,0,2.9,1.3,2.9,2.9s-1.3,2.9-2.9,2.9C220.1,85.7,218.8,84.4,218.8,82.8L218.8,82.8z"
	/>
<path d="M301.1,138.5c0-1.6,1.3-2.9,2.9-2.9s2.9,1.3,2.9,2.9c0,1.6-1.3,2.9-2.9,2.9S301.1,140.1,301.1,138.5L301.1,138.5z"/>
<path d="M218.8,189.5c0-1.6,1.3-2.9,2.9-2.9c1.6,0,2.9,1.3,2.9,2.9c0,1.6-1.3,2.9-2.9,2.9S218.8,191.1,218.8,189.5L218.8,189.5z"/>
</svg>
