<?xml version="1.0" encoding="utf-8"?>
<!-- Generator: Adobe Illustrator 17.1.0, SVG Export Plug-In . SVG Version: 6.00 Build 0)  -->

<svg version="1.1" id="Layer_1" xmlns="http://www.w3.org/2000/svg" xmlns:xlink="http://www.w3.org/1999/xlink" x="0px" y="0px"
	 width="173.5px" height="181.2px" viewBox="0 1.6 173.5 181.2" enable-background="new 0 1.6 173.5 181.2" xml:space="preserve">
<line fill="none" stroke="#000000" x1="10.6" y1="6.5" x2="161.9" y2="6.5"/>
<g>
	<g>
		<polygon fill="#FFFFFF" points="15.8,19.6 11,9.5 10.1,20.6 		"/>
	</g>
	<g>
		<line fill="none" stroke="#000000" x1="37.9" y1="161.9" x2="12.6" y2="18.2"/>
		<polygon points="15.8,19.6 11,9.5 10.1,20.6 		"/>
	</g>
</g>
<g>
	<g>
		<g>
			<g>
				<text transform="matrix(1.0016 0 0 1 0 11)" font-family="'ArialMT'" font-size="11">I</text>
			</g>
		</g>
	</g>
</g>
<g>
	<g>
		<g>
			<g>
				<text transform="matrix(1.0016 0 0 1 167.9604 11)" font-family="'ArialMT'" font-size="11">J</text>
			</g>
		</g>
	</g>
</g>
<g>
	<g>
		<g>
			<g>
				<text transform="matrix(1.0016 0 0 1 44.208 142)" font-family="'ArialMT'" font-size="11">y</text>
			</g>
		</g>
	</g>
</g>
<g>
	<g>
		<polygon fill="#FFFFFF" points="40.9,143.4 38,132.6 35.1,143.4 		"/>
	</g>
	<g>
		<line fill="none" stroke="#000000" stroke-linecap="square" x1="38" y1="141.4" x2="38" y2="161.4"/>
		<polygon points="40.9,143.4 38,132.6 35.1,143.4 		"/>
	</g>
</g>
<g>
	<g>
		<polygon fill="#FFFFFF" points="56.9,164.3 67.7,161.4 56.9,158.5 		"/>
	</g>
	<g>
		<line fill="none" stroke="#000000" stroke-linecap="square" x1="58.9" y1="161.4" x2="38" y2="161.4"/>
		<polygon points="56.9,164.3 67.7,161.4 56.9,158.5 		"/>
	</g>
</g>
<path d="M8,6.8C8,5.3,9.2,4,10.7,4s2.8,1.2,2.8,2.8c0,1.5-1.2,2.8-2.8,2.8C9.2,9.6,8,8.3,8,6.8L8,6.8z"/>
<g>
	<g>
		<g>
			<g>
				<g>
					<text transform="matrix(1.0016 0 0 1 34.2749 176.5176)" font-family="'ArialMT'" font-size="11">(x</text>
				</g>
			</g>
		</g>
	</g>
	<g>
		<g>
			<g>
				<g>
					<text transform="matrix(1.0016 0 0 1 43.4521 179.5176)" font-family="'ArialMT'" font-size="10">o</text>
				</g>
			</g>
		</g>
	</g>
	<g>
		<g>
			<g>
				<g>
					<text transform="matrix(1.0016 0 0 1 49.0225 176.5176)" font-family="'ArialMT'" font-size="11">, y</text>
				</g>
			</g>
		</g>
	</g>
	<g>
		<g>
			<g>
				<g>
					<text transform="matrix(1.0016 0 0 1 60.6528 179.5176)" font-family="'ArialMT'" font-size="10">o</text>
				</g>
			</g>
		</g>
	</g>
	<g>
		<g>
			<g>
				<g>
					<text transform="matrix(1.0016 0 0 1 66.2231 176.5176)" font-family="'ArialMT'" font-size="11">)</text>
				</g>
			</g>
		</g>
	</g>
</g>
<path d="M159.4,6.8c0-1.5,1.2-2.8,2.8-2.8c1.5,0,2.8,1.2,2.8,2.8c0,1.5-1.2,2.8-2.8,2.8C160.6,9.6,159.4,8.3,159.4,6.8L159.4,6.8z"
	/>
<g>
	<g>
		<g>
			<g>
				<text transform="matrix(1.0016 0 0 1 70.6089 163.8506)" font-family="'ArialMT'" font-size="11">x, r</text>
			</g>
		</g>
	</g>
</g>
</svg>
