<?xml version="1.0" encoding="utf-8"?>
<!-- Generator: Adobe Illustrator 17.1.0, SVG Export Plug-In . SVG Version: 6.00 Build 0)  -->

<svg version="1.1" id="Layer_1" xmlns="http://www.w3.org/2000/svg" xmlns:xlink="http://www.w3.org/1999/xlink" x="0px" y="0px"
	 width="103.3px" height="64px" viewBox="0 1.6 103.3 64" enable-background="new 0 1.6 103.3 64" xml:space="preserve">
<path d="M89.7,12.3c0.2-1.6,1.6-2.7,3.1-2.5s2.6,1.7,2.3,3.2c-0.2,1.6-1.6,2.7-3.1,2.5S89.5,13.8,89.7,12.3L89.7,12.3z"/>
<g>
	<g>
		<g>
			<g>
				<g>
					<text transform="matrix(1.0005 0 0 1 27.7393 11.0005)" font-family="'ArialMT'" font-size="11">Z</text>
				</g>
			</g>
		</g>
	</g>
	<g>
		<g>
			<polygon fill="#FFFFFF" points="33.4,24.4 30.5,13.5 27.6,24.4 			"/>
		</g>
		<g>
			<line fill="none" stroke="#000000" stroke-linecap="square" x1="30.6" y1="22.4" x2="30.6" y2="42.4"/>
			<polygon points="33.4,24.4 30.5,13.5 27.6,24.4 			"/>
		</g>
	</g>
	<g>
		<g>
			<g>
				<g>
					<text transform="matrix(1.0014 0 0 1 0 61.9521)" font-family="'ArialMT'" font-size="11">X</text>
				</g>
			</g>
		</g>
	</g>
	<g>
		<g>
			<g>
				<g>
					<text transform="matrix(1.0014 0 0 1 60.8345 46.3838)" font-family="'ArialMT'" font-size="11">Y</text>
				</g>
			</g>
		</g>
	</g>
	<g>
		<g>
			<polygon fill="#FFFFFF" points="49.4,45.2 60.3,42.3 49.4,39.4 			"/>
		</g>
		<g>
			<line fill="none" stroke="#000000" stroke-linecap="square" x1="51.4" y1="42.4" x2="30.6" y2="42.4"/>
			<polygon points="49.4,45.2 60.3,42.3 49.4,39.4 			"/>
		</g>
	</g>
	<g>
		<g>
			<polygon fill="#FFFFFF" points="15.5,49 8.3,57.5 18.8,53.8 			"/>
		</g>
		<g>
			<line fill="none" stroke="#000000" stroke-linecap="square" x1="15.5" y1="52.5" x2="30.4" y2="42.3"/>
			<polygon points="15.5,49 8.3,57.5 18.8,53.8 			"/>
		</g>
	</g>
</g>
<g>
	<g>
		<g>
			<g>
				<text transform="matrix(1 0 0 1 100.2666 16.7817)" font-family="'ArialMT'" font-size="11">I</text>
			</g>
		</g>
	</g>
</g>
</svg>
