<?xml version="1.0" encoding="utf-8"?>
<!-- Generator: Adobe Illustrator 14.0.0, SVG Export Plug-In . SVG Version: 6.00 Build 43363)  -->

<svg version="1.1" id="Layer_1" xmlns="http://www.w3.org/2000/svg" xmlns:xlink="http://www.w3.org/1999/xlink" x="0px" y="0px"
	 width="482.25px" height="217.3px" viewBox="0 0 482.25 217.3" enable-background="new 0 0 482.25 217.3" xml:space="preserve">
<ellipse fill="#FFFFFF" stroke="#000000" stroke-dasharray="6.1562" cx="207.7" cy="122.1" rx="31.7" ry="30.3"/>
<g>
	<g>
		<g>
			<g>
				<g enable-background="new    ">
					<path d="M164.788,59v-7.874h1.042v6.945h3.879V59H164.788z"/>
				</g>
			</g>
		</g>
	</g>
</g>
<g>
	<g>
		<g>
			<g>
				<g enable-background="new    ">
					<path d="M254.104,66.089v-7.874h1.042v3.905l3.912-3.905h1.412l-3.304,3.19l3.449,4.684h-1.375l-2.805-3.985l-1.29,1.257v2.729
						H254.104z"/>
				</g>
			</g>
		</g>
	</g>
</g>
<g>
	<g>
		<g>
			<g>
				<g enable-background="new    ">
					<path d="M138.18,187.435v-7.874h1.042v7.874H138.18z"/>
				</g>
			</g>
		</g>
	</g>
</g>
<g>
	<g>
		<g>
			<g>
				<g enable-background="new    ">
					<path d="M270.09,191.878l0.939-0.129c0.025,0.602,0.139,1.014,0.339,1.235s0.478,0.333,0.833,0.333
						c0.262,0,0.486-0.061,0.677-0.18c0.19-0.12,0.32-0.283,0.392-0.489c0.072-0.206,0.107-0.534,0.107-0.985v-5.425h1.043v5.366
						c0,0.658-0.08,1.168-0.239,1.53s-0.411,0.638-0.757,0.827s-0.752,0.285-1.218,0.285c-0.69,0-1.22-0.199-1.587-0.597
						S270.075,192.663,270.09,191.878z"/>
				</g>
			</g>
		</g>
	</g>
</g>
<path d="M142.1,180.3c0-1.6,1.3-2.9,2.9-2.9s2.9,1.301,2.9,2.9c0,1.599-1.3,2.9-2.9,2.9S142.1,181.9,142.1,180.3L142.1,180.3z"/>
<path stroke="#000000" d="M160.5,65.6c0-1.6,1.3-2.9,2.9-2.9s2.9,1.3,2.9,2.9s-1.3,2.9-2.9,2.9S160.5,67.2,160.5,65.6L160.5,65.6z"
	/>
<path d="M245.2,61.5c0-1.6,1.3-2.9,2.899-2.9c1.601,0,2.899,1.3,2.899,2.9s-1.3,2.9-2.899,2.9C246.4,64.4,245.2,63.1,245.2,61.5
	L245.2,61.5z"/>
<path d="M257.6,189.8c0-1.6,1.301-2.9,2.9-2.9s2.9,1.301,2.9,2.9c0,1.599-1.301,2.9-2.9,2.9S257.6,191.4,257.6,189.8L257.6,189.8z"
	/>
<g>
	<line fill="none" stroke="#000000" x1="261.3" y1="188.6" x2="248.8" y2="61"/>
	<polyline fill="none" stroke="#000000" points="262,189.1 144.9,180.1 163.1,65.7 	"/>
	<line fill="none" stroke="#000000" x1="248.8" y1="61" x2="163.1" y2="65.4"/>
</g>
<g>
	<g>
		<g>
			<polygon fill="#FFFFFF" points="28.2,181.5 25.3,170.701 22.4,181.5 			"/>
		</g>
		<g>
			<line fill="none" stroke="#000000" stroke-linecap="square" x1="25.3" y1="179.5" x2="25.3" y2="199.5"/>
			<polygon points="28.2,181.5 25.3,170.701 22.4,181.5 			"/>
		</g>
	</g>
	<g>
		<g>
			<g>
				<g>
					<g enable-background="new    ">
						<path d="M59.489,204.062l3.05-4.104l-2.689-3.771h1.243l1.431,2.02c0.297,0.419,0.509,0.741,0.635,0.967
							c0.175-0.286,0.383-0.585,0.624-0.897l1.587-2.089h1.135l-2.77,3.712l2.985,4.162h-1.291l-1.985-2.809
							c-0.111-0.162-0.226-0.337-0.344-0.527c-0.175,0.287-0.301,0.484-0.376,0.592l-1.979,2.744H59.489z"/>
						<path d="M72.425,206.376c-0.534-0.673-0.986-1.461-1.355-2.363c-0.369-0.902-0.554-1.836-0.554-2.803
							c0-0.853,0.138-1.669,0.414-2.449c0.323-0.906,0.821-1.809,1.495-2.707h0.694c-0.434,0.744-0.721,1.275-0.86,1.595
							c-0.219,0.494-0.391,1.01-0.517,1.547c-0.154,0.669-0.231,1.343-0.231,2.02c0,1.722,0.536,3.442,1.608,5.161H72.425z"/>
						<path d="M73.882,201.21c0-1.057,0.294-1.84,0.882-2.348c0.491-0.422,1.09-0.634,1.796-0.634c0.785,0,1.427,0.257,1.925,0.771
							s0.748,1.225,0.748,2.13c0,0.733-0.11,1.312-0.331,1.732s-0.542,0.747-0.963,0.979c-0.421,0.233-0.881,0.35-1.379,0.35
							c-0.8,0-1.446-0.256-1.939-0.768C74.129,202.911,73.882,202.173,73.882,201.21z M74.877,201.21c0,0.73,0.16,1.277,0.479,1.641
							c0.319,0.363,0.721,0.545,1.205,0.545c0.48,0,0.88-0.183,1.199-0.548s0.479-0.922,0.479-1.671
							c0-0.705-0.161-1.239-0.481-1.603c-0.321-0.364-0.72-0.546-1.197-0.546c-0.484,0-0.886,0.182-1.205,0.543
							C75.037,199.933,74.877,200.48,74.877,201.21z"/>
						<path d="M80.358,204.062v-5.704h0.872v0.864c0.222-0.404,0.427-0.671,0.616-0.8c0.188-0.129,0.395-0.193,0.621-0.193
							c0.326,0,0.658,0.104,0.995,0.312l-0.333,0.896c-0.237-0.139-0.473-0.209-0.71-0.209c-0.211,0-0.402,0.063-0.57,0.19
							c-0.168,0.128-0.289,0.304-0.36,0.529c-0.107,0.344-0.161,0.72-0.161,1.128v2.986H80.358z"/>
						<path d="M87.087,204.062v-5.704h0.872v0.864c0.222-0.404,0.427-0.671,0.616-0.8c0.188-0.129,0.395-0.193,0.621-0.193
							c0.326,0,0.658,0.104,0.995,0.312l-0.333,0.896c-0.237-0.139-0.473-0.209-0.71-0.209c-0.211,0-0.402,0.063-0.57,0.19
							c-0.168,0.128-0.289,0.304-0.36,0.529c-0.107,0.344-0.161,0.72-0.161,1.128v2.986H87.087z"/>
						<path d="M94.494,203.359c-0.359,0.304-0.704,0.519-1.036,0.645c-0.332,0.125-0.688,0.188-1.067,0.188
							c-0.627,0-1.11-0.153-1.447-0.459c-0.337-0.307-0.506-0.697-0.506-1.174c0-0.279,0.063-0.534,0.191-0.766
							c0.127-0.23,0.294-0.416,0.5-0.556c0.206-0.14,0.438-0.245,0.696-0.317c0.19-0.05,0.477-0.098,0.861-0.145
							c0.781-0.094,1.357-0.204,1.727-0.333c0.003-0.132,0.005-0.217,0.005-0.253c0-0.394-0.092-0.671-0.274-0.832
							c-0.248-0.219-0.615-0.328-1.103-0.328c-0.456,0-0.792,0.08-1.009,0.239s-0.377,0.441-0.481,0.847l-0.946-0.129
							c0.086-0.405,0.228-0.732,0.425-0.98c0.197-0.249,0.482-0.44,0.855-0.575c0.373-0.134,0.805-0.201,1.296-0.201
							c0.488,0,0.884,0.058,1.188,0.172s0.529,0.259,0.672,0.433c0.144,0.174,0.244,0.393,0.301,0.658
							c0.032,0.164,0.048,0.461,0.048,0.891v1.289c0,0.899,0.021,1.468,0.062,1.706c0.041,0.237,0.123,0.466,0.245,0.685h-1.011
							C94.587,203.861,94.522,203.626,94.494,203.359z M94.413,201.199c-0.352,0.144-0.879,0.266-1.582,0.365
							c-0.398,0.058-0.68,0.122-0.844,0.193c-0.165,0.072-0.292,0.177-0.382,0.314c-0.089,0.139-0.134,0.291-0.134,0.459
							c0,0.258,0.098,0.473,0.293,0.645c0.196,0.172,0.481,0.258,0.858,0.258c0.373,0,0.705-0.081,0.995-0.244
							c0.291-0.162,0.504-0.386,0.64-0.668c0.104-0.219,0.156-0.541,0.156-0.967V201.199z"/>
						<path d="M100.598,204.062v-0.72c-0.362,0.565-0.895,0.849-1.598,0.849c-0.456,0-0.874-0.125-1.256-0.376
							s-0.678-0.601-0.888-1.05c-0.209-0.449-0.314-0.967-0.314-1.55c0-0.569,0.095-1.086,0.285-1.55
							c0.19-0.463,0.475-0.818,0.855-1.066c0.38-0.246,0.805-0.37,1.275-0.37c0.344,0,0.651,0.072,0.92,0.218
							c0.269,0.145,0.487,0.334,0.656,0.566v-2.825h0.962v7.874H100.598z M97.538,201.215c0,0.73,0.154,1.276,0.462,1.638
							c0.309,0.362,0.672,0.543,1.092,0.543c0.423,0,0.783-0.173,1.079-0.519c0.296-0.345,0.444-0.872,0.444-1.581
							c0-0.781-0.151-1.354-0.452-1.719c-0.301-0.365-0.672-0.549-1.113-0.549c-0.43,0-0.79,0.176-1.078,0.527
							C97.682,199.907,97.538,200.46,97.538,201.215z"/>
						<path d="M103.024,197.3v-1.112h0.968v1.112H103.024z M103.024,204.062v-5.704h0.968v5.704H103.024z"/>
						<path d="M109.193,203.359c-0.359,0.304-0.704,0.519-1.036,0.645c-0.332,0.125-0.688,0.188-1.067,0.188
							c-0.627,0-1.11-0.153-1.447-0.459c-0.337-0.307-0.506-0.697-0.506-1.174c0-0.279,0.063-0.534,0.191-0.766
							c0.127-0.23,0.294-0.416,0.5-0.556c0.206-0.14,0.438-0.245,0.696-0.317c0.19-0.05,0.477-0.098,0.861-0.145
							c0.781-0.094,1.357-0.204,1.727-0.333c0.003-0.132,0.005-0.217,0.005-0.253c0-0.394-0.092-0.671-0.274-0.832
							c-0.248-0.219-0.615-0.328-1.103-0.328c-0.456,0-0.792,0.08-1.009,0.239s-0.377,0.441-0.481,0.847l-0.946-0.129
							c0.086-0.405,0.228-0.732,0.425-0.98c0.197-0.249,0.482-0.44,0.855-0.575c0.373-0.134,0.805-0.201,1.296-0.201
							c0.488,0,0.884,0.058,1.188,0.172s0.529,0.259,0.672,0.433c0.144,0.174,0.244,0.393,0.301,0.658
							c0.032,0.164,0.048,0.461,0.048,0.891v1.289c0,0.899,0.021,1.468,0.062,1.706c0.041,0.237,0.123,0.466,0.245,0.685h-1.011
							C109.287,203.861,109.222,203.626,109.193,203.359z M109.113,201.199c-0.352,0.144-0.879,0.266-1.582,0.365
							c-0.398,0.058-0.68,0.122-0.844,0.193c-0.165,0.072-0.292,0.177-0.382,0.314c-0.089,0.139-0.134,0.291-0.134,0.459
							c0,0.258,0.098,0.473,0.293,0.645c0.196,0.172,0.481,0.258,0.858,0.258c0.373,0,0.705-0.081,0.995-0.244
							c0.291-0.162,0.504-0.386,0.64-0.668c0.104-0.219,0.156-0.541,0.156-0.967V201.199z"/>
						<path d="M111.57,204.062v-7.874h0.968v7.874H111.57z"/>
						<path d="M114.674,206.376h-0.694c1.072-1.719,1.608-3.439,1.608-5.161c0-0.673-0.077-1.341-0.231-2.003
							c-0.122-0.537-0.292-1.053-0.511-1.547c-0.14-0.322-0.428-0.859-0.866-1.611h0.694c0.674,0.898,1.172,1.801,1.495,2.707
							c0.276,0.78,0.414,1.597,0.414,2.449c0,0.967-0.186,1.9-0.557,2.803S115.205,205.704,114.674,206.376z"/>
					</g>
				</g>
			</g>
		</g>
	</g>
	<g>
		<g>
			<g>
				<g>
					<g>
						<g enable-background="new    ">
							<path d="M24.759,154.162v-3.336l-3.039-4.538h1.27l1.554,2.374c0.287,0.443,0.554,0.889,0.801,1.332
								c0.237-0.412,0.524-0.875,0.861-1.391l1.527-2.315h1.216l-3.146,4.538v3.336H24.759z"/>
						</g>
					</g>
				</g>
			</g>
		</g>
		<g>
			<g>
				<g>
					<g>
						<g enable-background="new    ">
							<path d="M9.185,169.476c-0.534-0.673-0.986-1.461-1.355-2.363c-0.369-0.902-0.554-1.836-0.554-2.803
								c0-0.853,0.138-1.669,0.414-2.449c0.323-0.906,0.821-1.809,1.495-2.707h0.694c-0.434,0.744-0.721,1.275-0.86,1.595
								c-0.219,0.494-0.391,1.01-0.517,1.547c-0.154,0.669-0.231,1.343-0.231,2.02c0,1.722,0.536,3.442,1.608,5.161H9.185z"/>
							<path d="M10.643,164.31c0-1.057,0.294-1.84,0.882-2.348c0.491-0.422,1.09-0.634,1.796-0.634c0.785,0,1.427,0.257,1.925,0.771
								s0.748,1.225,0.748,2.13c0,0.733-0.11,1.312-0.331,1.732s-0.542,0.747-0.963,0.979c-0.421,0.233-0.881,0.35-1.379,0.35
								c-0.8,0-1.446-0.256-1.939-0.768C10.89,166.01,10.643,165.273,10.643,164.31z M11.638,164.31c0,0.73,0.16,1.277,0.479,1.641
								c0.319,0.363,0.721,0.545,1.205,0.545c0.48,0,0.88-0.183,1.199-0.548S15,165.026,15,164.277c0-0.705-0.161-1.239-0.481-1.603
								c-0.321-0.364-0.72-0.546-1.197-0.546c-0.484,0-0.886,0.182-1.205,0.543C11.798,163.033,11.638,163.58,11.638,164.31z"/>
							<path d="M17.119,167.162v-5.704h0.872v0.864c0.222-0.404,0.427-0.671,0.616-0.8c0.188-0.129,0.395-0.193,0.621-0.193
								c0.326,0,0.658,0.104,0.995,0.312l-0.333,0.896c-0.237-0.139-0.473-0.209-0.71-0.209c-0.211,0-0.402,0.063-0.57,0.19
								c-0.168,0.128-0.289,0.304-0.36,0.529c-0.107,0.344-0.161,0.72-0.161,1.128v2.986H17.119z"/>
							<path d="M27.585,166.458c-0.359,0.304-0.704,0.519-1.036,0.645c-0.332,0.125-0.688,0.188-1.067,0.188
								c-0.627,0-1.11-0.153-1.447-0.459c-0.337-0.307-0.506-0.697-0.506-1.174c0-0.279,0.063-0.534,0.191-0.766
								c0.127-0.23,0.294-0.416,0.5-0.556c0.206-0.14,0.438-0.245,0.696-0.317c0.19-0.05,0.477-0.098,0.861-0.145
								c0.781-0.094,1.357-0.204,1.727-0.333c0.003-0.132,0.005-0.217,0.005-0.253c0-0.394-0.092-0.671-0.274-0.832
								c-0.248-0.219-0.615-0.328-1.103-0.328c-0.456,0-0.792,0.08-1.009,0.239s-0.377,0.441-0.481,0.847l-0.946-0.129
								c0.086-0.405,0.228-0.732,0.425-0.98c0.197-0.249,0.482-0.44,0.855-0.575c0.373-0.134,0.805-0.201,1.296-0.201
								c0.488,0,0.884,0.058,1.188,0.172s0.529,0.259,0.672,0.433c0.144,0.174,0.244,0.393,0.301,0.658
								c0.032,0.164,0.048,0.461,0.048,0.891v1.289c0,0.899,0.021,1.468,0.062,1.706c0.041,0.237,0.123,0.466,0.245,0.685h-1.011
								C27.679,166.96,27.614,166.726,27.585,166.458z M27.505,164.298c-0.352,0.144-0.879,0.266-1.582,0.365
								c-0.398,0.058-0.68,0.122-0.844,0.193c-0.165,0.072-0.292,0.177-0.382,0.314c-0.089,0.139-0.134,0.291-0.134,0.459
								c0,0.258,0.098,0.473,0.293,0.645c0.196,0.172,0.481,0.258,0.858,0.258c0.373,0,0.705-0.081,0.995-0.244
								c0.291-0.162,0.504-0.386,0.64-0.668c0.104-0.219,0.156-0.541,0.156-0.967V164.298z"/>
							<path d="M29.339,167.162l2.087-2.965l-1.931-2.739h1.21l0.877,1.337c0.165,0.255,0.297,0.468,0.398,0.64
								c0.158-0.236,0.303-0.446,0.436-0.628l0.963-1.349h1.156l-1.974,2.686l2.125,3.019h-1.189l-1.172-1.772l-0.312-0.478
								l-1.5,2.25H29.339z"/>
							<path d="M35.498,160.4v-1.112h0.968v1.112H35.498z M35.498,167.162v-5.704h0.968v5.704H35.498z"/>
							<path d="M41.667,166.458c-0.359,0.304-0.704,0.519-1.036,0.645c-0.332,0.125-0.688,0.188-1.067,0.188
								c-0.627,0-1.11-0.153-1.447-0.459c-0.337-0.307-0.506-0.697-0.506-1.174c0-0.279,0.063-0.534,0.191-0.766
								c0.127-0.23,0.294-0.416,0.5-0.556c0.206-0.14,0.438-0.245,0.696-0.317c0.19-0.05,0.477-0.098,0.861-0.145
								c0.781-0.094,1.357-0.204,1.727-0.333c0.003-0.132,0.005-0.217,0.005-0.253c0-0.394-0.092-0.671-0.274-0.832
								c-0.248-0.219-0.615-0.328-1.103-0.328c-0.456,0-0.792,0.08-1.009,0.239s-0.377,0.441-0.481,0.847l-0.946-0.129
								c0.086-0.405,0.228-0.732,0.425-0.98c0.197-0.249,0.482-0.44,0.855-0.575c0.373-0.134,0.805-0.201,1.296-0.201
								c0.488,0,0.884,0.058,1.188,0.172s0.529,0.259,0.672,0.433c0.144,0.174,0.244,0.393,0.301,0.658
								c0.032,0.164,0.048,0.461,0.048,0.891v1.289c0,0.899,0.021,1.468,0.062,1.706c0.041,0.237,0.123,0.466,0.245,0.685H41.86
								C41.76,166.96,41.695,166.726,41.667,166.458z M41.586,164.298c-0.352,0.144-0.879,0.266-1.582,0.365
								c-0.398,0.058-0.68,0.122-0.844,0.193c-0.165,0.072-0.292,0.177-0.382,0.314c-0.089,0.139-0.134,0.291-0.134,0.459
								c0,0.258,0.098,0.473,0.293,0.645c0.196,0.172,0.481,0.258,0.858,0.258c0.373,0,0.705-0.081,0.995-0.244
								c0.291-0.162,0.504-0.386,0.64-0.668c0.104-0.219,0.156-0.541,0.156-0.967V164.298z"/>
							<path d="M44.044,167.162v-7.874h0.968v7.874H44.044z"/>
							<path d="M47.147,169.476h-0.694c1.072-1.719,1.608-3.439,1.608-5.161c0-0.673-0.077-1.341-0.231-2.003
								c-0.122-0.537-0.292-1.053-0.511-1.547c-0.14-0.322-0.428-0.859-0.866-1.611h0.694c0.674,0.898,1.172,1.801,1.495,2.707
								c0.276,0.78,0.414,1.597,0.414,2.449c0,0.967-0.186,1.9-0.557,2.803S47.678,168.803,47.147,169.476z"/>
						</g>
					</g>
				</g>
			</g>
		</g>
	</g>
	<g>
		<g>
			<polygon fill="#FFFFFF" points="44.2,202.4 55,199.5 44.2,196.5 			"/>
		</g>
		<g>
			<line fill="none" stroke="#000000" stroke-linecap="square" x1="46.2" y1="199.5" x2="25.3" y2="199.5"/>
			<polygon points="44.2,202.4 55,199.5 44.2,196.5 			"/>
		</g>
	</g>
</g>
<path fill="none" stroke="#000000" d="M114.9,146.8c18.4,8.6,30.3,20.699,30.3,32.8"/>
<path fill="none" stroke="#00AEEA" stroke-width="1.0065" stroke-dasharray="5.76" d="M205.5,62.2"/>
<path fill="none" stroke="#000000" d="M208.6,7.5c24.6,15.2,39.1,33.6,39.7,53.3"/>
<path fill="none" stroke="#000000" d="M163.4,65.6c0-12.1-9.3-23.3-25.1-32.6l4.1-3.1l4.5-4.5l3.3-3.3l3.5-3.5l5.6-0.7l5.6-1.6
	l5.4-0.9l3.8,0.9l7.7-0.7l4-4.2l3-0.7l5.8,3l4-1.2l2.2-1.2l5.1-3.3l2.899-0.7"/>
<polyline fill="none" stroke="#000000" points="138.3,33 138.3,38.1 138.3,45.1 138.3,50.6 138.3,55.1 134.9,58.5 134.9,64.6 
	134.9,70.1 134.9,74.7 132.6,79.3 130.5,87.4 125.5,100.8 120,112.701 119.4,129.1 115.9,147.201 "/>
<g>
	<rect x="316" y="75.8" fill="#FFFFFF" stroke="#000000" width="78" height="77.5"/>
	<polyline fill="none" stroke="#000000" stroke-width="0.9907" points="316,75.8 338.1,57.5 416.1,57.5 	"/>
	<polyline fill="none" stroke="#000000" stroke-width="0.9907" points="394,75.8 416.1,57.5 416.1,135.5 394,153.8 	"/>
</g>
<polyline fill="none" stroke="#000000" stroke-width="0.9907" points="363,110.5 369,114.5 340,114.5 "/>
<polyline fill="none" stroke="#000000" stroke-width="0.9907" points="351.3,106 355.3,100 355.3,129 "/>
<path stroke="#000000" stroke-width="2" d="M355,114.5"/>
<polyline fill="none" stroke="#000000" stroke-width="0.9198" points="403.7,110.5 398.1,110.4 411.1,101.4 "/>
<polyline fill="none" stroke="#000000" stroke-width="0.9198" points="402.6,95 406,89 406,118 "/>
<polyline fill="none" stroke="#000000" stroke-width="0.9907" points="372,64 377,67 352,67 "/>
<polyline fill="none" stroke="#000000" stroke-width="0.9907" points="365.3,71 358.1,71.8 373.2,60.1 "/>
<g>
	<g>
		<polygon fill="#FFFFFF" points="340.4,125.1 334.8,134.8 344.5,129.201 		"/>
	</g>
	<g>
		<line fill="none" stroke="#000000" stroke-width="0.9907" x1="355" y1="114.5" x2="341" y2="128.5"/>
		<polygon points="340.4,125.1 334.8,134.701 344.5,129.201 		"/>
	</g>
</g>
<g>
	<g>
		<polygon fill="#FFFFFF" points="422.5,107.8 433.4,104.9 422.5,102 		"/>
	</g>
	<g>
		<line fill="none" stroke="#000000" stroke-width="0.9907" x1="406" y1="105" x2="424.5" y2="105"/>
		<polygon points="422.5,107.8 433.3,104.9 422.5,102 		"/>
	</g>
</g>
<g>
	<g>
		<polygon fill="#FFFFFF" points="367.2,52 364.3,41.2 361.4,52 		"/>
	</g>
	<g>
		<line fill="none" stroke="#000000" stroke-width="0.9907" x1="364.3" y1="67" x2="364.3" y2="50"/>
		<polygon points="367.1,52 364.3,41.2 361.4,52 		"/>
	</g>
</g>
<g>
	<g>
		<g>
			<g>
				<g enable-background="new    ">
					<path d="M344.287,89.985l0.982-0.086c0.047,0.394,0.155,0.717,0.325,0.969c0.171,0.253,0.435,0.457,0.792,0.612
						c0.358,0.156,0.762,0.233,1.209,0.233c0.397,0,0.748-0.059,1.053-0.177s0.531-0.28,0.68-0.486s0.223-0.431,0.223-0.674
						c0-0.247-0.072-0.463-0.215-0.647s-0.379-0.339-0.709-0.465c-0.211-0.082-0.679-0.21-1.402-0.384
						c-0.723-0.174-1.229-0.337-1.52-0.491c-0.376-0.197-0.656-0.441-0.841-0.733s-0.276-0.618-0.276-0.979
						c0-0.398,0.113-0.77,0.338-1.115c0.227-0.346,0.556-0.607,0.988-0.787c0.434-0.179,0.916-0.268,1.445-0.268
						c0.584,0,1.099,0.094,1.544,0.281c0.446,0.188,0.789,0.465,1.028,0.83c0.24,0.365,0.369,0.779,0.387,1.24l-0.998,0.076
						c-0.055-0.498-0.236-0.874-0.546-1.129c-0.31-0.254-0.767-0.381-1.372-0.381c-0.631,0-1.09,0.115-1.378,0.347
						c-0.288,0.23-0.433,0.509-0.433,0.835c0,0.283,0.103,0.516,0.307,0.698c0.201,0.183,0.725,0.37,1.571,0.562
						s1.428,0.358,1.743,0.502c0.458,0.211,0.797,0.479,1.015,0.803s0.327,0.697,0.327,1.12c0,0.419-0.119,0.813-0.359,1.185
						c-0.24,0.37-0.584,0.658-1.034,0.864c-0.449,0.206-0.955,0.31-1.517,0.31c-0.713,0-1.311-0.104-1.792-0.313
						c-0.481-0.207-0.859-0.52-1.133-0.937C344.445,90.983,344.301,90.51,344.287,89.985z"/>
					<path d="M354.197,92.514v-3.336l-3.035-4.538h1.268l1.553,2.374c0.286,0.444,0.553,0.888,0.8,1.332
						c0.236-0.412,0.522-0.875,0.859-1.391l1.525-2.315h1.214l-3.143,4.538v3.336H354.197z"/>
					<path d="M358.688,92.514v-0.967l4.033-5.043c0.287-0.358,0.559-0.67,0.816-0.936h-4.394V84.64h5.64v0.929l-4.42,5.463
						l-0.479,0.553h5.027v0.93H358.688z"/>
				</g>
			</g>
		</g>
	</g>
</g>
<g>
	<g>
		<g>
			<g>
				<g enable-background="new    ">
					<path d="M363.787,124.485l0.982-0.086c0.047,0.394,0.155,0.717,0.325,0.969c0.171,0.253,0.435,0.457,0.792,0.612
						c0.358,0.156,0.762,0.233,1.209,0.233c0.397,0,0.748-0.059,1.053-0.177s0.531-0.28,0.68-0.486s0.223-0.431,0.223-0.674
						c0-0.247-0.072-0.463-0.215-0.647s-0.379-0.339-0.709-0.465c-0.211-0.082-0.679-0.21-1.402-0.384
						c-0.723-0.174-1.229-0.337-1.52-0.491c-0.376-0.197-0.656-0.441-0.841-0.733s-0.276-0.618-0.276-0.979
						c0-0.398,0.113-0.77,0.338-1.115c0.227-0.346,0.556-0.607,0.988-0.787c0.434-0.179,0.916-0.268,1.445-0.268
						c0.584,0,1.099,0.094,1.544,0.281c0.446,0.188,0.789,0.465,1.028,0.83c0.24,0.365,0.369,0.779,0.387,1.24l-0.998,0.076
						c-0.055-0.498-0.236-0.874-0.546-1.129c-0.31-0.254-0.767-0.381-1.372-0.381c-0.631,0-1.09,0.115-1.378,0.347
						c-0.288,0.23-0.433,0.509-0.433,0.835c0,0.283,0.103,0.516,0.307,0.698c0.201,0.183,0.725,0.37,1.571,0.562
						s1.428,0.358,1.743,0.502c0.458,0.211,0.797,0.479,1.015,0.803s0.327,0.697,0.327,1.12c0,0.419-0.119,0.813-0.359,1.185
						c-0.24,0.37-0.584,0.658-1.034,0.864c-0.449,0.206-0.955,0.31-1.517,0.31c-0.713,0-1.311-0.104-1.792-0.313
						c-0.481-0.207-0.859-0.52-1.133-0.937C363.945,125.483,363.801,125.01,363.787,124.485z"/>
					<path d="M370.678,127.014l3.046-4.104l-2.686-3.771h1.241l1.428,2.02c0.298,0.419,0.509,0.741,0.635,0.967
						c0.175-0.286,0.383-0.585,0.623-0.897l1.584-2.089h1.133l-2.766,3.712l2.98,4.162h-1.289l-1.981-2.809
						c-0.11-0.162-0.226-0.337-0.344-0.527c-0.175,0.287-0.301,0.484-0.376,0.592l-1.977,2.744H370.678z"/>
					<path d="M378.188,127.014v-0.967l4.033-5.043c0.287-0.358,0.559-0.67,0.816-0.936h-4.394v-0.929h5.64v0.929l-4.42,5.463
						l-0.479,0.553h5.027v0.93H378.188z"/>
				</g>
			</g>
		</g>
	</g>
</g>
<g>
	<g>
		<g>
			<g>
				<g enable-background="new    ">
					<path d="M435.287,105.985l0.982-0.086c0.047,0.394,0.155,0.717,0.325,0.969c0.171,0.253,0.435,0.457,0.792,0.612
						c0.358,0.156,0.762,0.233,1.209,0.233c0.397,0,0.748-0.059,1.053-0.177s0.531-0.28,0.68-0.486s0.223-0.431,0.223-0.674
						c0-0.247-0.072-0.463-0.215-0.647s-0.379-0.339-0.709-0.465c-0.211-0.082-0.679-0.21-1.402-0.384
						c-0.723-0.174-1.229-0.337-1.52-0.491c-0.376-0.197-0.656-0.441-0.841-0.733s-0.276-0.618-0.276-0.979
						c0-0.398,0.113-0.77,0.338-1.115c0.227-0.346,0.556-0.607,0.988-0.787c0.434-0.179,0.916-0.268,1.445-0.268
						c0.584,0,1.099,0.094,1.544,0.281c0.446,0.188,0.789,0.465,1.028,0.83c0.24,0.365,0.369,0.779,0.387,1.24l-0.998,0.076
						c-0.055-0.498-0.236-0.874-0.546-1.129c-0.31-0.254-0.767-0.381-1.372-0.381c-0.631,0-1.09,0.115-1.378,0.347
						c-0.288,0.23-0.433,0.509-0.433,0.835c0,0.283,0.103,0.516,0.307,0.698c0.201,0.183,0.725,0.37,1.571,0.562
						s1.428,0.358,1.743,0.502c0.458,0.211,0.797,0.479,1.015,0.803s0.327,0.697,0.327,1.12c0,0.419-0.119,0.813-0.359,1.185
						c-0.24,0.37-0.584,0.658-1.034,0.864c-0.449,0.206-0.955,0.31-1.517,0.31c-0.713,0-1.311-0.104-1.792-0.313
						c-0.481-0.207-0.859-0.52-1.133-0.937C435.445,106.983,435.301,106.51,435.287,105.985z"/>
					<path d="M442.178,108.514l3.046-4.104l-2.686-3.771h1.241l1.428,2.02c0.298,0.419,0.509,0.741,0.635,0.967
						c0.175-0.286,0.383-0.585,0.623-0.897l1.584-2.089h1.133l-2.766,3.712l2.98,4.162h-1.289l-1.981-2.809
						c-0.11-0.162-0.226-0.337-0.344-0.527c-0.175,0.287-0.301,0.484-0.376,0.592l-1.977,2.744H442.178z"/>
				</g>
			</g>
		</g>
	</g>
</g>
<g>
	<g>
		<g>
			<g>
				<g enable-background="new    ">
					<path d="M322.787,141.985l0.982-0.086c0.047,0.394,0.155,0.717,0.325,0.969c0.171,0.253,0.435,0.457,0.792,0.612
						c0.358,0.156,0.762,0.233,1.209,0.233c0.397,0,0.748-0.059,1.053-0.177s0.531-0.28,0.68-0.486s0.223-0.431,0.223-0.674
						c0-0.247-0.072-0.463-0.215-0.647s-0.379-0.339-0.709-0.465c-0.211-0.082-0.679-0.21-1.402-0.384
						c-0.723-0.174-1.229-0.337-1.52-0.491c-0.376-0.197-0.656-0.441-0.841-0.733s-0.276-0.618-0.276-0.979
						c0-0.398,0.113-0.77,0.338-1.115c0.227-0.346,0.556-0.607,0.988-0.787c0.434-0.179,0.916-0.268,1.445-0.268
						c0.584,0,1.099,0.094,1.544,0.281c0.446,0.188,0.789,0.465,1.028,0.83c0.24,0.365,0.369,0.779,0.387,1.24l-0.998,0.076
						c-0.055-0.498-0.236-0.874-0.546-1.129c-0.31-0.254-0.767-0.381-1.372-0.381c-0.631,0-1.09,0.115-1.378,0.347
						c-0.288,0.23-0.433,0.509-0.433,0.835c0,0.283,0.103,0.516,0.307,0.698c0.201,0.183,0.725,0.37,1.571,0.562
						s1.428,0.358,1.743,0.502c0.458,0.211,0.797,0.479,1.015,0.803s0.327,0.697,0.327,1.12c0,0.419-0.119,0.813-0.359,1.185
						c-0.24,0.37-0.584,0.658-1.034,0.864c-0.449,0.206-0.955,0.31-1.517,0.31c-0.713,0-1.311-0.104-1.792-0.313
						c-0.481-0.207-0.859-0.52-1.133-0.937C322.945,142.983,322.801,142.51,322.787,141.985z"/>
					<path d="M329.85,144.514v-0.967l4.034-5.043c0.286-0.358,0.559-0.67,0.816-0.936h-4.394v-0.929h5.64v0.929l-4.421,5.463
						l-0.478,0.553h5.027v0.93H329.85z"/>
				</g>
			</g>
		</g>
	</g>
</g>
<g>
	<g>
		<g>
			<g>
				<g enable-background="new    ">
					<path d="M357.787,36.485l0.982-0.086c0.047,0.394,0.155,0.717,0.325,0.969c0.171,0.253,0.435,0.457,0.792,0.612
						c0.358,0.156,0.762,0.233,1.209,0.233c0.397,0,0.748-0.059,1.053-0.177s0.531-0.28,0.68-0.486s0.223-0.431,0.223-0.674
						c0-0.247-0.072-0.463-0.215-0.647s-0.379-0.339-0.709-0.465c-0.211-0.082-0.679-0.21-1.402-0.384
						c-0.723-0.174-1.229-0.337-1.52-0.491c-0.376-0.197-0.656-0.441-0.841-0.733s-0.276-0.618-0.276-0.979
						c0-0.398,0.113-0.77,0.338-1.115c0.227-0.346,0.556-0.607,0.988-0.787c0.434-0.179,0.916-0.268,1.445-0.268
						c0.584,0,1.099,0.094,1.544,0.281c0.446,0.188,0.789,0.465,1.028,0.83c0.24,0.365,0.369,0.779,0.387,1.24l-0.998,0.076
						c-0.055-0.498-0.236-0.874-0.546-1.129c-0.31-0.254-0.767-0.381-1.372-0.381c-0.631,0-1.09,0.115-1.378,0.347
						c-0.288,0.23-0.433,0.509-0.433,0.835c0,0.283,0.103,0.516,0.307,0.698c0.201,0.183,0.725,0.37,1.571,0.562
						s1.428,0.358,1.743,0.502c0.458,0.211,0.797,0.479,1.015,0.803s0.327,0.697,0.327,1.12c0,0.419-0.119,0.813-0.359,1.185
						c-0.24,0.37-0.584,0.658-1.034,0.864c-0.449,0.206-0.955,0.31-1.517,0.31c-0.713,0-1.311-0.104-1.792-0.313
						c-0.481-0.207-0.859-0.52-1.133-0.937C357.945,37.483,357.801,37.01,357.787,36.485z"/>
				</g>
				<g enable-background="new    ">
					<path d="M367.658,39.014v-3.336l-3.034-4.538h1.268l1.552,2.374c0.287,0.444,0.554,0.888,0.801,1.332
						c0.236-0.412,0.523-0.875,0.859-1.391l1.525-2.315h1.214l-3.142,4.538v3.336H367.658z"/>
				</g>
			</g>
		</g>
	</g>
</g>
<g>
	<rect x="188.1" y="110.6" fill="none" stroke="#000000" width="31.2" height="31"/>
	<polyline fill="none" stroke="#000000" points="188.1,110.6 196.9,103.3 228.1,103.3 	"/>
	<polyline fill="none" stroke="#000000" points="219.3,110.6 228.1,103.3 228.1,134.5 219.3,141.8 	"/>
</g>
<path fill="none" stroke="#000000" d="M218.3,224.1"/>
<g>
	<g>
		<polygon fill="#FFFFFF" points="306.6,113.6 314.8,106 303.9,108.4 		"/>
	</g>
	<g>
		<polyline fill="none" stroke="#000000" points="239.3,122.1 284,122.1 307,110.1 		"/>
		<polygon points="306.6,113.6 314.8,106 303.9,108.4 		"/>
	</g>
</g>
<g>
	<g>
		<g>
			<g>
				<g>
					<g enable-background="new    ">
						<path d="M297.58,172.412c-0.533-0.673-0.984-1.461-1.354-2.363c-0.368-0.902-0.553-1.836-0.553-2.803
							c0-0.853,0.138-1.669,0.414-2.449c0.322-0.906,0.819-1.809,1.492-2.707h0.693c-0.434,0.744-0.72,1.276-0.859,1.595
							c-0.219,0.494-0.391,1.01-0.516,1.547c-0.154,0.67-0.23,1.343-0.23,2.02c0,1.723,0.535,3.442,1.605,5.161H297.58z"/>
						<path d="M299.165,167.568l0.983-0.086c0.046,0.394,0.154,0.717,0.324,0.969c0.17,0.253,0.435,0.457,0.793,0.612
							c0.357,0.156,0.76,0.233,1.208,0.233c0.397,0,0.749-0.059,1.053-0.177s0.53-0.28,0.68-0.486
							c0.148-0.206,0.223-0.431,0.223-0.674c0-0.247-0.071-0.463-0.215-0.647s-0.38-0.339-0.709-0.465
							c-0.212-0.082-0.679-0.21-1.401-0.384c-0.724-0.174-1.23-0.337-1.521-0.491c-0.376-0.197-0.656-0.441-0.841-0.733
							c-0.184-0.292-0.276-0.618-0.276-0.979c0-0.398,0.112-0.77,0.339-1.115c0.225-0.346,0.555-0.607,0.988-0.787
							c0.433-0.179,0.914-0.268,1.444-0.268c0.583,0,1.099,0.094,1.544,0.281c0.446,0.188,0.789,0.465,1.029,0.83
							c0.239,0.365,0.368,0.779,0.387,1.24l-1,0.076c-0.053-0.498-0.234-0.874-0.545-1.129c-0.31-0.254-0.768-0.381-1.372-0.381
							c-0.63,0-1.089,0.115-1.378,0.347c-0.288,0.23-0.432,0.509-0.432,0.835c0,0.283,0.102,0.516,0.306,0.698
							c0.2,0.183,0.724,0.37,1.571,0.562c0.847,0.191,1.428,0.358,1.742,0.502c0.459,0.211,0.797,0.479,1.016,0.803
							s0.328,0.697,0.328,1.12c0,0.419-0.121,0.813-0.36,1.185c-0.239,0.37-0.585,0.658-1.034,0.864s-0.955,0.31-1.518,0.31
							c-0.712,0-1.309-0.104-1.791-0.313c-0.481-0.207-0.859-0.52-1.133-0.937C299.323,168.566,299.18,168.093,299.165,167.568z"/>
						<path d="M308.844,169.232l0.14,0.854c-0.272,0.058-0.516,0.086-0.73,0.086c-0.351,0-0.623-0.056-0.816-0.167
							c-0.193-0.11-0.329-0.257-0.408-0.438s-0.118-0.561-0.118-1.141v-3.282h-0.709v-0.752h0.709v-1.413l0.961-0.58v1.993h0.973
							v0.752h-0.973v3.335c0,0.276,0.018,0.453,0.052,0.532s0.089,0.142,0.166,0.188c0.077,0.046,0.188,0.069,0.331,0.069
							C308.527,169.27,308.668,169.257,308.844,169.232z"/>
						<path d="M309.778,170.097v-5.704h0.87v0.864c0.223-0.404,0.427-0.671,0.615-0.8c0.188-0.129,0.395-0.193,0.62-0.193
							c0.325,0,0.657,0.104,0.993,0.312l-0.332,0.896c-0.236-0.139-0.473-0.209-0.709-0.209c-0.212,0-0.401,0.063-0.57,0.19
							c-0.168,0.127-0.287,0.304-0.359,0.529c-0.107,0.344-0.161,0.72-0.161,1.128v2.986H309.778z"/>
						<path d="M317.357,168.26l0.998,0.124c-0.157,0.583-0.449,1.036-0.875,1.358s-0.971,0.483-1.633,0.483
							c-0.834,0-1.496-0.257-1.984-0.771c-0.489-0.514-0.733-1.234-0.733-2.162c0-0.96,0.247-1.704,0.741-2.234
							s1.135-0.795,1.923-0.795c0.763,0,1.386,0.26,1.869,0.778c0.483,0.52,0.726,1.25,0.726,2.191c0,0.058-0.002,0.144-0.006,0.258
							h-4.254c0.035,0.627,0.213,1.107,0.531,1.439c0.319,0.334,0.717,0.5,1.193,0.5c0.354,0,0.656-0.093,0.907-0.279
							S317.21,168.668,317.357,168.26z M314.183,166.697h3.185c-0.043-0.479-0.164-0.839-0.365-1.079
							c-0.308-0.372-0.707-0.559-1.197-0.559c-0.443,0-0.817,0.148-1.12,0.446C314.383,165.802,314.215,166.2,314.183,166.697z"/>
						<path d="M319.184,168.394l0.955-0.15c0.055,0.384,0.203,0.678,0.449,0.881c0.245,0.205,0.588,0.307,1.028,0.307
							c0.444,0,0.773-0.091,0.988-0.271s0.322-0.393,0.322-0.637c0-0.218-0.095-0.39-0.284-0.516
							c-0.133-0.086-0.463-0.194-0.988-0.327c-0.709-0.179-1.201-0.334-1.475-0.465c-0.274-0.131-0.482-0.312-0.623-0.542
							c-0.142-0.231-0.213-0.486-0.213-0.766c0-0.254,0.059-0.489,0.175-0.706s0.274-0.396,0.476-0.54
							c0.15-0.111,0.355-0.205,0.615-0.282s0.537-0.115,0.835-0.115c0.448,0,0.841,0.064,1.179,0.193
							c0.339,0.129,0.588,0.304,0.75,0.523c0.16,0.221,0.271,0.515,0.332,0.884l-0.945,0.129c-0.043-0.294-0.167-0.522-0.373-0.688
							c-0.205-0.165-0.496-0.247-0.873-0.247c-0.443,0-0.76,0.073-0.95,0.22c-0.19,0.147-0.284,0.319-0.284,0.516
							c0,0.126,0.039,0.238,0.117,0.339c0.079,0.104,0.203,0.189,0.371,0.258c0.097,0.036,0.381,0.118,0.854,0.247
							c0.685,0.183,1.162,0.332,1.432,0.448c0.271,0.116,0.482,0.286,0.637,0.508s0.23,0.498,0.23,0.827
							c0,0.322-0.094,0.626-0.281,0.91c-0.188,0.285-0.459,0.505-0.814,0.661c-0.354,0.155-0.755,0.233-1.203,0.233
							c-0.74,0-1.306-0.154-1.694-0.462C319.539,169.457,319.291,169,319.184,168.394z"/>
						<path d="M324.684,168.394l0.955-0.15c0.055,0.384,0.203,0.678,0.449,0.881c0.245,0.205,0.588,0.307,1.028,0.307
							c0.444,0,0.773-0.091,0.988-0.271s0.322-0.393,0.322-0.637c0-0.218-0.095-0.39-0.284-0.516
							c-0.133-0.086-0.463-0.194-0.988-0.327c-0.709-0.179-1.201-0.334-1.475-0.465c-0.274-0.131-0.482-0.312-0.623-0.542
							c-0.142-0.231-0.213-0.486-0.213-0.766c0-0.254,0.059-0.489,0.175-0.706s0.274-0.396,0.476-0.54
							c0.15-0.111,0.355-0.205,0.615-0.282s0.537-0.115,0.835-0.115c0.448,0,0.841,0.064,1.179,0.193
							c0.339,0.129,0.588,0.304,0.75,0.523c0.16,0.221,0.271,0.515,0.332,0.884l-0.945,0.129c-0.043-0.294-0.167-0.522-0.373-0.688
							c-0.205-0.165-0.496-0.247-0.873-0.247c-0.443,0-0.76,0.073-0.95,0.22c-0.19,0.147-0.284,0.319-0.284,0.516
							c0,0.126,0.039,0.238,0.117,0.339c0.079,0.104,0.203,0.189,0.371,0.258c0.097,0.036,0.381,0.118,0.854,0.247
							c0.685,0.183,1.162,0.332,1.432,0.448c0.271,0.116,0.482,0.286,0.637,0.508s0.23,0.498,0.23,0.827
							c0,0.322-0.094,0.626-0.281,0.91c-0.188,0.285-0.459,0.505-0.814,0.661c-0.354,0.155-0.755,0.233-1.203,0.233
							c-0.74,0-1.306-0.154-1.694-0.462C325.039,169.457,324.791,169,324.684,168.394z"/>
						<path d="M337.326,170.097v-0.72c-0.361,0.565-0.893,0.849-1.595,0.849c-0.454,0-0.873-0.125-1.254-0.376
							c-0.382-0.251-0.677-0.601-0.887-1.05c-0.209-0.449-0.313-0.966-0.313-1.55c0-0.569,0.094-1.086,0.284-1.55
							s0.475-0.818,0.854-1.066c0.379-0.246,0.803-0.37,1.272-0.37c0.344,0,0.649,0.072,0.919,0.218
							c0.268,0.145,0.486,0.334,0.654,0.566v-2.825h0.962v7.874H337.326z M334.271,167.25c0,0.73,0.153,1.276,0.462,1.638
							c0.309,0.362,0.672,0.543,1.09,0.543c0.423,0,0.782-0.173,1.077-0.519c0.296-0.346,0.443-0.872,0.443-1.581
							c0-0.781-0.15-1.354-0.451-1.719s-0.671-0.549-1.112-0.549c-0.43,0-0.788,0.176-1.076,0.527
							C334.414,165.942,334.271,166.495,334.271,167.25z"/>
						<path d="M339.749,163.335v-1.112h0.967v1.112H339.749z M339.749,170.097v-5.704h0.967v5.704H339.749z"/>
						<path d="M342.177,170.097v-5.704h0.87v0.864c0.223-0.404,0.427-0.671,0.615-0.8c0.188-0.129,0.395-0.193,0.62-0.193
							c0.325,0,0.657,0.104,0.993,0.312l-0.332,0.896c-0.236-0.139-0.473-0.209-0.709-0.209c-0.212,0-0.401,0.063-0.57,0.19
							c-0.168,0.127-0.287,0.304-0.359,0.529c-0.107,0.344-0.161,0.72-0.161,1.128v2.986H342.177z"/>
						<path d="M349.756,168.26l0.998,0.124c-0.157,0.583-0.449,1.036-0.875,1.358s-0.971,0.483-1.633,0.483
							c-0.834,0-1.496-0.257-1.984-0.771c-0.489-0.514-0.733-1.234-0.733-2.162c0-0.96,0.247-1.704,0.741-2.234
							s1.135-0.795,1.923-0.795c0.763,0,1.386,0.26,1.869,0.778c0.483,0.52,0.726,1.25,0.726,2.191c0,0.058-0.002,0.144-0.006,0.258
							h-4.254c0.035,0.627,0.213,1.107,0.531,1.439c0.319,0.334,0.717,0.5,1.193,0.5c0.354,0,0.656-0.093,0.907-0.279
							S349.608,168.668,349.756,168.26z M346.581,166.697h3.185c-0.043-0.479-0.164-0.839-0.365-1.079
							c-0.308-0.372-0.707-0.559-1.197-0.559c-0.443,0-0.817,0.148-1.12,0.446C346.781,165.802,346.613,166.2,346.581,166.697z"/>
						<path d="M355.69,168.007l0.95,0.124c-0.104,0.655-0.369,1.168-0.797,1.539c-0.428,0.37-0.953,0.556-1.576,0.556
							c-0.781,0-1.408-0.255-1.883-0.766c-0.475-0.51-0.712-1.241-0.712-2.193c0-0.616,0.103-1.155,0.306-1.617
							c0.205-0.462,0.516-0.809,0.933-1.039c0.417-0.231,0.87-0.347,1.361-0.347c0.62,0,1.126,0.156,1.521,0.47
							c0.394,0.313,0.646,0.759,0.757,1.335l-0.94,0.146c-0.089-0.384-0.248-0.672-0.475-0.865c-0.228-0.193-0.502-0.29-0.824-0.29
							c-0.487,0-0.883,0.175-1.188,0.523c-0.305,0.35-0.457,0.901-0.457,1.657c0,0.767,0.147,1.323,0.441,1.67
							c0.293,0.348,0.676,0.521,1.148,0.521c0.38,0,0.697-0.116,0.951-0.35C355.461,168.849,355.623,168.492,355.69,168.007z"/>
						<path d="M359.579,169.232l0.14,0.854c-0.271,0.058-0.516,0.086-0.73,0.086c-0.352,0-0.623-0.056-0.816-0.167
							c-0.193-0.11-0.33-0.257-0.408-0.438s-0.118-0.561-0.118-1.141v-3.282h-0.709v-0.752h0.709v-1.413l0.962-0.58v1.993h0.972
							v0.752h-0.972v3.335c0,0.276,0.017,0.453,0.051,0.532c0.033,0.079,0.09,0.142,0.166,0.188c0.077,0.046,0.188,0.069,0.33,0.069
							C359.262,169.27,359.404,169.257,359.579,169.232z"/>
						<path d="M360.529,163.335v-1.112h0.967v1.112H360.529z M360.529,170.097v-5.704h0.967v5.704H360.529z"/>
						<path d="M362.608,167.246c0-1.057,0.294-1.839,0.881-2.348c0.491-0.423,1.089-0.634,1.794-0.634
							c0.784,0,1.426,0.257,1.923,0.771s0.747,1.224,0.747,2.13c0,0.734-0.11,1.312-0.331,1.732c-0.22,0.421-0.54,0.747-0.961,0.979
							c-0.421,0.233-0.88,0.35-1.378,0.35c-0.799,0-1.443-0.256-1.937-0.768C362.854,168.946,362.608,168.208,362.608,167.246z
							 M363.602,167.246c0,0.73,0.16,1.277,0.479,1.641s0.72,0.545,1.203,0.545c0.48,0,0.879-0.183,1.197-0.548
							c0.319-0.365,0.479-0.922,0.479-1.671c0-0.705-0.16-1.239-0.48-1.603s-0.719-0.546-1.195-0.546
							c-0.483,0-0.885,0.182-1.203,0.543S363.602,166.515,363.602,167.246z"/>
						<path d="M369.086,170.097v-5.704h0.87v0.812c0.419-0.627,1.024-0.94,1.815-0.94c0.344,0,0.66,0.062,0.948,0.186
							c0.288,0.123,0.504,0.285,0.647,0.485c0.143,0.201,0.243,0.439,0.301,0.715c0.035,0.179,0.053,0.492,0.053,0.939v3.508h-0.967
							v-3.47c0-0.394-0.037-0.688-0.112-0.884s-0.208-0.351-0.4-0.467c-0.191-0.116-0.416-0.175-0.674-0.175
							c-0.411,0-0.767,0.131-1.066,0.392c-0.299,0.262-0.448,0.758-0.448,1.488v3.115H369.086z"/>
						<path d="M374.816,168.394l0.957-0.15c0.053,0.384,0.203,0.678,0.448,0.881c0.245,0.205,0.588,0.307,1.028,0.307
							c0.443,0,0.773-0.091,0.988-0.271s0.322-0.393,0.322-0.637c0-0.218-0.095-0.39-0.285-0.516
							c-0.132-0.086-0.461-0.194-0.988-0.327c-0.709-0.179-1.2-0.334-1.474-0.465c-0.274-0.131-0.481-0.312-0.623-0.542
							c-0.142-0.231-0.212-0.486-0.212-0.766c0-0.254,0.058-0.489,0.174-0.706c0.117-0.217,0.275-0.396,0.476-0.54
							c0.15-0.111,0.355-0.205,0.615-0.282c0.259-0.077,0.538-0.115,0.835-0.115c0.447,0,0.841,0.064,1.179,0.193
							c0.339,0.129,0.589,0.304,0.749,0.523c0.162,0.221,0.272,0.515,0.334,0.884l-0.945,0.129
							c-0.043-0.294-0.168-0.522-0.374-0.688s-0.497-0.247-0.872-0.247c-0.444,0-0.762,0.073-0.951,0.22
							c-0.189,0.147-0.285,0.319-0.285,0.516c0,0.126,0.04,0.238,0.119,0.339c0.078,0.104,0.201,0.189,0.37,0.258
							c0.097,0.036,0.382,0.118,0.854,0.247c0.684,0.183,1.16,0.332,1.431,0.448s0.483,0.286,0.637,0.508s0.231,0.498,0.231,0.827
							c0,0.322-0.095,0.626-0.282,0.91c-0.188,0.285-0.46,0.505-0.813,0.661c-0.355,0.155-0.756,0.233-1.203,0.233
							c-0.742,0-1.307-0.154-1.695-0.462S374.924,169,374.816,168.394z"/>
						<path d="M383.373,168.394l0.956-0.15c0.054,0.384,0.203,0.678,0.448,0.881c0.246,0.205,0.588,0.307,1.029,0.307
							c0.443,0,0.773-0.091,0.988-0.271s0.322-0.393,0.322-0.637c0-0.218-0.096-0.39-0.285-0.516
							c-0.133-0.086-0.462-0.194-0.988-0.327c-0.709-0.179-1.2-0.334-1.475-0.465c-0.273-0.131-0.481-0.312-0.623-0.542
							c-0.141-0.231-0.212-0.486-0.212-0.766c0-0.254,0.058-0.489,0.175-0.706c0.116-0.217,0.274-0.396,0.475-0.54
							c0.15-0.111,0.355-0.205,0.615-0.282s0.538-0.115,0.836-0.115c0.447,0,0.84,0.064,1.179,0.193
							c0.338,0.129,0.588,0.304,0.749,0.523c0.161,0.221,0.271,0.515,0.333,0.884l-0.945,0.129
							c-0.043-0.294-0.167-0.522-0.373-0.688s-0.497-0.247-0.873-0.247c-0.444,0-0.761,0.073-0.95,0.22
							c-0.19,0.147-0.285,0.319-0.285,0.516c0,0.126,0.039,0.238,0.118,0.339c0.079,0.104,0.202,0.189,0.37,0.258
							c0.098,0.036,0.382,0.118,0.854,0.247c0.685,0.183,1.161,0.332,1.432,0.448s0.482,0.286,0.636,0.508
							c0.154,0.222,0.231,0.498,0.231,0.827c0,0.322-0.094,0.626-0.282,0.91c-0.188,0.285-0.459,0.505-0.813,0.661
							c-0.354,0.155-0.755,0.233-1.203,0.233c-0.741,0-1.306-0.154-1.694-0.462S383.48,169,383.373,168.394z"/>
						<path d="M389.26,170.097v-7.874h0.967v2.825c0.451-0.522,1.021-0.784,1.708-0.784c0.423,0,0.79,0.083,1.101,0.25
							c0.313,0.166,0.535,0.396,0.669,0.69c0.135,0.293,0.202,0.719,0.202,1.277v3.615h-0.967v-3.615
							c0-0.482-0.105-0.835-0.314-1.055c-0.21-0.221-0.506-0.33-0.889-0.33c-0.287,0-0.557,0.074-0.809,0.223
							c-0.253,0.148-0.433,0.35-0.54,0.604c-0.107,0.255-0.161,0.605-0.161,1.053v3.121H389.26z"/>
						<path d="M395.018,167.246c0-1.057,0.293-1.839,0.881-2.348c0.49-0.423,1.088-0.634,1.794-0.634
							c0.784,0,1.425,0.257,1.923,0.771s0.746,1.224,0.746,2.13c0,0.734-0.109,1.312-0.33,1.732
							c-0.22,0.421-0.541,0.747-0.961,0.979c-0.421,0.233-0.881,0.35-1.378,0.35c-0.798,0-1.444-0.256-1.937-0.768
							C395.264,168.946,395.018,168.208,395.018,167.246z M396.012,167.246c0,0.73,0.158,1.277,0.478,1.641s0.72,0.545,1.203,0.545
							c0.479,0,0.879-0.183,1.198-0.548c0.318-0.365,0.478-0.922,0.478-1.671c0-0.705-0.16-1.239-0.48-1.603
							c-0.321-0.363-0.72-0.546-1.195-0.546c-0.483,0-0.884,0.182-1.203,0.543S396.012,166.515,396.012,167.246z"/>
						<path d="M402.548,170.097l-1.745-5.704h0.998l0.908,3.292l0.338,1.225c0.015-0.061,0.113-0.452,0.296-1.176l0.907-3.341h0.994
							l0.854,3.309l0.285,1.091l0.328-1.102l0.977-3.298h0.94l-1.783,5.704h-1.005l-0.907-3.416l-0.22-0.973l-1.155,4.389H402.548z"
							/>
						<path d="M409.439,170.097v-5.704h0.869v0.812c0.42-0.627,1.024-0.94,1.816-0.94c0.344,0,0.659,0.062,0.947,0.186
							c0.289,0.123,0.504,0.285,0.647,0.485c0.144,0.201,0.243,0.439,0.301,0.715c0.036,0.179,0.054,0.492,0.054,0.939v3.508h-0.967
							v-3.47c0-0.394-0.037-0.688-0.113-0.884c-0.074-0.195-0.208-0.351-0.399-0.467c-0.192-0.116-0.417-0.175-0.675-0.175
							c-0.411,0-0.767,0.131-1.065,0.392c-0.3,0.262-0.448,0.758-0.448,1.488v3.115H409.439z"/>
					</g>
				</g>
			</g>
		</g>
	</g>
	<g>
		<g>
			<g>
				<g>
					<g enable-background="new    ">
						<path d="M299.455,182.394c-0.357,0.304-0.703,0.519-1.034,0.645c-0.331,0.125-0.687,0.188-1.065,0.188
							c-0.627,0-1.109-0.153-1.445-0.459c-0.336-0.307-0.505-0.697-0.505-1.174c0-0.279,0.063-0.534,0.19-0.766
							c0.127-0.23,0.294-0.416,0.5-0.556c0.205-0.14,0.438-0.245,0.695-0.317c0.189-0.05,0.477-0.098,0.859-0.145
							c0.781-0.093,1.355-0.204,1.725-0.333c0.003-0.133,0.005-0.217,0.005-0.253c0-0.394-0.091-0.671-0.274-0.832
							c-0.246-0.219-0.613-0.328-1.101-0.328c-0.454,0-0.79,0.08-1.007,0.239s-0.377,0.441-0.48,0.847l-0.945-0.129
							c0.086-0.405,0.227-0.731,0.424-0.98s0.481-0.44,0.854-0.575c0.373-0.134,0.805-0.201,1.295-0.201
							c0.486,0,0.883,0.058,1.188,0.172c0.304,0.114,0.527,0.259,0.671,0.433s0.243,0.393,0.301,0.658
							c0.032,0.164,0.048,0.461,0.048,0.891v1.289c0,0.899,0.021,1.468,0.063,1.706s0.123,0.466,0.244,0.685h-1.01
							C299.549,182.897,299.484,182.662,299.455,182.394z M299.375,180.234c-0.352,0.144-0.878,0.266-1.58,0.365
							c-0.396,0.058-0.678,0.122-0.843,0.193c-0.165,0.072-0.292,0.177-0.382,0.314c-0.089,0.138-0.134,0.291-0.134,0.459
							c0,0.258,0.098,0.473,0.293,0.645c0.194,0.172,0.48,0.258,0.856,0.258c0.373,0,0.703-0.081,0.994-0.244
							c0.289-0.163,0.502-0.386,0.639-0.668c0.104-0.219,0.156-0.541,0.156-0.967V180.234z"/>
						<path d="M301.84,183.097v-5.704h0.87v0.864c0.222-0.404,0.427-0.671,0.615-0.8c0.188-0.129,0.395-0.193,0.62-0.193
							c0.326,0,0.657,0.104,0.994,0.312l-0.334,0.896c-0.236-0.139-0.473-0.209-0.709-0.209c-0.211,0-0.4,0.063-0.568,0.19
							c-0.169,0.127-0.289,0.304-0.36,0.529c-0.107,0.344-0.161,0.72-0.161,1.128v2.986H301.84z"/>
						<path d="M309.418,181.26l1,0.124c-0.158,0.583-0.449,1.036-0.876,1.358s-0.97,0.483-1.633,0.483
							c-0.835,0-1.496-0.257-1.984-0.771c-0.489-0.514-0.733-1.234-0.733-2.162c0-0.96,0.247-1.704,0.741-2.234
							s1.136-0.795,1.923-0.795c0.763,0,1.386,0.26,1.869,0.778c0.483,0.52,0.725,1.25,0.725,2.191c0,0.058-0.002,0.144-0.005,0.258
							h-4.254c0.036,0.627,0.213,1.107,0.532,1.439c0.318,0.334,0.716,0.5,1.191,0.5c0.355,0,0.658-0.093,0.908-0.279
							S309.271,181.668,309.418,181.26z M306.244,179.697h3.186c-0.043-0.479-0.165-0.839-0.365-1.079
							c-0.309-0.372-0.707-0.559-1.198-0.559c-0.444,0-0.817,0.148-1.12,0.446C306.443,178.802,306.276,179.2,306.244,179.697z"/>
						<path d="M314.918,183.097v-4.952h-0.854v-0.752h0.854v-0.606c0-0.384,0.035-0.668,0.103-0.854
							c0.093-0.251,0.257-0.454,0.491-0.609c0.234-0.156,0.563-0.233,0.986-0.233c0.271,0,0.572,0.031,0.902,0.096l-0.146,0.844
							c-0.2-0.036-0.39-0.054-0.569-0.054c-0.293,0-0.502,0.063-0.623,0.188c-0.121,0.125-0.183,0.359-0.183,0.703v0.526h1.112
							v0.752h-1.112v4.952H314.918z"/>
						<path d="M317.384,180.246c0-1.057,0.294-1.839,0.881-2.348c0.491-0.423,1.089-0.634,1.794-0.634
							c0.784,0,1.426,0.257,1.923,0.771s0.747,1.224,0.747,2.13c0,0.734-0.11,1.312-0.331,1.732c-0.22,0.421-0.54,0.747-0.961,0.979
							c-0.421,0.233-0.88,0.35-1.378,0.35c-0.799,0-1.443-0.256-1.937-0.768C317.63,181.946,317.384,181.208,317.384,180.246z
							 M318.377,180.246c0,0.73,0.16,1.277,0.479,1.641s0.72,0.545,1.203,0.545c0.48,0,0.879-0.183,1.197-0.548
							c0.319-0.365,0.479-0.922,0.479-1.671c0-0.705-0.16-1.239-0.48-1.603s-0.719-0.546-1.195-0.546
							c-0.483,0-0.885,0.182-1.203,0.543S318.377,179.515,318.377,180.246z"/>
						<path d="M323.851,183.097v-5.704h0.87v0.864c0.223-0.404,0.427-0.671,0.615-0.8c0.188-0.129,0.395-0.193,0.62-0.193
							c0.325,0,0.657,0.104,0.993,0.312l-0.332,0.896c-0.236-0.139-0.473-0.209-0.709-0.209c-0.212,0-0.401,0.063-0.57,0.19
							c-0.168,0.127-0.287,0.304-0.359,0.529c-0.107,0.344-0.161,0.72-0.161,1.128v2.986H323.851z"/>
						<path d="M330.661,183.097v-7.874h1.042v3.905l3.91-3.905h1.412l-3.303,3.19l3.448,4.684h-1.375l-2.804-3.985l-1.289,1.257
							v2.729H330.661z"/>
						<path d="M338.063,183.097v-7.874h5.693v0.929h-4.651v2.412h4.356v0.924h-4.356v2.68h4.834v0.93H338.063z"/>
						<path d="M347.596,183.097v-3.336l-3.034-4.538h1.268l1.552,2.374c0.287,0.444,0.554,0.888,0.801,1.332
							c0.236-0.412,0.523-0.875,0.859-1.391l1.525-2.315h1.214l-3.142,4.538v3.336H347.596z"/>
						<path d="M352.398,179.262c0-1.307,0.351-2.33,1.053-3.069c0.701-0.739,1.607-1.109,2.717-1.109
							c0.728,0,1.383,0.174,1.967,0.521c0.583,0.347,1.028,0.831,1.334,1.452c0.307,0.621,0.459,1.326,0.459,2.114
							c0,0.798-0.16,1.513-0.482,2.143s-0.779,1.107-1.37,1.432s-1.228,0.486-1.912,0.486c-0.741,0-1.403-0.18-1.987-0.537
							c-0.584-0.358-1.025-0.848-1.326-1.467S352.398,179.954,352.398,179.262z M353.473,179.279c0,0.948,0.255,1.696,0.765,2.242
							c0.511,0.546,1.15,0.818,1.921,0.818c0.783,0,1.43-0.275,1.936-0.826c0.507-0.552,0.76-1.334,0.76-2.348
							c0-0.641-0.107-1.2-0.324-1.679c-0.217-0.478-0.533-0.849-0.951-1.111c-0.417-0.264-0.885-0.396-1.404-0.396
							c-0.738,0-1.372,0.254-1.904,0.761C353.738,177.248,353.473,178.093,353.473,179.279z"/>
						<path d="M361.271,183.097v-7.874h2.97c0.522,0,0.922,0.025,1.198,0.075c0.387,0.064,0.711,0.188,0.972,0.368
							s0.472,0.434,0.631,0.76s0.239,0.684,0.239,1.074c0,0.67-0.213,1.236-0.639,1.7c-0.427,0.464-1.196,0.695-2.311,0.695h-2.02
							v3.201H361.271z M362.313,178.966h2.036c0.673,0,1.151-0.125,1.435-0.375c0.282-0.251,0.424-0.604,0.424-1.059
							c0-0.329-0.083-0.611-0.25-0.846c-0.166-0.234-0.386-0.39-0.658-0.465c-0.175-0.047-0.499-0.07-0.972-0.07h-2.015V178.966z"/>
						<path d="M370.611,183.097v-6.945h-2.594v-0.929h6.24v0.929h-2.604v6.945H370.611z"/>
						<path d="M377.051,185.412c-0.533-0.673-0.984-1.461-1.354-2.363c-0.368-0.902-0.553-1.836-0.553-2.803
							c0-0.853,0.138-1.669,0.414-2.449c0.322-0.906,0.819-1.809,1.492-2.707h0.693c-0.434,0.744-0.72,1.276-0.859,1.595
							c-0.219,0.494-0.391,1.01-0.516,1.547c-0.154,0.67-0.23,1.343-0.23,2.02c0,1.723,0.535,3.442,1.605,5.161H377.051z"/>
						<path d="M382.24,183.097h-0.967v-6.16c-0.233,0.222-0.539,0.443-0.916,0.666c-0.378,0.222-0.717,0.388-1.018,0.499v-0.935
							c0.54-0.254,1.013-0.563,1.418-0.924c0.404-0.361,0.69-0.713,0.859-1.053h0.623V183.097z"/>
						<path d="M385.618,185.412h-0.692c1.07-1.719,1.605-3.438,1.605-5.161c0-0.673-0.077-1.341-0.23-2.003
							c-0.122-0.537-0.293-1.053-0.511-1.547c-0.14-0.322-0.428-0.859-0.864-1.611h0.692c0.673,0.898,1.171,1.801,1.493,2.707
							c0.275,0.78,0.414,1.597,0.414,2.449c0,0.967-0.186,1.9-0.557,2.803C386.599,183.951,386.148,184.739,385.618,185.412z"/>
						<path d="M396.79,178.467h-5.199v-0.902h5.199V178.467z M396.79,180.857h-5.199v-0.902h5.199V180.857z"/>
						<path d="M400.915,179.214c0-0.932,0.096-1.681,0.287-2.248c0.192-0.567,0.477-1.006,0.854-1.313
							c0.377-0.308,0.854-0.462,1.426-0.462c0.422,0,0.793,0.085,1.111,0.255c0.319,0.17,0.582,0.416,0.79,0.736
							s0.37,0.711,0.489,1.171c0.117,0.46,0.177,1.08,0.177,1.861c0,0.924-0.095,1.669-0.284,2.236
							c-0.19,0.567-0.475,1.007-0.852,1.316c-0.378,0.31-0.855,0.465-1.432,0.465c-0.76,0-1.355-0.272-1.789-0.816
							C401.175,181.759,400.915,180.693,400.915,179.214z M401.908,179.214c0,1.292,0.152,2.152,0.454,2.58
							c0.303,0.428,0.677,0.643,1.12,0.643s0.817-0.215,1.12-0.645c0.302-0.43,0.454-1.289,0.454-2.578
							c0-1.297-0.152-2.158-0.454-2.584c-0.303-0.426-0.68-0.639-1.131-0.639c-0.444,0-0.798,0.188-1.063,0.563
							C402.075,177.035,401.908,177.921,401.908,179.214z"/>
						<path d="M407.936,185.412h-0.693c1.07-1.719,1.605-3.438,1.605-5.161c0-0.673-0.076-1.341-0.23-2.003
							c-0.121-0.537-0.292-1.053-0.51-1.547c-0.141-0.322-0.428-0.859-0.865-1.611h0.693c0.673,0.898,1.17,1.801,1.492,2.707
							c0.276,0.78,0.414,1.597,0.414,2.449c0,0.967-0.186,1.9-0.556,2.803C408.915,183.951,408.465,184.739,407.936,185.412z"/>
					</g>
				</g>
			</g>
		</g>
	</g>
</g>
<g>
	<g>
		<g>
			<g>
				<g enable-background="new    ">
					<path d="M397.497,84.79l0.777-0.607c0.254,0.304,0.521,0.517,0.801,0.635c0.28,0.12,0.613,0.147,0.998,0.082
						c0.385-0.063,0.765-0.219,1.141-0.462c0.333-0.216,0.596-0.457,0.787-0.721c0.189-0.265,0.291-0.524,0.305-0.778
						c0.012-0.254-0.049-0.483-0.181-0.687c-0.135-0.208-0.312-0.349-0.532-0.426c-0.221-0.077-0.503-0.078-0.848-0.004
						c-0.223,0.046-0.684,0.194-1.385,0.441c-0.701,0.248-1.215,0.387-1.543,0.416c-0.423,0.039-0.791-0.013-1.104-0.157
						c-0.314-0.145-0.569-0.368-0.766-0.671c-0.217-0.334-0.324-0.707-0.324-1.12c0.002-0.412,0.135-0.812,0.4-1.198
						c0.266-0.386,0.621-0.723,1.066-1.012c0.489-0.317,0.972-0.52,1.447-0.605c0.478-0.084,0.916-0.04,1.314,0.136
						c0.4,0.176,0.734,0.453,1.001,0.83l-0.796,0.608c-0.317-0.389-0.674-0.605-1.073-0.65c-0.397-0.044-0.851,0.099-1.358,0.428
						c-0.528,0.344-0.851,0.69-0.967,1.041c-0.115,0.351-0.085,0.662,0.093,0.936c0.154,0.238,0.366,0.377,0.637,0.419
						c0.269,0.043,0.81-0.084,1.624-0.385c0.814-0.3,1.393-0.477,1.734-0.528c0.5-0.073,0.93-0.033,1.289,0.12
						c0.359,0.153,0.654,0.407,0.885,0.761c0.229,0.352,0.342,0.748,0.344,1.189c0,0.441-0.132,0.87-0.397,1.288
						c-0.265,0.417-0.632,0.78-1.104,1.086c-0.597,0.388-1.155,0.626-1.673,0.713c-0.517,0.089-1.004,0.033-1.46-0.168
						C398.173,85.541,397.796,85.223,397.497,84.79z"/>
					<path d="M404.654,83.159l0.319-5.101l-4.306-1.699l1.04-0.676l2.299,0.916c0.478,0.189,0.83,0.345,1.059,0.466
						c-0.01-0.335,0.002-0.7,0.033-1.092l0.191-2.615l0.95-0.617l-0.298,4.62l4.766,1.868l-1.08,0.702l-3.191-1.276
						c-0.182-0.075-0.373-0.159-0.576-0.255c0.01,0.336,0.012,0.57,0.007,0.701l-0.163,3.378L404.654,83.159z"/>
				</g>
				<g enable-background="new    ">
					<path d="M413.361,77.506l-1.816-2.798l-5.017-2.154l1.063-0.69l2.594,1.146c0.483,0.217,0.948,0.443,1.397,0.682
						c-0.026-0.474-0.038-1.019-0.036-1.634l0.018-2.772l1.018-0.661l-0.163,5.517l1.816,2.798L413.361,77.506z"/>
				</g>
			</g>
		</g>
	</g>
</g>
</svg>
