<?xml version="1.0" encoding="utf-8"?>
<!-- Generator: Adobe Illustrator 17.1.0, SVG Export Plug-In . SVG Version: 6.00 Build 0)  -->

<svg version="1.1" id="Layer_1" xmlns="http://www.w3.org/2000/svg" xmlns:xlink="http://www.w3.org/1999/xlink" x="0px" y="0px"
	 width="295.8px" height="133.6px" viewBox="0 0 295.8 133.6" enable-background="new 0 0 295.8 133.6" xml:space="preserve">
<g>
	<g>
		<g>
			<g>
				<g>
					<text transform="matrix(1.0022 0 0 1 9.4248 21.4478)" font-family="'TimesNewRomanPSMT'" font-size="11.9905"> </text>
				</g>
			</g>
		</g>
	</g>
</g>
<path fill="#FFFFFF" stroke="#2062AF" d="M34.7,114.9c-7.9-13.7-4.3-30.5,8.1-37.8l90.6-52.5c12.4-7.3,28.8-2,36.8,11.5
	c7.9,13.5,4.3,30.5-8.1,37.6l-90.6,52.6C59.1,133.6,42.6,128.4,34.7,114.9L34.7,114.9z"/>
<path fill="#FFFFFF" stroke="#000000" d="M42.7,77.1"/>
<path fill="none" stroke="#000000" stroke-linejoin="round" stroke-miterlimit="10" d="M34.7,114.9c-7.9-13.7-4.3-30.5,8.1-37.8
	l90.6-52.5c12.4-7.3,28.8-2,36.8,11.5c7.9,13.5,4.3,30.5-8.1,37.6l-90.6,52.6C59.1,133.6,42.6,128.4,34.7,114.9L34.7,114.9z"/>
<path fill="none" stroke="#000000" stroke-linejoin="round" stroke-miterlimit="10" d="M42.7,77.1c12.4-7.2,28.8-2,36.8,11.6
	c7.9,13.5,4.3,30.5-8.1,37.7"/>
<polygon fill="none" stroke="#000000" stroke-linecap="round" stroke-miterlimit="10" points="21.6,73.5 37.8,130.7 77.2,130.7 
	94.4,73.5 "/>
<line fill="none" stroke="#000000" stroke-linejoin="round" stroke-miterlimit="10" x1="21.6" y1="73.5" x2="112.6" y2="16.8"/>
<line fill="none" stroke="#000000" stroke-linejoin="round" stroke-miterlimit="10" x1="94.4" y1="73.5" x2="201.2" y2="16.8"/>
<line fill="none" stroke="#000000" stroke-linejoin="round" stroke-miterlimit="10" x1="77" y1="130.7" x2="181.7" y2="87.3"/>
<line fill="none" stroke="#000000" stroke-linejoin="round" stroke-miterlimit="10" x1="112.6" y1="16.8" x2="202.3" y2="16.8"/>
<line fill="none" stroke="#000000" stroke-linejoin="round" stroke-miterlimit="10" x1="201.2" y1="16.9" x2="181.7" y2="87.6"/>
<g>
	<g>
		<g>
			<g>
				<text transform="matrix(1.0005 0 0 1 204.2368 118.4399)" font-family="'ArialMT'" font-size="11">Contact surface</text>
			</g>
		</g>
	</g>
</g>
<g>
	<g>
		<g>
			<g>
				<text transform="matrix(1.0005 0 0 1 234.5708 33.106)" font-family="'ArialMT'" font-size="11">Actual beam</text>
			</g>
		</g>
	</g>
</g>
<g>
	<g>
		<polygon fill="#FFFFFF" points="151.4,88.5 143.4,85.8 149,92.1 		"/>
	</g>
	<g>
		<polyline fill="none" stroke="#000000" stroke-linecap="round" stroke-miterlimit="10" points="200.2,114.4 186.9,114.4 
			148.9,89.4 		"/>
		<polygon points="151.4,88.5 143.4,85.8 149,92.1 		"/>
	</g>
</g>
<g>
	<g>
		<polygon fill="#FFFFFF" points="199.3,40.2 193.7,46.5 201.7,43.8 		"/>
	</g>
	<g>
		<polyline fill="none" stroke="#000000" stroke-miterlimit="10" points="230,29.1 219.9,29.1 199.2,42.8 		"/>
		<polygon points="199.3,40.2 193.7,46.5 201.7,43.8 		"/>
	</g>
</g>
<line fill="none" stroke="#000000" stroke-miterlimit="10" stroke-dasharray="36,5.76,3.6,5.76" x1="0.2" y1="133.1" x2="246.6" y2="0.4"/>
<line fill="none" stroke="#000000" x1="58.8" y1="105.3" x2="55.4" y2="100.4"/>
</svg>
