<?xml version="1.0" encoding="utf-8"?>
<!-- Generator: Adobe Illustrator 17.1.0, SVG Export Plug-In . SVG Version: 6.00 Build 0)  -->

<svg version="1.1" id="Layer_1" xmlns="http://www.w3.org/2000/svg" xmlns:xlink="http://www.w3.org/1999/xlink" x="0px" y="0px"
	 width="415.2px" height="205.6px" viewBox="0 0.1 415.2 205.6" enable-background="new 0 0.1 415.2 205.6" xml:space="preserve">
<g>
	<g>
		<g>
			<g>
				<text transform="matrix(1.0014 0 0 1 359.6982 138.4038)" font-family="'ArialMT'" font-size="11">M</text>
			</g>
		</g>
	</g>
</g>
<path fill="none" stroke="#000000" d="M117.7,133.9c13.9,9.7,36,18,52.5,21.4c17.3,3.5,35.3,5.7,53,6.4c9.9,0.4,24.7-0.3,34-4"/>
<g>
	<g>
		<g>
			<g>
				<text transform="matrix(1.0014 0 0 1 197.3364 71.6455)" font-family="'ArialMT'" font-size="11">O</text>
			</g>
		</g>
	</g>
</g>
<g>
	<g>
		<g>
			<g>
				<text transform="matrix(1.0014 0 0 1 241.5293 72.125)" font-family="'ArialMT'" font-size="11">K</text>
			</g>
		</g>
	</g>
</g>
<g>
	<g>
		<g>
			<g>
				<text transform="matrix(1.0014 0 0 1 247.7744 121.2935)" font-family="'ArialMT'" font-size="11">N</text>
			</g>
		</g>
	</g>
</g>
<g>
	<g>
		<g>
			<g>
				<text transform="matrix(1.0014 0 0 1 258.1016 166.8647)" font-family="'ArialMT'" font-size="11">J</text>
			</g>
		</g>
	</g>
</g>
<g>
	<g>
		<g>
			<g>
				<text transform="matrix(1.0014 0 0 1 182.2051 152.4741)" font-family="'ArialMT'" font-size="11">M</text>
			</g>
		</g>
	</g>
</g>
<g>
	<g>
		<g>
			<g>
				<text transform="matrix(1.0014 0 0 1 131.5664 98.9878)" font-family="'ArialMT'" font-size="11">P</text>
			</g>
		</g>
	</g>
</g>
<g>
	<g>
		<g>
			<g>
				<text transform="matrix(1.0014 0 0 1 150.021 58.2139)" font-family="'ArialMT'" font-size="11">L</text>
			</g>
		</g>
	</g>
</g>
<g>
	<g>
		<g>
			<g>
				<text transform="matrix(1.0014 0 0 1 109.6709 145.5181)" font-family="'ArialMT'" font-size="11">I</text>
			</g>
		</g>
	</g>
</g>
<g>
	<g>
		<g>
			<g>
				<text transform="matrix(1.0014 0 0 1 320.5488 126.5708)" font-family="'ArialMT'" font-size="11">I</text>
			</g>
		</g>
	</g>
</g>
<g>
	<g>
		<g>
			<g>
				<text transform="matrix(1.0014 0 0 1 405.5723 134.0054)" font-family="'ArialMT'" font-size="11">J</text>
			</g>
		</g>
	</g>
</g>
<g>
	<g>
		<g>
			<g>
				<g>
					<text transform="matrix(1.0014 0 0 1 362.3398 61.8115)" font-family="'ArialMT'" font-size="11">K,</text>
				</g>
			</g>
		</g>
	</g>
	<g>
		<g>
			<g>
				<g>
					<text transform="matrix(1.0014 0 0 1 372.8359 61.8115)" font-family="'ArialMT'" font-size="11">L</text>
				</g>
			</g>
		</g>
	</g>
	<g>
		<g>
			<g>
				<g>
					<text transform="matrix(1.0014 0 0 1 378.8623 61.8115)" font-family="'ArialMT'" font-size="11">,</text>
				</g>
			</g>
		</g>
	</g>
	<g>
		<g>
			<g>
				<g>
					<text transform="matrix(1.0014 0 0 1 382.0107 61.8115)" font-family="'ArialMT'" font-size="11">O</text>
				</g>
			</g>
		</g>
	</g>
</g>
<g>
	<g>
		<g>
			<g>
				<text transform="matrix(1.0014 0 0 1 353.6934 102.3462)" font-family="'ArialMT'" font-size="11">P</text>
			</g>
		</g>
	</g>
</g>
<g>
	<g>
		<g>
			<g>
				<text transform="matrix(1.0014 0 0 1 381.0742 102.3462)" font-family="'ArialMT'" font-size="11">N</text>
			</g>
		</g>
	</g>
</g>
<g>
	<g>
		<g>
			<g>
				<g>
					<text transform="matrix(1.0014 0 0 1 330.1563 152.9536)" font-family="'ArialMT'" font-size="11">T</text>
				</g>
			</g>
		</g>
	</g>
	<g>
		<g>
			<g>
				<g>
					<text transform="matrix(1.0014 0 0 1 336.9727 152.9536)" font-family="'ArialMT'" font-size="11">ri</text>
				</g>
			</g>
		</g>
	</g>
	<g>
		<g>
			<g>
				<g>
					<text transform="matrix(1.0014 0 0 1 343 152.9536)" font-family="'ArialMT'" font-size="11">a</text>
				</g>
			</g>
		</g>
	</g>
	<g>
		<g>
			<g>
				<g>
					<text transform="matrix(1.0014 0 0 1 349.0273 152.9536)" font-family="'ArialMT'" font-size="11">n</text>
				</g>
			</g>
		</g>
	</g>
	<g>
		<g>
			<g>
				<g>
					<text transform="matrix(1.0014 0 0 1 355.3184 152.9536)" font-family="'ArialMT'" font-size="11">g</text>
				</g>
			</g>
		</g>
	</g>
	<g>
		<g>
			<g>
				<g>
					<text transform="matrix(1.0014 0 0 1 361.3457 152.9536)" font-family="'ArialMT'" font-size="11">u</text>
				</g>
			</g>
		</g>
	</g>
	<g>
		<g>
			<g>
				<g>
					<text transform="matrix(1.0014 0 0 1 367.373 152.9536)" font-family="'ArialMT'" font-size="11">l</text>
				</g>
			</g>
		</g>
	</g>
	<g>
		<g>
			<g>
				<g>
					<text transform="matrix(1.0014 0 0 1 369.9961 152.9536)" font-family="'ArialMT'" font-size="11">a</text>
				</g>
			</g>
		</g>
	</g>
	<g>
		<g>
			<g>
				<g>
					<text transform="matrix(1.0014 0 0 1 376.0234 152.9536)" font-family="'ArialMT'" font-size="11">r </text>
				</g>
			</g>
		</g>
	</g>
	<g>
		<g>
			<g>
				<g>
					<text transform="matrix(1.0014 0 0 1 382.5752 152.9536)" font-family="'ArialMT'" font-size="11">O</text>
				</g>
			</g>
		</g>
	</g>
	<g>
		<g>
			<g>
				<g>
					<text transform="matrix(1.0014 0 0 1 391.2314 152.9536)" font-family="'ArialMT'" font-size="11">p</text>
				</g>
			</g>
		</g>
	</g>
	<g>
		<g>
			<g>
				<g>
					<text transform="matrix(1.0014 0 0 1 397.2588 152.9536)" font-family="'ArialMT'" font-size="11">t</text>
				</g>
			</g>
		</g>
	</g>
	<g>
		<g>
			<g>
				<g>
					<text transform="matrix(1.0014 0 0 1 400.4072 152.9536)" font-family="'ArialMT'" font-size="11">i</text>
				</g>
			</g>
		</g>
	</g>
	<g>
		<g>
			<g>
				<g>
					<text transform="matrix(1.0014 0 0 1 402.7666 152.9536)" font-family="'ArialMT'" font-size="11">o</text>
				</g>
			</g>
		</g>
	</g>
	<g>
		<g>
			<g>
				<g>
					<text transform="matrix(1.0014 0 0 1 409.0576 152.9536)" font-family="'ArialMT'" font-size="11">n</text>
				</g>
			</g>
		</g>
	</g>
</g>
<path fill="none" stroke="#000000" d="M250.1,56.3c6.8,25.8,12.3,54,9.4,80.7c-0.8,6.9-1.6,13.7-2.1,20.6"/>
<path fill="none" stroke="#000000" d="M151.2,44.1c30.5,13,66.1,21.5,98.8,12.8"/>
<path fill="none" stroke="#000000" stroke-width="1.1438" d="M118.3,133.1c0.8-8.9,1.9-14.7,4.1-23c2.1-8,4-16.1,6.6-24
	c5.1-15.3,13.8-29.1,22.3-41.7"/>
<g>
	<g>
		<g>
			<g>
				<g>
					<text transform="matrix(1.0014 0 0 1 170.3057 171.3022)" font-family="'ArialMT'" font-size="11">1</text>
				</g>
			</g>
		</g>
	</g>
	<path fill="none" stroke="#000000" d="M167.3,167.6c0-3.4,2.7-6.1,6.1-6.1c3.4,0,6.1,2.7,6.1,6.1c0,3.4-2.7,6.1-6.1,6.1
		C170,173.7,167.3,171,167.3,167.6L167.3,167.6z"/>
</g>
<g>
	<g>
		<g>
			<g>
				<g>
					<text transform="matrix(1.0014 0 0 1 115.7813 71.8354)" font-family="'ArialMT'" font-size="11">4</text>
				</g>
			</g>
		</g>
	</g>
	<path fill="none" stroke="#000000" d="M112.8,68.1c0-3.4,2.7-6.1,6.1-6.1s6.1,2.7,6.1,6.1s-2.7,6.1-6.1,6.1S112.8,71.5,112.8,68.1
		L112.8,68.1z"/>
</g>
<g>
	<g>
		<g>
			<g>
				<g>
					<text transform="matrix(1.0014 0 0 1 270.6377 121.3013)" font-family="'ArialMT'" font-size="11">2</text>
				</g>
			</g>
		</g>
	</g>
	<path fill="none" stroke="#000000" d="M267.6,117.6c0-3.4,2.7-6.1,6.1-6.1s6.1,2.7,6.1,6.1s-2.7,6.1-6.1,6.1
		C270.3,123.7,267.6,121,267.6,117.6L267.6,117.6z"/>
</g>
<g>
	<g>
		<g>
			<g>
				<g>
					<text transform="matrix(1.0014 0 0 1 192.1338 35.4736)" font-family="'ArialMT'" font-size="11">3</text>
				</g>
			</g>
		</g>
	</g>
	<path fill="none" stroke="#000000" d="M189.1,31.8c0-3.4,2.7-6.1,6.1-6.1c3.4,0,6.1,2.7,6.1,6.1s-2.7,6.1-6.1,6.1
		C191.8,37.8,189.1,35.1,189.1,31.8L189.1,31.8z"/>
</g>
<g>
	<g>
		<g>
			<polygon fill="#FFFFFF" points="21.6,178.8 18.7,167.9 15.8,178.8 			"/>
		</g>
		<g>
			<line fill="none" stroke="#000000" stroke-linecap="square" x1="18.7" y1="176.8" x2="18.7" y2="196.8"/>
			<polygon points="21.6,178.8 18.7,167.9 15.8,178.8 			"/>
		</g>
	</g>
	<g>
		<g>
			<g>
				<g>
					<text transform="matrix(1.0014 0 0 1 52.832 201.3325)" font-family="'ArialMT'" font-size="11">X (or radial)</text>
				</g>
			</g>
		</g>
	</g>
	<g>
		<g>
			<g>
				<g>
					<g>
						<text transform="matrix(1.0014 0 0 1 0 151.4321)" enable-background="new    "><tspan x="0" y="0" font-family="'ArialMT'" font-size="11">    </tspan><tspan x="12.2" y="0" font-family="'ArialMT'" font-size="11"> Y</tspan></text>
					</g>
				</g>
			</g>
		</g>
		<g>
			<g>
				<g>
					<g>
						<text transform="matrix(1.0014 0 0 1 0 164.4321)" font-family="'ArialMT'" font-size="11">(or axial)</text>
					</g>
				</g>
			</g>
		</g>
	</g>
	<g>
		<g>
			<polygon fill="#FFFFFF" points="37.6,199.6 48.4,196.7 37.6,193.8 			"/>
		</g>
		<g>
			<line fill="none" stroke="#000000" stroke-linecap="square" x1="39.6" y1="196.8" x2="18.7" y2="196.8"/>
			<polygon points="37.6,199.6 48.4,196.7 37.6,193.8 			"/>
		</g>
	</g>
</g>
<path d="M257.5,117.1c0-1.6,1.3-2.9,2.9-2.9s2.9,1.3,2.9,2.9s-1.3,2.9-2.9,2.9C258.8,119.9,257.5,118.7,257.5,117.1L257.5,117.1z"/>
<path d="M253.9,157.4c0-1.6,1.3-2.9,2.9-2.9c1.6,0,2.9,1.3,2.9,2.9c0,1.6-1.3,2.9-2.9,2.9C255.2,160.3,253.9,159,253.9,157.4
	L253.9,157.4z"/>
<path d="M182.4,157.9c0-1.6,1.3-2.9,2.9-2.9c1.6,0,2.9,1.3,2.9,2.9c0,1.6-1.3,2.9-2.9,2.9C183.7,160.8,182.4,159.5,182.4,157.9
	L182.4,157.9z"/>
<path d="M114.4,134.4c0-1.6,1.3-2.9,2.9-2.9s2.9,1.3,2.9,2.9c0,1.6-1.3,2.9-2.9,2.9C115.7,137.3,114.4,136,114.4,134.4L114.4,134.4z
	"/>
<path d="M124.7,91.5c0-1.6,1.3-2.9,2.9-2.9s2.9,1.3,2.9,2.9s-1.3,2.9-2.9,2.9S124.7,93.1,124.7,91.5L124.7,91.5z"/>
<path d="M196.4,58.6c0-1.6,1.3-2.9,2.9-2.9c1.6,0,2.9,1.3,2.9,2.9c0,1.6-1.3,2.9-2.9,2.9S196.4,60.2,196.4,58.6L196.4,58.6z"/>
<path d="M247.5,57.2c0-1.6,1.3-2.9,2.9-2.9c1.6,0,2.9,1.3,2.9,2.9c0,1.6-1.3,2.9-2.9,2.9C248.8,60.1,247.5,58.8,247.5,57.2
	L247.5,57.2z"/>
<path d="M148.8,44.8c0-1.6,1.3-2.9,2.9-2.9c1.6,0,2.9,1.3,2.9,2.9c0,1.6-1.3,2.9-2.9,2.9S148.8,46.4,148.8,44.8L148.8,44.8z"/>
<polyline fill="none" stroke="#000000" points="329.2,122.2 334.2,112.4 338.3,105.6 341.7,100.7 346.3,94.9 352,87.8 357.2,82.9 
	364.9,75.9 370.2,72 375,68.6 "/>
<polyline fill="none" stroke="#000000" points="404.4,125.7 401.2,117.2 398,109.7 395.9,104.3 393,97.9 389.5,90.2 386.2,84.8 
	381.4,77.1 378,72.8 375,69.1 "/>
<path fill="none" stroke="#000000" d="M404.4,125.7c-10,0.8-20.1,1.1-30.1,0.3c-4.6-0.4-9.3,0-13.9-0.3c-5.2-0.3-10.3-1.2-15.5-1.5
	c-5.4-0.4-10.8-1.7-16.2-2.3"/>
<path d="M326.5,122.1c0-1.6,1.3-2.9,2.9-2.9s2.9,1.3,2.9,2.9s-1.3,2.9-2.9,2.9C327.8,124.9,326.5,123.7,326.5,122.1L326.5,122.1z"/>
<path d="M342.5,96.1c0-1.6,1.3-2.9,2.9-2.9s2.9,1.3,2.9,2.9S347,99,345.4,99C343.8,98.9,342.5,97.7,342.5,96.1L342.5,96.1z"/>
<path d="M390.5,98.1c0-1.6,1.3-2.9,2.9-2.9s2.9,1.3,2.9,2.9s-1.3,2.9-2.9,2.9C391.8,100.9,390.5,99.7,390.5,98.1L390.5,98.1z"/>
<path d="M361.5,126.1c0-1.6,1.3-2.9,2.9-2.9s2.9,1.3,2.9,2.9s-1.3,2.9-2.9,2.9C362.8,128.9,361.5,127.7,361.5,126.1L361.5,126.1z"/>
<path d="M401.5,125.1c0-1.6,1.3-2.9,2.9-2.9s2.9,1.3,2.9,2.9s-1.3,2.9-2.9,2.9C402.8,127.9,401.5,126.7,401.5,125.1L401.5,125.1z"/>
<path d="M371.3,68.9c0-1.6,1.3-2.9,2.9-2.9s2.9,1.3,2.9,2.9s-1.3,2.9-2.9,2.9C372.6,71.8,371.3,70.5,371.3,68.9L371.3,68.9z"/>
<path fill="none" stroke="#000000" d="M117.3,134.4c0-14.5-11.2-27.7-29.2-37.2l1.6-8.2l4.4-14l4.7-10l5.3-12.7l6-14l10.7-10.7v-6.7
	l3.7-3.7l1.4-4.3c15.8,8.8,25.2,19.6,25.2,31.3"/>
<path fill="none" stroke="#000000" d="M126,12.7"/>
<path fill="none" stroke="#000000" d="M126,12.7l10.1,1.1h4.7h4.7l6.7-4.5h6.7h6.7h8.7h9.3h10.2l5.8-5.8l3.5-2.5l6-0.4
	c25.1,15.7,40.2,35.7,41.1,56.2"/>
<g>
	<g>
		<polygon fill="#FFFFFF" points="120.6,116.6 117.7,105.8 114.8,116.7 		"/>
	</g>
	<g>
		<line fill="none" stroke="#000000" stroke-linecap="square" x1="117.8" y1="114.7" x2="117.8" y2="134.5"/>
		<polygon points="120.6,116.6 117.7,105.8 114.8,116.7 		"/>
	</g>
</g>
<g>
	<g>
		<polygon fill="#FFFFFF" points="136.4,138.3 147.4,135.9 136.7,132.5 		"/>
	</g>
	<g>
		<line fill="none" stroke="#000000" stroke-linecap="square" x1="138.5" y1="135.5" x2="117.8" y2="134.5"/>
		<polygon points="136.4,138.3 147.4,135.9 136.7,132.5 		"/>
	</g>
</g>
<g>
	<g>
		<g>
			<g>
				<text transform="matrix(1.0014 0 0 1 115.4463 101.8101)" font-family="'ArialMT'" font-size="11">y</text>
			</g>
		</g>
	</g>
</g>
<g>
	<g>
		<g>
			<g>
				<text transform="matrix(1.0014 0 0 1 148.9463 137.8101)" font-family="'ArialMT'" font-size="11">x</text>
			</g>
		</g>
	</g>
</g>
<g>
	<g>
		<g>
			<g>
				<g>
					<text transform="matrix(1.0014 0 0 1 158.9595 189.1323)" font-family="'ArialMT'" font-size="11">Element coordinate system </text>
				</g>
			</g>
		</g>
	</g>
	<g>
		<g>
			<g>
				<g>
					<text transform="matrix(1.0014 0 0 1 158.9595 202.1323)" font-family="'ArialMT'" font-size="11">(shown for KEYOPT(1) = 0)</text>
				</g>
			</g>
		</g>
	</g>
</g>
<g>
	<g>
		<polygon fill="#FFFFFF" points="143.3,147.8 138.4,137.7 137.6,148.9 		"/>
	</g>
	<g>
		<polyline fill="none" stroke="#000000" points="155.5,185.1 147.5,185.1 140.1,146.4 		"/>
		<polygon points="143.3,147.8 138.4,137.7 137.6,148.9 		"/>
	</g>
</g>
</svg>
