<?xml version="1.0" encoding="utf-8"?>
<!-- Generator: Adobe Illustrator 17.1.0, SVG Export Plug-In . SVG Version: 6.00 Build 0)  -->

<svg version="1.1" id="Layer_1" xmlns="http://www.w3.org/2000/svg" xmlns:xlink="http://www.w3.org/1999/xlink" x="0px" y="0px"
	 width="445.8px" height="243.2px" viewBox="0 1.6 445.8 243.2" enable-background="new 0 1.6 445.8 243.2" xml:space="preserve">
<g>
	<g>
		<g>
			<g>
				<text transform="matrix(1.0013 0 0 1 0 11)" enable-background="new    "><tspan x="0" y="0" font-family="'ArialMT'" font-size="11">V</tspan><tspan x="6.5" y="0" font-family="'ArialMT'" font-size="11">alid orientations for UX,VO</tspan><tspan x="136.7" y="0" font-family="'ArialMT'" font-size="11">L</tspan><tspan x="142" y="0" font-family="'ArialMT'" font-size="11">T</tspan><tspan x="148.6" y="0" font-family="'ArialMT'" font-size="11"> DOF set:</tspan></text>
			</g>
		</g>
	</g>
</g>
<g>
	<g>
		<g>
			<g>
				<text transform="matrix(1.0013 0 0 1 0.48 156.3457)" enable-background="new    "><tspan x="0" y="0" font-family="'ArialMT'" font-size="11">Invalid orientations for UX,VO</tspan><tspan x="144.9" y="0" font-family="'ArialMT'" font-size="11">L</tspan><tspan x="150.2" y="0" font-family="'ArialMT'" font-size="11">T</tspan><tspan x="156.7" y="0" font-family="'ArialMT'" font-size="11"> DOF set:</tspan></text>
			</g>
		</g>
	</g>
</g>
<g>
	<g>
		<polygon fill="#FFFFFF" points="199.8,80.2 207.9,78.1 199.8,75.9 		"/>
	</g>
	<g>
		<line fill="none" stroke="#000000" x1="174.6" y1="78.1" x2="201.2" y2="78.1"/>
		<polygon points="199.8,80.2 207.9,78.1 199.8,75.9 		"/>
	</g>
</g>
<line fill="none" stroke="#000000" x1="86.9" y1="78.1" x2="159.9" y2="78.1"/>
<line fill="none" stroke="#000000" x1="24.2" y1="78.1" x2="78.3" y2="78.1"/>
<line fill="none" stroke="#000000" x1="78.3" y1="59.4" x2="78.3" y2="102.8"/>
<line fill="none" stroke="#000000" x1="86.9" y1="59.4" x2="86.9" y2="102.8"/>
<g>
	<g>
		<polygon fill="#FFFFFF" points="24.2,44.9 22.1,36.8 19.9,44.9 		"/>
	</g>
	<g>
		<line fill="none" stroke="#000000" x1="22.1" y1="69.4" x2="22.1" y2="43.4"/>
		<polygon points="24.2,44.9 22.1,36.8 19.9,44.9 		"/>
	</g>
</g>
<g>
	<polygon fill="none" stroke="#000000" stroke-width="0.9809" points="28.4,94.5 28.5,93.9 22,80.9 14,94.5 	"/>
	<line fill="none" stroke="#000000" stroke-width="0.9809" x1="19.3" y1="94.6" x2="17.3" y2="99.1"/>
	<line fill="none" stroke="#000000" stroke-width="0.9809" x1="22.8" y1="94.6" x2="20.8" y2="99.1"/>
	<line fill="none" stroke="#000000" stroke-width="0.9809" x1="15.8" y1="94.6" x2="13.8" y2="99.1"/>
	<line fill="none" stroke="#000000" stroke-width="0.9809" x1="26.3" y1="94.6" x2="24.3" y2="99.1"/>
</g>
<g>
	<path fill="#FFFFFF" d="M156.8,94.2c0-1.1,0.9-1.9,1.9-1.9c1.1,0,1.9,0.9,1.9,1.9c0,1.1-0.9,1.9-1.9,1.9
		C157.6,96.1,156.8,95.3,156.8,94.2L156.8,94.2z"/>
	<path fill="#FFFFFF" d="M162.8,94.2c0-1.1,0.8-1.9,1.8-1.9s1.8,0.9,1.8,1.9c0,1.1-0.8,1.9-1.8,1.9S162.8,95.3,162.8,94.2
		L162.8,94.2z"/>
	<polygon fill="none" stroke="#000000" points="168.8,95.9 168.9,95.2 162.4,82.2 154.5,95.9 	"/>
	<path fill="none" stroke="#000000" d="M156.8,98.4c0-1.2,1-2.2,2.2-2.2s2.2,1,2.2,2.2s-1,2.2-2.2,2.2S156.8,99.6,156.8,98.4
		L156.8,98.4z"/>
	<path fill="none" stroke="#000000" d="M162.8,98.4c0-1.2,1-2.2,2.2-2.2s2.2,1,2.2,2.2s-1,2.2-2.2,2.2S162.8,99.6,162.8,98.4
		L162.8,98.4z"/>
</g>
<g>
	<g>
		<g>
			<g>
				<text transform="matrix(1.0013 0 0 1 20.0825 31.4189)" font-family="'ArialMT'" font-size="11">y</text>
			</g>
		</g>
	</g>
</g>
<g>
	<g>
		<g>
			<g>
				<text transform="matrix(1.0013 0 0 1 209.5825 80.9189)" font-family="'ArialMT'" font-size="11">x</text>
			</g>
		</g>
	</g>
</g>
<g>
	<g>
		<g>
			<g>
				<text transform="matrix(1.0013 0 0 1 25.0825 73.9189)" font-family="'ArialMT'" font-size="11">I</text>
			</g>
		</g>
	</g>
</g>
<g>
	<g>
		<g>
			<g>
				<text transform="matrix(1.0013 0 0 1 171.5825 73.9189)" font-family="'ArialMT'" font-size="11">J</text>
			</g>
		</g>
	</g>
</g>
<g>
	<g>
		<polygon fill="#FFFFFF" points="429.8,78.6 437.9,76.4 429.8,74.2 		"/>
	</g>
	<g>
		<line fill="none" stroke="#000000" x1="404.6" y1="76.4" x2="431.3" y2="76.4"/>
		<polygon points="429.8,78.6 437.9,76.4 429.8,74.2 		"/>
	</g>
</g>
<line fill="none" stroke="#000000" x1="316.9" y1="76.4" x2="389.9" y2="76.4"/>
<line fill="none" stroke="#000000" x1="254.3" y1="76.4" x2="308.3" y2="76.4"/>
<line fill="none" stroke="#000000" x1="308.3" y1="57.8" x2="308.3" y2="101.1"/>
<line fill="none" stroke="#000000" x1="316.9" y1="57.8" x2="316.9" y2="101.1"/>
<g>
	<g>
		<polygon fill="#FFFFFF" points="253.3,43.2 251.1,35.1 248.9,43.2 		"/>
	</g>
	<g>
		<line fill="none" stroke="#000000" x1="251.1" y1="67.8" x2="251.1" y2="41.8"/>
		<polygon points="253.3,43.2 251.1,35.1 248.9,43.2 		"/>
	</g>
</g>
<g>
	<polygon fill="none" stroke="#000000" stroke-width="0.9809" points="400.4,93.9 400.5,93.2 394,80.2 386.1,93.8 	"/>
	<line fill="none" stroke="#000000" stroke-width="0.9809" x1="391.4" y1="93.9" x2="389.4" y2="98.4"/>
	<line fill="none" stroke="#000000" stroke-width="0.9809" x1="394.9" y1="93.9" x2="392.9" y2="98.4"/>
	<line fill="none" stroke="#000000" stroke-width="0.9809" x1="387.9" y1="93.9" x2="385.9" y2="98.4"/>
	<line fill="none" stroke="#000000" stroke-width="0.9809" x1="398.4" y1="93.9" x2="396.4" y2="98.4"/>
</g>
<g>
	<polygon fill="none" stroke="#000000" points="256.9,94.2 257,93.6 250.4,80.6 242.5,94.2 	"/>
	<path fill="none" stroke="#000000" d="M244.8,96.7c0-1.2,1-2.2,2.2-2.2s2.2,1,2.2,2.2s-1,2.2-2.2,2.2
		C245.8,98.9,244.8,97.9,244.8,96.7L244.8,96.7z"/>
	<path fill="none" stroke="#000000" d="M250.8,96.7c0-1.2,1-2.2,2.2-2.2s2.2,1,2.2,2.2s-1,2.2-2.2,2.2
		C251.8,98.9,250.8,97.9,250.8,96.7L250.8,96.7z"/>
</g>
<g>
	<g>
		<g>
			<g>
				<text transform="matrix(1.0013 0 0 1 249.106 29.752)" font-family="'ArialMT'" font-size="11">y</text>
			</g>
		</g>
	</g>
</g>
<g>
	<g>
		<g>
			<g>
				<text transform="matrix(1.0013 0 0 1 439.6064 79.252)" font-family="'ArialMT'" font-size="11">x</text>
			</g>
		</g>
	</g>
</g>
<g>
	<g>
		<g>
			<g>
				<text transform="matrix(1.0013 0 0 1 255.106 72.252)" font-family="'ArialMT'" font-size="11">I</text>
			</g>
		</g>
	</g>
</g>
<g>
	<g>
		<g>
			<g>
				<text transform="matrix(1.0013 0 0 1 401.6064 72.252)" font-family="'ArialMT'" font-size="11">J</text>
			</g>
		</g>
	</g>
</g>
<g>
	<g>
		<polygon fill="#FFFFFF" points="199.1,222.2 207.3,220.1 199.1,217.9 		"/>
	</g>
	<g>
		<line fill="none" stroke="#000000" x1="173.9" y1="220.1" x2="200.6" y2="220.1"/>
		<polygon points="199.1,222.2 207.3,220.1 199.1,217.9 		"/>
	</g>
</g>
<line fill="none" stroke="#000000" x1="86.3" y1="220.1" x2="159.3" y2="220.1"/>
<line fill="none" stroke="#000000" x1="23.6" y1="220.1" x2="77.6" y2="220.1"/>
<line fill="none" stroke="#000000" x1="77.6" y1="201.4" x2="77.6" y2="244.8"/>
<line fill="none" stroke="#000000" x1="86.3" y1="201.4" x2="86.3" y2="244.8"/>
<g>
	<g>
		<polygon fill="#FFFFFF" points="23.6,186.9 21.4,178.8 19.2,186.9 		"/>
	</g>
	<g>
		<line fill="none" stroke="#000000" x1="21.4" y1="211.4" x2="21.4" y2="185.4"/>
		<polygon points="23.6,186.9 21.4,178.8 19.2,186.9 		"/>
	</g>
</g>
<g>
	<polygon fill="none" stroke="#000000" stroke-width="0.9809" points="168.8,237.5 168.9,236.9 162.3,223.9 154.4,237.5 	"/>
	<line fill="none" stroke="#000000" stroke-width="0.9809" x1="159.7" y1="237.6" x2="157.7" y2="242.1"/>
	<line fill="none" stroke="#000000" stroke-width="0.9809" x1="163.2" y1="237.6" x2="161.2" y2="242.1"/>
	<line fill="none" stroke="#000000" stroke-width="0.9809" x1="156.2" y1="237.6" x2="154.2" y2="242.1"/>
	<line fill="none" stroke="#000000" stroke-width="0.9809" x1="166.7" y1="237.6" x2="164.7" y2="242.1"/>
</g>
<g>
	<polygon fill="none" stroke="#000000" points="27.2,237.9 27.3,237.2 20.8,224.2 12.8,237.9 	"/>
	<path fill="none" stroke="#000000" d="M15.1,240.4c0-1.2,1-2.2,2.2-2.2s2.2,1,2.2,2.2s-1,2.2-2.2,2.2
		C16.1,242.6,15.1,241.6,15.1,240.4L15.1,240.4z"/>
	<path fill="none" stroke="#000000" d="M21.1,240.4c0-1.2,1-2.2,2.2-2.2s2.2,1,2.2,2.2s-1,2.2-2.2,2.2
		C22.1,242.6,21.1,241.6,21.1,240.4L21.1,240.4z"/>
</g>
<g>
	<g>
		<g>
			<g>
				<text transform="matrix(1.0013 0 0 1 19.4395 173.4189)" font-family="'ArialMT'" font-size="11">y</text>
			</g>
		</g>
	</g>
</g>
<g>
	<g>
		<g>
			<g>
				<text transform="matrix(1.0013 0 0 1 208.9399 222.9189)" font-family="'ArialMT'" font-size="11">x</text>
			</g>
		</g>
	</g>
</g>
<g>
	<g>
		<g>
			<g>
				<text transform="matrix(1.0013 0 0 1 24.4395 215.9189)" font-family="'ArialMT'" font-size="11">J</text>
			</g>
		</g>
	</g>
</g>
<g>
	<g>
		<g>
			<g>
				<text transform="matrix(1.0013 0 0 1 170.9399 215.9189)" font-family="'ArialMT'" font-size="11">I</text>
			</g>
		</g>
	</g>
</g>
<g>
	<g>
		<polygon fill="#FFFFFF" points="430.4,221.6 438.6,219.4 430.4,217.2 		"/>
	</g>
	<g>
		<line fill="none" stroke="#000000" x1="405.2" y1="219.4" x2="431.9" y2="219.4"/>
		<polygon points="430.4,221.6 438.6,219.4 430.4,217.2 		"/>
	</g>
</g>
<line fill="none" stroke="#000000" x1="317.6" y1="219.4" x2="390.6" y2="219.4"/>
<line fill="none" stroke="#000000" x1="254.9" y1="219.4" x2="308.9" y2="219.4"/>
<line fill="none" stroke="#000000" x1="308.9" y1="200.8" x2="308.9" y2="244.1"/>
<line fill="none" stroke="#000000" x1="317.6" y1="200.8" x2="317.6" y2="244.1"/>
<g>
	<g>
		<polygon fill="#FFFFFF" points="253.9,186.2 251.7,178.1 249.5,186.2 		"/>
	</g>
	<g>
		<line fill="none" stroke="#000000" x1="251.7" y1="210.8" x2="251.7" y2="184.8"/>
		<polygon points="253.9,186.2 251.7,178.1 249.5,186.2 		"/>
	</g>
</g>
<g>
	<polygon fill="none" stroke="#000000" stroke-width="0.9809" points="257.1,236.9 257.2,236.2 250.6,223.2 242.7,236.8 	"/>
	<line fill="none" stroke="#000000" stroke-width="0.9809" x1="248" y1="236.9" x2="246" y2="241.4"/>
	<line fill="none" stroke="#000000" stroke-width="0.9809" x1="251.5" y1="236.9" x2="249.5" y2="241.4"/>
	<line fill="none" stroke="#000000" stroke-width="0.9809" x1="244.5" y1="236.9" x2="242.5" y2="241.4"/>
	<line fill="none" stroke="#000000" stroke-width="0.9809" x1="255" y1="236.9" x2="253" y2="241.4"/>
</g>
<g>
	<path fill="#FFFFFF" d="M388.4,235.6c0-1.1,0.9-1.9,1.9-1.9c1.1,0,1.9,0.9,1.9,1.9c0,1.1-0.9,1.9-1.9,1.9S388.4,236.6,388.4,235.6
		L388.4,235.6z"/>
	<path fill="#FFFFFF" d="M394.4,235.6c0-1.1,0.8-1.9,1.8-1.9s1.8,0.9,1.8,1.9c0,1.1-0.8,1.9-1.8,1.9
		C395.2,237.5,394.4,236.6,394.4,235.6L394.4,235.6z"/>
	<polygon fill="none" stroke="#000000" points="400.5,237.2 400.6,236.6 394.1,223.5 386.1,237.2 	"/>
	<path fill="none" stroke="#000000" d="M388.4,239.7c0-1.2,1-2.2,2.2-2.2s2.2,1,2.2,2.2s-1,2.2-2.2,2.2S388.4,240.9,388.4,239.7
		L388.4,239.7z"/>
	<path fill="none" stroke="#000000" d="M394.4,239.7c0-1.2,1-2.2,2.2-2.2s2.2,1,2.2,2.2s-1,2.2-2.2,2.2S394.4,240.9,394.4,239.7
		L394.4,239.7z"/>
</g>
<g>
	<g>
		<g>
			<g>
				<text transform="matrix(1.0013 0 0 1 249.7495 172.752)" font-family="'ArialMT'" font-size="11">y</text>
			</g>
		</g>
	</g>
</g>
<g>
	<g>
		<g>
			<g>
				<text transform="matrix(1.0013 0 0 1 440.249 222.252)" font-family="'ArialMT'" font-size="11">x</text>
			</g>
		</g>
	</g>
</g>
<g>
	<g>
		<g>
			<g>
				<text transform="matrix(1.0013 0 0 1 255.7495 215.252)" font-family="'ArialMT'" font-size="11">J</text>
			</g>
		</g>
	</g>
</g>
<g>
	<g>
		<g>
			<g>
				<text transform="matrix(1.0013 0 0 1 402.249 215.252)" font-family="'ArialMT'" font-size="11">I</text>
			</g>
		</g>
	</g>
</g>
<path d="M18.9,76.8c0.3-1.6,1.8-2.6,3.4-2.3c1.6,0.3,2.6,1.8,2.3,3.4c-0.3,1.6-1.8,2.6-3.4,2.3C19.6,79.9,18.6,78.4,18.9,76.8
	L18.9,76.8z"/>
<path d="M159.9,77.8c0.3-1.6,1.8-2.6,3.4-2.3c1.6,0.3,2.6,1.8,2.3,3.4s-1.8,2.6-3.4,2.3C160.6,80.9,159.6,79.4,159.9,77.8
	L159.9,77.8z"/>
<path d="M247.9,75.8c0.3-1.6,1.8-2.6,3.4-2.3c1.6,0.3,2.6,1.8,2.3,3.4s-1.8,2.6-3.4,2.3C248.6,78.9,247.6,77.4,247.9,75.8
	L247.9,75.8z"/>
<path d="M390.9,75.8c0.3-1.6,1.8-2.6,3.4-2.3c1.6,0.3,2.6,1.8,2.3,3.4c-0.3,1.6-1.8,2.6-3.4,2.3C391.6,78.9,390.6,77.4,390.9,75.8
	L390.9,75.8z"/>
<path d="M247.9,218.8c0.3-1.6,1.8-2.6,3.4-2.3c1.6,0.3,2.6,1.8,2.3,3.4c-0.3,1.6-1.8,2.6-3.4,2.3S247.6,220.4,247.9,218.8
	L247.9,218.8z"/>
<path d="M390.9,218.8c0.3-1.6,1.8-2.6,3.4-2.3s2.6,1.8,2.3,3.4c-0.3,1.6-1.8,2.6-3.4,2.3C391.6,221.9,390.6,220.4,390.9,218.8
	L390.9,218.8z"/>
<path d="M158.9,219.8c0.3-1.6,1.8-2.6,3.4-2.3c1.6,0.3,2.6,1.8,2.3,3.4c-0.3,1.6-1.8,2.6-3.4,2.3S158.6,221.4,158.9,219.8
	L158.9,219.8z"/>
<path d="M17.9,219.8c0.3-1.6,1.8-2.6,3.4-2.3s2.6,1.8,2.3,3.4c-0.3,1.6-1.8,2.6-3.4,2.3C18.6,222.9,17.6,221.4,17.9,219.8
	L17.9,219.8z"/>
</svg>
