<?xml version="1.0" encoding="utf-8"?>
<!-- Generator: Adobe Illustrator 17.1.0, SVG Export Plug-In . SVG Version: 6.00 Build 0)  -->

<svg version="1.1" id="Layer_1" xmlns="http://www.w3.org/2000/svg" xmlns:xlink="http://www.w3.org/1999/xlink" x="0px" y="0px"
	 width="349.3px" height="207.4px" viewBox="0 1.3 349.3 207.4" enable-background="new 0 1.3 349.3 207.4" xml:space="preserve">
<polyline fill="none" stroke="#000000" stroke-width="0.8454" stroke-linecap="square" stroke-miterlimit="10" stroke-dasharray="3.3824,1.6912" points="
	44,162 142.9,92.6 232.5,89.3 "/>
<polygon fill="none" stroke="#000000" stroke-width="0.8454" stroke-linecap="square" stroke-miterlimit="10" points="44,151 
	142.1,80.8 232.5,77.4 166.6,162 "/>
<line fill="none" stroke="#000000" stroke-width="0.8454" stroke-linecap="square" stroke-miterlimit="10" x1="147.1" y1="123.9" x2="137.8" y2="96"/>
<polygon points="137.8,96 137.8,96 142.1,102.8 137.8,104.5 137,96.9 "/>
<line fill="none" stroke="#000000" stroke-width="0.8454" stroke-linecap="square" stroke-miterlimit="10" stroke-dasharray="0.8456,1.6912" x1="148" y1="40.2" x2="148" y2="14.9"/>
<polygon points="148,14.9 148,14.9 150.5,22.5 145.4,22.5 147.1,14.9 "/>
<polygon points="234.2,83.3 233.4,82.5 233.4,81.6 233.4,81.6 232.5,81.6 231.7,81.6 230.9,82.5 230.9,84.2 231.7,85 232.5,85 
	233.4,85 233.4,84.2 "/>
<polyline fill="none" stroke="#000000" stroke-width="0.8454" stroke-linecap="square" stroke-miterlimit="10" points="234.2,83.3 
	233.4,82.5 233.4,81.6 233.4,81.6 232.5,81.6 231.7,81.6 230.9,82.5 230.9,84.2 231.7,85 232.5,85 233.4,85 233.4,84.2 234.2,83.3 
	"/>
<polygon points="167.4,167 167.4,166.2 166.6,165.3 165.7,165.3 164.9,165.3 164.9,165.3 164.9,166.2 164,166.2 164,167 164.9,167 
	164.9,167.9 164.9,167.9 165.7,167.9 166.6,167.9 167.4,167 "/>
<polyline fill="none" stroke="#000000" stroke-width="0.8454" stroke-linecap="square" stroke-miterlimit="10" points="167.4,167 
	167.4,166.2 166.6,165.3 165.7,165.3 164.9,165.3 164.9,165.3 164.9,166.2 164,166.2 164,167 164.9,167 164.9,167.9 164.9,167.9 
	165.7,167.9 166.6,167.9 167.4,167 167.4,167 "/>
<polygon points="144.6,86.7 143.8,85.9 142.9,85.9 142.9,85.9 142.9,85 141.2,85.9 141.2,85.9 141.2,86.7 141.2,88.4 142.1,88.4 
	142.9,88.4 143.8,88.4 143.8,87.6 "/>
<polyline fill="none" stroke="#000000" stroke-width="0.8454" stroke-linecap="square" stroke-miterlimit="10" points="144.6,86.7 
	143.8,85.9 142.9,85.9 142.9,85.9 142.9,85 141.2,85.9 141.2,85.9 141.2,86.7 141.2,88.4 142.1,88.4 142.9,88.4 143.8,88.4 
	143.8,87.6 144.6,86.7 "/>
<polygon points="45.7,156 45.7,156 44.8,156 44.8,155.2 44.8,155.2 44,155.2 43.1,155.2 42.3,155.2 42.3,156 42.3,156.9 42.3,157.7 
	43.1,157.7 44,157.7 44.8,157.7 45.7,156.9 "/>
<polyline fill="none" stroke="#000000" stroke-width="0.8454" stroke-linecap="square" stroke-miterlimit="10" points="45.7,156 
	45.7,156 44.8,156 44.8,155.2 44.8,155.2 44,155.2 43.1,155.2 42.3,155.2 42.3,156 42.3,156.9 42.3,157.7 43.1,157.7 44,157.7 
	44.8,157.7 45.7,156.9 45.7,156 "/>
<line fill="none" stroke="#000000" stroke-width="0.8454" stroke-linecap="square" stroke-miterlimit="10" stroke-dasharray="0.8456,1.6912" x1="147.1" y1="123.9" x2="156.4" y2="102.8"/>
<polygon points="156.4,102.8 156.4,102.8 155.6,110.4 151.4,108.7 155.6,102.8 "/>
<g>
	<g>
		<g>
			<g>
				<text transform="matrix(1.0003 0 0 1 153.0552 25.0068)" font-family="'ArialMT'" font-size="9.2993">z</text>
			</g>
		</g>
	</g>
</g>
<g>
	<g>
		<g>
			<g>
				<text transform="matrix(1.0003 0 0 1 157.2837 30.9243)" font-family="'ArialMT'" font-size="9.2993">o</text>
			</g>
		</g>
	</g>
</g>
<g>
	<g>
		<g>
			<g>
				<text transform="matrix(1.0003 0 0 1 151.3638 52.0591)" font-family="'ArialMT'" font-size="9.2993">z</text>
			</g>
		</g>
	</g>
</g>
<g>
	<g>
		<g>
			<g>
				<text transform="matrix(1.0003 0 0 1 158.1294 108.7012)" font-family="'ArialMT'" font-size="9.2993">y</text>
			</g>
		</g>
	</g>
</g>
<g>
	<g>
		<g>
			<g>
				<text transform="matrix(1.0003 0 0 1 162.3569 113.7734)" font-family="'ArialMT'" font-size="9.2993">o</text>
			</g>
		</g>
	</g>
</g>
<g>
	<g>
		<g>
			<g>
				<text transform="matrix(1.0003 0 0 1 134.4517 110.3916)" font-family="'ArialMT'" font-size="9.2993">y</text>
			</g>
		</g>
	</g>
</g>
<g>
	<g>
		<g>
			<g>
				<text transform="matrix(1.0003 0 0 1 171.6587 132.3721)" font-family="'ArialMT'" font-size="9.2993">x</text>
			</g>
		</g>
	</g>
</g>
<g>
	<g>
		<g>
			<g>
				<text transform="matrix(1.0003 0 0 1 176.7319 137.4443)" font-family="'ArialMT'" font-size="9.2993">o</text>
			</g>
		</g>
	</g>
</g>
<g>
	<g>
		<g>
			<g>
				<text transform="matrix(1.0003 0 0 1 180.1147 109.5459)" font-family="'ArialMT'" font-size="9.2993">x</text>
			</g>
		</g>
	</g>
</g>
<g>
	<g>
		<g>
			<g>
				<text transform="matrix(1.0003 0 0 1 135.2974 94.3291)" font-family="'ArialMT'" font-size="9.2993">L</text>
			</g>
		</g>
	</g>
</g>
<g>
	<g>
		<g>
			<g>
				<text transform="matrix(1.0003 0 0 1 236.771 84.1841)" font-family="'ArialMT'" font-size="9.2993">K</text>
			</g>
		</g>
	</g>
</g>
<g>
	<g>
		<g>
			<g>
				<text transform="matrix(1.0003 0 0 1 158.2759 170.3418)" font-family="'ArialMT'" font-size="9.2993">J</text>
			</g>
		</g>
	</g>
</g>
<line fill="none" stroke="#000000" stroke-width="0.8454" stroke-linecap="square" stroke-miterlimit="10" x1="43.1" y1="151" x2="44" y2="162"/>
<line fill="none" stroke="#000000" stroke-width="0.8454" stroke-linecap="square" stroke-miterlimit="10" x1="166.6" y1="162" x2="166.6" y2="173"/>
<line fill="none" stroke="#000000" stroke-width="0.8454" stroke-linecap="square" stroke-miterlimit="10" x1="232.5" y1="77.4" x2="232.5" y2="88.4"/>
<line fill="none" stroke="#000000" stroke-width="0.8454" stroke-linecap="square" stroke-miterlimit="10" x1="142.1" y1="80.8" x2="142.1" y2="93.5"/>
<polyline fill="none" stroke="#000000" stroke-width="0.8454" stroke-linecap="square" stroke-miterlimit="10" points="16.1,151.8 
	16.1,178 40.6,178 "/>
<polygon points="16.1,151.8 16.9,151.8 18.6,159.4 13.5,159.4 "/>
<polygon points="40.6,178 40.6,178.9 33,180.6 33,175.5 "/>
<line fill="none" stroke="#000000" stroke-width="0.8454" stroke-linecap="square" stroke-miterlimit="10" x1="16.1" y1="178" x2="0.8" y2="193.2"/>
<polygon points="0.8,193.2 0,193.2 4.2,186.5 7.6,189.9 "/>
<g>
	<g>
		<g>
			<g>
				<text transform="matrix(1.0003 0 0 1 38.8979 160.2695)" font-family="'ArialMT'" font-size="9.2993">I</text>
			</g>
		</g>
	</g>
</g>
<g>
	<g>
		<g>
			<g>
				<text transform="matrix(1.0003 0 0 1 6.4561 159.4248)" font-family="'ArialMT'" font-size="9.2993">Z</text>
			</g>
		</g>
	</g>
</g>
<g>
	<g>
		<g>
			<g>
				<text transform="matrix(1.0003 0 0 1 33.8242 189.0137)" font-family="'ArialMT'" font-size="9.2993">Y</text>
			</g>
		</g>
	</g>
</g>
<g>
	<g>
		<g>
			<g>
				<text transform="matrix(1.0003 0 0 1 9.3018 196.6221)" font-family="'ArialMT'" font-size="9.2993">X</text>
			</g>
		</g>
	</g>
</g>
<polygon fill="none" stroke="#000000" stroke-width="0.8454" stroke-linecap="square" stroke-miterlimit="10" points="308.6,10.1 
	259.6,59.2 308.6,60 "/>
<g>
	<g>
		<g>
			<g>
				<g>
					<text transform="matrix(1.0003 0 0 1 312.0195 9.2998)" font-family="'ArialMT'" font-size="9.2993">K</text>
				</g>
			</g>
		</g>
	</g>
	<g>
		<g>
			<g>
				<g>
					<text transform="matrix(1.0003 0 0 1 317.0879 9.2998)" font-family="'ArialMT'" font-size="9.2993">,</text>
				</g>
			</g>
		</g>
	</g>
	<g>
		<g>
			<g>
				<g>
					<text transform="matrix(1.0003 0 0 1 319.626 9.2998)" font-family="'ArialMT'" font-size="9.2993">L</text>
				</g>
			</g>
		</g>
	</g>
</g>
<g>
	<g>
		<g>
			<g>
				<text transform="matrix(1.0003 0 0 1 312.0195 65.0957)" font-family="'ArialMT'" font-size="9.2993">J</text>
			</g>
		</g>
	</g>
</g>
<g>
	<g>
		<g>
			<g>
				<text transform="matrix(1.0003 0 0 1 254.5171 61.7139)" font-family="'ArialMT'" font-size="9.2993">I</text>
			</g>
		</g>
	</g>
</g>
<polygon points="260.4,59.2 260.4,59.2 259.6,58.3 259.6,58.3 258.7,57.5 257.9,58.3 257.1,59.2 257.1,60 257.9,60.9 258.7,60.9 
	259.6,60.9 260.4,60 "/>
<polyline fill="none" stroke="#000000" stroke-width="0.8454" stroke-linecap="square" stroke-miterlimit="10" points="260.4,59.2 
	260.4,59.2 259.6,58.3 259.6,58.3 258.7,57.5 257.9,58.3 257.1,59.2 257.1,60 257.9,60.9 258.7,60.9 259.6,60.9 260.4,60 
	260.4,59.2 "/>
<polygon points="310.3,9.5 310.3,8.6 309.5,8.6 309.5,8.6 308.6,7.8 307.8,8.6 306.9,9.5 306.9,10.3 307.8,11.1 308.6,11.1 
	309.5,11.1 310.3,10.3 "/>
<polygon points="310.3,59.2 310.3,58.3 309.5,58.3 309.5,58.3 308.6,57.5 307.8,58.3 306.9,59.2 306.9,60 307.8,60.9 308.6,60.9 
	309.5,60.9 310.3,60 "/>
<polyline fill="none" stroke="#000000" stroke-width="0.8454" stroke-linecap="square" stroke-miterlimit="10" points="310.3,59.2 
	310.3,58.3 309.5,58.3 309.5,58.3 308.6,57.5 307.8,58.3 306.9,59.2 306.9,60 307.8,60.9 308.6,60.9 309.5,60.9 310.3,60 
	310.3,59.2 "/>
<g>
	<g>
		<g>
			<g>
				<text transform="matrix(1.0003 0 0 1 141.0625 196.6221)" font-family="'ArialMT'" font-size="9.2993">1</text>
			</g>
		</g>
	</g>
</g>
<polyline fill="none" stroke="#000000" stroke-width="0.8454" stroke-linecap="square" stroke-miterlimit="10" stroke-dasharray="0.8456,1.6912" points="
	138.7,149.3 143.8,145.9 146.3,147.6 148.8,148.4 153.9,145.1 "/>
<line fill="none" stroke="#000000" stroke-width="0.8454" stroke-linecap="square" stroke-miterlimit="10" x1="144.6" y1="188.2" x2="144.6" y2="169.6"/>
<line fill="none" stroke="#000000" stroke-width="0.8454" stroke-linecap="square" stroke-miterlimit="10" x1="144.6" y1="167" x2="144.6" y2="162"/>
<line fill="none" stroke="#000000" stroke-width="0.8454" stroke-linecap="square" stroke-miterlimit="10" x1="144.6" y1="156" x2="144.6" y2="146.7"/>
<polygon points="144.6,146.7 144.6,146.7 147.1,154.4 142.1,154.4 143.8,146.7 "/>
<polyline fill="none" stroke="#000000" stroke-width="0.8454" stroke-linecap="square" stroke-miterlimit="10" points="44,162 
	166.6,173 232.5,88.4 "/>
<g>
	<g>
		<g>
			<g>
				<text transform="matrix(1.0003 0 0 1 73.4136 194.0859)" font-family="'ArialMT'" font-size="9.2993">3</text>
			</g>
		</g>
	</g>
</g>
<line fill="none" stroke="#000000" stroke-width="0.8454" stroke-linecap="square" stroke-miterlimit="10" x1="81.2" y1="189.9" x2="107.4" y2="164.5"/>
<polygon points="107.4,164.5 107.4,164.5 103.2,171.3 99.8,167.9 106.5,163.7 "/>
<g>
	<g>
		<g>
			<g>
				<text transform="matrix(1.0003 0 0 1 50.4277 119.6904)" font-family="'ArialMT'" font-size="9.2993">6</text>
			</g>
		</g>
	</g>
</g>
<line fill="none" stroke="#000000" stroke-width="0.8454" stroke-linecap="square" stroke-miterlimit="10" x1="59.2" y1="116.3" x2="88.8" y2="123.1"/>
<polygon points="88.8,123.1 88.8,123.9 80.3,123.9 82,118.8 "/>
<g>
	<g>
		<g>
			<g>
				<text transform="matrix(1.0003 0 0 1 234.2339 122.2275)" font-family="'ArialMT'" font-size="9.2993">4</text>
			</g>
		</g>
	</g>
</g>
<line fill="none" stroke="#000000" stroke-width="0.8454" stroke-linecap="square" stroke-miterlimit="10" x1="232.5" y1="120.5" x2="201.3" y2="124.8"/>
<polygon points="201.3,124.8 201.3,124.8 208.9,121.4 208.9,126.5 201.3,125.6 "/>
<g>
	<g>
		<g>
			<g>
				<text transform="matrix(1.0003 0 0 1 117.5396 73.8848)" font-family="'ArialMT'" font-size="9.2993">2</text>
			</g>
		</g>
	</g>
</g>
<line fill="none" stroke="#000000" stroke-width="0.8454" stroke-linecap="square" stroke-miterlimit="10" x1="119.2" y1="76.6" x2="119.2" y2="117.2"/>
<polygon points="119.2,117.2 119.2,117.2 116.7,109.5 121.8,109.5 120.1,117.2 "/>
<polyline fill="none" stroke="#000000" stroke-width="0.8454" stroke-linecap="square" stroke-miterlimit="10" points="110.8,118.8 
	115.8,115.5 118.4,117.2 120.9,118.8 126.8,115.5 "/>
<g>
	<g>
		<g>
			<g>
				<text transform="matrix(1.0003 0 0 1 209.7114 57.9771)" font-family="'ArialMT'" font-size="9.2993">5</text>
			</g>
		</g>
	</g>
</g>
<line fill="none" stroke="#000000" stroke-width="0.8454" stroke-linecap="square" stroke-miterlimit="10" x1="208" y1="58" x2="189.4" y2="82.5"/>
<polygon points="189.4,82.5 188.6,82.5 192,74.9 196.2,78.3 "/>
<line fill="none" stroke="#00B4EB" stroke-width="0.8454" stroke-linecap="square" stroke-miterlimit="10" stroke-dasharray="3.3824,1.6912" x1="187.7" y1="85" x2="108.2" y2="162.8"/>
<polygon fill="#00B4EB" points="187.7,85 187.7,85 183.5,91.8 180.1,88.4 186.9,84.2 "/>
<line fill="none" stroke="#00B4EB" stroke-width="0.8454" stroke-linecap="square" stroke-miterlimit="10" stroke-dasharray="3.3824,1.6912" x1="91.3" y1="123.9" x2="199.6" y2="124.8"/>
<polygon fill="#00B4EB" points="199.6,124.8 199.6,124.8 192,127.3 192,122.2 199.6,123.9 "/>
<g>
	<g>
		<g>
			<g>
				<text transform="matrix(1.0003 0 0 1 175.9604 88.1118)" font-family="'ArialMT'" font-size="9.2993">t</text>
			</g>
		</g>
	</g>
</g>
<g>
	<g>
		<g>
			<g>
				<text transform="matrix(1.0003 0 0 1 191.0269 120.6182)" font-family="'ArialMT'" font-size="9.2993">s</text>
			</g>
		</g>
	</g>
</g>
<line fill="none" stroke="#000000" stroke-width="0.8454" stroke-linecap="square" stroke-miterlimit="10" stroke-dasharray="3.3824,1.6912" x1="147.1" y1="123.9" x2="178.4" y2="123.9"/>
<polygon points="178.4,123.9 178.4,124.8 170.8,126.5 170.8,121.4 "/>
<polyline fill="none" stroke="#000000" stroke-width="0.8454" stroke-linecap="square" stroke-miterlimit="10" points="147.1,39.4 
	147.1,123.9 186,110.4 "/>
<polygon points="147.1,39.4 148,39.4 149.7,47 144.6,47 "/>
<polygon points="186,110.4 186,111.2 180.1,115.5 178.4,110.4 "/>
<g>
	<g>
		<g>
			<g>
				<text transform="matrix(1.0003 0 0 1 95.4019 73.0859)" enable-background="new    "><tspan x="0" y="0" font-family="'ArialMT'" font-size="9.2993" letter-spacing="-1">T</tspan><tspan x="4.6" y="0" font-family="'ArialMT'" font-size="9.2993">op</tspan></text>
			</g>
		</g>
	</g>
</g>
<g>
	<g>
		<g>
			<g>
				<text transform="matrix(1.0003 0 0 1 150.9019 201.5859)" font-family="'ArialMT'" font-size="9.2993">Bottom</text>
			</g>
		</g>
	</g>
</g>
<path fill="none" stroke="#000000" stroke-miterlimit="10" stroke-dasharray="10,4" d="M169.3,167.8L169.3,167.8
	c0-7.3-3.9-13.1-8.7-13.1s-8.7,5.9-8.7,13.1c0,7.3,3.9,13.1,8.7,13.1C165.4,181,169.3,175.1,169.3,167.8L169.3,167.8z"/>
<g>
	<line fill="none" stroke="#000000" stroke-miterlimit="10" x1="172.4" y1="173.6" x2="201.9" y2="171.8"/>
	<line fill="none" stroke="#000000" stroke-miterlimit="10" x1="201.9" y1="171.8" x2="193.8" y2="167.6"/>
	<g>
		<g>
			<path fill="#FFFFFF" d="M229.5,165.3c-1.7-0.4-2.8-0.9-4.1-1.3l0.2,5c0.5-0.2,2.4-1.1,4-1.6c1.7-0.6,3.3-1,4.4-1.2
				C232.9,166.1,231.3,165.8,229.5,165.3z"/>
		</g>
		<g>
			<line fill="none" stroke="#000000" stroke-miterlimit="10" x1="193.8" y1="167.6" x2="227.2" y2="166.4"/>
			<path d="M229.5,165.3c-1.7-0.4-2.8-0.9-4.1-1.3l0.2,5c0.5-0.2,2.4-1.1,4-1.6c1.7-0.6,3.3-1,4.4-1.2
				C232.9,166.1,231.3,165.8,229.5,165.3z"/>
		</g>
	</g>
</g>
<path fill="none" stroke="#000000" stroke-miterlimit="10" d="M150.5,193.8L150.5,193.8c0-3.3-2.7-5.9-5.9-5.9
	c-3.3,0-5.9,2.7-5.9,5.9s2.7,5.9,5.9,5.9S150.5,197.1,150.5,193.8L150.5,193.8z"/>
<path fill="none" stroke="#000000" stroke-miterlimit="10" d="M81.7,190.6L81.7,190.6c0-3.3-2.7-5.9-5.9-5.9c-3.3,0-5.9,2.7-5.9,5.9
	c0,3.3,2.7,5.9,5.9,5.9S81.7,193.9,81.7,190.6L81.7,190.6z"/>
<path fill="none" stroke="#000000" stroke-miterlimit="10" d="M59.2,116.7L59.2,116.7c0-3.3-2.7-5.9-5.9-5.9s-5.9,2.7-5.9,5.9
	c0,3.3,2.7,5.9,5.9,5.9S59.2,120,59.2,116.7L59.2,116.7z"/>
<path fill="none" stroke="#000000" stroke-miterlimit="10" d="M125.7,70.3L125.7,70.3c0-3.3-2.7-5.9-5.9-5.9c-3.3,0-5.9,2.7-5.9,5.9
	c0,3.3,2.7,5.9,5.9,5.9C123,76.2,125.7,73.6,125.7,70.3L125.7,70.3z"/>
<path fill="none" stroke="#000000" stroke-miterlimit="10" d="M218.7,54.3L218.7,54.3c0-3.3-2.7-5.9-5.9-5.9c-3.3,0-5.9,2.7-5.9,5.9
	s2.7,5.9,5.9,5.9S218.7,57.6,218.7,54.3L218.7,54.3z"/>
<path fill="none" stroke="#000000" stroke-miterlimit="10" d="M243.7,118.3L243.7,118.3c0-3.3-2.7-5.9-5.9-5.9
	c-3.3,0-5.9,2.7-5.9,5.9c0,3.3,2.7,5.9,5.9,5.9C241,124.2,243.7,121.6,243.7,118.3L243.7,118.3z"/>
<g>
	<line fill="none" stroke="#000000" stroke-linecap="round" stroke-miterlimit="10" x1="292.6" y1="131.8" x2="248.3" y2="131.8"/>
	<line fill="none" stroke="#000000" stroke-linecap="round" stroke-miterlimit="10" x1="292.3" y1="131.8" x2="292.3" y2="204.1"/>
	<line fill="none" stroke="#000000" stroke-linecap="round" stroke-miterlimit="10" x1="244" y1="204.1" x2="292.3" y2="204.1"/>
	<rect x="290.6" y="166.1" stroke="#000000" stroke-linecap="round" stroke-miterlimit="10" width="3.3" height="3"/>
	<ellipse stroke="#000000" stroke-linecap="round" stroke-miterlimit="10" cx="292" cy="132.3" rx="1.3" ry="1.5"/>
	<ellipse stroke="#000000" stroke-linecap="round" stroke-miterlimit="10" cx="292" cy="149.3" rx="1.3" ry="1.5"/>
	<ellipse stroke="#000000" stroke-linecap="round" stroke-miterlimit="10" cx="292" cy="140.3" rx="1.3" ry="1.5"/>
	<ellipse stroke="#000000" stroke-linecap="round" stroke-miterlimit="10" cx="292" cy="203.3" rx="1.3" ry="1.5"/>
	<ellipse stroke="#000000" stroke-linecap="round" stroke-miterlimit="10" cx="292" cy="176.3" rx="1.3" ry="1.5"/>
	<path fill="none" stroke="#000000" stroke-linecap="round" stroke-miterlimit="10" d="M248.3,131.8c-2.1,4.9-2.8,9.7-5,14.8
		c-2.5,5.6-5,12.1-6.3,17.6c-0.7,3.1-2.4,9.1-1.7,12.2c1.4,6.4-0.3,2.9,4.1,10c3,4.8,5.8,9.2,4.6,17.7"/>
	<line fill="none" stroke="#000000" stroke-linecap="round" stroke-miterlimit="10" x1="242" y1="149.6" x2="292" y2="149.3"/>
	<g>
		<g>
			<g>
				<g>
					<text transform="matrix(1.0003 0 0 1 250.3022 144.418)" enable-background="new    "><tspan x="0" y="0" font-family="'ArialMT'" font-size="9">L</tspan><tspan x="5" y="0" font-family="'ArialMT'" font-size="9">A</tspan><tspan x="10.3" y="0" font-family="'ArialMT'" font-size="9">YER 2</tspan></text>
				</g>
			</g>
		</g>
	</g>
	<g>
		<g>
			<g>
				<g>
					<text transform="matrix(1.0003 0 0 1 245.3022 176.418)" enable-background="new    "><tspan x="0" y="0" font-family="'ArialMT'" font-size="9">L</tspan><tspan x="5" y="0" font-family="'ArialMT'" font-size="9">A</tspan><tspan x="10.3" y="0" font-family="'ArialMT'" font-size="9">YER 1</tspan></text>
				</g>
			</g>
		</g>
	</g>
	<g>
		<g>
			<g>
				<g>
					<g>
						<text transform="matrix(1.0003 0 0 1 315.3027 156.084)" font-family="'ArialMT'" font-size="9">Node</text>
					</g>
				</g>
			</g>
		</g>
		<g>
			<g>
				<g>
					<g>
						<text transform="matrix(1.0003 0 0 1 315.3027 167.084)" font-family="'ArialMT'" font-size="9">Location</text>
					</g>
				</g>
			</g>
		</g>
	</g>
	<g>
		<g>
			<path fill="#FFFFFF" d="M301.2,166.3c1.7-0.2,2.9-0.2,4.3-0.3l-2-4.6c-0.3,0.4-1.8,1.9-3.1,3c-1.4,1.2-2.7,2.2-3.6,2.7
				C297.8,166.8,299.4,166.5,301.2,166.3z"/>
		</g>
		<g>
			<line fill="none" stroke="#000000" stroke-miterlimit="10" x1="303" y1="164.4" x2="316" y2="158.8"/>
			<path d="M301.2,166.3c1.7-0.2,2.9-0.2,4.3-0.3l-2-4.6c-0.3,0.4-1.8,1.9-3.1,3c-1.4,1.2-2.7,2.2-3.6,2.7
				C297.8,166.8,299.4,166.5,301.2,166.3z"/>
		</g>
	</g>
	<g>
		<g>
			<g>
				<g>
					<text transform="matrix(1.0003 0 0 1 295.3022 134.085)" enable-background="new    "><tspan x="0" y="0" font-family="'ArialMT'" font-size="9">T</tspan><tspan x="5.5" y="0" font-family="'ArialMT'" font-size="9">T</tspan><tspan x="10.8" y="0" font-family="'ArialMT'" font-size="9">O</tspan><tspan x="17.8" y="0" font-family="'ArialMT'" font-size="9">P</tspan></text>
				</g>
			</g>
		</g>
	</g>
	<g>
		<g>
			<g>
				<g>
					<text transform="matrix(1.0003 0 0 1 295.6353 143.752)" font-family="'ArialMT'" font-size="9">TE4</text>
				</g>
			</g>
		</g>
	</g>
	<g>
		<g>
			<g>
				<g>
					<text transform="matrix(1.0003 0 0 1 295.9683 153.0859)" font-family="'ArialMT'" font-size="9">TE3</text>
				</g>
			</g>
		</g>
	</g>
	<g>
		<g>
			<g>
				<g>
					<text transform="matrix(1.0003 0 0 1 296.3013 180.0859)" font-family="'ArialMT'" font-size="9">TE2</text>
				</g>
			</g>
		</g>
	</g>
	<g>
		<g>
			<g>
				<g>
					<text transform="matrix(1.0003 0 0 1 295.6353 205.752)" enable-background="new    "><tspan x="0" y="0" font-family="'ArialMT'" font-size="9">TBO</tspan><tspan x="18.5" y="0" font-family="'ArialMT'" font-size="9">T</tspan></text>
				</g>
			</g>
		</g>
	</g>
</g>
<g>
	<g>
		<g>
			<g>
				<text transform="matrix(1.0003 0 0 1 256.3862 77.668)" enable-background="new    "><tspan x="0" y="0" font-family="'ArialMT'" font-size="9">T</tspan><tspan x="5.2" y="0" font-family="'ArialMT'" font-size="9">riangular Option</tspan></text>
			</g>
		</g>
	</g>
</g>
</svg>
