<?xml version="1.0" encoding="utf-8"?>
<!-- Generator: Adobe Illustrator 17.1.0, SVG Export Plug-In . SVG Version: 6.00 Build 0)  -->

<svg version="1.1" id="Layer_1" xmlns="http://www.w3.org/2000/svg" xmlns:xlink="http://www.w3.org/1999/xlink" x="0px" y="0px"
	 width="384.3px" height="170.3px" viewBox="0 0 384.3 170.3" enable-background="new 0 0 384.3 170.3" xml:space="preserve">
<g>
	<g>
		<polygon fill="#FFFFFF" points="314.7,105.7 315.5,94.5 309.2,103.8 		"/>
	</g>
	<g>
		<path fill="none" stroke="#000000" d="M308.8,129.6c-0.5-9.2,0.9-18.2,3.8-26.7"/>
		<polygon points="314.7,105.7 315.5,94.5 309.2,103.8 		"/>
	</g>
</g>
<g>
	<g>
		<polygon fill="#FFFFFF" points="122.7,120.2 130.6,112.2 119.8,115.2 		"/>
	</g>
	<g>
		<line fill="none" stroke="#000000" stroke-linecap="square" x1="123" y1="116.7" x2="102" y2="129"/>
		<polygon points="122.7,120.2 130.6,112.2 119.8,115.2 		"/>
	</g>
</g>
<text transform="matrix(1.0019 0 0 1 100.1387 143.6348)" font-family="'ArialMT'" font-size="11">I</text>
<text transform="matrix(1.0019 0 0 1 218.1606 66.751)" font-family="'ArialMT'" font-size="10.0623">J</text>
<text transform="matrix(1.0019 0 0 1 125.5444 126.9473)" font-family="'ArialMT'" font-size="11">x</text>
<text transform="matrix(1.0019 0 0 1 81.1353 103.417)" font-family="'ArialMT'" font-size="11">y</text>
<text transform="matrix(1.0019 0 0 1 95.8179 9.4395)" font-family="'ArialMT'" font-size="11">  (Extra nodes, optional)</text>
<text transform="matrix(1.0019 0 0 1 307.5742 144.3115)" font-family="'ArialMT'" font-size="11">I</text>
<text transform="matrix(1.0019 0 0 1 378.748 46.3867)" font-family="'ArialMT'" font-size="11">J</text>
<text transform="matrix(1.0019 0 0 1 317.7363 107.1045)" font-family="'ArialMT'" font-size="11">x</text>
<text transform="matrix(1.0019 0 0 1 271.7251 132.3438)" font-family="'ArialMT'" font-size="11">y</text>
<text transform="matrix(1.0019 0 0 1 265.2866 9.4395)" font-family="'ArialMT'" font-size="11"> (Extra nodes, optional)</text>
<text transform="matrix(1.0019 0 0 1 339.0205 76.5947)" font-family="'ArialMT'" font-size="11">K</text>
<text transform="matrix(1.0014 0 0 1 52.832 166.6924)" font-family="'ArialMT'" font-size="11">X (or radial)</text>
<text transform="matrix(1.0014 0 0 1 0 116.792)" enable-background="new    "><tspan x="0" y="0" font-family="'ArialMT'" font-size="11">    </tspan><tspan x="12.2" y="0" font-family="'ArialMT'" font-size="11"> Y</tspan></text>
<text transform="matrix(1.0014 0 0 1 0 129.9922)" font-family="'ArialMT'" font-size="11">(or axial)</text>
<g>
	<g>
		<g>
			<polygon fill="#FFFFFF" points="21.6,144.1 18.7,133.3 15.8,144.1 			"/>
		</g>
		<g>
			<line fill="none" stroke="#000000" stroke-linecap="square" x1="18.7" y1="142.1" x2="18.7" y2="162.1"/>
			<polygon points="21.6,144.1 18.7,133.3 15.8,144.1 			"/>
		</g>
	</g>
	<g>
		<g>
			<polygon fill="#FFFFFF" points="37.6,165 48.4,162.1 37.6,159.2 			"/>
		</g>
		<g>
			<line fill="none" stroke="#000000" stroke-linecap="square" x1="39.6" y1="162.1" x2="18.7" y2="162.1"/>
			<polygon points="37.6,165 48.4,162.1 37.6,159.2 			"/>
		</g>
	</g>
</g>
<g>
	<g>
		<polygon fill="#FFFFFF" points="95.6,111.8 87.6,104 90.7,114.8 		"/>
	</g>
	<g>
		<line fill="none" stroke="#000000" stroke-linecap="square" x1="92.2" y1="111.6" x2="99" y2="123"/>
		<polygon points="95.6,111.8 87.6,104 90.7,114.8 		"/>
	</g>
</g>
<line fill="none" stroke="#000000" stroke-linecap="square" x1="212.1" y1="64.7" x2="123" y2="116.7"/>
<path d="M123.8,21.2c0-1.6,1.3-2.9,2.9-2.9s2.9,1.3,2.9,2.9s-1.3,2.9-2.9,2.9C125.1,24.1,123.8,22.8,123.8,21.2L123.8,21.2z"/>
<g>
	<g>
		<polygon fill="#FFFFFF" points="290.6,126.3 279.7,129 290.5,132.1 		"/>
	</g>
	<g>
		<line fill="none" stroke="#000000" stroke-linecap="square" x1="288.6" y1="129.1" x2="302.3" y2="129.3"/>
		<polygon points="290.6,126.3 279.7,129 290.5,132.1 		"/>
	</g>
</g>
<path fill="none" stroke="#000000" d="M312.7,102.9c9.9-29,36.8-52.6,60.9-59.7"/>
<path d="M99.2,128.3c0-1.6,1.3-2.9,2.9-2.9s2.9,1.3,2.9,2.9c0,1.6-1.3,2.9-2.9,2.9S99.2,129.9,99.2,128.3L99.2,128.3z"/>
<path d="M209.2,64.3c0-1.6,1.3-2.9,2.9-2.9c1.6,0,2.9,1.3,2.9,2.9c0,1.6-1.3,2.9-2.9,2.9C210.5,67.2,209.2,65.9,209.2,64.3
	L209.2,64.3z"/>
<path d="M306.2,129.3c0-1.6,1.3-2.9,2.9-2.9s2.9,1.3,2.9,2.9c0,1.6-1.3,2.9-2.9,2.9S306.2,130.9,306.2,129.3L306.2,129.3z"/>
<path d="M330.3,69c0-1.6,1.3-2.9,2.9-2.9s2.9,1.3,2.9,2.9s-1.3,2.9-2.9,2.9C331.6,71.9,330.3,70.6,330.3,69L330.3,69z"/>
<path d="M370.3,43.3c0-1.6,1.3-2.9,2.9-2.9s2.9,1.3,2.9,2.9c0,1.6-1.3,2.9-2.9,2.9C371.6,46.1,370.3,44.9,370.3,43.3L370.3,43.3z"/>
<g>
	<text transform="matrix(0.9996 0 0 1 147.8706 86.5059)" font-family="'ArialMT'" font-size="11">1</text>
	<path fill="none" stroke="#000000" d="M144.8,82.8c0-3.4,2.7-6.1,6.1-6.1c3.4,0,6.1,2.7,6.1,6.1s-2.7,6.1-6.1,6.1
		C147.6,88.9,144.8,86.2,144.8,82.8L144.8,82.8z"/>
</g>
<g>
	<text transform="matrix(0.9996 0 0 1 317.8711 66.5059)" font-family="'ArialMT'" font-size="11">1</text>
	<path fill="none" stroke="#000000" d="M314.8,62.8c0-3.4,2.7-6.1,6.1-6.1s6.1,2.7,6.1,6.1s-2.7,6.1-6.1,6.1
		C317.6,68.9,314.8,66.2,314.8,62.8L314.8,62.8z"/>
</g>
<path d="M174.8,21.7c0-1.6,1.3-2.9,2.9-2.9c1.6,0,2.9,1.3,2.9,2.9s-1.3,2.9-2.9,2.9S174.8,23.3,174.8,21.7L174.8,21.7z"/>
<text transform="matrix(1 0 0 1 112.5581 24.6992)" font-family="'MyriadPro-Regular'" font-size="12">K</text>
<text transform="matrix(1 0 0 1 165.0581 25.1992)" font-family="'MyriadPro-Regular'" font-size="12">L</text>
<path d="M297.3,21.2c0-1.6,1.3-2.9,2.9-2.9s2.9,1.3,2.9,2.9s-1.3,2.9-2.9,2.9C298.6,24.1,297.3,22.8,297.3,21.2L297.3,21.2z"/>
<path d="M351.3,21.7c0-1.6,1.3-2.9,2.9-2.9s2.9,1.3,2.9,2.9s-1.3,2.9-2.9,2.9C352.6,24.6,351.3,23.3,351.3,21.7L351.3,21.7z"/>
<text transform="matrix(1 0 0 1 286.0581 24.6992)" font-family="'MyriadPro-Regular'" font-size="12">L</text>
<text transform="matrix(1 0 0 1 338.5581 25.1992)" font-family="'MyriadPro-Regular'" font-size="12">M</text>
</svg>
