<?xml version="1.0" encoding="utf-8"?>
<!-- Generator: Adobe Illustrator 17.1.0, SVG Export Plug-In . SVG Version: 6.00 Build 0)  -->

<svg version="1.1" id="Layer_1" xmlns="http://www.w3.org/2000/svg" xmlns:xlink="http://www.w3.org/1999/xlink" x="0px" y="0px"
	 width="229.2px" height="201.9px" viewBox="0 1.6 229.2 201.9" enable-background="new 0 1.6 229.2 201.9" xml:space="preserve">
<polyline fill="none" stroke="#000000" points="212.3,139.9 131.9,190.9 10,172.6 15.3,72.9 89.3,18.9 204.3,25.9 "/>
<polygon points="204.3,26.5 204.5,26.2 204.5,25.8 204.3,25.5 203.8,25.5 130.7,85 130.4,85.3 130.4,85.8 130.7,86 131.1,86 "/>
<g>
	<g>
		<g>
			<g>
				<text transform="matrix(0.9996 0 0 1 1.3047 180.6953)" font-family="'ArialMT'" font-size="10.9995">I</text>
			</g>
		</g>
	</g>
</g>
<g>
	<g>
		<g>
			<g>
				<text transform="matrix(0.9996 0 0 1 86.5225 10.9995)" font-family="'ArialMT'" font-size="10.9995">P</text>
			</g>
		</g>
	</g>
</g>
<g>
	<g>
		<g>
			<g>
				<text transform="matrix(0.9996 0 0 1 219.6934 144.2148)" font-family="'ArialMT'" font-size="10.9995">K</text>
			</g>
		</g>
	</g>
</g>
<g>
	<g>
		<g>
			<g>
				<text transform="matrix(0.9996 0 0 1 135.4482 199.8965)" font-family="'ArialMT'" font-size="10.9995">J</text>
			</g>
		</g>
	</g>
</g>
<g>
	<g>
		<g>
			<g>
				<text transform="matrix(0.9996 0 0 1 127.3145 77.2803)" font-family="'ArialMT'" font-size="10.9995">N</text>
			</g>
		</g>
	</g>
</g>
<g>
	<g>
		<g>
			<g>
				<text transform="matrix(0.9996 0 0 1 0.585 73.7739)" font-family="'ArialMT'" font-size="10.9995">M</text>
			</g>
		</g>
	</g>
</g>
<g>
	<g>
		<g>
			<g>
				<text transform="matrix(0.9996 0 0 1 94.6816 133.5479)" font-family="'ArialMT'" font-size="10.9995">L</text>
			</g>
		</g>
	</g>
</g>
<line fill="none" stroke="#000000" x1="204.3" y1="26.5" x2="212.3" y2="140.5"/>
<polyline fill="none" stroke="#000000" points="16.2,71.8 132.3,84.5 131.6,191.2 "/>
<line fill="none" stroke="#000000" stroke-width="0.9853" x1="132.3" y1="84.5" x2="204.3" y2="25.9"/>
<polyline fill="none" stroke="#000000" stroke-dasharray="5.76" points="90.9,19.9 98.9,119.9 12.3,171.2 "/>
<line fill="none" stroke="#000000" stroke-dasharray="5.76" x1="211.6" y1="139.2" x2="98.9" y2="119.9"/>
<path stroke="#000000" d="M209.7,139.5c0-1.6,1.3-2.9,2.9-2.9c1.6,0,2.9,1.3,2.9,2.9c0,1.6-1.3,2.9-2.9,2.9S209.7,141.1,209.7,139.5
	L209.7,139.5z"/>
<path stroke="#000000" d="M201,26.5c0-1.6,1.3-2.9,2.9-2.9c1.6,0,2.9,1.3,2.9,2.9s-1.3,2.9-2.9,2.9S201,28.1,201,26.5L201,26.5z"/>
<path stroke="#000000" d="M87.4,18.9c0-1.6,1.3-2.9,2.9-2.9s2.9,1.3,2.9,2.9s-1.3,2.9-2.9,2.9C88.6,21.7,87.4,20.5,87.4,18.9
	L87.4,18.9z"/>
<path stroke="#000000" d="M13,71.2c0-1.6,1.3-2.9,2.9-2.9s2.9,1.3,2.9,2.9s-1.3,2.9-2.9,2.9S13,72.8,13,71.2L13,71.2z"/>
<path stroke="#000000" d="M128.7,190.2c0-1.6,1.3-2.9,2.9-2.9c1.6,0,2.9,1.3,2.9,2.9c0,1.6-1.3,2.9-2.9,2.9
	C130,193.1,128.7,191.8,128.7,190.2L128.7,190.2z"/>
<path stroke="#000000" d="M7.4,172.2c0-1.6,1.3-2.9,2.9-2.9s2.9,1.3,2.9,2.9c0,1.6-1.3,2.9-2.9,2.9C8.6,175.1,7.4,173.8,7.4,172.2
	L7.4,172.2z"/>
<g>
	<g>
		<g>
			<g>
				<text transform="matrix(0.9996 0 0 1 208.9229 26.5376)" font-family="'ArialMT'" font-size="10.9995">O</text>
			</g>
		</g>
	</g>
</g>
<path stroke="#000000" d="M96.4,120.2c0-1.6,1.3-2.9,2.9-2.9s2.9,1.3,2.9,2.9s-1.3,2.9-2.9,2.9C97.6,123.1,96.4,121.8,96.4,120.2
	L96.4,120.2z"/>
<path stroke="#000000" d="M128.7,84.5c0-1.6,1.3-2.9,2.9-2.9c1.6,0,2.9,1.3,2.9,2.9s-1.3,2.9-2.9,2.9S128.7,86.1,128.7,84.5
	L128.7,84.5z"/>
<g>
	<g>
		<g>
			<g>
				<text transform="matrix(1 0 0 1 100 71.4352)" enable-background="new    "><tspan x="0" y="0" font-family="'ArialMT'" font-size="11">L</tspan><tspan x="6.1" y="0" font-family="'ArialMT'" font-size="11">L</tspan></text>
			</g>
		</g>
	</g>
</g>
<g>
	<g>
		<g>
			<g>
				<text transform="matrix(1 0 0 1 0 126.4357)" font-family="'ArialMT'" font-size="11">II</text>
			</g>
		</g>
	</g>
</g>
<g>
	<g>
		<g>
			<g>
				<text transform="matrix(1 0 0 1 137.4863 145.3839)" font-family="'ArialMT'" font-size="11">JJ</text>
			</g>
		</g>
	</g>
</g>
<g>
	<g>
		<g>
			<g>
				<text transform="matrix(1 0 0 1 214.5127 87.5891)" font-family="'ArialMT'" font-size="11">KK</text>
			</g>
		</g>
	</g>
</g>
<polyline fill="none" stroke="#C9252C" stroke-dasharray="5.76" points="205.8,84.6 98.5,76.7 93.9,77.7 14.3,123.2 "/>
<line fill="none" stroke="#C9252C" x1="209.3" y1="84.2" x2="133.2" y2="138"/>
<line fill="none" stroke="#C9252C" x1="131.3" y1="139.2" x2="13.3" y2="125.2"/>
<path d="M206.4,84.3c0-1.6,1.3-2.9,2.9-2.9c1.6,0,2.9,1.3,2.9,2.9s-1.3,2.9-2.9,2.9C207.7,87.2,206.4,85.9,206.4,84.3L206.4,84.3z"
	/>
<path d="M93.3,77.2c0-1.6,1.3-2.9,2.9-2.9s2.9,1.3,2.9,2.9s-1.3,2.9-2.9,2.9C94.6,80,93.3,78.8,93.3,77.2L93.3,77.2z"/>
<path d="M129.4,139c0-1.6,1.3-2.9,2.9-2.9c1.6,0,2.9,1.3,2.9,2.9c0,1.6-1.3,2.9-2.9,2.9S129.4,140.6,129.4,139L129.4,139z"/>
<path d="M9.4,123.3c0-1.6,1.3-2.9,2.9-2.9s2.9,1.3,2.9,2.9s-1.3,2.9-2.9,2.9C10.7,126.2,9.4,124.9,9.4,123.3L9.4,123.3z"/>
<g>
	<g>
		<line fill="none" stroke="#A6A6A6" stroke-width="2.16" x1="74.8" y1="127.8" x2="140.3" y2="84.8"/>
		<line fill="none" stroke="#A6A6A6" stroke-width="2.16" x1="57.4" y1="118.4" x2="105.4" y2="87.4"/>
		<line fill="none" stroke="#A6A6A6" stroke-width="2" x1="88.2" y1="129.8" x2="153.3" y2="85.5"/>
		<line fill="none" stroke="#A6A6A6" stroke-width="2.16" x1="60.7" y1="126" x2="119.5" y2="87.5"/>
	</g>
	<line fill="none" stroke="#A6A6A6" stroke-width="2.16" x1="104.4" y1="128.4" x2="152.4" y2="97.4"/>
</g>
</svg>
