<?xml version="1.0" encoding="utf-8"?>
<!-- Generator: Adobe Illustrator 17.1.0, SVG Export Plug-In . SVG Version: 6.00 Build 0)  -->

<svg version="1.1" id="Layer_1" xmlns="http://www.w3.org/2000/svg" xmlns:xlink="http://www.w3.org/1999/xlink" x="0px" y="0px"
	 width="252.4px" height="188.5px" viewBox="0 1.6 252.4 188.5" enable-background="new 0 1.6 252.4 188.5" xml:space="preserve">
<path d="M125.9,94.9c0-1.6,1.3-2.9,2.9-2.9c1.6,0,2.9,1.3,2.9,2.9s-1.3,2.9-2.9,2.9C127.2,97.8,125.9,96.5,125.9,94.9L125.9,94.9z"
	/>
<line fill="none" stroke="#000000" stroke-linecap="round" stroke-linejoin="round" x1="112.9" y1="173.5" x2="127" y2="176.3"/>
<line fill="none" stroke="#000000" stroke-linecap="round" stroke-linejoin="round" x1="107.2" y1="19.7" x2="135.1" y2="13.6"/>
<g>
	<g>
		<g>
			<g>
				<text transform="matrix(1 0 0 1 114.0581 11)" font-family="'ArialMT'" font-size="11">J</text>
			</g>
		</g>
	</g>
</g>
<g>
	<g>
		<g>
			<g>
				<text transform="matrix(1 0 0 1 143.3911 99.8335)" font-family="'ArialMT'" font-size="11">K</text>
			</g>
		</g>
	</g>
</g>
<g>
	<g>
		<g>
			<g>
				<text transform="matrix(1 0 0 1 121.2666 186.459)" font-family="'ArialMT'" font-size="11">I</text>
			</g>
		</g>
	</g>
</g>
<g>
	<g>
		<polygon fill="#FFFFFF" points="124.8,159.3 123.9,151 120.5,158.7 		"/>
	</g>
	<g>
		<line fill="none" stroke="#000000" x1="120.2" y1="174.9" x2="122.9" y2="157.5"/>
		<polygon points="124.8,159.3 123.9,151 120.5,158.7 		"/>
	</g>
</g>
<g>
	<g>
		<polygon fill="#FFFFFF" points="108.1,170.4 99.7,171 107.3,174.7 		"/>
	</g>
	<g>
		<line fill="none" stroke="#000000" x1="120.2" y1="174.8" x2="106.3" y2="172.2"/>
		<polygon points="108.1,170.4 99.7,171 107.3,174.7 		"/>
	</g>
</g>
<g>
	<g>
		<g>
			<g>
				<text transform="matrix(1 0 0 1 108.6406 162.584)" font-family="'ArialMT'" font-size="11">x</text>
			</g>
		</g>
	</g>
</g>
<g>
	<g>
		<g>
			<g>
				<text transform="matrix(1 0 0 1 90.8076 175.167)" font-family="'ArialMT'" font-size="11">z</text>
			</g>
		</g>
	</g>
</g>
<path fill="none" stroke="#000000" d="M126.8,176.6c3.4-10.1,5.3-18.3,6.4-23.4c1.6-7.5,5.4-30.1,6.3-40.6
	c0.6-6.5,2.1-27.2,2.3-29.9c0.5-7.8-1.2-32.4-1.8-40.4c-0.4-4.9-2.4-21.2-5-28.7"/>
<path fill="none" stroke="#000000" d="M113.4,173.3c2.4-10.4,2.9-16.1,3.5-21.3c0.8-7.6,2.3-30.5,2.2-41c-0.1-6.5-0.6-27.3-0.7-30
	c-0.3-7.8-4.5-32.2-5.9-40c-0.8-4.8-2.1-14-5.4-21.2"/>
<g>
	<g>
		<polygon fill="#FFFFFF" points="109.4,75.9 117.8,76.6 110.9,71.8 		"/>
	</g>
	<g>
		<line fill="none" stroke="#000000" x1="83" y1="64" x2="111.6" y2="74.3"/>
		<polygon points="109.4,75.9 117.8,76.6 110.9,71.8 		"/>
	</g>
</g>
<g>
	<g>
		<polygon fill="#FFFFFF" points="150.7,80.2 142.3,81.2 150,84.5 		"/>
	</g>
	<g>
		<line fill="none" stroke="#000000" x1="186.9" y1="87.8" x2="148.9" y2="82.1"/>
		<polygon points="150.7,80.2 142.3,81.2 150,84.5 		"/>
	</g>
</g>
<g>
	<g>
		<g>
			<g>
				<text transform="matrix(1 0 0 1 163.7241 152.083)" font-family="'ArialMT'" font-size="11">Integration points</text>
			</g>
		</g>
	</g>
</g>
<g>
	<line fill="none" stroke="#000000" x1="112.5" y1="50.4" x2="117.1" y2="59"/>
	<line fill="none" stroke="#000000" x1="117.5" y1="50.4" x2="112.5" y2="59"/>
</g>
<g>
	<line fill="none" stroke="#000000" x1="126" y1="47.8" x2="130.6" y2="56.4"/>
	<line fill="none" stroke="#000000" x1="131" y1="47.8" x2="126" y2="56.4"/>
</g>
<g>
	<line fill="none" stroke="#000000" x1="138.6" y1="45.3" x2="143.3" y2="53.9"/>
	<line fill="none" stroke="#000000" x1="143.6" y1="45.3" x2="138.6" y2="53.9"/>
</g>
<g>
	<line fill="none" stroke="#000000" x1="116.1" y1="126" x2="120.8" y2="134.7"/>
	<line fill="none" stroke="#000000" x1="121.1" y1="126" x2="116.1" y2="134.7"/>
</g>
<g>
	<line fill="none" stroke="#000000" x1="125.6" y1="127.4" x2="130.3" y2="136.1"/>
	<line fill="none" stroke="#000000" x1="130.6" y1="127.4" x2="125.6" y2="136.1"/>
</g>
<g>
	<line fill="none" stroke="#000000" x1="134.3" y1="127.9" x2="138.9" y2="136.6"/>
	<line fill="none" stroke="#000000" x1="139.3" y1="127.9" x2="134.3" y2="136.6"/>
</g>
<path d="M116.9,175.4c0-1.6,1.3-2.9,2.9-2.9s2.9,1.3,2.9,2.9s-1.3,2.9-2.9,2.9C118.2,178.2,116.9,177,116.9,175.4L116.9,175.4z"/>
<g>
	<g>
		<g>
			<g>
				<g>
					<text transform="matrix(1.0014 0 0 1 73.8237 66.2056)" font-family="'ArialMT'" font-size="11">1</text>
				</g>
			</g>
		</g>
	</g>
	<path fill="none" stroke="#000000" d="M70.8,62.5c0-3.4,2.7-6.1,6.1-6.1s6.1,2.7,6.1,6.1c0,3.4-2.7,6.1-6.1,6.1
		S70.8,65.9,70.8,62.5L70.8,62.5z"/>
</g>
<g>
	<g>
		<g>
			<g>
				<g>
					<text transform="matrix(1.0014 0 0 1 190.1567 91.8726)" font-family="'ArialMT'" font-size="11">2</text>
				</g>
			</g>
		</g>
	</g>
	<path fill="none" stroke="#000000" d="M187.1,88.2c0-3.4,2.7-6.1,6.1-6.1c3.4,0,6.1,2.7,6.1,6.1s-2.7,6.1-6.1,6.1
		C189.8,94.2,187.1,91.5,187.1,88.2L187.1,88.2z"/>
</g>
<path d="M117.6,16.7c0-1.6,1.3-2.9,2.9-2.9s2.9,1.3,2.9,2.9s-1.3,2.9-2.9,2.9S117.6,18.3,117.6,16.7L117.6,16.7z"/>
<g>
	<g>
		<g>
			<polygon fill="#FFFFFF" points="6.6,159.6 3.7,148.8 0.8,159.6 			"/>
		</g>
		<g>
			<line fill="none" stroke="#000000" stroke-linecap="square" x1="3.7" y1="157.6" x2="3.7" y2="177.6"/>
			<polygon points="6.6,159.6 3.7,148.8 0.8,159.6 			"/>
		</g>
	</g>
	<g>
		<g>
			<g>
				<g>
					<text transform="matrix(1.0014 0 0 1 37.832 182.1602)" font-family="'ArialMT'" font-size="11">X</text>
				</g>
			</g>
		</g>
	</g>
	<g>
		<g>
			<g>
				<g>
					<text transform="matrix(1.0014 0 0 1 0 144.2578)" font-family="'ArialMT'" font-size="11">Y</text>
				</g>
			</g>
		</g>
	</g>
	<g>
		<g>
			<polygon fill="#FFFFFF" points="22.6,180.5 33.4,177.5 22.6,174.6 			"/>
		</g>
		<g>
			<line fill="none" stroke="#000000" stroke-linecap="square" x1="24.6" y1="177.6" x2="3.7" y2="177.6"/>
			<polygon points="22.6,180.5 33.4,177.5 22.6,174.6 			"/>
		</g>
	</g>
</g>
<g>
	<g>
		<polygon fill="#FFFFFF" points="145.1,135.3 137.8,131.1 142,138.4 		"/>
	</g>
	<g>
		<polyline fill="none" stroke="#000000" points="162.4,148.3 155.1,148.3 142.6,135.8 		"/>
		<polygon points="145.1,135.3 137.8,131.1 142,138.4 		"/>
	</g>
</g>
<g>
	<g>
		<g>
			<g>
				<text transform="matrix(1 0 0 1 168.0571 69.7495)" font-family="'ArialMT'" font-size="11">Integration points</text>
			</g>
		</g>
	</g>
</g>
<g>
	<g>
		<polygon fill="#FFFFFF" points="149.5,52.9 142.2,48.7 146.4,56 		"/>
	</g>
	<g>
		<polyline fill="none" stroke="#000000" points="166.7,65.9 159.4,65.9 146.9,53.4 		"/>
		<polygon points="149.5,52.9 142.2,48.7 146.4,56 		"/>
	</g>
</g>
</svg>
