<?xml version="1.0" encoding="utf-8"?>
<!-- Generator: Adobe Illustrator 17.1.0, SVG Export Plug-In . SVG Version: 6.00 Build 0)  -->

<svg version="1.1" id="Layer_1" xmlns="http://www.w3.org/2000/svg" xmlns:xlink="http://www.w3.org/1999/xlink" x="0px" y="0px"
	 width="414.3px" height="648.8px" viewBox="0 1.6 414.3 648.8" enable-background="new 0 1.6 414.3 648.8" xml:space="preserve">
<g>
	<g>
		<g>
			<g>
				<g>
					<text transform="matrix(1.0032 0 0 1 29.79 107.0078)" enable-background="new    "><tspan x="0" y="0" font-family="'ArialMT'" font-size="11">KEYOP</tspan><tspan x="37.9" y="0" font-family="'ArialMT'" font-size="11">T</tspan><tspan x="44.4" y="0" font-family="'ArialMT'" font-size="11"> (1) = 2</tspan></text>
				</g>
			</g>
		</g>
	</g>
	<g>
		<g>
			<g>
				<g>
					<text transform="matrix(1.0032 0 0 1 29.79 120.0078)" font-family="'ArialMT'" font-size="11">3-D line with 2 nodes</text>
				</g>
			</g>
		</g>
	</g>
</g>
<g>
	<g>
		<g>
			<g>
				<g>
					<text transform="matrix(1.0032 0 0 1 29.79 228.9941)" enable-background="new    "><tspan x="0" y="0" font-family="'ArialMT'" font-size="11">KEYOP</tspan><tspan x="37.9" y="0" font-family="'ArialMT'" font-size="11">T</tspan><tspan x="44.4" y="0" font-family="'ArialMT'" font-size="11"> (1) = 4</tspan></text>
				</g>
			</g>
		</g>
	</g>
	<g>
		<g>
			<g>
				<g>
					<text transform="matrix(1.0032 0 0 1 29.79 241.9941)" font-family="'ArialMT'" font-size="11">3-D triangle with 3 nodes</text>
				</g>
			</g>
		</g>
	</g>
</g>
<g>
	<g>
		<g>
			<g>
				<g>
					<text transform="matrix(1.0032 0 0 1 29.79 353.4941)" enable-background="new    "><tspan x="0" y="0" font-family="'ArialMT'" font-size="11">KEYOP</tspan><tspan x="37.9" y="0" font-family="'ArialMT'" font-size="11">T</tspan><tspan x="44.4" y="0" font-family="'ArialMT'" font-size="11"> (1) = 6</tspan></text>
				</g>
			</g>
		</g>
	</g>
	<g>
		<g>
			<g>
				<g>
					<text transform="matrix(1.0032 0 0 1 29.79 366.4941)" font-family="'ArialMT'" font-size="11">3-D quadrilateral with 4 nodes</text>
				</g>
			</g>
		</g>
	</g>
</g>
<g>
	<g>
		<g>
			<g>
				<g>
					<text transform="matrix(1.0032 0 0 1 29.79 486.6211)" enable-background="new    "><tspan x="0" y="0" font-family="'ArialMT'" font-size="11">KEYOP</tspan><tspan x="37.9" y="0" font-family="'ArialMT'" font-size="11">T</tspan><tspan x="44.4" y="0" font-family="'ArialMT'" font-size="11"> (1) = 8</tspan></text>
				</g>
			</g>
		</g>
	</g>
	<g>
		<g>
			<g>
				<g>
					<text transform="matrix(1.0032 0 0 1 29.79 499.6211)" font-family="'ArialMT'" font-size="11">tetrahedron with 4 nodes</text>
				</g>
			</g>
		</g>
	</g>
</g>
<g>
	<g>
		<g>
			<g>
				<g>
					<text transform="matrix(1.0032 0 0 1 29.79 633.8271)" enable-background="new    "><tspan x="0" y="0" font-family="'ArialMT'" font-size="11">KEYOP</tspan><tspan x="37.9" y="0" font-family="'ArialMT'" font-size="11">T</tspan><tspan x="44.4" y="0" font-family="'ArialMT'" font-size="11"> (1) = 10</tspan></text>
				</g>
			</g>
		</g>
	</g>
	<g>
		<g>
			<g>
				<g>
					<text transform="matrix(1.0032 0 0 1 29.79 646.8271)" font-family="'ArialMT'" font-size="11">brick with 8 nodes</text>
				</g>
			</g>
		</g>
	</g>
</g>
<g>
	<g>
		<g>
			<g>
				<g>
					<text transform="matrix(1.0032 0 0 1 235.4604 107.0078)" enable-background="new    "><tspan x="0" y="0" font-family="'ArialMT'" font-size="11">KEYOP</tspan><tspan x="37.9" y="0" font-family="'ArialMT'" font-size="11">T</tspan><tspan x="44.4" y="0" font-family="'ArialMT'" font-size="11"> (1) = 3</tspan></text>
				</g>
			</g>
		</g>
	</g>
	<g>
		<g>
			<g>
				<g>
					<text transform="matrix(1.0032 0 0 1 235.4604 120.0078)" font-family="'ArialMT'" font-size="11">3-D line with 3 nodes</text>
				</g>
			</g>
		</g>
	</g>
</g>
<g>
	<g>
		<g>
			<g>
				<g>
					<text transform="matrix(1.0032 0 0 1 235.4604 228.9941)" enable-background="new    "><tspan x="0" y="0" font-family="'ArialMT'" font-size="11">KEYOP</tspan><tspan x="37.9" y="0" font-family="'ArialMT'" font-size="11">T</tspan><tspan x="44.4" y="0" font-family="'ArialMT'" font-size="11"> (1) = 5</tspan></text>
				</g>
			</g>
		</g>
	</g>
	<g>
		<g>
			<g>
				<g>
					<text transform="matrix(1.0032 0 0 1 235.4604 241.9941)" font-family="'ArialMT'" font-size="11">3-D triangle with 6 nodes</text>
				</g>
			</g>
		</g>
	</g>
</g>
<g>
	<g>
		<g>
			<g>
				<g>
					<text transform="matrix(1.0032 0 0 1 235.4604 353.4941)" enable-background="new    "><tspan x="0" y="0" font-family="'ArialMT'" font-size="11">KEYOP</tspan><tspan x="37.9" y="0" font-family="'ArialMT'" font-size="11">T</tspan><tspan x="44.4" y="0" font-family="'ArialMT'" font-size="11"> (1) = 7</tspan></text>
				</g>
			</g>
		</g>
	</g>
	<g>
		<g>
			<g>
				<g>
					<text transform="matrix(1.0032 0 0 1 235.4604 366.4941)" font-family="'ArialMT'" font-size="11">3-D quadrilateral with 8 nodes</text>
				</g>
			</g>
		</g>
	</g>
</g>
<g>
	<g>
		<g>
			<g>
				<g>
					<text transform="matrix(1.0032 0 0 1 235.4604 486.6211)" enable-background="new    "><tspan x="0" y="0" font-family="'ArialMT'" font-size="11">KEYOP</tspan><tspan x="37.9" y="0" font-family="'ArialMT'" font-size="11">T</tspan><tspan x="44.4" y="0" font-family="'ArialMT'" font-size="11"> (1) = 9</tspan></text>
				</g>
			</g>
		</g>
	</g>
	<g>
		<g>
			<g>
				<g>
					<text transform="matrix(1.0032 0 0 1 235.4604 499.6211)" font-family="'ArialMT'" font-size="11">tetrahedron with 10 nodes</text>
				</g>
			</g>
		</g>
	</g>
</g>
<g>
	<g>
		<g>
			<g>
				<g>
					<text transform="matrix(1.0032 0 0 1 235.4604 633.8271)" enable-background="new    "><tspan x="0" y="0" font-family="'ArialMT'" font-size="11">KEYOP</tspan><tspan x="37.9" y="0" font-family="'ArialMT'" font-size="11">T</tspan><tspan x="44.4" y="0" font-family="'ArialMT'" font-size="11"> (1) = </tspan><tspan x="73.5" y="0" font-family="'ArialMT'" font-size="11">1</tspan><tspan x="78.8" y="0" font-family="'ArialMT'" font-size="11">1</tspan></text>
				</g>
			</g>
		</g>
	</g>
	<g>
		<g>
			<g>
				<g>
					<text transform="matrix(1.0032 0 0 1 235.4604 646.8271)" font-family="'ArialMT'" font-size="11">brick with 20 nodes</text>
				</g>
			</g>
		</g>
	</g>
</g>
<g>
	<line fill="none" stroke="#000000" stroke-linecap="square" stroke-miterlimit="10" x1="65.5" y1="81.7" x2="165.3" y2="41.1"/>
	<g>
		<g>
			<g>
				<g>
					<text transform="matrix(1.0032 0 0 1 171.3491 44.71)" font-family="'ArialMT'" font-size="11">J</text>
				</g>
			</g>
		</g>
	</g>
	<g>
		<g>
			<g>
				<g>
					<text transform="matrix(1.0032 0 0 1 56.7114 84.0703)" font-family="'ArialMT'" font-size="11">I</text>
				</g>
			</g>
		</g>
	</g>
	<path d="M162.8,41.3c0-1.6,1.3-2.9,2.9-2.9c1.6,0,2.9,1.3,2.9,2.9c0,1.6-1.3,2.9-2.9,2.9S162.8,42.9,162.8,41.3L162.8,41.3z"/>
	<path d="M61.8,82.3c0-1.6,1.3-2.9,2.9-2.9s2.9,1.3,2.9,2.9s-1.3,2.9-2.9,2.9C63.1,85.2,61.8,83.9,61.8,82.3L61.8,82.3z"/>
</g>
<g>
	<path d="M370.1,38c0.8-1.4,2.5-1.9,3.9-1.1c1.4,0.8,1.9,2.5,1.1,3.9s-2.5,1.9-3.9,1.1C369.8,41.1,369.3,39.4,370.1,38L370.1,38z"/>
	<path d="M273,78.9c0.8-1.4,2.5-1.9,3.9-1.1s1.9,2.5,1.1,3.9s-2.5,1.9-3.9,1.1S272.2,80.3,273,78.9L273,78.9z"/>
	<path fill="none" stroke="#000000" d="M373.1,39.2c-33.9-6-72,3-97.6,41.5"/>
	<path d="M313.1,44.3c0.8-1.4,2.5-1.9,3.8-1.2s1.7,2.4,0.9,3.8c-0.8,1.4-2.5,1.9-3.8,1.2C312.7,47.4,312.3,45.7,313.1,44.3
		L313.1,44.3z"/>
	<g>
		<g>
			<g>
				<g>
					<text transform="matrix(1.0032 0 0 1 283.6543 86.0581)" font-family="'ArialMT'" font-size="11">I</text>
				</g>
			</g>
		</g>
	</g>
	<g>
		<g>
			<g>
				<g>
					<text transform="matrix(1.0032 0 0 1 368.3203 52.0581)" font-family="'ArialMT'" font-size="11">J</text>
				</g>
			</g>
		</g>
	</g>
	<g>
		<g>
			<g>
				<g>
					<text transform="matrix(1.0032 0 0 1 316.9873 60.0581)" font-family="'ArialMT'" font-size="11">K</text>
				</g>
			</g>
		</g>
	</g>
</g>
<g>
	<line fill="none" stroke="#000000" stroke-linecap="square" x1="118.4" y1="131.3" x2="64.4" y2="194.4"/>
	<line fill="none" stroke="#000000" stroke-linecap="square" x1="64.4" y1="194" x2="155.8" y2="208.6"/>
	<line fill="none" stroke="#000000" stroke-linecap="square" x1="155.6" y1="208.6" x2="118.2" y2="131.5"/>
	<g>
		<g>
			<g>
				<g>
					<text transform="matrix(1.0032 0 0 1 123.0405 133.9995)" font-family="'ArialMT'" font-size="11">K</text>
				</g>
			</g>
		</g>
	</g>
	<g>
		<g>
			<g>
				<g>
					<text transform="matrix(1.0032 0 0 1 160.4854 212.7998)" font-family="'ArialMT'" font-size="11">J</text>
				</g>
			</g>
		</g>
	</g>
	<g>
		<g>
			<g>
				<g>
					<text transform="matrix(1.0032 0 0 1 56.9067 194.1953)" font-family="'ArialMT'" font-size="11">I</text>
				</g>
			</g>
		</g>
	</g>
	<path d="M116,129.9c0.8-1.4,2.5-1.9,3.9-1.1c1.4,0.8,1.9,2.5,1.1,3.9s-2.5,1.9-3.9,1.1S115.2,131.3,116,129.9L116,129.9z"/>
	<path d="M153.6,207.7c0.8-1.4,2.5-1.9,3.9-1.1c1.4,0.8,1.9,2.5,1.1,3.9c-0.8,1.4-2.5,1.9-3.9,1.1
		C153.3,210.8,152.8,209.1,153.6,207.7L153.6,207.7z"/>
	<path d="M61.9,192.7c0.8-1.4,2.5-1.9,3.9-1.1c1.4,0.8,1.9,2.5,1.1,3.9s-2.5,1.9-3.9,1.1S61.1,194.1,61.9,192.7L61.9,192.7z"/>
</g>
<g>
	<polygon fill="none" stroke="#000000" stroke-linecap="square" points="106.5,259.3 63.8,293.4 134.2,328.5 169,293.8 	"/>
	<g>
		<g>
			<g>
				<g>
					<text transform="matrix(1.0032 0 0 1 114.686 260.1699)" font-family="'ArialMT'" font-size="11">L</text>
				</g>
			</g>
		</g>
	</g>
	<g>
		<g>
			<g>
				<g>
					<text transform="matrix(1.0032 0 0 1 55.6621 297.9971)" font-family="'ArialMT'" font-size="11">I</text>
				</g>
			</g>
		</g>
	</g>
	<g>
		<g>
			<g>
				<g>
					<text transform="matrix(1.0032 0 0 1 137.9526 335.4629)" font-family="'ArialMT'" font-size="11">J</text>
				</g>
			</g>
		</g>
	</g>
	<g>
		<g>
			<g>
				<g>
					<text transform="matrix(1.0032 0 0 1 173.8535 293.7373)" font-family="'ArialMT'" font-size="11">K</text>
				</g>
			</g>
		</g>
	</g>
	<path d="M166,292.9c0.8-1.4,2.5-1.9,3.9-1.1s1.9,2.5,1.1,3.9c-0.8,1.4-2.5,1.9-3.9,1.1C165.7,296,165.2,294.3,166,292.9L166,292.9z
		"/>
	<path d="M104,257.9c0.8-1.4,2.5-1.9,3.9-1.1s1.9,2.5,1.1,3.9s-2.5,1.9-3.9,1.1S103.2,259.3,104,257.9L104,257.9z"/>
	<path d="M61.6,292c0.8-1.4,2.5-1.9,3.9-1.1s1.9,2.5,1.1,3.9s-2.5,1.9-3.9,1.1C61.3,295.1,60.8,293.4,61.6,292L61.6,292z"/>
	<path d="M131.2,326.7c0.8-1.4,2.5-1.9,3.9-1.1s1.9,2.5,1.1,3.9c-0.8,1.4-2.5,1.9-3.9,1.1C130.9,329.8,130.4,328.1,131.2,326.7
		L131.2,326.7z"/>
</g>
<g>
	<polyline fill="none" stroke="#000000" points="64.4,445.5 64.8,446.1 110.8,384.3 110.1,384.3 110.6,383.8 110.6,383.8 
		110.6,383.6 110.1,383.6 110.1,383.8 109.9,383.8 	"/>
	<polyline fill="none" stroke="#000000" points="110.6,383.8 110.1,384.3 161.8,431.7 161.8,431.1 127.6,462.3 126.8,461.3 	"/>
	<polyline fill="none" stroke="#000000" points="162.2,431.9 162.4,431.7 162.4,431.3 162.2,431.3 	"/>
	<polyline fill="none" stroke="#000000" points="64,445.7 64,446.1 64.2,446.3 64.4,446.3 126.8,462.1 127,462.1 	"/>
	<polyline fill="none" stroke="#000000" points="126.6,462.1 126.6,462.3 126.8,462.3 126.8,462.5 127.2,462.5 127.2,462.3 
		127.4,462.3 127.4,462.1 111,385.1 111,385.1 111,384.9 110.8,384.9 110.8,384.7 110.4,384.7 110.4,384.9 110.1,384.9 110.1,385.1 
			"/>
	<g>
		<g>
			<g>
				<g>
					<text transform="matrix(1.0032 0 0 1 114.7954 383.916)" font-family="'ArialMT'" font-size="11">L</text>
				</g>
			</g>
		</g>
	</g>
	<g>
		<g>
			<g>
				<g>
					<text transform="matrix(1.0032 0 0 1 167.6333 435.1631)" font-family="'ArialMT'" font-size="11">K</text>
				</g>
			</g>
		</g>
	</g>
	<g>
		<g>
			<g>
				<g>
					<text transform="matrix(1.0032 0 0 1 127.1094 476.7734)" font-family="'ArialMT'" font-size="11">J</text>
				</g>
			</g>
		</g>
	</g>
	<g>
		<g>
			<g>
				<g>
					<text transform="matrix(1.0032 0 0 1 56.7236 446.2295)" font-family="'ArialMT'" font-size="11">I</text>
				</g>
			</g>
		</g>
	</g>
	<line fill="none" stroke="#000000" stroke-dasharray="3.6" x1="159.9" y1="432" x2="64.4" y2="446.5"/>
	<path d="M159.3,430.1c0.8-1.4,2.5-1.9,3.9-1.1s1.9,2.5,1.1,3.9c-0.8,1.4-2.5,1.9-3.9,1.1C159,433.3,158.5,431.5,159.3,430.1
		L159.3,430.1z"/>
	<path d="M108.1,382c0.8-1.4,2.5-1.9,3.9-1.1s1.9,2.5,1.1,3.9s-2.5,1.9-3.9,1.1C107.8,385.2,107.3,383.4,108.1,382L108.1,382z"/>
	<path d="M62.4,444.7c0.8-1.4,2.5-1.9,3.9-1.1s1.9,2.5,1.1,3.9s-2.5,1.9-3.9,1.1C62.1,447.8,61.6,446.1,62.4,444.7L62.4,444.7z"/>
	<path d="M124.6,460.3c0.8-1.4,2.5-1.9,3.9-1.1c1.4,0.8,1.9,2.5,1.1,3.9c-0.8,1.4-2.5,1.9-3.9,1.1
		C124.3,463.5,123.8,461.7,124.6,460.3L124.6,460.3z"/>
</g>
<g>
	<path fill="none" stroke="#000000" d="M357.9,205.2c-19.4-4.8-50.9-6.8-78.2-6.8"/>
	<path fill="none" stroke="#000000" d="M356.6,205c-6.2-19.8-23.4-50.6-33.9-75.7"/>
	<g>
		<g>
			<g>
				<g>
					<text transform="matrix(1.0032 0 0 1 325.8516 131.7935)" font-family="'ArialMT'" font-size="11">K</text>
				</g>
			</g>
		</g>
	</g>
	<g>
		<g>
			<g>
				<g>
					<text transform="matrix(1.0032 0 0 1 291.6182 167.0977)" font-family="'ArialMT'" font-size="11">N </text>
				</g>
			</g>
		</g>
	</g>
	<g>
		<g>
			<g>
				<g>
					<text transform="matrix(1.0032 0 0 1 274.228 197.0752)" font-family="'ArialMT'" font-size="11">I</text>
				</g>
			</g>
		</g>
	</g>
	<g>
		<g>
			<g>
				<g>
					<text transform="matrix(1.0032 0 0 1 343.8926 170.0693)" font-family="'ArialMT'" font-size="11">M</text>
				</g>
			</g>
		</g>
	</g>
	<g>
		<g>
			<g>
				<g>
					<text transform="matrix(1.0032 0 0 1 359.8398 209.0566)" font-family="'ArialMT'" font-size="11">J</text>
				</g>
			</g>
		</g>
	</g>
	<g>
		<g>
			<g>
				<g>
					<text transform="matrix(1.0032 0 0 1 309.7012 210.5557)" font-family="'ArialMT'" font-size="11">L</text>
				</g>
			</g>
		</g>
	</g>
	<path fill="none" stroke="#000000" d="M280.8,198.2c13.1-13.1,33.5-42.8,40.9-69.5"/>
	<path d="M319.5,127.5c0.8-1.4,2.5-1.9,3.9-1.1s1.9,2.5,1.1,3.9c-0.8,1.4-2.5,1.9-3.9,1.1C319.2,130.6,318.7,128.9,319.5,127.5
		L319.5,127.5z"/>
	<path d="M278.4,196.2c0.8-1.4,2.5-1.9,3.9-1.1c1.4,0.8,1.9,2.5,1.1,3.9s-2.5,1.9-3.9,1.1S277.6,197.6,278.4,196.2L278.4,196.2z"/>
	<path d="M301.4,165.8c0.8-1.4,2.5-1.9,3.9-1.1c1.4,0.8,1.9,2.5,1.1,3.9s-2.5,1.9-3.9,1.1C301.1,168.9,300.6,167.1,301.4,165.8
		L301.4,165.8z"/>
	<path d="M337.4,165.9c0.8-1.4,2.5-1.9,3.9-1.1c1.4,0.8,1.9,2.5,1.1,3.9s-2.5,1.9-3.9,1.1S336.7,167.3,337.4,165.9L337.4,165.9z"/>
	<path d="M353.9,203.3c0.8-1.4,2.5-1.9,3.9-1.1c1.4,0.8,1.9,2.5,1.1,3.9s-2.5,1.9-3.9,1.1C353.6,206.5,353.1,204.7,353.9,203.3
		L353.9,203.3z"/>
	<path d="M315.2,198c0.8-1.4,2.5-1.9,3.9-1.1c1.4,0.8,1.9,2.5,1.1,3.9s-2.5,1.9-3.9,1.1C314.9,201.1,314.4,199.4,315.2,198
		L315.2,198z"/>
</g>
<g>
	<path fill="none" stroke="#000000" stroke-linecap="square" d="M361,247.8c0,8.3,19.3,29.4,41.9,32.9"/>
	<path fill="none" stroke="#000000" stroke-linecap="square" d="M281.9,302c0,8.3,24.3,33.4,46.9,36.9"/>
	<line fill="none" stroke="#000000" stroke-linecap="square" x1="361.3" y1="248.4" x2="281.8" y2="302.5"/>
	<line fill="none" stroke="#000000" stroke-linecap="square" x1="328.6" y1="339" x2="402.4" y2="281"/>
	<g>
		<g>
			<g>
				<g>
					<text transform="matrix(1.0032 0 0 1 272.7959 305.9048)" font-family="'ArialMT'" font-size="11">I</text>
				</g>
			</g>
		</g>
	</g>
	<g>
		<g>
			<g>
				<g>
					<text transform="matrix(1.0032 0 0 1 314 269.7109)" font-family="'ArialMT'" font-size="11">P</text>
				</g>
			</g>
		</g>
	</g>
	<g>
		<g>
			<g>
				<g>
					<text transform="matrix(1.0032 0 0 1 368.4385 250.4551)" font-family="'ArialMT'" font-size="11">L</text>
				</g>
			</g>
		</g>
	</g>
	<g>
		<g>
			<g>
				<g>
					<text transform="matrix(1.0032 0 0 1 406.9756 280.8052)" font-family="'ArialMT'" font-size="11">K</text>
				</g>
			</g>
		</g>
	</g>
	<g>
		<g>
			<g>
				<g>
					<text transform="matrix(1.0032 0 0 1 372.8848 316.4585)" font-family="'ArialMT'" font-size="11">N</text>
				</g>
			</g>
		</g>
	</g>
	<g>
		<g>
			<g>
				<g>
					<text transform="matrix(1.0032 0 0 1 284.249 332.0645)" font-family="'ArialMT'" font-size="11">M</text>
				</g>
			</g>
		</g>
	</g>
	<g>
		<g>
			<g>
				<g>
					<text transform="matrix(1.0032 0 0 1 333.7939 346.8789)" font-family="'ArialMT'" font-size="11">J</text>
				</g>
			</g>
		</g>
	</g>
	<g>
		<g>
			<g>
				<g>
					<text transform="matrix(1.0032 0 0 1 378.3232 265.3389)" font-family="'ArialMT'" font-size="11">O</text>
				</g>
			</g>
		</g>
	</g>
	<path d="M358.6,247.3c0.8-1.4,2.5-1.9,3.9-1.1c1.4,0.8,1.9,2.5,1.1,3.9s-2.5,1.9-3.9,1.1C358.3,250.4,357.8,248.6,358.6,247.3
		L358.6,247.3z"/>
	<path d="M398.8,279.5c0.8-1.4,2.5-1.9,3.9-1.1s1.9,2.5,1.1,3.9s-2.5,1.9-3.9,1.1S398,280.9,398.8,279.5L398.8,279.5z"/>
	<path d="M372.6,266.2c0.8-1.4,2.5-1.9,3.9-1.1s1.9,2.5,1.1,3.9s-2.5,1.9-3.9,1.1C372.3,269.3,371.9,267.6,372.6,266.2L372.6,266.2z
		"/>
	<path d="M321.7,271.8c0.8-1.4,2.5-1.9,3.9-1.1s1.9,2.5,1.1,3.9s-2.5,1.9-3.9,1.1C321.3,274.9,320.9,273.2,321.7,271.8L321.7,271.8z
		"/>
	<path d="M365.7,306.2c0.8-1.4,2.5-1.9,3.9-1.1s1.9,2.5,1.1,3.9s-2.5,1.9-3.9,1.1C365.4,309.3,364.9,307.6,365.7,306.2L365.7,306.2z
		"/>
	<path d="M295.1,321.2c0.8-1.4,2.5-1.9,3.9-1.1s1.9,2.5,1.1,3.9s-2.5,1.9-3.9,1.1C294.8,324.3,294.3,322.6,295.1,321.2L295.1,321.2z
		"/>
	<path d="M279,300.7c0.8-1.4,2.5-1.9,3.9-1.1s1.9,2.5,1.1,3.9s-2.5,1.9-3.9,1.1C278.7,303.8,278.2,302.1,279,300.7L279,300.7z"/>
	<path d="M325.8,337c0.8-1.4,2.5-1.9,3.9-1.1s1.9,2.5,1.1,3.9s-2.5,1.9-3.9,1.1C325.5,340.2,325,338.4,325.8,337L325.8,337z"/>
</g>
<g>
	<path d="M70.1,556.4c0.8-1.4,2.5-1.9,3.9-1.1c1.4,0.8,1.9,2.5,1.1,3.9s-2.5,1.9-3.9,1.1C69.8,559.6,69.3,557.8,70.1,556.4
		L70.1,556.4z"/>
	<polyline fill="none" stroke="#00A84F" points="80.3,605.5 80.3,605.5 80.1,605.5 	"/>
	<line fill="none" stroke="#00A84F" x1="142.2" y1="610" x2="142" y2="610"/>
	<line fill="none" stroke="#000000" x1="71.4" y1="558.4" x2="80.3" y2="605.5"/>
	<polyline fill="none" stroke="#000000" points="142,560.3 71.8,558.2 71.4,558.2 	"/>
	<line fill="none" stroke="#000000" stroke-dasharray="4.32" x1="117.6" y1="518.1" x2="108.7" y2="577.4"/>
	<line fill="none" stroke="#000000" stroke-dasharray="4.32" x1="108.7" y1="576.4" x2="80.1" y2="606"/>
	<line fill="none" stroke="#000000" stroke-dasharray="4.32" x1="109.1" y1="576.7" x2="170.4" y2="581.7"/>
	<polyline fill="none" stroke="#000000" points="163.8,523.1 163.6,522.3 163.6,522.5 170.1,582 170.1,582.2 170.3,582.4 	"/>
	<line fill="none" stroke="#000000" x1="117.8" y1="517.7" x2="163.4" y2="522.5"/>
	<line fill="none" stroke="#000000" x1="163.4" y1="522.7" x2="141.4" y2="560.7"/>
	<path stroke="#00AE4D" d="M117.8,517.7"/>
	<g>
		<g>
			<g>
				<g>
					<text transform="matrix(1.0032 0 0 1 108.8594 592.8799)" font-family="'ArialMT'" font-size="11">L</text>
				</g>
			</g>
		</g>
	</g>
	<g>
		<g>
			<g>
				<g>
					<text transform="matrix(1.0032 0 0 1 147.6211 617.4189)" font-family="'ArialMT'" font-size="11">J</text>
				</g>
			</g>
		</g>
	</g>
	<g>
		<g>
			<g>
				<g>
					<text transform="matrix(1.0032 0 0 1 176.5645 586.3965)" font-family="'ArialMT'" font-size="11">K</text>
				</g>
			</g>
		</g>
	</g>
	<g>
		<g>
			<g>
				<g>
					<text transform="matrix(1.0032 0 0 1 57.395 561.9727)" font-family="'ArialMT'" font-size="11">M</text>
				</g>
			</g>
		</g>
	</g>
	<g>
		<g>
			<g>
				<g>
					<text transform="matrix(1.0032 0 0 1 108.2319 517.5801)" font-family="'ArialMT'" font-size="11">P</text>
				</g>
			</g>
		</g>
	</g>
	<g>
		<g>
			<g>
				<g>
					<text transform="matrix(1.0032 0 0 1 168.0229 524.8672)" font-family="'ArialMT'" font-size="11">O</text>
				</g>
			</g>
		</g>
	</g>
	<g>
		<g>
			<g>
				<g>
					<text transform="matrix(1.0032 0 0 1 145.6387 565.8838)" font-family="'ArialMT'" font-size="11">N</text>
				</g>
			</g>
		</g>
	</g>
	<g>
		<g>
			<g>
				<g>
					<text transform="matrix(1.0032 0 0 1 72.0454 607.375)" font-family="'ArialMT'" font-size="11">I</text>
				</g>
			</g>
		</g>
	</g>
	<path d="M160.6,520.9c0.8-1.4,2.5-1.9,3.9-1.1c1.4,0.8,1.9,2.5,1.1,3.9c-0.8,1.4-2.5,1.9-3.9,1.1
		C160.3,524,159.8,522.3,160.6,520.9L160.6,520.9z"/>
	<line fill="none" stroke="#000000" x1="142" y1="560.2" x2="141.6" y2="610.4"/>
	<line fill="none" stroke="#000000" x1="141.7" y1="610.4" x2="170.2" y2="581.9"/>
	<line fill="none" stroke="#000000" x1="80.1" y1="605.7" x2="141.8" y2="610"/>
	<line fill="none" stroke="#000000" x1="117.8" y1="518.1" x2="70.8" y2="558.2"/>
	<path d="M168.1,580.5c0.8-1.4,2.5-1.9,3.9-1.1s1.9,2.5,1.1,3.9c-0.8,1.4-2.5,1.9-3.9,1.1C167.8,583.6,167.3,581.9,168.1,580.5
		L168.1,580.5z"/>
	<path d="M139.5,608.5c0.8-1.4,2.5-1.9,3.9-1.1c1.4,0.8,1.9,2.5,1.1,3.9c-0.8,1.4-2.5,1.9-3.9,1.1
		C139.2,611.6,138.7,609.9,139.5,608.5L139.5,608.5z"/>
	<path d="M139.5,558.4c0.8-1.4,2.5-1.9,3.9-1.1c1.4,0.8,1.9,2.5,1.1,3.9c-0.8,1.4-2.5,1.9-3.9,1.1
		C139.2,561.5,138.7,559.8,139.5,558.4L139.5,558.4z"/>
	<path d="M115,516.8c0.8-1.4,2.5-1.9,3.9-1.1c1.4,0.8,1.9,2.5,1.1,3.9s-2.5,1.9-3.9,1.1C114.7,520,114.2,518.2,115,516.8L115,516.8z
		"/>
	<path d="M106.1,575.1c0.8-1.4,2.5-1.9,3.9-1.1c1.4,0.8,1.9,2.5,1.1,3.9s-2.5,1.9-3.9,1.1C105.8,578.2,105.3,576.5,106.1,575.1
		L106.1,575.1z"/>
	<path d="M78,604.4c0.8-1.4,2.5-1.9,3.9-1.1c1.4,0.8,1.9,2.5,1.1,3.9s-2.5,1.9-3.9,1.1C77.7,607.6,77.2,605.8,78,604.4L78,604.4z"/>
</g>
<path fill="none" stroke="#000000" stroke-dasharray="4.32" d="M317.2,530.9c5.7,26.9,2.9,40.8-0.3,48.1"/>
<path fill="none" stroke="#000000" stroke-width="1.1957" stroke-dasharray="4.32" d="M372.3,590c-14-5.3-32.1-10.9-55-10.9"/>
<path fill="none" stroke="#000000" stroke-width="1.1957" stroke-dasharray="4.32" d="M280.6,595c10.1,0,25.4-7.5,36.9-15.9"/>
<path fill="none" stroke="#000000" d="M280.3,595.5c2.6,1.3,23.6,10.4,49.6,10.4"/>
<path fill="none" stroke="#000000" d="M280.1,595.2c3.4-15.8,5.7-23.5,3.8-48"/>
<path fill="none" stroke="#000000" d="M284.2,547.1c2.6,1.3,21.6,11.4,47.6,11.4"/>
<path fill="none" stroke="#000000" d="M329.8,606c2.9,0.3,26.5-3,42.7-15.5"/>
<path fill="none" stroke="#000000" d="M372.6,591.2c3.4-15.8,4.3-26.1-2.2-50"/>
<path fill="none" stroke="#000000" d="M329.7,605.7c3.4-15.8,4.9-23.1,1.8-47"/>
<path fill="none" stroke="#000000" d="M370.3,540.9c-6.5,0.3-27.9,6.4-39.3,17.8"/>
<path fill="none" stroke="#000000" d="M371,540.8c-9.1-4.6-36.9-13.8-54.5-10.1"/>
<path fill="none" stroke="#000000" d="M283.7,547c19.8-15.3,16.5-12,32.9-16.3"/>
<g>
	<path fill="none" stroke="#000000" stroke-dasharray="4.32" d="M281.1,449c29.7-13.7,88.5-19.1,104.5-14.5"/>
	<path fill="none" stroke="#000000" d="M279.7,450.1c31.7,3.7,55.2,6.8,68.5,15.6"/>
	<path fill="none" stroke="#000000" d="M386.8,434.2c-14.3,18.3-26.6,22.2-38.6,31.7"/>
	<path fill="none" stroke="#000000" d="M330.3,381.6c14.2,28.1,15.1,65.6,18.3,83.9"/>
	<path fill="none" stroke="#000000" d="M330.7,382.1c29.6,13.6,49.3,35.4,56.1,52.4"/>
	<path fill="none" stroke="#000000" d="M280.8,449.1c8.3-30.6,34.6-56.5,49.3-67.3"/>
	<polyline points="280.4,449.4 280.4,449.6 280.6,449.6 280.6,449.4 280.4,449.4 	"/>
	<polyline points="280.6,449.2 280.6,449.4 280.8,449.4 280.8,449.2 280.6,449.2 	"/>
	<polyline points="280.8,449.2 280.8,449.4 281,449.4 281,449.2 280.8,449.2 	"/>
	<polyline points="280.8,449.2 280.8,449.4 281,449.4 281,449.2 280.8,449.2 	"/>
	<polyline points="281,449.2 281,449.4 281.2,449.4 281.2,449.2 281,449.2 	"/>
	<polyline points="281.2,449.2 281.2,449.4 281.4,449.4 281.4,449.2 281.2,449.2 	"/>
	<polyline points="281.2,449.2 281.2,449.4 281.4,449.4 281.4,449.2 281.2,449.2 	"/>
	<polyline points="281.4,449 281.4,449.2 281.7,449.2 281.7,449 281.4,449 	"/>
	<polyline points="281.7,449 281.7,449.2 281.9,449.2 281.9,449 281.7,449 	"/>
	<polyline points="281.7,449 281.7,449.2 281.9,449.2 281.9,449 281.7,449 	"/>
	<polyline points="281.9,449 281.9,449.2 282.1,449.2 282.1,449 281.9,449 	"/>
	<g>
		<g>
			<g>
				<g>
					<text transform="matrix(1.0032 0 0 1 336.5049 381.9707)" font-family="'ArialMT'" font-size="11">L</text>
				</g>
			</g>
		</g>
	</g>
	<g>
		<g>
			<g>
				<g>
					<text transform="matrix(1.0032 0 0 1 290.3887 410.7422)" font-family="'ArialMT'" font-size="11">P</text>
				</g>
			</g>
		</g>
	</g>
	<path d="M360.8,402.1c0-0.5,0.4-0.9,0.9-0.9s0.9,0.4,0.9,0.9s-0.4,0.9-0.9,0.9C361.2,403,360.8,402.6,360.8,402.1L360.8,402.1z"/>
	<g>
		<g>
			<g>
				<g>
					<text transform="matrix(1.0032 0 0 1 369.127 406.6279)" font-family="'ArialMT'" font-size="11">R</text>
				</g>
			</g>
		</g>
	</g>
	<g>
		<g>
			<g>
				<g>
					<text transform="matrix(1.0032 0 0 1 335.4355 447.999)" font-family="'ArialMT'" font-size="11">O</text>
				</g>
			</g>
		</g>
	</g>
	<g>
		<g>
			<g>
				<g>
					<text transform="matrix(1.0032 0 0 1 347.5459 427.8838)" font-family="'ArialMT'" font-size="11">Q</text>
				</g>
			</g>
		</g>
	</g>
	<g>
		<g>
			<g>
				<g>
					<text transform="matrix(1.0032 0 0 1 391.499 439.0117)" font-family="'ArialMT'" font-size="11">K</text>
				</g>
			</g>
		</g>
	</g>
	<g>
		<g>
			<g>
				<g>
					<text transform="matrix(1.0032 0 0 1 377.0283 459.5586)" font-family="'ArialMT'" font-size="11">N</text>
				</g>
			</g>
		</g>
	</g>
	<g>
		<g>
			<g>
				<g>
					<text transform="matrix(1.0032 0 0 1 271.9521 454.0352)" font-family="'ArialMT'" font-size="11">I</text>
				</g>
			</g>
		</g>
	</g>
	<g>
		<g>
			<g>
				<g>
					<text transform="matrix(1.0032 0 0 1 310.2959 469.2246)" font-family="'ArialMT'" font-size="11">M</text>
				</g>
			</g>
		</g>
	</g>
	<path d="M327.6,380.7c0.8-1.4,2.5-1.9,3.9-1.1s1.9,2.5,1.1,3.9s-2.5,1.9-3.9,1.1C327.2,383.9,326.8,382.1,327.6,380.7L327.6,380.7z
		"/>
	<path d="M298.5,409.2c0.8-1.4,2.5-1.9,3.9-1.1s1.9,2.5,1.1,3.9s-2.5,1.9-3.9,1.1C298.2,412.3,297.7,410.6,298.5,409.2L298.5,409.2z
		"/>
	<path d="M360.5,401.2c0.8-1.4,2.5-1.9,3.9-1.1s1.9,2.5,1.1,3.9s-2.5,1.9-3.9,1.1C360.2,404.3,359.7,402.6,360.5,401.2L360.5,401.2z
		"/>
	<path d="M278.1,448.5c0.8-1.4,2.5-1.9,3.9-1.1s1.9,2.5,1.1,3.9s-2.5,1.9-3.9,1.1C277.8,451.6,277.3,449.9,278.1,448.5L278.1,448.5z
		"/>
	<path d="M383.8,433.5c0.8-1.4,2.5-1.9,3.9-1.1s1.9,2.5,1.1,3.9s-2.5,1.9-3.9,1.1S383,434.9,383.8,433.5L383.8,433.5z"/>
	<path d="M369.7,447.6c0.8-1.4,2.5-1.9,3.9-1.1s1.9,2.5,1.1,3.9s-2.5,1.9-3.9,1.1C369.4,450.8,368.9,449,369.7,447.6L369.7,447.6z"
		/>
	<path d="M313.4,454.6c0.8-1.4,2.5-1.9,3.9-1.1s1.9,2.5,1.1,3.9s-2.5,1.9-3.9,1.1C313.1,457.8,312.6,456,313.4,454.6L313.4,454.6z"
		/>
	<path d="M345.5,463.7c0.8-1.4,2.5-1.9,3.9-1.1s1.9,2.5,1.1,3.9s-2.5,1.9-3.9,1.1C345.2,466.9,344.8,465.1,345.5,463.7L345.5,463.7z
		"/>
	<path d="M335.8,432.8c0.8-1.4,2.5-1.9,3.9-1.1s1.9,2.5,1.1,3.9s-2.5,1.9-3.9,1.1S335,434.2,335.8,432.8L335.8,432.8z"/>
	<path d="M340.5,421.6c0.8-1.4,2.5-1.9,3.9-1.1s1.9,2.5,1.1,3.9s-2.5,1.9-3.9,1.1C340.2,424.8,339.7,423,340.5,421.6L340.5,421.6z"
		/>
	<g>
		<g>
			<g>
				<g>
					<text transform="matrix(1.0032 0 0 1 349.248 478.8877)" font-family="'ArialMT'" font-size="11">J</text>
				</g>
			</g>
		</g>
	</g>
</g>
<g>
	<g>
		<g>
			<g>
				<text transform="matrix(1.0032 0 0 1 270.1494 548.3711)" font-family="'ArialMT'" font-size="11">M</text>
			</g>
		</g>
	</g>
</g>
<g>
	<g>
		<g>
			<g>
				<text transform="matrix(1.0032 0 0 1 314.2363 524.2617)" font-family="'ArialMT'" font-size="11">P</text>
			</g>
		</g>
	</g>
</g>
<g>
	<g>
		<g>
			<g>
				<text transform="matrix(1.0032 0 0 1 340.5215 525.1152)" font-family="'ArialMT'" font-size="11">W</text>
			</g>
		</g>
	</g>
</g>
<g>
	<g>
		<g>
			<g>
				<text transform="matrix(1.0032 0 0 1 326.2773 620.6846)" font-family="'ArialMT'" font-size="11">J</text>
			</g>
		</g>
	</g>
</g>
<g>
	<g>
		<g>
			<g>
				<text transform="matrix(1.0032 0 0 1 272.3701 576.3486)" font-family="'ArialMT'" font-size="11">Y</text>
			</g>
		</g>
	</g>
</g>
<g>
	<g>
		<g>
			<g>
				<text transform="matrix(1.0032 0 0 1 290.0908 531.7383)" font-family="'ArialMT'" font-size="8.5192">X</text>
			</g>
		</g>
	</g>
</g>
<g>
	<g>
		<g>
			<g>
				<text transform="matrix(1.0032 0 0 1 294.5332 615.6709)" font-family="'ArialMT'" font-size="11">Q</text>
			</g>
		</g>
	</g>
</g>
<g>
	<g>
		<g>
			<g>
				<text transform="matrix(1.0032 0 0 1 271.5381 598.1084)" font-family="'ArialMT'" font-size="11">I</text>
			</g>
		</g>
	</g>
</g>
<g>
	<g>
		<g>
			<g>
				<text transform="matrix(1.0032 0 0 1 299.0659 581.75)" font-family="'ArialMT'" font-size="11">T</text>
			</g>
		</g>
	</g>
</g>
<g>
	<g>
		<g>
			<g>
				<text transform="matrix(1.0032 0 0 1 324.8174 554.6445)" font-family="'ArialMT'" font-size="11">B</text>
			</g>
		</g>
	</g>
</g>
<g>
	<g>
		<g>
			<g>
				<text transform="matrix(1.0032 0 0 1 302.9082 551.8643)" font-family="'ArialMT'" font-size="11">U</text>
			</g>
		</g>
	</g>
</g>
<g>
	<g>
		<g>
			<g>
				<text transform="matrix(1.0032 0 0 1 315.1318 592.7021)" font-family="'ArialMT'" font-size="11">L</text>
			</g>
		</g>
	</g>
</g>
<g>
	<g>
		<g>
			<g>
				<text transform="matrix(1.0032 0 0 1 334.8057 564.8145)" font-family="'ArialMT'" font-size="11">N</text>
			</g>
		</g>
	</g>
</g>
<g>
	<g>
		<g>
			<g>
				<text transform="matrix(1.0032 0 0 1 334.585 591.7637)" font-family="'ArialMT'" font-size="11">Z</text>
			</g>
		</g>
	</g>
</g>
<g>
	<g>
		<g>
			<g>
				<text transform="matrix(1.0032 0 0 1 355.9688 613.0332)" font-family="'ArialMT'" font-size="11">R</text>
			</g>
		</g>
	</g>
</g>
<g>
	<g>
		<g>
			<g>
				<text transform="matrix(1.0032 0 0 1 376.876 598.0518)" font-family="'ArialMT'" font-size="11">K</text>
			</g>
		</g>
	</g>
</g>
<g>
	<g>
		<g>
			<g>
				<text transform="matrix(1.0032 0 0 1 380.3174 566.6123)" font-family="'ArialMT'" font-size="11">A</text>
			</g>
		</g>
	</g>
</g>
<g>
	<g>
		<g>
			<g>
				<text transform="matrix(1.0032 0 0 1 374.2656 540.8652)" font-family="'ArialMT'" font-size="11">O</text>
			</g>
		</g>
	</g>
</g>
<g>
	<g>
		<g>
			<g>
				<text transform="matrix(1.0032 0 0 1 349.085 559.6582)" font-family="'ArialMT'" font-size="11">V</text>
			</g>
		</g>
	</g>
</g>
<g>
	<g>
		<g>
			<g>
				<text transform="matrix(1.0032 0 0 1 345.9805 577.999)" font-family="'ArialMT'" font-size="11">S</text>
			</g>
		</g>
	</g>
</g>
<path d="M278.2,594.1c0.8-1.4,2.5-1.9,3.9-1.1c1.4,0.8,1.9,2.5,1.1,3.9s-2.5,1.9-3.9,1.1C277.9,597.2,277.4,595.4,278.2,594.1
	L278.2,594.1z"/>
<path d="M282.2,546.1c0.8-1.4,2.5-1.9,3.9-1.1c1.4,0.8,1.9,2.5,1.1,3.9s-2.5,1.9-3.9,1.1C281.9,549.2,281.4,547.4,282.2,546.1
	L282.2,546.1z"/>
<path d="M327.2,605.1c0.8-1.4,2.5-1.9,3.9-1.1c1.4,0.8,1.9,2.5,1.1,3.9s-2.5,1.9-3.9,1.1C326.9,608.2,326.4,606.4,327.2,605.1
	L327.2,605.1z"/>
<path d="M370.1,589c0.8-1.4,2.5-1.9,3.9-1.1c1.4,0.8,1.9,2.5,1.1,3.9s-2.5,1.9-3.9,1.1C369.7,592.2,369.3,590.4,370.1,589L370.1,589
	z"/>
<path d="M314.3,528.8c0.8-1.4,2.5-1.9,3.9-1.1c1.4,0.8,1.9,2.5,1.1,3.9s-2.5,1.9-3.9,1.1C314,531.9,313.5,530.2,314.3,528.8
	L314.3,528.8z"/>
<path d="M367.1,539.6c0.8-1.4,2.5-1.9,3.9-1.1c1.4,0.8,1.9,2.5,1.1,3.9s-2.5,1.9-3.9,1.1C366.8,542.8,366.3,541,367.1,539.6
	L367.1,539.6z"/>
<path d="M314.5,577.7c0.8-1.4,2.5-1.9,3.9-1.1c1.4,0.8,1.9,2.5,1.1,3.9s-2.5,1.9-3.9,1.1S313.7,579.1,314.5,577.7L314.5,577.7z"/>
<path d="M300.7,586.2c0.8-1.4,2.5-1.9,3.9-1.1c1.4,0.8,1.9,2.5,1.1,3.9s-2.5,1.9-3.9,1.1C300.4,589.3,299.9,587.6,300.7,586.2
	L300.7,586.2z"/>
<path d="M300.7,601.6c0.8-1.4,2.5-1.9,3.9-1.1c1.4,0.8,1.9,2.5,1.1,3.9s-2.5,1.9-3.9,1.1C300.4,604.8,300,603,300.7,601.6
	L300.7,601.6z"/>
<path d="M281.4,570.7c0.8-1.4,2.5-1.9,3.9-1.1c1.4,0.8,1.9,2.5,1.1,3.9s-2.5,1.9-3.9,1.1C281.1,573.9,280.6,572.1,281.4,570.7
	L281.4,570.7z"/>
<path d="M306.4,555c0.8-1.4,2.5-1.9,3.9-1.1c1.4,0.8,1.9,2.5,1.1,3.9s-2.5,1.9-3.9,1.1S305.6,556.4,306.4,555L306.4,555z"/>
<path d="M317.7,553c0.8-1.4,2.5-1.9,3.9-1.1c1.4,0.8,1.9,2.5,1.1,3.9s-2.5,1.9-3.9,1.1C317.4,556.2,316.9,554.4,317.7,553L317.7,553
	z"/>
<path d="M297.2,534.1c0.8-1.4,2.5-1.9,3.9-1.1c1.4,0.8,1.9,2.5,1.1,3.9s-2.5,1.9-3.9,1.1C296.9,537.3,296.5,535.5,297.2,534.1
	L297.2,534.1z"/>
<path d="M341.2,530.2c0.8-1.4,2.5-1.9,3.9-1.1c1.4,0.8,1.9,2.5,1.1,3.9s-2.5,1.9-3.9,1.1C340.9,533.3,340.5,531.6,341.2,530.2
	L341.2,530.2z"/>
<path d="M347.7,545c0.8-1.4,2.5-1.9,3.9-1.1c1.4,0.8,1.9,2.5,1.1,3.9s-2.5,1.9-3.9,1.1C347.4,548.1,346.9,546.4,347.7,545L347.7,545
	z"/>
<path d="M372.3,564c0.8-1.4,2.5-1.9,3.9-1.1c1.4,0.8,1.9,2.5,1.1,3.9s-2.5,1.9-3.9,1.1S371.5,565.4,372.3,564L372.3,564z"/>
<path d="M352.1,599c0.8-1.4,2.5-1.9,3.9-1.1c1.4,0.8,1.9,2.5,1.1,3.9s-2.5,1.9-3.9,1.1C351.8,602.1,351.3,600.4,352.1,599L352.1,599
	z"/>
<path d="M346.7,581.6c0.8-1.4,2.5-1.9,3.9-1.1c1.4,0.8,1.9,2.5,1.1,3.9s-2.5,1.9-3.9,1.1C346.4,584.8,345.9,583,346.7,581.6
	L346.7,581.6z"/>
<path d="M330.2,578.7c0.8-1.4,2.5-1.9,3.9-1.1c1.4,0.8,1.9,2.5,1.1,3.9s-2.5,1.9-3.9,1.1C329.9,581.9,329.4,580.1,330.2,578.7
	L330.2,578.7z"/>
<path d="M328.7,557.2c0.8-1.4,2.5-1.9,3.9-1.1c1.4,0.8,1.9,2.5,1.1,3.9s-2.5,1.9-3.9,1.1C328.4,560.3,327.9,558.6,328.7,557.2
	L328.7,557.2z"/>
<g>
	<g>
		<g>
			<g>
				<g>
					<text transform="matrix(1.0005 0 0 1 27.7393 11)" font-family="'ArialMT'" font-size="11">Y</text>
				</g>
			</g>
		</g>
	</g>
	<g>
		<g>
			<polygon fill="#FFFFFF" points="33.4,24.4 30.5,13.5 27.6,24.4 			"/>
		</g>
		<g>
			<line fill="none" stroke="#000000" stroke-linecap="square" x1="30.6" y1="22.4" x2="30.6" y2="42.4"/>
			<polygon points="33.4,24.4 30.5,13.5 27.6,24.4 			"/>
		</g>
	</g>
	<g>
		<g>
			<g>
				<g>
					<text transform="matrix(1.0014 0 0 1 0 61.9502)" font-family="'ArialMT'" font-size="11">Z</text>
				</g>
			</g>
		</g>
	</g>
	<g>
		<g>
			<g>
				<g>
					<text transform="matrix(1.0014 0 0 1 60.835 46.3828)" font-family="'ArialMT'" font-size="11">X</text>
				</g>
			</g>
		</g>
	</g>
	<g>
		<g>
			<polygon fill="#FFFFFF" points="49.4,45.2 60.3,42.3 49.4,39.4 			"/>
		</g>
		<g>
			<line fill="none" stroke="#000000" stroke-linecap="square" x1="51.4" y1="42.4" x2="30.6" y2="42.4"/>
			<polygon points="49.4,45.2 60.3,42.3 49.4,39.4 			"/>
		</g>
	</g>
	<g>
		<g>
			<polygon fill="#FFFFFF" points="15.5,49 8.3,57.5 18.8,53.8 			"/>
		</g>
		<g>
			<line fill="none" stroke="#000000" stroke-linecap="square" x1="15.5" y1="52.5" x2="30.4" y2="42.3"/>
			<polygon points="15.5,49 8.3,57.5 18.8,53.8 			"/>
		</g>
	</g>
</g>
</svg>
