<?xml version="1.0" encoding="utf-8"?>
<!-- Generator: Adobe Illustrator 17.1.0, SVG Export Plug-In . SVG Version: 6.00 Build 0)  -->

<svg version="1.1" id="Layer_1" xmlns="http://www.w3.org/2000/svg" xmlns:xlink="http://www.w3.org/1999/xlink" x="0px" y="0px"
	 width="379.5px" height="339.1px" viewBox="0 0 379.5 339.1" enable-background="new 0 0 379.5 339.1" xml:space="preserve">
<g>
	<line fill="none" stroke="#000000" stroke-dasharray="5.76" x1="0.3" y1="151.3" x2="229.6" y2="0.4"/>
	<g>
		<g>
			<polygon fill="#FFFFFF" points="87.8,96.3 93.4,90.1 85.4,92.7 			"/>
			<polygon fill="#FFFFFF" points="28.1,75 21.9,69.4 24.5,77.4 			"/>
		</g>
		<g>
			<polyline fill="none" stroke="#000000" points="25.5,74.9 53,116.7 87.8,93.7 			"/>
			<polygon points="87.8,96.3 93.4,90.1 85.4,92.7 			"/>
			<polygon points="28.1,75 21.9,69.4 24.5,77.4 			"/>
		</g>
	</g>
	<g>
		<g>
			<polygon fill="#FFFFFF" points="47.5,155 48.9,163.3 51.8,155.4 			"/>
		</g>
		<g>
			<line fill="none" stroke="#000000" x1="53" y1="116.7" x2="49.5" y2="156.7"/>
			<polygon points="47.5,155 48.9,163.3 51.8,155.4 			"/>
		</g>
	</g>
	<g>
		<g>
			<polygon fill="#FFFFFF" points="164.6,45.8 170.2,39.5 162.2,42.1 			"/>
			<polygon fill="#FFFFFF" points="112,35.1 105.9,29.3 108.3,37.4 			"/>
		</g>
		<g>
			<polyline fill="none" stroke="#000000" points="109.4,35 128.8,66.8 164.7,43.1 			"/>
			<polygon points="164.6,45.8 170.2,39.5 162.2,42.1 			"/>
			<polygon points="112,35.1 105.9,29.3 108.3,37.4 			"/>
		</g>
	</g>
	<g>
		<g>
			<g>
				<g>
					<text transform="matrix(1 0 0 1 114.5217 66.4328)" font-family="'ArialMT'" font-size="11">J</text>
				</g>
			</g>
		</g>
	</g>
	<g>
		<g>
			<g>
				<g>
					<text transform="matrix(1 0 0 1 39.6882 118.6735)" font-family="'ArialMT'" font-size="11">I</text>
				</g>
			</g>
		</g>
	</g>
	<g>
		<g>
			<g>
				<g>
					<g>
						<text transform="matrix(1 0 0 1 127.7717 120.4235)" font-family="'ArialMT'" font-size="11">e</text>
					</g>
				</g>
			</g>
		</g>
		<g>
			<g>
				<g>
					<g>
						<text transform="matrix(1 0 0 1 135.5217 114.6735)" font-family="'ArialMT'" font-size="10">J</text>
					</g>
				</g>
			</g>
		</g>
		<g>
			<g>
				<g>
					<g>
						<text transform="matrix(1 0 0 1 135.2717 124.9235)" font-family="'ArialMT'" font-size="10">3</text>
					</g>
				</g>
			</g>
		</g>
	</g>
	<g>
		<g>
			<g>
				<g>
					<g>
						<text transform="matrix(1 0 0 1 84.6882 35.1735)" font-family="'ArialMT'" font-size="11">e</text>
					</g>
				</g>
			</g>
		</g>
		<g>
			<g>
				<g>
					<g>
						<text transform="matrix(1 0 0 1 92.1882 30.1735)" font-family="'ArialMT'" font-size="10">J</text>
					</g>
				</g>
			</g>
		</g>
		<g>
			<g>
				<g>
					<g>
						<text transform="matrix(1 0 0 1 92.1882 40.6735)" font-family="'ArialMT'" font-size="10">2</text>
					</g>
				</g>
			</g>
		</g>
	</g>
	<path d="M124.9,66.8c0-1.6,1.3-2.9,2.9-2.9c1.6,0,2.9,1.3,2.9,2.9s-1.3,2.9-2.9,2.9C126.2,69.7,124.9,68.4,124.9,66.8L124.9,66.8z"
		/>
	<path d="M49.1,115.8c0-1.6,1.3-2.9,2.9-2.9c1.6,0,2.9,1.3,2.9,2.9s-1.3,2.9-2.9,2.9C50.4,118.7,49.1,117.4,49.1,115.8L49.1,115.8z"
		/>
	<g>
		<g>
			<g>
				<g>
					<g>
						
							<text transform="matrix(0.9999 1.600000e-002 -1.600000e-002 0.9999 79.9346 111.8398)" font-family="'ArialMT'" font-size="11">e</text>
					</g>
				</g>
			</g>
		</g>
		<g>
			<g>
				<g>
					<g>
						<text transform="matrix(1 0 0 1 85.9707 117.3883)" font-family="'ArialMT'" font-size="10">1</text>
					</g>
				</g>
			</g>
		</g>
		<g>
			<g>
				<g>
					<g>
						<text transform="matrix(1 0 0 1 87.9707 106.3883)" font-family="'ArialMT'" font-size="10">I</text>
					</g>
				</g>
			</g>
		</g>
	</g>
	<g>
		<g>
			<g>
				<g>
					<g>
						<text transform="matrix(1 0 0 1 22.3557 60.5055)" font-family="'ArialMT'" font-size="11">e</text>
					</g>
				</g>
			</g>
		</g>
		<g>
			<g>
				<g>
					<g>
						<text transform="matrix(1 0 0 1 28.8557 56.5055)" font-family="'ArialMT'" font-size="10">I</text>
					</g>
				</g>
			</g>
		</g>
		<g>
			<g>
				<g>
					<g>
						<text transform="matrix(1 0 0 1 28.8557 66.5055)" font-family="'ArialMT'" font-size="10">2</text>
					</g>
				</g>
			</g>
		</g>
	</g>
	<g>
		<g>
			<g>
				<g>
					<g>
						
							<text transform="matrix(0.9999 1.600000e-002 -1.600000e-002 0.9999 31.8183 159.9589)" font-family="'ArialMT'" font-size="11">e</text>
					</g>
				</g>
			</g>
		</g>
		<g>
			<g>
				<g>
					<g>
						<text transform="matrix(1 0 0 1 37.8542 165.5075)" font-family="'ArialMT'" font-size="10">3</text>
					</g>
				</g>
			</g>
		</g>
		<g>
			<g>
				<g>
					<g>
						<text transform="matrix(1 0 0 1 39.8542 154.5075)" font-family="'ArialMT'" font-size="10">I</text>
					</g>
				</g>
			</g>
		</g>
	</g>
	<g>
		<g>
			<g>
				<g>
					<g>
						
							<text transform="matrix(0.9999 1.600000e-002 -1.600000e-002 0.9999 162.6022 58.1733)" font-family="'ArialMT'" font-size="11">e</text>
					</g>
				</g>
			</g>
		</g>
		<g>
			<g>
				<g>
					<g>
						<text transform="matrix(1 0 0 1 168.6382 63.7218)" font-family="'ArialMT'" font-size="10">1</text>
					</g>
				</g>
			</g>
		</g>
		<g>
			<g>
				<g>
					<g>
						<text transform="matrix(1 0 0 1 170.6382 52.7218)" font-family="'ArialMT'" font-size="10">J</text>
					</g>
				</g>
			</g>
		</g>
	</g>
	<g>
		<g>
			<polygon fill="#FFFFFF" points="122.1,105.7 123.6,114 126.5,106.1 			"/>
		</g>
		<g>
			<line fill="none" stroke="#000000" x1="127.6" y1="67.3" x2="124.1" y2="107.3"/>
			<polygon points="122.1,105.7 123.6,114 126.5,106.1 			"/>
		</g>
	</g>
</g>
<g>
	<line fill="none" stroke="#000000" stroke-dasharray="5.76" x1="97.8" y1="321.7" x2="327.2" y2="170.8"/>
	<g>
		<g>
			<polygon fill="#FFFFFF" points="185.3,266.7 190.9,260.4 182.9,263 			"/>
			<polygon fill="#FFFFFF" points="125.7,245.3 119.4,239.7 122.1,247.7 			"/>
		</g>
		<g>
			<polyline fill="none" stroke="#000000" points="123.1,245.3 150.5,287 185.4,264.1 			"/>
			<polygon points="185.3,266.7 190.9,260.4 182.9,263 			"/>
			<polygon points="125.7,245.3 119.4,239.7 122.1,247.7 			"/>
		</g>
	</g>
	<g>
		<g>
			<polygon fill="#FFFFFF" points="145,325.3 146.5,333.6 149.4,325.7 			"/>
		</g>
		<g>
			<line fill="none" stroke="#000000" x1="150.5" y1="287" x2="147" y2="327"/>
			<polygon points="145,325.3 146.5,333.6 149.4,325.7 			"/>
		</g>
	</g>
	<g>
		<g>
			<polygon fill="#FFFFFF" points="262.2,216.1 267.8,209.8 259.8,212.5 			"/>
			<polygon fill="#FFFFFF" points="209.5,205.5 203.4,199.7 205.8,207.8 			"/>
		</g>
		<g>
			<polyline fill="none" stroke="#000000" points="206.9,205.3 226.4,237.1 262.3,213.5 			"/>
			<polygon points="262.2,216.1 267.8,209.8 259.8,212.5 			"/>
			<polygon points="209.5,205.5 203.4,199.7 205.8,207.8 			"/>
		</g>
	</g>
	<g>
		<g>
			<g>
				<g>
					<text transform="matrix(1 0 0 1 212.0865 236.7662)" font-family="'ArialMT'" font-size="11">J</text>
				</g>
			</g>
		</g>
	</g>
	<g>
		<g>
			<g>
				<g>
					<text transform="matrix(1 0 0 1 137.2525 289.0065)" font-family="'ArialMT'" font-size="11">I</text>
				</g>
			</g>
		</g>
	</g>
	<g>
		<g>
			<g>
				<g>
					<g>
						<text transform="matrix(1 0 0 1 228.0027 271.4225)" font-family="'ArialMT'" font-size="11">e</text>
					</g>
				</g>
			</g>
		</g>
		<g>
			<g>
				<g>
					<g>
						<text transform="matrix(1 0 0 1 235.7527 265.6725)" font-family="'ArialMT'" font-size="10">J</text>
					</g>
				</g>
			</g>
		</g>
		<g>
			<g>
				<g>
					<g>
						<text transform="matrix(1 0 0 1 235.5027 275.9225)" font-family="'ArialMT'" font-size="10">2</text>
					</g>
				</g>
			</g>
		</g>
	</g>
	<g>
		<g>
			<g>
				<g>
					<g>
						<text transform="matrix(1 0 0 1 182.2527 205.5065)" font-family="'ArialMT'" font-size="11">e</text>
					</g>
				</g>
			</g>
		</g>
		<g>
			<g>
				<g>
					<g>
						<text transform="matrix(1 0 0 1 189.7527 200.5065)" font-family="'ArialMT'" font-size="10">J</text>
					</g>
				</g>
			</g>
		</g>
		<g>
			<g>
				<g>
					<g>
						<text transform="matrix(1 0 0 1 189.7527 211.0065)" font-family="'ArialMT'" font-size="10">1</text>
					</g>
				</g>
			</g>
		</g>
	</g>
	<path d="M222.5,237.8c0-1.6,1.3-2.9,2.9-2.9c1.6,0,2.9,1.3,2.9,2.9c0,1.6-1.3,2.9-2.9,2.9S222.5,239.4,222.5,237.8L222.5,237.8z"/>
	<path d="M147.3,286.8c0-1.6,1.3-2.9,2.9-2.9c1.6,0,2.9,1.3,2.9,2.9s-1.3,2.9-2.9,2.9C148.6,289.7,147.3,288.4,147.3,286.8
		L147.3,286.8z"/>
	<g>
		<g>
			<g>
				<g>
					<g>
						
							<text transform="matrix(0.9999 1.600000e-002 -1.600000e-002 0.9999 177.4996 282.1728)" font-family="'ArialMT'" font-size="11">e</text>
					</g>
				</g>
			</g>
		</g>
		<g>
			<g>
				<g>
					<g>
						<text transform="matrix(1 0 0 1 183.5359 287.7213)" font-family="'ArialMT'" font-size="10">3</text>
					</g>
				</g>
			</g>
		</g>
		<g>
			<g>
				<g>
					<g>
						<text transform="matrix(1 0 0 1 185.5359 276.7213)" font-family="'ArialMT'" font-size="10">I</text>
					</g>
				</g>
			</g>
		</g>
	</g>
	<g>
		<g>
			<g>
				<g>
					<g>
						<text transform="matrix(1 0 0 1 119.9206 230.8385)" font-family="'ArialMT'" font-size="11">e</text>
					</g>
				</g>
			</g>
		</g>
		<g>
			<g>
				<g>
					<g>
						<text transform="matrix(1 0 0 1 126.4206 226.8385)" font-family="'ArialMT'" font-size="10">I</text>
					</g>
				</g>
			</g>
		</g>
		<g>
			<g>
				<g>
					<g>
						<text transform="matrix(1 0 0 1 126.4206 236.8385)" font-family="'ArialMT'" font-size="10">1</text>
					</g>
				</g>
			</g>
		</g>
	</g>
	<g>
		<g>
			<g>
				<g>
					<g>
						
							<text transform="matrix(0.9999 1.600000e-002 -1.600000e-002 0.9999 129.3826 330.2919)" font-family="'ArialMT'" font-size="11">e</text>
					</g>
				</g>
			</g>
		</g>
		<g>
			<g>
				<g>
					<g>
						<text transform="matrix(1 0 0 1 135.4185 335.8405)" font-family="'ArialMT'" font-size="10">2</text>
					</g>
				</g>
			</g>
		</g>
		<g>
			<g>
				<g>
					<g>
						<text transform="matrix(1 0 0 1 137.4185 324.8405)" font-family="'ArialMT'" font-size="10">I</text>
					</g>
				</g>
			</g>
		</g>
	</g>
	<g>
		<g>
			<g>
				<g>
					<g>
						
							<text transform="matrix(0.9999 1.600000e-002 -1.600000e-002 0.9999 260.1666 228.5068)" font-family="'ArialMT'" font-size="11">e</text>
					</g>
				</g>
			</g>
		</g>
		<g>
			<g>
				<g>
					<g>
						<text transform="matrix(1 0 0 1 266.2029 234.0553)" font-family="'ArialMT'" font-size="10">3</text>
					</g>
				</g>
			</g>
		</g>
		<g>
			<g>
				<g>
					<g>
						<text transform="matrix(1 0 0 1 268.2029 223.0553)" font-family="'ArialMT'" font-size="10">J</text>
					</g>
				</g>
			</g>
		</g>
	</g>
	<g>
		<g>
			<polygon fill="#FFFFFF" points="219.7,276 221.2,284.3 224,276.4 			"/>
		</g>
		<g>
			<line fill="none" stroke="#000000" x1="225.2" y1="237.7" x2="221.7" y2="277.7"/>
			<polygon points="219.7,276 221.2,284.3 224,276.4 			"/>
		</g>
	</g>
</g>
<g>
	<g>
		<g>
			<polygon fill="#FFFFFF" points="373.9,45.1 379.5,38.8 371.5,41.5 			"/>
			<polygon fill="#FFFFFF" points="321.2,34.5 315.1,28.7 317.5,36.8 			"/>
		</g>
		<g>
			<polyline fill="none" stroke="#000000" points="318.6,34.4 338.1,66.1 374,42.5 			"/>
			<polygon points="373.9,45.1 379.5,38.8 371.5,41.5 			"/>
			<polygon points="321.2,34.5 315.1,28.7 317.5,36.8 			"/>
		</g>
	</g>
	<path fill="none" stroke="#000000" d="M241,84c8.8-7.1,20.1-10.1,30.9-7.1c19.2,5.3,29.8,27.3,23.8,49.1
		c-3.3,11.8-10.7,21.2-20,26.4"/>
	<line fill="none" stroke="#000000" x1="239" y1="173.7" x2="279.9" y2="149.7"/>
	<line fill="none" stroke="#000000" x1="206.5" y1="103.5" x2="252" y2="77.7"/>
	
		<ellipse transform="matrix(0.2659 -0.964 0.964 0.2659 27.1315 315.8034)" fill="none" stroke="#000000" cx="220.9" cy="140.1" rx="41" ry="36"/>
	
		<ellipse transform="matrix(0.2659 -0.964 0.964 0.2659 27.121 315.801)" fill="none" stroke="#000000" cx="220.9" cy="140.1" rx="20.5" ry="18"/>
	<line fill="none" stroke="#742056" x1="325" y1="52.4" x2="326.8" y2="51.2"/>
	<line fill="none" stroke="#000000" x1="279.8" y1="80.7" x2="325" y2="52.4"/>
	<line fill="none" stroke="#000000" stroke-dasharray="5.76" x1="213.6" y1="122.2" x2="279.8" y2="80.7"/>
	<line fill="none" stroke="#000000" x1="297.5" y1="114.4" x2="344.8" y2="85.2"/>
	<line fill="none" stroke="#000000" stroke-dasharray="5.76" x1="234.1" y1="153.6" x2="297.5" y2="114.4"/>
	<path fill="none" stroke="#000000" d="M325,52.5c4.3-3.2,9.7-4.5,14.8-3.1c9.6,2.6,14.9,13.6,11.9,24.5c-1.6,5.9-5.4,10.6-10,13.2"
		/>
	<path fill="none" stroke="#000000" stroke-dasharray="5.76" d="M341.8,87.2c-3.9,2.2-8.4,3-12.8,1.7c-9.6-2.6-14.9-13.6-11.9-24.5
		c1.4-5,4.3-9.2,8-11.9"/>
	<g>
		<line fill="none" stroke="#000000" stroke-dasharray="36,5.76,3.6,5.76" x1="142.4" y1="193.1" x2="336.8" y2="66.5"/>
	</g>
	<g>
		<g>
			<polygon fill="#FFFFFF" points="276.6,163.5 282.5,157.4 274.4,159.7 			"/>
			<polygon fill="#FFFFFF" points="250.5,173.8 244.6,179.8 252.7,177.6 			"/>
		</g>
		<g>
			<line fill="none" stroke="#000000" x1="250.3" y1="176.4" x2="276.8" y2="160.8"/>
			<polygon points="276.6,163.5 282.5,157.4 274.4,159.7 			"/>
			<polygon points="250.5,173.8 244.6,179.8 252.7,177.6 			"/>
		</g>
	</g>
	<g>
		<g>
			<polygon fill="#FFFFFF" points="135.7,174.6 132.3,182.3 139.1,177.4 			"/>
		</g>
		<g>
			<path fill="none" stroke="#000000" d="M136.4,177.1c3.4-4.2,8.2-6.8,13.6-6.7c9.9,0.2,17.9,9.5,17.7,20.8
				c-0.1,6.1-2.6,11.6-6.4,15.3"/>
			<polygon points="135.7,174.6 132.3,182.3 139.1,177.4 			"/>
		</g>
	</g>
	<g>
		<g>
			<polygon fill="#FFFFFF" points="230,103 235.6,96.8 227.6,99.4 			"/>
			<polygon fill="#FFFFFF" points="170.4,81.7 164.1,76.1 166.8,84.1 			"/>
		</g>
		<g>
			<polyline fill="none" stroke="#000000" points="167.8,81.6 195.3,123.4 230.1,100.4 			"/>
			<polygon points="230,103 235.6,96.8 227.6,99.4 			"/>
			<polygon points="170.4,81.7 164.1,76.1 166.8,84.1 			"/>
		</g>
	</g>
	<g>
		<g>
			<polygon fill="#FFFFFF" points="190.4,161.7 191.9,170 194.7,162.1 			"/>
		</g>
		<g>
			<line fill="none" stroke="#000000" x1="195.9" y1="123.4" x2="192.4" y2="163.4"/>
			<polygon points="190.4,161.7 191.9,170 194.7,162.1 			"/>
		</g>
	</g>
	<g>
		<g>
			<g>
				<g>
					<text transform="matrix(1 0 0 1 182.6255 125.3727)" font-family="'ArialMT'" font-size="11">I</text>
				</g>
			</g>
		</g>
	</g>
	<g>
		<g>
			<g>
				<g>
					<text transform="matrix(1 0 0 1 323.7924 65.7994)" font-family="'ArialMT'" font-size="11">J</text>
				</g>
			</g>
		</g>
	</g>
	<path d="M334.2,66.9c0-1.6,1.3-2.9,2.9-2.9s2.9,1.3,2.9,2.9s-1.3,2.9-2.9,2.9S334.2,68.5,334.2,66.9L334.2,66.9z"/>
	<g>
		<g>
			<polygon fill="#FFFFFF" points="331.4,105 332.9,113.3 335.7,105.4 			"/>
		</g>
		<g>
			<line fill="none" stroke="#000000" x1="336.9" y1="66.7" x2="333.4" y2="106.7"/>
			<polygon points="331.4,105 332.9,113.3 335.7,105.4 			"/>
		</g>
	</g>
	<path d="M193,122.2c0-1.6,1.3-2.9,2.9-2.9c1.6,0,2.9,1.3,2.9,2.9s-1.3,2.9-2.9,2.9S193,123.8,193,122.2L193,122.2z"/>
</g>
<g>
	<g>
		<g>
			<g>
				<g>
					<text transform="matrix(1 0 0 1 0.239 179.8307)" font-family="'ArialMT'" font-size="11">Local x-axis as the axis </text>
				</g>
			</g>
		</g>
	</g>
	<g>
		<g>
			<g>
				<g>
					<text transform="matrix(1 0 0 1 0.239 192.8307)" font-family="'ArialMT'" font-size="11">of cylindrical joint</text>
				</g>
			</g>
		</g>
	</g>
</g>
<g>
	<g>
		<g>
			<g>
				<g>
					<text transform="matrix(1 0 0 1 189.239 320.8307)" font-family="'ArialMT'" font-size="11">Local z-axis as the axis </text>
				</g>
			</g>
		</g>
	</g>
	<g>
		<g>
			<g>
				<g>
					<text transform="matrix(1 0 0 1 189.239 333.8307)" font-family="'ArialMT'" font-size="11">of cylindrical joint</text>
				</g>
			</g>
		</g>
	</g>
</g>
</svg>
