<?xml version="1.0" encoding="utf-8"?>
<!-- Generator: Adobe Illustrator 17.1.0, SVG Export Plug-In . SVG Version: 6.00 Build 0)  -->

<svg version="1.1" id="Layer_1" xmlns="http://www.w3.org/2000/svg" xmlns:xlink="http://www.w3.org/1999/xlink" x="0px" y="0px"
	 width="455.9px" height="212.5px" viewBox="0 0 455.9 212.5" enable-background="new 0 0 455.9 212.5" xml:space="preserve">
<g>
	<g>
		<polygon fill="#FFFFFF" points="147.2,154.9 141.9,148.4 143.3,156.7 		"/>
	</g>
	<g>
		<polyline fill="none" stroke="#000000" points="179.7,203.7 167,203.7 144.7,154.5 		"/>
		<polygon points="147.2,154.9 141.9,148.4 143.3,156.7 		"/>
	</g>
</g>
<g>
	<g>
		<g>
			<polygon fill="#FFFFFF" points="199.6,68 204.7,74.7 203.7,66.4 			"/>
		</g>
	</g>
	<g>
		<g>
			<polyline fill="none" stroke="#000000" stroke-linejoin="round" stroke-miterlimit="10" points="202.2,68.6 188,33 172.7,32.9 
							"/>
			<polygon points="199.6,68 204.7,74.7 203.7,66.4 			"/>
		</g>
	</g>
</g>
<path fill="none" stroke="#009BDB" stroke-width="0.8881" stroke-linejoin="round" stroke-miterlimit="10" d="M71.8,159.5
	c18.2,1.1,36.4,2.1,52.7,2.4c16.2,0.2,29.6-0.4,44.6-1.1c14.9-0.8,36-2.1,50.9-4.6"/>
<path fill="none" stroke="#009BDB" stroke-width="1.0252" stroke-linecap="round" stroke-linejoin="round" stroke-miterlimit="10" stroke-dasharray="26.64,4.32,2.88,4.32" d="
	M215.9,134.3c10.6-1.9,28.4-5,40.3-7.1"/>
<path fill="none" stroke="#009BDB" stroke-width="1.0252" stroke-linecap="round" stroke-linejoin="round" stroke-miterlimit="10" d="
	M105.3,141.5c9.3,0,18.6-0.2,27,0c16.2,0.4,32.1-0.5,44.8-1.9c12.8-1.3,19.6-1.8,31.8-4c2.2-0.4,4.6-0.8,6.9-1.3"/>
<path fill="none" stroke="#009BDB" stroke-width="1.0252" stroke-linecap="round" stroke-linejoin="round" stroke-miterlimit="10" d="
	M64.6,138.4c5.4,0.6,10.8,1.1,15.9,1.8c7.9,1,16.4,1.3,24.9,1.3"/>
<path fill="none" stroke="#009BDB" stroke-width="1.0252" stroke-linecap="round" stroke-linejoin="round" stroke-miterlimit="10" stroke-dasharray="26.6326,4.3669,2.7293,4.3669" d="
	M29.9,133.7c10.4,2.2,22.7,3.4,34.7,4.6"/>
<path fill="none" stroke="#009BDB" stroke-width="0.7145" stroke-linecap="round" stroke-miterlimit="10" d="M50.5,136.1
	c-1.5-14.2,4.2-26.8,12.9-28.2c8.7-1.4,16.8,8.8,18.4,23.1c1.5,14.2-4.2,26.8-12.9,28.2S52,150.3,50.5,136.1L50.5,136.1z"/>
<path fill="none" stroke="#009BDB" stroke-width="0.786" stroke-linecap="round" stroke-miterlimit="10" d="M197.5,132.5
	c-2.5-14.7,3.6-27.8,13.7-29.6c10.1-1.8,20.1,8.6,22.6,23.2c2.5,14.7-3.6,27.8-13.7,29.6C210,157.5,199.9,147.1,197.5,132.5
	L197.5,132.5z"/>
<g>
	<g>
		<g>
			<g>
				<g>
					<text transform="matrix(1 0 0 1 208.6751 93.5339)" font-family="'ArialMT'" font-size="11">r</text>
				</g>
			</g>
		</g>
	</g>
	<g>
		<g>
			<g>
				<g>
					<text transform="matrix(1 0 0 1 212.3382 96.5339)" font-family="'ArialMT'" font-size="10">c</text>
				</g>
			</g>
		</g>
	</g>
</g>
<g>
	<g>
		<polygon fill="#FFFFFF" points="405.8,27.9 406,19.5 401.6,26.7 		"/>
	</g>
	<g>
		<line fill="none" stroke="#000000" x1="394" y1="60.5" x2="404.2" y2="25.9"/>
		<polygon points="405.8,27.9 406,19.5 401.6,26.7 		"/>
	</g>
</g>
<path fill="none" stroke="#000000" stroke-width="1.522" stroke-linecap="round" stroke-linejoin="round" stroke-miterlimit="10" d="
	M431.7,45.1c12.8,31.2,5.9,62.8-15.5,70.5c-21.3,7.7-49-11.4-61.8-42.6s-5.9-62.8,15.5-70.5C391.2-5.2,418.9,13.8,431.7,45.1z"/>
<path fill="none" stroke="#000000" stroke-width="1.9706" stroke-linecap="round" stroke-linejoin="round" stroke-miterlimit="10" d="
	M65.6,171.5c83.2,10.8,190.9,1.3,347.9-54.6"/>
<path fill="none" stroke="#000000" stroke-width="1.8415" stroke-linecap="round" stroke-linejoin="round" stroke-miterlimit="10" d="
	M71,56.2C173.6,66,273.4,38,369.8,2.5"/>
<path fill="none" stroke="#000000" stroke-width="1.8" stroke-linecap="round" stroke-linejoin="round" stroke-miterlimit="10" stroke-dasharray="64.8,10.368,6.9547,10.368" d="
	M0.9,113c45.5,5.8,116,9.2,190.1,2c98.5-15,201.3-47.8,264-82.2"/>
<line fill="none" stroke="#000000" stroke-width="1.9319" x1="397.7" y1="63.8" x2="389.2" y2="56.3"/>
<path fill="none" stroke="#000000" stroke-width="1.8" stroke-linecap="round" d="M30.6,117.8C27.9,85.7,41.4,57.8,61,55
	c19.6-2.7,37.4,20.8,40.1,52.9s-10.8,60-30.4,62.7C51.2,173.4,33.3,149.9,30.6,117.8L30.6,117.8z"/>
<path fill="none" stroke="#000000" stroke-width="1.2984" stroke-linecap="round" stroke-linejoin="round" stroke-miterlimit="10" stroke-dasharray="10.368,6.912,10.368,6.912" d="
	M70.2,162.1c88.5,2.4,165.6,10.4,335.2-52.5"/>
<path fill="none" stroke="#000000" stroke-width="1.4315" stroke-linecap="round" d="M38.6,116.4c-2.3-26.3,8-49.1,23.1-51.3
	c15.1-2.1,29,17.2,31.2,43.5c2.3,26.3-8,49.1-23.1,51.2C54.8,162.1,40.9,142.8,38.6,116.4L38.6,116.4z"/>
<path fill="none" stroke="#000000" stroke-width="1.2" stroke-linecap="round" stroke-linejoin="round" stroke-miterlimit="10" d="
	M424.9,46.8c10.7,26.1,5.3,52.4-12,58.6s-40-9.9-50.7-36.1c-10.7-26.1-5.4-52.4,12-58.6C391.5,4.5,414.2,20.7,424.9,46.8z"/>
<path fill="none" stroke="#000000" stroke-width="1.1064" stroke-linecap="round" stroke-linejoin="round" stroke-miterlimit="10" stroke-dasharray="10.368,6.912,10.368,6.912" d="
	M76.5,68c76,1,140.2-2.1,287.8-50.1"/>
<path fill="none" stroke="#009BDB" stroke-width="0.9289" stroke-linejoin="round" stroke-miterlimit="10" d="M68,107.9
	c18.6,1,39.2,2.2,55.8,2.4c16.5,0,30.3-0.6,45.6-1.5c15.2-0.9,28.5-3.4,43.7-6.1"/>
<path d="M105.2,141.2c-0.3-1.6,0.8-3,2.4-3.3s3.1,0.8,3.3,2.4c0.3,1.6-0.8,3.1-2.4,3.3C107,143.8,105.5,142.8,105.2,141.2
	L105.2,141.2z"/>
<path d="M212.9,135.4c-0.3-1.6,0.8-3,2.4-3.3c1.6-0.3,3.1,0.8,3.3,2.4c0.3,1.6-0.8,3.1-2.4,3.3C214.6,138,213.1,136.9,212.9,135.4
	L212.9,135.4z"/>
<path d="M152.5,141.8c-0.3-1.6,0.8-3,2.4-3.3c1.6-0.3,3.1,0.8,3.3,2.4c0.3,1.6-0.8,3.1-2.4,3.3C154.2,144.5,152.8,143.4,152.5,141.8
	L152.5,141.8z"/>
<g>
	<g>
		<polygon fill="#FFFFFF" points="64.1,130.3 65.6,135.7 67,130.3 		"/>
		<polygon fill="#FFFFFF" points="67,124.8 65.6,119.4 64.1,124.8 		"/>
	</g>
	<g>
		<line fill="none" stroke="#000000" x1="65.6" y1="123.8" x2="65.6" y2="131.3"/>
		<polygon points="64.1,130.3 65.6,135.7 67,130.3 		"/>
		<polygon points="67,124.8 65.6,119.4 64.1,124.8 		"/>
	</g>
</g>
<g>
	<g>
		<g>
			<g>
				<text transform="matrix(1 0 0 1 70.2356 133.6199)" font-family="'ArialMT'" font-size="11">d</text>
			</g>
		</g>
	</g>
</g>
<path d="M62.2,137.9c-0.3-1.6,0.8-3,2.4-3.3s3.1,0.8,3.3,2.4c0.3,1.6-0.8,3.1-2.4,3.3C64,140.5,62.5,139.5,62.2,137.9L62.2,137.9z"
	/>
<g>
	<g>
		<polygon fill="#FFFFFF" points="68.4,92.5 66.2,84.3 64,92.5 		"/>
	</g>
	<g>
		<line fill="none" stroke="#000000" x1="66.2" y1="103.3" x2="66.2" y2="91"/>
		<polygon points="68.4,92.5 66.2,84.3 64,92.5 		"/>
	</g>
</g>
<g>
	<g>
		<g>
			<g>
				<text transform="matrix(1 0 0 1 63.5686 78.3104)" font-family="'ArialMT'" font-size="11">n</text>
			</g>
		</g>
	</g>
</g>
<g>
	<g>
		<g>
			<g>
				<text transform="matrix(1 0 0 1 187.2356 208.9771)" enable-background="new    "><tspan x="0" y="0" font-family="'ArialMT'" font-size="11">CON</tspan><tspan x="24.4" y="0" font-family="'ArialMT'" font-size="11">T</tspan><tspan x="30.3" y="0" font-family="'ArialMT'" font-size="11">A176</tspan></text>
			</g>
		</g>
	</g>
</g>
<g>
	<g>
		<polygon fill="#FFFFFF" points="215.4,110.9 212.3,103.1 211.1,111.4 		"/>
	</g>
	<g>
		<line fill="none" stroke="#000000" x1="216.1" y1="136" x2="213.1" y2="109.7"/>
		<polygon points="215.4,110.9 212.3,103.1 211.1,111.4 		"/>
	</g>
</g>
<g>
	<g>
		<g>
			<g>
				<g>
					<text transform="matrix(1 0 0 1 385.6741 35.868)" font-family="'ArialMT'" font-size="11">r</text>
				</g>
			</g>
		</g>
	</g>
	<g>
		<g>
			<g>
				<g>
					<text transform="matrix(1 0 0 1 389.3372 38.868)" font-family="'ArialMT'" font-size="10">t</text>
				</g>
			</g>
		</g>
	</g>
</g>
<g>
	<g>
		<g>
			<g>
				<text transform="matrix(1 0 0 1 111.5686 37.6439)" enable-background="new    "><tspan x="0" y="0" font-family="'ArialMT'" font-size="11">T</tspan><tspan x="5.9" y="0" font-family="'ArialMT'" font-size="11">ARGE170</tspan></text>
			</g>
		</g>
	</g>
</g>
</svg>
