<?xml version="1.0" encoding="utf-8"?>
<!-- Generator: Adobe Illustrator 17.1.0, SVG Export Plug-In . SVG Version: 6.00 Build 0)  -->

<svg version="1.1" id="Layer_1" xmlns="http://www.w3.org/2000/svg" xmlns:xlink="http://www.w3.org/1999/xlink" x="0px" y="0px"
	 width="469.4px" height="389.5px" viewBox="0 0 469.4 389.5" enable-background="new 0 0 469.4 389.5" xml:space="preserve">
<g>
	<g>
		<g>
			<polygon fill="#FFFFFF" points="79.8,8.1 77.6,0 75.5,8.1 			"/>
		</g>
		<g>
			<line fill="none" stroke="#000000" x1="77.7" y1="115" x2="77.7" y2="6.6"/>
			<polygon points="79.8,8.1 77.6,0 75.5,8.1 			"/>
		</g>
	</g>
	<g>
		<g>
			<polygon fill="#FFFFFF" points="130.7,62.8 138.8,60.6 130.7,58.4 			"/>
		</g>
		<g>
			<line fill="none" stroke="#000000" x1="132.2" y1="60.6" x2="23.8" y2="60.6"/>
			<polygon points="130.7,62.8 138.8,60.6 130.7,58.4 			"/>
		</g>
	</g>
</g>
<g>
	<g>
		<g>
			<polygon fill="#FFFFFF" points="231.5,8.8 229.3,0.7 227.1,8.8 			"/>
		</g>
		<g>
			<line fill="none" stroke="#000000" x1="229.3" y1="115.6" x2="229.3" y2="7.3"/>
			<polygon points="231.5,8.8 229.3,0.7 227.1,8.8 			"/>
		</g>
	</g>
	<g>
		<g>
			<polygon fill="#FFFFFF" points="282.3,63.5 290.5,61.3 282.3,59.1 			"/>
		</g>
		<g>
			<line fill="none" stroke="#000000" x1="283.8" y1="61.3" x2="175.5" y2="61.3"/>
			<polygon points="282.3,63.5 290.5,61.3 282.3,59.1 			"/>
		</g>
	</g>
</g>
<g>
	<g>
		<g>
			<polygon fill="#FFFFFF" points="385.5,8.5 383.3,0.3 381.1,8.5 			"/>
		</g>
		<g>
			<line fill="none" stroke="#000000" x1="383.3" y1="115.3" x2="383.3" y2="7"/>
			<polygon points="385.5,8.5 383.3,0.3 381.1,8.5 			"/>
		</g>
	</g>
	<g>
		<g>
			<polygon fill="#FFFFFF" points="436.3,63.1 444.5,61 436.3,58.8 			"/>
		</g>
		<g>
			<line fill="none" stroke="#000000" x1="437.8" y1="61" x2="329.5" y2="61"/>
			<polygon points="436.3,63.1 444.5,61 436.3,58.8 			"/>
		</g>
	</g>
</g>
<polyline fill="none" stroke="#000000" stroke-dasharray="8.64" points="77.7,60.8 50.9,100.9 31,104.4 "/>
<polyline fill="none" stroke="#000000" points="121.4,21.6 101.5,25.1 77.7,60.8 "/>
<path fill="none" stroke="#000000" d="M78.1,59.7c-20.4,15.2-31.9,18.2-48,21.7"/>
<path fill="none" stroke="#000000" d="M229.1,61.3c4-18.7,26.8-39.7,39.8-46.9"/>
<polyline fill="none" stroke="#000000" points="412.2,21 401.3,21.3 383.4,61 "/>
<path fill="none" stroke="#000000" d="M382.9,61.7c-12.8,19.7-32.4,36.3-47,21.7"/>
<path fill="none" stroke="#000000" stroke-dasharray="8.64" d="M382.8,61.5c10.1-14.7,38.5-31.8,46.9-28.2"/>
<g>
	<g>
		<g>
			<g>
				<text transform="matrix(1 0 0 1 370.3335 15.6445)" font-family="'Arial-BoldMT'" font-size="11">F</text>
			</g>
		</g>
	</g>
</g>
<g>
	<g>
		<g>
			<g>
				<text transform="matrix(1 0 0 1 216.6665 15.6445)" font-family="'Arial-BoldMT'" font-size="11">F</text>
			</g>
		</g>
	</g>
</g>
<g>
	<g>
		<g>
			<g>
				<text transform="matrix(1 0 0 1 64.3335 15.6445)" font-family="'Arial-BoldMT'" font-size="11">F</text>
			</g>
		</g>
	</g>
</g>
<g>
	<g>
		<g>
			<g>
				<text transform="matrix(1 0 0 1 130 74.6442)" font-family="'Arial-BoldMT'" font-size="11">D</text>
			</g>
		</g>
	</g>
</g>
<g>
	<g>
		<g>
			<g>
				<text transform="matrix(1 0 0 1 280.6665 74.6442)" font-family="'Arial-BoldMT'" font-size="11">D</text>
			</g>
		</g>
	</g>
</g>
<g>
	<g>
		<g>
			<g>
				<text transform="matrix(1 0 0 1 433.6665 74.6442)" font-family="'Arial-BoldMT'" font-size="11">D</text>
			</g>
		</g>
	</g>
</g>
<g>
	<g>
		<g>
			<g>
				<text transform="matrix(1 0 0 1 206.667 49.9778)" font-family="'Arial-BoldMT'" font-size="11">(b)</text>
			</g>
		</g>
	</g>
</g>
<g>
	<g>
		<g>
			<g>
				<text transform="matrix(1 0 0 1 362.0005 50.6445)" font-family="'Arial-BoldMT'" font-size="11">(c)</text>
			</g>
		</g>
	</g>
</g>
<g>
	<g>
		<g>
			<g>
				<text transform="matrix(1 0 0 1 55.668 49.9778)" font-family="'Arial-BoldMT'" font-size="11">(a)</text>
			</g>
		</g>
	</g>
</g>
<g>
	<g>
		<g>
			<g>
				<g>
					<text transform="matrix(1 0 0 1 36 129.6445)" font-family="'Arial-BoldMT'" font-size="11">reflected or</text>
				</g>
			</g>
		</g>
	</g>
	<g>
		<g>
			<g>
				<g>
					<text transform="matrix(1 0 0 1 36 142.6445)" font-family="'Arial-BoldMT'" font-size="11">defined</text>
				</g>
			</g>
		</g>
	</g>
</g>
<g>
	<g>
		<g>
			<g>
				<text transform="matrix(1 0 0 1 73.667 141.9777)" font-family="'Arial-BoldMT'" font-size="11"> </text>
			</g>
		</g>
	</g>
</g>
<g>
	<g>
		<polygon fill="#FFFFFF" points="35.4,111.9 36.7,103.6 31.4,110.1 		"/>
	</g>
	<g>
		<polyline fill="none" stroke="#000000" points="33,126.6 26.3,126.6 34,109.6 		"/>
		<polygon points="35.4,111.9 36.7,103.6 31.4,110.1 		"/>
	</g>
</g>
<g>
	<g>
		<polygon fill="#FFFFFF" points="33,93.1 33.9,84.7 28.9,91.5 		"/>
	</g>
	<g>
		<polyline fill="none" stroke="#000000" points="30.5,137.9 12.8,137.9 31.5,90.9 		"/>
		<polygon points="33,93.1 33.9,84.7 28.9,91.5 		"/>
	</g>
</g>
<line fill="none" stroke="#000000" stroke-width="2" x1="186" y1="61.3" x2="228.7" y2="61.3"/>
<g>
	<g>
		<g>
			<g>
				<g>
					<text transform="matrix(1 0 0 1 -7.629395e-006 167.9778)" font-family="'Arial-BoldMT'" font-size="11">KEYOPT(1) = 0 (conservative)</text>
				</g>
			</g>
		</g>
	</g>
	<g>
		<g>
			<g>
				<g>
					<text transform="matrix(1 0 0 1 -7.629395e-006 180.9778)" font-family="'Arial-BoldMT'" font-size="11">KEYOPT(2) = 0</text>
				</g>
			</g>
		</g>
	</g>
</g>
<g>
	<g>
		<g>
			<g>
				<g>
					<text transform="matrix(1 0 0 1 194.667 167.9778)" font-family="'Arial-BoldMT'" font-size="11">KEYOPT(1) = 0</text>
				</g>
			</g>
		</g>
	</g>
	<g>
		<g>
			<g>
				<g>
					<text transform="matrix(1 0 0 1 194.667 180.9778)" font-family="'Arial-BoldMT'" font-size="11">KEYOPT(2) = 1</text>
				</g>
			</g>
		</g>
	</g>
</g>
<g>
	<g>
		<g>
			<g>
				<g>
					<text transform="matrix(1 0 0 1 344.3345 167.9778)" font-family="'Arial-BoldMT'" font-size="11">KEYOPT(1) = 0</text>
				</g>
			</g>
		</g>
	</g>
	<g>
		<g>
			<g>
				<g>
					<text transform="matrix(1 0 0 1 344.3345 180.9778)" font-family="'Arial-BoldMT'" font-size="11">KEYOPT(2) = 2</text>
				</g>
			</g>
		</g>
	</g>
</g>
<g>
	<g>
		<g>
			<polygon fill="#FFFFFF" points="78.5,242.1 76.3,234 74.1,242.1 			"/>
		</g>
		<g>
			<line fill="none" stroke="#000000" x1="76.3" y1="349" x2="76.3" y2="240.6"/>
			<polygon points="78.5,242.1 76.3,234 74.1,242.1 			"/>
		</g>
	</g>
	<g>
		<g>
			<polygon fill="#FFFFFF" points="129.3,296.8 137.5,294.6 129.3,292.4 			"/>
		</g>
		<g>
			<line fill="none" stroke="#000000" x1="130.8" y1="294.6" x2="22.5" y2="294.6"/>
			<polygon points="129.3,296.8 137.5,294.6 129.3,292.4 			"/>
		</g>
	</g>
</g>
<g>
	<g>
		<g>
			<polygon fill="#FFFFFF" points="231.2,242.8 229,234.7 226.8,242.8 			"/>
		</g>
		<g>
			<line fill="none" stroke="#000000" x1="229" y1="349.6" x2="229" y2="241.3"/>
			<polygon points="231.2,242.8 229,234.7 226.8,242.8 			"/>
		</g>
	</g>
	<g>
		<g>
			<polygon fill="#FFFFFF" points="282,297.5 290.1,295.3 282,293.1 			"/>
		</g>
		<g>
			<line fill="none" stroke="#000000" x1="283.5" y1="295.3" x2="175.2" y2="295.3"/>
			<polygon points="282,297.5 290.1,295.3 282,293.1 			"/>
		</g>
	</g>
</g>
<g>
	<g>
		<g>
			<polygon fill="#FFFFFF" points="384.2,242.5 382,234.3 379.8,242.5 			"/>
		</g>
		<g>
			<line fill="none" stroke="#000000" x1="382" y1="349.3" x2="382" y2="241"/>
			<polygon points="384.2,242.5 382,234.3 379.8,242.5 			"/>
		</g>
	</g>
	<g>
		<g>
			<polygon fill="#FFFFFF" points="435,297.1 443.1,295 435,292.8 			"/>
		</g>
		<g>
			<line fill="none" stroke="#000000" x1="436.5" y1="295" x2="328.2" y2="295"/>
			<polygon points="435,297.1 443.1,295 435,292.8 			"/>
		</g>
	</g>
</g>
<polyline fill="none" stroke="#000000" stroke-dasharray="8.64" points="76.3,294.8 49.6,334.9 29.7,338.4 "/>
<polyline fill="none" stroke="#000000" points="120.1,255.6 100.2,259.1 76.3,294.8 "/>
<g>
	<g>
		<g>
			<g>
				<text transform="matrix(1 0 0 1 368.9995 249.6445)" font-family="'Arial-BoldMT'" font-size="11">F</text>
			</g>
		</g>
	</g>
</g>
<g>
	<g>
		<g>
			<g>
				<text transform="matrix(1 0 0 1 216.3325 249.6445)" font-family="'Arial-BoldMT'" font-size="11">F</text>
			</g>
		</g>
	</g>
</g>
<g>
	<g>
		<g>
			<g>
				<text transform="matrix(1 0 0 1 62.9995 249.6445)" font-family="'Arial-BoldMT'" font-size="11">F</text>
			</g>
		</g>
	</g>
</g>
<g>
	<g>
		<g>
			<g>
				<text transform="matrix(1 0 0 1 128.666 308.6435)" font-family="'Arial-BoldMT'" font-size="11">D</text>
			</g>
		</g>
	</g>
</g>
<g>
	<g>
		<g>
			<g>
				<text transform="matrix(1 0 0 1 280.3325 308.6435)" font-family="'Arial-BoldMT'" font-size="11">D</text>
			</g>
		</g>
	</g>
</g>
<g>
	<g>
		<g>
			<g>
				<text transform="matrix(1 0 0 1 432.3325 308.6435)" font-family="'Arial-BoldMT'" font-size="11">D</text>
			</g>
		</g>
	</g>
</g>
<g>
	<g>
		<g>
			<g>
				<text transform="matrix(1 0 0 1 206.3335 283.9778)" font-family="'Arial-BoldMT'" font-size="11">(b)</text>
			</g>
		</g>
	</g>
</g>
<g>
	<g>
		<g>
			<g>
				<text transform="matrix(1 0 0 1 360.6665 284.6445)" font-family="'Arial-BoldMT'" font-size="11">(c)</text>
			</g>
		</g>
	</g>
</g>
<g>
	<g>
		<g>
			<g>
				<text transform="matrix(1 0 0 1 54.334 283.9778)" font-family="'Arial-BoldMT'" font-size="11">(a)</text>
			</g>
		</g>
	</g>
</g>
<g>
	<g>
		<g>
			<g>
				<text transform="matrix(1 0 0 1 72.333 375.9778)" font-family="'Arial-BoldMT'" font-size="11"> </text>
			</g>
		</g>
	</g>
</g>
<line fill="none" stroke="#000000" stroke-width="2" x1="185.7" y1="295.3" x2="228.4" y2="295.3"/>
<path fill="none" stroke="#000000" stroke-dasharray="4.32" d="M263,245.9"/>
<line fill="none" stroke="#000000" stroke-dasharray="4.32" x1="105.2" y1="281.7" x2="119.5" y2="256.3"/>
<g>
	<g>
		<g>
			<g>
				<g>
					<text transform="matrix(1 0 0 1 422.9985 233.6443)" font-family="'Arial-BoldMT'" font-size="11">for initial</text>
				</g>
			</g>
		</g>
	</g>
	<g>
		<g>
			<g>
				<g>
					<text transform="matrix(1 0 0 1 422.9985 246.6441)" font-family="'Arial-BoldMT'" font-size="11">loading</text>
				</g>
			</g>
		</g>
	</g>
</g>
<g>
	<g>
		<g>
			<g>
				<text transform="matrix(1 0 0 1 403.0005 329.6445)" font-family="'Arial-BoldMT'" font-size="11">reflected</text>
			</g>
		</g>
	</g>
</g>
<g>
	<g>
		<polygon fill="#FFFFFF" points="401.8,286.5 401.9,278.1 397.6,285.3 		"/>
	</g>
	<g>
		<polyline fill="none" stroke="#000000" points="401.2,326.5 388.5,326.5 400.2,284.5 		"/>
		<polygon points="401.8,286.5 401.9,278.1 397.6,285.3 		"/>
	</g>
</g>
<g>
	<g>
		<polygon fill="#FFFFFF" points="406.7,244.9 406.3,253.3 410.9,246.2 		"/>
	</g>
	<g>
		<polyline fill="none" stroke="#000000" points="420.3,232.3 413,232.3 408.3,247 		"/>
		<polygon points="406.7,244.9 406.3,253.3 410.9,246.2 		"/>
	</g>
</g>
<line fill="none" stroke="#000000" stroke-dasharray="4.32" x1="255" y1="272.3" x2="265.3" y2="246.9"/>
<line fill="none" stroke="#000000" stroke-dasharray="4.32" x1="28" y1="316" x2="44.3" y2="302.6"/>
<line fill="none" stroke="#000000" stroke-dasharray="4.32" x1="31.7" y1="337.5" x2="40" y2="325.1"/>
<g>
	<g>
		<g>
			<g>
				<g>
					<text transform="matrix(1 0 0 1 -7.629395e-006 372.3117)" font-family="'Arial-BoldMT'" font-size="11">KEYOPT(1) = 1 (nonconservative)</text>
				</g>
			</g>
		</g>
	</g>
	<g>
		<g>
			<g>
				<g>
					<text transform="matrix(1 0 0 1 -7.629395e-006 385.3117)" font-family="'Arial-BoldMT'" font-size="11">KEYOPT(2) = 0</text>
				</g>
			</g>
		</g>
	</g>
</g>
<g>
	<g>
		<g>
			<g>
				<g>
					<text transform="matrix(1 0 0 1 194.667 372.3117)" font-family="'Arial-BoldMT'" font-size="11">KEYOPT(1) = 1</text>
				</g>
			</g>
		</g>
	</g>
	<g>
		<g>
			<g>
				<g>
					<text transform="matrix(1 0 0 1 194.667 385.3117)" font-family="'Arial-BoldMT'" font-size="11">KEYOPT(2) = 1</text>
				</g>
			</g>
		</g>
	</g>
</g>
<g>
	<g>
		<g>
			<g>
				<g>
					<text transform="matrix(1 0 0 1 344.3345 372.3117)" font-family="'Arial-BoldMT'" font-size="11">KEYOPT(1) = 1</text>
				</g>
			</g>
		</g>
	</g>
	<g>
		<g>
			<g>
				<g>
					<text transform="matrix(1 0 0 1 344.3345 385.3117)" font-family="'Arial-BoldMT'" font-size="11">KEYOPT(2) = 2</text>
				</g>
			</g>
		</g>
	</g>
</g>
<path fill="none" stroke="#000000" d="M229,294.4c4-18.7,23.8-39.7,36.8-46.9"/>
<polyline fill="none" stroke="#000000" points="411,254.3 400,254.6 382.2,294.3 "/>
<path fill="none" stroke="#000000" stroke-dasharray="8.64" d="M381.6,294.8c10.1-14.7,38.5-31.8,46.9-28.2"/>
<line fill="none" stroke="#000000" stroke-dasharray="4.32" x1="420.3" y1="279.6" x2="427.5" y2="267.6"/>
<line fill="none" stroke="#000000" stroke-dasharray="4.32" x1="407.3" y1="265.6" x2="411.5" y2="253.6"/>
<path fill="none" stroke="#000000" d="M75.8,294.5c-20.4,15.2-31.9,18.2-48,21.7"/>
<line fill="none" stroke="#000000" stroke-dasharray="4.32" x1="333.6" y1="316.7" x2="349.9" y2="303.3"/>
<path fill="none" stroke="#000000" d="M381.5,295.2c-20.4,15.2-31.9,18.2-48,21.7"/>
</svg>
