<?xml version="1.0" encoding="UTF-8" standalone="no"?>
<!-- Generator: Adobe Illustrator 17.1.0, SVG Export Plug-In . SVG Version: 6.00 Build 0)  -->

<svg
   xmlns:dc="http://purl.org/dc/elements/1.1/"
   xmlns:cc="http://creativecommons.org/ns#"
   xmlns:rdf="http://www.w3.org/1999/02/22-rdf-syntax-ns#"
   xmlns:svg="http://www.w3.org/2000/svg"
   xmlns="http://www.w3.org/2000/svg"
   xmlns:sodipodi="http://sodipodi.sourceforge.net/DTD/sodipodi-0.dtd"
   xmlns:inkscape="http://www.inkscape.org/namespaces/inkscape"
   version="1.1"
   id="Layer_1"
   x="0px"
   y="0px"
   width="439.8px"
   height="317.1px"
   viewBox="0 1.6 439.8 317.1"
   enable-background="new 0 1.6 439.8 317.1"
   xml:space="preserve"
   inkscape:version="0.48.5 r10040"
   sodipodi:docname="gELEM220-1.svg"><metadata
   id="metadata4022"><rdf:RDF><cc:Work
       rdf:about=""><dc:format>image/svg+xml</dc:format><dc:type
         rdf:resource="http://purl.org/dc/dcmitype/StillImage" /></cc:Work></rdf:RDF></metadata><defs
   id="defs4020" /><sodipodi:namedview
   pagecolor="#ffffff"
   bordercolor="#666666"
   borderopacity="1"
   objecttolerance="10"
   gridtolerance="10"
   guidetolerance="10"
   inkscape:pageopacity="0"
   inkscape:pageshadow="2"
   inkscape:window-width="1047"
   inkscape:window-height="1281"
   id="namedview4018"
   showgrid="false"
   inkscape:zoom="1.4301956"
   inkscape:cx="219.89999"
   inkscape:cy="158.55"
   inkscape:window-x="802"
   inkscape:window-y="375"
   inkscape:window-maximized="0"
   inkscape:current-layer="Layer_1" />
<path
   fill="none"
   stroke="#000000"
   d="M160.5,148.4c6.9,26.7,1.2,82.2-4.1,94.1"
   id="path2986" />
<path
   fill="none"
   stroke="#000000"
   d="M239,111.3c11.4,26.7,7.2,89.2,1.9,101.1"
   id="path2988" />
<path
   fill="none"
   stroke="#000000"
   d="M63.7,123.4c6.9,26.7-1.8,86.2-7.1,98.1"
   id="path2990" />
<path
   fill="none"
   stroke="#000000"
   d="M63.8,122.8c27.3-22.5,44.8-23.4,66.6-32.8"
   id="path2992" />
<path
   fill="none"
   stroke="#000000"
   d="M130.5,89.9c7-0.8,61,4.6,107.8,21.4"
   id="path2994" />
<path
   fill="none"
   stroke="#000000"
   d="M156.3,242.1c-7,0.8-53-3.6-99.8-20.4"
   id="path2996" />
<path
   fill="none"
   stroke="#000000"
   d="M156.6,242.6c22.2-3.9,41.3-9.8,84.7-29.5"
   id="path2998" />
<path
   fill="none"
   stroke="#000000"
   d="M160.2,147.6c-7,0.8-49-7.6-95.8-24.4"
   id="path3000" />
<path
   fill="none"
   stroke="#000000"
   d="M160.4,147.4c5.3-4.7,30.1-23.4,78.1-36.1"
   id="path3002" />
<path
   fill="none"
   stroke="#000000"
   stroke-dasharray="5.76"
   d="M132.3,90.2c6.9,26.7,3.2,86.2-2.1,98.1"
   id="path3004" />
<path
   fill="none"
   stroke="#000000"
   stroke-dasharray="5.76"
   d="M132,187.2c-19.6,13.3-61.5,31.8-74.4,33.1"
   id="path3006" />
<path
   fill="none"
   stroke="#000000"
   stroke-dasharray="5.76"
   d="M130.5,187.8c27.5-1.9,99.4,17.6,110,25"
   id="path3008" />
<g
   id="g3010">
	<g
   id="g3012">
		<g
   id="g3014">
			<g
   id="g3016">
				<g
   id="g3018">
					<text
   transform="matrix(0.9996 0 0 1 71.8306 78.438)"
   font-family="'ArialMT'"
   font-size="10.9995"
   id="text3020">5</text>

				</g>
			</g>
		</g>
	</g>
	<path
   fill="none"
   stroke="#000000"
   d="M68.8,74.7c0-3.4,2.7-6.1,6.1-6.1s6.1,2.7,6.1,6.1s-2.7,6.1-6.1,6.1   C71.5,80.8,68.8,78.1,68.8,74.7L68.8,74.7z"
   id="path3022" />
</g>
<path
   fill="none"
   stroke="#000000"
   stroke-dasharray="2.88"
   d="M111.2,124.1c0.6-1.4,0.5-3.2,1.2-4.6c1.2-2.2,2.1-1.3,4.2-0.9  c4.8,0.8,8.3-2.9,8.6-7.5"
   id="path3024" />
<path
   d="M61.5,123.3c0-1.6,1.3-2.9,2.9-2.9c1.6,0,2.9,1.3,2.9,2.9s-1.3,2.9-2.9,2.9C62.8,126.2,61.5,124.9,61.5,123.3L61.5,123.3z"
   id="path3026" />
<g
   id="g3028">
	<g
   id="g3030">
		<g
   id="g3032">
			<g
   id="g3034">
				<polygon
   fill="#FFFFFF"
   points="112.5,108.9 119.7,117.5 117.7,106.5     "
   id="polygon3036" />
			</g>
			<g
   id="g3038">
				<polyline
   fill="none"
   stroke="#000000"
   points="82.8,73.9 99.4,73.9 115.9,109.5     "
   id="polyline3040" />
				<polygon
   points="112.5,108.9 119.7,117.5 117.7,106.5     "
   id="polygon3042" />
			</g>
		</g>
	</g>
</g>
<g
   id="g3044">
	<g
   id="g3046">
		<g
   id="g3048">
			<g
   id="g3050">
				<g
   id="g3052">
					<text
   transform="matrix(0.9996 0 0 1 162.1636 117.105)"
   font-family="'ArialMT'"
   font-size="10.9995"
   id="text3054">6</text>

				</g>
			</g>
		</g>
	</g>
	<path
   fill="none"
   stroke="#000000"
   d="M159.1,113.4c0-3.4,2.7-6.1,6.1-6.1s6.1,2.7,6.1,6.1s-2.7,6.1-6.1,6.1   S159.1,116.8,159.1,113.4L159.1,113.4z"
   id="path3056" />
</g>
<g
   id="g3058">
	<g
   id="g3060">
		<g
   id="g3062">
			<g
   id="g3064">
				<g
   id="g3066">
					<text
   transform="matrix(0.9996 0 0 1 101.1646 170.8301)"
   font-family="'ArialMT'"
   font-size="10.9995"
   id="text3068">2</text>

				</g>
			</g>
		</g>
	</g>
	<path
   fill="none"
   stroke="#000000"
   d="M98.1,167.1c0-3.4,2.7-6.1,6.1-6.1s6.1,2.7,6.1,6.1c0,3.4-2.7,6.1-6.1,6.1   S98.1,170.5,98.1,167.1L98.1,167.1z"
   id="path3070" />
</g>
<g
   id="g3072">
	<g
   id="g3074">
		<g
   id="g3076">
			<g
   id="g3078">
				<g
   id="g3080">
					<text
   transform="matrix(0.9996 0 0 1 205.8306 170.8301)"
   font-family="'ArialMT'"
   font-size="10.9995"
   id="text3082">3</text>

				</g>
			</g>
		</g>
	</g>
	<path
   fill="none"
   stroke="#000000"
   d="M202.8,167.1c0-3.4,2.7-6.1,6.1-6.1c3.4,0,6.1,2.7,6.1,6.1c0,3.4-2.7,6.1-6.1,6.1   C205.5,173.2,202.8,170.5,202.8,167.1L202.8,167.1z"
   id="path3084" />
</g>
<g
   id="g3086">
	<g
   id="g3088">
		<g
   id="g3090">
			<g
   id="g3092">
				<text
   transform="matrix(0.9996 0 0 1 130.0596 80.3335)"
   font-family="'ArialMT'"
   font-size="10.9995"
   id="text3094">P</text>

			</g>
		</g>
	</g>
</g>
<g
   id="g3096">
	<g
   id="g3098">
		<g
   id="g3100">
			<g
   id="g3102">
				<text
   transform="matrix(0.9996 0 0 1 92.7271 97.6665)"
   font-family="'ArialMT'"
   font-size="10.9995"
   id="text3104">X</text>

			</g>
		</g>
	</g>
</g>
<g
   id="g3106">
	<g
   id="g3108">
		<g
   id="g3110">
			<g
   id="g3112">
				<text
   transform="matrix(0.9996 0 0 1 49.7271 125.6665)"
   font-family="'ArialMT'"
   font-size="10.9995"
   id="text3114">M</text>

			</g>
		</g>
	</g>
</g>
<path
   d="M129.5,89.3c0-1.6,1.3-2.9,2.9-2.9c1.6,0,2.9,1.3,2.9,2.9s-1.3,2.9-2.9,2.9C130.8,92.2,129.5,90.9,129.5,89.3L129.5,89.3z"
   id="path3116" />
<path
   d="M98.5,100.3c0-1.6,1.3-2.9,2.9-2.9s2.9,1.3,2.9,2.9s-1.3,2.9-2.9,2.9C99.8,103.2,98.5,101.9,98.5,100.3L98.5,100.3z"
   id="path3118" />
<path
   d="M157.5,148.3c0-1.6,1.3-2.9,2.9-2.9c1.6,0,2.9,1.3,2.9,2.9s-1.3,2.9-2.9,2.9S157.5,149.9,157.5,148.3L157.5,148.3z"
   id="path3120" />
<path
   d="M152.5,242.3c0-1.6,1.3-2.9,2.9-2.9c1.6,0,2.9,1.3,2.9,2.9s-1.3,2.9-2.9,2.9S152.5,243.9,152.5,242.3L152.5,242.3z"
   id="path3122" />
<path
   d="M160.5,194.3c0-1.6,1.3-2.9,2.9-2.9c1.6,0,2.9,1.3,2.9,2.9s-1.3,2.9-2.9,2.9S160.5,195.9,160.5,194.3L160.5,194.3z"
   id="path3124" />
<path
   d="M99.5,235.3c0-1.6,1.3-2.9,2.9-2.9s2.9,1.3,2.9,2.9s-1.3,2.9-2.9,2.9S99.5,236.9,99.5,235.3L99.5,235.3z"
   id="path3126" />
<path
   d="M62.5,171.3c0-1.6,1.3-2.9,2.9-2.9c1.6,0,2.9,1.3,2.9,2.9s-1.3,2.9-2.9,2.9C63.8,174.2,62.5,172.9,62.5,171.3L62.5,171.3z"
   id="path3128" />
<path
   d="M53.5,221.3c0-1.6,1.3-2.9,2.9-2.9c1.6,0,2.9,1.3,2.9,2.9s-1.3,2.9-2.9,2.9S53.5,222.9,53.5,221.3L53.5,221.3z"
   id="path3130" />
<path
   d="M101,202.5c0-1.6,1.3-2.9,2.9-2.9s2.9,1.3,2.9,2.9c0,1.6-1.3,2.9-2.9,2.9C102.3,205.3,101,204.1,101,202.5L101,202.5z"
   id="path3132" />
<path
   d="M199.3,229.4c0-1.6,1.3-2.9,2.9-2.9c1.6,0,2.9,1.3,2.9,2.9c0,1.6-1.3,2.9-2.9,2.9C200.5,232.3,199.3,231,199.3,229.4  L199.3,229.4z"
   id="path3134" />
<path
   d="M237.7,212.9c0-1.6,1.3-2.9,2.9-2.9c1.6,0,2.9,1.3,2.9,2.9s-1.3,2.9-2.9,2.9C238.9,215.8,237.7,214.5,237.7,212.9  L237.7,212.9z"
   id="path3136" />
<path
   d="M235.2,111c0-1.6,1.3-2.9,2.9-2.9c1.6,0,2.9,1.3,2.9,2.9s-1.3,2.9-2.9,2.9C236.4,113.9,235.2,112.6,235.2,111L235.2,111z"
   id="path3138" />
<path
   d="M176.8,95.3c0-1.6,1.3-2.9,2.9-2.9c1.6,0,2.9,1.3,2.9,2.9s-1.3,2.9-2.9,2.9C178.1,98.2,176.8,96.9,176.8,95.3L176.8,95.3z"
   id="path3140" />
<path
   d="M194.3,125.3c0-1.6,1.3-2.9,2.9-2.9c1.6,0,2.9,1.3,2.9,2.9s-1.3,2.9-2.9,2.9S194.3,126.9,194.3,125.3L194.3,125.3z"
   id="path3142" />
<path
   d="M243.4,160.3c0-1.6,1.3-2.9,2.9-2.9c1.6,0,2.9,1.3,2.9,2.9c0,1.6-1.3,2.9-2.9,2.9S243.4,161.9,243.4,160.3L243.4,160.3z"
   id="path3144" />
<path
   d="M111.3,139.3c0-1.6,1.3-2.9,2.9-2.9s2.9,1.3,2.9,2.9s-1.3,2.9-2.9,2.9C112.6,142.1,111.3,140.9,111.3,139.3L111.3,139.3z"
   id="path3146" />
<path
   d="M129,187.5c0-1.6,1.3-2.9,2.9-2.9c1.6,0,2.9,1.3,2.9,2.9c0,1.6-1.3,2.9-2.9,2.9C130.3,190.3,129,189.1,129,187.5L129,187.5z  "
   id="path3148" />
<path
   d="M176.5,193.8c0-1.6,1.3-2.9,2.9-2.9c1.6,0,2.9,1.3,2.9,2.9s-1.3,2.9-2.9,2.9C177.8,196.6,176.5,195.4,176.5,193.8  L176.5,193.8z"
   id="path3150" />
<path
   d="M133.2,135.4c0-1.6,1.3-2.9,2.9-2.9c1.6,0,2.9,1.3,2.9,2.9s-1.3,2.9-2.9,2.9C134.5,138.3,133.2,137,133.2,135.4L133.2,135.4  z"
   id="path3152" />
<path
   fill="none"
   stroke="#000000"
   stroke-dasharray="2.88"
   d="M176.7,229.8c0.6-1.4,0.5-3.2,1.2-4.6c1.2-2.2,2.1-1.3,4.2-0.9  c4.8,0.8,8.3-2.9,8.6-7.5"
   id="path3154" />
<path
   fill="none"
   stroke="#000000"
   stroke-dasharray="2.88"
   d="M186.5,107c1.5,0,3.1-0.8,4.7-0.7c2.5,0.2,2,1.4,2.4,3.5  c1.1,4.8,5.9,6.6,10.2,5"
   id="path3156" />
<g
   id="g3158">
	<g
   id="g3160">
		<g
   id="g3162">
			<g
   id="g3164">
				<g
   id="g3166">
					<text
   transform="matrix(0.9996 0 0 1 229.498 80.8296)"
   font-family="'ArialMT'"
   font-size="10.9995"
   id="text3168">4</text>

				</g>
			</g>
		</g>
	</g>
	<path
   fill="none"
   stroke="#000000"
   d="M226.5,77.1c0-3.4,2.7-6.1,6.1-6.1s6.1,2.7,6.1,6.1s-2.7,6.1-6.1,6.1S226.5,80.5,226.5,77.1   L226.5,77.1z"
   id="path3170" />
</g>
<g
   id="g3172">
	<g
   id="g3174">
		<g
   id="g3176">
			<g
   id="g3178">
				<g
   id="g3180">
					<text
   transform="matrix(0.9996 0 0 1 220.8306 253.1631)"
   font-family="'ArialMT'"
   font-size="10.9995"
   id="text3182">1</text>

				</g>
			</g>
		</g>
	</g>
	<path
   fill="none"
   stroke="#000000"
   d="M217.8,249.4c0-3.4,2.7-6.1,6.1-6.1s6.1,2.7,6.1,6.1c0,3.4-2.7,6.1-6.1,6.1   S217.8,252.8,217.8,249.4L217.8,249.4z"
   id="path3184" />
</g>
<g
   id="g3186">
	<g
   id="g3188">
		<g
   id="g3190">
			<g
   id="g3192">
				<polygon
   fill="#FFFFFF"
   points="197.7,103.3 195.6,114.3 202.9,105.8     "
   id="polygon3194" />
			</g>
			<g
   id="g3196">
				<polyline
   fill="none"
   stroke="#000000"
   points="224.1,77.1 213.4,77.1 199.4,106.3     "
   id="polyline3198" />
				<polygon
   points="197.7,103.3 195.6,114.3 202.9,105.8     "
   id="polygon3200" />
			</g>
		</g>
	</g>
</g>
<g
   id="g3202">
	<g
   id="g3204">
		<g
   id="g3206">
			<g
   id="g3208">
				<polygon
   fill="#FFFFFF"
   points="188.8,229.8 179.3,223.9 184.6,233.8     "
   id="polygon3210" />
			</g>
			<g
   id="g3212">
				<polyline
   fill="none"
   stroke="#000000"
   points="214.4,249 203.1,249 185.4,230.3     "
   id="polyline3214" />
				<polygon
   points="188.8,229.8 179.3,223.9 184.6,233.8     "
   id="polygon3216" />
			</g>
		</g>
	</g>
</g>
<g
   id="g3218">
	<g
   id="g3220">
		<g
   id="g3222">
			<g
   id="g3224">
				<text
   transform="matrix(0.9996 0 0 1 52.7271 173)"
   font-family="'ArialMT'"
   font-size="10.9995"
   id="text3226">Y</text>

			</g>
		</g>
	</g>
</g>
<g
   id="g3228">
	<g
   id="g3230">
		<g
   id="g3232">
			<g
   id="g3234">
				<text
   transform="matrix(0.9996 0 0 1 46.3936 225.667)"
   font-family="'ArialMT'"
   font-size="10.9995"
   id="text3236">I</text>

			</g>
		</g>
	</g>
</g>
<g
   id="g3238">
	<g
   id="g3240">
		<g
   id="g3242">
			<g
   id="g3244">
				<text
   transform="matrix(0.9996 0 0 1 93.7271 248.333)"
   font-family="'ArialMT'"
   font-size="10.9995"
   id="text3246">Q</text>

			</g>
		</g>
	</g>
</g>
<g
   id="g3248">
	<g
   id="g3250">
		<g
   id="g3252">
			<g
   id="g3254">
				<text
   transform="matrix(0.9996 0 0 1 150.7271 255)"
   font-family="'ArialMT'"
   font-size="10.9995"
   id="text3256">J</text>

			</g>
		</g>
	</g>
</g>
<g
   id="g3258">
	<g
   id="g3260">
		<g
   id="g3262">
			<g
   id="g3264">
				<text
   transform="matrix(0.9996 0 0 1 93.3936 199.333)"
   font-family="'ArialMT'"
   font-size="10.9995"
   id="text3266">T</text>

			</g>
		</g>
	</g>
</g>
<g
   id="g3268">
	<g
   id="g3270">
		<g
   id="g3272">
			<g
   id="g3274">
				<text
   transform="matrix(0.9996 0 0 1 120.0596 185)"
   font-family="'ArialMT'"
   font-size="10.9995"
   id="text3276">L</text>

			</g>
		</g>
	</g>
</g>
<g
   id="g3278">
	<g
   id="g3280">
		<g
   id="g3282">
			<g
   id="g3284">
				<text
   transform="matrix(0.9996 0 0 1 176.0605 88.6665)"
   font-family="'ArialMT'"
   font-size="10.9995"
   id="text3286">W</text>

			</g>
		</g>
	</g>
</g>
<g
   id="g3288">
	<g
   id="g3290">
		<g
   id="g3292">
			<g
   id="g3294">
				<text
   transform="matrix(0.9996 0 0 1 244.0605 111)"
   font-family="'ArialMT'"
   font-size="10.9995"
   id="text3296">O</text>

			</g>
		</g>
	</g>
</g>
<g
   id="g3298">
	<g
   id="g3300">
		<g
   id="g3302">
			<g
   id="g3304">
				<text
   transform="matrix(0.9996 0 0 1 253.0605 162.3335)"
   font-family="'ArialMT'"
   font-size="10.9995"
   id="text3306">A</text>

			</g>
		</g>
	</g>
</g>
<g
   id="g3308">
	<g
   id="g3310">
		<g
   id="g3312">
			<g
   id="g3314">
				<text
   transform="matrix(0.9996 0 0 1 247.7266 218.333)"
   font-family="'ArialMT'"
   font-size="10.9995"
   id="text3316">K</text>

			</g>
		</g>
	</g>
</g>
<g
   id="g3318">
	<g
   id="g3320">
		<g
   id="g3322">
			<g
   id="g3324">
				<text
   transform="matrix(0.9996 0 0 1 206.7266 238.333)"
   font-family="'ArialMT'"
   font-size="10.9995"
   id="text3326">R</text>

			</g>
		</g>
	</g>
</g>
<g
   id="g3328">
	<g
   id="g3330">
		<g
   id="g3332">
			<g
   id="g3334">
				<text
   transform="matrix(0.9996 0 0 1 177.7266 188.333)"
   font-family="'ArialMT'"
   font-size="10.9995"
   id="text3336">S</text>

			</g>
		</g>
	</g>
</g>
<g
   id="g3338">
	<g
   id="g3340">
		<g
   id="g3342">
			<g
   id="g3344">
				<text
   transform="matrix(0.9996 0 0 1 149.3931 199.667)"
   font-family="'ArialMT'"
   font-size="10.9995"
   id="text3346">Z</text>

			</g>
		</g>
	</g>
</g>
<g
   id="g3348">
	<g
   id="g3350">
		<g
   id="g3352">
			<g
   id="g3354">
				<text
   transform="matrix(0.9996 0 0 1 143.3936 137.6665)"
   font-family="'ArialMT'"
   font-size="10.9995"
   id="text3356">B</text>

			</g>
		</g>
	</g>
</g>
<g
   id="g3358">
	<g
   id="g3360">
		<g
   id="g3362">
			<g
   id="g3364">
				<text
   transform="matrix(0.9996 0 0 1 100.7271 147)"
   font-family="'ArialMT'"
   font-size="10.9995"
   id="text3366">U</text>

			</g>
		</g>
	</g>
</g>
<g
   id="g3368">
	<g
   id="g3370">
		<g
   id="g3372">
			<g
   id="g3374">
				<text
   transform="matrix(0.9996 0 0 1 168.7266 153)"
   font-family="'ArialMT'"
   font-size="10.9995"
   id="text3376">N</text>

			</g>
		</g>
	</g>
</g>
<g
   id="g3378">
	<g
   id="g3380">
		<g
   id="g3382">
			<g
   id="g3384">
				<g
   id="g3386">
					<text
   transform="matrix(1.0005 0 0 1 27.7393 233.3418)"
   font-family="'ArialMT'"
   font-size="11"
   id="text3388">Z</text>

				</g>
			</g>
		</g>
	</g>
	<g
   id="g3390">
		<g
   id="g3392">
			<polygon
   fill="#FFFFFF"
   points="33.4,246.7 30.5,235.9 27.6,246.7    "
   id="polygon3394" />
		</g>
		<g
   id="g3396">
			<line
   fill="none"
   stroke="#000000"
   stroke-linecap="square"
   x1="30.6"
   y1="244.7"
   x2="30.6"
   y2="264.7"
   id="line3398" />
			<polygon
   points="33.4,246.7 30.5,235.9 27.6,246.7    "
   id="polygon3400" />
		</g>
	</g>
	<g
   id="g3402">
		<g
   id="g3404">
			<g
   id="g3406">
				<g
   id="g3408">
					<text
   transform="matrix(1.0014 0 0 1 0 284.292)"
   font-family="'ArialMT'"
   font-size="11"
   id="text3410">X</text>

				</g>
			</g>
		</g>
	</g>
	<g
   id="g3412">
		<g
   id="g3414">
			<g
   id="g3416">
				<g
   id="g3418">
					<text
   transform="matrix(1.0014 0 0 1 60.835 268.7246)"
   font-family="'ArialMT'"
   font-size="11"
   id="text3420">Y</text>

				</g>
			</g>
		</g>
	</g>
	<g
   id="g3422">
		<g
   id="g3424">
			<polygon
   fill="#FFFFFF"
   points="49.4,267.6 60.3,264.7 49.4,261.8    "
   id="polygon3426" />
		</g>
		<g
   id="g3428">
			<line
   fill="none"
   stroke="#000000"
   stroke-linecap="square"
   x1="51.4"
   y1="264.7"
   x2="30.6"
   y2="264.7"
   id="line3430" />
			<polygon
   points="49.4,267.6 60.3,264.7 49.4,261.8    "
   id="polygon3432" />
		</g>
	</g>
	<g
   id="g3434">
		<g
   id="g3436">
			<polygon
   fill="#FFFFFF"
   points="15.5,271.3 8.3,279.9 18.8,276.1    "
   id="polygon3438" />
		</g>
		<g
   id="g3440">
			<line
   fill="none"
   stroke="#000000"
   stroke-linecap="square"
   x1="15.5"
   y1="274.8"
   x2="30.4"
   y2="264.6"
   id="line3442" />
			<polygon
   points="15.5,271.3 8.3,279.9 18.8,276.1    "
   id="polygon3444" />
		</g>
	</g>
</g>

<g
   id="g3606"
   transform="translate(-6.2928462,-62.229253)">
	<g
   id="g3608">
		<g
   id="g3610">
			<g
   id="g3612">
				<g
   id="g3614">
					<text
   transform="translate(318.5088,202)"
   font-size="11"
   id="text3616"
   style="font-size:11px;font-family:ArialMT">Pyramid Option</text>

				</g>
			</g>
		</g>
	</g>
	<g
   id="g3618">
		<g
   id="g3620">
			<g
   id="g3622">
				<g
   id="g3624">
					<text
   transform="translate(355.3933,117.5)"
   enable-background="new    "
   id="text3626"><tspan
     x="0"
     y="0"
     font-size="11"
     id="tspan3628"
     style="font-size:11px;font-family:ArialMT">M,N,O,</tspan><tspan
     x="34.799999"
     y="0"
     font-size="11"
     letter-spacing="-1"
     id="tspan3630"
     style="font-size:11px;letter-spacing:-1;font-family:ArialMT">P</tspan><tspan
     x="40.799999"
     y="0"
     font-size="11"
     id="tspan3632"
     style="font-size:11px;font-family:ArialMT">,U,</tspan><tspan
     x="54.799999"
     y="0"
     font-size="11"
     letter-spacing="-1"
     id="tspan3634"
     style="font-size:11px;letter-spacing:-1;font-family:ArialMT">V</tspan><tspan
     x="61.099998"
     y="0"
     font-size="11"
     id="tspan3636"
     style="font-size:11px;font-family:ArialMT">,</tspan><tspan
     x="64.199997"
     y="0"
     font-size="11"
     id="tspan3638"
     style="font-size:11px;font-family:ArialMT">W</tspan><tspan
     x="74"
     y="0"
     font-size="11"
     id="tspan3640"
     style="font-size:11px;font-family:ArialMT">,X</tspan></text>

				</g>
			</g>
		</g>
	</g>
	<path
   d="m 387.6,156.9 c -10,-20.3 -31,-34.3 -42,-40.5"
   id="path3642"
   inkscape:connector-curvature="0"
   style="fill:none;stroke:#000000" />
	<polyline
   points="306.7,168.9 359.2,181.5 388.2,156.3  "
   id="polyline3644"
   style="fill:none;stroke:#000000" />
	<path
   d="m 307.3,168.6 c 5.6,-15.8 20,-39.4 38,-51.5"
   id="path3646"
   inkscape:connector-curvature="0"
   style="fill:none;stroke:#000000" />
	<path
   d="m 359.3,180.8 c -2.7,-21.6 -7.1,-52.6 -13.5,-63.4"
   id="path3648"
   inkscape:connector-curvature="0"
   style="fill:none;stroke:#000000" />
	<polyline
   points="386.6,156.4 337.6,152.8 307.4,167.9  "
   id="polyline3650"
   style="fill:none;stroke:#000000;stroke-dasharray:5.76" />
	<path
   d="m 337.8,152.5 c 1.9,-19.9 4.2,-30.5 8,-35"
   id="path3652"
   inkscape:connector-curvature="0"
   style="fill:none;stroke:#000000;stroke-dasharray:5.76" />
	<path
   d="m 343.2,117 c 0,-1.6 1.3,-2.9 2.9,-2.9 1.6,0 2.9,1.3 2.9,2.9 0,1.6 -1.3,2.9 -2.9,2.9 -1.7,0 -2.9,-1.3 -2.9,-2.9 l 0,0 z"
   id="path3654"
   inkscape:connector-curvature="0" />
	<path
   d="m 304.2,168.8 c 0,-1.6 1.3,-2.9 2.9,-2.9 1.6,0 2.9,1.3 2.9,2.9 0,1.6 -1.3,2.9 -2.9,2.9 -1.6,-0.1 -2.9,-1.3 -2.9,-2.9 l 0,0 z"
   id="path3656"
   inkscape:connector-curvature="0" />
	<path
   d="m 384.6,156.3 c 0,-1.6 1.3,-2.9 2.9,-2.9 1.6,0 2.9,1.3 2.9,2.9 0,1.6 -1.3,2.9 -2.9,2.9 -1.6,0 -2.9,-1.3 -2.9,-2.9 l 0,0 z"
   id="path3658"
   inkscape:connector-curvature="0" />
	<path
   d="m 356.6,180.8 c 0,-1.6 1.3,-2.9 2.9,-2.9 1.6,0 2.9,1.3 2.9,2.9 0,1.6 -1.3,2.9 -2.9,2.9 -1.6,0 -2.9,-1.3 -2.9,-2.9 l 0,0 z"
   id="path3660"
   inkscape:connector-curvature="0" />
	<path
   d="m 327.5,174.4 c 0,-1.6 1.3,-2.9 2.9,-2.9 1.6,0 2.9,1.3 2.9,2.9 0,1.6 -1.3,2.9 -2.9,2.9 -1.6,0 -2.9,-1.3 -2.9,-2.9 l 0,0 z"
   id="path3662"
   inkscape:connector-curvature="0" />
	<path
   d="m 371,167.9 c 0,-1.6 1.3,-2.9 2.9,-2.9 1.6,0 2.9,1.3 2.9,2.9 0,1.6 -1.3,2.9 -2.9,2.9 -1.6,0 -2.9,-1.3 -2.9,-2.9 l 0,0 z"
   id="path3664"
   inkscape:connector-curvature="0" />
	<path
   d="m 320.6,159.9 c 0,-1.6 1.3,-2.9 2.9,-2.9 1.6,0 2.9,1.3 2.9,2.9 0,1.6 -1.3,2.9 -2.9,2.9 -1.6,0 -2.9,-1.3 -2.9,-2.9 l 0,0 z"
   id="path3666"
   inkscape:connector-curvature="0" />
	<path
   d="m 336.7,138.3 c 0,-1.6 1.3,-2.9 2.9,-2.9 1.6,0 2.9,1.3 2.9,2.9 0,1.6 -1.3,2.9 -2.9,2.9 -1.6,0 -2.9,-1.3 -2.9,-2.9 l 0,0 z"
   id="path3668"
   inkscape:connector-curvature="0" />
	<path
   d="m 318.9,140.5 c 0,-1.6 1.3,-2.9 2.9,-2.9 1.6,0 2.9,1.3 2.9,2.9 0,1.6 -1.3,2.9 -2.9,2.9 -1.6,0 -2.9,-1.3 -2.9,-2.9 l 0,0 z"
   id="path3670"
   inkscape:connector-curvature="0" />
	<path
   d="m 366,132.9 c 0,-1.6 1.3,-2.9 2.9,-2.9 1.6,0 2.9,1.3 2.9,2.9 0,1.6 -1.3,2.9 -2.9,2.9 -1.6,0 -2.9,-1.3 -2.9,-2.9 l 0,0 z"
   id="path3672"
   inkscape:connector-curvature="0" />
	<path
   d="m 357.1,154.5 c 0,-1.6 1.3,-2.9 2.9,-2.9 1.6,0 2.9,1.3 2.9,2.9 0,1.6 -1.3,2.9 -2.9,2.9 -1.6,0 -2.9,-1.2 -2.9,-2.9 l 0,0 z"
   id="path3674"
   inkscape:connector-curvature="0" />
	<path
   d="m 350.1,141 c 0,-1.6 1.3,-2.9 2.9,-2.9 1.6,0 2.9,1.3 2.9,2.9 0,1.6 -1.3,2.9 -2.9,2.9 -1.6,0 -2.9,-1.3 -2.9,-2.9 l 0,0 z"
   id="path3676"
   inkscape:connector-curvature="0" />
	<path
   d="m 334.9,152.5 c 0,-1.6 1.3,-2.9 2.9,-2.9 1.6,0 2.9,1.3 2.9,2.9 0,1.6 -1.3,2.9 -2.9,2.9 -1.6,0 -2.9,-1.3 -2.9,-2.9 l 0,0 z"
   id="path3678"
   inkscape:connector-curvature="0" />
	<g
   id="g3680">
		<g
   id="g3682">
			<g
   id="g3684">
				<g
   id="g3686">
					<text
   transform="translate(311.8933,140)"
   font-size="11"
   id="text3688"
   style="font-size:11px;font-family:ArialMT">Y</text>

				</g>
			</g>
		</g>
	</g>
	<g
   id="g3690">
		<g
   id="g3692">
			<g
   id="g3694">
				<g
   id="g3696">
					<text
   transform="translate(296.3933,171)"
   font-size="11"
   id="text3698"
   style="font-size:11px;font-family:ArialMT">I</text>

				</g>
			</g>
		</g>
	</g>
	<g
   id="g3700">
		<g
   id="g3702">
			<g
   id="g3704">
				<g
   id="g3706">
					<text
   transform="translate(362.3933,190.5)"
   font-size="11"
   id="text3708"
   style="font-size:11px;font-family:ArialMT">J</text>

				</g>
			</g>
		</g>
	</g>
	<g
   id="g3710">
		<g
   id="g3712">
			<g
   id="g3714">
				<g
   id="g3716">
					<text
   transform="translate(321.8933,185.5)"
   font-size="11"
   id="text3718"
   style="font-size:11px;font-family:ArialMT">Q</text>

				</g>
			</g>
		</g>
	</g>
	<g
   id="g3720">
		<g
   id="g3722">
			<g
   id="g3724">
				<g
   id="g3726">
					<text
   transform="translate(378.3933,177)"
   font-size="11"
   id="text3728"
   style="font-size:11px;font-family:ArialMT">R</text>

				</g>
			</g>
		</g>
	</g>
	<g
   id="g3730">
		<g
   id="g3732">
			<g
   id="g3734">
				<g
   id="g3736">
					<text
   transform="translate(392.8933,159.5)"
   font-size="11"
   id="text3738"
   style="font-size:11px;font-family:ArialMT">K</text>

				</g>
			</g>
		</g>
	</g>
	<g
   id="g3740">
		<g
   id="g3742">
			<g
   id="g3744">
				<g
   id="g3746">
					<text
   transform="translate(373.8933,134)"
   font-size="11"
   id="text3748"
   style="font-size:11px;font-family:ArialMT">A</text>

				</g>
			</g>
		</g>
	</g>
	<g
   id="g3750">
		<g
   id="g3752">
			<g
   id="g3754">
				<g
   id="g3756">
					<text
   transform="translate(356.8933,145)"
   font-size="11"
   id="text3758"
   style="font-size:11px;font-family:ArialMT">Z</text>

				</g>
			</g>
		</g>
	</g>
	<g
   id="g3760">
		<g
   id="g3762">
			<g
   id="g3764">
				<g
   id="g3766">
					<text
   transform="translate(357.3933,167)"
   font-size="11"
   id="text3768"
   style="font-size:11px;font-family:ArialMT">S</text>

				</g>
			</g>
		</g>
	</g>
	<g
   id="g3770">
		<g
   id="g3772">
			<g
   id="g3774">
				<g
   id="g3776">
					<text
   transform="translate(327.8933,141.5)"
   font-size="11"
   id="text3778"
   style="font-size:11px;font-family:ArialMT">B</text>

				</g>
			</g>
		</g>
	</g>
	<g
   id="g3780">
		<g
   id="g3782">
			<g
   id="g3784">
				<g
   id="g3786">
					<text
   transform="translate(335.8933,165)"
   font-size="11"
   id="text3788"
   style="font-size:11px;font-family:ArialMT">L</text>

				</g>
			</g>
		</g>
	</g>
	<g
   id="g3790">
		<g
   id="g3792">
			<g
   id="g3794">
				<g
   id="g3796">
					<text
   transform="translate(320.3933,155.5)"
   font-size="11"
   id="text3798"
   style="font-size:11px;font-family:ArialMT">T</text>

				</g>
			</g>
		</g>
	</g>
</g>
<g
   id="g3800"
   transform="translate(-5.5936407,-41.2531)">
	<g
   id="g3802">
		<g
   id="g3804">
			<g
   id="g3806">
				<text
   transform="translate(326.1707,315.0557)"
   font-size="11"
   id="text3808"
   style="font-size:11px;font-family:ArialMT">Prism Option</text>

			</g>
		</g>
	</g>
</g>
<path
   d="m 354.30636,205.4469 19.3,-18 c -24.6,-3.2 -57.2,-2.1 -57.2,0.2"
   id="path3810"
   inkscape:connector-curvature="0"
   style="fill:none;stroke:#000000;stroke-width:1" />
<path
   d="m 316.50636,188.3469 c 1.5,23.5 -0.9,35.4 -0.9,43.9"
   id="path3812"
   inkscape:connector-curvature="0"
   style="fill:none;stroke:#000000;stroke-width:1" />
<path
   d="m 370.60636,231.5469 c -15.6,-4.8 -40.5,-4.2 -55.2,-1"
   id="path3814"
   inkscape:connector-curvature="0"
   style="fill:none;stroke:#000000;stroke-width:1;stroke-dasharray:5.76" />
<path
   d="m 373.60636,187.5469 c 1.5,23.5 -1.9,35.4 -1.9,43.9 l -19.2,18 c 0,-8.4 3.5,-20.3 1.9,-43.9"
   id="path3816"
   inkscape:connector-curvature="0"
   style="fill:none;stroke:#000000;stroke-width:1" />
<path
   d="m 353.80636,205.1469 c -16.1,-4.7 -20.4,-10.2 -37.5,-17.2"
   id="path3818"
   inkscape:connector-curvature="0"
   style="fill:none;stroke:#000000;stroke-width:1" />
<path
   d="m 352.00636,249.3469 c -16.1,-4.7 -19.4,-11.2 -36.5,-18.2"
   id="path3820"
   inkscape:connector-curvature="0"
   style="fill:none;stroke:#000000;stroke-width:1" />
<path
   d="m 314.10636,187.6469 c 0,-1.6 1.3,-2.9 2.9,-2.9 1.6,0 2.9,1.3 2.9,2.9 0,1.6 -1.3,2.9 -2.9,2.9 -1.7,0 -2.9,-1.3 -2.9,-2.9 l 0,0 z"
   id="path3822"
   inkscape:connector-curvature="0" />
<path
   d="m 313.10636,230.6469 c 0,-1.6 1.3,-2.9 2.9,-2.9 1.6,0 2.9,1.3 2.9,2.9 0,1.6 -1.3,2.9 -2.9,2.9 -1.7,0 -2.9,-1.3 -2.9,-2.9 l 0,0 z"
   id="path3824"
   inkscape:connector-curvature="0" />
<path
   d="m 342.10636,185.6469 c 0,-1.6 1.3,-2.9 2.9,-2.9 1.6,0 2.9,1.3 2.9,2.9 0,1.6 -1.3,2.9 -2.9,2.9 -1.7,0 -2.9,-1.3 -2.9,-2.9 l 0,0 z"
   id="path3826"
   inkscape:connector-curvature="0" />
<path
   d="m 371.10636,187.6469 c 0,-1.6 1.3,-2.9 2.9,-2.9 1.6,0 2.9,1.3 2.9,2.9 0,1.6 -1.3,2.9 -2.9,2.9 -1.7,0 -2.9,-1.3 -2.9,-2.9 l 0,0 z"
   id="path3828"
   inkscape:connector-curvature="0" />
<path
   d="m 314.10636,207.6469 c 0,-1.6 1.3,-2.9 2.9,-2.9 1.6,0 2.9,1.3 2.9,2.9 0,1.6 -1.3,2.9 -2.9,2.9 -1.7,0 -2.9,-1.3 -2.9,-2.9 l 0,0 z"
   id="path3830"
   inkscape:connector-curvature="0" />
<path
   d="m 341.10636,227.6469 c 0,-1.6 1.3,-2.9 2.9,-2.9 1.6,0 2.9,1.3 2.9,2.9 0,1.6 -1.3,2.9 -2.9,2.9 -1.7,0 -2.9,-1.3 -2.9,-2.9 l 0,0 z"
   id="path3832"
   inkscape:connector-curvature="0" />
<path
   d="m 330.10636,240.6469 c 0,-1.6 1.3,-2.9 2.9,-2.9 1.6,0 2.9,1.3 2.9,2.9 0,1.6 -1.3,2.9 -2.9,2.9 -1.7,0 -2.9,-1.3 -2.9,-2.9 l 0,0 z"
   id="path3834"
   inkscape:connector-curvature="0" />
<path
   d="m 348.70636,249.2469 c 0,-1.6 1.3,-2.9 2.9,-2.9 1.6,0 2.9,1.3 2.9,2.9 0,1.6 -1.3,2.9 -2.9,2.9 -1.6,0 -2.9,-1.3 -2.9,-2.9 l 0,0 z"
   id="path3836"
   inkscape:connector-curvature="0" />
<path
   d="m 368.80636,230.7469 c 0,-1.6 1.3,-2.9 2.9,-2.9 1.6,0 2.9,1.3 2.9,2.9 0,1.6 -1.3,2.9 -2.9,2.9 -1.6,0 -2.9,-1.3 -2.9,-2.9 l 0,0 z"
   id="path3838"
   inkscape:connector-curvature="0" />
<path
   d="m 350.90636,205.6469 c 0,-1.6 1.3,-2.9 2.9,-2.9 1.6,0 2.9,1.3 2.9,2.9 0,1.6 -1.3,2.9 -2.9,2.9 -1.6,0 -2.9,-1.3 -2.9,-2.9 l 0,0 z"
   id="path3840"
   inkscape:connector-curvature="0" />
<path
   d="m 351.60636,223.0469 c 0,-1.6 1.3,-2.9 2.9,-2.9 1.6,0 2.9,1.3 2.9,2.9 0,1.6 -1.3,2.9 -2.9,2.9 -1.6,0 -2.9,-1.3 -2.9,-2.9 l 0,0 z"
   id="path3842"
   inkscape:connector-curvature="0" />
<path
   d="m 370.90636,209.1469 c 0,-1.6 1.3,-2.9 2.9,-2.9 1.6,0 2.9,1.3 2.9,2.9 0,1.6 -1.3,2.9 -2.9,2.9 -1.6,0 -2.9,-1.3 -2.9,-2.9 l 0,0 z"
   id="path3844"
   inkscape:connector-curvature="0" />
<g
   id="g3846"
   transform="translate(-5.5936407,-41.2531)">
	<g
   id="g3848">
		<g
   id="g3850">
			<g
   id="g3852">
				<text
   transform="translate(385.3933,230.5)"
   enable-background="new    "
   id="text3854"><tspan
     x="0"
     y="0"
     font-size="11"
     id="tspan3856"
     style="font-size:11px;font-family:ArialMT">O,</tspan><tspan
     x="11.6"
     y="0"
     font-size="11"
     letter-spacing="-1"
     id="tspan3858"
     style="font-size:11px;letter-spacing:-1;font-family:ArialMT">P</tspan><tspan
     x="17.5"
     y="0"
     font-size="11"
     id="tspan3860"
     style="font-size:11px;font-family:ArialMT">,W</tspan></text>

			</g>
		</g>
	</g>
</g>
<g
   id="g3862"
   transform="translate(-5.5936407,-41.2531)">
	<g
   id="g3864">
		<g
   id="g3866">
			<g
   id="g3868">
				<text
   transform="translate(385.3933,251)"
   font-size="11"
   id="text3870"
   style="font-size:11px;font-family:ArialMT">A,B</text>

			</g>
		</g>
	</g>
</g>
<g
   id="g3872"
   transform="translate(-5.5936407,-41.2531)">
	<g
   id="g3874">
		<g
   id="g3876">
			<g
   id="g3878">
				<text
   transform="translate(385.3933,275)"
   font-size="11"
   id="text3880"
   style="font-size:11px;font-family:ArialMT">K,L,S</text>

			</g>
		</g>
	</g>
</g>
<path
   d="m 359.70636,240.2469 c 0,-1.6 1.3,-2.9 2.9,-2.9 1.6,0 2.9,1.3 2.9,2.9 0,1.6 -1.3,2.9 -2.9,2.9 -1.6,0 -2.9,-1.3 -2.9,-2.9 l 0,0 z"
   id="path3882"
   inkscape:connector-curvature="0" />
<g
   id="g3884"
   transform="translate(-5.5936407,-41.2531)">
	<g
   id="g3886">
		<g
   id="g3888">
			<g
   id="g3890">
				<text
   transform="translate(372.3933,289)"
   font-size="11"
   id="text3892"
   style="font-size:11px;font-family:ArialMT">R</text>

			</g>
		</g>
	</g>
</g>
<g
   id="g3894"
   transform="translate(-5.5936407,-41.2531)">
	<g
   id="g3896">
		<g
   id="g3898">
			<g
   id="g3900">
				<text
   transform="translate(356.3933,302)"
   font-size="11"
   id="text3902"
   style="font-size:11px;font-family:ArialMT">J</text>

			</g>
		</g>
	</g>
</g>
<g
   id="g3904"
   transform="translate(-5.5936407,-41.2531)">
	<g
   id="g3906">
		<g
   id="g3908">
			<g
   id="g3910">
				<text
   transform="translate(328.3933,293.5)"
   font-size="11"
   id="text3912"
   style="font-size:11px;font-family:ArialMT">Q</text>

			</g>
		</g>
	</g>
</g>
<g
   id="g3914"
   transform="translate(-5.5936407,-41.2531)">
	<g
   id="g3916">
		<g
   id="g3918">
			<g
   id="g3920">
				<text
   transform="translate(312.6739,279)"
   font-size="11"
   id="text3922"
   style="font-size:11px;font-family:ArialMT">I</text>

			</g>
		</g>
	</g>
</g>
<g
   id="g3924"
   transform="translate(-5.5936407,-41.2531)">
	<g
   id="g3926">
		<g
   id="g3928">
			<g
   id="g3930">
				<text
   transform="translate(310.3933,254)"
   font-size="11"
   id="text3932"
   style="font-size:11px;font-family:ArialMT">Y</text>

			</g>
		</g>
	</g>
</g>
<g
   id="g3934"
   transform="translate(-5.5936407,-41.2531)">
	<g
   id="g3936">
		<g
   id="g3938">
			<g
   id="g3940">
				<text
   transform="translate(308.5671,232.5)"
   font-size="11"
   id="text3942"
   style="font-size:11px;font-family:ArialMT">M</text>

			</g>
		</g>
	</g>
</g>
<g
   id="g3944"
   transform="translate(-5.5936407,-41.2531)">
	<g
   id="g3946">
		<g
   id="g3948">
			<g
   id="g3950">
				<text
   transform="translate(347.1433,221.75)"
   font-size="11"
   id="text3952"
   style="font-size:11px;font-family:ArialMT">X</text>

			</g>
		</g>
	</g>
</g>
<g
   id="g3954"
   transform="translate(-5.5936407,-41.2531)">
	<g
   id="g3956">
		<g
   id="g3958">
			<g
   id="g3960">
				<text
   transform="translate(333.8933,251.5)"
   font-size="11"
   id="text3962"
   style="font-size:11px;font-family:ArialMT">U</text>

			</g>
		</g>
	</g>
</g>
<path
   d="m 331.90636,197.1469 c 0,-1.6 1.3,-2.9 2.9,-2.9 1.6,0 2.9,1.3 2.9,2.9 0,1.6 -1.3,2.9 -2.9,2.9 -1.6,0 -2.9,-1.3 -2.9,-2.9 l 0,0 z"
   id="path3964"
   inkscape:connector-curvature="0" />
<path
   d="m 360.90636,196.1469 c 0,-1.6 1.3,-2.9 2.9,-2.9 1.6,0 2.9,1.3 2.9,2.9 0,1.6 -1.3,2.9 -2.9,2.9 -1.6,0 -2.9,-1.3 -2.9,-2.9 l 0,0 z"
   id="path3966"
   inkscape:connector-curvature="0" />
<g
   id="g3968"
   transform="translate(-5.5936407,-41.2531)">
	<g
   id="g3970">
		<g
   id="g3972">
			<g
   id="g3974">
				<text
   transform="translate(346.8933,282.5)"
   font-size="11"
   id="text3976"
   style="font-size:11px;font-family:ArialMT">T</text>

			</g>
		</g>
	</g>
</g>
<g
   id="g3978"
   transform="translate(-5.5936407,-41.2531)">
	<g
   id="g3980">
		<g
   id="g3982">
			<g
   id="g3984">
				<text
   transform="translate(365.3933,265.5)"
   font-size="11"
   id="text3986"
   style="font-size:11px;font-family:ArialMT">Z</text>

			</g>
		</g>
	</g>
</g>
<g
   id="g3988"
   transform="translate(-5.5936407,-41.2531)">
	<g
   id="g3990">
		<g
   id="g3992">
			<g
   id="g3994">
				<text
   transform="translate(347.5399,257.1465)"
   font-size="11"
   id="text3996"
   style="font-size:11px;font-family:ArialMT">N</text>

			</g>
		</g>
	</g>
</g>
<g
   id="g3998">
	<g
   id="g4000">
		<g
   id="g4002">
			<g
   id="g4004">
				<text
   transform="matrix(1 0 0 1 196.3933 139)"
   font-family="'ArialMT'"
   font-size="11"
   id="text4006">V</text>

			</g>
		</g>
	</g>
</g>
<g
   id="g4008"
   transform="translate(-5.5936407,-41.2531)">
	<g
   id="g4010">
		<g
   id="g4012">
			<g
   id="g4014">
				<text
   transform="translate(366.5399,250.1465)"
   font-size="11"
   id="text4016"
   style="font-size:11px;font-family:ArialMT">V</text>

			</g>
		</g>
	</g>
</g>
</svg>