<?xml version="1.0" encoding="utf-8"?>
<!-- Generator: Adobe Illustrator 17.1.0, SVG Export Plug-In . SVG Version: 6.00 Build 0)  -->

<svg version="1.1" id="Layer_1" xmlns="http://www.w3.org/2000/svg" xmlns:xlink="http://www.w3.org/1999/xlink" x="0px" y="0px"
	 width="69.8px" height="56.9px" viewBox="0 0 69.8 56.9" enable-background="new 0 0 69.8 56.9" xml:space="preserve">
<rect x="2.6" y="1.4" fill="none" stroke="#000000" stroke-width="2" stroke-linejoin="round" width="64.5" height="52.8"/>
<ellipse fill="#FFFFFF" stroke="#000000" cx="2.6" cy="51" rx="2.1" ry="2.1"/>
<ellipse fill="#FFFFFF" stroke="#000000" cx="2.6" cy="11.2" rx="2.1" ry="2.1"/>
<ellipse fill="#FFFFFF" stroke="#000000" cx="2.6" cy="5.5" rx="2.1" ry="2.1"/>
<ellipse fill="#FFFFFF" stroke="#000000" cx="2.6" cy="16.9" rx="2.1" ry="2.1"/>
<ellipse fill="#FFFFFF" stroke="#000000" cx="2.6" cy="45.3" rx="2.1" ry="2.1"/>
<ellipse fill="#FFFFFF" stroke="#000000" cx="2.6" cy="39.6" rx="2.1" ry="2.1"/>
<ellipse fill="#FFFFFF" stroke="#000000" cx="2.6" cy="34" rx="2.1" ry="2.1"/>
<ellipse fill="#FFFFFF" stroke="#000000" cx="2.6" cy="28.3" rx="2.1" ry="2.1"/>
<ellipse fill="#FFFFFF" stroke="#000000" cx="2.6" cy="22.6" rx="2.1" ry="2.1"/>
<ellipse fill="#FFFFFF" stroke="#000000" cx="67.2" cy="46.5" rx="2.1" ry="2.1"/>
<ellipse fill="#FFFFFF" stroke="#000000" cx="67.2" cy="8.1" rx="2.1" ry="2.1"/>
<ellipse fill="#FFFFFF" stroke="#000000" cx="67.2" cy="2.6" rx="2.1" ry="2.1"/>
<ellipse fill="#FFFFFF" stroke="#000000" cx="67.2" cy="13.6" rx="2.1" ry="2.1"/>
<ellipse fill="#FFFFFF" stroke="#000000" cx="67.2" cy="41" rx="2.1" ry="2.1"/>
<ellipse fill="#FFFFFF" stroke="#000000" cx="67.2" cy="35.5" rx="2.1" ry="2.1"/>
<ellipse fill="#FFFFFF" stroke="#000000" cx="67.2" cy="30" rx="2.1" ry="2.1"/>
<ellipse fill="#FFFFFF" stroke="#000000" cx="67.2" cy="24.5" rx="2.1" ry="2.1"/>
<ellipse fill="#FFFFFF" stroke="#000000" cx="67.2" cy="19.1" rx="2.1" ry="2.1"/>
<ellipse fill="#FFFFFF" stroke="#000000" cx="67.2" cy="52" rx="2.1" ry="2.1"/>
<ellipse fill="#FFFFFF" stroke="#000000" cx="11.3" cy="54.3" rx="2.1" ry="2.1"/>
<ellipse fill="#FFFFFF" stroke="#000000" cx="23.2" cy="54.3" rx="2.1" ry="2.1"/>
<ellipse fill="#FFFFFF" stroke="#000000" cx="35" cy="54.3" rx="2.1" ry="2.1"/>
<ellipse fill="#FFFFFF" stroke="#000000" cx="46.9" cy="54.3" rx="2.1" ry="2.1"/>
<ellipse fill="#FFFFFF" stroke="#000000" cx="58.7" cy="54.3" rx="2.1" ry="2.1"/>
</svg>
