<?xml version="1.0" encoding="utf-8"?>
<!-- Generator: Adobe Illustrator 17.1.0, SVG Export Plug-In . SVG Version: 6.00 Build 0)  -->

<svg version="1.1" id="Layer_1" xmlns="http://www.w3.org/2000/svg" xmlns:xlink="http://www.w3.org/1999/xlink" x="0px" y="0px"
	 width="95.3px" height="58.5px" viewBox="0 0 95.3 58.5" enable-background="new 0 0 95.3 58.5" xml:space="preserve">
<ellipse fill="none" stroke="#000000" cx="2.3" cy="29" rx="1.8" ry="1.9"/>
<ellipse fill="none" stroke="#000000" cx="93" cy="28.9" rx="1.8" ry="1.9"/>
<line fill="none" stroke="#000000" stroke-width="2" x1="4" y1="29.4" x2="14.8" y2="29.4"/>
<line fill="none" stroke="#000000" stroke-width="2" x1="80.2" y1="29.2" x2="91.1" y2="29.2"/>
<line fill="none" stroke="#000000" stroke-width="2" x1="15.4" y1="7.8" x2="15.3" y2="50.3"/>
<line fill="none" stroke="#000000" stroke-width="2" x1="14.5" y1="49.5" x2="39" y2="49.6"/>
<path fill="none" stroke="#000000" stroke-width="2" d="M16,8.7h19.4"/>
<polyline fill="none" stroke="#000000" stroke-width="2" stroke-linecap="round" points="34.9,8.6 35.1,8.9 35.2,9.2 38.9,16.1 
	39.3,16.9 "/>
<polyline fill="none" stroke="#000000" stroke-width="2" stroke-linecap="round" points="39.3,16.9 42.4,7.9 44.7,1 "/>
<polyline fill="none" stroke="#000000" stroke-width="2" stroke-linecap="round" points="44.7,1 44.9,1.6 49,16.3 49.2,17.2 "/>
<line fill="none" stroke="#000000" stroke-width="2" stroke-linecap="round" x1="49.2" y1="17.2" x2="54" y2="1.3"/>
<line fill="none" stroke="#000000" stroke-width="2" stroke-linecap="round" x1="54" y1="1.1" x2="58" y2="17.5"/>
<line fill="none" stroke="#000000" stroke-width="2" stroke-linecap="round" x1="58" y1="17.5" x2="61.2" y2="9.1"/>
<line fill="none" stroke="#000000" stroke-width="2" x1="61.2" y1="9.1" x2="80.2" y2="9.1"/>
<line fill="none" stroke="#000000" stroke-width="2" x1="79.4" y1="9.1" x2="79.4" y2="49.1"/>
<line fill="none" stroke="#000000" stroke-width="2" x1="80.3" y1="49.1" x2="50.8" y2="49.1"/>
<line fill="none" stroke="#000000" stroke-width="2" x1="35.6" y1="41.1" x2="51.6" y2="41.2"/>
<line fill="none" stroke="#000000" stroke-width="2" x1="50.8" y1="40.2" x2="50.8" y2="57.5"/>
<line fill="none" stroke="#000000" stroke-width="2" x1="51.7" y1="57.5" x2="35.7" y2="57.5"/>
<line fill="none" stroke="#000000" stroke-width="2" x1="39" y1="40.4" x2="38.9" y2="58.1"/>
</svg>
