<?xml version="1.0" encoding="utf-8"?>
<!-- Generator: Adobe Illustrator 17.1.0, SVG Export Plug-In . SVG Version: 6.00 Build 0)  -->

<svg version="1.1" id="Layer_1" xmlns="http://www.w3.org/2000/svg" xmlns:xlink="http://www.w3.org/1999/xlink" x="0px" y="0px"
	 width="71.1px" height="54.4px" viewBox="0 0 71.1 54.4" enable-background="new 0 0 71.1 54.4" xml:space="preserve">
<line fill="none" stroke="#000000" stroke-width="2" stroke-linecap="round" stroke-linejoin="round" x1="26.5" y1="2.6" x2="68.5" y2="2.6"/>
<line fill="none" stroke="#000000" stroke-width="2" stroke-linecap="round" stroke-linejoin="round" x1="68.3" y1="2.6" x2="68.3" y2="20"/>
<line fill="none" stroke="#000000" stroke-linecap="round" stroke-linejoin="round" stroke-dasharray="3.6" x1="26.5" y1="2.2" x2="26.5" y2="19.9"/>
<line fill="none" stroke="#000000" stroke-linecap="round" stroke-linejoin="round" stroke-dasharray="3.6" x1="24.7" y1="20" x2="68.5" y2="20"/>
<line fill="none" stroke="#000000" stroke-width="2" stroke-linecap="round" x1="2.5" y1="34.6" x2="26.8" y2="2.6"/>
<line fill="none" stroke="#000000" stroke-linecap="round" stroke-dasharray="3.6" x1="2.6" y1="51.6" x2="26.8" y2="20"/>
<line fill="none" stroke="#000000" stroke-width="2" stroke-linecap="round" x1="46.7" y1="51.8" x2="68.3" y2="19.7"/>
<line fill="none" stroke="#000000" stroke-width="2" stroke-linecap="round" x1="46.4" y1="34.5" x2="68.8" y2="2.2"/>
<ellipse fill="#FFFFFF" stroke="#000000" cx="2.8" cy="51.8" rx="2.1" ry="2.1"/>
<ellipse fill="#FFFFFF" stroke="#000000" cx="46.6" cy="51.8" rx="2.1" ry="2.1"/>
<ellipse fill="#FFFFFF" stroke="#000000" cx="68.5" cy="2.6" rx="2.1" ry="2.1"/>
<ellipse fill="#FFFFFF" stroke="#000000" cx="68.3" cy="19.8" rx="2.1" ry="2.1"/>
<ellipse fill="#FFFFFF" stroke="#000000" cx="26.5" cy="2.6" rx="2.1" ry="2.1"/>
<rect x="2.6" y="34.5" fill="none" stroke="#000000" stroke-width="2" stroke-linejoin="round" width="43.8" height="17.4"/>
<ellipse fill="#FFFFFF" stroke="#000000" cx="2.6" cy="51.8" rx="2.1" ry="2.1"/>
<ellipse fill="#FFFFFF" stroke="#000000" cx="46.4" cy="34.5" rx="2.1" ry="2.1"/>
<ellipse fill="#FFFFFF" stroke="#000000" cx="46.4" cy="51.8" rx="2.1" ry="2.1"/>
<ellipse fill="#FFFFFF" stroke="#000000" cx="2.6" cy="34.5" rx="2.1" ry="2.1"/>
<ellipse fill="#FFFFFF" stroke="#000000" cx="26.8" cy="20" rx="2.1" ry="2.1"/>
<line fill="none" stroke="#000000" stroke-width="0.5" stroke-linecap="round" stroke-linejoin="round" stroke-dasharray="3.6" x1="2.6" y1="43.1" x2="46.4" y2="43.1"/>
<line fill="none" stroke="#000000" stroke-width="0.5" stroke-linecap="round" stroke-linejoin="round" stroke-dasharray="3.6" x1="46.4" y1="43.1" x2="68.5" y2="11.4"/>
<line fill="none" stroke="#000000" stroke-width="0.5" stroke-linecap="round" stroke-linejoin="round" stroke-dasharray="3.6" x1="68.5" y1="11.4" x2="26.5" y2="11.4"/>
<line fill="none" stroke="#000000" stroke-width="0.5" stroke-linecap="round" stroke-linejoin="round" stroke-dasharray="3.6" x1="26.5" y1="11.4" x2="2.6" y2="43.1"/>
</svg>
