<?xml version="1.0" encoding="utf-8"?>
<!-- Generator: Adobe Illustrator 17.1.0, SVG Export Plug-In . SVG Version: 6.00 Build 0)  -->

<svg version="1.1" id="Layer_1" xmlns="http://www.w3.org/2000/svg" xmlns:xlink="http://www.w3.org/1999/xlink" x="0px" y="0px"
	 width="54.6px" height="40.7px" viewBox="0 0 54.6 40.7" enable-background="new 0 0 54.6 40.7" xml:space="preserve">
<path fill="#FFFFFF" stroke="#000000" stroke-width="2" d="M8.8,33.2c0.3,3.4-1.2,6.3-3.4,6.5c-2.1,0.2-4.1-2.4-4.4-5.8
	s1.2-6.3,3.4-6.5C6.5,27.2,8.5,29.8,8.8,33.2z"/>
<path fill="#FFFFFF" stroke="#000000" stroke-width="2" d="M47.9,1.2c3.3,0.6,5.9,2.2,5.6,3.6c-0.2,1.4-3.2,2.1-6.5,1.5
	s-5.9-2.2-5.6-3.6C41.6,1.3,44.6,0.6,47.9,1.2z"/>
<path fill="none" stroke="#000000" stroke-width="2" d="M41.4,3.1c0,13.5-16.7,24.4-37.4,24.4"/>
<path fill="none" stroke="#000000" stroke-width="2" d="M53.5,4.8c0,19.2-21.2,34.7-47.4,34.7"/>
</svg>
