<?xml version="1.0" encoding="utf-8"?>
<!-- Generator: Adobe Illustrator 17.1.0, SVG Export Plug-In . SVG Version: 6.00 Build 0)  -->

<svg version="1.1" id="Layer_1" xmlns="http://www.w3.org/2000/svg" xmlns:xlink="http://www.w3.org/1999/xlink" x="0px" y="0px"
	 width="62px" height="57.5px" viewBox="0 0 62 57.5" enable-background="new 0 0 62 57.5" xml:space="preserve">
<path fill="none" stroke="#000000" stroke-width="2" stroke-linecap="round" stroke-linejoin="round" d="M2.6,32
	c0,0,7.1-5.3,11.3-12.5c4.3-7.5,5.7-16.9,5.7-16.9"/>
<path fill="none" stroke="#000000" stroke-width="2" stroke-linecap="round" stroke-linejoin="round" d="M19.5,2.7
	c0,0,8,9,17.7,14.5c10.2,5.9,22.1,8.4,22.1,8.4"/>
<path fill="none" stroke="#000000" stroke-width="2" stroke-linecap="round" stroke-linejoin="round" d="M59.4,25.6
	c0,0-7.2,5.3-11.4,12.7C43.7,45.7,42.5,55,42.5,55"/>
<path fill="none" stroke="#000000" stroke-width="2" stroke-linecap="round" stroke-linejoin="round" d="M42.5,55
	c0,0-8.4-9.1-18.6-15c-9.8-5.7-21.3-8-21.3-8"/>
<path fill="#FFFFFF" stroke="#000000" d="M43,52.9c1.1,0.4,1.6,1.6,1.2,2.7c-0.4,1.1-1.6,1.7-2.7,1.3c-1.1-0.4-1.6-1.6-1.2-2.7
	C40.7,53.1,41.9,52.5,43,52.9z"/>
<ellipse fill="#FFFFFF" stroke="#000000" cx="19.5" cy="2.6" rx="2.1" ry="2.1"/>
<ellipse fill="#FFFFFF" stroke="#000000" cx="59.4" cy="25.5" rx="2.1" ry="2.1"/>
<ellipse fill="#FFFFFF" stroke="#000000" cx="2.6" cy="31.9" rx="2.1" ry="2.1"/>
<ellipse fill="#FFFFFF" stroke="#000000" cx="14.5" cy="18.8" rx="2.1" ry="2.1"/>
<ellipse fill="#FFFFFF" stroke="#000000" cx="25" cy="40.6" rx="2.1" ry="2.1"/>
<ellipse fill="#FFFFFF" stroke="#000000" cx="37.3" cy="16.8" rx="2.1" ry="2.1"/>
<ellipse fill="#FFFFFF" stroke="#000000" cx="47.9" cy="38.3" rx="2.1" ry="2.1"/>
</svg>
