<?xml version="1.0" encoding="UTF-8" standalone="no"?><svg xmlns="http://www.w3.org/2000/svg" xmlns:xlink="http://www.w3.org/1999/xlink" stroke-dasharray="none" shape-rendering="auto" font-family="'Dialog'" width="44.812600" text-rendering="auto" fill-opacity="1" contentScriptType="text/ecmascript" color-interpolation="auto" color-rendering="auto" preserveAspectRatio="xMidYMid meet" font-size="12" fill="black" stroke="black" image-rendering="auto" stroke-miterlimit="10" zoomAndPan="magnify" version="1.0" stroke-linecap="square" stroke-linejoin="miter" contentStyleType="text/css" font-style="normal" height="21" stroke-width="1" stroke-dashoffset="0" font-weight="normal" stroke-opacity="1" y="-7.000000"><!--Converted from MathML using JEuclid--><defs id="genericDefs"/><g><g text-rendering="optimizeLegibility" transform="translate(0,14)" color-rendering="optimizeQuality" color-interpolation="linearRGB" image-rendering="optimizeQuality"><path d="M6 -13.3281 L5.9062 -12.8594 Q5.4688 -12.7969 5.2266 -12.5938 Q4.9844 -12.3906 4.8906 -12.0234 Q4.7969 -11.6562 4.7969 -11.0469 Q4.7969 -10.8438 4.8125 -10.6406 L5.0938 -3.0156 L5.0938 -2.2344 L5.2031 -2.2344 L9.4219 -9.8594 Q9.7969 -10.5312 9.9844 -11.0156 Q10.1719 -11.5 10.1719 -11.875 Q10.1719 -12.2656 9.9375 -12.5156 Q9.7031 -12.7656 9.1875 -12.8594 L9.2969 -13.3281 L13.2969 -13.3281 L13.1875 -12.8594 Q12.9219 -12.8125 12.6797 -12.6484 Q12.4375 -12.4844 12.1406 -12.1094 Q11.8438 -11.7344 11.2188 -10.6719 L4.9688 0.1562 L3.6719 0.1562 L3.0156 -10.7344 Q2.9844 -11.375 2.8828 -11.8281 Q2.7812 -12.2812 2.5547 -12.5312 Q2.3281 -12.7812 1.8594 -12.8594 L1.9688 -13.3281 L6 -13.3281 Z" stroke="none"/></g><g text-rendering="optimizeLegibility" transform="translate(13.2969,17.2344)" color-rendering="optimizeQuality" color-interpolation="linearRGB" image-rendering="optimizeQuality"><path d="M2.625 -9.2188 L2.625 -7.8906 L1.3594 -7.8906 L1.3594 -9.2188 L2.625 -9.2188 ZM0.6562 -0.3281 Q0.9375 -0.4219 1.0469 -0.4844 Q1.1562 -0.5469 1.2344 -0.6562 Q1.3125 -0.7656 1.3594 -0.9844 Q1.4062 -1.2031 1.4062 -1.6875 L1.4062 -4.6719 Q1.4062 -5.1094 1.3906 -5.375 Q1.375 -5.6406 1.2891 -5.8047 Q1.2031 -5.9688 1.0391 -6.0469 Q0.875 -6.125 0.5625 -6.1719 L0.5625 -6.5312 L2.1562 -6.5938 L2.5781 -6.5938 L2.5781 -1.7031 Q2.5781 -1.125 2.6328 -0.8906 Q2.6875 -0.6562 2.8438 -0.5391 Q3 -0.4219 3.3438 -0.3281 L3.3438 0 L0.6562 0 L0.6562 -0.3281 ZM6.5156 -5.4844 L6.6094 -5.4531 Q7.0156 -5.8594 7.2812 -6.0703 Q7.5469 -6.2812 7.7891 -6.4062 Q8.0312 -6.5312 8.25 -6.5859 Q8.4688 -6.6406 8.6875 -6.6406 Q9.375 -6.6406 9.8047 -6.3281 Q10.2344 -6.0156 10.4062 -5.3594 Q10.9062 -5.8906 11.2266 -6.1328 Q11.5469 -6.375 11.875 -6.5078 Q12.2031 -6.6406 12.5938 -6.6406 Q13.0469 -6.6406 13.3828 -6.5078 Q13.7188 -6.375 13.9453 -6.1016 Q14.1719 -5.8281 14.2812 -5.4062 Q14.3906 -4.9844 14.3906 -4.2812 L14.3906 -1.7031 Q14.3906 -1.1875 14.4219 -0.9922 Q14.4531 -0.7969 14.5156 -0.6875 Q14.5781 -0.5781 14.7109 -0.5 Q14.8438 -0.4219 15.1562 -0.3281 L15.1562 0 L12.4688 0 L12.4688 -0.3281 Q12.7344 -0.4219 12.8516 -0.4844 Q12.9688 -0.5469 13.0469 -0.6562 Q13.125 -0.7656 13.1641 -0.9922 Q13.2031 -1.2188 13.2031 -1.6875 L13.2031 -3.4688 Q13.2031 -4.0469 13.1719 -4.4297 Q13.1406 -4.8125 13.0781 -5.0391 Q13.0156 -5.2656 12.9219 -5.3984 Q12.8281 -5.5312 12.7109 -5.625 Q12.5938 -5.7188 12.4375 -5.7734 Q12.2812 -5.8281 12.0312 -5.8281 Q11.75 -5.8281 11.5156 -5.7188 Q11.2812 -5.6094 11.0078 -5.3516 Q10.7344 -5.0938 10.6094 -4.8281 Q10.4844 -4.5625 10.4844 -4.2031 L10.4844 -1.7031 Q10.4844 -1.1875 10.5156 -0.9922 Q10.5469 -0.7969 10.6094 -0.6875 Q10.6719 -0.5781 10.8047 -0.5 Q10.9375 -0.4219 11.25 -0.3281 L11.25 0 L8.5625 0 L8.5625 -0.3281 Q8.8281 -0.4219 8.9453 -0.4844 Q9.0625 -0.5469 9.1406 -0.6562 Q9.2188 -0.7656 9.2656 -0.9922 Q9.3125 -1.2188 9.3125 -1.6875 L9.3125 -3.4688 Q9.3125 -4.0781 9.2734 -4.4609 Q9.2344 -4.8438 9.1641 -5.0781 Q9.0938 -5.3125 8.9844 -5.4531 Q8.875 -5.5938 8.7578 -5.6719 Q8.6406 -5.75 8.4844 -5.7891 Q8.3281 -5.8281 8.125 -5.8281 Q7.8438 -5.8281 7.5938 -5.7031 Q7.3438 -5.5781 7.0938 -5.3359 Q6.8438 -5.0938 6.7109 -4.8359 Q6.5781 -4.5781 6.5781 -4.2656 L6.5781 -1.7031 Q6.5781 -1.3125 6.6016 -1.1094 Q6.625 -0.9062 6.6641 -0.7891 Q6.7031 -0.6719 6.7734 -0.6016 Q6.8438 -0.5312 6.9688 -0.4688 Q7.0938 -0.4062 7.3438 -0.3281 L7.3438 0 L4.6719 0 L4.6719 -0.3281 Q4.9375 -0.4219 5.0469 -0.4844 Q5.1562 -0.5469 5.2344 -0.6562 Q5.3125 -0.7656 5.3594 -0.9844 Q5.4062 -1.2031 5.4062 -1.6875 L5.4062 -4.6719 Q5.4062 -5.1094 5.3906 -5.375 Q5.375 -5.6406 5.2891 -5.8047 Q5.2031 -5.9688 5.0391 -6.0469 Q4.875 -6.125 4.5625 -6.1719 L4.5625 -6.5312 L6.1719 -6.5938 L6.5781 -6.5938 L6.5156 -5.4844 ZM20.6094 -0.9844 L20.5156 -1 Q19.9219 -0.3906 19.3984 -0.1406 Q18.875 0.1094 18.2812 0.1094 Q17.7656 0.1094 17.3672 -0.0938 Q16.9688 -0.2969 16.7578 -0.6641 Q16.5469 -1.0312 16.5469 -1.5 Q16.5469 -2.5 17.5312 -3.0469 Q18.5156 -3.5938 20.5 -3.6719 L20.5 -4.125 Q20.5 -4.8281 20.3594 -5.2422 Q20.2188 -5.6562 19.9297 -5.8438 Q19.6406 -6.0312 19.1406 -6.0312 Q18.6094 -6.0312 18.2891 -5.75 Q17.9688 -5.4688 17.7969 -4.9219 L16.9062 -4.9219 L16.9062 -5.7969 Q17.5625 -6.1406 18 -6.3047 Q18.4375 -6.4688 18.875 -6.5625 Q19.3125 -6.6562 19.7656 -6.6562 Q20.4375 -6.6562 20.8438 -6.4375 Q21.25 -6.2188 21.4609 -5.7734 Q21.6719 -5.3281 21.6719 -4.4375 L21.6719 -2.0625 Q21.6719 -1.5469 21.6797 -1.3438 Q21.6875 -1.1406 21.7188 -0.9609 Q21.75 -0.7812 21.8203 -0.6719 Q21.8906 -0.5625 22.0234 -0.4922 Q22.1562 -0.4219 22.4531 -0.3281 L22.4531 0 L20.5781 0 L20.6094 -0.9844 ZM20.5 -3.125 Q19.1094 -3.1094 18.4219 -2.75 Q17.7344 -2.3906 17.7344 -1.6719 Q17.7344 -1.2812 17.8906 -1.0547 Q18.0469 -0.8281 18.2812 -0.7422 Q18.5156 -0.6562 18.8438 -0.6562 Q19.3125 -0.6562 19.6953 -0.8828 Q20.0781 -1.1094 20.2891 -1.4609 Q20.5 -1.8125 20.5 -2.1562 L20.5 -3.125 ZM29.7969 -5.8438 L28.5312 -5.8906 L28.4688 -5.8125 Q28.6875 -5.6094 28.8047 -5.2422 Q28.9219 -4.875 28.9219 -4.4531 Q28.9219 -3.3438 28.2344 -2.7344 Q27.5469 -2.125 26.2812 -2.125 Q25.7188 -2.125 25.3125 -2.2656 Q24.7969 -1.875 24.7969 -1.4844 Q24.7969 -1.2344 24.8906 -1.1094 Q24.9844 -0.9844 25.2188 -0.9297 Q25.4531 -0.875 25.9062 -0.875 L27.5469 -0.875 Q28.2812 -0.875 28.7344 -0.6484 Q29.1875 -0.4219 29.3828 -0.0391 Q29.5781 0.3438 29.5781 0.8438 Q29.5781 1.4844 29.2109 1.9922 Q28.8438 2.5 28.1484 2.7812 Q27.4531 3.0625 26.5156 3.0625 Q25.8281 3.0625 25.2578 2.9766 Q24.6875 2.8906 24.2812 2.6953 Q23.875 2.5 23.6562 2.1797 Q23.4375 1.8594 23.4375 1.3906 Q23.4375 0.9531 23.7188 0.6016 Q24 0.25 24.5312 -0.0156 Q24.2031 -0.1406 24.0234 -0.3984 Q23.8438 -0.6562 23.8438 -0.9844 Q23.8438 -1.375 24.0625 -1.7031 Q24.2812 -2.0312 24.8281 -2.4531 Q24.3438 -2.7344 24.0859 -3.2266 Q23.8281 -3.7188 23.8281 -4.3438 Q23.8281 -4.9375 24.0234 -5.3672 Q24.2188 -5.7969 24.5625 -6.0859 Q24.9062 -6.375 25.375 -6.5156 Q25.8438 -6.6562 26.3906 -6.6562 Q26.8906 -6.6562 27.375 -6.5312 L29.7969 -6.5312 L29.7969 -5.8438 ZM25.0469 -4.4531 Q25.0469 -3.6094 25.3984 -3.1406 Q25.75 -2.6719 26.4062 -2.6719 Q26.75 -2.6719 27 -2.8047 Q27.25 -2.9375 27.3984 -3.1719 Q27.5469 -3.4062 27.625 -3.7109 Q27.7031 -4.0156 27.7031 -4.3438 Q27.7031 -4.9531 27.5312 -5.3516 Q27.3594 -5.75 27.0625 -5.9375 Q26.7656 -6.125 26.3906 -6.125 Q25.7344 -6.125 25.3906 -5.6953 Q25.0469 -5.2656 25.0469 -4.4531 ZM25.2188 0.1094 Q24.875 0.375 24.7031 0.6641 Q24.5312 0.9531 24.5312 1.3125 Q24.5312 1.9375 25.0156 2.2266 Q25.5 2.5156 26.5 2.5156 Q27.125 2.5156 27.5625 2.3516 Q28 2.1875 28.2344 1.8828 Q28.4688 1.5781 28.4688 1.1562 Q28.4688 0.9688 28.4219 0.7891 Q28.375 0.6094 28.2422 0.4688 Q28.1094 0.3281 27.8594 0.2422 Q27.6094 0.1562 27.2188 0.1562 L26.2031 0.1562 Q25.6406 0.1562 25.2188 0.1094 Z" stroke="none"/></g></g></svg>